<svg version="1.2" xmlns="http://www.w3.org/2000/svg" viewBox="0 0 1593 412" width="1593" height="412">
	<title>Nongshim_2020_AR__English-1-pdf-svg</title>
	<defs>
		<clipPath clipPathUnits="userSpaceOnUse" id="cp1">
			<path d="m-7671.84-11678.37h9881.94v12624.84h-9881.94z"/>
		</clipPath>
	</defs>
	<style>
		.s0 { fill: #ffffff } 
		.s1 { fill: #e60012 } 
	</style>
	<g id="Clip-Path: Page 1" clip-path="url(#cp1)">
		<g id="Page 1">
			<path id="Path 71" fill-rule="evenodd" class="s0" d="m764.3 272.7c-37 0-66.9-33.7-66.9-75.3c0-41.6 29.9-75.3 66.9-75.3c37 0 66.9 33.7 66.9 75.3c0 41.6-29.9 75.3-66.9 75.3zm32.8-75.3c0-24.6-14.7-44.5-32.8-44.5c-18.2 0-32.8 19.9-32.8 44.5c0 24.6 14.6 44.5 32.8 44.5c18.1 0 32.8-19.9 32.8-44.5zm-137 72.1c-6.5 0-12.1-0.8-16.2-8.9l-41.3-72.9l-6.5-11.4v13l0.8 64.8c0 8.1-7.3 15.4-15.4 15.4c-8.9 0-15.4-7.3-15.4-15.4v-111.8c0-8.9 7.3-15.4 15.4-15.4c0 0 3.2 0 5.7 0c8.9 0 14.6 2.5 17.8 8.1c4.9 8.1 39.7 66.5 39.7 67.3l6.5 10.5v-70.5c0-8.9 6.5-15.4 15.4-15.4c8.1 0 14.6 6.5 14.6 15.4v111.8c0 8.1-6.5 15.4-15.4 15.4zm413.4-8.1c-5.6 6.5-16.2 11.3-27.5 11.3c-37.3 0-68.1-34-68.1-75.3c0-41.3 30.8-75.3 68.1-75.3c20.2 0 39.7 10.5 52.7 28.3c4 7.3 3.2 16.2-4.1 20.3c-6.5 4.8-15.4 2.4-20.3-4.9c-7.3-11.3-17-17.8-28.3-17.8c-20.3 0-36.5 21.9-36.5 49.4c0 26.7 16.2 49.4 36.5 49.4c12.9 0 25.1-9.7 31.6-24.3l1.6-4.9h-19.5c-7.2 0-12.9-5.6-12.9-12.9c0-7.3 5.7-13 12.9-13h36.5c5.7 0 8.9 2.5 8.9 8.1v55.1c0 8.1-6.4 14.6-15.4 14.6c-4 0-8.9-3.3-10.5-7.3l-2.4-5.7zm204.3-51.8v44.5c0 8.9-7.3 15.4-15.4 15.4c-8.1 0-15.4-6.5-15.4-15.4v-111.7c0-8.1 6.4-14.6 15.4-14.6c8.1 0 15.4 6.5 15.4 14.6v38.8h52.7v-38.8c0-8.1 7.2-14.6 15.4-14.6c8.1 0 15.4 6.5 15.4 14.6v111.7c0 8.9-7.3 15.4-15.4 15.4c-8.2 0-15.4-6.5-15.4-15.4v-44.5zm144.3 44.5c0 8.9-7.3 15.4-15.5 15.4c-8.1 0-15.4-6.5-15.4-15.4v-111.7c0-8.1 6.5-14.6 15.4-14.6c8.2 0 15.5 6.5 15.5 14.6zm118.3 3.2c-3.2 7.3-10.5 12.2-18.6 12.2c-7.3 0-14.6-4.9-17.9-12.2l-23.5-84.2v81c0 8.9-6.5 15.4-14.6 15.4c-8.9 0-15.4-6.5-15.4-15.4v-111.8c0-8.1 6.5-14.6 15.4-14.6c0 0 2.5-0.8 12.2-0.8c11.3 0 14.6 2.5 19.4 16.2l21.1 60l3.3 9.7l3.2-9.7l19.5-60c4.8-15.4 9.7-16.2 20.2-16.2c7.3 0 12.2 0.8 12.2 0.8c8.9 0 15.4 6.5 15.4 14.6v111.8c0 8.9-6.5 15.4-14.6 15.4c-8.9 0-15.4-6.5-15.4-15.4v-81zm-354.3-72.1c27.6 6.5 45.4 24.3 44.6 46.2c-0.8 25.1-27.5 44.5-60 43.7c-22.7-0.8-43.7-12.9-52.7-30c-1.6-4-2.4-8-1.6-12.1c0.8-4 3.3-7.3 6.5-8.9c4.1-2.4 8.1-2.4 13-0.8c4 0.8 7.3 3.2 8.1 6.5q8.1 17 25.1 17.8c8.9 0 16.2-2.5 21.1-6.5q4.9-4.9 4.9-9.7c0-8.1-6.5-14.6-17.1-17l-14.6-4.1c-30-7.3-46.2-22.6-45.4-44.5c0.9-23.5 26-42.1 56-41.3c19.4 0.8 38.1 10.5 47 25.1c2.4 3.2 2.4 7.3 1.6 11.3c-0.8 4.1-3.2 7.3-6.5 8.9c-7.3 4.9-16.2 0.8-20.2-4.8c-6.5-8.9-13.8-13-23.5-13.8c-7.3 0-15.4 2.4-19.5 6.5q-4.1 3.2-4.1 8.1c0 5.7 4.9 11.3 13 13.8c6.5 1.6 11.4 2.4 24.3 5.6zm-244 85.1c-6.5 0-12.1-0.9-17-9l-41.3-72.8l-5.7-11.4v77.8c0 8.1-7.3 15.4-15.4 15.4c-8.1 0-15.4-7.3-15.4-15.4v-111.8c0-8.9 7.3-15.4 15.4-15.4c0.8 0 3.2 0 5.7 0c8.9 0 14.5 2.5 17.8 8.1c5.7 8.1 39.7 66.4 39.7 67.2l6.5 10.6v-70.5c0-8.1 7.3-15.4 15.4-15.4c8.1 0 15.4 6.5 15.4 15.4v111.8c0 8.1-7.3 15.4-16.2 15.4z"/>
			<path id="Path 72" fill-rule="evenodd" class="s1" d="m241.4 412c-133.4 0-241.2-91.9-241.2-205.7c0-113.7 107.8-205.7 241.2-205.7c133.4 0 241.2 92 241.2 205.7c0 113.8-107.8 205.7-241.2 205.7zm76.6-281c0-60.9-34.2-110.1-76.6-110.1c-42.3 0-76.6 49.2-76.6 110.1c0 60.9 34.3 110.1 76.6 110.1c42.4 0 76.6-49.2 76.6-110.1z"/>
		</g>
	</g>
</svg>