<svg version="1.2" xmlns="http://www.w3.org/2000/svg" viewBox="0 0 1520 1085" width="1520" height="1085">
	<title>HongKongFerryLogo-svg</title>
	<style>
		.s0 { fill: #231f20 } 
		.s1 { fill: #e52629 } 
	</style>
	<path id="Layer" class="s0" d="m1110 868.9l94.5-392.3h315.3l-24.4 100.4h-177.8l-14.9 62.5h147.9l-23.1 97.3h-147.9l-32.1 132.1z"/>
	<path id="Layer" class="s1" d="m249.9 22.7h1007l-20.8 98.2h-1007.4z"/>
	<path id="Layer" fill-rule="evenodd" class="s0" d="m1096.5 869.4l-50.2 214.9h-1045.5c0 0 130.3-612.7 180.1-844.4h348.8c80 0 177.3 53 143.8 177.4l-14 60.2h89.1l-94.5 392.3h-118.6l36.7-152h-118.5l-29 119.9c20.4 5.9 42.1 13.1 64.7 22.2 155.2 62.9 171.9 81.9 298.6 76 58.3-2.7 131.2-24.9 187.7-46.6l-93.2-163.4-46.1 34.9-24.9 108.1h-122.2l94.6-392.3 88.7 0.4c6.7-40.2 18.5-107.2 18.5-107.2 8.6-57.9-13.6-103.2-105.4-82.8l5.4-30.3 1.4-7.7c9.9-80.6-23.1-97.3-76.5-97.3h-515.7l32.1-151.6h1045.5l-101.8 475.1-3.2 1.4h3.2l-189.5 161.1zm-34 6.8v3.1c-28.5 16.8-172.8 80.6-275 85.6-126.7 5.8-143.4-13.2-298.6-76.1-24.9-9.9-48.8-18.1-71-24.4l-0.9 4.5h-125.3l5.4-23c-48.4-1.4-87.3 5.4-116.3 11.7-60.6 14-111.2 57-111.2 57v-9.5l-17.2 81.5c16.7-10.4 58.3-34.9 104.9-46.2 60.6-14 162.4-34.4 302.2 22.7 155.2 62.8 188.2 87.7 297.2 82.8 101.8-4.6 246.6-68.8 275.1-85.1l17.6-9.5 20.4-76.9zm-417.1-463.4c27.6-107.7-47.1-142.5-115.4-142.5h-324.8c-20.8 98.6-52 244.8-81.9 384.6 20.4-13.6 52.5-31.2 87.3-39.4 34.4-8.1 83.3-19 145.3-14l29.8-124.4h125.3l-29.8 124.4h118.5l30.3-124.9zm-296.3 217.7c-58.8-4.1-105 6.3-138.4 14.4-39.4 9.5-75.1 30.8-95 44.8l-16.3 76.1c20.3-13.6 53.4-32.6 89.5-41.2 33.5-7.7 80.1-15.4 139.8-10.9 0-0.4 20.4-83.2 20.4-83.2zm-27.2 112.2c-56.1-3.6-100.4 3.6-132.5 11.3-41.2 9.5-77.8 32.6-97.3 46.1l-17.2 81.5c14.5-10.9 57-41.2 106.4-52.9 30.3-7.3 71.4-14.1 123-11.8zm580.9-265.6l-1.4 7.2-4.1 22.6h-0.4l-9.1 46.6 112.7-76.9h149.7l95.9-449.8h-989.3l-19.9 94.2h478.6c64.7 0 117.1 21.7 106.3 128l-0.5 3.2c81.5-3.6 110.4 65.6 100 117.6zm138.9 510.9l-10 5.4c-18.5 10.9-87.3 42.6-161.5 63.8h156.6zm-431.6 69.3c-38-13.6-82.3-34-150.7-61.6-139.7-57-241.5-36.6-302.1-22.6-60.7 14-112.7 51.1-112.7 51.1v-1.8l-7.2 34.9z"/>
</svg>