<svg version="1.2" xmlns="http://www.w3.org/2000/svg" viewBox="0 0 1549 664" width="1549" height="664">
	<title>HMM_Logo_Basic_Form-svg</title>
	<style>
		.s0 { fill: #ffffff } 
	</style>
	<g id="layer1">
		<g id="g354">
			<g id="g360">
				<path id="path362" class="s0" d="m773.7 163.5l-114-111h-659.7v-51.4h680.6l93.3 90.8 94.6-90.9h679.6v51.4h-658.8z"/>
			</g>
			<g id="g368">
				<path id="path358" class="s0" d="m918.9 127.7h140.2v499.4l-151.4 36.7v-323.5l-133.7 129.5-133.7-129.5v323.5l-151.3-36.7v-499.4h140l145 140.8zm-623.1 0h147.4v488.3l-147.4-35.8v-184.5h-148.5v148.4l-147.3-36v-380.4h147.3v126.1h148.5zm1252.2 0v380.5l-146.8 35.7v-221.4l-74.8 71.6-74.8-71.6v257.8l-146.8 35.7v-488.3h146l75.6 72.4 75.6-72.4z"/>
			</g>
		</g>
	</g>
</svg>