<svg version="1.2" xmlns="http://www.w3.org/2000/svg" viewBox="0 0 1516 1339" width="1516" height="1339">
	<title>0434</title>
	<style>
		.s0 { fill: #f5821f } 
		.s1 { fill: #72bf44 } 
	</style>
	<path id="Path 72" fill-rule="evenodd" class="s0" d="m1158.9 892.5c-197.1 0-356.4-159.5-356.4-356.8 0-197.3 159.3-356.7 356.4-356.7 197.1 0 356.4 159.4 356.4 356.7 0 197.3-159.3 356.8-356.4 356.8zm178.1-356.9c0-98.6-79.6-178.4-178.1-178.4-98.5 0-178.2 79.8-178.2 178.4 0 98.7 79.7 178.4 178.2 178.4 98.5 0 178.1-79.7 178.1-178.4zm-1336.3-534.9h178.3v226c52.3-30.5 113.3-47.7 178-47.7 196.9 0 356.7 159.8 356.7 356.7 0 196.7-159.8 356.8-356.7 356.8-196.5 0-356.3-160.1-356.3-356.8zm178.3 534.8v0.3c0 98.5 79.9 178.2 178 178.2 98.6 0 178.2-79.7 178.2-178.2 0-98.4-79.6-178.5-178.2-178.5-98.1 0-178 79.6-178 178.2z"/>
	<path id="Path 73" class="s1" d="m360.2 1054.3c117.5 67.3 253.2 105.7 397.8 105.7 144.6 0 280.3-38.4 397.8-105.7l89.3 106.7c-135.8 113.8-308.4 177.3-487.1 177.3-178.5 0-350.9-63.5-486.6-177.3z"/>
</svg>