<svg version="1.2" xmlns="http://www.w3.org/2000/svg" viewBox="0 0 1596 545" width="1596" height="545">
	<title>201310302324172_en-1-pdf-svg</title>
	<defs>
		<clipPath clipPathUnits="userSpaceOnUse" id="cp1">
			<path d="m-10995.8-656.66h13258.74v8481.2h-13258.74z"/>
		</clipPath>
	</defs>
	<style>
		.s0 { fill: #f5821f } 
		.s1 { fill: #72bf44 } 
	</style>
	<g id="Clip-Path: Page 1" clip-path="url(#cp1)">
		<g id="Page 1">
			<path id="Path 72" fill-rule="evenodd" class="s0" d="m471.7 363.4c-80.1 0-144.9-64.8-144.9-145.1 0-80.2 64.8-145.1 144.9-145.1 80.2 0 145 64.9 145 145.1 0 80.3-64.8 145.1-145 145.1zm72.5-145.1c0-40.1-32.4-72.6-72.5-72.6-40 0-72.4 32.5-72.4 72.6 0 40.1 32.4 72.5 72.4 72.5 40.1 0 72.5-32.4 72.5-72.5zm435 0c0-80.1 64.9-145.1 144.8-145.1 26.5 0 51.3 7 72.6 19.4v-12.1h72.5v275.6h-72.5v-12.2c-21.3 12.4-46.1 19.5-72.6 19.5-79.9 0-144.8-65.1-144.8-145.1zm217.4 0c0-40.1-32.4-72.6-72.5-72.6-40 0-72.4 32.5-72.4 72.6 0 40.1 32.4 72.5 72.4 72.5 40.1 0 72.5-32.4 72.5-72.5zm108.7 0c0-80.1 65-145.1 145.1-145.1 26.3 0 51.1 7 72.4 19.4v-12.1h72.5v275.6h-72.5v-12.2c-21.3 12.4-46.1 19.5-72.4 19.5-80.1 0-145.1-65.1-145.1-145.1zm217.5 0c0-40.1-32.4-72.6-72.5-72.6-40.1 0-72.4 32.5-72.4 72.6 0 40.1 32.3 72.5 72.4 72.5 40.1 0 72.5-32.4 72.5-72.5zm-1522.1-217.6h72.5v91.9c21.3-12.4 46.1-19.4 72.4-19.4 80.1 0 145.1 65 145.1 145.1 0 80-65 145.1-145.1 145.1-79.9 0-144.9-65.1-144.9-145.1zm72.5 217.5v0.1c0 40.1 32.5 72.5 72.4 72.5 40.1 0 72.5-32.4 72.5-72.5 0-40-32.4-72.6-72.5-72.6-39.9 0-72.4 32.4-72.4 72.5zm579.9-130.5h72.4v130.6c0 40.1 32.5 72.5 72.5 72.5 40 0 72.5-32.4 72.5-72.5v-130.6h72.4v275.6c0 80.1-65 145.1-144.9 145.1h-108.8v-72.5h108.8c40 0 72.5-32.5 72.5-72.6v-19.3c-21.4 12.2-46.1 19.3-72.5 19.3-80.1 0-144.9-64.9-144.9-145z"/>
			<path id="Path 73" class="s1" d="m146.9 429.2c47.8 27.4 103 43 161.8 43 58.8 0 114-15.6 161.8-43l36.3 43.4c-55.2 46.3-125.4 72.1-198.1 72.1-72.6 0-142.7-25.8-197.9-72.1zm978.6 0c47.6 27.2 102.8 42.8 161.6 42.8 58.9 0 114-15.6 161.8-42.8l36.3 43.3c-55.2 46.4-125.3 72.2-198.1 72.2-72.6 0-142.7-25.8-197.9-72.2z"/>
		</g>
	</g>
</svg>