<svg version="1.2" xmlns="http://www.w3.org/2000/svg" viewBox="0 0 1526 305" width="1526" height="305">
	<title>2021041901037_c-1-pdf-svg</title>
	<defs>
		<clipPath clipPathUnits="userSpaceOnUse" id="cp1">
			<path d="m-9675.67-6905h11847.09v7802.67h-11847.09z"/>
		</clipPath>
		<linearGradient id="g1" x1="372.2" y1="177.1" x2="1523.7" y2="177.1" gradientUnits="userSpaceOnUse">
			<stop offset="0" stop-color="#ffffff"/>
			<stop offset="1" stop-color="#ffffff"/>
		</linearGradient>
		<linearGradient id="g2" x1=".5" y1="151.9" x2="353" y2="151.9" gradientUnits="userSpaceOnUse">
			<stop offset="0" stop-color="#ffffff"/>
			<stop offset="1" stop-color="#ffffff"/>
		</linearGradient>
	</defs>
	<style>
		.s0 { fill: url(#g1) } 
		.s1 { fill: url(#g2) } 
	</style>
	<g id="Clip-Path: Page 1" clip-path="url(#cp1)">
		<g id="Page 1">
			<path id="Path 15" fill-rule="evenodd" class="s0" d="m457.2 48.8c3.2 0 24.2 0 36.9 0.5h44.8l-1.4 8.4c-1.4 5.6-4.7 14.4-9.4 18.2q-7.4 5.6-15.4 5.6h-38.7c-13.6 0-24.3 0.9-26.2 1.8q-3.7 2.4-4.6 8.9l-8 31.3h84.5l-1.8 8.4c-1 5.6-4.7 14.9-9.4 18.2q-7 5.6-14.9 5.6h-63.5l-15.9 87.2h-42l29.9-154q3.7-20.5 17.2-30.3 13.1-9.8 37.9-9.8zm425.4 38.3q29.4 0 51.8 14.9 22.9 14.9 15 54.6l-15.5 79.8c-4.6 26.6-14.9 44.8-33.6 54.6-19.1 9.8-38.3 14-57.9 14-37.8 0-59.8-16.3-62.6-49h44.9q3.7 7.9 13 12.1 9.4 4.7 19.7 2.4 10.7-1.9 21-10.8 9.8-9.3 14.5-27.5l1.8-9.3q-14 15.8-33.6 19.6-19.6 4.2-36.9-2.8-16.8-6.6-26.6-25.2-9.8-18.2-4.2-48.6 7-35 28.5-56.9 21.9-21.9 60.7-21.9zm-21 124.6q17.2 0 28.4-11.7 6.6-6.1 11.7-19.6 5.2-13.1 5.2-26.1 0.4-13.1-5.6-23.4-6.1-10.2-21.5-10.2-21 0-30.8 14-10.3 14.4-13.6 32.6-7.9 38.8 16.4 43.4 5.1 1 9.8 1zm-247.1-121.8q16.4 0 29 4.6 21.9 8.4 28.9 29.4 7 18.2 1.9 43-3.3 18.2-10.3 31.2-6.5 13.1-14.9 22-18.2 18.6-42 22.8-21 5.2-40.7 1-19.6-4.2-29.8-14.5-11.3-9.8-13.1-27.1-2.4-17.2 1.4-35.9 2.8-14.9 10.3-30.3 7.4-15 19.1-25.2 19.1-16.8 44.8-20.1 8-0.9 15.4-0.9zm-23.8 124.1q4.2 0 8.4-0.9 10.3-2.8 19.6-12.6 8.9-10.3 14-32.7 3.8-20.5-1.4-30.3-5.1-10.3-13.5-13.1-8.9-2.8-18.2-0.5-9.8 2.8-15 6.6-15.4 13-18.6 38.7-3.8 25.7 3.2 35.5 2.8 4.6 11.7 7.9 4.7 1.4 9.8 1.4zm871.4-124.1q36.9 0 53.2 20.5 15.4 20.5 8.4 57.9-0.4 2.3-0.9 3.7-0.5 1.9-0.5 2.3-0.4 2.8-1.4 4.2h-106q-2.3 17.3 4.2 25.7 6.6 8.9 22.4 8.9 10.3 0 18.7-3.8 1.9-0.4 3.3-1.8 1.9-1.4 4.2-3.3 0.9-1.9 5.6-4.7 4.2-2.8 11.7-2.8h30.8q-11.7 23.8-32.7 36.4-21.5 12.6-50.4 12.6-34.6 0-50.5-20.5-15.4-20.5-8.4-58.3 7-36 29.9-56 23.4-21 58.4-21zm-42 63h62.1q1.8-15-4.2-22.4-6.1-8-21-8-13.6 0-23.4 8-10.3 7.9-13.5 22.4zm-119.6-63q26.6 0 47.2 13 20.1 13.1 12.6 52.3l-17.3 87.7h-21q-9.3 0-14-5.1-5.1-5.6-3.3-14l14.5-76.5q2.8-13.6-5.1-19.6-7.5-6.1-18.7-6.1-10.8 0-21 6.1-9.8 6-12.6 19.6l-1.4 7.9-16.9 87.7h-42.4l16.8-87.7 1.8-7.9q2.4-13.6-5.1-19.6-7.9-6.1-18.7-6.1-11.2 0-21 6.1-9.8 6-12.1 19.6l-18.3 95.6h-42.9l16.8-87.7q7.5-38.3 31.3-51.3 24.3-12.6 50.9-14 14 0 27.1 2.8 12.6 2.8 22.4 11.2 10.3-7 23.8-10.3 13.1-3.3 26.6-3.7zm-257.3 0q34.1 0 49 10.7 15.9 11.2 11.7 31.7l-4.2 22.9-16.8 87.7h-9.8c-20.5 0-20.1-13.5-19.1-19.1-7.5 14.9-24.8 21-33.2 21.5-10.3 0.4-13.5 1.4-21 1.4-15 0-27.1-4.7-36.4-11.7q-14.5-11.2-9.8-36.4 4.6-23.8 21.4-33.6 17.3-10.3 41.1-13.5 2.8 0 7.5-1 4.2-0.9 9.8-1.4 27.6-3.2 29.9-14.9 1.4-8.4-7.5-10.7-8.8-2.4-16.8-2.4-8.4 0-15.9 1.9-7 2.3-11.2 8.4h-41.1q5.6-17.3 22.9-28.5 18.7-13 49.5-13zm-31.7 125.5q17.2 0 28.9-8.9 11.2-8.8 14.5-24.7l2.8-14q-9.3 3.7-25.2 7l-15 2.8q-11.6 2.8-17.2 7.5-5.6 6-6.6 12.6-1.9 8.4 2.8 13.5 4.7 4.2 15 4.2zm-219.5-122.3c1.4 0 10.3 1 10.7 1 0 0-3.2 39.2-28.5 39.2h-0.9q-17.7 0-27.5 7.9-10.3 7.9-13.6 24.7l-14.5 77h-42.9l14-72.3q4.2-21.9 14-36.9 9.8-14.9 23.8-24.2 13.1-8.4 29.4-12.2 16.4-4.2 33.2-4.2z"/>
			<path id="Path 16" fill-rule="evenodd" class="s1" d="m200.8 0.3c84.1 0 152.2 68.1 152.2 151.6 0 84-68.1 152.2-152.2 152.2-69.6 0-128.4-47.2-146.2-111.1q7.5 5.1 15.9 9.3c19.6 46.2 65.4 78.9 118.6 78.9 46.3 0 86.9-24.3 109.8-60.7-117.2 23.4-216.7-4.2-298-82.6q-0.4-0.4-0.4-0.4 0-0.5 0.4-1 0 0-0.4 0 1.4-2.8 3.2-5.1 8-16.8 26.2-28.5 28.9-18.6 60.7-15.8 4.7 0.4 9.3 0.4c27.1 6.1 43.9 22.4 73.8 24.8 32.2 1.4 57-5.2 90.1-16.4 4.7-1.8 9.4-3.7 14-6q-47.1 35.9-94.3 52.7 53.3 13.5 111.6 5.1c5.2-0.4 11.2-1.8 16.8-3.7q-57.4 28.9-111.6 37.8 0.5 0 0.5 0-0.5 0.5-0.9 0.5 0 0-0.5 0-2.8 0.4-5.6 0.9c-32.2 4.2-64.9 3.3-94.8-3.3q47.6 13.1 97.6 8.4 7.5-0.9 14.5-1.8 44.3 18.6 93.8 23.3c8.4-17.3 13.6-36.9 13.6-57.9 0-70.9-57.9-128.8-129.4-128.8-41.1 0-78 19.6-101.8 49.5q-8.4 0-16.8 1.4c26.6-44.3 75.2-73.7 130.3-73.7zm-174.6 139.5c4.6 0 8.4-3.7 8.4-8.4 0-4.2-3.8-7.9-8.4-7.9q0 0-0.5 0c-4.2 0.4-7.5 3.7-7.5 7.9 0 4.7 3.7 8.4 8 8.4zm214.3-89.1c-21 21.9-34.6 55.5-66.3 55-26.6-0.9-62.1-19.1-62.1-19.1q59.3 1.9 116.2-28.5c4.3-2.3 8.5-4.6 12.2-7.4z"/>
		</g>
	</g>
</svg>