<svg version="1.2" xmlns="http://www.w3.org/2000/svg" viewBox="0 0 1546 405" width="1546" height="405">
	<title>brand-footer-svg</title>
	<style>
		.s0 { fill: #ffffff } 
	</style>
	<g id="primary_x5F_horizontal_2_">
		<path id="D_x5F_mark_2_" fill-rule="evenodd" class="s0" d="m400.8 199.7c1.3 112.8-89.5 204.8-202.3 204.8h-196.6q-1.9 0-1.9-1.9v-77q0-1.9 1.9-1.9h196.6c68.3 0 122.8-55.7 121.5-124-1.8-66.3-57.6-118.9-124-118.9h-194.1q-1.9 0-1.9-1.9v-77q0-1.9 1.9-1.9h193.5c111.5 0 204.2 88.3 205.4 199.7zm-202.3 42.6h-122.7q-1.9 0-1.9-1.9v-77q0-1.9 1.9-1.9h121.5c21.3 0 41.3 17.6 42 38.9 0.6 23.1-17.6 42.5-40.8 42.5z"/>
		<path id="logotype_3_" fill-rule="evenodd" class="s0" d="m1485 156.5v22c0 0 0 0.6-0.6 0.6h-85.2c-25.1 0-33.8-10-33.8-33.8v-105.2c0 0 0-0.7 0.6-0.7h25c0 0 0.7 0 0.7 0.7v101.4c0 11.3 3.1 13.2 13.8 13.2h78.9c0.6 0 1.2 0.6 0.6 1.8zm-496.7-117.1v137.8c0 0 0 0.6-0.6 0.6h-25.1c0 0-0.6 0-0.6-0.6v-137.8c0 0 0-0.6 0.6-0.6h25.1c0.6 0 0.6 0.6 0.6 0.6zm-313.1 68.9c0 54.5-22.6 69.5-79.6 69.5h-72c0 0-0.6 0-0.6-0.6v-137.8c0 0 0-0.6 0.6-0.6h72c65.2 0 80.2 22.6 79.6 69.5zm-27.6 0c0-32.5-6.3-45.7-52-45.7h-45.7c0 0-0.6 0-0.6 0.6v90.8c0 0 0 0.7 0.6 0.7h45.7c45.7 0 52.6-12.6 52-46.4zm85.2-68.9v137.8c0 0 0 0.6-0.6 0.6h-25.1c0 0-0.6 0-0.6-0.6v-137.8c0 0 0-0.6 0.6-0.6h25.1c0.6 0 1.2 0.6 0.6 0.6zm192.3 58.3v53.2c-16.9 20-45.8 28.2-77.7 28.2-60.1 0-83.3-26.3-83.3-72 0-47 25.7-72 80.2-72 30 0 68.9 6.2 79.5 43.8 0.6 0.6 0 1.2-0.6 1.2h-26.3l-0.6-0.6c-5.7-13.8-19.5-20.6-51.4-20.6-47 0-52.6 20-52.6 48.8 0 33.8 9.4 48.8 55.1 48.8 20.7 0 40.1-5.6 51.4-15v-20c0 0 0-0.7-0.7-0.7h-52.6c0 0-0.6 0-0.6-0.6v-21.3c0 0 0-0.6 0.6-0.6h78.9c0 0 0.7 0.6 0.7-0.6zm248-35.1h-63.3c0 0-0.6 0-0.6 0.6v114c0 0 0 0.6-0.6 0.6h-25.1c0 0-0.6 0-0.6-0.6v-114c0 0 0-0.6-0.6-0.6h-62.7c0 0-0.6 0-0.6-0.6v-21.9c0 0 0-0.7 0.6-0.7h154.1c0 0 0.6 0 0.6 0.7v21.9c0 0.6-0.6 0.6-1.2 0.6zm179.7 164.1v137.7c0 0 0 0.6-0.6 0.6h-25c0 0-0.7 0-0.7-0.6v-137.7c0 0 0-0.7 0.7-0.7h25c0.6 0 1.3 0.7 0.6 0.7zm-112.7 13.1l57.6 124c0.7 0.6 0 1.2-0.6 1.2h-26.9l-0.7-0.6-12.5-26.3c0-0.6 0-0.6-0.6-0.6h-54.5c-0.6 0-0.6 0-0.6-0.6l10.6-21.9h34.5v-0.7l-28.8-61.3c-1.3-2.5-2.5-2.5-5.1-2.5-2.5 0-3.7 0-5 2.5l-52.6 112c0 0.7 0 0.7-0.6 0.7h-26.9c-0.7 0-0.7-0.7-0.7-1.3l58.3-124.6c5.6-13.1 16.9-13.8 27.5-13.8 10.7 0 21.3 0.7 27.6 13.8zm305-13.1v117.1c0 15.6-8.1 21.9-19.4 21.9h-6.9c-9.4 0-14.4-5.7-26.3-19.4l-60.7-75.2c-6.3-6.9-9.4-11.2-11.3-11.2h-1.9c-1.9 0-2.5 1.2-2.5 4.3v100.2c0 0 0 0.6-0.6 0.6h-25.1c0 0-0.6 0-0.6-0.6v-116.4c0-15.1 7.5-22 19.4-22h6.9c9.4 0 14.4 5.7 26.3 19.5l60.8 75.1c6.2 6.9 9.4 11.3 11.2 11.3h1.9c1.9 0 2.5-1.3 2.5-4.4v-100.8c0 0 0-0.7 0.6-0.7h25.1c0.6 0 0.6 0.7 0.6 0.7zm-447.8 21.3v117c0 0 0 0.7-0.6 0.7h-25.1c0 0-0.6 0-0.6-0.7v-100.8c0-3.1-1.3-4.3-2.5-4.3h-2.5c-2.5 0-4.4 3.7-7.5 11.2l-33.8 76.4c-5.7 11.9-10.7 15.7-22 15.7h-5.6c-11.3 0-16.3-3.2-21.9-15.7l-33.8-76.4c-3.2-7.5-5.1-11.2-7.6-11.2h-2.5c-1.8 0-2.5 1.2-2.5 4.3v100.2c0 0 0 0.6-0.6 0.6h-25.1c0 0-0.6 0-0.6-0.6v-116.4c0-16.3 8.8-22 19.4-22h11.9c11.3 0 17.6 8.8 23.2 21.3l38.8 87.7c1.9 3.7 1.9 3.7 3.2 3.7h2.5c1.2 0 1.2 0 3.1-3.7l38.8-87.7c5.7-12.5 11.9-21.3 23.2-21.3h11.9c10.7 0 19.4 5.7 18.8 22zm-421.5 47.5c0 54.5-22.6 69.5-79.5 69.5h-72.1c0 0-0.6 0-0.6-0.6v-137.7c0 0 0-0.7 0.6-0.7h72.1c64.5 0 79.5 22.6 79.5 69.5zm-27.6 0c0-32.5-6.2-45.7-51.9-45.7h-45.8c0 0-0.6 0-0.6 0.7v90.8c0 0 0 0.6 0.6 0.6h45.8c45 0 51.9-12.5 51.9-46.4zm222.4 0c0 34.5-11.3 72.1-72.7 72.1h-18.1c-61.4 0-72.7-37.6-72.7-72.1 0-34.4 11.3-72 72.7-72h18.1c61.4 0 72.7 37.6 72.7 72zm-27.6 0c0-25.6-3.7-48.8-45.1-48.8h-18.1c-41.4 0-45.1 23.2-45.1 48.8 0 25.7 3.7 48.9 45.1 48.9h18.1c41.4 0 45.1-23.2 45.1-48.9zm437.8-243.5l58.3 124.6c0.6 0.6 0 1.2-0.7 1.2h-26.9l-0.6-0.6-12.5-26.3c0-0.6 0-0.6-0.7-0.6h-54.5c-0.6 0-0.6 0-0.6-0.6l10.7-22h34.4v-0.6l-28.8-61.4c-1.3-2.5-2.5-2.5-5-2.5-2.5 0-3.8 0-5 2.5l-52.6 112.1c0 0.7 0 0.7-0.7 0.7h-26.9c-0.6 0-0.6-0.7-0.6-1.3l58.2-124.6c5.7-13.2 16.9-13.8 27.6-13.8 10.6 0 21.3 0.6 26.9 13.2z"/>
	</g>
</svg>