<svg version="1.2" xmlns="http://www.w3.org/2000/svg" viewBox="0 0 1596 1136" width="1596" height="1136">
	<title>saudi-investment-bank-seeklogo</title>
	<style>
		.s0 { fill: #f3cf1d } 
		.s1 { fill: #ffffff } 
	</style>
	<g id="Layer 1">
		<g id="&lt;Group&gt;">
			<path id="&lt;Path&gt;" class="s0" d="m798 502c-70 0-126.5-56.5-126.5-126.5c0-70 56.5-126.5 126.5-126.5c70 0 126.5 56.5 126.5 126.5c0 70-56.5 126.5-126.5 126.5z" />
			<path id="&lt;Path&gt;" class="s1" d="m1108.8 439.5l-310.4 310.9l-310.4-310.9c-37.1-37.8-37.1-90.2 1.2-129.6l124.9-125l89 89.5l-101.5 101.5l153.8 153.8c36.4 37.1 36.7 48.5 42.6 77.3c6.2-29.2 6.6-40.2 42.6-77.3l153.8-153.8l-101.5-101.5l89.4-89.5l124.9 125c38.3 39.8 38.3 92.1 1.6 129.6zm-225.3-173.7l-85.9-86.3l-85.9 86.3c-68.3-68-68.3-110.5-8.6-170.3l94.9-94.9l94.9 94.9c59.7 60.1 59.7 102.3-9.4 170.3z" />
			<path id="&lt;Path&gt;" fill-rule="evenodd" class="s1" d="m1595.3 805.8v177.3h-26.6v-151.5c11.7-5.9 20.3-14.9 26.6-25.8zm-6.3 323.3c1.2 0 3.5 0.4 6.3 0.4v3.5h-30.5v-2.3c1.6 0 3.1-0.8 3.5-1.2c0.8-0.4 1.2-1.1 1.2-1.9c0-1.2-0.8-2.8-2.7-5.5l-19.6-25.4l16.4-15.2c3.6-3.1 5.5-5.5 6.3-6.3c0-0.7 0.4-1.5 0.4-1.9q0-1.2-1.2-2.3c-0.8-0.8-1.9-1.2-3.9-1.2v-2h28.1v0.8c-3.9 0-7.4 0.8-10.1 2c-2.4 1.1-5.5 3.5-8.6 6.2l-16.8 15.6l17.2 22.3c4.3 5.8 7.4 9.4 8.6 11.3c1.9 1.6 3.9 2.4 5.4 3.1zm-44.9-95.2h2.8v85.1c0 4.3 0.3 7 0.7 8.2c0.4 1.5 1.2 2.7 2.4 3.1q1.7 1.2 7 1.2v2.3h-31.6v-2.3c3.1 0 5.4-0.8 7-1.6c0.8-0.4 1.6-1.2 2-2.3c0.7-1.6 1.1-4.7 1.1-8.6v-58.6c0-7.4 0-12.1-0.4-13.7c0-1.5-0.7-3.1-1.5-3.5c-0.4-0.8-1.6-1.1-2.8-1.1c-0.7 0-1.9 0.3-3.9 1.1l-1.1-2.3l18.3-7.8zm-27.3 96c1.2 0.8 3.5 1.2 6.6 1.2v2.4h-31.2v-2.4h1.2c3.1 0 5-0.8 6.2-1.6c1.2-1.1 2-2.3 2.4-4.2c0-0.8 0.3-2.8 0.3-6.7v-26.2q0-8.7-2.3-12.8c-1.6-2.4-4.3-3.9-8.2-3.9c-6.2 0-11.7 3.1-17.6 8.9v33.6c0 4.3 0 7.1 0.4 8.2c1.2 1.6 1.6 2.8 2.8 3.1q1.7 1.2 7 1.2v2.4h-31.2v-2.4h1.5c3.1 0 5.5-1.2 6.7-2.7c1.5-1.6 1.9-5.1 1.9-9.8v-24.6c0-7.4-0.4-12.1-0.4-13.6c-0.4-1.6-1.2-3.2-1.5-3.6c-1.2-0.7-2-0.7-3.2-0.7c-1.1 0-2.7 0.3-4.3 1.1l-1.1-1.9l18.3-8.2h3.1v14c7.5-9.3 14.9-14 21.9-14c3.5 0 6.6 1.1 9.4 2.7c2.7 1.6 4.7 4.7 6.2 8.6c1.2 2.7 1.6 7 1.6 12.9v27.3c0 4.3 0.4 7.1 1.2 8.6c0.7 1.6 1.5 2.4 2.3 3.1zm-69.9-4.3c0.8-0.3 2.7-1.9 5.9-3.9v3.2c-5.5 6.6-10.6 10.1-15.3 10.1c-2.3 0-3.9-0.8-5.4-2.3c-1.2-1.6-2-4.7-2-8.6q-9.9 8.2-12.9 9.4c-2.3 1.5-5 1.9-8.2 1.9c-4.6 0-8.2-1.6-11.3-4.3c-2.7-3.1-4.3-7-4.3-12.1c0-2.7 0.4-5.5 2-7.8c1.9-3.1 5.4-6.3 10.1-9q7.6-4.7 24.6-10.5v-2.8c0-6.6-1.2-11.3-3.5-13.6c-2.3-2.8-5.5-3.9-9.8-3.9c-3.1 0-5.8 0.7-7.8 2.3c-1.9 1.6-2.7 3.5-2.7 5.5v4.3c0 2.3-0.4 4.3-1.6 5c-0.7 1.2-2.3 2-3.9 2c-1.5 0-3.1-0.8-3.9-2c-0.8-1.1-1.5-3.1-1.5-5c0-3.9 1.9-7.8 6.2-11.4c4.3-3.1 10.2-5 17.6-5c5.8 0 10.5 1.1 14.4 3.1c2.8 1.6 5.1 3.9 6.3 7c0.8 2 1.1 6.3 1.1 12.5v21.9c0 5.8 0 9.7 0.4 11.3c0 1.2 0.4 2.4 1.2 2.7c0.4 0.4 1.2 0.4 2 0.4c0.4 0 1.1 0 2.3-0.4zm-16.8-6.2v-23.4c-7.8 2.7-12.5 4.6-14.8 5.8c-3.9 2-7 3.9-8.6 6.3c-1.6 1.9-2.7 4.3-2.7 7c0 3.1 1.1 5.5 3.1 7.8c1.9 2 4.3 3.1 7.4 3.1c3.9 0 9-1.9 15.2-6.6zm-56.2-28.9c4.7 4.3 7 9.8 7 16c0 4.7-1.5 9.4-4.7 13.7c-2.7 4.3-6.6 7.4-12.1 9.3c-5.4 2-13.2 3.2-23.8 3.2h-44.9v-2.4h3.5c3.6 0 6.3-1.1 8.2-3.9c0.8-1.5 1.6-5.1 1.6-10.5v-61.7c0-5.9-1.2-9.8-2.3-11.3c-1.6-2-4.7-3.2-7.8-3.2h-3.6v-2.3h40.3c7 0 13.2 0.4 17.9 1.6c6.7 1.5 12.1 4.6 15.6 8.9c3.5 4.3 5.5 9.4 5.5 14.9c0 4.7-1.2 9-3.9 12.9c-2.7 3.5-7 6.2-12.1 8.2c6.6 1.5 11.7 3.9 15.6 6.6zm-51.9-46.9v36.7c1.5 0.4 3.9 0.4 5.8 0.8c2.4 0 4.7 0.4 7.5 0.4q9.9 0 15.2-2.3c3.1-1.6 5.8-3.9 6.6-7.1c1.6-2.7 2-6.2 2-9.7c0-5.9-2.4-10.6-6.7-14.5q-6.4-5.8-18.7-5.8c-4.7 0-8.6 0.4-12.1 1.5zm42.5 64.5c0-3.9-1.1-7.5-3.5-11c-2.3-3.5-5.4-6.2-10.1-8.2c-4.3-1.9-10.2-3.1-16.8-3.1c-2.7 0-5.1 0-7.4 0.4c-2 0-3.5 0-5.1 0.4v39.8c5.9 1.2 10.9 2 16.4 2c8.6 0 14.8-2 19.5-5.9c4.7-3.9 7-8.6 7-14.4zm-110.8 13.2h3.5c-1.6 4.3-3.9 7.5-7.1 9.8c-3.1 2.7-6.2 3.5-9.3 3.5c-2.4 0-4.3-0.8-6.7-1.9c-1.9-1.2-3.5-3.2-4.6-5.5c-0.8-1.9-1.6-5.9-1.6-10.5v-44.9h-11.3v-2c2.7-0.8 5.8-2.7 8.6-5.1c2.7-2.3 5.4-5.1 7.8-8.6c0.8-1.9 2.7-5 4.7-9.7h1.1v21.4h14.9v4.3h-14.9v43.4c0 4.3 0.8 7 2 8.6q1.7 2.3 4.7 2.3c1.5 0 3.1-0.8 4.6-1.1c1.2-0.8 2.4-2 3.6-4zm-44.2 8.6c1.2 0.8 3.6 1.2 6.7 1.2v2.4h-31.3v-2.4h1.2c3.1 0 5.1-0.8 6.3-1.6c1.1-1.1 1.9-2.3 2.3-4.2c0.4-0.8 0.4-2.8 0.4-6.7v-26.2q0-8.7-2.3-12.8c-1.6-2.4-4.3-3.9-8.2-3.9c-6.3 0-11.8 3.1-17.6 8.9v33.6c0 4.3 0 7.1 0.4 8.2c1.1 1.6 1.5 2.8 2.7 3.1q1.8 1.2 7 1.2v2.4h-31.2v-2.4h1.6c3.1 0 5.4-1.2 6.6-2.7c1.2-1.6 2-5.1 2-9.8v-24.6c0-7.4-0.4-12.1-0.4-13.6c-0.4-1.6-1.2-3.2-1.6-3.6c-1.2-0.7-2-0.7-3.1-0.7c-1.2 0-2.8 0.3-4.3 1.1l-1.2-1.9l18.4-8.2h3.1v14c7.4-9.3 14.8-14 21.9-14c3.5 0 6.6 1.1 9.3 2.7c2.8 1.6 4.7 4.7 6.3 8.6c0.7 2.7 1.5 7 1.5 12.9v27.3c0 4.3 0.4 7.1 1.2 8.6c0.8 1.6 1.6 2.4 2.3 3.1zm-69.8-36.3h-43.8c0 9.4 2.4 17.2 7.1 22.3c4.2 5.4 10.1 8.2 16.4 8.2c3.9 0 7.8-1.2 10.9-3.1c2.7-1.6 5.4-5.9 7.8-11.4l1.2 1.2c-0.8 6.6-3.6 12.5-8.2 17.2c-4.7 5.1-10.6 7.4-17.6 7.4c-7.4 0-14.1-3.1-19.5-9q-8.2-9.4-8.2-24.6q0-16.4 8.2-25.8c5-6.2 12.5-9.3 20.7-9.3c7.4 0 12.9 2.7 17.5 7.4c4.7 5.1 7.1 11.7 7.5 19.5zm-44.2-4.3q0-0.2 0.1-0.4h-0.1zm0.1-0.4h29.2c-0.4-3.9-1.2-7-1.5-8.9c-1.2-2.4-2.8-4.7-5.1-6.3c-2-1.5-4.7-2.3-7-2.3c-4 0-7.1 1.5-10.2 4.7c-3 3.4-5 7.6-5.4 12.8zm-22.7 40.7c1.5 0.7 3.5 1.1 6.6 1.1v2.4h-31.2v-2.4h1.2c2.7 0 4.6-0.4 6.2-1.5c1.2-0.8 2-2.4 2.4-3.9c0-0.8 0.3-3.2 0.3-7.1v-27.3c0-5.1-0.7-9-1.9-10.9c-2-3.2-4.7-4.7-8.6-4.7c-2.3 0-5.1 0.8-7.4 1.9c-2.7 1.6-5.5 3.5-9 7.1l-0.4 0.7v33.2c0 4.3 0.4 7.1 0.8 8.2c0.4 1.2 1.6 2 2.7 2.8c1.2 0.7 3.5 1.1 6.7 1.1v2.4h-31.3v-2.4c3.5 0 5.9-0.7 7.1-1.5c1.1-0.8 2.3-2.4 2.7-3.9c0.4-0.8 0.4-3.2 0.4-7.1v-27.3c0-5.5-0.8-9-2.4-11.3c-1.9-2.8-4.6-4.3-8.2-4.3c-2.7 0-5 0.8-7.4 1.9c-3.9 2-6.6 4.3-9 6.7v33.9c0 4.3 0.4 7.1 0.8 8.2c0.4 1.6 1.2 2.8 2.4 3.2c1.1 0.8 3.1 1.1 6.6 1.1v2.4h-31.2v-2.4c2.7 0 5-0.7 6.2-1.1c1.2-0.8 2.4-1.6 2.7-3.2c0.8-1.1 1.2-4.2 1.2-8.2v-24.6c0-7-0.4-11.7-0.8-13.6c-0.4-1.2-1.1-2.8-1.5-3.1c-0.4-0.8-1.6-0.8-2.8-0.8c-1.1 0-2.3 0.4-4.3 1.1l-1.1-1.9l18.3-8.2h2.8v14.1q7-7.1 8.2-8.2c1.9-2 4.3-3.2 6.6-4.3c2.3-0.8 5.1-1.6 7-1.6c4.3 0 7.4 1.6 10.6 3.9c2.7 2.3 4.7 5.9 5.4 10.5c5.1-5.8 9-9.7 12.1-11.7c3.2-1.5 6.7-2.7 10.2-2.7c3.1 0 6.2 1.2 8.6 2.7c2.7 1.6 4.7 4.7 6.2 8.6c1.2 2.8 1.6 7 1.6 12.9v27.7c0 3.9 0.4 7.1 1.2 8.6c0.3 1.2 1.5 2.4 2.7 2.8zm-106.2-8.2h3.5c-1.6 4.2-3.9 7.4-7 9.7c-3.1 2.7-6.3 3.5-9.4 3.5c-2.3 0-4.7-0.8-6.6-1.9c-2-1.2-3.5-3.1-4.7-5.5c-1.2-1.9-1.6-5.8-1.6-10.5v-44.9h-11.3v-2c2.7-0.8 5.9-2.7 8.6-5.1c2.7-2.3 5.5-5 7.8-8.6c0.8-1.9 2.7-5 4.7-9.7h1.2v21.5h14.8v4.3h-14.8v43.3c0 4.3 0.7 7 1.9 8.6q1.8 2.3 4.7 2.3c1.6 0 3.1-0.8 4.7-1.1c1.1-0.8 2.3-2 3.5-3.9zm-43-6.7c0 5.9-1.9 10.6-6.6 14.1c-4.3 3.5-9.4 5.4-14.8 5.4c-3.9 0-8.6-0.4-13.7-1.5c-1.6 0-2.7-0.4-3.9-0.4c-1.2 0-2 0.4-2.7 1.9h-2.4v-22.2h2.4c1.1 6.2 3.9 10.5 7.4 13.6q5.8 4.7 12.9 4.7c3.5 0 6.2-1.1 8.2-3.1c1.9-1.9 3.1-4.3 3.1-7c0-3.5-1.2-6.3-3.1-8.6c-2-2.4-6.7-5.1-13.3-8.6c-7-3.1-11.3-5.9-13.7-8.6c-2.3-3.1-3.5-6.2-3.5-10.1c0-5.1 2-9.4 5.5-12.9c3.9-3.2 8.6-5.1 14.4-5.1c2.4 0 5.5 0.8 9 1.6c2.3 0.3 4.3 0.7 4.7 0.7c0.8 0 1.6 0 1.9-0.4c0.4-0.3 0.8-0.7 1.6-1.9h2.3v22.6h-2.3c-1.6-7-3.9-11.7-6.6-14c-2.8-2.7-6.3-3.9-10.6-3.9c-3.1 0-5.8 0.8-7.8 2.7c-1.9 1.6-3.1 3.5-3.1 5.9c0 2.3 0.8 4.7 1.9 6.6c1.2 2 4.3 3.9 8.6 6.3l10.2 5c9.7 4.3 14.4 10.6 14 17.2zm-56.6-116.7c11.7 4.6 28.1-3.6 27.8-14.9l-34 0.4v-0.4h-3.1v-40.6c-0.4-34 44.5-23 63.2-39.4v53.5h11.3v-20c0-8.9 12.1-18.7 26.2-19.1h32.4v22.3h-32v16.8l80-0.4v-21.1c7.8-2.4 14.9-5.5 19.5-10.2v31.3h5.9v-32.8c7.8-2.4 13.7-7.1 19.5-14.5v47.7h7.4v-51.2c11.8-5.8 18-14.8 24.2-26.2v77.4h12.5v-150.8c5.9 11.4 14.5 20.3 26.6 26.2v151.1h-233.5c-1.2 27.7-45.7 39.5-53.9 14.9zm28.1-41.8v-16.4c-9.7 0.8-15.6 7.8-14.4 16.4zm-26.6 137.4h-43.7c0 9.4 2.4 17.2 7 22.3c4.3 5.5 10.2 8.2 16.4 8.2c3.9 0 7.9-1.2 11-3.1c2.7-1.6 5.4-5.9 7.8-11.4l1.2 1.2c-0.8 6.6-3.6 12.5-8.2 17.2c-4.7 5.1-10.6 7.4-17.6 7.4c-7.4 0-14.1-3.1-19.5-9q-8.2-9.3-8.2-24.6q0-16.4 8.2-25.7c5-6.3 12.5-9.4 20.7-9.4c7 0 12.8 2.7 17.5 7.4c4.7 5.1 7.1 11.7 7.4 19.5zm-44.1-4.3q0-0.2 0.1-0.4h-0.1zm0.1-0.4h29.2c-0.4-3.9-0.8-7-1.6-8.9c-1.1-2.4-2.7-4.7-5-6.3c-2-1.5-4.7-2.3-7.1-2.3c-3.9 0-7 1.5-10.1 4.7c-3.1 3.4-5 7.6-5.4 12.8zm-36.4-18.7v-2.3h20.3v1.9c-2.3 0.4-4.3 0.8-5.1 2c-1.5 1.5-3.1 4.7-4.6 8.2l-22.7 55h-2.3l-23.5-54.6c-1.1-2.8-1.9-4.7-3.1-5.9c-0.8-1.2-1.9-2.3-3.5-3.1c-0.8 0-2.3-0.8-4.7-1.2v-1.9h30.1v1.9h-2c-1.9 0-3.1 0.4-4.3 1.2c-1.1 0.8-1.5 1.9-1.5 3.5c0 1.6 0.4 3.9 1.5 5.8l15.3 35.6l15.2-36.7c1.2-2.4 1.6-4.3 1.6-5.9c0-0.4-0.4-1.2-0.4-1.5c-0.4-0.8-1.2-1.2-2-1.6c-0.8 0-2.7-0.4-5.1-0.4zm-57.4 59.7c1.2 0.8 3.6 1.2 6.7 1.2v2.4h-31.3v-2.4h1.2c3.1 0 5.1-0.8 6.3-1.5c1.1-1.2 1.9-2.4 2.3-4.3c0-0.8 0.4-2.8 0.4-6.7v-26.1q0-8.8-2.3-12.9c-1.6-2.4-4.3-3.9-8.2-3.9c-5.9 0-11.8 3.1-17.6 9v33.5c0 4.3 0.4 7.1 0.8 8.2c0.7 1.6 1.9 2.8 2.7 3.2q1.8 1.1 7 1.1v2.4h-31.2v-2.4h1.6c3.1 0 5.4-1.1 6.6-2.7c1.2-1.6 1.9-5.1 1.9-9.8v-24.6c0-7.4 0-12.1-0.4-13.6c-0.3-1.6-1.1-3.2-1.5-3.5c-0.8-0.8-2-0.8-3.1-0.8c-1.2 0-2.8 0.4-4.3 1.1l-1.2-1.9l18.3-8.2h3.2v14q11.7-14 22.2-14c3.5 0 6.7 1.2 9.4 2.7c2.7 1.6 4.7 4.7 6.2 8.6c1.2 2.7 1.6 7 1.6 12.9v27.3c0 4.3 0.8 7.1 1.2 8.6c0.4 1.6 1.1 2.4 1.5 3.1zm-56.6-131.2c0 7.1-5.4 12.5-12.5 12.5c-6.6 0-12.5-5.4-12.5-12.5c0-7 5.5-12.8 12.5-12.8c7.1 0 12.9 5.8 12.5 12.8zm-51.5 41v-1.9h40.2v1.6h-3.5q-5.3 0-8.2 3.5c-1.2 1.5-2 5-2 10.9v61.7c0 5.1 0.4 8.6 0.8 10.2c0.4 1.1 1.2 2.3 2.8 3.1c1.9 1.1 3.9 1.9 6.2 1.9h3.5v2.4h-40.2v-2.4h3.1c3.9 0 6.7-1.1 8.6-3.5c1.6-1.5 2-5.4 2-11.3v-61.3c0-5.1-0.8-8.2-1.2-9.8c-0.4-1.1-1.2-2.3-2.7-3.1c-2-1.2-4.3-2-6.7-2zm67.6-53.8c6.6 0 12.5 5.8 12.5 12.8c0 7.1-5.5 12.5-12.5 12.5c-6.7 0-12.5-5.4-12.5-12.5c0-7 5.4-12.8 12.5-12.8zm68.3-2.8h-154.2v-48c11.7-5.9 17.9-14.8 24.2-26.2v47.3h101.9v-13.7h-37.5q0-27.3 0-50.4q0-22.6 65.6-44.1v29.3q-38.7 7.4-39.8 29.3q-0.4 9 0 9.4h39.8c0 22.6 0 44.1 0 67.1zm-186.6 146.1c1.1 0.7 3.5 1.1 6.6 1.1v2.4h-31.2v-2.4c3.1 0 5-0.7 6.2-1.1c1.2-0.8 2-1.6 2.7-3.2c0.8-1.1 1.2-4.2 1.2-8.2v-24.6c0-7-0.4-11.7-0.8-13.6c-0.4-1.2-0.7-2.8-1.5-3.1c-0.4-0.8-1.6-0.8-2.8-0.8c-1.1 0-2.3 0.4-4.3 1.1l-0.7-1.9l18.3-8.2h3.1v51.5c0 3.9 0.4 7.1 0.8 8.2c0.4 1.6 1.6 2.8 2.4 2.8zm-31.3-3.9l0.8 2.3l-18 7.8h-3.1v-10.9c-2.7 4.3-5.8 7-9 8.6q-4.1 2.3-9.3 2.3c-7.1 0-13.3-2.7-18.4-8.6c-5.1-5.8-7.8-13.6-7.8-22.6c0-9.4 2.7-17.6 8.6-25.4q8.8-11.7 22.3-11.7c5.8 0 10.5 1.9 14 6.2v-12.9c0-7.4-0.4-11.7-0.4-13.6c-0.4-1.6-0.8-3.1-1.5-3.5c-0.8-0.8-1.6-1.2-2.8-1.2q-1.7 0-4.7 1.2l-1.1-2.4l18.3-7.8h3.1v75c0 7.4 0 12.1 0.4 13.7c0 1.9 0.8 3.1 1.6 3.5c0.8 0.7 2 1.1 2.7 1.1c1.2 0 2.8-0.7 4.3-1.1zm-20.7-5.9v-31.2c0-3.5-0.7-6.3-2.3-9c-1.2-2.7-3.1-4.7-5.5-5.9c-2.3-1.1-4.3-1.9-6.6-1.9c-3.9 0-7.4 1.9-10.6 5.4c-3.9 4.7-6.2 11.4-6.2 20.7q0 13.5 5.9 21.1c4.3 5.1 8.5 7.4 13.6 7.4c4.3 0 8.2-1.9 12.1-6.6zm-49.9 5.5l1.1 2.3l-18.3 7.8h-3.2v-14q-8.7 9.3-12.8 11.7q-4.1 2.3-9.4 2.3c-3.5 0-6.6-0.8-9.4-3.1c-2.7-2-4.7-4.7-5.4-8.2c-1.2-3.5-2-8.2-2-14.1v-29.2c0-3.2 0-5.1-0.8-6.3c-0.4-1.2-1.5-2.3-2.7-2.7c-1.2-0.8-3.1-1.2-6.3-1.2v-1.9h21.1v43.3c0 5.9 0.8 9.8 3.2 11.7c1.9 1.6 4.6 2.7 7.8 2.7c1.9 0 4.3-0.7 7-1.9c2.7-1.6 5.8-3.9 9.7-7.4v-36.7c0-3.9-0.7-6.7-1.9-8.2c-1.2-0.8-3.9-1.6-8.2-2v-1.9h21.1v40.2c0 7.4 0.4 12.1 0.8 13.7c0.4 1.5 0.7 2.7 1.5 3.5c0.8 0.7 2 1.1 2.8 1.1c1.1 0 2.7-0.7 4.3-1.5zm-76.2 0.8c0.8-0.4 2.7-2 5.9-3.9v3.1c-5.5 6.6-10.6 10.1-15.3 10.1c-2.3 0-3.9-0.8-5.4-2.3c-1.2-1.6-2-4.7-2-8.6q-9.9 8.2-12.9 9.4c-2.3 1.5-5 1.9-8.2 1.9c-4.6 0-8.2-1.5-11.3-4.3c-2.7-3.1-4.3-7-4.3-12.1c0-2.7 0.4-5.4 2-7.8c1.9-3.1 5.4-6.2 10.1-9q7.6-4.7 24.6-10.5v-2.8c0-6.6-1.1-11.3-3.5-13.6c-2.3-2.8-5.5-3.9-9.7-3.9c-3.2 0-5.9 0.8-7.9 2.3c-1.9 1.6-2.7 3.5-2.7 5.5v4.3c0 2.3-0.4 4.3-1.6 5.1c-0.7 1.1-2.3 1.9-3.9 1.9c-1.5 0-2.7-0.8-3.9-1.9c-1.1-1.2-1.5-3.2-1.5-5.1c0-3.9 1.9-7.8 6.2-11.3c3.9-3.2 10.2-5.1 17.6-5.1c5.9 0 10.5 1.2 14.4 3.1c2.8 1.6 5.1 3.9 6.3 7c1.2 2 1.5 6.3 1.5 12.5v21.9c0 5.9 0.4 9.8 0.4 11.3c0 1.2 0.4 2.4 1.2 2.8c0.4 0.3 1.2 0.3 2 0.3c0.7 0 1.1 0 1.9-0.3zm-16-6.3v-23.4c-7.8 2.7-12.5 4.7-14.8 5.8c-3.9 2-7.1 3.9-8.6 6.3c-1.6 1.9-2.8 4.3-2.8 7c0 3.1 1.2 5.5 3.2 7.8c1.9 2 4.3 3.1 7.4 3.1c3.9 0 9-1.9 15.2-6.6zm-53.1-21.5c1.6 3.5 2.7 7.1 2.7 11q0 11.1-8.1 18.7c-5.5 5.1-12.9 7.8-21.5 7.8c-2.8 0-5.5 0-7.8-0.4c-1.6-0.4-4.7-1.5-9-2.7c-4.3-1.6-7.4-2.4-8.6-2.4c-0.8 0-2 0.4-2.7 1.2c-0.8 0.4-1.6 2.4-1.6 4.3h-2.3v-32.4h2.3c1.2 7 2.7 12.1 4.7 15.6c1.9 3.5 5.1 6.3 9 8.6c4.3 2.4 8.9 3.5 13.6 3.5c5.9 0 10.6-1.5 13.7-4.7c3.5-3.1 5.1-7 5.1-11.3c0-2.3-0.8-4.7-2-7c-1.1-2.4-3.1-4.7-5.4-7c-1.6-1.6-6.3-4.3-13.7-9c-7.4-4.3-12.9-8.2-16.8-11c-3.9-2.7-6.6-5.8-8.6-8.9c-1.9-3.5-3.1-7.1-3.1-11c0-7 2.7-12.9 7.8-17.9c5.1-4.7 12.1-7.4 19.9-7.4c5.1 0 10.6 1.1 16 3.9c2.4 1.1 4.3 1.5 5.5 1.5c1.2 0 2.3-0.4 2.7-1.2c0.8-0.7 1.6-2.3 2-4.6h2.3v32.8h-2.3c-0.8-6.7-2.4-11.8-4.3-15.7c-2-3.5-4.7-6.6-8.6-8.9q-5.9-3.6-11.7-3.6c-4.7 0-8.2 1.6-11.4 4.7c-2.7 2.8-4.2 6.3-4.2 10.2c0 3.1 0.7 5.8 2.7 8.2c2.7 3.5 9 8.6 18.7 14.4c8.2 5.1 13.7 9 17.2 11.4c3.5 2.7 6.3 5.4 7.8 9.3zm-109.7-4.3h-43.7c0 9.4 2.3 17.2 7 22.3q7 8.2 16.4 8.2c3.9 0 7.8-1.2 10.9-3.1c2.8-1.6 5.5-5.9 7.8-11.4l0.8 1.2c-0.8 6.7-3.5 12.5-8.2 17.2c-4.7 5.1-10.5 7.4-17.5 7.4c-7.5 0-14.1-3.1-19.6-9c-5.4-6.2-8.2-14-8.2-24.6q0-16.4 8.2-25.7c5.1-6.3 12.5-9.4 20.7-9.4c7.1 0 12.9 2.7 17.6 7.4c4.7 5.1 6.6 11.7 7.8 19.5zm-44.9-4.3q0-0.2 0-0.4zm0-0.3h29.3c-0.4-4-0.8-7.1-1.6-9c-1.1-2.4-2.7-4.7-5.1-6.3c-1.9-1.5-4.6-2.3-7-2.3c-3.9 0-7 1.5-10.1 4.7c-3.1 3.4-5 7.6-5.5 12.9zm253.4-105.9c-84.3 0-167.5 0-257.7 0c-5.1 12.9-17.6 21.5-32 21.5c-14.5 0-26.9-9-32-21.5h-33.6v-151.5c11.7-5.8 20.3-14.8 26.5-26.1v150.7h7.5c5.4-12.1 17.5-20.7 31.6-20.7c14 0 26.2 8.6 31.6 20.7h54.7v-50.4c11.7-6.2 20.3-14.8 26.5-26.1v76.5h54.7v-50.4c11.7-6.2 20.3-14.8 26.5-26.1v76.5h18.4v-20.3c7.8-2.4 14.8-5.5 19.5-10.2v30.5h5.9v-32c7.8-2.4 13.6-6.7 19.5-14.1v46.5h5.8v-50.4c11.8-6.2 20.4-14.8 26.6-26.2zm-276.8-12.8c0-7.2-5.8-12.9-12.9-12.9c-7.1 0-12.9 5.7-12.9 12.9c0 7.1 5.8 12.8 12.9 12.8c7.1 0 12.9-5.7 12.9-12.8zm1.5 158.9c1.2 0.8 3.6 1.2 6.7 1.2v2.3h-31.3v-2.3h1.6c2.7 0 5.1-0.8 5.9-1.6c1.1-1.2 2.3-2.3 2.7-4.3c0-0.8 0.4-2.7 0.4-6.6v-22.3c0-7-0.4-11.3-1.2-13.7q-1.2-2.9-3.5-4.7c-1.6-1.1-3.9-1.9-6.2-1.9c-2.4 0-4.7 0.8-7.5 1.9c-2.7 1.2-5.8 4-9.3 7.5v34.3c0 4.3 0.4 7.1 0.7 8.2c0.4 1.2 1.2 2 2.8 2.8c1.1 0.7 3.5 1.1 6.6 1.1v2.4h-31.2v-2.4c2.7 0 5.1-0.7 6.6-1.5c0.8-0.4 1.6-1.2 2.4-2.8c0.7-1.1 0.7-4.3 0.7-8.2v-58.5c0-7.5 0-11.7-0.4-13.7c-0.3-1.6-1.1-3.1-1.5-3.5c-0.8-0.8-2-1.2-3.1-1.2c-0.8 0-2.4 0.4-4.3 1.2l-0.8-2.4l17.9-7.8h3.2v47.7c5.4-5.9 9.7-9.8 12.9-11.4c3.1-1.9 6.2-2.7 9.3-2.7c3.9 0 7.1 1.2 9.8 3.1c2.3 2 4.7 5.1 5.8 9.4c1.2 3.1 1.6 8.6 1.6 16.4v23.1c0 4.2 0.8 7 1.2 8.5c0.4 1.6 1.1 2.4 1.5 2.4zm-69.1-91.4l1.6 20.3h-2.7c-0.8-3.5-1.6-6.6-2.4-8.2c-1.5-2.3-3.5-4.7-5.8-5.8c-2.4-1.2-5.5-2-9.4-2h-13.7v73.8c0 6.3 0.8 10.2 2 11.7c1.5 2 4.3 3.1 8.2 3.1h3.5v2.4h-40.6v-2.4h3.5c3.9 0 7-1.5 8.6-3.9c0.8-1.5 1.6-5 1.6-10.9v-73.8h-11.4q-6.4 0-9.3 1.2c-2.4 0.8-4.3 2.3-6.3 5.1c-1.6 2.3-2.7 5.8-3.1 10.1h-2.7l1.1-20.7zm-78.1-35.5c11.4 1.5 28.9-5.9 28.9-19.2v-21.8c12.1-5.9 20.3-14.9 26.6-26.2v48c0 17.2-34.4 44.6-55.5 19.2zm208.5-140.2c0-7 5.5-12.9 12.5-12.9c6.7 0 12.5 5.9 12.5 12.9c0 7-5.4 12.5-12.5 12.5c-7 0-12.9-5.5-12.5-12.5zm14.1-25.4c0-7 5.5-12.9 12.5-12.9c6.6 0 12.5 5.9 12.5 12.9c0 7-5.5 12.5-12.5 12.5c-7 0-12.5-5.5-12.5-12.5zm26.5 12.5c6.7 0 12.5 5.9 12.5 12.9c0 7-5.4 12.5-12.5 12.5c-6.6 0-12.5-5.5-12.5-12.5c0-7 5.9-12.9 12.5-12.9zm42.2 12.9c0-7 5.5-12.9 12.5-12.9c6.6 0 12.5 5.9 12.5 12.9c0 7-5.5 12.5-12.5 12.5c-7 0-12.5-5.5-12.5-12.5zm28.5 0c0-7 5.5-12.9 12.5-12.9c6.6 0 12.5 5.9 12.5 12.9c0 7-5.5 12.5-12.5 12.5c-7 0-12.5-5.5-12.5-12.5zm241.7-56.2v177.2h-117.9v-26.5h47.6v-150.7c6.3 11.3 14.8 20.3 26.6 26.1v124.6h16.7v-124.6c11.8-5.8 20.3-14.8 26.6-26.1zm-91.4 136.2h-26.5v-110.1c11.7-5.8 20.7-14.8 26.5-26.1zm85.2 93.3c1.1-1.6 3.1-2.4 5.4-2.4c2 0 3.9 0.8 5.5 2.4c1.5 1.5 2.3 3.5 2.3 5.5c0 1.9-0.8 3.9-2.3 5.4c-1.6 1.6-3.1 2.4-5.5 2.4c-1.9 0-3.9-0.8-5.4-2.4c-1.6-1.2-2.4-3.1-2.4-5.4c0-2 0.8-4 2.4-5.5zm281.5-52.7h-58.6v-26.6l33.6 0.4c0.7-10.5-2.4-16.8-9.4-16.4l-24.2-0.4v-24.2l40.2 0.4c4.7 0 18.7 16.4 18.7 24.6zm360.4 0.4h-26.5v-151.1c11.7-5.9 20.3-14.9 26.5-26.2zm294 3.5c6.7 0 12.5 5.9 12.5 12.9c0 7-5.5 12.5-12.5 12.5c-6.6 0-12.5-5.5-12.5-12.5c0-7 5.9-12.9 12.5-12.9zm-250.2-3.5l10.1-33.6c2 4.3 7 7 12.9 7h119.1v-124.5c11.7-5.9 20.3-14.9 26.5-26.2v150.7h19.5v-51.1c11.8-5.9 18-14.8 24.2-26.2v77.3h27v-51.1c11.7-5.9 17.9-14.8 24.2-26.2v77.3h19.5v-150.7c6.3 11.3 14.9 20.3 26.6 26.2v151.1zm124.5-87.9v20l-93.7 0.3l11.3-19.9h28.1l-0.3-12.1c0-7 7.8-15.6 14.8-15.6h19.9c5.5-0.8 10.2-3.9 11.7-8.2l0.4 16q-0.6 8.2-9.4 7h-9.7c-2.8 0-7.4 1.6-7.4 4.3v7.8l34.7 0.4zm66-37.4c0-7.1 5.5-12.9 12.5-12.9c6.6 0 12.5 5.8 12.5 12.9c0 7-5.5 12.4-12.5 12.4c-6.7 0-12.5-5.4-12.5-12.4z" />
		</g>
	</g>
</svg>