<svg version="1.2" xmlns="http://www.w3.org/2000/svg" viewBox="0 0 1519 1504" width="1519" height="1504">
	<title>Screenshot 2022-02-05 at 10-svg</title>
	<style>
		.s0 { fill: #ffffff } 
	</style>
	<g id="#211816ff">
		<path id="Layer" class="s0" d="m1.3 1.2c98.8-0.6 197.6-0.2 296.4-0.2c0.4 355.8 0.1 711.5 0.1 1067.2c0.1 53.6-3.1 110 19 160.3c48.6 112.5 243.3 105.1 281.8-12c14.2-40.1 9.8-83.2 10.8-124.9c0.3-363.4-1-726.9 0.7-1090.2c99.7-0.7 199.5-1 299.3 0.1c2 382.7 0.1 765.4 0.9 1148.1c-2.8 57.9 25.2 120.9 81.2 143.7c67.3 28.1 163.1 18.5 202.9-49.7c26.9-45.7 28.2-100.4 27.3-151.9c-0.3-363.6-0.1-727.2 0-1090.7c98.1-0.1 196.4-0.2 294.6 0c4.8 371 0.6 742.1 2.2 1113.1c1.9 107-24.1 224.1-110 295.6c-111.7 92.1-266.3 101.8-404.6 90.5c-92-7.4-179.7-46.8-245.7-111.7c-71.3 77.6-177.7 110.9-280.7 114.6c-108.2 3.9-222.3-5.5-318.4-59.8c-66.5-37.3-118.3-101.1-138.4-175c-26.6-83.4-18.8-172.1-19.8-258.3c0.2-336.3-0.5-672.6 0.4-1008.8z" />
	</g>
</svg>