<svg version="1.2" xmlns="http://www.w3.org/2000/svg" viewBox="0 0 1531 357" width="1531" height="357">
	<title>logo_ygfamily-svg</title>
	<style>
		.s0 { fill: #ffffff } 
	</style>
	<g id="Layer_2">
		<g id="Layer_1-2">
			<g id="Signature_-_YG_FAMILY">
				<g id="Layer">
					<g id="Layer">
						<path id="Layer" fill-rule="evenodd" class="s0" d="m897.4 152.5h-33.9v-43.3l-46.6-107h35.4l28.1 69.8 28.2-69.8h35.4l-46.6 107zm109.4 2.4c-36.5 0-54.9-18.8-54.9-46v-62.9c0-27.7 18.5-46 54.9-46q6.1 0.1 12.1 0.4 6 0.3 12.1 0.9 6 0.6 12 1.5 5.9 0.9 11.9 2l-4 29.6q-5.5-0.8-11-1.4-5.5-0.6-10.9-1.1-5.5-0.4-11-0.7-5.5-0.3-11.1-0.4c-16.8 0-21.1 8.8-21.1 20.5v51.6c-0.5 2.9-0.3 5.8 0.6 8.6 0.9 2.8 2.4 5.4 4.5 7.5 2.1 2.1 4.6 3.6 7.4 4.6 2.8 0.9 5.7 1.1 8.6 0.7q2.6 0 5.1-0.1 2.5 0 5-0.2 2.5-0.2 5-0.4 2.5-0.3 5-0.6v-46h31.8v70.6q-6.3 1.8-12.8 3.2-6.4 1.3-12.9 2.2-6.5 0.9-13 1.4c-4.4 0.3-8.8 0.5-13.3 0.5zm-175.3 50.7h95.3v30h-61.5v32.2h56.8v30h-56.8v58.2h-33.8zm232.2 150.4h-35.2l-8.2-29.3h-50.7l-8.1 29.3h-34.7l45.8-150.3h44.6zm-85.9-57.5h34.5l-17.1-63zm133.1 57.6h-32.6l6.3-150.4h33.8l36.1 95.7 36-95.7h33.9l6.2 150.4h-32.6l-2.2-83.6-26.2 64.2h-30.2l-26.1-64.2zm147.9-150.3h33.7v150.2h-33.7zm64.2 0h33.8v120.4h59.4v30h-93.2zm160.7 150.4h-33.8v-43.4l-46.7-107h35.5l28.1 69.7 28.1-69.7h35.5l-46.7 107z"/>
						<path id="Layer" class="s0" d="m0 0.6h201.9l-201.9 202.1v-202.1zm356.1 0h356.1v104.7h-254.4l148.8 149v-89.9h105.6v192.6h-162.1l-194-194.7-194.4 194.7h-161.7l356.1-356.4z"/>
					</g>
				</g>
			</g>
		</g>
	</g>
</svg>