<svg version="1.2" xmlns="http://www.w3.org/2000/svg" viewBox="0 0 1587 1587" width="1587" height="1587">
	<title>P020220425684220310818-1-pdf-svg (2)-svg</title>
	<style>
		.s0 { fill: #ff2e17 } 
	</style>
	<path id="Path 9" class="s0" d="m692.2 1444.1c33 31 33 83.5 1.9 116.5-31 33-85.2 35-118.2 2l-538.8-522.6c-34.9-31.1-34.9-83.5-3.9-118.5 32.9-33 85.3-33 118.2-1.9zm864.5-897.5c33 33.1 34.9 85.5 1.9 118.5-31 33.1-83.3 33.1-116.3 2l-540.7-524.5c-33-31.1-33-83.5-2-116.6 31-33 83.4-34.9 118.3-1.9zm-1009.9-398.2c-32.9-31.1-32.9-83.5-1.9-116.6 32.9-33 85.3-34.9 118.2-1.9l314 305c33 31 34.9 83.5 1.9 116.5-31 33-83.3 35-116.3 2zm1013.8 749.8c32.9 33 34.9 85.4 1.9 118.5-31 33-83.3 33-116.3 1.9l-315.9-305c-33-31-34.9-83.5-2-116.5 31.1-35 83.4-35 118.3-3.9zm-1188.2-569.2c-33-33-34.9-85.4-1.9-118.5 31-33 83.3-33 118.2-1.9l314 305c32.9 31.1 34.9 85.4 1.9 118.5-31 33-83.3 33-116.3 1.9zm1013.8 749.8c32.9 31.1 32.9 83.6 1.9 116.6-32.9 33-85.3 34.9-118.2 1.9l-314-305c-33-31-34.9-83.5-2-116.5 31-33 83.4-35 116.3-1.9zm-1186.2-571.1c-33-31.1-34.9-83.6-2-116.6 31.1-33 83.4-35 116.3-1.9l316 303c32.9 33 32.9 85.5 1.9 118.5-32.9 33-85.3 34.9-118.2 1.9zm1013.7 749.8c34.9 33.1 34.9 85.5 3.9 118.5-33 33.1-85.3 33.1-118.2 2l-316-305c-32.9-33-32.9-85.5-1.9-118.5 32.9-33 85.3-33 118.2-1.9zm-1188.2-569.2c-32.9-33-32.9-85.5-1.9-118.5 33-33 85.3-35 118.2-1.9l314 304.9c34.9 31.1 34.9 83.6 3.9 116.6-32.9 35-85.3 35-118.2 3.9zm1013.7 749.8c33 31.1 34.9 83.5 2 116.5-31.1 33.1-83.4 35-116.3 2l-316-305c-32.9-31.1-32.9-83.5-1.9-116.5 32.9-33.1 85.3-35 118.2-2z"/>
</svg>