<svg version="1.2" xmlns="http://www.w3.org/2000/svg" viewBox="0 0 1595 1043" width="1595" height="1043">
	<title>Screenshot 2022-02-09 at 18-svg</title>
	<style>
		.s0 { fill: #bfbfbf } 
		.s1 { fill: #cbae66 } 
		.s2 { fill: #4d4d4d } 
		.s3 { fill: #b9b9b9 } 
		.s4 { fill: #a0a0a0 } 
	</style>
	<g id="#bfbfbfff">
		<path id="Layer" class="s0" d="m829.4 0.7c13-0.7 28.2 1.2 37.1 11.9c12.7 14.5 15.3 35 14.9 53.6c-0.6 18.5-8.4 37.1-23.4 48.4c-10.5 7.1-24.3 7.7-36.4 5c-15.2-3.4-26-16.8-30.9-30.9c-7.9-23.7-5.7-51.4 8.1-72.4c6.5-10.4 18.8-15 30.6-15.6z" />
	</g>
	<g id="#cbae66ff">
		<path id="Layer" class="s1" d="m1541.8 0.5c13.6-1.4 29.3 2.3 38.1 13.6c6.6 7.8 11.9 17 13.2 27.3c3.9 22.6 2.1 48.4-13.3 66.6c-9.4 11.2-25 14-38.9 12.6c-17.4-0.4-30.6-15.1-37.1-30c-5.9-18-5.9-37.8-1.3-56.1c4.8-18 21.1-31.4 39.3-34z" />
	</g>
	<g id="#4d4d4dff">
		<path id="Layer" class="s2" d="m97.8 264.1c31.5-35.4 78.2-57.3 125.7-56.4c36.8-0.6 75.6 10 102 36.7c13.7 12.8 22 29.9 30.9 46c11.1-14.4 23.1-28.2 37.1-39.8c34.7-27.6 78.7-44.3 123.3-42.8c36.3 0.2 74.5 11.5 99.9 38.6c23.1 23.8 34.6 56.6 38.3 89.1c0.4 9 2.6 17.8 2.7 26.9c-0.1 86.3 0 172.6-0.1 258.9c0 9.6 0.7 19.3-1 28.8c-26.4 0.3-52.8 0.4-79.2-0.1c-0.8-94.3 0-188.8-0.4-283.2c-2-24.8-7.8-52-27.9-68.8c-20.6-18.2-50-18.4-75.9-16.8c-31.6 4-59 23.9-78 48.7c-9.8 11.3-16.1 25.3-20.3 39.5c-4.8 16.3-8.8 33.1-8.2 50.2c0.6 77-0.5 154.1 0.5 231c-26-1-52.1 0.4-78.1-0.7c-0.4-93.6 0-187.1-0.2-280.7c-1.6-24.7-6.8-51.6-25.8-69.2c-11.9-13.6-30.3-17.9-47.4-20.6c-32.6-4.4-67.8 6.6-90.9 30.3c-29.1 27.7-43.9 68-44.5 107.7c0.1 74.8 0 149.7 0.1 224.6c-0.4 2.7 0.9 8.6-3.6 8c-24.7 0.7-49.4 0-74.1 0.3c-1.2-3.4-2.6-6.9-2.4-10.6c0.1-121.4 0-242.9 0.1-364.4c0.3-19.6-0.9-39.2 0.6-58.7c26.3 0 52.6-0.8 78.8 0.5c0.3 22.4-0.8 44.9 0.6 67.3c6.4-6.3 11.8-13.4 17.4-20.3z" />
		<path id="Layer" class="s2" d="m795 216.6c25.5-0.2 51.1-0.5 76.6 0.2c0.4 0.9 1.1 2.7 1.5 3.6c0.1 143.1 0.4 286.3-0.1 429.5c-15.7 0.8-31.3 0.3-46.9 0.4c-10.3-0.2-20.8 0.7-31.1-1c-0.2-144.2-0.1-288.4 0-432.7z" />
		<path id="Layer" class="s2" d="m993.7 217.4c27.8-2 55.8-0.6 83.7-0.8c35.9 49.7 71.6 99.6 107.3 149.4c1.7 2.5 4.2 4.2 6.8 5.6c37.2-51.8 75-103.1 112.1-155c28 0 56-0.8 83.9 0.4c-2.9 6.2-6.9 11.9-11.2 17.2c-46.7 62.6-92.3 125.9-139.3 188.3c-2 3.1-6.5 7.2-2.7 10.7c50.8 68.4 101 137.3 151.7 205.8c2.7 3.1 3.1 7.2 3.6 11c-27.2 0.5-54.3 0.5-81.4 0c-15.7-19.5-29.5-40.6-44.7-60.6c-24.8-32.6-48.2-66.2-73-98.8c-16.7 18.7-30.2 40.1-45.4 59.9c-23 31.4-46.4 62.4-69.3 93.9c-2 2.2-3.6 5.8-7.1 5.7c-20.5 0.6-41.1-0.1-61.6 0.3c-6 0-12.3 0.2-18.1-1.9c1.6-3.5 3.2-7 5.4-10.2c49.8-67.7 100-135.1 149.9-202.8c6-7.4-2.6-14.6-6.6-20.4c-41.2-55.7-82.4-111.4-123.7-167.1c-7.1-9.9-15.4-19.3-20.3-30.6z" />
		<path id="Layer" class="s2" d="m1507.6 216.6c25.6-0.1 51.1-0.5 76.7 0.1l1.6 1.3c0.4 126 0 252.1 0.2 378.1c-0.2 18 0.3 36-0.3 53.9c-25.9 0.6-51.7 0.3-77.5 0.2c-1.4-11.1-0.6-22.3-0.7-33.5c0-133.3-0.1-266.7 0-400.1z" />
		<path id="Layer" fill-rule="evenodd" class="s2" d="m781.3 850.2c18.7-4.4 38.7-4.1 56.9 2.3c25.8 9.7 45.2 33.3 51.6 59.9c6.8 25 5.5 52-3.6 76.2c-7.5 19.7-22.5 36.7-41.8 45.4c-34 15.8-78.8 9-103.7-20.1c-13.4-16.1-22-36.9-21.5-58c0-19-1.7-38.9 7-56.5c9.6-23.7 30-43.2 55.1-49.2zm6.8 15.4c-17.7 3.8-31.7 17.1-40.5 32.2c-11.3 19.7-11.5 43.2-9.5 65.1c2.6 17.3 10 34.5 22.8 46.8c19.4 17.5 49.1 21 72.9 11c16.3-7.2 28.5-21.8 34.7-38.3c7-19 9.3-40.1 4.5-59.9c-3.7-18.7-13.3-37.3-29.5-48.1c-16-10.9-36.9-13.7-55.4-8.8z" />
		<path id="Layer" class="s2" d="m30 869.9c13.6-11.9 30.7-21.6 49.2-21.2c9.2-0.2 18.4-0.4 27.6 0.3c30.8 3.3 59.6 30 60.6 61.7c-5.7-0.8-12.7 1.9-17.4-2.2c-3.4-8.5-6-17.8-12.6-24.5c-21.7-24.2-62-27.6-87.6-7.7c-12.3 9-20 23-24.5 37.3c-4.4 12.1-2.6 25.1-3 37.7c-1 19 5.8 38.3 17.9 52.9c23.3 27.9 70.2 29.2 96.1 4.2c12.3-12.9 17.9-31.2 17.8-48.7c-20.7-1.2-41.4 0-62.1-0.7c-0.4-5.8-0.4-11.6 0-17.4q38.7-0.3 77.4 0c0.9 32.1 0.8 64.4 0.1 96.5c-4.1-0.1-8.2-0.3-12.3-0.5c-1.3-9.6-1.3-19.4-3.7-28.8c-8.1 10.3-16.7 20.9-28.9 26.3c-32 14-72.7 7.2-97.1-18.2c-17.9-19.3-26.3-46.4-25.2-72.4c-1-27.2 8.2-55.3 27.7-74.6z" />
		<path id="Layer" fill-rule="evenodd" class="s2" d="m371.7 851.9c29.3-0.8 58.5-0.1 87.8-0.3c14.5-0.6 29.7 3.3 40.9 13c25.2 22.7 17.5 72.6-16.5 82.4c8.9 4.5 18.4 9.6 22.4 19.3c7.7 14.6 3 31.4 6.3 47c1 8.2 3.2 16.3 6.3 24q-10 0.9-20 0.5c-5.8-12.1-2.7-25.6-5.1-38.3c-1.6-11-1.8-23-9.1-32.1c-4.6-5.4-10.5-11.1-18.1-10.6c-25.5-0.1-50.9-0.4-76.3 0.2c-0.2 27 0 53.9-0.1 80.9q-9.2 0-18.3-0.2c-0.8-61.9-0.3-123.8-0.2-185.8zm18.6 16c-0.1 23.6-0.3 47.1 0.1 70.6c23.1 0.9 46.1 0.3 69.2 0.4c15.3 0.3 30.4-10 35.1-24.6c1.2-10.4 2.2-22-3.8-31.2c-6.2-10.8-19.3-15.9-31.3-15.5c-23.1 0.3-46.2-0.3-69.3 0.3z" />
		<path id="Layer" fill-rule="evenodd" class="s2" d="m1456.8 852.1c28-1.3 56.1-0.1 84.2-0.5c15.4-0.6 31.6 4.9 41.6 16.9c13 14.7 14.8 36.5 9.8 54.9c-4.4 16.7-19 29.8-35.9 33.2c-26.7 5-53.9 1.6-80.8 2.7c-1 4.9-2.1 9.8-2 14.9q0.1 31.8 0 63.6q-8.4 0.1-16.7 0.1c-0.2-61.9 0.1-123.9-0.2-185.8zm18.7 15.7c-0.3 24.5-0.2 49-0.1 73.5c21.9 0.3 43.8 0.2 65.7 0.1c16.1 0.7 33.5-11.9 33.6-29c0.6-11.3 1.2-24.4-7.4-33.1c-8.1-7.8-19.5-12.2-30.8-11.7c-20.3 0.2-40.7-0.1-61 0.2z" />
		<path id="Layer" class="s2" d="m1090.9 857.5c5.7-3.6 13.5-0.9 20.1-1.2c0 40.1-0.1 80.2 0 120.2c-0.5 16.7 8.2 34.5 23.7 41.9c14.3 7.4 31.2 5.6 46.7 4.8c23-2.3 39.8-24.2 39.7-46.7c0.4-40.1 0-80.3 0.2-120.5c6.3-0.3 12.6-0.2 18.9 0.3c-0.4 40.9 0 81.7-0.2 122.6c0.2 22.7-14.4 44.4-35.1 53.6c-15.8 7.7-33.9 7.7-51.1 6.9c-14.2-0.7-28.3-5.4-39.7-14.1c-15.7-11.7-23.5-31.8-23.4-51.1c0.1-38.9-0.3-77.8 0.2-116.7z" />
	</g>
	<g id="#b9b9b9ff">
		<path id="Layer" class="s3" d="m156.6 290.8c21.4-9.5 45.6-8.8 68.5-6.4c14 1.2 25.9 9 38 15.6c-11.9-13.6-30.3-17.9-47.4-20.6c-32.6-4.4-67.8 6.6-90.9 30.3c11.2-5.3 20.4-14 31.8-18.9z" />
	</g>
	<g id="#a0a0a0ff">
		<path id="Layer" class="s4" d="m374.9 369.4c4.2-14.2 10.5-28.2 20.3-39.5c-11.4 23.2-23.6 47.2-23.8 73.7c-0.1 78.8-0.2 157.5 0 236.2c0 4.1 0 8.8-4.2 10.8c-1-76.9 0.1-154-0.5-231c-0.6-17.1 3.4-33.9 8.2-50.2z" />
	</g>
</svg>