<svg version="1.2" xmlns="http://www.w3.org/2000/svg" viewBox="0 0 1504 498" width="1504" height="498">
	<title>sabic-logo-saudikayan_tcm1043-30158-svg</title>
	<style>
		.s0 { fill: #f99d1c } 
		.s1 { fill: #005baa } 
	</style>
	<path id="Layer" class="s0" d="m393.3 392.8v10.7c0 18.6-4.4 23.3-23.3 23.3h-125.4c1.7-15.6 14.5-20.6 30.1-20.6h88.7c4.4 0 5.5-0.8 5.5-4.6v-6.9c0-3.5-0.5-4.6-5.5-4.6h-66.1c-17.3 0-21.7-4.9-21.7-12.6c0-17.6 38-50.2 104.8-50.2c9.3 0 11.5 3.9 11.8 10.2c0.5 7.4-1.4 10.6-9 11c-50.5 1.1-77 17.4-77 19.9c0 0.8 0.6 1.1 1.5 1.1h62.3c19.5 0 23.3 4.7 23.3 23.3zm412.6-83.9c-5.7-5.7-4.8-12 1.9-18.9l5.3-5.4c7.1-6.9 13.4-7.6 18.9-2c5.7 5.6 4.9 11.8-1.9 19l-5.3 5.1c-7.1 7.2-13.4 7.8-18.9 2.2zm20.8 19.6c6.6 0 10.7 2.7 10.7 10.1v76.9c0 10.5-3 12.1-11.4 12.1c-8.8 0-11.6-1.6-11.6-12.1v-64.1c0-1.3-0.6-1.6-2.4-1.6h-4.7c-9.3 0-12.1-2.4-12.1-10.7c0-8.2 2.8-10.6 12.1-10.6h19.4zm282.4-12.3c9.3 0 12.3 1.7 12.3 12v72.1c0 21-5.7 26.7-27 26.7h-80.9c-9 0-16.1-2.7-16.1-14.7c0-50.7 55.6-84.2 76.8-84.2c7.5 0 9.9 5 9.9 11.5v31.9c0 9-0.6 11.8-11.2 11.8c-10.4 0-11.1-2.8-11.1-11.8v-16.3c0-0.6 0-0.8-0.6-0.8c-9 0-40.1 26.7-40.1 48.4c0 2.4 0.3 3.8 6 3.8h63.8c4.9 0 6-2.1 6-6.2v-72.2c0-10.4 3-12 12.3-12zm-589.6 0c9.3 0 12.3 1.7 12.3 12v72.1c0 21-5.8 26.7-27 26.7h-81c-9 0-16.1-2.7-16.1-14.7c0-50.7 55.6-84.2 76.9-84.2c7.4 0 9.8 5 9.8 11.5v31.9c0 9-0.5 11.8-11.2 11.8c-10.4 0-11.1-2.8-11.1-11.8v-16.3c0-0.6 0-0.8-0.6-0.8c-9 0-40 26.7-40 48.4c0 2.4 0.2 3.8 6 3.8h63.7c4.9 0 6-2.1 6-6.2v-72.2c0-10.4 3-12 12.3-12zm852.8 11.9v72.2c0 21-5.7 26.7-27 26.7h-80.9c-9.1 0-16.1-2.8-16.1-14.7c0-50.7 55.6-84.2 76.8-84.2c7.4 0 9.9 4.9 9.9 11.5v31.9c0 9-0.6 11.8-11.2 11.8c-10.4 0-11.1-2.8-11.1-11.8v-16.3c0-0.6 0-0.9-0.6-0.9c-9 0-40.1 26.8-40.1 48.5c0 2.4 0.3 3.8 6 3.8h63.8c4.9 0 6-2.1 6-6.3v-72.1c0-10.4 3-12 12.3-12c9.3 0 12.2 1.6 12.2 11.9zm-134 73.6q0 2.3-0.1 4.4v10.6c0 1.7-0.1 3-0.2 4.3q0 0.4 0 0.9q0 0.5-0.1 1q0 0.5-0.1 1q0 0.5-0.1 1c-1.7 46.6-40.2 72.7-70.6 72.7q-0.8 0-1.5-0.1q-0.7-0.1-1.4-0.3q-0.7-0.1-1.4-0.4q-0.7-0.3-1.3-0.7c-2.6-1-3.7-3.6-3.7-9.5c0-7.5 1.5-8.9 10.5-10.1c37.5-5.4 47.6-39.1 47.6-49.4v-0.2q-1.5 0-3.1 0h-38.3c-29 0-36.4-26.2-36.4-41.6l0.1-46c0-9.8 3.7-11.3 11.7-11.3c8.3 0 11.4 1.5 11.4 11.3l-0.1 44.2c0 14.4 7.7 22.4 19.1 22.4h29.1c4.6 0 5.7-2.1 5.7-5.9l-0.1-60.7c0-9.8 3.1-11.3 11.4-11.3c8 0 11.7 1.5 11.7 11.3zm-250.1 10c1.6 6.3 1.9 11.2-6.3 14.2c-7.1 2.4-11.5 1.6-13.6-6c-8-25.9-21.3-40.5-33.1-49c-7.5 7.7-13.7 17.4-15 27.8v16.5c0 11.4-4.3 11.7-12.3 11.7c-9.3 0-12.3-1.3-12.3-11.7v-156.5c0-10.4 3.1-11.7 12.3-11.7c9.3 0 12.3 1.3 12.3 11.7v97c16.9-17.7 39-28.5 52.9-28.5c6.4 0 9.8 3.2 9.8 11.6c0.1 8.9-8.6 10.3-11.1 10.8c-5.5 1.1-15.5 5.9-17.7 7c14.4 12 26.5 29.4 34.1 55.1zm-204.6-152.9v141c0 21-5.8 26.7-27 26.7h-80.1c-9 0-16.1-2.7-16.1-14.7c0-33.1 22-68 74.1-83.1c6.3-1.7 11.1-2 14.2 6.2c2.4 7.1 1.6 11.4-6 13.6c-44.1 13.5-58.6 43.5-58.6 53.8c0 2.4 0.2 3.7 6 3.7h63c4.9 0 6-2.1 6-6.2v-141c0-10.4 3-11.8 12.2-11.8c9.3 0 12.3 1.4 12.3 11.8zm717.9 131v25c0 10.3-3.9 11.9-12.3 11.9c-8.7 0-12.4-1.6-12.4-11.9l0.2-26c-0.1-5.3-1.2-10.4-3.3-15.2c-2.1-4.8-5.1-9.2-8.8-12.8c-3.8-3.7-8.2-6.6-13-8.6c-4.9-2-10-3.1-15.3-3.1h-18.2c-2.9 0-4.4 0.4-5.1 1v50.1l0.1 14.6c0 10.3-3.8 11.9-12.2 11.9c-8.7 0-12.3-1.6-12.3-11.9v-74.3c0-10.3 3-11.6 12.2-11.6h35.2c34 0 65.2 27 65.2 60.9zm-850.3-49.3l0.2 59.7c0 20.8-5.7 26.5-26.8 26.5h-33.7c-25.6 0-43.9-18.6-43.9-47l0.2-39.2c0-10.3 3.9-11.9 12.3-11.9c8.7 0 12 1.6 12 11.9l-0.1 39.2c0 17.7 7.7 26.7 26.4 26.7h23.2c4.9 0 6-2.1 6-6.2l-0.2-59.7c0-10.3 3.4-11.9 12-11.9c8.4 0 12.4 1.6 12.4 11.9z" />
	<path id="Layer" fill-rule="evenodd" class="s1" d="m1213.6 223.2c2.1 1.4 3.7 3.3 4.7 5.6c0.9 2.3 1.2 4.9 0.7 7.3c-0.5 2.5-1.6 4.7-3.4 6.5c-1.3 1.3-6.5 6.5-7.8 7.8c-2.4 2.2-5.6 3.4-8.9 3.4c-3.3-0.1-6.4-1.5-8.7-3.8c-2.3-2.3-3.6-5.5-3.6-8.7c-0.1-3.3 1.2-6.5 3.4-8.9l7.6-7.6q0.9-0.9 1.9-1.6q1.1-0.7 2.2-1.2q1.2-0.4 2.4-0.7q1.3-0.2 2.5-0.2c2.5 0 4.9 0.7 7 2.1zm36.5 0c2.1 1.4 3.7 3.3 4.7 5.6c0.9 2.3 1.2 4.9 0.7 7.3c-0.5 2.5-1.6 4.7-3.4 6.5c-1.3 1.3-6.5 6.5-7.8 7.8c-2.4 2.2-5.6 3.4-8.9 3.4c-3.3-0.1-6.4-1.5-8.7-3.8c-2.3-2.3-3.6-5.5-3.7-8.7c0-3.3 1.2-6.5 3.5-8.9c1.3-1.3 6.3-6.3 7.6-7.6q0.9-0.9 1.9-1.6q1.1-0.7 2.2-1.2q1.2-0.4 2.4-0.7q1.3-0.2 2.5-0.2c2.5 0 4.9 0.7 7 2.1zm-1124.4 0c2.1 1.4 3.7 3.3 4.6 5.6c1 2.3 1.3 4.9 0.8 7.3c-0.5 2.5-1.7 4.7-3.4 6.5c-1.3 1.3-6.5 6.5-7.8 7.8c-2.4 2.3-5.6 3.5-8.9 3.4c-3.3-0.1-6.5-1.4-8.8-3.7c-2.3-2.4-3.6-5.5-3.6-8.8c-0.1-3.3 1.2-6.5 3.5-8.9c1.3-1.3 6.3-6.3 7.6-7.6q0.9-0.9 1.9-1.6q1.1-0.7 2.2-1.2q1.2-0.4 2.4-0.7q1.2-0.2 2.5-0.2c2.5 0 4.9 0.7 7 2.1zm36.5 0c2.1 1.4 3.7 3.3 4.7 5.6c0.9 2.3 1.2 4.9 0.7 7.3c-0.5 2.5-1.7 4.7-3.4 6.5c-1.3 1.3-6.5 6.5-7.8 7.8c-2.5 2.3-5.6 3.5-8.9 3.4c-3.3-0.1-6.5-1.4-8.8-3.7c-2.3-2.4-3.6-5.5-3.6-8.8c-0.1-3.3 1.2-6.5 3.5-8.9c1.3-1.3 6.3-6.3 7.6-7.6q0.9-0.9 1.9-1.6q1-0.7 2.2-1.2q1.2-0.4 2.4-0.7q1.2-0.2 2.5-0.2c2.5 0 4.9 0.7 7 2.1zm1341.2-114v40.6c0 30.6-25.7 32-25.7 32h-317.8c-16-0.1-29-13.2-29.1-29.1v-145.3q0-1.4 0.6-2.8q0.5-1.3 1.6-2.3q1-1 2.3-1.6q1.4-0.5 2.8-0.5h14.5q1.5 0 2.8 0.5q1.3 0.6 2.4 1.6q1 1 1.5 2.3q0.6 1.4 0.6 2.8c0 0.1 0 141.9 0 141.9q0.1 1.4 0.7 2.6q0.5 1.3 1.5 2.2q1 1 2.3 1.5q1.3 0.5 2.6 0.5h39.8q1.3-0.1 2.6-0.7q1.3-0.5 2.2-1.5q1-1.1 1.5-2.3q0.5-1.3 0.5-2.7v-58.1q0-1.4 0.6-2.8q0.5-1.3 1.5-2.3q1.1-1 2.4-1.6q1.3-0.5 2.8-0.5l14.5-0.1q1.4 0.1 2.7 0.6q1.4 0.6 2.4 1.6q1 1 1.6 2.3q0.5 1.4 0.5 2.8v58.4q0.1 1.3 0.6 2.5q0.5 1.2 1.3 2.2q0.9 1 2.1 1.6q1.1 0.6 2.4 0.8h218.1q1.4 0 2.8-0.5q1.3-0.6 2.3-1.6q1-1 1.6-2.3q0.5-1.3 0.5-2.7v-33.4q-0.1-1.2-0.6-2.4q-0.5-1.2-1.4-2.1q-0.9-0.9-2.1-1.5q-1.2-0.5-2.5-0.6h-167.7c-3.5 0-6.8-1.1-9.6-3.1c-2.8-2-4.9-4.9-5.9-8.2c-1.1-3.2-1.1-6.8 0-10c1-3.3 3.1-6.2 5.9-8.2l101.2-77.7c0 0-0.7 0.6 0 0q1.2-0.9 2.6-1.2q1.4-0.4 2.8-0.2q1.4 0.2 2.7 0.9q1.2 0.7 2.1 1.9l6.6 8.5v0.1q0.9 1.1 1.3 2.5q0.3 1.4 0.2 2.9q-0.2 1.4-0.9 2.6q-0.8 1.3-1.9 2.2q-0.1 0-0.1 0l-71.8 55.1h0.1c-0.6 0.5-1.1 1.1-1.3 1.9c-0.2 0.7-0.2 1.5 0 2.2c0.3 0.7 0.8 1.3 1.4 1.8c0.6 0.4 1.4 0.6 2.1 0.6h140.6c3.4 0.1 6.7 0.7 9.7 2c3.1 1.3 5.9 3.2 8.2 5.5c2.4 2.4 4.2 5.2 5.5 8.2c1.3 3.1 1.9 6.4 1.9 9.7zm-1152.9 47.3c0 3.3-0.6 6.5-1.9 9.6c-1.3 3.1-3.1 5.8-5.5 8.2c-2.3 2.3-5.1 4.2-8.1 5.5c-3.1 1.2-6.4 1.9-9.7 1.9h-120.2c0.1-3.3 0.7-6.5 1.9-9.6c1.3-3 3.1-5.7 5.4-8.1c2.3-2.3 5-4.2 8.1-5.5c3-1.3 6.2-2 9.5-2h84.3q1.4-0.1 2.7-0.6q1.3-0.5 2.3-1.5q1-1 1.6-2.3q0.6-1.2 0.6-2.6v-32.9q0-1.4-0.6-2.7q-0.5-1.3-1.5-2.3q-1-1-2.2-1.5q-1.3-0.6-2.7-0.6h-72.5q-1.4 0-2.8-0.6q-1.3-0.5-2.3-1.5q-1-1-1.6-2.4q-0.5-1.3-0.5-2.7v-10.9q0-1.4 0.5-2.7q0.6-1.4 1.6-2.4q1-1 2.3-1.5q1.4-0.6 2.8-0.6h83.3c3.3 0 6.6 0.7 9.6 2c3.1 1.3 5.9 3.1 8.2 5.5c2.3 2.3 4.2 5.1 5.5 8.2c1.2 3 1.9 6.3 1.9 9.6zm595.5 25.3c-3.8 0-7.6-0.7-11.1-2.2c-3.5-1.4-6.7-3.5-9.4-6.2c-2.7-2.7-4.8-5.8-6.3-9.3c-1.4-3.5-2.2-7.3-2.2-11.1v-145.7q0-1.5 0.5-2.8q0.6-1.3 1.6-2.3q1-1.1 2.3-1.6q1.4-0.6 2.8-0.6h14.5q1.4 0 2.8 0.6q1.3 0.5 2.3 1.6q1.1 1 1.6 2.3q0.6 1.4 0.6 2.8c0 0 0 174.5 0 174.5zm-753.2-97.1q1.3 0.5 2.3 1.6q1 1 1.6 2.3q0.5 1.3 0.5 2.8v65.1c0 3.3-0.6 6.5-1.9 9.6c-1.2 3.1-3.1 5.9-5.4 8.2c-2.4 2.4-5.1 4.2-8.2 5.5c-3.1 1.3-6.3 2-9.6 2h-83.3q-0.4 0.1-0.8 0h-80q-1.5 0-2.8-0.5q-1.3-0.6-2.3-1.6q-1.1-1-1.6-2.3q-0.6-1.4-0.6-2.8v-3.9c0.1-11.4 2.4-22.7 6.7-33.2c4.4-10.5 10.8-20 18.9-28c8-8.1 17.6-14.5 28.1-18.8c10.5-4.4 21.8-6.6 33.2-6.7h21.9q1.4 0 2.8 0.6q1.3 0.5 2.3 1.6q1 1 1.6 2.3q0.5 1.3 0.5 2.8c0 0.2 0 62.4 0 62.7q0 0.3 0 0.6q0 0.3 0 0.6q-0.1 0.4-0.1 0.7q0 0.3-0.1 0.6h44.8q1.4-0.1 2.6-0.6q1.3-0.6 2.3-1.6q1-0.9 1.5-2.2q0.6-1.3 0.6-2.7v-58q0-1.5 0.5-2.8q0.6-1.3 1.6-2.3q1-1.1 2.4-1.6q1.3-0.6 2.7-0.6h14.5q1.4 0 2.8 0.6zm-105.1 28.4q0-0.7-0.2-1.3q-0.3-0.7-0.8-1.2q-0.5-0.5-1.1-0.8q-0.7-0.2-1.4-0.3c-6.1 0.4-12.2 1.7-18 3.8c-5.8 2.2-11.3 5.2-16.1 9c-4.9 3.8-9.2 8.3-12.8 13.3c-3.6 5.1-6.3 10.6-8.2 16.5q-0.1 0.1-0.1 0.2q0 0.1 0 0.2q0 0.1 0 0.2q0 0.1 0 0.2q0 0.7 0.2 1.3q0.3 0.7 0.8 1.2q0.5 0.5 1.2 0.8q0.6 0.3 1.4 0.3h48.1q1.4-0.1 2.6-0.6q1.3-0.5 2.3-1.5q1-1 1.5-2.2q0.6-1.3 0.6-2.7zm-28.1-45.6c-2.5 0-4.9-0.8-7-2.2c-2.1-1.3-3.8-3.3-4.7-5.7c-1-2.3-1.2-4.8-0.7-7.3c0.5-2.5 1.7-4.7 3.5-6.5c1.3-1.2 6.3-6.3 7.7-7.6c2.4-2.3 5.5-3.5 8.8-3.5c3.3 0 6.5 1.4 8.8 3.7c2.4 2.3 3.7 5.4 3.8 8.7c0 3.3-1.2 6.5-3.4 8.9c-1.4 1.4-6.5 6.5-7.9 7.9q-0.8 0.8-1.9 1.5q-1 0.7-2.1 1.2q-1.2 0.4-2.4 0.7q-1.2 0.2-2.5 0.2zm36.6 0c-2.5 0-5-0.7-7.1-2.1c-2.1-1.4-3.7-3.4-4.6-5.7c-1-2.4-1.2-4.9-0.7-7.4c0.5-2.4 1.7-4.7 3.5-6.5c1.2-1.2 6.3-6.2 7.6-7.6c2.4-2.2 5.5-3.5 8.8-3.5c3.3 0.1 6.5 1.4 8.8 3.7c2.4 2.3 3.7 5.5 3.8 8.8c0.1 3.3-1.2 6.4-3.4 8.9c-1.3 1.3-6.5 6.5-7.8 7.8q-0.9 0.9-2 1.5q-1 0.7-2.1 1.2q-1.2 0.5-2.4 0.7q-1.2 0.2-2.4 0.2zm933.1-10.1c-5.7-5.8-4.9-12 1.9-18.8l5.2-5.4c7.1-6.8 13.4-7.6 18.9-2c5.6 5.5 4.9 11.8-2 18.8l-5.2 5.2c-7.1 7-13.3 7.7-18.8 2.2zm63.4 27q1.4 0.6 2.4 1.6q1 1 1.6 2.3q0.5 1.3 0.5 2.8v112.1c0 3.3-0.6 6.5-1.9 9.6c-1.3 3.1-3.1 5.8-5.4 8.2c-2.4 2.3-5.1 4.2-8.2 5.5c-3 1.3-6.3 1.9-9.6 2h-67.1v-0.1c-3.3-0.1-6.5-0.8-9.5-2.1c-3-1.3-5.7-3.2-8-5.5c-2.3-2.3-4.1-5.1-5.4-8.1c-1.2-3-1.8-6.3-1.8-9.6v-112q0-1.5 0.5-2.8q0.6-1.3 1.6-2.3q1-1 2.3-1.6q1.4-0.5 2.8-0.5h14.5q1.4 0 2.8 0.5q1.3 0.6 2.3 1.6q1 1 1.6 2.3q0.5 1.3 0.5 2.8l0.1 104.8q0 1.5 0.5 2.8q0.6 1.3 1.6 2.3q1 1 2.3 1.6q1.3 0.5 2.7 0.5h44.8q1.4 0 2.7-0.5q1.3-0.6 2.3-1.6q1-1 1.5-2.3q0.6-1.3 0.6-2.8v-104.8q0-1.5 0.5-2.8q0.6-1.3 1.6-2.3q1-1 2.3-1.6q1.4-0.5 2.8-0.5h14.5q1.4 0 2.7 0.5zm-202.5-83.6q1.3 0.5 2.3 1.5q1 1 1.6 2.4q0.5 1.3 0.5 2.7v138.7l-0.1 0.2c0 28.5-7.4 35.6-39.1 35.6h-393.9q-1.3 0-2.6 0.5q-1.3 0.5-2.3 1.4q-0.9 1-1.5 2.2q-0.6 1.2-0.8 2.6v7.6c0 7.6-1.5 15.1-4.4 22.1c-2.9 7-7.1 13.4-12.5 18.7c-5.3 5.4-11.7 9.7-18.7 12.6c-7 2.9-14.5 4.4-22.1 4.4h-0.1q-1.4 0-2.8-0.6q-1.3-0.5-2.3-1.5q-1-1.1-1.5-2.4q-0.6-1.3-0.6-2.7c0-0.1 0-10.6 0-10.7q0-0.1 0-0.1q0.1-1.5 0.6-2.8q0.5-1.3 1.5-2.3q1-1 2.3-1.6q1.4-0.5 2.8-0.6c3.8 0 7.5-0.7 11-2.2c3.6-1.4 6.7-3.5 9.4-6.2c2.7-2.7 4.8-5.9 6.3-9.4c1.5-3.5 2.2-7.3 2.2-11.1v-81.8q0-0.8-0.4-1.5q-0.3-0.7-1-1.1q-0.7-0.4-1.4-0.4q-0.8 0-1.5 0.3c-3.8 1.8-7.5 4-10.8 6.5c-3.4 2.5-6.5 5.4-9.3 8.6c-2.8 3.2-5.3 6.6-7.4 10.3c-2.1 3.7-3.8 7.6-5.1 11.6q0 0.1 0 0.1q0 0.1 0 0.2q0 0.1 0 0.1q-0.1 0.1-0.1 0.2q0 0.7 0.3 1.4q0.3 0.6 0.8 1.1q0.5 0.5 1.2 0.8q0.6 0.3 1.3 0.3h11.8q1.4 0 2.7 0.6q1.3 0.5 2.4 1.5q1 1 1.5 2.4q0.6 1.3 0.6 2.7v10.9q0 1.4-0.6 2.7q-0.5 1.3-1.5 2.4q-1.1 1-2.4 1.5q-1.3 0.6-2.7 0.6h-36.3q-1.4 0-2.7-0.6q-1.4-0.5-2.4-1.5q-1-1.1-1.5-2.4q-0.6-1.3-0.6-2.7c0-0.1 0-3.9 0-4c0.1-11.3 2.3-22.6 6.7-33.1c4.4-10.5 10.8-20 18.9-28c8-8 17.6-14.4 28.1-18.7c10.5-4.3 21.7-6.6 33.1-6.6q1.5 0 2.8 0.6q1.3 0.5 2.3 1.5q1.1 1.1 1.6 2.4q0.6 1.3 0.6 2.8v58.5q0.1 1.3 0.7 2.5q0.6 1.2 1.6 2.1q1 0.9 2.2 1.4q1.3 0.5 2.6 0.5h57.7c-7.3-11.6-13.7-27.9-16.3-48.9c-0.3-2.7-0.6-5.5-0.7-8.2v-0.2c0-2.1 0.4-4.2 1.3-6.2c0.8-2 2-3.7 3.5-5.2c1.5-1.5 3.3-2.7 5.3-3.6c1.9-0.8 4-1.2 6.2-1.3h71.2c2.2 0.1 4.3 0.5 6.2 1.3c2 0.9 3.8 2.1 5.3 3.6c1.5 1.5 2.7 3.2 3.5 5.2c0.9 2 1.3 4.1 1.4 6.2v0.2c-0.2 2.7-0.5 5.5-0.8 8.2c-2.5 21-9 37.4-16.3 48.9h46.1c9.1 0 10.4-6.8 10.4-10.8v-47.6c0-13.4 3.3-15 15.5-15c12.1 0 15.5 1.6 15.5 15v47.6c0 6.5 1.8 10.8 10.3 10.8h15.6c8.3 0 10.3-4.3 10.3-10.8v-47.6c0-13.4 3.3-15 15.5-15c12.2 0 15.4 1.6 15.4 15v47.6c0 6.5 1.9 10.8 10.4 10.8h20.8c8.3 0 10.4-4.3 10.4-10.8v-47.6c0-13.4 3.3-15 15.5-15c12.1 0 15.5 1.6 15.5 15v47.6c0 6.5 1.8 10.8 10.3 10.8h28.8c8.2 0 10.3-4.3 10.3-10.8v-130.6c0-1.3 0-2.4 0-3.5v-4.2q0-1.4 0.6-2.7q0.5-1.4 1.6-2.4q1-1 2.3-1.6q1.3-0.5 2.8-0.5h2.5c1.2-0.1 2.4-0.1 3.7-0.1q2 0 3.7 0.1h4.6q1.4 0 2.8 0.6zm-316.2 115q0-0.8-0.3-1.5q-0.3-0.8-0.9-1.3q-0.6-0.6-1.3-0.9q-0.7-0.3-1.5-0.4h-31.8q-0.8 0.1-1.5 0.4q-0.8 0.3-1.3 0.9q-0.6 0.5-0.9 1.3q-0.3 0.7-0.3 1.5c0 5.2 4 25.5 16.9 40.7h5.9c12.9-15.2 17-35.5 17-40.7z" />
</svg>