<svg version="1.2" xmlns="http://www.w3.org/2000/svg" viewBox="0 0 1581 401" width="1581" height="401">
	<title>f58e33a-svg</title>
	<style>
		.s0 { fill: #ffffff } 
	</style>
	<g id="Symbols">
		<g id="Img/Logo">
			<path id="Layer" fill-rule="evenodd" class="s0" d="m28.1 11.3l222.9 1.6c0 0 92.8 7.1 92.3 104.9-0.6 97.7-52.8 113-118.4 122.9-71.7 3.8-91.2-4.4-137.3 9.3-44.6 16.9-86.6 43.6-86.6 43.6v-74.2c0 0 91.7-41.6 172.2-38.3 82.5 13.1 114.4-32.1 97.1-77.9-27.6-55.1-98.1-21.4-103.3 20.2-2.7 16.6 0.5 38.6 0.5 38.6 0 0-33.1 1-45.5 2.6-12.4 1.5-39.6 6.3-42.1 8.9-1-29.5 0-99.4 0-99.4h-50.8z"/>
			<path id="Layer" fill-rule="evenodd" class="s0" d="m32.3 292c0 0 55.3-39.3 169.5-34.9 109.2 5.4 149.4-46.4 155.6-108.9 0 0-1.4-3.9-0.4-38.3 0.5-3.3 18 66.8 26.7 74.5-4.1 36.6-37.3 82.7-90.2 97.8-51 12.8-85.8 10.1-126.5 8.3 1 3.3 0 82.9 0 82.9h-88.1v-66.6c0 0-43.6 16.9-46.6 23.4-3.1 6.6 0-38.2 0-38.2z"/>
			<path id="logo" fill-rule="evenodd" class="s0" d="m847.8 364.9v-101h45.6v116.8h-45.6l-37.7-0.1c-5.1-14.2-9.7-31.5-14-51.9-1.3 9-2.9 18.6-4.9 28.7l-4.4 23.2h-44.8l16.9-79.3-16.7-63h44.4c0.8 3.9 2.4 10.4 4.8 19.6q2.7 10.4 4.7 19.3l9.8-38.9h38.4l-16.1 63zm-214.8-126.7l-20.5 142.4h-57.3c-5.1-21.9-9.7-46.8-13.8-74.8q-2.9 18.1-13 74.8h-56.9l-20.7-142.4h44.7l4.9 49.6 4.7 48.2c1.7-24.9 6-57.5 12.6-97.8h47.7q0.8 6.2 5 47l5.2 54.2c2.5-34.5 6.8-68.3 12.7-101.2zm104.8 26.5v116.8h-44.9l0.7-9.7c-3.1 4-6.8 6.9-11.3 8.9-4.4 2-9.6 2.9-15.4 2.9-6.7 0-12.1-0.9-16.5-2.8-4.4-1.9-7.5-4.3-9.6-7.4q-3.2-4.7-3.9-9.8c-0.5-3.4-0.8-10.1-0.8-20.1v-78.8h44.2v79.6c0 9.1 0.4 14.5 1 16.2q1.1 2.5 5.6 2.6c3.2 0 5.2-1 5.8-2.7q0.9-2.7 0.9-17v-78.7zm110-26.5h45.6v18.6h-45.6zm0 126.6v15.7h4.9zm178-126.6l26.5 142.3h-47l-2.4-25.6h-16.8l-2.6 25.6h-47.5l23.4-142.3zm-24.3 91.5c-2.3-16.2-4.7-36.1-7-59.9-4.5 27.3-7.4 47.3-8.6 59.9zm102.9-63l-0.7 10.3c3.9-4.1 8.2-7.2 12.9-9.2 4.7-2.1 9.9-3.1 15.5-3.1 6.7 0 12.7 1.4 17.7 4.4 4.9 3 8 6.4 9.2 10.3q1.9 5.8 1.9 19.7v49.2q0 15.9-2.3 22.6c-1.6 4.5-4.8 8.1-9.6 10.8-4.9 2.6-10.7 4-17.5 4-5.4 0-10.4-1.1-15.1-3.1q-7-3.1-12.7-9.2v26.8h-44.3v-133.5zm12.3 34c0-7.2-0.3-11.6-0.9-13.1-0.7-1.6-2.5-2.3-5.4-2.3-2.8 0-4.7 0.9-5.5 2.6-0.8 1.8-1.2 6-1.2 12.8v48.5c0 7.1 0.4 11.4 1.3 13.2 0.8 1.8 2.7 2.7 5.5 2.7 2.8 0 4.5-0.8 5.2-2.4q1-2.5 1-11.8zm93.6-34l-0.8 10.3c4-4.1 8.3-7.3 13-9.3 4.7-2 9.8-3.1 15.4-3.1 6.9 0 12.7 1.5 17.7 4.5q7.5 4.4 9.3 10.2c1.2 3.9 1.9 10.5 1.9 19.7v49.2q0 15.9-2.4 22.7-2.3 6.7-9.6 10.7c-4.8 2.7-10.6 4-17.4 4q-8.2 0-15.1-3.1c-4.7-2-9-5.1-12.8-9.1v26.7h-44.2v-133.4zm12.2 34c0-7.3-0.2-11.6-0.8-13.1-0.7-1.6-2.5-2.3-5.4-2.3q-4.3 0-5.5 2.6c-0.8 1.8-1.2 6-1.2 12.8v48.4c0 7.1 0.4 11.5 1.3 13.3 0.8 1.7 2.7 2.6 5.5 2.6 2.8 0 4.5-0.8 5.2-2.4 0.7-1.6 0.9-5.5 0.9-11.8zm149.1-62.5v28.5h-27.2v113.8h-46v-113.8h-27.2v-28.5zm97.7 89.1h-56.8v25.3c0 5.3 0.5 8.7 1.4 10.2 1 1.5 2.7 2.3 5.4 2.3 3.3 0 5.5-1 6.6-3.1 1-2 1.6-5.9 1.6-11.8v-15.4h41.8v8.6c0 7.2-0.5 12.8-1.7 16.7-1.1 3.8-3.7 8-7.8 12.4q-6.3 6.5-15.8 9.9-9.6 3.3-24 3.3-13.9 0-24.6-3.3c-7.1-2.1-12.6-5.1-16.6-8.9-4-3.8-6.7-8-8.2-12.5q-2.3-6.8-2.3-19.8v-34.1c0-10.2 1.7-18.2 5.1-24.1 3.4-5.9 9-10.4 16.8-13.6 7.8-3.1 16.7-4.7 26.8-4.7q18.5 0 30.6 5.7c8 3.8 13.7 8.8 16.9 15q4.8 9.4 4.8 26.4zm-44.2-19v-8.6c0-6.1-0.4-10-1.2-11.8-0.7-1.7-2.4-2.6-4.8-2.6-3 0-4.8 0.7-5.6 2.3-0.6 1.5-1 5.5-1 12.1v8.6zm147.9 2.6h-41.6v-13.5c0-4.7-0.5-7.9-1.4-9.6-0.9-1.7-2.7-2.5-5.2-2.5-2.6 0-4.3 0.7-5.1 2.2q-1.3 2.2-1.3 9.9v55.2c0 4.1 0.6 7.3 1.9 9.3 1.3 2.1 3.2 3.2 5.7 3.2q4.5 0 6-3.3 1.6-3.3 1.6-12.4v-13.8h39.4c-0.1 9.3-0.5 16.3-1.3 20.9-0.8 4.7-3.2 9.5-7.3 14.4-4.1 4.8-9.5 8.5-16.1 11-6.7 2.5-14.8 3.8-24.6 3.8-12.4 0-22.3-1.8-29.5-5.2-7.4-3.4-12.5-8.2-15.5-14.4-3-6.2-4.6-15-4.6-26.4v-33.2q0-14.8 3.8-22.4c2.4-5 7.7-9.5 15.8-13.5 8.1-3.9 17.9-5.9 29.5-5.9q17.2 0 29.5 5.9c8.1 3.9 13.5 8.9 16.2 14.8q4.1 9 4.1 25.5zm-1018.8-213.2c3.4-0.7 6.5-1 9.4-1 6.8 0.1 12.8 2 18.2 5.9q8 5.8 7.9 13.7c0 1.6-0.2 3.3-0.6 5-1.9 8.1-2.8 15.2-2.9 21.5-0.2 13.5-2.4 24.4-6.6 32.4-4.2 8.1-9.6 13.7-16 16.7q-9.7 4.6-13.4 4.5-3.6 0-5.3-3.9-1.7-4.1-5.1-8.6c-2.3-3-5-6-8.2-9-3.2-3-6.3-7-9.3-11.9q-4.5-7.4-5.1-12.2c6.4 8.4 13.2 14.4 20.5 18.1 7.2 3.7 12.6 5.5 16.1 5.6q5.2 0 8.3-3.7c2-2.4 3.9-7.3 5.8-14.7q2.6-11.1 2.7-24.4c0.1-8.9-0.9-14.4-2.7-16.4q-2.9-3.1-6-3.1c-1.3 0-3.9 0.8-8 2.5q-6.1 2.5-17.6 7.9c-2.6 1.1-4.5 1.6-6.1 1.6-1.4 0-2.4-1.3-3-3.9q-1-3.9-1-7 0.1-6.3 4.6-7.5c3-0.9 5.1-2.8 6.3-6q1.8-4.7 1.8-8c0-2.3-0.7-4.5-2.2-6.7q-2.1-3.2-4-3.2-14.3 10.8-26.9 21 5 1.7 5 7.2c0 2.3-0.8 4.8-2.4 7.3-4.8 7.5-8.4 13.5-11 18q4 1.5 6.5 5.7c6.6-9.6 13.7-24.9 21.4-45.9 0.6-1.7 1.1-2.5 1.7-2.5 0.6 0 0.8 0.7 0.8 1.9 0 3.7-2.3 11.7-6.8 24-4.5 12.3-10 24.9-16.2 37.8q-9.2 19.2-12.8 23.8c-2.3 3.1-4.3 4.6-5.9 4.6q-2.4 0-4-4.4c-1.1-3-1.7-5.7-1.7-8.2 0-3.9 1-6.9 3-8.8 5-4.9 7.4-10.2 7.4-16.1 0-1.2-0.4-1.7-1.4-1.7q-1.5 0-6.1 3.7c-3.1 2.5-5.2 3.8-6.3 3.8q-2.7 0-2.7-8.3 0-8.3 5.1-10.3c3.3-1.3 6.3-4.2 8.8-8.6 2.6-4.5 3.9-7.2 3.9-8.1q0-1.3-0.7-1.3-1.8 0-10.5 6c-3.6 2.5-6.6 3.7-8.9 3.7-2.3 0-3.4-2.3-3.4-7 0-4.7 1.1-8.8 3.4-12.2q3.4-5.1 8.1-5.4c3.2-0.2 6.4-1.7 9.7-4.4q8.1-6.3 25.8-19.4c11.9-8.7 19.9-14.4 24.1-17.1q-4.6 0-10.8 2.6c-4.1 1.7-12.6 6.7-25.6 14.7-13 8.2-20.6 13.2-22.7 15.2q-3.3 3-9.8 3c-4.3 0-9-1.8-14.1-5.3-5.1-3.5-7.6-6.2-7.6-8q0-1.1 1.2-2.1c0.9-0.7 9.2-4.3 25.1-10.9 15.7-6.5 28.4-11.3 37.7-14.2 4.1-1.2 7.9-3.2 11.3-5.9 3.4-2.7 8.2-7.4 14.3-14.1 6.1-6.8 9.6-11.1 10.6-13 0.9-1.9 1.3-3.9 1.4-6.2 0-3.7-1.4-6.3-4-7.5-1.1-0.6-1.7-1.1-1.7-1.5q0-0.7 2-0.6c5.2 0 9.8 2.1 13.4 6.3 3.7 4.2 5.5 8.7 5.5 13.5q-0.1 5.4-3.6 8.4c-4.9 4-8.7 7.7-11.4 11.2q10.7-2.7 15.8-2.6 5.2 0 8.7 4.8 3.6 4.9 3.6 8.2c-0.1 2.3-1.4 3.7-4.3 4.2-8.8 1.8-19.3 6.3-31.5 13.7 7.6 4.6 11.5 10.7 11.4 18.3 0 1.5-0.1 3.1-0.4 4.8zm-11.7-89c0 1.2-0.5 2.4-1.5 3.8-10.7 14.5-16.5 24.6-17.4 30.4-0.9 5.8-3.1 8.7-6.2 8.7q-4.9 0-9.8-8-4.8-8-4.8-14.5c0-1.4 0.3-3.3 1-5.6q0.9-3.4 1.9-3.4c0.6 0 1.3 0.5 1.9 1.5 0.7 1.1 2.1 1.6 4 1.7 2 0 6.3-1.8 12.8-5.3 6.5-3.6 11.7-6.9 15.6-9.9 0.6-0.4 1.1-0.6 1.7-0.6 0.5 0 0.8 0.4 0.8 1.2zm-12.8 120.3c5.5 0.1 10.2 1.8 14 5.3 3.9 3.6 5.9 7.7 5.8 12.4 0 2.3-0.8 4-2.4 5.3-1.6 1.2-3.8 1.9-6.4 1.8-2.6 0-4.9-0.9-6.8-2.8-1.9-1.9-5-3.6-9.3-5-1.5-0.4-3.2-1.9-4.9-4.4q-2.6-3.8-2.6-6.3 0-2.6 3.7-4.4c2.5-1.3 5.4-1.9 8.9-1.9zm330.7-94.6c5-4.1 9.5-6.8 13.5-8.4 8.2-3.1 13-5.6 14.3-7.2 1.4-1.7 3-2.5 5-2.5q6 0 13.5 6.6c4.9 4.3 7.3 8.7 7.3 13.2q0 2.5-1 4.6-4.1 7.7-6.4 25.1-2.3 17.2-2.3 35.8c-0.2 12.4 0.3 24 1.2 34.9q1.4 16.4 1.4 22.8-0.1 6.4-2.4 17c-1.6 7.2-3.7 10.7-6.4 10.7-1.3 0-2.6-0.9-4.2-2.8-1.6-1.9-6.4-6.7-14.3-14.3-10.2-9.8-18.4-20.7-24.6-32.6-5.2 11.6-10.1 21.2-14.7 28.8-4.6 7.6-8.4 11.3-11.6 11.3-3.1 0-4.7-1.1-4.7-3.4 0-1.3 0.7-2.2 2.2-2.5q3.3-0.8 9-16.3c3.9-10.3 7.3-23.1 10.3-38.5q-1.9-6.1-1.9-8.1 0-2 0.4-2c0.6 0 1.4 1.4 2.6 4q1.5-3.3 2.1-12.2 0.7-8.9 0.3-12.9-3.6 1.8-4.9 9.6c-0.3 1.4-0.7 2.1-1.3 2.1-0.7 0-1-1.7-1-5q0.1-4.9 1.9-9.1 1.8-4.1 5.8-9.8c0.7-5.2 2.3-13.6 4.9-25.3q0.5-1.9 0.5-4.4c0-1.7-0.9-3.7-2.6-5.9q-2.6-3.4-3.9-3.4-0.6 0-0.8 0.2c-0.4 0.3-1.7 2.3-3.8 6.1-4.1 7.8-6.6 13.3-7.5 16.7q-2 8-3.6 17c-1 6-1.8 11.7-2.4 17.2-1 11.8-2.6 20.5-4.9 25.8-2.1 5.4-3.8 10-4.9 13.9-1.2 4-2.7 5.9-4.4 5.9-1.9 0-4.1-1.4-6.5-4-2.6-2.7-4.5-5.7-6-9.1q-3.1 5.5-4.7 7.3-1.7 1.9-3.7 2.3c-1.4 0.3-2.8 1-4.4 2.2-1.6 1.2-2.8 1.8-3.5 1.7-0.7 0-1.8-1.1-3.1-3.4-1.4-2.3-3.6-5.1-6.5-8.2-2.9-3.2-4.6-6.1-5.1-8.9q-0.6-4-0.6-12 0.1-21.4 1.4-34.8 0.2-2.3 0.2-5c0-1.7-0.1-2.9-0.5-3.4q-2.8-3.1-2.8-7.6c0-1.1 0.8-1.7 2.4-1.6q8.2 0 13.5 5.4c3.7 3.6 5.9 8.3 6.9 14.2q3.8-1.9 8.4-1.9c3.1 0 5.8 1 8.1 3q3.6 2.9 3.6 7.8-0.1 4.8-3.8 12.3-3.9 7.6-9.7 13.1c-3.8 3.7-6.9 7.5-9.4 11.4q2.4 0.6 10.5-6.3c5.6-4.6 8.7-7.6 9.5-9 0.9-1.5 2-7.9 3.5-19.3 1.4-11.4 2.2-19.3 2.2-23.8 0.1-4.5-0.3-7.7-0.9-9.7-0.8-2.1-1.5-3.1-2.5-3.1-0.9 0-2.3 0.7-4.1 2.1q-1.2 0.8-4 0.8l-7.3-0.9q-4.8 0-10.3 3.5c-0.8 0.6-1.5 0.9-2 0.9q-0.7-0.1-0.7-1.5c0-1 0.4-2.7 1.3-5.1q1.2-3.5 2.8-5.6 1.6-2.1 5.9-4.9c2.9-1.9 5.1-3 6.6-3.5 1.4-0.5 3.1-0.8 5.1-0.7 5.1 0 10.6 1.7 16.2 5q8.5 4.9 13.7 14c2.3-3.2 5-8.6 7.8-16.3 1.1-3.4 3-5.1 5.7-5 0.7 0 1.2 0.1 1.7 0.4 3.7 2.4 6.8 3.9 9.4 4.5zm-3.2 96.2q6.2-3.3 10.8-11.5 4.5-8.1 4.6-9.9 0-1.8-0.6-2-3.6-1.9-5.9-6.9c-1.5-3.2-2.3-6.2-2.3-8.8 0-2.6 1.3-5.1 3.7-7.4 0.6-0.7 1.8-3.1 3.5-7.1 1.7-4 2.6-6.6 2.7-7.6 0-1.1-0.4-1.6-0.9-1.6-1.3 0-4.5 1.9-9.5 5.8-1.1 6-1.8 10.9-2.1 14.7-0.2 3.7-0.3 9.5-0.4 17.4q0 11.7-3.6 24.9zm-69.1-15.9c2.1-6.1 5.7-13.7 10.9-22.8 0.5-0.8 0.7-1.5 0.7-2.1q0-0.8-3.3-0.8-3.4 0-6.7-0.5c-2 6.4-3.1 11.9-3.1 16.4 0 4.6 0.4 7.9 1.5 9.8zm102.8 45.6c1.1-12.4 1.7-24.8 1.7-37.3v-16.1q0.3-33.2 1.7-51.2 1.5-18 1.5-19.1c0-3-0.8-4.6-2.5-4.6-0.6 0-1.2 0.2-1.9 0.6-7 4.2-12.5 6.3-16.4 6.2-2.5 0-6.1-0.5-10.8-1.5q4.9 4.9 4.9 7c0 1.3-0.4 2.7-1.3 4q-1.2 2.1-2.5 10c2.9-2.4 6.4-3.5 10.3-3.5 3.9 0 7.3 1.3 10.3 4 3 2.7 4.5 5.7 4.5 9.2 0 3.4-0.9 6.4-2.6 9.1-5.8 8.6-8.6 13.8-8.7 15.4 0 1 0.6 1.8 1.7 2.4q4.4 2.3 7.5 7.7 3.1 5.3 3.1 9.8c0 3-0.5 5.3-1.6 6.8q-1.6 2.3-10.2 7.6c-5.7 3.6-11.9 6.7-18.5 9.5 12 15.6 21.8 23.6 29.8 24zm299.8-21.9c8.1-4.8 13.1-8 15.1-9.5 1.9-1.6 3.2-3.1 3.7-4.7 0.5-1.6 1.8-2.9 3.9-3.9q3.1-1.4 6.1-1.4c1.9 0 4.2 0.9 6.6 2.7 2.6 1.9 3.8 5.1 3.8 9.7 0 2.9-1 4.8-3 5.6-1.9 0.7-4.4 2.9-7.5 6.6q-4.5 5.5-4.5 8.7 0 3.2 7.4 4.5c4.9 1 9 3.4 12.2 7.4 3.2 3.8 4.8 8.1 4.8 12.8 0 4.6-1 6.9-2.8 6.9q-0.6 0-1.7-0.7c-2.3-1.4-5.7-2.8-10-4.2-4.3-1.4-8.1-2.4-11.5-3-8.4-1.6-12.5-3.3-12.5-5.1q-0.1-1.9 3.1-1.3c0.8 0.2 1.8 0.3 3.1 0.3 1.1 0 2.8-0.3 4.9-0.8-6.8-6.5-10.2-12.2-10.2-17.1 0-4.9 1.9-10.1 5.7-15.7-5.2 2.5-10.8 6.1-17 10.8 0.6 11.4 1 21.1 0.9 29.2 0 8.1-0.6 14.7-1.7 19.7-1.1 5-2.3 7.5-3.8 7.5-1.4 0-3.4-1.5-5.7-4.6q-10.5-13.7-22.6-23.8c-6.8 9.7-11.6 14.6-14.1 14.5q-2.1 0.1-4.7-6.2-2.5-6.1-2.5-12.9c0-4.4 1.9-7.3 5.7-8.7 3.8-1.4 5.7-3.9 5.7-7.5 0-2.6-1.3-3.8-4-3.9-0.5 0-1.1 0.1-1.7 0.2-0.6 0.2-1.7 0.2-3 0.2-1.3 0-2.8-0.5-4.4-1.7-1.6-1.1-2.4-2.8-2.4-5q0-3.4 3.1-6c2-1.7 4.8-2.6 8.3-2.5q7.6 0 12.1 6.1 4.6 6.1 3.7 15.8 11.2-7.1 18.7-11.3c0.1-10.2 0-17.3-0.1-21.4-7.5 4.3-13.2 6.5-17.1 6.4-3.8 0-7.3-0.7-10.5-2-3.1-1.4-4.7-3-4.6-4.8q-0.1-2.9 6.7-4.9c11.1-3.3 19.5-6.2 25.4-8.5q0.4-4-0.2-7.8c-5.7 3.3-9.5 5-11.4 5-1.9 0-4.2-0.7-6.7-2-2.6-1.4-4.2-2.4-4.7-3.1q-0.8-1-0.8-2.7c0-1.1 0.4-2.2 1-3.4q1.1-1.6 2.8-2.3c7.7-3.1 14.2-6.7 19.5-10.8 0.3-1.9 0.3-4 0-6-3.7 2.9-8.5 5.6-14 8.2-5.6 2.5-10.4 3.8-14.3 3.8q-5.9 0-11.8 10.2c-0.7 1.2-1.2 1.9-1.5 1.9q-0.4 0-0.4-0.5c0-1.2 1.6-4.4 4.9-9.5 3.2-5.1 8-10.3 14.5-15.6q9.7-8 22.3-12.8c1.5-2.5 2.3-4.5 2.4-6.2q-0.1-2.4-2.3-2.4-1.1 0-2 0.4-1 0.4-2 0.4c-0.7 0-1.6-0.9-2.5-2.7l-7.6 3.3c-2.4 1-5 3.2-7.7 6.7-2.7 3.4-5.6 7.6-8.6 12.6-2.9 4.9-5.8 10.4-8.7 16.3q-4.5 8.9-11 27.3c-4.5 12.3-10 25.8-16.3 40.4-6.4 14.7-10.5 23.6-12.3 26.8q-2.8 4.8-3.7 4.8-0.9 0-2.5-3.6c-1.1-2.4-1.5-4.8-1.5-7.1q0-3.6 2.1-6.9c5.9-9.9 11.7-22.4 17.6-37.5q20-52.9 29.5-71.5c-3.8 1.1-7.2 1.6-10.3 1.6-5.5 0-9.5-1.7-12.3-4.9q-4.2-4.8-4.2-12c0.1-1.7 0.5-3.1 1.1-4.4 0.7-1.2 1.9-2.4 3.5-3.5 1.6-1.1 8.1-4.4 19.2-9.8l27.4-13c2-1 3.1-2.4 3.1-4.1q0-2.6-1.7-4.5c-2.1-2.6-3.3-5.2-3.3-7.8 0-1.5 1-2.3 2.9-2.3 1.9 0 5.8 0.7 11.7 2.1q8.9 2.2 12.3 6.8 3.5 4.6 5.7 13.3 1.3-0.4 3.8-0.4 2.5 0 7.5 1.7c3.2 1.1 5.4 3 6.5 5.7 1.1 2.6 1.7 4.7 1.7 6.1 0 1.4-0.9 2.1-2.9 2.3q-2.8 0.2-10.3 2.6-7.4 2.5-13.3 5.2 5.2 5.1 6.2 10.9c7.7-3.1 13.4-4.7 17.2-4.7 3.8 0.1 7.4 1.3 10.9 4 3.5 2.6 6.2 4.8 8 6.8q2.9 3 2.9 8.2c-0.1 6-1.2 9.3-3.3 9.8-1.5 0.4-3.3 2.5-5.2 6.1-2 3.6-6 12.3-12.1 26.2-0.6 1.4-2.4 2.7-5.4 4.1-3 1.4-5.3 2.1-6.8 2.1q-2.3 0-3-0.3c-0.5-0.1-1.3-0.2-2.4-0.2q-1.5 0-3.4 0.9c-0.6 5.8-0.9 12.3-0.9 19.2zm-28.3 32c6.6 2.8 10.6 4.2 12.3 4.2q2.4 0.1 2.8-1.4c0.3-1 0.3-6.6 0.1-17-5.9 5.3-11 10-15.2 14.2zm-31.9-121.6q7.8 0 13.9-2.9c9.4-4.6 22.2-9.9 38.4-15.9 1.7-0.7 2.5-1.5 2.5-2.3q0.1-1.3-6-1.3c-4.1 0-11.6 0.9-22.5 2.6q-16.6 2.6-26.2 6.9-9.6 4.2-9.6 8.5c-0.1 2.9 3.1 4.3 9.5 4.4zm72.1 51.1q4.9-10 7.6-18.5 2.8-8.5 2.8-11.2c0-1.8-0.5-3.4-1.6-4.6q-1.5-1.9-3.6-1.9-5.7-0.1-13.4 4.9c-0.4 3.2-0.5 5.9-0.5 8 0.9-0.3 1.6-0.4 2.3-0.4q3.6 0 6.2 4.3c1.7 2.9 2.6 5 2.6 6.4-0.1 2.8-3.7 5.5-11 8.2 0.7 4.3 1.8 6.5 3.2 6.5q2.2 0 5.4-1.7zm320 42.4c5.7-1 10.6-2.4 14.9-4.2q6.6-2.8 8.2-5.1 2.4-3.4 8.5-3.3c6 0 10.9 2.7 14.7 8q5.7 8 5.7 12.8c0 1.3-1.9 2.7-5.6 4.3-3.7 1.6-7 2.4-9.8 2.4-5.1-0.1-10.6-3.1-16.5-9.1q9.1-3.1 8.5-6.9c-4.9 3.2-9.1 5.2-12.5 6.2q-5 1.4-8.2 4c6.7 5.2 12.1 10.3 16.3 15.3q3.6 4.5 7.1 6.5c2.4 1.3 3.9 2.7 4.6 4.2 0.7 1.5 1.1 3.5 1 6q0 1.9-1.8 3c-1.2 0.8-3.6 1.5-7.4 2.2-3.8 0.7-7.8 1-11.9 0.9-4.3 0-9.8-0.4-16.4-1.4-6.7-0.9-13.2-2.9-19.5-5.8-6.3-3-10.5-5.6-12.8-7.7-2.3-2.1-4.3-5.3-6-9.6-1.6-4.2-2.7-9.4-3.2-15.3-0.4-4.1-1.5-6.4-3.3-6.8-1.5 3.2-2.6 6.4-3.4 9.6-0.9 3.2-1.3 5.3-1.1 6.1 0.2 0.8 0.2 1.9 0.2 3.2 0 1.9-0.5 6-1.5 12.2q-1.4 9.3-5.6 9.3c-1.4 0-3-2.3-4.8-6.7-1.7-4.5-2.6-7.6-2.6-9.3q0-5 8.9-24.3c-2.2-0.1-5.1-1.1-8.7-3-3.5-1.8-5.3-3.7-5.3-5.6q0-3.6 2.3-3.6 2.4 0.1 5.7 1.7c15.4-5.5 31.4-10.6 48-15.4q9.9-2.9 13.7-6c0.4-1.3 0-2.4-1.4-3.2-5.8-0.4-13 0.7-21.6 3.5q-13 4.3-18.3 8.9c-0.7 0.5-1.5 0.8-2.1 0.8q-3.8 0-7.2-9.5c-2.3-6.3-3.1-11-2.6-14.1 0.2-1.1 0.3-2.2 0.3-3.4q0-1.8-1.6-4.1-1.5-2.3-6.7-7.6-1.3 3.6-4.9 5.9c-4.3 2.6-9.8 8.5-16.4 17.7 2.9 3.8 4.3 6.4 4.3 7.7 0 1.3-0.2 2.7-0.6 4-2 6.4-3 11.4-3.1 15.3q0 5.7 0.2 8.9c2.1-4.9 4.7-12.5 7.5-22.7q-1.8 16.4-3.7 37.5c-1.2 14-1.8 22.4-1.8 25l0.1 5.9q0 3.4-1.5 3.4c-1.5-0.1-4-2.7-7.6-8-3.5-5.2-5.3-10.6-5.2-16 0-1.4 0.1-2.8 0.4-4 1.7-7.4 2.6-23 2.6-46.8-2.8 3.4-7.6 8.4-14.7 15.1-7.1 6.6-11.6 10-13.6 9.9q-1.2 0-2.1-2.7-0.8-2.7-0.8-5.4c0-1.9 0.8-4.6 2.2-8.1q2.3-5.3 5.9-8.5-0.1 3.2 0.2 4.8 9.8-7.8 13.2-17.3-0.1-1.2-1-1.2c-1.1-0.1-3.1 1.7-6.1 5.2 1.8-7.1 6-11 13.1-11.5q4.8-7.1 10.1-15.9c3.5-5.9 5.4-9.2 5.6-10q0.4-1.3 0.4-2.7 0-1.5-1.3-2.2-10.1 3.4-14.3 9.2c-0.6 0.8-1.2 1.3-1.9 1.3-1.4 0-2.5-1.7-3.4-5q-1.4-4.9-1.3-10.5 0-5.6 3.3-5.5c1.4 0 5-2.7 10.6-8.2 5.7-5.4 8.9-9.3 9.5-11.9 0.3-1.3 1.1-2 2.5-2q2 0 7.6 5.2 5.5 5.1 7.9 10c1.6 3.3 2.4 5.9 2.4 7.6 0 1.7-1.2 3.2-3.4 4.4q-3.3 1.8-10.9 3c5 3.1 8.2 8.5 9.6 16.4 4.5-9.2 9.5-17.9 15.2-26.1q0-3 1.9-4.4 1.9-1.5 7.1-1.9c7.8-0.6 12.5-1.9 14.5-3.9 1.7-6 2.6-10.2 2.6-12.7q0-3.6-1.9-4.1c-1.2-0.3-2.5-1.2-3.7-2.9q-1.9-2.6-1.9-5.2 0-2.6 1.5-4.4c1-1.2 3-1.7 5.9-1.7q4.3 0 6.5 0.6c1.4 0.5 3 2.1 4.8 5q2.7 4.3 7.5 15.7 2.7-1.1 5-1.1c1.6 0 3.2 0.5 5.1 1.4q2.8 1.2 6.7 4.4c2.6 2.1 4.1 3.6 4.6 4.5 0.4 0.9 0.7 1.9 0.7 3.1 0 1.2-0.3 2.1-0.9 2.8q-0.8 0.9-13.5 5-12.7 4.2-19.9 5.8c-1.4 1.8-2.2 4.7-2.3 8.6 7.8-1 15-2.8 21.4-5.6 1.1-0.5 2.4-0.8 3.8-0.8q4.8 0 14.1 6.4c6.2 4.2 9.3 7.8 9.2 10.7q0 4.4-3.7 6.4c-2.6 1.3-4.7 3.2-6.6 5.7-8.3 10.6-13.1 16.2-14.5 16.7q-2.1 0.6-2.3 2.5c4.7 1.9 7.9 3.8 9.6 5.7q2.7 2.8 2.7 4.5c0 1.1-1.1 1.8-3.1 2.1-9.9 0.7-19.9 3.2-30.3 7.4 6.7 2.3 11.9 6.5 15.4 12.4zm-15.3-61.6c-2.3 1.5-5 2.6-8 3.4q-0.2 9-3.3 16.5l7.2-3.5q4.9-8.5 4.1-16.4zm-18 21.8q-2.3-6.5-1.6-16.8-5.6-0.7-7.7 3.3-0.3 7.3 1.4 15.1c2.6 0.3 5.2-0.2 7.9-1.6zm-11.1 36.4c3.9 0.9 7 2.6 9.5 5.1 2.3 2.5 3.5 5.1 3.7 7.5q0.4 8.4 3.3 13.2 3.1 4.7 14.8 7.3c7.8 1.7 13.6 2.6 17.4 2.6 3.8 0 5.6-0.9 5.7-2.7 0-0.4-0.2-0.9-0.5-1.5-2.1-4-4.3-9.4-6.6-15.9-2.9 1.4-5.5 4.8-7.8 10.2-0.7 1.7-1.9 2.5-3.5 2.5-1.6 0-2.6-0.5-3-1.5q-1.6-4.4-4.7-6.4c-2-1.3-3.4-3-4.3-4.9q-1.2-3-1.2-5.1 0.1-0.8 1-2.2c0.6-0.9 1.1-2 1.6-3.3 0.4-1.4 0.6-3.1 0.6-5.4q0-3.4-0.1-7.7c-10.3 2.4-18.9 5.2-25.9 8.2zm17.6-75.8c-6.1-3.8-10.1-5.7-12-5.7-1.9 0-3.3 0.7-4.2 2.2-0.9 1.4-1.5 2.1-1.9 2.1q-0.5 0-1.1-2.7c-3.9 4.8-8.4 11.6-13.6 20.7 4.8 0.7 8.6 2.4 11.5 5.1 1.8-3.1 4-5.6 6.8-7.8q4.2-3 13.8-7.6 1.1-3.2 0.7-6.3zm27.5 30.1c1.4-2.1 3.2-5.2 5.2-9.5 2-4.2 3.1-6.8 3.1-7.6q0-1.3-2.6-1.3-2.6 0-9.6 1.8c0 6.2-1.4 11.6-4 16.4q2.2 0.4 4.2 0.4c1.3 0 2.6 0 3.7-0.2zm-1072.5 118.5h1129.2v8.9h-1129.2z"/>
		</g>
	</g>
</svg>