<svg version="1.2" xmlns="http://www.w3.org/2000/svg" viewBox="0 0 1567 321" width="1567" height="321">
	<title>Realtek_logo_vector-svg</title>
	<style>
		.s0 { fill: #0078af } 
	</style>
	<path id="path4" fill-rule="evenodd" class="s0" d="m851.7 196.3c8.1-17.5 16.4-36.2 25-56.1l13.3-32.1 6.4-16.9 9.4 0.7 11.8-0.7 6.7 16.9 12.5 31.7q24.2 59.2 47.6 105.6l9.7 18.5-25.8-0.5-22.6 0.5-5.3-16.9-8.5-21.6-3.8-11-14.3-1.4q-3.3-0.2-8-0.3-4.6-0.2-10.2-0.2-5.6 0-10 0.1c-2.9 0.1-5.5 0.2-7.6 0.4l-13.9 1.4-4.3 10.7q-1.9 5-3.8 10.5c-1.3 3.6-2.6 7.3-3.9 11l-5.4 17.3-13.8-0.5-14.5 0.5 9.7-18.1q11.5-23.1 23.6-49.5zm29.8-0.7q7.3 0.8 16.2 0.8c2.5 0 4.9 0 7.1-0.1q3.3-0.1 6.4-0.4l8.7-1.2-4.3-9.8-13.3-30.6-6.2-14.3-6.4 14.3-13 30.6-4.4 9.8zm141.1 45.3q0.2-6.8 0.4-14.6v-100.2q0-6.7-0.2-12.4-0.2-5.6-0.6-10.4l-1.5-12.1 22.5 0.7 21-0.7-1.1 12.1q-0.4 5.2-0.6 11c-0.1 3.9-0.3 8-0.4 12.3v120.9l22.5-0.3q8.6 0 15.3-0.1c4.4-0.2 8.3-0.4 11.6-0.6l13.8-1-0.5 10 0.5 9.8-19.2-1.4q-6.1-0.2-16.4-0.3-10.4 0-24.8-0.2-8.6 0-14.6 0c-4 0-7.2 0.1-9.7 0.2l-19.9 1.7 1-11.9c0.4-3.8 0.6-8 0.9-12.5zm96.3-150.9l21.2 0.7q14.2 0.5 26.1 0.9 11.9 0.3 21.5 0.3c6.8 0 14.1-0.1 22-0.3q11.8-0.4 25.6-0.9l21-0.7-0.5 10 0.5 9.7-17.2-0.9-21.2-1h-10.7v57.8l0.5 48.6 0.7 33 1.1 16.7-21.8-0.5-21.7 0.5 0.7-16.7 1.1-33 0.2-48.6 0.3-47.1v-10.7h-10.8l-21.5 1-17.1 0.9 0.8-9.7zm344.8 1.2l-1 13.8-0.3 19.2-1 28.3v17.2l16.1-16.7 17.1-19.7q7.7-8.6 13.6-15.6 5.9-7 10-12.5l10.2-14 17.1 0.7 18.2-0.7-15.6 14.7-20.2 20.2-25.6 26.4-9.7 10.7 15.6 22.6 28.6 38.8 19 25.7 11 13.6-25.9-0.5-26.6 0.5-8.2-13.4q-2.4-3.9-6.5-9.9-4.1-6.1-9.8-14.1l-16.4-23.8-11.8-16.6-0.2 16.6v23.8q0 6.3 0.2 11.8 0.2 5.5 0.8 10.3l1.3 15.3-20.7-0.5-22.6 0.5 0.8-15 0.5-21.7 0.3-24.5 0.2-49.2-0.5-29.5-0.5-19.3-0.8-13.5 21.5 0.7zm-896.5-34.8l29-0.5c10 0 18.8 1 26.4 3.1q11.4 3.2 19.5 9.2c6.5 5 11.4 10.7 14.6 17.3q4.9 9.7 5.1 22.2 0 5.5-0.8 10.6c-0.6 3.4-1.5 6.7-2.9 10q-3 7.3-7.7 12.8-4.7 5.7-11.4 9.7c-2.6 1.9-6.3 3.7-11.2 5.4-4.8 1.8-10.7 3.4-17.4 5l9.8 16.3c8.7 13.7 17 26.4 24.9 38.1 8 11.8 15.6 22.5 22.9 32.2l12.9 16.1-31.7-0.6-28 0.6-9.9-16.6-20.6-34.4q-4.4-7.2-9.9-15.8-5.5-8.5-12.6-18.8l-8.4-12v12l0.4 34.6q0 20.2 0.9 34.4l1.2 16.6-26.5-0.6-25.6 0.6 1.9-16.9c0.1-3.3 0.2-7.8 0.3-13.5 0-5.7 0.1-12.7 0.3-20.9v-112.1c0-6.7 0-12.8-0.2-18.1q-0.2-8.1-0.7-13.9l-1.6-12.6 25 0.8zm3.7 97.9q8.5-0.2 15.7-3.9 7.2-3.7 12.9-11 4.9-6 7.1-13.5 2.3-7.4 2.5-16.2c0-11.8-3.1-20.6-9.5-26.4-6.2-5.9-15.6-8.8-28.1-8.8l-11.7 0.8v78.7zm-322.2 116.2h55.2v19.2h-55.2zm-82.9 19.2h-21v-25.2h-13.6v-23h-13v48.2h-18.7v-101.8l-6.8-7.2v-25.8l73.1 47.1zm-47.6-64.7h26.6v-13.6h-26.6z"/>
	<path id="path6" fill-rule="evenodd" class="s0" d="m178.7 151.5h55.7v-30.9c-7-2-12.2-8.4-12.2-16.1 0-9.2 7.4-16.7 16.6-16.7 9.2 0 16.6 7.5 16.6 16.7 0 7.6-5 13.9-11.9 16v41.5h-73.9v-41.5c-6.8-2.1-11.9-8.4-11.9-16 0-9.2 7.5-16.7 16.7-16.7 9.1 0 16.6 7.5 16.6 16.7 0 7.7-5.2 14.1-12.3 16.1zm1 75.2v63h-23.3v-78.2h-47.2v-34.8h-16.5v-27.3l-39.9-38.6v-47.9h-17.5v-62.1h21.3v18.7h11.9v18.8h10.4v-18.8h13.8v-18.7h20.7v62.1h-17.2v31.4l39.8 44.4v38.5h34.6l36 40.1v39.4zm26.9-9.5l36-40h34.5v-38.5l39.9-44.4v-31.5h-17.3v-62h20.8v18.7h13.8v18.8h10.3v-18.8h12v-18.7h21.3v62h-17.5v47.9l-39.9 38.7v27.3h-16.6v34.7h-47.1v78.3h-23.3v-63l-26.9 29.9v-39.4zm0 39.4zm0 0zm-193.5 17.6h-13.1v-47.8l34.7-38.6h57.7v12.7h-49.7l-29.6 32.9zm8.2-30l29.4-32.7h41.7v13.6h-32.2l-25.8 28.7v36h-13.1zm71.1-6.6v13.1h-22.7l-15.4 17.1v36.8h-11v-45.6l19.2-21.4zm0 36.5h-8.1l-5.3 6v40.3h-12v-49.9l8.3-9.1h17.1zm299.6-40.8l-29.6-33h-49.7v-12.6h57.7l34.7 38.6v47.8h-13.1zm-8.2 56.2h-13.1v-35.9l-25.8-28.8h-32.2v-13.5h41.7l29.4 32.7zm-41.2-52.1l19.2 21.4v45.6h-11v-36.8l-15.4-17.1h-22.7v-13.1zm-29.8 23.8h17.1l8.2 9.2v49.9h-11.9v-40.4l-5.4-5.9h-8z"/>
	<path id="path14" class="s0" d="m704.1 241.7c0.1-4 0.2-8.4 0.2-13l0.2-31.7-0.2-45.8v-26.9l-0.8-21.7-1.3-12.8 22.8 1.4q4 0.2 10.6 0.3 6.5 0.2 15.7 0.2 27.3 0 39.2-0.7l15.3-1.2-0.5 10.9 0.5 11.7-16.1-1-31.7-0.9-14.3-0.2v54.7l15.8 0.3q7.5 0 14.8-0.2 7.3-0.2 14.4-0.8l15.3-0.9-0.7 11.4 0.7 11.2-16.1-1.2c-4.2-0.1-8.7-0.3-13.5-0.4q-7.1-0.3-15.4-0.5l-15.3 0.2v60.5l14.8 0.3q6.5 0 13.8-0.2 7.3-0.2 15.1-0.8l18.4-1.2-0.5 11.5 0.5 11.1-17.4-0.9-30.7-1-32.7 0.3-22.8 1.6 1.3-12.6q0.4-5 0.6-11zm581.4 0c0.1-4 0.2-8.4 0.2-13l0.2-31.7-0.2-45.8v-26.9l-0.8-21.7-1.3-12.8 22.8 1.4q4 0.2 10.6 0.3 6.6 0.2 15.8 0.2 27.2 0 39.1-0.7l15.3-1.2-0.5 10.9 0.5 11.7-16.1-1-31.7-0.9-14.3-0.2v54.7l15.8 0.3q7.5 0 14.8-0.2 7.3-0.2 14.4-0.8l15.3-0.9-0.7 11.4 0.7 11.2-16.1-1.2c-4.2-0.1-8.7-0.3-13.5-0.4q-7.1-0.3-15.4-0.5l-15.3 0.2v60.5l14.8 0.3q6.5 0 13.8-0.2 7.3-0.2 15.1-0.8l18.4-1.2-0.5 11.5 0.5 11.1-17.4-0.9-30.7-1-32.7 0.3-22.8 1.6 1.3-12.6q0.4-5 0.6-11z"/>
</svg>