<svg version="1.2" xmlns="http://www.w3.org/2000/svg" viewBox="0 0 1572 1129" width="1572" height="1129">
	<title>Doosan_logo_(en)-svg</title>
	<style>
		.s0 { fill: #ffffff } 
	</style>
	<g id="#005eb8ff">
		<path id="Layer" fill-rule="evenodd" class="s0" d="m399.1 0.5c245.5 0.4 491.1-0.6 736.7 0.6 109.8 3 224.6 10.9 323.1 64.1 60.9 32 104.8 94.3 110.9 163.3 10.2 101.6-22.7 200.8-53.9 296.1-50.4 143.4-102.6 292.9-210 404.6-89.9 96.8-216.2 151.7-344.1 176.3-92.2 18.5-186.5 22.6-280.1 22.6-227.1 0-454.2 0.1-681.3 0 132.9-375.8 265.7-751.7 398.7-1127.6zm413.4 211.8c-82.8 234.7-166 469.4-248.8 704.1 75.1-2.1 152.8 7.4 225.5-16.1 63.3-20.6 102.3-79.8 129.7-137 45.7-99 81-202.4 115-305.9 16.1-56.8 38.2-114.6 32.7-174.6-2.2-31.9-29.2-55.7-59.2-61.6-63.8-14.7-130-7.2-194.9-8.9z"/>
	</g>
</svg>