<svg version="1.2" xmlns="http://www.w3.org/2000/svg" viewBox="0 0 1540 277" width="1540" height="277">
	<title>Screenshot 2022-06-19 at 01-svg</title>
	<style>
		.s0 { fill: #64ae55 } 
	</style>
	<g id="#64ae55ff">
		<path id="Layer" fill-rule="evenodd" class="s0" d="m323.2 40.5c32.4-23.5 73.6-33 113.3-30.7 18.1 1.4 36.4 3.2 53.8 8.8 5 1.7 10.1 3.6 14 7.3 0.2 8.5-3.8 16.4-7.3 24-4.6 9.3-10.4 19.3-20.6 23.2-14.2 5.4-29.5 1.1-44.1 0.9-22.4-0.8-46.9 2-64.2 17.5-16.1 15.2-23 37.1-27.2 58.2-2.4 12.8-4.8 26-2.1 38.9 2.7 12.2 14.7 20.6 26.9 21.6 15.7 1.2 33.9-1.5 44.6-14.3 6.3-6.2 9-14.8 10.3-23.3-14.6-2.1-29.4-1.1-44.2-1.3 0-15 2.9-30.6 11.8-43 5.1-7.2 13.2-11.9 21.9-13.1 15.6-2.6 31.5-2.2 47.2-1.5 11.9 1.1 25.6 2.3 33.8 12.1 8.9 10.6 7.6 25.4 5.7 38.1-3.7 19.2-8.9 38.7-19.5 55.3-9.9 14.7-22.1 28.3-37.6 37.2-31.3 17.3-68.7 21.9-103.6 15.6-19.8-3.9-40.3-11.1-53.7-26.9-14.8-18-20.9-41.7-20.9-64.6 0.9-28.2 6.8-56.4 18-82.3 11.1-21.5 24-43 43.7-57.7zm299-26.9c17.6-3.1 35.5-1.9 53.2-2.2 22.6 0.2 45.3-0.3 67.9 0.2-0.4 13.9-2.6 27.9-7.1 41.1-4.1 11.9-15.9 19.4-28 21.3-20.9 3.4-42.1-0.2-63.1 2-15.6 2.2-30.5 12.1-36.9 26.7-3.4 7.3-4.6 15.2-6.1 23 14.2-5.9 29-11.1 44.6-10.7 21.9 0.3 44-1.4 65.7 2.3 0.9 15.1-1.8 31.1-10.9 43.7-8.9 11.4-22.7 18.8-37 20.4-24.3 2-48.9-1.7-73.1 2.3-8.6 28.5-10.6 58.5-19 87-15.5 2.5-31.2 2.3-46.8 1.6-7.5-0.8-16.5-1.5-21.1-8.4-4.5-7.6-2.7-16.9-1.5-25.2 5.8-27 10.7-54.3 16.3-81.4 5.5-26.6 9.5-53.8 20.1-79 6.1-15 14.5-29.3 26.7-40.2 15.4-14 35.8-21.1 56.1-24.5zm-565.9 17.7c13.8-14.5 34.5-19.3 53.8-19.6 22.9-0.1 45.8 0.2 68.6 0 20.4 0.2 42.7 1 59.6 13.9 13 9.1 17.7 25.7 18 40.8-0.5 17.1-6.1 34.5-17.7 47.3-9.1 10.8-21.7 17.8-34.2 24.1 10.8 6.4 23.8 10.9 30.5 22.2 7 12.5 9.4 27.7 5.3 41.5-5.6 19.6-16 39-33.3 50.6-17.6 11.9-38.9 17.3-59.9 18.7-35.1 3.2-70.3 1-105.4 1.8-11.8-0.3-25.2 0.6-34.9-7.3-8.3-7.8-5.6-20.3-3.9-30.3 10.8-53 21.1-106.1 31.8-159.1 3.2-16.4 10.5-32.1 21.7-44.6zm60.8 46.4c-10 7.1-10.1 20.8-10.6 31.8 18.1 2.3 36.7 2.6 54.7-1 11-1.9 20.2-14.5 15.2-25.3-4.6-9.1-16.2-7.4-24.6-7.8-11.5 0.7-23.7-1.8-34.7 2.3zm-22.4 91.4c-3.7 12.5-6.3 25.3-7.1 38.3 15.1 1.5 30.3 1.2 45.5 1 10.1-0.3 21.3-1.9 28.8-9.4 6.8-6.5 7.9-18.7 1.1-25.6-5.2-4.8-12.8-5.3-19.5-5.9-16.3-0.5-32.7-1.2-48.8 1.6z"/>
		<path id="Layer" fill-rule="evenodd" class="s0" d="m1497.1 2.5c14.2-2 28.6-2 42.9-0.3-0.4 17-5.3 33.3-8.1 50-4.5 23.9-8.6 47.9-14.3 71.6-7.4 36.5-14.5 73.1-21.7 109.6-2 12.5-3.3 25.2-6.6 37.5-12.5 2.1-26.2 3.8-37.8-2.3-5.6-13.2 0.2-27.9 2.2-41.3 9.9-50 18.4-100.2 28.4-150.2 4.8-24.9 8.5-50 15-74.6zm-78.8 7.4c9.1-1.8 20.4-2 27.1 5.6 12.6 13.2 5.8 38.8-12.2 43.2-9.2 1.4-20.9 2.4-27.5-5.5-12-13.6-5.6-38.9 12.6-43.3zm-319.8 39.2c12.1-4.6 24.8-7.7 37.6-9.3-1.1 15.2-6 29.7-7.1 44.9 12.8 1.7 25.8 1.4 38.6 1.5 2.3 11.4-1.8 22.6-5.1 33.3-13.5 2.2-27.2 1.4-40.7 2.1-4.6 16.6-6.7 33.6-10.3 50.4-2.6 14.8-6.5 29.5-7.2 44.7-0.3 6.6 0.2 14.9 6.6 18.7 7.2 3.2 15.3 2.2 22.9 2.7 0 10.1 0.5 20.5-2.9 30.2-1.8 6.5-9.7 6.1-15 6.8-14.6 0.3-31.3 2.2-43.7-7.2-9.9-7.1-14.6-19.4-14.6-31.2 0.1-22.6 6.7-44.5 10.7-66.6 2.7-16 6.9-31.9 7.7-48.3-7.3-0.5-14.7-1.2-21.9-2.1-0.1-11.3 1.9-22.6 6.6-33 7.7-0.5 15.4-1.4 23.1-2.6 2.6-9.5 3.7-19.5 6.8-28.9 0.9-3.6 4.9-4.7 7.9-6.1zm-249.8 36.9c9.4-4.6 19.9-4.7 29.9-3.1-1.6 11.8-3.2 23.7-6.5 35.1-1 2.5-1.5 6.1-4.7 6.6-8.8 2.6-18.4 2.7-26.8 6.9-9.1 4.3-16 12.2-21.1 20.8-20.7 36.1-19.5 79.3-31 118.4-11.9 2.2-24.8 3.8-36.2-1.2-5.5-2.7-5.3-10-4.8-15.2 1.9-15.1 6.2-29.8 8.7-44.8 4.3-25.6 10-50.8 13.4-76.5 2.4-15.5 3.1-31.2 7-46.4 9.2-0.6 18.5-1.2 27.7-0.7 3 0.3 6.7 0.2 8.8 2.9 1.4 9.8-0.6 19.8-1.3 29.7 11-12.2 21-26.5 36.9-32.5zm59.8 24.3c17.6-18.3 43.1-27.9 68.2-28.5 19.1-0.1 40.2 6 51.5 22.4 9.6 12.6 9.1 29.4 7.4 44.4-4.1 18.6-20.8 32-38.3 37.8-25.8 9.5-53.5 8.5-80.4 11.3-0.2 10 0.8 20.7 7.8 28.4 9 11.9 24.9 14.7 38.9 14 15.8 0.3 30.4-6.3 45.5-9.7 2.3 9.2 5.1 18.6 3.8 28.1-0.4 4.4-5.2 5.8-8.5 7.6-22.3 9.1-46.9 10.7-70.8 8.9-18.2-1.4-36.1-10.2-47.2-25-10.4-13.9-13.7-31.7-14.5-48.7-0.3-33.5 12.7-67.3 36.6-91zm14.7 49.8c17.1 2.4 34.9 1.3 51.3-4.2 8.8-3.2 18-9.3 19.7-19.2 1.1-10.6-9.2-19.6-19.4-19.9-25.3-2.3-47 19.6-51.6 43.3zm355.7-77.8c23.9-1.5 48.5-0.6 71.1 8.2-0.7 11.5-3.3 22.8-5.6 34.1-7.3 39.2-16.9 78.1-19.3 118.1-0.6 8.7 0.7 17.6-1.1 26.2-1.4 4.4-7.1 3.7-10.8 4.2-9-0.1-19.6 0.6-26.6-5.8-5.2-8.6-2.9-19.3-3.7-28.9-9.5 11.3-18.6 23.8-32.1 30.7-13.7 6.9-29.9 10-44.9 6.1-13.8-3.3-26.5-11.9-33.4-24.4-6.5-11.2-8.4-24.3-8.2-37.1-1.7-36.9 13.6-74.6 40.8-99.8 19.9-19 46.9-28.6 73.8-31.6zm-2.3 35.6c-18.3 3.8-34.9 15-45.6 30.3-11.4 16.2-18.6 35.4-20.1 55.2-0.8 13 4.8 28.2 17.7 33.4 10.9 4.1 22.3-1.7 30.5-8.7 17.9-16 26.6-39.8 31.2-62.8 1.9-14.2 7.6-28 7.2-42.5-4.3-7.2-13.9-6-20.9-4.9zm119.3-31.1c13.2-2.1 26.6-0.6 39.9-0.6 1.4 15.9-3.7 31.3-6.4 46.8-8.9 45.8-17.4 91.7-26 137.6-11.9 2.2-24.8 4.1-36.3-0.8-6.8-4.6-4.9-14.4-4.4-21.4 8.8-48.4 19.3-96.5 27.2-145 1.3-5.7 1.9-12.1 6-16.6z"/>
	</g>
</svg>