<svg version="1.2" xmlns="http://www.w3.org/2000/svg" viewBox="0 0 1550 1462" width="1550" height="1462">
	<title>favicon (2)-svg</title>
	<style>
		.s0 { fill: #e62129 } 
	</style>
	<g id="#e62129ff">
		<path id="Layer" class="s0" d="m416.5 0.1q20.5 0 41 0-0.1 23.8-0.1 47.5c13.7-0.1 27.3-0.1 41 0-0.3 47.2-0.1 94.5-0.1 141.7-13.6 0-27.2 0-40.9 0 0-47.2 0-94.5 0-141.7-13.6 0-27.3 0-41 0 0.2-15.8 0.1-31.6 0.1-47.5z"/>
		<path id="Layer" class="s0" d="m261.5 161.1q20.5-0.1 41.1 0-0.1 23.7 0 47.5c-13.7-0.1-27.4-0.1-41.1 0 0-15.9 0-31.7 0-47.5z"/>
		<path id="Layer" class="s0" d="m416.5 189.4c13.6-0.1 27.3-0.1 40.9-0.1q0.1 24.3 0 48.6c-13.6-0.1-27.2-0.1-40.9 0 0-16.2 0.1-32.4 0-48.5z"/>
		<path id="Layer" class="s0" d="m302.6 208.6q20.4-0.2 40.8 0c-0.3 42.1 0 84.1-0.1 126.2q-20.4 0-40.7 0-0.1-63.1 0-126.2z"/>
		<path id="Layer" fill-rule="evenodd" class="s0" d="m528.5 326.4c99-70.6 218-112.4 339.4-119.3 105.5-6.1 212.4 13.8 308.7 57.4 89.3 40.5 169.5 101.4 231.9 177.1 82.7 99.2 133.4 224.7 141.5 353.7v78c-6.9 106.3-42 210.5-100.9 299.3-60.7 92.1-145.9 167.7-244.1 217.7-116.3 59.8-250.9 82.7-380.5 66.5-129.1-16-253-71.7-350.2-158.2-110.4-97-185.8-233.5-206.2-379.2-9.7 6.5-20.4 12.7-32.5 12.2-55.8 0.1-111.6 0.1-167.3 0.1-16.8 0.2-32.2-9.2-42.7-21.8-15.4-18.3-23.4-41.9-25.6-65.5v-32.7c3.2-28.7 14.2-58.9 38-76.9 12.5-9.9 29-10.9 44.3-10.7q0.1 22.7 0 45.5 17.3-0.1 34.6 0-0.7 10.3-1.3 20.8 67.2 0 134.3 0c0.1-9.6 0.1-19.2 0-28.7-41-0.1-82 0.1-123-0.2 0.3-12.4 0.4-24.7 0.4-37.1 36.2 0.2 72.3-0.3 108.5 0.2 13-0.1 24.7 6.3 34.9 13.9 24.9-165 121.9-316.1 257.8-412.1zm416.8-63.8c-145.7 4.1-287.5 71.3-385 179.3-72.7 79.3-122.1 179.6-141 285.6-18.8 104.5-8.8 214.2 29.8 313.2 40 103.2 110.6 194.4 201 258.3 65 46.1 140.2 77.9 218.8 91.7 120.3 21.5 247.7 0.2 354.4-59.5 98.8-54.6 179.8-140.3 230-241.3 57.2-113.5 74.3-246.2 49.9-370.7-29-153.6-123.9-293.7-257.1-375.7-89.5-55.7-195.4-84.2-300.8-80.9z"/>
		<path id="Layer" class="s0" d="m457.4 237.9c13.6-0.1 27.2-0.1 40.8-0.1 0.2 29.3 0 58.6 0.1 87.9-13.6 0-27.3 0-40.9 0 0.1-29.3 0-58.6 0-87.8z"/>
		<path id="Layer" class="s0" d="m128.3 301.2q20.5 0 41.1 0c1 15.8-2.3 32.3 1.7 47.6 12.9 0.4 26-0.5 39-0.1 0 32.7-0.1 65.3 0 97.9-13.6-0.1-27.2-0.1-40.7-0.1 0-28.1-0.1-56.3 0-84.4-0.1-4.2 0.9-8.8-2.4-12.1-12.6-2.9-25.8-0.5-38.7-1.3 0-15.8 0.1-31.7 0-47.5z"/>
		<path id="Layer" class="s0" d="m343.4 334.8c14 0 28.1 0 42.2 0 0 33 0.1 66.1 0 99.2q-21.1 0-42.3 0 0-49.6 0.1-99.2z"/>
		<path id="Layer" class="s0" d="m784.8 437.7c61.1-25.7 128.6-36.9 194.6-30.3 65.8 5.1 132.3 16.3 192.4 44.6 40.3 18.7 76.5 45.7 106.6 78.3-3.1-20.2-5.9-40.4-9.1-60.5q15.7 2.1 31.6 3.5c8.9 51.9 15.4 104.2 23.6 156.2-53.3-6.5-106.8-12.2-160.1-18.3-2.2-12-4.3-24.1-6.5-36.2 22.7 3.4 45.5 6.1 68.2 9.2-24.4-26.8-52-51.3-84.2-68.2-39.4-21.4-84.1-30.3-128.4-34.1-41.9-3-84.4-5.9-126.1 1.8-88.3 14.7-169.3 66.2-221.6 138.7-43.5 59.7-67.2 133.7-66.1 207.6 0 54.3 7.8 110 33.3 158.6-7.1 10.3-13.8 22.2-25.7 27.6-9.2 4.2-19.5 1.9-29.1 0.9-25.1-48.7-44.1-101.3-49.7-156.1-8.3-86.9 13.1-176.1 57.9-250.8 45.7-76.6 116.2-138.1 198.4-172.5z"/>
		<path id="Layer" class="s0" d="m210.2 446.7c14.2-0.1 28.3-0.1 42.5 0-0.1 13.1-0.3 26.3 0.3 39.4q-2.8 2-5.8 3.9c-12.3-1.9-24.7-1.1-37-1.2 0-14-0.1-28.1 0-42.1z"/>
		<path id="Layer" class="s0" d="m252.1 491.9c12.3-6.9 27.7-1.3 41.3-3 0.2 31.7-0.1 63.5 0.1 95.3q-20.5 0.1-41.1 0c-0.1-30.7 0.7-61.5-0.3-92.3z"/>
		<path id="Layer" fill-rule="evenodd" class="s0" d="m934.7 562.8c50.3-5.4 102.1 3 147.5 25.3 57.1 27.4 103.7 75.5 129.7 133.3 25.9 56.9 31.1 122.9 14.9 183.3-13.2 49.9-41.1 95.8-79.2 130.6-40.2 37.2-92.1 61.8-146.4 69-62 8.8-126.9-5.3-179.9-38.7-50.5-31.5-90.3-80-111-136-18.8-50.2-22.4-106-10-158.3 14.3-61.7 51-117.9 101.7-155.8 38.4-29.1 84.8-47.4 132.7-52.7zm3.3 74.7c-47.6 6.4-92.5 31.1-123.4 67.8-53.3 60.9-62.4 155.1-22.4 225.2 26.5 48.6 74.1 85.5 128.1 97.8 45.1 10.8 93.9 4.4 134.8-17.2 46.2-23.8 82.3-66.3 98.2-115.8 15.2-46.1 12.6-97.9-7.5-142.1-19.5-43.4-55.1-79.3-98.3-99.2-34-15.9-72.4-21.4-109.5-16.5z"/>
		<path id="Layer" class="s0" d="m205.2 629.4q21.1 0 42.1 0c-0.1 15.5 0 30.9 0 46.3q-21 0-42.1 0c0.1-15.4 0.1-30.8 0-46.3z"/>
		<path id="Layer" class="s0" d="m1328.1 655.2c9.3-4.4 19.7-1.9 29.4-0.4 24.9 46.4 43.9 96.6 50.2 149.1 12.5 111.3-23.7 226.5-95.8 311.9-85.5 103.4-223.2 163.1-357.3 147.9-85-7-172.8-24.9-243.1-75.8-19.3-13.9-37-29.9-52.9-47.5 2.8 20.5 5.8 41 9 61.5-11.2-1.2-22.3-2.4-33.4-3.9-7.8-51.8-15.2-103.7-23.1-155.6 53.8 6.1 107.6 11.9 161.3 18.1 1.8 11.6 3.6 23.1 5.3 34.7-22.6-2.7-45.2-5.1-67.8-7.9 37.5 42.6 86.2 76.7 141.9 90.4 44.8 11.5 91.2 13.5 137.2 13.9 79 1.1 157.8-27 218.8-77.1 79.1-63.8 128.2-163.7 128-265.6 0.7-56.5-4.8-115.1-31.8-165.7 6.2-10.6 12.4-22.7 24.1-28z"/>
		<path id="Layer" class="s0" d="m934.4 720.9c27-7.5 56.8-4.6 81.7 8.2 26.7 13.3 48 37.1 58.1 65.1 10.8 29.6 8.9 63.5-5.3 91.6-11.2 22.7-29.9 41.6-52.4 53-33.7 17.2-76 16.1-108.8-2.8-29.7-16.8-51.5-46.9-57.6-80.5-12.3-57.9 27-120.2 84.3-134.6z"/>
	</g>
</svg>