<svg version="1.2" xmlns="http://www.w3.org/2000/svg" viewBox="0 0 1611 1482" width="1611" height="1482">
	<title>OurPalm_Logo-svg</title>
	<style>
		.s0 { fill: #ffffff } 
	</style>
	<g id="#00b9eeff">
		<path id="Layer" class="s0" d="m883.8 4.9c42.5-14.3 91.2 7 112.9 45.3 5.1 13.4-6 24.2-14.8 32.4-102.9 94.4-198.7 196.5-286.2 305.3-77.1 96-149.6 196.3-210.5 303.6-13.9 24.7-26.5 50.1-37.5 76.1-3.8 10.4-14.5 17.2-25.5 16.1-19-1-36.5-9.3-54.4-14.9-15.9-6.1-32.9-9.9-47.9-18-13.9-8-10.7-26.7-5.8-39.1 21.9-53.5 51.3-103.5 81.5-152.6 112.4-178.5 246.5-343.1 394.6-493.1 25.8-27.3 57.1-50.7 93.6-61.1zm373.4 23.1c31-10.6 67.3-5.5 92.5 16 13 11.3 25.7 24.2 32.7 40.2 5.3 12.6-4 24-14 30.4-183.7 129.4-353.4 280.6-493.2 457.1-69.3 87.6-131.3 181.2-183.5 280-5.2 9.6-10.3 20.8-21.2 25.1-13 7.1-27-0.6-39.2-5.5-24.7-11.1-50.5-20.6-73.4-35.1-11.1-7.4-9.7-22.5-4.4-33 142.1-277.5 355.7-513.3 598.3-706.7 33.3-25.3 64.6-55.8 105.4-68.5zm-806 78.1c34.6-7.5 71.6 3.3 98.7 25.2 12.9 9.3 13.5 28.7 2.2 39.3-94.1 109.5-186.2 221.3-263.3 343.6-46.5 73.9-87.6 151.6-115.9 234.3-30.1 88.1-39 187-6.1 275.5 32.3 89 100.7 159.7 176.8 213.6 54.3 40.1 118.3 65.5 183.8 80.7 95.5 22.4 195.2 23.4 292.2 10.9 132.7-17.8 262.6-68.6 366-154.9 51.7-41.7 93.8-93.5 134.9-145.2 48.8-63 94.2-129.9 123.2-204.6 20-52.2 31.1-110.6 15.6-165.5-8.7-33.2-30.1-63.5-60.8-79.5-34.4-18.9-75.8-19.5-113.3-11.3-63.2 14.6-116 55.7-161.4 100.3-51.5 53.7-101 113.2-122.9 185.6-5.3 21.1-11 44.9-1.1 65.5 8 14 26.6 7 38.1 1.9 43.4-21.5 77.5-57.4 109.9-92.5 22.9-25.4 43-56.6 76.9-68.2 27.3-10.9 58.3-3.5 82.8 11.1 8.6 5.1 16.2 13.9 15.9 24.5-2.5 15.1-11.8 27.8-19.7 40.5-40.7 62.6-87.8 122.3-146.9 168.6-40.2 31.1-87.3 56.7-138.8 60.8-47.7 4-97.6-14.5-128.4-51.7-32.4-38.5-43.1-91.2-38.8-140.4 6.6-74.6 40.2-144.1 82.8-204.7 38.4-53 82.9-101.8 132.6-144.3 71.2-61.1 160.4-104.9 255.4-107.4 55.2 0.1 113 8.3 160.4 38.8 58.4 35.4 99 95.7 116.5 161.1 15.6 54.4 15.2 112.4 3.3 167.4-14.3 68.6-43.8 133-79.1 193-42.6 72.1-94 138.5-149.1 201.3-47.7 54.9-101 105.2-160.9 146.7-191.2 134.1-436.9 180.6-665.8 142.7-87.1-14.9-173.2-42-249.2-88-54.8-34.3-105.8-75.2-150.3-122.3-76.2-78.9-129.9-181.1-143.2-290.6-13.1-103.1 7.2-207.8 45-303.7 72.5-186.3 193.7-348.2 319.7-501.4 20.7-26.8 48.8-49.2 82.3-56.7z"/>
	</g>
</svg>