<svg version="1.2" xmlns="http://www.w3.org/2000/svg" viewBox="0 0 1552 1550" width="1552" height="1550">
	<title>logo-zozo-svg</title>
	<style>
		.s0 { fill: #f5ab18 } 
		.s1 { fill: #0f367a } 
		.s2 { fill: #000000 } 
		.s3 { fill: #c7161d } 
	</style>
	<path id="Layer" class="s0" d="m1481.4 1503.5l-0.7 8.9-2.9 8.8-4.1 7.7-5.6 7-6.9 5.7-8.1 4.4-8.6 2.4-8.9 1.2h-419l-8.8-1.2-8.5-2.4-8.1-4.4-7-5.7-5.7-7-4.4-7.7-2.4-8.8-0.9-8.9v-418.5l0.9-9.3 2.4-8.6 4.4-7.6 5.7-7.2 7-5.7 8.1-4.1 8.5-2.9 8.8-0.7h419l8.9 0.7 8.6 2.9 8.1 4.1 6.9 5.7 5.6 7.2 4.1 7.6 2.9 8.6 0.7 9.3v413.2z"/>
	<path id="Layer" class="s1" d="m37.7 1549.8l-8.2-2.5-7.8-3.7-6.6-5.4-5.7-6.2-4.4-6.9-3.4-7.8-1.6-8.7v-8.2l1.6-8.7 2.9-7.8 4.1-7.4 0.6-0.9 485.8-674.1 3-4.2 5.4-6.2 6.5-5.3 7.5-4.1 7.8-2.5 8.6-1.2h8.1l8.2 1.6 7.5 3.3 6.9 5 6.2 5.7 4.5 6.2 3.6 7.4 2.1 8.2 0.9 8.3v679.8l-0.9 9.1-2.5 8.6-4.5 8.2-5.8 7-6.9 5.8-8.2 4.6-8.6 2.3-9 0.9h-489z"/>
	<path id="Layer" class="s2" d="m1513.7 0.7l8.4 2.4 7.8 3.7 6.6 5.5 5.7 6.2 4.6 6.9 3.2 7.8 1.6 8.7v8.3l-1.6 8.7-3 7.8-4.1 7.5v0.8l-485.2 677.1-3.1 4.3-5.2 5.7-6.6 5.3-7.3 4.1-7.8 2.5-8.7 1.2h-8.2l-8.2-1.6-7.4-3.3-7-5-6.1-5.8-4.9-6.6-3.7-7.4-2-8.2-0.9-8.3v-682l0.9-9.1 2.3-8.6 4.6-8.2 5.7-7.1 7-5.8 8.3-4.5 8.5-2.5 9.5-1.2h488.6z"/>
	<path id="Layer" class="s3" d="m583.1 311.5l-1.5 21.4-3.7 21-5.3 20.1-6.6 20.1-8.2 19.3-9.4 18.4-11.1 18.1-12.4 17.2-13.5 16.5-14.4 14.3-15.6 14-16.4 12.4-17.2 12.4-18.1 10.3-19.3 9.4-19.3 7.8-20.1 6.2-20.6 5.6-20.5 3.2-21 2.1h-20.9l-20.9-1.2-20.9-2.9-20.5-4.1-20.2-5.3-20.1-7.4-18.9-8.2-18.9-9.9-17.6-11.1-16.8-12.4-16.1-13.6-15.2-14.8-14.3-15.6-12.4-16.7-11.4-17.3-9.9-18.5-9.1-19.3-6.7-19.7-5.7-20.1-5.2-20.2-3.2-20.6-1.8-21.2v-21l1.8-20.8 3.2-20.9 5.2-20.6 5.1-19.5 7.3-20.3 9.4-18.9 10-18.5 11.4-17.6 12.4-16.8 13.9-15.7 15.2-14.7 16.1-13.9 16.8-12.4 17.6-11 18.9-9.5 18.9-8.5 20.1-7.1 20.2-5.7 20.5-4.1 20.9-2.8 20.9-0.9h20.9l21 2.1 20.5 3.2 20.6 5 20.1 6.7 19.3 7.8 19.3 8.8 18.1 10.7 17.2 11.5 16.4 13.1 15.6 14.4 14.4 15.2 12.9 16 12.4 17.2 11.1 18.1 9.4 18.8 8.2 19.4 6.6 19.7 5.3 20.5 3.7 20.5 2.1 21 0.9 20.8z"/>
</svg>