<svg version="1.2" xmlns="http://www.w3.org/2000/svg" viewBox="0 0 1504 1126" width="1504" height="1126">
	<title>win-semiconductors-vector-logo-svg</title>
	<style>
		.s0 { fill: #df3425 } 
	</style>
	<path id="Layer" class="s0" d="m1503.4 134.9c-1.2 4.5-3.6 5.4-5.5 9.4-4.5-2.4-7.3 4.2-11.2 5.2 3-0.3 7.6-1 9.4-1.3-7.6 5.5-18.2 8.6-23.4 15.8l3.1 2.2c-1.9 0.9-2.8 2.1-4.3 3.3-0.6 1.8 1.2 2.1 1.8 3.1 4.9-1.6 7-10.1 12.5-9.2 2.4 6.7-17.6 12.2-4.6 15.5l2.5-0.3c-10.1 5.2-18.3 11.6-25.2 18.9 2.1 1.2 8.5 0.3 11.5-1.2-4.3 2.7-9.4 6.3-11.2 10.6l-0.3-4.9c-5.2 0.6-8.8 4.9-8.2 9.5-5.2 4.5-12.8 6-16.1 11.8 6.7-2.1 15.5-2.1 21.2-3.9l1.5-0.3c-10.9 6.6-23.9 8.8-33.7 16.7 0.3 0.9 1.9 0.6 2.5 0.6-2.2 2.7 1.5 7-3.4 8.8-6.7 0-3.3-6.4-4.5-10.3 1.5-5.8 11.2-4.3 9.7-11-11.5 4.9-28.6 8.5-39.2 16.4-3.3 0.9-4.5-4.2-7.3 0-2.4 0.3-1.8-3.3-4.8-1.5-1.5 6.4-7.3 8.2-12.5 11.3-7.3-6.7 9.1-7.9 8.2-15.5 5.8-2.2 9.4-8.3 16.1-8.6l2.4-2.4c0.7-3.6-4.8 0.3-3.6-2.7l2.4-4.9c-4.2-4.2-8.2 5.2-10.6 7.3-10.9 4.6-21.9 11.6-32.8 13.7 1.8-2.7 7.6-3.7 10.9-6.7l7.3-5.5c-0.3-0.9-1.2-0.9-2.4-0.6 0.3-0.6 2.7-2.4 4.3-1.2 3.3-6.4 17.3-4.6 14.8-14.6 11.6-4.8 27.4-9.4 38-18.5 0-2.1 0.6-4-1.5-4.6-7 7.9-20.1 3.4-26.4 11.3-3.4 1.5-7.3 4.2-11.6 5.1l-1.8-1.2c-0.3 4.9-7.3 3.7-10.9 4.9 14.8-11.6 40-15.8 56.1-28.6 8.2-1.8 16.4-4.9 22.2-10.6 13.4-1.2 11.2-16.1 20.6-19.2-0.9 4.9-0.9 2.8-5.1 6.1 2.7 3.3 6.1-1.5 9.4-0.6l2.4-2.4c-1.2-2.2-3.6-1.6-0.6-4.6 10.6-2.7 21.6-7.3 31.9-10.6zm-14.9 7c-2.1 2.7-7 4.5-10.9 5.1 2.1-2.7 7.6-2.1 10.9-5.1zm-32.2 26.4c-3.3 4.9-12.4 4.6-10.3 10.9 2.4-0.9 0.6-3.6 2.4-4.8l2.5 0.3c3-1.2 5.4-5.8 5.4-6.4zm-30.9 15.2l8.5-4.9-6.1 4.6zm-21.3 31.6c1 1.5 3.1 0.3 4.3 0.6-0.9 0.9-0.9 3-0.9 4.6l1.8 1.5c-4.6 1.8-12.1 1.8-13.4-3.1 1.6-6.9 10.7-7.6 12.2-14.5l13.3-6.4c-3.9 4.5-12.4 13-17.3 17.3zm50.7-15.2c-2.4 3.3-8.8 4.3-12.7 4.6 3-2.8 8.2-7 12.7-4.6zm-109.6 11.6c-9.4 4.8-20.3 9.7-28.5 16.1-0.3-1 0.6-2.8-1.2-3.1 8.5-7.3 20.3-8.2 29.7-13zm10.1 8.8l-1.3 0.3c-1.8-4.9 6.4-3.1 8.2-6.1 0.6 1.2-4.5 4.6-6.9 5.8zm80.4-10.7c-1.8 4.6-7.9 10.1-12.7 10.7 2.4-4.6 7.3-7.3 6.6-11.6zm-142.7 30.4c4.3-4.2 13.7-5.2 15.5-12.1l3.4-1.9c3.3 9.5-12.2 10.1-18.9 14zm39.8-13.4l-2.4 3.4zm-46.5 15.8c3.1 5.5 7.6-2.1 12.5-1.2-1.2 4.8-11 7.3-14.3 12.4-3.9 3.4-9.1 4-12.7 7.9-0.4-0.9-1.9-0.3-2.5-0.3 1.8-0.9 2.8-2.4 4.3-3.6 0-1.5-0.6-3.1-2.2-3.7-4.5 1.6-9.7 5.8-10.9 8.8 2.1 0.3 3.4 3.1 1.8 4.9-6.9 4.9-14.2 8.2-15.8 16.1 7.9 1.5 18.6-2.1 23.4-9.1 12.2-5.2 24-11.9 36.2-16.4l3.3-4.3c-2.7-1.5 1.8-3.3 1.5-5.7l-3.3-1.9c1.2-3.9 6.1-4.5 9.1-7.3 2.7 1.3 0.6 2.2 0.3 4-0.9 0.3-1.2 0.9-1.2 1.8 6.7-0.3 12.7-5.8 19.1-7.6 0 0.3 1.2 4.3-1.2 5.5-4.3 1.2-8.5-0.9-11.8 3.3v2.5c-7.3-1-5.8 7.9-11.9 9.7 21.3 0.3 33.7-21.6 55-22.8-2.2 10.3-18.9 12.1-21.6 23.1-3.6 3.9-4.5 4.5-8.2 8.5v-4.9c-8.2 0.6-3.6 9.2-10.6 11.3-0.9 3 2.1 1.5 3 3 3.7 0.6 5.5-2.1 8.5-1.5v2.4c-0.3-0.3-0.6-0.9-1.2-0.9l-1.8 1.8-1.8-1.2c-2.8 5.2-7.3 7.3-11 10.4l-1.8-4.3c-11.5 6.1-24.6 11.3-33.7 20.7-7 0.9-7.9 11.8-16.1 8.5l-7.3 6.4 0.9 0.6c0 1.5-4.5 0.9-3 3.6l1.2 1.2c-3.6 3.7-5.8 11.6-13 13.7l-1 2.4c-3.6-3.6-6.9 1.6-10 2.8-2.1 1.5-2.4 3.3-3.3 5.1 2.1 2.8 6.1 0 8.5-0.9 0 0.6 0.3 0.9 1.2 1.2-4.2 3.1-10 5.5-11.8 9.8-5.8-1.2 6-7.3-2.2-5.2-3 1.2-9.1 4.3-13 7.6 5.1 0.9-2.8 6.7 3.3 5.8 4.3-2.5 1.8-9.1 8.2-8.5-3 9.7-16.7 11.8-23.1 19.4-0.9 1.2-7.2 0.9-6.6 5.5v1.2c-5.8 2.4-16.1 3.3-18.6 11.3-4.2 4.2-8.5 6.3-12.7 10.6l1.8 1.5c-8.8 6.4-20.6 20.7-32.8 23.4l-5.4 6.1-1.3-4c-3.3 1.3-4.8 6.7-9.1 6.4l1.8-3.3c-7.2-1.8-13.3 9.4-19.7 5.1 3.7-5.7 5.8-10.6 12.5-13.9-2.2-0.3-2.5-5.2-5.8-3.4 0.9-3.3 7.3-6.7 10.6-11.2-3.6-3.1-7.3-1.5-7-7.9 2.2-3.1 5.5-4.9 6.4-8.5l-3.6 0.3c0-3.7 4.2-4 6.6-4.6 5.5 0.9 2.5-4.2 4.3-5.8-0.9-0.9-2.1-0.9-3.3-1.5l-2.5 4.3c-3 0-7 3.6-9.4 3.9-6.1 2.1-3.3 13.7-10.9 9.7-0.3 0.3-0.6 1-1.5 1.3-2.2-1.6 2.1-3.7 1.5-5.8 4.8-0.9 9.4-6.7 11.8-10.7-0.6-0.3-0.9-0.9-1.8-0.6l-1.5 1.6 1.5-5.2-2.4-0.9 0.6-0.6 1.8 1.5c-0.3-6.4 9.1-4.9 13.1-8.5 4.8-2.4 10.6-7.3 14.5-7-5.7 2.1-7.2 6.7-5.7 10.6 2.7 3.7-4.6 4.3-4 8.2 0.6 1.6 2.5 0.3 3.4 0.6-2.2 5.2-7.9 6.7-12.5 10.7 6.4 4.5 14.3-4.9 21.3-8.5 11.8-3.7 16.4-18 27.3-23.7-1.2-2.5-2.4 1.2-4.3 1.2-1.5-4 6.7-5.5 10.7-6.7 6.3-8.2 15.8-9.4 21.8-17.9-8.8-1.9-13.6 10.9-22.7 7.9-2.5 3-6.7 8.5-10.7 10.3-1.2-3.3-16.7 3-8.2-5.2 7 0.3 11-5.7 14.6-10.3l-1.8-3.6-1.5 2.4c-1.5 0-0.9-2.1-0.9-2.7 5.4-7.3 12.7 2.4 15.7-7 6.1 0.6 1.9-8.2 7.9-5.5 0.3-2.4 3.7-4.3 1.6-6.7 5.1-1.5 10.6-8.5 14.2-6.1 10.1-0.3 13.7-11.2 22.5-11.8 2.7-2.5 6.4-5.2 8.5-7.6-9.1-4.9-12.1 11.2-21.3 7.3 6.1-4 12.8-6.7 17.1-11.6l-1-0.6c-8.2 1.8-14.8 8.5-21.8 10.7-0.9-3.1 3-2.8 4.2-5.2-3.6-2.4-7 2.4-10.3 3.3 1.5-7 14-7 20-12.1 3.7-6.4 8.2-12.8 9.8-18.9 8.5-5.1 21.5-6.1 24.6-14.9 7.9-2.4 11.5-10.3 19.1-10.6 1.2 0.9-5.5 4.6-0.3 6.1 10.3 2.1 0.9-12.2 11.8-7.3zm-782.2 92.4c27.1 13.6 6.7 44.6 19.5 63.8-1.2 4.9 2.1 7.9 4.8 9.4l-3.9 9.1c-3 1.2-4.3-4.5-6.7-0.3-0.9 3.4 1.8 2.5 2.4 3.1-1.5 7.6 1.3 14.9 3.1 21.2l5.7-5.1c1.6 2.4-5.4 4.8-0.6 5.8l2.5-2.8c3.9 4.9-3.4 9.7-7.6 11.9l1.2 15.2c14-11.3 31.6-16.1 44.3-30.1 51.9-39.2 102.4-80.9 156.7-115.8 5.2-9.4 19.4-10.7 30.1-13.4 6-5.8 13 0.3 20.3-2.7 16.1-4.3 35.2-6.4 49.5-2.1 0.3 8.2 11.8 6.6 11.2 15.1 17.6 4.6 24.6 19.5 38.3 29.2 2.4 3.1-0.9 6.1-1.5 8.8 5.1 8.5 18.8 11.6 20.9 21 7.6 4.9-2.4 11.6-3.9 17-7 5.5-15.8 10.1-20.1 18.6-14.5 9.4-27 23.7-41.9 33.1-46.4 40.1-90.8 86-122.9 136.8 1.8-4 3.6-8 2.1-11.3-7.6 5.8-11.2 15.2-16.7 22.8-1.2 4.9-4.9 9.7-5.5 15.2l-0.9 0.9-3.3-1.8c-1.9 4.2-4 6.4-8.5 7.6-12.5 13.7-22.2 27-31.3 41.9 3.3-7.3 6.4-14.6 9.7-22.2l-1.5-1.2c-8.8 7.3-10 17-18.5 23.7 10.6-31 27.9-60.1 45.8-89.3-3.9-2.2-9.1 1.8-12.7 4.8-7.9 4.3-9.4 13.1-17.6 15.2 7.9-9.1 10.3-20 20.6-26.4 2.4 0.6 4.6-2.1 4.9-3.7-0.9-3.6-9.5-4.5-5.5-10.3-21.9 21.3-40.1 50.8-56.8 75.7-9.4 5.5-3.9 15.5-14.3 19.1-9.4 14.6-17 30.4-28.8 42.9 1.5 7.9-8.5 12.7-9.1 20.3 9.1-7.6 18.5-21.8 25.8-32.2 0.3 0-0.9 4-1.5 5.5 2.7 2.1 4.8-1.2 6.7-2.7-5.2 9.7-8.2 25.8-20.7 34.6 0 5.2-3 9.7-4.2 14.3 24.3-14 22.4-42.2 42.5-60.5 3.3-8.8 7.3-17.3 13.6-25.2 5.2 1.5 6.4-4.6 10.4-4.9-0.6 7-6.4 13.1-9.8 19.5-7.2-0.3-1.5 6.7-5.4 9.4-4.3 5.2-9.4 9.4-9.1 16.4-14.3 17.9-17 39.2-31.9 56.5-0.9 7.3-0.3 14.6-6.7 20.1-1.2 5.8 3.7 13.1-0.3 17.9l-0.6-2.4c-3.6 0.9-3 4.3-3.3 7-4.6-1.2-6.1 4.2-9.2 7-3 3.9 1.6 6.1 2.8 9.1 2.1-0.9 5.1 0.6 6.7-2.4l-1-4.9c7.3 0.3 12.2-8.5 16.7-14 1-6.7 7.6-12.7 6.4-20.6l2.5-3.7c3.6 7.6 5.7-5.8 10.9-1.8l2.4-3.1c-4.5-3.6 2.7-7.9 2.7-12.4 3.4-7.6 6.7-1.5 11-0.6 7 6.1-7.6 8.5-6.4 14.9 0.3 3.6-4.2 6.7-2.4 10.9 12.7-2.1 15.5-17 24.9-24.3 11.2-10.9 22.7-20.1 32.2-32.8l4.8-2.2c26.7-27.6 52.5-59.2 85-80.8-2.4 1.8-3.6 4.3-4.2 6.4 3.9 2.1 7.6 2.4 11.5-0.6 3.4-1.2 1.2-4 1.8-6.1-1.8-1.5-4.2-3.9-6.6-1.5 14.8-22.5 37.9-32.2 55.8-52.3 5.2-7.3 16.1-9.7 17.3-19.1 4.6 3.9 6.4-4 10.1-4.9l3.6-5.8c-0.9 3.7 2.1 0.3 2.4 2.2-4.2 3.3-9.4 7.9-10 11.8l3.7-2.1c-1.6 3.6 2.4 3 4.2 4.2 5.8 1.6 12.5-5.4 17-2.4l-1.5 5.2c4.9 1.5 8.8-5.8 10.6-8.8-2.1-2.8-0.3-4.3-0.9-7.6l-10 4.8c0.3-1.2-1.2-1.5-1.8-2.1-0.3 0.3-0.9 0.9-1.9 0.9-3.9-1.2 0-4.6-0.9-7l1.9 3.1c10.9-7.6 24.2-23.1 35.8-27.1 1.2-4.9 8.2 0.3 10.9-4.2l0.6-6.1c1.5 0 4.6-0.6 3.4-2.8v-2.1c-2.8 2.1-11 5.5-10.4 11-6.3-8.6 7.9-7.6 9.5-14.3 4.5-1.2 0.3 3.6 2.1 4.5 2.1-3.9 9.1-1.5 7.6-7.3l-2.5-0.9c3.4-6.1 11-7 16.1-10.3-3.6 1.2-7.3 5.5-8.2 8.5 6.7 4.6 7.6-6.7 11.6-8.8l-1.5-1.5c5.7 2.1 6.3-9.5 11.5-4.3 7 1.2 7.3-7 11.8-8.2 0-10 13.4-7 16.7-14 8.5-0.3 7-11.2 15.8-11.5 4.9-4.9 14.9-5.2 15.2-12.5 4.9-1.8 6.4-8.2 12.5-8.5-2.5 11.3-13.1 14-20.1 21.3 4.9 6.1-7 10.6-10.6 14.6-12.8 6-18.2 16.7-30.4 24 0-0.9 0.6-2.8-0.6-3.1-4.5 2.8-9.1 6.1-12.4 9.2 2.4 1.8 4.2-2.2 6.6-1.9-4.2 0.6-1.5 5.2-6.6 5.2-3.7 1.5 3.3-1.8 0-3.3-3.4 9.1-21.3 4.2-16.1 14.8l7.6-4.5c-0.3 9.1-12.8 19.4-22.5 28.9-3.3 4.2-2.7 10.3-7.3 13.9 2.7 1.3 7.3-2.4 7.6-5.4 0.9-4.6 7-10.7 10.6-11.9 1.2-1.8 3.1-3 3.7-4.2l-4.3 0.9c3.4-8.5 13.1 0 14.9-10.1 3-2.1-2.7-4.5 1.8-5.4 4 1.2 2.8 7.9 8.5 7 3.7-2.8 0.3-4.3 2.5-7.3 3.3-0.3 0.3-3.7 2.4-4.9 6.4-6.7 20.3-9.7 19.4-20.7 2.1-1.5 3.1-4.8 6.7-4.5 7.3-2.4 8.2-16.7 17.3-12.5 4.9-4.5 10.3-12.1 17.6-16.7 0.9-1.8 4-2.7 3-4.9-3-3.3-6.9 0-10.3 1.9 8.5-1.6 9.4-12.2 18.5-13.1 3.4-2.4 8.5-2.4 10.1-7.3-3.7-1.8-7 5.5-10.4 2.1 4.6-2.1-2.1-9.4 5.8-9.7 3.7 2.7 6.7 0.3 11.2-0.6 0.4 1.8-4.8 3.3-1.8 5.2 1.5 0.3 1.8-0.9 2.8-1.9 2.1 0.7 2.1 3.7 0.3 4.6-2.8 2.4-5.2 4.9-9.5 4.3-4.5 4.5-11.5 8.5-15.7 13.3 4.2-1.5 10.6-1.8 12.4-7.6-0.6 1.2 0.9 1.9 1.5 2.5-3 1.5-5.7 3.6-5.4 6.6 3.3 4.6-1.9 4.9-4.3 7.6-1.2 1.3-2.7 1.9-2.7 3.7 1.2 1.2 2.7 0 4.2 0.3-7.3 5.5-9.4 14.9-19.1 16.7l10.6-12.8c-2.4 0-7 3.1-9.1 4.9l-5.8 4.9c0-1.5 0-3.7-1.8-4.3-3.9 6.7-15.8 7.3-15.5 14.3 4.3-1.2 8.2-8.2 13.4-7.3-1.5 5.8-10.3 6.7-11.5 12.8-1.9-0.6-4.9-2.5-6.1 0.6-2.7 9.4-7.3 14.3-14 21-2.7-2.5 5.5-4.6 1.5-7-2.4 0.9-4.2 3.3-5.7 5.1 0.6 4.6-3.7 9.8-4 15.2-6.7-1.5-7 6.7-11.8 9.7 0.9 5.2-8.5 3.4-7.3 9.2-12.5 12.7-27.6 19.4-37.7 32.2-1.8 1.2-0.3 3.6-1.5 4.5 0.9 2.5 3.7 1 6.1 1 8.5-6.4 5.8-16.5 17-19.5 2.1-2.1 2.4-3 5.5-4.3 2.1 7.6-11.6 5.2-5.8 10.7 6.1-0.3 8.2-7.3 14.3-7.6-2.8 3 0.9 4.8 2.4 7.3 12.4-6.4-4.6-21 12.4-24 1 6 1.3 11.8-4.8 16.1 11.2-1.2 13.7-13.7 22.5-18 6.9 0.4 9.7-7.6 13.6-12.1 4.3-4.9-3-7.9 0.9-12.8l13.7-9.1c-1.2 4.6-14.9 8.8-9.4 13.7 5.5-1.5 8.2-5.5 11.8-7.9l2.5-3.1c2.4 3.1-4 11.3 3.9 10.4-4.9 6.4-14.6 12.1-18.5 20-8.8 0.3-15.8 10.7-21 16.1q-27.3 18.7-50.1 40.2l-4.2 0.9c0.6-0.6 2.1-1.2 1.5-2.2-2.7 0-6.7 2.2-9.4 4.6-2.7 5.5-3.1 9.4-9.1 14.3 0.3-1.5-0.9-1.5-1.8-2.1-9.2 7.9-21.9 14.5-25.6 25.8-8.8-0.3-11.5 9.1-17.9 14.9 3.4 1.5 4.9-4.6 8.5-4.9 0 0.9 0.3 2.1-0.6 2.8 4.3 2.7 9.1-4.6 13.4-3.1 7-2.1 12.1-8.5 14.3-14 0.9-0.6 0-2.7-1-3.6 4.9-0.9 8.6-5.8 11.6-9.1l1.2 0.9 3-5.8c0 0 0.3 4.9 3.7 2.7 13.6-3.3 14.3-22.7 30-19.7 11-2.1 16.7-14.3 23.7-21.9 3.4 1.2 7.9 3.7 11 0l-10.1 10.9c-6-3.9-6.9 8-13.3 7-1.2 7.3-10.7 8.2-15.2 14-6.1 5.2-10.6 14.3-18.2 15.5-8.2 17.6-30.7 30.7-41.3 48.6 3.6-0.6 7.9-4.5 11.5-6.6 0 5.1-8.8 11.2-8.8 17.9l1.8 1.2c-10 9.4-21.5 17.9-22.4 30.1-8.2 3.6-11.6 14.6-19.2 16.7-0.9-2.1-1.8-4.6-4.2-4.9-2.7 1-7.6-0.9-7.6 3.1 0.3-0.9-1.2-1.5-1.8-2.1-5.2 3-7 8.5-10 12.7-0.4-0.9-1.3-0.3-2.5-0.3 0-0.9 0.6-2.4-0.6-3-1.5 0.3-2.4 2.1-3.3 2.7l-0.9-0.6c-5.5 5.2-7 11.3-13.7 16.1-0.3 0.9-1.8-1.8-4.2-1.8-4.6 2.7 1.5 6.1-3.1 9.7 7.6 7-6.4 13.7-5.5 21.6-8.5 1.2-9.4 18.8-16 8.5-3.4 1.2-4.3 6.1-6.4 9.1-10.3 10.4-18.5 22.2-28 34.7-5.1 1.2-7.5 7-9.4 10.9 1.9 6.1-8.8 4.3-11.5 10v1.6l3-0.3c-3 4.5-6 12.4-12.4 13-2.4-0.6-4.3 2.5-4.9 4.3-0.9-1.5-2.7-0.3-3.6-0.3-2.5 13-14.9 24.9-23.7 34.9-5.2 10-12.2 19.5-20 27.7-39.2 55-89.6 109.4-121.5 167.7-10 15.5-28.8 22.8-46.8 27.4-8.8 4.2-19.1 2.7-27.9 2.1-3.9 5.8-9.7 1.2-14 0.9-8.2 0.9-17.9 2.8-22.7-3.6-5.5 5.1-8.8-3.1-13.7-3.4-4.9 0-10-3.6-15.2-0.6 2.4 7.3 13.7 0.3 15.5 8.5-11.2 0.6-19.4-6-29.1-7.6-1.9-3.3 2.4-3 3.9-4.2 1.2-1.2-0.6-3.4-2.4-4.6-1.2 1.2-2.5 1.2-3.4 3.1 0 2.4-4.8 4.2-7.6 5.7-3 0.3-7.2-1.5-10.6-3.3-1.8 1.5 0 4 1.8 5.2-0.6 0-6.3-4.3-9.1 0l-1.8 1.8c-8.5 0-13.1-5.5-21.6-6.1 1-4.9 10.7-11.5 5.8-16.1 2.4-7.3-2.1-16.1-0.3-24.3-4.5-26.8 10.3-53.8 17.6-79.9 22.5-52.9 38.3-107.6 67.1-158.7 17.6-3.9 17-21.9 28.6-31.6 0.3 4.6-8.5 9.1-3.4 13.4 10.7-16.4 19.8-33.8 29.5-50.5-2.8-18.5 21.2-21.2 19.7-39.2l4.3-4.2c-0.6 0.6 0.3 1.2 0.6 1.5 7.3-5.5 10.3-13.4 12.1-20.7 11.3-6.1-0.9-18.5 9.7-25.2 2.2-2.4 11-1.8 6.7-7l-4.2 2.7c3.9-6.6 8.2-3.3 11.2-11.2l-3.3 0.3c0.3-2.1 2.7-3.9 3.3-5.8l2.7 2.5 0.6-1.3c5.8 12.5-19.7 17.1-10.9 30.7l2.4-0.3c-0.3 8.5-10 14.3-12.4 22.5-3.3 8.2-9.4 17-15.8 23.4-10 24.3-30.1 42.9-39.8 67.8-2.7 2.4-7 3.3-8.2 6.4 3.4 1.8 9.4-2.7 9.1 3.3-1.2 3.7-2.7 8.2-1.5 11.3 4.3-4 10.6-10.1 5.5-15.5 3.6-10.4 15.5-17 16.4-28.9 6.7-7.9 13.9-14.3 16.7-24 7.9-14 13.6-29.5 26.4-40.7 1.8 0.9-0.6 5.4 3.3 4.5l3.1-0.3v3.1l3.3-0.3c-7 6.6-14.6 7.3-20.9 15.5-1.3 17.3-18.3 28.5-23.7 45.5-5.2 4-6.4 11.6-9.7 17.4-4.3 11.2-12.5 18.2-18.3 29.1-3.6 13.1-16.4 23.4-14.2 38 3.6 0.6 9.4 0.3 10.9-3.6-1.8-3.4 10-8.8 4.6-13.4-4-0.3-6.1 4.6-8.5 7-2.2-8.5 13.6-9.1 8.2-18.5 0.3-7.3 13.3-9.2 8.2-15.8 0.3-1.6 1.8 2.1 3.6 0.3 1.2-1.6 3.3-2.8 2.4-4.9-0.6-0.6-1.2-1.8-2.4-1.2v-2.4c4.2 3.3 3.6-4.3 7.6-6.4l2.7 4.2c4.9-5.4 10.3-11.8 8.8-17.6-1.2-0.9-1.8-2.4-3.3-2.1 3-8.2 13-10.4 14.9-18.6l1.8-1.8c-0.6 0.9 0.9 1.5 1.2 2.1 7.3-3.6 5.2-11.5 10-16.4 3.4-7.3 12.2-14.3 9.7-21.9 3.4-8.8 14-14.5 20.1-20.6-11.9 26.1-31.3 52.6-45 78.4l4.3-0.6c-3.7 8.8-8.8 17.6-15.8 25.5 2.1 7.6-17.3 20.1-0.3 21 4.9-4.3 12.4-10 9.4-17.6 32.2-59.9 65-123.1 110.8-181.2 1.6-7.6 9.5-13.4 10.1-21.3 16.4-20.6 30.9-39.8 45.5-62 3.3-10 19.1-20.9 10.3-29.7-7.9 1.2-6 10-12.4 14.2l-8.5 6.7c-0.3-1.5-4.3-2.4-4.3 0.3-8.2 4.9-1.2 10.4-3.9 16.5l-11.3 12.7c-1.8 7.3-10 8.8-12.4 16.4-1.8 3.4-4.3 6.7-7.6 9.8-3-2.2-5.8 1.5-8.2 3.9 3-4.6-5.8-4.6-2.7-9.1-10 7-15.2 21.3-22.2 31-2.1 6.7-8.5 12.7-11.2 18.8-11.6 8.8-9.7 24.6-20.7 34.4 0 8.5-11.2 14.3-13.3 22.8l-4.9 2.7-2.4-2.7c-0.6 0.6-0.9 0.9-1.5 0.9 1.5-12.5 13.6-24.6 20.3-37.1 5.8-4.9 10.9-12.8 12.5-20.1 6.9-9.1 20.9-20 16.3-31.3 3.7-2.4 1-7.9 6.4-8.2 3.1 2.8 5.5-3.6 8.5-4.2-0.3-4-2.4-10.1 4.3-13.4l0.6 2.1c5.1-4.8 11.2-11.8 10.9-17.6 2.4 1.5 4.6-3.3 4.9-5.8v-1.5c-9.1-2.1-7 9.7-14.3 11.6 0 10-12.1 1.2-13.4 9.7 2.5 2.4 4.6-1.5 6.7-1.8 2.5 3.6-3.6 8.8-5.7 12.1-1.9-0.9-4.6 0.3-6.1-1.8 4.8-4.3 0.9-10.6 3-15.8 8.2-9.1 10-17.9 20.1-26.8l-1.3-0.6 2.5-1.8c-1.8 4.9-7.6 11.3-8.8 17.9 5.7-6 15.8-17.3 13.9-26.4-4.2-2.1-7.3 2.4-10.6 3.7-11.8 8.2-10.3 27.6-26.7 26.7l-1.8 1.8c-4-6.4 8.5-14 4.5-21.6 1.8-1.2 1.8-2.7 2.8-4.2-1.3-0.9-3.4 0.6-4.3 2.1v0.9h-1.8c0-8.8 12.1-17.3 11.2-26.7-4.5-0.9-8.5 6.4-11.5 9.4-1.2-1.5-4.6-2.4-7-1.5-7.9 2.7-5.2 14-14.3 11.5-5.7 7-18.2 7-20.9 17.7-17 14.5-37.1 31-51 44.9-4.6 8.9-13.4 14.9-20.7 22.2 0-2.7 6.1-7.9 8.2-11.5l-0.9-0.9c-9.4 6-14.9 14.6-22.5 22.8 6.4 0.6 13.7-1.6 18.6-6.7-0.7 4.8-6.7 6-9.2 10.3 3.4 2.1-2.1 6.4-2.7 9.4-7.6 4.9-14.6 14.3-18.8 21.6 7.6 4.9-5.5 10-7 15.2-2.1-2.1 0.9-5.8-3.3-6.4-4.6 19.8-29.2 30.1-37.1 51.1-5.8 5.4-13 14.9-17.9 20.6-1.8 3.7-6.7 8.5-5.8 14-10.3 3.7-11.8 15.5-18.8 22.5-12.4 18.5-28.8 32.2-40.1 50.2-24.9 29.4-45.8 60.4-63.1 91.7v6.1c-17.3 23.4-31.3 47.7-45.3 72-3.6 12.5-27.9 44.7-30.6 57.5-5.8 0-7.9 7.9-12.5 10.6 4 5.5-5.2 7-4.8 12.2-3.1 3-8.9 1.5-10.7 6.4-17 1.8-31.3-3.4-48-2.2-14.2 2.2-24.5-12.1-37-17 2.4-9.7-11.8-9.4-4.6-19.4-3.3-6.7 13.7-33.8 17.4-40.8-3.7-0.6-4.3-4.5-2.8-7.3 4.6-7.6 5.2-16.1 9.7-24.6-0.9-7.6 15.8-17.3 2.2-18.8 0-6.4 4.5-12.5 8.8-17v1.5c10.9-2.1 9.4-16.4 15.8-24.3 8.5-11.6 14.8-24.3 21.2-36.8-1.2-4.9-1.2-6.1-0.3-10.9 2.1-7.3 16.7-9.8 12.2-17.4 1.8-11.5 19.7-13.9 16.4-27-4.6-2.1-7.6-5.2-5.2-10.3 3.6-4.9 5.8-11.3 10.6-16.8-0.3 3.4-4.5 7.9-0.6 9.5 6.7-4.9 5.2-11.6 6.4-19.2 0.9-10 12.7-9.7 17.3-16.4v1.5c2.4 0 6.7-2.1 7.6-4.5l0.6-1.3c-21.6-11.5 9.7-27.6 11.2-42.2 20.4-3.9 7.6-24.3 23.1-32.8v-1.2c11.2-2.2 6.7-14.9 14.9-21 5.4-15.2 22.1-25.5 27-41 1.2-2.5 3.7-2.2 5.2-4.3l4.2 1.8c3.7-7 9.1-13 11.3-20.3 13 0.3 10-16.4 20.6-20.7 6.1-3.9-0.9-8.8 2.4-13.4 7-6 11.3-13.9 18.3-18.8 1.8 0 3.3 2.4 5.1 0 7.3-9.1 5.5-21.9 17.3-29.5-1.2-4.2 4.6-7.6 7.3-10h0.9c1.2 2.7-3 6.1-4.8 9.1 9.1-0.6 11.2-11.9 18.2-17.6-2.1-4.6 4.2-4.9 3-8.8-3.6-2.5-7 6.6-10.3 2.1-20.4 12.1-41.9 25.8-61 42.5 0.6-1.5-1-1.8-2.2-2.7-4.8 8.2-15.5 13.7-17.3 23.1-14.2 15.2-25.5 34.9-39.8 50.1-7.5 17.1-23.9 28-30.6 45.6-7.6 14.3-22.2 25.6-27 40.8-14.6 22.1-27.7 46.5-43.5 66.5-2.7 7.9-13 14.6-9.7 22.8-22.4 28.6-34.9 59.3-53.1 88.4-1.8 10.1-12.2 18.9-16.7 28.3-7.9 19.2-20.1 38-32.2 55.6l82.9-148.3c48.3-81.7 94.7-160.8 155.5-237l-1-8.5c-7.9 0.9-12.7 8.2-20.9 10 1.8 6.4-9.1 4.8-13.7 7-1.2-2.5-5.4-1.5-8.5-1.2l-11.5 11.2c0.6 1.2 1.8 0.6 2.4 0.6-8.5 4.6-14.3 10-21.5 14.9-2.8 5.8-10.1 8.8-16.7 9.4 0.9-7 11.5-7.9 14.8-14.6l-1.8-1.5c-7.9 1.5-10.9 16.7-19.1 9.7-12.2 2.5-24.3 9.5-35.5 14.9v-3c14.5-17.9 30.6-32.8 47.3-49.9l2.5 1.3c14.8-11.6 16.1-25.3 33.4-32.9 27.9-23.1 53.7-48.9 82.9-71.7 32.7-32.5 68.3-56.5 102.6-86.6 6.4-8.2 16.7-16.1 26.7-20.7 4.3-4.5 7.6-7.9 14-9.1 13.3-10.9 19.7-24.3 37-26.4v2.1c11.2-3.3 24.6-17 37.4-10.6zm904.8-97c-5.2 4.6-22.2 4.3-17.9 15.2-3.6 7.6-12.8 3.1-16.7 10.3l-0.3-4.5c-1.5 3-8.2 3.9-12.5 6.1v-3.4c5.5 3.1 7.6-9.1 12.5-4.5 4.8-1.9 12.7-0.6 13.7-7.6-2.2-1.6 0-4 0.6-5.8 7.6-3 13.6-6.1 20.6-5.8zm-147.9 17c0.6 1-0.3 1.3-0.6 1.6l-1.8-1.3zm-31.3 8.2l2.8-2.7v1.5zm-5.2 1.9c1.8 1.8 0.6 3.9-1.5 5.4-0.6-0.3-0.9-0.9-1.8-0.3 0.6 1.2 1.8-4.2 3.3-5.1zm10.6 0.6c-0.3 0.3-0.9 1.2-0.9 1.8h-1.5v-1.5zm36.4 3.6c-3.6-3.9-6.6 5.8-10 2.1 2.4-3.3 7.6-3.3 10.6-6zm-54.6 3c-2.4 6.7-11.9 5.2-14.9 11.6l-3-1.3c3.6-6 12.1-6.6 17.9-10.3zm-15.5 16.1c2.1-2.4 3.6-6.7 8.5-7.6-2.4 0.3-2.4 8.5-8.5 7.6zm119.3-17.9c0.3 2.7-7.6 1.8-3.3 5.1l2.7-0.3c-1.2 3.1-1.2 7-5.1 8.2-5.8 1.3 1.2-6.6-5.8-3.3-2.4-2.7-0.3-8.2 4.2-9.1 1.3 5.5 4.9-0.3 7.3-0.6zm-137.2 15.5c0.6 3.6-3.7 4.8-5.5 8.2-2.1 0.6-3.9-1.5-5.4 1.2 1.5 2.1 5.4 1.2 2.4 4.6 0 0.6 0.6 0.9 1.2 1.2 4.9 0.6 0-4.9 3.9-6.4 1.3 0.6 1 5.2 4.6 4.2-1.2 4.3-8.2 8.9-3.3 11.9l-0.6 0.9-2.5-5.8c-15.2 12.2-27.9 28.3-46.1 30.4 5.1-8.2 19.4-8.8 20.9-18.5 3.1-6.4 20.1-7.3 11.6-14.3l-3.4-3.3-1.2 0.6c3.3-7 15.2-9.1 22.2-14.6h1.2zm116.3-8.5l-6.7 3.6c2.4 0.6 3.3 4.9 7 1.8l1.2 2.2c-4.6 11.2-18.2 9.7-27 15.2 10.3-5.5 17.6-13.4 22.4-23.4 1 0.3 2.2-0.6 3.1 0.6zm-95.7 17.6l0.3-5.5 3.1 2.2zm-55.3 8.8c0.6 3.6 0.3 11.2-6.7 11.2-1.2-1.5 0.6-4.2-3.3-2.7-3 4.5-7 7-11.5 8.8-4.3 4.9-10.7 11.2-14.3 11.5 2.7-2.1 1.5-5.4 2.4-7.9-1.8-1.5-4.5 1-4.8 2.8-2.8 1.8 2.1 4.2-2.8 3.3 0-0.6 0.6-1.5 0.9-1.5-3-1.2-6 2.1-9.4 3-0.6-8.5 11.3-2.4 12.5-10.3 3.9-0.9 10 3.7 11.5-2.7 2.4 1.5 5.8-0.9 7.3-3.1-1.8-3.3 2.7-2.4 4.2-3.6 4.9-2.1 8.2-7.9 14-8.8zm178.6-7.6c-3.1-0.9-1.9 2.4-3.4 3.3l-9.1 4.9c0.6-3.4 7-7.3 11.5-10.7 1 0.3 1 1.6 1 2.5zm-44.7 17.6c0.9-4.3 8.2-4.9 12.5-8.2-2.5 3.3-9.4 4.9-12.5 8.2zm-139.4 9.4c-3.3 1.2-6 6.7-10.3 7.9 2.2-3.6 6.1-7 10.3-7.9zm102.1 0.9c-1.8-3.9 3.9-2.7 5.1-5.1 1.6 1.8-3.6 3.3-5.1 5.1zm-174.6 25.3c-0.3 4.2-6.7 2.1-7.6 3.9l2.4-3.3-0.6-0.9 0.6 0.9 1.8-1.9-0.6-0.9c4-3.3 9.1-7.3 14.3-9.7-5.8 2.7-5.8 11.3-10.3 11.9zm29.7-10.7c1.6-2.1 4.9-2.4 6.7-0.6 1.5 0.9 1.8 2.1 1.8 3.7l-1.8 1.5c-3-0.3-3-4.6-6.1-1.5-2.7 10.9-16.4 9.4-22.7 18.8-3.4 1.5-7.3 3.7-10.7 5.5-6-1.5 1.3-4.6-0.3-7.6 8.5-7.9 24.6-7.3 27.7-20.1l3.3-2.1zm24.3-5.2c1.8 1.5 0 4.9-2.4 5.2-0.9-0.3-1.2 0.3-1.8 0.9v-2.4h-5.8v-2.5c2.7 2.8 6.7-0.6 10-1.2zm78-4.2c-3.6 2.7-6.6 7.3-11.5 7.9-3.9-1.2 0.3-4 0.6-5.8 2.4-3.3 10.3-6.1 10.9-2.1zm82.3-10.1c-2.4 3.1 2.1 5.5-3.3 7-2.7-3.3-4.9 5.8-6.7 0.9-0.9 4.9-4.6 11.6-10.6 12.2l9.1-8.2c-4.6 0.3-2.1-5.2-2.7-6.4 6.6-0.9 6.6-7.3 14.2-5.5zm-123 16.8c3.1 4.8-4.2 4.5-7.5 6.9-3.4 4-11.6 7-8.2 12.5-2.5 0.3-4.3 2.7-7.3 2.4 0-0.9-0.3-1.8 0.9-2.7-1.8-1.2-4.3 0.3-6.1 2.4 4.6 7-4.5 3.4-7.3 6.7-10 6.7-18.2 14-29.4 15.8-4 1.8-4 8.2-8.5 6.4-4.3 4.9-9.7 4.9-13.7 10.3 0.9 0.6 0.9 1.6 1.2 2.5l-1.8 1.5c0.3-0.9-1.2-1.2-1.8-2.1-7.3 2.1-7.6 12.4-15.5 14.2-0.9 2.2-1.2 4.3-1.2 6.1 1.5 2.5 4.2 0.3 4.2 3.4 8.2-9.2 22.2-11.3 33.7-18.6 2.5 2.8-0.6 7-0.6 8.8-6-1.2-12.1 8.2-17.9 3.4-3.6 2.4-8.5 2.7-11.5 6.7 1.8 2.1 0.3 5.7-2.5 6.4h-1.8v-2.2c-4.5-0.6-5.1 6.1-8.5 8.5-0.9-1.2-4.2-7-7.9-2.1l10-10.3c-2.7-2.2-5.7-1.2-6.6-4.9l5.7-9.1-5.4-1.2 3.3-5.2-4.2-0.3 2.4-8.2c-0.3 2.4 6.1 0 8.5 1.5 1.2-0.3 0.6-1.5 0.6-2.4 7-10 20.6-12.5 28.5-21.6 7-0.9 12.8-7.3 19.5-7.3 1.2-5.8 9.4-3.6 13.6-7 7.3-15.2 24.6-7 34.3-19.1 4.6 1.8 5.8-1.8 8.8-2.1zm106.3-10.7c-5.7 0.9-3.6 7-7.9 9.1 0-2.4 3.7-4.2 1.2-6.3l-2.4 0.3c3.1-0.7 5.8-4.3 9.1-3.1zm-210.1 28.3v2.1c-1.5-0.3-1.8 1.2-2.4 1.8l0.3-6c1.5-0.3 2.1 1.5 2.1 2.1zm222.9-22.5l-3.7 0.3c1.2-1.2 2.5-2.7 3.7-3zm-106.6 12.4l1.2-2.1v2.1zm-123 14c-0.9 5.8-7.9 8.2-12.4 11.5-1.8-3.3-3-3.9 1.2-6 4.9 0.3 5.8-6.7 11.2-5.5zm168.6-14.9h-0.6v-2.1h0.6zm-65.3 7c0.9 0.9-0.6 2.1-1.2 1.8l-2.8 0.3c0.3-0.9 2.2-2.1 4-2.1zm62.8-4.9c-1.8 3.7-5.7 3.7-9.1 4.9 1.5-1.6 6.7-7.9 9.1-4.9zm32.5 0.3c1.2 0 0.6 3 0.9 4.6-0.9 2.1-6.6 3.9-3.3 6.7l-2.1-2.2c-0.3 0.9-1.6 0.9-2.5 0.9 3.4-3.6-0.3-7.9 3.4-11.2l1.5 3zm-192.8 20.4c-2.1 2.7-4.6 7.3-8.5 9.4l-1.2-1.5-11.9 12.2c-9.4-4 2.5-9.2 4-13.4 7 0 9.7-8.8 17.6-6.7zm-23.7 5.8c-1.2 1.5-2.4 1.8-4.3 2.1v-3.3zm-36.1 17.6c-2.4-4-3.6 3-6.7 2.4v-1.5l23.4-16.4c-1.5 4.5-11.8 13.1-16.7 15.5zm23.4-11.9c1.5 1.5-0.6 2.2-2.4 3.4v-3.4zm151.5-4.2c3.6-6.1 10.6-7 16.7-11.9-0.3 7.3-13.4 5.2-16.7 11.9zm-158.2 8.8c1.2 2.4-2.4 2.4-3.4 3.6-0.3-2.1 1.9-4.2 3.4-3.6zm15.5 1.5c-3.4 6.4-7 15.2-15.5 17.6-0.3-1.5 0.3-3-0.9-3.9-5.5 1.5-2.8 7.9-8.5 8.5l-0.6-0.6-11.9 9.7c1.8-6.7-7-2.1-5.1-8.8 1.5-3 4.8-1.8 6.6-0.6 6.7-6.4 17-8.5 21.6-16.1 3.9-3.4 9.4-8.2 14.3-5.8zm180.6-14.6c-0.3 1.5-3.3 1.2-4.8 1.5 1.2-2.1 1.2-2.7 0.6-4.8 1.8 0 3.9 1.8 4.2 3.3zm-81.9 7.3c-1.9 1.8-4.3 4-7 4.6l0.9-2.8c2.4 0 4.5 0.3 5.1-2.1zm19.5 0.3l4.2-2.7c-5.4 0-0.3 9.1-4.2 2.7zm-167.9 22.2c-0.9 2.1-3.7 3-5.8 3.9-2.4-3 5.2-6.3 5.8-3.9zm9.1-0.9c-3.7 5.8-10 8.2-16.1 10.9 5.1-3.3 9.7-10.3 16.1-10.9zm112.3-10c-1.8 0.3-2.7 2.1-4.2 3.3-1.2-2.1 2.4-3.3 4.2-3.3zm86.9-3.1c-1.9 0.3-5.8-0.3-7.9 1.5 0-5.1 9.7-5.1 7.9-1.5zm-37.1 3.7c1.8 1.2-1.5 3.9-3 4.2-1.5 0.3-1.8-0.9-2.8-1.2 0.4-2.7 4-2.7 5.8-3zm-71.9 15.5h-0.7l3.4-7.6c1.2 1.8-0.9 5.4-2.7 7.6zm80.7-4.6c-1.5-3.9 6.1-5.8 9.4-8.8 1.6 0.6 5.5 1.2 6.1-2.1 0 5.7-9.4 8.2-15.5 10.9zm-191.3 31.6c-0.3 6.1-7 1.5-6.7 8.5-6.3 3.7-10.9 7.3-16 11.6 1.5-3.7 0-8.2 4.2-11.3-2.7-4.2-6.7 0-10.3 1.9-4.3 7.9-14.9 11.8-19.1 19.7-10.7-0.9-7 15.2-17.4 11.9-1.5 3-6.9-1.6-9.4 3.6l-1.5 1.5v-3.9c18.2-10.1 28.3-32.2 49.2-37.4 4.3-5.5 13.1-7.3 16.7-12.8 10.6-1.2 11.8-11.8 21.9-14.6-0.9 7-6.7 14.3-11.6 21.3zm153.4-19.4c-1.2-0.6-4.9-0.6-3.4-2.5 1.2-1.2 3.1-2.7 4.3-1.8 3.6-7 10.9-9.4 17.6-13.7l2.4 1.9zm-117.2-0.3c-3 0.9-2.7 4.5-6.1 5.1 0.6-1.5 3.1-4.8 6.1-5.1zm-51.6 9.7c0 1.2-1.8 2.4-2.4 3.3-2.2-0.3 0.9-3.6 2.4-3.3zm191.9-4.9c0 1.5-1.5 2.4-2.4 3.7h-9.4c-2.8-2.2 4.8-4.9 0-6.7 2.1-3.4 5.7-1.5 8.5-0.9-0.7 2.4 0.9 3.9 3.3 3.9zm-42.5 1.8v-2.4l1.8-0.3zm-151.5 20.4l1.5-3.1 1.5-0.3zm137.3-12.4l7-4.3-5.8 4.6zm-7.3 4.8l1.5-2.1 1.5-0.3zm-1.5 13.4c-5.4-1.2-6.4 6.4-11.8 6.7-5.5 3.6-8.8 10.9-14.9 11.5 0-2.1 0.9-3.6 2.4-4.9l1.2 1c12.2-10.4 26.8-25.6 43.8-32zm-179.2 7.9l-1.8-1.8 4.2 0.3zm140-13.7c-2.7 4-5.7 7.3-9.4 11.6 1.2-3.7 0.3-7.6 5.2-10.6l-0.9-0.3 4.2-3.7c1.2-0.3 0.6 2.1 0.9 3zm-141.8 15.9c0.6 1.8-1.8 2.7-2.4 4.2-3.6-0.9-0.9-5.8 2.4-4.2zm169.8-17.4l-2.5 2.8zm-56.1 11.5c0.9-2.1 1.8-2.1 3.6-3.3-0.9 0.9-0.6 3.9-3.6 3.3zm-72 7.6v-2.4l1.5-0.3zm115.4-13.1c-2.4 5.8-8.8 10.6-14.9 11.6 1.5-4.3 8.8-8.6 14.9-11.6zm44.3 0c0 10-13 9.1-19.4 14.6 7-3 7.9-17.9 19.4-14.6zm3.7 15.2l2.4-2.4c-2.4 0-3.9-1.9-3.3-4.3 3.9-3.9 7.6-8.5 12.7-10.6-7.9 4.5-4.8 12.7-11.8 17.3zm-72.9 4.6c-0.9-3.1-3-5.5-0.3-8.5l2.4-0.4zm-122.3 16.8c3.6-1.6-0.7-6.1 4.2-6.7 1.2 1.8-1.5 5.4-4.2 6.7zm79.2 0c-3.6-3.1 7.9-7 4.9-12.2l3.3-2.7c1.8 3.9-2.4 11.8-8.2 14.9zm-102-1.6c-5.8 0.7-7 7-9.1 11l-16.1 11.8c1.8-10.6 12.7-16.7 20.6-23.1 1.9 0 3.7-0.9 4.6 0.3zm140-14.5c0.6 2.7-3.4 2.7-4.3 4.8 0.6 0.3 1.2 0.6 1.2 1.5-0.9 0-1.5-0.3-1.8-0.6 0.6-2.1 1.5-5.7 4.9-5.7zm7.9 8.2c-0.7-0.6-1-1.3-1.9-0.6 1.2-4.6 3.7-6.7 7.6-9.2 0.9 4-5.1 5.5-5.7 9.8zm-726.7 71.4c1.3 1.8-1.8 2.1-2.7 3.3-0.3 0 0.6-3.6 2.7-3.3zm695.1-64.1c-6.4 0.6-11.3 10.3-16.7 13-5.2-6.7 7.6-8.5 11.8-14 4-2.1 2.8-8.5 7.3-6.3zm-743.3 75.9c-1.8 1.3-1.8 4-0.9 4.9-4.9 0.6-7.3 0.9-10.9-1.8 3.3-1.8 8.8-4.9 11.8-3.1zm39.2 0.6l-0.6 0.4 2.1-5.8c0.6 0 0.3 3.6-1.5 5.4zm317.6-32.2c-1.5 0-2.8-1.5-4.3-0.9-1.5-2.7 1.5-0.9 2.5-2.7 0.6 0.6 2.4 2.1 1.8 3.6zm407.5-24v-3.9c1.2 0 1.5-1.2 2.4-1.9-0.9-2.4-4-0.6-2.7-4.2 2.7 2.1 3-0.3 5.1 3.3 6.1-4.2 7-8.2 13.7-11.5-3.7 6.7-12.5 13.4-18.5 18.2zm-730 68.4c-0.3-0.9-1.8-0.9-2.4-0.9-2.8 2.7-2.1 5.5-5.8 6.1 1.8-2.2 5.8-5.2 4.6-8.8l8.5-2.5c-0.6 2.5-1.6 5.8-4.9 6.1zm-42.2 1.8c-2.4 3.4-5.5 8.5-10 8.8 0-1.8-0.6-3.6-2.8-6-1.2 0-1.8 1.2-2.4 1.8 1.8-7.6 11.3-1.8 15.2-4.6zm10.9 1.9c-3.3 4.8-7.6 12.4-12.4 12.4-2.4 0.9-1.8-1.5-2.7-2.4 4.2-4.6 10.3-6.4 15.1-10zm643.1-65.1c1 2.7-0.9 4.9-4.2 4.3 0.3-1.9 1.2-5.2 4.2-4.3zm-408.1 43.8c-1.2 0.9-0.6 2.4-0.9 3.9l-1.2 0.3c-0.9-2.1 0-4.5 2.1-4.2zm498.3-48l0.3 5.4c-2.1 4-6 6.1-9.4 7.9 0.6 1.6 2.4 0.3 3.4 0.6 5.4-3.9 10.6-9.1 5.7-13.9zm-379.2 42.2c-0.3 0.9 0.9 2.4-1.2 3.3h-0.9v-3.6c0.6 0.3 1.2 0.9 2.1 0.3zm66.5 0.6l-2.5 1.2 0.7 2.5c-1.3 0.3-1.9-1-2.5-1.6 1.2-2.7 0.9-6.6 3.4-7.9 2.4 0.3 1.2 4.3 0.9 5.8zm-457.9 42.9c0.3 1.2-0.3 1.2-0.6 1.8h-1.5v-1.5zm670.4-65.1c-3 3.7-6.4 6.7-10.9 8.2l-1.9-3-6.6 3c3-5.4 8.8-10.9 14.8-13 4.6 0.3-2.1 7 4.6 4.8zm92.6-14.3l-2.4 1.9zm-53.2 11.5l-3.6-0.3c-0.9-2.1 0.6-5.2 3.3-5.2zm31.6 2.5l-9.4 7.9c-7-2.5 2.4-8.2 1.5-12.5l4.9-4.5c4.8 2.4-5.5 9.1 3 9.1zm-111.4 9.4c-1.2-3 2.4-5.2 3.6-6.7zm93.2-12.4l-0.6 0.3 1.6-2.5c-1 0.3-1 1.5-1 2.2zm85.1-11.3l-2.8 1.8zm-761.2 83.3c-0.3 0.3-0.6 0.9-1.5 0.9v-2.1zm540.8-49.9l6.3-7.6v2.2zm-581.4 55.9c-0.6 3.3 4.8 2.7 5.4 2.4l-4.2 2.8c-0.6-1.3-1.8-4-5.2-2.5v-2.1zm40.1 0c-3.6 4.6-10 8.5-14.9 12.8-0.3-3.4 5.8-8.2 7-12.5 2.7-0.3 5.5 2.4 7.9-0.3zm638.3-61.4c-1.9-3.6 2.7-1.5 3-4.2 0.9 1.8 0.3 5.1-3 4.2zm-305.2 50.5c-4.9 4.8-6.7 10.3-11.8 15.5 0-0.9 0.3-1.3 0.9-1.9l-1.9-1.5-1.2 0.6c-1.5-7.9 12.8-7 13.4-15.8 2.7-5.8 2.7-14.6 11.5-17 1.5 8.2-8.2 12.8-10.9 20.1zm394.4-53.2h-1.2c2.1-3.4 5.5-6.4 10-7.9-2.1 4.2-6 4.8-8.8 7.9zm-337.6 30.4c-0.6 3.3-5.5 5.7-5.8 9.1 0.6-1.8 2.4-7.3 5.8-9.1zm-458.5 50.4l2.7-1.5v1.2zm71.1-4.5l2.4-4.6v2.1zm523.2-53.5l3.9-6.3-3.3 5.7zm37-7.6c-0.6 6.4-8.2 11.6-14.3 14 1-6.4 9.5-9.1 14.3-14zm-588.4 78.4c-6.4 0.6-0.3 4.3-3.7 7.3-4.5 8.2-14.2 14-15.8 23.4-6.3 2.8-5.4 10.4-9.4 15.2l-11.8 10.4c-0.6-9.5 14.9-16.8 15.8-27.1 9.1-13.4 18.8-27.9 29.4-39.5l1.8 1.5 5.8-7c-0.3 8.2-13.3 8.2-12.1 15.8zm391.7-54.7c-2.2 1.3-4 6.1-7.3 5.2 0.9-2.4 2.7-7.3 7.3-5.2zm251.4-15.5h-0.9c-1.6-3.9 3-8.2 5.7-12.1 2.5 3.3-3 8.2-4.8 12.1zm132.1-24.6l-4.9 4.6zm-484 74.7c-0.9-3.9 1.2-10.3 3.9-14.9l8.2-7.2c1.3 7.2-4.2 16.1-12.1 22.1zm452.7-63.8c-3.3 3.7 4 6.4-2.4 7.9 0-0.9 0.3-2.1-0.6-2.1-3 7-11.9 11.8-17.6 15.8-1.2-2.7 1.5-4.9 3.3-6.4 6.1-2.1 7-8.8 13.4-12.4l-4.3 0.3c3.1-1 4.6-6.4 8.2-3.1zm22.2-3.9c-2.4 1.2-1.2 3.6-4 4.2-0.6-1.8 1.9-4.2 4-4.2zm-226.5 26.1c0.3 4 0.6 9.7-4 11.2-1.2-3.6 1.2-8.5 4-11.2zm142.4-11.2l1.8-2.5v2.5zm-112.6 12.7c-1 1.5-2.5 0.6-3.7 1.2l2.7-3.6c1.3 0.6 1 1.5 1 2.4zm-190.4 48.7c-4-11.3 10.9-14.9 12.1-25.3l2.4-2.7c0.3 9.4-8.5 19.1-14.5 28zm217.7-45.3l-5.2 4.5-1.5-1.5 5.5-6.7c1.8 0.3 0.9 2.5 1.2 3.7zm-34 1.2c-3.4 4.8-9.1 14.9-16.4 16.1 1.8-6.7 11.8-11.6 16.4-16.1zm2.1 14.6c-4.9 6-11.2 10-17 13.3-0.3-4.5-6.4-3.3-8.5-5.1 0-1.5 2.1-3.1 3-4.3 0 3.7 3.4 5.8 7.9 5.2 3.1-2.7 6.7-9.1 10.3-7.9 2.5-2.1 6.1-4.6 5.5-7.9l-0.6-0.3-6.1 4.2c2.2-0.9 3.1-9.7 8.2-11.2 4.3 4.5 0.6 10.3-2.7 14zm75.3-9.5c-1.2-1.5 1.2-2.1 2.4-4.2 2.5 0.9-0.3 3.9-2.4 4.2zm-329.1 31.7c0.6 3.9 4.5 3.3 6.6 5.4-3 8.5-6.9 14.9-16.7 18.9h-1.8c6.7-8.2 0.3-19.5 11.9-24.3zm83.2-5.8c0.3 1.5 0 4.5-2.5 5.8-0.3-3.1-2.4-5.5 2.5-5.8zm-103.6 14c-2.7 3.6-2.4 7.6-4.8 11.2 1.8 0.9 4.2-1.8 5.7-3.6 1.2 3-3.6 4.5-3.9 7.6h-1.8l0.6-3.4-8.5 5.5c3-6.4 7.6-12.8 12.7-17.3zm69.5-2.8c0.3 1.2-1.2 1.9-1.5 2.8l-1.5 0.3c-1.2-2.5 1.2-4.9 3-3.1zm175.9-16.1l0.6-3 0.3 2.1zm-34 3.7c-0.3 2.1-4 3.6-4.3 5.7-0.9-0.9 1.5-5.4 4.3-5.7zm-143.4 18.8c-0.9 0.9-1.8 2.1-3 1.8l0.3-3.9c1.2 0.9 3.6 0 2.7 2.1zm355.3-35l-3.6 2.8 1.5-4c0 1.2 2.1 0 2.1 1.2zm-192.8 28c-4.6-3.9 3.9-4.6 4.2-8.2 2.2 3.3-3.6 5.5-4.2 8.2zm208-24.9c-1.2-2.1 1.8-4 3-4.9-0.9 2.2 0 4.6-3 4.9zm-460.3 46.2l-1.6 2.4zm68.1-1.2l4.2-2.7c-1.8 7-7 17.3-16.4 21.5 0.3-4.8 5.5-9.1 5.8-13-5.5 0.3-6.4 5.7-9.4 8.8 0-4.6 0.9-11.6 7.6-14.9 4.8 0.6 4.2-6.1 8.8-6.4 0.6 2.7-3.1 4.9-0.6 6.7zm-253.6 35.6c4.3-6.1 9.4-12.8 17.9-15.2-3.6 6.6-11.5 10.6-17.9 15.2zm622.8-79.1c-0.3 4.3-11.3 6.7-4.9 10.1-0.9 1.2-2.7 1.2-3.3 2.7l-2.4-1.2c-2.5 1.5-3.4 4.8-5.2 6.1 3.9-6.4 8.2-14.6 15.8-17.7zm-486.1 56.9h-1.9l2.5-4.3c2.7 1.2-0.9 2.7-0.6 4.3zm-114.5 16.1l6.1-6.4-1.9 3zm192.5-21.5c4.3 3.6-4.5 8.5-1.5 12.7-1.5 0.9-3.3 4-5.4 1.8-1 3.4-8.2 7.3-3.1 9.8-1.2 4.2-3.3-2.2-6.7 1.5l-11.8 12.8c5.8-13.1 17.9-25 21.3-38.6 2.7-4.3 6.6-4.9 11.2-5.2zm-27 4.5c1.8 7.3-13.1 11.6-12.5 19.2h-1.8c-5.8 9.4-10.9 20.4-20.7 27 2.5-17 22.2-32.5 27.1-51 3.9 0 6.7 1.5 7.9 4.8zm-61.1 7.3l2.5-3.3v2.4zm154.5-18.5l-1.8 4.9zm-189.2 21.8c0.6 5.8-7.6 8.5-10 12.8-10.3 9.1-25.2 12.5-29.1 25.5-8.5 7-19.2 10.7-26.8 18.9 0-3.4 6.1-2.8 6.7-5.8l18.8-21.3 3.1 0.9c7.6-9.4 16.7-18.5 27.3-25.2l0.6 2.7c3.4-2.1 2.7-12.1 9.4-8.5zm-102 11.9c0.3 1.5-0.9 2.7-1.5 4.2-1.8 0.3-4.9 0.3-3.7-1.8-1.8-3 3.7-5.1 5.2-2.4zm301.2-32.8h0.9v3.3h-0.6zm-173.1 27.1l-0.3 0.9-0.3-3.1c0.9 0 0.6 1.2 0.6 2.2zm165.5-19.5c0.3 0.9-1.2 1.5-1.8 2.4-2.1-0.3 0.6-2.4 1.8-2.4zm-410.5 53.5c-3.3 7.9-14.9 13.1-13.1 22.5-4.2 2.1-8.5 4.2-12.7 5.8-1.2-0.3-0.6-1.6-0.9-2.2 7.9-2.4 5.1-11.5 11.5-14.3 4.3-7.2 7.9-17.6 16.1-21.2 0.6 2.7-3 6.1-0.9 9.4zm723.9-75.1c2.7-2.4 5.8-4.5 8.5-7.3-1.8 3.1-10.3 8.5-9.7 13.7l-3.7 3.4c0.9-7.6-3-11.3 6.4-17.1 1.2 0.3-5.8 5.2-1.5 7.3zm-177.3 12.2c-1 2.1-1.6 2.7-3.7 3.6-0.3-1.5 1.8-3.6 3.7-3.6zm-312.2 39.5l1.5-5.2 3.4-0.3zm263.5-31.9c0.3 0.9-1.2 1.8-0.6 3.1l-1.2-2.5zm-275.4 40.7c1.2-5.4 5.8-5.7 10.3-8.2zm171.3-24.9l-1.8 3.4zm306.6-15.2l-8.8 9.4v-2.4l-6 4.5c2.1-2.4 3.3-5.8 1.5-8.5 8.8-7.9 18.2-16.1 28.5-21.6-2.7 5.8-13.3 11.3-15.2 18.6zm-212.5 9.7c-2.1 5.8-7.3 8.5-11.5 14l-2.5-2.2c4.3-4.2 8.2-8.8 14-11.8zm-134.5 16.7c0 0.9-4 0.9-2.4 3.3l0.6 1-2.5 2.4c0-2.1-3.6-4.9-0.3-7.3 1.8 0.3 3.4-0.9 4.6 0.6zm173.1-9.4c-4.3-0.6 1.5-4.3 0.9-6.1l2.7-0.9c0.6 2.7-1.2 5.5-3.6 7zm-165.8 11.5c-9.1 14-13.7 30.7-28 43.2 7-12.5 11.9-28.9 21.3-41.6h1.8c0 0.6-0.3 1.8 0.6 2.4 3.1-0.6 1.8-3.7 4.3-4zm37.6-2.1c-0.6-0.9-4.5 0-2.4-1.5h2.4zm-6.7 7.6l1-3.4 1.5 1.3zm276.6-27.1l-6.1 0.6 3.4-5.8c2.7 1.3 4.8 2.2 2.7 5.2zm-606.4 69.3c0.6 1.2-0.9 2.1-1.8 3-2.1-0.6 0.6-3 1.8-3zm-89.3 12.5c-7.8 13.9-17.3 27.3-23.6 41.3-3.1 1.8-5.2 4.9-7.6 7-2.8-5.8 6.3-8.8 6.3-15.2 6.7-5.8 6.1-15.2 15.8-20.4-3-3.6 6.7-7.6 5.8-12.7zm686.8-67.5l3.4-2.7c-6.4 15.5-36.8 24.6-21.9 41.9l1.2-2.4c0.9 0.9-1.2 6.7-4.2 7.3h-1.5c4.8-6.7-5.2-7-0.3-13.1-4.3-1.5-8.2 5.2-11.9 2.4 4.3-2.4 4.3-13.3 13.1-13l5.7-8.3 1 0.4c3.3-7 9.1-11.3 14.8-17.7 0.3-0.3-1.5 3.7 0.6 5.2zm-203.7 20.4l0.6-2.8v2.1zm174.6-20.6c0.6 5.5 0.6 13.4-8.2 14.9l-4.3 0.3c6.1-3.7 7.6-11.9 12.5-15.2zm-359.5 45l-5.2 3 4.3-7.9c1.8 0 2.4 3.3 0.9 4.9zm-321.6 36.7l3.4-5.7-1.8 3.9zm213.7-19.1c0 4.5-5.8 7-7.6 10.9l-2.4 0.3c1.2-4.2 7.6-8.2 8.8-11.8zm-222.9 34l1.5-3v1.5zm188.3-21c0.9 1.8-1.5 3.3-3 4-2.2-2.5-0.3-2.8 1.8-4.9 0.3 0 0.6 0.3 1.2 0.9zm515.3-45.9l-1.5 0.3 9.1-10.6c3 4.2-4.6 7.9-7.6 10.3zm-385 38c-3.4 5.8-7.3 12.2-12.5 16.7l-1.8-1.5c5.8-6.1 7.9-13.7 10.9-20.4 4.3-0.6 4.6 3.1 3.4 5.2zm404.4-46.2c0 0.9 0.6 2.4-0.9 3l-0.9-3zm-309.7 34.3c1.2 4.6-4.9 3.7-6.7 7.3-2.1 6.1-9.4 11.6-6.4 18l-2.4-2.2c-0.6 0.7-2.1 1.3-1.8 2.5l1.8 1.2-12.5 18.5c1-0.9-0.6-12.7 8.2-13.3 2.2-3.1 2.8-7.6 2.2-10.4 5.4-7.9 8.5-17 16.7-22.8zm73.1-4.8c-0.9 0-2.1 0.3-2.4 1.2-0.6-1.2 0-5.2 2.4-5.2zm192.9-10.9c-6.4 1.5-10.1 8.2-16.1 10 0.9-7 8.5-14.9 16.7-17.3 1.5 1.8 1.5 5.2-0.6 7.3zm-487.7 58.9l2.4-3.9v1.5zm426-29.5c-3 7.6-9.7 12.2-14.8 17.7l-2.5-2.2c7.3-5.7 9.8-13.3 17.3-16.4l15.8-18.2c3.1 8.8-10.6 13.4-15.8 19.1zm-617 49.6c-2.1 6.7-7.8 12.1-11.5 18.2-2.4-6.1 6.7-11.2 8.2-17.3 1.2 0.6 1.8-0.9 3.3-0.9zm302.2-31.6c2.4 3.9-5.2 8.5-2.2 11.8-8.8 5.2-14.2 14.9-13.9 24.6-5.5 9.4-19.8 18-16.4 28.9-1.8 3.3-2.1 8.5-7.6 10.3 0.6-18.5 19.7-33.4 25.8-49.2-1.8-8.5 12.8-16.1 12.8-26.1zm134.5 7.3l-3.4 0.3c4.6-6.1 6.7-11 13.1-15.2 0.9 6-7.3 9.7-9.7 14.9zm-97.5 21.8c0.9-5.4 4.9-11.8 8.2-17.9 2.4 7.6-4.9 12.5-8.2 17.9zm327.9-48.3l-1.5 3.4zm-679.2 72c-2.8 4.8-3.7 10.3-9.4 13.7l-3.1-1.3c8.2-0.3 4-11.5 12.5-12.4zm679.5-67.5c0 2.4-3.9 5.2-7.6 7.9l3.7-3.9c-0.6-0.6-3.1-2.2-0.9-3.4l2.4 2.2zm-24.6 13.3c-0.6-3.3 4.2-7.6 7.6-10zm15.5-4c0.6 3.4-4 3.4-5.2 6.1-1.5 0-3.3-0.3-4.2 1.2h0.9v1.6h-0.6c0-4.6-5.5 3-3.4-2.8l11.3-10.6-1.6 5.2zm-294.2 32.8l3-5.2c1.3 1.8-1.8 2.7-3 5.2zm-404.4 71.7c-1.3 0-0.6-2.1-0.6-3.3 1.2 0 2.4-1.3 2.4-2.8-2.1-6.1 7-7 8.2-12.4-0.3 5.7-6.1 13.3-10 18.5zm-18.6 7.6l-9.1 16.4zm14.3-0.9c-3.3 7-5.8 15.5-13.1 20.7l-0.9-0.3c5.5-3.7 10.4-13.7 11.6-20.1zm630.3-47.1l-0.3-3 1.8-0.3zm-653.4 71.1l5.8-5.2-1.5 4zm9.1 0.6c-6.7 11.8-12.2 24.3-19.5 36.1 0.9-3.6 4.3-10.6 3.1-15.8l-6.7 6.1c0.6-5.5 4.9-12.8 11.5-18.2 7.3 5.4 7.6-6.1 11.6-8.2zm-28 25.5l4.6-9.1-3.3 7.3zm31.2 3c0.3 4-3.9 5.8-5.7 8.5 1.2-0.9 2.4-7 5.7-8.5zm-25.5 11.9c-2.1 3-1.5 7.9-6.7 9.7 1.3-3.4 4.6-6.7 6.7-9.7zm-21.5 13l-3.4 6.7zm24.9 4.3l5.5-7.6-4.3 6zm-16.7 22.8l14.9-20.6-7.6 11.2zm-7.9-7.6c2.8 2.8-1.2 6.4-3.3 7.9h-1.5c4.5-2.7 0-6.7 4.8-7.9zm5.2 11l-11.2 17.6zm17 3.6c1.5 1.3-0.6 2.5-2.5 3.4l-1.8 0.3c1.8-1.2 3-3.1 4.3-3.7zm-53.8 10.4l-7.6 13.3zm21.6 18c4.5-7 9.7-14.9 16.7-21-3.7 7-11.6 14.6-16.7 21zm2.1 20.6c-3.3 2.5-7 0-7.9-2.4l5.8-7.9c0.9 3 2.4 6.4 2.1 10.3zm780.4-993.2c19.7 4.6-3.4 37.7 24.3 23.8-4.3 5.4 0.9 10.9-7.9 13.3v0.9c8.5-0.6 20.3-6.3 29.7-3 1.5 2.4-2.7 4.9-5.1 6.1-1 0.9-1.3 1.2-1.3 2.1h6.4l-6.4 6.4 6.4 0.6c0.3 1.8-1.2 3-2.1 4.2 3.6 1.9 8.5 1 11.2-3.3 0.6 2.1 3.1 0.9 4.3 1.2 0.6 4.9-4.9 7.6-9.1 7.9-5.2-1.8-8.2 3.1-12.5 4.3-1.5 1.8 0.9 5.4 3.4 5.8 3.9-0.4 7.9-3.7 11.8-0.7l-8.8 3.1c9.7 4.2-5.5 18.5 8.2 14l2.1 7.3c1.2-1.3 4-1 5.8-1 0.3 1.3-1.5 2.2-0.9 4l7.3 1.2c-7.3 20.1-26.8 31.3-42.9 45.9 5.2 4.3-0.9 8.8-2.1 13.1-21.2 20-48.3 30.1-71.9 45.9-10.7-7.6-19.2 11.8-30.4 13l-4.3-7.3c-7.8 1.3-19.4 1.3-26.4 8.5 3.1 3.7 0 6.1-1.2 10.1-7.6 10.6-14-4.6-22.2 3-0.6 5.2-6.6 7-10.3 8.8l-15.2-0.9v-3c8.5 0 15.8-3.1 20.4-9.4-6.7-5.2-13.4 8.8-20.4 2.1-3 0.3-6 3.9-8.8 0.9 0.9-3-1.2-8.2-4.2-11.3h-2.1c-1.3-4.8 7.9-9.7 0-12.4l-15.2 2.7c-2.5-3.6 0.9-8.2 2.1-11.8h-10.3c-0.9-11.6 12.4-7 17.6-12.2-13.7-4.5 15.5-21.3-8.2-15.2h-3c-2.2-3.3 3-7.9 1.8-11.2 4.5-3.1 7.3 6.4 10.3 0 2.1-4 0.9-9.1 1.2-13.4-5.4 2.7-1.5-12.8-10-5.8 0.9-4.2 17.6-5.4 7.3-13 9.4-3.1 1.5-14.9 11.8-15.2 4.6-7.6 11.6-11 18.9-16.4v-20.4c5.1-6.4 21.5-4.9 16-16.1 4-1.2 11.3-2.8 11.3-9.4-3.7-3.1-9.7 3-14 5.1-5.5 0.3-7.3 0.9-12.1 2.2 16.1-9.8 32.2-20.7 47.6-32.9l-1.2-0.9-29.1 14c22.7-16.1 53.1-34.9 81.3-51.7h-9.4c12.2 1.6 24.6-11.8 37.1-4.2 6.7 8.2 19.1 8.2 23.4 20.6zm29.1 39.3c0.3 0.9-0.6 1.2-0.9 1.5h-2.7c-2.2-1.2 2.4-4.6 3.6-1.5zm-170.6 0.9c-3.7 2.1-7.3 7-13.1 5.1 0.3 1.2 7.6-6.4 13.1-5.1zm-23.4 13l-10 6.4c-3.4-3.3 1.2-5.5 3.6-7.3 2.1 0 4.9-0.9 6.4 0.9zm3 66.3c0.3 1.5-1.2 2.1-2.1 3l-0.9-3zm-30.7 57.1c0.6 0.9-0.3 1.2-0.9 1.8h-2.1c-1.2-1.8 2.1-4.2 3-1.8zm78.4 56.9c-6.4 3.3-13.1 11.2-20.4 12.4 0.6-7.6-7.6 2.4-6.1-6.4 10.1-4.2 16.1-2.7 26.5-6z"/>
</svg>