<svg version="1.2" xmlns="http://www.w3.org/2000/svg" viewBox="0 0 1503 252" width="1503" height="252">
	<title>logo_black-svg</title>
	<style>
		.s0 { fill: #ffffff } 
	</style>
	<path id="Layer" fill-rule="evenodd" class="s0" d="m1444.6 157l58.3 69.5-32.3 25.5-70.8-86.4v80.7h-43v-237.8l43-7.6v154.5l64.7-87.3 32 22.3zm-1417.7-155.2v244.5h-26.9v-238.4zm77.9 71.7l21.1 15.6-55.4 68.9 64.1 76.1-21.2 16.6-74.6-91.4zm144.5 75.5v-13.7c0-26.5-11.9-37-34.3-37-15.7 0-33.4 4.8-47.1 11.2l-8-18.8c17-9.6 37.4-15.3 55.7-15.3 40.1 0 59.6 19.1 59.6 61.2v109.6h-19.9l-3.2-18.5c-16.6 13.4-38.1 21-55.1 21-29.8 0-47.7-17.8-47.7-47.8 0-34.1 23.1-51.9 66.3-51.9zm0 18.8h-30.1c-30.4 0-44.2 10.2-44.2 31.8 0 17.6 9.6 27.5 26.9 27.5 15.7 0 36.2-8.3 47.4-19.2 0 0 0-40.1 0-40.1zm178.8-94.3l21.1 15.6-55.4 68.8 64.1 76.2-21.2 16.5-74.6-91.4c0 0 66-85.7 66-85.7zm-77.9 172.7h-26.9v-238.4l26.9-6zm222.4-97.2v-13.7c0-26.5-11.9-37-34.3-37-15.7 0-33.3 4.8-47.1 11.1l-8-18.8c17-9.5 37.5-15.3 55.7-15.3 40.1 0 59.6 19.2 59.6 61.2v109.6h-19.8l-3.2-18.4c-16.7 13.4-38.2 21-55.1 21-29.8 0-47.8-17.9-47.8-47.8 0-34.1 23.1-51.9 66.3-51.9zm0 18.8h-30.1c-30.4 0-44.2 10.2-44.2 31.8 0 17.5 9.6 27.4 26.9 27.4 15.7 0 36.2-8.2 47.4-19.1zm139.4 81.6c-46.8 0-75-30.9-75-86.7 0-56.1 28.5-87.3 75-87.3 46.8 0 75 31.2 75 87.3 0 55.8-27.9 86.7-75 86.7zm0-22c29.8 0 47.1-22.3 47.1-64.7 0-42.4-17.3-65.3-47.1-65.3-29.8 0-47.1 22.9-47.1 65.3 0 42.4 17.3 64.7 47.1 64.7zm115-218.9l42.9-7.7v83.2q4.4-2.6 9-4.7 4.6-2 9.5-3.4 4.9-1.3 9.9-2 5-0.7 10.1-0.7c45.5 0 66.6 30.9 66.6 84.7 0 58.3-32 93.1-85.2 93.1-24.7 0-50.9-4.8-62.8-9.9zm42.9 209.4q2 0.2 3.9 0.4 1.9 0.2 3.8 0.4 1.9 0.1 3.9 0.1 1.9 0.1 3.8 0c26.9 0 46.2-16.9 46.2-59.9 0-32.5-8.1-51.3-38.5-51.3-9.6 0-17.9 2.2-23.1 3.8zm222.7-73.9q0 0 0 0v-5.7c0-18.5-5.8-29-31.1-29q-5.9-0.1-11.8 0.6-5.9 0.7-11.6 2.1-5.8 1.4-11.3 3.5-5.5 2.1-10.8 4.9l-11.8-29.3c16.3-11.1 40.4-17.9 62.5-17.9 43.2 0 66 21.1 66 64.7v108.4h-30.2l-4.8-14.4c-17.3 13.4-35.9 18.8-50.9 18.8-33 0-51.3-19.4-51.3-52.8 0-35.4 24.4-53.9 70.2-53.9 0 0 26.9 0 26.9 0zm0 27.4h-23.1c-23 0-35.2 9.3-35.2 26.1 0 12.1 7.1 20.1 21.1 20.1 14.8 0 29.5-6.7 37.2-13.4zm78.5-93h30.4l6.4 16.9c15.1-13.4 35.9-22 53.9-22 37.8 0 56.7 23.2 56.7 65.3v107.7h-42.9v-109c0-18.8-7.1-26.7-29.8-26.7-9 0-21.8 2.5-31.8 6.3v129.4h-42.9z"/>
</svg>