<svg version="1.2" xmlns="http://www.w3.org/2000/svg" viewBox="0 0 1517 417" width="1517" height="417">
	<title>uj-logo-svg</title>
	<style>
		.s0 { fill: #ffffff } 
	</style>
	<g id="#e94729ff">
		<path id="Layer" class="s0" d="m44.6 0h47.8c-6.1 8.9-11.6 18.2-15.3 28.3-13.5 33 2.8 69.1-8.7 102.6-13.8 0-27.6 0-41.4 0.3 8.8-18 9.9-38.2 5.3-57.5-5.7-25.1 0.2-51.3 12.3-73.7zm-20.4 147q34.1 0 68.2 0c0.1 50.1 0 100 0 150q30.1 0 60.1 0c0.1-49.6 0-99.4 0.1-149.1q32.7 0 65.4 0c0 47 0.1 94.1 0 141.1-14.9 0-29.9 0-44.8 0 0 11.9-0.1 23.7-0.1 35.6-42 0-84 0-126.1 0 0-11.8-0.1-23.5-0.1-35.3q-23.4 0-46.9 0v-1.8c8.2-46.8 16.1-93.7 24.2-140.5z"/>
	</g>
	<g id="#f18e31ff">
		<path id="Layer" class="s0" d="m125 72c-3-25.7 8.8-49.7 21.1-71.4 14.9 2.3 29.8 5.1 44.6 8.3-14.5 19.6-26.6 42.6-25.3 67.7 1 19.3-2.5 38.6-12.3 55.3-13.3-0.4-26.6-0.5-39.9-0.6 8.1-18.6 14-38.7 11.8-59.3z"/>
	</g>
	<g id="#fcdd38ff">
		<path id="Layer" class="s0" d="m198.3 131.1c29.2-31.7 22.2-83.3 59.5-109.3 10.2 8.8 20.3 17.6 30.5 26.4-12.4 11-24.4 23.8-27.9 40.5-3.2 15.9-11 30.2-21.7 42.3-13.5-0.1-26.9-0.2-40.4 0.1z"/>
	</g>
	<g id="#7bbe4bff">
		<path id="Layer" class="s0" d="m233.3 176.5c30.9-11.4 41.1-48.5 73.7-57 0.2 15.9 0.2 31.8 0.1 47.7-27.7 13.1-41.1 47-73.7 51.1-0.2-13.9-0.1-27.9-0.1-41.8z"/>
	</g>
	<g id="#2f3030ff">
		<path id="Layer" fill-rule="evenodd" class="s0" d="m391.2 144.4c15.9-0.1 31.7-0.1 47.6 0 0 34.8-0.1 69.7-0.1 104.5 0.1 14.1 1.9 30.5 13.9 39.8 12.4 10 32.5 7.3 41.6-5.7 8.4-11.1 8.2-25.7 8.4-38.9-0.2-33.3-0.2-66.5-0.1-99.8q23.7 0 47.5 0.1c-0.1 36.3 0.2 72.7 0 109.2 0.2 18.7-5.2 38.8-20.2 51.1-19.2 16.1-45.9 18.8-70.1 17.2-22.1-1.4-46.2-9.4-58.5-29.1-9.5-14.4-10-32.2-10.1-48.8 0.2-33.2 0.1-66.5 0.1-99.6zm171.7 42.2c1-19.1 13.4-41.8 34.9-42.1 38.3-0.9 76.6 0.4 115 0.1q0 13.5 0 27c-30.2 0.5-60.3-1-90.3 1.3-13.9 9.3-15.1 33.7-2.8 44.8 21.7 6.5 45.5-1.9 67.4 4.6 23.1 9.7 27.5 38.6 24.6 60.6-1.6 19.2-15.5 40.6-36.9 39.4-37.5 0.7-75-0.5-112.5-0.1q0-13.5 0-26.9c26.5-0.1 52.9-0.2 79.3-0.3 24.1 3.1 28.5-33.9 13.4-46.4-22-5.2-45.2 2.1-67.1-4.1-22.1-9.2-27.1-36.5-25-57.9zm162.7-42.2c47.9-0.1 95.7 0 143.5-0.1q0 13.8 0 27.6c-31.7 0-63.5-0.1-95.3 0q0 19.2 0 38.5c27 0 54-0.1 81 0 0 9.4 0 18.7 0 28.1-27.3 0-54.6 0-81.8 0-0.7 19.4-1.2 46.3 21.3 53.6 24.2 5.6 49.4 1.3 73.9 2.6 0.1 9.2 0.1 18.5 0.1 27.8-26.2-0.4-52.5 0.7-78.6-0.4-36.7-2.3-62-39.2-63.8-73.6-0.9-34.7 0-69.4-0.3-104.1zm152.2 0c50.5-0.1 100.9-0.1 151.4 0 1.3 34.3 0.5 75.1-30.1 97.5 23.8 19.5 31 51.1 30.7 80.5-16 0.1-32.1 0.1-48.1 0.1-0.2-19.3 2.8-42.3-13.2-56.6-10.8-11-27.4-7.7-41.3-8.5 0 21.7 0 43.4 0 65.1q-24.7 0-49.3 0c-0.1-59.4 0-118.8-0.1-178.1zm49.1 27.2c0 19.2-0.1 38.6-0.2 57.8 15.9-0.7 34.4-0.4 46.4-12.6 9.2-13.2 7.5-30.1 8.4-45.2q-27.3 0-54.6 0zm216.5-27.2q24.1-0.1 48.1-0.1c-0.4 35 1.2 70-0.7 104.9-1.9 35.5-29.5 70.1-66.3 72.7-28.7 1.4-57.4 0.1-86 0.6q0-14.1 0-28.1c25.2-0.5 50.5 0.9 75.8-0.6 17.9-0.7 28.7-19 28.7-35.5 1.1-38 0.1-76 0.4-113.9zm112.6 2.6c26.4-6.3 57.7-2.6 77.3 17.6 18.9 19.5 23 48.2 22.2 74.2-0.4 26.3-8.3 55.4-31.1 71.1-28.9 18.8-71.6 17.7-97.5-5.8-25.7-25.2-27-65.1-21.7-98.5 3.9-27.1 23.3-52.4 50.8-58.6zm13 30.2c-12.3 6-16.9 20.5-17.3 33.3-0.5 19-1.5 38.2 1.4 57.1 2.4 13.6 14.5 26.8 29.4 24.3 15.7-2.1 23.7-19.1 24-33.5 0.7-20.5 2.2-41.5-1.9-61.7-3.3-15.2-20.6-27.2-35.6-19.5zm97.2-33.1c16.2-0.1 32.4-0.1 48.6 0 0.3 20.3-2 41 2.1 61.2 3.4 16.5 25.2 29.8 39.1 16.1 20.8-19.8 9.9-52 12.5-77.3 16.2-0.1 32.3-0.1 48.5-0.1v39c-2.3 31.8-21.8 61-52.1 72.3 0 22.5 0 44.9 0 67.4-15.4 0.1-30.8 0.1-46.3 0.1 0-22.5 0-44.9 0-67.4-15.2-7.6-31.1-16.4-39.4-32.1-14.9-23.6-13.2-52.5-13-79.2z"/>
	</g>
	<g id="#0087c1ff">
		<path id="Layer" class="s0" d="m235.3 249.4c27.2-1.9 45.9-24.6 72.5-27.8-1.1 13-2.3 26-3.3 39.1-22.9 8.6-42.8 27.5-69.1 23.4 0-11.5 0-23.1-0.1-34.7zm-43 57.8q34.3 0 68.5 0 0 38.2 0 76.5-22.6 0-45.1 0-0.1 16.2-0.1 32.3h-133.7q0-14.2 0-28.4 55.2 0 110.4 0c0-26.8 0-53.6 0-80.4z"/>
	</g>
</svg>