<?xml version="1.0" encoding="UTF-8" standalone="no"?>
<svg
   class="logo logo-ateam"
   version="1.1"
   viewBox="0 0 559.949 100.72"
   enable-background="new 0 0 559.949 100.72"
   id="svg350"
   sodipodi:docname="ateasssm.svg"
   inkscape:version="1.2.1 (9c6d41e, 2022-07-14)"
   xmlns:inkscape="http://www.inkscape.org/namespaces/inkscape"
   xmlns:sodipodi="http://sodipodi.sourceforge.net/DTD/sodipodi-0.dtd"
   xmlns:xlink="http://www.w3.org/1999/xlink"
   xmlns="http://www.w3.org/2000/svg"
   xmlns:svg="http://www.w3.org/2000/svg">
  <defs
     id="defs354" />
  <sodipodi:namedview
     id="namedview352"
     pagecolor="#ffffff"
     bordercolor="#666666"
     borderopacity="1.0"
     inkscape:showpageshadow="2"
     inkscape:pageopacity="0.0"
     inkscape:pagecheckerboard="0"
     inkscape:deskcolor="#d1d1d1"
     showgrid="false"
     inkscape:zoom="1.4108428"
     inkscape:cx="279.9745"
     inkscape:cy="50.32453"
     inkscape:window-width="1309"
     inkscape:window-height="456"
     inkscape:window-x="0"
     inkscape:window-y="25"
     inkscape:window-maximized="0"
     inkscape:current-layer="svg350" />
  <g
     id="g348">
    <g
       id="g301">
      <defs
         id="defs261">
        <path
           id="logo-ateam-1"
           d="M28.726,44.89c1.215-0.817,2.628-1.674,4.077-2.476l-1.115,5.019L28.726,44.89z M11.677,39.208      l5.874,4.934c-1.746,1.729-3.237,3.251-4.424,4.535L11.677,39.208z M71.128,32.143c1.66-0.032,3.281,0.037,4.732,0.136      l-1.254,3.653L71.128,32.143z M85.184,26.022l2.639-7.215l3.576,9.133C89.639,27.235,87.4,26.619,85.184,26.022 M46.552,17.07      l8.312,8.957c-1.747,0.364-3.659,0.665-5.574,1.138c-1.863,0.46-3.698,0.928-5.365,1.44L46.552,17.07z M35.1,32.031      c-5.176,2.43-9.151,5.196-12.43,7.659L4.082,23.814l5.155,31.791l-0.529,5.496l3.957,15.647c0,0,1.192-0.578,2.235-1.078      c-2.33-5.985-2.893-12.764-1.079-15.846c1.815-3.082,5.682-7.572,9.476-10.793l5.017,4.422c1.47,1.44,3.648,2.09,5.779,1.514      c2.19-0.58,3.774-2.312,4.284-4.359l3.4-12.462c2.922-1.142,6.119-2.186,9.593-3.093c3.475-0.902,6.748-1.646,9.852-2.116      l9.172,9.087c1.477,1.525,3.705,2.223,5.897,1.643c2.135-0.569,3.688-2.217,4.241-4.196l2.139-6.349      c4.895,0.891,10.619,2.944,13.602,4.611c0,0,4.64,5.038,6.989,14.258c1.284-0.276,2.476-0.183,2.476-0.183L86.619,2.179      l-8.087,22.627c-3.999-0.452-8.988-0.586-14.192-0.105L41.976,0L35.1,32.031z" />
      </defs>
      <clipPath
         id="logo-ateam-2">
        <use
           xlink:href="#logo-ateam-1"
           overflow="visible"
           id="use263" />
      </clipPath>
      <linearGradient
         id="logo-ateam-3"
         gradientUnits="userSpaceOnUse"
         x1="-149.3421"
         y1="348.4376"
         x2="-148.342"
         y2="348.4376"
         gradientTransform="matrix(93.0733 -24.9331 -24.9331 -93.0733 22593.2344 28758.1895)">
        <stop
           offset="0"
           style="stop-color:#595758"
           id="stop266" />
        <stop
           offset="0.0056"
           style="stop-color:#595758"
           id="stop268" />
        <stop
           offset="0.0294"
           style="stop-color:#696565"
           id="stop270" />
        <stop
           offset="0.0782"
           style="stop-color:#85817F"
           id="stop272" />
        <stop
           offset="0.1319"
           style="stop-color:#9E9B99"
           id="stop274" />
        <stop
           offset="0.1914"
           style="stop-color:#B1B0AE"
           id="stop276" />
        <stop
           offset="0.2599"
           style="stop-color:#BFBFBE"
           id="stop278" />
        <stop
           offset="0.3452"
           style="stop-color:#C7C8C7"
           id="stop280" />
        <stop
           offset="0.5"
           style="stop-color:#C9CACA"
           id="stop282" />
        <stop
           offset="0.6565"
           style="stop-color:#C7C8C7"
           id="stop284" />
        <stop
           offset="0.7428"
           style="stop-color:#BFBFBE"
           id="stop286" />
        <stop
           offset="0.8121"
           style="stop-color:#B1B0AE"
           id="stop288" />
        <stop
           offset="0.8723"
           style="stop-color:#9E9B99"
           id="stop290" />
        <stop
           offset="0.9266"
           style="stop-color:#85817F"
           id="stop292" />
        <stop
           offset="0.9759"
           style="stop-color:#696565"
           id="stop294" />
        <stop
           offset="1"
           style="stop-color:#595758"
           id="stop296" />
      </linearGradient>
      <polygon
         clip-path="url(#logo-ateam-2)"
         fill="url(#logo-ateam-3)"
         points="-15.102,5.139 98.931,-25.409 124.921,71.61 10.889,102.158         "
         id="polygon299" />
    </g>
    <g
       id="g336">
      <defs
         id="defs304">
        <path
           id="logo-ateam-4"
           d="M36.665,87.568c1.603,0.157,3.972,0.294,5.753,0.313l-1.397,5.418L36.665,87.568z M85.5,76.327      c1.478-0.884,3.552-2.203,4.862-3.14l-0.91,7.139L85.5,76.327z M13.904,71.545c-0.519-0.402-1.165-1.002-1.451-1.922      c-0.65-2.08-2.639-8.184-2.639-8.184l9.572,13.013C16.43,73.127,15.171,72.519,13.904,71.545 M58.341,61.066l11.522,12.759      c-2.454,0.895-5.024,1.631-7.627,2.307c-2.609,0.688-4.946,1.187-7.48,1.67L58.341,61.066z M100.502,38.088      c0,0,1.324,5.144,1.817,7.341c0.166,0.743-0.125,1.652-0.37,2.261c-0.612,1.475-1.414,2.771-3.247,5.51L100.502,38.088z       M91.853,61.314c-2.96,2.655-7.442,5.725-12.308,8.456L52.914,40.818l-8.541,38.224c-5.378,0.268-10.945-0.154-14.937-0.996      L0,40.246c0,0,10.034,29.448,10.742,32.045c0.704,2.612,1.106,3.901,3.395,6.166c2.044,2.027,5.247,3.891,12.906,7.004      c0,0,5.056,7.693,7.37,10.94c1.972,2.772,4.635,4.435,8.497,4.312c4.337-0.125,7.689-3.403,8.568-7.679      c0.53-2.563,1.287-5.854,1.287-5.854c3.814-0.35,7.283-0.945,11.791-2.23c4.502-1.289,8.565-2.554,11.735-4.056      c0,0,2.237,2.47,3.978,4.433c2.897,3.258,7.437,4.422,11.257,2.367c3.406-1.836,4.877-4.605,5.197-7.991      c0.388-3.968,0.943-13.176,0.943-13.176c5.05-6.472,6.994-10.146,7.764-12.541c0.912-2.846,0.403-4.373-0.258-6.993      c-0.616-2.444-7.272-29.281-7.272-29.281L91.853,61.314z" />
      </defs>
      <clipPath
         id="logo-ateam-5">
        <use
           xlink:href="#logo-ateam-4"
           overflow="visible"
           id="use306" />
      </clipPath>
      <linearGradient
         id="logo-ateam-6"
         gradientUnits="userSpaceOnUse"
         x1="-149.3508"
         y1="348.5604"
         x2="-148.3511"
         y2="348.5604"
         gradientTransform="matrix(96.9765 -25.9787 -25.9787 -96.9765 23547.0332 29993.5078)">
        <stop
           offset="0"
           style="stop-color:#AF1E24"
           id="stop309" />
        <stop
           offset="0.0056"
           style="stop-color:#AF1E24"
           id="stop311" />
        <stop
           offset="0.0507"
           style="stop-color:#BA1D21"
           id="stop313" />
        <stop
           offset="0.131"
           style="stop-color:#C71A1E"
           id="stop315" />
        <stop
           offset="0.2214"
           style="stop-color:#D0181B"
           id="stop317" />
        <stop
           offset="0.3293"
           style="stop-color:#D61719"
           id="stop319" />
        <stop
           offset="0.5"
           style="stop-color:#D71718"
           id="stop321" />
        <stop
           offset="0.6727"
           style="stop-color:#D61719"
           id="stop323" />
        <stop
           offset="0.7818"
           style="stop-color:#D0181B"
           id="stop325" />
        <stop
           offset="0.8732"
           style="stop-color:#C71A1E"
           id="stop327" />
        <stop
           offset="0.9544"
           style="stop-color:#BA1D21"
           id="stop329" />
        <stop
           offset="1"
           style="stop-color:#AF1E24"
           id="stop331" />
      </linearGradient>
      <polygon
         clip-path="url(#logo-ateam-5)"
         fill="url(#logo-ateam-6)"
         points="-20.777,23.278 99.222,-8.868 127.119,95.27 7.121,127.416         "
         id="polygon334" />
    </g>
    <path
       fill="#221714"
       d="M438.979,29.9c0.264,0,0.381,0.127,0.543,0.404c0.164,0.273,31.873,55.094,31.873,55.094    c0.054,0.093,0.06,0.165,0.06,0.244c0,0.261-0.208,0.557-0.535,0.557h-17.459c-0.248,0-0.397-0.131-0.494-0.315    c-0.088-0.157-19.383-36.249-19.453-36.359c-0.094-0.142-0.233-0.3-0.499-0.3c-0.261,0-0.4,0.163-0.478,0.305    c-2.293,4.286-19.345,36.151-19.44,36.336c-0.107,0.203-0.246,0.334-0.507,0.334h-17.433c-0.382,0-0.565-0.309-0.565-0.53    c0-0.105,0.019-0.195,0.056-0.265c0,0,31.834-54.989,31.937-55.177c0.115-0.204,0.27-0.327,0.496-0.327H438.979z"
       id="path338" />
    <path
       fill="#221714"
       d="M183.058,22.108c0.241,0,0.36,0.158,0.502,0.395c0.14,0.237,37.031,62.914,37.031,62.914    c0.056,0.095,0.099,0.196,0.099,0.291c0,0.235-0.223,0.491-0.513,0.491h-20.15c-0.227,0-0.345-0.114-0.441-0.288    c-0.096-0.173-22.952-41.722-22.952-41.722c-0.06-0.106-0.197-0.256-0.427-0.256c-0.262,0-0.376,0.165-0.44,0.279    c0,0-22.867,41.558-22.943,41.697c-0.078,0.135-0.227,0.29-0.475,0.29h-20.153c-0.259,0-0.493-0.211-0.493-0.473    c0-0.108,0.025-0.181,0.087-0.285c0.063-0.106,36.932-62.734,37.052-62.931c0.14-0.228,0.277-0.403,0.537-0.403H183.058z"
       id="path340" />
    <path
       fill="#221714"
       d="M383.559,30.387c0-0.268-0.216-0.487-0.485-0.487l-61.693,0.004c-0.253,0-0.464,0.212-0.464,0.476v56.728    c0,0.257,0.211,0.467,0.464,0.461l62.44-1.334c0.264-0.004,0.472-0.221,0.472-0.473V74.395c0-0.268-0.208-0.477-0.472-0.477    h-48.052c-0.254,0-0.467-0.213-0.467-0.473v-9.209c0-0.255,0.213-0.473,0.467-0.473l43.086-0.527c0.26,0,0.471-0.217,0.471-0.477    V51.846c0-0.261-0.211-0.473-0.471-0.473h-43.086c-0.254,0-0.467-0.215-0.467-0.47v-8.22c0-0.262,0.213-0.476,0.467-0.483    l47.305,0.01c0.27,0,0.485-0.218,0.485-0.485V30.387z"
       id="path342" />
    <path
       fill="#221714"
       d="M262.8,86.2c-0.269,0-0.487-0.219-0.487-0.487l0.032-41.699c0-0.267-0.218-0.489-0.487-0.489h-25.833    c-0.267,0-0.487-0.216-0.487-0.486l0.002-12.666c0-0.26,0.212-0.467,0.468-0.467h69.563c0.262,0,0.473,0.207,0.473,0.467v12.687    c0,0.254-0.211,0.467-0.473,0.467l-25.83-0.002c-0.27,0-0.484,0.222-0.484,0.489l0.032,41.699c0,0.269-0.219,0.487-0.485,0.487    H262.8z"
       id="path344" />
    <path
       fill="#221714"
       d="M527.086,80.202c0.222,0,0.372-0.099,0.471-0.267c0,0,16.497-26.151,16.599-26.309    c0.108-0.156,0.253-0.275,0.461-0.275c0.281,0,0.563,0.178,0.566,0.566c0.004,0.293-0.257,31.742-0.257,31.742    c0,0.301,0.248,0.549,0.551,0.549h13.923c0.302,0,0.55-0.248,0.55-0.549l-0.304-55.212c0-0.302-0.246-0.55-0.55-0.55L544.64,29.9    c-0.341,0-0.645,0.177-0.777,0.392c0,0-22.405,35.654-22.549,35.88c-0.125,0.193-0.289,0.25-0.468,0.25    c-0.182,0-0.345-0.057-0.47-0.25c-0.144-0.227-22.55-35.88-22.55-35.88c-0.133-0.215-0.435-0.392-0.776-0.392l-14.456-0.004    c-0.305,0-0.55,0.248-0.55,0.55l-0.307,55.212c0,0.301,0.25,0.549,0.552,0.549h13.925c0.304,0,0.55-0.248,0.55-0.549    c0,0-0.26-31.449-0.255-31.742c0.002-0.389,0.283-0.566,0.564-0.566c0.209,0,0.354,0.119,0.461,0.275    c0.101,0.158,16.598,26.309,16.598,26.309c0.101,0.168,0.251,0.267,0.473,0.267H527.086z"
       id="path346" />
  </g>
</svg>
