<svg version="1.2" xmlns="http://www.w3.org/2000/svg" viewBox="0 0 1504 1501" width="1504" height="1501">
	<title>header_logo-svg</title>
	<style>
		.s0 { fill: #ee7700 } 
	</style>
	<g id="#ee7700ff">
		<path id="Layer" fill-rule="evenodd" class="s0" d="m627 10.9c165.1-27.2 339.6 0.5 486.1 81.8c161.1 87.8 288.2 236.6 348.1 409.9c75.6 210.6 49.1 454.6-70.3 643.9c-95.5 154.8-249.1 272.7-423.8 323.9c-101.8 32.3-210.3 34.3-315.8 24.9c-197.4-26.3-382.4-134.4-500.8-294.4c-142.1-186.3-186.9-440.9-118.6-664.8c77.7-269 318.1-481.6 595.1-525.2zm-131.6 400.7c-151.5 110.5-211.6 326.1-138.4 498.8c70.4 182.9 278.8 298.9 471.5 259c142.9-23.2 264.1-127.5 320.5-258.8c-232 0.6-464-0.7-695.8 0.6c72.9-106.6 149.1-211 221.5-317.9c158-2.6 316.1-0.4 474.1-1.1c-30.9-69.4-76.7-133-138-178.9c-145.8-115.6-368.7-116.4-515.4-1.7z" />
	</g>
</svg>