<svg version="1.2" xmlns="http://www.w3.org/2000/svg" viewBox="0 0 1512 894" width="1512" height="894">
	<title>Screenshot 202ddd2-08-24 at 15-svg</title>
	<style>
		.s0 { fill: #000000 } 
	</style>
	<g id="#1b1b1bff">
		<path id="Layer" class="s0" d="m4.6 380.8c-23.9-150.2 58.9-304.6 188.3-380.3 62.3 106.5 165.4 185.9 282.3 224.3 1.6 1.3 4.6 4.1 6.2 5.4 10-23.4 18.3-47.5 29-70.7 3.6-2 10.5-6 14-8 5.2 0.1 15.5 0.4 20.7 0.6 2.3 3.7 6.9 11.1 9.1 14.8-7.1 24.7-16.6 48.7-25.9 72.6 5.4 1.6 16.5 5 22 6.6 48.3 7.6 96.6 15.7 145.5 17 12.9-30 22.3-61.3 35-91.4 5.5-15 21.6-24.3 37.4-19.8 13.1 4.8 11.6 21.3 7.5 31.9-9.8 27.2-21.5 53.8-29.6 81.6 60 0.1 119.9-4.5 179.3-12.7 10.1-24.6 20.5-49.2 27.4-74.9 6.7-18.9 24.2-28 43.8-27.9 20.9 30.2-12.1 61.2-14.7 92.6 85.1-23.9 168.7-59.9 235.6-118.9 41-34.6 73.7-77.8 102.8-122.6 66 38.7 119.9 98 154.2 166.3 40.6 85.4 50 186.4 17.8 276.1-33 101.1-110.1 184.8-204.5 232.5-90.2 43.3-188.8 65.1-287.6 77.1-21.3 2.1-42.8 2.6-64 5.8-43.3 5.3-87.4 1-130.4 9.4-8.4 30.2-19.8 59.4-30.8 88.6-5.4 12.9-11.5 28.4-25.4 34-23.5 2.9-47.2 1.3-70.7-0.2-0.8-11.9-3.1-24.3 1.9-35.6 10.8-29.6 23.7-58.5 33-88.6-43.3-4.1-86.9-4.7-130.3-5.7-10.6 33.3-23.1 65.9-35.6 98.5-4.8 12.5-11.8 25.8-24.6 31.6-21.1 2.2-42.5 2.5-63.6 0-8.8-5.9-11.6-16.6-7.8-26.3 13.2-38.5 29-76.1 42.3-114.6-7-0.8-21-2.2-28-2.9-33-6.5-66.2-12.5-99.2-19.4-0.7 4.8-2 14.2-2.6 18.9-22.5 47.7-30 103.2-63.3 145.1-25.9-3.2-60.8 11.8-78.7-13.4 0.5-2.4 1.6-7.3 2.1-9.7 20.2-52 35.7-106.1 61.8-155.5 0.9-2.6 2.8-7.7 3.7-10.2-17.5-6.6-34.8-13.7-52.2-20.9-6-3-12-6.1-18-9.1-112.1-56.5-196.1-167.7-215.2-292z"/>
	</g>
</svg>