<svg version="1.2" xmlns="http://www.w3.org/2000/svg" viewBox="0 0 1564 906" width="1564" height="906">
	<title>edia_logo-svg</title>
	<style>
		.s0 { fill: #ffffff } 
	</style>
	<g id="#c01249ff">
		<path id="Layer" class="s0" d="m279.1 132.2c91.8-84.9 216.5-131.5 341.1-132 314.3 0 628.6 0.5 942.8 0.6-96.1 26.4-189.4 63.6-276.9 111.5-37.6 20.7-74.3 43-108.7 68.8-184.8 0.1-369.6-0.1-554.3 0.1-74.3 0.1-148.7 27.4-203.8 77.6-30.2 27.3-54.4 61.4-69.8 99.3 213.2 0 426.4-0.1 639.5 0-37 55.3-62.5 118-77.2 182.9-188-0.1-376.1-0.1-564.1 0 29 77.6 95.8 138.2 173.6 164.8 33.5 11.8 69 17.5 104.5 17.5 91.5 0.1 183 0 274.5 0 8.6 66.9 36.6 131.4 81.6 181.7-82.6 0-165.2 0-247.9 0-43.2-0.5-86.6 1.3-129.7-1.4-95.5-3.3-190.2-33.3-269.3-87.1-75.5-50.9-136.5-124.1-169.9-209.1-8.8-21.4-14.5-43.8-20.5-66.1-47.6-61.4-96.2-122.1-144.2-183.2 48.5-0.1 97 0 145.6 0 19.9-86.6 67.7-166 133.1-225.9z"/>
	</g>
</svg>