<svg version="1.2" xmlns="http://www.w3.org/2000/svg" viewBox="0 0 1549 650" width="1549" height="650">
	<title>01_BL_OR_Bahnhof_RGB-svg</title>
	<style>
		.s0 { fill: #000000 } 
		.s1 { fill: #f08d00 } 
	</style>
	<g id="Layer">
		<path id="Layer" fill-rule="evenodd" class="s0" d="m0 0h330.4c68.7 0 118.8 17.1 150.1 51.6 31.6 34.6 47.2 73.9 47.2 118q0 48.4-27.3 87.5c-18.2 26-45.4 44.1-81.6 53.9 84 20.4 126 70.9 126 151.8 0 48.4-14.9 91.6-44.6 129.7-29.7 38.1-93.3 57-190.5 57h-309.7zm183.8 247.6h93.3c23.3 0 39.9-5.6 49.5-17.3 9.7-11.5 14.4-23.9 14.4-37 0-35.5-22.4-53.2-67.4-53.2h-89.8zm97.8 257.1c24.2 0 42.1-6 53.4-17.9q16.9-17.7 16.9-40.4c0-14.9-5.4-28.8-16.5-41.4-11.2-12.5-31.2-18.7-60.7-18.7h-91.1v118.4z"/>
		<path id="Layer" class="s0" d="m870 649.7l294.4-49.4-173.3 49.4zm-323.3-65.2l595.8-75.5-546.6 128.7-67.2 12h-45.9c38.6-23 50.1-44.5 63.9-65.2zm-36.2-552.3l114-32.2 306 0.7-182.5 42.3-206.2 36.6c-5.7-14.6-25.5-41.7-31.3-47.4zm48.4 172.2l216-61.2 664-84-546.8 128.8-348.9 62.1c7-10.9 14.8-35.8 15.7-45.7zm13.7 201.3l351.4-44.4-345.6 81.2c-1.3-13.8-2.2-22.9-5.8-36.8zm379-108.5l293.9-49.2-241.9 69-329.8 46.5zm148.9 164.1l293.8-49.2-241.9 69.1-329.7 46.4z"/>
		<path id="Layer" class="s1" d="m1035.6 0h128l-33.1 9.7-329.7 46.4zm-560.9 0h73.8l-54.1 15.3c-4.6-4.4-4.4-4-19.7-15.3zm103.1 487.9l61.4-17.3 664-84-546.9 128.8-193.2 34.5c5.4-13.7 14-44.1 14.7-62zm-24.4-378.4l503.3-63.8-494.9 116.6c0.5-14.9-4.6-42.6-8.4-52.8zm-46.3 201.2l138.3-39 664.1-84-546.6 128.6-213.1 37.9c-7.7-10.9-20.4-28.6-42.7-43.5zm446.1 64.3l293.7-49.4-241.9 69-329.6 46.5zm223.2-224.6l293.6-49.4-241.9 69-329.5 46.7zm14.9-113.2l221.7-37.1h29.7l-199.4 57-329.6 46.5zm-242.6 545.6l293.8-49.2-241.9 69.1-329.5 46.4zm306.2-305.1l293.8-49.2-241.9 69-329.7 46.5z"/>
	</g>
</svg>