<svg version="1.2" xmlns="http://www.w3.org/2000/svg" viewBox="0 0 1581 349" width="1581" height="349">
	<title>pc_logo-svg</title>
	<style>
		.s0 { fill: #ffffff } 
	</style>
	<g id="pc_logo_bitmap">
		<g id="正式ロゴ">
			<g id="グループ化_1668">
				<path id="パス_3391" class="s0" d="m1121.9 99.1h63.5l-14.2 61.7h-63.5l-25.7 107.2q-0.4 2-0.1 4 0.3 2 1.2 3.8 0.9 1.8 2.3 3.2 1.4 1.4 3.2 2.3c15.2 4.8 34.2 1 51.3 1.9l-12.4 55.1c-28.4 6.6-65.4 10.4-92-2.9-4.3-2.2-8.4-5-12-8.3-3.6-3.4-6.7-7.2-9.3-11.3-2.6-4.2-4.6-8.7-5.9-13.4-1.4-4.7-2.1-9.5-2.2-14.4v-15.2l60.7-265.7h75zm245.6 31.3c6.7 13.3 1.9 31.3-0.9 44.6h-65.5q0.7-2.6 1-5.3 0.2-2.6 0-5.3-0.3-2.7-1-5.3-0.7-2.5-1.9-5c-6.6-9.5-19.9-8.5-30.3-7.6q-2.8 0.4-5.4 1.6-2.7 1.1-4.9 2.8-2.2 1.8-4 4-1.7 2.3-2.8 4.9-0.4 1.8-0.5 3.7-0.1 1.8 0.1 3.6 0.3 1.8 0.9 3.6 0.5 1.7 1.4 3.4c28.5 32.2 93 34.1 92 89.2-1.9 28.4-13.2 58.8-41.7 71.1-28.5 12.4-78.7 12.4-112.9 2.9-3.9-1.1-7.7-2.6-11.3-4.5-3.6-1.9-6.9-4.2-10-6.8-3.1-2.6-5.9-5.5-8.4-8.7-2.5-3.3-4.6-6.7-6.4-10.4-8.5-17.1-0.9-38.9 3.8-56.9h68.3c-0.9 9.5-6.6 20.9-0.9 30.3 5.7 9.5 20.9 9.5 31.3 7.6q2.4-0.4 4.7-1.4 2.3-1.1 4.1-2.7 1.9-1.7 3.3-3.8 1.4-2 2.1-4.4 0.7-1.9 0.9-3.9 0.2-2 0-3.9-0.3-2-1-3.9-0.7-1.8-1.8-3.5c-23.7-23.7-58.8-30.4-80.6-57.9-21.8-27.5-7.6-60.7 10.4-83.5 32.3-34.2 87.3-30.4 130-20.9 4.2 1 8.2 2.5 12.1 4.4 3.9 1.9 7.5 4.3 10.8 7.1 3.3 2.8 6.2 6 8.7 9.5 2.6 3.5 4.7 7.3 6.3 11.3zm158.5 206.9q-13.4 1.7-26.7 2.9-13.4 1.2-26.8 1.7-13.5 0.6-26.9 0.7-13.4 0-26.8-0.5c-5.4 0.4-10.8 0.1-16.2-0.9-5.3-1-10.4-2.7-15.3-5-4.9-2.3-9.5-5.3-13.6-8.8-4.1-3.5-7.8-7.5-10.9-11.9q-3-5.1-5.1-10.7-2-5.5-3-11.4-0.9-5.8-0.8-11.7 0.1-6 1.3-11.8l38.9-171.8h75.9l-37 166.1q-0.5 1.7-0.4 3.4 0 1.7 0.5 3.3 0.5 1.7 1.5 3.1 0.9 1.4 2.2 2.6c6.6 5.7 27.5 2.8 27.5 2.8l40.8-181.3h75z"/>
				<path id="パス_3389" class="s0" d="m234 14.7c5.2 3 9.8 6.7 13.9 11 4.1 4.3 7.6 9.1 10.4 14.4 2.7 5.2 4.7 10.9 5.9 16.7 1.2 5.8 1.6 11.7 1.1 17.7q-0.7 5.1-1.6 10.3-0.9 5.1-2 10.2-1.1 5.1-2.3 10.2-1.2 5-2.6 10.1h-76.8c0.9-6.7 3.7-14.3 4.7-21.8q0.6-2.5 0.5-5.1 0-2.5-0.6-5-0.6-2.5-1.8-4.7-1.2-2.3-2.8-4.2c-3.4-2.2-6.9-4-10.6-5.4-3.8-1.3-7.6-2.3-11.5-2.8-4-0.4-8-0.5-11.9-0.1-3.9 0.4-7.8 1.3-11.6 2.6-3 1.4-5.7 3.2-8.2 5.4-2.4 2.3-4.4 4.9-6 7.8-1.7 2.8-2.8 6-3.4 9.2-0.7 3.2-0.8 6.6-0.4 9.8 1.9 20 30.4 32.3 38.9 38 28.5 19 77.8 39.8 76.8 84.4 0.4 8.3 0.1 16.5-0.9 24.7-0.9 8.2-2.6 16.3-4.9 24.2-2.4 7.9-5.4 15.6-9 23-3.6 7.4-7.9 14.4-12.7 21.1-34.1 37.1-90.1 34.2-138.5 30.4-23.7-4.7-49.3-14.2-58.8-37-9.5-22.8-7.6-58.8 1-85.4h74c-2.9 13.3-14.3 40.8 5.7 53.1 3.5 2.2 7.4 3.8 11.4 4.9 4.1 1.1 8.2 1.6 12.4 1.5 4.2-0.1 8.3-0.8 12.3-2 4-1.2 7.8-3 11.3-5.3 3-2.7 5.7-5.9 7.8-9.3 2.2-3.5 3.8-7.3 4.9-11.2 1.1-3.9 1.6-8 1.6-12.1-0.1-4.1-0.8-8.1-2-12-3.8-12.4-16.1-18-25.6-24.7-24.7-17.1-53.1-32.3-73-55.1-19.9-22.7-12.4-84.4 9.4-112.9 21.9-28.5 81.6-40.7 131-37.9q5.8 0.5 11.6 1.6 5.7 1.1 11.3 2.8 5.6 1.7 11 3.9 5.5 2.2 10.6 5zm138.5-6.7l-19.9 90.2c54.1 0 83.5-5.7 99.6 24.7q1.2 3.4 1.9 6.9 0.8 3.6 1 7.2 0.3 3.6 0 7.2-0.3 3.6-1 7.2-19.9 93.9-42.7 187.8h-75.8l36-162.2q0.5-2.3 0.5-4.5-0.1-2.3-0.9-4.5-0.8-2.1-2.1-4-1.4-1.8-3.2-3.2c-2.9-2.8-26.6-1.9-26.6-1.9l-42.7 180.3h-74l36.1-161.3 38.9-169.9zm211.5 1l-14.2 60.7h-75l14.3-60.7zm-20.9 90.1l-55 241.1h-75l56-241.1z"/>
				<path id="パス_3394" class="s0" d="m830.7 7.1c-12.4 41.7-22.8 85.4-35.1 125.3l20.8-125.3zm19 0c-11.3 40.8-22.8 86.3-36 126.2l20.8-126.2zm17.1 0c-12.3 39.8-21.8 85.4-35.1 125.3 5.7-40.9 12.4-84.5 20.9-125.3zm-70.2 0c-13.3 40.8-21.8 86.3-36.1 125.3 6.7-39.9 13.3-84.5 20.9-125.3zm17.1 0c-12.3 40.8-22.8 85.4-36.1 126.2 6.7-40.8 14.3-85.4 21.9-125.3zm-92.1 92.1c4 0.2 7.9 1.1 11.6 2.6 3.6 1.5 7.1 3.5 10.1 6.1 3.1 2.5 5.7 5.5 7.8 8.9 2.1 3.3 3.7 7 4.7 10.8q0.7 2 1.1 4 0.5 2 0.7 4 0.3 2 0.3 4.1 0 2-0.2 4.1l-123.3 9.5 119.5 9.4-123.3 9.5 119.5 10.5-124.3 9.5 14.3 1.9-35.1 146.1h-75.9l55-241zm-1.9 240.1h-83.5l32.3-144.3 75.9 6.7c0 0-16.1 93-24.7 137.6z"/>
				<path id="パス_3390" class="s0" d="m1041.2 66.9h-106.2l-17.1 73h83.5l-13.3 61.7h-84.4l-17.1 75h110.1l-14.3 62.7h-188.7c12.3-45.6 38.9-139.5 38.9-139.5l126.1-9.5-117.6-9.6 124.2-9.4-121.4-9.5 125.3-9.5-121.5-10.5 22.8-133.8h185zm-250.5 272.4h-14.2l37-130zm-53.1 0h-15.2c0 0 23.7-90.2 36.1-131-5.7 42.7-13.3 89.2-20.9 131zm35.1 0h-14.2c10.4-43.7 23.7-88.3 37-131-6.7 43.7-15.2 89.2-22.8 131zm-18 0h-14.3c9.5-42.7 23.8-87.3 37-131z"/>
			</g>
		</g>
	</g>
</svg>