<svg version="1.2" xmlns="http://www.w3.org/2000/svg" viewBox="0 0 1374 1543" width="1374" height="1543">
	<title>plaid-logo_red-svg</title>
	<style>
		.s0 { fill: #9a1e23 } 
		.s1 { fill: #c0364d } 
		.s2 { fill: #7c181d } 
		.s3 { fill: #641014 } 
	</style>
	<g id="レイヤー_2">
		<g id="plaid_yoko">
			<g id="plaid_yoko-2">
				<path id="Layer" class="s0" d="m681.9 508.5c-20.7 10.3-41.9 19.7-63.5 28.2-21.6 8.5-43.6 15.9-65.8 22.4-22.3 6.6-44.8 12.1-67.6 16.6-22.7 4.5-45.7 8-68.7 10.4l-73-72.8 171.7-171.5z"/>
				<path id="Layer" class="s1" d="m1373.3 513.4l-343.3 686.4-171.7-171.6 515-514.8"/>
				<path id="Layer" class="s2" d="m1030 856.6l-171.7 171.5-171.7-171.5-270.3-270.3c23-2.4 46-5.9 68.7-10.4 22.7-4.6 45.3-10.1 67.5-16.6 22.3-6.5 44.2-14 65.8-22.5 21.6-8.4 42.7-17.9 63.5-28.2z"/>
				<path id="Layer" class="s0" d="m686.6 1543l-171.6-171.6 171.6-171.6 171.7-171.6 171.7 171.6-343.4 343.2z"/>
				<path id="Layer" class="s2" d="m171.7 685l514.9 514.8-171.6 171.6-515-514.8 171.7-171.6"/>
				<path id="Layer" class="s3" d="m686.6 856.9l171.7 171.5-171.7 171.4-514.9-514.8 96.7-96.7q18.5 1 37 1.4 18.5 0.4 37 0.1 18.5-0.2 36.9-1.1 18.5-0.9 37-2.4z"/>
				<path id="Layer" class="s1" d="m1373.3 514.7c-27.5-13.9-55.8-26.3-84.7-36.9-28.9-10.7-58.4-19.6-88.4-26.8-30-7.2-60.3-12.7-90.9-16.4-30.6-3.6-61.4-5.5-92.2-5.6-29 0.5-57.8 2.6-86.6 6.3-28.7 3.6-57.2 8.8-85.3 15.5-28.2 6.7-55.9 14.9-83.2 24.6-27.3 9.6-54 20.8-80.1 33.3l-166.9-165.5 343.3-343.2z"/>
				<path id="Layer" class="s2" d="m416.3 586.3q-18.4 2.1-36.9 3.3-18.5 1.2-37 1.5-18.5 0.2-37.1-0.5-18.5-0.7-36.9-2.3l74.9-74.9z"/>
				<path id="Layer" class="s1" d="m515 341.8l-246.6 246.5c-23.3-1.6-46.6-4.5-69.6-8.4-23.1-4-45.9-9.2-68.4-15.5-22.5-6.2-44.7-13.7-66.5-22.2-21.8-8.5-43.1-18.1-63.9-28.8l343.3-343.2c0 0.2 171.7 171.6 171.7 171.6z"/>
				<path id="Layer" class="s1" d="m0 513.4l171.7 171.6-171.7 171.6v-343.2"/>
				<path id="Layer" class="s0" d="m64.1 541.8c21.8 8.4 44 15.7 66.5 22 22.5 6.3 45.3 11.5 68.3 15.5 23 4.1 46.2 7 69.5 8.9l-96.7 96.7-171.7-171.5c20.9 10.5 42.3 20 64.1 28.4z"/>
				<path id="Layer" class="s0" d="m1109.3 433.4c30.6 3.6 60.9 9.1 90.9 16.3 30 7.2 59.5 16.2 88.4 26.8 28.9 10.7 57.2 23 84.7 36.9l-343.3 343.2-348.1-348c25.9-12.8 52.6-24.2 79.9-34.1 27.2-9.9 55-18.2 83.1-25.1 28.2-6.8 56.7-12 85.5-15.6 28.8-3.7 57.7-5.7 86.7-6.2 30.8 0.2 61.6 2.1 92.2 5.8z"/>
			</g>
		</g>
	</g>
</svg>