<svg version="1.2" xmlns="http://www.w3.org/2000/svg" viewBox="0 0 1527 1101" width="1527" height="1101">
	<title>coly_logo-b-svg</title>
	<style>
		.s0 { fill: #ffffff } 
		.s1 { fill: #8ec31e } 
	</style>
	<g id="#231815ff">
		<path id="Layer" class="s0" d="m45.6 0h620c24.6 10.7 52.5 28.7 52.8 58.7 1.9 66.7 0.2 133.4 0.4 200.1-80.9 1.8-161.9 1.2-242.9 0.3-2.1-11-4.2-22-6.3-33-81.2-1.1-162.4-0.7-243.7-0.3-0.6 216.5-0.5 433 0 649.5 81.6 1.3 163.3 1.1 244.8 0.1 1.3-14.8 2.7-29.5 4.1-44.2 81.4 0.1 162.7-0.2 244 0.2 0.6 62.3 0 124.6 0.6 186.9 0 20.8 0.3 44.8-16.1 60.4-16.9 18.5-43.2 22.1-66.9 21.6-192.5-0.9-385 0.4-577.5-0.7-28.1 1.2-47.8-21.5-58.9-44.6v-1007.6c9.5-20.6 26.4-36 45.6-47.4z"/>
	</g>
	<g id="#8ec31eff">
		<path id="Layer" class="s1" d="m860.2 0h621c17.1 9.7 36.4 20.7 42 41 5.7 22.6 2.8 46.3 3.4 69.3-0.2 296-0.2 591.9 0 888-0.7 22.4 2.8 46-5.2 67.5-8.6 21.9-31.9 34.7-54.9 33.8-192.6 0.3-385.3-0.2-577.9 0.3-17-0.2-36-0.8-49-13.2-16.1-13.7-19.3-35.8-19-55.7 0.2-66.6 0.1-133.2 0.2-199.8 78.1 0.2 156.1 0.5 234.2-0.2 0.2 15 0.7 30.1 0.9 45 82.3 0.4 164.6 0.5 246.9 0q0.3-325.3 0-650.5c-82-0.1-164.1-0.2-246.2 0-0.7 11.2-1.7 22.5-2.2 33.7-77.8-0.9-155.7-0.4-233.6-0.2-0.2-58.3 0.2-116.6-0.3-174.9 0.4-16.4-0.8-33.5 5.2-49.2 6.5-15.8 21.9-24.6 34.5-34.9z"/>
	</g>
</svg>