<svg version="1.2" xmlns="http://www.w3.org/2000/svg" viewBox="0 0 1570 365" width="1570" height="365">
	<title>-1-svg</title>
	<style>
		.s0 { fill: #8fc320 } 
	</style>
	<path id="Layer" fill-rule="evenodd" class="s0" d="m623.9 254.9c0 5.7-1.2 8.6-2.9 10.3c-1.2 1.7-2.9 2.3-4.6 2.3c-2.3 0-4.6-1.7-5.7-4c-1.7-3.5-2.3-5.2-2.9-5.8c-0.6-0.5-0.6-0.5-1.1-0.5c-0.6 0-1.2 0.5-1.2 0.5c-4.6 6.9-23.5 33.3-34.9 48.7l-0.6 1.2c-12.6 17.2-42.9 56.7-97.3 56.7h-5.8c-9.1 0-55.5-2.3-84.7-38.4c-16.6-21.2-24.1-32.6-28.1-39.5c-4-6.3-5.2-8.6-9.2-10.3c-3.4-1.7-6.8-2.3-10.3-2.3c-4.6-0.6-9.1-0.6-12-5.7c0 0-1.1-1.8-0.6-4.6c0.6-2.3 2.3-4.6 5.2-5.8c1.1-0.5 2.8-1.1 5.1-1.1c8.6 0 21.8 5.7 25.8 7.4c0.6 0.6 1.2 0.6 1.7 1.2c29.8 14.9 69.3 19.5 96.8 21.2c5.7 0.6 11.5 0.6 16.6 0.6c40.7 0 73.3-9.2 102.5-28.1c12.1-9.2 16.7-14.9 17.2-16c0-1.2 1.2-5.8 4-8.6c1.8-1.8 4.6-2.9 6.9-2.9c2.9 0 5.2 1.1 8 2.9c8.6 5.7 12.1 10.8 12.1 20.6zm-152.4 50.4c-0.6 16.6 2.3 33.2 3.4 41.2c11.5-0.6 22.4-4 32.1-8.6c4.6-17.2 4-29.8 3.5-36.6c-12.1 2.3-25.2 3.4-39 4zm-17.7-0.6c-12.6-0.6-23-1.1-32.1-2.3c1.1 7.5 4 21.2 9.7 35.5c12.6 5.2 22.9 6.9 27.5 7.5c-3.4-16.6-4.6-31.5-5.1-40.7zm-41.3 24.1c-5.1-11.5-6.9-22.4-8-28.7c-12-2.3-19.5-5.1-23.5-6.8c6.9 16.6 18.9 27.4 31.5 35.5zm154.1-44.7c-10.3 5.7-23.5 10.9-39 14.3c1.2 10.3-0.5 21.2-2.3 28.6c20.7-14.8 35-33.7 41.3-42.9z" />
	<path id="Layer" fill-rule="evenodd" class="s0" d="m1566.6 100.2c0 0-12.1 56.7-80.8 108.3c-32.1 24-48.7 20-48.7 20c-5.7 0-10.3-1.7-14.9-5.1c-4.5-3.5-8-8.6-10.8-14.9c-1.2-1.7-1.8-3.4-2.3-5.2c-4 3.5-8.1 6.9-12.1 9.8c-3.4 1.7-6.8 4-10.3 6.3c-3.4 2.3-7.4 4-11.4 5.7c-4 1.7-8 2.9-12.6 4c-4.6 1.2-8.6 1.7-13.2 1.7c-6.9 0-13.2-1.7-18.3-4c-5.2-2.8-9.8-6.3-13.2-10.3c-0.6-1.1-1.7-2.3-2.3-3.4l-0.6 0.5c-2.8 2.3-6.3 4.6-9.1 6.9c-2.9 2.3-6.3 4.6-9.8 6.3c-3.4 1.7-7.4 3.5-10.8 4.6c-3.5 1.1-7.5 1.7-11.5 1.7q-6 0-10.3-8.6c-2.9-5.7-4-14.3-4-25.7c0-4.6 0.6-9.2 1.1-14.4c0.6-5.1 1.2-10.8 2.3-16.6h-1.7l-29.2 57.9c-1.7 2.8-3.4 5.1-5.2 6.3c-1.7 1.1-4 1.7-6.3 1.7c-2.8 0-5.7-0.6-7.4-1.7c-1.7-1.2-2.9-2.9-4-5.2c-0.6-2.3-1.2-4.6-1.7-7.4v-1.2c-1.8 1.7-4 4-6.3 5.8c-3.5 2.8-7.5 5.7-11.5 7.4c-4 1.7-8 2.9-12 2.9c-4.6 0-8.6-1.2-12-4.6q-5.2-5.2-8.6-13.8c-1.8 2.3-3.5 4-6.3 6.3c-2.9 2.3-5.8 4-8.6 5.8c-3.5 1.7-6.3 2.8-9.8 4c-2.8 1.1-6.3 1.7-9.7 1.7c-3.4 0-6.9-0.6-10.3-2.3c-3.4-1.7-6.3-3.4-9.2-6.3c-1.7-1.7-2.8-3.4-4-5.7c-0.6 0-1.7 0.5-2.3 1.1c-2.8 1.7-5.7 2.9-8.6 4.6c-2.8 1.7-6.3 2.9-9.1 4c-3.5 1.2-6.3 2.3-9.2 2.9c-2.9 0.5-5.7 1.1-8 1.1c-4 0-8-1.7-11.5-5.1c-3.4-3.5-6.8-8.6-9.1-14.4c-2.3-5.7-4-12.6-5.8-20.6c-1.7-8-2.2-16-2.2-24.6c0-6.9 0.5-13.7 1.7-21.8l1.7-12l-1.7 1.7c-5.8 6.3-13.2 11.5-22.4 16.1c-9.1 4.5-20 8-32 9.7c0 5.7-0.6 10.9-0.6 15.5v18.9q0 8.6-1.7 17.1q-1.7 8.6-5.2 17.2c-2.3 5.8-5.1 10.9-8 16.1c-3.4 5.1-6.9 9.1-10.9 13.1c-4 4-8.6 6.9-13.7 9.2c-5.2 2.3-10.9 3.4-16.6 3.4q-9.5 0-17.2-5.1c-5.2-3.5-9.2-7.5-13.2-13.2c-4-5.7-6.9-12-9.7-19.5c-2.3-7.4-4.6-14.9-6.3-22.9c-1.2-6.8-2.3-13.7-2.9-20.6c-1.1 0.6-1.7 1.2-2.9 1.7c-2.2 1.7-5.1 2.9-8 4.6c-2.3 1.2-5.7 2.3-8.6 3.4c-2.8 1.2-5.7 1.8-9.1 1.8q-8.6 0-13.8-3.5c-3.4-2.3-6.3-5.1-8.6-9.1c-1.7-4-3.4-8.1-4.5-12.6c-1.2-4.6-2.3-9.8-2.9-14.4h-1.7l-19.5 57.3c-1.1 2.9-1.7 5.7-2.9 7.5c-1.1 1.7-1.7 3.4-2.8 4.5c-1.2 1.8-2.3 2.3-3.5 2.9c-1.1 0-2.8 0.6-4 0.6c-2.8 0-5.7-0.6-7.4-1.7c-2.3-1.2-3.5-2.9-4.6-5.2c-1.1-2.3-1.7-4.6-2.3-7.4c-0.6-1.2-0.6-2.9-0.6-4c-0.5 0-0.5 0.5-1.1 0.5q-4.3 3.5-10.3 6.9c-4 2.3-8 4.6-12 6.3c-4.1 2.3-8.1 3.4-12.6 4.6q-6.9 1.7-13.8 1.7q-11.2 0-18.9-3.4c-5.7-2.9-10.3-5.8-13.7-10.3c-2.3-2.3-4-4.6-5.2-7.5c-2.3 1.7-5.1 3.4-7.4 5.2c-2.3 1.7-4.6 2.8-7.5 4.5c-2.8 1.8-5.7 2.9-8 4.1c-2.3 1.1-5.2 2.2-7.4 2.8c0.5 1.7 0.5 2.9 1.1 4.6c1.7 9.2 0.6 14.3-5.2 22.9c-2.8 4-8 7.5-10.3 6.3l-1.1-1.1c-1.7-1.8 0-6.3 1.7-8.6c3.4-5.2 4.6-11.5 3.4-17.2c-1.1-5.7-4.5-10.9-9.7-14.3c-4-2.9-9.2-4.6-14.3-4h-0.6c-5.7 0.5-11.4 2.8-15.4 4.5c-1.8 1.2-2.9 1.8-4.6 2.9c-2.9 1.7-5.8 2.9-8.6 4c-9.8 5.7-20.1 9.2-30.4 9.2c-2.3 0-5.1 0-8-0.6c-14.3-2.3-26.9-10.3-36.1-21.8l-2.8 2.3c-2.9 2.9-5.8 5.2-9.2 7.5c-2.9 2.3-6.3 4.6-9.7 6.3c-3.5 1.7-6.9 3.4-10.9 4.6q-6 1.7-12 1.7c-4.6 0-8.1-3.5-10.9-9.2c-2.9-5.7-4.6-14.9-4.6-26.3c0-4.6 0-9.8 0.6-14.9c0-5.2 1.1-10.9 1.7-17.2h-1.7l-28.7 60.1c-1.7 2.9-3.4 5.2-5.1 6.3q-3.5 1.8-6.9 1.8c-2.9 0-5.7-0.6-7.4-1.8c-2.3-1.1-3.5-2.8-4.6-5.1c-1.2-2.3-1.7-4.6-2.3-7.5c-0.6-2.8-0.6-5.7-0.6-8.6c0-4.5 0.6-10.3 1.2-17.7c0.5-5.7 1.1-12 1.7-17.8c-12.6 36.1-40.1 61.3-69.9 61.3c-2.3 0-5.2 0-8-0.6c-18.9-2.8-33.8-14.8-43.5-32.6c-3.5 2.9-6.9 5.7-10.4 8c-6.3 4-12.6 6.3-18.3 6.3c-2.8 0-5.7-0.6-8-1.1c-2.9-0.6-5.2-2.3-6.9-4q-3.4-2.6-5.1-6.9c-1.2-2.9-2.3-6.3-2.9-10.3c-4 7.4-8.6 14.9-13.2 21.2c-5.1 6.8-10.3 12-15.4 16.6c-5.8 4-11.5 8-17.2 10.3c-5.7 2.9-12 4-18.3 4c-8.1 0.6-14.9-1.7-20.7-5.7c-5.7-4.6-10.3-9.8-13.7-17.2c-3.4-6.9-6.3-15.5-8-25.2c-1.7-9.7-2.9-20.6-2.9-31.5c0-4 0-8 0.6-11.5c0-4 0.6-6.8 0.6-9.7c-2.9 19.5-6.3 35.5-10.9 48.7c-4 13.2-9.2 23.5-15.5 31.5c-6.3 8-13.2 13.7-21.2 17.2c-8 4-16.6 5.7-26.3 5.7c-5.7 0-10.9-1.7-16.1-5.2c-5.1-3.4-9.7-8.6-13.7-16c-4-6.9-7.4-16-9.7-26.9c-2.3-10.9-4-23.5-4-38.4c0-8.6 0.5-18.3 1.1-27.5c1.1-9.7 2.3-18.9 4-28.6c1.7-9.2 3.4-18.9 6.3-28.1c2.9-9.7 5.7-18.9 9.2-27.5c2.3-4.6 4-8.6 6.3-11.4c2.3-2.9 4-5.2 6.3-6.3c2.3-1.2 4.6-2.3 6.3-2.3c2.3-0.6 4.6-0.6 6.8-0.6c2.3 0 4.1 0 0.6 3.4c1.7 0.6 2.9 1.2 4 1.8c1.2 0.5 1.7 1.7 2.3 3.4c0.6 1.1 1.2 3.4 1.2 5.7c0 2.9-0.6 6.9-1.8 12.6c-1.7 5.8-3.4 12.1-5.1 19.5c-1.7 7.4-4 15.5-6.3 24.1c-2.3 8.5-4.6 17.1-6.3 26.3c-1.7 9.2-3.4 17.8-4.6 26.3q-1.7 12.9-1.7 24.1c0.6 5.7 0.6 11.5 1.7 16.6c1.2 5.2 2.3 9.7 4 13.8c1.7 4 4 6.8 6.3 9.1c2.9 1.7 5.7 2.9 9.2 2.9c4 0 6.9-1.2 10.3-3.5c2.9-2.2 6.3-5.1 9.2-8.5c2.8-3.5 5.7-7.5 8.5-12.6c2.9-5.2 5.8-10.4 8.1-16.1c2.3-5.7 4.5-12 6.8-18.3c2.3-6.9 4.6-13.2 6.3-19.5c6.9-22.3 12.6-48.7 17.8-77.3c1.1-4.6 2.3-8.6 3.4-11.5c1.7-2.8 3.5-5.7 5.2-7.4c2.3-1.7 4.6-3.4 6.9-4c2.8-0.6 5.7-1.2 9.1-1.2c3.5 0 5.7 0 8 0.6c2.3 0.6 4 1.2 5.2 2.3c1.7 0.6 2.3 2.3 2.9 3.4c0 1.2 0.5 2.9 0.5 4.6c0 0.6-0.5 2.9-1.1 7.5c-0.6 4-1.2 9.7-2.3 16.6c-0.6 6.3-1.7 14.3-2.9 22.9c-1.1 8.6-1.7 17.2-2.8 26.3c-1.2 9.2-1.8 17.8-2.3 27c-0.6 9.1-0.6 17.1-0.6 24.6c0 7.4 0.6 14.3 1.1 20.6c0.6 5.7 1.8 11.5 2.9 15.5c1.2 4 2.9 7.4 5.2 9.7c2.3 2.3 5.1 3.4 8 3.4c5.7-0.5 10.3-2.3 14.9-6.8q6.8-6.9 12-17.2c4-6.9 6.9-15.5 9.7-24.6c2.9-9.2 5.2-18.9 7.5-29.3l5.1-30.9q1.8-15.4 3.5-29.2c1.1-9.2 1.7-17.2 2.3-24.6c0.5-7.5 1.1-13.2 1.1-17.2c0.6-4 1.2-7.4 2.3-10.3c1.7-2.9 3.4-4.6 5.2-6.3c2.2-1.2 4.5-2.3 6.8-2.9c2.9 0 5.2-0.5 8-0.5c2.3 0 4.1 0 5.8 0.5c1.7 0.6 3.4 1.2 4.6 2.3c1.1 1.2 2.2 2.9 2.8 4.6c0.6 2.3 1.2 4.6 1.2 7.4c0 8.1 0 16.7-1.2 26.4c-1.1 9.7-2.3 18.9-3.4 28.6c-1.2 9.8-2.9 18.9-4.6 28.1c-1.7 9.2-2.9 17.2-4.6 24.6c-1.1 7.5-2.3 13.2-3.4 18.3c-0.6 5.2-1.2 8.6-1.2 9.8q0 5.1 1.8 8.6c1.1 2.3 2.2 4 4 5.7c1.7 1.7 3.4 2.9 5.7 3.4c2.3 1.2 4.6 1.2 6.9 1.2c2.3 0 5.1-0.6 7.4-1.7l5.2-3.5c-5.2-16-6.3-34.3-3.5-53.2c7.5-47 40.1-81.4 75.1-81.4c2.2 0 5.1 0 8 0.6c32.6 5.2 55.5 40.7 55.5 83.1c0.6-2.9 2.3-5.2 4-7.5c2.3-2.3 5.8-3.4 9.8-3.4q6 0 8.6 3.4c1.1 2.3 2.3 5.7 2.3 9.7v4.6c0 1.7 0 4-0.6 6.3c-0.6 2.3-0.6 5.2-1.2 7.5c-0.5 2.3-0.5 4.6-1.1 6.8c0 2.3-0.6 4.1-0.6 5.8c-0.6 1.7-0.6 2.8-0.6 3.4h2.3c0.6-0.6 1.2-2.3 2.3-4c1.2-1.7 2.3-4 3.5-6.3c1.1-2.9 2.3-5.2 4-8c1.1-2.9 2.8-5.7 4-8q1.7-4.3 3.4-6.9c1.2-1.7 1.7-2.9 2.3-4c2.3-4 5.2-6.9 8-8.6c2.9-1.2 6.3-2.3 10.3-2.3c4 0 6.9 1.1 9.2 4.6c2.3 2.8 3.4 7.4 3.4 13.2c0 0.5 0 2.2-0.5 4c0 1.7-0.6 4-1.2 6.8c-0.6 2.9-1.1 5.8-1.7 9.2l-1.7 10.3c-0.6 3.4-1.2 6.9-1.2 10.3c-0.5 3.5-0.5 6.3-0.5 9.2c0 4.6 0.5 8.6 1.7 11.4c1.1 2.9 3.4 4.6 5.7 4.6c1.2 0 2.3-0.6 4-1.1c1.2-0.6 2.9-1.7 4.6-2.9c1.7-1.1 3.4-2.3 5.2-4c1.7-1.7 3.4-2.9 5.1-4.6l1.7-1.7c-8.6-17.8-11.4-40.1-8-63.6c7.5-46.9 40.1-81.3 75-81.3c2.3 0 5.2 0 8.1 0.6c12 1.7 22.3 7.4 30.9 16c1.1-4 1.7-8 2.8-12c2.3-9.8 5.8-18.3 9.2-26.4c3.4-8 7.5-14.9 11.5-20.6q6-8.6 13.7-13.7q7.7-5.2 15.5-5.2c3.4 0 6.8 1.2 9.7 2.9c2.9 2.3 5.2 4.6 6.9 8c1.7 3.4 3.4 6.9 4 11.5c0.6 4.5 1.1 9.1 1.1 13.7v9.2c-0.5 11.4-2.3 22.9-5.1 33.2c-2.9 10.3-6.3 20.6-9.8 30.3c-3.4 10.3-7.4 20.1-12 29.8c-4 9.8-8.6 20.1-12.6 30.4c-0.6 1.1-0.6 2.3-1.1 4c-0.6 1.1-0.6 3.4-1.2 5.1c0 1.8-0.5 3.5-0.5 5.8v5.7c0 2.3 0 4.6 0.5 6.9c0.6 2.3 1.2 4 1.7 5.7c0.6 1.7 1.8 2.9 2.9 4c1.2 0.6 2.3 1.1 4 1.1c1.7 0 3.5-0.5 5.2-1.1c1.7-1.1 3.4-1.7 5.7-2.9c2.3-1.1 4-2.8 6.3-4c2.3-1.1 4.6-2.3 6.3-4c0.6-0.6 1.7-1.1 2.3-1.7c0-4 0.6-8.6 1.1-13.2c0.6-5.1 1.8-9.7 3.5-14.3c1.7-4.6 4-9.2 6.3-13.2c2.8-4 5.7-7.4 9.1-10.8c3.5-3.5 7.5-6.3 11.5-8.1c4-1.7 9.2-2.8 14.3-2.8q6.9 0 12 1.7c4 1.1 6.9 3.4 9.8 5.7c2.3 2.3 4.6 5.2 6.3 8.6c1.1 3.4 2.3 6.9 2.3 11.5c0 4.5-1.2 9.7-3.5 14.3c-1.7 5.1-5.1 9.7-9.1 13.7c-4 4-8.6 8-14.4 11.5c-5.7 3.4-11.4 6.3-18.3 8q1.7 3.4 3.5 5.2c1.1 1.1 2.2 2.2 3.4 2.8q1.7 1.7 3.4 1.7c1.2 0.6 2.3 0.6 4 0.6c4.6 0 9.2-1.1 14.4-2.9c5.1-1.7 10.3-4 14.8-6.8c4.6-2.9 9.2-5.8 13.2-9.2c2.9-2.3 4.6-4 6.9-5.7v-1.2c0.6-5.1 1.7-10.3 2.3-15.4c0.6-5.2 1.1-10.3 2.3-14.9c1.1-4.6 1.7-8.6 2.8-12.6c1.2-4 1.8-7.5 2.9-9.8c0.6-1.7 1.1-2.8 1.7-4c0.6-1.1 1.7-1.7 2.3-2.3c0.6-0.5 1.7-1.1 2.9-1.1c1.1-0.6 2.8-0.6 4.6-0.6h4.5c1.2 0 1.8 0.6 2.3 1.2c0.6 0.5 1.2 1.7 1.2 2.8v16.1c0 4 0.5 8 0.5 12h1.2q2.6-4.3 5.1-10.3c1.8-4 4.1-7.5 6.3-10.9c2.9-3.4 5.2-6.3 8.6-8.6c2.9-2.3 6.9-3.4 10.9-3.4c1.2 0 2.9 0 4 0.6c1.2 0.5 2.3 1.1 3.5 2.2c0.5 1.2 1.7 2.3 2.3 3.5c0.5 1.1 1.1 2.8 1.1 4.6c0 1.1 0 2.8-0.6 5.1c-0.5 2.3-0.5 5.2-1.1 7.5c-0.6 2.3-0.6 5.1-1.2 7.4c-0.5 2.3-0.5 4-0.5 5.7c0 2.9 0.5 5.2 1.1 6.9c0.6 2.3 1.2 3.4 2.3 4.6c0.6 1.1 1.7 1.7 2.9 2.3c1.1 0.6 2.3 0.6 3.4 0.6c2.9 0 6.9-0.6 10.3-2.3c3.4-1.2 6.9-3.5 9.7-5.2c1.2-0.6 2.3-1.1 3.5-2.3v-2.3c0-12 1.1-24 3.4-35.5c2.3-11.4 5.7-22.3 9.8-32.1q6.8-15.4 15.4-27.4c5.7-8.1 12.6-15.5 20.1-21.2c7.4-5.8 16-10.3 24.6-13.8c8.6-2.8 18.3-4.6 28.1-4.6q19.7 0 34.3 5.2c9.8 4 18.3 8.6 24.6 14.3c6.9 5.7 11.5 12.6 14.9 20.1c1.2 4 2.9 7.4 3.5 11.4c1.1-2.3 1.7-4.6 2.8-6.9c2.9-7.4 6.3-14.3 10.3-21.2q6.1-9.4 12.1-17.1c4.6-4.6 8.6-8.6 13.1-11.5c4.6-2.9 9.2-4 13.8-4c3.4 0 5.7 0.6 8 2.3c2.3 1.7 4 3.4 5.2 5.7c1.1 2.3 1.7 5.2 2.3 8c0.5 2.9 0.5 6.3 0.5 9.2c0 6.9-0.5 13.7-2.3 21.2c-1.7 7.4-3.4 14.3-6.3 21.8c-2.3 6.8-5.7 14.3-9.1 21.7c-3.5 7.5-6.9 14.3-10.9 21.8c-3.4 6.9-7.5 14.3-11.5 21.2c-4 6.8-7.4 13.7-10.8 20.6c-0.6 0.6-0.6 1.7-1.2 2.9c-0.6 1.1-0.6 2.8-1.1 4c-0.6 1.7-0.6 2.8-1.2 4.5c-0.6 1.8-1.1 2.9-1.1 4.6v1.7c0 2.3 0 4.1 0.5 5.8c0.6 2.3 1.2 3.4 1.8 5.1q0.8 2.6 1.7 3.5c0.6 0.5 1.1 1.1 1.7 1.1c1.1 0 2.9-0.6 4.6-1.1c1.7-0.6 3.4-1.2 5.7-2.3c2.3-1.2 4-2.3 6.3-3.5c2.3-1.1 4.6-2.8 6.3-4c1.2-0.5 1.7-1.1 2.9-1.7l1.7-8.6c1.1-5.7 3.4-11.4 6.3-17.2c2.9-5.7 5.7-10.8 9.7-16c3.5-5.2 7.5-9.7 12.1-13.2c4.5-3.4 9.1-6.3 14.3-8.6c4.6-2.3 9.7-3.4 14.9-3.4c1.7 0 2.8 0.6 4 1.1c1.1 0.6 1.7 1.8 2.3 2.3c0.5 0.6 1.1 1.8 1.7 2.3c0.6 0.6 1.1 1.2 2.3 1.7c1.1 0 1.7 0.6 2.8 0.6h7.5c1.1 0 1.7 0.6 2.8 0.6c0.6 0.6 1.8 1.1 2.3 1.7c0.6 0.6 1.2 1.7 1.8 2.9c0.5 1.7 0.5 3.4 0.5 5.7c0 4-0.5 7.4-1.1 12c-0.6 4-1.2 8.6-2.3 13.2c-0.6 4.6-1.7 9.2-2.3 13.7c-0.6 4.6-1.1 9.2-1.1 13.2c0 3.5 0.5 6.3 1.1 8c0.6 1.8 1.7 2.9 4 2.9c1.7 0 3.4-0.6 5.2-1.1c1.7-0.6 3.4-1.8 5.1-2.9c1.7-1.2 3.5-2.3 5.2-4l5.1-5.2c2.9-2.8 5.2-5.7 8-9.1c0-4 0.6-8.1 1.2-12.1c0.6-6.8 1.7-13.1 2.9-19.4c1.1-6.3 2.2-11.5 3.4-16.1c0.6-3.4 2.3-6.3 4.6-8.6c2.3-2.3 5.7-3.4 9.7-3.4q6 0 8.6 3.4c1.7 2.3 2.3 5.8 2.3 9.8c0 1.1-0.6 2.8-0.6 4.6c0 1.7 0 4-0.6 6.3c-0.5 2.2-0.5 4.5-1.1 6.8c-0.6 2.9-0.6 4.6-1.1 6.9c0 1.7-0.6 3.4-0.6 5.2c-0.6 1.1-0.6 2.2-0.6 2.8h2.3c0.6-1.1 1.1-2.3 2.3-4c1.1-1.7 2.3-4 3.4-6.3c1.2-2.3 2.3-4.6 4-7.4c1.2-2.3 2.9-5.2 4-7.5c1.2-2.3 2.3-4.6 3.5-6.3c1.1-1.7 1.7-2.8 2.3-4c2.3-4 5.1-6.3 8-8c3.4-1.7 6.9-2.3 10.3-2.3c3.4 0 6.3 1.7 8.6 4.6c2.3 3.4 3.4 7.4 3.4 13.2c0 0.5 0 2.2-0.5 4c0 1.7-0.6 4-1.2 6.8q-0.9 3.5-1.7 8.6c-0.6 2.9-1.2 6.3-1.7 9.8c-0.6 3.4-0.6 6.3-1.2 9.7c-0.5 3.4-0.5 6.3-0.5 9.2c0 4.5 0.5 8.6 1.7 11.4c1.1 2.9 2.8 4.6 5.1 4.6c1.2 0 2.3-0.6 4-1.1c1.2-1.2 2.9-1.8 4.6-2.9c1.7-1.2 3.5-2.9 5.2-4c1.7-1.7 3.4-2.9 5.1-4.6c0.6-0.6 1.7-1.1 2.3-1.7c-0.6-3.5-1.1-6.9-1.1-10.3c0-4 0.5-8.6 1.1-13.2c1.2-4.6 2.3-9.2 4-13.7c1.7-4.6 4-8.6 6.3-12.6c2.3-4.1 5.2-8.1 8.6-10.9c3.5-3.5 7.5-5.8 11.5-7.5c4-1.7 8.6-2.8 13.7-2.8c4 0 8 0.5 11.5 1.7c3.4 1.7 6.3 3.4 9.1 5.7c2.9 2.3 4.6 5.2 6.3 8.6c1.8 3.4 2.3 7.4 2.3 11.5q0 6.8-3.4 13.7c-2.3 4.6-5.2 9.2-9.2 13.2c-4 4-8.6 7.4-14.3 10.9c-5.1 3.4-11.4 5.7-17.7 7.4q1.7 3.4 3.4 5.2c1.1 1.1 2.3 2.2 3.4 2.8c1.2 1.2 2.3 1.2 3.5 1.7c1.1 0.6 2.8 0.6 4 0.6c4.6 0 9.1-1.1 14.3-2.9c4.6-1.7 9.7-4 14.3-6.8c4.6-2.3 9.2-5.2 13.2-8.6c4-3.5 7.4-6.3 10.3-9.2l0.6 0.6c-1.2-8-1.8-16.6-1.8-26.4c0-4.5 0-9.1 0.6-14.3c0.6-5.1 1.2-9.7 1.7-14.9c-2.3 0-4-0.5-5.1-0.5c-1.2 0-2.9-0.6-4-0.6c-1.2 0-2.9 0-5.2-0.6c-2.3-0.6-5.1-0.6-9.1-1.1c-1.8 0-2.9-0.6-4.1-1.2c-1.1-0.5-1.7-1.7-2.2-2.3c0-1.1-0.6-1.7-0.6-2.8v-2.3c0-1.7 0.6-2.9 2.3-3.5c1.7-0.5 3.4-1.1 5.7-1.7c2.3-0.5 4.6-0.5 7.4-0.5h18.9c1.8-10.4 4.6-20.1 7.5-29.3c2.9-9.7 6.3-17.7 10.3-25.2c4-7.4 8-13.1 12.6-17.7c4.6-4.6 9.2-6.9 14.3-6.9c2.9 0 5.7 1.2 8.6 2.9q4.3 2.6 6.9 6.9c1.7 2.8 2.8 6.3 4 10.3c1.1 4 1.7 8 1.7 12.6c0 3.4-0.6 7.4-1.7 11.4c-0.6 4-2.3 8.6-4 12.6c-1.7 4-4 8-6.3 12.6c-2.3 4-4.6 8.6-7.5 12.6h33.3c1.7 0 2.8 1.2 3.4 2.3c0.6 1.2 1.1 2.9 1.1 5.2c0 2.3-0.5 4.5-2.3 6.3c-1.7 1.7-3.4 2.3-5.1 2.3h-43c-1.7 2.8-4 5.7-6.3 8.5c-2.3 2.3-4.5 5.2-6.3 7.5c0 4.6-0.5 9.2-0.5 13.7v22.9c0 4.1 0.5 7.5 1.1 10.4q1.7 4.3 3.4 6.8c1.2 1.7 2.9 3.5 5.2 4c0 0 12.6 6.9 47.5-22.3c0 0 76.8-57.8 60.7-131.2c0 0-1.7-9.1 8.6-10.8c10.3-1.8 20.7 27.5 12.1 61.2zm-136.3 8.6c1.1 0.6 2.2 0.6 3.4 0.6c1.1 0.6 2.3 0.6 3.4 0.6q3.5-5.2 6.9-12c2.3-4.6 4.6-9.2 6.3-13.2c1.7-4.6 3.4-8.6 4.6-12c1.1-4.1 1.7-6.9 1.7-9.2v-2.9c0-1.1 0-1.7-0.6-2.8c-0.5-1.2-1.1-1.8-1.7-2.3c-1.1-0.6-2.3-1.2-3.4-1.2c-1.7 0-4 1.7-5.8 5.2c-2.2 3.4-4 8-5.7 13.2c-1.7 5.7-3.4 11.4-5.1 17.7c-1.8 6.3-2.9 12.6-4 18.3zm-1084.2-25.2c-1.2-0.5-2.9-0.5-4.6-0.5c-24.1 0-47.5 27.5-53.3 63c-5.7 38.3 10.3 73.8 36.1 77.9c1.2 0.5 2.9 0.5 4.6 0.5c14.9 0 29.2-9.7 39.5-25.7c-2.8 1.1-6.3 1.7-9.1 1.7c-14.4-0.6-25.2-20.1-24.1-42.4c0-6.3 1.1-12.6 3.4-17.8l44.1 15.5c3.5-36.1-12.6-68.2-36.6-72.2zm285.8 51v6.3c4.6-10.9 8.6-21.8 12.6-32.6c1.1-4.6 2.8-9.2 4.6-14.4c1.7-4.5 3.4-9.7 4.5-14.8c1.2-5.2 2.3-9.8 3.5-14.9l1.7-13.8c0.6-5.7 0.6-10.3 0.6-13.7c0-4.6-0.6-7.5-1.2-9.2c-0.6-1.7-1.7-2.3-3.4-2.3q-3.5 0-6.9 5.2c-2.3 3.4-4 8-5.7 13.1c-1.7 5.2-2.9 10.9-4 17.2c-1.2 6.3-2.3 12.6-2.9 18.4c-0.6 5.7-1.1 11.4-1.7 16c0 5.1-0.6 8.6-0.6 10.3c0 4-0.6 7.4-0.6 11.5v10.3c0 3.4 0 5.7-0.5 7.4zm-37.8 61.9c-3.5 1.1-6.3 1.7-9.8 1.7c-14.9-1.2-25.2-19.5-23.4-40.7c1.7-21.7 14.8-37.8 29.7-36.6c8.1 0.5 15.5 6.3 19.5 15.4c-1.7-29.2-16.6-53.2-37.2-56.7c-1.2-0.5-2.9-0.5-4.6-0.5c-24.1 0-47.5 27.4-53.3 63c-3.4 19.4-0.5 39.5 7.5 54.4c4 8 13.2 21.2 28.6 23.4c1.2 0.6 2.9 0.6 4.6 0.6c14.3 0 28.1-9.7 38.4-24zm106.5-10.9c2.9 0 5.7-0.6 9.2-2.3c3.4-1.7 6.3-3.4 9.1-5.7c2.9-2.3 5.2-4.6 6.9-7.5c1.7-2.3 2.9-5.1 2.9-7.4c-0.6-3.5-1.2-6.3-2.3-8.6c-1.2-2.3-2.9-3.5-4.6-3.5q-5.2 0-8.6 1.8c-2.3 1.1-4 2.8-5.7 4.5l-3.5 6.9c-1.1 2.3-1.7 5.2-2.3 7.5c0 2.8-0.5 5.1-0.5 7.4c0 2.9 0 4.6-0.6 6.9zm323.6-88.2c0-4-0.6-8.6-2.3-13.2c-1.7-4.6-4.6-9.2-8.6-12.6c-4-3.4-9.7-6.9-16.6-9.2q-10.3-3.4-25.8-3.4c-8 0-14.9 1.7-21.2 4.6q-9.4 4.3-17.1 12c-5.2 5.2-9.8 10.9-13.2 17.8c-4 6.8-6.9 14.3-9.2 21.7q-3.4 12.1-5.1 24.1c-1.2 8.6-1.8 16-1.8 24v12.6c0 5.2 0 10.9 0.6 17.2c0 5.8 1.2 12.1 1.7 18.4c1.2 6.3 2.3 12 4 17.1c1.8 5.2 4.1 9.2 6.3 12.6c2.9 2.9 5.8 4.6 9.8 4.6c4 0 7.4-1.1 10.3-4c2.9-2.9 5.1-6.3 6.9-10.9c2.3-4.6 3.4-9.1 4.5-14.9c1.2-5.7 1.8-10.8 2.3-16.6c0.6-5.7 1.2-10.9 1.2-16v-18.9c-6.3-2.9-11.5-5.2-14.9-6.9c-4-2.3-6.9-4-8.6-5.7c-1.7-1.7-2.9-4-3.4-5.7c-0.6-1.8-0.6-4-0.6-6.9v-4c0-1.2 0-2.3 0.6-3.5c0.5-0.5 1.1-1.7 1.7-2.2c0.6-0.6 1.7-1.2 2.8-1.2c1.2 0 1.8 0 2.3 0.6c0.6 0 1.2 0.6 2.3 1.1l6.9 3.5c1.7 1.1 3.4 1.7 5.2 2.3c1.7 0.5 3.4 0.5 4.5 1.1v-5.7c0-2.9 0-6.3 0.6-10.3c0.6-4 1.2-8.1 2.3-12.1c1.1-4 2.9-8 4.6-11.4c1.7-3.5 4.6-6.3 7.4-8.6c2.9-2.3 6.9-3.4 11.5-3.4c1.7 0 2.8 0.5 4.6 0.5c1.7 0.6 2.8 1.2 4 1.7c1.1 0.6 2.3 1.8 2.8 2.9c0.6 1.2 1.2 2.9 1.2 4.6v1.7l-6.9 29.8l-1.1 9.2c7.4-1.2 13.7-2.9 19.4-5.8c5.8-2.8 10.3-5.7 13.8-9.1c3.4-3.5 6.3-7.5 8-11.5c1.7-4 2.9-8 2.3-12zm36.1 47.5c3.4-5.7 6.8-12.6 10.9-20c4-7.5 7.4-14.9 10.8-22.9c3.5-8.1 6.3-15.5 8.6-23.5c2.3-7.5 4-14.9 4.6-21.8v-5.7c0-1.7-0.6-2.3-1.1-2.3c-2.3 0-4.6 1.1-6.9 4c-2.3 2.9-5.2 6.9-7.5 11.5c-2.2 4.5-4.5 10.3-6.8 16.6c-2.3 6.3-4.6 13.1-6.3 20c-1.7 6.9-2.9 14.3-4 21.8c-1.2 7.4-1.8 14.9-2.3 22.3zm96.2 4c-3.4 0-6.3 0.6-9.2 2.3c-2.8 1.7-5.7 3.5-8 6.3c-2.3 2.9-4.6 5.7-6.9 9.2c-2.3 2.8-4 6.9-5.7 10.3c-1.1 3.4-2.9 7.4-3.4 10.9c-0.6 3.4-1.2 6.8-1.2 10.3c0 1.7 0.6 3.4 0.6 5.1c0 1.8 0.6 3.5 1.1 4.6c1.2 1.7 1.8 2.9 2.9 3.5c1.2 0.5 2.3 1.1 4 1.1c2.9 0 5.2-1.1 7.5-3.4c2.3-2.3 4-5.2 5.7-8.6c1.7-3.5 2.9-6.9 4-10.3c0.6-4 1.1-6.9 1.7-9.2zm179.3 30.4c2.3 0 5.1-1.2 8.6-2.3q4.3-1.8 8.6-5.2q4.3-3.4 6.8-6.9c1.8-2.8 2.9-5.1 2.9-7.4c0-2.9-0.6-5.7-1.7-8c-1.2-2.3-2.9-3.5-4.6-3.5c-2.9 0-5.7 0.6-8 1.8c-2.3 1.1-4 2.8-5.7 4.5c-1.2 1.8-2.3 4-3.5 6.3c-1.1 2.3-1.7 5.2-2.3 7.5c-0.5 2.3-1.1 4.6-1.1 6.9z" />
</svg>