<svg version="1.2" xmlns="http://www.w3.org/2000/svg" viewBox="0 0 1517 1517" width="1517" height="1517">
	<title>Ono_Pharmaceutical_company_logo-svg</title>
	<style>
		.s0 { fill: #193a66 } 
		.s1 { fill: #ffffff } 
	</style>
	<g id="layer1">
		<path id="path576" class="s0" d="m0.5 0.5h1516.5v1516.5h-1516.5z"/>
		<path id="path578" class="s1" d="m494.3 1252.3c0 113.6-92.2 205.7-205.6 205.7-113.8 0-205.9-92.1-205.9-205.7v-493.5c0-113.9 92.1-205.8 205.9-205.8 113.4 0 205.6 91.9 205.6 205.8z"/>
		<path id="path580" class="s1" d="m1434.8 1252.3c0 113.6-92.4 205.7-205.8 205.7-113.8 0-205.7-92.1-205.7-205.7v-493.5c0-113.9 91.9-205.8 205.7-205.8 113.4 0 205.8 91.9 205.8 205.8z"/>
		<path id="path582" class="s1" d="m788 1428.7v-669.7c0-16.8-13.1-29.7-29-29.7-16.6 0-29.7 12.9-29.7 29.7v669.7h-176.3v-669.9c0-113.9 92.1-205.8 205.8-205.8 113.6 0 205.7 91.9 205.7 205.8v669.9z"/>
		<path id="path584" class="s0" d="m259.2 758.8c0-16.6 13-29.5 29.3-29.5 16.2 0 29.5 12.9 29.5 29.5v493.5c0 16.5-13.3 29.7-29.5 29.7-16.3 0-29.3-13.2-29.3-29.7z"/>
		<path id="path586" class="s0" d="m1199.5 758.8c0-16.6 13.2-29.5 29.5-29.5 16.2 0 29.3 12.9 29.3 29.5v493.5c0 16.5-13.1 29.7-29.3 29.7-16.3 0-29.5-13.2-29.5-29.7z"/>
	</g>
</svg>