<svg version="1.2" xmlns="http://www.w3.org/2000/svg" viewBox="0 0 1535 254" width="1535" height="254">
	<title>logo (6)-svg</title>
	<style>
		.s0 { fill: #82be28 } 
		.s1 { fill: #2d8c3c } 
		.s2 { fill: #000000 } 
	</style>
	<path id="Layer" class="s0" d="m176.3 178.1c0.9 14.2-5.8 20.5-14.7 23.1c-8.4 2.3-16.5 5.4-24 8.9c-13.9 7.2-29 10.7-44.6 11.2c-51.7 0.9-92.3-46.8-92.3-108.2c0-61.4 40.6-111.7 91.4-112.6c33.4-1.4 51.3 11.1 66.4 20c4.9 2.7 9.8 4.9 15.2 7.1c10.7 4.5 12.9 11.6 10.7 22.7c-2.3 11.2-12.1 27.6-23.2 34.8c-8.5 5.3-18.3 5.7-24.5 0c-5.4-5.4-10.7-9.8-17-13.4c-7.1-4.5-15.6-6.2-24.1-5.3c-16 1.3-35.6 18.2-35.6 45.4c0 27.1 18.7 40.5 34.3 42.7c11.6 1.8 24.1-1.3 38.4-13.4c7.5-6.2 16-8.4 24-2.2c8.9 6.7 18.3 26.3 19.6 39.2z" />
	<path id="Layer" fill-rule="evenodd" class="s1" d="m320.8 212.8c-4 3.6-8.9 5.4-14.3 4.9c-9.3 0.5-23.6 0.9-37.4 0.5c-11.6-0.5-19.6-5.8-22.8-13.4c-1.7-4.9-4-9.3-6.7-13.8c-3.1-4-8-6.2-13.3-5.8c-5.4-0.4-10.3 1.8-13.4 5.8c-2.7 4.5-4.9 8.9-6.2 13.8c-3.2 8-11.2 12.9-22.8 13.4c-9.8 0.4-19.6 0-29.4-0.5c-8.9-0.9-15.2-3.1-18.3-8.4l1.4-0.5c7.5-3.6 15.6-6.7 24-8.9c8.9-3.1 15.6-8.9 14.7-23.1c-0.9-12.5-11.1-32.5-19.1-38.8c-8.1-6.2-16.5-4-24.1 2.3c-14.3 12-26.8 15.1-38.3 13.3c-15.6-2.2-34.4-16-34.4-42.7c0-26.7 19.6-44.1 35.7-45.4c8.5-0.9 16.9 0.9 24.1 5.3c6.2 3.6 12 8 16.9 13.4c6.3 5.7 16.1 5.3 24.5 0c10.7-6.7 20.5-23.2 23.2-34.3c2.2-9.8 0.5-16.9-8-21.4v-0.9c2.7-12.4 8.9-20.5 16.5-24c5.8-2.2 11.6-3.1 17.8-2.7h30.8c6.2 0 12 0.9 17.8 2.7c7.6 3.1 13.8 11.1 16.5 24c2.2 11.2 8.9 44.5 14.3 68.6c4.4 22.2 10.7 44.1 19.1 65.4c2.3 6.3 5.4 12 8.5 17.4q5.4 8 8 17.3c1.8 6.3-0.4 13-5.3 16.5zm-77.6-106.8c-5.8-19.6-12-22.3-16.9-22.3c-4.9 0-11.2 2.7-17 22.3c-5.3 17.3-1.3 35.6 17 35.6c18.3 0 22.3-18.3 16.9-35.6z" />
	<path id="Layer" fill-rule="evenodd" class="s2" d="m757.2 142c0.9 18.7 13 26.7 26.8 26.7c11.6-0.8 22.7-4.4 32.1-11.1v25.4c-11.6 6.2-24.1 9.3-37 9.3c-36.1 0-54.4-20-54.4-59.2c0-31.6 17.8-65.9 57.1-65.9c14.2 0 37.9 4.5 37.9 34.8c0 28.5-29.5 38.7-62.5 40zm34.8-39.6v-1.3c0-6.7-5.8-12-12.5-12c-8.4 0-21.8 4.9-22.7 35.6c21.4-1.8 35.2-9.8 35.2-22.3zm-337 45.9l24.1 17.8c-12.1 16.9-31.7 26.7-52.2 26.2c-37.5 0-67.8-28-67.8-81c0-50.7 30.3-80.6 67.8-80.6c20.5 0 39.7 9.8 51.7 26.3l-24.1 17.8c-5.8-9.3-15.6-15.1-26.7-15.6c-19.2 0-34.3 19.6-34.3 52.6c0 34.2 15.6 52.5 34.3 52.5c11.1-0.9 21.4-6.7 27.2-16zm131.5 16.9c0 6.7 0 19.6-1.3 36.9c-2.7 30.7-18.3 51.7-50.9 51.7c-24.5 0-39.6-10.7-39.6-30.3c0-18.3 11.5-32.5 27.6-42.7c-18.3-2.3-28.1-10.7-31.7-23.6c-1.7-11.2-2.6-21.8-2.2-33v-52.5h33v72.1c0 12.9 5.8 18.7 16.1 18.7c10.2 0 16-5.3 16-18.7v-72.1h33zm-32.1 9.8c-19.2 8-31.2 25.8-31.2 40.9v1.8c0 7.6 6.2 13.4 13.8 13.4c16.5 0 17-19.2 17.4-30.3c0.4-10.7 0-22.2 0-25.8zm839.5-68.1v81.4h-33v-71.2c0-8.4-2.2-20.9-16.1-20.9c-11.1 0-17.8 10.2-17.8 23.1v69h-33v-116.6h29.9v17.4c8-16.1 20.5-21.8 33.9-21.8c23.2 0 36.1 13.3 36.1 39.6zm-683.5 17.3c0 44.6-19.6 68.2-56.6 68.2c-16 0-31.6-3.2-46.3-9v-149.5h32.9v41.8c7.6-5.3 16.5-8.4 25.9-8.4c29 0 44.1 20 44.1 56.9zm-32.5 5.4c0-11.1 0-40.5-21.9-40.5h-0.4c-8.5 0-15.2 6.7-15.2 15.1c-0.4 10.2-0.4 51.6 0 63.2c4.9 2.2 9.8 3.6 15.2 3.6c19.6 0 22.3-20.9 22.3-41.4zm769.9-57.9h29.4v24.9h-29.4v43.2c-0.4 6.7 0 12.9 1.8 19.6c2.7 6.2 8.9 10.2 15.6 9.4c4-0.5 8-1.4 12-3.2v22.3c-7.5 3.1-16 4.9-24 4.9c-23.7 0-32.6-8.5-36.1-21.4c-2.3-9.3-2.3-28-2.3-44.5v-93h33zm-283.5 92.6c0 6.6 0 19.6-1.4 36.9c-2.6 30.7-18.2 51.7-50.8 51.7c-24.5 0-39.7-10.7-39.7-30.3c0-18.3 12.1-32.5 28.6-42.8c-21.4-4-40.1-22.7-40.1-52.5c0-34.7 20-60.1 57.9-60.1c15.6 0 30.8 3.1 45.5 8.5zm-49.1-1.4c10.3 0 16.1-5.3 16.1-18.7v-52.5c-26.8-9.8-37.9 11.6-37.9 38.3c0 26.3 11.6 32.9 21.8 32.9zm17 12.5c-20.5 9.8-31.2 25.8-31.2 41v1.7c0 7.6 6.2 13.4 13.8 13.4c16.5 0 16.9-19.1 17.4-30.3c0.4-11.1 0-22.7 0-25.8zm80.7-33.4c0.9 18.7 13.4 26.7 26.7 26.7c11.6-0.9 22.8-4.4 32.1-11.1v24.9c-11.6 6.3-24.1 9.4-37 9.4c-36.1 0-54.4-20.1-54.4-59.2c0-31.6 17.9-65.9 57.1-65.9c14.3 0 37.9 4.4 37.9 34.7c0 28.9-29 39.2-62.4 40.5zm35.2-40v-1.4c0-6.7-5.8-12-12.5-12c-8.5 0-21.8 4.9-22.7 35.6c21.4-1.3 35.2-9.3 35.2-22.2zm-237.6-68.2l49 154.5h-31.6l-10.3-32.5h-54.4l-10.2 32.5h-31.7l48.6-154.5zm-1.3 97.1l-19.2-61.4l-19.2 61.4zm-113.7-61c5.8-0.4 11.6 0.9 17 4v29.4c-5.8-3.6-12.5-4.9-19.2-4.5c-12.5 0.9-22.3 11.6-21.8 24.1v65.4h-33v-116.6h29.4v18.7c4.5-11.6 15.2-19.6 27.6-20.5zm638.9 99.7c0 10.3-8 18.3-17.8 18.3c-9.8 0.4-17.9-8-18.3-17.8c-0.5-9.8 8-18.3 17.8-18.3c10.3 0 18.3 8 18.3 17.8zm-3.1 0.2c0-8.2-6.7-14.9-15-14.9c-8.2 0-14.9 6.7-14.9 14.9c0 8.3 6.7 15 14.9 15c8.3 0 15-6.7 15-15zm-12.5 1.2l6.2 9.3h-4l-6.2-9.3h-3.6v9.8h-3.1v-21.4h9.4c2.2-0.5 4.4 0.4 5.8 1.8c0.8 0.9 1.7 2.2 1.7 4c0 0.9-0.4 2.2-0.9 3.1q-2 2.7-5.3 2.7zm-6.7-2.7h5.8c1.3 0.4 2.7 0 3.6-0.9c0.4-0.4 0.9-1.3 0.9-2.2c0-0.9-0.5-1.8-1.4-2.3c-0.9-0.4-2.2-0.8-3.1-0.8h-6.2z" />
</svg>