<svg version="1.2" xmlns="http://www.w3.org/2000/svg" viewBox="0 0 1545 233" width="1545" height="233">
	<title>sunway-svg</title>
	<style>
		.s0 { fill: #ed1d24 } 
	</style>
	<g id="Layer">
		<path id="Path 4135" class="s0" d="m415.3 144.4c-8.8 47.7-48.6 87-119.9 87-71.5 0-97.7-34.2-87.3-87.2l26.2-138.7h65l-24.2 128.8c-6.1 30.7 3.6 42.7 29.8 42.7 29.4 0 42.9-17 48.8-46.8l23.9-124.7h64.1z"/>
		<path id="Path 4136" class="s0" d="m178.1 147.3c0 48.6-48.5 85-120.7 85q-7.2 0.1-14.4-0.2-7.2-0.2-14.4-0.9-7.2-0.6-14.3-1.6-7.2-1-14.2-2.3l15.1-59.6q5.6 2.1 11.3 3.7 5.8 1.5 11.7 2.6 5.8 1.1 11.8 1.7 5.9 0.5 11.9 0.5c20.7 0 31.6-7.8 31.6-18.7 0-25.8-68.9-22.8-68.9-73.2 0-41.1 33.9-83.3 114.9-83.3q6.6-0.1 13.2 0.1 6.5 0.1 13.1 0.6 6.5 0.4 13.1 1.1 6.5 0.7 13 1.6l-14.1 53.9q-4.8-1.2-9.6-2.2-4.9-1-9.8-1.7-4.9-0.7-9.9-1-4.9-0.4-9.9-0.5c-19.4 0-31.2 6.8-31.2 19.2 0.1 23.3 70.7 23.3 70.7 75.2z"/>
		<path id="Path 4137" class="s0" d="m654.7 227.1h-81l-35-96.3q-1.8-4.6-3.3-9.3-1.5-4.7-2.8-9.5-1.3-4.8-2.4-9.6-1.1-4.8-1.9-9.7h-0.5c-1.1 8.8-2 17.2-4.5 30.2l-20 104.2h-60.3l41.1-221.6h81.5l34.5 92.9c4.5 12.8 9.2 26.2 13 40.8h0.5c1.4-11.7 2.3-25.7 5.2-43.7l16.4-90h61z"/>
		<path id="Path 4138" class="s0" d="m955.7 227.1h-75.6l-7.2-94.1c-1.1-15.3-1.1-34-1.1-49.4h-0.4c-4.6 11.4-11.3 31-18.5 47.2l-43.6 96.3h-72.2l-22.4-221.6h67.5l9.3 102.5q0.3 5 0.6 10 0.2 4.9 0.3 9.9 0.1 5 0.1 9.9 0 5-0.1 10h0.6q1.6-5 3.4-10 1.7-5 3.5-9.9 1.9-4.9 3.9-9.8 2-4.8 4.1-9.6l46.3-103h66.3l9 100.3c0.9 10.1 1.6 25.1 1.6 42h1c4.7-13.8 10.8-32.1 16-43.8l44.9-98.6h64.5z"/>
		<path id="Path 4139" class="s0" d="m1338 158.2l-13 68.9h-65.1l13.2-67.8-48.1-153.8h68.4l13.5 48.8c3.1 11.7 7 25.3 9.7 40.7h0.2c8.1-15.4 18-29.9 26.4-42.5l31.4-47h69.7z"/>
		<path id="Path 4140" fill-rule="evenodd" class="s0" d="m1191.4 5.5l35.8 221.6h-68.1l-4.7-33.7h-75.4l-18.1 33.7h-67.5l120.3-221.6zm-43.2 141l-5.6-42.9q-0.5-3.7-0.9-7.4-0.5-3.6-0.8-7.3-0.3-3.7-0.5-7.4-0.2-3.6-0.3-7.3h-0.4c-5 11.2-9.7 20.8-14.5 29.8l-22.1 42.5z"/>
		<path id="Path 4141" fill-rule="evenodd" class="s0" d="m1511.4 7.6c13.5 0.2 25.6 8.5 30.6 21 5 12.5 2 26.9-7.6 36.3-9.7 9.5-24 12.2-36.5 6.9-12.4-5.2-20.4-17.5-20.3-31 0-4.4 0.9-8.8 2.6-12.8 1.7-4.1 4.2-7.8 7.4-10.9 3.1-3.1 6.8-5.5 10.9-7.1 4.1-1.7 8.5-2.5 12.9-2.4zm0 5.4c-3.6-0.1-7.3 0.6-10.6 2-3.4 1.4-6.5 3.4-9.1 6-2.5 2.6-4.6 5.7-5.9 9.1-1.4 3.4-2.1 7.1-2 10.7-0.1 7.4 2.7 14.5 7.9 19.8 5.1 5.2 12.2 8.2 19.5 8.2 7.4 0 14.5-3 19.6-8.2 5.2-5.3 8-12.4 7.8-19.8 0.1-3.6-0.5-7.2-1.8-10.6-1.4-3.4-3.3-6.4-5.9-9-2.5-2.6-5.6-4.7-8.9-6.1-3.3-1.4-6.9-2.1-10.6-2.1zm-6.9 47.2h-6.1v-38.4h14.6c9.2 0 14 3.2 14 10.8 0.1 1.3-0.1 2.7-0.6 4-0.5 1.3-1.2 2.5-2.2 3.6-0.9 1-2.1 1.8-3.3 2.3-1.3 0.6-2.7 0.8-4.1 0.8l10.8 16.9h-6.4l-10.1-16.8h-6.6zm0-21.6h6.9c7.1 0 9.5-2.2 9.5-6.4 0-3.4-1.8-5.6-8.5-5.6h-7.9z"/>
	</g>
</svg>