<svg version="1.2" xmlns="http://www.w3.org/2000/svg" viewBox="0 0 1262 1522" width="1262" height="1522">
	<title>sunway-svg</title>
	<style>
		.s0 { fill: #ed1d24 } 
	</style>
	<g id="Layer">
		<path id="Path 4136" class="s0" d="m1170.9 962.6c0 319.5-319 558.8-793.8 558.8q-47.3 0.7-94.7-1.1-47.3-1.7-94.5-5.8-47.2-4.2-94.1-10.7-46.9-6.5-93.4-15.4l99.4-392.1c24.5 9.2 49.4 17.4 74.6 24.4 25.2 7 50.7 12.8 76.5 17.5 25.7 4.8 51.6 8.3 77.7 10.7 26 2.4 52.2 3.7 78.3 3.7 136.3 0 207.8-51.7 207.8-123.3 0-169.3-452.7-149.7-452.7-480.8 0-270.7 222.6-548 755.2-548q43.2-0.5 86.3 0.6 43.1 1.1 86.1 3.9 43.1 2.8 86 7.2 42.9 4.5 85.6 10.6l-92.3 354.7q-31.6-8.4-63.6-14.8-32-6.4-64.3-10.9-32.3-4.4-64.9-6.9-32.5-2.5-65.1-2.9c-127.6 0-204.8 44.4-204.8 126.3 0.4 153.2 464.7 153.2 464.7 494.3z"/>
	</g>
</svg>