<svg version="1.2" xmlns="http://www.w3.org/2000/svg" viewBox="0 0 1194 1553" width="1194" height="1553">
	<title>logosvg-svg</title>
	<style>
		.s0 { fill: #202b66 } 
		.s1 { fill: #f9bf13 } 
	</style>
	<g id="Layer">
		<g id="Layer">
			<path id="Layer" class="s0" d="m0.4 359.2h1193.5v1193.3h-1193.5z"/>
			<g id="Layer">
				<path id="Layer" fill-rule="evenodd" class="s1" d="m1037.3 517.3h69.6v128.9h-120l-330.8 846.5h-103.8l-341.2-846.5h-117.4v-128.9h794.3l111.9-295.1-39.2-15.2 193.5-193.1 18.3 275.5-40-15.7zm-197.9 128.9h-485.3l249.2 622.9z"/>
				<path id="Layer" fill-rule="evenodd" class="s0" d="m660.3 1498.7h-111.9l-1.6-3.7-339.6-842.5h-119.5v-140.9h796.4l108.3-285.5-42.4-16.4 209.4-209.2 19.9 298.6-43.4-17-89.7 229.7h66.7v140.9h-121.9zm-103.8-12h95.5l330.7-846.4h118v-116.9h-72.5l100.7-257.5 36.9 14.4-16.8-252.8-177.2 177.3 36 14.1-115.5 304.5h-792.5v116.9h115.5l1.6 3.9zm46.8-200.8l-258.3-645.7h503zm-240.2-633.4l240.2 600.2 227.5-600.2z"/>
			</g>
		</g>
	</g>
</svg>