<svg version="1.2" xmlns="http://www.w3.org/2000/svg" viewBox="0 0 1510 1210" width="1510" height="1210">
	<title>China_Eastern_Airlines_logo-svg</title>
	<style>
		.s0 { fill: #1b1d80 } 
		.s1 { fill: #df0011 } 
	</style>
	<g id="layer1">
		<g id="g3454">
			<path id="Fill-1" fill-rule="evenodd" class="s0" d="m1506.7 430.7c2.4 0 4.6 1.6-1.7 6.9-9.7 7.8-32.8 26.6-43.2 34.9-8.4 6.6-14.3 9-26.8 11.4-377 57.7-708 184.1-708 311.6 0 67.4 197.6 139.8 392.2 189.3 5 1.4 6.5 3 7.9 5.6 3.7 6.4 9 15.9 10.4 18.3 2 3.5 2.2 8.4-3.8 7.7-355.7-44.4-684.1-98.2-684.1-255.5 0-14.5 1-28.9 5.1-43.4 44.6-159.7 525.1-272.3 1021.6-286.1 10.2-0.3 20.3-0.5 30.4-0.7z"/>
			<path id="Fill-3" fill-rule="evenodd" class="s1" d="m929.7 1209.4h-325.5c-206.2 0-412-127.6-603.6-668.8-0.1 0-0.1-0.1-0.1-0.1h161.7c36.6 0 53-16 64.7-30.8 90.4-124.6 291-401.1 314.9-433.4 45-60.8 70.1-75.8 186.2-75.8h670.2c14.2 0 10.1 7.3-1 10.6-491.1 133.1-884.5 416.4-943.4 708.9-40.2 200.5 215.4 416.8 473.3 481.4 11.8 3 7.2 8 2.6 8z"/>
		</g>
	</g>
</svg>