<svg version="1.2" xmlns="http://www.w3.org/2000/svg" viewBox="0 0 1594 1594" width="1594" height="1594">
	<title>logo-Bank-of-Jiangsu-svg</title>
	<style>
		.s0 { fill: #0068b7 } 
		.s1 { fill: #e8b820 } 
	</style>
	<g id="#0068b7ff">
		<path id="Layer" class="s0" d="m1 796.5c164.7-345.6 450.4-631.4 795.7-796.2 225.9 108.1 427.2 267.4 584.5 462.4-156.8-57.8-332.4-62-491.9-12.8-106 33.9-209 93.3-272.4 187.1-48.9 70.5-67.3 165.7-33.9 246.6 28.4 72.2 95.7 124.9 171 141-165 51.4-348.1 45.5-508.8-18.4-100.5-41.3-196-109.6-244.2-209.7z"/>
	</g>
	<g id="#e8b820ff">
		<path id="Layer" class="s1" d="m830.6 567.1c162.4-51.5 342.3-49.1 502.2 10.4 107.2 41 211.3 111.7 260.2 219.2-165.1 345.7-450.8 631.8-796.4 796.8-225.7-108.8-427.1-267.8-584.5-462.8 164.2 59.9 349.2 62.5 514.4 5.1 97.4-35 191.2-92.2 250-179.5 46.9-68.1 66.5-158.6 37.2-237.7-27.3-79.3-101.2-137.3-183.1-151.5z"/>
	</g>
</svg>