<svg version="1.2" xmlns="http://www.w3.org/2000/svg" viewBox="0 0 1534 1480" width="1534" height="1480">
	<title>Screenshot 2022-09-05 at 14-svg</title>
	<style>
		.s0 { fill: #ffffff } 
	</style>
	<g id="#d42d26ff">
		<path id="Layer" class="s0" d="m714.3 4c27-4.6 54.5-3.1 81.8-2.8 68.1 5.8 135.4 30.1 188.9 73.4 24.1 17.6 43.9 40 63.2 62.6 19.4 24.1 34.4 51.8 44.8 80.8-25.4 5.6-51.7 9.2-75.6 20.4-26.1 10.5-51.9 22.2-75 38.6-13.2 7.9-24 19.5-37.8 26.3-7.5 0.1-14.7-2.4-21.9-4.1-24.5-6.3-49.6-9.8-74.8-12.2-25.7-1-51.5-0.9-77.2-0.2-115.1 7.8-227.1 56.9-310.4 136.8-8.4-30.7-8.2-62.9-7.4-94.4 2.5-33.1 8.3-66.2 20.6-97.1 13.7-32.7 29.3-65.1 51.8-92.9 13.5-17.6 28.1-34.6 45.1-48.9 22.3-18.5 44.9-37.3 71.3-49.9 34.8-19.1 73.4-30.7 112.6-36.4zm290.4 339.5c87.9-53.2 200.4-61.1 296.1-24.9 30.7 11.6 60.1 26.8 87.2 45.5 23.1 16.8 42.6 37.8 62.5 58.2 58.5 67.7 86.9 159.1 82 248.1-4.8 56.3-21.2 111.9-51 160.1-14.3 22.4-29.5 44.5-49 62.6-8.3 7.1-14.5 18.1-25.4 21.1-5.4-7.3-9-15.6-13.3-23.4-20.3-37.1-50.5-67.2-81.6-95.2-12.3-10.9-26.4-19.1-40-28.1-7.2-4-6.1-13.1-7-20.1-1.7-42.8-11.4-84.9-24.5-125.5-7.7-22.5-17-44.5-28.5-65.3-10.2-18.5-20-37.4-32.4-54.6-18.6-25.4-37.3-51.1-60.7-72.5-17.4-19.2-39.1-33.5-58.9-49.9-17.2-13.9-37-24.1-55.5-36.1zm-847 10.5c51-32.8 109.9-53.1 170.4-57.4-0.6 16.5-5 32.8-4.8 49.4 0.1 14.4-0.5 28.9 0.8 43.4 4.8 38.7 12.8 77.5 29.8 112.9-51.4 70.6-79 156.7-86.1 243.3-0.8 33.9-1.9 68.1 3.6 101.7 5.1 37.5 14.7 74.3 28 109.7 5 12.4 10.7 24.6 14.5 37.5-44.1-2.5-86.5-18-125.7-37.7-32.7-16.4-61.9-39.3-87.7-65.2-36.6-40.5-66.3-88-82.8-140.3-13.5-43-20.1-88.7-15.1-133.7 4.1-34.7 11.6-69.2 24.4-101.8 16.2-35.8 34.5-71.5 61.3-100.7 21-22.7 43.8-43.8 69.4-61.1zm537.2 37.5c77.8-13.8 159.6-4.8 232.4 26.3 10 4.5 19.6 11.5 24.3 21.7 6.9 13.8 5.1 29.6 5.2 44.5-0.1 80.7 0 161.4 0 242.2 0.8 12.1-8.3 24.4-20.8 25.4-8.8 1.2-15.6-5.4-21.4-11.1-38.1-37.7-75.8-75.9-113.8-113.7-9.4-9.3-19.1-21.9-33.8-21.3-14.7-0.6-24.3 12.1-33.8 21.3-61.4 62-123.8 123.1-185.3 184.9-39.5 36.4-76.6 75.1-114.8 112.8-8.3 8.6-16.9 17-26.6 24.1-16-28.1-25.2-59.3-32-90.7-9.8-49.4-10.6-100.7-0.9-150.2 7.6-46.2 27.1-89.5 49.5-130.2 15.8-26.7 34.5-51.7 57.2-73 56.5-60 133.8-98.7 214.6-113zm429.2 222.7c2.3-2 5.3-0.3 6.1 2.4 7.9 14.4 12.6 30.4 17.6 46.1 14.8 47.3 23.1 97.2 18.2 146.7-4.2 66.9-25.9 133.1-64.3 188.1-20 32.9-46.2 62-75.9 86.4-20.5 15.5-40.8 31.6-63.8 43.2-71.7 38.3-155 57-236.1 47.8-38-3.2-74.8-14.4-110.7-26.8-12.3-4.4-25.4-10.5-31.9-22.5-8.1-14.1-6-30.8-6.2-46.3 0-80.7 0.1-161.4-0.1-242.1 0.2-6.8 0.9-14.3 6.1-19.3 9.5-8.8 26.2-8.8 34.9 1.4 41.3 41 82.3 82.3 123.5 123.4 7.4 7.3 16.7 14.6 27.6 14 12.3-1.9 20.9-12 29.3-20.2 64-62.7 126-127.4 191.1-188.9 33.4-33.6 67-66.9 100.5-100.3 11.6-10.7 21.7-23.2 34.1-33.1zm136.1 255.2c33.6 27.1 57.5 63.8 77.9 101.3 12.6 22.8 19.9 48 26.5 73 11.1 41.8 12.1 85.7 7.5 128.5-6.1 49-23.7 96.3-49.4 138.3-17.4 27.1-36.7 53.3-61 74.6-33.1 30.5-73 52.7-114.3 69.9-24.7 10.8-51.5 15-77.9 20-48.7 8.4-98.8 2.6-146.2-10.1-30.8-9.2-60.6-22.3-87.9-39.3 13-14.3 27.3-27.6 38-44 28.7-37.5 48.3-81.4 60.1-127.1 1.4-4 2.7-9 6.9-11 8.2-4.4 17.2-6.9 25.7-10.5 45.5-19.5 89.2-44.4 126.3-77.6 15.6-15 32.8-28.3 46.6-45.1 16.2-20.2 33.6-39.6 47.4-61.6 26.4-40.1 47.3-84.1 60.4-130.4 4.9-16.2 7.9-32.9 13.4-48.9zm-1092.7 173.9c22.9 9.6 45.3 20.9 69.5 27.4 24.6 7.7 50.2 10.9 75.6 13.7 19.1 2.1 38.4 0.1 57.5 0.8 6.1 0 9.1 6.4 12.7 10.4 10.5 15.1 23.6 28 36.8 40.7 30.3 29.3 64.8 53.8 100.7 75.8 36.3 21 76 35.4 116.3 46.7 44.8 12.1 91.2 18.6 137.6 17.6 19.7 0.5 39.1-2.5 58.7-2.8-5.7 19-18 34.8-28.2 51.5-21.2 31.2-47.4 59.3-77.7 81.9-31.7 24.4-68.7 41-106.2 54.2-31.4 11.6-65 15.4-98.2 17.8-45.7 1.1-92.2-4.9-134.7-22.3-20.5-8.4-40.4-18-59.8-28.5-66-39.1-118.8-100.4-146.5-172-17.8-43.6-25-91.2-23.7-138.2 0.2-25.2 3-50.4 9.6-74.7z"/>
	</g>
</svg>