<svg version="1.2" xmlns="http://www.w3.org/2000/svg" viewBox="0 0 1518 902" width="1518" height="902">
	<title>logo</title>
	<style>
		.s0 { fill: #e60012 } 
	</style>
	<path id="Layer" fill-rule="evenodd" class="s0" d="m1517.7 450.7c0 248.9-201.5 450.8-450.2 450.8-161.2 0-302.2-84.4-381.7-211.5l-119.2 188.5h-566.6v-847.1h261.9v608.9h397c-26.7-57.5-41.7-121.5-41.7-189.4 0-248.5 201.6-450.1 450.3-450.1 248.7 0 450.3 201.6 450.2 449.9zm-237.6 0.4c0-117.7-95-212.7-212.6-212.7-117.6 0-212.6 95-212.6 212.7 0 117.6 95 212.6 212.6 212.6 117.6 0 212.6-95 212.6-212.6z"/>
</svg>