<svg version="1.2" xmlns="http://www.w3.org/2000/svg" viewBox="0 0 1631 1018" width="1631" height="1018">
	<title>GTJA_Logo1-svg</title>
	<style>
		.s0 { fill: #ffffff } 
		.s1 { fill: #004e98 } 
		.s2 { fill: #0080cb } 
		.s3 { fill: #53c3f3 } 
	</style>
	<g id="#ffffffff">
		<path id="Layer" class="s0" d="m452.3 284.1c121-88.4 242.4-176.2 363.2-264.9 0 0.9 0.1 2.7 0.1 3.6-0.1 253.4 0 506.7 0 760.1 0.2 71.4-0.6 142.8 0.4 214.2l-1.5 1.2c-9.9-7.8-20.2-15.1-30.3-22.6-118.3-85.9-236.4-172-354.7-257.9-14.5-10.5-22.8-28.2-22.4-46 0-108.5 0-217.1 0-325.7-0.1-14 4.9-28.1 14.5-38.4 9.1-9.2 20.4-15.8 30.7-23.6z"/>
	</g>
	<g id="#004e98ff">
		<path id="Layer" class="s1" d="m803.6 0h11.2c-0.4 6.4 0.2 12.8 0.7 19.2-120.8 88.7-242.2 176.5-363.2 264.9-10.3 7.8-21.6 14.4-30.7 23.6-9.6 10.3-14.6 24.4-14.5 38.4 0 108.6 0 217.2 0 325.7-0.4 17.8 7.9 35.5 22.4 46 118.3 85.9 236.4 172 354.7 257.9 10.1 7.5 20.4 14.8 30.3 22.6q0.2 9.8 0.6 19.7h-11.9c-37.6-5.5-75.5-8.6-113.1-13.2-76-8.5-151.9-17-227.8-25.5-20-2.3-40.6-6-58.1-16.4q-190.7-122.2-381.3-244.4c-11.8-7.3-18.7-20.1-22.9-32.8v-353.4c4.5-10.7 9.3-22 18.8-29.3 10.4-7.9 21.9-14.2 32.9-21.4 113.3-72.8 226.8-145.2 340.1-218 10.2-6.7 20.3-13.7 32-17.4 16.6-6.1 34.5-6.3 51.8-8.5 101.7-11.4 203.4-22.8 305.1-34.2 7.7-0.8 15.3-2 22.9-3.5z"/>
	</g>
	<g id="#0080cbff">
		<path id="Layer" class="s2" d="m814.8 0h10.7c15.1 2.7 30.4 4.3 45.7 5.8q157.7 17.8 315.6 35.4c15.8 2.1 30.8 8.8 44.3 17.3 125.9 81 252.1 161.5 378.1 242.5 11.1 7 17.6 18.9 21.8 31.1v353.9c-3.7 13.1-11.3 25.2-23.2 32.3-122.2 78.5-244.6 156.8-367 235.1-10.1 6.6-20.4 13.3-31.8 17.5-17.6 7.1-36.9 7.7-55.5 10-89.8 10.2-179.7 20-269.5 30.2-14 1.5-28.2 2.5-42 5.4-3.7-3.9-9.5-2.5-12.5 1.5h-14.4q-0.4-9.9-0.6-19.7l1.5-1.2c37.5-25.1 73.4-52.7 110.1-79.1 83.8-61 167.4-122.1 251.3-183 13.1-9.9 28-18.3 37.8-31.8 9.5-13.7 8-31.1 8.2-46.9-0.3-95.6-0.2-191.2-0.1-286.8-0.2-14.8 1.4-30.1-2.9-44.5-3.6-10.7-11.9-18.9-20.7-25.5-114.5-82.7-228.3-166.4-342.6-249.3-13.3-9.9-26.2-20.6-41.5-27.4 0-0.9-0.1-2.7-0.1-3.6-0.5-6.4-1.1-12.8-0.7-19.2z"/>
	</g>
	<g id="#53c3f3ff">
		<path id="Layer" class="s3" d="m815.6 22.8c15.3 6.8 28.2 17.5 41.5 27.4 114.3 82.9 228.1 166.6 342.6 249.3 8.8 6.6 17.1 14.8 20.7 25.5 4.3 14.4 2.7 29.7 2.9 44.5-0.1 95.6-0.2 191.2 0.1 286.8-0.2 15.8 1.3 33.2-8.2 46.9-9.8 13.5-24.7 21.9-37.8 31.8-83.9 60.9-167.5 122-251.3 183-36.7 26.4-72.6 54-110.1 79.1-1-71.4-0.2-142.8-0.4-214.2 0-253.4-0.1-506.7 0-760.1z"/>
		<path id="Layer" class="s3" d="m829.5 1018c3-4 8.8-5.4 12.5-1.5l-1.3 1.5z"/>
	</g>
</svg>