<svg version="1.2" xmlns="http://www.w3.org/2000/svg" viewBox="0 0 1600 298" width="1600" height="298">
	<title>Bank_of_Communications_2-svg</title>
	<style>
		.s0 { fill: #ffffff } 
	</style>
	<g id="Layer">
		<path id="Layer" fill-rule="evenodd" class="s0" d="m617.5 195.1c0 0-27.2 33.8-71.6-3.6-7.8-6.6-33.1-27.9-33.1-27.9 0 0-2.3-2.2-6 1.9-2.2 2.3-17.8 14.3-19.9 16-2 1.7-28.5 17.1-57.2 11.4-8.8-1.7-13.2-4.3-14.8-5.8 0 0 52 3.7 80.4-34.8 0 0-3.5-6.3-16.2-9.5-3.8-1-10.6-3.8-11.5-14.9 0 0 0.5-2.5-1.3-2.5l-2.1 0.8c0 0-15 0.4-16.5 0.3-2-0.3-6.9-7-5.2-11.3 0 0 1.3 1 4.6-0.3 3.3-1.3 19.8-10.3 31.6-25.9 0 0 5.4-9.3 2.4-12.6 0 0 0.1-1.6-18 3.3-3.2 0.9-19.5 6.5-22.8-1.1-1.9-4.4-5.2-8.4-5.2-8.4 0 0-3.2-9.4 6.5-8.9 4.6 0.2 20.1-0.2 63.2-11.9 4.7-1.3 12.1-3.7 9.6-6.8-2-2.5-0.8-3.4-7.3-5.9-1.7-0.7-26-6.5-7.6-31.4 0 0 7.4 4.7 12.1 4.9 4.6 0.2 11.6 4.9 10.5 12.5-0.9 6.5-0.8 20.8 2.1 20.5 0 0 20.6-1.7 53.1-11.3 1.8-0.5 3.8 4 3 6.2l2.3 17.8c0 0 0 2.9-7.5 2.2 0 0-26.7 1.3-31.3 2.2-3.2 0.7-14.8 4.1-14.8 4.1 0 0-4.7 4.5 1.4 8.9 6 4.4 9.7 8.3 31.7 13.3 6.1 1.4 22 8.1 20.3 12.4 0 0 1.1 7.8-6.2 13.5 0 0-29.2-8.5-30.3-8.8-1.1-0.3-18.3-4.8-23.6-16.3 0 0-1.2-15.7-4.2-19.2-1.7-1.9-10.9 0.8-10.9 0.8l-15.6 4.2 6 7.9c0 0 0.3 7.8 0.2 8.2-0.1 0.4-4.8 14-22.4 29.2-1.1 0.9-2.3 2.9-2.3 2.9 0 0 11.9 1.1 13 2 1 1 16.5 12.5 16.5 12.5 0 0 2.1 0.8 5.7-11.1l-0.3-13.5c0 0 0.3-2.7 5.7-2.2 0 0 0.5 0.6 19.5 4.4 2.9 0.6 3.8 4.9 2.6 7.3-1.3 2.4-13.6 19.9-15.6 28.3-0.7 2.9 3.7 5 4 5.4 0.4 0.5 39.3 28.3 91.8 38.4zm119.5-145.6c-2.5-6-2.4-16.2 6.7-20.6 0 0 1.9 5.2 17.7 15.1 4.5 2.7 11.9 12.5 7 20.9-1.7 2.8-23.2 4.6-31.4-15.4zm184.1 124.1c0 24.4-41.2 30.1-41.2 30.1-32.3 0.9-49-2-60.2-5.1-63.7-16.9-106-7.8-106-7.8-7-1.4-3-14.2-2.2-18 1.1-5.3 6.2-3.8 6.2-3.8l22.3 2.2c0 0 0.9 1.1 1.9-0.8 1-1.9-2.2-7.3-2.2-7.3-17.5-28.3-14-48.5-13.4-51.9 3.1-15.7 4-22.3 4-22.3l-5.2-11.5c-0.8-9.7 6.5-7 6.5-7 2 2.1 12.9 3.4 17.7 5.6 11.2 4.9 7 12.1 4 17.9-24.1 46.5 8.1 80.3 8.1 80.3l21.7 1.7c-4.4-8.9-3.9-67.9-3.8-69.8 0.2-1.9-2-17.3-2-17.3l6.3 0.2 8.5 5q0.1-0.1 0.2-0.4c0.5-0.8 3.5-3.3 5.9-4.4 11.5-5.4 12.7-8.8 12.7-8.8 0.8-2.3-7.6-7.9-7.6-7.9-4.9-5.1 0.9-7.5 0.9-7.5l10.8-2.8 13.7-15.2c4.4-11.9-17.6 1.4-21.1 4.2-4.8 3.9-21.8 9.7-22.2 3.2-1-12.7 8.7-21.5 8.7-21.5l2.2 1.5c0.6 0.5 1.5 5.5 7.1 4.5 11.1-1.9 28.2-17.1 34.1-21 10.4-6.6 12.3-3.7 20.3 0.8 13.7 7.8 7.5 16.1 7.5 16.1-5.7 1.1-32.2 29.3-34.6 31.8-2.3 2.6-3 4.6 0.2 6.9 4.6 3.2 12.5-2.3 19-2.6 19.2-0.9 21.6 6.9 21.6 6.9-1.3 0.9-2.6 15.4-4 24.1-3.3 20.9 0.5 65.1 0.5 65.1 0.5 1.3-0.9 8.3-2.2 11.2-1.3 2.8 0.8 4.1 0.8 4.1 45.8-15.7 54.6-8.7 54.5-8.7zm-105.6-18c0 0 0-1.6-17.4-0.8 0 0-1.2 21.8-1.4 22.7 0 0 3.8 2.7 18.3 3.7 0 0 1.9-12.4 0.5-25.6zm-16.3-39.9c2.8-2.6 12.7-6.1 12.7-6.1 0 0 1.7 0.4 2-1.9 0.7-5.1-1.4-9.5-1.4-9.5-13.6 4.9-18.6 3.7-18.6 3.7-3.1 1.7 1 12.6 1 12.6 0.9 4.8 2.6 2.6 4.3 1.2zm15.5 16.3c0-4.3-1.7-4.1-1.7-4.1-3.8 0.9-6.2 0.3-8.9 0.1-2.7-0.1-6.8-2.2-6.8-2.2 0 1.3 0.3 14.1 0.3 14.1 0.8 0.7 13.8-1.4 13.8-1.4 3.9-0.4 3.3-0.8 3.3-6.5zm37.4-43.5c0 0-9.5 1.5-11.9 2.7-2.3 1.3-9.9 2.6-9.9 2.6l0.9 10.8c0 0 15.6-5.6 16.5 0.7 1 6.4-0.6 10.7-0.6 10.7 0 0-16.2 7.1-16.2 8.1l0.2 8.1c0 0-0.7 2.5 3.8 2.2l9.5-1.8c0 0 3.8 0.7 1.9 11.6 0 0-3.8 5.9-15.4 10v20c0 0-7 8.1-8.4 8.2 0 0 4.4 3.2 26 2.7 4.7-0.1 4.9-1.2 4.9-1.2 0 0-14.2-16.7-13.1-22.1 0 0 12.8-0.6 13.5-2.4 0 0 0.3-64 0.4-65.5 0.2-1.4 0.2-5-2.1-5.4zm483.3-25.6c0 0 4-10.5 16.8-21.9 3.3-3 16-15.3 20.3-23.8 0 0 2.1-1.1 2.4-0.5 0 0 13.5 3.5 21.2 11.7v2.3l-4.7 2.8c0 0-6.8 7.6-13.2 14.1-5.3 5.4-10.3 9.9-10.3 9.9 0 0-8.2 8.4-25.2 8.8-4.5 0.2-7.3-3.4-7.3-3.4zm24.9 48.8c0 0 4.4 42 5.1 44.3l0.6 38.2c0 0-7.6 7-11.7 7-4.2 0-8.8-7.3-8.4-18.3 0.1-3.3 0.9-50.6 1.7-52.6 0 0-1.7-6.5-6-6.2 0 0-28.9 23-42.1 22.3-3.4-0.1-5.8-1.2-5.8-1.2 0 0-4.3-10.3-2.9-12.1 0 0 40.3-17.6 76.5-71.4l4.9-1.5c0 0 11.3-0.2 25.7 5.7 0 0 1.4 2-0.2 5.2-1.6 3.2-9.2 16.5-37.4 40.6zm44.6-67.9l1.1-4.9c0 0 31.2 0.6 58.4-3.7l3.7 1.2c0 0 7.4 5.7 8.3 7.3 0 0-0.9 7.2-2.5 8.5-1.6 1.3-33.3 23.7-57.9 12.7 0 0-5.7-6-9.7-17.8-1.1-3.4-1.4-3.3-1.4-3.3zm102.3 42.7c-8.6 9.8-52.5 15.7-52.5 15.7-1.6 0.9-0.7 21.1-0.2 24.2 0.5 3.2 6.3 54.7 6.1 59.8-1.5 29.9-28.6 19.4-31.2 16.1-7.4-9.5-23.7-22.9-26.3-25.2-2.5-2.4-2-4.2-2-4.2 11.1-0.3 22.7 7 22.7 7 11.2 3.7 10.4-6.2 10.4-6.2 1.1-2.5-1.6-69.3-1.6-69.3-1.4-0.2-9.9 0.3-15.8 1.6-17.5 3.8-31.3 7.8-31.3 7.8-1.1-1.5-1-10.3-0.8-14.2 1-14.4 16.4-16 16.4-16 0 0 35.7-4.1 42-4.4 11.3-0.7 53.3-10.2 53.3-10.2 10.5 5.1 13.6 14.2 10.8 17.5zm-399.9 76.9l-3 4.9c0 0-3.3 8.1-7.5 8 0 0-22.8 5.8-55.5 23.3-1.1 0.6-21.2 5.5-21.1-9.2l2.3-5.7c0 0 2.2 1.1 34.7-16.1 1.8-0.9 2-3.6-0.3-4.7-3-1.4-9.7-1.8-13.2-12.1 0 0 0.3-7.4 8.1-11.7l13.8 8.2c0 0-1.1-19.1-1.9-19.8l-12.5 3.8c0 0-11.5 4.6-10.8-10.9 0.3-7.6 7-9.4 7-9.4l14.9-4.3-0.7-9c0 0-5.7-0.6-12.8-2.1-2-0.4-6.1-0.4-6.8-2.3 0 0-25.1 32.3-35.2 34.5-3.2 0.7-19.1 3.4-25.9-13.1 0 0 13.5-6.5 14.8-8 1.2-1.4 39.6-31.4 62.5-72.9 3-5.5 11.7-22.7 11.8-23.5 0 0 14.8-5.1 23 16.3 0 0 0.7 1.8-7.3 7.2 0 0-0.1 2.7 2.6 4.1 2.7 1.4 17.4 7.1 16.2 39 0 0-7.3-5.1-14.5-11.4-1.7-1.5-10.8-8.4-17.6-8.6 0 0-13 11.8-14.1 17.8-0.5 2.7 4.3 1.4 4.3 1.4l18.2-0.3c0 0 7 1.1 9.5 4.5 0 0 1.2 7.6-2.2 10.3l-12.7 5.8c0 0-1.1 6.1-0.3 6.9 0.8 0.7 2.7-0.2 2.7-0.2 0 0 14.4-1.9 16.8-0.3 3 1.9 2.1 11.1-2.4 12.5l-15 8.3c0 0-1.1 17.2 0.4 25.3 0 0 0.6 1.4 10.5-12.8 1.2-1.7 5.1-7.2 11-5.1 0 0 6.9-0.5 1.1 11.9 0 0-3.8 5.2-12.9 12.2-3.1 2.4-5.7 5.4-5.5 6 0.1 0.7 20.8-2.7 20.8-2.7 0 0 7.3-0.6 4.7 4zm109-2.5c0 0-9.7 12.2-11.1 15-1.5 2.9-3.2 3.4-4.3 2.4-1.1-0.9-18.9-22-33.6-28 0 0-1.5-2.3-7.6 18.5-1.3 4-16.5 38.7-35.6 39.8 0 0-6-2.4-5.7-6.8 0 0-3.9-25.9-2.1-78.2 0.2-4.9 2.4-72.7 2.4-72.7l0.8-12.8c0 0-1.7-2.5 11.3-6.5 4.9-1.5 20.6-3.3 33.1-8.1 2-0.7 18.3-6 19.2 10.5 0 0 0.7 3.5-4.9 18.5-2.1 5.8-5.5 13-7 31.9-0.6 7.9-1.5 11.1-9.6 20.2l-7.7 6.6c0 0-11.4 3.7-16.5-1.1-2.7-2.5-6.1-2.4-6.1-2.4 0 0-2.6 0.3-2.1 14.9 0.1 4.2 1 4.5 5.8 4.3 5-0.1 35-2.5 56.1-36.6 0 0 12 6.5 21.5 18.1 0 0-38.8 23-39.3 23.4 0 0 12.4 8.1 23.2 11.8 6.3 2.1 19.5 13.3 19.8 17.3zm-86.8-68.1c0.3 4.2 13.2 1.8 13.2 1.8 9.7 0.3 12.8-11.5 14-14.5 1-3-0.7-4.1-0.7-4.1l-23.8 1-1.7 2.3zm4.4-31.2c0 0 10.9 2.4 23.1-0.5 0 0 1.8 1.1 3.8-9 0 0-0.4-6.8-2.8-7.5-2.4-0.6-22.7-0.3-23.2 2.9 0 0-2 11.2-0.9 14.1zm26.7 83.7c-16.3-9.3-28.9-11.4-28.9-11.4-1.3-0.3-2.6 0.4-2.6 0.4-2.1 18.8 4 30.2 4 30.2 0 0 3.7 2.3 10.1-0.6 18.9-8.5 17.4-18.6 17.4-18.6zm-833.1 89.7h30.6c15.5 0 19.5 8 19.5 13.4 0 7.6-5.1 9.7-7.8 10.8 7.7 2.4 9.7 7.5 9.7 12.7 0 4.2-2.1 8.2-5.4 10.9-3.6 2.9-7.1 4.7-20 4.7h-26.6zm12.6 20.6h15.5c5.2 0 9.3-1.7 9.3-5.9 0-4.3-3.7-5.7-9.7-5.7h-15.1c0 0 0 11.6 0 11.6zm0 22.9h16.2c6.4 0 10-2.3 10-7.7 0-4.6-4.7-6.4-9.4-6.4h-16.8c0 0 0 14.1 0 14.1zm57.1 9h-13.9l22.5-52.5h15.2l22.1 52.5h-14.2l-4.1-10.8h-23.2zm7.9-19.8h16l-7.8-20.8h-0.1zm84.9-32.7h12.3v52.5h-13.2l-25.7-37.5h-0.1v37.5h-12.3v-52.5h13.8l25 36.6h0.2zm39.1 52.5h-13.2v-52.5h13.2v21.3l24-21.3h17l-25.7 21.5 27.2 31h-16.9l-19.5-23.1-6.1 5.3zm125.5-53.8c8.3 0 30.3 2.9 30.3 27.5 0 24.6-22 27.6-30.3 27.6-8.4 0-30.3-3-30.3-27.6 0-24.6 21.9-27.5 30.3-27.5zm0 45.9c7 0 17-3.7 17-18.4 0-14.6-9.9-18.3-17-18.3-7.1 0-17.1 3.7-17.1 18.3 0 14.7 10 18.4 17.1 18.4zm53.9 7.9h-13.2v-52.5h44.9v9.2h-31.7v11.9h27.8v9.3h-27.8zm125.6-35.4c-1-3.1-3.1-9-13.9-9-6.4 0-15.7 3.5-15.7 18.3 0 9.5 4.5 17.9 15.7 17.9 7.2 0 12.3-3.4 13.9-9.8h13.2c-2.7 11.4-11.6 19.3-27.4 19.3-16.8 0-28.8-9.4-28.8-27.5 0-18.3 12.7-27.7 29-27.7 18.8 0 26.4 10.8 27.2 18.5zm50.6-18.5c8.4 0 30.3 3 30.3 27.6 0 24.6-21.9 27.6-30.3 27.6-8.3 0-30.3-3-30.3-27.6 0-24.6 22-27.6 30.3-27.6zm0 45.9c7.1 0 17.1-3.6 17.1-18.3 0-14.7-10-18.3-17.1-18.3-7.1 0-17.1 3.6-17.1 18.3 0 14.7 10 18.3 17.1 18.3zm101.3 8h-12.3v-44h-0.2l-11.7 44h-12.9l-11.5-44h-0.2v44h-12.3v-52.6h19.3l11.4 41.4h0.1l11.3-41.4h19zm73.2 0h-12.3v-43.9h-0.2l-11.8 43.9h-12.9l-11.5-43.9h-0.2v43.9h-12.2v-52.5h19.2l11.4 41.4h0.2l11.2-41.4h19.1zm63-18.4c0 13.8-10 19.7-25.9 19.7-5.8 0-14.4-1.1-20-6.3-3.4-3.2-4.8-7.5-4.9-12.7v-34.8h13.4v34c0 7.4 5.1 10.6 11.3 10.6 9 0 12.7-3.7 12.7-10v-34.6h13.5c0 0 0 34.1-0.1 34.1zm51.3-34.1h12.3v52.5h-13.2l-25.6-37.5h-0.2v37.5h-12.3v-52.5h13.9l24.9 36.6h0.2zm23.9 0h13.2v52.5h-13.2zm65.7 17.2c-1.1-3.1-3.1-9.1-14-9.1-6.3 0-15.6 3.5-15.6 18.4 0 9.4 4.5 17.9 15.6 17.9 7.3 0 12.4-3.5 14-9.9h13.1c-2.6 11.4-11.5 19.4-27.3 19.4-16.8 0-28.8-9.4-28.8-27.6 0-18.3 12.7-27.6 28.9-27.6 18.9 0 26.5 10.8 27.2 18.5zm32.2 35.3h-13.9l22.5-52.5h15.1l22.2 52.5h-14.3l-4-10.8h-23.3zm7.9-19.8h16.1l-7.8-20.8h-0.2zm65.5 19.8h-13.2v-43.3h-19.1v-9.2h51.3v9.2h-19zm25.8-52.5h13.1v52.5h-13.1zm52.9-1.3c8.3 0 30.2 3 30.2 27.6 0 24.6-21.9 27.6-30.2 27.6-8.4 0-30.3-3-30.3-27.6 0-24.6 21.9-27.6 30.3-27.6zm0 45.9c7.1 0 17-3.6 17-18.3 0-14.7-9.9-18.4-17-18.4-7.1 0-17.1 3.7-17.1 18.4 0 14.7 10 18.3 17.1 18.3zm79.2-44.6h12.3v52.6h-13.2l-25.6-37.5h-0.2v37.5h-12.3v-52.6h13.8l25 36.6h0.2zm34.3 36.4c0.1 2.9 1.9 8.4 13.3 8.4 6.2 0 13.2-1.2 13.2-6.8 0-4.1-4.7-5.1-11.4-6.5l-6.7-1.3c-10.2-2-20-3.8-20-15.4 0-5.8 3.7-16.1 24.2-16.1 19.3 0 24.4 10.5 24.6 16.9h-12.7c-0.4-2.3-1.4-7.9-12.9-7.9-4.9 0-10.9 1.6-10.9 6.3 0 4.1 4 5 6.6 5.5l15.3 3.1c8.6 1.8 16.5 4.7 16.5 14.1 0 15.8-19.3 17.2-24.8 17.2-23 0-26.9-11-26.9-17.5 0 0 12.6 0 12.6 0z"/>
		<path id="Layer" class="s0" d="m270.8 153.3c0 20-6 37.7-17 54.8-12.3 18.9-47.8 60.5-47.8 60.5 11.7-15 19-33.4 20.3-53.3h-57.4c-2.7 22.3-21.7 39.5-44.8 39.5-24.9 0-45.1-20.2-45.1-45.1 0-24.9 20.2-45.1 45.1-45.1 21 0 38.7 14.3 43.7 33.7h58.1c-5.5-49.5-48.7-88.1-101.3-88.1-56.3 0-102 44.3-102 98.9 0 38.3 22.6 71.5 55.5 87.9l-16.1-5c-36-11.9-62-45.8-62-85.7v-134.3l84.2-71v107.1l47.7-30.9c14.1-9 30.7-14.2 48.7-14.2 49.8 0 90.2 40.4 90.2 90.3z"/>
	</g>
</svg>