<svg version="1.2" xmlns="http://www.w3.org/2000/svg" viewBox="0 0 1524 417" width="1524" height="417">
	<title>alamarlogo-svg</title>
	<style>
		.s0 { fill: #ffffff } 
	</style>
	<g id="e3f096d6-a639-4de7-a9a1-3a3e26bca4b1">
		<g id="f01d5a18-9de0-482d-abf5-1cc20bf379b5">
			<path id="Layer" fill-rule="evenodd" class="s0" d="m122.2 119.6v85.1q-2.9 0.9-5.9 1.8-3 0.8-6 1.5-3.1 0.8-6.1 1.5-3 0.6-6.1 1.2-3.9 0.8-7.9 1.3-4 0.6-8 0.9-4 0.4-8 0.5-4.1 0.2-8.1 0.1-3.3 0.1-6.6-0.1-3.4-0.1-6.7-0.5-3.3-0.3-6.6-0.8-3.3-0.5-6.5-1.1-2.8-0.6-5.5-1.4-2.7-0.8-5.3-1.8-2.6-1.1-5.1-2.4-2.5-1.4-4.8-2.9-2.1-1.5-4.1-3.2-1.9-1.7-3.6-3.7-1.7-1.9-3.1-4.1-1.4-2.1-2.5-4.4-1.3-2.7-2.2-5.5-0.9-2.8-1.5-5.7-0.6-2.9-0.8-5.9-0.3-2.9-0.2-5.9-0.1-3 0.2-6 0.3-3 1.1-5.9 0.7-3 1.8-5.8 1.2-2.8 2.7-5.4 1.4-2.2 3.1-4.3 1.6-2.1 3.5-3.9 1.9-1.9 4-3.5 2.1-1.6 4.4-3 2.4-1.4 4.9-2.6 2.5-1.2 5.1-2.2 2.6-1 5.2-1.8 2.7-0.8 5.4-1.3 2.8-0.6 5.6-1.1 2.8-0.4 5.6-0.7 2.9-0.3 5.7-0.4 2.8-0.2 5.7-0.2c5.5 0 11.5 0.3 18.1 0.8v-3.4q0-1.3-0.1-2.7-0.1-1.3-0.4-2.7-0.3-1.3-0.7-2.6-0.5-1.3-1-2.5-0.6-1.1-1.2-2-0.7-1-1.5-1.8-0.8-0.9-1.7-1.6-0.9-0.7-1.9-1.3-1.1-0.7-2.3-1.2-1.2-0.5-2.4-0.9-1.2-0.4-2.5-0.7-1.3-0.3-2.6-0.5-1.6-0.2-3.2-0.4-1.6-0.1-3.2-0.2-1.6-0.1-3.2-0.2-1.6 0-3.2 0-4.2 0-8.4 0.4-4.1 0.4-8.3 1.2-4.1 0.7-8.1 1.8-4.1 1.1-8 2.5-0.9-1.6-1.7-3.4-0.9-1.7-1.6-3.4-0.8-1.8-1.4-3.6-0.7-1.8-1.2-3.6-0.6-1.9-1-3.8-0.3-2-0.6-3.9-0.2-2-0.3-3.9-0.1-2-0.1-4 3-1 6.1-1.9 3.1-1 6.2-1.7 3.1-0.8 6.3-1.5 3.1-0.6 6.3-1.2 2.9-0.4 5.8-0.8 2.9-0.3 5.9-0.6 2.9-0.2 5.8-0.4 3-0.1 5.9-0.1 29.4 0 46 14 16.6 14.2 16.6 45.4zm-39.1 23.4c-2.2-0.4-4.7-0.7-7.3-1.1q-0.9-0.1-1.8-0.1-0.9-0.1-1.8-0.1-0.9-0.1-1.7-0.1-0.9 0-1.8 0-2.9-0.2-5.7 0-2.8 0.2-5.6 0.8-2.8 0.6-5.5 1.6-2.6 0.9-5.2 2.2-2 1.3-3.6 3.1-1.7 1.7-2.8 3.8-1.1 2.2-1.5 4.5-0.5 2.4-0.4 4.8 0 1.5 0.2 3 0.2 1.5 0.6 2.9 0.4 1.5 1.1 2.8 0.7 1.4 1.6 2.6 0.7 1 1.6 1.8 0.8 0.8 1.8 1.6 0.9 0.7 2 1.3 1 0.6 2.1 1.1 1.1 0.5 2.3 0.9 1.1 0.3 2.3 0.6 1.2 0.3 2.4 0.5 1.2 0.2 2.4 0.3 1 0.1 2.1 0.1 1.1 0.1 2.2 0.2 1.1 0 2.2 0.1 1 0 2.1 0 1.1 0 2.1 0 1.1-0.1 2.2-0.2 1-0.1 2.1-0.2 1-0.1 2.1-0.3l7.2-1.3zm136.6 36.3q0.7-0.1 1.4-0.2 0.6-0.1 1.3-0.2 0.6-0.1 1.3-0.2 0.6-0.1 1.3-0.3 0.7 2.8 1.3 5.6 0.6 2.8 1 5.7 0.4 2.8 0.6 5.7 0.2 2.8 0.2 5.7v4.1q0 0.6 0 1.1-0.1 0.5-0.2 1 0 0.5-0.1 1-0.2 0.6-0.3 1.1-1.3 0.3-2.7 0.6-1.3 0.4-2.7 0.6-1.3 0.2-2.7 0.4-1.4 0.2-2.7 0.3c-4.4 0.6-8.2 0.6-11.8 0.6q-4.8 0.2-9.5-0.5-4.7-0.7-9.2-2.3-4.5-1.5-8.6-3.9-4.1-2.4-7.7-5.6-13.2-12-13.2-39.2v-157.6q2.5-0.4 5-0.8 2.5-0.3 5-0.5 2.6-0.2 5.1-0.3 2.5-0.1 5-0.2 2.5 0.1 5 0.2 2.5 0.1 5 0.3 2.4 0.3 4.9 0.6 2.5 0.3 4.9 0.8v148.9q0 1.7 0 3.5 0.1 1.8 0.2 3.5 0.1 1.8 0.3 3.5 0.2 1.8 0.5 3.5 0.2 1.2 0.4 2.3 0.3 1.1 0.7 2.2 0.4 1.1 0.9 2.1 0.6 1 1.2 2 0.5 0.7 1.1 1.3 0.6 0.6 1.3 1.1 0.7 0.5 1.5 0.8 0.7 0.4 1.6 0.7 1 0.3 2.1 0.5 1 0.2 2.1 0.3 1 0.2 2.1 0.2 1.1 0.1 2.2 0.1 0.6 0 1.2 0 0.6-0.1 1.3-0.1 0.6 0 1.2-0.1 0.6 0 1.2-0.1zm125.4-105q16.6 14.1 16.6 45.3v85.2q-3 0.9-6 1.7-3 0.9-6 1.6-3 0.8-6.1 1.4-3 0.7-6 1.3-4 0.7-8 1.3-4 0.5-8 0.9-4 0.3-8 0.5-4 0.1-8 0.1-3.3 0-6.7-0.1-3.3-0.2-6.6-0.5-3.3-0.3-6.6-0.8-3.3-0.5-6.6-1.2-2.7-0.5-5.4-1.3-2.7-0.8-5.3-1.9-2.6-1.1-5.1-2.4-2.5-1.3-4.8-2.9-2.2-1.4-4.1-3.2-1.9-1.7-3.6-3.7-1.7-2-3.1-4.1-1.4-2.2-2.5-4.6-1.2-2.7-2.2-5.5-0.9-2.8-1.5-5.7-0.6-2.9-0.8-5.8-0.3-3-0.2-5.9-0.1-3 0.3-6 0.3-3 1-5.9 0.8-2.9 1.9-5.6 1.2-2.8 2.7-5.4 1.4-2.2 3-4.3 1.7-2.1 3.6-3.9 1.9-1.9 4-3.5 2.1-1.6 4.4-3 2.3-1.4 4.8-2.6 2.5-1.2 5.1-2.2 2.6-1 5.2-1.8 2.7-0.8 5.4-1.4 2.8-0.6 5.6-1 2.8-0.4 5.7-0.7 2.8-0.3 5.7-0.5 2.8-0.1 5.7-0.1c5.4 0 11.4 0.2 18.1 0.8v-3.4q0-1.4-0.1-2.7-0.1-1.4-0.4-2.7-0.3-1.4-0.7-2.6-0.5-1.3-1.1-2.6-0.5-1-1.2-1.9-0.6-1-1.4-1.8-0.8-0.9-1.7-1.6-0.9-0.8-1.9-1.4-1.1-0.6-2.3-1.1-1.2-0.6-2.4-1-1.3-0.4-2.5-0.7-1.3-0.3-2.6-0.4-1.6-0.2-3.2-0.4-1.6-0.2-3.2-0.3-1.6-0.1-3.2-0.1-1.6-0.1-3.3-0.1-4.1 0.1-8.3 0.5-4.2 0.4-8.3 1.1-4.1 0.8-8.1 1.9-4.1 1.1-8 2.5-0.9-1.7-1.8-3.4-0.8-1.7-1.5-3.5-0.8-1.7-1.4-3.5-0.7-1.8-1.3-3.7-0.5-1.9-0.9-3.8-0.4-1.9-0.6-3.9-0.3-1.9-0.4-3.9-0.1-1.9 0-3.9 3-1.1 6.1-2 3.1-0.9 6.2-1.7 3.1-0.8 6.3-1.4 3.1-0.7 6.3-1.2 2.9-0.5 5.8-0.8 2.9-0.4 5.8-0.6 3-0.3 5.9-0.4 2.9-0.1 5.9-0.2 29.4 0 46 14.1zm-22.4 68.7c-2.3-0.3-4.8-0.7-7.4-1q-0.9-0.1-1.8-0.2-0.8 0-1.7-0.1-0.9 0-1.8-0.1-0.9 0-1.8 0-2.8-0.1-5.6 0.1-2.8 0.2-5.5 0.8-2.8 0.6-5.4 1.6-2.7 0.9-5.2 2.2-2 1.3-3.7 3-1.6 1.8-2.7 3.9-1.1 2.1-1.6 4.5-0.5 2.3-0.3 4.7-0.1 1.5 0.1 3 0.1 1.5 0.5 3 0.4 1.4 1 2.8 0.7 1.3 1.5 2.6 0.8 0.9 1.6 1.8 0.9 0.8 1.8 1.6 1 0.7 2 1.3 1 0.6 2.1 1.1 1.1 0.5 2.3 0.8 1.1 0.4 2.3 0.7 1.2 0.3 2.4 0.5 1.2 0.1 2.4 0.2 1.1 0.1 2.1 0.2 1.1 0.1 2.2 0.1 1.1 0.1 2.1 0.1 1.1 0 2.2 0 1.1 0.1 2.1 0 1.1 0 2.2-0.1 1-0.1 2.1-0.2 1.1-0.1 2.1-0.3l7.4-1.3zm238.6-83c16.5 0 28.8 4.7 36.6 13.8 7.8 9.2 11.8 23.5 11.8 42.9v93.3q-5 0.8-10.1 1.3-5 0.4-10 0.4-5.1 0-10.1-0.4-5.1-0.5-10-1.3v-82.9q0.1-2.9-0.1-5.9-0.2-3-0.6-6-0.5-2.9-1.3-5.8-0.8-2.9-1.9-5.7-1.1-2.1-2.7-3.7-1.6-1.7-3.7-2.8-2.1-1.1-4.4-1.5-2.3-0.5-4.6-0.2-1.2 0-2.4 0.1-1.1 0.1-2.3 0.3-1.2 0.2-2.4 0.4-1.1 0.3-2.2 0.6-1.3 0.4-2.4 0.9-1.2 0.5-2.2 1.2-1.1 0.7-2.1 1.5-1 0.8-1.8 1.7-1.1 1.1-2 2.4-1 1.2-1.8 2.6-0.8 1.4-1.4 2.8-0.6 1.4-1.1 2.9-0.7 2.2-1.1 4.5-0.5 2.2-0.8 4.4-0.3 2.3-0.4 4.6-0.1 2.3-0.1 4.5v79.1q-5 0.8-10 1.3-5 0.4-10.1 0.4-5 0-10.1-0.4-5-0.5-10-1.3v-82.9q0.2-2.9 0-5.9-0.2-3-0.7-6-0.5-2.9-1.2-5.8-0.8-2.9-1.9-5.7-1.1-2.1-2.7-3.7-1.7-1.7-3.7-2.8-2.1-1.1-4.4-1.5-2.3-0.5-4.6-0.2-1.3 0-2.5 0.1-1.2 0.1-2.4 0.3-1.2 0.1-2.4 0.4-1.2 0.3-2.4 0.6-1.2 0.4-2.4 0.9-1.2 0.6-2.3 1.3-1.1 0.7-2.1 1.5-1 0.8-1.8 1.8-1.1 1.3-2 2.6-0.9 1.4-1.7 2.8-0.8 1.5-1.4 3-0.6 1.5-1 3.1-0.6 2.4-1.1 4.8-0.5 2.4-0.7 4.8-0.3 2.4-0.4 4.8-0.1 2.5-0.1 4.9v76.8q-4.9 0.8-10 1.3-5 0.4-10.1 0.4-5 0-10.1-0.4-5-0.5-10-1.3v-146.4q1-0.2 2-0.4 1-0.2 2-0.3 1-0.2 1.9-0.3 1-0.2 2-0.3 1.1-0.1 2.2-0.1 1.1-0.1 2.2-0.2 1.1 0 2.2-0.1 1.1 0 2.2 0 1.1 0 2.2 0 1.1 0.1 2.2 0.1 1.1 0.1 2.2 0.2 1.1 0.1 2.1 0.2 3.7 0.4 7.7 1.3 0.3 0.4 0.5 0.9 0.2 0.5 0.4 1.1 0.2 0.5 0.4 1 0.1 0.5 0.3 1.1c0.4 1.8 0.9 3.7 1.2 5.6 0.4 2 0.7 4.1 1 5.8 0.3 1.7 0.5 3.3 0.8 4.7q0.6-1.1 1.3-2.3 0.6-1.1 1.4-2.1 0.7-1.1 1.5-2.1 0.8-1.1 1.7-2 0.9-1.1 2-2.2 1-1 2.1-1.9 1.1-1 2.3-1.9 1.2-0.9 2.4-1.7 1.3-0.9 2.7-1.6 1.4-0.8 2.8-1.5 1.5-0.7 2.9-1.3 1.5-0.6 3-1.1 1.7-0.6 3.5-1 1.7-0.4 3.5-0.6 1.7-0.3 3.5-0.4 1.8-0.2 3.6-0.2 34.2 0 43.9 26.1 1.5-2.6 3.2-5.1 1.8-2.6 3.8-4.9 2-2.3 4.3-4.3 2.2-2.1 4.7-3.9 2.8-2.1 6-3.6 3.1-1.5 6.4-2.5 3.4-1 6.8-1.5 3.5-0.4 7-0.3zm197.2 59.6v85.1q-3 0.9-6 1.8-2.9 0.8-6 1.5-3 0.8-6 1.5-3 0.6-6.1 1.2-3.9 0.8-7.9 1.3-4 0.6-8 0.9-4 0.4-8 0.5-4 0.2-8.1 0.1-3.3 0.1-6.6-0.1-3.3-0.1-6.7-0.4-3.3-0.4-6.6-0.9-3.3-0.5-6.5-1.1-2.8-0.6-5.5-1.4-2.7-0.8-5.3-1.8-2.6-1.1-5.1-2.4-2.5-1.4-4.8-2.9-2.1-1.5-4-3.2-2-1.7-3.6-3.7-1.7-1.9-3.1-4.1-1.4-2.1-2.6-4.4-1.2-2.7-2.1-5.5-0.9-2.8-1.5-5.7-0.6-2.9-0.9-5.9-0.2-2.9-0.1-5.9-0.1-3 0.2-6 0.3-2.9 1-5.8 0.8-2.9 1.9-5.7 1.2-2.8 2.7-5.4 1.4-2.2 3-4.3 1.7-2.1 3.6-3.9 1.9-1.9 4-3.5 2.1-1.6 4.4-3 2.3-1.4 4.8-2.6 2.5-1.2 5.1-2.2 2.6-1 5.2-1.8 2.7-0.8 5.4-1.3 2.8-0.6 5.6-1.1 2.8-0.4 5.7-0.7 2.8-0.3 5.7-0.4 2.8-0.2 5.7-0.2c5.4 0 11.5 0.3 18.1 0.8v-3.4q0-1.4-0.1-2.8-0.1-1.4-0.4-2.8-0.3-1.4-0.7-2.8-0.5-1.3-1.1-2.6-0.5-1-1.2-1.9-0.7-0.9-1.5-1.7-0.8-0.9-1.7-1.6-0.9-0.7-1.9-1.2-1.1-0.7-2.3-1.2-1.2-0.5-2.4-0.9-1.2-0.4-2.5-0.7-1.2-0.3-2.5-0.5-1.6-0.2-3.2-0.3-1.6-0.2-3.3-0.3-1.6-0.1-3.2-0.2-1.6 0-3.2 0-4.2 0-8.4 0.4-4.1 0.4-8.2 1.2-4.2 0.7-8.2 1.8-4 1.1-8 2.5-0.9-1.6-1.7-3.4-0.8-1.7-1.6-3.4-0.7-1.8-1.4-3.6-0.6-1.8-1.2-3.6-0.5-1.9-0.9-3.8-0.4-2-0.7-3.9-0.2-2-0.3-3.9-0.1-2-0.1-4 3.1-1 6.1-1.9 3.1-1 6.2-1.7 3.2-0.8 6.3-1.5 3.1-0.6 6.3-1.1 2.9-0.5 5.8-0.9 3-0.3 5.9-0.6 2.9-0.2 5.9-0.4 2.9-0.1 5.8-0.1 29.5 0 46 14 16.6 14.2 16.6 45.4zm-39.1 23.1c-2.2-0.3-4.7-0.7-7.4-1q-0.8-0.1-1.7-0.2-0.9 0-1.8-0.1-0.9 0-1.7 0-0.9-0.1-1.8-0.1-2.8-0.1-5.7 0.1-2.8 0.3-5.6 0.9-2.8 0.6-5.5 1.6-2.7 1-5.2 2.4-2 1.2-3.6 3-1.6 1.8-2.7 3.9-1 2.1-1.5 4.5-0.4 2.3-0.2 4.7-0.1 1.5 0 3 0.2 1.5 0.6 2.9 0.4 1.5 1 2.8 0.6 1.4 1.5 2.6 0.7 1 1.6 1.8 0.8 0.9 1.8 1.6 0.9 0.7 1.9 1.3 1.1 0.7 2.2 1.1 1.1 0.5 2.2 0.9 1.2 0.4 2.4 0.6 1.1 0.3 2.3 0.5 1.2 0.2 2.4 0.3 1.1 0.1 2.2 0.2 1.1 0 2.1 0.1 1.1 0 2.2 0.1 1.1 0 2.2 0 1 0 2.1 0 1-0.1 2.1-0.2 1.1 0 2.1-0.2 1.1-0.1 2.1-0.3l7.4-1.3zm163.1-73.3c0.3 2.4 0.3 4.4 0.3 7.6 0 3.3-0.1 6.7-0.4 10.5q-0.1 1.4-0.3 2.7-0.1 1.4-0.3 2.7-0.2 1.4-0.5 2.7-0.2 1.4-0.5 2.7-0.9-0.1-1.7-0.2-0.9-0.2-1.8-0.2-0.8-0.1-1.7-0.1-0.9-0.1-1.8-0.1h-4.6q-1.4 0.1-2.7 0.1-1.4 0.1-2.7 0.2-1.4 0.1-2.7 0.3-1.4 0.2-2.7 0.4-1.6 0.3-3.1 0.8-1.5 0.5-2.9 1.1-1.4 0.7-2.8 1.5-1.3 0.9-2.5 1.9-1.5 1.3-2.8 2.7-1.4 1.5-2.5 3.1-1.1 1.6-2 3.3-0.9 1.8-1.6 3.6-1 2.9-1.8 5.8-0.7 3-1.1 6-0.5 2.9-0.6 6-0.2 3-0.1 6v69.7c-3.3 0.6-6.8 0.9-10.2 1.2-3.4 0.3-6.7 0.3-9.9 0.3-3.2 0-6.4-0.1-9.7-0.3q-5-0.3-10.4-1.2v-146.6q4.3-0.9 8.1-1.3 1-0.1 2.1-0.2 1 0 2.1-0.1 1-0.1 2.1-0.1 1 0 2 0 1.1 0 2.1 0.1 1 0 2 0.1 1 0.1 2.1 0.2 1 0.1 2 0.3 4 0.5 8 1.4 0.3 0.5 0.5 1 0.3 0.5 0.5 1 0.1 0.5 0.3 1 0.2 0.6 0.3 1.1c0.5 1.8 0.9 3.7 1.2 5.7 0.4 1.9 0.8 3.8 1 5.9 0.3 2 0.8 3.7 0.8 5q1.6-2.3 3.3-4.4 1.8-2.1 3.7-4.1 1.9-2 4-3.8 2.1-1.8 4.2-3.5 2.5-1.8 5.2-3.1 2.7-1.4 5.6-2.3 2.9-0.8 5.9-1.2 3-0.4 6-0.3 2.8 0 6.5 0 0.7 0 1.4 0.1 0.7 0.1 1.3 0.2 0.7 0.1 1.4 0.3 0.6 0.1 1.3 0.3 0.1 0.8 0.3 1.6 0.1 0.8 0.2 1.6 0.1 0.8 0.2 1.7 0.1 0.8 0.1 1.6zm625.8-67.6q2.6 0.1 5.3 0.3 2.6 0.2 5.2 0.6 2.6 0.3 5.2 0.7v208.4q-2.6 0.4-5.1 0.8-2.6 0.3-5.2 0.5-2.6 0.2-5.2 0.3-2.6 0.1-5.2 0.1-2.6 0-5.2-0.1-2.7-0.1-5.3-0.3-2.6-0.2-5.2-0.5-2.7-0.3-5.3-0.8v-208.4q2.6-0.4 5.2-0.7 2.6-0.4 5.2-0.6 2.6-0.2 5.1-0.3 2.6-0.1 5.2-0.1 2.7 0 5.3 0.1zm-170.1 49.1q5.1-0.4 10.3-0.4 5.1 0 10.2 0.4 5.2 0.4 10.3 1.3v88.5q-2.6 0.4-5.2 0.8-2.5 0.3-5.1 0.5-2.6 0.2-5.2 0.3-2.6 0.1-5.2 0.1-2.6 0-5.1-0.1-2.6-0.1-5.1-0.3-2.6-0.2-5.1-0.5-2.6-0.4-5.1-0.8v-88.5q5.1-0.9 10.3-1.3zm90.3-49.4q5.1-0.4 10.3-0.4 5.2 0 10.4 0.4 5.2 0.5 10.3 1.4v135.8q0.2 4.9-0.1 9.9-0.3 4.9-1.1 9.8-0.7 4.9-2 9.6-1.2 4.8-2.9 9.4-1.3 3.3-2.9 6.4-1.7 3-3.8 5.8-2.1 2.8-4.5 5.3-2.5 2.5-5.3 4.7-2.6 1.9-5.5 3.5-2.8 1.6-5.9 2.8-3 1.3-6.2 2.2-3.1 0.9-6.4 1.3-3.5 0.7-7.1 1.1-3.5 0.5-7.1 0.8-3.6 0.3-7.2 0.4-3.5 0.1-7.1 0.1-4 0-8-0.1-4-0.2-8-0.6-4-0.4-8-1-3.9-0.6-7.9-1.4-3.1-0.5-6.2-1.2-3.1-0.7-6.1-1.5-3.1-0.8-6.2-1.7-3-0.8-6-1.8v-44.1q2.5 0.4 5 0.7 2.6 0.4 5.1 0.6 2.6 0.2 5.1 0.3 2.6 0.1 5.1 0.1 2.6 0 5.2-0.1 2.6-0.1 5.2-0.3 2.6-0.2 5.2-0.6 2.6-0.3 5.1-0.7v17q2.2 0.6 4.5 1 2.2 0.4 4.5 0.7 2.2 0.2 4.5 0.3 2.3 0.1 4.5 0.1 1.8 0 3.5-0.1 1.7-0.1 3.5-0.3 1.7-0.3 3.4-0.6 1.7-0.4 3.3-0.9 1.4-0.4 2.8-1.1 1.3-0.6 2.5-1.4 1.3-0.8 2.4-1.8 1.1-1 2-2.1 1.1-1.3 2-2.8 0.9-1.4 1.7-3 0.7-1.5 1.3-3.1 0.5-1.7 0.9-3.3 0.5-2.5 0.9-4.9 0.3-2.4 0.6-4.9 0.2-2.5 0.3-5 0.1-2.4 0-4.9v-134.4q5.2-0.9 10.4-1.4zm-138.3 84.7q1.9 3 3.6 6.1 1.6 3.1 2.9 6.3 1.3 3.3 2.3 6.6 1.1 3.7 1.9 7.5 0.8 3.7 1.3 7.5 0.6 3.8 0.8 7.7 0.3 3.8 0.3 7.7 0 3.8-0.3 7.6-0.2 3.8-0.7 7.5-0.6 3.8-1.4 7.5-0.8 3.7-1.9 7.4-1 3.3-2.3 6.5-1.3 3.2-3 6.3-1.6 3.1-3.5 5.9-2 2.9-4.2 5.6-2.3 2.6-4.8 4.9-2.5 2.4-5.3 4.4-2.8 2.1-5.8 3.8-3 1.7-6.2 3-3.7 1.5-7.5 2.7-3.9 1.1-7.8 1.8-3.9 0.8-7.9 1.1-4 0.3-7.9 0.2-4 0.1-8-0.2-4-0.3-7.9-1.1-4-0.7-7.8-1.9-3.8-1.1-7.5-2.7-1.6-0.6-3.1-1.4-1.5-0.8-2.9-1.6-1.5-0.8-2.9-1.7-1.4-0.9-2.8-1.9 0 0-0.1 0.1-0.1 0.1-0.1 0.1-0.1 0.1-0.1 0.2-0.1 0-0.1 0.1-3.6 3.1-7.8 5.5-4.1 2.3-8.6 3.9-4.5 1.5-9.2 2.2-4.7 0.7-9.5 0.4h-51.7q-4.8 0.2-9.5-0.4-4.7-0.7-9.2-2.3-4.5-1.6-8.6-4-4.1-2.4-7.7-5.5-13.2-12-13.2-39.3v-157.6q2.5-0.4 5-0.7 2.5-0.4 5-0.6 2.6-0.2 5.1-0.3 2.5-0.1 5-0.1 2.5 0 5 0.1 2.5 0.1 5 0.3 2.5 0.2 5 0.6 2.4 0.3 4.9 0.7v149.1q0 1.7 0 3.5 0.1 1.8 0.2 3.5 0.1 1.8 0.3 3.5 0.2 1.8 0.5 3.5 0.1 1.1 0.4 2.2 0.3 1.1 0.7 2.2 0.4 1 0.9 2 0.5 1 1.1 2 0.5 0.7 1.1 1.3 0.6 0.7 1.3 1.2 0.7 0.5 1.5 0.9 0.8 0.4 1.6 0.7 1.1 0.3 2.1 0.5 1.1 0.2 2.1 0.4 1.1 0.1 2.2 0.2 1.1 0 2.1 0h33q1 0 2-0.1 0.9 0 1.9-0.2 0.9-0.1 1.9-0.3 0.9-0.2 1.8-0.5 0.9-0.3 1.6-0.7 0.8-0.4 1.5-0.9 0.7-0.5 1.3-1.2 0.7-0.6 1.2-1.3 0.6-1 1.1-2 0.5-1 0.9-2 0.3-1.1 0.6-2.2 0.3-1.1 0.4-2.2 0.3-1.7 0.5-3.5 0.2-1.7 0.4-3.5 0.1-1.7 0.1-3.5 0.1-1.8 0.1-3.5v-7.8c-0.4-2.8-0.4-5.6-0.4-8.5q0-3.9 0.2-7.7 0.3-3.9 0.9-7.7 0.5-3.8 1.4-7.5 0.8-3.8 1.9-7.5 1-3.3 2.4-6.5 1.3-3.3 2.9-6.4 1.7-3 3.6-5.9 1.9-3 4.2-5.7 2.2-2.6 4.7-4.9 2.5-2.4 5.2-4.5 2.8-2 5.8-3.7 2.9-1.8 6.1-3.2 3.6-1.5 7.4-2.7 3.8-1.1 7.7-1.9 4-0.7 7.9-1.1 4-0.3 8-0.2 4-0.1 7.9 0.2 4 0.4 7.9 1.1 4 0.8 7.8 1.9 3.8 1.2 7.5 2.7 3.2 1.4 6.2 3.2 3 1.7 5.8 3.7 2.7 2.1 5.3 4.5 2.5 2.3 4.8 4.9 2.2 2.7 4.2 5.6zm-27.7 49.1q0.1-22-6.9-33.8c-1.2-1.9-2.6-3.7-4.2-5.2-1.7-1.6-3.5-2.9-5.5-3.9-2-1.1-4.2-1.8-6.4-2.3-2.2-0.4-4.4-0.5-6.7-0.4-2.2-0.1-4.5 0-6.6 0.5-2.2 0.4-4.3 1.2-6.3 2.2-2 1-3.8 2.3-5.5 3.9-1.6 1.5-3 3.3-4.1 5.2q-6.9 11.7-6.9 33.8-0.1 22.1 6.9 33.9c1.1 1.9 2.5 3.7 4.1 5.2 1.7 1.5 3.5 2.9 5.5 3.9 2 1 4.1 1.8 6.3 2.2 2.1 0.5 4.4 0.6 6.6 0.5 2.3 0.1 4.5 0 6.7-0.4 2.2-0.5 4.4-1.2 6.4-2.3 2-1 3.8-2.3 5.5-3.9 1.6-1.5 3-3.3 4.2-5.2q6.9-11.8 6.9-33.9zm80.6-102q-1.2 0.3-2.4 0.6-1.2 0.3-2.4 0.5-1.3 0.2-2.5 0.2-1.3 0.1-2.5 0.1-2.3 0.1-4.7-0.1-2.3-0.3-4.6-0.8-2.3-0.4-4.5-1.2-2.2-0.8-4.3-1.8-1.7-0.8-3.4-1.8-1.6-0.9-3.1-2.1-1.6-1.1-3-2.5-1.4-1.3-2.6-2.7 0.3-1.4 0.8-2.7 0.5-1.3 1.1-2.6 0.6-1.2 1.3-2.4 0.7-1.3 1.4-2.4 0.9-1.3 1.7-2.5 0.9-1.2 1.7-2.3 0.9-1.2 1.9-2.4 0.9-1.1 1.9-2.2 1.1 1 2.2 1.9 1.1 0.9 2.3 1.7 1.2 0.8 2.5 1.4 1.2 0.7 2.6 1.3 1.1 0.4 2.2 0.6 1.2 0.3 2.4 0.5 1.2 0.1 2.3 0.2 1.2 0.1 2.4 0 1.2 0 2.5-0.1 1.2 0 2.4-0.2 1.2-0.2 2.4-0.5 1.2-0.3 2.3-0.6c3-0.9 6.2-2 9.4-3.1q4.8-1.7 9.8-2.9 1.2-0.4 2.4-0.6 1.3-0.3 2.5-0.5 1.3-0.1 2.6-0.2 1.3-0.1 2.5-0.1 2.4-0.1 4.7 0.2 2.4 0.2 4.7 0.7 2.3 0.4 4.5 1.2 2.2 0.7 4.4 1.6 1.8 0.8 3.5 1.8 1.7 1 3.2 2.1 1.6 1.2 3 2.5 1.4 1.4 2.7 2.9-0.5 1.3-1 2.7-0.5 1.3-1.1 2.6-0.6 1.3-1.2 2.6-0.7 1.3-1.4 2.5-0.7 1.3-1.6 2.6-0.8 1.2-1.7 2.4-0.9 1.1-1.9 2.2-1 1.2-2 2.2-1.1-1-2.3-2-1.1-0.9-2.3-1.7-1.3-0.8-2.6-1.6-1.3-0.7-2.6-1.3-1.1-0.3-2.2-0.6-1.1-0.3-2.2-0.5-1.2-0.2-2.3-0.2-1.1-0.1-2.3-0.1-1.3 0-2.6 0-1.3 0.1-2.6 0.3-1.3 0.2-2.6 0.4-1.3 0.3-2.6 0.6c-3.2 0.9-6.5 1.9-9.6 3q-4.5 1.7-9.3 3.1zm-326.7 26.7q0.5 1.9 0.8 3.8 0.3 1.8 0.5 3.7 0.2 1.9 0.3 3.8 0.1 1.9 0.1 3.8 0 0.9 0 1.9 0 1-0.1 2 0 0.9-0.1 1.9-0.1 1-0.2 2-0.1 0.9-0.2 1.9-0.2 1-0.3 2-0.2 1-0.4 1.9-0.2 1-0.4 2h-19.2v106.9q0 27.2-13.6 39.3-13.7 12-39.4 12-3.5 0-7.1-0.2-3.5-0.2-7-0.6-3.5-0.4-7-1-3.5-0.6-7-1.3 0-2 0.1-3.9 0-1.9 0.2-3.9 0.1-1.9 0.3-3.8 0.3-1.9 0.5-3.9 0.3-1.7 0.7-3.5 0.4-1.7 0.9-3.5 0.5-1.7 1.1-3.4 0.6-1.7 1.3-3.3c2.1 0.3 4.1 0.7 6.8 1.1q1 0.2 2 0.3 1 0.1 2 0.1 1 0.1 1.9 0.2 1 0 2 0 1.1 0 2.2-0.1 1.1 0 2.2-0.2 1.1-0.1 2.2-0.3 1-0.2 2.1-0.5 1-0.3 1.9-0.7 1-0.4 1.9-0.9 0.9-0.5 1.7-1.2 0.8-0.6 1.6-1.3 0.8-0.9 1.5-1.9 0.7-1 1.3-2.1 0.6-1 1-2.1 0.5-1.2 0.8-2.3 0.5-1.7 0.8-3.5 0.4-1.7 0.6-3.5 0.2-1.8 0.3-3.5 0.1-1.8 0-3.6v-130.6z"/>
			<path id="Layer" class="s0" d="m850.6 320.9c-28.9-13.8-52.4-29-56.5-52.8v-0.6q2.4-0.5 4.7-0.8 2.3-0.3 4.7-0.5 2.3-0.2 4.7-0.3 2.3-0.2 4.7-0.2 2.7 0 5.3 0.1 2.7 0.2 5.4 0.4 2.6 0.2 5.3 0.5 2.7 0.4 5.3 0.8-0.1 1-0.1 2-0.1 0.9-0.1 1.9 0 1 0.1 2 0 1 0.1 1.9 0.6 6.1 2 12.1 1.3 5.9 3.4 11.6 2 5.8 4.8 11.2 2.7 5.5 6.2 10.5m227.6-54.9q2.7 0.1 5.3 0.3 2.6 0.2 5.3 0.5 2.6 0.4 5.2 0.8v7c-2 35.4-16.3 69-40.5 94.8-24.3 25.9-56.8 42.4-92 46.7-35.2 4.2-70.7-4-100.4-23.3-29.7-19.4-51.6-48.6-62-82.5q0.2 0.5 0.4 0.9 0.2 0.5 0.5 0.9 0.2 0.4 0.5 0.8 0.2 0.5 0.5 0.9 2.1 3.6 4.6 7.1 2.4 3.4 5.2 6.6 2.8 3.2 5.9 6.1 3.1 2.9 6.4 5.5 3.6 2.8 7.4 5.4 3.8 2.6 7.7 5 3.9 2.3 8 4.4 4.1 2.1 8.3 3.9 4.3 1.9 8.6 3.6 4.4 1.7 8.8 3.3 4.4 1.5 8.9 2.8 4.5 1.3 9.1 2.4 4.3 1.1 8.7 1.9 4.3 0.9 8.7 1.6 4.4 0.6 8.9 1.2 4.4 0.5 8.8 0.9 4.6 0.3 9.1 0.3 4.5 0 9.1-0.2 4.5-0.2 9-0.7 4.5-0.4 9-1.2c12.1-1.7 23.7-5.5 34.5-11.2 10.9-5.6 20.6-13 29-21.9 8.4-8.8 15.2-19 20.3-30.1 5-11.1 8.1-23 9.2-35.2q0.1-0.9 0.1-1.9 0-0.9 0-1.9 0-0.9 0-1.9 0-0.9-0.1-1.9 2.3-0.4 4.7-0.7 2.3-0.3 4.6-0.5 2.4-0.3 4.7-0.4 2.4-0.1 4.7-0.2 2.7 0 5.3 0.1z"/>
		</g>
	</g>
</svg>