<svg version="1.2" xmlns="http://www.w3.org/2000/svg" viewBox="0 0 1650 284" width="1650" height="284">
	<title>logo_logomark-svg</title>
	<style>
		.s0 { fill: #0082ca } 
		.s1 { fill: #79bd36 } 
		.s2 { fill: #000000 } 
	</style>
	<g id="Layer">
		<path id="blue" class="s0" d="m808 239.4l-19.1 44.6h-650.2l19.1-44.6z" />
		<path id="green" class="s1" d="m807.7 239.4h650.2l-19.1 44.6h-650.2z" />
		<path id="path-1" fill-rule="evenodd" class="s2" d="m1650 35.8l-66.2 193.9c-17.5 53.9-50.4 54.3-70.4 54.3h-44.3l18.8-43.6h20.8c20.8 0 21.6-14.6 17.4-25.3l-55.6-144.2h-0.1c1.4 4.9 2.5 12.4 2.5 20.7v107.6h-55.1v-99.1c0-18.4-11.5-26-24-26c-12.4 0-23.2 10.1-23.2 26v99.1h-56v-99.1c0-18.4-11.6-26-24-26c-12.5 0-23.2 10.1-23.2 26v99.1h-55.6v-99.1c0-18.4-11.6-26-24-26c-12.4 0-23.2 10.1-23.2 26v99.1h-56v-99.1c0-18.4-11.6-26-24-26c-12.5 0-23.2 10.1-23.2 26v99.1h-116.5c-6-7.6-9.5-16.8-9.5-16.8c-10.3 13.1-30.5 20.9-56.9 20.9c-22 0-47-10.9-52-34.6c-11 17.7-35 35.4-83.4 35.4c-39.6 0-65.7-12.8-77.4-27.2l8.7 22.3h-55l-11.1-31.6h-70.8l-11.1 31.6h-56.2l8.9-22.5c-11.8 13.4-34.9 27.4-67.8 27.4c-37.8 0-63.5-15.5-77.5-38.2v33.3h-141.6v-38c-10.4 22.8-41.5 43-94.5 43c-70.4 0-95.6-33.3-96.8-63.5h57.9c0 0 3.7 23.2 37.9 23.2c28.9 0 37.5-10.5 37.5-18.5c0-8.9-5.6-14.8-24.2-19.3c-18.6-4.5-57.4-11.2-77.5-21.8c-21-11.2-28-27.5-28-44.6c0-17.2 10.4-58.8 89.3-58.8c65 0 86.4 28.1 88 55.8h-56.9c0 0-3.7-17.8-31.1-17.8c-22.6 0-28.8 9.6-28.8 15.9c0 6.1 3.6 12.8 23.9 16.9c20.3 4.1 53.9 10.6 71.2 18c13.2 5.6 25.6 13.8 32.1 28.1v-86.3h138.8v36c15.8-24.6 43.8-40.7 80.5-40.7c49.7 0 75.9 28.4 80.5 53.1h-49.3c0 0-6.3-12.8-30.7-12.8c-24.3 0-43 19.2-43 48.5c0 29.3 17.7 48.7 42 48.7c30.5 0 36.7-18.5 36.7-33h-39.8v-34.7h85.6v42.5l41.7-107.9h75.8l42.2 109h52.8c0 0 2.4 23.5 37.1 23.5c26.5 0 31.7-12.1 31.7-17.7c0-5.6-1.4-15.1-22.7-20c-21.4-5-59.8-13-75.4-23.2c-15.6-10.2-24.1-23-24.1-43.2c0-20.3 12.4-58.7 86.7-58.7c61.6 0 83.9 27.6 85.8 55.8h-58.7c0 0-2.1-18.1-29.1-18.1c-21.2 0-26.8 10.4-26.8 15.7c0 5.3 1.3 12.8 25.4 17.9c24.2 5.1 56.8 11.1 75.7 23.9c13.4 9.1 19.5 19.1 21.9 30.7c5.4-7.9 13.6-12.8 24.7-16c22.2-6.5 46.6-7.7 57.3-11.1c11.7-3.8 15.7-7 15.7-16.7c0-9.5-7-14.8-19.3-14.8c-19.8 0-22.2 16.6-22.2 16.6h-53.7c4.6-35.7 32.6-53.4 77.4-53.4c45.4 0 76.7 17.1 76.7 60.8v66.9c0 27.7 10.1 34.9 13.9 36.6v-159.9h55.3v23.7c3-5.2 18.5-28.8 50.1-28.8c26.2 0 43 14.2 49 29.5c0 0 14.6-29.5 54-29.5c25.1 0 42.6 13.4 48.8 29.5c0 0 14.6-29.5 54-29.5c25.1 0 42.6 13.4 48.8 29.5c0 0 14.6-29.5 54.1-29.5c22.3 0 38.5 10.8 47 26.2l-8.5-21.1h59.8l39.2 123.4l37.4-123.4zm-1054.1 96.2l-22.9-65.6l-23 65.6zm-277.1-18.1c0-16.4 4-31.7 11.5-44.7h-83.7v27.4h60.5v34.7h-60.5v29.4h83.5c-7.5-13.8-11.3-29.8-11.3-46.8zm612.5 10.2c-12.4 6.5-26.7 8.1-36.6 11.4c-9.9 3.3-13 10.1-13 17.1c0 7 6.2 15 19.9 15c24.2 0 29.7-19.7 29.7-28.4z" />
	</g>
</svg>