<svg version="1.2" xmlns="http://www.w3.org/2000/svg" viewBox="0 0 1539 647" width="1539" height="647">
	<title>upload_7li6ijntodb40qrfdrmahbx4dsa87aji-1-pdf-svg</title>
	<defs>
		<clipPath clipPathUnits="userSpaceOnUse" id="cp1">
			<path d="m-1166.33-2133.24h16629.64v10944.74h-16629.64z"/>
		</clipPath>
	</defs>
	<style>
		.s0 { fill: #3e3d3f } 
		.s1 { fill: #f7931d } 
		.s2 { fill: #ffffff } 
	</style>
	<g id="Clip-Path: Page 1" clip-path="url(#cp1)">
		<g id="Page 1">
			<path id="Path 100" fill-rule="evenodd" class="s0" d="m851 109.5c0 7.6-5.7 13.3-13.3 13.3h-66.4v62.7h60.1c7.6 0 13.3 5.7 13.3 13.3 0 7.6-5.7 13.9-13.3 13.9h-60.1v73.4c0 7.6-6.4 13.9-14.6 13.9-7.6 0-14.5-6.3-14.5-13.9v-175.3c0-8.3 6.9-14.6 14.5-14.6h81c7.6 0 13.3 5.7 13.3 13.3zm53.2-0.6v179.8c0 7.5-6.4 14.5-14.6 14.5-7.6 0-14.6-7-14.6-14.5v-179.8c0-8.3 7-14.6 14.6-14.6 8.2 0 14.6 6.3 14.6 14.6zm171.4-1.9v181.7c0 7.5-6.3 13.9-14.5 13.9-5.7 0-10.1-2.6-13.3-7l-85.4-139.2v132.9c0 7.6-6.4 13.3-14 13.3-7.5 0-13.2-5.7-13.2-13.3v-182.3c0-7 5.7-13.3 13.2-13.3 6.4 0 9.5 3.8 12.1 7.6l87.9 141.8v-136.1c0-7 6.4-13.3 13.9-13.3 7.6 0 13.3 6.3 13.3 13.3zm165.2 96.8v41.8c0 34.2-26.6 57-65.8 57-43.7 0-68.4-26-68.4-70.9v-67.1c0-45 24.7-70.9 68.4-70.9 25.9 0 45.5 10.7 56.9 31.6 0.7 1.9 1.9 3.8 1.9 7 0 7.6-6.3 13.3-14.5 13.3-3.2 0-7.6-0.6-10.8-5.7-7.6-10.8-15.8-18.4-33.5-18.4-27.2 0-39.9 14.6-39.9 46.2v60.8c0 32.3 12.7 46.2 39.9 46.2 19 0 38.6-8.8 38.6-29.7v-27.9h-26.6c-7.6 0-13.9-5.7-13.9-13.3 0-7.6 6.3-13.9 13.9-13.9h40.5c7.6 0 13.3 6.3 13.3 13.9zm59.5-81v60.1h60.1c7.6 0 13.9 5.7 13.9 13.3 0 7.6-6.3 13.3-13.9 13.3h-60.1v64h66.4c7.6 0 13.3 5.7 13.3 13.3 0 7.5-5.7 13.2-13.3 13.2h-81c-7.6 0-13.9-6.3-13.9-13.9v-175.3c0-8.3 6.3-14.6 15.2-14.6h79.7c7.6 0 13.3 5.7 13.3 13.3 0 7.6-5.7 13.3-13.3 13.3zm234.8 157c1.2 2.5 1.9 5.7 1.9 8.2 0 8.2-6.3 14.6-14.6 14.6-5.7 0-10.7-3.2-13.9-9.5l-35.4-70.9h-32.9v66.5c0 7.5-6.4 13.9-14.6 13.9-8.2 0-14.5-6.4-14.5-14.6v-177.2c0-8.3 6.3-14.6 14.5-14.6h43c46.9 0 69.6 20.3 69.6 62.7 0 36.7-18.9 52.5-36.7 58.9zm-25.9-120.9c0-26-11.4-36.1-41.8-36.1h-26.5v72.1h29.7c27.2 0 38.6-10.7 38.6-36zm-640.4 213.3h-41.7v165.2c0 8.2-6.4 14.5-14.6 14.5-8.2 0-14.6-6.9-14.6-15.1v-164.6h-41.7c-7.6 0-13.3-5.7-13.3-13.3 0-7.6 5.7-13.3 13.3-13.3h112.6c8.2 0 13.9 5.1 13.9 13.3 0 7.6-6.3 13.3-13.9 13.3zm163.3 165.8c0 7.6-6.3 13.9-14.6 13.9-6.3 0-12-3.7-13.9-10.7l-13.3-41.2h-67.1l-12.6 41.2c-1.9 6.3-7.6 10.7-14.6 10.7-7.6 0-13.9-6.3-13.9-13.9 0-2.5 0.6-5 1.3-6.9l56.9-174.1c1.9-7.6 7-11.4 13.9-11.4h5.1c7 0 12 3.8 13.9 11.4l57.6 174.7c0.6 1.9 1.3 4.4 1.3 6.3zm-49.4-65.2l-25.9-83.5-26 83.5zm220.2-115.8v181.7c0 7.6-6.9 13.2-15.1 13.2-5.1 0-10.2-2.5-12.7-6.9l-86.1-139.3v133c0 7.6-5.7 13.2-13.2 13.2-7.6 0-13.3-5.6-13.3-13.2v-181.7c0-7.6 5.7-13.3 13.3-13.3 6.3 0 9.4 3.8 11.3 7l88.6 141.7v-135.4c0-7.6 6.4-13.3 14-13.3 6.9 0 13.2 5.7 13.2 13.3zm165.2 96.8v42.4c0 33.6-26.6 56.4-66.4 56.4-43.7 0-68.4-26-68.4-70.9v-66.5c0-45.6 24.7-70.9 68.4-70.9 26.5 0 45.5 10.2 56.9 31.7 0.6 1.2 1.9 3.8 1.9 6.3 0 7.6-6.3 13.9-14.5 13.9-2.6 0-7-0.6-10.8-6.3-7-10.8-15.8-18.4-33.5-18.4-27.3 0-39.3 14.6-39.3 46.3v61.4c0 31.6 12 45.5 39.3 45.5 18.9 0 38.6-8.8 38.6-29.1v-28.5h-26.6c-7.6 0-13.3-5.7-13.3-13.3 0-7.6 5.7-13.3 13.3-13.3h40.5c7.6 0 13.9 5.7 13.9 13.3zm167.1-38.6v66.5c0 44.9-25.4 70.9-68.4 70.9-43.6 0-68.3-26-68.3-70.9v-66.5c0-45.6 24.7-70.9 68.3-70.9 43 0 68.4 25.3 68.4 70.9zm-29.2 2.6c0-31.7-12-46.3-39.2-46.3-27.2 0-39.9 14.6-39.9 46.3v61.4c0 31.6 12.7 45.5 39.9 45.5 27.2 0 39.2-13.9 39.2-45.5z"/>
			<path id="Path 102" class="s1" d="m323.3 646.3c-178.5 0-322.8-144.4-322.8-323.1 0-178.8 144.3-323.2 322.8-323.2 178.4 0 322.7 144.4 322.7 323.2 0 178.7-144.3 323.1-322.7 323.1z"/>
			<path id="Path 103" fill-rule="evenodd" class="s2" d="m470.7 416.5v11.4c0 74.1-58.2 124.1-144.9 124.1-95.6 0-150-56.4-150-155.7v-146.3c0-98.7 54.4-155.7 150-155.7 57.6 0 100 23.4 125.3 69.6 1.2 3.2 3.8 8.3 3.8 14.6 0 17.1-13.9 29.8-31.7 29.8-6.3 0-16.4-1.3-23.4-12.7-15.8-24.1-34.8-39.9-74-39.9-60.1 0-86.7 31-86.7 100.7v133.5c0 70.3 26.6 101.3 86.7 101.3 42.4 0 84.8-20.2 84.8-64.6v-44.3m-134.8-95.5l194.3-1.3 0.6 112.7z"/>
		</g>
	</g>
</svg>