<svg version="1.2" xmlns="http://www.w3.org/2000/svg" viewBox="0 0 1531 337" width="1531" height="337">
	<title>13670-860-c1d3b5e8d489098077d1e7ff45142c9f-1593x483-svg</title>
	<style>
		.s0 { fill: #ffffff } 
	</style>
	<g id="#0173bcff">
		<path id="Layer" class="s0" d="m0 0.1q31 0 61.9 0c0 86.3 0 172.5 0 258.7 0.2 1.7 0.4 3.3 0.5 4.9 30.3-0.2 60.7-0.1 91.1-0.1 0 20.6 0 41.2 0 61.7-28.5 0.8-57.1 0.1-85.6 0.4-14.9-0.5-30.5-0.2-44.2-6.7-8.9-4-15.9-11.8-19.1-21.1-4.2-11.3-4.6-23.7-4.5-35.7-0.1-87.3 0-174.7-0.1-262.1z"/>
		<path id="Layer" class="s0" d="m1017.3 29.1c17.7-0.1 35.4-0.1 53.1 0 0.1 29.6 0 59.2 0 88.9 13.8 0 27.5 0 41.3 0-0.2 18.4-0.1 36.7-0.1 55.1q-20.6-0.2-41.2 0 0.1 33.7 0 67.4c-0.5 10.3 0.9 21.9 9.1 29.2 9.7 8.2 23.1 9.5 35.3 9.5 0.1 16.9 0 33.7 0.1 50.6-18.3 2.4-37.3 0.1-54.4-6.8-17.4-7-32.8-20.5-39.6-38.3-5.8-14.4-4.7-30.2-4.7-45.4q0.1-33.1 0.3-66.2c-5.9-0.1-11.8-0.1-17.8 0-0.1-18.4 0-36.8 0-55.2q9.1 0.2 18.3 0.1c0-29.7 0.2-59.3 0.3-88.9z"/>
		<path id="Layer" fill-rule="evenodd" class="s0" d="m453.5 131.4c13.2-12.3 31.5-17.6 49.2-18.8 25.6-1.5 51.2 4.5 75.1 13.3 0 19.5 0.4 38.9 0.4 58.3-12.9-12.9-30.8-18.9-48.1-22.8-9.3-2-20.2-2.7-28 3.7-6.7 5-9.1 14.8-5 22.1 5.1 9.9 16.9 13.6 27.2 14.9 19.5 2.2 38.4 13.1 48.5 30.2 10.5 17.8 11 40 5.4 59.5-4.3 15.8-16 29.1-30.8 36-19.4 9.2-41.6 9.9-62.6 8.2-16.8-1.9-34.2-5.8-48.2-15.8 0.3-19.3-0.1-38.5 0-57.8 13.3 12 29.7 21.3 47.7 23.3 10.3 1 21.5 2.5 31-2.7 7.2-3.8 9.5-13.8 5.6-20.7-2.7-4.2-6.9-7.3-11.4-9.3-8.4-3.9-17.7-5.1-26.5-7.9-13.3-3.8-26.8-9.6-35.9-20.5-10.3-12.5-12.9-29.5-13-45.2-0.5-17.7 6-36.1 19.4-48zm-209.4-4.6c19.6-10.1 42.4-14 64.1-10.8 26.9 3.6 52.2 17.9 69.1 39.2 14.2 17.5 22.6 39.6 23.6 62.1q0.1 56.6 0 113.2c-18.3-0.1-36.7 0-55.1 0 0-4.7 0-9.4 0-14.1-16.6 9.3-35.6 14.6-54.7 14.1-27.4-0.5-54.5-11.8-73.8-31.4-14.4-14.1-24.6-32.5-29.2-52.2-5.9-26.3-1.9-54.8 11.8-78.1 10.2-17.9 25.9-32.7 44.2-42zm38 43.6c-12.6 2.6-24 10-31.7 20.2-9.1 12.1-12.8 28.2-9.6 43 2.7 13.2 10.7 25.2 21.7 32.9 11.2 7.8 25.5 11.4 39 9.1 16-2.3 30.4-12.5 38.4-26.5 6.5-11.2 8.4-24.8 5.8-37.4-3.2-15.4-13.6-29.1-27.6-36.4-10.9-5.9-23.9-7.3-36-4.9zm608.7-36.2c19.2-13.1 43.1-17.2 65.9-17.3 0 17.7-0.1 35.4 0.1 53-12.6 0.6-25.9 3.2-35.8 11.6-7.2 5.9-11.7 15-11.5 24.4 0 40.2-0.1 80.3 0 120.5-18.1 0.1-36.1 0-54.1 0q-0.1-50.5-0.1-101c0.2-14.2-1-28.6 2.7-42.5 4.5-19.5 16-37.6 32.8-48.7zm586-12.3c17.6-4.6 35.9-5 53.9-4 0.1 17.7-0.2 35.4 0.2 53.1-19.4-4.8-41.1-2.3-57.5 9.7-11.4 8.3-19.2 21.4-20.7 35.5-2.5 20.1 3.6 42.8 20.3 55.6 15.7 12.2 37.1 13.7 55.9 9.4 0 16.8 0.1 33.5 0 50.3-23 3.3-47.1 3.1-69.1-5.2-19-6.9-35.8-20.1-46.4-37.3-13.3-21.2-17.7-47-16-71.6 1.5-22.2 9.1-44.4 23.6-61.6 14-17.3 34.4-28.6 55.8-33.9zm-276.9 9.4c27-14.1 59.8-16.2 88.7-6.6 29.6 9.8 54.5 33.4 65 62.9 3 9.2 6 18.8 5.6 28.6-0.2 9.1-6.3 17.2-14.3 21.1-10 5.1-21.5 5.9-32.6 5.7q-52.5 0-105 0c2.5 10.5 7.9 20.4 16.5 27.2 14.8 11.8 36.1 13.5 53.4 6.6 5.8-2.2 10.8-6.3 13.9-11.8 20-0.6 40.2-0.2 60.3-0.2-8.6 19.7-22.7 36.9-40.9 48.5-21.3 13.8-47.8 19.8-73 16.2-19.2-2.4-37.6-10.5-52.8-22.5-22.4-17.8-37.3-44.9-40-73.4-1.6-14.3 0-29 4.3-42.8 8.2-25.5 27-47.3 50.9-59.5zm19.4 54.1c-6 5.5-9.8 13.1-11.6 21.1 23.7 0 47.5 0 71.3 0 4.5-0.1 9.8-0.3 12.9-3.9 2.1-4-0.6-8.3-2.4-11.8-4.1-8.2-12.2-13.6-20.8-16.2-16.8-5.1-36.4-1.3-49.4 10.8zm-588.8-31c17-19 41.2-31.2 66.4-34.5 21.3-2.7 43.6 0 63.2 9.2 25.9 11.8 46.5 34.7 55.2 61.9 2.8 9.5 5.7 19.4 3.9 29.4-1.8 8.9-9.3 15.7-17.6 18.6-11.7 4.5-24.5 4-36.8 4-32.3 0-64.7-0.1-97.1 0 3.1 12 9.9 23.3 20.6 30.1 14.1 8.8 32.4 10 47.9 4.3 6.3-2.3 12.5-6.2 15.2-12.5 20.1-0.3 40.3-0.2 60.5-0.1-7.6 17.5-19.6 32.9-34.8 44.3-20.1 15.1-45.7 22.7-70.8 21.3-35.7-1.9-69.6-22.7-87.2-53.8-11.8-20.1-16.5-44.3-13.6-67.4 2.5-20.3 11.4-39.7 25-54.8zm49.9 30.4c-6.3 5.6-10.4 13.4-12.2 21.7 23.8 0 47.6 0 71.4 0 4.5-0.3 9.8-0.4 13-4 1.7-4.4-0.9-8.7-2.9-12.4-4.1-7.5-11.4-12.5-19.3-15.1-16.8-5.6-36.7-2-50 9.8z"/>
	</g>
</svg>