<svg version="1.2" xmlns="http://www.w3.org/2000/svg" viewBox="0 0 1526 717" width="1526" height="717">
	<title>logo (8)-svg (2)-svg</title>
	<style>
		.s0 { fill: #f5002f } 
	</style>
	<g id="#f5002fff">
		<path id="Layer" class="s0" d="m457.8 3.1c25.8-5.1 53-1 76.6 10.3 13.6 7.1 26.5 16.1 36.8 27.5 15.5 16.6 25.7 37.8 30.4 59.9 1.4 7.2 5.2 14 11.1 18.4 9 6.6 21.5 7.1 31.3 2.2 8.5-4.1 17.2-7.8 25.5-12.2 12.9-6.5 26.3-12.1 39.3-18.5 57.2-26.6 114.2-53.8 171.5-80.4 24.8-9.9 53-12.6 78.8-4.8 41.2 10.9 75.2 45.4 86.2 86.5 2.1 7.4 2.8 15.6 7.9 21.8 7.7 10 22.2 14.1 34 9 77.6-36.2 155.2-72.6 232.9-108.8 21.2-10.6 45.6-14.9 69.2-11.8 21.7 2.7 42.5 11.8 59.6 25.3 33.7 25.6 51.5 70.2 45.1 112-1.3 11.1-4.9 21.7-8 32.4-35.3 121.5-70.4 243.1-105.7 364.6-3.9 12.1-6.5 25-4.3 37.6 2.8 17.4 14.1 33.2 29.9 41.1 9 4.7 19.2 6.5 29.3 6.6q45.4 0 90.8 0v93.8q-184.1 0-368.2-0.1c-28.4 0.6-56.9 0.2-85.3 0.4-8.4 0.1-17-3.4-22.4-9.9-5.3-6.4-8-15.2-5.9-23.3 2.6-10.6 6.1-20.9 8.4-31.5 13.9-49.1 27.8-98.1 41.7-147.2 26.8-95.4 54.1-190.7 80.2-286.3 1.8-7.7 5.3-15.5 2.9-23.4-3.4-11.3-15.1-18.3-26.4-19-7.7-0.8-14.9 2.7-21.6 5.9-29.9 14.3-59.7 28.6-89.8 42.6-8.7 3.5-17.5 9.5-19.9 19.1-43 148.4-85.9 296.9-128.9 445.3-1 4-1 8.4-3.1 12.1-4.7 9.4-15.1 15.9-25.7 15.8-79 0-158.1 0.1-237.1 0-6.9 0-13.8-2.2-19.2-6.4-8.3-6.8-13.1-18.9-9.1-29.3 17.7-60.5 35.1-121.1 52.8-181.6 27.6-96 55.5-191.8 81.8-288.2 3.7-12.3-3-26.4-14.5-32-7.8-4.5-17.5-4.2-25.6-0.5-22.7 10.4-45.2 21.2-67.8 31.9-11.9 5.3-23.6 11-35.3 16.6-8.4 4.1-14.5 12.3-16.5 21.3-42.8 148-85.8 295.9-128.6 443.8-1.4 13.8-15.2 23.9-28.6 23.6-129.6 0-259.2-0.1-388.8 0-6.6-0.6-13.3-3.3-17.8-8.3-6-6.4-8-15.9-6-24.3 2.8-12.1 6.3-24 9.7-35.9 1.4-5.1 2.9-10.4 6.2-14.6 4.9-6.2 12.4-10.6 20.4-11.1 10.3-0.6 20.7 0.2 31 0.1 10 0 20-0.1 30 0.3 18.5 0.4 37.2-4.9 52.3-15.6 17.3-11.9 29.9-30.6 34.1-51.2 18.3-62.6 36.6-125.2 54.7-187.9 15.1-52.5 30.4-105 44.5-157.8 4.9-14.9-6.8-32.1-22.2-34.1-5-0.8-10.4-0.9-15.2 1.1-28.6 13.5-57.1 27.3-85.7 40.8-12.1 6.7-29.2 2.9-36.7-8.8-5.3-8.1-8.9-17.2-11.4-26.6-2.4-8.8 1.4-18.3 7.9-24.4 4.5-4.5 10.6-6.5 16.1-9.3 58-26.6 115.7-53.7 173.8-80.3 35.6-16.7 71.3-33.1 107-49.6 12.8-5.9 25.7-12 39.6-14.7z"/>
	</g>
</svg>