<svg version="1.2" xmlns="http://www.w3.org/2000/svg" viewBox="0 0 1422 896" width="1422" height="896">
	<title>supermax-corporation-logo-svg-vector-svg</title>
	<style>
		.s0 { fill: #0c0e0f } 
		.s1 { fill: #ffffff } 
		.s2 { fill: none;stroke: #ffffff;stroke-width: 10 } 
		.s3 { fill: none;stroke: #0c0e0f;stroke-width: 10 } 
	</style>
	<path id="Layer" fill-rule="evenodd" class="s0" d="m1012.4 90.1c0 0 80.5-75.5 191.3-15.1 0 0 60.4-95.6 115.8-70.5 55.4 30.2 45.3 136 10.1 171.2 0 0-5.1 25.2 10 45.3 15.1 20.2 10.1 135.9-25.1 166.1-50.4 35.3-55.4 25.2-55.4 25.2 0 0-30.2 80.5-50.4 95.7-20.1 20.1-30.2 35.2-60.4 40.2 0 0-60.4 55.4-60.4 80.6 0 25.2 10 80.5-5 115.8-15.1 35.2-75.6 135.9-110.8 151h-971.8v-120.8c0 0 216.5-176.2 483.4-297 0 0 45.3-20.2 60.4-55.4 20.2-30.2 80.6-70.5 115.8-85.6 35.3-20.1 146-70.5 196.4-115.8l30.2-30.1c0 0-70.5-110.8-10.1-151.1 65.5-40.3 136 50.3 136 50.3z"/>
	<path id="Layer" fill-rule="evenodd" class="s1" d="m1269.2 130.4c0 0 25.2-70.5 45.3-55.4 15.1 10.1 15.1 45.3 15.1 45.3 0 0-5.1-5-20.2-15.1 0 0 10.1 20.2-5 30.2 0 0-15.1-20.1-35.2-5zm-327.3 5c0 0-30.2 0-45.4 10.1 0 0-10-15.1 15.1-25.2 0 0-15.1-5-35.2 0 0 0-10.1-20.1 20.1-20.1 25.2 5 40.3 5 45.4 35.2zm-10.1 25.2c0 0-20.1 20.1-20.1 5-5.1-15 5-10 20.1-5zm151.1 95.7c0 0 25.1 10 35.2-5.1 0 0 15.1 20.2 0 25.2-20.1 5-45.3 0-35.2-20.1zm-70.5 40.2q-37.8 0-45.3-30.2c0-15.1 25.1-15.1 25.1-15.1-10 10.1-5 35.2 15.1 30.2 20.2-5 15.2-30.2 15.2-30.2 35.2 10.1 10 45.3-10.1 45.3zm196.3-35.2c20.2-5.1 5.1-30.2 5.1-30.2 0 0 35.2 0 35.2 20.1 0 15.1-20.1 25.2-40.3 30.2-15.1 0-35.2 0-35.2-15.1-5.1-15.1 15.1-25.1 15.1-25.1 0 10 0 25.1 20.1 20.1zm30.3 40.3c-40.3 5-50.4 55.1-50.4 55.4 5-25.2-10.1-70.5-10.1-70.5 15.1 15.1 60.5 15.1 60.5 15.1zm-50.4 55.4q0 0 0 0 0 0 0 0zm-196.4-30.3c25.2 0 55.4-25.1 55.4-25.1-40.3 65.4-55.4 25.1-55.4 25.1zm105.7 65.5c8.2-3.3 14.7-6.5 20.4-8.8-12 0-25.4 28.9-25.4 28.9-10-10.1-15.1-5 5-20.1zm20.4 11.2c11.9-4.7 19.8-24.9 30-11.2 15.1 20.1-15.1 20.1-15.1 20.1-3.4-6.7-9-8.9-14.9-8.9z"/>
	<path id="Layer" fill-rule="evenodd" class="s1" d="m1067.8 407.3c0 0 10 55.4 50.3 50.3 35.3-5 55.4-35.2 85.6-30.2 0 0 15.1-25.2-15.1-60.4 0 0 35.3 20.2 35.3 45.3 0 35.3 0 40.3-20.2 55.4-15.1 10-5 15.1-25.2 15.1-15.1-5.1-15.1-20.2-30.2-20.2 0 0 10.1 30.2-30.2 30.2-40.3 0-50.3-15.1-40.3-25.2 0 0-20.1-10-25.1 10.1 0 0-40.3 0-35.3-30.2 5.1-30.2-5-35.2 10.1-45.3 0 0 5 30.2 25.2 30.2 20.1 5.1 15.1-25.1 15.1-25.1zm10 100.6c0 0 25.2 30.3 80.6 0 0 0-45.3 60.5-80.6 0z"/>
	<path id="Layer" class="s2" d="m1022.5 422.4c0 0-100.8-25.2-176.3 0m25.2 65.4c60.4-60.4 151.1-40.2 151.1-40.2m5 10c0 0-85.6 0-110.8 50.4"/>
	<path id="Layer" class="s3" d="m1213.8 477.7c0 0 100.7 5.1 120.8 35.3m-100.7-60.4c0 0 95.7 5 105.8 30.2m-90.7-55.4c0 0 90.7-5 120.9 20.1m-95.7-40.2c0 0 120.8 0 141 25.2m-115.8-50.4c0 0 100.7 0 115.8 25.2"/>
	<path id="Layer" fill-rule="evenodd" class="s1" d="m997.3 266.3c0-5 5-10 5-10 5 0 10.1 5 10.1 10 0 0-5.1 5-10.1 5zm201.4-20.1c0 0 0-5 5-5 5.1 0 5.1 5 5.1 5 0 5.1 0 10.1-5.1 10.1-5 0-5-5.1-5-10.1z"/>
</svg>