<svg version="1.2" xmlns="http://www.w3.org/2000/svg" viewBox="0 0 1463 1568" width="1463" height="1568">
	<title>Mitsubishi_motors_new_logo-svg</title>
	<style>
		.s0 { fill: #ffffff } 
	</style>
	<g id="g44">
		<g id="g34">
			<path id="polygon2" fill-rule="evenodd" class="s0" d="m160.4 1304v-136.5l-58.1 97.8-59-97.8v136.5h-43.3v-193.6h56.2l46.1 79.3 44.3-79.3h57.2v193.6zm80.2-193.6h43.3v193.6h-43.3zm62.7 0h148.4v40.6h-52.5v153.1h-44.3v-153.1h-51.6zm164.1 191.8v-40.6c9.2 1.9 30.4 5.6 57.2 5.6 22.1 0 33.2-2.8 33.2-15.7 0-13.8-9.3-15.7-40.6-30.4-30.4-13.9-53.5-25.9-53.5-59.1 0-40.5 24.9-54.4 72.8-54.4 24.9 0 42.5 1.9 54.4 3.7v40.6c-11-0.9-30.4-3.7-52.5-3.7-25.8 0-31.4 2.8-31.4 13.8 0 11.1 13.9 16.6 35.1 25.9 32.2 14.7 58.1 26.7 58.1 63.6 0 38.7-24 56.3-75.6 56.3-20.3-1-38.8-2.8-57.2-5.6zm159.5-63.6v-128.2h43.3v126.3c0 22.2 12.9 29.6 34.2 29.6 20.2 0 34.1-7.4 34.1-29.6v-126.3h43.3v128.2c0 47-30.4 68.2-77.4 68.2-47.1 0-77.5-21.2-77.5-68.2zm276.6-128.2c39.7 0 61.8 14.8 61.8 49.8 0 27.7-15.7 36.9-30.4 42.4 17.5 5.6 35.9 14.8 35.9 47.1 0 34.1-20.3 54.4-63.6 54.4h-87.6v-193.7zm-6.5 78.4c17.6 0 24-9.2 24-22.1 0-15.7-7.4-19.4-24-19.4h-35v41.5zm2.8 79.3c17.5 0 24.9-6.5 24.9-23.1 0-14.7-6.5-21.2-23.1-21.2h-39.6v44.3zm95.9-157.7h43.3v193.7h-43.3zm74.6 191.8v-40.6c9.3 1.9 30.5 5.5 57.2 5.5 22.1 0 33.2-2.7 33.2-15.6 0-13.9-9.2-15.7-40.6-30.5-30.4-13.8-53.4-25.8-53.4-59 0-40.6 24.9-54.4 72.8-54.4 24.9 0 42.4 1.8 54.4 3.7v40.6c-11.1-1-30.4-3.7-52.6-3.7-25.8 0-31.3 2.7-31.3 13.8 0 11.1 13.8 16.6 35 25.8 32.3 14.8 58.1 26.8 58.1 63.7 0 38.7-24 56.2-75.6 56.2-19.3-0.9-38.7-2.7-57.2-5.5zm269.3 1.8v-76.5h-69.2v76.5h-43.3v-193.6h43.3v76.5h69.2v-76.5h43.3v193.6zm79.3-193.6h43.3v193.6h-43.3zm-1055.7 454.7v-136.5l-58.1 97.8-58.1-97.8v136.5h-44.2v-193.7h56.2l46.1 78.4 45.2-78.4h57.2v193.7zm73.7-96.8c0-69.2 26.8-99.6 83.9-99.6 57.2 0 83.9 30.4 83.9 99.6 0 69.1-26.7 99.6-83.9 99.6-57.1 0-83.9-30.5-83.9-99.6zm121.7 0c0-39.7-6.4-60-38.7-60-31.3 0-38.7 20.3-38.7 60 0 39.6 6.4 59.9 38.7 59.9 32.3 0 38.7-20.3 38.7-59.9zm52.6-96.9h148.4v40.6h-52.5v153.1h-43.4v-153.1h-52.5zm155.8 96.8c0-69.1 26.7-99.6 83.9-99.6 57.2 0 83.9 30.5 83.9 99.6 0 69.2-26.7 99.6-83.9 99.6-57.2 0-83.9-30.4-83.9-99.6zm121.7 0c0-39.6-6.5-59.9-38.7-59.9-32.3 0-38.7 20.3-38.7 59.9 0 39.7 6.4 60 38.7 60 32.2 0 38.7-20.3 38.7-60zm153.1-96.8c41.4 0 68.2 15.7 68.2 61.8 0 30.4-14.8 49.8-39.7 55.3l48 76.6h-50.7l-40.6-69.2h-19.4v69.2h-43.3v-193.7zm-1.8 86.7c19.3 0 25.8-10.2 25.8-24.9 0-14.8-6.5-24.9-25.8-24.9h-32.3v49.8zm95.9 104.2v-40.6c9.2 1.9 30.4 5.6 57.1 5.6 22.2 0 33.2-2.8 33.2-15.7 0-13.9-9.2-15.7-40.5-30.5-30.5-13.8-53.5-25.8-53.5-59 0-40.6 24.9-54.4 72.8-54.4 24.9 0 42.4 1.9 54.4 3.7v40.6c-11-0.9-30.4-3.7-52.5-3.7-25.8 0-31.4 2.8-31.4 12.9 0 11.1 13.9 16.6 35.1 25.8 32.2 14.8 58.1 26.8 58.1 63.7 0 38.7-24 56.2-75.7 56.2-19.3 0.9-38.7-0.9-57.1-4.6z"/>
		</g>
		<g id="g42">
			<path id="polygon36" class="s0" d="m728.4 642.8l-185.3-321.9 185.3-320.9 186.2 320.9zm0 0h371.6l185.3 321h-370.6zm-185.3 320.9h-370.7l185.3-320.9h370.7z"/>
		</g>
	</g>
</svg>