<svg version="1.2" xmlns="http://www.w3.org/2000/svg" viewBox="0 0 1500 1169" width="1500" height="1169">
	<title>2020092508025713259987285f6da431620da-1-pdf-svg (2)-svg</title>
	<style>
		.s0 { fill: #ffffff } 
	</style>
	<path id="Path 5" class="s0" d="m288.3 160.2c0 0-65.7-25.1-65.7-90.8 0 0-3.1-68.9 65.7-68.9h485.1c0 0 72 0 72 72 0 0 3.1 43.8-43.8 72 0 0-18.8 12.5-25.1 31.3l-43.8 200.4 216-216c0 0-50.1-34.5-50.1-81.4 0 0 0-75.2 62.6-75.2h472.5c0 0 65.7 0 65.7 65.8 0 0 6.3 62.6-68.8 84.5 0 0-25 0-40.7 18.8l-406.8 425.7 172.1 413.2c0 0 68.8 43.9 68.8 90.8 0 0 9.4 62.6-68.8 62.6h-388.1c0 0-62.5 0-62.5-65.7 0 0-9.4-62.6 68.8-87.7l-115.8-288-112.7 294.3c0 0 62.6 12.5 62.6 84.5 0 0 6.3 65.8-90.7 65.8h-456.9c0 0-59.5 3.1-59.5-68.9 0 0-6.2-47 56.3-75.1z"/>
</svg>