<svg version="1.2" xmlns="http://www.w3.org/2000/svg" viewBox="0 0 1584 181" width="1584" height="181">
	<title>Mitsubishi_Corporation-svg</title>
	<style>
		.s0 { fill: #ffffff } 
		.s1 { fill: #d52c28 } 
	</style>
	<g id="Layer1">
		<g id="Layer">
			<path id="Layer" fill-rule="evenodd" class="s0" d="m358.3 55.8c-9 1.5-12.7 1.5-12.7 13.2v64.3c0 11.1 3.2 12.2 12.7 12.7v3.2h-40.9v-3.2c11.7-0.5 13.3-2.6 13.3-14.3v-64.8l-36.6 82.3h-2.1l-35.6-79.1h-1.1v57.9c0 14.3 3.2 17.5 14.4 18v3.2h-34.5v-3.2c11.1-0.5 14.3-2.6 14.3-18v-59c0-11.7-3.2-12.7-14.3-13.2v-2.2h28.6l33.5 72.8 31.8-72.8h29.2zm6.4 90.8c8.5-0.5 10.6-1 10.6-12.2v-33.4c0-8.5-2.1-9.1-4.8-9.1-1.6 0-3.7 0.6-5.8 0.6v-1.6c7.9-2.7 15.4-5.9 22.3-8h1v51.5c0 9 0 11.7 10.7 12.2v2.7h-34zm15.4-96.1c4.2 0 7.9 3.2 7.9 6.9 0 4.8-3.7 7.4-7.9 7.4-4.8 0-6.9-4.8-6.9-7.4 0-2.7 2.1-6.9 6.9-6.9zm58.9 38.2h-14.9v40.9c0 4.8 0 13.8 7.5 13.8 4.7 0 7.4-3.7 9-5.8l2.1 2.1c-3.7 5.8-10.6 10.6-17 10.6-7.4 0-13.8-3.7-13.8-18.6v-43h-6.9c-1-0.5-1-0.5-1-1.1 0-1.6 3.1-2.6 6.3-5.3 5.3-6.3 8-9.5 12.8-17 1 0 1 1.1 1 2.2v16.4h14.9zm46.7 14.4c-3.7-14.4-9.5-17-16.4-17-8 0-10.7 5.3-10.7 9.5 0 2.2 1.1 6.4 5.9 9.6l15.9 9.5c6.9 4.8 12.2 8 12.2 17 0 12.8-11.7 18.6-20.7 18.6-6.9 0-12.7-2.1-17-2.1-2.1 0-2.6 0-3.2 1.6h-2.1v-22.3h2.7c1 6.9 4.2 19.6 18 19.6 5.3 0 11.7-2.1 11.7-10.1 0-5.3-2.7-8.5-6.9-10.6l-9-5.3c-8.5-4.8-16.5-10.1-16.5-20.7 0-8.5 6.4-17.5 20.7-17.5 5.9 0 10.6 2.1 13.3 2.1 1 0 1.6-0.5 2.1-1.1h1.6v19.2zm81.8 40.3c-8 2.1-13.3 4.8-20.2 6.9v-12.2l-5.9 6.4c-6.3 5.3-12.7 5.8-15.4 5.8-6.3 0-18-3.7-18-18.6v-36.1c0-9.5-3.7-9.5-8-9.5v-2.2h20.7v46.8c0 2.6 1.6 11.1 10.7 11.1 4.2 0 9-2.1 13.2-4.8 1.1-1.5 2.1-2.6 2.1-7.4v-34c0-5.8-0.5-8.5-11.1-9.5v-2.2h22.8v49.4c0 5.3 0.6 8.5 9.1 8.5zm13.2-77c0-4.2 0-7.4-6.3-7.4-1.1 0-2.7 0-3.2 0v-2.7c6.9-1.6 13.8-3.7 20.7-5.8h0.5v43.5h0.5c1.1-3.1 9.1-11.1 19.7-11.1 18 0 25.5 16.5 25.5 31.8 0 13.3-8.5 35.6-35.1 35.6-7.4 0-22.3-3.7-22.3-9zm11.7 72.2c0 4.8 10.6 6.9 14.3 6.9 16 0 18.6-15.9 18.6-25.5 0-13.2-4.8-28.1-18-28.1-4.3 0-14.4 2.1-14.9 10.1zm52.6 7.9c9-0.5 11.6-1 11.6-12.2v-33.4c0-8.5-2.6-9.1-5.3-9.1-1.6 0-3.7 0.6-5.8 0.6v-1.6c7.9-2.7 15.4-5.9 22.8-8h0.5v51.5c0 9.1 0.6 11.7 11.2 12.2v2.7h-35zm16.4-96.1c4.3 0 7.4 3.2 7.4 6.9 0 4.8-3.1 7.4-7.4 7.4-5.3 0-7.4-4.8-7.4-7.4 0-2.7 2.6-6.9 7.4-6.9zm65.3 52.6c-3.7-14.4-10.1-17-16.5-17-7.9 0-10.6 5.3-10.6 9.5 0 2.1 1.1 6.4 6.4 9.6l15.4 9.5c6.9 4.8 12.2 8 12.2 17 0 12.8-11.7 18.6-20.7 18.6-6.9 0-13.3-2.1-17.5-2.1-1.6 0-2.1 0-2.7 1.6h-2.1v-22.3h2.7c1 6.9 4.2 19.6 18 19.6 5.3 0 11.7-2.1 11.7-10.1 0-5.3-2.7-8.5-7.4-10.6l-8.5-5.3c-8.5-4.8-16.5-10.1-16.5-20.7 0-8.5 6.4-17.5 20.2-17.5 5.8 0 11.1 2.1 13.2 2.1 1.6 0 1.6-0.5 2.7-1.1h1.1l0.5 19.2zm82.8 46.1h-30.3v-2.6c6.4-0.5 9.6-1.1 9.6-12.2v-28.7c0-9.5-3.2-14.9-11.1-14.9-3.8 0-9.6 1.6-15.4 8.5v35.1c0 11.1 2.1 11.7 9.5 12.2v2.6h-31.3v-2.6c8-1.1 9-1.6 9-12.2v-68c0-4.2 0-7.4-5.8-7.4q-1.6 0-3.2 0v-2.7c6.9-1.6 13.8-3.7 20.7-5.8l1.1 0.5v43c5.3-6.9 11.6-11.1 21.2-11.1 17.5 0 17.5 17 17.5 22.3v29.2c0 10.6 1.6 11.1 8.5 12.2zm4.2-2.7c9.6-0.5 11.7-1 11.7-12.2v-33.4c0-8.5-3.2-9.1-5.8-9.1-1.6 0-3.2 0.6-5.3 0.6v-1.6c7.4-2.7 14.8-5.9 22.3-8h1v51.5c0 9.1 0.6 11.7 10.7 12.2v2.7h-34.6zm16.5-96.1c4.3 0 7.4 3.2 7.4 6.9 0 4.8-3.1 7.4-7.4 7.4-5.3 0-6.9-4.8-6.9-7.4 0-2.7 1.6-6.9 6.9-6.9zm143.9 33.4c-3.2-14.8-13.8-26.5-31.9-26.5-6.9 0-15.4 2.6-21.8 8-5.3 5.8-12.2 15.4-12.2 36.1 0 30.2 18.1 43.5 36.1 43.5 17.6 0 28.2-10.6 32.4-14.9l2.1 2.7c0 0-12.2 18-38.7 18-23.4 0-48.3-13.8-48.3-49.9 0-31.8 24.4-49.4 49.3-49.4 12.8 0 21.8 4.3 25 4.3 0.5 0 5.8 0 6.9-4.3h3.2l1 32.4zm78.1 32.4c0 13.8-10.1 34-31.9 34-18.6 0-32.4-14.9-32.4-34 0-17.5 12.8-33.4 31.4-33.4 19.6 0 32.9 12.2 32.9 33.4zm-13.3 4.3c0-18.6-7.4-34.5-20.2-34.5-9 0-17 7.9-17 22.8 0 11.1 3.2 37.2 20.2 37.2 8 0 17-5.3 17-25.5zm28.7-19.7c0-8.5-3.2-9-5.3-9-2.2 0-3.2 0.5-4.3 0.5v-1.6c6.4-2.6 13.8-5.8 21.2-7.9h0.6v12.7c6.9-10.6 11.1-12.7 17-12.7 5.8 0 7.9 3.2 7.9 7.9 0 2.7-2.1 5.9-5.8 5.9-4.3 0-5.8-4.8-9.6-4.8-3.7 0-9.5 6.9-9.5 11.2v32.3c0 10.7 4.8 11.2 12.2 11.2v2.6h-35v-2.6c7.9-1.1 10.6-1.6 10.6-9.6zm48.3-0.5c0-6.4-0.6-8.5-5.9-8.5-1.6 0-2.6 0-4.2 0.5v-2.6c6.9-2.1 13.8-4.8 20.7-6.9h1.1v10.6c3.7-4.2 10-10.6 20.7-10.6 13.2 0 24.4 11.1 24.4 30.8 0 16.4-10.6 36.6-30.8 36.6-5.3 0-9.6-1.6-14.3-5.8v22.3c0 9 2.1 11.1 12.7 11.1v2.2h-35v-2.2c10-0.5 10.6-3.7 10.6-9.5zm11.7 36.1c0 3.2 6.9 9 14.8 9 4.3 0 17.5-2.1 17.5-27.6 0-3.2 0-26.6-18-26.6-5.3 0-13.3 4.3-14.3 9.6zm117.3-20.2c0 13.8-10.6 34-32.4 34-18.6 0-31.9-14.9-31.9-34 0-17.5 12.2-33.4 31.4-33.4 19.1 0 32.9 12.2 32.9 33.4zm-13.3 4.3c0-18.6-7.4-34.5-20.7-34.5-8.5 0-16.5 7.9-17 22.8 0 11.1 3.7 37.2 20.7 37.2 6.9 0 17-5.4 17-25.5zm28.7-19.7c0-8.5-3.2-9-4.8-9-2.7 0-4.3 0.5-5.9 0.5v-1.6c7.5-2.6 14.9-5.8 22.3-7.9h0.6v12.7c6.3-10.6 11.7-12.7 17-12.7 4.7 0 7.9 3.2 7.9 7.9 0 2.7-2.1 5.9-5.8 5.9-4.8 0-5.9-4.8-9.6-4.8-3.7 0-9.5 6.9-9.5 11.1v32.4c0 10.7 4.7 11.2 12.2 11.2v2.6h-35.1v-2.6c8-1.1 10.7-1.6 10.7-9.6zm100.3 42.5c-5.8 6.9-10.1 6.9-12.7 6.9-2.7 0-8 0-9.1-10.6-5.3 5.3-12.7 10.6-20.7 10.6-7.9 0-15.9-5.3-15.9-14.9 0-14.3 12.7-19.1 36.6-28.6v-9.1c0-10-6.9-11.6-11.7-11.6-4.2 0-9.5 2.6-9.5 6.9 0 2.6 0.5 4.7 0.5 5.8 0 2.7-3.2 5.8-6.9 5.8-4.2 0-5.8-3.7-5.8-5.8 0-5.8 6.9-15.9 23.9-15.9 21.2 0 21.2 13.8 21.2 22.8v28.2c0 4.2 0 8.4 4.3 8.4 3.1 0 4.7-1.5 5.8-2.6zm-21.8-33.5c-22.3 7.5-23.9 15.4-23.9 20.2v0.5c0 7 4.3 11.2 9.6 11.2 3.7 0 8.5-2.1 9.5-2.1 4.3-2.1 4.8-4.3 4.8-8zm59.5-21.2h-14.9v40.9c0 4.7 0 13.8 8 13.8 4.2 0 6.9-3.8 8.5-5.9l1.6 2.1c-3.2 5.9-10.1 10.7-17 10.7-6.9 0-12.8-3.8-12.8-18.6v-43h-7.9c-0.6-0.6-0.6-0.6-0.6-1.1 0-1.6 3.2-2.6 6.4-5.3 5.3-6.4 8-9.6 13.3-17 0.5 0 0.5 1.1 0.5 2.1v16.5h14.9zm5.8 57.9c8.5-0.6 11.2-1.1 11.2-12.2v-33.5c0-8.5-2.7-9-4.8-9-2.1 0-4.3 0.5-5.9 0.5v-1.6c7.5-2.6 14.9-5.8 21.8-7.9h1.1v51.5c0 9 0.5 11.6 10.6 12.2v2.6h-34zm15.9-96.1c4.3 0 7.5 3.2 7.5 6.9 0 4.8-3.2 7.5-7.5 7.5-4.7 0-7.4-4.8-7.4-7.5 0-2.6 2.7-6.9 7.4-6.9zm89.8 65.9c0 13.8-10.7 33.9-33 33.9-18 0-30.7-14.8-30.7-33.9 0-17.6 11.6-33.5 30.7-33.5 19.7 0 33 12.2 33 33.5zm-13.3 4.2c0-18.6-6.9-34.5-20.7-34.5-9 0-17 8-17 22.8 0 11.2 3.2 37.2 20.7 37.2 7.4 0 17-5.3 17-25.5zm28.6-20.2c0-9-2.1-9.5-4.7-9.5-1.6 0-3.2 0.5-4.3 0.5v-2.7c6.9-1.5 13.8-3.7 20.2-5.8h0.5v11.2c7.5-6.4 12.8-11.2 21.8-11.2 6.4 0 17 3.2 17 21.2v33.5c0 6.9 1.6 8.5 8.5 9v2.7h-30.3v-2.7c5.9-0.5 9-1 9-12.2v-29.7c0-9-2.6-13.8-10.6-13.8-4.8 0-9 2.1-14.3 7.9v40.9c0 4.8 1.6 6.4 9.5 6.9v2.7h-31.3v-2.7c7.5-0.5 9-2.1 9-11.1z"/>
			<path id="Layer" fill-rule="evenodd" class="s1" d="m84.4 97.7l-28.7 49.4h-55.7l28.1-49.4z"/>
			<path id="Layer" fill-rule="evenodd" class="s1" d="m112 49.4l-27.6 48.3-28.7-48.3 28.7-49.4z"/>
			<path id="Layer" fill-rule="evenodd" class="s1" d="m168.8 147.1h-56.8l-27.6-49.4h55.7z"/>
		</g>
	</g>
</svg>