<svg version="1.2" xmlns="http://www.w3.org/2000/svg" viewBox="0 0 1131 1571" width="1131" height="1571">
	<title>v2-250275cf1c5bf51f5e491b9f93c744eb_1440w-svg</title>
	<style>
		.s0 { fill: #ffffff } 
	</style>
	<g id="#009cffff">
		<path id="Layer" class="s0" d="m459.5 200.6c80.1-64.6 154.8-135.5 234.5-200.4 33.8 40 69 78.7 102.5 118.9 0.4 2.4 1.3 7.1 1.8 9.4-149.1 131.7-302.7 258.2-454.3 387-63.8 55.9-126 119.2-155.2 200.7-29.5 82-17.1 175.2 22.6 251.7 27.2 50.7 66.7 93.8 111.1 130.1 88.2 74.5 175.7 149.8 264.1 224 45.5 39.4 100.3 72.1 161.3 77.7 83.9 8.9 173.6-43.3 200.4-124.7 11.8-32.9 12.8-68.4 13.2-102.9-0.1-193.4 0-386.7-0.1-580-0.6-23.9 2.5-48.4-3.8-71.8-5.9-26.6-34.4-44-60.7-41.8-24-0.8-43.3 15.7-60.8 30-106.7 90.9-214.8 180.1-320.3 272.5-11.4 25.3-11.5 58.7 11.9 77.5 100.1 88.7 203.8 173.3 304.8 260.9-33.1 37.8-65.6 76.2-98.6 114.2-7.3 11.3-20.4 3.7-27.7-3.2-88-74.9-176-149.8-264.2-224.5-47-38.6-95-83-111-144-6.6-39.7-8.8-83 9.9-119.9 19.2-43.1 53.4-76.7 89.7-105.8 88-76.5 177.5-151.1 265.2-228 56-49.2 123.4-94.1 200.6-94.4 56.8-3.2 113.6 16.4 158 51.4 50.6 44.8 78.4 113.7 75.7 180.9-0.3 216.4 0.7 432.8-0.5 649.1-2 101-31.3 209.1-108.7 278.7-116.8 113.5-309.7 124.8-447.6 44.2-48-26.7-89.1-63.4-131.1-98.3-62.3-52.4-123.3-106.2-185.1-159.1-40.2-36.1-84.3-68.5-118.4-110.9-31.5-30.8-54.8-68.4-79.6-104.5-16.3-36.1-34-71.8-42.6-110.8-19.6-81.7-23.2-169.1 1.7-250.1 33-109.1 108.7-199.3 192.6-273.8 82.1-70.9 165.2-140.7 248.7-210z"/>
	</g>
</svg>