<svg version="1.2" xmlns="http://www.w3.org/2000/svg" viewBox="0 0 1585 1148" width="1585" height="1148">
	<title>SRD_IR2021_en-1-pdf-svg (2)-svg</title>
	<style>
		.s0 { fill: #ffd939 } 
	</style>
	<path id="Path 4" fill-rule="evenodd" class="s0" d="m864.6 0.7l287.3 208-71.2 53.3 142.4 104.1 73.7-50.8 287.2 208.1-73.7 50.7 73.7 53.3-287.2 208.1-73.7-50.8-142.4 104.1 71.2 50.7-287.3 208.1-73.7-50.8-71.2 50.8-287.2-208.1 71.2-50.7-142.4-104.1-73.7 50.8-287.3-208.1 71.2-53.3-71.2-50.7 287.3-208.1 73.7 50.8 142.4-104.1-71.2-53.3 287.2-208 71.2 53.3zm-71.2 677.4l144.9-104-144.9-104-144.9 104z"/>
</svg>