<svg version="1.2" xmlns="http://www.w3.org/2000/svg" viewBox="0 0 1539 392" width="1539" height="392">
	<title>header_logo-svg</title>
	<style>
		.s0 { fill: #00a6e9 } 
		.s1 { fill: #0b308e } 
	</style>
	<path id="Layer" class="s0" d="m1538.6 0l-226.5 391.9h-78.9l226.6-391.9z"/>
	<path id="Layer" fill-rule="evenodd" class="s1" d="m997 391.9l226.5-391.9h236.3l-226.6 391.9zm-603.8-0.4h-52l60.1-340.7h118l72.3 262.6c0.4 1.5 1.4 2.8 2.6 3.7 1.3 0.9 2.8 1.3 4.4 1.3 1.6-0.1 3-0.7 4.2-1.7 1.2-1 2-2.4 2.3-3.9l46.3-262h52l-60.1 340.9h-118.1l-72-262q-0.4-1.1-1.1-1.9-0.7-0.9-1.6-1.6-0.9-0.6-2-1-1.1-0.4-2.2-0.4-1.2 0-2.4 0.5-1.1 0.4-2.1 1.2-0.9 0.8-1.6 1.8-0.6 1.1-0.9 2.3zm-155.4-115.2l-10-152.8q-0.1-1.3-0.5-2.5-0.4-1.2-1.2-2.2-0.8-1.1-1.8-1.8-1.1-0.7-2.3-1.1-1.4-0.3-2.7-0.2-1.4 0.2-2.7 0.8-1.2 0.6-2.2 1.6-0.9 0.9-1.5 2.2l-153.9 271.6h-58.9l192.9-341.1h113.7l22.7 340.7h-83.8l-2.5-37.2c-0.1-1.8-0.4-3.7-1.2-5.4-0.7-1.7-1.7-3.3-3.1-4.6-1.3-1.4-2.9-2.4-4.6-3.1-1.7-0.8-3.6-1.1-5.5-1.2h-127.4l28.8-50.7h95.7c1.6-0.1 3.3-0.5 4.8-1.1 1.5-0.7 2.8-1.7 3.9-2.9 1.1-1.2 2-2.6 2.6-4.2 0.5-1.5 0.8-3.2 0.7-4.8zm641.3 0.8l-13.4-151.2c-0.2-1.6-0.8-3.1-1.9-4.4-1-1.2-2.4-2-4-2.4-1.5-0.4-3.2-0.3-4.7 0.3-1.5 0.6-2.7 1.6-3.6 3l-138.6 269.5h-57.6l175.2-341.1h113.6l30.1 340.7h-84.9l-3.3-37.3c0-1.8-0.4-3.7-1.2-5.4-0.7-1.7-1.8-3.2-3.1-4.5-1.3-1.4-2.9-2.4-4.6-3.1-1.7-0.7-3.5-1.1-5.4-1.2h-119.7l26.3-50.7h88.6c1.6 0 3.2-0.3 4.7-0.9 1.5-0.6 2.8-1.5 4-2.7 1.1-1.1 2-2.5 2.6-3.9 0.6-1.5 0.9-3.1 0.9-4.7z"/>
</svg>