<svg version="1.2" baseProfile="tiny-ps" xmlns="http://www.w3.org/2000/svg" viewBox="0 0 1582 495" width="1582" height="495">
	<title>KDDI-logo-White-300x325-svg</title>
	<style>
		tspan { white-space:pre }
		.shp0 { fill: #ffffff } 
	</style>
	<g id="#ffffffff">
		<path id="Layer" class="shp0" d="M1429.28 0.82C1480.05 0.92 1530.83 0.87 1581.6 0.87C1578.08 62.14 1561.71 121.97 1553.71 182.81C1504 171.77 1453.81 162.6 1403.41 155.29C1411.09 103.62 1421.12 52.38 1429.28 0.82Z" />
		<path id="Layer" class="shp0" d="M81.55 5.29C133.49 5.13 185.49 5.67 237.44 5.03C224.75 67.26 216.21 130.28 203.95 192.62C216.11 177.05 230.03 162.76 240.16 145.75C254.61 121.81 276.16 103.09 289.92 78.67C306.72 53.28 329.28 32.12 343.95 5.19C425.76 5.45 507.52 5.35 589.33 5.24C617.76 5.4 646.24 5.35 674.67 5.24C736.48 2.89 800.27 10.25 855.63 39.58C877.07 54.35 901.17 68.59 913.6 92.53C924.05 109.11 932.48 126.87 940 145C883.52 150.81 827.31 158.44 771.41 168.41C737.97 133.54 684.96 137.16 640.59 137.11C637.49 158.12 632.69 178.81 629.49 199.82C576.32 213.79 523.57 229.41 472 248.45C479.36 225.73 477.33 201.52 481.01 178.22C489.07 130.87 497.97 83.68 505.33 36.17C496.32 47.1 486.29 57.28 478.77 69.34C466.08 91.36 445.33 107.14 431.95 128.63C418.24 152.09 396.37 169.37 382.29 192.51C368.05 213.89 348.69 231.22 334.19 252.39C339.04 266.95 345.76 280.71 354.24 293.45C308.69 315.85 261.23 334.46 217.6 360.64C205.28 337.55 194.35 313.61 187.52 288.33C182.03 320.38 180.16 353.07 173.01 384.85C112.32 416.47 56.69 456.62 0.05 494.8C14.35 443.88 18.03 390.39 29.17 338.67C34.51 298.04 45.12 258.21 46.35 217.04C57.71 146.39 70.45 76 81.55 5.29Z" />
		<path id="Layer" class="shp0" d="M966.72 5.29C1033.07 5.35 1099.41 5.35 1165.76 5.29C1224.05 5.93 1283.73 18.62 1332.8 51.31C1365.17 77.44 1393.33 112.26 1397.81 155.13C1248.91 134.23 1097.28 130.02 947.63 145.27C955.89 98.82 960.05 51.95 966.72 5.29Z" />
		<path id="Layer" class="shp0" d="M1222.77 155.19C1333.12 160.14 1443.31 171.93 1551.15 196.24C1545.12 233.62 1537.07 270.68 1535.41 308.6C1526.4 369.49 1513.28 429.75 1505.39 490.8C1453.12 491.49 1400.85 491.12 1348.59 490.96C1358.77 439.56 1366.56 387.73 1376 336.16C1366.19 354.99 1353.76 372.26 1342.24 390.07C1290.08 455.98 1206.45 492.24 1123.25 494.43C1045.65 494.27 968.11 494.37 890.56 494.37C901.07 442.6 908.75 390.39 915.41 338.08C905.39 368.8 881.33 391.3 861.17 415.46C805.81 468.03 729.23 495.55 653.12 494.43C526.67 494.59 400.16 493.73 273.71 494.85C259.04 463.55 243.04 432.63 233.92 399.14C278.29 372.1 325.44 350.19 371.73 326.67C377.01 336.75 381.87 347.1 385.87 357.76C398.35 390.18 420.59 418.01 431.31 451.13C432.96 455.23 435.2 458.97 438.08 462.38C444.96 403.51 456.96 345.44 466.56 287.05C518.51 265.99 572.05 249.3 625.55 232.88C620.48 276.07 614.24 319.15 605.49 361.76C640.75 360.43 677.49 363.95 711.09 350.67C730.93 341.12 750.4 328.97 764.43 311.69C783.09 275.96 796.32 233.94 783.79 193.95C889.71 173.42 997.01 159.61 1104.96 155.93C1096.16 224.99 1082.4 293.24 1071.15 361.92C1100.91 359.89 1131.52 364.21 1160.53 355.57C1197.39 347.31 1229.6 320.54 1244.96 286.2C1253.55 250.53 1258.51 212.24 1244.59 177.15C1238.56 168.68 1230.61 161.9 1222.77 155.19Z" />
		<path id="Layer" class="shp0" d="M88.43 494.53C112.05 473.31 140.53 458.17 166.13 439.45C162.56 457.63 160 475.98 157.28 494.32C134.35 494.27 111.36 494.37 88.43 494.53Z" />
	</g>
</svg>