<svg version="1.2" xmlns="http://www.w3.org/2000/svg" viewBox="0 0 1539 1295" width="1539" height="1295">
	<title>Osaka_Gas-svg</title>
	<style>
		.s0 { fill: #006ebc } 
	</style>
	<g id="Layer">
		<path id="Layer" fill-rule="evenodd" class="s0" d="m634.2 633.5c-145.1 144.9-380.3 144.9-525.4 0-145.1-144.9-145.1-379.9 0-524.8 145.1-144.9 380.3-144.9 525.4 0 145.1 144.9 145.1 379.9 0 524.8zm-165.7-359.2c-53.6-53.5-140.4-53.5-193.9 0-53.6 53.5-53.6 140.2-0.1 193.7 53.6 53.5 140.4 53.5 194 0 53.6-53.5 53.6-140.2 0-193.7zm961.4 362.6l-658.8 658-559.3-558.7c116.3 50.7 251.8 43.3 362.6-22 10.5 25.2 25.9 48.8 46.4 69.3 84.9 84.7 222.2 84.7 307 0 25.6-25.5 43.3-55.9 53.4-88.2-27.4-15.8-53.3-35-76.8-58.4-145.1-144.9-145.1-379.9 0-524.8 145.1-144.9 380.4-144.9 525.5 0 145 144.9 145 379.9 0 524.8zm-165.8-359.3c-53.5-53.5-140.4-53.5-193.9 0-53.6 53.5-53.6 140.2-0.1 193.7 53.6 53.5 140.5 53.5 194 0 53.6-53.5 53.6-140.2 0-193.7z"/>
	</g>
</svg>