<svg version="1.2" xmlns="http://www.w3.org/2000/svg" viewBox="0 0 1543 197" width="1543" height="197">
	<title>logo_en</title>
	<defs>
		<clipPath clipPathUnits="userSpaceOnUse" id="cp1">
			<path d="m28.18 32.65c1.45-0.85 3.25 0.2 3.25 1.9v81.16c0 0.78 0.42 1.51 1.08 1.9l18.8 11.06c0.66 0.39 1.08 1.12 1.08 1.9v44.19c0 1.7-1.82 2.77-3.25 1.92l-46.97-27.63c-1.34-0.79-2.17-2.25-2.17-3.83v-93.45c0-1.58 0.83-3.04 2.17-3.82z"/>
		</clipPath>
		<clipPath clipPathUnits="userSpaceOnUse" id="cp2">
			<path d="m68.08 0.63l99.53-0.01v195.75h-99.53z"/>
		</clipPath>
		<clipPath clipPathUnits="userSpaceOnUse" id="cp3">
			<path d="m81.64 1.21c1.33-0.78 2.98-0.78 4.33 0l79.47 46.74c1.34 0.78 2.17 2.24 2.17 3.82v93.45c0 1.58-0.83 3.04-2.17 3.83l-46.97 27.63c-1.43 0.85-3.25-0.22-3.25-1.92v-44.19c0-0.78 0.42-1.51 1.08-1.9l18.8-11.06c0.66-0.39 1.08-1.12 1.08-1.9v-46.74c0-0.78-0.42-1.51-1.08-1.92l-32.35-19c-1.44-0.85-3.24 0.2-3.24 1.9v137.87l-13.54 7.96c-1.35 0.8-3 0.8-4.33 0l-13.56-7.96v-178.64z"/>
		</clipPath>
		<clipPath clipPathUnits="userSpaceOnUse" id="cp4">
			<path d="m1427.26 47.88h114.74v101.63h-114.74z"/>
		</clipPath>
		<clipPath clipPathUnits="userSpaceOnUse" id="cp5">
			<path d="m1520.66 47.88c11.67 0 20.8 9.56 21.24 22.22l0.1 26.68c0.08 5.8-2.05 11.26-6 15.31-3.94 4.08-9.26 6.32-14.96 6.32l20.14 29.18c0.55 0.8-0.02 1.92-1 1.92h-22.41c-1.12 0-2.15-0.56-2.78-1.48l-20.56-29.62h-48.16v29.89c0 0.66-0.53 1.21-1.18 1.21h-16.64c-0.65 0-1.19-0.55-1.19-1.21v-48.11c0-0.56 0.47-1.04 1.04-1.04h91.97c0.79 0 1.5-0.3 2.04-0.86 0.53-0.56 0.8-1.31 0.78-2.09v-26.38c-0.28-1.66-1.48-2.68-2.88-2.68h-91.76c-0.65 0-1.19-0.54-1.19-1.2v-16.83c0-0.68 0.54-1.23 1.19-1.23z"/>
		</clipPath>
		<clipPath clipPathUnits="userSpaceOnUse" id="cp6">
			<path d="m1096.14 57.18c9.18 6.48 13.74 16.61 14.79 32.83 1.61 24.77-2.16 39.73-12.21 48.53-11.22 9.82-30.78 11.18-50.29 11.18q-3.2 0-6.53-0.05c-16.61-0.24-33.49-1.53-44.46-9.34-8.8-6.27-12.85-15.82-13.95-32.92-1.55-23.88 2.51-39.18 12.8-48.14 10.87-9.46 27.65-11.4 49.49-11.4q2.89-0.01 5.94 0.03c16.6 0.26 33.48 1.53 44.42 9.28zm-72.09 10.31c-6.65 1.03-11.85 3.07-15.45 6.08-3.67 3.05-6.04 7.32-7.04 12.65-0.95 5.13-1.18 11.72-0.67 19.58 0.34 5.18 1.45 9.46 3.34 12.69 1.9 3.27 4.67 5.91 8.24 7.82 3.5 1.87 7.95 3.18 13.2 3.88 5.15 0.68 11.41 1.08 18.59 1.19q2.13 0.02 4.15 0.01c8.76 0 16.08-0.42 21.75-1.29 6.7-1.05 11.92-3.09 15.54-6.1 3.68-3.05 6.05-7.31 7.03-12.65 0.95-5.11 1.19-11.7 0.67-19.58-0.32-5.04-1.42-9.27-3.23-12.58-1.85-3.33-4.64-6-8.27-7.92-3.56-1.88-8.04-3.19-13.36-3.89-5.22-0.68-11.5-1.08-18.66-1.18q-2.14-0.03-4.15-0.02c-8.75 0-16.04 0.44-21.68 1.31z"/>
		</clipPath>
		<clipPath clipPathUnits="userSpaceOnUse" id="cp7">
			<path d="m1381.38 57.17c9.17 6.49 13.74 16.61 14.79 32.85 1.6 24.76-2.15 39.72-12.2 48.52-11.21 9.81-30.8 11.17-50.29 11.17q-3.2 0-6.55-0.05c-16.59-0.24-33.47-1.53-44.44-9.34-8.82-6.26-12.86-15.81-13.96-32.91-1.56-23.9 2.51-39.18 12.79-48.15 10.87-9.47 27.67-11.39 49.51-11.39q2.9-0.01 5.92 0.03c16.6 0.24 33.5 1.53 44.43 9.27zm-72.06 10.69c-6.65 1.02-11.87 3.04-15.47 6.01-3.67 3.02-6.06 7.23-7.04 12.5-0.97 5.06-1.19 11.56-0.69 19.34 0.36 5.11 1.47 9.34 3.34 12.53 1.9 3.25 4.69 5.85 8.27 7.73 3.48 1.85 7.92 3.14 13.21 3.84 5.15 0.66 11.4 1.05 18.59 1.17q2.12 0.02 4.15 0.02c8.77 0 16.09-0.44 21.76-1.29 6.72-1.02 11.94-3.04 15.56-6.01 3.68-3.03 6.05-7.24 7.03-12.5 0.97-5.06 1.19-11.57 0.69-19.35-0.34-4.97-1.42-9.17-3.26-12.43-1.85-3.28-4.63-5.93-8.27-7.83-3.55-1.85-8.03-3.14-13.37-3.82-5.22-0.68-11.5-1.07-18.67-1.19q-2.13-0.02-4.14-0.01c-8.77 0-16.07 0.42-21.69 1.29z"/>
		</clipPath>
		<clipPath clipPathUnits="userSpaceOnUse" id="cp8">
			<path d="m252.65 47.83c0.32 0 0.62 0.12 0.84 0.36 0.23 0.22 0.35 0.53 0.35 0.85l-0.19 81.19h86.09c0.72 0 1.17 0.79 0.83 1.43l-8.57 16.1c-0.58 1.09-1.7 1.75-2.91 1.75h-93.25c-0.31 0-0.61-0.12-0.83-0.34q-0.35-0.37-0.35-0.87l0.23-99.24c0-0.68 0.55-1.23 1.2-1.23z"/>
		</clipPath>
		<clipPath clipPathUnits="userSpaceOnUse" id="cp9">
			<path d="m570.38 47.28l0.51 0.02c6.69 0.22 12.98 3.73 16.83 9.44l0.75 1.26 49.3 89.77c0.45 0.81-0.13 1.81-1.03 1.81h-20.36c-1.22 0-2.33-0.68-2.92-1.78l-40.55-75.83c-0.41-0.78-1.2-1.27-2.07-1.27-0.86 0-1.66 0.49-2.06 1.27l-40.02 75.83c-0.57 1.1-1.7 1.78-2.92 1.78h-20.89c-0.92 0-1.49-1-1.05-1.8l50.35-92.31c3.57-5.08 9.64-8.19 16.13-8.19z"/>
		</clipPath>
		<clipPath clipPathUnits="userSpaceOnUse" id="cp10">
			<path d="m757.57 48.03c11.55 0 20.59 9.58 21.02 22.27v29.87c0.07 5.83-2.07 11.28-6.03 15.37-3.94 4.08-9.28 6.32-14.99 6.32h-74.15v26.58c0 0.71-0.59 1.3-1.3 1.3h-16.41c-0.7 0-1.27-0.59-1.27-1.3v-44.67c0-0.66 0.52-1.2 1.17-1.2h91.19c0.78 0 1.52-0.31 2.03-0.87 0.54-0.58 0.82-1.33 0.79-2.11l0.05-29.56c-0.27-1.67-1.49-2.7-2.89-2.7h-91.17c-0.65 0-1.17-0.55-1.17-1.21v-16.88c0-0.66 0.52-1.21 1.17-1.21z"/>
		</clipPath>
		<clipPath clipPathUnits="userSpaceOnUse" id="cp11">
			<path d="m1255.14 48.05c0.72 0 1.17 0.78 0.84 1.41l-8.57 16.1c-0.59 1.09-1.7 1.77-2.92 1.77h-45.34l-0.18 81.06c0 0.66-0.53 1.18-1.18 1.18h-16.58c-0.32 0-0.62-0.11-0.83-0.35-0.24-0.22-0.37-0.53-0.37-0.85l0.2-81.04h-50c-0.65 0-1.19-0.55-1.19-1.23v-16.84c0-0.68 0.54-1.21 1.19-1.21z"/>
		</clipPath>
		<clipPath clipPathUnits="userSpaceOnUse" id="cp12">
			<path d="m392.07 47.83l88.09 0.02c0.72 0 1.19 0.76 0.84 1.41l-8.57 16.09c-0.59 1.09-1.7 1.77-2.92 1.77h-77.49l-0.05 22.59h84.82c0.72 0 1.17 0.76 0.84 1.41l-8.59 16.1c-0.57 1.08-1.68 1.76-2.9 1.76h-74.22l-0.05 21.25h88.43c0.71 0 1.16 0.78 0.83 1.43l-8.57 16.08c-0.58 1.1-1.7 1.78-2.92 1.78h-95.57q-0.5-0.01-0.85-0.36c-0.22-0.23-0.35-0.54-0.35-0.86l0.26-99.28c0.02-0.65 0.54-1.19 1.2-1.19z"/>
		</clipPath>
		<clipPath clipPathUnits="userSpaceOnUse" id="cp13">
			<path d="m839.61 47.87l1.48 0.03c4.75 0.3 8.87 3.43 10.95 7.78l27.43 57.52c0.39 0.8 1.17 1.29 2.05 1.29 0.89 0 1.67-0.49 2.05-1.29l27.55-57.74c2.18-4.57 6.47-7.27 11.41-7.27 4.91 0 10.67 3 12.4 9.69l23.79 90.32c0.2 0.76-0.36 1.51-1.15 1.51h-15.42c-1.52 0-2.83-1.02-3.22-2.51l-16.24-62.96c-0.25-1.03-1.15-1.75-2.2-1.75-0.88 0-1.67 0.51-2.05 1.31l-27.28 57.35c-1.77 3.65-5.1 5.89-9.04 6.11-4.01 0.23-8.77-3.05-10.55-6.74l-27.23-57.09c-0.38-0.8-1.17-1.31-2.05-1.31-1.03 0-1.92 0.69-2.2 1.7l-17.94 63.33c-0.4 1.44-1.7 2.44-3.19 2.44h-15.84c-0.78 0-1.35-0.78-1.13-1.54l25.41-90.45c1.75-6.24 7.19-10.14 13.69-9.7z"/>
		</clipPath>
	</defs>
	<style>
		.s0 { fill: #ffffff } 
	</style>
	<g id="Clip-Path" clip-path="url(#cp1)">
		<g id="Layer">
			<path id="Layer" class="s0" d="m0 32.3h52.4v144.7h-52.4z"/>
		</g>
	</g>
	<g id="Clip-Path" clip-path="url(#cp2)">
		<g id="Layer">
			<g id="Clip-Path" clip-path="url(#cp3)">
				<g id="Layer">
					<path id="Layer" class="s0" d="m68.1 0.6h99.5v195.8h-99.5z"/>
				</g>
			</g>
		</g>
	</g>
	<g id="Clip-Path" clip-path="url(#cp4)">
		<g id="Layer">
			<g id="Clip-Path" clip-path="url(#cp5)">
				<g id="Layer">
					<path id="Layer" class="s0" d="m1427.3 47.9h114.7v101.6h-114.7z"/>
				</g>
			</g>
		</g>
	</g>
	<g id="Clip-Path" clip-path="url(#cp6)">
		<g id="Layer">
			<path id="Layer" class="s0" d="m983.2 47.9h128.1v101.8h-128.1z"/>
		</g>
	</g>
	<g id="Clip-Path" clip-path="url(#cp7)">
		<g id="Layer">
			<path id="Layer" class="s0" d="m1268.4 47.9h128.1v101.8h-128.1z"/>
		</g>
	</g>
	<g id="Clip-Path" clip-path="url(#cp8)">
		<g id="Layer">
			<path id="Layer" class="s0" d="m234.7 47.8h106v101.7h-106z"/>
		</g>
	</g>
	<g id="Clip-Path" clip-path="url(#cp9)">
		<g id="Layer">
			<path id="Layer" class="s0" d="m503.7 47.3h134.2v102.3h-134.2z"/>
		</g>
	</g>
	<g id="Clip-Path" clip-path="url(#cp10)">
		<g id="Layer">
			<path id="Layer" class="s0" d="m664.4 48h114.2v101.7h-114.2z"/>
		</g>
	</g>
	<g id="Clip-Path" clip-path="url(#cp11)">
		<g id="Layer">
			<path id="Layer" class="s0" d="m1129 48.1h127.1v101.5h-127.1z"/>
		</g>
	</g>
	<g id="Clip-Path" clip-path="url(#cp12)">
		<g id="Layer">
			<path id="Layer" class="s0" d="m372.9 47.8h108.3v101.7h-108.3z"/>
		</g>
	</g>
	<g id="Clip-Path" clip-path="url(#cp13)">
		<g id="Layer">
			<path id="Layer" class="s0" d="m801.9 47.9h156.9v101.8h-156.9z"/>
		</g>
	</g>
</svg>