<svg version="1.2" xmlns="http://www.w3.org/2000/svg" viewBox="0 0 1512 410" width="1512" height="410">
	<title>Bharti_Airtel_Limited_logo-svg</title>
	<defs>
		<clipPath clipPathUnits="userSpaceOnUse" id="cp1">
			<path d="m-595.78-491.36h8085v11448h-8085z"/>
		</clipPath>
	</defs>
	<style>
		.s0 { fill: #ffffff } 
	</style>
	<g id="layer1">
		<g id="g4569">
			<g id="Clip-Path: g4571" clip-path="url(#cp1)">
				<g id="g4571">
					<g id="g4593">
						<path id="path4563" fill-rule="evenodd" class="s0" d="m760.5 13.9c7.9 8.8 12.1 20.4 11.9 32.5 0 25.7-19.2 45.8-43.4 45.8-24.3 0-43.4-20.2-43.4-46.1 0-25.4 19.7-46 43.9-46 11.9 0 22.9 4.9 31 13.8zm-65.8 113.2l68.3-11.8v288h-68.3zm-51.1 82.6v153.8c-27.2 28.8-67.4 45.1-114.9 45.1-59 0-101.3-46.3-101.3-100.3 1.1-56.6 41.5-93.2 106.5-93.2h40.5v-14.7c0-25.1-10.2-37.1-34.9-38.2-20.4-0.9-43.1 5.9-64.4 16l-10.4 5.2-18.3-43.4 7.7-4.1c30.1-15.9 59.4-25.7 92-25.7 47.1 0 97.5 24.6 97.5 99.5zm-69.3 54.4h-27.4c-34.3 0-46.9 24.5-47.4 46-0.4 26 11.9 48.3 39.3 48.3 15 0 28.7-4.3 35.5-9.3zm764.3 69.2l19.3 42c0 0-21.8 16.8-51.3 26.4-15.4 5.1-32.2 7.6-48.4 7.6-29.6 0-55.1-8.9-73.6-25.2-30.2-26.6-46.8-73.5-46.3-120 0.6-73.5 31.9-151.7 112.1-151.7 71.9 0 104.7 46.5 106 148.6v7.2h-147.1c-1.5 30.7 4 59.6 16.2 73.7 8.3 9.4 21 15.9 39.7 15.9 40.5 0 70-21.7 73.4-24.5zm-127.3-110.5h73.9c0-21.6-4.5-56.5-34.8-56.5-26.9 0-37.9 28.7-39.1 56.5zm-276.3-111.9c20.7 0 38.5 4.8 45.9 8.7l-19.2 45.9c0 0-11-3.8-27.9-3.1-18.4 0.8-37.6 9-46.7 18.4v222.8h-69.6l0.1-236.7c41.4-46.7 87.4-56 117.4-56zm576.5 247.3v45.4c0 0-14.6 2.9-26.2 2.9-54.4 0-87-27.2-87-90.7v-268l68.5-12.3v285c0 22 5.9 35.2 34.3 37.5 3.9 0.3 10.4 0.2 10.4 0.2zm-442.2-242.8h45v53.2h-45v151.5c0 19.8 5.8 37 35.2 38.1 3.9 0.1 9 0.1 9.8 0.2v44.8c0 0-12.6 2.7-26 2.7-55.7 0-88.9-28.6-88.9-88.8v-269.3l69.9-11.9z"/>
					</g>
					<g id="g4597">
						<path id="path4599" class="s0" d="m98.5 403.6c-15.3 0-26.4-5.6-33.1-16.7-16.7-27.9 0.5-62.8 8.6-76.4 5.6-9.5 14-19.6 21.9-26.3 7.9-6.6 20-14.6 32.7-14.6h1c13.3 0.4 27.4 9.6 28 24.4 0.5 11.1-6.9 18.8-12.2 24.5l-0.9 1c-4.3 4.6-8.6 8.8-12.7 12.9-7.3 7.2-14.2 14-20.9 22.4 0 0-18.6 28.6 12 19.9 1.7-0.6 3.5-1.4 5.6-2.2l1-0.4c7.3-2.9 14.2-6.9 20.3-10.5l1.2-0.7c13.1-7.5 27.7-18.6 43.7-33 31.2-28.3 53.7-57.9 66.8-87.8 9.6-22.1 11.2-46.1 4.2-61.4-4-8.7-10.8-14.3-20-16.5-3-0.8-6.1-1-9.2-1-6.3 0-13.2 1.3-21.1 4.2-30.4 11.2-57.4 30.4-83.5 48.9l-3.2 2.3c-3.2 2.3-6.3 4.5-9.6 6.7-1.1 0.8-2.3 1.6-3.4 2.5-18.4 12-45.2 26.1-69.7 26.1-12 0-22.2-3.4-30.4-10.2-9-7.6-14-17.8-14.6-30.2-1.4-29.4 21.6-64.1 41.8-84.8 8.7-8.1 18.1-15.7 27.8-22.8 1.4-0.8 2.6-1.6 3.7-2.5 1.5-1.1 2.9-2 4.3-2.9l0.2-0.2 1.5-1c47.8-33.2 92.9-50 134.1-50 45 0 68.8 20.2 71 22.1 19.1 14.3 32.3 33.3 39.1 56.3 9.2 31.5 1.7 65.2-3.7 82.5-13.2 42.5-36.2 77.4-74.5 112.9-17.3 16.1-34.2 29.5-51.4 41l-4.4 2.9c-16.3 11-33.2 22.3-54.5 30.4-14.2 5.5-26.8 8.2-37.5 8.2z"/>
					</g>
				</g>
			</g>
		</g>
	</g>
</svg>