<svg version="1.2" xmlns="http://www.w3.org/2000/svg" viewBox="0 0 1504 953" width="1504" height="953">
	<title>94b3ed7b-d9e7-4074-bd8e-68e514fcf7f5 (1)-svg</title>
	<style>
		.s0 { fill: #394159 } 
		.s1 { fill: #d0d9e0 } 
	</style>
	<g id="#394159ff">
		<path id="Layer" class="s0" d="m972.5 0.1c44.5 74.8 89.3 149.6 133.9 224.4q-210.6 358.1-421.2 716.1c-82.6 0.1-165.3 0-248 0q120.1-208.5 240.1-417.1-53.1-66.9-106.2-133.7-159.5 273.4-318.9 546.9-125.9 0-251.9 0 270.6-456.9 541.1-913.7c74.2 117 148.4 234 222.5 351q90.8-162.6 181.5-325.2c9-16.3 18.3-32.4 27.1-48.7z"/>
	</g>
	<g id="#d0d9e0ff">
		<path id="Layer" class="s1" d="m1177.2 405.5q159.8 267.5 319.5 534.9c2.5 3.8 4.5 8 7.3 11.6v0.2c-3.4 0.4-6.8 0.2-10.2 0.2q-331.5 0.1-662.9 0 173.1-273.4 346.3-546.9z"/>
	</g>
</svg>