<svg version="1.2" xmlns="http://www.w3.org/2000/svg" viewBox="0 0 1304 1541" width="1304" height="1541">
	<title>Advantage_Energy_logo-svg</title>
	<style>
		.s0 { fill: #ffffff } 
	</style>
	<path id="Layer" class="s0" d="m824.6 974.4c104.6-192.4 269-447.3 47.3-576.1-193.1 336.8-433 375.6-627.2 647.9-210.4 274.7 119.3 408.7 389.5 440.7-132-27.1-374.7-136.9-335.5-320.9 20.7-139 258.4-326.3 305.7-369.3 48.1-43.1 155.6-110.9 227.7-237 65.1 103.9-123.6 476.8-229.2 763.2-28.8-39.2-6-261.1 6.1-395-39.5 43.9-169.8 194.4-128.3 337.6-58.4-37.5-66.5-86.6-87.9-131.8-7.3 44.2-138.2 288.5 581.2 406.4-539.6-1.5-870.4-114.9-944.8-259.2-92.6-141.7 62.4-319 102.2-375 98.5-138.3 595.2-529.3 556.1-657.2 5.9-134.1-227.7-203.6-439.6-248.4 208.7 10.5 582.4 61.5 790.5 172.9 222 109.5 329.3 336.9 224.8 540.2-108.5 203.9-319.2 333.4-399.5 462.2-89.1 129.9-39.8 228-49.6 229.4-45.5-36.8-140.6-152.6 10.5-430.6z"/>
</svg>