<svg version="1.2" xmlns="http://www.w3.org/2000/svg" viewBox="0 0 1533 852" width="1533" height="852">
	<title>ab-footer-logo-svg-svg</title>
	<style>
		.s0 { fill: #ffffff } 
	</style>
	<g id="Layer">
		<path id="Layer" class="s0" d="m407.5 204.6c-39.2 102.6-77.2 205.1-112.6 308.9h178.5l-45.5 165.9h-187.4c-17.8 57-34.3 113.9-50.6 170.9h-189.9c92.4-292.5 194.9-576 312.7-849.4h191.1c121.6 283.5 220.3 565.9 302.6 849.4h-188.6c-60.8-219-130.4-432.9-210.3-645.7z"/>
		<path id="Layer" fill-rule="evenodd" class="s0" d="m1532.7 604.4c0 131.6-101.3 246.8-327.9 246.8h-319v-849.4h314c187.4 0 297.5 98.8 297.5 220.3 0 81.1-40.5 148.2-122.7 183.6 115.2 35.4 158.3 122.8 158.1 198.7zm-197.4-6.2c0-62-48.1-94.9-122.8-94.9h-74.7l41.8-158.3h16.5c70.9 0 115.2-30.4 115.2-92.4 0-54.4-39.3-91.2-113.9-91.2h-122.8v533h137.9c74.7 0 122.8-34.1 122.8-96.2z"/>
	</g>
</svg>