<svg version="1.2" xmlns="http://www.w3.org/2000/svg" viewBox="0 0 1595 1412" width="1595" height="1412">
	<title>download (2)-svg (2)-svg</title>
	<style>
		.s0 { fill: #ffffff } 
	</style>
	<g id="#919d9dff">
		<path id="Layer" fill-rule="evenodd" class="s0" d="m566.5 12.5c27.1-4 54.1-8.9 81.6-9.8 35.9-1.7 72.1-3.2 108 1 49.8 4.5 98.8 17.3 144.6 37.3 39.5 17.8 77.6 39.5 111.2 67 39.4 31.1 73.1 68.8 101.5 110.1 0-64.9 0-129.7 0-194.5 160.3-0.1 320.7 0 481 0 0 96.9 0 193.8 0 290.8-57.7 0-115.3 0-173 0-1.1 261.2-0.9 522.4-1.8 783.6 58.3 0.2 116.5 0 174.8 0.1q0 145.2 0 290.3-240.5 0-481 0c-0.1-60.1 0-120.2-0.1-180.4-21.5 28.5-46.3 54.6-73 78.3-31.9 26.5-65.8 51-103.3 69.1-36.3 18.9-75 33.3-115 42.2-37.3 9.3-75.7 13.8-114.2 13.8-52.7-1-105.8-3.7-157.5-14.9-85.6-18.1-168.5-51.2-241.2-100.1-157.4-103.1-268.4-273.9-298.7-459.5-8.9-48.8-10.1-98.6-10.2-148 4.8-145.4 55.1-288.7 141.7-405.5 50.1-67.6 112-126.6 182.4-172.6 73.3-48.2 156.2-81.5 242.2-98.3zm100.2 299.1c-57.8 6.5-114.2 25.5-163.8 56-59.3 35.9-108.4 88.4-141.7 149.2-32.8 60.4-50.4 129.5-48.3 198.3 1 64.5 18.1 128.7 49.3 185.1 37.3 68.2 95.2 124.5 163.8 160.8 35.5 17.8 73.1 32.2 112.5 38.7 22.2 3.7 44.7 7 67.3 6.4 28.9-0.1 58-2 86.4-8.1 80.8-15.9 156.4-57.7 212.8-117.8 53.9-57 91-129.8 104.8-207.1 15.7-85.3 1.1-175.6-39.8-251.9-35.9-68.3-92.1-126.1-160-162.9-73.3-41.3-160.1-56.1-243.3-46.7z"/>
	</g>
</svg>