<svg version="1.2" xmlns="http://www.w3.org/2000/svg" viewBox="0 0 1562 932" width="1562" height="932">
	<title>acumen pharma-svg</title>
	<style>
		.s0 { fill: #33467a } 
		.s1 { fill: #8085ab } 
		.s2 { fill: #a2c373 } 
		.s3 { fill: #6ea92f } 
		.s4 { fill: #7ebde1 } 
		.s5 { fill: #3c8dcd } 
		.s6 { fill: #57618f } 
		.s7 { fill: #609dd5 } 
		.s8 { fill: #033068 } 
	</style>
	<g id="logo">
		<g id="mark">
			<g id="Group_1">
				<path id="Path_1" class="s0" d="m1132.2 931.8h-749.2l512.4-791.2z"/>
			</g>
			<g id="Group_2">
				<path id="Path_2" class="s1" d="m895.4 140.7l-512.4 791.1h-212z"/>
			</g>
			<path id="Path_3" class="s2" d="m769 931.8h-534.8l1327-931.8z"/>
			<path id="Path_4" class="s3" d="m1133.8 931.8h-530.9l958.3-931.8z"/>
			<g id="Group_3">
				<path id="Path_5" class="s4" d="m461.9 369.9l-70.7 561.9h-391.2z"/>
				<path id="Path_6" class="s5" d="m782.3 931.8h-391.1l70.7-561.9z"/>
			</g>
			<path id="Path_7" class="s6" d="m602.9 931.8h-219.8l133.8-206.7 78.5-121.2 186.9 327.9z"/>
			<path id="Path_8" class="s7" d="m391.2 931.8h-220.1l255.1-278.7z"/>
			<g id="Group_4">
				<path id="Path_9" class="s5" d="m540.1 507.4l55.3 96.5-78.5 121.2-123.8 191.1 34.7-275.3z"/>
			</g>
			<path id="Path_10" class="s0" d="m716 815.5l-94.9-166.5 342.9-279.1 43.6 145.7z"/>
			<path id="Path_11" class="s8" d="m1133.8 931.8h-530.9l404.7-416.2z"/>
		</g>
		<g id="text">
		</g>
	</g>
</svg>