<svg version="1.2" xmlns="http://www.w3.org/2000/svg" viewBox="0 0 1518 444" width="1518" height="444">
	<title>logo-red-svg</title>
	<defs>
		<clipPath clipPathUnits="userSpaceOnUse" id="cp1">
			<path d="m0 0.33h1517.57v443.34h-1517.57z"/>
		</clipPath>
	</defs>
	<style>
		.s0 { fill: #ff472e } 
	</style>
	<g id="Clip-Path" clip-path="url(#cp1)">
		<g id="Layer">
			<path id="Layer" fill-rule="evenodd" class="s0" d="m119.4 442.1c-23.4 0-45.4-4.5-63.5-13.2-31.2-14.9-50.7-41.3-55.1-74.3-4.1-30.9 8.5-60.9 34.7-82.4 24.1-19.8 57.7-30.8 94.5-30.8 23.2 0.2 46.2 4.2 68.1 11.9 11.4 3.9 22.3 8.9 32.5 15.1l9.8 5.9 0.2-11.5c0.3-17-3.2-48.6-29.4-68.5-19-14.3-44.3-21.9-73.2-21.9-22.5 0-44.8 4.3-65.8 12.6l-21.2-47.7c27.6-11.1 57-16.9 86.8-17 40.5 0 76.7 11.2 104.7 32.4 34.1 25.8 52.3 68.3 49.9 116.6-0.8 15.9-3.7 31.7-8.5 46.9l-0.9 2.9 1.6 2.6c28 44.2 32.8 83.4 33.9 112.8h-53c-0.5-16.2-3.1-32.3-7.7-47.9l-3.5-11.6-7.9 9.3c-11.6 13.7-25.3 25.5-40.6 35-24.1 14.8-54.8 22.9-86.4 22.9zm10.9-148.6c-24.6 0-47.1 6.9-61.9 19-12.3 10.1-17.8 22.2-16.1 35.2 0.8 5.7 3.1 23.2 26 34.1 11.2 5.4 25.3 8.3 40.9 8.3 22 0 43.6-5.6 59.5-15.3 16.1-9.9 30.4-24.6 41.3-42.6l2.9-4.8-4.3-3.6c-11-9.4-23.7-16.6-37.4-21.2-16.4-5.9-33.6-8.9-50.9-9.1z"/>
			<path id="Layer" fill-rule="evenodd" class="s0" d="m511 442.8c-60.5 0-96.1-23.8-115.2-43.8-19.6-20.5-42.2-53.8-42.2-130.1v-268.6h54.5v172.9c0 0 28.9-54.3 112.2-54.3 74.1 0 153.9 56.6 153.9 161.9 0 101.4-61.1 162.1-163.2 162.1zm4.9-274.6c-62.1 2.1-103.1 41.1-105 106.3-0.8 26.8 0.6 60.1 21.5 82.3 19 20.3 42.4 36.5 81.1 36.5 67.5 0 105.6-50.6 105-115.4-0.6-64.9-41.3-111.8-102.6-109.7zm323.9 274.6c-62.4 0-99.3-21.7-125.4-65.3l41.7-25.4c20.2 29.4 49.4 42.5 86.9 42.5 46.3 0 67-22.7 67-46.9 0-29.7-36.2-37.5-74.4-45.7l-10.4-2.3c-64.2-12.9-106.9-32.9-106.9-88.8 0-43.9 40.9-92 116.7-92h1.5c53.9 0 95.2 19.7 115.3 57.2l-40.1 22.7c-17.4-23-42.7-34.7-75.1-34.7-46.1 0-62.5 24.6-62.5 45.5 0 27.7 28.4 34 75.5 44.6l6 1.4c55.5 11.9 109.5 28.8 109.5 90.8 0 47.9-42.5 96.4-123.8 96.4zm333.7 0.8c-90.1 0-160.6-71.3-160.6-162.3 0-91.1 70.5-162.4 160.6-162.4 63.1 0 116.6 32.6 140.3 90.2l-46.6 20.3c-18.3-37.1-55.1-63.2-96-63.2-59.9 0-104.5 52.8-104.5 115.1 0 62.2 48.6 113.2 109.1 113.2 41.1 0 75.2-25.3 93.4-64.1l45.9 20.8c-23.6 62.5-76.8 92.4-141.6 92.4zm207.2-275.2h55.8v266.1h-55.8zm27.8-47.4c-21.8 0-39.4-17.2-39.4-38.6 0-21.4 17.6-38.7 39.4-38.7 21.8 0 39.5 17.3 39.5 38.7 0 21.4-17.7 38.6-39.5 38.6zm82.2 313.5c-4.9 0.1-9.8-1.1-14.1-3.5-3.9-2.2-7.2-5.5-9.4-9.5-2.3-4.2-3.4-8.8-3.4-13.6 0-4.7 1.1-9.4 3.4-13.6 2.2-3.9 5.5-7.2 9.4-9.5 4.4-2.2 9.2-3.4 14-3.4 4.9 0 9.8 1.2 14.1 3.4 3.9 2.3 7.2 5.5 9.5 9.5 2.2 4.2 3.4 8.9 3.4 13.6 0 4.8-1.2 9.5-3.4 13.7-2.3 3.9-5.6 7.2-9.5 9.4-4.3 2.4-9.1 3.6-14 3.5zm0-5.6c3.8 0.1 7.6-0.8 11-2.7 3-1.8 5.6-4.4 7.2-7.5 1.8-3.4 2.6-7 2.6-10.8 0-3.7-0.8-7.4-2.6-10.7-1.6-3.2-4.2-5.8-7.2-7.6-3.4-1.7-7.2-2.7-11-2.7-3.8 0-7.6 1-11 2.7-3.1 1.8-5.6 4.4-7.3 7.6-1.8 3.3-2.7 7-2.7 10.7 0 3.8 0.9 7.4 2.7 10.8 1.7 3.1 4.2 5.7 7.3 7.5 3.4 1.9 7.1 2.8 11 2.7zm-11.2-6.6v-28.8h12.4c2 0 3.9 0.4 5.6 1.2 1.5 0.7 2.9 1.8 3.8 3.2 1 1.5 1.4 3.2 1.4 4.9 0 1.3-0.2 2.6-0.8 3.8-0.5 1.2-1.3 2.2-2.3 3q-1.7 1.3-3.7 1.9l-1.8-2.6-5.1 1.8 0.9 1.4h-4.4v10.2zm12.2-10.2h-1.8l6.5 10.2h6.9l-7.4-10.8c-1.3 0.4-2.8 0.6-4.2 0.6zm-6.2-4.4h5.9c1.4 0.1 2.7-0.3 3.9-1.1 0.8-1 1.3-2.3 1.3-3.6 0-1.3-0.5-2.6-1.3-3.6-1.2-0.8-2.5-1.2-3.9-1.1h-5.8z"/>
		</g>
	</g>
</svg>