<svg version="1.2" xmlns="http://www.w3.org/2000/svg" viewBox="0 0 1507 1403" width="1507" height="1403">
	<title>E-Frac-Final-1-pdf-svg (1)-svg</title>
	<defs>
		<clipPath clipPathUnits="userSpaceOnUse" id="cp1">
			<path d="m-12516.17-24568.79h21195.48v27399.83h-21195.48z"/>
		</clipPath>
	</defs>
	<style>
		.s0 { fill: #87c847 } 
		.s1 { fill: #ffffff } 
	</style>
	<g id="Clip-Path: Clip-Path: Page 1" clip-path="url(#cp1)">
		<g id="Clip-Path: Page 1">
			<g id="Page 1">
				<path id="Path 8" class="s0" d="m1131 700q-12-12-20.6-22.6-135.2-139.9-270.3-278.4c-8.7-8.6-12.1-17.3-12.1-27.8q0-177.9 0-354.4v-14q1.5-1.9 1.5-1.9 1.9 0 1.9 0c225.1 233.7 450.2 465.5 675.3 699.1-225.1 233.2-450.2 466.9-677.2 702 0-6.7-1.5-10.1-1.5-13.4q0-181.8 0-361.6c0-10.6 3.4-17.3 10.1-24.5q142.4-145.2 282.4-292.4c3.8-1.4 5.3-4.8 10.5-10.1z"/>
				<path id="Path 9" class="s1" d="m0.3 701.5c3.4-3.4 5.3-6.8 8.7-8.7q64-67.3 127.9-133.2 83.2-86 166.4-171.1 77.9-82.7 157.8-164.5 77.9-81.2 155.8-162.5 29.3-29.3 56.8-58.7c1.9 0 1.9 0 1.9 0q1.9 2 1.9 2v1395.8c-8.6 0-10.6-5.3-15.9-10.6q-53.3-56.7-109.1-113.9-62.1-64-122.7-127.9-81.7-83.2-161.1-166.4-79.8-82.7-159.2-165.9-51.9-51.9-102.4-105.8c-1.5-3.3-3.4-4.8-6.8-8.6z"/>
			</g>
		</g>
	</g>
</svg>