<svg version="1.2" xmlns="http://www.w3.org/2000/svg" viewBox="0 0 1515 1440" width="1515" height="1440">
	<title>logo (3)-svg</title>
	<style>
		.s0 { fill: #d8354c } 
		.s1 { fill: #da2027 } 
	</style>
	<g id="Layer_2">
		<g id="Layer_1-2">
			<path id="Layer" class="s0" d="m420.6 600.4c8.6 39.5 12.9 79.8 12.9 120.2c0 40.4-4.3 80.7-12.9 120.2c-8.5 39.5-21.3 77.9-38 114.7l-76.7 167.3c-87.9-24.8-165.3-77.6-220.4-150.3c-55.1-72.8-84.9-161.5-84.9-252.7c0-91.2 29.8-179.9 84.9-252.6c55.1-72.7 132.5-125.5 220.4-150.3l76.7 168.8c16.7 36.8 29.5 75.2 38 114.7z" />
			<path id="Layer" class="s1" d="m1499.5 668.9c9.9 15.4 15.2 33.4 15.2 51.7c0 18.3-5.3 36.2-15.2 51.7c-9.9 15.4-24 27.6-40.7 35.3l-1105.9 622.7c-18 8.4-38.1 11-57.6 7.6c-19.5-3.4-37.5-12.7-51.6-26.6c-14-13.9-23.5-31.8-27.1-51.3c-3.6-19.4-1.1-39.5 7.1-57.5l82-180.5c126.5 35.7 262.4 10.2 367.2-69c104.8-79.1 166.4-202.8 166.4-333.9c0-131.2-61.6-254.8-166.4-334c-104.8-79.1-240.7-104.7-367.2-69l-83.2-183.1c-7.4-17.7-9.4-37.2-5.6-55.9c3.7-18.8 13-36.1 26.7-49.5c13.7-13.4 31.1-22.5 49.9-25.9c18.9-3.5 38.4-1.2 55.9 6.5l1109.4 625.4c16.7 7.6 30.8 19.9 40.7 35.3z" />
		</g>
	</g>
</svg>