<svg version="1.2" xmlns="http://www.w3.org/2000/svg" viewBox="0 0 1592 305" width="1592" height="305">
	<title>logo (3)-svg</title>
	<style>
		.s0 { fill: #272856 } 
		.s1 { fill: #da2027 } 
		.s2 { fill: #d8354c } 
	</style>
	<g id="Layer_2">
		<g id="Layer_1-2">
			<path id="Layer" fill-rule="evenodd" class="s0" d="m372.6 244.6l96.4-208.2q0.3-0.8 0.8-1.5q0.6-0.6 1.3-1.1q0.7-0.4 1.5-0.6q0.8-0.3 1.6-0.2h3.1q0.9-0.1 1.7 0.2q0.7 0.2 1.4 0.6q0.7 0.5 1.2 1.1q0.5 0.7 0.8 1.5l95.5 208.2c0.5 0.9 0.7 1.8 0.7 2.8c-0.1 1-0.4 2-0.9 2.8c-0.6 0.8-1.3 1.5-2.2 1.9c-0.9 0.5-1.9 0.7-2.9 0.6h-26.9q-1.5 0-2.9-0.4q-1.4-0.4-2.6-1.3q-1.2-0.8-2.1-2q-0.8-1.2-1.3-2.6l-15.2-33.4h-92.6l-15.3 33.4q-0.5 1.4-1.4 2.6q-0.9 1.1-2.1 2q-1.2 0.8-2.6 1.2q-1.5 0.4-2.9 0.4h-26.8c-1 0.1-2-0.1-2.9-0.5c-0.9-0.5-1.6-1.1-2.1-2c-0.6-0.8-0.9-1.7-0.9-2.7c-0.1-1 0.1-1.9 0.6-2.8zm133.9-65.9l-31-68.1h-1l-30.3 68.1z" />
			<path id="Layer" fill-rule="evenodd" class="s0" d="m640.2 125.8q3.6 0 7.1 0.4q3.5 0.4 7 1.1q3.5 0.7 6.8 1.7q3.4 1 6.7 2.4v-89.5q0.1-1.1 0.5-2.2q0.5-1.1 1.3-1.9q0.8-0.8 1.9-1.2q1.1-0.5 2.2-0.5h26.4q1.1 0 2.2 0.5q1 0.4 1.8 1.2q0.9 0.9 1.3 1.9q0.5 1.1 0.5 2.2v204.9q0 1.1-0.5 2.2q-0.5 1-1.3 1.8q-0.8 0.9-1.8 1.3q-1.1 0.5-2.2 0.5h-12.2c-2.8 0-5-2.4-5.9-5.8l-3.1-9.6c-2.5 2.8-5.3 5.4-8.4 7.7c-3 2.3-6.3 4.3-9.8 5.9c-3.5 1.6-7.1 2.8-10.8 3.6c-3.8 0.9-7.6 1.3-11.4 1.3c-33.8 0-59.5-29.4-59.5-64.9c-0.3-36.2 24.2-65 61.2-65zm2.8 96.5c3 0 5.9-0.5 8.7-1.4c2.8-1 5.4-2.4 7.8-4.2c2.3-1.9 4.3-4 6-6.5c1.6-2.5 2.8-5.2 3.6-8.1v-35.8q-2.7-1.8-5.6-3.2q-2.9-1.4-6-2.3q-3.1-0.9-6.3-1.3q-3.2-0.4-6.4-0.3c-4.1 0-8.1 0.9-11.8 2.5c-3.7 1.7-7.1 4-9.9 7c-2.8 2.9-5 6.4-6.4 10.2c-1.5 3.8-2.1 7.8-2 11.9c-0.1 17.3 11.7 31.4 28.1 31.4z" />
			<path id="Layer" class="s1" d="m733.9 63.6c0-2.8 0.5-5.6 1.6-8.1c1-2.6 2.6-5 4.5-7c2-1.9 4.3-3.5 6.9-4.6c2.5-1.1 5.3-1.6 8.1-1.6c5.8-0.3 11.5 1.8 15.7 5.9c4.2 4 6.6 9.6 6.6 15.4c0 5.8-2.4 11.4-6.6 15.4c-4.2 4.1-9.9 6.2-15.7 6c-2.8-0.1-5.6-0.6-8.1-1.7c-2.6-1.1-4.9-2.7-6.9-4.7c-1.9-1.9-3.5-4.3-4.5-6.9c-1.1-2.6-1.6-5.3-1.6-8.1z" />
			<path id="Layer" class="s0" d="m736.7 134.8q0-1.2 0.5-2.3q0.4-1.1 1.2-1.9q0.9-0.8 2-1.3q1-0.4 2.2-0.4h25.7q1.2 0 2.3 0.4q1.1 0.5 1.9 1.3q0.8 0.8 1.3 1.9q0.4 1.1 0.4 2.3v112q0 1.1-0.5 2.2q-0.5 1-1.3 1.8q-0.8 0.9-1.8 1.3q-1.1 0.5-2.3 0.5h-25.7q-1.1 0-2.2-0.5q-1.1-0.4-1.9-1.2q-0.8-0.9-1.3-1.9q-0.4-1.1-0.5-2.2z" />
			<path id="Layer" class="s0" d="m861.6 125.8c4.4-0.1 8.8 0.3 13.1 1.3c4.3 0.9 8.5 2.3 12.4 4.2c4 1.9 7.8 4.3 11.2 7.1c3.4 2.7 6.5 5.9 9.2 9.4q0.8 1 1.1 2.2q0.3 1.2 0 2.4q-0.2 1.3-0.9 2.3q-0.7 1.1-1.8 1.7l-14.2 13.6c-2.8 2.5-5.6 1-7.8-0.9q-2-2.3-4.4-4.1q-2.4-1.8-5.1-3.1q-2.8-1.2-5.7-1.9q-2.9-0.7-6-0.8c-4 0.1-8 1-11.8 2.6c-3.7 1.7-7.1 4-9.9 6.9c-2.8 3-5 6.4-6.5 10.2c-1.5 3.8-2.2 7.8-2.2 11.9c-0.1 4 0.6 8 2.1 11.8c1.4 3.7 3.6 7.1 6.4 10c2.7 3 6.1 5.3 9.7 6.9c3.7 1.7 7.7 2.6 11.7 2.7c13.4 0 19.2-6.5 24.8-11.8q0.7-0.8 1.7-1.3q0.9-0.5 2-0.7q1.1-0.1 2.1 0.2q1.1 0.3 2 0.9l13.3 11.4c3.1 2.5 4.3 5.6 2.2 8.7c-2.6 4.1-5.7 7.9-9.2 11.2c-3.6 3.3-7.5 6.1-11.8 8.4c-4.3 2.2-8.9 3.9-13.6 5c-4.7 1.1-9.6 1.6-14.4 1.4c-8.6 0-17.1-1.6-25.1-4.9c-7.9-3.2-15.1-8-21.2-14c-6.1-6.1-11-13.2-14.3-21.1c-3.3-7.9-5-16.4-5.1-25c0.2-8.5 2-17 5.4-24.8c3.4-7.9 8.3-15 14.4-21c6.1-6 13.3-10.8 21.2-14c8-3.3 16.4-5 25-5z" />
			<path id="Layer" fill-rule="evenodd" class="s0" d="m985 125.8c7.6-0.2 15.2 1.2 22.3 4c7.1 2.8 13.5 7.1 18.9 12.4c5.4 5.4 9.7 11.8 12.6 18.9c2.8 7.1 4.2 14.6 4.1 22.3q0 1-0.1 2q0 1.1-0.1 2.1q-0.1 1.1-0.2 2.1q-0.1 1-0.2 2.1q-0.2 1.1-0.7 2q-0.5 1-1.3 1.7q-0.8 0.8-1.8 1.2q-1 0.3-2.1 0.4h-79.4c0.4 3.6 1.4 7.2 3 10.5c1.7 3.3 3.9 6.3 6.6 8.7c2.8 2.5 6 4.4 9.4 5.8c3.5 1.3 7.1 1.9 10.8 1.9q3.3-0.1 6.4-0.6q3.2-0.5 6.3-1.5q3.1-0.9 6-2.4q2.9-1.4 5.6-3.2c3.1-1.9 5.9-2.6 8.1 0l12.7 14.5q0.9 0.8 1.4 1.8q0.5 1.1 0.4 2.3q0 1.2-0.6 2.2q-0.5 1.1-1.5 1.8q-4.7 4.2-10.1 7.4q-5.4 3.3-11.4 5.5q-5.9 2.2-12.1 3.2q-6.3 1-12.6 0.9c-37.2 0-63.5-29.4-63.5-65c0-35.5 26.2-65 63.1-65zm21.6 49.5c-0.2-2.8-1-5.6-2.2-8.1c-1.3-2.5-3-4.8-5-6.7c-2.1-2-4.5-3.5-7.1-4.6c-2.7-1-5.5-1.6-8.3-1.6c-2.9-0.1-5.8 0.4-8.6 1.5c-2.7 1-5.3 2.5-7.5 4.4c-2.2 1.9-4.1 4.2-5.5 6.8c-1.3 2.6-2.3 5.4-2.7 8.3z" />
			<path id="Layer" class="s0" d="m1069.1 161.6h-10.6q-1.1-0.1-2.1-0.5q-1.1-0.5-1.8-1.3q-0.8-0.9-1.2-1.9q-0.5-1.1-0.4-2.2v-20.9q-0.1-1.2 0.3-2.3q0.4-1 1.2-1.9q0.8-0.8 1.8-1.3q1.1-0.4 2.2-0.4h10.6v-34.4q0-1.1 0.5-2.2q0.5-1 1.4-1.8q0.8-0.8 1.9-1.2q1.1-0.4 2.2-0.4l25.4-0.4q1.2 0.1 2.2 0.6q1 0.4 1.8 1.3q0.8 0.8 1.2 1.8q0.4 1.1 0.4 2.2v34.5h27.3q1.2-0.1 2.3 0.4q1.1 0.4 1.9 1.2q0.8 0.9 1.3 2q0.4 1.1 0.4 2.3v20.7q0 1.2-0.4 2.3q-0.4 1.1-1.3 2q-0.8 0.8-1.9 1.3q-1.1 0.5-2.3 0.5h-27.3v49.3c0 8.6 4.7 9.9 9.6 9.9q2-0.2 3.9-0.4q1.9-0.3 3.8-0.7q2-0.5 3.8-1q1.9-0.6 3.7-1.3q1-0.5 2.1-0.5q1.2 0 2.1 0.5q1 0.5 1.7 1.4q0.7 0.9 0.9 2l6.2 19.5q0.5 1 0.4 2.2q0 1.2-0.5 2.2q-0.5 1.1-1.3 1.9q-0.9 0.7-2 1.1q-4.4 1.7-8.9 3.1q-4.6 1.4-9.2 2.4q-4.6 1.1-9.3 1.7q-4.7 0.6-9.4 0.9c-23.9 0-34.5-14.9-34.5-39.9z" />
			<path id="Layer" fill-rule="evenodd" class="s0" d="m1235.3 41.9q0-1.1 0.5-2.2q0.4-1.1 1.3-1.9q0.8-0.8 1.9-1.3q1.1-0.4 2.2-0.4h71c36.9 0 65.4 24.7 65.4 57.2c0 23.8-19.6 42.4-34.1 49.2c16.4 5.3 40.4 21.9 40.4 50.4c0 34.7-29.7 59.7-67.5 59.7h-75.2q-1.1 0-2.2-0.4q-1.1-0.4-1.9-1.3q-0.9-0.8-1.3-1.9q-0.5-1.1-0.5-2.2zm73.2 85c3.6 0.1 7.2-0.7 10.5-2.1c3.3-1.4 6.3-3.4 8.8-6.1c2.5-2.6 4.4-5.6 5.7-9c1.3-3.4 1.8-7 1.6-10.6c0.2-3.5-0.4-7.1-1.6-10.3c-1.3-3.3-3.3-6.3-5.8-8.8c-2.5-2.5-5.5-4.5-8.8-5.7c-3.3-1.3-6.9-1.8-10.4-1.6h-33.1v54.1zm4.3 89.1c3.7 0.1 7.4-0.6 10.8-2.1c3.5-1.4 6.6-3.5 9.2-6.1c2.6-2.6 4.6-5.8 6-9.2c1.3-3.5 2-7.1 1.9-10.8c0-15.5-15.5-27-31.6-27h-33.7v55.2z" />
			<path id="Layer" class="s0" d="m1402.7 63.6c-0.1-2.8 0.5-5.6 1.5-8.1c1.1-2.6 2.6-5 4.6-7c1.9-1.9 4.3-3.5 6.8-4.6c2.6-1.1 5.4-1.6 8.1-1.6c5.9-0.3 11.6 1.8 15.8 5.9c4.2 4 6.6 9.6 6.6 15.4c0 5.8-2.4 11.4-6.6 15.4c-4.2 4.1-9.9 6.2-15.8 6c-2.7-0.1-5.5-0.6-8.1-1.7c-2.5-1.1-4.9-2.7-6.8-4.7c-2-1.9-3.5-4.3-4.6-6.9c-1-2.6-1.6-5.3-1.5-8.1zm2.8 71.2q0-1.2 0.4-2.3q0.5-1.1 1.3-1.9q0.8-0.8 1.9-1.3q1.1-0.4 2.3-0.4h25.8q1.2 0 2.3 0.4q1 0.5 1.9 1.3q0.8 0.8 1.2 1.9q0.5 1.1 0.5 2.3v112q-0.1 1.1-0.5 2.2q-0.5 1-1.3 1.8q-0.8 0.9-1.9 1.3q-1 0.5-2.2 0.5h-25.7q-1.2 0-2.2-0.5q-1.1-0.4-1.9-1.2q-0.8-0.9-1.3-1.9q-0.5-1.1-0.5-2.2z" />
			<path id="Layer" fill-rule="evenodd" class="s0" d="m1527.9 125.8c8.4 0.1 16.7 1.9 24.4 5.3c7.7 3.3 14.7 8.1 20.6 14c5.9 6 10.5 13.1 13.7 20.9c3.2 7.7 4.8 16 4.8 24.4c0 35.6-28.3 65.3-63.5 65.3c-35.2 0-63.5-29.7-63.5-65.3c0-8.4 1.6-16.7 4.8-24.4c3.2-7.8 7.8-14.9 13.7-20.9c5.9-5.9 12.9-10.7 20.6-14c7.7-3.4 16-5.2 24.4-5.3zm0 96.5c4-0.1 8-1.1 11.7-2.7c3.7-1.7 7-4.1 9.8-7.1c2.7-2.9 4.9-6.4 6.3-10.2c1.4-3.8 2.1-7.8 1.9-11.8c0.4-8.2-2.5-16.1-8.1-22.1c-5.6-5.9-13.5-9.2-21.6-9.2c-8.2 0-16 3.3-21.6 9.2c-5.6 6-8.6 13.9-8.2 22.1c0 17.6 13 31.7 29.8 31.7z" />
			<path id="Layer" class="s2" d="m89.6 126.9c1.8 8.4 2.7 16.9 2.7 25.4c0 8.5-0.9 17-2.7 25.4c-1.8 8.3-4.5 16.4-8 24.2l-16.2 35.3c-18.5-5.2-34.9-16.4-46.5-31.7c-11.6-15.4-17.9-34.1-17.9-53.4c0-19.2 6.3-37.9 17.9-53.3c11.6-15.3 28-26.5 46.5-31.7l16.2 35.6c3.5 7.8 6.2 15.9 8 24.2z" />
			<path id="Layer" class="s1" d="m317.3 141.4c2.1 3.3 3.2 7 3.2 10.9c0 3.9-1.1 7.7-3.2 10.9c-2.1 3.3-5.1 5.9-8.6 7.5l-233.4 131.4c-3.8 1.8-8 2.3-12.1 1.6c-4.1-0.7-7.9-2.7-10.9-5.6c-3-2.9-5-6.7-5.7-10.8c-0.8-4.1-0.3-8.4 1.5-12.2l17.3-38.1c26.7 7.6 55.3 2.2 77.5-14.5c22.1-16.7 35.1-42.8 35.1-70.5c0-27.7-13-53.8-35.1-70.5c-22.2-16.7-50.8-22.1-77.5-14.6l-17.6-38.6c-1.6-3.7-2-7.9-1.2-11.8c0.8-4 2.8-7.6 5.7-10.5c2.8-2.8 6.5-4.7 10.5-5.4c4-0.8 8.1-0.3 11.8 1.3l234.1 132c3.5 1.7 6.5 4.2 8.6 7.5z" />
		</g>
	</g>
</svg>