<svg version="1.2" xmlns="http://www.w3.org/2000/svg" viewBox="0 0 1535 1548" width="1535" height="1548">
	<title>logo-desk-svg</title>
	<style>
		.s0 { fill: #ffffff } 
	</style>
	<g id="#ffffffff">
		<path id="Layer" fill-rule="evenodd" class="s0" d="m115.8 387.8c224.9-129.2 449.6-258.6 674.6-387.5 164.3 91.7 327.3 185.8 491 278.5 52.9 30.5 106.7 59.4 158.6 91.7-0.2 29.1 0.4 58.2 0.2 87.3-103.6 0-207.1 0-310.7 0-91-1.9-179.3-27.2-268.8-40.9-92.9-13.5-189.7-14.5-279.8 14.5-36.9 11.8-72 29.2-103.7 51.5-120.5-0.8-241.1-0.2-361.7-0.4 0.6-31.6 0.3-63.1 0.3-94.7zm494.5-246.1c-136.9 78.8-274 157-410.5 236.5-7.6 4.8-15.9 8.3-23.7 12.9 93.5 2.1 187 0.2 280.5 1 15.3 2.2 26-10.8 38.7-16.7 109.1-61.7 240.5-68.3 362-49.2 83.6 13.9 165.5 40.4 250.9 42.3 87.7 0.1 175.4 0 263.1 0-193.4-109.8-387.2-218.7-579.8-329.9-61 33.2-120.7 68.8-181.2 103.1zm-494.5 377c441.6 0 883.1 0 1324.7 0 0 21.9 0 43.7 0 65.6-441.6 0-883.1 0-1324.7 0 0-21.9 0-43.7 0-65.6zm0 99.4c441.6 0 883.1 0 1324.7 0 0 21.8 0 43.7 0 65.5-441.6 0-883.1 0-1324.7 0 0-21.8 0-43.7 0-65.5z"/>
		<path id="Layer" fill-rule="evenodd" class="s0" d="m185.4 805.9c17.7-6 30.7-19.6 44.7-31.1 6.3 1.1 9.8 6.1 11.2 11.9 37 114.8 77.7 228.5 116.4 342.8 5.4 14 8.9 29.7 19.9 40.7 11.6 9.3 27.5 9.2 41.3 13.2 0.4 5.7 0.6 11.5 0.5 17.3-54.5-2.3-108.9-1.2-163.3-0.3-0.6-5.8-1-11.5-1.4-17.3 11.3-2.7 24.3-1.4 34.4-7.9 5.4-7.9 0-18.1-1.7-26.5-11.1-31.4-21-63.2-33.1-94.2-4.2-11.8-18.6-8.2-28.1-9-30.4 0.9-61-1.8-91.3 1.5-11.8 22.7-17.1 48.4-26.4 72.3-4.8 17.2-14.7 34.2-12.9 52.4 10 10.3 27.5 7 40.5 11.7-0.2 5.8-0.7 11.7-1.6 17.5-44.5-2.1-89-1.8-133.6-0.5-0.1-5.7-0.1-11.4 0-17.1 14.5-4.1 32-2.4 43.6-13.6 10.4-12 15.1-27.6 21.4-41.9 38-96.5 74.4-193.6 112-290.1 4.1-10.2 6.4-20.9 7.5-31.8zm9.5 69.1c-18.2 46.5-35.5 93.3-50.8 140.8 32.1 1.9 64.7 3.2 96.6-0.6 0.7-13.8-6.8-26.2-10.6-39.2-12.4-33.4-22.1-67.8-35.2-101zm323.9-87c70.4-21.3 145.6-12.5 215.8 5 2 33.4 5 66.8 8.9 100-6.3 1.1-12.8 1.7-19.3 1.5-7.8-26.8-20.7-53.4-43.7-70.4-30.7-23.1-71.8-26.9-108.7-20.5-42.1 7.3-80.5 33.7-102 70.8-25.7 43.3-30.6 95.8-25.3 145 5.3 47.9 25.4 95.8 62.7 127.4 40.6 35.5 101 46.9 151.4 27.5 29.9-11.5 53.5-35.7 68.3-63.7 4.1-7.3 7-15.3 12-22.1 5.7-2.6 11.6 0.5 17.3 1.7-3.5 33.9-13.1 67.4-29.2 97.5-75 24.4-157.9 30.5-233 3.4-52.6-18.7-98.9-58-120.2-110.2-24.7-60.7-22.2-132.9 9.3-190.6 27.7-51.9 79.9-86.6 135.7-102.3zm572.3-3.7c95.4 4.9 190.6-8.5 286-3.3 31.7 2.5 65.2 7 91.6 26.1 32 22.2 42.2 67.8 29.1 103.2-12.3 29.9-43.3 44.1-71.4 55.5 21.2 8 44.7 11 63.4 25 55.2 34.8 59.8 122.9 12.5 166.2-18.7 17.8-43.2 28.4-68.4 33.4-46.8 9.5-94.9 6.6-142.3 5.2-34.3-1-68.6 1.3-102.9 1-0.2-5.5-0.2-10.9 0.1-16.3 13.6-5.7 31.7-1.3 42.5-13.1 8.7-13.5 7.2-30.5 8.2-45.9 0.2-90.9 0.2-181.9 0-272.8-1.3-13 0.9-30.2-11.3-38.7-17-7.5-38.1-7.5-54.4 1.8-9.6 7.6-9.9 21.1-11.9 32.2-4.5 46.9-2.8 94-3.2 141 0.4 73.3-1.2 146.6 1.8 219.8-7.1 3.2-17.9 12.4-23.9 3.5-64.3-76.3-130.9-150.6-196.4-225.9-30.8-34.5-60.4-70.3-92.8-103.5-1.7 49.5-0.6 99.1-0.9 148.6 0.6 39-0.9 78.3 5.2 116.9 2 10.3 3.9 22.3 13.5 28.4 12 7.8 26.9 7.1 40.2 11 3.1 5.5 1 11.6-0.2 17.3-47.5-2.2-95.1-2-142.6-0.3-0.2-5.8-3.2-12.7 1.3-17.6 14-5.6 35.1-2.6 42.1-19 7.9-26.2 6.5-54 7.6-81.1 0.3-71 0-142 0.1-213-0.3-16-0.7-34.2-12.7-46.2-13.1-15.4-34.4-17.8-52.7-22.7q0.2-8.7 1-17.3c40.1 2 80.5 2.7 120.6-0.2 13.1 24.5 30.8 46.1 48 67.7 45.5 56.5 97 107.7 144.9 162.1 20.7 22.5 40.2 46.3 62.6 67.3 0.8-61.8 0.7-123.6 0-185.4-1.5-24.8-1-50.7-10.5-74-9.2-17.8-32.1-15.6-48.6-20.6q-3.4-7.8 0-15.6c8-2.6 16.6-0.6 24.8-0.7zm227.4 23.7c-6.1 4.1-5.4 12.2-5.8 18.6-0.2 38.5 0 77-0.1 115.5 0.5 6.8-1.4 18.1 8.6 18.4 32.9 2.9 75.5 0.8 93.8-31.7 14.4-30.5 14.8-71.2-7.4-98.1-21.6-24.6-58.7-30.2-89.1-22.7zm0.6 179.8c-7.9 2.3-6.1 11.8-6.5 18.1 0.4 37-0.8 74 0.7 111 0.8 18.8 5.8 42.2 25.7 49.7 35.7 12.7 82.5 3.6 102.9-30.7 25.2-44.2 11.8-109.8-34.4-134.8-26.6-14.4-58.8-18.8-88.4-13.3z"/>
		<path id="Layer" fill-rule="evenodd" class="s0" d="m137.8 1310c38.3-42.3 102.2-43.4 153.7-29.5 1.1 16.4 2.9 32.8 3.9 49.2-2.1-0.6-6.3-1.8-8.4-2.4-5.9-12.7-11.4-26.9-24.3-34.2-28.9-17.1-69.6-8.4-90.1 18-16.3 20.9-20 49-17.3 74.7 2.4 25.1 13.8 50.5 34.9 65.2 23.3 16.7 58 18.4 80.7-0.1 10.3-8 15.9-20 22.3-30.9 2.1-0.3 6.1-1 8.1-1.3-0.5 16-5.4 31.9-12.7 46.1-27.7 11.7-59.3 13.8-88.8 8.7-30.6-5.3-60.6-22.7-74.9-51.2-17.8-35.5-13.5-82.1 12.9-112.3zm1014.9-32.6c12.5-7.2 30.6 3.3 28.1 18.3-0.2 13.5-16.9 21-28.1 14.8-12.8-6.1-12.8-27.1 0-33.1zm-107.4 74.6c10.5-5.3 17.2-15.2 24.9-23.6 11.5 1.7 4.1 17.7 6.6 25.9 12.3 0.1 24.6 0.1 37 0.4-0.6 3.2-1.7 9.6-2.3 12.8-11.6 1.6-23.4 0.8-35.1 1.4q-0.7 30.9-0.1 61.9c0.6 9.3 2 20.9 11.3 25.7 9.3 5.1 19.1-1.1 28.2-3.5 0.3 10.5-9.8 15.5-18.1 19.1-16.2 5.8-37.1 5.7-48.8-8.7-15.5 14.3-41.4 17-56.3 0.5-13.6 8.2-30.1 15.8-46 9.2-18.5-6.6-23.5-35.9-6.3-46.8 15.7-9.9 34.7-12.7 51.1-21.2 5.8-14.3 2.8-43.1-18.5-40.2-14.6 0.6-9.7 21-21.5 25-6.8 3.5-14.5 3.2-21.9 2.9 1.7-22.1 24.4-33.6 43.1-39.4 17.8-5.5 44.3-1.5 49.5 19.5 4.4 25.1-3.2 50.9 0.6 76.1 1.8 11.8 14.6 11.3 23.6 9.1-2.8-29.5-0.6-59.2-1.7-88.8q-9.8-1.1-19.6-2.3c3.6-8.5 13.3-10.4 20.3-15zm-83.8 88.6c-2.8 15 19.1 25.8 28.1 12.9 4.2-11.1 2.1-23.5 2.5-35.1-12.1 3.3-30.2 6.3-30.6 22.2zm-517.7-74.6c13.8-8.1 29.1-13 43.4-20.1 0.3 7.1 0.5 14.3 0.8 21.4 11.8-7 24-20.6 39-14.5 12.6 5.1 9.9 25.9-2.8 29.1-11.4 6.1-28.4-17.5-34.7-0.3-2.3 23.9-1.7 48.3-0.2 72.3 1.3 14.2 24.2 2.6 24.7 18-25.6 0.1-51.2-0.4-76.7-0.1 1.4-11.3 18.1-7.3 18.8-18.2 1.8-22.7 0.8-45.7 0.8-68.5 1.1-9-8.2-13.2-13.1-19.1zm104.2-1.4c15.6-5.9 30.6-13.1 45.6-20.2q-0.4 9.8-1 19.7c19.9-10.6 45-19.4 65.8-5.7 35.5 23.5 28.9 82.8-5.2 104.8-17.4 12.5-39.6 12.9-60.1 12.1-0.3 18.2-1.7 36.7 0.8 54.8 2.1 9.5 14.9 6.5 21.8 9.2-0.1 2-0.3 6-0.3 8-25.2-1-50.4-0.2-75.5-0.5 0.8-10.2 12.1-8.6 18.9-12.4 3.3-9.6 2.4-19.9 2.7-29.9-0.3-39.6 0.3-79.3-0.2-118.9 0.3-9.2-9-14-13.3-21zm54.2 5.7c-6.3 1.8-9.7 8.1-9.3 14.5-0.6 18.7-0.5 37.4 0 56.2 0.5 19.4 28 30 41.6 16 15.4-15.9 16.6-41.1 11.3-61.6-4.5-18.3-25-32.2-43.6-25.1zm224.7-4.1c13.7-8.4 29.2-13.2 43.6-20.2 0.2 7 0.3 14.1 0.5 21.2 12.1-6.8 24.6-20.8 39.7-14.2 12 5.7 9.3 25.4-3 28.9-11.8 6.3-27.5-16.8-34.7-1.2-3 15.5-0.9 31.5-1.5 47.2 0.5 10.7-1.6 22.2 3.3 32.1 7.9 3.7 21.4 0 22.4 11.9-25.5 0.2-51.1-0.4-76.6-0.1 1.8-8.7 11-9.3 17.4-13.3 4.5-24.1 1.9-49.1 1.9-73.6 1.2-9-8.1-13-13-18.7zm306.3-1.9c15.4-5.2 30.3-11.5 44.9-18.5 0.3 35.8-2 71.6 0.5 107.3-0.4 11.5 18.5 6.5 18.1 18.8-23.2-0.4-46.4-0.2-69.6 0 1.4-8.8 10.4-9.5 16.8-13 4.1-11.2 2.2-23.4 2.8-35.1-1.4-20.5 6.2-45.5-13.5-59.5zm191.6 0.1c14.8-5.9 29.7-11.6 44.2-18.4q-0.1 10.1-0.1 20.4c14.7-7.4 29.5-17.4 46.8-15.1 16.1 0.4 28.9 14.3 30.1 29.9 2.2 23.5-0.6 47.3 1.6 70.8-0.6 13.3 18.9 7.3 20.7 19.7-23.9 0.1-47.9 0.1-71.8-0.1 2.8-7.5 10.8-9.3 16.9-13.2 4-15.5 1.9-31.8 2.5-47.6-0.5-11.2 1.5-23.5-4.9-33.4-11.2-15.5-41.6-8.2-41.7 12-0.4 21.1-1 42.3 0.6 63.4-0.3 11.2 16.7 7.9 17.9 19-21.9-0.4-44 0.5-65.8-0.4l-5.8-5.2c6.9-4.1 21.1-2.7 20.9-13.8 1.5-22.3 0.6-44.7 0.6-67.1 0.6-9-8.8-13.6-12.7-20.9zm-968.8-10.4c26.2-7.9 58.5 0.8 73.1 25 16.1 27.3 10.2 68-17.3 85.9-28.5 18.2-73.2 13.7-91.9-16.5-20.7-33.6-3.3-84.6 36.1-94.4zm11.1 10c-15.3 5.3-19.3 23.6-20.5 37.8-1.1 19.3 0.6 41.8 15.2 56.1 10.7 10.2 29.9 5.8 35.1-8 8.8-21.6 7.8-47.1-0.8-68.7-4.4-11.3-16.3-21.2-29-17.2zm372.4-10.1c26-7.8 58 0.9 72.6 24.9 16.8 27.9 10.1 70.3-19.2 87.4-28.4 16.5-70.8 11.8-89.4-17.1-21.4-33.7-4-85.5 36-95.2zm4.9 12.9c-15.1 12.7-15.4 35-14.6 53.1 1.6 16.4 6.7 37.4 24.5 43 13.6 4.3 25.8-7.5 28.5-20 5.5-22 4.7-46.8-6.3-66.9-5.9-11.2-21.3-17.1-32.1-9.2zm493.4-13.1c25.2-7.2 55.5 0.7 70.6 23 18.3 27.7 12.3 71-16.9 88.9-29 17.8-74 12.3-91.7-18.8-19.5-34-1.3-84 38-93.1zm7.4 11.3c-13.3 7.1-16.6 23.8-17.8 37.6-1 18.6 0.7 39.8 14 54.2 9.7 10.6 29.2 8.4 35.4-5.1 10-21.7 8.9-48 0.4-70-4.5-12.6-18.6-22.9-32-16.7z"/>
	</g>
</svg>