<svg version="1.2" xmlns="http://www.w3.org/2000/svg" viewBox="0 0 1546 1444" width="1546" height="1444">
	<title>ACRES Commercial Realty Corp</title>
	<defs>
		<clipPath clipPathUnits="userSpaceOnUse" id="cp1">
			<path d="m-3619.96-11460.09h11743.7v15198.26h-11743.7z" />
		</clipPath>
		<linearGradient id="g1" x1="762.8" y1="878.9" x2="832.9" y2="1060.2" gradientUnits="userSpaceOnUse">
			<stop offset="0" stop-color="#2a8f47"/>
			<stop offset="1" stop-color="#1b4530"/>
		</linearGradient>
	</defs>
	<style>
		.s0 { fill: #1b4530 } 
		.s1 { fill: #2a8f47 } 
		.s2 { fill: url(#g1) } 
	</style>
	<g id="Clip-Path: Page 1" clip-path="url(#cp1)">
		<g id="Page 1">
			<path id="Path 7" fill-rule="evenodd" class="s0" d="m1545.7 726.3c0 243.8-120.9 459.6-306 591.1c0 0-8.7 6.7-24 16.3c-6.7 3.8-96 57.6-176.6 57.6c-173.6 0-229.3-142-229.3-143l-108.4-286.9c-2.9-5.7-5.7-8.6-13.4-8.6h-317.6c-7.7 0-11.5 4.8-14.4 11.5l-48.9 143c113.2 174.6 243.7 271.5 389.5 308l12.5 27.8c-172.7-26.9-324.3-114.2-434.6-239.9l-7.7 23c-12.5 36.5-20.2 72-20.2 98.9c0 29.7 27.9 42.2 52.8 42.2h13.4c14.4 0 19.2 3.8 19.2 9.6c0 8.6-13.4 11.5-26.8 11.5c-35.5 0-94.1-4.8-110.4-4.8c-16.3 0-97.8 4.8-166.9 4.8c-19.2 0-27.8-2.9-27.8-11.5c0-5.8 6.7-9.6 20.1-9.6c10.6 0 24-1 35.5-2.9c68.1-8.6 97.9-64.3 124.7-138.2l35.5-98.8c-76.7-115.1-120.9-253.3-120.9-401.1c0-401 324.3-725.3 725.4-725.3c400.1 0 725.3 324.3 725.3 725.3zm-44.1 2c0-353.1-255.2-641-681.2-641.9c-353.1-1-639 286.9-639 639.9c0 106.5 25.9 208.3 72.9 296.5l261-713.8c17.3-49 24-57.6 32.6-57.6c8.6 0 14.4 6.7 32.6 52.8c22.1 56.6 255.2 665.9 343.5 890.4c32.6 81.5 113.2 128.5 262.9 55.6c136.2-68.1 314.7-306.1 314.7-521.9zm-827.1 161.2l-140-399.2q-11.5-33.6-22.1 0l-130.5 399.2c-2.9 6.7 0 9.6 4.8 9.6h282.1c7.7 0 7.7-3.9 5.7-9.6z" />
			<path id="Path 8" fill-rule="evenodd" class="s1" d="m370.4 952.8c-7.7 0-11.5 4.8-14.4 11.5l-89.2 261.9c-12.5 36.5-20.2 72-20.2 98.9c0 29.7 27.9 42.2 52.8 42.2h13.4c14.4 0 19.2 3.8 19.2 9.6c0 8.6-13.4 11.5-26.8 11.5c-35.5 0-94.1-4.8-110.4-4.8c-16.3 0-97.8 4.8-166.9 4.8c-19.2 0-27.8-2.9-27.8-11.5c0-5.8 6.7-9.6 20.1-9.6c10.6 0 24-1 35.5-2.9c68.1-8.6 97.9-64.3 124.7-138.2l334.9-917.2c17.3-49 24-57.6 32.6-57.6c8.6 0 14.4 6.7 32.6 52.8c22.1 56.6 253.3 665.9 343.5 890.4c53.7 131.4-154.5-51.8-163.1-74.9l-59.5-158.3c-2.9-5.7-5.7-8.6-13.4-8.6zm298.4-53.7c7.6 0 7.6-3.9 5.7-9.6l-140.1-399.2q-11.5-33.6-22 0l-130.5 399.2c-2.9 6.7 0 9.6 4.8 9.6z" />
			<path id="Path 9" class="s2" d="m547.9 251.4c8.6 0 14.4 6.7 32.6 52.8c22.1 56.6 253.3 665.9 343.5 890.4c53.7 131.4-154.5-51.8-163.1-74.9l-59.5-158.3c-2.9-5.7-5.7-8.6-13.4-8.6c4.8-26.9-194.8-572.8-194.8-572.8c17.3-49 46.1-128.6 54.7-128.6z" />
		</g>
	</g>
</svg>