<svg version="1.2" xmlns="http://www.w3.org/2000/svg" viewBox="0 0 1533 360" width="1533" height="360">
	<title>logoColor-svg</title>
	<style>
		.s0 { fill: #1b4b72 } 
		.s1 { fill: #ee723c } 
		.s2 { fill: #064c73 } 
	</style>
	<path id="Layer" fill-rule="evenodd" class="s0" d="m209 214.9h-31.3l-28.5-63.3h-91.1l-26.7 63.3h-31.4l91.7-214.9h21.5zm-72.3-90.6l-34.5-77.4-31.9 77.4zm160.6 67.1c10.7 0 22.9-3.2 36.8-9.4v27.6c-13.9 5.2-27.6 7.7-41 7.7-22 0-39.6-6.5-52.6-19.5-13.2-13.1-19.7-30.6-19.7-52.5 0-22.1 6.4-40 19.1-53.6q19.1-20.3 50.3-20.3 10.8 0 19.5 2 8.6 2.1 21.3 7.8v29.7c-14.1-9-27.1-13.5-39.2-13.5-12.5 0-22.8 4.4-30.9 13.2q-12 13.2-12 33.8 0 21.5 13.1 34.2c8.7 8.5 20.4 12.8 35.3 12.8zm158.2-79.6c-9.7-9.2-18.7-13.8-26.9-13.8q-13.4 0-23.3 12.9c-6.6 8.5-9.8 18.7-9.8 30.4v73.6h-28v-140.8h28v32.3l1.5-2.4c13.5-21.7 26.9-32.6 40.4-32.6q15.7 0 32.8 15.9zm34.8-37.6h27.8v140.7h-27.8zm25.5-54.4q4.9 4.7 4.9 11.6 0 6.7-4.9 11.6c-3.2 3.3-7.1 4.9-11.7 4.9q-6.5 0-11.4-5c-3.2-3.3-4.9-7.1-4.9-11.5 0-4.3 1.7-8.1 4.9-11.4q4.9-5 11.4-5c4.6 0 8.5 1.6 11.7 4.8zm158.8 54.4l-62.1 143.2h-9.4l-63.6-143.2h30.5l37.9 86.7 36.6-86.7zm135.1 20.4q21.3 20.8 21.3 52.2 0 30.4-21.6 50.5-21.5 20.1-54.2 20.1-31.7 0-52.9-20.4-21.3-20.4-21.3-51c0-20.6 7.2-37.7 21.5-51.4q21.5-20.6 53.9-20.6c21.4 0 39.1 6.9 53.3 20.6zm-7 50.8c0-13.3-4.6-24.4-13.6-33.2q-13.7-13.2-34.3-13.2c-13.3 0-24.3 4.4-32.9 13.2-8.5 8.8-12.8 20-12.8 33.5 0 13.5 4.4 24.5 13.2 33 8.7 8.5 20 12.8 33.7 12.8q20.6-0.1 33.6-13c8.7-8.6 13.1-19.7 13.1-33.1zm170.9-48.4c3.9 7.9 5.9 20.4 5.9 37.5v80.5h-27.8v-80.1q0-21.6-6.6-30.9-6.5-9.2-22-9.2c-13.1 0-24.3 6.5-33.5 19.7v100.5h-28.4v-140.8h28.4v17.9c12.5-13.8 26.6-20.6 42.4-20.6 8.7 0 16.9 2.3 24.4 6.8 7.6 4.5 13.3 10.8 17.2 18.7zm-971.7 162.1h63v9.7h-26.3v65.9h-10.8v-65.9h-25.9zm147.8 34.2q1.9 4.4 1.9 13v28.3h-9.8v-30.7c0-3.6-0.9-6.5-2.7-8.8q-2.7-3.3-7-3.3c-2.1 0-4.2 0.5-6.1 1.7-1.9 1.1-4 3-6.3 5.6v35.5h-9.8v-75.4h9.8v32.3c4.1-5 9.2-7.5 15.3-7.5q4.9 0 8.9 2.5c2.6 1.6 4.5 3.9 5.8 6.8zm88.3-2.4q5.9 6.9 5.9 18.5v1.3h-34.9c0.3 4.7 1.9 8.5 4.8 11.3 3 2.8 6.8 4.2 11.4 4.2 6.5 0 12.4-2 17.9-6v9.6c-3 2-6 3.4-9 4.3-3 0.9-6.4 1.3-10.4 1.3-5.4 0-9.9-1.1-13.3-3.4-3.3-2.3-6-5.3-8.1-9.2-2-3.8-3-8.3-3-13.3 0-7.5 2.1-13.7 6.4-18.4 4.3-4.8 9.8-7.1 16.7-7.1q9.8 0 15.6 6.9zm-3.7 13.9c-0.3-3.9-1.5-7-3.5-9.1-2.1-2.1-5-3.2-8.4-3.2q-5.3 0-8.7 3.2-3.4 3.2-4.4 9.1zm81.9-20.9c3.7 0 7.6 1.9 11.6 5.7l-5.1 8.6q-5.2-4.8-9.5-4.8c-3.2 0-5.9 1.5-8.3 4.5-2.3 3-3.5 6.6-3.5 10.7v26h-9.8v-49.6h9.8v11.3l0.6-0.8q7.1-11.5 14.2-11.6zm87.8 44.5q1.8 0 5.6-2.6v6c-2.3 1.4-4.1 2.4-5.4 2.9-1.3 0.5-2.8 0.8-4.2 0.8q-6.4 0-7.5-5c-4.1 3.3-8.6 4.9-13.3 4.9-3.5 0-6.4-1.1-8.7-3.4q-3.4-3.5-3.4-8.7c0-3.1 1.1-5.9 3.4-8.3 2.2-2.5 5.4-4.5 9.5-5.9l12.6-4.3v-2.7q0-8.9-9-8.9-8 0-15.6 8.3v-10.8c3.7-4.4 9.3-6.7 16.4-6.7 5.3 0 9.7 1.4 12.9 4.2q1.6 1.4 2.9 3.6 1.3 2.2 1.6 4.4c0.3 1.6 0.4 4.4 0.4 8.6v21.1q0 2.5 1.8 2.5zm-11.5-3.6v-14.7l-6.6 2.5c-3.3 1.3-5.7 2.6-7.1 4-1.4 1.4-2 3.1-2 5.1 0 2.1 0.6 3.7 1.9 5q2 1.9 5.1 1.9 4.7 0 8.7-3.8zm98.1-33.2c4.9 4.4 7.3 10.5 7.3 18.4q0 11.1-6.9 18.3-6.9 7.2-17.6 7.2c-3.1 0-6.7-0.7-10.5-2.1v26.6h-10v-75h17.1c8.8 0 15.7 2.1 20.6 6.6zm-2.6 18.2q0-4.8-2-8.5-2.1-3.7-5.7-5.5c-2.4-1.1-5.9-1.7-10.5-1.7h-6.9v30.6c3 1.5 6.2 2.3 9.5 2.3 4.6 0 8.3-1.6 11.3-4.8 2.9-3.2 4.3-7.3 4.3-12.4zm93.4-18.9q5.9 6.9 5.9 18.5v1.3h-34.9c0.3 4.7 1.9 8.5 4.8 11.3 3 2.8 6.7 4.2 11.4 4.2 6.5 0 12.4-2 17.9-6v9.6c-3 2-6 3.4-9 4.3-3 0.9-6.4 1.3-10.4 1.3-5.5 0-9.9-1.1-13.3-3.4-3.3-2.3-6.1-5.3-8.1-9.2-2-3.8-3-8.3-3-13.3 0-7.5 2.1-13.7 6.4-18.4 4.3-4.8 9.8-7.1 16.6-7.1 6.6 0 11.8 2.3 15.7 6.9zm-3.7 13.9c-0.2-3.9-1.4-7-3.5-9.1-2.1-2.1-4.9-3.2-8.4-3.2q-5.3 0-8.7 3.2-3.4 3.2-4.4 9.1zm88.2 15.6v-35.4h9.8v49.7h-9.8v-6.4c-2.1 2.3-4.5 4.1-7.1 5.4q-4 1.8-8 1.9-4.7 0-8.7-2.4c-2.6-1.6-4.6-3.7-6-6.4-1.3-2.6-2-7.1-2-13.3v-28.5h9.8v28.3q0 7.8 2.3 10.9 2.2 3.1 7.8 3.1c4.7 0 8.7-2.3 12-6.9zm78.5 6.3q5.3 0 11.2-3.5v9.1q-5.7 3.2-12.4 3.2c-4.5 0-8.2-1.3-11.2-4-0.9-0.7-1.7-1.7-2.3-2.6q-0.9-1.5-1.5-3.9c-0.4-1.6-0.6-4.7-0.6-9.2v-22h-8.7v-1l18.5-18.1v10.3h15.7v8.8h-15.7v24.3c0 5.7 2.3 8.5 7 8.6zm54.8-41.7h9.8v49.6h-9.8zm9-19.3c1.2 1.1 1.8 2.5 1.8 4.1 0 1.6-0.6 2.9-1.8 4.1-1.1 1.2-2.5 1.8-4.1 1.8-1.5 0-2.8-0.6-4-1.8-1.2-1.1-1.8-2.5-1.8-4q0.1-2.3 1.8-4 1.7-1.8 4-1.8c1.6 0 2.9 0.5 4.1 1.6zm75.7 60.7c3.8 0 8.1-1.1 13-3.3v9.8q-7.4 2.7-14.4 2.7c-7.8 0-14-2.3-18.6-6.9q-7-6.9-7-18.5c0-7.8 2.2-14.1 6.7-18.9q6.8-7.2 17.8-7.2c2.5 0 4.8 0.3 6.9 0.7 2 0.5 4.5 1.4 7.5 2.8v10.4q-7.5-4.7-13.8-4.7-6.7 0-11 4.6-4.2 4.7-4.2 11.9c0 5.1 1.5 9.1 4.6 12.1 3 3 7.2 4.5 12.5 4.5zm91.6-4.6c0 4.1-1.6 7.4-4.7 10-3.3 2.6-7.3 3.9-12.3 3.9q-4.5 0-7.9-1-3.5-0.9-8.7-3.5v-10.6c2.8 2 5.6 3.6 8.5 4.8q4.4 1.8 7.3 1.8 3.1 0 5.3-1.5c1.5-1 2.2-2.3 2.2-3.7q0-2.1-1.4-3.6c-1-0.9-3-2.3-6.2-4.1q-9.4-5.3-12.4-9c-2-2.6-2.9-5.3-2.9-8.2 0-3.9 1.5-7 4.4-9.4q4.4-3.6 11.5-3.6c4.9 0 9.8 1.3 14.9 4.1v9.7c-5.8-3.6-10.6-5.3-14.3-5.3-1.9 0-3.4 0.4-4.6 1.2-1.1 0.8-1.7 1.9-1.7 3.2q0 1.7 1.5 3.3c1.1 1.1 2.9 2.3 5.6 3.8l3.5 2c8.3 4.7 12.4 9.8 12.4 15.7z"/>
	<path id="Layer" class="s1" d="m1291.5 87c-4.5-5.5-4.1-13.6 0.8-18.7 0.2-0.2 0.5-0.5 0.8-0.8 5.5-4.9 13.9-4.2 18.7 1.6 4.7 5.8 4 14.5-1.6 19.5-5.6 4.9-14 4.2-18.7-1.6z"/>
	<path id="Layer" class="s1" d="m1289.2 114.3c-3.7 6.5-11.8 8.7-18.1 4.8-6.4-3.9-8.4-12.4-4.6-18.9 0.5-1 1.2-2 2-2.7 4.2-4.4 10.8-5.4 16.1-2.1 6.3 3.9 8.4 12.4 4.6 18.9z"/>
	<path id="Layer" class="s1" d="m1267.2 129.4c7.2 1.5 11.8 8.8 10.3 16.3-1.6 7.5-8.6 12.2-15.7 10.7-7.2-1.5-11.8-8.9-10.3-16.3 0.5-2.7 1.8-5.1 3.6-6.9 3-3.2 7.5-4.8 12.1-3.8z"/>
	<path id="Layer" class="s1" d="m1469.6 250.7c-4.8 5.9-13.1 6.6-18.7 1.7-5.6-5-6.3-13.7-1.6-19.5 0.2-0.3 0.5-0.6 0.7-0.9 4.9-4.9 12.7-5.4 18-0.7 5.6 4.9 6.3 13.6 1.6 19.4z"/>
	<path id="Layer" class="s1" d="m1442.8 259.5c3.7 6.5 1.7 15-4.6 18.9-6.2 4-14.4 1.8-18.2-4.7-3.2-5.5-2.2-12.4 2-16.8 0.8-0.8 1.6-1.5 2.6-2.1 6.2-3.9 14.4-1.8 18.2 4.7z"/>
	<path id="Layer" class="s1" d="m1253.6 171.4c2-2.1 4.7-3.5 7.7-3.9 7.3-1 13.9 4.4 14.9 12 0.8 7.5-4.3 14.4-11.6 15.4-7.3 0.9-13.9-4.5-14.8-12-0.5-4.4 1-8.6 3.8-11.5z"/>
	<path id="Layer" class="s1" d="m1358.7 295.9c-7.3-0.9-12.4-7.8-11.5-15.3 0.3-3.2 1.7-6 3.7-8.1 2.8-2.9 6.8-4.5 11-4 7.3 1 12.5 7.9 11.6 15.4-0.9 7.6-7.5 13-14.8 12z"/>
	<path id="Layer" class="s1" d="m1384.2 283.5c-1-4.8 0.5-9.5 3.6-12.7 1.7-1.8 4-3.1 6.6-3.7 7.1-1.6 14.2 3.2 15.7 10.6 1.5 7.5-3.1 14.8-10.3 16.4-7.1 1.6-14.2-3.2-15.6-10.6z"/>
	<path id="Layer" class="s1" d="m1468.4 137.4c-1.4-5 0.1-10.2 3.4-13.7 1.4-1.6 3.3-2.8 5.5-3.4 7.1-2.3 14.5 1.9 16.6 9.2 2.1 7.3-1.9 15-9 17.2-7 2.2-14.4-2-16.5-9.3z"/>
	<path id="Layer" class="s1" d="m1475.7 91c4.3 6.3 2.9 14.9-3 19.3-5.9 4.4-14.2 3-18.5-3.2-3.8-5.5-3.1-13.1 1.4-17.8 0.5-0.5 1-1 1.6-1.4 6-4.5 14.2-3 18.5 3.1z"/>
	<path id="Layer" class="s1" d="m1428.1 64c0.4-0.6 0.9-1.2 1.4-1.8 4.5-4.7 11.8-5.4 17.1-1.4 6 4.4 7.4 13 3.1 19.2-4.3 6.3-12.6 7.7-18.5 3.3-6-4.5-7.4-13.1-3.1-19.3z"/>
	<path id="Layer" class="s1" d="m1485.2 185.3c-7.3-0.3-13-6.8-12.7-14.4 0.1-3.6 1.6-6.8 3.9-9.2 2.5-2.6 6-4.2 9.9-4 7.3 0.2 13 6.7 12.7 14.3-0.3 7.6-6.5 13.5-13.8 13.3z"/>
	<path id="Layer" class="s1" d="m1328.4 45.5c6.8-2.7 14.5 0.8 17.2 7.9 2.7 7.1-0.7 15.1-7.6 17.8-6.8 2.8-14.5-0.7-17.1-7.8-2-5.3-0.6-11 3-14.8 1.2-1.3 2.8-2.3 4.5-3.1z"/>
	<path id="Layer" class="s1" d="m1418.6 59.2c-2.1 7.2-9.5 11.4-16.5 9.3-7.1-2.2-11.1-9.8-9-17.2 0.6-2.3 1.8-4.3 3.3-5.8 3.4-3.5 8.3-5 13.2-3.5 7 2.2 11 9.8 9 17.2z"/>
	<path id="Layer" class="s1" d="m1465.9 203.9c0.7-1.9 1.7-3.4 3-4.8 3.6-3.7 9.1-5.1 14.2-3 6.8 2.7 10.2 10.7 7.5 17.8-2.6 7.1-10.3 10.7-17.2 7.9-6.8-2.8-10.1-10.8-7.5-17.9z"/>
	<path id="Layer" class="s1" d="m1359.9 40.7c2.3-2.3 5.4-3.8 8.8-4 7.4-0.3 13.5 5.6 13.9 13.2 0.3 7.7-5.4 14.1-12.8 14.4-7.3 0.3-13.4-5.6-13.8-13.2-0.1-4 1.4-7.7 3.9-10.4z"/>
	<path id="Layer" class="s2" d="m1225 211.1c-1.2-4.5 0.2-9.1 3.4-11.9 1.2-1 2.5-1.8 4-2.2 5.8-1.8 11.9 1.6 13.6 7.7 1.7 6-1.6 12.3-7.4 14.1-5.8 1.7-11.9-1.7-13.6-7.7z"/>
	<path id="Layer" class="s2" d="m1467.3 283.7c3.4 5.2 2.2 12.3-2.8 15.8-5 3.6-11.8 2.3-15.2-2.9-3.2-4.8-2.3-11.3 1.9-15.1q0.4-0.3 0.9-0.7c4.9-3.5 11.8-2.2 15.2 2.9z"/>
	<path id="Layer" class="s2" d="m1262.3 68.5c-4.4-4.3-4.5-11.5-0.4-16.1 0.3-0.2 0.6-0.6 0.9-0.8 4.2-3.7 10.5-3.6 14.6 0.5 4.4 4.3 4.5 11.5 0.4 16-4.2 4.6-11.1 4.7-15.5 0.4z"/>
	<path id="Layer" class="s2" d="m1509.4 250.4c-3.1 5.3-9.9 7-15 3.7-5.2-3.3-6.7-10.3-3.6-15.6 0.6-1.1 1.4-2 2.2-2.7 3.5-3.1 8.7-3.7 12.8-1 5.1 3.3 6.8 10.3 3.6 15.6z"/>
	<path id="Layer" class="s2" d="m1284.1 46.2c-3.2-4.9-2.3-11.4 1.9-15.1 0.3-0.3 0.6-0.5 0.9-0.7 5-3.6 11.8-2.2 15.2 2.9 3.5 5.2 2.2 12.3-2.8 15.8-5 3.6-11.8 2.2-15.2-2.9z"/>
	<path id="Layer" class="s2" d="m1309.9 28.9c-1.9-4.7-0.5-9.9 3-13 0.8-0.7 1.8-1.3 2.9-1.8 5.6-2.4 12 0.4 14.3 6.2 2.3 5.8-0.4 12.4-6 14.8-5.6 2.4-11.9-0.4-14.2-6.2z"/>
	<path id="Layer" class="s2" d="m1257 75.7c5.1 3.3 6.7 10.3 3.6 15.7-3.2 5.3-9.9 7-15 3.7-5.2-3.3-6.8-10.3-3.6-15.6 0.6-1.1 1.3-2 2.2-2.7 3.5-3.1 8.6-3.7 12.8-1.1z"/>
	<path id="Layer" class="s2" d="m1489.1 261.3c4.4 4.4 4.5 11.6 0.3 16.1-4.1 4.6-11 4.8-15.4 0.4-4.4-4.3-4.5-11.5-0.4-16 0.2-0.4 0.6-0.6 0.8-0.9 4.2-3.7 10.5-3.6 14.7 0.4z"/>
	<path id="Layer" class="s2" d="m1441.6 301.1c2.3 5.8-0.3 12.4-5.9 14.8-5.6 2.4-12-0.4-14.3-6.2-1.9-4.6-0.5-9.9 3-13 0.8-0.7 1.8-1.4 2.9-1.8 5.6-2.5 11.9 0.3 14.3 6.2z"/>
	<path id="Layer" class="s2" d="m1219.1 177.5c-0.2-3.7 1.3-7.2 3.8-9.5 1.8-1.5 3.9-2.5 6.3-2.7 6-0.5 11.3 4.2 11.7 10.5 0.5 6.2-4 11.7-10 12.1-6.1 0.6-11.3-4.1-11.8-10.4z"/>
	<path id="Layer" class="s2" d="m1412.9 312.3c1.1 6.2-2.9 12.1-8.8 13.2-5.9 1.2-11.6-2.9-12.7-9.1-0.7-4.1 0.8-8.2 3.7-10.7 1.4-1.3 3.2-2.2 5.1-2.5 5.9-1.2 11.6 2.9 12.7 9.1z"/>
	<path id="Layer" class="s2" d="m1220.1 143.4c0.4-2.9 1.7-5.4 3.7-7.2 2.3-2 5.4-3 8.5-2.6 6 0.8 10.2 6.6 9.4 12.8-0.8 6.2-6.3 10.6-12.3 9.8-5.9-0.9-10.1-6.6-9.3-12.8z"/>
	<path id="Layer" class="s2" d="m1248.4 117.9c-2.1 5.9-8.3 9-14 6.9-5.7-2.1-8.6-8.6-6.6-14.5 0.7-2 1.8-3.6 3.2-4.9 2.9-2.6 6.9-3.5 10.7-2.1 5.7 2.1 8.7 8.6 6.7 14.6z"/>
	<path id="Layer" class="s2" d="m1382.7 317.1c-0.2 6.3-5.2 11.2-11.2 11.1-6.1-0.2-10.9-5.4-10.7-11.7 0.1-3.4 1.6-6.3 3.9-8.3 2-1.8 4.5-2.9 7.4-2.8 6 0.2 10.7 5.4 10.6 11.7z"/>
	<path id="Layer" class="s2" d="m1352.2 315.3c-1.5 6.1-7.3 9.9-13.2 8.4-5.9-1.4-9.5-7.6-8.1-13.7 0.6-2.4 1.8-4.5 3.5-6 2.6-2.2 6.1-3.3 9.7-2.4 5.8 1.5 9.4 7.6 8.1 13.7z"/>
	<path id="Layer" class="s2" d="m1520.3 141.9c6.1-0.4 11.3 4.2 11.8 10.5 0.4 6.2-4 11.7-10.1 12.2-6 0.4-11.2-4.2-11.7-10.5-0.3-3.8 1.2-7.2 3.8-9.5 1.7-1.5 3.9-2.5 6.2-2.7z"/>
	<path id="Layer" class="s2" d="m1496.9 84c0.6-0.5 1.2-1 1.9-1.3 5.3-3 12-1 14.8 4.5 2.9 5.6 0.9 12.5-4.4 15.5-5.2 3-11.9 0.9-14.8-4.6-2.5-4.8-1.3-10.6 2.5-14.1z"/>
	<path id="Layer" class="s2" d="m1526.2 118.9c1.7 6-1.6 12.3-7.4 14.1-5.8 1.7-11.9-1.7-13.6-7.7-1.2-4.5 0.2-9.1 3.4-11.9 1.2-1 2.5-1.8 4-2.3 5.8-1.8 11.9 1.7 13.6 7.8z"/>
	<path id="Layer" class="s2" d="m1531.2 186.5c-0.8 6.2-6.3 10.6-12.3 9.7-6-0.8-10.2-6.5-9.4-12.7 0.4-2.9 1.8-5.4 3.8-7.2 2.3-2 5.3-3 8.5-2.6 6 0.8 10.2 6.5 9.4 12.8z"/>
	<path id="Layer" class="s2" d="m1523.5 219.6c-2 5.9-8.2 9-13.9 6.9-5.7-2.1-8.7-8.6-6.7-14.5 0.7-1.9 1.8-3.6 3.3-4.8 2.8-2.6 6.9-3.5 10.7-2.1 5.7 2.1 8.7 8.6 6.6 14.5z"/>
	<path id="Layer" class="s2" d="m1368.7 12.9c0.1-3.3 1.6-6.3 3.9-8.3 2-1.7 4.6-2.8 7.4-2.7 6 0.1 10.8 5.4 10.6 11.6-0.2 6.4-5.2 11.3-11.2 11.1-6.1-0.2-10.8-5.4-10.7-11.7z"/>
	<path id="Layer" class="s2" d="m1478.4 73.9c-3.9-4.8-3.4-12 1.2-16 4.6-4.1 11.6-3.5 15.5 1.3 3.9 4.8 3.3 11.9-1.3 16-4.5 4.1-11.4 3.5-15.4-1.3z"/>
	<path id="Layer" class="s2" d="m1338.5 17.7c-0.7-4.1 0.8-8.1 3.7-10.7 1.4-1.2 3.2-2.1 5.1-2.5 5.9-1.1 11.6 3 12.7 9.1 1.1 6.2-2.9 12.1-8.8 13.3-5.9 1.1-11.6-3-12.7-9.2z"/>
	<path id="Layer" class="s2" d="m1399.3 14.8c0.5-2.5 1.8-4.5 3.5-6 2.6-2.3 6.1-3.3 9.7-2.4 5.8 1.4 9.5 7.6 8 13.7-1.3 6.1-7.3 9.8-13.1 8.4-5.9-1.5-9.5-7.6-8.1-13.7z"/>
	<path id="Layer" class="s2" d="m1456 37.7c0.5-0.7 1-1.3 1.6-1.8 3.9-3.4 9.6-3.6 13.8-0.3 4.7 3.8 5.6 11 1.9 16-3.6 4.9-10.5 5.9-15.3 2-4.8-3.8-5.7-10.9-2-15.9z"/>
	<path id="Layer" class="s2" d="m1428.8 23.1q1.1-2.2 2.8-3.7c3.2-2.8 7.8-3.6 11.8-1.6 5.4 2.7 7.7 9.5 5.1 15.1-2.6 5.7-9.1 8.1-14.6 5.4-5.4-2.7-7.7-9.5-5.1-15.2z"/>
	<path id="Layer" class="s1" d="m1276.2 261c-4.8-5.8-4.1-14.5 1.5-19.5 5.6-4.9 13.9-4.2 18.7 1.6 4.5 5.5 4.1 13.6-0.8 18.7-0.2 0.2-0.5 0.5-0.7 0.7-5.6 5-14 4.2-18.7-1.5z"/>
	<path id="Layer" class="s1" d="m1298.7 215.8c3.7-6.6 11.9-8.7 18.2-4.8 6.3 3.9 8.3 12.3 4.6 18.9-0.6 1-1.3 1.9-2.1 2.7-4.2 4.3-10.8 5.4-16.1 2.1-6.3-4-8.4-12.4-4.6-18.9z"/>
	<path id="Layer" class="s1" d="m1320.7 200.7c-7.2-1.6-11.8-8.9-10.2-16.4 1.5-7.4 8.5-12.2 15.7-10.6 7.1 1.5 11.7 8.8 10.2 16.3-0.5 2.7-1.8 5-3.6 6.9-3 3.2-7.5 4.7-12.1 3.8z"/>
	<path id="Layer" class="s1" d="m1118.4 79.3c4.7-5.8 13-6.5 18.6-1.6 5.7 4.9 6.4 13.6 1.6 19.4q-0.3 0.4-0.7 0.9c-4.9 5-12.7 5.4-18 0.7-5.6-4.9-6.3-13.6-1.5-19.4z"/>
	<path id="Layer" class="s1" d="m1165.9 73.2c-0.8 0.8-1.6 1.4-2.6 2-6.2 4-14.4 1.8-18.2-4.7-3.7-6.5-1.7-15 4.6-18.9 6.3-4 14.4-1.8 18.2 4.7 3.2 5.6 2.2 12.5-2 16.9z"/>
	<path id="Layer" class="s1" d="m1334.4 158.6c-2.1 2.1-4.7 3.5-7.8 4-7.3 0.9-13.9-4.5-14.8-12-0.9-7.6 4.3-14.5 11.6-15.4 7.2-1 13.8 4.4 14.7 12 0.5 4.4-1 8.5-3.7 11.4z"/>
	<path id="Layer" class="s1" d="m1229.2 34.1c7.3 0.9 12.4 7.8 11.6 15.4-0.4 3.2-1.8 5.9-3.8 8-2.8 3-6.8 4.5-11 4-7.3-0.9-12.4-7.8-11.6-15.4 0.9-7.5 7.5-12.9 14.8-12z"/>
	<path id="Layer" class="s1" d="m1203.8 46.6c0.9 4.7-0.6 9.4-3.7 12.6-1.7 1.9-4 3.2-6.6 3.7-7.2 1.6-14.2-3.1-15.7-10.6-1.5-7.5 3.1-14.8 10.3-16.4 7.1-1.5 14.2 3.3 15.7 10.7z"/>
	<path id="Layer" class="s1" d="m1094 200.5c-2.1-7.3 1.9-15 8.9-17.2 7.1-2.1 14.5 2 16.6 9.3 1.4 5.1 0 10.3-3.4 13.7-1.5 1.6-3.4 2.8-5.6 3.5-7 2.2-14.4-2-16.5-9.3z"/>
	<path id="Layer" class="s1" d="m1112.2 239c-4.3-6.2-2.9-14.8 3-19.3 6-4.4 14.2-3 18.5 3.2 3.9 5.6 3.2 13.1-1.4 17.8-0.5 0.6-1 1-1.6 1.5-5.9 4.4-14.2 3-18.5-3.2z"/>
	<path id="Layer" class="s1" d="m1159.8 266c-0.4 0.7-0.9 1.2-1.4 1.8-4.6 4.7-11.8 5.4-17.1 1.5-6-4.5-7.4-13.1-3.1-19.3 4.2-6.2 12.5-7.6 18.5-3.2 6 4.4 7.4 13 3.1 19.2z"/>
	<path id="Layer" class="s1" d="m1101.6 172.4c-7.3-0.4-13-6.8-12.7-14.4 0.3-7.6 6.5-13.5 13.8-13.2 7.3 0.3 13 6.7 12.7 14.3-0.1 3.7-1.6 6.9-3.9 9.3-2.5 2.6-6 4.2-9.9 4z"/>
	<path id="Layer" class="s1" d="m1259.5 284.5c-6.8 2.8-14.5-0.7-17.2-7.8-2.6-7.1 0.8-15.1 7.6-17.9 6.8-2.8 14.5 0.7 17.1 7.8 2 5.3 0.7 11.1-2.9 14.8-1.3 1.3-2.9 2.4-4.6 3.1z"/>
	<path id="Layer" class="s1" d="m1194.8 278.7c-0.6 2.3-1.8 4.3-3.3 5.8-3.3 3.5-8.3 5-13.2 3.5-7-2.1-11-9.8-8.9-17.1 2-7.3 9.4-11.5 16.4-9.3 7.1 2.1 11.1 9.8 9 17.1z"/>
	<path id="Layer" class="s1" d="m1122 126.1c-0.7 1.9-1.7 3.5-3 4.8-3.5 3.7-9.1 5.1-14.1 3.1-6.8-2.8-10.3-10.8-7.6-17.9 2.7-7.1 10.3-10.6 17.2-7.9 6.8 2.8 10.2 10.8 7.5 17.9z"/>
	<path id="Layer" class="s1" d="m1228 289.3c-2.3 2.3-5.4 3.8-8.8 4-7.3 0.3-13.5-5.6-13.8-13.3-0.4-7.6 5.3-14 12.7-14.3 7.3-0.3 13.5 5.6 13.8 13.2 0.2 4.1-1.4 7.7-3.9 10.4z"/>
	<path id="Layer" class="s2" d="m1342 125.4c-1.8-6.1 1.6-12.4 7.4-14.1 5.7-1.8 11.8 1.6 13.5 7.7 1.2 4.4-0.2 9-3.4 11.8-1.2 1-2.5 1.8-4 2.3-5.8 1.8-11.9-1.7-13.5-7.7z"/>
	<path id="Layer" class="s2" d="m1120.6 46.3c-3.4-5.2-2.2-12.2 2.8-15.8 5-3.5 11.8-2.3 15.2 2.9 3.2 4.9 2.4 11.4-1.9 15.1-0.3 0.2-0.6 0.5-0.9 0.7-5 3.6-11.7 2.3-15.2-2.9z"/>
	<path id="Layer" class="s2" d="m1325.6 261.5c4.4 4.4 4.5 11.5 0.4 16.1q-0.4 0.4-0.9 0.8c-4.2 3.7-10.5 3.6-14.6-0.4-4.4-4.4-4.5-11.5-0.4-16.1 4.2-4.6 11.1-4.7 15.5-0.4z"/>
	<path id="Layer" class="s2" d="m1078.5 79.6c3.1-5.3 9.8-7 15-3.7 5.1 3.3 6.7 10.3 3.6 15.6-0.6 1.1-1.4 2-2.2 2.7-3.5 3.1-8.7 3.7-12.8 1-5.2-3.2-6.8-10.2-3.6-15.6z"/>
	<path id="Layer" class="s2" d="m1303.8 283.9c3.2 4.8 2.3 11.3-1.9 15-0.3 0.3-0.6 0.5-0.9 0.8-5 3.5-11.8 2.2-15.2-3-3.4-5.1-2.2-12.2 2.8-15.8 5-3.5 11.8-2.2 15.2 3z"/>
	<path id="Layer" class="s2" d="m1278.1 301.1c1.8 4.7 0.4 9.9-3.1 13-0.8 0.7-1.8 1.4-2.9 1.8-5.6 2.4-12-0.3-14.3-6.1-2.3-5.8 0.4-12.5 6-14.9 5.6-2.4 12 0.4 14.3 6.2z"/>
	<path id="Layer" class="s2" d="m1330.9 254.3c-5.1-3.3-6.7-10.3-3.5-15.6 3.1-5.4 9.8-7 15-3.8 5.1 3.3 6.7 10.3 3.6 15.7-0.6 1-1.4 1.9-2.3 2.7-3.5 3.1-8.6 3.6-12.8 1z"/>
	<path id="Layer" class="s2" d="m1098.8 68.7c-4.3-4.4-4.5-11.6-0.3-16.1 4.2-4.5 11.1-4.7 15.4-0.4 4.4 4.3 4.5 11.5 0.4 16.1q-0.4 0.4-0.8 0.8c-4.2 3.7-10.6 3.6-14.7-0.4z"/>
	<path id="Layer" class="s2" d="m1146.3 29c-2.3-5.8 0.4-12.5 5.9-14.9 5.6-2.4 12 0.4 14.3 6.2 1.9 4.7 0.5 9.9-3 13-0.8 0.8-1.8 1.4-2.9 1.9-5.6 2.4-12-0.4-14.3-6.2z"/>
	<path id="Layer" class="s2" d="m1368.8 152.5c0.3 3.8-1.3 7.3-3.8 9.5-1.7 1.6-3.9 2.5-6.3 2.7-6 0.5-11.3-4.2-11.7-10.4-0.5-6.3 4-11.7 10.1-12.2 6-0.5 11.2 4.2 11.7 10.4z"/>
	<path id="Layer" class="s2" d="m1175 17.7c-1.1-6.1 2.8-12 8.8-13.2 5.9-1.1 11.6 3 12.7 9.1 0.7 4.2-0.8 8.2-3.7 10.8-1.4 1.2-3.2 2.1-5.1 2.5-6 1.1-11.6-3-12.7-9.2z"/>
	<path id="Layer" class="s2" d="m1364 193.8c-2.2 2-5.3 3.1-8.5 2.6-6-0.8-10.1-6.5-9.4-12.7 0.9-6.3 6.3-10.6 12.3-9.8 6 0.8 10.2 6.5 9.4 12.8-0.3 2.9-1.7 5.3-3.8 7.1z"/>
	<path id="Layer" class="s2" d="m1339.6 212.2c2-5.9 8.2-9.1 13.9-6.9 5.7 2.1 8.7 8.6 6.6 14.5-0.7 1.9-1.8 3.6-3.2 4.8-2.8 2.6-6.9 3.5-10.7 2.1-5.7-2.1-8.7-8.6-6.6-14.5z"/>
	<path id="Layer" class="s2" d="m1205.2 12.9c0.2-6.2 5.2-11.2 11.3-11 6 0.1 10.8 5.4 10.6 11.6-0.1 3.4-1.6 6.4-3.9 8.4-2 1.7-4.5 2.8-7.3 2.7-6.1-0.2-10.8-5.4-10.7-11.7z"/>
	<path id="Layer" class="s2" d="m1235.7 14.7c1.4-6 7.4-9.8 13.2-8.3 5.9 1.4 9.5 7.6 8.1 13.6-0.5 2.5-1.8 4.5-3.5 6-2.6 2.3-6.1 3.3-9.7 2.4-5.8-1.4-9.4-7.6-8.1-13.7z"/>
	<path id="Layer" class="s2" d="m1067.5 188.1c-6 0.5-11.2-4.2-11.7-10.4-0.5-6.3 4-11.8 10-12.2 6.1-0.5 11.3 4.2 11.8 10.4 0.2 3.8-1.3 7.3-3.9 9.6-1.6 1.5-3.8 2.4-6.2 2.6z"/>
	<path id="Layer" class="s2" d="m1091 246c-0.6 0.5-1.2 1-1.9 1.3-5.3 3-11.9 1-14.8-4.5-2.9-5.5-1-12.4 4.3-15.4 5.3-3 11.9-1 14.8 4.5 2.6 4.8 1.4 10.7-2.4 14.1z"/>
	<path id="Layer" class="s2" d="m1061.7 211.2c-1.7-6 1.6-12.4 7.4-14.1 5.8-1.8 11.9 1.6 13.6 7.7 1.3 4.4-0.2 9-3.4 11.8-1.1 1.1-2.5 1.8-4 2.3-5.8 1.8-11.9-1.7-13.6-7.7z"/>
	<path id="Layer" class="s2" d="m1056.7 143.6c0.8-6.2 6.3-10.6 12.3-9.8 5.9 0.8 10.1 6.5 9.3 12.8-0.3 2.8-1.7 5.4-3.7 7.1-2.2 2-5.3 3.1-8.5 2.6-6-0.8-10.2-6.5-9.4-12.7z"/>
	<path id="Layer" class="s2" d="m1064.4 110.4c2-5.9 8.2-8.9 13.9-6.9 5.7 2.2 8.7 8.6 6.6 14.5-0.7 2-1.8 3.6-3.2 4.9-2.8 2.5-6.9 3.4-10.7 2.1-5.7-2.2-8.7-8.7-6.6-14.6z"/>
	<path id="Layer" class="s2" d="m1219.1 317.1c0 3.4-1.5 6.3-3.8 8.3-2 1.8-4.6 2.8-7.4 2.8-6-0.2-10.8-5.4-10.6-11.7 0.2-6.3 5.2-11.2 11.2-11.1 6.1 0.2 10.9 5.5 10.6 11.7z"/>
	<path id="Layer" class="s2" d="m1109.5 256.1c3.9 4.8 3.3 12-1.3 16.1-4.6 4-11.5 3.5-15.4-1.3-3.9-4.8-3.4-12 1.2-16.1 4.6-4 11.6-3.5 15.5 1.3z"/>
	<path id="Layer" class="s2" d="m1249.4 312.3c0.8 4.1-0.8 8.2-3.7 10.7-1.4 1.3-3.1 2.2-5.1 2.6-5.9 1.1-11.6-3-12.7-9.2-1-6.1 2.9-12.1 8.8-13.2 6-1.1 11.7 3 12.7 9.1z"/>
	<path id="Layer" class="s2" d="m1188.7 315.3c-0.6 2.4-1.9 4.5-3.6 6-2.6 2.2-6.1 3.3-9.7 2.4-5.8-1.5-9.4-7.7-8-13.7 1.4-6.1 7.3-9.9 13.1-8.4 5.9 1.4 9.5 7.6 8.2 13.7z"/>
	<path id="Layer" class="s2" d="m1131.9 292.4c-0.5 0.6-1 1.2-1.6 1.7-3.8 3.4-9.6 3.7-13.7 0.3-4.8-3.8-5.7-10.9-2-15.9 3.7-5 10.5-5.9 15.3-2.1 4.8 3.8 5.7 11 2 16z"/>
	<path id="Layer" class="s2" d="m1159 306.9q-1 2.2-2.7 3.7c-3.2 2.9-7.8 3.6-11.8 1.7-5.4-2.8-7.8-9.5-5.2-15.2 2.7-5.7 9.2-8.1 14.6-5.3 5.5 2.7 7.8 9.4 5.1 15.1z"/>
</svg>