<svg version="1.2" xmlns="http://www.w3.org/2000/svg" viewBox="0 0 1548 499" width="1548" height="499">
	<title>Ahold_Delhaize_logo-svg</title>
	<style>
		.s0 { fill: #ffffff } 
	</style>
	<g id="layer1">
		<g id="g971">
			<path id="rect873" fill-rule="evenodd" class="s0" d="m841.3 290.9h27.4v204.5h-27.4zm380.5 61.9h27.3v142.6h-27.3zm-202.4-313.8h27.3v204.5h-27.3zm527.8 385.7v6.2h-113l0.6 3c3.5 22.5 21.4 37.4 44.9 37.4 19.3 0 32-9.2 38.5-15.7l18.4 19.5c-13.2 14.4-34.4 23.1-56.6 23.1-42 0-73.7-31.7-73.7-73.8 0-42 31.2-73.7 72.9-73.7 39.8 0 65.8 28.2 68 74zm-30.3-14.1l-0.6-3c-3.8-20.6-18.1-32.3-39.5-32.3-19.3 0-35.8 12.8-41.2 32l-0.8 3.3zm-700.5 14.1v6.2h-113l0.5 3c3.6 22.5 21.4 37.4 45 37.4 19.3 0 32-9.2 38.5-15.7l18.4 19.5c-13.3 14.4-34.4 23.1-56.6 23.1-42 0-73.7-31.7-73.7-73.8 0-42 31.2-73.7 72.9-73.7 39.8 0 65.8 28.2 68 74zm-30.4-14.1l-0.5-3c-3.8-20.6-18.2-32.3-39.6-32.3-19.2 0-35.7 12.8-41.1 32l-0.9 3.3zm469.4-102.8c0 11.1-9 20.1-20.1 20.1-10.8 0-19.8-9-19.8-20.1 0-10.8 8.7-19.8 19.8-19.8 11.1 0 20.1 9 20.1 19.8zm139.5 187.7h-117.6v-9.8l78.3-109h-78.3v-23.9h117.6v9.5l-78.6 109.3h78.6zm-271.5-144.8c14.4 0 27.6 4.3 37.9 12.7l4.1 3.3v-13.8h27.4v142.6h-27.4v-13.3l-4.1 3.3c-10 8.1-23.3 12.5-37.9 12.5-41.7 0-73.2-31.8-73.2-73.8 0-42 31.5-73.5 73.2-73.5zm0.3 25.5c-26.3 0-45.3 20.1-45.3 47.7 0 27.7 19 47.8 45.3 47.8 17 0 32.8-8.2 41.4-21.2l0.6-0.5v-51.8l-0.6-0.6c-8.4-13-24.4-21.1-41.4-21.4zm-96.8 35.2v84.1h-27.3v-83.2c0-17.1-12.8-35.6-36.3-35.6-18.2 0-31.7 9.8-37.7 27.7v91.1h-27.4v-204.5h27.4v80l4.3-4.9c9.2-9.7 23.6-15.4 39.6-15.4 34.9 0 57.4 23.9 57.4 60.7zm-367.9-18.1c0 58.3-46.1 102.2-107.3 102.2h-64v-204.5h64c61.2 0 107.3 44 107.3 102.3zm-29.9-0.3c0-43.7-32.5-75.4-77.4-75.4h-34.7v151.1h34.7c44.9 0 77.4-31.8 77.4-75.7zm-41.7-353.9l84 204.5h-31.4l-18.7-46.7h-91.1l-18.7 46.7h-31.1l84-204.5zm24.1 131.5l-35.8-90-36 90zm213.8-11.1v84.1h-27.4v-83.3c0-17.1-12.7-35.5-36.3-35.5-18.1 0-31.7 9.7-37.7 27.6l-0.2 0.3v90.9h-27.4v-204.5h27.4v80l4.3-4.9c9.2-9.8 23.6-15.5 39.6-15.5 34.7 0 57.2 23.9 57.7 60.8zm96.7 86.8c-40.9 0-73.9-33-73.9-73.8 0-40.8 33-73.8 73.9-73.8 40.9 0 74 33 74 73.8 0 40.8-33.1 73.8-74 73.8zm45.6-74.1c0-26.4-20.4-47.7-45.6-47.7-25.1 0-45.5 21.3-45.5 47.7 0 26.4 20.4 47.8 45.5 47.8 25.2 0 45.6-21.4 45.6-47.8zm213.2-60.7l4.1 3.2v-75.6h27.3v204.7h-27.3v-13.3l-4.1 3.3c-10 8.1-23.3 12.5-37.9 12.5-41.8 0-73.2-31.8-73.2-73.8 0-42 31.4-73.8 73.2-73.8 14.3 0 27.3 4.4 37.9 12.8zm3.5 34.2c-8.6-13.1-24.6-21.2-41.4-21.2-26.3 0-45.3 20.1-45.3 47.7 0 27.7 19 47.8 45.3 47.8 17 0 32.8-8.2 41.4-21.2l0.6-0.5v-51.8z"/>
			<path id="path895" class="s0" d="m177.7 13.5c0-7.3 6-13.3 13.3-13.3 7.6 0 13.5 6 13.5 13.3 0 7.3-5.9 13.3-13.2 13.3-7.3 0-13.3-6-13.6-13.3zm0 0c0-7.3 6-13.3 13.3-13.3 7.6 0 13.5 6 13.5 13.3 0 7.3-5.9 13.3-13.2 13.3-7.3 0-13.3-6-13.6-13.3zm-97 68.9c-16-15.2-10.3-46.7 21.7-46.7 4.9 0 16.5 0.3 16.5 0.3l-13.5 20.3h-2.7c-12 0-11.2 7.9-1.7 17.9 16.6 17.7 20.9 22 20.9 22h-26.8c0 0-2.2-2.7-14.4-13.8zm0 0c-16-15.2-10.3-46.7 21.7-46.7 4.9 0 16.5 0.3 16.5 0.3l-13.5 20.3h-2.7c-12 0-11.2 7.9-1.7 17.9 16.6 17.7 20.9 22 20.9 22h-26.8c0 0-2.2-2.7-14.4-13.8zm197-26.9l-13.5-20.3c0 0 11.3-0.6 16.5-0.6 31.7 0 37.7 31.5 21.7 46.7-12 11.6-14.4 14.1-14.4 14.1h-26.8c0 0 4-4.3 20.6-22 9.5-10 10.3-17.9-1.7-17.9zm0 0l-13.5-20.3c0 0 11.4-0.6 16.5-0.6 31.7 0 37.7 31.5 21.7 46.7-11.9 11.6-14.4 14.1-14.4 14.1h-26.8c0 0 4.1-4.3 20.6-22 9.5-10 10.3-17.9-1.6-17.9zm-96.5 30.7l-0.3-51h20.6l0.3 50.7-10.3 8.9zm0 0l-0.3-50.9h20.6l0.3 50.7-10.3 8.9zm188.9 201.3c9.7 32.8 9.2 66.1-2.2 97.9-15.7 44.5-40.9 62.1-59.3 69.1-9.2 3.3-18.7 5.2-28.5 5.2-3.5 0-14.3 0-24.4-2.7-8.9-2.7-20-9.2-20-9.2-4.6-2.8-29.3-16.9-43.6-35.6-14.4 19.3-39.9 33.9-43.7 36.1-4 2.4-12.2 5.4-16.5 7.1 0.3 0-12.7 4.8-27.6 4.8-9.8 0-19.6-1.6-28.5-4.8-18.4-6.8-43.6-24.2-59.9-68.7-13-35.8-12.4-74 1.6-110.9-0.2-0.3 8.4-19.5 17.4-34.4 14.1-22.8 33.3-43.7 56.6-62.4 0.6-0.3 36.3-28.2 69.7-51l-58.3 0.3c-23 2.4-43.1 11.1-59.3 26.5-15.2 13.9-24.4 41.8-22.5 67.8q0.4 7.4 2.4 15.5c-5.7 9.8-10 18.2-13.3 24.7-5.4-11.9-8.6-24.7-9.7-38.5-2.5-32.6 9.5-66.5 29.2-84.6 19.5-18.8 43.9-29.3 71.8-32 1.4 0 3.8 0 3.8 0h28.8l47.1 32c-34.7 23-76.4 55.6-76.9 55.8-28.2 22.5-50.2 49.1-63.5 77.6 0.3 0.3-5.6 13-8.1 21.7-8.7 28.5-7.8 56.9 2.5 84.9 10.5 29.3 27.3 48.5 47.6 56.4 12.2 4.6 22 4.3 24.7 4.3 10.6 0 19.5-3.8 25.5-7.3 1.6-0.8 3.5-1.9 5.1-2.7 18.2-10.3 43.7-30.6 43.4-44.2 0-4.9-10.9-12.2-19.5-12.2-12.5 0-22.8-10-22.8-22.5v-1.1l4.6-20.4c3.3-11.1 11.1-48-17.6-64.2l-24.9-11.7 8.6-18.7 26.1 12.2c28.7 16 39 48.8 27.9 87.9l-3.8 16.8c0.2 0.5 0.8 1.1 1.6 1.1 9.5-0.3 21.7 4 30.1 11.6 1.3-1.3 2.7-2.4 4.3-3.5 7.6-5.4 17.1-8.7 25.5-8.7 0.8 0 1.3-0.5 1.6-1.1l-3.8-16.8c-11.4-39-1.3-71.8 27.1-88.1l0.8-0.3 25.5-12.2 8.9 18.7-24.9 12c-28.7 16.5-20.3 53.4-17.1 64.2l0.3 0.6 4.6 19.8v1.1c0 12.4-10 22.7-22.5 22.7-8.9 0.3-19.5 7.9-19.5 12.5-0.3 13.6 25.5 33.9 43.6 44 0 0 6.8 3.2 10.1 4.6 5.7 2.7 14.6 5.1 21.4 5.1 10.5-0.3 18.9-3 23.6-4.6 20.3-7.6 36.5-27.4 47.1-56.7 8.4-23.8 10-48.3 4.9-72.7 7-6.2 12.4-12.4 16.8-18.1zm0 0c9.7 32.8 9.2 66.1-2.2 97.9-15.7 44.5-40.9 62.1-59.3 69.1-9.2 3.3-18.7 5.2-28.5 5.2-3.5 0-14.3 0-24.4-2.7-8.9-2.7-20-9.2-20-9.2-4.6-2.8-29.3-16.9-43.6-35.6-14.4 19.3-39.9 33.9-43.7 36.1-4 2.4-12.2 5.4-16.5 7.1 0.3 0-12.7 4.8-27.6 4.8-9.8 0-19.6-1.6-28.5-4.8-18.4-6.8-43.6-24.2-59.9-68.7-13-35.8-12.4-74 1.6-110.9-0.2-0.3 8.4-19.5 17.4-34.4 14.1-22.8 33.3-43.7 56.6-62.4 0.6-0.3 36.3-28.2 69.7-51l-58.3 0.3c-23 2.4-43.1 11.1-59.3 26.5-15.2 13.9-24.4 41.8-22.5 67.8q0.4 7.4 2.4 15.5c-5.7 9.8-10 18.2-13.3 24.7-5.4-11.9-8.6-24.7-9.7-38.5-2.5-32.6 9.5-66.5 29.2-84.6 19.5-18.8 43.9-29.3 71.8-32 1.4 0 3.8 0 3.8 0h28.8l47.1 32c-34.7 23-76.4 55.6-76.9 55.8-28.2 22.5-50.2 49.1-63.5 77.6 0.3 0.3-5.6 13-8.1 21.7-8.7 28.5-7.8 56.9 2.5 84.9 10.5 29.3 27.3 48.5 47.6 56.4 12.2 4.6 22 4.3 24.7 4.3 10.6 0 19.5-3.8 25.5-7.3 1.6-0.8 3.5-1.9 5.1-2.7 18.2-10.3 43.7-30.6 43.4-44.2 0-4.9-10.9-12.2-19.5-12.2-12.5 0-22.8-10-22.8-22.5v-1.1l4.6-20.4c3.3-11.1 11.1-48-17.6-64.2l-24.9-11.7 8.6-18.7 26.1 12.2c28.7 16 39 48.8 27.9 87.9l-3.8 16.8c0.2 0.5 0.8 1.1 1.6 1.1 9.5-0.3 21.7 4 30.1 11.6 1.3-1.3 2.7-2.4 4.3-3.5 7.6-5.4 17.1-8.7 25.5-8.7 0.8 0 1.3-0.5 1.6-1.1l-3.8-16.8c-11.4-39-1.3-71.8 27.1-88.1l0.8-0.3 25.5-12.2 8.9 18.7-24.9 12c-28.7 16.5-20.3 53.4-17.1 64.2l0.3 0.6 4.6 19.8v1.1c0 12.4-10 22.7-22.5 22.7-8.9 0.3-19.5 7.9-19.5 12.5-0.3 13.6 25.5 33.9 43.6 44 0 0 6.8 3.2 10.1 4.6 5.7 2.7 14.6 5.1 21.4 5.1 10.5-0.3 18.9-3 23.6-4.6 20.3-7.6 36.5-27.4 47.1-56.7 8.4-23.8 10-48.3 4.9-72.7 7-6.2 12.4-12.4 16.8-18.1zm-242-204c-18.4-19.8-13.3-47.7 20.6-48h20.9v20.6h-21.2c-10.8 0-9.7 9.5-0.8 18.2 0 0 24.1 22.2 40.9 33.1 0 0 35.3 23.8 47.2 31.2 28.4 19.8 54.4 39.6 54.7 39.8 23 17.9 42 38.3 56.4 60.2-1.6 5.7-4.9 14.7-10.6 22.8-13.8-24.4-33.6-47.2-58.5-66.4-0.3-0.3-29.6-22.5-59.6-43.1 0 0-4.4-2.8-5.2-3.3l-65.8-47.2c0 0-12-10-19-17.9zm0 0c-18.4-19.8-13.3-47.7 20.6-48h20.9v20.6h-21.2c-10.8 0-9.7 9.5-0.8 18.2 0 0 24.1 22.2 40.9 33.1 0 0 35.3 23.8 47.2 31.2 28.4 19.8 54.4 39.6 54.7 39.8 23 17.9 42 38.3 56.4 60.2-1.6 5.7-4.9 14.7-10.6 22.8-13.8-24.4-33.6-47.2-58.5-66.4-0.3-0.3-29.6-22.5-59.6-43.1 0 0-4.4-2.8-5.2-3.3l-65.8-47.2c0 0-12-10-19-17.9zm135.2 386.5c-7.6 9.5-18.1 16.8-31.7 21.7-13.8 4.9-27.6 6.5-36.6 6.8q-1.2 0-2.4 0c-0.8 0-1.4 0-2.2 0-8.9-0.3-22.7-1.7-36.6-6.5q-20.3-7.4-31.7-21.2c8.4-1.9 16.8-4.9 22.5-7 12.5 9.5 31.2 13.5 47.7 13.8 16.8-0.3 36.1-4.6 48.5-14.9 5.2 2.1 13.3 5.1 22.5 7.3zm0 0c-7.6 9.5-18.1 16.8-31.7 21.7-13.8 4.9-27.6 6.5-36.6 6.8q-1.2 0-2.4 0c-0.8 0-1.4 0-2.2 0-8.9-0.3-22.7-1.7-36.6-6.5q-20.3-7.4-31.7-21.2c8.4-1.9 16.8-4.9 22.5-7 12.5 9.5 31.2 13.5 47.7 13.8 16.8-0.3 36.1-4.6 48.5-14.9 5.2 2.1 13.3 5.1 22.5 7.3zm119-248.4c-1.1 14.6-4.6 28.7-10.9 41.5-0.2 0.2-0.5 0.5-0.8 1 0 0.3-9.7 22.3-34.9 40.5-0.3 0.2-0.8 0.8-1.1 1-45.8 32.6-49.3 71.9-51.5 97.7-0.3 2.4-0.3 4.6-0.5 6.8 0 0.8-0.3 2.1-0.3 3.2-0.3 4.1-0.8 8.7-1.6 14.1-7.9 0.8-15.2-1.6-20.4-4.3 0.8-4.1 1.1-8.2 1.4-11.4 0-1.1 0.3-2.5 0.3-3.5 0.2-1.9 0.2-4.1 0.5-6.3 2.2-26 6.2-74.8 60.7-113.1 3.5-2.4 6.5-4.9 9.5-7.6l0.3-0.2c11.9-9.5 18.7-23.1 22.4-33.1 3.6-9.5 5.2-19 5.7-26.9 1.7-26-7.8-53.7-23-67.5-16.5-15.2-36.6-23.9-59.6-26l-38.5 0.2c-10.6-6.5-25.2-15.7-39.5-26 12.1-8.4 23.5-17.1 34.1-26.3 7.9-10.1 11.4-19.8 0-19.8h-21.1v-20.6h20.8c33.9 0 39.3 27.9 20.6 47.7-1.3 1.4-2.4 2.7-3.5 3.8 0 0-3.8 4.6-6 6.5-2.1 2.2-2.9 2.4-2.9 2.4-4.9 4.1-9.8 7.9-14.7 11.7l47.7-0.3c0 0 2.4 0 3.8 0l2.4 0.3c27.1 2.7 50.7 13.3 70.2 31.2 19.8 17.9 32 51.8 30.4 83.3zm0 0c-1.1 14.6-4.6 28.7-10.9 41.5-0.2 0.2-0.5 0.5-0.8 1 0 0.3-9.7 22.3-34.9 40.5-0.3 0.2-0.8 0.8-1.1 1-45.8 32.6-49.3 71.9-51.5 97.7-0.3 2.4-0.3 4.6-0.5 6.8 0 0.8-0.3 2.1-0.3 3.2-0.3 4.1-0.8 8.7-1.6 14.1-7.9 0.8-15.2-1.6-20.4-4.3 0.8-4.1 1.1-8.2 1.4-11.4 0-1.1 0.3-2.5 0.3-3.5 0.2-1.9 0.2-4.1 0.5-6.3 2.2-26 6.2-74.8 60.7-113.1 3.5-2.4 6.5-4.9 9.5-7.6l0.3-0.2c11.9-9.5 18.7-23.1 22.4-33.1 3.6-9.5 5.2-19 5.7-26.9 1.7-26-7.8-53.7-23-67.5-16.5-15.2-36.6-23.9-59.6-26l-38.5 0.2c-10.6-6.5-25.2-15.7-39.5-26 12.1-8.4 23.5-17.1 34.1-26.3 7.9-10.1 11.4-19.8 0-19.8h-21.1v-20.6h20.8c33.9 0 39.3 27.9 20.6 47.7-1.3 1.4-2.4 2.7-3.5 3.8 0 0-3.8 4.6-6 6.5-2.1 2.2-2.9 2.4-2.9 2.4-4.9 4.1-9.8 7.9-14.7 11.7l47.7-0.3c0 0 2.4 0 3.8 0l2.4 0.3c27.1 2.7 50.7 13.3 70.2 31.2 19.8 17.9 32 51.8 30.4 83.3zm-278.6 207.4c-1.1-5.1-1.6-10-1.9-13.8 0-1.1-0.3-2.2-0.3-3.2 0-2.2-0.2-4.4-0.5-6.8-2.4-25.8-6-65.1-52.8-97.4-1.7-1.1-3-2.4-4.6-3.5 1-5.7 3.2-13.3 6.5-21.4 2.9 2.7 6.2 5.4 10 7.8 54.7 37.7 59.3 86.5 61.8 112.6 0 2.1 0.2 4.3 0.5 6.2 0 1.1 0.3 2.2 0.3 3.5 0.5 3.3 0.8 7.6 1.6 12-5.4 2.7-12.5 4.9-20.6 4zm0 0c-1.1-5.1-1.6-10-1.9-13.8 0-1.1-0.3-2.2-0.3-3.2 0-2.2-0.2-4.4-0.5-6.8-2.4-25.8-6-65.1-52.8-97.4-1.7-1.1-3-2.4-4.6-3.5 1-5.7 3.2-13.3 6.5-21.4 2.9 2.7 6.2 5.4 10 7.8 54.7 37.7 59.3 86.5 61.8 112.6 0 2.1 0.2 4.3 0.5 6.2 0 1.1 0.3 2.2 0.3 3.5 0.5 3.3 0.8 7.6 1.6 12-5.4 2.7-12.5 4.9-20.6 4z"/>
		</g>
	</g>
</svg>