<svg version="1.2" xmlns="http://www.w3.org/2000/svg" viewBox="0 0 1510 1630" width="1510" height="1630">
	<title>Abu_Dhabi_Commercial_Bank_logo-svg</title>
	<style>
		.s0 { fill: #bb131a } 
		.s1 { fill: #ed1b24 } 
	</style>
	<g id="Layer">
		<path id="Layer" class="s0" d="m1325.4 1048.8c-108.7 76.1-298.7 195.6-407.4 260.8-108.6 65.1-287.8 162.9-412.7 222.6-124.9 59.8-228.1 97.8-287.8 97.8-59.8 0-103.2-16.3-130.4-59.7-32.6-38.1-48.9-97.8-59.7-168.4-10.9-70.6-16.3-157.5-21.7-255.3-5.5-97.8-5.5-331.3-5.5-331.3 0 0 0-233.6 5.5-331.3 0-97.8 10.8-184.7 21.7-260.7 10.8-70.6 27.1-124.9 59.7-163 27.2-43.4 70.6-59.7 130.4-59.7 59.7 0 162.9 38 287.8 97.8 124.9 59.7 304.1 157.5 412.7 222.6 114.1 65.2 298.7 179.3 407.4 260.7 108.6 81.5 184.6 130.4 184.6 233.6 0 103.2-76 152.1-184.6 233.5z"/>
	</g>
	<g id="Layer">
		<path id="Layer" fill-rule="evenodd" class="s1" d="m1363.4 712.1v211.8c0 10.9-10.9 21.7-21.8 21.7h-21.7c-10.8 0-21.7-10.8-21.7-21.7v-211.8c0-10.9 10.9-21.7 21.7-21.7h21.7c10.9 0 21.8 10.8 21.8 21.7zm-754.9-103.2v-336.7c0-10.9 10.8-21.8 21.7-21.8h21.7c10.9 0 21.8 10.9 21.8 21.8v331.3c0 10.8-10.9 21.7-21.8 21.7h-21.7c-10.9 0-21.7-5.4-21.7-16.3zm255.2 602.9v21.7c0 10.9-10.8 21.7-21.7 21.7h-21.7c-10.9 0-21.7-10.8-21.7-21.7v-21.7c0-10.9 10.8-21.7 21.7-21.7h21.7c10.9 0 21.7 10.8 21.7 21.7zm-754.9-733.2v-271.6c0-10.9 10.9-21.7 21.8-21.7h16.3c10.8 0 21.7 10.8 21.7 21.7v239h190.1v-65.2h-103.2c-10.9 0-21.7-10.9-21.7-21.7v-211.9c0-10.8 10.8-21.7 21.7-21.7h146.6c10.9 0 21.7 10.9 21.7 21.7v163h65.2v-103.2c0-10.9 10.9-21.7 21.7-21.7h21.8c10.8 0 21.7 10.8 21.7 21.7v146.6c0 10.9-10.9 21.8-21.7 21.8h-103.2v103.2c0 10.8-10.9 21.7-21.8 21.7h-276.9c-10.9 0-21.8-5.5-21.8-21.7zm255.3-163v-124.9h-65.2v124.9zm879.8 331.3v336.8c0 10.8-10.8 21.7-21.7 21.7h-108.6v103.2c0 10.9-10.9 21.7-21.7 21.7h-103.2v43.5c0 10.8-10.9 21.7-21.8 21.7h-21.7c-10.8 0-21.7-10.9-21.7-21.7v-43.5h-293.3c-10.8 0-21.7-10.8-21.7-21.7v-271.6c0-10.8 10.9-21.7 21.7-21.7h211.8c10.9 0 21.8 10.9 21.8 21.7v21.7c0 10.9-10.9 21.8-21.8 21.8h-168.3v190.1h249.8v-65.2h-168.4c-10.8 0-21.7-10.9-21.7-21.7v-21.8c0-10.8 10.9-21.7 21.7-21.7h201c10.8 0 21.7 10.9 21.7 21.7v103.2h65.2v-103.2c0-10.8 10.8-21.7 21.7-21.7h108.6v-293.3c0-10.8 10.9-21.7 21.7-21.7h21.8c10.8 0 21.7 10.9 27.1 21.7zm-499.6 564.9v86.9c0 10.9-10.9 21.7-21.7 21.7h-21.8c-10.8 0-21.7-10.8-21.7-21.7v-43.5h-65.2v103.2c0 10.9-10.8 21.8-21.7 21.8h-461.6c-10.9 0-21.7-10.9-21.7-21.8v-152c0-10.9 10.8-21.8 21.7-21.8h331.3c10.8 0 21.7 10.9 21.7 21.8v21.7c0 10.8-10.9 21.7-21.7 21.7h-293.3v65.2h380.2v-103.2c0-10.9 10.8-21.7 21.7-21.7h146.6c10.9 0 16.3 10.8 27.2 21.7zm-510.5 255.3v21.7c0 10.8-10.9 21.7-21.7 21.7h-21.8c-10.8 0-21.7-10.9-21.7-21.7v-21.7c0-10.9 10.9-21.8 21.7-21.8h21.8c10.8 0 21.7 5.5 21.7 21.8zm124.9 0v21.7c0 10.8-10.9 21.7-21.7 21.7h-21.8c-10.8 0-21.7-10.9-21.7-21.7v-21.7c0-10.9 10.9-21.8 21.7-21.8h21.8c16.3 0 21.7 5.5 21.7 21.8zm-206.4-402c10.9 0 21.7 10.9 21.7 21.8v21.7c0 10.9-10.8 21.7-21.7 21.7h-21.7c-10.9 0-21.7-10.8-21.7-21.7v-21.7c0-10.9 10.8-21.8 21.7-21.8zm124.9 0c10.9 0 21.7 10.9 21.7 21.8v21.7c0 10.9-10.8 21.7-21.7 21.7h-21.7c-10.9 0-21.7-10.8-21.7-21.7v-21.7c0-10.9 10.8-21.8 21.7-21.8zm103.2 5.5h103.2v-233.6c0-10.8 10.8-21.7 21.7-21.7h21.7c10.9 0 21.7 10.9 21.7 21.7v271.6c0 10.9-10.8 21.7-21.7 21.7h-146.6c-10.9 0-21.8-10.8-21.8-21.7v-21.7c0-10.9 10.9-21.8 21.8-16.3zm586.5-255.3c10.9 0 21.7 10.9 21.7 21.7v21.7c0 10.9-10.8 21.8-21.7 21.8h-21.7c-10.9 0-21.7-10.9-21.7-21.8v-21.7c0-10.8 10.8-21.7 21.7-21.7zm-108.6-396.5v-21.7c0-10.9 10.8-21.7 21.7-21.7h21.7c10.9 0 21.7 10.8 21.7 21.7v21.7c0 10.9-10.8 21.7-21.7 21.7h-21.7c-10.9 0-16.3-10.8-21.7-21.7zm-309.6 38v27.2c0 10.8-10.9 21.7-21.7 21.7h-21.7c-10.9 0-21.8-10.9-21.8-21.7v-21.7c0-10.9 10.9-21.8 21.8-21.8h21.7c10.8 0 21.7 5.5 21.7 16.3zm-124.9 255.3v21.7c0 10.9-10.9 21.8-21.7 21.8h-21.8c-10.8 0-21.7-10.9-21.7-21.8v-21.7c0-10.9 10.9-21.7 21.7-21.7h21.8c10.8 0 21.7 10.8 21.7 21.7zm689.7 124.9v21.7c0 10.9-10.9 21.8-21.7 21.8h-21.7c-10.9 0-21.8-10.9-21.8-21.8v-21.7c0-10.8 10.9-21.7 21.8-21.7h21.7c10.8 0 21.7 10.9 21.7 21.7zm-1004.7 157.5v-401.9c0-10.9 10.9-21.7 21.7-21.7h16.3c10.9 0 21.7 10.8 21.7 21.7v358.5h184.7v-65.2h-103.2c-10.9 0-21.7-10.9-21.7-21.7v-277c0-10.9 10.8-21.7 21.7-21.7h271.5c10.9 0 21.8 10.8 21.8 21.7v103.2h190.1v-358.5c0-10.9 10.8-21.7 21.7-21.7h21.7c10.9 0 21.7 10.8 21.7 21.7v228.1h124.9v-43.4c0-10.9 10.9-21.8 21.8-21.8h146.6c10.8 0 21.7 10.9 21.7 21.8v211.8c0 10.9-10.9 21.7-21.7 21.7h-586.5c-10.9 0-21.8-10.8-21.8-21.7v-103.2h-184.6v190.1h108.6c10.9 0 21.7 10.9 21.7 21.7v146.7c0 10.8-10.8 21.7-21.7 21.7h-277c-10.8 0-21.7-10.9-21.7-10.9zm695.2-369.3v59.7h249.8v-124.9h-65.2v65.2z"/>
	</g>
</svg>