<svg version="1.2" xmlns="http://www.w3.org/2000/svg" viewBox="0 0 1442 1554" width="1442" height="1554">
	<title>ADCB</title>
	<style>
		.s0 { fill: #ffffff } 
	</style>
	<path id="Layer" fill-rule="evenodd" class="s0" d="m189.5 3.3c20.4-2.7 41.1-4 61.6-0.6 73 11.9 141.6 41.3 208.8 71.5 49.2 21.6 97.1 45.8 144.8 70.8 65.9 34.6 131.5 69.9 196.5 106.6 39.8 22 78.4 46.1 117.8 68.8 108.6 64.1 215.6 130.4 318.1 203.3q48.8 35.7 96.4 72.6c25 21.4 51.3 41.8 70.4 69.1 42.5 54.8 49.9 134.9 17.1 196.5-8.4 15.5-18.5 30.1-29.9 43.6-28.6 31-62.1 56.7-95.8 82.1-19.1 13.9-37.8 29-58 41.6-74.4 51.3-150.8 99.6-227.3 147.7-76.6 48.4-154 95.4-232.9 139.7-90.4 50.1-181.4 98.9-274 144.3-38.7 17.4-76.7 35.6-116.2 50.9-48.4 18.2-97.4 37.1-149.3 41.3-32.2 1.6-65.4-1.3-94.7-15.2-22.4-9.7-42.2-25.7-55.3-46.4-12.6-15.7-23.3-33-31-51.7-16.2-38.2-25.4-79.1-31.7-120.1q-9.6-76.4-14.8-153.3c-3.8-57.6-7.7-115.4-8.1-173.2-0.9-56.2-1.8-112.4-1.6-168.6-1.1-48.6 0.5-97.4 0-146.2 0.7-53.1 1.1-106.4 2.5-159.7 2.9-64.7 3.4-129.5 10.3-193.8 5.9-52.8 11-105.9 24.3-157.4 7.2-29.5 18.4-58.3 34.6-84.1 7.2-9.9 15.1-19.4 22.1-29.5 22.9-29.2 58.6-46.3 95.3-50.6zm8.7 49.3c-18.8 2.5-38.4 7.9-53 20.7-11.5 8.7-19.1 21.3-27.7 33-16.1 22.7-24.7 49.7-32.1 76.3-6.3 23.1-9.5 47-12.8 70.6-5.2 38.2-9.7 76.4-12.8 114.9-4.3 48.5-4.1 97.3-6.8 146.1-3.1 123-2.7 245.8-2.5 368.8 1.4 73.3 0.7 146.9 5.7 220.2 4 63.2 8.3 126.4 15.7 189.3 6.5 45.9 14.4 92 33.3 134.5 11.2 21.4 24.9 42.3 43.8 57.6 20.2 14.8 46.3 17.9 70.6 18.8 24.5 1.2 48.3-5.1 71.9-11.4 24.3-7 48.1-15.3 71.5-24.5 34.6-14.4 69.5-28.4 103.2-45 52.8-25.4 105.4-51.7 157.2-79.4 80-41.6 158.4-86.6 236.4-132.2 36-21.8 71.5-44.1 107.5-66.1 38.9-23.6 76.9-49 115.6-73.1 40-25.6 79.5-52.4 119.1-78.7 29.4-19.6 57.3-41.4 85.7-62.5 33.2-26.3 68.7-52.9 88.7-91.3 16.7-32.6 19.8-72 7.5-106.4-9.7-28.5-29.9-52.2-51.7-72.2-32.4-28.8-67.9-53.7-102.5-80-41-29.9-82.6-58.9-125-86.6-72.9-47.7-146.8-93.8-222.4-137.2-39.5-22.2-78-46.5-117.5-68.6-110-61.1-220.8-120.7-335.2-173.1-49.3-22-99.6-42.3-151.8-56.4-25.8-7.2-53-9.3-79.6-6.1zm42.3 108.6c0-11 10.3-20.7 21.4-20.2 44.5 0 89-0.3 133.5 0 11.5 0.2 20.9 11.2 20.2 22.4 0.3 49.3 0 98.5 0 148q30.2-0.2 60.3 0 0-47.2 0-94.2c-0.7-11 9.4-20.9 20.2-21.2 6.8-0.2 13.5-0.2 20.2 0.3 10.6 0.6 20.1 10.5 19.2 21.1q0 66.3 0 132.9c0.9 11.3-10.2 21.6-21.4 21.1q-46.5 0-93.3 0c0 31.1 0 61.9 0 92.9 0.4 11.7-9.7 22.5-21.1 22.3-84.1 0.2-168.2 0-252.3 0.2-6.3 0.2-13.2-1.3-17.5-6.3-4.7-4.7-4.7-11.9-4.7-18 0-81.8 0-163.7 0-245.3-0.2-11 9.4-20.9 20.4-21.2 5.2-0.2 10.4-0.2 15.3 0.3 10.6 0.4 19.8 10.5 19.4 21.1q0 109.5 0 219.3 87.6 0 175.3 0 0-30.2 0-60.3c-31 0-62 0.2-93.1 0-11.9 0.7-22.7-9.9-22.2-21.6 0.2-64.5 0-129.1 0.2-193.6zm60 39.8q0 57.8 0 115.4 30.2 0 60.3 0 0-57.6 0-115.4-30.1 0-60.3 0zm300.1 56c7.9-1.6 16-0.7 23.9-0.7 11.4-0.4 22 10.1 21.1 21.6 0 101.2 0 202.4 0 303.8 0.2 10.8-10.3 20.5-21.1 20.2-7.9 0-15.5 0.5-23.2-0.4-6.9-0.9-15-5.4-15.3-13.1 0-103.6 0-207.1 0-310.5-0.9-9.4 6.1-17.8 14.6-20.7zm101.9 66.8c3.8-6.5 10.3-12.4 18.4-12.6 9.2 0 19.1-1.3 28.1 2 8.1 4.3 12.6 14 11.9 23-0.2 68.6 0.3 137.1-0.2 205.5 38.4-0.5 76.9 0 115.3-0.2 0.3-13.7-0.4-27.7 0.5-41.6 0.9-10.8 11.4-18.7 22-18.5q60.7 0 121.4 0c6.3 0 13-0.4 19.1 2.1 7.9 3.6 12.6 12.6 12.4 21.1q0 94.8 0 189.6c0.7 12.3-10.1 23.6-22.5 22.7-175.3 0.2-350.7 0-526 0.2-7.9-0.2-16.9 0.9-23.4-4.3-5.9-4-8.6-11.7-8.6-18.6-0.2-30.8 0-61.7 0-92.5q-85.2 0-170.4 0 0 87.7 0 175.4 48.6 0 97.1 0c12.2-0.9 24.1 10.2 23.2 22.8q0 64.9 0 130.2c0.4 12.1-10.8 23.3-23.2 22.4q-125.1 0-250.2 0c-8.5 0-15.9-4.5-22.2-9.9q0-184.1 0-368.3c-1.1-12.4 10.3-22.9 22.5-22.5 9.2-0.2 20.9-1.3 27.2 7.2 4 4.1 5.6 10.1 5.4 15.8-0.3 109.2 0.2 218.5-0.3 327.8 56.9-0.2 113.8 0 170.7 0-0.3-20.2 0-40.2-0.3-60.2-30.8 0-61.8 0-92.8 0-8.6 0.2-16.9-5-20.5-12.6-2.7-7.7-1.5-15.6-1.8-23.4 0-79 0-157.7 0-236.6 0-6.7 2.1-14.4 8.1-18.2 5.2-4.5 12.4-5.2 18.9-5 80.3 0 160.3 0 240.6 0 11.9-0.9 23.3 9.3 22.9 21.6 0 31.3 0.2 62.5 0 93.8 58.2-0.4 116.7 0 174.9 0q0-158.3 0-316.6c0-7.2-0.7-14.6 1.8-21.6zm233.6 217.7c0.2 20.2 0 40.2 0 60.2q-85 0-170.2 0 0 27.7 0 55.1c76.9 0.3 153.7-0.4 230.6 0.3-0.4-38.5-0.2-76.9 0-115.6-20.2 0.2-40.2 0-60.4 0zm-113.3-164.2c8.7-8.5 22-5.8 33-6.1 10.8 0.5 20 9.7 20 20.5-0.2 10.1 2.5 21.4-3.6 30.4-3.1 5.6-9.7 7.6-15.3 9.4-9.2-0.7-18.6 1.4-27.2-2-6.5-4.1-9.9-11-13.7-17.3 0-9.5-1.1-19.4 1.8-28.6q2.5-3.1 5-6.3zm-346.5 60.7c9-8.7 22.3-6.5 34-6.5 6.5-0.2 13.5 2.3 18 7.4 4 7.9 2.4 17.1 2.7 25.7 0.2 7.2-1.6 14.6-6.1 20.4-4.3 3.2-8.8 6.3-14.4 6.3-11.5 0-25.4 2.7-34.2-6.7-7.8-8.6-5.1-20.9-5.6-31.7-0.2-5.6 2.3-10.6 5.6-14.9zm630.2 186c-1.2-11.5 9.4-22.5 21.1-22.3 10.8 0.5 23.8-2.4 32.6 5.9 5.2 4.9 11.9 11 11.5 18.9q0 147.3 0 294.6c0 7.8 0.6 16.8-5 23.1-4.3 5.9-11.5 8.8-18.4 8.3q-48.4 0-96.9 0 0 46.4 0 92.7c0.9 12.1-10.1 23.4-22.5 22.5-30.8 0.2-61.8 0-92.8 0.2 0 12.6 0.2 25.2 0 38 0.9 10.8-8.6 21.1-19.6 21.8-6.7 0.5-13.7 0.5-20.5 0-10.3-0.4-19.5-9.7-20-20-0.2-13.3 0-26.5 0-39.8q-133.7 0-267.7-0.2c-11 0.9-22.5-8.6-22.3-20 0-83.7 0-167.1 0-250.5-0.2-10.6 9.7-20.1 20-20.1q96.8 0 193.6 0c11-0.4 21.1 9.3 21.4 20.3q0.2 9.9 0 20c-0.5 11-10.8 20.2-21.6 19.8-51.3 0.2-102.5 0-153.8 0.2q0 87.7 0 175.4 115.1 0 230.4 0 0-30.1 0-60.3-76.5 0-153.1 0c-10.3 0.5-20.2-7.6-21.8-18-0.9-7.4-0.6-15.2-0.2-22.7 0.9-11 11-20.2 22-19.5 61 0.2 121.7 0 182.6 0.2 11.2-0.2 21.3 10.3 20.7 21.8q-0.3 46.6-0.3 93.3 30.2 0 60.3 0c0-31.2 0-62.3 0-93.5-0.5-11 9-21.6 20-21.6 33.5-0.2 66.8 0 100.3 0q0-134.2 0-268.5zm-739.4 40c11-3.1 23.1-2.9 34.1-0.9 13.1 3.9 15.8 18.9 14.7 30.6 1.3 11.3-3.6 23.6-15.1 27.2-10.8 1.6-22.3 2.3-32.8-0.9-9.5-4.5-13.5-15.7-12.4-26.1-1.1-11 0.7-24 11.5-29.9zm867.3-0.6c8.3-3 17.5-1.2 26.3-1.4 12.1-0.4 22 11.5 21.1 23.4 0 63.2 0 126.4 0 189.8 0.2 10.6-8.3 20.9-18.9 22-6.9 0.5-13.9 0.5-20.9 0.2-11-0.2-21.1-10.3-20.4-21.3q0.2-96.7 0-193.6c-0.5-8.4 5.6-15.5 12.8-19.1zm-763.5 133.8c-0.2-9.3 7.2-17.6 16-19.6 7.6-0.9 15.3-0.5 22.9-0.5 11.9-0.2 21.8 11.3 21.2 23q0 122.3 0 244.4c0.6 11.7-9 23.2-21 23.2-43.6 0.2-87.4 0-131 0.2-7.7 0.4-15.5-3.2-19.8-9.4-5.8-8.8-2.9-19.8-3.6-29.5-0.7-7.7 4.5-15.7 12.1-17.5 5.4 0.2 10.6 1.3 16 1.3q43.6-0.2 87 0c0.2-72 0-143.9 0.2-215.6zm417-18.3c9.7-2.4 19.8-2 29.7-1.5 9.9 0.6 16.9 9.9 18.7 19.1-0.5 11.2 1.8 23.6-5.2 33.7-2.2 1.6-4.7 3.2-7 5-8.3 3.1-17.5 2.2-26 2-6.8-0.2-13.8-2.9-17.6-8.6-6.9-9.4-4.2-21.6-4.2-32.3 0.4-7.7 6.3-12.9 11.6-17.4zm110.4 4.1c8.3-8.1 20.9-5.6 31.3-5.9 8.3 0 15.7 5.2 19.8 12.2 3.3 11.2 2.2 22.9 0.9 34.2-3.2 5.4-7.5 10.1-13.3 12.8-12.8 1.1-26.8 3.4-38.2-3.8q-3.2-4.1-6.1-8.4-0.7-2.9-1.3-5.6c0.6-11.9-3.6-26.7 6.9-35.5zm-861 226.7c8.1-3.6 17.6-1.6 26.1-2.1 11.5-0.6 22.3 9.7 21.8 21.2-0.4 10.8 2.9 23.6-5.6 31.9-7.9 9.4-21.1 6.7-31.9 7.2-10.4 0.4-20.7-7.6-22.1-18-0.9-7.6-0.6-15.5-0.2-23.4 0.5-7.2 5.6-13.7 11.9-16.8zm114.7 0.2c8.1-3.8 17.3-1.8 26-2.3 11.5-1.1 22.5 9.3 22.5 20.9-0.4 10.8 2.5 23.9-6 32.4-8.1 9.2-21.4 6.5-32.2 6.8-10.6 0.4-20.7-7.9-21.8-18.5-0.4-6.7-0.2-13.7 0-20.4-0.4-7.9 4.7-15.3 11.5-18.9zm-126.8 129.1c-0.5-11.7 10.8-22.3 22.5-21.2q150.6 0 301.2 0c11.2-0.7 21.6 9.5 21.8 20.7 0.2 7.7 0.5 15.3-0.7 22.7-2 9.7-11.2 17.1-21.1 16.7-89.5 0.2-179.2 0-268.6 0.2q0 29.9 0 60 175.3 0 350.7 0 0-47.2 0-94.4c-0.7-11 9.8-21.4 20.9-20.7 43.6-0.2 87.2 0 131-0.2 13.3-1.4 19.8 12.3 27.9 20.2 0 26.5 0 52.8 0 79.4 0.2 10.1-8.5 19.5-18.7 20.4-6.9 0.7-13.9 0.5-20.9 0.3-10.8-0.3-20.2-9.9-20.4-20.7-0.5-13.1 0-26.3-0.2-39.4q-29.9 0-60.1 0 0 46.8 0 93.4c1.2 12.1-10.5 22.7-22.2 22q-210.4 0-420.6-0.2c-12 0.6-23-9.7-22.5-21.6q0-68.8 0-137.6zm650.3-15.1c7.9-2 16.2-0.7 24.3-0.9 11.9-0.7 22.5 11 21.2 22.9-0.5 9.9 2.4 21.6-5.2 29.7-7.9 9.5-21.1 7.4-31.9 7.4-11.7 0.9-23-9-23-20.9-0.2-7.6-0.6-15.3 0.5-22.7 1.8-7.2 7.2-13.3 14.1-15.5zm-582.2 235.9c6.1-2.5 13-0.9 19.8-1.4 8.1-0.2 17.7-0.6 23.4 6.6 6 8.9 3.3 20.4 4 30.5 0.7 10.8-7.9 21.6-18.7 22.7q-11.4 1.1-22.9 0c-10.1-0.9-18.6-10.3-18.6-20.6-0.3-6.6-0.3-13.3 0.2-19.8 0.2-7.9 5.8-14.6 12.8-18zm114.9 0.2c6.9-2.9 14.4-1.1 21.6-1.6 7.8 0 18.4-1.1 23.1 6.6 4.3 9.6 2.3 20.6 2.7 31 0.7 10.8-8.1 21.3-18.9 22.2-6.9 0.7-13.7 0.5-20.7 0.3-11.4-0.3-21.8-11.3-20.6-23-0.7-12.8-1.4-29.6 12.8-35.5z"/>
</svg>