<svg version="1.2" xmlns="http://www.w3.org/2000/svg" viewBox="0 0 1569 1516" width="1569" height="1516">
	<title>admiral-logo-color-svg</title>
	<style>
		.s0 { fill: #ffffff } 
	</style>
	<g id="Layer">
		<g id="Layer">
			<g id="Prime">
				<g id="Orbit">
					<path id="Layer" fill-rule="evenodd" class="s0" d="m1401.3 1095.9c0.4-0.4 2.5-3.4 4.2-5.9 0.8-1.3 2.1-1.7 3.4-1.7h131.3c1.7 0 3.3 1.3 3.8 2.9 12.6 35 23.1 83.4 24.4 118.3 0 0.4 0 0.8-0.4 1.7-12.7 35.7-52.2 160.7-222.7 247-82.9 42-184.3 62.2-298.4 55.9-118.6-6.3-248.7-41.2-382.1-108.1-135.5-67.8-257.6-159.9-359.4-266.8-100.6-105.2-178.4-221.7-230.6-340-50.5-114-74.1-226.8-74.1-331.1 0-436.8 408.2-466.7 492-467.5 390.1-3.8 611.5 231.8 611.5 231.8 1.7 1.7 1.7 4.2 0 5.9-1.7 1.7-4.2 1.7-5.9 0 0 0-274.4-253.3-649.4-201.1-91.3 12.6-170.9 47.1-229.8 105.2-77.4 76.2-108.1 181.8-96.4 298.3 17.3 175.9 130.5 376.2 322 539 191.5 162.9 418.7 251.7 611.9 254.6 128 2.1 241.6-33.2 319-109.8q13.9-13.3 25.3-27.8c0-0.4 0-0.4 0.4-0.8z"/>
				</g>
				<g id="Admiral">
					<path id="Layer" fill-rule="evenodd" class="s0" d="m436.6 873.7c0 0 173.8-369.4 256.7-545.3 28.2-59.8 88.4-97.7 154.4-96.8 2.6 0 12.7 0 15.2 0 73.2 0.8 125.4 39.5 144.3 123.7 49.3 219.2 147.8 657.2 147.8 657.2h-217.2l-26.5-149.3h-263.1l-51.3 122.4c-106.5-59.3-160.3-111.9-160.3-111.9zm397.2-446.5l-113.6 268.5h160.4z"/>
				</g>
			</g>
		</g>
	</g>
</svg>