<svg version="1.2" xmlns="http://www.w3.org/2000/svg" viewBox="0 0 1586 1587" width="1586" height="1587">
	<title>ADNOC-2-svg</title>
	<style>
		.s0 { fill: #1947ba } 
	</style>
	<g id="#1947baff">
		<path id="Layer" class="s0" d="m0.6 0.7q792.6 0 1585.1 0c-0.1 170.9 0.1 341.7-0.1 512.5-37.8-51.9-83.2-98.1-132.6-138.9-107.3-88.7-238.1-149.6-375.9-170.6-81-12.5-163.8-12.2-244.8 0.1-43.1 6.8-85.5 17.9-126.8 32-31.2 10.8-62.1 22.8-91.6 37.6-59.1 30.1-115.2 67-163.7 112.4-11.2 9.8-20.6 21.4-30.9 32-49.3 32.4-95.6 71.2-130 119.6-18.9 25.5-28.6 56.6-34.2 87.5-11.8 68.7 10.7 140.7 54.5 194.1q1.6 1.8 3.3 3.6c-3.6-15.7-5.3-32-2.4-48 3.5-21.5 14.5-41.8 30.9-56.3 59.7 15.6 121.8 19.6 183.3 20.8 6.6-0.6 13.2 0.3 19.4 2.6 33.1 6.9 65.7 16.9 96.4 31.2 58 26.8 109.4 68.8 144.9 122.2 37 54.5 56.7 119.9 59.5 185.5 1.9 38.1-2.4 76.3-9.8 113.6-14.3 62.4-48.6 118.3-89.7 166.6-43.3 50.4-94.9 93.4-151.4 128.4-100.9 62.7-219.1 99.3-338.3 97-85-0.1-170 0-255.1 0q0-792.7 0-1585.5zm753.1 417.8c115.2-44.2 240.9-58.8 363.5-46.8 34.5 3.5 69.1 7.6 103 15.4 70 15.8 137.1 43.1 199.6 78.2 55.6 31.5 108.1 68.7 154.7 112.5 3.3 4.1 8.6 7.1 11 11.8 0.3 47.4 0.3 94.8 0.1 142.1-37.1-50.9-81.2-96.5-129.6-136.8-48.7-40.4-102.1-75.3-158.9-103.1-112-55.4-237.9-81.4-362.6-77.3 7.9 30 2.1 63.2-15.8 88.6-16.9 24.5-44.1 41.2-73.2 47.2-35.6 7.5-74.3-0.7-103.6-22.3-22.7-16.4-39.6-40.9-46-68.2-33.2 11.9-65.8 25.7-97.2 41.8-5.4 2.3-10.1 6-15.8 7.5 53.3-36.5 110.4-67.7 170.8-90.6zm189.9 236.3c14.1 1.6 27.8 5.9 41.6 9.3 134.9 36.1 259.6 108.8 358.2 207.7 80.2 80.3 143.8 177.2 185.4 282.8 54.1 136.2 71.2 287.6 44.6 432-130.6 0-261.2 0.1-391.8 0 72.6-72.7 123.9-166.2 146.6-266.4 14.1-75.4 17.4-153.3 4.4-229.1-11.1-65.3-34.4-128.4-69-184.9-36.2-59.6-84.4-111.5-139.4-154.3-45.9-35.5-96.4-65.5-150.4-87-9.9-3.8-19.9-7.5-30.2-10.1z"/>
	</g>
</svg>