<svg version="1.2" xmlns="http://www.w3.org/2000/svg" viewBox="0 0 1561 278" width="1561" height="278">
	<title>logo-color (3)-svg</title>
	<style>
		.s0 { fill: #ffffff } 
	</style>
	<g id="Symbols">
		<g id="Advaxis-Logo-Color">
			<g id="Advaxis">
				<path id="Fill-1" fill-rule="evenodd" class="s0" d="m39.1 131.2q0 1.3 0.8 1.9 0.9 0.6 3.6 0.6v2.9l-43.5 0.2v-3q2.7-0.5 3.9-1.6 1.3-1.1 2.5-4.1 0.5-1.2 2.4-6.6 2-5.4 5.1-13.7 3.2-8.2 7.1-18.3 3.9-10.1 7.8-20.6 3.9-10.5 7.7-20.4c2.5-6.7 4.7-12.6 6.6-17.9q3-7.9 4.8-12.8 1.8-4.9 1.8-5.2 0-1.2-1.6-1.7-1.6-0.5-3.3-0.7v-3l64.1-0.2v3q-1.9 0.2-3.1 0.7-1.3 0.5-1.3 2.5 0 0.5 2.4 6.4 2.3 5.9 6.1 15.3 3.7 9.5 8.5 21.4 4.8 11.9 10 24.3 5.2 12.4 10.1 24.2 4.8 11.8 8.8 21.2 1.9 4.4 3.3 5.8 1.4 1.5 3.6 1.5v3l-48.4 0.1-0.1-2.9q4.7-0.3 4.7-3 0-0.3-1.2-3.3-1.3-3.1-2.7-6.9-1.5-3.8-2.9-7.2-1.4-3.5-1.6-4.7l-58.3 0.2q-2.4 6.6-3.8 10.8-1.5 4.2-2.4 6.7-0.8 2.4-1.2 3.5-0.3 1.1-0.3 1.6zm59.5-42.5l-24-58.4-21.7 58.6zm170.1-74.9q0-1.7-1.1-2.8-1.2-1.1-5.8-1.6v-2.9l81.5-0.3q17-0.1 29.5 4.8 12.6 4.9 20.7 13.6 8.2 8.7 12.3 20.5 4.1 11.8 4.1 25.6 0 12.5-4.2 24.2-4.3 11.7-13 20.7-8.7 9-21.6 14.5-12.8 5.4-30 5.5l-78.9 0.3v-3q4.6-0.5 5.8-1.6 1-1.1 1-2.8zm68.4 92.7q19.4-0.1 28-10 8.6-10 8.5-25.8 0-15.7-8.7-25.7-8.6-9.9-28-9.8l-31.2 0.1 0.2 71.3zm210.5 25.4q2.2-0.5 2.9-1 0.7-0.5 0.7-1.2 0-0.5-1.9-5.1-2-4.5-5.1-11.9-3.1-7.4-7.3-16.7-4.3-9.3-8.6-19.4-4.3-10.1-8.8-19.9-4.4-9.8-8.1-18.2-3.7-8.3-6.3-14.5-2.6-6.1-3.6-8.6-1.8-4.1-2.8-5.4-0.9-1.2-2.9-1.4v-3l50.4-0.2v3q-3 0.3-4 1-1 0.8-0.9 2 0 0.7 1.1 3 1.1 2.4 4.7 10 3.6 7.6 10.4 22.1 6.8 14.5 18.4 39.5 11-24.3 17.4-38.8 6.5-14.4 10-22 3.6-7.7 4.6-10.5 0.9-2.8 0.9-3.8 0-1.2-0.7-1.8-0.8-0.7-3-0.9v-2.9l42.3-0.2v3q-1.5 0.5-2.3 1-0.9 0.5-1.4 2.2-0.5 1.5-2.9 7.1-2.4 5.7-6 14.1-3.5 8.3-7.8 18.6-4.3 10.2-8.8 20.8-4.5 10.6-8.7 20.7-4.3 10.1-7.6 18-3.3 7.8-5.2 13-2 5.2-2 5.7 0 2.2 3.5 2.2v3.2l-50.6 0.1zm230.4-3.2q0 1.2 0.9 1.9 0.9 0.6 3.6 0.6v2.9l-43.5 0.2v-3q2.7-0.5 3.9-1.6 1.2-1.1 2.4-4.1 0.5-1.2 2.5-6.6 1.9-5.4 5.1-13.7 3.2-8.2 7.1-18.3 3.9-10.1 7.7-20.6 4-10.5 7.7-20.5c2.5-6.6 4.8-12.5 6.7-17.8q2.9-7.9 4.8-12.8 1.8-4.9 1.8-5.2 0-1.2-1.6-1.7-1.6-0.5-3.3-0.7v-3l64.1-0.2v3q-1.9 0.2-3.2 0.7-1.2 0.5-1.2 2.5 0 0.5 2.4 6.4 2.3 5.9 6 15.3 3.7 9.5 8.6 21.4 4.8 11.9 10 24.3 5.2 12.4 10 24.2 4.9 11.8 8.8 21.1 2 4.5 3.4 5.9 1.3 1.5 3.5 1.5v2.9l-48.4 0.2v-3q4.7-0.2 4.7-2.9 0-0.3-1.3-3.3-1.2-3.1-2.7-6.9-1.5-3.8-2.8-7.3-1.4-3.4-1.6-4.6l-58.3 0.2q-2.4 6.6-3.9 10.8-1.4 4.2-2.3 6.6-0.8 2.5-1.2 3.6-0.4 1.1-0.4 1.6zm59.6-42.5l-24-58.5-21.7 58.7zm155.2 44.2q2.2 0 5.6-4.2l49-58.7-45.9-57.4c-1.1-1.3-2.2-2.2-3.1-2.6q-1.3-0.6-2.6-0.6v-2.9l57.5-0.2v2.9q-2.9 0.3-4.4 0.8-1.4 0.5-1.4 2.5 0 0.4 3.2 4.5 3.2 4 7.2 8.8 4.1 4.8 7.7 9.1 3.6 4.3 4.6 5.5 1.4-1.7 5.1-6 3.6-4.3 7.5-9 3.7-4.7 6.8-8.5 3.1-3.9 3.1-4.6-0.1-2-1.9-2.6c-1.2-0.4-2.3-0.6-3.3-0.6v-2.9l56.3-0.2v2.9q-4 0.3-6.2 3l-45 56.2 50.1 63.1q0.7 1 2 1.1 1.2 0.1 2.4 0.1v3l-57.5 0.1v-2.9q4.7 0 4.7-1.3 0-0.9-2.4-4.4c-1.5-2.3-3.5-5-5.9-8.2q-3.6-4.8-7.9-10.3-4.3-5.5-8.3-10.7-0.7 1.3-3 4-2.3 2.7-5.1 5.9-2.9 3.2-6 6.8-3.2 3.6-5.9 6.8-2.7 3.2-4.4 5.5-1.7 2.4-1.7 3.3 0 2 2.2 2.4 2.2 0.3 3.7 0.3v3l-56.8 0.2zm263.4-0.9q4.7-0.5 5.8-1.6 1.1-1.1 1.1-2.9l-0.4-114.6q0-1.7-1.1-2.8-1.1-1.1-5.8-1.6v-2.9l50.6-0.2v2.9q-4.6 0.6-5.7 1.6-1.1 1.2-1.1 2.9l0.3 114.6q0.1 1.7 1.2 2.8 1.1 1.2 5.7 1.6v3l-50.6 0.1zm183.1-47.5q-0.4 1.4-0.4 5.1 0 2.5 4.5 5.5 4.6 3.1 11.8 5.8 7.3 2.7 16.7 4.5 9.3 1.8 18.9 1.8 18.4-0.1 27-4.4 8.6-4.4 8.5-12.5 0-4.4-7.5-6.2-7.5-1.8-18.8-2.9-11.3-1.1-24.3-2.4-13-1.3-24.4-4.8-11.3-3.6-18.8-10.3-7.5-6.7-7.5-18.5-0.1-9.4 4.2-17 4.3-7.7 12-13.1 7.7-5.5 18.8-8.6 11-3.1 24.5-3.1 12.6-0.1 23.4 1.5 10.8 1.6 19.2 3.5 8.3 1.9 14 3.5 5.6 1.6 8.1 1.6 2.4 0 3.9-1.1c1-0.8 1.9-1.6 2.7-2.6l2.7 1-16.8 34.2-3-1.5v-2.7q0-2.2-4.8-4.5-4.8-2.3-12.2-4.1-7.3-1.9-16.5-3.1-9-1.2-17.6-1.1-16 0-22.4 3.7-6.4 3.8-6.3 7.9 0 4.2 4.4 6.3 4.4 2.1 11.6 3c4.7 0.7 10.1 1.2 16.2 1.6q9.1 0.6 18.7 1.8c6.4 0.7 12.6 1.9 18.6 3.3q9.2 2.2 16.3 6.5 7.1 4.3 11.6 11.3 4.4 7 4.4 17.6 0.1 8.1-3.2 15.9-3.3 7.9-11.3 14.2-7.9 6.3-21.3 10.1-13.4 3.7-33.3 3.8-15.5 0-26.7-1.4-11.2-1.5-19-3.5-7.9-2.1-12.4-3.8-4.6-1.7-6.8-1.7-1.5 0-2.6 1-1.1 1-2.3 2.2l-3-0.7 18.1-43.9zm-1277.5 124.2h12l0.2 71.4-12 0.1zm81.8 64.9l-25-49.5 0.2 55.8h-12.1l-0.2-71.4h18.8l21.7 44.7 21.4-44.9h18.6l0.3 71.4h-12.1l-0.2-55.8-24.7 49.7zm113.2-0.4l-25-49.5 0.2 55.8h-12l-0.3-71.4h18.8l21.7 44.7 21.4-44.9h18.6l0.3 71.4h-12.1l-0.1-55.8-24.8 49.7zm134.3-65.8l0.1 40.6q0.1 15.4-8.3 23.8-8.5 8.3-21.4 8.4-12.9 0-21.7-8.3-8.7-8.3-8.8-23.1l-0.1-41.2h12.1l0.2 39.5q0 10 4.9 15.9 4.8 5.8 13.2 5.8 8.4 0 13.2-5.7 4.7-5.7 4.7-15.6l-0.1-40zm84.2 53.1l-0.1-53.3 12-0.1 0.2 71.5h-13l-40.6-52 0.2 52.1-12.1 0.1-0.2-71.4 12-0.1zm102.7 7.9q-10.8 10.6-26.7 10.7-15.9 0-26.8-10.5-10.8-10.6-10.9-26.3 0-15.8 10.8-26.4 10.8-10.6 26.7-10.7 15.9 0 26.8 10.5 10.8 10.5 10.9 26.3 0 15.8-10.8 26.4zm-8.9-44.7q-7.4-7.5-18-7.5-10.6 0.1-17.9 7.7-7.2 7.5-7.2 18.3 0 10.8 7.4 18.3 7.3 7.6 17.9 7.5 10.6 0 17.9-7.6 7.3-7.6 7.2-18.3 0-10.8-7.3-18.4zm74-6l0.2 60.3-12.1 0.1-0.2-60.4-21.6 0.1v-11.1l55.3-0.1v11zm48.9 60.2l-0.3-71.4h12.1l0.1 30.9 35.4-0.1-0.1-31h12.1l0.2 71.4-12.1 0.1v-29.2l-35.5 0.1 0.1 29.2zm142.1-71.9v11.3l-38.1 0.2 0.1 18.9 34.2-0.2v10.8l-34.2 0.1 0.1 19.1 39.3-0.1v11.3l-51.3 0.2-0.2-71.5zm86.8 23q0 17.6-15.3 22.3l18.7 25.9h-15.3l-17.1-23.9h-15.8l0.1 24-12.1 0.1-0.2-71.5h26.5q16.3-0.1 23.4 5.4 7.1 5.5 7.1 17.7zm-16 10.1q3.7-3.2 3.6-10.2 0-7-3.8-9.5-3.8-2.6-13.4-2.6h-15.3v25.6l15-0.1q10.2 0 13.9-3.2zm81-33.6l31.7 71.4h-13.3l-7.3-16.2-34.2 0.1-6.9 16.3h-12.8l31.2-71.5zm6.2 44l-12.3-27.4-12 27.5zm96.8-38.2q7.4 6.3 7.5 19.2 0 13-7.6 19.1-7.5 6-23.2 6.1h-12.7l0.1 21h-12.1l-0.2-71.4 24.5-0.1q16.2 0 23.7 6.1zm-8.5 29.6q3.7-3.9 3.6-11.3 0-7.4-4.6-10.4-4.6-3.1-14.4-3.1l-12.2 0.1 0.1 28.6 13.9-0.1q10.1 0 13.6-3.8zm41.9-35.9h12.1l0.2 71.4h-12zm94.8-0.3v11.4l-38 0.1v18.9l34.2-0.1v10.7l-34.1 0.1v19.1l39.3-0.1v11.3l-51.3 0.2-0.2-71.4zm43.3 11.7q-3.2 2.6-3.2 6.5 0 4 3.4 6.3 3.4 2.3 14.4 4.9 11 2.6 16.5 7.4 5.6 4.8 5.6 14.2 0.1 9.3-6.9 15.2-7.1 5.8-18.5 5.8-16.7 0.1-29.7-11.4l7.5-9.1q10.8 9.3 22.5 9.3 5.8 0 9.2-2.5 3.4-2.6 3.4-6.7 0-4.1-3.2-6.4-3.3-2.3-11.1-4.2-7.9-1.8-12-3.4-4.1-1.6-7.2-4.1-6.4-4.8-6.4-14.3 0-9.5 6.8-15.3 6.8-5.8 17.5-5.8 14.5-0.1 26.2 8l-6.7 9.6q-8.8-6.5-19.7-6.5-5.3 0-8.4 2.5zm70.8-4.4v22.4h-4.5v-22.4h-8.1v-4.1h20.6v4.1zm26.7 20.2l-9.2-18.5v20.7h-4.5v-26.5h7l8 16.7 8-16.7h6.9v26.5h-4.4v-20.7l-9.3 18.5z"/>
			</g>
		</g>
	</g>
</svg>