<svg version="1.2" xmlns="http://www.w3.org/2000/svg" viewBox="0 0 1509 386" width="1509" height="386">
	<title>AFC_Energy_Logo-svg</title>
	<style>
		.s0 { fill: #009fe3 } 
		.s1 { fill: #092e6e } 
		.s2 { fill: #fd4f00 } 
	</style>
	<g id="#1ca2ccff">
		<path id="Layer" class="s0" d="m158.2 0h0.5c7.8 8.2 15.5 16.4 24 23.7q-3.6 3.9-7.5 7.6c-5.6-5-10.7-10.7-16.9-15.1-13.2 12.3-25.7 25.4-37.9 38.8-27.8 30.9-54.3 63.4-75.8 99.1-12.5 20.9-23.4 42.9-30.2 66.3-3.8 13.6-6.4 27.7-6.1 42-0.2 20.3 5.9 40.8 17.6 57.5 3.6 5.7 8.4 10.5 12.5 15.7-19-16.5-32.5-39.7-36.6-64.7-3.6-21.2-0.4-43 5.8-63.5 7.7-25 20-48.4 33.9-70.4 28.6-44.4 63.8-84.1 101.1-121.2 5.2-5.2 10.8-10.2 15.6-15.8zm25.3 39.9c2.4-2.5 4.8-5.1 7.3-7.5 5.4 5.5 11 11 16.5 16.4-2.3 2.4-4.6 4.8-6.9 7.2-6-5-11-11.1-16.9-16.1zm25.7 25.4q3.4-3.7 6.9-7.4c20.7 20.1 40.8 40.8 61.3 61 4.3 4.2 8.9 8.2 12.6 13.1-5.6-0.4-12.6 1.9-16.8-2.8-21.3-21.4-42.6-42.7-64-63.9z"/>
	</g>
	<g id="#1d2556ff">
		<path id="Layer" class="s1" d="m254.1 0h0.5c3.7 4.3 7.9 8.2 11.9 12.2 35.7 35.7 71.2 71.6 106.9 107.2 4.2 4.2 8.4 8.3 12.3 12.6-4.4 0.1-8.8 0.3-13.2 0.1-1.5 0-2.5-1.3-3.5-2.1-38.3-37.7-76.4-75.4-114.6-113-5.2 5.5-10 11.3-15.3 16.7q-3.4 3.6-6.9 7.3c-5.4 5.6-10.7 11.3-16.1 16.9q-3.5 3.7-6.9 7.4c-12.9 13.8-25.9 27.7-38.4 42-21 23.7-41.8 47.7-60.8 73-12.9 17.4-25.1 35.4-34.8 54.8-11.1 22.2-18.9 46.7-17.2 71.7 1 19.1 11 36.9 25 49.6 13.7 13.1 31.2 21.1 48.9 27.4-22.2-5.1-43.1-16.1-59.5-31.9-12.8-12.5-22-29.2-23-47.3-2.7-29.4 6.7-58.4 20.4-84.1 14-26.2 31.8-50.1 50.4-73.3 25.4-31.5 52.3-61.8 80.2-91.2 2.3-2.4 4.6-4.8 6.9-7.2 5.4-5.5 10.9-10.9 16.4-16.4 2.3-2.3 4.6-4.8 6.9-7.2 7.8-8.4 16-16.5 23.5-25.2z"/>
		<path id="Layer" fill-rule="evenodd" class="s1" d="m577.6 165c16.8-7.1 35.6-8.4 53.5-5.7 12.1 2.1 24.3 5.2 34.8 11.8-3 8.8-6.2 17.4-9.3 26.1-10.4-4.9-21.3-8.9-32.8-9.9-15.7-2-33 1.3-44.8 12.3-12.9 11.7-17.8 29.8-18.2 46.7-0.5 16.8 2.1 34.7 12.3 48.5 8 11.1 21.3 17.4 34.8 18.3 12.8 0.7 26 0.1 38.1-4.3 4.4-1.5 8.7-3.4 13-5.2 3 8.7 5.8 17.5 8.7 26.3-5.1 3.3-10.9 5.2-16.6 6.9-14.4 4.4-29.5 5.8-44.4 5.2-16.8-0.6-33.8-5.1-47.5-15.2-12.5-9.1-21.3-22.5-26.3-36.9-5-14.3-6.4-29.6-6-44.6 0.5-14.3 3.4-28.8 9.9-41.6 8.3-17.3 23-31.5 40.8-38.7zm-301.8-2.9c10.2 0.1 20.4-0.1 30.6 0.1 27 57.3 49.6 116.5 70.7 176.2-11.6 0-23.2 0-34.8 0-4.9-13.8-10.3-27.4-14.9-41.4-24.7 0-49.5-0.2-74.2 0.1-4.5 13.8-9.7 27.4-14.4 41.2-11.2 0.3-22.4 0.1-33.6 0.1 14.7-42.4 30.4-84.5 47.8-125.9 7.3-16.9 14.4-33.9 22.8-50.4zm14.4 34.8c-10.3 24.3-19.7 49-28.5 73.9 19.1 0 38.2 0 57.3 0-9-24.9-18.1-49.7-28.8-73.9zm108.6-34.7c37.1-0.1 74.2 0 111.4 0 0.3 9.1 0.2 18.3 0 27.5-26.3 0-52.7 0-79 0-0.1 14.9-0.1 29.7 0 44.6 23.4 0 46.8-0.3 70.2-0.1 0.1 9.1 0.1 18.3 0 27.5-23.2 0.1-46.4-0.1-69.6 0.1l-0.6 0.6c-0.1 25.3 0 50.6-0.1 76-10.8 0.1-21.5 0-32.3 0-0.1-58.8 0-117.5 0-176.2z"/>
	</g>
	<g id="#ea5b0dff">
		<path id="Layer" class="s2" d="m182.7 23.7c8-8 16.4-15.7 24.7-23.4 4.7 4.3 8.5 9.2 12.9 13.8 3.5 3.6 7.1 7.2 10.3 11.1-2.3 2.4-4.6 4.9-6.9 7.2-5.5-5.4-10.8-10.9-16.3-16.3-5.7 5.3-11 10.9-16.6 16.3-2.5 2.4-4.9 5-7.3 7.5-10.7 11.3-21.7 22.4-32.1 34-16.3 18-31.9 36.6-46.7 55.8-23.4 30.8-45.1 63.5-59.5 99.6-9.2 24-15.1 50.3-9.9 75.9 3.2 17.1 12.4 32.7 24.9 44.8 6 6.2 13.4 10.8 20.3 15.9-16.5-8.7-31.5-21-41.8-36.6-12.3-18.4-16.7-41.2-14.1-62.9 2.8-29.3 14.9-56.7 28.9-82.3 23-41.1 52.7-78 84-113.1 12.2-13.6 25.1-26.5 37.7-39.7q3.9-3.7 7.5-7.6zm49.5 17.3q3.5-3.7 6.9-7.3c28.3 27.6 56.1 55.8 84.1 83.6 4.7 4.9 9.8 9.4 14 14.7-4.6-0.1-9.7 0.9-14.2-0.6-7.3-6.6-14-14-21.1-20.9-23.3-23.1-46.5-46.2-69.7-69.5z"/>
		<path id="Layer" fill-rule="evenodd" class="s2" d="m750.3 162.1c33.8 0.1 67.6 0 101.4 0.1 0.1 4.8 0.1 9.7 0 14.6-28.1 0.8-56.2 0-84.3 0.3-0.2 20.3-0.4 40.6 0.1 60.9q33.7 0 67.5 0c2.5 0 5.1 0.3 7.6 0.6 0.1 4.8 0.1 9.6 0.1 14.4-20 0.1-40 0-60 0.1-5.1 0-10.2-0.3-15.3 0.3-0.3 16.4 0 32.8-0.1 49.2 0.1 6.7-0.4 13.5 0.2 20.3 4.4 0.5 8.8 0.2 13.2 0.3 25.8 0 51.6 0 77.5-0.1 0.5 5 0.7 10.1-0.1 15.1-31.5 0-63 0-94.5 0-4.6-0.1-9.1 0.3-13.6-0.3 0-55 0-110 0-165 0-3.6-0.1-7.2 0.3-10.8zm140 49.3c17-5.1 34.6-7.7 52.3-7.1 13.9-0.3 28.9 4 38.1 15 9.3 11.4 11.7 26.7 12 41-0.1 26 0.1 51.9-0.1 77.9q-8.2 0.1-16.3 0c-0.2-25.3 0.1-50.6-0.2-75.8-0.8-11-1.6-22.9-8.5-32.1-5-7-13.8-9.9-22-10.7-12.9-0.7-26.1-0.2-38.6 3.1-0.1 38.4 0 76.9-0.1 115.3-5.6 0.3-11.2 0.5-16.8-0.1-0.1-31.2 0-62.4-0.1-93.6 0.2-11-0.4-22 0.3-32.9zm162.6 2.3c9.8-7.3 22.4-10.5 34.6-10.1 15.1 0.3 30.3 7.2 39 19.8 10 14.1 11.6 32.2 10.9 49-0.1 1.2 0.4 3.8-1.7 3.5-30.1 0.1-60.3 0-90.4 0-1 3.9 0.2 7.8 0.6 11.6 1.8 11.3 6.4 22.7 15.6 29.9 9.4 7.1 21.6 8.7 33.1 8.6 6.8-0.4 13.8-0.8 20.4-3.1 3.6-1.1 7-3 10.8-3 0.5 4.5 1.7 8.9 3.2 13.1-10.3 5.3-22 7.5-33.5 8.1-14.4 0.3-29.6-1.6-41.9-9.6-12.6-7.6-20.8-21.1-23.9-35.2-3.1-14.1-3.5-28.7-0.9-42.9 3.3-15.3 11.1-30.4 24.1-39.7zm9 13c-10.2 8.6-16.2 21.9-16.2 35.1 24.9 0.2 49.7 0.1 74.6 0 0.1-11.8-2.8-24.4-10.9-33.4-6.1-7-15.7-10.3-24.9-9.8-8.3-0.3-16.2 3.1-22.6 8.1zm112.7-14c12.6-5.1 26-8.4 39.6-8.3 10.4-0.3 21 0 30.8 3.6-1.2 4.7-2 9.4-3.7 13.9-10.5-2.5-21.4-3.6-32.1-2.6-6.2 0.2-12.3 1.5-17.9 3.9q-0.1 47.2 0 94.4c-0.2 6.9 0.3 13.8-0.5 20.6-5.4 0-10.8 0.1-16.2 0-0.1-41.9-0.1-83.7 0-125.5zm129.6-5.9c11.7-3.7 24.2-2.4 36.2-2.1 10.7 1.1 21.5 3 31.5 7.1-0.1 40.3 0 80.6-0.1 120.9 0.2 16-4.3 34.2-18.6 43.4-10 6.6-22.2 8.8-34 9.9h-18.8c-9.2-0.9-18.3-2.5-27.1-5-1.2-0.5-2.6-0.5-3.3-1.6 0.4-4.8 1.9-9.5 2.6-14.2 5.5 0.7 10.7 3.1 16.2 4 14.4 2.7 29.5 3.6 43.7-0.4 7.8-2.2 15.3-7.2 18.7-14.8 4.4-9.4 4.6-20.1 4.2-30.3-9.5 5-19.6 9.3-30.4 9.6-17.8 1.1-37.1-4.1-48.8-18.2-13.3-15.4-15.8-36.9-13.8-56.5 1.3-9.7 4.5-19.3 9.9-27.6 7.2-11.6 18.8-20.3 31.9-24.2zm6 14.5c-12 3.4-21.7 12.8-26.2 24.3-3.5 7.8-4.4 16.4-4.6 24.8 0.3 9.1 1.5 18.3 5.8 26.5 3.9 8 10.6 14.9 19 18.3 11.5 4.6 24.6 3.7 36.2-0.1 5-2 10.6-3.8 14.4-7.8 1.1-4.8 0.3-9.9 0.5-14.8 0-19.4 0-38.9 0-58.3 0-3.8 0.3-7.7-0.5-11.5-7.2-1.8-14.5-3.3-21.9-3.3-7.6 0-15.4-0.6-22.7 1.9zm88.5-14.6c5.8 0 11.6 0 17.4 0 2.8 8.5 4.5 17.2 7.2 25.7 7.1 22.6 15.3 45 24.8 66.7 3.7 8 6.9 16.3 11.6 23.8 3.1-6.7 5.2-13.9 7.5-21 10.3-31.1 18-63.1 24.9-95.1q8.3-0.4 16.6 0c-6.4 29.5-14.3 58.6-23.3 87.4-6.9 20.3-13.7 40.7-23.3 59.9-4.7 9.2-10.5 18.3-19.3 24.1-6.7 4.8-14.9 6.8-23 7.8h-13.8c-4.2-0.8-8.3-2-12.1-3.9 0.8-4.5 1.9-8.8 3.4-13.1 11.7 3.7 25.4 4.6 36.2-2.1 7.6-4.7 12.1-12.8 15.8-20.6 1-2.5 2.5-5.3 0.7-7.8-21.8-41.9-39.9-85.9-51.3-131.8z"/>
	</g>
</svg>