<svg version="1.2" xmlns="http://www.w3.org/2000/svg" viewBox="0 0 1576 279" width="1576" height="279">
	<title>afkk-svg</title>
	<style>
		.s0 { fill: #073aa1 } 
	</style>
	<path id="Layer" fill-rule="evenodd" class="s0" d="m647.3 116.5l-7.4-32.7h-31.4l-7.2 32.7h-14l27.3-115.2h19.4l27.5 115.2zm-36.1-45.5h25.7l-12.7-56.8h-0.3zm123.4 45.6l-19.3-50.7h-17.6v50.7h-13.8v-115.3h26.8c24.7 0 35.9 9.7 35.9 30.7 0 15.2-7.1 24.6-18.1 28.9l21.5 55.5zm-22.8-63.1c9.8 0 20.6-3.6 20.6-20.1 0-16.5-9.7-19.2-21.9-19.2h-12.8v39.3zm62.2 63.1v-115h54.8v12.9h-41v36.1h30.4v12.6h-30.4v40.5h43.4v12.9zm133.1 0l-40.3-91.5h-0.4v91.5h-12.6v-115h18.7l34.5 79.3h0.3v-79.3h12.8v115zm43.5 0v-115.2h21.8c32.7 0 46.2 16.6 46.2 56.4 0 38.8-13.7 58.7-46.5 58.7zm22.7-13.3c21.8 0 31.5-13.8 31.5-45.3 0-31.4-9.5-43.1-30.7-43.1h-9.6v88.4zm123.1 13.3l-7.4-32.7h-31.4l-7.2 32.7h-13.9l27.2-115.3h19.4l27.5 115.3zm-35.9-45.6h25.7l-12.7-56.7h-0.3zm72.6 45.5v-115h13.7v102.1h39.8v12.9zm115.9-85.4c-2.6-12.2-7.4-18.6-17.7-18.6-2-0.3-4.1-0.1-6.1 0.5-2 0.6-3.8 1.7-5.3 3.1-1.5 1.4-2.6 3.2-3.4 5.1-0.7 1.9-1.1 4-0.9 6.1 0 26.1 47.5 22.8 47.5 60.4 0 19.3-11.9 30.3-31.4 30.3-19.4 0-27.9-9.8-31.4-30.5l13-2.3c2.6 14.2 7.5 20.3 19.1 20.3 2.2 0.2 4.5-0.1 6.7-0.8 2.1-0.8 4.1-2 5.8-3.5 1.6-1.6 2.9-3.6 3.7-5.7 0.8-2.1 1.2-4.4 1-6.7 0-28.1-47.1-24.4-47.1-60.8 0-17.6 11.1-28 28.3-28 18.3 0 27.3 10.5 29.8 28.8zm-653.9 245.8v-115.1h55.8v13h-42v36.1h31.1v12.7h-31.1v53.3zm69.5-57.6c0-38.9 11.8-58.9 36.1-58.9 24.4 0 36.1 20 36.1 58.9 0 38.8-12.2 59.1-36.2 59.1-24 0-36.1-20.5-36.1-59.1zm58.1 0c0-31.8-7.9-46.3-22.1-46.3-14.2 0-22.1 14.5-22.1 46.3 0 31.7 8.2 46.6 22.1 46.6 13.9 0 22.1-14.8 22.1-46.6zm81.2-27.9c-2.5-12.1-7.4-18.6-17.6-18.6-2.1-0.2-4.2-0.1-6.1 0.6-2 0.6-3.8 1.7-5.3 3.1-1.5 1.4-2.7 3.1-3.4 5.1-0.8 1.9-1.1 4-0.9 6 0 26.2 47.6 22.9 47.6 60.4 0 19.5-12.1 30.4-31.5 30.4-19.3 0-27.8-9.8-31.4-30.5l13-2.3c2.6 14.2 7.6 20.2 19.1 20.2 2.3 0.3 4.6 0 6.7-0.7 2.2-0.8 4.2-2 5.8-3.6 1.7-1.5 3-3.5 3.8-5.6 0.8-2.1 1.2-4.4 1-6.7 0-28.1-47.1-24.4-47.1-60.8 0-17.6 11-28 28.4-28 18.2 0 27.2 10.4 29.8 28.8zm80.7 0c-2.6-12.2-7.4-18.6-17.6-18.6-2.1-0.3-4.2-0.1-6.1 0.5-2 0.7-3.8 1.7-5.3 3.1-1.5 1.5-2.7 3.2-3.4 5.1-0.8 1.9-1.1 4-1 6.1 0 26.2 47.6 22.9 47.6 60.4 0 19.4-12 30.3-31.4 30.3-19.4 0-27.8-9.8-31.4-30.5l12.9-2.2c2.6 14.1 7.6 20.2 19.2 20.2 2.2 0.2 4.5-0.1 6.7-0.8 2.1-0.7 4.1-2 5.8-3.5 1.6-1.6 2.9-3.5 3.7-5.7 0.8-2.1 1.2-4.4 1-6.7 0-28.1-47.1-24.3-47.1-60.8 0-17.6 11.1-28 28.4-28 18.3 0 27.2 10.5 29.8 28.8zm39.2 85.5v-115.1h54.8v13h-41v36.1h30.4v12.7h-30.4v40.3h43.4v13zm132.6 0l-25-58.3-14.4 20.8v37.5h-13.4v-115.1h13.4v55h0.3l35.8-55h14.9l-27.2 42.2 30.7 72.9zm27.6-57.6c0-38.9 11.7-58.9 36.1-58.9 24.3 0 36.1 20 36.1 58.9 0 38.8-12.1 59.1-36.1 59.1-24.1 0-36.1-20.5-36.1-59.1zm58.2 0c0-31.8-7.9-46.3-22.1-46.3-14.3 0-22.1 14.4-22.1 46.3 0 31.8 8.1 46.6 22.1 46.6 13.9 0 22.1-14.8 22.1-46.6zm111.1 57.6v-94.4h-0.3l-23.9 94.4h-10.7l-23.9-94.4h-0.3v94.4h-12.4v-115.1h20.3l21.4 85.9h0.4l21.7-85.9h20.4v115.1zm43.1 0v-115.3h26.2c24.5 0 36.7 10.5 36.7 32.7 0 22.2-13 33.5-36.7 33.5h-12.5v49.1zm26.9-61.6c12.4 0 22.1-5.2 22.1-20.9 0-14.1-7.4-19.7-21.8-19.7h-13.4v40.5zm104 61.6l-7.4-32.7h-31.4l-7.2 32.7h-13.9l27.2-115.3h19.4l27.5 115.3zm-35.8-45.6h25.8l-12.6-56.7h-0.4zm125.9 45.5l-40.4-91.5h-0.3v91.5h-12.6v-115h18.7l34.5 79.3h0.3v-79.3h12.8v115zm43.6-115h13.9v115.1h-13.9z"/>
	<path id="Layer" class="s0" d="m91.7 62.6l24.9-56.8q0.4-0.9 1.1-1.8 0.9-1 2.1-1.7 1.3-0.6 2.7-0.7 1.4-0.1 2.7 0.3 1.3 0.5 2.4 1.4c0.8 0.7 1.4 1.5 1.8 2.5l115.8 271.6h-62zm222-54.1v50.2h-126.6l-24.3-57.1h143.9c1.7 0 3.3 0.6 4.6 1.7 0.7 0.6 1.3 1.4 1.7 2.3 0.5 0.9 0.7 1.9 0.7 2.9zm0 109.3v50.2h-80.2l-24.4-57.2h97.6q1.4 0 2.7 0.5 1.2 0.6 2.2 1.6 1 0.9 1.5 2.2 0.6 1.3 0.5 2.7zm-213.3 69.6l-38.4 90.1h-62l74.2-174.1 25.7 60.5c1.8 3.8 2.7 7.9 2.7 12.1 0 3.9-0.7 7.8-2.2 11.4zm361.4 89.9h-61.9l-58.8-137.9 58.8-137.9h51.6q1.4 0 2.6 0.5 1.3 0.5 2.2 1.4 1 1 1.5 2.2 0.5 1.2 0.5 2.6 0.2 1 0 2.1l-54.9 129.1z"/>
</svg>