<svg version="1.2" xmlns="http://www.w3.org/2000/svg" viewBox="0 0 1546 243" width="1546" height="243">
	<title>affimed_logo-svg</title>
	<defs>
		<linearGradient id="g1" x1="31.3" y1="75.2" x2="177.9" y2="128.6" gradientUnits="userSpaceOnUse">
			<stop offset="0" stop-color="#dd1275"/>
			<stop offset=".1" stop-color="#d81374"/>
			<stop offset=".3" stop-color="#c91772"/>
			<stop offset=".4" stop-color="#b01d6e"/>
			<stop offset=".6" stop-color="#8e2668"/>
			<stop offset=".7" stop-color="#613061"/>
			<stop offset=".9" stop-color="#2c3e59"/>
			<stop offset="1" stop-color="#024852"/>
		</linearGradient>
	</defs>
	<style>
		.s0 { fill: #dd0374 } 
		.s1 { fill: #004852 } 
		.s2 { fill: none;stroke: #004852;stroke-width: 8.8 } 
		.s3 { fill: url(#g1) } 
		.s4 { fill: #000000 } 
		.s5 { opacity: .5;fill: #ffffff } 
		.s6 { opacity: .4;fill: #ffffff } 
		.s7 { opacity: .3;fill: #000000 } 
		.s8 { fill: #ecccd4 } 
	</style>
	<g id="Ebene_2">
		<g id="Layer_2">
			<path id="Layer" fill-rule="evenodd" class="s0" d="m1099.9 128.8v111.4q0 0.3-0.2 0.6-0.1 0.4-0.4 0.6-0.2 0.3-0.6 0.4-0.3 0.2-0.7 0.2h-16.4q-0.4 0-0.7-0.2-0.4-0.1-0.6-0.4-0.3-0.2-0.4-0.6-0.2-0.3-0.2-0.6v-108.5l-62.6 100.9q-1.3 2.2-3 3.9-1.8 1.8-4 3-2.1 1.2-4.5 1.9-2.4 0.6-4.9 0.6h-4q-2.5 0-4.9-0.6-2.5-0.7-4.6-1.9-2.2-1.2-4-3-1.8-1.7-3-3.9l-62.7-100.3v107.9q0 0.4-0.1 0.7-0.1 0.3-0.4 0.6-0.2 0.2-0.6 0.4-0.3 0.1-0.7 0.1h-16.5q-0.3 0-0.7-0.1-0.3-0.2-0.5-0.4-0.3-0.3-0.4-0.6-0.2-0.3-0.2-0.7v-110.3c0-8.8 5.1-16.5 12.6-19.2 2.1-0.8 4.3-1.2 6.5-1.1 2.2 0 4.4 0.3 6.4 1.1 2.1 0.8 4 1.9 5.7 3.3 1.7 1.4 3.1 3.1 4.2 5.1l64.3 103h3l64.2-103.3c2.2-3.6 5.5-6.4 9.4-7.9 3.9-1.6 8.2-1.8 12.2-0.7 4 1.2 7.6 3.6 10.1 6.9 2.5 3.4 3.9 7.5 3.9 11.7zm81.6 0.8c-3.5 0-7 0.7-10.2 2.1-3.3 1.3-6.2 3.3-8.7 5.8-2.5 2.5-4.5 5.4-5.8 8.7-1.4 3.2-2 6.7-2.1 10.2v1.9q0 1.5 0.6 2.8 0.6 1.4 1.6 2.5 1.1 1 2.5 1.6 1.3 0.6 2.8 0.6h150.6c2.7 0 5.2 1 7.1 2.9 1.9 1.9 3 4.5 3 7.1 0 2.7-1.1 5.3-3 7.1-1.9 1.9-4.4 3-7.1 3h-150.6q-1.5 0-2.8 0.6-1.4 0.5-2.5 1.6-1 1-1.6 2.4-0.5 1.4-0.6 2.9v1.8c0.1 3.6 0.7 7 2.1 10.3 1.3 3.2 3.3 6.2 5.8 8.7 2.5 2.5 5.5 4.5 8.7 5.8 3.3 1.4 6.7 2 10.3 2.1h131.3c2.6 0 5.1 1 7 2.9 1.9 1.8 2.9 4.4 2.9 7 0 2.7-1 5.2-2.9 7.1-1.9 1.8-4.4 2.9-7 2.9h-131.5c-6.1 0-12.2-1.2-17.9-3.6-5.6-2.3-10.8-5.8-15.1-10.1-4.4-4.4-7.8-9.5-10.2-15.2-2.3-5.6-3.6-11.7-3.6-17.9v-47.5c0.1-5 1.1-9.9 3-14.5 1.9-4.6 4.7-8.8 8.2-12.4 3.5-3.5 7.7-6.3 12.3-8.3 4.6-1.9 9.5-2.9 14.5-3h140.3c2.6 0.1 5 1.2 6.8 3.1 1.8 1.9 2.8 4.4 2.8 7 0 2.6-1 5.1-2.8 6.9-1.8 1.9-4.2 3-6.8 3.1zm364.4 18v56.3c0 5-1 9.9-2.9 14.5-1.9 4.6-4.7 8.8-8.3 12.3-3.5 3.6-7.7 6.4-12.3 8.3-4.6 1.9-9.5 2.9-14.5 2.9h-150.4v-19.8h17.6v-92.5h-17.6v-20.1h150.4c5 0.1 9.9 1.1 14.5 3.1 4.6 1.9 8.8 4.7 12.3 8.3 3.5 3.5 6.3 7.7 8.2 12.3 1.9 4.6 2.9 9.5 2.9 14.5zm-19.9 0c0-2.4-0.5-4.7-1.4-6.9-0.9-2.2-2.3-4.1-4-5.8-1.6-1.7-3.6-3-5.8-3.9-2.2-0.9-4.5-1.4-6.9-1.4h-112.6v92.4h112.5c2.4 0 4.8-0.4 7-1.4 2.1-0.9 4.1-2.2 5.8-3.9 1.7-1.7 3-3.7 3.9-5.8 0.9-2.2 1.4-4.6 1.4-7z"/>
			<path id="Layer" fill-rule="evenodd" class="s1" d="m372.3 241.9h-23.3l-25.2-42h-100.7l-25.3 42h-23.3l72.4-120.7q1.6-2.7 3.8-4.9 2.2-2.2 4.9-3.7 2.8-1.6 5.8-2.4 3-0.8 6.1-0.8h12q3.1 0 6.1 0.9 3 0.8 5.7 2.3 2.7 1.6 4.9 3.7 2.2 2.2 3.8 4.8c0 0.1 72.3 120.8 72.3 120.8zm-89.4-110.4q-0.2-0.4-0.5-0.8-0.4-0.4-0.9-0.7-0.4-0.2-0.9-0.4-0.5-0.1-1-0.1h-12.1q-0.5 0-1 0.1-0.6 0.2-1 0.4-0.5 0.3-0.8 0.6-0.4 0.4-0.7 0.9l-29.1 48.3h76.9z"/>
			<path id="Layer" class="s1" d="m434.8 129.5h140.2c2.6-0.1 5-1.2 6.8-3 1.8-1.9 2.9-4.4 2.9-7 0-2.6-1.1-5.1-2.9-7-1.8-1.9-4.2-3-6.8-3.1h-140.2c-5 0.1-9.9 1.1-14.5 3-4.6 2-8.8 4.8-12.3 8.3-3.5 3.6-6.3 7.8-8.3 12.4-1.9 4.6-2.9 9.5-2.9 14.5v84.3c0 2.6 1.1 5.2 2.9 7 1.9 1.9 4.4 3 7.1 3 2.6 0 5.1-1.1 7-3 1.9-1.8 2.9-4.4 2.9-7v-38.6q0-1.5 0.6-2.9 0.6-1.4 1.6-2.4 1.1-1.1 2.5-1.6 1.3-0.6 2.8-0.6h150.8c2.7 0 5.2-1.1 7.1-3 1.9-1.8 2.9-4.4 2.9-7.1 0-2.6-1-5.2-2.9-7.1-1.9-1.9-4.4-2.9-7.1-2.9h-150.8q-1.5 0-2.8-0.6-1.4-0.6-2.5-1.6-1-1.1-1.6-2.4-0.6-1.4-0.6-2.9v-10.6c0-2.4 0.5-4.7 1.4-6.9 0.9-2.2 2.3-4.2 3.9-5.9 1.7-1.6 3.7-3 5.9-3.9 2.2-0.9 4.5-1.4 6.9-1.4z"/>
			<path id="Layer" class="s1" d="m657.7 129.5h140.2c2.6-0.1 5-1.2 6.9-3 1.8-1.9 2.8-4.4 2.8-7 0-2.6-1-5.1-2.8-7-1.9-1.9-4.3-3-6.9-3.1h-140.2c-5 0.1-9.9 1.1-14.5 3-4.6 2-8.8 4.8-12.3 8.3-3.5 3.6-6.3 7.8-8.2 12.4-2 4.6-3 9.5-3 14.5v84.3c-0.1 2.7 0.9 5.4 2.8 7.3 1.9 2 4.5 3.1 7.2 3.1 2.7 0 5.3-1.1 7.2-3.1 1.9-1.9 2.9-4.6 2.7-7.3v-38.6q0.1-1.5 0.6-2.9 0.6-1.4 1.6-2.4 1.1-1.1 2.5-1.6 1.3-0.6 2.8-0.6h150.8c2.7 0 5.2-1.1 7.1-3 1.9-1.8 2.9-4.4 2.9-7.1 0-2.6-1-5.2-2.9-7.1-1.9-1.9-4.4-2.9-7.1-2.9h-150.8q-1.5 0-2.8-0.6-1.4-0.6-2.5-1.6-1-1.1-1.6-2.5-0.5-1.3-0.6-2.8v-10.6c0.1-2.4 0.5-4.7 1.4-6.9 0.9-2.2 2.3-4.2 3.9-5.9 1.7-1.6 3.7-3 5.9-3.9 2.2-0.9 4.5-1.4 6.9-1.4z"/>
			<path id="Layer" class="s1" d="m852.7 109.4c-1.3 0-2.6 0.3-3.9 0.8-1.2 0.5-2.3 1.2-3.2 2.2-1 0.9-1.7 2-2.2 3.2-0.5 1.2-0.8 2.5-0.8 3.9v112.3c0 2.7 1.1 5.2 3 7.1 1.9 1.9 4.4 3 7.1 3 2.6 0 5.2-1.1 7.1-3 1.9-1.9 2.9-4.4 2.9-7.1v-112.3c0-1.4-0.2-2.7-0.7-3.9-0.5-1.2-1.3-2.3-2.2-3.2-0.9-1-2.1-1.7-3.3-2.2-1.2-0.5-2.5-0.8-3.8-0.8z"/>
			<path id="Layer" class="s2" d="m101.2 197c-53 0-95.8-42.8-95.8-95.8 0-53 42.8-95.8 95.8-95.8 52.9 0 95.7 42.8 95.7 95.8 0 53-42.8 95.8-95.7 95.8z"/>
			<path id="Layer" class="s1" d="m171.1 170.2l9.1-15.3 26.8 15.9-9.1 15.3z"/>
			<path id="Layer" class="s1" d="m184 148.5l9-15.3 26.8 15.9-9 15.3z"/>
		</g>
		<g id="Layer_1">
			<path id="Layer" class="s3" d="m178.8 106.4c-0.8-0.5-1.6-1.1-2.4-1.6q-0.7-0.4-1.2-0.9-0.6-0.4-1.1-1-0.5-0.6-0.9-1.2-0.4-0.6-0.7-1.3-0.6-1.6-1.1-3.1-0.5-1.6-0.9-3.2-0.4-1.6-0.7-3.3-0.3-1.6-0.4-3.3c-0.7-6.8-1.1-13.7-2.4-20.4-1.1-5.9-3.5-11.3-10.6-12.8-2.4-0.4-5.1-1.6-6-4.4q-0.2-0.6-0.4-1.1-0.1-0.6-0.2-1.1-0.1-0.6-0.2-1.2-0.1-0.5-0.2-1.1 0-1.3-0.3-2.5-0.3-1.2-0.7-2.4-0.5-1.2-1.1-2.3-0.6-1.1-1.4-2c-3.3-4.1-6.9-7.4-12.6-6.8q-0.7 0.1-1.4 0.2-0.7 0.1-1.3 0.2-0.7 0.1-1.4 0.3-0.7 0.1-1.4 0.3-0.4 0.1-0.8 0.1-0.4 0-0.8-0.1-0.4-0.1-0.8-0.4-0.3-0.3-0.5-0.6-0.3-0.5-0.7-0.9-0.4-0.4-0.7-0.8-0.4-0.4-0.8-0.8-0.4-0.4-0.8-0.8-0.2-0.1-0.4-0.3-0.2-0.1-0.4-0.2-0.2-0.1-0.4-0.1-0.3-0.1-0.5-0.1c-2.3 0.7-4.6 1.3-5.9 3.6q-0.4 0.5-0.7 1-0.3 0.4-0.7 0.9-0.3 0.5-0.7 0.9-0.4 0.5-0.8 0.9c-0.7 0.9-1.6 1-2.3-0.2q0-0.2-0.2-0.4-0.1-0.2-0.3-0.3-0.1-0.1-0.3-0.2-0.2-0.1-0.4-0.2c-2.5-0.6-5.2-1.2-6.9 1.6 0 0.1-0.2 0.1-0.4 0.2q-1.3-0.8-2.8-1.2-1.5-0.4-3-0.3-1.6 0.2-3 0.8-1.4 0.6-2.5 1.7c-2.2 1.8-4.6 3.7-7.7 2.7q-0.9-0.2-1.9-0.3-1-0.2-2-0.2-0.9 0-1.9 0.1-1 0-1.9 0.2-0.8 0-1.6 0.2-0.8 0.1-1.6 0.2-0.7 0.2-1.5 0.4-0.8 0.2-1.5 0.4-1.1 0.3-2.1 0.7-1 0.4-2.1 0.7-1 0.4-2 0.9-1 0.4-2 0.8-0.5 0.3-1 0.5-0.5 0.3-1 0.6-0.4 0.4-0.9 0.7-0.4 0.4-0.7 0.8-0.7 0.9-1.3 1.7-0.7 0.9-1.2 1.8-0.6 0.9-1.1 1.8-0.5 1-1 1.9-0.4 1.4-1.2 2.7-0.9 1.2-1.9 2.3-1.1 1-2.4 1.7-1.3 0.8-2.7 1.2l-0.5 0.2q-1 0.4-1.9 0.9-1 0.6-1.8 1.4-0.8 0.7-1.4 1.6-0.7 0.8-1.2 1.8-0.3 0.7-0.6 1.4-0.4 0.8-0.7 1.5-0.4 0.6-0.8 1.3-0.4 0.7-0.8 1.4-0.7 1-1.1 2.2-0.5 1.1-0.6 2.4-0.1 1.2 0.1 2.5 0.2 1.2 0.7 2.3 0.2 0.5 0.3 1 0.2 0.5 0.4 0.9 0.2 0.5 0.3 1 0.2 0.5 0.4 0.9 0.4 0.7 0.6 1.5 0.1 0.7 0.1 1.5 0 0.8-0.1 1.5-0.2 0.8-0.6 1.5-0.1 0.2-0.2 0.5-0.1 0.2-0.1 0.5-0.1 0.3-0.2 0.5-0.1 0.3-0.2 0.6-0.4 1.7-0.9 3.3-0.5 1.7-1.2 3.4-0.6 1.6-1.4 3.2-0.7 1.6-1.6 3.1-0.2 0.4-0.4 0.9-0.2 0.4-0.4 0.8-0.2 0.5-0.3 0.9-0.1 0.5-0.3 0.9-0.1 0.6-0.1 1.1-0.1 0.6 0.1 1.2 0.1 0.5 0.4 1 0.2 0.5 0.6 0.9c1.5 1.6 3 3.5 4.3 5.3q0.2 0.2 0.3 0.4 0.2 0.2 0.3 0.5 0.2 0.2 0.3 0.4 0.1 0.2 0.2 0.5-0.6 1.4-1 2.9-0.3 1.6-0.4 3.1 0 1.6 0.3 3.2 0.3 1.5 0.9 3c2.5 6.5 8.7 10.4 14.4 9.4 2.6 4.4 4.9 8.9 7.4 13.4q0.2 0.4 0.4 0.7 0.2 0.4 0.5 0.7 0.3 0.3 0.6 0.6 0.3 0.3 0.6 0.6 0.9 0.4 1.9 0.9 0.9 0.4 1.8 0.8 1 0.3 1.9 0.7 1 0.3 2 0.6c3 0.9 3.3 0.8 3.7 3.9 0.1 0.9 0 1.9 0 2.9q0 0.4 0 0.9 0.1 0.5 0.2 1 0.1 0.4 0.2 0.9 0.1 0.4 0.3 0.9 0.7 1.2 1.6 2.2 1 1 2.2 1.7 1.2 0.7 2.5 1.1 1.4 0.3 2.7 0.3 0.5-0.1 1-0.1 0.4-0.1 0.8-0.3 0.5-0.1 0.9-0.3 0.4-0.2 0.8-0.5 0.5-0.3 0.9-0.7 0.5-0.4 1-0.7 0.4-0.4 0.9-0.8 0.4-0.4 0.9-0.8 0.5-0.6 1.2-0.9 0.7-0.3 1.4-0.3 0.8 0.1 1.5 0.5 0.6 0.4 1.1 1c0.7 0.8 1.3 1.7 2 2.3 0.8 0.9 1.7 1.5 2.7 2 1.1 0.5 2.2 0.7 3.3 0.8 1.2 0 2.3-0.2 3.4-0.6 1-0.4 2-1 2.8-1.7q0.7-0.6 1.2-1.1 0.6-0.6 1.1-1.2 0.5-0.6 0.9-1.3 0.5-0.7 0.9-1.4c2-4.3 5.7-5.3 9.8-5.1q1 0.1 2 0 1 0 1.9-0.3 1-0.2 1.9-0.7 0.9-0.4 1.8-0.9 1.3-1 2.5-2 1.3-1 2.5-2.1 1.2-1.1 2.4-2.2 1.1-1.1 2.3-2.3c4.5-4.9 8.7-10 13-15.1q0.7-0.9 1.6-1.5 0.9-0.6 2-0.9 1.1-0.2 2.2 0 1.1 0.2 2.1 0.8c2.7 1.3 5.4 1.7 7.7-0.6q0.4-0.4 0.6-0.8 0.3-0.4 0.6-0.8 0.3-0.5 0.5-0.9 0.2-0.5 0.4-1c2-4.2 4.3-8.1 9.1-9.7 4.9-1.5 6.7-3.8 6.8-8.8 0-3.1-0.4-6.3-3.4-8.3z"/>
			<g id="Layer" style="opacity: .2">
				<path id="Layer" class="s4" d="m178.8 106.4c-0.8-0.5-1.6-1.1-2.4-1.6q-0.7-0.4-1.2-0.9-0.6-0.4-1.1-1-0.5-0.6-0.9-1.2-0.4-0.6-0.7-1.3-0.6-1.6-1.1-3.1-0.5-1.6-0.9-3.2-0.4-1.6-0.7-3.3-0.3-1.6-0.4-3.3c-0.7-6.8-1.1-13.7-2.4-20.4-1.1-5.9-3.5-11.3-10.6-12.8-2.4-0.4-5.1-1.6-6-4.4q-0.2-0.6-0.4-1.1-0.1-0.6-0.2-1.1-0.1-0.6-0.2-1.2-0.1-0.5-0.2-1.1 0-1.3-0.3-2.5-0.3-1.2-0.7-2.4-0.5-1.2-1.1-2.3-0.6-1.1-1.4-2l-1-1.3c-0.9 13.1-7.5 25.9-20.1 32 5.7 22.8-16.3 49.3-39.3 48.5-12-0.4-17.9-6.1-24.1-12.8q-1 0.1-1.9 0.3-1 0.1-2 0.2-1 0.1-2 0.1-1 0.1-2 0.1-2.9 0.1-5.8-0.3-2.8-0.4-5.6-1.2-2.8-0.9-5.4-2.1-2.6-1.3-5-2.9-0.3 1-0.7 2-0.4 1-0.8 2-0.4 0.9-0.9 1.9-0.5 0.9-1.1 1.9-0.2 0.4-0.4 0.8-0.2 0.4-0.4 0.9-0.1 0.4-0.3 0.9-0.1 0.4-0.2 0.9-0.2 0.5-0.3 1 0 0.6 0.1 1.1 0.1 0.6 0.4 1.1 0.3 0.5 0.6 0.9c1.5 1.6 3 3.5 4.3 5.3q0.2 0.2 0.3 0.4 0.2 0.2 0.3 0.5 0.2 0.2 0.3 0.4 0.1 0.2 0.2 0.5-0.6 1.4-1 2.9-0.3 1.6-0.4 3.1 0 1.6 0.3 3.2 0.3 1.5 0.9 3c2.5 6.5 8.7 10.4 14.4 9.4 2.6 4.4 4.9 8.9 7.4 13.4q0.2 0.4 0.4 0.7 0.2 0.4 0.5 0.7 0.3 0.3 0.6 0.6 0.3 0.3 0.6 0.6 0.9 0.4 1.9 0.9 0.9 0.4 1.8 0.8 1 0.3 1.9 0.7 1 0.3 2 0.6c3 0.9 3.3 0.8 3.7 3.9 0.1 0.9 0 1.9 0 2.9q0 0.4 0 0.9 0.1 0.5 0.2 1 0.1 0.4 0.2 0.9 0.1 0.4 0.3 0.9 0.7 1.2 1.6 2.2 1 1 2.2 1.7 1.2 0.7 2.5 1.1 1.4 0.3 2.7 0.3 0.5-0.1 1-0.1 0.4-0.1 0.8-0.3 0.5-0.1 0.9-0.3 0.4-0.2 0.8-0.5 0.5-0.3 0.9-0.7 0.5-0.4 1-0.7 0.4-0.4 0.9-0.8 0.4-0.4 0.9-0.8 0.5-0.6 1.2-0.9 0.7-0.3 1.4-0.3 0.8 0.1 1.5 0.5 0.6 0.4 1.1 1c0.7 0.8 1.3 1.7 2 2.3 0.8 0.9 1.7 1.5 2.7 2 1.1 0.5 2.2 0.7 3.3 0.8 1.2 0 2.3-0.2 3.4-0.6 1-0.4 2-1 2.8-1.7q0.7-0.6 1.2-1.1 0.6-0.6 1.1-1.2 0.5-0.6 0.9-1.3 0.5-0.7 0.9-1.4c2-4.3 5.7-5.3 9.8-5.1q1 0.1 2 0 1 0 1.9-0.3 1-0.2 1.9-0.7 0.9-0.4 1.8-0.9 1.3-1 2.5-2 1.3-1 2.5-2.1 1.2-1.1 2.4-2.2 1.1-1.1 2.3-2.3c4.5-4.9 8.7-10 13-15.1q0.7-0.9 1.6-1.5 0.9-0.6 2-0.9 1.1-0.2 2.2 0 1.1 0.2 2.1 0.8c2.7 1.3 5.4 1.7 7.7-0.6q0.4-0.4 0.6-0.8 0.3-0.4 0.6-0.8 0.3-0.5 0.5-0.9 0.2-0.5 0.4-1c2-4.2 4.3-8.1 9.1-9.7 4.9-1.5 6.7-3.8 6.8-8.8 0-3.1-0.4-6.3-3.4-8.3z"/>
			</g>
			<g id="Layer" style="opacity: .7">
				<path id="Layer" class="s5" d="m44.5 132.5c-3.7 0-6.6-3-6.6-6.6 0-3.7 2.9-6.7 6.6-6.7 3.7 0 6.7 3 6.7 6.7 0 3.6-3 6.6-6.7 6.6z"/>
				<path id="Layer" class="s5" d="m136 81.8c-2.2 0-4-1.8-4-4.1 0-2.2 1.8-4 4-4 2.3 0 4.1 1.8 4.1 4 0 2.3-1.8 4.1-4.1 4.1z"/>
				<path id="Layer" class="s5" d="m145.2 107.9c-5.1 0-9.2-4.2-9.2-9.3 0-5.1 4.1-9.2 9.2-9.2 5.1 0 9.3 4.1 9.3 9.2 0 5.1-4.2 9.3-9.3 9.3z"/>
				<path id="Layer" class="s6" d="m157.4 68.7c-1.5 0-2.8-1.2-2.8-2.7 0-1.5 1.3-2.7 2.8-2.7 1.5 0 2.7 1.2 2.7 2.7 0 1.5-1.2 2.7-2.7 2.7z"/>
			</g>
			<path id="Layer" class="s7" d="m98.7 48.5c-11.9 0-24.7 7-32.5 19-5.9 9.1-7.8 19.5-5.3 28.5q0.6 2.4 1.7 4.7 1.1 2.2 2.6 4.2 1.6 1.9 3.5 3.5 1.9 1.6 4.1 2.8c14.2 7.7 34.5 0.5 45.1-15.9 5.9-9.1 7.9-19.5 5.4-28.6q-0.6-2.4-1.7-4.6-1.1-2.2-2.7-4.2-1.5-1.9-3.4-3.5-1.9-1.6-4.1-2.8-1.5-0.8-3-1.4-1.5-0.6-3.2-1-1.6-0.3-3.2-0.5-1.6-0.2-3.3-0.2z"/>
			<path id="Layer" fill-rule="evenodd" class="s8" d="m102 48.7q1.6 0.2 3.2 0.5 1.7 0.4 3.2 1 1.5 0.6 3 1.4 2.2 1.2 4.1 2.8 1.9 1.6 3.4 3.5 1.6 2 2.7 4.2 1.1 2.2 1.7 4.6c2.5 9.1 0.5 19.5-5.4 28.6-10.6 16.4-30.9 23.6-45.1 15.9q-2.2-1.2-4.1-2.8-1.9-1.6-3.5-3.5-1.5-2-2.6-4.2-1.1-2.3-1.7-4.7c-2.5-9-0.6-19.4 5.3-28.5 7.8-12 20.6-19 32.5-19q1.7 0 3.3 0.2zm23.6 17.3q-0.7-2.6-1.9-5-1.2-2.4-2.9-4.5-1.7-2.1-3.7-3.8-2.1-1.8-4.4-3c-15.3-8.3-37-0.7-48.4 16.8-6.3 9.7-8.4 20.8-5.7 30.4q0.7 2.6 1.9 5 1.2 2.4 2.9 4.5 1.6 2.1 3.7 3.9 2 1.7 4.4 3 1.6 0.8 3.2 1.4 1.7 0.6 3.4 1.1 1.8 0.4 3.6 0.6 1.7 0.2 3.5 0.1c12.8 0 26.5-7.4 34.7-20.2 6.3-9.6 8.3-20.7 5.7-30.3z"/>
		</g>
	</g>
</svg>