<svg version="1.2" xmlns="http://www.w3.org/2000/svg" viewBox="0 0 1598 503" width="1598" height="503">
	<title>original-2897f5e2-fba4-45d0-8ff0-fa7dd830e829-svg</title>
	<style>
		.s0 { fill: #ffffff } 
	</style>
	<g id="#000000ff">
		<path id="Layer" fill-rule="evenodd" class="s0" d="m133.8 0.2q91.3 0 182.5 0c0.5 34.1 0.5 68.2 0.9 102.3 0.2 36.3 0.7 72.7 0.9 109 0.5 60.8 1 121.5 1.5 182.2-43 0.1-86 0-129 0 1.8-23.5 3.7-47 5.6-70.5q-22.8 0-45.6 0c-6.5 23.5-12.9 47.1-19.4 70.5q-65.4 0-130.9 0c44.5-131.1 89-262.3 133.5-393.5zm50.6 179.6c-7.8 24.3-15.4 48.7-22.2 73.3q21.4 0 42.8 0c2.2-55 5.9-109.8 9.8-164.7-10.2 30.5-20.6 60.9-30.4 91.4zm225.9-179.5c34.2-0.1 68.4 0 102.6-0.1 13.4 0.3 26.9 0.3 40.3 0.7 20.8 0.7 41.6 1.4 62.3 4.1 14.3 2 28.7 5.6 41.6 12.5 13.2 7 23.6 19.2 28.1 33.4 3 9 2.6 18.6 1.9 27.9-2.2 26.6-7.3 53-11.9 79.3q-7.6 43.6-15.3 87.1c-4.4 24.8-8.2 49.7-14.4 74.1-2.4 9.4-5 18.7-9.2 27.5-5.4 10.7-13.5 20.1-23.6 26.8-17.1 11.2-37.6 16.1-57.7 18-15.8 1.6-31.6 1.9-47.4 2.1-55.5 0-111 0.1-166.4 0q34.5-196.7 69.1-393.4zm69.5 325.8c3.9-0.2 7.9-0.1 11.8-0.6 6.9-0.7 14-1.9 19.9-5.8 5.3-3.7 7.4-10.3 9.5-16.1 3.1-9.5 5.2-19.3 7.1-29.2 9.4-53.1 18.6-106.3 28-159.4 1.5-8.7 2.9-17.3 3.6-26.1 0.2-3.9 0.5-8.1-1.4-11.6-2.1-4.2-6.6-6.6-11.1-7.5-7.2-1.6-14.7-1.8-22-1.8-15.3 86-30.3 172.1-45.4 258.1zm240.8-325.9q66.8 0 133.5 0c-0.9 30.8-2.4 61.5-3.7 92.3-3 60.7-6.4 121.3-11.5 181.9 14-52.6 28.3-105.1 43.4-157.5 11.3-38.9 22.7-77.8 34-116.7 44.5 0.1 89 0 133.5 0.1-31 91.7-62.3 183.4-93.3 275.2-13.5 39.4-26.8 78.8-40.2 118.2-63.9 0-127.9 0.1-191.8 0 0-16.1-0.3-32.2-0.5-48.3-0.1-31.4-0.7-62.8-0.8-94.2-0.5-28.6-0.5-57.3-1-85.9-0.1-31.8-0.7-63.6-0.8-95.4-0.4-23.2-0.4-46.4-0.8-69.7zm350.5 0q106.8 0 213.6 0c-4.5 26.5-9.2 52.9-13.9 79.4q-43.4 0-86.9 0c-4.4 24.8-8.7 49.6-13.1 74.4q38.5 0 77.1 0c-4.4 25-8.8 50.1-13.2 75.1-25.7-0.1-51.4 0-77.1-0.1q-14.5 82.4-28.9 164.7-63.4 0.1-126.7 0 34.5-196.7 69.1-393.5zm244.4 0q52.8 0 105.6 0c13.3 58.9 26.4 117.8 39.8 176.7 6.1-35.8 12.6-71.5 18.8-107.3 4.1-23.1 8.1-46.3 12.2-69.4 35.2 0.1 70.5 0 105.7 0.1-23 131.1-46.1 262.3-69.1 393.5-37.1-0.1-74.2 0-111.3-0.1-6.3-33.3-12.7-66.6-19-99.9-5-26.1-9.8-52.2-14.9-78.2-10.3 59.4-20.8 118.8-31.3 178.1q-52.8 0-105.7 0.1c23-131.2 46-262.4 69.2-393.6z"/>
		<path id="Layer" fill-rule="evenodd" class="s0" d="m438.5 412.6c6-2.1 12.6-1.7 18.6 0.1-0.5 4-0.7 8.1-1.1 12.1-3.6-1.1-7.7-1.9-11.2-0.1-2.6 1.2-4.1 3.9-4.8 6.5-0.9 2.9-0.6 6-0.6 9q6.5 0 13.1 0 0 5.9 0 11.7-6.6 0-13.1 0 0 24.7 0 49.3-7.8 0-15.5 0 0-24.6 0-49.3-4.2 0-8.3 0 0-5.8 0-11.7 4.1 0 8.3 0c-0.3-6.6 0.6-13.5 4.1-19.2 2.4-3.9 6.2-6.8 10.5-8.4zm92.6-0.1q7.7-0.1 15.5 0 0 18 0 36.1c5.9-8.9 18.6-12.3 28.1-7.5 5.8 2.8 9.4 8.7 10.7 14.8 1.3 4.7 0.9 9.7 1 14.5q0 15.4 0 30.8-7.7 0-15.4 0 0-14.8 0-29.6c0-5.5 0.2-11.7-3.3-16.3-4.2-5.2-12.8-4.7-17.3-0.1-2.4 2.4-3.9 5.8-3.8 9.3 0 12.2 0 24.5 0 36.7q-7.8 0-15.5 0 0-44.4 0-88.7zm280.7 2.6c2.6-0.5 5.5-0.1 7.7 1.6 3.5 2.8 4 8.6 1.2 12-3.7 4.5-12.1 4-14.7-1.5-2.5-4.7 0.3-11.3 5.8-12.1zm-118.2 3c7.6-1.3 15.4-1.7 23.1-1.6 7.1-0.2 14.5 0.7 20.9 4 5 2.5 9 6.9 10.9 12.2 1.8 4.8 1.9 10.2 1.1 15.3-1.1 6.3-4.7 12.2-10 15.8-8.9 6.1-20.3 7-30.7 5.7 0 10.6 0 21.2 0 31.7q-7.7 0-15.3 0 0-41.5 0-83.1zm15.3 11.1q0 14 0 28c6.5 1.2 14 1.2 19.8-2.6 5.8-3.8 7.3-12 4.8-18.2-1.7-4-5.8-6.5-9.9-7.3-4.9-1-9.9-0.7-14.7 0.1zm-707.1-12.1q7.7 0 15.4 0 0 16.9 0 33.8 17.7 0 35.5 0 0-16.9 0-33.8 7.7 0 15.4 0 0 42.1 0 84.1-7.7 0-15.4 0 0-18.5 0-37-17.8 0-35.5 0 0 18.5 0 37-7.7 0-15.4 0 0-42 0-84.1zm1095.1 0q7.7 0 15.4 0 0 42.1 0 84.1-7.7 0-15.4 0 0-42 0-84.1zm-607.1 11.7c5.1-1.3 10.1-2.8 15.2-4.2q0 7.8 0 15.6c4.9 0 9.7 0 14.6 0 0 3.9 0 7.8 0 11.7q-7.3 0-14.6 0c0 9.4-0.1 18.7 0.1 28 0 3.5 0.7 7.9 4.4 9.4 3 0.9 6.3 0.5 9.3 0 0.3 3.9 0.1 7.8 0.4 11.7-4.8 1.6-10.1 1.9-15.2 1.4-4.9-0.7-9.7-3.6-11.8-8.3-3-6-2.3-13-2.4-19.5q0-11.3 0-22.7-4.4 0-8.7 0-0.1-5.8-0.1-11.7 4.4 0 8.8 0 0-5.7 0-11.4zm475.6 0c5.1-1.4 10.1-2.8 15.2-4.2 0 5.2 0 10.4 0 15.6 4.9 0 9.7 0 14.6 0q0 5.9 0 11.7c-4.9 0.1-9.7 0-14.6 0 0 9.4-0.1 18.7 0.1 28 0 3.5 0.7 7.9 4.4 9.4 3 0.9 6.3 0.5 9.3 0 0.3 3.9 0.1 7.8 0.4 11.7-4.8 1.6-10.1 1.9-15.2 1.3-4.9-0.6-9.7-3.5-11.8-8.1-3-6.1-2.3-13.1-2.4-19.6q0-11.4 0-22.7-4.4 0-8.7 0-0.1-5.8 0-11.7 4.3 0 8.7 0 0-5.7 0-11.4zm414.6 0c5.1-1.4 10.2-2.8 15.2-4.2-0.1 5.2 0 10.4 0 15.6 4.9 0 9.7 0 14.6 0q0 5.9 0 11.7-7.3 0-14.6 0c0 9.3-0.1 18.7 0.1 27.9 0 3.5 0.7 8 4.4 9.5 3 0.9 6.3 0.5 9.3 0 0.2 3.8 0.2 7.7 0.4 11.5-1.5 1.1-3.5 1.1-5.3 1.4-5.8 0.8-12.4 0.8-17.4-2.9-5-3.5-6.5-10-6.7-15.8 0-10.5 0-21 0-31.6q-4.4 0-8.7 0-0.1-5.8 0-11.7 4.3 0 8.7 0 0-5.7 0-11.4zm-1273.7 10.6c8.3-1.2 17.3-0.3 24.3 4.6 7 4.7 11.2 12.8 12.2 21 1.1 9-0.4 18.8-6 26.2-5.8 7.6-15.4 11.6-24.8 11.4-8.8 0.2-17.8-3.2-23.5-10-5.1-5.9-7.3-13.9-7.1-21.6-0.1-8.2 2.5-16.8 8.2-22.9 4.4-4.7 10.4-7.6 16.7-8.7zm4 11c-3.8 0.5-7.2 2.9-9.2 6.1-2.9 4.6-3.8 10.2-3.7 15.6 0.2 5.7 1.9 11.7 6.1 15.7 3.5 3.5 9.1 4.5 13.6 2.6 3.5-1.4 6-4.4 7.6-7.8 2.3-5.1 2.8-10.9 2.1-16.4-0.7-4.6-2.3-9.3-5.7-12.6-2.8-2.7-6.9-3.9-10.8-3.2zm71.5-10.7c5.4-1.3 11.6-1.1 16.4 2 3.2 1.9 5.5 5 7 8.4 3.4-5.4 8.9-9.6 15.2-10.8 4.8-0.7 10-0.5 14.3 2 5 2.8 8.2 8.1 9.6 13.6 1.5 5.4 1 11.1 1.1 16.7q0 14.8 0 29.6-7.5 0-15 0c0-10.8 0-21.7 0-32.6-0.2-4.7-0.4-9.8-3.4-13.7-2.7-3.4-7.8-4.1-11.6-2.4-4.5 2-7.4 6.9-7.3 11.8-0.1 12.3 0 24.6 0 36.9q-7.5 0-15 0 0-16.9 0-33.8c-0.1-4.1-0.4-8.5-2.8-12-1.8-2.5-4.9-4-7.9-3.8-4.4 0-8.2 3.1-10.1 6.9-1.4 2.5-1.5 5.5-1.5 8.3q0 17.2 0 34.4-7.5 0-15 0c-0.1-20.3 0.3-40.6-0.6-60.9q6.6 0 13.3 0c0.2 3 0.5 6 0.7 9.1 2.9-4.6 7.3-8.4 12.6-9.7zm84.6 7.4c5.3-5.5 13.2-8.5 20.8-8.1 7.5-0.3 15.1 2.8 19.7 8.8 5.9 7.7 7.2 18 5.9 27.4-13.6 0-27.1-0.1-40.7 0 0.1 5.2 2.8 10.4 7.5 12.9 5 2.9 11 2.8 16.5 2.4 4-0.4 7.8-1.3 11.6-2.5 0.7 3.5 1.5 7.1 2.2 10.7-7 2.8-14.6 3.9-22.1 3.7-8.2 0.1-16.9-2.5-22.7-8.7-5.5-5.6-7.9-13.7-7.8-21.5-0.2-9.1 2.7-18.5 9.1-25.1zm11.4 5.6c-3.4 2.9-5.2 7.4-5.7 11.8 8.9 0 17.7 0 26.6 0-0.2-4.5-1.4-9.4-5-12.4-4.5-3.6-11.6-3.3-15.9 0.6zm95.1-13.3c8.2-1.2 17.2-0.2 24.2 4.6 7 4.7 11.3 12.8 12.2 21 1.1 8.9-0.3 18.5-5.8 25.8-5.6 7.7-15.1 11.8-24.4 11.8-7.4 0.2-15.1-1.9-20.8-6.8-6.9-5.7-10.4-14.8-10.4-23.6-0.3-8 1.8-16.3 6.9-22.5 4.4-5.6 11.1-9.1 18.1-10.3zm4 11c-4.2 0.5-7.8 3.3-9.8 6.9-2.8 5.1-3.5 11-3 16.6 0.4 5.2 2.3 10.6 6.2 14.2 3.6 3.3 9.3 4.2 13.7 2.1 3.5-1.5 5.9-4.6 7.4-8 2.2-5.2 2.6-11 1.9-16.5-0.8-4.4-2.4-8.9-5.7-12.1-2.8-2.7-6.9-3.8-10.7-3.2zm230.9-2.9c4.5-4.8 10.6-7.7 17.1-8.4 4.9-0.3 10.1-0.2 14.7 1.8 5.3 2.2 9.5 6.6 12 11.7 3.3 7 4 15 2.9 22.6-13.5 0-27.1-0.1-40.6 0 0.1 3.8 1.4 7.6 4.1 10.3 3.9 4 9.7 5.3 15.1 5.2 5.6 0.1 11.1-1 16.3-2.7 0.7 3.5 1.6 7.1 2.2 10.7-6.9 2.8-14.5 3.9-22 3.7-8.7 0.1-17.8-2.8-23.6-9.6-4.9-5.6-7-13.2-7-20.6-0.1-8.9 2.7-18.1 8.8-24.7zm11.7 5.2c-3.4 2.9-5.1 7.4-5.6 11.8 8.8 0 17.7 0 26.5 0-0.2-4.5-1.3-9.4-5-12.4-4.5-3.6-11.6-3.3-15.9 0.6zm167.3-12.9c2.8-1.1 6-0.8 9-0.6 0 4.8 0 9.7 0 14.6-4.1-0.5-8.6-0.7-12.2 1.7-4.5 2.8-6.6 8.1-6.6 13.2-0.1 10.8 0 21.7 0 32.5q-7.8 0-15.5 0c-0.2-20.3 0.5-40.6-0.6-60.9q6.8 0 13.5 0c0.2 3.9 0.3 7.8 0.7 11.6 1.9-5.4 6.1-10.3 11.7-12.1zm113.4 4.5c5.2-3 11.2-4.5 17.2-5.1 6.7-0.5 13.9-0.4 19.8 3.2 4.7 2.7 7.8 7.6 9.1 12.8 1.7 5.9 1 12.1 1.1 18.2 0.1 9.3-0.4 18.6 1 27.8-4.6 0-9.3 0-14 0-0.4-2.2-0.8-4.5-1-6.8-6.1 7.6-17.2 10.1-26.2 6.9-5.4-2.1-9.6-6.9-10.8-12.6-1.1-5.2-0.4-10.9 2.6-15.4 2.8-4.3 7.3-7.1 11.9-8.8 6.8-2.4 14-3.1 21.1-3 0-2.7-0.4-5.5-2.2-7.7-2.1-2.6-5.6-3.7-8.8-3.8-6.2-0.3-12.4 1.4-17.7 4.5-1.1-3.4-2-6.8-3.1-10.2zm15 30.9c-5.1 3.3-5.3 12.2 0.1 15.2 6.7 3.3 15.7-1.3 17-8.7 0.2-3.4 0-6.8 0.1-10.2-5.9 0.2-12.2 0.3-17.2 3.7zm96.6-28.3c5.2-5.3 12.6-8.1 19.9-7.9 5.5-0.2 11 1.1 15.5 4.2 4.1 2.9 7 7.2 8.8 11.9 2.4 6.3 2.8 13.3 1.9 20.1-13.6 0-27.1-0.1-40.7 0 0.1 4.2 1.8 8.5 5.1 11.2 3.9 3.3 9.2 4.4 14.2 4.3 5.5 0.1 11-1 16.2-2.7 0.8 3.5 1.6 7.1 2.3 10.7-7 2.8-14.6 3.9-22.1 3.7-8.6 0.1-17.7-2.8-23.5-9.6-5-5.6-7.1-13.2-7-20.6-0.2-9.2 2.8-18.7 9.4-25.3zm10.8 6c-3.2 3-4.9 7.3-5.4 11.6 8.9 0 17.7 0 26.6 0-0.2-4.5-1.4-9.4-5-12.4-4.7-3.7-12-3.2-16.2 0.8zm121.1-3.4c6.1-10.2 20.8-13.6 31-7.6 7.2 4.1 10.3 12.8 10.5 20.8q0 19.3 0 38.5-7.7 0-15.4 0 0-12.1 0-24.3c-0.1-5 0.3-10-0.5-14.9-0.6-3.1-1.8-6.2-4.3-8.2-2.5-2.1-6.1-2.5-9.3-2-6 1.3-10.3 7.2-10.3 13.3 0 12 0 24.1 0 36.1q-7.8 0-15.5 0c-0.2-20.3 0.4-40.6-0.5-60.9q6.7 0 13.6 0c0.1 3.1 0.5 6.1 0.7 9.2zm128.3-6.5c6.1-3.9 13.5-4.6 20.5-3.7 5.2 0.8 10.2 3.3 13.7 7.2 6.8 7.7 8.4 18.8 7 28.7-13.6 0-27.1-0.1-40.7 0 0.1 3.8 1.4 7.6 4.2 10.4 3.8 3.9 9.7 5.2 15.1 5.1 5.5 0.1 11-1 16.2-2.7 0.7 3.5 1.6 7.1 2.3 10.7-8.6 3.4-18.2 4.3-27.4 3.4-7-0.9-13.9-4.1-18.5-9.6-6.1-7.1-7.6-17.1-6.4-26.2 1.1-9.2 5.9-18.4 14-23.3zm6.1 9.7c-3.3 3-5.1 7.4-5.6 11.8 8.8 0 17.7 0 26.5 0-0.1-4.8-1.5-10.1-5.6-12.9-4.6-3.1-11.2-2.6-15.3 1.1zm51.9-8.6c6.1-5.1 14.6-5.7 22.2-4.8 3.6 0.5 7.2 1.6 10.5 3.2-1 3.7-2.1 7.3-3.1 11-3.9-2.1-8.3-3.5-12.7-3.5-2.4-0.1-4.8 0.4-6.7 1.9-2.4 2-2.7 6.2-0.3 8.3 2.2 2 5.1 3 7.8 4.1 4.2 1.5 8.6 3.3 12 6.3 7.2 6.5 7.1 19.2 0 25.7-3.8 3.5-8.9 5.2-13.9 5.9-8.2 0.8-16.8 0-24.1-4 1-3.8 2.1-7.6 3.2-11.4 4.2 2.3 8.8 4 13.6 4.4 3.2 0.2 6.8 0.1 9.4-1.9 2.1-1.7 2.6-4.9 1.6-7.4-0.7-1.7-2.3-2.8-3.9-3.7-3.8-2.1-8.2-3-12-5.2-3.8-2.1-7.4-5.1-9.1-9.3-2.8-6.8-0.3-15.2 5.5-19.6zm111.9-4.7c8.3-1.2 17.3-0.3 24.3 4.6 7 4.7 11.3 12.8 12.2 21.1 0.9 8-0.1 16.5-4.3 23.6-4.2 7-11.6 11.7-19.5 13.2-8.9 1.8-18.8 0.4-26.2-5.3-6.2-4.6-10-12-11-19.7-1.3-9 0.2-18.8 5.7-26.2 4.4-6.1 11.4-10 18.8-11.3zm4.1 11c-4.8 0.6-8.7 4.1-10.6 8.4-2.3 5.1-2.8 10.9-2.1 16.4 0.6 4.8 2.5 9.6 6.1 12.9 3.6 3.3 9.3 4.2 13.7 2.1 3.4-1.5 5.9-4.6 7.4-8 2.2-5.2 2.6-11 1.8-16.5-0.7-4.4-2.3-8.9-5.6-12.1-2.8-2.7-6.9-3.8-10.7-3.2zm67.9-9.5c3.5-2 7.6-2.1 11.6-1.7 0 4.9 0 9.7 0 14.6-4.1-0.5-8.6-0.7-12.2 1.7-4.5 2.8-6.6 8.1-6.6 13.2-0.1 10.8 0 21.7 0 32.5q-7.8 0-15.5 0c-0.2-20.3 0.5-40.6-0.6-60.9q6.8 0 13.5 0c0.2 3.9 0.3 7.8 0.7 11.6 1.6-4.6 4.8-8.7 9.1-11zm-708-0.6q7.8 0 15.5 0 0 30.5 0 60.9-7.7 0-15.5 0 0-30.4 0-60.9zm25.1 0q8.4 0 16.8 0 5.4 16.9 10.8 33.8c1.3 4.1 2.3 8.3 3.3 12.5 3.7-15.7 9.2-30.9 13.9-46.3q8.1 0 16.3 0c-7.7 20.3-15.4 40.6-23.2 60.9-5.1 0-10.2 0-15.3 0-7.5-20.3-15.1-40.6-22.6-60.9zm361.3 0c5.6 0 11.2 0 16.8 0q4.7 14.7 9.4 29.4c1.8 5.5 3.3 11.2 4.7 16.9 3.7-15.7 9.2-30.9 13.9-46.3q8.1 0 16.3 0c-7.7 20.3-15.4 40.6-23.2 60.9-5.1 0-10.2 0-15.3 0q-11.3-30.4-22.6-60.9z"/>
	</g>
</svg>