<svg version="1.2" xmlns="http://www.w3.org/2000/svg" viewBox="0 0 1523 237" width="1523" height="237">
	<title>logotype-color-svg</title>
	<style>
		.s0 { fill: #ffffff } 
	</style>
	<g id="Layer">
		<g id="Layer">
			<path id="Layer" class="s0" d="m584.3 13.3h121.9v34.8h-52.1v139h-34.5v-139h-52.3z"/>
			<path id="Layer" fill-rule="evenodd" class="s0" d="m832.4 90.3c3.1 7.2 4.6 14.6 4.6 22.7v74.2h-33.3v-74.2h0.4c0-3.4-0.6-6.7-1.9-9.7-1.4-3-3.1-5.7-5.4-7.9-2.2-2.2-4.9-4-7.9-5.4-2.9-1.3-6.1-1.9-9.5-1.9-3.4 0-6.7 0.6-9.8 1.9q-4.7 2-8 5.4c-2.3 2.2-4.1 4.9-5.4 7.9-1.3 3.1-1.9 6.3-1.9 9.7v74.2h-33.1v-181.5h33.1v57.4c3.8-3 8-5.1 12.2-6.5 4.1-1.3 8.4-1.9 12.8-1.9 7.9 0 15.4 1.6 22.4 4.6 7 3.2 13.1 7.2 18.3 12.5 5.3 5.4 9.4 11.5 12.4 18.5zm148.2 2.6c3.5 8.5 5.2 17.8 5.2 28.1 0 9.7-1.7 18.8-5.2 27.2-3.4 8.3-8.2 15.6-14.1 21.7-6 6.1-13 10.9-21 14.5-8 3.4-16.7 5.2-25.9 5.2-9.1 0-17.7-1.6-25.7-5.2-8.1-3.6-15.1-8.4-21.2-14.5-6.1-6.1-10.8-13.4-14.3-21.7-3.4-8.4-5.2-17.5-5.2-27.2 0-9.8 1.7-19 5.2-27.4 3.6-8.3 8.4-15.6 14.3-21.8 6.1-6.1 13.1-10.8 21.2-14.3 8-3.4 16.6-5.2 25.7-5.2q13.8 0 25.9 4.9c8 3.3 15 8.1 21 14 5.9 6 10.6 13.3 14.1 21.7zm-28.2 28.3c0-5.4-0.8-10.2-2.6-14.5q-2.7-6.5-7.1-11.2c-3-3.1-6.4-5.5-10.4-7.1-4.1-1.6-8.2-2.5-12.8-2.5-4.7 0-8.8 0.9-12.8 2.5-4.1 1.6-7.5 4-10.5 7.1-2.9 3.2-5.3 6.9-7 11.2-1.6 4.3-2.5 9.1-2.5 14.5 0 5.1 0.9 9.7 2.5 14 1.8 4.3 4.1 8 7 11.2 3 3.1 6.4 5.6 10.5 7.4 4 1.8 8.1 2.7 12.8 2.7 4.6 0 8.7-0.9 12.8-2.5 3.8-1.7 7.4-4 10.4-7.2q4.4-4.7 7.1-11.2c1.8-4.4 2.7-9.2 2.6-14.4zm133 8v-71.8h33v130.1h-8l-10.9-15.2c-2.6 2.4-5.5 4.8-8.4 6.9-3 2.1-6.3 3.8-9.6 5.5-3.2 1.5-6.7 2.8-10.2 3.7q-5.4 1.3-10.8 1.3c-7.8 0-15.4-1.3-22.4-4.1-7-2.9-13.1-6.9-18.5-12.1-5.3-5.2-9.5-11.6-12.5-19.1-3.1-7.4-4.6-15.9-4.6-25.2v-71.8h32.9v71.8c0 4.5 0.6 8.4 1.9 11.8 1.4 3.4 3.2 6.3 5.4 8.7 2.2 2.3 4.9 4.1 7.9 5.3q4.7 1.8 9.8 1.8c3.4 0 6.7-0.7 9.7-2.4 3-1.6 5.6-3.7 7.9-6.2 2.2-2.6 4-5.6 5.3-8.8 1.4-3.3 2-6.7 2-10.2zm175.6-72h8v113.3c0 9.3-1.8 17.8-5.2 25.8q-5.4 12.1-14.3 21c-6.1 6-13.1 10.8-21.1 14.2-8.1 3.4-16.7 5.2-25.8 5.2l-16.5-0.3v-33.1l16.4 0.3c5.2 0 9.5-0.6 13.2-1.9 3.7-1.4 6.7-3.3 9.3-5.5 2.5-2.3 4.4-5 5.9-7.9q2.2-4.5 3.6-9.4c-1.2 2.2-3.1 3.8-5.5 5.2-2.4 1.3-5.1 2.4-8.1 3.3-2.9 0.9-6.1 1.5-9.2 1.8q-4.9 0.4-8.9 0.4c-9.1 0-17.7-1.6-25.8-4.8-8-3.1-15.1-7.7-21.1-13.5q-9.2-8.8-14.3-21.5c-3.4-8.5-5.2-18-5.2-28.8 0-9.8 1.8-18.9 5.2-27.2 3.6-8.4 8.3-15.7 14.3-21.8 6.1-6.1 13.1-11 21.1-14.5 8.1-3.4 16.7-5.2 25.8-5.2 4.1 0 8.3 0.6 12.5 1.7 4.1 1 8.2 2.5 12 4.3 3.9 1.9 7.5 4 11.1 6.5 3.4 2.6 6.6 5.3 9.8 8.2zm-25.3 64.1c0-4.4-0.8-8.9-2.6-13.1-1.7-4.3-4.1-8-7.1-11.3-3-3.3-6.4-6-10.4-7.9-4-2-8.2-3-12.8-3-4.6 0-8.8 0.8-12.8 2.2-4 1.7-7.5 3.9-10.4 6.9-3 3-5.4 6.6-7 11-1.7 4.4-2.6 9.4-2.6 15.1 0 5.3 0.9 10.3 2.6 14.6 1.8 4.3 4 7.9 7 11 2.9 3.2 6.4 5.5 10.4 7.2 4 1.6 8.2 2.5 12.8 2.5 4.6 0 8.9-1 12.8-3 3.8-1.9 7.4-4.6 10.4-7.9 3-3.3 5.4-7.1 7.1-11.3 1.7-4.2 2.6-8.5 2.6-13zm169.9-31c3.2 7.2 4.6 14.6 4.6 22.7v74.2h-33.3v-74.2h0.3c0-3.4-0.6-6.7-1.9-9.7-1.4-3-3.2-5.7-5.4-7.9-2.2-2.2-4.9-4-7.9-5.4-2.9-1.3-6.1-1.9-9.5-1.9-3.4 0-6.7 0.6-9.8 1.9q-4.7 2-8.1 5.4c-2.2 2.2-4 4.9-5.3 7.9-1.4 3.1-2 6.3-2 9.7v74.2h-33v-181.5h33v57.4c3.9-3 8.1-5.1 12.3-6.5 4.1-1.3 8.4-1.9 12.8-1.9 7.8 0 15.4 1.6 22.4 4.6 7 3.2 13.1 7.2 18.3 12.5 5.2 5.4 9.4 11.5 12.5 18.5zm67.2 0.3v38.6c0 3.6 0.6 6.9 1.9 9.9 1.3 3 3.1 5.6 5.3 7.9q3.4 3.3 8.1 5.3c3.1 1.4 6.4 2 9.8 2h25v32.9h-25c-7.9 0-15.5-1.5-22.5-4.6-7-3.1-13.1-7.2-18.4-12.5-5.4-5.2-9.4-11.5-12.5-18.5-3.1-7-4.6-14.5-4.6-22.5v-38.6h-16.1v-33h16.1v-51.8h32.9v52h50.1v32.9z"/>
		</g>
		<g id="Layer">
			<path id="Layer" fill-rule="evenodd" class="s0" d="m305.1 57.2h8v113.3c0 9.3-1.8 17.8-5.2 25.8q-5.3 12.1-14.3 21c-6.1 6-13.1 10.8-21.1 14.2-8 3.4-16.7 5.2-25.7 5.2l-16.6-0.3v-33.1l16.4 0.3c5.2 0 9.5-0.6 13.3-1.9 3.7-1.4 6.7-3.3 9.2-5.5 2.5-2.3 4.4-5 5.9-7.9q2.3-4.5 3.6-9.4c-1.2 2.2-3.1 3.8-5.5 5.2-2.4 1.3-5.1 2.4-8 3.3-3 0.9-6.1 1.5-9.3 1.8q-4.9 0.4-8.9 0.4c-9.1 0-17.7-1.6-25.7-4.8-8.1-3.1-15.2-7.7-21.2-13.5q-9.1-8.8-14.3-21.5c-3.4-8.5-5.2-18-5.2-28.8 0-9.8 1.8-18.9 5.2-27.2 3.6-8.4 8.4-15.7 14.3-21.8 6.1-6.1 13.1-11 21.2-14.5 8-3.4 16.6-5.2 25.7-5.2 4.2 0 8.3 0.6 12.5 1.7 4.2 1 8.2 2.5 12.1 4.3 3.8 1.9 7.4 4 11 6.5 3.4 2.6 6.7 5.3 9.8 8.2zm-25.3 64.1c0-4.4-0.7-8.9-2.5-13.1-1.8-4.3-4.2-8-7.2-11.3-3-3.3-6.4-6-10.4-7.9-4-2-8.2-3-12.8-3-4.6 0-8.8 0.8-12.8 2.2-4 1.7-7.4 3.9-10.4 6.9-3 3-5.4 6.6-7 11-1.6 4.4-2.5 9.4-2.5 15.1 0 5.3 0.9 10.3 2.5 14.6 1.8 4.3 4 7.9 7 11 3 3.2 6.4 5.5 10.4 7.2 4 1.6 8.2 2.5 12.8 2.5 4.6 0 8.9-1 12.8-3 3.9-1.9 7.4-4.6 10.4-7.9 3-3.3 5.4-7.1 7.2-11.3 1.8-4.2 2.5-8.5 2.5-13zm58.6-63.9h33.4v130h-33.4zm37.2-43.9q1.8 4.1 1.8 8.5c0 3.2-0.6 6-1.8 8.7-1.1 2.7-2.6 4.9-4.7 7-2.1 2.1-4.5 3.6-7.2 4.8-2.6 1.2-5.6 1.7-8.6 1.7-3 0-5.9-0.5-8.6-1.7-2.7-1.2-4.9-2.9-7-4.8-2.1-1.9-3.6-4.3-4.8-7-1.2-2.7-1.8-5.5-1.8-8.7q0-4.4 1.8-8.5c1.2-2.6 2.8-4.9 4.8-7 1.9-2.1 4.3-3.5 7-4.7 2.7-1.2 5.6-1.8 8.6-1.8 3 0 6 0.6 8.6 1.8 2.9 1.2 5.1 2.8 7.2 4.7 1.9 2 3.6 4.4 4.7 7zm21.3-7.9h33.4v181.6h-33.4zm184 115.4c0 3.7-0.2 7.4-0.8 11h-96.6c0.3 1 0.6 2.1 1.1 3 1.8 4.3 4 8 7 11.2 3 3.1 6.4 5.6 10.4 7.4 4 1.8 8.3 2.7 12.8 2.7l-15.3 31.4c-3.6-0.7-7-1.9-10.4-3.4-8.1-3.6-15.1-8.3-21.2-14.4-6.1-6.2-10.8-13.5-14.3-21.8-3.4-8.4-5.2-17.4-5.2-27.1 0-9.9 1.7-19.1 5.2-27.5 3.6-8.3 8.4-15.6 14.3-21.7 6.1-6.1 13.1-10.9 21.2-14.3 8-3.5 16.6-5.3 25.7-5.3q13.8 0 25.9 5c8 3.2 15 8 21 14 5.9 6.1 10.7 13.2 14.1 21.7 3.4 8.4 5.2 17.9 5.1 28.1zm-34.6-10.9c-0.2-1.2-0.7-2.3-1.1-3.4q-2.7-6.5-7.2-11.2c-3-3.2-6.4-5.5-10.4-7.2-4-1.6-8.2-2.5-12.8-2.5-4.6 0-8.8 0.9-12.8 2.5-4 1.7-7.4 4-10.4 7.2-3 3.1-5.4 6.8-7 11.2-0.5 1-0.9 2.2-1.2 3.4z"/>
			<path id="Layer" class="s0" d="m90.9 0l91.1 187.2h-37.3l-53.8-110.3-37.5 77.4h37.5l-15.9 32.9h-75z"/>
		</g>
	</g>
</svg>