<svg version="1.2" xmlns="http://www.w3.org/2000/svg" viewBox="0 0 1516 554" width="1516" height="554">
	<title>logo-2020-svg</title>
	<style>
		.s0 { fill: #003595 } 
		.s1 { fill: #9074b1 } 
	</style>
	<g id="#003595ff">
		<path id="Layer" class="s0" d="m600.9 53c50.7-18 101.7-34.9 152.4-52.7 51.4 17.4 102.8 34.9 154.1 52.5-11.7 3.7-23.4 7.4-35.1 11-38.9-12.7-77.8-25.5-116.8-38.2-2-0.9-4.1 0.2-6.1 0.7-35 11.9-70.2 23.2-105.2 35.3-3.3 0.9-6.7 2.9-10.2 1.3-11-3.3-22.1-6.5-33.1-9.9zm57.4 19.1c31.7-10.5 63.3-21 95-31.4 31.7 10.4 63.3 20.8 94.9 31.3q0 6.9 0 13.8c0 40.1 0 80.3 0 120.5 0 3.2 0 6.3 0 9.5q-18.8 0-37.7 0c0-20.7 0.1-41.4 0-62.1 0.4-3.6-2.4-7.4-6.2-7.2-6.6-0.3-13.2-0.2-19.8-0.1-3.3-0.3-6.7 2.2-6.6 5.6-0.1 21.3 0 42.5 0 63.8q-3.8 0-7.5 0c0-21.2 0.1-42.3 0-63.5 0.2-3.3-2.8-5.8-5.9-5.8-7.1-0.3-14.2-0.3-21.2 0-3.6 0.3-6 3.8-5.6 7.2 0 20.7 0.1 41.4 0 62.1-1.7 0-5.3 0-7 0q0-31 0-62c0.5-3.6-2.2-7.4-5.9-7.3-6.6-0.3-13.2-0.2-19.7-0.1-3.3-0.2-7.3 1.9-7.1 5.7-0.1 21.3 0.1 42.5 0 63.7-13.3 0-26.5 0-39.7 0q0-4.8 0-9.5 0-60.3 0-120.6 0-6.8 0-13.6z"/>
		<path id="Layer" fill-rule="evenodd" class="s0" d="m66.2 324.1c21.4-9 45.6-10.2 68.2-5.3 19.6 4.4 37.2 16.7 48 33.7 0.1-10.5 0.9-20.9 1.8-31.3 19.1 0.1 38.1 0 57.1 0.1-2.9 45.5-5.2 91.1-4.6 136.8 0.2 11.5-1.4 24.9 7.1 34.1 7.1 6.6 17.5 4.4 26.4 4.3 0 17.2-0.1 34.4 0 51.6-18.9 5.1-39.7 7-58.5 0.7-14.3-4.7-24.9-17-29.7-30.9-11 16.6-28.5 28.7-48 32.9-25.2 5.5-52.6 3.2-75.5-9-28.7-15.6-49-45-55.2-76.9-5.3-27.4-3.7-56.7 6.9-82.7 10.6-25.3 30.6-47.2 56-58.1zm43.8 48.9c-18.3 2.7-34.1 16.1-41.1 33-6.1 14.7-6.5 31.4-3.3 46.9 4.4 20.1 20.2 37.8 40.5 42.5 21.1 5.2 45-2.8 58-20.4 10.1-13.8 12.4-31.7 11-48.3-1.1-14.3-6.3-29-17.2-38.9-12.2-12.5-30.8-17.6-47.9-14.8zm239.8-31.7c12.9-14.3 31.8-22.2 50.7-24.6 24.8-3.2 51.2-0.2 73.4 12 9.9 5.6 19 12.8 26.5 21.4-10.4 12.8-20.9 25.5-31.4 38.3-12.1-11-27.1-19.7-43.6-21.2-8-0.9-16.5-0.8-23.9 2.7-6.8 3.1-9.7 12.4-6 18.9 2.5 4.7 7.5 7.1 12 9.4 21.9 9.9 45.3 17.1 65.7 30.3 10.9 7 21.2 16.1 26 28.5 6.2 16.3 5.6 35-0.6 51.2-8.5 21.5-29.6 35.6-51.2 41.4-23.2 5.9-47.9 5.2-70.8-1.1-22.4-6.3-42.2-20.5-56.1-39.1 10.5-12.6 21-25.3 31.5-37.9 13.9 14.3 31.4 26.4 51.4 29.8 11.4 1.9 24.1 1.9 34.1-4.6 7.3-4.7 9.4-16 3.3-22.5-5.6-4.8-12.6-7.6-19.3-10.6-22.9-9.8-47.3-17.8-66.5-34.2-9.5-7.8-16.4-18.8-18.7-30.9-3.9-19.7-0.3-41.9 13.5-57.2zm280.3-24c26.8-4.3 55.6-1.3 79.3 12.5 9.4 5.2 17.3 12.5 24.7 20.3-10.6 12.7-20.9 25.6-31.6 38.3-11.6-10.8-26-19.1-41.9-21-8.9-1.1-18.7-1.4-26.6 3.2-7.7 4.2-8.6 16.1-2.1 21.7 6.9 6 15.9 8.6 24.1 12.2 22.6 9.5 46.5 17.9 64.7 34.8 11.5 10.6 16.8 26.5 16.3 41.9 0.6 18.4-6.5 37.2-20.5 49.5-20.9 18.8-50.3 24.5-77.7 22.6-22.9-1.2-45.9-8.5-64-22.8-7.9-6.1-14.6-13.3-20.7-21.1 10.6-12.6 21-25.4 31.6-38 14.3 15.1 32.7 27.3 53.5 30.2 11.1 1.5 23.4 1.1 32.9-5.6 7.9-5.6 8.1-19.4-0.8-24.2-21.2-12.4-45.5-18.2-66.5-31-13.8-8.2-27.5-19-32.8-34.8-5.9-17.8-4.7-38.3 4.4-54.9 11-19.2 32.4-30.3 53.7-33.8zm686.9 4.8c22-7.6 46.4-8.2 68.8-1.7 17.2 5 32 16.8 42 31.6 0.6-10.2 1.2-20.5 1.9-30.7 19.2 0 38.3-0.2 57.5 0-3.4 44.4-5.3 88.9-4.7 133.5 0.4 12-2.1 25.7 5.7 36 6.7 8.4 18.5 5.8 27.8 5.7 0 17.2 0 34.4 0 51.6-18.9 4.9-39.3 7-58.1 1-14.5-4.7-25.4-17.1-30.3-31.2-11.4 17.4-30.1 29.5-50.5 33.4-26.9 5.3-56.5 1.7-79.8-13.6-26.6-17.3-44.5-46.6-49.3-77.8-3.5-23.6-2.5-48.3 5.2-71 10.4-29.9 33.6-56 63.8-66.8zm36 51.4c-19.7 3.9-35.6 20.4-40.9 39.5-4.1 14.9-3.9 31.1 0.9 45.9 5.9 18.2 21.6 33.3 40.7 36.9 20.5 4.4 42.9-3.6 55.7-20.3 10.7-14.3 12.8-33.1 11.2-50.4-1.4-15.7-8.4-31.3-21.1-40.9-12.8-10.6-30.4-14-46.5-10.7zm-223.9-25.6c18.5-25 52.7-35.1 82.4-27 0 18.3 0 36.6 0 54.9-15.3 0-31.2-0.8-45.5 5.4-11.7 4.8-21.9 13.9-26.7 25.8-4.3 9.8-5.1 20.7-5.2 31.3q0 55 0 109.9-31 0-62.1 0 0-113.5 0-226.9 28.6-0.1 57.1 0c0 8.9 0.1 17.7 0 26.6zm-334.3-26.7q31.1 0 62.1 0c0 43.4-0.1 86.9 0 130.3 0.1 11.1 2.7 22.9 10.6 31.2 9.7 11.1 25.4 15.5 39.7 13.1 15.1-2 28.4-13.5 32.7-28.2 2.4-7.3 1.7-15.1 1.8-22.7 0-41.2 0-82.5 0-123.7 20.8 0.1 41.6 0 62.5 0q0 64.4 0 128.7c-0.2 23.4-6.7 47.3-21.6 65.7-15.9 20.2-39.9 33.7-65.4 36.9-28.1 3.6-58.4-1.2-81.6-18.2-19.2-13.8-33.1-34.8-37.9-58-1.9-8.7-2.8-17.6-2.9-26.5q0-64.3 0-128.6z"/>
	</g>
	<g id="#9074b1ff">
		<path id="Layer" fill-rule="evenodd" class="s1" d="m499.4 85.9c26.5-8 53-16 79.5-23.9 26.4 8.1 53 15.8 79.4 23.7q0 60.3 0 120.6-79.5 0-158.9 0c0-40.1 0-80.3 0-120.4zm49 20c-3.5 2-3 6.4-3.1 9.8 0.1 13.8-0.1 27.6 0.1 41.5-0.1 2.7 1.2 6.2 4.3 6.7 6 0.5 12 0.3 18 0.2 2.9 0.1 5.6-2.5 5.3-5.4q0.1-24 0-48c0.4-3.8-3.7-6-6.9-5.7-5.9 0.3-12.1-0.9-17.7 0.9zm38 0.5c-2.4 1.8-2.2 5-2.2 7.6 0.1 14.4 0 28.8 0 43.2-0.3 3 1.6 6.6 4.9 6.8 5.5 0.3 11.1 0.2 16.7 0.1 3.7 0.3 6.7-3.4 6.1-6.9 0-15.5 0.1-31 0-46.5 0.2-4-4.3-6.1-7.8-5.7-5.9 0.4-12.2-1.2-17.7 1.4zm261.8-20.6c26.2-7.9 52.4-16.1 78.8-23.6 26.8 7.5 53.4 15.9 80.1 23.7q0 60.2 0 120.4c-53 0-105.9 0-158.9 0 0-40.2 0-80.4 0-120.5zm47.8 20.8c-2.6 1.7-1.7 4.9-1.9 7.5 0.1 14.9-0.1 29.7 0 44.6-0.2 2.6 2.1 5.2 4.7 5.3 6 0.3 12 0.3 18 0 4.1-0.2 5.2-4.9 5.1-8.3-0.2-14.9 0.2-29.8-0.2-44.8 0-5-5.8-6.4-9.8-5.9-5.3 0.5-11.2-1.4-15.9 1.6zm39.5-0.6c-3 1.3-2.8 5.3-2.9 8.2 0.1 14.3-0.1 28.6 0 42.9-0.3 3 1.3 6.2 4.5 6.9 5.9 0.3 12 0.2 17.9 0.1 3.5 0 5.8-3.7 5.3-6.9 0-15.4 0.1-30.9 0-46.3 0.3-3.8-3.7-6.2-7.1-5.9-5.8 0.3-12.1-0.9-17.7 1z"/>
	</g>
</svg>