<svg version="1.2" xmlns="http://www.w3.org/2000/svg" viewBox="0 0 1517 574" width="1517" height="574">
	<title>AGS_logo-svg</title>
	<style>
		.s0 { fill: #ffffff } 
		.s1 { fill: #db822e } 
	</style>
	<g id="#4070b5ff">
		<path id="Layer" class="s0" d="m384 2c28.2-3.2 57.1-1.6 84.5 6.1 31.5 8.9 60.6 26.3 83.9 49.4 14.2 13.4 26.6 28.8 36.5 45.7 13.7 23.3 22.2 49.7 25.1 76.6 2.2 17.4 1.2 35 1.5 52.4-0.1 59.3 0 118.5-0.1 177.8-27.1-0.1-54.2 0-81.3-0.1-0.2-13.5 0.2-26.9-0.2-40.4-20.2 14.7-42.5 26.7-66.8 33.1-47.2 12.5-99 9.3-143.4-11.6-27.8-13.1-51.9-33.2-71.6-56.7-5.3-6.5-10.4-13.1-14.7-20.2 24.1-13 48.1-26.2 72.3-39 15.6 22.4 38.3 40.1 64.6 48.1 23.3 6.9 48.5 7 71.9 0.3 21.6-6.1 40.8-19.1 55.9-35.5 14.1-15.4 24.5-34.3 29-54.8 6-27.5 3.3-57.2-9.4-82.6-9.5-18.9-24.1-35.1-41.3-47.4-20.3-14.5-45.4-21.8-70.3-21.2-27.7-0.4-55.5 9.4-76.7 27.3-11.4 9-20.4 20.4-28.2 32.6-24-12.9-47.8-26.1-71.9-38.8 12.2-21.1 28.3-40 47-55.6 29.1-25 65.6-41.1 103.7-45.5z"/>
		<path id="Layer" fill-rule="evenodd" class="s0" d="m839.5 1.2c26.5-2.1 53.5-0.7 79.1 6.8 45.2 12.6 83.9 42.9 111 80.7 23.6 32.8 35.7 73.3 35.8 113.6 0.1 54.9 0 109.8 0 164.7 0.3 20.7-2.4 41.5-8.2 61.5-9.8 33.7-29.5 64.1-54.9 88.2-28.3 27.9-65 47.4-104.3 53.9-12.2 1.9-24.5 3.3-36.9 2.9 0-27.1-0.2-54.2 0.1-81.3 23 0.2 46.1-6.2 65.4-18.8 18.6-12.2 34.3-29.1 44.6-49 8.7-16.9 13.2-36 12.7-55.1-11 7.6-22.1 15.2-34.3 20.9-40.3 19.5-87.2 23.8-130.9 15.4-28.6-5.5-55.8-17.9-79-35.5-35.3-26.9-63.6-64.1-75.6-107.3-12.5-45.1-10.3-94.6 7.8-137.9 10.3-24.1 25.5-46 44.1-64.3 16.2-16.6 35.3-30.6 56.2-40.8 21.1-10.3 44-16.3 67.3-18.6zm4.8 81.4c-26.2 3.1-51 15.6-69.5 34.3-15.6 15-27.3 34-32.9 54.9-6.4 24.1-5.7 50.1 2.3 73.8 6.2 17.9 16.8 34.1 30.5 47.1 20.6 21.2 49.5 34.3 79.1 35.2 18.8 1 37.9-1.6 55.2-9.1 21.3-9.1 39.5-24.6 53-43.3 14.8-20.3 22.5-45.6 22-70.7 0.5-26.6-8.3-53.3-24.8-74.2-13.9-17.6-31.9-32.5-53-40.7-19.6-7.9-41.1-9.5-61.9-7.3zm317.6-62.1c16.2-11.1 35.2-17.8 54.6-19.7 17.9-1.1 35.8-0.5 53.7-0.7q114.7 0 229.3 0c5.6 0 11.2-0.2 16.7 0.3 0.2 27.1 0.2 54.2 0 81.3-95.7 0.2-191.4 0-287.1 0.1-21.6-0.5-41.1 19.1-40.6 40.7-1 21.8 18.7 42 40.5 41.7 55.3 0 110.6-0.1 165.8 0 23.2 0.1 46.5 6.7 65.8 19.8 23.4 15.8 42.2 39.3 50.4 66.5 6.9 23.4 7 48.8 0.2 72.2-7.7 26.2-25.2 48.9-47.1 64.8-20.3 14.9-45.5 22.2-70.5 22.3-95.5-0.1-190.9 0.1-286.4-0.1 0-27.2 0-54.3 0.1-81.4 95.8-0.4 191.7 0 287.6-0.2 23.1 0.2 43-22.9 39.7-45.7-1.9-19.8-19.9-36.4-39.7-36.8q-82.3 0-164.6 0c-21.6 0.3-43.5-5.1-62.1-16.2-17.3-10.3-32.1-24.7-42.9-41.7-12.4-19.3-18.7-42.3-18.1-65.2-0.4-20.4 4.7-40.9 14.7-58.7 9.8-17.3 23.7-32.1 40-43.3z"/>
	</g>
	<g id="#db822eff">
		<path id="Layer" class="s1" d="m37.9 64.4c8-2.8 16.7-0.4 23.6 4 76.1 41.2 152.2 82.3 228.3 123.5 9.2 4.4 13.1 16.7 8.3 25.7-3.2 6.8-10.6 9.6-16.8 13.1q-108.8 58.7-217.5 117.6c-5.1 2.8-10.4 6-16.4 6.2-7.7 0.8-14.8-3-21.8-5.7-4.7-1.9-9.6-3.4-14-5.9-7.2-4.2-11.5-12.6-11.2-20.8 0-75.7 0-151.4 0-227.1-0.2-9.5 6.2-18.5 15-21.9 7.5-2.9 14.9-6 22.5-8.7z"/>
	</g>
</svg>