<svg version="1.2" xmlns="http://www.w3.org/2000/svg" viewBox="0 0 1552 629" width="1552" height="629">
	<title>aiv-investor-presentation-feb-2023-vF-3-pdf-svg</title>
	<defs>
		<clipPath clipPathUnits="userSpaceOnUse" id="cp1">
			<path d="m-9379.35-334.17h11632.06v6542.3h-11632.06z"/>
		</clipPath>
	</defs>
	<style>
		.s0 { fill: #ffffff } 
	</style>
	<g id="Clip-Path: Page 1" clip-path="url(#cp1)">
		<g id="Page 1">
			<path id="Path 84" fill-rule="evenodd" class="s0" d="m317.7 418.8v5.4h-52.1v-1.8l-1.2-3.6h-0.6c0-0.6 0-3-0.7-4.8 0-0.7-0.6-3.1-2.4-4.9 0-2.4-0.6-3.6-2.4-6.1l-44.2-127.2h-143.6l-39.4 122.4c-0.6 3-0.6 6.1-2.4 8.5 0 2.4-0.6 4.2-2.4 6.6 0 1.9 0 3.1-0.6 4.9h0.6v5.4h-18.2v-5.4c0 0 2.4-4.9 6-13.3l133.9-404.7h11.5l149.1 402.8c2.4 4.9 3.6 7.9 5.4 11 1.9 3 3.1 4.8 3.7 4.8zm-107.9-153.9l-71.5-201.7-64.2 201.7zm147.2-119.3v-5.5l36.4-12.1h8.5v286c0.6 3 1.2 4.8 1.2 4.8h0.6v5.4h-46.7v-5.4c0.6 0 0.6-0.6 0.6-3.6 0.7-3.7 0.7-7.3 0.7-12.2v-232c0-7.2 0.6-11.5 0-14.5 0-3-0.7-7.3-1.3-10.9zm505.9 278.7v-5.5h0.6c0 0 0-0.6 0-3.6 0.6-3.7 0.6-7.3 0.6-12.2v-173.2c0-23.6-5.4-43-18.8-56.9-12.1-14.6-28.4-21.9-47.2-21.9-12.1 0-25.5 2.5-42.4 7.9-15.8 4.9-32.7 12.1-49.1 20.6 4.3 12.1 6.1 27.3 6.1 45.5v178c0.6 4.9 0.6 7.9 0.6 11 0.6 3 0.6 4.8 0.6 4.8 1.2 0 1.2 0.6 0 3 1.2 1.2 1.2 2.4 0 2.4h-47.3v-5.4h0.6c0 0 0-0.6 0-3.6 0.6-3.7 0.6-7.3 0.6-12.2v-173.2c0-25.4-5.4-44.8-17.5-58.8-11.5-15.1-27.3-22.4-46.1-22.4-14.5 0-29.7 1.2-44.8 5.5-15.2 3.6-29.1 9.1-42.4 15.1v233.8c0.6 4.9 0.6 7.9 0.6 11 0 3 0.6 4.8 0.6 4.8 1.2 0 1.2 0.6 0 3 1.2 1.2 1.2 2.4 0 2.4h-44.8v-5.4h0.6c0 0 0-0.6 0-3.6 0.6-3.7 0.6-7.3 0.6-12.2v-242.3c0-3.6 0.6-6.6 0-9 0-2.5-0.6-5.5-1.8-8.5v-3.1l36.9-12.1h7.9v32.1l-2.4 0.6h2.4v3.7c25.4-13.4 47.8-23 69.1-30.9 21.2-8.5 39.3-11.5 52.1-11.5 14.5 0 27.2 3 38.7 13.3 11.5 8.5 20.6 21.2 26.1 37.6 29.7-15.2 55.7-27.3 77.5-37 23-9.1 39.4-13.9 49.1-13.9 11.5 0 20.6 1.8 30.9 7.2 9.1 4.9 17.6 11.5 24.2 20.6 7.3 8.5 11.5 19.4 15.2 32.7 4.2 12.2 6 26.7 6 42.5v178c0.6 4.9 0.6 7.9 0.6 11 0 3 0.6 4.8 0.6 4.8 1.3 0 1.3 0.6 0 3 1.3 1.2 1.3 2.4 0 2.4zm338.1-35.1c-13.9 11.5-32.1 21.8-53.3 29.1-21.8 7.9-42.4 11.5-62.4 11.5-17 0-33.3-3-47.9-10.3-13.9-7.3-25.4-17-36.3-29.1-10.3-13.3-17.6-27.8-23-45.4-5.5-17.6-8.5-37.6-8.5-59.4 0-24.8 3.6-46.6 10.9-66.6 7.2-20 16.3-37.6 29.1-51.5q20-21.8 47.2-33.9c18.8-8.5 38.8-11.5 60.6-11.5q35.1 0 58.8 17.5c15.1 11.5 24.2 27.3 26 47.3 0 5.4-2.4 10.3-5.4 13.9q-5.5 5.5-14.6 5.5c-5.4 0-10.3-1.8-13.9-5.5q-5.5-6-7.3-16.3c-1.2-15.2-6-27.3-15.1-36.4-9.1-9.7-20.6-14.5-33.3-14.5-14.6 0-27.9 2.4-40 9.7-12.1 6-22.4 15.7-30.9 27.8-8.5 11.5-14.6 25.5-19.4 42.4-5.5 16.4-7.9 35.8-7.9 55.8 0 20 3 38.7 7.9 55.1 5.4 17 12.1 30.3 21.8 42.4 9.1 11.5 20.6 20 33.9 27.3 13.3 6.6 27.9 10.3 43 10.3 16.4 0 30.9-1.9 44.9-5.5q20.9-5.4 30.9-14.5zm47.2-113.3c0-23.6 3.7-43.6 10.9-62.4 7.3-19.4 17.6-35.1 29.7-48.5 13.3-14.5 28.5-24.8 46.1-31.5 18.7-7.8 38.7-10.9 59.9-10.9 22.4 0 41.8 2.5 59.4 10.3 18.8 7.3 33.9 17.6 46.7 31.5 12.7 14 23 29.7 30.2 48.5 7.3 19.4 10.9 39.4 10.9 63 0 22.4-3.6 44.2-10.9 63-7.2 18.8-16.9 33.9-29.6 48.5-13.4 13.3-27.9 23-46.1 30.8-17.6 7.3-37.5 11.6-60.6 11.6-21.2 0-41.2-3.7-59.3-10.9-17.6-7.9-33.4-17.6-46.1-31.5-12.7-14-23-30.3-29.7-48.5-7.8-18.8-11.5-40.6-11.5-63zm146.6 144.8c15.8 0 28.5-3.1 40.6-10.3 12.1-7.3 23-17.6 31.5-29.7 8.5-13.3 15.2-27.9 20-45.4 4.9-17.6 7.3-37.6 7.3-59.4 0-21.8-2.4-41.2-7.3-59.4q-7.3-26.3-20-45.4c-8.5-12.7-18.8-21.8-30.9-28.5-12.1-7.2-25.4-10.9-41.2-10.9-13.9 0-27.8 3-40 10.3-11.5 7.3-21.8 16.4-30.9 29.1q-12.7 19.1-19.9 45.4c-4.9 18.2-7.3 37.6-7.3 59.4 0 21.8 2.4 41.8 7.3 59.4 4.8 17.5 10.9 32.7 19.3 45.4 9.1 12.1 20 22.4 31.5 29.1q18.2 10.9 40 10.9zm-1016.6-318.1c-8.4 0-15.1-2.4-20.6-7.8-5.4-5.5-8.4-12.8-8.4-21.2 0-9.1 2.4-15.2 7.8-20.6 6.1-6.1 13.4-8.5 21.8-8.5 8.5 0 15.2 1.8 20.6 7.9 5.5 5.4 7.9 12.1 7.9 21.8 0 7.8-1.8 14.5-7.9 20.6-5.4 4.8-12.7 7.8-21.2 7.8zm-378 393.2h1550.9v5.4h-1550.9zm10.3 106c0-15.1 11.5-27.8 27.3-27.8 9.7 0 15.1 3.6 20.6 8.5l-3.7 4.2c-4.8-4.2-9.7-7.3-16.9-7.3-11.6 0-20.6 9.7-20.6 21.8 0 12.2 9 21.8 20.6 21.8 7.2 0 12.1-3 16.9-7.8l4.3 4.2c-5.5 5.5-12.2 9.1-21.2 9.1-15.8 0.6-27.3-11.5-27.3-26.7zm147.2-26.6c6.1 0 11.5 1.8 15.2 5.4 2.4 2.5 3.6 6.1 3.6 10.3 0 8.5-6.1 13.4-13.9 15.8l15.7 21.2h-7.3l-15.1-20.6h-15.2v20.6h-6v-52.7zm-0.6 26.6c7.9 0 13.3-3.6 13.3-10.3 0-6.6-4.8-10.3-13.3-10.3h-16.4v21.3h16.4zm97.5-26.7h38.2v5.4h-32.1v18.2h28.5v4.9h-28.5v18.7h32.7v5.5h-38.8zm135.7-0.6h5.5l24.2 53.3h-6.6l-6.1-13.9h-29.1l-6.6 13.9h-6.1zm14.5 33.9l-12.1-26.6-12.1 26.6zm80.6-27.8v-5.5h41.2v5.5h-17.6v47.2h-6.1v-47.2zm118.8-5.5h5.4v52.7h-5.4zm92.1 0l33.3 43v-43h6.1v53.3h-4.9l-34.5-43.6v43.6h-6.1v-53.3zm117.6 26.7c0-14.6 10.9-27.3 26-27.3 9.1 0 15.1 2.4 20 6.7l-4.2 4.2c-3.7-3-8.5-5.4-15.8-5.4-12.1 0-20.6 9.6-20.6 21.2 0 12.7 8.5 22.4 21.2 22.4 6.1 0 12.1-3.1 15.2-5.5v-13.3h-15.8v-5.5h21.8v21.2c-4.8 4.3-12.1 7.9-21.2 7.9-16.4 0.6-26.6-11.5-26.6-26.6zm210.2-26.7h6.6l18.8 45.4 19.4-45.4h6.1l-23.1 53.3h-5.4zm139.3 0h4.9l24.2 53.3h-6l-6.7-14.5h-29.1l-6 14.5h-6.7zm15.1 33.3l-12.7-26.6-12.1 26.6zm90.9-33.3h6v47.9h29.7v5.4h-35.7zm109.6 30.3v-30.9h6.1v30.3c0 11.5 6 17.6 16.3 17.6 9.7 0 15.8-6.1 15.8-17.6v-30.9h6.1v30.3c0 15.8-8.5 23.6-21.9 23.6-13.3 0.6-22.4-7.2-22.4-22.4zm123.6-30.3h38.8v5.5h-32.7v18.2h29.1v4.8h-29.1v18.8h32.7v5.4h-38.8z"/>
		</g>
	</g>
</svg>