<svg version="1.2" xmlns="http://www.w3.org/2000/svg" viewBox="0 0 1631 501" width="1631" height="501">
	<title>Akero-Logo-svg</title>
	<style>
		.s0 { fill: #f37021 } 
		.s1 { fill: #1076bc } 
		.s2 { fill: #000000 } 
	</style>
	<g id="Symbols">
		<g id="Top-Nav">
			<g id="Group">
				<g id="Akero-Logo">
					<path id="Fill-2" fill-rule="evenodd" class="s0" d="m663.7 363c-24.3 0-43.9-19.6-43.9-43.9c0-24.3 19.6-43.9 43.9-43.9c24.3 0 43.9 19.6 43.9 43.9c0 24.3-19.6 43.9-43.9 43.9z" />
					<path id="Fill-1" class="s1" d="m730.3 275.2h209.9l45.8 43.6l-45.8 44.2h-209.9l35.6-44.6z" />
					<path id="Fill-14" class="s2" d="m730 419.8h276.9v77.3h-276.9z" />
					<path id="Fill-16" class="s2" d="m730 139.5h276.9v77.3h-276.9z" />
					<path id="Fill-4" fill-rule="evenodd" class="s2" d="m240.6 497v-43.5q-18.7 23.4-48.1 35.5q-29.4 12-67.5 12q-37.4 0-65.9-14.4q-28.4-14.3-43.7-39.7q-15.4-25.4-15.4-56.9q0-50.1 35.4-78.5q35.4-28.4 100.3-29.1h104.2v-9.3q0-31.5-20.7-48.8q-20.7-17.4-60.1-17.4q-50.8 0-106.3 33.4l-31.4-60.2q42.1-23.3 76.5-33.7q34.4-10.4 80.6-10.4q69.5 0 107.9 33.4q38.4 33.5 39.1 93.6l0.7 234zm-30.8-80.6q26.8-17.7 30.1-43.7v-32.1h-90.2q-34.8 0-51.2 10.3q-16.3 10.4-16.3 33.8q0 22.7 17 36.1q17 13.4 46.5 13.4q37.4 0 64.1-17.8z" />
					<path id="Fill-6" class="s2" d="m591.3 497l-129.2-120.1l-0.1 120.1h-94.1v-496h94.1v266.5l130.9-127.5h113l-184.1 178.4l183.3 178.6z" />
					<path id="Fill-9" fill-rule="evenodd" class="s2" d="m1182.3 155.1q31.1-18.4 72.5-19.1v84.3q-55.5-3.4-88.5 25.7q-33.1 29.1-33.1 78.5v172.5h-86.9v-357.6h86.9v68.8q18-34.7 49.1-53.1z" />
					<path id="Fill-11" fill-rule="evenodd" class="s2" d="m1540.8 159.4q42.4 22.8 66.2 63.9q23.7 41.1 23.7 94.5q0 54.2-23.7 95.6q-23.8 41.5-66.2 64.2q-42.5 22.7-97.9 22.7q-56.2 0-98.9-22.7q-42.8-22.7-66.6-64.2q-23.7-41.4-23.7-95.6q0-53.4 23.7-94.5q23.8-41.1 66.6-63.9q42.7-22.7 98.9-22.7q55.4 0 97.9 22.7zm-171.5 81.6q-28 30.1-28 78.2q0 48.1 28 78.2q28.1 30.1 73.6 30.1q44.1 0 72.2-30.1q28-30.1 28-78.2q0-48.1-28-78.2q-28.1-30.1-72.2-30.1q-45.5 0-73.6 30.1z" />
				</g>
			</g>
		</g>
	</g>
</svg>