<svg version="1.2" xmlns="http://www.w3.org/2000/svg" viewBox="0 0 1592 1556" width="1592" height="1556">
	<title>Albermarle_Corporation-svg</title>
	<style>
		.s0 { fill: #ffffff } 
	</style>
	<g id="Layer">
		<g id="Layer">
			<path id="0" class="s0" d="m41.9 1472.8l47.7-102.9c1.9 45.1 31.4 102.9 111.8 102.9h519.8c28.3 0 62.4-32.4 55.8-82.3-3.5-26.2-75.7-164.4-75.7-164.4 0 0-139.2-257.8-175.4-324.5-36.2-66.8-56-132.5-56-178.3 0-45.6 4.7-100.5 32.6-155.3l400.1 778.4c0 0 48.1 83.5 9.9 143.5-50.2 78.9-115.5 65.1-115.5 65.1h-797c0 0.1 41.9-82.2 41.9-82.2zm0 0l47.7-102.9c1.9 45.1 31.4 102.9 111.8 102.9h519.8c28.3 0 62.4-32.4 55.8-82.3-3.5-26.2-75.7-164.4-75.7-164.4 0 0-139.2-257.8-175.4-324.5-36.2-66.8-56-132.5-56-178.3 0-45.6 4.7-100.5 32.6-155.3l400.1 778.4c0 0 48.1 83.5 9.9 143.5-50.2 78.9-115.5 65.1-115.5 65.1h-797c0 0.1 41.9-82.2 41.9-82.2zm1074.5 81.9h-167.5c0 0 40.4-31.4 55.9-82.2 14-45.8-14.8-113.1-14.8-113.1l-449.3-872.6 79-149.6 508.5 972.5c0 0 61.3 113.9 44 162.7-17.3 48.7-55.8 82.2-55.8 82.3zm223.7 0h-99.6c0 0 46.1-71.9 25.2-132.5-35.5-102.9-91.7-200.7-91.7-200.7l-513.1-967.7 134.6-252.8 795.6 1553.8c0 0-251.2 0-251-0.1z"/>
		</g>
	</g>
</svg>