<svg version="1.2" xmlns="http://www.w3.org/2000/svg" viewBox="0 0 1549 512" width="1549" height="512">
	<title>Albireo-Corporate-Overview-August-2021-1-pdf-svg</title>
	<defs>
		<clipPath clipPathUnits="userSpaceOnUse" id="cp1">
			<path d="m-7526.18-4623.82h9788.85v5505.88h-9788.85z"/>
		</clipPath>
	</defs>
	<style>
		.s0 { fill: #ff8300 } 
		.s1 { fill: #005cb9 } 
	</style>
	<g id="Clip-Path: Page 1" clip-path="url(#cp1)">
		<g id="Page 1">
			<path id="Path 9" class="s0" d="m1373.5 0.1c7.2 148.4-48.4 211.6-29.6 193.2 19.9-17.8 178.5-45.4 178.5-45.4l-223.8 97.9zm-157.1 235.6c-19.3-15.9-116.7-134.1-116.7-134.1l182.5 147.3-189.6 45.9c127.9-82.6 131.5-52.5 123.8-59.1zm149.4 33.1c1.6 9.2 76 92.3 117.3 134.1l-182.5-147.9 248.3-60.1c-128.5 83.1-184.1 64.7-183.1 73.9zm-77-26.5l-168.2-180c132 64.3 141.7 123.4 149.4 116.3 0 0 10.7-119.3 60.6-174.9zm30.6 87.2c-7.1 1-44.8 113.7-44.8 113.7l18.3-178 179.5 168.8c-135.6-55.1-141.7-105-153-104.5z"/>
			<path id="Path 10" fill-rule="evenodd" class="s1" d="m256.5 505.3c-13.8-1-26.5-1-36.2-1-6.1 0-16.3 1-28.1 1-6.1-23.4-17.8-64.2-28-97.9-13.8-0.5-32.6-0.5-47.9-0.5-15.3 0-33.7 0-45.4 0.5-12.2 30.6-26.5 74.5-32.1 97.9-4.6-1-12.3-1-16.3-1-7.2 0-13.8 1-21 1l-1.5-1.5c43.4-96.4 82.6-189.2 118.3-279.9h41.3c29.6 89.2 78 228.9 97.4 279.9m-135.6-225.3c-12.3 28-31.6 77.4-42.4 105.5 9.7 1 24.5 1 35.7 1 12.8 0 30.1 0 41.8-1-7.1-23.5-22.9-72.4-35.1-105.5zm186.6 225.8c-9.7 0-18.4 1-27.6 1 1.6-32.6 3.1-87.2 3.1-124.4v-47.9c0-37.2-1.5-102.5-3.1-135.1 8.2 1 17.9 1 27.6 1 10.2 0 19.8-1 28-1-1.5 32.6-2 97.9-2 135.1v47.9c0 37.2 1 91.3 2.5 124.4-8.7-1-18.3-1-28.5-1zm177.4 4.6c-29.1 0-51.5-8.2-66.8-21.4-4.6 3-17.8 10.7-24.5 17.8h-12.2c2.5-32.1 3-86.7 3-123.9v-49.4c0-37.2-0.5-110.1-3-135.1 11.7 0.5 19.9 0.5 29.6 0.5 10.2 0 16.8-0.5 27.5-0.5-3.1 26-3.6 96.3-3.6 130v8.6h1.5c9.2-14.2 28.6-32.6 62.8-32.6 60.1 0 79.5 50.5 79.5 101.5-1 52-27.5 104.5-93.8 104.5zm-6.6-178.4c-21.5 0-35.7 17.3-41.3 40.7-3.6 15.3-3.6 33.2-3.6 50.5 0 40.8 14.3 67.3 43.3 67.3 31.6 0 45.4-36.2 45.4-81.1 0-38.7-10.7-77.4-43.8-77.4zm163.9-61.2c-15.7 0-28.3-13.5-28.3-30.1 0-16.6 12.6-30.1 28.3-30.1 15.6 0 28.3 13.5 28.3 30.1 0 16.6-12.7 30.1-28.3 30.1zm-0.3 235c-9.7 0-19.9 1-28 1 2.5-22.9 3-68.3 3-93.3v-18.8c0-24-0.5-60.2-3-83.7 8.1 0.6 18.3 0.6 28 0.6 9.7 0 19.4-0.6 27.5-0.6-1.5 24-2 58.7-2 83.7v18.8c0 25 0.5 69.9 3.1 93.3-9.2-1-18.9-1-28.6-1zm190.7-149.9l-3.6 1c-4.6-6.1-13.7-8.6-21.9-8.6-28 0-38.7 24.9-38.7 61.7v13.2c0 25 0.5 60.2 3 83.6-8.7-1-18.3-1-28-1-10.2 0-19.9 1-29.1 1 2-22.9 3.1-68.8 3.1-93.8v-18.9c0-24.4-1.1-57.1-3.1-84.6 8.2 1 18.4 1 28.1 1 9.6 0 20.3-1 26-1-1.6 8.7-2.6 26-2.6 41.8h1.5c13.3-26.5 32.2-43.8 57.6-43.8 9.2 0 16.4 1.5 20.9 3.5l0.6 2.6c-3.6 8.7-10.7 29.6-13.8 42.3zm178.4 107.1l6.2 3c-2.1 9.7-4.6 20.9-4.6 27-15.8 12.3-40.8 19.9-68.9 19.9-64.2 0-99.9-39.7-99.9-104 0-60.6 35.7-105.5 96.9-105.5 58.6 0 82.1 41.8 82.1 86.7 0 3.5-1.1 9.1-1.6 18.8l-2.5 2.6c-26.5-1-58.1-1-80.6-1h-41.8v5.1c0 38.2 16.8 70.8 63.2 70.8 24.5 0.5 42.9-10.2 51.5-23.4zm-82-72.9c16.3 0 34.1-1.1 43.3-1.1 0-28.5-2.1-66.2-34.2-66.2-29.5 0-39.2 40.8-39.2 67.3zm221.2 122.8c-74.9 0-100.9-56-100.9-104.5 0-58.1 33.6-103.5 100.9-103.5 70.9 0 102 44.4 102 103.5 1 60.7-37.7 104.5-102 104.5zm-45.3-104.5c0 35.7 7.6 84.1 46.4 84.1 38.2 0 46.4-46.9 46.4-84.1 0-37.2-8.2-84.1-46.4-84.1-38.3 0-46.4 46.4-46.4 84.1z"/>
		</g>
	</g>
</svg>