<svg version="1.2" xmlns="http://www.w3.org/2000/svg" viewBox="0 0 1578 516" width="1578" height="516">
	<title>Don't_Nod_Logo_2022 (1)-svg</title>
	<style>
		.s0 { fill: #009b96 } 
		.s1 { fill: #ffffff } 
	</style>
	<path id="Layer" class="s0" d="m241.2 452.2l-228.1-284.9-12.8-148.6 199.9-18.4z"/>
	<path id="Layer" class="s1" d="m485.5 276.1c0 131.1-89.1 237.3-198.6 237.3h-1.9v-474.3h1.6c109.8 0 198.5 106.2 198.9 237zm-475.3-45.4l189 283h-189z"/>
	<path id="Layer" class="s0" d="m1373.6 37.5l-49.6 49.9v-49.9z"/>
	<path id="Layer" fill-rule="evenodd" class="s1" d="m670.5 248.5h-97.3v-211h96.3c96 0 113.4 58.8 113.4 105.5-0.3 46.6-17.1 105.5-112.4 105.5zm-3.6-161.1h-35.8v111.4h37.1c49.3 0 56.2-22 56.2-55.8 0-33.2-7.2-55.6-57.5-55.6zm259.7 163.7c-75 0-115.1-44.7-115.1-107.1 0-62.2 39.8-109.2 115.1-109.2 75.9 0 115.3 47 115.3 109.2 0 62.7-41.4 107.1-115.3 107.1zm0-166c-40.5 0-57.2 23.4-57.2 59.2 0 34.5 16.4 57.2 57.2 57.2 40.7 0 56.8-22.4 56.8-57.2 0-35.2-16.4-59.2-56.8-59.2zm211 42.1h-0.7v121.3h-57.5v-211h47l100.9 119.9h0.7v-119.9h57.5v211h-47zm-506.2 264.9h-0.6v121.2h-57.6v-211h47l100.9 120h0.7v-120h57.5v211h-47.3zm300.7 124c-74.9 0-115-44.7-115-107.2 0-62.1 39.8-109.1 115-109.1 76 0 115.4 47 115.4 109.1 0 62.8-41.4 107.2-115.4 107.2zm0.4-166.4c-40.5 0-57.2 23.4-57.2 59.2 0 34.5 16.4 57.2 57.2 57.2 40.7 0 56.8-22.4 56.8-57.2 0-34.8-16.4-59.2-56.8-59.2zm250.1 163.7h-97.3v-211h96c96 0 113.4 58.9 113.4 105.5 0 46.7-16.5 105.5-112.1 105.5zm-3.6-161.3h-36.2v111.4h37.2c49.3 0 56.2-22.1 56.2-55.9 0.3-33.2-6.9-55.5-57.2-55.5zm398-314.6v50h-72.9v161h-57.6v-161h-72.9l49.9-50z"/>
</svg>