<svg version="1.2" xmlns="http://www.w3.org/2000/svg" viewBox="0 0 1517 1579" width="1517" height="1579">
	<title>ALGN_BIG copy-svg</title>
	<style>
		.s0 { fill: #3d3935 } 
	</style>
	<path id="Layer" fill-rule="evenodd" class="s0" d="m1176.2 42.4h340.7v1493.2h-340.7l-5.3-156.3c-30.5 30.5-63.5 58.2-99 82.5-35.5 24.3-73.4 44.9-113 62.3-39.2 16.9-80.5 30.1-122.5 39.2-42.1 9-85 14-127.9 14.8-406.7-0.4-708.2-327.9-708.2-787 0-489.7 326.7-790.4 708.2-790.4 43.3-1.2 86.6 2.1 129.1 10.3 42.5 8.3 84.1 20.7 124.2 38 39.6 17.3 77.5 38.3 112.6 63.9 35 25.2 67.6 54.5 96.5 86.6zm-823.7 748.7c0 286.7 175.3 477.7 419.5 477.7 222.3 0 421.1-163.3 421.1-477.7 0-306.9-190.6-477.6-419.9-477.6-256.1 0-420.7 200.8-420.7 477.6z"/>
</svg>