<svg version="1.2" xmlns="http://www.w3.org/2000/svg" viewBox="0 0 1554 976" width="1554" height="976">
	<title>Alaska_Airlines_logo-svg</title>
	<style>
		.s0 { fill: #00385f } 
	</style>
	<g id="layer1">
		<path id="path6827" class="s0" d="m1553 0.4c0 0-24.4 37.6-52.5 83.6l-402.8 671.7c-44 73.2-68.5 147.3-75 218.6h-170.8c10.3-84.4 41.2-163.2 104.2-273l295.6-478.5-397.9 287.2h188.6c0 0-63.8 101.2-178.3 104.1-1.1 0-66.7 1.8-162.4 5.7l-492.8 355.6h-208.5l481.6-347.3c-225.3 8.5-467.4 17.9-467.4 17.9l83.5-77c58.2-55.3 133.2-59 226.2-59h322l503.1-362.2c148.3-107 227.2-147.4 378.3-147.4 0 0 25.3 0 25.3 0z"/>
	</g>
</svg>