<svg version="1.2" xmlns="http://www.w3.org/2000/svg" viewBox="0 0 1567 475" width="1567" height="475">
	<title>Alaska_Airlines_logo-svg</title>
	<style>
		.s0 { fill: #ffffff } 
	</style>
	<g id="layer1">
		<path id="path6827" class="s0" d="m654.6 0.6c0 0-10.3 15.8-22.1 35.2l-169.7 283c-18.5 30.8-28.8 62-31.6 92.1h-72c4.4-35.6 17.4-68.8 43.9-115l124.6-201.6-167.6 121h79.4c0 0-26.9 42.6-75.1 43.8-0.5 0-28.1 0.8-68.4 2.4l-207.6 149.8h-87.8l202.9-146.3c-94.9 3.6-196.9 7.6-196.9 7.6l35.1-32.5c24.6-23.3 56.1-24.8 95.3-24.8h135.7l211.9-152.6c62.4-45.1 95.7-62.1 159.3-62.1 0 0 10.7 0 10.7 0z"/>
		<path id="path6811" fill-rule="evenodd" class="s0" d="m768.5 19.5h-0.2l0.2-0.3c0 0 0 0.3 0 0.3zm-178.7 299.7c-18.7 30.8-28.9 62-31.7 92.1h-70c4.8-38 19.8-73.9 50.3-125.7l124.9-209.5c24.9-41.5 49.8-56.6 94.9-56.6h10.1zm323-133.9l-79.5 132.4c-20.9 37.5-30.4 68.3-32.8 93.2h-63.7c-0.8-7.8 0.4-20.9 2.8-30.4-28.1 19.4-68 32.4-91.7 32.8-41.9 0.4-34.8-35.5-22.5-64.4 49-115.4 104.7-168.4 195.2-168.4 31.3 0 62.1 1.6 92.2 4.8zm-88.6 35.5h-8.7c-48.6-0.3-88.5 38-126.1 110.3-9.9 19-9.1 32.8 5.6 33.6 21.3-0.4 46.6-18.6 59.6-30.8zm742.2-35.5l-79.1 132.3c-21 37.6-30.5 68.4-32.8 93.3h-63.7c-0.8-7.9 0.4-21 2.8-30.5-28.1 19.4-68 32.5-91.7 32.9-42 0.4-34.8-35.6-22.6-64.4 49.1-115.5 104.8-168.4 195.3-168.4 30.9 0 61.7 1.6 91.8 4.8zm-88.2 35.5h-8.7c-48.6-0.4-88.5 37.9-126.1 110.3-9.9 18.9-9.2 32.8 5.5 33.5 21.3-0.4 46.7-18.5 59.7-30.8zm-210.4 254.2h-21c-26.8 0-50.6-18.2-57.7-43.9l-31.6-119.3-58.9 99.2h-67.7l189.1-320.2c24.5-41.5 49.8-56.5 94.9-56.5h7.1l-125.8 212.2 94.1-64.8h75.6l-158.6 109.5zm-286.2-229.6c-0.9 5.9 1.6 9.9 13.8 17.8l19.4 12.6c21 13.9 29.6 34.8 26.9 51.8-7.2 47.4-42 85.7-116.3 85.7-32.4 0-47-1.1-85.8-7.4l28.9-48.7c26.9 4.8 41.9 7.2 62 7.2 28.2 0 39.2-12.7 40.8-23 0.8-5.9-2-13-15.4-22.1l-15.5-11c-24.5-17.8-31.2-31.7-28-53.4 6.3-41.9 54.9-74.3 122.1-74.3 21.4 0 44.3 1.2 69.6 3.9l-27.2 45.9c-16.7-1.2-43.5-2.8-62.5-2-19 0.4-31.6 7.1-32.8 17z"/>
	</g>
</svg>