<svg version="1.2" xmlns="http://www.w3.org/2000/svg" viewBox="0 0 1512 466" width="1512" height="466">
	<title>almirall_logo-footer-svg</title>
	<style>
		.s0 { fill: #00f0be } 
		.s1 { fill: #ffffff } 
	</style>
	<g id="Asset-Artboard-Page">
		<g id="_Assets-/-Company-Logo">
			<g id="Recurso-1">
				<path id="Shape" fill-rule="evenodd" class="s0" d="m268.7 29.3c-0.1 12.1-6.8 23.1-17.5 28.7l-152.3 79.8v-29.3c-0.1-12 6.7-23.1 17.4-28.7l152.4-79.7zm0.4 97.4c-0.1 12-6.8 23-17.6 28.5l-152.3 79.8v-29.3c0.1-12 6.9-22.9 17.6-28.5l152.3-79.7zm79.8 165.6c0 47.1-19.3 92.1-53.4 124.7-34.1 32.6-80.2 50-127.5 48.1-89.7-3.7-162-74.5-167-163.6-2.3-41.5 10.6-82.4 36.3-115.1 1-1.4 2.7-2.2 4.5-2 1.7 0.1 3.2 1.1 4.1 2.6l16.2 29.4c1.3 2.3 1.2 5.1-0.2 7.4-12.7 20.6-19.4 44.4-19.4 68.6-0.1 36.3 15 71.1 41.7 95.9 26.6 24.9 62.5 37.7 99 35.4 64.3-4.3 116.2-53.7 123.2-117.3 1.8-16.7 0.4-33.7-4.2-49.9-0.9-2.8 0.3-5.7 2.8-7.1l27.7-14.5c1.3-0.7 2.9-0.7 4.3-0.2 1.3 0.5 2.4 1.7 2.9 3.1 5.9 17.5 9 36 9 54.5zm-232.1-17.6l152.3-79.8v29.3c-0.1 12-6.9 23-17.6 28.5l-152.3 79.8v-29.3c0.1-12 6.9-23 17.6-28.5z"/>
				<path id="Shape" fill-rule="evenodd" class="s1" d="m1511.8 163.8v223.9h-41.8v-213zm-387.8 84.4v-0.5q-0.2 0.2-0.3 0.4zm0-0.4c9.4-11.2 26.4-18.4 45-18.4q7.2 0.1 14.2 1.3l-4.7 38.7c-5-1.2-10-1.8-15.1-1.6-15.6 0.6-29.8 9-37.8 22.3v97.6h-41.8v-155.1h40.2zm186.7-15.2h40.3v155.1h-40.3v-12.5c-12 10.3-27.5 15.9-43.4 15.7-22.5 0.1-43.9-9.5-58.8-26.2-13-15.2-20.1-34.5-20-54.4 0-45.7 34.1-80.9 76.6-80.9 16.4-0.1 32.4 5.4 45.2 15.6zm-2.2 54.3c-9.1-12.2-23.5-19.3-38.7-19.2-24.4 0-40.2 20.1-40.2 42.5-0.4 11.1 3.7 21.9 11.5 29.9 7.8 8 18.5 12.4 29.7 12.3 15 0.2 29.1-7 37.8-19.2zm80.6-112.1l41.8-10.9v223.8h-41.8zm-345.5-12.3c5.2 5 8.1 11.8 8.1 19 0 7.1-2.9 14-8.1 19-5.1 5-12.1 7.7-19.3 7.5-7.2 0.2-14.1-2.5-19.3-7.5-5.1-5-8-11.9-8-19.1 0-7.1 2.9-13.9 8.1-18.9 5.1-5 12-7.7 19.2-7.6 7.2-0.1 14.2 2.6 19.3 7.6zm-495.7 70.2h40.2v155.2h-40.2v-12.5c-12.1 10.1-27.4 15.6-43.3 15.3-22.5 0.1-43.9-9.5-58.8-26.2-13-15.2-20.1-34.4-20-54.4 0-45.7 34.1-80.9 76.6-80.9 16.6-0.2 32.7 5.4 45.7 15.7zm-1.6 54.1c-9.1-12.1-23.4-19.2-38.6-19.2-24.5 0-40.3 20.2-40.3 42.6-0.4 11.1 3.7 21.9 11.5 29.9 7.8 8 18.6 12.4 29.7 12.3 15 0.2 29.2-7 37.8-19.2zm80.4-112l41.9-10.9v223.9h-41.9zm270.5 54.7c21.1-0.1 41.1 9 54.7 24.9 10 12.2 15.8 28.2 15.8 51.2v82h-41.4v-83.9c0-14-3-21.1-7.7-26.5-6.2-6.2-14.7-9.7-23.6-9.3-15.1 0.6-29 8.1-37.8 20.4q1.3 8.6 1.4 17.3v82h-41.9v-83.9c0-14-3-21.1-7.7-26.5-6.2-6.3-14.8-9.7-23.6-9.3-14.4 0.6-27.7 7.7-36.3 19.1v100.8h-41.9v-155.1h40.2v12.5c11.6-10.3 26.7-15.9 42.2-15.7 20.3-0.1 39.5 8.8 52.4 24.3 14.4-15.2 34.4-24 55.4-24.3zm106 3.2h41.9v155.1h-41.9z"/>
			</g>
		</g>
	</g>
</svg>