<svg version="1.2" xmlns="http://www.w3.org/2000/svg" viewBox="0 0 1530 1530" width="1530" height="1530">
	<title>almfff-svg</title>
	<style>
		.s0 { fill: #00b9ea } 
		.s1 { fill: #ffffff } 
	</style>
	<path id="Layer" class="s0" d="m0 0h1530v1530h-1530z"/>
	<path id="Layer" fill-rule="evenodd" class="s1" d="m729.7 1015.7c53 0 75.3 22.3 76.5 63.5 0 34.2-1.2 64.8-1.2 102.4 0 28.3 13 25.9 36.5 16.5l4.7 10.6c-17.6 12.9-36.5 20-56.5 20-20 0-36.5-8.2-37.6-29.4-8.3 14.1-35.4 30.6-62.4 31.8-36.5 0-64.8-17.7-64.8-48.3 0-37.7 42.4-60 115.4-61.2h8.2v-37.7c0-45.9-31.8-56.4-64.7-47 0 0 9.4 34.1-5.9 61.2 0 0-40 3.5-40-31.8-1.2-29.4 49.4-50.6 91.8-50.6zm12.9 117.7c-41.2 1.2-56.5 14.1-56.5 41.2 0 16.4 10.6 31.7 29.5 31.7 11.7 0 25.9-7 34.1-20v-52.9zm-304.8-309.6l-4.7 15.3h-127.1l4.7-15.3 27-9.4v-69.4h-101.2l-49.4 69.4 38.8 9.4-4.7 15.3h-95.3l4.7-15.3 25.9-9.4 193-254.2h50.6v254.2zm-100-220.1l-84.8 118.9h84.8zm1074.5 616.7l-87.1 10.6-5.9-28.2c-12.9 11.7-34.1 27-64.7 27-58.8 0-104.7-31.7-104.7-97.6 0-71.8 52.9-116.6 125.9-116.6 14.1 0 31.8 3.6 42.4 9.5v-80.1l-34.2-10.6v-11.7l91.8-13v288.4l36.5 7zm-94.1-177.7c-9.5-7.1-22.4-11.8-35.4-11.8-42.3 0-70.6 34.2-70.6 97.7 0 44.7 15.3 81.2 56.5 81.2 18.9 0 38.9-12.9 49.5-25.9zm-756.8 169.5v15.3h-141.2v-15.3l36.4-9.4v-151.8l-34.1-10.6v-11.8l91.8-12.9v35.3c3.5-8.3 28.3-34.2 58.9-34.2 28.2 0 40 16.5 40 40.1 0 18.8-20 35.3-38.9 35.3 0 0-20-16.5-14.1-55.3-9.4 1.1-37.6 15.3-44.7 31.7v133zm446 14.1v-14.1l27.1-9.4v-113c0-34.1-7-49.4-30.6-49.4-25.9 0-45.9 17.6-56.5 32.9v129.5l36.5 9.4v15.3h-128.3v-15.3l34.2-9.4v-151.8l-34.2-10.6v-11.8c27.1-3.5 91.8-12.9 91.8-12.9v38.8c13-18.8 42.4-38.8 76.5-38.8 53 0 69.5 31.8 69.5 72.9 0 25.9 1.1 60.1 0 113l36.4 9.4v15.3zm-467.2-673.2l-38.8-1.1v-13l105.9-16.5c0 0-67.1 203.7-90.6 276.6-2.4 4.7-1.2 13 8.2 13 3.5 0 8.2 0 27.1-11.8l7 8.2c-23.5 25.9-43.5 34.2-62.3 34.2-30.6 0-33-29.5-33-37.7 0-8.2 2.4-20 4.7-25.9 27.1-84.7 73-227.1 71.8-226zm118.9 121.3c1.2-4.7 3.5-14.2-5.9-14.2-3.5 0-10.6 1.2-29.4 13l-7.1-9.4c23.5-25.9 43.6-34.2 62.4-34.2 30.6 0 31.8 25.9 31.8 34.2 0 21.2-17.7 63.5-17.7 63.5 33-54.1 85.9-97.7 118.9-97.7 17.6 0 31.8 13 29.4 30.6-2.4 14.2-16.5 44.8-24.7 66 29.4-47.1 83.5-97.7 120-97.7 20 0 34.2 14.1 31.8 32.9-1.2 5.9-21.2 64.8-44.7 137.7-2.4 4.7-1.2 13 8.2 13 3.6 0 8.3 0 27.1-11.8l4.7 7.1c-23.5 25.9-43.5 34.1-62.4 34.1-30.6 0-32.9-29.4-32.9-37.7 0-8.2 3.5-20 4.7-25.9 28.2-90.6 44.7-121.2 32.9-121.2-22.3 0-88.2 73-100 113l-20 68.3h-55.3c0 0 16.4-48.3 28.2-87.1 22.4-75.4 33-93 22.4-93-22.4 0-88.3 73-100.1 113l-20 68.2h-55.3c0 0 28.3-91.8 53-164.7zm-528.5 536.6l41.2-9.4v-228.3l-41.2-9.4v-15.3h138.9c93 0 113 37.7 113 65.9 0 41.2-55.3 64.7-82.4 65.9 29.4 2.4 100.1 13 100.1 69.4 0 47.1-47.1 77.7-124.8 77.7h-144.8zm103.6-137.7c3.5 0 11.8 1.2 22.4 1.2 29.4 0 60-9.4 60-56.5 0-44.7-28.3-51.8-62.4-51.8-2.3 0-10.6 0-20 2.4zm97.7 77.7c0-38.9-17.7-61.2-73-61.2-11.7 0-23.5 0-24.7 1.1v115.4c0 0 16.5 4.7 41.2 4.7 34.1-1.2 56.5-17.7 56.5-60z"/>
</svg>