<svg version="1.2" xmlns="http://www.w3.org/2000/svg" viewBox="0 0 1550 414" width="1550" height="414">
	<title>Allena-Pharmaceuticals-logo-svg</title>
	<style>
		.s0 { fill: #2aaed1 } 
		.s1 { fill: #ee6e32 } 
		.s2 { fill: #ffffff } 
	</style>
	<g id="Group_46">
		<path id="Path_7755" fill-rule="evenodd" class="s0" d="m425.8 401.7l-186.7-150.5-15.4-12.4-38.1-30.7c-19.5-15.7-12.6-47.9 10.1-58.3l92.1-42 0.1 0.1 72.4-33.1c14.7-6.7 37.9 4.7 42.8 21.7l74 255.5c14 48.2-14.9 79-51.3 49.7zm1-159.3l-23.1-89.8c-9.5-36.7-52.6-59.7-81.4-46.1l-28.8 13.5 0.1 0.1-32.7 15.5c-33.7 15.9-41.5 66.6-11.1 97.5q2.1 2.1 4.5 4.1 1.2 1.2 2.6 2.2l85.1 65.9c52 40.2 100.7-1.1 84.8-62.9z"/>
		<path id="Path_7756" class="s1" d="m316.8 228.7l-41.6 11.9-14.5-11.3c36.8-9.4 59.8-52.6 46.1-81.3l-29.1-61.4c-17.1-36-74.1-42.4-103.9-3.9l-65.8 85c-40.3 52 1.1 100.6 62.9 84.7l52.8-13.6 15.4 12.4-177.9 51.5c-48.2 14-79.1-14.9-49.8-51.3l193.7-240c15.8-19.5 48-12.6 58.4 10.1l75.1 164.5c6.7 14.6-4.8 37.8-21.8 42.7z"/>
		<path id="Path_7757" fill-rule="evenodd" class="s2" d="m683.6 38.9l118.2 253.1h-27.4l-39.8-83.3h-109.1l-39.5 83.3h-28.2l119.7-253.1zm-3.2 53.7l-43.4 91.7h86.6zm145.9-60.2h24.1v259.5h-24.1zm63.5 0h24.1v259.5h-24.1zm216.5 197.4l20.3 10.6q-2.2 4.5-4.7 8.7-2.6 4.2-5.5 8.2-2.9 4-6.1 7.7-3.3 3.7-6.8 7.1-3.2 3-6.7 5.6-3.5 2.7-7.2 5-3.7 2.3-7.6 4.2-3.9 2-8 3.5-4.4 1.6-9 2.9-4.6 1.2-9.2 2-4.7 0.8-9.4 1.1-4.7 0.4-9.4 0.3-45.9 0-71.7-30c-4.2-4.6-7.9-9.6-11.1-14.9-3.2-5.3-6-10.9-8.2-16.7-2.2-5.8-3.8-11.7-4.9-17.8-1.2-6.1-1.7-12.3-1.7-18.5q-0.1-8.6 1.3-17.1 1.4-8.4 4.2-16.5 2.8-8.2 6.9-15.7 4.1-7.5 9.5-14.2c4.3-5.7 9.3-10.8 14.8-15.4 5.5-4.5 11.6-8.3 18-11.4 6.5-3 13.2-5.3 20.2-6.8 7-1.5 14.1-2.1 21.3-1.8 7.3-0.3 14.7 0.4 21.8 1.8 7.2 1.5 14.2 3.9 20.8 7 6.7 3.2 12.9 7.1 18.6 11.7 5.7 4.7 10.8 9.9 15.3 15.8q5.2 6.8 9.2 14.4 4 7.6 6.6 15.8 2.6 8.2 3.9 16.7 1.2 8.5 1 17.1h-168.6c-0.1 4.9 0.3 9.8 1.2 14.6 0.9 4.8 2.2 9.6 4 14.2 1.8 4.5 4 8.9 6.6 13.1 2.7 4.1 5.7 8 9.1 11.6 3.1 3.3 6.7 6.4 10.5 9 3.8 2.6 7.9 4.9 12.2 6.7 4.2 1.8 8.7 3.1 13.3 4 4.5 0.8 9.2 1.2 13.8 1.1q3.5 0 7.1-0.3 3.5-0.3 7-0.9 3.5-0.7 7-1.6 3.4-0.9 6.7-2.2 3.2-1.1 6.2-2.5 3-1.3 5.9-3 2.9-1.7 5.7-3.6 2.7-1.9 5.2-4.1 3.1-2.9 5.9-6 2.8-3.1 5.4-6.5 2.6-3.3 4.9-6.8 2.3-3.5 4.4-7.2zm0-50.4q-0.9-4.2-2.3-8.3-1.3-4-3.1-7.9-1.8-3.9-4-7.6-2.1-3.6-4.7-7.1-2.4-3-5.2-5.6-2.8-2.7-5.9-5.1-3.1-2.3-6.4-4.3-3.3-2-6.9-3.5-3.7-1.8-7.6-3.1-3.9-1.3-7.9-2.2-4.1-0.9-8.2-1.4-4.1-0.4-8.2-0.4-6.5-0.1-12.9 1-6.4 1.1-12.5 3.3-6.1 2.3-11.6 5.7-5.6 3.4-10.4 7.7-4 4-7.5 8.4-3.4 4.5-6.2 9.4-2.8 4.9-4.8 10.2-2.1 5.3-3.4 10.7zm58.8-74.6h24.1v33.5q3.1-4.4 6.8-8.5 3.6-4 7.6-7.6 4.1-3.7 8.5-6.9 4.4-3.1 9.1-5.8 4.4-2.4 9-4.2 4.7-1.8 9.5-3 4.8-1.2 9.8-1.8 4.9-0.6 9.9-0.6 5-0.1 9.8 0.6 4.9 0.6 9.7 2 4.7 1.3 9.2 3.4 4.5 2 8.6 4.7 4 2.6 7.6 5.8 3.5 3.1 6.6 6.8 3 3.6 5.5 7.7 2.5 4.1 4.3 8.5 7.8 18 7.8 56.2v96.4h-24.1v-89.3q0.2-5.5 0.1-10.9-0.1-5.4-0.4-10.8-0.3-5.4-0.9-10.8-0.6-5.4-1.5-10.7-0.7-4.1-2.1-8-1.4-3.8-3.5-7.4-2-3.6-4.7-6.8-2.6-3.1-5.8-5.8-3.3-2.4-7-4.3-3.7-1.8-7.7-3-3.9-1.2-8-1.7-4.1-0.6-8.3-0.4-5.3 0-10.6 0.9-5.3 1-10.3 2.8-5 1.9-9.6 4.6-4.6 2.7-8.6 6.2-4.2 3.4-7.8 7.4-3.6 4.1-6.5 8.6-2.9 4.6-5.1 9.6-2.1 4.9-3.5 10.2-1 6.3-1.8 12.6-0.8 6.4-1.2 12.8-0.4 6.3-0.5 12.7-0.1 6.4 0.1 12.8v68.7h-24.1zm378.4 0v187.2h-23.7v-32.2q-3.5 4.3-7.4 8.2-3.9 4-8.2 7.5-4.2 3.5-8.9 6.5-4.6 3-9.5 5.5c-9 4.3-18.5 7.1-28.3 8.4-9.8 1.4-19.7 1.2-29.5-0.6-9.7-1.7-19.1-5-27.8-9.6-8.8-4.7-16.7-10.6-23.6-17.7-4.6-4.6-8.7-9.6-12.2-15-3.6-5.5-6.6-11.2-9-17.2-2.4-6-4.2-12.3-5.4-18.6-1.2-6.4-1.7-12.9-1.6-19.3-0.1-6.4 0.5-12.8 1.7-19.1 1.2-6.3 3-12.5 5.4-18.4 2.5-6 5.5-11.6 9.1-17 3.6-5.3 7.7-10.2 12.2-14.7 4.4-4.6 9.3-8.8 14.5-12.4 5.3-3.6 10.8-6.7 16.7-9.1 5.9-2.5 12-4.3 18.2-5.6 6.3-1.2 12.6-1.8 19-1.7q5.4 0 10.8 0.5 5.4 0.6 10.7 1.9 5.3 1.2 10.3 3.1 5.1 1.9 9.9 4.3 4.9 2.7 9.5 5.9 4.5 3.2 8.7 6.9 4.1 3.7 7.8 7.9 3.7 4.2 6.8 8.8v-34.4zm-96.3 18.4c-6.5-0.1-13 0.7-19.3 2.4-6.3 1.7-12.4 4.2-18 7.5-5.6 3.3-10.8 7.4-15.3 12.1-4.6 4.6-8.5 9.9-11.6 15.6-3.3 5.7-5.8 11.9-7.5 18.3-1.7 6.3-2.6 12.9-2.6 19.5 0 6.6 0.9 13.2 2.6 19.6 1.7 6.4 4.3 12.5 7.6 18.2q2.3 4.4 5.3 8.4 2.9 4 6.4 7.5 3.4 3.6 7.3 6.6 3.9 3.1 8.2 5.6 4.1 2.5 8.6 4.4 4.4 1.9 9.1 3.2 4.6 1.2 9.4 1.9 4.8 0.6 9.6 0.6 4.9 0 9.8-0.6 4.9-0.7 9.6-1.9 4.8-1.3 9.3-3.2 4.6-1.8 8.8-4.3 4.3-2.3 8.2-5.2 3.9-2.9 7.3-6.4 3.5-3.4 6.4-7.3 3-3.8 5.4-8.1 2.4-4.3 4.2-9 1.8-4.7 3-9.5 1.2-4.9 1.8-9.8 0.6-5 0.5-10c0.2-5-0.2-10-1.1-14.9-0.9-5-2.2-9.8-4-14.4-1.9-4.7-4.2-9.1-6.9-13.3-2.7-4.2-5.9-8.1-9.4-11.7-3.4-3.5-7.1-6.7-11.2-9.5-4-2.7-8.3-5.1-12.9-7-4.5-1.8-9.2-3.2-14-4.1-4.8-0.9-9.7-1.3-14.6-1.2zm-887.2 226.7h10.5q1.5 0 3.1 0 1.5 0 3 0.1 1.5 0.1 3.1 0.3 1.5 0.2 3 0.4 1.1 0.3 2.1 0.7 1 0.4 1.9 1 1 0.6 1.8 1.3 0.9 0.7 1.6 1.6 1.3 1.9 2.1 4.1 0.7 2.2 0.7 4.6 0 2.3-0.7 4.5-0.7 2.2-2.1 4.1-0.7 0.9-1.6 1.7-0.9 0.7-1.8 1.3-1 0.6-2.1 1-1.1 0.4-2.2 0.7-1.6 0.2-3.3 0.4-1.7 0.2-3.3 0.3-1.7 0.1-3.4 0.2-1.7 0-3.3-0.1h-3.8v24.5h-5.3zm5.3 5.1v17.9l8.9 0.1q1 0 2 0 1-0.1 2-0.2 1-0.1 2-0.3 1-0.2 1.9-0.5 0.6-0.2 1.2-0.6 0.5-0.3 1-0.7 0.5-0.4 1-0.9 0.4-0.5 0.8-1 0.3-0.5 0.6-1.1 0.3-0.6 0.4-1.3 0.2-0.6 0.3-1.2 0.1-0.7 0.1-1.3 0-0.7-0.1-1.3-0.1-0.6-0.3-1.2-0.2-0.7-0.4-1.2-0.3-0.6-0.6-1.2-0.4-0.5-0.8-0.9-0.4-0.5-0.9-0.9-0.5-0.4-1-0.7-0.5-0.3-1.1-0.6-1-0.3-1.9-0.5-1-0.2-1.9-0.3-1-0.1-2-0.1-0.9-0.1-1.9 0zm60.1-5.1h5.2v22h26.9v-22h5.2v52.6h-5.2v-25.4h-26.9v25.4h-5.2zm93.6 0l24.6 52.6h-5.7l-8.3-17.3h-22.6l-8.3 17.3h-5.8l24.9-52.6zm-0.7 11.2l-9 19h18zm55.6-11.2h10.5q1.5 0 3 0 1.5 0 3 0.1 1.5 0.1 2.9 0.3 1.5 0.1 3 0.3 1.1 0.3 2.2 0.7 1 0.4 2 1 1 0.6 1.8 1.3 0.9 0.8 1.6 1.7 0.8 0.9 1.3 1.9 0.6 1 1 2.1 0.3 1.2 0.5 2.3 0.2 1.2 0.2 2.4 0 0.9-0.1 1.9-0.2 1-0.4 2-0.3 0.9-0.7 1.9-0.4 0.9-0.9 1.7-0.5 0.8-1.1 1.6-0.6 0.7-1.4 1.3-0.7 0.7-1.5 1.2-0.9 0.5-1.7 0.8-1.3 0.5-2.6 0.9-1.2 0.3-2.6 0.5-1.3 0.2-2.6 0.3-1.3 0.1-2.6 0l18.9 24.5h-6.5l-18.9-24.5h-3v24.4h-5.3zm5.3 5.2v17.9h9.1q0.9 0.1 1.9 0 1 0 2-0.1 1-0.2 1.9-0.4 1-0.2 1.9-0.5 0.7-0.2 1.2-0.5 0.6-0.4 1.1-0.8 0.5-0.4 0.9-0.9 0.4-0.4 0.8-1 0.3-0.5 0.6-1.1 0.3-0.6 0.5-1.2 0.1-0.7 0.2-1.3 0.1-0.6 0.1-1.3 0-0.6-0.1-1.3-0.1-0.6-0.2-1.2-0.2-0.6-0.5-1.2-0.3-0.6-0.6-1.1-0.4-0.5-0.8-1-0.4-0.5-0.9-0.9-0.4-0.3-1-0.7-0.5-0.3-1.1-0.5-0.9-0.3-1.9-0.5-1-0.2-1.9-0.3-1-0.1-2-0.1-1-0.1-1.9 0zm58.5 47.5l7.6-52.7h0.8l21.4 43.2 21.2-43.2h0.9l7.5 52.7h-5.1l-5.2-37.7-18.6 37.7h-1.4l-18.8-38-5.2 38zm113.3-52.7l24.5 52.7h-5.7l-8.2-17.4h-22.7l-8.2 17.4h-5.9l24.9-52.7zm-0.7 11.2l-9 19.1h18zm104.4-1.5l-4.2 3.2q-0.8-1-1.7-2-0.9-1-2-1.8-1-0.9-2.2-1.6-1.1-0.8-2.3-1.4-1.2-0.5-2.5-1-1.3-0.4-2.7-0.7-1.3-0.3-2.7-0.4-1.3-0.2-2.7-0.2-1.5 0-3 0.2-1.5 0.2-3 0.6-1.5 0.4-2.9 0.9-1.4 0.6-2.8 1.4-1.3 0.7-2.4 1.6-1.2 0.8-2.3 1.9-1 1-1.9 2.2-0.9 1.1-1.7 2.4-0.7 1.3-1.3 2.7-0.6 1.4-0.9 2.8-0.4 1.5-0.6 3-0.2 1.5-0.1 3-0.1 2.2 0.3 4.4 0.4 2.2 1.3 4.3 0.8 2.1 2.1 3.9 1.3 1.9 2.9 3.4 1.6 1.6 3.6 2.9 1.9 1.2 4 2 2.2 0.9 4.5 1.2 2.2 0.4 4.5 0.4 2.7 0 5.3-0.6 2.6-0.5 5-1.7 2.4-1.1 4.5-2.7 2.1-1.6 3.7-3.7l4.2 3.1q-1 1.3-2.1 2.4-1.1 1.1-2.4 2.1-1.2 1-2.6 1.8-1.3 0.8-2.7 1.5-1.6 0.7-3.2 1.2-1.6 0.5-3.3 0.9-1.6 0.3-3.3 0.5-1.7 0.2-3.4 0.1-3.1 0.2-6.1-0.4-3-0.5-5.8-1.7-2.9-1.2-5.4-3-2.5-1.8-4.5-4.1-1.7-1.9-2.9-4.1-1.3-2.2-2.2-4.6-0.8-2.4-1.2-4.9-0.4-2.6-0.4-5.1 0-2.7 0.5-5.4 0.5-2.7 1.5-5.2 1.1-2.5 2.6-4.7 1.6-2.3 3.5-4.2 2-1.9 4.4-3.4 2.4-1.5 5-2.6 2.6-1 5.4-1.5 2.7-0.4 5.5-0.4 1.8 0 3.5 0.2 1.7 0.2 3.4 0.5 1.7 0.4 3.3 1 1.6 0.5 3.2 1.3 1.4 0.7 2.8 1.5 1.3 0.9 2.5 1.9 1.3 1.1 2.4 2.3 1.1 1.1 2 2.4zm32.6-9.7h30.1v5.1h-24.9v16.5h24.7v5.1h-24.7v20.8h24.7v5.1h-29.9zm61.4 0h5.3v31.8q-0.1 0.9 0 1.7 0 0.9 0 1.8 0 0.9 0.1 1.8 0 0.8 0.1 1.7 0.1 0.7 0.2 1.4 0.2 0.7 0.4 1.3 0.2 0.7 0.5 1.3 0.3 0.6 0.7 1.2 0.4 0.6 0.9 1.1 0.5 0.5 1.1 1 0.5 0.4 1.1 0.8 0.7 0.4 1.3 0.6 0.7 0.4 1.4 0.6 0.8 0.3 1.5 0.5 0.8 0.2 1.5 0.2 0.8 0.1 1.6 0.1 0.6 0 1.3 0 0.6-0.1 1.3-0.2 0.6-0.2 1.2-0.4 0.6-0.2 1.2-0.5 0.6-0.2 1.1-0.6 0.6-0.3 1.1-0.7 0.5-0.4 1-0.8 0.4-0.4 0.8-0.9 0.4-0.6 0.8-1.1 0.4-0.6 0.7-1.2 0.2-0.6 0.5-1.2 0.2-0.7 0.4-1.3 0.1-1 0.3-2 0.1-1.1 0.2-2.1 0-1 0-2.1 0-1 0-2v-31.8h5.3v31.8q0 1.4-0.1 2.9 0 1.4-0.2 2.8-0.2 1.5-0.5 2.9-0.2 1.4-0.6 2.8-0.4 1.1-0.9 2.2-0.6 1-1.3 2-0.7 0.9-1.5 1.8-0.9 0.8-1.8 1.5-1.1 0.9-2.3 1.5-1.2 0.6-2.5 1-1.2 0.4-2.6 0.6-1.3 0.2-2.6 0.2-1.5 0-2.9-0.2-1.4-0.1-2.8-0.5-1.4-0.4-2.7-1-1.3-0.6-2.6-1.4-1-0.7-2-1.6-0.9-0.8-1.7-1.9-0.8-1-1.4-2.1-0.6-1.2-0.9-2.4-0.3-1.4-0.6-2.8-0.2-1.4-0.3-2.7-0.1-1.4-0.1-2.8-0.1-1.4 0-2.8zm64.6 5.1v-5.1h28.8v5.1h-11.7v47.5h-5.4v-47.5zm57.7-5.1h5.3v52.6h-5.3zm88.4 9.8l-4.2 3.2q-0.8-1.1-1.7-2.1-1-1-2-1.8-1-0.9-2.2-1.6-1.1-0.7-2.3-1.3-1.3-0.6-2.6-1.1-1.3-0.4-2.6-0.7-1.3-0.3-2.7-0.4-1.3-0.1-2.7-0.1-1.5 0-3.1 0.1-1.5 0.2-2.9 0.6-1.5 0.4-2.9 1-1.5 0.5-2.8 1.3-1.3 0.7-2.5 1.6-1.1 0.9-2.2 1.9-1.1 1-2 2.2-0.9 1.1-1.6 2.4-0.7 1.3-1.3 2.7-0.6 1.4-0.9 2.8-0.4 1.5-0.6 3-0.2 1.5-0.2 3 0 2.2 0.4 4.4 0.4 2.2 1.3 4.3 0.8 2.1 2.1 3.9 1.2 1.9 2.8 3.4 1.7 1.6 3.6 2.9 2 1.2 4.1 2 2.2 0.9 4.4 1.3 2.3 0.4 4.6 0.3 2.7 0 5.3-0.5 2.6-0.6 5-1.7 2.4-1.2 4.4-2.8 2.1-1.6 3.8-3.7l4.2 3.2q-1 1.2-2.1 2.3-1.1 1.1-2.4 2.1-1.2 1-2.6 1.8-1.3 0.9-2.8 1.5-1.5 0.7-3.1 1.2-1.6 0.6-3.3 0.9-1.6 0.4-3.3 0.5-1.7 0.2-3.4 0.1-3.1 0.2-6.1-0.3-3-0.6-5.9-1.8-2.8-1.2-5.3-3-2.5-1.7-4.5-4-1.7-2-3-4.2-1.2-2.2-2.1-4.6-0.8-2.4-1.3-4.9-0.4-2.5-0.3-5.1-0.1-2.7 0.5-5.4 0.5-2.7 1.5-5.2 1.1-2.5 2.6-4.7 1.5-2.3 3.5-4.1 2-2 4.4-3.5 2.4-1.5 5-2.5 2.6-1.1 5.4-1.5 2.7-0.5 5.5-0.4 1.8-0.1 3.5 0.1 1.7 0.2 3.4 0.6 1.6 0.3 3.3 0.9 1.6 0.5 3.2 1.3 1.4 0.7 2.7 1.6 1.4 0.8 2.6 1.9 1.3 1 2.4 2.2 1 1.2 2 2.5zm54-9.8l24.6 52.6h-5.7l-8.3-17.3h-22.7l-8.2 17.3h-5.9l24.9-52.6zm-0.6 11.2l-9.1 19h18zm55.4-11.1h5.3v47.5h20.2v5.1h-25.5zm50.4 42.8l4.5-2.7q4.7 8.7 10.9 8.7 0.7 0 1.3-0.1 0.7 0 1.3-0.2 0.6-0.2 1.2-0.4 0.6-0.2 1.2-0.5 0.5-0.3 1-0.7 0.5-0.3 1-0.7 0.4-0.4 0.8-0.9 0.4-0.5 0.7-1 0.3-0.5 0.6-1.1 0.2-0.5 0.3-1 0.2-0.6 0.3-1.2 0.1-0.6 0.1-1.1-0.1-0.7-0.2-1.4-0.1-0.7-0.3-1.4-0.3-0.6-0.6-1.2-0.3-0.7-0.7-1.2-1-1.2-2.1-2.4-1-1.1-2.1-2.2-1.2-1-2.4-2-1.2-1-2.5-1.9-1.1-0.7-2.2-1.6-1-0.8-2.1-1.7-1-0.9-2-1.9-0.9-0.9-1.9-2-0.6-0.8-1.1-1.8-0.6-0.9-0.9-1.9-0.4-1.1-0.6-2.1-0.1-1.1-0.2-2.2 0-0.8 0.1-1.6 0.1-0.8 0.3-1.6 0.3-0.8 0.6-1.6 0.3-0.7 0.7-1.4 0.4-0.7 0.9-1.4 0.5-0.6 1.1-1.2 0.6-0.5 1.2-1 0.7-0.5 1.4-0.9 0.7-0.4 1.5-0.7 0.8-0.3 1.7-0.5 0.8-0.2 1.6-0.3 0.9-0.1 1.7-0.1 0.9 0 1.8 0.1 0.9 0.1 1.8 0.3 0.9 0.3 1.7 0.6 0.9 0.4 1.7 0.8 1 0.7 1.9 1.5 1 0.7 1.8 1.6 0.9 0.8 1.7 1.8 0.7 0.9 1.4 1.9l-4.3 3.3q-0.5-0.8-1.1-1.5-0.5-0.7-1.2-1.4-0.6-0.6-1.3-1.2-0.7-0.6-1.4-1.1-0.6-0.3-1.1-0.6-0.6-0.2-1.1-0.4-0.6-0.1-1.2-0.2-0.6-0.1-1.2-0.1-0.7 0-1.4 0.1-0.7 0.1-1.4 0.4-0.7 0.2-1.3 0.6-0.6 0.4-1.1 0.9-0.5 0.4-0.9 1-0.4 0.5-0.6 1.1-0.3 0.6-0.4 1.3-0.2 0.7-0.1 1.3 0 0.4 0 0.9 0.1 0.4 0.1 0.8 0.1 0.4 0.3 0.8 0.1 0.5 0.3 0.8 0.2 0.5 0.5 1 0.3 0.5 0.6 0.9 0.4 0.5 0.7 0.9 0.4 0.4 0.8 0.8 1 1 6.8 5.2 1.3 0.9 2.6 1.9 1.3 1.1 2.5 2.2 1.1 1.1 2.2 2.4 1.1 1.2 2.1 2.5 0.6 0.9 1 1.8 0.5 0.9 0.8 2 0.3 1 0.5 2 0.2 1 0.2 2.1 0 1.4-0.3 2.8-0.2 1.3-0.8 2.6-0.6 1.3-1.4 2.4-0.8 1.2-1.8 2.1-1.1 1.1-2.3 1.9-1.2 0.8-2.6 1.3-1.4 0.6-2.8 0.8-1.4 0.3-2.9 0.3-1.2 0-2.3-0.2-1.2-0.2-2.3-0.5-1.1-0.3-2.1-0.8-1.1-0.5-2-1.1-1.2-0.8-2.2-1.8-1-1-1.9-2.1-0.9-1-1.7-2.2-0.8-1.2-1.4-2.5z"/>
	</g>
</svg>