<svg version="1.2" xmlns="http://www.w3.org/2000/svg" viewBox="0 0 1545 271" width="1545" height="271">
	<title>alerus_logo-svg</title>
	<style>
		.s0 { fill: #ffffff } 
	</style>
	<g id="Layer">
		<g id="Layer">
			<path id="Layer" class="s0" d="m290.6 121.4l-5 5.9c-0.1 0-5-2.7-25.7-2.7-29.6 0-55.8 14.5-77.3 30.4-7.4 5-15 10.6-22.8 16.8-1.1 0.8-18.4 15.4-18.4 15.4 0 0-43.1-34.2-45.9-36.3l5.7-14.4c2.3 1.3 4.5 2.7 6.8 4.2 33.4 20.5 33.4 20.5 67.2 0 1.2-0.6 2.3-1.2 3.4-1.8 10.5-5.5 20.1-9.7 29-12.8 18.5-6.3 34.2-8.3 49.4-8.3 12.6 0 19.8 0.5 33.6 3.6zm-256.6-3.5c6.2 0 27.7 1.3 38.2 6.1l-4.5 8.8c-12.4-6.1-27.6-9.2-38.4-9.2-11.8 0-20.1 1.2-23.9 2l-5.1-4.3c13.8-3 24.5-3.5 33.7-3.4z"/>
			<g id="Layer">
				<path id="Layer" class="s0" d="m67 226.6c0 10.6 10.2 14.5 31.8 14.5h6.2v9.5h-90.6v-9.5c25.6-0.4 27.3-2.7 39.9-36.9l76.9-190.9-5.2-12.7h36.6l45 125.5c-8.9 3.1-18.5 7.3-29 12.8l-37.2-105.4-40.2 103-3.9 9.9c0 0-30.3 74.7-30.3 80.2zm209.4 14.5v9.5h-107.8v-9.5h10.2c22.4 0 30.6-2.3 30.6-13.3 0-6.3-2.8-10.2-4.4-14.1l-15.7-44.5c0 0 19.9-15.5 27.1-18.3l24.3 67.5c7.9 20.8 16.1 22.7 35.7 22.7z"/>
				<path id="Layer" fill-rule="evenodd" class="s0" d="m499 250.6h-148.4v-9.9h10.7c14.9 0 20.4-4.9 20.4-21.4v-136.3c0-22.8 1.1-24.2-30.2-24.1v-10.2h99.2v10h-12c-21.1 0-26.6 2.2-26.6 22.3v142.1c0 8.7 3.6 12 13 12h47.7c19.1 0 24.9-3.7 45.4-31.9h5.8zm223.4-68.9h-6.1c-2.6-23.1-8.8-25.6-22.1-25.6h-44.5v61.2c0 15 5.5 17.8 17.5 17.8h50c22.6 0 29.5-8.7 37.6-36.6h5.8l-5.2 52.1h-175.7v-9.9h9.1c26 0 30.5-7.2 30.5-26.6v-129.3c0-18.2-4.2-25.9-25.9-25.9h-7.2v-10.2h159.2l2.6 45.1h-5.8c-4.3-27.5-12.3-29.5-24-29.5h-68.4v75.9h47.8c11.7 0 17.2-5.6 18.8-24.4h6.1zm633.2-132.9v9.9c-21.7 0.3-29.5 5.3-29.5 26v87.7c0 40.2-17.4 83.4-96 83.4-70.4 0-96.7-35.4-96.7-81.8v-94.7c0-20.8-5.9-20.3-27.9-20.6v-9.9h86.3v9.6c-9.3 0.3-28.3-3.2-28.5 20.2v90.3c0 43.7 25.6 70.1 73.9 70.1 32.3 0 70.7-15.3 70.7-70.5v-75.6c0-31.2-4.9-32.9-31.8-34.2v-9.9zm65.1 152.5c6.8 28.9 29.2 43 53.6 43 20.9 0 43.2-12.2 43.2-37 0-45.1-101.4-59.5-101.4-116.4 0-26.9 24.7-47 57.8-47 27.2 0 32.7 8.1 44 8.1 2.6 0 3.9-0.6 5.9-3.2h8.3l5.6 41.2h-8.7c-9.1-23.4-29.8-35.8-51.2-35.8-20.4 0-34.6 11.8-34.6 29.1 0 43.9 101.3 57.3 101.3 117 0 31.8-28.2 55.5-66.1 55.5-17.8 0-40.6-8.8-45.1-8.8-2.8 0-5.1 1.6-6.4 3.6h-8.7l-6.9-49.3zm-314.5 55c-0.7 1.3-0.8 2-7.2 6.9-27.6 16.8-61.4 4.7-99.4-34.7l-34.3-34.4c-11.4-11.3-17.3-18.2-23.9-23.1-2.8-2-5.2-2.8-13.9-2.8-5.3 0-23.2-0.1-27.9-0.1v48.3c0 19.5 7.8 24.3 26 24.3h7.4v9.9h-95.3v-9.9h5.5c19.1 0 25.9-5.2 25.9-26.9v-132.9c0-20.1-5.5-22.2-24.3-22.2h-7.1v-9.9c7.7 0 31.1-1.3 44.4-1.9 13.3-0.7 19.7-1 40.8-1 67.5 0 90.4 24.6 90.4 57.7 0 23.8-17.3 47.7-44 55 11.3 9 20.9 21.6 38.2 39.4 0 0 13.6 17 31.9 32.6 17.3 14.7 38.8 28.2 56.8 25.1 2.7-0.5 4.5-1.2 7.9-3.7zm-126.9-150.8c0-30.2-13.6-49.7-63.5-49.7-6.2 0-10.4 0-16.2 0.6v97.8c7.8 1 12.6 0.7 20.1 0.7 36 0 59.6-10.4 59.6-49.4z"/>
			</g>
		</g>
	</g>
</svg>