<svg version="1.2" xmlns="http://www.w3.org/2000/svg" viewBox="0 0 1582 1004" width="1582" height="1004">
	<title>logo-aliansce-sonae-svg</title>
	<style>
		.s0 { fill: #ffffff } 
	</style>
	<g id="Layer">
		<g id="Layer">
			<g id="Layer">
				<g id="Layer">
					<path id="Layer" fill-rule="evenodd" class="s0" d="m730.3 1003.1c-2.7-42.8-34.8-117.7-104.3-270.1h-345.1l-48.2 117.7c-42.8 104.3-48.1 123-50.8 152.4h-181.9c24.1-8 77.6-104.3 104.3-171.2l358.5-831.9 371.8 845.3c40.2 85.6 64.3 149.8 91 157.8zm-280.9-668.7l-123 286.2h248.7zm572.5 668.8c13.4-16.1 13.4-115.1 13.4-208.7v-535c0-61.5 0-192.6-13.4-211.3h176.6c-10.7 18.7-10.7 168.5-10.7 197.9v639.4c128.4 0 385.2 0 393.2-13.4v131.1z"/>
				</g>
			</g>
			<g id="Layer">
				<g id="Layer">
				</g>
			</g>
		</g>
	</g>
</svg>