<svg version="1.2" xmlns="http://www.w3.org/2000/svg" viewBox="0 0 1567 1148" width="1567" height="1148">
	<title>5eec0c9037ac2799d5f29e0f_White Logo-svg</title>
	<defs>
		<linearGradient id="g1" x1="1206.4" y1="61.9" x2="881.5" y2="624.7" gradientUnits="userSpaceOnUse">
			<stop offset="0" stop-color="#ffffff"/>
			<stop offset=".3" stop-color="#ffffff"/>
			<stop offset=".6" stop-color="#ffffff" stop-opacity="0"/>
		</linearGradient>
	</defs>
	<style>
		.s0 { fill: #ffffff } 
		.s1 { fill: url(#g1) } 
	</style>
	<path id="Layer" fill-rule="evenodd" class="s0" d="m951.8 665.9c-111.2 0-201-90.2-201-201.7 0-111.6 89.8-201.7 201-201.7 111.2 0 201.1 90.1 201.1 201.7 0 111.5-89.9 201.7-201.1 201.7zm-104.4-202.1c0 65 41.2 111.2 103.3 111.2 59.3 0 105.5-43.4 105.5-110.5 0-64.9-42.6-111.2-105.5-111.2-59.9 0-103.3 47-103.3 110.5z"/>
	<path id="Layer" fill-rule="evenodd" class="s0" d="m301.3 615.3c-34.1 33.3-70.1 50.6-118.5 50.6-97.3 0-182.7-83.7-182.7-201.4 0-119.8 80.8-202 180.6-202 46.2 0 85.8 17.2 120.6 52v-42h95.9v383.3h-95.9zm-204.3-151.5c0 65.7 43.4 114.1 103.3 114.1 59.2 0 105.5-44.8 105.5-114.8 0-67.1-44.8-112.7-105.5-112.7-63.5 0-103.3 50.6-103.3 113.4z"/>
	<path id="Layer" class="s0" d="m448.9 124.6h95.9v531.2h-95.9z"/>
	<path id="Layer" class="s0" d="m622 124.6h95.9v531.2h-95.9z"/>
	<path id="Layer" class="s0" d="m767.6 731.8h55.6l135.9 303 134.5-303h55.9l-185.6 415.6h-9.6z"/>
	<path id="Layer" class="s0" d="m1221.2 731.8h52.2v415.6h-52.2z"/>
	<path id="Layer" class="s0" d="m1361.9 731.8h53.2v60.6c15.9-23.9 32.6-41.9 50.4-53.7 17.7-11.7 35.9-17.7 55.1-17.7 14.4 0 29.8 4.8 46.3 14.1l-27.3 45.1c-11.1-4.8-20.2-7.2-27.6-7.2-17.5 0-34.1 7.4-50.4 22.1-16.3 14.6-28.5 37.4-36.9 68.3-6.4 23.7-9.6 71.6-9.6 143.5v140.7h-53.2z"/>
	<path id="Layer" fill-rule="evenodd" class="s1" d="m1316.8 373.4c0 160.2-130.4 290.3-290.3 290.3-159.9 0-290.3-130.1-290.3-290.3 0-160.1 130.1-290.2 290.3-290.2 30.9 0 60.7 4.8 88.7 13.9 17-19.7 42.2-32.6 70.5-32.6 51.8 0 93.7 41.9 93.7 93.7 0 18.5-5.5 35.5-14.6 49.9 32.6 46.9 52 103.7 52 165.3zm-37.4 0c0-50.8-15.3-98-41.2-137.8-15.1 10.1-33.1 16.1-52.5 16.1-51.8 0-93.8-42-93.8-93.7 0-9.6 2-18.7 4.6-27.4-22.3-6.4-45.5-10-70-10-139.3 0-252.9 113.1-252.9 252.6 0 139.5 113.4 252.9 252.9 252.9 139.5 0 252.9-113.4 252.9-252.7z"/>
	<path id="Layer" class="s0" d="m1061 61.1c29-37.1 74.1-61.1 124.7-61.1 87 0 158 70.7 158 158 0 30.4-8.9 58.7-23.7 82.9-3.6-9.6-8.2-18.5-13-27.1 7.9-17 12.5-35.9 12.5-55.8 0-73.9-60-133.8-133.8-133.8-39.1 0-74.1 17-98.5 43.6-8.9-2.4-17.8-4.5-26.2-6.7z"/>
</svg>