<svg version="1.2" xmlns="http://www.w3.org/2000/svg" viewBox="0 0 1570 1435" width="1570" height="1435">
	<title>5eec0c9037ac2799d5f29e0f_White Logo-svg</title>
	<defs>
		<linearGradient id="g1" x1="1191" y1="170.5" x2="296.1" y2="1720.6" gradientUnits="userSpaceOnUse">
			<stop offset="0" stop-color="#ffffff"/>
			<stop offset=".3" stop-color="#ffffff"/>
			<stop offset=".6" stop-color="#ffffff" stop-opacity="0"/>
		</linearGradient>
	</defs>
	<style>
		.s0 { fill: url(#g1) } 
		.s1 { fill: #ffffff } 
	</style>
	<path id="Layer" fill-rule="evenodd" class="s0" d="m1495.2 1028.6c0 441-359.2 799.5-799.7 799.5-440.5 0-799.7-358.5-799.7-799.5 0-441 358.6-799.5 799.7-799.5 85.2 0 167 13.2 244.3 38.3 46.9-54.2 116.2-89.8 194.1-89.8 142.7 0 258.3 115.5 258.3 258.1 0 50.9-15.2 97.7-40.3 137.3 89.8 129.4 143.3 285.9 143.3 455.6zm-103 0c0-140-42.3-270-113.6-379.6-41.6 27.7-91.1 44.2-144.7 44.2-142.6 0-258.2-115.5-258.2-258.1 0-26.4 5.3-51.5 12.6-75.3-61.4-17.8-125.5-27.7-192.8-27.7-383.7 0-696.7 311.6-696.7 695.8 0 384.2 312.3 696.5 696.7 696.5 384.3 0 696.7-312.3 696.7-695.8z"/>
	<path id="Layer" class="s1" d="m790.6 168.3c79.9-102.3 204-168.3 343.3-168.3 239.8 0 435.3 194.8 435.3 435.1 0 83.8-24.5 161.7-65.4 228.4-10-26.4-22.5-50.8-35.7-74.6 21.8-46.9 34.4-99 34.4-153.8 0-203.4-165.2-368.4-368.6-368.4-107.6 0-204 46.9-271.4 120.1-24.4-6.6-48.8-12.5-71.9-18.5z"/>
</svg>