<svg version="1.2" xmlns="http://www.w3.org/2000/svg" viewBox="0 0 1162 1573" width="1162" height="1573">
	<title>logo - 2022-09-10T155450</title>
	<style>
		.s0 { fill: #ffffff } 
	</style>
	<g id="Layer">
		<g id="Layer">
			<g id="Layer">
				<path id="Layer" fill-rule="evenodd" class="s0" d="m581 1375.2c-321.1 0-580.6-262.4-580.6-587 0-324.6 259.5-587 580.6-587 321 0 580.5 262.4 580.5 587 0 324.6-259.5 587-580.5 587zm376.3-587c0-226.9-168.2-410.2-376.3-410.2-208.1 0-376.3 183.3-376.3 410.2 0 226.9 168.2 410.2 376.3 410.2 208.1 0 376.3-183.3 376.3-410.2z"/>
			</g>
			<path id="Layer" class="s0" d="m577.9 1572.7c-47.5 0-86-38.4-86-85.9v-1400.2c0-47.6 38.5-86 86-86 47.6 0 86 38.4 86 86v1400.2c-0.6 47.5-39 85.9-86 85.9z"/>
		</g>
	</g>
</svg>