<svg version="1.2" xmlns="http://www.w3.org/2000/svg" viewBox="0 0 1533 1539" width="1533" height="1539">
	<title>logo-alithya-svg</title>
	<style>
		.s0 { fill: #ffffff } 
	</style>
	<path id="Layer" class="s0" d="m1532.9 529.6l-515.8 237.9 515.8 241.7v241.8l-481.4-226.4-195-418.3 676.4-318.5c0-0.1 0 241.8 0 241.8z"/>
	<path id="Layer" class="s0" d="m482.1 1024.5l-481.5 226.5v-241.8l512-241.7-512-238v-241.7l672.5 318.5z"/>
	<path id="Layer" class="s0" d="m787.8 464.3l213.9-464.3h240.8l-252.2 544.9-133.8 61.4z"/>
	<path id="Layer" class="s0" d="m539.4 544.9l-252.2-544.9h240.7l214 464.4-68.8 141.9z"/>
	<path id="Layer" class="s0" d="m764.8 617.8l431.8 921h-194.9l-236.9-514.2-236.9 514.2h-194.9z"/>
</svg>