<svg version="1.2" xmlns="http://www.w3.org/2000/svg" viewBox="0 0 1553 539" width="1553" height="539">
	<title>logo-alithya-svg</title>
	<style>
		.s0 { fill: #ffffff } 
	</style>
	<path id="Layer" class="s0" d="m1552 83.1l-80.9 37.3 80.9 38v37.9l-75.5-35.5-30.6-65.6 106.1-50c0 0 0 37.9 0 37.9z"/>
	<path id="Layer" class="s0" d="m1387.1 160.8l-75.5 35.5v-37.9l80.3-38-80.3-37.3v-37.9l105.5 50z"/>
	<path id="Layer" class="s0" d="m1435.1 72.9l33.6-72.9h37.8l-39.6 85.5-21 9.7z"/>
	<path id="Layer" class="s0" d="m1396.1 85.5l-39.6-85.5h37.8l33.6 72.9-10.8 22.3z"/>
	<path id="Layer" class="s0" d="m1431.5 97l67.8 144.5h-30.6l-37.2-80.7-37.2 80.7h-30.6z"/>
	<path id="Layer" fill-rule="evenodd" class="s0" d="m181.1 442.6h-105.5l-10.8 24.1h-64.8l128.9-266.8 128.4 266.8h-64.8zm-22.8-51.2l-29.4-66.2-29.4 66.2c0 0 58.8 0 58.8 0zm131.4-184.2h52.7v259.5h-52.7zm557.1 146.4v113.2h-52.8v-108.4c0-36.1-12.6-47-34.2-47-21.6 0-34.2 10.9-34.2 45.8v109.6h-52.7v-259.6h52.7v72.3c9-9.6 25.8-17.5 46.8-17.5 51 0 73.8 35 74.4 91.6zm-431.8-112c0 0 0-49.4 0-49.4h52.8v49.4zm0 24.6h52.7v200.6h-52.7c0 0 0-200.6 0-200.6zm212.3 49.4h-36.6v151.2h-52.8v-259.6h52.8v59h55.8zm639.2 20.5v131.3h-52.7v-13.2c-13.2 8.4-36 18-63 18-37.8 0-58.8-19.2-58.8-57.2v-7.8c0-53.6 40.8-60.2 97.8-60.2h18.6v-10.9c0-24.7-5.4-29.5-37.2-29.5q-8.1 0.1-16.2 0.3-8.1 0.3-16.2 0.7-8.1 0.5-16.2 1.1-8.1 0.7-16.2 1.5l15.6-41.5c15.6-4.2 38.4-7.9 61.8-7.9 62.4 0 82.1 20.5 82.7 75.3zm-56.3 42.8h-20.4c-27.6 0-43.2 3-43.2 25.9v7.8c0 15.7 13.2 20.5 26.4 20.5 15.6 0 31.2-6 37.2-9.7 0 0 0-44.5 0-44.5zm-131.4-112.6l-62.3 198.1c-16.8 53-36 74.7-83.4 74.7-21.6 0-42.6-1.8-56.4-4.8l15-38.6h23.4c14.4 0 24 0.6 29.4-18.1l3-10.8-73.8-200.5h55.2l51.6 144.5 43.8-144.5z"/>
</svg>