<svg version="1.2" xmlns="http://www.w3.org/2000/svg" viewBox="0 0 1571 695" width="1571" height="695">
	<title>AMBA_BIG copy-svg</title>
	<defs>
		<linearGradient id="g1" x1="172.9" y1="816.2" x2="172.9" y2="306.1" gradientUnits="userSpaceOnUse">
			<stop offset=".3" stop-color="#6faad1"/>
			<stop offset="1" stop-color="#95c76b"/>
		</linearGradient>
		<linearGradient id="g2" x1="581.3" y1="816.2" x2="581.3" y2="306.1" gradientUnits="userSpaceOnUse">
			<stop offset=".3" stop-color="#6faad1"/>
			<stop offset="1" stop-color="#95c76b"/>
		</linearGradient>
		<linearGradient id="g3" x1="989.7" y1="816.2" x2="989.7" y2="306.1" gradientUnits="userSpaceOnUse">
			<stop offset=".3" stop-color="#6faad1"/>
			<stop offset="1" stop-color="#95c76b"/>
		</linearGradient>
		<linearGradient id="g4" x1="1398.2" y1="816.2" x2="1398.2" y2="306.1" gradientUnits="userSpaceOnUse">
			<stop offset=".3" stop-color="#6faad1"/>
			<stop offset="1" stop-color="#95c76b"/>
		</linearGradient>
		<linearGradient id="g5" x1="785.9" y1="866.8" x2="785.9" y2="293.5" gradientUnits="userSpaceOnUse">
			<stop offset=".3" stop-color="#6faad1"/>
			<stop offset="1" stop-color="#95c76b"/>
		</linearGradient>
		<linearGradient id="g6" x1="991.2" y1="839.2" x2="991.2" y2="293.2" gradientUnits="userSpaceOnUse">
			<stop offset=".3" stop-color="#6faad1"/>
			<stop offset="1" stop-color="#95c76b"/>
		</linearGradient>
		<linearGradient id="g7" x1="580.4" y1="839.2" x2="580.4" y2="293.2" gradientUnits="userSpaceOnUse">
			<stop offset=".3" stop-color="#6faad1"/>
			<stop offset="1" stop-color="#95c76b"/>
		</linearGradient>
		<linearGradient id="g8" x1="1195.8" y1="816.2" x2="1195.8" y2="306.1" gradientUnits="userSpaceOnUse">
			<stop offset=".3" stop-color="#6faad1"/>
			<stop offset="1" stop-color="#95c76b"/>
		</linearGradient>
		<linearGradient id="g9" x1="784.8" y1="816.2" x2="784.8" y2="306.1" gradientUnits="userSpaceOnUse">
			<stop offset=".3" stop-color="#6faad1"/>
			<stop offset="1" stop-color="#95c76b"/>
		</linearGradient>
		<linearGradient id="g10" x1="377.4" y1="816.2" x2="377.4" y2="306.1" gradientUnits="userSpaceOnUse">
			<stop offset=".3" stop-color="#6faad1"/>
			<stop offset="1" stop-color="#95c76b"/>
		</linearGradient>
	</defs>
	<style>
		.s0 { fill: url(#g1) } 
		.s1 { fill: url(#g2) } 
		.s2 { fill: url(#g3) } 
		.s3 { fill: url(#g4) } 
		.s4 { fill: url(#g5) } 
		.s5 { fill: url(#g6) } 
		.s6 { fill: url(#g7) } 
		.s7 { fill: url(#g8) } 
		.s8 { fill: url(#g9) } 
		.s9 { fill: url(#g10) } 
	</style>
	<path id="Layer" class="s0" d="m0.1 694.7l172.8-148.2 172.8 148.2z"/>
	<path id="Layer" class="s1" d="m408.7 694.7l172.6-148.2 173 148.2z"/>
	<path id="Layer" class="s2" d="m817 694.7l172.8-148.2 172.8 148.2z"/>
	<path id="Layer" class="s3" d="m1225.4 694.7l172.8-148.2 172.8 148.2z"/>
	<path id="Layer" class="s4" d="m871.5 66.4c17.7 24.9 41.5 71.9 41.5 96.5 0 81-58 130.6-128.5 130.6-70.6 0-125.1-50-125.1-130.6 0-25.1 25-77.5 46.4-105.8 25.1-33 46.7-56.6 79-56.6 32.1 0 60.7 28.6 86.7 65.9z"/>
	<path id="Layer" class="s5" d="m990.4 196.2c25.1 0 73.9 45.6 92.4 69.3 12.6 16.3 57.5 71 57.5 86.7 0 51.5-99.1 135.9-150 135.9-50.9 0-147.6-84.4-147.6-135.9 0-16.3 48.7-77.3 64.1-95.4 17.8-20.8 60.1-60.6 83.6-60.6z"/>
	<path id="Layer" class="s6" d="m579.4 196.2c24.2 0 73.8 45.6 92.3 69.3 12.4 16.3 57.3 71 57.3 86.7 0 51.5-99 135.9-150 135.9-51.1 0-147.6-84.4-147.6-135.9 0-16.3 48.6-77.3 64-95.4 18.4-20.8 61-60.6 84-60.6z"/>
	<path id="Layer" class="s7" d="m1195 382.4c12.7 0 82 60 91.3 71 6.3 7.5 70 68.6 70 76.1 0 24-135.9 137.6-161.3 137.6-25.3 0-160-113.6-160-137.6 0-7.7 70.1-75.2 77.9-84.1 7.8-8.8 70.7-63 82.1-63z"/>
	<path id="Layer" class="s8" d="m784.3 382.4c12.5 0 82 60 91.3 71 6.3 7.5 69.9 68.6 69.9 76.1 0 24-135.9 137.6-161.2 137.6-25.2 0-160.2-113.6-160.2-137.6 0-7.7 70.3-75.2 78.1-84.1 7.8-8.8 70.7-63 82.1-63z"/>
	<path id="Layer" class="s9" d="m376.8 382.4c12.5 0 82 60 91.3 71 6.3 7.5 70.1 68.6 70.1 76.1 0 24-136 137.6-161.4 137.6-25.3 0-160-113.6-160-137.6 0-7.7 70.1-75.2 77.9-84.1 7.8-8.8 70.4-63 82.1-63z"/>
</svg>