<svg version="1.2" baseProfile="tiny-ps" xmlns="http://www.w3.org/2000/svg" viewBox="0 0 1663 1526" width="1663" height="1526">
	<title>amg-logo-color-svg</title>
	<style>
		tspan { white-space:pre }
		.shp0 { fill: #717271 } 
		.shp1 { fill: #ffffff } 
		.shp2 { fill: #035643 } 
	</style>
	<g id="Layer">
		<path id="Layer" class="shp0" d="M1610.21 794.54L23.76 1483.49L23.76 76.55L0 63.35L0 1525.72L1639.24 807.73L1610.21 794.54Z" />
		<path id="Layer 1" class="shp1" d="M135 498L1150 498L1150 876L135 876L135 498Z" />
		<path id="Layer" fill-rule="evenodd" class="shp2" d="M1663 720.63L73.91 1409.58L73.91 0L1663 720.63ZM467.22 842.05L361.64 575.44L271.89 575.44L166.3 842.05L240.21 842.05L258.69 789.26L364.28 789.26L382.75 842.05L467.22 842.05ZM826.22 575.44L712.71 575.44L670.48 754.94L625.6 575.44L506.82 575.44L506.82 844.69L570.17 844.69L570.17 620.32L628.24 844.69L694.24 844.69L757.59 620.32L757.59 842.05L820.94 842.05L826.22 575.44ZM1005.72 847.33C1071.71 847.33 1082.27 842.05 1135.06 834.13L1135.06 691.59L1008.36 691.59L1008.36 741.74L1063.79 741.74L1063.79 791.9C1050.59 794.54 1040.03 797.18 1026.84 797.18C974.04 797.18 947.65 762.86 947.65 710.07C947.65 667.83 966.12 622.96 1016.28 622.96C1040.03 622.96 1061.15 630.88 1063.79 657.27L1137.7 657.27C1137.7 580.72 1069.07 570.17 1005.72 572.81C923.89 572.81 873.73 628.24 873.73 710.07C873.73 791.9 923.89 844.69 1005.72 847.33Z" />
		<path id="Layer" class="shp2" d="M311.48 628.24L277.17 739.1L348.44 739.1L314.12 628.24L311.48 628.24Z" />
	</g>
</svg>