<svg version="1.2" xmlns="http://www.w3.org/2000/svg" viewBox="0 0 1560 1294" width="1560" height="1294">
	<title>logo (45)-svg</title>
	<style>
		.s0 { fill: #dd1c23 } 
		.s1 { fill: #004879 } 
	</style>
	<g id="Layer">
		<g id="Layer">
			<path id="Layer" class="s0" d="m1517.9 1051.6c-38.9-34-79-53-116.5-68.6-92.4-37.5-193.4-58.2-309.5-63-194.7-7.7-391.9 25.1-621.1 104-44.9 15.6-91.1 27.6-138.2 36.3-37.1 6.9-75.1 10.8-112.6 12.5l-18.6 0.4v220.5c0 0 51.4 0.4 79 0 9.1 0 18.6 0 27.6-0.4 57-2.6 115.3-11.7 177.9-27.7 101.4-25.4 197.6-65.1 287.9-103.5 120.8-51.8 245.1-85.4 368.6-100.1 52.6-6.5 105.7-9.9 158.4-10.8 53.1-0.9 105.7 1.7 158.4 7.3 25 2.6 49.6 6.1 74.7 8.7z"/>
			<g id="Layer">
				<path id="Layer" class="s1" d="m318.8 977c22.5-4.3 44.9-9.1 67.4-15.1v-496.2l393.6-258.4 394.5 251.9v381.9c65.6 6.9 126.9 19.4 185.2 37.1v-23.3l-0.4-296.9h151.5c22 0 40.5-13.8 46.6-34.9 6-21.1-1.8-42.7-20.3-54.8l-712.2-454.3c-27.6-17.7-63-17.7-90.6 0l-711.4 454.3c-18.5 12.1-26.7 33.2-20.3 54.4 6.1 21.1 24.6 34.9 46.6 34.9h152.8l-0.4 430.6 16-0.4c34.1-1.3 67.8-4.8 101.4-10.8z"/>
			</g>
		</g>
		<g id="Layer">
		</g>
	</g>
</svg>