<svg version="1.2" baseProfile="tiny-ps" xmlns="http://www.w3.org/2000/svg" viewBox="0 0 1580 356" width="1580" height="356">
	<title>A5SA</title>
	<style>
		tspan { white-space:pre }
		.shp0 { fill: #ffffff } 
	</style>
	<path id="Layer" fill-rule="evenodd" class="shp0" d="M1578.43 33.28L1566.59 52.5C1561.41 59.89 1555.49 62.84 1544.39 63.59C1543.65 63.59 1538.47 64.33 1534.78 70.98L1522.94 91.68C1519.98 96.86 1514.05 107.96 1494.08 110.91C1493.35 110.91 1487.43 112.39 1484.47 118.3L1469.66 144.19C1464.49 152.31 1458.57 155.27 1448.22 158.96L1181.13 237.34C1171.5 240.31 1167.81 250.65 1167.81 250.65C1161.15 267.65 1153.01 280.97 1111.59 293.53L893.33 352.69C890.36 353.42 865.95 361.56 846.72 343.08L795.67 294.28C795.67 294.28 794.19 292.06 791.24 292.06C789.02 292.06 786.79 294.28 786.79 294.28L735.74 343.08C717.25 360.82 692.1 353.42 689.13 352.69L470.87 293.53C429.45 280.97 421.31 266.92 414.65 250.65C414.65 250.65 410.22 240.31 401.33 237.34L134.25 158.96C123.15 155.27 117.23 152.31 112.8 144.19L97.99 118.3C94.3 111.64 89.12 110.91 88.38 110.91C67.67 107.96 61.75 96.12 59.52 91.68L47.69 70.98C43.24 64.33 38.07 63.59 38.07 63.59C26.23 62.84 20.31 59.89 15.87 52.5L4.04 33.28C-1.88 22.18 0.33 14.79 2.55 10.35C7.74 0.74 17.36 0 21.79 0L659.54 0C677.29 0 692.83 5.92 703.19 16.27C711.33 23.66 716.51 34.01 719.46 45.85C720.21 46.58 720.95 48.8 726.12 48.8L851.89 48.8C857.81 48.8 858.56 45.85 858.56 45.85C861.51 34.01 867.43 23.66 874.84 16.27C885.93 5.17 900.73 0 918.48 0L1556.96 0C1559.93 0 1571.02 0.74 1576.21 10.35C1578.43 14.79 1580.65 22.92 1578.43 33.28ZM869.65 51.75L1183.35 51.75C1188.53 42.88 1192.22 36.23 1195.92 29.58C1195.92 28.83 1201.11 19.22 1211.47 11.82L917.74 11.82C902.95 11.82 891.11 17.01 882.97 25.14C877.05 31.79 872.62 39.18 870.4 49.54C870.4 49.54 870.4 51.02 869.65 51.75ZM1130.81 122C1135.25 117.56 1138.95 112.39 1142.66 107.96L1114.54 104.26L1114.54 119.04C1118.25 120.52 1123.41 121.26 1130.81 122ZM1114.54 129.4L1114.54 141.22C1117.51 137.52 1120.47 134.57 1123.41 130.87L1114.54 129.4ZM1150.06 99.82C1153.01 95.38 1156.72 90.2 1160.42 85.77L1114.54 82.81L1114.54 95.38L1150.06 99.82ZM1166.34 77.63C1170.02 72.46 1173.72 66.54 1176.69 62.11L1114.54 62.11L1114.54 73.94L1166.34 77.63ZM367.3 13.31C376.92 20.71 382.1 30.31 382.84 31.06C382.84 31.06 390.97 45.85 395.41 53.24L709.11 53.24L707.63 50.27C705.41 39.93 700.97 31.79 695.05 25.88C686.91 17.01 675.07 12.57 660.28 12.57C660.28 12.57 518.23 12.57 367.3 13.31ZM464.22 119.78L464.22 104.99L436.1 108.69C439.8 113.13 443.5 118.3 447.94 122.73L464.22 119.78ZM454.6 130.87C457.56 133.83 460.52 137.52 463.48 140.49L463.48 128.65C461.26 129.4 458.3 130.13 454.6 130.87ZM463.48 95.38L463.48 83.55L418.35 86.5C421.31 90.95 425.01 96.12 428.71 100.56L463.48 95.38ZM463.48 62.11L401.33 62.11C404.3 67.29 407.99 72.46 411.69 77.63L463.48 73.94L463.48 62.11ZM385.05 52.5C380.62 45.85 377.65 39.93 374.7 34.75C374.7 34.75 361.38 12.57 339.93 12.57L21.79 12.57C14.39 12.57 11.44 15.52 11.44 19.96C11.44 21.44 12.17 24.4 13.66 27.36C14.39 28.83 24.75 46.58 24.75 46.58C26.97 51.02 29.2 51.75 37.32 52.5L385.05 52.5ZM104.66 97.6L400.6 78.38C396.89 72.46 393.19 67.29 390.24 62.11L53.61 62.11C57.3 66.54 63.97 79.11 68.4 87.25C70.62 90.2 72.84 94.64 80.98 97.6C87.64 98.34 100.96 98.34 104.66 97.6ZM417.61 102.04C414.65 97.6 410.95 91.68 407.25 87.25C407.25 87.25 104.66 107.21 103.18 107.21C104.66 107.96 105.39 110.17 106.88 111.64L120.93 136.79C121.67 137.52 125.37 141.22 135.73 139.74L417.61 102.04ZM243.01 164.88L437.58 124.95C432.4 120.52 429.45 114.61 425.01 110.17L140.17 148.62C150.52 151.57 174.94 158.23 203.8 167.1C214.15 170.06 234.87 166.36 243.01 164.88ZM333.27 193.72L463.48 153.06C456.83 147.14 450.91 140.49 444.99 133.83C385.79 145.66 245.22 174.5 245.22 174.5C245.22 174.5 240.79 175.23 234.87 175.97C256.33 181.89 278.52 188.54 300.72 195.19C314.03 198.89 331.79 192.98 333.27 193.72ZM428.71 220.34L499.73 187.07C488.63 178.19 479.01 169.32 469.4 160.45C444.24 167.85 334.74 201.86 334.74 201.86C334.74 201.86 331.79 202.59 328.09 203.33C368.04 214.42 399.11 224.04 402.08 224.77C411.69 227.73 425.01 221.82 428.71 220.34ZM580.38 158.96C575.2 161.93 547.08 174.5 517.48 188.54C530.81 198.16 544.86 207.77 558.18 215.9L638.08 158.96L580.38 158.96ZM723.16 159.71L697.27 159.71C687.65 169.32 647.7 210.73 614.41 245.48C630.68 251.39 646.22 257.3 662.5 261.75L723.16 159.71ZM672.12 263.97C689.88 268.4 706.89 272.09 724.65 274.31L756.45 158.96L734.26 158.96C726.12 173.02 695.05 224.77 672.12 263.97ZM683.96 160.45L652.88 160.45C643.27 167.1 604.05 195.19 566.32 222.55C579.63 229.21 592.21 235.86 605.53 241.78L683.96 160.45ZM558.92 158.96L482.71 158.96C490.11 165.63 508.61 181.15 509.36 181.89L558.92 158.96ZM482.71 268.4L548.56 221.82C534.51 212.95 520.45 203.33 507.13 192.98C470.87 210.73 433.15 227.73 433.15 227.73C432.4 228.47 425.01 232.17 415.39 233.64C420.57 238.09 422.04 243.26 422.79 244.74C426.49 255.08 430.93 265.44 458.3 275.79C470.14 279.49 483.46 269.87 482.71 268.4ZM561.14 288.36L598.87 247.7C584.82 241.78 571.5 234.39 558.18 226.99C521.93 253.61 489.38 276.54 489.38 276.54C489.38 277.27 484.93 280.23 479.01 282.44L537.46 298.71C546.34 300.2 557.44 292.06 561.14 288.36ZM636.6 305.37L657.31 270.62C640.3 266.18 624.03 260.27 607.75 252.87C584.82 275.79 567.06 295.01 567.06 295.01C567.06 295.75 562.62 300.2 555.97 303.89L618.84 320.89C626.24 321.64 634.38 309.8 636.6 305.37ZM720.95 282.44C702.45 280.23 683.96 276.54 666.2 272.09C653.62 293.53 644 309.8 644 309.8C643.27 311.28 638.82 319.42 632.16 324.59L687.65 339.38C692.83 340.12 696.53 340.12 700.23 337.9C708.37 332.73 710.59 321.64 710.59 321.64L720.95 282.44ZM771.26 287.63C757.2 286.88 743.14 286.14 729.82 284.66L719.46 323.86C719.46 324.59 717.25 332.73 711.33 340.12C715.76 339.38 720.21 337.16 724.65 332.73C724.65 332.73 761.64 298.71 771.26 287.63ZM783.83 159.71L764.59 159.71L732.79 275.79C749.8 277.27 767.56 278.74 784.57 278.74L783.83 159.71ZM1105.67 150.09L1105.67 61.37L473.1 61.37L473.1 150.09L1105.67 150.09ZM916.26 261C932.54 256.57 948.81 251.39 964.35 244.74L881.49 158.96L855.59 158.96L916.26 261ZM844.5 158.96L822.3 158.96L854.12 274.31C871.87 271.35 889.63 268.4 906.65 263.97L844.5 158.96ZM972.49 240.31C985.81 234.39 999.13 228.47 1011.7 221.07L925.15 158.96L894.07 158.96C909.61 175.97 944.38 211.47 972.49 240.31ZM1019.84 216.64C1033.89 207.77 1047.22 198.89 1060.53 188.54L997.64 158.96L940.68 158.96C957.7 171.54 990.25 194.46 1019.84 216.64ZM1069.42 181.89C1070.15 181.89 1088.64 166.36 1096.05 158.96L1019.84 158.96C1033.16 165.63 1050.92 173.75 1069.42 181.89ZM845.24 275.79L813.43 159.71L794.19 159.71L794.19 278.74C811.2 278.74 828.22 278.01 845.24 275.79ZM865.95 340.12C860.04 334.21 858.56 325.33 857.81 323.86L847.46 284.66C834.14 286.14 820.09 286.88 806.03 287.63C816.39 296.5 845.98 325.33 845.98 325.33C856.34 335.68 858.56 338.63 865.95 340.12ZM946.6 325.33C939.94 319.42 935.5 312.02 934.76 310.54L912.56 272.84C894.81 277.27 876.32 280.97 857.81 283.19L868.18 321.64C868.18 322.37 871.13 333.46 878.54 337.9C882.24 340.12 886.67 340.86 891.11 339.38L946.6 325.33ZM1022.07 303.89C1015.4 299.45 1011.7 295.75 1010.96 295.01L970.27 252.87C954.73 260.27 937.72 266.18 920.7 270.62L941.42 305.37C943.64 310.54 952.51 322.37 959.92 320.89L1022.07 303.89ZM1099 283.19C1093.09 280.23 1088.64 277.27 1088.64 277.27L1019.84 227.73C1006.53 235.12 992.47 241.78 979.15 248.43C1001.34 271.35 1017.62 288.36 1017.62 288.36C1021.32 292.06 1031.67 300.93 1040.56 298.71L1050.92 295.75C1050.92 295.75 1084.2 286.88 1099 283.19ZM1162.64 234.39C1153.75 232.91 1146.36 228.47 1145.61 228.47L1070.9 193.72C1057.58 204.08 1043.51 213.68 1029.45 222.55C1064.23 247.7 1095.31 269.87 1095.31 269.87C1095.31 269.87 1109.37 280.23 1120.47 276.54C1147.84 265.44 1151.53 255.83 1155.98 245.48C1155.98 244.74 1158.2 239.56 1162.64 234.39ZM1249.94 202.59C1246.24 202.59 1243.28 201.11 1243.28 201.11L1108.62 159.71C1099 168.58 1088.64 177.45 1078.28 186.32C1114.54 203.33 1149.31 219.6 1149.31 219.6C1153.75 221.82 1167.08 226.99 1176.69 224.77L1249.94 202.59ZM1344.64 175.23C1338.72 175.23 1335.02 173.75 1334.28 173.75L1134.52 133.09C1128.6 139 1122.67 145.66 1116.03 152.31L1246.24 192.98C1246.24 192.98 1264.72 198.89 1278.05 195.19L1344.64 175.23ZM1439.33 148.62L1154.5 110.91C1150.06 115.34 1146.36 121.26 1141.92 125.7C1203.33 138.27 1336.5 165.63 1336.5 165.63C1343.16 166.36 1364.6 170.06 1374.97 167.1L1439.33 148.62ZM1474.85 107.96C1472.63 107.21 1471.88 107.21 1471.15 107.21L1170.77 87.25C1167.08 91.68 1164.12 96.86 1159.67 102.04L1443.03 139.74C1453.38 141.22 1457.09 137.52 1457.82 136.79C1460.05 132.35 1471.88 111.64 1471.88 111.64C1472.63 110.17 1474.11 108.69 1474.85 107.96ZM1523.68 61.37L1187.78 61.37C1184.83 66.54 1181.13 71.72 1177.42 77.63L1472.63 96.86C1477.8 97.6 1491.13 98.34 1497.77 96.86C1505.91 93.9 1508.88 89.47 1510.35 86.5L1522.19 65.06C1522.94 63.59 1523.68 62.11 1523.68 61.37ZM1568.8 20.71C1568.8 18.49 1567.33 17.74 1567.33 17.01C1564.37 13.31 1560.66 12.57 1556.96 12.57L1238.83 12.57C1216.63 12.57 1204.06 34.75 1204.06 34.75C1201.11 39.93 1198.14 45.85 1193.7 52.5L1541.43 52.5C1550.31 51.75 1551.79 50.27 1554.01 46.58L1565.1 27.36C1566.59 23.66 1566.59 21.44 1568.8 20.71Z" />
	<path id="Layer" fill-rule="evenodd" class="shp0" d="M541.15 136.05L530.8 136.05L530.8 135.3C527.83 125.7 524.88 119.04 521.92 112.39L501.2 112.39L500.46 113.86C497.51 121.26 495.28 127.91 493.06 135.3L493.06 136.05L485.67 136.05L513.04 75.41L515.26 75.41L541.15 136.05ZM519.69 108.69C518.96 107.21 511.57 90.2 510.82 88.73C510.08 90.95 503.42 107.21 502.68 108.69L519.69 108.69ZM578.89 117.56C578.89 129.4 570 137.52 557.43 137.52C553.73 137.52 546.34 136.05 543.37 132.35L544.85 124.21L547.81 124.21C551.51 130.13 555.21 132.35 561.13 132.35C567.78 132.35 572.22 127.18 572.22 120.51C572.22 113.13 566.3 110.91 560.38 108.69C552.99 105.74 545.59 102.77 545.59 92.42C545.59 82.81 552.99 76.16 564.83 76.16C568.53 76.16 573.7 77.63 577.41 80.59L575.19 87.98L573.7 87.98L573.7 87.25C571.49 82.07 567.78 79.85 563.35 79.85C557.43 79.85 552.99 84.28 552.99 89.47C552.99 96.85 558.91 99.07 565.57 101.29C572.22 104.25 580.36 107.21 578.89 117.56ZM626.97 82.07C621.8 81.33 615.88 80.59 609.96 80.59L609.96 134.57L601.82 134.57L601.82 80.59C594.42 80.59 589.25 81.33 584.06 82.07L583.33 82.07L583.33 76.16L628.45 76.16L628.45 82.81L626.97 82.07ZM691.34 105.74C691.34 124.21 677.28 137.52 658.05 137.52C639.56 137.52 626.23 124.95 626.23 106.47C626.23 87.98 638.81 75.41 658.05 75.41C674.33 75.41 691.34 85.03 691.34 105.74ZM681.72 107.21L681.72 105.74C681.72 98.34 680.98 92.42 676.55 87.25C672.84 82.07 666.92 79.11 659.52 79.11C644.73 79.11 635.86 90.2 635.86 107.21C635.86 122.73 645.48 133.09 658.79 133.09C664.71 133.09 669.89 130.87 674.33 126.43C679.5 120.51 681.72 113.13 681.72 107.21ZM750.52 136.05L747.57 136.05L743.13 130.87C743.13 130.87 706.88 90.95 706.13 90.2L706.13 136.05L700.21 136.05L700.21 76.9L703.91 76.9C703.91 76.9 743.87 119.78 744.6 120.51L744.6 76.9L749.79 76.9L750.52 136.05ZM853.37 135.3L853.37 136.05L844.49 136.05L844.49 135.3C843.01 123.48 841.53 103.51 840.04 93.17C830.43 110.17 823.03 123.48 818.6 134.57L818.6 135.3L817.11 135.3L812.68 124.95C808.24 116.08 797.88 94.64 796.4 93.17C795.66 95.38 794.92 101.29 794.92 101.29C793.43 114.61 791.96 127.18 791.96 135.3L791.96 136.05L784.56 136.05L784.56 135.3C786.78 121.26 791.96 85.77 792.7 76.9L792.7 76.16L795.66 76.16C803.05 89.47 810.46 104.99 819.33 119.78C820.81 118.3 829.69 102.04 829.69 102.04L843.75 76.16L845.96 76.9C848.93 102.04 851.88 121.26 853.37 135.3ZM912.55 136.05L902.19 136.05L902.19 135.3C899.24 126.43 896.28 119.04 893.32 112.39L872.61 112.39C872.61 113.13 871.86 113.86 871.86 113.86C868.91 121.26 866.69 127.91 864.47 135.3L864.47 136.05L857.07 136.05L884.45 75.41L886.65 75.41L912.55 136.05ZM891.84 108.69C891.1 107.21 883.7 90.2 882.96 88.73C882.22 90.95 875.56 107.21 874.82 108.69L891.84 108.69ZM961.38 136.05L951.02 136.05L945.85 128.65L935.49 115.34C935.49 115.34 928.83 108.69 928.83 107.94L926.61 107.94L926.61 136.79L918.47 136.79L918.47 77.63L936.97 77.63C949.55 77.63 956.21 82.07 956.21 90.95C956.21 99.07 949.55 104.99 939.18 107.21C939.18 107.94 962.13 136.05 961.38 136.05ZM936.97 102.77C942.89 101.29 947.32 96.85 947.32 90.95C947.32 85.03 944.37 82.07 938.45 80.59C935.49 79.85 930.31 80.59 926.61 80.59L926.61 103.51C928.09 103.51 933.26 103.51 936.97 102.77ZM1005.03 82.81L1004.3 82.81C999.12 82.07 993.2 81.33 987.28 81.33L987.28 135.3L979.14 135.3L979.14 81.33C971.75 81.33 966.56 82.07 961.38 82.81L960.64 82.81L960.64 76.9L1005.03 76.9L1005.03 82.81ZM1012.44 76.9L1020.58 76.9L1020.58 136.05L1012.44 136.05L1012.44 76.9ZM1078.27 76.9L1084.19 76.9L1084.19 136.05L1080.49 136.05L1076.06 130.87C1076.06 130.87 1039.8 90.95 1039.07 90.2L1039.07 136.05L1033.15 136.05L1033.15 76.9L1037.58 76.9C1037.58 76.9 1077.54 119.78 1078.27 120.51L1078.27 76.9Z" />
</svg>