<svg version="1.2" xmlns="http://www.w3.org/2000/svg" viewBox="0 0 1534 288" width="1534" height="288">
	<title>AMNB_BIG copy</title>
	<defs>
		<clipPath clipPathUnits="userSpaceOnUse" id="cp1">
			<path d="m-982.55-3889.62h3499.1v4532.43h-3499.1z"/>
		</clipPath>
	</defs>
	<style>
		.s0 { fill: none;stroke: #003a6f;stroke-width: 2.9 } 
		.s1 { fill: #003a6f } 
		.s2 { fill: #cfc6c0 } 
		.s3 { fill: #d8282f } 
	</style>
	<g id="Clip-Path: Clip-Path: Page 1" clip-path="url(#cp1)">
		<g id="Clip-Path: Page 1">
			<g id="Page 1">
				<path id="Path 252" class="s0" d="m2.6 185h641.8m253.5 0h633.5"/>
				<path id="Path 254" fill-rule="evenodd" class="s1" d="m32 119.8c-0.6 0-0.6 0-0.8 0.8l-6 15.5c-0.9 2.5-1.5 5.1-1.5 6.5 0 2 0.9 3.5 4.3 3.5h1.7c1.2 0 1.5 0.3 1.5 0.8 0 0.9-0.6 1.2-1.8 1.2-3.4 0-8.2-0.6-11.4-0.6-1.4 0-7.4 0.6-12.9 0.6-1.4 0-2-0.3-2-1.2 0-0.5 0.3-0.8 1.2-0.8 1.1 0 2.6-0.3 3.4-0.3 4.9-0.6 7.2-4.3 9.2-9.7l27.1-68.4c1.5-3.2 2-4.3 3.2-4.3q1.3 0 2.5 3.4c2.9 6 20.1 50.4 27.2 67 4 9.7 7.1 11.1 9.4 11.7 1.8 0.3 3.2 0.6 4.6 0.6q0.6 0 0.9 0 0.3 0 0.8 0c0.9 0 1.5 0 3.2-0.3 3.1-0.9 4-4.9 4.5-8.6l10.6-71q0.6-2.8 2-2.8c0.9 0 1.5 0.6 2.9 3.4l29.4 61.2 29.8-62c0.8-1.8 1.4-2.6 2.2-2.6q1.5 0 2 3.4l9.8 67.3c1.1 6.8 2.3 10 5.4 10.8 3.1 0.9 5.4 1.2 6.6 1.2 1.1 0 2 0 2 0.5 0 0.9-1.5 1.5-2.9 1.5-2.8 0-17.7-0.6-22-0.9-2.6 0-3.1-0.6-3.1-1.1 0-0.6 0.2-0.9 1.1-1.2 0.6-0.3 0.9-1.7 0.6-4.5l-6.6-47.8h-0.6l-23.4 49.2c-2.6 5.1-3.2 6-4 6-1.2 0-2.3-2-4-5.4-2.6-4.9-11.2-21.5-12.3-24.7-1.2-2.2-7.4-16-11.4-24h-0.3l-5.8 43.2c-0.2 2-0.2 3.5-0.2 5.2 0 2 1.4 2.8 3.1 3.4 2 0.3 3.4 0.6 4.6 0.6 0.8 0 1.7 0.3 1.7 0.5 0 1.2-1.1 1.5-2.6 1.5-4.6 0-9.4-0.6-11.4-0.6-2 0-7.4 0.6-10.9 0.6q-0.8 0-1.1-0.3c-0.9 0-2 0.3-4.3 0.3-3.7 0-11.7 0-20.3-0.3-2-0.3-3.4-0.3-3.4-0.9 0-0.5 0.5-0.8 1.7-1.1 0.6 0 1.4-1.2 0.8-2.3l-8.5-23.2q-0.3-0.8-1.2-0.5zm22-5.5c0.6 0 0.9-0.6 0.6-0.8l-9.7-26.7c0-0.5-0.3-1.1-0.6-1.1-0.3 0-0.6 0.6-0.6 1.1l-10 26.7c0 0.2 0 0.8 0.3 0.8zm162.7-16.9c0-16.6 0-19.7-0.3-23.1 0-3.8-0.9-5.5-4.6-6.1-0.8-0.2-2.6-0.5-4.3-0.5-1.1 0-1.7 0-1.7-0.9 0-0.8 0.9-0.8 2.3-0.8 2.9 0 6.3 0 8.9 0 2.8 0 5.4 0.2 6.8 0.2 3.5 0 25.2 0 27.2-0.2 2 0 3.7-0.3 4.6-0.6 0.5 0 1.1-0.3 1.7-0.3 0.5 0 0.5 0.3 0.5 0.9 0 0.8-0.2 2-0.8 7.1 0 1.2-0.3 5.7-0.3 7.2-0.3 0.5-0.6 1.1-1.1 1.1-0.9 0-1.2-0.6-1.2-1.4 0-0.9 0-2.6-0.6-4-0.8-2-1.7-3.2-7.1-4-2 0-13.4-0.3-15.4-0.3q-0.9 0-0.9 1.1v27.5c0 0.6 0 1.1 0.9 1.1 2.2 0 14.8 0 17.1-0.2 2.9-0.3 4.3-0.6 5.4-1.8 0.6-0.8 1.2-1.4 1.8-1.4 0.2 0 0.5 0.3 0.5 0.9 0 0.8-0.3 2.5-0.8 8 0 2.3-0.3 6.6-0.3 7.4 0 0.9 0 2-1.2 2-0.5 0-0.8-0.6-0.8-1.1 0-0.9 0-2.3-0.6-3.7-0.3-2.3-2-4.1-6-4.3-2-0.3-12.9-0.3-15.4-0.3-0.6 0-0.6 0.3-0.6 1.1 0 3.5 0 22.1 0 25.2 0.3 7.7 2 9.2 13.2 9.2 2.5 0 7.1 0 10-1.2 2.8-1.4 4.2-3.7 4.8-8 0.3-1.4 0.6-1.7 1.4-1.7 0.9 0 0.9 0.8 0.9 2 0 2.3-0.9 9.7-1.4 12-0.9 2.9-1.7 2.9-6 2.9-8 0-14-0.3-18.9-0.3-4.6-0.3-8-0.6-11.1-0.6-1.2 0-3.8 0-6.3 0.3-2.3 0-5.2 0.3-7.5 0.3q-2 0-2-1.2c0-0.5 0.3-0.8 1.7-0.8 1.5 0 2.9-0.3 3.8-0.6 2.3-0.3 2.8-2.9 3.1-6 0.6-4.6 0.6-13.2 0.6-22.9zm63.2 0c0-16.6 0-19.7-0.3-23.2 0-3.7-1.2-5.4-4.6-6.3-0.9 0-2.9-0.3-4.3-0.3-1.1 0-1.7 0-1.7-0.8 0-0.9 0.6-1.2 2.3-1.2 5.7 0 12.6 0.6 14.8 0.6 3.8 0 12.1-0.6 15.5-0.6 6.6 0 14 0.9 19.7 4.9 3.2 2 7.4 7.4 7.4 14.9 0 8-3.4 15.4-14.2 24.3 9.7 12 17.1 21.8 23.4 28.6 6.3 6.3 10.6 6.9 12.3 7.2q1.7 0.5 3.1 0.5 1.2 0 1.2 0.9c0 0.9-0.6 0.9-2 0.9h-10.3c-6 0-8.9-0.6-11.7-2-4.6-2.6-8.6-7.5-14.9-16.1-4.3-5.7-9.2-13.1-10.6-14.8-0.6-0.6-1.1-0.9-2-0.9h-9.4c-0.6 0-0.9 0-0.9 0.9v1.4c0 10 0 18.6 0.6 23.2 0.3 3.1 0.9 5.7 4.3 6 1.4 0.3 4 0.5 5.1 0.5q1.5 0 1.5 0.9 0 0.9-2.3 0.9c-6.3 0-14.3-0.3-16-0.3-2 0-8.9 0.3-13.2 0.3q-2 0-2.3-0.9 0-0.9 1.7-0.9c1.8 0 3.2-0.2 4-0.5 2.3-0.3 2.9-2.9 3.2-6 0.6-4.6 0.6-13.2 0.6-23.2zm12.8 8.6c0 1.1 0.3 1.7 0.9 2 2.3 0.8 5.7 1.1 8.3 1.1 4.3 0 5.7-0.6 7.7-2 3.1-2.3 6.3-7.1 6.3-16 0-15.5-10-20-16.6-20q-4 0-5.7 0.5c-0.6 0-0.9 0.6-0.9 1.5zm72.3-8.6c0-16.6 0-19.5-0.2-23.2-0.3-3.4-1.2-5.4-3.8-6-1.1-0.3-2.5-0.3-3.7-0.3-1.1 0-1.7-0.3-1.7-1.1q0-0.9 2.6-0.9c4 0 10.9 0.3 14 0.3 2.6 0 9.1-0.3 13.1-0.3 1.5 0 2.3 0.3 2.3 0.9 0 0.8-0.5 1.1-1.7 1.1-1.1 0-2 0-3.1 0.3-2.9 0.6-4 2.3-4 6-0.3 3.7-0.3 6.6-0.3 23.2v19.2c0 10.5 0 19.1 0.3 23.7 0.5 2.9 1.1 4.9 4.5 5.2 1.5 0.2 3.8 0.5 5.5 0.5q1.7 0 1.7 0.9c0 0.8-0.9 1.1-2 1.1-7.2 0-14-0.3-16.9-0.3-2.5 0-9.4 0.3-13.7 0.3q-2.3 0-2.3-1.1 0-0.9 1.7-0.9c1.7 0 3.2-0.3 4-0.5 2.3-0.3 2.9-2.3 3.2-5.5 0.5-4.3 0.5-12.9 0.5-23.4zm43.2 40.3c-10.8-9.4-13.7-21.7-13.7-32 0-7.5 2.3-20.4 12.9-29.8 7.7-7.2 18-11.7 34.3-11.7 6.5 0 10.5 0.5 15.7 1.1 4 0.6 7.4 1.4 10.9 2 1.1 0 1.4 0.6 1.4 1.2 0 0.8-0.3 2.2-0.3 6-0.3 3.7-0.3 9.4-0.6 11.7 0 1.7-0.3 2.6-1.1 2.6-0.9 0-1.2-0.9-1.2-2.6 0-3.2-1.4-7.2-4.3-10-3.4-3.7-12-6.6-22-6.6-9.4 0-15.4 2.3-20.3 6.6-8 7.4-10 17.7-10 28.3 0 25.8 19.8 38.6 34.3 38.6 9.5 0 15.5-1.1 19.8-6 1.7-2.3 3.1-5.4 3.7-7.1 0.3-1.7 0.6-2.3 1.4-2.3 0.6 0 0.9 0.8 0.9 1.7 0 1.1-1.2 10.6-2.3 14.3-0.6 2-1.2 2.6-2.9 3.2-4.3 1.7-12.6 2.5-19.4 2.5-14.9 0-27.5-3.1-37.2-11.7zm92.6-18c-0.5 0-0.8 0-0.8 0.8l-6 15.5c-1.2 2.6-1.7 5.1-1.7 6.6 0 2 1.1 3.4 4.5 3.4h1.5c1.4 0 1.7 0.3 1.7 0.9 0 0.8-0.6 1.1-2 1.1-3.4 0-8-0.6-11.5-0.6-1.1 0-7.1 0.6-12.8 0.6-1.4 0-2-0.3-2-1.1 0-0.6 0.6-0.9 1.4-0.9 0.9 0 2.6-0.3 3.4-0.3 4.9-0.6 6.9-4.3 9.2-9.7l27.1-68.4c1.5-3.2 2-4.3 3.2-4.3 0.8 0 1.4 1.1 2.6 3.4 2.5 6 20 50.4 26.8 67 4.3 9.7 7.5 11.2 9.8 11.7 1.4 0.3 3.1 0.6 4.5 0.6 0.6 0 1.2 0 1.2 0.3q0.5-0.3 1.7-0.3c1.4 0 3.4-0.3 4.8-0.6 2.9-0.8 3.2-4 3.5-13.4l0.8-64.4c0-2 0.3-3.7 1.5-3.7 1.1 0 2.3 1.4 4 3.4 1.4 1.4 17.7 19.2 33.7 34.9 7.4 7.5 22 22.9 23.7 24.6h0.6l-1.1-48.6c0-6.6-0.9-8.6-3.8-9.7-1.4-0.9-4-0.9-5.7-0.9q-1.7 0-1.7-0.9c0-0.8 1.2-0.8 2.9-0.8 5.7 0 10.8 0.3 13.1 0.3 1.2 0 5.4-0.3 10.6-0.3 1.4 0 2.6 0 2.6 0.8q0 0.9-2 0.9c-1.2 0-2 0-3.2 0.6-3.1 0.8-4 3.1-4 9.1l-1.1 68.4c0 2.6-0.6 3.4-1.5 3.4-1.4 0-2.5-1.1-3.7-2.2-6.8-6.6-20.8-20.9-32-32.1-12-11.7-24-25.2-26-27.2h-0.3l1.2 45.5c0.2 8.6 1.7 11.2 4 12 1.7 0.6 3.7 0.9 5.4 0.9 1.4 0 2 0.3 2 0.9 0 0.8-1.2 1.1-2.6 1.1-6.8 0-11.4-0.6-13.4-0.6-0.9 0-6 0.6-11.7 0.6-1.2 0-2-0.3-2.3-0.9-0.3 0.6-1.7 0.9-4.9 0.9-4 0-11.7 0-20.6-0.3-1.7-0.3-3.1-0.3-3.1-0.8 0-0.6 0.6-0.9 1.4-1.2 0.9 0 1.7-1.1 1.2-2.3l-8.9-23.2q-0.3-0.8-0.9-0.5zm22.1-5.5c0.5 0 0.5-0.5 0.5-0.8l-9.7-26.6c-0.3-0.6-0.3-1.2-0.6-1.2-0.3 0-0.5 0.6-0.5 1.2l-10 26.6c-0.3 0.3 0 0.8 0.2 0.8zm390.5 18.9c0 8.6 1.5 11.2 3.8 12 1.7 0.6 4 0.9 5.7 0.9q1.7 0 1.7 0.9c0 0.8-0.9 1.1-2.6 1.1-6.8 0-11.1-0.6-13.4-0.6-0.9 0-6 0.6-11.7 0.6-1.5 0-2.3-0.3-2.3-1.1q0-0.9 1.7-0.9c1.4 0 3.4-0.3 4.9-0.6 2.8-0.8 3.4-4 3.4-13.4l0.8-64.4c0-2 0.3-3.7 1.5-3.7 1.1 0 2.3 1.4 4 3.4 1.4 1.4 18 19.2 33.7 34.9 7.4 7.5 22 22.9 23.7 24.6h0.6l-0.9-48.6c-0.2-6.6-1.1-8.6-3.7-9.7-1.7-0.9-4.3-0.9-5.7-0.9-1.4 0-1.7-0.3-1.7-0.9 0-0.8 1.1-0.8 2.6-0.8 5.7 0 10.8 0.3 13.1 0.3 1.2 0 5.5-0.3 10.6-0.3 1.4 0 2.6 0 2.6 0.8q0 0.9-2 0.9c-0.9 0-1.7 0-3.2 0.6-3.1 0.8-4 3.1-4 9.1l-1.1 68.4c0 2.6-0.6 3.4-1.5 3.4-1.1 0-2.5-1.1-3.7-2.2-6.8-6.6-20.8-20.9-32-32.1-11.7-11.7-24-25.2-25.7-27.2h-0.3z"/>
				<path id="Path 255" fill-rule="evenodd" class="s1" d="m1013.4 119.8c-0.5 0-0.8 0-1.1 0.8l-5.7 15.5c-1.2 2.5-1.8 5.1-1.8 6.5 0 2 0.9 3.5 4.3 3.5h1.8q1.7 0 1.7 0.8c0 0.9-0.9 1.2-2 1.2-3.5 0-8-0.6-11.5-0.6-1.1 0-7.1 0.6-12.8 0.6-1.5 0-2-0.3-2-1.2 0-0.5 0.2-0.8 1.1-0.8 1.2 0 2.6-0.3 3.4-0.3 5.2-0.6 7.2-4.3 9.2-9.7l27.4-68.4c1.2-3.2 2-4.3 2.9-4.3 1.1 0 1.7 1.1 2.8 3.4 2.6 6 20.1 50.4 26.9 67 4 9.7 7.2 11.1 9.5 11.7 1.7 0.3 3.4 0.6 4.5 0.6 0.9 0 1.5 0 1.5 0.8 0 0.9-0.9 1.2-4.9 1.2-4 0-12 0-20.6-0.3-2-0.3-3.1-0.3-3.1-0.9 0-0.5 0.3-0.8 1.4-1.1 0.9 0 1.4-1.2 0.9-2.3l-8.6-23.2q-0.3-0.8-1.2-0.5zm22.3-5.5c0.6 0 0.6-0.6 0.6-0.8l-10-26.7c0-0.5 0-1.1-0.6-1.1-0.3 0-0.3 0.6-0.5 1.1l-10 26.7c0 0.2 0 0.8 0.5 0.8zm62.3-42.3l-16.3 0.3c-6.2 0.2-8.8 0.8-10.5 3.1-1.2 1.7-1.5 3.1-1.7 4-0.3 0.9-0.6 1.1-1.2 1.1-0.8 0-1.1-0.5-1.1-1.7 0-1.7 2-11.4 2.3-12.3 0.2-1.4 0.5-2.3 1.4-2.3 0.8 0 2 1.2 4.6 1.5 3.1 0.3 7.1 0.5 10.8 0.5h42.9c3.4 0 6-0.2 7.4-0.5 1.8-0.3 2.6-0.6 3.2-0.6 0.6 0 0.8 0.6 0.8 2.3 0 2.3-0.2 9.7-0.2 12.6-0.3 1.1-0.6 1.7-1.2 1.7-0.8 0-1.1-0.6-1.1-2.3v-1.1c-0.3-2.9-3.2-5.8-12.9-6l-13.7-0.3v44.6c0 9.7 0 18.3 0.6 23.2 0.2 2.8 0.8 5.4 4.2 5.7 1.5 0.3 3.8 0.6 5.5 0.6q1.7 0 1.7 0.8c0 0.6-0.9 1.2-2 1.2-7.2 0-14-0.6-17.2-0.6-2.3 0-9.1 0.6-13.4 0.6q-2.3 0-2.3-1.2c0-0.5 0.3-0.8 1.7-0.8 1.7 0 2.9-0.3 4-0.6 2-0.3 2.9-2.9 3.2-6 0.5-4.6 0.5-13.2 0.5-22.9zm65.8 25.2c0-16.3 0-19.5-0.3-22.9-0.3-3.7-1.1-5.4-3.7-6-1.2-0.6-2.6-0.6-3.7-0.6-1.2 0-2-0.3-2-1.1 0-0.6 1.1-0.9 2.8-0.9 4 0 10.9 0.3 14 0.3 2.6 0 9.2-0.3 13.2-0.3 1.4 0 2.3 0.3 2.3 0.9 0 0.8-0.6 1.1-1.7 1.1-1.2 0-2 0-3.2 0.3-3.1 0.6-4 2.6-4 6.3-0.3 3.4-0.3 6.6-0.3 22.9v19.2c0 10.5 0 19.1 0.3 23.7 0.6 2.9 1.2 4.9 4.6 5.4 1.4 0.3 3.7 0.3 5.4 0.3q1.7 0 1.7 0.9c0 0.8-0.8 1.1-2 1.1-7.1 0-14-0.3-16.8-0.3-2.6 0-9.5 0.3-13.8 0.3q-2.2 0-2.2-1.1c0-0.3 0.5-0.9 1.7-0.9 1.7 0 3.1 0 4-0.3 2.3-0.5 2.8-2.2 3.1-5.4 0.6-4.6 0.6-13.2 0.6-23.7zm31.7 9.7c0-18.6 12.3-42.7 44.9-42.7 26.9 0 43.7 15.8 43.7 40.7 0 24.9-17.4 44.3-44.8 44.3-31.2 0-43.8-23.1-43.8-42.3zm73.5 2c0-24.3-14-39.5-31.7-39.5-12.6 0-26.9 6.9-26.9 34 0 22.7 12.6 40.4 33.4 40.4 7.8 0 25.2-3.7 25.2-34.9zm39.4 24c0.3 8.6 1.8 11.5 4 12.3 1.8 0.6 3.8 0.6 5.5 0.6 1.4 0 2 0.3 2 0.9 0 0.8-1.2 1.1-2.6 1.1-6.9 0-11.4-0.3-13.4-0.3-0.9 0-6 0.3-11.7 0.3-1.5 0-2.3 0-2.3-1.1q0-0.9 1.7-0.9c1.4 0 3.4 0 4.8-0.6 2.9-0.8 3.2-4 3.5-13.4l0.8-64.1c0-2.3 0.3-3.7 1.5-3.7 1.1 0 2.2 1.4 4 3.1 1.4 1.4 17.7 19.2 33.7 34.9 7.4 7.5 22 23.2 23.7 24.9h0.6l-1.2-48.9c0-6.6-0.8-8.6-3.7-9.7-1.4-0.6-4-0.6-5.7-0.6-1.1 0-1.7-0.3-1.7-1.2 0-0.8 1.1-0.8 2.9-0.8 5.7 0 10.8 0.3 13.1 0.3 1.2 0 5.4-0.3 10.6-0.3 1.4 0 2.6 0 2.6 0.8q0 1.2-2 1.2c-1.2 0-2 0-3.2 0.3-3.1 0.8-4 3.1-4 9.1l-1.1 68.7c0 2.3-0.6 3.4-1.5 3.4-1.4 0-2.5-1.4-3.7-2.5-6.8-6.6-20.8-20.6-32-31.8-12-11.7-24-25.5-26-27.5h-0.3zm102.1-13.4c-0.6 0-0.6 0-0.9 0.8l-6 15.5c-0.9 2.6-1.4 5.1-1.4 6.6 0 2 0.8 3.4 4.3 3.4h1.7c1.1 0 1.4 0.3 1.4 0.9 0 0.8-0.6 1.1-1.7 1.1-3.4 0-8.3-0.6-11.4-0.6-1.5 0-7.2 0.6-12.9 0.6-1.4 0-2-0.3-2-1.1 0-0.6 0.3-0.9 1.1-0.9 1.2 0 2.6-0.3 3.5-0.3 4.8-0.6 7.1-4.3 9.1-9.7l27.2-68.4c1.4-3.1 2-4.3 3.1-4.3 0.9 0 1.7 1.2 2.9 3.4 2.5 6.1 19.7 50.4 26.8 67 4 9.7 7.2 11.2 9.5 11.7 1.7 0.3 3.1 0.6 4.6 0.6 0.8 0 1.4 0 1.4 0.9 0 0.8-0.9 1.1-5.2 1.1-3.7 0-11.7 0-20.3-0.3-2-0.3-3.4-0.3-3.4-0.8 0-0.6 0.6-0.9 1.7-1.2 0.6 0 1.5-1.1 0.9-2.3l-8.6-23.2q-0.3-0.8-1.1-0.5zm22-5.5c0.5 0 0.8-0.5 0.5-0.8l-9.7-26.6c0-0.6-0.3-1.2-0.5-1.2-0.3 0-0.6 0.6-0.6 1.2l-10 26.6c0 0.3 0 0.8 0.5 0.8zm64.1 2.3c0 13.8 0 21.2 2.3 23.2 1.7 1.7 4.5 2.3 13.1 2.3 5.7 0 10 0 12.6-2.9 1.4-1.4 2.6-4.5 2.9-6.5 0-0.9 0.2-1.8 1.1-1.8 0.9 0 0.9 0.6 0.9 2 0 1.2-0.9 9.2-1.8 12.3-0.5 2.6-1.1 3.2-6.5 3.2-8 0-13.8-0.3-18.6-0.3-4.9-0.3-8.6-0.6-13.2-0.6-1.1 0-3.4 0-6.3 0.3-2.2 0-5.1 0.3-7.4 0.3q-2 0-2-1.1c0-0.6 0.3-0.9 1.7-0.9 1.5 0 2.9-0.3 3.7-0.6 2.3-0.3 2.9-2.8 3.2-6 0.6-4.6 0.6-13.1 0.6-22.9 0-16.6 0-38.9 0-42.3-0.3-3.7-1.2-5.5-4.9-6-0.9-0.3-2-0.3-3.4-0.3-1.2 0-2-0.3-2-1.2 0-0.8 0.8-0.8 2.5-0.8 4.9 0 11.8 0.3 14.9 0.3 2.6 0 10.3-0.3 14.6-0.3 1.7 0 2.3 0 2.3 0.8 0 0.9-0.6 1.2-2 1.2-1.2 0-2.9 0-4 0.3-3.2 0.5-4 2.3-4 6-0.3 3.4-0.3 6.6-0.3 23.2z"/>
				<path id="Path 256" class="s2" d="m772.1 195.9c-53.9 0-97.4-43.7-97.4-97.8 0-54 43.5-97.7 97.4-97.7 54 0 97.5 43.7 97.5 97.7 0 54.1-43.5 97.8-97.5 97.8z"/>
				<path id="Path 257" class="s1" d="m698.7 99.1l0.8-2.2c0 0 10-8.3 25.5-8.3 11.7 0 36 4.3 56.6 4.3 17.7 0 32.6-7.8 32.6-7.8l8.8 7.8c0 0-14.8 6.8-34.8 6.8-7.2 0-18.3-2-30.3-3.1-11.5-1.5-27.8-4-35.5-4-16 0-23.7 6.5-23.7 6.5z"/>
				<path id="Path 258" fill-rule="evenodd" class="s1" d="m380.8 241.6h16.6q2.8 0 5.7 0.3 2.8 0.6 5.1 1.7 2.3 1.2 3.7 3.5 1.5 2 1.5 5.7 0 3.7-2 6.3-2 2.6-5.5 3.4v0.3q2 0.3 3.8 1.2 2 0.8 3.1 2.3 1.4 1.4 2 3.4 0.9 1.7 0.9 4 0 3.4-1.8 5.7-1.4 2.3-3.7 3.7-2.5 1.8-5.4 2.3-2.9 0.6-6 0.6h-18zm9.7 17.7h7.2q1.1 0 2-0.2 1.1-0.3 2-0.9 0.8-0.6 1.4-1.4 0.6-0.9 0.6-2.3 0-1.5-0.6-2.3-0.6-0.9-1.4-1.4-1.2-0.6-2.3-0.6-1.2-0.3-2.3-0.3h-6.6zm0 18.3h8.9q0.8 0 2.3-0.3 1.1-0.3 2-0.8 0.8-0.6 1.4-1.8 0.6-0.8 0.6-2.2 0-1.8-0.6-2.6-0.9-0.9-2-1.4-1.2-0.6-2.6-0.9-1.4 0-2.6 0h-7.4zm58.6-36.1h8l19.5 44.4h-11.2l-3.7-9.5h-17.5l-3.7 9.5h-10.5zm3.7 12.9l-5.5 13.7h10.9zm42.6-12.9h13.1l18.9 30.9v-30.9h10v44.4h-12.8l-19.5-31.5v31.5h-9.7zm66.9 0h10v18.6l17.2-18.6h12.8l-20 20.6 21.4 23.7h-13.4l-18-20.9v20.9h-10zm82.6 10.9q-1.1-1.4-3.4-2.3-2-0.6-3.7-0.6-1.2 0-2.3 0.3-1.2 0.3-2 0.9-1.2 0.3-1.7 1.4-0.6 0.9-0.6 2 0 2 1.4 3.2 1.7 0.8 4 1.7 2.3 0.8 4.9 1.4 2.6 0.9 4.8 2.3 2.3 1.4 3.8 3.7 1.4 2.3 1.4 6 0 3.8-1.2 6.6-1.4 2.9-3.7 4.6-2.5 1.7-5.4 2.6-3.2 0.8-6.6 0.8-4.3 0-8-1.1-3.7-1.5-7.1-4.3l7.1-7.7q1.4 2 3.7 3.1 2.3 1.2 4.9 1.2 1.1 0 2.3-0.3 1.1-0.3 2.3-0.9 0.8-0.6 1.4-1.4 0.6-0.9 0.6-2 0-2-1.5-3.2-1.4-1.1-4-2-2.3-0.8-4.8-1.7-2.9-0.8-5.2-2.3-2.3-1.1-3.7-3.4-1.7-2.3-1.7-6 0-3.7 1.4-6.3 1.5-2.9 4-4.6 2.3-1.7 5.5-2.6 2.8-1.1 6.2-1.1 3.8 0 7.2 1.1 3.4 1.2 6.3 3.7zm28.6-10.8h9.7v16.6h18.9v-16.6h10v44.3h-10v-19.1h-18.9v19.1h-9.7zm76.6 0h8l19.1 44.4h-10.8l-4-9.5h-17.2l-3.7 9.5h-10.6zm3.7 12.9l-5.4 13.7h10.9zm42.3-12.9h17.1q3.5 0 6.6 0.9 3.2 0.5 5.4 2 2.3 1.7 3.5 4.3 1.4 2.5 1.4 6.3 0 4.8-2.6 8-2.3 3.4-7.1 4.3l11.4 18.6h-11.7l-9.1-17.8h-4.9v17.8h-10zm10 18.6h5.7q1.2 0 2.9-0.3 1.4 0 2.5-0.6 1.2-0.3 2-1.4 0.6-0.9 0.6-2.9 0-1.7-0.6-2.6-0.5-1.1-1.7-1.4-1.1-0.6-2.5-0.9-1.2-0.2-2.6-0.2h-6.3zm45.4-18.4h30.4v9.2h-20.6v8.3h19.4v8.9h-19.4v9.1h21.7v8.9h-31.5zm76.9 10.9q-1.4-1.5-3.4-2-2-0.9-3.7-0.9-1.1 0-2.3 0.3-1.1 0.3-2 0.9-1.1 0.5-1.7 1.4-0.6 0.8-0.6 2 0 2 1.5 3.1 1.4 0.9 3.7 1.8 2.3 0.8 4.8 1.4 2.9 0.8 5.2 2.3 2.3 1.4 3.7 3.7 1.4 2.3 1.4 6 0 3.7-1.4 6.6-1.1 2.8-3.7 4.6-2.3 1.7-5.5 2.8-3.1 0.9-6.5 0.9-4.3 0-8-1.4-3.7-1.5-6.9-4.3l6.9-7.8q1.7 2 4 3.2 2.3 1.1 4.5 1.1 1.2 0 2.6-0.3 1.2-0.2 2-0.8 1.2-0.6 1.7-1.4 0.6-0.9 0.6-2.1 0-2-1.4-3.1-1.7-1.1-4-2-2.3-0.9-4.9-1.7-2.8-0.9-5.1-2.3-2.3-1.2-3.7-3.4-1.8-2.3-1.8-6.1 0-3.7 1.5-6.2 1.4-2.6 3.7-4.6 2.6-1.7 5.4-2.6 3.2-1.1 6.3-1.1 4 0 7.4 1.1 3.5 1.1 6.3 3.7zm63.8-10.9h9.7v44.4h-9.7zm34.3 0h13.4l18.9 30.9v-30.9h9.7v44.4h-12.6l-19.4-31.5h-0.3v31.5h-9.7zm93.2 11.4q-1.5-1.7-3.5-2.6-2-0.8-4.8-0.8-2.9 0-5.2 1.1-2.2 0.9-4 2.9-1.7 2-2.5 4.5-1.2 2.6-1.2 5.8 0 3.1 1.2 5.7 0.8 2.6 2.5 4.6 1.8 1.7 4 2.8 2.3 1.2 4.9 1.2 2.9 0 5.4-1.5 2.3-1.1 3.7-3.4l8.1 6q-2.6 4-7.2 6-4.3 1.7-8.9 1.7-5.1 0-9.4-1.4-4.6-1.7-7.7-4.8-3.2-2.9-4.9-7.2-1.7-4.6-1.7-9.7 0-5.5 1.7-9.8 1.7-4.3 4.9-7.4 3.1-2.9 7.7-4.6 4.3-1.7 9.4-1.7 2 0 4 0.3 2 0.6 4 1.1 2 0.9 3.8 2 2 1.5 3.4 3.2zm20.9 27.5q0-1.2 0.5-2.3 0.3-1.2 1.2-1.7 0.8-0.9 2-1.5 0.8-0.3 2.3-0.3 1.1 0 2 0.3 1.1 0.6 2 1.5 0.8 0.5 1.1 1.7 0.6 1.1 0.6 2.3 0 1.1-0.6 2.2-0.3 1.2-1.1 1.8-0.9 0.8-2 1.4-0.9 0.3-2 0.3-1.5 0-2.3-0.3-1.2-0.6-2-1.4-0.9-0.6-1.2-1.8-0.5-1.1-0.5-2.2z"/>
				<path id="Path 259" class="s1" d="m749 109.4l-8 21.2c-1.4 3.7-2 7.2-2 9.2 0 2.6 1.1 4.6 5.7 4.6h2.3c1.7 0 2.3 0.2 2.3 1.1 0 1.1-0.9 1.4-2.6 1.4-4.9 0-11.1-0.3-15.7-0.3-1.7 0-9.7 0.3-17.5 0.3-2 0-2.8-0.3-2.8-1.4 0-0.9 0.6-1.1 1.7-1.1 1.4 0 3.4-0.3 4.6-0.3 6.8-0.9 9.7-6 12.6-13.5l37.4-93.5c1.7-4.3 2.6-6.1 4.3-6.1 1.1 0 2 1.5 3.7 4.9 3.4 8.3 27.2 69 36.9 91.6 5.4 13.4 10 15.4 12.8 16.3 2.3 0.3 4.6 0.6 6.3 0.6 1.2 0 2 0 2 1.1 0 1.1-1.4 1.4-6.8 1.4-5.5 0-16.3 0-28-0.3-2.9 0-4.6 0-4.6-1.1 0-0.9 0.6-1.1 2-1.4 1.1-0.3 2.3-1.5 1.4-3.5l-12-31.4c-0.3-0.9-16.9-47-17.7-47"/>
				<path id="Path 260" class="s3" d="m694.4 107.4l2-4.2c0 0 10-6.9 24.6-6.9 12.3 0 65.7 13.4 88.6 13.4 18.9 0 28.6-4 28.6-4l18.6 15.8c0 0-7.2 2.5-27.5 2.5-19.4 0-35.4-4.5-53.4-9.1-24.9-6-46.9-12.3-59.5-12.3-14 0-22 4.8-22 4.8z"/>
			</g>
		</g>
	</g>
</svg>