<svg version="1.2" xmlns="http://www.w3.org/2000/svg" viewBox="0 0 1550 210" width="1550" height="210">
	<title>AMLogo_2387C_RGB_2100w-svg</title>
	<style>
		.s0 { fill: #0762c8 } 
	</style>
	<g id="#0762c8ff">
		<path id="Layer" fill-rule="evenodd" class="s0" d="m548.1 0h12.9c13.7 0.4 27.4 1.4 40.9 3.6 27.4 4.1 53.9 12.9 79.2 23.9 23.3 10.2 45.2 23.5 65.8 38.5 8.4 6.3 16.9 12.7 24.1 20.4-25.7-18.7-53.3-35.1-82.5-47.7-30.9-13.1-63.7-21.4-97-24.6-33.4-3.5-67.1-1.3-100 4.8-34.7 6.4-68.6 16.6-101.9 28.3-34.8 12.5-69 26.6-103.3 40.4-0.3-0.3-0.8-0.8-1-1.1-5.8-0.5-11.7 0.2-17.5-0.3 29.3-13 58.6-26.3 88.2-38.7 31.3-12.5 62.9-24.6 95.5-33.1 31.6-8.4 64-13.6 96.6-14.4zm-181 106.6c-0.1-7.7 0-15.5 0-23.2 16.2 0 32.4 0 48.6 0 0 6.7-0.1 13.4 0 20.1 0 1.1-0.2 2.2-0.4 3.2-16.1-0.2-32.1-0.1-48.2-0.1zm845.5-23.2q24.3 0 48.6 0c-0.1 7.8 0.1 15.5-0.1 23.2-16 0-32.1-0.1-48.1 0.1-0.6-2-0.4-4.1-0.4-6.1q0-8.6 0-17.2zm-1114.3 2.9c20.3 0 40.6 0 60.8 0 7.8 12.9 15.5 26 23.4 38.9 0.4-0.2 1.2-0.4 1.7-0.6q26.5-12.2 53.1-24.4c0-4.6 0-9.2 0-13.9 10.2 0 20.4 0.1 30.5 0-10 4.8-20.3 9.2-30.4 14q0 4.6 0 9.1c16.2-7.2 32.4-14.5 48.5-21.8-0.1 37 0 74 0 111.1-16.2 0-32.4 0-48.6 0 0-29.7 0-59.4 0-89.1-42.9 19.4-85.8 38.6-129.1 57.1-1.8 0.8-4 1.3-4.9 3.2-5.9 9.7-11.9 19.2-17.8 28.8-17.4 0-34.9 0.1-52.3 0.1-2-0.1-3.9 0.4-5.8 1.1-5.8 2.3-11.7 4.4-17.6 6.6-2.4 1-5.2 1.4-7 3.5h-2.8v-0.4c0.9-0.4 1.8-0.8 2.6-1.2v1.2c2.2-2.5 5.5-3.3 8.4-4.8 41.9-19.4 83.8-38.8 125.6-58.3-3.4-5.1-6.6-10.3-9.9-15.5-4.4 5.4-8.4 11-13 16.3-3.3 2.2-7.3 3.4-10.9 5.3-23.7 10.9-47.4 21.9-71.1 32.8 22.2-33 44.4-66 66.6-99.1zm203.8 112.3c0.1-37.4 0-74.8 0.1-112.3 16.2 0.1 32.4 0 48.5 0 0.1 37.5 0 74.9 0.1 112.4-16.3 0-32.5 0-48.7-0.1zm358.7-112.2c16.1-0.2 32.3 0 48.4-0.1 0.1 37.5-0.1 74.9 0 112.3q-21.8 0.1-43.6 0c0-3.6 0-7.2 0-10.7-3.7 3-7.5 5.9-11.8 8-8.2 4.1-17.4 5.2-26.4 5.1-12.5-0.1-25.3-2.3-36.1-8.8-8-4.8-14.5-12.4-17.1-21.4-3.8-12.8-1-27.4 7.3-37.8 6.3-8 15.5-13.4 25.3-16.1 7.4-2.1 15.3-2.6 23-2.1 7.6 0.2 15.2 1.5 22.1 4.9 3.2 1.4 6 3.5 8.9 5.4 0-12.9-0.1-25.8 0-38.7zm-25 53.9c-5.3 0.9-10.4 4.2-12.7 9.3-2.6 5.9-2.7 12.9-0.2 18.9 2 4.8 6.8 7.8 11.8 8.6 6.3 1.1 13.1 0.6 18.8-2.4 11.5-6 11.9-25 1.1-31.8-5.6-3.4-12.5-3.6-18.8-2.6zm135.3-54c22.2 0.1 44.5 0 66.7 0 9.8 23.3 19.7 46.6 29.5 70 10.2-23.3 19.7-46.8 29.9-70 22.1 0.1 44.2 0 66.3 0 0.1 37.5 0 74.9 0.1 112.3q-24.8 0.1-49.6 0c0.2-17.8-0.5-35.8 1-53.6 0.7-6.3 2.2-12.4 2.2-18.7-10.1 24.2-20.5 48.2-30.6 72.3-12.8 0.1-25.6 0.1-38.4 0q-10.2-24-20.4-48.1c-3.5-8-6.6-16.2-10.4-24.1 0 3.1 0.8 6.1 1.1 9.2 3.2 20.9 2.1 42 2.3 63-16.5 0.1-33.1 0.1-49.6 0 0-37.4 0-74.9-0.1-112.3zm357.6 5.2c15.9 0 31.8 0 47.7 0 0.3 8.5 0.1 17 0.2 25.5 7.7 0 15.5 0 23.3 0-0.1 6.2 0 12.5 0 18.7-7.8 0-15.6 0-23.3 0 0 10.5-0.1 21 0 31.4-0.1 2.9 1.2 6 4.1 6.9 6 2.1 12.4 1.3 18.6 1.4 0.1 7.7-0.2 15.4 0.2 23.1-12.4 0.8-24.8 0.9-37.2 0.7-8.1-0.5-16.5-0.7-24-4.2-3.9-1.7-7-5-8.4-9.1-2.5-7.2-1.8-15-1.9-22.5q0-13.8 0-27.7c-5.8 0-11.6 0-17.4 0q0.1-9.3 0-18.7c6-0.1 12.1 0 18.1 0 0-8.5 0-17 0-25.5zm-672.7 29.5c16.4-6.2 34.1-7.2 51.4-5.7 15.6 1.6 31.6 6.1 43.6 16.6 9.6 8.1 15.3 20.6 14.9 33.3-31 0-61.9-0.1-92.8 0 0.2 4.3 2.5 8.2 6 10.6 6.9 5.1 15.9 6 24.2 4.9 4.6-0.9 9.2-2.9 12.2-6.7 15.5 0 30.9-0.1 46.4 0-3.9 9.5-12.9 15.7-22 19.5-14.9 5.9-31 7.5-46.9 7.5-14.9-0.1-30.1-2.3-43.7-8.5-9-4.2-17.3-10.7-21.6-19.8-4.9-10.4-3.9-23.4 2.7-32.9 6-9 15.6-15 25.6-18.8zm25.9 15.8c-4.9 1.8-8.7 6.4-8.8 11.7 14.8 0.2 29.5-0.1 44.2 0.2-0.3-6.3-6-10.4-11.4-12.4-7.7-2.9-16.4-2.4-24 0.5zm545.2-21.4c18.4-1.6 37.4-0.9 54.9 5.5 9.7 3.6 19.2 9.4 24.9 18.4 8.2 13 6.1 31.3-4.3 42.5-8.6 9.2-20.8 13.9-32.8 16.5-17.1 3.4-34.8 3.5-52 0.6-13.4-2.6-27.4-7.5-36.7-18-10-11-10.8-28.6-3.2-41.1 4.9-8.2 13-13.9 21.6-17.7 8.7-3.7 18.1-5.8 27.6-6.7zm11.5 21.4c-6.1 0.6-12 4.1-14.8 9.7-3.1 6.2-3 13.7-1 20.3 1.9 5.7 6.8 10.3 12.7 11.5 6.7 1.6 14.4 1.2 20.3-2.8 5.7-4 7.5-11.4 7.5-18 0.2-6.6-2.4-13.7-8-17.6-4.8-3.5-11.1-3.9-16.7-3.1zm287.4-21.5c18.2-1.5 36.9-0.7 54.2 5.5 9.3 3.5 18.3 8.8 24.1 17.1 9.4 13.1 7.4 32.8-3.8 44.3-9.4 9.8-22.8 14.5-35.9 16.9-17.1 2.7-34.7 2.6-51.6-0.8-12.7-2.9-25.8-8-34.3-18.3-9.3-11.1-9.8-28-2.5-40.2 4.9-8.2 13-13.9 21.6-17.6 8.9-3.9 18.6-5.9 28.2-6.9zm10.7 21.5c-6 0.7-11.9 4.2-14.6 9.8-3.2 6.6-2.9 14.6-0.4 21.4 2.3 6 8.1 10 14.4 10.8 7 1 15.2 0.1 20.3-5.3 4.4-4.6 5.5-11.3 5.2-17.5 0-6.8-3.5-13.7-9.4-17-4.7-2.7-10.3-2.9-15.5-2.2zm135.1-14.7c8.3-4.9 17.9-7.2 27.5-7.4 10.9-0.2 22.2 0.5 32.3 5 5.7 2.5 10.7 6.6 13.9 11.9 2.9 4.7 4 10.1 4.5 15.4v51.6q-24.3 0.1-48.6 0c0.1-14.4 0-28.8 0-43.3 0-4.4-1.2-9.4-5.1-12.1-4.6-3-10.4-3.2-15.7-2.8-4.5 0.4-9.5 1.7-12.2 5.6-3.4 4.6-2.8 10.6-2.8 16 0 12.2-0.1 24.4 0 36.7-16.2-0.1-32.5 0-48.7-0.1 0.1-27.2 0-54.4 0.1-81.6 14.7 0 29.5 0 44.3 0 0 4.2 0 8.4 0 12.7 3.3-2.8 6.7-5.5 10.5-7.6zm-1104.8-5.1c16.3 0 32.5-0.2 48.7 0.1-0.1 27.2 0 54.3 0 81.5-16.2 0.1-32.5 0-48.7 0 0.1-27.2 0.1-54.4 0-81.6zm845.6 0c16.2-0.1 32.4 0 48.6 0 0 27.2-0.1 54.4 0 81.6-16.2 0.1-32.4 0.1-48.7 0 0.1-27.2 0.1-54.4 0.1-81.6zm-1023 23.4c1-0.4 2.4-1.2 3 0.1 13.3 19.4 26.5 38.8 40 58.1-20.4 0.2-40.9 0-61.3 0.1-8-13.3-16-26.7-24.2-39.9 14.2-6.2 28.4-12.2 42.5-18.4z"/>
	</g>
</svg>