<svg version="1.2" xmlns="http://www.w3.org/2000/svg" viewBox="0 0 1558 1559" width="1558" height="1559">
	<title>Ameriprise_Financial_logo-svg</title>
	<style>
		.s0 { fill: #ffffff } 
	</style>
	<g id="layer1">
		<g id="g9081">
			<path id="path5014" fill-rule="evenodd" class="s0" d="m778.9 1558.1c-430.6 0-778.7-348.1-778.7-778.7 0-430.6 348.1-778.7 778.7-778.7 430.6 0 778.7 348.1 778.7 778.7 0 430.6-348.1 778.7-778.7 778.7zm333.2-641.3l333.4-138.2-333.3-138.1 137.8-332.9-334.5 138.5 1.7-0.9-138.3-332.8-138 332.8-333.1-137.6 138.3 332.9-333.5 138.1 333.5 138.2-138.3 332.9 333.1-137.7 138 333.4 138.3-333.4 332.8 137.7zm-216 144.8l-117.3-283-283.2-117.3 683.9-283.3z"/>
		</g>
	</g>
</svg>