<svg version="1.2" xmlns="http://www.w3.org/2000/svg" viewBox="0 0 1561 397" width="1561" height="397">
	<title>amv-black-on-white-01-1280x-q95-svg</title>
	<style>
		.s0 { fill: #ffffff } 
	</style>
	<g id="#060708ff">
		<path id="Layer" class="s0" d="m268.4 0.7c35.1 0 70.2-0.1 105.4 0 89.3 131.9 179 263.5 268.1 395.5-34.1 0.2-68.3 0-102.4 0.1-73-106.2-145.5-212.7-218.3-319-73.1 106.2-145.5 212.8-218.5 319-34.2 0-68.3 0.1-102.5 0 89.1-132.1 178.9-263.7 268.2-395.6zm162.1 0.1c35-0.2 70-0.2 105 0 89.2 131.9 178.8 263.6 268.2 395.5-34.2 0.1-68.5-0.1-102.7 0.1-90.2-131.9-180.5-263.7-270.5-395.6zm163-0.1c35 0 70-0.1 104.9 0.1 89.3 131.9 179.1 263.5 268.2 395.5-31.4 0.1-62.9-0.1-94.4 0.1-3.2-0.5-8 1.1-9.9-2.6-89.6-130.9-179.3-262-268.8-393.1zm161.9 0c35 0 70-0.1 104.9 0 89.3 132 179 263.6 268.2 395.6-34.3 0.1-68.5 0-102.8 0-90-131.9-180.4-263.6-270.3-395.6zm163.6 0c34.2 0 68.4-0.1 102.7 0q109.1 159.5 218.1 319c66.8-97.7 133.7-195.5 200.5-293.2 6.3-8.4 11.1-18 18.3-25.6 34-0.6 68.1 0 102.2-0.2-89.4 131.9-179 263.7-268.3 395.6-35.1 0.1-70.2 0-105.3 0-89.3-132-179.1-263.6-268.2-395.6z"/>
	</g>
</svg>