<svg version="1.2" xmlns="http://www.w3.org/2000/svg" viewBox="0 0 1588 1498" width="1588" height="1498">
	<title>amwell-logo_blue_2023_v02_rbg-svg</title>
	<style>
		.s0 { fill: #ffffff } 
	</style>
	<g id="Layer_1-2">
		<g id="Layer">
			<path id="Layer" class="s0" d="m1442.3 157.9c-81.6-86.6-190-141.3-305.2-154-122.2-13.5-243.4 19.7-342.9 93.7-76.9-57-166.8-90-261.1-95.7-144.2-8.9-285.2 47.9-386.9 155.9-131.1 139.2-178.2 341.9-122.9 529.2 6.9 23.4 22.5 42.7 43.9 54.3 21.4 11.6 46.1 14.2 69.4 7.3 23.4-6.9 42.7-22.5 54.3-43.8 11.7-21.4 14.3-46.1 7.4-69.5-37-125.3-6-260.3 80.8-352.5 64.5-68.5 153-104.5 243.1-99 77.3 4.7 150.5 39.4 206 97.9 17.2 18.1 41.3 28.4 66.1 28.4 24.9 0 49-10.3 66.1-28.4 68.4-71.8 162-107.1 256.8-96.6 73.2 8 139.7 41.8 192.4 97.7 127.6 135.6 128.1 356.5 1.2 492.7l-514.8 503.5-114.8-112.9c-35.9-35.2-93.7-34.8-129 1-35.3 35.8-34.8 93.6 1 128.9l178.6 175.7c17.2 16.9 40 26.2 64.1 26.2 24 0 46.6-9.2 63.7-25.9l580.3-567.7 2.4-2.5c193.2-205.1 193.2-538.9 0-744z"/>
			<path id="Layer" class="s0" d="m1047.8 544.2c0.2-26.7-9.9-52-28.6-71.1-18.7-19.1-43.7-29.7-70.4-30-26.8-0.1-52 9.9-71.1 28.6l-438 429-116.4-113.5c-39.5-38.5-103-37.7-141.5 1.9-38.6 39.4-37.7 102.9 1.8 141.5l186.5 181.7c18.8 18.2 43.6 28.3 69.8 28.3 26.2 0 51.3-10.1 70.1-28.5l507.8-497.5c19.1-18.7 29.8-43.7 30-70.4z"/>
		</g>
	</g>
</svg>