<svg version="1.2" xmlns="http://www.w3.org/2000/svg" viewBox="0 0 1561 1349" width="1561" height="1349">
	<title>AMYT-Corporate-Overview-Presentation-January-11-2eeee022-6-pdf-svg (1)-svg</title>
	<style>
		.s0 { fill: #ffffff } 
	</style>
	<g id="#23386fff">
		<path id="Layer" class="s0" d="m442.5 95.8c18.4-31.7 36.5-63.5 55.1-95.1c2.7 3 4.3 6.9 6.4 10.3c8.7 14.9 17.2 30 26 44.9c6.9 12.5 14.6 24.6 21.2 37.3c-9.3 13.5-19.7 26.2-29.4 39.3q-179.3 236.5-358.6 473c-15.1 20.1-30.6 39.8-45.3 60.2c29-35.1 57.6-70.7 86.5-105.9c119.6-146.7 239.1-293.4 358.7-440.1c0.7-0.7 1.4-1.4 2.2-2.1c4.8 6.8 8.2 14.4 12.7 21.4c4.3 8 9.3 15.7 13.5 23.8c1.1 1.4-0.2 2.9-1.1 4c-67.1 71.4-134.3 142.7-201.4 214.2c-4 4.3-8.3 8.3-12 12.9c-18 18.6-35.4 37.8-53.4 56.4c-5.6 6.8-12.2 12.6-18 19.3c-33.2 35.3-66.4 70.6-99.7 105.9c-3.4 4-7.4 7.4-10.7 11.5c-5.5 6.3-11.8 11.8-17.1 18.3c-11.3 11.7-22.4 23.7-33.6 35.5c-3.8 3.6-6.9 7.9-10.7 11.5c-3.3 3.5-6.9 6.8-9.8 10.7c6.6-5.2 12.1-11.6 18.1-17.4c22.8-22.4 45.4-45.1 68.1-67.5c5.1-5 9.9-10.3 15.3-15c8.7-8.7 17.2-17.7 26.3-26c8.9-9.1 17.9-18 27-26.9c7.9-7.8 15.6-15.8 23.7-23.4c12.5-13.1 26-25.4 38.6-38.5c12.1-11.5 23.6-23.6 35.7-35.2c12.1-12.4 24.6-24.4 36.8-36.7c3.1-3.5 6.9-6.2 9.9-9.7c7.5-7 14.3-14.7 21.9-21.5c23.8-23.8 47.7-47.4 71.5-71.2c6.8-6.1 12.9-13.1 19.6-19.4c20.8-20 40.9-40.6 61.5-60.8c2.5-2.3 4.4-5.5 7.7-6.7c6.7 11.5 13.3 23 19.9 34.5c2 3.1 3.9 6.2 5.3 9.6c-16.6 14.7-33.7 28.9-50.4 43.5c-153 131.5-306.1 263-459.1 394.5c2.7-1.7 5.3-3.6 7.7-5.7c171-136.6 341.7-273.4 512.6-410.1c0.9-1.1 2.5-0.6 2.9 0.7c7.5 13.9 15.9 27.2 23.3 41.1c-59.3 41.3-119 82.2-178.4 123.3c-96.9 66.8-193.7 133.7-290.6 200.5c-24.9 17.3-50.2 34.3-74.9 51.9c13.4-8.1 26.5-16.7 39.7-25.1c172.1-110 344.2-220 516.3-330c8.2 14.1 16.3 28.2 24.4 42.3c-15.9 9.2-32.4 17.6-48.4 26.5c-118.7 64.5-237.4 129-356 193.5c-6.1 3.5-12.4 6.5-18.4 10.1c-7.5 3.6-14.4 8.1-21.9 11.8c-38.1 20.8-76.2 41.4-114.4 62.1c-6.1 3.8-12.8 6.6-18.7 10.7c23.6-11.2 46.7-23.4 70.1-34.8c6.5-3.7 13.5-6.5 20.1-10.1c42.6-21 85-42.6 127.7-63.6c63.5-31.9 127.3-63.5 190.8-95.3c6.8-3.7 14.1-6.6 20.8-10.4c9.3-4.3 18.2-9.2 27.5-13.5c7.6-4.2 15.6-7.6 23.2-11.9c8.5-3.7 16.5-8.4 25-12.2c20.4-10.5 41.1-20.3 61.5-30.8c7.8-3.4 15.1-8 23-11.3c4.5 6.4 7.5 13.8 12 20.3c3.9 7.5 8.7 14.6 12.6 22.2c-3.4 2-7.2 2.9-10.7 4.6c-8 3.7-16.3 6.4-24.2 10.1c-5 2.3-10.2 4-15.2 6.2c-8.7 4-17.8 7-26.4 11.1c-11.6 4.4-22.9 9.5-34.4 14c-8.5 4-17.4 6.9-25.8 10.8c-6.8 2.8-13.6 5.2-20.2 8.4c-25.6 10.3-50.9 21.2-76.6 31.4c-8.5 4.1-17.6 7-26.2 11c-32.5 13.3-64.9 26.9-97.5 40.2c-7.4 3.4-15.3 6-22.7 9.5c-26.1 10.5-51.9 21.5-78 32c-8.2 3.8-16.7 6.8-24.9 10.6c-11.8 4.4-23.2 9.7-35 14.2c-8.3 3.9-17.2 6.8-25.6 10.7c-5.1 2.3-10.4 4.1-15.6 6.4c-8 3.8-16.5 6.4-24.4 10.2c-9.2 3.7-18.5 7.2-27.4 11.5c3.7-0.9 7.3-2.2 10.9-3.6c8.7-3.6 17.7-6.2 26.3-9.9c28.4-10.3 56.7-21.3 85.1-31.5c9.3-4 19.1-6.8 28.4-10.8c20.7-7.5 41.3-15.5 62-22.9c6.7-2.9 13.7-5.2 20.6-7.7c7.9-3.3 16-5.9 24-9c7.8-3.3 16-5.7 23.9-8.9c8.4-3.5 17.2-6.1 25.7-9.7c36.4-13.4 72.7-27.1 109.2-40.6c8.9-3.7 18.3-6.4 27.2-10.2c13-4.5 25.7-9.8 38.6-14.3c7.8-3.4 16-5.9 24-8.9c7.4-3.2 15.1-5.5 22.6-8.5c8.1-3.4 16.6-5.8 24.7-9.3c7.6-3 15.5-5.4 23-8.6c8.1-3.2 16.4-5.7 24.5-9c6.4-2.6 13-4.6 19.4-7.3c1-0.4 2.1-0.7 3.3-0.9c6.7 12.5 14.2 24.5 21 36.9c1.3 2.4 3.4 4.5 3.7 7.3c-21.1 6-42.1 12.3-63.1 18.6c-7.4 2-14.8 4-22.1 6.5c-16.8 4.5-33.3 10-50.1 14.5c-10.9 3.8-22.3 6.3-33.3 10c-8.1 2.5-16.4 4.5-24.5 7c-11 3.7-22.4 6.3-33.5 10c-9.4 2.9-19.1 5.2-28.5 8.4c-9.8 3-19.8 5.5-29.6 8.7c-10.1 3-20.3 5.6-30.2 8.9c-15.3 4.1-30.2 9.1-45.5 13.2c-4 0.9-7.7 2.7-11.8 3.6c-16.1 4.4-32.1 9.6-48.3 14c-11.4 3.9-23.2 6.6-34.7 10.4c-9.7 2.9-19.6 5.3-29.2 8.6c-17 4.6-33.9 10.1-50.9 14.8c-9.5 3.2-19.3 5.5-28.9 8.5c-9.3 3.2-18.8 5.4-28.2 8.2c-10 3.4-20.3 5.9-30.4 8.9c-8.7 3-17.5 5.2-26.2 8c17.1-3.2 33.7-8.5 50.7-12.4c9.4-2.1 18.6-5.2 28-7.3c12-2.6 23.8-6.4 35.7-9.1c9-2 17.8-5 26.8-6.9c16.4-3.9 32.6-8.6 49.1-12.3c9.7-2.9 19.5-5.2 29.3-7.6c12.2-3.3 24.4-6.4 36.7-9.4c10.3-3.1 20.8-5.3 31.1-8c12.2-3.4 24.5-6.3 36.8-9.4c11.8-3.6 23.9-5.8 35.8-9.3c11.9-3.2 24-5.8 35.8-9.3c19.5-4.5 38.7-10.1 58.2-14.6c10.2-3.1 20.6-5.3 31-8c12-3.5 24.2-6.1 36.3-9.3c8-2.5 16.1-4 24.1-6.2c8.1-1.9 16-4.4 24-6.2c11.5-2.7 22.7-6 34.1-8.7c13.9-3.2 27.5-7.4 41.3-10.5c5.9-1.1 11.4-3.7 17.3-4.3c1.8 2.7 3.6 5.5 5.1 8.3c7 12.8 14.9 25.1 21.6 38c-11.4 2.7-23.1 3.8-34.5 6.6c-11.5 1.8-22.8 4.2-34.3 5.9c-10.4 2.2-20.8 4-31.2 5.9c-13.1 2-26 4.8-39 7.1c-24.3 4-48.3 9.1-72.5 12.9c-8.8 2.4-17.9 3.2-26.8 5.2c-18.1 2.8-36 6.7-54 9.7c-12.4 2-24.6 4.7-37 6.7c-12.7 2-25.4 4.8-38.1 7.1c-9.9 1.4-19.6 3.6-29.5 5c-11.5 2.7-23.2 4.3-34.8 6.5c-10.2 1.5-20.3 3.9-30.6 5.6c-9.6 1.9-19.4 3.3-29 5.2c-14.7 3.1-29.5 5.2-44.2 8c-18.4 4-37.1 6.2-55.5 10.3c-20.8 3.5-41.6 7.5-62.3 11.3c-7.7 1.4-15.5 2.2-23.1 4.2c-3.2 0.9-6.7 0.9-10 1.8c5.8 0.2 11.6-1.1 17.3-1.8c9.5-1.9 19.1-2.7 28.6-4.2c9.5-1.6 19.1-2.4 28.6-4.3c17.6-2.5 35.2-5 52.8-7.4c21.6-3.9 43.5-6 65.1-9.8q23.3-3.3 46.5-6.6c23.6-4 47.4-6.4 70.9-10.5c10.2-1.3 20.4-3 30.7-4.3c16.7-2.2 33.3-5.2 50-7.4c19.9-2.4 39.5-6.1 59.4-8.5c6.4-0.8 12.8-2.1 19.3-2.7c22.7-4.1 45.7-6.3 68.4-10.3c11.1-1.5 22.2-3.1 33.4-4.7c16.1-2 32.2-5 48.4-7.1c20.9-2.7 41.7-6.5 62.7-9c6-0.7 11.9-2.2 18-2.5c5.1 6.8 8.4 14.7 13 21.8c13.4 23.3 26.9 46.5 40.3 69.9c2.7 4.7 5.9 9.3 7.7 14.6c-96.7 0.2-193.3 0-289.9 0.1c-166.9 0-333.7-0.1-500.5 0c3-6.6 7.2-12.4 10.6-18.8q164.8-285.4 329.6-570.9z" />
		<path id="Layer" fill-rule="evenodd" class="s0" d="m102 769.9c1.7-6.5 3.4-13 5.2-19.5c34.9-0.1 69.8 0 104.7 0c3.1-0.6 3.3 3.1 3.8 5.1c3.2 10.4 5.8 20.8 8.5 31.3c3.4 10.9 6 22.1 9 33.2c3.8 11.9 6.2 24.1 10 36c4.6 18.4 10.1 36.4 14.7 54.8c3.7 12 6.3 24.2 10 36.2c2.5 9.1 4.7 18.4 7.3 27.5c2.9 9.1 4.9 18.5 7.5 27.7c3.3 10.5 5.8 21.2 8.6 31.9c3.5 10.7 5.8 21.7 8.9 32.5c1.6 5.1 2.9 10.2 4.3 15.3c3.1 12.6 7 24.8 10 37.4c1.4 6.4 4.1 12.4 5.1 18.9c-26.1 0.2-52.3 0-78.5 0.1c-2.5 0-5 0-7.4-0.5c-4.7-21.2-10.7-42.1-15.5-63.3c-2.2-7.2-3.8-14.6-5.7-21.8c-36.6-0.3-73.3-0.1-109.9-0.2c-2.7 6.6-3.7 13.6-5.7 20.3c-2.8 12.6-6.6 24.9-9.5 37.4c-2.1 9.2-4.9 18.3-7.2 27.6c-2.7 0.6-5.6 0.5-8.4 0.5c-23.9-0.1-47.7 0-71.6-0.1c4.3-19.1 10.5-37.8 15.2-56.8c3.7-11 6.1-22.4 9.4-33.6c2.9-9 4.9-18.3 7.6-27.4c3.2-10.1 5.6-20.4 8.4-30.6c3.4-10.1 5.7-20.6 8.6-30.9c3.1-9.5 5.3-19.2 8-28.8c3.5-10.7 5.9-21.8 9-32.5c3-9.6 5.3-19.3 8-29c3.8-11.6 6.1-23.5 10-35.1q3.2-12.1 6.4-24.2c4.3-13 6.9-26.4 11.2-39.4zm52.4 59.7c-3.5 16.3-7.4 32.4-10.7 48.8c-3.2 13.1-5.9 26.3-8.7 39.5c-2.2 8.8-4.1 17.8-6 26.7c-2.2 11.1-5.2 22-7.4 33.1c-0.9 4.8-2.4 9.6-2.7 14.6q38 0 76-0.1c-1-8.6-4.1-16.8-5.6-25.4c-2-7.8-3.4-15.9-5.6-23.6c-2.8-11.2-5.1-22.4-7.7-33.6c-3.6-13.3-6-26.8-9.6-40.1c-3.4-14.7-6.5-29.5-10.5-44.1c-0.6 1.3-1.2 2.7-1.5 4.2zm180.3-79.2c43.4-0.1 86.7 0.1 130.1-0.1c3.2 10.4 5.2 21.2 7.7 31.8c2.4 11.5 5.5 22.8 7.9 34.3c2.8 13.4 6.5 26.6 9.2 40.1c1.6 7.9 3.8 15.7 5.6 23.6c3.6 18.2 8.5 36.2 12.3 54.4c3.2 13.2 6.3 26.4 9 39.7c3.6 12.8 6 26 9 39c0.3 0.1 1 0.4 1.3 0.5c2.3-8.9 4.3-17.9 6.4-26.9c3.6-12.2 5.9-24.8 9.1-37.1c1.6-6.1 3.2-12.2 4.5-18.3c3.4-14.1 7.1-28.2 10.4-42.3c1.3-6.6 3.5-12.9 4.8-19.4c2.3-8.9 3.9-18 6.6-26.8c2.7-10.4 4.8-21 7.5-31.4c3.2-11.2 5.3-22.6 8.3-33.8c2.6-9 4.2-18.3 6.7-27.3c31.7 0.2 63.3 0.1 95 0.1c10.1 0.2 20.2-0.4 30.3 0.3c0.6 5.2 0.3 10.6 0.3 15.9q0 170.6 0 341.2c-0.2 9.8 0.4 19.6-0.2 29.5c-3.1 0.1-6.1 0.3-9.1 0.3c-23-0.3-45.9 0.1-68.8-0.3c-0.2-99.2-0.1-198.4-0.1-297.7c-0.3 0.1-0.9 0.2-1.3 0.3c-1.3 8-4.2 15.7-5.7 23.7c-5.4 21.9-11 43.8-16.5 65.7c-2 7.5-3.3 15.1-5.5 22.5c-2.7 10.1-4.9 20.3-7.5 30.5c-3.1 10.4-5.2 21-8 31.5c-2.8 9.6-4.8 19.4-7.2 29c-7.1 27.7-13.7 55.6-21 83.4c-1 3.9-1.6 8-3.1 11.8c-23.8 0.4-47.7 0-71.6 0.2c-1.9-0.1-4 0.3-5.7-0.7c-2.2-5.1-2.6-10.8-4.1-16.1c-2-7.4-3.1-15.1-5.3-22.5c-3-11.6-5.3-23.5-8.3-35.2c-2.8-10.3-4.8-20.9-7.4-31.3c-2.7-9.7-4.6-19.5-7-29.2c-1.3-7-3.7-13.7-4.9-20.7c-2.3-9.2-4-18.6-6.6-27.7c-2.8-11.4-5-22.9-8.1-34.2c-2.7-10.7-4.8-21.5-7.6-32.1c-3.2-12.1-5.4-24.3-8.6-36.4c-1.4-4.3-1.7-8.9-3.6-13.1c-0.5 25.5-0.1 51-0.2 76.5c-0.1 74.2 0.1 148.4-0.2 222.6c-26.2 0.1-52.5 0.1-78.7 0.1c-0.2-129.3-0.1-258.6-0.1-387.9zm426.7 0.3c6.2-0.5 12.4-0.2 18.7-0.2c43.4 0 86.8 0 130.3 0c11 0.2 22 2 32.7 4.8c17.4 5 32.5 16.9 42.3 32c3.8 5.7 6.3 12.1 8.9 18.4c3.4 9.4 4.9 19.3 5.9 29.2c2 19.5 0.8 39.6-5.1 58.3c-3.1 8.1-6.4 16.1-11.3 23.2c-11.2 16.9-30.8 26.6-50.5 29.8c-1.4 0.3-3.6 0.2-3.3 2.2c10.2 1.6 20.7 2.5 30.2 6.7c5.6 2.8 11.4 5.6 16 9.8c8.1 7 14.2 16 18.4 25.8c3 8.3 4.3 17.1 4.7 25.9c0 12.4 0 24.8 0.4 37.2c0.9 7.1 0.2 14.2 0.7 21.3c0.9 9.2 0.7 18.4 2.2 27.6c1.2 11.9 2.2 24 5.7 35.5c-24.9 0.2-49.9 0-74.9 0.1c-1.6-0.1-3.3 0.2-4.7-0.8c-3.1-5.2-4.3-11.1-5.8-16.9c-3.2-12.9-2.1-26.2-2.3-39.3c-0.2-20.2 0.4-40.5-1-60.7c-2-9.5-4.3-19.6-11.1-26.9c-4.3-5.2-10.1-8.9-16.3-11.3c-9-4-19.1-4.6-28.8-4.4c-7.2 0-14.5-0.1-21.7 0c-0.1 53.3 0 106.6 0 159.8c-7.8 1-15.7 0.2-23.5 0.5c-19.1 0-38.1-0.2-57.1 0.1c0.2-27 0-54 0-81q0-140 0-280.1c0.2-8.8-0.3-17.7 0.3-26.6zm80.5 59.6c-0.6 11.5-0.1 22.9-0.2 34.4c0 24.4-0.1 48.8 0 73.2c11.4 0.2 22.7 0 34.1 0.1c7.6 0 15.8-1.1 22-6c6.6-4.2 11.2-10.7 14.6-17.5c3.8-8.7 5.6-18.2 5.7-27.7c0.2-10.9 0.5-22.2-3.3-32.7c-4.3-13.9-18.5-23.2-32.8-23.7c-13.3-0.1-26.7 0.1-40.1-0.1zm169.8-59.8c29.5-0.2 59-0.1 88.5-0.1c4.1 9.3 6.7 19.2 10.4 28.6c3.5 8.6 5.8 17.6 9.3 26.2q13.7 39 27.6 77.9c3.4 10 7 20.1 10.8 30c3.7-8.3 6.6-17 9.8-25.5c3.4-7.9 5.9-16.2 9.2-24.2c3.5-8.3 5.9-16.9 9.5-25c10.1-27.4 20.7-54.5 30.7-81.9c1-2.3 1.3-6.6 4.8-6.1c112.7 0 225.4-0.1 338.1 0c-0.1 21.6 0.3 43.1-0.2 64.7c-29.7 0-59.5-0.2-89.3 0.1c-0.1 96.7 0 193.4 0 290.1c-0.2 10.8 0.3 21.7-0.3 32.6c-5 0.7-10.1 0.2-15.1 0.4c-22-0.2-44.1 0.2-66.1-0.2c-0.1-106.7 0-213.4-0.1-320c0.2-1.3-0.4-3.3-2-3c-23-0.1-46.1 0-69.2 0c-6.3-0.2-12.7 0.3-19.1-0.3c0.1-18 0.3-36-0.1-53.9c-4.7 8.9-8 18.4-12.1 27.6c-3.6 7.3-6.1 15-9.7 22.3c-10.4 25-21.4 49.7-31.8 74.7c-3.8 7.8-6.6 16.1-10.5 24c-7.4 17.7-15 35.2-22.5 52.9c-4.1 8.6-7.1 17.5-11.2 26.1c-2.2 5.5-5.1 10.8-6.5 16.6c-0.1 44.2-0.1 88.5-0.1 132.7c-4 0.7-8 0.4-12 0.5c-21.6 0-43.2-0.1-64.7 0c-1.4-0.1-3 0.2-4.2-0.5c-0.8-1.2-0.4-2.8-0.5-4.2c0-42.2-0.1-84.5 0-126.8c0.1-2.1-0.4-4.3-1.3-6.2c-4-8.6-6.8-17.7-10.8-26.4c-3.9-10.5-8.5-20.8-12.4-31.3c-7.4-17.8-14.2-35.7-21.5-53.5c-6.9-17.9-14.5-35.6-21.3-53.5c-3.2-6.9-5.8-14.1-8.5-21.2c-7.1-16.9-13.5-34-20.6-50.9c-1.7-4.5-3.5-8.8-5-13.3z" />
	</g>
	<g id="#7f8386ff">
		<path id="Layer" fill-rule="evenodd" class="s0" d="m591.1 750.4c42.2-0.2 84.3 0 126.4-0.1c0.3 94.7 0.1 189.4 0.1 284.1c-0.1 34.6 0.3 69.3-0.1 103.9c-26.4 0.2-52.8-0.1-79.2 0.2c0.1-0.3 0.2-0.8 0.3-1.1c22.9 0.4 45.8 0 68.8 0.3c3 0 6-0.2 9.1-0.3c0.6-9.9 0-19.7 0.2-29.5q0-170.6 0-341.2c0-5.3 0.3-10.7-0.3-15.9c-10.1-0.7-20.2-0.1-30.3-0.3c-31.7 0-63.3 0.1-95-0.1zm169.1 0c50.7-0.1 101.3 0 151.9-0.1c6.5-0.4 13 0.6 19.5 1.5c3.9 0.7 8 1.5 11.5 3.5c-10.7-2.8-21.7-4.6-32.7-4.8c-43.5 0-86.9 0-130.3 0c-6.3 0-12.5-0.3-18.7 0.2c-0.6 8.9-0.1 17.8-0.3 26.6q0 140.1 0 280.1c0 27 0.2 54 0 81c-0.5-1-1-1.9-0.9-3c0.1-128.3-0.1-256.7 0-385zm-577.1 473c12-1.1 24.6-1.2 36.1 3.1c8.9 2.6 16.6 9.4 20.1 18c2.7 6.1 2.7 12.9 2.4 19.4c-0.4 8.8-4 17.7-10.7 23.6c-8.5 8.1-20.6 11.1-32 11.7c-5.7 1-11.3-0.5-17-0.4c-1 10.5-0.2 21-0.5 31.6c-0.3 5.8 0.8 11.7 0 17.5c-5.3 0.6-10.8 0.7-16.2-0.1c0-39.8 0.1-79.6 0-119.4c0.1-1.2-0.2-3.1 1.5-3.2c5.3-1.5 10.8-1.5 16.3-1.8zm-1.1 13.9c-1 10-0.2 20.1-0.5 30.2c0.3 6-0.6 12.1 0.7 18c2.2 0.4 4.4 1 6.6 1c6.3 0.1 12.9 0.5 19-1.7c4.6-1.8 9.3-4.1 12.6-7.9c5.9-7.4 7-18.1 3.6-26.9c-2.9-7.8-11.1-12.1-18.9-13.4c-7.7-1.1-15.6-1.2-23.1 0.7zm645.7-11.7c5.2-1.5 10.7-2 16.1-2.2c10.7-0.9 21.5-1 32 0.9c6.8 1.8 13.8 4.1 19 9.1c5.9 6.2 9.8 14.7 9.2 23.4c0.6 9.8-4.3 19.3-11.8 25.4c-3.1 3-7.3 4.5-11.2 6.4c4.3 2.5 8.6 5.1 11.3 9.3c5.7 7.7 6.6 17.4 9 26.3c2.2 8 3.9 16.1 7 23.8c-5.7 0.4-11.4 0.7-17-0.3c-3-7-4.2-14.5-6.4-21.7c-2.2-8.1-2.6-17.3-8.3-23.9c-3.5-4.6-9.3-7.1-15-7c-5.8-0.1-11.6-0.2-17.4 0.1c-0.2 17.4-0.1 34.9-0.1 52.4c-5.5 1-11.1 1-16.6 0.2q0-38 0-75.9c0.1-15.4-0.3-30.9 0.2-46.3zm15.9 11.5c-0.4 14.9-0.2 29.9-0.1 44.8c6.9 0.2 13.8 0.3 20.7 0c6.9-1 14.4-3.2 18.7-9.2c6.8-8.2 6.8-21.6-0.7-29.3c-5.4-6-13.8-7.7-21.5-7.7c-5.7 0.2-11.6-0.4-17.1 1.4zm-469.7-13.3c5.3-0.2 10.6-0.4 15.8 0.1c0.2 11.9 0 23.7 0.1 35.6c0.1 5.3-0.4 10.7 0.4 16c9.7 0.8 19.4 0.1 29.1 0.4c10.1-0.2 20.2 0.2 30.3-0.2c0.4-17.2 0-34.5 0.2-51.8c5.4-0.4 10.9-0.5 16.4 0.1c0.9 9.2 0.1 18.4 0.3 27.5q0 41.7 0 83.3c0 4.4 0.3 8.7-0.3 13.1c-5.5 0.7-11 0.6-16.4-0.1c-0.2-19.2 0.1-38.4-0.2-57.7c-13-0.3-26.1 0-39.2-0.1c-6.8 0.1-13.6-0.3-20.4 0.2c-0.6 19.2 0 38.5-0.3 57.7c-5.2 0.6-10.5 0.6-15.7 0.1c-0.5-22.1-0.1-44.2-0.2-66.4c0.1-19.2-0.1-38.5 0.1-57.8zm263.7 0.3c6-1 12.3-0.2 18.4-0.4c4.2 8.4 6.3 17.5 9.5 26.2c6.2 17.6 12 35.3 18 52.9c3.7 9.5 6.3 19.3 10 28.8c1.7 5.4 4 10.7 5 16.3c-5.5 0.6-11.2 0.6-16.7 0c-3.6-9.5-6.8-19.1-10-28.7c-1.2-3.4-2.1-6.8-4-9.8c-14.4 0-28.7-0.1-43.1 0.1c-2.6 6-4 12.5-6.4 18.7c-2.3 6.4-4.2 13-6.3 19.5c-5.6 1.1-11.4 0.8-17 0.1q3.7-11.8 8-23.4c8.5-26 17.6-51.9 26.5-77.8c2.5-7.6 4.4-15.4 8.1-22.5zm7.6 18c-1.6 7.6-4.2 15-6.4 22.4c-3.2 10.6-8 20.9-10.3 31.8c12.1 0.1 24.1 0.1 36.2 0c-2-8.5-5.6-16.4-8.2-24.7c-3.5-10.8-7.4-21.4-9.8-32.5c-0.8 0.8-1.2 1.9-1.5 3zm396.9-18c6.8-0.9 13.8-0.4 20.7-0.3c2.5 5.8 3.9 12 6.3 17.9c2.8 6.6 4.6 13.5 7.1 20.2c4 9.7 6.8 19.9 10.4 29.7c3.9 11 6.4 22.5 10.2 33.5c5-16.9 10-33.7 16.4-50.1c5.3-14.2 10.5-28.5 15.8-42.7c1-3 2-6 3.7-8.6c6.3-0.1 12.6 0 19-0.1c1.4 2.3 1.3 5.1 1.6 7.7c1.1 22.9 2.9 45.9 4.1 68.8c1 15.9 2.3 31.8 2.7 47.8c-5.3 0.6-10.7 0.8-16-0.3c-0.1-5.6 0-11.2-0.7-16.8c-0.8-15.7-1.8-31.4-2.4-47.1c-0.8-6.6-0.5-13.2-0.9-19.8c-0.7-7.7-0.3-15.5-0.7-23.2c-4.1 11.1-7.2 22.6-11.1 33.7c-2.9 7.6-5.4 15.4-8.3 23c-3.5 8.6-6.1 17.6-9.7 26.3c-3.1 7.7-5.1 15.8-8.7 23.3c-4 0.6-8 0.6-12 0.2c-4.3-10.4-7.4-21.1-11-31.7c-3.4-8.5-5.8-17.4-8.8-26.1c-3.7-9.5-6.4-19.4-9.5-29.1c-1.9-5.7-2.6-11.9-5.4-17.3c-0.5 4.8-0.4 9.8-0.5 14.7c0.1 6.8-1.1 13.6-0.9 20.4c-1.7 23.3-2.8 46.5-4.5 69.7c-5.1 0.8-10.2 0.7-15.2 0.2c-0.2-11.8 1.7-23.5 2.4-35.2c0.9-10.1 1.1-20.2 2.1-30.3c0.4-11.2 1.9-22.4 2.1-33.6c0.6-8.3 1-16.6 1.7-24.8zm283.1 2.6c0.5-1.2 0.9-3.2 2.7-3c5.9-0.1 11.8-0.2 17.7 0.1c2.4 5.6 3.8 11.5 6 17.2c3.2 8.2 5.5 16.7 8.6 25c3.5 9.3 6.1 18.8 9.5 28.1c3.2 7.9 5.2 16.3 8.3 24.2c3 7.5 4.8 15.5 7.9 23q1.3 3.2 2.2 6.5c-5.7 0.7-11.6 0.9-17.3 0c-3.5-8.2-5.6-16.9-8.6-25.3c-1.8-4.5-3-9.1-4.9-13.5c-14.4-0.3-28.7-0.1-43.1-0.1c-5.5 12.6-8.2 26.2-13.3 38.9c-5.5 0.9-11.1 0.7-16.6 0.1c5.3-17.3 11.6-34.2 17.1-51.4c3.8-10.2 6.9-20.6 10.7-30.9c2.6-7.4 4.6-15 7.5-22.3c2.2-5.4 3.5-11.2 5.6-16.6zm9.6 12.7c-2.5 14.2-8.1 27.6-12.3 41.4c-1.5 5.3-4 10.1-5.1 15.5c12.3 0.1 24.6 0.1 36.9 0c-6.5-18.8-13.9-37.3-18.2-56.7c-0.3 0-1-0.1-1.3-0.2z" />
	</g>
</svg>