<svg version="1.2" xmlns="http://www.w3.org/2000/svg" viewBox="0 0 1591 1378" width="1591" height="1378">
	<title>AMYT-Corporate-Overview-Presentation-January-11-2eeee022-6-pdf-svg (1)-svg</title>
	<style>
		.s0 { fill: #ffffff } 
	</style>
	<g id="#23386fff">
		<path id="Layer" class="s0" d="m685 191.8c36.9-63.8 73.4-127.8 110.7-191.4c5.5 6.1 8.6 13.8 12.9 20.6c17.4 30.2 34.7 60.4 52.2 90.4c14 25.2 29.5 49.5 42.6 75.1c-18.6 27.1-39.5 52.7-59.1 79.1q-360.6 475.7-721.2 951.4c-30.3 40.4-61.5 80.2-91.2 121.1c58.5-70.6 116-142.1 174.1-213c240.5-295.1 480.9-590.2 721.4-885.2c1.4-1.6 2.9-2.9 4.5-4.2c9.6 13.6 16.5 28.9 25.5 42.9c8.8 16.1 18.7 31.6 27.2 47.8c2.2 2.9-0.4 5.8-2.2 8.1c-135 143.6-270.2 287.1-405.2 430.9c-7.9 8.7-16.6 16.7-24.1 25.9c-36.2 37.4-71.3 76-107.4 113.6c-11.3 13.6-24.6 25.4-36.2 38.7c-66.9 71-133.6 142.2-200.4 213.1c-6.9 8.1-15 14.9-21.7 23.1c-11 12.7-23.7 23.8-34.4 36.8c-22.7 23.6-44.9 47.8-67.5 71.5c-7.7 7.2-13.9 15.8-21.5 23.1c-6.7 7.1-13.9 13.7-19.7 21.5c13.3-10.4 24.3-23.3 36.4-35c45.9-45.1 91.2-90.7 137-135.8c10.2-10.1 19.9-20.6 30.6-30.1c17.5-17.6 34.6-35.6 52.9-52.3c17.9-18.3 36.2-36.3 54.4-54.2c15.9-15.7 31.4-31.8 47.6-47.1c25.3-26.4 52.4-50.9 77.6-77.4c24.5-23 47.7-47.5 71.9-70.8c24.4-24.9 49.6-49 74-73.9c6.2-6.9 13.9-12.3 20-19.4c15-14.1 28.6-29.6 44.1-43.3c47.7-47.9 95.9-95.4 143.6-143.3c13.9-12.3 26.1-26.3 39.6-38.9c41.7-40.3 82.3-81.7 123.6-122.4c5.1-4.6 9-11 15.6-13.3c13.4 23.1 26.7 46.2 40 69.3c3.9 6.2 7.8 12.5 10.6 19.3c-33.5 29.5-67.7 58.2-101.4 87.5c-307.8 264.6-615.6 529-923.3 793.6c5.4-3.4 10.5-7.3 15.5-11.4c343.8-274.9 687.2-550 1030.9-825c1.8-2.2 5-1.2 5.8 1.4c15.1 27.8 32.1 54.7 47 82.7c-119.3 83.1-239.4 165.2-358.9 248c-194.9 134.3-389.7 268.9-584.6 403.3c-50.1 34.9-100.8 69-150.5 104.3c27-16.1 53.3-33.4 79.8-50.4c346.2-221.2 692.3-442.6 1038.5-663.9c16.4 28.4 32.8 56.7 49 85.2c-32 18.5-65 35.3-97.4 53.4c-238.7 129.6-477.3 259.5-716 389.2c-12.2 7-24.9 12.9-36.9 20.2c-15.1 7.2-29.1 16.3-44.1 23.7c-76.6 41.8-153.3 83.4-230 125.1c-12.4 7.5-25.8 13.1-37.7 21.4c47.4-22.5 93.8-47 141-69.9c13.1-7.5 27.2-13.1 40.4-20.3c85.8-42.3 171-85.7 256.8-127.9c127.8-64.2 256-127.8 383.9-191.9c13.7-7.4 28.2-13.2 41.8-20.8c18.7-8.7 36.6-18.6 55.3-27.2c15.3-8.5 31.4-15.4 46.7-23.8c17.1-7.6 33.2-17.1 50.3-24.8c41-20.9 82.6-40.8 123.6-61.8c15.7-7 30.3-16.1 46.2-22.7c9.2 12.9 15.3 27.6 24.2 40.7c7.8 15.2 17.5 29.4 25.3 44.7c-6.7 4.1-14.4 5.9-21.5 9.3c-16 7.4-32.7 12.9-48.7 20.4c-10 4.5-20.5 8-30.5 12.4c-17.4 8.1-35.7 14-53 22.2c-23.4 9-46.1 19.2-69.4 28.3c-17 8-34.9 13.7-51.8 21.8c-13.6 5.5-27.4 10.4-40.6 16.7c-51.5 20.7-102.5 42.6-154 63.3c-17.2 8.1-35.5 14-52.8 22.1c-65.4 26.7-130.6 54-196 80.8c-15.1 6.9-30.8 12-45.8 19.1c-52.4 21.2-104.3 43.4-156.8 64.5c-16.5 7.5-33.6 13.5-50.1 21.2c-23.7 8.9-46.7 19.6-70.4 28.5c-16.8 8-34.6 13.8-51.4 21.6c-10.4 4.7-21.1 8.2-31.4 12.9c-16.1 7.6-33.2 12.8-49.2 20.5c-18.4 7.6-37.1 14.5-55 23.2c7.4-1.8 14.7-4.4 21.8-7.3c17.5-7.2 35.7-12.4 53-19.9c57.2-20.8 113.9-42.8 171.1-63.4c18.8-8.1 38.4-13.7 57.2-21.7c41.6-15.1 82.9-31.1 124.7-46.1c13.5-5.9 27.6-10.4 41.4-15.5c15.8-6.6 32.1-11.9 48.1-18c15.8-6.7 32.3-11.6 48.2-18c16.9-7.1 34.7-12.2 51.6-19.4c73.3-27.1 146.4-54.6 219.7-81.7c18-7.5 36.8-13 54.7-20.6c26.1-9.1 51.7-19.6 77.8-28.6c15.7-6.9 32.1-11.9 48.1-18c14.9-6.4 30.4-11.2 45.6-17c16.2-6.9 33.3-11.9 49.5-18.8c15.4-6 31.2-10.9 46.4-17.2c16.2-6.5 33-11.5 49.2-18.3c12.9-5.2 26.2-9.2 39-14.6c2.1-0.9 4.4-1.5 6.7-1.9c13.4 25.1 28.6 49.3 42.3 74.3c2.6 4.8 6.7 9.1 7.4 14.7c-42.4 12.1-84.7 24.8-127 37.4c-14.8 4-29.7 8.1-44.3 13.1c-33.8 9-67 20.1-100.8 29.1c-22 7.6-44.9 12.7-67 20.1c-16.3 5.1-33 9.2-49.3 14.2c-22.2 7.5-45.1 12.6-67.3 20.1c-19 5.9-38.5 10.3-57.3 16.9c-19.9 6-40 11-59.7 17.4c-20.3 6.1-40.7 11.2-60.7 17.9c-30.7 8.3-60.8 18.3-91.5 26.6c-8 1.8-15.6 5.4-23.6 7.3c-32.6 8.8-64.7 19.3-97.2 28.2c-23.1 7.7-46.8 13.1-69.9 20.9c-19.5 5.9-39.4 10.6-58.7 17.3c-34.3 9.3-68.1 20.2-102.4 29.7c-19.2 6.4-38.8 11.1-58.1 17.1c-18.7 6.4-37.9 10.9-56.7 16.6c-20.1 6.8-40.8 11.8-61.2 17.9c-17.4 5.9-35.3 10.5-52.8 16.1c34.5-6.4 67.9-17.2 102-25.1c19-4.1 37.5-10.4 56.4-14.5c24.2-5.4 47.8-12.9 71.9-18.4c18.1-4.1 35.7-10 53.9-13.8c33-8 65.6-17.4 98.6-24.9c19.5-5.8 39.3-10.4 59-15.3c24.5-6.6 49.2-12.9 73.9-18.9c20.6-6.2 41.7-10.6 62.6-16c24.4-6.9 49.2-12.7 73.8-18.9c23.8-7.2 48.3-11.8 72.1-18.9c24-6.3 48.3-11.5 72.1-18.6c39.2-8.9 77.8-20.2 116.9-29.3c20.5-6.3 41.6-10.7 62.3-16c24.2-7.2 48.9-12.4 73.2-18.8c15.9-5 32.4-8.1 48.4-12.5c16.3-3.8 32.1-8.8 48.4-12.5c22.9-5.4 45.6-12.1 68.5-17.6c27.9-6.3 55.2-14.8 83.1-21c11.8-2.3 22.9-7.4 34.8-8.6c3.6 5.5 7.1 10.9 10.2 16.7c14.1 25.7 30 50.4 43.4 76.4c-22.9 5.4-46.5 7.6-69.4 13.3c-23 3.7-45.9 8.3-68.9 11.8c-20.9 4.5-41.9 8.1-62.8 11.8c-26.3 4.1-52.3 9.8-78.5 14.4c-48.7 8-97 18.4-145.8 26c-17.7 4.7-36 6.4-53.9 10.3c-36.4 5.7-72.3 13.6-108.6 19.5c-24.9 4.1-49.5 9.6-74.4 13.7c-25.6 4-51 9.5-76.5 14.1c-20 3-39.6 7.2-59.6 10.2c-23 5.4-46.5 8.5-69.8 12.9c-20.6 3.2-41 8-61.6 11.4c-19.4 3.8-39 6.6-58.4 10.4c-29.5 6.3-59.3 10.5-88.9 16.2c-36.9 8-74.6 12.4-111.5 20.7c-41.9 6.9-83.7 14.9-125.4 22.6c-15.5 2.9-31.1 4.6-46.4 8.5c-6.6 1.9-13.5 1.8-20.1 3.7c11.7 0.4 23.2-2.3 34.8-3.6c19-3.8 38.3-5.5 57.4-8.5c19.1-3.2 38.5-4.9 57.5-8.7c35.4-5.1 70.8-10 106.2-14.9c43.5-7.8 87.6-12 131.1-19.7q46.7-6.5 93.5-13.2c47.3-8.2 95.2-12.9 142.6-21.2c20.6-2.6 41-6 61.6-8.6c33.7-4.4 67-10.5 100.7-14.8c39.9-5 79.5-12.4 119.4-17.3c13-1.6 25.9-4.2 39-5.5c45.6-8.1 91.8-12.5 137.4-20.5c22.4-3.2 44.8-6.3 67.1-9.5c32.6-4.1 64.9-10.1 97.4-14.3c42.2-5.4 84-13.1 126.2-18.2c12.1-1.3 24-4.4 36.1-5c10.3 13.7 16.9 29.6 26.3 43.9c26.8 46.9 54.1 93.6 81 140.6c5.5 9.5 12 18.8 15.4 29.4c-194.3 0.3-388.7 0-583.1 0.1c-335.5 0.1-671 0-1006.6 0.1c6-13.2 14.5-25 21.2-37.8c221.1-382.8 442.1-765.6 663.2-1148.4z" />
	</g>
</svg>