<svg version="1.2" xmlns="http://www.w3.org/2000/svg" viewBox="0 0 1380 585" width="1380" height="585">
	<title>download (24)-svg</title>
	<style>
		.s0 { fill: #1d1d1b } 
		.s1 { fill: #ff0000 } 
	</style>
	<g id="Layer">
		<path id="Layer" fill-rule="evenodd" class="s0" d="m420.1 392.4l-7.4-14.8c-10.8 9.4-26.3 18.2-48.5 18.2-30.9 0-55.1-20.9-55.1-53.9 0-35 26.9-53.8 69.9-55.1l29.6-1.4v-4c0-20.2-14.1-28.3-31.6-28.3-18.1 0-32.3 6.1-43 12.1l-14.2-26.2c22.2-14.8 43.1-18.2 65.3-18.2 41.7 0 66.6 17.5 66.6 61.2v66c0 24.2 0.7 36.3 3.4 44.4zm-11.5-76.7l-24.2 0.7c-23.5 0.6-33.6 8.7-33.6 22.8 0 14.2 10.1 23.6 27.6 23.6 14.8 0 24.8-6.1 30.2-10.8zm151.4 80.8c-54.5 0-82.8-39-82.8-86.8 0-51.2 37-88.9 86.8-88.9 22.9 0 38.4 5.4 47.8 11.5l-0.7 35c-11.4-8.8-24.9-14.2-42.4-14.2-28.9 0-49.1 22.9-49.1 53.9 0 28.9 15.5 54.5 49.1 54.5 16.2 0 28.3-4.7 39.7-11.4l10.8 28.2c-13.5 8.8-36.4 18.2-59.2 18.2zm150.7 0c-54.5 0-82.8-39-82.8-86.8 0-51.2 37-88.9 86.8-88.9 22.9 0 38.3 5.4 47.8 11.5l-0.7 35c-11.5-8.8-24.9-14.2-42.4-14.2-28.9 0-49.1 22.9-49.1 53.9 0 28.9 15.5 54.5 49.1 54.5 16.1 0 28.3-4.7 39.7-11.4l10.8 28.2c-13.5 8.8-36.4 18.2-59.2 18.2zm85.4-171.6h42.4v167.6h-42.4zm20.9-25.6c-14.6 0-26.3-11.5-26.3-25.6 0-14.1 11.7-25.6 26.3-25.6 14.5 0 26.2 11.5 26.2 25.6 0 14.1-11.7 25.6-26.2 25.6zm191 171.6c-14.8 15.5-35.7 24.2-60.6 24.2-23.5 0-43-7.4-57.8-20.8-16.1-15.5-25.6-38.4-25.6-65.3 0-26.3 8.8-48.5 24.2-64.6 15.5-14.8 35.7-23.6 59.9-23.6 26.3 0 47.1 8.8 61.9 24.2 14.1 15.5 22.2 37.7 22.2 63.3 0 25.6-8.1 48.5-24.2 62.6zm-60.6-116.4c-26.9 0-40.3 22.8-40.3 53.8 0 32.3 15.5 54.5 41 54.5 26.9 0 40.4-22.9 40.4-54.5 0-31.6-14.8-53.8-41.1-53.8zm219.3 137.9v-98.2c0-17.5-3.3-36.4-24.8-36.4-14.8 0-29.6 8.1-42.4 17.5v117.1h-42.4v-167.5h36.3l4.7 18.1c18.2-13.4 36.4-22.2 58.6-22.2 25.5 0 53.1 15.5 53.1 60.6v111zm177.6 0l-7.4-14.8c-10.8 9.4-26.3 18.2-48.4 18.2-31 0-55.2-20.9-55.2-53.8 0-35 26.9-53.9 69.9-55.2l29.6-1.4v-4c0-20.2-14.1-28.3-31.6-28.3-18.1 0-32.3 6.1-43 12.1l-14.1-26.2c22.2-14.8 43-18.2 65.2-18.2 41.7 0 66.6 17.5 66.6 61.3v65.9c0 24.2 0.7 36.4 3.4 44.4zm-11.5-76.7l-24.2 0.7c-23.5 0.7-33.6 8.7-33.6 22.9 0 14.1 10.1 23.5 27.6 23.5 14.8 0 24.8-6 30.2-10.7z"/>
		<path id="Layer" class="s1" d="m260.7 560l-41.1 24.2c12.8-63.2 10.1-118.4 2.7-170.9-35-6.8-80.7-28.3-117-58.6v-17.5c34.9 23.6 79.3 35 112.3 39.7-4-25.5-8.7-50.4-12.1-75.3-24.9-10.8-51.8-26.3-74.7-45.1v-17.5c21.6 14.8 47.1 24.9 71.3 31.6-0.6-8.1-1.3-15.5-2-22.9-1.3-24.2-0.7-45.7 0.7-65.9-12.1-6.8-22.9-14.8-33.7-23.6v-17.5c10.8 8.1 22.9 14.1 35.7 19.5 1.3-13.4 4-25.5 6.1-36.3 3.3-15.5 6.7-28.3 10-37q4.1-3.1 8.1-6.1c-2.7 12.1-6 26.3-8.1 43.1-2 12.8-3.3 26.9-3.3 42.4 0 8.1 0 17.5 0.7 26.9 0 5.4 0 11.4 0.6 17.5 2 22.9 6.1 45.1 10.8 67.3 2.7 12.1 5.4 24.2 8.7 37 18.9 76.1 41.1 155.5 24.3 245zm129.1-400.4c-3.4 2.6-6.7 6-8.7 7.4-22.9-8.8-50.5-29.7-54.5-76.8-24.9-4.7-62.6-18.1-97.6-47.1l-2-2.7-2 2.7c-35.7 29.6-72 41.8-96.9 47.1l-2 0.7v2c-9.4 67.3-42.4 105.7-68.6 125.9l-1.3 1.3 0.6 2c3.4 16.2 4.7 28.3 4.7 38.4 0 33.7-8.7 64.6-25.5 92.2v3.4c-2.7 52.5 113.7 119.8 154 121.1l2 9.4c-53.1-1.3-153.3-53.1-187.6-125.8 0 0-2.7-6.1-4.1-8.1 2-2 5.4-7.4 5.4-7.4 12.1-16.8 26.2-45.8 26.2-84.8 0-12.1-2-26.2-6-43.7 0 0-2-7.4-2.7-10.1 2.7-2.1 8.7-6.1 8.7-6.1 22.2-14.8 61.3-50.5 66.6-123.8 0 0 0.7-8.8 0.7-12.1 3.4-0.7 12.1-2.1 12.1-2.1 23.6-4 68-14.8 106.3-52.5 0 0 6.7-6.7 10.1-10 2.7 3.3 10.1 10 10.1 10 39 37.7 83.4 49.2 106.3 52.5 0 0 8.7 1.4 12.1 2.1 0 3.3 0 12.1 0 12.1 0 54.5 24.2 77.4 33.6 82.8z"/>
		<path id="Layer" fill-rule="evenodd" class="s1" d="m1374 549.2h-14.8l-2.1-6.7c-7.4 5.4-14.8 8.1-23.5 8.1-7.4 0-13.5-2.7-18.2-6.8-4.7-4-6.7-10.1-6.7-17.5q0-11.1 8.1-18.1c5.4-4.7 14.1-6.8 24.9-6.8 5.3 0 10.1 0.7 14.1 1.4v-2c0-2.7 0-5.4-0.7-7.4-0.7-2.1-2-4.1-4-5.4-2.7-2-6.1-2.7-10.8-2.7-6.7 0-13.4 1.3-20.2 4.7l-5.3-10.1c3.3-2.7 8-4.7 13.4-6.1q8.1-2 16.2-2c8.7 0 15.4 2 20.8 6.1 4.7 4.7 7.4 10.8 7.4 19.5v37c0 5.4 0.7 10.1 1.4 14.1zm-44.4-14.8c2 2.1 5.3 2.7 9.4 2.7 6 0 11.4-2 16.8-6.7v-16.1c-4-0.7-7.4-0.7-11.4-0.7-4.8 0-8.8 0.7-12.8 2.7q-6.1 2-6.1 10.1 0 5 4.1 8zm-59.9-78l29.6-24.9 8.7 12.8-32.9 20.2zm6 16.8h17.5v75.4h-17.5zm-18.8 73.3c5.4 2.7 8.1 8.1 8.1 14.8 0 6.7-2.7 12.8-9.5 16.8-6 4.1-16.1 6.1-29.6 6.1-25.5 0-38.3-6.1-38.3-18.8 0-7.5 4-13.5 12.8-18.2-3.4-2.7-5.4-5.4-5.4-9.4 0-5.4 3.4-10.1 9.4-14.2-4-2-7.4-5.4-9.4-9.4-2-4-3.4-8.7-3.4-14.1 0-8.8 2.7-15.5 8.8-20.9q9.1-8.1 24.2-8.1c4.7 0 8.7 0.7 12.8 2.1 8.7-4.8 17.5-7.5 26.9-9.5v14.8c-3.4 0.7-8.1 0.7-15.5 1.4 6.1 5.4 8.8 12.1 8.8 20.8 0 8.8-2.7 15.5-8.8 20.9-5.4 5.4-13.4 8.1-23.5 8.1-4.1 0-7.4-0.7-10.1-1.4-1.4 0.7-2.7 2.1-3.4 2.7-0.7 0.7-1.3 2-1.3 3.4 0 2 0.6 3.4 3.3 4q3.1 1 12.1 2.1l8.1 0.6c10.1 1.4 18.2 3.4 22.9 5.4zm-44.4-58.5c-3.4 3.3-4.7 7.4-4.7 12.7 0 5.4 2 10.1 4.7 12.8 2.7 3.4 6.7 4.7 11.4 4.7 5.4 0 9.4-2 12.1-4.7 2.7-3.3 4.1-7.4 4.1-12.8 0-5.3-1.4-10.1-4.1-12.7-2.7-3.4-6.7-4.8-11.4-4.8-4.7 0-8.7 2.1-12.1 4.8zm31.6 82.1c3.4-2.1 4.7-4.1 4.7-7.4 0-2.7-1.3-4.1-4-5.4-2-1.4-6.8-2-13.5-2.7l-6.7-0.7c-6.1 0-10.8-0.7-14.8-2-4 3.4-6.1 6.7-6.1 11.4 0 3.4 1.4 6.1 4.8 7.4 2.6 2.1 8.7 2.7 17.4 2.7 8.8 0 14.8-1.3 18.2-3.3zm-60.5-97.6l-2.7 14.8c-1.4-0.7-4.1-0.7-6.8-0.7-4 0-7.4 1.4-10.7 3.4-3.4 2-5.4 4.7-7.4 8.1v51.1h-17.5v-75.4h14.1l2 10.8c2.1-3.4 5.4-6.1 8.8-8.8 3.3-2.6 8.1-4 12.8-4 4 0 6.7 0 7.4 0.7zm-60.6 43.7h-51.8c0.7 7.4 2.7 12.8 6.7 16.2 4.1 3.3 9.5 5.4 16.2 5.4 3.4 0 6.7-0.7 10.1-1.4 2.7-0.7 5.4-1.3 7.4-2.7l6 11.5c-6.7 3.3-14.8 5.3-24.2 5.3-12.8 0-22.2-3.3-28.9-10.7-6.7-7.4-10.1-16.8-10.1-29 0-12.1 3.4-21.5 9.4-28.9 6.7-7.4 14.8-10.8 26.3-10.8 10.7 0 19.5 3.4 24.8 10.8q8.1 11.1 8.1 30.3zm-46.4-26.3c-2.7 3.4-4.7 7.4-5.4 13.5h35c0-6.7-2-10.8-4.7-14.1-3.4-3.4-7.4-4.7-12.1-4.7-6.1 0-10.1 2-12.8 5.3zm-43.7-10.1q6 8.1 6 22.3v47.1h-17.5v-44.5c0-6-1.3-10.1-2.6-13.4-1.4-3.4-5.4-4.7-11.5-4.7-4 0-6.7 0.6-10.1 2-3.3 1.3-6.7 3.4-10.1 6.7v53.9h-17.5v-75.4h14.2l2 9.4c4-4 8.7-6.7 12.8-8.7 4-2.1 8.7-2.7 14.1-2.7q13.1 0 20.2 8zm-79.4 36.4h-51.8c0.7 7.4 2.7 12.8 6.7 16.1 4.1 3.4 9.4 5.4 16.2 5.4 3.3 0 7.4-0.7 10.1-1.3 2.7-0.7 5.3-1.4 7.4-2.7l6 11.4c-6.7 3.4-14.8 5.4-24.2 5.4-12.8 0-22.2-3.4-28.9-10.8-6.7-7.4-10.1-16.8-10.1-28.9 0-12.1 3.4-21.5 9.4-28.9 6.7-7.4 14.8-10.8 26.2-10.8 10.8 0 19.5 3.4 24.9 10.8q8.1 11.1 8.1 30.2zm-45.7-26.2c-2.7 3.4-4.7 7.4-5.4 13.5h35c0-6.8-2.1-10.8-4.8-14.2-3.3-3.3-7.4-4.7-12.1-4.7-6 0-10 2-12.7 5.4z"/>
	</g>
</svg>