<svg version="1.2" baseProfile="tiny-ps" xmlns="http://www.w3.org/2000/svg" viewBox="0 0 1663 1505" width="1663" height="1505">
	<title>51c005fd0a0c7d3ec109cfc125523998-angologo-svg</title>
	<style>
		tspan { white-space:pre }
		.shp0 { fill: #e9184e } 
		.shp1 { fill: #a51e36 } 
		.shp2 { fill: #17468f } 
		.shp3 { fill: #0d223f } 
	</style>
	<g id="#e9184eff">
		<path id="Layer" class="shp0" d="M565.21 108.87C595.1 51.4 652.45 8.86 717.36 1.87C836.73 -12.13 951.63 36.66 1054.71 91.43C1216.26 180.05 1361.15 298.07 1486.3 433.06C1540.3 495.47 1597.66 557.14 1634.81 631.49C1638.35 673.01 1640.12 717.51 1619.54 755.29C1590.68 807.91 1550.17 852.78 1510.32 897.28C1398.77 1016.32 1274.46 1122.58 1146.43 1223.33C1035.71 1307.85 922.39 1391.26 795.94 1450.96C755.81 1471.77 709.91 1473.54 665.77 1470.65C609.72 1400.31 574.05 1316.72 551.7 1230.14C545.84 1208.87 540.44 1187.51 535.5 1166.05C524.89 1120.15 516.41 1073.79 509.62 1027.14C485.41 876.01 474.89 722.82 476.56 569.73C548.91 576.64 620.14 593.99 688.96 617.5C681.6 727.11 680.39 837.29 693.8 946.54C704.04 1015.67 712.14 1090.21 757.21 1146.74C765.12 1159.05 773.13 1171.18 781.23 1183.31C857.77 1173.89 925.37 1134.33 990 1094.87C1088.42 1033.86 1181.72 964.82 1270.92 891.03C1309.47 858.47 1348.11 825.44 1381.45 787.38C1394.21 771.99 1408.17 750.34 1397.56 730.1C1374.37 683.45 1334.8 647.91 1299.6 610.5C1219.06 526.44 1126.5 455.45 1032.74 387.07C991.3 336.32 930.59 308.33 871.74 283.61C840.17 271.85 797.9 260.1 771.64 288.64C732.63 331.65 728.25 393.04 716.15 447.33C643.42 427.09 568.93 414.49 495.28 398.63L489.04 392.94C499.65 295.45 518.28 196.01 565.21 108.87Z" />
	</g>
	<g id="#a51e36ff">
		<path id="Layer" class="shp1" d="M771.64 288.64C797.9 260.1 840.17 271.85 871.74 283.61C930.59 308.33 991.3 336.32 1032.74 387.07C974.17 352.92 915.6 312.53 847.06 303.29C820.34 298.63 798.37 318.59 784.68 339.11C762.05 373.73 755.63 415.52 749.95 455.64C738.68 452.84 727.41 450.13 716.15 447.33C728.25 393.04 732.63 331.65 771.64 288.64Z" />
		<path id="Layer" class="shp1" d="M688.96 617.5C699.01 621.32 708.88 625.52 718.85 629.81C709.07 721.05 707.39 813.13 713.17 904.65C716.7 948.31 722.1 991.78 729.65 1034.88C733.28 1054.85 737.28 1074.72 742.12 1094.4C746.59 1112.04 751.62 1129.48 757.21 1146.74C712.14 1090.21 704.04 1015.67 693.8 946.54C680.39 837.29 681.6 727.11 688.96 617.5Z" />
		<path id="Layer" class="shp1" d="M1619.54 755.29C1640.12 717.51 1638.35 673.01 1634.81 631.49C1660.33 674.59 1675.69 730.19 1649.53 776.75C1596.54 876.94 1512.37 955.4 1433.31 1034.88C1313.01 1148.89 1184.23 1254.12 1048.66 1349.37C973.79 1400.68 897.44 1451.15 813.82 1487.25C766.33 1508.34 702.64 1514.22 665.77 1470.65C709.91 1473.54 755.81 1471.77 795.94 1450.96C922.39 1391.26 1035.71 1307.85 1146.43 1223.33C1274.46 1122.58 1398.77 1016.32 1510.32 897.28C1550.17 852.78 1590.68 807.91 1619.54 755.29Z" />
	</g>
	<g id="#17468fff">
		<path id="Layer" class="shp2" d="M47.02 411.14C113.6 380.44 188.84 380.16 260.72 377.92C339.12 380.54 418.09 383.61 495.28 398.63C568.93 414.49 643.42 427.09 716.15 447.33C727.41 450.13 738.68 452.84 749.95 455.64C788.96 465.62 826.95 479.43 863.64 496.03C933.85 527.84 1010.11 572.06 1033.85 650.9C1014.95 699.13 996.51 748.39 965.88 790.65C899.67 883.1 818.57 964.26 729.65 1034.88C722.1 991.78 716.7 948.31 713.17 904.65C767.08 844.38 833.94 788.22 854.61 706.5C858.15 653.69 809.63 622.91 768.66 601.92C683.18 559.75 589.51 537.27 496.12 520.29C424.79 507.88 352.16 499.02 279.72 505.27C254.76 507.88 224.5 514.5 213.42 540.16C196.57 579.99 205.22 624.49 212.39 665.54C225.62 750.72 264.26 829.55 309.79 901.85C340.61 947.56 375.16 993.93 423.95 1021.64C450.12 1036.94 481.22 1030.78 509.62 1027.14C516.41 1073.79 524.89 1120.15 535.5 1166.05C490.62 1191.71 439.69 1222.87 385.87 1208.03C327.39 1189.93 283.44 1143.66 243.77 1099.25C147.87 988.52 93.86 850.82 34.17 719C12.57 643.15 -5.96 563.76 1.21 484.28C3.45 454.24 17.88 423.17 47.02 411.14Z" />
	</g>
	<g id="#0d223fff">
		<path id="Layer" class="shp3" d="M213.42 540.16C224.5 514.5 254.76 507.88 279.72 505.27C352.16 499.02 424.79 507.88 496.12 520.29C589.51 537.27 683.18 559.75 768.66 601.92C809.63 622.91 858.15 653.69 854.61 706.5C813.36 674.31 767.27 649.22 718.85 629.81C708.88 625.52 699.01 621.32 688.96 617.5C620.14 593.99 548.91 576.64 476.56 569.73C404.12 564.23 329.63 549.77 258.02 568.52C217.05 580.27 216.49 630.84 212.39 665.54C205.22 624.49 196.57 579.99 213.42 540.16Z" />
		<path id="Layer" class="shp3" d="M965.88 790.65C996.51 748.39 1014.95 699.13 1033.85 650.9C1046.14 714.43 1014.76 774.04 982.08 826C917.09 927.5 834.49 1017.25 742.12 1094.4C737.28 1074.72 733.28 1054.85 729.65 1034.88C818.57 964.26 899.67 883.1 965.88 790.65Z" />
		<path id="Layer" class="shp3" d="M34.17 719C93.86 850.82 147.87 988.52 243.77 1099.25C283.44 1143.66 327.39 1189.93 385.87 1208.03C439.69 1222.87 490.62 1191.71 535.5 1166.05C540.44 1187.51 545.84 1208.87 551.7 1230.14C513.62 1251.23 472.74 1272.59 428.33 1273.52C374.69 1269.79 330 1235.37 292.66 1199.54C219.38 1126.4 165.46 1036.56 119 944.76C84.27 872.18 53.54 797.27 34.17 719Z" />
	</g>
</svg>