<svg version="1.2" xmlns="http://www.w3.org/2000/svg" viewBox="0 0 1500 1524" width="1500" height="1524">
	<title>header-logo-white-svg</title>
	<style>
		.s0 { fill: #1a559a } 
	</style>
	<path id="Layer" fill-rule="evenodd" class="s0" d="m1481.8 600.4c35.3 162.3 16.6 331.7-53.2 482.3-69.8 150.7-186.9 274.3-333.3 352.1-146.5 77.8-314.4 105.5-478 78.9-163.6-26.7-314.1-106.2-428.4-226.4-45.8-51.1-110.5-147.3-39.5-226 200.9-223.5 490.7-548.7 490.7-548.7 295.9-294.6 139.1 81.3 139.1 81.3-36.5 136.5-156.8 369.3-217 642.5-60.2 273.1 145.7 122.2 145.7 122.2 221.1-166.7 562.9-527.4 773.9-758.2zm-1098.6 326.3c0 13.2 2.6 26.2 7.7 38.4 5 12.2 12.4 23.2 21.7 32.6 9.4 9.3 20.4 16.7 32.6 21.7 12.2 5 25.2 7.6 38.4 7.6 40.6 0 77.1-24.5 92.6-62 15.6-37.6 7-80.8-21.7-109.5-28.8-28.8-71.9-37.3-109.4-21.7-37.4 15.6-61.9 52.2-61.8 92.9zm-211.4-89.6c-220.6 0-174-240.3-152.2-320.7 35.5-104.2 93.1-199.4 168.8-279.1 75.8-79.7 167.9-142 270-182.6 102.1-40.6 211.7-58.6 321.4-52.7 109.7 6 216.8 35.6 314 87-200.7 106.4-536.9 449.9-536.9 449.9-88.7 103.9-268.3 298.2-385.1 298.2zm971.6-383.3c53.6-127.2 78.3-214 87.2-272 21.9 18.6 42.8 38.4 62.5 59.4 19.6 21 38.1 43.1 55.3 66.1 17.2 23.1 33.1 47.1 47.6 72 14.5 24.9 27.5 50.6 39.1 76.9 15.7 35.4 50.9 97.9-4.9 144.4-120.2 92.3-248.8 177.5-293.1 171.5-116.1-16.3 6.3-318.2 6.3-318.3z"/>
</svg>