<svg version="1.2" xmlns="http://www.w3.org/2000/svg" viewBox="0 0 1560 662" width="1560" height="662">
	<title>logo-footer-svg</title>
	<style>
		.s0 { fill: #ffffff } 
	</style>
	<path id="Layer" fill-rule="evenodd" class="s0" d="m28 555.3h9.4q4.4-0.2 8.8-0.1q4.4 0.1 8.7 0.5q4.4 0.4 8.7 1.1q4.3 0.7 8.6 1.8c11 3.3 17.2 10.7 17.2 19.4c0 14-16.7 23.8-46.3 23.8c-2.7 0-6.3-0.2-11-0.4v10.6c0 18.9 0.8 27 9.8 29v1.7c-8.4-0.4-15.5-0.4-21.5-0.4c-5.8 0-12.6 0-20.4 0.4v-1.7c9.1-1.9 9.5-10.1 9.5-29v-44.6c0.2-1.2 0.1-2.4-0.2-3.6c-0.3-1.2-0.8-2.3-1.5-3.3c-0.8-1-1.7-1.8-2.8-2.4c-1-0.6-2.2-1-3.4-1.2v-1.7c10.3 0.1 19.2 0.1 26.4 0.1zm12 41.8c15.5 0 23.9-7 23.9-19.1c0-12.3-8.6-18.1-26.1-18.1c-1.6 0-3.5 0.1-5.7 0.3v36.1q0.9 0.2 1.9 0.3q1 0.2 2 0.3q1 0.1 2 0.1q1 0.1 2 0.1z" />
	<path id="Layer" class="s0" d="m90.6 641.2c8.3-2.6 8.7-10.3 8.7-25.9v-50.7c0-9.4-0.3-13.2-7.1-13.7v-1.5q3.3-0.4 6.6-0.9q3.4-0.6 6.7-1.2q3.3-0.6 6.6-1.3q3.3-0.7 6.6-1.5c-0.2 5.5-0.5 13.7-0.5 24.5v17.1c0.8-2.4 2.1-4.6 3.6-6.6c1.6-1.9 3.4-3.6 5.5-5c2.1-1.4 4.4-2.4 6.8-3.1c2.4-0.6 4.9-0.9 7.4-0.8c18.5 0 27.3 10.9 27.3 32.9v11.8c0 15.7 0.4 23.5 8.7 25.9v1.5c-6.3-0.4-12.5-0.5-18.5-0.5c-5.3 0-11.3 0.1-18.1 0.5v-1.5c8-2.5 8.5-9.9 8.5-23.8v-12.7c0-18-4-26.4-14-26.4c-9.8 0-16.9 9.8-16.9 26.4v9.4c0 16.8 0.2 24.7 8.7 27.1v1.5c-6.3-0.4-12.5-0.5-18.5-0.5c-5.3 0-11.3 0.1-18.1 0.5z" />
	<path id="Layer" fill-rule="evenodd" class="s0" d="m257.8 642.6c-5.5-0.1-11-0.3-16.5-0.3h-5.9q-0.8-1.3-1.5-2.6q-0.7-1.3-1.2-2.7q-0.6-1.4-1.1-2.8q-0.5-1.4-0.9-2.9c-1 2-2.3 3.9-3.8 5.6c-1.5 1.6-3.3 3-5.3 4.2c-1.9 1.1-4.1 1.9-6.3 2.4c-2.2 0.5-4.4 0.7-6.7 0.6c-16.8 0-27.6-9.3-27.6-21.4c0-14.9 15.9-22.4 48.1-23.5v-0.5c0-15.8-5.6-24-15.9-24c-10.8 0-16.8 7.2-20.8 22.8h-1.9l-6.2-20q3.7-1.8 7.6-3.1q3.8-1.3 7.8-2.2q4-0.9 8-1.3q4.1-0.4 8.1-0.4c12.8 0 22.2 3.2 27.4 9c5.8 6.2 5.8 13.8 5.8 24.7v6.2c0 19 0.9 28.2 8.8 29.9zm-31.8-39.5c-14.4 0-22.2 7-22.2 19.4c0 9.8 4.5 15.7 11.1 15.7c10.6 0 14.2-10.4 14.2-30.8v-4.1q-0.4-0.1-0.7-0.1q-0.4 0-0.8 0q-0.4-0.1-0.8-0.1q-0.4 0-0.8 0z" />
	<path id="Layer" class="s0" d="m260.8 641.1c8.2-2.7 8.6-9.8 8.6-24.6v-24.1c0-9.5-0.6-13.2-7.5-13.7v-1.6q3.3-0.4 6.7-0.9q3.4-0.4 6.8-1.1q3.3-0.6 6.6-1.3q3.4-0.7 6.7-1.6v16.4q8.2-18.1 22.9-18.1q0.4 0 0.7 0q0.3 0 0.7 0q0.3 0 0.6 0.1q0.4 0 0.7 0l-7.4 21.9h-1.7q-0.5-0.6-1.1-1.1q-0.6-0.5-1.3-0.9q-0.7-0.3-1.4-0.5q-0.8-0.2-1.6-0.2c-7.1 0-11.1 6.6-11.1 19.2v6.5c0 15.8 0.4 23.3 8.6 25.6v1.6c-6.3-0.4-12.5-0.5-18.6-0.5c-5.2 0-11.1 0.1-17.9 0.5z" />
	<path id="Layer" class="s0" d="m314.6 641.1c8.3-2.5 8.6-10.2 8.6-27v-21.7c0-9.5-0.6-13.2-7.6-13.7v-1.6q3.3-0.4 6.5-0.8q3.2-0.5 6.4-1.1q3.3-0.6 6.4-1.4q3.2-0.7 6.4-1.6v15.3c0.8-2.5 2.1-5 3.7-7.1c1.6-2.2 3.6-4.1 5.9-5.6c2.2-1.5 4.7-2.7 7.3-3.4c2.6-0.7 5.3-1 8-0.9c2.5-0.2 5 0.1 7.4 0.8c2.5 0.7 4.7 1.9 6.6 3.5c2 1.6 3.6 3.6 4.8 5.8c1.2 2.2 2 4.6 2.3 7.1c0.8-2.6 2.1-5 3.7-7.2c1.7-2.2 3.7-4.1 5.9-5.6c2.3-1.6 4.8-2.7 7.4-3.4c2.6-0.8 5.4-1 8.1-0.9c16.7 0 23.2 10.4 23.2 32.9v9.1c0 17.8 0.1 26.2 8.8 28.6v1.5c-6.3-0.4-12.6-0.5-18.6-0.5c-5.2 0-11.3 0.1-18.1 0.5v-1.5c8.3-2.6 8.7-10.2 8.7-24.8v-11.7c0-18.4-3.6-27.2-12.3-27.2c-8.8 0-15.6 10-15.6 27.2v9.4c0 16.8 0.3 24.7 8.7 27.1v1.5c-6.4-0.4-12.5-0.5-18.2-0.5c-5 0-10.9 0.1-17.7 0.5v-1.5c8.3-2.6 8.7-10.2 8.7-24.8v-11.7c0-18.2-3.4-27.1-12.4-27.1c-8.6 0-15.3 10.2-15.3 27.1v9.4c0 16.8 0.3 24.6 8.8 27v1.6c-6.4-0.4-12.5-0.5-18.6-0.5c-5.2 0-11.1 0.1-17.9 0.5z" />
	<path id="Layer" fill-rule="evenodd" class="s0" d="m528 642.6c-5.5-0.1-11-0.3-16.5-0.3h-5.9q-0.8-1.3-1.5-2.6q-0.7-1.3-1.3-2.7q-0.6-1.4-1-2.8q-0.5-1.4-0.9-2.9c-1 2-2.3 3.9-3.8 5.6c-1.6 1.6-3.4 3-5.3 4.2c-2 1.1-4.1 1.9-6.3 2.4c-2.2 0.5-4.5 0.7-6.7 0.6c-16.8 0-27.7-9.3-27.7-21.4c0-14.9 16-22.4 48.2-23.5v-0.5c0-15.8-5.6-24-16-24c-10.7 0-16.7 7.2-20.8 22.8h-1.8l-6.2-20q3.7-1.8 7.5-3.1q3.9-1.3 7.9-2.2q3.9-0.9 8-1.3q4-0.4 8.1-0.4c12.8 0 22.2 3.2 27.4 9c5.7 6.2 5.7 13.8 5.7 24.7v6.2c0 19 1 28.2 8.9 29.9zm-31.8-39.5c-14.5 0-22.3 7-22.3 19.4c0 9.8 4.6 15.7 11.2 15.7c10.6 0 14.2-10.4 14.2-30.8v-4.1q-0.4-0.1-0.8-0.1q-0.4 0-0.7 0q-0.4-0.1-0.8-0.1q-0.4 0-0.8 0z" />
	<path id="Layer" class="s0" d="m595.9 598.7h-1.6c-1.4-16-8.1-24.3-19.1-24.3c-13 0-21 11.3-21 32.5c0 20.3 9.3 32.1 23.2 32.1c9.2 0 16.6-6.1 21.2-17.6l3.7 2.9c-1 3.1-2.5 6-4.5 8.5c-1.9 2.6-4.3 4.8-7 6.6c-2.6 1.8-5.6 3.2-8.7 4c-3.1 0.8-6.3 1.2-9.6 0.9c-23.4 0-39.3-15-39.3-36.6c0-22.3 15.5-37.2 39.3-37.2q3.9 0 7.8 0.5q3.9 0.5 7.7 1.5q3.7 1 7.3 2.5q3.6 1.5 7 3.4z" />
	<path id="Layer" fill-rule="evenodd" class="s0" d="m633.7 599c-0.1 2.2-0.3 4.4-0.3 6.4c0 20.7 9 32.2 23.1 32.2c12.1 0 20.7-8.4 25-24.7l3.6 3.2c-5.5 18.7-17.3 28-35.6 28c-22.9 0-38.3-15.3-38.3-37.1c-0.2-4.9 0.7-9.8 2.6-14.4c1.8-4.6 4.6-8.7 8.2-12.2c3.5-3.4 7.7-6 12.4-7.8c4.6-1.7 9.5-2.4 14.5-2.1c19.8 0 32.6 10.2 35.1 28.5zm14.6-24.3c-7.2 0-12.7 6.7-14.5 19.4h27.4c-0.4-12.5-5.6-19.4-12.9-19.4z" />
	<path id="Layer" class="s0" d="m690.2 578.8v-1.6q3.4-0.3 6.7-0.8q3.4-0.5 6.7-1.1q3.4-0.6 6.7-1.3q3.3-0.8 6.6-1.6v37.6c0 18 4 26.4 14.1 26.4c9.8 0 16.7-9.8 16.7-26.4v-17.6c0-9.5-0.5-13-7.5-13.6v-1.6q3.4-0.4 6.9-0.9q3.4-0.5 6.8-1.2q3.4-0.6 6.8-1.2q3.4-0.7 6.8-1.5c-0.3 9.5-0.3 15.2-0.3 16.6v21.4c0 19 0.9 28.2 8.8 29.9v2.3c-5.5-0.1-11.4-0.3-17.7-0.3h-6.9q-0.5-1.5-0.9-3q-0.4-1.5-0.8-3q-0.4-1.6-0.7-3.1q-0.3-1.5-0.6-3.1c-1 2.3-2.4 4.3-4 6.2c-1.7 1.8-3.6 3.4-5.7 4.6c-2.1 1.3-4.4 2.2-6.8 2.8c-2.4 0.5-4.9 0.7-7.4 0.5c-18 0-26.8-10.9-26.8-32.9v-18.9c0-9.5-0.5-13-7.5-13.6z" />
	<path id="Layer" class="s0" d="m817.3 641v1.6h0.4c0 0-7.9-0.2-23.6-0.3c-4.5-2.1-5.1-9-5.1-20.9v-9.7l0.3-32.5h-7.5l0.7-3.9q3.8-1.9 7.3-4.3q3.6-2.5 6.7-5.5q3-3 5.6-6.4q2.6-3.5 4.6-7.3h2.2c-0.4 4.2-0.7 10-0.7 17.1v4.7h15.5l-1.7 5.6h-13.8v30.5c0 19.5 0.8 28.9 9.1 31.3z" />
	<path id="Layer" class="s0" d="m860 596.9v18.6c0 15.8 0.4 23.3 8.5 25.6v1.6c-6.3-0.4-12.4-0.5-18.5-0.5c-5.2 0-11.1 0.1-17.9 0.5v-1.6c8.1-2.7 8.5-9.9 8.5-24.6v-24.1c0-9.5-0.5-13.2-7.5-13.7v-1.6q3.5-0.4 6.9-0.9q3.4-0.5 6.8-1.1q3.4-0.6 6.8-1.3q3.4-0.7 6.8-1.4c-0.4 7.9-0.4 16.1-0.4 24.5zm-10-52.4c2.8 0 5.5 1.2 7.4 3.2c2 2 3.1 4.7 3.1 7.5c0 2.8-1.1 5.5-3.1 7.5c-1.9 2-4.6 3.2-7.4 3.2c-1.4 0.1-2.8-0.2-4.1-0.7c-1.3-0.5-2.5-1.3-3.5-2.3c-1-1-1.7-2.2-2.2-3.6c-0.5-1.3-0.7-2.7-0.6-4.1c-0.1-1.4 0.2-2.8 0.7-4.1c0.5-1.3 1.2-2.5 2.2-3.5c1-1 2.2-1.8 3.4-2.3c1.3-0.6 2.7-0.9 4.1-0.8z" />
	<path id="Layer" class="s0" d="m937.4 598.7h-1.7c-1.3-16-8-24.3-19-24.3c-13 0-21.1 11.3-21.1 32.5c0 20.3 9.4 32.1 23.2 32.1c9.3 0 16.7-6.1 21.2-17.6l3.8 2.9c-1 3.1-2.5 6-4.5 8.5c-1.9 2.6-4.3 4.8-7 6.6c-2.7 1.8-5.6 3.2-8.7 4c-3.1 0.8-6.4 1.2-9.6 0.9c-23.5 0-39.3-15-39.3-36.6c0-22.3 15.4-37.2 39.3-37.2q3.9 0 7.8 0.5q3.9 0.5 7.6 1.5q3.8 1 7.4 2.5q3.6 1.5 7 3.4z" />
	<path id="Layer" fill-rule="evenodd" class="s0" d="m1028.4 642.6c-5.5-0.1-11-0.3-16.5-0.3h-5.9q-0.8-1.3-1.4-2.6q-0.7-1.3-1.3-2.7q-0.6-1.4-1.1-2.8q-0.5-1.4-0.9-2.9c-1 2-2.2 3.9-3.8 5.6c-1.5 1.6-3.3 3-5.3 4.2c-1.9 1.1-4.1 1.9-6.3 2.4c-2.2 0.5-4.4 0.7-6.7 0.6c-16.8 0-27.6-9.3-27.6-21.4c0-14.9 15.9-22.4 48.1-23.5v-0.5c0-15.8-5.6-24-15.9-24c-10.8 0-16.8 7.2-20.8 22.8h-1.9l-6.2-20q3.7-1.8 7.6-3.1q3.8-1.3 7.8-2.2q4-0.9 8-1.3q4.1-0.4 8.1-0.4c12.8 0 22.2 3.2 27.4 9c5.8 6.2 5.8 13.8 5.8 24.7v6.2c0 19 0.9 28.2 8.8 29.9zm-31.8-39.5c-14.4 0-22.2 7-22.2 19.4c0 9.8 4.5 15.7 11.1 15.7c10.6 0 14.2-10.4 14.2-30.8v-4.1q-0.4-0.1-0.7-0.1q-0.4 0-0.8 0q-0.4-0.1-0.8-0.1q-0.4 0-0.8 0z" />
	<path id="Layer" class="s0" d="m1038.1 550.8v-1.5q3.4-0.4 6.8-0.9q3.4-0.5 6.8-1.1q3.4-0.6 6.8-1.3q3.4-0.7 6.8-1.5q-0.4 8.2-0.4 24.5v46.5c0 15.8 0.4 23.3 8.6 25.6v1.6c-6.3-0.4-12.5-0.5-18.5-0.5c-5.3 0-11.2 0.1-18 0.5v-1.6c8.2-2.7 8.6-9.8 8.6-24.6v-52c0-9.6-0.6-13.2-7.5-13.7z" />
	<path id="Layer" class="s0" d="m1085 614.7l1.9 0.2c2.8 16.5 10.7 25 22.5 25c9.3 0 15.9-5.5 15.9-13.1c0-7.8-6-9.7-17.8-12.7c-17-4.3-25.2-8.2-25.2-21c0-12.5 12.4-22.5 33.2-22.5q3.5 0 6.9 0.4q3.5 0.4 6.9 1.1q3.5 0.7 6.8 1.9q3.3 1.1 6.5 2.5l-6.2 18.3l-1.8-0.1c-3.7-13.2-11.5-20.2-20.8-20.2c-1.6-0.1-3.2 0.2-4.8 0.7c-1.5 0.5-3 1.3-4.2 2.4c-1.2 1.1-2.2 2.4-3 3.9c-0.7 1.5-1.1 3.1-1.2 4.7c0 9.3 7.2 9.5 20.1 12.5c16.8 3.8 24.9 8.3 24.9 20.9c0 14.9-13.4 24.6-36.7 24.6q-4.1 0-8.1-0.4q-4.1-0.5-8.1-1.4q-3.9-1-7.7-2.4q-3.9-1.4-7.5-3.2z" />
	<path id="Layer" class="s0" d="m1166.1 659.9q1.3-1.7 2.3-3.7q1-1.9 1.7-3.9q0.7-2 1.1-4.1q0.4-2.1 0.6-4.3c-7.5-0.4-11-3.6-11-9.9c-0.2-1.4 0-2.9 0.4-4.3c0.5-1.3 1.3-2.6 2.2-3.6c1-1.1 2.3-1.9 3.6-2.4c1.3-0.6 2.8-0.8 4.2-0.7c6.9 0 11.4 5.2 11.4 14.1c0 7.5-4.7 15.8-14.2 24.8z" />
	<path id="Layer" class="s0" d="m1257.3 641v1.7c-8.7-0.4-16.1-0.4-22.1-0.4c-5.8 0-12.8 0-20.8 0.4v-1.7c9.5-2 9.9-10.1 9.9-29v-44.9c0.2-1.2 0.1-2.4-0.2-3.6c-0.3-1.2-0.9-2.4-1.6-3.3c-0.8-1-1.7-1.8-2.8-2.4c-1.1-0.6-2.3-1-3.6-1.1v-1.9c6.9 0.4 13.3 0.5 19.1 0.5c6.2 0 12.9-0.1 20.4-0.5v1.9c-1.3 0.1-2.5 0.4-3.6 1c-1.1 0.6-2.1 1.4-2.8 2.4c-0.8 1-1.4 2.1-1.7 3.3c-0.3 1.2-0.4 2.5-0.2 3.7v44.9c0 19 0.6 26.8 10 29z" />
	<path id="Layer" class="s0" d="m1260.4 641.2c8.3-2.6 8.7-10.3 8.7-25.9v-22.9c0-9.5-0.5-13.2-7.5-13.7v-1.5q3.3-0.3 6.5-0.8q3.2-0.5 6.4-1.1q3.2-0.6 6.4-1.3q3.2-0.8 6.3-1.6v15.3c0.8-2.5 2-4.9 3.6-7.1c1.5-2.1 3.5-4 5.6-5.5c2.2-1.6 4.6-2.7 7.1-3.5c2.6-0.7 5.2-1.1 7.9-1c18.6 0 27.2 10.8 27.2 32.9v11.8c0 15.7 0.4 23.5 8.7 25.9v1.5c-6.3-0.4-12.4-0.5-18.5-0.5c-5.2 0-11.2 0.1-18.1 0.5v-1.5c8.1-2.5 8.6-9.8 8.6-23.7v-12.8c0-18-4-26.4-14.1-26.4c-9.8 0-16.9 9.8-16.9 26.4v9.4c0 16.8 0.3 24.7 8.7 27.1v1.5c-6.3-0.4-12.4-0.5-18.5-0.5c-5.2 0-11.2 0.1-18.1 0.5z" />
	<path id="Layer" class="s0" d="m1414.8 598.7h-1.6c-1.3-16-8-24.3-19-24.3c-13.1 0-21.1 11.3-21.1 32.5c0 20.3 9.4 32.1 23.2 32.1c9.3 0 16.6-6.1 21.2-17.6l3.8 2.9c-1.1 3.1-2.6 6-4.5 8.5c-2 2.6-4.3 4.8-7 6.6c-2.7 1.8-5.6 3.2-8.8 4c-3.1 0.8-6.3 1.2-9.5 0.9c-23.5 0-39.3-15-39.3-36.6c0-22.3 15.4-37.2 39.3-37.2q3.9 0 7.7 0.5q3.9 0.5 7.7 1.5q3.8 1 7.4 2.5q3.6 1.5 7 3.4z" />
	<path id="Layer" class="s0" d="m1449 623c1.4 0 2.7 0.2 4 0.8c1.3 0.5 2.5 1.2 3.5 2.2c0.9 1 1.7 2.1 2.3 3.4c0.5 1.3 0.8 2.7 0.8 4.1c0 1.4-0.3 2.7-0.8 4c-0.6 1.3-1.3 2.5-2.3 3.5c-1 1-2.2 1.8-3.5 2.3c-1.2 0.6-2.6 0.9-4 0.9c-1.4 0-2.8-0.3-4.1-0.8c-1.3-0.6-2.4-1.4-3.4-2.4c-1-1-1.8-2.1-2.3-3.4c-0.5-1.4-0.7-2.7-0.7-4.1c0-1.4 0.2-2.8 0.8-4.1c0.5-1.3 1.3-2.4 2.2-3.4c1-1 2.2-1.7 3.4-2.3c1.3-0.5 2.7-0.7 4.1-0.7z" />
	<path id="Layer" fill-rule="evenodd" class="s0" d="m543.8 518.1c-40.5-0.7-86.7-1.4-127.6-1.4c-13.9 0-28.9 0-43.8 0c-7.3-15.8 0.7-32.6 2.7-53c-59.3 43.9-121.7 65-206.3 61.4c-124.5-5.4-183.2-45.4-154.4-104.4c35.6-72.8 172.1-109.5 413.9-114.6c0.4-0.6 1-2 1.3-2.6c37.8-77.4 8.1-114.6-68.7-114.6c-79.7-0.1-148.5 38.1-215.5 114.1h-14l1.9-103.3q32.4-8.4 65.3-14.8q32.9-6.3 66.1-10.6q33.2-4.2 66.6-6.4q33.4-2.2 66.9-2.2c94.7 0.1 156.8 15.8 181.9 44.1c28.1 30.2 21.1 67.5-4.9 120.7l-14.7 30.1c-45.5 93.2-65.9 135-11.2 143.5zm-147.7-190.1c-108.6 6.3-179.4 31.2-208.9 91.5c-23.3 47.9 1.8 75.6 42.5 76.8c78.7 2.4 130.4-50.4 179-150.1l10-17.6q-2.8-0.2-5.7-0.4q-2.8-0.2-5.6-0.3q-2.9-0.1-5.7-0.1q-2.8 0.1-5.6 0.2z" />
	<path id="Layer" class="s0" d="m551.1 508.6c66.8-13 78.1-47.5 114.5-123.6c3.1-6.6 6.6-13.8 10-21l43.6-91.2c18-28.3 23.8-64.1-25.7-66.8l3.5-9.4c76-5.9 156.8-10.3 212.3-20.1l-29.9 70.5c61.1-56.4 128.9-78.3 212.8-78.2c135.6 0.1 173 47.3 118 155l-17.5 36.8c-3.5 7.2-6.9 14.4-10.1 21c-36.6 76.7-66.2 116.4 0 126.4v11.3c-44.9-2-101.7-2.8-145.6-2.9c-38 0-82.2 0.6-132.9 2.6l3.4-7.2c64.5-12.5 85.3-47.9 117.9-116.1q7.1-14.7 15.1-31.5l14.7-30.8c42-87.9 32.5-129.2-40.7-129.3c-71.2 0-119.1 48.1-158 129.4l-14.7 30.8c-2.6 5.3-5.1 10.5-7.3 15.1c-39.1 82-55.7 117.9 0.1 129.7l-3.4 10c-44.9-1.9-116.1-2.9-160-2.9c-38 0-72.8 0.5-123.5 2.4z" />
	<path id="Layer" class="s0" d="m1498.7 295.6l-32.9 68.9c-3.7 7.9-6.8 15.3-10.3 21.6c-57.9 104.2-46.6 111.9 7.6 123.1l-6.6 10c-44.9-2-91.7-2.6-135.6-2.6c-38 0-87.6 0.8-138.3 2.7l3.5-11.3c65.8-13 79.8-44.3 114-115.8c4.1-8.5 8.5-17.7 12.8-26.9l43.6-91.2c22.3-46.5 17.4-61.6-24.5-68.1l2.9-10.6c78.3-6.5 163.2-10.6 224.1-19.8c-21.4 38.7-40.5 78.7-60.3 120z" />
	<path id="Layer" class="s0" d="m1495.9 0c48.9 0 74.6 27.9 58.2 65.5c-16.5 37.7-66.4 65.5-115.3 65.4c-51.1 0-74.9-27-58.1-65.5c16.4-37.6 66.3-65.4 115.2-65.4z" />
</svg>