<svg version="1.2" xmlns="http://www.w3.org/2000/svg" viewBox="0 0 1563 524" width="1563" height="524">
	<title>logo (2)-svg</title>
	<defs>
		<linearGradient id="g1" x1="1383.4" y1="106" x2="1557.4" y2="24.9" gradientUnits="userSpaceOnUse">
			<stop offset=".5" stop-color="#ed1c24"/>
			<stop offset=".5" stop-color="#f1441d"/>
			<stop offset=".6" stop-color="#f56d15"/>
			<stop offset=".6" stop-color="#f88f0e"/>
			<stop offset=".7" stop-color="#faac09"/>
			<stop offset=".7" stop-color="#fcc205"/>
			<stop offset=".8" stop-color="#fed102"/>
			<stop offset=".9" stop-color="#ffda01"/>
			<stop offset="1" stop-color="#ffdd00"/>
		</linearGradient>
	</defs>
	<style>
		.s0 { fill: #231f20 } 
		.s1 { fill: #007b96 } 
		.s2 { fill: url(#g1) } 
	</style>
	<path id="Layer" fill-rule="evenodd" class="s0" d="m534.9 516.5c-40.4-0.6-86.4-1.3-127.1-1.3c-13.9-0.1-28.9-0.1-43.8-0.1c-7.2-15.7 0.8-32.5 2.8-52.8c-59.2 43.8-121.3 64.8-205.7 61.2c-124.1-5.3-182.6-45.2-153.9-104.1c35.4-72.6 171.6-109.1 412.6-114.2c0.3-0.7 1-2 1.3-2.6c37.7-77.2 8-114.2-68.5-114.3c-79.5 0-148 38-214.9 113.8h-13.9l1.9-103q32.3-8.4 65.1-14.7q32.8-6.4 65.9-10.6q33.1-4.3 66.4-6.4q33.3-2.2 66.7-2.2c94.4 0.1 156.3 15.8 181.3 43.9c28 30.1 21 67.4-4.9 120.4l-14.7 30.1c-45.3 92.8-65.6 134.5-11.1 143zm-147.3-189.6c-108.2 6.4-178.7 31.1-208.1 91.3c-23.3 47.7 1.7 75.4 42.3 76.6c78.5 2.3 129.9-50.3 178.5-149.7l9.9-17.5q-2.8-0.3-5.7-0.5q-2.8-0.1-5.6-0.2q-2.8-0.1-5.6-0.1q-2.8 0-5.7 0.1z" />
	<path id="Layer" class="s0" d="m542.2 507.1c66.6-13 77.9-47.4 114.1-123.3c3.2-6.5 6.6-13.7 10-20.9l43.5-90.9c17.9-28.3 23.6-63.9-25.7-66.6l3.6-9.4c75.7-5.9 156.3-10.3 211.5-20.1l-29.8 70.4c61-56.3 128.5-78.1 212.2-78c135.1 0.1 172.5 47.1 117.6 154.6l-17.5 36.6c-3.4 7.2-6.8 14.4-10 20.9c-36.5 76.5-66 116.1 0 126.1v11.3c-44.7-2-101.3-2.9-145.1-2.9c-37.9 0-82 0.6-132.5 2.5l3.4-7.2c64.3-12.4 85.1-47.7 117.5-115.7q7.1-14.7 15-31.4l14.7-30.7c41.9-87.6 32.4-128.8-40.5-128.9c-71 0-118.8 47.9-157.6 129l-14.7 30.7c-2.5 5.3-5 10.5-7.2 15.1c-39 81.7-55.5 117.5 0.1 129.3l-3.4 10c-44.8-2-115.7-2.9-159.5-2.9c-37.9-0.1-72.6 0.5-123.1 2.4z" />
	<path id="Layer" class="s0" d="m1486.9 294.7l-32.8 68.7c-3.8 7.9-6.8 15.2-10.4 21.6c-57.7 103.8-46.4 111.5 7.6 122.7l-6.5 9.9c-44.8-2-91.4-2.5-135.2-2.5c-37.9-0.1-87.3 0.7-137.9 2.7l3.5-11.3c65.6-13 79.6-44.2 113.6-115.5l12.8-26.8l43.5-90.9c22.2-46.4 17.3-61.4-24.5-67.9l3-10.6c78-6.5 162.6-10.6 223.3-19.7c-21.3 38.6-40.4 78.5-60 119.6z" />
	<path id="Layer" fill-rule="evenodd" class="s1" d="m550.1 516.5c-40.4-0.6-86.4-1.3-127.2-1.3c-13.9-0.1-28.8-0.1-43.7-0.1c-7.2-15.7 0.8-32.5 2.7-52.8c-59.1 43.8-121.3 64.8-205.6 61.2c-124.1-5.3-182.7-45.2-153.9-104.1c35.4-72.6 171.5-109.1 412.6-114.2c0.3-0.7 1-2 1.3-2.6c37.7-77.2 8-114.2-68.5-114.3c-79.5 0-148 38-214.9 113.8h-13.9l1.9-103q32.3-8.4 65.1-14.7q32.7-6.4 65.8-10.6q33.1-4.3 66.5-6.4q33.3-2.2 66.6-2.2c94.4 0.1 156.3 15.8 181.4 43.9c28 30.1 21 67.4-4.9 120.4l-14.7 30.1c-45.3 92.8-65.7 134.5-11.2 143zm-147.2-189.6c-108.2 6.4-178.8 31.1-208.2 91.3c-23.3 47.7 1.8 75.4 42.4 76.6c78.5 2.3 129.9-50.3 178.4-149.7l9.9-17.5q-2.8-0.3-5.6-0.5q-2.8-0.1-5.6-0.2q-2.8-0.1-5.7-0.1q-2.8 0-5.6 0.1z" />
	<path id="Layer" class="s1" d="m557.4 507.1c66.5-13 77.9-47.4 114.1-123.3c3.1-6.5 6.6-13.7 10-20.9l43.4-90.9c18-28.3 23.7-63.9-25.6-66.6l3.5-9.4c75.8-5.9 156.3-10.3 211.6-20.1l-29.8 70.4c60.9-56.3 128.5-78.1 212.1-78c135.2 0.1 172.6 47.1 117.7 154.6l-17.5 36.6c-3.4 7.2-6.9 14.4-10 20.9c-36.5 76.5-66 116.1 0 126.1v11.3c-44.8-2-101.4-2.9-145.1-2.9c-38 0-82 0.6-132.6 2.5l3.5-7.2c64.3-12.4 85-47.7 117.5-115.7q7-14.7 15-31.4l14.7-30.7c41.9-87.6 32.4-128.8-40.6-128.9c-71 0-118.8 47.9-157.5 129l-14.7 30.7c-2.5 5.3-5 10.5-7.2 15.1c-39 81.7-55.5 117.5 0.1 129.3l-3.4 10c-44.8-2-115.7-2.9-159.5-2.9c-37.9-0.1-72.6 0.5-123.1 2.4z" />
	<path id="Layer" class="s1" d="m1502 294.7l-32.8 68.7c-3.7 7.9-6.8 15.2-10.3 21.6c-57.7 103.8-46.4 111.5 7.6 122.7l-6.5 9.9c-44.8-2-91.5-2.5-135.2-2.5c-38-0.1-87.3 0.7-137.9 2.7l3.5-11.3c65.5-13 79.5-44.2 113.6-115.5c4.1-8.5 8.4-17.6 12.8-26.8l43.4-90.9c22.2-46.4 17.4-61.4-24.4-67.9l2.9-10.6c78-6.5 162.6-10.6 223.4-19.7c-21.3 38.6-40.4 78.5-60.1 119.6z" />
	<path id="Layer" class="s0" d="m1481.1 37.7c48.8 0.1 74.4 27.8 58 65.4c-16.4 37.5-66.2 65.2-114.9 65.2c-51-0.1-74.7-27-58-65.3c16.4-37.6 66.2-65.3 114.9-65.3z" />
	<path id="Layer" class="s2" d="m1499.2 0c48.8 0 74.4 27.8 58 65.3c-16.4 37.6-66.2 65.3-114.9 65.3c-51-0.1-74.7-27-58-65.4c16.4-37.5 66.2-65.2 114.9-65.2z" />
</svg>