<svg version="1.2" xmlns="http://www.w3.org/2000/svg" viewBox="0 0 1563 660" width="1563" height="660">
	<title>logo (2)-svg</title>
	<defs>
		<linearGradient id="g1" x1="1383.4" y1="106" x2="1557.4" y2="24.9" gradientUnits="userSpaceOnUse">
			<stop offset=".5" stop-color="#ed1c24"/>
			<stop offset=".5" stop-color="#f1441d"/>
			<stop offset=".6" stop-color="#f56d15"/>
			<stop offset=".6" stop-color="#f88f0e"/>
			<stop offset=".7" stop-color="#faac09"/>
			<stop offset=".7" stop-color="#fcc205"/>
			<stop offset=".8" stop-color="#fed102"/>
			<stop offset=".9" stop-color="#ffda01"/>
			<stop offset="1" stop-color="#ffdd00"/>
		</linearGradient>
	</defs>
	<style>
		.s0 { fill: #231f20 } 
		.s1 { fill: #007b96 } 
		.s2 { fill: url(#g1) } 
	</style>
	<path id="Layer" fill-rule="evenodd" class="s0" d="m36 553.7h9.3q4.4-0.2 8.7-0.2q4.4 0.1 8.8 0.5q4.3 0.4 8.6 1.2q4.3 0.7 8.6 1.7c10.9 3.3 17.1 10.7 17.1 19.4c0 13.9-16.6 23.7-46.2 23.7c-2.6 0-6.2-0.2-10.9-0.4v10.5c0 18.9 0.8 26.9 9.7 29v1.7c-8.3-0.4-15.3-0.4-21.4-0.4c-5.7 0-12.5 0-20.3 0.4v-1.7c9.1-1.9 9.5-10.1 9.5-29v-44.4c0.2-1.2 0.1-2.4-0.2-3.6c-0.3-1.2-0.8-2.3-1.5-3.3c-0.8-0.9-1.7-1.8-2.8-2.4c-1-0.6-2.2-1-3.4-1.1v-1.8c10.3 0.2 19.1 0.2 26.4 0.2zm11.9 41.6c15.5 0 23.8-7 23.8-19c0-12.3-8.6-18.1-26-18.1c-1.6 0-3.5 0.1-5.7 0.3v36q0.9 0.2 1.9 0.3q1 0.2 2 0.3q1 0.1 2 0.1q1 0.1 2 0.1z" />
	<path id="Layer" class="s0" d="m98.3 639.3c8.3-2.7 8.7-10.3 8.7-25.8v-50.6c0-9.4-0.3-13.1-7.1-13.6v-1.5q3.3-0.5 6.6-1q3.4-0.5 6.7-1.1q3.3-0.7 6.6-1.4q3.3-0.7 6.6-1.5c-0.3 5.5-0.6 13.7-0.6 24.5v17c0.9-2.3 2.1-4.5 3.6-6.5c1.6-2 3.4-3.7 5.5-5c2.1-1.4 4.4-2.4 6.8-3.1c2.4-0.7 4.9-0.9 7.4-0.8c18.4 0 27.1 10.9 27.1 32.8v11.8c0 15.6 0.4 23.4 8.7 25.8v1.5c-6.3-0.4-12.4-0.5-18.4-0.5c-5.2 0-11.3 0.1-18.1 0.5v-1.5c8-2.5 8.6-9.9 8.6-23.8v-12.6c0-17.9-4-26.3-14.1-26.3c-9.7 0-16.8 9.7-16.8 26.3v9.4c0 16.7 0.3 24.6 8.7 27v1.5c-6.3-0.4-12.5-0.5-18.5-0.5c-5.2 0-11.2 0.1-18 0.5z" />
	<path id="Layer" fill-rule="evenodd" class="s0" d="m265 640.7c-5.5-0.2-10.9-0.3-16.4-0.3h-5.9q-0.8-1.3-1.5-2.6q-0.7-1.3-1.3-2.7q-0.6-1.4-1-2.8q-0.5-1.4-0.9-2.9c-1 2-2.3 3.9-3.8 5.6c-1.5 1.6-3.3 3-5.3 4.1c-1.9 1.2-4 2-6.2 2.5c-2.2 0.5-4.5 0.7-6.8 0.5c-16.7 0-27.5-9.2-27.5-21.2c0-14.9 15.9-22.4 48-23.5v-0.5c0-15.8-5.6-24-15.9-24c-10.7 0-16.7 7.3-20.7 22.8h-1.9l-6.2-19.9q3.7-1.8 7.6-3.1q3.8-1.3 7.8-2.2q3.9-0.9 8-1.3q4-0.4 8.1-0.4c12.7 0 22 3.2 27.3 9c5.7 6.1 5.7 13.7 5.7 24.6v6.1c0 19 0.9 28.1 8.8 29.9zm-31.7-39.4c-14.4 0-22.2 7-22.2 19.3c0 9.8 4.6 15.7 11.1 15.7c10.6 0 14.2-10.3 14.2-30.7v-4.1q-0.4-0.1-0.8-0.1q-0.3 0-0.7 0q-0.4-0.1-0.8-0.1q-0.4 0-0.8 0z" />
	<path id="Layer" class="s0" d="m268 639.2c8.1-2.7 8.5-9.8 8.5-24.5v-24.1c0-9.5-0.5-13.1-7.5-13.6v-1.7q3.4-0.3 6.8-0.8q3.3-0.5 6.7-1.1q3.3-0.6 6.7-1.3q3.3-0.7 6.6-1.6v16.4q8.2-18.1 22.8-18.1q0.4 0 0.7 0q0.4 0 0.7 0q0.3 0 0.7 0.1q0.3 0 0.6 0l-7.3 21.8h-1.8q-0.4-0.6-1-1.1q-0.6-0.5-1.3-0.9q-0.7-0.3-1.5-0.5q-0.7-0.2-1.5-0.1c-7.1 0-11.1 6.5-11.1 19.1v6.4c0 15.8 0.4 23.3 8.5 25.6v1.6c-6.2-0.4-12.4-0.5-18.4-0.5c-5.2 0-11.1 0.1-17.9 0.5z" />
	<path id="Layer" class="s0" d="m321.6 639.2c8.3-2.6 8.5-10.2 8.5-26.9v-21.7c0-9.5-0.5-13.1-7.4-13.6v-1.7q3.2-0.3 6.4-0.8q3.2-0.5 6.4-1.1q3.2-0.6 6.4-1.3q3.2-0.7 6.3-1.6v15.3c0.8-2.6 2.1-5 3.7-7.2c1.7-2.1 3.6-4 5.9-5.5c2.2-1.6 4.7-2.7 7.3-3.4c2.6-0.8 5.3-1.1 8-0.9c2.5-0.2 5 0 7.4 0.8c2.4 0.7 4.6 1.9 6.5 3.5c2 1.6 3.6 3.5 4.8 5.7c1.2 2.2 2 4.6 2.3 7.1c0.8-2.6 2.1-5 3.7-7.2c1.6-2.1 3.6-4 5.9-5.6c2.2-1.5 4.7-2.6 7.3-3.4c2.6-0.7 5.4-0.9 8.1-0.8c16.7 0 23.1 10.3 23.1 32.8v9.1c0 17.7 0.1 26.1 8.8 28.5v1.5c-6.2-0.4-12.5-0.5-18.5-0.5c-5.3 0-11.3 0.1-18.1 0.5v-1.5c8.3-2.7 8.7-10.2 8.7-24.7v-11.7c0-18.3-3.6-27.2-12.3-27.2c-8.7 0-15.5 10.1-15.5 27.2v9.4c0 16.7 0.2 24.6 8.7 27v1.5c-6.5-0.4-12.5-0.5-18.2-0.5c-5 0-10.9 0.1-17.7 0.5v-1.5c8.3-2.7 8.7-10.2 8.7-24.7v-11.7c0-18.2-3.3-27-12.3-27c-8.5 0-15.2 10.2-15.2 27v9.4c0 16.7 0.2 24.5 8.7 26.9v1.6c-6.3-0.4-12.5-0.5-18.5-0.5c-5.2 0-11.1 0.1-17.9 0.5z" />
	<path id="Layer" fill-rule="evenodd" class="s0" d="m534.3 640.7c-5.4-0.2-10.9-0.3-16.4-0.3h-5.9q-0.8-1.3-1.5-2.6q-0.7-1.3-1.3-2.7q-0.5-1.4-1-2.8q-0.5-1.4-0.9-2.9c-1 2-2.3 3.9-3.8 5.6c-1.5 1.6-3.3 3-5.3 4.1c-1.9 1.2-4 2-6.2 2.5c-2.2 0.5-4.5 0.7-6.7 0.5c-16.8 0-27.6-9.2-27.6-21.2c0-14.9 15.9-22.4 48-23.5v-0.5c0-15.8-5.6-24-15.9-24c-10.7 0-16.7 7.3-20.7 22.8h-1.9l-6.1-19.9q3.6-1.8 7.5-3.1q3.8-1.3 7.8-2.2q3.9-0.9 8-1.3q4-0.4 8.1-0.4c12.7 0 22.1 3.2 27.3 9c5.7 6.1 5.7 13.7 5.7 24.6v6.1c0 19 1 28.1 8.8 29.9zm-31.7-39.4c-14.4 0-22.2 7-22.2 19.3c0 9.8 4.6 15.7 11.2 15.7c10.5 0 14.1-10.3 14.1-30.7v-4.1q-0.4-0.1-0.7-0.1q-0.4 0-0.8 0q-0.4-0.1-0.8-0.1q-0.4 0-0.8 0z" />
	<path id="Layer" class="s0" d="m602 596.9h-1.6c-1.3-15.9-8-24.2-19-24.2c-13 0-21 11.2-21 32.4c0 20.2 9.4 31.9 23.2 31.9c9.2 0 16.5-6 21.1-17.5l3.7 3c-1 3-2.5 5.9-4.4 8.4c-2 2.6-4.3 4.8-7 6.6c-2.7 1.8-5.6 3.1-8.7 4c-3.1 0.8-6.4 1.1-9.6 0.9c-23.4 0-39.1-15-39.1-36.5c0-22.3 15.3-37.1 39.1-37.1q3.9 0 7.8 0.5q3.8 0.5 7.6 1.5q3.8 1 7.4 2.5q3.6 1.4 6.9 3.4z" />
	<path id="Layer" fill-rule="evenodd" class="s0" d="m639.7 597.2c-0.1 2.2-0.3 4.4-0.3 6.4c0 20.6 9 32.1 23 32.1c12.1 0 20.6-8.4 24.9-24.6l3.6 3.2c-5.5 18.6-17.2 27.8-35.4 27.8c-22.9 0-38.3-15.2-38.3-36.9c-0.1-4.9 0.8-9.8 2.6-14.4c1.9-4.5 4.7-8.7 8.2-12.1c3.6-3.4 7.8-6.1 12.4-7.8c4.6-1.7 9.5-2.4 14.4-2.1c19.8 0 32.5 10.2 35.1 28.4zm14.5-24.3c-7.2 0-12.7 6.7-14.4 19.4h27.3c-0.4-12.4-5.6-19.4-12.9-19.4z" />
	<path id="Layer" class="s0" d="m696 577.1v-1.6q3.4-0.4 6.7-0.9q3.4-0.4 6.7-1q3.3-0.6 6.6-1.4q3.3-0.7 6.6-1.5v37.4c0 18 4 26.4 14.1 26.4c9.7 0 16.7-9.8 16.7-26.4v-17.5c0-9.5-0.6-13-7.5-13.5v-1.6q3.4-0.4 6.8-1q3.4-0.5 6.8-1.1q3.4-0.6 6.8-1.3q3.4-0.7 6.7-1.4c-0.2 9.5-0.2 15.1-0.2 16.6v21.2c0 19 0.9 28.1 8.8 29.9v2.3c-5.5-0.2-11.4-0.3-17.7-0.3h-6.9q-0.5-1.5-0.9-3q-0.4-1.5-0.8-3.1q-0.3-1.5-0.7-3q-0.3-1.5-0.6-3.1c-1 2.3-2.3 4.3-4 6.2c-1.6 1.8-3.5 3.4-5.6 4.6c-2.1 1.3-4.4 2.2-6.8 2.7c-2.4 0.6-4.9 0.8-7.4 0.6c-17.9 0-26.7-10.9-26.7-32.8v-18.9c0-9.5-0.5-13-7.5-13.5z" />
	<path id="Layer" class="s0" d="m822.8 639.1v1.6h0.4c0 0-7.9-0.2-23.6-0.3c-4.5-2.2-5-9-5-20.9v-9.6l0.2-32.4h-7.5l0.7-3.9q3.9-1.9 7.4-4.3q3.5-2.5 6.6-5.5q3-3 5.6-6.4q2.6-3.4 4.6-7.2h2.1c-0.3 4.1-0.6 9.9-0.6 17v4.7h15.4l-1.6 5.6h-13.8v30.4c0 19.4 0.8 28.7 9.1 31.2z" />
	<path id="Layer" class="s0" d="m865.2 595.2v18.4c0 15.8 0.5 23.3 8.6 25.6v1.6c-6.3-0.4-12.4-0.5-18.4-0.5c-5.3 0-11.1 0.1-18 0.5v-1.6c8.2-2.7 8.6-9.9 8.6-24.5v-24.1c0-9.5-0.5-13.1-7.5-13.6v-1.7q3.4-0.4 6.8-0.9q3.4-0.5 6.8-1q3.4-0.6 6.8-1.3q3.4-0.7 6.8-1.4c-0.5 7.9-0.5 16-0.5 24.5zm-9.8-52.4c2.7 0.1 5.4 1.3 7.4 3.3c1.9 2 3 4.6 3 7.4c0 2.8-1.1 5.5-3 7.5c-2 2-4.7 3.2-7.4 3.2c-1.5 0.1-2.9-0.2-4.2-0.7c-1.3-0.5-2.4-1.3-3.4-2.3c-1-1-1.8-2.2-2.3-3.5c-0.4-1.4-0.7-2.8-0.6-4.2c0-1.4 0.2-2.8 0.7-4.1c0.5-1.3 1.3-2.4 2.3-3.4c0.9-1.1 2.1-1.8 3.4-2.4c1.3-0.5 2.7-0.8 4.1-0.8z" />
	<path id="Layer" class="s0" d="m942.4 596.9h-1.6c-1.3-15.9-8-24.2-19-24.2c-13 0-21 11.2-21 32.4c0 20.2 9.4 31.9 23.2 31.9c9.2 0 16.5-6 21.1-17.5l3.7 3c-1 3-2.5 5.9-4.4 8.4c-2 2.6-4.3 4.8-7 6.6c-2.7 1.8-5.6 3.1-8.7 4c-3.1 0.8-6.3 1.1-9.6 0.9c-23.4 0-39.1-15-39.1-36.5c0-22.3 15.3-37.1 39.1-37.1q3.9 0 7.8 0.5q3.8 0.5 7.6 1.5q3.8 1 7.4 2.5q3.6 1.4 6.9 3.4z" />
	<path id="Layer" fill-rule="evenodd" class="s0" d="m1033.2 640.7c-5.5-0.2-11-0.3-16.4-0.3h-5.9q-0.8-1.3-1.5-2.6q-0.7-1.3-1.3-2.7q-0.6-1.4-1.1-2.8q-0.4-1.4-0.8-2.9c-1 2-2.3 3.9-3.8 5.6c-1.6 1.6-3.3 3-5.3 4.1c-2 1.2-4.1 2-6.3 2.5c-2.2 0.5-4.4 0.7-6.7 0.5c-16.7 0-27.5-9.2-27.5-21.2c0-14.9 15.9-22.4 48-23.5v-0.5c0-15.8-5.6-24-15.9-24c-10.7 0-16.7 7.3-20.7 22.8h-1.9l-6.2-19.9q3.7-1.8 7.5-3.1q3.9-1.3 7.8-2.2q4-0.9 8-1.3q4.1-0.4 8.1-0.4c12.8 0 22.1 3.2 27.3 9c5.8 6.1 5.8 13.7 5.8 24.6v6.1c0 19 0.9 28.1 8.8 29.9zm-31.7-39.4c-14.4 0-22.2 7-22.2 19.3c0 9.8 4.6 15.7 11.1 15.7c10.6 0 14.2-10.3 14.2-30.7v-4.1q-0.4-0.1-0.8-0.1q-0.4 0-0.7 0q-0.4-0.1-0.8-0.1q-0.4 0-0.8 0z" />
	<path id="Layer" class="s0" d="m1042.8 549.1v-1.5q3.4-0.4 6.8-0.9q3.4-0.5 6.8-1.1q3.4-0.6 6.8-1.3q3.4-0.7 6.7-1.5q-0.4 8.3-0.4 24.5v46.3c0 15.8 0.4 23.3 8.6 25.6v1.6c-6.3-0.4-12.4-0.5-18.5-0.5c-5.2 0-11.1 0.1-17.9 0.5v-1.6c8.2-2.7 8.6-9.8 8.6-24.5v-51.9c0-9.5-0.6-13.2-7.5-13.7z" />
	<path id="Layer" class="s0" d="m1089.6 612.8l1.9 0.3c2.8 16.4 10.7 24.9 22.4 24.9c9.3 0 15.8-5.5 15.8-13.1c0-7.8-5.9-9.7-17.6-12.6c-17-4.3-25.2-8.2-25.2-21c0-12.5 12.3-22.4 33-22.4q3.5 0 7 0.4q3.5 0.3 6.9 1.1q3.4 0.7 6.7 1.8q3.3 1.1 6.5 2.6l-6.2 18.2l-1.7-0.1c-3.8-13.1-11.5-20.1-20.8-20.1c-1.6-0.1-3.2 0.1-4.8 0.7c-1.5 0.5-3 1.3-4.2 2.4c-1.2 1.1-2.2 2.4-2.9 3.9c-0.8 1.4-1.2 3-1.3 4.7c0 9.2 7.2 9.5 20.1 12.4c16.7 3.7 24.8 8.3 24.8 20.9c0 14.8-13.3 24.5-36.6 24.5q-4.1 0-8.1-0.5q-4-0.4-8-1.4q-3.9-0.9-7.8-2.3q-3.8-1.4-7.4-3.2z" />
	<path id="Layer" class="s0" d="m1170.5 657.9q1.2-1.7 2.2-3.6q1-1.9 1.7-3.9q0.7-2.1 1.1-4.2q0.5-2.1 0.6-4.2c-7.5-0.4-11-3.6-11-9.9c-0.1-1.4 0-2.9 0.5-4.3c0.4-1.3 1.2-2.6 2.2-3.6c1-1.1 2.2-1.9 3.5-2.4c1.4-0.5 2.8-0.8 4.2-0.7c6.9 0 11.4 5.2 11.4 14.1c0 7.5-4.7 15.8-14.2 24.7z" />
	<path id="Layer" class="s0" d="m1261.4 639.1v1.7c-8.7-0.4-16.1-0.4-22.1-0.4c-5.7 0-12.7 0-20.7 0.4v-1.7c9.5-2.1 9.9-10.1 9.9-29v-44.7c0.2-1.2 0.1-2.4-0.2-3.6c-0.4-1.2-0.9-2.3-1.7-3.3c-0.7-1-1.7-1.8-2.8-2.4c-1.1-0.6-2.2-1-3.5-1.1v-1.9c6.8 0.4 13.3 0.6 19 0.6c6.2 0 12.9-0.2 20.3-0.6v1.9c-1.2 0.1-2.4 0.5-3.5 1.1c-1.1 0.5-2.1 1.4-2.9 2.3c-0.7 1-1.3 2.1-1.6 3.3c-0.4 1.2-0.4 2.5-0.3 3.7v44.7c0 19 0.7 26.8 10.1 29z" />
	<path id="Layer" class="s0" d="m1264.5 639.3c8.2-2.7 8.6-10.3 8.6-25.8v-22.9c0-9.5-0.5-13.1-7.4-13.6v-1.5q3.2-0.4 6.4-0.8q3.2-0.5 6.4-1.1q3.2-0.6 6.4-1.4q3.2-0.7 6.3-1.5v15.2c0.8-2.5 2-4.9 3.5-7c1.6-2.2 3.5-4 5.6-5.6c2.2-1.5 4.6-2.7 7.1-3.4c2.6-0.8 5.2-1.1 7.9-1c18.6 0 27.1 10.7 27.1 32.8v11.8c0 15.6 0.4 23.4 8.7 25.8v1.5c-6.3-0.4-12.4-0.5-18.5-0.5c-5.2 0-11.2 0.1-18 0.5v-1.5c8-2.5 8.6-9.8 8.6-23.7v-12.7c0-17.9-4.1-26.4-14.1-26.4c-9.8 0-16.8 9.8-16.8 26.4v9.4c0 16.7 0.2 24.6 8.7 27v1.5c-6.3-0.4-12.5-0.5-18.5-0.5c-5.2 0-11.2 0.1-18 0.5z" />
	<path id="Layer" class="s0" d="m1418.4 596.9h-1.6c-1.4-15.9-8.1-24.2-19-24.2c-13 0-21 11.2-21 32.4c0 20.2 9.3 31.9 23.1 31.9c9.2 0 16.6-6 21.1-17.5l3.8 3c-1 3-2.5 5.9-4.5 8.4c-1.9 2.6-4.3 4.8-7 6.6c-2.6 1.8-5.6 3.1-8.7 4c-3.1 0.8-6.3 1.1-9.5 0.9c-23.4 0-39.2-15-39.2-36.5c0-22.3 15.4-37.1 39.2-37.1q3.9 0 7.7 0.5q3.9 0.5 7.7 1.5q3.7 1 7.3 2.5q3.6 1.4 7 3.4z" />
	<path id="Layer" class="s0" d="m1452.4 621.1c1.4 0 2.8 0.3 4 0.8c1.3 0.5 2.5 1.3 3.5 2.2c1 1 1.7 2.2 2.3 3.4c0.5 1.3 0.8 2.7 0.8 4.1c0 1.4-0.3 2.7-0.8 4c-0.5 1.3-1.3 2.5-2.3 3.5c-1 1-2.1 1.8-3.4 2.3c-1.3 0.6-2.7 0.8-4.1 0.9c-1.4 0-2.8-0.3-4-0.9c-1.3-0.5-2.5-1.3-3.5-2.3c-0.9-1-1.7-2.2-2.2-3.5c-0.5-1.3-0.8-2.7-0.7-4c0-1.4 0.2-2.8 0.7-4.1c0.6-1.2 1.3-2.4 2.3-3.4c1-0.9 2.1-1.7 3.4-2.2c1.3-0.5 2.6-0.8 4-0.8z" />
	<path id="Layer" fill-rule="evenodd" class="s0" d="m534.9 516.5c-40.4-0.6-86.4-1.3-127.1-1.3c-13.9-0.1-28.9-0.1-43.8-0.1c-7.2-15.7 0.8-32.5 2.8-52.8c-59.2 43.8-121.3 64.8-205.7 61.2c-124.1-5.3-182.6-45.2-153.9-104.1c35.4-72.6 171.6-109.1 412.6-114.2c0.3-0.7 1-2 1.3-2.6c37.7-77.2 8-114.2-68.5-114.3c-79.5 0-148 38-214.9 113.8h-13.9l1.9-103q32.3-8.4 65.1-14.7q32.8-6.4 65.9-10.6q33.1-4.3 66.4-6.4q33.3-2.2 66.7-2.2c94.4 0.1 156.3 15.8 181.3 43.9c28 30.1 21 67.4-4.9 120.4l-14.7 30.1c-45.3 92.8-65.6 134.5-11.1 143zm-147.3-189.6c-108.2 6.4-178.7 31.1-208.1 91.3c-23.3 47.7 1.7 75.4 42.3 76.6c78.5 2.3 129.9-50.3 178.5-149.7l9.9-17.5q-2.8-0.3-5.7-0.5q-2.8-0.1-5.6-0.2q-2.8-0.1-5.6-0.1q-2.8 0-5.7 0.1z" />
	<path id="Layer" class="s0" d="m542.2 507.1c66.6-13 77.9-47.4 114.1-123.3c3.2-6.5 6.6-13.7 10-20.9l43.5-90.9c17.9-28.3 23.6-63.9-25.7-66.6l3.6-9.4c75.7-5.9 156.3-10.3 211.5-20.1l-29.8 70.4c61-56.3 128.5-78.1 212.2-78c135.1 0.1 172.5 47.1 117.6 154.6l-17.5 36.6c-3.4 7.2-6.8 14.4-10 20.9c-36.5 76.5-66 116.1 0 126.1v11.3c-44.7-2-101.3-2.9-145.1-2.9c-37.9 0-82 0.6-132.5 2.5l3.4-7.2c64.3-12.4 85.1-47.7 117.5-115.7q7.1-14.7 15-31.4l14.7-30.7c41.9-87.6 32.4-128.8-40.5-128.9c-71 0-118.8 47.9-157.6 129l-14.7 30.7c-2.5 5.3-5 10.5-7.2 15.1c-39 81.7-55.5 117.5 0.1 129.3l-3.4 10c-44.8-2-115.7-2.9-159.5-2.9c-37.9-0.1-72.6 0.5-123.1 2.4z" />
	<path id="Layer" class="s0" d="m1486.9 294.7l-32.8 68.7c-3.8 7.9-6.8 15.2-10.4 21.6c-57.7 103.8-46.4 111.5 7.6 122.7l-6.5 9.9c-44.8-2-91.4-2.5-135.2-2.5c-37.9-0.1-87.3 0.7-137.9 2.7l3.5-11.3c65.6-13 79.6-44.2 113.6-115.5l12.8-26.8l43.5-90.9c22.2-46.4 17.3-61.4-24.5-67.9l3-10.6c78-6.5 162.6-10.6 223.3-19.7c-21.3 38.6-40.4 78.5-60 119.6z" />
	<path id="Layer" fill-rule="evenodd" class="s1" d="m550.1 516.5c-40.4-0.6-86.4-1.3-127.2-1.3c-13.9-0.1-28.8-0.1-43.7-0.1c-7.2-15.7 0.8-32.5 2.7-52.8c-59.1 43.8-121.3 64.8-205.6 61.2c-124.1-5.3-182.7-45.2-153.9-104.1c35.4-72.6 171.5-109.1 412.6-114.2c0.3-0.7 1-2 1.3-2.6c37.7-77.2 8-114.2-68.5-114.3c-79.5 0-148 38-214.9 113.8h-13.9l1.9-103q32.3-8.4 65.1-14.7q32.7-6.4 65.8-10.6q33.1-4.3 66.5-6.4q33.3-2.2 66.6-2.2c94.4 0.1 156.3 15.8 181.4 43.9c28 30.1 21 67.4-4.9 120.4l-14.7 30.1c-45.3 92.8-65.7 134.5-11.2 143zm-147.2-189.6c-108.2 6.4-178.8 31.1-208.2 91.3c-23.3 47.7 1.8 75.4 42.4 76.6c78.5 2.3 129.9-50.3 178.4-149.7l9.9-17.5q-2.8-0.3-5.6-0.5q-2.8-0.1-5.6-0.2q-2.8-0.1-5.7-0.1q-2.8 0-5.6 0.1z" />
	<path id="Layer" class="s1" d="m557.4 507.1c66.5-13 77.9-47.4 114.1-123.3c3.1-6.5 6.6-13.7 10-20.9l43.4-90.9c18-28.3 23.7-63.9-25.6-66.6l3.5-9.4c75.8-5.9 156.3-10.3 211.6-20.1l-29.8 70.4c60.9-56.3 128.5-78.1 212.1-78c135.2 0.1 172.6 47.1 117.7 154.6l-17.5 36.6c-3.4 7.2-6.9 14.4-10 20.9c-36.5 76.5-66 116.1 0 126.1v11.3c-44.8-2-101.4-2.9-145.1-2.9c-38 0-82 0.6-132.6 2.5l3.5-7.2c64.3-12.4 85-47.7 117.5-115.7q7-14.7 15-31.4l14.7-30.7c41.9-87.6 32.4-128.8-40.6-128.9c-71 0-118.8 47.9-157.5 129l-14.7 30.7c-2.5 5.3-5 10.5-7.2 15.1c-39 81.7-55.5 117.5 0.1 129.3l-3.4 10c-44.8-2-115.7-2.9-159.5-2.9c-37.9-0.1-72.6 0.5-123.1 2.4z" />
	<path id="Layer" class="s1" d="m1502 294.7l-32.8 68.7c-3.7 7.9-6.8 15.2-10.3 21.6c-57.7 103.8-46.4 111.5 7.6 122.7l-6.5 9.9c-44.8-2-91.5-2.5-135.2-2.5c-38-0.1-87.3 0.7-137.9 2.7l3.5-11.3c65.5-13 79.5-44.2 113.6-115.5c4.1-8.5 8.4-17.6 12.8-26.8l43.4-90.9c22.2-46.4 17.4-61.4-24.4-67.9l2.9-10.6c78-6.5 162.6-10.6 223.4-19.7c-21.3 38.6-40.4 78.5-60.1 119.6z" />
	<path id="Layer" class="s0" d="m1481.1 37.7c48.8 0.1 74.4 27.8 58 65.4c-16.4 37.5-66.2 65.2-114.9 65.2c-51-0.1-74.7-27-58-65.3c16.4-37.6 66.2-65.3 114.9-65.3z" />
	<path id="Layer" class="s2" d="m1499.2 0c48.8 0 74.4 27.8 58 65.3c-16.4 37.6-66.2 65.3-114.9 65.3c-51-0.1-74.7-27-58-65.4c16.4-37.5 66.2-65.2 114.9-65.2z" />
</svg>