<svg version="1.2" xmlns="http://www.w3.org/2000/svg" viewBox="0 0 1336 1417" width="1336" height="1417">
	<title>Ansell_logo-svg</title>
	<style>
		.s0 { fill: #0061ad } 
		.s1 { fill: #00a494 } 
	</style>
	<g id="Layer">
		<path id="Layer" fill-rule="evenodd" class="s0" d="m535 0.1h259.5l347.2 1135.2-251.6-5.2-84.5-271h-324.6l-77.1 276.2h-236.7zm120.3 254.4l-115.1 413.3h220.2z"/>
		<path id="Layer" fill-rule="evenodd" class="s1" d="m180.2 1282c122.2-34.9 240.6-55.9 359.6-46.2 84.1 6.8 173.9 21.8 262.9 31.5 66.5 6.9 148.9 19.6 223.4 20.5l90.5-2.9c76.1-11 154.6-38.8 214.1-64.4q2.6 10.3 5.3 20.5l-81.1 64.4c-89.7 70.6-182.9 87.8-283.3 96.6-120.1 5.4-237.7-14.2-355.1-29.3-180-19.6-395.4-81.9-573.3 20.5l-37.2 23.4c-35.8-71.5 130.7-119.7 174.2-134.6z"/>
	</g>
</svg>