<svg version="1.2" xmlns="http://www.w3.org/2000/svg" viewBox="0 0 1391 1535" width="1391" height="1535">
	<title>logo-main-svg</title>
	<style>
		.s0 { fill: #d7282f } 
	</style>
	<g id="Layer_2">
		<g id="logo">
			<path id="Layer" fill-rule="evenodd" class="s0" d="m979.6 1100.7h-568.4l-126.8 433.9h-284.4l459.9-1460.2c2.4-11.1 6.8-21.6 13-31.1 6.1-9.5 13.9-17.8 23.1-24.5 9.1-6.7 19.3-11.6 30.2-14.7 10.9-3 22.3-4 33.5-3h270.9c11.3-1.1 22.7-0.1 33.7 2.9 10.9 3 21.2 8 30.4 14.7 9.2 6.7 17 15 23.2 24.5 6.2 9.5 10.6 20.1 13 31.2l459.9 1459.8h-282zm-66.5-229l-153.3-530.4c-20.7-80-31.8-121.9-33.3-128.2h-60.2l-35.2 130.2-153.3 530.3z"/>
		</g>
	</g>
</svg>