<svg version="1.2" baseProfile="tiny-ps" xmlns="http://www.w3.org/2000/svg" viewBox="0 0 1600 580" width="1600" height="580">
	<title>sphere-logo-white-svg</title>
	<style>
		tspan { white-space:pre }
		.shp0 { fill: #ffffff } 
	</style>
	<g id="#ffffffff">
		<path id="Layer" class="shp0" d="M449.92 0L470.52 0C490.52 3.04 509.4 14.36 519.84 31.92C541.64 65.32 526.68 115.04 490.08 130.8C453.28 149.12 403.92 126.28 394.68 86.08C383.76 48.04 411 6.12 449.92 0Z" />
		<path id="Layer" class="shp0" d="M64.2 176.36C104.96 131.96 163.52 104.6 223.6 100.8C291.68 95.68 361.56 121.8 409.28 170.68C449.4 209.6 474.28 263.56 478.84 319.24C485.48 388.84 459.72 460.88 409.72 509.88C370.08 550.64 315.2 575.32 258.72 580L220.04 580C158.08 575 98.72 544.96 58.12 497.88C24.8 459.6 4.24 410.56 0 359.96L0 322.52C3.84 268.32 26.72 215.76 64.2 176.36Z" />
		<path id="Layer" class="shp0" d="M555.8 267.4C575.88 254.28 601.6 253.28 624.6 257.24C640.36 260.08 653.36 270.68 662.48 283.48C659.68 285.2 654.04 288.68 651.24 290.44C643.32 278.8 630.8 270.44 616.64 269.04C597.96 266.52 576.04 267.8 561.32 281C549.2 290.48 549.72 312.36 564.04 319.52C591.68 334.28 626.32 329.2 652.56 347.44C675.48 364.24 669.92 404.6 643.92 415.64C607.44 432.52 554.16 426.6 533.56 388.24C536.52 386.76 542.48 383.76 545.44 382.24C563.68 410.76 603.72 419.04 633.68 405.8C647.32 399.96 657.56 383.92 651.6 369.24C645.4 353.2 626.48 349.28 611.56 345.88C590.56 340.8 567.12 339.88 549.6 325.88C532.08 310.56 536.76 279.48 555.8 267.4Z" />
		<path id="Layer" class="shp0" d="M1328.52 261C1355.72 251.8 1389.44 252.32 1412.4 271.44C1433.4 288.68 1430.76 327.56 1404 337.8C1434.56 345.8 1438.4 389.2 1415.72 407.76C1392.64 426.44 1359.52 427.24 1331.88 420C1311.36 415.04 1294.96 396.68 1295.36 375.04C1304.08 375 1312.84 375 1321.6 374.96C1324.12 385.72 1332.48 394 1343.24 396.64C1361.44 401.4 1384.52 400.84 1397.84 385.68C1406.2 375.36 1400.92 359.76 1389.6 354.2C1373.36 346 1354.48 349.84 1337 349.04C1337 341.32 1337 333.64 1337 325.96C1356.28 324.8 1379.92 330.92 1395 315.44C1406.2 303.56 1394.56 285.2 1380.68 282.24C1360.8 276.8 1329.6 278.16 1324.12 302.96C1315.28 303 1306.48 303 1297.72 303.04C1298 284.12 1310.4 266.8 1328.52 261Z" />
		<path id="Layer" fill-rule="evenodd" class="shp0" d="M1456 258C1481.64 258.48 1507.36 257.04 1532.96 258.6C1568.96 261.8 1597.92 293.84 1600 329.52L1600 350.64C1597.68 382.08 1575.32 411.44 1544.16 418.72C1515.24 425.16 1485.32 420.72 1456 422C1456 367.32 1456 312.64 1456 258ZM1483 284C1483 321.32 1483 358.64 1483 395.96C1504.84 395.12 1528.8 399.64 1548.6 387.88C1581.64 367.6 1581.64 311.48 1548.24 291.48C1528.64 279.32 1504.68 285.44 1483 284Z" />
		<path id="Layer" class="shp0" d="M830 422C830 367.32 830 312.68 830 258C833 258 839 258 842 258C841.84 280 842.48 302.04 841.56 324.04C858.44 301.28 894.76 297.04 916.44 315.24C926.6 324.32 931.16 338.36 931.04 351.76C931 375.2 931 398.6 930.96 422.04C927.96 422.04 922 422 919 422C918.92 398.76 919.12 375.56 918.96 352.32C919.08 339.08 912.96 324.8 900.12 319.4C877.2 308.4 846.92 323.56 843.08 348.96C840.52 373.16 842.76 397.68 842 422C839 422 833 422 830 422Z" />
		<path id="Layer" fill-rule="evenodd" class="shp0" d="M701.6 330C716.76 305.84 749.96 297.24 775.36 309.6C815.56 326.96 818.32 391.4 782.52 414.76C756.28 431.84 716.04 425.52 700.72 396.72C701.36 423.8 700.84 450.88 701 478C698 478 692 478.04 689.04 478.04C689 420.68 689 363.32 689.04 305.96C692.28 305.96 698.84 306 702.12 306.04C702.04 314 701.96 322 701.6 330ZM733.76 318.32C704.76 327.04 693.6 365.2 709.24 389.96C722.6 413.68 757.48 419.12 778.28 402.28C796.92 386.56 799.84 356.68 787.52 336.28C776.96 318.32 752.84 312.16 733.76 318.32Z" />
		<path id="Layer" fill-rule="evenodd" class="shp0" d="M977.88 313.36C1002.68 297.32 1040.8 301.12 1058.92 325.44C1067.8 338.44 1070.04 354.64 1068.48 370.04C1033.72 370.08 998.92 369.8 964.16 370.2C966.84 383.24 972.6 396.48 984.36 403.76C1005.88 417.96 1035.6 411.24 1053.44 394.04C1056.24 396.76 1059.04 399.52 1061.84 402.32C1039.96 425.12 1001.48 431.76 975.2 412.84C942.6 390.24 944.32 334.32 977.88 313.36ZM973.6 334.04C968.12 341.16 966.28 350.16 964.08 358.68C995.4 359 1026.72 359.56 1058.04 358.4C1055.72 348.24 1054.24 337.04 1046.64 329.16C1027.4 309.16 989.56 310.6 973.6 334.04Z" />
		<path id="Layer" class="shp0" d="M1102.16 322.8C1116.04 302.48 1145.16 300 1165.6 311.2C1164.04 313.8 1160.92 319 1159.4 321.6C1137.08 307.44 1105.44 322.96 1102.32 348.96C1101.48 373.28 1102.28 397.68 1102 422C1099 422 1093 422 1090 422C1089.96 383.32 1090 344.68 1090 306C1092.68 306 1098.04 306 1100.72 306C1101.2 311.6 1101.68 317.2 1102.16 322.8Z" />
		<path id="Layer" fill-rule="evenodd" class="shp0" d="M1190.4 314.32C1213.96 298.04 1250 300.36 1269.76 321.64C1281.28 334.72 1283.92 352.92 1282.84 369.76C1247.96 370.4 1213.04 369.68 1178.16 370.12C1180.72 383.76 1187.2 397.4 1199.64 404.6C1221.16 417.76 1249.76 410.8 1267.4 394.16C1269.48 396.04 1273.72 399.8 1275.8 401.64C1254.4 425.92 1214.16 431.84 1188 411.96C1157.08 389.16 1158.68 335.68 1190.4 314.32ZM1188.6 332.64C1182.4 340.08 1180.24 349.68 1178.24 358.88C1209.48 358.92 1240.72 359.4 1271.92 358.6C1269.72 347.96 1268.08 336.32 1259.88 328.36C1240.8 309.64 1204.84 310.72 1188.6 332.64Z" />
	</g>
</svg>