<svg version="1.2" xmlns="http://www.w3.org/2000/svg" viewBox="0 0 1318 1536" width="1318" height="1536">
	<title>artivion-svg</title>
	<style>
		.s0 { fill: #004976 } 
	</style>
	<path id="Layer" class="s0" d="m659.9 0.4c58.2 0 109 33.6 136 104.7l508.6 1270.3c6.5 18 13.1 40.1 13.1 58.1 0 59.7-46.7 102.2-104.9 102.2-49.1 0-82.7-22.1-107.2-84.2l-446.4-1160.8-446.3 1160.8c-24.6 62.1-58.1 84.2-107.3 84.2-58.1 0-104.8-41.7-104.8-102.2 0-18 6.5-40.1 13.1-58.1l508.6-1270.3c27-71.1 77.8-104.7 135.9-104.7z"/>
	<g id="Layer">
	</g>
</svg>