<svg version="1.2" xmlns="http://www.w3.org/2000/svg" viewBox="0 0 1513 646" width="1513" height="646">
	<title>logo-color (1)-svg</title>
	<style>
		.s0 { fill: #2a3e6d } 
		.s1 { fill: #d50032 } 
	</style>
	<path id="Layer" fill-rule="evenodd" class="s0" d="m1308.7 225.1c0 151.7-117.3 232.5-277.7 232.5h-138.9v188.3h-156v-645.8h305.7c163.6 0 266.9 84 266.9 225zm-274.5-90.4h-142.1v193.7h143.2c72.1 0 111.9-32.3 111.9-96.8 0.1-62.5-40.8-96.9-113-96.9zm-685.4 132.4l-48.5 114-122.7 264.8h-177.6l338.9-645.8h28l335.9 645.8h-174.3l-123.9-264.8-49.5-114zm1007.7-74.3h156.1v453.1h-156.1z"/>
	<path id="Layer" class="s1" d="m1434.4 155.7c-43.1 0-77.9-34.8-77.9-77.8 0-43.1 34.8-77.9 77.9-77.9 43.1 0 77.9 34.8 77.9 77.9 0 43-34.8 77.8-77.9 77.8zm-1083 490.2c-43 0-77.8-34.8-77.8-77.9 0-43.1 34.8-77.9 77.8-77.9 43.1 0 77.9 34.8 77.9 77.9 0 43.1-34.8 77.9-77.9 77.9z"/>
</svg>