<svg version="1.2" xmlns="http://www.w3.org/2000/svg" viewBox="0 0 1259 1533" width="1259" height="1533">
	<title>ahreit-rgb-rev-logo-svg</title>
	<style>
		.s0 { fill: #bdcc31 } 
		.s1 { fill: #d92231 } 
		.s2 { fill: #db2233 } 
	</style>
	<g id="Layer">
		<g id="Layer">
			<path id="Layer" class="s0" d="m786.7 526.5c0 0 50.8-98.1-145.3-243.3-181.5-138 43.6-283.2 43.6-283.2 0 0-18.1 119.8 87.2 232.4 130.7 137.9 14.5 294.1 14.5 294.1z"/>
			<g id="Layer">
				<path id="Layer" class="s1" d="m884.7 551.9c152.5 7.2 294.1 130.7 348.6 290.4-94.4-141.6-239.7-236-348.6-290.4z"/>
				<path id="Layer" class="s1" d="m637.8 1524.9c-65.3-14.5-123.4-47.2-163.4-112.6-32.6-50.8-87.1-83.5-159.7-68.9-108.9 21.7-199.7-58.1-254.2-181.6 203.3 90.8 421.2 225.1 577.3 363.1z"/>
				<path id="Layer" class="s2" d="m772.2 570c21.7-7.2 43.5-10.9 65.3-14.5 217.8 145.2 374 305 421.2 428.4 0 18.2 0 36.3-3.7 54.5-159.7-352.2-845.9-580.9-845.9-580.9 377.6 159.7 827.8 490.1 813.3 700.7v3.6c0 3.7-3.7 7.3-3.7 10.9-127-370.3-860.5-617.2-860.5-617.2 370.4 159.7 817 486.5 809.7 697.1-3.6 3.6-3.6 7.3-7.3 10.9-134.3-370.3-860.4-610-860.4-610 355.8 152.5 780.6 457.5 809.6 668.1-3.6 7.2-10.9 10.9-14.5 18.1-152.5-355.8-849.6-588.1-849.6-588.1 334 145.2 733.4 424.7 802.4 631.7-7.3 7.3-14.5 14.5-25.4 18.1-181.6-334-831.5-551.8-831.5-551.8 312.3 134.3 679 384.8 780.6 588.2-10.9 7.2-21.7 14.5-32.6 18.1-210.6-308.6-806.1-508.3-806.1-508.3 286.9 123.5 617.3 344.9 751.6 537.4-14.5 7.2-29 10.8-39.9 18.1-239.7-279.6-762.5-453.8-762.5-453.8 254.2 108.9 544.6 297.7 700.7 472-21.7 3.6-39.9 7.2-61.7 10.9-217.8-199.7-562.7-337.7-664.4-374-69-159.8-79.9-381.2-3.6-544.6 152.5-323.1 588.1-377.6 718.9-43.6z"/>
			</g>
		</g>
	</g>
</svg>