<svg version="1.2" baseProfile="tiny-ps" xmlns="http://www.w3.org/2000/svg" viewBox="0 0 1560 282" width="1560" height="282">
	<title>applovin-svg</title>
	<style>
		tspan { white-space:pre }
		.shp0 { fill: #ffffff } 
	</style>
	<g id="logo-layer">
		<g id="Logo_Main">
			<path id="Layer" fill-rule="evenodd" class="shp0" d="M539.69 227.5L527.51 191.85L460.78 191.85C458.98 197.26 457.18 203.56 454.92 209.9L449.51 227.5L417.05 227.5L477.02 61.39L511.73 61.39L569.89 227.5L539.69 227.5ZM493.7 97.5C489.64 108.78 485.58 119.63 481.97 130.45C478.37 141.28 474.31 152.15 469.8 164.29L517.59 164.29L493.7 97.5ZM666.83 61.84C700.2 62.3 716.43 76.29 716.43 105.18L716.43 128.65C716.43 157.54 700.2 171.54 666.83 171.54L633.92 171.54L633.92 227.5L605.96 227.5L605.96 61.84L666.83 61.84L666.83 61.84ZM633.92 145.81L665.93 145.81C684.87 145.81 688.03 140.37 688.03 128.65L688.03 105.63C688.03 93.45 684.87 88.48 665.93 88.48L633.92 88.48L633.92 145.81ZM810.21 61.84C843.57 62.3 859.8 76.29 859.8 105.18L859.8 128.65C859.8 157.54 843.57 171.54 810.21 171.54L777.3 171.54L777.3 227.5L749.34 227.5L749.34 61.84L810.21 61.84L810.21 61.84ZM777.3 145.81L809.31 145.81C828.25 145.81 831.41 140.37 831.41 128.65L831.41 105.63C831.41 93.45 828.24 88.48 809.31 88.48L777.3 88.48L777.3 145.81ZM1019.41 211.26L1019.41 227.96L926.53 227.96L926.53 62.29L943.21 62.29L943.21 211.26L1019.41 211.26ZM1165.94 179.66C1165.94 207.19 1148.81 229.76 1105.98 229.76C1063.14 229.76 1046.01 207.2 1046.01 179.66L1046.01 109.24C1046.01 81.7 1063.14 59.13 1105.98 59.13C1148.81 59.13 1165.94 81.69 1165.94 109.24L1165.94 179.66ZM1061.79 179.66C1061.79 203.58 1076.22 216.67 1106.88 216.67C1137.54 216.67 1151.95 203.13 1151.95 179.66L1151.95 109.24C1151.95 85.32 1137.52 72.22 1106.88 72.22C1076.24 72.22 1061.81 85.77 1061.81 109.24L1061.79 179.66ZM1207.87 62.29L1261.52 211.26L1315.18 62.29L1331.86 62.29L1272.35 227.96L1250.7 227.96L1191.64 62.29L1207.87 62.29ZM1366.58 62.29L1383.26 62.29L1383.26 227.96L1366.58 227.96L1366.58 62.29ZM1463.51 227.96L1447.73 227.96L1447.73 62.29L1472.08 62.29L1544.22 204.03L1544.22 62.29L1560 62.29L1560 227.96L1540.16 227.96L1463.51 82.15L1463.51 227.96Z" />
			<path id="Layer" fill-rule="evenodd" class="shp0" d="M291.71 205.84C296.63 205.83 301.5 206.79 306.05 208.67C310.59 210.54 314.72 213.3 318.2 216.79C321.68 220.27 324.43 224.4 326.31 228.95C328.19 233.5 329.15 238.38 329.13 243.31C329.13 258.46 320.02 272.12 306.03 277.92C292.05 283.72 275.95 280.51 265.25 269.8C254.55 259.08 251.34 242.97 257.14 228.97C258.4 225.91 260.04 223.08 262 220.53C254.79 218.79 247.55 217.26 240.26 215.95C232.08 214.47 223.86 213.26 215.61 212.32C207.36 211.37 199.08 210.7 190.78 210.3C182.49 209.89 174.18 209.76 165.88 209.89C157.35 209.75 148.82 209.87 140.3 210.27C131.78 210.68 123.27 211.35 114.79 212.29C106.32 213.23 97.87 214.45 89.47 215.93C81.94 217.25 74.45 218.8 67.01 220.55C69.08 223.23 70.77 226.18 72.05 229.32C73.92 233.9 74.87 238.81 74.85 243.76C74.85 253.69 70.9 263.22 63.88 270.25C56.87 277.28 47.35 281.22 37.42 281.22C27.5 281.22 17.98 277.28 10.96 270.25C3.94 263.22 0 253.69 0 243.76C-0.02 238.81 0.93 233.9 2.79 229.32C4.66 224.74 7.41 220.57 10.88 217.05C14.36 213.53 18.49 210.73 23.04 208.81C27.59 206.88 32.48 205.87 37.42 205.84C42.36 205.87 47.25 206.88 51.8 208.81C51.81 208.81 51.81 208.81 51.81 208.81L133.89 60.96L134.59 59.9C126.77 49.42 124.89 35.46 129.99 23.13C135.79 9.13 149.43 0 164.57 0C169.48 -0.01 174.36 0.95 178.9 2.83C183.45 4.71 187.58 7.47 191.06 10.95C194.53 14.43 197.29 18.56 199.17 23.11C201.04 27.67 202 32.54 201.99 37.47C201.99 45.64 199.34 53.38 194.7 59.69L195.23 60.49L277.3 208.73C281.78 206.85 286.66 205.84 291.71 205.84ZM314.24 243.76C314.3 237.83 312.01 232.13 307.86 227.89C303.72 223.66 298.06 221.26 292.14 221.2C286.23 221.14 280.53 223.44 276.3 227.59C272.08 231.74 269.67 237.4 269.61 243.32C269.55 249.25 271.85 254.95 276 259.18C280.14 263.41 285.79 265.82 291.71 265.88C297.63 265.94 303.33 263.64 307.55 259.49C311.78 255.34 314.19 249.68 314.24 243.76L314.24 243.76ZM59.96 243.76L59.95 243.76C60.01 237.83 57.72 232.13 53.57 227.89C49.43 223.66 43.77 221.26 37.86 221.2C31.94 221.14 26.24 223.44 22.01 227.59C17.79 231.74 15.38 237.4 15.32 243.32C15.32 246.25 15.89 249.15 17 251.86C18.1 254.57 19.72 257.03 21.77 259.12C23.82 261.21 26.25 262.88 28.93 264.04C31.62 265.2 34.5 265.83 37.42 265.88C40.35 265.88 43.24 265.31 45.95 264.21C48.65 263.1 51.12 261.48 53.2 259.43C55.29 257.38 56.96 254.94 58.12 252.26C59.28 249.57 59.9 246.68 59.96 243.76ZM178.89 72.08C168.3 76.47 156.5 75.7 146.75 70.42L146.53 70.87L73.04 203.13C80.66 201.48 88.32 200.06 96.02 198.85C103.72 197.65 111.46 196.67 119.22 195.92C126.97 195.16 134.75 194.63 142.54 194.33C150.33 194.03 158.13 193.95 165.92 194.1C173.49 194.07 181.05 194.23 188.61 194.58C196.17 194.94 203.72 195.5 211.25 196.25C218.77 197.01 226.28 197.96 233.76 199.1C241.24 200.25 248.69 201.59 256.1 203.13L182.59 70.4L182.55 70.33C181.37 70.97 180.15 71.56 178.89 72.08ZM187.1 37.47C187.1 34.56 186.52 31.69 185.41 29C184.3 26.32 182.67 23.88 180.62 21.83C178.57 19.78 176.13 18.15 173.45 17.03C170.77 15.92 167.9 15.34 165 15.34C156.06 15.34 148 20.73 144.58 29C141.16 37.27 143.05 46.78 149.37 53.11C155.69 59.44 165.2 61.33 173.46 57.91C181.72 54.48 187.1 46.42 187.1 37.47Z" />
		</g>
	</g>
</svg>