<svg version="1.2" xmlns="http://www.w3.org/2000/svg" viewBox="0 0 1523 468" width="1523" height="468">
	<title>Applus+_IDIADA_Logo-svg</title>
	<style>
		.s0 { fill: #ffffff } 
		.s1 { fill: #ea651b } 
	</style>
	<g id="layer1">
		<path id="path276" fill-rule="evenodd" class="s0" d="m1230.8 206.5c0-23-11.8-29.8-44-30.8-47.5-1.5-55.3 9.8-55.8 25.4-1 26.9 14.7 26.9 38.7 28.4 54.7 3.4 111.9-1 110.5 75.2-1 58.7-46.5 73.9-110.5 72.9-60.2-1-99.3-16.6-99.3-75.3h50.8c0 20.5 8.8 30.3 48 31.3 47.4 1.5 55.7-9.3 56.2-26.4 1-28.4-15.6-28.8-43-30.3-53.3-2.9-108.1-1-106.6-74.3 0.9-59.2 46.9-72.4 110.5-71.4 59.2 1 95.3 18.6 95.3 75.3zm-236.3 167.2v-19.1c-13.7 12.2-35.2 23-69 23-96.3 0-92.4-60.6-92.4-112.5v-130h55.3v125.7c0 45.9-4.4 67.9 43.5 67.9 59.7 0 55.2-41.1 55.2-82.6v-111h55.3v238.6zm-248.3-326h55.2v326h-55.2zm-130.1 329.9c-25.9 0-46.4-4-62.6-21.1v110.5h-55.3v-331.9h49.9v19c20.1-17.5 48.9-23.4 74.4-22.9 85.1 0.9 96.3 47.9 96.3 123.6 0 57.7-10.2 122.8-102.7 122.8zm-2.4-197.5c-47.5 0-60.7 15.1-60.7 74.7 0 59.7 13.2 73.9 60.7 73.9 41 0 49.9-18.1 49.9-73.9 0-55.7-8.9-74.7-49.9-74.7zm-143.1 194c-9.7 2.2-20.8 3.4-33.4 3.4-25.9 0-46.4-3.9-62.6-21v110.5h-55.2v-331.9h49.8v19c20.1-17.5 49-23.4 74.4-22.9 10 0.1 18.9 0.9 27 2.2v56.1c-6.6-6.2-19-9.5-35.8-9.5-47.5 0-60.6 15.2-60.6 74.8 0 59.7 13.1 73.9 60.6 73.9 16.8 0 28.2-1.8 35.8-9.1z"/>
		<path id="path392" fill-rule="evenodd" class="s1" d="m1307.4 105.5c0-84.3 25.9-105.5 108.7-105.5 83.8 0 106.8 21.5 106.8 105.5 0 83.7-23.6 106.1-107.4 106.1-82.5 0-108.1-22.7-108.1-106.1zm-1173.4 135.2h65.5l-45.4-129-93.9 262h-60.2l126.2-326.1h59.2l125.2 326.1h-63.1l-30.3-83.1h-101.1zm1359.8-135.2c0-64.6-15.4-75.7-78.6-75.7-61.5 0-78.6 11.9-78.6 75.7 0 63.7 18 76.3 79.7 76.3 62.7 0 77.5-13.1 77.5-76.3zm-65.3-57.7v44.6h43.7v27.2h-43.7v44.2h-26.6v-44.2h-43.7v-27.2h43.7v-44.6z"/>
	</g>
</svg>