<svg version="1.2" baseProfile="tiny-ps" xmlns="http://www.w3.org/2000/svg" viewBox="0 0 1685 1096" width="1685" height="1096">
	<title>Aprea_logo_color_silver-svg</title>
	<style>
		tspan { white-space:pre }
		.shp0 { fill: #0054a4 } 
		.shp1 { fill: #bbbbbb } 
	</style>
	<path id="Layer" class="shp0" d="M1567.06 459.85L1668.36 0L107.22 0L0 463.02C0 463.02 117.67 612.14 117.67 784.78C117.67 967.9 5.23 1096.09 5.23 1096.09L1576.83 1096.09C1576.83 1096.09 1684.06 970.52 1684.06 761.25C1684.05 570.28 1567.06 459.85 1567.06 459.85Z" />
	<path id="Layer" class="shp1" d="M178.07 656.42L194.94 656.42L194.94 705.1L221.68 705.1L221.68 719.68L194.94 719.68L194.94 836.2L178.07 836.2L178.07 719.68L155.07 719.68L155.07 705.1L178.07 705.1L178.07 656.42Z" />
	<path id="Layer" class="shp1" d="M246.97 654.49L263.83 654.49L263.83 728.6C265.32 726.54 266.92 724.56 268.62 722.68C270.33 720.79 272.13 719 274.02 717.3C275.91 715.61 277.89 714.02 279.95 712.53C282.01 711.05 284.15 709.67 286.36 708.42C288.39 707.31 290.49 706.33 292.64 705.49C294.79 704.65 297 703.94 299.24 703.38C301.48 702.82 303.76 702.4 306.06 702.12C308.35 701.84 310.66 701.71 312.97 701.73C315.27 701.69 317.56 701.82 319.84 702.12C322.11 702.42 324.36 702.89 326.57 703.52C328.77 704.15 330.93 704.95 333.02 705.9C335.11 706.85 337.12 707.95 339.05 709.2C340.91 710.41 342.67 711.75 344.33 713.22C345.99 714.68 347.53 716.27 348.95 717.97C350.38 719.67 351.67 721.47 352.82 723.36C353.98 725.25 354.99 727.22 355.85 729.26C359.46 737.66 361.26 750.81 361.26 768.72L361.26 836.2L344.4 836.2L344.4 773.66C344.4 758.56 343.79 748.48 342.59 743.42C342.23 741.53 341.71 739.68 341.03 737.87C340.36 736.07 339.53 734.33 338.56 732.66C337.6 731 336.49 729.42 335.26 727.94C334.03 726.46 332.67 725.09 331.21 723.84C329.66 722.7 328.02 721.69 326.31 720.83C324.59 719.96 322.8 719.25 320.97 718.69C319.13 718.13 317.24 717.73 315.34 717.49C313.43 717.26 311.51 717.18 309.59 717.27C307.1 717.26 304.61 717.47 302.16 717.9C299.71 718.33 297.3 718.98 294.97 719.85C292.63 720.71 290.38 721.78 288.24 723.05C286.09 724.31 284.07 725.77 282.18 727.39C280.23 728.99 278.41 730.74 276.74 732.62C275.07 734.5 273.55 736.52 272.19 738.64C270.84 740.77 269.66 743 268.66 745.31C267.66 747.63 266.85 750.01 266.23 752.46C264.62 758.89 263.82 770.77 263.82 788.12L263.82 836.2L246.97 836.2L246.97 654.49Z" />
	<path id="Layer" fill-rule="evenodd" class="shp1" d="M521.96 800.17C520.96 802.24 519.86 804.26 518.68 806.23C517.49 808.2 516.22 810.12 514.87 811.98C513.52 813.83 512.08 815.63 510.57 817.36C509.05 819.09 507.46 820.75 505.8 822.34C504.31 823.72 502.75 825.04 501.13 826.27C499.51 827.51 497.84 828.66 496.11 829.74C494.38 830.82 492.6 831.81 490.78 832.72C488.95 833.62 487.09 834.44 485.19 835.17C483.12 835.93 481.02 836.6 478.89 837.16C476.76 837.73 474.6 838.2 472.43 838.57C470.26 838.93 468.07 839.2 465.87 839.37C463.67 839.54 461.47 839.61 459.27 839.57C437.89 839.57 421.17 832.56 409.11 818.54C406.22 815.31 403.63 811.82 401.37 808.12C399.12 804.41 397.21 800.51 395.67 796.45C394.12 792.4 392.96 788.21 392.18 783.94C391.4 779.68 391.02 775.35 391.03 771.01C390.99 767.01 391.29 763.02 391.93 759.07C392.57 755.12 393.54 751.24 394.85 747.45C396.15 743.67 397.77 740.01 399.7 736.51C401.62 733 403.85 729.67 406.34 726.55C419.28 710 436.6 701.73 458.3 701.73C480.65 701.73 498.49 710.2 511.83 727.15C521.31 739.12 526.13 754.07 526.3 771.97L408.38 771.97C408.69 787.2 413.56 799.68 422.97 809.42C425.19 811.78 427.66 813.91 430.33 815.75C433 817.6 435.85 819.17 438.85 820.42C441.84 821.68 444.96 822.61 448.14 823.22C451.33 823.83 454.58 824.1 457.82 824.03C459.48 824.03 461.13 823.95 462.79 823.81C464.44 823.66 466.08 823.44 467.71 823.15C469.34 822.86 470.96 822.5 472.56 822.06C474.16 821.63 475.74 821.12 477.29 820.54C478.76 820.03 480.2 819.44 481.62 818.79C483.03 818.15 484.42 817.43 485.76 816.66C487.11 815.88 488.43 815.05 489.7 814.15C490.97 813.26 492.21 812.31 493.39 811.3C494.81 809.94 496.18 808.53 497.49 807.07C498.81 805.61 500.07 804.1 501.27 802.54C502.47 800.98 503.61 799.38 504.69 797.74C505.77 796.1 506.79 794.41 507.75 792.7L521.96 800.17ZM507.75 757.39C507.32 755.45 506.79 753.53 506.17 751.64C505.54 749.75 504.81 747.89 503.98 746.08C503.16 744.27 502.23 742.5 501.22 740.79C500.2 739.08 499.1 737.42 497.91 735.83C496.76 734.43 495.54 733.1 494.24 731.85C492.94 730.59 491.57 729.42 490.13 728.32C488.7 727.23 487.2 726.22 485.65 725.3C484.1 724.38 482.49 723.55 480.84 722.81C479.1 722 477.32 721.28 475.5 720.66C473.69 720.04 471.84 719.52 469.96 719.11C468.09 718.69 466.19 718.38 464.28 718.17C462.37 717.97 460.45 717.87 458.53 717.87C455.51 717.81 452.49 718.04 449.5 718.55C446.52 719.06 443.6 719.85 440.77 720.91C437.93 721.97 435.21 723.29 432.62 724.87C430.04 726.44 427.61 728.25 425.37 730.28C418.61 736.31 413.51 745.34 410.05 757.39L507.75 757.39Z" />
	<path id="Layer" class="shp1" d="M551.35 705.1L568.57 705.1L568.57 724.26C569.63 722.6 570.77 720.99 571.99 719.45C573.21 717.9 574.5 716.42 575.87 715C577.23 713.57 578.67 712.22 580.16 710.94C581.66 709.66 583.21 708.46 584.83 707.33C586.13 706.43 587.5 705.64 588.93 704.95C590.35 704.26 591.82 703.67 593.33 703.2C594.84 702.72 596.38 702.36 597.94 702.12C599.5 701.87 601.08 701.74 602.66 701.73C603.98 701.77 605.29 701.9 606.58 702.11C607.88 702.32 609.16 702.62 610.42 702.99C611.68 703.37 612.91 703.82 614.11 704.36C615.31 704.89 616.48 705.5 617.6 706.18L608.81 720.4C608.11 720.07 607.4 719.77 606.67 719.5C605.95 719.24 605.21 719.01 604.46 718.82C603.71 718.62 602.96 718.47 602.19 718.35C601.43 718.23 600.66 718.15 599.89 718.11C598.38 718.16 596.88 718.35 595.41 718.67C593.94 719 592.5 719.46 591.11 720.05C589.73 720.64 588.4 721.36 587.14 722.2C585.89 723.03 584.71 723.99 583.63 725.04C578.41 729.66 574.44 736.83 571.71 746.55C569.62 754.02 568.57 769.12 568.58 791.85L568.58 836.2L551.36 836.2L551.35 705.1Z" />
	<path id="Layer" fill-rule="evenodd" class="shp1" d="M762.5 705.1L762.5 836.2L745.88 836.2L745.88 813.66C744.27 815.68 742.56 817.61 740.74 819.44C738.93 821.28 737.02 823.01 735.02 824.64C733.02 826.27 730.94 827.79 728.78 829.2C726.62 830.61 724.39 831.9 722.09 833.06C715.85 836.05 709.18 838.04 702.32 838.97C695.47 839.9 688.51 839.75 681.7 838.53C674.89 837.31 668.31 835.04 662.21 831.79C656.1 828.54 650.54 824.35 645.72 819.39C642.52 816.17 639.66 812.65 637.16 808.86C634.67 805.08 632.57 801.05 630.88 796.84C629.19 792.63 627.93 788.27 627.11 783.81C626.3 779.35 625.93 774.82 626.03 770.29C625.96 765.8 626.34 761.31 627.18 756.9C628.01 752.49 629.29 748.18 630.99 744.03C632.7 739.87 634.82 735.9 637.32 732.18C639.83 728.45 642.7 724.99 645.9 721.85C648.97 718.62 652.37 715.72 656.03 713.19C659.69 710.66 663.61 708.52 667.71 706.79C671.81 705.06 676.08 703.77 680.45 702.91C684.82 702.06 689.27 701.67 693.72 701.73C696.25 701.69 698.77 701.81 701.28 702.08C703.8 702.36 706.29 702.78 708.75 703.36C711.21 703.94 713.63 704.67 716 705.54C718.37 706.42 720.68 707.43 722.93 708.59C725.21 709.83 727.41 711.2 729.53 712.7C731.65 714.19 733.68 715.81 735.61 717.55C737.54 719.28 739.37 721.12 741.09 723.07C742.8 725.02 744.4 727.06 745.88 729.2L745.88 705.1L762.5 705.1ZM695.1 717.99C690.53 717.96 685.99 718.54 681.58 719.72C677.17 720.9 672.94 722.67 669 724.98C665.06 727.29 661.45 730.12 658.27 733.39C655.09 736.66 652.36 740.35 650.16 744.35C647.86 748.36 646.1 752.66 644.91 757.13C643.72 761.6 643.12 766.21 643.12 770.84C643.13 775.46 643.74 780.07 644.94 784.54C646.13 789 647.91 793.3 650.22 797.3C651.33 799.33 652.58 801.28 653.95 803.15C655.32 805.01 656.82 806.77 658.43 808.44C660.04 810.1 661.75 811.65 663.57 813.08C665.39 814.51 667.3 815.82 669.29 816.99C671.22 818.14 673.23 819.16 675.29 820.04C677.36 820.93 679.49 821.67 681.65 822.26C683.82 822.85 686.03 823.3 688.26 823.6C690.48 823.89 692.73 824.04 694.98 824.03C697.27 824.03 699.55 823.89 701.82 823.59C704.09 823.29 706.34 822.85 708.55 822.26C710.76 821.67 712.93 820.94 715.05 820.07C717.16 819.2 719.22 818.19 721.21 817.05C723.19 815.96 725.1 814.73 726.92 813.37C728.73 812.02 730.45 810.54 732.06 808.94C733.67 807.34 735.17 805.64 736.55 803.83C737.92 802.03 739.17 800.13 740.28 798.16C741.4 796.11 742.39 794 743.24 791.83C744.09 789.66 744.8 787.43 745.36 785.17C745.93 782.91 746.34 780.61 746.61 778.29C746.87 775.98 746.99 773.65 746.95 771.31C747.05 767.81 746.79 764.31 746.18 760.86C745.58 757.41 744.63 754.03 743.34 750.77C742.06 747.51 740.45 744.39 738.54 741.45C736.63 738.52 734.43 735.78 731.97 733.28C729.6 730.81 726.98 728.59 724.16 726.65C721.33 724.72 718.31 723.08 715.14 721.77C711.98 720.45 708.69 719.47 705.32 718.84C701.95 718.2 698.53 717.92 695.11 717.99L695.1 717.99Z" />
	<path id="Layer" fill-rule="evenodd" class="shp1" d="M800.68 705.1L817.54 705.1L817.54 729.2C819.03 727.07 820.64 725.03 822.36 723.08C824.08 721.14 825.91 719.3 827.85 717.57C829.78 715.83 831.81 714.21 833.93 712.71C836.05 711.21 838.25 709.84 840.53 708.59C842.75 707.44 845.05 706.42 847.4 705.54C849.76 704.67 852.16 703.94 854.6 703.36C857.04 702.79 859.52 702.36 862.01 702.09C864.51 701.81 867.01 701.69 869.52 701.73C873.97 701.67 878.41 702.06 882.78 702.92C887.15 703.77 891.41 705.07 895.51 706.79C899.61 708.52 903.52 710.66 907.18 713.19C910.84 715.72 914.23 718.62 917.29 721.85C920.49 724.99 923.37 728.46 925.87 732.18C928.37 735.91 930.49 739.88 932.19 744.03C933.89 748.18 935.17 752.5 936.01 756.91C936.84 761.32 937.22 765.8 937.15 770.29C937.24 774.82 936.88 779.35 936.06 783.81C935.25 788.27 933.99 792.63 932.3 796.84C930.62 801.05 928.51 805.07 926.02 808.86C923.53 812.65 920.67 816.17 917.47 819.39C912.67 824.35 907.12 828.54 901.02 831.79C894.93 835.03 888.36 837.31 881.56 838.53C874.77 839.75 867.82 839.9 860.97 838.97C854.13 838.04 847.47 836.05 841.24 833.06C838.95 831.89 836.73 830.6 834.57 829.19C832.42 827.78 830.34 826.26 828.35 824.63C826.36 823 824.46 821.27 822.65 819.44C820.85 817.6 819.14 815.68 817.54 813.66L817.54 884.15L800.68 884.15L800.68 705.1ZM868.13 717.99C864.71 717.92 861.29 718.2 857.92 718.84C854.56 719.47 851.27 720.45 848.11 721.76C844.95 723.08 841.93 724.71 839.11 726.65C836.28 728.58 833.67 730.8 831.3 733.28C828.85 735.78 826.65 738.51 824.74 741.45C822.83 744.39 821.23 747.51 819.94 750.77C818.66 754.03 817.71 757.41 817.11 760.86C816.5 764.31 816.24 767.81 816.34 771.31C816.3 773.64 816.42 775.97 816.68 778.29C816.95 780.61 817.36 782.9 817.93 785.17C818.49 787.43 819.2 789.65 820.05 791.82C820.9 793.99 821.89 796.11 823.01 798.15C824.12 800.13 825.37 802.03 826.74 803.84C828.12 805.64 829.62 807.35 831.23 808.94C832.85 810.54 834.57 812.02 836.39 813.38C838.21 814.73 840.12 815.96 842.12 817.05C844.1 818.18 846.16 819.19 848.28 820.06C850.4 820.93 852.57 821.66 854.79 822.25C857 822.84 859.25 823.28 861.52 823.58C863.79 823.88 866.08 824.03 868.37 824.03C870.61 824.03 872.84 823.88 875.06 823.59C877.27 823.29 879.47 822.84 881.62 822.25C883.78 821.65 885.89 820.91 887.94 820.03C890 819.15 891.99 818.14 893.91 816.99C895.9 815.81 897.81 814.5 899.62 813.07C901.44 811.64 903.16 810.09 904.76 808.43C906.37 806.77 907.86 805 909.23 803.14C910.6 801.28 911.85 799.33 912.96 797.3C915.27 793.29 917.04 789 918.24 784.53C919.43 780.06 920.04 775.46 920.05 770.83C920.05 766.21 919.45 761.6 918.27 757.13C917.08 752.66 915.32 748.36 913.02 744.35C910.82 740.35 908.1 736.66 904.92 733.39C901.75 730.11 898.14 727.29 894.21 724.98C890.27 722.67 886.05 720.9 881.64 719.72C877.24 718.53 872.69 717.95 868.13 717.99L868.13 717.99Z" />
	<path id="Layer" fill-rule="evenodd" class="shp1" d="M1093.26 800.17C1092.25 802.24 1091.16 804.26 1089.97 806.23C1088.79 808.2 1087.52 810.12 1086.16 811.97C1084.81 813.83 1083.37 815.63 1081.86 817.36C1080.35 819.09 1078.76 820.75 1077.1 822.34C1075.6 823.72 1074.05 825.04 1072.43 826.27C1070.81 827.51 1069.13 828.66 1067.4 829.74C1065.67 830.82 1063.9 831.81 1062.07 832.72C1060.25 833.62 1058.38 834.44 1056.48 835.17C1054.41 835.93 1052.31 836.6 1050.18 837.16C1048.05 837.73 1045.9 838.2 1043.72 838.57C1041.55 838.93 1039.36 839.2 1037.17 839.37C1034.97 839.54 1032.76 839.61 1030.56 839.57C1009.18 839.57 992.46 832.56 980.41 818.54C977.51 815.31 974.92 811.82 972.67 808.12C970.41 804.41 968.5 800.51 966.96 796.45C965.42 792.4 964.25 788.21 963.47 783.94C962.7 779.68 962.31 775.35 962.32 771.01C962.28 767.01 962.58 763.02 963.22 759.07C963.86 755.12 964.84 751.23 966.14 747.45C967.44 743.67 969.07 740.01 970.99 736.51C972.92 733 975.14 729.67 977.64 726.55C990.57 710 1007.89 701.73 1029.6 701.73C1051.94 701.73 1069.78 710.2 1083.12 727.15C1092.61 739.12 1097.43 754.07 1097.59 771.97L979.67 771.97C980 787.2 984.86 799.68 994.26 809.42C996.49 811.78 998.96 813.91 1001.62 815.75C1004.29 817.6 1007.15 819.17 1010.14 820.42C1013.13 821.68 1016.25 822.61 1019.44 823.22C1022.63 823.82 1025.87 824.1 1029.12 824.03C1030.77 824.03 1032.43 823.95 1034.08 823.81C1035.73 823.66 1037.38 823.44 1039.01 823.15C1040.64 822.86 1042.26 822.5 1043.86 822.06C1045.46 821.63 1047.03 821.12 1048.59 820.54C1050.06 820.03 1051.5 819.44 1052.91 818.79C1054.33 818.15 1055.71 817.43 1057.06 816.66C1058.41 815.88 1059.72 815.05 1061 814.15C1062.27 813.26 1063.5 812.31 1064.69 811.3C1066.11 809.94 1067.48 808.53 1068.79 807.07C1070.1 805.61 1071.36 804.1 1072.56 802.54C1073.76 800.98 1074.91 799.38 1075.99 797.74C1077.07 796.1 1078.09 794.41 1079.04 792.7L1093.26 800.17ZM1079.04 757.39C1078.62 755.45 1078.09 753.53 1077.46 751.64C1076.83 749.75 1076.1 747.89 1075.28 746.08C1074.45 744.27 1073.53 742.5 1072.51 740.79C1071.5 739.08 1070.39 737.42 1069.2 735.83C1068.06 734.43 1066.83 733.1 1065.53 731.85C1064.23 730.59 1062.86 729.42 1061.43 728.32C1059.99 727.23 1058.5 726.22 1056.94 725.3C1055.39 724.38 1053.79 723.55 1052.14 722.81C1050.4 722 1048.62 721.28 1046.8 720.66C1044.98 720.04 1043.13 719.52 1041.26 719.11C1039.38 718.69 1037.48 718.38 1035.58 718.17C1033.67 717.97 1031.75 717.87 1029.83 717.87C1026.8 717.81 1023.78 718.04 1020.8 718.55C1017.82 719.06 1014.89 719.85 1012.06 720.91C1009.23 721.97 1006.5 723.29 1003.92 724.87C1001.34 726.44 998.91 728.25 996.66 730.28C989.91 736.31 984.8 745.34 981.35 757.39L1079.04 757.39Z" />
	<path id="Layer" class="shp1" d="M1126.86 705.1L1143.72 705.1L1143.72 766.31C1143.72 781.25 1144.53 791.53 1146.14 797.15C1146.69 799.08 1147.4 800.95 1148.28 802.75C1149.16 804.55 1150.19 806.27 1151.36 807.89C1152.54 809.51 1153.85 811.03 1155.29 812.42C1156.73 813.81 1158.29 815.08 1159.95 816.2C1161.73 817.38 1163.61 818.43 1165.55 819.33C1167.49 820.22 1169.5 820.97 1171.56 821.57C1173.62 822.16 1175.72 822.59 1177.85 822.86C1179.97 823.13 1182.11 823.24 1184.25 823.18C1186.36 823.25 1188.47 823.15 1190.57 822.89C1192.66 822.63 1194.73 822.22 1196.76 821.64C1198.79 821.06 1200.77 820.33 1202.68 819.45C1204.6 818.57 1206.44 817.54 1208.2 816.37C1209.78 815.31 1211.27 814.11 1212.66 812.8C1214.04 811.49 1215.32 810.07 1216.47 808.55C1217.62 807.03 1218.64 805.42 1219.53 803.73C1220.42 802.05 1221.17 800.29 1221.77 798.48C1223.46 793.42 1224.31 782.7 1224.31 766.31L1224.31 705.1L1241.53 705.1L1241.53 769.44C1241.53 787.52 1239.42 801.13 1235.2 810.29C1234.2 812.51 1233.04 814.65 1231.72 816.69C1230.4 818.73 1228.93 820.67 1227.32 822.49C1225.71 824.31 1223.96 826.01 1222.1 827.57C1220.23 829.12 1218.25 830.54 1216.17 831.8C1207.7 836.98 1197.08 839.57 1184.31 839.57C1171.55 839.57 1160.89 836.98 1152.33 831.8C1150.23 830.54 1148.23 829.12 1146.35 827.55C1144.46 825.98 1142.7 824.27 1141.08 822.43C1139.46 820.6 1137.98 818.64 1136.66 816.57C1135.34 814.51 1134.17 812.35 1133.18 810.11C1128.97 800.83 1126.86 786.87 1126.86 768.24L1126.86 705.1Z" />
	<path id="Layer" class="shp1" d="M1293.68 656.42L1310.55 656.42L1310.55 705.1L1337.29 705.1L1337.29 719.68L1310.55 719.68L1310.55 836.2L1293.68 836.2L1293.68 719.68L1270.68 719.68L1270.68 705.1L1293.68 705.1L1293.68 656.42Z" />
	<path id="Layer" class="shp1" d="M1368.42 651.12C1372.07 651.17 1375.57 652.65 1378.13 655.26C1380.7 657.86 1382.14 661.38 1382.14 665.04C1382.14 668.69 1380.7 672.21 1378.13 674.81C1375.57 677.42 1372.07 678.9 1368.42 678.95C1366.61 678.93 1364.82 678.56 1363.15 677.85C1361.48 677.15 1359.97 676.13 1358.69 674.84C1357.41 673.56 1356.4 672.04 1355.7 670.37C1355 668.7 1354.64 666.91 1354.62 665.1C1354.61 664.18 1354.69 663.26 1354.86 662.36C1355.03 661.46 1355.29 660.58 1355.64 659.73C1355.99 658.89 1356.43 658.08 1356.94 657.32C1357.45 656.56 1358.04 655.85 1358.7 655.21C1359.33 654.56 1360.02 653.97 1360.76 653.46C1361.5 652.94 1362.3 652.51 1363.13 652.16C1363.97 651.81 1364.83 651.54 1365.72 651.37C1366.61 651.19 1367.51 651.11 1368.42 651.12L1368.42 651.12ZM1360.05 705.1L1376.92 705.1L1376.92 836.2L1360.05 836.2L1360.05 705.1Z" />
	<path id="Layer" class="shp1" d="M1539.16 732.32L1525.79 740.64C1514.24 725.29 1498.48 717.62 1478.51 717.62C1474.86 717.51 1471.2 717.76 1467.6 718.38C1464 719 1460.47 719.97 1457.07 721.29C1453.66 722.61 1450.39 724.27 1447.32 726.24C1444.24 728.21 1441.37 730.48 1438.75 733.03C1436.21 735.42 1433.92 738.07 1431.93 740.93C1429.93 743.8 1428.24 746.86 1426.89 750.07C1425.53 753.29 1424.51 756.63 1423.84 760.06C1423.18 763.49 1422.87 766.97 1422.92 770.46C1422.92 772.82 1423.07 775.17 1423.38 777.51C1423.69 779.84 1424.15 782.15 1424.76 784.43C1425.38 786.7 1426.14 788.93 1427.05 791.11C1427.96 793.28 1429.01 795.39 1430.2 797.42C1431.37 799.48 1432.68 801.45 1434.12 803.32C1435.56 805.2 1437.13 806.97 1438.82 808.63C1440.51 810.28 1442.3 811.82 1444.2 813.23C1446.1 814.63 1448.1 815.91 1450.17 817.04C1456.37 820.31 1463.09 822.48 1470.03 823.44C1476.97 824.41 1484.03 824.16 1490.88 822.71C1497.74 821.25 1504.29 818.62 1510.24 814.92C1516.19 811.22 1521.45 806.51 1525.79 801L1539.16 809.8C1537.6 812.15 1535.88 814.39 1534.02 816.51C1532.15 818.64 1530.15 820.63 1528.02 822.48C1525.89 824.33 1523.64 826.04 1521.29 827.59C1518.93 829.14 1516.47 830.54 1513.93 831.76C1511.12 833.09 1508.25 834.26 1505.31 835.27C1502.37 836.27 1499.38 837.1 1496.34 837.76C1493.31 838.41 1490.24 838.89 1487.15 839.19C1484.06 839.5 1480.95 839.62 1477.85 839.56C1457.13 839.56 1439.95 832.98 1426.3 819.8C1423.01 816.74 1420.06 813.35 1417.48 809.68C1414.9 806 1412.72 802.07 1410.96 797.94C1409.2 793.81 1407.88 789.51 1407.01 785.1C1406.15 780.7 1405.75 776.21 1405.82 771.73C1405.81 768.63 1406 765.54 1406.4 762.48C1406.8 759.41 1407.4 756.38 1408.21 753.39C1409.02 750.41 1410.03 747.48 1411.23 744.63C1412.43 741.78 1413.82 739.02 1415.4 736.36C1416.95 733.68 1418.69 731.12 1420.6 728.68C1422.5 726.25 1424.57 723.95 1426.8 721.8C1429.02 719.64 1431.38 717.65 1433.88 715.82C1436.38 714 1439 712.34 1441.72 710.88C1444.58 709.34 1447.54 707.98 1450.57 706.81C1453.6 705.65 1456.71 704.68 1459.86 703.91C1463.02 703.13 1466.22 702.56 1469.45 702.2C1472.68 701.83 1475.93 701.67 1479.18 701.72C1481.31 701.71 1483.43 701.79 1485.56 701.96C1487.68 702.12 1489.79 702.37 1491.89 702.7C1494 703.03 1496.08 703.45 1498.15 703.95C1500.22 704.45 1502.27 705.03 1504.29 705.69C1506.13 706.27 1507.94 706.91 1509.73 707.64C1511.52 708.36 1513.27 709.16 1514.99 710.02C1516.71 710.89 1518.39 711.83 1520.03 712.84C1521.68 713.84 1523.28 714.92 1524.83 716.06C1526.27 717.16 1527.66 718.34 1528.99 719.58C1530.31 720.82 1531.58 722.13 1532.78 723.49C1533.98 724.86 1535.12 726.28 1536.18 727.75C1537.25 729.23 1538.24 730.75 1539.16 732.32Z" />
	<path id="Layer" class="shp1" d="M1637.45 719.44L1626.61 730.64C1617.59 721.89 1608.77 717.51 1600.16 717.51C1598.87 717.48 1597.58 717.58 1596.31 717.81C1595.04 718.03 1593.8 718.37 1592.6 718.84C1591.39 719.3 1590.24 719.88 1589.15 720.56C1588.05 721.25 1587.03 722.04 1586.09 722.92C1585.18 723.7 1584.36 724.58 1583.63 725.53C1582.91 726.49 1582.29 727.52 1581.78 728.61C1581.28 729.7 1580.89 730.84 1580.63 732.01C1580.37 733.18 1580.24 734.37 1580.23 735.57C1580.26 736.69 1580.38 737.8 1580.6 738.89C1580.82 739.99 1581.14 741.06 1581.55 742.09C1581.96 743.13 1582.46 744.13 1583.05 745.08C1583.64 746.02 1584.31 746.92 1585.06 747.74C1588.28 751.68 1595.04 756.3 1605.34 761.6C1617.89 768.11 1626.42 774.37 1630.92 780.4C1632.01 781.88 1632.97 783.44 1633.81 785.08C1634.65 786.71 1635.35 788.41 1635.91 790.16C1636.48 791.91 1636.9 793.7 1637.17 795.51C1637.45 797.33 1637.58 799.16 1637.56 801C1637.61 803.54 1637.4 806.08 1636.92 808.58C1636.45 811.07 1635.72 813.52 1634.75 815.86C1633.78 818.21 1632.56 820.45 1631.13 822.55C1629.7 824.65 1628.05 826.59 1626.22 828.35C1624.37 830.2 1622.33 831.84 1620.14 833.27C1617.95 834.7 1615.63 835.91 1613.2 836.87C1610.77 837.83 1608.25 838.54 1605.67 838.99C1603.1 839.44 1600.49 839.64 1597.87 839.56C1596.01 839.56 1594.14 839.46 1592.29 839.25C1590.43 839.05 1588.59 838.73 1586.77 838.32C1584.95 837.9 1583.16 837.39 1581.39 836.77C1579.63 836.15 1577.91 835.43 1576.23 834.62C1574.56 833.84 1572.95 832.96 1571.39 831.99C1569.83 831.02 1568.33 829.96 1566.89 828.82C1565.46 827.67 1564.09 826.44 1562.8 825.14C1561.5 823.83 1560.29 822.45 1559.16 821L1569.76 808.95C1578.37 818.66 1587.5 823.52 1597.16 823.52C1598.74 823.56 1600.32 823.44 1601.87 823.18C1603.42 822.91 1604.95 822.5 1606.43 821.94C1607.9 821.39 1609.32 820.69 1610.66 819.87C1612.01 819.04 1613.27 818.09 1614.43 817.02C1615.54 816.08 1616.54 815.03 1617.43 813.87C1618.31 812.72 1619.06 811.47 1619.68 810.15C1620.29 808.84 1620.76 807.46 1621.08 806.04C1621.39 804.62 1621.56 803.17 1621.56 801.72C1621.57 800.55 1621.47 799.38 1621.27 798.23C1621.07 797.07 1620.77 795.94 1620.37 794.84C1619.97 793.75 1619.47 792.68 1618.88 791.67C1618.29 790.66 1617.61 789.71 1616.85 788.82C1613.71 785.13 1606.63 780.47 1595.61 774.85C1583.78 768.74 1575.73 762.72 1571.47 756.77C1570.41 755.3 1569.47 753.75 1568.66 752.13C1567.85 750.51 1567.18 748.83 1566.63 747.1C1566.09 745.38 1565.69 743.61 1565.43 741.82C1565.16 740.03 1565.05 738.22 1565.07 736.41C1565.01 734.1 1565.19 731.8 1565.6 729.53C1566.02 727.26 1566.67 725.05 1567.55 722.92C1568.42 720.78 1569.52 718.75 1570.81 716.85C1572.11 714.94 1573.6 713.18 1575.27 711.58C1576.97 709.95 1578.84 708.48 1580.83 707.22C1582.83 705.95 1584.95 704.89 1587.15 704.04C1589.36 703.2 1591.64 702.57 1593.97 702.18C1596.3 701.79 1598.67 701.63 1601.03 701.71C1613.08 701.72 1625.22 707.63 1637.45 719.44Z" />
	<path id="Layer" fill-rule="evenodd" class="shp1" d="M367.38 282.83L367.38 539.57L334.82 539.57L334.82 495.44C331.68 499.39 328.32 503.17 324.77 506.76C321.22 510.35 317.48 513.75 313.57 516.94C309.66 520.13 305.58 523.11 301.35 525.86C297.11 528.62 292.74 531.15 288.24 533.43C283.86 535.57 279.36 537.45 274.77 539.06C270.17 540.68 265.48 542.02 260.73 543.09C255.98 544.17 251.17 544.96 246.33 545.48C241.48 545.99 236.61 546.22 231.74 546.17C195.42 546.17 164.4 533 138.69 506.65C112.97 480.3 100.12 448.25 100.12 410.49C99.98 401.7 100.73 392.92 102.37 384.28C104 375.65 106.5 367.2 109.84 359.06C113.18 350.93 117.33 343.16 122.23 335.86C127.14 328.57 132.77 321.79 139.04 315.63C164.98 289.36 196.2 276.23 232.68 276.23C237.63 276.16 242.58 276.39 247.49 276.92C252.41 277.46 257.29 278.3 262.11 279.43C266.93 280.56 271.67 281.99 276.31 283.7C280.95 285.41 285.49 287.41 289.88 289.68C294.35 292.1 298.67 294.79 302.82 297.72C306.97 300.65 310.94 303.82 314.72 307.21C318.5 310.61 322.08 314.22 325.44 318.03C328.8 321.85 331.93 325.85 334.82 330.03L334.82 282.83L367.38 282.83ZM208.93 311.47C200.29 313.78 192.01 317.25 184.3 321.77C176.59 326.29 169.52 331.83 163.29 338.24C157.05 344.65 151.71 351.87 147.4 359.71C142.9 367.57 139.44 375.98 137.11 384.74C134.79 393.5 133.61 402.52 133.62 411.58C133.63 420.64 134.83 429.66 137.17 438.41C139.52 447.16 143 455.56 147.52 463.41C149.7 467.38 152.14 471.2 154.83 474.85C157.51 478.49 160.44 481.95 163.59 485.2C166.74 488.45 170.11 491.49 173.66 494.29C177.22 497.09 180.96 499.64 184.86 501.94C188.64 504.2 192.57 506.2 196.62 507.92C200.67 509.65 204.83 511.1 209.07 512.26C213.32 513.42 217.64 514.3 222 514.88C226.37 515.46 230.76 515.74 235.16 515.72C239.65 515.73 244.12 515.44 248.57 514.86C253.01 514.28 257.41 513.41 261.74 512.26C266.07 511.1 270.32 509.67 274.47 507.96C278.61 506.26 282.64 504.28 286.53 502.05C290.42 499.92 294.15 497.51 297.71 494.85C301.27 492.2 304.64 489.29 307.79 486.17C310.94 483.04 313.88 479.7 316.57 476.17C319.26 472.64 321.7 468.92 323.87 465.05C326.07 461.05 328.01 456.91 329.68 452.66C331.34 448.41 332.73 444.05 333.83 439.62C334.94 435.19 335.75 430.69 336.27 426.16C336.79 421.62 337.02 417.05 336.95 412.49C336.95 382.79 327.17 357.97 307.61 338.01C302.97 333.16 297.84 328.81 292.3 325.02C286.76 321.24 280.85 318.03 274.65 315.47C268.45 312.9 262 310.98 255.41 309.74C248.82 308.5 242.11 307.95 235.41 308.09C226.47 308.02 217.56 309.16 208.93 311.47Z" />
	<path id="Layer" fill-rule="evenodd" class="shp1" d="M442.15 282.83L475.17 282.83L475.17 330.03C478.08 325.86 481.23 321.86 484.61 318.05C487.98 314.25 491.56 310.64 495.35 307.25C499.14 303.85 503.11 300.68 507.26 297.74C511.41 294.81 515.73 292.11 520.19 289.67C524.55 287.4 529.05 285.41 533.65 283.7C538.26 281.99 542.97 280.56 547.75 279.43C552.53 278.29 557.38 277.46 562.26 276.92C567.15 276.39 572.06 276.15 576.97 276.22C613.42 276.22 644.6 289.35 670.52 315.63C676.79 321.79 682.41 328.57 687.31 335.86C692.21 343.16 696.36 350.93 699.69 359.06C703.03 367.2 705.53 375.65 707.16 384.28C708.79 392.92 709.54 401.7 709.41 410.49C709.41 448.24 696.56 480.29 670.88 506.64C645.19 532.99 614.21 546.17 577.92 546.17C573.06 546.22 568.2 545.99 563.37 545.47C558.54 544.96 553.75 544.17 549.01 543.09C544.27 542.02 539.6 540.68 535.02 539.06C530.43 537.44 525.95 535.56 521.59 533.42C517.1 531.13 512.74 528.6 508.53 525.84C504.31 523.08 500.25 520.1 496.35 516.91C492.45 513.72 488.72 510.32 485.18 506.74C481.65 503.15 478.3 499.38 475.17 495.43L475.17 633.48L442.15 633.48L442.15 282.83ZM574.24 308.08C567.54 307.94 560.84 308.49 554.25 309.73C547.67 310.98 541.23 312.9 535.03 315.47C528.84 318.04 522.93 321.24 517.4 325.03C511.87 328.82 506.75 333.17 502.11 338.02C482.58 357.98 472.81 382.8 472.81 412.5C472.74 417.06 472.97 421.63 473.49 426.16C474.01 430.7 474.82 435.2 475.92 439.63C477.02 444.06 478.41 448.42 480.07 452.67C481.74 456.92 483.68 461.06 485.88 465.06C488.05 468.94 490.49 472.66 493.19 476.19C495.88 479.73 498.82 483.07 501.98 486.2C505.14 489.32 508.52 492.22 512.08 494.88C515.65 497.53 519.39 499.93 523.29 502.06C527.19 504.29 531.22 506.26 535.37 507.97C539.52 509.67 543.78 511.11 548.11 512.26C552.45 513.41 556.85 514.28 561.3 514.86C565.75 515.44 570.23 515.73 574.72 515.73C579.09 515.74 583.47 515.46 587.8 514.87C592.14 514.29 596.44 513.42 600.66 512.25C604.88 511.09 609.01 509.64 613.04 507.92C617.06 506.2 620.97 504.2 624.72 501.95C628.62 499.65 632.36 497.09 635.91 494.29C639.46 491.49 642.83 488.46 645.97 485.2C649.12 481.95 652.05 478.49 654.73 474.85C657.41 471.21 659.85 467.39 662.02 463.42C666.54 455.57 670.02 447.16 672.36 438.41C674.7 429.66 675.9 420.64 675.91 411.58C675.92 402.52 674.75 393.5 672.42 384.74C670.1 375.99 666.64 367.57 662.14 359.71C657.84 351.88 652.51 344.66 646.29 338.25C640.07 331.84 633.01 326.3 625.31 321.78C617.6 317.25 609.33 313.79 600.7 311.48C592.07 309.16 583.17 308.02 574.24 308.09L574.24 308.08Z" />
	<path id="Layer" class="shp1" d="M758.7 282.83L792.43 282.83L792.43 320.35C802.49 305.57 813.11 294.52 824.28 287.2C826.83 285.45 829.51 283.89 832.3 282.54C835.08 281.19 837.96 280.04 840.92 279.11C843.87 278.18 846.89 277.47 849.95 276.99C853 276.51 856.09 276.25 859.19 276.23C861.76 276.31 864.32 276.57 866.86 276.98C869.4 277.4 871.91 277.97 874.37 278.71C876.84 279.44 879.25 280.34 881.6 281.38C883.96 282.43 886.24 283.62 888.44 284.96L871.22 312.8C869.85 312.14 868.46 311.56 867.04 311.04C865.62 310.52 864.18 310.07 862.71 309.7C861.25 309.32 859.77 309.02 858.27 308.79C856.78 308.56 855.27 308.4 853.76 308.32C842.75 308.32 832.13 312.84 821.92 321.89C811.7 330.93 803.92 344.97 798.57 364.01C794.47 378.63 792.42 408.21 792.43 452.73L792.43 539.57L758.7 539.57L758.7 282.83Z" />
	<path id="Layer" fill-rule="evenodd" class="shp1" d="M1130.69 454.38L1158.52 469.01C1156.55 473.06 1154.41 477.02 1152.09 480.88C1149.78 484.74 1147.29 488.49 1144.64 492.13C1141.99 495.77 1139.18 499.29 1136.21 502.68C1133.25 506.06 1130.14 509.32 1126.88 512.43C1123.96 515.14 1120.91 517.71 1117.74 520.13C1114.57 522.55 1111.28 524.82 1107.9 526.92C1104.51 529.03 1101.03 530.98 1097.46 532.75C1093.89 534.53 1090.24 536.13 1086.52 537.56C1082.47 539.05 1078.35 540.35 1074.18 541.46C1070.01 542.57 1065.79 543.49 1061.53 544.21C1057.28 544.93 1052.99 545.46 1048.69 545.78C1044.38 546.11 1040.07 546.24 1035.75 546.17C993.89 546.17 961.15 532.45 937.54 505C913.93 477.55 902.12 446.52 902.12 411.91C902.04 404.08 902.62 396.25 903.88 388.52C905.13 380.79 907.04 373.18 909.59 365.78C912.14 358.38 915.32 351.2 919.09 344.34C922.86 337.48 927.22 330.95 932.1 324.84C957.44 292.43 991.36 276.23 1033.86 276.23C1077.61 276.23 1112.55 292.82 1138.68 326.01C1157.25 349.46 1166.7 378.72 1167.01 413.79L936.09 413.79C936.71 443.62 946.24 468.06 964.66 487.13C969.02 491.75 973.85 495.91 979.08 499.53C984.3 503.15 989.89 506.21 995.75 508.67C1001.62 511.13 1007.72 512.96 1013.96 514.15C1020.21 515.34 1026.56 515.86 1032.91 515.73C1036.16 515.73 1039.4 515.59 1042.63 515.3C1045.87 515.02 1049.08 514.59 1052.28 514.02C1055.47 513.45 1058.64 512.73 1061.77 511.88C1064.9 511.03 1068 510.04 1071.04 508.91C1073.91 507.9 1076.74 506.76 1079.51 505.49C1082.28 504.22 1084.99 502.82 1087.63 501.3C1090.27 499.79 1092.84 498.15 1095.34 496.4C1097.83 494.65 1100.24 492.78 1102.57 490.81C1111.24 483.29 1120.61 471.15 1130.69 454.38ZM1130.69 385.24C1126.28 367.62 1119.86 353.54 1111.44 343C1109.2 340.26 1106.8 337.66 1104.25 335.21C1101.71 332.75 1099.03 330.44 1096.22 328.3C1093.41 326.16 1090.47 324.18 1087.43 322.38C1084.39 320.57 1081.25 318.95 1078.02 317.51C1074.61 315.92 1071.12 314.51 1067.56 313.3C1064 312.08 1060.38 311.07 1056.71 310.26C1053.04 309.44 1049.32 308.83 1045.59 308.43C1041.85 308.03 1038.09 307.83 1034.33 307.84C1028.41 307.72 1022.49 308.17 1016.65 309.17C1010.82 310.16 1005.09 311.71 999.54 313.79C993.99 315.86 988.66 318.46 983.6 321.54C978.54 324.62 973.78 328.17 969.39 332.14C956.16 343.94 946.16 361.64 939.39 385.24L1130.69 385.24Z" />
	<path id="Layer" fill-rule="evenodd" class="shp1" d="M1484.28 282.83L1484.28 539.57L1451.72 539.57L1451.72 495.44C1448.58 499.39 1445.22 503.17 1441.67 506.76C1438.12 510.35 1434.38 513.75 1430.47 516.94C1426.55 520.13 1422.47 523.11 1418.24 525.86C1414.01 528.62 1409.64 531.14 1405.14 533.43C1400.76 535.57 1396.26 537.45 1391.66 539.06C1387.07 540.68 1382.38 542.02 1377.63 543.09C1372.88 544.17 1368.07 544.96 1363.22 545.48C1358.38 545.99 1353.51 546.22 1348.64 546.17C1312.32 546.17 1281.3 533 1255.59 506.65C1229.87 480.3 1217.02 448.25 1217.02 410.49C1216.88 401.7 1217.64 392.92 1219.27 384.28C1220.9 375.65 1223.41 367.2 1226.75 359.07C1230.08 350.93 1234.23 343.16 1239.14 335.87C1244.04 328.57 1249.67 321.79 1255.94 315.63C1281.89 289.36 1313.1 276.23 1349.58 276.23C1354.53 276.16 1359.48 276.39 1364.4 276.92C1369.32 277.46 1374.2 278.3 1379.01 279.43C1383.83 280.56 1388.57 281.99 1393.21 283.7C1397.86 285.41 1402.39 287.41 1406.79 289.68C1411.25 292.1 1415.57 294.79 1419.72 297.72C1423.87 300.65 1427.84 303.82 1431.62 307.21C1435.4 310.61 1438.98 314.22 1442.34 318.03C1445.7 321.85 1448.83 325.85 1451.72 330.03L1451.72 282.83L1484.28 282.83ZM1325.82 311.47C1317.18 313.78 1308.9 317.25 1301.19 321.77C1293.48 326.29 1286.41 331.83 1280.18 338.24C1273.94 344.65 1268.6 351.87 1264.3 359.71C1259.79 367.57 1256.33 375.98 1254 384.74C1251.68 393.49 1250.5 402.52 1250.51 411.58C1250.52 420.64 1251.72 429.66 1254.06 438.41C1256.41 447.16 1259.89 455.56 1264.41 463.41C1266.59 467.38 1269.03 471.2 1271.72 474.85C1274.41 478.49 1277.33 481.95 1280.49 485.2C1283.64 488.45 1287 491.49 1290.56 494.29C1294.11 497.09 1297.86 499.65 1301.75 501.95C1305.53 504.21 1309.46 506.2 1313.51 507.93C1317.56 509.66 1321.72 511.1 1325.97 512.27C1330.22 513.43 1334.54 514.3 1338.9 514.88C1343.26 515.46 1347.66 515.75 1352.06 515.73C1356.54 515.73 1361.02 515.45 1365.46 514.87C1369.91 514.29 1374.31 513.42 1378.64 512.26C1382.97 511.11 1387.22 509.68 1391.37 507.97C1395.51 506.26 1399.54 504.29 1403.43 502.06C1407.32 499.92 1411.05 497.52 1414.61 494.86C1418.17 492.2 1421.53 489.3 1424.69 486.18C1427.84 483.05 1430.77 479.71 1433.46 476.18C1436.15 472.65 1438.59 468.93 1440.77 465.06C1442.97 461.06 1444.91 456.92 1446.57 452.67C1448.24 448.42 1449.63 444.06 1450.73 439.63C1451.83 435.2 1452.65 430.7 1453.17 426.16C1453.69 421.63 1453.91 417.06 1453.84 412.5C1453.84 382.8 1444.06 357.97 1424.51 338.01C1419.87 333.17 1414.74 328.82 1409.2 325.03C1403.66 321.24 1397.74 318.04 1391.54 315.47C1385.35 312.9 1378.9 310.98 1372.3 309.74C1365.71 308.5 1359.01 307.95 1352.3 308.09C1343.36 308.02 1334.45 309.16 1325.82 311.47Z" />
</svg>