<svg version="1.2" xmlns="http://www.w3.org/2000/svg" viewBox="0 0 1522 813" width="1522" height="813">
	<title>einladung_zur_hauptversammlung-1-pdf-svg</title>
	<defs>
		<clipPath clipPathUnits="userSpaceOnUse" id="cp1">
			<path d="m-8590.88-14334.95h11631.9v16432.99h-11631.9z"/>
		</clipPath>
	</defs>
	<style>
		.s0 { fill: #ffffff } 
	</style>
	<g id="Clip-Path: Page 1" clip-path="url(#cp1)">
		<g id="Page 1">
			<path id="Path 9" fill-rule="evenodd" class="s0" d="m879.7 271.3c55.7-24.4 108.4-53.7 156.3-84.9-74.3 35.1-144.6 66.3-222.7 88.8-17.6 1-57.6 1-87.9 1.9q-7.8-5.8-13.7-8.7c106.5-23.5 191.4-66.4 274.4-113.2-104.5 42.9-199.2 79-303.7 100.5-18.5-5.9-44.9-13.7-66.4-18.6 118.2-23.4 228.5-61.5 319.4-113.2-106.5 46.9-238.3 80-380.9 99.6-25.4-5.9-49.8-10.8-75.2-16.6 143.5-16.6 280.3-48.8 408.2-112.2-146.5 56.6-310.6 88.8-482.5 93.6-14.6-4.8-29.3-9.7-40-14.6q-3.9-2-8.8-3.9c169.9-9.8 331.1-37.1 487.4-105.4-162.2 54.7-341.9 82-526.5 82q-13.6-8.8-27.3-18.6c203.1-7.8 350.6-38 518.6-93.6-174.8 48.7-360.4 74.1-551.8 70.2-25.4-17.6-44.9-32.2-44.9-32.2 0 0 112.3 6.8 275.4-10.7 142.6-14.7 290-60.5 369.2-60.5 107.4 0 154.3 43.9 196.3 79 22.4 18.6 41 35.1 56.6 48.8q-7.8 8.8-15.6 18.6v0.9c-1 2-17.6 23.4-19.6 65.4 0 3.9 0 13.7 2 26.4-38.1 11.7-99.6 23.4-196.3 31.2zm631.9-3.9c0 0-12.7 1-24.4-19.5 0 0-1 19.5 19.5 33.1 13.7 9.8-5.9 28.3-7.8 31.3-2 0.9-2.9 1.9-3.9 3.9-2.9 2.9-4.9 5.8-10.8 5.8-5.8 1-21.4-1.9-39-4.9-30.3-4.8-28.3-23.4-38.1-16.5-10.8 5.8 2.9 20.4 7.8 23.4 12.7 8.8 24.4 7.8 37.1 7.8 8.8 0 14.7-2.9 18.6-2 10.7 2 8.8 9.8 5.8 16.6-1.9 4.9-16.6 32.2-32.2 35.1 0 0-15.6 4-38.1-10.7 0 0-26.4-16.6-38.1-20.5-3.9-1-7.8-1.9-15.6-2.9-8.8-17.6-19.5-41-21.5-72.2 0 0-7.8 36.1 12.7 90.7 1 3.9 2 6.9 2.9 11.7 2 8.8 6.9 22.5 8.8 33.2 16.6 118.1-92.8 145.4-92.8 145.4 3.9-15.6 5.9-31.2 6.9-44.9 21.5-6.8 81-33.1 50.8-142.4-6.9-22.5-16.6-96.6-8.8-116.2 0 0-13.7 18.6-4.9 107.4 1 12.7 4.9 22.4 4.9 41.9 1.9 25.4-5.9 60.5-44 76.2q-2.9-16.6-7.8-30.3c7.8-5.8 31.3-30.2 19.5-107.3-3.9-30.3-4.8-95.7 12.7-132.7 0 0-30.2 40.9-26.3 140.5 0.9 17.5 0.9 57.5-19.6 70.2-8.8-15.6-20.5-28.3-31.2-39 8.8-4.9 15.6-19.5 16.6-53.7 1-34.1 0-121 43-157.1 0 0-52.8 26.4-59.6 132.7-1 16.6 1.9 67.4-27.4 58.6q-13.6-7.8-25.4-15.6c7.9-2 17.6-11.7 19.6-50.8 2.9-44.9 24.4-133.7 76.2-162 0 0-75.2 30.3-94.8 162-1.9 10.8-3.9 44.9-24.4 33.2-4.9-3.9-8.8-8.8-12.7-12.7-4.9-39-7.8-157.1 127-208.8 0 0-153.4 41-144.6 186.4-14.6-23.4-19.5-46.9-17.5-67.4 0.9-26.3 8.7-47.8 17.5-60.5 32.3-48.8 67.4-71.2 123.1-86.8 42-11.7 77.1-7.8 77.1-7.8-48.8-22.5-112.3-2.9-112.3-2.9 24.4-12.7 60.6-20.5 84-22.5 33.2-2.9 68.4 9.8 80.1 17.6 26.4 17.5 33.2 41.9 33.2 41.9 9.8-28.3-7.8-43.9-7.8-43.9 43 19.5 45.9 46.9 41 64.4-5.8-1.9-12.7-3.9-20.5-4.8l-37.1-5.9c-17.6-17.6-38.1-34.2-50.8-28.3-14.6 6.8-24.4 25.4-22.5 42.9 2-12.7 9.8-25.3 20.6-30.2 12.7-5.9 33.2 10.7 49.8 27.3l37.1 5.9c21.5 2.9 35.1 6.8 43.9 13.6 0 0 14.7 15.6 14.7 24.4-2 14.7 12.7 19.5 27.3 39.1 17.6 21.4 18.6 19.5 29.3 39q2 3.9 3 7.8c0.9 3.9 0.9 13.7-9.8 12.7zm-123.1 23.4c0 0 3-38.1-13.6-61.5 0 0-52.8-6.8-67.4-34.1 0 0 1.9 15.6 21.5 29.2h-1c0 0 1.9 1 3.9 2q1.9 1.9 4.9 2.9c7.8 4.9 17.5 10.8 24.4 12.7 4.9 2 8.8 5.9 12.7 9.8 4.9 9.7 10.7 24.4 14.6 39zm46.9-83.9c0 0-2.9-3.9-7.8-7.8 8.8-8.8 3.9-18.6 1-22.5q2.9-2.9 3.9-7.8c0 0-18.6 11.7-39.1 15.6 0 0-1.9 3 4.9 5.9 0 0 31.2 15.6 37.1 16.6zm-21.5 606h-163.1l-33.2-49.8c-16.6-27.3-46.9-67.3-75.2-104.4l53.7-141.5-85.9 159.1c0 0-28.3 49.7-9.8 57.5l60.6 30.3 28.3 48.8h-148.5l-39-62.5 14.6-91.7 19.6-106.4c-72.3-15.6-122.1-92.7-122.1-92.7 30.3 67.3 88.9 98.6 101.5 105.4l-5.8 29.3c-24.4-1-47.9-1-78.1-11.7-17.6-5.9-45.9-16.6-61.6-23.4-29.3-13.7-51.7-21.5-67.4-26.4-33.2-10.7-75.2-19.5-112.3-14.6 0 0 29.3 2.9 72.3 19.5-24.4 21.5-95.7 86.8-103.5 131.7l38.1 68.3 81 33.2 14.7 42h-155.3c0 0-47.9-85.9-81.1-136.6l-2.9-78.1v-2c0 0 22.5-21.4 32.2-31.2 17.6-17.6 56.7-52.7 83-61.5 0 0-15.6-1.9-45.9 16.6q1-1 1-1-1 0-1 1c-15.6 8.8-34.1 23.4-57.6 46.9-13.7 13.6-47.8 41.9-64.4 50.7-53.8 30.3-101.6 46.8-101.6 46.8 0 0-17.6 31.3-18.6 42-1 9.8 6.9 28.3 13.7 35.1 13.7 13.7 70.3 27.4 70.3 27.4l24.4 43.9h-158.2l-41-92.7c0 0 6.8-42 8.8-56.6 4.9-25.4 4.9-63.5 4.9-63.5 0 0 56.6-32.2 76.1-49.7 78.2-70.3 66.5-133.7 66.5-133.7 0 0 3.9-16.6 22.4-34.2-44.9 24.4-76.2 68.3-84.9 78.1-45 50.7-54.7 65.4-125.1 161-40 53.7-92.7 105.4-137.7 125.9-37.1 17.6-70.3 13.6-83 1.9-16.6-15.6-15.6-43.9-11.7-59.5 2-8.8 3.9-18.5 2-29.3 21.4 14.7 25.3 47.9 25.3 47.9 8.8-18.6 4.9-42-4.8-56.6-16.6-25.4-47.9-38.1-47.9-38.1 30.3 3.9 58.6 14.6 74.2 26.3 53.7 38.1 23.5 88.8 23.5 88.8 68.3-26.3 143.5-141.5 191.4-201 29.3-37.1 82-113.2 132.8-152.2 89.9-69.3 254.9-74.2 254.9-74.2v1q18.6-1.9 37.1-2.9c20.5 0 75.2-1 99.7-2 72.2-2.9 184.5-7.8 264.6-34.1q1 5.8 3.9 11.7c8.8 27.3 42 64.4 103.6 99.5 6.8 3.9 73.2 43 67.4 148.3-1 25.4-9.8 49.8-9.8 49.8l11.7 81c0 0 25.4 49.8 44 77.1 5.8 7.8 81 32.2 81 32.2zm-523.5-279.1q-14.6-7.8-30.2-12.7-30.3-11.7-61.6-17.5c-20.5-3.9-42.9-6.9-64.4-6.9q31.2 5.9 62.5 13.7 15.6 3.9 30.2 8.8 14.7 4.9 30.3 10.7 14.7 4.9 29.3 11.7c8.8 3.9 18.6 8.8 28.3 12.7q29.3 13.2 61.6 20.5c-20.5-7.8-39.1-17.6-57.6-27.3q-13.7-6.9-28.4-13.7zm-152.3-203q29.3-1.9 58.6-4.8c19.5-2 39-3.9 58.6-6.9q14.6-1.9 29.3-3.9 14.6-2.9 29.3-5.8c-19.6 1.9-39.1 2.9-58.6 3.9q-29.3 1.9-58.6 2.9c-20.5 1-40.1 1-59.6 2l-29.3 0.9q-14.7 0-29.3 2-30.3 1.9-59.6 7.8-29.3 5.8-57.6 15.6c-18.6 6.8-37.1 14.6-54.7 26.3q-12.7 8.8-23.4 19.6-4.9 5.8-9.8 12.7-2.9 2.9-4.9 5.8-1 2-1.9 3.9l-1 2c0 0.9 0 0.9-1 1.9v2c0 18.5-2.9 38-8.8 55.6-5.8 17.6-15.6 34.1-26.3 49.8q-17.6 22.4-40.1 40.9-10.7 8.8-22.5 16.6c-7.8 5.9-16.6 10.8-25.3 14.7 18.5-6.9 35.1-16.6 50.7-28.3 15.7-10.8 30.3-24.4 43-39.1 12.7-15.6 23.5-33.1 30.3-51.7 6.8-17.6 10.7-37.1 11.7-56.6v-1l1-0.9q0-2 1-3 1.9-2.9 3.9-5.8 3.9-4.9 9.7-9.8 9.8-9.7 21.5-17.5c15.6-10.8 33.2-18.6 51.8-25.4 36.1-11.7 74.2-18.6 113.3-22.5q14.6-1.9 29.3-2.9zm-385.8 473.3l-37.1-87.8c0 0 1.9-24.4 2.9-37.1 1-26.4-1-58.6-1-58.6 0 0-2.9 33.2-3.9 47.9-1.9 10.7-8.8 48.7-8.8 48.7l37.2 86.9zm711.9 0l-36.1-58.6 23.4-188.3v-1.9l-34.1 193.2 33.2 55.6z"/>
		</g>
	</g>
</svg>