<svg version="1.2" xmlns="http://www.w3.org/2000/svg" viewBox="0 0 1596 649" width="1596" height="649">
	<title>TheArenaGroup-svg</title>
	<style>
		.s0 { fill: #ffffff } 
	</style>
	<g id="Layer">
		<g id="Layer">
			<path id="Layer" class="s0" d="m314.6 99.6c0-1.6 0.8-3.3 2.4-3.3c1.6 0 3.2 0.8 3.2 2.5c0 1.6-0.8 3.2-2.4 3.2c-1.6 0-2.4-0.8-3.2-2.4zm26.6 56.5c0.8-2.4 3.2-3.3 5.6-2.4c2.5 0.8 3.3 3.2 2.5 5.6c-0.8 2.4-3.3 3.2-5.7 2.4c-2.4-0.8-3.2-4-2.4-5.6zm27.4 55.7c4.1-6.5 13-8.1 19.4-4.1c6.5 4.1 8.1 13 4 19.4c-4 6.5-12.9 8.1-19.3 4.1c-6.5-4.1-8.1-13-4.1-19.4zm-79.9 125.1c4.1-8.9 14.6-12.9 23.4-8.9c8.9 4.1 13 14.6 8.9 23.4c-4 8.9-14.5 13-23.4 8.9c-8.9-4-12.9-14.5-8.9-23.4zm-36.3-140.5c-1.6-1.6-0.8-4 0.8-5.6c1.6-1.6 4.1-0.8 5.7 0.8c1.6 1.6 0.8 4-0.8 5.7c-1.6 0.8-4.1 0.8-5.7-0.9zm31.5 57.4c-2.4-3.3-1.6-7.3 1.6-8.9c3.2-2.4 7.3-1.6 8.9 1.6c2.4 3.2 1.6 7.3-1.6 8.9c-3.3 2.4-6.5 1.6-8.9-1.6zm121.1-201.1c-1.7-2.4 0-4.8 2.4-5.6c2.4-1.6 4.8 0 5.6 2.4c1.6 2.4 0 4.9-2.4 5.7c-2.4 0.8-4.8-0.8-5.6-2.5zm66.1 128.4c8.1-8.9 21-9.7 29.9-2.4c8.9 8.1 9.7 21 2.4 29.9c-8.1 8.8-21 9.6-29.8 2.4c-8.9-7.3-9.7-21-2.5-29.9zm-37.9-63.8c-4-4.8-4-11.3 0.8-15.3c4.9-4 11.3-4 15.3 0.8c4.1 4.8 4.1 11.3-0.8 15.3c-4 4.1-11.3 3.3-15.3-0.8zm75.9 158.3c12.1-15.4 33.9-19.4 50-7.3c15.3 12.1 19.4 33.9 7.3 50c-12.1 15.4-33.9 19.4-50.1 7.3c-16.1-12.1-19.3-33.9-7.2-50zm-381.8 102.5c2.4-3.2 7.3-4 10.5-1.6c3.2 2.4 4.1 7.2 1.6 10.5c-2.4 3.2-7.2 4-10.5 1.6c-3.2-2.4-4-7.3-1.6-10.5zm251-376.2c0.8-0.8 2.4-1.6 3.3-0.8c0.8 0.8 1.6 2.4 0.8 3.2c-0.8 0.8-2.5 1.6-3.3 0.8c-0.8-0.8-0.8-1.6-0.8-3.2zm11.3 306.8c8.1-12.1 24.2-16.2 36.3-8.1c12.1 8.1 16.2 24.2 8.1 36.3c-8.1 12.1-24.2 16.2-36.3 8.1c-12.1-8.1-15.3-24.2-8.1-36.3zm-75 167.1c-15.4-8.1-21.8-27.5-13.8-42.8c8.1-15.4 27.5-21.8 42.8-13.7c15.4 8 21.8 27.4 13.7 42.8c-8 15.3-27.4 21.7-42.7 13.7zm116.2-2.4c-20.2-12.2-26.7-38-14.5-58.2c12.1-20.2 37.9-26.6 58.1-14.5c20.1 12.1 26.6 37.9 14.5 58.1c-12.9 20.2-38.7 25.9-58.1 14.6zm-211.5 5.6c-11.3-4-17.7-16.1-13.7-27.4c4-11.3 16.2-17.8 27.5-13.8c11.2 4.1 17.7 16.2 13.7 27.5c-3.3 11.3-16.2 16.9-27.5 13.7zm58.1 108.2c-8 18.6-29.8 27.4-49.2 19.4c-19.4-8.1-27.4-30.7-19.4-50.1c8.1-18.6 29.9-27.4 49.3-19.4c18.5 8.9 27.4 30.7 19.3 50.1zm129.2 8.1c-12.9 24.2-42.8 33.9-67 20.9c-24.2-12.9-33.9-42.7-21-67c12.9-24.2 42.8-33.9 67-20.9c24.2 12.1 33.9 41.9 21 67zm343-17.8c-3.3 41.2-39.6 71-79.9 67.8c-41.2-3.2-71-39.5-67.8-79.9c3.2-41.2 39.5-71.1 79.9-67.8c40.3 4 71 39.5 67.8 79.9zm-180.8-105.8c-25.8-16.9-32.3-50.8-15.3-76.7c16.9-25.8 50.8-32.2 76.6-15.3c25.9 17 32.3 50.9 15.4 76.7c-17 25.8-51.7 32.3-76.7 15.3zm-437.4-0.8c-1.7-7.2 3.2-13.7 9.6-14.5c7.3-1.6 13.8 3.2 14.6 9.7c1.6 7.3-3.3 13.7-9.7 14.5c-7.3 0.8-13.7-3.2-14.5-9.7zm428.5 132.4c-17.7 29.1-55.7 38.8-84.7 21.8c-29.1-17.7-38.8-55.7-21.8-84.7c17.7-29.1 55.7-38.8 84.7-21.8c29.1 16.9 39.6 54.9 21.8 84.7zm-495.5-131.6c3.2-4 9.7-5.6 13.7-2.4c4 3.2 5.6 9.7 2.4 13.7c-3.2 4.1-9.7 5.7-13.7 2.5c-4-3.3-5.7-8.9-2.4-13.8zm-42 106.6c-4 5.7-10.5 7.3-16.1 4c-5.7-3.2-7.3-10.5-4.1-16.1c3.3-5.7 10.5-7.3 16.2-4c5.6 3.2 7.2 10.5 4 16.1zm184-210.7c-1.6-4.8 0.8-9.7 5.7-11.3c4.8-1.6 9.7 0.8 11.3 5.6c1.6 4.9-0.8 9.7-5.7 11.3c-4.8 1.7-10.5-0.8-11.3-5.6zm-118.6 202.6c0.8 8.1-4.9 16.2-13.7 17c-8.1 0.8-16.2-4.9-17-13.7c-0.8-8.1 4.9-16.2 13.7-17c8.9-0.8 16.2 5.7 17 13.7zm83.9 8.1c-3.2 13.7-17.7 22.6-31.5 18.6c-13.7-3.3-22.6-17.8-18.5-31.5c3.2-13.7 17.7-22.6 31.5-18.6c13.7 4.1 22.5 17.8 18.5 31.5zm33.9-297.1c-1.6 2.4-5.6 2.4-8.1 0c-2.4-1.6-2.4-5.6 0-8.1c1.7-2.4 5.7-2.4 8.1 0c2.4 2.5 2.4 5.7 0 8.1z" />
		</g>
		<g id="Layer">
			<g id="Layer">
				<path id="Layer" fill-rule="evenodd" class="s0" d="m1124.1 193.2v106.6h-22.6v-46h-80.7v46h-22.6v-106.6h22.6v42h80.7v-42zm-151.8 0v21.8h-54v84.8h-22.6v-84.8h-54.9v-21.8zm198.5 21v21h85.6v18.6h-85.6v25h92v21h-113v-106.6h113v21zm-333.3 352c0-28.3 21.8-51.7 50.8-51.7c21 0 38 12.9 46.1 32.3l-8.1 1.6c-6.5-15.3-20.2-25.8-38-25.8c-24.2 0-41.9 19.4-41.9 43.6c0 24.2 17.7 43.6 41.9 43.6c22.6 0 37.2-16.2 39.6-38h-39.6v-7.2h48.5v1.6c0 28.3-19.4 50.9-47.6 50.9c-29.9 0.8-51.7-22.6-51.7-50.9zm116.2-25.8h8.1v16.9c4.8-12.9 16.9-20.2 33.1-17.7v8c-18.6-4-33.1 7.3-33.1 30.7v37.9h-8.1zm47.6 38c0-21.8 17-39.6 38.8-39.6c21.8 0 38.7 17.8 38.7 39.6c0 21.8-16.9 39.6-38.7 39.6c-21.8 0-38.8-17.8-38.8-39.6zm71.1 0c0-17.8-13.8-32.3-31.5-32.3c-17.8 0-31.5 14.5-31.5 32.3c0 17.8 14.5 32.3 31.5 32.3c16.9 0 31.5-14.5 31.5-32.3zm23.4 7.3v-46.1h8v42.8c0 17.8 12.1 27.5 25.9 27.5c16.1 0 27.4-12.9 27.4-31.5v-38.8h8.1v76.7h-8.1v-16.1c-4.8 8.9-14.5 17.8-29.1 17.8c-16.9 0-32.2-11.4-32.2-32.3zm88.7-45.3h8.1v17.8c5.7-11.3 17.8-18.6 31.5-18.6c21.8 0 38.7 17.8 38.7 39.6c0 21.8-16.9 39.6-38.7 39.6c-14.5 0-25.8-7.3-31.5-18.6v48.4h-8.1zm70.3 38c0-17.8-13.8-32.3-31.5-32.3c-17.8 0-31.5 14.5-31.5 32.3c0 17.7 13.7 32.3 31.5 32.3c17.7 0 31.5-14.6 31.5-32.3zm-151-179.3c0-9.6-8-18.5-18.5-18.5h-57.3v84.7h-22.6v-106.5h79.9c22.6 0 41.1 18.6 41.1 41.2c0 16.9-10.5 31.4-25 37.9l32.3 26.6h-32.3l-54.9-46h38.8c10.5 0 18.5-8 18.5-19.4zm-151.7 47.7h-88.8l-12.1 16.9h-27.4l71-105.7h24.2l71.8 106.5h-27.4zm-14.5-19.3l-30.7-45.2l-30.7 45.2zm475.4-69.5v106.6h-26.6l-75.9-78.3v78.3h-22.6v-106.6h26.6l75.9 79.2v-79.2zm144.5 88.8h-88.8l-12.1 17h-27.5l71.1-105.8h24.2l71 106.6h-27.4zm-15.4-19.4l-30.6-45.2l-30.7 45.2zm-371.3-48.4v21h85.6v18.5h-85.6v25.1h92v21h-112.9v-106.6h112.9v21z" />
			</g>
		</g>
	</g>
</svg>