<svg version="1.2" xmlns="http://www.w3.org/2000/svg" viewBox="0 0 930 930" width="930" height="930">
	<title>Argo-INVESTMENTS-LOGO-RGB-svg</title>
	<style>
		.s0 { fill: #ffffff } 
	</style>
	<g id="Layer_2">
		<g id="Layer_1-2">
			<path id="Layer" fill-rule="evenodd" class="s0" d="m1.4 11.4c0.9-2.2 2.3-4.3 4-6 1.7-1.7 3.8-3.1 6-4 2.3-0.9 4.7-1.4 7.2-1.4h892.1c2.4 0 4.9 0.5 7.1 1.4 2.3 0.9 4.3 2.3 6 4 1.7 1.8 3.1 3.8 4 6.1 1 2.2 1.4 4.6 1.4 7.1v891.9c0 2.4-0.4 4.8-1.4 7.1-0.9 2.2-2.3 4.3-4 6-1.7 1.7-3.8 3.1-6 4-2.3 0.9-4.7 1.4-7.1 1.4h-892.1c-2.5 0-4.9-0.5-7.1-1.4-2.3-0.9-4.3-2.3-6.1-4-1.7-1.7-3.1-3.8-4-6-0.9-2.3-1.4-4.7-1.4-7.1v-891.9c0-2.5 0.5-4.9 1.4-7.2zm827.7 699.9c1.5-0.6 2.9-1.6 4-2.8 1.1-1.1 2-2.5 2.5-4.1 0.6-1.5 0.8-3.1 0.8-4.7-0.2-1.6-0.6-3.1-1.3-4.5-0.7-1.4-1.6-2.6-2.8-3.6-1.1-1.1-2.5-1.9-3.9-2.4-1.5-0.6-3-0.8-4.6-0.8h-155.9c59.7-31.4 109.8-72 140.9-138.1q0.8-1.6 1.4-3.3 0.5-1.7 0.9-3.5 0.4-1.8 0.6-3.6 0.2-1.8 0.2-3.6c-0.1-1.7-0.4-3.4-1.1-4.9-0.7-1.6-1.6-3-2.8-4.2-1.3-1.2-2.7-2.2-4.3-2.8-1.5-0.7-3.2-1-4.9-1h-7.4c-1.9 0-3.9 0.3-5.7 1-1.9 0.6-3.6 1.5-5.2 2.6-1.6 1.2-3 2.5-4.2 4.1-1.1 1.6-2.1 3.3-2.7 5.2-6.2 17.4-26.5 27.3-26.5 27.3h-58q0.6-3.8 1.3-7.4 0.8-3.7 1.8-7.3 1-3.6 2.2-7.2 1.2-3.5 2.7-7 2.1-5.1 4.8-10 2.7-4.9 5.8-9.5 3.1-4.7 6.7-9 3.5-4.3 7.5-8.2 1.9-2 4-3.9 2-1.8 4.2-3.6 2.1-1.8 4.3-3.4 2.3-1.7 4.6-3.3c2.1-1.4 3.8-3.2 5-5.4 1.2-2.2 1.9-4.7 2-7.2 0.1-2.5-0.4-5-1.4-7.3-1.1-2.2-2.6-4.3-4.6-5.8q-39.3-31.2-80.9-59.3-26-17.6-52.7-33.8-26.7-16.2-54.2-31.2-27.5-14.9-55.7-28.4-28.2-13.6-57.1-25.8-19.6-8.3-39.6-16-19.9-7.7-40.1-14.7-20.2-7-40.6-13.3-20.5-6.3-41.1-11.9c-3.2-0.9-6.6-0.7-9.7 0.6-3.1 1.3-5.6 3.6-7.3 6.5-1.6 2.8-2.3 6.2-1.9 9.5 0.5 3.3 2 6.4 4.4 8.7l0.6 0.7c14.8 14.8 27.4 31.7 37.3 50.2 9.9 18.5 16.9 38.3 21 58.9 4 20.6 5 41.6 2.8 62.5-2.1 20.8-7.4 41.2-15.5 60.5-1 2.4-3.6 7.8-6.9 14.2-1.4 2.8-2 6-1.6 9.1 0.4 3.2 1.7 6.1 3.7 8.5 2.1 2.4 4.8 4.1 7.9 5 3 0.8 6.3 0.7 9.2-0.3 21.1-7 45.2-14.7 55.8-16.9q15.8-3.2 31.8-4.8 16-1.6 32.1-1.6 16.1 0 32.1 1.6 16 1.6 31.8 4.8 7.7 1.5 15.3 3.4 7.6 1.9 15.1 4.2 7.5 2.4 14.8 5.2 7.3 2.8 14.4 6 9.7 4.6 19.1 9.5 9.4 5 18.6 10.5 9.2 5.4 18 11.3 8.9 5.9 17.5 12.2h-355.7c-50 0-111-88.3-107.7-147 0.1-2.6-0.3-5.2-1.2-7.6-0.9-2.4-2.3-4.5-4-6.4-1.8-1.8-4-3.3-6.3-4.3-2.4-0.9-4.9-1.4-7.5-1.4h-7.1c-1.7 0-3.3 0.3-4.8 0.9-1.6 0.6-3 1.5-4.2 2.6-1.2 1.2-2.2 2.5-2.9 4-0.7 1.5-1.1 3.1-1.2 4.8-2.6 45.4-4.7 205.5 83.2 279h-113.5c-1.5-0.1-3.1 0.2-4.5 0.8-1.5 0.5-2.8 1.3-4 2.4-1.1 1-2.1 2.3-2.8 3.7-0.7 1.4-1.1 2.9-1.2 4.5-0.1 1.6 0.2 3.2 0.7 4.7 0.6 1.5 1.4 2.9 2.5 4.1 1.2 1.2 2.5 2.1 4 2.8 1.5 0.6 3.1 0.9 4.7 1h177.9q1.8-0.1 3.6-0.4 1.8-0.4 3.5-1.1 1.7-0.7 3.2-1.7 1.5-1 2.8-2.3l60.3-60.2q1.8-1.9 4-3.4 2.1-1.4 4.6-2.4 2.4-1 4.9-1.5 2.6-0.6 5.2-0.5c4.8 0.1 9.5 1.6 13.4 4.4 4 2.7 7 6.6 8.8 11 1.8 4.5 2.2 9.4 1.2 14.1-0.9 4.7-3.3 9-6.7 12.4l-7.6 7.7h-18.2c-1.5 0-3.1 0.2-4.5 0.8-1.5 0.5-2.8 1.3-4 2.4-1.1 1-2.1 2.2-2.8 3.6-0.7 1.4-1.1 2.9-1.2 4.5-0.1 1.6 0.1 3.2 0.7 4.7 0.5 1.5 1.4 2.9 2.5 4.1 1.1 1.2 2.5 2.1 3.9 2.8 1.5 0.6 3.1 0.9 4.8 1h31.5q1.8-0.1 3.6-0.4 1.8-0.4 3.5-1.1 1.6-0.7 3.2-1.7 1.5-1 2.8-2.3l60.2-60.2q1.8-1.9 4-3.4 2.1-1.4 4.5-2.4 2.4-1 5-1.6 2.6-0.5 5.2-0.4c4.8 0.1 9.4 1.6 13.4 4.4 3.9 2.7 7 6.6 8.7 11 1.8 4.5 2.3 9.4 1.3 14.1-1 4.7-3.3 9-6.7 12.4l-7.6 7.7h-19c-1.5 0-3.1 0.2-4.5 0.8-1.5 0.5-2.8 1.3-4 2.4-1.1 1-2.1 2.2-2.8 3.6-0.7 1.4-1.1 2.9-1.2 4.5-0.1 1.6 0.1 3.2 0.7 4.7 0.5 1.6 1.4 3 2.5 4.1 1.1 1.2 2.5 2.1 4 2.8 1.5 0.6 3.1 1 4.7 1h32.2q1.8-0.1 3.6-0.4 1.8-0.4 3.5-1.1 1.7-0.7 3.2-1.7 1.5-1 2.8-2.3l60.3-60.3q1.8-1.9 4-3.4 2.1-1.5 4.5-2.5 2.5-1 5-1.5 2.6-0.5 5.2-0.5c4.8 0.2 9.5 1.7 13.4 4.4 4 2.8 7 6.6 8.8 11.1 1.8 4.5 2.2 9.4 1.2 14.1-0.9 4.7-3.3 9-6.7 12.4l-7.6 7.7h-24.8c-1.6-0.1-3.1 0.2-4.6 0.7-1.5 0.6-2.8 1.4-4 2.5-1.2 1-2.1 2.3-2.8 3.7-0.7 1.4-1.1 2.9-1.3 4.5-0.1 1.6 0.2 3.2 0.8 4.7 0.5 1.6 1.4 3 2.5 4.1 1.1 1.2 2.5 2.1 3.9 2.8 1.5 0.6 3.1 1 4.8 1h238.3c1.6 0 3.2-0.4 4.7-1z"/>
		</g>
	</g>
</svg>