<svg version="1.2" baseProfile="tiny-ps" xmlns="http://www.w3.org/2000/svg" viewBox="0 0 1524 1487" width="1524" height="1487">
	<title>arhaus-svg-svg</title>
	<style>
		tspan { white-space:pre }
		.shp0 { fill: #ffffff } 
	</style>
	<path id="ArhausLogo_tag_white" fill-rule="evenodd" class="shp0" d="M698.05 75.59C722.13 12.04 729.89 0.41 742 0.41C754.11 0.41 761.8 10.07 785.95 69.87C815.88 143.15 1129.66 940.33 1251.24 1233.91C1323.16 1405.5 1381.13 1436.39 1423.1 1447.95C1429.57 1449.93 1436.1 1451.7 1442.7 1453.19C1449.36 1454.62 1456.03 1455.85 1462.7 1456.8C1469.44 1457.82 1476.17 1458.5 1482.91 1458.98C1489.71 1459.45 1496.45 1459.66 1503.25 1459.59C1515.29 1459.59 1523.05 1461.42 1523.05 1471.15C1523.05 1482.72 1505.22 1486.6 1482.97 1486.6C1453.04 1486.6 1307.24 1486.6 1169.19 1482.72C1131.09 1480.82 1109.39 1480.82 1109.39 1469.25C1109.39 1461.56 1115.17 1457.68 1123.47 1455.78C1135.52 1451.9 1147.56 1434.69 1135.52 1403.66L949.64 928.9C949.03 927.13 948.08 925.43 946.92 923.94C945.7 922.44 944.34 921.15 942.7 920.13C941.07 919.04 939.3 918.29 937.46 917.81C935.63 917.34 933.72 917.2 931.82 917.34L502.04 917.34C499.79 917.34 497.55 917.68 495.37 918.43C493.26 919.17 491.22 920.26 489.45 921.62C487.68 923.05 486.12 924.68 484.89 926.59C483.67 928.49 482.78 930.6 482.24 932.78L362.7 1274.53C358.55 1284.8 354.87 1295.21 351.61 1305.83C348.41 1316.37 345.62 1327.12 343.24 1337.94C340.86 1348.76 338.95 1359.64 337.53 1370.6C336.1 1381.62 335.08 1392.64 334.6 1403.66C334.6 1442.24 376.78 1459.86 410.39 1459.86L430.26 1459.86C444.34 1459.86 450.06 1463.67 450.06 1471.43C450.06 1482.99 438.01 1486.87 420.12 1486.87C372.36 1486.87 286.57 1481.09 264.18 1481.09C241.87 1481.09 132.4 1486.87 38.3 1486.87C12.25 1486.87 0.2 1482.99 0.2 1471.43C0.2 1463.67 8.44 1459.86 18.1 1459.86C32.11 1459.86 60.28 1457.95 76 1455.98C167.37 1444.42 207.85 1371.21 244.04 1274.73L698.05 75.59ZM906.1 847.8C916.17 847.8 916.17 842.09 913.79 834.33L723.97 313.24C713.83 284.32 704.17 284.32 694.03 313.24L518.3 834.33C514.42 843.99 518.3 847.8 524.01 847.8L906.1 847.8Z" />
</svg>