<svg version="1.2" baseProfile="tiny-ps" xmlns="http://www.w3.org/2000/svg" viewBox="0 0 1538 769" width="1538" height="769">
	<title>ari-investor-presentation-september-2021-pdf-svg copy-svg</title>
	<defs>
		<clipPath clipPathUnits="userSpaceOnUse" id="cp1">
			<path d="M-27806.64 -2021.79L16642.92 -2021.79L16642.92 32283.05L-27806.64 32283.05L-27806.64 -2021.79Z" />
		</clipPath>
	</defs>
	<style>
		tspan { white-space:pre }
		.shp0 { fill: #007d55 } 
	</style>
	<g id="Clip-Path: Clip-Path: Page 1" clip-path="url(#cp1)">
		<g id="Clip-Path: Page 1">
			<g id="Page 1">
				<path id="Path 30" fill-rule="evenodd" class="shp0" d="M762.59 732.98L762.59 768.86C762.59 768.86 698.59 766.32 640.53 766.32C582.43 766.32 486.73 768.86 486.73 768.86L486.73 732.98L508.34 732.98C543.71 732.98 560.53 725.4 560.53 701.87C560.53 692.06 552.12 669.64 542.31 642.43C536.4 626.18 513.39 565.38 484.22 492.23L219.31 492.23C198.55 546.87 183.94 586.4 182.83 591.44C162.36 653.67 158.71 677.2 158.71 690.66C158.71 727.93 186.48 731.58 219.31 732.98L254.39 732.98L254.39 768.86C254.39 768.86 190.13 766.32 128.39 766.32C66.65 766.32 0.14 768.86 0.14 768.86L0.14 734.09L3.79 732.98C65.54 725.4 78.71 708.03 105.38 647.2C118.58 617.51 133.15 577.98 141.59 556.68C150.29 535.66 343.9 34.53 343.9 34.53L406.76 0.91L641.64 602.65C657.35 646.09 675.6 693.17 688.78 710.57C704.49 732.98 733.67 732.98 758.93 732.98L762.59 732.98ZM463.74 441.49C409.3 302.49 346.16 144.96 346.16 144.96C346.16 144.96 285.81 311.16 237.27 441.49L463.74 441.49ZM1179.01 663.45C1179.01 693.17 1186.31 732.98 1259.01 732.98C1274.72 732.98 1280.6 734.09 1280.6 734.09L1280.6 768.86C1217.74 766.32 1159.65 765.21 1116.16 765.21C1071.27 765.21 1028.89 766.32 981.75 768.86L981.75 732.98L998.58 732.98C1032.54 732.98 1070.13 722.89 1070.13 663.45L1070.13 138.51C1070.13 87.81 1059.21 70.41 1020.48 61.74C997.46 58.09 979.21 60.6 979.21 60.6L979.21 24.47C979.21 24.47 1106.35 25.86 1197.26 25.86C1306.15 25.86 1399.29 36.79 1450.08 69.3C1501.16 101.52 1537.38 159.82 1537.38 236.62C1537.38 339.77 1456.27 395.52 1409.13 419.08C1361.7 442.61 1303.61 452.42 1259.01 452.42L1256.47 422.73C1375.16 400.28 1417.54 334.72 1417.54 238.01C1417.54 129.84 1349.64 74.06 1261.23 66.79C1204.57 62.85 1179.01 69.3 1179.01 69.3L1179.01 663.45Z" />
			</g>
		</g>
	</g>
</svg>