<svg version="1.2" xmlns="http://www.w3.org/2000/svg" viewBox="0 0 1580 358" width="1580" height="358">
	<title>African_Rainbow_Minerals_logo-svg</title>
	<style>
		.s0 { fill: #211e1e } 
	</style>
	<g id="layer1">
		<path id="path128" class="s0" d="m1094.2 0.4h111.1l128.9 151.7 124.9-151.7h120v355.8h-135.5l-1.2-200.5-139 155.8-142.7-145.1v189.8h-65.3"/>
		<path id="path130" fill-rule="evenodd" class="s0" d="m612.5 0.4h312.6c142.8 36.3 155.8 193.4 0 233.9 0 0 94 48.8 151 121.9h-172.3c-2.4-3.1-5.1-6.1-8-9.2-15.8-13.7-31.7-26.3-47.5-37.9-45.3-28.7-94.3-46.4-94.3-46.4v93.5h-141.5v-149.2c-38.5-6.6-75.9-8.5-111.9-7l98.8 156.2h-178.3l-83.9-125.7c-111 36.2-194.2 99.5-219.6 119.2l-5.9 7.7h-111l3.3-5.6 239-351.4h131.3l80.1 126.6c-51.1 9-100.4 27.3-149.3 55.3l-38.5-57.7-124.9 187.8 1.1-1c24.1-19.4 385.4-299.8 762.2 19.1-98.9-109.2-196.2-173-292.5-197.5zm141.5 175c199.8 30.3 196.2-137.5 0-112z"/>
	</g>
</svg>