<svg version="1.2" xmlns="http://www.w3.org/2000/svg" viewBox="0 0 1561 1374" width="1561" height="1374">
	<title>logo (52)-svg</title>
	<defs>
		<clipPath clipPathUnits="userSpaceOnUse" id="cp1">
			<path d="m-2807.57 0h4368.57v1998.48h-4368.57z"/>
		</clipPath>
	</defs>
	<style>
		.s0 { fill: #49b48a } 
	</style>
	<g id="Layer">
		<g id="Clip-Path" clip-path="url(#cp1)">
			<path id="Layer" fill-rule="evenodd" class="s0" d="m1032.3 661.5q-10.4 14.7-19.5 30.2-9.2 15.6-16.8 31.9-7.7 16.4-13.9 33.3c-8 22.2-14.1 45-18.2 68.2-4 23.2-6 46.8-5.9 70.3 0.1 23.6 2.2 47.1 6.4 70.3 4.2 23.2 10.4 46 18.6 68.1q4.3 11.5 9.3 22.7 5 11.3 10.7 22.2 5.6 10.9 11.9 21.4 6.4 10.5 13.3 20.7c-108.6-0.8-159.7-17.3-199.3-49.9l-278.5-316.8c-7.9-8.8-17.5-17.6-28.5-26.4-56.3-53.1-127.6-97.1-201.9-131.5-97.7-33.6-236.8-63.4-314.9-79-6.4-1.3-5.4-10.6 1.1-10.6h297.7l0.1-0.1c87.8-9.1 146.5-65.3 241.5-80.9 9.6-0.7 19.2-1.2 29-1.2q16.3-0.1 32.5 1.4 16.2 1.4 32.2 4.4 16 3 31.6 7.5 15.6 4.5 30.8 10.5 17.2 7 33.6 16 16.4 8.9 31.6 19.6 15.3 10.8 29.2 23.2 14 12.3 26.5 26.2l0.6 0.8 15.6 18.2-86.8 73.4-14.1-16.3c-25.5-27.7-51.8-44.9-78.8-55.8-27.2-10.9-55.6-15.5-84.5-15.5q-9.6 0.1-19.3 0.8-9.6 0.6-19.2 1.8-9.6 1.2-19.1 2.9-9.5 1.8-18.8 4.1-5.4 1.3-10.7 2.7-5.3 1.5-10.6 3.1-5.3 1.5-10.5 3.2-5.2 1.8-10.4 3.6 15.5 6.5 30.7 13.8 15.2 7.3 30 15.3 14.8 8.1 29.1 17 14.4 8.8 28.3 18.4 8.3 5.8 16.3 12.1 8.1 6.3 15.8 13 7.6 6.7 14.9 13.9 7.3 7.1 14.2 14.6l0.3 0.2 209.1 237.9q-1.1-25.2 0.2-50.4 1.4-25.2 5.3-50.1 3.8-25 10-49.4 6.3-24.5 14.9-48.2 7.9-21.7 17.8-42.7 9.8-20.9 21.5-40.9 11.7-20 25.1-38.8 13.4-18.9 28.5-36.5l478.9-559.4c27.5 137.4-8.3 172.2-69.6 256.3l-322.6 376.8q-11.8 13.7-22.3 28.4zm528.7 712.5c-112.7-1.5-161.8-20.7-202.2-57.8l-62.5-71.1c-4.2-5-8.3-10-12.8-15.3l0.7 1.5-110.8-126c-18.4-20.9-33.9-44.2-46.1-69.3-12.3-25-21.1-51.6-26.2-79-5.2-27.3-6.6-55.3-4.4-83.1 2.3-27.7 8.3-55.1 17.8-81.3q4.9-13.2 10.9-25.9 5.9-12.7 13.1-24.8 7.1-12.2 15.3-23.6 8.2-11.4 17.3-22.1l273.6-318.2c27.9 141.7-12.5 173.4-78.7 266l-108.4 126c-7.6 8.9-14.5 18.5-20.5 28.6-6 10.1-11.1 20.8-15.2 31.8-4 11-7.1 22.4-9.2 34-2.1 11.5-3.1 23.3-3.1 35 0 12 1.1 23.9 3.2 35.6 2.2 11.8 5.4 23.3 9.6 34.5 4.2 11.1 9.4 21.9 15.6 32.1 6.1 10.2 13.2 19.9 21.1 28.9z"/>
		</g>
	</g>
</svg>