<svg version="1.2" baseProfile="tiny-ps" xmlns="http://www.w3.org/2000/svg" viewBox="0 0 1594 307" width="1594" height="307">
	<title>Archrock,-Inc</title>
	<defs>
		<clipPath clipPathUnits="userSpaceOnUse" id="cp1">
			<path d="M-1323.22 -886.5L2906.6 -886.5L2906.6 4503.5L-1323.22 4503.5L-1323.22 -886.5Z" />
		</clipPath>
	</defs>
	<style>
		tspan { white-space:pre }
		.shp0 { fill: #000000 } 
		.shp1 { fill: #939598 } 
	</style>
	<g id="Clip-Path: Clip-Path: Page 1" clip-path="url(#cp1)">
		<g id="Clip-Path: Page 1">
			<g id="Page 1">
				<path id="Path 5" fill-rule="evenodd" class="shp0" d="M190.16 0.22L288.54 298.37L209.39 298.37L195.99 255.41L90.47 255.41L77.05 298.37L0.14 298.37L98.52 0.22L190.16 0.22ZM108.35 196.76L177.66 196.76L142.77 85.75L108.35 196.76Z" />
				<path id="Path 7" class="shp0" d="M288.54 91.11L288.54 298.37L356.5 298.37L356.5 200.8C356.5 167.21 369.48 152.01 398.54 152.01C401.65 152.01 405.69 152.45 411.04 152.45L411.04 83.06L404.79 83.06C379.73 83.06 364.99 93.81 356.5 118.86L356.5 91.11L288.54 91.11Z" />
				<path id="Path 8" fill-rule="evenodd" class="shp1" d="M1157.96 190.12C1157.96 252.43 1107.52 302.93 1045.29 302.93C983.06 302.93 932.62 252.43 932.62 190.12C932.62 127.81 983.06 77.28 1045.29 77.28C1107.52 77.28 1157.96 127.81 1157.96 190.12ZM1100.02 190.12C1100.02 159.83 1075.51 135.32 1045.29 135.32C1015.07 135.32 990.56 159.83 990.56 190.12C990.56 220.38 1015.07 244.92 1045.29 244.92C1075.51 244.92 1100.02 220.38 1100.02 190.12ZM1574.85 299.27C1564.85 299.27 1556.55 291.47 1556.55 280.76C1556.55 270.01 1564.85 262.21 1574.85 262.21C1584.88 262.21 1593.18 270.01 1593.18 280.76C1593.18 291.47 1584.88 299.27 1574.85 299.27ZM1574.85 265.36C1566.55 265.36 1559.89 271.74 1559.89 280.76C1559.89 289.77 1566.55 296.12 1574.85 296.12C1583.15 296.12 1589.82 289.77 1589.82 280.76C1589.82 271.74 1583.15 265.36 1574.85 265.36ZM1573.02 284.48L1573.02 290.38L1567.06 290.38L1567.06 270.94L1576.49 270.94C1580.81 270.94 1583.76 273.44 1583.76 277.9C1583.76 280.76 1582.35 282.78 1580.11 283.77L1584.37 290.38L1577.8 290.38L1574.24 284.48L1573.02 284.48ZM1575.56 275.88L1573.02 275.88L1573.02 279.73L1575.56 279.73C1577.09 279.73 1577.9 279.12 1577.9 277.9C1577.9 276.58 1577.09 275.88 1575.56 275.88Z" />
				<path id="Path 108" class="shp0" d="M557.64 232.12C543.77 243.31 535.28 246.91 522.75 246.91C493.68 246.91 471.35 224.06 471.35 194.07C471.35 165.42 492.34 143.02 519.64 143.02C534.38 143.02 546.01 147.96 557.64 160.06L602.79 118.86C573.73 93.81 548.25 83.06 516.5 83.06C450.78 83.06 403.38 130.06 403.38 195.86C403.38 259.42 451.67 306.45 516.95 306.45C548.7 306.45 573.73 297.47 598.31 275.56L557.64 232.12Z" />
				<path id="Path 108" class="shp0" d="M670.34 0.22L602.83 0.22L602.83 298.37L670.34 298.37L670.34 173.92C670.34 152.45 681.08 139.46 698.96 139.46C715.49 139.46 726.23 153.32 726.68 173.92L726.68 298.37L794.19 298.37L794.19 163.17C794.19 131.41 789.29 115.72 774.52 102.31C761.54 90.66 741.9 83.06 723.98 83.06C703 83.06 686.88 91.11 670.34 110.36L670.34 0.22Z" />
				<path id="Path 108" class="shp1" d="M1425.43 215.56L1471.48 298.37L1548.38 298.37L1488.01 189.61L1548.38 91.11L1471.48 91.11L1425.43 164.97L1425.43 0.22L1357.91 0.22L1357.91 298.37L1425.43 298.37L1425.43 215.56Z" />
				<path id="Path 108" class="shp1" d="M1312.89 232.12C1299.02 243.31 1290.52 246.91 1278.03 246.91C1248.96 246.91 1226.6 224.06 1226.6 194.07C1226.6 165.42 1247.62 143.02 1274.89 143.02C1289.63 143.02 1301.26 147.96 1312.89 160.06L1358.04 118.86C1328.98 93.81 1303.5 83.06 1271.75 83.06C1206.02 83.06 1158.63 130.06 1158.63 195.86C1158.63 259.42 1206.92 306.42 1272.19 306.42C1303.95 306.42 1328.98 297.47 1353.59 275.56L1312.89 232.12Z" />
				<path id="Path 109" class="shp1" d="M816.56 91.11L816.56 298.37L884.49 298.37L884.49 200.8C884.49 167.21 897.47 152.01 926.53 152.01C929.68 152.01 933.68 152.45 939.06 152.45L939.06 83.06L932.82 83.06C907.76 83.06 893.02 93.81 884.49 118.86L884.49 91.11L816.56 91.11Z" />
				<path id="Path 110" class="shp0" d="M1045.29 152.9C1024.78 152.9 1008.12 169.56 1008.12 190.12C1008.12 210.65 1024.78 227.31 1045.29 227.31C1065.8 227.31 1082.43 210.65 1082.43 190.12C1082.43 169.56 1065.8 152.9 1045.29 152.9Z" />
			</g>
		</g>
	</g>
</svg>