<svg version="1.2" xmlns="http://www.w3.org/2000/svg" viewBox="0 0 1151 1523" width="1151" height="1523">
	<title>logo-ARTIFEX-MUNDI-vertical-white-background-ai</title>
	<style>
		.s0 { fill: #ffffff } 
	</style>
	<g id="Layer 1">
		<g id="&lt;Group&gt;">
			<path id="&lt;Path&gt;" class="s0" d="m895.8 122.8c-6.7-6.6-61.4-21.5-61.4-21.5 0 0 52-9.6 60.5-18.1 8.7-8.6 21.4-82.6 21.4-82.6 0 0 14.6 75.8 21.3 82.6 6.8 6.7 60.6 18.1 60.6 18.1 0 0-54.2 14.4-61.4 21.5-7.1 7.2-20.5 92.1-20.5 92.1 0 0-13.8-85.5-20.5-92.1z"/>
			<path id="&lt;Path&gt;" class="s0" d="m560.5 149.5c0 0 5.4 16.5 7.1 23.2 1.9 6.7 1.4 13.1-7.4 26.9-3.1 5-7.5 9.2-11.8 12.4 9.3 5.5 25 16.6 34.4 33 14 24.2 23 42.8 27.2 63.3 4.2 20.5-0.7 29.5-6.2 39.3-5.6 9.7-19.4 28-25.4 38-5.9 9.9-6.1 20.2-3.3 26.8 2.8 6.5 8.3 21.3 73.6 21.3 65.3 0 116.5-40 150.4-66.9 34.1-27 68.6-64.8 99.8-95.5 31.3-30.7 15.7-9.2 15.7-9.2 0 0 0.6 3.9-15.7 36.2-16.1 32.3-45.8 82.5-82.5 124.6-36.7 42-129.5 99.8-142.7 103.8-13.1 4-6.7 12-5.8 18.2 0.8 6.3 14.3 27.6 30 130.7 15.5 103.2 36.5 311.1 25.2 510.7-11.4 199.7-27.4 227.9-28.2 203.7-0.7-24.1-13.8-120.7-20.2-186-6.4-65.1-22.5-168.2-38.6-223-16.1-54.7-24.2-40.2-26.6-29.7-2.5 10.4-25 66.8-64.4 154.5-39.5 87.8-110.4 203.7-124.1 229.6-13.7 25.7-54 90-50.8 67.6 3.4-22.6 43.2-125.1 81.2-244.8 37.9-119.6 51.1-199.8 59.8-310.8 8.8-110.9-28.8-242.2-35.5-267.3-6.6-25-32.8-10.5-58.3 2.2-25.6 12.8-73.5 51.2-94.6 70.6-21 19.5-57.7 52.3-93.4 82.8-35.5 30.6-8.2-6.1-8.2-6.1 0 0 27.9-43.4 47.1-69.6 18.9-26.3 78-109.5 136.9-155.9 59.1-46.3 93.9-71.4 93.9-99.2 0-27.8-12.7-40.9-42.4-70.6-29.8-29.7-25.5-65.1-3.9-98.5 21.7-33.4 55.1-36.4 79.7-46.9 15.1-6.5 22.3-19.8 25.5-29.1z"/>
			<path id="&lt;Path&gt;" class="s0" d="m109.9 1444.5c-1 0.6 213-77.1 709-62.9 453.8 29.3 321.4 43.3 285.7 40.3-93.9-2.1-208.3 10-462 44.2-253.7 34.2-511.1 64.8-592.1 54-81-10.8-44.5-36.5-22.3-45.7 22-9.3 82.8-30.4 81.7-29.9z"/>
		</g>
	</g>
</svg>