<svg version="1.2" xmlns="http://www.w3.org/2000/svg" viewBox="0 0 1540 1319" width="1540" height="1319">
	<title>wqawc2021-1-pdf-svg (2)-svg (1)-svg</title>
	<style>
		.s0 { fill: #09b69e } 
	</style>
	<g id="#09b69eff">
		<path id="Layer" fill-rule="evenodd" class="s0" d="m599.2 1.7c42.5-0.6 84.9 0.1 127.3-0.4 30.4-0.3 60.8 0.4 91.2-0.4 18.2 0.2 36.3 0.3 54.4 0 25.1 0.5 50.3-0.1 75.4-0.1 13.9-0.2 27.9 0.3 41.8-0.1q19.3 0.4 38.5-0.1 21.2 0 42.5 0c-64.6 117.2-129.1 234.5-193.6 351.8-28.7-13.7-57.2-28-85.8-41.9-16.1-7.7-32.1-15.7-48.1-23.5 15.3-24.7 30.5-49.5 45.8-74.3 8.3-13.2 16.2-26.8 24.8-40-45.9 0.2-91.8 0.1-137.7 0.1 50 86.7 99.8 173.6 149.9 260.2-29.6 53-59 106.1-88.8 159.1-110.8-196.8-222-393.4-332.8-590.2 49.2 0 98.4 0 147.6-0.4 15.9 0.3 31.8 0.1 47.6 0.2zm-576.2 577c109.3-180.4 218.5-360.8 327.8-541 67.7 116.9 135.7 233.7 203.4 350.6 1 2 2.1 3.9 3.4 5.7-39.3 21.5-78.5 43.3-117.7 65.1-2.2 1.2-4.6 2.2-6.6 3.8 25.5-0.4 51 0.3 76.5-0.4 28.5 0.3 57-0.1 85.5-0.1 30 51.7 60.2 103.2 90.2 154.9-14.5-0.1-29.1 0-43.6-0.1-34.8-0.8-69.7-0.1-104.6-0.4-41.3 0.3-82.5-0.6-123.8-0.1q-31.8-0.3-63.6 0.1c-19-0.5-38-0.4-57-0.4-23.1 0.2-46.3-0.2-69.4 0.1-14.2 0.1-28.5-0.4-42.7-0.3-60.2 0-120.3 0.1-180.5-0.1 7.3-12.6 15.2-24.9 22.7-37.4zm332.3-238.9c-24.2 41.1-48.1 82.3-72.2 123.4 27.6 0.1 55.1 0 82.7 0 5.8 0.1 11.7-0.6 17.5-0.2 16.3 0 32.6-0.1 48.9 0.1-9.3-14.2-17.9-28.8-27-43.1-16.7-26.7-33.3-53.5-49.9-80.2zm-353.9 331.6c23.5 0.1 47.1-0.2 70.6 0.2q58.6 0 117.2 0c48.5 0.5 97.1 0 145.6 0.3 31.8 0.3 63.6 0.1 95.5 0.2-0.6 52.1-1.3 104.3-1.9 156.5q-79.3 0-158.7 0 37.5 70.8 75.1 141.7c60.2-99.6 120.1-199.3 180.3-298.9q90 0 180 0c-120.3 204.6-240.4 409.4-360.7 614-0.2 0-0.6 0-0.7 0-65.2-116.9-130.4-233.8-195.5-350.6-48.9-87.9-98-175.5-146.8-263.4zm779.4 0.2q368.4 0 736.8 0c-34.8 58.6-69.3 117.4-104.1 176-32.3 55-65 109.8-97.3 164.7-58.2 98.1-116 196.4-174.2 294.4-34.1-60.8-68.8-121.3-103.2-182q-48.5-85.4-97.1-170.8c-7.4-13.4-15.2-26.5-22.5-39.9 35.7-20.2 71-41.2 106.6-61.4 10.8-6.8 22.2-12.5 33-19.2 16.9 28.4 33.2 57.3 49.8 85.9 13.8 23.7 27.5 47.5 41.3 71.2 30.3-53.2 60.2-106.6 90.5-159.8-24.8-0.1-49.7 0.3-74.5 0.2-22.3 0.4-44.7 0.1-67 0.2-20.1 0.5-40.1-0.1-60.2 0.4-21.2 0-42.5-0.2-63.7 0.2-34.3-0.1-68.7 0.4-103 0.2-30.4-53.4-60.9-106.8-91.2-160.3zm-121.8 201.4c27.6-50.5 55.3-101 82.9-151.6 99.7 176.1 199.4 352.1 299.1 528.2 13.1 23 26 46.1 39.2 69-227.1-0.1-454.1 0.1-681.2-0.1 70.6-122.5 141.3-245 212-367.5 42.4 22.2 84.9 44.4 127.4 66.5-25.9 52.4-51.8 104.8-77.8 157.1 13-0.1 26 0.1 39 0 12.9-0.4 25.7-0.1 38.6-0.2 8.3 0.1 16.7-0.4 25-0.2 21.1 0.1 42.1-0.2 63.2-0.2-55.8-100.4-111.8-200.5-167.4-301zm395.7-695.5q51.4-88.4 102.8-176.7c32.6 59.5 68.3 117.2 103.9 174.8 35.3 56.4 71.1 112.4 107.3 168.2 16.7 25.7 33.7 51.2 49.7 77.4q55.6 89.7 111.1 179.4c3.5 5.5 6.6 11.2 10.5 16.4v0.4c-17.8-0.4-35.7-0.1-53.5-0.2-135 0-269.9 0.1-404.8 0-0.1-56.3-0.4-112.5-0.5-168.8q75.9 0 151.9 0c-26.9-40.6-53.9-81.1-80.7-121.6q-87.5 145.3-175.1 290.5c-59.6-0.2-119.2 0.1-178.8-0.2 51.6-88.5 103.2-177.1 154.8-265.6 33.9-58 67.4-116.1 101.4-174z"/>
	</g>
</svg>