<svg version="1.2" xmlns="http://www.w3.org/2000/svg" viewBox="0 0 1519 765" width="1519" height="765">
	<title>as-logo-svg</title>
	<style>
		.s0 { fill: #0277c1 } 
		.s1 { fill: #ee2d24 } 
	</style>
	<g id="#0277c1ff">
		<path id="Layer" class="s0" d="m681.7 18.5c31.5-16.2 68.3-22 103.2-16 34.7 5.5 67.1 22.7 92.5 46.8 40.6 37.6 65.3 90.5 73 144.8 8.4 60.4-2 124.1-33.7 176.6-24.2 40.7-61.7 74.6-107.1 89.7 79.1-51.2 123-151 108.8-244.1-7.3-53.1-32.1-104.8-72.9-140.3-34.2-30.5-81.9-47.6-127.8-40.4-55.5 9.2-102.6 46.9-134.2 92.1 19.3-46 53.3-86.7 98.2-109.2z"/>
		<path id="Layer" fill-rule="evenodd" class="s0" d="m299.2 544.6c18.1-7.4 38.9-7.2 57.2-0.7 16.1 6.1 29.2 17.8 41 30-11.3 9.2-22.3 18.5-34.1 26.9-9.4-10.9-21.5-22.9-37.2-21.4-8.7-0.4-19.7 6.9-17.5 16.6 2.1 5.7 6.9 9.8 11.3 13.8 18.1 15.5 37.8 28.9 56.1 44.2 12.9 11.5 24.6 26.6 25.1 44.6 1.3 14.5-2.5 29.7-12.3 40.7-14.3 17.7-38 25.4-60.3 24.7-20.4 0.4-41.5-6.3-56.2-20.9-8.2-7.4-14.3-16.7-19.7-26.1 12.9-6.9 25.3-15 38.9-20.4 6.8 11.5 16.4 22.3 29.6 26.2 12.9 4.3 29.5-0.9 35.3-13.8 3-10.4-4.8-19.4-12-25.8-21.3-17.9-45.4-32.7-64.4-53.2-10.8-11.8-18.6-28-15.5-44.2 2.7-19 17.8-33.7 34.7-41.2zm518.5 9c19.1-15.3 46-17.9 68.9-10.7 17.5 5.5 31.5 18.1 44.1 31-11.2 9-22.3 18.2-33.7 27-9.6-10.6-21.4-22.6-36.9-21.6-9.2-0.9-20.5 7-18 17.1 4.2 10 14.2 15.5 22 22.4 20.1 16.6 43.3 30.1 59.6 50.9 17.2 22.2 14.2 57.3-7.2 75.7-20.4 18.5-50.1 21.7-76.1 16.4-24-5.5-43.9-23.2-54.3-45.2 12.9-6.6 25.1-14.2 38.2-20.3 8.5 13.1 20 26.5 36.6 27.9 13.2 1.1 31.4-7.5 29.3-23-2.6-10.8-12.1-17.6-20.2-24.3-19.3-14.9-39.6-28.7-56.3-46.6-9.2-10-16.5-22.9-16.2-36.8-0.5-15.7 7.8-30.8 20.2-39.9zm232.8-11.8c26.4-5 54.5-3.2 79.3 7.7 24.5 10.9 45.6 29.8 58.2 53.5 15.1 29 15.5 65 1.9 94.7-15.7 32.3-47.3 55.8-82.2 63.5-23.5 4.5-48.5 4.1-71.4-3.3-39.5-12.3-72.6-46.8-79.4-88.2-1.6-18.6-1.9-38.1 5.3-55.8 14.2-37.4 49.7-63.9 88.3-72.1zm13.8 38.2c-18.7 2.6-36.5 12.5-48.2 27.4-21.1 25.9-20.6 67.5 2.8 91.9 19.5 20.8 50.4 29.4 78 22.8 31.4-7 58.5-36.6 56.8-69.8 1.8-28.1-17.2-54.4-42.2-65.8-14.5-7.4-31.2-8.2-47.2-6.5zm-973-36.1c15-0.2 29.9 0.1 44.9-0.2 31.1 71.6 61.9 143.3 92 215.3-15.6 0.4-31.2 0.2-46.8 0.1-6.2-14.9-12.6-29.6-18.6-44.5-32.2 0.1-64.3-0.2-96.4 0.1-6.1 14.9-12.8 29.6-18.9 44.4-15.7 0.1-31.4 0.2-47.1-0.1 30-71.8 60.8-143.3 90.9-215.1zm-8 131.2c20.7-0.1 41.4 0.1 62.1 0-9.2-24.4-20.6-48-30.6-72.1-11.5 23.5-21.4 47.9-31.5 72.1zm356.7-131.3c14.8 0.1 29.7 0 44.5 0.1 0.4 71.7 0 143.5 0.1 215.2-14.8 0.1-29.7 0-44.6 0 0.1-71.8 0-143.5 0-215.3zm154.4 50.1c7.5-16.7 13.8-33.9 21.9-50.2 14.7 0.2 29.4 0.3 44 0 31.9 71.4 61.2 143.9 92.7 215.5q-23.8 0.1-47.6-0.2-9.1-22.3-18.5-44.4c-32.1 0-64.1-0.1-96.2 0.1-6.1 14.9-12.8 29.5-19 44.4-15.7 0-31.4 0.1-47.1 0 22.9-55.2 46.7-110.1 69.8-165.2zm44.3 9c-10.9 23.8-21.2 47.9-31.2 72.1 20.7 0.2 41.4 0.1 62.1 0.1-9.3-24.5-20.3-48.3-30.9-72.2zm587.2-59c39.2-0.1 78.3 0 117.5 0q0.1 20.2 0 40.5-36.5 0-72.9 0c0 12.6 0.1 25.1 0 37.7 24.2 2.3 48.6 0.7 72.9 1.1 0 13.3 0 26.6 0 39.8-24.3 0-48.6-0.1-72.9 0.1q0 48 0 96.1c-14.9 0-29.7 0-44.6 0 0.1-71.8 0-143.5 0-215.3zm162 40.5c0-13.5 0-27 0-40.4 43.5-0.3 86.9-0.1 130.3-0.1q0.4 20.3 0 40.5c-14 0-28.1 0.1-42.1-0.1-0.1 58.3-0.1 116.6-0.1 174.9-15.3 0-30.7 0-46.1-0.1q0-87.3 0-174.6c-14-0.2-28 0-42-0.1z"/>
	</g>
	<g id="#ee2d24ff">
		<path id="Layer" class="s1" d="m607.2 134.5c24.9-33.8 63.3-59.2 105.7-63.1 15.8-1.9 31.6 0.7 47.2 2.8-16.6 3.9-33.7 6.7-49.1 14.4-48 22.8-81 69.8-95.4 120-2.1 8.2-5.6 16.6-4 25.2 3.2 4.3 8.7 3.2 13.4 3.4 35.1 0 70.3 0 105.5 0 12.3-0.1 25.5 4 33.1 14.2 5.4 6.1 7.1 14.2 7.8 22-4.7 1.2-9.3 2.6-14.2 2.3-50.2-0.2-100.5 0.1-150.7-0.1-0.1 51 16.6 102.7 49.7 141.8 14.3 17.8 33.2 31.1 52.4 42.9-41.7-6.2-78.5-31.5-102.9-65.3-54.1-75.5-53.6-185.6 1.5-260.5z"/>
	</g>
</svg>