<svg version="1.2" xmlns="http://www.w3.org/2000/svg" viewBox="0 0 1610 467" width="1610" height="467">
	<title>Asos-svg</title>
	<style>
		.s0 { fill: #ffffff } 
	</style>
	<path id="Layer" fill-rule="evenodd" class="s0" d="m1225.3 345q-4.1 7.3-8.6 14.3-4.6 7.1-9.6 13.7-5.1 6.7-10.6 13-5.5 6.4-11.4 12.3-7.9 8-16.6 15.2-8.7 7.3-18 13.6-9.4 6.4-19.3 11.7-9.9 5.4-20.3 9.8c-27.6 11.6-57 17.5-87.5 17.5h-2.6c-64.3-0.7-121.1-24.2-164.5-67.8q-4.2-4.2-8.1-8.5-4-4.4-7.7-8.9-3.7-4.5-7.2-9.3-3.5-4.7-6.8-9.5c-18.2 78.5-110 104.1-189.6 104.1-47.6 0-144.8-4.8-182.9-94.4v75q0 1.5-0.6 2.9-0.6 1.4-1.7 2.5-1 1-2.4 1.6-1.4 0.6-2.9 0.6h-81c-4.2 0-7.6-3.4-7.6-7.6v-22.3c0-3.7-2.4-4.9-5.4-2.6-26.7 21-67.6 44.2-122.1 44.2-31.7 0-61.4-5.7-88.4-16.9-27-11.2-52-28.4-74.4-50.9-22.4-22.5-39.5-47.8-50.6-75.1-11.2-27.3-16.9-57.5-16.9-89.7 0-34.5 6.4-66.6 19-95.3 12.7-28.7 31.9-54.9 57.2-77.9 22.2-20 46.5-35.2 71.9-45.2 25.5-10 53-15.1 81.8-15.1 51.2 0 93.8 22.4 122.6 43.3 2.9 2.1 5.3 0.8 5.3-2.7v-21.2q0-1.5 0.6-2.9 0.6-1.4 1.6-2.5 1.1-1.1 2.5-1.7 1.4-0.5 2.9-0.5h81q1.5 0 2.9 0.5 1.4 0.6 2.4 1.7 1.1 1 1.7 2.4 0.6 1.4 0.6 2.9v78.7c18.8-79.2 105.1-98 177.6-98 78.1 0 162.7 28.3 181.3 127.5 12.5-24.5 30-47.1 52.1-67.2q7.9-7.2 16.5-13.6 8.5-6.5 17.5-12.1 9.1-5.6 18.6-10.4 9.6-4.8 19.5-8.8c26.1-10.2 53.5-15.4 81.6-15.4h1.9c58.7 0.5 112.5 21.4 155.7 60.3 23.4 21.2 41.6 45.3 54.1 71.4q0-5.5 0.4-11.2c6.7-98.3 102-120.5 181.1-120.5 79.2 0 165.3 29.1 182.1 132 0.8 4.7-1.2 8.1-7.8 8l-85.9-0.7c-5.3 0-7.4-3.4-8.2-8-5.5-28.2-25.7-57.4-73.4-60.8-52.4-3.8-79.6 18.3-79.6 48.6 0 43.1 46.3 54.8 106.8 67.5 51.4 10.3 154.2 35.3 163.6 134.1 8.5 111.2-100.1 145.5-192.3 145.5-52 0-163.1-5.6-191.9-121.2zm-418.2-205c-0.3 0-0.7 0-1.1 0l-85.9-0.7c-5.3 0-7.5-3.4-8.2-8-5.6-28.2-25.7-57.4-73.5-60.9-52.3-3.7-79.5 18.4-79.5 48.7 0 43.1 46.2 54.8 106.8 67.5 32.7 6.6 86.2 19.1 123.2 52.8 0-2-0.1-4-0.1-5.9 0-33.9 6.2-65.3 18.3-93.5zm-84.7 188.4c0-53.7-90.8-61.6-143.1-74.1-78.3-17.6-114.4-47.4-125.3-90.4v146.7l83.1 1.2c4.1 0.1 6.7 2.3 7.6 7.8 10.6 57.1 56.4 71.8 97.9 71.8 52.2 0.9 79.8-25.5 79.8-63zm-366.3-94.9c0-133.6-91-145.9-126.9-145.9-82.8 0-128.9 71.8-128.9 145.9 0 94.5 61.4 147.2 128.5 147.2 32.3 0 127.3-13.2 127.3-147.2zm895.1-27.1q0.4 4.5 0.7 9 0.4 4.5 0.5 9 0.2 4.6 0.2 9.1c0 27.4-4.2 53.3-12.3 77.3l77 1c4.2 0.1 6.8 2.3 7.6 7.8 10.6 57.1 56.4 71.9 98 71.9 52.2 0.8 79.8-25.6 79.8-63 0-53.7-90.9-61.7-143.2-74.2-55.9-12.6-90.4-31.4-109.4-56.8q0.6 4.4 1.1 8.9zm-102.1 27.1c0-43-13.3-81.9-36.7-106.8-24.3-25.8-55.2-39.1-91.7-39.2-36.5 0.1-67.4 13.4-91.8 39.2-23.3 24.9-36.7 63.8-36.7 106.8 0 44 13.3 83.4 36.3 108.1 24.2 25.9 55.2 39 92.2 39 37 0 68-13.1 92.1-39 23.1-24.7 36.3-64.1 36.3-108.1z"/>
</svg>