<svg version="1.2" xmlns="http://www.w3.org/2000/svg" viewBox="0 0 1139 1515" width="1139" height="1515">
	<title>logo (29)-eps-svg</title>
	<style>
		.s0 { fill: #ffffff } 
	</style>
	<g id="Page 1">
		<path id="Path 1" fill-rule="evenodd" class="s0" d="m233.8 1362.5c0 48.6 19.5 71.3 71.4 84.3 51.9 16.2 90.8 3.2 90.8 38.9q0 29.2-38.9 29.2c-13 0-64.9-9.8-155.7-9.8-29.2 0-64.9 6.5-107.1 6.5-71.3 0-94.1 3.3-94.1-32.4 0-32.4 35.7-19.5 74.7-35.7 35.6-16.2 61.6-64.8 84.3-142.7l363.4-1235.4c16.2-42.2 22.7-64.9 45.4-64.9 22.7 0 32.4 13 42.2 48.7l347.1 1170.6c38.9 123.2 55.2 197.8 97.3 220.5 35.7 22.7 84.4 12.9 84.4 42.1 0 22.7-13 26-42.2 26-19.5 0-94.1-3.3-214.1-3.3-120.1 0-188.2 6.5-201.2 6.5-25.9 0-42.1-9.7-42.1-25.9 0-29.2 25.9-22.7 68.1-32.5 48.7-12.9 58.4-22.7 58.4-61.6q0-35.6-9.7-68.1l-71.4-272.3c-16.2-58.4-26-74.6-107.1-74.6h-171.9c-84.4 0-90.9 0-110.3 71.3l-48.7 197.8q-13 58.4-13 116.8zm123.3-483.2q3.3 16.2 13 22.7 9.7 9.7 25.9 6.5h191.5c29.2 0 45.4-9.8 45.4-22.7q0-22.7-6.5-45.4l-100.6-356.7c-9.7-35.7-19.5-58.4-32.4-58.4-13 0-22.7 22.7-32.5 68.1l-84.3 298.3q-16.2 42.2-19.5 87.6z"/>
	</g>
</svg>