<svg version="1.2" xmlns="http://www.w3.org/2000/svg" viewBox="0 0 1530 1019" width="1530" height="1019">
	<title>AerSale_logo-svg</title>
	<defs>
		<clipPath clipPathUnits="userSpaceOnUse" id="cp1">
			<path d="m0.75 0.75h1528.52v1047.89h-1528.52z" />
		</clipPath>
		<linearGradient id="g1" x1="781.8" y1="200.4" x2="648.5" y2="200.4" gradientUnits="userSpaceOnUse">
			<stop offset="0" stop-color="#706f71"/>
			<stop offset=".4" stop-color="#cec9c7"/>
			<stop offset="1" stop-color="#cec9c7"/>
		</linearGradient>
		<linearGradient id="g2" x1="752" y1="205.4" x2="727.7" y2="205.4" gradientUnits="userSpaceOnUse">
			<stop offset="0" stop-color="#817f7f"/>
			<stop offset="1" stop-color="#9b9696"/>
			<stop offset="1" stop-color="#9b9696"/>
		</linearGradient>
		<linearGradient id="g3" x1="715.5" y1="228" x2="539.3" y2="228" gradientUnits="userSpaceOnUse">
			<stop offset="0" stop-color="#706f71"/>
			<stop offset=".4" stop-color="#d5d1d0"/>
			<stop offset="1" stop-color="#d5d1d0"/>
		</linearGradient>
		<linearGradient id="g4" x1="629.1" y1="246.6" x2="514.9" y2="313.1" gradientUnits="userSpaceOnUse">
			<stop offset="0" stop-color="#706f71"/>
			<stop offset=".4" stop-color="#dddad8"/>
			<stop offset="1" stop-color="#dddad8"/>
		</linearGradient>
		<linearGradient id="g5" x1="619.5" y1="267.2" x2="597.9" y2="286.4" gradientUnits="userSpaceOnUse">
			<stop offset="0" stop-color="#817f7f"/>
			<stop offset="1" stop-color="#9b9696"/>
			<stop offset="1" stop-color="#9b9696"/>
		</linearGradient>
		<linearGradient id="g6" x1="569.5" y1="294.3" x2="480.7" y2="391.9" gradientUnits="userSpaceOnUse">
			<stop offset="0" stop-color="#706f71"/>
			<stop offset=".4" stop-color="#dddad8"/>
			<stop offset="1" stop-color="#dddad8"/>
		</linearGradient>
		<linearGradient id="g7" x1="566.5" y1="319.3" x2="552.6" y2="338.5" gradientUnits="userSpaceOnUse">
			<stop offset="0" stop-color="#817f7f"/>
			<stop offset="1" stop-color="#9b9696"/>
			<stop offset="1" stop-color="#9b9696"/>
		</linearGradient>
		<linearGradient id="g8" x1="955.4" y1="767" x2="1068.6" y2="699" gradientUnits="userSpaceOnUse">
			<stop offset="0" stop-color="#706f71"/>
			<stop offset=".4" stop-color="#dddad8"/>
			<stop offset="1" stop-color="#dddad8"/>
		</linearGradient>
		<linearGradient id="g9" x1="972.8" y1="757" x2="995" y2="741.5" gradientUnits="userSpaceOnUse">
			<stop offset="0" stop-color="#817f7f"/>
			<stop offset="1" stop-color="#9b9696"/>
			<stop offset="1" stop-color="#9b9696"/>
		</linearGradient>
		<linearGradient id="g10" x1="685.9" y1="228.6" x2="659.4" y2="236.9" gradientUnits="userSpaceOnUse">
			<stop offset="0" stop-color="#817f7f"/>
			<stop offset="1" stop-color="#9b9696"/>
			<stop offset="1" stop-color="#9b9696"/>
		</linearGradient>
		<linearGradient id="g11" x1="870.3" y1="784.5" x2="1046.2" y2="784.5" gradientUnits="userSpaceOnUse">
			<stop offset="0" stop-color="#706f71"/>
			<stop offset=".4" stop-color="#d5d1d0"/>
			<stop offset="1" stop-color="#d5d1d0"/>
		</linearGradient>
		<linearGradient id="g12" x1="898.1" y1="791.7" x2="930.2" y2="782.8" gradientUnits="userSpaceOnUse">
			<stop offset="0" stop-color="#817f7f"/>
			<stop offset="1" stop-color="#9b9696"/>
			<stop offset="1" stop-color="#9b9696"/>
		</linearGradient>
		<clipPath clipPathUnits="userSpaceOnUse" id="cp2">
			<path d="m0.75 0.75h1528.52v1047.89h-1528.52z" />
		</clipPath>
		<linearGradient id="g13" x1="803.7" y1="812.5" x2="937" y2="812.5" gradientUnits="userSpaceOnUse">
			<stop offset="0" stop-color="#706f71"/>
			<stop offset=".4" stop-color="#cec9c7"/>
			<stop offset="1" stop-color="#cec9c7"/>
		</linearGradient>
		<linearGradient id="g14" x1="815.7" y1="812.4" x2="855.4" y2="812.4" gradientUnits="userSpaceOnUse">
			<stop offset="0" stop-color="#817f7f"/>
			<stop offset=".3" stop-color="#817f7f"/>
			<stop offset="1" stop-color="#9b9696"/>
		</linearGradient>
		<linearGradient id="g15" x1="732.5" y1="804.9" x2="860.2" y2="841.5" gradientUnits="userSpaceOnUse">
			<stop offset="0" stop-color="#706f71"/>
			<stop offset=".4" stop-color="#c6c1bf"/>
			<stop offset="1" stop-color="#c6c1bf"/>
		</linearGradient>
		<linearGradient id="g16" x1="754.2" y1="811.5" x2="780.8" y2="819.3" gradientUnits="userSpaceOnUse">
			<stop offset="0" stop-color="#817f7f"/>
			<stop offset="1" stop-color="#9b9696"/>
			<stop offset="1" stop-color="#9b9696"/>
		</linearGradient>
		<linearGradient id="g17" x1="674.6" y1="779.5" x2="781" y2="856.8" gradientUnits="userSpaceOnUse">
			<stop offset="0" stop-color="#706f71"/>
			<stop offset=".4" stop-color="#beb9b8"/>
			<stop offset="1" stop-color="#beb9b8"/>
		</linearGradient>
		<linearGradient id="g18" x1="686.1" y1="791.8" x2="706.1" y2="805.1" gradientUnits="userSpaceOnUse">
			<stop offset="0" stop-color="#817f7f"/>
			<stop offset=".4" stop-color="#817f7f"/>
			<stop offset="1" stop-color="#9b9696"/>
		</linearGradient>
		<linearGradient id="g19" x1="614.7" y1="734.3" x2="690.5" y2="850.9" gradientUnits="userSpaceOnUse">
			<stop offset="0" stop-color="#706f71"/>
			<stop offset=".4" stop-color="#b7b2b0"/>
			<stop offset="1" stop-color="#b7b2b0"/>
		</linearGradient>
		<linearGradient id="g20" x1="618.2" y1="750.5" x2="643.7" y2="781.6" gradientUnits="userSpaceOnUse">
			<stop offset="0" stop-color="#817f7f"/>
			<stop offset=".4" stop-color="#817f7f"/>
			<stop offset="1" stop-color="#9b9696"/>
		</linearGradient>
		<linearGradient id="g21" x1="557.9" y1="676.2" x2="616" y2="790.1" gradientUnits="userSpaceOnUse">
			<stop offset="0" stop-color="#706f71"/>
			<stop offset=".4" stop-color="#b7b2b0"/>
			<stop offset="1" stop-color="#b7b2b0"/>
		</linearGradient>
		<linearGradient id="g22" x1="852.8" y1="208.3" x2="725.1" y2="171.6" gradientUnits="userSpaceOnUse">
			<stop offset="0" stop-color="#706f71"/>
			<stop offset=".4" stop-color="#c6c1bf"/>
			<stop offset="1" stop-color="#c6c1bf"/>
		</linearGradient>
		<linearGradient id="g23" x1="826.2" y1="200.3" x2="800.5" y2="192.8" gradientUnits="userSpaceOnUse">
			<stop offset="0" stop-color="#817f7f"/>
			<stop offset="1" stop-color="#9b9696"/>
			<stop offset="1" stop-color="#9b9696"/>
		</linearGradient>
		<linearGradient id="g24" x1="910.3" y1="233.7" x2="803.9" y2="156.4" gradientUnits="userSpaceOnUse">
			<stop offset="0" stop-color="#706f71"/>
			<stop offset=".4" stop-color="#beb9b8"/>
			<stop offset="1" stop-color="#beb9b8"/>
		</linearGradient>
		<linearGradient id="g25" x1="902.2" y1="223.4" x2="871.4" y2="203.5" gradientUnits="userSpaceOnUse">
			<stop offset="0" stop-color="#817f7f"/>
			<stop offset=".4" stop-color="#817f7f"/>
			<stop offset="1" stop-color="#9b9696"/>
		</linearGradient>
		<linearGradient id="g26" x1="970.5" y1="279.7" x2="894.2" y2="162.2" gradientUnits="userSpaceOnUse">
			<stop offset="0" stop-color="#706f71"/>
			<stop offset=".4" stop-color="#b7b2b0"/>
			<stop offset="1" stop-color="#b7b2b0"/>
		</linearGradient>
		<linearGradient id="g27" x1="963.8" y1="259.8" x2="948.8" y2="240.7" gradientUnits="userSpaceOnUse">
			<stop offset="0" stop-color="#817f7f"/>
			<stop offset=".6" stop-color="#817f7f"/>
			<stop offset="1" stop-color="#9b9696"/>
		</linearGradient>
		<linearGradient id="g28" x1="1026.4" y1="336.9" x2="968.4" y2="223" gradientUnits="userSpaceOnUse">
			<stop offset="0" stop-color="#706f71"/>
			<stop offset=".4" stop-color="#b7b2b0"/>
			<stop offset="1" stop-color="#b7b2b0"/>
		</linearGradient>
		<clipPath clipPathUnits="userSpaceOnUse" id="cp3">
			<path d="m0.75 0.75h1528.52v1047.89h-1528.52z" />
		</clipPath>
	</defs>
	<style>
		.s0 { fill: #364a72 } 
		.s1 { fill: url(#g1) } 
		.s2 { fill: url(#g2) } 
		.s3 { fill: url(#g3) } 
		.s4 { fill: url(#g4) } 
		.s5 { fill: url(#g5) } 
		.s6 { fill: url(#g6) } 
		.s7 { fill: url(#g7) } 
		.s8 { fill: url(#g8) } 
		.s9 { fill: url(#g9) } 
		.s10 { fill: url(#g10) } 
		.s11 { fill: url(#g11) } 
		.s12 { fill: url(#g12) } 
		.s13 { fill: url(#g13) } 
		.s14 { fill: url(#g14) } 
		.s15 { fill: url(#g15) } 
		.s16 { fill: url(#g16) } 
		.s17 { fill: url(#g17) } 
		.s18 { fill: url(#g18) } 
		.s19 { fill: url(#g19) } 
		.s20 { fill: url(#g20) } 
		.s21 { fill: url(#g21) } 
		.s22 { fill: url(#g22) } 
		.s23 { fill: url(#g23) } 
		.s24 { fill: url(#g24) } 
		.s25 { fill: url(#g25) } 
		.s26 { fill: url(#g26) } 
		.s27 { fill: url(#g27) } 
		.s28 { fill: url(#g28) } 
		.s29 { fill: #3059b0 } 
		.s30 { fill: #8e98d4 } 
	</style>
	<g id="layer1">
		<g id="g40166">
			<g id="g36905">
				<g id="Clip-Path: g36907" clip-path="url(#cp1)">
					<g id="g36907">
						<g id="g36913">
							<path id="path36915" class="s0" d="m348.9 294.9c64.7-169.6 236.3-290.9 437.9-290.9c201.5 0 373.2 121.3 437.9 290.9h-186.9c-59.9-123-191.3-208.4-343.8-208.4c-152.5 0-283.8 85.4-343.7 208.4z" />
						</g>
						<g id="g36917">
							<path id="path36919" class="s0" d="m325.7 726.8c59.8 122.9 191 208.2 343.4 208.2c152.3 0 283.7-85.3 343.5-208.2h186.8c-64.7 169.5-236.3 290.6-437.7 290.6c-201.4 0-372.8-121.1-437.5-290.6z" />
						</g>
					</g>
				</g>
			</g>
			<g id="g36921">
				<g id="g36923">
					<g id="g36929">
						<g id="g36931">
							<path id="path36941" class="s1" d="m698.8 86c3.9 0 7.7 0.1 11.3 0.3c26.4 1.4 71.7 15.3 71.7 15.3c0 0-44.8 114.6-33.9 167c3.6 17.4 6.6 30.9 9.1 41.1q-11 2-21.5 5.1c-5.1-8.7-10.9-18.2-16.4-26c-14.7-20.8-46-48.2-47.5-83.7c-1.4-35.5 0.2-91.2-23.1-115.9c0 0 26.2-3.2 50.3-3.2z" />
						</g>
					</g>
				</g>
			</g>
			<g id="g36943">
				<g id="g36945">
					<g id="g36951">
						<g id="g36953">
							<path id="path36963" class="s2" d="m764.3 98.7c0 0-11.3 61-15.8 113c-5.2 60.2-0.5 64.7 8.4 98q-5.7 1-11.3 2.4c-7.4-15.2-19.1-44.9-17-76.6c3.1-45.6 11.6-117.6 3.6-136.7c15.5 1.2 32.1-0.1 32.1-0.1z" />
						</g>
					</g>
				</g>
			</g>
			<g id="g36965">
				<g id="g36967">
					<g id="g36973">
						<g id="g36975">
							<path id="path36985" class="s3" d="m669.4 123.1c0 0-2.1 122.1 26.5 168.2c7.8 12.5 14.2 22.5 19.6 30.6c-7.6 3.3-14.9 7-22 11.1c-5.9-4.9-12-9.6-17.7-13.7c-21.1-15-60.3-31-74.1-64.1c-13.7-33-31.7-86-62.4-102.1c0 0 31.7-15 57.1-22c25.4-7 73-8 73-8z" />
						</g>
					</g>
				</g>
			</g>
			<g id="g36987">
				<g id="g36989">
					<g id="g36995">
						<g id="g36997">
							<path id="path37007" class="s4" d="m579.6 161.5c0 0 28.4 119.2 67.6 157.6c11.1 10.8 20.1 19.4 27.5 26.2c-6.4 4.8-12.4 10-18.2 15.5c-7.3-3.6-14.9-7.2-21.9-10c-24.3-9.8-66.3-16.7-87.9-45.8c-21.6-29-52.3-76.5-86.1-85.3c0 0 27.1-21.6 50-34.1c23-12.5 69-24.1 69-24.1z" />
						</g>
					</g>
				</g>
			</g>
			<g id="g37009">
				<g id="g37011">
					<g id="g37017">
						<g id="g37019">
							<path id="path37029" class="s5" d="m586.4 179.5c0 0 10.6 57.9 36.4 104.1c17.1 30.6 32.5 45.2 51.7 61.9q-3.3 2.5-6.5 5.1c-18.8-15.1-42.6-36.3-56.9-57c-26.4-38.3-24.7-48.1-58.3-94.3c13.2-7.8 33.6-19.8 33.6-19.8z" />
						</g>
					</g>
				</g>
			</g>
			<g id="g37031">
				<g id="g37033">
					<g id="g37039">
						<g id="g37041">
							<path id="path37051" class="s6" d="m498.1 229.3c0 0 61.3 106.1 109.8 131.7c13.2 6.9 24 12.4 32.8 16.7c-5.3 6.4-10.1 13.2-14.5 20.2c-7.2-1.2-14.5-2.3-21.2-2.9c-26.1-2.5-68.4 3-97.4-18.7c-29-21.7-72-58.5-106.9-57.2c0 0 19.8-28.5 38.2-46.9c18.4-18.6 59.2-42.9 59.2-42.9z" />
						</g>
					</g>
				</g>
			</g>
			<g id="g37053">
				<g id="g37055">
					<g id="g37061">
						<g id="g37063">
							<path id="path37073" class="s7" d="m509.8 244.6c0 0 26.7 52.4 64.6 89.4c24.7 24 43.4 33.7 66.1 44q-2.7 3.2-5.2 6.6c-22.1-9.1-50.1-22.3-69.3-37.7c-36.2-29.1-37.4-39-82.7-73.7c10.4-11.3 26.5-28.6 26.5-28.6z" />
						</g>
					</g>
				</g>
			</g>
			<g id="g37075">
				<g id="g37077">
					<g id="g37083">
						<g id="g37085">
							<path id="path37095" class="s8" d="m928.4 651.4c7.5 3.8 15.3 7.4 22.4 10.3c24.3 9.9 66.4 16.7 88 45.8c21.6 29 52.3 76.6 86.1 85.3c0 0-27.1 21.7-50.1 34.1c-22.9 12.5-68.9 24.1-68.9 24.1c0 0-28.4-119.2-67.6-157.6c-11.2-10.9-20.3-19.5-27.8-26.4c6.3-4.8 12.3-10 17.9-15.6z" />
						</g>
					</g>
				</g>
			</g>
			<g id="g37097">
				<g id="g37099">
					<g id="g37105">
						<g id="g37107">
							<path id="path37117" class="s9" d="m917.1 661.7c18.9 15.1 42.9 36.4 57.3 57.2c26.3 38.3 41.5 72.6 75.1 118.8c-13.2 7.8-44.2 12.3-44.2 12.3c0 0-16.8-74.8-42.6-121c-17.2-30.8-32.6-45.4-52-62.2q3.3-2.5 6.4-5.1z" />
						</g>
					</g>
				</g>
			</g>
			<g id="g37119">
				<g id="g37121">
					<g id="g37127">
						<g id="g37129">
							<path id="path37139" class="s10" d="m677.1 129.9c0 0-8.7 60.8 1.9 112.1c8 38.7 19.2 54.6 36.5 79.9q-4 1.7-7.9 3.6c-14.1-17.3-33.4-44.5-41.6-71.1c-13.5-43.8-9.9-72.5-27.1-114.8c15-3.8 38.2-9.7 38.2-9.7z" />
						</g>
					</g>
				</g>
			</g>
			<g id="g37141">
				<g id="g37143">
					<g id="g37149">
						<g id="g37151">
							<path id="path37161" class="s11" d="m892.1 679.6c5.8 4.8 11.9 9.6 17.6 13.6c21.1 15 60.3 31 74 64c13.8 33.1 31.8 86.2 62.5 102.2c0 0-31.8 15-57.1 22c-25.4 7-73.1 8-73.1 8c0 0 2.1-122.1-26.4-168.2c-7.7-12.2-14-22.2-19.3-30.2c7.5-3.4 14.8-7.1 21.8-11.4z" />
						</g>
					</g>
				</g>
			</g>
			<g id="g37163">
				<g id="g37165">
					<g id="g37171">
						<g id="g37173">
							<path id="path37183" class="s12" d="m878.1 687.3c14 17.3 33.2 44.4 41.4 70.8c13.5 43.8 12.5 87.2 29.7 129.5c-15 3.8-40.8 1.2-40.8 1.2c0 0 8.6-67-1.9-118.3c-7.9-38.5-19.1-54.5-36.3-79.5q4-1.8 7.9-3.7z" />
						</g>
					</g>
				</g>
			</g>
			<g id="g37185">
				<g id="Clip-Path: g37187" clip-path="url(#cp2)">
					<g id="g37187">
						<g id="g37193">
							<path id="path37195" fill-rule="evenodd" class="s0" d="m313.4 654.9h-145.2v-17c6.8-0.5 14.7-2 23.8-4.2q13.7-3.4 13.7-8.4q0-1.8-0.3-3.9q-0.3-2.2-1.6-5.9l-22.7-64.2h-92q-3.2 9-7.1 21q-3.8 12-6.6 21.3q-3.6 12.3-4.3 17.7q-0.6 5.5-0.6 7.7q0 6.9 9.1 11.9q9.1 4.9 30.4 7v17h-109.2v-17q6.1-0.4 13.9-2.3q7.8-1.8 12.3-5.1q7.7-5.2 13.1-12.9q5.3-7.6 8.9-18.1q21.8-61.3 43.7-122.8q21.9-61.5 48.3-135.7h37.6q36.8 105.2 57.6 166.3q20.9 61 35.5 101.2q2.5 6.5 6.2 11.9c2.5 3.5 6.1 6.9 10.7 10.1q5.3 3.5 12.2 5.3q7 1.7 12.6 2.1zm-140-125.1l-38.7-112.2l-38.1 112.2z" />
						</g>
						<g id="g37197">
							<path id="path37199" fill-rule="evenodd" class="s0" d="m500.3 602.7c-4.4 8.3-9.6 16.1-15.8 23.4q-9.3 11.1-21.2 18.9q-12.6 8.3-25.4 12.5q-12.9 4.2-29.6 4.2q-27.8 0.1-48-9.1q-20.2-9.2-33.4-24.6q-13.1-15.6-19.6-36.6q-6.5-21.1-6.5-45.7q0-22.3 7.1-42.7q7-20.4 20-36.3q12.8-15.5 32.2-25.1q19.4-9.6 43.5-9.6q26.3 0 43.2 7.4q16.9 7.4 28 20.5q10.7 12.5 15.6 29.4q4.9 16.9 4.9 35.5v14.2h-127.1q-0.1 44.7 14.8 68q14.9 23.4 47.3 23.4q17.6 0 31.7-11.2q14.2-11.3 24.1-28.5zm-71.7-82.9q0-13.1-1.1-26.9q-1.1-13.8-4-22.5q-3.2-10.3-8.7-15.5q-5.6-5.3-14.1-5.3q-14.5 0-23.1 17.1q-8.7 17-9.4 53.9z" />
						</g>
						<g id="g37201">
							<path id="path37203" class="s0" d="m690 478.5q0 16.6-8.9 29.1q-8.8 12.6-23.3 12.6c-9.1 0-16.9-2.7-23.2-8.1q-9.5-8-9.5-23.7q0-7.6 1-11.8q0.9-4.3 1.7-8q-8.7 0.5-18.2 7q-9.5 6.5-16.8 17.3v119.6q0 7.6 2.1 12.6q2.1 5 7 7.9q4.1 2.4 13.4 4q9.3 1.6 13.5 1.8v16.1h-125.8v-16.1q4.7-0.4 9.5-1.2q4.8-0.7 8.2-2q6-2.4 8.2-7.4q2.3-5 2.3-13.1v-126.7c0-5.3-1.1-10-3.2-14.1q-3.2-6.2-7.6-9.9q-3.4-2.6-8.6-4.4q-5.1-1.7-11.3-2.4v-16l89.5-5.7l2.8 3.3v31.7h0.8q12.9-17.5 27.4-27.4q14.6-9.9 30.3-9.9q17.5 0 28.1 12.5q10.6 12.6 10.6 32.4z" />
						</g>
						<g id="g37205">
							<path id="path37207" class="s0" d="m801.4 663.4q-24.4 0-45.5-7.1q-21.2-7.1-35.8-16.7l-13 15.3h-16l-2.6-111.8h16.3q5.5 15.9 13.9 33.6q8.5 17.7 19.6 31.7c7.7 9.7 16.2 17.7 25.7 23.8q14.2 9.2 33.2 9.2q25.6 0 39.2-14.6q13.6-14.5 13.6-36.6c0-12.1-3.8-22.2-11.5-30.5q-11.6-12.3-35.9-21.3q-15.8-5.9-29.1-10.9q-13.3-5-25-10.3q-26.9-12.4-40-35.5q-13.1-23.2-13.1-51.8q0-18.1 6.8-34.8q6.8-16.7 19.7-30q12.4-12.5 31.8-20.3q19.4-7.9 42.1-7.9q22.3 0 41.6 7.2q19.4 7.2 30.5 14.4l11.5-13.1h16.2l1.6 105.6h-16.2q-5.7-17.1-13.3-34.9q-7.6-17.8-16.1-29.7q-9.2-12.6-21.2-20.2q-12.1-7.5-28.2-7.5c-13.5 0-24.6 4.4-33.2 13.3q-12.9 13.3-12.9 33q0 18.6 11.2 30.4q11.2 11.8 34.9 20.7q13.9 5.5 28.4 10.9q14.5 5.5 25.8 10.5q27.3 12.3 41.5 33.8q14.2 21.5 14.2 53.3c0 13.5-2.7 26.4-8 38.9q-8.2 18.8-21.9 31.3q-15 13.7-34.7 21.1q-19.8 7.5-46.1 7.5z" />
						</g>
						<g id="g37209">
							<path id="path37211" fill-rule="evenodd" class="s0" d="m1134.3 661.7c0 0-33-0.2-41.4-0.2q-23.1 0-34-7.9q-10.9-8-14.8-22.8h-1.1q-6.4 7.4-12.3 12.6q-5.9 5.3-12.7 9q-8.8 4.8-16.9 7.1q-8.2 2.3-22.9 2.2q-21.7 0-37.1-14.9c-10.3-10-15.4-23.2-15.4-39.6q0-14.2 3.4-24.2c2.2-6.6 5.4-12.5 9.5-17.6q5.7-7 13.1-11.5q7.4-4.6 16.2-8.6q16.9-7.2 40.6-14.9q23.6-7.8 34.5-13.9v-21c0-3.6-0.2-8.4-0.8-14.4q-0.7-9-3.1-15.1q-2.6-7-8.2-11.8q-5.6-4.8-14.8-4.8q-8.2 0-13.6 2.7q-5.5 2.8-8.9 5.6q0.6 4.4 3.2 13.3c1.8 6 2.7 11.8 2.7 17.3q0 3.7-1.7 9.3q-1.7 5.6-4.9 8.8q-4.4 4.4-9.7 6.8q-5.4 2.4-16.5 2.4q-15.9 0-24-8.8q-8.1-8.9-8.1-23.1q0-12.2 8.4-21.9q8.3-9.7 20.3-16.1q11.8-6.5 27.2-10.1q15.4-3.6 28.5-3.6c12.1 0 23.3 0.8 33.4 2.5c10.1 1.7 19.2 5.1 27.4 10.4q11.6 7.6 18.4 22.1q6.9 14.6 6.9 37.9q0 24.7-0.9 58.6c-0.5 22.6-1.7 48.6-1.7 55.7q0 9.8 2.5 15.5q2.5 5.7 7.8 8.5q3.1 1.8 10 2.1q6.8 0.3 12.4 0.3zm-91.3-125q-10.5 4.2-20.8 9.5q-10.3 5.3-16.8 11.2c-4.6 4.1-8.3 9.3-10.9 15.6q-3.9 9.5-3.9 22.4q0 17 6.6 24.6q6.7 7.7 16.4 7.7q10.3 0 17-5c4.4-3.2 8.3-7.3 11.7-12.1z" />
						</g>
						<g id="g37213">
							<path id="path37215" class="s0" d="m1252.7 661.7h-118.4v-16.1q4.9-0.4 9.5-1c3.1-0.5 5.8-1.2 8.2-2.2q6.1-2.6 8.3-7.6c1.4-3.2 2.2-7.5 2.2-12.9v-233.8q-0.1-8.3-3-15.3q-2.9-7.1-7.8-10.8q-3.7-2.8-11.3-5.5c-5.1-1.7-9.6-2.7-13.5-3v-16.1l94.8-5.7l2.8 3.5v283.8q0 8.1 2.5 13.1q2.4 5 7.9 7.9c2.5 1.3 5.2 2.5 8 3.5c2.7 1 6 1.7 9.8 2.1z" />
						</g>
						<g id="g37217">
							<path id="path37219" fill-rule="evenodd" class="s0" d="m1456.7 602.7q-6.5 12.4-15.8 23.4q-9.3 11.1-21.2 18.9q-12.5 8.3-25.4 12.5q-12.9 4.2-29.6 4.2q-27.8 0.1-48-9.1q-20.2-9.2-33.4-24.6q-13.1-15.6-19.6-36.6q-6.5-21.1-6.5-45.7q0-22.3 7.1-42.7q7-20.4 20-36.3q12.8-15.5 32.2-25.1q19.5-9.6 43.5-9.6q26.4 0 43.2 7.4q16.9 7.4 28 20.5q10.7 12.5 15.6 29.4q4.9 16.9 4.9 35.5v14.2h-127.1q0 44.7 14.9 68q14.8 23.4 47.2 23.4c11.7 0 22.4-3.8 31.8-11.2q14.1-11.3 24-28.5zm-71.6-82.9q0-13.1-1.2-26.9q-1.1-13.8-3.9-22.5q-3.3-10.3-8.8-15.5q-5.6-5.3-14-5.3q-14.5 0-23.2 17.1q-8.7 17-9.4 53.9z" />
						</g>
					</g>
				</g>
			</g>
			<g id="g37221">
				<g id="g37223">
					<g id="g37229">
						<g id="g37231">
							<path id="path37241" class="s13" d="m850.5 698.5c4.9 8.5 10.5 17.6 15.9 25.3c14.7 20.7 46 48.1 47.4 83.6c1.5 35.5-0.2 91.2 23.2 115.9c0 0-35.2 4.3-61.6 2.9c-26.4-1.3-71.7-15.3-71.7-15.3c0 0 44.7-114.6 33.9-167c-3.5-16.7-6.4-29.8-8.9-39.9c7.4-1.4 14.7-3.3 21.8-5.5z" />
						</g>
					</g>
				</g>
			</g>
			<g id="g37243">
				<g id="g37245">
					<g id="g37251">
						<g id="g37253">
							<path id="path37263" class="s14" d="m840.3 701.4c7.4 15.4 18.6 44.5 16.5 75.6c-3 45.6-11.5 127.1-3.5 146.3c-15.5-1.2-49.6-12.4-49.6-12.4c0 0 28.7-58 33.3-110.1c5.2-59.4 0.6-64.6-8.2-96.8q5.8-1.1 11.5-2.6z" />
						</g>
					</g>
				</g>
			</g>
			<g id="g37265">
				<g id="g37267">
					<g id="g37273">
						<g id="g37275">
							<path id="path37285" class="s15" d="m805.9 707c2.6 9.7 5.7 20.4 9 29.5c8.7 23.6 31.8 57.6 23.7 92.2c-8.1 34.7-24.5 88.2-8.4 117.7c0 0-35.3-4.3-60.4-11.9c-25.2-7.5-65.4-31.9-65.4-31.9c0 0 73.9-100.2 77.3-153.5c1.2-17.6 1.8-31.2 2.1-41.7c2.5 0.1 5 0.2 7.6 0.2c4.9 0 9.7-0.2 14.5-0.6z" />
						</g>
					</g>
				</g>
			</g>
			<g id="g37287">
				<g id="g37289">
					<g id="g37295">
						<g id="g37297">
							<path id="path37307" class="s16" d="m783.8 707.4c2.5 0.1 5 0.2 7.6 0.2c0.7 0 1.4 0 2.1 0c2.4 11.1 9.2 50-4.5 86.4c-16.3 43-45.5 110-43.5 130.5c-14.5-5.3-27.5-14-27.5-14c0 0 25.3-50 44.9-98.8c24.3-60.5 18.8-62.6 20.9-104.3z" />
						</g>
					</g>
				</g>
			</g>
			<g id="g37309">
				<g id="g37311">
					<g id="g37317">
						<g id="g37319">
							<path id="path37329" class="s17" d="m736.4 699.7q11.6 3.4 23.7 5.4c0.2 7.8 0.6 15.9 1.3 23c2.6 25 16.5 63.1 0 95c-16.5 31.9-45.8 80.3-37.6 112.5c0 0-33.1-12.1-55.7-25c-22.6-13-55.5-45.7-55.5-45.7c0 0 96.7-80.9 113.4-131.9c4.3-13.3 7.7-24.3 10.4-33.3z" />
						</g>
					</g>
				</g>
			</g>
			<g id="g37331">
				<g id="g37333">
					<g id="g37339">
						<g id="g37341">
							<path id="path37351" class="s18" d="m736.4 699.8l8.6 2.3c0 0-5.8 54-35.4 90.1c-29.6 36.1-63.7 78.6-68.4 98.7c-12.2-9.3-22.8-20.2-22.8-20.2c0 0 27.3-27.4 62-68c43.1-50.6 44.2-64 56-102.9z" />
						</g>
					</g>
				</g>
			</g>
			<g id="g37353">
				<g id="g37355">
					<g id="g37361">
						<g id="g37363">
							<path id="path37373" class="s19" d="m695 682.1q11.2 6.4 23.3 11.3c-1.7 5.9-3.2 11.9-4.3 17.4c-5.1 24.6-3.2 64.9-28.6 91c-25.4 26.2-68 64.7-69.8 97.8c0 0-28.2-20.5-45.9-39.1c-17.8-18.5-39.5-58.6-39.5-58.6c0 0 117-51.5 148.4-95.9c6.4-9.2 11.8-17 16.4-23.9z" />
						</g>
					</g>
				</g>
			</g>
			<g id="g37375">
				<g id="g37377">
					<g id="g37383">
						<g id="g37385">
							<path id="path37395" class="s20" d="m695 682.2l6.9 3.7c0 0-26.7 54.5-64.2 77.7c-37.4 23.2-79.5 50.3-90.4 67c-7.2-12.2-13.9-24.9-13.9-24.9c0 0 76.9-27.7 137-89.9c9.3-9.7 16.3-22.3 24.6-33.6z" />
						</g>
					</g>
				</g>
			</g>
			<g id="g37397">
				<g id="g37399">
					<g id="g37405">
						<g id="g37407">
							<path id="path37417" class="s21" d="m658.1 655c6.8 6.3 14.1 12.2 21.7 17.5c-2.1 3.4-4 6.8-5.8 10c-12.1 22.2-22.3 61.4-54.5 79.7c-32.2 18.2-84.5 43.8-96.2 75.1c0 0-20.8-27.2-32.4-49.7c-11.4-22.5-20.4-66.8-20.4-66.8c0 0 127.7-18.2 171-52.5c6.2-4.9 11.6-9.3 16.6-13.3z" />
						</g>
					</g>
				</g>
			</g>
			<g id="g37419">
				<g id="g37421">
					<g id="g37427">
						<g id="g37429">
							<path id="path37439" class="s22" d="m755.3 66.1c0 0 35.2 4.3 60.4 11.9c25.2 7.6 65.3 31.9 65.3 31.9c0 0-73.8 100.2-77.2 153.5c-1.2 18.6-1.9 32.8-2.2 43.5q-5-0.3-10.2-0.3c-3.8 0-7.7 0.2-11.5 0.4c-2.6-10.1-5.9-21.4-9.3-30.9c-8.8-23.7-31.8-57.6-23.7-92.3c8-34.7 24.4-88.2 8.4-117.7z" />
						</g>
					</g>
				</g>
			</g>
			<g id="g37441">
				<g id="g37443">
					<g id="g37449">
						<g id="g37451">
							<path id="path37461" class="s23" d="m839.9 88.1c14.6 5.2 27.6 13.9 27.6 13.9c0 0-25.4 50-44.9 98.9c-24.4 60.7-18.9 63.8-21 106l-9.2-0.3c0 0-12.2-45 4.1-88c16.3-43.1 45.5-110 43.4-130.5z" />
						</g>
					</g>
				</g>
			</g>
			<g id="g37463">
				<g id="g37465">
					<g id="g37471">
						<g id="g37473">
							<path id="path37483" class="s24" d="m861.6 76.9c0 0 33.2 12.1 55.8 25.1c22.6 13 55.5 45.6 55.5 45.6c0 0-96.8 80.9-113.4 131.9c-4.7 14.5-8.3 26.2-11.1 35.6q-11.2-3.4-23-5.5c-0.2-8.5-0.5-17.4-1.3-25.2c-2.6-24.9-16.5-63.1 0-95c16.5-31.9 45.7-80.2 37.5-112.5z" />
						</g>
					</g>
				</g>
			</g>
			<g id="g37485">
				<g id="g37487">
					<g id="g37493">
						<g id="g37495">
							<path id="path37505" class="s25" d="m944.3 121.7c12.1 9.2 22.8 20.1 22.8 20.1c0 0-25.1 29.5-60.7 69.4c-46.5 52.1-46.3 65-58 103.9l-6.9-2c0 0 4.7-56.7 34.4-92.7c29.6-36.1 63.6-78.7 68.4-98.7z" />
						</g>
					</g>
				</g>
			</g>
			<g id="g37507">
				<g id="g37509">
					<g id="g37515">
						<g id="g37517">
							<path id="path37527" class="s26" d="m969.9 113c0 0 28.1 20.4 45.9 39c17.7 18.5 39.5 58.6 39.5 58.6c0 0-117 51.5-148.4 96c-7.2 10.2-13.1 18.8-18 26.1c-7.2-4.1-14.7-7.8-22.4-11.1c1.9-6.7 3.7-13.6 5-19.9c5-24.6 3.2-64.9 28.6-91c25.4-26.1 68-64.6 69.8-97.7z" />
						</g>
					</g>
				</g>
			</g>
			<g id="g37529">
				<g id="g37531">
					<g id="g37537">
						<g id="g37539">
							<path id="path37549" class="s27" d="m1038.1 181.9c7.3 12.3 14 25 14 25c0 0-48.9 20.2-98.7 57.9c-11.9 8.9-23.7 17.6-35 28.6c-12.2 11.9-19 25-29.5 39.3l-6-3.3c0 0 27.4-57.2 64.8-80.5c37.5-23.2 79.6-50.3 90.4-67z" />
						</g>
					</g>
				</g>
			</g>
			<g id="g37551">
				<g id="g37553">
					<g id="g37559">
						<g id="g37561">
							<path id="path37571" class="s28" d="m1062.1 175.3c0 0 20.9 27.1 32.4 49.6c11.5 22.6 20.4 66.8 20.4 66.8c0 0-127.6 18.2-170.9 52.5c-7.2 5.7-13.5 10.8-19.1 15.3q-9.8-9.2-20.8-17c2.7-4.2 5.2-8.4 7.3-12.4c12.2-22.2 22.4-61.4 54.6-79.7c32.2-18.3 84.5-43.9 96.1-75.1z" />
						</g>
					</g>
				</g>
			</g>
			<g id="g37573">
				<g id="Clip-Path: g37575" clip-path="url(#cp3)">
					<g id="g37575">
						<g id="g37581">
							<path id="path37583" class="s29" d="m1199.3 726.8c-65 170.3-237.2 292-439.5 292c-202.4 0-380.8-127.5-445.8-297.8h187.6c60.1 123.4 198.2 215 351.3 215c153.1 0 284.9-85.7 345-209.2z" />
						</g>
						<g id="g37585">
							<path id="path37587" class="s30" d="m1201.8 726.8c0 0.6-0.1 1.1-0.4 1.6c-66 135.7-210.6 223.3-368.3 223.3c-157.8 0-302.4-87.6-368.5-223.3c-0.3-0.6-2.7-6.5-2.9-7.4h10.8c65 132.4 206.3 223.2 360.6 223.2c154 0 295.2-85.3 360.3-217.4z" />
						</g>
						<g id="g37589">
							<path id="path37591" class="s29" d="m318.9 377.8c46.9-215.6 238.7-377 468.3-377c199.1 0 369.8 121.3 442.2 294.1l-11.4 0.1c-65.1-125.1-195.8-210.5-346.6-210.5c-182.1 0-335 124.6-378.3 293.3z" />
						</g>
						<g id="g37593">
							<path id="path37595" class="s30" d="m455.8 377.8c45.1-178.6 206.9-310.8 399.5-310.8c161.4 0 301.1 92.8 368.7 227.9h-6.1c-67.5-131.5-203.4-221.4-360-221.4c-187.8 0-345.7 129.1-391.9 304.3z" />
						</g>
						<g id="g37597">
							<path id="path37599" fill-rule="evenodd" class="s0" d="m1529.3 404q0 17.9-12.8 30.7q-12.8 12.8-30.7 12.8q-18 0-30.8-12.8q-12.7-12.8-12.7-30.7q0-17.9 12.7-30.7q12.8-12.8 30.8-12.8q17.9 0 30.7 12.8q12.8 12.8 12.8 30.7zm-6.2 0q0-15.4-11-26.4q-10.9-10.9-26.3-10.9q-15.4 0-26.4 10.9q-11 11-11 26.4q0 15.4 10.9 26.4q11 11 26.5 11q15.3 0 26.3-11q11-11 11-26.4zm-16.8 25.3h-8.3l-9.7-21.5h-13.9v21.5h-7.5v-50.6h21.4q8.6 0 12.9 4.5q4.3 4.4 4.3 9.9q0 4-2.3 7.7q-2.4 3.7-7.4 5.2zm-31.9-27.5h13.1q5.2 0 7.7-2.5q2.5-2.6 2.5-6.4q0-3.9-2.7-5.9q-2.6-2-6.7-2h-13.9z" />
						</g>
					</g>
				</g>
			</g>
		</g>
	</g>
</svg>