<svg version="1.2" xmlns="http://www.w3.org/2000/svg" viewBox="0 0 1531 473" width="1531" height="473">
	<title>Actelis-svg</title>
	<style>
		.s0 { fill: #21a3ce } 
		.s1 { fill: #ffffff } 
	</style>
	<g id="g10">
		<g id="g12">
			<path id="path16" class="s0" d="m519.7 259.4c-243.2 65.1-510 86.1-519.2 35.7-2.8-15.2 17.7-40.4 54.6-64.1-1.9-3.6-3.1-7.6-3.1-12 0-14 11.4-25.4 25.4-25.4 14.1 0 25.5 11.4 25.5 25.4 0 14.1-11.4 25.5-25.5 25.5-7.2 0-13.7-3.1-18.3-7.9-14.1 15-33.2 38.4-24.9 44 33.9 23 220.6 5.6 472.3-62.9 251.7-68.6 417.4-143.7 439.3-185.2 11.2-21.4-10.4-20.9-63.7-20-14 0-46.5 0.9-46.5 0.9l-23.6 1.1c131.4-19.6 163-20.1 170 8.6 8.1 33.6-17.3 117.2-462.3 236.3z"/>
			<path id="path18" fill-rule="evenodd" class="s1" d="m978 416h11.9l29.2 36.7v-36.7h12.7v55.7h-12l-29.2-36.5v36.5h-12.6zm131.3 38.1h-40q0.8 4.4 4.6 7 3.7 2.6 9.6 2.6 6.9 0 11.9-4.1l10.5 4.1q-3.9 4.7-9.4 6.9-5.4 2.2-12.9 2.2-11.7 0-19-6.1-7.3-6.1-7.3-15.3 0-9.4 7.3-15.6 7.3-6.2 18.3-6.2 11.7 0 19.1 6.2 7.3 6.2 7.3 16.4zm-12.3-8.2q-1.3-3.3-4.9-5.4-3.7-2.1-8.5-2.1-5.2 0-9.1 2.3-2.5 1.5-4.6 5.2zm38.1-30.6h12.4v15.2h7.4v8.7h-7.4v32.5h-12.4v-32.5h-6.4v-8.7h6.4zm34.9 15.3h12.1l10 23.5 10.8-23.5h7.4l10.5 23.2 10-23.2h12.1l-17.9 41.2h-7.9l-10.7-23.5-10.8 23.5h-7.8zm117.5-1q7 0 13.2 2.9 6.1 2.9 9.6 7.9 3.5 5 3.5 10.8 0 5.8-3.5 10.9-3.5 5-9.5 7.8-6.1 2.9-13.3 2.9-10.7 0-18.2-6.3-7.5-6.3-7.6-15.3 0-9.6 8.6-16 7.4-5.6 17.2-5.6zm0.2 9.7q-5.7 0-9.6 3.4-3.8 3.3-3.8 8.5 0 5.4 3.8 8.8 3.8 3.4 9.6 3.4 5.8 0 9.7-3.4 3.8-3.4 3.8-8.8 0-5.3-3.8-8.6-3.8-3.3-9.7-3.3zm47.4-8.7h10.8v5.2q1.7-3 4.5-4.6 2.8-1.6 6.1-1.6 2.4 0 4.9 1l-3.8 9q-2.1-0.9-3.5-0.9-2.8 0-4.7 2.9-2 3-2 11.6l0.1 2v16.6h-12.4zm46.8-16h12.4v33l18.3-17h15.5l-21.1 19.5 24 21.7h-15.6l-21.1-19v19h-12.4zm98.4 21.8l-7.7 6.4q-4.6-3.8-8.4-3.8-2.1 0-3.3 0.7-1.2 0.8-1.2 1.8 0 0.9 0.8 1.6 0.7 0.7 3.7 1.9l4.5 1.9q7.1 2.9 9.8 5.9 2.6 3.1 2.6 7.2 0 5.5-4.8 9.1-4.9 3.6-13 3.6-10.8 0-17.2-7l7.6-6.9q2.2 2.1 5.1 3.4 2.9 1.3 5.2 1.3 2.4 0 3.9-1 1.5-1 1.5-2.3 0-2.3-5.4-4.6l-4.1-1.7q-12-5.1-12-12.6 0-4.8 4.5-8.3 4.6-3.4 11.6-3.4 4.8 0 9.1 1.7 4.2 1.8 7.2 5.1zm-546.2-123h-150c2.3 13.3 5.4 23.1 15.3 30.9 9.9 7.9 17.3 12.7 32.7 12.7q27.5 0 47.3-18.5l41.3 18.4q-15.5 20.6-37.1 30.5-21.6 9.9-51.3 9.9-46 0-75-27.2-29-27.2-29-68.2 0-42 29-69.8 28.9-27.7 72.6-27.7 46.3 0 75.4 27.5 29 27.6 29 72.8zm-64.7-38.5c0.3-8.2-2.8-17.5-10.5-22.5q-11.5-7.6-26.7-7.6-16.5 0-29 8.4c-5.2 3.6-9.9 13.2-10.2 21.7zm-264.9-114.2h60.3v55.8h30.1v44.2h-30.1v136.5h-60.3v-136.5h-30.8v-44.2h30.8zm371.9-35.9h63.2v272.5h-63.2zm159.4 4.5q15.8 0 27.1 10.1 11.3 10.1 11.3 24.5 0 14.1-11.2 24.1-11.2 10-26.8 10-16 0-27.3-10.2-11.3-10.2-11.3-24.8 0-13.9 11.2-23.8 11.2-9.9 27-9.9zm-30.5 86.9h60.6v181h-60.6zm263.4 17.7l-25.7 33c-15.3-11.6-41.1-21.5-53.6-21.5q-10.3 0-16.1 3.2c-3.8 2.2-5.7 4.9-5.7 8.2q-0.1 3.8 3.6 6.9 3.7 3.1 18.2 8.5l22.3 8.6q35.2 13.1 48.4 26.9 13.2 13.8 13.2 32.1 0 24.8-23.9 41.1-23.8 16.4-63.9 16.4-53.4 0-85.2-31.3l19.2-38.6c7.2 6.4 34.1 19.1 43.7 22.9q14.5 5.8 25.7 5.8 12.1 0 19.5-4.4 7.4-4.5 7.4-10.2 0-10.7-26.6-20.9l-20.6-7.8q-59.1-22.6-59.1-56.7 0-21.8 22.2-37.4 22.3-15.5 56.9-15.5 23.7 0 44.6 7.9 21 8 35.5 22.8zm-1071-100.5l94.1 263.9h-77.9l-69-209.8-70 209.8h-74.5l94.9-263.9zm245.7 199v50.9c-14.2 8.8-30.8 14-48.7 14-51.9 0-94.1-43.3-94.1-96.6 0-53.4 42.2-96.6 94.1-96.6 17.9 0 34.5 5.1 48.7 14v50.8c-8.3-9-19.9-14.7-32.9-14.7-25.1 0-45.3 20.8-45.3 46.5 0 25.6 20.2 46.4 45.3 46.4 13 0 24.6-5.7 32.9-14.7zm972 99.4c-8.6 0-15.6-7-15.6-15.6 0-8.5 7-15.5 15.6-15.5 8.5 0 15.5 7 15.5 15.5 0 8.6-7 15.6-15.5 15.6zm13.1-15.6c0-7.3-5.9-13.2-13.1-13.2-7.3 0-13.2 5.9-13.2 13.2 0 7.3 5.9 13.2 13.2 13.2 7.2 0 13.1-5.9 13.1-13.2zm-19.2-10.5h4.4q3.7 0 5 0.3 1.9 0.4 3.2 1.7 1.2 1.3 1.2 3.2 0 1.6-0.8 2.8-0.9 1.2-2.5 1.9-1.5 0.6-4.3 0.6l7.9 9h-2.7l-7.9-9h-1.2v9h-2.3zm2.3 2v6.6h3.7q2.2 0 3.3-0.4 1-0.3 1.6-1.1 0.6-0.9 0.6-1.9 0-0.9-0.6-1.7-0.6-0.8-1.6-1.2-0.9-0.3-3.2-0.3z"/>
		</g>
	</g>
</svg>