<svg version="1.2" xmlns="http://www.w3.org/2000/svg" viewBox="0 0 1519 237" width="1519" height="237">
	<title>11c2c419-5bde-47cc-97d8-474b391eca9f-svg</title>
	<style>
		.s0 { fill: #ffffff } 
	</style>
	<g id="#007cbaff">
		<path id="Layer" fill-rule="evenodd" class="s0" d="m550.9 5.6c19.7-6 40.7-6.8 61-3.7 18.8 2.9 37.1 9.9 52.4 21.2 5.4 4.1 10.6 8.6 14.8 13.9-14.7 14.7-29.2 29.4-43.8 44.1-10.6-14.5-28.3-23.2-46.1-23.4-12.5-0.3-25.1 3-35.4 10.1-8.8 5.9-15.6 14.5-19.8 24.2-4.8 10.8-6.3 22.9-5.1 34.6 1.1 11.5 5.2 22.7 12.1 31.9 6.6 8.7 15.9 15.5 26.3 19 10.1 3.6 21 4.1 31.5 2.6 9.1-1.4 18.1-4.8 25-10.9 6.3-5.5 10.6-13.1 12.7-21.1q-26.1-0.1-52.2-0.1 0-22.1 0-44.3 57.7-0.1 115.4 0c3.2 22.4 0.4 45.7-8.4 66.6-7.7 18.4-20.5 34.8-37 46.3-9.7 6.8-20.7 12-32.1 15.3-18 5.2-37.2 6.1-55.7 3.4-20.8-3-40.8-11.3-57.3-24.4-14.9-11.8-26.8-27.4-34.1-45-9.1-21.8-11.3-46.3-6.9-69.4 4-21.1 14-41 28.5-56.9 14.5-15.9 33.5-27.7 54.2-34zm294.7-5.4c22.7-0.6 45.7 4.4 65.6 15.5 17.9 10 33.2 24.9 43.3 42.8 20.9 36.4 20.4 83.9-1.3 119.8-11.1 18.7-27.6 34.2-46.9 44.2-20.2 10.7-43.5 15.4-66.3 14.1-21.2-1-42.1-7.2-60.1-18.5-18-11.3-32.7-27.7-41.8-46.9-10.2-21.2-13.6-45.5-10.3-68.8 2.7-19.5 10.4-38.4 22.3-54.1 12.3-16.4 28.9-29.4 47.5-37.6 15.1-6.6 31.5-10.1 48-10.5zm-6.5 58.2c-14.5 1.9-28.2 9.5-37.2 21.1-13.7 17.5-16.3 42.4-8.5 62.9 4.3 11.3 12.2 21.2 22.5 27.7 17.4 11.1 40.6 12.1 59.1 3.1 11.1-5.4 20.2-14.6 25.7-25.7 9.5-19.4 8.8-43.7-2.3-62.3-6-9.9-15.1-18-25.8-22.5-10.5-4.6-22.2-5.9-33.5-4.3zm-564.7-55q31.3 0 62.5 0 0 87.1 0 174.2 52.6 0 105.2 0 0 28 0 55.9-83.9 0-167.7 0 0-115 0-230.1zm724.9 0q32.1 0 64.2 0 30.3 60.1 60.7 120.2 30.4-60.1 60.8-120.2 30.4 0 60.8 0 0 115.1 0 230.1-30.1 0-60.2 0 0-62.5 0-125-23.3 46.1-46.6 92.2-16.4 0-32.9 0c-15.5-30.8-31-61.5-46.6-92.2q0 62.5 0 125-30.1 0-60.2 0 0-115 0-230.1zm276 230.1q45.2-115 90.4-230.1 31.2 0 62.5 0 45.2 115.1 90.4 230.1-34.6 0-69.1 0c-4.5-13.1-9-26.3-13.5-39.4q-40.7 0-81.4 0-6.8 19.7-13.5 39.4-32.9 0-65.8 0zm120-157.9c-8 23-16 46.1-23.9 69.1q23.7 0 47.5 0-11.8-34.6-23.6-69.1z"/>
		<path id="Layer" class="s0" d="m164.9 31.2q39.5 101.2 79 202.3-32.9 0-65.8 0-23.1-59-46.1-118.1c10.9-28.1 21.9-56.1 32.9-84.2z"/>
	</g>
	<g id="#279b48ff">
		<path id="Layer" class="s0" d="m89.9 3.4q32.9 0 65.8 0-27.6 70.7-55.2 141.3 11.5 0 23 0 9.5 24.3 19 48.6-30.5 0-61 0-7.8 20.1-15.7 40.2-32.9 0-65.8 0 45-115 89.9-230.1z"/>
	</g>
</svg>