<svg version="1.2" baseProfile="tiny-ps" xmlns="http://www.w3.org/2000/svg" viewBox="0 0 1595 1517" width="1595" height="1517">
	<title>ASTR_BIG copy-svg</title>
	<style>
		tspan { white-space:pre }
		.shp0 { fill: #b0b0b0 } 
		.shp1 { fill: #ffffff } 
	</style>
	<g id="g8">
		<g id="g1090">
			<path id="path1094" class="shp0" d="M290.78 1478.61C96.25 489.54 193.49 984.05 290.78 1478.61ZM235.05 766.51C108.73 673.95 3.34 592.18 0.89 584.76C-1.6 577.37 3.02 567.13 11.09 561.99C19.16 556.84 154.14 552.59 311.05 552.51L596.36 552.35L537.58 737.24C505.22 838.92 475.63 924.98 471.78 928.43C467.92 931.93 361.4 859.04 235.05 766.51ZM1117.64 924.78C1114.95 917.43 1086.76 830.61 1055.05 731.86L997.39 552.35L1278.93 552.35C1433.75 552.35 1568.09 555.28 1577.41 558.85C1586.72 562.43 1594.31 571.74 1594.31 579.57C1594.31 600.38 1123.66 941.24 1117.64 924.78Z" />
			<path id="path1092" fill-rule="evenodd" class="shp1" d="M625.95 466.61C680.88 298.58 737.29 124.94 751.38 80.72C771.22 18.48 781.5 0.33 797.04 0.33C813.62 0.33 829.24 37.91 888.22 220.07C927.37 340.91 1034.81 672.18 1126.96 956.22C1219.14 1240.27 1294.54 1479.93 1294.54 1488.85C1294.54 1497.72 1289.61 1508.08 1283.58 1511.78C1277.56 1515.51 1170.36 1444.43 1045.33 1353.84C920.34 1263.24 812.78 1185.89 806.31 1181.92C799.85 1177.98 689.03 1251.67 560.07 1345.64C431.1 1439.65 321.81 1516.64 317.19 1516.76C312.58 1516.88 305.87 1509.25 302.22 1499.77C296.16 1483.91 356.42 1291.47 625.95 466.61Z" />
		</g>
	</g>
</svg>