<svg version="1.2" xmlns="http://www.w3.org/2000/svg" viewBox="0 0 1560 1540" width="1560" height="1540">
	<title>ase holdings-svg</title>
	<style>
		.s0 { fill: #006c4e } 
		.s1 { fill: #ffffff } 
		.s2 { fill: #faef88 } 
		.s3 { fill: #f08300 } 
	</style>
	<g id="Layer">
		<path id="Layer" class="s0" d="m452.2 938.8l-160.8-55.8-291.4-110.3 262.1-127.1-176-225.7 286.4-5.2-59.5-262.9 253.2 94.5 146.1-246.3 147.4 231.6-79.8 46.4-134.9 495.1h134.9v206.7l-186.1 33.1z"/>
		<path id="Layer" class="s1" d="m1417.9 1219.2l-375-66.7 61.7 326.9-324.6-211.5-124.1 272.1-95.8-298.6-247.7 152.8 71-299.9-296.4 35.4 204.5-246.7 160.8 55.8 141.5 74.1 186.2-33.1v-206.7h-135l135-495.1 79.7-46.4 265.6-154-34 318.2 345.8-39.4-206.1 280.2 328.9 136.5-360.7 136.9z"/>
		<path id="Layer" class="s2" d="m779.9 773.7h415c-17 406.9-415 432.5-415 432.5v-149.8q-10.8 3-21.9 4.4c-179 23.5-305.9-121.6-305.9-121.6l51.6-44.6c30.5 35.1 69.5 61.8 113.3 77.7 43.8 15.8 90.9 20.3 136.9 12.8q13.2-1.8 26-5.3z"/>
		<path id="Layer" class="s3" d="m1194.9 773.1h-414.9-135l135-495.1c422.5 152.3 414.9 495.1 414.9 495.1z"/>
		<path id="Layer" class="s1" d="m829.8 593.3c-9.5-9.4-14.8-22.2-14.8-35.5 0-10 2.9-19.9 8.5-28.2 5.6-8.4 13.5-14.9 22.9-18.8 9.3-3.8 19.5-4.8 29.4-2.9 9.9 2 19 6.8 26.1 14 7.1 7.1 11.9 16.1 13.8 26 2 9.8 0.9 20-3 29.3-3.9 9.3-10.5 17.1-18.9 22.7-8.4 5.5-18.3 8.4-28.4 8.3-13.4-0.1-26.2-5.4-35.6-14.9z"/>
		<path id="Layer" class="s2" d="m595.1 507.1c10.1-0.1 19.9 2.8 28.3 8.3 8.4 5.5 15 13.4 18.9 22.7 3.9 9.2 4.9 19.4 3 29.2-1.9 9.8-6.7 18.9-13.8 26-7 7.1-16.1 12-26 14-9.8 2-20.1 1-29.4-2.8-9.3-3.8-17.2-10.3-22.9-18.6-5.6-8.3-8.6-18.1-8.6-28.1 0-6.6 1.2-13.2 3.7-19.4 2.6-6.1 6.3-11.7 11-16.4 4.7-4.7 10.2-8.5 16.4-11 6.1-2.6 12.7-3.9 19.4-3.9z"/>
		<path id="Layer" class="s1" d="m944.9 850.9l59.5 31.5c0 0-41 139.3-224.4 173.3v-75.9c140.2-31.1 164.9-128.9 164.9-128.9z"/>
	</g>
</svg>