<svg version="1.2" xmlns="http://www.w3.org/2000/svg" viewBox="0 0 1613 173" width="1613" height="173">
	<title>Atlas-SOQ_Environmental-PFAS-2-pdf-svg</title>
	<defs>
		<clipPath clipPathUnits="userSpaceOnUse" id="cp1">
			<path d="m-1235.47-486.97h3217.48v4160.96h-3217.48z"/>
		</clipPath>
	</defs>
	<style>
		.s0 { fill: #ffffff } 
	</style>
	<g id="Clip-Path: Page 1" clip-path="url(#cp1)">
		<g id="Page 1">
			<path id="Path 3" class="s0" d="m586.7 36.8h-53.1v-33.9h144.9v33.9h-53.4v21.6q-19.2 1-38.4 2.1z"/>
			<path id="Path 4" class="s0" d="m776.8 54.4q-19.2 0-38.4 0.6v-52.1h38.4zm-356 31.8l10.6 24.7q-22.6 1.9-44.2 4l-23.9 55.4h-39.2l22.9-51.5q-3.4 0.3-6.9 0.8-3.4 0.2-6.8 0.5c-209.8 22.6-333 52.5-333 52.5 0 0 117.2-45.4 343.8-76.9q3.4-0.5 7.1-0.8 3.4-0.5 6.8-1.1 19.5-2.6 40-4.9 3.4-0.6 6.8-0.8 3.4-0.6 6.8-0.8 4.5-0.5 8.7-1.1 0.3 0 0.5 0zm1192.1 86.4c0 0-116.7-27-311.7-49.1q-2.9-0.2-6.1-0.5-2.8-0.3-6-0.8 0 3.2-0.5 6.1-0.3 2.8-0.8 5.5-1.3 5-3.4 9.2-4.8 9.7-13.2 16.3-8.4 6.5-20 9.9-11.8 3.4-26 3.4-20 0-39.1-6.5-19.2-6.6-35-20.2l20.2-23.2 2.4-2.9q2.4 1.9 4.7 3.5 9.8 7.1 20 11.5 12.6 5.5 27.6 5.5 11.8 0 18.7-4.2 3.7-2.6 5.5-6.3 1-2.3 1-5.5v-0.2q0-3.5-1.3-5.8-4.2-0.6-8.6-1.1-11.9-1-24-2.1-17.1-1.6-34.4-3.1-8.4-0.8-16.8-1.3-38.4-3.2-79.7-5.8-3.4-0.3-6.8-0.5-3.4-0.3-6.8-0.6l29.7 66.5h-40.3l-29.7-68.6q-14.2-0.8-28.6-1.3h-4.7l11.5-28.4q1.6 0 3.2 0.3 3.4 0 6.8 0.3 20 1.3 39.4 2.6 3.5 0.3 6.9 0.5 3.4 0.3 6.8 0.5 41.8 3.2 80.7 7.1 4.2 0.6 8.2 1.1 5 0.5 9.7 0.8 59.9 6.7 112 14.2 3.6 0.5 7.3 1 3.4 0.5 6.9 1.1c205 31.2 314.3 71.1 314.3 71.1zm-451-100.3q-4.2-8.4-4.2-20.7v-0.6q0-11.5 4.4-20.7 4.5-9.2 12.7-15.8 8.1-6.8 19.1-10.2 11.3-3.7 24.7-3.7 19.2 0 35.5 5.5 16.1 5.5 29.5 15.8l-20 27.8q-11.6-7.9-22.9-12.1-11.3-4.4-22.6-4.4-11 0-16.8 4.2-5.5 4.2-5.5 10.2 0 0.5 0 1.3 0 0.3 0 0.5 0 0.6 0.2 1.1 0.3 2.6 1.4 4.7 1.5 2.9 5.7 5.3 4.5 2.6 11.9 4.7 7.3 2.1 18.6 5 13.2 3.4 23.7 7.6 8.7 3.4 15.2 8.2-24.7-3.5-51.7-6.6-28.2-3.7-58.7-6.8 0 0-0.2-0.3z"/>
			<path id="Path 5" class="s0" d="m993.1 84.9l-9.7 22.9-27.1 62.5h-39.2l32.4-72.3q-0.3 0-0.3 0-3.4 0-6.6 0-3.1-0.2-6.5-0.2c-44.2-1.3-89.9-2.1-137-2.1q-5.2 0-10.2 0-2.9 0-6.1 0-2.9 0-6 0v5.7 5.8 30h87.2v33.1h-125.6v-62.5-5.8-6.1q-2.9 0.3-6.1 0.3-3.1 0-6 0-45.7 0.8-88.8 2.4-3.2 0-6.4 0.2-2.8 0-6 0.3v5.8 5.7 59.7h-38.4v-58.1-5.8-5.7q-2.9 0-6 0.2-2.9 0.3-6.1 0.3-41.5 2.1-80.7 4.7-3.1 0.3-6.3 0.5-3.1 0.3-6 0.6l27.8 63.3h-40.2l-25.7-60.4-8.7-20.3-18.7-43.6-12.9 30.5q-19.9 2.4-39.7 5l35.5-79.9h35.5l35 79.4q0.2 0 0.2 0 3.2-0.3 6.4-0.6 3.1-0.2 6.3-0.5 44.1-4.2 92.2-7.1 3.2-0.2 6.1-0.2 3.1-0.3 6-0.6 18.9-1 38.4-2.1 3.2 0 6-0.2 3.2 0 6.4-0.3 42.8-1.8 88.8-2.6 2.9-0.3 6-0.3 3.2 0 6.1 0 18.9-0.3 38.4-0.5 3.1 0 6 0 3.2 0 6.1 0 5 0 10.2 0c52.3 0 102.3 1 149.8 2.9q3.2 0.2 6.6 0.2 3.2 0.3 6.3 0.3 0.3 0 0.8 0l29.5-67.8h35.4l27.4 61.8q-19.5-1.6-39.4-2.7l-1.1-2.6-5.3-12.1z"/>
		</g>
	</g>
</svg>