<svg version="1.2" xmlns="http://www.w3.org/2000/svg" viewBox="0 0 1688 366" width="1688" height="366">
	<title>ct-logotype-red-svg</title>
	<style>
		.s0 { fill: #ffffff } 
		.s1 { fill: #e42616 } 
	</style>
	<g id="#ffffffff">
		<path id="Layer" class="s0" d="m1444.6 112.6c6.5-7 15.6-12.4 25.4-12.3 8.5-0.3 16.7 4 22.5 10.1 7.3 7.6 11.5 17.8 13.4 28 3.1 17.2 0.2 35.6-8.7 50.8-4.4 7.5-10.5 13.9-18 18.3 5.9-10.8 8.3-23.2 9-35.5 0.4-9.2-0.6-18.5-3.1-27.4-2.1-6.7-5-13.6-10.7-18-3.5-2.8-8.7-3.3-12.7-1.2-6.3 3.3-10.1 9.8-12.9 16.1-8.3 20.5-8.5 44.2-0.8 64.9-13.4-9.6-19.8-26.4-20.5-42.5-0.9-18.3 4.5-37.6 17.1-51.3z"/>
		<path id="Layer" class="s0" d="m1371.2 136.2c5.5-4 11.9-7.2 18.9-7.4 6.9 0.9 13.5 5 16.8 11.3 5.3 9.6 5.2 21.1 4.2 31.7-9-4.5-18.8-8.2-29-7.6-13.6-0.4-26.2 7.3-34.5 17.6 0.2-7.3 2-14.6 4.6-21.4 3.8-9.8 10.7-18 19-24.2z"/>
		<path id="Layer" class="s0" d="m1461.4 147.3c1.4-1.3 3.5-0.8 4.8 0.5 3.6 3.3 4.5 8.6 5.2 13.3 0.5 6.4-0.1 13.3-3.4 19-1.3 2.6-4.9 4.6-7.3 2.2-5.3-5.2-5.5-13.3-5.3-20.2 0.4-5.3 1.4-11.5 6-14.8z"/>
		<path id="Layer" class="s0" d="m1356.4 193.4c4.8-12.6 19.3-21.5 32.6-17.6 4.3 1.1 7.6 4.2 10.7 7.1-1.2 6.8-4.9 13.4-10.8 17.2-5.6 3.4-12.5 1.7-18.4 0-4.9-1.7-9.9-3.6-14.1-6.7z"/>
		<path id="Layer" class="s0" d="m1408.1 197.1c2.4-2.6 4.8-5.3 8-6.9 2.9-1 4.5 2 5.1 4.3 1.9 9.1 5.1 18.7 12.5 24.8 3 3.1 7.4 5.4 8.8 9.7 0.6 4.3-3.7 6.9-7 8.6-9.9 4.7-19.3 10.9-26.5 19.4-2.7 3-4.4 6.8-6.9 10-5.9-8.1-9.9-17.9-9.9-28-0.6-15.4 6.3-30.2 15.9-41.9z"/>
	</g>
	<g id="#e42616ff">
		<path id="Layer" fill-rule="evenodd" class="s1" d="m1416.5 0.9c40.2-3.2 81.4 7.2 115 29.5 32.2 21 57.4 52.4 70.8 88.4 15.6 40.8 15.6 87.1 0.3 128-11.9 31.9-32.9 60.3-59.9 81-32.7 25.3-74.3 38.9-115.7 37.9-42.3-0.8-84.1-16.9-116-44.7-26.2-22.7-45.8-52.9-55.5-86.2-12.7-42.5-9.2-89.5 9.9-129.6 14.8-31.3 38.7-58.3 68-76.7 24.9-15.8 53.8-25.3 83.1-27.6zm5.8 17.5c-24.4 1.2-48.5 8.1-70 19.8-35.1 19-63 51-76.5 88.6-15.1 40.6-12.9 87.2 5.8 126.3 14.9 31.8 40.3 58.6 71.3 75.1 39 21.3 86.7 25.5 128.8 11.7 35.6-11.4 67-35.4 87.5-66.7 21.8-32.9 31.1-74 25.3-113.1-5.4-40.3-26.7-77.9-57.9-103.7-31.5-26.5-73.2-40.3-114.3-38z"/>
		<path id="Layer" fill-rule="evenodd" class="s1" d="m1461.9 80.3c15.9-3.4 32.2 5.5 40.7 18.7 1.8 0.1 3.2-0.8 4.4-2 5.6-5.3 13.3-8.4 21-7.8 8.7-0.2 16.2 6 20.4 13.2 4.1 7.4 6 15.7 6.2 24.1-3.5-3-7.6-6.4-12.5-6.2-4.3 0.1-7.5 3.9-8.3 7.8-1.5 8.4 0.7 17 3.6 24.9 2.8 7.6 5.2 15.4 7.7 23.2 2.7 8.7 6 17.4 8 26.4 5.7 25.2 6.5 51.3 4.3 77-84.9 0-169.7 0.1-254.5 0-0.4-23.2 4.1-46.1 9.9-68.4 3.2-11.6 6.6-23.2 11.1-34.4 0.4-1 0.8-2 0.6-3-1.5-1.2-3.4-1.6-5.1-2.3-8.2-3.1-15-9.2-19.2-16.8-4.3-7.7-6.2-16.6-6.1-25.4 10.2 4.9 21.5 8 32.9 7.2 10.9-0.8 22.1-4.5 30.1-12.3 9.8-8.9 20.1-17.9 32.6-22.5 7.4-2.6 16.2-1.9 22.5 3.1 3.3 2.4 5.6 5.8 8 9.1 0.5 1.2 1.9 0.7 3 0.8 7.3-16.1 20.7-31.1 38.7-34.4zm-17.3 32.3c-12.6 13.7-18 33-17.1 51.4 0.7 16 7.1 32.8 20.5 42.5-7.7-20.8-7.5-44.5 0.8-65 2.8-6.3 6.6-12.8 12.9-16.1 4-2.1 9.2-1.6 12.7 1.2 5.7 4.4 8.6 11.3 10.7 18 2.5 8.9 3.4 18.2 3.1 27.4-0.7 12.3-3.1 24.7-9 35.5 7.5-4.4 13.6-10.8 18-18.3 8.8-15.2 11.8-33.6 8.7-50.8-1.9-10.2-6.1-20.4-13.4-28-5.8-6.1-14-10.4-22.5-10.1-9.8-0.1-18.9 5.3-25.4 12.3zm-73.4 23.6c-8.3 6.2-15.3 14.4-19 24.2-2.6 6.8-4.4 14.1-4.6 21.4 8.3-10.3 20.8-18 34.5-17.6 10.2-0.6 20 3.1 29 7.6 1-10.6 1.1-22.1-4.2-31.7-3.3-6.3-9.9-10.4-16.8-11.3-7 0.2-13.4 3.4-18.9 7.4zm90.2 11.1c-4.6 3.3-5.6 9.5-6 14.8-0.2 6.9 0 15 5.3 20.2 2.4 2.4 6 0.4 7.3-2.2 3.3-5.7 3.9-12.6 3.4-19-0.7-4.7-1.6-9.9-5.2-13.3-1.3-1.3-3.4-1.8-4.8-0.5zm-105 46.1c4.2 3.1 9.2 5 14.1 6.7 5.9 1.7 12.8 3.4 18.4 0 5.9-3.8 9.6-10.4 10.8-17.2-3.1-2.9-6.4-6-10.7-7.1-13.3-3.9-27.8 5-32.6 17.6zm51.7 3.7c-9.6 11.7-16.5 26.5-15.9 41.9 0 10.1 4 19.9 9.9 28 2.5-3.2 4.1-7 6.9-10 7.2-8.5 16.5-14.7 26.5-19.4 3.3-1.7 7.6-4.3 7-8.6-1.5-4.3-5.8-6.6-8.9-9.7-7.4-6.1-10.5-15.7-12.5-24.8-0.5-2.3-2.1-5.3-5-4.3-3.2 1.6-5.6 4.3-8 6.9z"/>
		<path id="Layer" class="s1" d="m1632.5 86.1q2.5 0 5.1 0.1c2.5 4 5.3 7.9 7.6 12.1 2.7-4 5.4-8 7.8-12.1q2.6-0.1 5.3-0.1c0 8.7 0 17.4 0 26.1q-2.4 0-4.7 0c-0.1-6.1 0.1-12.3-0.1-18.4-3 3.9-5.4 8.2-8.3 12.1-2.6-4-5.3-8-7.9-12-0.2 5.8 0.1 11.6-0.1 17.4-1 1.6-3.2 0.6-4.7 1 0-8.7 0-17.4 0-26.2z"/>
		<path id="Layer" class="s1" d="m1668.5 88.5c5.4-4.4 13.9-3.7 19 1-0.9 1.1-1.8 2.2-2.8 3.2-2.6-0.8-4.9-2.6-7.6-3.1-3.2 0.7-6.5 2.3-7.7 5.5-2.7 5.1 0.8 12.2 6.5 13.1 3.3 0.7 6.2-1.5 8.9-3.2q1.4 1.5 2.9 3c-5 5.3-14.5 6.4-19.9 1.1-5.9-5.3-5.5-15.7 0.7-20.6z"/>
		<path id="Layer" class="s1" d="m27.1 130c17.5-15.5 41.9-21.9 65-19.3 10 1.7 20.6 4.4 28.5 11.2q-5.9 10.9-11.8 21.9c-3.4 0-6.6-1.7-9.9-2.2-13.3-2.6-28.2-2.3-39.7 5.5-10.4 6.6-16.1 18.4-18.1 30.1-1.5 9.7-1.6 20.1 2.4 29.2 4.5 11 13.8 20.7 25.6 23.6 8.9 1.7 18 0.2 26.7-1.8q3.2 13.6 6.2 27.2c-17.1 5.3-35.7 7.2-53.2 2.7-17.5-4.6-32.6-17-40.6-33.2-8.5-16.5-9.7-36.1-5.3-54 3.6-15.7 12.1-30.3 24.2-40.9z"/>
		<path id="Layer" class="s1" d="m490.9 115.6c12.5-0.1 25-0.1 37.6 0-4.2 18.6-7.7 37.4-11.8 56.1 9.2-10.6 21.2-19.7 35.3-21.7 6.9-0.8 14.5-0.7 20.4 3.5 5.1 3.8 7.3 10.3 7.4 16.5 0.8 13.6-3.8 26.7-6 40-3.5 16.2-6.6 32.5-10.2 48.7-12.5-0.1-25 0-37.5 0 4.6-22.9 9.3-45.9 14-68.8 0.5-4.1 0.1-8.9-3-12-2.2-2.3-5.7-1.8-8.5-1-5.8 2-9.7 7.1-12.4 12.3-5.8 10.6-7.4 22.7-9.9 34.3-2.3 11.8-4.9 23.4-7.1 35.2-12.5 0-25.1 0.1-37.7-0.1 9.8-47.7 19.8-95.3 29.4-143z"/>
		<path id="Layer" class="s1" d="m767.4 147.5c2.7-10.8 4.5-21.9 7.1-32.8 38.4 0.1 76.8 0 115.2 0.1-1.9 10.9-4.7 21.7-6.6 32.7-12.7 0.2-25.5 0-38.2 0.1-7.5 36.9-15.3 73.8-22.9 110.8-1.2 0.5-2.7 0.2-4 0.3-11.9-0.1-23.7 0.1-35.5-0.1 7.9-36.9 15.3-74 23.1-111-12.7-0.1-25.4 0.1-38.2-0.1z"/>
		<path id="Layer" fill-rule="evenodd" class="s1" d="m1159.3 164.3c3.7-16.2 6.6-32.6 10.2-48.8 12.5 0.1 25 0 37.5 0-9.7 47.8-19.9 95.4-29.7 143.2-12.4 0-24.9 0-37.3-0.1 0.6-3.5 1.6-7.1 1.9-10.7-9.4 5.9-19.5 11.9-30.9 12.8-7.2 1.5-15.2 0-20.7-5-7.2-6.3-10.2-15.9-11.3-25.1-2.5-23.4 4.7-48.2 21.2-65.3 9.5-9.8 22.8-16.7 36.8-15.7 9.5 0 18.7 5.8 22.3 14.6zm-20 8.3c-4.6 2-7.9 6-10.7 10.1-6.5 9.9-9.3 21.7-10.2 33.4-0.2 6.1-0.7 12.7 2.5 18.2 2.1 4.5 8.5 6 12.7 3.4 4.4-2.5 7.3-6.9 9.7-11.2 6.6-11.9 8.9-25.6 10.3-38.9 0.3-4.1 0.7-8.8-2.1-12.1-2.7-3.7-8.1-5.1-12.2-2.9z"/>
		<path id="Layer" fill-rule="evenodd" class="s1" d="m171.7 147.9c12.3-1.6 25.6-0.6 36.5 5.8 11.5 6.8 19 19.2 21.3 32.2 3.4 17.9-1.9 37.1-13.3 51.2-9 11.4-22.2 19.1-36.3 22.3-11.5 2.3-23.8 2.9-34.9-1.5-14.9-5.6-25.5-19.7-28.8-35-3.5-14.1-0.1-29.2 7-41.6 10.1-17.7 28.4-30.3 48.5-33.4zm7.5 19c-6.8 0.6-11.8 5.9-14.9 11.6-5.4 9.6-8 20.6-8.8 31.6-0.2 8.2-0.4 16.8 2.6 24.7 1.4 3.6 4.8 6.8 8.9 6.7 5.4 0.1 9.9-3.6 12.7-7.8 6.4-9.7 8.2-21.4 9.7-32.6 0.8-9.3 1.9-19.1-1.5-27.9-1.3-3.5-4.6-7.1-8.7-6.3z"/>
		<path id="Layer" fill-rule="evenodd" class="s1" d="m648.9 150c10.9-1.6 22.4-1.6 32.7 2.5 6.9 2.7 12.9 8.3 15 15.4 2.4 7.8 1.4 16.6-3.5 23.2-7.3 9.9-19.2 15.2-30.8 18.6-9.7 2.9-19.9 3.4-30 3.7-0.3 5.8-0.3 12.1 3.2 17 4 5.2 11.3 6.5 17.5 5.7 8.7-0.8 16.3-5.2 24-8.8 2.2 5.9 5.4 11.4 7.1 17.5-17.2 9.5-36.2 17-56.1 16.9-8.6 0.3-17.5-2.8-23.7-8.9-8.2-8-12.1-19.6-12.6-30.8 0.4-15.2 4.4-30.6 13-43.3 10.2-14.9 26.5-25.3 44.2-28.7zm-4.9 22.9c-6 5.9-9.2 14.2-10.9 22.4 8.1-0.5 16.7-0.2 24.1-4.2 5.4-2.8 9.3-8.9 8.6-15.2-0.1-3-1.9-5.7-4.5-7.1-5.8-2.9-13-0.3-17.3 4.1z"/>
		<path id="Layer" class="s1" d="m380.3 177.4c10.7-14.3 27.1-23.8 44.6-27 13.5-2.1 27.9-0.3 39.9 6.6-3.6 6.3-7.2 12.6-11 18.8-5-2.2-10.2-4.4-15.8-4.1-9.3 0.2-17.5 6.2-22.9 13.5-8.1 11.2-11 26.2-6.9 39.4 1.8 5.9 6.6 11.1 12.9 12 7.6 1.1 14.9-1.9 21.8-4.5 0.3 0.1 0.8 0.4 1 0.6 1.8 6.1 4.8 11.9 6.1 18.2-14.1 5.5-28.7 10.6-44 10.8-10.2 0.3-21.1-2.9-28.2-10.6-7.9-7.9-10.9-19.3-11.2-30.1 0-15.5 4.2-31.3 13.7-43.6z"/>
		<path id="Layer" fill-rule="evenodd" class="s1" d="m877.8 176.8c7.8-12.4 19.7-22.8 34.1-26.3 8.6-1.6 18.4-1.7 25.9 3.7 3.7 2.4 6.1 6.3 8.2 10.1 1-4.5 1.3-9.1 2.5-13.6 9.2 0.7 18.4 0.2 27.6 0.2 3.2 0.3 6.4 0.5 9.5-0.3 0.4 2.9-0.6 5.6-1.1 8.3-6.8 33.3-13.7 66.5-20.5 99.8-12.5-0.1-24.9 0.1-37.4-0.1 0.9-3.5 1.7-7.1 2.2-10.7-9.7 5.9-19.8 11.8-31.4 12.8-7.9 1.7-16.9-0.5-22.4-6.8-7.2-8.1-9.6-19.3-9.8-29.9-0.6-16.5 3.9-33.1 12.6-47.2zm48.4-4.5c-3.9 1.7-6.9 5-9.5 8.2-8.4 11.3-11.6 25.7-11.6 39.5 0 5.3 0 11.1 3.3 15.4 2.6 3.7 8.3 4.5 12 2.1 4.7-2.7 7.6-7.5 10.1-12.1 6.3-12.5 8.6-26.6 9.8-40.4 0.4-4.1-0.5-8.7-3.9-11.4-2.8-2.5-6.9-2.8-10.2-1.3z"/>
		<path id="Layer" class="s1" d="m1063.7 150.9c8.4-3.4 18.6-0.3 23.9 6.9-6.6 10.1-12.2 20.7-18.3 31-7.2-3.1-16-2.8-22.5 1.8-6.9 5-10.1 13.5-11.9 21.5-3.2 15.5-6.7 31-9.8 46.5-12.5 0.1-25.1 0.1-37.7 0.1 7.3-35.9 14.8-71.7 22-107.5 7.9-0.3 15.8 0.1 23.6-0.4 4.8 0.3 9.6 0.5 14.4 0.4-1.7 7.9-3.8 15.8-5.2 23.8 2.3 0.2 2.9-2.3 4-3.8 4.3-7.8 9.1-16.3 17.5-20.3z"/>
		<path id="Layer" class="s1" d="m257.8 153.4q0.3-1.4 0.9-2.7c5.4 1 10.9-0.2 16.3 0.4 6.9 0 13.8 0.1 20.7-0.4-3.1 18.6-7.4 36.9-10.8 55.4-1.1 5.6-2.5 11.2-3.2 16.9-0.1 4.2 1 9.4 5.2 11.2 5.7 1.3 11.3-2.2 14.8-6.5 6.3-8 9.2-18 11.3-27.7 3.2-16.2 6.7-32.4 9.6-48.7 0.6 0 1.7-0.3 2.3-0.4 11.9 0.6 23.8 0 35.7-0.1-3.9 21.5-8.8 42.9-13 64.3-3.1 14.5-5.9 29.1-9.1 43.6-12.4-0.1-24.9 0.1-37.3-0.1 1-6.4 3.2-12.6 3.9-19.1-10.2 12.1-24.9 21.4-41.1 21.8-4.9-0.4-10.2-0.9-14.4-3.9-4.3-3-6.5-8.3-7.1-13.4-1.1-8.9 0.5-17.8 2.2-26.5q6.6-32 13-64.1z"/>
		<path id="Layer" class="s1" d="m719.9 191.7c15.5-0.1 31.1 0 46.6 0-1.1 6.7-2.9 13.2-4.3 19.8-15.6 0-31.2 0.1-46.7-0.1 1.5-6.5 2.9-13.1 4.4-19.7z"/>
	</g>
</svg>