<svg version="1.2" xmlns="http://www.w3.org/2000/svg" viewBox="0 0 1558 402" width="1558" height="402">
	<title>atea-pdf-svg</title>
	<defs>
		<clipPath clipPathUnits="userSpaceOnUse" id="cp1">
			<path d="m0-2h1567.96v405h-1567.96z"/>
		</clipPath>
	</defs>
	<style>
		.s0 { fill: #ffffff } 
	</style>
	<g id="Clip-Path: Page 1" clip-path="url(#cp1)">
		<g id="Page 1">
			<path id="Path 1" fill-rule="evenodd" class="s0" d="m724.4 1v49.4l-119.3-0.6v348.4h-50.1v-348.4h-118.6v-48.8zm-339.8-0.6v397.2h-50.1c0-39.9 0-107.8 0-173.3h-198.5l-80.5 173.3h-55.5c24.5-53 119.9-258.4 119.9-259 4.7-9.6 60.2-137.6 169.9-137.6zm-51.9 50.6h-43.5c-78.1 0-123.4 107.2-123.4 107.2l-7.2 15.5h175.3zm935.4-50c110.9 0 165.2 126.8 169.9 137.5 0 0 95.4 206.7 119.9 259.1h-55.5l-80.5-173.3h-198.5v174.5h-50.1v-397.8zm-47.7 169.1h175.3l-7.1-15.5c0 0-44.8-107.2-123.4-107.2h-43.6z"/>
			<path id="Path 2" class="s0" d="m1083.9 191.6c0 14.9-12.6 26.8-28.1 26.8-0.6 0-0.6 0-0.6 0h-199.7c-0.6 0-0.6 0-0.6 0-14.9 0-28-11.9-28-26.8 0-15.5 13.1-26.8 28-26.8h200.9c15.5 0 28.1 11.9 28.1 26.8zm-361.3 9.5c0-110.8 90.6-200.1 202.1-200.1 55.4 0 110.9 26.2 149 67.3 4.8 4.1 6.6 10.1 6.6 16.7 0 14.2-11.9 25-25.7 25-7.7 0-14.3-2.4-19-7.8-29.8-31.5-70.4-50.6-110.9-50.6-83.5 0-151.5 67.3-151.5 149.5 0 82.2 68 148.9 151.5 148.9 40.5 0 81.1-18.5 110.9-50 4.7-4.8 11.3-7.8 19-7.8 13.8 0 25.7 11.9 25.7 25 0 6-3 12.5-6.6 17.3-38.1 41.7-93.6 66.7-149 66.7-111.5 0-202.1-89.3-202.1-200.1z"/>
		</g>
	</g>
</svg>