<svg version="1.2" xmlns="http://www.w3.org/2000/svg" viewBox="0 0 1545 747" width="1545" height="747">
	<title>2020</title>
	<defs>
		<clipPath clipPathUnits="userSpaceOnUse" id="cp1">
			<path d="m-5085.55-564.82h7292.35v9503.71h-7292.35z"/>
		</clipPath>
	</defs>
	<style>
		.s0 { fill: #ffffff } 
	</style>
	<g id="Clip-Path: Page 1" clip-path="url(#cp1)">
		<g id="Page 1">
			<path id="Path 6" fill-rule="evenodd" class="s0" d="m458 669.8q-6.1-13.5-11.7-27c-14.1-30.1-30.1-58.9-48.5-86.6-40.5-60.8-92.7-112.3-152.2-154.7q-16.6-12.3-33.8-23.3c-37.4 28.2-78.5 51.6-121.5 70-6.7 3-14.1 1.8-17.8-4.9-3.7-5.6-1.8-14.8 4.3-17.8 35.6-15.4 70-33.2 101.3-55.3q5.5-3.1 10.4-6.8c-45.4-28.8-93.3-53.4-142.4-74.9-12.3-5.5-6.1-25.1 6.8-24.5 54.6 3.1 108.6 11 162.6 19.6 16.6 3.1 9.8 28.3-6.7 25.8-27.6-4.9-55.9-9.2-84.1-12.3q26.4 13.6 51.5 28.3 17.2 9.8 34.4 20.9c84.1-68.8 143-162.1 181.1-264 5.5-16 30.1-9.9 25.2 6.7-11.1 41.2-18.5 82.9-21.5 125.3-11.7 143.6 19.6 287.9 75.5 419.9q4.9 11 9.8 21.5 0 0.6 0 0.6 0.6 1.8 1.2 3.1c6.2 14.1-17.8 23.9-23.9 10.4zm-56.5-154.1c-29.4-105-42.3-216.1-30.1-324.2-29.4 53.5-65.6 102.6-109.2 144.9q-14.1 12.9-28.3 24.6c46.1 30.7 89.7 65.7 127.1 106.2q21.5 23.3 40.5 48.5z"/>
			<path id="Path 7" class="s0" d="m397.2 14.7c6.8-13.5 23.3-18.4 36.8-11.6 12.9 6.7 18.5 22.7 11.7 36.2-6.7 13.5-23.3 19-36.2 12.3-13.5-6.8-19-23.4-12.3-36.9zm69.4 693.2c6.7-13.5 23.3-19.1 36.2-12.3 13.5 6.7 19 23.3 12.3 36.8-6.8 12.9-23.3 18.4-36.2 11.7-13.5-6.8-19.1-23.3-12.3-36.2zm-463.5-259.7c6.8-13.5 23.4-19.1 36.9-12.3 13.5 6.7 18.4 23.3 11.6 36.8-6.7 12.9-22.7 18.4-36.2 11.7-13.5-6.8-19-22.7-12.3-36.2z"/>
			<path id="Path 8" fill-rule="evenodd" class="s0" d="m656.3 485l-12.9-35.6c-13.5-30.1-54.7-51-101.3-51-14.7 0-21.5 1.3-24.6 8.6l-21.5 59-7.3 19h-13.5l97.6-269.5h41.1l97 269.5zm-24-66.9l-58.9-165.2-49.7 136.3q9.2-1.2 18.4-1.2c36.2 0 68.8 11.7 90.2 30.1zm227.2 31.9h11l-0.6 1.9c-6.7 25.7-25.2 38-58.9 38-49.7 0-74.3-20.9-74.3-63.8v-167h50.3v39.3h58.3v12.3h-58.3v125.2c0 18.4 5.6 41.1 31.3 41.1 23.4 0 36.3-8 40.6-25.8zm221.5-90.8v125.8h-50.3v-133.2c0-35-12.3-50.9-38.7-50.9-28.2 0-45.4 21.4-45.4 57.7v126.4h-50.3v-269.5h50.3v99.5c9.8-18.4 29.5-28.9 55.9-28.9 55.2 0 78.5 21.5 78.5 73.1zm45.5-68.8h50.3v194.6h-50.3zm232 33.8l0.6 1.8h-11l-0.6-1.2c-5-18.4-17.2-26.4-39.9-26.4-23.4 0-34.4 14.8-34.4 46.1v141.2h-51v-131.4c0-44.2 28.3-68.2 78.6-68.2 33.1 0 50.3 11.1 57.7 38.1zm186 33.2v128.3h-51v-16.6c-9.2 13.5-27 21.5-51.5 21.5-51 0-80.4-22.7-80.4-62 0-39.9 28.8-62 80.4-62 25.1 0 42.3 7.3 51.5 21.5v-31.4c0-39.9-14.1-57.1-48.4-57.1-30.7 0-47.9 9.3-54.1 28.3l-0.6 1.2h-11.6l0.6-2.4c8-27.1 31.9-39.9 74.2-39.9 62 0 90.9 22.1 90.9 70.6zm-130.1 73.6c0 31.3 11.6 46.1 36.2 46.1 28.8 0 42.9-16 42.9-48.5 0-33.2-14.1-49.1-42.9-49.1-24 0-36.2 15.3-36.2 46zm-287.9-211.8c7.3-14.1 25.1-19.7 39.3-11.7 14.1 8 19.6 25.8 11.6 39.9-8 14.2-25.8 19.1-39.9 11.1-14.1-7.4-19-25.2-11-39.3zm-175 323.5c14.8 0 21.5 1.9 27 6.2 6.8 5.5 11.1 14.7 11.1 23.9 0 9.8-4.3 19.1-10.4 24-6.8 5.5-12.9 7.3-26.4 7.3h-13.5v35.6h-16v-97zm-11.7 47.9h12.9c6.8 0 11.1-0.6 15.4-3.7 4.3-1.8 6.7-7.3 6.7-13.5 0-6.7-3.1-11.6-6.7-14.1-4.3-2.4-9.2-3.1-15.4-3.1h-12.9zm74.9 49.2v-97h16v41.1h41.7v-41.1h15.4v97h-15.4v-42.4h-41.7v42.4z"/>
			<path id="Path 9" fill-rule="evenodd" class="s0" d="m1128.3 639.7h-17.2l39.9-97h14.1l39.3 97h-16.6l-9.2-23.3h-41.7zm29.5-79.2l-16 44.2h32.5zm70-17.8h27.6c14.8 0 22.7 1.8 27.6 5.5 8 4.9 12.9 15.4 12.9 26.4q0 10.1-5.5 18.4c-4.9 6.8-11 9.2-18.4 10.5l22.7 36.2h-16.6l-26.4-44.2h3.1c6.8 0 15.4 0 19.7-3.7 4.3-4.3 6.7-9.8 6.7-16 0-6.7-3.1-13.5-8.6-16.5-3.7-2.5-9.2-3.1-15.9-3.1h-13.5v83.5h-15.4zm97 97v-97h20.9l30 74.9 30.1-74.9h20.9v97h-14.1l0.6-81.7-32.6 81.7h-9.8l-32.5-81.7 0.6 81.7zm142.4 0h-16.6l39.9-97h14.2l38.6 97h-16.5l-9.2-22.7h-41.2zm29.5-79.2l-16.6 43.6h33.2z"/>
		</g>
	</g>
</svg>