<svg version="1.2" xmlns="http://www.w3.org/2000/svg" viewBox="0 0 1510 1272" width="1510" height="1272">
	<title>Afristrat-IAR-2021-Final-Web1-1-pdf-svg</title>
	<defs>
		<clipPath clipPathUnits="userSpaceOnUse" id="cp1">
			<path d="m-376-335h4387v6203h-4387z"/>
		</clipPath>
		<linearGradient id="g1" x1="1023.6" y1="376.4" x2="452.8" y2="119.6" gradientUnits="userSpaceOnUse">
			<stop offset="0" stop-color="#ffffff"/>
			<stop offset="1" stop-color="#ffffff"/>
		</linearGradient>
	</defs>
	<style>
		.s0 { fill: #ffffff } 
		.s1 { fill: url(#g1) } 
	</style>
	<g id="Clip-Path: Page 1" clip-path="url(#cp1)">
		<g id="Page 1">
			<path id="Path 10" fill-rule="evenodd" class="s0" d="m8.5 1089.4c15.3-9.1 48.1-27.1 83.3-27.1 45.9 0 103.6 17.2 103.6 78.7v74.5h22.9v49h-81.8l-9.2-17.2c-14.1 19.5-37.8 24.4-51.5 24.4-36.4 0-75.3-19.5-75.3-63.8 0-43.2 36.3-70.3 79.5-70.3 22.5 0 35.9 11.1 37.8 13.4v-13.4c0-17.2-15.7-21.4-36.3-21.4-22.6 0-42.4 9.5-57 17.6zm109.3 120v-14.6c-1.1-1.9-6.5-11-22.5-11-15.3 0-22.2 8.4-22.2 20.2 0 10.7 8.8 18 20.3 18 11.4 0 21-6.9 24.4-12.6zm240.4-185c-4.2-1.9-10.7-3.8-21-3.8-8.4 0-12.2 6.5-12.2 20.2v32.5h34.8v49.7h-34.8v91.3h22.9v50.1h-113.9v-50.1h15.3v-91.3h-15.7v-49.7h15.7v-32.5c0-21.8 6.9-69.9 75.7-69.9 19.9 0 46.2 4.6 56.2 9.5zm131 240.1h-108.1v-50.1h16.8v-91.4h-16.4v-49.6h71.8l11.5 24.4c9.9-18.3 19.9-31.3 59.2-31.3v66.1c-34.4 0-53.9 8.8-53.9 42.4v39.4h19.1zm102.1-285.9c26.4 0 42 21.4 42 39 0 21-14.9 38.6-42 38.6-24.1 0-41.3-20.3-41.3-38.6 0-17.6 14.5-39 41.3-39zm55 285.9h-107v-50.1h16.1v-91.3h-16.1v-49.7h88.7v141h18.3zm15.3 0v-68.8h51.2c0 20.3 29.1 25.6 40.5 25.6 7.7 0 16.9-2.3 16.9-13 0-11.4-28.7-13.3-56.2-22.9-26-9.2-50.9-25.2-50.9-61.1 0-39 40.2-55.5 67.3-55.5 26 0 48.9 13.4 57 29.8l3-25.2h47v68.8h-49.7c0-16-19.8-29-39-29-8 0-14.9 4.2-14.9 13.7 0 10.7 22.6 15.3 47 23.7 29.1 10 61.6 21 61.6 61.2 0 35.9-34 57.3-71.1 57.3-27.5 0-49.3-13.4-58.5-27.9l-3.4 23.3zm194.1-191.1h20.7v-35.1l70.3-22.6v57.7h36.3v49.7h-36.3v68c0 13-2.7 30.6 12.2 30.6 5 0 16.8-3.4 24.1-6.5v48.9c-11.5 4.6-37.5 7.3-46.2 7.3-57.4 0-59.3-31.3-60.4-80.3v-68h-20.7zm250.7 191.1h-108.1v-50.1h16.8v-91.3h-16.4v-49.7h71.8l11.5 24.5c9.9-18.4 19.9-31.4 59.2-31.4v66.1c-34.4 0-53.9 8.8-53.9 42.5v39.3h19.1zm54.4-175.1c15.2-9.1 48.1-27.1 83.3-27.1 45.8 0 103.5 17.2 103.5 78.7v74.5h23v49h-81.8l-9.2-17.2c-14.1 19.5-37.8 24.4-51.6 24.4-36.3 0-75.3-19.5-75.3-63.8 0-43.2 36.3-70.3 79.5-70.3 22.6 0 36 11.1 37.9 13.4v-13.4c0-17.2-15.7-21.4-36.3-21.4-22.6 0-42.5 9.5-57 17.6zm109.3 120v-14.6c-1.1-1.9-6.5-11-22.5-11-15.3 0-22.2 8.4-22.2 20.2 0 10.7 8.8 18 20.3 18 11.4 0 21-6.9 24.4-12.6zm112-136.1h20.6v-35.1l70.4-22.6v57.7h36.3v49.7h-36.3v68c0 13-2.7 30.6 12.2 30.6 5 0 16.8-3.4 24.1-6.5v48.9c-11.5 4.6-37.5 7.3-46.3 7.3-57.3 0-59.2-31.4-60.4-80.3v-68h-20.6z"/>
			<path id="Path 12" class="s0" d="m726.6 609.3c53.1-0.2 106.1 6.7 157 22 46.1 14 91.3 34.5 127.8 66.4 1.2 13 2.3 28.2-1.7 40.9-2.1 7.2-7.5 11.8-13.5 16.1-15.5 10.6-32.3 16.4-46.8 28.6-6.2 5.3-12.9 8.4-17.6 15q-2.6 1.2-5.2 2.5c-1.5 14.6 6.1 26.5 5.9 40.9 0.1 5.8 0 13.5-3.4 18.5-9.3 10.6-26.4 12.9-36.4 21.4-1.7 9 0.1 18.9-4.1 27.3-2.7 5.4-5.2 10.9-8.5 16-8.6 6-14 11.9-20 20.6-11.9 17-27.1 30.9-44.9 41.6-10 5.3-21.6 3.8-31.8 8.9-18.6-4.3-33.4 3.3-51.4 3.8-6.9 0.4-11.7 5.3-17.7 0.1-6.8-5.9-15-13.2-17.6-22.2q4.4-2.9 8.7-6.1c-5.4-9.7-13-19.6-16.3-30.2-2.9-12.7-13.8-22-20.6-33.6-11.9-17.4-12.3-35.5-15-55.6-1.9-15.5-10.8-27.6-18.5-40.6-4.9-8.6-10.1-17.2-14.3-26.1-6.2-13.3-7.5-29-6-43.3 2.1-8.8 4.4-17.9 7.6-26.4 4.3-11.2 14.1-16.5 16.9-27.9 1.3-8.1-2.6-14.1-4.4-21.7-1-5.4-1.3-10.8-2.1-16.2-27.8-5.9-53.4-6.8-81.4-1.4 52.9-27.2 116.3-37.9 175.3-39.3z"/>
			<path id="Path 13" class="s0" d="m1008.1 663.6c-62-42.1-132.7-67.8-206.2-81.1-65.5-11.5-133.9-13.9-199.7-2.9-12.3-13.7-29-27-33.9-46.3 2-2.1 3.8-4.1 5.6-6.3 0.4-4-0.5-9 2.6-12.1 0.1-4.8-0.5-9.7 0.4-14.4 4.6-9 2.4-19.7 2.5-29.8q1.7-2.1 3.4-4.1-5.1 0.4-10.3 0.8c-3-4-6.3-7.7-9.8-11.3-10.7 4.9-24.2 3.6-35.7 3.8-8.2-5.2-6.8-20.2-17.6-24.6-14-2.4-28.2-2.4-42.2-0.2-10.5 4.7-21.7 7-31.9 12.7-5.7 2.4-13.1 7.2-19.3 4.9-17.7-5.1-36.4-4.9-54.1-0.3-10.8 1.4-18.4 7.1-29.5 3.1-2.8-1.6-4.3-3.6-4.9-5.8l-5.9-0.8-0.3-1c-6.1-3-11.3-10.3-16.1-14.3-12-10-24.9-20.3-35-32.3-6.6-7-3.5-18.2-9.9-25.3-4.4-4.8-9.6-8.2-12.9-13.9-6.4-10.5-16.5-17.7-22.9-28.1-37.7 7.4-74.8 18.9-110.7 32.4-7.6 2.8-14.7 6.4-22.6 8.2 27.4-22.8 60.5-40 93.6-53.2 85.5-32.9 175.5-39.4 266.3-34.3 104 7.1 207.2 31.9 303.1 73 80.2 34.5 158.4 82.4 218 146.9 5.2 7.6 13.2 11.9 18.5 19.5 10.1 13.4 19.6 27.4 28.8 41.5-9.9 31.1-12.9 63.1-11.4 95.6z"/>
			<path id="Path 13" fill-rule="evenodd" class="s1" d="m600.2 0.4c0.7 2.9 1.5 5.9 2.2 8.8q5.4-1.1 10.9-2.2c-0.6 5.3-3.7 8.8-6.6 13 1.2 4.8 2 9.6 2.5 14.5-3.8 5.6-14.6 9.3-10.8 17.1q5.5-0.5 11-0.8c2.5 4.2 4.2 8.6 8.9 10.8 11.6 4.9 26.1 2.3 37.9 7.7 4.1 2.4 5.6 7.3 8.6 10.9l18.6 7.6q0 0 0.3 0.3c0.4 0.2 0.9 0.3 1.3 0.5 0.1 0.3 0.2 0.6 0.3 0.8 1.7 1.5 4.5 3.5 7.8 5.1q-0.2-0.7-0.3-1.3c6.2 3.6 14.2 6.9 21.2 3.9 6.9-6.1 4.8-12.5 6.4-20.4 3.8-6.7 11.2-11.4 18.3-13.7 9-1.4 14.6 3.1 22 7 6.7 3.8 14.5 2.1 21.3 6 4.5 2.5 9.3 3.3 14.3 4.4l4.5 0.1c10.4 2.1 20.9 3.1 31.3 5.3 6.6-0.8 12.9-5 19-7.5 0 0 8.5-3.9 13.7-0.1 9 7.2 24.4 1.6 33.9 7.8 6.4 5.3 5.2 15.8 6.6 23.5 1 5.7-1.3 10.1-3.1 15.3-6.5-4.4-12.8-6.2-13.2-15.4-4.1-2.7-7.3-6.9-11.4-9.4l-1.4 1.5c0.3 2.5 0.8 4.5 2.9 6.7 5.1 7.1 12.3 14.4 14.8 22.8l1.6 7 1.6-0.8c0.9 8.2 9.2 10.8 13.7 17.9 4.3 6.6 12 13.7 12.9 21.8l1.7 5.1-0.6 3.1q1.2-1.3 2.5-2.5c2.4 10.8 9.9 15.3 17.1 22.6 4.8 4.4 5.8 10 7.9 15.9l0.1 7.5c1.1 5.6 1.8 11.3 3.1 16.9 5.5 9.3 16.8 12.7 22.7 22.2l2 6q0.2 0 0.4-0.1c5 21.1 21.3 27.6 37.1 39.2 8.9 7.4 17.9 14.4 26.9 21.5 2.4 9.6-4.1 13-4.3 21.6 5.7-0.4 9.8 1.9 13.9 4.2 3.8 2.2 7.6 4.4 12.8 4.3 9-0.4 17.9-3.8 26.8-5.6 3.9-5.2 7.8-5 12.8-4.8 1.4 0.1 2.8 0.1 4.3 0.1 5.2-9.6 12.7-6.7 21.8-8.5 6.9-4 10.3-7 19-5.8 0.1 9.1 2.8 20.5-1.2 28.9-13.6 33.3-27.1 70.3-49.7 98.8-4.7 6.4-10 13.1-17.4 20.2-5.6 5.6-11.3 11-16.5 17-1.9 0.3-3.8 0.7-5.8 1.1-2.4 4.7-6.2 7.9-10.2 11.3 3.8 10.9 8.6 21.1 10.7 32.6 5.9 8.2 7.3 10.1 6.9 20.7 6.6 22.3 9.6 44.3 13.6 67.3-9.1-26.5-21.5-51.4-35.6-75.5-7-7.2-11.4-13.3-14.6-22.9q-13.2-18-26.7-35.7c-5-4.4-11.7-9.6-15.6-15.7-304.5-299.5-653.2-255.2-653.2-255.2l2.9-2.8c-4.2 0.1-8.3 0.2-12.5 0.3-28.9 2.3-57.7 5.3-86.3 10.5 0.8-5.9 2-11.7 3-17.5-2.7-9.8-7.6-20.6-0.4-29.9 5.9-5.7 8.9-12.7 12.7-19.8 3.5-6.9 9.7-9.6 14.7-15.1 4.5-5.3 7.5-12.5 11.4-18 3.4-4.6 9.9-6.5 13.1-11.6 5.2-7 8.3-14.7 18.3-15.4 15-1.3 26-11.8 34.9-23.2 4.3-6.3 3.3-13.6 6.8-20.1 2.9-5.1 5.6-10.4 8.9-15.2 7.9-7.5 19.3-11.2 27.9-18 9.5-6.6 15.1-15.4 22.3-24.3 4.7 4.8 8.1 9.7 15.1 11.3 7.3 0.7 14.6 0.5 21.8 2.5 5.2 1.7 9-0.7 13.4-3 8.8-5.3 18.4-8.5 27.6-13.1 10.9-3.5 23.2-1.9 34.7-4.1 3.6-0.7 7 0.1 10.3 0.8 3.9 0.9 7.6 1.7 11.4 0.4 7.1-2.1 14.6-1.9 22.1-1.7 3.5 0.1 6.9 0.1 10.3 0 7-0.4 12.8-3.5 19.4-5.3zm143.5 63.8l-2.1-0.7q-0.1 0.3-0.1 0.7zm277.8 254.8l0.2-0.2h-0.3z"/>
		</g>
	</g>
</svg>