<svg version="1.2" baseProfile="tiny-ps" xmlns="http://www.w3.org/2000/svg" viewBox="0 0 1550 1552" width="1550" height="1552">
	<title>bc748819-be73-4e7d-aaf6-89744dd930c6-1485956443633-svg</title>
	<style>
		tspan { white-space:pre }
		.shp0 { fill: #ffffff } 
	</style>
	<g id="#005596ff">
		<path id="Layer" class="shp0" d="M461.3 0.95C670.57 1.03 879.85 1.27 1089.12 0.87C1090.33 126.87 1089.36 252.96 1089.6 378.96C1053.12 379.69 1016.64 379.69 980.15 379.28C978.37 289.64 979.75 200 979.59 110.27C844.66 111.16 709.81 111.57 574.96 110.11C572.85 121.2 570.1 132.3 570.02 143.72C569.29 250.36 571.32 357.01 569.13 463.66C526.83 491.28 490.83 527.8 462.6 569.67C346.43 572.82 230.11 567.64 113.94 572.26C114.59 707.01 114.11 841.84 114.27 976.67C321.03 976.26 527.8 976.91 734.64 976.34C848.62 977.72 957.99 913.5 1018.09 817.54C1052.15 769.52 1066.71 712.03 1089.28 658.58C1090.9 770.09 1064.53 888.48 987.76 972.94C911.8 1056.27 795.88 1090.68 685.86 1090.6C457.5 1090.2 229.14 1091.17 0.77 1090.12C1.02 880.71 1.02 671.21 0.77 461.8C153.82 459.29 307.04 464.88 459.93 458.89C462.68 306.32 459.93 153.6 461.3 0.95ZM754.06 700.28C780.91 693.89 811.81 698.67 831.39 719.48C856.06 741.5 858.25 779.73 847 808.96C825.24 857.95 751.06 867.43 717.41 825.8C680.85 786.53 701.15 712.67 754.06 700.28Z" />
	</g>
	<g id="#66ccffff">
		<path id="Layer" class="shp0" d="M523.51 629.59C587.41 519.86 716.12 464.07 839.32 461.56C1076.09 461.23 1312.87 461.4 1549.65 461.48C1549.48 671.05 1549.48 880.62 1549.65 1090.2C1396.27 1090.52 1242.98 1090.2 1089.6 1090.44C1089.12 1243.98 1090.01 1397.51 1089.2 1551.05C879.85 1550.73 670.49 1550.81 461.14 1551.05C460.74 1424.32 461.14 1297.67 460.98 1170.93C497.38 1170.37 533.86 1170.13 570.27 1171.34C570.27 1260.17 569.38 1349.01 570.75 1437.84C707.06 1437.27 843.36 1438.89 979.59 1437.03C978.21 1321.31 980.48 1205.51 978.45 1089.79C1021.41 1060.07 1059.19 1022.99 1088.71 979.82C1204.31 980.96 1319.91 979.42 1435.42 980.63C1438.25 844.1 1435.99 707.49 1436.64 570.96C1237.56 569.99 1038.56 570.96 839.56 570.48C762.47 572.42 682.87 590.15 620.5 637.77C564.52 677.61 524.97 736.24 496.89 798.11C481.44 830.82 474.08 866.7 458.07 899.17C461.71 806.45 473.44 709.92 523.51 629.59Z" />
	</g>
</svg>