<svg version="1.2" baseProfile="tiny-ps" xmlns="http://www.w3.org/2000/svg" viewBox="0 0 1800 410" width="1800" height="410">
	<title>logo-aura-svg</title>
	<style>
		tspan { white-space:pre }
		.shp0 { fill: #ff6d08 } 
	</style>
	<g id="#ff6d08ff">
		<path id="Layer" fill-rule="evenodd" class="shp0" d="M182.12 0L199.28 0C240.39 2.14 282.28 18.09 309.53 49.92C309.51 37.51 309.51 25.1 309.53 12.68C354.71 12.66 399.89 12.66 445.07 12.68C445.09 140.89 445.09 269.11 445.07 397.32C399.89 397.34 354.71 397.34 309.53 397.32C309.33 382.76 309.89 368.21 309.15 353.66C286.06 390.22 242.48 408.18 200.61 410L184.37 410C142.06 408.18 100.46 391.87 68.89 363.5C26.44 326.13 2.5 270.37 0 214.24L0 194.91C2.43 139.51 25.49 84.28 67.09 46.99C98.37 18.38 139.91 2.03 182.12 0ZM203.58 121.15C181.62 126.09 161.89 140.48 151.16 160.35C133 194.07 136.58 240.41 164.23 268.03C188.8 292.23 227.59 296.57 259.43 286.44C283.16 278.85 302.42 259.11 309.44 235.19C320.26 200.85 311.6 158.84 282.26 136.27C260.32 119.08 230.27 115.12 203.58 121.15Z" />
		<path id="Layer" fill-rule="evenodd" class="shp0" d="M1536.73 0L1554.16 0C1595.27 2.1 1637.19 18 1664.46 49.83C1664.41 37.46 1664.41 25.07 1664.46 12.68C1709.64 12.64 1754.82 12.68 1800 12.66L1800 397.34C1754.82 397.32 1709.64 397.36 1664.46 397.32C1664.33 382.76 1664.62 368.19 1664.26 353.64C1641.22 389.95 1598.06 407.95 1556.37 410L1539.16 410C1501.61 408.22 1464.52 395.38 1434.69 372.36C1403.77 348.88 1380.67 315.79 1367.73 279.3C1349.75 228.74 1350.81 171.68 1370.61 121.83C1384.76 86.05 1409.04 54.07 1440.81 32.21C1468.89 12.57 1502.64 1.94 1536.73 0ZM1560.11 120.81C1534.03 126.02 1511.21 144.92 1501.69 169.86C1489.5 201.24 1493.66 240.28 1516.86 265.6C1533.24 283.51 1557.97 291.71 1581.8 291.48C1604.63 291.73 1628.3 284.41 1644.73 268.03C1682.23 230.57 1675.75 157.71 1629.02 130.59C1608.46 118.45 1583.19 115.99 1560.11 120.81Z" />
		<path id="Layer" class="shp0" d="M1257.28 9.66C1275.32 6.58 1293.66 7.64 1311.86 7.46C1311.93 51.2 1311.86 94.95 1311.88 138.72C1289.32 125.97 1262.43 124.46 1237.21 127.03C1216.04 129.29 1194.75 138.59 1181.9 156.12C1164.91 179.07 1161.67 208.78 1160.98 236.52C1160.71 290.11 1160.95 343.72 1160.84 397.32C1115.66 397.34 1070.48 397.34 1025.3 397.32C1025.28 269.11 1025.28 140.89 1025.3 12.68C1070.48 12.66 1115.66 12.66 1160.84 12.68C1161.13 33.99 1160.33 55.37 1161.27 76.66C1168.38 65.37 1175.67 54 1185.41 44.74C1204.72 25.57 1230.57 13.81 1257.28 9.66Z" />
		<path id="Layer" class="shp0" d="M532.71 12.68C577.87 12.66 623.05 12.68 668.23 12.66C668.32 82.07 668.16 151.47 668.32 220.88C668.75 241.76 670.5 264.61 683.98 281.62C696.31 296.89 717.05 301.42 735.79 301.17C754.58 301.44 775.42 296.98 787.81 281.66C800.89 265.26 802.96 243.25 803.48 223.02C803.59 152.92 803.48 82.79 803.54 12.68C848.72 12.66 893.9 12.66 939.08 12.68C939.13 89.52 939.08 166.37 939.11 243.23C939.15 261.88 937.37 280.65 932.56 298.69C924.55 330.14 905.2 358.77 877.9 376.52C840.2 401.46 793.98 408.22 749.72 410L722.36 410C680.04 408.36 636.19 402.12 599.29 379.9C572.51 364.07 551.99 338.3 542.34 308.72C532.73 281.23 532.31 251.79 532.69 223C532.69 152.89 532.66 82.79 532.71 12.68Z" />
	</g>
</svg>