<svg version="1.2" xmlns="http://www.w3.org/2000/svg" viewBox="0 0 1591 979" width="1591" height="979">
	<title>logo-yamanagold-svg</title>
	<style>
		.s0 { fill: #ffffff } 
		.s1 { fill: #896d00 } 
	</style>
	<g id="Group_1">
		<path id="Path_1" class="s0" d="m429.4 692.6v63.2c0 63.1 0 139.7 31.7 189.3h-194.2c31.6-49.6 31.6-121.7 31.6-189.3v-130.8c0-103.7-45.2-198.3-103.9-320.1c-49.7-108.2-112.9-202.8-194.2-288.5h126.5c54.1 0 63.2 13.5 90.3 54.1c67.7 112.7 117.4 234.4 153.5 360.7c4.5 22.5 9.1 45 22.6 45c9 0 18.1-22.5 31.6-49.5l99.4-175.9c36.1-49.6 58.7-108.2 67.7-171.3c0-22.5-9-45.1-22.6-58.6h185.2l-167.1 257c-103.9 157.8-158.1 229.9-158.1 414.7z" />
		<path id="Path_7" class="s1" d="m1558.4 829.7c0 40.6 4.5 85.7 9 126.3c-103.8 13.5-207.7 22.5-311.6 22.5c-307.1 0-514.8-135.3-514.8-464.4c0-351.6 257.4-513.9 582.5-513.9c72.3 0 149.1 13.5 221.3 18v157.8c-81.2-72.1-185.1-112.7-293.5-108.2c-225.8 0-356.8 193.9-356.8 405.8c0 270.5 131 446.3 411 446.3c36.1 0 72.2-4.5 108.4-9c9-49.6 18-99.2 13.5-148.8v-72.1c0-63.2 0-139.8-31.6-189.4h194.2c-31.6 49.6-31.6 121.7-31.6 189.4z" />
	</g>
</svg>