<svg version="1.2" xmlns="http://www.w3.org/2000/svg" viewBox="0 0 1556 1079" width="1556" height="1079">
	<title>american-vanguard-logo-svg</title>
	<defs>
		<linearGradient id="g1" x1="601.8" y1="202.9" x2="1523.3" y2="202.9" gradientUnits="userSpaceOnUse">
			<stop offset="0" stop-color="#ffffff"/>
			<stop offset="1" stop-color="#ffffff"/>
		</linearGradient>
		<linearGradient id="g2" x1="0" y1="541.1" x2="1553.1" y2="541.1" gradientUnits="userSpaceOnUse">
			<stop offset="0" stop-color="#ffffff"/>
			<stop offset="1" stop-color="#ffffff"/>
		</linearGradient>
		<linearGradient id="g3" x1="601.8" y1="598.3" x2="1523.3" y2="598.3" gradientUnits="userSpaceOnUse">
			<stop offset="0" stop-color="#ffffff"/>
			<stop offset="1" stop-color="#ffffff"/>
		</linearGradient>
	</defs>
	<style>
		.s0 { fill: url(#g1) } 
		.s1 { fill: url(#g2) } 
		.s2 { fill: url(#g3) } 
	</style>
	<g id="Layer">
		<path id="Layer" class="s0" d="m1099 208.6c-119.3 43.2-238.6 99-350.2 165l-142.2-314.7c5.1-10.1 10.2-17.8 17.8-27.9h880.7c12.7 0 20.3 12.7 15.3 25.4l-28 63.4c-17.7 2.5-38 2.5-55.8 5.1-38.1 2.5-76.2 10.1-114.2 17.7-76.2 17.8-152.3 40.7-223.4 66z"/>
		<g id="Layer">
			<path id="Layer" class="s1" d="m1555.9 122.3c-5.1 0-10.2 2.6-15.2 2.6-17.8 2.5-35.6 5.1-50.8 7.6-17.8 5.1-33 7.6-48.2 12.7-38.1 10.1-73.6 22.8-109.2 35.5-71 27.9-139.6 60.9-205.6 96.4-131.9 73.6-256.3 162.5-368 261.4-111.7 101.5-213.2 210.7-297 329.9-43.1 60.9-83.7 121.8-116.7 185.3-5.1 7.6-7.6 17.8-12.7 25.4h-332.5c22.8-83.8 50.8-165 78.7-248.7 40.6-106.6 88.8-210.7 142.1-309.6 53.3-99 114.2-192.9 180.2-281.7 66-86.3 142.2-170 225.9-238.6-66 86.3-119.3 180.2-162.4 279.2-43.2 96.4-78.7 197.9-106.6 299.4-7.6 35.6-17.8 68.6-25.4 104.1 104.1-101.5 220.8-190.3 340.1-266.5 25.4-15.2 48.2-27.9 73.6-43.1 111.7-66 228.5-121.8 350.3-165 73.6-27.9 149.7-50.7 225.9-66 38-7.6 76.1-12.6 114.2-17.7 17.8-2.6 38.1-5.1 55.8-5.1 20.3 0 40.6 0 63.5 2.5z"/>
		</g>
		<g id="Layer">
			<path id="Layer" class="s2" d="m1482.3 145.2l-403.6 898.3c-7.6 15.3-25.4 15.3-33 0l-218.3-484.7c109.2-96.4 396-340 654.9-413.6z"/>
		</g>
	</g>
</svg>