<svg version="1.2" xmlns="http://www.w3.org/2000/svg" viewBox="0 0 1503 448" width="1503" height="448">
	<title>AVI-Sens-Booklet-March-2022-2-1-pdf-svg</title>
	<defs>
		<clipPath clipPathUnits="userSpaceOnUse" id="cp1">
			<path d="m-439.7-6508.64h5315.51v7551.36h-5315.51z"/>
		</clipPath>
	</defs>
	<style>
		.s0 { fill: #0e3692 } 
	</style>
	<g id="Clip-Path: Page 1" clip-path="url(#cp1)">
		<g id="Page 1">
			<path id="Path 107" fill-rule="evenodd" class="s0" d="m1186.5 17.4l63-15.9-276.7 432.7q-6.7 13.3-21.1 13.3-14.9 0-21.5-13.3l-276.4-433.1 63.1 16 214.7 334.3c6 9.7 33.8 9.7 40.1 0zm-866.1-3l276.3 433.1-63-16.3-51.6-79.8h-322.7l31.9-44.9h261.9l-134.3-209.3c-5.9-9.7-34.1-9.7-40.1 0l-214.7 333.6-63.1 16.3 276.7-432.7q6.3-13.3 21.2-13.3 14.8 0 21.5 13.3zm1182.1-14.4v447.5l-45.6-16.3v-413.8z"/>
		</g>
	</g>
</svg>