<svg version="1.2" xmlns="http://www.w3.org/2000/svg" viewBox="0 0 1547 673" width="1547" height="673">
	<title>missinproduce-svg</title>
	<style>
		.s0 { fill: #ffffff } 
		.s1 { fill: #2c347e } 
		.s2 { fill: #e93526 } 
	</style>
	<path id="Layer" class="s0" d="m487.7 672.5q-8.7 0-17.5-0.5q-8.7-0.5-17.4-1.5q-8.7-1-17.3-2.5q-8.6-1.5-17.1-3.5c-61.3-14.3-102.4-40.2-122.2-76.9q-0.6-1-1.1-2.1q-0.6-1.1-1.1-2.2q-0.6-1.1-1.1-2.2q-0.5-1.1-1-2.3h-291.9l57.9-130.9h22.1l16.3-36.8h-23.7l64.4-137.6h215.5l-2.3 13.6l10.4-13.6h278.5v-11.4l36.7-12.8v-54.9l-5.6-5.4l-5-4.7v-27l22.1-8.9c8.4-42.8 45.3-81.6 92.8-95.8l4.4-1.3q-0.4-0.9-0.8-1.8q-0.3-0.8-0.5-1.8q-0.2-0.9-0.4-1.8q-0.1-0.9-0.1-1.9c-0.4-2.1-0.4-4.2-0.2-6.3c0.3-2.1 0.9-4.2 1.7-6.1c0.9-2 2-3.8 3.4-5.4c1.4-1.6 3-3 4.8-4.1l4.3-2c0-1.9 0.2-3.9 0.8-5.7c0.6-1.8 1.4-3.6 2.5-5.2c1.1-1.5 2.5-2.9 4-4.1c1.5-1.1 3.2-2.1 5-2.7c1.9-0.6 4.7-1.4 6.8-1.9h1.9h2.6q2.1 0 4.1 0.4q2 0.4 3.8 1.2q1.9 0.8 3.5 2q1.6 1.3 3 2.8h2.1c2.3 0 4.6 0.3 6.7 1.2c2.2 0.8 4.2 2 5.9 3.5c1.7 1.6 3.1 3.4 4.1 5.5c1.1 2.1 1.7 4.3 1.9 6.6c0.5 2.5 0.5 5.1 0.2 7.6c-0.4 2.5-1.2 4.9-2.5 7.1c-1.2 2.2-2.8 4.2-4.7 5.8c-1.9 1.7-4.1 3-6.4 3.9q6.1 0.9 12.2 2.3q6.1 1.4 12 3.4q5.9 1.9 11.6 4.3q5.8 2.5 11.3 5.4c6.8 3.7 13.4 7.9 19.5 12.8c6.1 4.8 11.8 10.1 17 16c5.1 5.8 9.8 12.1 13.9 18.7c4 6.7 7.5 13.7 10.3 20.9l10.5 4.6l9.7 4.3v30.4l-8.9 7.1v55.2l36.7 12.9v27h156.1l-27.4 62q5.7-1.1 11.4-2q5.8-0.8 11.6-1.4q5.8-0.6 11.6-0.9q5.8-0.3 11.6-0.3q8.3-0.2 16.6 0.5q8.3 0.6 16.5 2q8.2 1.4 16.2 3.6q8 2.2 15.8 5.2l3.1-6.9h147.9q5.1-1.1 10.2-2q5.1-0.8 10.3-1.3q5.2-0.6 10.3-0.9q5.2-0.2 10.4-0.2c47 0 69.8 19.8 80.6 36.4c3.5 5.7 6.2 11.8 8.2 18.2c1.9 6.5 3 13.1 3.3 19.8c0.2 6.7-0.4 13.4-1.9 19.9c-1.5 6.5-3.8 12.8-6.9 18.8l-2.6 5.8h19l-57.2 129h-325.2q-5.1 1-10.2 1.7q-5 0.7-10.2 1.3q-5.1 0.5-10.2 0.8q-5.2 0.2-10.3 0.3h-3q-8 0.2-16-0.4q-8-0.6-15.9-1.9q-7.9-1.3-15.6-3.4q-7.8-2-15.3-4.7l-3 6.5h-175.6q-4.3 1.1-8.7 1.9q-4.3 0.9-8.7 1.4q-4.4 0.6-8.8 0.8q-4.4 0.3-8.9 0.3q-4.7 0.1-9.5-0.1q-4.7-0.3-9.4-0.8q-4.8-0.6-9.4-1.4q-4.7-0.9-9.3-2.1h-101.4q-4.3 1.1-8.6 1.9q-4.4 0.8-8.8 1.3q-4.4 0.6-8.8 0.8q-4.4 0.3-8.8 0.3h-3.9q-2.1 7-5.1 13.6q-2.9 6.6-6.7 12.8q-3.7 6.2-8.2 11.9q-4.4 5.7-9.6 10.8c-28.1 29.5-86 40.2-131.7 40.2z" />
	<path id="Layer" class="s0" d="m1509 576.6c-20.2-0.2-36.4-16.7-36.3-36.9c0.2-20.2 16.6-36.5 36.8-36.5c20.1 0 36.5 16.3 36.7 36.5c0.1 20.2-16.1 36.7-36.3 36.9z" />
	<path id="Layer" fill-rule="evenodd" class="s1" d="m1517.6 545.7q0 0.6 0.2 1.2q0.1 0.6 0.2 1.2q0.2 0.6 0.4 1.2q0.2 0.6 0.4 1.2h-4.7q-0.3-0.6-0.5-1.2q-0.3-0.5-0.4-1.2q-0.2-0.6-0.4-1.2q-0.1-0.6-0.2-1.2c-0.3-2-1.4-3.1-3.9-3.1h-2.2v7.9h-4.5l0.5-19.6q0.9-0.1 1.9-0.1q0.9 0 1.9 0q0.9 0 1.9 0q0.9 0 1.8 0.1q0.9 0 1.8 0q0.8 0.1 1.7 0.3q0.8 0.2 1.6 0.6q0.8 0.3 1.5 0.8q0.5 0.4 0.9 0.9q0.4 0.4 0.6 1q0.3 0.6 0.4 1.2q0.1 0.6 0.1 1.2q-0.1 0.8-0.4 1.6q-0.4 0.8-0.9 1.4q-0.6 0.6-1.3 1q-0.8 0.4-1.6 0.6c2.2 0.6 2.8 2.5 3.2 4.2zm-4.1-8.2c0-1.9-1.3-3.1-4.1-3.1q-0.3-0.1-0.6-0.1q-0.3 0-0.7 0q-0.3 0-0.6 0q-0.3 0-0.6 0.1v5.5h2.2c2.5 0 4.4-0.5 4.4-2.4z" />
	<path id="Layer" fill-rule="evenodd" class="s1" d="m1518 522.7c2.4 1.1 4.6 2.6 6.4 4.5c1.8 1.8 3.2 4 4.2 6.5c1 2.4 1.4 5 1.4 7.6c-0.2 8-5.1 15-12.5 18c-7.5 2.9-15.9 1-21.5-4.7c-5.5-5.7-7.1-14.2-3.9-21.5c3.1-7.4 10.4-12.1 18.4-12c2.6 0 5.1 0.6 7.5 1.6zm-2.5 32.7c1.9-0.8 3.6-1.9 5-3.3c1.4-1.4 2.6-3.1 3.3-4.9c0.8-1.9 1.2-3.9 1.2-5.9c0.2-6.4-3.5-12.3-9.4-14.9c-5.9-2.6-12.7-1.3-17.3 3.2c-4.6 4.5-5.9 11.3-3.4 17.3c2.4 5.9 8.3 9.7 14.7 9.5c2 0.1 4-0.3 5.9-1z" />
	<path id="Layer" class="s0" d="m676.9 292.6l155.4-50.9v127.3l-155.4 13.4v-89.8z" />
	<path id="Layer" class="s1" d="m980.2 257.8v14.5q-1.8 1.1-3.6 2q-1.8 1-3.6 1.9q-1.9 1-3.7 1.8q-1.9 0.9-3.8 1.6v90.5l-125.5 4.9l-170.5 10.5v-90.7q-1.9-0.8-3.7-1.6q-1.9-0.9-3.7-1.8q-1.9-0.9-3.7-1.8q-1.8-1-3.5-2v-13.7l35.4-12.4l1.1-1.5v-71.7c-3.5-3.9-10.5-10.5-10.5-10.5v-10.1l20.9-8.3c3.9-39.1 36.8-77.6 82.7-91.4q3.4-1 6.9-1.8q3.5-0.8 7.1-1.4q3.5-0.6 7.1-1.1q3.6-0.4 7.2-0.6v-0.9v-20.9l-12.1 4.2q-0.4 0-0.8-0.1q-0.4-0.2-0.7-0.4q-0.3-0.3-0.4-0.7q-0.1-0.4-0.1-0.8c-0.1-2.6-0.3-6 1-6.8c2.7-1.7 13.2-5.3 13.2-5.3v-10.5c0 0-0.2-2.6 1.5-3.2q0.6-0.2 1.3-0.4q0.6-0.2 1.3-0.4q0.6-0.2 1.3-0.4q0.6-0.1 1.3-0.3q0.6-0.2 1.1-0.1q0.6 0.1 1.1 0.5q0.4 0.4 0.7 0.9q0.2 0.5 0.1 1.1c0 3.7 0 8.9 0 8.9l11.3-4.1c0 0 4.8-1.6 4.8 1.8c0.6 5.8 0.1 6.8-2.9 8c-6.2 2.5-13 5-13 5v24.6q7.6 0.2 15.2 1.3q7.5 1.1 14.8 3q7.4 1.9 14.5 4.5q7.1 2.7 13.9 6.1c6.5 3.5 12.7 7.5 18.4 12.2c5.8 4.6 11 9.8 15.8 15.4c4.7 5.6 8.9 11.7 12.5 18.1c3.6 6.5 6.6 13.2 8.8 20.2c5.6 2.8 16.8 7.7 16.8 7.7v12c0 0-7 5.7-8.9 7.7v72.8l1.2 1.6z" />
	<path id="Layer" fill-rule="evenodd" class="s0" d="m832.2 242.9v127.1l-155 14.4v-91c1.3-2.5 5.1-2.7 7.9-3.5l144.6-47zm-25.2 112.8c-2.3-20.9 3.6-43.6-6.9-62.8q-1.3-1.9-2.9-3.7q-1.6-1.7-3.5-3.3q-1.8-1.5-3.8-2.8q-2-1.2-4.2-2.2q-5.4-2.2-11.2-3.4q-5.8-1.1-11.6-1.1q-5.9 0-11.7 1.1q-5.8 1.2-11.2 3.4c-4.2 1.5-8.2 3.6-11.9 6.1c-3.7 2.5-7.1 5.5-10 8.8c-3 3.4-5.5 7.1-7.5 11.1c-2 4-3.5 8.2-4.5 12.6v57.6c0.1 1.4 1.5 1.4 2.1 1.4l86.8-19.7l10.5-1.6z" />
	<path id="Layer" class="s0" d="m797.8 305.5c1.6 15.1 1 28.9 1 44l-57.5 13.3q-0.4-5.4-0.5-10.9q-0.2-5.4-0.2-10.9q0-5.5 0.2-10.9q0.1-5.5 0.5-10.9c1.2-4.2 3-8.1 5.4-11.8c2.3-3.6 5.1-6.9 8.3-9.8c3.2-2.9 6.8-5.4 10.7-7.3c3.9-1.9 8-3.3 12.3-4.1c2.4 0.5 4.7 1.4 6.9 2.5c2.1 1.2 4.1 2.6 5.9 4.3c1.8 1.7 3.3 3.6 4.6 5.7c1.3 2.1 2.2 4.4 2.9 6.8" />
	<path id="Layer" class="s0" d="m947.1 153.7v4.1l-106.9-42.7v-5.1c36.3 13.8 107 43.5 107 43.5" />
	<path id="Layer" class="s0" d="m831.7 115.1l-142.4 58.6q0-0.5-0.1-1q0-0.5 0-1q0-0.5 0-1q0.1-0.5 0.1-1l97.6-39.8c14.9-6.2 29.6-13.4 44.7-18.9z" />
	<path id="Layer" class="s0" d="m912.9 172q-0.5-0.5-1.1-1q-0.5-0.5-1.1-1q-0.6-0.4-1.2-0.8q-0.6-0.5-1.2-0.9v-14.7l4.6 1.9z" />
	<path id="Layer" class="s0" d="m920.2 181.3q-0.3-0.7-0.7-1.3q-0.4-0.7-0.8-1.4q-0.4-0.6-0.9-1.2q-0.4-0.6-0.9-1.2v-19.3l3.5 1.5z" />
	<path id="Layer" class="s0" d="m874.7 166.1q-1 0.5-2.1 1.1q-1 0.6-2 1.2q-1 0.7-2 1.4q-0.9 0.7-1.8 1.5v-34.4l7.9 3.2z" />
	<path id="Layer" class="s0" d="m904.4 166q-0.7-0.3-1.4-0.6q-0.7-0.3-1.4-0.6q-0.8-0.3-1.5-0.5q-0.8-0.3-1.5-0.5v-14.2l5.8 2.4z" />
	<path id="Layer" class="s0" d="m933.1 242.1l-2.2-0.8v-78.6l2 0.8z" />
	<path id="Layer" class="s0" d="m862.9 175.8q-0.1 0.2-0.2 0.4q-0.2 0.2-0.3 0.4q-0.1 0.2-0.2 0.4q-0.1 0.2-0.1 0.4c-0.6 1-1.4 1.9-1.4 2.9v38.6l-6.5-2v-84.9l8.7 3.4z" />
	<path id="Layer" class="s0" d="m926.8 239.2h-1.7h-0.9v-79.2l2.6 1z" />
	<path id="Layer" class="s0" d="m936.6 165.1l2 0.8v77h-1.9z" />
	<path id="Layer" class="s0" d="m850.4 215.8c-3-0.8-5.9-1.8-9.1-3v-85.9l8.9 3.6z" />
	<path id="Layer" class="s0" d="m894.5 163.1h-2.5h-2.9v-16.6l5.5 1.5z" />
	<path id="Layer" class="s0" d="m885.3 162.8q-0.9 0.1-1.7 0.3q-0.9 0.2-1.7 0.4q-0.8 0.2-1.7 0.4q-0.8 0.3-1.6 0.6v-22.9l6.7 2.8z" />
	<path id="Layer" class="s0" d="m831.2 128.9v84.8q-2.5 1.1-5.1 2.1q-2.6 0.9-5.2 1.8q-2.6 0.9-5.3 1.7q-2.6 0.8-5.3 1.4c-1.1-18.3 3.3-39.2-18.8-49.7c-4.6-1.5-9.3-2.4-14.1-2.7c-4.8-0.3-9.7 0-14.4 1c-4.7 0.9-9.3 2.4-13.6 4.4c-4.4 2.1-8.4 4.7-12.1 7.8q-3.4 2.3-6.1 5.3q-2.8 3-4.8 6.6q-2 3.5-3.2 7.4q-1.2 3.9-1.5 8q-0.2 2.5-0.3 5.1q-0.1 2.5-0.1 5.1q0 2.5 0.1 5q0.1 2.6 0.3 5.1c0 6.9 0 20.9 0 20.9l-21.6 8.1v-73.2l130.9-56z" />
	<path id="Layer" class="s0" d="m782.5 213.3q2.6 0.8 5.3 1.4q2.6 0.7 5.3 1.1q2.7 0.5 5.5 0.8q2.7 0.3 5.4 0.4v6.1c-15.8 5.4-31.8 11.1-47.9 15.8c-0.6-18.1-1.9-44.3 14.3-52.3q1.8-1.3 3.7-2.4q1.9-1.2 3.9-2q2-0.9 4.2-1.6q2.1-0.6 4.2-1q0.4 3.7 0 7.3q-0.5 3.6-1.9 7q-1.4 3.4-3.5 6.4q-2.2 2.9-5 5.3c-1.2 4.2 3 5.2 6.1 7.3" />
	<path id="Layer" class="s0" d="m892.1 228.3c-6.9-1.6-18.4-5.4-26.7-7.7v-39c0-1.6 3.6-7.3 5.4-7.5c26.4 9.1 21.8 33.7 20.9 54.2" />
	<path id="Layer" class="s0" d="m973.1 264.4l-2.7 0.1l-128.8-38.9v-5.7l131.5 41.5v3z" />
	<path id="Layer" class="s0" d="m841.6 219.9l131.5 41.5v3l-2.7 0.1l-81.5-24.8" />
	<path id="Layer" class="s0" d="m760.5 92.2c-8.5 7.6 6.2 13.6 16.4 4.8c5.3-4 10.9-7.4 16.8-10.2c5.9-2.9 12.1-5.1 18.5-6.7c6.3-1.5 12.8-2.4 19.4-2.7c6.6-0.2 13.1 0.2 19.6 1.3c-28.4-10.5-68.1-7-90.7 13.5z" />
	<path id="Layer" class="s0" d="m939.3 366.3h1v1.5l-98.6 1.2v-127.3l8.3 2.6v122h4v-120.9l8.9 2.9v118h4v-116.9l7.7 2.4v114.5h3.9v-113.3l6.9 2.1v111.2h3.9v-110l5.6 1.7v108.3h3.9v-107.1l5.7 1.7v105.4h3.9v-104.1l4.7 1.4v102.7h3.9v-101.5l3.6 1.1v100.4h3.9v-99.2l2.8 0.8v98.4h3.9v-97.1l2.1 0.6v96.5h3.9v-95.3l2.1 0.6v94.7z" />
	<path id="Layer" class="s0" d="m945.2 366.3h1.6v1.5h-5.2v-1.5h1.5v-93.5l2.1 0.7v92.8z" />
	<path id="Layer" class="s0" d="m955.1 276.5l4.5 1.4v89.7l-11.6 0.2v-1.5h1.1v-91.7l2.1 0.6v91.1h3.9v-89.8z" />
	<path id="Layer" class="s0" d="m831.7 226.6c-28.6 9.3-57.7 17.9-85.9 27.9l-82.8 27.1l3.1-6l44.2-14.7l120.7-40.1h0.7z" />
	<path id="Layer" class="s1" d="m1485.2 465.7h19.6l-42.9 96.7h-304.2l1.3-2.9q-6.4 1.6-12.9 2.9q-6.5 1.2-13 2.1q-6.6 0.9-13.2 1.3q-6.6 0.5-13.2 0.6h-2.8q-9.2 0.4-18.5-0.5q-9.2-0.8-18.2-2.9q-9-2-17.6-5.3q-8.7-3.3-16.8-7.6l-5.5 12.3h-167.3q-4.1 1.1-8.2 1.9q-4.1 0.8-8.2 1.4q-4.2 0.5-8.3 0.8q-4.2 0.3-8.4 0.3q-4.5 0.1-8.9-0.2q-4.5-0.2-9-0.7q-4.4-0.6-8.8-1.5q-4.4-0.8-8.7-2h-105.6q-4 1.1-8.1 1.9q-4.1 0.8-8.3 1.4q-4.1 0.5-8.3 0.8q-4.1 0.3-8.3 0.3c-6.4 0-12.2-0.9-17.5-0.9q-0.8 7.8-3.1 15.3q-2.2 7.6-5.8 14.6q-3.5 7.1-8.3 13.4q-4.7 6.2-10.5 11.6c-24.7 26-80 35.2-120 35.2q-8.2 0.1-16.5-0.4q-8.3-0.5-16.5-1.4q-8.2-0.9-16.3-2.3q-8.2-1.4-16.3-3.3c-56-13.1-94.1-36.2-111-68.6q-2.1-3.7-3.9-7.6q-1.7-3.9-3-8q-1.3-4-2.2-8.2q-0.9-4.2-1.4-8.4l-11.6 14.8h-264.2l43.7-98.5h22l30.6-69.1h-23.2l49.4-105.5h186.5l-10.5 61.4l45.1-61.4h294.2l-27.3 61.8l-1.1 2.5q5-1.7 10.2-3q5.1-1.3 10.4-2.2q5.2-0.8 10.6-1.3q5.3-0.4 10.6-0.4q4.4-0.1 8.7 0.2q4.4 0.2 8.7 0.8q4.3 0.5 8.6 1.4q4.3 0.8 8.5 2h106.4q4-1.1 8.2-1.9q4.1-0.7 8.2-1.3q4.2-0.5 8.4-0.8q4.1-0.3 8.3-0.3q4.4-0.1 8.7 0.2q4.3 0.2 8.6 0.8q4.3 0.5 8.6 1.3q4.3 0.9 8.4 2h76.6l27.4-61.7h140.9l-31.4 70.7q9-3.3 18.3-5.8q9.2-2.5 18.6-4.2q9.5-1.6 19-2.5q9.5-0.8 19.1-0.8q9.5-0.4 18.9 0.5q9.4 0.9 18.6 3q9.2 2.2 18 5.6q8.8 3.5 17.1 8.1l5.7-12.9h139.2q4.8-1.1 9.7-1.9q4.9-0.8 9.9-1.4q4.9-0.5 9.9-0.8q4.9-0.2 9.9-0.2c39.7 0 58.4 15.8 66.9 29c2.8 4.6 5 9.5 6.5 14.6c1.5 5.2 2.3 10.5 2.4 15.8c0.2 5.4-0.4 10.7-1.6 15.9c-1.3 5.2-3.2 10.3-5.7 15z" />
	<path id="Layer" fill-rule="evenodd" class="s0" d="m1485.2 384.6c2.1 3.5 3.6 7.3 4.7 11.2c1 3.9 1.5 7.9 1.5 12c0 4-0.5 8.1-1.5 12c-1.1 3.9-2.6 7.7-4.7 11.2l-22.7 50.2h19.1l-29.4 65.6h-270l6.4-14.4q-9.6 4.5-19.6 7.9q-10 3.5-20.4 5.8q-10.3 2.3-20.9 3.5q-10.5 1.3-21.1 1.3h-2.6c-41.5 0-64.5-12.2-77.3-25.2l-9.4 20.9h-146.4l2.3-5.1q-5.4 2.3-11 4.1q-5.6 1.7-11.3 2.9q-5.7 1.2-11.6 1.9q-5.8 0.6-11.6 0.6q-5.3 0.3-10.5-0.1q-5.3-0.4-10.5-1.3q-5.1-1-10.2-2.5q-5-1.5-9.8-3.6l-1.5 3.1h-83.7l3.4-7.5q-5.9 2.9-12.1 5.1q-6.2 2.2-12.6 3.7q-6.4 1.5-13 2.3q-6.5 0.8-13.1 0.8q-4.7 0.2-9.5-0.1q-4.7-0.3-9.4-1.1q-4.7-0.7-9.3-1.9q-4.6-1.1-9.1-2.7q0.5 1 1 2.1q0.5 1 0.9 2.1q0.4 1.1 0.7 2.3q0.4 1.1 0.6 2.2c4 17.2-3.5 36-22.5 56c-17.1 18.2-60.7 30.5-108.5 30.5q-7.8 0-15.7-0.5q-7.8-0.4-15.5-1.3q-7.8-0.9-15.5-2.2q-7.7-1.3-15.3-3.1c-52-12.2-86.1-32.7-101.4-61.1c-2.2-3.8-3.9-7.8-5.3-11.9c-1.3-4.2-2.3-8.4-2.8-12.8c-0.5-4.3-0.5-8.7-0.1-13.1c0.4-4.3 1.2-8.6 2.5-12.8l22.2-50.8l-59.7 76.2h-91.1l1.9-18.3l-8.2 18.3h-135l29.7-67.2h22.3l44.4-100.5h-22.8l34.8-74h157.6l-17.8 107.8l79.2-107.8h261.7l-27.3 61.8l-10.5 24.8c5.1-4.7 10.7-8.8 16.6-12.5c5.9-3.6 12.1-6.7 18.6-9.2c6.4-2.5 13.1-4.4 19.9-5.6c6.8-1.3 13.7-1.9 20.6-1.9q5.3-0.2 10.5 0.2q5.3 0.4 10.5 1.4q5.1 1 10.1 2.6q5 1.6 9.8 3.8l1.6-3.6h82.3l-4 8.9q6.2-3.2 12.7-5.7q6.4-2.5 13.2-4.2q6.7-1.7 13.6-2.5q6.9-0.9 13.8-0.9q5.2-0.2 10.5 0.2q5.2 0.4 10.3 1.4q5.2 1 10.2 2.6q5 1.6 9.8 3.8l1.7-3.6h78.5l27.4-61.8h106.6l-27.4 61.8l-11.9 27c7.9-5.2 16.1-9.7 24.7-13.7c8.6-3.9 17.4-7.3 26.5-9.9c9.1-2.7 18.3-4.6 27.6-6c9.4-1.3 18.8-1.9 28.3-1.8c43.1 0 66.2 13 78.6 26.5l9.7-22.1h120.7l-1.4 3.3q5.9-1.9 12-3.4q6.1-1.5 12.3-2.4q6.2-1 12.4-1.5q6.3-0.4 12.5-0.4c33 0 47.4 11.4 53.9 21.9m-558.5 65.2h0.6q0 0 0 0q-0.2-0.3-0.4-0.6zm0.6 0q0.2 0.2 0.3 0.5q0.2 0.2 0.3 0.5q0.2 0.3 0.4 0.6q0.5 1 1 2.1q0.4 1.1 0.8 2.2q0.5 1.2 0.8 2.3q0.3 1.1 0.6 2.3l4.7-10.5zm-410.1 112.3q-1.7-1.5-3.5-2.8q-1.8-1.3-3.8-2.4q-1.9-1-4-1.9q-2-0.8-4.2-1.4l1-7.1h-81.1q2.2 2.6 4.9 4.8q2.7 2.2 5.7 3.9q2.9 1.7 6.2 2.8q3.2 1.2 6.6 1.8q6 1.5 12.1 2.6q6.1 1.2 12.2 2q6.1 0.8 12.3 1.2q6.2 0.5 12.4 0.6q2.9 0.2 5.9 0.1q3-0.1 5.9-0.5q3-0.5 5.9-1.3q2.8-0.8 5.6-1.9zm-61.3-80.9l21.2-49.1h-17.4l-21 49.1zm125.9-18.6h-0.3l0.3 0.4zm-0.3 0l-1.3-2.3q-0.7-1.3-1.3-2.7q-0.6-1.5-1-2.9q-0.5-1.5-0.8-3q-0.4-1.5-0.6-3l-6.1 13.9zm539-0.6q-1.4 2.3-2.4 4.9q-1 2.5-1.6 5.2q-0.5 2.7-0.6 5.4q-0.2 2.7 0.2 5.4q0.6 0.2 1.2 0.4q0.5 0.2 1.2 0.2q0.6 0.1 1.2 0.2q0.6 0 1.2 0h3.1c13.5-1.3 22.3-10.5 32.8-34q1.3-2.3 2.2-4.7q1-2.4 1.7-5q0.6-2.5 1-5q0.3-2.6 0.3-5.2q-0.6-0.1-1.1-0.2q-0.6 0-1.1 0q-0.6 0-1.2 0q-0.5 0.1-1.1 0.2c-20.4 0-33.3 25.5-36.7 33.2zm218.9 19.3h17.5l21.2-49.5c-2.4-0.1-4.7 0.1-7 0.7c-2.3 0.5-4.5 1.4-6.6 2.6c-2 1.2-3.9 2.7-5.5 4.4c-1.7 1.7-3 3.7-4.1 5.8zm-1138-21.8l-9 20.3h6.9z" />
	<path id="Layer" class="s2" d="m1430.9 378.4c36.9 0 52.6 16.7 39.7 45.9l-32.4 73.3h19l-14.8 33.5h-108l14.9-33.5h17.4l26-58.4c5.5-12.7 1.3-22-14.6-22c-3.9-0.1-7.8 0.3-11.6 1.3c-3.8 1-7.4 2.5-10.8 4.5c-3.3 2-6.3 4.5-9 7.4c-2.6 2.9-4.8 6.2-6.5 9.7l-25.4 57.5h15.9l-14.9 33.5h-108.7l14.9-33.5h20.9l35.9-81h-20.9l14.8-33.6h85.9l-13 29.2h0.7c21.7-24.8 54.4-33.5 84.4-33.5" />
	<path id="Layer" class="s2" d="m585.9 599.4c-18.5 19.5-88 34.6-155.4 18.8c-118.7-28-95.8-90.7-95.8-90.7l72.2-163.8h-0.8l-131.2 167.4h-65.7l17.6-167.6h-0.9l-58.5 132.3h23l-15.6 35.3h-100.3l15.6-35.7h22l58.6-132.3h-22l19.7-41.8h129l-25.5 153.7h0.7l112.8-153.3h128.8l-19.8 41.8h-21.9l-71.7 163.9c0 0-7.5 36.7 39.5 48.5c33.5 8.3 78.8 10.9 88.7-2.9c16.3-22.4-23.3-34.1-23.3-34.1h81c0.1 0 41.8 15.6-0.8 60.5z" />
	<path id="Layer" class="s2" d="m615.2 321.3l-20.4 45.9h-71.4l20.4-45.9h71.4z" />
	<path id="Layer" class="s2" d="m495.2 383.1h92.6l-50.7 114.5h18.9l-14.8 33.5h-111.7l14.8-33.5h21.4l35.8-81h-21.3l15-33.5z" />
	<path id="Layer" class="s2" d="m664.1 421.8c-11.8 26.7 101.1 4 73.9 65.5c-13.1 29.2-49 48.7-83.7 48.7c-23.9 0-44-5.7-44.8-20.9h-0.8l-7.1 16.1h-49.4l23.1-52.3h51.5c-6.2 13.4-1.3 26.2 16.6 26.2c2.5 0.1 5.1-0.1 7.6-0.7c2.5-0.5 4.9-1.4 7.2-2.6c2.2-1.1 4.3-2.6 6.2-4.3c1.9-1.7 3.6-3.7 5-5.8c13.6-30.5-100.9-4.3-74.4-65.2c12.8-28.9 47-47.8 81.6-47.8c19.1 0 42.9 4.3 45.1 20.2h1.2l7-15.9h47.4l-22.3 50.6h-52.9c6.3-12.9 2.1-24.4-14.6-24.4c-2.4-0.4-4.8-0.3-7.1 0.1c-2.4 0.4-4.6 1.1-6.8 2.2c-2.1 1.1-4 2.5-5.7 4.1c-1.8 1.7-3.2 3.6-4.4 5.7" />
	<path id="Layer" class="s2" d="m911.4 487.3c-13 29.1-49 48.7-83.6 48.7c-24 0-44.1-5.7-44.9-20.9h-0.7l-7.2 16.1h-49.4l23.1-52.3h52.3c-6.4 13.4-1.4 26.2 16.5 26.2c2.6 0.1 5.1-0.1 7.6-0.7c2.5-0.5 4.9-1.4 7.2-2.6c2.3-1.1 4.4-2.6 6.3-4.3c1.9-1.7 3.6-3.7 5-5.8c13.4-30.5-101-4.3-74.1-65.2c12.8-28.9 47-47.8 81.6-47.8c19 0 42.9 4.3 45 20.2h0.8l7-15.9h47.9l-23.4 50.6h-52.3c5.8-12.9 2.2-24.4-14.6-24.4c-2.3-0.4-4.7-0.3-7.1 0.1c-2.3 0.4-4.6 1.1-6.7 2.2c-2.1 1.1-4.1 2.5-5.8 4.1c-1.7 1.7-3.2 3.6-4.3 5.7c-11.9 26.7 101.1 4 73.9 65.5" />
	<path id="Layer" class="s2" d="m1081.3 321.3l-20.3 45.9h-71.4l20.3-45.9h71.4z" />
	<path id="Layer" class="s2" d="m1054 383l-50.8 114.6h19l-14.8 33.5h-111.8l14.9-33.5h21.2l36-81h-21.3l14.8-33.6h92.8z" />
	<path id="Layer" fill-rule="evenodd" class="s2" d="m1106.8 535.1c-69.3 0.8-93.7-34.9-74.7-78.1c19.1-43.2 74-78.2 141.5-78.3c67.4-0.1 91.5 35.1 72.3 78.3c-17.2 39-68.1 77.3-139.1 78.1zm64.8-78.1c10.4-23.7 10.2-42.6-13.6-42.9c-23.9-0.3-41.9 19.3-52.3 42.9c-10.5 23.5-9.7 46.1 19.5 43.4c25-2.3 36.7-22.5 45.9-43.4z" />
	<path id="Layer" class="s0" d="m651.5 489.9c0 2.9-3.5 5.3-8 5.3c-4.5 0-8-2.4-8-5.3c0-2.9 3.6-5.4 8-5.4c4.4 0 8 2.4 8 5.4z" />
	<path id="Layer" class="s0" d="m825.4 489.9c0 2.9-3.6 5.3-8 5.3c-4.4 0-7.9-2.4-7.9-5.3c0-2.9 3.5-5.4 7.9-5.4c4.4 0 8 2.4 8 5.4z" />
	<path id="Layer" fill-rule="evenodd" class="s1" d="m1530 541.3c0 8.2-5 15.6-12.6 18.7c-7.6 3.1-16.4 1.2-22.1-4.7c-5.7-5.9-7.3-14.7-3.9-22.2c3.3-7.5 10.8-12.3 19.1-12c2.6 0 5.1 0.6 7.5 1.6c2.4 1.1 4.6 2.6 6.4 4.4c1.8 1.9 3.3 4.1 4.2 6.5c1 2.5 1.5 5.1 1.4 7.7zm-35.3-1c-0.2 2.1 0.1 4.1 0.8 6.1c0.7 1.9 1.8 3.7 3.2 5.2c1.4 1.5 3.1 2.7 5 3.5c1.8 0.9 3.9 1.3 5.9 1.3c2 0.1 4-0.3 5.9-1c1.9-0.8 3.6-1.9 5-3.3c1.4-1.4 2.6-3.1 3.3-4.9c0.8-1.9 1.2-3.9 1.2-5.9c0.1-4-1.4-7.9-4.1-10.9c-2.8-2.9-6.6-4.6-10.6-4.8c-4-0.1-7.9 1.4-10.9 4.2c-2.9 2.7-4.6 6.5-4.7 10.5zm11.8 10.5h-4.5l0.5-19.6q0.9 0 1.9-0.1q0.9 0 1.9 0q0.9 0 1.9 0q0.9 0.1 1.8 0.1q0.9 0 1.8 0q0.8 0.1 1.7 0.3q0.8 0.2 1.6 0.6q0.8 0.3 1.5 0.8q0.5 0.4 0.9 0.9q0.4 0.5 0.6 1q0.3 0.6 0.4 1.2q0.1 0.6 0.1 1.2q-0.1 0.8-0.4 1.6q-0.4 0.8-0.9 1.4q-0.6 0.6-1.3 1q-0.8 0.4-1.6 0.6c1.9 0.6 2.8 2.2 3.4 4.9q0.1 0.6 0.2 1.2q0.1 0.7 0.3 1.3q0.1 0.6 0.3 1.2q0.2 0.6 0.4 1.1h-4.7q-0.3-0.5-0.5-1.1q-0.3-0.6-0.4-1.2q-0.2-0.6-0.3-1.2q-0.2-0.7-0.2-1.3c0-2-1.5-3-4-3h-2.2zm0-11.1h2.2c2.5 0 4.5-0.7 4.6-2.7q0.1-3-4.1-3.2q-0.3 0-0.6 0q-0.3 0-0.7 0q-0.3 0-0.6 0q-0.3 0-0.6 0z" />
</svg>