<svg version="1.2" xmlns="http://www.w3.org/2000/svg" viewBox="0 0 1561 799" width="1561" height="799">
	<title>avon-protection-logo-1-svg</title>
	<style>
		.s0 { fill: #54616c } 
	</style>
	<g id="#54616cff">
		<path id="Layer" fill-rule="evenodd" class="s0" d="m476.8 2.5c38.6-2.2 77.2-1 115.9-1.3 44.9-0.8 89.8-0.3 134.7-0.4q0 399 0 798-100.6 0-201.1 0 0-49.1 0-98.1-162.3 0-324.6 0 0 48.9 0 97.7-100.8 0-201.5 0 0-135.6 0-271.1c-0.2-60.4 4.4-121.2 19.1-179.9 13.9-56.4 37-111 70.9-158.5 29.3-41.4 66.8-77.1 109.4-104.8 35.9-23.2 75.2-41.1 116.1-53.8 52.2-16.4 106.6-24.8 161.1-27.8zm-99.7 215.7c-40.5 12.5-79.2 33.7-107.4 65.7-26.8 29.8-43.7 67.3-53.7 105.8-9.7 37.1-13.2 75.5-14.4 113.8 108.2 0 216.5 0 324.7 0q0-152.5 0-305.1c-50.3 0-101.1 4.8-149.2 19.8zm456.5-217.4c67.1 0 134.1 0 201.2 0 0.6 74.5 0.3 148.9 0.4 223.4 0 125.7-0.1 251.3 0 377 51.8-0.8 104.2-5.2 153.6-21.5 38.4-12.6 75-33.1 102-63.4 27.9-30.6 45.1-69.4 55.2-109.2 11-43.4 14.2-88.4 13.7-133q0-136.7 0-273.3c67.1 0 134.1 0 201.2 0q0 137.5 0 275c0.7 75-7.8 150.8-32.4 221.9-18.7 54.4-47.3 105.6-85.9 148.4-36.7 41.1-82.2 74-132 97.6-58.5 27.9-122.2 43.1-186.4 49.9-42.1 4.8-84.5 4.7-126.8 4.8q-81.7 0-163.4 0 0-126.2 0-252.3c-0.7-181.7-0.2-363.5-0.4-545.3z"/>
	</g>
</svg>