<svg version="1.2" xmlns="http://www.w3.org/2000/svg" viewBox="0 0 1547 919" width="1547" height="919">
	<title>logo (45)-svg</title>
	<style>
		.s0 { fill: #6d6f72 } 
		.s1 { fill: #8f1028 } 
		.s2 { fill: #2f2f30 } 
		.s3 { fill: #313133 } 
		.s4 { fill: #3b3c3e } 
		.s5 { fill: #505153 } 
		.s6 { fill: #464749 } 
		.s7 { fill: #5a5b5e } 
		.s8 { fill: #636568 } 
	</style>
	<g id="Group_264">
		<g id="Group_1">
			<path id="Path_1" class="s0" d="m663.9 164q-0.1 0-0.2-0.1-0.1-0.1-0.2-0.1 0-0.1 0-0.3 0-0.1 0-0.2c38.4-52.8 75.3-107.7 109.5-163.3h0.7c34.3 55.6 71.1 110.5 109.5 163.3q0 0.1 0.1 0.2 0 0 0 0.1 0 0.1 0 0.1-0.1 0.1-0.1 0.2h-0.6l-109.1-135.7-109.2 135.7z"/>
			<path id="Path_2" class="s1" d="m1546.2 900.8c0.2 0.2 0.4 0.5 0.4 0.8 0 0.3-0.1 0.6-0.3 0.8-0.2 0.2-0.4 0.4-0.7 0.4q-43 4.9-86 8.3-43.1 3.4-86.3 5.2-43.1 1.9-86.3 2.2-43.2 0.3-86.4-0.9h-854.5q-34.2 1-68.5 1-34.6 0-69.2-1-34.6-1-69.2-3-34.6-1.9-69.1-4.9-34.5-3-68.9-6.9-0.2 0-0.4-0.1-0.2-0.1-0.3-0.3-0.2-0.2-0.3-0.4 0-0.2 0-0.4 0-0.2 0.1-0.4 0.1-0.2 0.3-0.4 0.1-0.1 0.3-0.2 0.2-0.1 0.4 0c65.4 1.2 130.7-0.3 195.9-4.6 65.2-4.2 130.2-11.2 194.8-20.8 64.6-9.7 128.8-22 192.4-37 63.6-15.1 126.5-32.7 188.6-53q0.1 0 0.2 0 0.1 0 0.2 0 0.1 0 0.2 0 0.1 0 0.1 0c62.1 20.3 125.1 37.9 188.7 53 63.5 15 127.7 27.3 192.3 37 64.7 9.7 129.7 16.6 194.9 20.8 65.2 4.3 130.5 5.8 195.8 4.6 0.3-0.1 0.6 0 0.8 0.2z"/>
			<path id="Path_3" class="s2" d="m97 861.4q-0.3 0-0.5-0.2-0.2-0.1-0.3-0.3-0.1-0.3-0.1-0.5 0-0.2 0.1-0.4 0-0.2 0.2-0.4 0.1-0.2 0.3-0.3 0.2-0.1 0.4-0.1c58.2-6.3 116.1-14.8 173.6-25.5 57.5-10.7 114.6-23.6 171.2-38.6 56.5-15.1 112.4-32.3 167.7-51.6 55.2-19.3 109.6-40.7 163.2-64.2q0.1-0.1 0.2-0.1 0.2 0 0.3 0 0.1 0 0.2 0 0.1 0 0.2 0.1c53.6 23.5 108.1 44.9 163.3 64.2 55.2 19.3 111.1 36.5 167.7 51.6 56.5 15 113.6 27.9 171.1 38.6 57.5 10.7 115.4 19.2 173.6 25.5 0.3 0 0.6 0.1 0.8 0.4 0.2 0.2 0.3 0.5 0.3 0.8 0 0.3-0.2 0.6-0.4 0.8-0.2 0.2-0.5 0.3-0.8 0.2-57.4-1.2-114.7-4.6-171.8-10.1-57.1-5.5-113.9-13.1-170.5-22.9-56.5-9.7-112.7-21.5-168.4-35.3-55.6-13.9-110.8-29.8-165.3-47.7-54.4 17.9-109.6 33.8-165.2 47.7-55.7 13.8-111.9 25.6-168.4 35.3-56.5 9.8-113.4 17.4-170.5 22.9-57.1 5.5-114.4 8.9-171.8 10.1q-0.2 0.1-0.4 0z"/>
			<path id="Path_4" class="s3" d="m178 810c-0.2-0.2-0.4-0.4-0.4-0.7-0.1-0.3 0-0.6 0.1-0.9 0.2-0.2 0.5-0.4 0.8-0.4 51.9-12.2 103.3-26.1 154.3-41.9 50.9-15.7 101.3-33.3 151-52.6 49.7-19.3 98.7-40.3 146.9-63 48.2-22.8 95.6-47.2 142.1-73.3q0.1-0.1 0.3-0.1 0.1-0.1 0.3-0.1 0.1 0 0.2 0.1 0.2 0 0.3 0.1c46.5 26.1 93.9 50.5 142.1 73.3 48.2 22.7 97.2 43.7 146.9 63 49.7 19.3 100.1 36.9 151 52.6 51 15.8 102.5 29.7 154.4 41.9q0.4 0 0.7 0.4 0.2 0.4 0.2 0.8-0.1 0.4-0.4 0.7-0.3 0.3-0.8 0.3h-0.2c-51.1-7.4-102.1-16.6-152.6-27.5-50.6-10.9-100.7-23.5-150.4-37.8-49.7-14.3-98.9-30.3-147.5-48-48.6-17.7-96.6-37-143.9-57.9-47.3 20.9-95.3 40.2-143.9 57.9-48.6 17.7-97.8 33.7-147.5 48-49.7 14.3-99.9 26.9-150.5 37.8-50.5 10.9-101.4 20.1-152.6 27.5-0.3 0-0.6 0-0.9-0.2z"/>
			<path id="Path_5" class="s4" d="m260.6 748.8q-0.3-0.3-0.4-0.7 0-0.4 0.2-0.8 0.2-0.3 0.6-0.5c45.3-16.6 90-34.7 134.1-54.2 44.1-19.5 87.5-40.5 130.3-62.7 42.8-22.3 84.8-46 126-70.9 41.3-25 81.7-51.3 121.3-78.8q0.1-0.1 0.2-0.2 0.2 0 0.3 0 0.1-0.1 0.3 0 0.1 0 0.2 0l0.3 0.2c39.6 27.5 80 53.8 121.3 78.8 41.2 24.9 83.3 48.6 126 70.9 42.8 22.2 86.2 43.2 130.3 62.7 44.1 19.5 88.8 37.6 134.1 54.2 0.3 0.1 0.5 0.3 0.7 0.6 0.1 0.3 0.1 0.6 0 0.9-0.1 0.3-0.3 0.5-0.5 0.6-0.3 0.2-0.6 0.2-0.9 0.1-44.6-12.3-88.8-26-132.6-41-43.7-15.1-87-31.4-129.8-49.2-42.7-17.7-84.9-36.7-126.5-57-41.6-20.3-82.5-41.9-122.8-64.7-40.2 22.8-81.1 44.4-122.7 64.7-41.6 20.3-83.8 39.3-126.5 57-42.8 17.8-86.1 34.1-129.8 49.2-43.8 15-88 28.7-132.6 41h-0.3c-0.3 0.1-0.5 0-0.8-0.2z"/>
			<path id="Path_6" class="s5" d="m428 588.5q-0.4-0.1-0.7-0.4-0.2-0.4-0.1-0.8 0-0.4 0.4-0.7 46.4-31.6 91.3-65.4 44.9-33.9 88.1-69.8 43.2-36 84.7-74 41.4-38 80.9-77.9 0.1-0.1 0.3-0.2 0.1-0.1 0.3-0.1 0.2-0.1 0.3 0 0.2 0 0.4 0 0 0.1 0.1 0.1 0 0 0 0 0.1 0.1 0.1 0.1 0 0 0.1 0.1 39.5 39.9 80.9 77.9 41.5 38 84.7 74 43.2 35.9 88.1 69.7 44.9 33.9 91.3 65.5 0.4 0.3 0.4 0.7 0.1 0.4-0.1 0.7-0.3 0.4-0.7 0.5-0.4 0.1-0.8 0-45.8-26.4-90.3-54.9-44.6-28.5-87.7-59.1-43.2-30.6-84.8-63.1-41.7-32.5-81.8-67-40.1 34.5-81.8 67-41.7 32.5-84.8 63.1-43.2 30.5-87.7 59-44.5 28.5-90.3 54.9-0.4 0.3-0.8 0.1z"/>
			<path id="Path_7" class="s6" d="m344.8 676.8q-0.2 0-0.4-0.1-0.2-0.1-0.4-0.2-0.1-0.1-0.2-0.3-0.1-0.2-0.1-0.4 0-0.3 0-0.5 0.1-0.2 0.3-0.3 0.1-0.2 0.3-0.3 57.4-29.6 113-62.4 55.6-32.7 109.3-68.6 53.6-35.9 105.2-74.7 51.6-38.9 100.8-80.5 0.2-0.2 0.4-0.2 0.2-0.1 0.4-0.1 0.2 0 0.4 0.1 0.1 0 0.3 0.2 49.3 41.6 100.8 80.4 51.6 38.9 105.3 74.7 53.6 35.9 109.3 68.6 55.6 32.8 112.9 62.3 0.2 0.1 0.4 0.3 0.1 0.2 0.2 0.4 0.1 0.2 0 0.4 0 0.2-0.1 0.4 0 0.2-0.1 0.3-0.1 0.1-0.3 0.2-0.1 0.1-0.3 0.1-0.1 0.1-0.3 0.1 0 0-0.1 0-0.1 0-0.1 0-0.1 0-0.1 0-0.1 0-0.1 0-56.6-23.7-111.7-50.3-55.2-26.7-108.8-56.4-53.7-29.6-105.6-62.2-51.9-32.5-102-67.8-50.1 35.3-102 67.8-51.9 32.6-105.6 62.2-53.6 29.7-108.8 56.4-55.2 26.7-111.7 50.3-0.2 0.1-0.5 0.1z"/>
			<path id="Path_8" class="s7" d="m509.9 475.7c-0.3-0.1-0.5-0.2-0.7-0.4-0.2-0.3-0.3-0.6-0.3-0.9 0.1-0.3 0.2-0.5 0.4-0.7q35.5-30.9 69.7-63.1 34.2-32.2 67.2-65.7 32.9-33.6 64.5-68.4 31.6-34.7 61.8-70.7 0.1-0.2 0.3-0.3 0.1-0.1 0.3-0.1 0.1 0 0.3 0 0.2 0 0.4 0h0.1q0.1 0 0.1 0.1 0.1 0 0.1 0 0 0.1 0.1 0.1 0 0 0 0.1 30.2 36 61.8 70.8 31.6 34.8 64.5 68.4 33 33.5 67.2 65.8 34.2 32.2 69.7 63.1c0.2 0.2 0.3 0.4 0.4 0.7 0 0.3-0.1 0.6-0.3 0.9-0.2 0.2-0.4 0.4-0.7 0.4-0.3 0-0.6-0.1-0.9-0.3q-34.9-26.4-68.9-54.2-33.9-27.7-66.8-56.8-32.8-29-64.6-59.3-31.7-30.3-62.3-61.7-30.5 31.4-62.2 61.7-31.8 30.3-64.6 59.3-32.9 29.1-66.8 56.8-34 27.8-68.9 54.2c-0.3 0.1-0.6 0.2-0.9 0.2z"/>
			<path id="Path_9" class="s8" d="m957.5 335q0 0-0.1 0 0 0 0 0-0.1 0-0.1 0 0-0.1 0-0.1-24.4-23.6-48-47.8-23.6-24.3-46.5-49.2-23-24.9-45.2-50.5-22.2-25.5-43.7-51.7l-0.5-0.7-0.6 0.7q-21.5 26.2-43.7 51.7-22.2 25.6-45.1 50.5-23 24.9-46.6 49.2-23.6 24.2-47.9 47.8h-0.6q0 0 0-0.1-0.1-0.1-0.1-0.2 0 0 0.1-0.1 0-0.1 0-0.1 24.7-27.1 48.5-54.8 23.9-27.8 46.9-56.3 23.1-28.4 45.2-57.5 22.2-29.1 43.6-58.9h0.6q21.3 29.8 43.5 58.9 22.2 29.1 45.2 57.5 23.1 28.5 46.9 56.3 23.9 27.7 48.5 54.8 0.1 0 0.1 0.1 0.1 0.1 0.1 0.2 0 0-0.1 0.1 0 0.1-0.1 0.1z"/>
		</g>
	</g>
</svg>