<svg version="1.2" xmlns="http://www.w3.org/2000/svg" viewBox="0 0 1499 1504" width="1499" height="1504">
	<title>American_Water_(company)_Logo-svg</title>
	<style>
		.s0 { opacity: 1;fill: #005e9c } 
	</style>
	<g id="layer1">
		<path id="path3067" class="s0" d="m1498.2 611.4v11c-0.1 0.1-0.1 0.1-0.2 0.2v1.6c-6.1 4.5-16.8 11.7-29.9 18.3-15.8 8.8-35.1 16.6-54.6 16.6-21.2 0-42.1-9.1-58.6-18.8-18.7-10.1-31.6-20.7-31.6-20.7 0 0-10.9 8.7-27 17.8-13.3 8.4-30.4 16.9-48.4 20.2q-0.1 0-0.1 0c-2.4 0.5-4.9 0.8-7.4 1.1-0.1 0-0.2 0-0.3 0-2.4 0.2-4.9 0.4-7.4 0.4-20.5-0.1-40.8-8.7-57-18.1-19.6-10.2-33.2-21.4-33.2-21.4 0 0-14 11.5-34 21.9-16.2 9.2-36.2 17.6-56.5 17.6-21.3 0-42.4-9.3-59-19.1-18.5-9.9-31.1-20.4-31.1-20.4 0 0-14 11.5-33.9 21.8-16.3 9.2-36.3 17.7-56.6 17.7-45 0-89.8-41-90.3-41.4 0 0.9 0 1.9 0 1.9v-2c0 0-0.1 0-0.1 0v67.5c0.1 0 0.1-3.5 0.1-3.5 0 0 45.1 41.4 90.3 41.4 45.2 0 90.4-37.9 90.4-37.9 0 0 45.1 37.9 90.2 37.9 45.2 0 90.4-37.9 90.4-37.9 0 0 45.2 37.9 90.3 37.9h0.1c2.5 0 4.9-0.1 7.3-0.3q0.2 0 0.4-0.1c2.4-0.2 4.9-0.6 7.4-1q0 0 0 0c33.9-6.2 64.7-28.4 73-34.7v72.5l-32.8 23.6c-11.9 6.6-25.7 12.7-40.2 15.4q0 0 0 0c-2.5 0.4-5 0.8-7.4 1q-0.3 0-0.4 0c-2.4 0.3-4.9 0.4-7.4 0.4-45.1-0.1-90.1-41.4-90.1-41.4h-0.2c0 0-45.2 41.4-90.3 41.4-45.2 0-90.3-41.4-90.3-41.4 0 0-45.2 41.4-90.4 41.4-45.2 0-90.3-41.4-90.3-41.4 0 0-0.1 0-0.1 0v67.4c0.1 0 0.1-3.4 0.1-3.4 0 0 45.1 41.4 90.3 41.4 45.2 0 90.4-38 90.4-38 0 0 45.1 38 90.3 38 39.2 0 78.5-28.7 88.1-36.2v71.7c-9.4 8-48.9 39.5-88.3 39.5-45.1 0-90.3-41.4-90.3-41.4 0 0-45.1 41.4-90.3 41.4-45.1 0-90.3-41.4-90.3-41.4 0 0-0.1 0-0.1 0v67.5c0 0 0.1-3.5 0.1-3.5 0 0 45.2 41.4 90.3 41.4 45.2 0 90.3-37.9 90.3-37.9 0 0 45.2 37.9 90.3 37.9 19.3 0 38.2-6.9 53.9-14.8l171.2 515.3-487.7-359.6-487.7 359.6 191.1-575.3-492.5-353.2 605.8 4.1 183.3-578 162.9 516.4h0.1c3.1 9.8 8.5 20 16.1 29.7 7.9 10 17 17.8 26 23.2 16.4 9.4 37 18.2 57.8 18.2 45.2 0 90.3-41.4 90.3-41.4l0.1 0.1v-0.1h0.1c0 0 45 41.4 90.2 41.4 2.4 0 4.8-0.1 7.3-0.3h0.4c2.5-0.3 4.9-0.6 7.3-1.1h0.1c35-6.5 66.9-32.7 73.8-38.7v0.1c1-0.8 1.5-1.4 1.5-1.4 0 0 45.2 41.5 90.4 41.5 35.7 0 70.9-25.6 84.3-36.4v59.3c0 0 0.2 0 0.2 0z"/>
	</g>
</svg>