<svg version="1.2" xmlns="http://www.w3.org/2000/svg" viewBox="0 0 1422 1568" width="1422" height="1568">
	<title>AYX_BIG copy-svg</title>
	<style>
		.s0 { fill: #0078c0 } 
	</style>
	<path id="Layer" fill-rule="evenodd" class="s0" d="m1421.4 1446.5c1.7 37.1-23.2 58-58.6 74.8-64.3 30.1-121.7 38.3-165.2 44.1-11 1.1-23.2 1.7-35.9 1.7-47.6 0-85.2-4.6-117.7-13.9-73.6-18.6-127-62.6-158.3-131.6l-5.8-14.5-12.7 9.9c-129.9 102.6-263.2 150.1-418 150.1h-0.5c-135.1 0-247-35.4-323.5-102.6-82.3-71.3-125.8-182-125.2-319.4-2.3-303.8 173.3-453.9 553-466.1l284.6-7 11.6-0.5v-395.4c0 0-51.6-40.6-184.3-60.9-70.2-10.4-129.9-9.8-177.4-9.2-36.5 0.5-88.1 6.3-166.4 20.8-30.7 5.2-75.9 14.5-97.3 12.2-26.1-5.2-40.6-15.7-54.5-56.8 0 0-20.9-59.7-21.5-78.3 1.2-35.9 39.4-53.9 51-57.9 40-13.4 160.6-33.7 205.2-37.7 21.5-2.9 75.4-7.6 135.1-7.6q37.1 0 74.8 2.4 37.1 1.7 74.2 6.3 37.1 4.1 74.2 10.5 37.1 6.9 73.6 15l5.8 1.8c77.7 19.7 169.8 45.8 224.9 78.2 2.9 1.8 5.2 4.1 7.5 5.3l6.4 4.6q7 5.8 12.8 12.2 5.2 6.9 9.8 15 4.1 8.2 6.4 16.3 2.3 8.7 3.5 17.4v1017.9c4 74.2 16.2 100.3 82.3 96.8q13.3-0.5 26.7-2.3 13.3-1.1 26-3.5 13.4-2.3 26.7-4.6 12.8-2.9 26.1-6.4 2.9-0.6 6.4-1.1 3.4-0.6 6.3-1.2 3.5 0 7-0.6 3.5 0 7 0 11.5-0.6 22 2.9 11 4.1 20.3 11 9.2 7 15.6 16.3 6.4 9.8 9.9 20.8c0 0 24.3 82.4 26.1 114.8zm-559.4-592.4l-25.5 1.1-292.8 13.4c-212.1 13.3-275.3 71.3-278.8 259.7 3.5 162.9 65.5 223.2 235.4 226.6 115.9 0 256.8-43.4 351.2-109l5.8-3.4 4.7-3.5z"/>
</svg>