<svg version="1.2" xmlns="http://www.w3.org/2000/svg" viewBox="0 0 1544 1476" width="1544" height="1476">
	<title>logo (43)-svg</title>
	<style>
		.s0 { fill: #826ec3 } 
		.s1 { fill: #7c7bc5 } 
		.s2 { fill: #7588c7 } 
		.s3 { fill: #6f95c9 } 
		.s4 { fill: #68a1cc } 
		.s5 { fill: #62aece } 
		.s6 { fill: #5bbbd0 } 
		.s7 { fill: #55c8d2 } 
	</style>
	<path id="Layer" fill-rule="evenodd" class="s0" d="m844.1 42.2l688 1189.6c32.3 56-8.2 125.8-72.9 125.8h-1375c-64.6 0-105.2-69.8-72.8-125.8l687.5-1190c16.3-28 44.4-41.8 72.8-41.8c28 0 56.5 14.2 72.4 42.2zm-128.9 9.1l-687.5 1190c-11.6 20.2-11.6 44.8 0 65c11.7 20.7 32.8 32.7 56.5 32.7h1375c23.7 0 44.9-12.4 56.5-32.7c11.6-20.2 11.6-44.8 0-65l-687.5-1190c-11.7-20.7-32.8-32.8-56.5-32.8c-23.7 0-44.8 12.5-56.5 32.8z" />
	<path id="Layer" fill-rule="evenodd" class="s1" d="m794.6 77.1l721.5 1096.1c33.6 51.7-0.8 120.6-62.5 124.1l-1310.8 76.2c-1.3 0-3 0-4.7 0c-59.1 0-98.7-62.5-71.6-115.9l589.7-1172.8c14.6-28.8 43.1-43.9 71.5-43.9c25.5 0 50.9 12.1 66.9 36.2zm-123.3 15.9l-589.3 1172.4c-9.9 19.8-9 42.6 2.6 61.2c11.7 18.5 31.5 29.7 53.5 29.7q1.9 0 3.9 0l1310.7-76.3c22.9-1.3 42.3-14.2 52.6-34.4c10.4-20.7 9.1-44-3.4-62.9l-721.6-1096.1c-12-18.1-31-28.5-52.6-28.5c-24.1 0-45.6 13.4-56.4 34.9z" />
	<path id="Layer" fill-rule="evenodd" class="s2" d="m744.6 112l755.1 1002.6c35.8 47 6.9 114.6-51.7 121.9l-1246.6 152.5c-3 0.4-6.4 0.4-9.4 0.4c-53.9 0-92.3-55.1-70.3-106.4l491.4-1155.1c12.9-30.1 41.8-46.5 70.7-46.5c22.4 0 45.2 9.9 60.8 30.6zm-116.9 22.4l-490.9 1155.1c-8.2 19.4-6 40.1 5.2 57.3c11.6 16.8 30.1 27.1 50.4 27.1c2.6 0 5.2 0 7.8-0.4l1246.5-152.5c21.6-3 39.7-16.3 48.3-36.6c8.6-20.2 6-42.6-7.3-60.3l-755.6-1002.7c-11.7-15.5-29.4-24.1-48.3-24.1c-25 0-46.6 14.2-56.1 37.1z" />
	<path id="Layer" fill-rule="evenodd" class="s3" d="m695 146.9l788.8 909.2c37.1 42.6 14.2 109.4-41.4 120.1l-1182.3 228.7q-7.1 1.3-14.3 1.3c-48.7 0-85.7-48.6-68.9-97.3l393.1-1137.5c11.2-31.9 40.1-49.5 69.8-49.5c19.8 0 40.1 7.7 55.2 25zm-110.4 28.8l-393.1 1137.5c-6 18.5-3.4 37.9 7.8 53.4c10.8 15.5 28.9 25 47.4 25q5.8 0 11.6-1.3l1182.4-228.7c20.7-4.3 37.5-18.5 44.4-38.8c6.9-20.2 2.6-41.7-11.2-57.7l-789.7-908.8c-11.6-12.9-27.1-20.2-44.4-20.2c-25.9 0-47.8 15.9-55.2 39.6z" />
	<path id="Layer" fill-rule="evenodd" class="s4" d="m645 182.2l823.3 814.9c38.8 38.3 21.5 104.2-31.1 118.4l-1118.1 304.9c-6.4 1.8-12.9 2.6-18.9 2.6c-44.4 0-80.2-42.6-68.2-88.7l294.9-1120.3c8.6-33.1 38.3-52.5 68.5-52.5c17.7 0 35.4 6.5 49.6 20.7zm-105.2 35.3l-294.8 1120.2c-4.8 17.3-0.9 35.4 9.9 49.6c10.8 13.8 28 22.4 45.3 22.4c5.1 0 10.3-0.9 15.5-2.2l1117.7-304.5c20.2-5.6 35.3-20.7 40.5-40.9c5.1-20.3-0.5-40.9-15.1-55.6l-823.3-814.9c-10.8-10.7-25-16.7-40.1-16.7c-22 0-47.8 13.3-55.6 42.6z" />
	<path id="Layer" fill-rule="evenodd" class="s5" d="m595.4 217.1l857.4 721c40.5 34 28.8 98.6-20.7 116.7l-1054.4 381.2c-7.7 3-15.5 4.3-23.2 4.3c-40.5 0-75-37.1-67.3-80.6l196.6-1102.6c6.4-34.9 36.2-56.4 67.7-56.4c15 0 30.6 5.2 43.9 16.4zm-99.1 42.2l-196.6 1102.6c-3 16.8 1.3 33.1 12.1 46.1c10.8 12.9 26.7 20.2 43.1 20.2c6.5 0 12.9-1.3 19.4-3.4l1053.9-381.2c19-6.9 32.7-22.8 36.2-43.1c3.4-20.2-3.9-40-19.4-53l-857.3-721.4c-10.4-8.6-22.9-13.3-36.2-13.3c-23.8 0-50.5 15.9-55.2 46.5z" />
	<path id="Layer" fill-rule="evenodd" class="s6" d="m545.4 252l891.8 628.3c41.9 29.3 36.2 93.1-10.3 114.6l-989.7 457.4c-9.5 4.3-18.9 6.5-28 6.5c-37.1 0-70.2-31.9-66.4-72.8l98.3-1085.4c3-36.6 34.1-60.7 66.4-60.7c12.9 0 26.3 3.9 37.9 12.1zm-93.9 48.6l-98.3 1085.4c-1.3 15.9 3.4 31 14.2 42.6c10.8 11.7 25.9 18.5 41.4 18.5c8.2 0 15.9-1.7 23.7-5.1l989.2-457.4c18.6-8.6 30.2-25.4 32.4-45.7c2.1-20.2-6.9-39.2-23.3-50.8l-891.4-627.5c-9.5-6.9-20.7-10.4-31.9-10.4c-25 0-53 18.1-56 50.4z" />
	<path id="Layer" fill-rule="evenodd" class="s7" d="m495.9 286.8l925 534.1c43.5 25 43.5 87.9 0 112.8l-925.5 533.7c-10.3 6-21.5 8.6-32.3 8.6c-34.1 0-65.1-27.1-65.1-65v-1067.7c0-37.9 31-65.1 65.1-65.1c10.8 0 22 2.6 32.8 8.6zm-71.6 16.8c-10.8 10.4-16.8 24.6-16.8 40.1v1067.7c0 15.1 6 29.7 16.8 40c10.4 10.4 24.6 16 38.8 16c9.9 0 19.4-2.6 28-7.8l925.5-534.5c17.6-9.9 28-28 28-48.2c0-20.2-10.4-38.3-28-48.2l-925.5-533.7c-9-5.2-18.1-7.7-28-7.7c-14.2 0-28.4 6-38.8 16.3z" />
</svg>