<svg version="1.2" xmlns="http://www.w3.org/2000/svg" viewBox="0 0 1572 520" width="1572" height="520">
	<title>logo (43)-svg</title>
	<style>
		.s0 { fill: #ffffff } 
		.s1 { fill: #826ec3 } 
		.s2 { fill: #7c7bc5 } 
		.s3 { fill: #7588c7 } 
		.s4 { fill: #6f95c9 } 
		.s5 { fill: #68a1cc } 
		.s6 { fill: #62aece } 
		.s7 { fill: #5bbbd0 } 
		.s8 { fill: #55c8d2 } 
	</style>
	<path id="Layer" fill-rule="evenodd" class="s0" d="m993.3 237.3h94.1v26.1h-107.5c-8.9 0-16.2-7.3-16.2-16.2v-122.6c0-9 7.3-16.3 16.2-16.3h107.2v26.3h-93.8v38.4h73v24.1h-73zm-271.6-118.8l63.7 144.9h-31.9l-13.2-31.9h-74.5l-13.2 31.9h-30.6l63.3-144.9c3.2-7.3 10.3-12 18.2-12c7.9 0 15 4.9 18.2 12zm9 89.5l-27.5-66l-27.5 66zm201.5-71.4l-91.7 99.2h94.8v27.5h-120.5c-10 0-15.9-7.5-15.9-16.6c0-4.2 2.3-9.1 5.2-12.1l92.3-100h-94.6v-26.3h117.4c10 0 17.6 7.3 17.6 16.4c0 4.1-2.1 9-4.6 11.9zm298.6-28.3h27.7v140.1c0 8.6-6.7 15.9-15.4 16.1c-6.8 0.1-11.7-2.2-15-6.4l-82.5-103.3v108.6h-27.5v-138.8c0-9.6 6.3-17.2 16.1-17.2c6 0 11.4 2.6 14.9 7l81.7 101.8zm295.3 123.2h-74.5l-13.2 31.9h-30.6l63.3-144.9c3.2-7.3 10.3-12 18.2-12c7.9 0 15.2 4.7 18.2 12l63.7 144.9h-31.9zm-9.8-23.5l-27.4-66l-27.5 66zm-90.8-72.6h-56.5v128h-30v-128h-56.4v-27.1h142.9zm-788.9 224.3h28v9.1h-38.1v-51.8h10.1zm40-42.6h10.2v51.9h-10.2zm28.2 0h40.3v8.6h-30.4v14.3h23.4v8.5h-23.4v20.3h-9.9zm63.2 43.1h31.6v8.7h-41.5v-51.8h41.4v8.7h-31.5v12.9h24.5v8h-24.5zm110.6-6.7c0 10.5-9.4 16.3-22.2 16.3c-7.7 0-13.5-1.6-17.3-4.9c-3.8-3.2-5.9-7.4-6.4-12.4l9.9-1.3c0.9 6.6 5.5 9.8 14 9.8c6.9 0 11.8-2.3 11.8-6.6c0-4.4-3-5.4-14.7-7.6c-7.2-1.2-12.2-2.8-15.2-5c-3.1-2.1-4.6-5.3-4.6-9.7c0-9.5 8.8-16.1 21.6-16.1c14.7 0 21.3 7.6 22.6 16.3l-9.7 1.2c-0.9-4.1-4.7-8.7-13.2-8.7c-7 0-10.9 2.8-10.9 6.4c0 2.1 1 3.5 3.1 4.4c2.2 0.9 6 1.7 11.6 2.8c7.4 1.3 12.4 3 15.5 5.3c3 2.2 4.4 5.6 4.1 9.8zm22.2-10.6c0 10 5 18.1 15.3 18.1c8.8 0 12.3-6 13.5-11l9.6 1.4c-0.9 8.5-7.5 18.7-23.1 18.7c-16.4 0-25.4-11.7-25.4-27.2c0-15.3 9.4-27.2 25.5-27.2c15.5 0 22.1 10.1 23 18.7l-9.6 1.4c-1.2-5-4.9-11-13.4-11c-10.3 0-15.3 8.1-15.4 18.1zm53.4-25.8h10.2v51.9h-10.2zm38.1 43.1h31.6v8.6h-41.4v-51.7h41.3v8.7h-31.5v12.8h24.5v8.1h-24.5zm84.3-43.1h9.3v51.7h-9.9l-27.8-36.5h-0.1v36.5h-9.3v-51.7h10l27.7 36.1h0.1zm34.5 25.8c0 10 5 18.1 15.3 18.1c8.8 0 12.3-6 13.5-11l9.6 1.4c-0.9 8.5-7.4 18.7-23.1 18.7c-16.4 0-25.3-11.7-25.3-27.2c0-15.3 9.4-27.2 25.5-27.2c15.5 0 22 10.1 22.9 18.7l-9.6 1.4c-1.2-5-4.8-11-13.3-11c-10.3 0-15.5 8.1-15.5 18.1zm62.9 17.3h31.6v8.7h-41.5v-51.8h41.3v8.7h-31.4v12.9h24.4v8h-24.4zm89-6.7c0 10.5-9.5 16.3-22.2 16.3c-7.8 0-13.5-1.6-17.3-4.9c-3.8-3.2-6-7.4-6.4-12.4l9.9-1.3c0.9 6.6 5.4 9.8 13.9 9.8c7 0 11.9-2.3 11.9-6.6c0-4.4-3.1-5.4-14.8-7.6c-7.1-1.2-12.1-2.8-15.1-5c-3.1-2.1-4.6-5.3-4.6-9.7c0-9.5 8.8-16.1 21.6-16.1c14.7 0 21.2 7.6 22.6 16.3l-9.7 1.2c-0.9-4.1-4.7-8.7-13.2-8.7c-7 0-11 2.8-11 6.4c0 2.1 1.1 3.5 3.2 4.4c2.1 0.9 5.9 1.7 11.6 2.7c7.4 1.4 12.4 3.1 15.5 5.4c2.8 2.2 4.4 5.6 4.1 9.8z" />
	<path id="Layer" fill-rule="evenodd" class="s1" d="m297.4 14.9l242.4 419.1c11.4 19.7-2.9 44.3-25.7 44.3h-484.4c-22.8 0-37.1-24.6-25.7-44.3l242.2-419.3c5.8-9.8 15.7-14.7 25.7-14.7c9.9 0 19.9 5 25.5 14.9zm-45.4 3.2l-242.2 419.2c-4.1 7.1-4.1 15.8 0 22.9c4.1 7.3 11.5 11.5 19.9 11.5h484.4c8.4 0 15.8-4.4 19.9-11.5c4.1-7.1 4.1-15.8 0-22.9l-242.2-419.2c-4.1-7.3-11.5-11.6-19.9-11.6c-8.4 0-15.8 4.4-19.9 11.6z" />
	<path id="Layer" fill-rule="evenodd" class="s2" d="m279.9 27.2l254.3 386.1c11.8 18.2-0.3 42.5-22 43.7l-461.9 26.9c-0.4 0-1 0-1.7 0c-20.8 0-34.7-22-25.2-40.8l207.8-413.2c5.2-10.2 15.2-15.5 25.2-15.5c9 0 17.9 4.3 23.5 12.8zm-43.4 5.6l-207.6 413c-3.5 7-3.2 15 0.9 21.5c4.1 6.6 11.1 10.5 18.8 10.5q0.7 0 1.4 0l461.8-26.8c8.1-0.5 14.9-5 18.6-12.2c3.6-7.3 3.2-15.5-1.2-22.1l-254.3-386.2c-4.2-6.4-10.9-10-18.5-10c-8.5 0-16.1 4.7-19.9 12.3z" />
	<path id="Layer" fill-rule="evenodd" class="s3" d="m262.3 39.4l266.1 353.3c12.6 16.5 2.4 40.4-18.2 42.9l-439.2 53.7c-1.1 0.2-2.3 0.2-3.4 0.2c-18.9 0-32.5-19.4-24.7-37.5l173.1-406.9c4.6-10.7 14.7-16.4 24.9-16.4c7.9 0 16 3.5 21.4 10.7zm-41.1 7.9l-173 407c-2.9 6.8-2.1 14.1 1.8 20.2c4.1 5.9 10.6 9.5 17.8 9.5c0.9 0 1.8 0 2.7-0.1l439.2-53.7c7.6-1.1 14-5.8 17-12.9c3.1-7.2 2.2-15-2.5-21.3l-266.3-353.2c-4.1-5.5-10.3-8.5-17-8.5c-8.8 0-16.4 5-19.7 13z" />
	<path id="Layer" fill-rule="evenodd" class="s4" d="m244.9 51.7l277.9 320.4c13 15 5 38.5-14.6 42.3l-416.6 80.6q-2.5 0.4-5 0.4c-17.1 0-30.2-17.1-24.3-34.3l138.5-400.7c4-11.2 14.1-17.5 24.6-17.5c7 0 14.1 2.8 19.5 8.8zm-38.9 10.2l-138.5 400.7c-2.1 6.6-1.2 13.4 2.7 18.9c3.8 5.4 10.2 8.8 16.7 8.8q2.1 0 4.1-0.5l416.6-80.6c7.3-1.5 13.2-6.5 15.6-13.6c2.5-7.2 1-14.7-3.9-20.4l-278.2-320.1c-4.1-4.6-9.6-7.2-15.7-7.2c-9.1 0-16.8 5.7-19.4 14z" />
	<path id="Layer" fill-rule="evenodd" class="s5" d="m227.2 64.2l290.1 287.1c13.7 13.5 7.6 36.7-10.9 41.7l-394 107.4c-2.2 0.6-4.5 0.9-6.6 0.9c-15.7 0-28.3-15-24-31.2l103.8-394.7c3.1-11.7 13.6-18.5 24.2-18.5c6.2 0 12.4 2.3 17.4 7.3zm-37 12.4l-103.9 394.7c-1.7 6.1-0.3 12.4 3.5 17.4c3.8 4.9 9.9 7.9 16 7.9c1.8 0 3.6-0.3 5.4-0.7l393.8-107.3c7.2-2 12.5-7.3 14.3-14.4c1.8-7.2-0.2-14.4-5.3-19.6l-290.1-287.1c-3.8-3.8-8.8-5.9-14.1-5.9c-7.8 0-16.9 4.7-19.6 15z" />
	<path id="Layer" fill-rule="evenodd" class="s6" d="m209.8 76.5l302.1 254c14.2 12 10.1 34.7-7.3 41.1l-371.5 134.3c-2.7 1.1-5.5 1.5-8.2 1.5c-14.3 0-26.4-13-23.7-28.4l69.3-388.4c2.2-12.3 12.7-19.9 23.8-19.9c5.3 0 10.8 1.8 15.5 5.8zm-34.9 14.8l-69.3 388.5c-1.1 5.9 0.5 11.7 4.3 16.2c3.8 4.6 9.4 7.2 15.1 7.2c2.3 0 4.6-0.5 6.9-1.3l371.3-134.2c6.7-2.5 11.5-8.1 12.8-15.2c1.2-7.1-1.4-14.1-6.9-18.7l-302-254.1c-3.7-3.1-8.1-4.7-12.8-4.7c-8.4 0-17.8 5.6-19.4 16.3z" />
	<path id="Layer" fill-rule="evenodd" class="s7" d="m192.2 88.8l314.2 221.3c14.7 10.4 12.7 32.8-3.7 40.4l-348.7 161.2c-3.3 1.5-6.6 2.2-9.8 2.2c-13.1 0-24.8-11.2-23.4-25.6l34.6-382.4c1.1-12.9 12-21.4 23.4-21.4c4.6 0 9.3 1.4 13.4 4.3zm-33.1 17.1l-34.7 382.4c-0.4 5.6 1.3 10.9 5 15c3.8 4.1 9.2 6.5 14.6 6.5c2.9 0 5.6-0.6 8.4-1.8l348.5-161.1c6.5-3.1 10.6-9 11.4-16.1c0.8-7.1-2.4-13.8-8.2-17.9l-314.1-221.1c-3.3-2.4-7.2-3.6-11.2-3.6c-8.8 0-18.7 6.3-19.7 17.7z" />
	<path id="Layer" fill-rule="evenodd" class="s8" d="m174.7 101.1l325.9 188.1c15.4 8.8 15.4 31 0 39.8l-326 188c-3.7 2.1-7.6 3-11.4 3c-12 0-23-9.6-23-22.9v-376.2c0-13.3 11-22.9 23-22.9c3.8 0 7.7 0.9 11.5 3.1zm-25.2 5.9c-3.8 3.6-5.9 8.6-5.9 14.1v376.1c0 5.3 2.1 10.5 5.9 14.1c3.6 3.7 8.7 5.7 13.7 5.7c3.5 0 6.8-0.9 9.8-2.8l326.1-188.3c6.2-3.5 9.9-9.8 9.9-17c0-7.1-3.7-13.5-9.9-17l-326.1-188c-3.2-1.8-6.3-2.7-9.8-2.7c-5 0-10.1 2.1-13.7 5.8z" />
</svg>