<svg version="1.2" xmlns="http://www.w3.org/2000/svg" viewBox="0 0 1581 791" width="1581" height="791">
	<title>download (19)-svg</title>
	<style>
		.s0 { fill: #231f20 } 
		.s1 { fill: #bd3623 } 
	</style>
	<g id="Layer">
		<path id="Layer" fill-rule="evenodd" class="s0" d="m152.3 360.8c-84.2 0-152.3-67.3-152.3-150.6 0-83.2 68.1-150.5 152.3-150.5 84.2 0 152.3 67.3 152.3 150.5 0 83.3-68.1 150.6-152.3 150.6zm96.1-150.1c0-53.9-43-97.5-96.1-97.5-53.2 0-96.1 43.6-96.1 97.5 0 53.8 42.9 97.4 96.1 97.4 53.1 0 96.1-43.6 96.1-97.4zm164.2-210.7h66.7v789.1h-66.7z"/>
	</g>
	<g id="Layer">
		<path id="Layer" fill-rule="evenodd" class="s1" d="m821.6 353.7h-144.8v-353.7h138.7c65.8 0 107.9 36.9 107.9 96.6 0 38.6-23.7 65.8-48.3 74.6 27.3 10.5 53.6 36.8 53.6 81.6 0 65.8-44.8 100.9-107.1 100.9zm-10.5-305.4h-79.9v100.9h79.9c34.2 0 57.9-17.5 57.9-50.9 0-32.5-22.8-50-57.9-50zm5.2 149.2h-85.1v108h85.1c37.8 0 58.8-22.9 58.8-54.5 0-30.7-21-53.5-58.8-53.5zm401.2 156.2l-24.6-71.1h-140.4l-24.6 71.1h-58l130.8-353.7h43.9l130.8 353.7zm-93-273.8l-56.2 157.1h109.7zm205.4 273.9v-353.8h54.4v305.5h172.1v48.3zm-435.4 402.9c-22.8 21.9-55.3 33.3-92.2 33.3h-125.5v-353.7h125.5c36.9 0 69.4 10.5 92.2 33.3 38.6 38.7 36 89.6 36 141.4 0 50.9 2.6 107.9-36 145.7zm-36.9-248.4c-14.9-16.7-35.1-23.7-60.5-23.7h-65.9v257.1h65.9c25.4 0 45.6-7 60.5-23.7 18.5-20.1 19.3-58.8 19.3-107-0.8-49.2-0.8-82.6-19.3-102.7zm157.2 281.7v-353.7h227.3v48.3h-173.8v103.5h148.3v47.4h-148.3v106.2h173.8v48.3zm502.1 0l-75.5-149.2h-67.6v149.2h-54.4v-353.7h137.8c67.6 0 110.6 43 110.6 103.6 0 50.9-30.7 82.5-71.1 93.9l83.4 156.2zm-62.3-305.4h-79.9v110.6h79.9c36 0 60.5-20.2 60.5-55.3 0-35.2-24.5-55.3-60.5-55.3z"/>
	</g>
</svg>