<svg version="1.2" baseProfile="tiny-ps" xmlns="http://www.w3.org/2000/svg" viewBox="0 0 1608 1011" width="1608" height="1011">
	<title>logo-svg</title>
	<style>
		tspan { white-space:pre }
		.shp0 { fill: #ff6301 } 
	</style>
	<path id="Layer" fill-rule="evenodd" class="shp0" d="M467.55 857.7L464.35 846.26L502.52 846.26L546.16 950.27L546.06 857.98L540.87 846.17L585.75 846.17L581.22 857.98L581.22 998.61L584.42 1010.07L546.22 1010.07L502.57 908.46L502.67 998.34L507.85 1010.15L462.99 1010.15L467.53 998.34L467.53 857.7L467.55 857.7ZM809.74 151.43C797.93 195.53 845.86 244.83 900.77 159.98L887 149.97C889.91 145.22 893.5 140.92 897.66 137.22C901.81 133.51 906.49 130.43 911.53 128.08C916.58 125.73 921.95 124.13 927.46 123.33C932.97 122.54 938.56 122.56 944.07 123.39C939.51 126.77 935.16 130.43 931.06 134.36C926.96 138.29 923.11 142.47 919.54 146.88C915.96 151.29 912.66 155.92 909.67 160.75C906.67 165.57 903.98 170.58 901.62 175.74L901.72 175.74C870.53 235.33 935.97 280.36 978.82 214.14L955.44 196.7C978.3 159.86 1014.17 140.34 1068.91 143.89C993.62 199.3 948.26 293.44 945.18 442.33C921.72 436.29 897.9 431.73 873.86 428.69C849.83 425.64 825.63 424.11 801.4 424.11C777.17 424.11 752.97 425.64 728.94 428.69C704.9 431.73 681.08 436.29 657.62 442.33C654.54 293.44 609.18 199.31 533.91 143.89C588.63 140.34 624.5 159.86 647.36 196.7L624.01 214.2C666.82 280.43 732.32 235.4 701.11 175.8L701.57 175.58C699.2 170.44 696.51 165.45 693.52 160.64C690.53 155.83 687.24 151.22 683.67 146.83C680.1 142.43 676.26 138.27 672.17 134.35C668.08 130.44 663.75 126.79 659.2 123.42C664.71 122.59 670.31 122.57 675.82 123.37C681.33 124.16 686.69 125.76 691.74 128.11C696.79 130.46 701.46 133.54 705.62 137.25C709.77 140.95 713.36 145.25 716.27 150L702.5 160.01C757.12 244.53 804.75 195.83 793.18 151.8C789.02 151.38 784.98 150.16 781.29 148.21C777.59 146.26 774.31 143.61 771.61 140.41C768.92 137.21 766.87 133.52 765.57 129.55C764.28 125.57 763.76 121.39 764.05 117.21L783.52 0.03L783.52 106.98C783.52 111.5 785.32 115.84 788.52 119.04C791.72 122.24 796.05 124.04 800.57 124.04C805.1 124.04 809.43 122.24 812.63 119.04C815.83 115.84 817.62 111.5 817.62 106.98L817.62 0L837.11 117.19C837.4 121.21 836.94 125.25 835.75 129.11C834.55 132.96 832.64 136.56 830.12 139.71C827.59 142.85 824.5 145.5 821 147.51C817.5 149.51 813.66 150.85 809.67 151.43L809.74 151.43ZM684.13 312.76L684.15 312.8L684.15 312.79L684.13 312.76ZM681.06 322.34L671.01 322.34L679.16 328.25L676.03 337.81L684.13 331.9L692.25 337.81L689.14 328.22L697.27 322.31L687.23 322.31L684.15 312.8L681.06 322.34ZM920.88 312.79L917.79 322.34L907.76 322.34L915.88 328.25L912.76 337.81L920.88 331.9L928.98 337.81L925.91 328.22L934.06 322.31L924.01 322.31L920.92 312.76L920.88 312.79ZM801.31 372.82L797.98 381.68C809.02 381.6 820.08 381.89 831.17 382.54L827.34 373.4L827.34 305.67C832.7 318.85 838.07 332.11 843.46 345.43C848.83 358.79 854.23 372.29 859.69 385.79C869.1 387.41 878.52 389.35 887.95 391.59C887.13 388.56 886.35 385.55 885.57 382.54L885.57 278.35L888.94 270.64C877.85 267.38 866.78 264.63 855.72 262.4L859.55 271.95L859.55 341.07C854.14 327.22 848.74 313.36 843.31 299.72C837.88 286.07 832.55 272.43 827.19 258.91C817.76 258.39 808.34 258.16 798.93 258.21C799.72 261.07 800.5 263.91 801.31 266.77L801.31 372.82ZM714.43 271.16L716.26 279.06L716.26 383.63C715.64 386.58 715.06 389.54 714.47 392.49L718.4 391.69C726.44 390.05 734.48 388.57 742.53 387.26C753.01 385.74 763.5 384.48 773.99 383.48C779.89 377.67 785.68 371.86 791.52 366.16L791.52 327.17C788.09 324.43 784.65 321.66 781.19 318.98C784.63 315.74 788.07 312.57 791.52 309.36L791.52 275.54C785.62 270.33 779.83 265.21 773.99 260.14C763.49 261.37 753 262.9 742.53 264.73C740.18 265.2 737.83 265.68 735.48 266.18C733.14 266.68 730.8 267.19 728.46 267.72C726.12 268.25 723.78 268.79 721.45 269.35C719.12 269.92 716.79 270.49 714.47 271.08L714.43 271.16ZM742.5 288.26C748.41 287.2 754.31 286.27 760.22 285.41L766.12 290.67L766.12 303.96C758.25 309.67 750.37 315.54 742.5 321.56L742.5 347.17C748.69 342.38 754.87 337.72 761.07 333.09L766.09 338.87L766.09 355.42C764.11 357.62 762.15 359.81 760.19 362.06C754.28 362.79 748.38 363.61 742.47 364.55L742.47 288.35L742.5 288.26ZM2.64 919.91C37.78 911.86 73.04 904.35 108.4 897.38C143.77 890.41 179.23 883.98 214.8 878.09C250.36 872.2 286.01 866.86 321.73 862.05C357.45 857.25 393.25 853 429.1 849.28L429.1 877.67C393.35 880.6 357.64 883.99 321.98 887.83C286.32 891.66 250.71 895.95 215.15 900.69C179.6 905.43 144.11 910.62 108.68 916.26C73.26 921.9 37.91 927.99 2.64 934.53L2.64 919.91ZM1182.32 851.19C1218 854.99 1253.63 859.28 1289.19 864.05C1324.76 868.82 1360.26 874.07 1395.68 879.8C1431.1 885.53 1466.45 891.73 1501.7 898.42C1536.96 905.11 1572.12 912.27 1607.18 919.91L1607.18 934.53C1465.55 910.15 1323.93 891.94 1182.32 879.88L1182.32 851.19ZM231.68 499.69C231.69 499.74 231.7 499.78 231.72 499.82C231.69 499.82 231.66 499.82 231.64 499.81L231.68 499.69ZM231.72 499.82C266.32 504.4 301.07 509.09 335.82 513.1C333.36 519.51 331.17 525.97 328.93 532.42C330.78 542.71 332.64 552.99 334.52 563.27C336.39 573.55 338.28 583.83 340.17 594.11C342.07 604.39 343.98 614.66 345.9 624.94C347.82 635.21 349.75 645.48 351.69 655.75C359.39 695.99 367.08 735.75 374.78 775.05C375.59 776.64 376.4 778.23 377.22 779.81C378.04 781.4 378.86 782.98 379.69 784.57C380.51 786.15 381.35 787.73 382.19 789.3C383.02 790.88 383.87 792.45 384.71 794.02C358.79 796.53 332.77 799.15 307.13 801.69C308.71 794.6 310.49 787.45 312.25 780.32C310.18 767.03 308.28 753.81 306.34 740.44C291.76 741.37 277.18 742.39 262.59 743.4C260.67 757.5 258.91 771.62 257.29 785.78C259.06 792.86 260.84 799.93 262.75 806.89C236.48 810.12 210.19 813.29 183.9 816.94C187.43 808.78 190.95 800.52 194.48 792.4C201.7 745.95 208.86 700.29 216.12 655.05C223.33 610.43 230.71 566.24 238.09 522.64C235.86 515.07 233.79 507.44 231.72 499.82ZM284.1 593.5C284.1 593.52 284.1 593.54 284.11 593.55C284.11 593.54 284.11 593.52 284.11 593.5L284.1 593.5ZM284.11 593.55C281.87 608.67 279.93 623.79 277.86 639.1C275.77 654.43 273.84 669.85 271.76 685.27L297.07 684.77C294.83 669.69 292.59 654.6 290.51 639.36C288.43 624.13 286.19 608.89 284.11 593.55ZM0.01 462.73C0.02 462.75 0.02 462.77 0.02 462.79L0 462.79L0.01 462.73ZM8.86 464.38C27.13 467.66 45.55 470.97 63.99 474.23C87.88 478.55 111.76 482.61 135.79 486.3C149.08 503.43 162.36 520.13 175.87 536.51L175.87 581.04C175.87 595.8 176.02 610.69 176.02 625.47C168.14 633.19 160.27 641.03 152.4 648.98C154.35 650.96 156.31 652.92 158.27 654.88C160.24 656.84 162.21 658.8 164.19 660.75C166.16 662.69 168.15 664.64 170.14 666.57C172.12 668.51 174.12 670.44 176.12 672.36L176.12 698.16C176.12 723.8 176.28 749.44 176.28 775.03C162.98 790.95 149.69 807.2 136.43 823.77C112.36 827.24 88.49 831.05 64.61 835.08C46.19 838.21 27.71 841.37 9.48 844.41L0.83 845.89C1.93 836.79 3.22 827.61 4.66 818.45L4.18 654.15C4.02 599.38 4.02 544.59 4.18 489.78C2.7 480.84 1.31 471.81 0.02 462.79L8.86 464.38ZM64.11 655.98C64.16 674.43 64.22 692.86 64.27 711.27C64.25 688.09 64.11 664.89 64.11 641.59C82.06 628.27 99.96 615.38 117.81 602.92L117.81 565.99C113.32 560.08 108.83 554.09 104.33 548.02L63.95 543.58C63.95 581 64 618.46 64.11 655.98ZM64.43 768.31C77.9 766.83 91.36 765.46 104.84 764.12L118.3 746.19C118.3 730.9 118.14 715.57 118.14 700.2C117.17 698.76 116.2 697.31 115.24 695.86C114.28 694.41 113.33 692.96 112.38 691.51C111.43 690.05 110.49 688.59 109.55 687.13C108.61 685.67 107.68 684.2 106.75 682.73C92.5 693.82 78.39 705.29 64.29 717.02C64.33 734.14 64.38 751.23 64.43 768.31ZM64.29 717.02C64.28 715.11 64.27 713.19 64.27 711.27C64.27 713.19 64.27 715.11 64.27 717.04C64.28 717.03 64.28 717.03 64.29 717.02ZM408.24 539.57C406.48 533.12 404.72 526.63 402.96 520.1C447.67 523.91 492.55 527.49 537.44 530.57C550.57 542.89 563.73 555 577.03 567.02C577.03 582.4 576.95 597.77 577.03 613.1C577.1 628.43 577.19 643.85 577.19 659.17C566.77 669.36 556.35 679.6 545.94 689.92C552.34 702.25 559.08 714.47 565.5 726.58C571.92 738.69 578.63 750.66 585.37 762.61C590.83 768.27 596.42 773.92 602.03 779.49L516.75 783.92L521.18 765.45C515.57 753.84 510.14 742.11 504.68 730.39C499.22 718.66 493.79 706.85 488.32 694.94C481.43 695.06 474.54 695.24 467.66 695.36C467.66 707.56 467.82 719.8 467.82 731.97C467.82 744.14 467.98 756.32 468.31 768.5C471.26 774.57 474.08 780.61 477.16 786.61C451.67 788.54 426.36 790.42 401.02 792.4C403.58 785.65 406.15 778.95 408.72 772.28C408.55 733.53 408.55 694.74 408.41 655.96C408.26 617.17 408.24 578.38 408.24 539.58L408.24 539.57ZM467.41 573.37C467.41 585.35 467.33 597.33 467.41 609.26C467.48 621.19 467.57 633.21 467.57 645.19C480.54 645.28 493.53 645.4 506.67 645.57C511.33 641.43 515.97 637.27 520.61 633.09C520.45 618.33 520.45 603.56 520.45 588.79C515.49 584.21 510.67 579.53 505.86 574.83C493.05 574.38 480.22 573.87 467.39 573.36L467.41 573.37ZM618.24 535.06C618.24 535.08 618.25 535.1 618.25 535.12C618.25 535.12 618.24 535.12 618.24 535.12L618.24 535.06ZM627.21 535.42C645.49 535.99 663.76 536.58 682.2 537.22C706.07 537.93 729.95 538.39 754 538.55C767.29 549.4 780.57 560.21 794.06 571.04L794.06 603.43C794.06 614.19 794.24 625.05 794.24 635.8L770.62 653.02C778.5 658.64 786.37 664.24 794.24 669.82L794.24 688.56C794.24 707.2 794.4 725.79 794.4 744.45C780.94 754.92 767.63 765.43 754.31 775.95C730.26 776.11 706.41 776.24 682.51 776.95C664.08 777.49 645.8 778.05 627.69 778.62C624.63 778.62 621.59 778.8 618.71 778.87C620 773.13 621.28 767.4 622.71 761.65C622.56 726.72 622.45 691.77 622.4 656.8C622.33 621.86 622.24 586.88 622.4 551.94C620.93 546.35 619.46 540.76 618.25 535.12C621.2 535.21 624.15 535.34 627.21 535.42ZM682.2 583.27C682.2 608.14 682.35 633.11 682.35 657.93L682.35 648.48C700.3 639.34 718.26 630.42 736.05 621.29L736.05 595.7C731.62 591.83 727.08 587.95 722.59 584.09C709.13 583.84 695.66 583.55 682.22 583.31L682.2 583.27ZM682.51 732.54C695.97 732.34 709.44 732.13 722.9 732.13C727.33 728.23 731.89 724.38 736.36 720.52C736.36 709.87 736.21 699.29 736.21 688.64C732.38 684.53 728.52 680.47 724.82 676.36C710.57 683.64 696.46 690.98 682.37 698.5C682.4 709.86 682.44 721.22 682.51 732.54ZM682.37 698.5C682.35 684.97 682.35 671.43 682.35 657.93L682.35 698.52C682.36 698.51 682.37 698.51 682.37 698.5ZM815.54 538.96C815.55 538.97 815.55 538.98 815.55 538.99C815.55 538.99 815.55 538.99 815.54 538.99L815.54 538.96ZM815.55 538.99C867.01 538.19 918.45 537.4 969.92 535.34C973.76 552.84 977.61 570.36 981.45 587.92C969.43 585.48 957.5 583.15 945.69 580.76C924.53 581.24 903.37 581.51 882.38 581.67L882.38 630.98C900.33 630.91 918.28 630.94 936.23 630.78L958.37 624.87C958.37 643.76 958.37 662.69 958.55 681.58L934.49 675.38C917.17 675.3 899.86 675.05 882.56 675.05L882.56 731.35C913.48 731.79 944.59 732.56 975.67 733.27L995.4 728.84C992.19 745.83 989.14 762.77 986.08 779.7C929.19 777.78 872.12 776.51 815.22 775.75C817.64 770.14 820.19 764.53 822.76 758.92C822.61 724.98 822.44 691.06 822.44 657.17L822.44 555.46C819.97 549.99 817.79 544.46 815.55 538.99ZM1018.16 570.58C1031.57 557.33 1045.09 543.81 1058.72 530.03C1088.36 528.14 1118.17 526.17 1147.98 523.59C1151.46 526.68 1154.93 529.77 1158.4 532.87C1161.87 535.97 1165.33 539.07 1168.79 542.17C1172.25 545.28 1175.71 548.39 1179.16 551.51C1182.62 554.62 1186.06 557.74 1189.51 560.86L1189.51 658.75C1189.51 691.43 1189.67 724.07 1189.67 756.69C1196.4 765.03 1203.28 773.33 1210.19 781.79C1197.68 792.77 1185.18 803.6 1172.68 814.28L1146.54 790.26C1116.62 787.84 1086.75 785.76 1056.94 784.01C1043.96 770.53 1031.15 757.19 1018.31 744.05C1018.31 715.15 1018.25 686.13 1018.16 657.26C1018.07 628.38 1018.16 599.45 1018.16 570.55L1018.16 570.58ZM1078.12 589.16C1077.96 611.55 1077.96 633.97 1077.96 656.38C1077.96 678.8 1077.96 701.25 1078.12 723.61C1082.59 727.92 1087.09 732.13 1091.73 736.56C1093.72 736.62 1095.71 736.69 1097.71 736.76C1099.7 736.84 1101.69 736.91 1103.68 737C1105.67 737.08 1107.66 737.17 1109.65 737.26C1111.65 737.36 1113.64 737.46 1115.63 737.56C1120.75 733.59 1125.87 729.56 1131.17 725.5C1131.01 702.46 1131.01 679.38 1131.01 656.3L1131.01 587.18C1126.68 583.34 1122.36 579.47 1118.17 575.59C1109.04 576 1099.91 576.37 1090.77 576.67C1086.44 580.9 1082.28 585.01 1078.1 589.16L1078.12 589.16ZM1216.26 518.41L1287.58 510.58C1285.12 517.65 1282.93 524.68 1280.69 531.73L1280.69 732.57L1292.23 749.75C1301.67 750.44 1311.13 751.17 1320.59 751.92C1324.87 746.56 1329.3 741.12 1333.73 735.67C1333.42 700.81 1333.08 665.88 1332.93 631.03C1332.78 596.17 1332.46 561.32 1332.3 526.51C1330.24 519.56 1328.31 512.57 1326.39 505.57C1350.28 502.59 1374.15 499.55 1398.19 496.52L1392.92 519.51L1392.92 644.76C1392.87 686.47 1392.92 728.2 1393.07 769.97C1379.6 784.14 1366.13 797.96 1352.68 811.4C1322.39 807.64 1292.09 804.06 1261.96 800.98C1248.65 785.56 1235.34 770.44 1222.03 755.61L1222.03 537.34C1220.16 531.03 1218.24 524.73 1216.27 518.45L1216.26 518.41ZM1423.04 492.9C1423.04 492.9 1423.04 492.9 1423.04 492.9C1423.01 492.91 1422.99 492.91 1422.96 492.92L1423.04 492.9ZM1423.04 492.9C1474.47 484.94 1525.9 476.4 1577.34 467.28C1581.18 493.88 1585.03 520.69 1588.87 547.71C1576.96 544.83 1565.1 542.01 1553.29 539.24C1532.15 541.68 1510.98 544.07 1489.82 546.11L1489.82 617.88C1507.78 617.22 1525.75 616.42 1543.86 615.67C1551.24 612.45 1558.62 609.23 1566 605.86L1566 692.95L1541.95 683.14C1524.51 682.8 1507.19 682.46 1489.86 682.09L1489.86 764.25C1520.85 767.28 1551.9 770.39 1583.01 773.58L1602.87 767.88C1599.72 794.25 1596.62 820.49 1593.57 846.6C1536.46 837.32 1479.45 828.62 1422.55 820.49C1424.95 813.07 1427.52 805.5 1430.08 797.95L1430.08 514.85C1427.67 507.48 1425.28 500.2 1423.04 492.9ZM1602.86 385.11L1602.86 399.73C1551.76 410.55 1500.47 420.44 1449.01 429.38C1397.55 438.32 1345.94 446.31 1294.18 453.35C1242.43 460.39 1190.55 466.48 1138.58 471.61C1086.6 476.75 1034.53 480.92 982.41 484.14L982.41 453.93C1034.39 451.17 1086.32 447.66 1138.2 443.41C1190.08 439.16 1241.9 434.17 1293.64 428.43C1345.37 422.69 1397.02 416.2 1448.57 408.98C1500.12 401.76 1551.57 393.79 1602.89 385.09L1602.86 385.11ZM657.58 456.1C681.02 449.84 704.84 445.12 728.89 441.97C752.94 438.81 777.17 437.23 801.43 437.23C825.69 437.23 849.92 438.81 873.97 441.97C898.02 445.12 921.84 449.84 945.28 456.1L945.28 485.63C921.77 479.84 897.92 475.48 873.88 472.56C849.84 469.64 825.65 468.18 801.43 468.18C777.21 468.18 753.02 469.64 728.98 472.56C704.94 475.48 681.09 479.84 657.58 485.63L657.58 456.1ZM0 385.14C51.32 393.83 102.76 401.79 154.31 409.01C205.86 416.23 257.51 422.71 309.24 428.44C360.97 434.18 412.79 439.17 464.66 443.41C516.54 447.66 568.48 451.16 620.45 453.91L620.45 484.13C568.32 480.91 516.26 476.73 464.28 471.6C412.31 466.46 360.43 460.37 308.68 453.33C256.92 446.29 205.3 438.3 153.85 429.36C102.39 420.42 51.1 410.54 0 399.71L0 385.14ZM1028.65 857.67L1025.45 846.23L1063.61 846.23L1107.26 950.24L1107.15 857.95L1101.97 846.14L1146.85 846.14L1142.32 857.95L1142.32 998.58L1145.52 1010.04L1107.33 1010.04L1063.68 908.46L1063.79 998.34L1068.97 1010.15L1024.09 1010.15L1028.62 998.34L1028.62 857.7L1028.65 857.67ZM909.09 871.22L909.08 871.23L909.07 871.25L909.09 871.22ZM909.08 871.23L933.04 846.26L985.7 846.26L1010.17 870.74L1010.17 985.4L984.69 1010.33L931.82 1010.33L908.94 985.4L909.08 871.23ZM944.42 884.82L944.35 970.83L952.38 978.77L966.48 978.77L975.7 970.78L975.7 884.82L968.07 877.2L951.97 877.2L944.42 884.82ZM888.04 857.95L888.04 998.25L892.46 1009.99L848.37 1009.99L852.73 998.25L852.73 857.95L848.37 846.23L892.51 846.23L888.08 857.95L888.04 857.95ZM726.16 876.22L705.1 881.85L712.2 846.2L829.54 846.2L836.62 881.85L815.56 876.22L788.51 876.22L788.51 998.34L792.94 1010.08L748.85 1010.08L753.2 998.34L753.2 876.22L726.16 876.22ZM686.19 846.26L682.11 858.07L708.83 998.37L714.74 1010.09L668.77 1010.09L671.72 998.37L668.4 975.8L642.57 975.8L639.27 998.37L642.57 1010.09L596.08 1010.09L602.33 998.37L628.43 858.07L625.66 846.26L686.19 846.26ZM655.54 894.27L648.07 944.48L663.01 944.48L655.54 894.27Z" />
</svg>