<svg version="1.2" xmlns="http://www.w3.org/2000/svg" viewBox="0 0 1443 1483" width="1443" height="1483">
	<title>Bavarian_Nordic_logo-svg</title>
	<style>
		.s0 { fill: #ffffff } 
	</style>
	<path id="path2481" class="s0" d="m226.5 1175c-124.9 0-225.9-101-225.9-225.9 0-124.9 101-225.8 225.9-225.8 124.9 0 225.8 100.9 225.8 225.8 0 124.9-100.9 225.9-225.8 225.9zm557 307.8c-79.9 0-144.5-64.6-144.5-144.5 0-79.8 64.6-144.4 144.5-144.4 79.9 0 144.4 64.6 144.4 144.4 0 79.9-64.5 144.5-144.4 144.5zm365.5-298.1c-50.4 0-91.1-40.7-91.1-91.1 0-50.5 40.7-91.2 91.1-91.2 50.4 0 91.2 40.7 91.2 91.2 0 50.4-40.8 91.1-91.2 91.1zm-225.6-186.3c-33.5 0-60.6-27.1-60.6-60.6 0-33.5 27.1-60.5 60.6-60.5 33.5 0 60.5 27 60.5 60.5 0 33.5-27 60.6-60.5 60.6zm-146.1 83.6c-21.2 0-38.3-17.1-38.3-38.3 0-21.2 17.1-38.4 38.3-38.4 21.2 0 38.4 17.2 38.4 38.4 0 21.2-17.2 38.3-38.4 38.3zm88.8 51.8c-14.7 0-26.6-11.9-26.6-26.5 0-14.7 11.9-26.6 26.6-26.6 14.7 0 26.5 11.9 26.5 26.6 0 14.6-11.8 26.5-26.5 26.5zm61.8-53.5c-10.1 0-18.3-8.2-18.3-18.3 0-10.2 8.2-18.4 18.3-18.4 10.1 0 18.3 8.2 18.3 18.4 0 10.1-8.2 18.3-18.3 18.3zm156.6-362.5c-198.2 0-358.4-160.3-358.4-358.6 0-198.2 160.2-358.5 358.4-358.5 198.3 0 358.5 160.3 358.5 358.5 0 198.3-160.2 358.6-358.5 358.6z"/>
</svg>