<svg version="1.2" xmlns="http://www.w3.org/2000/svg" viewBox="0 0 1513 1512" width="1513" height="1512">
	<title>logo (32)-svg</title>
	<style>
		.s0 { fill: #002cc4 } 
		.s1 { fill: #3975f4 } 
	</style>
	<g id="g862">
		<path id="path864" class="s0" d="m1344.1 335.9h168v167.9h-168z"/>
		<path id="path866" class="s1" d="m1344.1 167.9h168v168h-168z"/>
		<path id="path868" class="s0" d="m1344.1 0h168v167.9h-168z"/>
		<path id="path870" class="s0" d="m1176.1 0h168v167.9h-168z"/>
		<path id="path872" class="s0" d="m672.1 0h168v167.9h-168z"/>
		<path id="path874" class="s1" d="m672.1 167.9h168v168h-168z"/>
		<path id="path876" class="s0" d="m840.1 335.9h168v167.9h-168z"/>
		<path id="path878" class="s0" d="m336.2 335.9h168v167.9h-168z"/>
		<path id="path880" class="s1" d="m168.2 335.9h168v167.9h-168z"/>
		<path id="path882" class="s1" d="m168.2 503.8h168v167.9h-168z"/>
		<path id="path884" class="s1" d="m0.2 671.7h168v168h-168z"/>
		<path id="path886" class="s0" d="m336.2 671.7h168v168h-168z"/>
		<path id="path888" class="s1" d="m336.2 839.7h168v167.9h-168z"/>
		<path id="path890" class="s0" d="m168.2 839.7h168v167.9h-168z"/>
		<path id="path892" class="s1" d="m168.2 1007.6h168v167.9h-168z"/>
		<path id="path894" class="s0" d="m168.2 1175.5h168v167.9h-168z"/>
		<path id="path896" class="s0" d="m0.2 1343.4h168v168h-168z"/>
		<path id="path898" class="s1" d="m336.2 1343.4h168v168h-168z"/>
		<path id="path900" class="s0" d="m504.2 1175.5h168v167.9h-168z"/>
		<path id="path902" class="s0" d="m672.1 1007.6h168v167.9h-168z"/>
		<path id="path904" class="s1" d="m840.1 1175.5h168v167.9h-168z"/>
		<path id="path906" class="s0" d="m1008.1 1007.6h168v167.9h-168z"/>
		<path id="path908" class="s0" d="m1176.1 1007.6h168v167.9h-168z"/>
		<path id="path910" class="s1" d="m1176.1 839.7h168v167.9h-168z"/>
		<path id="path912" class="s0" d="m1176.1 671.7h168v168h-168z"/>
		<path id="path914" class="s1" d="m1176.1 503.8h168v167.9h-168z"/>
		<path id="path916" class="s0" d="m1344.1 839.7h168v167.9h-168z"/>
		<path id="path918" class="s1" d="m1344.1 671.7h168v168h-168z"/>
		<path id="path920" class="s0" d="m1344.1 503.8h168v167.9h-168z"/>
		<path id="path922" class="s1" d="m1344.1 1007.6h168v167.9h-168z"/>
		<path id="path924" class="s1" d="m672.1 839.7h168v167.9h-168z"/>
		<path id="path926" class="s0" d="m840.1 839.7h168v167.9h-168z"/>
		<path id="path928" class="s1" d="m840.1 671.7h168v168h-168z"/>
		<path id="path930" class="s0" d="m672.1 1343.4h168v168h-168z"/>
		<path id="path932" class="s0" d="m1008.1 1343.4h168v168h-168z"/>
		<path id="path934" class="s0" d="m1344.1 1343.4h168v168h-168z"/>
		<path id="path936" class="s1" d="m0.2 1007.6h168v167.9h-168z"/>
		<path id="path938" class="s1" d="m336.2 503.8h168v167.9h-168z"/>
		<path id="path940" class="s0" d="m504.2 503.8h168v167.9h-168z"/>
		<path id="path942" class="s1" d="m672.1 503.8h168v167.9h-168z"/>
		<path id="path944" class="s0" d="m504.2 671.7h168v168h-168z"/>
		<path id="path946" class="s1" d="m0.2 335.9h168v167.9h-168z"/>
		<path id="path948" class="s1" d="m504.2 0h167.9v167.9h-167.9z"/>
		<path id="path950" class="s0" d="m336.2 167.9h168v168h-168z"/>
		<path id="path952" class="s1" d="m0.2 0h168v167.9h-168z"/>
	</g>
</svg>