<svg version="1.2" xmlns="http://www.w3.org/2000/svg" viewBox="0 0 1513 1512" width="1513" height="1512">
	<title>BAYANAT</title>
	<style>
		.s0 { fill: #ffffff } 
		.s1 { fill: #002cc4 } 
		.s2 { fill: #3975f4 } 
	</style>
	<g id="g862">
		<path id="Shape 1" class="s0" d="m0.9 0h1512.1v1509.1h-1512.1z"/>
		<path id="path864" class="s1" d="m1344.1 335.9h168v168h-168z"/>
		<path id="path866" class="s2" d="m1344.1 168h168v167.9h-168z"/>
		<path id="path868" class="s1" d="m1344.1 0h168v168h-168z"/>
		<path id="path870" class="s1" d="m1176.2 0h167.9v168h-167.9z"/>
		<path id="path872" class="s1" d="m672.2 0h168v168h-168z"/>
		<path id="path874" class="s2" d="m672.2 168h168v167.9h-168z"/>
		<path id="path876" class="s1" d="m840.2 335.9h168v168h-168z"/>
		<path id="path878" class="s1" d="m336.3 335.9h168v168h-168z"/>
		<path id="path880" class="s2" d="m168.3 335.9h168v168h-168z"/>
		<path id="path882" class="s2" d="m168.3 503.9h168v168h-168z"/>
		<path id="path884" class="s2" d="m0.1 671.6h168.2v167.9h-168.2z"/>
		<path id="path886" class="s1" d="m336.3 671.6h168v167.9h-168z"/>
		<path id="path888" class="s2" d="m336.3 839.5h168v168h-168z"/>
		<path id="path890" class="s1" d="m168.3 839.5h168v168h-168z"/>
		<path id="path892" class="s2" d="m168.3 1007.5h168v168h-168z"/>
		<path id="path894" class="s1" d="m168.3 1175.5h168v167.9h-168z"/>
		<path id="path896" class="s1" d="m0.1 1343.4h168.2v168h-168.2z"/>
		<path id="path898" class="s2" d="m336.3 1343.4h168v168h-168z"/>
		<path id="path900" class="s1" d="m504.3 1175.5h167.9v167.9h-167.9z"/>
		<path id="path902" class="s1" d="m672.2 1007.5h168v168h-168z"/>
		<path id="path904" class="s2" d="m840.2 1175.5h168v167.9h-168z"/>
		<path id="path906" class="s1" d="m1008.2 1007.5h168v168h-168z"/>
		<path id="path908" class="s1" d="m1176.2 1007.5h167.9v168h-167.9z"/>
		<path id="path910" class="s2" d="m1176.2 839.5h167.9v168h-167.9z"/>
		<path id="path912" class="s1" d="m1176.2 671.6h167.9v167.9h-167.9z"/>
		<path id="path914" class="s2" d="m1176.2 503.9h167.9v168h-167.9z"/>
		<path id="path916" class="s1" d="m1344.1 839.5h168v168h-168z"/>
		<path id="path918" class="s2" d="m1344.1 671.6h168v167.9h-168z"/>
		<path id="path920" class="s1" d="m1344.1 503.9h168v167.7h-168z"/>
		<path id="path922" class="s2" d="m1344.1 1007.5h168v168h-168z"/>
		<path id="path924" class="s2" d="m672.2 839.5h168v168h-168z"/>
		<path id="path926" class="s1" d="m840.2 839.5h168v168h-168z"/>
		<path id="path928" class="s2" d="m840.2 671.6h168v167.9h-168z"/>
		<path id="path930" class="s1" d="m672.2 1343.4h168v168h-168z"/>
		<path id="path932" class="s1" d="m1008.2 1343.4h168v168h-168z"/>
		<path id="path934" class="s1" d="m1344.1 1343.4h168v168h-168z"/>
		<path id="path936" class="s2" d="m0.1 1007.5h168.2v168h-168.2z"/>
		<path id="path938" class="s2" d="m336.3 503.9h168v168h-168z"/>
		<path id="path940" class="s1" d="m504.3 503.9h167.9v168h-167.9z"/>
		<path id="path942" class="s2" d="m672.2 503.9h168v168h-168z"/>
		<path id="path944" class="s1" d="m504.3 671.6h167.9v167.9h-167.9z"/>
		<path id="path946" class="s2" d="m0.1 335.9h168.2v168h-168.2z"/>
		<path id="path948" class="s2" d="m504.3 0h167.9v168h-167.9z"/>
		<path id="path950" class="s1" d="m336.3 168h168v167.9h-168z"/>
		<path id="path952" class="s2" d="m0.1 0h168.2v168h-168.2z"/>
	</g>
</svg>