<svg version="1.2" xmlns="http://www.w3.org/2000/svg" viewBox="0 0 1541 332" width="1541" height="332">
	<title>bluelogo-svg</title>
	<style>
		.s0 { fill: #004990 } 
	</style>
	<path id="Layer" fill-rule="evenodd" class="s0" d="m124.2 0c66.6 0 100.4 29.8 100.4 88.6 0 29.8-10.1 50.6-29.6 64.3 38.5 9.1 59.8 37.2 59.8 83.8 0 60-44.2 94.5-121.3 94.5h-133.5v-331.2h5.2c0 0 119 0 119 0zm-30.5 74.2v51.8h4.1c28.4 0 39.9-7.5 39.9-25.9 0-21.8-15.2-25.9-43.3-25.9 0 0-0.7 0-0.7 0zm-0.1 124.3v58.5h8c17.3 0.1 40.9 0.1 52.1-11.1 4.4-4.4 6.5-10.2 6.5-17.8 0-8.7-2.2-15.2-6.9-19.8-10.4-10.3-32.1-10.1-49.5-9.9l-6.8 0.1c0 0-3.4 0-3.4 0zm366.9-198.5v81h-99.1v43.3h94v80.9h-94v45h99.1v81h-192.7v-331.2zm519 165.6c0 91.3-75.4 165.6-168 165.6h-123.3v-331.2h123.3c92.6 0 168 74.3 168 165.6zm-162.6 125.9c63.2-9.5 112.4-53 112.5-126.1v-0.2c-0.1-73.1-49-116.9-112.2-126.3 56.7 13.5 93.8 58.1 94.5 126.4-0.7 68.3-38.1 112.7-94.8 126.2zm81-126v-0.4c-0.2-61.2-42-89.3-95-97.2 47.5 11.3 78.3 40.4 79.1 97.4-0.8 57-31.6 86.2-79.1 97.5 53-7.9 94.8-36 95-97.3zm-116.1 84.4c52.4-1.4 83.6-32.5 83.6-84.3 0-51.3-32-83.3-83.6-84.4 0 0 0 168.7 0 168.7zm182-83.8v-1.6c-0.5-83.5-55.5-136.1-127.4-150.8 63 18 107.2 72.7 108.1 151.3v0.9c-0.7 78.7-44.9 133.6-108.1 151.7 72.1-14.8 127.2-67.6 127.4-151.5zm-391.6-166.1v250.2h99.9v81h-193.6v-331.2zm618.6 0v81h-99.1v43.3h94v81h-94v44.9h99.1v81h-192.7v-331.2h187.5zm349.7 0v331.2h-91q-18.2-23.4-36.4-46.9-18.3-23.5-36.5-46.9-18.2-23.5-36.4-47-18.2-23.5-36.4-46.9v187.7h-93.7v-331.2h91c0 0 130.8 168.1 145.7 187.4v-187.4z"/>
</svg>