<svg version="1.2" xmlns="http://www.w3.org/2000/svg" viewBox="0 0 1549 1535" width="1549" height="1535">
	<title>g77628-svg</title>
	<style>
		.s0 { fill: #0072f5 } 
	</style>
	<g id="#3d6aadff">
		<path id="Layer" fill-rule="evenodd" class="s0" d="m292 0h969.2c95.9 34.3 193 87.1 242.2 180.7 41.2 69.5 45.7 152.5 44.9 231.4-2.2 264.6 1.1 529.2-1.5 793.6 1.1 151.2-110.1 284.6-251.4 329.3h-1039.9c-56.9-24.1-113.2-54-155.6-100-47.9-50.9-73.5-117-99.9-180.4v-961c27.7-66 55-135.3 106.8-186.8 50.7-52 119.2-80.1 185.2-106.8zm423.4 318.4c-93.9 43.4-166.3 120.6-249.7 180.4-63.6 52.1-131.9 98.4-193.2 153.3-42.7 33.7-23.9 108.6 28.4 120.4 38.8 8.7 69.7-22.3 98.8-42.6 100.8-81.1 203.2-160.1 304.2-240.7 29.4-22.4 69.3-59.1 106.3-28.5 130.1 94.4 251.7 200.5 381.5 295.6 32.7 29 90.3 21.4 107.8-20.8 26.2-42.3-13.5-82.9-45.1-107.1-114.7-89.3-228.8-179.5-343.3-268.9-54-43.3-128.5-68.5-195.7-41.1zm-328.6 527.7c-31.9 15.3-46.6 54.9-33.5 87.6 47.7 153 184.9 274 343 301.2 211.8 44.1 442.4-92.9 504-300 17.5-44.1-13.4-96.3-61.6-98.6-62.9 4-73.8 74.8-101.5 118-83 154-307.9 193-443.4 86.5-58.5-38.8-86.2-104.5-117.4-164-14.2-33.5-57.9-50-89.6-30.7z"/>
	</g>
</svg>