<svg version="1.2" baseProfile="tiny-ps" xmlns="http://www.w3.org/2000/svg" viewBox="0 0 1602 711" width="1602" height="711">
	<title>logo-biofrontera-2x-svg</title>
	<defs>
		<radialGradient id="grd1" gradientUnits="userSpaceOnUse"  cx="1125.501" cy="868.378" r="12.351">
			<stop offset="0" stop-color="#d1dff2"  />
			<stop offset="1" stop-color="#75aadb"  />
		</radialGradient>
		<linearGradient id="grd2" gradientUnits="userSpaceOnUse"  x1="1376.965" y1="274.927" x2="1740.261" y2="204.177">
			<stop offset="0" stop-color="#ffffff"  />
			<stop offset="1" stop-color="#ffffff"  />
		</linearGradient>
		<linearGradient id="grd3" gradientUnits="userSpaceOnUse"  x1="1330.773" y1="169.068" x2="1380.2" y2="-44.5">
			<stop offset="0" stop-color="#ffffff"  />
			<stop offset="0.29" stop-color="#ffffff"  />
			<stop offset="1" stop-color="#fdfefe"  />
		</linearGradient>
		<linearGradient id="grd4" gradientUnits="userSpaceOnUse"  x1="1154.246" y1="217.414" x2="1008.589" y2="76.916">
			<stop offset="0" stop-color="#ffffff"  />
			<stop offset="1" stop-color="#ffffff"  />
		</linearGradient>
		<linearGradient id="grd5" gradientUnits="userSpaceOnUse"  x1="1340.166" y1="359.232" x2="1362.031" y2="612.911">
			<stop offset="0" stop-color="#ffffff"  />
			<stop offset="1" stop-color="#ffffff"  />
		</linearGradient>
	</defs>
	<style>
		tspan { white-space:pre }
		.shp0 { fill: #ec6b1e } 
		.shp1 { fill: url(#grd1) } 
		.shp2 { fill: url(#grd2) } 
		.shp3 { fill: url(#grd3) } 
		.shp4 { fill: url(#grd4) } 
		.shp5 { fill: url(#grd5) } 
		.shp6 { fill: #ffffff } 
	</style>
	<g id="Ebene_x0020_1">
		<path id="Layer" fill-rule="evenodd" class="shp0" d="M650.84 657.03C649.6 662.72 647.76 667.65 645.37 671.81C642.91 675.89 639.83 679.12 636.13 681.43C632.36 683.74 628.13 684.9 623.2 684.9L600.64 684.9L600.64 591.89L623.2 591.89C628.36 591.89 632.82 593.05 636.52 595.2C640.21 597.44 643.29 600.59 645.68 604.6C648.07 608.6 649.84 613.45 650.99 619.15C652.15 624.77 652.68 631.08 652.68 638.01C652.68 644.94 652.07 651.25 650.84 657.03ZM638.44 625.92C637.98 621.92 637.06 618.38 635.82 615.22C634.59 612.06 632.9 609.52 630.82 607.6C628.66 605.6 625.97 604.67 622.66 604.67L613.5 604.67L613.5 672.12L623.12 672.12C626.2 672.12 628.74 671.12 630.9 669.11C632.98 667.03 634.59 664.42 635.82 661.18C637.06 657.95 637.98 654.25 638.44 650.25C638.9 646.17 639.13 642.09 639.13 638.01C639.13 633.93 638.9 629.93 638.44 625.92Z" />
		<path id="1" fill-rule="evenodd" class="shp0" d="M713.27 649.79C713.27 650.41 713.27 651.18 713.27 652.02C713.27 652.87 713.2 653.64 713.12 654.33L676.63 654.33C677.09 661.18 678.4 666.19 680.71 669.27C683.02 672.42 686.02 673.96 689.79 673.96C692.72 673.96 695.03 673.58 696.72 672.81C698.49 671.96 700.34 670.65 702.42 668.81L710.19 676.97C707.81 679.66 704.88 681.89 701.42 683.66C698.03 685.44 694.03 686.36 689.48 686.36C685.33 686.36 681.63 685.51 678.47 683.82C675.32 682.12 672.62 679.74 670.47 676.58C668.24 673.42 666.62 669.65 665.54 665.26C664.39 660.8 663.85 655.87 663.85 650.33C663.85 644.25 664.46 638.93 665.69 634.31C666.85 629.77 668.54 626 670.78 622.92C673.01 619.84 675.63 617.53 678.63 615.99C681.63 614.45 685.02 613.68 688.71 613.68C692.18 613.68 695.41 614.45 698.41 615.91C701.42 617.45 704.03 619.69 706.27 622.69C708.42 625.61 710.19 629.39 711.42 633.85C712.66 638.39 713.27 643.71 713.27 649.79ZM700.42 643.32C700.18 638.09 699.11 633.85 697.03 630.54C695.03 627.31 692.18 625.61 688.48 625.61C681.71 625.61 677.78 631.54 676.78 643.32L700.42 643.32Z" />
		<path id="2" fill-rule="evenodd" class="shp0" d="M773.01 649.79C773.01 650.41 773.01 651.18 773.01 652.02C773.01 652.87 773.01 653.64 772.94 654.33L736.37 654.33C736.83 661.18 738.22 666.19 740.52 669.27C742.83 672.42 745.84 673.96 749.53 673.96C752.46 673.96 754.77 673.58 756.54 672.81C758.23 671.96 760.08 670.65 762.16 668.81L770.01 676.97C767.62 679.66 764.7 681.89 761.23 683.66C757.77 685.44 753.77 686.36 749.3 686.36C745.14 686.36 741.45 685.51 738.22 683.82C735.06 682.12 732.36 679.74 730.21 676.58C728.05 673.42 726.44 669.65 725.28 665.26C724.2 660.8 723.67 655.87 723.67 650.33C723.67 644.25 724.2 638.93 725.44 634.31C726.59 629.77 728.36 626 730.52 622.92C732.75 619.84 735.37 617.53 738.37 615.99C741.37 614.45 744.76 613.68 748.45 613.68C751.92 613.68 755.15 614.45 758.15 615.91C761.16 617.45 763.77 619.69 766.01 622.69C768.24 625.61 769.93 629.39 771.17 633.85C772.4 638.39 773.01 643.71 773.01 649.79ZM756.85 630.54C754.77 627.31 751.92 625.61 748.3 625.61C741.53 625.61 737.6 631.54 736.52 643.32L760.16 643.32C760 638.09 758.85 633.85 756.85 630.54Z" />
		<path id="3" fill-rule="evenodd" class="shp0" d="M826.83 677.35C822.98 683.36 817.59 686.36 810.74 686.36C806.04 686.36 802.04 684.59 798.65 681.2L798.65 703.91L785.79 710.53L785.79 615.14L798.65 615.14L798.57 619.76C800.27 617.99 802.04 616.53 803.96 615.45C805.96 614.3 808.43 613.68 811.58 613.68C814.74 613.68 817.66 614.3 820.21 615.53C822.75 616.76 824.98 618.84 826.75 621.77C828.6 624.69 829.98 628.54 831.06 633.31C832.06 638.01 832.52 643.86 832.52 650.71C832.52 662.42 830.6 671.27 826.83 677.35ZM817.13 631.7C815.35 627.69 812.66 625.61 808.97 625.61C806.89 625.61 804.88 626.23 803.11 627.46C801.27 628.62 799.8 630.16 798.65 632L798.65 668.11C800.11 670.27 801.73 671.81 803.73 672.89C805.65 673.89 807.58 674.43 809.66 674.43C812.89 674.43 815.35 672.66 817.13 669.11C818.82 665.57 819.67 659.64 819.67 651.41C819.67 642.32 818.82 635.7 817.13 631.7Z" />
		<path id="4" class="shp0" d="M889.42 596.44C889.42 598.51 888.65 600.36 887.11 601.9C885.49 603.52 883.72 604.29 881.56 604.29C879.33 604.29 877.48 603.52 875.94 601.9C874.4 600.36 873.56 598.51 873.56 596.44C873.56 594.2 874.4 592.36 875.94 590.74C877.48 589.2 879.33 588.43 881.56 588.43C883.72 588.43 885.49 589.2 887.11 590.74C888.65 592.36 889.42 594.2 889.42 596.44ZM875.17 684.9L875.17 615.14L888.11 615.14L888.11 684.9L875.17 684.9Z" />
		<path id="5" class="shp0" d="M935.38 684.9L935.38 642.01C935.38 636.16 934.68 632 933.45 629.46C932.22 627 929.99 625.77 926.83 625.77C924.83 625.77 922.9 626.31 921.13 627.46C919.36 628.54 917.82 630.08 916.59 632.16L916.59 684.9L903.73 684.9L903.73 615.14L916.59 615.14L916.51 619.92C917.9 618.15 919.75 616.68 922.06 615.45C924.37 614.3 927.06 613.68 930.06 613.68C936.76 613.68 941.46 615.84 944.15 620.15C946.92 624.46 948.23 631 948.23 639.86L948.23 684.9L935.38 684.9L935.38 684.9Z" />
		<path id="6" fill-rule="evenodd" class="shp0" d="M1023.68 684.9L1023.83 680.2C1022.14 681.97 1020.29 683.43 1018.37 684.59C1016.44 685.74 1013.9 686.36 1010.82 686.36C1007.59 686.36 1004.74 685.74 1002.2 684.51C999.58 683.28 997.43 681.2 995.58 678.28C993.81 675.35 992.34 671.5 991.34 666.73C990.34 662.03 989.8 656.18 989.8 649.25C989.8 637.62 991.73 628.77 995.58 622.69C999.43 616.68 1004.74 613.68 1011.67 613.68C1016.29 613.68 1020.37 615.45 1023.68 618.84L1023.68 594.66L1036.53 588.04L1036.53 684.9L1023.68 684.9ZM1023.68 631.85C1022.29 629.77 1020.6 628.16 1018.67 627.15C1016.75 626.15 1014.75 625.61 1012.75 625.61C1009.36 625.61 1006.9 627.39 1005.2 630.93C1003.51 634.47 1002.66 640.4 1002.66 648.63C1002.66 657.72 1003.58 664.34 1005.28 668.34C1006.97 672.35 1009.67 674.43 1013.36 674.43C1015.52 674.43 1017.44 673.81 1019.29 672.58C1021.06 671.42 1022.52 669.88 1023.68 668.04L1023.68 631.85Z" />
		<path id="7" fill-rule="evenodd" class="shp0" d="M1098.74 652.02C1098.74 652.87 1098.66 653.64 1098.59 654.33L1062.09 654.33C1062.48 661.18 1063.86 666.19 1066.17 669.27C1068.48 672.42 1071.49 673.96 1075.18 673.96C1078.11 673.96 1080.49 673.58 1082.19 672.81C1083.88 671.96 1085.81 670.65 1087.81 668.81L1095.66 676.97C1093.27 679.66 1090.35 681.89 1086.88 683.66C1083.42 685.44 1079.49 686.36 1074.95 686.36C1070.79 686.36 1067.1 685.51 1063.94 683.82C1060.71 682.12 1058.09 679.74 1055.86 676.58C1053.7 673.42 1052.09 669.65 1051.01 665.26C1049.85 660.8 1049.31 655.87 1049.31 650.33C1049.31 644.25 1049.93 638.93 1051.09 634.31C1052.32 629.77 1054.01 626 1056.24 622.92C1058.4 619.84 1061.02 617.53 1064.1 615.99C1067.1 614.45 1070.41 613.68 1074.18 613.68C1077.57 613.68 1080.8 614.45 1083.88 615.91C1086.88 617.45 1089.5 619.69 1091.66 622.69C1093.89 625.61 1095.66 629.39 1096.89 633.85C1098.12 638.39 1098.74 643.71 1098.74 649.79C1098.74 650.41 1098.74 651.18 1098.74 652.02ZM1082.5 630.54C1080.49 627.31 1077.57 625.61 1073.95 625.61C1067.18 625.61 1063.25 631.54 1062.17 643.32L1085.81 643.32C1085.65 638.09 1084.57 633.85 1082.5 630.54Z" />
		<path id="8" class="shp0" d="M1143.24 628.85C1142.01 628.16 1140.7 627.62 1139.39 627.23C1138 626.85 1136.39 626.69 1134.31 626.69C1132.54 626.69 1130.84 627.08 1129.15 627.85C1127.45 628.62 1125.84 630 1124.38 632.16L1124.38 684.9L1111.44 684.9L1111.44 615.14L1124.38 615.14L1124.38 619.92C1125.76 618.15 1127.53 616.68 1129.69 615.45C1131.77 614.3 1134.15 613.68 1136.69 613.68C1138.93 613.68 1140.77 613.91 1142.39 614.37C1143.93 614.76 1145.24 615.38 1146.24 616.07L1143.24 628.85L1143.24 628.85Z" />
		<path id="9" class="shp0" d="M1216.91 684.9L1216.91 642.01C1216.91 636.24 1216.53 632.08 1215.68 629.54C1214.83 627 1212.83 625.77 1209.68 625.77C1207.67 625.77 1205.75 626.31 1203.98 627.46C1202.13 628.54 1200.67 630.08 1199.44 632.16L1199.44 684.9L1186.5 684.9L1186.5 642.01C1186.5 636.24 1186.12 632.08 1185.27 629.54C1184.42 627 1182.42 625.77 1179.27 625.77C1177.26 625.77 1175.34 626.31 1173.49 627.46C1171.72 628.54 1170.26 630.08 1168.95 632.16L1168.95 684.9L1156.09 684.9L1156.09 615.14L1168.95 615.14L1168.87 619.92C1170.26 618.15 1172.03 616.68 1174.19 615.45C1176.26 614.3 1178.88 613.68 1181.88 613.68C1185.35 613.68 1188.12 614.3 1190.35 615.45C1192.58 616.68 1194.43 618.53 1195.97 621.15C1198.44 618.3 1201.05 616.38 1203.67 615.3C1206.37 614.22 1209.21 613.68 1212.37 613.68C1215.83 613.68 1218.68 614.3 1220.92 615.45C1223.22 616.53 1225 618.3 1226.38 620.53C1227.69 622.77 1228.61 625.61 1229.08 629.08C1229.54 632.54 1229.85 636.55 1229.85 641.17L1229.85 684.9L1216.91 684.9L1216.91 684.9Z" />
		<path id="10" fill-rule="evenodd" class="shp0" d="M1274.34 680.12C1272.57 682.12 1270.49 683.66 1268.11 684.74C1265.8 685.82 1263.1 686.36 1259.95 686.36C1257.41 686.36 1254.94 685.82 1252.63 684.9C1250.4 683.9 1248.32 682.43 1246.63 680.51C1244.86 678.58 1243.55 676.12 1242.47 673.19C1241.47 670.27 1241.01 666.88 1241.01 662.95C1241.01 655.33 1243.09 649.64 1247.32 645.86C1251.56 642.01 1256.94 640.09 1263.57 640.09C1265.72 640.09 1267.65 640.32 1269.42 640.7C1271.19 641.09 1272.8 641.71 1274.19 642.4L1274.19 635.62C1274.19 632.24 1273.5 629.77 1272.19 628.08C1270.88 626.46 1268.49 625.61 1265.18 625.61C1262.95 625.61 1260.79 626 1258.64 626.62C1256.48 627.31 1254.1 628.46 1251.48 630L1246.01 620.3C1249.25 618.22 1252.56 616.53 1256.02 615.45C1259.56 614.3 1262.87 613.68 1266.11 613.68C1269.8 613.68 1272.96 614.07 1275.65 614.76C1278.35 615.45 1280.5 616.61 1282.27 618.3C1283.97 619.92 1285.2 622.07 1285.89 624.69C1286.66 627.39 1287.05 630.62 1287.05 634.55L1287.05 684.9L1274.19 684.9L1274.34 680.12ZM1269.65 652.25C1268.11 651.87 1266.18 651.71 1263.8 651.71C1260.87 651.71 1258.41 652.56 1256.64 654.33C1254.79 656.1 1253.87 658.87 1253.87 662.72C1253.87 666.88 1254.64 669.88 1256.17 671.89C1257.71 673.81 1259.79 674.81 1262.49 674.81C1267.88 674.81 1271.73 672.66 1274.19 668.27L1274.19 654.33C1272.73 653.33 1271.19 652.64 1269.65 652.25Z" />
		<path id="11" class="shp0" d="M1329.85 683.13C1328.31 684.13 1326.62 684.9 1324.77 685.51C1322.92 686.05 1320.77 686.36 1318.38 686.36C1313.68 686.36 1310.22 684.82 1308.06 681.66C1305.98 678.58 1304.83 674.19 1304.83 668.57L1304.83 627.08L1297.29 627.08L1297.29 615.14L1304.83 615.14L1304.83 594.82L1317.76 588.04L1317.76 615.14L1331.16 615.14L1331.16 627.08L1317.76 627.08L1317.76 667.34C1317.76 669.81 1318.23 671.58 1319.07 672.66C1320 673.73 1321.3 674.27 1323.08 674.27C1324.77 674.27 1326.31 673.96 1327.69 673.42C1329.16 672.81 1330.31 672.12 1331.31 671.35L1329.85 683.13Z" />
		<path id="12" fill-rule="evenodd" class="shp0" d="M1392.29 649.79C1392.29 662.03 1389.9 671.19 1385.28 677.27C1380.66 683.28 1374.42 686.36 1366.73 686.36C1363.11 686.36 1359.8 685.59 1356.8 684.13C1353.79 682.66 1351.18 680.51 1348.94 677.51C1346.71 674.58 1345.02 670.81 1343.86 666.26C1342.63 661.8 1342.09 656.49 1342.09 650.33C1342.09 638.01 1344.32 628.85 1348.87 622.77C1353.33 616.68 1359.49 613.68 1367.27 613.68C1371.04 613.68 1374.42 614.45 1377.43 615.91C1380.51 617.45 1383.12 619.69 1385.28 622.69C1387.44 625.61 1389.13 629.39 1390.44 633.85C1391.67 638.39 1392.29 643.71 1392.29 649.79ZM1376.2 632.08C1374.04 628.08 1371.04 626.08 1367.03 626.08C1358.95 626.08 1354.95 634.08 1354.95 650.1C1354.95 666.03 1359.03 673.96 1367.19 673.96C1371.11 673.96 1374.19 671.81 1376.27 667.5C1378.35 663.11 1379.35 657.33 1379.35 650.1C1379.35 642.17 1378.35 636.16 1376.2 632.08Z" />
		<path id="13" class="shp0" d="M1405.68 684.9L1405.68 594.66L1418.54 588.04L1418.54 684.9L1405.68 684.9Z" />
		<path id="14" fill-rule="evenodd" class="shp0" d="M1482.05 649.79C1482.05 662.03 1479.74 671.19 1475.04 677.27C1470.43 683.28 1464.27 686.36 1456.57 686.36C1452.95 686.36 1449.56 685.59 1446.56 684.13C1443.56 682.66 1440.94 680.51 1438.78 677.51C1436.55 674.58 1434.86 670.81 1433.63 666.26C1432.47 661.8 1431.86 656.49 1431.86 650.33C1431.86 638.01 1434.09 628.85 1438.63 622.77C1443.1 616.68 1449.25 613.68 1457.11 613.68C1460.8 613.68 1464.19 614.45 1467.27 615.91C1470.27 617.45 1472.89 619.69 1475.04 622.69C1477.28 625.61 1478.97 629.39 1480.2 633.85C1481.43 638.39 1482.05 643.71 1482.05 649.79ZM1465.96 632.08C1463.88 628.08 1460.8 626.08 1456.8 626.08C1448.79 626.08 1444.71 634.08 1444.71 650.1C1444.71 666.03 1448.79 673.96 1456.95 673.96C1460.96 673.96 1463.96 671.81 1466.04 667.5C1468.12 663.11 1469.19 657.33 1469.19 650.1C1469.19 642.17 1468.12 636.16 1465.96 632.08Z" />
		<path id="15" fill-rule="evenodd" class="shp0" d="M1537.71 691.83C1536.71 695.52 1535.09 698.68 1532.78 701.3C1530.47 703.91 1527.55 705.99 1524.01 707.45C1520.39 708.99 1515.92 709.99 1510.61 710.53L1506.99 700.29C1510.84 699.76 1514 699.06 1516.54 698.22C1519 697.37 1521.01 696.21 1522.39 694.67C1523.85 693.13 1524.85 691.21 1525.39 688.9C1526.01 686.67 1526.24 683.9 1526.24 680.66L1526.24 680.12C1524.62 681.97 1522.78 683.43 1520.85 684.59C1518.93 685.74 1516.39 686.36 1513.31 686.36C1510.15 686.36 1507.22 685.74 1504.68 684.51C1502.14 683.28 1499.99 681.2 1498.14 678.28C1496.37 675.35 1494.98 671.5 1493.91 666.73C1492.91 662.03 1492.44 656.18 1492.44 649.25C1492.44 637.62 1494.37 628.77 1498.14 622.69C1501.99 616.68 1507.38 613.68 1514.23 613.68C1518.93 613.68 1522.93 615.45 1526.24 618.84L1526.24 615.14L1539.17 615.14L1539.17 678.74C1539.17 683.74 1538.71 688.05 1537.71 691.83ZM1526.24 631.85C1524.85 629.77 1523.24 628.16 1521.24 627.15C1519.31 626.15 1517.39 625.61 1515.31 625.61C1512 625.61 1509.46 627.39 1507.76 630.93C1506.15 634.47 1505.3 640.4 1505.3 648.63C1505.3 657.72 1506.15 664.34 1507.84 668.34C1509.61 672.35 1512.31 674.43 1516 674.43C1518.08 674.43 1520.08 673.81 1521.85 672.58C1523.7 671.42 1525.16 669.88 1526.24 668.04L1526.24 631.85Z" />
		<path id="16" class="shp0" d="M1573.97 709.46L1561.5 709.46L1569.04 684.9L1549.64 615.14L1563.19 615.14L1571.28 648.25C1571.66 649.56 1572.05 651.1 1572.43 652.95C1572.82 654.72 1573.2 656.56 1573.66 658.41C1574.05 660.18 1574.36 661.88 1574.66 663.49C1574.97 665.11 1575.28 666.34 1575.43 667.19C1575.59 666.34 1575.9 665.11 1576.2 663.49C1576.59 661.88 1576.97 660.18 1577.36 658.34C1577.74 656.49 1578.13 654.64 1578.51 652.79C1578.98 651.02 1579.28 649.4 1579.67 648.1L1587.91 615.14L1601.46 615.14L1573.97 709.46L1573.97 709.46Z" />
		<path id="Layer" fill-rule="evenodd" class="shp1" d="M1203.05 298.64C1197.51 278.47 1210.91 257.07 1232.85 251.06C1254.87 244.98 1277.35 256.45 1282.89 276.62C1288.51 296.79 1275.04 318.12 1253.1 324.2C1231.08 330.28 1208.6 318.81 1203.05 298.64Z" />
		<path id="Layer" fill-rule="evenodd" class="shp2" d="M1557.27 63.82C1459.19 134.96 1395.67 210.64 1413.92 276.16C1429.78 333.06 1495.29 393.95 1584.06 445.84C1476.82 403.89 1395.67 347.53 1378.89 284.71C1359.95 214.18 1440.32 135.81 1557.27 63.82L1557.27 63.82Z" />
		<path id="Layer" fill-rule="evenodd" class="shp3" d="M1152.78 0L1153.4 0C1193.66 79.22 1261.49 167.45 1336.09 146.13C1408.07 125.57 1443.25 105.71 1514.54 43.65L1546.41 14.17C1465.81 100.47 1392.05 156.52 1341.47 170.53C1240.7 198.32 1189.12 110.94 1152.78 0Z" />
		<path id="Layer" fill-rule="evenodd" class="shp4" d="M991.5 234.28C1025.29 240.59 1057.78 241.21 1082.73 234.36C1163.33 208.26 1160.25 154.67 1141.54 77.76C1137.85 64.59 1131.38 51.51 1124.61 38.96C1136 55.28 1147.16 73.76 1152.48 93.16C1173.42 169.07 1184.12 225.04 1101.05 247.98C1071.26 256.22 1031.38 249.6 991.5 234.28Z" />
		<path id="Layer" fill-rule="evenodd" class="shp5" d="M1363.34 365.78C1402.14 376.79 1456.34 426.37 1514.77 494.81C1457.8 443.15 1404.83 405.58 1371.11 395.8C1283.81 370.63 1221.3 434.76 1180.27 527.92C1216.07 421.29 1267.88 338.75 1363.34 365.78L1363.34 365.78Z" />
		<path id="Layer" fill-rule="evenodd" class="shp6" d="M106.63 463.55C103.85 470.64 100.16 476.41 95.46 481.03C90 486.57 83.91 490.42 77.29 492.81C70.67 495.12 62.28 496.27 52.12 496.27L0 496.27L0 309.96L43.5 309.96C54.2 309.96 62.28 310.5 67.59 311.5C72.91 312.5 77.99 314.58 82.84 317.73C88.23 321.35 92.15 325.97 94.62 331.52C97 337.21 98.23 343.91 98.23 351.76C98.23 360.62 96.46 368.16 92.92 374.32C89.38 380.56 84.68 385.56 78.68 389.26L78.68 390.34C88.69 392.88 96.46 398.42 102.16 406.89C107.93 415.36 110.78 426.06 110.78 438.99C110.78 448.23 109.4 456.39 106.63 463.55ZM76.14 343.6C74.98 340.52 73.06 338.06 70.36 336.14C67.36 333.83 63.59 332.52 59.12 331.9C54.81 331.36 49.35 331.13 42.8 331.13L19.55 331.13L19.55 384.95L44.81 384.95C50.89 384.95 55.74 384.56 59.36 383.71C62.97 382.94 66.36 381.33 69.44 378.79C72.52 376.32 74.68 373.09 75.98 369.09C77.29 365.16 77.91 360.46 77.91 355C77.91 350.53 77.29 346.68 76.14 343.6ZM87.76 422.06C85.99 417.67 82.76 413.89 78.14 410.81C74.98 408.74 71.13 407.43 66.67 406.73C62.13 406.12 56.66 405.81 50.19 405.81L19.55 405.81L19.55 475.1L45.34 475.1C53.89 475.1 60.9 474.56 66.36 473.41C71.83 472.33 76.29 470.25 79.76 467.25C83.45 464.01 86.15 460.24 87.84 456.16C89.61 451.93 90.46 446.54 90.46 439.99C90.46 432.45 89.53 426.52 87.76 422.06ZM136.03 333.06L136.03 308.73L156.97 308.73L156.97 333.06L136.03 333.06ZM155.74 496.27L137.19 496.27L137.19 356.54L155.74 356.54L155.74 496.27ZM286.31 426.44C286.31 449.23 281.69 467.25 272.53 480.41C263.37 493.58 250.97 500.12 235.5 500.12C219.95 500.12 207.55 493.58 198.39 480.41C189.23 467.25 184.61 449.23 184.61 426.44C184.61 403.65 189.23 385.72 198.39 372.47C207.55 359.23 219.95 352.61 235.5 352.61C250.97 352.61 263.37 359.23 272.53 372.47C281.69 385.72 286.31 403.65 286.31 426.44ZM267.22 426.44C267.22 408.35 264.37 394.95 258.83 386.1C253.21 377.32 245.43 372.94 235.5 372.94C225.49 372.94 217.64 377.32 212.1 386.1C206.55 394.95 203.78 408.35 203.78 426.44C203.78 443.92 206.55 457.24 212.17 466.32C217.72 475.33 225.57 479.87 235.5 479.87C245.35 479.87 253.13 475.41 258.75 466.4C264.37 457.47 267.22 444.15 267.22 426.44ZM374.3 324.36L373.3 324.36C371.3 323.59 368.61 322.82 365.37 322.05C362.06 321.2 359.14 320.81 356.67 320.81C348.74 320.81 342.89 323.05 339.35 327.51C335.81 331.98 333.96 340.06 333.96 351.76L333.96 356.54L367.38 356.54L367.38 376.32L334.58 376.32L334.58 496.27L316.03 496.27L316.03 376.32L303.48 376.32L303.48 356.54L316.03 356.54L316.03 351.92C316.03 335.29 319.26 322.51 325.8 313.65C332.27 304.72 341.66 300.34 353.98 300.34C358.14 300.34 361.83 300.57 365.22 301.1C368.53 301.57 371.53 302.18 374.3 302.88L374.3 324.36ZM453.83 382.17C451.06 381.33 448.36 380.71 445.82 380.33C443.21 379.94 440.13 379.79 436.59 379.79C430.81 379.79 425.35 381.4 420.03 384.64C414.64 387.87 409.56 391.95 404.64 397.03L404.64 496.27L386.08 496.27L386.08 356.54L404.64 356.54L404.64 377.17C411.95 369.7 418.49 364.31 424.11 361.23C429.73 358.08 435.43 356.54 441.28 356.54C444.52 356.54 446.9 356.61 448.29 356.85C449.75 357.08 451.91 357.46 454.83 358L454.83 382.17L453.83 382.17ZM566.23 426.44C566.23 449.23 561.61 467.25 552.37 480.41C543.21 493.58 530.82 500.12 515.42 500.12C499.87 500.12 487.47 493.58 478.31 480.41C469.07 467.25 464.53 449.23 464.53 426.44C464.53 403.65 469.07 385.72 478.31 372.47C487.47 359.23 499.87 352.61 515.42 352.61C530.82 352.61 543.21 359.23 552.37 372.47C561.61 385.72 566.23 403.65 566.23 426.44ZM547.06 426.44C547.06 408.35 544.29 394.95 538.67 386.1C533.13 377.32 525.35 372.94 515.42 372.94C505.33 372.94 497.56 377.32 492.02 386.1C486.4 394.95 483.62 408.35 483.62 426.44C483.62 443.92 486.4 457.24 492.02 466.32C497.64 475.33 505.41 479.87 515.42 479.87C525.27 479.87 532.97 475.41 538.59 466.4C544.21 457.47 547.06 444.15 547.06 426.44ZM668.47 496.27L668.47 416.67C668.47 410.28 668.16 404.19 667.62 398.57C667 392.95 665.93 388.56 664.31 385.41C662.69 381.87 660.31 379.33 657.23 377.56C654.15 375.86 650.14 375.01 645.22 375.01C640.14 375.01 634.82 376.63 629.36 379.79C623.81 382.94 618.5 386.95 613.5 391.95L613.5 496.27L594.95 496.27L594.95 356.54L613.5 356.54L613.5 372.01C619.27 365.93 625.28 361.16 631.44 357.77C637.6 354.38 643.91 352.61 650.45 352.61C662.38 352.61 671.39 357.15 677.7 366.24C683.94 375.4 687.02 388.49 687.02 405.58L687.02 496.27L668.47 496.27ZM768.62 497.89C764.47 498.66 760.77 498.97 757.54 498.97C746.3 498.97 737.75 495.19 731.98 487.5C726.13 479.8 723.2 467.56 723.2 450.62L723.2 376.32L710.65 376.32L710.65 356.54L723.2 356.54L723.2 316.35L741.68 316.35L741.68 356.54L779.94 356.54L779.94 376.32L741.68 376.32L741.68 439.99C741.68 447.31 741.83 453.08 742.14 457.16C742.37 461.32 743.3 465.17 744.91 468.71C746.3 472.1 748.3 474.56 750.84 476.1C753.38 477.64 757.23 478.41 762.47 478.41C765.47 478.41 768.62 477.8 771.86 476.72C775.17 475.56 777.56 474.64 779.02 473.87L779.94 473.87L779.94 494.96C776.48 496.2 772.7 497.12 768.62 497.89ZM813.43 428.83C813.43 437.45 814.43 444.92 816.51 451.31C818.51 457.7 821.28 462.94 824.9 467.02C828.29 471.02 832.37 474.02 837.06 476.02C841.76 478.03 846.92 479.03 852.62 479.03C860.08 479.03 867.63 477.18 875.25 473.33C882.79 469.56 888.18 465.78 891.42 462.09L892.42 462.09L892.42 487.8C886.18 491.11 879.79 493.89 873.33 496.12C866.78 498.43 859.93 499.51 852.77 499.51C834.45 499.51 820.21 493.27 809.97 480.72C799.73 468.09 794.57 450.31 794.57 427.21C794.57 404.35 799.5 386.18 809.35 372.78C819.13 359.31 832.06 352.61 848.15 352.61C863.01 352.61 874.48 358.15 882.49 369.16C890.57 380.17 894.57 395.8 894.57 416.05L894.57 428.83L813.43 428.83ZM869.17 382.17C864.32 375.4 857 372.01 847.15 372.01C837.22 372.01 829.37 375.78 823.44 383.18C817.51 390.57 814.2 399.81 813.43 410.81L876.56 410.81C876.48 398.5 874.02 388.87 869.17 382.17ZM990.5 382.17C987.73 381.33 985.03 380.71 982.41 380.33C979.8 379.94 976.79 379.79 973.18 379.79C967.48 379.79 961.94 381.4 956.62 384.64C951.31 387.87 946.15 391.95 941.23 397.03L941.23 496.27L922.67 496.27L922.67 356.54L941.23 356.54L941.23 377.17C948.62 369.7 955.08 364.31 960.7 361.23C966.4 358.08 972.1 356.54 977.95 356.54C981.18 356.54 983.49 356.61 984.95 356.85C986.42 357.08 988.57 357.46 991.42 358L991.42 382.17L990.5 382.17ZM1072.56 496.27L1072.56 481.41C1070.95 482.8 1068.71 484.8 1065.87 487.34C1063.09 489.88 1060.4 491.88 1057.78 493.42C1054.7 495.35 1051.09 496.89 1047.08 498.27C1043.08 499.51 1038.38 500.12 1032.99 500.12C1023.06 500.12 1014.67 495.96 1007.74 487.65C1000.89 479.34 997.43 468.71 997.43 455.78C997.43 445.15 999.2 436.53 1002.82 430.06C1006.36 423.52 1011.51 418.36 1018.14 414.59C1024.83 410.81 1032.92 408.27 1042.31 406.89C1051.7 405.58 1061.79 404.66 1072.56 403.96L1072.56 400.27C1072.56 394.95 1071.79 390.49 1070.33 387.02C1068.87 383.48 1066.71 380.71 1063.94 378.71C1061.32 376.79 1058.17 375.55 1054.55 374.86C1050.85 374.24 1047 373.86 1043 373.86C1038.15 373.86 1032.69 374.71 1026.68 376.32C1020.68 377.94 1014.52 380.33 1008.13 383.41L1007.2 383.41L1007.2 359.46C1010.74 358.23 1016.06 356.85 1022.83 355.38C1029.68 353.84 1036.46 353.07 1043.08 353.07C1050.85 353.07 1057.55 353.92 1063.33 355.54C1069.1 357.15 1074.1 359.92 1078.26 363.85C1082.42 367.7 1085.57 372.7 1087.73 378.79C1089.96 384.87 1091.04 392.41 1091.04 401.42L1091.04 496.27L1072.56 496.27ZM1072.56 422.98C1066.94 423.36 1060.25 423.98 1052.62 424.83C1044.93 425.6 1038.84 426.91 1034.38 428.45C1029.07 430.37 1024.76 433.37 1021.45 437.38C1018.21 441.46 1016.52 447 1016.52 454.08C1016.52 462.09 1018.44 468.09 1022.29 472.18C1026.06 476.26 1031.92 478.26 1039.69 478.26C1046.23 478.26 1052.16 476.64 1057.55 473.41C1062.94 470.25 1067.94 466.4 1072.56 461.86L1072.56 422.98Z" />
	</g>
</svg>