<svg version="1.2" xmlns="http://www.w3.org/2000/svg" viewBox="0 0 1564 343" width="1564" height="343">
	<title>AnnualReport2021-60-pdf-svg</title>
	<defs>
		<clipPath clipPathUnits="userSpaceOnUse" id="cp1">
			<path d="m-391-281h5227v6762h-5227z"/>
		</clipPath>
		<clipPath clipPathUnits="userSpaceOnUse" id="cp2">
			<path d="m0.08 7.84h1563.39v327.18h-1563.39z"/>
		</clipPath>
	</defs>
	<style>
		.s0 { fill: none;stroke: #2c2e35;stroke-width: 6.8 } 
		.s1 { fill: #2c2e35 } 
	</style>
	<g id="Clip-Path: Page 1" clip-path="url(#cp1)">
		<g id="Page 1">
			<g id="Clip-Path: Mask" clip-path="url(#cp2)">
				<g id="Mask">
					<path id="Path 2" class="s0" d="m542.3 10.2l153 161.4-153 161.1m39-322.5l153 161.4-153 161.1m40.3-322.5l153 161.4-153 161.1m38.6-322.5l153 161.4-153 161.1m-118.1-0.6l-153.1-161.1 153.1-155.6m39 316.7l-153-161.1 153-155.6m40.3 316.7l-153.1-161.1 153.1-155.6m38.6 316.7l-153-161.1 153-155.6"/>
				</g>
			</g>
			<path id="Path 5" fill-rule="evenodd" class="s1" d="m93.4 125.8c0.3-20.5-1.5-40.7-25.1-40.7-14.4 0-23.5 5.8-23.5 21.4 0 17.5 11 24.2 24.4 32.8 14.1 8.8 40.1 26 52.1 37.6 14.7 14.4 19.3 28.1 19.3 48 0 43.5-28.8 66.1-70.7 66.1-51.5 0-69.8-28.8-69.8-69.7v-16.9h42.8v13.5c-0.9 22.3 5.8 38.5 27 38.5 18 0 26.6-9.4 26.6-26.9 0-13.4-6.1-22.6-17.2-30.3-22.3-17.4-50.2-30-67.6-52.9-7-10.4-11-23-11-35.2 0-39.2 22-60.6 67.3-60.6 68.3 0 66.4 52.7 66.7 75.3zm158.9 159.7c-2.8-5.5-3.1-11.6-2.5-17.7h-0.6c-9.2 14.3-21.4 22.3-34.9 22.3-32.1 0-46.2-16.2-46.2-51.7 0-39.5 27.9-49 59.1-61.8 16.8-7.1 22.9-14.7 19.6-28.8-1.9-7.6-8-8.8-18.7-8.8-18.1 0-21.1 9.4-20.8 25h-38c-0.3-32.7 10.4-55.6 60.3-55.6 54.2 0 57.6 28.4 57 51v101.9c0 8.3 1.2 16.3 3.3 24.2zm-5.5-90.9c-9.8 6.8-21.7 13.5-32.1 22.1-5.8 4.9-6.8 13.4-6.8 20.8 0 13.1 4 22 18.7 22 23.6 0 19.3-29.7 20.2-46.2zm155.5 65.2h-0.6c-6.1 20.5-17.8 29.9-37 30.3-31.6 0-38.6-16.3-38.6-45v-132.2h39.8v118.1c0 7.7-0.3 16.2 4 23 3.3 3.6 7 5.5 12.2 5.5 18.7 0 18.4-21.1 18.4-34.6v-112h39.7v172.6h-37.9zm81.7-203.8h39.8v229.5h-39.8zm295.7 147.7c-0.3 4.3-0.7 8.9-1 13.2-2.1 41.9-16.2 74-63.9 74-70.4 0-75-44.6-75-105.8v-32.8c1.8-58.4 6.4-101.8 75-101.8 38.2 0.6 59.7 20.1 62.7 59.3 0.6 5.8 1.2 11.6 0.9 17.4h-42.2c-1.8-14.6-0.3-42.2-21.4-42.2-33.7 0-30.9 40.1-30.9 57.9v63.6c0 19 1.5 49.9 30.9 49.9 23.5 0 20.8-38 21.7-52.7zm29.4-31.5c-1.9-40.7 19-63.9 58.1-63.9 55.4 0 61.2 28.7 61.2 75.9v23.2h-79.5v25.1c0.3 22.6 8.8 26.9 20.8 26.9 14.7 0 19-10.7 18.3-32.4h39.8c1.6 38.5-14.4 63-55.1 63-45.9 0-64.5-21.7-63.6-72.5zm79.6 4.6v-15c-0.3-17.4-4.9-22.9-20.9-22.9-19.8 0-18.9 15.3-18.9 30.9v7zm116-46.2h0.6c8.8-19.9 26.6-22.3 35.8-22.3 22.6 0 41 13.1 39.8 44v133.1h-39.8v-115c0-16.9-1.9-27.9-16.9-28.5-14.9-0.6-20.2 13.5-19.5 31.8v111.7h-39.8v-172.5h39.8zm171.7 155.4c-23.6 2.7-56.7 4.9-56.7-27.2v-116.9h-16.2v-29.1h15.9v-47.4h40.1v47.4h16.9v29.1h-16.9v107.1c0.9 7.3 12 6.4 16.9 5.8zm23.8-113.8c-1.8-40.7 19-64 58.2-64 55.4 0 61.2 28.8 61.2 75.9v23.3h-79.6v25c0.3 22.7 8.9 27 20.8 27 14.7 0 19-10.7 18.4-32.5h39.8c1.5 38.6-14.4 63.1-55.1 63.1-45.9 0-64.6-21.8-63.7-72.5zm79.6 4.5v-14.9c-0.3-17.5-4.9-23-20.8-23-19.9 0-19 15.3-19 30.9v7z"/>
			<path id="Path 6" class="s1" d="m1393.8 143.5h0.7c4.9-12.5 9.8-19.5 15.6-24.4 11.3-9.5 18.9-8.9 24.8-9.2v47.1c-22.1-2.1-38.9 3.4-39.5 28.8v99.7h-39.8v-172.6h38.2zm93.7 85.1c-3.1 31.8 9.2 30.9 18.4 30.9 11.3 0 19.2-8.3 16.5-19.3-0.6-9.8-12-15.3-19.6-20.5l-21.7-15c-19.9-13.7-32.8-29.6-32.8-54.4 0-26.6 21.1-41.9 59.4-41.9 38.6 0 56.3 20.2 55.4 57.2h-39.8c0.9-19.3-4.6-26.6-18.4-26.6-9.4 0-16.8 4.2-16.8 14 0 10.1 7.4 14.7 15 19.9l32.4 22.1c10.1 5.8 26.1 22.3 27.3 33.9 3.3 30-4 61.2-59.1 61.2-21.1 0-60.6-8.9-56-61.5z"/>
		</g>
	</g>
</svg>