<svg version="1.2" baseProfile="tiny-ps" xmlns="http://www.w3.org/2000/svg" viewBox="0 0 1200 1200" width="1200" height="1200">
	<title>big_5_logo_400_x_400_pixels_rgb-svg</title>
	<style>
		tspan { white-space:pre }
		.shp0 { fill: #0056b8 } 
		.shp1 { fill: #ffffff } 
	</style>
	<g id="#0056b8ff">
		<path id="Layer" fill-rule="evenodd" class="shp0" d="M0 0L1200 0L1200 1200L0 1200L0 0ZM835.36 64.38C809.84 71.5 782.6 82.02 767.16 104.88C755.7 121.3 755.64 142.28 757.36 161.42C759.48 172.7 764.24 183.62 772.02 192.16C785.06 207.54 803.88 216.3 822.64 222.58C861.74 234.96 903.4 237.12 944.04 233.82C979 231.36 1013.42 222.04 1044.72 206.26C1048.08 214.86 1050.64 223.76 1053.8 232.42C1077.46 232.42 1101.12 232.38 1124.78 232.44C1125.16 213.26 1124.88 194.08 1125 174.9C1132.88 174.88 1140.78 174.88 1148.68 174.7C1148.7 161.62 1148.78 148.52 1148.64 135.44C1088.8 135.18 1028.94 135.28 969.1 135.38C968.84 148.5 968.92 161.64 969.04 174.76C981.1 175.06 993.18 174.58 1005.24 175.12C989.86 191.74 965.66 195.96 943.96 195.12C927.84 195.88 911.3 192.48 897.36 184.2C885.86 176.76 876.2 164.3 876.48 150.04C875.32 133.64 884.68 117.28 899.08 109.5C918 98.82 940.84 97.62 961.98 100.22C980.44 102.14 996.98 111.04 1013.44 118.88C1016.62 120.64 1020.24 120.86 1023.8 120.8C1057.48 120.7 1091.16 120.78 1124.82 120.74C1125.12 101.98 1124.94 83.22 1124.92 64.44C1095.64 64.34 1066.38 64.38 1037.12 64.44C1034.32 68.04 1031.82 71.88 1028.66 75.14C1022.5 75.9 1016.78 72.84 1010.96 71.38C954.44 53.7 892.96 49.22 835.36 64.38ZM57.06 63.28C56.84 77.16 57 91.06 56.94 104.94C69.82 104.96 82.7 105 95.58 104.88C95.74 131.78 95.56 158.66 95.66 185.56C82.78 185.5 69.92 185.56 57.04 185.48C56.86 199.38 56.88 213.28 57.02 227.18C146.68 227.28 236.34 227.2 326 227.24C344.38 227.36 363.02 225.72 380.6 220.12C394.12 215.84 406.64 205.5 410.04 191.26C412.92 179.16 409.14 165.96 401.7 156.2C394.9 147.86 383.32 147.54 373.96 144.08C381.78 140.04 391.2 138.26 397.4 131.54C412.12 115.44 409.62 87.06 392 74.02C380.44 65.7 365.5 65.3 351.84 64.44C341.3 62.72 330.62 63.38 320 63.3C232.36 63.28 144.72 63.36 57.06 63.28ZM480.9 63.3C480.62 77.16 480.76 91.04 480.76 104.92C494.78 105.02 508.8 104.86 522.82 105.06C522.84 131.86 522.9 158.66 522.8 185.44C508.84 187.42 494.72 186.1 480.68 186.6C480.86 200.02 480.64 213.44 480.86 226.84C545.4 226.64 609.94 227.12 674.48 226.6C674.54 213.36 674.42 200.12 674.56 186.88C660.06 186.12 645.56 186.76 631.06 186.44C630.58 159.3 630.98 132.16 630.86 105C645.42 104.24 660.22 106.36 674.64 103.62C674.46 90.78 674.5 77.92 674.6 65.06C665.28 62.46 655.54 63.34 646 63.26C590.96 63.3 535.92 63.22 480.9 63.3ZM115.26 309.06C115.1 424.96 115.22 540.88 115.22 656.78C208.84 657.18 302.46 656.76 396.1 657C399.92 656.94 403.8 657.22 407.58 656.46C415.44 650.8 421.82 643.38 429.34 637.32C473.06 601.72 527.68 579.52 583.94 575.32C602.64 574.6 621.38 574.62 640.08 575.42C675.52 578.22 712.48 584.78 741.96 605.98C761.78 619.58 773.78 642.56 776.82 666.08C777.48 677.92 777.54 689.84 776.6 701.68C772.62 726.72 761.24 751.1 742.28 768.28C716.42 792.94 680.34 802.46 645.82 806.84C623.2 807.92 600.54 807.58 577.92 807.06C539.54 803.42 500.9 793.36 468.54 771.74C445.6 756.12 426.02 734.72 415.46 708.82C315.74 708.8 216.02 708.56 116.3 708.94C121.44 736.1 135.26 760.8 151.18 783.08C187.14 832.02 238.98 866.96 293.84 891.6C375.1 927.62 463.86 943.1 551.98 949.86C565.6 952.1 579.54 950.1 593.16 952.5C620.8 953.48 648.48 953.2 676.14 952.98C743.28 949.16 810.56 939.58 874.98 919.66C935.12 900.98 994.7 872.94 1038.02 826.02C1065.16 796.54 1083.72 758.9 1089.18 719.12C1092.3 702.24 1091.78 684.96 1091.14 667.88C1085.52 616.58 1055.76 570.14 1015.4 538.86C989.7 518.7 960 504.26 929.38 493.22C885.66 478.22 839.82 469.94 793.8 466.54C782.64 464.46 771.26 464.98 759.98 464.74C745.96 465.14 732.04 461.78 718 463.54C703.48 465.96 688.64 463.68 674.14 466.28C608.22 471.7 542.32 482.92 479.72 504.82C469.62 508.32 459.78 512.56 449.62 515.94C449.3 478.3 449.6 440.64 449.46 402.98C528.98 402.66 608.48 402.94 688 402.84C704.52 402.54 720.94 404.46 737.34 406.04C782.84 411.66 828.24 421.94 869.96 441.4C879.2 445.14 887.44 452.48 897.78 452.7C943.42 452.64 989.06 452.72 1034.7 452.64C1034.86 404.8 1034.66 356.96 1034.82 309.12C966.54 308.68 898.26 309.06 830 308.94C591.76 309.02 353.5 308.78 115.26 309.06ZM1074.84 312.76C1061.8 318.06 1051.26 331.48 1052.64 346.02C1051.96 361.52 1064.16 375.68 1079 379.16C1100.06 386.3 1126.5 369.04 1125.22 346C1126.78 329.72 1113.58 314.56 1098.06 311.36C1090.36 310.52 1082.22 309.98 1074.84 312.76ZM623.08 1009.6C611.22 1017.76 605.64 1031.94 602.26 1045.4C597.26 1067.6 597.84 1091.5 605.88 1112.92C610.1 1124.44 619.74 1134.66 632.26 1136.56C642.06 1136.74 650.28 1130.94 656.6 1123.98C656.64 1127.14 656.68 1130.3 656.74 1133.48C663.56 1133.52 670.38 1133.52 677.22 1133.42C677.36 1117.58 676.66 1101.7 677.44 1085.9C679.54 1084.08 682.24 1083.18 684.7 1081.96C684.76 1076.24 684.78 1070.52 684.72 1064.82C672.1 1064.56 659.48 1064.6 646.88 1064.74C646.84 1070.78 646.84 1076.86 646.84 1082.92C649.66 1083.16 652.48 1083.42 655.32 1083.68C654.92 1090.92 654.44 1099.3 648.32 1104.24C645.8 1107.22 641.24 1107.98 638 1105.74C630.52 1101.98 628.58 1093 627.28 1085.5C626.68 1072.34 625.76 1058.44 631.54 1046.2C633.86 1040.74 640.2 1037.88 645.92 1038.9C652.02 1042.74 653.88 1050.2 655.92 1056.66C662.86 1056.8 669.8 1056.78 676.76 1056.68C676.86 1040.76 676.76 1024.84 676.8 1008.92C668.26 1009 658.22 1006.42 652.28 1014.3C644.72 1006.76 632.54 1004.1 623.08 1009.6ZM65.42 1009.06C52.78 1017.3 50.36 1034.04 51 1048C49.92 1062.06 54.02 1077.74 65.62 1086.64C75.24 1094.04 89.1 1090.66 98.52 1098.16C99.1 1101.58 99.12 1105.08 99.32 1108.58C94.72 1109.74 89.64 1112.32 85.06 1109.64C75.64 1105.92 70.18 1096.72 61.72 1091.6C58.22 1091.08 54.68 1091.14 51.16 1091.04C50.96 1105.18 51.12 1119.36 51.08 1133.52C56.3 1133.48 61.54 1133.46 66.78 1133.42C67.7 1130.16 68.66 1126.94 69.58 1123.72C76.54 1132.16 88.36 1139.8 99.46 1134.96C111.58 1130.56 116.66 1117.16 118.94 1105.54C120.3 1090.98 120.78 1075.3 113.28 1062.2C110.72 1057 105.46 1053.82 99.96 1052.58C90.12 1050.1 80.14 1048.08 70.66 1044.4C71.06 1040.42 71.66 1036.48 72.58 1032.62C77.92 1032.62 83.86 1031.54 88.58 1034.74C94.62 1037.88 99.18 1043.22 105.2 1046.38C108.98 1047 112.82 1046.78 116.62 1046.9C116.74 1034.24 116.58 1021.58 116.72 1008.92C111.62 1008.8 106.5 1008.74 101.4 1008.72C100.44 1011.84 99.44 1014.96 98.46 1018.12C90.66 1008.7 76.94 1003.24 65.42 1009.06ZM123.14 1008.76C123.04 1019.04 123.1 1029.32 123 1039.62C126.38 1040.2 129.78 1040.72 133.18 1041.22C133.12 1061.16 133.06 1081.08 133.2 1101.02C129.86 1101.96 126.48 1102.84 123.08 1103.66C123.06 1113.52 123.1 1123.38 122.98 1133.26C137.72 1135.3 152.6 1134.18 167.42 1134.54C167.82 1124 167.66 1113.48 167.5 1102.96C164.06 1102.86 160.62 1102.78 157.2 1102.7C157.06 1095.52 157.1 1088.36 157.26 1081.22C168.08 1080.1 181.18 1084.42 189.96 1076.1C199.44 1066.04 203.14 1051.38 199.92 1037.94C198.8 1025.72 192.02 1012.18 179.22 1009.1C160.56 1008.2 141.84 1008.94 123.14 1008.76ZM232.68 1008.1C221.96 1011.82 214.16 1021.1 209.56 1031.16C201.26 1046.82 202.3 1064.92 202.54 1082.06C202.66 1099.84 209.64 1118.64 224.02 1129.74C232.16 1136.36 243.52 1136.6 253.3 1134.32C267.68 1128.52 276.46 1114.06 280.5 1099.7C283.72 1086.7 286.18 1073.02 283.4 1059.72C281.92 1043.52 276.7 1026.62 264.7 1015.14C256.38 1006.94 243.62 1004.82 232.68 1008.1ZM285.2 1008.9C285.26 1018.92 285.32 1028.94 285.16 1038.94C289.02 1039.82 292.9 1040.7 296.78 1041.5C296.58 1061.32 296.76 1081.12 296.66 1100.96C292.86 1101.12 289.06 1101.28 285.28 1101.44C285.14 1111.98 285.26 1122.52 285.14 1133.08C299.92 1136.18 314.88 1132.6 329.8 1133.44C331.12 1122.72 330.52 1111.92 329.12 1101.26C326.36 1101.18 323.62 1101.12 320.88 1101.08C321.04 1093.92 320.04 1086.46 323.04 1079.74C325.68 1080.86 328.28 1082.1 330.82 1083.46C334.56 1091.76 332 1101.2 333.98 1109.9C335.48 1118.84 336.62 1130.58 346.2 1134.62C353.08 1135.86 362.22 1137.12 366.9 1130.6C374.36 1120.32 374.28 1106.16 370.4 1094.52C365.8 1098.26 363.5 1103.68 361.14 1108.94C358.12 1098.02 357.3 1086.46 352.38 1076.1C364.56 1064.48 364.32 1046.2 362.12 1030.78C359.86 1018.74 348.94 1007.64 336.12 1008.68C319.14 1008.76 302.16 1008.52 285.2 1008.9ZM367.22 1008.86C367.26 1023.98 367.16 1039.08 367.16 1054.2C367.06 1058.38 367.86 1062.52 368.86 1066.58C374.7 1066.48 380.54 1066.46 386.38 1066.4C386.54 1057.76 386.54 1049.12 386.56 1040.48C388.82 1040.46 393.34 1040.44 395.58 1040.44C395.7 1060.8 395.66 1081.18 395.62 1101.54C392.16 1102.3 388.68 1102.92 385.18 1103.48C385.18 1113.82 385.14 1124.14 385.24 1134.48C400.42 1134.54 415.6 1134.46 430.78 1134.46C430.94 1124.04 430.84 1113.64 430.86 1103.26C427.48 1103.04 424.12 1102.86 420.74 1102.74C418.88 1081.58 419.02 1060.16 420.86 1039C422.96 1039.08 427.18 1039.24 429.3 1039.32C429.5 1047.8 429.52 1056.28 429.44 1064.76C435.88 1065.52 442.34 1065.44 448.8 1065.02C448.78 1046.28 448.84 1027.56 448.78 1008.86C421.6 1008.66 394.4 1008.6 367.22 1008.86ZM455.32 1008.82C455.58 1018.88 454.34 1029.08 455.88 1039.08C459.02 1040.1 462.26 1040.74 465.5 1041.44C465.34 1061.86 465.76 1082.3 465.2 1102.74C461.84 1102.82 458.5 1102.94 455.18 1103.08C455.26 1113.16 455.22 1123.24 455.18 1133.34C471 1136.16 486.98 1132.48 502.94 1133.34C502.74 1123.42 502.76 1113.5 502.86 1103.58C498.94 1102.84 495.08 1101.92 491.24 1100.96C491.24 1080.94 491.2 1060.92 491.26 1040.92C495.08 1040.76 498.9 1040.62 502.72 1040.5C502.92 1029.96 502.86 1019.44 502.82 1008.9C486.98 1008.58 471.16 1008.68 455.32 1008.82ZM508.86 1008.76C508.86 1019.36 508.78 1029.94 508.88 1040.54C512.26 1040.64 515.64 1040.74 519.04 1040.86C519.2 1060.9 518.94 1080.94 519.18 1101C515.74 1101.96 512.3 1102.86 508.84 1103.7C508.82 1113.62 508.78 1123.54 508.86 1133.46C520.84 1133.46 532.84 1133.62 544.82 1133.32C544.82 1125.22 544.68 1117.1 544.76 1109.02C544.26 1106.9 545.96 1104.06 548.32 1104.6C552.54 1113.92 554.8 1123.98 558.58 1133.48C568.78 1133.52 578.98 1133.58 589.18 1133.4C589.06 1102.8 589.2 1072.18 589.1 1041.58C591.9 1040.76 594.72 1039.9 597.52 1039.06C597.42 1028.94 597.54 1018.84 597.34 1008.72C587.1 1008.78 576.84 1008.84 566.6 1008.74C566.48 1018.86 566.6 1028.98 566.44 1039.12C569.54 1039.92 572.64 1040.72 575.76 1041.48C575.36 1054.44 576.14 1067.46 574.66 1080.4C569.18 1056.24 559.48 1033.26 554.08 1009.1C539.02 1008.34 523.92 1008.8 508.86 1008.76ZM731.52 1025.36C722.28 1043.28 720.14 1064.08 721.3 1083.98C723.38 1100.44 726.62 1118.74 739.9 1130.14C745.78 1136.2 754.88 1136.06 762.66 1135.06C769.8 1134.04 774.42 1127.94 778.98 1122.96C778.86 1126.42 778.8 1129.86 778.74 1133.34C785.58 1133.52 792.42 1133.54 799.26 1133.44C799.18 1117.44 799.26 1101.44 799.14 1085.44C801.76 1084.46 804.38 1083.48 807.02 1082.54C807.06 1076.58 807.04 1070.64 806.98 1064.72C794.16 1064.58 781.34 1064.72 768.52 1064.62C768 1070.48 766.58 1076.66 768.78 1082.36C771.64 1083.52 774.6 1084.46 777.54 1085.5C776.54 1090.7 776.16 1096.32 773.3 1100.96C770.52 1104.6 765.68 1109.14 760.92 1105.98C752.52 1102.26 750.1 1092.42 749.22 1084.14C748.62 1071.44 747.82 1057.94 753.52 1046.2C756.04 1039.98 765.2 1036.08 770.58 1041C774.56 1045.56 776.42 1051.48 779.06 1056.84C785.48 1055.78 793.58 1059.14 798.74 1054.28C798.98 1039.14 798.76 1024 798.72 1008.88C792.12 1008.76 785.54 1008.74 778.98 1008.62C778.08 1011.84 777.22 1015.08 776.4 1018.34C771.52 1012.94 766.22 1006 758.04 1006.84C745.82 1005.3 736.76 1015.64 731.52 1025.36ZM842.74 1008.3C824.46 1015.66 816.6 1036.04 813.3 1054.08C812.06 1072.84 811.14 1092.62 819.58 1110.02C825.36 1123.72 838.02 1136.78 854.02 1135.58C866.62 1136.4 877.34 1127.44 883.58 1117.24C895.72 1097.44 896.98 1072.86 893.02 1050.48C890.14 1036 884.08 1021.02 871.66 1012.18C863.48 1006 852.26 1005.5 842.74 1008.3ZM930.66 1008.02C914.18 1013.9 905.74 1031.16 901.82 1047.12C897.24 1069.04 897.92 1092.98 908.18 1113.28C914.56 1125.98 927.1 1136.24 941.74 1136.64C958.14 1135.04 970.62 1121.86 975.84 1106.9C982.96 1090.88 981.26 1073.04 980.86 1056C978.62 1039.42 972.38 1021.62 958 1011.8C950.24 1006.04 939.7 1005.72 930.66 1008.02ZM984.44 1008.74C984.3 1018.88 984.5 1029.02 984.3 1039.16C987.88 1040.26 991.48 1041.32 995.04 1042.58C994.72 1061.94 994.82 1081.32 995 1100.68C991.48 1101.64 987.96 1102.6 984.44 1103.46C984.48 1113.78 984.26 1124.12 984.58 1134.48C993.06 1134.82 1001.52 1134.04 1010 1133.72C1021.52 1134.58 1033.94 1135.8 1044.64 1130.46C1060.02 1121.36 1067.34 1103.2 1068.92 1086.12C1069.48 1068.3 1070.24 1049.58 1062.48 1033.04C1057.58 1021.22 1047.46 1009.44 1033.82 1008.84C1017.36 1008.56 1000.9 1008.92 984.44 1008.74ZM1080.08 1022.16C1075.22 1032.82 1077 1044.8 1076.76 1056.14C1076.34 1067.04 1080.76 1077.92 1088.22 1085.8C1097.56 1094.8 1111.76 1092.08 1122.82 1097.2C1126.2 1101.58 1125.48 1108.82 1119.7 1110.72C1105.82 1112.2 1097.38 1099.02 1087.4 1091.8C1083.92 1091.04 1080.36 1091.12 1076.86 1090.94C1076.62 1105.38 1076.64 1119.82 1076.84 1134.26C1082.08 1134.44 1087.34 1134.42 1092.6 1134.22C1092.9 1130.72 1093.2 1127.24 1093.5 1123.76C1098.88 1127.68 1103.72 1132.8 1110.2 1134.86C1117.18 1135.82 1125.56 1136.76 1131.14 1131.46C1141.76 1122.36 1145.66 1107.6 1145.2 1094.06C1145.54 1081.7 1144.38 1067.9 1135.9 1058.18C1126.12 1049.04 1111.38 1052.72 1099.82 1048.1C1094.96 1044.58 1097 1038.02 1096.94 1032.98C1101.58 1032.7 1106.34 1031.82 1110.94 1032.96C1117.68 1036 1123 1041.28 1129.04 1045.42C1132.56 1048.28 1137.18 1046.28 1141.14 1045.74C1141.1 1033.44 1141.16 1021.14 1141.12 1008.84C1136.34 1008.78 1131.6 1008.74 1126.84 1008.7C1125.84 1012.06 1124.96 1015.46 1124.16 1018.9C1118.56 1012.44 1111.24 1005.9 1102 1006.84C1092.04 1005.94 1083.56 1013.34 1080.08 1022.16Z" />
		<path id="Layer" class="shp0" d="M207.22 130.86C206.98 122.12 207.02 113.38 207.12 104.66C229.42 104.88 251.74 104.36 274.02 104.88C287.4 105.82 286.72 129.72 273.3 130.54C251.3 131.34 229.24 130.58 207.22 130.86Z" />
		<path id="Layer" class="shp0" d="M207.14 154.88C226.8 154.86 246.44 154.84 266.1 154.84C270.84 155.12 276.4 154.4 280.18 157.92C284.48 161.16 283.12 167.26 283.1 171.92C282.92 177.36 277.12 180.84 272.12 180.7C250.48 180.92 228.82 180.7 207.18 180.8C206.94 172.16 206.94 163.5 207.14 154.88Z" />
		<path id="Layer" fill-rule="evenodd" class="shp0" d="M1082.94 317.24C1091.78 315.6 1101.58 317.2 1108.08 323.88C1123.46 335.94 1119.74 363.98 1101.48 371.38C1084.2 381.5 1059.48 365.66 1060.54 345.94C1059.38 332.58 1070.04 319.8 1082.94 317.24ZM1076.92 324.9C1073.7 338.02 1075.76 351.62 1075.2 364.98C1077.08 364.98 1080.86 365 1082.74 365C1082.76 359.4 1082.78 353.8 1082.88 348.22C1086.12 348.52 1089.36 348.84 1092.62 349.16C1094.44 354.16 1095.72 359.34 1097.9 364.2C1100.26 364.94 1102.72 365.28 1105.18 365.76C1104.16 359.2 1102 352.9 1100.6 346.46C1102.46 340.84 1104.18 335.16 1103.38 329.16C1095.38 324.16 1085.96 324.4 1076.92 324.9Z" />
		<path id="Layer" class="shp0" d="M1083 330.68C1087.16 331.08 1091.22 332.14 1095.32 333C1095.22 336.2 1095.1 339.42 1094.94 342.64C1090.92 342.96 1086.9 343.24 1082.88 343.5C1082.86 339.22 1082.9 334.96 1083 330.68Z" />
		<path id="Layer" class="shp0" d="M236.02 1041.94C238.82 1037.12 247.2 1037 249.78 1042.06C256.36 1053.56 255.24 1067.28 254.98 1080.02C254.08 1089.8 252.5 1101.8 241.92 1105.72C232.4 1099.14 230.7 1086.8 230.9 1076.1C230.96 1064.62 229.8 1052.2 236.02 1041.94Z" />
		<path id="Layer" class="shp0" d="M845.76 1043.5C847.3 1038 853.76 1037.5 858.28 1039.42C866.56 1047.28 864.86 1059.66 865.34 1070C865.36 1082.62 866.16 1098.16 853.98 1105.88C850.2 1103.3 845.9 1100.7 844.74 1095.96C839.38 1079.06 839.62 1060.14 845.76 1043.5Z" />
		<path id="Layer" class="shp0" d="M935.68 1039.7C940.7 1036.56 948.2 1039.1 949.44 1045.26C954.76 1060.62 954 1077.82 950.42 1093.52C949.42 1099.38 945 1103.28 939.96 1105.86C928.76 1098.44 928.6 1084 928.76 1072C929 1061.12 927.94 1048.42 935.68 1039.7Z" />
		<path id="Layer" class="shp0" d="M157.14 1040.82C161.74 1040.76 166.36 1040.78 170.98 1040.94C173.34 1045.92 176.62 1051.74 173.6 1057.2C171.26 1063.94 162.88 1062.7 157.24 1062.94C157.14 1055.56 157.14 1048.18 157.14 1040.82Z" />
		<path id="Layer" class="shp0" d="M1018.88 1040.62C1024.02 1041.16 1030.56 1039.2 1034.26 1043.92C1043.5 1053.66 1040.9 1067.94 1041.18 1080.14C1041.7 1087.6 1038.88 1094.88 1033.9 1100.38C1029 1101.62 1023.88 1101.36 1018.9 1101.56C1018.84 1081.24 1018.88 1060.94 1018.88 1040.62Z" />
		<path id="Layer" class="shp0" d="M321 1040.56C326 1041.5 333.4 1038.76 336.26 1044.28C338.26 1048.5 337.54 1053.54 336.84 1058.04C333.34 1063.34 326.68 1062.88 321.12 1063.22C320.88 1055.66 320.88 1048.1 321 1040.56Z" />
		<path id="Layer" class="shp0" d="M533.82 1064.74C539.88 1075.7 544.06 1087.94 546.46 1100.18C543.82 1104.52 536.02 1104.3 533.52 1099.98C532.88 1088.26 532.86 1076.44 533.82 1064.74Z" />
	</g>
	<g id="#ffffffff">
		<path id="Layer" class="shp1" d="M835.36 64.38C892.96 49.22 954.44 53.7 1010.96 71.38C1016.78 72.84 1022.5 75.9 1028.66 75.14C1031.82 71.88 1034.32 68.04 1037.12 64.44C1066.38 64.38 1095.64 64.34 1124.92 64.44C1124.94 83.22 1125.12 101.98 1124.82 120.74C1091.16 120.78 1057.48 120.7 1023.8 120.8C1020.24 120.86 1016.62 120.64 1013.44 118.88C996.98 111.04 980.44 102.14 961.98 100.22C940.84 97.62 918 98.82 899.08 109.5C884.68 117.28 875.32 133.64 876.48 150.04C876.2 164.3 885.86 176.76 897.36 184.2C911.3 192.48 927.84 195.88 943.96 195.12C965.66 195.96 989.86 191.74 1005.24 175.12C993.18 174.58 981.1 175.06 969.04 174.76C968.92 161.64 968.84 148.5 969.1 135.38C1028.94 135.28 1088.8 135.18 1148.64 135.44C1148.78 148.52 1148.7 161.62 1148.68 174.7C1140.78 174.88 1132.88 174.88 1125 174.9C1124.88 194.08 1125.16 213.26 1124.78 232.44C1101.12 232.38 1077.46 232.42 1053.8 232.42C1050.64 223.76 1048.08 214.86 1044.72 206.26C1013.42 222.04 979 231.36 944.04 233.82C903.4 237.12 861.74 234.96 822.64 222.58C803.88 216.3 785.06 207.54 772.02 192.16C764.24 183.62 759.48 172.7 757.36 161.42C755.64 142.28 755.7 121.3 767.16 104.88C782.6 82.02 809.84 71.5 835.36 64.38Z" />
		<path id="Layer" fill-rule="evenodd" class="shp1" d="M57.06 63.28C144.72 63.36 232.36 63.28 320 63.3C330.62 63.38 341.3 62.72 351.84 64.44C365.5 65.3 380.44 65.7 392 74.02C409.62 87.06 412.12 115.44 397.4 131.54C391.2 138.26 381.78 140.04 373.96 144.08C383.32 147.54 394.9 147.86 401.7 156.2C409.14 165.96 412.92 179.16 410.04 191.26C406.64 205.5 394.12 215.84 380.6 220.12C363.02 225.72 344.38 227.36 326 227.24C236.34 227.2 146.68 227.28 57.02 227.18C56.88 213.28 56.86 199.38 57.04 185.48C69.92 185.56 82.78 185.5 95.66 185.56C95.56 158.66 95.74 131.78 95.58 104.88C82.7 105 69.82 104.96 56.94 104.94C57 91.06 56.84 77.16 57.06 63.28ZM207.22 130.86C229.24 130.58 251.3 131.34 273.3 130.54C286.72 129.72 287.4 105.82 274.02 104.88C251.74 104.36 229.42 104.88 207.12 104.66C207.02 113.38 206.98 122.12 207.22 130.86ZM207.14 154.88C206.94 163.5 206.94 172.16 207.18 180.8C228.82 180.7 250.48 180.92 272.12 180.7C277.12 180.84 282.92 177.36 283.1 171.92C283.12 167.26 284.48 161.16 280.18 157.92C276.4 154.4 270.84 155.12 266.1 154.84C246.44 154.84 226.8 154.86 207.14 154.88Z" />
		<path id="Layer" class="shp1" d="M480.9 63.3C535.92 63.22 590.96 63.3 646 63.26C655.54 63.34 665.28 62.46 674.6 65.06C674.5 77.92 674.46 90.78 674.64 103.62C660.22 106.36 645.42 104.24 630.86 105C630.98 132.16 630.58 159.3 631.06 186.44C645.56 186.76 660.06 186.12 674.56 186.88C674.42 200.12 674.54 213.36 674.48 226.6C609.94 227.12 545.4 226.64 480.86 226.84C480.64 213.44 480.86 200.02 480.68 186.6C494.72 186.1 508.84 187.42 522.8 185.44C522.9 158.66 522.84 131.86 522.82 105.06C508.8 104.86 494.78 105.02 480.76 104.92C480.76 91.04 480.62 77.16 480.9 63.3Z" />
		<path id="Layer" class="shp1" d="M115.26 309.06C353.5 308.78 591.76 309.02 830 308.94C898.26 309.06 966.54 308.68 1034.82 309.12C1034.66 356.96 1034.86 404.8 1034.7 452.64C989.06 452.72 943.42 452.64 897.78 452.7C887.44 452.48 879.2 445.14 869.96 441.4C828.24 421.94 782.84 411.66 737.34 406.04C720.94 404.46 704.52 402.54 688 402.84C608.48 402.94 528.98 402.66 449.46 402.98C449.6 440.64 449.3 478.3 449.62 515.94C459.78 512.56 469.62 508.32 479.72 504.82C542.32 482.92 608.22 471.7 674.14 466.28C688.64 463.68 703.48 465.96 718 463.54C732.04 461.78 745.96 465.14 759.98 464.74C771.26 464.98 782.64 464.46 793.8 466.54C839.82 469.94 885.66 478.22 929.38 493.22C960 504.26 989.7 518.7 1015.4 538.86C1055.76 570.14 1085.52 616.58 1091.14 667.88C1091.78 684.96 1092.3 702.24 1089.18 719.12C1083.72 758.9 1065.16 796.54 1038.02 826.02C994.7 872.94 935.12 900.98 874.98 919.66C810.56 939.58 743.28 949.16 676.14 952.98C648.48 953.2 620.8 953.48 593.16 952.5C579.54 950.1 565.6 952.1 551.98 949.86C463.86 943.1 375.1 927.62 293.84 891.6C238.98 866.96 187.14 832.02 151.18 783.08C135.26 760.8 121.44 736.1 116.3 708.94C216.02 708.56 315.74 708.8 415.46 708.82C426.02 734.72 445.6 756.12 468.54 771.74C500.9 793.36 539.54 803.42 577.92 807.06C600.54 807.58 623.2 807.92 645.82 806.84C680.34 802.46 716.42 792.94 742.28 768.28C761.24 751.1 772.62 726.72 776.6 701.68C777.54 689.84 777.48 677.92 776.82 666.08C773.78 642.56 761.78 619.58 741.96 605.98C712.48 584.78 675.52 578.22 640.08 575.42C621.38 574.62 602.64 574.6 583.94 575.32C527.68 579.52 473.06 601.72 429.34 637.32C421.82 643.38 415.44 650.8 407.58 656.46C403.8 657.22 399.92 656.94 396.1 657C302.46 656.76 208.84 657.18 115.22 656.78C115.22 540.88 115.1 424.96 115.26 309.06Z" />
		<path id="Layer" fill-rule="evenodd" class="shp1" d="M1074.84 312.76C1082.22 309.98 1090.36 310.52 1098.06 311.36C1113.58 314.56 1126.78 329.72 1125.22 346C1126.5 369.04 1100.06 386.3 1079 379.16C1064.16 375.68 1051.96 361.52 1052.64 346.02C1051.26 331.48 1061.8 318.06 1074.84 312.76ZM1082.94 317.24C1070.04 319.8 1059.38 332.58 1060.54 345.94C1059.48 365.66 1084.2 381.5 1101.48 371.38C1119.74 363.98 1123.46 335.94 1108.08 323.88C1101.58 317.2 1091.78 315.6 1082.94 317.24Z" />
		<path id="Layer" fill-rule="evenodd" class="shp1" d="M1076.92 324.9C1085.96 324.4 1095.38 324.16 1103.38 329.16C1104.18 335.16 1102.46 340.84 1100.6 346.46C1102 352.9 1104.16 359.2 1105.18 365.76C1102.72 365.28 1100.26 364.94 1097.9 364.2C1095.72 359.34 1094.44 354.16 1092.62 349.16C1089.36 348.84 1086.12 348.52 1082.88 348.22C1082.78 353.8 1082.76 359.4 1082.74 365C1080.86 365 1077.08 364.98 1075.2 364.98C1075.76 351.62 1073.7 338.02 1076.92 324.9ZM1083 330.68C1082.9 334.96 1082.86 339.22 1082.88 343.5C1086.9 343.24 1090.92 342.96 1094.94 342.64C1095.1 339.42 1095.22 336.2 1095.32 333C1091.22 332.14 1087.16 331.08 1083 330.68Z" />
		<path id="Layer" class="shp1" d="M623.08 1009.6C632.54 1004.1 644.72 1006.76 652.28 1014.3C658.22 1006.42 668.26 1009 676.8 1008.92C676.76 1024.84 676.86 1040.76 676.76 1056.68C669.8 1056.78 662.86 1056.8 655.92 1056.66C653.88 1050.2 652.02 1042.74 645.92 1038.9C640.2 1037.88 633.86 1040.74 631.54 1046.2C625.76 1058.44 626.68 1072.34 627.28 1085.5C628.58 1093 630.52 1101.98 638 1105.74C641.24 1107.98 645.8 1107.22 648.32 1104.24C654.44 1099.3 654.92 1090.92 655.32 1083.68C652.48 1083.42 649.66 1083.16 646.84 1082.92C646.84 1076.86 646.84 1070.78 646.88 1064.74C659.48 1064.6 672.1 1064.56 684.72 1064.82C684.78 1070.52 684.76 1076.24 684.7 1081.96C682.24 1083.18 679.54 1084.08 677.44 1085.9C676.66 1101.7 677.36 1117.58 677.22 1133.42C670.38 1133.52 663.56 1133.52 656.74 1133.48C656.68 1130.3 656.64 1127.14 656.6 1123.98C650.28 1130.94 642.06 1136.74 632.26 1136.56C619.74 1134.66 610.1 1124.44 605.88 1112.92C597.84 1091.5 597.26 1067.6 602.26 1045.4C605.64 1031.94 611.22 1017.76 623.08 1009.6Z" />
		<path id="Layer" class="shp1" d="M65.42 1009.06C76.94 1003.24 90.66 1008.7 98.46 1018.12C99.44 1014.96 100.44 1011.84 101.4 1008.72C106.5 1008.74 111.62 1008.8 116.72 1008.92C116.58 1021.58 116.74 1034.24 116.62 1046.9C112.82 1046.78 108.98 1047 105.2 1046.38C99.18 1043.22 94.62 1037.88 88.58 1034.74C83.86 1031.54 77.92 1032.62 72.58 1032.62C71.66 1036.48 71.06 1040.42 70.66 1044.4C80.14 1048.08 90.12 1050.1 99.96 1052.58C105.46 1053.82 110.72 1057 113.28 1062.2C120.78 1075.3 120.3 1090.98 118.94 1105.54C116.66 1117.16 111.58 1130.56 99.46 1134.96C88.36 1139.8 76.54 1132.16 69.58 1123.72C68.66 1126.94 67.7 1130.16 66.78 1133.42C61.54 1133.46 56.3 1133.48 51.08 1133.52C51.12 1119.36 50.96 1105.18 51.16 1091.04C54.68 1091.14 58.22 1091.08 61.72 1091.6C70.18 1096.72 75.64 1105.92 85.06 1109.64C89.64 1112.32 94.72 1109.74 99.32 1108.58C99.12 1105.08 99.1 1101.58 98.52 1098.16C89.1 1090.66 75.24 1094.04 65.62 1086.64C54.02 1077.74 49.92 1062.06 51 1048C50.36 1034.04 52.78 1017.3 65.42 1009.06Z" />
		<path id="Layer" fill-rule="evenodd" class="shp1" d="M123.14 1008.76C141.84 1008.94 160.56 1008.2 179.22 1009.1C192.02 1012.18 198.8 1025.72 199.92 1037.94C203.14 1051.38 199.44 1066.04 189.96 1076.1C181.18 1084.42 168.08 1080.1 157.26 1081.22C157.1 1088.36 157.06 1095.52 157.2 1102.7C160.62 1102.78 164.06 1102.86 167.5 1102.96C167.66 1113.48 167.82 1124 167.42 1134.54C152.6 1134.18 137.72 1135.3 122.98 1133.26C123.1 1123.38 123.06 1113.52 123.08 1103.66C126.48 1102.84 129.86 1101.96 133.2 1101.02C133.06 1081.08 133.12 1061.16 133.18 1041.22C129.78 1040.72 126.38 1040.2 123 1039.62C123.1 1029.32 123.04 1019.04 123.14 1008.76ZM157.14 1040.82C157.14 1048.18 157.14 1055.56 157.24 1062.94C162.88 1062.7 171.26 1063.94 173.6 1057.2C176.62 1051.74 173.34 1045.92 170.98 1040.94C166.36 1040.78 161.74 1040.76 157.14 1040.82Z" />
		<path id="Layer" fill-rule="evenodd" class="shp1" d="M232.68 1008.1C243.62 1004.82 256.38 1006.94 264.7 1015.14C276.7 1026.62 281.92 1043.52 283.4 1059.72C286.18 1073.02 283.72 1086.7 280.5 1099.7C276.46 1114.06 267.68 1128.52 253.3 1134.32C243.52 1136.6 232.16 1136.36 224.02 1129.74C209.64 1118.64 202.66 1099.84 202.54 1082.06C202.3 1064.92 201.26 1046.82 209.56 1031.16C214.16 1021.1 221.96 1011.82 232.68 1008.1ZM236.02 1041.94C229.8 1052.2 230.96 1064.62 230.9 1076.1C230.7 1086.8 232.4 1099.14 241.92 1105.72C252.5 1101.8 254.08 1089.8 254.98 1080.02C255.24 1067.28 256.36 1053.56 249.78 1042.06C247.2 1037 238.82 1037.12 236.02 1041.94Z" />
		<path id="Layer" fill-rule="evenodd" class="shp1" d="M285.2 1008.9C302.16 1008.52 319.14 1008.76 336.12 1008.68C348.94 1007.64 359.86 1018.74 362.12 1030.78C364.32 1046.2 364.56 1064.48 352.38 1076.1C357.3 1086.46 358.12 1098.02 361.14 1108.94C363.5 1103.68 365.8 1098.26 370.4 1094.52C374.28 1106.16 374.36 1120.32 366.9 1130.6C362.22 1137.12 353.08 1135.86 346.2 1134.62C336.62 1130.58 335.48 1118.84 333.98 1109.9C332 1101.2 334.56 1091.76 330.82 1083.46C328.28 1082.1 325.68 1080.86 323.04 1079.74C320.04 1086.46 321.04 1093.92 320.88 1101.08C323.62 1101.12 326.36 1101.18 329.12 1101.26C330.52 1111.92 331.12 1122.72 329.8 1133.44C314.88 1132.6 299.92 1136.18 285.14 1133.08C285.26 1122.52 285.14 1111.98 285.28 1101.44C289.06 1101.28 292.86 1101.12 296.66 1100.96C296.76 1081.12 296.58 1061.32 296.78 1041.5C292.9 1040.7 289.02 1039.82 285.16 1038.94C285.32 1028.94 285.26 1018.92 285.2 1008.9ZM321 1040.56C320.88 1048.1 320.88 1055.66 321.12 1063.22C326.68 1062.88 333.34 1063.34 336.84 1058.04C337.54 1053.54 338.26 1048.5 336.26 1044.28C333.4 1038.76 326 1041.5 321 1040.56Z" />
		<path id="Layer" class="shp1" d="M367.22 1008.86C394.4 1008.6 421.6 1008.66 448.78 1008.86C448.84 1027.56 448.78 1046.28 448.8 1065.02C442.34 1065.44 435.88 1065.52 429.44 1064.76C429.52 1056.28 429.5 1047.8 429.3 1039.32C427.18 1039.24 422.96 1039.08 420.86 1039C419.02 1060.16 418.88 1081.58 420.74 1102.74C424.12 1102.86 427.48 1103.04 430.86 1103.26C430.84 1113.64 430.94 1124.04 430.78 1134.46C415.6 1134.46 400.42 1134.54 385.24 1134.48C385.14 1124.14 385.18 1113.82 385.18 1103.48C388.68 1102.92 392.16 1102.3 395.62 1101.54C395.66 1081.18 395.7 1060.8 395.58 1040.44C393.34 1040.44 388.82 1040.46 386.56 1040.48C386.54 1049.12 386.54 1057.76 386.38 1066.4C380.54 1066.46 374.7 1066.48 368.86 1066.58C367.86 1062.52 367.06 1058.38 367.16 1054.2C367.16 1039.08 367.26 1023.98 367.22 1008.86Z" />
		<path id="Layer" class="shp1" d="M455.32 1008.82C471.16 1008.68 486.98 1008.58 502.82 1008.9C502.86 1019.44 502.92 1029.96 502.72 1040.5C498.9 1040.62 495.08 1040.76 491.26 1040.92C491.2 1060.92 491.24 1080.94 491.24 1100.96C495.08 1101.92 498.94 1102.84 502.86 1103.58C502.76 1113.5 502.74 1123.42 502.94 1133.34C486.98 1132.48 471 1136.16 455.18 1133.34C455.22 1123.24 455.26 1113.16 455.18 1103.08C458.5 1102.94 461.84 1102.82 465.2 1102.74C465.76 1082.3 465.34 1061.86 465.5 1041.44C462.26 1040.74 459.02 1040.1 455.88 1039.08C454.34 1029.08 455.58 1018.88 455.32 1008.82Z" />
		<path id="Layer" fill-rule="evenodd" class="shp1" d="M508.86 1008.76C523.92 1008.8 539.02 1008.34 554.08 1009.1C559.48 1033.26 569.18 1056.24 574.66 1080.4C576.14 1067.46 575.36 1054.44 575.76 1041.48C572.64 1040.72 569.54 1039.92 566.44 1039.12C566.6 1028.98 566.48 1018.86 566.6 1008.74C576.84 1008.84 587.1 1008.78 597.34 1008.72C597.54 1018.84 597.42 1028.94 597.52 1039.06C594.72 1039.9 591.9 1040.76 589.1 1041.58C589.2 1072.18 589.06 1102.8 589.18 1133.4C578.98 1133.58 568.78 1133.52 558.58 1133.48C554.8 1123.98 552.54 1113.92 548.32 1104.6C545.96 1104.06 544.26 1106.9 544.76 1109.02C544.68 1117.1 544.82 1125.22 544.82 1133.32C532.84 1133.62 520.84 1133.46 508.86 1133.46C508.78 1123.54 508.82 1113.62 508.84 1103.7C512.3 1102.86 515.74 1101.96 519.18 1101C518.94 1080.94 519.2 1060.9 519.04 1040.86C515.64 1040.74 512.26 1040.64 508.88 1040.54C508.78 1029.94 508.86 1019.36 508.86 1008.76ZM533.82 1064.74C532.86 1076.44 532.88 1088.26 533.52 1099.98C536.02 1104.3 543.82 1104.52 546.46 1100.18C544.06 1087.94 539.88 1075.7 533.82 1064.74Z" />
		<path id="Layer" class="shp1" d="M731.52 1025.36C736.76 1015.64 745.82 1005.3 758.04 1006.84C766.22 1006 771.52 1012.94 776.4 1018.34C777.22 1015.08 778.08 1011.84 778.98 1008.62C785.54 1008.74 792.12 1008.76 798.72 1008.88C798.76 1024 798.98 1039.14 798.74 1054.28C793.58 1059.14 785.48 1055.78 779.06 1056.84C776.42 1051.48 774.56 1045.56 770.58 1041C765.2 1036.08 756.04 1039.98 753.52 1046.2C747.82 1057.94 748.62 1071.44 749.22 1084.14C750.1 1092.42 752.52 1102.26 760.92 1105.98C765.68 1109.14 770.52 1104.6 773.3 1100.96C776.16 1096.32 776.54 1090.7 777.54 1085.5C774.6 1084.46 771.64 1083.52 768.78 1082.36C766.58 1076.66 768 1070.48 768.52 1064.62C781.34 1064.72 794.16 1064.58 806.98 1064.72C807.04 1070.64 807.06 1076.58 807.02 1082.54C804.38 1083.48 801.76 1084.46 799.14 1085.44C799.26 1101.44 799.18 1117.44 799.26 1133.44C792.42 1133.54 785.58 1133.52 778.74 1133.34C778.8 1129.86 778.86 1126.42 778.98 1122.96C774.42 1127.94 769.8 1134.04 762.66 1135.06C754.88 1136.06 745.78 1136.2 739.9 1130.14C726.62 1118.74 723.38 1100.44 721.3 1083.98C720.14 1064.08 722.28 1043.28 731.52 1025.36Z" />
		<path id="Layer" fill-rule="evenodd" class="shp1" d="M842.74 1008.3C852.26 1005.5 863.48 1006 871.66 1012.18C884.08 1021.02 890.14 1036 893.02 1050.48C896.98 1072.86 895.72 1097.44 883.58 1117.24C877.34 1127.44 866.62 1136.4 854.02 1135.58C838.02 1136.78 825.36 1123.72 819.58 1110.02C811.14 1092.62 812.06 1072.84 813.3 1054.08C816.6 1036.04 824.46 1015.66 842.74 1008.3ZM845.76 1043.5C839.62 1060.14 839.38 1079.06 844.74 1095.96C845.9 1100.7 850.2 1103.3 853.98 1105.88C866.16 1098.16 865.36 1082.62 865.34 1070C864.86 1059.66 866.56 1047.28 858.28 1039.42C853.76 1037.5 847.3 1038 845.76 1043.5Z" />
		<path id="Layer" fill-rule="evenodd" class="shp1" d="M930.66 1008.02C939.7 1005.72 950.24 1006.04 958 1011.8C972.38 1021.62 978.62 1039.42 980.86 1056C981.26 1073.04 982.96 1090.88 975.84 1106.9C970.62 1121.86 958.14 1135.04 941.74 1136.64C927.1 1136.24 914.56 1125.98 908.18 1113.28C897.92 1092.98 897.24 1069.04 901.82 1047.12C905.74 1031.16 914.18 1013.9 930.66 1008.02ZM935.68 1039.7C927.94 1048.42 929 1061.12 928.76 1072C928.6 1084 928.76 1098.44 939.96 1105.86C945 1103.28 949.42 1099.38 950.42 1093.52C954 1077.82 954.76 1060.62 949.44 1045.26C948.2 1039.1 940.7 1036.56 935.68 1039.7Z" />
		<path id="Layer" fill-rule="evenodd" class="shp1" d="M984.44 1008.74C1000.9 1008.92 1017.36 1008.56 1033.82 1008.84C1047.46 1009.44 1057.58 1021.22 1062.48 1033.04C1070.24 1049.58 1069.48 1068.3 1068.92 1086.12C1067.34 1103.2 1060.02 1121.36 1044.64 1130.46C1033.94 1135.8 1021.52 1134.58 1010 1133.72C1001.52 1134.04 993.06 1134.82 984.58 1134.48C984.26 1124.12 984.48 1113.78 984.44 1103.46C987.96 1102.6 991.48 1101.64 995 1100.68C994.82 1081.32 994.72 1061.94 995.04 1042.58C991.48 1041.32 987.88 1040.26 984.3 1039.16C984.5 1029.02 984.3 1018.88 984.44 1008.74ZM1018.88 1040.62C1018.88 1060.94 1018.84 1081.24 1018.9 1101.56C1023.88 1101.36 1029 1101.62 1033.9 1100.38C1038.88 1094.88 1041.7 1087.6 1041.18 1080.14C1040.9 1067.94 1043.5 1053.66 1034.26 1043.92C1030.56 1039.2 1024.02 1041.16 1018.88 1040.62Z" />
		<path id="Layer" class="shp1" d="M1080.08 1022.16C1083.56 1013.34 1092.04 1005.94 1102 1006.84C1111.24 1005.9 1118.56 1012.44 1124.16 1018.9C1124.96 1015.46 1125.84 1012.06 1126.84 1008.7C1131.6 1008.74 1136.34 1008.78 1141.12 1008.84C1141.16 1021.14 1141.1 1033.44 1141.14 1045.74C1137.18 1046.28 1132.56 1048.28 1129.04 1045.42C1123 1041.28 1117.68 1036 1110.94 1032.96C1106.34 1031.82 1101.58 1032.7 1096.94 1032.98C1097 1038.02 1094.96 1044.58 1099.82 1048.1C1111.38 1052.72 1126.12 1049.04 1135.9 1058.18C1144.38 1067.9 1145.54 1081.7 1145.2 1094.06C1145.66 1107.6 1141.76 1122.36 1131.14 1131.46C1125.56 1136.76 1117.18 1135.82 1110.2 1134.86C1103.72 1132.8 1098.88 1127.68 1093.5 1123.76C1093.2 1127.24 1092.9 1130.72 1092.6 1134.22C1087.34 1134.42 1082.08 1134.44 1076.84 1134.26C1076.64 1119.82 1076.62 1105.38 1076.86 1090.94C1080.36 1091.12 1083.92 1091.04 1087.4 1091.8C1097.38 1099.02 1105.82 1112.2 1119.7 1110.72C1125.48 1108.82 1126.2 1101.58 1122.82 1097.2C1111.76 1092.08 1097.56 1094.8 1088.22 1085.8C1080.76 1077.92 1076.34 1067.04 1076.76 1056.14C1077 1044.8 1075.22 1032.82 1080.08 1022.16Z" />
	</g>
</svg>