<svg version="1.2" xmlns="http://www.w3.org/2000/svg" viewBox="0 0 1500 1478" width="1500" height="1478">
	<title>Benson-Hill-LG-NoTag-RGB-svg</title>
	<style>
		.s0 { fill: #1a81c6 } 
		.s1 { fill: #33cc33 } 
		.s2 { fill: #efc71a } 
	</style>
	<g id="Layer_2">
		<g id="Layer_1-2">
			<g id="Benson-Hill-Tagline-Color">
				<g id="Benson_Hill_Logo">
					<g id="Logo">
						<path id="Sky" class="s0" d="m1026.8 53.3c88.2 34.9 168.9 86.2 237.9 151 69.1 64.8 125.2 142.1 165.5 227.7 40.2 85.6 63.9 178 69.7 272.4h-188.6c-11.8-140.3-76-271.2-180-366.5-104-95.4-240.1-148.3-381.4-148.3-141.3 0-277.5 52.9-381.5 148.3-104 95.3-168.2 226.2-179.9 366.5h-188.1c5.8-94.3 29.4-186.7 69.6-272.3 40.2-85.7 96.2-162.9 165.2-227.7 69-64.9 149.7-116.1 237.8-151.1 88.1-34.9 182-53 276.9-53.1 94.8 0.1 188.8 18.2 276.9 53.1z"/>
						<path id="Grass" class="s1" d="m1496.7 798.4c-17.4 185.8-103.8 358.4-242.1 484.1-138.4 125.6-318.9 195.3-506 195.3-187.2 0-367.7-69.7-506-195.3-138.4-125.7-224.8-298.3-242.2-484.1h188.1c11.7 140.4 75.9 271.2 179.9 366.6 104 95.4 240.2 148.3 381.5 148.3 141.3 0 277.4-52.9 381.4-148.3 104-95.4 168.2-226.2 180-366.6z"/>
						<path id="Sun" class="s2" d="m1119.7 1056.4c-78.9 99.3-194.7 162.6-321.2 175.3-126.4 12.7-252.7-26.2-349.9-107.8-97.2-81.6-157-199.1-165.8-325.5q-1.3-11.7-2-23.4-0.6-11.8-0.6-23.6 0-11.8 0.6-23.5 0.7-11.8 2-23.5c10.6-116.1 64.5-224.1 150.9-302.7 86.4-78.6 199.2-122.2 316.2-122.2 116.9 0 229.7 43.6 316.1 122.2 86.5 78.6 140.3 186.6 150.9 302.7 16.7 125.6-18.4 252.6-97.2 352z"/>
					</g>
				</g>
			</g>
		</g>
	</g>
</svg>