<svg version="1.2" xmlns="http://www.w3.org/2000/svg" viewBox="0 0 1576 294" width="1576" height="294">
	<title>Biohaven-Full-Color-rgb_v2-svg</title>
	<style>
		.s0 { fill: #58bd2b } 
		.s1 { fill: #002a61 } 
	</style>
	<path id="Layer" fill-rule="evenodd" class="s0" d="m0 22.5c0-12.1 10-22.5 22.5-22.5 12.5 0 22.9 10.4 22.9 22.5v78.3c15.4-10.8 35.4-17.5 55.8-17.5 56.3 0 101.2 47.6 101.2 104.6 0 57.1-45 103.8-101.2 103.8-20.8 0-40.8-7.1-56.6-17.9-2.1 10-10.9 17.9-22.1 17.9-12.5 0-22.5-10.4-22.5-22.5zm45.4 165.5c0 15.8 6.3 30.8 16.7 41.2 10.4 10.9 23.7 17.1 39.1 17.1 15.5 0 28.8-6.2 39.2-17.1 10.4-10.4 16.7-25.4 16.7-41.2 0-16.7-6.3-31.7-16.7-42.1-10.4-10.9-24.2-17.1-39.2-17.1-15 0-28.7 6.2-39.1 17.1-10.4 10.4-16.7 25.4-16.7 42.1z"/>
	<path id="Layer" class="s0" d="m278.3 106.7v162.5c0 12.5-9.6 22.5-22.5 22.5-13 0-22.5-10-22.5-22.5v-162.5c0-13.4 10-22.9 22.5-22.9 12.5 0 22.5 9.5 22.5 22.9z"/>
	<path id="Layer" fill-rule="evenodd" class="s0" d="m337.8 261.4c-17.9-18.4-28.7-44.2-28.7-73.4 0-29.2 10.8-53 28.7-73 18.7-19.6 42.9-31.7 71.7-31.7 28.7 0 52.5 12.1 69.5 31.7 18.8 20 29.2 44.6 29.2 73 0 28.3-10.4 55-29.2 73.4-17 19.5-42 31.6-69.5 31.6-27.5 0-53-12.1-71.7-31.6zm16.7-73.4c0 17.9 5.4 32.5 15 44.2 10.4 10 24.1 15.4 40 15.4 14.5 0 27.9-5.4 38.3-15.4 10.4-11.7 16.2-26.3 16.2-44.2 0-17.9-5.8-32.1-16.2-43.4-10.4-9.1-23.8-15.8-38.3-15.8-15.9 0-29.6 6.7-40 15.8-9.6 11.3-15 26.3-15 43.4z"/>
	<path id="Layer" class="s1" d="m585.2 268.9c0 12.9-10.4 22.9-23.3 22.9-10.4 0-19.2-7.5-22.1-17.1-0.4-1.7-0.8-3.8-0.8-5.8v-246c0-12.9 10.4-22.9 22.9-22.9 12.5 0 23.3 10 23.3 22.9v72.6c13.4-7.1 28.4-12.1 44.6-12.1 50.4 0 90.8 41.3 90.8 91.3v94.2c0 12.9-10 22.9-22.9 22.9-12.9 0-22.9-10-22.9-22.9v-94.2c0-24.6-20-44.6-45-45-24.6 0.4-44.2 20.4-44.6 45v94.2z"/>
	<path id="Layer" fill-rule="evenodd" class="s1" d="m949.6 269.7c0 12-9.9 22-22 22-10.9 0-19.2-7.9-21.7-17.9-15.8 11.3-34.6 17.9-55.4 17.9-28.3 0-52.9-11.6-70.8-30.4-17.9-19.2-28.4-45-28.4-73.4 0-28.3 10.5-54.6 28.4-73.3 17.9-19.2 42.5-31.3 70.8-31.3 20.8 0 39.6 7.1 55.4 18.3 2.5-10.4 10.8-18.3 21.7-18.3 12.1 0 22 10 22 22.5zm-44.1-81.7c0-17.5-6.3-32.5-16.3-42.9-10-11.3-24.1-17.1-38.7-17.1-14.6 0-29.2 5.8-38.8 17.1-10 10.4-15.8 25.4-15.8 42.9 0 17.5 5.8 32.1 15.8 43 9.6 10.4 23.8 16.2 38.8 16.2 15 0 28.7-5.8 38.7-16.2 10-10.9 16.3-25.9 16.3-43z"/>
	<path id="Layer" class="s1" d="m1154.9 114.2l-68.3 161.7c-0.5 1.3-1.3 2.5-1.7 2.9 0 0.4-0.4 0.4-0.4 0.4-0.9 0.9-1.7 2.1-2.5 3 0 0.4-0.4 0.4-0.4 0.4-0.9 1.2-1.7 1.6-2.5 2.5 0 0-0.5 0-0.5 0.4-0.8 0.8-1.6 1.7-2.9 2.1h-0.8v0.4c-1.3 0-2.5 0.4-3.3 0.8h-0.9c-1.6 0.4-2.9 0.4-4.1 0.4-0.9 0-2.1 0-3.8-0.4h-0.8c-1.3-0.4-2.1-0.8-3.4-0.8v-0.4h-0.8c-1.2-0.4-2.1-1.3-3.7-2.1 0-0.4-0.5-0.4-0.5-0.4-0.8-0.9-1.6-1.3-2.5-2.5q-0.4 0-0.8-0.4c-0.4-0.9-1.2-2.1-2.1-3q-0.4 0-0.4-0.4c-0.8-0.4-1.2-1.6-1.7-2.9l-67.5-161.7c-5-11.3 0.5-23.4 12.1-28.4 10-5 22.9 0.9 27.9 12.1l48 113.4 48.3-113.4c4.6-11.2 17.1-17.1 27.9-12.1 11.7 5 17.1 17.1 12.1 28.4z"/>
	<path id="Layer" fill-rule="evenodd" class="s1" d="m1168.8 185.1c0.5-56.7 44.6-104.2 101.6-104.2 57.1 0 97.1 40.4 100.4 96.7v2.1c0 0.8 0 2.9-0.4 3.7-1.3 10-10 16.7-21.7 16.7h-132.4c2.1 9.6 6.7 20.4 14.2 27.5 8.7 10 25.4 17.5 39.9 18.8 15 1.2 33-2.5 43.4-10.4 8.7-9.2 25.8-8 31.2-1.3 5.4 5.9 9.6 18.4 0 27.1-20.4 18.8-45 27.5-74.6 27.5-57-0.4-101.1-47.5-101.6-104.2zm45.4-20.4h117.9c-4.2-16.7-25.4-41.3-61.7-44.2-35.4 1.7-52.9 27.1-56.2 44.2z"/>
	<path id="Layer" class="s1" d="m1575.3 167.6v99.6c0 12-9.5 22-21.6 22-12.1 0-22.1-10-22.1-22v-99.6c0-23.4-19.6-42.2-43.3-42.2-23.8 0-41.7 18.8-41.7 42.2v99.6c0 1.2 0 2.5-0.8 4.1-2.1 10-11.3 17.9-22.1 17.9-12.5 0-22.1-10-22.1-22v-164.3c0-12.1 9.6-22.1 22.1-22.1 8.7 0 16.6 5 20.4 13 12.5-8 27.9-13 44.2-13 48.3 0 87 39.6 87 86.7z"/>
	<path id="Layer" class="s1" d="m255.8 64.4c-12.5 0-22.5-10.1-22.5-22.5 0-12.5 10-22.6 22.5-22.6 12.4 0 22.5 10.1 22.5 22.6 0 12.4-10.1 22.5-22.5 22.5z"/>
</svg>