<svg version="1.2" baseProfile="tiny-ps" xmlns="http://www.w3.org/2000/svg" viewBox="0 0 943 1532" width="943" height="1532">
	<title>favicon-svg</title>
	<style>
		tspan { white-space:pre }
		.shp0 { fill: #231f20 } 
	</style>
	<g id="#231f20ff">
		<path id="Layer" class="shp0" d="M606.94 37.52C680.5 -12.09 779.96 -8.91 856.69 31.41C841.05 71.24 825.41 111.08 810.02 150.91C735.48 160.19 656.3 215.18 680.01 300.47C742.81 544.84 944.91 744.98 941.49 1008.91C957.86 1238.38 808.3 1479.33 574.19 1523.56C510.17 1550.93 422.93 1500.35 439.79 1425.81C442.72 1352.99 526.78 1350.06 578.59 1330.26C717.64 1283.1 774.34 1120.1 760.9 984.72C739.88 806.57 628.69 659.21 554.64 500.61C431.23 808.52 305.14 1115.21 177.57 1421.41C158.51 1481.77 71.76 1503.77 27.77 1457.34C-9.37 1426.3 -4 1370.83 15.8 1331.97C159.73 978.12 302.2 623.53 444.92 269.19C481.09 181.94 525.32 90.79 606.94 37.52Z" />
	</g>
</svg>