<svg version="1.2" xmlns="http://www.w3.org/2000/svg" viewBox="0 0 1564 245" width="1564" height="245">
	<title>Buckle_Logo_2-svg</title>
	<style>
		.s0 { fill: #101820 } 
	</style>
	<g id="Layer">
		<path id="Layer" fill-rule="evenodd" class="s0" d="m838.2 20.4h76.7v199.9h-76.7zm-127.8 0v104.3l30.3-43.4h76.7l-42.2 60 53.7 79.1h-86.1l-32.4-52.8v52.8h-76.3v-200zm340.9 159.6h67.3c-2.1 23.4-14.9 45.5-93.3 45.5-71.1 0-99.7-21.7-99.7-74 0-54.1 30.3-75.7 97.6-75.7 57.9 0 97.6 16.5 97.6 78.2v7.7h-120.2v11.9c0 13.6 11.5 24.7 26 24.7 11.9 0 22.2-8.1 24.7-18.3zm-50.7-45.1h51.6c0.4-1.7 0.4-3.4 0.4-5.1 0-13.6-11.5-24.7-26-24.7-14.1 0-26 10.6-26 24.7zm-677 57.8c14 0 26-10.6 26-24.6v-86.8h71.1v82.9c0 57.5-45.6 61.3-97.1 61.3-51.6 0-97.2-3.8-97.2-61.3v-82.9h71.6v86.3c0 14.1 11.5 25.1 25.6 25.1zm-147 24.7c-9 1.7-20.9 2.6-37.5 2.6h-138.5v-199.6h157.6c29.4 0 53.3 22.6 53.3 50.7 0 21.2-13.6 39.1-32.8 46.8 21.7 4.6 38.8 21.7 41.3 43.8 3.4 26.8-15.7 51-43.4 55.7zm-28.6-57c0-13.6-11.5-24.7-26-24.7h-47.7v49.4h47.7c14.5 0 26-10.7 26-24.7zm0-82.5c0-13.6-11.5-24.7-26-24.7h-47.7v49.8h47.7c14.5 0 26-11.5 26-25.1zm407.8 87.2v-1.3h68.2c0 21.3-10.7 36.6-28.6 46-17.9 10.2-37.1 14.4-69.9 14.4-64.7 0-96.3-20.8-96.3-74.9 0-52.3 26.4-74.4 103.1-74.4 52.5 0 90.8 12.3 90.8 60h-66.9v-5.5c-0.8-13.2-11.9-23.4-26-23.4-11.5 0-21.3 7.2-24.7 17-2.1 4.6-3.4 14.4-3.4 25.5 0 9.4 0.8 18.3 2.5 23.4 2.6 11.5 12.8 20 25.6 20 13.6 0 25.2-10.2 26-23.4v-3.4z"/>
		<path id="Layer" fill-rule="evenodd" class="s0" d="m1560.9 169.3c-5.6 40-38.4 68.9-77.6 72.3-64.3 3.8-138.9 3.8-203.2 0-38.8-3.4-72-32.3-77.6-72.3-3.8-37.4-3.8-55.7 0-93.2 5.6-40 38.4-68.9 77.6-72.3 64.3-3.8 138.9-3.8 203.2 0 38.8 3.4 72 32.3 77.6 72.3 3.4 37 3.4 56.2 0 93.2zm-166.2-5.5c-0.4-16.2-13.6-29.8-30.7-29.8h-113.7v40.4c0 11.5 8.9 20.8 20.8 20.8h92.5c17.5 0 32-14.4 31.1-31.4zm0.4-83.4c-0.4-16.2-13.6-29.8-30.6-29.8h-92.9c-11.5 0-20.9 8.9-20.9 20.8v40.5h112.9c17.5 0 32-14.5 31.5-31.5z"/>
	</g>
</svg>