<svg version="1.2" xmlns="http://www.w3.org/2000/svg" viewBox="0 0 1550 575" width="1550" height="575">
	<title>Bakkt Logo-svg</title>
	<style>
		.s0 { fill: #000000 } 
	</style>
	<g id="#000000ff">
		<path id="Layer" fill-rule="evenodd" class="s0" d="m89 0h0.2q89.9 61.5 179.7 122.9c15 10.2 24.6 27.6 25.2 45.7 1.1 21.2-10.3 42.5-28.8 53-11.3 6.4-22.8 12.4-34.2 18.7 30.7 20.4 61.4 40.8 92.1 61.3 13.7 9 23.3 24.2 25.4 40.5 2.7 18.4-3.9 38-17.5 50.8-6.5 6.4-14.8 10.2-22.7 14.5-102.8 55.7-205.7 111.1-308.4 166.9v-270.8c41.6-22.8 83.3-45.3 125-68-12-7.9-24-15.9-35.9-23.9 0-70.5 0-141.1-0.1-211.6zm55 103.9q0.1 39.2 0 78.3c11.8 8 23.6 15.8 35.5 23.7 19.1-10.4 38.3-20.8 57.4-31.2 2.8-1 3.3-5.3 0.6-6.8-31.1-21.4-62.4-42.6-93.5-64zm-89.1 232.1q0 73.1 0 146.1c79.1-42.7 158.2-85.5 237.2-128.3 2.8-1.1 3.1-5.4 0.3-6.7-38.5-25.8-77.2-51.4-115.8-77.2-40.6 22.1-81.2 44-121.7 66.1z"/>
		<path id="Layer" fill-rule="evenodd" class="s0" d="m456.4 149.4q62 0 123.9 0c21.5 0.5 44.2 4.7 61.5 18.5 13.4 10.5 21 27.2 22.1 44.1 1 16-0.6 33-9.1 47-5.7 9.5-15.2 16.3-25.9 19 0 0.7 0 2.1 0 2.7 16.6 4 32.5 13.7 41 28.9 9 16.1 10.3 35.7 6.7 53.6-3.8 18.5-15.9 34.8-32.2 44.2-12.3 7.4-26.4 11.4-40.6 13-9.9 1.3-19.8 0.8-29.7 0.9q-58.8 0-117.7 0c0-90.6 0.1-181.2 0-271.9zm57.2 47.2c0 21.2-0.1 42.5 0 63.7q26.6 0 53.1 0c9.9-0.1 20.3-0.8 29.1-5.8 6.9-3.9 11.5-11.1 12.7-18.9 1.6-10.1 0.3-21.9-7.5-29.4-7.8-7.4-19.1-9.3-29.4-9.6-19.3-0.1-38.7 0-58 0zm0 110.6q0 33.6 0 67.1c19.3 0 38.7 0 58 0 11.7 0 23.9 0.1 34.5-5.3 7.6-3.7 13.3-11.1 14.9-19.4 2.1-11.2 0.6-24.5-8.3-32.5-9.1-8.1-21.9-9.6-33.6-9.8-21.9-0.1-43.7 0-65.5-0.1zm393-157.9c15.1 10.3 30.1 20.6 45.2 30.9 6.3 4.2 10.4 11.6 10.3 19.3 0.1 32.3 0 64.6 0.1 97 3.2 0.4 5.1-2.4 7.3-4.3q36.2-34.3 72.5-68.7 32.1 0 64.1 0c-31.9 31.4-63.7 62.8-95.5 94.2 32.1 34.5 63.9 69.1 95.9 103.6-22-0.1-43.9 0-65.9 0q-37-38.7-73.9-77.5c-1-1.6-2.9-1.5-4.5-1.7-0.1 26.4-0.1 52.8-0.1 79.2q-27.7 0-55.5 0c0-90.7 0.1-181.3 0-272zm212.2 0c15.1 10.3 30.1 20.6 45.1 30.9 6.4 4.2 10.6 11.6 10.5 19.3 0.1 32.3 0 64.7 0.1 97 1.6-0.1 3.4-0.4 4.5-1.8q37.6-35.6 75.3-71.1c29.2-0.1 58.5 0 87.8-0.1-0.1-24.7 0-49.5 0-74.2 14.2 9.8 28.5 19.6 42.8 29.3 7.1 4.1 12.4 11.4 12.7 19.7 0.3 8.4 0.1 16.8 0.1 25.2q26.5 0 53 0c0 14 0 28.1 0.1 42.1q-26.6 0-53 0c-0.1 35.9 0 71.7-0.1 107.6q1.4 1.6 2.9 3.1c16.7 0.1 33.4 0 50.2 0.1-0.1 14.9-0.1 29.9-0.1 44.9-18.1-0.1-36.3 0-54.5-0.1-14.9-0.3-30.5-4.9-41-16-9.4-9.8-13.1-23.8-13.1-37.1-0.1-34.2 0-68.3 0-102.5-21.2 0-42.4 0-63.5 0-18.7 17.2-37.1 34.7-55.7 52.1 32 34.5 63.9 69 95.9 103.6-22-0.1-44 0-66 0q-37.6-39.5-75.3-78.9c-0.7-0.1-2.3-0.2-3-0.2-0.1 26.4 0 52.7-0.1 79.1q-27.8 0-55.6 0 0.1-136 0-272zm-393 89c19.6-15 45-19.3 69-19.3 22.5 0.2 46.5 4.3 64.1 19.3 16.2 13.5 23 35 23.2 55.4 0.1 42.5 0 85.1 0.1 127.6-11-0.1-21.9 0.1-32.9-0.1-10.5-0.5-18.6-10.3-18.8-20.5q-2.5-0.1-3.7 1.9c-9.2 13.1-25.4 18.7-40.5 20.9-21.3 2.7-44 1.6-63.5-8.2-14-7-25.3-19.9-29.1-35.3-4.2-17.1-1.9-36.5 9-50.7 8.9-11.7 22.5-18.9 36.3-23.1 12.9-4 26.5-5 39.8-6.7 16.7-2.1 33.4-4.1 50.1-6.3 0.2-8.8-0.7-18.5-7-25.2-7.2-7.6-18.4-9.1-28.3-9.2-10.8 0-22.5 1.7-31 9-5.2 4.6-7.9 11.5-8.7 18.3-17.2 0-34.4 0-51.6 0-0.3-18.5 8.7-36.7 23.5-47.8zm58.1 98.2c-10.4 1.3-21.7 2.2-30 9.2-9.1 7.6-8.8 23.3 0.2 30.8 8.8 7.4 21 8.1 32 7.3 14-1 28.5-7.2 36.1-19.5 6.5-9.9 7-22.2 6.7-33.7q-22.5 2.9-45 5.9zm693 52.4q14.7 0 29.5 0-0.1 3.5 0 6.9-5.3 0-10.6 0 0 12.8 0 25.5-4.2 0-8.4 0 0-12.7 0-25.4-5.3-0.1-10.5-0.1 0-3.4 0-6.9zm33 0q5.8 0 11.7 0c2.8 7 5.3 14.1 8.2 21.1 2.9-7 5.5-14 8.2-21q5.8-0.1 11.7-0.1c0 10.8 0 21.6 0 32.4q-4.1 0-8.2 0c-0.1-6.9 0.1-13.8-0.1-20.6-3 6.7-5.4 13.7-8.1 20.5q-3.5 0-6.9 0.1c-2.8-6.9-5.2-13.8-8.1-20.5-0.3 6.8-0.1 13.6-0.1 20.5q-4.2 0-8.3 0 0-16.2 0-32.4z"/>
	</g>
</svg>