<svg version="1.2" xmlns="http://www.w3.org/2000/svg" viewBox="0 0 1554 295" width="1554" height="295">
	<title>biokey-svg</title>
	<style>
		tspan { white-space:pre } 
		.s0 { fill: #1a1a1d } 
		.s1 { fill: #a13b2d } 
		.s2 { fill: #732419 } 
		.t3 { font-size: 6px;fill: #000000;font-family: "Bio Sans" } 
	</style>
	<g id="Layer">
		<g id="Layer">
			<path id="Layer" fill-rule="evenodd" class="s0" d="m1353.3 64.1l42.4 132.3 2.8 0.7 55.9-132.9h25.2c-5.9 13.2-11.1 25.2-16.5 37.2-23 51.2-45.9 102.5-69 153.7-7.1 15.6-15.9 29.6-33.2 35.9-14.8 5.3-29.4 4.8-45.9-0.6l-2.6-18.7c5.1 1.3 8.2 1.9 11.2 2.9 17.4 5.2 31 1 40.9-14.3 6.4-9.9 11.4-20.7 16.3-31.5 1.4-3.1 1.2-7.8 0-11.1-16.5-47.4-33.2-94.7-49.9-142-1.1-3.3-1.9-6.7-3.3-11.6 0 0 25.7 0 25.7 0zm-104.3-4.3c20 1.2 38 5.9 50.8 22.8 11 14.7 13.4 31.4 11.3 50.6h-115.9c-7.3 28.7 6.7 63 38.6 70.5 19.6 4.7 38.1 0.3 56.7-4.8 2.1-0.6 4.1-1 7.7-1.9l-3.2 18.5c-21.9 6.7-43.9 8.8-66.6 5.6-39.2-5.5-58.1-34.6-60.3-69.6-1.1-16.2 0.7-32.1 7.1-47.1 13-30.5 40.2-46.6 73.8-44.6zm-120.2 3.6c5.1 0.5 10.3 0.1 15.4 0.1l1.3 2.2-63 66.1c12 15 23.4 29.3 35 43.5 11.4 14 23.1 27.8 36.1 43.4h-27.9l-68.7-86.1c2.7-3.4 4.6-6.1 6.7-8.5 15.8-17.6 31.9-34.9 47.4-52.9 5-5.7 10.1-8.7 17.7-7.8zm-71.4-54.7l-7.6 209.6h-24.2l7.7-209.6zm-55.1 120.6v16.9h-73.8v-16.9c0 0 73.8 0 73.8 0zm219.7-48.6c-15.9 7.7-26.8 25.4-24.6 40.1h88.9c4-19.6-6.8-38.5-24.3-43.6-13.6-3.9-27.2-2.8-40 3.5z"/>
			<path id="Layer" fill-rule="evenodd" class="s1" d="m440.9 8.1h20c21.7-0.1 43.4-0.5 65 0 8.5 0.1 17.1 1.4 25.2 3.4 12.7 3.3 21.7 11.4 26.5 23.9 10.7 28 1.3 54-24.7 68.4-2.3 1.3-4.7 2.7-8.4 4.9 3.4 2 5.8 3.6 8.3 4.7 23 9.5 32 23 31.8 47.7-0.2 24.5-12.6 44.2-34.2 51.4q-4.2 1.4-8.5 2.4-4.3 1.1-8.6 1.9-4.4 0.8-8.8 1.3-4.3 0.4-8.8 0.6c-25.7 1-51.6 0.5-77.4 0.5-1.8 0-3.6-0.7-5.7-1.1 0 0 8.3-210.1 8.3-210zm21.6 111.3l-3.5 79.8c2.9 0.8 3.9 1.3 4.9 1.3 13.2 0.1 26.4 0.6 39.5 0 9.8-0.4 19.8-1.1 29.1-3.7 16-4.5 26.1-20.6 26.1-39 0-17.4-8.3-30.9-25.3-35.2-12.2-3-25.4-2.6-38.2-3.1-10.6-0.5-21.2-0.1-32.6-0.1zm4.9-18.8c17-0.1 34 0.7 50.9-0.7 12.6-0.9 23.6-7 30.7-18.4 12.7-20.3 8.4-54.1-25.3-54.9q-6.1-0.1-12.3-0.2-6.1-0.2-12.3-0.2-6.2-0.1-12.3-0.2-6.2 0-12.4-0.1c-2.6 0-5.2 0.9-8.4 1.4 0 0-2.9 71.8-2.9 71.8 2.3 0.8 3.3 1.5 4.3 1.5zm221.9 18.2q-0.2-7.4 0.5-14.7 0.7-7.3 2.3-14.5 1.6-7.2 4-14.1 2.5-6.9 5.7-13.5c13.2-27 35.1-43.1 63.4-51.4 28.5-8.3 57-8.7 85 1.1 35 12.2 55.9 37.8 61.8 74.2 5.3 33 1.8 65.2-18.1 93.5-15.8 22.7-38.2 34.9-64.8 40.2-27.7 5.5-54.8 4.1-81-6.4-35.7-14.2-53.8-41.9-57.9-79.5-0.6-5-0.6-10-0.9-14.9zm26.6-7.8c0.7 59.1 29.1 89.1 81.8 92.1 34.6 2 65.6-14.8 79.4-44.1 11.9-25.5 13-52.1 5.8-79.2-4.3-16.2-12.2-30.3-26.1-40-29.2-20.2-60.9-21.4-92.3-7.4-35.9 15.9-46.1 48.4-48.6 78.6zm-70.9 107.4h-28l8.2-209.4h26.7z"/>
			<path id="Layer" class="s2" d="m198.1 96.4q4.3-2.5 8.9-4.2 4.7-1.8 9.6-2.7 4.9-0.9 9.9-0.9 4.9-0.1 9.9 0.7l0.6 0.1 0.3 0.1h0.2l0.1 0.1h0.4l0.3 0.1 0.3 0.1h0.2 0.1l0.3 0.1q0.2 0 0.4 0l0.3 0.1 0.5 0.1h0.1l0.4 0.1 0.4 0.1h0.2l0.3 0.1 0.4 0.1 0.6 0.1q0.2 0 0.3 0.1h0.3c0.2 0 0.3 0.1 0.4 0.1h0.3l0.3 0.1 0.3 0.1h0.2 0.1l0.5 0.2h0.2 0.3l0.2 0.1h0.1c0.1 0 0.2 0.1 0.4 0.1l0.4 0.1h0.2l0.3 0.1h0.3l0.4 0.1 0.3 0.1h0.3l0.3 0.1 0.4 0.1h0.3l0.3 0.1q0.2 0 0.3 0l0.3 0.1 0.4 0.1 0.4 0.1h0.2l0.3 0.1h0.3l0.4 0.1 0.3 0.1h0.1 0.2l0.3 0.1 0.4 0.1 0.4 0.1h0.2l0.3 0.1h0.3l0.2 0.1h0.2l0.3 0.1h0.3l0.5 0.1h0.1l0.4 0.1q0.1 0.1 0.3 0.1h0.3q0.2 0.1 0.3 0.1h0.2l0.2 0.1 0.4 0.1h0.2l0.3 0.1c0.1 0 0.2 0 0.4 0l0.3 0.1c0.1 0 0.2 0 0.3 0.1h0.3l0.5 0.1 0.2 0.1h0.3q0.1 0.1 0.3 0.1l0.3 0.1c0.1 0 0.2 0 0.3 0l0.4 0.1h0.3l0.3 0.1q0.2 0.1 0.3 0.1h0.3l0.4 0.1c0.1 0 0.2 0.1 0.3 0.1h0.1 0.2l0.3 0.1 0.4 0.1 0.4 0.1h0.2l0.3 0.1h0.3l0.4 0.1 0.3 0.1h0.3l0.3 0.1c4.1 0.6 8.2 1.7 12 3.2 3.9 1.6 7.6 3.5 11 5.9 3.4 2.3 6.6 5.1 9.4 8.1 2.8 3.1 5.3 6.5 7.4 10.1l1.1 2.1c13.8 26.8 3.9 60.2-22.8 75.8l-135.8 79.1-0.1-0.2-0.2 0.1-0.1-0.2-0.2 0.2-0.1-0.2-0.3 0.1-0.1-0.2-0.2 0.1-0.1-0.2-0.2 0.2-0.1-0.2-0.2 0.1-0.1-0.2-0.2 0.1-0.1-0.1-0.3 0.1-0.1-0.2-0.2 0.1-0.1-0.2-0.2 0.1-0.1-0.1-0.2 0.1-0.1-0.2-0.2 0.1-0.2-0.2-0.2 0.2-0.1-0.2-0.2 0.1-0.1-0.2-0.2 0.1-0.1-0.2-0.2 0.2-0.1-0.2-0.3 0.1-0.1-0.2-0.2 0.1-0.1-0.2-0.2 0.2-0.1-0.2-0.2 0.1-0.1-0.2-0.2 0.1-0.1-0.1-0.3 0.1-0.1-0.2-0.2 0.1-0.1-0.2-0.2 0.1-0.1-0.1-0.2 0.1-0.1-0.2-0.2 0.1-0.2-0.2-0.2 0.2-0.1-0.2-0.2 0.1-0.1-0.2-0.2 0.1-0.1-0.2-0.2 0.2-0.1-0.2-0.3 0.1-0.1-0.2-0.2 0.1-0.1-0.2-0.2 0.2-0.1-0.2-0.2 0.1-0.1-0.2-0.2 0.1-0.2-0.2-0.2 0.2-0.1-0.2-0.2 0.1-0.1-0.2-0.2 0.1-0.1-0.2-0.2 0.2-0.1-0.2-0.3 0.1-0.1-0.2-0.2 0.1-0.1-0.2-0.2 0.2-0.1-0.2-0.2 0.1-0.1-0.2-0.2 0.1-0.2-0.1-0.2 0.1-0.1-0.2-0.2 0.1-0.1-0.2-0.2 0.2-0.1-0.2-0.2 0.1-0.1-0.2-0.2 0.1-0.2-0.2-0.2 0.2-0.1-0.2-0.2 0.1-0.1-0.2-0.2 0.1-0.1-0.2-0.2 0.2-0.1-0.2-0.3 0.1-0.1-0.2-0.2 0.1-0.1-0.2-0.2 0.2-0.1-0.2-0.2 0.1-0.1-0.2-0.2 0.1-0.2-0.1-0.2 0.1-0.1-0.2-0.2 0.1-0.1-0.2-0.2 0.1-0.1-0.1-0.2 0.1-0.1-0.2-0.3 0.1-0.1-0.2-0.2 0.2-0.1-0.2-0.2 0.1-0.1-0.2-0.2 0.1-0.1-0.2-0.2 0.2-0.1-0.2-0.3 0.1-0.1-0.2-0.2 0.1-0.1-0.2-0.2 0.2-0.1-0.2-0.2 0.1-0.1-0.2-0.2 0.1-0.2-0.2-0.2 0.2-0.1-0.2-0.2 0.1-0.1-0.2-0.2 0.1-0.1-0.2-0.2 0.2-0.1-0.2-0.3 0.1-0.1-0.2-0.2 0.1-0.1-0.1-0.2 0.1-0.1-0.2-0.2 0.1-0.1-0.2-0.2 0.1-0.1-0.1-0.3 0.1-0.1-0.2-0.2 0.1-0.1-0.2-0.2 0.1-0.1-0.1-0.2 0.1-0.1-0.2-0.3 0.1-0.1-0.2-0.2 0.2-0.1-0.2-0.2 0.1-0.1-0.2-0.2 0.1-0.1-0.2-0.2 0.2-0.2-0.2-0.2 0.1-0.1-0.2-0.2 0.1-0.1-0.2-0.2 0.2-0.1-0.2-0.2 0.1-0.1-0.2-0.2 0.1-0.2-0.2-0.2 0.2-0.1-0.2-0.2 0.1-0.1-0.2-0.2 0.1-0.1-0.2-0.2 0.2-0.1-0.2-0.3 0.1-0.1-0.2-0.2 0.1-56.1-97.9zm-91.1-90.4q3.4-2 7.1-3.3 3.7-1.4 7.5-2.1 3.9-0.7 7.8-0.7 3.9 0 7.7 0.7l0.4 0.1h0.3l0.3 0.1h0.2l0.1 0.1h0.4l0.3 0.1h0.1l0.2 0.1h0.3l0.3 0.1 0.5 0.1h0.2l0.6 0.2h0.3q0.2 0.1 0.4 0.1l0.3 0.1h0.3l0.3 0.1h0.4l0.1 0.1h0.2l0.5 0.1h0.1l0.3 0.1c0.1 0 0.3 0.1 0.4 0.1h0.3l0.3 0.1 0.3 0.1h0.3c0.2 0 0.3 0.1 0.4 0.1l0.3 0.1q0.2 0 0.3 0l0.3 0.1q0.2 0 0.4 0l0.3 0.1 0.5 0.1h0.1l0.3 0.1 0.4 0.1h0.3l0.3 0.1h0.2l0.1 0.1h0.4l0.3 0.1 0.3 0.1h0.3l0.3 0.1 0.4 0.1h0.1 0.2l0.5 0.1 0.1 0.1h0.3c0.2 0 0.3 0.1 0.4 0.1h0.1l0.2 0.1 0.6 0.1h0.4l0.1 0.1h0.2l0.3 0.1h0.3l0.3 0.1q0.2 0 0.4 0.1h0.3l0.3 0.1 0.3 0.1h0.4l0.3 0.1h0.1l0.2 0.1h0.3l0.3 0.1 0.4 0.1q0.1 0 0.3 0l0.5 0.1h0.1l0.3 0.1 0.4 0.1h0.1 0.2l0.3 0.1 0.3 0.1h0.4q0.1 0.1 0.3 0.1l0.3 0.1h0.3q0.2 0 0.3 0.1 0.2 0 0.4 0.1h0.1 0.2l0.5 0.1 0.1 0.1h0.4l0.3 0.1q0.1 0 0.3 0.1h0.3l0.3 0.1c0.2 0 0.3 0 0.4 0l0.3 0.1h0.1l0.2 0.1h0.3l0.2 0.1h0.2l0.3 0.1h0.3l0.3 0.1q4.9 0.8 9.6 2.7 4.6 1.9 8.7 4.8 4 2.8 7.4 6.5 3.4 3.7 5.8 8c12.4 21.7 5.1 49.4-16.4 61.9l-106.3 61.9-0.1-0.2-0.2 0.1-0.1-0.2-0.2 0.2-0.1-0.2-0.3 0.1-0.1-0.2-0.2 0.1-0.1-0.2-0.2 0.2-0.1-0.2-0.2 0.1-0.1-0.2-0.2 0.1-0.2-0.2-0.2 0.2-0.1-0.2-0.2 0.1-0.1-0.2-0.2 0.1-0.1-0.1-0.2 0.1-0.1-0.2-0.3 0.1-0.1-0.2-0.2 0.1-0.1-0.1-0.2 0.1-0.1-0.2-0.2 0.1-0.1-0.2-0.2 0.1-0.1-0.1-0.3 0.1-0.1-0.2-0.2 0.1-0.1-0.2-0.2 0.2-0.1-0.2-0.2 0.1-0.1-0.2-0.3 0.1-0.1-0.2-0.2 0.2-0.1-0.2-0.2 0.1-0.1-0.2-0.2 0.1-0.1-0.2-0.2 0.2-0.1-0.2-0.3 0.1-0.1-0.2-0.2 0.1-0.1-0.1-0.2 0.1-0.1-0.2-0.2 0.1-0.1-0.2-0.2 0.2-0.2-0.2-0.2 0.1-0.1-0.2-0.2 0.1-0.1-0.2-0.2 0.2-0.1-0.2-0.2 0.1-0.1-0.2-0.3 0.1-0.1-0.2-0.2 0.2-0.1-0.2-0.2 0.1-0.1-0.2-0.2 0.1-0.1-0.2-0.2 0.2-0.1-0.2-0.3 0.1-0.1-0.2-0.2 0.1-0.1-0.2-0.2 0.2-0.1-0.2-0.2 0.1-0.1-0.2-0.3 0.1-0.1-0.2-0.2 0.2-0.1-0.2-0.2 0.1-0.1-0.2-0.2 0.1-0.1-0.1-0.2 0.1-0.1-0.2-0.3 0.1-0.1-0.2-0.2 0.1-0.1-0.1-0.2 0.1-0.1-0.2-0.2 0.1-0.1-0.2-0.3 0.2-0.1-0.2-0.2 0.1-0.1-0.2-0.2 0.1-0.1-0.2-0.2 0.2-0.1-0.2-0.2 0.1-0.1-0.2-0.3 0.1-0.1-0.2-0.2 0.2-0.1-0.2-0.2 0.1-0.1-0.2-0.2 0.1-0.1-0.2-0.2 0.2-0.1-0.2-0.3 0.1-0.1-0.2-0.2 0.1-0.1-0.1-0.2 0.1-0.1-0.2-0.2 0.1-0.1-0.2-0.2 0.2-0.2-0.2-0.2 0.1-0.1-0.2-0.2 0.1-0.1-0.2-0.2 0.2-0.1-0.2-0.2 0.1-0.1-0.2-0.3 0.1-0.1-0.2-0.2 0.2-0.1-0.2-0.2 0.1-0.1-0.2-0.2 0.1-0.1-0.2-0.2 0.2-0.1-0.2-0.3 0.1-0.1-0.2-0.2 0.1-0.1-0.2-0.2 0.2-0.1-0.2-0.2 0.1-0.1-0.2-0.3 0.1-0.1-0.2-0.2 0.2-0.1-0.2-0.2 0.1-0.1-0.2-0.2 0.1-0.1-0.1-0.2 0.1-0.1-0.2-0.3 0.1-0.1-0.2-0.2 0.1-0.1-0.1-0.2 0.1-0.1-0.2-0.2 0.1-0.1-0.2-0.2 0.2-0.2-0.2-0.2 0.1-0.1-0.2-0.2 0.1-0.1-0.2-0.2 0.2-0.1-0.2-0.2 0.1-0.1-0.2-0.3 0.1-0.1-0.2-0.2 0.2-0.1-0.2-0.2 0.1-0.1-0.2-0.2 0.1-0.1-0.2-0.2 0.2-0.2-0.2-0.2 0.1-0.1-0.2-0.2 0.1-44.9-78.4z"/>
			<path id="Layer" class="s1" d="m307 121l1.3 2.1c15.4 27 5.8 61.9-21.7 77.9l-135.8 79.1-56.1-98 135.9-79.1c26.7-15.6 60.4-7.4 76.4 18zm-106.2-91.8c12.4 21.6 5 49.3-16.5 61.8l-106.3 61.9-44.9-78.3 106.4-62c5.1-3 10.7-4.9 16.6-5.7 5.8-0.7 11.8-0.3 17.5 1.2 5.7 1.6 11 4.2 15.7 7.8 4.6 3.6 8.5 8.2 11.5 13.3z"/>
		</g>
		<text id="®" style="transform: matrix(10.524,0,0,10.536,1499.39,82.526)" >
			<tspan x="0" y="0" class="t3">®
</tspan>
		</text>
	</g>
</svg>