<svg version="1.2" xmlns="http://www.w3.org/2000/svg" viewBox="0 0 1596 126" width="1596" height="126">
	<title>Bausch-Lomb-Logo-4C-no-tagline-ai</title>
	<style>
		.s0 { fill: #00b0be } 
		.s1 { fill: #69cdad } 
		.s2 { fill: #53d2f0 } 
	</style>
	<g id="Layer 1">
		<g id="&lt;Group&gt;">
			<g id="&lt;Group&gt;">
				<g id="&lt;Group&gt;">
					<path id="&lt;Compound Path&gt;" fill-rule="evenodd" class="s0" d="m57.3 123.9h-57.2v-121.7h53.2c25.6 0 42.4 12.2 42.4 32.7 0 12.2-7.8 22-18.3 26 14 2 24.7 14.5 24.7 28.5 0 21.9-17.4 34.5-44.8 34.5zm-13-94.5h-6.1v22.7h6.1c11.1 0 16.7-3.8 16.7-11.9 0-8.1-6-10.8-16.7-10.8zm6.2 44.7h-12.3v22.7h12.3c11.4 0 15.5-4.4 15.5-11.8 0-7.4-5.5-10.9-15.5-10.9z"/>
					<path id="&lt;Compound Path&gt;" fill-rule="evenodd" class="s0" d="m215 123.9l-6.5-22.1h-35.7l-6.5 22.1h-38.9l42.2-121.7h44.1l42.2 121.7zm-24.3-82.3l-9.2 30.8h18.3z"/>
					<path id="&lt;Compound Path&gt;" class="s0" d="m342.9 125.9c-33.7 0-59.1-17.3-59.1-58v-65.7h40.8v69.9c0 13.2 7 21.5 18.3 21.5 11.4 0 18.4-8.3 18.4-21.5v-69.9h40.7v65.7c0 40.7-25.4 58-59.1 58z"/>
					<path id="&lt;Compound Path&gt;" class="s0" d="m485.5 125.9c-19.9 0-37-7.1-48.4-17l16.2-25.8c11.3 9 21.2 13.2 31.7 13.2 5.8 0 10-2.5 10-6.7 0-5.8-4.7-8-19.5-12.5-22.2-6.8-33.4-16.3-33.4-36.4 0-26.3 20.7-40.5 50.2-40.5 15.9 0 31.4 5.9 39.6 12.4l-16 26.5c-8.4-6-16.1-9.2-25.1-9.2-7.6 0-10.5 3.3-10.5 6.8 0 3.9 2.9 6.2 18.9 10.9 22 6.3 34 14.8 34 37.7 0 24.3-18.3 40.6-47.7 40.6z"/>
					<path id="&lt;Compound Path&gt;" class="s0" d="m630.7 125.9c-37 0-63.6-26-63.6-62.3 0-36.4 27.6-63.4 64.3-63.4 19.5 0 32.5 8.4 43 17.4l-20 27.1c-6.8-6.6-13.3-11.3-23.9-11.3-13.5 0-23.5 11.7-23.5 29.2 0 17.5 9.7 30.2 25.9 30.2 9 0 17.3-4 24.5-10.7l19.5 26.5c-11.6 10.2-24.8 17.3-46.2 17.3z"/>
					<path id="&lt;Compound Path&gt;" class="s0" d="m787 123.9v-42.5h-30.7v42.5h-40.7v-121.7h40.7v44.9h30.7v-44.9h40.7v121.7z"/>
					<path id="&lt;Compound Path&gt;" class="s0" d="m1057.1 123.9v-121.7h39.1v90.7h39.8v31z"/>
					<path id="&lt;Compound Path&gt;" fill-rule="evenodd" class="s0" d="m1223.9 125.9c-38.2 0-65.4-26.3-65.4-62.6 0-36.4 27.5-63.1 65.7-63.1 38.2 0 65.4 26.4 65.4 62.7 0 36.4-27.5 63-65.7 63zm0-93.3c-14.9 0-25.5 12.8-25.5 30.3 0 17.5 11 30.7 25.8 30.7 14.9 0 25.5-12.8 25.5-30.3 0-17.6-11-30.7-25.8-30.7z"/>
					<path id="&lt;Compound Path&gt;" class="s0" d="m1414.6 123.9v-59.3l-18.9 35.3h-18.5l-19.4-35.3v59.3h-38.3v-121.7h39.5l27.7 48.6 25.7-48.6h42.9v121.7z"/>
					<path id="&lt;Compound Path&gt;" fill-rule="evenodd" class="s0" d="m1551.1 123.9h-57.3v-121.7h53.2c25.6 0 42.5 12.2 42.5 32.7 0 12.2-7.9 22-18.4 26 14 2 24.7 14.5 24.7 28.5 0 21.9-17.4 34.5-44.7 34.5zm-13.1-94.5h-6.1v22.7h6.1c11.1 0 16.7-3.8 16.7-11.9 0-8.1-6-10.8-16.7-10.8zm6.2 44.7h-12.3v22.7h12.3c11.4 0 15.5-4.4 15.5-11.8 0-7.4-5.5-10.9-15.5-10.9z"/>
				</g>
			</g>
			<g id="&lt;Group&gt;">
				<path id="&lt;Path&gt;" class="s0" d="m922.7 43.3h39.4v39.6h-39.4z"/>
				<g id="&lt;Group&gt;">
					<path id="&lt;Path&gt;" class="s1" d="m922.7 2.2h39.4v41.1h-39.4z"/>
					<path id="&lt;Path&gt;" class="s1" d="m922.7 82.8h39.4v41.2h-39.4z"/>
				</g>
				<g id="&lt;Group&gt;">
					<path id="&lt;Path&gt;" class="s2" d="m881.4 43.3h41.3v39.5h-41.3z"/>
					<path id="&lt;Path&gt;" class="s2" d="m962.1 43.3h41.1v39.5h-41.1z"/>
				</g>
			</g>
		</g>
	</g>
</svg>