<svg version="1.2" baseProfile="tiny-ps" xmlns="http://www.w3.org/2000/svg" viewBox="0 0 1406 1655" width="1406" height="1655">
	<title>bbi-logo-svg</title>
	<defs>
		<linearGradient id="grd1" gradientUnits="userSpaceOnUse"  x1="148.11" y1="1216.388" x2="255.981" y2="-19.832">
			<stop offset="0.15" stop-color="#d60018"  />
			<stop offset="0.52" stop-color="#b90014"  />
			<stop offset="0.673" stop-color="#b60013"  />
			<stop offset="0.777" stop-color="#ad0011"  />
			<stop offset="0.866" stop-color="#9e000d"  />
			<stop offset="0.947" stop-color="#880008"  />
			<stop offset="1" stop-color="#760004"  />
		</linearGradient>
		<linearGradient id="grd2" gradientUnits="userSpaceOnUse"  x1="3.434" y1="1724.148" x2="1567.137" y2="1093.116">
			<stop offset="0.1" stop-color="#004e75"  />
			<stop offset="0.106" stop-color="#005079"  />
			<stop offset="0.16" stop-color="#006599"  />
			<stop offset="0.215" stop-color="#0076b3"  />
			<stop offset="0.273" stop-color="#0082c5"  />
			<stop offset="0.333" stop-color="#0089d0"  />
			<stop offset="0.4" stop-color="#008cd4"  />
			<stop offset="0.496" stop-color="#0089cf"  />
			<stop offset="0.596" stop-color="#0081c3"  />
			<stop offset="0.697" stop-color="#0073ae"  />
			<stop offset="0.798" stop-color="#006091"  />
			<stop offset="0.88" stop-color="#004e75"  />
		</linearGradient>
		<linearGradient id="grd3" gradientUnits="userSpaceOnUse"  x1="727.586" y1="675.674" x2="1276.959" y2="86.06">
			<stop offset="0.15" stop-color="#bfce18"  />
			<stop offset="0.367" stop-color="#bccb17"  />
			<stop offset="0.524" stop-color="#b3c116"  />
			<stop offset="0.661" stop-color="#a3b214"  />
			<stop offset="0.786" stop-color="#8e9b12"  />
			<stop offset="0.88" stop-color="#798610"  />
		</linearGradient>
		<linearGradient id="grd4" gradientUnits="userSpaceOnUse"  x1="224.795" y1="631.767" x2="856.316" y2="631.767">
			<stop offset="0.27" stop-color="#f16112"  />
			<stop offset="0.443" stop-color="#ed5f11"  />
			<stop offset="0.582" stop-color="#e35b10"  />
			<stop offset="0.71" stop-color="#d2550e"  />
			<stop offset="0.83" stop-color="#bb4c0b"  />
			<stop offset="0.944" stop-color="#9c4008"  />
			<stop offset="0.95" stop-color="#9b4008"  />
		</linearGradient>
		<linearGradient id="grd5" gradientUnits="userSpaceOnUse"  x1="522.301" y1="1124.236" x2="1270.453" y2="742.605">
			<stop offset="0.15" stop-color="#4b992f"  />
			<stop offset="0.358" stop-color="#47942d"  />
			<stop offset="0.574" stop-color="#3c882a"  />
			<stop offset="0.793" stop-color="#2b7324"  />
			<stop offset="1" stop-color="#14591d"  />
		</linearGradient>
	</defs>
	<style>
		tspan { white-space:pre }
		.shp0 { fill: url(#grd1) } 
		.shp1 { fill: url(#grd2) } 
		.shp2 { fill: #122e37 } 
		.shp3 { fill: url(#grd3) } 
		.shp4 { fill: url(#grd4) } 
		.shp5 { fill: url(#grd5) } 
		.shp6 { fill: #004838 } 
	</style>
	<g id="Layer">
		<g id="Layer">
			<path id="Layer" class="shp0" d="M232.22 1263.51C192.55 596.99 315.66 211.98 508.93 0L0 0L0 1652.7L0 1652.7C17.16 1619.02 34.88 1585.63 53.16 1552.54C71.43 1519.45 90.27 1486.67 109.64 1454.21C129.02 1421.75 148.93 1389.62 169.39 1357.83C189.84 1326.04 210.82 1294.59 232.33 1263.51L232.22 1263.51Z" />
			<path id="Layer" class="shp1" d="M90.23 1652.67L786.42 1652.67C1159.51 1652.67 1405.06 1501.55 1405.06 1199.44L1405.06 1194.81C1405.88 1174.13 1405.1 1153.41 1402.72 1132.85C1400.34 1112.29 1396.37 1091.94 1390.84 1072C1385.31 1052.05 1378.24 1032.56 1369.7 1013.7C1361.16 994.85 1351.17 976.68 1339.81 959.37C1003.76 1142.19 589.86 1218.52 375.7 1247.44C293.25 1377.75 198.1 1512.83 90.23 1652.67Z" />
			<path id="Layer" class="shp2" d="M232.33 1263.51C210.82 1294.59 189.84 1326.04 169.39 1357.83C148.93 1389.62 129.02 1421.75 109.64 1454.21C90.27 1486.67 71.43 1519.45 53.16 1552.54C34.88 1585.63 17.16 1619.02 0 1652.7L90.23 1652.7C198.37 1512.86 293.49 1377.8 375.59 1247.52C287.41 1259.49 233.02 1263.48 232.33 1263.51Z" />
			<path id="Layer" class="shp3" d="M1259.97 637.51C1269 622.04 1276.96 605.95 1283.78 589.38C1290.6 572.81 1296.27 555.78 1300.75 538.43C1305.23 521.08 1308.5 503.44 1310.55 485.63C1312.6 467.83 1313.42 449.91 1313 431.99L1313 427.31C1313 191.26 1141.23 31.22 856.43 4.13C828.72 259.15 747.91 546.44 590.24 867.22C843.35 662.28 1077.51 620.29 1259.97 637.51Z" />
			<path id="Layer" class="shp4" d="M232.22 1263.51L232.22 1263.51C257.22 1226.52 283.51 1190.42 311.05 1155.27C338.58 1120.12 367.34 1085.95 397.26 1052.82C427.19 1019.68 458.27 987.61 490.45 956.65C522.62 925.7 555.87 895.88 590.13 867.25C747.8 546.47 828.64 259.15 856.32 4.15C827.73 1.38 798.14 0.03 767.41 0.03L508.96 0.03C315.75 211.98 192.55 596.99 232.22 1263.51Z" />
			<path id="Layer" class="shp5" d="M1095.79 788.56C1112.47 779.84 1128.56 770.04 1143.96 759.23C1159.36 748.41 1174.03 736.59 1187.88 723.86C1201.73 711.12 1214.73 697.49 1226.8 683.05C1238.87 668.62 1249.98 653.4 1260.05 637.51C1077.59 620.42 843.43 662.28 590.33 867.22C574.16 899.84 557.56 932.24 540.53 964.41C523.5 996.59 506.04 1028.53 488.15 1060.24C470.26 1091.94 451.94 1123.41 433.21 1154.62C414.47 1185.83 395.32 1216.8 375.76 1247.5C589.97 1218.44 1003.87 1142.24 1339.87 959.43C1286.54 882.12 1202.46 829.41 1095.79 788.56Z" />
			<path id="Layer" class="shp6" d="M232.33 1263.51C233.02 1263.51 287.41 1259.49 375.64 1247.52C395.21 1216.82 414.36 1185.86 433.1 1154.65C451.83 1123.43 470.15 1091.97 488.04 1060.27C505.92 1028.56 523.39 996.62 540.42 964.44C557.45 932.27 574.05 899.87 590.22 867.25C555.95 895.88 522.71 925.7 490.54 956.65C458.36 987.61 427.29 1019.69 397.36 1052.82C367.44 1085.95 338.68 1120.12 311.15 1155.27C283.62 1190.42 257.33 1226.52 232.33 1263.51L232.33 1263.51Z" />
		</g>
	</g>
</svg>