<svg version="1.2" xmlns="http://www.w3.org/2000/svg" viewBox="0 0 1602 986" width="1602" height="986">
	<title>Vision IPO - Company Presenddddtation - vF-1-pdf-svg-svg</title>
	<style>
		.s0 { fill: #cc4964 } 
		.s1 { fill: #202430 } 
	</style>
	<g id="#cc4964ff">
		<path id="Layer" class="s0" d="m1580.4 27.1c7.6-8.4 14.7-17.2 20.6-26.8 0.9 4.1 0.3 8.3-0.1 12.5-1.9 18.6-9.3 36.5-20.2 51.7-8.4 11.9-18.7 22.3-29.5 32-17.7 15.2-37.6 27.7-58.2 38.5-16.7 8.7-33.8 16.4-51 23.9-22.8 9.6-45.9 18.5-68.4 28.8-6.8 3-13.6 6-20.3 9 2.1 10 12.7 16.8 22.7 16 7.6-0.7 15.3-4.3 19.8-10.7 2.5 10.9 0.6 22.7-5.2 32.2-6.4 11-17.5 19-29.8 22-11.4 3.2-23.8 1.5-34.4-3.6-11-5.4-19.9-15.6-22.7-27.6-2.5 1.1-4.6 3-6.7 4.7-13.7 11.1-25.8 24.3-34.2 39.9-3.7 6.9-4.9 15.2-2.6 22.8 0.3 1.4 1.2 2.8 0.5 4.2-1.1 0.6-2.1-0.3-3-1-3.4-3-5.3-7.3-7.2-11.4-4.1-9.8-7.5-20.1-8.9-30.7-0.8-8.6-0.5-17.5 3.2-25.5 2.6-5.4 5.4-11 9.7-15.3 6.9-7 15-12.9 23.2-18.3 12.4-7.9 25.3-15.1 38.8-21 19.3-8.1 38.6-16.1 58.1-23.6 4.7-1.9 9.6-3.5 14.1-5.8 19.5-8.3 39.3-15.8 58.6-24.6 19.6-8.8 38.8-18.6 56.8-30.4 27.5-17.9 53.8-38 76.3-61.9zm-6.3 75.3c0.3 0.3 0.8 0.8 1 1-3.8 6.6-8.6 12.6-13.2 18.5-5.2 6.1-10.3 12.3-16.2 17.7-13.3 12.6-26.9 24.8-41 36.4-4.1 3.1-8 6.3-12.2 9-6.7 4.1-13.5 8.1-19.3 13.4-1 1-2.5 2.2-2.2 3.8 1.5 1.3 3.7 0.9 5.5 0.8 9.3-1.6 18.2-4.7 27.2-7.3 4.4-1.3 8.7-3 13.3-3.5-6 6.8-12.6 13.1-19.6 18.9-13.2 11.2-28.7 19.4-44.4 26.5-4 2-8.4 3.3-11.6 6.4-3.7 3.1-5.1 7.7-7.5 11.7-3.2 5.6-6.5 11.3-11.1 15.9-13.3 14.3-30.1 26.2-49.4 30.4-11.8 2.2-24.1 2.4-35.8-0.1-6.9-1.4-13.5-3.6-19.9-6.2-6.2-2.7-11.9-6.8-18.7-7.8-4.7-0.9-9.6 0.6-13.1 3.6-3 2.5-6.4 4.9-10.4 5.1-1.1 0-2.8-0.6-2.6-1.9 4.4-13.6 12-26.2 22.2-36.2 1.7-1.6 3-3.8 5.4-4.6 7.1 9.3 17.1 16.2 28.2 20 3.3 1.1 6.6 1.8 9.9 3.1 6.2 1.5 12.8 1.7 19.2 0.5 12.8-1.8 25.6-6.4 35.7-14.8 6.8-5.8 13.3-12.3 17.3-20.5 7.2-15.3 8.6-33.9 1.8-49.7 2.8-3 6.9-3.6 10.5-5.2 11.3-4.6 22.7-9.1 33.8-14.3 17.4-7.8 34.7-16 51.4-25.3 15.8-9.1 31.8-18.1 46.2-29.4 3.8-2.8 7.2-6 11.1-8.8 3-2.1 5.8-4.6 8.5-7.1z"/>
		<path id="Layer" fill-rule="evenodd" class="s0" d="m655.4 395.7c7.7-1.3 15.5-1.8 23.3-2.6 8.1-0.2 16.3-0.2 24.4 0 7.8 0.8 15.6 1.3 23.4 2.6 2.9 21.2 2.8 42.9 0 64.2-17.3 2.9-34.9 2.8-52.3 2.1-6.3-0.2-12.5-1.2-18.8-2.1-4.2-21.2-4-43.1 0-64.2zm-136.2 2.5c11.7-1.3 23.5-2.7 35.3-2.5 10.7 0.1 21.4 1.4 32 2.5 0 85.2 0 170.4 0 255.5 0.2 9.4 0.4 19.1 3.2 28.2 1.2 3.6 2.7 7.2 5.3 10 2.2 2.2 4.9 4.1 7.9 4.8 10.2 2.2 20.8 1.8 31-0.1 4 13.7 5.4 28 5.2 42.2 0.2 3.4-0.3 6.7-1 10-6 1.8-12.3 2.8-18.5 3.6-9.5 0.8-19.1 0.6-28.6 0.2-13.6-0.9-27.2-4.2-38.8-11.4-8.4-5.3-16-12.1-20.9-20.7-6.3-10.4-9.4-22.3-11-34.3-1.6-12.2-1-24.6-1.1-37q0-125.5 0-251zm320.4 30.1q5.8 0 11.6 0 0 36.6 0 73.2 28.6 0 57.3 0c0.9 4.4 1.7 8.8 2.1 13.2q0.1 11.9 0 23.8c-0.3 4.9-1.2 9.7-2.1 14.5q-28.7 0-57.3 0 0 49.7 0 99.4c0 7 0.2 13.9 1.6 20.7 1.5 6.5 4.4 12.9 8.8 17.9 2.6 3.1 6.3 4.9 10 6.3 8.5 1.7 17.4 1.9 26 0.8 5.3-0.5 10.4-1.9 15.7-2.4 4.1 11.7 6.1 24.3 6.3 36.8 0.1 5.1-0.8 10.1-1.1 15.2-12.9 3.2-26.1 4.9-39.4 5.1-14.7 0.5-29.7-0.6-44-4.5-5.3-1.8-10.6-3.7-15.5-6.3-9.4-5.3-17.8-12.7-23.3-22.1-9.7-15.7-12.3-34.6-12.5-52.8 0-38 0-76 0-114.1q-15.5 0-31 0c-0.8-3.1-1.5-6.3-2.1-9.4 6.5-9.1 13.5-17.9 20.4-26.8 22.8-29.5 45.5-59.1 68.5-88.5zm164.9 72.3c13.5-4.1 27.7-5.6 41.7-5.5 15.6 0.2 31.3 2.9 45.6 9.3 10.6 5.3 20.6 12 29.2 20.2 8.2 7.4 14.2 16.9 19.3 26.7 8.5 17.6 13.5 36.8 14.2 56.4 0.6 8.3-0.1 16.6-0.3 24.9-0.4 4.9-0.9 9.8-2.1 14.5q-80.5 0-161 0c1.1 12.2 4.2 24.7 12.1 34.2 8.4 9.3 20.2 14.8 32.2 17.8 13.3 3.4 27.2 3.1 40.8 2.2 17.1-1.6 34-5.7 50.2-11.4 5.6 10.2 9.6 21.3 11.4 32.9 1.2 6.5 1.8 13 2.2 19.6-12.6 4.7-25.7 8-38.9 10.4-16 2.6-32.3 3.8-48.5 3.8-16.5-0.2-33.1-1.8-48.9-6.5-19.3-5.5-36.9-16.2-50.7-30.7-7.5-8.6-13.3-18.5-17.8-28.9-5.2-12.8-8.9-26.2-10.5-40-3.5-28.1-0.8-57.2 9.8-83.6 4.7-12.1 11.4-23.5 19.5-33.6 9.3-10.1 20.3-18.7 32.6-24.9 5.9-2.9 11.7-5.8 17.9-7.8zm26.8 48.1c-9.5 1.3-18.8 5.7-25.4 12.8-8.8 10.4-12.8 24-14.2 37.3q48.9 0 97.8 0c-0.2-5.3-0.8-10.7-2.1-15.9-2.5-10-7.4-19.9-15.7-26.4-3.8-3.2-8.4-5.1-13-6.8-8.9-2.3-18.3-2.5-27.4-1zm-398-46.7q49.8 0 99.5 0 0 124.2 0 248.4c-14.9 2.7-30.1 2.8-45.2 2.4q-10.9-0.5-21.6-2.4 0-98.5 0-196.9-16.3 0-32.7 0c-3-12.4-3-25.4-2.1-38.1 0.3-4.5 1-9 2.1-13.4z"/>
	</g>
	<g id="#202430ff">
		<path id="Layer" class="s1" d="m1236.4 66c11.7-7.3 25.4-10.8 39-11.3 5.3 0 10.7-0.7 16 0.7 11.7 2.9 22.8 8.6 32 16.4 8.2 6.6 15 15.1 19.6 24.7 4.9 11 8 22.9 9.6 34.9-14.2 5.1-28.4 10.2-42.3 16.1-19.9 8.9-39.4 19.3-55.5 34.2-4.6 4.5-9.1 9.1-12.7 14.5 0.9-6.5 2.2-13.2 0.4-19.6-4.1-20.7-18.2-38.6-36.2-49.2-10.3-6.5-22.5-9.2-34.5-10.6-15.5-1.9-31.2-2.7-46.8-3-13.9-0.5-27.8-0.3-41.7-0.3-0.9-0.1-2.1 0.2-2.9-0.4-0.8-2-0.9-4.5 0.3-6.3 0.6-0.9 1.7-0.6 2.6-0.7 19 0.1 38 0.1 57-0.5 15.6-0.3 31.2-0.9 46.8-2.3 5.2-0.8 10.7-1 15.6-3.2 2.9-2.4 4.9-5.7 7.3-8.7 7.3-9.8 15.7-19.2 26.4-25.4zm61.6 248c4.7-1.7 10-2.9 15-1.2 4.4 1.1 8.2 3.7 12.5 5.3 6.8 2.7 14 4.5 21.2 5.8 9.4 2 19.2 1.3 28.7 0 7.6-1.3 15.4-2.9 21.9-7.1q6 13.6 11.4 27.6c4.4 11.2 7.6 22.9 11.1 34.5 3.3 11.4 7.1 22.6 10.7 33.9 3.1 9.8 4.6 20.1 6.8 30.2 4.5 22.3 10.1 44.4 14.6 66.7 2.6 13.4 4.9 27.1 3.6 40.8-1 4.9-1.2 10.2-4 14.4-1.6-3.8-2.2-7.9-3.1-11.9-5.1-23.8-10.1-47.6-17.3-70.9-7.6-24.6-17.1-48.9-31.2-70.7-2.4-3.8-5.1-7.6-8.4-10.8-5.1-4.6-11.2-8-17.5-10.6-12.5-5.6-25.5-10.2-37.5-16.9-9.4-5.5-18.8-11.2-27-18.5-10.3-8.9-19.5-19-27.4-30 4.7-4.3 9.9-8.3 15.9-10.6z"/>
		<path id="Layer" fill-rule="evenodd" class="s1" d="m55.7 399.1c12.8-0.9 25.6-0.8 38.4-0.9 14 0 27.9 1.1 41.6 3.5 9.2 1.7 18.5 2.9 27.3 5.9 10.1 3.2 19.8 7.7 28.3 13.9 7 5 12.9 11.5 18 18.4 6.3 8.1 9.6 18.1 11.7 28 2.9 15.8 2.8 32.5-2.3 47.9-3.1 9.4-7.8 18.4-14.3 26-9.1 11.2-21.6 20.6-36.1 22.7 11.1 1.5 21.8 5.3 31.9 10 7.2 3.5 13.6 8.5 19.3 14 7.7 6.9 13.3 15.8 18.1 24.9 8.2 17.7 9.1 37.9 6.9 57-1.8 14.7-6.5 29.4-15.5 41.4-7.5 10.3-17.5 18.7-28.4 25.2-11.1 6.1-23.2 10.3-35.4 13.3-8.9 2.4-18.1 3.3-27.2 4.4-15 1.4-30.1 2.2-45.1 1.8-15.4-0.1-30.8-1.2-46.2-1.8-13.3-1-26.7-2.3-40-3.8q0-173.7 0-347.4c7.6-1.3 15.3-1.9 22.9-2.6 8.7-1 17.4-1.3 26.1-1.8zm21 52.9q0 46.3 0 92.5c8.8 0 17.6 0.2 26.4-0.1 7.8-0.4 15.5-1.7 23-4 4-1.2 8-2.7 11.4-5.3 5.7-3.9 9.9-9.5 13.4-15.4 3.1-7.8 4.2-16.4 4.1-24.8-0.1-6.3-0.8-12.7-3.1-18.7-1.7-4.3-4.9-7.9-7.9-11.4-3.4-3.8-7.8-6.5-12.3-8.6-7-3.8-15-4.6-22.8-5.4-10.7-0.6-21.6-0.6-32.2 1.2zm0 145.7q0 50 0 100c5.1 1.1 10.3 1.5 15.5 1.6 9 0.7 18.1 0.7 27.1 0 9.6-1.1 19.3-2.8 28-7.1 8-3.6 14.6-9.9 19.4-17.1 3.8-6.5 5.3-14 5.6-21.4 0.4-10.2-0.4-20.9-5.1-30.2-2.6-5.5-6.1-10.8-11.3-14.3-9.9-7.5-22.6-10-34.8-10.9-14.8-1.1-29.6-0.5-44.4-0.6zm265.5-97.3c13.2-3.9 27-5.4 40.7-5.3 12.6 0.1 25.2 1.9 37.1 6.2 16 6.1 31 15.2 42.7 27.9 9.5 10.9 16.4 24 20.9 37.7 6.9 18.5 9.1 38.5 7.8 58-0.7 7.4-0.7 14.9-2.3 22.2q-80.4 0-160.9 0c0.8 10.3 3.1 20.8 8.6 29.6 3.5 5.6 8.6 10 14.1 13.5 6.1 4 13 6.8 20 8.7 15.8 4.6 32.6 4.3 48.8 2 14.8-2.6 29.6-5.9 43.7-11 2.8 5 5.1 10.3 7 15.8 4.4 11.7 5.8 24.3 6.7 36.7-28.6 10.7-59.3 14.4-89.7 14.2-15.7-0.3-31.5-2-46.6-6.5-13.1-3.7-25.5-9.8-36.4-18-7.2-5.5-14.1-11.5-19.4-19-7.1-9.8-12.7-20.8-16.3-32.4-7-20.1-9.2-41.6-8.1-62.8 1-20.7 5.9-41.3 14.9-60 5.6-11.3 12.6-22 21.8-30.7 8-7.9 17.4-14.4 27.4-19.4 5.7-2.7 11.4-5.5 17.5-7.4zm1.2 60.6c-8.9 10.6-13.3 24.2-14.7 37.8q48.9 0 97.9 0c-0.4-7.9-1.6-15.9-4.5-23.3-3.2-7.9-7.9-15.3-14.9-20.3-10.8-7.7-24.9-8.4-37.6-6.7-9.8 1.2-19.3 5.5-26.2 12.5z"/>
		<path id="Layer" fill-rule="evenodd" class="s1" d="m0.4 845.1c26.3 0 52.7 0 79 0.1 11.4-0.1 23.3 3.7 30.9 12.6 8.6 9.7 10.7 24.3 5.9 36.3-3.5 8.7-11.3 15.6-20.5 17.8 9.8 1.5 18.2 8.7 22.2 17.7 5.8 12.9 4.4 29.2-4.9 40.1-5 6.3-12.4 10.3-20.2 11.9-7.7 1.9-15.8 1.2-23.7 1.4q-34.3 0-68.7 0 0-68.9 0-137.9zm35.8 31.1q0 10.7 0 21.4c11.4 0 22.8 0.1 34.2 0 3.2 0.1 6.3-0.9 8.8-2.7 4.4-3.5 5.1-10.8 1.2-14.8-2.8-3.2-7.2-4-11.2-3.9q-16.5 0-33 0zm0 52q0 11.9 0 23.7c12.3 0 24.7 0.1 37.1-0.1 4 0.1 8.1-1.6 10.5-4.9 3.3-5.2 2-13.1-3.4-16.3-3.6-2.6-8.3-2.5-12.5-2.4q-15.9 0-31.7 0zm115.7-83.1q17.6 0 35.3 0 0 69 0 137.9-17.7 0-35.3 0 0-68.9 0-137.9zm123.8-0.1c14.8-2.1 30.3-0.8 44.2 4.8 10 4.1 19.3 10.3 26.3 18.6 8.8 9.8 14.2 22.5 16 35.6 1.7 12.8 0.4 26.2-4.5 38.3-7.7 19.6-25.3 34.5-45.5 40.1-14.4 4.1-29.8 4.3-44.3 0.7-13.4-3.4-26-10.6-35.3-21-14.5-15.8-19.9-38.6-16.6-59.6 1.9-12.3 7-24.2 15.2-33.6 11.2-13.2 27.5-21.5 44.5-23.9zm7.6 30c-12.4 1.9-23.2 10.8-28.2 22.2-5.5 11.8-4.8 26.3 1.7 37.5 5.1 9.4 14.4 16.5 25 18.5 9.9 2.1 20.5-0.3 28.7-6.3 9.3-6.8 15.1-17.9 15.9-29.3 1-12.3-3.6-25-12.8-33.3-8-7.6-19.5-11-30.3-9.3z"/>
	</g>
</svg>