<svg version="1.2" xmlns="http://www.w3.org/2000/svg" viewBox="0 0 1560 409" width="1560" height="409">
	<title>BNED_BIG-svg</title>
	<defs>
		<clipPath clipPathUnits="userSpaceOnUse" id="cp1">
			<path d="m-712.21-854.71h3114.56v3968.28h-3114.56z"/>
		</clipPath>
	</defs>
	<style>
		.s0 { fill: #cfdada } 
		.s1 { fill: #ffffff } 
		.s2 { fill: #a5bcbc } 
		.s3 { fill: #7fa3a1 } 
	</style>
	<g id="Clip-Path: Clip-Path: Page 1" clip-path="url(#cp1)">
		<g id="Clip-Path: Page 1">
			<g id="Page 1">
				<path id="Path 2" class="s0" d="m152.8 407.6c-22.7 0-41.1-18.3-41.1-41 0-22.7 18.4-41 41.1-41 22.7 0 41 18.3 41 41 0 22.7-18.3 41-41 41zm111.7-108.4c-22.6 0-40.9-18.4-40.9-41 0-22.7 18.3-41 40.9-41 22.6 0 40.9 18.3 40.9 41 0 22.6-18.3 41-40.9 41zm0 108.4c-22.6 0-40.9-18.3-40.9-41 0-22.7 18.3-41 40.9-41 22.6 0 40.9 18.3 40.9 41 0 22.7-18.3 41-40.9 41zm111.6-216.9c-22.6 0-40.9-18.3-40.9-40.9 0-22.7 18.3-41 40.9-41 22.7 0 41 18.3 41 41 0 22.6-18.3 40.9-41 40.9zm0 108.5c-22.6 0-40.9-18.4-40.9-41 0-22.7 18.3-41 40.9-41 22.7 0 41 18.3 41 41 0 22.6-18.3 41-41 41zm0 108.4c-22.6 0-40.9-18.3-40.9-41 0-22.7 18.3-41 40.9-41 22.7 0 41 18.3 41 41 0 22.7-18.3 41-41 41z"/>
				<path id="Path 3" class="s1" d="m41.2 407.6c-22.7 0-41.1-18.3-41.1-41 0-22.7 18.4-41 41.1-41 22.7 0 41 18.3 41 41 0 22.7-18.3 41-41 41zm111.6-108.4c-22.7 0-41.1-18.4-41.1-41 0-22.7 18.4-41 41.1-41 22.7 0 41 18.3 41 41 0 22.6-18.3 41-41 41z"/>
				<path id="Path 4" class="s0" d="m152.8 407.6c-22.7 0-41.1-18.3-41.1-41 0-22.7 18.4-41 41.1-41 22.7 0 41 18.3 41 41 0 22.7-18.3 41-41 41z"/>
				<path id="Path 5" class="s1" d="m264.5 190.7c-22.6 0-40.9-18.3-40.9-40.9 0-22.7 18.3-41 40.9-41 22.6 0 40.9 18.3 40.9 41 0 22.6-18.3 40.9-40.9 40.9z"/>
				<path id="Path 6" class="s0" d="m264.5 299.2c-22.6 0-40.9-18.4-40.9-41 0-22.7 18.3-41 40.9-41 22.6 0 40.9 18.3 40.9 41 0 22.6-18.3 41-40.9 41z"/>
				<path id="Path 7" class="s2" d="m264.5 407.6c-22.6 0-40.9-18.3-40.9-41 0-22.7 18.3-41 40.9-41 22.6 0 40.9 18.3 40.9 41 0 22.7-18.3 41-40.9 41z"/>
				<path id="Path 8" class="s1" d="m376.1 82.3c-22.6 0-40.9-18.3-40.9-41 0-22.6 18.3-40.9 40.9-40.9 22.7 0 41 18.3 41 40.9 0 22.7-18.3 41-41 41z"/>
				<path id="Path 9" class="s0" d="m376.1 190.7c-22.6 0-40.9-18.3-40.9-40.9 0-22.7 18.3-41 40.9-41 22.7 0 41 18.3 41 41 0 22.6-18.3 40.9-41 40.9z"/>
				<path id="Path 10" class="s2" d="m376.1 299.2c-22.6 0-40.9-18.4-40.9-41 0-22.7 18.3-41 40.9-41 22.7 0 41 18.3 41 41 0 22.6-18.3 41-41 41z"/>
				<path id="Path 11" class="s3" d="m376.1 407.6c-22.6 0-40.9-18.3-40.9-41 0-22.7 18.3-41 40.9-41 22.7 0 41 18.3 41 41 0 22.7-18.3 41-41 41z"/>
				<path id="Path 12" fill-rule="evenodd" class="s1" d="m522 243.9v-208.8h-34.2v-34.7h92.5q38.3 0 57.4 4.4 19.1 4.8 33.5 23.4 14.6 18.7 14.6 44 0 19.3-8.7 34.9-8.5 15.6-25.5 23.6 23.3 8.1 35.9 26.7 12.5 18.5 12.5 42.3 0 20.6-9.5 37.3-9.2 16.8-24.5 26-15.6 9.2-33.8 12.5-18.4 3.1-50 3.1h-94.4v-34.7zm42-127.8h26.2q30 0 41.8-10.4 11.8-10.6 11.8-30.9 0-39.7-53.6-39.7h-26.2zm0 127.8h15.6q31.2 0 45.5-3.1 14.4-3.1 23.4-14.6 9.2-11.6 9.2-29.6 0-16.5-8.7-27.6-8.8-11.1-22.4-14.7-13.7-3.7-38.7-3.7h-23.9zm503.1 0v-208.8h-35.9v-34.8h231v83.9h-34.4v-49.1h-118.7v82.9h103.3v34.7h-103.3v91.2h118.7v-50.6h34.4v85.3h-231v-34.7zm257.2 0v-208.8h-37.7v-34.8h107.5q44.6 0 68.7 4.5 24.1 4.8 46.7 20.8 22.4 16.3 35.9 44.7 13.7 28.3 13.7 64.4 0 41.4-13 71.8-13.2 30.3-34.2 45.4-21 14.9-50.3 20.8-29 5.9-73.8 5.9h-101.2v-34.7zm42 0h21.9q36.8 0 58.3-4.8 21.4-4.4 36.3-15.5 14.6-11.1 23.8-33.6 9.2-22.4 9.2-52.9 0-36.1-15.1-61.4-15.1-25.3-38.4-32.8-23.6-7.8-72.2-7.8h-23.8zm-611.4 0v-208.6h-39.9v-35h95.1l122 216.4v-181.4h-39.4v-35h114v35h-40.9v246.4h-43.1l-133.3-237.7v199.9h39.6v34.9h-114v-34.9zm-267.1 163.7v-74.2h40.6v9.2h-30v22.9h26.2v9.2h-26.2v23.9h31.4v9zm67.5-74.2v65.2h30.4v9.2h-41v-74.4zm41.8 74.2v-74.2h40.5v9.2h-29.9v22.9h26.2v9.2h-26.2v23.9h31.4v9zm48.1-74.2h11.8l15.3 49.6c1 3.1 4.3 13 4.7 16.1h0.5c0.7-3.1 3.8-13 4.7-16.3l15.4-49.4h11.1l-24.1 74.2h-15.3zm100 0l23.6 74.1h-11.3l-6.2-20.3h-28.3l-6.3 20.3h-10.9l23.6-74.1zm-19.4 44.6h22.7l-6.4-20.6c-1.4-4.4-4.2-13.7-4.7-16.5h-0.5c-0.4 2.6-3.3 12.1-4.4 16.3zm58.9-35.7h-19.3v-8.9h49.5v8.9h-19.3v65.2h-10.9zm41.8-9.2h10.6v74.2h-10.6zm40.6 13.2c0.2 3.3 0.5 15.8 0.5 21.5v39.7h-10.2v-74.2h13.9l22.2 41.8c1.7 3.3 8 15.4 9 18.5h0.7c-0.2-4.5-0.2-18.9-0.2-22.2v-38.1h9.9v74.2h-13.7l-22.7-42.5c-1.4-3.3-7.5-14.9-8.7-18.7zm115.4-7.1l-6.9 7.8c-3-2.8-7.5-5.2-14.8-5.2-10.4 0-21.3 5.7-21.3 27.9 0 21.3 7.3 29.8 21.3 29.8 4 0 8.7-0.7 11.3-2.4v-27.4h10.6v32.1c-4.9 4-12.3 6.9-24.3 6.9-19.8 0-30-12.8-30-37.8 0-26.9 14.7-38.5 32.8-38.5 13 0 18.9 4.5 21.3 6.8zm47.6 68.3v-74.2h40.6v9.2h-29.9v22.7h26.1v9.2h-26.1v23.9h31.3v9.2zm57.1-74.2h20.3c22.9 0 33.3 11.6 33.3 36.2 0 22.6-9.2 38-33.3 38h-20.3zm10.7 65h9.2c16 0 22.6-8.5 22.6-27.7 0-21-8.5-28.1-22.9-28.1h-8.9zm101.4-16.1v-48.8h10.6v47.4c0 19.2-11.3 27.9-27.8 27.9-17.5 0-26.2-10.2-26.2-26v-49.3h10.6v47.4c0 12.6 6.2 18.5 16.8 18.5 9.9 0 16-4.8 16-17.1zm56.9-49.8c12.2 0 18.4 4.7 20.7 6.9l-6.8 8c-2.8-2.8-7.1-5.4-14.9-5.4-12 0-19.1 8.7-19.1 28.3 0 18.7 6.9 28.8 20.1 28.8 7.3 0 11.5-2.3 14.1-4.9l5.9 7.5c-3 3.3-9.9 7.1-21.2 7.1-21 0-29.7-15.1-29.7-37.6 0-24 10.6-38.7 30.9-38.7zm64.2 1l23.6 74.1h-11.4l-6.1-20.3h-28.3l-6.4 20.3h-10.8l23.5-74.1zm-19.3 44.6h22.7l-6.4-20.6c-1.4-4.4-4.3-13.7-4.7-16.5h-0.5c-0.5 2.6-3.3 12.1-4.5 16.1zm59-35.5h-19.4v-9.2h49.6v9.2h-19.4v65h-10.8zm41.8-9.2h10.6v74.4h-10.6zm55.9 75.3c-17.7 0-28.6-10.3-28.6-37.7 0-27.2 11.8-38.6 29.5-38.6 18 0 29 10.4 29 37.8 0 27.2-11.8 38.5-29.9 38.5zm0.9-9.4c11.1 0 18-6.9 18-28.3 0-22-7.1-29.3-18.7-29.3-10.6 0-17.9 6.6-17.9 28.3 0 22 7.3 29.3 18.6 29.3zm54.3-52.9c0.5 3.3 0.5 15.8 0.5 21.5v39.7h-10.2v-74.2h14.2l21.9 41.8c1.7 3.3 8 15.4 9.2 18.4h0.5c-0.2-4.5-0.2-18.9-0.2-22.2v-38h10.1v74.2h-13.9l-22.4-42.6c-1.7-3.3-7.6-14.8-9-18.6z"/>
			</g>
		</g>
	</g>
</svg>