<svg version="1.2" baseProfile="tiny-ps" xmlns="http://www.w3.org/2000/svg" viewBox="0 0 1528 680" width="1528" height="680">
	<title>BroadstoneNetLease_navy_Updatd-svg</title>
	<style>
		tspan { white-space:pre }
		.shp0 { fill: #173660 } 
		.shp1 { fill: #ffffff } 
	</style>
	<g id="#173660ff">
		<path id="Layer" class="shp0" d="M0.05 353.07C357.5 242.27 715.16 132.31 1072.71 21.83C1073.5 98.46 1072.66 175.15 1073.19 251.79C1046.46 242.11 1019.58 232.85 992.91 223.07C982.61 219.95 971.99 214.29 961.06 217.83C701.64 281.09 442.37 345.14 182.89 408.13C182.89 498.36 182.68 588.58 183 678.81C122.1 676.12 61.1 679.71 0.15 679.34C0.26 570.55 0.47 461.81 0.05 353.07Z" />
		<path id="Layer" class="shp0" d="M1104.72 23.94C1226.24 76.14 1347.72 128.72 1469.19 181.13C1469.3 251.05 1468.93 320.91 1469.35 390.83C1347.61 348.47 1226.08 305.36 1104.51 262.58C1104.72 183.03 1104.35 103.49 1104.72 23.94Z" />
		<path id="Layer" class="shp0" d="M216.85 434.41C462.28 374.28 707.82 314.51 953.14 253.9C953.35 395.7 953.19 537.44 953.24 679.24C707.76 679.29 462.23 679.18 216.75 679.29C216.85 597.68 216.64 516.02 216.85 434.41Z" />
		<path id="Layer" class="shp0" d="M985.51 256.07C1166.09 320.28 1347.08 383.22 1527.71 447.32C1527.87 524.64 1527.66 602.02 1527.81 679.34C1347.08 679.08 1166.35 679.29 985.62 679.24C985.57 538.18 985.83 397.13 985.51 256.07Z" />
	</g>
	<g id="#ffffffff">
		<path id="Layer" class="shp1" d="M1072.71 21.83C1068.91 8.55 1084.28 -5.09 1096.37 2.79C1104.29 6.91 1105.4 15.9 1104.72 23.94C1104.35 103.49 1104.72 183.03 1104.51 262.58C1226.08 305.36 1347.61 348.47 1469.35 390.83C1489 397.29 1508.38 404.32 1527.87 411.25C1527.81 423.25 1527.76 435.26 1527.71 447.32C1347.08 383.22 1166.09 320.28 985.51 256.07C985.83 397.13 985.57 538.18 985.62 679.24C974.85 679.24 964.02 679.24 953.24 679.24C953.19 537.44 953.35 395.7 953.14 253.9C707.82 314.51 462.28 374.28 216.85 434.41C216.64 516.02 216.85 597.68 216.75 679.29C205.5 679.29 194.25 679.29 183 678.81C182.68 588.58 182.89 498.36 182.89 408.13C442.37 345.14 701.64 281.09 961.06 217.83C971.99 214.29 982.61 219.95 992.91 223.07C1019.58 232.85 1046.46 242.11 1073.19 251.79C1072.66 175.15 1073.5 98.46 1072.71 21.83Z" />
	</g>
</svg>