<svg version="1.2" baseProfile="tiny-ps" xmlns="http://www.w3.org/2000/svg" viewBox="0 0 1569 173" width="1569" height="173">
	<title>BioNTech_logo-svg</title>
	<style>
		tspan { white-space:pre }
		.shp0 { fill: #179e75 } 
		.shp1 { fill: #99d11e } 
	</style>
	<g id="g3641">
	</g>
	<g id="g9027">
		<path id="path5489" fill-rule="evenodd" class="shp0" d="M192.45 12.59C196.36 16.36 199.35 20.9 201.31 26.03C203.27 31.24 204.26 36.82 204.26 42.58L204.26 57.4C204.26 74.83 183.74 85.84 175.84 85.84C175.51 85.84 175.25 86.1 175.25 86.43C175.25 86.72 175.51 87.02 175.84 87.02C183.74 87.02 204.26 97.99 204.26 115.46L204.26 130.24C204.26 136.22 203.3 141.84 201.42 146.94C199.58 152 196.66 156.5 192.75 160.27C188.87 164.04 183.78 167.07 177.69 169.32C171.56 171.57 164.1 172.68 155.54 172.68L0.14 172.68L0.14 73.43L26.35 73.43L26.35 73.57L155.54 73.57C162.44 73.57 167.98 71.51 172 67.41C176.03 63.34 178.06 57.32 178.06 49.56C178.06 41.77 175.99 35.86 171.96 31.94C167.94 28.07 162.4 26.11 155.54 26.11L0.14 26.11L0.14 0.14L155.54 0.14C163.92 0.14 171.23 1.28 177.39 3.5C183.48 5.75 188.54 8.78 192.45 12.59M158.64 99.54L36.64 99.54L36.64 99.4L26.35 99.4L26.35 146.9L36.64 146.9L36.64 146.71L155.54 146.71C162.44 146.71 167.94 144.76 171.96 140.91C175.99 137 178.06 131.09 178.06 123.29C178.06 108.78 171.52 100.8 158.64 99.54ZM890.91 146.71L1095.04 146.71L1095.04 172.68L890.91 172.68L890.91 146.71ZM890.91 73.43L1095.04 73.43L1095.04 99.4L890.91 99.4L890.91 73.43ZM1151.66 21.34C1167.42 7.27 1192.52 0.14 1226.33 0.14L1331.9 0.14L1331.9 26.11L1227.52 26.11C1202.34 26.11 1183.74 31.28 1172.15 41.47C1160.48 51.71 1154.58 67.04 1154.58 86.98C1154.58 107.15 1160.45 122.33 1172.04 132.12C1183.52 141.8 1202.08 146.71 1227.18 146.71L1331.9 146.71L1331.9 172.68L1226.04 172.68C1208.87 172.68 1193.92 171.09 1181.6 167.95C1169.41 164.85 1159.23 159.83 1151.36 153.07C1143.5 146.34 1137.63 137.48 1133.83 126.8C1129.99 115.98 1128.07 102.72 1128.07 87.28C1128.07 57.54 1136.01 35.34 1151.66 21.34ZM950.15 0.14L1095.04 0.14L1095.04 26.11L950.15 26.11L950.15 0.14ZM1568.77 0.14L1568.77 172.68L1542.42 172.68L1542.42 99.54L1391.11 99.54L1391.11 172.68L1364.9 172.68L1364.9 73.43L1542.42 73.57L1542.42 0.14L1568.77 0.14ZM478.6 21.34C494.4 35.34 502.37 57.54 502.37 87.28C502.37 102.68 500.41 115.98 496.61 126.8C492.81 137.48 486.9 146.34 479.08 153.07C471.18 159.83 460.95 164.85 448.7 167.95C436.26 171.09 421.38 172.68 404.4 172.68L394.14 172.68C376.98 172.68 362.03 171.09 349.74 167.95C337.52 164.85 327.37 159.83 319.5 153.07C311.64 146.34 305.74 137.48 301.93 126.8C298.13 115.98 296.18 102.72 296.18 87.28C296.18 57.54 304.15 35.34 319.8 21.34C335.52 7.27 360.62 0.14 394.44 0.14L404.11 0.14C437.7 0.14 462.76 7.27 478.6 21.34ZM475.87 87.28C475.87 67.52 470 52.26 458.44 41.92C446.93 31.61 428.65 26.29 404.14 26.11L395.62 26.11C370.48 26.11 351.88 31.28 340.25 41.47C328.62 51.71 322.68 67.04 322.68 86.98C322.68 107.15 328.55 122.33 340.14 132.12C351.62 141.8 370.19 146.71 395.32 146.71L403.22 146.71C428.36 146.71 446.89 141.88 458.41 132.27C470 122.59 475.87 107.48 475.87 87.28ZM237.26 0.14L263.51 0.14L263.51 172.68L237.26 172.68L237.26 0.14Z" />
		<path id="path5491" class="shp1" d="M713.29 26.11L802.1 26.11L802.1 172.68L828.31 172.68L828.31 26.11L917.12 26.11L917.12 0.14L713.29 0.14L713.29 26.11Z" />
		<path id="path5493" class="shp1" d="M713.32 135.48L562.79 0.14L535.41 0.14L535.41 172.72L561.58 172.72L561.58 35.6L714.21 172.72L739.49 172.72L739.49 59.13L713.32 59.13L713.32 135.48Z" />
	</g>
	<g id="g5515">
	</g>
</svg>