<svg version="1.2" baseProfile="tiny-ps" xmlns="http://www.w3.org/2000/svg" viewBox="0 0 1136 1531" width="1136" height="1531">
	<title>BOMN_original-svg</title>
	<style>
		tspan { white-space:pre }
		.shp0 { fill: #000000 } 
	</style>
	<g id="#000000ff">
		<path id="Layer" fill-rule="evenodd" class="shp0" d="M1.9 1.72C185.5 0 369.28 0.86 553.05 1.2C696.92 6.68 853.12 23.13 969.41 116.31C1115.85 232.79 1140.51 459.58 1048.03 616.31C1014.8 676.94 954 712.57 897.82 748.71C977.64 775.61 1054.02 822.71 1093.76 899.79C1152.85 1016.27 1143.77 1157.07 1102.32 1277.83C1056.08 1396.53 938.76 1466.25 822.46 1502.39C678.25 1539.22 528.22 1528.94 380.92 1530.14C254.7 1529.45 128.64 1532.02 2.41 1529.11C-0.84 1020.04 0.19 510.79 1.9 1.72ZM318.75 247.86C319.78 376.16 320.47 504.62 318.41 632.92C408.33 635.83 498.42 636.86 588.33 631.89C644.68 630.01 702.4 610.14 741.45 568.17C794.37 501.88 794.2 404.25 756.87 330.59C722.78 272.7 651.88 250.26 588.16 248.2C498.42 244.43 408.5 245.29 318.75 247.86ZM318.41 881.29C320.29 1015.58 320.12 1149.7 318.24 1284C413.81 1286.91 509.72 1286.74 605.29 1284.51C676.37 1281.26 762 1261.21 794.37 1189.96C852.26 1084.44 811.5 912.12 680.14 888.66C560.76 871.36 438.81 883.01 318.41 881.29Z" />
	</g>
</svg>