<svg version="1.2" baseProfile="tiny-ps" xmlns="http://www.w3.org/2000/svg" viewBox="0 0 1513 1592" width="1513" height="1592">
	<title>bok-financial-svg</title>
	<style>
		tspan { white-space:pre }
		.shp0 { fill: #c41230 } 
	</style>
	<g id="Layer_1">
		<path id="Layer" fill-rule="evenodd" class="shp0" d="M602.8 317.53C593.43 316.6 584 316.72 574.66 317.87C565.32 319.03 556.14 321.22 547.29 324.4C538.43 327.59 529.96 331.74 522.02 336.8C514.08 341.85 506.73 347.77 500.1 354.45L202.42 654.91L283.39 734.41L603.39 411.62C605.58 409.56 607.98 407.74 610.55 406.19C613.12 404.64 615.85 403.37 618.69 402.39C621.53 401.42 624.47 400.75 627.45 400.4C630.43 400.05 633.45 400.02 636.43 400.31L888.57 400.31C895.45 401.29 902.23 402.95 908.79 405.26C915.35 407.56 921.67 410.51 927.66 414.05C933.64 417.59 939.27 421.71 944.45 426.36C949.63 431 954.34 436.14 958.52 441.7L1506.25 961.91C1507.06 977.81 1507.62 993.72 1507.92 1009.64C1508.23 1025.55 1508.28 1041.47 1508.09 1057.39C1507.89 1073.31 1507.44 1089.22 1506.73 1105.12C1506.03 1121.03 1505.07 1136.92 1503.87 1152.79L1143.38 1525.01C1143.08 1525.31 1127.31 1542.28 1107.96 1559.55C1094.26 1572.06 1076.4 1591.71 1057.35 1591.71L482.24 1591.71C448.3 1588.14 428.36 1570.27 398.59 1542.58L18.16 1182.27C4.47 1163.21 0.89 1097.4 0.89 1044.1C0.89 1023.55 0.89 1004.5 0.89 989.01L441.75 1408.58C467.06 1432.7 494.15 1464.26 545.64 1464.26L1027.58 1464.26C1036.15 1464.73 1044.74 1464.13 1053.16 1462.49C1061.57 1460.84 1069.76 1458.17 1077.52 1454.52C1085.28 1450.87 1092.56 1446.27 1099.2 1440.84C1105.84 1435.4 1111.78 1429.17 1116.89 1422.28L1443.14 1092.94L1443.14 1079.24L1358.01 1002.11L1076.4 1287.68C1024.9 1343.37 988.59 1391.01 941.26 1391.01C869.52 1391.01 588.81 1391.01 538.5 1391.01C516.77 1391.01 498.91 1374.04 474.8 1349.92L39.29 938.99C32.42 931.69 26.32 923.69 21.11 915.12C15.89 906.56 11.59 897.47 8.26 888C4.94 878.54 2.61 868.76 1.33 858.81C0.04 848.86 -0.21 838.81 0.6 828.81C0.6 812.13 0.6 735.9 0.6 728.16L546.24 1245.4C550.18 1248.52 554.4 1251.26 558.84 1253.6C563.29 1255.94 567.94 1257.85 572.75 1259.33C577.55 1260.8 582.48 1261.83 587.47 1262.39C592.46 1262.95 597.49 1263.04 602.5 1262.67L919.53 1262.67C927.39 1262.92 935.25 1262.36 943 1261C950.74 1259.65 958.33 1257.49 965.63 1254.58C972.94 1251.67 979.93 1248.01 986.48 1243.67C993.04 1239.32 999.13 1234.31 1004.66 1228.72L1291.62 939.88L1203.81 856.5L935.9 1132.54C917.15 1149.81 879.94 1188.82 855.23 1188.82L601.01 1188.82C597.13 1188.95 593.24 1188.67 589.41 1187.99C585.58 1187.3 581.84 1186.23 578.23 1184.77C574.63 1183.31 571.19 1181.48 567.96 1179.31C564.74 1177.14 561.75 1174.64 559.04 1171.85L0.6 639.72L0.6 467.9C0.6 448.55 21.43 430.38 35.42 416.69L424.19 22.73C427.95 18.98 432.09 15.65 436.55 12.78C441.01 9.9 445.76 7.51 450.73 5.65C455.69 3.78 460.84 2.44 466.09 1.66C471.33 0.88 476.65 0.65 481.94 0.99L1004.66 0.99C1063.01 0.99 1095.75 36.43 1127.31 69.48L1484.52 408.65C1508.33 435.45 1510.71 509.3 1510.71 547.11C1510.71 567.66 1510.71 588.21 1510.71 608.16L1021.93 143.33C1019.13 141 1016.14 138.91 1012.99 137.1C1009.84 135.29 1006.53 133.75 1003.11 132.51C999.69 131.27 996.17 130.32 992.59 129.69C989.01 129.06 985.38 128.74 981.74 128.74L482.54 128.74C436.99 130.52 415.56 160.3 387.58 190.08L55.37 519.42L132.47 589.4L503.97 215.39C517.07 200.2 538.5 200.2 564.99 200.2L972.51 200.2C983.53 200.8 993.65 206.75 1016.27 227.9L1500.59 687.37C1518.75 710 1510.12 859.18 1510.12 873.48L932.92 334.5C930.98 332.03 928.77 329.76 926.35 327.75C923.93 325.74 921.31 323.99 918.52 322.53C915.73 321.08 912.79 319.92 909.76 319.07C906.73 318.23 903.62 317.71 900.48 317.53L602.8 317.53ZM607.86 536.39C559.34 584.33 350.96 797.24 350.96 797.24L635.54 1061.97L859.99 1061.97C877.26 1061.97 889.16 1046.48 908.51 1026.83L1137.72 793.97C1137.72 793.97 970.13 630.79 892.44 555.75C888.63 550.09 884.26 544.83 879.4 540.04C874.55 535.26 869.22 530.97 863.51 527.24C857.79 523.52 851.72 520.38 845.38 517.86C839.05 515.35 832.47 513.48 825.76 512.27L652.81 512.27C648.51 512.81 644.27 513.74 640.15 515.06C636.02 516.38 632.03 518.08 628.22 520.14C624.41 522.2 620.8 524.61 617.43 527.33C614.07 530.06 610.96 533.09 608.16 536.39L607.86 536.39Z" />
	</g>
</svg>