<svg version="1.2" xmlns="http://www.w3.org/2000/svg" viewBox="0 0 1031 1559" width="1031" height="1559">
	<title>boohoo-groupplc-logo-black-svg</title>
	<style>
		.s0 { fill: #ffffff } 
	</style>
	<g id="#060606ff">
		<path id="Layer" fill-rule="evenodd" class="s0" d="m0 0h158c0 178.2-0.1 356.4 0 534.6 29-11.1 59.8-17.2 90.9-17.1 178.6 0.1 357.2 0 535.7 0 50.7 0.4 100.9 17 141.7 47 54.2 39.4 91 101.1 101.2 167.2 4 22.6 2.6 45.5 2.8 68.3 0 166.1 0 332.2 0.1 498.2 2.1 69.8-25.8 140.1-75.8 188.9-39.3 39.8-92.9 65.3-148.7 70.3-13.4 1.1-26.8 1.4-40.2 1.4-172.3-0.2-344.6 0.1-516.9-0.2-58.2 0.2-116.4-20.9-160.2-59.3-51.9-44.3-83.9-110-88.6-177.8zm308.9 679.6c-61.6 2.9-117.6 46.2-139.2 103.5-9.3 23-12.3 48.2-11.8 72.9q0.1 189.8 0 379.6c0.1 35.5 11.3 70.9 32.4 99.5 28.3 39.5 75.4 65.2 124.2 65.7q200.8-0.1 401.5 0c27.3-0.2 54.3-8.1 77.6-22 51.3-30.3 82.7-90.2 79.5-149.5 0-130.6 0-261.2 0.1-391.8-1.1-38-16.1-75.4-41.2-103.9-29.4-34.1-73.9-54.8-119.1-54.3-134.6 0.2-269.3-0.3-404 0.3z"/>
	</g>
</svg>