<svg version="1.2" xmlns="http://www.w3.org/2000/svg" viewBox="0 0 1558 191" width="1558" height="191">
	<title>Logo_of_Björn_Borg_AB-svg</title>
	<style>
		.s0 { fill: #ffffff } 
	</style>
	<g id="Layer">
		<g id="Layer">
			<path id="Layer" class="s0" d="m1480.1 133c14.9 15.4 34.9 25.7 56.9 27.2-15.4 18.5-37.9 29.8-63.6 29.8-46.2 0-83.6-37.5-83.6-83.7 0-43.1 32.8-78.6 74.9-83.2q-10.8 22.3-10.8 44.7c0 25.7 10.8 48.8 26.2 65.2zm5.1-108.9c40.6 5.2 72.4 40.1 72.4 82.7 0 12.8-3.1 25.7-8.8 36.5q-2.3 0-4.6 0c-19.5 0-37.4-8.8-50.8-22.1-13.3-13.9-22-32.9-22-53.4 0-14.4 4.1-29.3 13.8-43.7z"/>
		</g>
		<g id="Layer">
			<g id="Layer">
				<path id="Layer" fill-rule="evenodd" class="s0" d="m515.3 168.9h-32.4l-28.7-43.6h-37.5v43.6h-27.2v-127.8h72.9c24.6 0 43.1 17.9 43.1 42.1 0 15.4-8.2 29.8-21.5 37l-0.5 0.5zm-98.6-67.3h45.2c10.2 0 17.4-7.7 17.4-18 0-10.8-7.2-17.9-17.4-17.9h-45.2zm243.3 67.2h-22.1l-75.9-87.3v87.3h-26.2v-127.8h24.6l73.9 84.7v-84.7h25.7zm-578.4 0h-81.6v-127.9h76c22 0 37.4 15.4 37.4 37 0 7.7-2.5 15.9-7.2 22l-0.5 0.5 0.5 0.6c8.8 7.2 13.9 17.9 13.9 29.7-0.5 22.1-15.9 38.1-38.5 38.1zm-55.4-23.7h52.8c10.3 0 14.4-7.7 14.4-14.9 0-7.2-4.6-14.9-14.4-14.9h-52.8zm0-52.3h47.7c9.8 0 13.9-7.2 13.9-14.4 0-7.2-4.1-14.4-13.9-14.4h-47.7zm797 76h-81.1v-127.9h75.9c22.1 0 37.5 15.4 37.5 37 0 7.7-2.6 15.9-7.2 22.1l-0.5 0.5 0.5 0.5c8.7 7.2 13.9 18 13.9 29.8-0.5 22.1-16.4 38-39 38zm-54.9-23.6h52.8c9.8 0 14.4-7.7 14.4-14.9 0-7.2-4.6-14.9-14.4-14.9h-52.8zm0-52.4h47.7c9.7 0 13.8-7.2 13.8-14.4 0-7.2-4.1-14.3-13.8-14.3h-47.7zm395.1 76h-32.3l-28.8-43.7h-37.4v43.7h-27.2v-127.9h72.9c24.6 0 43.1 18 43.1 42.1 0 15.4-8.2 29.8-21.6 37l-0.5 0.5zm-98.5-67.3h45.1c10.3 0 17.5-7.7 17.5-18 0-10.8-7.2-17.9-17.5-17.9h-45.1zm176 69.8c-38 0-68.3-29.3-68.3-66.8 0-36.9 30.8-66.7 68.3-66.7 23.6 0 45.2 10.8 57.5 29.3l-20.6 14.8c-8.2-11.8-22-19-36.9-19-23.1 0-41.1 18-41.1 41.6 0 23.2 18.5 41.6 41.1 41.6 13.8 0 27.2-5.6 34.9-14.3v-13.9h-39v-23.6h64.1v46.7c-11.8 18.5-35.4 30.3-60 30.3zm-1079.8 0c-14.8 0-24.6-3.6-34.4-12.8l17-18c4.6 4.1 9.7 6.2 16.4 6.2 12.8 0 19.5-7.2 19.5-19.6v-86.2h26.7v86.8c0 14.8-4.1 25.6-12.8 32.8-7.7 6.7-19.5 10.8-32.4 10.8zm158.6-142.3c-7.9 0-14.4-6.4-14.4-14.3 0-8 6.5-14.4 14.4-14.4 8 0 14.4 6.4 14.4 14.4 0 7.9-6.4 14.3-14.4 14.3zm-44.6 0c-8 0-14.4-6.4-14.4-14.3 0-8 6.4-14.4 14.4-14.4 7.9 0 14.3 6.4 14.3 14.4 0 7.9-6.4 14.3-14.3 14.3zm672.2 142.3c-37.7 0-68.2-29.8-68.2-66.8 0-36.9 30.5-66.7 68.2-66.7 37.8 0 68.3 29.8 68.3 66.7 0 37-30.5 66.8-68.3 66.8zm41.1-66.8c0-23-18.4-41.6-41.1-41.6-22.7 0-41 18.6-41 41.6 0 23 18.3 41.6 41 41.6 22.7 0 41.1-18.6 41.1-41.6zm-691.3 66.8c-37.7 0-68.2-29.8-68.2-66.8 0-36.9 30.5-66.7 68.2-66.7 37.8 0 68.3 29.8 68.3 66.7 0 37-30.5 66.8-68.3 66.8zm41.1-66.8c0-23-18.4-41.6-41.1-41.6-22.7 0-41 18.6-41 41.6 0 23 18.3 41.6 41 41.6 22.7 0 41.1-18.6 41.1-41.6z"/>
			</g>
		</g>
	</g>
</svg>