<svg version="1.2" xmlns="http://www.w3.org/2000/svg" viewBox="0 0 1600 421" width="1600" height="421">
	<title>logo_blueedd-svg</title>
	<style>
		.s0 { fill: #ffffff } 
	</style>
	<g id="#008aceff">
		<path id="Layer" fill-rule="evenodd" class="s0" d="m0 0h232.5c15.7 1.2 33.7 3.9 43.8 17.3 8.7 11.9 10.3 27.2 10.6 41.4 0 34.6-0.1 69.2 0 103.8 0 12.5-0.6 25.9-7.4 36.9-3.7 6.4-10.1 10.5-16.2 14.4 15.4 6.5 23.5 22.9 23.7 39.1 0.9 33.8 0.2 67.7 0.5 101.5-0.1 17.1-0.2 35.9-10.6 50.4-8.5 11.5-23.5 15.1-37 16.2h-239.9zm40.7 37c-0.4 52.7 0 105.4-0.2 158.1q90.4 0 180.8 0c7.3-0.1 15.6-1 21-6.4 5.1-5.7 4.8-13.9 5-21-0.2-36.4 0.1-72.9-0.2-109.3 0.4-8.6-4.5-17.8-13.4-19.6-14.7-2.6-29.8-0.5-44.7-1.4-49.4-0.2-98.9 0.4-148.3-0.4zm-0.1 195.1c-0.1 51 0 102-0.1 153 60.4-0.1 120.7 0 181 0 7.5 0 15.9-0.6 21.4-6.4 4.9-5 4.5-12.6 4.7-19.1 0-34.6 0-69.2 0-103.8-0.1-6.2-0.5-13.3-5.3-17.9-6.4-6-15.7-5.4-23.7-5.7-59.4-0.1-118.7 0.1-178-0.1z"/>
		<path id="Layer" fill-rule="evenodd" class="s0" d="m335.2 0h263.9c0 12.5 0 25-0.1 37.6-74.6-0.4-149.1 0.1-223.7-0.2 0.2 51.6 0 103.2 0.1 154.8 61.9 0 123.9 0.1 185.8 0q0.1 18.6-0.1 37.3-92.8 0-185.7 0c0 51.9 0 103.7 0 155.6 74.5-0.1 149.1 0 223.7-0.1q0 18 0 36h-263.9q0-210.5 0-421zm302.6 0h232.7c13.5 1.3 28.3 3.4 38.7 12.8 12.2 11.7 14.1 29.8 14.5 45.7 0.1 47.2 0 94.3 0.1 141.4-0.3 15-1.6 31.3-10.9 43.7-8.3 10.8-22.5 14.6-35.5 15.8-20 1.5-40.1 0.6-60.1 0.8 35.1 53.4 69.4 107.5 104.7 160.8h-42.7c-35.1-53.4-69.6-107.2-104.5-160.8-32.3 0-64.6 0.1-96.9 0 0.1 53.6 0 107.2 0 160.8h-40.1q0-210.5 0-421zm40.2 37.6q-0.1 92.9 0 185.9c60.3-0.2 120.6-0.1 181-0.1 6.9-0.1 14.9-0.4 20.1-5.9 5.1-5.4 4.8-13.4 5.1-20.3q0-66.7 0-133.3c-0.3-6.9-0.2-14.8-5.2-20.3-5.2-5.5-13.2-5.8-20.2-6-60.3-0.2-120.6-0.2-180.8 0zm344.5-37.6h189.3c13.6 1.3 28.5 3.4 38.9 13.1 11.4 11.1 13.5 27.9 14.2 43 0.3 23.4 0.1 46.7 0.1 70q-19.7 0-39.5 0c-0.1-20.7 0-41.5 0-62.3-0.3-6.9-0.3-14.8-5.3-20.2-5.1-5.4-13.2-5.7-20.1-6.3-56.1 0.3-112.2 0-168.3 0.3-6.9 0.3-14.9 1-19.7 6.6-4.5 5.4-4.4 13-4.7 19.7 0.1 98.6 0 197.3 0 295.9 0.3 6.6 0.5 14.1 5.3 19.2 5.7 5.7 14.4 5.9 22 6.1 55.1-0.1 110.3 0 165.4 0 7.4-0.2 16.3-0.8 21.3-7.2 4.3-6 3.8-13.8 4.1-20.8-0.1-36.5 0.1-73.1-0.1-109.6-35.9 0.9-71.7 0.4-107.5 0.6-0.3-12.4-0.2-24.8-0.1-37.2 49.1 0.1 98.1 0.1 147.2 0q0.1 75.7 0 151.5c-0.4 15.4-1.9 32.5-12.6 44.6-9 10.2-23.2 13.1-36.2 14h-200.7c-12.9-1-27.2-4-36-14.4-11.1-12.8-11.8-30.8-12.4-46.9 0.1-99.4 0-198.9 0-298.4 0.6-16.1 1.7-34.1 13-46.7 10.8-11.3 27.5-13.6 42.4-14.6zm338.9 0h185.6c13.8 1.4 29 3.5 39.4 13.6 9.7 9.5 11.8 23.8 13.6 36.6v-10 85.9c-13.3 0-26.5 0-39.7 0-0.2-20.7 0.2-41.4-0.2-62.1-0.6-7.2-0.3-15.7-6-21.1-6.4-5.6-15.5-5.1-23.5-5.4-50.6-0.3-101.3 0.2-151.9 0-8.2 0.4-17.5-0.5-24.1 5.2-6.1 5.2-6 13.9-6.1 21.2 0.1 34.7 0 69.3 0 103.9 0.1 6.8 0.5 14.4 5.8 19.4 5.9 5.2 14.3 5.4 21.8 5.5 53.3-0.1 106.6 0 159.9 0 16.1 0.3 33.8 0.4 47.4 10.3 12 9 15.8 24.7 16.6 39v130.3c-0.8 12.7-3.5 26.4-12.9 35.8-9 9.4-22.5 11.9-35 12.9h-192.2c-13.8-0.6-29.1-3.5-38.6-14.6-9.5-11.5-11.5-27-11.6-41.4 0-23 0-46 0-69q19.6 0.1 39.1 0c0.1 20.4 0 40.8 0 61.2 0.3 7.4 0.1 15.8 5.3 21.6 5.6 5.9 14.3 6.1 21.8 6.3q78.7-0.1 157.4 0c7.6-0.2 16.3-0.3 22-6.1 5.4-5.9 5.1-14.5 5.4-21.9q-0.1-49.4 0-98.8c-0.2-7.5 0-16-5.2-22.1-5.5-6-14.4-6.1-22-6.3-55.2 0-110.4 0-165.7 0-15.8-0.6-33.6-1.8-45.5-13.6-11.6-12-12.9-29.8-13.5-45.6-0.2-36.5-0.1-73-0.1-109.4 0.6-16 1.5-33.8 12.7-46.4 10.1-11 25.9-13.4 40-14.9z"/>
	</g>
</svg>