<svg version="1.2" xmlns="http://www.w3.org/2000/svg" viewBox="0 0 1386 1585" width="1386" height="1585">
	<title>Broadmark_Identity_HORIZONTAL-svg</title>
	<style>
		.s0 { fill: #5b99c7 } 
		.s1 { fill: #e3b53b } 
		.s2 { fill: #30476b } 
	</style>
	<g id="#5b99c7ff">
		<path id="Layer" class="s0" d="m494.6 1.7c12.5-2.2 25.9-0.8 37 5.8 270.8 156.5 541.7 312.9 812.6 469.4 9.4 5.7 19.8 10.4 27.3 18.7 11.9 12.7 16.8 31.4 12.7 48.3-3.4 15-14 27.9-27.5 35.1-234.2 135.1-468.3 270.3-702.6 405.4 0.1-40.4 0.1-80.9 1-121.2 14.6-10.1 30.7-18 45.9-27.3 175-101.3 349.8-202.8 524.8-304-20.8-13.7-43-25.1-64.4-37.9-200.6-115.8-401-231.9-601.7-347.4-0.1 96.8 0.2 193.7 0.2 290.5-35.5-20.3-71-40.7-106.2-61.4-0.1-100-0.6-200.1-0.9-300.1 0.1-13.2-0.9-26.7 3-39.4 5.4-17.5 21.1-30.9 38.8-34.5z"/>
	</g>
	<g id="#e3b53bff">
		<path id="Layer" class="s1" d="m8.6 285.5c10-15.9 29.2-25.5 48-24.1 9.3 0.5 18.1 4 26 8.7 235.1 136 470.6 271.3 705.5 407.6-31.9 19.1-64.2 37.6-96.2 56.8-2.7 1.6-5.5 3.2-8.5 4.2-8.2-2.8-15.2-8.2-22.7-12.2-184.8-106.6-369.5-213.5-554.5-319.9q-0.2 385.7 0 771.4c84.7-48.3 168.7-97.9 253.7-145.8-0.3 39.4-0.3 78.9-0.9 118.4 0.8 3.9-2.7 5.7-5.4 7.5-91.4 52.5-182.6 105.4-274 158-17.2 10.1-40.1 9.4-56.5-2.2-11.8-7.6-18.6-20.6-23.1-33.7v-979.9 3.1c2.9-5.9 5.1-12.2 8.6-17.9z"/>
	</g>
	<g id="#30476bff">
		<path id="Layer" class="s2" d="m453.6 715.4c35.6 20.2 70.9 40.8 106.2 61.3-0.4 220.6-0.6 441.2-1 661.8 222.7-128.1 445-257 667.5-385.4-84.3-49-168.9-97.5-253.3-146.4 35.1-20.7 70.3-41.1 105.4-61.7 90.1 51.9 180.2 104 270.4 156 7.5 4.4 15.4 8.3 21.4 14.6 12.6 12.5 18.1 31.5 14.2 48.7-3.2 15.3-13.7 28.5-27.3 35.9q-412.3 238.2-824.5 476.3c-8.8 5.2-19.1 7.6-29.2 8.1-14.6-1.6-29.1-8.2-38.5-19.7-8.1-9.6-12.5-22-12.4-34.5 0.4-271.7 0.8-543.3 1.1-815z"/>
	</g>
</svg>