<svg version="1.2" xmlns="http://www.w3.org/2000/svg" viewBox="0 0 1559 385" width="1559" height="385">
	<title>Broadmark_Identity_HORIZONTAL-svg</title>
	<style>
		.s0 { fill: #5b99c7 } 
		.s1 { fill: #e3b53b } 
		.s2 { fill: #ffffff } 
	</style>
	<g id="#5b99c7ff">
		<path id="Layer" class="s0" d="m120.2 0.4c3-0.5 6.3-0.2 9 1.4q98.7 57 197.4 114c2.3 1.4 4.8 2.6 6.6 4.6 2.9 3.1 4.1 7.6 3.1 11.7-0.8 3.7-3.4 6.8-6.7 8.5q-85.3 49.3-170.7 98.5c0.1-9.8 0-19.6 0.3-29.4 3.5-2.5 7.4-4.4 11.1-6.7 42.5-24.6 85-49.2 127.5-73.8-5-3.3-10.4-6.1-15.6-9.2-48.7-28.1-97.4-56.3-146.2-84.4 0 23.5 0 47.1 0 70.6q-12.9-7.4-25.8-14.9c0-24.3-0.1-48.6-0.2-72.9 0-3.2-0.2-6.5 0.8-9.6 1.3-4.3 5.1-7.5 9.4-8.4z"/>
	</g>
	<g id="#e3b53bff">
		<path id="Layer" class="s1" d="m2.1 69.4c2.4-3.9 7.1-6.2 11.6-5.9 2.3 0.1 4.4 1 6.4 2.1 57.1 33.1 114.3 65.9 171.4 99-7.8 4.7-15.6 9.2-23.4 13.8-0.7 0.4-1.3 0.8-2.1 1-1.9-0.6-3.6-1.9-5.5-2.9-44.9-25.9-89.7-51.9-134.7-77.7q0 93.7 0 187.3c20.6-11.7 41-23.7 61.6-35.4 0 9.6 0 19.2-0.2 28.8 0.2 0.9-0.6 1.4-1.3 1.8-22.2 12.8-44.4 25.6-66.6 38.4-4.1 2.4-9.7 2.3-13.7-0.5-2.9-1.9-4.5-5.1-5.6-8.2v-238 0.7c0.7-1.4 1.2-3 2.1-4.3z"/>
	</g>
	<g id="#30476bff">
		<path id="Layer" class="s2" d="m110.2 173.8c8.7 4.9 17.2 9.9 25.8 14.8-0.1 53.6-0.1 107.2-0.2 160.8 54.1-31.1 108.1-62.4 162.2-93.6-20.5-11.9-41.1-23.7-61.6-35.6 8.5-5 17.1-9.9 25.6-15 21.9 12.7 43.8 25.3 65.7 38 1.8 1 3.8 2 5.2 3.5 3.1 3 4.4 7.6 3.5 11.8-0.8 3.7-3.4 6.9-6.7 8.8q-100.1 57.8-200.3 115.6c-2.1 1.3-4.6 1.9-7.1 2-3.5-0.4-7.1-2-9.4-4.8-1.9-2.3-3-5.3-3-8.4q0.2-98.9 0.3-197.9z"/>
		<path id="Layer" fill-rule="evenodd" class="s2" d="m429.2 127.9q20.8 0 41.7 0c4.8 0 9.5-0.2 14.3 0.6 7.4 1.1 14.6 4.2 20 9.5 6.8 6.7 10.6 16.7 8.8 26.2-2 10.5-10.4 19.1-20.2 22.7 7.7 2 15.3 5.7 20.6 11.8 4.5 5 7 11.8 7.2 18.5 0.3 8.3-1.7 16.9-7 23.4-5.3 6.6-13.2 10.6-21.2 12.6-6 1.5-12.2 1.9-18.4 1.9q-20.2 0-40.4 0 0-57.2-0.1-114.4c0.1-3.7-1.9-7.5-5.3-9.1q0-1.9 0-3.7zm23.4 10.7c0 14.5 0 29.1 0.1 43.7 6.9 0 13.9 0 20.8 0 10.7-0.1 20.5-8.7 22.5-19.1 1.1-7.5-1.8-15.7-8-20.2-4.1-3.2-9.4-4.4-14.5-4.4-7 0-14 0-20.9 0zm0 55.1q0 25.3 0.1 50.7c7.3 0 14.5 0 21.8 0 7.2 0.4 14.8-1.4 20.1-6.5 9.5-8.8 10.7-25.4 1.9-35.1-5.8-6.3-14.7-8.8-23.1-9.1-6.9-0.1-13.9 0-20.8 0zm262.7-48c10.7-1.2 21.7-0.3 31.8 3.3 8.4 3.1 16.1 8.3 22.1 15 11.4 13.1 17.2 31.6 13 48.7-3.5 15.7-13.7 30-28 37.5-10.6 5.6-22.7 7.5-34.6 6.8-10.5-0.5-21-3.6-29.8-9.5-15.1-9.9-24.6-27.6-24.8-45.6 0-16.4 7.4-32.7 19.9-43.4 8.5-7.3 19.3-11.5 30.4-12.8zm1.5 10.7c-7.9 1.4-15.2 5.4-20.7 11.3-6.5 6.8-10.4 15.8-11.7 25-1.4 9.8-0.4 20.1 3.4 29.3 3.4 8 9.2 15 16.7 19.4 13.8 8.1 32.6 6.8 44.8-3.6 8.2-6.9 13.2-17.2 14.8-27.8 1.6-10.6 0.5-21.8-4.2-31.5-3.5-7.5-9.3-14-16.7-18-7.9-4.4-17.5-5.7-26.4-4.1zm-161.1-9.5q21-0.1 42.1 0c9.7 0.1 20 2.6 27 9.7 7.9 7.9 9.8 20.5 5.9 30.7-2.9 8-9.6 14.4-17.8 16.9 11.8 17 23.7 33.9 35.5 50.8q-9.5 0.1-18.9 0c-10.9-15.3-21.9-30.5-32.8-45.8q-9.1 0-18.1 0 0 23 0 45.9-8.8 0-17.5 0 0-44.6-0.1-89.3c-0.1-3.3 0.4-6.8-0.6-10-0.7-2.3-2.5-4.2-4.7-5.2q0-1.9 0-3.7zm22.9 51.7q4 0 8 0c4.2 0 8.4 0.3 12.5-0.9 6.3-1.9 11.7-6.8 13.9-13 2.5-6.7 1.5-14.7-3.3-20.1-3.7-4.3-9.4-6.6-15-7-5.3-0.3-10.7-0.1-16-0.2-0.1 13.8-0.1 27.5-0.1 41.2zm254.2-51.7q11.7 0 23.3 0c16.1 36.1 32.2 72.1 48.3 108.2q-9.6 0-19.2 0c-4.5-10.3-9-20.7-13.6-30.9-15.8 0-31.6-0.1-47.4 0-4.3 10.3-8.8 20.6-13.2 30.9-4.1 0-8.1 0-12.2 0 12.6-29.7 25.3-59.3 37.8-89 0.9-2.3 2-4.5 2.3-7 0.2-3.8-2.7-7-6-8.4q-0.1-1.9-0.1-3.8zm14.5 22.2c-6.2 14.8-12.5 29.6-18.7 44.4 12.9 0 25.8 0.1 38.7 0-6.7-14.8-13.2-29.7-20-44.4zm80.5-22.2c15.1 0 30.1 0 45.2 0.1 17.8 0.3 35.5 9.2 45.4 24.2 11.6 16.8 12 40.3 1.5 57.8-4 6.5-9.5 12.1-15.9 16.4-8.2 5.3-17.7 8.4-27.5 9.4-4.4 0.4-8.8 0.3-13.2 0.3q-15.1 0-30.1 0 0-47.7-0.1-95.5c0-3.6-1.8-7.4-5.2-8.9q-0.1-1.9-0.1-3.8zm23 10.5c-0.1 29.1 0 58.1-0.1 87.2 8.2-0.2 16.5 0.6 24.7-1 5.4-1 10.7-3 15.3-6 6.4-4.2 11.3-10.3 14.3-17.3 3.9-9.3 4.5-19.7 2.6-29.6-1.6-8.3-5.7-16.3-12.1-22.1-7.7-7.2-18.3-10.8-28.7-11.1-5.4-0.1-10.7 0-16-0.1zm105.2-10.5c7.4 0 14.8-0.1 22.3 0 10.1 19.1 20.3 38.2 30.5 57.2 4.4 8.2 8.7 16.4 13.2 24.4 14.6-27.2 29.4-54.4 44.1-81.6 5.5 0 11.1-0.1 16.6 0 0 36.1 0.1 72.2 0 108.3q-8.7-0.1-17.4-0.1c-0.2-28.6 0.1-57.3-0.1-86-3.2 5.3-6 10.9-9 16.3q-17.3 31.7-34.5 63.5-3.6 0-7.1 0c-14.2-26.6-28.3-53.2-42.6-79.7q0 43 0 85.9-5.3 0-10.5 0-0.1-47.7-0.1-95.5c0-3.6-1.8-7.5-5.3-8.9q-0.1-1.9-0.1-3.8zm191.6 0c7.8 0 15.6 0 23.3 0 16.1 36.1 32.2 72.1 48.3 108.2-6.4-0.1-12.8 0.1-19.1-0.1-4.8-10.2-9.1-20.6-13.7-30.8-15.8 0-31.6 0-47.4 0-4.4 10.3-8.7 20.6-13.3 30.8-4 0.2-8.1 0-12.1 0.1 12.5-29.5 25.1-58.9 37.5-88.3 0.9-2.4 2-4.7 2.5-7.2 0.5-3.9-2.5-7.5-6-8.9q0-1.9 0-3.8zm14.5 22.2c-6.2 14.8-12.5 29.6-18.7 44.4 12.9 0 25.8 0.1 38.6 0-6.7-14.8-13.1-29.7-19.9-44.4zm82.7-22.2c14 0 28-0.1 42 0 8.8 0.1 18.2 2.1 25.1 7.9 6.4 5.2 9.9 13.5 9.9 21.6 0 8.7-3.8 17.5-10.6 22.9-2.7 2.2-5.8 3.9-9.2 4.9 11.8 17 23.7 33.9 35.5 50.8-6.2 0-12.4 0.1-18.6 0-1.1-0.7-1.6-1.9-2.3-2.8-9.6-13.4-19.2-26.8-28.7-40.1-0.8-1-1.4-2.1-2.3-2.9-5.9-0.1-11.9 0-17.9 0 0 15.3 0.1 30.6 0 46-5.9-0.1-11.7 0-17.5-0.1 0-29.3-0.1-58.6-0.1-87.9-0.1-3.6 0.4-7.2-0.4-10.8-0.7-2.6-2.6-4.7-4.9-5.9q0-1.8 0-3.6zm22.9 10.5c0 13.8 0 27.5 0 41.2 5.5 0 11 0.2 16.5-0.1 9.4-0.8 17.7-8.6 19-18 0.9-5.9-0.7-12.3-5-16.6-4.2-4.4-10.5-6.4-16.6-6.5-4.6 0-9.2 0-13.9 0zm96.3-10.5q11.5 0 22.9 0c0 18.6 0 37.2 0 55.7 17.4-18.4 34.5-37.2 51.8-55.7q7.1 0 14.1 0c-13.2 14.3-26.6 28.5-39.9 42.8 15.2 21.8 30.5 43.6 45.7 65.4-6.3 0-12.6 0-18.9 0q-19.1-26.6-38.1-53.2c-4.3 4.5-8.5 9-12.8 13.5-0.8 1-2.2 1.9-1.9 3.4 0 12.1 0 24.2 0 36.2-5.9 0.2-11.7 0.1-17.6 0.1q0.1-47.7 0-95.5c0.1-3.7-1.9-7.4-5.3-9.1q0-1.8 0-3.6zm-730.1 182.5c5-5.3 13.5-6.2 19.9-3.1 4.8 2.3 7.3 7.5 7.8 12.6-1.9 0-3.7 0-5.6 0-0.6-2.6-1.2-5.5-3.3-7.4-2.4-2.3-6-2.6-9.2-2.1-3.4 0.5-6.2 3.1-7.5 6.2-2 4.3-1.7 9.1-1.7 13.7 0.1 4 0.9 8.2 3.6 11.3 1.7 2.2 4.5 3.3 7.2 3.3 2.7 0.1 5.6-0.4 7.7-2.3 2-1.9 2.6-4.6 3.1-7.2q2.9 0 5.7 0c-0.5 3.7-1.8 7.4-4.5 10-3.9 3.8-9.8 4.7-15.1 3.9-5.1-0.9-9.4-4.7-11.4-9.5-2.2-4.9-2-10.4-1.9-15.6 0.1-5 1.7-10.1 5.2-13.8zm-301.7-4.2q7.4-0.1 14.7 0c4 0 8.3 0.9 11.2 3.8 3.2 3.1 3.9 8.1 2.9 12.3-0.9 3.9-4.1 6.8-7.7 8.2 3.3 6.2 6.9 12.2 10.1 18.5q-3.1 0-6.1 0c-3.2-5.8-6.2-11.6-9.3-17.3-3.4-0.1-6.7 0-10-0.1-0.1 5.8-0.1 11.6-0.1 17.3q-2.8 0.1-5.6 0.1c-0.1-14.3 0-28.6-0.1-42.8zm5.7 4.6c0 5.4 0 10.8 0 16.2 4.5-0.3 9.2 0.8 13.5-0.9 4.7-2 5.7-8.8 2.6-12.5-1.7-2.1-4.5-2.7-7-2.8-3.1-0.1-6.1 0-9.1 0zm45.7-4.6c8.9 0 17.9 0 26.8-0.1q0.1 2.4 0.1 4.7-10.7 0-21.3 0c0 4.6 0 9.2 0 13.8q9.3 0 18.6 0 0 2.3-0.1 4.6c-6.1 0-12.3 0-18.5 0 0 5 0 10.1 0.1 15.2 7.1-0.1 14.3 0 21.5-0.1q0 2.4-0.1 4.7-13.5-0.1-27.1 0c-0.1-14.3 0-28.6 0-42.8zm57.7 1.7c0.3-0.5 0.3-1.3 0.9-1.7 1.6-0.1 3.2 0 4.7 0 5.5 14.2 11 28.5 16.3 42.8q-2.8 0-5.6 0c-1.5-3.7-2.8-7.5-4.1-11.2-6-0.1-12 0-18 0-1.4 3.7-2.7 7.4-4 11.2q-2.9 0-5.8-0.1c5.2-13.6 10.4-27.3 15.6-41zm-4.1 25.3c4.9-0.1 9.7 0 14.6-0.1q-3.7-9.9-7.3-19.9c-2.6 6.6-4.9 13.3-7.3 20zm42.7-27q2.8 0 5.7 0c0 12.7-0.1 25.4 0 38.2 6.7-0.1 13.5 0 20.2-0.1q0 2.3 0 4.7-12.9-0.1-25.9 0c-0.1-14.3 0-28.6 0-42.8zm31.6 0c11 0 22.1-0.1 33.1 0q0 2.3 0 4.6-6.9 0-13.8 0 0 19.1 0 38.2-2.8 0-5.5 0c-0.1-12.8-0.1-25.5-0.1-38.2q-6.8 0-13.7 0 0-2.3 0-4.6zm43.9 0c2.1 0 4.2 0 6.3-0.1 3.8 7.1 7.4 14.4 11.2 21.5 3.7-7.2 7.4-14.3 11.1-21.4q3.2-0.1 6.4 0c-4.7 8.6-9.5 17.3-14.2 26-0.5 0.8-0.5 1.7-0.5 2.7q0 7 0 14.1-2.8-0.1-5.6 0c-0.2-5.4 0.1-10.7-0.1-16-4.7-9-9.9-17.9-14.6-26.8zm135.7 0q2.4 0 4.9 0c5.5 14.2 11 28.5 16.4 42.8q-2.9 0-5.8-0.1c-1.3-3.7-2.8-7.4-4-11.1-6-0.1-12 0-17.9-0.1-1.5 3.8-2.8 7.5-4.1 11.3q-2.9 0-5.8 0c5.4-14.3 10.9-28.5 16.3-42.8zm-4.8 27c4.9-0.1 9.7 0 14.5-0.1-2.4-6.6-4.7-13.2-7.2-19.8-2.6 6.6-4.9 13.2-7.3 19.9zm41.5-27q7.8 0 15.7 0c3.5 0 7.2 0.6 10.1 2.8 6.8 4.8 6.7 16.9-0.7 21.1-3.3 1.9-7.2 2.2-11 2.1-2.8 0-5.6 0-8.4 0-0.1 5.6-0.1 11.2-0.1 16.7q-2.8 0.1-5.6 0.1c0-14.3 0-28.6 0-42.8zm5.6 21.4c3.5 0 7.1 0 10.6 0 2.5-0.1 5.2-0.7 6.9-2.6 2.2-2.4 2.4-6.1 1.4-9.1-1.2-3.2-4.6-5-7.9-5.1-3.6-0.1-7.3 0-10.9 0-0.1 5.6-0.1 11.2-0.1 16.8zm42.4 21.4c0-14.3-0.1-28.6 0-42.8q2.8 0 5.6 0c0 14.2 0 28.5 0 42.7q-2.8 0.1-5.6 0.1zm22-42.8c11-0.1 22.1 0 33.1-0.1q0 2.4 0 4.7-6.9 0-13.7 0 0 19.1 0 38.2-2.9 0-5.7-0.1c0-12.7 0.1-25.4 0-38.1-4.5 0-9.1 0-13.7 0q0-2.3 0-4.6zm57.7 0q2.5 0 5 0c5.4 14.3 10.9 28.5 16.3 42.8q-2.9 0-5.8 0c-1.4-3.8-2.7-7.5-4.1-11.2-6 0-11.9-0.1-17.9 0-1.3 3.7-2.7 7.4-4 11.1q-2.9 0.1-5.8 0.1c5.4-14.3 10.9-28.6 16.3-42.8zm2.4 7.1q-3.6 9.9-7.2 19.8c4.9 0.1 9.7 0 14.5 0.1-2.4-6.7-4.7-13.4-7.3-19.9zm34.3-7.1q2.8 0 5.7 0c0 12.7-0.1 25.4 0 38.2q10.1-0.1 20.3 0-0.1 2.3-0.1 4.6c-8.6 0-17.2-0.1-25.9 0-0.1-14.3 0-28.6 0-42.8z"/>
	</g>
</svg>