<svg version="1.2" xmlns="http://www.w3.org/2000/svg" viewBox="0 0 1154 1551" width="1154" height="1551">
	<title>Bitmap (14)-svg</title>
	<style>
		.s0 { fill: #ffffff } 
	</style>
	<g id="#000000ff">
		<path id="Layer" fill-rule="evenodd" class="s0" d="m0 64.3c0-30.2 22.1-60.9 53.5-63.4 27.4-1.1 54.8-0.5 82.3-0.4 31.1 0.4 57.7 29.5 55.9 60.4-0.1 186.4 0 372.7-0.1 559 47.5-72.6 113.7-134 193.2-170 94.5-42.8 201.9-51.7 303.9-37.5 104.3 14.8 202.4 64 278.9 135.8 87.9 80.2 151.4 187.7 173.9 304.9 26.8 140.2 10.1 292-62.3 416.7-75.5 128.7-200.5 232.4-347.7 266-101 22.5-208.9 19.7-307.3-13.5-96.4-32.4-177.8-101.2-232.6-186-0.1 43.3 0.4 86.7-0.2 130-0.5 31-29.9 56.2-60.3 55.6-27.5 0-55.2 2-82.4-1.7-29-5.2-47.2-33.3-48.7-61.3zm549.4 526.6c-63.6 3.8-126.5 22.6-180.2 57.1-59.3 38.4-108.5 92.7-139.5 156.2-40.3 84.7-47.3 183.4-26.3 274.2 20.6 87.3 75.1 164.7 147.3 217.3 58.3 43.2 130.2 66.7 202.5 70 80.2 5 162.9-12.5 231-56.1 77-49.7 138-126.3 162.9-215 21-74.7 21.2-155 0.9-229.8-26.2-95.1-93-177.2-178-226.4-66.3-38.7-144.7-52.1-220.6-47.5z"/>
	</g>
</svg>