<svg version="1.2" xmlns="http://www.w3.org/2000/svg" viewBox="0 0 1581 706" width="1581" height="706">
	<title>bry-logo-svg</title>
	<style>
		.s0 { fill: #ffffff } 
		.s1 { fill: #bed630 } 
		.s2 { fill: #97ca60 } 
		.s3 { fill: #69c086 } 
		.s4 { fill: #03b8a5 } 
		.s5 { fill: #00b0c3 } 
	</style>
	<path id="Layer" fill-rule="evenodd" class="s0" d="m967.6 430.1c-6.2 6.7-13.1 12.6-20.6 17.8-7.5 5.2-15.4 9.6-23.8 13.2-8.4 3.5-17.1 6.2-26.1 7.9-8.9 1.7-18 2.5-27.1 2.4q-7.9-0.1-15.7-0.8-7.8-0.7-15.5-2.2-7.7-1.4-15.3-3.5-7.6-2-14.9-4.8l-85.5 11.9v-398.8l90.5-11.1v155.1q36.1-37.2 77.4-37.2c8-0.2 16 0.5 23.9 2.1 7.9 1.6 15.5 4.1 22.8 7.5 7.3 3.4 14.2 7.6 20.5 12.5 6.3 4.9 12.1 10.6 17.1 16.8q32.9 39 32.8 103.9-0.1 64.8-40.5 107.3zm-65.5-158c-2.4-3.2-5.2-6.2-8.4-8.7-3.2-2.6-6.6-4.7-10.3-6.5-3.7-1.7-7.6-2.9-11.6-3.7-3.9-0.8-8-1.1-12.1-0.8q-6.4 0-12.6 1.3-6.3 1.2-12.2 3.6-6 2.5-11.3 6-5.4 3.5-10 7.9v121.2q4.7 2.9 9.8 5.2 5 2.2 10.4 3.7 5.3 1.4 10.8 2 5.5 0.7 11 0.5c4.3 0.2 8.6-0.1 12.8-1 4.2-0.8 8.3-2.1 12.3-3.9 3.9-1.8 7.6-4 10.9-6.7 3.4-2.6 6.5-5.7 9.1-9q4.3-6.1 7.5-12.7 3.2-6.6 5.3-13.7 2.1-7.1 2.9-14.4 0.9-7.4 0.5-14.7 0.4-7.3-0.3-14.6-0.7-7.3-2.6-14.4-1.9-7.1-4.8-13.8-3-6.7-7.1-12.8zm246 191h-90.9v-269.5l90.9-11.3v40.1q24.2-42.4 66.1-42.4 5.9 0 11.7 0.7 5.9 0.8 11.6 2.2 5.8 1.4 11.3 3.5 5.5 2 10.8 4.8l-18.3 80.2q-4-2-8.1-3.6-4.2-1.5-8.5-2.5-4.4-1.1-8.8-1.6-4.4-0.5-8.8-0.5-36 0-59 40.1zm333.8-13l-13.5 36c-13.8 38.9-29.9 66.1-48.1 81.3-5.1 4-10.5 7.5-16.2 10.6-5.7 3-11.7 5.5-17.9 7.4-6.1 2-12.4 3.4-18.8 4.3-6.4 0.8-12.9 1.1-19.4 0.7q-10.5 0.1-20.9-1-10.4-1.1-20.7-3.3-10.3-2.2-20.2-5.5-10-3.3-19.5-7.7l27.1-69q4.9 2.5 10.1 4.5 5.2 2.1 10.5 3.6 5.3 1.6 10.8 2.7 5.5 1 11 1.6 3.1 0.2 6.1-0.2 3.1-0.4 6-1.3 3-0.9 5.7-2.3 2.8-1.5 5.2-3.3 2.7-2.8 5.1-5.9 2.4-3.1 4.4-6.4 2-3.3 3.6-6.9 1.7-3.5 2.9-7.2l7.6-21.2-107.4-272.1h97.4l58.4 180.5 52.6-180.5h96.6z"/>
	<path id="Layer" fill-rule="evenodd" class="s0" d="m750.4 609.1h-24.5v-51.7h24c10.6 0 17 5.3 17 13.4q0.1 1.8-0.3 3.4-0.5 1.7-1.4 3.2-0.9 1.5-2.2 2.7-1.3 1.1-2.9 1.9c1.4 0.3 2.8 0.9 4 1.7 1.2 0.7 2.3 1.7 3.1 2.9 0.9 1.1 1.6 2.4 2.1 3.8 0.4 1.4 0.6 2.8 0.5 4.3 0 9.7-7.7 14.4-19.4 14.4zm5.5-36.4c0-3.4-2.6-5.3-7.5-5.3h-11.5v10.9h10.2c5 0 8.2-1.6 8.2-5.5zm2.9 20.7c0-3.5-2.7-5.7-8.8-5.7h-13.2v11.5h13.5c5.1 0 8.1-1.8 8.1-5.7zm31.5 15.8v-51.7h39v10.1h-27.6v10.5h24.4v10.1h-24.4v10.9h28v10.1zm92 0l-11-16.5h-8.8v16.5h-11.4v-51.7h23.7c12.1 0 19.5 6.4 19.5 17.5 0 1.8-0.2 3.5-0.6 5.2-0.5 1.7-1.3 3.3-2.3 4.7-1 1.5-2.2 2.7-3.6 3.8-1.4 1-3 1.8-4.7 2.4l12.7 18.4zm0-34.1c0-4.8-3.4-7.3-8.8-7.3h-11.2v14.8h11.5c5.5 0 8.7-2.9 8.7-7.3zm64.5 34.1l-11-16.5h-8.8v16.5h-11.4v-51.7h23.6c12.2 0 19.6 6.5 19.6 17.5 0.1 1.8-0.2 3.5-0.6 5.2-0.5 1.7-1.3 3.3-2.3 4.7-1 1.5-2.2 2.8-3.6 3.8-1.4 1-3 1.9-4.7 2.4l12.7 18.4zm0-34c0-4.9-3.4-7.4-8.8-7.4h-11.2v14.8h11.5c5.5 0 8.7-2.9 8.7-7.3zm59 13.6v20.5h-11.3v-20.4l-19.9-31.3h13.3l12.3 20.8 12.6-20.8h13zm-255.7 116.5c-3.5 0-6.9-0.7-10.1-2-3.2-1.3-6.1-3.3-8.6-5.7-2.4-2.5-4.4-5.4-5.7-8.6-1.3-3.2-2-6.6-2-10 0.2-5.4 2-10.6 5.1-15 3.2-4.4 7.5-7.8 12.5-9.8 5-2 10.5-2.4 15.8-1.4 5.2 1.1 10.1 3.7 13.9 7.5l-7.2 8.7q-1.3-1.3-2.8-2.4-1.5-1-3.2-1.8-1.7-0.7-3.5-1.2-1.9-0.4-3.7-0.4c-2.1 0-4.1 0.5-6 1.3-1.9 0.8-3.5 2-4.9 3.6-1.4 1.5-2.5 3.2-3.2 5.2-0.7 1.9-1 4-0.9 6-0.1 2.1 0.2 4.1 0.8 6.1 0.7 1.9 1.8 3.7 3.2 5.2 1.4 1.6 3.1 2.8 5 3.6 1.9 0.9 3.9 1.4 6 1.4q1.9 0 3.8-0.4 1.9-0.4 3.6-1.2 1.8-0.8 3.3-1.9 1.6-1.1 2.9-2.5l7.3 7.3q-2.1 2.2-4.5 3.9-2.5 1.6-5.3 2.7-2.8 1.1-5.7 1.6-3 0.4-5.9 0.2zm66.5 0c-3.6 0.1-7.1-0.4-10.4-1.7-3.4-1.2-6.4-3.2-9-5.6-2.5-2.5-4.6-5.4-6-8.7-1.4-3.3-2.1-6.8-2.1-10.3 0.4-7.1 3.5-13.7 8.6-18.5 5.1-4.9 11.9-7.6 18.9-7.6 7.1 0 13.8 2.7 19 7.6 5.1 4.8 8.2 11.4 8.6 18.5-0.1 3.5-0.9 7-2.3 10.2-1.4 3.3-3.5 6.2-6 8.7-2.6 2.4-5.6 4.3-8.9 5.6-3.3 1.3-6.9 1.9-10.4 1.8zm15.6-26.3c0.1-2.1-0.3-4.2-1-6.2-0.8-2-1.9-3.8-3.4-5.3-1.4-1.5-3.2-2.7-5.1-3.5-1.9-0.8-4-1.3-6.1-1.3-2.1 0-4.2 0.4-6.1 1.2-1.9 0.8-3.7 2-5.1 3.6-1.5 1.5-2.6 3.3-3.4 5.2-0.7 2-1 4.1-0.9 6.2-0.1 2.1 0.2 4.2 1 6.1 0.7 2 1.9 3.8 3.3 5.3 1.5 1.5 3.2 2.8 5.2 3.6 1.9 0.8 4 1.3 6.1 1.3 2.1 0 4.2-0.4 6.1-1.2 1.9-0.8 3.7-2 5.1-3.5 1.5-1.6 2.6-3.3 3.3-5.3 0.8-2 1.1-4.1 1-6.2zm64.5 25.5l-11-16.6h-8.8v16.6h-11.4v-51.7h23.7c12.1 0 19.5 6.4 19.5 17 0 1.8-0.2 3.5-0.7 5.2-0.4 1.7-1.2 3.3-2.2 4.7-1 1.4-2.2 2.7-3.6 3.8-1.4 1-2.9 1.8-4.6 2.4l12.6 18.4zm0-34c0-5-3.4-7.4-8.8-7.4h-11.3v14.8h11.5c5.6 0 8.8-3 8.8-7.3zm53.1 18.6h-8.7v15.5h-11.5v-51.7h21.2c2.5-0.3 5-0.1 7.4 0.6 2.4 0.8 4.6 2 6.5 3.7 1.8 1.7 3.3 3.7 4.3 6 1 2.3 1.6 4.7 1.5 7.3 0.1 2.6-0.4 5.2-1.5 7.6-1 2.5-2.6 4.6-4.6 6.4-1.9 1.7-4.3 3.1-6.8 3.9-2.5 0.7-5.1 1-7.8 0.7zm9.4-18.1c0-5.1-3.5-7.8-8.8-7.8h-8.7v15.8h8.7c1.1 0.1 2.2-0.1 3.3-0.4 1-0.4 2-0.9 2.8-1.6 0.8-0.8 1.5-1.7 2-2.7 0.4-1 0.7-2 0.7-3.1zm56.2 34.4c-3.5 0.2-7.1-0.4-10.4-1.6-3.3-1.3-6.3-3.2-8.9-5.7-2.6-2.4-4.6-5.4-6-8.7-1.4-3.2-2.1-6.7-2.1-10.3 0-7.3 2.9-14.3 8.1-19.4 5.1-5.2 12.1-8.1 19.4-8.1 7.3 0 14.3 2.9 19.4 8.1 5.2 5.1 8.1 12.1 8.1 19.4 0 3.6-0.8 7.1-2.2 10.4-1.4 3.3-3.4 6.2-6 8.7-2.6 2.4-5.6 4.4-8.9 5.6-3.4 1.3-6.9 1.8-10.5 1.6zm15.6-26.3c0.1-2.1-0.3-4.2-1-6.1-0.8-2-1.9-3.8-3.4-5.3-1.4-1.5-3.2-2.7-5.1-3.6-1.9-0.8-4-1.2-6.1-1.2-2.1 0-4.2 0.4-6.1 1.2-1.9 0.8-3.7 2-5.1 3.5-1.5 1.5-2.6 3.3-3.4 5.3-0.7 1.9-1 4-0.9 6.1-0.1 2.1 0.2 4.2 1 6.2 0.7 2 1.9 3.8 3.3 5.3 1.5 1.5 3.2 2.7 5.2 3.6 1.9 0.8 4 1.2 6.1 1.3 2.1 0 4.2-0.4 6.1-1.3 1.9-0.8 3.7-2 5.1-3.5 1.5-1.5 2.6-3.3 3.3-5.2 0.8-2 1.1-4.1 1-6.2zm64.5 25.5l-11-16.6h-8.8v16.6h-11.4v-51.7h23.7c12.2 0 19.5 6.4 19.5 17 0.1 1.7-0.1 3.5-0.6 5.2-0.5 1.7-1.2 3.2-2.2 4.7-1 1.4-2.2 2.7-3.7 3.7-1.4 1.1-2.9 1.9-4.6 2.5l12.7 18.4zm0-34.1c0-4.9-3.5-7.3-8.8-7.3h-11.3v14.8h11.5c5.5 0 8.7-3 8.7-7.3zm71.7 34.1l-4.8-11.6h-21.8l-4.8 11.6h-11.3l22.1-52.1h10.6l22.1 52.1zm-15.7-38.5l-6.9 16.8h13.8zm70-2.8v41.2h-11.3v-41.2h-15.4v-10.5h42.9v10.5zm36.1-10.5h11.4v51.7h-11.4zm60.5 52.6c-3.6 0.1-7.1-0.4-10.5-1.7-3.3-1.2-6.3-3.2-8.9-5.6-2.5-2.5-4.5-5.4-5.9-8.7-1.4-3.3-2.1-6.8-2.1-10.3 0-3.6 0.7-7.1 2.1-10.4 1.4-3.3 3.4-6.2 6-8.7 2.6-2.5 5.6-4.4 9-5.6 3.3-1.3 6.9-1.8 10.4-1.7 3.6-0.1 7.1 0.5 10.4 1.7 3.3 1.3 6.4 3.2 8.9 5.7 2.6 2.4 4.6 5.4 6 8.6 1.4 3.3 2.1 6.8 2.1 10.4 0 3.5-0.7 7.1-2.1 10.3-1.4 3.3-3.5 6.3-6 8.7-2.6 2.5-5.7 4.4-9 5.7-3.3 1.2-6.9 1.8-10.4 1.6zm15.7-26.3c0-2.1-0.3-4.2-1.1-6.2-0.7-2-1.9-3.8-3.3-5.3-1.5-1.5-3.3-2.7-5.2-3.5-2-0.8-4-1.3-6.1-1.3-2.1 0-4.2 0.5-6.1 1.3-2 0.8-3.7 2-5.1 3.5-1.5 1.5-2.6 3.3-3.3 5.3-0.8 1.9-1.1 4-1 6.1-0.1 2.1 0.3 4.2 1 6.2 0.8 1.9 1.9 3.7 3.4 5.2 1.4 1.6 3.2 2.8 5.1 3.6 1.9 0.8 4 1.3 6.1 1.3 2.1 0 4.2-0.4 6.1-1.2 1.9-0.8 3.7-2 5.1-3.6 1.5-1.5 2.6-3.3 3.4-5.2 0.7-2 1-4 1-6.1zm69.3 25.4l-25-32.9v32.9h-11.2v-51.7h10.5l24.2 32.2v-32.2h11.3v51.7z"/>
	<path id="Layer" class="s1" d="m223.8 20.5c0.6 0.1 1.1 0.4 1.5 0.8 0.3 0.4 0.6 1 0.6 1.6 0 0.6-0.2 1.1-0.6 1.6l-129.4 155.3q-0.3 0.3-0.6 0.5-0.3 0.2-0.7 0.3-0.4 0.1-0.8 0.1-0.4-0.1-0.8-0.2l-79-35.1q-0.6-0.4-1-0.9-0.4-0.6-0.4-1.3 0-0.7 0.4-1.3 0.4-0.6 1-0.9l208.1-120.2c0.5-0.3 1.1-0.4 1.7-0.3z"/>
	<path id="Layer" class="s1" d="m1.3 158.1q0.3-0.6 0.8-0.9 0.5-0.4 1.1-0.4 0.7-0.1 1.2 0.1l80.9 35.7q0.4 0.2 0.7 0.5 0.4 0.4 0.6 0.8 0.1 0.4 0.2 0.9 0 0.5-0.2 0.9l-80.9 211.2c-0.2 0.6-0.6 1-1.1 1.3-0.5 0.3-1 0.3-1.6 0.2-0.5-0.1-1.1-0.4-1.4-0.8-0.4-0.4-0.6-1-0.6-1.5v-246.9q0-0.6 0.3-1.1z"/>
	<path id="Layer" class="s2" d="m96.9 210.5q0.5-0.4 1.3-0.5 0.7 0 1.3 0.3 0.6 0.4 1 1.1l149.8 267.7q0.3 0.6 0.3 1.3-0.1 0.7-0.5 1.3-0.3 0.5-1 0.8-0.6 0.3-1.3 0.3l-240.8-29.9q-0.6-0.1-1.1-0.4-0.4-0.3-0.7-0.8-0.3-0.4-0.4-1 0-0.6 0.2-1.1l91.1-238q0.2-0.7 0.8-1.1z"/>
	<path id="Layer" class="s3" d="m518.6 141.4c0.3 0.4 0.5 1 0.4 1.5 0 0.5-0.2 1-0.5 1.4-0.3 0.4-0.8 0.7-1.3 0.8l-84.6 35.1q-0.4 0.2-0.8 0.2-0.4 0-0.8-0.1-0.3-0.1-0.7-0.3-0.3-0.2-0.6-0.5l-125.6-156.5c-0.4-0.4-0.6-1-0.6-1.6 0-0.6 0.2-1.2 0.6-1.6 0.4-0.4 0.9-0.7 1.5-0.8 0.6-0.1 1.2 0 1.7 0.3l210.2 121.1c0.5 0.2 0.9 0.6 1.1 1z"/>
	<path id="Layer" class="s3" d="m258.4 600.2q-0.4 0.6-0.9 0.9-0.6 0.3-1.2 0.3-0.7 0-1.3-0.3l-216.3-125c-0.5-0.3-0.9-0.7-1.1-1.2-0.2-0.6-0.2-1.1 0-1.7 0.1-0.5 0.5-1 1-1.3 0.4-0.3 1-0.4 1.5-0.4l216.4 26.4q0.5 0 0.9 0.3 0.4 0.2 0.7 0.5 0.3 0.3 0.4 0.8 0.2 0.4 0.2 0.8v98.7q0 0.7-0.3 1.2z"/>
	<path id="Layer" class="s2" d="m410.9 179.7q0.1 0.7-0.3 1.4-0.3 0.6-0.9 1-0.6 0.4-1.3 0.4h-290.9q-0.7 0-1.3-0.4-0.7-0.4-1-1.1-0.3-0.6-0.2-1.3 0.1-0.8 0.5-1.3l148.8-177.5q0.4-0.3 0.8-0.5 0.5-0.2 0.9-0.2 0.5 0 1 0.2 0.4 0.2 0.8 0.5l142.5 177.6q0.5 0.5 0.6 1.2z"/>
	<path id="Layer" class="s4" d="m282.2 482.7c-0.5-0.2-0.9-0.6-1.2-1-0.3-0.5-0.4-1-0.4-1.5 0.1-0.6 0.3-1.1 0.7-1.5l144.4-266.7q0.3-0.7 0.9-1.1 0.6-0.4 1.3-0.4 0.7 0 1.3 0.4 0.6 0.4 0.9 1.1l96.6 238q0.2 0.6 0.2 1.2-0.1 0.5-0.4 1-0.3 0.5-0.8 0.9-0.4 0.3-1 0.4l-241 29.3c-0.5 0.1-1 0.1-1.5-0.1z"/>
	<path id="Layer" class="s3" d="m110.8 199.4q0-0.6 0.4-1.2 0.3-0.5 0.9-0.8 0.5-0.3 1.2-0.3h299q0.7 0 1.2 0.3 0.6 0.3 0.9 0.8 0.4 0.6 0.4 1.2 0 0.7-0.3 1.3l-146.5 272.1q-0.3 0.6-0.9 0.9-0.6 0.3-1.3 0.3-0.7 0-1.2-0.3-0.6-0.3-1-0.9l-152.5-272.1q-0.3-0.6-0.3-1.3z"/>
	<path id="Layer" class="s5" d="m530.7 410.9c-0.3 0.6-0.8 1-1.5 1.2-0.6 0.2-1.3 0.1-1.8-0.2-0.6-0.3-1-0.8-1.2-1.5l-87.2-214q-0.2-0.5-0.2-1 0-0.5 0.2-0.9 0.2-0.5 0.5-0.8 0.4-0.4 0.8-0.6l87.3-36.5q0.5-0.3 1.2-0.2 0.6 0.1 1.1 0.4 0.5 0.4 0.8 0.9 0.2 0.6 0.2 1.2v250.1c0.2 0.7 0.1 1.3-0.2 1.9z"/>
	<path id="Layer" class="s5" d="m275.6 601.5q-0.6 0-1.2-0.3-0.6-0.4-1-0.9-0.3-0.6-0.3-1.3v-98.7q0-0.4 0.2-0.8 0.2-0.4 0.5-0.8 0.3-0.3 0.7-0.5 0.4-0.2 0.9-0.2l216.4-26.4c0.5-0.1 1.1 0.1 1.6 0.4 0.5 0.3 0.9 0.7 1 1.3 0.2 0.5 0.2 1.1 0 1.6-0.2 0.6-0.6 1-1.1 1.3l-216.4 124.9q-0.6 0.4-1.3 0.4z"/>
</svg>