<svg version="1.2" xmlns="http://www.w3.org/2000/svg" viewBox="0 0 1540 870" width="1540" height="870">
	<title>logo_3x-svg</title>
	<defs>
		<linearGradient id="g1" x1="-15595.5" y1="434.6" x2="4660.3" y2="434.6" gradientUnits="userSpaceOnUse">
			<stop offset="0" stop-color="#ffffff"/>
			<stop offset="1" stop-color="#ffffff"/>
		</linearGradient>
	</defs>
	<style>
		.s0 { fill: #ffffff } 
		.s1 { fill: url(#g1) } 
	</style>
	<g id="Layer">
		<path id="Layer" fill-rule="evenodd" class="s0" d="m400.6 214.2h84.7c40.3 0 65.5 4.2 86 16.3 11 5.9 20.2 14.8 26.4 25.6 6.3 10.8 9.5 23.1 9.2 35.6 0.4 13.9-3.9 27.6-12.2 38.9-8.2 11.2-20 19.4-33.5 23.2v0.8c16.9 2.9 32.1 11.9 42.7 25.3 10.7 13.3 16.1 30.1 15.2 47.2 0.4 14.3-3 28.6-10.1 41.1-7 12.5-17.3 22.9-29.7 30.1-21.8 13.4-50.3 19.3-93.9 19.3h-84.8zm100.7 129.1c29.3 0 52.4-12.6 52.4-41.1 0.3-6.7-1.3-13.4-4.6-19.3-3.4-5.8-8.3-10.6-14.3-13.8-11.7-6.7-26-8.4-52.8-8.4h-28.1v82.6zm-13.4 127.8c31.4 0 48.6-3.4 60.3-10.9 5.8-3.7 10.4-8.8 13.5-14.8 3.1-6 4.5-12.8 4.2-19.6 0-29.3-22.7-44.4-62.9-44.4h-49.1v89.7zm184.3-259.4c6.2 0.1 12.2 2 17.4 5.5 5.1 3.5 9 8.4 11.4 14.2 2.3 5.7 2.8 12 1.6 18.1-1.3 6.1-4.3 11.6-8.7 16-4.4 4.3-10 7.3-16.1 8.5-6.1 1.2-12.4 0.5-18.1-1.9-5.8-2.4-10.7-6.4-14.1-11.6-3.4-5.1-5.3-11.2-5.3-17.4 0.1-8.4 3.5-16.4 9.5-22.3 5.9-5.9 14-9.2 22.4-9.1zm-25.6 99.7h50.8v206.2h-50.8zm186.6 210.8c-62 0-112-48.2-112-107.7 0-59.6 50-107.7 112-107.7 61.9 0 111.9 48.1 111.9 107.7 0 59.5-50 107.7-111.9 107.7zm0-44.4c12.6 0.4 25-3 35.7-9.7 10.7-6.7 19.2-16.4 24.3-27.9 5.1-11.5 6.7-24.3 4.5-36.8-2.2-12.4-8.1-23.9-16.8-32.9-8.8-9.1-20.1-15.4-32.4-18-12.4-2.6-25.2-1.5-36.9 3.3-11.7 4.7-21.8 12.8-28.8 23.3-7.1 10.4-10.9 22.8-10.9 35.4-0.3 8.2 1.1 16.4 4 24.1 3 7.6 7.4 14.6 13.2 20.5 5.7 6 12.5 10.7 20.1 13.8 7.6 3.2 15.7 4.9 24 4.9zm134.1-34.4c27.7 19.3 60.5 30.2 94.3 31.4 30.2 0 52-13 52-41.1 0-33.5-31.9-38.1-71.3-49.8-42.3-13-82.2-32.3-82.2-86.3 0-54.9 41.1-88 102.4-88 31.4-0.3 62.4 7.3 90.1 22.2v53.6c-27-17.6-58.4-27.4-90.6-28.5-28.5 0-48.6 11.3-48.6 36.9 0 32.3 31.9 36.4 68.4 47.8 44.9 13.8 85.1 33.5 85.1 89.2 0 57-42.8 91.4-105.7 91.4-32.7-0.2-64.8-8.1-93.9-23.1zm249.9-231.7c6.2 0.1 12.2 2 17.3 5.5 5.2 3.5 9.1 8.4 11.4 14.2 2.4 5.7 2.9 12 1.7 18.1-1.3 6.1-4.3 11.6-8.7 16-4.4 4.3-10.1 7.3-16.2 8.5-6 1.2-12.3 0.5-18.1-1.9-5.7-2.4-10.6-6.4-14-11.6-3.5-5.1-5.3-11.2-5.3-17.4 0.1-8.4 3.5-16.4 9.4-22.3 6-5.9 14.1-9.2 22.5-9.1zm-25.6 99.7h50.8v206.2h-50.8zm102.4 237.6c19.7 13.1 42.7 20.4 66.3 21 35.3 0 58.3-19.7 58.3-54.5v-13l-0.8-0.9c-15.6 10.2-33.9 15.5-52.4 15.1-13.3 0.1-26.4-2.5-38.7-7.6-12.2-5.1-23.2-12.7-32.4-22.2-9.3-9.5-16.4-20.8-21.2-33.2-4.7-12.4-6.8-25.6-6.3-38.8 0-59.5 41.5-108.1 106.9-108.1 18.1-0.2 35.9 3.8 52 11.7l43.6-7.5v204c0 62.5-42.7 99.3-107.3 99.3-23.5 0.2-46.7-5-67.9-15zm124.5-187.4c-13-7.1-27.5-10.8-42.3-10.9-36.9 0-58.3 28.1-58.3 61.6 0 35.7 23 62.1 58.3 62.1 15.1 0 29.8-4.5 42.3-13zm83.3-47.2h-7v-3.8h18.1v3.8h-7v19.2h-4.1zm22.4 8.3c-1.3-1.9-2.6-3.7-3.7-5.3l-0.2 0.1c0.1 1.6 0.2 3.9 0.2 5.8v10.3h-4v-23h3.8l7.5 10.3 7.5-10.3h3.9v22.9h-4.1v-10.3c0-1.9 0.1-4.2 0.2-5.8l-0.2-0.1c-1.1 1.7-2.4 3.5-3.7 5.3l-3.6 5zm-1109.8 305v-36.1h-13.7v-12.2h13.7v-20.1l13.5-2.3v22.4h22.3v12.2h-22.3v33.5c0 9.2 1.4 17.6 11.2 17.6 3.9-0.1 7.7-1.2 11.1-3.2v12.8c-4.2 1.8-8.8 2.8-13.4 2.7-3.1 0.2-6.3-0.4-9.2-1.6-2.9-1.2-5.5-3-7.6-5.3-4.4-5.9-6.4-13.2-5.6-20.4zm55-7.4c0.7 6.6 3.9 12.6 9.1 16.9 5.1 4.2 11.6 6.2 18.2 5.7 9.3-0.2 18.3-3.4 25.6-9.2v14.4c-8.1 4.6-17.2 7-26.5 6.9-5.2 0.3-10.4-0.4-15.3-2.2-4.9-1.9-9.4-4.7-13.2-8.3-3.7-3.6-6.7-8-8.7-12.9-2-4.8-2.9-10-2.8-15.2-0.2-5 0.6-10 2.3-14.7 1.8-4.6 4.4-8.9 7.9-12.5 3.4-3.6 7.6-6.5 12.2-8.5 4.5-1.9 9.5-3 14.5-3 4.6 0 9.2 0.8 13.5 2.6 4.2 1.8 8.1 4.5 11.3 7.9 3.1 3.3 5.6 7.3 7.1 11.7 1.5 4.4 2.1 9 1.7 13.6q0.1 3.4-0.4 6.8zm0.3-10.7h43.6c0-2.7-0.6-5.3-1.7-7.8-1-2.4-2.6-4.6-4.6-6.5-1.9-1.8-4.2-3.2-6.7-4.2-2.5-0.9-5.2-1.3-7.9-1.2-5.5-0.1-10.9 1.9-15.1 5.5-4.2 3.7-6.9 8.7-7.6 14.2zm128.9 40.3c-6.9 3.4-14.4 5.2-22.1 5.1-5.2 0.3-10.4-0.4-15.3-2.2-4.9-1.8-9.3-4.6-13.1-8.2-3.8-3.5-6.8-7.9-8.8-12.6-2-4.8-3-10-3-15.2 0-5.3 1.1-10.5 3.2-15.4 2.1-4.9 5.1-9.3 9-12.9 3.8-3.7 8.3-6.5 13.3-8.4 5-1.8 10.3-2.6 15.6-2.4 6.9 0 13.8 1.6 20 4.7v14c-6.2-4-13.3-6.2-20.6-6.3-3.6-0.2-7.1 0.5-10.4 1.8-3.3 1.3-6.3 3.2-8.8 5.7-2.5 2.5-4.5 5.5-5.8 8.8-1.3 3.3-1.9 6.9-1.8 10.4-0.1 3.5 0.6 7.1 2 10.3 1.3 3.3 3.4 6.2 5.9 8.6 2.6 2.5 5.6 4.3 8.9 5.5 3.4 1.2 6.9 1.7 10.4 1.5 7.7 0 15.3-2.5 21.4-7.2zm14.1-111.4h13.6v50.2l0.3 0.1c3.3-3.5 7.4-6.2 11.8-8.1 4.4-1.9 9.2-3 14-3 3.7-0.2 7.4 0.5 10.8 1.9 3.4 1.4 6.4 3.5 8.9 6.2 4.9 6.2 7.1 14 6.2 21.8v45.7h-13.5v-43.1c0.7-5.3-0.6-10.7-3.6-15-1.4-1.6-3.2-2.9-5.1-3.8-2-0.8-4.1-1.2-6.2-1.1-4.6 0.3-9.1 1.5-13.1 3.7-4.1 2.1-7.7 5.1-10.5 8.7v50.6h-13.6zm84.1 40.9h13.5v9.3l0.3 0.2c3.4-3.5 7.4-6.3 11.8-8.2 4.5-1.9 9.2-2.9 14.1-3 3.6-0.1 7.3 0.6 10.7 2 3.4 1.4 6.5 3.5 9 6.2 4.8 6.1 7 14 6.1 21.8v45.7h-13.5v-43.2c0.6-5.2-0.6-10.5-3.5-15-1.5-1.6-3.3-2.9-5.4-3.7-2-0.8-4.2-1.2-6.4-1.1-4.6 0.2-9 1.5-13 3.6-4 2.1-7.5 5.1-10.2 8.7v50.7h-13.5zm118.2-1.7c7.7 0.1 15.1 2.5 21.4 6.8 6.3 4.3 11.2 10.3 14 17.4 2.9 7.1 3.6 14.8 2.1 22.3-1.6 7.4-5.3 14.3-10.7 19.7-5.5 5.3-12.4 8.9-19.8 10.4-7.5 1.5-15.3 0.7-22.3-2.3-7.1-2.9-13.1-7.9-17.3-14.2-4.2-6.4-6.5-13.8-6.5-21.4-0.1-5.2 0.9-10.3 2.9-15 1.9-4.8 4.8-9.1 8.4-12.7 3.7-3.6 8-6.4 12.8-8.3 4.8-1.9 9.9-2.8 15-2.7zm0 65c5.3 0.1 10.4-1.3 14.8-4.1 4.5-2.8 7.9-6.9 10.1-11.6 2.1-4.8 2.7-10.1 1.8-15.3-1-5.1-3.4-9.9-7.1-13.6-3.6-3.8-8.3-6.4-13.4-7.5-5.1-1-10.5-0.6-15.3 1.4-4.9 2-9 5.3-12 9.7-2.9 4.3-4.4 9.4-4.4 14.7-0.2 3.4 0.4 6.8 1.6 10 1.3 3.2 3.1 6.1 5.5 8.6 2.4 2.4 5.3 4.4 8.4 5.7 3.2 1.3 6.6 2 10 2zm53.4-101.9l13.5-2.3v114.8h-13.5zm66.6 37c7.7 0.1 15.1 2.4 21.4 6.7 6.3 4.3 11.2 10.4 14 17.4 2.9 7.1 3.6 14.9 2.1 22.3-1.6 7.5-5.3 14.3-10.7 19.7-5.4 5.4-12.3 9-19.8 10.4-7.5 1.5-15.3 0.7-22.3-2.2-7-3-13.1-7.9-17.3-14.3-4.2-6.3-6.5-13.8-6.5-21.4 0-5.1 0.9-10.2 2.9-15 1.9-4.7 4.8-9 8.4-12.6 3.7-3.7 8-6.5 12.8-8.4 4.8-1.9 9.9-2.8 15-2.6zm0 64.9c5.3 0.2 10.4-1.3 14.9-4.1 4.4-2.8 7.9-6.8 10-11.6 2.1-4.8 2.7-10.1 1.8-15.3-1-5.1-3.4-9.9-7.1-13.6-3.6-3.8-8.3-6.3-13.4-7.4-5.1-1.1-10.5-0.6-15.3 1.4-4.9 1.9-9 5.3-11.9 9.6-3 4.4-4.5 9.5-4.5 14.7-0.2 3.4 0.4 6.9 1.6 10.1 1.3 3.2 3.1 6.1 5.5 8.5 2.4 2.5 5.3 4.4 8.4 5.8 3.2 1.3 6.6 1.9 10 1.9zm58.4 25.4c6.9 4.8 15 7.5 23.4 7.7 3.1 0.3 6.2-0.1 9.1-1.1 2.9-1 5.6-2.6 7.9-4.7 2.2-2.1 4-4.7 5.1-7.6 1.2-2.8 1.7-5.9 1.5-9v-5.4l-0.3-0.2c-6 3.8-13 5.8-20.1 5.7-4.9 0.1-9.7-0.8-14.2-2.6-4.4-1.9-8.5-4.6-11.9-8.1-3.4-3.4-6-7.5-7.8-12.1-1.7-4.5-2.5-9.3-2.4-14.1-0.2-5.2 0.6-10.3 2.5-15 1.8-4.8 4.6-9.2 8.2-12.8 3.6-3.7 7.9-6.5 12.7-8.4 4.8-1.9 9.9-2.8 15-2.6 6.5-0.1 12.9 1.3 18.8 4.2l13.1-2.3v73.4c0.2 4.8-0.6 9.7-2.4 14.2-1.8 4.5-4.6 8.5-8.1 11.8-3.6 3.4-7.8 5.9-12.4 7.4-4.6 1.6-9.5 2.1-14.3 1.6-8.1 0-16.2-1.9-23.4-5.6zm28.5-26.4c6.7 0 13.2-2.1 18.5-6v-40.7c-5.6-3.3-12.1-5.1-18.6-5.1-6.6 0.4-12.8 3.3-17.4 8.1-4.5 4.9-7 11.3-7 17.9 0 6.6 2.6 13 7.2 17.8 4.5 4.8 10.7 7.6 17.3 8zm57.7-97.1c1.9 0 3.7 0.5 5.3 1.6 1.5 1 2.7 2.5 3.5 4.2 0.7 1.7 0.9 3.6 0.5 5.5-0.4 1.8-1.3 3.5-2.6 4.8-1.3 1.3-3 2.2-4.8 2.6-1.9 0.4-3.8 0.2-5.5-0.5-1.7-0.7-3.2-2-4.3-3.5-1-1.6-1.6-3.4-1.6-5.3 0-1.2 0.3-2.4 0.8-3.6 0.4-1.1 1.1-2.2 2-3.1 0.9-0.8 1.9-1.5 3.1-2 1.1-0.5 2.4-0.7 3.6-0.7zm-6.8 34.8h13.6v74h-13.6zm40.8 40.9c0.7 6.6 4 12.6 9.1 16.8 5.1 4.3 11.7 6.3 18.3 5.7 9.3-0.1 18.3-3.3 25.6-9.1v14.4c-8.1 4.6-17.2 7-26.5 6.9-5.2 0.3-10.5-0.4-15.4-2.3-4.9-1.8-9.4-4.6-13.1-8.2-3.8-3.6-6.7-8-8.7-12.9-2-4.8-2.9-10-2.8-15.2-0.2-5 0.5-10 2.3-14.7 1.7-4.6 4.4-8.9 7.8-12.5 3.5-3.6 7.6-6.5 12.2-8.5 4.6-1.9 9.5-3 14.5-3 4.7-0.1 9.3 0.8 13.5 2.6 4.3 1.8 8.1 4.5 11.3 7.8 3.2 3.4 5.6 7.4 7.2 11.8 1.5 4.3 2.1 9 1.7 13.6q0 3.4-0.4 6.8zm0.3-10.7h43.6c-0.1-2.7-0.6-5.3-1.7-7.8-1.1-2.4-2.7-4.6-4.6-6.5-2-1.8-4.3-3.2-6.8-4.2-2.5-0.9-5.2-1.3-7.8-1.2-5.6-0.1-11 1.9-15.2 5.5-4.1 3.7-6.9 8.7-7.5 14.2zm69.6 25.3c8.5 5.2 18.2 7.9 28.2 7.9 10.3 0 16.9-3 16.9-10.2 0-8.8-10.7-9-22.1-11-14.2-2.4-25.3-6.6-25.3-21.2 0.2-15.3 13.3-22.6 30.4-22.6 9.2-0.1 18.2 1.9 26.5 5.8v13.5c-8.3-4.6-17.6-7.1-27.1-7.2-9.5 0-16.1 2.9-16.1 9.5 0 8.4 10.5 8.4 21.5 10.4 14.2 2.4 25.9 6.3 25.9 21.6 0 17.2-15.3 23.6-31.1 23.6-9.6 0.2-19.1-1.9-27.7-6z"/>
	</g>
	<path id="Layer" class="s1" d="m564.3 735.9c-2.5 0-5 0.7-7.1 2.1-2.1 1.4-3.8 3.4-4.8 5.8-0.9 2.3-1.2 4.9-0.7 7.4 0.5 2.5 1.7 4.8 3.5 6.6 1.8 1.8 4.1 3 6.6 3.5 2.5 0.5 5.1 0.3 7.5-0.7 2.3-1 4.3-2.6 5.7-4.7 1.4-2.2 2.2-4.6 2.2-7.2 0-3.4-1.4-6.7-3.8-9.1-2.4-2.4-5.7-3.7-9.1-3.7zm-64.9 42.7c-8.2 0-14.8-6.6-14.8-14.7 0-8.1 6.6-14.7 14.8-14.7 8.1 0 14.7 6.6 14.7 14.7 0 8.1-6.6 14.7-14.7 14.7zm-67.1-29.5c-3.3 0-6.5 1-9.2 2.8-2.7 1.8-4.8 4.4-6.1 7.4-1.2 3-1.6 6.4-0.9 9.6 0.6 3.2 2.2 6.1 4.5 8.4 2.3 2.4 5.3 3.9 8.5 4.6 3.2 0.6 6.5 0.3 9.5-1 3.1-1.2 5.7-3.3 7.5-6.1 1.8-2.7 2.8-5.9 2.8-9.2 0-2.1-0.5-4.3-1.3-6.3-0.8-2-2-3.8-3.6-5.4-1.5-1.5-3.3-2.7-5.3-3.5-2.1-0.9-4.2-1.3-6.4-1.3zm-66.3-13.5c-3.7 0-7.2 1-10.3 3.1-3 2-5.3 4.8-6.7 8.2-1.4 3.4-1.8 7.1-1.1 10.6 0.7 3.6 2.5 6.9 5.1 9.4 2.5 2.6 5.8 4.3 9.4 5.1 3.5 0.7 7.2 0.3 10.6-1.1 3.4-1.4 6.2-3.7 8.2-6.8 2.1-3 3.1-6.5 3.1-10.2 0-2.4-0.4-4.8-1.4-7-0.9-2.2-2.2-4.3-3.9-6-1.7-1.7-3.8-3-6-3.9-2.2-1-4.6-1.4-7-1.4zm258.6-3.6c-6.4 0-11.5-5.2-11.5-11.5 0-6.4 5.1-11.5 11.5-11.5 6.3 0 11.4 5.1 11.4 11.5 0 6.3-5.1 11.5-11.4 11.5zm-321.6-23c-4 0-7.9 1.1-11.2 3.4-3.3 2.2-5.9 5.3-7.4 9-1.6 3.7-2 7.8-1.2 11.7 0.8 3.9 2.7 7.5 5.5 10.4 2.9 2.8 6.5 4.7 10.4 5.5 3.9 0.8 8 0.4 11.7-1.1 3.7-1.6 6.8-4.2 9.1-7.5 2.2-3.3 3.4-7.2 3.4-11.2 0-5.4-2.2-10.5-5.9-14.3-3.8-3.8-9-5.9-14.4-5.9zm-35.7-16.7c0-4.2-1.3-8.2-3.6-11.7-2.3-3.5-5.6-6.2-9.5-7.8-3.9-1.6-8.1-2-12.2-1.2-4.1 0.8-7.9 2.8-10.8 5.8-3 2.9-5 6.7-5.8 10.8-0.8 4.1-0.4 8.3 1.2 12.2 1.6 3.9 4.3 7.2 7.8 9.5 3.4 2.3 7.5 3.6 11.7 3.6 5.6 0 11-2.3 15-6.2 3.9-4 6.2-9.4 6.2-15zm-69.8-25.1c4.4 0 8.6-1.3 12.3-3.8 3.6-2.4 6.4-5.8 8.1-9.9 1.7-4 2.1-8.5 1.3-12.7-0.9-4.3-3-8.3-6.1-11.3-3.1-3.1-7-5.2-11.3-6.1-4.3-0.8-8.7-0.4-12.8 1.3-4 1.6-7.5 4.5-9.9 8.1-2.4 3.6-3.7 7.9-3.7 12.3 0 5.8 2.3 11.4 6.5 15.6 4.1 4.1 9.7 6.5 15.6 6.5zm-38.4-55c4.6 0 9-1.3 12.8-3.9 3.8-2.5 6.7-6.1 8.4-10.3 1.8-4.2 2.2-8.8 1.3-13.2-0.8-4.5-3-8.6-6.2-11.8-3.3-3.2-7.4-5.4-11.8-6.3-4.5-0.9-9.1-0.4-13.3 1.3-4.2 1.8-7.8 4.7-10.3 8.5-2.5 3.8-3.9 8.2-3.9 12.7 0 6.1 2.4 12 6.8 16.3 4.3 4.3 10.1 6.7 16.2 6.7zm-26.5-56.1c4.8 0 9.4-1.4 13.3-4 3.9-2.6 7-6.4 8.8-10.7 1.8-4.4 2.3-9.2 1.4-13.8-0.9-4.7-3.2-8.9-6.6-12.3-3.3-3.3-7.6-5.6-12.2-6.5-4.6-0.9-9.5-0.5-13.8 1.3-4.4 1.8-8.1 4.9-10.8 8.8-2.6 4-4 8.6-4 13.3 0 6.4 2.5 12.4 7 16.9 4.5 4.5 10.6 7 16.9 7zm-13.4-65c4.9 0 9.7-1.5 13.8-4.2 4.1-2.7 7.2-6.6 9.1-11.1 1.9-4.6 2.4-9.6 1.4-14.4-0.9-4.8-3.3-9.2-6.8-12.7-3.4-3.4-7.9-5.8-12.7-6.8-4.8-0.9-9.8-0.4-14.3 1.4-4.6 1.9-8.4 5.1-11.2 9.2-2.7 4.1-4.1 8.9-4.1 13.8 0 6.5 2.6 12.9 7.2 17.5 4.7 4.7 11 7.3 17.6 7.3zm-24.8-88.6c0 4.9 1.4 9.7 4.1 13.8 2.8 4.1 6.6 7.3 11.2 9.1 4.5 1.9 9.5 2.4 14.3 1.4 4.8-0.9 9.3-3.3 12.7-6.8 3.5-3.4 5.9-7.8 6.8-12.7 1-4.8 0.5-9.8-1.4-14.3-1.9-4.5-5-8.4-9.1-11.1-4.1-2.8-8.9-4.2-13.8-4.2-6.6 0-12.9 2.6-17.6 7.3-4.6 4.6-7.2 10.9-7.2 17.5zm38.2-41.6c-13.2 0-23.9-10.7-23.9-23.9 0-13.2 10.7-23.9 23.9-23.9 13.2 0 23.9 10.7 23.9 23.9 0 13.2-10.7 23.9-23.9 23.9zm26.5-104c-4.5 0-9 1.4-12.8 3.9-3.7 2.5-6.7 6.1-8.4 10.3-1.8 4.2-2.2 8.8-1.3 13.3 0.8 4.4 3 8.5 6.3 11.7 3.2 3.3 7.3 5.4 11.7 6.3 4.5 0.9 9.1 0.5 13.3-1.3 4.2-1.7 7.8-4.7 10.3-8.4 2.5-3.8 3.9-8.3 3.9-12.8 0-6.1-2.4-11.9-6.7-16.2-4.4-4.3-10.2-6.8-16.3-6.8zm60.5-32.8c0-4.4-1.3-8.7-3.8-12.3-2.4-3.6-5.8-6.5-9.9-8.2-4-1.6-8.5-2.1-12.7-1.2-4.3 0.8-8.3 2.9-11.4 6-3.1 3.1-5.2 7.1-6 11.3-0.9 4.3-0.4 8.8 1.2 12.8 1.7 4 4.6 7.5 8.2 9.9 3.6 2.4 7.9 3.7 12.3 3.7 5.8 0 11.4-2.3 15.6-6.4 4.1-4.2 6.5-9.8 6.5-15.6zm26.5-26.1c-11.7 0-21.1-9.5-21.1-21.2 0-11.7 9.4-21.1 21.1-21.1 11.7 0 21.2 9.4 21.2 21.1 0 11.7-9.5 21.2-21.2 21.2zm36.7-57.7c0 4 1.2 7.9 3.4 11.2 2.3 3.3 5.4 5.9 9.1 7.5 3.7 1.5 7.8 1.9 11.7 1.1 3.9-0.8 7.5-2.7 10.4-5.5 2.8-2.9 4.7-6.5 5.5-10.4 0.8-3.9 0.4-8-1.2-11.7-1.5-3.7-4.1-6.8-7.4-9-3.3-2.2-7.2-3.4-11.3-3.4-5.3 0-10.5 2.1-14.3 5.9-3.7 3.8-5.9 8.9-5.9 14.3zm64.8-25c0 3.7 1.1 7.2 3.1 10.3 2 3 4.9 5.3 8.2 6.7 3.4 1.4 7.1 1.8 10.6 1.1 3.6-0.7 6.9-2.5 9.5-5.1 2.5-2.5 4.3-5.8 5-9.4 0.7-3.5 0.3-7.2-1.1-10.6-1.3-3.3-3.7-6.2-6.7-8.2-3-2.1-6.6-3.1-10.2-3.1-4.9 0-9.6 1.9-13 5.4-3.5 3.4-5.4 8.1-5.4 12.9zm68.2-11.6c0 3.2 0.9 6.4 2.8 9.2 1.8 2.7 4.4 4.8 7.4 6.1 3 1.2 6.3 1.5 9.6 0.9 3.2-0.6 6.1-2.2 8.4-4.5 2.3-2.3 3.9-5.3 4.6-8.5 0.6-3.2 0.3-6.5-1-9.6-1.2-3-3.4-5.6-6.1-7.4-2.7-1.8-5.9-2.8-9.2-2.8-2.1 0-4.3 0.5-6.3 1.3-2 0.8-3.8 2-5.4 3.6-1.5 1.5-2.7 3.3-3.6 5.3-0.8 2.1-1.2 4.2-1.2 6.4zm68.8 1.8c0 2.9 0.9 5.8 2.5 8.2 1.6 2.4 3.9 4.3 6.6 5.4 2.7 1.1 5.7 1.4 8.5 0.8 2.9-0.5 5.5-1.9 7.6-4 2.1-2 3.5-4.7 4-7.5 0.6-2.9 0.3-5.8-0.8-8.5-1.1-2.7-3-5-5.4-6.6-2.5-1.7-5.3-2.5-8.2-2.5-3.9 0-7.7 1.5-10.4 4.3-2.8 2.8-4.4 6.5-4.4 10.4zm79.7 2.2c-2.5 0-5 0.8-7.1 2.2-2.1 1.4-3.8 3.4-4.8 5.8-0.9 2.3-1.2 4.9-0.7 7.4 0.5 2.5 1.7 4.8 3.5 6.6 1.8 1.8 4.1 3 6.6 3.5 2.5 0.5 5.1 0.2 7.5-0.7 2.3-1 4.3-2.7 5.7-4.8 1.4-2.1 2.2-4.6 2.2-7.1 0-3.4-1.4-6.7-3.8-9.1-2.4-2.4-5.7-3.8-9.1-3.8zm60.2 29.6c-2.2 0-4.5 0.6-6.3 1.9-1.9 1.3-3.4 3.1-4.3 5.2-0.8 2.1-1.1 4.4-0.6 6.6 0.4 2.2 1.5 4.3 3.1 5.9 1.6 1.6 3.7 2.7 5.9 3.1 2.2 0.5 4.5 0.2 6.6-0.6 2.1-0.9 3.9-2.4 5.2-4.3 1.3-1.9 1.9-4.1 1.9-6.4 0-3-1.2-5.9-3.3-8.1-2.2-2.1-5.1-3.3-8.2-3.3zm93.4 604.9c-2.3-0.1-4.5 0.5-6.5 1.7-1.9 1.2-3.4 3-4.4 5-0.9 2.1-1.2 4.4-0.9 6.6 0.4 2.3 1.4 4.4 3 6 1.5 1.7 3.5 2.8 5.7 3.4 2.2 0.5 4.6 0.3 6.7-0.5 2.1-0.7 4-2.2 5.3-4 1.3-1.8 2.1-4 2.1-6.3 0.1-1.5-0.1-3-0.7-4.4-0.5-1.4-1.3-2.7-2.3-3.8-1.1-1.1-2.3-2-3.7-2.7-1.3-0.6-2.8-0.9-4.3-1zm-54.7 38c-2.6 0-5.1 0.6-7.2 2-2.2 1.3-3.9 3.2-5 5.6-1 2.3-1.4 4.9-1 7.4 0.4 2.5 1.6 4.8 3.3 6.7 1.8 1.8 4 3.1 6.5 3.7 2.5 0.6 5.1 0.4 7.4-0.5 2.4-0.8 4.5-2.4 6-4.5 1.5-2.1 2.3-4.5 2.4-7.1 0.1-3.4-1.1-6.7-3.5-9.2-2.3-2.5-5.5-3.9-8.9-4.1zm-60.5 28.1c-3-0.1-5.8 0.7-8.3 2.2-2.5 1.5-4.5 3.8-5.7 6.4-1.2 2.7-1.6 5.6-1.1 8.5 0.4 2.9 1.7 5.5 3.7 7.7 2 2.1 4.6 3.6 7.4 4.3 2.9 0.6 5.9 0.4 8.6-0.6 2.7-1 5.1-2.8 6.8-5.2 1.7-2.3 2.6-5.2 2.7-8.1 0.2-3.9-1.3-7.7-3.9-10.5-2.7-2.9-6.4-4.5-10.2-4.7zm-64.8 17.6c-3.3-0.1-6.5 0.8-9.3 2.5-2.8 1.7-5 4.2-6.4 7.2-1.3 3-1.8 6.3-1.2 9.5 0.5 3.3 2 6.3 4.2 8.7 2.2 2.4 5.1 4 8.3 4.8 3.2 0.7 6.5 0.5 9.6-0.6 3.1-1.2 5.7-3.2 7.6-5.9 1.9-2.6 3-5.8 3.1-9 0.1-2.2-0.2-4.4-1-6.4-0.8-2.1-1.9-3.9-3.4-5.5-1.5-1.6-3.3-2.9-5.2-3.8-2-0.9-4.1-1.4-6.3-1.5zm-67.3 6.6c-3.6-0.1-7.2 0.9-10.3 2.8-3.1 1.9-5.6 4.7-7.1 8-1.5 3.3-2 7-1.4 10.6 0.6 3.5 2.2 6.9 4.7 9.5 2.5 2.7 5.7 4.6 9.2 5.4 3.6 0.8 7.3 0.6 10.7-0.7 3.4-1.2 6.3-3.5 8.5-6.4 2.1-3 3.3-6.5 3.4-10.1 0.2-4.9-1.6-9.7-4.9-13.2-3.3-3.6-7.9-5.7-12.8-5.9zm-68-1.8c-3.9-0.2-7.6 0.8-10.9 2.9-3.2 2-5.8 4.9-7.4 8.4-1.6 3.4-2.1 7.3-1.5 11.1 0.6 3.7 2.3 7.2 5 10 2.6 2.8 5.9 4.8 9.6 5.6 3.8 0.9 7.7 0.7 11.2-0.7 3.6-1.3 6.7-3.6 8.9-6.7 2.3-3.1 3.5-6.8 3.7-10.6 0.1-2.6-0.3-5.1-1.2-7.5-0.9-2.4-2.3-4.5-4-6.4-1.7-1.8-3.8-3.3-6.1-4.4-2.3-1-4.8-1.6-7.3-1.7zm-67-16.2c-4-0.1-7.9 0.9-11.3 3-3.4 2.1-6.1 5.2-7.8 8.8-1.6 3.7-2.2 7.7-1.5 11.7 0.6 3.9 2.4 7.6 5.1 10.5 2.8 2.9 6.3 5 10.2 5.9 3.9 0.9 8 0.6 11.7-0.8 3.8-1.4 7-3.8 9.4-7.1 2.3-3.2 3.6-7.1 3.8-11.1 0-2.6-0.4-5.3-1.3-7.8-0.9-2.5-2.4-4.7-4.2-6.7-1.8-1.9-4-3.5-6.4-4.6-2.4-1.1-5-1.7-7.7-1.8zm-63.9-25.2c-4.2-0.2-8.3 0.9-11.9 3.1-3.6 2.2-6.4 5.4-8.1 9.2-1.8 3.8-2.3 8-1.6 12.2 0.6 4.1 2.5 7.9 5.4 11 2.8 3 6.5 5.2 10.6 6.1 4 1 8.3 0.7 12.2-0.7 3.9-1.5 7.3-4.1 9.8-7.5 2.4-3.4 3.8-7.4 4-11.6 0.1-2.8-0.4-5.5-1.4-8.1-0.9-2.6-2.4-5-4.3-7-1.9-2.1-4.2-3.7-6.7-4.9-2.5-1.1-5.3-1.8-8-1.8zm-59.4-35.3c-4.3-0.2-8.7 1-12.4 3.3-3.7 2.2-6.7 5.6-8.5 9.6-1.8 3.9-2.4 8.4-1.7 12.7 0.7 4.3 2.7 8.3 5.7 11.5 2.9 3.2 6.8 5.5 11.1 6.5 4.2 1 8.7 0.7 12.8-0.9 4.1-1.5 7.6-4.2 10.2-7.8 2.5-3.5 4-7.7 4.1-12.1 0.2-5.9-1.9-11.5-5.9-15.8-4-4.3-9.5-6.8-15.4-7zm-53.9 1.4c-12.7 0-23-10.3-23-23 0-12.7 10.3-22.9 23-22.9 12.7 0 23 10.2 23 22.9 0 12.7-10.3 23-23 23zm-44.7-98.1c-4.7-0.2-9.4 1.1-13.4 3.6-4.1 2.5-7.2 6.1-9.2 10.4-2 4.3-2.6 9.1-1.9 13.7 0.8 4.7 2.9 9 6.2 12.5 3.2 3.4 7.4 5.9 12 6.9 4.6 1.1 9.4 0.8 13.8-0.8 4.4-1.7 8.3-4.6 11-8.5 2.8-3.8 4.4-8.4 4.5-13.1 0.3-6.3-2-12.5-6.4-17.1-4.3-4.6-10.3-7.4-16.6-7.6zm-12.8-34.1c0.2-4.9-1.1-9.8-3.7-13.9-2.6-4.2-6.3-7.5-10.8-9.6-4.5-2-9.4-2.7-14.3-1.9-4.8 0.8-9.3 3-12.9 6.4-3.6 3.3-6.1 7.7-7.3 12.4-1.1 4.8-0.8 9.8 0.9 14.4 1.8 4.6 4.8 8.6 8.8 11.5 4 2.8 8.7 4.4 13.6 4.6 6.6 0.2 13-2.1 17.8-6.6 4.8-4.5 7.7-10.7 7.9-17.3zm-26-60.7c0.2-5.1-1.2-10.1-3.8-14.4-2.7-4.4-6.6-7.8-11.3-9.9-4.6-2.1-9.7-2.8-14.8-2-5 0.8-9.7 3.1-13.4 6.6-3.7 3.5-6.3 8-7.5 12.9-1.1 5-0.8 10.2 1 14.9 1.8 4.8 4.9 8.9 9 11.9 4.2 3 9.1 4.6 14.2 4.8 3.4 0.1 6.7-0.4 9.9-1.6 3.2-1.2 6.1-3 8.5-5.3 2.5-2.3 4.5-5.1 5.9-8.1 1.4-3.1 2.2-6.4 2.3-9.8zm-14.9-62.5c0.2-5.3-1.2-10.5-4-15-2.8-4.5-6.8-8-11.6-10.2-4.8-2.2-10.1-2.9-15.3-2.1-5.3 0.9-10.1 3.3-13.9 6.9-3.9 3.6-6.6 8.2-7.8 13.4-1.2 5.1-0.9 10.5 1 15.4 1.8 4.9 5.1 9.2 9.4 12.3 4.2 3.1 9.3 4.8 14.6 5 7.1 0.2 14-2.3 19.1-7.2 5.2-4.8 8.2-11.5 8.5-18.5zm-33.4-37.8c5.5 0.2 10.9-1.2 15.5-4.1 4.6-2.9 8.3-7.1 10.6-12 2.2-5 3-10.5 2.1-15.9-0.9-5.4-3.3-10.4-7-14.3-3.8-4-8.6-6.8-13.9-8.1-5.3-1.2-10.9-0.9-16 1-5.1 2-9.5 5.3-12.7 9.8-3.2 4.4-5 9.7-5.2 15.1-0.1 3.6 0.5 7.2 1.7 10.6 1.3 3.4 3.2 6.5 5.7 9.2 2.5 2.6 5.5 4.8 8.8 6.3 3.2 1.5 6.8 2.3 10.4 2.4zm5.8-65.3c5.3 0.2 10.5-1.2 15-4 4.4-2.8 8-6.8 10.2-11.6 2.2-4.8 2.9-10.1 2-15.3-0.8-5.2-3.2-10.1-6.8-13.9-3.6-3.9-8.3-6.6-13.4-7.8-5.1-1.2-10.5-0.8-15.5 1-4.9 1.9-9.2 5.1-12.2 9.4-3.1 4.3-4.9 9.4-5.1 14.7-0.1 3.5 0.5 6.9 1.7 10.2 1.2 3.3 3.1 6.3 5.5 8.9 2.4 2.5 5.3 4.6 8.5 6.1 3.2 1.4 6.6 2.2 10.1 2.3zm15.9-63.4c5.1 0.1 10.1-1.2 14.4-3.9 4.3-2.7 7.8-6.6 9.9-11.2 2.1-4.6 2.8-9.8 2-14.8-0.8-5-3.1-9.7-6.6-13.4-3.5-3.7-8-6.3-12.9-7.5-5-1.2-10.2-0.8-14.9 0.9-4.8 1.8-8.9 5-11.9 9.1-3 4.1-4.7 9.1-4.9 14.1-0.1 3.4 0.5 6.8 1.7 10 1.1 3.1 2.9 6 5.2 8.5 2.4 2.5 5.1 4.5 8.2 5.9 3.1 1.4 6.4 2.1 9.8 2.3zm26.9-61.7c4.9 0.2 9.8-1.1 14-3.7 4.1-2.5 7.5-6.3 9.5-10.8 2-4.4 2.7-9.4 1.9-14.3-0.8-4.8-3-9.3-6.3-12.9-3.4-3.6-7.7-6.1-12.5-7.2-4.8-1.1-9.8-0.8-14.4 0.9-4.6 1.7-8.6 4.8-11.4 8.7-2.9 4-4.5 8.8-4.7 13.7-0.2 6.5 2.2 12.9 6.6 17.8 4.5 4.8 10.8 7.6 17.3 7.8zm36.8-59.8c4.7 0.2 9.4-1 13.4-3.5 4-2.5 7.2-6.1 9.2-10.4 2-4.3 2.6-9.1 1.8-13.8-0.7-4.7-2.8-9-6.1-12.4-3.2-3.5-7.4-5.9-12-7-4.6-1.1-9.4-0.8-13.8 0.9-4.5 1.6-8.3 4.6-11.1 8.4-2.7 3.8-4.3 8.4-4.4 13.1-0.3 6.3 2 12.5 6.4 17.1 4.3 4.7 10.3 7.4 16.6 7.6zm45.6-52.2c4.6 0.2 9-1 12.9-3.4 3.9-2.4 6.9-5.9 8.8-10 1.9-4.2 2.5-8.8 1.8-13.3-0.7-4.4-2.8-8.6-5.9-11.9-3.1-3.3-7.1-5.7-11.5-6.7-4.5-1.1-9.1-0.8-13.3 0.8-4.3 1.6-8 4.4-10.6 8.1-2.7 3.7-4.2 8.1-4.4 12.6-0.2 6.1 2 12.1 6.2 16.5 4.2 4.5 9.9 7.1 16 7.3zm53.2-44.3c4.4 0.1 8.7-1 12.4-3.3 3.7-2.3 6.7-5.7 8.5-9.6 1.8-4 2.4-8.4 1.7-12.8-0.7-4.3-2.6-8.3-5.6-11.5-3-3.2-6.9-5.4-11.1-6.4-4.3-1-8.8-0.7-12.9 0.8-4.1 1.5-7.6 4.3-10.2 7.8-2.5 3.6-3.9 7.8-4.1 12.2-0.2 5.8 2 11.5 5.9 15.8 4 4.2 9.6 6.7 15.4 7zm59.4-35.5c4.2 0.1 8.3-0.9 11.9-3.1 3.5-2.2 6.3-5.5 8.1-9.3 1.7-3.8 2.3-8 1.6-12.1-0.7-4.2-2.5-8-5.4-11-2.9-3.1-6.6-5.3-10.6-6.2-4.1-1-8.4-0.7-12.3 0.8-3.9 1.4-7.3 4-9.7 7.4-2.5 3.4-3.9 7.5-4 11.6-0.2 5.6 1.8 11.1 5.7 15.2 3.8 4.1 9.1 6.5 14.7 6.7zm64-25.2c4 0.2 8-0.9 11.4-3 3.4-2.1 6.1-5.2 7.7-8.8 1.7-3.6 2.3-7.7 1.6-11.6-0.6-4-2.4-7.7-5.2-10.6-2.7-2.9-6.2-5-10.1-5.9-3.9-0.9-8-0.6-11.7 0.8-3.8 1.4-7 3.8-9.4 7.1-2.3 3.2-3.6 7.1-3.8 11.1-0.2 5.4 1.8 10.6 5.4 14.5 3.7 3.9 8.8 6.2 14.1 6.4zm67-16.2c3.8 0.1 7.6-0.9 10.8-2.9 3.3-2 5.9-4.9 7.4-8.4 1.6-3.5 2.2-7.3 1.5-11.1-0.6-3.8-2.3-7.3-4.9-10-2.6-2.8-6-4.8-9.7-5.7-3.7-0.9-7.6-0.6-11.2 0.7-3.5 1.4-6.7 3.7-8.9 6.8-2.2 3.1-3.5 6.8-3.6 10.6-0.1 2.6 0.3 5.1 1.2 7.5 0.9 2.3 2.2 4.5 3.9 6.4 1.8 1.8 3.9 3.3 6.2 4.4 2.3 1 4.8 1.6 7.3 1.7zm68.1-1.8c3.6 0.1 7.2-0.9 10.3-2.8 3.1-1.9 5.6-4.7 7.1-8 1.5-3.3 2-7 1.4-10.6-0.6-3.6-2.2-6.9-4.7-9.5-2.5-2.7-5.7-4.6-9.2-5.4-3.6-0.8-7.3-0.6-10.7 0.7-3.4 1.2-6.4 3.5-8.5 6.4-2.1 3-3.3 6.5-3.4 10.1-0.2 4.9 1.6 9.7 4.9 13.2 3.3 3.6 7.9 5.7 12.8 5.9zm67.4 4.8c3.3 0.1 6.5-0.8 9.3-2.5 2.8-1.7 5-4.2 6.4-7.2 1.3-3 1.8-6.3 1.2-9.5-0.5-3.3-2-6.3-4.2-8.7-2.2-2.3-5.1-4-8.3-4.8-3.2-0.7-6.5-0.5-9.6 0.6-3.1 1.2-5.7 3.2-7.6 5.9-1.9 2.6-3 5.8-3.1 9.1-0.2 4.3 1.4 8.6 4.4 11.8 3 3.2 7.1 5.1 11.5 5.3zm64.9 19.4c2.9 0.1 5.8-0.7 8.3-2.2 2.5-1.5 4.5-3.8 5.7-6.4 1.2-2.7 1.6-5.6 1.1-8.5-0.5-2.9-1.8-5.5-3.8-7.7-1.9-2.1-4.5-3.6-7.4-4.3-2.8-0.6-5.8-0.4-8.5 0.6-2.7 1-5.1 2.8-6.8 5.2-1.7 2.4-2.7 5.2-2.8 8.1-0.1 3.9 1.3 7.7 4 10.5 2.7 2.9 6.3 4.5 10.2 4.7zm61.6 2.2c-2.6-0.1-5.1 0.6-7.2 1.9-2.2 1.4-3.9 3.3-5 5.6-1 2.4-1.4 4.9-1 7.5 0.4 2.5 1.6 4.8 3.3 6.7 1.8 1.8 4 3.1 6.5 3.7 2.5 0.6 5.1 0.4 7.4-0.5 2.4-0.9 4.5-2.4 6-4.5 1.5-2.1 2.3-4.5 2.4-7.1 0.1-1.7-0.2-3.3-0.8-4.9-0.6-1.6-1.5-3.1-2.7-4.3-1.1-1.2-2.5-2.2-4-2.9-1.6-0.7-3.2-1.1-4.9-1.2zm53.9 63.9c2.2 0.1 4.5-0.5 6.4-1.7 1.9-1.2 3.5-2.9 4.4-5 1-2 1.3-4.3 0.9-6.6-0.4-2.2-1.4-4.3-2.9-6-1.6-1.6-3.6-2.8-5.8-3.3-2.2-0.5-4.5-0.4-6.6 0.4-2.2 0.8-4 2.2-5.4 4-1.3 1.9-2 4.1-2.1 6.4-0.1 1.5 0.2 3 0.7 4.4 0.5 1.4 1.3 2.7 2.4 3.8 1 1.1 2.2 2 3.6 2.6 1.4 0.6 2.9 1 4.4 1z"/>
</svg>