<svg version="1.2" xmlns="http://www.w3.org/2000/svg" viewBox="0 0 1613 328" width="1613" height="328">
	<title>BrightSphere_logo-svg</title>
	<style>
		.s0 { fill: #acc5e9 } 
		.s1 { fill: #0047ba } 
		.s2 { fill: #000000 } 
		.s3 { fill: #000b8c } 
	</style>
	<g id="Group_26">
		<path id="Path_97" fill-rule="evenodd" class="s0" d="m324.9 184.1q-4.5 2.6-9.1 5.1q-4.6 2.4-9.3 4.7q-4.7 2.2-9.5 4.3q-4.8 2.1-9.6 3.9q3 4.3 5.8 8.7q2.8 4.3 5.4 8.8q2.7 4.5 5.1 9.1q2.5 4.5 4.8 9.2l0.1 0.4l-0.4 0.1q-5.1 0.9-10.3 1.6q-5.1 0.7-10.3 1.2q-5.2 0.5-10.4 0.9q-5.2 0.3-10.4 0.4q1.3 5 2.5 10.1q1.1 5.1 2.1 10.2q0.9 5.1 1.7 10.2q0.7 5.2 1.3 10.4v0.3l-0.4-0.1q-5.1-0.9-10.2-2q-5.1-1-10.1-2.3q-5.1-1.3-10.1-2.8q-4.9-1.4-9.9-3.1q-0.4 5.2-1.1 10.3q-0.6 5.2-1.5 10.3q-0.8 5.2-1.9 10.2q-1 5.1-2.3 10.2l-0.1 0.4l-0.4-0.3q-4.5-2.6-8.9-5.3q-4.4-2.8-8.7-5.7q-4.3-3-8.5-6.1q-4.2-3.1-8.3-6.3q-2.2 4.7-4.6 9.3q-2.4 4.6-4.9 9.1q-2.6 4.5-5.3 9q-2.7 4.4-5.6 8.7l-0.3 0.4l-0.2-0.4q-3.4-4-6.6-8.1q-3.2-4.1-6.2-8.3q-3-4.3-5.9-8.6q-2.9-4.3-5.6-8.8q-3.7 3.7-7.5 7.2q-3.8 3.6-7.8 6.9q-3.9 3.4-8 6.6q-4.1 3.2-8.3 6.3l-0.4 0.3l-0.1-0.4q-1.8-4.9-3.4-9.9q-1.6-4.9-3-9.9q-1.4-5.1-2.6-10.1q-1.2-5.1-2.3-10.2q-4.7 2.2-9.5 4.2q-4.8 2-9.6 3.8q-4.9 1.9-9.9 3.5q-4.9 1.6-9.9 3l-0.4 0.2v-0.4q0-5.2 0.2-10.4q0.2-5.2 0.6-10.4q0.4-5.2 1-10.3q0.6-5.2 1.4-10.3c-7.8 0.6-15.5 1-23.3 1c-6.1 0-12.3-0.2-18.3-0.6h-0.4l0.1-0.4q1.8-4.9 3.8-9.7q2-4.8 4.1-9.6q2.2-4.7 4.5-9.3q2.3-4.7 4.8-9.3q-5-1.3-10-2.9q-4.9-1.5-9.8-3.3q-5-1.7-9.8-3.6q-4.8-1.9-9.6-4l-0.4-0.2l0.3-0.4q3.3-4 6.8-7.8q3.5-3.9 7.2-7.6q3.6-3.7 7.4-7.3q3.8-3.6 7.7-7q-4.3-3-8.4-6.1q-4.2-3.2-8.2-6.5q-4-3.3-7.9-6.8q-3.9-3.4-7.6-7l-0.3-0.3l0.4-0.1q4.5-2.7 9.1-5.1q4.6-2.5 9.3-4.7q4.7-2.3 9.4-4.4q4.8-2 9.7-3.9q-3-4.3-5.8-8.6q-2.8-4.4-5.5-8.9q-2.6-4.4-5.1-9q-2.4-4.6-4.7-9.3l-0.1-0.3l0.3-0.2q5.2-0.9 10.3-1.7q5.2-0.7 10.4-1.2q5.2-0.5 10.4-0.9q5.2-0.3 10.4-0.4q-1.4-5-2.5-10.1q-1.2-5-2.1-10.2q-1-5.1-1.7-10.2q-0.8-5.2-1.3-10.3v-0.4l0.4 0.1q5.1 0.9 10.2 2q5 1.1 10.1 2.3q5 1.3 10 2.8q5 1.5 9.9 3.1q0.5-5.2 1.1-10.3q0.7-5.2 1.5-10.3q0.9-5.1 1.9-10.2q1.1-5.1 2.3-10.2l0.2-0.4l0.4 0.3q4.5 2.6 8.9 5.4q4.4 2.7 8.7 5.7q4.3 2.9 8.5 6q4.1 3.1 8.2 6.3q2.2-4.7 4.6-9.3q2.4-4.6 5-9.1q2.5-4.5 5.2-9q2.8-4.4 5.7-8.7l0.2-0.4l0.4 0.5q3.4 4 6.5 8.1q3.2 4.1 6.3 8.4q3 4.2 5.9 8.5q2.9 4.4 5.6 8.8q3.7-3.6 7.5-7.2q3.8-3.5 7.8-6.9q3.9-3.3 8-6.6q4.1-3.2 8.3-6.3l0.4-0.2l0.1 0.4q1.8 4.9 3.4 9.8q1.6 5 3 10q1.4 5 2.6 10.1q1.2 5 2.3 10.1q4.7-2.1 9.5-4.2q4.8-2 9.6-3.8q4.9-1.8 9.9-3.4q4.9-1.7 9.9-3.1l0.4-0.1v0.4q0 5.2-0.2 10.4q-0.2 5.1-0.6 10.3q-0.4 5.2-1 10.4q-0.6 5.1-1.3 10.3q5.1-0.5 10.3-0.7q5.2-0.3 10.4-0.3q5.2-0.1 10.4 0.1q5.2 0.1 10.4 0.5h0.4l-0.1 0.4q-1.8 4.8-3.8 9.7q-2 4.8-4.1 9.5q-2.2 4.7-4.5 9.4q-2.3 4.6-4.8 9.2q5 1.4 10 2.9q4.9 1.6 9.8 3.3q5 1.8 9.8 3.7q4.8 1.9 9.6 4l0.4 0.1l-0.3 0.4q-3.3 4-6.8 7.8q-3.5 3.9-7.2 7.6q-3.6 3.7-7.4 7.3q-3.8 3.6-7.7 7q4.3 3 8.4 6.2q4.2 3.1 8.2 6.4q4 3.4 7.9 6.8q3.9 3.5 7.6 7.1l0.3 0.2zm-140.6 32.1c6.8-2.8 13-6.9 18.3-12.2c5.2-5.2 9.4-11.4 12.2-18.2c2.8-6.9 4.3-14.2 4.3-21.6c0-22.7-13.7-43.3-34.8-52c-21.1-8.7-45.3-3.9-61.4 12.2c-16.2 16.1-21 40.4-12.3 61.4c8.8 21 29.3 34.8 52.1 34.8c7.4-0.1 14.8-1.5 21.6-4.4z" />
		<path id="Path_98" fill-rule="evenodd" class="s1" d="m292.7 157.6q-3 2.7-6 5.2q-3.1 2.5-6.2 5q-3.1 2.4-6.3 4.8q-3.2 2.3-6.5 4.5q0.2 0.2 0.3 0.4q0.2 0.2 0.4 0.3q0.1 0.2 0.3 0.4q0.1 0.2 0.3 0.4c1.2 1.3 2.5 2.7 3.7 4.2c4.8 5.9 9.7 12.1 14.6 19.2l0.3 0.4l-0.4 0.1q-3.7 1.5-7.4 2.8q-3.8 1.3-7.5 2.5q-3.8 1.2-7.6 2.3q-3.8 1.1-7.6 2.1q0 0.3 0.1 0.5q0.1 0.2 0.1 0.4q0.1 0.2 0.2 0.4q0.1 0.2 0.2 0.4c0.8 1.7 1.5 3.6 2.1 5.3c2.6 7.2 5 14.8 7.2 23.1l0.2 0.4h-6.1c-8.8 0-17.5-0.4-26.1-1.1v1.8c0.2 1.8 0.2 3.8 0.2 5.6c0 7.8-0.4 15.6-1.2 24.3v0.3l-0.4-0.1q-3.7-1.3-7.5-2.7q-3.7-1.3-7.3-2.8q-3.7-1.5-7.3-3.1q-3.7-1.6-7.3-3.3c-0.1 0.5-0.4 1.2-0.5 1.7c-0.7 1.8-1.2 3.7-1.8 5.4c-2.6 7.2-5.7 14.5-9.3 22.4l-0.2 0.4l-0.2-0.3q-3.1-2.5-6.2-5q-3-2.6-6-5.3q-2.9-2.6-5.8-5.4q-2.8-2.7-5.6-5.5q-0.2 0.1-0.3 0.3q-0.2 0.2-0.3 0.4q-0.2 0.2-0.3 0.3q-0.2 0.2-0.3 0.4l-3.5 4.3c-4.8 5.9-10.2 11.7-16.4 17.8l-0.2 0.3l-0.3-0.4q-2.1-3.4-4-6.8q-2-3.5-3.8-7q-1.9-3.5-3.6-7q-1.8-3.6-3.4-7.2c-0.5 0.4-1.1 0.6-1.6 1c-1.6 1-3.1 2-4.7 2.9c-6.6 3.8-13.6 7.5-21.5 11.1l-0.4 0.2l-0.1-0.4q-0.8-3.9-1.5-7.8q-0.6-3.9-1.2-7.9q-0.5-3.9-0.9-7.8q-0.5-4-0.8-7.9c-0.6 0.1-1.1 0.2-1.8 0.3c-1.8 0.4-3.7 0.8-5.5 1.1c-7.6 1.4-15.5 2.4-24.1 3.1h-0.4v-0.4q0.6-3.9 1.3-7.8q0.7-3.9 1.6-7.8q0.8-3.9 1.8-7.7q0.9-3.9 2-7.7c-0.7-0.1-1.2-0.1-1.9-0.3c-1.8-0.2-3.8-0.5-5.6-0.9c-7.6-1.4-15.3-3.1-23.7-5.3l-0.4-0.2l0.2-0.4q2-3.4 4-6.9q2-3.4 4.1-6.7q2.1-3.4 4.3-6.7q2.3-3.3 4.6-6.5c-0.7-0.4-1.2-0.7-1.7-0.9c-1.6-0.8-3.3-1.7-4.9-2.6c-6.7-3.8-13.4-8.2-20.4-13.1l-0.4-0.3l0.2-0.3q3-2.6 6.1-5.1q3-2.6 6.1-5q3.2-2.5 6.4-4.8q3.2-2.3 6.5-4.6q-0.2-0.1-0.4-0.3q-0.2-0.2-0.3-0.4q-0.2-0.2-0.3-0.3q-0.2-0.2-0.3-0.4c-1.2-1.3-2.5-2.8-3.7-4.2c-4.9-5.9-9.7-12.2-14.7-19.3l-0.3-0.3l0.4-0.2q3.7-1.4 7.5-2.7q3.7-1.3 7.5-2.6q3.7-1.2 7.5-2.3q3.9-1.1 7.7-2.1q-0.1-0.2-0.1-0.4q-0.1-0.2-0.2-0.4q-0.1-0.2-0.2-0.5q-0.1-0.2-0.2-0.4c-0.6-1.7-1.3-3.5-1.9-5.2c-2.6-7.2-5-14.8-7.2-23.2l-0.2-0.4h0.4q4-0.1 8-0.1q3.9 0.1 7.9 0.2q4 0.2 7.9 0.4q4 0.3 8 0.7v-1.8c-0.2-1.9-0.2-3.8-0.2-5.7c0-7.7 0.4-15.6 1.2-24.2v-0.4l0.4 0.1q3.7 1.3 7.4 2.7q3.8 1.4 7.4 2.9q3.7 1.5 7.3 3.1q3.7 1.6 7.2 3.3c0.2-0.7 0.4-1.2 0.6-1.9c0.6-1.7 1.2-3.5 1.8-5.2c2.6-7.2 5.6-14.5 9.3-22.4l0.2-0.4l0.2 0.3q3.1 2.4 6.2 5q3 2.6 5.9 5.2q3 2.7 5.9 5.4q2.8 2.8 5.6 5.6c0.4-0.5 0.8-0.9 1.2-1.5l3.5-4.3c4.9-5.9 10.2-11.6 16.4-17.8l0.3-0.2l0.2 0.3q2.1 3.4 4 6.9q2 3.4 3.9 6.9q1.8 3.5 3.6 7.1q1.7 3.6 3.3 7.2c0.5-0.4 1.1-0.7 1.6-1.1c1.4-0.9 3.2-1.9 4.7-2.8c6.6-3.8 13.6-7.5 21.5-11.2l0.4-0.1l0.1 0.4q0.8 3.9 1.5 7.8q0.6 3.9 1.2 7.8q0.5 4 0.9 7.9q0.5 4 0.8 7.9c0.6-0.1 1.1-0.2 1.8-0.4c1.8-0.4 3.7-0.8 5.5-1c7.6-1.5 15.5-2.4 24.1-3.2h0.4v0.4q-0.6 3.9-1.3 7.8q-0.7 4-1.6 7.8q-0.8 3.9-1.8 7.8q-0.9 3.8-2 7.7c0.7 0.1 1.2 0.1 1.9 0.2c1.8 0.1 3.6 0.5 5.5 0.8c7.6 1.4 15.3 3.1 23.7 5.4l0.4 0.1l-0.3 0.4q-1.9 3.5-3.9 6.9q-2 3.4-4.1 6.7q-2.2 3.4-4.4 6.7q-2.2 3.3-4.5 6.5c0.7 0.3 1.2 0.7 1.7 0.9c1.6 0.8 3.3 1.8 4.9 2.7c6.7 3.8 13.3 8.1 20.4 13.1l0.4 0.2zm-108.4 58.6c6.8-2.9 13-7 18.2-12.2c5.3-5.3 9.4-11.5 12.3-18.3c2.8-6.8 4.3-14.1 4.3-21.5c0-22.8-13.8-43.3-34.8-52.1c-21.1-8.7-45.3-3.9-61.5 12.3c-16.1 16.1-20.9 40.3-12.2 61.3c8.7 21.1 29.3 34.8 52.1 34.8c7.4 0 14.7-1.5 21.6-4.3z" />
		<path id="Path_99" fill-rule="evenodd" class="s2" d="m482.7 165.2c0 21.3-13.4 33.7-36.6 33.7h-38.8q-0.3 0-0.6-0.2q-0.3-0.1-0.5-0.3q-0.2-0.2-0.3-0.5q-0.1-0.3-0.1-0.6v-114.3q0-0.3 0.1-0.6q0.1-0.3 0.3-0.5q0.2-0.2 0.5-0.4q0.3-0.1 0.6-0.1h35.6c20.8 0 33.7 11.7 33.7 30.4c0 10.2-3.2 17.7-9.6 22.5q-0.3 0.3-0.5 0.6q-0.1 0.4-0.1 0.7q0.1 0.4 0.3 0.7q0.2 0.3 0.5 0.5c10.1 5 15.5 14.8 15.5 28.4zm-65.2 21.3q0 0.3 0.1 0.6q0.1 0.2 0.3 0.5q0.2 0.2 0.5 0.3q0.3 0.1 0.6 0.1h26.5c17.5 0 25.8-7.3 25.8-23c0-15.5-8.7-22.9-26.4-22.9h-25.9q-0.3 0-0.6 0.1q-0.3 0.1-0.5 0.3q-0.2 0.2-0.3 0.5q-0.2 0.3-0.2 0.6zm0.1-56q0.2 0.3 0.4 0.5q0.2 0.2 0.5 0.3q0.3 0.1 0.6 0.1h26.3c13.1 0 19.8-6.6 19.8-19.7c0-12.9-7.6-19.6-22.8-19.6h-23.3q-0.3 0-0.6 0.1q-0.3 0.1-0.5 0.3q-0.2 0.3-0.4 0.5q-0.1 0.3-0.1 0.6v36.3q0 0.3 0.1 0.6z" />
		<path id="Path_100" fill-rule="evenodd" class="s2" d="m585.7 127c-0.9 3.3-2.3 6.5-4.2 9.4c-1.9 2.9-4.3 5.4-7.1 7.5c-2.7 2.1-5.7 3.8-9 5q-0.3 0.1-0.6 0.3q-0.2 0.3-0.3 0.6q-0.1 0.3-0.1 0.6q0 0.4 0.2 0.7l26.6 45.3q0.2 0.3 0.2 0.8q0.1 0.4-0.1 0.7q-0.3 0.4-0.6 0.6q-0.4 0.2-0.8 0.2h-10.1q-0.2 0-0.4 0q-0.2-0.1-0.3-0.2q-0.2-0.1-0.4-0.2q-0.1-0.2-0.2-0.3l-26.3-45.2q-0.2-0.2-0.3-0.3q-0.2-0.2-0.4-0.3q-0.1-0.1-0.4-0.1q-0.2-0.1-0.4-0.1c-1.7 0.1-3.5 0.1-5.4 0.1h-19.5q-0.3 0.1-0.6 0.2q-0.3 0.1-0.5 0.3q-0.2 0.2-0.3 0.5q-0.1 0.3-0.2 0.6v43.5q0 0.3-0.1 0.6q-0.1 0.2-0.3 0.5q-0.2 0.2-0.5 0.3q-0.3 0.1-0.6 0.1h-8.4q-0.3 0-0.6-0.1q-0.3-0.1-0.5-0.3q-0.2-0.3-0.3-0.5q-0.2-0.3-0.2-0.6v-114.4q0-0.3 0.2-0.6q0.1-0.2 0.3-0.5q0.2-0.2 0.5-0.3q0.3-0.1 0.6-0.1h31c26 0 41.5 13.2 41.5 35.5c0.2 3.4-0.2 6.9-1.1 10.2zm-41-35h-18.8q-0.3 0-0.6 0.2q-0.3 0.1-0.5 0.3q-0.3 0.2-0.4 0.5q-0.1 0.3-0.1 0.6v46.2q0 0.3 0.1 0.6q0.1 0.3 0.4 0.5q0.2 0.2 0.5 0.4q0.3 0.1 0.6 0.1h18.8c20.2 0 30.4-8.3 30.4-24.6c0-16.4-10.2-24.8-30.4-24.8z" />
		<path id="Path_101" class="s2" d="m621.1 198.6q-0.3-0.1-0.5-0.3q-0.2-0.3-0.4-0.5q-0.1-0.3-0.1-0.6v-114.4q0-0.3 0.1-0.6q0.2-0.2 0.4-0.5q0.2-0.2 0.5-0.3q0.3-0.1 0.6-0.1h8.4q0.3 0 0.6 0.1q0.2 0.1 0.5 0.3q0.2 0.3 0.3 0.5q0.1 0.3 0.1 0.6v114.4q0 0.3-0.1 0.6q-0.1 0.3-0.3 0.5q-0.3 0.2-0.5 0.3q-0.3 0.1-0.6 0.1h-8.4q-0.3 0-0.6-0.1z" />
		<path id="Path_102" class="s2" d="m721.9 153.3v-7.6q0-0.3 0.1-0.6q0.1-0.3 0.3-0.5q0.2-0.2 0.5-0.3q0.3-0.1 0.6-0.1h44.6q0.3 0 0.6 0.1q0.3 0.1 0.5 0.3q0.2 0.2 0.4 0.5q0.1 0.3 0.1 0.6v36.5l-0.7 0.7c-7.8 8-22.3 17.4-46.8 17.4c-15.9 0-31.2-6.4-42.4-17.6c-11.3-11.3-17.6-26.5-17.5-42.4c0-15.9 6.3-31.2 17.6-42.4c11.3-11.3 26.5-17.6 42.5-17.5c16.7 0 31 5.2 40.1 14.8l1.5 1.5l-7.7 8l-1.7-1.7c-7.5-8-18.4-11.9-32.3-11.9c-12.9 0.1-25.3 5.3-34.5 14.5c-9.1 9.2-14.2 21.6-14.3 34.5c0 13 5.1 25.4 14.2 34.6c9.2 9.2 21.5 14.5 34.5 14.6q4.8 0.2 9.5-0.4q4.8-0.7 9.3-2.1q4.6-1.5 8.8-3.8q4.2-2.3 7.9-5.2q0.1-0.2 0.2-0.3q0.1-0.1 0.2-0.3q0.1-0.1 0.1-0.3q0-0.1 0.1-0.3v-20.6q-0.1-0.3-0.2-0.6q-0.1-0.2-0.3-0.5q-0.2-0.2-0.5-0.3q-0.3-0.1-0.6-0.1h-33.3c-0.9 0-1.6-0.7-1.4-1.2z" />
		<path id="Path_103" class="s2" d="m870.5 135.9q0.2-0.2 0.5-0.4q0.2-0.2 0.3-0.5q0.1-0.3 0.2-0.6v-51.6q0-0.3 0.1-0.6q0.1-0.2 0.3-0.5q0.2-0.2 0.5-0.3q0.3-0.1 0.6-0.1h8.3q0.3 0 0.6 0.1q0.3 0.1 0.5 0.3q0.2 0.3 0.4 0.5q0.1 0.3 0.1 0.6v114.4q0 0.3-0.1 0.6q-0.2 0.2-0.4 0.5q-0.2 0.2-0.5 0.3q-0.3 0.1-0.6 0.1h-8.4q-0.3 0-0.6-0.1q-0.2-0.1-0.5-0.3q-0.2-0.3-0.3-0.5q-0.1-0.3-0.1-0.6v-48.7q0-0.4-0.1-0.6q-0.2-0.3-0.4-0.5q-0.2-0.3-0.5-0.4q-0.3-0.1-0.6-0.1h-57.8q-0.3 0-0.6 0.1q-0.3 0.1-0.5 0.4q-0.2 0.2-0.3 0.5q-0.1 0.2-0.2 0.6v48.7q0 0.3-0.1 0.6q-0.1 0.2-0.3 0.5q-0.2 0.2-0.5 0.3q-0.3 0.1-0.6 0.1h-8.4q-0.3 0-0.6-0.1q-0.3-0.1-0.5-0.3q-0.2-0.3-0.3-0.5q-0.2-0.3-0.2-0.6v-114.4q0-0.3 0.2-0.6q0.1-0.2 0.3-0.5q0.2-0.2 0.5-0.3q0.3-0.1 0.6-0.1h8.4q0.3 0 0.6 0.1q0.3 0.1 0.5 0.3q0.2 0.3 0.4 0.5q0.1 0.3 0.1 0.6v51.7q0 0.3 0.1 0.5q0.1 0.3 0.4 0.5q0.2 0.3 0.5 0.4q0.2 0.1 0.5 0.1h57.9q0.3 0 0.6-0.1z" />
		<path id="Path_104" class="s2" d="m907.8 91.9q-0.3-0.1-0.5-0.4q-0.2-0.2-0.3-0.5q0-0.3 0-0.6v-7.6q0-0.3 0.1-0.6q0.1-0.2 0.4-0.5q0.2-0.2 0.5-0.3q0.2-0.1 0.6-0.1h80q0.3 0 0.6 0.1q0.3 0.1 0.5 0.3q0.2 0.3 0.3 0.5q0.1 0.3 0.1 0.6v7.7q0 0.3-0.1 0.5q-0.1 0.3-0.3 0.5q-0.2 0.3-0.5 0.4q-0.3 0.1-0.6 0.1h-32.8q-0.3 0-0.6 0.1q-0.3 0.2-0.5 0.4q-0.2 0.2-0.3 0.5q-0.1 0.3-0.1 0.6v103.6q-0.1 0.3-0.2 0.5q-0.1 0.3-0.3 0.5q-0.2 0.3-0.5 0.4q-0.3 0.1-0.6 0.1h-8.4q-0.3 0-0.6-0.1q-0.3-0.1-0.5-0.4q-0.2-0.2-0.3-0.5q-0.1-0.2-0.2-0.5v-103.6q0-0.3-0.1-0.6q-0.1-0.3-0.3-0.5q-0.2-0.2-0.5-0.4q-0.3-0.1-0.6-0.1h-32.8q-0.3 0-0.6-0.1z" />
		<path id="Path_105" fill-rule="evenodd" class="s2" d="m1183.5 117.3c0 22.5-15.6 35.9-41.8 35.9h-19.1q-0.3 0-0.6 0.1q-0.3 0.1-0.5 0.3q-0.2 0.2-0.3 0.5q-0.2 0.3-0.2 0.6v42.5q0 0.3-0.1 0.6q-0.1 0.2-0.3 0.5q-0.3 0.2-0.5 0.3q-0.3 0.1-0.6 0.1h-8.4q-0.3 0-0.6-0.1q-0.3-0.1-0.5-0.3q-0.2-0.3-0.4-0.5q-0.1-0.3-0.1-0.6v-114.4q0-0.3 0.1-0.6q0.2-0.2 0.4-0.5q0.2-0.2 0.5-0.3q0.3-0.1 0.6-0.1h30.7c26.6 0 41.8 13.2 41.7 36zm-42.4-25.3h-18.5q-0.3 0-0.6 0.2q-0.2 0.1-0.5 0.3q-0.2 0.2-0.3 0.5q-0.1 0.3-0.1 0.6v47.3q0 0.3 0.1 0.6q0.1 0.2 0.3 0.5q0.3 0.2 0.5 0.3q0.3 0.1 0.6 0.1h18.5c20.7 0 30.8-8.2 30.8-25.1c0-17-10.1-25.3-30.8-25.3z" />
		<path id="Path_106" class="s2" d="m1282.2 135.9q0.3-0.2 0.5-0.4q0.2-0.2 0.4-0.5q0.1-0.3 0.1-0.6v-51.6q0-0.3 0.1-0.6q0.1-0.2 0.3-0.5q0.3-0.2 0.5-0.3q0.3-0.1 0.6-0.1h8.4q0.3 0 0.6 0.1q0.3 0.1 0.5 0.3q0.2 0.3 0.4 0.5q0.1 0.3 0.1 0.6v114.4q0 0.3-0.1 0.6q-0.2 0.2-0.4 0.5q-0.2 0.2-0.5 0.3q-0.3 0.1-0.6 0.1h-8.4q-0.3 0-0.6-0.1q-0.2-0.1-0.5-0.3q-0.2-0.3-0.3-0.5q-0.1-0.3-0.1-0.6v-48.7q0-0.4-0.2-0.6q-0.1-0.3-0.3-0.5q-0.2-0.3-0.5-0.4q-0.3-0.1-0.6-0.1h-57.9q-0.3 0-0.6 0.1q-0.3 0.1-0.5 0.4q-0.2 0.2-0.4 0.5q-0.1 0.2-0.1 0.6v48.7q0 0.3-0.1 0.6q-0.1 0.2-0.4 0.5q-0.2 0.2-0.5 0.3q-0.2 0.1-0.6 0.1h-8.3q-0.4 0-0.6-0.1q-0.3-0.1-0.5-0.3q-0.3-0.3-0.4-0.5q-0.1-0.3-0.1-0.6v-114.4q0-0.3 0.1-0.6q0.1-0.2 0.4-0.5q0.2-0.2 0.5-0.3q0.2-0.1 0.6-0.1h8.4q0.3 0 0.6 0.1q0.3 0.1 0.5 0.3q0.2 0.3 0.3 0.5q0.1 0.3 0.1 0.6v51.7q0.1 0.3 0.2 0.5q0.1 0.3 0.3 0.5q0.2 0.3 0.5 0.4q0.3 0.1 0.6 0.1h58q0.3 0 0.5-0.1z" />
		<path id="Path_107" class="s2" d="m1342.8 145.1q-0.3 0.2-0.5 0.4q-0.3 0.2-0.4 0.4q-0.2 0.3-0.2 0.6v40q0 0.3 0.1 0.6q0.1 0.2 0.4 0.5q0.2 0.2 0.5 0.3q0.2 0.1 0.6 0.1h58.3q0.3 0 0.6 0.1q0.3 0.2 0.5 0.4q0.2 0.2 0.3 0.5q0.2 0.3 0.2 0.6v7.6q0 0.3-0.2 0.6q-0.1 0.2-0.3 0.5q-0.2 0.2-0.5 0.3q-0.3 0.1-0.6 0.1h-69.7q-0.4 0-0.6-0.1q-0.3-0.1-0.5-0.3q-0.3-0.3-0.4-0.5q-0.1-0.3-0.1-0.6v-114.4q0-0.3 0.1-0.6q0.1-0.2 0.4-0.5q0.2-0.2 0.5-0.3q0.2-0.1 0.6-0.1h67.5q0.3 0 0.6 0.1q0.3 0.1 0.5 0.3q0.2 0.3 0.3 0.5q0.1 0.3 0.1 0.6v7.7q0 0.3-0.1 0.6q-0.1 0.2-0.3 0.5q-0.2 0.2-0.5 0.3q-0.3 0.1-0.6 0.1h-56q-0.3 0-0.6 0.2q-0.3 0.1-0.5 0.3q-0.2 0.2-0.3 0.5q-0.1 0.3-0.2 0.6v39.2q0.1 0.3 0.2 0.6q0.1 0.3 0.3 0.5q0.2 0.2 0.5 0.3q0.3 0.1 0.6 0.1h49.8q0.3 0 0.6 0.2q0.3 0.1 0.5 0.3q0.2 0.2 0.4 0.5q0.1 0.3 0.1 0.6v7.6q0 0.3-0.1 0.6q-0.2 0.3-0.4 0.5q-0.2 0.2-0.5 0.3q-0.3 0.1-0.6 0.1h-49.8q-0.3 0-0.6 0.1z" />
		<path id="Path_108" fill-rule="evenodd" class="s2" d="m1505.8 127c-0.9 3.4-2.4 6.5-4.3 9.4c-2 2.9-4.3 5.4-7.1 7.5c-2.7 2.2-5.8 3.8-9.1 5q-0.3 0.1-0.5 0.3q-0.3 0.3-0.4 0.6q-0.1 0.3-0.1 0.6q0.1 0.4 0.3 0.7l26.6 45.3q0.2 0.3 0.2 0.8q0 0.4-0.2 0.7q-0.2 0.4-0.6 0.6q-0.3 0.2-0.7 0.2h-10q-0.2 0-0.4 0q-0.2-0.1-0.4-0.2q-0.1-0.1-0.3-0.2q-0.1-0.2-0.2-0.3l-26.4-45.2q-0.1-0.2-0.2-0.3q-0.2-0.2-0.4-0.3q-0.2-0.1-0.4-0.1q-0.2-0.1-0.4-0.1c-1.7 0.1-3.5 0.1-5.4 0.1h-19.5q-0.3 0.1-0.6 0.2q-0.3 0.1-0.5 0.3q-0.2 0.2-0.3 0.5q-0.2 0.3-0.2 0.6v43.5q0 0.3-0.1 0.6q-0.1 0.2-0.3 0.5q-0.3 0.2-0.5 0.3q-0.3 0.1-0.6 0.1h-8.4q-0.3 0-0.6-0.1q-0.3-0.1-0.5-0.3q-0.2-0.3-0.4-0.5q-0.1-0.3-0.1-0.6v-114.4q0-0.3 0.1-0.6q0.2-0.2 0.4-0.5q0.2-0.2 0.5-0.3q0.3-0.1 0.6-0.1h30.9c26.1 0 41.6 13.2 41.6 35.5c0.2 3.4-0.2 6.9-1.1 10.2zm-41-35h-18.9q-0.3 0-0.6 0.2q-0.2 0.1-0.5 0.3q-0.2 0.2-0.3 0.5q-0.1 0.3-0.1 0.6v46.2q0 0.3 0.1 0.6q0.1 0.3 0.3 0.5q0.3 0.2 0.5 0.4q0.3 0.1 0.6 0.1h18.9c20.2 0 30.4-8.3 30.4-24.6c0-16.4-10.3-24.8-30.4-24.8z" />
		<path id="Path_109" class="s2" d="m1551 187q0.1 0.3 0.3 0.5q0.2 0.2 0.5 0.4q0.3 0.1 0.6 0.1h58.3q0.3 0 0.6 0.1q0.3 0.2 0.5 0.4q0.2 0.2 0.3 0.5q0.2 0.3 0.2 0.6v7.6q0 0.3-0.2 0.6q-0.1 0.2-0.3 0.5q-0.2 0.2-0.5 0.3q-0.3 0.1-0.6 0.1h-69.7q-0.3 0-0.6-0.1q-0.3-0.1-0.5-0.3q-0.2-0.3-0.4-0.5q-0.1-0.3-0.1-0.6v-114.4q0-0.3 0.1-0.6q0.2-0.2 0.4-0.5q0.2-0.2 0.5-0.3q0.3-0.1 0.6-0.1h67.5q0.3 0 0.6 0.1q0.3 0.1 0.5 0.3q0.2 0.3 0.3 0.5q0.1 0.3 0.1 0.6v7.7q0 0.3-0.1 0.6q-0.1 0.2-0.3 0.5q-0.2 0.2-0.5 0.3q-0.3 0.1-0.6 0.1h-56q-0.3 0-0.6 0.2q-0.3 0.1-0.5 0.3q-0.2 0.2-0.3 0.5q-0.2 0.3-0.2 0.6v39.1q0 0.3 0.2 0.6q0.1 0.2 0.3 0.5q0.2 0.2 0.5 0.3q0.3 0.1 0.6 0.1h49.8q0.3 0 0.6 0.2q0.3 0.1 0.5 0.3q0.2 0.2 0.4 0.5q0.1 0.3 0.1 0.6v7.6q0 0.3-0.1 0.6q-0.2 0.2-0.4 0.5q-0.2 0.2-0.5 0.3q-0.3 0.1-0.6 0.1h-49.8q-0.3 0-0.6 0.2q-0.3 0.1-0.5 0.3q-0.2 0.2-0.3 0.5q-0.2 0.3-0.2 0.6v39.9q0 0.3 0.1 0.6z" />
		<path id="Path_110" class="s2" d="m1072.7 98q0.2 0.2 0.2 0.5q0.1 0.3 0.1 0.6q-0.1 0.3-0.3 0.6q-0.1 0.2-0.4 0.4l-6.8 4.5q-0.3 0.1-0.5 0.2q-0.3 0.1-0.6 0q-0.3 0-0.6-0.2q-0.2-0.2-0.4-0.4l-0.5-0.8c-1-2-2.3-3.8-3.8-5.3c-1.5-1.6-3.3-3-5.2-4.1c-1.8-1.1-3.9-2-6-2.5c-2.1-0.5-4.3-0.8-6.5-0.7c-11.8 0-18.8 6.2-18.8 16.6c0 9.7 4.2 14.7 18.2 21.1l10.5 4.9c20 9 28.5 19.6 28.5 35.6c0 18.3-14.7 31.1-35.7 31.1c-23.4 0-34.7-12.9-40-23.8l-0.3-0.8q-0.2-0.2-0.2-0.5q0-0.3 0-0.6q0.1-0.3 0.3-0.5q0.2-0.2 0.5-0.3l7.4-3.6q0.2-0.1 0.5-0.1q0.3 0 0.6 0q0.3 0.1 0.5 0.3q0.2 0.2 0.3 0.5l0.4 0.7c1.2 2.8 2.9 5.4 5 7.7c2 2.4 4.4 4.4 7 6c2.7 1.6 5.5 2.8 8.5 3.6c3.1 0.7 6.2 1 9.3 0.9c14.4 0 24.5-8.6 24.5-20.6c0-11.4-5.7-17.9-21.7-25.4l-10.5-4.9c-14.9-6.9-24.9-14.9-24.9-31.1c0-16 12.6-27.5 30.1-27.5c3.1-0.1 6.2 0.2 9.2 1c3 0.7 5.9 1.8 8.6 3.4c2.7 1.5 5.2 3.3 7.3 5.5c2.2 2.2 4.1 4.7 5.7 7.4z" />
		<path id="Path_111" fill-rule="evenodd" class="s3" d="m267.3 177.1c-6.8 4.6-13.6 8.9-20.3 12.7c3.5 7.1 6.8 14.4 9.8 21.9l0.1 0.4l-0.4 0.1c-8 2.1-15.8 3.7-23.4 5c0.9 7.7 1.4 15.7 1.7 23.8v0.4h-0.4c-8.1-0.8-16.1-1.8-23.7-3.3c-1.9 7.6-4.1 15.5-6.6 23.1l-0.1 0.4l-0.4-0.2c-7.4-3.5-14.4-7.3-21.1-11.2c-4.4 6.5-9.1 13.1-14.1 19.4l-0.2 0.2l-0.3-0.2c-5.6-5.9-11.1-11.8-16-17.9c-6.3 4.6-12.9 9.2-19.8 13.4l-0.2 0.1l-0.2-0.4c-3.2-7.4-6.2-14.9-8.9-22.2q-2.8 0.9-5.7 1.7q-2.9 0.8-5.8 1.5q-2.9 0.8-5.8 1.4q-2.9 0.7-5.9 1.3l-0.4 0.1v-0.4c-0.5-8.2-0.9-16.2-0.7-23.9c-7.9-0.6-15.9-1.4-23.9-2.5h-0.4l0.1-0.4q0.8-2.9 1.7-5.8q0.8-2.9 1.7-5.7q0.9-2.9 1.9-5.7q1-2.8 2.1-5.6c-7.1-3.1-14.4-6.7-21.5-10.5l-0.3-0.1l0.3-0.3c4.8-6.7 9.8-12.9 14.8-18.8c-5.6-5.4-11.3-11.2-16.7-17.2l-0.2-0.2l0.2-0.3c6.9-4.6 13.7-8.9 20.4-12.7c-3.6-7.1-6.9-14.4-9.9-21.9l-0.1-0.4l0.4-0.1c8-2.1 15.9-3.7 23.5-5c-1-7.7-1.5-15.7-1.7-23.8v-0.4h0.3c8.2 0.8 16.2 1.8 23.8 3.3c1.8-7.6 4-15.5 6.5-23.1l0.2-0.4l0.3 0.2c7.4 3.5 14.5 7.3 21.2 11.2c4.3-6.5 9-13.1 14-19.3l0.3-0.3l0.2 0.3c5.7 5.9 11.2 11.8 16 17.8c6.3-4.6 13-9.2 19.8-13.4l0.3-0.1l0.1 0.4c3.4 7.4 6.4 14.9 9.1 22.2q2.8-0.9 5.7-1.7q2.9-0.8 5.8-1.5q2.9-0.8 5.8-1.4q2.9-0.7 5.9-1.3l0.3-0.1v0.4c0.6 8.3 1 16.2 0.8 24c7.9 0.5 15.9 1.3 23.9 2.5h0.4l-0.2 0.3q-0.7 2.9-1.6 5.8q-0.8 2.9-1.7 5.7q-1 2.9-1.9 5.7q-1 2.8-2.1 5.6c7.1 3.2 14.4 6.7 21.5 10.5l0.3 0.1l-0.3 0.3c-4.9 6.7-9.8 13-14.8 18.9c5.6 5.3 11.3 11.1 16.6 17.1l0.3 0.3zm-83 39c6.8-2.8 13-6.9 18.3-12.2c5.2-5.2 9.4-11.4 12.2-18.2c2.8-6.9 4.3-14.2 4.3-21.6c0-22.7-13.7-43.3-34.8-52c-21.1-8.7-45.3-3.9-61.4 12.2c-16.1 16.1-21 40.3-12.3 61.4c8.8 21 29.3 34.7 52.1 34.7c7.4 0 14.7-1.4 21.6-4.3z" />
		<g id="Group_18">
			<path id="Path_112" class="s2" d="m406.4 242.9h6.6v52.5h-6.6z" />
			<path id="Path_113" class="s2" d="m430.1 295.4v-39.2h6.1v6.2h0.5q0.4-0.8 0.8-1.5q0.5-0.7 1.1-1.4q0.5-0.6 1.2-1.2q0.6-0.6 1.4-1q0.8-0.5 1.7-0.9q0.9-0.3 1.9-0.6q0.9-0.2 1.9-0.3q1-0.1 1.9-0.1q1.4 0 2.8 0.2q1.4 0.2 2.7 0.7q1.4 0.4 2.6 1.2q1.2 0.8 2.2 1.7q0.9 1.1 1.6 2.4q0.7 1.3 1.2 2.7q0.4 1.3 0.6 2.8q0.2 1.4 0.1 2.9v25.4h-6.3v-23.8q0.1-1.1 0-2.1q-0.1-1.1-0.4-2.1q-0.3-1-0.8-1.9q-0.4-1-1-1.8q-0.7-0.7-1.5-1.2q-0.8-0.5-1.7-0.8q-0.9-0.4-1.9-0.5q-0.9-0.1-1.9 0q-1-0.1-2 0.1q-1.1 0.2-2 0.6q-1 0.4-1.9 0.9q-0.8 0.6-1.5 1.4q-0.8 0.9-1.3 1.8q-0.6 1-0.9 2q-0.4 1.1-0.5 2.1q-0.2 1.1-0.1 2.2v23.2h-6.6z" />
			<path id="Path_114" class="s2" d="m510.4 256.1c-2 5.2-3.7 10-5.1 13.7c-1.5 4-2.9 7.9-4.4 11.7c-1.4 3.8-3.1 8.5-5.1 13.8h-6.4l-14.5-39.3h6.6l10.8 32.3h0.5l10.8-32.3h6.8z" />
			<path id="Path_115" fill-rule="evenodd" class="s2" d="m549.3 285.3h6.3q-0.3 1.2-0.9 2.4q-0.5 1.1-1.2 2.1q-0.8 1.1-1.7 1.9q-0.9 0.9-2 1.6q-1.2 0.7-2.5 1.3q-1.3 0.6-2.6 0.9q-1.4 0.4-2.8 0.6q-1.4 0.1-2.8 0.1q-1.8 0-3.6-0.3q-1.8-0.3-3.5-1q-1.7-0.7-3.2-1.8q-1.5-1.1-2.7-2.4q-1.2-1.6-2.2-3.3q-0.9-1.8-1.5-3.7q-0.6-1.9-0.9-3.9q-0.2-1.9-0.1-3.9q-0.1-2 0.1-4q0.3-2 0.9-3.9q0.6-1.9 1.6-3.6q1-1.8 2.2-3.3q1.2-1.4 2.7-2.5q1.5-1 3.1-1.7q1.7-0.8 3.5-1.1q1.8-0.3 3.6-0.2q1.8-0.1 3.5 0.2q1.7 0.3 3.3 1q1.7 0.6 3.1 1.7q1.4 1 2.6 2.3q1.2 1.5 2.1 3.2q0.9 1.8 1.5 3.6q0.5 1.8 0.8 3.8q0.2 1.9 0.1 3.8v2.4h-28.3v0.2q0 1.3 0.2 2.5q0.2 1.3 0.7 2.5q0.4 1.2 1 2.3q0.6 1.1 1.4 2q0.8 0.9 1.7 1.5q0.9 0.7 1.9 1.1q1.1 0.5 2.2 0.7q1.1 0.2 2.2 0.1q0.8 0.1 1.6 0q0.8-0.1 1.6-0.2q0.8-0.2 1.6-0.5q0.8-0.2 1.5-0.6q0.6-0.3 1.2-0.7q0.6-0.4 1.1-0.9q0.5-0.5 0.9-1.1q0.4-0.6 0.7-1.2zm-18.1-21.1q-0.8 0.9-1.4 1.9q-0.6 0.9-1 2q-0.5 1.1-0.7 2.2q-0.2 1.1-0.3 2.3h21.7q0-1.1-0.2-2.3q-0.2-1.1-0.6-2.2q-0.3-1-0.9-2q-0.6-1-1.4-1.9q-0.7-0.8-1.6-1.4q-0.8-0.6-1.8-1q-1-0.4-2-0.6q-1.1-0.2-2.2-0.1q-1-0.1-2.1 0.1q-1 0.1-2 0.5q-1 0.5-1.9 1.1q-0.9 0.6-1.6 1.4z" />
			<path id="Path_116" class="s2" d="m573.8 258.7q1.2-0.8 2.4-1.5q1.3-0.6 2.6-1q1.3-0.5 2.7-0.6q1.4-0.2 2.8-0.2q1.4 0 2.7 0.1q1.4 0.2 2.7 0.6q1.3 0.3 2.5 0.9q1.2 0.6 2.3 1.3q1 0.7 1.8 1.5q0.8 0.9 1.4 1.9q0.6 1 1 2.1q0.3 1.1 0.4 2.3h-6.1q-0.2-0.6-0.4-1.2q-0.3-0.6-0.7-1q-0.3-0.5-0.8-0.9q-0.5-0.4-1-0.7q-0.7-0.4-1.4-0.7q-0.7-0.3-1.4-0.5q-0.7-0.2-1.5-0.2q-0.7-0.1-1.5-0.1q-0.8 0-1.5 0.1q-0.8 0.1-1.5 0.3q-0.8 0.1-1.5 0.5q-0.7 0.3-1.4 0.7q-0.5 0.3-1 0.8q-0.4 0.4-0.7 1q-0.3 0.5-0.5 1.1q-0.1 0.6-0.1 1.3q-0.1 0.4 0.1 0.9q0.1 0.5 0.3 0.9q0.2 0.5 0.5 0.8q0.4 0.4 0.8 0.6q0.5 0.4 1.2 0.8q0.6 0.3 1.2 0.6q0.7 0.3 1.3 0.5q0.7 0.2 1.4 0.4l6 1.4q1.1 0.2 2.2 0.6q1.1 0.4 2.2 0.9q1 0.5 2 1.1q1 0.6 1.9 1.3q0.7 0.7 1.2 1.5q0.5 0.8 0.9 1.6q0.3 0.9 0.5 1.9q0.2 0.9 0.1 1.9q0 1.2-0.3 2.5q-0.3 1.2-0.9 2.3q-0.5 1.2-1.4 2.1q-0.8 1-1.8 1.7q-1.3 0.9-2.6 1.5q-1.4 0.6-2.8 1.1q-1.5 0.4-2.9 0.6q-1.5 0.1-3 0.1q-1.4 0-2.8-0.1q-1.5-0.2-2.8-0.5q-1.4-0.4-2.7-1q-1.3-0.5-2.5-1.3q-1-0.7-1.8-1.5q-0.8-0.9-1.4-1.9q-0.6-1-1-2.2q-0.4-1.1-0.5-2.3h6.4q0.2 0.6 0.5 1.2q0.3 0.6 0.7 1.1q0.4 0.5 0.9 0.9q0.5 0.4 1.1 0.8q0.7 0.4 1.4 0.7q0.7 0.2 1.5 0.4q0.8 0.2 1.6 0.3q0.7 0 1.5 0q0.9 0 1.7 0q0.9-0.1 1.7-0.4q0.9-0.2 1.7-0.5q0.7-0.3 1.5-0.8q0.6-0.3 1-0.8q0.5-0.5 0.8-1.1q0.3-0.6 0.5-1.2q0.2-0.7 0.2-1.4q0-0.4-0.1-0.9q-0.1-0.5-0.3-0.9q-0.2-0.5-0.5-0.9q-0.3-0.3-0.7-0.7q-0.5-0.4-1.1-0.7q-0.5-0.3-1.1-0.6q-0.6-0.2-1.2-0.4q-0.7-0.2-1.3-0.4l-6.7-1.7q-1.1-0.2-2.2-0.5q-1.1-0.4-2.1-0.9q-1-0.4-2-1q-0.9-0.6-1.8-1.4q-0.7-0.6-1.2-1.4q-0.5-0.8-0.8-1.7q-0.4-0.9-0.5-1.8q-0.2-0.9-0.2-1.9q0-1.2 0.3-2.3q0.3-1.2 0.8-2.2q0.6-1.1 1.4-2q0.8-0.9 1.7-1.6z" />
			<path id="Path_117" class="s2" d="m616.8 246h6.3v10.2h8.8v5.3h-8.8v22.2q0 0.7 0 1.3q0.1 0.7 0.3 1.3q0.2 0.7 0.5 1.3q0.3 0.6 0.7 1.1q0.4 0.4 0.9 0.8q0.5 0.3 1.1 0.5q0.6 0.2 1.2 0.3q0.6 0 1.2 0h1.5q0.1 0 0.3 0q0.2 0 0.4-0.1q0.2 0 0.4 0q0.1 0 0.3-0.1v5.3q-0.2 0-0.4 0.1q-0.3 0-0.5 0q-0.2 0.1-0.5 0.1q-0.2 0-0.4 0c-0.7 0-1.2 0.2-1.9 0.2q-1.1 0.1-2.3 0q-1.1-0.1-2.2-0.4q-1.1-0.4-2.2-0.9q-1-0.5-1.9-1.2q-0.7-0.8-1.3-1.8q-0.5-0.9-0.9-2q-0.3-1-0.4-2.1q-0.1-1 0-2.1v-23.8h-6.3v-5.3h6.3v-10.2z" />
			<path id="Path_118" class="s2" d="m645.8 295.4v-39.2h6v6.2h0.6q0.3-0.8 0.7-1.5q0.4-0.8 1-1.4q0.5-0.6 1.1-1.2q0.6-0.6 1.4-1q0.7-0.5 1.5-0.8q0.9-0.4 1.7-0.6q0.9-0.3 1.8-0.4q0.9-0.1 1.8-0.1q1.7 0 3.4 0.4q1.6 0.5 3.1 1.4q1.5 0.9 2.6 2.3q1.1 1.3 1.8 2.9h0.5q0.4-0.8 0.9-1.5q0.5-0.7 1.1-1.4q0.6-0.6 1.3-1.1q0.6-0.6 1.4-1q0.8-0.5 1.7-0.8q0.9-0.4 1.8-0.6q0.9-0.3 1.8-0.4q1-0.1 1.9 0q1.3-0.1 2.5 0q1.3 0.2 2.5 0.6q1.2 0.5 2.3 1.1q1.1 0.7 2 1.5q0.9 1 1.6 2.1q0.6 1.2 1 2.4q0.5 1.2 0.6 2.5q0.2 1.3 0.1 2.6v27.1h-6.3v-25.6q0.1-0.9 0-1.8q-0.1-0.9-0.4-1.7q-0.3-0.9-0.7-1.6q-0.4-0.8-1-1.5q-0.6-0.6-1.3-1q-0.8-0.4-1.5-0.7q-0.8-0.3-1.7-0.4q-0.8-0.1-1.7 0q-0.9 0-1.8 0.1q-0.9 0.2-1.7 0.5q-0.9 0.4-1.6 0.9q-0.8 0.5-1.4 1.1q-0.6 0.7-1.1 1.4q-0.5 0.8-0.8 1.6q-0.3 0.8-0.5 1.7q-0.1 0.9-0.1 1.7v25.3h-6.3v-26.7q0-0.8-0.1-1.5q-0.1-0.8-0.4-1.5q-0.3-0.8-0.7-1.4q-0.5-0.7-1-1.2q-0.6-0.6-1.3-1q-0.7-0.4-1.5-0.7q-0.8-0.2-1.6-0.4q-0.8-0.1-1.7 0q-0.9 0-1.8 0.1q-0.9 0.2-1.7 0.6q-0.9 0.4-1.6 0.9q-0.8 0.6-1.4 1.3q-0.6 0.7-1.1 1.5q-0.5 0.8-0.9 1.8q-0.3 0.9-0.5 1.8q-0.1 1-0.1 1.9v24.4z" />
			<path id="Path_119" fill-rule="evenodd" class="s2" d="m741.4 285.3h6.3q-0.3 1.2-0.9 2.4q-0.5 1.1-1.3 2.1q-0.7 1.1-1.6 1.9q-0.9 0.9-2 1.6q-1.2 0.7-2.5 1.3q-1.3 0.6-2.7 0.9q-1.3 0.4-2.7 0.6q-1.4 0.1-2.8 0.1q-1.9 0-3.7-0.3q-1.8-0.3-3.5-1q-1.6-0.7-3.1-1.8q-1.5-1.1-2.7-2.4q-1.3-1.6-2.2-3.3q-0.9-1.8-1.5-3.7q-0.6-1.9-0.9-3.9q-0.2-1.9-0.1-3.9q-0.2-2 0.1-4q0.3-2 0.9-3.9q0.6-1.9 1.6-3.6q0.9-1.8 2.2-3.3q1.2-1.4 2.7-2.5q1.4-1 3.1-1.7q1.7-0.8 3.5-1.1q1.8-0.3 3.6-0.2q1.7-0.1 3.5 0.2q1.7 0.3 3.3 1q1.6 0.6 3 1.7q1.5 1 2.6 2.3q1.2 1.5 2.1 3.2q0.9 1.8 1.5 3.6q0.6 1.8 0.9 3.8q0.2 1.9 0.1 3.8v2.4h-28.3v0.2q0 1.3 0.2 2.5q0.2 1.3 0.6 2.5q0.5 1.2 1.1 2.3q0.6 1.1 1.4 2q0.7 0.9 1.6 1.5q1 0.7 2 1.1q1 0.5 2.1 0.7q1.1 0.2 2.3 0.1q0.8 0.1 1.6 0q0.8-0.1 1.6-0.2q0.8-0.2 1.6-0.4q0.7-0.3 1.5-0.7q0.6-0.3 1.2-0.7q0.6-0.4 1.1-0.9q0.5-0.5 0.9-1.1q0.4-0.6 0.7-1.2zm-18.1-21.1q-0.8 0.9-1.4 1.9q-0.6 0.9-1.1 2q-0.4 1.1-0.6 2.2q-0.3 1.1-0.3 2.3h21.6q0.1-1.1-0.1-2.3q-0.2-1.1-0.6-2.2q-0.4-1-1-2q-0.5-1-1.3-1.9q-0.7-0.8-1.6-1.4q-0.9-0.6-1.8-1q-1-0.4-2.1-0.6q-1-0.2-2.1-0.1q-1.1-0.1-2.1 0.1q-1.1 0.2-2.1 0.6q-1 0.4-1.8 1q-0.9 0.6-1.6 1.4z" />
			<path id="Path_120" class="s2" d="m762.6 295.4v-39.2h6v6.2h0.6q0.3-0.8 0.8-1.5q0.5-0.7 1-1.4q0.6-0.6 1.3-1.2q0.6-0.6 1.3-1q0.9-0.5 1.8-0.9q0.9-0.3 1.8-0.6q1-0.2 2-0.3q0.9-0.1 1.9-0.1q1.4 0 2.8 0.2q1.4 0.2 2.7 0.7q1.3 0.4 2.5 1.2q1.2 0.8 2.2 1.7q1 1.1 1.7 2.4q0.7 1.3 1.1 2.7q0.5 1.3 0.7 2.8q0.2 1.4 0.1 2.9v25.4h-6.3v-23.8q0.1-1.1-0.1-2.1q-0.1-1.1-0.3-2.1q-0.3-1-0.8-1.9q-0.4-1-1.1-1.8q-0.6-0.7-1.4-1.2q-0.9-0.5-1.8-0.8q-0.9-0.3-1.8-0.5q-1-0.1-1.9 0q-1.1-0.1-2.1 0.1q-1 0.2-2 0.6q-1 0.4-1.8 1q-0.9 0.5-1.6 1.3q-0.7 0.9-1.3 1.8q-0.5 1-0.9 2q-0.3 1.1-0.5 2.1q-0.1 1.1 0 2.2v23.2h-6.6z" />
			<path id="Path_121" class="s2" d="m813.4 246h6.3v10.2h8.7v5.3h-8.7v22.2q-0.1 0.7 0 1.3q0 0.7 0.2 1.3q0.2 0.7 0.5 1.3q0.3 0.6 0.7 1.1q0.4 0.4 1 0.8q0.5 0.3 1 0.5q0.6 0.2 1.2 0.3q0.6 0 1.2 0h1.5q0.2 0 0.4 0q0.1 0 0.3-0.1q0.2 0 0.4 0q0.2 0 0.3-0.1v5.3q-0.2 0-0.4 0.1q-0.2 0-0.5 0q-0.2 0.1-0.4 0.1q-0.3 0-0.5 0c-0.7 0-1.2 0.2-1.8 0.2q-1.2 0.1-2.3 0q-1.2-0.1-2.3-0.4q-1.1-0.4-2.2-0.9q-1-0.5-1.9-1.2q-0.7-0.8-1.3-1.8q-0.5-0.9-0.8-2q-0.4-1-0.5-2.1q-0.1-1 0-2.1v-23.8h-6.3v-5.3h6.3v-10.2z" />
			<path id="Path_122" class="s2" d="m907 290.7q-1.7 1.5-3.6 2.6q-1.9 1.2-4 2q-2.1 0.7-4.3 1q-2.2 0.4-4.4 0.3q-2.5 0.1-4.9-0.4q-2.4-0.4-4.7-1.4q-2.2-1-4.2-2.4q-2-1.5-3.6-3.3q-1.7-2.1-3-4.5q-1.3-2.4-2.1-4.9q-0.8-2.6-1.2-5.3q-0.3-2.6-0.2-5.3q-0.1-2.7 0.3-5.4q0.4-2.7 1.2-5.3q0.8-2.5 2.1-4.9q1.3-2.4 3-4.5q1.6-1.8 3.6-3.3q1.9-1.4 4.2-2.4q2.2-1 4.6-1.4q2.5-0.5 4.9-0.3q2-0.1 3.9 0.2q2 0.2 3.8 0.8q1.9 0.6 3.7 1.5q1.7 0.9 3.3 2q1.4 1.2 2.7 2.5q1.2 1.4 2.1 3q1 1.6 1.6 3.3q0.6 1.7 0.9 3.6h-6.7q-0.3-1.3-0.8-2.4q-0.6-1.1-1.3-2.2q-0.7-1-1.6-1.9q-0.9-0.9-1.9-1.7q-1.1-0.7-2.3-1.2q-1.1-0.6-2.4-0.9q-1.2-0.4-2.5-0.5q-1.3-0.2-2.6-0.1q-1.8-0.1-3.6 0.3q-1.7 0.4-3.4 1.1q-1.6 0.8-3 1.9q-1.4 1.2-2.5 2.6q-1.2 1.7-2.1 3.5q-0.9 1.9-1.5 3.9q-0.6 2-0.9 4q-0.2 2.1-0.1 4.2q-0.1 2 0.2 4.1q0.2 2.1 0.8 4.1q0.6 2 1.5 3.9q0.9 1.9 2.1 3.6q1.1 1.4 2.6 2.5q1.4 1.1 3 1.9q1.7 0.7 3.4 1.1q1.8 0.3 3.6 0.2q1.6 0.1 3.1-0.1q1.5-0.2 3-0.8q1.5-0.5 2.8-1.3q1.4-0.8 2.5-1.8q1.1-1.1 1.9-2.3q0.9-1.2 1.4-2.6q0.6-1.4 0.8-2.9q0.3-1.5 0.2-3v-1.3h-14.8v-5.7h21.4v6.4q0.1 2.1-0.3 4.3q-0.3 2.1-1.1 4.1q-0.8 2-1.9 3.8q-1.2 1.8-2.7 3.4z" />
			<path id="Path_123" class="s2" d="m928.3 295.4v-39.2h6.1v5.9h0.5q0.2-0.7 0.6-1.4q0.4-0.7 0.9-1.4q0.5-0.6 1.1-1.1q0.6-0.4 1.3-0.8q0.8-0.5 1.7-0.8q0.8-0.3 1.7-0.6q0.9-0.2 1.8-0.3q0.9-0.1 1.8-0.1h1.7c0.6 0 1 0.1 1.4 0.1v6.3q-0.2-0.1-0.4-0.1q-0.2-0.1-0.4-0.1q-0.2 0-0.5 0q-0.2-0.1-0.4-0.1q-0.3 0-0.6 0q-0.3-0.1-0.6-0.1q-0.3 0-0.6 0q-0.2 0-0.5 0q-1.1-0.1-2.1 0.1q-0.9 0.2-1.9 0.5q-0.9 0.4-1.8 0.9q-0.9 0.5-1.6 1.2q-0.7 0.7-1.2 1.5q-0.6 0.7-1 1.6q-0.3 0.9-0.5 1.9q-0.2 0.9-0.2 1.9v24.3h-6.3z" />
			<path id="Path_124" fill-rule="evenodd" class="s2" d="m964.3 290.7c-1.6-2.2-2.8-4.6-3.7-7.1c-0.8-2.5-1.2-5.2-1.2-7.9c0-2.6 0.4-5.3 1.2-7.8c0.9-2.5 2.1-4.9 3.7-7.1q1.2-1.4 2.7-2.4q1.6-1.1 3.3-1.8q1.7-0.7 3.5-1q1.9-0.3 3.7-0.2q1.9 0 3.7 0.3q1.8 0.3 3.5 1q1.7 0.7 3.3 1.7q1.5 1.1 2.8 2.4c1.5 2.2 2.7 4.6 3.6 7.1c0.8 2.5 1.2 5.2 1.2 7.8c0 2.7-0.4 5.4-1.2 7.9c-0.9 2.5-2.1 4.9-3.6 7.1q-1.3 1.4-2.8 2.4q-1.5 1.1-3.2 1.8q-1.8 0.7-3.6 1q-1.8 0.4-3.7 0.3q-1.8 0-3.7-0.3q-1.8-0.3-3.5-1q-1.7-0.8-3.3-1.8q-1.5-1.1-2.7-2.4zm21.9-4.1q1.4-2.5 2.2-5.2q0.8-2.8 0.8-5.7q0-2.8-0.8-5.6q-0.8-2.8-2.2-5.2q-0.8-1-1.8-1.7q-1-0.8-2.1-1.3q-1.1-0.5-2.4-0.7q-1.2-0.2-2.4-0.1q-1.2-0.1-2.4 0.1q-1.3 0.3-2.4 0.8q-1.1 0.5-2.1 1.2q-1 0.7-1.8 1.7q-0.8 1.2-1.4 2.5q-0.6 1.3-1 2.7q-0.3 1.3-0.5 2.8q-0.1 1.4-0.1 2.8q0 1.5 0.1 2.9q0.2 1.4 0.6 2.8q0.3 1.4 0.9 2.7q0.6 1.3 1.4 2.5c1.1 1.2 2.5 2.2 4 2.8c1.5 0.7 3.1 1 4.7 1c1.6 0 3.2-0.3 4.7-1c1.5-0.6 2.8-1.6 4-2.8z" />
			<path id="Path_125" class="s2" d="m1041.9 256.1v39.2h-6.1v-6.2h-0.5q-0.3 0.8-0.8 1.6q-0.5 0.7-1 1.3q-0.6 0.7-1.3 1.2q-0.7 0.6-1.5 1q-0.8 0.5-1.8 0.8q-0.9 0.4-1.9 0.6q-0.9 0.3-1.9 0.4q-1 0.1-2 0q-1.4 0.1-2.7-0.1q-1.4-0.2-2.7-0.7q-1.3-0.5-2.4-1.2q-1.2-0.8-2.1-1.8q-0.9-1.1-1.6-2.4q-0.7-1.2-1.1-2.6q-0.5-1.4-0.7-2.8q-0.1-1.5-0.1-2.9v-25.4h6.3v23.8q0 1.1 0 2.1q0.1 1 0.4 2q0.3 1 0.7 2q0.4 0.9 1 1.8q0.7 0.7 1.5 1.2q0.8 0.5 1.7 0.8q0.8 0.3 1.8 0.5q0.9 0.1 1.9 0q1.1 0.1 2.1-0.1q1.1-0.1 2.2-0.5q1-0.4 1.9-1q1-0.5 1.8-1.3q0.7-0.8 1.2-1.8q0.6-0.9 0.9-2q0.4-1 0.5-2.1q0.2-1.1 0.1-2.2v-23.2z" />
			<path id="Path_126" fill-rule="evenodd" class="s2" d="m1089.4 260.9c1.5 2.2 2.6 4.6 3.4 7.1c0.7 2.5 1.1 5.1 1.1 7.7c0 2.7-0.4 5.3-1.1 7.8c-0.8 2.5-1.9 4.9-3.4 7q-1 1.4-2.4 2.4q-1.4 1.1-2.9 1.8q-1.6 0.7-3.3 1.1q-1.7 0.3-3.4 0.2q-1 0.1-2 0q-0.9-0.1-1.9-0.4q-0.9-0.2-1.8-0.5q-0.9-0.3-1.8-0.8q-0.8-0.4-1.5-0.9q-0.7-0.5-1.3-1.1q-0.6-0.6-1.1-1.3q-0.6-0.7-0.9-1.5h-0.6v19h-6.2v-52.4h6v6.5h0.5q0.5-0.8 1-1.6q0.6-0.7 1.3-1.4q0.6-0.7 1.4-1.3q0.7-0.6 1.6-1q0.8-0.5 1.7-0.9q0.9-0.4 1.8-0.6q0.9-0.3 1.9-0.4q0.9-0.1 1.9-0.1q1.7 0 3.4 0.4q1.7 0.3 3.3 1.1q1.5 0.7 2.9 1.7q1.3 1.1 2.4 2.4zm-5.1 25.7q1.5-2.4 2.3-5.2q0.7-2.7 0.7-5.5q0-2.9-0.7-5.6q-0.8-2.7-2.3-5.2q-0.7-0.9-1.6-1.7q-1-0.8-2.1-1.3q-1.1-0.5-2.3-0.7q-1.2-0.3-2.4-0.2q-1.2 0-2.4 0.2q-1.2 0.2-2.3 0.8q-1.1 0.5-2.1 1.2q-0.9 0.8-1.7 1.7q-0.8 1.2-1.5 2.5q-0.6 1.3-1 2.6q-0.4 1.4-0.6 2.8q-0.1 1.4 0 2.9q-0.1 1.4 0.1 2.8q0.1 1.4 0.5 2.8q0.4 1.4 1.1 2.7q0.6 1.3 1.4 2.4q0.8 1 1.7 1.7q0.9 0.8 2 1.3q1.1 0.5 2.3 0.7q1.2 0.3 2.4 0.2q1.2 0.1 2.4-0.2q1.2-0.2 2.3-0.7q1.1-0.6 2.1-1.3q1-0.7 1.7-1.7z" />
		</g>
	</g>
</svg>