<svg version="1.2" xmlns="http://www.w3.org/2000/svg" viewBox="0 0 1221 1517" width="1221" height="1517">
	<title>Layer-svg</title>
	<style>
		.s0 { fill: #d01f28 } 
	</style>
	<g id="#d01f28ff">
		<path id="Layer" class="s0" d="m101.2 1.1c166.1 0 332.3 0 498.4 0 207-1.6 414.1-0.4 621.1-0.8-19.8 77.8-39.5 155.6-59.5 233.4-378.4-0.1-756.8-0.1-1135.1-0.1 24.6-77.6 50.4-154.9 75.1-232.5zm884.7 322.6c30-11.4 60.2-22.5 91.3-30.8-71.8 48.3-142.7 98.4-209.5 153.6-90.5 74.3-174.2 157.1-246.9 249.1-76.1 95.7-139.8 200.9-194 310.4-62.2 125.5-113.2 256.1-160.6 387.7-15.2 40.8-28.5 82.3-43.8 123.1-73.7-88.8-147.6-177.5-221.8-265.9 29.9-111 89.5-211.6 158-303 70.6-93.3 152.6-177.6 240.2-254.9 89.9-78.9 185.9-150.7 287.1-214.5 95.4-59.9 195-113.5 300-154.8z"/>
	</g>
</svg>