<svg version="1.2" xmlns="http://www.w3.org/2000/svg" viewBox="0 0 1576 538" width="1576" height="538">
	<title>Bat_logo20-svg</title>
	<style>
		.s0 { fill: #ffffff } 
	</style>
	<g id="g79">
		<g id="g3706">
			<path id="path3704" class="s0" d="m964.7 85c-0.8 0.1-1-1.1-0.3-1.3q3.8-0.9 7.7-1.8c23.4-5.7 47.1-10.3 70.9-14.5 24-4.2 48.2-7.2 72.4-9.5 25.1-2.4 50.3-3.8 75.5-4.1 49.6-0.6 99.5 2.9 147.9 13.9 27.8 6.3 55.3 15.1 80.2 29.1 37.5 21.1 67.4 59.8 63.5 104.6-2.1 24-13.9 46.9-28 66-39.3 53.3-97.3 93.4-152 129.3-0.7 0.4-1.4-0.6-0.8-1.1 68.7-52.3 105.5-111.4 95.4-167-19.3-106.9-204.9-165.1-432.4-143.6zm228.9-58.3c-0.8 0-0.9-1.1-0.2-1.3 17.5-3.5 35.2-6.7 52.8-9.5 28.1-4.5 56.3-8.3 84.6-11 48.7-4.7 99.4-7.5 148.2-0.6 11 1.6 21.8 3.8 32.5 6.8 26.6 7.5 53.9 21.8 61.2 50.4 4.8 18.7 1.9 38.7-3.9 56.8-11.3 35.2-33.4 66.6-56.7 94.8q-2.2 2.6-4.4 5.2c-0.4 0.5-1.3 0-1.1-0.6 9.7-25.5 13.9-54.5 9-81.5-7.4-39.8-39.1-69-74.7-84.7-43.3-19.1-90.9-23.8-137.7-25.7-36.5-1.5-73.1-0.8-109.6 0.9z"/>
		</g>
		<g id="g3710">
			<path id="path3712" class="s0" d="m657.8 397.5l49.6 65.4h-178.9l-56.6 74.8h-82.1l251.5-332.1 251.5 332.1h-82.1l-169.4-223.7-63.2 83.5zm336.2-70.4h65.4v210.6h-65.4zm-163.1-102.8h391.7v65.5h-391.7zm-462.5 218.7c0 52.2-42.5 94.7-94.7 94.7h-273.3v-86.7h65.5v21.2h207.8c16.2 0 29.2-13.1 29.2-29.2 0-16.2-13-29.3-29.2-29.3h-273.3v-65.4l219.7-0.1c16.1 0 29.2-13 29.2-29.2 0-16.1-13.1-29.2-29.2-29.2h-154.2v21.2h-65.5v-86.7h219.7c52.2 0 94.6 42.5 94.6 94.7 0 12.6-2.4 24.6-6.9 35.6 35.4 13.7 60.6 48.2 60.6 88.4z"/>
		</g>
	</g>
</svg>