<svg version="1.2" xmlns="http://www.w3.org/2000/svg" viewBox="0 0 1513 1491" width="1513" height="1491">
	<title>logo (44)-svg</title>
	<style>
		.s0 { fill: #00599b } 
		.s1 { fill: #ed1d24 } 
	</style>
	<g id="Group_708">
		<path id="Path_1820" class="s0" d="m1512.8 2.6v191.3c0 0-491.8-24.4-752.9 388.7 0 0-233.7 288.5-233.7 904.9h-194.4c0 0-54.7-446.4 227.7-959.6 0 0 309.7-564.7 953.3-525.3z"/>
		<path id="Path_1821" class="s1" d="m951 527.9c282.4 513.2 227.8 959.6 227.8 959.6h-191.3c0-616.4-233.8-904.9-233.8-904.9-261-413.1-752.9-388.7-752.9-388.7v-191.3c640.5-39.4 950.2 525.3 950.2 525.3z"/>
		<path id="Path_1822" class="s0" d="m1512.8 318.4v200.4c0 0-337-57.7-540.4 318.9-19.4 52.1-36.5 105.1-51.5 158.7-14.9 53.6-27.6 107.8-38.1 162.5-10.4 54.6-18.5 109.7-24.4 165.1-5.8 55.3-9.3 110.9-10.5 166.5h-185.2c0 0-27.4-419 167-780.4 0-3 191.3-425.1 683.1-391.7z"/>
		<path id="Path_1823" class="s1" d="m687 710.1c194.4 361.4 167 780.4 167 780.4h-188.3c-1.2-55.6-4.7-111.2-10.5-166.5-5.8-55.4-14-110.5-24.4-165.1-10.4-54.7-23.1-108.9-38.1-162.5-14.9-53.6-32.1-106.6-51.5-158.7-203.4-376.6-540.4-318.9-540.4-318.9v-200.4c491.9-33.5 683.2 388.7 686.2 391.7z"/>
	</g>
</svg>