<svg version="1.2" baseProfile="tiny-ps" xmlns="http://www.w3.org/2000/svg" viewBox="0 0 1847 573" width="1847" height="573">
	<title>burfor-svg</title>
	<style>
		tspan { white-space:pre }
		.shp0 { fill: #e31d19 } 
		.shp1 { fill: #000000 } 
	</style>
	<g id="Layer">
		<path id="Layer" class="shp0" d="M0 87.05L0 572.6L1793.17 572.6L1846.65 518.93L53.15 518.93L53.35 518.72L53.35 32.48L0 87.05Z" />
	</g>
	<g id="Layer">
		<path id="Layer" fill-rule="evenodd" class="shp1" d="M296.96 32.48C314 32.48 329.84 34.48 344.48 38.42C359.11 42.39 371.73 48.24 382.28 55.98C384.92 57.91 387.43 60 389.82 62.24C392.21 64.47 394.46 66.84 396.56 69.35C398.67 71.85 400.63 74.47 402.42 77.2C404.21 79.94 405.84 82.77 407.3 85.7C413.4 97.77 416.48 111.9 416.48 128.11C416.48 150.1 410.17 168.02 397.58 181.87C384.98 195.75 368.68 205.92 348.66 212.41L348.66 213.49C351.55 213.65 354.44 213.96 357.3 214.42C360.16 214.88 362.99 215.48 365.79 216.23C368.59 216.98 371.35 217.87 374.06 218.9C376.77 219.93 379.42 221.1 382.01 222.4C384.55 223.67 387.03 225.06 389.44 226.56C391.85 228.06 394.19 229.68 396.45 231.4C398.71 233.12 400.88 234.94 402.97 236.87C405.06 238.79 407.06 240.81 408.96 242.92C410.89 245.08 412.71 247.33 414.44 249.65C416.17 251.98 417.79 254.38 419.3 256.85C420.82 259.32 422.22 261.85 423.51 264.44C424.8 267.04 425.97 269.68 427.03 272.38C431.49 283.55 433.7 295.62 433.7 308.58C433.7 325.88 430.09 341.1 422.87 354.24C421.06 357.52 419.07 360.7 416.9 363.76C414.73 366.82 412.39 369.75 409.89 372.54C407.39 375.34 404.73 377.99 401.93 380.48C399.13 382.97 396.19 385.31 393.13 387.47C380.51 396.47 365.88 403.33 349.2 408.01C332.53 412.69 314.54 415.02 295.29 415.02L160.19 415.02L160.19 32.48L296.96 32.48ZM286.39 191.34C296.39 191.34 305.84 190.34 314.74 188.36C323.64 186.38 331.42 183.06 338.09 178.36C339.74 177.21 341.31 175.97 342.81 174.64C344.31 173.3 345.73 171.88 347.07 170.38C348.4 168.88 349.64 167.31 350.79 165.66C351.94 164.01 352.98 162.3 353.93 160.53C357.83 153.34 359.77 144.51 359.77 134.07C359.77 118.93 354.77 105.79 344.77 94.61C334.75 83.46 319 77.86 297.5 77.86L213.57 77.86L213.57 191.34L286.39 191.34ZM213.57 369.64L291.95 369.64C300.1 369.64 309.09 368.84 318.92 367.2C321.33 366.81 323.73 366.31 326.09 365.7C328.46 365.1 330.8 364.39 333.11 363.57C335.41 362.76 337.68 361.84 339.9 360.82C342.12 359.81 344.3 358.69 346.42 357.48C348.56 356.26 350.63 354.92 352.62 353.47C354.61 352.02 356.53 350.47 358.35 348.81C360.17 347.15 361.91 345.4 363.54 343.55C365.17 341.71 366.7 339.77 368.12 337.76C374.02 329.49 377.01 318.5 377.01 304.8C377.01 282.1 369.41 265.1 354.21 253.74C339.01 242.39 318.44 236.71 292.5 236.71L213.57 236.71L213.57 369.64ZM700.9 415.03L650.86 415.03L650.86 375.58L649.76 375.58C643.45 389.28 632.52 400.36 616.96 408.82C601.39 417.28 583.42 421.5 563.03 421.5C559.92 421.52 556.81 421.42 553.71 421.19C550.61 420.96 547.53 420.61 544.45 420.14C541.38 419.67 538.33 419.07 535.31 418.35C532.28 417.63 529.29 416.8 526.33 415.84C523.53 414.94 520.78 413.89 518.1 412.69C515.41 411.5 512.79 410.16 510.25 408.68C507.71 407.21 505.24 405.6 502.87 403.86C500.5 402.12 498.22 400.26 496.05 398.28C487.33 390.36 480.38 380.18 475.19 367.76C469.99 355.33 467.42 340.66 467.42 323.72L467.42 158.92L517.45 158.92L517.45 310.2C517.45 322.09 519.12 332.27 522.45 340.73C525.79 349.2 530.23 356.04 535.8 361.27C537.16 362.56 538.59 363.76 540.09 364.89C541.58 366.02 543.14 367.06 544.75 368.01C546.36 368.96 548.02 369.82 549.73 370.59C551.44 371.36 553.19 372.03 554.97 372.6C556.78 373.19 558.62 373.7 560.47 374.14C562.33 374.58 564.2 374.95 566.08 375.24C567.96 375.54 569.86 375.76 571.76 375.91C573.66 376.05 575.56 376.12 577.47 376.12C587.87 376.12 597.51 374.52 606.39 371.27C608.6 370.47 610.76 369.53 612.87 368.47C614.97 367.42 617.01 366.24 618.97 364.94C620.94 363.64 622.82 362.23 624.62 360.72C626.42 359.2 628.13 357.58 629.74 355.86C636.41 348.84 641.6 339.92 645.31 329.13C649 318.31 650.86 305.53 650.86 290.75L650.86 158.9L700.89 158.9L700.89 415.02L700.9 415.03ZM740.57 158.91L790.6 158.91L790.6 198.36L791.7 198.36C792.54 196.64 793.46 194.95 794.45 193.3C795.43 191.65 796.48 190.05 797.6 188.49C798.72 186.92 799.9 185.41 801.14 183.95C802.39 182.49 803.69 181.07 805.05 179.72C806.43 178.33 807.87 176.98 809.34 175.68C810.81 174.38 812.33 173.14 813.89 171.94C815.45 170.74 817.04 169.6 818.68 168.51C820.31 167.42 821.98 166.38 823.68 165.4C825.45 164.39 827.25 163.43 829.08 162.53C830.91 161.62 832.76 160.78 834.64 159.99C836.52 159.2 838.42 158.46 840.35 157.79C842.27 157.12 844.22 156.5 846.18 155.95C848.16 155.37 850.17 154.86 852.19 154.43C854.21 153.99 856.25 153.63 858.29 153.33C860.34 153.04 862.39 152.82 864.45 152.67C866.52 152.52 868.58 152.44 870.65 152.44C878.8 152.44 886.21 153.52 892.88 155.68L890.65 208.08C889.64 207.81 888.63 207.55 887.62 207.31C886.6 207.06 885.59 206.83 884.57 206.6C883.55 206.38 882.53 206.16 881.51 205.96C880.48 205.75 879.46 205.56 878.43 205.38C877.42 205.2 876.41 205.05 875.39 204.91C874.38 204.78 873.36 204.66 872.34 204.57C871.32 204.48 870.3 204.42 869.27 204.37C868.25 204.32 867.22 204.3 866.2 204.3C841.74 204.3 823.02 210.97 810.05 224.29C797.08 237.63 790.6 258.34 790.6 286.44L790.6 415.03L740.57 415.03L740.57 158.91ZM919.58 201.05L919.58 158.91L976.28 158.91L976.28 101.64C976.28 67.42 983.02 41.94 996.56 25.18C1010.1 8.43 1033.33 0.05 1066.34 0.05C1071.89 0.05 1077.72 0.25 1083.84 0.6C1089.94 0.96 1096.54 2.04 1103.58 3.84L1098.03 47.08C1096.91 46.65 1095.77 46.25 1094.62 45.87C1093.48 45.5 1092.33 45.15 1091.16 44.84C1090 44.52 1088.83 44.23 1087.66 43.97C1086.48 43.71 1085.3 43.48 1084.11 43.28C1082.92 43.09 1081.72 42.93 1080.52 42.79C1079.32 42.66 1078.12 42.54 1076.92 42.45C1075.71 42.36 1074.51 42.3 1073.3 42.25C1072.09 42.21 1070.89 42.19 1069.68 42.2C1060.41 42.2 1053 43.55 1047.45 46.25C1046.11 46.88 1044.82 47.61 1043.59 48.42C1042.36 49.24 1041.18 50.14 1040.08 51.12C1038.97 52.1 1037.94 53.16 1036.98 54.29C1036.03 55.42 1035.15 56.62 1034.37 57.87C1031.22 62.92 1029.16 68.95 1028.25 75.97C1028.01 77.96 1027.79 79.96 1027.61 81.96C1027.43 83.96 1027.28 85.97 1027.16 87.97C1027.05 89.98 1026.96 91.99 1026.91 93.99C1026.86 96 1026.84 98.01 1026.85 100.02L1026.85 158.92L1086.35 158.92L1086.35 201.05L1026.3 201.05L1026.3 415.03L976.28 415.03L976.28 201.05L919.58 201.05ZM1109.21 234.57C1110.98 230.58 1112.93 226.68 1115.08 222.87C1117.22 219.07 1119.54 215.37 1122.03 211.79C1124.52 208.21 1127.19 204.75 1130.01 201.43C1132.84 198.1 1135.82 194.91 1138.95 191.87C1151.55 179.63 1166.38 169.99 1183.42 162.97C1200.46 155.94 1218.82 152.43 1238.46 152.43C1258.09 152.43 1276.46 155.94 1293.5 162.97C1310.54 169.99 1325.37 179.63 1337.97 191.87C1341.1 194.91 1344.08 198.1 1346.91 201.42C1349.73 204.75 1352.4 208.21 1354.89 211.79C1357.39 215.37 1359.71 219.07 1361.85 222.87C1363.99 226.68 1365.94 230.58 1367.71 234.57C1374.94 250.77 1378.55 268.24 1378.55 286.97C1378.55 305.71 1374.94 323.27 1367.71 339.64C1365.97 343.64 1364.03 347.56 1361.9 351.37C1359.77 355.18 1357.45 358.88 1354.96 362.46C1352.46 366.05 1349.79 369.5 1346.96 372.82C1344.12 376.14 1341.12 379.32 1337.97 382.34C1325.37 394.39 1310.54 403.95 1293.5 410.98C1276.45 418 1258.1 421.51 1238.46 421.51C1218.82 421.51 1200.46 418.01 1183.42 410.98C1166.38 403.95 1151.55 394.38 1138.95 382.35C1135.8 379.33 1132.8 376.15 1129.97 372.83C1127.13 369.51 1124.46 366.05 1121.97 362.47C1119.47 358.89 1117.15 355.19 1115.02 351.38C1112.89 347.57 1110.95 343.65 1109.21 339.65C1101.98 323.27 1098.38 305.71 1098.38 286.97C1098.38 268.24 1101.98 250.77 1109.21 234.57ZM1157.85 322.91C1161.92 333.9 1167.67 343.25 1175.1 351C1182.5 358.75 1191.58 364.87 1202.33 369.37C1213.08 373.87 1225.12 376.13 1238.46 376.13C1251.8 376.13 1263.86 373.88 1274.59 369.37C1285.34 364.87 1294.42 358.75 1301.85 351C1309.25 343.25 1315 333.9 1319.07 322.91C1323.14 311.91 1325.18 299.95 1325.18 286.97C1325.18 274 1323.14 262.03 1319.08 251.03C1315 240.06 1309.25 230.69 1301.85 222.93C1294.42 215.2 1285.34 209.09 1274.59 204.56C1263.85 200.06 1251.8 197.82 1238.46 197.82C1225.12 197.82 1213.08 200.07 1202.33 204.56C1191.58 209.09 1182.5 215.2 1175.1 222.94C1167.67 230.69 1161.92 240.06 1157.86 251.04C1153.78 262.04 1151.75 274 1151.75 286.97C1151.75 299.95 1153.78 311.91 1157.85 322.91ZM1411.56 158.91L1461.58 158.91L1461.58 198.36L1462.68 198.36C1463.53 196.64 1464.44 194.95 1465.43 193.3C1466.42 191.65 1467.47 190.05 1468.59 188.49C1469.71 186.93 1470.89 185.41 1472.13 183.95C1473.38 182.49 1474.68 181.08 1476.04 179.72C1477.42 178.33 1478.85 176.98 1480.33 175.68C1481.8 174.38 1483.32 173.13 1484.88 171.94C1486.43 170.74 1488.03 169.6 1489.66 168.5C1491.3 167.41 1492.97 166.38 1494.67 165.4C1496.44 164.39 1498.24 163.43 1500.07 162.53C1501.9 161.62 1503.75 160.78 1505.63 159.99C1507.51 159.2 1509.41 158.46 1511.34 157.79C1513.26 157.12 1515.21 156.5 1517.17 155.95C1519.15 155.37 1521.16 154.86 1523.17 154.43C1525.19 153.99 1527.23 153.62 1529.27 153.33C1531.32 153.04 1533.37 152.82 1535.43 152.67C1537.49 152.52 1539.55 152.44 1541.62 152.44C1549.77 152.44 1557.2 153.52 1563.87 155.68L1561.64 208.08C1560.63 207.81 1559.62 207.55 1558.61 207.31C1557.59 207.06 1556.58 206.83 1555.56 206.6C1554.54 206.38 1553.52 206.16 1552.5 205.96C1551.47 205.75 1550.45 205.56 1549.42 205.38C1548.41 205.2 1547.4 205.05 1546.38 204.91C1545.37 204.78 1544.35 204.66 1543.33 204.57C1542.31 204.48 1541.29 204.42 1540.26 204.37C1539.24 204.32 1538.21 204.3 1537.19 204.3C1512.73 204.3 1494.01 210.97 1481.04 224.29C1468.05 237.63 1461.58 258.34 1461.58 286.44L1461.58 415.03L1411.56 415.03L1411.56 158.91ZM1796.53 415.03L1796.53 378.28L1795.42 378.28C1785.76 391.98 1772.5 402.6 1755.67 410.17C1738.8 417.73 1721.46 421.5 1703.69 421.5C1683.29 421.5 1664.84 418.1 1648.36 411.24C1631.88 404.41 1617.79 394.84 1606.12 382.61C1603.2 379.54 1600.43 376.33 1597.82 372.99C1595.22 369.65 1592.78 366.18 1590.52 362.6C1588.26 359.01 1586.17 355.32 1584.27 351.53C1582.37 347.75 1580.67 343.87 1579.15 339.91C1572.85 323.71 1569.7 306.07 1569.7 286.97C1569.7 267.88 1572.86 250.15 1579.15 233.74C1585.45 217.36 1594.45 203.14 1606.12 191.07C1617.79 179 1631.88 169.55 1648.36 162.7C1664.84 155.86 1683.3 152.44 1703.69 152.44C1722.57 152.44 1740.37 156.31 1757.04 164.04C1773.72 171.81 1786.5 182.34 1795.42 195.66L1796.52 195.66L1796.52 32.48L1846.55 32.48L1846.55 415.03L1796.53 415.03ZM1709.79 376.12C1723.13 376.12 1735.17 373.87 1745.92 369.37C1756.67 364.87 1765.73 358.75 1773.18 351C1780.56 343.26 1786.32 333.9 1790.4 322.9C1794.46 311.92 1796.53 299.95 1796.53 286.97C1796.53 274 1794.46 262.04 1790.4 251.04C1786.32 240.05 1780.56 230.7 1773.18 222.94C1765.73 215.2 1756.67 209.08 1745.92 204.57C1735.17 200.07 1723.12 197.82 1709.79 197.82C1696.44 197.82 1684.42 200.07 1673.65 204.57C1662.89 209.07 1653.82 215.2 1646.41 222.94C1638.99 230.7 1633.25 240.05 1629.18 251.04C1625.09 262.04 1623.06 274 1623.06 286.97C1623.06 299.95 1625.09 311.92 1629.18 322.9C1633.25 333.9 1638.99 343.26 1646.41 351C1653.82 358.75 1662.89 364.88 1673.65 369.37C1684.42 373.87 1696.45 376.12 1709.79 376.12Z" />
	</g>
</svg>