<svg version="1.2" xmlns="http://www.w3.org/2000/svg" viewBox="0 0 1380 1552" width="1380" height="1552">
	<title>logo-2021092308430565400-svg</title>
	<style>
		.s0 { fill: #00b0c9 } 
	</style>
	<g id="#00b0c9ff">
		<path id="Layer" fill-rule="evenodd" class="s0" d="m0.1 243.9c231.8-81.3 463.6-162.6 695.4-243.9q342.2 122 684.5 243.9 0 85.3 0 170.6-342.3-116.5-684.6-232.9c-231.8 77.6-463.5 155.3-695.3 232.9 0-56.9-0.1-113.8 0-170.6zm371.2 172.2q168.1 0 336.2 0c55.8 0.2 111.6-1.1 167.2 2.9 40.3 2.9 81.3 7.2 118.6 23.7 40 17.2 74.7 45.7 100.4 80.7 22.8 31 40.8 66 49.8 103.6 17.6 73.9 9.1 155-28.8 221.4-23.2 41.9-58.2 77.7-101.1 99.5 34.2 11.4 66.8 28.6 94.2 52.3 47.9 41.4 78.4 101 88.3 163.2 10.9 67.5 2.6 137.8-23.2 201.1-19.4 48.4-49.2 93.6-90.5 126.2-28.7 22.9-62.9 38.3-98.5 46.6-29.8 7.3-60.5 8.7-91 10.1-121.5 5.1-243.1 3.2-364.7 3.5q-78.4 0-156.9 0c0-378.3 0-756.5 0-1134.8zm200.1 189.2q0 131 0 261.9c55.7 0.1 111.4 0 167.1 0.1 34.3-1 68.8-0.3 103-3.3 26.7-2.6 53.3-11.6 74-29.1 23.7-19.5 37.5-49.2 40.5-79.5 3.8-35.9-0.8-74.8-22.7-104.6-18.5-25.9-50.1-39.1-81.1-42.2-36.4-3-73-2.3-109.5-3.3-57.1 0-114.2 0-171.3 0zm0 451.2c0 101 0 202.1 0 303.1 85.4-0.4 170.9 1 256.2-1.1 33.8-1.7 69.5-1.7 100-18.4 31.7-17.2 54.4-49.2 61.5-84.4 7.4-36.1 6.6-74.6-6.4-109.4-10.5-28.1-31.2-52.2-57.7-66.4-17.4-9.8-37.2-14-56.8-16.6-41-5.5-82.3-6.1-123.5-6.8q-86.6 0-173.3 0z"/>
	</g>
</svg>