<svg version="1.2" xmlns="http://www.w3.org/2000/svg" viewBox="0 0 1502 427" width="1502" height="427">
	<title>bytes-logo-svg</title>
	<style>
		.s0 { fill: #ffffff } 
	</style>
	<g id="g10">
		<g id="Layer">
			<g id="Layer">
				<path id="Layer" class="s0" d="m1134.5 114.1q-0.5 4.2-1.6 6.8-1 2.5-2.5 3.8-1.6 1.2-3.4 1.2h-65.6q-1.8 0-3.3-1.1-1.6-1.2-2.6-3.7-1-2.6-1.5-6.9-0.6-4.3-0.6-10.4 0-6 0.6-10.2 0.5-4.2 1.5-6.8 1-2.5 2.6-3.8 1.5-1.2 3.3-1.2h65.6q1.8 0 3.4 1.1 1.5 1.2 2.5 3.7 1.1 2.6 1.6 6.9 0.5 4.3 0.5 10.5 0 5.9-0.5 10.1z"/>
			</g>
			<g id="Layer">
				<path id="Layer" fill-rule="evenodd" class="s0" d="m1501.3 266.2q0 20.9-7.8 36.7-7.8 15.8-21.1 26.4-13.3 10.5-31.2 15.9-17.9 5.3-38.2 5.3-13.7 0-25.5-2.3-11.8-2.2-20.9-5.4-9-3.2-15.1-6.6-6-3.5-8.7-6.2-2.6-2.7-3.8-7.7-1.1-5-1.1-14.4 0-6.4 0.4-10.7 0.4-4.3 1.3-7 1-2.6 2.5-3.8 1.6-1.1 3.6-1.1 2.9 0 8.1 3.4 5.2 3.4 13.5 7.5 8.2 4.1 19.6 7.4 11.3 3.4 26.3 3.4 9.9 0 17.7-2.3 7.8-2.4 13.2-6.7 5.5-4.3 8.3-10.7 2.9-6.3 2.9-14.1 0-9-4.9-15.5-4.9-6.4-12.8-11.5-8-5-18-9.4-10.1-4.4-20.7-9.3-10.7-4.9-20.8-11.2-10-6.2-17.9-15-7.9-8.7-12.9-20.6-4.9-11.9-4.9-28.5 0-19 7.1-33.5 7.1-14.5 19.1-24 12-9.5 28.3-14.2 16.3-4.8 34.6-4.8 9.4 0 18.9 1.5 9.4 1.4 17.6 3.9 8.2 2.4 14.6 5.5 6.4 3.1 8.4 5.1 2.1 2.1 2.8 3.5 0.7 1.5 1.2 3.8 0.5 2.4 0.7 6 0.2 3.6 0.2 8.9 0 5.9-0.3 10-0.3 4.1-1 6.8-0.7 2.7-2 3.9-1.4 1.2-3.6 1.2-2.3 0-7.2-2.8-4.9-2.9-12.1-6.3-7.2-3.4-16.7-6.1-9.4-2.8-20.7-2.8-8.8 0-15.4 2.1-6.5 2.2-11 6-4.4 3.8-6.5 9.1-2.2 5.3-2.2 11.3 0 8.8 4.9 15.3 4.8 6.4 12.9 11.4 8.1 5.1 18.3 9.5 10.3 4.4 21 9.3 10.6 4.9 20.9 11.2 10.3 6.2 18.3 14.9 8 8.8 12.9 20.5 4.9 11.8 4.9 27.8zm-192.7 58.5q0 5.9-0.5 9.9-0.5 4-1.5 6.5-1.1 2.4-2.6 3.6-1.5 1.1-3.4 1.1h-133.4q-6.8 0-11.4-4-4.6-4-4.6-13v-231.3q0-9 4.6-13 4.6-4 11.4-4h132.6q1.9 0 3.3 1 1.4 1 2.5 3.6 1 2.5 1.5 6.5 0.5 4 0.5 10.2 0 5.7-0.5 9.7-0.5 4-1.5 6.5-1.1 2.4-2.5 3.6-1.4 1.1-3.3 1.1h-94.8v64.8h80.2q1.9 0 3.4 1.1 1.6 1.2 2.6 3.5 1 2.4 1.5 6.4 0.5 4 0.5 9.7 0 6-0.5 9.8-0.5 3.9-1.5 6.3-1 2.4-2.6 3.4-1.5 1-3.4 1h-80.2v74.9h95.6q1.9-0.1 3.4 1.1 1.5 1.1 2.6 3.6 1 2.4 1.5 6.4 0.5 4 0.5 10zm-487.6-79.6v93.3q0 2.1-1.3 3.7-1.3 1.6-4.4 2.7-3.1 1-8.3 1.6-5.3 0.6-13.1 0.6-8 0-13.1-0.6-5.1-0.6-8.3-1.6-3.2-1.1-4.4-2.7-1.3-1.6-1.3-3.7v-93.3l-72.6-144.5q-3.9-7.6-5-11.8-1.2-4.2 1.2-6.4 2.3-2.1 8.7-2.7 6.4-0.5 17.7-0.5 9.4 0 15 0.4 5.7 0.5 9 1.6 3.3 1.1 4.8 3 1.5 1.8 3 4.7l29.5 65.2q4.3 9.4 8.6 19.9 4.2 10.4 8.5 21.9h0.4q3.9-11.1 8-21.5 4.1-10.5 8-19.9l29.1-64.8q1.1-3.3 2.6-5.2 1.5-2 4.6-3.2 3.1-1.2 8.4-1.7 5.4-0.4 14.2-0.4 11.7 0 18.2 0.5 6.4 0.6 8.8 2.7 2.3 2.2 1.1 6.5-1.2 4.3-4.9 11.7zm-130.1 46.7q-3.9 11.5-10.7 20.3-6.9 8.8-16.5 15.2-9.5 6.3-21 10.4-11.5 4.1-24.5 6.1-13.1 1.9-29.1 1.9h-70.6q-6.8 0-11.4-4-4.6-4-4.6-13v-231.3q0-9 4.6-13 4.6-4 11.4-4h66.7q24.5 0 41.4 4.1 16.9 4.1 28.5 12.4 11.6 8.3 17.8 21 6.1 12.7 6.1 30 0 9.6-2.4 18.1-2.5 8.5-7.2 15.5-4.7 7-11.6 12.3-6.9 5.3-15.7 8.6 11.3 2.1 20.8 7.2 9.6 5.1 16.6 13.2 7.1 8.1 11.2 19 4.1 10.8 4.1 24.4 0 14.1-3.9 25.6zm-68.3-151.7q-2.5-6.4-7.4-10.6-4.9-4.2-12.4-6.4-7.5-2.3-20-2.3h-27.3v68.9h30.1q11.7 0 18.7-2.8 7-2.7 11.6-7.6 4.6-4.8 6.9-11.2 2.2-6.5 2.2-13.7 0-8-2.4-14.3zm13.1 111.4q-3.1-7.3-9-12.2-6-4.9-15.2-7.6-9.2-2.6-24-2.6h-32v75.4h39q11.2 0 18.9-2.3 7.7-2.4 13.4-7 5.6-4.6 8.8-11.5 3.2-6.9 3.2-15.7 0-9.2-3.1-16.5zm402.6 86.8q0 2.1-1.3 3.7-1.4 1.7-4.5 2.7-3 1-8.3 1.6-5.2 0.7-13 0.7-7.8 0-13-0.7-5.3-0.6-8.3-1.6-3.1-1-4.5-2.7-1.3-1.6-1.3-3.7v-213.8h-66.5q-2 0-3.5-1.2-1.4-1.3-2.4-3.8-1.1-2.6-1.6-6.8-0.5-4.2-0.5-10.2 0-6.1 0.5-10.4 0.5-4.3 1.6-6.9 1-2.5 2.4-3.7 1.5-1.1 3.5-1.1h104.6q6.8 0 11.4 4 4.6 4 4.6 13v27.1h0.1z"/>
			</g>
			<g id="Layer">
				<path id="Layer" class="s0" d="m389.1 150.3c-39.9-26.4-105.8-36.9-160.8-14.3q-7.8 3.2-15.1 6.8c-46.5 22.5-76.7 53-76.7 53 0 0 54.6-68.3 58.3-106.8 3-31.2-2.6-56.4-25.9-70.7-6.7-4.1-14.4-6.4-22.8-6.9 21.1-7 43.7-10.9 67.1-10.9 110.2 0 200.6 82.7 212.6 189.1-6.8-14.2-18.3-27.2-36.7-39.3z"/>
			</g>
			<g id="Layer">
				<path id="Layer" class="s0" d="m150.8 123.2c-5.2 18.1-24.4 57.2-45.7 91-3.4 5.4-6.9 10.7-10.4 15.8-15.1 21.9-46 59.4-68.3 86.1-16.7-30.3-26.1-65-26.2-101.9v-0.5c0-58.7 23.8-111.9 62.2-150.5 12.8-11.2 27.4-19.8 42.8-20.5 48.6-2.2 51.6 59.4 45.6 80.5zm62.4 303.8c-79.5-0.2-148.8-43.8-185.4-108.3 29.7-29.2 79.7-74.5 131-104.5q3.9-2.3 7.8-4.5c16.3-9 31.8-16.3 46.6-21.9 61-23.4 108.8-19.6 141.2-1.8 14.6 8 26.2 17.6 35 28.2 15.4 18.6 22.1 40.3 21.1 62.1-0.5 12-2.6 22.6-5.1 31.3-34.8 70.7-107.9 119.4-192.1 119.4"/>
			</g>
		</g>
	</g>
</svg>