<svg version="1.2" xmlns="http://www.w3.org/2000/svg" viewBox="0 0 1550 569" width="1550" height="569">
	<title>Singapore_Airlines_Logo_2-svg</title>
	<style>
		.s0 { fill: #fcb130 } 
		.s1 { fill: #1d4886 } 
	</style>
	<g id="g10">
		<g id="g12">
			<g id="g5458">
				<path id="path50" fill-rule="evenodd" class="s0" d="m0 535.1h1073l-21.3 33.2h-1051.7z"/>
				<g id="g4758">
					<path id="path52" fill-rule="evenodd" class="s0" d="m1268.5 520h-39.5l79.7-125.6c0 0 11.9-26.1-3.7-53.6l-111-183.8c0 0-9.8-17 0-33.4l32.8-49.1 130.3 212.8c0 0 33.6 44.5-2.9 99.7z"/>
					<path id="path54" fill-rule="evenodd" class="s0" d="m1363.7 481.5l48.5-73.7c0 0 14.1-30.5 50.6-30.5h51.4l35.8 56.5c0 0-28.3-2.9-40.9 17.3l-52.9 79.6c0 0-17.2 37.2-63.3 37.2h-248.8l94.7-145.3c0 0 13.3-17-5.4-45.3l-84.2-135.4c0 0-20.7-19.9 0.7-54.2l24.6-37.3 117.1 189.7c0 0 20.7 26 0 57.2l-87.9 137h185.4c0 0 20.9 3.9 38.9-22.9l46-70.8c0 0 10.5-23.9 33.6-33.6h-37.2c0 0-19.5 0.8-34.4 23.9l-40.9 63.3c0 0-14.9 26.7-47.7 26.7h-64.8l78.2-121.2c0 0 42.6-56 12.7-107.3l-129.6-214.3c0 0-9.7-18.5 1.5-35.7l28.2-42.4 147.6 237.5c0 0 21.6 35.6 21.6 63.1 0 27.6-17.2 58.7-26.8 74.5l-64.9 101.3c0 0-7.4 9.7-2.2 13.4 5.3 3.6 10.4-3 14.8-8.3z"/>
				</g>
				<g id="g5439">
					<path id="path16" fill-rule="evenodd" class="s1" d="m540.3 378.4h22.9v90.8h56v19.5h-78.9z"/>
					<path id="path18" fill-rule="evenodd" class="s1" d="m636.8 378.4h22.8v110.3h-22.8z"/>
					<path id="path20" fill-rule="evenodd" class="s1" d="m357.5 378.4h22.6v110.3h-22.6z"/>
					<path id="path24" fill-rule="evenodd" class="s1" d="m822.3 378.4h86.5v18.2h-63.5v26.9h53.9v20h-53.9v26.8h63.5v18.4h-86.5z"/>
					<path id="path26" fill-rule="evenodd" class="s1" d="m944 230.2h86.5v18.2h-63.5v26.7h54.1v20h-54.1v26.8h63.5v18.2h-86.5z"/>
					<path id="path28" fill-rule="evenodd" class="s1" d="m415.1 488.7v-110.3h65.5c0 0 31.6 0.6 31.6 32.1 0 0 2.9 26.2-23.9 36.9l33.3 41.3h-28.3l-45.9-57.3h23.9c0 0 17-0.3 17-17.6 0-16.3-13.7-17.6-17.9-17.6h-32.3v92.5z"/>
					<path id="path30" fill-rule="evenodd" class="s1" d="m818.3 340.1v-109.9h65.5c0 0 31.6 0.6 31.6 32.1 0 0 2.7 26-23.9 36.7l33.2 41.1h-28.2l-45.9-56.9h23.9c0 0 17-0.4 17-17.6 0-16.5-13.7-17.6-18-17.6h-32.2v92.1z"/>
					<path id="path38" fill-rule="evenodd" class="s1" d="m359.1 321h31.1v-50.4h22v69.5h-57.8c-8.7 0-50.3-9.7-50.7-53.6-0.3-43.5 37.6-56.3 52.3-56.3h56.7v19.5h-51.2c0 0-34.3 0-34.3 36.1 0 28 28.5 35.2 31.9 35.2z"/>
					<path id="path40" fill-rule="evenodd" class="s1" d="m689.5 378.4h23.1v17.1l14.5-17.1h27.3c0 0 37.5-2 37.5 38v72.3h-23.3v-75.8c0 0-0.8-15-16.5-15h-39.5v90.8h-23.1z"/>
					<path id="path42" fill-rule="evenodd" class="s1" d="m180.4 230.2h22.9v16.9l14.5-16.9h27.4c0 0 37.6-2 37.6 38v71.9h-23.3v-75.4c0 0-0.9-15-16.7-15h-39.5v90.4h-22.9z"/>
					<path id="path44" fill-rule="evenodd" class="s1" d="m126.1 230.2h22.6v109.9h-22.6z"/>
					<path id="path46" fill-rule="evenodd" class="s1" d="m933.9 488.5v-18.7h63.9c0 0 12.7 2.3 12.7-13.1 0-15.4-9.6-13.7-13.1-13.7h-36.9c0 0-28.4 2-28.4-31.4 0-33.2 28.1-33.2 28.1-33.2h70.1v19.5h-61.5c0 0-13.4 0-13.4 12.6 0 12.7 9 15.1 17.4 15.1h32.9c0 0 27.7-3 27.7 30 0 33.1-28.4 32.9-28.4 32.9z"/>
					<path id="path48" fill-rule="evenodd" class="s1" d="m2.4 340.1v-18.7h63.9c0 0 12.6 2.4 12.6-13.1 0-15.4-9.5-13.7-13-13.7h-36.9c0 0-28.4 2-28.4-31.2 0-33.4 28-33.2 28-33.2h70.1v19.5h-61.4c0 0-13.4 0-13.4 12.6 0 12.7 9.1 15 17.4 15h32.8c0 0 27.8-2.9 27.8 29.9 0 33.1-28.5 32.9-28.5 32.9z"/>
					<path id="path4192" fill-rule="evenodd" class="s1" d="m739.9 343.6c-33.3 0-60.1-26.9-60.1-60.1 0-33.2 26.8-60.1 60.1-60.1 33.2 0 60.1 26.9 60.1 60.1 0 33.2-26.9 60.1-60.1 60.1zm38-60.1c0-21-16.9-37.9-37.8-37.9-20.9 0-37.8 16.9-37.8 37.9 0 21 16.9 37.9 37.8 37.9 20.9 0 37.8-16.9 37.8-37.9z"/>
					<path id="path4194" fill-rule="evenodd" class="s1" d="m555.9 340.1h-25.7l-13.8-31.6h-49.8l-13.9 31.6h-25.8l52.3-109.9h24.3m6 62l-18.2-44.9-18.3 45z"/>
					<path id="path4194-3" fill-rule="evenodd" class="s1" d="m341 488.7h-25.7l-13.8-31.7h-49.8l-13.9 31.7h-25.8l52.3-110.3h24.3m6 62.2l-18.1-45-18.4 45.1z"/>
					<path id="path4190" fill-rule="evenodd" class="s1" d="m666.5 267.8c0 20-14.1 37.5-35.2 37.5h-24.1l-13.6-18.6v53.4h-23.4v-109.9h61.1c21.1 0 35.2 17.6 35.2 37.6zm-22.1 0c0-8.3-5.7-17.4-14-17.4h-36.8v34.6h36.8c8.3 0 14-8.7 14-17.2z"/>
				</g>
			</g>
		</g>
	</g>
</svg>