<svg version="1.2" xmlns="http://www.w3.org/2000/svg" viewBox="0 0 1553 660" width="1553" height="660">
	<title>Cardinal_Health_Logo-svg</title>
	<defs>
		<clipPath clipPathUnits="userSpaceOnUse" id="cp1">
			<path d="m-213.96-80.34h3460.51v1112.99h-3460.51z"/>
		</clipPath>
		<clipPath clipPathUnits="userSpaceOnUse" id="cp2">
			<path d="m-97.64-197.19h3143.15v1309.03h-3143.15z"/>
		</clipPath>
	</defs>
	<style>
		.s0 { fill: #ffffff } 
	</style>
	<g id="Layer">
		<g id="Clip-Path" clip-path="url(#cp1)">
			<g id="Layer">
				<g id="Clip-Path" clip-path="url(#cp2)">
					<path id="Layer" fill-rule="evenodd" class="s0" d="m817.7 433.7c12.4 23.5 20.9 47.2 25 70.7l-8 5.2c-11.6-22-24.6-42.4-38.9-62.4-91.5 61.7-168.1 132.1-215.7 212.6l-8.8-6c16.7-75.7 91.3-158 204.4-232.5-9.1-11.6-18.7-22.1-28.8-33.3-55.5 36.9-102.2 75.3-135.7 114.1l-7.9-6.6c19.4-42.9 62.5-87.6 122.8-128.9-8.6-8.5-17.5-16.9-26.6-24.7-24.1 17.7-45.9 35.7-64.9 54.2l-7.4-7.8c13-21.2 31.7-41.9 54.8-61.7-175.2-147.5-433.4-234.9-681.3-274.6l2.1-1.4c299.7 38.9 523.8 123.3 665.2 223.5 9.5-10.7 20.7-20.6 33.4-30.2-127.4-100.2-316.7-181.9-542.9-223l2.2-1.3c256.6 37.9 451.3 119.2 561.3 209.8 12-7.8 24.9-15.2 38.5-22.1-93.6-87.7-245.5-158.4-453-205.4l2-1.4c229.4 44.6 387.3 107.6 465 199.9 94.6-45.3 218.3-73.5 311.2-90l2.4 1.5c-90.8 17.8-207.5 55.9-301.7 103.7 4.2 5.8 8.1 11.6 11.7 17.7l-6.5 6.1c-5.3-6.1-10.8-12.1-16.5-17.9-13.1 6.9-25.5 13.9-37.5 21.2 9.9 9 19 17.7 27.3 26.9 114.4-65 280.2-116.2 463.4-144l2.3 1.6c-157 28.8-321.5 88.1-449.3 161.7 8.1 10.2 15.3 20.8 21.1 31.2 146.1-79.2 351.4-143.1 561.4-164.2l2.7 1.5c-196.2 25.7-426.5 110.8-591.6 212.8 9.7 11.7 18.4 22.9 26.1 34.9 183.9-113.6 457.5-204.8 749-216.7l2.2 1.8c-190.8 11.6-504.4 97.4-734.5 243.5zm-108.9-128.2c11.3-8.6 23.4-16.4 36.2-24.4-9-8.4-18.6-16.7-28.5-25.1-13.2 8.9-25.3 17.9-36.3 26.9 9.9 7.6 19.5 14.7 28.6 22.6zm45.9 42.3c11.1-6.7 22.7-14 34.7-20.4-8.1-9.8-16.7-18.9-25.8-28.3-12.3 7.7-24.2 14.9-35.7 23 9.4 8.3 18.4 17.1 26.8 25.7z"/>
				</g>
			</g>
		</g>
	</g>
</svg>