<svg version="1.2" xmlns="http://www.w3.org/2000/svg" viewBox="0 0 1530 506" width="1530" height="506">
	<title>Cardinal_Health_Logo-svg</title>
	<defs>
		<clipPath clipPathUnits="userSpaceOnUse" id="cp1">
			<path d="m-117.03-43.57h1901.72v611.22h-1901.72z"/>
		</clipPath>
	</defs>
	<style>
		.s0 { fill: #ffffff } 
	</style>
	<g id="Layer">
		<g id="Clip-Path" clip-path="url(#cp1)">
			<g id="Layer">
				<path id="Layer" fill-rule="evenodd" class="s0" d="m449.9 238.7c6.8 12.9 11.5 25.9 13.8 38.9l-4.4 2.8c-6.4-12.1-13.6-23.3-21.4-34.2-50.3 33.8-92.4 72.5-118.6 116.7l-4.8-3.3c9.2-41.6 50.2-86.8 112.3-127.7-5-6.3-10.2-12.1-15.8-18.3-30.5 20.3-56.2 41.4-74.6 62.7l-4.3-3.6c10.6-23.6 34.4-48.1 67.5-70.8-4.8-4.7-9.6-9.3-14.6-13.6-13.3 9.7-25.3 19.6-35.7 29.8l-4.1-4.3c7.2-11.6 17.4-23 30.1-33.9-96.3-81-238.1-129-374.3-150.8l1.1-0.7c164.7 21.3 287.8 67.6 365.6 122.7 5.2-5.9 11.3-11.3 18.3-16.6-70-55-174-99.9-298.3-122.5l1.2-0.7c141 20.8 247.9 65.5 308.4 115.2q10-6.4 21.2-12.1c-51.4-48.2-135-87-248.9-112.8l1.1-0.8c126 24.5 212.8 59.1 255.5 109.8 52-24.9 119.9-40.4 171-49.4l1.3 0.8c-49.9 9.8-114 30.7-165.8 56.9 2.3 3.2 4.4 6.4 6.4 9.8l-3.5 3.3c-2.9-3.3-6-6.6-9.1-9.8-7.2 3.8-14 7.6-20.6 11.6 5.5 5 10.4 9.7 15 14.8 62.9-35.7 154-63.8 254.7-79.1l1.2 0.9c-86.3 15.8-176.7 48.4-246.9 88.8 4.5 5.6 8.4 11.4 11.6 17.1 80.3-43.5 193.1-78.6 308.5-90.1l1.5 0.8c-107.8 14.1-234.4 60.8-325.1 116.8 5.3 6.5 10.1 12.7 14.3 19.2 101.1-62.4 251.4-112.5 411.7-119l1.2 1c-104.9 6.4-277.2 53.5-403.7 133.7zm-59.8-70.4c6.2-4.7 12.8-9 19.9-13.4-5-4.6-10.3-9.1-15.7-13.8q-10.9 7.4-20 14.8c5.5 4.2 10.8 8.1 15.8 12.4zm25.2 23.2c6.1-3.6 12.4-7.6 19-11.2-4.4-5.3-9.1-10.3-14.1-15.5-6.8 4.2-13.3 8.2-19.6 12.6 5.2 4.6 10.1 9.4 14.7 14.1zm345.6 207.6h25.2v104.6h-25.2zm-0.4-44.4h26v24.6h-26zm259.6-3.3h25.4v152.3h-25.4zm65.6 0v65.1h55.8v-65.1h12.8v152.3h-12.8v-76.1h-55.8v76.1h-12.7v-152.3zm105.1 103.9c0 38.8 25.3 39.2 30 39.2 6.8 0 16.6-3.4 22.6-8.7l0.7 13.3c-5 2.8-11.9 6-24.5 6-41.2 0-42.4-43.2-42.4-53.7 0-35.7 13.5-53.8 36.8-53.8 25.9 0 37.1 20.6 37.1 57.7zm46.7-11c0-22.5-9.1-35.7-23.2-35.7-16 0-23.5 15.1-23.5 35.7zm127.8-92.9h12.4v152.3h-12.4zm57.2 23.2v24.4h21.4v10.3h-21.4v69c0 8.4 1 16.4 12.1 16.4 4.9 0 7.4-1.1 9.3-1.7v10.6c-1.2 0.6-4.5 1.5-12 1.5-18.1 0-21.9-11.8-21.9-23.6v-72.2h-15.7v-10.3h15.7v-20.9zm-935.6 30.7c7.1-3.3 16.9-7.8 31.5-7.8 31.4 0 41.8 15.5 41.8 39.5v48.3c0 7.5 0.8 14.3 1.3 18.3h-22.7c-1.2-4-1.5-9-1.5-11.8h-0.3c-3.4 3.7-12.4 13.6-29.1 13.6-18.5 0-31.6-11.2-31.6-30.7 0-28.3 25-35.5 50.6-35.5h9.6v-4c0-10.3-5-19.8-19.5-19.8-12.6 0-23.8 6.1-28.7 10.1zm49.7 47.3h-9.2c-12 0-27.5 3.6-27.5 19.7 0 9.5 6.3 16 16.1 16 13.5 0 20.6-11 20.6-24.3zm385.5-47.3c7-3.3 16.9-7.8 31.5-7.8 31.5 0 41.6 15.5 41.6 39.5v48.3c0 7.5 0.9 14.3 1.5 18.3h-22.6c-1.3-4-1.5-9-1.5-11.8h-0.4c-3.4 3.7-12.4 13.6-29.1 13.6-18.4 0-31.7-11.2-31.7-30.7 0-28.3 25.2-35.5 50.6-35.5h9.7v-4c0-10.3-5-19.8-19.5-19.8-12.6 0-23.8 6.1-28.7 10.1zm49.7 47.3h-9.3c-12 0-27.3 3.6-27.3 19.7 0 9.5 6.3 16 16 16 13.6 0 20.6-11 20.6-24.3 0 0 0-11.4 0-11.4zm-386.7-36.1c0-6.6-0.2-12.6-0.8-17.4h22.8c0.1 6.4 0.7 8.2 0.7 14.5h0.4c1.9-4.5 6.8-16 26.7-16 1.6 0 2.9 0.3 4.3 0.6v23.3c-1.1-0.2-3.7-0.8-7.1-0.8-10.4 0-21.8 6.4-21.8 25.9v57.1h-25.2zm150.3-65.1v134.5c0 7.5 0.3 14 0.9 17.8h-23.7c-0.4-2.9-0.8-8.4-0.8-13.5h-0.5c-1.5 2.9-8.1 15.2-28 15.2-26.1 0-36.8-24.8-36.8-53.8 0-34.1 12.8-54 38.8-54 17 0 23 10.1 24.5 12.2h0.5v-58.4zm-25.2 100.1c0-19.6-8.6-35.4-19.3-35.4-10.6 0-19.2 15.8-19.2 35.4 0 19.6 8.6 35.5 19.2 35.5 10.7 0 19.3-15.9 19.3-35.5zm-247.5 49.3c-2.7 1-10.7 5.1-30.7 5.1-43.2 0-65.4-31.5-65.4-73 0-41.5 22.2-73 64.6-73 18.5 0 28.3 4 31.5 5.3l-1.3 23.6c-2.5-1.5-10.2-7.3-27-7.3-21.5 0-40 14.7-40 51.4 0 36.8 18.5 51.4 40 51.4 12.7 0 21-3 26.9-7.3zm349.1-84.2c0-6.6-0.2-12.7-0.8-17.5h23.7c0.2 3.3 0.7 10.7 0.7 13.3h0.4c2.1-3.2 8.8-14.8 27.4-14.8 21.8 0 31.6 13.9 31.6 34.4v71.8h-25.3v-67.7c0-12.9-7.6-17.8-16.2-17.8-8.4 0-16.2 4.6-16.2 17.8v67.7h-25.3zm649.3-65.1h12.5v57.2h0.2c3-3.7 9.4-10.9 25.3-10.9 19.6 0 30.5 16 30.5 30.6v75.3h-12.6v-72.5c0-13.8-8.2-23.2-21.4-23.2-13.3 0-22 8.9-22 23.2v72.5h-12.5c0 0 0-152.2 0-152.2zm-135.7 80.8c0-14.4-5.2-23.6-22.8-23.6-14.2 0-24.1 9.9-25.4 11l-1.8-12.7c5.9-3.6 14.6-9.2 28.2-9.2 29.3 0 34.3 21.2 34.3 32.2v50.4c0 7.9 0.5 15.6 1.2 23.4h-12.1l-0.7-12.7h-0.4c-2.6 3.5-8.4 14.1-28.3 14.1-19.7 0-30.8-12.3-30.8-30.9 0-26.6 22.7-33.5 49.6-33.5h9c0 0 0-8.5 0-8.5zm-10 18.8c-22 0-35.4 6.5-35.4 23 0 10.4 6.5 20.1 20.3 20.1 5.6 0 25.1-2.3 25.1-30.8v-12.3c0 0-10 0-10 0z"/>
			</g>
		</g>
	</g>
</svg>