<svg version="1.2" xmlns="http://www.w3.org/2000/svg" viewBox="0 0 1578 341" width="1578" height="341">
	<title>caleres-logo-header-midnight-svg-svg</title>
	<style>
		.s0 { fill: #000000 } 
	</style>
	<path id="Layer" fill-rule="evenodd" class="s0" d="m911.3 285.7h11.5v53.2h-12v-28.6c0-4.6 0.5-11.1 0.5-11.1q-0.5 0.5-0.8 1-0.5 0.5-0.8 1-0.5 0.4-0.8 0.9-0.5 0.3-1 0.8l-3.2 3.1-6.8-8.6zm-114.5 4.7q0.8 2.4 2.1 4.7 1.1 2.3 2.5 4.4 1.3 2.1 3.1 3.8 1.9 1.8 3.9 3.3 2.1 1.4 4.3 2.5 2.3 1.2 4.7 2 2.4 0.9 4.8 1.4-2.4 0.7-4.8 1.5-2.4 0.9-4.7 2.1-2.2 1.1-4.3 2.6-2 1.4-3.9 3-1.8 2-3.1 4.1-1.4 2-2.5 4.3-1.3 2.3-2.1 4.7-1 2.2-1.5 4.8c-0.6-3.4-1.6-6.6-3.2-9.7-1.6-3-3.6-5.8-6-8.2-2.4-2.2-5.2-4.3-8.1-6-3-1.4-6.3-2.5-9.6-3.2 3.3-0.5 6.6-1.6 9.6-3.2 2.9-1.5 5.7-3.6 8.1-6 2.4-2.4 4.4-5.1 6-8 1.6-3.1 2.6-6.3 3.2-9.7q0.5 2.4 1.5 4.8zm-57-108.4h128.9v18.6h-148.4v-191.4h148.1v18.3h-128.6v60.5h114.9v18.2h-114.9zm-103.8 103.7h42.8v11.3h-15.3v42h-12v-42h-15.5zm-302.5-285.4l108 200.1h-22.6l-85.5-160.5-85.2 160.6h-22.3zm136 327.4h25v11.1h-36.9v-53.1h36.4v11.1h-24.5v9.6h18.1v11.1h-18.1zm103-20.2c6.4 2 15.6 6.2 15.6 17.3 0 11.3-8.4 16-19.7 16-8.9 0-18.9-2.9-20.6-14.2l10.6-3.1q0.3 1.8 1.1 3.2 1 1.5 2.5 2.6 1.3 1 3 1.5 1.6 0.4 3.4 0.1c4.4 0 7.4-1.9 7.4-6.1 0-5.3-5.3-6-13.7-8.4-6.3-1.8-13.7-5.3-13.7-15.6 0-10.4 7.8-15.5 18.7-15.5 11.2 0 18.3 4.5 20 13.2l-10.3 2.9q-0.3-1.5-1.1-2.7-0.8-1.3-2.1-2.3-1.3-0.8-2.8-1.1-1.4-0.5-3-0.4c-4.5 0-7.3 1.3-7.3 5.5 0 4.4 4.2 5.4 12 7.5zm80.1-107h-149.4v-191.3h20v172.7h129.4zm-486.9-42.2l15.3 11.8-1.1 1.1c-5.2 5.1-10.7 9.8-16.6 13.9-6.2 4-12.5 7.4-19.2 10.1-6.6 2.8-13.6 4.9-20.7 6.2-7.1 1.4-14.3 2-21.6 1.9-57.4 0-101-42.3-101-98.6 0.2-13 2.7-26.1 7.9-38.2 5.2-12.1 12.6-23.1 21.9-32.1 9.6-9.2 20.7-16.5 32.8-21.3 12.3-4.7 25.3-7.1 38.4-6.8 7.3 0 14.4 0.7 21.3 2.1 7.1 1.3 13.9 3.4 20.5 6.1q9.9 4.2 18.9 10.2c5.8 3.9 11.4 8.6 16.4 13.6l1.2 1.1-15.4 12.4-0.8-1q-6.1-6.1-13.4-10.8-7.1-4.8-15.1-8-7.9-3.3-16.5-4.9-8.4-1.7-17.1-1.6c-21.5-0.8-42.3 7.4-57.8 22.3-15.3 15-24 35.6-24 57.1 0 21.4 8.7 42.1 24 56.9 15.5 15 36.3 23.1 57.8 22.5q8.7 0.1 17.3-1.5 8.5-1.5 16.7-4.8 8.1-3.3 15.4-7.9 7.2-4.9 13.5-11zm1055.3 23.9h128.5v18.5h-148.4v-191.5h148.1v18.4h-128.2v60.3h114.8v18.3h-114.8zm356.9-32q0 4.4-0.8 8.7-0.9 4.4-2.5 8.4-1.7 4.2-4.2 7.8-2.4 3.7-5.4 6.9c-13.4 13.6-35.4 21-62.3 21h-1q-11.1 0.2-22.1-1.3-11.1-1.5-21.9-4.4-10.7-2.7-21-7.1-10.3-4.3-19.9-10l-1.3-0.8 10.9-15.6 1.2 0.6q8.6 5 17.6 8.9 9.2 3.9 18.9 6.3 9.5 2.6 19.4 3.9 9.8 1.1 19.8 1.1c33.4-0.5 54.1-13.6 54.1-34.2 0.1-17.9-10.7-25.8-45.9-34.2l-26.3-6.3c-41.4-9.7-60.3-25.6-60.3-51.8-0.2-29.7 28.9-49.8 72.6-50.3h0.8q9.5 0 18.9 1.3 9.3 1.3 18.5 3.9 9.1 2.5 17.8 6.2 8.7 3.9 16.8 8.9l1.3 0.8-10.2 15.5-1.3-0.6q-6.8-4.4-13.9-7.6-7.2-3.2-14.8-5.5-7.6-2.3-15.3-3.4-7.8-1.1-15.7-1.3h-1.8c-33.4 0.7-52.9 12.6-52.9 32.3 0.2 16.6 12.9 26.1 45 33.5l27.5 6.5c42.1 9.7 59.3 24.7 59.7 51.9zm-571.2 162.8q1.9 1.3 3.4 3.2 1.4 1.8 2.1 4.1 0.6 2.2 0.6 4.5c0 8.9-7.2 15.6-19.7 15.6-12.2 0-19.7-6.4-19.7-15.6q-0.1-2.3 0.7-4.5 0.6-2.3 1.9-4.1 1.5-1.9 3.4-3.2 1.9-1.3 4.2-1.8-1.8-0.6-3.4-1.7-1.4-1.2-2.6-2.8-1.1-1.6-1.6-3.4-0.5-1.9-0.5-3.8c0-7.9 6.7-14.1 17.6-14.1 10.8 0 17.5 6.2 17.5 14.1q0.1 1.9-0.5 3.8-0.5 1.8-1.6 3.4-1.2 1.6-2.6 2.8-1.6 1.1-3.4 1.7 2.2 0.5 4.2 1.8zm-20.5-13.1c0.5 1.7 1.4 2.9 2.7 4.1q2 1.4 4.4 1.4c1.8 0 3.2-0.5 4.5-1.4 1.3-1.2 2.3-2.4 2.7-4.1 0-4.2-3.2-6.2-7.4-6.2-4.5 0-6.9 2-6.9 6.2zm15.2 23.9c0-4.1-3.7-7.4-8.3-7.4-4.5 0-8.2 3.3-8.2 7.4 0 4.1 3.7 7.4 8.2 7.4 4.6 0 8.3-3.3 8.3-7.4zm172.3-10.8q1.9 1.3 3.4 3.2 1.4 1.8 2.1 4.1 0.6 2.2 0.6 4.5c0 8.9-7.3 15.6-19.5 15.6-12.4 0-19.9-6.4-19.9-15.6q0-2.3 0.7-4.5 0.6-2.3 2.1-4.1 1.3-1.9 3.2-3.2 1.9-1.3 4.2-1.8-1.8-0.6-3.4-1.7-1.4-1.2-2.6-2.8-1.1-1.6-1.6-3.4-0.5-1.9-0.5-3.8c0-7.9 6.8-14.1 17.6-14.1 11 0 17.4 6.2 17.4 14.1q0 1.9-0.4 3.8-0.5 1.8-1.6 3.4-1.2 1.6-2.6 2.8-1.6 1.1-3.4 1.7 2.2 0.5 4.2 1.8zm-21-13.1c0 2.6 1.5 4.9 3.7 5.9 2.4 1.1 5 0.8 7-1 1.9-1.6 2.7-4.2 1.9-6.6-0.7-2.5-2.8-4.2-5.2-4.5-4.5 0-7.2 2-7.4 6.2zm15.7 23.9c0-4.1-3.7-7.4-8.3-7.4-4.5 0-8.2 3.3-8.2 7.4 0 4.1 3.7 7.4 8.2 7.4 4.6 0 8.3-3.3 8.3-7.4zm-110.7-37.7h38.9v9.2l-22.8 43.7h-12.1l15.7-30c3-6.2 6.2-11.6 6.2-11.6h-25.8zm12.3-169.3l44.4 84.2h-21.7l-0.4-0.8-42.6-81.4-71.5-0.7v82.6h-20v-191.3h87.4c42.3 0 67.6 20.5 67.6 54.7 0 27.6-15.5 46.3-43.2 52.7zm22.7-52.7c0-23.1-16.6-36.3-45.8-36.3h-68.7v72.6h68.7c17.1 0 45.8-4.9 45.8-36.3z"/>
</svg>