<svg version="1.2" xmlns="http://www.w3.org/2000/svg" viewBox="0 0 1527 317" width="1527" height="317">
	<title>CBC-logo-small-svg</title>
	<defs>
		<clipPath clipPathUnits="userSpaceOnUse" id="cp1">
			<path d="m-2036.03-562.57h5599.06v2070h-5599.06z"/>
		</clipPath>
	</defs>
	<style>
		.s0 { fill: #ffffff } 
		.s1 { fill: #d4a618 } 
		.s2 { fill: #a36613 } 
		.s3 { fill: #b47916 } 
		.s4 { fill: #fbd967 } 
		.s5 { fill: #bb8c15 } 
	</style>
	<g id="Layer">
		<g id="Layer">
			<g id="Clip-Path" clip-path="url(#cp1)">
				<g id="Layer">
					<g id="Layer">
						<g id="Layer">
							<path id="Layer" fill-rule="evenodd" class="s0" d="m245.1 88c0-31 23.9-53.6 54-53.6 18.9 0 32.5 6.8 41.9 21.4l-16.5 11.7c-4.9-8-13.4-13.7-25.4-13.7-19 0-31.8 14.7-31.8 34.2 0 19.6 12.8 34.5 31.8 34.5 13.5 0 21.1-6.5 27-15.4l16.8 11.6c-9.1 14.1-23.6 23.1-43.8 23.1-30.1 0-54-22.8-54-53.8zm161.6-53.3h1.9l47.9 105.7h-22.7l-5.8-14.2h-40.7l-5.9 14.2h-20.8zm13.6 73.4l-6.7-15.8c-2.9-7-6-17.6-6.3-18.7-0.2 0.5-3.2 11.4-6.2 18.7l-6.6 15.8zm61-72.5h21.6v85.8h47.5v18.9h-69.1zm95.6 0h21.6v104.8h-21.6zm56.7 0h67.5v18.9h-45.9v27.3h41.8v19.2h-41.8v39.3h-21.6c0 0 0-104.7 0-104.7zm144.8 106.1c-30 0-54.3-24-54.3-53.8 0-29.7 24.3-53.7 54.3-53.7 30 0 54.3 24 54.3 53.7 0 29.8-24.3 53.8-54.3 53.8zm32.1-53.8c0-19-14.4-34.5-32.1-34.5-17.8 0-32.1 15.5-32.1 34.5 0 19.1 14.3 34.5 32.1 34.5 17.7 0 32.1-15.4 32.1-34.5zm91.4-52.3c21.5 0 39 10 39 34.5 0 15.8-8.3 25.8-20.5 30.6l23.9 39.6h-24.6l-21.3-36.4h-13.7v36.4h-21.6v-104.7zm-0.6 50.2c10.6 0 17.4-4.2 17.4-15.7 0-11.7-7.1-15.6-17.4-15.6h-16.7v31.3zm102.2 5.8c-5.2-4.9-12.5-14.3-12.5-14.3 0 0 1.6 11.6 1.6 19.1v43.9h-20.2v-105.7h2.1l52.9 49.6c5.1 4.8 12.3 14.4 12.3 14.4 0 0-1.3-11.9-1.3-19.1v-43.9h20.2v105.6h-2.2zm90.5-56h21.6v104.7h-21.6zm92.4-0.9h1.8l48 105.6h-22.7l-5.8-14.1h-40.8l-5.8 14.1h-20.8zm13.5 73.5l-6.6-15.9c-2.9-6.9-6-17.5-6.3-18.6-0.2 0.5-3.3 11.4-6.2 18.6l-6.6 15.9zm-923.4 91.9c16.2 0 24.1 9.4 24.1 21.2 0 8.2-4.2 14.8-12.1 17.2 9.8 2.2 15.9 8.6 15.9 20 0 13.2-8.9 23.1-25.9 23.1h-31.1v-81.5zm-0.7 33.7c8.5 0 12.4-4.5 12.4-11.3 0-6.8-3.7-11.2-12.6-11.2h-15.4v22.5zm2.1 36.7c9.3 0 13.9-5.3 13.9-13 0-8-5.1-13-14.7-13h-16.9v26zm74.2-71.2h1.4l35.7 82.3h-13.2l-5.9-14.9h-34.7l-6 14.9h-12.3zm13.5 56.9l-8.9-22.2c-1.8-4.4-4-11.3-4.1-11.9-0.1 0.3-2 7.3-3.9 11.9l-8.9 22.2zm60.4-22.2c-3.2-3.4-7.7-9.1-7.7-9.1 0 0 0.9 6.7 0.9 11.8v44.9h-11.8v-82.3h1.7l45 48.3c3.1 3.3 7.5 9.1 7.5 9.1 0 0-0.8-7.2-0.8-11.7v-44.9h11.7v82.4h-1.5zm85.6-33.9v31.8c0 3.9-0.6 8.9-1 12.1 1.9-3.7 4.2-8 6.5-10.9l26.6-33h14.3l-28.7 36 31.8 45.4h-15.2l-25.1-35.9-9.2 11.1v24.8h-12.7v-81.4zm140.2 82.5c-23.2 0-42-18.7-42-41.8 0-23.1 18.8-41.8 42-41.8 23.3 0 42.1 18.7 42.1 41.8 0 23.1-18.8 41.8-42.1 41.8zm29.1-41.8c0-16.8-13-30.4-29.1-30.4-16 0-29.1 13.6-29.1 30.4 0 16.8 13.1 30.4 29.1 30.4 16.1 0 29.1-13.6 29.1-30.4zm86-40.7v11.1h-38.2v26.2h34.6v11.3h-34.6v32.8h-12.7v-81.4zm51.6 40.7c0-24.3 18.7-41.7 41.8-41.7 14.7 0 25.5 5.4 32.7 16.2l-9.7 6.9c-4.6-7-12.3-11.7-23-11.7-16.9 0-28.9 12.9-28.9 30.3 0 17.4 12 30.4 28.9 30.4 11.3 0 18.9-5 24.2-12.8l9.7 6.8c-7.1 10.8-18.6 17.4-33.9 17.4-23.1 0-41.8-17.5-41.8-41.8zm131.7 41.8c-23.3 0-42.1-18.7-42.1-41.8 0-23.1 18.8-41.8 42.1-41.8 23.2 0 42 18.7 42 41.8 0 23.1-18.8 41.8-42 41.8zm29.1-41.8c0-16.8-13-30.4-29.1-30.4-16.1 0-29.1 13.6-29.1 30.4 0 16.8 13 30.4 29.1 30.4 16.1 0 29.1-13.6 29.1-30.4zm35-41.6h1.4l38.9 45.6 38.7-45.6h1.3v82.3h-12.1v-42.3c0-4.4 0.5-11.4 0.5-11.6-0.3 0.2-4.1 6.1-7.4 9.7l-20.5 24.7h-1.4l-20.5-24.7c-3-3.5-6.9-9.2-7.2-9.7 0 0.2 0.5 7.2 0.5 11.6v42.3h-12.2zm106.7 0h1.3l39 45.6 38.6-45.6h1.4v82.3h-12.2v-42.3c0-4.4 0.5-11.3 0.5-11.6-0.2 0.2-4.1 6.1-7.3 9.7l-20.5 24.7h-1.4l-20.6-24.7c-3-3.5-6.8-9.2-7.2-9.7 0 0.2 0.5 7.2 0.5 11.6v42.3h-12.1zm106.7 0.9h51.8v11.1h-39.1v24h34.6v10.9h-34.6v24.3h40.7v11.1h-53.4zm102.5 0c16.8 0 29.6 7.9 29.6 25.9 0 12.1-6.6 19.9-16.6 23.4l19.2 32.2h-14.5l-17.6-30.2h-14.8v30.2h-12.7v-81.5zm-0.5 40.6c10.8 0 17.1-4.4 17.1-14.7 0-10.5-6.4-14.7-17.1-14.7h-14.1v29.4zm47.9 0.2c0-24.4 18.7-41.7 41.9-41.7 14.6 0 25.4 5.4 32.6 16.1l-9.7 7c-4.6-7.1-12.3-11.7-22.9-11.7-16.9 0-28.9 12.9-28.9 30.3 0 17.3 12 30.4 28.9 30.4 11.3 0 18.8-5 24.1-12.8l9.7 6.8c-7.1 10.8-18.6 17.4-33.8 17.4-23.2 0-41.9-17.5-41.9-41.8zm147.1-40.8v11.2h-39.1v23.9h34.7v10.9h-34.7v24.4h40.8v11.1h-53.5v-81.5z"/>
							<path id="Layer" class="s1" d="m0.8 158.5l78.9 78.8h-78.9z"/>
							<path id="Layer" class="s2" d="m79.7 237.3v-78.8h79z"/>
							<path id="Layer" class="s3" d="m158.7 158.5h-79v-78.9z"/>
							<path id="Layer" class="s4" d="m79.7 79.6l-78.9 78.9v-78.9z"/>
							<path id="Layer" class="s5" d="m79.7 158.5v78.8l-78.9-78.8z"/>
							<path id="Layer" class="s1" d="m79.7 79.6v78.9h-78.9z"/>
							<path id="Layer" class="s2" d="m79.7 79.6h-78.9v-78.9z"/>
							<path id="Layer" class="s5" d="m0.8 237.3h78.9l-78.9 78.9v-78.9z"/>
						</g>
					</g>
				</g>
			</g>
		</g>
	</g>
</svg>