<svg version="1.2" xmlns="http://www.w3.org/2000/svg" viewBox="0 0 1509 1612" width="1509" height="1612">
	<title>cara_neu-svg</title>
	<style>
		.s0 { fill: #f0806c } 
		.s1 { fill: #557d4b } 
		.s2 { fill: #dfe718 } 
	</style>
	<g id="#f0806cff">
		<path id="Layer" class="s0" d="m788.1 0h79.5c96.3 3.9 192.9 20.9 281.7 59.2 101 42.7 190 110.4 265.7 189 35.2 40.6 65.5 86.6 81.9 138.1 16.1 48.8 15.7 103.4-4.9 150.7-26.5 61.4-78.3 108.5-135.9 140.6-41.9-62.9-92.5-119.8-148-170.9-94.5-87.3-205.4-157.6-326.4-202.1-119.3-44.2-247.9-62.3-374.9-55.3-79.8 3.8-159.6 18.7-233.9 48.9-52.5 20.4-101.3 48.9-148.3 79.7 62.5-97.7 146.5-181.4 243.9-244.4 124.6-81.1 271.2-127 419.6-133.5z"/>
	</g>
	<g id="#557d4bff">
		<path id="Layer" class="s1" d="m379.8 355c122.5-29.9 252.3-19 372 18.1-20.1 4.3-40.4 8-60 14.2-107.8 32-203 105.4-259.8 202.5-47.1 79.3-67.7 174-57.3 265.6 10.7 99.2 57.7 193.8 129.4 263.1 66.6 66.3 154.8 109.3 247.2 124.7-102.1 32.6-211.6 44.1-317.9 28.8-116-17.2-229-68.7-310.3-154.4-73.5-75.5-117.4-178.1-123.1-283.2v-52.6c5.2-88.6 36.7-175.7 91.3-246 70.7-92.2 176.4-153.7 288.5-180.8z"/>
	</g>
	<g id="#dfe718ff">
		<path id="Layer" class="s2" d="m1172.9 1135.8c69.5-59.1 132.5-126.3 183.4-202 61.2 34.4 116.8 85.8 140.6 153.3 19.4 53.5 12.7 113.5-9.9 164.9-23.8 54.1-59.8 102.6-103.5 142.4-47 44.5-98.3 84.7-154.2 117.3-81.5 48.3-173 78.6-266.7 91.1-108.7 14.4-220.2 12.5-327.2-12.3-207.9-46.8-396.3-177.2-510.6-357.3 36 23.8 73.1 46.4 112.4 64.4 71.5 33.8 149.1 53.9 227.7 61.3 119.3 11 240.9 1.6 356-32.2 129.3-37.3 249.4-104.2 352-190.9z"/>
	</g>
</svg>