<svg version="1.2" xmlns="http://www.w3.org/2000/svg" viewBox="0 0 1509 1499" width="1509" height="1499">
	<title>Carrier-March-2020-Investor-Meetings-v2_tcm26-76291-1-pdf-svg-svg</title>
	<style>
		.s0 { fill: #ffffff } 
	</style>
	<g id="#ffffffff">
		<path id="Layer" class="s0" d="m1055.5 4.6c82.1-6.7 165.3-5.2 246.3 10.6 51.2 11.2 102 29.5 143.6 62 35.6 28.3 61.2 71.2 62.4 117.3 3.5 47.1-20.1 94.8-59.5 120.7-42.9 25.8-97.6 31.1-144.5 13.5-29.2-9.9-53.5-32.9-65.7-61.1-12.2-28.8-13.3-61.5-5.5-91.7 5.3-24.3 14.5-47.6 25.2-70.1-86.4-27.9-179.8-23-267.9-6-81.4 14.9-159.3 45.5-232.1 84.4-44 25.1-87.2 52-126.2 84.6-74.4 58.7-139.8 128.6-193.6 206.6-64.1 91.8-112.3 194.8-139.9 303.3-19.3 76.5-27.4 155.6-24 234.3 4.3 54 10.8 108.9 31.8 159.3 18 48.5 47.4 92.9 85.4 128.1 63.9 58.6 151.5 85.7 237.1 87.7 62 0.7 124.5-6 184.2-23.5 62.6-18.1 122.3-46.3 175.9-83.5 36.9-24.7 70.6-53.8 103.8-83 24.1-0.1 48.3 0.4 72.4-0.3-4.8 3.7-8.3 8.6-11.8 13.5-113.1 145.7-282.5 246.5-464.5 276.4-48.5 8.8-97.9 11.3-147.2 10.1-79.9-1.6-160.1-13.6-235.3-41.4-34.3-12.7-66.4-30.5-97.7-49.3-44.6-30.9-85.1-68.4-115.9-113.3-59-82.2-86.4-183.7-90.7-283.9-6.4-104.9 12.2-210.4 49.1-308.6 58.5-155.6 162.9-291.3 288.8-398.7 43.5-39.2 92.2-72.1 140.9-104.7 63.7-39.8 130.9-73.9 200.1-103.1 119.7-48 246.4-79.4 375-90.2z"/>
	</g>
</svg>