<svg version="1.2" xmlns="http://www.w3.org/2000/svg" viewBox="0 0 1554 1512" width="1554" height="1512">
	<title>benefits-banking-1-pdf-svg (2)-svg-svg</title>
	<style>
		.s0 { fill: #006a50 } 
	</style>
	<g id="Clip-Path: Clip-Path: Page 1">
		<g id="Clip-Path: Page 1">
			<g id="Page 1">
				<path id="Path 4" fill-rule="evenodd" class="s0" d="m223.9 1268.1q-12.2-2.4-24.4-7.3c-93.7-97.9-157.9-223.3-184.8-360.9q17.1 4.9 36.7 9.7 34.9 7.4 69.1 14.7 36.7 4.9 71.6 7.4c46.5 4.9 93 7.3 140.1 9.8q2.5 0 4.9 0 0 7.3 2.5 14.6 7.3 24.5 14.6 47.1 14.7 49 31.9 93 20.1 47.1 39.7 91.2 22 41.6 46.5 83.1 4.9 9.8 12.3 22.7-66.1 0-125.5-5.5c-48.9-4.9-96-9.8-135.2-19.6zm972.2-14.7q36.7-14.7 71-31.8-12.3 29.4-29.4 53.8-14.7 30-34.3 54.5-19.5 26.9-41.6 48.9-20.2 24.5-44.6 46.5-14.7 12.2-29.4 22.6-56.9 24.5-120.5 41.6 7.3-26.9 12.2-54.4 7.4-39.2 14.7-80.8 2.4-17.1 2.4-36.7 17.2-4.8 34.3-9.7 86.3-22.7 165.2-54.5z"/>
				<path id="Path 5" class="s0" d="m197 386.6q48.9 7.4 98.5 9.8 4.9-29.3 9.8-56.9c12.2-56.2 29.4-107.6 46.5-154.7q22.6-48.9 47.1-88.1c-118.1 66.1-216.6 159.7-285.7 270.4q14.7 4.9 32.4 9.8 24.5 7.3 51.4 9.7zm-69.1 469.2q34.8 2.5 66.7 4.9 61.7 2.5 122.9 0-4.9-24.5-9.8-49.5-9.7-49-14.6-97.9c-7.4-66.7-9.8-130.3-9.8-191.5q2.4-29.9 4.9-56.9-52-3.6-103.4-14.6c-34.3-7.4-69.2-17.2-101-31.8-61.8 118-91.1 250.1-81.4 392.7q0 12.2 2.5 22.6 27.5 7.3 59.3 12.2 31.9 7.4 63.7 9.8z"/>
				<path id="Path 6" class="s0" d="m913.4 1088.9q-2.4-46.5-9.8-93-7.9-47.1-15.3-96 0-4.9 0-7.4-2.4 0-4.8 0-66.1 12.3-135.3 22-69.1 7.4-140.1 14.7-69.1 4.9-137.6 9.8-22.7 0-44.7 0 4.9 19.6 9.8 39.2 12.2 44.6 30 88.7 14.7 44 34.2 86.2 17.2 41.6 36.8 80.7 14.6 29.4 29.3 56.3 15.3 0 27.6 0 41.6-2.4 83.2-4.9 42.2-4.9 83.8-7.3 44.6-4.9 86.2-9.8 39.2-7.3 79-12.2 0-36.7-2.5-75.9-4.9-44.6-9.8-91.1z"/>
				<path id="Path 7" class="s0" d="m600.8 841.1q66.1-7.3 135.2-15.3 66.7-9.7 132.8-19.5h2.4q0-2.5 0-4.9-9.8-46.5-19.6-95.4-9.7-49.6-19.5-98.5-12.3-49-24.5-96.1-9.8-36.7-20.2-70.9-9.8 0-19.6 2.4-56.3 7.4-115.6 14.7-56.3 7.3-115.6 9.8-56.3 4.9-115.7 4.9-26.9 0-53.8-2.5-2.5 24.5 0 52 0 44.1 2.4 88.1 4.9 46.5 9.8 91.2 7.4 46.4 14.7 92.9 7.3 31.8 14.7 64.3 26.9-2.5 56.9-4.9 68.5-4.9 135.2-12.3zm228.8 668q41.6-2.4 83.8-9.8 0-2.4 0-2.4 4.9-34.3 9.8-71.6 2.5-36.7 2.5-75.8 2.4-9.8 2.4-17.2-37.3 4.9-71.6 9.8-44 7.4-88.7 9.8-44 4.9-85.6 7.3-37.4 0-71.6 2.5 4.9 9.8 12.2 19.6 46.5 66 93.6 120.5 2.5 4.9 7.4 7.3 51.4 4.9 105.8 0z"/>
				<path id="Path 8" class="s0" d="m1156.9 818.5q-66.7 25.1-135.2 42.2-20.2 7.4-42.2 12.2 0 7.4 2.5 12.3 7.3 51.4 12.2 100.9 2.4 48.9 4.9 95.4 2.4 49 2.4 96.1 0 31.8 0 61.1 4.9 0 10.4-2.4 83.2-19.6 157.3-46.5 69.1-22 127.8-52 4.9-19.6 9.8-39.1 14.7-63.7 19.6-127.9 4.9-63.6 0-127.2-2.4-34.9-7.3-66.7 0-12.2-2.5-24.5-14.7 7.4-29.3 14.7-64.3 29.4-130.4 51.4zm-160.3-429.4q-56.2 17.1-113.1 31.8-4.9 0-9.8 0 12.2 34.3 22 66.1 15.3 49.5 27.5 98.4 12.3 49 22 101 4.9 24.4 9.8 48.9 4.9 24.5 9.8 48.9 0 2.5 0 2.5 17.2-4.9 36.7-9.8 64.3-14.7 128.5-34.2 66.1-19.6 127.9-44.1 22-9.8 44-19.6-2.4-17.7-7.3-34.8-9.8-36.7-19.6-71-12.2-34.2-24.5-69.1-12.2-34.3-27.5-66.1-26.9-61.1-61.2-115.6-26.9 12.3-54.4 24.5-53.9 22.6-110.8 42.2zm-464.9 0q56.9-2.5 113.1-9.8 56.9-7.3 110.8-15.3 4.9 0 7.3 0-4.9-17.1-12.2-34.2-7.3-22.1-14.7-44.1-7.3-19.6-17.1-41.6-14.7-39.7-34.3-78.9c-25.1-48.9-52-95.4-78.9-135.2q-4.9-4.9-7.3-9.8-74.1 17.2-140.8 47.1-2.4 9.8-7.3 17.2c-17.1 34.2-31.8 75.8-46.5 119.9q-18.4 66.6-29.4 147.4-2.4 22.6-4.9 47.1 24.5-2.5 49-2.5 56.9-2.4 113.2-7.3zm125.4-378.6c32.4 34.2 61.8 76.4 88.7 122.9q24.5 36.7 44.7 81.4 19.5 41.6 39.1 85.6 9.8 22 19.6 46.5 7.3 0 17.1-2.5 54.5-12.2 108.3-26.9 54.5-17.1 105.9-34.2 22-9.8 44.6-19.6-25.1-36.7-56.9-71.6-24.5-26.9-48.9-51.4-27.6-24.4-56.9-44-29.4-22-61.2-39.1-32.4-17.8-64.2-32.5-34.3-14.6-71.6-24.4-22 0-41.6 2.4-34.3 2.5-66.7 7.4zm332.2 41.6q34.9 22.6 64.2 47.1 31.9 24.4 58.8 51.3 27.5 26.9 52 58.8 12.2 12.8 22 27.5 22-12.2 42.2-24.5 24.5-15.3 41.6-32.4 2.5-2.5 4.9-4.9c-103.4-83.2-228.8-142.5-366.5-164.5q7.4 2.4 12.3 4.9 36.7 17.1 68.5 36.7zm468 1044.1q-25.1 22-54.4 44.7-24.5 17.1-51.4 34.2-12.2 36.7-32.4 68.5-31.8 64.3-78.3 115.6c103.3-74 186.6-174.3 241-289.9q-12.2 14.7-24.5 26.9zm-886.5 321.8q-22-27-41.6-58.8-9.8 0-19.6 0-83.8-2.4-160.3-14.6-44-7.4-85.6-19.6c105.8 90.5 238.6 152.3 381.1 176.8q-9.7-9.8-19.5-19.6-26.9-29.4-54.5-64.2zm856.6-1078.5q-4.9-7.3-9.8-12.2-44.1-63.6-101-115-2.4 4.9-7.3 7.4c-24.5 29.3-53.9 48.9-86.3 68.5q37.3 56.2 66.7 118 14.7 34.3 29.4 71 15.3 36.7 27.5 74 12.2 36.7 22 73.4 2.5 9.8 4.9 22 2.5-2.4 7.4-2.4 29.3-14.7 56.2-31.8 27.6-17.2 52-39.2 19.6-14.7 34.3-31.8c-22-71.6-53.8-140.1-96-201.9zm123.5 361.6q-3-49.6-12.8-98.5-4.9 4.9-12.2 12.2c-34.3 34.3-73.5 61.8-113.2 86.3q-12.3 7.3-24.5 14.6 2.4 9.8 2.4 19.6 2.5 17.1 4.9 34.3 4.9 34.2 4.9 69.1 4.9 68.5-2.4 139.5-7.4 59.3-22 118 26.9-17.1 51.4-34.2c34.8-24.5 61.7-51.4 81.3-78.9q12.3-19.6 19.6-39.2 4.9-19.6 9.8-41.6 4.9-17.1 7.3-36.7 12.9-78.9 5.5-164.5z"/>
			</g>
		</g>
	</g>
</svg>