<svg version="1.2" xmlns="http://www.w3.org/2000/svg" viewBox="0 0 1549 473" width="1549" height="473">
	<title>logo - 2022-09-30T123422</title>
	<style>
		.s0 { fill: #dd0519 } 
		.s1 { fill: #1a1a18 } 
		.s2 { fill: #8e9090 } 
		.s3 { fill: #ffffff } 
	</style>
	<path id="Layer" class="s0" d="m593.8 179.6c-3 5.1-7.1 9.2-12.2 13.2-5 4.1-10.1 7.1-15.2 10.2-6.1 3-12.2 6.1-19.3 7.1q-10.6 3-21.3 3c-11.2 0-22.3-2-32.5-6.1-10.1-4-18.2-10.1-25.4-17.2-7.1-7.1-13.2-16.3-17.2-26.4-4.1-10.2-6.1-21.3-6.1-32.5 0-11.1 2-22.3 6.1-32.5 4-10.1 9.1-19.2 17.2-26.3 7.2-7.1 16.3-13.2 25.4-18.3 10.2-4.1 22.4-7.1 33.5-6.1 13.2 0 26.4 2 38.6 8.1 11.2 5.1 20.3 13.2 27.4 23.4l-24.4 22.3c-4-6.1-10.1-12.2-17.2-16.2-6.1-4.1-14.2-6.1-22.4-6.1-7.1 0-13.1 1-19.2 4-5.1 2.1-10.2 6.1-14.2 11.2-4.1 5.1-7.2 10.1-9.2 16.2-2 6.1-3 13.2-3 19.3 0 7.1 1 13.2 3 19.3q3.1 9.1 9.2 15.2c4 4.1 9.1 8.1 14.2 10.2 6.1 3 12.1 4 18.2 4 5.1 0 10.2-1 15.3-2 4-1 8.1-3.1 11.1-5.1 3.1-2 6.1-4 8.1-7.1 2.1-3 5.1-5.1 7.1-8.1z"/>
	<path id="Layer" fill-rule="evenodd" class="s0" d="m604 152.2c0-8.1 1-15.2 4-23.3q4.6-10.7 12.2-18.3c5.1-5.1 12.2-10.1 19.3-12.2 8.1-3 16.2-5 24.3-5 8.2 0 16.3 1 24.4 5q10.7 4.6 18.3 12.2c5.1 5.1 9.1 12.2 12.2 18.3 3 7.1 4 15.2 4 23.3 0 8.2-1 16.3-4 23.4q-4.6 10.6-12.2 18.2c-5.1 5.1-11.2 10.2-18.3 13.2-8.1 3.1-16.2 5.1-24.4 5.1-8.1 0-16.2-2-24.3-5.1-7.1-3-13.2-7.1-18.3-13.2-5.1-5-9.1-12.1-12.2-18.2-3-7.1-5-14.2-5-23.4zm59.8 30.5c4.1 0 8.2-1 11.2-2 3.1-2.1 6.1-4.1 8.1-7.2 2.1-3 4.1-6 5.1-9.1 1-4 2-7.1 2-11.2 0-4-1-7.1-2-11.1-1-3.1-3-7.1-5.1-9.1-2-3.1-5-5.1-8.1-7.2-3-2-7.1-3-11.2-2-4 0-8.1 1-11.1 2-3.1 2.1-6.1 4.1-8.1 7.2-2.1 3-4.1 6-5.1 9.1-1 3-2 7.1-2 11.1 0 4.1 1 7.2 2 11.2 1 3.1 3 7.1 5.1 9.1 2 3.1 5 5.1 8.1 7.2 3 1 7.1 2 11.1 2z"/>
	<path id="Layer" class="s0" d="m841.5 193.8c-5.1 5.1-11.2 10.2-18.3 13.2-8.1 4.1-17.2 6.1-26.4 5.1-8.1 0-16.2-1-24.3-4q-10.7-4.6-18.3-12.2c-5.1-5.1-9.2-12.2-12.2-18.3-3-8.1-4.1-16.2-4.1-24.4 0-8.1 1.1-16.2 4.1-23.3q4.6-10.6 12.2-18.3c5.1-5 12.2-10.1 19.3-12.1 8.1-3.1 16.2-5.1 24.3-5.1 9.2 0 18.3 2 26.4 5.1 7.1 3 13.2 7.1 18.3 13.2l-20.3 22.3c-3.1-3.1-6.1-5.1-9.1-7.1-4.1-2.1-9.2-4.1-14.3-3.1-4 0-8.1 1-11.1 2.1-3.1 2-6.1 4-8.1 7.1-2.1 3-4.1 6.1-5.1 9.1-1 4.1-2 7.1-2 11.2 0 4 1 7.1 2 11.1 1 3.1 3 7.1 5.1 9.2 2 3 5 5 8.1 7.1 3 2 7.1 3 11.1 3 5.1 0 10.2-1 14.3-3 3-2.1 7.1-4.1 9.1-7.1z"/>
	<path id="Layer" fill-rule="evenodd" class="s0" d="m922.7 197.9c-4.1 4.1-9.2 8.1-14.2 10.2-6.1 2-12.2 4-19.3 3-4.1 0-8.1-1-12.2-2q-6.1-1.6-12.2-6.1c-4-3.1-7.1-6.1-9.1-10.2-3.1-5-4.1-11.1-4.1-16.2 0-6.1 1-12.2 4.1-17.3 3-5 6.1-9.1 11.2-12.1 5-3.1 10.1-6.1 16.2-8.2 7.1-2 13.2-3 20.3-2q6.1 0 12.2 0c3 0 5 0 8.1 1v-2c0-3 0-5.1-2-7.1-1.1-2-3.1-4.1-5.1-5.1-2-1-4.1-2-7.1-3-3.1-1-5.1-1-8.1-1-6.1 0-13.2 1-19.3 3-4.1 2-9.2 4.1-12.2 6.1l-14.2-20.3c3-2 5.1-4.1 8.1-5.1 3.1-2 7.1-3 10.2-5.1 4-1 9.1-3 14.2-3 6.1-1 12.1-1 17.2-1 14.2-1 27.4 3 37.6 13.2 8.1 10.1 13.2 23.3 12.2 36.5v65h-31.5zm0-38.6c-1 0-3.1-1-4.1-1-2 0-5 0-8.1 0-7.1-1-14.2 1-20.3 4-4 2.1-6.1 7.2-6.1 11.2 0 9.1 5.1 13.2 16.3 13.2 3 0 5 0 8.1-1 2-1 5.1-2 7.1-4.1 2-2 4-4 5.1-6.1 1-3 2-5 2-8.1z"/>
	<path id="Layer" class="s0" d="m987.6 125.8h75.2v32.5h-75.2z"/>
	<path id="Layer" class="s0" d="m1239.4 179.6c-3.1 5.1-7.1 9.2-12.2 13.2-5.1 4.1-10.2 7.1-16.3 10.2-6 3-12.1 5.1-18.2 7.1q-10.7 3-21.3 3c-11.2 0-22.4-2-32.5-6.1-10.2-4-18.3-10.1-25.4-17.2-7.1-7.1-13.2-16.3-17.2-26.4-4.1-10.2-6.1-21.3-6.1-32.5 0-11.1 2-22.3 6.1-32.5 4-10.1 9.1-19.2 17.2-26.3 7.1-7.1 16.2-13.2 25.4-18.3 10.1-4.1 22.3-7.1 33.5-6.1 13.2 0 26.4 2 38.5 8.1 11.2 5.1 20.3 13.2 27.5 23.4l-24.4 23.3c-4.1-6.1-10.2-12.2-17.3-16.2-7.1-4.1-15.2-6.1-23.3-6.1-6.1 0-13.2 1-19.3 4-5.1 2.1-10.1 6.1-14.2 11.2-4.1 5.1-7.1 10.1-9.1 16.2-2.1 6.1-3.1 13.2-3.1 19.3 0 7.1 1 13.2 3.1 19.3q3 9.1 9.1 15.2c4.1 4.1 9.1 8.1 14.2 10.2 6.1 3 12.2 4 18.3 4 5.1 0 10.1-1 15.2-2 4.1-1 8.1-3 11.2-5.1 3-2 6.1-4 8.1-7.1 2-3 5.1-5 7.1-8.1z"/>
	<path id="Layer" fill-rule="evenodd" class="s0" d="m1249.5 152.2c0-8.1 1-15.2 4.1-23.3q4.5-10.7 12.2-18.3c5-5.1 12.1-10.1 18.2-12.2 8.2-3 16.3-5 24.4-5 8.1 0 16.2 1 24.4 5q10.6 4.6 18.2 12.2c5.1 5.1 9.2 12.2 12.2 18.3 3 7.1 4.1 15.2 4.1 23.3 0 8.2-1.1 16.3-4.1 23.4q-4.6 10.6-12.2 18.2c-5.1 5.1-11.1 10.2-18.2 13.2-8.2 3.1-16.3 5.1-24.4 5.1-8.1 0-16.2-2-24.4-5.1-7.1-3-13.2-7.1-18.2-13.2-5.1-5-9.2-12.1-12.2-18.2-2-7.1-4.1-15.2-4.1-23.4zm59.9 30.5c4.1 0 8.1-1 11.2-2 3-2.1 6.1-4.1 8.1-7.2 2-3 4.1-6 5.1-9.1 1-4 2-7.1 2-11.2 0-4-1-7.1-2-11.1-1-3.1-3.1-7.1-5.1-9.1-2-3.1-5.1-5.1-8.1-7.2-3.1-2-7.1-3-11.2-2-4.1 0-8.1 1-11.2 2-3 2.1-6 4.1-8.1 7.2-2 3-4 6-5.1 9.1-1 3-2 7.1-2 11.1 0 4.1 1 7.2 2 11.2 1.1 3.1 3.1 7.1 5.1 9.1 2.1 3.1 5.1 5.1 8.1 7.2 3.1 1 7.1 2 11.2 2z"/>
	<path id="Layer" class="s0" d="m1388.6 50.7h34.5v158.4h-34.5z"/>
	<path id="Layer" fill-rule="evenodd" class="s0" d="m1515.5 197.9c-4.1 4.1-9.2 8.1-14.3 10.2-6 2-12.1 4-19.2 3-4.1 0-8.2-1-12.2-2q-6.1-1.6-12.2-6.1c-4.1-3.1-7.1-6.1-9.1-10.2-3.1-5-4.1-11.1-4.1-16.2 0-6.1 1-12.2 4.1-17.3 3-5 6.1-9.1 11.1-12.1 5.1-3.1 10.2-6.1 16.3-8.2 7.1-2 13.2-3 20.3-2q6.1 0 12.2 0c3 0 5 0 8.1 1v-2c0-3-1-5.1-2.1-7.1-1-2-3-4.1-5-5.1-2.1-1-4.1-2-7.1-3-3.1-1-5.1-1-8.2-1-6 0-13.2 1-19.2 3-4.1 2-9.2 4.1-12.2 6.1l-14.2-20.3c3-2 5-4.1 8.1-5.1 3-2 7.1-3 10.1-5.1 4.1-1 9.2-3 14.2-3 6.1-1 12.2-1 17.3-1 14.2-1 27.4 4 37.6 13.2 8.1 10.1 13.2 23.3 12.1 36.5v65h-31.4zm0-38.6c-1 0-3.1-1-4.1-1-2 0-5.1 0-8.1 0-7.1-1-14.2 1-20.3 4-4.1 2.1-6.1 7.2-6.1 11.2 0 9.1 5.1 13.2 16.2 13.2 3.1 0 5.1 0 8.2-1 2-1 5-2 7.1-4.1 2-2 4-4 5-6.1 1.1-3 2.1-5 2.1-8.1z"/>
	<path id="Layer" class="s1" d="m312.6 389.7c0 20.3-13.2 31.5-54.8 31.5-41.6 0-54.8-10.2-54.8-31.5 0-16.2 10.2-27.4 10.2-51.7v-3.1c-1-6.1-1-10.1-1-11.1 0-4.1-6.1-43.7-7.1-52.8-1.1-9.2 1-11.2 1-11.2-3.1-23.3-2.1-46.7 5-70-4-3.1 4.1-21.3 4.1-21.3 6.1-15.3 14.2-36.6 14.2-36.6 1-4 3.1-11.1 4.1-19.2 1-11.2 1-24.4 1-27.4 0-3.1-4.1-3.1-4.1-6.1q1.5-6.1 3.1-12.2 0-1.5 0-3.1c0-1 0-2-1-2 0-4.1 3-7.1 7.1-7.1h33.5c4 0 7.1 3 7.1 7.1 0 1-1.1 1-1.1 2q0 1.6 0 3.1c2.1 4 3.1 8.1 4.1 12.2 0 3-4.1 2-3 6.1 0 4 0 15.2 1 27.4 1 7.1 3 14.2 4 19.2 0 0 8.2 21.3 14.2 36.6 0 0 8.2 18.2 4.1 21.3 7.1 23.3 8.1 47.7 5.1 71 0 0 2 2.1 1 11.2-1 9.1-7.1 48.7-7.1 52.8 0 2-1 6.1-1 11.1v3.1c0 23.3 10.1 35.5 11.1 50.7z"/>
	<path id="Layer" class="s2" d="m109.6 389.7c0 20.3-13.2 31.5-54.8 31.5-41.6 0-54.8-10.2-54.8-31.5 0-15.2 10.2-27.4 10.2-50.7v-3.1c-1-6.1-1-10.1-1-11.1 0-4.1-6.1-43.7-7.2-52.8-1-9.1 1.1-11.2 1.1-11.2-3.1-24.3-2.1-47.7 5-71-4-3.1 4.1-21.3 4.1-21.3 6.1-15.3 14.2-36.6 14.2-36.6 1-5 3.1-11.1 4.1-19.2 1-11.2 1-24.4 1-27.4 0-3.1-4.1-3.1-4.1-6.1 0-3.1 2.1-7.1 3.1-10.2q0-1.5 0-3c0-1-1-2.1-1-2.1 0-4 3-7.1 7.1-8.1h33.5c4 0 7.1 3.1 7.1 7.1 0 1-1.1 1-1.1 2.1q0 1.5 0 3c2.1 4.1 3.1 7.1 4.1 11.2 0 3-4.1 2-4.1 6.1 0 3 0 15.2 1.1 27.4 1 7.1 3 14.2 4 19.2 0 0 8.1 21.3 15.2 36.6 0 0 8.2 18.2 4.1 21.3 6.1 23.3 8.1 47.7 5.1 71 0 0 2 2.1 1 11.2-1 9.1-7.1 48.7-7.1 52.8 0 2-1 6.1-1 11.1v3.1c0 23.3 10.1 35.5 11.1 50.7z"/>
	<path id="Layer" class="s0" d="m213.2 365.4c0 31.4 13.2 46.6 13.2 66.9 0 26.4-17.3 40.6-71.1 40.6-53.8 0-71-13.2-71-40.6 0-20.3 13.2-35.5 13.2-66.9v-5.1c0-7.1-1.1-12.2-1.1-14.2 0-5.1-9.1-56.9-10.1-68-1-11.2 2-14.2 2-14.2-4-30.5-2-61.9 7.1-91.4-5-4 6.1-27.4 6.1-27.4 8.1-19.3 18.3-46.7 18.3-46.7 1-6 3-15.2 5.1-25.3 1-15.3 1-31.5 1-35.5 0-4.1-5.1-4.1-5.1-7.2 1-5 3-10.1 4.1-16.2q0-1.5 0-3c0-1.1 0-1.1-1.1-2.1 0-5 4.1-9.1 9.2-9.1h43.6c5.1 0 10.2 5.1 10.2 10.1 0 1.1-1 1.1-1 2.1q0 1.5 0 3c2 5.1 4 10.2 5 15.2 0 3.1-5 2.1-5 7.2 0 5 0 20.2 1 35.5 1 10.1 3 19.3 5.1 25.3 0 0 9.1 27.4 17.2 46.7 0 0 11.2 23.4 6.1 27.4 9.1 29.5 11.2 60.9 7.1 91.4 0 0 4.1 3 2 14.2-2 11.1-10.1 62.9-10.1 68 0 2-1 7.1-1 14.2 0 1 0 3 0 4"/>
	<path id="Layer" fill-rule="evenodd" class="s3" d="m451.7 272h35.5v60.9h68v-60.9h35.6v157.3h-35.6v-65h-68v65h-35.5zm228.4 0c8.1 0 17.2 1 24.3 3 6.1 2.1 11.2 5.1 16.3 9.2 4 3 7.1 8.1 9.1 13.2q3.1 7.6 3.1 15.2c0 5.1-1 9.1-3.1 13.2-2 4-4 7.1-6.1 10.1-2 3.1-5 5.1-8.1 6.1-2 1-4 2.1-7.1 3.1q4.6 1.5 9.1 3c4.1 2 7.1 4.1 10.2 7.1 3 3.1 6.1 7.1 8.1 11.2 2 5.1 4.1 11.1 3.1 16.2 0 7.1-1.1 14.2-4.1 20.3-3 6.1-7.1 10.2-12.2 14.2-6.1 4.1-12.2 6.1-19.3 8.1-8.1 2.1-17.2 2.1-25.3 2.1h-58.9v-155.3zm-3.1 62.9c3.1 0 5.1 0 8.2-1 2-1 5-2 7.1-3 2-1.1 4-3.1 5-5.1 1.1-3.1 2.1-5.1 2.1-8.1 0-3.1-1-6.1-2.1-8.1-1-2.1-3-4.1-5-5.1-2.1-1-4.1-2.1-7.1-3.1-2.1-1-5.1-1-8.2-1h-21.3v34.5zm2.1 67c3 0 6 0 8.1-1q4.5 0 9.1-3.1c3.1-1 5.1-4 7.1-6 2-3.1 3.1-7.1 3.1-11.2 0-4.1-1.1-7.1-2.1-10.2-2-3-4-5-7.1-6q-4.5-1.6-9.1-3.1c-3.1 0-6.1-1-9.1-1h-22.4v40.6zm229.4-2q-4.5 7.6-12.2 12.1c-5 4.1-10.1 7.1-16.2 10.2-6.1 3-12.2 5.1-18.3 7.1-7.1 2-13.2 3-20.3 3-11.1 0-22.3-2-32.5-6.1-9.1-4-18.2-10.1-25.3-17.2-7.1-7.1-13.2-16.2-16.3-26.4-4-10.1-6.1-21.3-6.1-32.5 0-11.1 2.1-22.3 6.1-32.4 4.1-10.2 9.2-19.3 16.3-26.4 7.1-7.1 16.2-13.2 25.3-17.3 10.2-4 21.4-7.1 33.5-6.1 13.2 0 26.4 2.1 38.6 8.1 11.2 5.1 20.3 13.2 27.4 23.4l-24.3 23.3c-4.1-6.1-10.2-12.1-17.3-16.2-7.1-4.1-15.2-6.1-23.3-6.1-6.1 0-13.2 1-19.3 4.1-5.1 2-10.2 6.1-14.2 11.1-4.1 5.1-7.1 10.2-9.2 16.3-2 6.1-3 12.1-3 19.2 0 7.2 1 13.2 3 19.3q3.1 9.2 9.2 15.3c4 4 9.1 8.1 14.2 10.1 6.1 3 12.2 4.1 18.2 4.1 5.1 0 10.2-1.1 15.3-2.1 4-1 7.1-3 11.1-5 3.1-2.1 6.1-4.1 8.2-7.1 3-3.1 5-5.1 7.1-8.2z"/>
</svg>