<svg version="1.2" xmlns="http://www.w3.org/2000/svg" viewBox="0 0 1633 869" width="1633" height="869">
	<title>CC_logo_-_stacked_-_LARGE-svg</title>
	<style>
		.s0 { fill: #01afec } 
		.s1 { fill: #97989a } 
	</style>
	<g id="#01afecff">
		<path id="Layer" class="s0" d="m741.2 6.3c56.2-11.3 115.7-6.2 169 15.1c45.8 18.1 86.8 47.9 118.4 85.6c36.7 43.6 60.5 97.8 67.4 154.3q-36.6 0-73.3 0c-7.2-43.8-27.9-85.2-58.4-117.4c-29.5-31.4-68-54-109.8-64.2c-33.1-8.2-68.1-8.8-101.4-1.7c-34.8 7.4-67.6 23.2-95.2 45.7c-30.6 24.9-54.6 58-68.6 95c-17.2 45-19.3 95.5-6.2 141.7c13.5 48 43.5 91.1 83.7 120.5c38.4 28.4 86.1 44 133.9 43.7c49.5 0.2 98.8-16.8 137.8-47.3c44.7-34.6 75.8-86.4 84.4-142.3c24.4-0.4 48.9-0.1 73.4-0.2c-6 50.3-25.2 98.9-55.1 139.8c-28.8 39.6-67.4 72-111.5 93.2c-51.8 25.1-110.9 34.5-167.8 27c-49-6.2-96.3-25-136.3-54c-43.8-31.6-78.7-75.3-99.8-125c-17.1-40-25.1-83.8-23.6-127.3c1.7-52.6 17.7-104.7 46-149.2c22.6-35.7 52.8-66.5 88.1-89.7c31.7-21 67.6-35.8 104.9-43.3z" />
		<path id="Layer" class="s0" d="m700.7 118.1c28.1-15.6 59.9-24.4 91.9-25.5c30.6-1.2 61.4 4.6 89.4 16.7c37.2 16 69.3 43.3 91.3 77.3c14.7 22.6 24.9 48.2 29.8 74.7c-29.2 0-58.4 0-87.6 0c-7.4-20.9-21.3-39.4-39.2-52.4c-17.9-13.2-39.9-20.8-62.1-21.4c-25.9-1.1-51.8 6-74.1 19c-18.4 10.6-34.6 24.7-49.3 40c-15.8 16.4-30 34.2-43.8 52.3c15 19.9 30.6 39.3 48.2 57c15.9 15.8 33.6 30.2 53.8 40.2c24.2 12 51.9 16.9 78.7 12.9c21.1-3.2 41.1-12.7 57-27c14.3-12.6 25.1-29.1 31.3-47.1q43.7 0 87.3 0c-7.5 43.6-29.7 84.4-61.9 114.5c-35.7 33.9-84 54.2-133.2 55.8c-29.2 1.1-58.6-3.9-85.6-15c-37.7-15.3-70.6-42-93.3-75.8c-16.5-24.4-27.7-52.4-32.5-81.4c-7.3-44-0.2-90.2 20.6-129.6c18.6-35.8 48-65.8 83.3-85.2z" />
		<path id="Layer" class="s0" d="m817.9 223.7c1.4-1 3.4-0.3 4.4 0.9c23.7 23.6 47.2 47.3 70.9 70.9q102.8-0.1 205.7 0q0 3.4 0 6.8c-68.6 0-137.2 0-205.8 0c-23 23.1-46.1 46.1-69.1 69.2c-1.3 1.2-2.5 3-4.5 3.1c-1.8-0.1-3.4-1.7-3.5-3.5c0.2-2.1 2.1-3.3 3.4-4.8q32-32 64-64c-21.2-0.1-42.5 0-63.7 0c-14.3 14.2-28.6 28.6-42.9 42.9c-1.8 1.5-3.2 3.9-5.6 4.6c-3.1 0.7-5.3-3.7-2.9-5.8c13.8-13.9 27.7-27.8 41.6-41.7q-30.3 0-60.7 0q-11 11-22 22.1c-1.1 1.2-2.8 1.9-4.3 1.2c-2.3-0.9-2.7-4.2-1-5.7q8.8-8.8 17.6-17.6c-14.5 0-29 0-43.5 0c-1.9 0.2-3.7-1.3-3.8-3.2c-0.2-2 1.7-3.9 3.7-3.6c14.6-0.1 29.1 0 43.6-0.1c-6-6.1-12.2-12-18.1-18.2c-2.2-2.9 1.8-6.9 4.7-4.7c7.8 7.5 15.4 15.3 23.1 23c20.2 0 40.5 0 60.7-0.1c-13.8-13.9-27.7-27.7-41.5-41.6c-2.1-1.7-1-5.5 1.7-5.9c2.6-0.4 4.1 2.3 5.8 3.8q21.9 21.9 43.7 43.8c21.3-0.1 42.6 0 63.8-0.1c-22-22.1-44.2-44.2-66.2-66.3c-1.7-1.5-1.3-4.4 0.7-5.4z" />
	</g>
	<g id="#97989aff">
		<path id="Layer" class="s1" d="m76.7 688.7c26.2-3.9 53.6 0.8 77.2 12.9c-0.1 14.2 0 28.4 0 42.6q-1.8-0.1-3.5 0c-3.6-11.1-8.8-21.8-16.6-30.5c-6.3-7.2-14.5-12.7-23.7-15.2c-13.2-3.7-28.2-2.4-39.7 5.3c-11.6 7.6-19 20.3-23.1 33.3c-4.2 13.1-5.7 26.9-5.8 40.6c0.2 14.5 1.9 29.2 7 42.9c3.9 10.6 10.1 20.7 19.2 27.7c8.5 6.8 19.4 10.2 30.2 10.4c11.6 0.4 23.5-2.7 32.4-10.4c10.8-9.3 16.6-22.9 20.7-36.3q1.8 0 3.7 0c0 14 0 27.9 0 41.8c-11.1 6.8-23.8 10.7-36.6 12.6c-10.9 1.7-22 2.1-32.9 1.6c-22.7-1.2-44.6-11.6-60.2-28c-8.9-9.4-15.8-20.8-19.9-33.2c-8-24.9-5.3-53.5 8.4-75.9c13.7-22.3 37.6-37.7 63.2-42.2z" />
		<path id="Layer" class="s1" d="m1183.9 687.5c22.6-1.1 45.4 3.7 65.5 14.1c-0.1 14.2 0 28.4 0 42.6q-1.8-0.1-3.5 0c-3.8-11.5-9.2-22.7-17.5-31.6c-6.6-7.1-15.1-12.3-24.5-14.6c-11.2-2.7-23.5-2-33.8 3.4c-9.1 4.6-16.3 12.4-21.1 21.3c-5.6 10-8.7 21.2-10.3 32.5c-2.4 16.1-2.2 32.7 0.7 48.8c2.2 11.3 5.9 22.4 12.4 32c5.1 7.6 12.2 14 20.5 17.9c10.4 4.9 22.5 5.8 33.8 3.8c10.2-1.9 19.5-7.7 25.9-15.8c7-8.7 11.2-19.3 14.5-29.9q1.8 0 3.7 0c0 14 0 27.9 0 41.9c-19.6 11.8-43.1 14.6-65.6 14.3c-24.8-0.3-49.2-11.6-65.8-30c-14.2-15.7-22.3-36.6-22.6-57.8c-0.3-15.6 2.9-31.4 10.3-45.2c15-28 45.8-46.5 77.4-47.7z" />
		<path id="Layer" class="s1" d="m301.5 687.8c14.7-0.1 29.4 0 44.1 0q0 89.1 0 178.2c-10.5 0.1-21 0-31.5 0.1c-0.2-46.3-0.1-92.5-0.1-138.7c-0.1-8.4 0.6-17.1-2.2-25.2c-1.5-5-5.2-9.4-10.3-10.7q0-1.9 0-3.7z" />
		<path id="Layer" fill-rule="evenodd" class="s1" d="m706 687.8q22.1-0.1 44.2 0q0 36.7 0 73.3c7.3-10.5 19.7-17.1 32.4-17.7c10-0.4 20.1 1.9 28.7 7c9.1 5.3 15.9 14.1 19.7 23.9c5.1 13 5.9 27.4 3.8 41.1c-2 13.1-7.8 26-17.3 35.5c-7.8 7.8-18.1 13-28.9 15.4c-10.7 2.4-22 2.8-32.8 0.7c-10.5-2.1-20.7-7.1-27.7-15.3c-5.6-6.5-8.8-14.8-9.5-23.2c-0.2-4.9-0.2-9.7-0.2-14.5c-0.2-29.8-0.2-59.5-0.1-89.3c0-8.2 0.8-16.7-2.6-24.4c-1.7-4.2-5.2-7.7-9.6-8.8q-0.1-1.9-0.1-3.7zm66.8 67.5c-13 3.8-22 17.1-22.2 30.4c-0.3 14.8-0.9 29.6 0.1 44.3c0.5 6.9 1.4 14.1 5.1 20.1c2.6 4.3 7 7.3 11.8 8.4c5.6 1.2 11.7 1.1 16.8-1.7c5.6-3.1 9.3-8.7 11.8-14.5c4.3-10.4 5.7-21.8 6.1-33.1c0.2-12.7-0.2-25.7-4.6-37.8c-1.8-4.7-4.4-9.3-8.3-12.5c-4.6-3.8-10.9-5.1-16.6-3.6z" />
		<path id="Layer" class="s1" d="m869.4 699.5c4.6-0.9 9.6-0.5 13.7 1.9c5.2 3.1 8.4 9.2 8.5 15.3c-0.1 5.2-2.7 10.3-6.8 13.6c-7.6 6.2-20.6 4.4-25.8-4.2c-4.5-6.6-3.5-16 1.9-21.8c2.2-2.4 5.3-4.1 8.5-4.8z" />
		<path id="Layer" fill-rule="evenodd" class="s1" d="m225 743.8c14-1.6 28.4 1.8 40.5 8.8c9.1 5.3 16.8 13.2 21.4 22.7c5.7 11.5 7.2 24.7 6.3 37.4c-0.9 11.7-4.7 23.5-12.1 32.7c-8.4 10.8-21 17.7-34.1 20.9c-10.4 2.7-21.5 2.4-31.8-0.4c-12.6-3.2-24.6-10-32.5-20.5c-7.4-9.3-11-21.1-11.8-32.9c-0.8-12 0.4-24.5 5.4-35.7c3.8-8.7 10.1-16.2 17.9-21.7c9-6.3 19.9-10 30.8-11.3zm0.8 8.9c-7.8 1.9-13.3 8.6-16.3 15.7c-5.2 12.7-5.6 26.7-5.5 40.2c0.2 11.5 1.3 23.3 5.6 34c2.1 4.9 5 9.6 9.2 12.9c6.2 4.8 14.9 5.5 22 2.6c5.7-2.5 9.8-7.6 12.5-13c4.7-10.1 6.1-21.4 6.7-32.4c0.4-13.4 0.2-27.2-3.9-40.1c-2.1-6.3-5.4-12.5-10.8-16.6c-5.5-4-12.9-4.9-19.5-3.3z" />
		<path id="Layer" class="s1" d="m577.4 743.8c6.2-0.7 12.6-0.9 18.6 1c9.9 3.1 17.8 11.2 21.6 20.7c4.4-8.4 11.6-15.4 20.5-18.8c7.3-2.9 15.3-3.7 23-3.2c7.8 0.6 15.6 3.5 20.9 9.3c7.3 7.7 9.8 18.7 9.9 29c0 28.1 0 56.1 0 84.2q-15.7 0-31.5 0c-0.1-28.1-0.3-56.2-0.1-84.2c-0.2-5.5-1.3-11.1-4.1-15.9c-2-3.6-5.3-6.5-9.4-7.3c-6.4-1.3-13.3 1-17.8 5.8c-5.3 5.7-7.8 13.5-8.5 21.2c-0.5 26.8-0.2 53.6-0.4 80.4c-10.5 0-21.1 0.1-31.6 0c0.1-27 0-53.9 0-80.9c0-6.1-0.7-12.4-3.4-17.9c-1.9-3.8-5.1-7.1-9.3-8.3c-5.8-1.7-12.3 0.1-16.9 3.9c-5.4 4.3-8.5 10.9-9.7 17.7c-0.9 5-0.6 10.2-0.7 15.4c0 23.4 0 46.7 0 70.1q-15.8 0-31.6 0c0-28.3 0-56.6 0-84.9c0-7.5 0.1-15.2-2.6-22.3c-1.6-4.5-5.2-8.3-10-9.6q0-1.8 0-3.7q22.1 0 44.2 0c0 4.8-0.1 9.6 0 14.4c3.4-2.7 6.1-6.1 9.7-8.5c5.6-4.2 12.3-6.7 19.2-7.6z" />
		<path id="Layer" fill-rule="evenodd" class="s1" d="m952.5 745c9.9-2.1 20.4-2.7 30 0.5c6.2 2 11.5 5.8 15.9 10.5q15.5-5.2 31-10.5q0 50.7-0.1 101.4c0 6.5 1.1 12.9 3 19.2q-16.2 0-32.5-0.1q-0.3-9-0.6-18.1c-5.2 8.9-13.7 15.9-23.7 18.6c-11.3 3.1-23.7 1.8-34.3-3c-9.6-4.4-17.2-12.5-21.6-22c-6.5-14.1-9.3-30-7.1-45.4c1.5-10.6 5.1-21 10.7-30.2c6.4-10.6 17.2-18.3 29.3-20.9zm13.6 10.3c-7.8 1.7-12.9 8.8-15.6 15.9c-3.5 9.6-4.5 19.9-4.9 30c-0.4 12.3 0.1 24.8 3.8 36.5c2.1 6.5 5.6 13.1 11.6 16.6c7.5 4.5 17.5 3.1 23.9-2.5c8.7-7.5 12.2-19.3 12.5-30.5c0.1-11.4 0.1-22.8 0.1-34.2c0-6.1-0.9-12.4-3.6-18c-2.3-4.9-6.2-9.2-11.1-11.7c-5.1-2.5-11.1-3.3-16.7-2.1z" />
		<path id="Layer" fill-rule="evenodd" class="s1" d="m1289 753.3c10.3-8 23.8-10.4 36.6-9.9c10.3 0.4 20.4 4.9 27.3 12.6q15.5-5.2 31-10.5c0 33.8-0.1 67.6-0.1 101.4c0 6.5 1.1 12.9 3 19.2c-10.8-0.1-21.7 0-32.5-0.1c-0.2-6-0.4-12.1-0.6-18.1c-4.8 8.1-12.3 14.8-21.3 17.9c-10.6 3.7-22.5 2.9-33-0.8c-10.5-3.7-19.2-11.6-24.3-21.5c-9.4-18.6-11.7-40.9-5-60.8c3.6-11.2 9.3-22.2 18.9-29.4zm31.5 2c-4.6 1.1-8.6 4.2-11.3 8c-3.8 5.3-5.7 11.6-7 17.9c-2.2 11.2-2.5 22.8-2 34.2c0.6 10 2 20.3 6.7 29.4c2.4 4.5 6 8.6 10.8 10.7c6.7 2.8 14.7 1.6 20.5-2.8c7-5.2 10.9-13.5 12.7-21.9c1.4-6.8 1-13.9 1.1-20.8c-0.1-8.7 0.1-17.5-0.1-26.2c-0.4-9.4-4-19.5-12.2-24.9c-5.5-3.7-12.7-5-19.2-3.6z" />
		<path id="Layer" class="s1" d="m1464.3 745.9c9.9-4.3 21.1-2.9 31 0.7c-2.4 7-4.7 14-7.1 20.9c-6.4-2.6-13.3-4.6-20.3-4.3c-8.4 0.6-15.8 6.5-19.5 13.9c-1.3 2.4-1.7 5.3-1.6 8c0.3 27 0.9 54 1.4 80.9q-15.9 0-31.7 0c0-29.8 0-59.7 0-89.6c0-5.6-0.4-11.4-2.3-16.7c-1.6-4.8-5.2-9-10.2-10.4q0-1.8 0-3.7q21.1 0 42.1 0q0.2 10.3 0.4 20.5c4-8.1 9.2-16.4 17.8-20.2z" />
		<path id="Layer" fill-rule="evenodd" class="s1" d="m1528.2 746.8c10.9-3.8 22.8-4.4 34.1-2.3c10.7 2.1 20.7 8.3 26.9 17.4c8.6 12.5 10.9 28.1 11.4 42.9q-37.4 0.4-74.9 0.7c0.1 9.4 1 18.9 4 27.9c2.4 7.4 6.6 14.6 13.3 18.9c7.2 4.5 16.3 4.8 24.3 2.8c9.8-2.5 18.3-9.2 23.7-17.6q2.7 2.3 5.5 4.6c-5.3 10.6-15.1 18.6-26.2 22.6c-10.6 3.8-22.3 4.5-33.3 2.3c-12.6-2.5-24.1-9.7-31.9-19.8c-11-14.4-15-33.5-12.5-51.3c1.7-11.4 5.6-22.6 12.5-31.9c5.8-7.8 13.9-14 23.1-17.2zm9.4 14.7c-4 2.9-6.7 7.2-8.4 11.7c-2.2 5.6-2.9 11.7-3.4 17.8c15 0 29.9 0 44.9 0c-0.3-7.8-0.8-16-4.5-23.1c-2.2-4.3-6.1-7.8-10.9-9.1c-5.9-1.5-12.6-0.8-17.7 2.7z" />
		<path id="Layer" class="s1" d="m1601.3 744.3q6.2 0 12.4 0q0 1.4 0 2.9q-2.1 0-4.2 0c-0.1 3.6 0 7.3 0 11q-2 0-3.9 0c0-3.7 0-7.4 0-11q-2.2 0-4.3 0q0-1.5 0-2.9z" />
		<path id="Layer" class="s1" d="m1616.6 744.3q2.5 0 5 0c1.1 2.8 2.1 5.6 3.2 8.4q1.6-4.2 3.1-8.4q2.5 0 5.1 0q0 6.9 0 13.9q-1.8 0-3.4 0c-0.1-3.2 0-6.4-0.1-9.6c-1.7 3-2.5 6.5-3.9 9.6c-0.4 0-1.2 0-1.6 0c-1.3-3.5-2.6-6.9-4-10.3c0 3.4 0 6.9 0 10.3q-1.7 0-3.4 0q-0.1-7 0-13.9z" />
		<path id="Layer" class="s1" d="m367.3 745.6q22.1-0.1 44.1 0c0.1 27.7 0 55.4 0 83.1c0.2 6.9 1.2 14.4 5.7 19.9c4.7 5.6 13.3 6.5 19.7 3.5c6.9-3.3 11.4-10.2 13.4-17.4c1.3-4.3 1.1-8.9 1.1-13.3c0-12.8 0-25.6 0-38.3c0-8.2 0.4-16.7-2.7-24.4c-1.6-4.5-5.2-8.2-9.8-9.4q0-1.9 0-3.7q22-0.1 44.1 0q0 44.2 0 88.5c-0.1 10.7 0.2 21.6 3.3 32q-17.5 0-34.9 0q0-7.3 0-14.5c-6.1 8.7-16.1 14.2-26.5 15.9c-8.7 1.4-18 1.2-26.1-2.6c-7.3-3.3-12.8-9.9-15.6-17.3c-2.5-6.2-3.4-12.9-3.4-19.6q0-20.4 0.1-40.9c-0.1-5.7 0.2-11.5-0.2-17.2c-0.5-5.6-1.6-11.6-5.2-16.1c-1.8-2.3-4.4-3.7-7.1-4.5q0-1.9 0-3.7z" />
		<path id="Layer" class="s1" d="m846.6 745.7q22.1 0 44.2 0q0 60.2 0 120.4q-15.8 0-31.6 0q0-40.8 0-81.6c-0.1-7.9 0.4-16-1.9-23.6c-1.5-5.3-5.2-10.1-10.7-11.5q0-1.9 0-3.7z" />
	</g>
</svg>