<svg version="1.2" baseProfile="tiny-ps" xmlns="http://www.w3.org/2000/svg" viewBox="0 0 1750 1003" width="1750" height="1003">
	<title>crown c-svg</title>
	<style>
		tspan { white-space:pre }
		.shp0 { fill: #5a6771 } 
	</style>
	<g id="1.0-Direction">
		<g id="Our-Expertise">
			<g id="Navigation">
				<g id="Group-11">
					<g id="Logo-Desktop">
						<path id="shape" fill-rule="evenodd" class="shp0" d="M1387.13 880.61C1291.15 880.61 1199.63 844.52 1129.39 778.99C1104.9 756.12 1066.57 757.46 1043.76 782.06C1020.95 806.61 1022.34 845.05 1046.83 867.92C1139.54 954.46 1260.39 1002.12 1387.13 1002.12C1515.16 1002.12 1636.91 953.64 1729.96 865.52C1754.31 842.5 1755.41 804.02 1732.46 779.66C1709.46 755.25 1671.12 754.15 1646.78 777.16C1576.3 843.85 1484.11 880.61 1387.13 880.61ZM1646.01 230C1650.46 234.42 1655.49 238.03 1660.81 240.77C1684.19 252.87 1714.19 249.56 1733.26 230.05C1756.69 206.07 1754.73 166.77 1730.87 143.28C1636.9 50.88 1512.7 0 1381.08 0C1251.37 0 1128.47 49.63 1034.93 139.72C942.17 229.14 887.93 349.11 882.08 477.73L875.57 543.22C854.34 735.41 692.72 880.27 499.57 880.27C290.95 880.27 121.23 710.09 121.23 500.89C121.23 291.7 290.95 121.51 499.57 121.51C599.24 121.51 693.29 160.05 764.45 230C788.36 253.55 826.74 253.16 850.17 229.19C873.6 205.26 873.22 166.77 849.31 143.28C755.39 50.88 631.15 0 499.57 0C432.15 0 366.7 13.26 305.08 39.4C245.62 64.62 192.19 100.71 146.34 146.69C100.48 192.67 64.45 246.24 39.29 305.92C13.22 367.71 0 433.29 0 500.89C0 568.5 13.22 634.08 39.29 695.87C64.45 755.54 100.48 809.12 146.34 855.1C192.19 901.08 245.62 937.16 305.08 962.44C366.7 988.57 432.15 1001.79 499.57 1001.79C623.34 1001.79 742.12 956.05 833.98 873.02C925.11 790.57 982.71 678.09 996.08 556.24L1002.83 488.06L1003.07 484.61C1011.6 281.03 1177.68 121.51 1381.08 121.51C1480.74 121.51 1574.85 160.05 1646.01 230Z" />
					</g>
				</g>
			</g>
		</g>
	</g>
</svg>