<svg version="1.2" xmlns="http://www.w3.org/2000/svg" viewBox="0 0 1566 410" width="1566" height="410">
	<title>ic_logo-svg</title>
	<defs>
		<clipPath clipPathUnits="userSpaceOnUse" id="cp1">
			<path d="m522.67 10.48h1043.12v383.4h-1043.12z"/>
		</clipPath>
		<linearGradient id="g1" x1="317.2" y1="58.3" x2="417.5" y2="118.4" gradientUnits="userSpaceOnUse">
			<stop offset="0" stop-color="#d7282f"/>
			<stop offset="1" stop-color="#811a1f"/>
		</linearGradient>
		<linearGradient id="g2" x1="166.5" y1="39.8" x2="28.8" y2="173.9" gradientUnits="userSpaceOnUse">
			<stop offset="0" stop-color="#6f1605"/>
			<stop offset="1" stop-color="#e83f1e"/>
		</linearGradient>
		<linearGradient id="g3" x1="296.6" y1="310.5" x2="429.2" y2="276.9" gradientUnits="userSpaceOnUse">
			<stop offset="0" stop-color="#474f8b"/>
			<stop offset="1" stop-color="#c6cae5"/>
		</linearGradient>
	</defs>
	<style>
		.s0 { fill: #444f8b } 
		.s1 { fill: url(#g1) } 
		.s2 { fill: url(#g2) } 
		.s3 { fill: url(#g3) } 
	</style>
	<g id="Group_99">
		<g id="Clip-Path: Group_8" clip-path="url(#cp1)">
			<g id="Group_8">
				<path id="Path_9" class="s0" d="m1565.8 211.2q-0.3 0.3-0.6 0.6-0.3 0.3-0.6 0.6-0.3 0.4-0.6 0.7-0.3 0.4-0.5 0.7-28.5 45.5-56.8 91.1-0.4 0.7-0.8 1.4-0.3 0.8-0.5 1.5-0.2 0.8-0.4 1.6-0.1 0.8-0.1 1.7c-0.2 19.3-0.1 38.7-0.1 58v3.5h-26.1c-0.1-1.1-0.2-2.4-0.2-3.7 0-19-0.1-38 0-57q0-1.1-0.1-2.1-0.2-1-0.4-2-0.3-1-0.8-2-0.4-0.9-1-1.8-28.7-44.9-57.2-89.9c-0.6-1-1.2-1.9-2.1-3.5h4.2c7.6 0 15.3 0.1 22.9-0.1q0.8-0.1 1.6 0.1 0.8 0.2 1.5 0.6 0.7 0.4 1.3 1 0.5 0.6 0.9 1.4 20.5 34.3 41.3 68.6c0.5 1 1.2 1.8 2.1 3.2 2.7-4.6 5.2-8.8 7.6-13 11.3-19.5 22.6-39 33.8-58.6q0.4-0.8 1-1.5 0.6-0.7 1.4-1.1 0.7-0.4 1.6-0.6 0.9-0.2 1.8-0.1c8.6 0.2 17.2 0 25.8 0z"/>
				<path id="Path_10" class="s0" d="m1016.8 372.7h-26v-161.8c1-0.1 1.9-0.3 2.9-0.3q1.3 0.1 2.6 0.1 1.3 0 2.6 0 1.3 0 2.6-0.1 1.3 0 2.6-0.1 2.4-0.4 4.8-0.1 2.4 0.4 4.6 1.5 2.1 1 3.8 2.7 1.8 1.7 2.9 3.9c24.7 34.9 50 69.5 75.1 104.2q0.2 0.4 0.5 0.8 0.3 0.3 0.7 0.6 0.3 0.3 0.7 0.5 0.4 0.2 0.8 0.4v-114.1h25.7c0 1.1 0.1 2.2 0.1 3.2q0 77.1 0 154.1c0 4.6 0 4.6-4.5 4.6-4.4 0-8.9-0.1-13.4 0.1q-0.7 0.1-1.4-0.1-0.8-0.1-1.4-0.4-0.7-0.3-1.3-0.8-0.5-0.5-0.9-1.1c-17-22.7-34.2-45.2-51.1-67.8-10.5-14-20.7-28.2-31-42.2-0.5-0.7-0.9-1.3-2-2.5z"/>
				<path id="Path_11" fill-rule="evenodd" class="s0" d="m1382.1 294.4c2.3 0.5 3.9 0.8 5.5 1.2 3.6 0.6 6.9 1.8 10 3.6 3.1 1.8 5.8 4.2 8 7 2.2 2.8 3.9 6 4.9 9.4 1.1 3.4 1.5 7 1.2 10.6 0.1 7.1 0 14.3 0.1 21.5q-0.1 2.2 0.4 4.3 0.4 2.2 1.3 4.1 1 2 2.4 3.7 1.3 1.7 3.1 3 0.3 0.2 0.5 0.5 0.3 0.3 0.4 0.6 0.2 0.3 0.3 0.6 0.2 0.4 0.2 0.7c0.2 2.7 0.1 5.3 0.1 8q-2.7 0.2-5.4 0.2-2.6 0.1-5.3 0.1-2.7-0.1-5.3-0.2-2.7-0.1-5.3-0.2c-1.6-0.2-3.2-0.7-4.7-1.4-1.4-0.7-2.7-1.6-3.8-2.8-1.2-1.2-2.1-2.5-2.8-4-0.6-1.4-1.1-3-1.2-4.6-1.2-7.9-1.3-16-1.9-24-0.3-5.1-0.3-10.3-1-15.4-0.2-1.7-0.6-3.3-1.3-4.9-0.7-1.6-1.6-3-2.8-4.3-1.1-1.3-2.5-2.3-4-3.2-1.4-0.9-3.1-1.5-4.7-1.8q-1.3-0.4-2.6-0.7-1.2-0.2-2.5-0.4-1.3-0.2-2.6-0.3-1.3-0.1-2.6-0.2c-14.2-0.1-28.4 0-42.7 0-0.6 0-1.3 0-2.3 0.1v67.5h-26.4v-161.9c1.1-0.1 2.2-0.2 3.3-0.2 23.4 0 46.8 0 70.1 0.1q3.5 0 6.9 0.4 3.4 0.3 6.8 1 3.4 0.7 6.6 1.8 3.3 1 6.5 2.4c3.3 1.4 6.5 3.2 9.3 5.5 2.8 2.4 5.3 5.1 7.3 8.1 2 3.1 3.6 6.4 4.6 9.9 1.1 3.5 1.6 7.1 1.5 10.7q0.1 2.2 0.1 4.4 0 2.2-0.1 4.3-0.1 2.2-0.3 4.4-0.3 2.1-0.6 4.3c-0.6 3.1-1.6 6.1-3 8.9-1.5 2.7-3.4 5.3-5.6 7.5-2.2 2.2-4.7 4.1-7.5 5.6-2.8 1.4-5.8 2.5-8.9 3-0.9 0.3-1.9 0.5-2.9 0.8q-0.2 0.1-0.3 0.2-0.2 0-0.4 0.1-0.2 0.1-0.3 0.2c-0.1 0.1-0.2 0.2-0.3 0.2zm-66.4-10c16.3 0 32.4 0.6 48.3-0.2 2.5 0.1 5-0.3 7.4-1.1 2.3-0.8 4.5-2 6.4-3.6 1.9-1.6 3.5-3.5 4.7-5.7 1.2-2.2 1.9-4.6 2.3-7.1q0.1-1.5 0.3-3.1 0.1-1.6 0.1-3.2 0-1.6 0-3.2 0-1.6-0.1-3.2c0.1-2-0.1-4-0.7-6-0.5-1.9-1.4-3.7-2.6-5.4-1.2-1.6-2.6-3-4.3-4.2-1.6-1.2-3.5-2-5.4-2.6q-1.3-0.4-2.7-0.7-1.3-0.4-2.7-0.6-1.3-0.2-2.7-0.4-1.4-0.1-2.7-0.1c-14-0.3-28-0.1-42-0.1-1.2 0-2.4 0.1-3.6 0.2z"/>
				<path id="Path_12" fill-rule="evenodd" class="s0" d="m816.3 178.7c-7.1 0-13.7 0.5-20.3-0.1q-2.2-0.2-4.4-1-2.1-0.9-3.9-2.4-1.7-1.4-3-3.4-1.2-1.9-1.8-4.1-0.8-2.9-1.3-5.8-0.5-2.9-0.8-5.9-0.4-2.9-0.5-5.9-0.1-3 0-5.9c-0.4-6.5-0.4-13-1.3-19.4q-0.3-2.3-1.3-4.4-1-2.1-2.6-3.8-1.6-1.7-3.6-2.9-2.1-1.1-4.3-1.6-1.2-0.4-2.4-0.7-1.3-0.3-2.5-0.5-1.2-0.2-2.5-0.3-1.2-0.2-2.5-0.2c-14.5-0.2-29.1-0.1-43.6-0.1-0.7 0-1.3 0.1-2.3 0.2-0.1 1.5-0.2 2.8-0.2 4.3 0 19.7-0.1 39.4 0 59.1 0 3.2-0.7 4.4-4.2 4.3-7.3-0.3-14.5-0.1-22.1-0.1-0.1-1.6-0.3-2.9-0.3-4.2q0-76.8 0-153.7c0-4.4 0-4.4 4.4-4.4 23.6 0 47.3-0.1 70.9 0.2q4.2 0 8.3 0.5 4.2 0.6 8.2 1.7 4.1 1.2 7.9 2.9 3.8 1.7 7.4 4 3.5 2.3 6.4 5.3 2.9 3.1 5 6.8 2.1 3.6 3.2 7.7 1.1 4.1 1.2 8.3 0.2 2.7 0.3 5.4 0 2.7-0.1 5.4-0.1 2.7-0.4 5.4-0.3 2.7-0.7 5.4c-0.7 3-1.8 5.8-3.3 8.4-1.5 2.6-3.3 4.9-5.5 7-2.2 2.1-4.7 3.8-7.4 5.2-2.6 1.3-5.5 2.3-8.5 2.8-1.2 0.3-2.5 0.6-4.5 1.2 4.1 1 7.5 1.7 10.8 2.8 2.6 0.9 5.2 2.1 7.4 3.8 2.3 1.6 4.3 3.6 6 5.8 1.7 2.3 3 4.8 3.9 7.4 0.9 2.7 1.4 5.5 1.4 8.3 0.4 8.1 0.6 16.3 0.6 24.4q-0.2 2.4 0.3 4.7 0.4 2.3 1.3 4.5 1 2.1 2.5 3.9 1.5 1.9 3.4 3.3 0.3 0.2 0.5 0.5 0.2 0.2 0.4 0.5 0.1 0.4 0.2 0.7 0.1 0.3 0.2 0.7c0.1 2.5 0 5.1 0 8zm-104.9-88.9h4.1c11.7 0 23.5 0 35.2 0q1.5 0 3 0 1.4-0.1 2.9-0.2 1.4-0.1 2.9-0.2 1.5-0.1 2.9-0.3c2.3-0.2 4.4-0.8 6.5-1.7 2-1 3.9-2.2 5.5-3.8 1.6-1.5 2.9-3.4 3.9-5.4 1-2 1.7-4.2 2-6.4q0.2-2.1 0.3-4.2 0.1-2.1 0.1-4.3 0-2.1-0.1-4.2-0.1-2.1-0.3-4.3-0.2-1.6-0.8-3.1-0.5-1.6-1.4-3-0.8-1.4-2-2.6-1.1-1.2-2.5-2.1-1.6-1.2-3.4-2.1-1.8-0.9-3.7-1.5-2-0.6-4-0.9-1.9-0.3-4-0.3c-15-0.2-30-0.1-45 0q-0.2 0-0.5 0-0.3 0-0.5 0.1-0.3 0-0.6 0-0.2 0.1-0.5 0.1z"/>
				<path id="Path_13" fill-rule="evenodd" class="s0" d="m818.4 291.7c-0.5 10.1-0.3 20.2-1.6 30.1-0.9 6.7-2.9 13.1-5.8 19.2-2.9 6-6.8 11.6-11.4 16.4-4.7 4.9-10.1 9-16 12.2-5.9 3.2-12.3 5.4-18.9 6.7q-6.7 1.4-13.5 1.7-6.8 0.4-13.6-0.5-6.8-0.8-13.4-2.8-6.5-2-12.7-5.1c-4.3-2.2-8.4-5-12.2-8.2-3.7-3.2-7-6.9-9.9-10.9-2.9-4-5.3-8.3-7.2-12.9-1.9-4.5-3.2-9.3-4-14.1q-0.3-2.3-0.6-4.5-0.3-2.3-0.5-4.5-0.1-2.3-0.2-4.5-0.1-2.3 0-4.5c0-13.7-0.3-27.4 0.7-40.9 0.6-6.9 2.2-13.6 4.9-19.9 2.8-6.3 6.5-12.1 11-17.2 4.6-5.2 10-9.5 15.9-12.9 6-3.4 12.5-5.9 19.2-7.2 4.8-1.2 9.8-2 14.8-2.2 5-0.3 10 0 15 0.7 5 0.7 9.8 1.8 14.6 3.4 4.7 1.7 9.3 3.7 13.6 6.2 4.1 2.4 8 5.2 11.4 8.5 3.4 3.2 6.5 6.8 9.1 10.8 2.6 4 4.8 8.2 6.4 12.6 1.6 4.5 2.7 9.1 3.3 13.8 1.4 10 1.1 20.3 1.6 30.5zm-27.4-21.6q-0.1-4.4-1-8.6-1-4.2-2.8-8.2-1.8-3.9-4.4-7.4-2.6-3.5-5.8-6.4-2.8-2.3-5.9-4.2-3.2-1.8-6.6-3.1-3.4-1.3-7-2-3.6-0.6-7.3-0.7-4-0.4-8.1 0-4.1 0.4-8 1.5-3.9 1.1-7.6 2.8-3.6 1.8-6.9 4.2c-2.6 2.2-5 4.6-7.1 7.3-2.1 2.7-3.8 5.6-5.2 8.7-1.4 3.1-2.4 6.3-3 9.6-0.7 3.4-0.9 6.7-0.8 10.1-0.2 11.9 0.7 44.3 1.7 48.5 2.7 9.5 8.6 17.8 16.7 23.5 8.1 5.7 17.8 8.6 27.7 8 9.9-0.5 19.3-4.4 26.7-10.9 7.4-6.6 12.3-15.5 14-25.2z"/>
				<path id="Path_14" fill-rule="evenodd" class="s0" d="m826.5 94.6c0.6-8.9 0.5-20.1 2.3-30.9 1.1-6.3 3.1-12.3 6-17.9 2.9-5.7 6.6-10.8 11-15.3 4.4-4.6 9.5-8.4 15.1-11.4 5.5-3.1 11.5-5.2 17.7-6.5q7.2-1.7 14.5-2.2 7.4-0.4 14.7 0.6 7.3 0.9 14.3 3.2 7 2.3 13.5 5.8c4.5 2.4 8.7 5.3 12.4 8.8 3.8 3.4 7.1 7.4 9.8 11.7 2.8 4.3 5 8.9 6.6 13.8 1.6 4.8 2.5 9.8 2.8 14.9q0.6 7 0.8 14 0.3 7 0.3 14 0 7-0.3 14-0.2 7-0.8 14c-0.7 6.8-2.5 13.5-5.3 19.8-2.9 6.3-6.7 12-11.4 17.1-4.7 5-10.2 9.3-16.3 12.6-6 3.3-12.6 5.6-19.4 6.8q-6.1 1.3-12.4 1.7-6.3 0.3-12.6-0.3-6.3-0.6-12.4-2.2-6.1-1.5-11.9-4c-5-2.2-9.7-5-14-8.4-4.3-3.4-8.1-7.3-11.4-11.7-3.3-4.4-5.9-9.2-8-14.2-2-5.1-3.3-10.4-3.9-15.9-1.5-9.8-1.1-19.8-1.7-31.9zm27.5 23.6c0 3.4 0.5 6.8 1.3 10.2 0.9 3.3 2.2 6.5 3.9 9.5 1.7 3 3.7 5.8 6.1 8.3 2.3 2.5 5 4.7 7.9 6.6q3.1 1.7 6.4 3 3.4 1.3 6.8 2.1 3.5 0.8 7.1 1.1 3.5 0.3 7.1 0c5 0 10-0.9 14.7-2.7 4.7-1.8 9-4.5 12.6-7.9 3.7-3.4 6.8-7.5 8.9-12 2.2-4.6 3.5-9.5 3.9-14.5q0.4-6.3 0.6-12.6 0.2-6.3 0.2-12.7 0-6.3-0.2-12.6-0.3-6.3-0.7-12.7c-0.1-3.4-0.8-6.9-1.9-10.2-1.1-3.3-2.7-6.4-4.7-9.3-2-2.8-4.3-5.4-7.1-7.6-2.7-2.2-5.7-4-8.9-5.4q-3.1-1.4-6.4-2.3-3.2-0.9-6.6-1.4-3.4-0.5-6.8-0.5-3.4-0.1-6.7 0.4c-4.6 0.3-9.1 1.4-13.3 3.2-4.3 1.8-8.1 4.4-11.4 7.6-3.4 3.1-6.1 6.9-8.2 11-2 4.1-3.4 8.5-3.9 13.1z"/>
				<path id="Path_15" class="s0" d="m1273.4 42.3l-18.2 15.9c-4.3-3.8-8.1-7.9-12.5-11.2-4.2-3.4-8.7-6.1-13.6-8.2-4.9-2-10-3.4-15.3-4-5.2-0.6-10.6-0.5-15.8 0.4-5.2 0.9-10.3 2.5-15 4.8q-2 0.8-3.8 2.1-1.7 1.2-3.2 2.8-1.4 1.6-2.5 3.5-1 1.9-1.7 3.9-0.6 2-0.7 4.1-0.1 2.1 0.5 4.1 0.5 2 1.5 3.7 1.1 1.8 2.6 3.2 1.8 1.7 3.7 3.2 2 1.4 4.1 2.6 2.1 1.2 4.3 2.2 2.3 0.9 4.6 1.6c13.8 4.6 27.8 8.6 41.4 13.5q2.7 1 5.3 2.1 2.6 1.1 5.2 2.4 2.5 1.2 5 2.6 2.5 1.4 4.9 2.9c4.1 2.4 7.7 5.5 10.6 9.2 2.9 3.7 5.2 7.9 6.6 12.4 1.3 4.5 1.9 9.3 1.6 14-0.4 4.7-1.6 9.3-3.6 13.6-1.4 3.5-3.2 6.9-5.4 10-2.2 3.1-4.8 6-7.7 8.5-2.8 2.5-6 4.7-9.4 6.5-3.3 1.7-6.9 3.1-10.6 4.1-7 2.2-14.3 3.6-21.6 4.2-7.4 0.5-14.7 0.2-22-1-7.3-1.1-14.4-3.2-21.2-6-6.8-2.9-13.2-6.5-19.1-10.9-4.7-3.2-9.1-6.8-14-10.4l17.2-20.1c2.6 2.1 5.1 4 7.7 6q4.3 3.7 9.1 6.7 4.8 3 10 5.3 5.2 2.3 10.6 3.8 5.5 1.5 11.1 2.2 3.8 0.7 7.6 0.7 3.8 0.1 7.6-0.4 3.8-0.4 7.5-1.5 3.7-1 7.2-2.6c2.1-1 4-2.4 5.6-4.1 1.7-1.6 3.1-3.6 4.1-5.7 1-2.1 1.7-4.4 2-6.7 0.2-2.4 0.1-4.7-0.4-7q-0.3-1.5-0.9-2.9-0.6-1.4-1.5-2.6-0.8-1.3-1.9-2.4-1-1.1-2.2-2-2.4-1.7-5-3.2-2.6-1.5-5.3-2.7-2.7-1.2-5.5-2.2-2.9-1-5.7-1.7c-13.5-4.1-27.1-7.8-40.4-12.2q-2.9-0.9-5.6-2.1-2.7-1.2-5.3-2.7-2.6-1.5-5-3.3-2.4-1.7-4.6-3.7c-3.1-3-5.6-6.5-7.6-10.3-2-3.8-3.3-7.9-4-12.1-0.6-4.3-0.6-8.6 0.1-12.8 0.7-4.2 2.1-8.3 4.1-12.1 1.8-3.4 3.9-6.5 6.3-9.5 2.5-2.9 5.3-5.5 8.3-7.8 3-2.3 6.3-4.3 9.8-5.8 3.5-1.6 7.2-2.7 10.9-3.5 6.4-1.9 13-3 19.6-3.4 6.7-0.3 13.3 0.1 19.9 1.3 6.6 1.2 12.9 3.2 19 5.9 6.1 2.7 11.9 6.1 17.2 10.1q1.1 1 2.2 1.9 1.1 1 2.1 2 1.1 1.1 2.1 2.1 1 1.1 2 2.2c1.8 1.9 3.3 4.2 5 6.5z"/>
				<path id="Path_16" class="s0" d="m1118.7 42.4l-18.4 16.1c-1.3-1.3-2.5-2.6-3.6-3.9-2.8-3.1-5.9-5.9-9.2-8.3-3.3-2.5-6.9-4.6-10.7-6.3-3.7-1.8-7.7-3.1-11.7-4-4.1-0.9-8.2-1.3-12.3-1.4q-3.6-0.1-7.2 0.2-3.5 0.4-7 1.3-3.4 0.9-6.7 2.3-3.3 1.4-6.3 3.3-0.7 0.5-1.4 1-0.6 0.5-1.3 1-0.6 0.6-1.2 1.2-0.6 0.6-1.1 1.2c-1.5 1.6-2.6 3.5-3.3 5.6-0.7 2.1-1 4.3-0.8 6.5 0.3 2.2 0.9 4.3 2 6.2 1.1 1.9 2.6 3.5 4.4 4.8q2.5 1.8 5.2 3.4 2.7 1.5 5.5 2.9 2.8 1.3 5.7 2.3 2.9 1.1 5.9 1.9c13.2 4.3 26.4 8.3 39.5 12.9q2.9 1 5.7 2.3 2.8 1.3 5.5 2.9 2.7 1.6 5.2 3.5 2.5 1.8 4.8 3.9c3.1 2.9 5.7 6.3 7.7 10 2 3.8 3.4 7.9 4.1 12.1 0.7 4.2 0.8 8.4 0.1 12.6-0.7 4.2-2 8.3-4 12.1-1.7 3.6-3.8 6.9-6.3 10-2.5 3-5.3 5.8-8.5 8.2-3.1 2.5-6.5 4.5-10.1 6.2-3.6 1.6-7.4 2.8-11.2 3.6-7.1 1.9-14.4 2.9-21.7 3.2-7.3 0.2-14.6-0.5-21.7-1.9-7.2-1.5-14.1-3.8-20.8-6.8-6.6-3.1-12.9-6.9-18.6-11.4-3.7-2.7-7.3-5.6-11.1-8.5l16.9-19.8c6.4 4.5 12.4 9.2 18.8 13.2q5.4 3.5 11.4 6 6 2.4 12.4 3.7 6.3 1.3 12.8 1.4 6.5 0.2 12.8-0.9 2.4-0.2 4.7-0.9 2.2-0.6 4.3-1.7 2.1-1 4-2.4 2-1.4 3.6-3.1c2.1-2 3.6-4.5 4.6-7.3 1-2.7 1.3-5.7 1-8.6-0.3-2.9-1.3-5.6-2.8-8.1-1.6-2.5-3.7-4.6-6.2-6.1q-2.8-1.7-5.7-3.2-2.9-1.4-5.9-2.6-3.1-1.3-6.2-2.2-3.1-1-6.3-1.7-5.3-1.3-10.6-2.7-5.3-1.5-10.6-3.1-5.2-1.7-10.3-3.6-5.2-1.9-10.3-4-3.1-1.2-6-2.9-2.9-1.8-5.5-3.9-2.6-2.1-4.9-4.5-2.3-2.5-4.2-5.2c-2.1-3.7-3.7-7.6-4.6-11.7-1-4.1-1.3-8.3-1-12.4 0.3-4.2 1.2-8.3 2.6-12.3 1.5-3.9 3.6-7.6 6.2-10.9q3.1-3.9 6.8-7.2 3.8-3.3 8.1-5.9 4.3-2.6 9-4.3 4.7-1.8 9.6-2.7c5.8-1.5 11.7-2.3 17.7-2.6 6-0.2 12 0.1 17.9 1.1 5.9 1 11.7 2.6 17.3 4.7 5.5 2.2 10.9 5 15.9 8.2q2.6 1.8 5.1 3.8 2.4 2 4.6 4.3 2.2 2.3 4.2 4.8 1.9 2.5 3.7 5.1z"/>
				<path id="Path_17" class="s0" d="m942.2 210.8h26.7v4.2q0 51.9 0 103.7c0.2 6.9-0.8 13.8-3 20.4-2.2 6.5-5.7 12.6-10.1 17.8-4.5 5.3-9.9 9.7-16 13-6 3.3-12.7 5.5-19.5 6.4q-6.7 1.4-13.5 1.8-6.8 0.3-13.5-0.3-6.8-0.7-13.4-2.4-6.6-1.8-12.8-4.5c-4.2-1.9-8.1-4.3-11.7-7.3-3.5-2.9-6.6-6.3-9.3-10-2.7-3.8-4.8-7.9-6.4-12.2-1.6-4.3-2.6-8.8-2.9-13.4q-0.2-1.7-0.4-3.4-0.1-1.7-0.2-3.4-0.1-1.7-0.1-3.5 0-1.7 0-3.4-0.1-49.7 0-99.4v-4h26.5v4.2c0 33.6 0 67.2 0.1 100.8q0 1.6 0.1 3.3 0.1 1.7 0.3 3.3 0.1 1.7 0.4 3.3 0.3 1.7 0.7 3.3c0.5 2.6 1.3 5 2.5 7.3 1.1 2.3 2.6 4.4 4.4 6.4 1.7 1.9 3.7 3.5 5.9 4.9 2.1 1.4 4.5 2.5 7 3.2q4.5 1.5 9.2 2.3 4.6 0.8 9.4 0.9 4.7 0 9.4-0.7 4.7-0.8 9.2-2.2c2.8-0.8 5.5-2.1 7.9-3.7 2.4-1.7 4.6-3.7 6.4-6 1.8-2.3 3.2-4.8 4.2-7.6 1.1-2.7 1.7-5.6 1.8-8.5q0.2-1.5 0.3-3.1 0.1-1.5 0.2-3.1 0.1-1.5 0.1-3.1 0-1.5 0-3.1 0.1-48.8 0-97.7c0 0 0-4.5 0.1-4.5z"/>
				<path id="Path_18" class="s0" d="m640.8 129l22.4 10.5q-1.2 2.1-2.5 4.2-1.2 2-2.5 4.1-1.3 2-2.6 4-1.3 2-2.7 4c-3.6 4.6-7.7 8.7-12.3 12.3-4.5 3.6-9.5 6.6-14.9 9-5.3 2.4-10.9 4.1-16.6 5.1-5.7 0.9-11.6 1.2-17.4 0.8q-5.9 0-11.7-1-5.9-1-11.5-2.9-5.6-1.9-10.8-4.7-5.2-2.8-9.9-6.4c-3.5-2.8-6.7-5.8-9.5-9.2-2.9-3.4-5.3-7.1-7.4-11-2.1-3.9-3.7-8-4.9-12.3-1.2-4.3-2-8.6-2.3-13q-0.4-5.6-0.7-11.2-0.2-5.5-0.3-11.1-0.1-5.6 0-11.1 0.1-5.6 0.4-11.2c0.1-8 1.6-15.9 4.5-23.4 2.8-7.4 7-14.3 12.3-20.3 5.2-6 11.5-11.1 18.6-14.9 7-3.8 14.7-6.3 22.6-7.4 5.7-1.2 11.6-1.7 17.4-1.5 5.9 0.2 11.7 1.1 17.3 2.7 5.6 1.5 11.1 3.8 16.2 6.6 5.1 2.9 9.8 6.3 14.1 10.3q2.8 2.5 5.2 5.2 2.4 2.8 4.5 5.9 2 3 3.7 6.3 1.7 3.2 3 6.7c-7 3.3-13.9 6.5-20.8 9.5-0.6 0.3-2.3-0.8-2.8-1.7q-1.7-3.1-3.7-5.9-2.1-2.9-4.5-5.5-2.4-2.6-5.1-4.9-2.7-2.3-5.6-4.2c-5-3-10.4-5.1-16.2-6.1-5.7-1.1-11.5-1.1-17.3 0-5.7 1-11.1 3.1-16.1 6.2-5 3-9.3 6.9-12.9 11.5q-1.9 3.1-3.4 6.4-1.5 3.3-2.6 6.8-1 3.5-1.4 7.1-0.5 3.7-0.5 7.3c-0.2 11.2-0.1 22.4 0 33.6-0.2 5.9 0.8 11.9 3 17.5 2.2 5.5 5.5 10.6 9.8 14.8 4.2 4.2 9.3 7.5 14.9 9.7 5.6 2.2 11.5 3.1 17.5 2.9 4.7 0.2 9.3-0.2 13.8-1.4 4.5-1.1 8.8-3 12.8-5.4 4-2.5 7.5-5.5 10.6-9.1 3-3.5 5.5-7.4 7.3-11.7 0.4-0.8 0.9-1.5 1.5-2.5z"/>
				<path id="Path_19" class="s0" d="m662.6 248.8l-21.5 9.9q-1.7-2.2-3.4-4.5-1.8-2.2-3.6-4.4-1.8-2.2-3.7-4.3-1.9-2.1-3.9-4.2-3.4-3.2-7.4-5.7-4.1-2.4-8.5-3.9-4.5-1.5-9.2-2-4.7-0.6-9.3-0.1-4.7 0.1-9.2 1.1-4.6 1.1-8.8 3.1-4.2 2-7.9 4.8-3.7 2.9-6.6 6.5-2.5 3.3-4.4 6.9-2 3.7-3.2 7.6-1.3 3.9-1.9 8-0.6 4.1-0.4 8.2c-0.2 10.4-0.1 20.8 0 31.2-0.6 6.3 0.3 12.7 2.6 18.7 2.2 5.9 5.7 11.3 10.2 15.8 4.6 4.5 10 7.9 16 10 6 2.2 12.4 3 18.7 2.4 4.5 0 8.9-0.6 13.1-1.9 4.3-1.2 8.3-3.1 12-5.5 3.8-2.4 7.1-5.3 10-8.7 2.8-3.4 5.2-7.1 7-11.2 0.3-0.7 0.6-1.4 1-2.1 0.1-0.2 0.3-0.3 0.7-0.6l21.5 10.2q-1.4 3.5-3.2 6.8-1.8 3.4-3.9 6.5-2.2 3.1-4.7 6-2.4 2.9-5.2 5.5c-3.7 3.3-7.6 6.3-11.9 8.9-4.2 2.5-8.7 4.6-13.4 6.2-4.7 1.7-9.5 2.8-14.4 3.5-4.9 0.6-9.9 0.7-14.8 0.4q-5.8-0.1-11.5-1.1-5.7-1-11.2-2.9-5.5-1.9-10.6-4.6-5.1-2.8-9.7-6.3-4.8-3.7-8.7-8.3-4-4.5-7.1-9.8-3-5.2-5-10.9-2-5.7-2.9-11.7-0.4-2.9-0.7-5.9-0.3-2.9-0.4-5.8-0.2-2.9-0.3-5.8-0.1-3 0-5.9c-0.1-10.3-0.3-20.6 0.6-30.8 0.5-6.9 2-13.7 4.6-20.1 2.6-6.5 6.2-12.4 10.6-17.8 4.5-5.3 9.7-9.8 15.6-13.5 5.8-3.7 12.2-6.4 19-8.1 6.3-2 12.9-3.2 19.5-3.5 6.6-0.2 13.3 0.4 19.7 1.9 6.5 1.5 12.7 3.9 18.6 7.1 5.8 3.2 11.2 7.1 15.9 11.8q2.6 2.4 4.9 5 2.2 2.7 4.2 5.6 2 2.9 3.6 6c1 2.1 2 4.2 2.9 6.3z"/>
				<path id="Path_20" class="s0" d="m1191.5 372.6v-137.9h-52.7v-23.8h132.3v23.6h-48.4c-4.5 0-4.5 0-4.5 4.7q0 64.7 0 129.5c0 1.2 0 2.5 0 3.9z"/>
			</g>
		</g>
	</g>
	<g id="Group_21">
		<path id="Path_1" class="s0" d="m271.8 409.3c-47.2 0-95.5 0.5-143.6-0.5q-3.3-0.5-6.5-1.4-3.1-1-6.1-2.5-2.9-1.5-5.6-3.4-2.7-1.9-5-4.3c-30.1-28.2-59.5-57.2-88.8-86.2-20.1-19.9-20.1-42.6-0.7-63.1 6.9-7.2 13.8-14.4 21.2-21 3.6-3.5 7.8-6.3 12.4-8.3 4.6-1.9 9.5-3 14.5-3.2 5-0.1 10 0.7 14.7 2.3 4.8 1.7 9.1 4.3 12.9 7.6 60.7 60.6 120.3 122.4 180.6 184z"/>
		<path id="Path_2" class="s1" d="m168.1 1.1c46.3 0 90-0.3 133.8 0.1 4.8 0.1 9.6 0.6 14.4 1.7 4.7 1 9.3 2.6 13.8 4.5 4.4 2 8.6 4.4 12.6 7.2 3.9 2.9 7.5 6.1 10.8 9.6 19.3 19.4 39.6 37.8 59.4 56.7 3.7 3.1 6.9 6.8 9.5 11 2.6 4.1 4.5 8.6 5.6 13.4 1.1 4.7 1.5 9.6 1.1 14.5-0.5 4.8-1.7 9.6-3.6 14.1-1.7 4.5-4.1 8.7-7.1 12.5-3 3.9-6.6 7.2-10.6 10-4 2.7-8.3 4.9-13 6.3-4.6 1.5-9.4 2.2-14.3 2.3-7.4 1-15 1.1-22.5 0.3-7.5-0.8-14.8-2.6-21.8-5.2-7.1-2.7-13.8-6.2-20-10.5-6.1-4.3-11.7-9.4-16.6-15.1-38.5-42.1-80.4-81.2-120.8-121.7-3.4-3.3-6.4-7.1-10.7-11.7z"/>
		<path id="Path_3" class="s2" d="m208.2 76.1c-20.5 19.4-39.1 36.6-57.2 54.2-18.1 17.6-35.6 36.1-53.9 53.8-4 4.4-9 7.9-14.5 10.3-5.5 2.4-11.5 3.6-17.5 3.5-6-0.2-11.9-1.6-17.3-4.2-5.5-2.5-10.3-6.3-14.1-10.9-7.3-7.4-14.5-15.1-21.3-23-3.6-3.8-6.5-8.3-8.5-13.1-1.9-4.9-2.9-10.1-2.9-15.4 0-5.2 1-10.4 2.9-15.3 2-4.9 4.9-9.4 8.5-13.2 31-31.6 62.8-62.4 95-92.8 13.5-12.8 20.2-11.6 33.6 1.5 21.4 20.8 43.1 41.3 67.2 64.6z"/>
		<path id="Path_4" class="s3" d="m240.8 337.3c27.3-26.8 51.9-52.1 77.7-75.9 17.3-16 70-18.3 89.5-5.7 5.9 4.2 10.8 9.6 14.4 15.9 3.6 6.2 5.8 13.2 6.6 20.4 0.7 7.2-0.1 14.4-2.3 21.3-2.3 6.8-6 13.1-10.9 18.5-22.9 23.4-47.4 45.2-72.4 66.4-18.1 15.3-26.1 13.7-42.8-2.7-19.1-18.8-38.4-37.4-59.8-58.2z"/>
	</g>
</svg>