<svg version="1.2" xmlns="http://www.w3.org/2000/svg" viewBox="0 0 1600 877" width="1600" height="877">
	<title>CD_Projekt_logo-svg</title>
	<defs>
		<clipPath clipPathUnits="userSpaceOnUse" id="cp1">
			<path d="m-3507.53-1199.18h6480.94v4582.49h-6480.94z"/>
		</clipPath>
	</defs>
	<style>
		.s0 { fill: #dc0d15 } 
		.s1 { fill: #000000 } 
	</style>
	<g id="g10">
		<g id="g60">
			<g id="Clip-Path: g62" clip-path="url(#cp1)">
				<g id="g62">
					<g id="g68">
						<path id="path70" fill-rule="evenodd" class="s0" d="m208.2 515l322 220.8c-0.5 0.3-1.1 0.4-1.5 0.7-0.3-0.1-6-2.3-12-4.7-3-1.2-6.5-2.6-10.6-4.3h-0.1c-0.1-0.1-0.4-0.2-0.6-0.3-28.2-11.6-82.9-34.7-169.2-74.5-87.6-40.6-139.2-65.7-183.5-87.2v0.1c0 0 0-0.1-0.1-0.1l159.3 145 0.2 0.2 0.4 0.4h0.1l9.3 7.7-42.1 12.7c0-0.2-0.2-0.4-0.2-0.6q-0.3-0.9-0.6-1.9c-0.1-0.3-0.2-0.6-0.3-0.9q-0.3-0.9-0.7-1.8-0.1-0.4-0.3-0.8-0.6-1.3-1.2-2.7l-7.4 3.4c3.3 7.2 4.4 13 4.4 17.6 0 5.9-2.3 10.3-3.9 12.9-0.9 1.3-2.6 3.1-2.6 3.1l2.3 3.3q-0.2 0.6-0.5 1.2c-12.5 19.9-23.8 47.8-28.7 60.4-1.6 4.2-2.5 6.7-2.5 6.7q0 0-0.1 0.2c8.3 0.3 28 2.6 22.9 18.4l-4.5 16.2c-9.7-17.5-5.6-22.2-5.6-22.2-28.4-7.4-85.9 33-85.9 33 1.9-15.1 18.5-25.5 28.1-31-8.1-0.9-18.1 6.1-23.4 10.4 5-9.9 12.2-15.8 19.6-19.1 0 0 0 0-0.1-0.1 13.2-4.9 26-2.5 27.5-1.1v0.1c4.4-1.4 4.7-1.6 8.7-2.5 1.4-0.9 2.7-4.1 3.3-5.8 0-0.1 13.2-37 29.5-64.7-7.9-0.8-14.1-10-14.1-21.2q0-1 0.1-2c-17.4 2.5-35.5 3.2-54.2 1.6-0.6 0-1.2-0.1-1.8-0.2q0 0 0 0c-0.9-0.1-4.8-0.4-9.6-1-34.4-4.7-65.7-16.5-91.5-33.3l0.1 0.4c0 0-46.6-24.9-56.6-81.5l-11.3 7.1c0-50.7 8.7-86.3 20.6-113.5l-13.9 1.3 13.9-19.5c-1.8 3.8-3.5 7.8-5.2 12.1l8.5-1.4v-0.1c1.7-3.4 3.3-6.7 5-9.8 0.2-0.4 0.4-0.8 0.6-1.2 0.4-0.6 0.7-1.2 1.1-1.9 0.2-0.4 0.4-0.9 0.6-1.2 0.4-0.6 0.8-1.2 1.1-1.8 0.2-0.4 0.5-0.8 0.6-1.1 0.4-0.6 0.8-1.2 1.2-1.8q0.2-0.5 0.6-1.1c0.3-0.6 0.7-1.1 1.1-1.7 0.2-0.3 0.4-0.6 0.6-0.9 0.4-0.7 0.8-1.3 1.2-1.9 0.2-0.2 0.3-0.5 0.5-0.7q0.8-1.2 1.6-2.4l0.1-0.1c0.5-0.8 1.1-1.6 1.7-2.3 0.1-0.2 0.3-0.5 0.4-0.7q0.6-0.8 1.2-1.5c0.2-0.3 0.4-0.5 0.6-0.9 0.3-0.4 0.7-0.8 1-1.2 0.2-0.3 0.4-0.6 0.7-0.8 0.3-0.5 0.6-0.8 0.8-1.2 0.3-0.3 0.5-0.6 0.7-0.8 0.3-0.4 0.6-0.7 0.9-1.1 0.2-0.3 0.5-0.5 0.7-0.8 0.2-0.3 0.6-0.6 0.8-0.9 0.2-0.3 0.4-0.5 0.6-0.8 0.4-0.3 0.6-0.6 0.8-0.9q0.3-0.2 0.5-0.5c0-0.1 0.1-0.1 0.2-0.2 0.1 0 0.1-0.1 0.2-0.2 0.2-0.2 0.4-0.4 0.6-0.6 0.1-0.2 0.2-0.3 0.4-0.5 0.1-0.1 0.2-0.1 0.2-0.2 0.1-0.1 0.2-0.2 0.2-0.2 0.2-0.2 0.4-0.4 0.5-0.6 0.2-0.2 0.4-0.4 0.6-0.6 0.3-0.3 0.5-0.5 0.8-0.7 0.1-0.2 0.3-0.4 0.5-0.6 0.2-0.2 0.5-0.5 0.7-0.7 0 0 0 0 0-0.1q0.3-0.2 0.5-0.4c0.1-0.1 0.2-0.2 0.4-0.4q0.4-0.3 0.7-0.6c0.2-0.2 0.3-0.3 0.5-0.4 0.1-0.3 0.4-0.4 0.6-0.6 0.1-0.2 0.3-0.3 0.4-0.4 0.2-0.2 0.4-0.4 0.5-0.6 0.2-0.1 0.3-0.2 0.5-0.3 0.1-0.2 0.3-0.3 0.5-0.4 0.1-0.1 0.2-0.3 0.3-0.4 0.2-0.1 0.3-0.2 0.5-0.3 0.1-0.1 0.2-0.2 0.3-0.4 0.2 0 0.3-0.1 0.4-0.2 0.1-0.1 0.2-0.2 0.3-0.3 0.2-0.1 0.3-0.2 0.4-0.2 0.1-0.1 0.2-0.2 0.2-0.3 0.1 0 0.2-0.1 0.3-0.2 0.1 0 0.2-0.1 0.2-0.2 0.1 0 0.2-0.1 0.3-0.1 0-0.1 0.1-0.1 0.1-0.1 0.1-0.1 0.2-0.1 0.2-0.2 0 0 0.1 0 0.1-0.1 0.1 0 0.1 0 0.2-0.1 0 0 0 0 0 0l-0.6 3-7.7 36.1c11-13.5 23.8-27.9 36.7-41.5 21.5-22.8 43.1-43.7 55.8-55.7-4.3-8.2-9-15.3-14.1-21.2l-21.3 15.5-0.9 0.7-20.6 15.1c-16.7 8.9-25.8-2.6-26.4-3.3 3.3 2.7 7.4 4.4 12 4.4 5.1 0 9.8-2.1 13.1-5.3 3.3-3.2 5.3-7.6 5.3-12.5 0-2.5-0.5-4.8-1.4-7-1.6-3.5-4.4-6.5-7.8-8.4 0 0-3.7-2.2-2.9-5.7 0.8-3.7 7.5-10.7 7.5-10.7l8.2-8.3 12.8-13 0.3-0.4 16.8-17 2.3-2.4 9.3-9.5c1.7-1.8 2.8-3.1 2.8-3.1l-24.9 10.6-0.1-0.2c0-0.3 0.3-1.4 2-4.5 2.4-4.3 8-12.2 8.2-12.5l-46.2 33v-0.1c2.7-12.6 29.5-49 31.3-51.5l-30.3 27.7c0-0.1 0-0.1 0-0.2-1.6-9.4 13.5-41.6 15.5-46q0.1-0.2 0.2-0.4c-11 11-19 22.9-19.2 23.2 0-10.6 8.1-25.9 8.1-25.9-2.3 2.3-4.5 4.7-6.6 7.1-31.7 35.7-40.8 77.4-43.3 93.7 0 0 0 0-0.1 0-5.3 3.2-2-0.8-4.6 5.4-9.3 2.6-17.2 7.4-23.4 12.6-10.5 8.7-16.8 18.7-18.7 22.1 1.2-1.6 2.5-3 3.8-4.3 19.4-20.3 41.7-18.1 41.7-18.1 0 0 24.9 46 19.8 51.3-0.6 0.5-1.4 0.6-2.6 0.2-3.4-1.1-5.5-0.6-6.7 0.9-3.8 4.2-0.3 16.5-0.3 16.8l-66-28.4c31.3-11.6 53.7-3.6 53.7-3.6 0 7.7 17.5 6.7 17.5 6.7 0-7.2-13.3-15.7-13.3-15.7 0 0-12 5.1-26.1 0q-1-0.4-2-0.6c-0.1 0-0.2-0.1-0.4-0.1-0.6-0.1-1.2-0.2-1.8-0.3-0.2 0-0.2 0-0.4-0.1-0.6-0.1-1.1-0.1-1.7-0.1-0.1-0.1-0.2-0.1-0.2-0.1q-1-0.1-2 0h-0.4q-0.9 0.1-1.8 0.2c-0.7 0.1-1.3 0.2-1.9 0.3-0.2 0-0.2 0-0.3 0q-0.9 0.2-1.8 0.4c-0.1 0-0.2 0.1-0.3 0.1q-0.9 0.2-1.8 0.4c-7.5 2.3-13 6.4-13 6.4h-0.1l41.3-151 4.3 58 83.8-196.9 1.4 147.3 228.3-270.2-140.4 303.5 0.9 1.5 99-71.3-20.9 41.9 138.4-54-129.2 94.4 241.4-29.6-292.8 126.7 149.8-36.6zm49.1-100.9v-0.1 0.1zm0 0.1v-0.1zm-139.1-150.8v-0.1q0 0-0.1 0.2 0-0.1 0.1-0.1zm14.7 18.7c0 0-0.1 0.1-0.2 0.1q0 0 0 0.1zm-30 118.4c0.9-0.8 1.6-1.7 2.2-2.6l-3.5-2.1c0.5-1 0.7-2 0.7-3.1 0-1.3-0.3-2.5-0.8-3.6l7.6-2.6c2 6 0.4 12.4-3.8 16.3-1.3 1.3-3 2.3-4.9 3-7.6 2.6-15.9-1.9-18.7-10l3.3-1.1c0.1 0.5 0.3 0.9 0.4 1.3 1.8 4.4 6 7.1 10.4 7.1 1.5 0 2.8-0.2 4.1-0.8 1.2-0.5 2.2-1.1 3-1.8zm23.5 405.2c-4.6 8.4 6.5 23.6 6.5 23.6-25-19.5-46.5 12.6-46.5 12.6-1.5-14 14.5-24.4 14.5-24.4-26.1 4.1-56.6 28.5-56.6 28.5-3.5-12.2 11.7-20.3 11.7-20.3 0-9.6 13.1-8.6 27.8-12.7 9.9-2.7 24.8-6.8 33.6-9.2 0.1-0.1 0.2-0.4 0.4-0.5 0 0 11-12.7 24.5-27.2 10.6-11.3 22.4-23.6 31.7-32.1 4.2 0.7 8.2 1.1 10.7 1.4-8.9 7.2-23.8 22.6-36.5 36.2-9.5 10.3-17.8 19.6-21.8 24.1zm44.3-399.3v0.1l-34.4 75.7 48-36.5c-3.5-14.4-8.1-27.7-13.6-39.3zm357.6 330.3c-25 11.8-62.7 11-108.9-2.6l7.7 20-14.2-8.3-56-33.1-1.2-5.7c20.9 6.2 129 42.6 172.6 29.7zm0.1 0q0 0 0 0 0 0 0 0zm0 0q0 0-0.1 0 0.1 0 0.1 0 0 0 0 0z"/>
					</g>
					<g id="g72">
						<path id="path74" fill-rule="evenodd" class="s1" d="m0 420c0 0 8.3-8 15-12.5 5.1-1.6 11-2.2 16.7-0.2 14.2 5.1 26.2 0 26.2 0 0 0 13.3 8.6 13.3 15.7 0 0-17.5 1-17.5-6.7 0 0-22.4-8-53.7 3.7zm184.4 25.6l-48 36.5 34.4-75.7c5.4 11.6 10.1 24.8 13.6 39.2zm171.4 261.2l1.1 5.8c-19.9-11.6-30-7.4-44.3-1.5h-0.1l-159.9-145.6c268.3 130.5 376.1 171 376.1 171-43.5 13.2-152.1-23.5-172.9-29.7zm-79.3 16c3.7 8.1 5.1 15.1 5.1 21 0 15.2-9.3 22.3-9.8 22.6l-4.8-6.6c0 0 1.7-1.8 2.6-3.1 1.6-2.6 3.9-7 3.9-12.9 0-4.6-1.1-10.4-4.4-17.6zm-102.9 16.9c7.4 1.2 14.2 1.8 14.2 1.8l-0.3 4.1c0 0-7-0.7-14.6-1.9zm-98.6-243l7.7-36.1 0.6-3c0 0 0 0 0 0-0.1 0.1-0.1 0.1-0.2 0.1 0 0.1-0.1 0.1-0.1 0.1-0.1 0.1-0.1 0.1-0.2 0.2 0 0-0.1 0-0.1 0.1-0.1 0-0.2 0.1-0.3 0.2 0 0-0.1 0.1-0.2 0.1-0.1 0.1-0.2 0.2-0.3 0.2-0.1 0.1-0.1 0.2-0.3 0.3 0 0-0.1 0.1-0.3 0.2-0.1 0.1-0.2 0.2-0.3 0.3-0.1 0.1-0.2 0.2-0.4 0.2-0.1 0.2-0.2 0.3-0.3 0.4-0.2 0.1-0.3 0.2-0.5 0.3-0.1 0.1-0.2 0.3-0.3 0.4-0.2 0.1-0.4 0.2-0.5 0.4-0.2 0.1-0.3 0.3-0.5 0.3-0.1 0.2-0.3 0.4-0.5 0.6-0.1 0.1-0.3 0.2-0.5 0.4-0.2 0.2-0.4 0.4-0.6 0.6-0.1 0.1-0.2 0.2-0.4 0.4-0.4 0.3-0.7 0.6-1.1 1.1-0.2 0.1-0.3 0.3-0.5 0.4-0.2 0.2-0.5 0.5-0.7 0.7q-0.3 0.3-0.5 0.6-0.5 0.3-0.8 0.7c-0.2 0.2-0.4 0.5-0.6 0.6-0.2 0.3-0.5 0.6-0.7 0.8-0.3 0.3-0.4 0.4-0.7 0.7-0.2 0.3-0.5 0.5-0.7 0.8-0.3 0.2-0.5 0.5-0.7 0.7-0.2 0.3-0.5 0.6-0.8 0.9-0.2 0.3-0.4 0.5-0.6 0.8q-0.4 0.5-0.8 1c-0.3 0.2-0.5 0.5-0.7 0.8-0.3 0.3-0.6 0.6-0.9 1-0.2 0.3-0.5 0.6-0.7 0.8q-0.4 0.6-0.9 1.2-0.3 0.4-0.7 0.8-0.5 0.7-0.9 1.3c-0.3 0.3-0.4 0.5-0.6 0.8-0.4 0.5-0.8 1-1.2 1.6-0.2 0.2-0.3 0.4-0.5 0.6-0.6 0.8-1.1 1.5-1.7 2.3 0 0.1 0 0.1 0 0.2q-0.8 1.1-1.6 2.3c-0.2 0.2-0.3 0.5-0.5 0.8-0.4 0.6-0.9 1.2-1.2 1.8-0.3 0.3-0.4 0.6-0.6 0.9-0.4 0.6-0.8 1.2-1.2 1.8q-0.3 0.4-0.5 1c-0.5 0.6-0.8 1.2-1.2 1.8-0.1 0.3-0.4 0.7-0.6 1.1-0.4 0.6-0.7 1.2-1.1 1.8-0.2 0.4-0.4 0.8-0.6 1.2-0.4 0.7-0.8 1.3-1.1 1.9-0.2 0.4-0.4 0.8-0.7 1.2-1.6 3.1-3.3 6.4-4.9 9.9l-8.5 1.4c4.4-11.6 9.5-21.1 14.6-28.8 4.6-19.9-3.4-39-7.5-47.1l24.8 10.7c0 0-6.3-22.3 6.9-17.7 13.2 4.6-17.1-51.5-17.1-51.5 0 0-25.4-2.5-45.6 22.4 3.2-5.5 17.4-27.7 42.2-34.7 2.6-6.2-0.7-2.1 4.7-5.4 2.6-17.3 12.8-63.7 49.9-100.8 0 0-8.1 15.3-8.1 26 0 0 8.1-12.2 19.3-23.4 0 0-17.8 37-15.8 46.7l30.5-27.9c0 0-28.8 38.8-31.5 51.8l46.2-33c0 0-5.8 8.1-8.2 12.5-2.4 4.5-2 4.7-2 4.7l24.9-10.6c0 0-1 1.3-2.7 3.2l-9.3 9.4-19.1 19.4-0.3 0.4-21.1 21.4 0.1-0.1c0 0-6.7 7-7.5 10.7-0.8 3.5 2.9 5.7 2.9 5.7 3.4 1.9 6.2 4.9 7.8 8.5 0.9 2.1 1.4 4.4 1.4 6.9 0 9.7-8.2 17.8-18.4 17.8-4.7 0-8.9-1.7-12.1-4.4 0 0 9.2 12.5 26.5 3.3l42.8-31.3c5.1 5.9 9.8 13.1 14.1 21.2-20.2 19.1-63.3 61.1-92.5 97.2zm25.5-91c7.6-2.6 11.5-11.3 8.7-19.3l-7.5 2.5c0.4 1.2 0.8 2.4 0.8 3.7 0 1.1-0.2 2.2-0.7 3.1l3.5 2.1c-1.2 1.9-3 3.4-5.2 4.4-1.3 0.5-2.7 0.7-4.1 0.7-4.4 0-8.6-2.6-10.4-7-0.2-0.4-0.4-0.8-0.4-1.3l-3.4 1.1c2.8 8.2 11.2 12.6 18.7 10z"/>
					</g>
					<g id="g76">
						<path id="path78" fill-rule="evenodd" class="s1" d="m797.7 464.6c7 6.9 10.6 15.6 10.6 26.1 0 11.1-3.8 20.1-11.4 26.7-7.4 6.5-17.6 9.8-30.1 9.8h-6.8v34.6l-0.6 0.4-17.8 12.6-2.3 1.6v-122.1h21.6c9.9 0 17.6 0.7 22.7 2.1 5.4 1.4 10.1 4.2 14.1 8.2zm-6.8 25.7c0-12-8.3-18.1-24.6-18.1h-6.4v37.4h5.7c16.8 0 25.3-6.4 25.3-19.3zm135.3 72.1l0.9 1.2-1.2 0.9-14.3 10.3-1.2 0.8-0.8-1.2-33.2-47.6h-1v35l-0.6 0.4-17.9 12.6-2.2 1.6v-122.1h22.3c15.8 0 27.5 3.1 34.6 9.1 7.9 6.8 12 15.9 12 26.9 0 8.6-2.5 16.2-7.5 22.4-4.5 5.7-10.5 9.6-17.6 11.6zm-45.1-52.8c16.8 0 25.2-6.4 25.2-19.3 0-12.1-8.2-18.1-24.5-18.1h-6.4v37.4zm-272.2-39.7c12.4 11.3 18.8 26.4 18.8 44.7 0 18.5-6.7 33.6-19.5 45.1-6.5 5.7-13.5 9.7-20.5 11.9-6.7 2.3-16.1 3.4-28.2 3.4h-25.8v-120.7h26.1c11.9 0 21.5 1.2 28.5 3.6 7.6 2.3 14.5 6.4 20.6 12zm-2.2 44.7c0-12.4-4.1-22.6-12.5-30.3-7.3-6.9-18.6-10.4-33.3-10.4h-6.5v81.5h6.5c7.8 0 14.3-0.8 19.4-2.5 5.1-1.7 9.8-4.4 13.8-8.1 8.4-7.7 12.6-17.8 12.6-30.2zm-177.9-30.3c-8 8.2-12.1 18.6-12.1 30.7 0 11.9 4.1 22 12.1 30.2 8 8.2 18 12.3 29.6 12.3 6 0 11.2-1 15.4-2.9 2.2-0.9 4.5-2.2 6.9-3.8l1.4-0.8 0.7 1.3 8.7 15 0.1 0.3v1.2l-0.7 0.5c-10.3 5.9-21.3 8.9-32.7 8.9-17.2 0-32-6.1-44.2-18.1-12-12.1-18.2-26.9-18.2-43.9 0-15.3 5.1-29.1 15.3-41.1 12.4-14.7 28.7-22.1 48.5-22.1 10.7 0 21.2 3 31.3 8.8l1.3 0.7-0.8 1.3-8.6 14.9-0.7 1.2-1.3-0.7c-7.3-4.3-14.8-6.5-22.5-6.5-11.6 0-21.5 4.2-29.5 12.6zm1035.8-30h74.8v19.6h-27v87.9l-0.6 0.4-17.8 12.5-2.3 1.7v-102.5h-27.1zm-393.4 16.3c12.3 12.2 18.6 27.1 18.6 44.3 0 17.3-6.3 32.1-18.7 44.1-12.3 12.1-27.5 18.2-45 18.2-15.5 0-29.6-5.4-41.9-16.1-13.6-11.9-20.5-27.7-20.5-46.9 0-16.9 6.3-31.6 18.7-43.8 12.3-12.1 27.3-18.3 44.6-18.3 17.2 0 32 6.3 44.2 18.5zm-2.3 44.1c0-12.1-4.1-22.4-12.2-30.5-8-8.3-18-12.4-29.9-12.4-11.8 0-21.9 4.1-30 12.4-8.1 8.1-12.2 18.3-12.2 30.2 0 12.5 4.2 22.9 12.7 31 8.3 8.1 18.1 12.2 29 12.2 11.9 0 22.1-4.2 30.3-12.4 8.1-8.3 12.3-18.6 12.3-30.5zm339.7-60.4h27.8l-2.5 2.6-52.2 52.3 44 53.1 1.1 1.3-1.4 0.9-15.2 10.3-1.1 0.8-0.8-1.1-41.4-51.1-2.1 2v36.4l-0.6 0.5-17.8 12.5-2.4 1.6v-108.8l0.7-0.4 17.7-12.5 2.4-1.7v46.2l43.3-44.4zm-237.3 0.3l2.4-1.6v79c0 9.3-0.7 16.1-2 20.7-1.3 5.3-3.6 9.8-6.7 13.5-6.3 7.3-14.6 11-24.8 11-7.7 0-14.9-2.1-21.6-6l-1.2-0.8 0.7-1.3 8.8-15.1 0.8-1.3 1.3 0.8c4 2.7 7.7 4 11.2 4 4.7 0 7.9-1.6 9.6-5.2 2.1-3.8 3.1-10.6 3.1-20.3v-64.4l0.6-0.4zm79.5 19.3v24.3h34.6l-2.5 2.5-16.6 16.7-0.4 0.5h-15.1v37.4h49.1l-2.3 2.5-16 16.7-0.5 0.4h-51v-120.7h69.9l-2.4 2.6-16.4 16.7-0.5 0.4z"/>
					</g>
					<g id="g80">
						<path id="path82" fill-rule="evenodd" class="s1" d="m1578.9 494.3c-11.7 0-21.1-9.5-21.1-21.1 0-11.7 9.4-21.1 21.1-21.1 11.7 0 21.1 9.4 21.1 21.1 0 11.6-9.4 21.1-21.1 21.1zm17.9-21.2c0-9.9-8-17.9-17.9-17.9-9.9 0-17.9 8-17.9 17.9 0 10 8 18 17.9 18 9.9 0 17.9-8 17.9-18zm-12.1 12.2l-6.3-9.6h-4.2v9.6h-3.4v-24.2h9.9c4.1 0 7.9 2.9 7.9 7.4 0 5.3-4.8 7.1-6.2 7.1l6.5 9.7zm-4-21.2h-6.5v8.5h6.5c2.1 0 4.4-1.6 4.4-4.1 0-2.7-2.3-4.4-4.4-4.4z"/>
					</g>
				</g>
			</g>
		</g>
	</g>
</svg>