<svg version="1.2" xmlns="http://www.w3.org/2000/svg" viewBox="0 0 1539 1387" width="1539" height="1387">
	<title>consol-logo-svg</title>
	<style>
		.s0 { fill: #000000 } 
	</style>
	<g id="Layer_2">
		<g id="Layer_1-2">
			<path id="Layer" class="s0" d="m1.8 454.4h42.5q-8.5 21.7-15.5 43.9q-7 22.3-12.3 45q-5.3 22.6-9 45.6q-3.7 23-5.7 46.2zm168-202.5c-15.4 17.3-30 35.4-43.6 54.2c-13.6 18.7-26.2 38.2-37.9 58.2c-11.6 20.1-22.2 40.7-31.8 61.8h-54.7v-426.1h626.5c-37.9 7.1-75.3 16.8-111.9 29c-36.6 12.2-72.3 26.9-106.9 44c-34.6 17-68 36.5-99.9 58.1c-32 21.6-62.4 45.4-91.1 71.2c-17.1 15.7-33.3 32.2-48.7 49.6zm-163.2 541.4q3.3 22.4 8.1 44.5q4.8 22.1 11.2 43.8q6.4 21.6 14.4 42.8h-38.5v-176q1.6 22.6 4.8 44.9zm340.8 474.2c38.3 22.4 78.2 41.9 119.4 58.4c41.2 16.4 83.5 29.7 126.7 39.8c43.2 10.1 87.1 17 131.3 20.6h-724.3v-422.8h54.6q6.9 14.6 14.6 28.9q7.6 14.2 16.1 28q8.5 13.7 17.7 27q9.2 13.3 19.2 26q12.5 16.5 26 32.3q13.6 15.7 28.1 30.6q14.4 14.8 29.8 28.8q15.3 14 31.5 27c34.5 27.8 71 53.1 109.3 75.4zm520.7-940c22.7 3.2 45.1 8.1 67 14.6c21.9 6.5 43.4 14.6 64.1 24.3c20.7 9.6 40.7 20.8 59.8 33.4l-529.3 12.8c19-15 39.3-28.3 60.6-39.8c21.3-11.5 43.5-21.2 66.5-28.8c23-7.6 46.6-13.2 70.6-16.8c23.9-3.5 48.2-4.9 72.4-4.2c22.8-0.2 45.7 1.3 68.3 4.5zm670.2 60.2l-399 10.1v-342.5q-22.8-9.1-46-17.1q-23.3-8.1-46.8-15q-23.6-6.9-47.5-12.7q-23.9-5.8-48-10.5h587.3zm0 244.1l-1134.8 29c1.3-17.8 4-35.5 7.9-52.9c4-17.3 9.3-34.4 15.8-51c6.5-16.6 14.2-32.7 23.2-48.2c8.9-15.4 18.9-30.2 30-44.1l1057.9 24.9zm0 366.1v387.1h-675.1q35.1-4.2 70-10q34.9-5.8 69.5-13.2q34.6-7.4 68.7-16.5q34.2-9 67.9-19.7v-337.1zm0-109.9l-1060.5 27c-11.4-14.4-21.6-29.6-30.5-45.5c-9-15.9-16.6-32.6-22.9-49.7c-6.3-17.2-11.2-34.8-14.7-52.7c-3.5-18-5.6-36.2-6.2-54.4l1134.8 29zm-802.5 160.5c-22.9-3.1-45.6-8.1-67.8-14.7c-22.2-6.7-43.9-15.1-64.8-25.2c-20.8-10.1-40.9-21.8-59.9-35l501.5 11.5c-18 10.7-36.7 20.3-56 28.6c-19.3 8.3-39.1 15.3-59.3 21c-20.2 5.7-40.8 10-61.6 13c-20.8 3-41.7 4.6-62.7 4.8c-23.2 0.5-46.4-0.8-69.4-4z" />
		</g>
	</g>
</svg>