<svg version="1.2" xmlns="http://www.w3.org/2000/svg" viewBox="0 0 1678 206" width="1678" height="206">
	<title>consol-logo-svg</title>
	<style>
		.s0 { fill: #000000 } 
		.s1 { fill: #d90127 } 
	</style>
	<g id="Layer_2">
		<g id="Layer_1-2">
			<path id="Layer" class="s0" d="m378.4 42.7q-2.4-3-5.4-5.5q-2.9-2.4-6.4-4.1q-3.4-1.6-7.2-2.5q-3.7-0.8-7.6-0.7c-4.2-0.1-8.3 0.7-12.2 2.3c-3.9 1.6-7.4 4-10.3 7c-2.9 3-5.1 6.6-6.6 10.5c-1.5 3.9-2.1 8-1.9 12.2c-0.3 4.2 0.4 8.4 1.9 12.3c1.5 3.9 3.9 7.5 6.8 10.4c3 3 6.6 5.3 10.5 6.8c3.9 1.5 8.1 2.1 12.3 1.9q3.7-0.1 7.4-0.9q3.6-0.8 7-2.4q3.3-1.6 6.3-3.9q3-2.2 5.4-5.1v35.9q-3.2 1.2-6.5 2.1q-3.3 0.9-6.7 1.6q-3.3 0.7-6.7 1.1q-3.4 0.4-6.9 0.5q-6 0-11.9-1.1q-5.9-1.1-11.5-3.3q-5.6-2.2-10.7-5.4q-5.1-3.1-9.5-7.2c-3.1-2.7-5.8-5.8-8.2-9.1c-2.4-3.3-4.4-6.9-6-10.7c-1.6-3.7-2.8-7.6-3.6-11.6c-0.7-4.1-1-8.1-0.9-12.2q0-5.9 1.1-11.7q1.1-5.7 3.3-11.2q2.2-5.4 5.4-10.3q3.2-4.9 7.3-9.1q4.4-4.4 9.5-7.8q5.2-3.4 10.9-5.8q5.7-2.3 11.7-3.6q6.1-1.2 12.2-1.2q3.6 0 7.1 0.4q3.6 0.4 7.1 1.2q3.4 0.7 6.8 1.8q3.4 1.1 6.7 2.6z" />
			<path id="Layer" fill-rule="evenodd" class="s0" d="m452.9 123.3c-35.8 0-64.7-27.5-64.7-61.4c0-34 28.9-61.5 64.7-61.5c35.7 0 64.6 27.5 64.6 61.5c0 33.9-28.9 61.4-64.6 61.4zm-33.1-63.6c-0.8 9.2 2.4 18.3 8.6 25.1c6.3 6.8 15.1 10.7 24.3 10.7c9.3 0 18.1-3.9 24.4-10.7c6.2-6.8 9.3-15.9 8.5-25.1c-0.9-8-4.8-15.4-10.9-20.8c-6-5.3-13.9-8.3-22-8.3c-8.1 0-15.9 3-22 8.3c-6 5.4-9.9 12.8-10.9 20.8z" />
			<path id="Layer" fill-rule="evenodd" class="s0" d="m890.5 59.3c0 37.3-27.1 63.5-64.7 63.5c-37.5 0-64.6-26.2-64.6-63.5c0-34.9 31-59.3 64.6-59.3c33.7 0 64.7 24.4 64.7 59.3zm-97.7 0c-0.8 9.2 2.3 18.3 8.6 25.1c6.3 6.8 15.1 10.7 24.3 10.7c9.3 0 18.1-3.9 24.3-10.7c6.3-6.8 9.4-15.9 8.6-25.1c-0.9-8-4.8-15.4-10.9-20.8c-6.1-5.4-13.9-8.3-22-8.3c-8.1 0-15.9 2.9-22 8.3c-6 5.4-9.9 12.8-10.9 20.8z" />
			<path id="Layer" class="s0" d="m527.7 3.9h30.4l55.6 70.1h0.3v-70.1h30.3v114.7h-30.3l-55.6-70.2v70.2h-30.7z" />
			<path id="Layer" class="s0" d="m733.2 33.8q-2.5-1.8-5.2-3.2q-2.8-1.4-5.8-2.4q-2.9-0.9-6-1.4q-3-0.5-6.1-0.6c-6.4 0-14.9 3.2-14.9 9.6c0 6.4 9.4 9.3 15.4 11l8.9 2.3c18.7 4.7 33.1 12.8 33.1 31.4c0.2 2.9 0 5.9-0.5 8.8c-0.5 2.9-1.4 5.7-2.6 8.4c-1.2 2.7-2.7 5.2-4.5 7.5c-1.8 2.3-3.9 4.4-6.3 6.2q-4.2 2.8-8.7 4.9q-4.6 2.1-9.4 3.5q-4.9 1.3-9.9 2q-5 0.6-10 0.4q-6.2 0-12.3-0.8q-6.2-0.9-12.2-2.6q-5.9-1.6-11.6-4.1q-5.7-2.4-11-5.6l14.9-23.9q3.3 2.7 6.9 4.9q3.6 2.1 7.6 3.6q3.9 1.6 8.1 2.4q4.1 0.9 8.3 1.1c8.2 0 16.9-3.6 16.9-11.6c0-8.1-13.7-11.3-21.1-13.1c-21.9-5.4-36.3-10.2-36.3-32.5c0-23.3 19.4-38.6 46.2-38.6q5.4 0.1 10.8 0.7q5.4 0.7 10.7 1.9q5.2 1.1 10.4 2.9q5.1 1.7 10 4z" />
			<path id="Layer" class="s0" d="m939.2 93.6h43.5v25.3h-80v-115h36.5z" />
			<path id="Layer" fill-rule="evenodd" class="s0" d="m1657.1 101.5c3.5 0 6.7 2.1 8 5.3c1.4 3.3 0.7 7-1.8 9.5c-2.5 2.5-6.2 3.2-9.5 1.9c-3.2-1.4-5.3-4.5-5.3-8c-0.1-1.2 0.2-2.3 0.6-3.3c0.4-1.1 1-2.1 1.8-2.9c0.8-0.8 1.8-1.4 2.9-1.8c1-0.5 2.1-0.7 3.3-0.7zm0 1.4c-3-0.2-5.8 1.5-7.1 4.3c-1.2 2.7-0.7 5.9 1.4 8.1c2.1 2.2 5.2 2.9 8 1.7c2.8-1.1 4.7-3.8 4.7-6.8q0-1.4-0.5-2.7q-0.6-1.3-1.6-2.3q-0.9-1-2.2-1.6q-1.3-0.5-2.7-0.5zm-1.6 12.3h-1.6v-9.5q0.3 0 0.7 0q0.3 0 0.7 0q0.3 0 0.7 0q0.3 0 0.7 0q0.3 0 0.7 0q0.4 0.1 0.8 0.2q0.4 0 0.7 0.2q0.4 0.1 0.7 0.3q0.3 0.2 0.5 0.5q0.1 0.2 0.3 0.4q0.1 0.3 0.1 0.6q0.1 0.3 0 0.6q0 0.4-0.1 0.8q-0.1 0.4-0.4 0.7q-0.2 0.3-0.6 0.5q-0.3 0.2-0.7 0.3q1.2 0 1.6 2.3q0 0.3 0.1 0.7q0 0.3 0.1 0.6q0.1 0.3 0.2 0.6q0.1 0.2 0.2 0.5h-1.6q-0.2-0.3-0.3-0.6q-0.1-0.3-0.2-0.6q0-0.3-0.1-0.6q-0.1-0.3-0.1-0.6q0-0.4-0.2-0.7q-0.1-0.4-0.4-0.6q-0.3-0.3-0.7-0.4q-0.4-0.1-0.8 0h-1zm0-5.3h1.1c1.2 0 2.3-0.5 2.3-1.7c0-1.2-0.6-1.7-2.3-1.7h-1.1z" />
			<path id="Layer" class="s1" d="m1115 4.5h30.5l55.7 70.4v-70.4h30.5v114.9h-30.5l-55.4-70.3h-0.3v70.3h-30.5z" />
			<path id="Layer" fill-rule="evenodd" class="s1" d="m1451.6 119.4h-38.2l-28.9-44.2h-0.3v44.2h-30.7v-114.9h45.9c23.3 0 40.9 10.8 40.9 35.4c0.3 3.8-0.2 7.6-1.4 11.2c-1.1 3.6-2.9 7-5.3 10c-2.3 3-5.2 5.5-8.5 7.4c-3.3 2-6.9 3.3-10.6 3.9zm-67.5-63.3h3c10 0 21.3-1.8 21.3-14.4c0-12.5-11.3-14.3-21.3-14.3h-3z" />
			<path id="Layer" class="s1" d="m1571 55.4c-0.3 16.7-1.6 31.1-12 45.5c-2.8 3.7-6.1 7-9.7 9.9c-3.7 2.9-7.6 5.4-11.9 7.4c-4.2 1.9-8.6 3.4-13.2 4.2c-4.6 0.9-9.3 1.3-13.9 1c-37.1 0-63-24.6-63-60.8c0-37.3 26-61.9 64.1-61.9c24.2 0 43.1 10.6 53.2 32.2l-29.1 11.9c-0.9-2.6-2.2-5.1-3.8-7.4c-1.7-2.3-3.7-4.2-6-5.9c-2.2-1.6-4.8-2.9-7.4-3.7c-2.7-0.9-5.5-1.3-8.3-1.3c-20.3 0-30.7 18.8-30.7 36.4c0 17.5 10.9 35.8 31.1 35.8c13.3 0 23.6-6.7 24.8-20h-25.1v-23.3z" />
			<path id="Layer" class="s1" d="m1558.7 4.5h36.9l22.3 31.3l22.2-31.3h37l-43.8 59.7v55.2h-30.8v-55z" />
			<path id="Layer" class="s1" d="m1062.1 31.2c-3.1 1-6 2.4-8.6 4.3c-2.6 1.9-4.9 4.2-6.8 6.8c-1.9 2.7-3.4 5.6-4.3 8.7h55.8v23.1h-55.4c1.1 2.9 2.6 5.7 4.6 8.2c2 2.4 4.3 4.5 6.9 6.3c2.6 1.7 5.5 3 8.6 3.8c3 0.9 6.1 1.2 9.3 1.1q3.7-0.1 7.4-0.9q3.6-0.9 7-2.4q3.3-1.6 6.3-3.9q3-2.3 5.4-5.1v35.8q-3.2 1.2-6.5 2.2q-3.3 0.9-6.7 1.6q-3.3 0.7-6.7 1.1q-3.4 0.4-6.9 0.5q-6 0-11.9-1.1q-5.9-1.1-11.5-3.3q-5.6-2.2-10.7-5.4q-5.1-3.2-9.5-7.2c-3.1-2.7-5.8-5.8-8.2-9.1c-2.4-3.3-4.4-6.9-6-10.7c-1.6-3.7-2.8-7.7-3.6-11.7c-0.7-4-1-8.1-0.9-12.2q0-5.8 1.1-11.6q1.1-5.7 3.3-11.2q2.2-5.4 5.4-10.3q3.2-4.9 7.3-9.1q4.4-4.4 9.5-7.9q5.1-3.4 10.8-5.9q5.7-2.4 11.8-3.6q6-1.3 12.2-1.3q3.6 0 7.1 0.4q3.6 0.4 7.1 1.2q3.4 0.7 6.8 1.8q3.4 1.1 6.7 2.5v35.9q-2.4-3-5.4-5.4q-3-2.4-6.4-4.1q-3.5-1.7-7.2-2.5q-3.8-0.8-7.6-0.7c-3.2-0.1-6.5 0.3-9.6 1.3z" />
			<path id="Layer" class="s1" d="m1298.8 31.2c-3.1 0.9-6.1 2.4-8.7 4.3c-2.7 1.9-5 4.2-6.9 6.8c-1.9 2.7-3.3 5.6-4.3 8.7h56v23.4h-55.4c1.1 2.9 2.7 5.6 4.6 8.1c2 2.4 4.3 4.5 6.9 6.2c2.7 1.7 5.5 3 8.5 3.8c3 0.8 6.2 1.2 9.3 1q3.7 0 7.4-0.9q3.6-0.8 7-2.4q3.4-1.6 6.3-3.9q3-2.2 5.4-5.1v35.8q-3.2 1.2-6.5 2.2q-3.3 0.9-6.6 1.6q-3.4 0.7-6.8 1.1q-3.4 0.4-6.8 0.5q-6 0-11.9-1.1q-5.9-1.1-11.5-3.3q-5.6-2.2-10.7-5.4q-5.1-3.2-9.6-7.2c-3-2.7-5.8-5.8-8.2-9.1c-2.4-3.3-4.4-6.9-6-10.7c-1.6-3.7-2.8-7.6-3.6-11.7c-0.7-4-1-8.1-0.9-12.2q0-5.8 1.1-11.6q1.1-5.7 3.3-11.2q2.2-5.4 5.4-10.3q3.3-4.9 7.4-9.1q4.3-4.4 9.4-7.9q5.2-3.4 10.9-5.9q5.7-2.4 11.7-3.6q6.1-1.3 12.3-1.3q3.6 0 7.1 0.4q3.5 0.4 7 1.2q3.5 0.7 6.9 1.8q3.4 1.1 6.6 2.5v35.9q-2.3-3-5.3-5.5q-3-2.4-6.4-4q-3.5-1.7-7.3-2.5q-3.7-0.8-7.5-0.7c-3.3-0.1-6.5 0.3-9.6 1.3z" />
			<path id="Layer" class="s1" d="m205.2 34.3l46.1-1.2l-4.7 11.2l-41.4-0.9v-9.1z" />
			<path id="Layer" class="s1" d="m205.2 65.4v-9.4l36.7-0.9l-4.7 11.1l-32-0.8z" />
			<path id="Layer" class="s1" d="m19.1 39l50-1.3v2.5l-50-1.2z" />
			<path id="Layer" class="s1" d="m9.8 60.9l59.3-1.5v2.9l-59.3-1.4z" />
			<path id="Layer" class="s1" d="m0 83.6l69.1-1.7v3.3l-69.1-1.6z" />
			<path id="Layer" class="s0" d="m69.1 40.2h3.8q-0.8 2-1.4 3.9q-0.6 2-1.1 4q-0.5 2-0.8 4.1q-0.3 2-0.5 4.1z" />
			<path id="Layer" class="s0" d="m84 22.3q-2.1 2.3-3.9 4.8q-1.8 2.5-3.3 5.2q-1.6 2.6-2.9 5.4h-4.8v-37.7h55.5q-5 0.9-9.9 2.6q-4.9 1.6-9.5 3.9q-4.6 2.2-8.8 5.1q-4.3 2.9-8.1 6.3q-2.3 2.1-4.3 4.4z" />
			<path id="Layer" class="s0" d="m69.5 70.3q0.3 1.9 0.7 3.9q0.5 2 1 3.9q0.6 1.9 1.3 3.8h-3.4v-15.6q0.1 2 0.4 4z" />
			<path id="Layer" class="s0" d="m99.7 112.3q5.1 2.9 10.6 5.1q5.5 2.2 11.2 3.6q5.8 1.3 11.7 1.8h-64.2v-37.5h4.8q0.6 1.3 1.3 2.6q0.7 1.2 1.4 2.5q0.8 1.2 1.6 2.4q0.8 1.1 1.7 2.3q1.1 1.4 2.3 2.8q1.2 1.4 2.5 2.7q1.3 1.3 2.6 2.6q1.4 1.2 2.8 2.4q4.6 3.7 9.7 6.7z" />
			<path id="Layer" class="s0" d="m145.9 29q3 0.4 5.9 1.3q2.9 0.9 5.7 2.1q2.7 1.3 5.3 3l-46.9 1.1q2.5-2 5.3-3.5q2.9-1.5 5.9-2.5q3.1-1 6.3-1.5q3.2-0.5 6.4-0.4q3 0 6.1 0.4z" />
			<path id="Layer" class="s0" d="m205.2 34.3l-35.3 0.9v-30.3q-2-0.8-4.1-1.5q-2-0.7-4.1-1.3q-2.1-0.7-4.2-1.2q-2.2-0.5-4.3-0.9h52z" />
			<path id="Layer" class="s0" d="m205.2 56l-100.5 2.5q0.2-2.3 0.7-4.7q0.5-2.3 1.4-4.5q0.9-2.2 2-4.2q1.2-2.1 2.7-4l93.7 2.3z" />
			<path id="Layer" class="s0" d="m205.2 88.4v34.3h-59.8q3.1-0.4 6.2-0.9q3.1-0.5 6.2-1.2q3-0.7 6.1-1.5q3-0.8 6-1.7v-29.9z" />
			<path id="Layer" class="s0" d="m205.2 78.6l-93.9 2.4q-1.5-1.9-2.7-4q-1.2-2.1-2.1-4.4q-0.8-2.3-1.3-4.7q-0.4-2.4-0.5-4.8l100.5 2.6z" />
			<path id="Layer" class="s0" d="m134.1 92.9q-3-0.5-6-1.3q-2.9-0.9-5.7-2.3q-2.8-1.3-5.3-3.1l44.4 1q-2.4 1.5-4.9 2.6q-2.6 1.1-5.3 1.8q-2.7 0.8-5.5 1.2q-2.7 0.4-5.5 0.4q-3.1 0.1-6.2-0.3z" />
			<path id="Layer" class="s1" d="m205.2 88.4v-10l27-0.7l-4.8 11.2l-22.2-0.5z" />
			<path id="Layer" fill-rule="evenodd" class="s0" d="m1625.2 188.4l14.8-38.4l14.7 38.4l14.6-37.3h7.1l-21.7 54.2l-14.7-38.2l-14.8 38.2l-21.6-54.2h7zm-36.5-36.3c3.3 1.4 6.3 3.4 8.9 5.9c2.5 2.5 4.5 5.5 5.9 8.8c1.4 3.3 2.1 6.8 2.1 10.4c-0.3 7-3.3 13.6-8.4 18.5c-5.1 4.8-11.9 7.5-18.9 7.5c-7 0-13.8-2.7-18.9-7.5c-5-4.9-8.1-11.5-8.4-18.5c0-3.6 0.8-7.1 2.1-10.4c1.4-3.3 3.4-6.3 6-8.8c2.5-2.5 5.5-4.5 8.8-5.9c3.3-1.3 6.8-2 10.4-2.1c3.6 0 7.1 0.8 10.4 2.1zm-10.4 46.1c2.7 0 5.5-0.5 8-1.6c2.6-1.1 4.9-2.6 6.8-4.6c1.9-1.9 3.5-4.2 4.5-6.8c1.1-2.5 1.6-5.2 1.5-8c0-5.5-2.2-10.8-6.1-14.7c-3.9-3.9-9.2-6.1-14.8-6.1c-5.5 0-10.8 2.2-14.7 6.1c-3.9 3.9-6.1 9.2-6.2 14.7c0 2.8 0.5 5.5 1.5 8c1.1 2.6 2.6 4.9 4.5 6.8c2 2 4.3 3.5 6.8 4.6c2.5 1.1 5.3 1.6 8 1.6zm-27.6 4.9h-7.9l-15.2-21.9h-2.7v21.9h-6.5v-51.9h7.9q1.7-0.2 3.5-0.1q1.8 0.1 3.5 0.4q1.8 0.3 3.5 0.8q1.7 0.5 3.3 1.3q1.6 0.9 2.9 2.3q1.2 1.3 2.1 3q0.9 1.6 1.4 3.4q0.4 1.8 0.4 3.7c0.1 1.7-0.2 3.5-0.8 5.2c-0.6 1.6-1.4 3.2-2.6 4.5c-1.1 1.3-2.5 2.5-4.1 3.3c-1.5 0.8-3.2 1.3-5 1.6zm-25.8-27.3h2.1c6.7 0 13.8-1.3 13.8-9.5c0-8.2-7.7-9.3-14.1-9.3h-1.8zm-10.9 27.2h-7.9l-15.2-21.9h-2.7v21.9h-6.5v-51.9h7.9q1.8-0.2 3.5-0.1q1.8 0.1 3.6 0.4q1.7 0.3 3.4 0.8q1.7 0.6 3.3 1.3q1.6 1 2.9 2.3q1.2 1.4 2.2 3q0.9 1.6 1.3 3.4q0.5 1.8 0.5 3.7c0 1.8-0.3 3.5-0.8 5.2c-0.6 1.7-1.5 3.2-2.7 4.5c-1.1 1.4-2.5 2.5-4.1 3.3c-1.5 0.8-3.2 1.4-5 1.6zm-26.1-27.3h2c6.7 0 13.9-1.3 13.9-9.5c0-8.2-7.7-9.3-14.1-9.3h-1.4zm-29.7-23.7c3.3 1.3 6.3 3.3 8.8 5.8c2.5 2.6 4.6 5.6 5.9 8.8c1.4 3.3 2.1 6.9 2.2 10.4c-0.4 7.1-3.4 13.7-8.5 18.5c-5 4.9-11.8 7.6-18.8 7.6c-7.1 0-13.8-2.7-18.9-7.6c-5.1-4.8-8.1-11.4-8.4-18.5c0-3.5 0.7-7 2.1-10.3c1.4-3.3 3.4-6.3 5.9-8.8c2.5-2.6 5.5-4.6 8.8-5.9c3.3-1.4 6.9-2.1 10.4-2.1c3.6 0 7.2 0.7 10.5 2.1zm-10.5 46.1c2.8 0 5.6-0.4 8.2-1.5c2.6-1 4.9-2.5 6.9-4.4c2-2 3.6-4.3 4.7-6.8c1.1-2.6 1.7-5.3 1.6-8.1c0-5.5-2.1-10.8-6.1-14.8c-3.9-3.9-9.2-6.1-14.7-6.1c-5.6 0-10.9 2.2-14.8 6.1c-3.9 4-6.1 9.3-6.2 14.8c0 2.7 0.5 5.5 1.6 8c1 2.5 2.5 4.8 4.5 6.8c1.9 2 4.2 3.5 6.7 4.6c2.6 1 5.3 1.6 8.1 1.6zm-73.1-29.6l-6 34.4h-6.7l10.1-54.1l17.9 41.1l18-41.1l10.6 54.3h-6.7l-6-34.4l-15.6 35.5zm-31.2-16.4c3.3 1.3 6.3 3.3 8.8 5.9c2.5 2.5 4.6 5.5 5.9 8.8c1.4 3.3 2.1 6.8 2.2 10.4c-0.4 7-3.4 13.6-8.5 18.4c-5.1 4.9-11.8 7.6-18.8 7.6c-7.1 0-13.8-2.7-18.9-7.6c-5.1-4.8-8.1-11.4-8.5-18.4c0.1-3.6 0.8-7.1 2.2-10.4c1.4-3.3 3.4-6.3 5.9-8.8c2.5-2.5 5.5-4.5 8.8-5.9c3.3-1.4 6.9-2.1 10.4-2.1c3.6 0 7.1 0.7 10.5 2.1zm-10.5 46.1c2.8 0 5.5-0.6 8-1.6c2.6-1.1 4.9-2.7 6.8-4.6c2-2 3.5-4.3 4.6-6.8c1-2.6 1.5-5.3 1.4-8c0-5.6-2.2-10.9-6.1-14.8c-3.9-3.9-9.2-6.1-14.7-6.1c-5.6 0-10.9 2.2-14.8 6.1c-3.9 3.9-6.1 9.2-6.2 14.8c0 2.7 0.5 5.4 1.6 8c1 2.5 2.5 4.8 4.5 6.8c1.9 1.9 4.2 3.5 6.7 4.5c2.6 1.1 5.3 1.7 8 1.7zm-38.1 4.7h-6.4v-45.9h-12.4v-5.9h31.2v5.9h-12.4zm-39.1 0h-7.9l-15.5-21.8h-2.7v21.8h-6.5v-51.6h7.9q1.8-0.2 3.5-0.1q1.8 0.1 3.5 0.4q1.8 0.3 3.5 0.8q1.7 0.5 3.3 1.3q1.6 0.9 2.8 2.3q1.3 1.3 2.2 3q0.9 1.6 1.4 3.4q0.5 1.8 0.4 3.7c0.1 1.7-0.2 3.5-0.7 5.2c-0.6 1.6-1.5 3.2-2.7 4.5c-1.1 1.3-2.5 2.5-4 3.3c-1.6 0.8-3.3 1.4-5.1 1.6zm-26-27h2.1c6.7 0 13.8-1.4 13.8-9.6c0-8.2-7.7-9.3-14.1-9.3h-1.8zm-41.2-25h28v6h-21.5v14.3h20.9v6h-20.9v19.7h21.5v6h-28zm-16.4 51.9h-6.5v-46.1h-12.4v-6h31.3v6h-12.6zm-33.3 0h-6.5v-46.2h-12.4v-6h31.3v6h-12.4zm-50.1-51.9h28.1v5.9h-21.5v14.4h20.8v5.9h-20.8v19.7h21.5v6h-28.1zm-37.1 0.1h6.3c9.9 0 19.2 2.3 19.2 14.3q0 1.4-0.4 2.9q-0.3 1.4-1.1 2.7q-0.7 1.3-1.8 2.4q-1 1.1-2.3 1.8c1.4 0.3 2.9 0.9 4.1 1.7c1.3 0.8 2.5 1.9 3.4 3.1c0.9 1.2 1.7 2.5 2.2 3.9c0.5 1.5 0.7 3 0.7 4.5c0 10.4-8.8 14.6-18 14.6h-11.9zm6.8 46h5c6 0 12.3-1.8 12.3-9.2c0-7.3-7.3-8.8-13.3-8.8h-4zm0-23.3h1.6c6.2 0 11.3-1.3 11.3-8.7c0-7.3-5.1-8.5-11.1-8.5h-1.8zm-67.3 16l-5.9 13.1h-7l25.1-54.3l24.9 54.3h-7l-6-13.1zm12.1-27.1l-9.3 21.1h18.5zm-44.6 40.2h-7.9l-15.2-21.9h-2.7v21.9h-6.6v-52.1h7.9q1.8-0.2 3.6-0.1q1.7 0.1 3.5 0.4q1.7 0.3 3.4 0.8q1.7 0.5 3.3 1.3q1.6 0.9 2.9 2.3q1.3 1.3 2.2 3q0.9 1.6 1.3 3.4q0.5 1.8 0.5 3.7c0 1.8-0.2 3.5-0.8 5.2c-0.6 1.6-1.5 3.2-2.6 4.5c-1.2 1.4-2.6 2.5-4.2 3.3c-1.5 0.8-3.2 1.4-5 1.6zm-25.8-27.4h2.1c6.6 0 13.8-1.4 13.8-9.6c0-8.2-7.8-9.3-14.2-9.3h-1.7zm-29.5-23.5c3.3 1.4 6.3 3.4 8.9 5.9c2.5 2.5 4.5 5.5 5.9 8.8c1.4 3.3 2.1 6.8 2.1 10.4c-0.3 7-3.3 13.6-8.4 18.5c-5.1 4.8-11.9 7.5-18.9 7.5c-7 0-13.8-2.7-18.9-7.5c-5.1-4.9-8.1-11.5-8.4-18.5c0-3.6 0.7-7.1 2.1-10.4c1.4-3.3 3.4-6.3 6-8.8c2.5-2.5 5.5-4.5 8.8-5.9c3.3-1.4 6.9-2.1 10.4-2.1c3.6 0 7.1 0.8 10.4 2.1zm-10.4 46.1c2.8 0 5.5-0.6 8-1.6c2.6-1.1 4.9-2.6 6.8-4.6c1.9-1.9 3.5-4.3 4.5-6.8c1-2.5 1.6-5.3 1.5-8c0-5.5-2.2-10.8-6.1-14.7c-3.9-4-9.2-6.1-14.8-6.1c-5.5 0-10.8 2.1-14.7 6.1c-4 3.9-6.2 9.2-6.2 14.7c0 2.7 0.5 5.5 1.5 8c1.1 2.6 2.6 4.9 4.5 6.8c2 2 4.3 3.5 6.8 4.6c2.6 1.1 5.3 1.6 8.1 1.6zm-49.5-41.2v14.6h17.9v6h-17.9v25.4h-6.5v-51.9h25.3v6zm-73.3-6.1h10.8c16 0 29.3 8 29.3 25.7c0 17.8-13.1 26.4-29.5 26.4h-10.6zm6.5 46h2.3c13.3 0 25-4.5 25-19.8c0-15.2-11.4-20.1-24.7-20.1h-2.3zm-25.9 0h15.9v6h-22.4v-52.1h6.5zm-10.7 6h-7.9l-15.2-21.9h-2.7v21.9h-6.5v-51.9h7.9q1.7-0.2 3.5-0.1q1.8 0.1 3.5 0.4q1.8 0.3 3.4 0.8q1.7 0.5 3.3 1.3q1.6 0.9 2.9 2.3q1.3 1.3 2.2 3q0.9 1.6 1.4 3.4q0.4 1.8 0.4 3.7c0.1 1.8-0.2 3.5-0.8 5.2c-0.5 1.6-1.4 3.2-2.6 4.5c-1.1 1.4-2.5 2.5-4.1 3.3c-1.5 0.8-3.2 1.4-5 1.6zm-25.9-27.3h2.1c6.6 0 13.8-1.3 13.8-9.5c0-8.2-7.7-9.3-14.2-9.3h-1.7zm-29.3-23.5c3.3 1.4 6.3 3.4 8.8 5.9c2.6 2.5 4.6 5.5 6 8.8c1.3 3.3 2.1 6.8 2.1 10.4c-0.4 7-3.4 13.6-8.5 18.4c-5 4.9-11.8 7.6-18.8 7.6c-7.1 0-13.8-2.7-18.9-7.6c-5.1-4.8-8.1-11.4-8.4-18.4c0-3.6 0.7-7.1 2.1-10.4c1.4-3.3 3.4-6.3 5.9-8.8c2.6-2.5 5.6-4.5 8.9-5.9c3.3-1.4 6.8-2.1 10.4-2.1c3.6 0 7.1 0.7 10.4 2.1zm-10.4 46.1c2.7 0 5.5-0.6 8-1.6c2.5-1.1 4.8-2.7 6.8-4.6c1.9-2 3.4-4.3 4.5-6.8c1-2.6 1.5-5.3 1.5-8c0-5.6-2.2-10.9-6.2-14.8c-3.9-3.9-9.2-6.1-14.7-6.1c-5.6 0-10.9 2.2-14.8 6.1c-3.9 3.9-6.1 9.2-6.2 14.8c0 2.7 0.6 5.4 1.6 8c1 2.5 2.6 4.9 4.5 6.8c1.9 2 4.3 3.5 6.8 4.6c2.5 1 5.3 1.6 8 1.6zm-77-9.8l14.7-38.4l14.8 38.4l14.6-37.3h7.1l-21.7 54.2l-14.8-38.2l-14.7 38.2l-21.6-54.2h7.4zm-71.9-37.5h28.3v5.9h-21.5v14.4h20.9v6h-20.9v19.7h21.2v5.9h-28zm-15.6 21v-20.9h6.5v51.9h-6.5v-24.9h-24.9v24.9h-6.5v-51.9h6.5v20.9zm-47.6 31h-6.6v-46h-12.3v-6h31.2v6h-12.3zm-54.2-6h15.8v6h-22.4v-52h6.6zm-41.3-45.9h28v5.9h-21.6v14.4h21v5.9h-21v19.7h21.6v6h-28zm-40.5 0.1v30.7c0 8.5 2.6 16.3 12.6 16.3c10.1 0 12.6-7.8 12.6-16.3v-30.7h6.6v32.7c0.2 5.2-1.6 10.4-5.2 14.2c-3.7 3.8-8.7 6-14 6c-5.2 0-10.3-2.2-13.9-6c-3.6-3.8-5.5-9-5.2-14.2v-32.9zm-30.3 5.9v14.6h17.9v6h-17.9v25.4h-6.5v-52.1h25.2v6z" />
		</g>
	</g>
</svg>