<svg version="1.2" xmlns="http://www.w3.org/2000/svg" viewBox="0 0 1529 163" width="1529" height="163"><style>.s0{fill:#006bad}</style><path class="s0" d="m0.8 60.1c0-11.4-1.1-18.9 4.9-31.3c2-4.2 4.5-8.1 7.6-11.6c3.1-3.5 6.7-6.6 10.6-9.1c3.9-2.5 8.2-4.5 12.7-5.8c4.5-1.3 9.1-2 13.8-2.1h153.7v31h-98.3c-3.6 0-7.3 0.7-10.6 2.1c-3.4 1.4-6.5 3.5-9.1 6c-2.6 2.6-4.6 5.7-6 9.1c-1.4 3.4-2.2 7-2.2 10.7v44.9c0 3.6 0.8 7.3 2.2 10.6c1.4 3.4 3.4 6.5 6 9.1c2.6 2.6 5.7 4.6 9.1 6c3.3 1.5 7 2.2 10.6 2.2h98.3v31h-153.3c-6.6-0.1-13.2-1.4-19.3-4c-6.2-2.6-11.7-6.4-16.4-11.1c-4.6-4.8-8.3-10.4-10.7-16.6c-2.5-6.1-3.7-12.7-3.6-19.4z" /><path fill-rule="evenodd" class="s0" d="m1090 31.3h-62.4v131.6h-78.4v-131.6h-59.9v-31.1h200.7zm-261.4 69.8v-100.8h44.9v162.6h-85.2l-73.1-100.8v100.8h-44.9v-162.6h85.2zm-224.2 1.4v-102.2h44.4v162.6h-85.7l-73.2-100.8v100.8h-45.4v-162.6h85.7zm-289.5-69.1c-3.4 1.4-6.4 3.4-9 6c-2.6 2.6-4.7 5.7-6.1 9.1c-1.4 3.4-2.1 7-2.1 10.7h0.1q0 0.2-0.1 0.4v7.8h125.9v28.4h-125.9v7.7q0 0.2 0.1 0.3h-0.1c0 3.7 0.7 7.3 2.1 10.7c1.4 3.4 3.5 6.5 6.1 9.1c2.6 2.6 5.6 4.6 9 6c3.4 1.4 7 2.1 10.7 2.1c0.3 0 98 0.2 98 0.2v31h-152.8c-6.7 0-13.3-1.3-19.5-3.9c-6.2-2.6-11.8-6.3-16.6-11.1c-4.7-4.7-8.4-10.3-11-16.5c-2.6-6.2-3.9-12.9-3.9-19.6v-60.5c0-6.7 1.3-13.3 3.9-19.5c2.6-6.2 6.3-11.8 11-16.6c4.8-4.7 10.4-8.5 16.6-11c6.2-2.6 12.8-3.9 19.5-3.9h152.8v30.9h-98c-3.7 0-7.3 0.8-10.7 2.2zm989.5 37.1c-1.4 4.3-3.5 8.3-6.2 12c-2.7 3.6-5.9 6.8-9.6 9.5c-3.6 2.7-7.7 4.7-12 6.2l30.1 64.7h-78.8l-29.3-63h-13.9v63h-78.4v-162.6h156.7c19.2 0 43.7 13.9 43.7 46.2v10.7c-0.1 4.5-0.8 9-2.3 13.3zm-43.4-23.4c0-2.1-0.4-4.2-1.2-6.1c-0.8-1.9-1.9-3.6-3.4-5.1c-1.4-1.5-3.2-2.6-5.1-3.4c-1.9-0.8-4-1.2-6-1.2c-0.3 0-45.8 0-60.6 0v40.7c0 0 60.3 0.2 60.6 0.2c2 0 4.1-0.4 6-1.2c1.9-0.7 3.7-1.9 5.1-3.3c1.5-1.5 2.6-3.2 3.4-5.1c0.8-1.9 1.2-4 1.2-6c0 0 0-9.5 0-9.5zm267.2 65.8c0 6.6-1.3 13.1-3.8 19.1c-2.5 6.1-6.2 11.6-10.8 16.2c-4.7 4.7-10.2 8.4-16.2 10.9c-6.1 2.5-12.6 3.8-19.2 3.8h-100.6c-6.3 0-12.5-1.2-18.3-3.5c-5.9-2.3-11.2-5.7-15.8-10c-4.6-4.3-8.3-9.4-11-15.1c-2.7-5.7-4.3-11.8-4.7-18.1c0-0.1-0.1-66.4-0.1-66.4c0.1-6.6 1.4-13 3.9-19c2.6-6 6.3-11.5 10.9-16.1c4.6-4.5 10.1-8.2 16.2-10.7c6-2.4 12.4-3.7 19-3.7h100.5c6.2 0 12.4 1.2 18.3 3.4c5.8 2.3 11.1 5.7 15.7 10c4.6 4.2 8.3 9.3 11 14.9c2.7 5.7 4.3 11.8 4.8 18zm-114.3 10.2c1.8 1.8 3.9 3.5 6.1 4.8c2.2 1.3 4.6 2.3 7.1 3c2.5 0.7 5.1 1.1 7.7 1.1h18.1c3.8 0 7.6-0.8 11.1-2.2c3.5-1.5 6.7-3.6 9.4-6.3c2.7-2.7 4.9-5.9 6.3-9.4c1.5-3.6 2.2-7.3 2.2-11.1v-42.7c0-3.8-0.7-7.6-2.2-11.1c-1.4-3.5-3.6-6.7-6.3-9.4c-2.7-2.7-5.9-4.9-9.4-6.3c-3.5-1.5-7.3-2.2-11.1-2.2h-18.1q-3.7 0-7.3 0.9q-3.6 1-6.8 2.8q-3.2 1.8-5.9 4.4q-2.7 2.5-4.6 5.7q-1.1 1.7-2 3.5q-0.8 1.8-1.3 3.7q-0.6 1.9-0.8 3.9q-0.3 2-0.3 4c0 14.4 0.1 44.9 0.2 46c0.1 0.9 0.4 2.6 0.4 2.6q0.2 1.1 0.5 2.1q0.3 1 0.6 2q0.4 1 0.9 2q0.4 1 0.9 1.9c1.3 2.3 2.8 4.4 4.6 6.3z" /></svg>