<svg version="1.2" xmlns="http://www.w3.org/2000/svg" viewBox="0 0 1494 1195" width="1494" height="1195"><style>.s0{fill:#006bad}</style><path class="s0" d="m0.8 440.3c0-83.4-7.7-138.6 35.8-229.9c14.7-31 33.6-59.7 56.3-85.4c22.7-25.7 48.8-48.1 77.7-66.6c28.8-18.5 60.1-32.8 93-42.6c32.8-9.8 66.8-14.9 101.1-15.3h1128.5v227.4h-721.2c-26.9 0-53.6 5.3-78.4 15.6c-24.9 10.3-47.4 25.4-66.4 44.5c-19.1 19-34.1 41.6-44.4 66.5c-10.3 24.8-15.6 51.5-15.6 78.4v329.5c0 27 5.3 53.6 15.6 78.5c10.3 24.9 25.3 47.5 44.4 66.5c19 19 41.5 34.1 66.4 44.4c24.8 10.3 51.5 15.6 78.4 15.6h721.2v227.5h-1125.1c-48.8-0.1-97.1-10-142-29c-45-18.9-85.8-46.7-119.9-81.6c-34.2-34.8-61.1-76.2-79.2-121.6c-18.1-45.3-27-93.9-26.2-142.7z" /></svg>