<svg version="1.2" baseProfile="tiny-ps" xmlns="http://www.w3.org/2000/svg" viewBox="0 0 1662 1108" width="1662" height="1108">
	<title>CENTRAL_GARDEN_&amp;_PET_A_Lge-svg</title>
	<style>
		tspan { white-space:pre }
		.s0 { fill: #046f43 } 
	</style>
	<g id="#046f43ff">
		<path id="Layer" class="s0" d="m392.34 123.97c116.85-72.92 252.18-115.88 389.74-123.49c-92.36 61.33-184.83 122.49-277.12 183.92c0.15 33.14-0.05 66.31 0.1 99.48c140.71-92.93 281.02-186.45 421.68-279.48c52.4 6.18 104.26 17.02 154.66 32.77c-192.06 127.65-384.43 254.84-576.44 382.54c0.13 33.14-0.05 66.31 0.08 99.46c223.94-148.13 447.52-296.8 671.33-445.13c172.51 78.28 316.53 217.77 399.45 388.12c-130.02-86.27-260.04-172.51-390.06-258.72c-25.31 16.25-49.98 33.45-75.29 49.69c172.48 114.68 345.12 229.16 517.83 343.49c14.97 50.59 24.76 102.69 29.64 155.21c-216.42-143.27-432.5-287.04-648.95-430.23c-26.06 14.77-50.53 33.09-75.86 49.37c209.69 139.04 419.33 278.15 629.02 417.19c32.77 22.41 66.75 43.21 98.92 66.36c-2.5 86.04-18.5 171.61-46.97 252.82c-21.68 0.05-43.37 0.03-65.02 0.03c0-64.14 0-128.25 0-192.36c-27.72-18.5-55.56-36.8-83.33-55.2c0.18 82.51 0.03 165.02 0.08 247.56c-37.56 0-75.11 0-112.67 0c0-107.42-0.03-214.82 0.03-322.24c-27.87-18.75-56.06-37.05-83.9-55.8c0 126 0 252.02 0 378.04c-37.56 0-75.11 0-112.64 0c-0.03-150.88-0.05-301.76 0-452.64c-108.54-72.07-217.13-144.02-325.66-216.04c-108.71 72.05-217.43 144.07-325.99 216.29c0.05 150.8 0 301.58 0.03 452.39c-37.56 0-75.11 0-112.67 0c0.03-327.82 0-655.61 0-983.41zm-195.39 169.03c33.6-40.15 71.36-76.8 112.09-109.7c0.13 308.02 0.03 616.03 0.05 924.07c-37.56 0-75.11 0-112.67 0c0-241.78 0-483.58 0-725.36c0.35-29.67-0.73-59.43 0.53-89.02zm-134.63 221.02c14.55-35.27 31.5-69.54 50.7-102.49c0.35 231.96 0.08 463.9 0.15 695.84c-21.73 0-43.47 0-65.17 0c-68.3-190.58-63.19-406.3 14.32-593.35zm698.07 301.71c46.95-0.03 93.89 0 140.84 0c0 97.21 0 194.44 0 291.64c-46.95 0-93.89 0-140.84 0c0-97.21 0-194.41 0-291.64z" />
	</g>
</svg>