<svg version="1.2" xmlns="http://www.w3.org/2000/svg" viewBox="0 0 1421 1562" width="1421" height="1562">
	<title>logo-header-nuevo-svg</title>
	<style>
		.s0 { fill: #7fc3e7 } 
	</style>
	<g id="#7fc3e7ff">
		<path id="Layer" class="s0" d="m546.9 41.4c51.8-17.6 105.4-29.3 159-40.6-22.8 23.6-38.7 53-49.6 83.8-14.6 40.8-21.6 83.9-26 127-6.9 69.1-6.2 138.6-7.8 208-1.3 44-2 88.5-12.2 131.5-5.4 20.7-13.7 43.2-32.9 54.9-18.8 11-41.8 6.3-60.9-1.3-63.3-25.2-125.1-57.8-174.4-105.6-24.7-24.3-45.7-53.1-57.7-85.8-8.8-24-12.5-49.9-10.8-75.4 5.5-69.1 34.8-136.5 83.6-186.1 51.7-53.4 120-87 189.7-110.4zm324.3 145.7c43.5-17.9 90.9-26.6 137.9-23.4 69.1 4.4 134 34.7 189.3 75.2 64.6 47 118.2 106.9 169.9 167.4-47.1-12.6-96.9-5.8-143 7.3-70.4 20.3-135.7 54.1-200.3 87.9-45.1 23.7-89.7 48.6-136.4 69-24.4 10.2-49.6 20-76.2 22.1-16.3 1.2-34.4-2.3-45.9-14.8-12.3-13-16.7-31.2-18.9-48.4-6.6-54.2-8.3-109.4 0.5-163.4 6.6-40.7 19.8-81.1 43.8-114.9 19.8-28.2 47.6-50.6 79.3-64zm-858.1 272.6c22.5 43.3 61.3 75.4 102.2 100.7 64.6 39.3 136.1 65.2 207 90.7 48.3 17.3 97.1 33.5 143.8 55.1 23 11 46.3 23.2 64.1 41.9 11.7 12.2 18.8 29.7 14.8 46.6-4.9 22.6-21.9 39.3-36.5 56.1-29.7 32.9-62.3 63.4-98.9 88.5-33.7 23-71.2 41.6-111.6 48.7-35 6.3-71.9 2.7-104.7-11.1-65.4-28.2-120.8-79.6-151.7-143.9-36.8-75.2-43.7-161-40.4-243.6 1.8-43.4 6.6-86.6 11.9-129.7zm1093.9 144.4c43.7-13.3 91.8-16.3 135.3-0.8 29.2 9.9 54.5 28.3 77.1 48.9 32.3 29.2 58.3 65.6 74.9 105.9 24.4 58.7 29 123.6 23.8 186.3-6.3 74-26 145.9-47.1 216.8-16.5-51.2-54.4-91.9-94.9-125.6-80-65.4-173.8-110.1-262.3-162.2-31.1-18.7-62.5-37.7-88.6-63.2-14-14.1-27.4-32.2-26.3-53.1 1.3-21.4 17-38 32.5-51 52.3-43.3 110.2-81.9 175.6-102zm-253 349.4c18.2-8.1 39.1-3.5 57 3.4 56.3 22.1 111.1 50.2 157.6 89.3 30.1 25.6 56.5 56.7 72 93.4 12.4 29 16.7 61.1 13.4 92.4-5 43.5-18.6 86.3-41.2 123.9-31.9 53.6-81.5 94.8-136 124-78.5 42.4-166.1 63.3-252.7 81.6 23.4-24.5 39.5-55.2 50.3-87.2 22.2-66.5 26.7-137.3 29.1-206.9 2-61.8 0.5-123.8 4.1-185.6 2.1-29.7 4.7-59.7 14.6-87.9 5.8-16.3 15.4-32.9 31.8-40.4zm-308.1 51.7c23.6-9.8 48.5-19.3 74.5-18.7 13.8 0.2 28 5.6 37 16.3 11.1 12.6 15.4 29.4 17.8 45.6 7.9 53.5 11 108.1 3.9 161.8-5.8 42.6-18.5 85.3-43.4 120.8-19.1 27.4-45.8 49.4-76.3 63-44.5 19.5-93.4 29.2-142 26.2-69.1-4.1-134.2-33.7-190.1-73.4-63.8-44.9-117.5-102-169.4-159.8 49 11.8 100.2 2.8 147.3-12.4 72.7-23.8 139.8-61.5 206.2-98.7 44.3-24.6 88-50.5 134.5-70.7z"/>
	</g>
</svg>