<svg version="1.2" baseProfile="tiny-ps" xmlns="http://www.w3.org/2000/svg" viewBox="0 0 1601 346" width="1601" height="346">
	<title>certara-logo-vector-svg</title>
	<style>
		tspan { white-space:pre }
		.shp0 { fill: #d52a2f } 
		.shp1 { fill: #fdbb30 } 
	</style>
	<path id="Layer" fill-rule="evenodd" class="shp0" d="M49.55 220.64C49.55 256.31 74.32 286.65 109.75 286.65C133.46 286.65 148.11 277.07 164.36 262.16L193.4 291.44C172.09 314.33 148.11 328.43 108.15 328.43C46.88 328.43 1.33 279.99 1.33 220.38C1.33 160.76 46.88 112.32 108.15 112.32C148.38 112.32 172.09 126.69 193.4 149.31L164.36 178.59C148.11 163.68 133.46 154.37 109.75 154.37C74.32 154.9 49.55 185.24 49.55 220.64ZM1599.93 121.63C1599.93 154.37 1587.41 184.98 1564.77 208.13C1554.65 218.25 1543.19 226.23 1530.94 232.35L1516.82 198.28C1544.26 184.18 1563.17 155.17 1563.17 121.63C1563.17 79.58 1529.61 45.25 1488.05 45.25C1451.02 45.25 1421.19 75.59 1421.19 113.12C1421.19 114.45 1421.45 116.04 1421.45 117.37L1384.69 117.37C1384.69 116.04 1384.69 114.45 1384.69 113.12C1384.69 55.63 1431.31 8.52 1488.32 8.52C1518.42 8.52 1546.66 20.23 1567.7 41.79C1588.75 63.08 1600.2 91.29 1599.93 121.63ZM220.3 326.57L220.3 118.7L377.21 118.7L377.21 159.43L265.59 159.43L265.59 201.48L363.62 201.48L363.62 242.2L265.59 242.2L265.59 285.85L378.54 285.85L378.54 326.57L220.3 326.57ZM414.24 118.7L509.07 118.7C535.71 118.7 556.22 126.16 569.81 139.73C581.53 151.44 587.65 167.68 587.65 187.37L587.65 187.9C587.65 221.44 569.54 242.47 543.17 252.31L594.05 326.57L540.5 326.57L496.02 260.03L460.05 260.03L460.05 326.57L414.24 326.57L414.24 118.7ZM460.05 219.84L506.41 219.84C528.78 219.84 541.57 207.87 541.57 190.3L541.57 189.77C541.57 170.07 527.98 159.96 505.61 159.96L460.05 159.96L460.05 219.84ZM991.5 326.57L991.5 118.7L1086.6 118.7C1113.24 118.7 1133.75 126.16 1147.34 139.73C1159.06 151.44 1165.19 167.68 1165.19 187.37L1165.19 187.9C1165.19 221.44 1147.07 242.47 1120.7 252.31L1171.58 326.57L1118.04 326.57L1073.55 260.03L1037.59 260.03L1037.59 326.57L991.5 326.57ZM1037.59 219.84L1083.94 219.84C1106.31 219.84 1119.1 207.87 1119.1 190.3L1119.1 189.77C1119.1 170.07 1105.52 159.96 1083.14 159.96L1037.59 159.96L1037.59 219.84ZM714.19 160.76L714.19 268.02L714.46 326.57L668.37 326.57L668.37 160.76L604.7 160.76L604.7 118.7L777.86 118.7L777.86 160.76L714.19 160.76ZM845.52 117.11L887.61 117.11L976.32 326.57L928.37 326.57L909.45 279.99L821.54 279.99L802.63 326.57L756.01 326.57L845.52 117.11ZM893.47 239.54L865.77 172.2L838.06 239.54L893.47 239.54ZM1178.51 284.25L1248.83 117.11L1290.92 117.11L1386.29 344.67L1339.67 344.67L1314.63 279.99L1226.72 279.99L1207.54 326.57L1178.51 284.25ZM1298.38 239.54L1270.68 171.94L1242.97 239.54L1298.38 239.54ZM1401.21 327.1C1401.21 316.72 1409.73 308.21 1420.12 308.21C1430.51 308.21 1439.04 316.72 1439.04 327.1C1439.04 337.48 1430.51 346 1420.12 346C1409.73 346 1401.21 337.75 1401.21 327.1ZM1404.94 327.1C1404.94 335.62 1411.86 342.54 1420.12 342.54C1428.65 342.54 1435.31 335.62 1435.31 327.1C1435.31 318.85 1428.38 311.93 1420.12 311.93C1411.86 311.93 1404.94 318.85 1404.94 327.1ZM1429.71 337.22L1425.18 337.22L1421.45 330.03L1416.39 330.03L1416.39 337.22L1412.4 337.22L1412.4 316.46L1422.25 316.46C1426.78 316.46 1429.45 319.12 1429.45 323.11C1429.45 326.04 1427.85 328.43 1425.18 329.5L1429.71 337.22ZM1422.52 326.3C1424.12 326.3 1425.72 325.51 1425.72 323.11C1425.72 320.72 1424.38 319.92 1422.52 319.92L1416.39 319.92L1416.39 326.3L1422.52 326.3Z" />
	<path id="Layer" class="shp1" d="M1581.82 117.37L1545.06 117.37C1545.06 118.7 1545.32 120.3 1545.32 121.63C1545.32 159.16 1515.49 189.5 1478.46 189.5C1438.24 189.5 1405.74 157.56 1403.61 117.11L1384.96 117.11C1384.96 115.78 1384.96 114.18 1384.96 112.85C1384.96 71.6 1408.67 35.93 1442.76 18.9L1435.84 2.13C1423.32 7.98 1411.86 16.24 1402.01 26.35C1379.36 49.5 1366.84 80.11 1366.84 112.85C1366.84 142.92 1378.3 171.14 1399.34 192.7C1420.39 214.25 1448.63 225.96 1478.73 225.96C1535.73 225.96 1582.35 178.86 1582.35 121.37C1582.09 120.3 1581.82 118.7 1581.82 117.37Z" />
</svg>