<svg version="1.2" xmlns="http://www.w3.org/2000/svg" viewBox="0 0 1541 1278" width="1541" height="1278">
	<title>conformis-svg copy 2-svg</title>
	<style>
		.s0 { fill: #000000 } 
		.s1 { fill: #f57400 } 
	</style>
	<g id="Layer">
		<path id="Layer" class="s0" d="m1210.5 1060.9c-166.9 155.7-357.1 222.2-601.6 216.3-388-10.1-637.4-296.8-605.3-600.6 20.9-194 163-369.2 354.5-449.7-184.2 144.6-285.2 353.2-236.1 552.1 74.2 300.3 392.9 454.7 829 373.1 87.7-17 187.7-51.9 259.5-91.2z"/>
		<path id="Layer" class="s1" d="m1487 811.1c-44.6 47-87.8 87.8-149.4 128.5-338.6 228.6-805.3 243.6-1042.5 34.9-237.2-209-155.7-563.7 182.9-792.2 339.6-228.5 806.3-243.2 1043.5-34.5 2.4 2.4 6.3 6.3 8.7 8.7 8.7 9.8 19.9 33.5-2.4 48.1-59.2 39.7-151.9 76.6-301.3 95.1-28.6-3.5-40.8-2.5-55.8-14.6-70.3-65.5-180.4-112.6-314.8-126.2-273.1-27.1-542.3 90.3-600.5 263.1-57.8 173.1 114.9 336.1 388 364.7 176.6 18.5 344.5-18.8 461.9-97.9 22.3-13.6 35.8-20.9 55.7-20.9 60.6-6.3 250.8 42.2 329.8 92.7 19.5 13.6 7.4 39.7-3.8 50.5z"/>
	</g>
</svg>