<svg version="1.2" xmlns="http://www.w3.org/2000/svg" viewBox="0 0 1626 817" width="1626" height="817">
	<title>Centerra_Gold_Logo-svg</title>
	<style>
		.s0 { fill: #ffffff } 
	</style>
	<g id="layer1">
		<g id="g5007">
			<path id="polyline4877" class="s0" d="m209.3 217.5l49.4 85.5l-49.4 85.5h-98.8l-49.2-85.5l49.2-85.5m781.5 0l49.3 85.5l-49.3 85.5h-98.8l-49.4-85.5l49.4-85.5m568.7 0l49.4 85.5l-49.4 85.5h-98.8l-49.2-85.5l49.2-85.5m-905.8 85.4l49.4 85.5l-49.4 85.6h-98.6l-49.4-85.6l49.4-85.5m955.2 0l49.2 85.5l-49.2 85.6h-98.8l-49.4-85.6l49.4-85.5m246.8 85.4l49.4 85.5l-49.4 85.5h-98.8l-49.2-85.5l49.2-85.5m-789.6 181.4l49.4 85.5l-49.4 85.6h-98.6l-49.4-85.6l49.4-85.5m649.2-85.4l49.2 85.5l-49.2 85.6h-98.8l-49.4-85.6l49.4-85.5m574 160.2l49.3 85.5l-49.3 85.5h-98.7l-49.4-85.5l49.4-85.5" />
			<path id="path4913" fill-rule="evenodd" class="s0" d="m0.9 51.5c0-29.4 20.4-32.7 40.4-32.7h22.9c25.4 0 35.5 10.3 35.5 27.4v2.3h-12.7v-1.9c0-13.6-9-16.7-22.6-16.7h-25c-12.9 0-25.1 1.9-25.1 22.1v17c0 18 11.3 22.2 27.7 22.2h23c12.7 0 23.3-3.9 23.3-17v-2.7h12.6v2.3c0 20.5-10 28.4-35.4 28.4h-30.8c-12.2 0-33.8-3.3-33.8-32.7m149.1-18c0-29.4 20.3-32.7 39.7-32.7h21.9c24.4 0 41.9 6.2 41.9 35v9.1h-89.8v5.1c0 18.3 8.9 23.1 32.6 23.1h18.7c17.2 0 24.2-2.2 25-14.6h13.5v1.6c0 18.6-15.3 24.1-40.6 24.1h-24.9c-17.7 0-38-3.3-38-33.2c0 0 0-17.5 0-17.5zm90-5.1c0-8.2-6.3-16.5-28.4-16.5h-20c-21.6 0-26.6 3.5-27.9 21.9h76.3zm66.6-26.4h12.9v14h0.1c5.2-12.5 15.8-15.2 32.8-15.2h20.5c25.5 0 33.5 12.8 33.5 27.4v54.7h-13.7v-51.4c0-11.8-3.2-19.6-29.7-19.6h-3.4c-32 0-39.3 6-39.3 25.1v45.9h-13.7zm164.6 11.1h-17.9v-11.1h17.9v-19.2h13.7v19.2h53.9v11.1h-53.9v40.4c0 15 5.2 19.6 20.1 19.6h4.2c18.1 0 21-3.8 21-20.8v-6h11v8.9c0 16.1-1.6 29-31 29h-7.5c-25.5 0-31.5-12.4-31.5-25.5zm114.7 20.3c0-29.4 20.3-32.6 39.7-32.6h21.9c24.4 0 42.1 6.1 42.1 35v9h-90v5.1c0 18.4 8.9 23.2 32.6 23.2h18.9c17 0 24-2.3 24.8-14.6h13.7v1.5c0 18.6-15.5 24.2-40.8 24.2h-24.7c-17.9 0-38.2-3.4-38.2-33.2c0 0 0-17.6 0-17.6zm90-5c0-8.3-6.2-16.5-28.4-16.5h-20c-21.6 0-26.7 3.4-28 21.8h76.4zm67.9-26.3h12.7v11.7h0.3c5-10.4 15.3-13 24.7-13h12.9c25.5 0 33.9 8.3 33.9 28v9.7h-12.7v-3.5c0-20-4.2-23.1-28.4-23.1h-8.4c-14.5 0-21.3 9.2-21.3 19.6v51.5h-13.7zm133.4 0h12.8v11.7h0.4c5-10.4 15.2-13 24.7-13h12.8c25.5 0 34 8.3 34 28v9.7h-12.7v-3.5c0-20-4.2-23.1-28.5-23.1h-8.4c-14.5 0-21.4 9.2-21.4 19.6v51.5h-13.7zm212 72.8h-0.3c-3.6 7.2-7.9 9.4-28.9 9.4h-32.7c-20.4 0-26-9.1-26-24.4v-5.3c0-18.4 13-20.6 36.9-20.6h21.8c17.9 0 24.2 1.9 28.9 9.6h0.3v-15.2c0-14.6-9.2-16.5-30-16.5h-20c-17.2 0-20.5 4.1-20.5 10.8v2.9h-13.6v-4c0-14.8 9.2-20.8 33.8-20.8h21.4c25.5 0 42.6 3.8 42.6 27.9v54.3h-13.7c0 0 0-8.1 0-8.1zm0-17.3c0-11.1-9.7-12.5-30.7-12.5h-20.9c-17.6 0-22.6 2.5-22.6 12.6v2.6c0 9 3.2 12.9 21.9 12.9h18.1c24.8 0 34.2-1.8 34.2-11.9z" />
			<path id="path4929" fill-rule="evenodd" class="s0" d="m1148.4 47.6c0-24.9 14-30.8 37.5-30.8h39.4c29.5 0 33.6 10.7 33.6 27.3v2.6h-25.5c0-8.4-4.9-9.4-13.2-9.4h-28.4c-13.2 0-16.6 3.2-16.6 17.7v10.6c0 14.6 3.4 17.7 16.6 17.7h27.9c6.9 0 13.7-1 13.7-9.2v-2.5h-32.5v-17.7h58.5v24.3c0 24.5-12.7 25.6-42.1 25.6h-31.4c-23.5 0-37.5-5.9-37.5-30.8m127.9-25.4c0-24.9 14-30.8 37.5-30.8h41.8c23.5 0 37.5 5.9 37.5 30.8v25.4c0 24.9-14 30.8-37.5 30.8h-41.8c-23.6 0-37.5-5.9-37.5-30.8zm26.8 17.3c0 12.3 2.6 17 14.9 17h33.3c12.4 0 15-4.7 15-17v-9.2c0-10.6-2.6-17.1-16.4-17.1h-30.6c-13.6 0-16.2 6.5-16.2 17.1zm108.7-47.1h26.1v63.3h58.7v21.8h-84.8zm99.7 0h78.7c26.1 0 35.4 8.6 35.4 29.7v25.8c0 21-9.3 29.7-35.4 29.7h-78.7zm26 63.2h46.3c11.2 0 15.6-3.1 15.6-15.3v-11.5c0-12.1-4.4-15.3-15.6-15.3h-46.3z" />
		</g>
	</g>
</svg>