<svg version="1.2" xmlns="http://www.w3.org/2000/svg" viewBox="0 0 1510 805" width="1510" height="805">
	<title>cigna-logo-svg</title>
	<style>
		.s0 { fill: #ffffff } 
		.s1 { fill: #03cc54 } 
	</style>
	<g id="Layer">
		<path id="Layer" fill-rule="evenodd" class="s0" d="m860.7 759.7v43.2h-15.5v-38.5c0-10.5-5.3-16.6-14.5-16.6-9 0-15.3 6.3-15.3 16.8v38.3h-15.5v-93.7h15.5v36.4c4.4-6.4 10.6-11.9 21.2-11.9 15.3 0 24.1 10.2 24.1 26zm80.7 10.5c0 1.4-0.1 2.8-0.3 4.3h-49.8c1.7 11.1 9.5 17.2 19.5 17.2 7.6 0 13-2.8 18.4-8l9.1 8c-6.4 7.7-15.3 12.7-27.7 12.7-19.7 0-34.8-14.2-34.8-35.1v-0.3c0-19.4 13.7-35.3 33.1-35.3 21.6 0 32.5 16.9 32.5 36.5zm-15.4-6c-1.1-10-7-17.8-17.2-17.8-9.5 0-16.2 7.3-17.6 17.8zm5.8-99h-138.9c0 0-4.7-5.4-4.7-18.2 0-12.7 4.7-13.4 4.7-13.4h7.1c11.8 0 23.5-11.8 23.5-23.6v-162.6c0-11.7-11.7-23.5-23.5-23.5h-7.1c-3-5-4.7-8.7-4.7-15.9 0-8.2 2.9-13.2 4.8-15.7 33.5 0 73.1-13.9 80.9-17.1 11.6-4.7 21.3-1.1 21.3 8.9 0 3.8 0.1 34.6 0.1 34.6 21.2-31.2 56-52.3 101.3-52.3 61.2 0 103.6 32.9 103.6 100.6v143.1c0 11.7 11.8 23.5 23.6 23.5h7c0 0 4.7 2.5 4.7 14.5 0 12-4.7 17.2-4.7 17.2h-138.9c0 0-4.7-6.5-4.7-18.5 0-12 4.7-13.2 4.7-13.2h7.1c11.7 0 23.5-11.8 23.5-23.6v-140.1c0-38.9-23.5-56.5-55.3-56.5-37.1 0-65.9 28.8-65.9 77.1v119.5c0 11.8 11.7 23.6 23.5 23.6h7.1c0 0 4.7 0.7 4.7 13.7 0 13-4.7 18-4.8 17.9zm-252-277.4h78.2c2 2.9 4.6 10.6 4.6 17.7 0 9-2.4 14.5-4.7 18.4h-42.8c9.2 15.3 14.4 32.9 14.4 51.6 0 60.4-53.9 109.7-126 109.7-17.6 0-27.6-1.8-39.9-5.9l-21.7 29.4h110.8c73.4 0 102.7 33.3 102.7 82.6 0 69.1-77.5 113.1-160.7 113.1-82.7 0-119.7-34.6-119.7-76.8 0-21.7 11.8-47 37.5-62.3h-35c0 0-7.2-7.6-7.2-18.9 0-11.3 6.3-22.7 6.3-22.7l49.4-61.4c-28.1-18.7-48.6-49.2-48.6-86.7 0-61 53.3-109.6 126-109.6 29 0 55.3 8.1 76.4 21.8zm-145 327.6c0 30.5 25.9 51 71.6 51 48.7 0 75.6-28.7 75.6-56.9 0-22.2-13.5-44.1-52.8-44.1h-65.6c-17 8.8-28.8 29.5-28.8 50zm122-239.8c0-45.7-21.1-73.2-53.4-73.2-32.8 0-53.9 27.5-53.9 73.2 0 45.8 21.1 73.3 53.9 73.3 32.3 0 53.4-27.5 53.4-73.3zm-385.1 99.7c-15.3 51.7-49.7 98.2-123.9 98.2-78.9 0-147.8-57.6-147.8-148.8 0-101.8 78.3-158.3 162.5-158.3 35.9 0 66.5 7.7 89.5 20.6 0 0 1.7 1.1 2.7 2.4 1.1 1.4 1.4 3.5 1.4 3.5l3 77c0 0-4.1 4.7-19 4.7-15 0-13.9-4.7-13.9-4.7l-0.8-10.6c0-34.1-27.6-56.4-63.5-56.4-57.1 0-81.8 54.1-81.8 109.4 0 59.5 35.3 109.4 90.6 109.4 30.7 0 50.4-17.4 72.2-55.2 0 0 7.8-2.9 17.2 0.4 7.4 2.5 11.6 8.3 11.6 8.4zm93.9-229.9c-26.9 0-48.7-22.3-48.7-49.9 0-27.6 21.8-49.9 48.7-49.9 26.9 0 48.7 22.3 48.7 49.9 0 27.6-21.8 49.9-48.7 49.9zm38.9 264.7c0 11.8 11.8 23.5 23.5 23.5h7.1c0 0 4.7 3 4.7 14.4 0 11.4-4.7 17.3-4.7 17.3h-138.9c0 0-4.7-7.2-4.7-18.3 0-11.1 4.7-13.4 4.7-13.4h7c11.8 0 23.6-11.8 23.6-23.5v-173.3c0-11.8-11.8-23.5-23.6-23.5h-7c0 0-4.7-2.3-4.7-13.4 0-11.1 4.7-18.3 4.7-18.3h138.9c0 0 4.7 5.9 4.7 17.3 0 11.4-4.7 14.4-4.7 14.4h-7.1c-11.7 0-23.5 11.7-23.5 23.5zm927.2 152.7v40.2h-15.4v-8.3c-4.6 5.5-11.7 9.7-21.9 9.7-12.9 0-24.2-7.3-24.2-20.9v-0.3c0-15 11.7-22.2 27.5-22.2 8.2 0 13.5 1.2 18.8 2.8v-1.3c0-9.4-6-14.5-16.7-14.5-7.6 0-13.3 1.7-19.4 4.2l-4.3-12.4c7.5-3.4 14.8-5.7 25.8-5.7 20.1 0 29.8 10.6 29.8 28.7zm-15 11.8c-4-1.5-9.5-2.7-15.5-2.7-9.8 0-15.6 4-15.6 10.5v0.3c0 6.4 5.8 10 13.1 10 10.3 0 18-5.8 18-14.3 0 0 0-3.8 0-3.8zm73.1-40.7v16.4h-0.9c-13.6 0-23.1 8.9-23.1 26.9v25.8h-15.5v-67.8h15.5v15.2c4.2-10.1 12-17 24-16.5zm87.6-97.5l-81.2 34.7c0 0-6.2 2.6-14.3 0.9-9-2-9.3-10-9.3-10v-35c-21.8 28.3-49.5 46.5-93 46.5-76.6 0-139-55.9-139-150.6 0-101.2 72.4-156.5 148.4-156.5 50.6 0 78.7 24.1 95.4 43.8 0 0 3.4 3.8 6.3 0l25-32.6c0 0 2.7-3 6.2-3h17.9c6.5 0 7 6.1 7 6.1v206.9c0 11.8 11.7 23.5 23.5 23.5h7.1c0 0 4.7 2.8 4.7 11.9 0 9.2-4.7 13.5-4.7 13.4zm0 0q0 0 0 0zm-108.4-116.5c0-62.9-21.8-114.7-74.2-114.7-52.3 0-74.1 51.8-74.1 114.7 0 63 21.8 114.8 74.1 114.8 52.5 0 74.3-51.8 74.2-114.8z"/>
		<g id="Layer">
		</g>
		<path id="Layer" fill-rule="evenodd" class="s0" d="m1484 748.3q1.9 1.5 1.9 4.4c0 1.9-0.7 3.5-2.2 4.8q-2.3 1.9-6.3 1.9-4.2 0-6.5-1.9-2.4-1.9-2.4-5.2h4.2q0.2 1.4 0.8 2.2 1.1 1.3 3.7 1.3 1.6 0 2.6-0.4 1.8-0.6 1.8-2.4 0-1.1-0.9-1.7-1-0.5-2.9-0.9l-2.3-0.5q-3.3-0.8-4.6-1.7-2.1-1.5-2.1-4.6 0-2.8 2-4.7 2.1-1.9 6.1-1.9 3.4 0 5.8 1.8 2.3 1.8 2.4 5.1h-4.2q-0.1-1.9-1.7-2.7-1-0.5-2.6-0.5c-1.1 0-2 0.3-2.7 0.7q-1 0.7-1 1.9 0 1.2 1 1.7 0.6 0.4 2.8 0.9l3.6 0.9c1.6 0.3 2.8 0.9 3.7 1.5zm25.6-10.7v21.2h-4.1c0-0.4 0-15.3 0-16q0-1.2 0-1.8l-4 17.8h-4.3l-4-17.8q0 0.6 0 1.8c0 0.7 0 15.6 0 16h-4.1v-21.2h6.4l3.9 16.7 3.8-16.7zm-495.7 25.1v40.2h-15.4v-8.3c-4.6 5.5-11.7 9.7-22 9.7-12.8 0-24.1-7.3-24.1-20.9v-0.3c0-15 11.7-22.2 27.5-22.2 8.2 0 13.5 1.2 18.8 2.8v-1.3c0-9.3-6-14.5-16.7-14.5-7.6 0-13.3 1.7-19.4 4.3l-4.3-12.5c7.5-3.3 14.8-5.7 25.9-5.7 20 0 29.7 10.6 29.7 28.7zm-15 11.8c-4-1.5-9.5-2.7-15.5-2.7-9.8 0-15.6 4-15.6 10.6v0.2c0 6.4 5.8 10 13.1 10 10.3 0 18-5.8 18-14.2 0 0 0-3.9 0-3.9zm463.9-4.3c0 1.4-0.1 2.8-0.2 4.3h-49.9c1.7 11.1 9.6 17.2 19.6 17.2 7.6 0 13-2.8 18.3-8l9.2 8c-6.4 7.7-15.3 12.7-27.8 12.7-19.6 0-34.8-14.2-34.8-35.1v-0.3c0-19.4 13.8-35.3 33.2-35.3 21.5 0 32.4 16.9 32.4 36.5zm-15.4-6c-1-10-6.9-17.8-17.2-17.8-9.5 0-16.2 7.3-17.6 17.8zm-196.2 18.3l9.4 9.2c-6.8 7.4-14.6 12.7-27.8 12.7-20.2 0-35.1-15.8-35.1-35v-0.3c0-19.2 14.9-35.4 35.2-35.4 12.9 0 20.9 4.7 27.1 11.7l-9.6 10.4c-4.7-5-9.7-8.5-17.6-8.5-11.3 0-19.5 9.8-19.5 21.6v0.2c0 12.1 8.3 21.8 20.3 21.8 7.3 0 12.7-3.4 17.6-8.4zm-217.9-73.3h15.6v93.7h-15.6zm54.6 25.9h18.3v13.3h-18.3v33.3c0 6 3.1 8.5 8.4 8.5 3.4 0 6.5-0.8 9.6-2.3v12.7c-3.8 2.1-8.2 3.4-14 3.4-11.4 0-19.5-5-19.5-19.9v-35.6h-8.6v-13.4h8.6v-18.6h15.5c0 0 0 18.6 0 18.6zm94.8 24.6v43.2h-15.5v-38.5c0-10.5-5.3-16.6-14.5-16.6-9 0-15.3 6.3-15.3 16.8v38.3h-15.6v-93.7h15.6v36.4c4.3-6.4 10.6-11.9 21.2-11.9 15.2 0 24.1 10.2 24.1 26z"/>
		<path id="Layer" fill-rule="evenodd" class="s1" d="m329.6 125.1c0-31.4 14.2-59.4 36.4-78.1 22.2 18.8 36.3 46.9 36.2 78.3-0.1 31.3-14.2 59.3-36.5 78.1-22.1-18.9-36.2-46.9-36.1-78.3zm158.6-124.4c10.1 19.7 11.8 43.5 2.7 65.4-9.2 22-27.3 37.5-48.3 44.3-10.1-19.7-11.8-43.5-2.6-65.4 9.1-22 27.2-37.6 48.2-44.3zm-244.4-0.5c21 6.8 39 22.4 48.1 44.4 9 22 7.2 45.8-2.9 65.4-21-6.8-39-22.4-48.1-44.4-9.1-22-7.3-45.8 2.9-65.4zm-173.3 172.4c19.6-10 43.4-11.7 65.4-2.6 22 9.2 37.5 27.2 44.2 48.3-19.6 10-43.4 11.7-65.4 2.6-22-9.2-37.5-27.3-44.2-48.3zm590.3 1.3c-6.8 21-22.4 39-44.4 48.1-22.1 9.1-45.8 7.3-65.5-2.9 6.8-21 22.4-39 44.5-48 22-9.1 45.7-7.3 65.4 2.8zm-46.8 122.2c-18.9 22.2-47 36.3-78.4 36.2-31.4 0-59.4-14.2-78.2-36.4 18.9-22.2 47-36.3 78.4-36.2 31.4 0.1 59.4 14.2 78.2 36.4zm-72.3-175.9c2.3 29-7.6 58.8-29.9 81-22.2 22.1-52.1 31.9-81.1 29.5-2.3-29 7.6-58.8 29.9-81 22.2-22.1 52-31.9 81.1-29.5zm-267.6 175.7c-18.8 22.2-46.9 36.4-78.3 36.4-31.3 0.1-59.4-14-78.3-36.2 18.8-22.2 46.8-36.3 78.2-36.4 31.4-0.1 59.5 14 78.4 36.2zm26.6-65.2c-29 2.4-58.8-7.4-81.1-29.5-22.2-22.2-32.1-52-29.8-81 29-2.4 58.9 7.4 81.1 29.5 22.3 22.2 32.2 51.9 29.8 81z"/>
	</g>
</svg>