<svg version="1.2" baseProfile="tiny-ps" xmlns="http://www.w3.org/2000/svg" viewBox="0 0 1551 650" width="1551" height="650">
	<title>logo-white-svg</title>
	<defs>
		<clipPath clipPathUnits="userSpaceOnUse" id="cp1">
			<path d="M0 0L1550 0L1550 650L0 650L0 0Z" />
		</clipPath>
		<clipPath clipPathUnits="userSpaceOnUse" id="cp2">
			<path d="M0 0L1550 0L1550 650L0 650L0 0Z" />
		</clipPath>
	</defs>
	<style>
		tspan { white-space:pre }
		.shp0 { fill: #f58423 } 
		.shp1 { fill: #ffffff } 
	</style>
	<g id="Clip-Path" clip-path="url(#cp1)">
		<g id="Layer">
			<path id="Layer" fill-rule="evenodd" class="shp0" d="M248.3 327.63C248.3 205.75 346.63 108.25 468.25 108.25C589.87 108.25 688.2 205.75 688.2 327.63C688.2 449.5 589.87 547 468.25 547C346.63 547 248.3 449.5 248.3 327.63ZM447.55 387.21L447.55 349.29L292.29 349.29C294.88 381.79 307.82 408.88 325.93 433.25C359.57 408.88 400.97 389.92 447.55 387.21ZM447.55 308.67L447.55 270.75C400.97 268.04 359.57 249.08 325.93 224.71C307.82 249.08 297.47 278.88 292.29 308.67L447.55 308.67ZM447.55 227.42L447.55 151.58C411.32 157 380.27 170.54 354.39 192.21C380.27 211.17 411.32 224.71 447.55 227.42ZM488.95 151.58L488.95 227.42C522.59 224.71 556.23 211.17 582.11 192.21C556.23 170.54 522.59 157 488.95 151.58ZM488.95 270.75L488.95 308.67L644.21 308.67C641.62 276.17 628.69 249.08 610.57 224.71C576.93 249.08 532.94 265.33 488.95 270.75ZM488.95 349.29L488.95 387.21C535.53 389.92 576.93 408.88 610.57 433.25C628.69 408.88 639.04 379.08 644.21 349.29L488.95 349.29ZM488.95 427.83L488.95 503.67C525.18 498.25 556.23 484.71 582.11 463.04C556.23 444.08 522.59 433.25 488.95 427.83ZM447.55 506.38L447.55 430.54C413.91 433.25 380.27 446.79 354.39 465.75C377.68 487.42 411.32 500.96 447.55 506.38Z" />
			<g id="Clip-Path" clip-path="url(#cp2)">
				<g id="Layer">
					<path id="Layer" fill-rule="evenodd" class="shp1" d="M85.39 0L667.61 0L667.61 56.88L222.54 56.88C191.49 56.88 168.2 81.25 168.2 111.04L168.2 538.96C168.2 568.75 191.49 593.13 222.54 593.13L665.03 593.13L665.03 650L85.39 650C38.81 650 0 612.08 0 566.04L0 83.96C0 37.92 38.81 0 85.39 0ZM724.54 650L724.54 593.13C755.59 593.13 781.47 568.75 781.47 538.96L781.47 111.04C781.47 81.25 758.18 56.88 727.13 56.88L727.13 0L1366.28 0C1454.26 0 1526.71 73.13 1526.71 162.5C1526.71 224.79 1490.48 281.67 1438.73 308.75C1503.42 333.13 1550 398.13 1550 473.96C1550 571.46 1472.37 650 1379.21 650L724.54 650ZM1218.78 111.04L1218.78 538.96C1218.78 568.75 1242.07 593.13 1273.12 593.13L1286.06 593.13C1342.99 593.13 1389.56 538.96 1389.56 473.96C1389.56 408.96 1342.99 354.79 1286.06 354.79L1273.12 354.79L1273.12 295.21L1286.06 295.21C1342.99 295.21 1389.56 241.04 1389.56 176.04C1389.56 111.04 1342.99 56.88 1286.06 56.88L1273.12 56.88C1242.07 56.88 1218.78 81.25 1218.78 111.04ZM1055.76 538.96L1055.76 111.04C1055.76 81.25 1032.47 56.88 1001.42 56.88L998.83 56.88C967.78 56.88 944.49 81.25 944.49 111.04L944.49 536.25C944.49 566.04 970.37 590.42 1001.42 590.42C1032.47 590.42 1055.76 566.04 1055.76 538.96Z" />
				</g>
			</g>
		</g>
	</g>
</svg>