<svg version="1.2" xmlns="http://www.w3.org/2000/svg" viewBox="0 0 1529 1521" width="1529" height="1521">
	<title>civitas-svg</title>
	<style>
		.s0 { opacity: .5;fill: #1b325f } 
		.s1 { fill: #1b325f } 
	</style>
	<g id="Layer_2">
		<g id="Layer_1-2">
			<path id="Layer" class="s0" d="m566.2 356.3c0 0-145.2 179.4-318.3 212.3c-173.2 33-179.5-67.2-154.4-125.1c25-58 100.5-183.6 176.9-213.6c76.4-30.1 277.1-37.2 277.1-37.2zm658.4 438.9c0 0-83.4-214.8-27.5-381.3c55.9-166.4 147.3-121.8 184-73c36.7 48.8 110.2 177.7 98.5 259.5c-11.7 81.7-102.7 259-102.7 259zm-716.4 357.6c0 0 228.2 34.6 343.8 166.8c115.6 132.3 32.5 189-29.2 196.1c-61.8 7.1-208.6 5.8-273.7-45.1c-65.1-50.8-171.5-219-171.5-219z" />
			<path id="Layer" class="s1" d="m1271 361.7c0 32.8-5.9 65.4-17.4 96.2c-11.5 30.7-28.4 59.2-49.9 84c-21.5 24.8-47.3 45.6-76.1 61.3c-28.8 15.8-60.3 26.2-92.8 30.9h-3.7h-8.8q-3.3 0.3-6.7 0.4q-3.3 0.1-6.6 0.1q-3.4 0-6.7-0.1q-3.4-0.1-6.7-0.4c-301.7 0-413.5-371.7-628.8-371.7c-142.7 0-302.2 247.6-273.3 182.3c28.8-65.3 66.8-126.1 113-180.6c46.1-54.5 99.8-102.1 159.4-141.3c59.7-39.3 124.6-69.7 192.9-90.5c68.3-20.8 139.3-31.7 210.7-32.3c224 0 513.2 105.5 501.5 361.7z" />
			<path id="Layer" class="s1" d="m875 1406.7c-28.5-16.3-53.9-37.5-74.9-62.7c-21.1-25.2-37.4-54-48.3-85c-11-30.9-16.2-63.6-15.6-96.4c0.6-32.9 7-65.3 19.1-95.9v-3.3l3.3-8.8c3.3-7.5 7.5-15.4 12.1-23.8c149.4-261.9 527.4-175.6 633.8-362.5c70.6-123.9-65.9-384.8-23.3-327.5c42.5 57.3 76.7 120.5 101.3 187.5c24.6 67 39.4 137.2 44.1 208.4c4.6 71.2-1 142.7-16.7 212.4c-15.7 69.6-41.4 136.6-76.2 199c-110.9 194.8-345.9 395.4-558.7 258.6z" />
			<path id="Layer" class="s1" d="m154.8 542.3c28.5-16.8 59.8-28.4 92.5-34.1c32.6-5.7 66-5.5 98.5 0.6c32.6 6.1 63.8 18.1 92.1 35.3c28.3 17.2 53.2 39.3 73.7 65.4v2.5l5.8 7.5l14.6 22.1c151.9 260.7-112.6 544.4-4.1 730.1c71.7 123 365.9 136.2 295 144.3c-71 8.1-142.7 5.9-213.1-6.4c-70.3-12.3-138.5-34.7-202.4-66.4c-64-31.7-123.1-72.5-175.4-121.1c-52.4-48.5-97.5-104.3-133.9-165.7c-113.1-193.6-167.4-496.4 56.7-614.1z" />
		</g>
	</g>
</svg>