<svg version="1.2" xmlns="http://www.w3.org/2000/svg" viewBox="0 0 1576 204" width="1576" height="204">
	<title>Colgate-Palmolive_logo-svg</title>
	<style>
		.s0 { fill: #ffffff } 
	</style>
	<g id="Layer">
		<g id="Layer">
			<g id="Layer">
				<path id="Layer" fill-rule="evenodd" class="s0" d="m919.6 90.2l-5.8 23h-20.1l18.4-65.6h26.9c8.9 0 29.4 1 29.4 13.7 0 26.8-28.5 28.9-48.8 28.9zm26.5-24.2c0-6-6.7-7.6-11.7-7.6h-5.5l-4.4 19.6h7c5.1 0 11.4-2.9 13.7-7.4zm-89.3 14.8h27.6l-3.7 13.7h-27.4zm330.2-33.3h29.2l-15.5 65.6h-17.9l10.6-46.9-25.6 46.9h-19l-2.4-46.9-12 46.9h-16.1l15.5-65.6h28.7l2.4 41.5zm-160.5 0c0.7 6.2 11.9 64.2 13.3 65.6h-23.4l-2.9-18.7h-25.4l-12.6 18.7h-23.9c16.8-21.5 31.9-44.2 48.9-65.6zm-14.4 32.8l-2.7-18.2-13.2 18.2zm64.3 18.7h31.6l-3.5 14.1h-53.7l15.4-65.6h22.1zm-454.7-24.1l-8.4 37.2c-8.7 1.1-18.1 2.8-27 2.8h-11c-15.5 0-27.9-9.8-27.9-25.4 0-27.2 25.4-43.3 50.9-43.3 8.7 0 16.8 2.7 25.2 3.1l-2.4 15.8c-7.4-1.3-13.7-3.7-21.5-3.7-15.7 0-30.7 9.5-30.7 26.3 0 10.2 8.1 13.1 17 13.1 1.9 0 7.5-0.5 8.9-1.8l2.4-10h-8.4l3.1-14.1c0 0 29.8 0 29.8 0zm-271 11.1c0 7.1 5.4 13.7 13 13.7h7.8c5.3 0 10.9-1.3 16.1-2.4l-5.3 15.9c-4.8 0.8-11.2 1.7-16.1 1.7h-7.8c-15.5 0-29.4-10.1-29.4-26.1 0-26.8 25-42.6 50.2-42.6 5.9 0 12.1 1.7 17.9 2.4l-1.7 15.2c-5.4-0.4-10.5-2.4-16.2-2.4-14.4 0-28.5 9.4-28.5 24.6zm444.1-38.5h56.6l-3.5 13.9h-34.7l-2.9 11.8h29.2l-2.9 14.1h-29.4l-2.9 11.7h34.5l-2.9 14.1h-56.8zm-15.5 14h-21.4l-12.4 51.7h-21.4l11.9-51.7h-21.4l2.8-14h65.7zm-298.9 7.4v7.4c0 3-1.6 6.6-2.6 9.4-6.4 17.4-23.8 29.3-42.9 29.3h-8.6c-14.9 0-30.3-9.4-30.3-25.2 0-27 25.4-43.5 50.8-43.5 13.3 0 33.6 6.7 33.6 22.6zm-22.1 4.2c-1-2.5-1.2-3.9-2-4.8-3.7-4.6-7.1-6.8-13.2-6.8-13.8 0-25.2 10.8-25.2 24.6 0 7 5.5 13.7 13 13.7h6.2c2 0 4.5-0.9 6.3-1.6 8.2-3.3 11.4-8.3 13.7-16.3 0.2-0.7 1.2-3.8 1.2-4.3 0 0 0-4.5 0-4.5zm247.6 31c0.5 2.3 2 6.8 2.3 9.1h-23.1l-3.1-18.6h-25.6l-12.6 18.6h-23.9c16.6-21.2 33.4-43.3 48.4-65.6h26.3c0.6 10.7 8.7 44.4 11.3 56.5zm-25-23.7l-3.5-18.2-12.6 18.2zm-171.5 18.7h31.3l-3.5 14.1h-52.8l15.4-65.6h21.3zm881.8-51.4h21.4l-15.5 65.6h-21.4zm116.3 0c-16.8 21-31 44.1-47.1 65.6h-25.7l-1.7-15.2c-1.7-16.8-8.8-33.6-9.5-50.4h22.5l6 49.1 32.3-49.1zm-174.9 51.4h31.6l-2.9 14.2h-53.7l15.5-65.6h21.4zm186.2-51.5h56.6l-3.6 13.9h-34.7l-2.9 11.7h29.2l-2.9 14.1h-29.3l-2.9 11.8h35.1l-3.5 14.1h-56.6zm-214.7 21.3v7.4c0 21.3-25.4 38.6-45.3 38.6h-8.6c-16.5 0-30.1-10-30.1-26.7 0-25.9 26.4-41.9 50.4-41.9 13.6 0 33.6 6.4 33.6 22.6zm-21.8 7.2c0-1.5-0.7-3.3-0.5-4.6-3.9-7.8-9.4-10-15-10-3.4 0-7.5 0.6-10.6 2-6.3 2.8-14.2 13.2-14.2 20.2v4.7c0 5.7 7.4 11.3 12.8 11.3h6c12 0 21.5-12.8 21.5-23.6z"/>
			</g>
		</g>
		<g id="Layer">
			<g id="Layer">
				<path id="Layer" fill-rule="evenodd" class="s0" d="m1 76.7c0 0 2-75.2 87.9-76.3h64.5l-14.5 63.7-53.1 0.2c-17.7 0.2-21.1 14.7-21.1 14.7 0 0-1 15.3 15.9 17.1h51.1l-14.7 64.8-29.8 0.1c-89-1.9-86.2-84.3-86.2-84.3zm285 0c0 0-3.8-75.2-89.7-76.3h-27.3l-14.3 63.7 44.8 0.2c17.7 0.2 21.1 14.7 21.1 14.7 0 0 1 15.3-16 17.1h-57.3l-24.8 107.7 60.7 0.1 10-43 4.9 0.1c89-1.9 87.9-84.3 87.9-84.3z"/>
			</g>
		</g>
	</g>
</svg>