<svg version="1.2" xmlns="http://www.w3.org/2000/svg" viewBox="0 0 1524 866" width="1524" height="866">
	<title>CLVS_BIG-svg</title>
	<style>
		.s0 { fill: #ffffff } 
	</style>
	<g id="Layer">
		<g id="Layer">
			<g id="Layer">
				<path id="Layer" class="s0" d="m801 70.9v150.2c-86-63-180.5-94.5-275-94.5q-152.6 0-259.1 94.5c-70.3 63-110.2 133.2-110.2 227.6 0 86 39.9 164.7 110.2 220.4 70.2 63 157.4 86 259.1 86 54.5 0 101.8-7.3 133.3-23 24.2-8.5 39.9-15.7 62.9-31.5 24.3-15.7 47.3-24.2 71.5-47.2v148.9c-87.2 38.8-181.7 63-274.9 63-141.7 0-267.7-39.9-369.4-125.9-103-86-149-188.9-149-306.4 0-110.2 38.8-204.7 124.8-283.4 102.9-101.7 236.1-148.9 409.3-148.9 101.8 15.7 187.7 31.5 266.5 70.2zm423.9-38.7v715.6h299.1v117.5h-448.1v-833.1z"/>
			</g>
		</g>
		<g id="Layer">
		</g>
	</g>
</svg>