<svg version="1.2" xmlns="http://www.w3.org/2000/svg" viewBox="0 0 1528 327" width="1528" height="327">
	<title>Clovis_Logo_Standard_RGB_X-svg</title>
	<defs>
		<linearGradient id="g1" x1="763.7" y1=".6" x2="763.7" y2="326.7" gradientUnits="userSpaceOnUse">
			<stop offset="0" stop-color="#ffffff"/>
			<stop offset="1" stop-color="#ffffff"/>
		</linearGradient>
	</defs>
	<style>
		.s0 { fill: #ffffff } 
		.s1 { fill: url(#g1) } 
	</style>
	<g id="Layer">
		<g id="Layer">
			<g id="Layer">
				<path id="Layer" fill-rule="evenodd" class="s0" d="m260.3 138.6v12.4c-7.1-5.2-14.9-7.8-22.7-7.8q-12.6 0-21.4 7.8c-5.8 5.2-9.1 11-9.1 18.8 0 7.1 3.3 13.6 9.1 18.2 5.8 5.2 13 7.1 21.4 7.1 4.5 0 8.4-0.6 11-1.9 2-0.7 3.3-1.3 5.2-2.6 2-1.3 3.9-2 5.9-3.9v12.3c-7.2 3.2-15 5.2-22.7 5.2-11.7 0-22.1-3.3-30.5-10.4-8.5-7.1-12.3-15.6-12.3-25.3 0-9.1 3.2-16.9 10.3-23.4 8.5-8.4 19.5-12.3 33.8-12.3 8.4 1.3 15.5 2.6 22 5.8zm35-3.2v59.1h24.7v9.7h-37v-68.8zm33.7 33.7c0-9.7 4.6-18.1 13-25.3 8.4-7.1 18.8-10.4 30.5-10.4 11.6 0 22 3.3 30.5 10.4 8.4 7.2 12.9 15.6 12.9 25.3 0 9.8-4.5 18.2-12.9 25.4-8.5 7.1-18.9 10.3-31.2 10.3-11 0-20.1-3.2-29.2-9-9-6.5-13.6-15.6-13.6-26.7zm13 0.7c0 7.8 3.2 13.6 9.1 18.8 5.8 5.2 12.9 7.2 21.4 7.2 8.4 0 16.2-2.6 22-7.8 5.9-5.2 9.1-11.1 9.1-18.2 0-7.2-3.2-13.6-9.1-18.2-5.8-5.2-12.9-7.8-22-7.8-8.5 0-16.2 2.6-22.1 7.8-5.8 4.6-8.4 10.4-8.4 18.2zm94.7-34.4l22.7 48 23.3-48h13.6l-36.9 74-36.3-74zm75.8 0h12.4v68.8h-12.4zm84.3 9.7l-10.3 5.2c-2-2.6-3.9-4.5-5.2-5.2-2-0.6-3.9-1.3-7.2-1.3-3.2 0-6.4 0.7-8.4 2.6-2.6 1.3-3.2 3.9-3.2 5.9 0 3.2 3.2 5.8 9.1 8.4l8.4 2.6c6.5 1.9 11.7 5.2 14.9 8.4 3.2 3.3 4.5 7.2 4.5 11.7q0 9.8-7.7 15.6c-5.2 3.9-11.7 6.5-18.9 6.5-7.1 0-12.9-2-18.1-5.2-4.6-3.3-7.8-8.4-8.4-14.9l12.9-2.6c0.7 3.9 1.3 7.1 3.3 8.4 2.6 3.3 6.5 4.6 11 4.6 3.9 0 7.1-1.3 9.7-3.3 2.6-1.9 3.9-5.2 3.9-8.4 0-1.3 0-2.6-0.6-3.9-0.7-1.3-1.3-2-2-3.3-0.6-0.6-1.9-1.9-3.9-2.6-1.3-0.6-3.2-1.3-5.2-2.6l-7.7-2.6c-11.7-3.9-16.9-9.7-16.9-17.5 0-5.2 2.6-9.7 7.1-13 4.6-3.2 11.1-5.2 17.5-5.2 8.5 0.7 16.3 4.6 21.4 11.7zm75.3 24c0-9.7 4.5-18.1 12.9-24.6 8.5-7.2 18.8-10.4 30.5-10.4 11.7 0 22.1 3.2 29.9 10.4 8.4 7.1 12.3 15.6 12.3 25.3 0 9.7-4.6 18.2-13 24.7-8.4 7.1-18.8 10.3-30.5 10.3-10.4 0-20.1-3.2-28.5-9-8.4-6.5-13.6-15.6-13.6-26.7zm12.9 0c0 7.8 3.3 13.7 9.1 18.9 5.9 4.5 13 7.1 20.8 7.1 8.4 0 16.2-2.6 22-7.1 5.9-5.2 9.1-11.1 9.1-18.2 0-7.2-3.2-13.6-9.1-18.2-5.8-5.2-12.9-7.1-21.4-7.1-8.4 0-15.5 2.6-21.4 7.1-6.5 4.6-9.1 10.4-9.1 17.5zm92.1-38.3l59.7 52v-47.4h12.3v72.7l-59.6-51.9v48h-12.4zm156.3 8.4v12.4c-7.1-5.2-14.9-7.8-22-7.8q-12.7 0-21.4 7.8c-5.9 5.2-8.5 11-8.5 18.1 0 7.2 2.6 13 8.5 18.2 5.8 5.2 12.9 7.1 21.4 7.1 4.5 0 7.8-0.6 11-1.9 1.9-0.7 3.2-1.3 5.2-2.6 1.9-1.3 3.9-1.9 5.8-3.9v12.3c-7.1 3.3-14.2 5.2-22.7 5.2-11.6 0-22-3.2-29.8-10.4-8.4-7.1-12.3-14.9-12.3-24.6 0-8.5 3.2-16.2 10.4-23.4 8.4-8.4 19.4-12.3 33-12.3q11.7 1 21.4 5.8zm14.9 29.9c0-9.8 4.6-18.2 13-24.7 8.4-7.1 18.8-10.4 30.5-10.4 11.7 0 22 3.3 29.8 10.4 8.5 7.2 12.3 15.6 12.3 25.3 0 9.8-4.5 18.2-12.9 24.7-8.5 7.1-18.8 10.4-30.5 10.4-10.4 0-20.1-3.3-28.5-9.1-9.1-6.5-13.7-15.6-13.7-26.6zm12.4 0c0 7.8 3.2 13.6 9 18.8 5.9 4.5 13 7.1 20.8 7.1 8.4 0 16.2-2.6 22-7.1 5.9-5.2 9.1-11 9.1-18.2 0-7.1-3.2-13.6-9.1-18.1-5.8-5.2-12.9-7.2-21.4-7.2-8.4 0-15.5 2.6-21.4 7.2-5.8 4.5-9 10.3-9 17.5zm104.4-33.8v58.4h24v9.8h-36.3v-68.2zm31.7 33.8c0-9.8 4.6-18.2 13-24.7 8.4-7.1 18.8-10.4 30.5-10.4 11.7 0 22 3.3 29.8 10.4 8.4 7.2 12.3 15.6 12.3 25.3 0 9.8-4.5 18.2-12.9 24.7-8.5 7.1-18.8 10.4-30.5 10.4-10.4 0-20.1-3.3-28.5-9.1-9.1-6.5-13.7-15.6-13.7-26.6zm12.4 0c0 7.8 3.2 13.6 9 18.8 5.9 4.5 13 7.1 20.8 7.1 8.4 0 16.2-2.6 22-7.1 5.9-5.2 9.1-11 9.1-18.2 0-7.1-3.2-13.6-9.1-18.1-5.8-5.2-12.9-7.2-21.4-7.2-8.4 0-15.5 2.6-21.4 7.2-5.8 4.5-9 10.3-9 17.5zm167.3-0.7v2q0 7.8-2 13.6c-1.3 3.9-3.9 7.2-7.1 10.4-7.8 7.1-17.5 11-29.2 11-11.7 0-21.4-3.2-29.8-10.4-8.5-7.1-12.3-14.9-12.3-24.6 0-9.8 3.8-18.2 12.3-25.3 8.4-7.2 18.8-10.4 30.5-10.4 6.4 0 12.3 1.3 18.1 3.2 5.2 2 10.4 5.9 15.6 10.4l-9.1 7.2c-6.5-7.2-14.9-11.1-24.6-11.1-8.5 0-16.3 2.6-22.1 7.8-5.8 5.2-9.1 11-9.1 18.2 0 7.8 3.3 13.6 9.8 18.8 5.8 4.5 12.9 7.1 20.1 7.1 5.8 0 11.6-1.9 16.2-5.1 5.2-3.3 7.8-7.8 8.4-12.4h-20.7v-10.4zm31.7 5.9l-26.6-39h14.3l18.8 27.3 18.8-27.3h14.3l-27.2 39v29.2h-12.4z"/>
			</g>
			<path id="Layer" class="s1" d="m1526.9 163.3h-87.6c-6.5-3.9-49.3-30.5-131.6-60.4-112.9-40.9-299-86.9-563.6-86.9-5.8 0-11.7 0.6-16.9 0.6-62.9 2.6-83 20.8-83 61.7v218.1 30.5c-457.8-18.2-639.4-159.7-643.3-162.3h88.2c3.2 2.6 123.9 103.8 441 136.9 12.3 1.3 23.3 2 33.1 1.3 48-1.9 64.2-23.3 64.8-63.6v-212.2-24c36.3-2 74.6-2.6 114.8-2.6 249 0 436.5 35.7 565.5 74 138.8 40.9 210.1 84.4 218.6 88.9z"/>
		</g>
		<g id="Layer">
			<path id="Layer" class="s0" d="m562.5 302.8c26-0.6 55.1-1.9 81.7-6.4v30.5c-457.8-18.2-639.4-159.7-643.3-162.3h87.5c3.3 2.6 123.9 103.8 441 136.9 12.4 1.3 23.4 2 33.1 1.3q0 0 0 0z"/>
			<path id="Layer" class="s0" d="m1527.5 163.3h-87.5c-6.5-3.9-49.3-30.5-131.7-60.4-112.8-40.9-299-86.9-563.6-86.9-5.8 0-11.6 0.6-16.8 0.6-32.4 0.7-68.8 3.3-99.9 10.4v-24c36.3-2 74.6-2.6 114.8-2.6 249 0 436.5 35.7 565.5 74 138.8 40.9 210.1 84.4 219.2 88.9z"/>
		</g>
	</g>
</svg>