<svg version="1.2" xmlns="http://www.w3.org/2000/svg" viewBox="0 0 1528 1440" width="1528" height="1440">
	<title>CareMax_1-svg</title>
	<style>
		.s0 { fill: #8dc63f } 
	</style>
	<g id="#8dc63fff">
		<path id="Layer" class="s0" d="m224.5 55.6c80.1-48.1 176.6-60.8 268.6-53.7c113.8 12.2 209.4 90.7 272.1 182.6c58.2-74.7 129.5-147 223.4-172.7c137.2-33.5 291.4 5.2 393.6 103.7c102 93.2 150.9 235.5 144.4 371.8c-3.9 132.4-66.7 254.7-143.5 359.8c-25.2 34.3-53.3 79.2-102.6 74.2c-53.1 7.4-100.9-40.4-99.7-92.5c-3.1-43.3 32.8-71.9 55.1-104.2c49.2-70.9 90.6-151 98.6-238.1c7.2-98.9-35.6-205.7-121.6-259.6c-52.3-35-119.9-38.2-180-26.8c-92.4 43.4-140 140.7-186.1 226.2c-21.5 42.3-72.7 63.1-118 50.3c-20.8-14.1-43.7-27.7-52.8-52.7c-37-85.5-82.8-178.1-169.8-222.5c-71.3-15.2-154.1-10-212.2 38.8c-83.6 65.7-115.7 180.1-98.1 282.3c26.3 150.5 113.3 281.6 210.7 395.9c0.7 4.7 1.9 13.9 2.5 18.5c-75.4-1.4-151 1.4-226.3-1.1c-18.8-7.1-26.3-28.2-37.6-43.2c-83-131.6-151.2-282-144.6-441c-0.5-158.6 84-317.6 223.9-396z" />
		<path id="Layer" class="s0" d="m251.4 1026.5c85.4-2 171 0.1 256.5-1.4c90.6 83.6 189.3 158.1 292.4 225.6c26.5 16.7 52.4 39.1 57.8 71.7c14.4 53.9-28.2 105.6-79.4 117.6h-28.3c-40.7-14.5-75.9-40.2-111-64.8c-82.1-57.4-162.1-118.4-235.7-186.5c-54.5-50.3-112-99.2-152.3-162.2z" />
	</g>
</svg>