<svg version="1.2" xmlns="http://www.w3.org/2000/svg" viewBox="0 0 1519 441" width="1519" height="441">
	<title>cmco-im-tagline-only_cmyk-1920-x-578-svg</title>
	<style>
		.s0 { fill: #415364 } 
		.s1 { fill: #004876 } 
		.s2 { fill: #a2a9ad } 
	</style>
	<g id="Layer">
		<g id="Layer">
			<g id="Layer">
				<g id="Layer">
					<path id="Layer" class="s0" d="m570.5 25.3h-133.8c0 0-120.7 234.1-120.9 234.4-1.6 3.3-9.1 15.3-9.1 15.3-2 3.1-3.1 4.6-3.3 5-19.4 28.5-51.1 45.4-85.6 45.4-57.1 0-103.5-46.5-103.5-103.6 0-57.2 46.4-103.7 103.5-103.7 31.1 0 60.2 13.8 80 37.8l53.1-105.7c-37.7-29.4-84.3-45.6-133.1-45.6-119.6 0-217 97.4-217 217.2 0 119.7 97.4 217.1 217 217.1 74.3 0 142.6-37.3 182.7-99.9 0.6-1 1.7-2.8 6-10.2l91.3-175.5 100.5 206 63.7-133.6z"/>
					<path id="Layer" class="s1" d="m922.2 440.2l-183.7-418-133.4 0.2 183.7 417.8z"/>
					<path id="Layer" class="s2" d="m937.9 116.5c31.1 0 60.2 13.7 80 37.8l53.1-105.8c-37.7-29.3-84.2-45.6-133.1-45.6-59.3 0-113.1 24-152.3 62.7l54.9 119.3c14.5-39.8 52.7-68.4 97.4-68.4z"/>
					<path id="Layer" fill-rule="evenodd" class="s2" d="m1518.6 220.8c0 121.3-98.6 220-219.7 220-75.9 0-142.9-38.8-182.4-97.5-37.1 53.9-95.6 87.8-160.2 93.2l-55-119.5c11.4 4.3 23.7 6.7 36.6 6.7 35.5 0 67.5-17.5 87.3-47.7 19.7-30.2 49.2-94.7 53.7-106.4 6.7-17.3 23.9-51 36.2-69 39.3-59.9 107-99.6 183.8-99.6 121.1 0 219.7 98.6 219.7 219.8zm-108.4 0.1c0-61.7-49.7-111.5-111.3-111.5-61.6 0-111.4 49.8-111.4 111.5 0 61.6 49.8 111.4 111.4 111.4 61.6 0 111.3-49.8 111.3-111.4z"/>
				</g>
			</g>
		</g>
	</g>
</svg>