<svg version="1.2" xmlns="http://www.w3.org/2000/svg" viewBox="0 0 1612 352" width="1612" height="352">
	<title>Centessa-New-Logo-svg</title>
	<style>
		.s0 { fill: #f15a29 } 
		.s1 { fill: #ffffff } 
		.s2 { fill: #009dca } 
	</style>
	<g id="Layer_2">
		<g id="Layer">
			<path id="Layer" class="s0" d="m351 283c0 0-31.1 22.1-75.6-23.5l-57.6-57.6l-26-26.1l83.6-83.6c44.5-45.6 75.6-23.6 75.6-23.6l-107.2 107.2z" />
		</g>
		<g id="Layer">
			<path id="Layer" class="s1" d="m259.5 76.2l-57.6 57.7l-26 26l-83.7-83.7c-45.6-44.4-23.5-75.5-23.5-75.5l107.2 107.2l107.2-107.2c0 0 22 31.2-23.6 75.5zm23.1 275.2l-107.1-107.2l-107.2 107.2c0 0-22.1-31.1 23.5-75.6l57.6-57.6l26.1-26.1l83.6 83.7c45.6 44.4 23.5 75.6 23.5 75.6z" />
		</g>
		<g id="Layer">
			<path id="Layer" class="s2" d="m159.6 176.2l-83.7 83.7c-44.4 45.6-75.5 23.5-75.5 23.5l107.1-107.2l-107.1-107.2c0 0 31.1-22 75.5 23.6l57.7 57.6z" />
		</g>
		<g id="Layer">
			<g id="Layer">
				<path id="Layer" fill-rule="evenodd" class="s1" d="m459.9 306.9c9.1 0 15 5.2 15 13.1v0.2c0 8.8-7.1 13.5-15.8 13.5h-7.8v12.6h-6.9v-39.4zm-0.6 20.5c5.2 0 8.5-2.9 8.5-7v-0.1c0-4.7-3.3-7.1-8.5-7.1h-8v14.2c0 0 8 0 8 0zm66.5-20.5h6.9v16.4h18.8v-16.4h6.9v39.4h-6.9v-16.6h-18.8v16.6h-6.9zm95-0.3h6.4l17.3 39.7h-7.3l-4-9.5h-18.6l-4 9.5h-7.2zm10 24.1l-6.8-15.8l-6.8 15.8zm61.1-23.8h17.5c5 0 8.9 1.5 11.4 3.9c2.1 2.2 3.2 5.1 3.2 8.5v0.1c0 6.4-3.8 10.3-9.4 11.9l10.7 14.9h-8.2l-9.7-13.7h-8.6v13.7h-6.9zm17.1 19.6c4.9 0 8-2.6 8-6.6v-0.1c0-4.3-3-6.6-8.2-6.6h-10v13.2c0 0 10.2 0 10.2 0.1zm66.3-19.6h7.4l12 18.7l11.9-18.7h7.4v39.4h-6.9v-28.2l-12.4 18.6h-0.2l-12.4-18.5v28.1h-6.8zm104.4-0.2h6.4l17.3 39.7h-7.3l-4-9.6h-18.6l-4 9.6h-7.1zm9.9 24l-6.8-15.8l-6.8 15.8zm57-3.9v-0.1c0-11.2 8.3-20.4 20.3-20.4c7.2 0 11.6 2.6 15.4 6.1l-4.5 5.2c-3.2-3-6.5-5-11-5c-7.6 0-13 6.2-13 14v0.1c0 7.7 5.4 14 13 14c4.8 0 7.9-2 11.3-5.1l4.4 4.5c-4.1 4.3-8.6 6.9-15.9 6.9c-11.5 0-20-8.9-20-20.2zm83.7-19.9h29.2v6.2h-22.3v10.2h19.8v6.2h-19.8v10.6h22.6v6.2h-29.5zm78.7 22.7v-22.7h6.9v22.4c0 7.4 3.8 11.3 10 11.3c6.1 0 9.9-3.7 9.9-11v-22.7h6.9v22.4c0 11.8-6.6 17.6-16.9 17.6c-10.3 0-16.8-5.9-16.8-17.3zm93.4-16.3h-12.5v-6.4h32v6.4h-12.5v33h-6.9c0 0 0-33-0.1-33zm69.9-6.4h6.9v39.4h-6.9zm56.2 19.8v-0.1c0-11.2 8.4-20.3 20.3-20.3c7.3 0 11.7 2.5 15.4 6.1l-4.4 5.1c-3.2-2.9-6.6-4.9-11.1-4.9c-7.5 0-13 6.2-13 13.9v0.1c0 7.7 5.5 14 13 14c4.9 0 7.9-1.9 11.3-5.1l4.5 4.5c-4.1 4.3-8.6 7-16 7c-11.4 0-20-9-20-20.3zm93.2-20.1h6.4l17.4 39.7h-7.3l-4-9.5h-18.6l-4.1 9.5h-7.1zm9.9 24l-6.8-15.7l-6.8 15.7zm58.9-23.7h6.9v33.1h20.7v6.2h-27.6zm69.3 33.7l4.1-5c3.8 3.3 7.5 5.1 12.4 5.1c4.3 0 7-1.9 7-4.9v-0.1c0-2.8-1.6-4.4-8.9-6c-8.4-2.1-13.1-4.5-13.1-11.8v-0.1c0-6.8 5.6-11.4 13.5-11.4c5.7 0 10.2 1.7 14.2 4.9l-3.7 5.3c-3.5-2.7-7.1-4.1-10.7-4.1c-4 0-6.4 2.1-6.4 4.7v0.1c0 3 1.8 4.4 9.4 6.2c8.3 2 12.6 5 12.6 11.5v0.1c0 7.4-5.8 11.8-14.1 11.8c-5.9 0-11.6-2.1-16.3-6.3zm-1006.4-220.7q0 0 0 0zm-6.8-13.9c-8.6-7.7-23.4-7.9-34.1-7.9c-26 0-66.4 7.1-66.4 72.5c0 42 19.5 71 69.3 71c11.5 0 23.3-1.2 30.9-9.3c3.7-4.2 6-9.8 6-15.3h4.7v29.5c0 0-26.8 5.5-47.2 5.5c-33 0-58.3-9.4-73.8-28.3c-9.9-12.3-15.7-28.8-15.7-50.2c0-42.5 23.1-69.3 56.7-80.6c13.6-4.5 29.6-5.5 39.6-5.5c20.2 0 40.3 2.7 40.3 2.7v29.8h-3.5c0.2-5.6-3.2-10.7-6.8-13.9zm143.8 144.7h-107.5v-3.4c3.6-0.2 8.9-1.2 12.8-5.4c4.5-4.7 4.7-11.6 4.7-32.7v-85.6c0-18.2-0.2-21.8-4.4-26.2c-2.6-2.8-6.3-4.2-12.4-4.7v-3.2h106.8v30.3h-4.4c-0.3-7.9-2.9-13.1-6.6-16c-5.2-4.4-12.8-4.4-23.4-4.4h-32v62.7h29.1c11.1 0 16.5-0.8 20.5-4.7c4.4-4.2 4.4-10.1 4.7-14h4.2l0.2 46.2h-4.4c0-4.2-0.5-9.5-5-13.7c-4-4-10.8-4.5-20.7-4.5h-28.6v57c0 11.1 2.8 12.6 17 12.6h15.5c11.6 0 18.9-0.3 23.9-4.9c3.4-3.5 6-8.6 6.3-17.2h3.7c0 0 0 31.8 0 31.8zm186.3-152.8c-4.5 4.6-4.7 11.5-4.7 32.7v120.9h-11.3l-103.4-126.1c-4.4-5.4-6-9.1-6-9.1v100.3c0 18.9 0.7 22.8 5.5 26.8c2.1 1.7 6.3 3.4 11.3 3.9v3.7h-48v-3.7c3.4-0.2 8.9-1.2 12.8-5.4c4.5-4.7 4.7-11.6 4.7-32.7v-86c0-18.9-0.8-22.9-5.5-26.8c-2.1-1.8-6.3-3.4-11.3-3.9v-3.4h35.9l101.6 125.7v-91.7c0-18.9-0.8-22.8-5.6-26.8c-2.1-1.7-6.3-3.4-11.3-3.9v-3.4h48v3.4c-3 0.1-8.8 1.3-12.7 5.5zm157.9 21.8c-0.2-7.9-2.8-13.3-6.5-16.2c-5.3-4.5-12.9-4.7-23.4-4.7h-19.4v118c0 15.5 0.7 20.4 3.4 23.9c4.2 5.8 18.6 6.6 18.6 6.6v3.7h-67.9v-3.7c0 0 13.6-1.5 17.6-5.7c4.4-4.6 4.7-11.3 4.7-32.4v-110.4h-15.8c-11.8 0-21.8-0.2-27.6 5c-2.8 2.4-5.7 8.3-6 15.9h-4v-30h130.4v30zm134.1 131.1h-107.6v-3.4c3.7-0.3 8.9-1.3 12.8-5.5c4.5-4.6 4.8-11.5 4.8-32.6v-85.6c0-18.2-0.3-21.9-4.5-26.3c-2.6-2.7-6.3-4.2-12.3-4.6v-3.4h106.8v30.4h-4.5c-0.2-7.9-2.9-13-6.5-15.9c-5.3-4.5-12.9-4.5-23.4-4.5h-32v62.7h29.1c11 0 16.5-0.7 20.4-4.6c4.5-4.2 4.5-10.1 4.7-14.1h4.2l0.3 46.3h-4.5c0-4.2-0.5-9.6-5-13.8c-3.9-3.9-10.7-4.4-20.7-4.4h-28.6v57c0 11 2.9 12.5 17.1 12.5h15.5c11.5 0 18.8-0.2 23.8-4.9c3.5-3.4 6.1-8.6 6.3-17.2h3.7c0 0 0 31.9 0.1 31.9zm78.5 1.2c-16.3 0-28.8-1.7-40.9-5.4c0 0 0.5-22.4 0-29.5h4.2c0 5.4 2.3 11.5 6.3 15.7c6 6.4 16.8 9.9 28.6 9.9c18.3 0 37.5-4.7 37.5-29c0-17.7-12.3-24.6-27.8-34.5l-14.9-9.3c-19.5-12.1-30.2-21.7-30.2-41.8c0-8.1 2.3-40.6 53.8-40.6c21.5 0 38.3 2.8 38.3 2.8c0 0-0.3 24.3 0 29.7h-4.5c-0.5-7.1-2.8-12-6.8-15.7c-6-5.7-14.9-7.7-26.5-7.7c-27.2 0-33.6 12.3-33.6 25.9c0 15 8.2 20.1 25.3 30.7l16.2 10.1c16.8 10.6 32.8 19.2 32.8 44.2c-0.1 43.5-47.3 44.5-57.8 44.5zm127.4 0c-16.3 0-28.8-1.7-40.9-5.4c0 0 0.5-22.4 0-29.5h4.2c0 5.4 2.3 11.5 6.3 15.7c6 6.4 16.7 9.9 28.6 9.9c18.3 0 37.5-4.7 37.5-29c0-17.7-12.3-24.6-27.8-34.5l-15-9.3c-19.4-12.1-30.1-21.7-30.1-41.8c0-8.1 2.3-40.6 53.8-40.6c21.5 0 38.3 2.8 38.3 2.8c0 0-0.3 24.3 0 29.7h-4.5c-0.5-7.1-2.8-12-6.8-15.7c-6-5.7-14.9-7.7-26.5-7.7c-27.2 0-33.6 12.3-33.6 25.9c0 15 8.2 20.1 25.2 30.7l16.3 10.1c16.8 10.6 32.8 19.2 32.8 44.2c-0.1 43.5-47.3 44.5-57.8 44.5zm183.6-1v-3.7c4-0.2 8.2-1 10.8-3.2c1.6-1.2 2.3-3.2 2.3-5.7c0-3.2-2.1-9.1-4.2-14.5l-15.5-40.6h-53.8l-16.5 40.6c-2.1 5.4-4.4 11.3-4.4 14.5c0 2.5 0.7 4.5 2.3 5.7c2.6 2.2 6.6 3 10.5 3.2v3.7c0 0-37.5-0.7-44.8 0v-3.7c9.7-0.5 12.5-7.1 13.4-8.3c1-1.5 4.7-8.9 9.2-19.2l59.9-133.8h10.6l50.9 130.8c4.7 12.3 7.9 19.9 9.5 22.4c0.7 1.2 3.7 7.6 13.4 8.1v3.7c-7.4-0.5-46.2-0.3-53.6 0zm-23.5-111.6c-5.8-15.2-8.7-23.8-8.7-23.8l-23.9 58h45.7z" />
			</g>
		</g>
	</g>
	<g id="Layer_1">
	</g>
</svg>