<svg version="1.2" xmlns="http://www.w3.org/2000/svg" viewBox="0 0 1555 1545" width="1555" height="1545">
	<title>Columbia_Sportswear_Co_logo-svg</title>
	<style>
		.s0 { fill: #ffffff } 
	</style>
	<path id="Columbia_logo_blue" fill-rule="evenodd" class="s0" d="m456.2 912.6c42.4 42.5 42.4 106.2 0 148.6l-37.1 37.2c-42.5 42.4-106.1 42.4-148.6 0l-238.7-238.8c-42.4-42.5-42.4-106.1 0-148.6l37.2-37.1c42.4-42.5 106.1-42.5 148.5 0zm212.2-217.6c42.4 42.5 42.4 106.1 0 148.6l-37.2 37.1c-42.4 42.5-106 42.5-148.5 0l-238.7-238.7c-42.4-42.5-42.4-106.2 0-148.6l37.1-37.2c42.5-42.4 106.1-42.4 148.6 0zm636.5 212.3c42.5 42.4 42.5 106.1 0 148.6l-37.1 37.1c-42.4 42.5-106.1 42.5-148.5 0l-238.7-238.8c-42.5-42.4-42.5-106.1 0-148.5l37.1-37.2c42.4-42.4 106.1-148.6 148.5-106.1 0 11.1 1.9 22.2 5.6 32.9-3.7 32.4-5.6 62.1-5.6 73.2zm-233.1-311.9c5.2-44.9 13.9-94.9 26.2-107.3l37.2-37.1c42.4-42.5 106.1-42.5 148.5 0l238.7 238.8c42.4 42.4 42.4 106.1 0 148.5l-37.1 37.2c-42.5 42.4-106.1 42.4-148.6 0l-238.7-238.8c-12.3-12.3-21-26.5-26.2-41.3zm-424.7-139.1c-42.4 42.5-106.1 42.5-148.5 0l-37.1-37.1c-42.5-42.5-42.5-106.2 0-148.6l238.7-238.8c42.4-42.4 106.1-42.4 148.5 0l37.1 37.2c42.5 42.4 42.5 106.1 0 148.5zm212.2 212.3c-42.4 42.4-106.1 42.4-148.5 0l-37.1-37.2c-42.5-42.4-42.5-106.1 0-148.5l238.7-238.8c42.4-42.5 106.1-42.5 148.5 0l37.1 37.1c42.5 42.5 42.5 106.2 0 148.6zm-212.1 626.1c-42.5 42.5-106.1 42.5-148.6 0l-37.1-37.1c-42.4-42.5-42.4-106.1 0-148.6l238.7-238.8c42.4-42.4 106.1-42.4 148.5 0l37.2 37.2c42.4 42.4 42.4 106.1 0 148.5zm217.5 217.6c-42.5 42.4-106.1 42.4-148.6 0l-37.1-37.2c-42.4-42.4-42.4-106.1 0-148.5l233.4-244.1c42.4-42.4 106.1-42.4 148.5 0l37.2 37.1c42.4 42.5 42.4 106.2 0 148.6z"/>
</svg>