<svg version="1.2" xmlns="http://www.w3.org/2000/svg" viewBox="0 0 1570 420" width="1570" height="420">
	<title>909589-commscope-logo-nmn-header-svg</title>
	<style>
		.s0 { fill: #000000 } 
	</style>
	<path id="Shape_2_copy_2" fill-rule="evenodd" class="s0" d="m148.8 44.3q-5.1-4.5-11-8.1-5.9-3.6-12.3-6-6.4-2.5-13.2-3.7-6.7-1.3-13.6-1.3c-42.5 0-75 36.4-75 79.6 0 42.6 32.2 79 74.5 79q7 0 13.8-1.4 6.9-1.3 13.4-3.9 6.5-2.6 12.4-6.3 5.9-3.8 11-8.5l12 18.7c-18.6 17-42.9 23-61.8 23.6-54.2 1.7-99-44.2-99-100.5 0-57.6 45.1-102.5 101-102.5 21.1 0 43.2 5.9 59.8 23.1zm205.2 60.2c0 57.9-44.6 101.5-99.5 101.5-54.9 0-99.4-43.6-99.4-101.5 0-55.8 45-101.5 99.4-101.5 54.4 0 99.5 45.7 99.5 101.5zm-23.7 0c0-42.9-31.2-78.8-75.8-78.8-44.5 0-75.8 35.9-75.8 78.8 0 44.4 34.8 78.8 75.8 78.8 41.1 0 75.8-34.4 75.8-78.8zm547.9-54.6c-0.7-12.7-10.9-24.2-27.6-24.2-15.1 0-31.7 10.6-31.7 27.7 0 15.2 14.6 23.2 26.4 27.9l13.6 5.4c27 10.8 47.1 26.1 47.1 58.6 0 35.4-26.7 60.7-60.7 60.7-30.7 0-55.7-22.1-58.6-59.2l23.9-0.4c-0.1 4.8 0.7 9.7 2.5 14.2 1.8 4.5 4.5 8.6 8 12.1 3.4 3.4 7.5 6.2 12 8 4.5 1.8 9.4 2.7 14.2 2.6 20.4 0 35.1-17.6 35.1-38 0-20.9-16.4-29.9-32.8-36.9l-13.1-5.7c-21.6-9.6-41.3-22.2-41.3-49.3 0-31.5 27.2-50.4 55.9-50.4 21.2 0 45.4 12.9 48.9 47zm429.6 152h-23.6v-194.8h27.2c58.4 0 76.5 20.7 76.5 56.3 0 41.1-30.4 56.9-66.5 56.9h-13.6c0 0 0 81.6 0 81.6zm0-103.3h7.6c24.2 0 50.4-4.7 50.4-35.7 0-30.5-28.2-34.1-51.6-34.1h-6.4zm97-91.4h102v22.2h-78.3v54.5h76v22.2h-76v73.6h78.3v22.2h-102zm-340.6 37.2q-5.1-4.5-11-8.1-5.9-3.6-12.3-6-6.4-2.5-13.2-3.7-6.7-1.3-13.6-1.3c-42.6 0-75 36.5-75 79.6 0 42.6 32.2 79 74.5 79q7 0 13.8-1.3 6.9-1.4 13.4-4 6.5-2.6 12.4-6.3 5.9-3.7 11-8.5l12 18.7c-18.6 17-42.9 23.1-61.9 23.6-54 1.7-98.9-44.1-98.9-100.4 0-57.6 45.1-102.6 101-102.6 21.2 0 43.2 5.9 59.8 23.1zm-532.9 72.3c-1.4-27.1-3.1-59.6-2.8-83.9h-0.9c-6.4 22.8-14.3 47.3-23.8 73.8l-33.5 94.2h-18.5l-30.6-92.5c-9-27.3-16.6-52.4-21.9-75.5h-0.6c-0.5 24.3-1.9 56.8-3.6 85.9l-5.1 83.3h-23.3l13.2-194.2h31.2l32.3 93.9c7.8 23.9 14.3 45.2 19.1 65.4h0.8c4.8-19.6 11.5-40.9 20-65.4l33.7-93.9h31.1l11.8 194.2h-23.9zm213.7 0c-1.4-27.1-3.1-59.7-2.9-83.9h-0.8c-6.5 22.8-14.3 47.3-23.9 73.8l-33.4 94.2h-18.5l-30.6-92.5c-9-27.3-16.6-52.4-21.9-75.5h-0.6c-0.5 24.2-1.9 56.8-3.6 85.9l-5.1 83.3h-23.3l13.2-194.2h31.2l32.3 93.9c7.8 23.9 14.3 45.2 19.1 65.4h0.8c4.8-19.6 11.5-40.9 19.9-65.4l33.7-93.9h31.2l11.8 194.2h-23.9zm801.3-112.8c3.1 0 6.2 0.6 9 1.8 2.9 1.2 5.5 2.9 7.6 5.1 2.2 2.2 3.9 4.8 5.1 7.7 1.2 2.8 1.7 5.9 1.7 9 0.1 6.3-2.4 12.4-6.8 16.8-4.5 4.5-10.5 7-16.8 7-6.3 0-12.4-2.5-16.8-7-4.5-4.4-6.9-10.5-6.9-16.8 0-3.1 0.6-6.2 1.8-9.1 1.2-2.8 3-5.4 5.2-7.6 2.2-2.2 4.8-4 7.7-5.1 2.8-1.2 5.9-1.8 9-1.8zm-0.3 4.8c-10.1 0-17.6 8.4-17.6 18.8-0.1 2.4 0.2 4.9 1.1 7.1 0.9 2.3 2.2 4.4 3.8 6.1 1.7 1.8 3.7 3.2 6 4.2 2.2 0.9 4.6 1.4 7 1.4 10.1 0.2 17.6-8.3 17.6-18.8 0-10.4-7.5-18.8-17.7-18.8zm-3.5 31h-5.4v-23.4q1.1-0.2 2.2-0.4 1.1-0.2 2.2-0.3 1.1-0.1 2.3-0.1 1.1-0.1 2.2-0.1 1-0.1 2.1 0 1 0.1 2 0.3 1 0.2 2 0.6 1 0.4 1.9 1 0.5 0.5 0.9 1 0.5 0.6 0.7 1.3 0.3 0.6 0.5 1.3 0.1 0.7 0.1 1.4 0 1-0.4 2-0.4 0.9-1 1.6-0.7 0.8-1.5 1.3-0.9 0.5-1.9 0.7v0.3c2.3 0.7 3.6 2.6 4.3 5.8q0 0.7 0.2 1.5 0.1 0.7 0.3 1.4 0.2 0.8 0.5 1.5 0.3 0.7 0.6 1.3h-5.7q-0.4-0.6-0.6-1.3-0.3-0.7-0.5-1.4-0.3-0.7-0.4-1.4-0.2-0.7-0.3-1.5-0.1-0.8-0.5-1.6-0.4-0.8-1.1-1.3-0.7-0.5-1.5-0.8-0.9-0.2-1.7 0h-2.5c0 0 0 9.3 0 9.3zm0.1-13.2h2.5c3 0 5.3-1 5.3-3.5 0-2.1-1.5-3.6-4.8-3.6q-0.4 0-0.8 0.1-0.4 0-0.7 0-0.4 0-0.8 0.1-0.3 0.1-0.7 0.1zm-272.3 71.9c2.4 37.8-16 74-48.1 94.3-32 20.2-72.6 21.5-105.8 3.2-33.2-18.3-53.8-53.3-53.7-91.1 0-14.6 3.1-29.1 9-42.4 6-13.3 14.7-25.2 25.6-34.9 10.9-9.8 23.7-17.1 37.6-21.5 13.9-4.4 28.6-5.9 43.1-4.2-40.4-0.1-79.6 23.4-87.4 71.1-7.6 47 21.7 84.3 60.7 94.4 19.3 6.6 43.6 4.8 59.4-13.6 9.9-11.5 14.4-45.8-24.9-53.5-37.8-7.5-55.8-24.3-51.7-54.1 4.2-31.1 45.5-46.5 76.6-35.1 34.3 16.1 57.2 49.6 59.6 87.4zm-1182.2 263.7v55.6q0 0.2-0.1 0.4-0.1 0.3-0.3 0.4-0.2 0.2-0.4 0.3-0.2 0.1-0.5 0.1h-4.3q-0.3 0-0.5-0.1-0.2-0.1-0.4-0.3-0.2-0.1-0.3-0.4-0.1-0.2-0.1-0.4v-55.7c0-27.3-8.7-30.9-27.3-30.9h-30.6v86.6q0 0.2-0.1 0.4-0.1 0.3-0.2 0.4-0.2 0.2-0.4 0.3-0.3 0.1-0.5 0.1h-4.4q-0.2 0-0.5-0.1-0.2-0.1-0.4-0.2-0.2-0.2-0.2-0.5-0.1-0.2-0.1-0.4v-90.1q0-0.3 0.1-0.5 0.1-0.3 0.3-0.5 0.2-0.2 0.5-0.3 0.2-0.1 0.5-0.1 4.4-0.4 8.8-0.6 4.4-0.3 8.9-0.5 4.4-0.1 8.8-0.2 4.4 0 8.8 0.1c23.8 0 34.9 4.7 34.9 37.1zm97.8 10.2c0 37.5-7.2 47.5-36.6 47.5-29.6 0-36.6-10-36.6-47.5 0-37.5 7-47.3 36.6-47.3 29.4 0 36.6 9.7 36.6 47.3zm-66.5 0c0 32.8 5.6 41.3 29.9 41.3 24.1 0 29.7-8.5 29.7-41.3 0-32.8-5.6-41.2-29.7-41.2-24.3 0-29.9 8.4-29.9 41.2zm204.5-46.3q0.3 0 0.5 0.1 0.3 0.1 0.5 0.3 0.1 0.2 0.2 0.5 0 0.3-0.1 0.5l-16.1 69.7c-4.9 20.9-6.3 22.7-15.1 22.7-9.2 0-10.3-1.8-15.5-22.7l-14.4-57.8-14.2 57.8c-5.2 20.9-6.3 22.7-15.5 22.7-8.8 0-10.2-1.8-15.1-22.7l-16.1-69.7q-0.1-0.2-0.1-0.5 0.1-0.3 0.2-0.5 0.2-0.2 0.4-0.3 0.3-0.1 0.6-0.1h4.5q0.2 0 0.4 0.1 0.3 0.1 0.4 0.2 0.2 0.2 0.3 0.4 0.1 0.2 0.1 0.4l15.8 68.7c3.7 15.2 4.9 17.3 8.4 17.3 4.4 0 5.1-1 9.3-17.3l15.4-62.3c0.5-2.2 1-2.8 2.2-2.8h6.2c1.2 0 1.7 0.6 2.2 2.8l15.4 62.3c4.2 16.3 4.9 17.3 9.3 17.3 3.5 0 4.7-2.1 8.4-17.3l15.8-68.7q0-0.3 0.1-0.5 0.2-0.2 0.4-0.3 0.2-0.2 0.4-0.2 0.2-0.1 0.5-0.1c0 0 4.3 0 4.3 0zm187.6 36.2v55.5q0 0.2-0.1 0.4-0.1 0.3-0.2 0.4-0.2 0.2-0.5 0.3-0.2 0.1-0.4 0.1h-4.4q-0.2 0-0.4-0.1-0.2-0.1-0.4-0.3-0.1-0.2-0.2-0.4-0.1-0.2 0-0.4v-55.7c0-27.3-9-30.9-27.5-30.9q-3.6-0.1-7.2 0.1-3.6 0.2-7.1 0.5-3.6 0.4-7.2 0.9-3.5 0.5-7 1.3c3.5 5.2 5.2 13.1 5.2 25.6v58.2q0.1 0.2 0 0.4 0 0.3-0.2 0.4-0.1 0.2-0.4 0.3-0.2 0.1-0.4 0.1h-4.6q-0.2 0-0.4-0.1-0.2-0.1-0.4-0.3-0.1-0.2-0.2-0.4-0.1-0.2 0-0.4v-58.3c0-27.3-9-28.3-27.5-28.3h-25.5v86.6q0 0.2-0.1 0.4-0.1 0.3-0.3 0.4-0.2 0.2-0.4 0.3-0.2 0.1-0.5 0.1h-4.3q-0.3 0-0.5-0.1-0.3-0.1-0.5-0.2-0.1-0.2-0.2-0.5-0.1-0.2-0.1-0.4v-90.1q0-0.3 0.2-0.5 0.1-0.3 0.3-0.5 0.2-0.2 0.4-0.3 0.3-0.1 0.5-0.1 3.8-0.4 7.6-0.6 3.8-0.3 7.6-0.4 3.8-0.2 7.7-0.2 3.8-0.1 7.6 0c10.3 0 18.9 0.9 24.6 4.3q4-1 8.1-1.9 4.1-0.8 8.2-1.3 4.1-0.6 8.2-0.8 4.1-0.3 8.3-0.3c23.6 0 34.6 4.7 34.6 37.2zm95.2 5.9v5.2c0 1.6-0.2 2.3-2.6 2.3h-60.9c0.3 30 5.2 38 28.9 38h25.3q0.2 0 0.4 0.1 0.3 0.1 0.4 0.2 0.2 0.2 0.2 0.4 0.1 0.2 0.1 0.4v3.1q0 0.2 0 0.4-0.1 0.2-0.2 0.4-0.1 0.1-0.3 0.2-0.2 0.1-0.4 0.1c-6.7 0.9-20.8 0.9-25.5 0.9-30 0-35.7-9.8-35.7-47.7 0-37.9 5.7-47.1 35.6-47.1 27.7 0 34.3 8.5 34.7 43.1zm-63.5 1.2h56.8c-0.3-31.8-5.6-38.2-28-38.2-23.7 0-28.6 7.7-28.8 38.2zm154-1.2v5.2c0 1.6-0.2 2.3-2.7 2.3h-60.9c0.4 30 5.3 38 28.9 38h25.4q0.2 0 0.4 0.1 0.2 0.1 0.4 0.2 0.1 0.2 0.2 0.4 0.1 0.2 0 0.4v3.1q0.1 0.2 0 0.4 0 0.2-0.1 0.4-0.2 0.1-0.4 0.2-0.1 0.1-0.3 0.1c-6.7 0.9-20.9 0.9-25.6 0.9-29.9 0-35.7-9.8-35.7-47.7 0-37.9 5.8-47.1 35.7-47.1 27.7 0 34.3 8.5 34.7 43.1zm-63.6 1.2h56.9c-0.3-31.8-5.6-38.2-28-38.2-23.8 0-28.7 7.7-28.9 38.2zm95.4-70c0.7-0.2 1.2 0 1.2 1.1v25.6h20.9q0.2 0 0.4 0.1 0.3 0.1 0.4 0.3 0.2 0.1 0.3 0.4 0.1 0.2 0.1 0.4v3.5q0 0.3-0.1 0.5-0.1 0.2-0.3 0.4-0.1 0.2-0.4 0.3-0.2 0.1-0.4 0.1h-20.9v71.4c0 8 2.5 10.3 11.2 10.3h11.4q0.2-0.1 0.5 0 0.2 0 0.4 0.2 0.1 0.1 0.2 0.4 0.1 0.2 0.1 0.4v3.1q0.1 0.3 0 0.5-0.1 0.2-0.2 0.4-0.2 0.2-0.4 0.3-0.2 0.1-0.4 0.1-1.4 0.1-2.8 0.3-1.4 0.1-2.8 0.2-1.4 0.1-2.8 0.1-1.4 0.1-2.8 0.1c-12.8 0-18.4-3-18.4-15.7v-72.1h-10.3q-0.2 0-0.4-0.1-0.3-0.1-0.4-0.3-0.2-0.2-0.2-0.4-0.1-0.2-0.1-0.5v-3.4q0-0.3 0.1-0.5 0-0.2 0.2-0.4 0.1-0.2 0.4-0.3 0.2-0.1 0.4-0.1h10.3v-24.4q0-0.2 0.1-0.4 0-0.3 0.2-0.4 0.1-0.2 0.3-0.3 0.2-0.1 0.5-0.1zm95 26.3c0.8 0.2 0.8 0.6 0.8 1.2v3q0.1 0.2 0 0.5 0 0.2-0.2 0.4-0.1 0.2-0.3 0.3-0.3 0.1-0.5 0h-30.3c-6.8 0-19.8 1.1-19.8 13v3.8c0 7.7 1.8 12 12.1 16.4l28.2 11.9c12.1 5.2 14.7 11.8 14.7 20.9v2.8c0 15.5-8.1 19.9-32.7 19.9-5.6 0-23.1-0.2-28.5-0.9q-0.3 0-0.5 0-0.2-0.1-0.3-0.3-0.2-0.1-0.2-0.3-0.1-0.2-0.1-0.4v-3.2q0-0.2 0.1-0.4 0.1-0.2 0.3-0.4 0.1-0.1 0.4-0.2 0.2 0 0.4 0h28.5c19.5 0 25.9-3.3 25.9-13.8v-3c0-6.6-2.2-11.5-11-15.1l-28.3-11.9c-13.1-5.6-15.6-12.2-15.6-22.2v-3.8c0-17.8 18-18.9 27.7-18.9 4.1 0 22.3 0 29.2 0.7zm142.8 36.5v55.5q0 0.3-0.1 0.5-0.1 0.2-0.3 0.4-0.2 0.2-0.4 0.2-0.2 0.1-0.5 0.1h-4.3q-0.3 0-0.5-0.1-0.2 0-0.4-0.2-0.2-0.2-0.3-0.4-0.1-0.2-0.1-0.5v-55.7c0-27.2-8.7-30.9-27.3-30.9h-30.6v86.6q0 0.3-0.1 0.5-0.1 0.2-0.2 0.4-0.2 0.2-0.4 0.2-0.3 0.1-0.5 0.1h-4.4q-0.2 0.1-0.5 0-0.2-0.1-0.4-0.3-0.2-0.2-0.3-0.4 0-0.2 0-0.5v-90.1q0-0.2 0.1-0.5 0.1-0.2 0.3-0.4 0.2-0.2 0.5-0.3 0.2-0.2 0.5-0.2 4.4-0.3 8.8-0.6 4.4-0.3 8.8-0.4 4.5-0.2 8.9-0.2 4.4 0 8.8 0c23.8 0 34.9 4.7 34.9 37.2zm95.1 5.9v5.3c0 1.5-0.1 2.2-2.6 2.2h-60.9c0.4 30.1 5.3 38.1 28.9 38.1h25.4q0.2 0 0.4 0 0.2 0.1 0.3 0.3 0.2 0.1 0.3 0.3 0 0.2 0 0.4v3.2q0.1 0.2 0 0.4 0 0.2-0.2 0.3-0.1 0.2-0.3 0.3-0.2 0-0.4 0c-6.6 0.9-20.8 0.9-25.5 0.9-29.9 0-35.7-9.8-35.7-47.6 0-37.9 5.8-47.2 35.7-47.2 27.6 0 34.3 8.6 34.6 43.1zm-63.5 1.3h56.9c-0.4-31.8-5.6-38.3-28-38.3-23.8 0-28.7 7.7-28.9 38.3zm146.1-43.3q0.3-0.1 0.5 0 0.3 0.2 0.4 0.4 0.1 0.3 0.1 0.5-0.1 0.3-0.3 0.5l-30.2 42 34.6 48c0.4 0.7 0.2 1.4-0.7 1.4h-5.9q-0.2 0.1-0.4 0-0.2 0-0.4-0.1-0.1-0.1-0.3-0.2-0.1-0.2-0.2-0.4l-30.8-43.1-30.8 43.1q-0.1 0.2-0.2 0.4-0.2 0.1-0.4 0.2-0.2 0.1-0.4 0.1-0.2 0.1-0.4 0h-5.7q-0.3 0.1-0.6 0-0.2-0.2-0.3-0.4-0.2-0.2-0.1-0.5 0-0.3 0.2-0.5l34.7-48-30.3-42c-0.5-0.7-0.3-1.4 0.6-1.4h5.9q0.2 0 0.4 0 0.2 0.1 0.4 0.1 0.2 0.1 0.3 0.3 0.2 0.1 0.3 0.3l26.4 37 26.4-37q0.2-0.2 0.3-0.3 0.2-0.2 0.4-0.3 0.2 0 0.4-0.1 0.2 0 0.4 0c0 0 5.7 0 5.7 0zm31.9-26.7c0.7-0.2 1.2 0 1.2 1v25.7h20.8q0.3 0 0.5 0.1 0.2 0.1 0.4 0.2 0.2 0.2 0.3 0.4 0.1 0.3 0 0.5v3.5q0.1 0.2 0 0.5-0.1 0.2-0.3 0.4-0.2 0.1-0.4 0.2-0.2 0.1-0.5 0.1h-20.8v71.4c0 8 2.4 10.3 11.2 10.3h11.4q0.2 0 0.4 0 0.2 0.1 0.4 0.2 0.2 0.2 0.3 0.4 0.1 0.2 0.1 0.5v3.1q0 0.2 0 0.4-0.1 0.3-0.2 0.4-0.2 0.2-0.4 0.3-0.2 0.1-0.5 0.1-1.3 0.2-2.7 0.3-1.4 0.1-2.8 0.2-1.4 0.1-2.8 0.2-1.4 0-2.9 0c-12.7 0-18.3-3-18.3-15.7v-72.1h-10.4q-0.2 0-0.4-0.1-0.2-0.1-0.4-0.3-0.1-0.1-0.2-0.4 0-0.2 0-0.4v-3.5q0-0.2 0-0.5 0.1-0.2 0.2-0.4 0.2-0.1 0.4-0.2 0.2-0.1 0.4-0.1h10.4v-24.5q0-0.2 0-0.4 0.1-0.2 0.3-0.4 0.1-0.2 0.3-0.3 0.2-0.1 0.4-0.1z"/>
</svg>