<svg version="1.2" xmlns="http://www.w3.org/2000/svg" viewBox="0 0 1573 229" width="1573" height="229">
	<title>cosmo-logo-svg</title>
	<style>
		.s0 { fill: #ee2d3e } 
		.s1 { fill: #ffffff } 
	</style>
	<g id="Layer">
		<g id="Layer">
			<path id="Layer" class="s0" d="m114.2 0.2v53.2l-60.8 60.8 60.8 60.8v53.2l-114.2-114zm60.9 114l-60.9 60.8v-121.5z"/>
		</g>
		<path id="Layer" fill-rule="evenodd" class="s1" d="m444.2 163c-37.2 0-61-17.3-61-49.5 0-32.6 25.2-47.4 61.1-47.4 36 0 61.6 14.8 61.6 47.4 0 32.2-24.4 49.5-61.7 49.5zm0.1-77.7c-22.3 0-37.6 8.5-37.6 28.6 0 20.2 15.2 29.7 37.6 29.7 22.8 0 37.7-9.8 37.7-29.7 0-19.8-15.2-28.6-37.7-28.6zm100.5 45.7c0 10 9.1 13.8 35.3 13.8 24.5 0 31.7-3.3 31.7-10.9 0-6.8-5-10.6-37.3-11.8-39.9-1.8-50.4-11.5-50.4-28 0-18.3 14.3-27.7 53.6-27.7 36.3 0 53.9 7.4 53.9 28.8 0 1.5-0.2 2.8-0.4 4.5-2.5-0.1-6.8-0.3-10.9-0.3-4.2 0-8.5 0.1-10.6 0.1v-2.7c0-8.9-7.6-12.9-32.5-12.9-23.8 0-30.6 3.5-30.6 10.3 0 6.4 4.4 10.2 37.8 11.7 39.9 2 49.6 10 49.6 27.9 0 18.8-14.5 28.7-54.6 28.7-41.9 0-56.6-9.9-56.6-29.5 0-1.4 0.1-2.7 0.1-4.2 2.7 0.3 6.7 0.4 10.9 0.4 4.1 0 8.2 0 11-0.4v2.2zm262.9 29c0.4-12.4 0.4-31.5 0.4-52.9 0-13.3-7-20.1-23-20.1-16 0-29.2 7.5-29.2 25.9 0 23-0.1 35.7 0.5 47.1h-23.7c0.5-12.6 0.6-28.4 0.6-52.7 0-13.4-6.8-20.3-23.2-20.3-15.9 0-29 7.5-29 25.9 0 22.2 0 38.4 0.3 47.1h-23.9c0.4-12.6 0.3-25.5 0.3-44.1 0-20 0-33.6-0.3-46.8h24.5c-0.3 6.4-0.3 11.2-0.7 17.6l1.1 0.3c6.6-13.1 18.6-19.6 37.4-19.6 19.6 0 31.7 6.7 34.9 20l1.1 0.2c6.7-14.4 20.5-20.2 39-20.2 24.5 0 36.5 11.1 36.5 32.3 0 11.8-0.3 21.5-0.3 31.7 0 9.3 0.2 20 0.5 28.6zm105.4 3c-37.1 0-61-17.3-61-49.5 0-32.6 25.2-47.4 61.2-47.4 36 0 61.6 14.8 61.6 47.4 0 32.2-24.4 49.5-61.8 49.5zm0.2-77.7c-22.3 0-37.6 8.5-37.6 28.6 0 20.2 15.1 29.7 37.6 29.7 22.7 0 37.6-9.8 37.6-29.7 0-19.8-15.2-28.6-37.6-28.6zm261.2-38.9c-0.1 2.9-0.3 7-0.3 10.5 0 4 0.2 8.6 0.3 11.8-32.1-0.2-63.8-0.3-89.2-0.3 0 10.6 0 23 0 31.5v3.1c31 0 61.6 0 87.9-0.4-0.3 5.4-0.3 15.4-0.3 20.7-26 0-56.8-0.3-87.4-0.3 0.1 13.5 0.4 27.3 0.9 37h-27.3c0.3-15.6 0.4-32.7 0.4-56.8 0-24.1 0-41.5-0.4-56.8zm38.7 13.6c-13.2 0-15.7-3.9-15.7-8.6 0-4.7 2.6-7.9 15.7-7.9 12.9 0 15.5 3.2 15.5 7.9 0 4.7-2.5 8.6-15.5 8.6zm-12.8 100c0.5-15.5 0.5-28.3 0.5-47 0-17.7-0.2-29.1-0.5-43.9h25.2c-0.6 14.8-0.4 26.1-0.4 44.5 0 20-0.2 31.1 0.4 46.4zm78.7-68.8c5.8-16.2 18.5-23.6 36.3-23.6 8.8 0 15.8 1.5 22 3.6-0.9 5.2-2.3 16.4-2.6 22.4-6.2-2.5-13-3.9-22.3-3.9-19.4 0.1-31.4 8.2-31.4 29.8 0 14.1 0 31.4 0.6 40.5h-26.4c0.3-12.6 0.5-25.9 0.5-45.2 0-19.5-0.2-32.7-0.5-45.7h23.4c-0.3 6.6-0.5 13.6-0.6 21.9zm93.1 39.8c0 10 9.2 13.8 35.4 13.8 24.4 0 31.7-3.3 31.7-10.9 0-6.8-5-10.6-37.3-11.8-39.9-1.8-50.4-11.5-50.4-28 0-18.3 14.3-27.7 53.6-27.7 36.2 0 53.8 7.4 53.8 28.8 0 1.5-0.1 2.8-0.3 4.5-2.6-0.1-6.8-0.3-10.9-0.3-4.3 0-8.5 0.1-10.6 0.1v-2.7c0-8.9-7.6-12.8-32.5-12.8-23.8 0-30.7 3.4-30.7 10.2 0 6.4 4.4 10.2 37.8 11.7 39.9 2 49.6 10 49.6 27.9 0 18.8-14.4 28.7-54.6 28.7-41.8 0-56.6-9.9-56.6-29.5 0-1.4 0.2-2.7 0.2-4.2 2.7 0.3 6.7 0.4 10.9 0.4 4.1 0 8.2 0 10.9-0.4 0 0 0 2.2 0 2.2zm142.5-61.7c19.3 0.1 40.2 0 55.5-0.2-0.3 5.6-0.6 14-0.4 19.9-14.4-0.3-35.5-0.5-55.4-0.8-0.2 10.8-0.2 22.3-0.2 34.9 0 11.8 5.5 17.7 23.6 17.7 12.9 0 23-2 30.8-4.6 0.9 7 2.2 14.7 3.6 21.1-11.5 2.2-22.8 3.9-37.2 3.9-34.7 0-44.9-14.5-44.9-34.2 0-8.8 0.2-23.8 0.2-38.9h-15.4c0-4.9 0-14-0.1-19 4.2 0 9.6 0.2 15.6 0.2v-19.3c4.1 0 8.4 0.2 12.6 0.2 4.1 0 8.1 0 12-0.2zm-1149.6 53c-2.3 24.1-21.2 39.9-67 39.9-47.3 0-73.6-19-73.6-59.6 0-39.2 27.6-58.3 72.8-58.3 42.7 0 65.5 13.7 67.4 39h-26.6c-3.6-12.1-17-17.5-41.3-17.5-29.5 0.3-45.6 10.5-45.6 36.2 0 26.1 16.9 38.1 46.8 38.1 25.1 0 37.2-6.5 40.3-17.8z"/>
	</g>
</svg>