<svg version="1.2" xmlns="http://www.w3.org/2000/svg" viewBox="0 0 1512 1486" width="1512" height="1486">
	<title>5bb5deb705a2a-svg</title>
	<style>
		.s0 { fill: #ff5a34 } 
		.s1 { fill: #111822 } 
	</style>
	<g id="#ff5a34ff">
		<path id="Layer" class="s0" d="m1146.4 8.4c54.7-13.6 114.2-9.4 165.6 14.2 50.1 22.4 92.2 62.4 117.1 111.4 34.7 66.6 36.5 149 5.6 217.3-21.1 46.4-56.7 86.5-101.3 111.4-71 40.9-141.7 82.4-212.9 123 48.7-34.2 84.5-86.5 97.9-144.5 14.3-60.4 5.8-126.2-24.7-180.3-32.9-59-91-103.5-156.9-118.8-52.6-13.1-108.8-7.5-158.8 13q5.6-4.3 11.8-8.1c64.2-37.2 128.3-74.8 192.6-111.9 20.8-10.2 41.3-21.4 64-26.7z"/>
		<path id="Layer" class="s0" d="m445 137.2c67.9-38.6 136-77 204-115.6 0 178.8 0 357.6 0 536.4 2 90.7 0.6 181.4 1 272 0.6 73.6 3.6 147.5 15.2 220.3 9.6 57.1 23.9 114.9 53.5 165.2 26.6 46.5 70.4 83.2 122 98.6 71.1 21.4 147.3 17.6 219.6 4-95 78.9-220.3 118.7-343.4 111.7-53.1-2.2-108.1-15.1-150.2-49.3-39.5-31.5-64.2-77.5-80.2-124.5-25.8-77.9-33.2-160.4-36.7-241.9-3.8-117.3-0.1-234.6-2.8-351.9-0.4-82.8 1-165.5-1-248.2 0-92.3 0.4-184.6-1-276.8z"/>
		<path id="Layer" class="s0" d="m1226.4 1020.7c74-39.8 148.1-79.5 222.6-118.3 20.7-1.1 41.4-0.1 62.2-0.4-12 104.6-54.5 206.4-126.1 284.2-29 31.2-60.2 62-98.7 81.3-65.8 36.9-131.4 74.1-197.2 110.8-18.2 8.8-35.6 19.4-54.4 27.1 36.8-22.8 72-48.5 102.1-79.8 81.5-80.7 130.3-191.1 143.2-304.5-17.9-0.2-35.8 0.1-53.7-0.4z"/>
	</g>
	<g id="#111822ff">
		<path id="Layer" class="s1" d="m878 155.1c50-20.5 106.2-26.1 158.8-13 65.9 15.3 124 59.8 156.9 118.8 30.5 54.1 39 119.9 24.7 180.3-13.4 58-49.2 110.3-97.9 144.5-22 13.1-44.2 26.7-69 33.8-65.5 19.8-139.2 12.6-198.4-22.1-54.2-31-95.7-83.7-112.9-143.7-18.3-61.6-11.7-130.2 18.4-187 25.5-49.6 69-88.4 119.4-111.6z"/>
		<path id="Layer" class="s1" d="m229.1 274.4c63.5-57.5 137.2-103.6 215.9-137.2 1.4 92.2 1 184.5 1 276.8 2 82.7 0.6 165.4 1 248.2 2.7 117.3-1 234.6 2.8 351.9 3.5 81.5 10.9 164 36.7 241.9 16 47 40.7 93 80.2 124.5 42.1 34.2 97.1 47.1 150.2 49.3 123.1 7 248.4-32.8 343.4-111.7 89.8-73.5 152.3-181.5 165-297.4h1.1c17.9 0.5 35.8 0.2 53.7 0.4-12.9 113.4-61.7 223.8-143.2 304.5-30.1 31.3-65.3 57-102.1 79.8-93.7 53.5-202 79.9-309.7 79.6-191.7 4.4-383.3-73.3-519-208.4-108.6-105.9-182-248.4-200.5-399.3-12.7-109.7-0.8-222.6 36.9-326.6 37.9-105.8 103.2-201.2 186.6-276.3z"/>
	</g>
</svg>