<svg version="1.2" xmlns="http://www.w3.org/2000/svg" viewBox="0 0 1553 653" width="1553" height="653">
	<title>Canadian_Pacific_Railway_logo_2014-svg</title>
	<style>
		.s0 { fill: #c2002f } 
	</style>
	<path id="Layer" fill-rule="evenodd" class="s0" d="m735.2 448.9v61.3c0 18.7-3.7 37.3-10.9 54.6-7.2 17.4-17.7 33.1-31 46.4-13.3 13.2-29 23.7-46.4 30.9-17.3 7.2-35.9 10.9-54.7 10.9h-449.3c-18.7 0-37.3-3.7-54.7-10.9-17.3-7.2-33.1-17.7-46.3-30.9-13.3-13.3-23.8-29-31-46.4-7.2-17.3-10.9-35.9-10.9-54.6v-367.4c0-18.7 3.7-37.3 10.9-54.6 7.2-17.4 17.7-33.1 31-46.4 13.2-13.2 29-23.7 46.3-30.9 17.4-7.2 36-10.9 54.7-10.9h449.3c18.8 0 37.4 3.7 54.7 10.9 17.4 7.2 33.1 17.7 46.4 30.9 13.3 13.3 23.8 29 31 46.4 7.2 17.3 10.9 35.9 10.9 54.6v61.3l-204.3 40.8v-81.6h-326.7v326.4l326.7 0.1v-81.7zm816.9-91.8c0 17.4-3.4 34.7-10.1 50.8-6.7 16-16.5 30.7-28.8 43-12.3 12.3-26.9 22.1-43.1 28.7-16.1 6.7-33.3 10.1-50.7 10.1h-398.3v163.3h-204.2v-653h602.5c18.3-0.1 36.4 3.7 53.2 11 16.8 7.3 31.9 18 44.4 31.4 12.5 13.4 22 29.2 28.1 46.5 6 17.3 8.4 35.7 7 53.9zm-531-30.6h326.8v-163.2h-326.8z"/>
</svg>