<svg version="1.2" xmlns="http://www.w3.org/2000/svg" viewBox="0 0 1555 1507" width="1555" height="1507">
	<title>logo (53)-svg</title>
	<style>
		.s0 { fill: #ffffff } 
	</style>
	<g id="Layer">
		<g id="Layer">
			<path id="Layer" fill-rule="evenodd" class="s0" d="m409.9 1028.8h180.6v338.3c0 77.3-62.5 139.8-139.9 139.8h-309.7c-77.4 0-139.9-62.5-139.9-139.8l-1-1227.2c0-77.4 62.5-139.9 139.9-139.9h308.7c77.4 0 139.9 62.5 139.9 139.9l-1 351.2h-180.6v-313.5c0-10.9-8.9-18.9-18.9-18.9h-189.5c-10.9 0-18.9 9-18.9 18.9l2 1140.8c0 11 9 18.9 18.9 18.9h189.5c11 0 18.9-8.9 18.9-18.9zm1031.1-170.6h113.2v169.7h-98.3l42.7 476.1h-194.5l-42.7-476.1h-206.4l-42.7 476.1h-195.5l42.7-476.1h-95.3v-170.7h111.2l60.5-687.5 4-42.6c5.9-71.5 66.5-127 138.9-127h157.8c72.5 0 133 55.5 138.9 128l4 42.6zm-195.5 0l-59.5-671.6c-1-9.9-9-16.9-17.9-16.9h-20.8c-9 0-16.9 8-17.9 16.9l-59.6 671.6z"/>
		</g>
	</g>
</svg>