<svg version="1.2" xmlns="http://www.w3.org/2000/svg" viewBox="0 0 1585 603" width="1585" height="603">
	<title>Compass_Group-svg</title>
	<style>
		.s0 { fill: #ffffff } 
		.s1 { fill: #ffb700 } 
	</style>
	<g id="Layer">
		<g id="Layer">
			<g id="Layer">
				<g id="Layer">
				</g>
			</g>
		</g>
	</g>
	<path id="Layer" class="s0" d="m346.3 7.6c7.6 8.4 9.4 19 14.1 28.7-13.6 16.9-34.2 24.7-51.9 35.7-6 1.3-8.1 5.7-13.8 8.1-8.9-3.7-22.7-7.6-22.7-19.8-4.9-8.6-10.9-16.4-10.9-26.9 14.6-16.4 38.8-13 54.5-28.9 8.3 0 13.8-6.8 21.8-1.8 2.4 2.6 5 5.5 8.9 4.9zm-56.6 103.2c14.6-2.1 32.1-8.6 43.8 3.9 4.4 2.6 3.4 7.3 5 10.9-1.3 2.6-2.4 9.1-8.1 9.9-6.3-0.8-12.5 4.7-18.8 7.1 3.4 1.5 9.9 4.7 11 9.9 4.4 6 0 14.3 0 19.8-4.2 13.2-23.5 11.9-21.9 28.6-20.9 7.8-33.6 28.4-56.6 31-13.3 11.5-29.4 20.1-39.8 34.6-4.7-39.3 23.9-77.3 57.5-95.3-2.1-9.1-15.8-13.5-15.8-23.7-5.8-6.5-10.5-16.1-9.9-24.7 13.5-10.5 27.3-24.5 45.8-19 1.4 2.8 5.8 3.3 7.8 7zm-75.2 267c3.6 20-6 36.9-17 52.3l-4.9 1.1 1-1.1-1-0.8c-8.6 11.2-19.3 20.4-21.9 34.7-1.6 0.5-2.9 0.7-3.9 2.1-2.6-8.6-8.1-19-3.2-26.9-1.8-24.7 9.4-42.2 20.9-62.5 7.3-4.7 14.8-17.4 22.9-10.9zm-46.6 158.6c3.1 6.8 2.1 12.8 0.8 19.8-5.3 0.3-10-0.5-13.9-2.9l-1 1.1c-5.2-3.4-10.2-7.3-10.9-14.1-2.4-9.1 9.3-7.3 10.9-14.9 4.9 1.9 10.1 7.1 14.1 11z"/>
	<path id="Layer" fill-rule="evenodd" class="s0" d="m473.7 441.8v38.2c-9.8 5.2-48.2 8.7-57.5 8.7-52.4 0-69.9-27.7-69.9-77.7 0-51.8 22.2-76.6 74.5-76.6 19.8 0 33.7 2.8 52.9 8.4v34.7h-11.7l-0.6-6.2c-3-24.2-13.9-29-40.6-29-40 0-52 29.2-52 65 0 39.3 7.1 74 53.1 74 33.2 0 36.7-9.3 39.5-39.5zm58.1-28.8c0-54.6 17.7-77 73.8-77 56.1 0 73.8 22.4 73.8 77 0 54.2-15.1 77.3-73.8 77.3-55.9 0-73.8-22.9-73.8-77.3zm22 0c0 36.3 8.4 69.7 51.8 69.7 43.4 0 51.8-33.4 51.8-69.7 0-36.2-8.4-69.5-51.8-69.5-43.4 0-51.8 33.3-51.8 69.5zm313.9-51.7h-0.4l-52.7 124.9c-0.9 2.4-3.3 2.4-4.4 0.3l-52.7-122.8h-0.4v101.2c0 13.8 3.5 14.6 17.9 14.6v7.4c-7.6-0.2-15.1-0.2-22.7-0.4-7.6 0.2-15.2 0.2-22.7 0.4v-7.4c14.3 0 17.8-0.8 17.8-14.6v-105.8c0-14-4.1-14.7-17.8-14.7v-7.3c5.8 0.2 11.4 0.2 17.3 0.4 5.8-0.2 11.4-0.2 17.2-0.4l52.9 120.2 51.9-120.2c5.8 0.2 11.6 0.2 17.4 0.4 5.9-0.2 11.7-0.2 17.5-0.4v7.3c-14.3 0-18.6 0.5-18.6 14.7v105.8c0 14 3.5 14.6 18.6 14.6v7.4c-9.1-0.2-18.2-0.2-27.4-0.4-9.1 0.2-18.2 0.2-27.3 0.4v-7.4c15.1 0 18.6-0.6 18.6-14.6 0 0 0-103.6 0-103.6zm137.1 103.4c0 11.6-0.3 14.7 20.7 14.7v7.3c-10.2-0.2-20.3-0.2-30.5-0.4-10.1 0.2-20.3 0.2-30.4 0.4v-7.3c20.9 0 20.7-3.1 20.7-14.7v-105.8c0-11.6 0.3-14.6-20.7-14.6v-7.4c10.1 0.3 20.3 0.3 30.4 0.5 14.9-0.2 29.8-0.2 44.7-0.5 27.4-0.6 42.8 7.8 42.8 37.8 0 40.6-23.1 45.3-57.9 45.3h-19.8zm0-52.2h10.5c27 0 45.6-1.3 45.6-33.9 0-31.3-10.6-33.9-35-33.9h-21.1zm199.5-74.8l45.3 118.4c2.4 6.3 8 24.9 25.1 23.6v7.3c-10-0.2-19.7-0.2-29.6-0.4-9.9 0.2-19.9 0.2-29.8 0.4v-7.8c0 0 18.8 0.5 18.8-8.4 0-4.3-2-8-3.5-11.8l-14-36.1h-51.8l-13.4 37.3c-0.8 2.8-1.9 6.7-1.9 9.5 0 9.7 10.8 9.5 17.9 9.5v7.8c-8.4-0.2-17.1-0.2-25.5-0.4-8.4 0.2-17 0.2-25.4 0.4v-7.8c7.3-0.8 11.2 0 16.4-6.2 2.8-3.5 8.8-18.4 10.7-22.7l46.5-112.6zm8.6 74.8l-21.6-55.4-23.7 57.6h46.2zm169-9.2c20.5 7.3 38.7 16.6 38.7 41.6 0 35.2-29.4 44.5-59.2 44.5-15.5 0-31.7-2.6-46.6-9.3v-39.1h14.5c2.1 21.2-3.3 41 34.9 41 19 0 37-8.6 37-30.2 0-23.9-23.4-29.3-41.9-35.8-20.3-7.3-38.5-14.7-38.5-39.7 0-28.7 23.4-41.2 49.3-41.2 14.6 0 28.7 2.3 44.4 8.2v35.4h-12.1c-2.1-16.7 1.8-35.4-31.5-35.4-17.2 0-31.3 7.5-31.3 26.5 0 12.8 6 19.9 17.5 24.6zm164-2.5c20.5 7.3 38.7 16.6 38.7 41.7 0 35.1-29.4 44.4-59.2 44.4-15.5 0-31.7-2.6-46.6-9.3v-39h14.4c2.2 21.1-3.2 41 35 41 19 0 36.9-8.6 36.9-30.2 0-24-23.3-29.4-41.8-35.9-20.3-7.3-38.4-14.6-38.4-39.7 0-28.7 23.2-41.2 49.2-41.2 14.7 0 28.7 2.4 44.4 8.2v35.4h-12.1c-2.1-16.6 1.8-35.4-31.5-35.4-17.3 0-31.3 7.6-31.3 26.6 0 12.7 6.1 19.8 17.5 24.6zm-814.3 186.9c0-5.4-0.1-5.9-10.3-5.9v-2.9c6.2 0.1 10.2 0.1 14.2 0.2 4.1-0.1 8.1-0.1 10.5-0.2v2.8c-6.5 0.4-6.7 1.6-6.7 6v8c0 1.7 0.1 2.6 0.3 3.4-7.8 2.6-15.6 3.8-23.4 3.8-20.6 0-27.8-10.6-27.8-30.2 0-20.2 8.4-30.6 29.9-31 7.9 0 13.4 1.1 21 3.3v13.8h-5c-1-11.9-4.1-14-16-14-17.3-0.5-21 13.6-21 28.2 0 15.8 4 26.8 21.4 26.8 3.7 0 8.6-0.9 12.9-3.4 0 0 0-8.7 0-8.7zm101.5 5.8c0 4.6-0.1 5.8 8.2 5.8v2.9c-4-0.1-8-0.1-12-0.2-4.1 0.1-8.1 0.1-12.1 0.2v-2.9c8.3 0 8.2-1.2 8.2-5.8v-42c0-4.6 0.1-5.8-8.2-5.8v-2.9c4 0.1 8 0.1 12.1 0.2 1.8 0 12-0.2 16.1-0.2 10.7 0 18.5 0.7 18.5 13.4 0 10-5.8 14-15.1 15 2.6 4.2 12.6 19.3 15.1 22.5 2.3 2.9 3.8 5.2 8.3 5.6v2.9c-2-0.1-4.1-0.1-6.1-0.2-2.1 0.1-4.2 0.1-6.3 0.2-5.8-9.3-17.8-28.2-20.4-29.2-2.1-0.7-4.1-0.6-6.3-0.6zm0-23.9c1.4 0.2 2.8 0.1 4.1 0.1 9.4 0 18.1-0.3 18.1-12.1 0-9.3-3.7-11.7-12.5-11.7-3.3 0-6.4 0.2-9.7 0.3zm141 33.4c-16.2 0-29.3-13.7-29.3-30.6 0-16.9 13.1-30.6 29.3-30.6 16.2 0 29.3 13.7 29.3 30.6 0 16.9-13.1 30.6-29.3 30.6zm20.6-30.6c0-15.3-9.2-27.6-20.6-27.6-11.3 0-20.5 12.3-20.5 27.6 0 15.2 9.2 27.6 20.5 27.6 11.4 0 20.6-12.4 20.6-27.6zm99.4 10.5c-0.1 11.4 4.7 17 16.4 17 12.6 0 18.6-5.1 18.6-18.3v-30c0-5-0.1-5.8-9.3-5.8v-2.9c3.5 0.1 7.1 0.1 10.6 0.2 3.5-0.1 7.2-0.1 10.6-0.2v2.9c-7.8 0-7.7 1.5-7.7 5.8v29.9c0 16.7-9 21.5-25.5 21.5-13.3 0-21.4-5.4-21.4-19.2v-32.2c0-4.4 0.2-5.8-7.7-5.8v-2.9c3.6 0.1 7.6 0.1 11.6 0.2 4-0.1 8-0.1 12.1-0.2v2.9c-8.3 0-8.3 1.2-8.3 5.8zm134.7 10.7c0 4.7-0.1 5.8 8.2 5.8v3c-4-0.1-8-0.1-12.1-0.2-4 0.1-8 0.1-12 0.2v-3c8.3 0 8.2-1.1 8.2-5.8v-41.9c0-4.6 0.1-5.8-8.2-5.8v-2.9c4 0.1 8 0.1 12 0.2 5.9-0.1 11.9-0.1 17.7-0.2 10.9-0.3 17 3.1 17 15 0 16-9.1 17.9-22.9 17.9h-7.9zm0-20.7h4.2c10.7 0 18-0.5 18-13.4 0-12.4-4.1-13.5-13.8-13.5h-8.4c0 0 0 26.9 0 26.9z"/>
	<path id="Layer" fill-rule="evenodd" class="s1" d="m414.2 217.9q0.3 0 0.6-0.1c1.1 1.3 3.2 2.4 3.2 3.9q-1.7-1.9-3.8-3.8zm-10.3 1c-1.3-7.6-14.9-1.6-16.9-8.9 10-2.6 20.2 1.7 27.2 7.9-4.1 0.7-6.8-2-10.3 1zm-3.9 0l2.1 2.1-1.1 3.9zm22.9 7c-1 6-4.9 8.3-9.1 9.9l4.2-8.1c-0.3 1.1 0.3 1.6 0.8 2.1 2.5 0 2.8-3.4 4.1-3.9zm-15.9 1c-0.2 1.9-3.1 3.2-2.1 5.8 2.1-1.3 6.3 2 6 4.9 0.3 1.1-0.5 1.6-1 2.1-0.5-2.1-2.4-3.7-5-2.9l-1 0.8c0-1.2-0.3-2.6-1-2.9-10.7 1.3-2.9 12.8-13.8 13.1 0.5-3.2 2.8-3.9 4.9-5.2-2.9-7.3-6.8 1.3-10.9 0l3.9-3.9-0.8-1.1c1-0.2 8.3 1.3 8.9-3.9 2.8 5.2 6.5-1 8.8-2.8-0.2-2.1 0.3-5.3 3.1-4zm-3.1 10.7c0.1 1.6-0.1 2.9 0 0zm-28.7 9.2c-1.3-1.8-1-3.9 1-5-0.5 1.3-1.3 2.9-1 5zm-79.5 27.6c-5.2 0-10.1-0.5-13.8 4.1l-1-1c0.8-4.9 10.4-2.6 14.8-6zm-29.7 26.8c-1.3 1.9-3.1 2.4-4.9 2.1 1-1.8 2.8-2.3 4.9-2.1zm-54.7 8.1c-2.1-0.2-5.2 0.8-7-1 1.8-2.4 5.2 0.2 7-2.1zm-18.8-107.3c-6.2 22.4-26.8 15.8-43.5 26 0.5 1.8-5.8 2.5-10.2 3.2l-5.2 2.3c-18.2 2.4-29.1 14.3-45.3 22.1 0.3 6.8-9.1 3.1-13 7.1-2.1 5.9-12.8 3.3-9.9 10.9-7.6 5.2-18 9.9-20.8 18.7 8.5 7.6 20.5 6 30.7 8.9 32.5 2.9 60.4-0.8 90.4-1 8.8-1.6 17.4-4.7 26.8-5v1.1c7.1 2 11.5-5.8 18.8-2.9 5.2-5.7 14.9-0.8 19.8-7 9.6-3.4 23.2-1.1 30.7-6v2c-3.4-1.3-2.1 2.7-3.9 4 1.8 1.8 4.7 0.7 7.1 1 10.4-11.5 19.5 3.1 29.7-9.9 3.9-5.5 10.4-8.6 16.9-9.9l2.1 2.9c2.7-8.3 10.9-6.6 16.9-9.2-2 2.1-3.6 5-8 3.2 3.9 7.5-6.6 7.8-8.9 12-2.1 0.5-7.8 0.2-7-3.9-2.9 2.6-2.4 11.2-8.1 7.8-6.5 2-15.9 3.9-22.7 8-8.1 1.1-18.7 5.8-27.9 3.9-7.3 4-14.8 2.9-22.9 6-10.4 2.6-25.5 2.1-34.7 7.9-3.1-0.3-1.8 4.1-4.9 4.1 2.3 0.2 2.4 6 4.8 6.1-1 0.5-1.9 0.8-2.7-1.1-4.2 1-8.9 6.7-13 1.8-6.6 3.6-15.1 1.3-22.7 2.1v-2.1c5.5 4.4 3.4-3.7 7.8-5v-2.8c-12.7 4.4-26.6 2.8-39.6 8.8 3.9 7.8-7.3 1.9-9.9 5-0.5-1.6 1.1-2.1 1.8-2.9-16.6-5.2-25 5.7-43.5 1.8l-2.1 3.9c-8.3-4.6-19 5.3-26.8-0.7-9.4-1.6-21.1-4.2-24.7-13.1-3.4 1.3-4-1.8-5-3.9 1.8-8.8-14.1-12.2-7.1-21.8-5.2-6 1.4-12 2.1-17.8 1.3-1 1.3-2.6 1.9-4.1l2 2.1c4-3.2 4.5-7.9 6.1-12l11.9-12.8c-0.2 0.8 0.3 1.3 0.8 1.8 1.8 0 2.9-1.8 4.2-2.8-1.6-4.7 1.8-6 4.9-8.1 2.4-0.5 5.8 1.3 6.8-1.8-2.6-6.3 8.4 0.2 8.1-7.1 8.6 0.8 10.7-9.9 19.8-7.8 11.5-12.2 29.2-13.3 42.7-22.9 23.2-7.8 64.1-25.5 78.4 8.9zm138.1 59.3c0.8-0.8 1.7-1.6 2.9-1.8-0.9 0.8-1.8 1.3-2.9 1.8zm-140.3 55.1c0.7-0.4 1.4-0.9 2.2-1.1-0.9 0.8-1.6 1.1-2.2 1.1zm-22.5-7.1h-3.1l3.1 1.8zm-8.1 7.8h2.9c1.8-1 1.8-2.6 3.1-3.9-2.6 0-5.2 1.8-6 3.9zm-51.6 5c-0.5 1.3-2.1 1-2.8 1v-2.1c0.7 0 2.3-0.2 2.8 1.1zm260-75.7c-1.6 1.5-4.2 4.7-6 2.1h-1c1.5-0.8 3.8-2.9 7-2.1zm-27.4 22.9c-2.1-0.3-5.2 0.7-7-1.1 1.8-2.3 5.2 0.3 7-2.1zm14.9-14.3c-5.2 0-10.2-0.5-13.8 4.2l-1.1-1c0.8-5 10.4-2.6 14.9-6zm18.6-0.6c-2.1-0.3-5.2 0.8-7-1.1 1.8-2.3 5.2 0.3 7-2zm-14.1-0.8l2.1 2.1-1 3.9z"/>
</svg>