<svg version="1.2" xmlns="http://www.w3.org/2000/svg" viewBox="0 0 1556 293" width="1556" height="293">
	<title>CPK-Logo-svg</title>
	<defs>
		<clipPath clipPathUnits="userSpaceOnUse" id="cp1">
			<path d="m1 0h1554.69v291.86h-1554.69z"/>
		</clipPath>
	</defs>
	<style>
		.s0 { fill: #ffffff } 
	</style>
	<g id="Layer">
		<g id="Clip-Path" clip-path="url(#cp1)">
			<g id="Layer">
				<path id="Layer" fill-rule="evenodd" class="s0" d="m1334.6 46.6c-4.9 0-5.1 3 2.2 4.6q41.9 9.3 113.3 46.3-4.3-6-9-11.7-4.8-5.7-10-10.9-5.3-5.3-10.9-10-5.7-4.8-11.8-9-2-1.8-4.2-3.2-2.3-1.4-4.7-2.4-2.4-1-5-1.7-2.5-0.7-5.1-0.9zm220.7 52q-0.4-0.1-0.8-0.2-0.5-0.1-0.9-0.3-0.4-0.2-0.8-0.4-0.4-0.2-0.7-0.5c-8.2-3.5-10.9-1.3-15 0.6q-53.6 4.6-49-61.3c0.8-11.7-2.5-18-21-23.2q-80.3-18.2-132-11.4c1.1 2.2 4.1 4.1 9.3 6.3 53 22.3 93.1 53.4 106.1 79.8 7.7 16.1 12.6 24.2 4.7 38.1q-9.3 14.2-27.3 46.9c-1.1 1.9 0 2.7 1.4 1.1 33.8-36 116.5-73.9 125.5-74.7 0.5-0.2 1.4-0.2 0.8-0.8z"/>
				<path id="Layer" fill-rule="evenodd" class="s0" d="m571 147.4h67.3l19 98.3h-51.1l-2.8-21.2h-41.1l-47.1 67.5h-48.7zm4.4 53.4h28.3l-5.2-32.1h-0.3zm-472.6 42.5q-4.4 0.9-8.9 1.6-4.4 0.7-8.9 1.1-4.5 0.5-9.1 0.8-4.5 0.3-9 0.3c-42.5 0.3-71.6-16.9-62.3-52 9.2-35.2 48.4-49.3 89.3-49.3q4.2 0 8.4 0.2 4.3 0.2 8.5 0.6 4.2 0.3 8.4 0.9 4.2 0.5 8.4 1.3l-6.8 25.8q-2.8-0.8-5.7-1.4-2.9-0.6-5.9-1.1-2.9-0.4-5.9-0.7-2.9-0.2-5.9-0.3c-20.7 0-38.7 8.7-43 24.5-4.4 15.8 7.6 25.6 28 25.6q3.5 0 7-0.3 3.4-0.2 6.9-0.7 3.4-0.5 6.8-1.2 3.5-0.7 6.8-1.6l-7.1 26.2zm119.5-95.9h48.8l-26.2 98.1h-49l9.6-35.2h-32.7l-9.3 35.2h-48.7l26.2-98.1h48.7l-9 33.8h32.7zm65.3 0h110.3l-6.6 23.7h-62.3l-3.8 13.9h59.9l-6.6 23.7h-59.6l-3.5 13.3h63.7l-6.3 23.4h-111.3zm222.1 26.7q-4.4-1.2-9-2.2-4.5-0.9-9.1-1.5-4.5-0.6-9.1-0.9-4.7-0.3-9.3-0.3c-7.6 0-20.9 0.3-22.6 6.6-3.5 12.8 66.7 0.8 56.4 38.7-7.1 26.4-42.5 32.9-70.8 32.9q-6.4 0.1-12.9-0.2-6.4-0.3-12.8-0.8-6.4-0.6-12.8-1.5-6.4-0.9-12.7-2.1l6.8-25.6q5.1 1.6 10.3 2.9 5.2 1.2 10.4 2 5.3 0.9 10.6 1.3 5.3 0.4 10.7 0.3c11.4 0 22.3-1.9 23.6-6.8 3.6-13.3-66.4-1.4-56.3-39.5 7.3-27 44.9-31.9 73.8-31.9q5.1 0 10.3 0.2 5.1 0.2 10.3 0.7 5.1 0.4 10.2 1 5.2 0.6 10.3 1.4l-6.8 25.1zm180.4-26.7h83.9c19.9 0 44.6 7.3 37.6 33.7-7.1 26.5-31.1 36.3-56.4 36.3h-35.1l-7.6 28.3h-48.8zm34.9 47.1h10.9c11.7 0 23.9-1.6 26.9-12.8 3-11.1-8.7-11.7-20.4-11.7h-10.6zm108.3-47.1h110.3l-6.3 23.7h-62.6l-3.8 13.9h59.9l-6.3 23.7h-59.9l-3.5 13.3h63.7l-6.3 23.5h-111.3zm162.3 0h67.2l19 98.3h-51.1l-2.8-21.2h-41.1l-13.6 21.2h-48.4zm4.3 53.4h28.3l-5.1-32.1h-0.3zm151.4-15h0.2l40.9-38.4h55.5l-55.3 46 33 52h-58.3l-20.4-41.4h-0.5l-11.2 41.4h-48.7l26.4-98h48.7zm110-38.4h110l-6.3 23.7h-62.3l-3.9 13.8h59.7l-6.3 23.8h-59.6l-3.6 13.3h63.7l-6.5 23.4h-111.3zm-1216.3 133.5c-1.9 7.1-11.2 10.9-25.1 10.9-13.9 0-20.9-3.8-18.8-10.9l4.1-14.7h8.2l-4.1 14.5c-1.4 4.9 1.1 8.1 11.7 8.1 10.6 0 14.7-3.2 16.1-8.1l4-14.5h8.2l-4.1 14.7zm43.3-11.4h-17.7l1.1-3.3h43l-0.8 3.3h-17.4l-6.3 22h-8.1zm48.7-3.2h8.2l-7.1 25.3h-8.2zm36.8 0h7.9l-6 22.1h23.6l-1 3.3h-31.6zm54.7 0h7.9l-6.8 25.3h-8.2zm46.8 3.3h-17.4l0.8-3.3h43.3l-0.8 3.3h-17.7l-6 22h-8.1zm49-3.2h7.8l-6.8 25.3h-8.1zm37 0h31.6l-0.8 3.3h-23.7l-1.9 7.3h21.5l-1.1 3h-21.2l-2.5 8.5h23.7l-1.1 3.2h-31.6zm83 3.8h0.1q0.1 0 0.2 0zm-2.3-0.4q-1.3-0.2-2.5-0.4-1.3-0.1-2.6-0.2-1.3-0.1-2.6 0c-4.7 0-10.1 0.8-10.9 3.2-0.9 2.5 23.1 3.8 20.9 12-2.2 8.2-11.4 7.6-22.8 7.6q-1.4 0-2.8-0.1-1.4-0.1-2.8-0.2-1.4-0.1-2.8-0.3-1.4-0.2-2.8-0.5l1.6-3.2q1.4 0.3 2.9 0.5 1.4 0.2 2.8 0.4 1.4 0.2 2.9 0.3 1.4 0.1 2.9 0.1c4.6 0 11.4-1.1 12.2-4 0.8-3-23.1-4.1-20.9-12 2.1-7.9 9.8-6.8 20.1-6.8q1.5-0.1 2.9 0 1.5 0 3 0.1 1.4 0.1 2.9 0.3 1.4 0.2 2.9 0.4l-2.1 3.2q-1.2-0.3-2.4-0.4zm152 0.7q-1.3-0.3-2.7-0.6-1.4-0.3-2.8-0.4-1.4-0.2-2.8-0.3-1.4-0.1-2.8 0c-13.1 0-22.9 4-24.5 9.8-1.6 5.7 6.8 9.8 18.5 9.8q1.6 0 3.2-0.1 1.5-0.1 3.1-0.3 1.6-0.2 3.1-0.4 1.6-0.3 3.1-0.6l-0.5 3.5q-1.6 0.3-3.3 0.5-1.6 0.1-3.2 0.2-1.7 0.1-3.3 0.2-1.6 0-3.3 0c-18 0-28.3-5.2-26.1-13.1 2.2-7.9 16.3-13.1 33.5-13.1q1.5 0 3.1 0 1.6 0.1 3.2 0.2 1.5 0.2 3.1 0.4 1.5 0.2 3.1 0.5l-1.6 3.5zm54.1-4.6c17.2 0 25.6 5.5 23.7 13.1-1.9 7.6-13.6 13.1-30.8 13.1-17.1 0-25.5-5.5-23.6-13.1 1.9-7.6 13.6-13.1 30.7-13.1zm-6.2 22.9c13 0 19.8-4.9 21.5-9.8 1.6-4.9-3.6-9.8-15.8-9.8-12.3 0-19.9 4.6-21.5 9.8-1.7 5.2 2.7 9.8 15.8 9.8zm65.6-22.6l-0.1 0.3h-0.2zm13.6 0.2c11.2 0 21.8 0.8 20.2 6.8-1.7 6-6.6 5.2-13.4 5.8q0.7 0 1.4 0.2 0.7 0.2 1.3 0.5 0.7 0.3 1.2 0.7 0.6 0.5 1 1l7.9 10.1h-9.2l-6.3-8.7c-1.9-2.5-4.6-2.5-8.7-2.5h-4.9l-3 11.2h-8.2l7-25.1zm-8.4 10.7h6.8c7.6 0 12.5-1.7 13.3-4.1 0.8-2.5-2.7-3.8-10.3-3.8h-7.9zm69.1-10.7h14.7c11.7 0 20.7 1.9 19.1 7.7-1.6 5.7-12 7.6-22.1 7.6h-7.9l-2.7 10.1h-8.1zm4.9 11.9h7.9c4.9 0 11.7-1 12.5-4.3 0.8-3.3-6.3-4.4-11.2-4.4h-6.8zm90.1-12.5c17.2 0 25.6 5.4 23.7 13.1-1.9 7.6-13.6 13.1-30.8 13.1-17.1 0-25.6-5.5-23.6-13.1 1.9-7.7 13.6-13.1 30.7-13.1zm-6.2 22.9c13 0 19.8-4.9 21.2-9.8 1.4-4.9-3.3-9.8-15.8-9.8-12.5 0-19.9 4.6-21.2 9.8-1.4 5.2 2.7 9.8 15.8 9.8zm69.6-22.6v0.2h-0.2zm13.6 0.3c11.1 0 21.8 0.8 20.1 6.8-1.6 6-6.5 5.2-13.3 5.7q0.7 0.1 1.4 0.3 0.7 0.1 1.3 0.5 0.6 0.3 1.2 0.7 0.5 0.5 1 1l7.9 10.1h-9.3l-6.2-8.7c-1.9-2.5-4.7-2.5-8.7-2.5h-4.9l-3 11.2h-8.2l7-25.1zm-8.4 10.6h6.8c7.6 0 12.5-1.6 13.3-4 0.8-2.5-2.7-3.9-10.3-3.9h-7.9zm87.6-10.6h8.5l16.8 25.4h-8.7l-4.1-6.3h-27.7l-7.6 6.3h-8.5zm3 3.5l-14.7 12.5h22.6zm67-0.2h-17.7l0.8-3.3h43.3l-0.8 3.3h-17.5l-6.2 22h-8.2zm59.6-3.2h8.2l-7.1 25.3h-8.1zm72.1-0.6c17.1 0 25.6 5.5 23.7 13.1-1.9 7.6-13.6 13.1-30.8 13.1-17.1 0-25.6-5.5-23.7-13.1 1.9-7.6 13.6-13.1 30.8-13.1zm-6 22.9q-0.1 0-0.1 0-0.1 0-0.2 0zm21.3-9.8c1.6-4.9-3.3-9.8-15.8-9.8-12.5 0-19.9 4.6-21.3 9.8-1.3 5.2 2.7 9.8 15.7 9.8 13 0 19.7-4.9 21.4-9.8zm48.2-12.5h11.1l19.3 20.4 5.8-20.4h8.1l-7.1 25.3h-10.3l-19.9-21h-0.2l-5.8 21h-7.9z"/>
			</g>
		</g>
	</g>
</svg>