<svg version="1.2" xmlns="http://www.w3.org/2000/svg" viewBox="0 0 1540 297" width="1540" height="297">
	<title>61e6018c0d41cd4b5026890d_Cepton-Logo-Blkv4-svg</title>
	<style>
		.s0 { fill: #61a60e } 
		.s1 { fill: #ffffff } 
	</style>
	<g id="Layer">
		<g id="Website">
			<g id="logo-light">
				<path id="Fill-8" fill-rule="evenodd" class="s0" d="m449.2 57h31.5c14.3 0 21.8 7.5 21.8 22.6v3.7l-0.7 0.8h-54.1c-12 0-19.5 4.5-22.5 12.8-0.8 4.5-1.5 10.5-1.5 18v89.5c0 12.8 2.2 21.1 7.5 24.8 3.7 2.3 9 3.8 13.5 3.8h35.3c10.5 0 17.3 3.7 21 12l0.8 6.8v6.8l-0.8 0.7h-44.3l-15 0.8c-8.3 0-17.3-3.8-27.1-10.6-11.2-9-16.5-22.5-16.5-40.6v-104.5c0-18.8 8.3-33.1 24.8-42.1 6-3.8 15-5.3 26.3-5.3zm196 7.5h28.6c16.5 0 24 7.5 24 21.8v3l-0.7 0.8h-51.9c-11.2 0-18.7 3-21.7 9-2.3 4.5-3.8 11.3-3.8 20.3v29.3h45.1c9.7 0 16.5 4.6 19.5 12.8l0.8 6v6.1l-0.8 0.7h-63.8l-0.8 0.8v29.3c0 12.8 2.3 21.1 6.8 24.1 3 3 8.2 5.2 16.5 5.2h33.8c9.8 0 16.5 4.5 20.3 12.8l0.7 7.5v5.3l-1.5 0.8h-55.6c-21.7 0-36.8-9.8-45-30.1-2.3-6-3-12.8-3-19.6v-97.8c0-22.5 10.5-37.6 30.8-45.8 5.2-1.5 12.7-2.3 21.7-2.3zm143.5-7.5h5.3c7.5 0 12.7 2.2 17.3 6.8 5.2-4.6 13.5-6.8 23.2-6.8h6.1c17.2 0 29.2 3 35.3 9.8 7.5 5.2 13.5 15 16.5 28.5l1.5 9.1-0.8 3v46.6c0 18.1-8.2 32.4-25.5 41.4-7.5 3.7-16.5 5.2-28.6 5.2h-24v58.7l-0.7 0.8h-8.3c-9 0-14.3-5.3-17.3-15.8l-0.7-3.8v-182.8zm26.3 51.9v64.7l27.8-0.7c12 0 20.2-5.3 22.5-16.6l0.7-11.3v-38.3c0-10.5-3.7-17.3-11.2-21.1-3-1.5-6-1.5-9.8-1.5h-3c-14.3 0-23.3 4.5-25.5 12.8-1.5 3.8-1.5 7.5-1.5 12zm185.5-51.9h87.1l0.8 0.8v8.3c0 8.2-4.5 14.3-13.5 17.3l-3.8 0.7h-20.3v175.3c0 0.7-3 1.5-8.2 1.5-12.1-1.5-18.1-7.6-18.1-18.8v-158h-41.3c0-15 4.5-23.3 13.5-25.5zm229.1 7.5h3.8q34.9 0 47.3 29.3c2.3 6 3.8 13.5 3.8 22.6v93.2q0 39.5-36.1 49.7l-8.2 0.7h-17.3c-15 0-27.8-7.5-38.3-23.3-3.8-8.3-5.3-15.8-5.3-22.6v-102.2c0-19.6 8.3-33.1 24.1-42.2 6.7-3.7 15.7-5.2 26.2-5.2zm-24 47.4v98.5c0 10.5 3 17.3 9.8 21 3 1.5 6.7 2.3 10.5 2.3h9.8c14.2 0 21-9 21-27.1v-91c0-12.8-3.8-20.3-12-22.5q-5.7-1.2-13.6-2.3c-17.2 0-25.5 6.8-25.5 21.1zm178-54.9c4.5 0 9.8 2.2 14.3 6 6-3.8 15.8-6 29.3-6h0.8c23.2 0 39 8.2 47.3 25.5 3 7.5 4.5 15.1 4.5 21.8v154.2l-0.8 0.8h-6c-10.5 0-16.5-5.3-19.5-15.8v-133.2c0-12.7-3-20.3-9.8-23.3-3.7-2.2-9.7-3-18.8-3-15.7 0-23.2 8.3-23.2 24.8v150.5l-0.8 0.7h-6.7c-9.8 0-16.6-5.3-19.6-15l-0.7-4.5v-182c0-0.8 3-1.5 9.7-1.5z"/>
				<path id="Fill-20" fill-rule="evenodd" class="s1" d="m1520.4 94.6c-10.4 0-18.8-8.4-18.8-18.8 0-10.4 8.4-18.8 18.8-18.8 10.3 0 18.7 8.4 18.7 18.8 0 10.4-8.4 18.8-18.7 18.8zm14.2-18.8c0-8.3-6.4-15-14.2-15-7.9 0-14.3 6.7-14.3 15 0 8.3 6.4 15 14.3 15 7.8 0 14.2-6.7 14.2-15zm-21.8 9.8v-18.8c1.5 0 3.8-0.8 6.8-0.8 3.8 0 5.3 0.8 6 1.5 0.8 0.8 1.5 2.3 1.5 3.8 0 2.2-1.5 3.7-3.7 4.5 1.5 0.7 3 2.3 3 4.5 0.7 3 0.7 3.8 1.5 4.5h-4.5c-0.8-0.7-0.8-2.2-1.5-4.5 0-2.2-1.5-3-3.8-3h-2.3v8.3zm6.8-10.6c2.3 0 4.5-0.7 4.5-3 0-1.5-1.5-3-3.7-3-0.8 0-2.3 0-2.3 0v6z"/>
			</g>
		</g>
		<g id="Layer">
			<path id="Layer" class="s0" d="m298.2 148c0 9.8-1.5 19.6-3 28.6-0.7 1.5-0.7 3.7-1.5 5.2 0 2.3-0.7 4.6-1.5 6.8-7.5 27.8-23.3 52.7-44.3 71.5l-79.6-110.6v-0.8l88.6-102.2c24.8 26.3 40.6 62.4 41.3 101.5z"/>
			<path id="Layer" class="s1" d="m147.2 78.8c18.1 0 34.6 6.8 46.6 18.1l-45.1 51.8 39.1 54.2c-12 8.3-26.3 13.5-41.3 13.5-38.3 0-69.1-30.8-69.1-69.2 0-37.6 30.8-69.1 69.8-68.4zm0.8-77.5c36 0 69.8 12.8 96.1 36.1l-26.3 30.9c-18.7-16.6-43.5-26.3-70.6-26.3-58.6 0-106.6 47.3-106.6 106.7 0 58.7 47.3 106.8 106.6 106.8 24.1 0 45.8-7.5 63.1-20.3l24.1 33.1c-24.8 18.1-54.9 27.9-85.7 27.9-81.1 0-147.2-66.2-147.2-147.5 0-81.2 65.4-147.4 146.5-147.4z"/>
		</g>
	</g>
</svg>