<svg version="1.2" xmlns="http://www.w3.org/2000/svg" viewBox="0 0 1582 1584" width="1582" height="1584">
	<title>carpenter-technology-logo-svg</title>
	<defs>
		<clipPath clipPathUnits="userSpaceOnUse" id="cp1">
			<path d="m2.54 0.68h1578.62v1583.19h-1578.62z"/>
		</clipPath>
	</defs>
	<style>
		.s0 { fill: #d02144 } 
		.s1 { fill: none } 
	</style>
	<g id="Carpenter_Technology_RGB">
		<path id="Fill_24" class="s0" d="m1077.7 1079.5c-116.4 116.3-291.3 151-443.2 87.9-151.9-63.1-250.8-211.6-250.8-376.3 0.1-164.7 99.2-313.1 251.2-376.1 151.9-63 326.8-28.1 443.1 88.3l-81.2 81.2c-83.6-83.7-209.3-108.8-318.5-63.5-109.2 45.3-180.5 152-180.5 270.4 0 118.4 71.3 225.1 180.5 270.4 109.2 45.3 234.9 20.2 318.5-63.5z"/>
		<g id="Group_28">
			<path id="Clip_26-2" class="s1" d="m2.5 0.7h1578.7v1583.2h-1578.7z"/>
			<g id="Clip-Path: Group_28-2" clip-path="url(#cp1)">
				<g id="Group_28-2">
					<path id="Fill_25" class="s0" d="m290.7 996.8c-84.4-201.8-38.8-434.6 115.4-589.6 154.1-155.1 386.5-201.6 588.4-118 201.9 83.6 333.4 280.9 333.2 499.6h-90.3c0.2-182.1-109.4-346.4-277.5-416-168.1-69.5-361.6-30.7-489.9 98.4-128.3 129.1-166.2 323-95.9 491 70.3 168 234.9 276.9 416.8 275.8v90.4c-218.3 1.1-415.9-129.8-500.2-331.6z"/>
					<path id="Fill_27" class="s0" d="m0 789.7c1-320.4 194.8-608.5 490.9-730 296.1-121.4 636.1-52.2 861.3 175.4 225.2 227.6 291.2 568.6 167.2 863.9-124 295.4-413.6 486.7-733.5 484.8v-50.5c299.6 1.9 570.8-177.2 687-453.7 116.2-276.5 54.4-595.9-156.4-809-210.9-213.1-529.2-278-806.5-164.3-277.2 113.8-458.7 383.6-459.6 683.6 0-0.2-50.4-0.2-50.4-0.2z"/>
				</g>
			</g>
		</g>
		<path id="Fill_29" class="s0" d="m418.3 234.7c184.4-123.6 418.3-146.9 623.5-62.2 205.2 84.8 354.7 266.5 398.4 484.4 43.8 217.9-23.9 443.3-180.5 600.8l-50.1-50.1c169.3-170.6 219.4-426.6 126.8-648.5-92.6-222-309.5-366.3-549.7-365.7-240.3 0.6-456.5 145.9-548 368.4-91.4 222.4-40.1 478.1 130.1 647.8l-50.3 50.4c-31-30.8-58.8-64.7-83.1-101-24.3-36.3-45-74.9-61.7-115.3-16.7-40.4-29.4-82.3-37.9-125.2-8.5-42.9-12.8-86.5-12.7-130.2 0-222.3 110.7-429.9 295.2-553.6z"/>
	</g>
</svg>