<svg version="1.2" xmlns="http://www.w3.org/2000/svg" viewBox="0 0 1951 579" width="1951" height="579">
	<title>CT_REIT_2022_PRIMARY_CMYK-svg</title>
	<style>
		.s0 { fill: #00a652 } 
		.s1 { fill: #ed1b24 } 
		.s2 { fill: #231f20 } 
	</style>
	<g id="#00a652ff">
		<path id="Layer" class="s0" d="m304.7 33.8c5.8-10.9 11.5-21.9 17.3-32.9 5.9 10.9 11.5 21.8 17.3 32.7 1.6 3.3 5.9 5 9.1 3.1 6.1-3.3 11.9-7.1 17.9-10.5-4.5 21.3-9.1 42.6-13.6 63.9-1 3 3.5 5.6 5.4 3 8.8-10.1 17.4-20.4 26.3-30.5 2.3 4.3 4.5 8.7 6.9 13 1.5 3 5.4 4.5 8.6 3.4 7.3-1.8 14.5-3.9 21.8-5.6-1.8 7.2-3.7 14.4-5.6 21.6-1 3.2 0.2 7.1 3.2 8.7 4.3 2.5 8.8 4.6 13.1 7.1-18.1 15.7-36.4 31.3-54.6 46.9-2.4 1.8-3.7 5.1-2.4 7.9 2.6 5.1 5.6 9.9 8.2 15-16.9-3.1-33.7-6.1-50.6-9.3 0 7.6 0 15.1 0 22.7q-10.9 0-21.8 0c-0.1-7.6 0.2-15.1-0.2-22.7-16.8 3.1-33.6 6.3-50.5 9.3 2.6-5 5.5-9.9 8.1-14.9 1.5-2.8 0-6.1-2.4-7.9-18.1-15.7-36.4-31.3-54.5-47 4-2.3 8.2-4.4 12.4-6.6 2.9-1.4 5-5 4-8.2-1.7-7.6-3.9-15-5.7-22.6 7.6 1.8 15.2 4 22.8 5.8 3.2 0.8 6.6-1.2 7.9-4.1 2.3-4.2 4.4-8.4 6.7-12.5 8.8 10.1 17.3 20.3 26.1 30.4 1.9 2.7 6.4 0.1 5.5-2.8-4.5-21.3-9.2-42.6-13.5-63.9 6 3.3 11.7 7 17.7 10.4 3.1 1.9 7.5 0.3 9.1-2.9z"/>
	</g>
	<g id="#ed1b24ff">
		<path id="Layer" class="s1" d="m844.4 114.3c20.4-10 43.2-13.6 65.7-14.6 20.4-0.7 40.9 0 60.8 4.7 27.5 6.2 52.7 22.8 68.6 46.1 10.1 15.6 16.8 33.2 20.1 51.4 3.1 20.4 4.6 41 4.6 61.6q-46.3 0-92.7 0c-0.1-19.6-1.1-39.4-6.3-58.4-3-10.9-8.1-22-17.6-28.7-11.1-7.9-25.6-9.7-38.8-8.1-12.4 1.4-23.8 8.7-30 19.5-10.3 17.3-13.3 37.6-15.9 57.2-4 36.9-4.1 74-4.2 111 0.4 23.9 1 47.8 3.5 71.5 1.7 15.6 4.1 31.2 9.2 46.1 3.8 10.2 8.9 20.6 18.1 26.9 10.9 7 24.5 8.6 37 6.9 8.4-1.2 17.1-3.7 23.4-9.5 9.8-8.9 14.7-21.5 18.1-33.9 6.3-23.5 7.3-48 7.3-72.3q46.3 0 92.7 0c0.2 23.8-1.7 47.6-5.7 71-3.5 20.5-10.3 40.6-21.3 58.3-9.1 15.1-22.2 27.6-37.4 36.6-20.5 12.6-44.8 17.3-68.6 18.5-25.9 0.9-52.3-0.5-77-9-28.5-9.7-52.5-31.1-66.2-57.9-10.8-21.1-16.9-44.4-20-67.8-2.9-22.7-4.3-45.6-5.2-68.5-1.3-42.3-0.4-84.8 3.8-127 2.2-21.8 6.5-43.6 14.6-64.1 5.6-14.3 13.1-27.9 23.3-39.5 10-11.6 22.5-21 36.1-28z"/>
		<path id="Layer" class="s1" d="m1096 108.5q146.5 0 293 0 0 38 0 76-50 0-100 0c0 127.6 0 255.2 0 382.8q-46.4-0.1-92.8-0.1 0.1-191.3 0-382.7-50.1 0-100.2 0 0-38 0-76z"/>
		<path id="Layer" class="s1" d="m2.3 123.5c3.4-8.2 11.8-14.1 20.7-14.2 55-0.1 110 0 165-0.1 1.3 0 2.7 0 3.7 1.1 21 18.1 42.2 36.1 63.2 54.4-4.8 8.5-9.6 17.1-14.3 25.7-2.1 2.9 1.1 6.9 4.4 5.7 17.3-3.3 34.6-6.5 52-9.8 0.1 5.6-0.1 11.2 0 16.8-0.1 1.8 1.1 3.8 3.1 3.6 14.3 0.1 28.6 0 42.9 0 1.7 0.3 4-0.6 3.9-2.6 0.2-5.9 0-11.9 0.1-17.8 17.4 3.3 34.7 6.5 52 9.8 3.2 1.2 6.8-2.8 4.6-5.7-4.8-8.6-9.6-17.2-14.4-25.8 21.4-18.5 42.9-36.8 64.3-55.3 55.5-0.1 111 0 166.5-0.1 12.6-0.2 23.6 11.4 23.3 23.8 0.2 5.7-2.1 11.2-5.5 15.7-97.5 138.1-195 276.3-292.5 414.4-2.9 4-5.6 8.4-9.7 11.3-10.2 7.5-26.2 4.9-33.3-5.7q-149-211.1-297.9-422.1c-4.6-6.7-5.4-15.7-2.1-23.1z"/>
		<path id="Layer" class="s1" d="m1477 218.8q237 0 474-0.1v8q-237 0-474 0 0-4 0-8z"/>
		<path id="Layer" class="s1" d="m1477 449q237 0 474 0v8q-237 0-474 0 0-4 0-8z"/>
	</g>
	<g id="#231f20ff">
		<path id="Layer" fill-rule="evenodd" class="s2" d="m1477 240.5c26 0 52 0 78 0 12 0.5 24.5 3.7 33.7 11.8 7.3 6.1 11.6 15.3 13.3 24.5 1.5 7.7 1.5 15.5 1 23.2-1 10.4-4.2 20.9-11.2 28.8-5.6 6.3-13.7 9.9-21.8 11.7 8.3 1.2 17.4 3.6 22.8 10.6 6.4 8.5 7.7 19.5 8.5 29.8 1.4 15 0.2 30.3 2.9 45.2 0.7 4.2 3.2 7.8 6.6 10.4 0.1 0.4 0.3 1.3 0.4 1.7-14.7 0.1-29.5 0-44.2 0.1-4.2-6-4.3-13.5-4.8-20.4-0.5-12.6-0.7-25.3-1.2-37.9-0.2-7.1-1.9-14.8-7-20.1-4-3.8-9.7-5.1-15-5.2q-11 0-22 0 0 41.8 0 83.5-20 0-40 0 0-98.8 0-197.7zm40 29.5c0 18.9 0 37.8 0 56.8 7.1-0.2 14.1 0.2 21.2-0.2 8.4-0.7 17.6-4.1 21.6-12.1 4-8.2 4.2-17.9 2.4-26.8-1.5-7.5-7.2-13.8-14.6-16-9.9-3-20.4-1.2-30.6-1.7z"/>
		<path id="Layer" class="s2" d="m1630.8 240.5q55.3 0 110.7 0 0 16.4 0 32.8-35.4 0-70.7 0 0 23.1 0 46.2 33.2 0 66.5 0-0.1 16.5 0 33-33.3 0-66.5 0 0 26.5 0 53c24.5 0 49 0 73.5 0q0 16.4 0 32.8-56.8 0-113.5 0-0.1-98.9 0-197.8z"/>
		<path id="Layer" class="s2" d="m1765.8 240.5c13.3 0 26.6 0 39.9 0 0.1 65.9 0 131.8 0.1 197.7q-20 0.1-40 0.1-0.1-98.9 0-197.8z"/>
		<path id="Layer" class="s2" d="m1824.8 240.5q63.1 0 126.2 0v32.8q-21.5 0-43 0 0 82.5 0 164.9-20.1 0.1-40.2 0-0.1-82.4 0-164.9-21.6 0-43 0-0.1-16.4 0-32.8z"/>
	</g>
</svg>