<svg version="1.2" xmlns="http://www.w3.org/2000/svg" viewBox="0 0 1588 289" width="1588" height="289">
	<title>CTBI_Logo-svg</title>
	<style>
		.s0 { fill: #ffffff } 
	</style>
	<g id="Layer_x0020_1">
		<g id="Community_x0020_Trust_x0020_Bancorp_x0020_Inc_x0020_Logo_x0020_-_x0020_Blue.eps">
			<path id="Layer" fill-rule="evenodd" class="s0" d="m1574.5 0.1q3.4 0 6.6 1.7 3.3 1.7 5.1 5 1.8 3.2 1.8 6.7 0 3.5-1.8 6.7-1.8 3.2-5 5-3.2 1.7-6.7 1.7-3.5 0-6.7-1.7-3.2-1.8-4.9-5-1.8-3.2-1.8-6.7 0-3.5 1.8-6.7 1.8-3.3 5-5 3.2-1.7 6.6-1.7zm0 1.1q-3.1 0-6 1.6-3 1.6-4.6 4.6-1.7 2.9-1.7 6.1 0 3.2 1.7 6.1 1.6 2.9 4.5 4.6 2.9 1.6 6.1 1.6 3.2 0 6.1-1.6 3-1.7 4.6-4.6 1.6-2.9 1.6-6.1 0-3.2-1.6-6.1-1.7-3-4.6-4.6-3-1.6-6.1-1.6zm-7.4 4h7.3q2.8 0 4.2 1.3 1.4 1.2 1.4 3 0 1.4-0.9 2.5-1 1.1-3.3 1.7l4 5.6q0.7 1 1.3 1.4 0.3 0.2 1 0.3v0.6h-3.5l-5.6-7.6h-1.4v5.8q0.1 0.6 0.5 0.9 0.4 0.3 1.7 0.3v0.6h-6.9v-0.6q0.9 0 1.2-0.2 0.4-0.2 0.6-0.6 0.1-0.4 0.1-1.8v-9.9q0-1.4 0-1.7-0.2-0.4-0.5-0.7-0.4-0.2-1.2-0.2zm4.5 7.9q2.2 0 3.2-0.4 1.1-0.4 1.6-1.2 0.6-0.8 0.6-1.8 0-1.6-1.1-2.6-1.1-1-2.7-1-0.8 0-1.6 0.3c0 0 0 6.7 0 6.7zm-1150.2 98.9q0 1.4-0.8 2c-0.6 0.5-1.7 0.9-3.5 1.2q-10.4 2.4-18.9 3.4-8.5 1-17.4 1-26.3 0-38.6-13.2-12.4-13.2-12.4-41.3 0-28.9 12.9-42.6 12.9-13.7 40.2-13.7 7.2 0 15.9 0.9 8.6 1 18.2 2.7c1.9 0.4 3.1 0.8 3.5 1.3q0.6 0.6 0.6 2.6v21.6q0 1.2-0.6 1.7-0.6 0.5-2.1 0.5h-4q-3.6 0-4.1-4.5-0.3-1.3-0.3-1.9-1.8-9.9-7.2-14.2c-3.7-2.8-9.1-4.2-16.4-4.2q-17.1 0-24.7 11.2-7.6 11.2-7.6 37 0 26.6 7.2 38 7.2 11.3 23.6 11.3 11.3 0 17.1-4.5 5.7-4.5 7.7-15 0.1-1 0.3-2.7 0.7-4.5 3.4-4.5h4.4q2.1 0 2.8 0.5 0.8 0.5 0.8 1.8zm13.1-30.6q0-20.6 8.3-29.2 8.4-8.6 28.1-8.6 19.6 0 28.1 8.4 8.6 8.4 8.6 27.6 0 21.6-8.4 30.6-8.4 9-28.3 9-19.7-0.1-28.1-8.6-8.3-8.6-8.3-29.2zm22.5 0q0.1 21.2 3 26.6 2.9 5.3 10.9 5.3 8.2 0 11.1-5.5 3-5.4 3-26.4 0-21-3-26.4-2.9-5.5-11.1-5.5-8 0-10.9 5.4c-2 3.5-3 12.4-3 26.5zm70.3-21q0-5.8-1-7.2-0.9-1.4-3.7-1.5l-3.5-0.3q-2.5-0.2-2.5-2.8c0-1.4 0.2-2.2 0.4-2.5q0.5-0.5 2.1-0.5h3.9q5 0 9.7-0.1 4.7-0.2 9.3-0.5l2.9-0.3h0.5q0.9 0 1.2 0.4 0.4 0.3 0.4 1.1v7.8q5.5-5.3 11.3-7.9 5.8-2.5 12.6-2.5 7.4 0 12.1 2.7 4.7 2.7 7.2 8.5 5.6-5.8 11.6-8.5 6.1-2.7 13.6-2.7 11.5 0 16.1 5.6 4.6 5.6 4.6 21.1v32c0 3.6 0.3 5.9 0.9 6.9 0.6 1.1 1.8 1.7 3.8 1.9l3.2 0.4q0.3 0.1 1 0.2 1.7 0.1 1.7 2.5 0 2.2-0.5 2.7-0.5 0.5-2.2 0.5-0.6 0-2.7-0.1-7.7-0.5-14.7-0.5-5.3 0-10.7 0.3-5.6 0.3-5.8 0.3c-1.2 0-2-0.2-2.4-0.6q-0.5-0.6-0.5-2.3 0-2.7 2.3-2.9 0.3-0.1 0.5-0.1l2.5-0.3q1.8-0.1 2.5-1.5 0.7-1.3 0.7-6v-38.1q0-6.2-2.7-9-2.7-2.8-8.6-2.8-6.7 0-9.8 3.9-3 3.9-3.1 12.6v33.4q0 4.7 0.8 6 0.7 1.4 2.5 1.5l2.5 0.3q0.1 0 0.4 0.1 2.2 0.2 2.2 2.9 0 1.9-0.5 2.4-0.5 0.5-2.3 0.5-0.4 0-5.6-0.3-5.1-0.3-9.8-0.3-4.8 0-9.9 0.3-5.2 0.3-5.6 0.3-1.7 0-2.2-0.5-0.5-0.5-0.5-2.4 0-2.8 2.2-2.9 0.3-0.1 0.4-0.1l2.5-0.3q1.8-0.2 2.5-1.5 0.7-1.3 0.7-6v-38.1q0-6.2-2.7-9-2.6-2.8-8.4-2.8-6.7 0-9.8 3.9-3.2 3.9-3.2 12v32.6q0 6 0.7 7.4 0.7 1.3 2.6 1.5l2.4 0.3q0.1 0 0.4 0.1 2.4 0.2 2.3 2.9 0.1 1.9-0.4 2.4-0.6 0.5-2.3 0.5-0.1 0-5.9-0.3-5.8-0.3-11.4-0.3-5.6 0-16.7 0.6-1.8 0-2.3-0.5-0.5-0.5-0.5-2.7 0-2.4 1.8-2.5 0.6-0.1 1-0.2l3.2-0.4q2.8-0.3 3.7-1.8 1-1.5 1-7zm135.7 41.8v-41.8q0-5.9-0.9-7.2-1-1.4-3.7-1.6l-3.5-0.3q-2.5-0.2-2.5-2.8c0-1.3 0.1-2.2 0.4-2.5q0.4-0.4 2.1-0.4h3.8q5.1 0 9.8-0.2 4.6-0.1 9.2-0.4l3-0.4h0.4c0.6 0 1.1 0.2 1.3 0.4q0.4 0.4 0.4 1.2v7.7q5.5-5.3 11.3-7.8 5.7-2.6 12.5-2.6c5 0 9.1 0.9 12.2 2.8q4.7 2.7 7.1 8.4 5.6-5.8 11.7-8.5 6-2.7 13.6-2.7 11.5 0 16.1 5.6 4.5 5.6 4.5 21.1v32q0 5.4 0.9 7c0.7 1 1.9 1.6 3.8 1.8l3.3 0.5q0.3 0 0.9 0.1 1.8 0.2 1.8 2.5 0 2.2-0.5 2.7-0.5 0.6-2.2 0.6-0.7 0-2.7-0.2-7.7-0.4-14.7-0.4-5.3 0-10.8 0.3-5.5 0.3-5.7 0.3-1.8 0-2.4-0.6-0.6-0.6-0.6-2.4 0-2.7 2.4-2.9 0.3 0 0.4 0l2.5-0.3q1.8-0.2 2.5-1.5 0.8-1.4 0.8-6.1v-38.1q0-6.2-2.8-9-2.7-2.8-8.6-2.8-6.7 0-9.7 3.9-3.1 3.9-3.1 12.6v33.4q0 4.7 0.7 6.1 0.7 1.3 2.6 1.5l2.5 0.3q0.1 0 0.4 0 2.2 0.2 2.2 2.9 0 1.9-0.6 2.4-0.5 0.6-2.2 0.6-0.5 0-5.6-0.3-5.1-0.3-9.9-0.3-4.7 0-9.9 0.3-5.1 0.3-5.5 0.3-1.8 0-2.3-0.6-0.5-0.5-0.4-2.4-0.1-2.8 2.1-2.9 0.3 0 0.4 0l2.6-0.3q1.8-0.3 2.5-1.6 0.6-1.3 0.6-6v-38.1q0-6.2-2.6-9-2.6-2.8-8.5-2.8-6.6 0-9.8 3.9-3.1 4-3.1 12v32.6q0 6 0.6 7.4 0.7 1.3 2.7 1.6l2.3 0.3q0.2 0 0.5 0 2.3 0.2 2.3 2.9 0 1.9-0.5 2.4-0.5 0.6-2.3 0.6-0.1 0-5.8-0.3-5.8-0.3-11.4-0.3-5.6 0-16.7 0.6-1.8 0-2.3-0.6-0.5-0.5-0.5-2.7 0-2.3 1.8-2.5 0.5-0.1 1-0.1l3.2-0.5q2.8-0.3 3.7-1.8 0.9-1.5 0.9-7zm181.6 6.5c-3.7 3.7-7.5 6.3-11.4 7.9-4 1.7-8.5 2.5-13.8 2.5q-11.7 0-16.3-5.7-4.6-5.6-4.6-21.1v-31.1q0-6.4-0.9-7.9c-0.6-1-1.8-1.6-3.6-1.7l-3.7-0.3q-2.5-0.2-2.5-2.8 0-1.9 0.5-2.4 0.4-0.5 2.2-0.5h5.2q5.6 0 10.4-0.2 4.9-0.1 9.4-0.4l2.7-0.4h0.7q0.9 0 1.2 0.4 0.3 0.4 0.3 1.6 0 0.3-0.1 1.3-0.6 10.1-0.6 22.7v26.6q0 6.1 2.7 8.9 2.6 2.7 8.5 2.7 6.6 0 9.7-3.8 3.1-3.8 3.1-12v-32.7q0-5.9-0.9-7.2c-0.6-0.9-1.7-1.4-3.5-1.5l-3.7-0.3h-0.1q-2.4-0.2-2.4-2.8 0-1.9 0.5-2.4 0.4-0.5 2.2-0.5h5.2q5.5 0 10.4-0.2 4.9-0.1 9.4-0.4l2.7-0.4h0.7q0.9 0 1.2 0.4 0.3 0.4 0.3 1.6 0 0.3-0.1 1.5-0.7 10.5-0.7 22.5v31.3q0 6.1 0.9 7.5 0.9 1.4 3.6 1.6l3.7 0.3q2.5 0.2 2.5 2.8c0 1.4-0.2 2.2-0.4 2.5q-0.5 0.5-2.1 0.5h-4q-5.5 0-10.3 0.1-4.8 0.2-9.3 0.4l-2.8 0.4h-0.6q-0.9 0-1.2-0.4-0.3-0.2-0.3-1c0 0 0-7.9 0-7.9zm47.2-6.5v-41.8q0-5.7-1-7.2-0.9-1.4-3.6-1.6l-3.5-0.3q-2.6-0.2-2.5-2.8c0-1.3 0.1-2.2 0.4-2.5q0.4-0.4 2.1-0.4h3.8q5.5 0 10.4-0.2 4.9-0.1 9.3-0.4l2.8-0.4h0.5q1 0.1 1.3 0.4 0.4 0.4 0.4 1.2v7.7q5.5-5.5 11.3-7.9c4-1.6 8.6-2.5 13.8-2.5q11.7 0 16.2 5.6 4.6 5.6 4.6 21.1v32c0 3.6 0.3 5.9 0.9 7 0.6 1 1.8 1.6 3.7 1.8l3.2 0.5q0.5 0 1.1 0.1 1.7 0.2 1.7 2.5 0 2.2-0.5 2.7-0.5 0.6-2.3 0.6-0.5 0-2.5-0.2-7.7-0.4-14.7-0.4-5.7 0-11.5 0.3-5.7 0.3-5.8 0.3-1.8 0-2.3-0.6-0.5-0.5-0.5-2.4 0-2.7 2.4-2.9 0.3 0 0.4 0l2.3-0.3q1.8-0.3 2.5-1.6 0.7-1.3 0.7-6v-38.1q0-6.2-2.6-9c-1.7-1.8-4.6-2.8-8.5-2.8q-6.6 0-9.7 3.9-3.1 3.9-3.1 12v34.2q0 4.7 0.7 6 0.6 1.2 2.5 1.4l2.4 0.3q0 0 0.3 0 2.4 0.1 2.4 2.9 0 1.9-0.5 2.4-0.5 0.6-2.2 0.6-0.1 0-5.9-0.3-5.8-0.3-11.5-0.3-6.9 0-14.7 0.4-2 0.2-2.6 0.2-1.7 0-2.2-0.6-0.5-0.5-0.5-2.7 0-2.3 1.8-2.5 0.5-0.1 0.9-0.1l3.3-0.5q2.7-0.3 3.6-1.8 1-1.5 1-7zm97.2-93.4q2.5-2.8 8.1-2.8 5.6 0 8.1 2.7 2.5 2.8 2.5 9 0 6.3-2.5 9.1-2.5 2.7-8.1 2.7-5.6 0-8.1-2.8-2.5-2.8-2.5-9 0-6.1 2.5-8.9zm-2.3 93.4v-41.9q0-5.4-0.9-6.9-0.9-1.5-3.8-1.8l-3.5-0.3q-2.5-0.2-2.5-2.8 0.1-2.1 0.4-2.5 0.4-0.4 2.1-0.4h5.2q5.5 0 10.4-0.2 4.9-0.1 9.4-0.4l2.8-0.4h0.6q0.9 0 1.2 0.4 0.4 0.4 0.4 1.6 0 0.2-0.2 1.6-0.6 10.5-0.6 22.4v30.7q0 6.5 0.9 8 1 1.5 3.7 1.7l3.3 0.5q0.3 0 1 0.1 1.8 0.2 1.8 2.5 0 2.2-0.5 2.7-0.5 0.6-2.3 0.6-0.4 0-2-0.1-8.7-0.5-17.5-0.5-7 0-14.8 0.4-2 0.2-2.5 0.2-1.8 0-2.3-0.6-0.5-0.5-0.5-2.7 0-2.3 1.8-2.5 0.6-0.1 1-0.1l3.2-0.5c1.9-0.2 3.1-0.8 3.8-1.9q0.9-1.6 0.9-6.9zm48.3-2.4v-48.5h-7.4q-1.8 0-2.3-0.2-0.4-0.3-0.4-1.2v-1.4q0-0.2-0.1-0.6-0.1-0.3-0.1-0.5 0-1 0.6-1.4 0.5-0.4 2.3-0.4h7.4v-21.2q0-0.8 0.7-1.4 0.6-0.6 2.2-1.1 5.6-1.5 11-3.2 5.4-1.7 5.8-1.7 0.4 0 0.8 0.5 0.3 0.5 0.3 1.1 0 0.3 0 1-0.7 3.9-0.7 7.9v18.1h12.1q1.8 0 2.3 0.2 0.4 0.2 0.4 1.1v1.5q0 0.2 0.2 0.6 0.2 0.4 0.2 0.6-0.1 0.9-0.6 1.3-0.5 0.4-2.5 0.4h-12v43.7q0 9.4 2.2 12.5 2.1 3.1 7.6 3.1 2.3 0 4.8-0.5 2.4-0.4 4.7-1.2l-0.4 4.5q-4.4 2.7-10.1 4.2-5.8 1.5-11.8 1.5-9.1 0-13.1-4.5-4.1-4.5-4.1-14.8zm51.9-41.6q-1.1-3.2-2.7-4.8-1.6-1.7-3.8-1.9l-1.9-0.2q-0.3-0.1-0.7-0.1-2.3-0.3-2.2-3-0.1-1.8 0.4-2.3 0.4-0.5 2.3-0.5 0.6 0 2.5 0.1 8.4 0.5 15.7 0.5 7.4 0 15.6-0.5 2-0.1 2.5-0.1 1.8 0 2.2 0.4 0.4 0.5 0.5 2.7-0.1 2.5-1.8 2.7-0.6 0-1 0.1l-1.8 0.2q-2 0.2-3.1 1.3-1 1.2-1 3.1 0 1.1 0.1 2 0.2 0.9 0.5 1.7l13.9 39.5 11.3-37.5q0.5-1.6 0.8-3.2 0.2-1.6 0.2-2.9 0.1-2-0.9-2.9-1-0.9-3.4-1.1l-2.1-0.2q-1.5-0.3-1.7-0.6c-0.2-0.2-0.3-0.7-0.3-1.6v-0.9q0-2.1 0.3-2.4 0.4-0.4 2.1-0.4 0.4 0 1.7 0.1 5.6 0.5 10.5 0.5 5 0 10.5-0.5 1.2-0.1 1.6-0.1 1.7 0 2.1 0.4c0.3 0.2 0.4 1.2 0.4 2.7q0 2.4-2 2.8l-2.4 0.3c-1.8 0.3-3.6 1.6-5.3 4.1-1.6 2.5-3.7 7-6.1 13.6l-15 41.1q-8.5 23.2-16.5 32.9-8.1 9.6-18.6 9.6-6 0-10.1-3-4.2-3-4.2-7 0-2.8 2.8-5.8c1.9-2 3.7-3.1 5.4-3.1q2.4 0 6.3 3.8 3.8 3.8 6.6 3.8 4.4 0 8.5-5.4 4.1-5.4 9.6-18.7h-4q-2.4 0-3.7-4.3-1.2-3.5-2.2-6.2l-18.4-48.8zm152.7 40v-61.2q0-4.2-0.1-9.1-0.1-4.9-0.2-10.3h-9.3c-4.8 0-8 0.8-9.8 2.3q-2.7 2.4-4.8 11.3-0.4 1.4-0.7 3.5-0.6 3.9-3.1 3.9h-5.2q-1.4 0-2.1-0.5-0.5-0.5-0.6-1.7 0 0 0.1-0.6 0.1-0.5 0.1-0.9 0-2.6-0.2-8.4-0.1-5.7-0.1-8.9 0-2.7-0.2-5.3 0-0.4 0-0.4 0-0.6 0.6-0.9 0.5-0.4 1.6-0.4 0.2 0 0.9 0.1c2.5 0.2 4.9 0.2 7.4 0.2q2.2 0 9.6 0.2 7.5 0.1 12.7 0.1h29.9q4.2 0 12.5-0.1 8.4-0.2 12.4-0.2c1.6 0 3.2 0 4.8-0.2q0.7-0.1 0.8-0.1 1.1 0 1.7 0.4c0.4 0.2 0.6 0.4 0.6 0.9q0 0.5-0.1 1.3-0.2 0.8-0.2 1.2 0 0.1 0 0.6 0.2 1.8 0.2 3.3 0 2.6-0.2 8.2-0.2 5.5-0.2 8.4v1.5q0 1.2-0.5 1.7-0.5 0.5-1.9 0.5h-5.3q-2.6-0.1-3.2-4.1-0.3-2.1-0.6-3.3-2.2-8.9-4.9-11.3-2.7-2.3-9.8-2.3h-9.2q0 2.2-0.2 9-0.2 6.8-0.2 10.4v61.2q0 8.2 1.1 10.1 1.2 1.8 4.5 2.1l6.3 0.6q0.3 0.1 0.8 0.1 2.5 0.3 2.4 3.2 0.1 1.9-0.4 2.5-0.5 0.6-2.5 0.6-0.4 0-2-0.1-10.5-0.5-21.3-0.5-11.2 0-21.9 0.5-1.7 0.1-2.1 0.1-2.1 0-2.6-0.6-0.5-0.6-0.5-2.5 0.1-3 2.6-3.2 0.3 0 0.6-0.1l6.5-0.6q3.2-0.3 4.3-2.1 1.2-1.8 1.2-8.8v-1.3zm61.9 4v-41.8q0-5.5-0.9-7c-0.6-1.1-1.8-1.6-3.7-1.8l-3.5-0.3q-2.5-0.2-2.5-2.8c0-1.3 0.1-2.2 0.4-2.5q0.4-0.4 2.1-0.4h3.8q5.5 0 10.4-0.2 4.9-0.1 9.3-0.4l2.8-0.4h0.5q1 0.1 1.3 0.4 0.4 0.4 0.4 1.2v7.2q4.3-5.1 8.7-7.5 4.3-2.4 9.4-2.4 6.7 0 10.4 3.9 3.7 3.9 3.7 11 0 4.7-2.2 6.9-2.2 2.2-6.9 2.2-2.9 0-4.7-1.3-1.8-1.3-2.1-3.4-0.2-0.8-0.4-2-0.9-6.9-5.5-6.9-5 0-7.3 4.8-2.5 4.8-2.5 14.5v29q0 5.9 1.1 7.2 1 1.3 4.1 1.6l3.9 0.5q0.5 0 1.3 0.1 2 0.2 2 2.5 0 2.2-0.5 2.7-0.6 0.6-2.4 0.6-0.6 0-2.5-0.1-9.5-0.5-18.6-0.5-6.9 0-14.7 0.4-2 0.2-2.6 0.2-1.8 0-2.3-0.6-0.4-0.5-0.4-2.7 0-2.3 1.8-2.5 0.5-0.1 0.9-0.1l3.3-0.5q2.7-0.3 3.6-1.9 1-1.6 1-6.9zm113.4 6.5q0 0 0 0zm-11.3 7.9q-5.9 2.5-13.8 2.5-11.7 0-16.3-5.7-4.6-5.6-4.7-21.1v-31.1q0-6.4-0.9-7.9c-0.6-1-1.7-1.6-3.5-1.7l-3.7-0.3h-0.1q-2.4-0.2-2.4-2.8 0-1.9 0.4-2.4 0.5-0.5 2.3-0.5h5.2q5.5 0 10.4-0.2 4.9-0.1 9.4-0.4l2.7-0.4h0.7q0.9 0 1.2 0.4 0.3 0.4 0.3 1.6 0 0.3-0.1 1.3-0.7 10.1-0.7 22.7v26.6q0 6.1 2.7 8.9 2.7 2.7 8.6 2.7 6.5 0 9.7-3.8 3.1-3.8 3.1-12v-32.7q0-5.9-0.9-7.2c-0.6-0.9-1.8-1.4-3.5-1.5l-3.7-0.3h-0.1q-2.4-0.2-2.4-2.8 0-1.9 0.4-2.4 0.5-0.5 2.2-0.5h5.2q5.6 0 10.5-0.2 4.8-0.1 9.4-0.4l2.7-0.4h0.7q0.8 0 1.2 0.4 0.2 0.4 0.2 1.6 0 0.3 0 1.5-0.7 10.5-0.7 22.5v31.3q0 6.1 0.9 7.5 0.8 1.4 3.6 1.6l3.6 0.3h0.1q2.4 0.2 2.4 2.8c0 1.4-0.1 2.2-0.4 2.5q-0.4 0.5-2.1 0.5h-4q-5.5 0-10.3 0.1-4.7 0.2-9.2 0.4l-2.9 0.4h-0.5q-1 0-1.3-0.4-0.3-0.2-0.3-1v-7.9c-3.6 3.7-7.4 6.3-11.3 7.9zm52.9-22.1h3.9q2.5 0 3.1 3.8c0.1 0.6 0.2 1.1 0.2 1.5q1.3 7 4.7 10 3.4 3.1 9.8 3.1 6.7 0 10.3-3 3.7-3 3.7-8.4 0-7.6-16.6-12.4-2.3-0.7-3.6-1.1-9.8-3-14.2-7.9-4.4-4.9-4.4-12.8 0-10.9 8.6-17.2 8.6-6.4 23.5-6.4 10.5 0 16.2 1.4 5.7 1.4 5.7 3.8v14.4q0 1.6-0.5 2.1-0.6 0.5-2.2 0.5h-2.6q-2.7 0-3.9-4.7l-0.2-0.6q-1.6-6.1-4.6-8.3-2.9-2.3-9-2.3-5.5 0-8.5 2.6-3 2.5-3 7.1 0 8 14.2 12.4 2.9 0.9 4.4 1.3 11.4 3.7 15.6 8.4 4.2 4.7 4.2 13 0 11.9-8.6 18.1-8.6 6.2-25.2 6.2-6.7 0-13-1-6.3-0.9-8.9-1.9-1.2-0.5-1.6-1.1-0.3-0.6-0.3-2.5l0.5-15.4q0-1.7 0.5-2.2 0.5-0.5 1.8-0.5zm72.3-43.2h-7.4q-1.9 0-2.4-0.2-0.4-0.3-0.4-1.2v-1.4q0-0.2-0.1-0.6-0.1-0.3-0.1-0.5 0-1 0.6-1.4 0.6-0.4 2.4-0.4h7.4v-21.2q0-0.8 0.6-1.4 0.6-0.6 2.2-1.1 5.6-1.5 11-3.2 5.5-1.7 5.8-1.7 0.4 0 0.8 0.5 0.4 0.5 0.4 1.1 0 0.3-0.1 1-0.7 3.9-0.7 7.9v18.1h12.1q1.8 0 2.3 0.2 0.5 0.2 0.5 1.1v1.5q0 0.2 0.1 0.6 0.2 0.4 0.2 0.6 0 0.9-0.5 1.3-0.6 0.4-2.6 0.4h-11.9v43.7q0 9.4 2.1 12.5 2.1 3.1 7.6 3.1 2.3 0 4.8-0.5 2.4-0.4 4.8-1.2l-0.5 4.5q-4.3 2.7-10.1 4.2-5.7 1.5-11.8 1.5-9.1 0-13.1-4.5-4-4.5-4-14.8zm-1188.8 183v-68.7q0-8.1-1.2-10-1.1-1.9-4.3-2.2l-4.1-0.3q-2.9-0.2-2.9-3.2 0-2 0.5-2.6 0.5-0.5 2.4-0.5 0.3 0 2 0.1 9.6 0.5 18.9 0.5 5.2 0 16-0.3 10.8-0.3 16.4-0.3 15.2 0 21.9 5.5 6.8 5.6 6.8 17.9 0 11.5-7 18-7 6.5-20.3 7.5v0.9q16.2 0.5 23.5 6.8 7.2 6.3 7.2 20.3 0.1 6.9-2.2 12.7-2.3 5.8-6.3 9.6-4.2 3.9-11 5.5-6.9 1.7-20.8 1.7-3.5 0-12.4-0.3-8.9-0.3-14.3-0.3-7.3 0-15.5 0.4-2.1 0.2-2.8 0.2-1.8 0-2.5-0.6-0.5-0.6-0.5-2.5-0.1-2.9 2.4-3.2 0.3 0 0.5 0l4.1-0.4q3.2-0.2 4.3-2.1c0.8-1.1 1.2-4.1 1.2-8.8v-1.3zm22.5-41.2q0.8 0.1 1.7 0.1 1 0 2.8 0 12.1 0 17.3-4.8 5.2-4.9 5.2-16.1 0-10.1-4.3-14.8-4.4-4.7-13.7-4.7-1.7 0-3.9 0.2-2.2 0.2-5.1 0.7v39.4zm0 52.8q1.2 0.1 2.5 0.2 1.2 0 3.5 0 13 0 18.1-5.3 5.1-5.2 5.1-18.8 0-12-5-17.3-4.9-5.4-15.8-5.4-1.3 0-3.4 0.1-2 0.1-5 0.4v46.1zm112.2 0.7q0 0 0 0zm-11.2 6.3q-5.5 2-11.5 2-10.4 0-15.9-5.4-5.4-5.5-5.5-15.8 0-11.2 6.7-16.5 6.7-5.3 21-5.3h15.5v-15.9q0-5.6-2.5-8.2-2.6-2.5-8.2-2.5-5.1 0-7.4 2.5-2.2 2.4-2.7 9.1-0.3 3.9-2 5.1-1.7 1.2-6.1 1.2-4.4 0-6.2-1.2-1.9-1.3-1.9-4.2 0-9.3 7.1-13.9 7.1-4.5 21.4-4.5 16 0 22.7 5.6c4.5 3.7 6.8 10 6.8 18.9v33.7q-0.1 6 0.8 7.5c0.6 1 1.8 1.6 3.6 1.7l3.8 0.3q2.5 0.2 2.5 3 0 1.8-0.4 2.4-0.5 0.5-1.7 0.5h-0.6l-3.8-0.1h-7q-5.3 0-10.3 0.4-0.8 0-1 0l-2.6 0.3h-0.5q-0.6 0-0.9-0.2-0.3-0.3-0.6-1.2l-1.4-5.6q-5.7 4.2-11.2 6.3zm10.3-35.2h-7.8q-6.5 0-9.9 3.7-3.4 3.8-3.4 11.3 0 6.4 2.5 9.6 2.4 3.2 7.1 3.2 5.9 0 8.7-3.4 2.8-3.4 2.8-10.6zm48.1 20.4v-41.8q0-5.7-0.9-7.2-1-1.4-3.7-1.6l-3.5-0.3q-2.5-0.2-2.5-2.8c0-1.3 0.1-2.2 0.4-2.5q0.4-0.4 2.1-0.4h3.8q5.5 0 10.4-0.2 4.9-0.1 9.4-0.4l2.8-0.4h0.4q1 0.1 1.4 0.4 0.4 0.4 0.4 1.2v7.7q5.4-5.5 11.3-7.9 5.9-2.5 13.8-2.5 11.6 0 16.2 5.6 4.5 5.6 4.5 21.1v32q0 5.4 0.9 7c0.6 1 1.9 1.6 3.7 1.8l3.3 0.5q0.4 0 1 0.1 1.8 0.2 1.8 2.5 0 2.2-0.5 2.7-0.5 0.6-2.3 0.6-0.6 0-2.6-0.2-7.7-0.4-14.7-0.4-5.6 0-11.4 0.3-5.8 0.3-5.9 0.3-1.8 0-2.3-0.6-0.5-0.5-0.5-2.4 0-2.7 2.4-2.9 0.3 0 0.4 0l2.4-0.3q1.8-0.3 2.5-1.6 0.6-1.3 0.6-6v-38.1q0-6.2-2.6-9c-1.7-1.8-4.5-2.8-8.5-2.8q-6.5 0-9.6 3.9-3.2 3.9-3.2 12v34.2q0 4.7 0.7 6 0.7 1.2 2.5 1.4l2.4 0.3q0.1 0 0.4 0 2.3 0.1 2.3 2.9 0 1.9-0.5 2.4-0.5 0.6-2.2 0.6-0.1 0-5.9-0.3-5.8-0.3-11.4-0.3-7 0-14.7 0.4-2.1 0.2-2.6 0.2-1.8 0-2.3-0.6-0.5-0.5-0.5-2.7 0-2.3 1.8-2.5 0.5-0.1 1-0.1l3.2-0.5q2.8-0.3 3.7-1.8 0.9-1.5 0.9-7zm148.7 9.9q-0.1 1.9-0.5 2.5c-0.3 0.4-0.9 0.7-1.9 0.9q-6.7 1.9-13.1 2.7-6.4 0.9-12.9 0.9-18.6 0-26.6-8.9-8.1-8.9-8.1-29.3 0-19.3 8.7-28.3 8.7-9.1 27.2-9.1 11.1 0 19.3 2.2c5.4 1.5 8.2 3.1 8.2 4.8q0 1.1-0.1 2.2-0.1 1.2-0.1 1.3l-0.1 9.1q0 2.4-0.5 3-0.5 0.6-1.7 0.6h-3.4q-3.2 0-3.8-3.3-0.3-1.1-0.4-1.7-1.5-6.8-4.8-9.6-3.4-2.8-9.5-2.8-9.2 0-12.9 6.8-3.8 6.8-3.8 23.7 0 19.5 3.4 26.2 3.4 6.8 12.5 6.7 6.8 0.1 10.4-3.5 3.6-3.6 4.9-11.8 0-0.1 0-0.3 0.6-3.5 3.9-3.5h4q0.9 0 1.4 0.3 0.5 0.4 0.4 1.1 0 0 0 0.5-0.1 1.3-0.1 2.7v13.9zm13-30.7q0-20.7 8.3-29.3 8.4-8.6 28.1-8.6 19.6 0 28.1 8.5 8.6 8.3 8.6 27.5 0 21.6-8.4 30.6-8.4 9-28.3 9-19.7 0-28.1-8.6-8.3-8.5-8.3-29.1zm22.5 0q0.1 21.2 3 26.5 2.9 5.3 10.9 5.3 8.2 0 11.1-5.4 3-5.5 3-26.4 0-21-3-26.5-2.9-5.5-11.1-5.5-8 0-10.9 5.4-2.9 5.3-3 26.6zm70.3 20.8v-41.9q0-5.4-0.9-6.9c-0.7-1.1-1.9-1.7-3.8-1.8l-3.5-0.3q-2.5-0.2-2.5-2.8c0-1.3 0.2-2.2 0.4-2.5q0.5-0.4 2.1-0.4h3.9q5.5 0 10.4-0.2 4.9-0.1 9.3-0.4l2.8-0.4h0.4q1 0.1 1.4 0.4 0.4 0.3 0.4 1.2v7.2q4.3-5.1 8.6-7.5 4.4-2.4 9.4-2.4 6.8 0 10.4 3.9 3.7 3.9 3.7 11 0 4.7-2.2 6.9-2.1 2.2-6.9 2.2-2.9 0-4.7-1.3-1.8-1.3-2.1-3.4-0.1-0.8-0.3-2-0.9-6.9-5.6-6.9-4.9 0-7.3 4.8-2.4 4.8-2.4 14.5v29q0 5.9 1 7.2 1.1 1.3 4.2 1.6l3.9 0.5q0.5 0 1.2 0.1 2.1 0.2 2 2.5 0 2.2-0.5 2.7-0.5 0.6-2.4 0.6-0.5 0-2.5-0.1-9.5-0.5-18.5-0.5-7 0-14.7 0.4-2.1 0.2-2.6 0.2-1.8 0-2.3-0.6-0.5-0.5-0.5-2.7 0-2.3 1.8-2.5 0.6-0.1 1-0.1l3.2-0.5q2.8-0.3 3.7-1.9 1-1.6 1-6.9zm88.8 35.5q0 6 1 7.3c0.6 0.9 1.8 1.4 3.5 1.5l4.2 0.5q0.1 0 0.4 0.1 2.2 0 2.2 2.7c0 1.4-0.2 2.3-0.5 2.6q-0.4 0.5-2.1 0.5-0.2 0-6.4-0.3-6.3-0.3-12.5-0.3-6.1 0-12.4 0.3-6.3 0.3-6.4 0.3c-1.3 0-2.1-0.2-2.4-0.5q-0.4-0.5-0.4-2.6 0-2.4 2.1-2.7 0.4 0 0.7-0.1l3.2-0.5q2.7-0.3 3.7-1.7 0.9-1.4 0.9-7.1v-77.3q0-5.5-0.9-7c-0.6-1-1.8-1.6-3.7-1.8l-3.5-0.1q-1.8-0.2-2.1-0.6-0.4-0.5-0.4-2.4 0-1.9 0.4-2.4 0.3-0.4 2.1-0.4h3.8q4.4 0 9.3-0.2 4.8-0.1 10.5-0.5l2.8-0.2h0.6q0.9 0 1.2 0.3 0.3 0.2 0.4 1.1v6.8q4.2-4.9 9.7-7.2 5.4-2.3 12.4-2.3 14.7 0 21.8 9.3 7.2 9.3 7.2 28.3 0 19.4-7.5 28.7c-5 6.3-12.7 9.4-23 9.4q-6.4 0-11.1-1.8-4.8-1.9-8.8-6.1c0 0 0 26.4 0 26.4zm0-59.3q0 20.9 3 27 3 6.1 11 6.1 7.9 0 10.9-6.2 3.1-6.2 3.1-24.8 0-17.7-3.1-23.5-3.1-5.8-11-5.9-7.4 0.1-10.6 6.3-3.3 6.2-3.3 21zm80.2 39.2q0 0 0 0 0 0 0 0zm-1 0q-0.5 0-1.5 0-5.1 0-7.6-2.8-2.4-2.9-2.4-8.8 0-6.3 2.5-9.1 2.5-2.7 8.2-2.7 5.3 0 7.9 3.1 2.7 3.1 2.7 9.4 0 7.8-1.9 13.7-1.8 5.9-6 11.2-2.6 3.2-5.4 5.5-2.8 2.2-4.2 2.2c-0.4 0-1.1-0.5-2.1-1.5q-1.4-1.4-1.4-2.1 0-0.6 1.6-1.8 1.3-0.9 1.9-1.4 4.3-3.9 6.4-7.6 2-3.6 2.3-7.3-0.5 0-1 0zm79.5-87.8q0-8.1-1.2-10-1.1-1.9-4.3-2.2l-4.1-0.3q-2.9-0.2-2.9-3.3-0.1-1.9 0.5-2.5 0.6-0.6 2.4-0.6 0.3 0 2.1 0.1 9.7 0.5 19.4 0.5 9.4 0 18.8-0.5 1.7-0.1 2-0.1 1.9 0 2.4 0.6 0.5 0.6 0.5 2.5 0 3.1-2.8 3.3h-0.1l-4.1 0.3q-3.1 0.3-4.3 2.2-1.2 1.9-1.2 10v70q0 7 1.2 8.8 1.2 1.8 4.2 2.1l4.2 0.3q0.2 0 0.5 0.1 2.4 0.3 2.4 3.2 0 1.9-0.5 2.5-0.5 0.6-2.4 0.6-0.4 0-2-0.1-9.4-0.5-18.8-0.5-9.7 0-19.4 0.5-1.7 0.1-2.1 0.1-1.8 0-2.4-0.6-0.6-0.6-0.5-2.5-0.1-2.9 2.5-3.2 0.2-0.1 0.4-0.1l4.1-0.3q3.2-0.3 4.3-2.1 1.2-1.8 1.2-8.8zm53.9 72.4v-41.8q0-5.7-0.9-7.2-1-1.4-3.7-1.6l-3.5-0.3q-2.5-0.2-2.5-2.8c0-1.4 0.1-2.2 0.4-2.5q0.4-0.5 2.1-0.5h3.8q5.5 0 10.4-0.1 4.9-0.2 9.4-0.4l2.8-0.4h0.4q1 0 1.4 0.4 0.3 0.3 0.3 1.1v7.8q5.5-5.5 11.4-7.9 5.8-2.5 13.8-2.5 11.6 0 16.1 5.6 4.6 5.6 4.6 21.1v32q0 5.4 0.9 7c0.6 1 1.8 1.6 3.7 1.8l3.3 0.4q0.4 0.1 1 0.2 1.7 0.1 1.7 2.5 0 2.2-0.5 2.7-0.5 0.5-2.2 0.5-0.6 0-2.6-0.1-7.7-0.4-14.7-0.5-5.7 0.1-11.5 0.3-5.7 0.3-5.8 0.3-1.8 0-2.3-0.5-0.5-0.5-0.5-2.4 0-2.7 2.4-2.9 0.3-0.1 0.4-0.1l2.3-0.3q1.9-0.2 2.5-1.5 0.7-1.3 0.7-6v-38.1q0-6.2-2.6-9c-1.7-1.9-4.5-2.8-8.5-2.8q-6.5 0-9.7 3.9-3.1 3.9-3.1 12v34.1q0 4.8 0.7 6 0.7 1.3 2.5 1.4l2.4 0.3q0 0 0.3 0.1 2.4 0.1 2.4 2.9 0 1.9-0.5 2.4-0.5 0.5-2.2 0.5-0.1 0-5.9-0.3-5.8-0.2-11.5-0.3-6.9 0.1-14.7 0.5-2 0.1-2.5 0.1-1.8 0-2.3-0.5-0.5-0.5-0.5-2.7 0-2.4 1.8-2.5 0.5-0.1 1-0.2l3.2-0.4q2.7-0.3 3.7-1.8 0.9-1.5 0.9-7zm148.7 9.9q-0.1 1.9-0.5 2.5c-0.3 0.3-0.9 0.7-2 0.9q-6.6 1.8-13.1 2.7-6.4 0.9-12.9 0.9-18.5 0-26.6-8.9-8-8.9-8-29.3 0-19.3 8.7-28.4 8.7-9 27.2-9 11 0 19.3 2.2c5.4 1.5 8.2 3 8.2 4.8q0 1.1-0.1 2.2-0.1 1.1-0.1 1.3l-0.1 9.1q0 2.3-0.5 3-0.5 0.5-1.7 0.6h-3.4q-3.2 0-3.9-3.4-0.2-1-0.3-1.6-1.5-6.8-4.9-9.6-3.3-2.8-9.5-2.8-9.1-0.1-12.9 6.8-3.7 6.8-3.7 23.7 0 19.4 3.4 26.2 3.4 6.7 12.5 6.7 6.8 0 10.3-3.6 3.6-3.5 5-11.7 0-0.2 0-0.3 0.6-3.5 3.8-3.5h4q0.9 0 1.4 0.3 0.5 0.4 0.5 1 0 0.1-0.1 0.6 0 1.3 0 2.7v13.9zm17.6-5.9q0-6.2 2.5-9 2.5-2.7 8.2-2.7 5.5 0 8.1 2.7 2.5 2.8 2.5 9 0 6.2-2.5 9-2.6 2.7-8.1 2.7-5.6 0-8.2-2.8-2.6-2.8-2.5-8.9z"/>
			<path id="Layer" fill-rule="evenodd" class="s0" d="m173.6 9.7c42 0 84.1 0 126.3 0 0 0.2-0.1 0.8 0.1 1 0 0 0.1 0 0.1 0 0 82.9 0 159 0 241.7 0 0 0 0-0.1 0-0.1 0.1-0.1 0.1-0.1 0.3q-149.9 0-299.8 0zm119.6 184.6l1.2-1.9-6-10.3-8.8 12.2zm-25.6 0l14.6-23-5.5-9.4-23.2 32.4zm-129.4 0l82.2-129.9-3.1-5.4-97.1 135.3zm26.2 0l68.5-108.2-3.5-6.2-82.2 114.4zm9.5 0zm0 0h16.3l55-86.9-3.9-6.9zm41.7 0l41.7-66-4.3-7.5-52.7 73.5zm26.3 0l28-44.4-4.9-8.5-37.9 52.9z"/>
		</g>
	</g>
</svg>