<svg version="1.2" xmlns="http://www.w3.org/2000/svg" viewBox="0 0 1551 845" width="1551" height="845">
	<title>CTI_Logo-svg</title>
	<style>
		.s0 { fill: #ffffff } 
		.s1 { fill: #d50032 } 
	</style>
	<g id="Layer">
		<path id="Layer" class="s0" d="m1211.1 470.9c0-28.7 23.3-52 52-52h0.2c28.7 0 52 23.3 52 52v310.2c0 28.7-23.3 52-52 52h-0.2c-28.7 0-52-23.3-52-52zm-690.9 245.8c3.2 2.5 5.9 5.7 7.7 9.4 1.9 3.6 2.9 7.6 3.1 11.7 0.2 4.1-0.5 8.2-2.1 12-1.5 3.8-3.8 7.2-6.8 10-14.3 13.7-29.9 26-46.6 36.7-16.7 10.6-34.3 19.7-52.8 27-18.4 7.3-37.5 12.8-56.9 16.4-19.5 3.6-39.3 5.3-59.1 5.1-172.9 0-306.7-131.8-306.7-301.6 0-168.2 133.4-298.8 306.7-298.8 19.4-0.3 38.8 1.2 57.9 4.7 19.1 3.5 37.8 8.8 55.8 16 18 7.2 35.3 16.1 51.6 26.7 16.3 10.5 31.4 22.7 45.3 36.2 2.9 3 5.2 6.5 6.6 10.3 1.5 3.9 2.1 8 1.8 12.1-0.3 4.1-1.5 8.1-3.5 11.7-2 3.7-4.8 6.8-8.1 9.2l-40.9 30.6c-2.7 2.7-5.9 4.9-9.4 6.4-3.4 1.5-7.2 2.4-11 2.5-3.8 0.2-7.6-0.4-11.1-1.6-3.6-1.3-7-3.2-9.8-5.7-8.4-8-17.6-15.2-27.4-21.6-9.8-6.3-20.1-11.6-30.9-16-10.8-4.3-22-7.6-33.5-9.8-11.4-2.2-23-3.3-34.6-3.3-24.8 0.2-49.2 5.4-71.9 15.1-22.8 9.8-43.3 24-60.5 41.8-17.1 17.8-30.6 38.8-39.5 61.9-9 23.1-13.2 47.7-12.5 72.4-0.6 24.9 3.7 49.6 12.8 72.8 9 23.2 22.6 44.3 39.8 62.3 17.3 17.9 37.9 32.2 60.7 42.1 22.9 9.9 47.4 15.1 72.3 15.5 12 0.1 24.1-1.1 35.9-3.5 11.8-2.4 23.3-6 34.4-10.7 11.1-4.8 21.7-10.7 31.5-17.6 9.9-6.9 19.1-14.8 27.3-23.6 2.5-2.4 5.3-4.4 8.5-5.8 3.1-1.4 6.5-2.2 10-2.4 3.4-0.2 6.9 0.2 10.1 1.3 3.3 1 6.4 2.6 9.1 4.8zm559.8-459.9h-173.9c-8.5-0.3-16.8 1.2-24.7 4.3-7.9 3-15 7.6-21.1 13.5-6 5.9-10.9 12.9-14.2 20.6-3.3 7.8-5 16.1-5.1 24.5 0-8.4-1.8-16.7-5.1-24.5-3.3-7.7-8.1-14.7-14.2-20.6-6.1-5.9-13.2-10.5-21.1-13.5-7.8-3.1-16.2-4.6-24.6-4.3h-174.2c-3.8-0.1-7.5 0.6-11 2-3.5 1.4-6.7 3.5-9.3 6.2-2.7 2.6-4.8 5.8-6.3 9.2-1.5 3.5-2.2 7.2-2.2 11v46.5c0 3.7 0.7 7.5 2.1 10.9 1.5 3.5 3.6 6.6 6.2 9.3 2.7 2.6 5.8 4.7 9.3 6.1 3.4 1.5 7.1 2.2 10.9 2.2h154.5c3.8 0 7.5 0.8 10.9 2.2 3.4 1.4 6.6 3.5 9.2 6.1 2.7 2.7 4.7 5.8 6.2 9.3 1.4 3.4 2.1 7.1 2.1 10.8v416.1c0 3.7 0.8 7.5 2.2 10.9 1.4 3.5 3.5 6.6 6.2 9.3 2.6 2.6 5.8 4.7 9.2 6.1 3.5 1.5 7.2 2.2 10.9 2.2h56c3.7 0 7.4-0.7 10.9-2.2 3.4-1.4 6.6-3.5 9.2-6.1 2.6-2.7 4.7-5.8 6.2-9.3 1.4-3.4 2.1-7.2 2.1-10.9v-416.1c0-3.7 0.8-7.4 2.2-10.8 1.5-3.5 3.5-6.6 6.2-9.2 2.6-2.7 5.7-4.8 9.2-6.2 3.4-1.4 7.1-2.2 10.8-2.2h154.3c3.7 0 7.4-0.7 10.9-2.2 3.4-1.4 6.6-3.5 9.2-6.1 2.7-2.7 4.8-5.8 6.2-9.3 1.4-3.4 2.2-7.2 2.2-10.9v-46.5c0-3.7-0.8-7.4-2.2-10.9-1.5-3.4-3.6-6.6-6.2-9.2-2.7-2.7-5.8-4.8-9.2-6.2-3.5-1.4-7.2-2.1-10.9-2.1z"/>
		<path id="Layer" class="s1" d="m1263.4 371.2c-35 0-63.3-28.3-63.3-63.3 0-35 28.3-63.3 63.3-63.3 35 0 63.2 28.3 63.2 63.3 0 35-28.2 63.3-63.2 63.3zm-93.3-280.7c-17.5 0-31.7-14.1-31.7-31.6 0-17.5 14.2-31.7 31.7-31.7 17.5 0 31.6 14.2 31.6 31.7 0 17.5-14.1 31.6-31.6 31.6zm345.7 317.2c-17.5 0-31.6-14.2-31.6-31.7 0-17.5 14.1-31.6 31.6-31.6 17.5 0 31.7 14.1 31.7 31.6 0 17.5-14.2 31.7-31.7 31.7zm-201.4-189.2c-26.3 0-47.5-21.2-47.5-47.5 0-26.2 21.2-47.5 47.5-47.5 26.2 0 47.4 21.3 47.4 47.5 0 26.3-21.2 47.5-47.4 47.5zm146.7-123.6c-26.2 0-47.4-21.2-47.4-47.4 0-26.3 21.2-47.5 47.4-47.5 26.2 0 47.5 21.2 47.5 47.5 0 26.2-21.3 47.4-47.5 47.4zm-47.5 215.5c-26.3 0-47.5-21.2-47.5-47.5 0-26.3 21.2-47.5 47.5-47.5 26.2 0 47.4 21.2 47.4 47.5 0 26.3-21.2 47.5-47.4 47.5z"/>
	</g>
</svg>