<svg version="1.2" xmlns="http://www.w3.org/2000/svg" viewBox="0 0 1510 279" width="1510" height="279">
	<title>logo-innovid-svg</title>
	<defs>
		<linearGradient id="g1" x1="1302.8" y1="114.3" x2="1277.3" y2="52.4" gradientUnits="userSpaceOnUse">
			<stop offset="0" stop-color="#009edf"/>
			<stop offset="1" stop-color="#004281"/>
		</linearGradient>
		<linearGradient id="g2" x1="1207.4" y1="181.3" x2="1489.9" y2="96.7" gradientUnits="userSpaceOnUse">
			<stop offset="0" stop-color="#006196"/>
			<stop offset=".1" stop-color="#006aa2"/>
			<stop offset=".2" stop-color="#0082c2"/>
			<stop offset=".2" stop-color="#008ccf"/>
			<stop offset="1" stop-color="#1068b2"/>
		</linearGradient>
		<linearGradient id="g3" x1="1293.9" y1="36.7" x2="1470" y2="101.3" gradientUnits="userSpaceOnUse">
			<stop offset="0" stop-color="#25a9e0"/>
			<stop offset=".9" stop-color="#3d6ab2" stop-opacity="0"/>
		</linearGradient>
		<linearGradient id="g4" x1="1184" y1="142.7" x2="1244.9" y2="142.7" gradientUnits="userSpaceOnUse">
			<stop offset=".4" stop-color="#77ad43"/>
			<stop offset=".8" stop-color="#627b37"/>
			<stop offset="1" stop-color="#273a16"/>
		</linearGradient>
		<linearGradient id="g5" x1="1180.1" y1="11.5" x2="1054.8" y2="244.5" gradientUnits="userSpaceOnUse">
			<stop offset=".2" stop-color="#ffd800"/>
			<stop offset=".8" stop-color="#df7627"/>
			<stop offset="1" stop-color="#a63c23"/>
		</linearGradient>
		<linearGradient id="g6" x1="686.7" y1="139.6" x2="1096.2" y2="139.6" gradientUnits="userSpaceOnUse">
			<stop offset=".2" stop-color="#ffd800"/>
			<stop offset="1" stop-color="#ce242a"/>
		</linearGradient>
	</defs>
	<style>
		.s0 { fill: url(#g1) } 
		.s1 { fill: url(#g2) } 
		.s2 { fill: url(#g3) } 
		.s3 { fill: url(#g4) } 
		.s4 { fill: url(#g5) } 
		.s5 { fill: url(#g6) } 
		.s6 { fill: #ffffff } 
	</style>
	<path id="Layer" class="s0" d="m1316.2 189.1h-8.3c-6.6-0.3-13.1-1.8-19.1-4.4-6.1-2.7-11.6-6.4-16.2-11.1-4.7-4.7-8.4-10.2-11.1-16.2-2.6-6.1-4.1-12.6-4.3-19.1v-83.1c0.2-6.6 1.7-13.1 4.3-19.2 2.7-6 6.4-11.5 11.1-16.2 4.6-4.7 10.1-8.4 16.2-11.1 6-2.6 12.5-4.1 19.1-4.4h8.3z"/>
	<path id="Layer" class="s1" d="m1495.7 78.6c3.1 6.1 5.8 12.5 7.9 19.1 2.1 6.6 3.7 13.3 4.8 20.1 1.1 6.8 1.6 13.7 1.6 20.6 0 17.7-3.5 35.2-10.3 51.5-6.8 16.4-16.7 31.2-29.2 43.7-12.5 12.5-27.4 22.4-43.7 29.2-16.3 6.8-33.8 10.3-51.5 10.4h-153.7v-57h150c10 0 19.9-2.1 29.2-6 9.2-4 17.6-9.8 24.5-17 6.9-7.3 12.3-15.9 15.9-25.3 3.5-9.4 5.1-19.5 4.7-29.5 0.4-9.7-1.1-19.5-4.5-28.6-3.3-9.1-8.4-17.5-15-24.7-6.6-7.2-14.5-13-23.3-17.2-8.8-4.1-18.4-6.5-28.1-6.9h-114.2v-9.3q0.2-2.4 0.6-4.8 0.5-2.3 1.1-4.7 0.7-2.3 1.5-4.5 0.9-2.3 1.9-4.4 2.1-4.6 5.1-8.6 3-4.1 6.7-7.5 3.8-3.3 8.1-5.9 4.3-2.6 9.1-4.2 1.6-0.6 3.3-1 1.8-0.5 3.5-0.9 1.7-0.3 3.5-0.5 1.7-0.3 3.5-0.4h67.3c10.6 0.1 21.2 1.4 31.5 4 10.4 2.6 20.3 6.3 29.8 11.2 9.4 4.9 18.2 10.9 26.3 17.9 8 7 15.2 14.9 21.3 23.6 4.1 5.6 7.7 11.4 10.8 17.6z"/>
	<path id="Layer" class="s2" d="m1446.3 138.4c0.4-9.7-1.1-19.4-4.4-28.6-3.4-9.1-8.5-17.5-15-24.7-6.6-7.2-14.5-13-23.3-17.1-8.8-4.2-18.3-6.5-28-7h-87.1c-31.2 0-31.2 33.3-31.2 33.3v-42.6c0.3-4.9 1.3-9.8 2.9-14.5 1.7-4.6 4.1-9 7.1-13 2.9-3.9 6.5-7.4 10.5-10.3 4-2.9 8.4-5.2 13-6.8q1.7-0.6 3.4-1 1.7-0.5 3.5-0.9 1.7-0.3 3.5-0.5 1.7-0.3 3.5-0.4h71.3c10.6 0.1 21.2 1.4 31.5 4 10.3 2.5 20.3 6.3 29.7 11.2 9.5 4.9 18.3 10.9 26.3 17.8 8.1 7 15.3 14.9 21.4 23.5 4.1 5.6 7.7 11.5 10.8 17.7 3.1 6.1 5.8 12.5 7.9 19.1 2.1 6.5 3.7 13.2 4.8 20.1 1.1 6.8 1.6 13.7 1.6 20.6"/>
	<path id="Layer" class="s3" d="m1221.5 242.5c0 28.4 21.4 31.1 21.4 31.1h-30.3c-6.6-0.3-13.1-1.8-19.1-4.5-6-2.6-11.5-6.4-16.2-11.1-4.6-4.7-8.4-10.2-11-16.2-2.6-6.1-4.1-12.6-4.3-19.2v-135.7l34-74.5-1.5 3c5.5 2.8 8.4 4.2 13.8 7.5 0.3 0.4 0.6-0.9 2.4 1.5q2.8 3.6 4.9 7.7 2.1 4 3.4 8.3 1.4 4.4 2 8.9 0.6 4.5 0.4 9c0 0 0.2 166.9 0.1 184.2z"/>
	<path id="Layer" class="s4" d="m1206.9 20q1.7 1.8 3.2 3.7 1.5 1.9 2.9 4 1.3 2 2.5 4.2c0 0-21-18.7-38.6 22.8l-80.3 192.7c0 0-22.3 10.1-26.6 12.7l-19.8-51.3 67-166.2c11.7-27.7 30.6-38.6 51.1-38.6q4.8 0 9.5 0.9 4.6 0.8 9.1 2.4 4.5 1.5 8.6 3.9 4.2 2.3 7.9 5.3 1.8 1.7 3.5 3.5z"/>
	<path id="Layer" class="s5" d="m1009.6 258.4q-1.4-1.7-2.6-3.5-1.3-1.9-2.4-3.8-1.2-1.9-2.1-3.8l-99.6-237.2 7.2-3.3h0.9c6-2.5 12.5-3.8 19-3.9 6.6-0.1 13.1 1 19.2 3.3 6.2 2.3 11.8 5.7 16.7 10 4.9 4.4 9 9.6 11.9 15.4 0 0 70.4 174.2 81 197.2 1 2.8 2.3 5.5 4 7.9 1.7 2.4 3.8 4.6 6.1 6.4 2.4 1.8 5 3.3 7.7 4.3 2.8 1.1 5.7 1.7 8.7 1.9 9.1 0 11.6-3.6 11.6-4.5v1.3q-0.8 1.9-1.8 3.6-1 1.7-2.1 3.4-1.1 1.6-2.4 3.2-1.2 1.5-2.6 3c-4.6 5.1-10.2 9.3-16.5 12.2-6.2 3-13 4.7-19.9 5-6.9 0.3-13.8-0.7-20.3-3.1-6.5-2.3-12.5-6-17.6-10.6l-1.1-1.1q-1.6-1.6-3-3.3z"/>
	<path id="Layer" fill-rule="evenodd" class="s6" d="m55 6.6q1.5 0.6 2.6 1.7 1.2 1.2 1.8 2.6 0.6 1.5 0.6 3.1v251.4q0 1.6-0.6 3.1-0.6 1.4-1.8 2.6-1.1 1.1-2.6 1.7-1.5 0.6-3.1 0.6h-42.9q-1.6 0-3.1-0.6-1.5-0.6-2.6-1.8-1.1-1.1-1.7-2.6-0.6-1.5-0.6-3.1v-251.4c0-1.1 0.2-2.1 0.6-3.1 0.4-1 1-1.9 1.8-2.6 0.8-0.7 1.7-1.3 2.7-1.7 1-0.4 2-0.6 3.1-0.5h42.7q1.6 0 3.1 0.6zm236.7 266.8q-2.2-0.1-4.4-0.7-2.2-0.6-4.2-1.6-2-1-3.8-2.3-1.8-1.4-3.2-3.1l-117.8-154.7c-3.2-4.3-5.8-3.5-5.8 1.9v151.2c-0.1 1.3-0.4 2.6-0.9 3.8-0.5 1.1-1.2 2.2-2.1 3.1-0.9 0.9-2 1.7-3.2 2.2-1.1 0.5-2.4 0.7-3.7 0.8h-38.6c-1.3 0-2.5-0.3-3.7-0.8-1.2-0.5-2.3-1.2-3.2-2.1-0.9-1-1.6-2-2.1-3.2-0.4-1.2-0.7-2.5-0.7-3.8v-249.3c0-1.2 0.3-2.5 0.7-3.7 0.5-1.1 1.2-2.2 2.1-3.1 0.9-0.9 2-1.6 3.2-2.1 1.2-0.5 2.4-0.7 3.7-0.7h35.4q2.2 0.2 4.4 0.9 2.1 0.6 4 1.7 2 1.1 3.6 2.5 1.7 1.4 3.1 3.2l113.6 149.4c3.3 4.2 5.9 3.3 5.9-2.1v-146c0-1.2 0.3-2.5 0.8-3.7 0.5-1.2 1.2-2.3 2.1-3.2 0.9-0.9 2-1.6 3.2-2 1.2-0.5 2.4-0.8 3.7-0.7h38.5c1.3 0 2.6 0.2 3.8 0.7 1.2 0.5 2.3 1.2 3.2 2.1 0.9 0.9 1.6 2 2.1 3.2 0.5 1.2 0.7 2.5 0.7 3.8v249.1c0 1.3-0.2 2.6-0.7 3.8-0.5 1.2-1.3 2.3-2.2 3.2-0.9 0.9-2 1.6-3.1 2.1-1.2 0.5-2.5 0.8-3.8 0.8zm272.2 0q-2.3-0.2-4.4-0.8-2.2-0.5-4.3-1.5-2-1-3.8-2.4-1.8-1.4-3.3-3.1l-117.9-154.7c-3.4-4.3-6-3.4-6 2v151.2c0 1.3-0.3 2.6-0.8 3.7-0.5 1.2-1.2 2.3-2.1 3.2-0.9 0.9-2 1.7-3.2 2.2-1.2 0.5-2.4 0.7-3.7 0.7h-38.2c-1.3 0-2.6-0.3-3.8-0.8-1.1-0.5-2.2-1.2-3.1-2.1-0.9-0.9-1.6-2-2.1-3.2-0.5-1.2-0.8-2.4-0.9-3.7v-249.3c0.1-1.3 0.3-2.5 0.8-3.7 0.5-1.2 1.3-2.3 2.2-3.2 0.9-0.9 2-1.6 3.1-2.1 1.2-0.4 2.5-0.7 3.8-0.7h34.7q2.3 0.2 4.5 0.8 2.2 0.7 4.2 1.8 2 1 3.8 2.5 1.7 1.4 3.2 3.2l113.5 149.5c3.3 4.1 5.9 3.3 5.9-2.1v-146c0-1.3 0.3-2.6 0.8-3.7 0.5-1.2 1.2-2.3 2.1-3.2 0.9-0.9 2-1.6 3.2-2.1 1.2-0.5 2.5-0.7 3.8-0.7h38.5c1.2 0 2.5 0.3 3.7 0.8 1.2 0.5 2.3 1.2 3.2 2.1 0.9 0.9 1.6 2 2.1 3.2 0.5 1.2 0.8 2.5 0.8 3.7v249.2c0 1.3-0.3 2.6-0.8 3.7-0.5 1.2-1.2 2.3-2.1 3.2-0.9 0.9-2 1.7-3.2 2.2-1.2 0.5-2.5 0.7-3.7 0.7zm207.3 4.6c-18.4 0.6-36.8-2.5-54-9.1-17.2-6.7-32.9-16.7-46.2-29.6-13.2-12.9-23.7-28.3-30.9-45.3-7.1-17-10.7-35.3-10.6-53.8v-0.7c0-18.5 3.7-36.9 10.9-54 7.2-17.1 17.8-32.5 31.1-45.4 13.3-12.9 29-23.1 46.3-29.8 17.3-6.7 35.7-9.8 54.3-9.3 18.5-0.7 37.1 2.3 54.4 9 17.4 6.6 33.2 16.7 46.5 29.7 13.4 12.9 23.9 28.5 31.1 45.6 7.1 17.2 10.7 35.6 10.6 54.2 0 18.6-3.8 37.1-11 54.2-7.3 17.1-17.9 32.6-31.3 45.5-13.4 13-29.3 23.1-46.7 29.7-17.3 6.7-35.9 9.8-54.5 9.1zm81.2-138.5c0.3-10.9-1.5-21.7-5.4-31.9-3.9-10.2-9.8-19.5-17.4-27.3-7.6-7.9-16.6-14.1-26.7-18.4-10-4.2-20.8-6.4-31.7-6.5-10.8 0-21.4 2.1-31.4 6.3-9.9 4.2-18.9 10.4-26.4 18.2-7.5 7.7-13.4 16.9-17.2 27-3.9 10.1-5.7 20.8-5.3 31.6v1c-0.3 10.9 1.5 21.8 5.4 32 3.9 10.1 9.8 19.4 17.4 27.3 7.6 7.8 16.6 14.1 26.6 18.4 10.1 4.3 20.9 6.5 31.8 6.5 10.8 0.1 21.4-2.1 31.4-6.3 9.9-4.2 18.9-10.3 26.4-18.1 7.5-7.8 13.4-17 17.2-27 3.9-10.1 5.7-20.9 5.3-31.7z"/>
</svg>