<svg version="1.2" xmlns="http://www.w3.org/2000/svg" viewBox="0 0 1544 836" width="1544" height="836">
	<title>cavco_logo-1-svg</title>
	<defs>
		<clipPath clipPathUnits="userSpaceOnUse" id="cp1">
			<path d="m0 0h1543.45v825.51h-1543.45z"/>
		</clipPath>
		<clipPath clipPathUnits="userSpaceOnUse" id="cp2">
			<path d="m0 0h1543.45v825.51h-1543.45z"/>
		</clipPath>
		<clipPath clipPathUnits="userSpaceOnUse" id="cp3">
			<path d="m0 0h1543.45v825.51h-1543.45z"/>
		</clipPath>
	</defs>
	<style>
		.s0 { fill: #ffffff } 
	</style>
	<g id="Page-1">
		<g id="Cavco_Logo">
			<g id="Group-5">
				<g id="Clip-Path: Fill-1" clip-path="url(#cp1)">
				</g>
				<g id="Clip-Path: Fill-3" clip-path="url(#cp2)">
				</g>
				<g id="Clip-Path: Fill-4" clip-path="url(#cp3)">
				</g>
			</g>
			<path id="Fill-1" fill-rule="evenodd" class="s0" d="m1510.2 514.1l10.7 29.8 10.7-29.8h11.8v41.6h-7.6v-33.6l-11.5 33.6h-6.7l-11.6-33.6v33.6h-7.7v-41.6zm-54.5 6.9v-6.9h35.5v6.9h-13.6v34.7h-8.2v-34.7zm-1450.9-83v-80.6c0-19.8 11.8-37.8 30.2-46.1l676.5-306.5c14-6.4 30.2-6.4 44.2 0l676.5 306.5c18.4 8.3 30.2 26.3 30.2 46.1v47.8l-148.6-67.4c-5.1-2.2-10.9-2.2-15.9 0l-180 81.6v-85c0-7.3-3.9-14.1-10.2-18l-240.2-148.3c-7.2-4.4-16.4-4.4-23.6 0l-240.1 148.3c-6.4 3.9-10.2 10.7-10.2 18v65.4l-241.1-109.3c-7-3.2-15.2-3.2-22.2 0zm143 76.6h92.3l16.8 78.1h-109.1c-38.3 0-69.8 34.8-69.8 77.6 0 42.7 31.5 77.1 69.8 77.1h84l25.1 78.1h-109.1c-81.6 0-147.9-69.7-147.9-155.2 0-86 66.3-155.7 147.9-155.7zm214.5 210.2c0 10.3 1 22.6 15.3 22.6h93.4l25.1 78.1h-118.5c-51.1 0-93.4-42.2-93.4-93.3v-7.4c0-51.6 42.3-93.8 93.4-93.8h89.4c-6.4-19.7-13.3-38.3-36.9-38.3h-119.4l-16.7-78.1h136.1c47.2 0 91.4 37.8 106.6 81l80.6 229.9h-82.5l-40.8-116.4h-116.4c-8.4 0-15.3 7.4-15.3 15.7zm430.6-210.7h83l-102.7 270.6c-9.3 24.1-28 46.2-56 46.2-28 0-46.6-20.6-56.5-45.2l-107.6-271.6h84l79.1 200.4zm225.3 0.5h92.4l16.7 78.1h-109.1c-38.3 0-69.7 34.9-69.7 77.6 0 42.8 31.4 77.1 69.7 77.1h84l25.1 78.1h-109.1c-81.5 0-147.8-69.7-147.8-155.2 0-85.9 66.3-155.7 147.8-155.7zm449.1 157.2c0 88.4-69.7 164.1-159.6 164.1-90 0-160.2-75.7-160.2-164.1 0-88.9 70.2-164.1 160.2-164.1 89.9 0 159.6 75.2 159.6 164.1zm-77.1 0c0-46.2-35.4-87-82.5-87-47.2 0-83.1 40.8-83.1 87 0 45.7 35.4 86.4 83.1 86.4 47.1 0 82.5-40.7 82.5-86.4z"/>
		</g>
	</g>
</svg>