<svg version="1.2" xmlns="http://www.w3.org/2000/svg" viewBox="0 0 1552 1084" width="1552" height="1084">
	<title>central-valley-community-bank-svg</title>
	<style>
		.s0 { fill: #366f58 } 
		.s1 { fill: #eab72f } 
	</style>
	<g id="Layer">
		<path id="Layer" fill-rule="evenodd" class="s0" d="m302.4 116.4c-7.3 30.8-26.4 54.3-61.7 54.3-48.4 0-67.5-47-67.5-86.6 0-42.5 20.6-83.6 69-83.6 33.8 0 52.9 22 60.2 52.8l-19.1 2.9c-5.9-20.5-16.1-39.6-41.1-39.6-36.7 0-45.5 39.6-45.5 67.5 0 13.2 1.5 29.4 7.3 41.1 7.4 14.7 19.1 26.4 36.7 26.4 25 0 36.7-19.1 42.6-41.1zm118.9 17.6c-7.3 22.1-29.3 36.7-52.8 36.7-36.7 0-55.8-29.3-55.8-64.5 0-33.8 20.5-64.6 57.2-64.6 38.2 0 54.3 32.3 54.3 66h-89.5c0 10.3 0 19.1 4.4 27.9 5.9 11.8 19.1 19.1 30.8 19.1 16.2 0 27.9-8.8 32.3-23.5zm-19.1-41.1c0-20.5-11.7-38.1-32.2-38.1-20.6 0-33.8 17.6-35.3 38.1zm57.3-24.9c7.3-14.7 22-26.4 38.1-26.4 14.7 0 26.5 5.8 35.3 19 5.8 10.3 5.8 26.4 5.8 39.7v67.5h-19v-76.3c0-7.4 0-16.2-3-23.5-4.4-5.9-13.2-10.3-22-10.3-10.3 0-19.1 4.4-25 11.7-7.3 10.3-10.2 20.6-10.2 33.8v64.6h-19.1v-123.3h17.6v23.5zm161.5 101.2l-17.6 1.5c-26.5 0-35.3-16.1-35.3-39.6v-71.9h-22v-16.2h22v-29.3l19.1-3v32.3h27.9v14.7h-27.9v74.8c0 14.7 4.4 22.1 19.1 22.1l14.7-1.5zm26.4-124.8v29.4c5.9-16.1 16.1-32.3 36.7-32.3h7.3v17.6h-4.4c-14.6 0-24.9 7.4-32.3 19.1-4.4 8.8-5.8 16.1-5.8 26.4v61.7h-17.7v-121.9zm133.6 41.1c0-22-8.8-29.3-30.8-29.3-16.1 0-30.8 4.4-33.8 22l-17.6-2.9c3-25 30.9-33.8 52.9-33.8 13.2 0 27.9 1.5 38.1 11.8 10.3 10.2 10.3 26.4 10.3 41v48.5c0 8.8 0 17.6 2.9 26.4h-19l-1.5-23.5c-8.8 17.6-23.5 25-42.6 25-23.5 0-42.5-13.3-42.5-36.7 0-14.7 8.8-27.9 23.4-33.8 13.3-5.9 32.3-7.3 47-7.3h13.2zm0 20.5h-16.1c-19.1 0-49.9 3-49.9 27.9 0 14.7 13.2 22 26.4 22 23.5 0 39.6-20.5 39.6-41.1zm41.1-104.2h19.1v165.9h-19.1zm170.3 165.8h-20.5l-55.8-165.8h22l47 136.4 45.5-136.4h17.6zm127.7-82.2c0-22-8.8-29.4-30.8-29.4-16.2 0-30.9 4.4-33.8 22l-17.6-2.9c2.9-24.9 30.8-33.7 52.8-33.7 13.3 0 27.9 1.4 38.2 11.7 10.3 10.3 10.3 26.4 10.3 41.1v48.4c0 8.8 0 17.6 2.9 26.4h-19.1l-1.4-23.4c-8.8 17.6-23.5 24.9-42.6 24.9-23.5 0-42.6-13.2-42.6-36.7 0-14.7 8.8-27.9 22-33.7 13.3-5.9 32.3-7.4 47-7.4h14.7zm0 20.6h-16.1c-19.1 0-50 2.9-50 27.8 0 14.7 13.3 22.1 26.5 22.1 23.5 0 39.6-20.6 39.6-41.1zm41.1-104.2h19.1v165.8h-19.1zm48.4 0h19.1v165.8h-19.1zm146.8 132.1c-7.3 22-29.3 36.7-52.8 36.7-36.7 0-55.8-29.3-55.8-64.6 0-33.7 20.6-64.5 57.3-64.5 38.1 0 54.3 32.3 54.3 66h-89.6c0 10.3 0 19.1 4.4 27.9 5.9 11.7 19.1 19.1 30.9 19.1 16.1 0 27.9-8.8 32.3-23.5zm-19.1-41.1c0-20.5-11.8-38.2-32.3-38.2-20.6 0-33.8 17.7-35.3 38.2zm76.4 86.6c-3 8.8-5.9 16.1-13.2 23.5-7.4 7.3-14.7 8.8-25 8.8-4.4 0-8.8-1.5-14.7-1.5v-14.7c4.4 1.5 8.8 1.5 13.2 1.5 19.1 0 22.1-16.1 27.9-30.8l-42.5-120.4h20.5l32.3 92.5 33.8-92.5h16.1z"/>
		<g id="Layer">
			<path id="Layer" class="s0" d="m149.7 238.2c-2.9-22-13.2-42.5-36.7-42.5-26.4 0-39.6 23.4-39.6 74.8 0 54.3 11.7 80.7 45.5 80.7 25 0 41.1-22 45.5-45.5l51.4 11.8c-16.2 57.2-51.4 82.1-110.1 82.1-47-1.4-105.7-38.1-105.7-124.7 0-89.5 57.2-127.7 116-127.7 60.2 0 93.9 41.1 98.3 85.1z"/>
			<path id="Layer" fill-rule="evenodd" class="s0" d="m296.5 398.2c-45.4 0-82.2-36.1-82.2-80.7 0-44.7 36.8-80.8 82.2-80.8 45.5 0 82.2 36.1 82.2 80.8 0 44.6-36.7 80.7-82.2 80.7zm26.4-80.7c0-35.3-8.8-45.5-24.9-45.5-16.2 0-25 10.2-25 45.5 0 35.2 8.8 45.5 25 45.5 14.7 0 24.9-10.3 24.9-45.5zm64.6-76.4h54.3v22.1c13.3-11.8 29.4-25 51.4-25 19.1 0 33.8 8.8 41.1 27.9 16.2-16.1 29.4-27.9 52.9-27.9 30.8 0 42.5 22 42.5 42.6v114.4h-54.3v-96.8c0-10.3-2.9-22-16.1-22-10.3 0-20.6 7.3-23.5 13.2v107.1h-54.3v-96.8c0-10.3-3-22.1-16.2-22.1-10.2 0-20.5 7.4-23.5 13.2v107.2h-54.3zm261.3 0h54.3v22c13.2-11.7 29.4-25 51.4-25 19.1 0 33.8 8.8 41.1 27.9 16.2-16.1 29.4-27.9 52.9-27.9 30.8 0 42.5 22.1 42.5 42.6v114.5h-54.3v-96.9c0-10.3-2.9-22-16.1-22-10.3 0-20.6 7.3-23.5 13.2v107.1h-54.3v-96.8c0-10.3-3-22-16.2-22-10.3 0-20.5 7.3-23.5 13.2v107.1h-54.3zm408.1 152.6h-54.3v-22c-13.2 13.2-29.4 26.4-49.9 26.4-14.7 0-44.1-8.8-44.1-46.9v-111.6h54.4v96.9c0 10.3 2.9 22 16.1 22 8.8 0 16.2-7.3 23.5-13.2v-105.7h54.3zm16.2-152.6h54.3v22c13.2-13.2 29.3-26.4 49.9-26.4 14.7 0 44 8.8 44 47v111.5h-54.3v-96.9c0-10.2-2.9-22-16.1-22-7.4 0-16.2 7.4-23.5 13.2v105.7h-54.3zm162.9-64.6h54.3v42.6h-54.3zm0 64.6h54.3v152.6h-54.3zm60.2 0h24.9l4.4-54.3h47v54.3h25v35.2h-25v71.9c0 8.8 5.9 13.2 14.7 13.2 2.9 0 8.8-1.4 11.7-1.4v35.2c-10.2 1.5-20.5 2.9-27.9 2.9-41.1 0-52.8-14.7-52.8-41.1v-80.7h-22z"/>
			<path id="Layer" fill-rule="evenodd" class="s0" d="m1393.1 241.1h57.2l29.4 86.6 30.8-86.6h41.1l-58.7 143.9c-11.8 29.3-25 55.7-76.4 55.7-5.8 0-10.2 0-16.1-1.4v-38.2c5.9 1.5 11.7 2.9 19.1 2.9 7.3 0 26.4-1.4 26.4-13.2 0-4.4-1.5-7.3-2.9-13.2zm-942.4 168.8h117.4c54.3 0 91 23.5 91 63.1 0 29.4-23.5 45.5-48.4 52.8 30.8 5.9 54.3 26.5 54.3 58.7 0 30.9-17.6 64.6-88.1 64.6h-126.2zm69 95.4h35.2c17.6 0 35.2-5.9 35.2-26.4 0-19.1-19.1-26.4-35.2-26.4h-35.2zm38.1 102.7c17.6 0 33.8-7.3 33.8-26.4 0-22-14.7-26.4-33.8-26.4h-39.6v52.8zm120.4-83.6c7.3-36.7 42.5-47 76.3-47 61.6 0 76.3 23.5 76.3 49.9v91c0 5.8 0 24.9 7.4 33.7h-61.7c-1.5-4.4-2.9-10.2-2.9-14.6-13.2 11.7-32.3 19-51.4 19-16.2 0-49.9-8.8-49.9-49.9 0-46.9 52.8-60.1 101.3-60.1v-14.7c0-13.2-8.8-17.6-20.6-17.6-14.7 0-20.5 7.3-23.5 20.5zm94 49.9c-17.6 3-42.6 7.4-42.6 26.4 0 11.8 11.8 17.7 19.1 17.7 8.8 0 16.1-3 24.9-10.3v-33.8zm73.4-92.4h60.2v24.9c14.7-14.7 33.8-29.3 55.8-29.3 16.2 0 48.5 8.8 48.5 51.3v123.3h-60.2v-107.1c0-11.8-3-25-17.6-25-8.9 0-17.7 7.4-26.5 14.7v117.4h-60.2zm182.1-71.9h60.2v135l60.1-67.5h55.8l-54.3 60.2 54.3 114.4h-66l-30.9-68.9-19 20.5v49.9h-60.2z"/>
		</g>
	</g>
	<path id="Layer" class="s1" d="m1199.3 1026.3c-140.9-47-339.1-36.7-462.4-29.4 142.4-24.9 334.7-41 480 1.5 11.8-14.7 25-29.3 41.1-42.5-145.3-41.1-418.3-5.9-513.8 17.6 160-39.7 362.6-83.7 541.7-39.7 16.1-10.2 32.3-20.5 49.9-29.3-189.4-54.3-436 4.4-601.8 54.3 157-64.6 418.3-132.1 644.4-70.5q39.6-13.2 83.7-22c-453.6-114.4-882.3 157.1-895.5 165.9h-1.4c4.4-1.5 347.8-69 607.7 51.3 7.3-19 14.7-39.6 26.4-57.2z"/>
	<path id="Layer" class="s0" d="m458 985.2c121.8-83.6 315.6-127.7 436-154.1-143.9 14.7-331.8 52.8-461 133.6-14.6-11.8-32.3-22.1-49.9-29.4 129.2-79.2 400.8-118.9 499.1-123.3-164.4 5.9-372.8 19.1-531.4 110.1-17.6-5.9-36.7-10.3-55.7-14.7 165.8-105.6 419.8-117.4 591.5-114.4-168.8-19.1-437.4-11.8-640 108.6-26.4-1.5-55.8-1.5-85.1 2.9 405.1-234.8 891-89.5 907.1-85.1h1.5c-4.4 0-353.8 27.9-571 215.7-11.7-17.6-25-35.2-41.1-49.9z"/>
</svg>