<svg version="1.2" xmlns="http://www.w3.org/2000/svg" viewBox="0 0 1530 212" width="1530" height="212">
	<title>logo - 2022-10-01T214434</title>
	<style>
		.s0 { fill: #ffffff } 
	</style>
	<g id="UI">
		<g id="1.0-Home-V4---Desktop">
			<g id="Logo-/-White">
				<path id="Layer" fill-rule="evenodd" class="s0" d="m118.8 4c24.6 0 45.5 6.7 53.7 8.3 2.4 17 4.5 29.8 6.4 46.5l-9.4 2.2c-8.2-32.9-27.4-45.4-58.6-45.4-49.5 0-75.9 42.6-75.9 88.6 0 56.6 32.5 95.3 78 95.3 30 0 46.4-16.8 61.9-46.9l9.1 3.3c-4.2 14-11.8 36.9-17.3 46.9-8.5 2.1-34.3 8.2-55.8 8.2-76.5 0-109.9-52.6-109.9-100.7 0-63.9 48.9-106.3 117.8-106.3zm1168.5 0c15.2 0 28.6 4 38.9 7.3 1.2 11 3 23.2 5.5 42.4l-9.2 1.8c-5.4-19.2-14.2-40.8-40-40.8-22.2 0-33.1 16.1-33.1 32.9 0 21.3 14 31.6 38.5 44.1 25.2 12.8 52.6 27.4 52.6 60.9 0 32.6-27.4 58.4-68.6 58.4-12.2 0-22.2-2.1-29.8-4.5-7.9-2.5-12.4-4.9-15.8-6.4-2.4-6.7-6.3-32.6-8.2-48.1l9.4-2.5c4.9 18.9 19.2 50.3 50.1 50.3 22.2 0 35.5-14 35.5-35.6 0-21.7-16-32.6-38.8-44.8-21.6-11.3-50.7-26.8-50.7-60.3 0-29.8 24-55.1 63.7-55.1zm-386 4.6v9.1c-21.9 2.5-22.5 4.9-18 18 8.2 22.2 30.7 81.6 49.2 129.7h0.6c15.8-39.3 36.7-94.1 46.2-123.9 6-18.3 4.5-21-20.1-23.8v-9.1h68.9v9.1c-20.6 2.2-24.9 5.2-36.4 32.9-6.6 15.9-27 65.3-46.6 115.9l-3.3 8.7c-4.5 11.6-8.8 23.2-12.9 34.3h-10.3c-20.4-55.7-46.2-122.7-62.6-164.4-9.1-22.8-13.9-25.5-32.1-27.4v-9.1zm-150.6 0c23.1 0 37.9 2.8 49.5 10.7 12.4 7.9 20.3 21.3 20.3 39.8 0 26.2-16.4 42-38.5 51.8 5.1 9.7 17.6 30.1 26.7 43.8 10.9 16.1 17.3 24.4 24.3 32 7.9 8.5 14.5 12.2 21.2 14l-1.2 8.2c-3.3 0-6.7 0-10.3-0.3-25.8-1.2-38-8.2-51.6-28-10-14.3-20.7-32.9-29.5-47.8-5.4-8.8-10.6-12.5-25.2-12.5h-8.8v47.8c0 25.6 2.8 27.7 26.8 29.5v8.9h-82v-8.9c23.8-1.7 27.1-3.8 27.3-27.2v-123.7c0-25.6-2.7-27.1-26.1-29.3v-8.8zm-101.1 0v8.8c-23.5 2.1-26.8 3.9-27 27.6v123.1c0 25.9 2.8 27.7 27 29.5v8.9h-82.2v-8.9c23.5-1.7 26.8-3.5 27-27.2v-123.1c0-25.9-2.7-27.7-27-29.9v-8.8zm717.2-7.6c4.3 7 8.2 7.6 16.7 7.6h120.5c8.2 0 10.9-1.8 15.5-7.6h6.7c0 13.7 1.5 36.8 3 54.8l-9.1 0.9c-3.3-14.9-6.4-22.8-10.3-28-5.2-6.7-10.3-9.1-32.5-9.1h-20v148.8c0 24.4 2.4 27.4 30.9 29.2v8.9h-89.2v-8.9c27.3-1.8 29.7-4.8 29.7-29.2v-148.8h-17.3c-25.2 0-31.2 2.7-35.2 9.4-3.6 5.2-6.6 14-10 27.7h-9.4c1.2-18.9 3-39.3 3.6-55.7zm-1089 7.6v8.8c-23.7 1.9-26.7 3.4-26.7 29.6v119.9c0 16.1 1.5 21.9 7.3 25 5.7 3.3 15.8 3.6 27.9 3.6 16.1 0 26.4-1.5 33.4-9.4 5.4-6.1 10.9-15.9 15.8-30.2l9.4 2.2c-1.8 10-8.2 39.2-11 48.4h-139.3v-8.9c25.5-1.8 28.3-3.9 28.3-29.8v-120.8c0-25.9-2.2-27.4-26.8-29.6v-8.8zm180.6-4.6c18.9 52.4 39.2 109.6 58.6 162.3 9.4 26.2 13.7 29.2 33.4 31.3v8.9h-76.8v-8.9c18.8-2.4 21.3-5.1 17.3-17.3-3.6-11.6-9.4-27.1-15.8-44.8h-63.7c-4.6 13.1-8.8 25.6-12.7 38.1-6.1 18.6-4 21.6 18.8 24v8.9h-66.5v-8.9c19.7-2.7 23.7-4.8 34.3-31.6l62.5-158.9zm723.6 4.6c0 7.3 1.5 28 2.8 44.1l-9.5 1.5c-2.7-12.5-6-19.8-10-25.9-4.5-6.7-12.7-8.8-33.7-8.8h-21.5c-9.7 0-10.6 0.9-10.6 10.1v68.4h27.3c27 0 29.1-2.4 32.8-22.8h9.1v58.8h-9.1c-3.9-21-6.3-23.3-30.3-23.5h-29.8v56.3c0 14.3 1.8 21.3 7.3 25 5.7 3.6 16.3 3.6 30.9 3.6 21.9 0 30.7-2.4 37.3-10 5.5-6.4 11-16.7 15.5-28.9l9.1 1.5c-1.5 10.7-7.9 39-10.3 48.4h-148.1v-8.8c27.3-2.2 30-4.6 30-29.5v-120.3c0-27.1-2.7-28.3-25.8-30.4v-8.8zm-737.2 38h-0.9c-9.4 25.3-18.5 50.8-27.6 75.5h54.3zm302-27.7c-8.8 0-13.7 1.2-16.1 3-2.1 1.9-3 5.2-3 13.1v74.9h13.3c14.9 0 24.9-2.4 32.5-8.5 11.2-9.2 16.1-21.3 16.1-37.5 0-32.8-21-45-42.8-45z"/>
			</g>
		</g>
	</g>
</svg>