<svg version="1.2" xmlns="http://www.w3.org/2000/svg" viewBox="0 0 1524 382" width="1524" height="382">
	<title>cewe_owler_20190501_135430_original-svg</title>
	<style>
		.s0 { fill: #c30c15 } 
	</style>
	<g id="#c30c15ff">
		<path id="Layer" fill-rule="evenodd" class="s0" d="m1034.1 10.9c11.9-7.1 26-11.6 40-10.2 7.7 0.8 15.8 4.8 18.7 12.4 19.4 48.2 52 91.9 95.3 121.3 18.9-45.7 51.9-87.2 96.8-109.4 23.1-11.3 49.2-17 75-15.1 25.8 2 51.2 14.3 67.3 35 13.8 17.5 19.8 40.5 17.9 62.7-2.4 28-14.2 55.2-33.4 75.8-19.6 21.1-46.1 35-74 41.3-25.3 5.9-51.5 5-77 1.7 0.8 17.7 6.5 36.1 19.7 48.5 13.9 13.6 33.8 18.9 52.7 19.2 30.9 0.7 61-9.5 87.9-24.2 27.9-15.4 53.2-35.6 75.3-58.7 2.7-2.9 6.7-5.1 10.8-4.3 6.3 1.4 10.7 6.9 13.3 12.5 6.1 13.4 3.9 29.7-4 41.9-4.8 7.4-10.9 13.9-17.1 20.2-28.5 27.7-62.9 49.5-100.1 63.5-34.7 13.1-72.6 18.5-109.5 13.6-24.6-3.3-48.9-12-68.6-27.3-17.8-13.5-31.3-32.2-39.5-52.9-10-25.5-12.3-53.4-9.7-80.5-26.6-13.9-51.9-31-72.6-53 0.2 30.1-3.2 60.1-9.4 89.5-6.5 30.1-16.1 59.8-31.8 86.4-11.5 19.5-26.8 37.3-46.6 48.5-22.7 13.2-50.5 15.5-75.7 9.4-22.8-5.6-43.1-19.2-58.4-36.8-27.7-32-42-73.3-49-114.4-17.7 24.3-35.9 48.4-57.2 69.7-12.9 12.6-26.9 24.8-43.5 32.5-19.1 9.1-42.4 6.1-60.5-3.9-21.5-12.2-31.9-36.7-35.9-60.1-6.5-38.9-1.5-78.6 5-117.2 4-21.9 8.6-43.8 15.1-65.1 5.2-13.9 19-22 32.1-27.1 14.3-5.1 29.7-7.8 44.8-5.6 6.4 1.2 13.4 3.4 17 9.3 2.4 4.1 1.7 9.1 0.1 13.3-13.7 36.3-23.3 74.3-27.8 112.9-1.5 14.5-2.6 29.1-1.3 43.6 0.6 3.9 1.1 9.2 5.3 10.9 5.4 0.8 9.9-3.1 14.1-5.8 18.2-13.3 32.6-31 46.8-48.3 16.2-20.4 31.4-41.6 45-63.8 4.6-7.6 13.7-10.8 22.2-11.1 14.1-0.4 28.2 4.4 39.8 12.5 9.9 6.8 18.4 17.3 19.3 29.7 1 33 5.5 66.1 15.6 97.6 5.5 16.2 12.4 33 26 44 10.2 8.5 25.4 8.7 36.6 2 14.3-8.2 23-23.1 29.4-37.9 12.1-29.2 16.6-61.1 18-92.6 1-36-2.2-72.6-13.6-107-2.4-7.8-7.4-15.4-6-23.9 1.5-11.1 10.2-19.5 19.3-25.2zm304.2 61.8c-13.1 4.4-23.9 13.6-33 23.7-17.6 20-29.2 44.7-36.6 70.3 25.4 4 53.2 3.4 75.7-10.5 16.2-10 30-26.1 33-45.3 1.8-11.8-0.5-25.2-9.6-33.5-7.9-7.2-19.8-7.9-29.5-4.7z"/>
		<path id="Layer" fill-rule="evenodd" class="s0" d="m96.7 36.3c27.5-18.6 59.1-31.9 92.3-34.5 30.9-1.8 63.7 5.2 88.1 25 5.2 4.7 11.6 9.5 12.3 17 1 11.5-3.7 22.8-10.2 32-5 6.5-11.7 12.9-20.4 13.2-7.7 0.4-13-6.2-19.6-9.1-19-9-41.9-12.5-61.9-4.4-20.6 8.1-37.5 23.8-50.5 41.4-19.6 27.5-30.3 61.2-30.1 94.9 0.2 24.4 10.6 49.7 31.2 63.8 22.7 16.2 51.9 18 78.8 15.6 35.8-3.1 70.7-13.3 103.8-27.1-10.8-34.8-8.7-72.5-0.1-107.6 12.2-48 42.4-91.6 84.2-118.4 20-12.8 42.7-22.2 66.6-24 26.5-1.7 54.2 5.9 74.4 23.7 14.9 13.1 24.6 32 26.4 51.8 2.3 24.6-5.7 48.9-17.6 70.1-12.6 21.4-29.9 39.4-47.9 56.2-24.9 22.7-52.2 42.5-80.6 60.6 11.6 12.5 28.2 19.9 45.1 21.1 31.6 2.3 63.4-8.3 88.7-27.2 9.9-7.3 18.8-15.9 27.2-24.8 3.2-3.4 7.3-6.5 12.1-6.7 6.6-0.3 12.1 4.5 15.4 9.8 7.7 12.6 7.1 29.4-0.5 41.8-6.3 10.3-14.5 19.2-23.5 27.2-32 28.5-74.9 43.7-117.7 43.7-43.9 0.5-89.8-13-121.5-44.6-50.8 23.2-105 40.7-161.1 43.3-40.4 1.5-82.7-4.5-117.7-26.1-24.6-14.9-43.8-38.4-53.4-65.6-12.7-35.4-10.3-74.5-0.6-110.4 13.4-49.6 45.9-93.1 88.3-121.7zm346.2 50.2c-15.3 9.7-26.9 24.5-35.1 40.6-14.2 28.4-19.7 61.2-16.1 92.8 19.4-13.1 37.9-27.4 54.7-43.7 12.4-12.1 24-25.2 32.7-40.2 5.7-9.9 10.2-21.3 8.9-33-0.9-8.8-6.4-17.4-14.9-20.7-9.9-4-21.3-1.3-30.2 4.2z"/>
	</g>
</svg>