<svg version="1.2" xmlns="http://www.w3.org/2000/svg" viewBox="0 0 1566 514" width="1566" height="514">
	<title>cranswick-logo-header-svg</title>
	<style>
		.s0 { fill: #d2a04e } 
		.s1 { fill: #ffffff } 
	</style>
	<path id="Layer" fill-rule="evenodd" class="s0" d="m929.6 24.1c-5.1 1.3-84 9-118.7 6.4-9.3-0.7-22.5-5.5-25.7-0.4-1.9 3.4-1.2 7.6 1.4 10.4 5.7 7.2 18.2 19.9 19.4 36.5 2.3 19.9-14.6 39.6-14.6 39.6-4.2 4.9-8.6 9.5-13.4 13.7l-3.7 3.2c-1.4 1.2-2.6 2.3-4 3.2q-4.1 3.2-8.3 6.3c-5.8 4.1-11.6 7.9-17.8 11.3-3 1.6-6.3 3.3-9.5 4.9l-2.3 0.9-2.6 1.2-5 1.8-4.9 1.9-4.9 1.6c-3.2 0.9-6.2 2.1-9.5 3-3.2 0.9-6 1.8-9 3-3 1.2-5.8 2.3-8.3 3.2-2.6 1-5.1 2.1-7.4 3.5l-1.9 0.9c-0.4 0.3-1.1 0.5-1.6 1-1.2 0.7-2.3 1.4-3.2 2-2.1 1.4-4 2.8-5.6 4.4l-3.5 3.5c-0.2 0.5-0.7 0.7-0.9 1.2-0.7 0.7-1.4 1.4-1.8 2.3l-1.7 2.3c-0.9 1.4-1.8 2.8-2.5 4.2-0.2 0.7-0.7 1.3-0.9 1.8-0.3 0.5-0.5 1.2-0.7 1.6q-0.4 0.7-0.7 1.4c-0.3 0.5-0.3 0.7-0.5 1.2l-0.9 2.3q0 0 0-0.7c0-0.5 0-0.9 0.2-1.9 0-0.4 0.2-0.9 0.2-1.3 0-0.5 0-1.2 0.3-1.7 0.2-0.4 0.2-1.1 0.4-1.8q0.4-1.1 0.7-2.1c0.3-1.6 1-3 1.7-4.9 0.2-0.9 0.9-1.8 1.1-2.7q0.4-1.4 1.4-2.8c0.7-0.9 1.2-1.9 1.9-2.8 0.6-0.9 1.3-2.1 2-3 1.7-2.1 3.5-3.9 5.4-5.8 2-1.8 4.4-3.7 6.7-5.3l1.8-1.2c0.5-0.4 1.2-0.7 1.9-1.1 0.7-0.5 1.4-0.7 2.1-1.2l2-1.1c2.8-1.6 5.6-2.8 8.6-4.2 3-1.4 6.3-2.5 9-3.7 2.8-1.2 7.2-3.2 10-4.4 56-25.7 66.7-47.7 66.7-47.7 3.7-6.9 0.2-16.2-11.9-13.6-8.5 1.8-17.5 2.8-26.3 2.8-8.8 0-39.4-1.9-48.4-26.6-5.3-14.4-1.2-24.3 0.2-35.4 0.9-8.4 2.1-14.8-29.2-13.9-37 1.1-64.5 0.9-78.7 0.4-28-0.9-40-1.8-50.9-2.5-16.2-1.2-7.8 3.7 19 9 23.8 4.9 27.1 4.6 33.1 5.6 6 0.9 8.1 1.8 3 2.7-14.8 2.4-30.1 4-45.1 4.4-22.7 0-14.8 2.4 28.5 8.6 14.1 2.1 22.4 4.9 27.7 7.9 1.2 0.7 2.3 1.1 3.5 1.8 1.4 0.9 2.8 1.9 4.2 3l2.3 2.6 0.7 0.9c0.2 0.2 1.4 1.4 1.6 1.6 0.2 0 0.2 0.3 0 0.5 0 0.2-0.2 0.2-0.5 0.2l-3.2-1.1c-2.1-0.7-5.1-1.7-8.6-2.6-1.8-0.4-3.7-0.9-5.8-1.1-2-0.3-4.4-0.7-6.4-1-2.1-0.2-4.7-0.4-7-0.4-2.3 0-4.8 0-7.2 0.2l-3.7 0.5-3.4 0.7c-2.4 0.4-4.7 1.1-7 1.8-2.3 0.7-4.4 1.4-6.2 2.3-1.9 0.9-3.7 1.9-5.4 2.8l-4.1 2.5c-1.2 0.7-2.1 1.7-3 2.4l-2.6 2q-0.3 0.4-0.7 0-0.3-0.3 0-0.7l2.6-3.4c0.7-0.9 1.8-1.9 2.8-2.8l4.1-3.2c1.6-1 3.5-2.4 5.3-3.3 1.9-0.9 4-2.1 6.3-3 2.3-0.9 4.9-1.6 7.2-2.3 1.1-0.2 2.5-0.7 3.7-0.9l3.9-0.5c2.3-0.2 4.6-0.5 7-0.5l-4-0.6-4.6-0.7c-3-0.5-6-0.7-9.3-1l-9.2-0.7h-1c-10.4-0.4-20.6-1.8-30.7-3.9-6.3-1.4-12.5-3.2-18.3-5.8-3-1.4-5.8-3-8.4-5.1-0.4-0.4-1.1-1.1-1.6-1.8-0.4-0.9-0.7-1.6-0.4-2.6 0.2-1.1 1.3-1.6 2.3-1.6 0.7 0 1.4 0 2.3 0 6.2 0.5 12.5 1.4 19 1.9 3.9 0.4 7.8 0.7 11.8 0.9 14.3 0.5 35.2 0.5 37.9 0.5-7.1-1-14.3-1.9-21.3-3.3-9.5-1.6-18.9-4.1-28.2-6.7-9.3-2.5-18.3-6-27.1-10.2-4.4-2.1-8.8-4.1-12.9-6.5-2.1-1.1-4.2-2.3-6.3-3.7l-1.8-1.1c0 0-0.7-0.5-1.2-0.9-0.5-0.5-0.9-1-1.2-1.7-0.2-0.4-0.2-0.7 0-0.9 0-0.2 0.3-0.4 0.5-0.4 0.5-0.3 0.7-0.3 1.2-0.3 0.9 0.3 1.8 0.3 3.2 0.5 3.7 0.4 7.4 1.1 11.1 1.8l14.4 2.3c9.5 1.7 18.9 2.8 28.7 4 9.7 1.1 19.2 1.8 28.9 2.5 9.7 0.7 19.2 1 28.9 1 9.8 0 19.2-0.3 29-0.5 9.7-0.2 19.2-0.5 28.9-0.9l14.6-0.7 14.3-1c9.8-0.4 19.2-1.8 29-2.5 5.1-0.2 9.9 0.2 14.5 1.6 2.4 0.7 4.4 2.1 6.3 4 1.8 1.8 2.8 4.4 2.8 6.9 0 5.3-3.3 9.5-5.8 13.4-3 3.9-5.6 8.1-7.7 12.3-4.1 8.5-5 18.5-2.3 27.7 1.2 4.7 3.7 8.6 7.4 11.8q5.2 4.2 11.8 5.6c14.9 3.2 30.1 0.7 43.1-7.2 22.9-14.1-10.4-39.8-13.9-47.4-3.9-9-0.2-19.4 8.6-23.6 12-6.7 31.7-6 36.5-6.7 10.2-1.6 16-4.6 22.7-4.9 6.3 0.3 12.5 1.4 18.8 3 6.5 1.6 11.6 4.4 19.9 6.3 15.3 3.2 34.7 4.8 48.4 7.4 6.9 1.1 13.8 3 20.6 5.1 1.8 0.7 2 1.6-0.5 2.1zm-279.6 75.6c-6-3-12.5-4.8-19.2-5.3-5.8-0.5-11.8 0-17.4 1.4-3.9 1.1-7.9 2.8-11.1 5.3-0.9 0.7-1.8 1.4-2.5 2.3l-1 0.9c-0.2 0-0.2 0-0.4 0-0.3 0-0.3-0.2-0.3-0.4 0 0 0.3-0.5 0.7-1.2 0.7-1.1 1.4-2.1 2.3-3 1.4-1.4 2.8-2.8 4.4-3.7 2.1-1.4 4.4-2.5 6.8-3.7 2.7-1.1 5.7-2.1 8.8-2.5 3.2-0.7 6.7-1 10.1-1 3.7 0 7.4 0.5 10.9 1.2 3.7 0.9 7.4 2.1 10.9 3.7 3.5 1.6 6.9 3.9 9.9 6.5q4.6 3.4 7.7 8.3c3.2 4.4 5.1 9.5 6 14.8 0.2 1.6 0.2 3.3 0.2 4.9 0 2.8-0.7 5.5-1.6 8.1-0.7 2.1-1.8 3.9-3.2 5.5-1 1.2-1.9 1.9-3.3 2.6-0.9 0.4-1.8 0.9-2 0.7-0.3-0.3 0-0.5 0-0.7 0.4-0.3 0.6-0.5 1.1-1 0.7-0.9 1.4-1.8 1.9-2.7 1.6-3.7 2.3-7.9 1.8-12.1-0.7-5.7-2.8-11.3-6.5-15.9-3.9-5.6-9.2-10-15-13zm-47.9-20.3c-2.3 0.2-4.7 0.6-7 1.1-2.3 0.5-4.6 0.9-6.7 1.9-2.1 0.7-3.9 1.4-6 2.3-1.6 0.9-3.5 1.6-5.1 2.8-1.4 0.9-2.8 1.8-3.9 2.7-1 0.7-1.9 1.4-2.8 2.3l-2.3 2.4q-0.4 0.3-0.7 0c-0.2-0.3-0.5-0.5-0.2-1l1.8-2.7c0.7-1.2 1.6-2.1 2.6-3.1 1.1-1.3 2.5-2.5 3.7-3.7 1.6-1.3 3.2-2.5 5-3.7 2.1-1.1 4.2-2.3 6.3-3.2 2.3-0.9 4.6-1.8 6.9-2.5 2.6-0.7 4.9-1.4 7.4-1.7 2.6-0.4 5.1-0.7 7.7-0.9 2.5-0.2 4.8-0.2 7.4 0q3.5 0 6.9 0.7c2.1 0.2 4.2 0.5 6.1 1.2 1.8 0.4 3.4 1.4 4.8 2.3 1.2 0.7 2.3 1.6 3.3 2.8 0.7 0.6 1.1 1.3 1.8 2.3l0.5 1.1 0.2 0.5c0 0.2 0 0.2 0 0.5 0 0.2-0.5 0.4-0.7 0.2l-3.2-0.9c-1.2-0.5-2.3-0.7-3.7-1.2-1.4-0.5-3-0.9-4.7-1.2-1.6-0.2-3.7-0.7-5.8-0.9-2-0.2-4.1-0.4-6.4-0.7-2.3-0.2-4.7-0.2-7-0.2-2.3 0-3.9 0.2-6.2 0.5z"/>
	<path id="Layer" fill-rule="evenodd" class="s1" d="m84 388c-44.9 0-83.3-33.8-83.3-82.1-0.7-44.7 35-81.2 79.6-81.9q0.7 0 1.4 0c34.5 0 55.8 14.5 69.2 34.2l-32.1 22c-6-9.5-16-19-36.4-19-23.6 0-37.9 19.5-37.9 44.7 0 25.2 14.8 44.9 39.3 44.9 20.6 0 30.8-9.5 37.7-22.2l32.9 21c-15.7 26.8-37.9 38.4-70.4 38.4zm214.6-2.1h-46.3l-22.4-36.8h-16v36.8h-43.1v-159.9h60.7c43 0 67.4 27.4 67.4 62.8 0 23.1-10.2 41.4-29 51.8zm-69-70.8c19.3 0 26.4-10.9 26.4-26.4 0-15.5-6.9-26.6-26.4-26.6h-15.7v53zm118.3 70.8h-41.9l78-162.9c0.7-1.6 2.1-1.6 2.8 0l77.7 162.9h-44.2l-6-13.7h-60.2zm35.7-82.8l-16 37.2h32.4zm136.1 3.1v79.8h-40.3v-162.2c0-1.4 0.7-2.6 3.3-0.5l100.4 82.9v-80.3h40.3v162.4c0 1.8-0.7 2.5-3.2 0.5zm118.5 52.5l31-23.4c7.9 9.7 17.4 17.4 33.6 17.4 12.7 0 20.1-3.7 20.1-12.8 0-6.7-5.1-10.1-15.7-13.6l-18.8-6.3c-23.4-7.8-39.8-21.9-39.8-48.3 0-31.5 26.2-47.7 54.6-47.7 28.5 0 43.8 10.2 53.3 21.1l-24.6 25.7c-6.7-6.8-13.6-11.6-26.4-11.6-10.4 0-15.5 4.6-15.5 11.1 0 6.5 3.5 9.3 11.4 11.8l21.3 7.2c31.9 10.6 42.8 25.9 42.8 48.6 0 29.3-18.3 50.6-60.7 50.6-36.3-0.2-56.7-16.6-66.6-29.8zm194.2 29.1c-0.7 1.7-2.1 1.7-2.8 0l-67.1-161.9h44.9l29.8 74.9 34.5-78.2c0.5-1.1 1.4-1.1 1.9 0l36.1 78.2 28.5-74.9h42.8l-66.2 161.9c-0.7 1.9-1.9 1.9-2.8 0l-40-85.8zm164.3-162h42.8v159.9h-42.8zm142.4 162.2c-44.9 0-83.4-33.8-83.4-82.1-0.7-44.7 35-81.2 79.7-81.9q0.6 0 1.3 0c34.8 0 55.8 14.5 69.2 34.2l-32.1 22c-6.3-9.5-16-19-36.4-19-23.6 0-37.9 19.5-37.9 44.7 0 25.2 14.8 44.9 39.3 44.9 20.9 0 30.8-9.5 37.8-22.3l32.8 21.1c-15.7 26.8-37.7 38.4-70.3 38.4zm179.1-162.2h46.3l-53.2 69.4 59.5 90.5h-50.5l-38-57.8c0 0.3-9.1 11.1-13.4 16.4v41.6h-42.8v-159.9h42.8v66.5zm-35.9 102q0 0 0 0z"/>
	<path id="Layer" fill-rule="evenodd" class="s0" d="m341.7 487.3l0.7-2.8h-12.5l1.4-5.3h29.8l-1.4 5.3h-9l-6.9 27.8h-4.9l-0.2-9.3c-4.2 6.3-11.4 10.2-19 10.2-15.3 0-23.2-12.3-23.2-26.8 0-22 16-42.2 36.6-42.2 7.9 0 14.1 2.8 17.8 8.1l3.7-7.8h5.4l-6.1 24.5h-4.6c-0.7-14.6-7.4-19.4-16.7-19.4-17.8 0-27 20.3-27 37.2 0 13.7 6.4 20.4 15.9 20.4 10.5 0.2 17.4-8.6 20.2-19.9zm34.7-7.4c2.1-7.9 1.1-9.3-0.9-9.3-2.8 0-5.6 5.1-8.6 11.4l-3.5-1.7c4.2-9.2 8.4-14.8 13.9-14.8 4 0 6.3 3 6.3 8.4-0.3 3.9-1 8.1-2.3 11.8l0.9 0.2c6.2-13 11.1-20.6 17.1-20.6 3 0 5.6 2.3 5.8 5.3 0 0.3 0 0.3 0 0.5 0 3.9-2.6 7.2-5.6 7.2-3 0-4.6-2.1-4.1-5.8-4.2 1.8-12.8 14.3-19.2 38.8h-8.1zm37.2 13.2c-0.2 1-0.2 1.9-0.2 3 0 8.1 3.9 11.8 9.5 11.8 5.5 0 10.4-3.7 14.8-10.1l3.2 2c-4.8 7.4-10.6 13-20.1 13-9.5 0-15.3-6.5-15.3-16.9 0-15.5 14.1-30.1 27.3-30.1 7.2 0 11.1 4 11.1 9.3 0 8.5-9.4 15.7-30.3 18zm0.7-3.7c17.1-2.3 22.5-8.1 22.5-14.3 0.2-2.8-1.9-5.3-4.7-5.6q-0.3 0-0.7 0c-8.1 0-14.8 10.7-17.1 19.9zm70.6 6c-0.9 2.8-1.4 5.6-1.6 8.4 0 1.4 0.5 3 2.3 3 2.8 0 5.1-4.2 7.7-11.1l3.4 1.1c-4.1 12.5-8.3 16-12.9 16-4 0-7-2.5-7-8.1 0-0.9 0-1.6 0.2-2.5l-0.6-0.3c-4.2 7-9.3 11.1-14.9 11.1-6.9 0-12-6-12-15.2 0-9.3 3.5-18.1 10-24.8 3.7-4.2 8.8-6.7 14.3-7.2 4.9 0 8.3 3.3 9.3 8.8l2.3-8.1h7.6zm-3.9-15.2c0-4.7-1.9-10-7-10-9.2 0-16.6 16-16.6 26.6 0 6.5 2.5 10 6.9 10 8.6 0 16.7-17.4 16.7-26.6zm39.1-8.6l-6.5 23.8c-0.7 2.3-1.1 4.6-1.4 7.2-0.2 1.8 1.2 3.7 3 3.9q0.4 0 0.7 0c4.2 0 7.4-5.3 10.5-11.8l3.4 1.2c-5.3 14.1-11.8 16.9-16.2 16.9-6 0-9.2-3.7-9.2-8.8 0.2-3.3 0.9-6.7 1.8-10l6.3-22.4h-9.3l1.2-4.4h9.2l3.5-12.5 8.1-0.9-3.7 13.6h13.9l-1.2 4.4zm30.3 34.7h11.2l13.6-55h-11.1l1.4-5.1h26.8c16.9 0 21.8 6.7 21.8 13.9 0 6.2-3.9 15.9-20.6 17.3v0.5c10.9 2.1 15.7 7.1 15.7 14.1 0 4.6-1.6 9-4.8 12.2-4.9 4.9-13.2 7.7-27.1 7.7h-28zm28 0c16.7 0 21.8-7.4 21.8-16 0-6.5-4.9-10.9-15.8-10.9h-7.9l-6.7 26.9zm8.4-31.7c11.8 0 18-7 18-14.8 0-5.3-3.2-8.8-12.7-8.8h-8.3l-5.8 23.6zm41.4 5.3c2.1-7.9 1.2-9.3-0.9-9.3-2.8 0-5.6 5.1-8.6 11.4l-3.5-1.6c4.2-9.3 8.4-14.8 13.9-14.8 4 0 6.3 3 6.3 8.3-0.3 3.9-1 7.9-2.3 11.8l0.7 0.2c6.2-12.9 11.1-20.6 17.1-20.6 3-0.2 5.5 2.3 5.8 5.3 0 0.3 0 0.5 0 0.5 0 3.9-2.6 7.2-5.6 7.2-3 0-4.6-2.1-4.2-5.8-4.1 1.9-12.7 14.3-19.2 38.9h-8.1zm43.8 24c-0.2 1.2 0.7 2.3 2.1 2.6h0.2c2.5 0 4.9-3.7 7.9-11.1l3.4 1.1c-4.1 12.5-8.8 16-13.4 16-4.6 0-7.6-3-7.6-8.6 0-9.5 8.8-22.4 8.8-30.3 0-1.4-0.5-2.8-1.9-2.8-3.2 0-6.2 5.1-9.2 11.4l-3.5-1.6c4.2-9.3 8.6-15.1 14.3-15.1 4.7 0 7.7 3.5 7.7 9.7-0.5 8.4-8.8 22-8.8 28.7zm7.4-46.7c-2.6 0-4.6-1.9-4.6-4.4 0-0.2 0-0.2 0-0.5 0-3.4 2.5-6.7 6.2-6.9 2.6 0 4.6 2.1 4.6 4.6v0.3c-0.2 3.7-2.7 6.4-6.2 6.9zm30.5 14.3l-6.4 23.9c-0.7 2.3-1.2 4.6-1.4 7.1-0.3 1.9 1.1 3.7 3 4q0.3 0 0.7 0c4.1 0 7.4-5.3 10.4-11.8l3.5 1.1c-5.4 14.2-11.8 16.9-16.2 16.9-6.3 0-9.3-3.7-9.3-8.8 0.2-3.2 0.9-6.7 1.9-9.9l6-22.5h-9.3l1.2-4.4h9.2l3.5-12.4 8.1-1-3.7 13.7h13.9l-1.2 4.4zm29.4 32.4c-0.2 1.1 0.7 2.3 2.1 2.5h0.2c2.6 0 4.9-3.7 7.9-11.1l3.5 1.2c-4.2 12.5-8.8 15.9-13.4 15.9-4.7 0-7.7-3-7.7-8.5 0-9.5 8.8-22.5 8.8-30.3 0-1.4-0.4-2.8-1.8-2.8-3.3 0-6.3 5.1-9.3 11.3l-3.5-1.6c4.2-9.3 8.6-15 14.4-15 4.6 0 7.6 3.4 7.6 9.7-0.2 8.3-8.8 22-8.8 28.7zm7.4-46.8c-2.5 0-4.6-1.8-4.6-4.4 0-0.2 0-0.2 0-0.4 0-3.5 2.6-6.7 6.3-7 2.5 0 4.6 2.1 4.6 4.7v0.2c0 3.7-2.8 6.5-6.3 6.9zm27.3 55.3c-7.6 0-16.6-3.7-16.6-10.6-0.2-3.3 2.1-6 5.5-6.5 2.4 0 4.4 1.9 4.4 4.2 0 0.2 0 0.2 0 0.4 0 2.1-0.9 4-2.5 5.4 2.5 2.3 6 3.4 9.5 3.2 5.8 0 9.7-3.2 9.7-8.3 0-3.7-2.5-5.6-9.5-8.8-5.1-2.3-10.6-5.1-10.6-11.6 0-9.5 8.5-14.3 16.9-14.3 8.3 0 15 3.7 15 9.4 0.2 3.1-1.8 5.8-4.9 6.1 0 0 0 0-0.2 0-2.3 0.2-4.2-1.7-4.4-4 0-0.2 0-0.2 0-0.4 0-1.9 0.9-3.7 2.6-4.9-2.4-1.6-5.1-2.5-8.1-2.5-5.6 0-9.5 3-9.5 7.8 0 3.7 2.7 5.8 9.2 8.6 6.5 2.8 11.1 5.5 11.1 12-0.4 9.7-8.5 14.8-17.6 14.8zm54-8.8c0-9.2 7.2-19.6 7.2-27.7 0-2.3-1-4.2-3.5-4.2-5.8 0-16.5 10.6-24.3 39.8h-8.1l16.9-63.6h-9.5l1.4-5.6h17.1l-12.3 43.8 0.7 0.2c6.5-13.4 14.4-20.8 21.1-20.8 4.9 0 8.3 3.9 8.3 10.1 0 8.6-7.6 21.6-7.6 28.5 0 1.2 0.4 2.5 2.1 2.5 2.3 0 4.8-4.1 7.6-11.1l3.5 1.2c-4.2 12.5-8.8 16-13.2 16-4.4 0-7.4-3.3-7.4-9.1zm52.8 2.6h11.3l13.9-55.6h-8.3c-7.5 0-9.1 2.8-16.3 18.1h-4.1l5.8-22.7h56.7l-5.8 22.7h-3.5c0.5-14.8 0-18.1-7.4-18.1h-8.3l-13.9 55.6h11.6l-1.2 5.3h-31.7zm92.1-10.9c-0.9 2.8-1.4 5.6-1.6 8.4 0 1.3 0.5 3 2.3 3 2.8 0 5.1-4.2 7.7-11.1l3.4 1.1c-4.1 12.5-8.5 16-13.2 16-3.9 0-6.9-2.6-6.9-8.1 0-0.9 0-1.6 0.2-2.6l-0.7-0.2c-4.1 6.9-9.2 11.1-14.8 11.1-6.9 0-12-6-12-15.3 0-9.2 3.4-18 9.9-24.7 3.7-4.2 8.8-6.7 14.4-7.2 4.8 0 8.3 3.3 9.2 8.8l2.4-8.1h7.6zm-4.2-15.3c0-4.6-1.8-9.9-6.9-9.9-9.3 0-16.7 15.9-16.7 26.6 0 6.5 2.6 9.9 7 9.9 8.8 0 16.6-17.3 16.6-26.6zm35.9 32.4c-7.6 0-16.7-3.7-16.7-10.6-0.2-3.3 2.1-6 5.4-6.3 2.3 0 4.4 1.9 4.4 4.2 0 0.2 0 0.2 0 0.5 0 2-1 3.9-2.6 5.3 2.6 2.3 6 3.5 9.5 3.2 5.8 0 9.7-3.2 9.7-8.3 0-3.7-2.5-5.6-9.5-8.8-5.1-2.3-10.6-5.1-10.6-11.6 0-9.5 8.5-14.3 16.9-14.3 8.3 0 15 3.7 15 9.5 0.3 3-1.8 5.8-4.8 6 0 0 0 0-0.3 0-2.3 0.2-4.1-1.6-4.4-3.9 0-0.3 0-0.3 0-0.5 0-1.9 1-3.7 2.6-4.9-2.3-1.6-5.1-2.5-8.1-2.5-5.6 0-9.5 3-9.5 7.9 0 3.7 2.8 5.7 9.3 8.5 6.4 2.8 11.1 5.6 11.1 12.1 0 9.4-8.4 14.5-17.4 14.5zm45.1-40.9l-6.4 23.8c-0.7 2.3-1.2 4.6-1.4 7.2-0.3 1.8 1.1 3.7 3 3.9q0.3 0 0.7 0c4.1 0 7.4-5.3 10.4-11.8l3.5 1.2c-5.4 14.1-11.8 16.9-16.2 16.9-6.3 0-9.3-3.7-9.3-8.8 0.2-3.3 0.9-6.7 1.8-10l6.3-22.4h-9.3l1.2-4.4h9.3l3.4-12.5 8.1-0.9-3.7 13.6h13.9l-1.1 4.4zm25 21.5c-0.3 0.9-0.3 1.9-0.3 3 0 8.1 4 11.8 9.5 11.8 5.6 0 10.4-3.7 14.8-10.1l3 2c-4.8 7.4-10.8 13-20.1 13-9.3 0-15.5-6.5-15.5-16.9 0-15.5 14.1-30.1 27.3-30.1 7.2 0 11.1 4 11.1 9.3 0.5 8.5-9 15.7-29.8 18zm0.6-3.7c17.2-2.3 22.5-8.1 22.5-14.3 0.2-2.8-1.9-5.3-4.6-5.6q-0.4 0-0.7 0c-8.1 0-14.8 10.7-17.2 19.9zm353.5-255.4c-3.5 0-6 3.9-10.9 13.6l-4.4-2.1c6-13.4 11.4-19.4 18.3-19.4 5.6 0 8.3 4.2 8.3 10.2 0 1.1 0 2.3-0.2 3.5l0.9 0.4c5.6-9.2 12.5-14.6 19.7-14.6 9.5 0 16 7.9 16 20.2 0 21.3-15.3 40.5-30.6 40.5-6.2 0.2-11.8-3.5-13.9-9.3l-6 22h13.2l-1.8 6.9h-32.9l1.8-6.9h9.8l14.3-53.9c1.9-7.7 1.4-11.1-1.6-11.1zm5.6 34.2c0 6.5 3.2 12.3 10.4 12.3 12.5 0 20.8-21.5 20.8-34.7 0-8.4-3.2-12.5-8.6-12.5-11.8 0-22.6 22.7-22.6 34.9zm51.8-8.5l15.5-56.7h-12.5l1.9-7.2h22.4l-18.7 69.2c-1.2 3.5-1.9 7.2-2.1 10.9 0 2 0.7 3.9 3 3.9 3.9 0 6.7-5.6 10.2-14.6l4.4 1.4c-5.6 16.4-11.1 21.1-17.4 21.1-6.2 0-10.2-4.2-10.2-11.4 0.7-5.5 1.9-11.3 3.5-16.6zm78.9-20.6c0 4.4-2.5 9.2-7.1 9.2-3.3 0.3-5.8-2.3-6.1-5.5 0-0.3 0-0.3 0-0.5 0.3-3.2 1.9-6.2 4.4-8.1-2-2.1-5.1-3.2-8.1-3.2-14.3 0-22.9 20.6-22.9 32.8 0 11.6 5.8 16.9 12.8 16.9 6 0 12-3.7 17.5-13.9l4.2 2.6c-5.5 10.4-12.7 18-23.8 18-13 0-21.3-9.7-21.3-23.6 0-18.7 15.9-37.9 33.8-37.9 9.5 0 16.6 5.5 16.6 13.2z"/>
</svg>