<svg version="1.2" xmlns="http://www.w3.org/2000/svg" viewBox="0 0 1545 424" width="1545" height="424">
	<title>header-logo (1)-svg</title>
	<style>
		.s0 { fill: #3f7f7d } 
		.s1 { fill: #94d4e3 } 
		.s2 { fill: #55b8b3 } 
	</style>
	<path id="Layer" fill-rule="evenodd" class="s0" d="m599.1 147.5c72.5-0.2 71.2-0.4 71.2 9 0 9.6 2.7 9.3-69.7 9.3h-65.3l-4.9 3.2c-8.2 5.6-8.5 6.8-8.1 43.9l0.4 33.7 4.7 4.6 4.6 4.7 66.6 0.4c59.1 0.3 66.9 0.6 69.2 2.7 3.2 2.9 3.3 10 0.2 13.4-2.2 2.5-6.3 2.6-69.5 2.6-64.5 0-67.5-0.2-73.6-2.9-8-3.6-13.6-8.8-17.6-16.2-3-5.5-3.1-7.5-3.1-44.8v-39.2l4.3-6.9c4.8-7.7 13.5-14.5 20.8-16.3 2.7-0.6 34-1.1 69.8-1.2zm147.3 14.4l40.7 37.1c13.6 12.4 25.3 24.1 26 26 0.7 1.9 1.3 13 1.3 24.8 0 18-0.4 21.9-2.4 24-3.1 3.5-9.7 3.3-13.3-0.2-2.6-2.6-2.8-4.7-2.8-21.9v-19l-33.9-30.8c-18.6-17-36.3-33.3-39.2-36.3-6.1-6.1-6.9-11.1-2.5-15.4 5.4-5.5 9-3.8 26.1 11.7zm144.4-11.1c6.6 6.6 5.9 7.6-27.6 38.1-22.8 20.9-28.1 25.1-31.7 25.1-6.9 0-11.4-5.9-9.1-11.9 0.7-2 43.5-41.9 54.5-50.9 5.9-4.8 9.3-4.9 13.9-0.4zm362.6-3.4c43 0 65.6 0.4 67.5 1.4 5.8 3.1 6.2 12.2 0.7 15.9-0.9 0.6-30.5 1-65.8 1.1-71.8 0-71.6-0.1-76.7 9.9-2.2 4.4-2.5 8.7-2.1 37.9l0.4 33 4.6 4.6 4.7 4.7h120.5l0.7-21c0.8-22.5 1.2-23.7 8.6-23.7 8.7 0 9.9 4 9.9 32.3 0 22.2-0.2 24.3-2.9 27.8l-3 3.7h-67.3c-64.6 0-67.5-0.2-73.7-2.9-7.9-3.6-13.6-8.8-17.6-16.2-2.9-5.3-3.1-8-3.5-40.9-0.4-29.1-0.1-36.5 1.9-43 2.9-10.2 11.8-19.4 21.6-22.4 5.6-1.7 18.6-2.1 71.5-2.2zm132.3-0.1c2 0 29.7 19.5 71 49.7 37.3 27.3 68.1 49.6 68.6 49.6 0.4 0 0.8-21.3 0.8-47.4 0-47.4 0-47.5 3.2-49.7 4.5-3.1 7.8-2.7 11.9 1.3l3.5 3.6-0.4 58.3c-0.3 55.8-0.5 58.4-3.1 60.3-1.6 1.1-4.5 2-6.5 2-2.6 0-23.4-14.5-71.4-49.6l-67.7-49.6-0.4 47c-0.3 41.3-0.6 47.4-2.7 49.6-3.1 3.4-9.7 3.3-13.3-0.2-2.8-2.8-2.8-4.8-2.8-60.6 0-57.3 0-57.7 3.1-61 1.7-1.8 4.5-3.3 6.2-3.3zm-365.5 50.4c36.7 26.9 67.3 48.9 68.1 48.9 0.8 0 1.5-18.6 1.7-47.8l0.4-47.9 3.9-1.3q0.9-0.4 1.9-0.5 1-0.2 2-0.2 1 0 2 0.2 1 0.1 1.9 0.5l4 1.3 0.3 60.5c0.4 53.4 0.2 60.6-1.8 62.2-5.8 4.8-8.4 3.2-76.8-47-36.6-26.8-67.2-49-67.9-49.2-0.9-0.4-1.5 16-1.5 46.1 0 25.6-0.5 47.3-1 48.1-1.3 1.9-6.7 4.8-8.9 4.8-0.9 0-3.2-1.5-5.1-3.5l-3.5-3.4v-57.2c0-49.5 0.3-57.7 2.2-60.4 5.2-7.4 6.8-6.5 78.1 45.8z"/>
	<path id="Layer" fill-rule="evenodd" class="s1" d="m100.2 107.6h83.8v48.2c0 26.5-0.3 48.2-0.6 48.2-1 0-164-93.7-165.5-95.1-0.8-0.8 32.5-1.3 82.3-1.3zm96.6 48.4c0 38.1 0.4 48.2 1.8 47.6 3.2-1.3 162.9-93.3 164.3-94.7 0.8-0.8-29.8-1.3-82.4-1.3h-83.7z"/>
	<path id="Layer" fill-rule="evenodd" class="s2" d="m14.3 120.5q10.5 6.1 20.9 12.1 10.5 6 20.9 12.1 10.5 6 21 12 10.4 6 20.9 12c44.1 25.3 79.8 46.4 79.2 47-0.6 0.6-19.5 11.6-42 24.4l-41 23.5-5.6-9.5c-33.1-56.9-76.1-131.4-76.8-133.3-0.9-2.3-0.7-2.3 2.5-0.3zm355.6-1.4c0.7-0.1 0.3 1.3-0.8 3.1-1.2 1.7-19.6 33.5-41 70.6-21.5 37-39.7 68.1-40.6 69-1.1 1.2-11.6-4.2-40.4-20.8-21.3-12.3-40.1-23.2-41.7-24.3-2.6-1.8 3.5-5.6 80.2-49.7 45.7-26.3 83.7-47.9 84.3-47.9zm520.9 31.7c6.6 6.6 5.9 7.6-27.5 38.2-22.9 20.8-28.2 25-31.8 25-6.9 0-11.4-5.9-9.1-11.8 0.8-2 43.5-41.9 54.5-51 5.9-4.8 9.4-4.8 13.9-0.4zm-707.5 75.2l0.4 47.1c0.2 25.9 0.2 68.9 0 95.5l-0.4 48.4-41-70.6c-22.6-38.9-41.2-71.2-41.4-71.9-0.2-0.8 18.3-12 41-25 0 0 41.4-23.5 41.4-23.5zm13.5-0.7l6.1 3.5q5.2 3 10.4 6 5.2 3 10.4 6 5.3 3 10.5 6 5.2 3 10.4 6.1c19.6 11.3 35.6 21.1 35.4 21.7-0.3 1.6-80.3 139.8-81.9 141.6-0.7 0.7-1.3-40.1-1.3-94.8z"/>
	<path id="Layer" fill-rule="evenodd" class="s0" d="m183.3 0l0.4 47.6c0.2 26.2 0.1 47.9-0.2 48.2-0.3 0.3-37.8 0.3-83.5 0.1l-83-0.4 83.1-47.7zm13.6 47.9v48.3h83.7c46 0 83.1-0.5 82.4-1.2-1-0.8-156.1-90-165.1-94.8-0.6-0.4-1 21.1-1 47.7zm-196.9 173.5v95.9l41.8-23.9c22.9-13.1 41.5-24.5 41.4-25.2-0.4-1.7-80.3-139.6-81.9-141.4-0.7-0.8-1.3 39.9-1.3 94.6zm339.1-24.8c-22.5 38.8-41 71.2-41.1 71.9-0.1 0.8 18.3 12 41 25l41.1 23.7 0.4-48.2c0.2-26.4 0.2-69.5 0-95.6l-0.4-47.5zm-290.4 106.1c-22.2 12.7-41 23.7-41.7 24.4-0.7 0.7 35.4 22.2 82.3 49.2 46 26.4 83.7 47.7 84 47.5 0.4-0.5-81.3-141.6-83-143.2-0.6-0.6-19.3 9.4-41.6 22.1zm238.9-17.4c-40.8 69.9-80.3 138.7-79.7 138.7 2.4 0 167.1-95.8 166.2-96.6-0.6-0.6-17.5-10.4-37.5-21.9q-5.1-2.9-10.2-5.8-5.1-3-10.2-5.9-5.2-3-10.3-5.9-5.1-3-10.2-6l-4.5-2.7c0 0-3.6 6.1-3.6 6.1z"/>
</svg>