<svg version="1.2" baseProfile="tiny-ps" xmlns="http://www.w3.org/2000/svg" viewBox="0 0 1659 553" width="1659" height="553">
	<title>Cryoport_Immunotherapy_Case_Study-pdf-svg</title>
	<defs>
		<clipPath clipPathUnits="userSpaceOnUse" id="cp1">
			<path d="M-456.73 -406.82L7307.73 -406.82L7307.73 9637.18L-456.73 9637.18L-456.73 -406.82Z" />
		</clipPath>
	</defs>
	<style>
		tspan { white-space:pre }
		.shp0 { fill: #ffffff } 
		.shp1 { fill: #85cdef } 
		.shp2 { fill: #29b2e7 } 
		.shp3 { fill: #00a3d7 } 
		.shp4 { fill: #1a96d4 } 
	</style>
	<g id="Clip-Path: Page 1" clip-path="url(#cp1)">
		<g id="Page 1">
			<path id="Path 11" fill-rule="evenodd" class="shp0" d="M1129.84 144.14C1191.88 144.14 1240.54 192.84 1240.54 254.86C1240.54 317.25 1191.57 366.27 1129.08 366.27C1067.11 366.27 1018.7 317.44 1018.7 255.55C1018.7 193.29 1067.42 144.14 1129.84 144.14ZM1129.84 322.07C1167.21 322.07 1192.58 291.95 1192.58 255.55C1192.58 219.41 1166.32 187.96 1129.08 187.96C1090.96 187.96 1066.66 218.01 1066.66 254.86C1066.66 290.81 1092.8 322.07 1129.84 322.07ZM667.02 144.14C729.06 144.14 777.78 192.84 777.78 254.86C777.78 317.25 728.74 366.27 666.26 366.27C604.28 366.27 555.95 317.44 555.95 255.55C555.95 193.29 604.6 144.14 667.02 144.14ZM667.02 322.07C704.32 322.07 729.76 291.95 729.76 255.55C729.76 219.41 703.5 187.96 666.26 187.96C628.2 187.96 603.9 218.01 603.9 254.86C603.9 290.81 629.97 322.07 667.02 322.07ZM1302.32 182.82C1323.89 157.52 1348.69 147.82 1380.6 149.47L1380.6 193.86C1328.84 191.83 1302.32 221.95 1302.32 274.96L1302.32 360.56L1255.32 360.56L1255.32 148.77L1302.32 148.77L1302.32 182.82ZM1441.75 191.64L1441.75 297.15C1441.75 313.83 1448.6 320.55 1465.29 320.55C1474.42 320.55 1481.97 318.33 1490.28 314.59L1503.6 308.63L1503.6 353.46L1498.02 355.93C1485.27 361.57 1472.71 365.12 1458.63 365.12C1418.16 365.12 1394.75 341.28 1394.75 300.89L1394.75 91.13L1441.75 91.13L1441.75 148.84L1503.6 148.84L1503.6 191.64L1441.75 191.64ZM443.09 352.19L350.16 148.77L402.31 148.77L466.88 296.77L523.91 148.77L574.6 148.77L487.5 362.71C473.48 397.21 450.2 427.39 409.98 427.39C398.69 427.39 388.29 425.87 377.57 422.13L374.27 420.99L374.27 373.18L382.45 377.43C391.39 382.12 398.82 383.58 408.84 383.58C425.78 383.58 436.81 366.08 443.09 352.19Z" />
			<path id="Path 12" fill-rule="evenodd" class="shp0" d="M838.04 430.63L791.04 430.63L791.04 148.77L838.04 148.77L838.04 170.39C854.92 152.89 877.56 144.14 902.75 144.14C928.69 144.14 953.81 154.67 972.4 172.68C994.79 194.43 1004.56 224.04 1004.56 254.86C1004.56 285.67 994.85 315.35 972.52 337.29C954.06 355.42 928.94 365.88 903 365.88C877.94 365.88 855.49 358.09 838.04 339.95L838.04 430.63ZM896.4 321.69C934.4 321.69 956.09 291.32 956.09 255.24C956.09 219.66 933.89 188.34 896.4 188.34C861.83 188.34 838.49 213.77 838.1 254.28C838.49 290.87 858.97 321.69 896.4 321.69ZM163.79 295.88L170.01 289.22L201.6 318.9L195.7 325.49C171.91 351.94 145.58 366.27 109.24 366.27C47.39 366.27 0 317 0 255.55C0 194.11 47.13 144.14 109.24 144.14C144.31 144.14 170.32 156.63 194.05 181.75L199.88 187.96L168.17 221.57L161.57 214.65C146.6 198.93 131.5 187.96 108.79 187.96C72.38 187.96 47.96 219.98 47.96 254.86C47.96 290.62 73.78 322.07 110.69 322.07C132.26 322.07 149.39 311.35 163.79 295.88ZM259.2 182.82C280.76 157.52 305.69 147.82 337.47 149.47L337.47 193.86C285.71 191.83 259.2 221.95 259.2 274.96L259.2 360.56L212.19 360.56L212.19 148.77L259.2 148.77L259.2 182.82Z" />
			<path id="Path 13" fill-rule="evenodd" class="shp1" d="M1584.8 0.65C1625.27 0.65 1658.07 33.43 1658.07 73.89C1658.07 114.28 1625.27 147.12 1584.8 147.12C1544.33 147.12 1511.53 114.28 1511.53 73.89C1511.53 33.43 1544.33 0.65 1584.8 0.65ZM1596.85 11.87C1592.6 11.87 1588.42 12.38 1584.42 13.27C1580.42 12.38 1576.3 11.87 1572.05 11.87C1540.65 11.87 1515.08 37.43 1515.08 68.88C1515.08 84.6 1521.49 98.81 1531.7 109.08C1540.33 129.81 1560.69 144.4 1584.42 144.4C1608.21 144.4 1628.63 129.81 1637.13 109.08C1647.41 98.81 1653.82 84.6 1653.82 68.88C1653.82 37.43 1628.32 11.87 1596.85 11.87Z" />
			<path id="Path 14" fill-rule="evenodd" class="shp2" d="M1637.13 109.14C1628.63 129.81 1608.21 144.4 1584.42 144.4C1560.69 144.4 1540.33 129.81 1531.7 109.14C1542.11 119.41 1556.32 125.82 1572.05 125.82C1576.3 125.82 1580.42 125.37 1584.42 124.49C1588.42 125.37 1592.67 125.82 1596.85 125.82C1612.58 125.82 1626.79 119.41 1637.13 109.14ZM1595.39 125.82L1594 125.75C1594.44 125.82 1594.95 125.82 1595.39 125.82ZM1653.82 68.88C1653.82 84.6 1647.41 98.81 1637.13 109.14C1639.92 102.42 1641.38 95.13 1641.38 87.46C1641.38 71.73 1635.04 57.53 1624.76 47.19C1617.79 30.2 1602.75 17.33 1584.42 13.27C1588.42 12.38 1592.67 11.87 1596.85 11.87C1628.32 11.87 1653.82 37.43 1653.82 68.88ZM1574.84 125.75L1573.57 125.82C1573.95 125.82 1574.4 125.82 1574.84 125.75ZM1584.42 13.27C1566.21 17.33 1551.12 30.2 1544.14 47.19C1533.86 57.53 1527.45 71.73 1527.45 87.46C1527.45 95.13 1529.04 102.42 1531.7 109.14C1521.49 98.81 1515.08 84.6 1515.08 68.88C1515.08 37.43 1540.65 11.87 1572.05 11.87C1576.3 11.87 1580.42 12.38 1584.42 13.27ZM1590.89 125.5C1590.51 125.5 1590.13 125.44 1589.81 125.37C1590.13 125.44 1590.51 125.5 1590.89 125.5ZM1592.35 125.63C1591.97 125.63 1591.52 125.63 1591.14 125.5C1591.52 125.63 1591.97 125.63 1592.35 125.63ZM1593.81 125.75C1593.43 125.75 1592.98 125.69 1592.54 125.63C1592.98 125.69 1593.43 125.75 1593.81 125.75ZM1596.85 125.82C1596.34 125.82 1595.9 125.82 1595.39 125.82C1595.9 125.82 1596.34 125.82 1596.85 125.82ZM1573.51 125.82C1573 125.82 1572.56 125.82 1572.05 125.82C1572.56 125.82 1573 125.82 1573.51 125.82ZM1576.36 125.63C1575.92 125.69 1575.47 125.75 1575.03 125.75C1575.47 125.75 1575.92 125.69 1576.36 125.63ZM1577.76 125.5C1577.38 125.63 1577 125.63 1576.55 125.63C1577 125.63 1577.38 125.63 1577.76 125.5ZM1579.15 125.37C1578.77 125.44 1578.39 125.5 1578.08 125.5C1578.39 125.5 1578.77 125.44 1579.15 125.37ZM1580.42 125.18C1580.17 125.25 1579.85 125.31 1579.6 125.37C1579.85 125.31 1580.17 125.25 1580.42 125.18ZM1584.42 124.49L1584.29 124.55L1584.42 124.49ZM1584.61 124.55L1584.42 124.49L1584.61 124.55Z" />
			<path id="Path 15" fill-rule="evenodd" class="shp3" d="M1624.76 47.19L1624.38 46.68L1624.26 46.68L1623.81 46.24L1623.3 45.8L1622.8 45.29L1622.73 45.29L1622.35 44.84L1622.23 44.84L1621.78 44.4L1621.27 43.96L1620.7 43.51L1620.2 43.07L1619.69 42.69L1619.12 42.25L1618.61 41.8L1617.47 41.04L1617.47 40.98L1616.9 40.66L1616.9 40.6L1616.39 40.22L1616.33 40.22L1614.61 39.07L1614.55 39.07C1614.17 38.82 1613.79 38.63 1613.41 38.38L1612.84 38.06L1612.27 37.68L1611 37.05L1610.43 36.73L1609.16 36.09L1608.59 35.84L1607.89 35.52L1607.26 35.21L1606.68 34.95L1605.99 34.7L1605.35 34.45L1604.78 34.19L1604.72 34.19L1604.08 33.94L1603.39 33.68L1602.12 33.3L1601.42 33.05L1600.72 32.86L1600.09 32.67L1597.99 32.1L1597.36 31.97L1596.6 31.78L1595.96 31.66L1594.57 31.4L1593.81 31.28L1593.17 31.15L1592.41 31.02L1591.78 30.96L1591.02 30.89L1590.32 30.77L1589.56 30.7L1588.92 30.64L1588.1 30.64L1587.34 30.51C1586.89 30.51 1581.94 30.51 1581.5 30.51L1581.44 30.58C1580.99 30.64 1580.55 30.64 1580.11 30.64C1579.6 30.64 1579.15 30.7 1578.65 30.77L1578.58 30.77C1578.2 30.83 1577.69 30.89 1577.19 30.96L1577.12 30.96C1576.74 30.96 1576.24 31.08 1575.79 31.15C1575.35 31.21 1574.84 31.28 1574.4 31.4L1574.33 31.4C1573.89 31.47 1573.51 31.53 1573.06 31.66L1572.81 31.66C1572.43 31.78 1572.05 31.85 1571.67 31.97L1571.54 31.97C1571.16 32.04 1570.65 32.16 1570.21 32.29C1569.83 32.42 1569.38 32.48 1569 32.61L1568.75 32.67C1568.37 32.8 1567.93 32.92 1567.61 33.05L1567.48 33.05C1567.04 33.18 1566.66 33.3 1566.28 33.43L1566.21 33.49L1566.15 33.49C1565.71 33.62 1565.39 33.75 1565.01 33.88L1564.82 33.94L1564.75 34C1564.44 34.13 1563.93 34.32 1563.55 34.45C1563.17 34.57 1562.79 34.76 1562.41 34.89L1562.15 35.02C1561.84 35.14 1561.46 35.33 1561.14 35.46L1561.01 35.52L1560.95 35.59C1560.57 35.71 1560.19 35.9 1559.93 36.09L1559.74 36.09L1559.68 36.16C1559.3 36.35 1558.98 36.47 1558.66 36.6L1558.35 36.79C1558.03 36.98 1557.84 37.11 1557.52 37.24L1557.08 37.49L1556.32 37.87L1555.94 38.12C1555.62 38.31 1555.37 38.44 1555.11 38.63L1554.73 38.82C1554.48 38.95 1554.22 39.2 1553.91 39.39L1553.59 39.58C1553.34 39.71 1553.08 39.9 1552.83 40.09L1552.38 40.34L1551.62 40.85L1551.37 41.1L1550.48 41.67L1550.23 41.93L1549.47 42.5L1549.15 42.75C1548.9 43.01 1548.64 43.2 1548.32 43.39L1548.2 43.51L1548.2 43.58C1547.88 43.77 1547.56 43.96 1547.37 44.27L1546.99 44.53C1546.8 44.65 1546.48 44.91 1546.29 45.16L1546.04 45.42L1545.28 46.05L1544.96 46.37C1544.71 46.62 1544.58 46.81 1544.26 47.06L1544.14 47.13C1551.18 30.13 1566.21 17.33 1584.42 13.27C1602.82 17.33 1617.79 30.2 1624.76 47.19ZM1584.42 124.49C1580.42 125.37 1576.3 125.82 1572.05 125.82C1556.32 125.82 1542.11 119.41 1531.7 109.14C1529.04 102.42 1527.45 95.13 1527.45 87.46C1527.45 71.79 1533.8 57.65 1544.01 47.38C1541.35 54.04 1539.89 61.27 1539.89 68.88C1539.89 96.02 1558.92 118.78 1584.42 124.49ZM1637.13 109.14C1626.79 119.41 1612.58 125.82 1596.85 125.82C1592.67 125.82 1588.42 125.37 1584.42 124.49C1584.8 124.42 1585.18 124.3 1585.56 124.23L1585.75 124.17C1586.13 124.04 1586.45 123.98 1586.77 123.92L1586.89 123.92C1588.73 123.41 1590.64 122.77 1592.48 122.08L1592.67 122.01C1592.92 121.89 1593.24 121.76 1593.55 121.63L1593.81 121.57C1594.06 121.38 1594.38 121.25 1594.76 121.13L1594.89 121.06C1595.27 120.94 1595.52 120.75 1595.9 120.62L1595.96 120.56C1597.74 119.79 1599.39 118.91 1601.1 117.89L1601.23 117.83C1601.48 117.57 1601.8 117.45 1602.12 117.26L1602.31 117.19C1602.56 117 1602.82 116.81 1603.07 116.62L1603.32 116.5C1604.91 115.48 1606.37 114.34 1607.83 113.14L1608.02 113.07L1608.71 112.44L1609.03 112.19C1609.22 112 1609.48 111.87 1609.73 111.61L1609.92 111.42C1610.11 111.23 1610.43 111.04 1610.55 110.85L1610.81 110.6C1611.82 109.65 1612.84 108.7 1613.79 107.62L1614.04 107.37L1614.55 106.8L1614.93 106.42L1615.38 105.84L1615.76 105.4L1616.26 104.89L1616.52 104.51L1617.02 103.88L1617.09 103.75C1617.34 103.43 1617.53 103.18 1617.79 102.86C1618.04 102.55 1618.29 102.23 1618.42 101.91L1618.48 101.91L1618.93 101.28L1619.18 100.9C1619.31 100.64 1619.5 100.52 1619.69 100.26L1619.88 99.82L1620.26 99.19L1620.51 98.74L1620.96 98.17L1621.59 97.03L1621.91 96.52L1622.23 95.89C1622.42 95.51 1622.61 95.19 1622.8 94.81L1623.05 94.37L1623.43 93.67L1623.56 93.29C1623.69 92.97 1623.81 92.72 1623.94 92.47L1624.13 91.96L1624.51 91.32L1624.64 90.82C1624.76 90.56 1624.83 90.31 1624.95 90.06L1625.14 89.61L1625.46 88.79L1625.65 88.34L1625.91 87.46L1626.03 87.14L1626.1 87.08C1626.16 86.69 1626.29 86.31 1626.41 85.93L1626.48 85.87L1626.6 85.3L1626.79 84.67L1627.24 83.33L1627.36 82.83L1627.49 82L1627.81 80.73L1627.87 80.16C1628 79.91 1628 79.66 1628.06 79.4L1628.19 78.9C1628.25 78.45 1628.32 78.01 1628.38 77.56L1628.38 77.31C1628.51 76.93 1628.51 76.61 1628.63 76.23L1628.63 75.72L1628.76 74.9L1628.76 74.39L1628.89 73.51L1628.89 73L1628.95 72.17L1628.95 70.27C1629.01 69.83 1629.01 69.32 1629.01 68.88L1629.01 68.18L1628.95 67.8L1628.95 65.33L1628.89 64.95L1628.89 64.25L1628.82 63.87L1628.76 63.55L1628.76 62.85L1628.63 62.47L1628.63 61.77C1628.63 61.46 1628.51 61.08 1628.51 60.76C1627.81 56 1626.54 51.5 1624.76 47.19C1635.1 57.46 1641.45 71.73 1641.45 87.46C1641.45 95.13 1639.92 102.42 1637.13 109.14ZM1544.14 47.13L1544.14 47.19L1544.14 47.19L1544.14 47.19C1544.14 47.19 1544.14 47.19 1544.14 47.13ZM1617.09 103.75C1617.34 103.43 1617.53 103.18 1617.79 102.86L1617.09 103.75Z" />
			<path id="Path 16" fill-rule="evenodd" class="shp4" d="M1584.42 124.55C1558.92 118.91 1539.76 96.08 1539.76 68.88C1539.76 61.14 1541.28 53.85 1544.01 47.13C1554.41 36.79 1568.62 30.39 1584.42 30.39C1600.21 30.39 1614.55 36.79 1624.89 47.13C1626.6 51.44 1627.87 56 1628.51 60.7C1628.63 61.08 1628.63 61.39 1628.63 61.71L1628.76 62.47L1628.82 62.79L1628.89 63.17L1628.89 63.87L1628.95 64.18L1628.95 65.26L1629.01 65.58L1629.01 65.96L1629.08 66.34L1629.08 67.04L1629.14 67.42L1629.14 70.21L1629.08 70.72L1629.01 71.54L1628.95 72.17L1628.95 73.51L1628.89 74.39L1628.7 75.72L1628.63 76.23C1628.63 76.61 1628.51 76.93 1628.51 77.31L1628.44 77.56C1628.38 78.01 1628.32 78.45 1628.25 78.83L1628.13 79.34C1628.13 79.66 1628.06 79.91 1628 80.16L1627.87 80.73L1627.75 81.5L1627.62 82.07L1627.3 83.33L1627.05 84.09L1626.92 84.67L1626.67 85.3L1626.54 85.93C1626.35 86.31 1626.29 86.76 1626.1 87.14L1625.97 87.52L1625.72 88.34L1625.52 88.79L1625.27 89.61L1625.08 90.06C1624.95 90.31 1624.89 90.56 1624.76 90.82L1624.51 91.26L1624.19 92.02L1624 92.47C1623.88 92.78 1623.75 93.04 1623.69 93.29L1623.11 94.43L1622.86 94.87C1622.67 95.19 1622.48 95.57 1622.35 95.89L1621.97 96.52L1621.34 97.66L1620.96 98.17L1620.64 98.74L1620.39 99.25L1619.94 99.88L1619.69 100.33C1619.56 100.52 1619.37 100.71 1619.24 100.96L1618.99 101.28L1618.55 101.98C1618.36 102.23 1618.04 102.61 1617.79 102.93L1617.79 102.99L1617.72 102.99L1617.72 103.12L1617.66 103.12L1617.66 103.18L1617.6 103.18L1617.6 103.24L1617.53 103.24L1617.53 103.37L1617.47 103.37L1617.47 103.43L1617.41 103.43L1617.41 103.5L1617.34 103.5L1617.34 103.63L1617.28 103.63L1617.28 103.69L1617.21 103.75L1617.15 103.75L1617.09 103.88L1616.58 104.58L1616.26 104.89L1615.82 105.46L1615.44 105.91L1614.93 106.48L1614.61 106.86L1614.11 107.37L1613.85 107.68C1612.9 108.7 1611.89 109.71 1610.87 110.66L1610.62 110.92C1610.43 111.04 1610.17 111.3 1609.92 111.49L1609.73 111.68C1609.48 111.87 1609.29 112.12 1609.03 112.31L1608.78 112.5L1608.02 113.14L1607.89 113.2C1606.43 114.4 1604.91 115.55 1603.32 116.56L1603.2 116.69C1602.88 116.88 1602.56 117.07 1602.31 117.26L1602.18 117.32C1601.93 117.51 1601.55 117.7 1601.29 117.89L1601.1 117.96C1599.39 118.91 1597.68 119.86 1595.96 120.62L1595.9 120.75C1595.52 120.87 1595.27 121 1594.95 121.13L1594.76 121.25C1594.38 121.38 1594.12 121.51 1593.74 121.63L1593.55 121.7C1593.3 121.82 1592.98 121.95 1592.67 122.08L1592.48 122.14C1590.7 122.84 1588.8 123.47 1586.89 123.98L1586.83 123.98C1586.45 124.04 1586.13 124.17 1585.75 124.23L1585.56 124.3C1585.18 124.36 1584.8 124.49 1584.42 124.55ZM1583.78 37.81C1570.72 37.81 1558.98 43.2 1550.42 51.88C1548.13 57.46 1546.87 63.68 1546.87 70.15C1546.87 92.97 1562.72 112.12 1583.78 116.88C1604.97 112.12 1620.77 92.97 1620.77 70.15C1620.77 63.68 1619.5 57.46 1617.21 51.88C1608.71 43.2 1596.85 37.81 1583.78 37.81Z" />
			<path id="Path 17" fill-rule="evenodd" class="shp0" d="M322.38 545.14L327.9 537.41C331.26 540.96 336.46 543.87 342.99 543.87C348.58 543.87 351.3 541.27 351.3 538.61C351.3 535.06 346.86 534.11 341.66 532.78C333.86 531 323.9 528.85 323.9 518.07C323.9 510.14 330.75 503.55 341.92 503.55C349.53 503.55 355.81 505.83 360.5 510.2L354.86 517.62C350.99 514.07 345.85 512.42 341.03 512.42C336.65 512.42 334.24 514.33 334.24 517.18C334.24 520.22 338.62 521.24 343.75 522.44C351.56 524.28 361.58 526.69 361.58 537.41C361.58 546.16 355.36 552.69 342.49 552.69C333.35 552.69 326.82 549.64 322.38 545.14ZM369 528.09C369 513.44 380.04 503.48 394.31 503.48C404.84 503.48 410.87 509.19 414.23 515.09L405.54 519.4C403.57 515.53 399.26 512.49 394.31 512.49C385.69 512.49 379.41 519.08 379.41 528.09C379.41 537.09 385.69 543.68 394.31 543.68C399.26 543.68 403.57 540.7 405.54 536.77L414.23 541.02C410.81 546.92 404.84 552.69 394.31 552.69C380.04 552.69 369 542.73 369 528.09ZM423.18 504.24L433.33 504.24L433.33 551.86L423.18 551.86L423.18 504.24ZM445.63 551.86L445.63 504.24L479.32 504.24L479.32 513.18L455.72 513.18L455.72 523.27L478.81 523.27L478.81 532.14L455.72 532.14L455.72 542.92L479.32 542.92L479.32 551.86L445.63 551.86ZM522.9 551.86L500.25 520.79L500.25 551.86L490.1 551.86L490.1 504.24L500.5 504.24L522.58 534.17L522.58 504.24L532.66 504.24L532.66 551.86L522.9 551.86ZM542.69 528.09C542.69 513.44 553.79 503.48 568.06 503.48C578.53 503.48 584.62 509.19 587.92 515.09L579.23 519.4C577.26 515.53 572.95 512.49 568.06 512.49C559.43 512.49 553.15 519.08 553.15 528.09C553.15 537.09 559.43 543.68 568.06 543.68C572.95 543.68 577.26 540.7 579.23 536.77L587.92 541.02C584.49 546.92 578.53 552.69 568.06 552.69C553.79 552.69 542.69 542.73 542.69 528.09ZM596.92 551.86L596.92 504.24L630.55 504.24L630.55 513.18L607.01 513.18L607.01 523.27L630.1 523.27L630.1 532.14L607.01 532.14L607.01 542.92L630.55 542.92L630.55 551.86L596.92 551.86ZM640 546.85C640 543.68 642.66 541.08 645.77 541.08C648.94 541.08 651.54 543.68 651.54 546.85C651.54 549.96 648.94 552.62 645.77 552.62C642.66 552.62 640 549.96 640 546.85ZM683.64 551.86L683.64 504.24L693.79 504.24L693.79 542.92L713.9 542.92L713.9 551.86L683.64 551.86ZM719.61 528.09C719.61 513.75 730.14 503.48 744.47 503.48C758.87 503.48 769.34 513.75 769.34 528.09C769.34 542.42 758.87 552.69 744.47 552.69C730.14 552.69 719.61 542.42 719.61 528.09ZM758.94 528.09C758.94 519.14 753.23 512.49 744.47 512.49C735.66 512.49 730.01 519.14 730.01 528.09C730.01 536.9 735.66 543.68 744.47 543.68C753.23 543.68 758.94 536.9 758.94 528.09ZM777.08 528.09C777.08 513.06 788.5 503.48 802.39 503.48C812.35 503.48 818.57 508.49 822.12 514.14L813.68 518.7C811.53 515.34 807.47 512.49 802.39 512.49C793.76 512.49 787.48 519.08 787.48 528.09C787.48 537.09 793.76 543.68 802.39 543.68C806.64 543.68 810.64 541.85 812.54 540.07L812.54 534.36L799.98 534.36L799.98 525.55L822.69 525.55L822.69 543.75C817.81 549.2 811.08 552.75 802.39 552.75C788.5 552.75 777.08 543.05 777.08 528.09ZM833.6 504.24L843.75 504.24L843.75 551.86L833.6 551.86L833.6 504.24ZM852.82 545.14L858.34 537.41C861.7 540.96 866.9 543.87 873.44 543.87C879.02 543.87 881.75 541.27 881.75 538.61C881.75 535.06 877.31 534.11 872.11 532.78C864.3 531 854.34 528.85 854.34 518.07C854.34 510.14 861.2 503.55 872.36 503.55C879.91 503.55 886.25 505.83 890.95 510.2L885.3 517.62C881.43 514.07 876.29 512.42 871.47 512.42C867.09 512.42 864.68 514.33 864.68 517.18C864.68 520.22 869 521.24 874.14 522.44C882 524.28 891.96 526.69 891.96 537.41C891.96 546.16 885.81 552.69 872.93 552.69C863.8 552.69 857.26 549.64 852.82 545.14ZM912.7 551.86L912.7 513.18L898.81 513.18L898.81 504.24L936.75 504.24L936.75 513.18L922.92 513.18L922.92 551.86L912.7 551.86ZM946.13 504.24L956.28 504.24L956.28 551.86L946.13 551.86L946.13 504.24ZM966.24 528.09C966.24 513.44 977.34 503.48 991.62 503.48C1002.08 503.48 1008.17 509.19 1011.47 515.09L1002.78 519.4C1000.82 515.53 996.5 512.49 991.62 512.49C982.93 512.49 976.71 519.08 976.71 528.09C976.71 537.09 982.93 543.68 991.62 543.68C996.5 543.68 1000.82 540.7 1002.78 536.77L1011.47 541.02C1008.05 546.92 1002.08 552.69 991.62 552.69C977.34 552.69 966.24 542.73 966.24 528.09ZM1017.25 545.14L1022.76 537.41C1026.06 540.96 1031.33 543.87 1037.86 543.87C1043.44 543.87 1046.17 541.27 1046.17 538.61C1046.17 535.06 1041.73 534.11 1036.53 532.78C1028.73 531 1018.77 528.85 1018.77 518.07C1018.77 510.14 1025.62 503.55 1036.78 503.55C1044.33 503.55 1050.61 505.83 1055.37 510.2L1049.72 517.62C1045.85 514.07 1040.72 512.42 1035.9 512.42C1031.52 512.42 1029.11 514.33 1029.11 517.18C1029.11 520.22 1033.42 521.24 1038.56 522.44C1046.43 524.28 1056.38 526.69 1056.38 537.41C1056.38 546.16 1050.23 552.69 1037.35 552.69C1028.22 552.69 1021.69 549.64 1017.25 545.14ZM1064.76 546.85C1064.76 543.68 1067.42 541.08 1070.59 541.08C1073.7 541.08 1076.37 543.68 1076.37 546.85C1076.37 549.96 1073.7 552.62 1070.59 552.62C1067.42 552.62 1064.76 549.96 1064.76 546.85Z" />
			<path id="Path 18" fill-rule="evenodd" class="shp2" d="M1106.12 528.09C1106.12 513.44 1117.16 503.48 1131.43 503.48C1141.96 503.48 1147.99 509.19 1151.35 515.09L1142.66 519.4C1140.69 515.53 1136.38 512.49 1131.43 512.49C1122.8 512.49 1116.52 519.08 1116.52 528.09C1116.52 537.09 1122.8 543.68 1131.43 543.68C1136.38 543.68 1140.69 540.7 1142.66 536.77L1151.35 541.02C1147.92 546.92 1141.96 552.69 1131.43 552.69C1117.16 552.69 1106.12 542.73 1106.12 528.09ZM1160.29 551.86L1160.29 504.24L1193.98 504.24L1193.98 513.18L1170.44 513.18L1170.44 523.27L1193.47 523.27L1193.47 532.14L1170.44 532.14L1170.44 542.92L1193.98 542.92L1193.98 551.86L1160.29 551.86ZM1231.66 551.86L1222.33 534.93L1214.91 534.93L1214.91 551.86L1204.76 551.86L1204.76 504.24L1227.03 504.24C1236.98 504.24 1243.01 510.77 1243.01 519.59C1243.01 528.02 1237.75 532.52 1232.61 533.73L1243.33 551.86L1231.66 551.86ZM1232.67 519.59C1232.67 515.59 1229.63 513.18 1225.57 513.18L1214.91 513.18L1214.91 525.99L1225.57 525.99C1229.63 525.99 1232.67 523.58 1232.67 519.59ZM1263.82 551.86L1263.82 513.18L1249.93 513.18L1249.93 504.24L1287.86 504.24L1287.86 513.18L1274.03 513.18L1274.03 551.86L1263.82 551.86Z" />
			<path id="Path 19" fill-rule="evenodd" class="shp2" d="M1323.26 551.86L1320.34 543.75L1299.91 543.75L1296.93 551.86L1285.39 551.86L1303.78 504.24L1316.47 504.24L1334.8 551.86L1323.26 551.86ZM1310.13 514.39L1302.7 534.87L1317.55 534.87L1310.13 514.39ZM1342.1 504.24L1352.25 504.24L1352.25 551.86L1342.1 551.86L1342.1 504.24ZM1397.35 551.86L1374.7 520.79L1374.7 551.86L1364.55 551.86L1364.55 504.24L1374.96 504.24L1397.03 534.17L1397.03 504.24L1407.12 504.24L1407.12 551.86L1397.35 551.86ZM1430.4 551.86L1430.4 513.18L1416.51 513.18L1416.51 504.24L1452.47 504.24L1452.47 513.18L1440.61 513.18L1440.61 551.86L1430.4 551.86ZM1475.82 551.86L1475.82 532.4L1457.49 504.24L1469.03 504.24L1480.89 523.39L1492.56 504.24L1504.17 504.24L1485.97 532.4L1485.97 551.86L1475.82 551.86ZM1498.34 546.85C1498.34 543.68 1501 541.08 1504.17 541.08C1507.28 541.08 1509.95 543.68 1509.95 546.85C1509.95 549.96 1507.28 552.62 1504.17 552.62C1501 552.62 1498.34 549.96 1498.34 546.85Z" />
		</g>
	</g>
</svg>