<svg version="1.2" xmlns="http://www.w3.org/2000/svg" viewBox="0 0 1554 261" width="1554" height="261">
	<title>component-logo-signature-mono-svg</title>
	<style>
		.s0 { fill: #fffffe } 
		.s1 { fill: #ffffff } 
	</style>
	<g id="Layer">
		<path id="Layer" fill-rule="evenodd" class="s0" d="m1524.1 50.8h6l8.8 26.3 8.8-26.3h6v31.1h-4v-18.3q0-1 0-3.2 0.1-2.2 0.1-4.7l-8.8 26.2h-4.2l-8.8-26.2v0.9q0 1.2 0 3.5 0.1 2.4 0.1 3.5v18.3h-4zm-3.7 0v3.7h-10.4v27.4h-4.3v-27.4h-10.3v-3.7z"/>
		<g id="Layer">
			<path id="Layer" fill-rule="evenodd" class="s0" d="m1501.4 135.9v64.1h-35.5v-15.8h-0.5c-8.5 13.5-23.3 17.9-39 17.9-23.4 0-44.5-13.5-44.5-38.9 0-43.6 51.9-43.4 84-43.4 0-13.7-11.3-22.5-24.7-22.5-10.8 0-20 4.1-27.6 11.2l-24.3-17.5c14.1-13.5 34.8-22.1 55.2-22.1 44.9 0 56.9 25 56.9 67zm-35.5 8.8h-9.5c-11.8 0-38 1.1-38 18.2 0 9.3 9.7 13.8 18.2 13.8 3.7 0 7.2-0.5 10.6-1.4 13.6-4 16.8-16.3 16.8-16.3 1.5-4.7 1.8-9.3 1.9-12zm-168-72.1h38.6v21.5h0.5c8.2-15.3 19-23.4 36-23.4 4.4 0 9.2 0.3 12.8 1.3v35.6c-5.4-1.6-10.7-2.6-16.4-2.6-29.3 0-32.9 17.1-32.9 42.3v52.6h-38.6zm-7.4 75.1h-90q2.4 11.3 10.1 17.9 7.8 6.7 19.1 6.6 9.6 0.1 16.2-4.2 6.6-4.4 11.5-11.1l27.1 20.1q-9.3 11.9-23.5 18.5-14.2 6.5-29.5 6.5c-9.6 0-17.3-1.6-25.8-4.7q-12.8-4.7-22.2-13.4-9.5-8.8-14.9-21-5.4-12.3-5.4-27.4 0-15.1 5.4-27.4 5.5-12.3 14.9-21c6.3-5.8 12.3-10.3 20.8-13.4q12.8-4.7 27.2-4.7 13.5 0 24.5 4.7 11 4.7 18.6 13.4 7.6 8.7 11.7 21 4.2 12.3 4.2 27.4zm-36.8-26.6c0.3-13.2-10-24.4-24.1-24.4q-4.8 0-8.8 1.2c-1.5 0.3-2.9 0.7-4.2 1.3q-4.9 2.1-8.4 5.3-3.5 3.3-5.5 7.6-1.9 4.3-2.2 9h1.2c0 0 52 0 52 0zm-92.1-17.5h-34v42.4c0 13.5 1.6 23.4 18.3 23.4 4.1 0 12.3-0.5 15.7-3.7v32.5c-8.5 3.1-18 3.9-27 3.9-25.7 0-45.5-10.7-45.5-38.2v-60.3h-24.7v-31h24.7v-37.5h38.5v37.5h34c0 0 0 31 0 31z"/>
			<path id="Layer" fill-rule="evenodd" class="s0" d="m974.4 131.3l-41.7-58.7h45.6l22.1 34.3 21.3-34.3h42.9l-40.6 58.7 50.4 68.6h-45.9l-29.2-43.2-31.2 43.2h-45.1z"/>
			<path id="Layer" fill-rule="evenodd" class="s0" d="m933 72.6l-56.5 146.6c-10.3 26.8-16.2 41.8-53 41.8-9.8 0-19.5-1.6-28.8-4.7l5.2-31.9c5.9 2.6 11.5 3.9 17.9 3.9 14.4 0 18.9-5.1 23-14.5l5.4-14.4-54.6-126.8h41.7l32.1 83.3h0.5l27.5-83.3z"/>
			<path id="Layer" fill-rule="evenodd" class="s0" d="m785.9 144.3l33.3 24.5c-17.9 20.9-44.2 34.2-73.4 34.2-54.1 0-100.5-42.1-100.5-101.2 0-60 46.4-101.2 100.5-101.2 26.3 0 50.1 10.7 67.7 28l-30.4 27.5c-9.8-9.8-23.2-16.4-37.3-16.4-30.4 0-56.3 27.8-56.3 62.1 0 34.2 25.9 62 56.3 62 15.8 0 30-7.5 40.1-19.5z"/>
		</g>
		<path id="Layer" fill-rule="evenodd" class="s1" d="m606.1 0.4v93.3h-507.7v12.7h507.7v93.4h-605.9v-199.4z"/>
	</g>
</svg>