<svg version="1.2" baseProfile="tiny-ps" xmlns="http://www.w3.org/2000/svg" viewBox="0 0 1563 284" width="1563" height="284">
	<title>cazoo-svg</title>
	<style>
		tspan { white-space:pre }
		.shp0 { fill: #ce5845 } 
	</style>
	<path id="Layer" fill-rule="evenodd" class="shp0" d="M668.06 1.39C671.04 0 671.63 0 774.55 0.2L878.07 0.33L881.11 2.12C884.82 4.3 887.33 7.15 889.25 11.25C890.51 13.97 890.64 15.69 890.84 31.51C891.1 50.64 890.64 55.08 887.79 59.38C886.8 60.9 856.18 96.32 819.67 138.16L753.32 214.16L877.41 214.82L880.12 216.28C884.55 218.66 886.8 220.91 888.79 224.95L890.64 228.72L890.64 248.58C890.64 268.05 890.64 268.51 889.05 271.89C887.33 275.86 883.56 279.56 879.46 281.42C876.81 282.61 873.04 282.68 770.92 282.68C669.45 282.68 664.95 282.61 662.37 281.42C658.47 279.63 655.16 276.45 653.25 272.61L651.53 269.17L651.53 249.24C651.53 228.19 651.66 226.87 654.63 222.3C655.56 220.98 685.92 185.82 722.23 144.18L788.25 68.52L669.72 67.86L667 66.4C663.1 64.35 659 59.38 657.81 55.41C657.02 52.76 656.82 48.06 656.82 33.7C656.82 16.95 656.95 14.96 658.14 11.78C659.66 7.61 663.76 3.31 668.06 1.39ZM128.98 1.39C131.69 1.06 140.82 0.86 149.16 0.99C161.06 1.13 166.09 1.46 172.31 2.58C183.35 4.57 194.07 7.48 203.06 11.06C218.15 17.01 223.9 20.65 225.95 25.62C227.07 28.14 227.14 33.63 226.21 36.15C225.49 38 201.87 72.62 199.49 75.34C197.38 77.72 194.53 78.91 191.03 78.91C188.38 78.91 186.79 78.32 182.03 75.6C173.83 70.9 171.71 69.91 165.36 67.79C160 66 159.14 65.94 147.5 65.87C136.13 65.87 134.8 66 128.65 67.72C111.92 72.42 96.64 82.75 86.25 96.59C62.51 128.23 65.95 169.27 94.72 196.95C119.39 220.78 154.45 225.61 184.48 209.39C189.44 206.68 190.3 206.41 193.47 206.68C195.46 206.88 197.71 207.54 198.7 208.27C200.62 209.66 223.77 243.15 225.62 247.26C227.07 250.37 227.21 255.4 226.02 258.38C224.3 262.35 221.78 264.54 214.71 267.98C163.44 293.33 100.67 287.77 55.56 254.01C7.67 218.13 -11.77 154.64 7.41 96.85C24.61 44.95 71.11 8.47 128.98 1.39ZM1069.69 1.39C1078.36 0.6 1094.36 1.06 1103.23 2.38C1133.39 6.82 1160.18 20.39 1182.07 42.3C1204.03 64.28 1217.2 90.36 1222.09 121.54C1223.61 131.47 1223.61 152.59 1222.09 162.52C1214.95 208.6 1187.23 247.26 1146.42 267.98C1133.19 274.73 1119.23 279.3 1104.02 281.82C1093.04 283.67 1070.02 283.47 1058.71 281.42C1019.55 274.47 986.61 253.02 964.99 220.58C953.54 203.37 946.8 186.49 943.16 165.77C941.11 154.45 940.91 131.41 942.76 120.42C949.57 79.77 971.27 46.27 1005.4 23.63C1023.39 11.72 1047.6 3.31 1069.69 1.39ZM1098.8 73.35C1091.06 71.3 1076.51 71.1 1068.3 72.82C1054.28 75.87 1043.63 81.63 1033.45 91.69C1026.04 98.97 1022.47 103.87 1018.63 112.08C1003.02 144.91 1015.06 184.24 1046.41 202.77C1075.05 219.79 1110.57 214.69 1133.59 190.33C1143.11 180.26 1148.74 169.27 1151.58 155.5C1153.43 146.83 1153.17 133.72 1150.98 125.65C1144.04 99.3 1125.19 80.37 1098.8 73.35ZM1412.85 1.06C1418.34 0.6 1435.08 1.32 1442.68 2.38C1468.28 5.89 1492.75 17.01 1513.46 34.29C1540.25 56.73 1557.91 89.64 1562.34 125.12C1563.33 133.33 1563.13 152.33 1562.01 161.2C1555.92 207.6 1526.29 248.58 1483.96 269.1C1441.96 289.49 1392.35 287.91 1352 264.8C1313.83 242.89 1287.97 204.29 1282.22 160.6C1281.09 151.73 1280.89 133.99 1281.88 125.78C1288.5 70.97 1325.61 25.35 1377.46 8.08C1388.18 4.5 1399.42 2.25 1412.85 1.06ZM1434.08 72.49C1423.17 70.57 1410.54 71.5 1400.09 75.07C1372.77 84.27 1353.78 108.9 1351.6 137.76C1350.81 149.35 1353.19 161.26 1358.61 172.52C1375.74 208.07 1417.55 222.7 1453 205.55C1476.02 194.36 1491.3 171.13 1492.62 145.31C1494.47 110.29 1468.94 78.58 1434.08 72.49ZM382.98 2.58C388.14 1.46 392.3 1.39 435.89 1.52L483.19 1.66L489.14 3.51C508.26 9.47 520.49 21.58 530.41 44.49C532.53 49.32 538.29 61.9 543.18 72.49C548.14 83.02 553.63 95.13 555.48 99.3C560.58 111.02 561.77 113.34 562.36 112.34C562.63 111.94 562.89 110.82 562.89 109.96C562.89 107.24 565.47 102.74 567.92 101.29C569.44 100.29 571.23 99.83 573.67 99.83C578.96 99.9 604.63 103.8 606.28 104.86C607.27 105.52 608.6 108.57 610.78 114.86C612.43 119.76 613.82 124.59 613.82 125.45C613.82 127.63 612.63 130.02 611.05 131.01C610.32 131.47 602.51 132.73 593.72 133.79C584.98 134.85 577.58 135.84 577.31 135.91C577.05 135.98 577.71 137.37 578.77 138.95C582.87 144.98 582.87 145.38 583.53 183.38C583.79 202.51 583.86 229.58 583.66 243.62C583.2 272.94 583.2 273.08 577.31 278.37C571.95 283.14 570.23 283.47 547.22 283.21C528.76 283.01 527.31 282.94 524.46 281.62C520.76 279.9 517.19 276.25 515.14 272.22C513.68 269.17 513.61 268.58 513.42 246.13C513.15 223.49 513.15 223.1 511.76 222.1C510.51 221.24 500.78 221.11 433.84 221.11C361.94 221.11 357.25 221.18 355.92 222.23C354.6 223.43 354.6 224.02 354.4 246.6L354.21 269.77L352.15 273.41C351.03 275.39 348.85 278.04 347.33 279.17C342.23 283.14 339.72 283.47 317.69 283.21L297.98 283.01L294.61 281.22C292.69 280.23 290.11 278.17 288.85 276.65C284.22 271.29 284.42 274.2 284.42 210.58C284.42 149.28 284.49 148.02 287.73 141.6C288.52 140.01 289.78 138.09 290.44 137.3L291.7 135.91L275.1 133.92C256.77 131.67 255.52 131.28 254.39 127.04C253.93 125.05 254.33 123.27 257.04 115.52C259.49 108.7 260.74 106.05 262 105.13C264.25 103.41 293.09 99.17 296.66 99.96C301.49 101.09 304.27 104.4 305.26 110.55L305.72 113.47L307.77 109.56C308.83 107.38 311.74 101.09 314.19 95.66C316.63 90.17 322.65 77.06 327.55 66.53C332.44 55.94 336.88 46.27 337.34 45.02C339.26 40.05 344.02 31.18 347.26 26.55C356.12 13.97 368.49 5.69 382.98 2.58ZM467.05 71.43C465.53 70.24 463.94 70.17 434.31 70.17C410.23 70.24 402.82 70.44 401.63 71.1C399.65 72.16 397.79 75.01 396.47 79.11C395.88 80.9 389.53 96.85 382.45 114.53C368.56 149.22 368.36 149.75 369.02 150.87C369.35 151.4 386.35 151.53 434.31 151.47L499.06 151.27L498.93 149.35C498.8 147.76 474.85 86.79 470.09 75.93C469.3 74.14 467.97 72.09 467.05 71.43Z" />
</svg>