<svg version="1.2" xmlns="http://www.w3.org/2000/svg" viewBox="0 0 1564 834" width="1564" height="834">
	<title>cb776e6995f1c703706cf8c4c39a7520-svg</title>
	<style>
		.s0 { fill: #fc011a } 
	</style>
	<g id="#fc011aff">
		<path id="Layer" fill-rule="evenodd" class="s0" d="m249.4 88.2c15.8-29 31.3-58 46.4-87.3 28.4 12.1 56.8 24 85.2 36.2-8.5 17.3-17.7 34.1-26.6 51 147.3 0.1 294.6 0 441.8 0.1-3 28-5.8 56-8.8 83.9-159.6-0.1-319.1 0.1-478.6 0-13.5 24.2-27.1 48.4-41 72.5 90.8-23 185.5-28.4 278.5-19.4 46.8 5 93.5 13.6 137.9 29.5 14.5 5.6 28.9 11.6 43.5 17.4-10.8 101.5-21.5 203.1-32.2 304.7 49.2 17.3 96.3 40.2 143.2 63.1 15.4-31.6 27.5-65.7 28.3-101.1 0.6-21.5-5-43.3-16.9-61.3-15.1-22.8-37.5-40.1-62.5-50.6q19.6-45.8 39.8-91.4c43.3 17.1 82 47 107.1 86.5 18.1 28.7 28.1 62.4 29 96.4 1.8 55.6-16.3 109.6-40.5 158.8 37.2 14.5 75.5 26.5 114.1 36.8 65.5 17.2 133.2 26.8 201.1 26.2 53-0.4 105.9-6.6 157.6-18 37.2-8.4 73.9-19.1 109.2-33.4 10.4 29.5 20.5 59.1 30.8 88.6-16.5 6.9-33.5 12.3-50.4 17.8-72.9 22.2-148.4 36.7-224.7 38.8h-36.4c-54.6-1.4-109.4-6.6-163-17.8-60-12.4-118.6-31.2-176-52.7-67.8-27.3-131.4-64.2-199.8-90.2-5.7 53.6-11.3 107.1-17 160.7h-6.1c-62.7-6.7-125.3-16.2-185.8-34.2-29.2-9-58.6-19.7-82.9-38.6-19.2-14.4-35.6-33-45-55.2-13.7-31.6-11.6-69 3.5-99.6 14.8-28.2 42.5-47.5 71.9-58.1 35.3-12.7 73.7-12.6 110.6-9.2 22.1 2.1 44 6.3 65.8 10.2 2.8-27.8 5.8-55.5 8.7-83.2-89.6-2.4-179.9 8.3-265.7 34.9-29.6 9.4-58.8 20.4-86.2 35.2-2.2 1-1.6 3.9-2 5.8-9.6 93-19.6 186-29.3 279-32.8 0-65.7 0-98.5 0 14.6-138.7 29.1-277.4 43.7-416.1-30.4 47.6-61.8 94.7-95.6 140.1-25.2-17.1-50.2-34.6-75.6-51.5v-0.5c4.2-4.8 7.5-10.1 11.3-15.1 34.1-47.1 65.9-95.8 96.6-145.1 32.7-52.9 64.4-106.5 94.9-160.6-43.5-0.1-87.1-0.1-130.6-0.1 2.8-28 5.9-55.9 8.7-83.9 56.2 0 112.4 0 168.5 0zm28.5 238.8c-4 37.8-7.9 75.6-11.9 113.4 68.8-30.4 143.4-45.6 217.9-53.5 44.6-4.4 89.4-6.1 134.2-4.9 1.7-18.4 3.5-36.7 5.2-55.1-52.7-15.1-107.7-21.4-162.4-21.8-61.6-0.4-123.4 5.9-183 21.9zm186.1 300.8c-8 1.8-16.2 4.6-22 10.6-7.7 7.5-9.3 19.6-5.8 29.5 3.1 8.9 10 15.7 17.4 21.3 13.6 9.9 29.4 16 45.2 21.6 27 8.8 54.7 15 82.6 20.4 3-29.4 6.1-58.7 9.2-88.1-26.5-7.5-53.5-13.6-80.9-16.4-15.2-1.4-30.7-2-45.7 1.1zm652.9-593.3c31.3-10.3 62.7-20.6 93.9-31 6.8 28.2 13.3 56.5 20.2 84.7 23.7 0 47.5 0 71.3 0 12.7-28.4 25.7-56.6 38.4-85 29.2 10.6 58.3 21.2 87.5 31.6-7.8 17.9-16.2 35.5-24 53.4 52.9 0 105.9 0 158.9-0.1-2.7 28-5.9 56-8.7 84-62.8 0-125.5 0.1-188.2-0.1q-13 28.1-25.6 56.4c33 3.7 65.7 9.8 97.7 18.6 19.5 5.3 38.4 12.5 57.6 18.7-13.5 128-27 256-40.4 384-34.1 9.4-68.3 18.8-103.2 25-52.5 9.5-106 15-159.4 11.9-41.7-2.4-83.1-8.8-123.8-18.2-23-5.2-45.5-12.3-68.2-18.6 13.5-128 26.9-256 40.4-384 27.6-8.8 55.2-18.1 83.5-24.2 37.8-8.4 76.2-14 114.8-15.9 8.8-17.6 16.3-35.8 24.7-53.6-87.3-0.1-174.6 0.2-262-0.1 3.2-27.9 5.9-55.9 8.9-83.8 39.4-0.1 78.8 0 118.1-0.1-4.1-17.9-8.8-35.6-12.4-53.6zm16.8 289.6c-1.5 13.4-2.8 26.9-4.3 40.4 85.9 0.3 171.7 0 257.5 0.1q2-20.3 4.3-40.4c-21-5.2-42.2-9-63.7-11.6-64.6-8.1-130.4-3.2-193.8 11.5zm-16.9 160.8q128.7 0 257.4 0c1.9-17.2 3.6-34.5 5.5-51.7-85.8-0.1-171.6 0-257.4-0.1-1.9 17.3-3.7 34.5-5.5 51.8zm-7.2 68.5c-1.3 11.7-2.5 23.3-3.7 34.9 34.1 7.5 68.8 12.7 103.6 14.5 51.7 2.7 103.3-4 153.7-14.4 1.4-11.6 2.5-23.3 3.8-35q-128.7 0-257.4 0zm-252.6-390.5c54.6 28.1 107.2 61.3 153.4 102.1-20.9 26-41.6 52.1-62.5 78.1-42.9-37.9-92.3-67.5-142.4-94.8 17.4-28.3 34.3-56.9 51.5-85.4z"/>
	</g>
</svg>