<svg version="1.2" xmlns="http://www.w3.org/2000/svg" viewBox="0 0 1483 1292" width="1483" height="1292">
	<title>darling-svg</title>
	<style>
		.s0 { fill: #62b66d } 
		.s1 { fill: #049848 } 
		.s2 { fill: #aed9ac } 
	</style>
	<path id="Layer" class="s0" d=""/>
	<path id="Layer" class="s1" d="m1482.1 1291.3h-1481.5l0.6-0.3 583.5-332.8 156.5-89.1 156.7 89.4 485.3 276.5 98.6 56z"/>
	<path id="Layer" fill-rule="evenodd" class="s0" d="m741.5 1.1l-0.3 0.3 0.3-0.6zm-0.3 0.3l0.3-0.3z"/>
	<path id="Layer" class="s0" d="m741.2 1.4v711.2z"/>
	<path id="Layer" class="s0" d="m741.2 1.4v867.7l-156.5 89.1-583.5 332.8-0.6 0.3 332.3-578.4 251.8-439z"/>
	<path id="Layer" class="s2" d="m1482.1 1291.3l-0.3-0.3-98.6-56-485.3-276.5-156.7-89.4v-867.7l0.3-0.3v-0.3l156.4 272.4 252.2 439.7z"/>
</svg>