<svg version="1.2" xmlns="http://www.w3.org/2000/svg" viewBox="0 0 1556 370" width="1556" height="370">
	<title>darling-svg</title>
	<style>
		.s0 { fill: none } 
		.s1 { fill: #ffffff } 
		.s2 { fill: #049848 } 
		.s3 { fill: #62b66d } 
		.s4 { fill: #aed9ac } 
	</style>
	<path id="Layer" class="s0" d="m6 225h-6v-223.2h6v222zm0-221.5v220.3z"/>
	<path id="Layer" fill-rule="evenodd" class="s1" d="m720.8 223.8v-3.8l2.6 3.8zm225.8-38.5v38.5h-195.6v-220.3h44.8v181.8zm65.9-181.8v220.3h-44.3v-220.3zm91.9 220.3h-44.3v-220.3h33.7c0 0 14.4 10.6 15.6 11.7l129.6 98.7v-110.4h44.3v220.6h-44.3v-54.3l-5.2-4.2-129.4-98.2zm450.8-24.3c-35.3 21.4-77.6 26.8-113.8 26.8-67.5 0-116.3-32.4-127.9-86.7q-1.4-6.4-2.1-12.9-0.6-6.5-0.6-13.1 0-6.5 0.6-13.1 0.7-6.5 2.1-12.9c11.6-54.3 60.2-86.7 127.9-86.7q8.1 0 16.2 0.4 8.2 0.5 16.2 1.5 8.1 1 16.1 2.5 8 1.5 15.9 3.5 5.7 1.5 11.2 3.4 5.5 2 10.8 4.5 5.3 2.4 10.4 5.4 5.1 2.9 9.9 6.2l-20.6 31.9c-30-19.3-53.1-23.1-86.1-23.1-41.4 0-84.6 22.1-84.6 77.4 0 55.2 43.1 77.4 84.6 77.4q9.6 0 19.1-0.7 9.6-0.8 19.1-2.4 9.4-1.6 18.7-3.9 9.3-2.4 18.4-5.5v-65.4h38.5zm-1310.9-85.9c0 53.8-24.9 87-61.2 101.6q-5.7 2.2-11.5 3.8-5.9 1.7-11.9 2.7-6 1.1-12.1 1.6-6.1 0.5-12.2 0.5h-129.3v-220.3h129.3q6.1-0.1 12.2 0.4 6.1 0.5 12.1 1.6 6 1.1 11.9 2.8 5.8 1.6 11.5 3.8c36.5 14.5 61.2 47.7 61.2 101.5zm-47.8 0c0-24.3-4.4-41.2-13.4-52.6-12.5-16-33.7-21.5-64.4-21.5h-64.9v148.4h64.9c30.7 0 51.9-5.6 64.4-21.6 9-11.5 13.4-28.4 13.4-52.7z"/>
	<path id="Layer" class="s1" d="m720.8 220v3.7h-48.6l-15.7-24.2-63.2-98h31.5c38 0 49-13.3 49-30.9 0-17.7-11-31.1-49-31.1h-68.3v184.3h-45.1v-220.3h123.7c50.5 0 83.5 17.6 83.8 65.4 0 36.4-22.1 55.2-56.9 62l52.5 79.5zm-215.5 3.9h-50.2l-95.8-174.6-95.9 174.6h-50.2l31-56.3 3.3-6.2 86.6-157.8h50.2l96.9 176.4z"/>
	<path id="Layer" class="s2" d="m389.5 304.4l93.7 53.4z"/>
	<path id="Layer" class="s3" d=""/>
	<path id="Layer" class="s2" d="m502.2 368.7h-285.9l0.1-0.1 112.7-64.2 30.1-17.2 30.3 17.2 93.7 53.4 19 10.8z"/>
	<path id="Layer" fill-rule="evenodd" class="s3" d="m359.3 119.6l-0.1 0.1 0.1-0.2zm-0.1 0.1l0.1-0.1z"/>
	<path id="Layer" class="s3" d="m359.2 119.7v137.2z"/>
	<path id="Layer" class="s3" d="m359.2 119.7v167.5l-30.1 17.2-112.7 64.2-0.1 0.1 64.1-111.7 48.7-84.7z"/>
	<path id="Layer" class="s4" d="m502.2 368.7v-0.1l-19-10.8-93.7-53.4-30.3-17.2v-167.5l0.1-0.1v-0.1l30.2 52.6 48.7 84.9z"/>
	<path id="Layer" fill-rule="evenodd" class="s1" d="m691.9 294h9.3v74.5h-9.3zm96.1 0.1h9.4v74.5h-9.4l-37-57v57h-9.5v-74.5h9.6l36.9 57.1zm79 35.4q2.2-0.5 4.4-0.8 2.3-0.3 4.5-0.4 2.2-0.2 4.5-0.1c2.2 0 4.5 0.3 6.9 0.3v39.9h-6.9l-2.2-5q-2.2 1.4-4.5 2.5-2.3 1-4.8 1.7-2.5 0.7-5 1.1-2.5 0.3-5.1 0.3-2.4 0.2-4.7-0.2-2.4-0.4-4.6-1.3-2.2-1-4.1-2.4-2-1.4-3.5-3.2-1.4-2-2.5-4.3-1.1-2.3-1.9-4.7-0.7-2.3-1.2-4.8-0.4-2.5-0.5-5c-0.5-3.4-0.5-7.5-0.5-12.1q0-1.5 0.1-3 0-1.5 0.1-3 0-1.5 0.1-3 0.1-1.5 0.3-3 0.1-1.3 0.3-2.6 0.2-1.3 0.5-2.6 0.3-1.3 0.6-2.5 0.3-1.3 0.7-2.6 0.3-1.1 0.7-2.2 0.5-1.1 1-2.1 0.5-1 1.1-2 0.7-1 1.4-1.9 1.5-1.9 3.5-3.3 2-1.5 4.2-2.4 2.2-1 4.6-1.4 2.4-0.3 4.9-0.2c3.5 0 7.8 0.2 12.9 0.8q7.6 0.9 13.6 2.1v7.1h-1.8l-4.5-0.4-6-0.4c-5.1-0.5-9.3-0.5-12.5-0.5q-0.9 0-1.9 0-1 0.1-1.9 0.2-1 0.2-1.9 0.4-0.9 0.2-1.8 0.6-0.7 0.2-1.3 0.6-0.6 0.3-1.2 0.7-0.5 0.5-1 0.9-0.5 0.5-1 1.1-0.5 0.6-0.9 1.4-0.5 0.7-0.8 1.4-0.3 0.8-0.6 1.6-0.2 0.8-0.4 1.6-0.6 2.6-0.9 5.2-0.4 2.5-0.7 5.2-0.2 2.6-0.2 5.2-0.1 2.6 0 5.2-0.2 2.6-0.1 5.3 0.1 2.6 0.6 5.2 0.4 2.6 1.1 5.1 0.8 2.6 1.8 5 0.9 1.5 2.3 2.8 1.4 1.2 3 2 1.7 0.8 3.5 1.1 1.8 0.3 3.7 0.1 0.9 0 1.9-0.1 0.9-0.1 1.9-0.2 1-0.1 1.9-0.3 0.9-0.2 1.9-0.5 0.9-0.2 1.8-0.5 0.9-0.2 1.8-0.5 0.9-0.3 1.7-0.6 0.9-0.4 1.8-0.7l2.8-1.2v-18.5h-15.3v-6q2.1-0.7 4.3-1.2zm98.4 8.1q-0.4 0.2-0.8 0.3-0.4 0.2-0.8 0.3-0.4 0.1-0.8 0.2l15.3 30.2h-10.6l-14.7-29.8-18.1-1.5v31.3h-9.4v-74.6h31.9q18.2 0 18.2 22.6 0 1.3 0 2.7-0.1 1.3-0.2 2.6-0.2 1.3-0.4 2.6-0.3 1.2-0.6 2.5l-2 4.7q-0.2 0.4-0.4 0.7-0.2 0.4-0.5 0.7-0.2 0.4-0.5 0.7-0.3 0.3-0.6 0.6l-2 1.7q-0.3 0.2-0.5 0.4-0.3 0.1-0.6 0.3-0.2 0.1-0.5 0.3-0.3 0.1-0.6 0.2-0.4 0.2-0.8 0.3zm-8.3-8.2c3.7 0 6.1-1 7.2-3q0.5-1 0.8-2 0.4-1.1 0.6-2.2 0.2-1.1 0.3-2.2 0.1-1.1 0-2.2 0.1-1 0-2.1 0-1-0.1-2-0.1-1.1-0.2-2.1-0.2-1.1-0.4-2.1-0.1-0.6-0.3-1.1-0.2-0.6-0.5-1.1-0.2-0.5-0.6-1-0.3-0.5-0.7-0.9-0.6-0.6-1.3-1.1-0.7-0.4-1.5-0.7-0.8-0.3-1.6-0.5-0.8-0.1-1.7-0.1h-22.2v26.4zm86.6-34.7l17.2 0.9v7.3h-31.4c-2.5 0-4.1 0.7-4.7 1.9q-0.2 0.5-0.3 0.9-0.1 0.5-0.2 1-0.1 0.5-0.1 1 0 0.5 0 1v18.1l32.7 1.2v7.3l-32.4 1v18.1q0.1 3.9 2.1 4.7 0.5 0.2 1 0.3 0.5 0.1 1 0.2 0.5 0.1 1.1 0.1 0.5 0 1 0h30.2v7.5l-31.3 1.8h-1.6c-1.9 0.2-3.7 0-5.5-0.6-1.7-0.6-3.3-1.6-4.5-2.9-1.3-1.3-2.3-2.9-2.8-4.7-0.5-1.7-0.7-3.6-0.3-5.4v-47.5q-0.2-1.5 0-2.9 0.2-1.5 0.6-2.9 0.5-1.4 1.3-2.6 0.8-1.3 1.9-2.3 0.9-0.8 2-1.4 1.1-0.6 2.3-1 1.1-0.4 2.4-0.6 1.2-0.2 2.4-0.1zm105.2 9.9q0.6 1.1 1.2 2.2 0.5 1.1 1 2.2 0.5 1.2 0.8 2.4 0.8 2.4 1.4 4.9 0.5 2.5 0.9 5 0.4 2.6 0.5 5.1 0.2 2.6 0.1 5.1 0.3 3.9-0.1 7.8-0.5 3.9-1.6 7.6-1.1 3.8-2.9 7.3-1.8 3.5-4.1 6.6-0.8 0.9-1.6 1.7-0.9 0.8-1.8 1.5-1 0.7-2 1.3-1 0.6-2.1 1.1-1.2 0.5-2.4 0.9-1.3 0.5-2.5 0.7-1.3 0.3-2.6 0.4-1.3 0.1-2.6 0.1h-28.7v-74.4h28.7q1.4 0 2.9 0.1 1.5 0.2 2.9 0.5 1.4 0.3 2.8 0.7 1.4 0.5 2.8 1.1 1.1 0.6 2.1 1.2 1.1 0.7 2 1.4 1 0.8 1.9 1.6 0.8 0.9 1.6 1.9 0.7 1 1.4 2zm-7.2 45.7q1.5-2.7 2.4-5.7 1-3 1.3-6.1 0.3-3.1 0-6.2 0.3-3 0.1-5.9-0.1-2.9-0.7-5.8-0.5-2.9-1.5-5.7-0.9-2.8-2.2-5.4-1.1-1.6-2.5-2.9-1.4-1.2-3.1-2.1-1.7-0.9-3.6-1.3-1.8-0.4-3.7-0.3h-19.1v56.5h19.1q1.3 0 2.7-0.2 1.3-0.2 2.6-0.7 1.3-0.5 2.5-1.3 1.1-0.7 2.1-1.7 2.1-2.4 3.6-5.2zm52.1-56.4h9.4v74.6h-9.4zm78.3 0.7l17.4 0.9v7.3h-31.5c-2.5 0-4.1 0.7-4.7 1.9q-0.2 0.5-0.3 0.9-0.1 0.5-0.2 1-0.1 0.5-0.1 1 0 0.5 0 1v18.1l32.7 1.2v7.3l-32.5 1v18.1q0.1 3.9 2.2 4.7 0.5 0.2 1 0.3 0.5 0.1 1 0.2 0.6 0.1 1.1 0.1 0.5 0 1.1 0h30.2v7.5l-31.4 1.8h-1.6c-1.8 0.2-3.7 0-5.4-0.6-1.8-0.6-3.3-1.6-4.6-2.9-1.3-1.4-2.3-2.9-2.8-4.7-0.6-1.7-0.8-3.6-0.6-5.4v-47.5q-0.1-1.5 0.1-3 0.1-1.4 0.6-2.8 0.5-1.4 1.3-2.6 0.8-1.3 1.9-2.3 1-0.8 2-1.4 1.1-0.6 2.3-1 1.2-0.4 2.4-0.6 1.2-0.2 2.5-0.1zm102.6-0.7h9.3v74.5h-9.3l-37.1-57v57h-9.4v-74.5h9.5l37 57.1zm46.1 0h52.7v9h-21.9v65.5h-9.4v-65.5h-21.4zm134.7 51.3v6.3c0.2 1.6 0.2 3.3-0.1 4.9-0.4 1.6-0.9 3.1-1.8 4.5-0.8 1.4-1.8 2.7-3 3.8-1.2 1.1-2.6 1.9-4.1 2.6q-1.3 0.5-2.6 0.8-1.3 0.4-2.6 0.6-1.4 0.2-2.7 0.4-1.4 0.1-2.7 0-1.9 0-3.7 0-1.8-0.1-3.6-0.2-1.8-0.1-3.6-0.3-1.8-0.2-3.6-0.4-1.6-0.1-3.2-0.3-1.6-0.2-3.2-0.4-1.6-0.2-3.2-0.5-1.6-0.2-3.2-0.5v-7.6q11.2 1.1 19.3 1.1h8.3q0.4 0 0.8-0.1 0.4 0 0.8-0.1 0.4-0.1 0.7-0.2 0.4-0.1 0.8-0.2 0.4-0.1 0.8-0.2 0.4-0.1 0.8-0.3 0.3-0.1 0.7-0.3 0.4-0.2 0.7-0.4 0.8-0.6 1.4-1.3 0.5-0.8 0.9-1.6 0.4-0.9 0.6-1.8 0.1-0.9 0.1-1.9v-6q0-0.9 0-1.8-0.1-0.8-0.3-1.7-0.3-0.9-0.6-1.7-0.4-0.8-0.8-1.5-0.6-0.7-1.3-1.2-0.7-0.5-1.4-0.8-0.8-0.3-1.7-0.4-0.8-0.1-1.7-0.1h-13.4c-8.8 0-14.4-2.7-16.8-8.3q-0.4-1.1-0.8-2.4-0.3-1.2-0.5-2.4-0.2-1.2-0.3-2.5-0.1-1.2 0-2.5v-6.6q-0.3-2.1 0-4.1 0.3-2.1 1.1-4 0.8-2 2-3.7 1.3-1.6 2.9-3 0.7-0.4 1.5-0.9 0.7-0.4 1.5-0.7 0.8-0.4 1.7-0.7 0.8-0.2 1.6-0.4 0.8-0.3 1.5-0.4 0.8-0.2 1.5-0.3 0.8-0.1 1.5-0.2 0.8 0 1.6 0h4.8c1.6 0 5.3 0.3 11.1 0.9q8.7 0.9 12.6 1.6v7.5l-14-0.6-12.9-0.3q-0.4-0.1-0.9-0.1-0.4 0-0.8 0-0.5 0-0.9 0-0.5 0-0.9 0.1-0.4 0-0.9 0.1-0.4 0.1-0.8 0.3-0.5 0.1-0.9 0.3-0.4 0.1-0.8 0.3c-2.2 1.2-3.4 4-3.4 8.5v6q-0.1 1 0 2 0.1 1.1 0.3 2 0.3 1 0.8 1.9 0.6 0.9 1.2 1.6 0.9 0.5 1.8 0.8 0.9 0.4 1.9 0.6 0.9 0.2 1.9 0.3 1 0.1 1.9 0h13.7c10.9 0 16.3 6 16.6 18.1z"/>
</svg>