<svg version="1.2" xmlns="http://www.w3.org/2000/svg" viewBox="0 0 1608 389" width="1608" height="389">
	<title>digital-bridge-logo-svg</title>
	<style>
		.s0 { fill: #123145 } 
		.s1 { fill: #133146 } 
		.s2 { fill: #133348 } 
		.s3 { fill: #245576 } 
		.s4 { fill: #235577 } 
		.s5 { fill: #367b5c } 
		.s6 { fill: #367b5f } 
		.s7 { fill: #439666 } 
		.s8 { fill: #429568 } 
		.s9 { fill: #62cd86 } 
		.s10 { fill: #143448 } 
		.s11 { fill: #14314c } 
		.s12 { fill: #2c5c7f } 
		.s13 { fill: #235578 } 
		.s14 { fill: #377d5e } 
		.s15 { fill: #439766 } 
		.s16 { fill: #429565 } 
		.s17 { fill: #65c98c } 
	</style>
	<g id="Layer_2">
		<g id="Layer_1-2">
			<g id="Layer">
				<path id="Layer" fill-rule="evenodd" class="s0" d="m0 246.5h48.2q3.3 0 6.5 0.2q3.3 0.2 6.5 0.6q3.2 0.4 6.4 1q3.2 0.7 6.3 1.5q2.5 0.8 5 1.7q2.4 1 4.8 2.1q2.3 1.1 4.6 2.4q2.3 1.3 4.5 2.7q1.9 1.3 3.7 2.8q1.8 1.4 3.5 3q1.7 1.6 3.3 3.4q1.5 1.7 2.9 3.6q1.3 1.7 2.5 3.5q1.1 1.8 2.2 3.6q1.1 1.9 2 3.8q1 1.9 1.8 3.9q0.8 1.9 1.4 3.8q0.7 1.9 1.3 3.8q0.5 2 1 3.9q0.5 2 0.8 4q0.3 1.7 0.6 3.4q0.2 1.8 0.4 3.6q0.2 1.7 0.3 3.5q0.1 1.7 0.1 3.5q0 3.3-0.3 6.5q-0.2 3.2-0.8 6.4q-0.6 3.2-1.5 6.4q-0.9 3.1-2 6.1q-1.3 3.1-2.8 6q-1.5 2.9-3.4 5.7q-1.8 2.8-3.9 5.3q-2.1 2.6-4.4 4.9q-2.5 2.5-5.3 4.7q-2.8 2.3-5.8 4.2q-3 2-6.1 3.6q-3.2 1.6-6.5 2.9q-3.9 1.6-7.9 2.7q-4.1 1.2-8.2 1.9q-4.1 0.8-8.3 1.1q-4.1 0.3-8.3 0.2h-45.1zm18.7 120.6h23.7q2.8 0 5.7-0.2q2.8-0.2 5.6-0.6q2.9-0.4 5.6-1q2.8-0.6 5.6-1.4q2.5-0.8 5-1.8q2.4-0.9 4.8-2.2q2.3-1.2 4.6-2.6q2.2-1.4 4.3-3.1q2-1.6 3.8-3.4q1.8-1.9 3.4-3.9q1.6-2 3-4.2q1.3-2.2 2.4-4.6q1.3-2.6 2.2-5.4q0.9-2.7 1.4-5.6q0.6-2.8 0.9-5.7q0.2-2.9 0.2-5.8q-0.1-2-0.2-3.9q-0.2-2-0.4-3.9q-0.3-1.9-0.7-3.9q-0.3-1.9-0.8-3.8q-0.5-2.2-1.3-4.4q-0.8-2.2-1.7-4.4q-1-2.1-2.2-4.1q-1.2-2-2.5-3.9q-1.7-2.1-3.6-4.1q-1.9-1.9-4-3.6q-2-1.7-4.3-3.2q-2.3-1.4-4.7-2.6q-3.2-1.5-6.5-2.6q-3.3-1.2-6.8-1.9q-3.4-0.7-6.9-0.9q-3.5-0.3-7.1-0.2h-28.5zm138.8-120.6h18.7v138.1h-18.7zm183.4 60.8v68.1q-1.3 0.8-2.7 1.6q-1.4 0.8-2.8 1.5q-1.5 0.6-2.9 1.3q-1.5 0.6-3 1.1q-1.7 0.6-3.3 1.1q-1.7 0.6-3.4 1.1q-1.7 0.4-3.4 0.9q-1.7 0.4-3.4 0.8q-1.7 0.5-3.4 0.8q-1.8 0.4-3.5 0.7q-1.8 0.3-3.5 0.6q-1.8 0.2-3.6 0.4q-1.6 0.2-3.3 0.3q-1.7 0.2-3.3 0.3q-1.7 0.1-3.4 0.1q-1.7 0.1-3.3 0.1q-4 0.1-8-0.3q-4-0.3-8-1q-3.9-0.8-7.8-1.9q-3.8-1.2-7.5-2.7c-4.3-1.7-8.5-3.9-12.3-6.5c-3.9-2.6-7.4-5.5-10.7-8.8c-3.2-3.4-6.1-7-8.6-10.9c-2.5-3.9-4.5-8.1-6.2-12.4q-1.2-3.3-2.2-6.8q-0.9-3.4-1.5-6.9q-0.6-3.5-0.9-7q-0.3-3.6-0.3-7.1q-0.1-3.7 0.3-7.4q0.3-3.6 1-7.2q0.7-3.6 1.7-7.2q1-3.5 2.4-6.9q1.2-3.2 2.8-6.3q1.6-3.1 3.4-6q1.9-2.9 4-5.6q2.2-2.8 4.6-5.3q2.4-2.4 5-4.7q2.7-2.2 5.5-4.1q2.9-2 5.9-3.6q3.1-1.7 6.3-3q3.4-1.4 7-2.5q3.6-1.1 7.3-1.8q3.7-0.7 7.4-1q3.7-0.3 7.4-0.3q4-0.1 7.9 0.2q3.9 0.2 7.8 0.8q3.9 0.6 7.7 1.6q3.8 0.9 7.6 2.2q2.8 1.1 5.5 2.5q2.7 1.3 5.3 3q2.5 1.7 4.9 3.6q2.4 1.9 4.5 4l-13.2 14.3q-1.9-1.9-4-3.5q-2.2-1.7-4.4-3.1q-2.3-1.5-4.7-2.6q-2.5-1.2-5-2.1q-2.4-0.8-4.9-1.5q-2.5-0.6-5-1q-2.5-0.4-5.1-0.6q-2.5-0.2-5.1-0.2q-5.3-0.1-10.6 1q-5.2 1-10.1 3.1q-4.9 2.1-9.2 5.2q-4.4 3-8 7q-1.7 1.8-3.3 3.9q-1.5 2.1-2.8 4.3q-1.4 2.2-2.5 4.5q-1.1 2.3-2 4.7q-0.9 2.6-1.6 5.2q-0.7 2.6-1.1 5.3q-0.5 2.7-0.7 5.4q-0.2 2.7-0.2 5.4q0 2.8 0.2 5.6q0.2 2.8 0.8 5.5q0.5 2.8 1.3 5.5q0.7 2.6 1.8 5.2q1.9 4.9 4.7 9.3q2.9 4.4 6.5 8.1q3.7 3.7 8 6.7q4.3 2.9 9.1 5q2.5 1 5.1 1.8q2.6 0.8 5.3 1.4q2.7 0.5 5.4 0.7q2.7 0.3 5.4 0.2q2.4 0.1 4.8-0.1q2.3-0.1 4.7-0.3q2.3-0.2 4.7-0.6q2.3-0.3 4.6-0.8q2.1-0.4 4-0.9q2-0.5 4-1.2q1.9-0.7 3.8-1.5q1.9-0.8 3.7-1.7v-38.7h-26.9v-17.4zm48-60.8h18.7v138h-18.7zm54.7 0h107.7v17.6h-44.5v120.6h-18.7v-120.6h-44.5zm191.7 0l59.1 138.2h-21.9l-13.8-34.2h-65.8l-13.7 34.2h-21.8l60.6-138.5zm-35.8 87.3h51.9l-25.7-63.4zm129.3-87.3h18.8v120.6h63.4v17.5h-82.2zm118.1 0h54.2q1.9 0 3.9 0.2q1.9 0.1 3.8 0.3q2 0.2 3.9 0.6q1.9 0.3 3.8 0.8q1.8 0.4 3.6 1q1.8 0.6 3.5 1.4q1.7 0.7 3.3 1.7q1.6 0.9 3.1 2q1.5 1 2.9 2.3q1.4 1.2 2.6 2.5q1.2 1.4 2.3 2.9q1 1.5 1.9 3.1q1 1.8 1.7 3.8q0.7 1.9 1.2 4q0.5 2 0.7 4.1q0.2 2 0.1 4.1q0.1 2.6-0.3 5.2q-0.3 2.6-1.2 5.1q-0.8 2.5-2.1 4.7q-1.3 2.3-3 4.3q-1.8 2-3.7 3.6q-2 1.7-4.2 3.1q-2.2 1.4-4.6 2.4q-2.3 1.1-4.8 1.8q1.5 0.2 3.1 0.5q1.5 0.3 3 0.8q1.5 0.4 3 1q1.4 0.6 2.8 1.3q1.4 0.7 2.7 1.5q1.2 0.8 2.4 1.7q1.2 0.9 2.3 1.9q1.1 1 2.1 2.1q2.1 2.4 3.6 5q1.6 2.7 2.7 5.5q1 2.9 1.6 6q0.5 3 0.5 6.1q0.1 2.4-0.1 4.9q-0.3 2.4-0.9 4.8q-0.5 2.4-1.4 4.7q-0.9 2.3-2.1 4.4q-1.1 1.9-2.4 3.5q-1.3 1.7-2.8 3.2q-1.5 1.6-3.2 2.9q-1.6 1.3-3.4 2.5q-1.9 1.2-4 2.2q-2 1-4.1 1.8q-2.1 0.8-4.3 1.5q-2.2 0.6-4.4 1.1q-2.4 0.4-4.7 0.8q-2.4 0.3-4.8 0.6q-2.4 0.2-4.8 0.4q-2.5 0.1-4.9 0.1h-49.8zm24.6 56.1h22.5q2.4 0.2 4.8 0q2.4-0.2 4.8-0.8q2.3-0.6 4.6-1.6q2.2-0.9 4.2-2.3q1.5-1.1 2.6-2.5q1.2-1.4 2-3q0.8-1.7 1.2-3.5q0.4-1.7 0.3-3.6q0.1-1.9-0.2-3.8q-0.4-1.9-1.2-3.6q-0.9-1.8-2.1-3.3q-1.2-1.5-2.8-2.6q-2.3-1.3-4.8-2.2q-2.5-1-5.1-1.5q-2.6-0.6-5.2-0.8q-2.7-0.1-5.3 0.1h-20.3zm0 60.8h22.7q1.3 0.1 2.5 0q1.3 0 2.6 0q1.3-0.1 2.5-0.2q1.3-0.1 2.6-0.2q1.3-0.2 2.5-0.4q1.3-0.2 2.5-0.6q1.2-0.3 2.4-0.8q1.2-0.4 2.4-1q1.2-0.5 2.2-1.1q1.1-0.7 2.1-1.4q1-0.8 1.8-1.7q0.9-0.9 1.6-1.9q0.8-1.2 1.4-2.5q0.6-1.3 1-2.7q0.3-1.4 0.5-2.8q0.1-1.4 0.1-2.8q0.2-2.2-0.1-4.5q-0.4-2.2-1.3-4.2q-0.9-2.1-2.4-3.8q-1.5-1.7-3.3-3q-2.6-1.2-5.3-2.1q-2.7-0.9-5.6-1.5q-2.8-0.5-5.6-0.7q-2.9-0.2-5.7 0h-23.2zm112.9-117h48q2.4 0 4.8 0.1q2.4 0.1 4.8 0.3q2.4 0.3 4.8 0.6q2.4 0.4 4.7 0.8q2.2 0.4 4.4 1.1q2.1 0.6 4.2 1.4q2.1 0.8 4.1 1.8q2 1 3.9 2.1q1.8 1.1 3.4 2.5q1.6 1.3 3.1 2.8q1.5 1.6 2.7 3.2q1.3 1.7 2.3 3.6c1.7 3.5 2.9 7.3 3.6 11.1c0.7 3.9 0.8 7.8 0.5 11.7c-0.4 3.9-1.2 7.7-2.6 11.4c-1.4 3.6-3.2 7.1-5.5 10.3q-2.3 2.6-5 4.7q-2.7 2.1-5.7 3.7q-3.1 1.6-6.3 2.6q-3.3 0.9-6.8 1.3l36.8 61h-29.6l-32.1-58.5h-17.9v58.5h-24.6zm43.7 58.6c3.5 0 7 0 10.5-0.5q1.3-0.1 2.5-0.3q1.2-0.2 2.4-0.5q1.3-0.3 2.4-0.7q1.2-0.4 2.4-0.9q1.1-0.4 2.1-1q0.9-0.6 1.9-1.3q0.9-0.7 1.6-1.6q0.8-0.8 1.5-1.7q0.8-1.2 1.3-2.5q0.6-1.3 0.9-2.7q0.4-1.3 0.5-2.7q0.2-1.4 0.1-2.8q0-1.3-0.1-2.6q-0.1-1.2-0.5-2.5q-0.3-1.2-0.8-2.4q-0.5-1.2-1.2-2.2q-0.6-0.9-1.3-1.8q-0.8-0.8-1.6-1.5q-0.8-0.7-1.8-1.3q-0.9-0.6-1.9-1q-1.1-0.5-2.2-0.9q-1.1-0.3-2.2-0.7q-1.2-0.3-2.3-0.5q-1.2-0.2-2.4-0.3q-1.2-0.1-2.4-0.3q-1.2-0.1-2.4-0.1q-1.2-0.1-2.4-0.2q-1.2 0-2.4 0h-21.3v37.5zm98-58.6h24.5v138.1h-24.5zm70.4 0h54.5q3.3-0.1 6.7 0.2q3.3 0.3 6.6 0.8q3.3 0.5 6.6 1.3q3.2 0.8 6.4 1.9q3.1 1 6.1 2.3q2.9 1.3 5.8 2.9q2.8 1.6 5.5 3.5q2.6 1.9 5.1 4q2.4 2.3 4.7 4.8q2.2 2.5 4.2 5.2q1.9 2.7 3.5 5.6q1.7 2.9 3 6q1.6 3.7 2.7 7.5q1.2 3.7 1.9 7.6q0.8 3.9 1.1 7.9q0.3 3.9 0.2 7.9c0.2 5-0.3 9.9-1.3 14.8c-1 4.9-2.5 9.6-4.6 14.1c-2.1 4.5-4.7 8.8-7.8 12.7c-3 3.9-6.5 7.4-10.4 10.6q-2.6 2.1-5.5 3.9q-2.8 1.9-5.8 3.5q-2.9 1.6-6 2.9q-3.2 1.4-6.4 2.4q-3 1-6.2 1.8q-3.1 0.8-6.3 1.3q-3.2 0.5-6.4 0.8q-3.3 0.3-6.5 0.3h-51.6zm43 115.9q2.8 0 5.5-0.2q2.7-0.1 5.5-0.5q2.7-0.3 5.4-0.8q2.7-0.5 5.3-1.2q2.4-0.6 4.8-1.4q2.3-0.8 4.6-1.8q2.2-1.1 4.3-2.3q2.2-1.2 4.2-2.7q1.9-1.4 3.6-3q1.7-1.6 3.2-3.5q1.5-1.8 2.8-3.8q1.3-2 2.3-4.1q1.2-2.5 2-5.2q0.9-2.6 1.5-5.3q0.5-2.8 0.8-5.5q0.2-2.8 0.1-5.6q0.1-2.7-0.1-5.5q-0.3-2.7-0.7-5.4q-0.5-2.7-1.3-5.3q-0.7-2.7-1.8-5.2q-0.9-2.1-2-4.1q-1.1-2-2.5-3.8q-1.4-1.9-2.9-3.5q-1.6-1.7-3.4-3.2q-1.8-1.4-3.7-2.6q-2-1.2-4.1-2.3q-2-1-4.2-1.8q-2.1-0.8-4.4-1.5q-2.5-0.6-5.1-1.1q-2.6-0.5-5.2-0.8q-2.6-0.4-5.2-0.5q-2.6-0.2-5.3-0.2h-22.1v93.7zm236.1 12.1q-6.6 3.4-13.5 6q-7 2.6-14.2 4.3q-7.2 1.7-14.6 2.6q-7.4 0.8-14.8 0.7q-3.8 0-7.5-0.3q-3.7-0.3-7.4-0.9q-3.7-0.7-7.4-1.7q-3.6-1-7.1-2.3q-3.2-1.2-6.3-2.7q-3.1-1.5-6.1-3.4q-2.9-1.8-5.6-3.9q-2.7-2.2-5.2-4.6q-2.5-2.4-4.7-5q-2.2-2.7-4.2-5.6q-1.9-2.8-3.6-5.9q-1.6-3-2.9-6.2q-1.4-3.5-2.5-7.1q-1-3.7-1.7-7.4q-0.7-3.7-1-7.4q-0.4-3.8-0.3-7.5q-0.1-3.9 0.3-7.7q0.3-3.9 1-7.7q0.7-3.8 1.7-7.5q1.1-3.7 2.5-7.3q1.3-3.2 2.9-6.3q1.6-3.2 3.6-6.1q1.9-2.9 4.2-5.6q2.2-2.7 4.7-5.2q2.5-2.4 5.2-4.5q2.7-2.2 5.6-4.1q3-1.8 6.1-3.4q3.1-1.5 6.3-2.7q3.5-1.3 7.1-2.3q3.7-1 7.4-1.7q3.7-0.6 7.4-0.9q3.7-0.3 7.5-0.3q3.7 0 7.5 0.2q3.7 0.2 7.4 0.7q3.7 0.5 7.4 1.2q3.7 0.7 7.3 1.7q3.5 0.9 6.8 2.3q3.3 1.3 6.4 3q3.1 1.8 6.1 3.8q2.9 2.1 5.5 4.5l-18.1 18.3q-1.8-1.7-3.6-3.1q-1.9-1.5-3.9-2.7q-2.1-1.3-4.2-2.3q-2.2-1.1-4.4-1.9q-2.4-0.8-4.9-1.5q-2.5-0.6-5-1.1q-2.5-0.4-5-0.6q-2.6-0.2-5.2-0.2q-2.4-0.1-4.9 0.1q-2.5 0.3-5 0.7q-2.4 0.5-4.8 1.3q-2.4 0.7-4.7 1.7q-2.1 0.9-4.1 2q-2 1.1-3.9 2.4q-1.8 1.4-3.6 2.9q-1.7 1.5-3.3 3.2q-1.5 1.6-2.9 3.5q-1.4 1.8-2.7 3.7q-1.2 2-2.2 4q-1 2.1-1.8 4.2q-0.9 2.3-1.6 4.7q-0.6 2.4-1 4.8q-0.5 2.4-0.7 4.9q-0.2 2.5-0.1 4.9q-0.1 2.6 0.1 5.2q0.2 2.6 0.6 5.2q0.5 2.6 1.1 5.1q0.7 2.5 1.6 5q0.7 2.2 1.8 4.4q1 2.2 2.2 4.2q1.2 2 2.6 3.9q1.4 2 3 3.7q1.6 1.8 3.3 3.3q1.7 1.6 3.6 3q1.9 1.4 3.9 2.6q2 1.2 4.1 2.2q2.3 1 4.7 1.7q2.4 0.8 4.8 1.3q2.5 0.5 5 0.7q2.5 0.2 4.9 0.2q2.3 0 4.5-0.1q2.2-0.1 4.4-0.3q2.3-0.2 4.5-0.6q2.2-0.3 4.4-0.8q1.9-0.4 3.8-0.9q1.9-0.5 3.7-1.2q1.9-0.7 3.6-1.5q1.8-0.9 3.5-1.9v-32.6h-24.5v-22.1h49.1zm37.4-128h91.5v22.2h-67v34h55.9v22.2h-55.9v37.4h70.5v22.3h-95z" />
				<path id="Layer" class="s1" d="m882.8 160.4v31h-35.9v-18l35.9-13z" />
				<path id="Layer" class="s2" d="m937.7 140.5v50.8h-32.3v-39.1l32.3-11.7z" />
				<path id="Layer" class="s3" d="m990 121.5v69.9h-29.1v-59.3l29.1-10.6z" />
				<path id="Layer" class="s4" d="m1041.9 102.7v88.7h-26.2v-79.1l26.2-9.6z" />
				<path id="Layer" class="s5" d="m1094.3 83.7v107.7h-23.5v-99.2l23.5-8.5z" />
				<path id="Layer" class="s6" d="m1147.1 64.6v62.1l-21 7.6v-62.1l21-7.6z" />
				<path id="Layer" class="s7" d="m1204.5 43.8v62.1l-18.7 6.8v-62.1l18.7-6.8z" />
				<path id="Layer" class="s8" d="m1258.9 24.1v62.1l-16.5 6v-62.1l16.5-6z" />
				<path id="Layer" class="s9" d="m1298.8 9.7l14.3-5.3v62.2l-14.3 5.2v-62.1z" />
				<path id="Layer" class="s10" d="m1162 160.4v31h-35.9v-18l35.9-13z" />
				<path id="Layer" class="s11" d="m1218.1 140.1v51.2h-32.3v-39.5l32.3-11.7z" />
				<path id="Layer" class="s12" d="m1271.6 120.7v70.7h-29.1v-60.1l29.1-10.6z" />
				<path id="Layer" class="s13" d="m1324.9 101.4v89.9h-26.1v-80.4l26.1-9.5z" />
				<path id="Layer" class="s14" d="m1379.7 81.5v109.9h-23.6v-101.4l23.6-8.5z" />
				<path id="Layer" class="s6" d="m1434.8 61.5v129.9h-21v-122.3l21-7.6z" />
				<path id="Layer" class="s15" d="m1491.4 41v150.4h-18.6v-143.7l18.6-6.7z" />
				<path id="Layer" class="s16" d="m1547.3 20.8v170.5h-16.5v-164.6l16.5-5.9z" />
				<path id="Layer" class="s17" d="m1604.4 0v191.4h-14.3v-186.1l14.3-5.3z" />
			</g>
		</g>
	</g>
</svg>