<svg version="1.2" xmlns="http://www.w3.org/2000/svg" viewBox="0 0 1538 744" width="1538" height="744">
	<title>logo (12)-svg</title>
	<style>
		.s0 { fill: #ffffff } 
	</style>
	<g id="Layer_2">
		<g id="Layer_1-2">
			<g id="Layer">
				<path id="Layer" fill-rule="evenodd" class="s0" d="m55.2 739.4h-55.2v-152.9h61.3c41.2 0 67.2 36.2 67.2 76.5 0 43.2-28.4 76.4-73.3 76.4zm-3.7-127.8h-23.4l-0.2 102.7h22.9c6.7 0.3 13.4-0.9 19.7-3.3 6.2-2.5 11.9-6.2 16.6-10.9 4.8-4.8 8.5-10.5 10.9-16.8 2.4-6.2 3.5-12.9 3.2-19.6 0-28.8-13.7-52.1-49.7-52.1zm184.5 93.5l-60.7 0.3-12.8 34h-26.9l60.3-153.4h22.9l57.6 153.4h-27.8zm-30.1-81.8l-21.6 57.1h43l-21.1-57.1zm137.6 48l-15.5 17.4v50.6h-28.2v-152.9h28.2v66.3l57.4-66.3h29.8l-53.6 63.1 56.7 89.8h-32.5zm154.6 72.2c-37.1 0-76.8-27.5-76.8-80.3 0-55.1 39.7-81.1 76.8-81.1 36.9 0 76.6 29 76.6 81.6 0 53.2-39.7 79.8-76.6 79.8zm50-80.7c0-29.8-22.4-53.9-50.1-53.9-27.7 0-50.1 24.1-50.1 53.9 0 29.8 22.4 53.9 50.1 53.9 27.7 0 50.1-24.1 50.1-53.9zm117.5 76.6h-28.1l-0.2-127.8h-52v-25.1h132.2v25.1h-51.9zm140-34.3l-60.6 0.2-12.9 34.1h-26.8l60.2-153.4h22.9l57.6 153.4h-27.7zm-30.1-81.8l-21.6 57.1h42.9l-21.1-57.1zm270 107.3q-4.8 2.6-9.8 4.6-5.1 2-10.4 3.4-5.2 1.4-10.6 2.1-5.4 0.7-10.9 0.8c-33.1 0-69.6-27.5-69.6-79.4 0-52.6 37.1-78.3 69.8-78.3q4.3 0 8.5 0.3 4.2 0.4 8.3 1 4.2 0.7 8.3 1.7 4.1 0.9 8.1 2.2 4.3 1.8 8.4 4 4.1 2.2 8 4.8 3.9 2.5 7.5 5.5 3.6 2.9 6.9 6.2l-11.8 20.3q-2.9-2-5.8-3.9-2.9-1.8-5.9-3.6-3-1.7-6.1-3.4-3.1-1.6-6.2-3.1-3.4-1.3-6.9-2.4-3.4-1-7-1.7-3.6-0.6-7.2-0.9-3.6-0.3-7.3-0.2c-25.3 0-43.6 19.2-43.6 51.1 0 32 19.6 52.5 43.6 52.5q5.5 0 10.8-1 5.3-1 10.4-2.9 5.1-2 9.8-4.8 4.6-2.8 8.7-6.3v-21.8h-42.1l0.2-23.6h66.4v60.6q-2.5 2.5-5.2 4.7-2.6 2.3-5.4 4.3-2.9 2-5.8 3.8-3 1.8-6.1 3.4zm126.5 12.8c-37.1 0-76.8-27.4-76.8-80.2 0-55.2 39.7-81.2 76.8-81.2 36.8 0 76.5 29.1 76.5 81.6 0 53.2-39.7 79.8-76.5 79.8zm49.9-80.7c0-29.7-22.4-53.8-50-53.8-27.7 0-50.1 24.1-50.1 53.8 0 29.8 22.4 53.9 50.1 53.9 27.6 0 50-24.1 50-53.9zm53.9-76.3h28.1v126.3h79.9v26.6h-107.8zm188.9 152.9h-55.2v-152.9h61.3c41.2 0 67.2 36.2 67.2 76.6 0 43.2-28.4 76.3-73.3 76.3zm-3.7-127.8h-23.4l-0.2 102.7h22.9c6.7 0.3 13.4-0.8 19.6-3.3 6.3-2.4 12-6.2 16.7-10.9 4.7-4.8 8.4-10.5 10.9-16.7 2.4-6.3 3.5-13 3.2-19.7 0-28.8-13.8-52.1-49.7-52.1z"/>
			</g>
			<g id="Layer">
				<path id="Layer" class="s0" d="m470.3 155.1l139.9 67.1v163l-140-69 0.1-161.1z"/>
				<path id="Layer" class="s0" d="m622.7 230.2l139.9 67.1v163l-140-69 0.1-161.1z"/>
				<path id="Layer" class="s0" d="m1067.7 155.1l0.1 161.1-140.1 69v-163l140-67.1z"/>
				<path id="Layer" class="s0" d="m915.3 230.2l0.1 161.1-140.1 69 0.1-163 139.9-67.1z"/>
				<g id="Layer">
					<path id="Layer" class="s0" d="m610.2 75.1v130.2l-132.4-65 132.4-65.2z"/>
					<path id="Layer" class="s0" d="m762.6 162.9l-120.7 58-19.3-9.5v-142.5l140-68.9v162.9z"/>
					<path id="Layer" class="s0" d="m927.7 75.1l132.5 65.2-132.5 65v-130.2z"/>
					<path id="Layer" class="s0" d="m915.3 68.9v142.5l-19.3 9.5-120.7-58v-162.9l140 68.9z"/>
				</g>
			</g>
		</g>
	</g>
</svg>