<svg version="1.2" xmlns="http://www.w3.org/2000/svg" viewBox="0 0 1519 1530" width="1519" height="1530">
	<title>DCGO_BIG copy-svg</title>
	<style>
		.s0 { fill: #131e29 } 
	</style>
	<g id="e9740d5d-8128-4558-8bf1-164f7628d4cb">
		<g id="b7d718dc-134f-4bbe-a359-862c8460146d">
			<g id="Layer">
				<g id="Layer">
					<path id="Layer" fill-rule="evenodd" class="s0" d="m735.7 1.2c205.7-4.8 404.8 73.3 552 217.1 147.3 143.8 230.4 341.1 230.4 546.8 0 206.1-83.1 403-230.4 546.9-147.2 143.8-346.3 222.2-552 217.1h-735.7v-873.6h642.1l-152-151.8 154.9-154.2 417.1 416.3-417.1 417.2-153-153.3 153.6-153.6h-425v437.4h515.1c144.4 0 283.1-57.5 385.2-159.6 102.1-102.1 159.6-240.8 159.6-385.3 0-144.4-57.5-283.2-159.6-385.3-102.1-102.4-240.8-159.6-385.2-159.6h-735.7v-220.6h735.7z"/>
				</g>
			</g>
		</g>
	</g>
</svg>