<svg version="1.2" xmlns="http://www.w3.org/2000/svg" viewBox="0 0 1550 955" width="1550" height="955">
	<title>202211-Investor-Presentation-Final-1-pdf-svg</title>
	<defs>
		<clipPath clipPathUnits="userSpaceOnUse" id="cp1">
			<path d="m-1942.39-709.29h5430.35v4196.58h-5430.35z"/>
		</clipPath>
	</defs>
	<style>
		.s0 { fill: #15386b } 
		.s1 { fill: #abc813 } 
	</style>
	<g id="Clip-Path: Page 1" clip-path="url(#cp1)">
		<g id="Page 1">
			<path id="Path 5" fill-rule="evenodd" class="s0" d="m448.5 711.9c0 160.4-83 242.7-246.9 242.7h-201.5v-468.3h205.7c156.3 0 242.7 79.2 242.7 225.6zm-265.7-105.3h-20.6v226.3h24.7c67.5 0 99.8-34.6 99.8-113.8 0-95.4-34-112.5-103.9-112.5zm289.7-120.3h162.1v468.3h-162.1zm538.9 0h191.6v468h-148.1v-146.4l1.7-71.7 1.8-9.6-64.1 227.7h-114.6l-64.1-227.7 2.4 65.9v161.8h-147.4v-468h192l74.7 263.3zm538.3 345.6v122.8h-319.5v-468.4h310.2v120.4h-145.7v61.7h149.2v109.3h-149.2v54.2z"/>
			<path id="Path 11" class="s1" d="m1543.8 429.7h-1062.4l1062.4-429.6z"/>
		</g>
	</g>
</svg>