<svg version="1.2" xmlns="http://www.w3.org/2000/svg" viewBox="0 0 1023 1572" width="1023" height="1572">
	<title>b3244509-72b3-4b7e-9875-1607b9ac4dff-svg</title>
	<style>
		.s0 { fill: #ffffff } 
	</style>
	<g id="#0a6b42ff">
		<path id="Layer" fill-rule="evenodd" class="s0" d="m256.5 16.8c52.6-22.8 115.5-22.4 166.6 4.2 36.5 18.6 65.4 49 88.2 82.6 26-38 59.9-72.2 103.1-89.5 54.2-22 118.1-17.2 169 11.3 39.2 21.8 69.1 59.8 80.3 103.2 14.1 52.4 3.6 108.8-21.2 156.2-22.3 44.1-55.9 81.1-92.6 113.6 102.3 57 187.4 147 232.8 255.6 53.4 126.1 52.6 274.2-2.6 399.6-24.6 56.3-59.7 107.8-102.7 151.6-107.2 107.4-214.5 214.8-321.8 322.3-15 14.4-28.8 30.1-44.6 43.6-101.1-101.2-202.2-202.3-303.2-303.6-44.6-45.2-92.7-88.1-126.5-142.5-78.8-120.3-100.7-275.1-61.3-413.1 37-133.4 132.8-247.2 253.4-313.4-41.1-35.4-77.7-77.5-99.8-127.5-22.4-49.1-28.6-107.3-9.4-158.5 15.9-42.9 50.4-77.9 92.3-95.7zm22.3 114.4c-17.1 17.5-19.9 44.4-14.6 67.4 7.9 34.1 28 64.2 51.6 89.6 46.5 49.4 106.9 84.1 170.5 106.2-0.8-27.7-5.8-55-10.9-82.1-10.9-52.2-25.8-104.9-55.4-149.8-17.2-25.9-42.9-49.2-75.1-52.6-23.5-1.9-48.9 4.4-66.1 21.3zm365-9.8c-35.7 22-55.4 61.5-70.5 99.2-20.4 55.3-33.6 113.8-36.6 172.7 34.4-9.7 66.3-26.7 96.6-45.3 48.3-30.4 93.1-70.8 116.7-123.8 12.5-28.3 17.3-65.2-4-90.6-25.3-27.4-70.9-31.1-102.2-12.2zm-278.2 355.2c-63.1 24.2-117.9 66.7-162.1 117.4-35.6 42.4-62.1 92.4-77.7 145.6-39.5 130.4-4.5 280.1 88.8 379.4 90.5 91.2 181.6 181.8 272.2 272.9 8 8.6 16.3 17 26.1 23.6 96-95.7 191.4-191.9 287.4-287.6 48.6-49.6 83.5-112.3 100.6-179.7 25.8-104.5 9.7-220.2-50-310.6-40.3-62.3-96.5-115.1-163.4-147.7-99-49.7-219.2-54.8-321.9-13.3z"/>
	</g>
</svg>