<svg version="1.2" xmlns="http://www.w3.org/2000/svg" viewBox="0 0 1521 1541" width="1521" height="1541">
	<title>5a4f4c_ff212a28040f4b24a0ffdcd21c41415a_mv2_d_1596_1995_s_2 (1)-svg</title>
	<style>
		.s0 { fill: #f8f8fa } 
		.s1 { fill: #e6e7e8 } 
		.s2 { fill: #cc4527 } 
		.s3 { fill: #bcbdc0 } 
		.s4 { fill: #8f2c13 } 
		.s5 { fill: #a53523 } 
		.s6 { fill: #6c0000 } 
		.s7 { fill: #7b1405 } 
		.s8 { fill: #881e0c } 
		.s9 { fill: #efeeee } 
		.s10 { fill: #a7a9ac } 
		.s11 { fill: #9b3220 } 
		.s12 { fill: #cbcaca } 
	</style>
	<g id="#f8f8faff">
		<path id="Layer" class="s0" d="m571 387.6l3.9 1.8c41.5 28.6 83.5 56.5 125.1 84.7 146.5 99.2 293.5 197.7 439.7 297.4 0.4 0.3 1.1 0.9 1.5 1.2l-1.8 0.8c-7.1 2.7-13.3 7.4-19.5 11.7-183 123.6-366 247.1-548.9 370.8 0.1-256.1 0.1-512.3 0-768.4z"/>
	</g>
	<g id="#e6e7e8ff">
		<path id="Layer" class="s1" d="m758.8 1c58 30.5 117 59.2 175.4 88.9 50.4 24.8 99.7 51.5 150.2 76.3 99.8 49.7 198.7 101.2 298.5 150.9 45.9 23 91.6 46.4 137.1 69.8l-1.6 0.1c-6-0.1-11.9-0.2-17.9-0.1-277.6-0.1-555.1 0-832.7 0 29.4-115.8 55.9-232.3 84.6-348.3 2.2-7.7 2.7-15.7 2.8-23.7 1.7-3.8 3.8-7.6 3.5-11.9z"/>
	</g>
	<g id="#cc4527ff">
		<path id="Layer" class="s2" d="m1.3 387c252.4-128.2 505.2-255.5 757.4-384 0.3 4.3-1.8 8.1-3.5 11.9-20 37.2-37.6 75.7-56.6 113.4-42.8 86.1-85 172.5-127.9 258.6-151.3 0.4-302.8 0-454.2 0.1-38.4-0.2-76.8 0-115.2 0z"/>
	</g>
	<g id="#bcbdc0ff">
		<path id="Layer" class="s3" d="m698.6 128.3c19-37.7 36.6-76.2 56.6-113.4-0.1 8-0.6 16-2.8 23.7-28.7 116-55.2 232.5-84.6 348.3-31.6 0-63.1 0-94.6 0h-2.5c42.9-86.1 85.1-172.5 127.9-258.6z"/>
	</g>
	<g id="#8f2c13ff">
		<path id="Layer" class="s4" d="m1.3 387c38.4 0 76.8-0.2 115.2 0 144.3 243.5 288.1 487.4 432.2 730.9 1.3 2.9 1.5 6 0.6 9.2-181.9-245.8-363.9-491.6-545.9-737.4z"/>
	</g>
	<g id="#a53523ff">
		<path id="Layer" class="s5" d="m116.5 387c151.4-0.1 302.9 0.3 454.2-0.1h2.5l1.7 2.5-3.9-1.8c0.1 256.1 0.1 512.3 0 768.4-0.4-0.6-1.2-1.6-1.6-2.2-7-8.7-13.6-17.6-20.1-26.7 0.9-3.2 0.7-6.3-0.6-9.2-144.1-243.5-287.9-487.4-432.2-730.9z"/>
	</g>
	<g id="#6c0000ff">
		<path id="Layer" class="s6" d="m573.2 386.9c31.5 0 63 0 94.6 0 277.6 0 555.1-0.1 832.7 0-4.5 1.4-8.8 2.9-13.4 3.8-262.4 27.4-524.7 55.7-787.1 83.4-41.6-28.2-83.6-56.1-125.1-84.7z"/>
	</g>
	<g id="#7b1405ff">
		<path id="Layer" class="s7" d="m1500.5 386.9c6-0.1 11.9 0 17.9 0.1-30.5 34-64.7 64.7-96.1 98-21.3 25.4-46 47.7-69.2 71.3-45.8 46.1-91.6 92.1-137.5 138-13.5 14.1-28.2 27-40.7 42-10.7 12.7-22.7 24.3-35.2 35.2-146.2-99.7-293.2-198.2-439.7-297.4 262.4-27.7 524.7-56 787.1-83.4 4.6-0.9 8.9-2.4 13.4-3.8z"/>
	</g>
	<g id="#881e0cff">
		<path id="Layer" class="s8" d="m1518.4 387l1.6-0.1c-0.2 256.5-0.2 512.9 0 769.3-24.5-25.6-49.8-50.3-74.7-75.5-35.8-38.5-73.8-74.9-110.4-112.6-41.2-41.4-82.2-83-123.5-124.3-22.6-24.5-45.9-48.4-70.2-71.1-0.4-0.3-1.1-0.9-1.5-1.2 12.5-10.9 24.5-22.5 35.2-35.2 12.5-15 27.2-27.9 40.7-42 45.9-45.9 91.7-91.9 137.5-138 23.2-23.6 47.9-45.9 69.2-71.3 31.4-33.3 65.6-64 96.1-98z"/>
	</g>
	<g id="#efeeeeff">
		<path id="Layer" class="s9" d="m3.4 389.7c182 245.8 364 491.6 545.9 737.4 6.5 9.1 13.1 18 20.1 26.7-11.8 4.1-24.5 1.9-36.7 2.4-176.7 0.2-353.5-0.6-530.1 0.4l-1.5 0.1c-0.9-244.1-0.1-488.3-0.4-732.4 0.3-11.5-1.8-23.6 2.7-34.6z"/>
	</g>
	<g id="#a7a9acff">
		<path id="Layer" class="s10" d="m1119.9 785.2c6.2-4.3 12.4-9 19.5-11.7-115.1 233.8-230.7 467.3-345.9 701.1-10.3 21.9-22.5 43.1-31.5 65.6l-0.2 0.6c-0.7-0.6-2.3-1.7-3-2.3-20.9-47.7-45.7-93.6-68.3-140.5-40.1-80.6-79.3-161.6-119.5-242 182.9-123.7 365.9-247.2 548.9-370.8z"/>
	</g>
	<g id="#9b3220ff">
		<path id="Layer" class="s11" d="m1139.4 773.5l1.8-0.8c24.3 22.7 47.6 46.6 70.2 71.1 41.3 41.3 82.3 82.9 123.5 124.3 36.6 37.7 74.6 74.1 110.4 112.6 24.9 25.2 50.2 49.9 74.7 75.5-252.6 128-505.4 255.8-758 384 9-22.5 21.2-43.7 31.5-65.6 115.2-233.8 230.8-467.3 345.9-701.1z"/>
	</g>
	<g id="#cbcacaff">
		<path id="Layer" class="s12" d="m569.4 1153.8c0.4 0.6 1.2 1.6 1.6 2.2 40.2 80.4 79.4 161.4 119.5 242 22.6 46.9 47.4 92.8 68.3 140.5-29.6-12.4-57.5-28.7-86.4-42.6-223.3-113.1-446.6-226.1-669.8-339.3 176.6-1 353.4-0.2 530.1-0.4 12.2-0.5 24.9 1.7 36.7-2.4z"/>
	</g>
</svg>