<svg version="1.2" xmlns="http://www.w3.org/2000/svg" viewBox="0 0 1505 928" width="1505" height="928">
	<title>5a4f4c_ff212a28040f4b24a0ffdcd21c41415a_mv2_d_1596_1995_s_2 (1)-svg</title>
	<style>
		.s0 { fill: #f8f8fa } 
		.s1 { fill: #e6e7e8 } 
		.s2 { fill: #cc4527 } 
		.s3 { fill: #bcbdc0 } 
		.s4 { fill: #8f2c13 } 
		.s5 { fill: #a53523 } 
		.s6 { fill: #6c0000 } 
		.s7 { fill: #7b1405 } 
		.s8 { fill: #881e0c } 
		.s9 { fill: #efeeee } 
		.s10 { fill: #a7a9ac } 
		.s11 { fill: #9b3220 } 
		.s12 { fill: #cbcaca } 
	</style>
	<g id="#f8f8faff">
		<path id="Layer" class="s0" d="m675.1 158.7l1.6 0.7c16.9 11.7 34.1 23.1 51.1 34.6 59.8 40.5 119.8 80.7 179.5 121.4 0.2 0.1 0.5 0.4 0.6 0.5l-0.7 0.3c-2.9 1.1-5.4 3.1-8 4.8-74.7 50.5-149.4 100.9-224.1 151.4q0.1-156.9 0-313.7z"/>
	</g>
	<g id="#e6e7e8ff">
		<path id="Layer" class="s1" d="m751.8 0.8c23.7 12.5 47.8 24.2 71.6 36.3 20.6 10.1 40.7 21.1 61.3 31.2 40.8 20.2 81.2 41.3 121.9 61.6 18.7 9.4 37.4 18.9 56 28.5h-0.6c-2.5 0-4.9-0.1-7.4 0-113.3-0.1-226.6 0-340 0 12-47.3 22.9-94.9 34.6-142.2 0.9-3.2 1.1-6.4 1.1-9.7 0.7-1.5 1.6-3.1 1.5-4.9z"/>
	</g>
	<g id="#cc4527ff">
		<path id="Layer" class="s2" d="m442.5 158.4c103.1-52.3 206.3-104.3 309.3-156.8 0.1 1.8-0.8 3.4-1.5 4.9-8.1 15.2-15.3 30.9-23.1 46.3-17.4 35.2-34.7 70.4-52.2 105.6-61.8 0.1-123.6 0-185.4 0-15.7-0.1-31.4 0-47.1 0z"/>
	</g>
	<g id="#bcbdc0ff">
		<path id="Layer" class="s3" d="m727.2 52.8c7.8-15.4 15-31.1 23.1-46.3 0 3.3-0.2 6.5-1.1 9.7-11.7 47.3-22.6 94.9-34.6 142.2-12.8 0-25.7 0-38.6 0h-1c17.5-35.2 34.8-70.4 52.2-105.6z"/>
	</g>
	<g id="#8f2c13ff">
		<path id="Layer" class="s4" d="m442.5 158.4c15.7 0 31.4-0.1 47.1 0 58.9 99.5 117.6 199 176.4 298.5q0.8 1.7 0.3 3.7-111.4-150.6-222.9-301.1z"/>
	</g>
	<g id="#a53523ff">
		<path id="Layer" class="s5" d="m489.6 158.4c61.8 0 123.6 0.1 185.4 0h1l0.7 1-1.6-0.7q0.1 156.8 0 313.7c-0.1-0.2-0.5-0.7-0.6-0.9-2.9-3.5-5.6-7.2-8.2-10.9q0.5-2-0.3-3.7c-58.8-99.5-117.5-199-176.4-298.5z"/>
		<path id="Layer" fill-rule="evenodd" class="s5" d="m874.1 754.7c18-5 36.9-5.4 55.3-3 21.7 3.1 43.4 12 58.3 28.5q-15.1 13.6-30.1 27.4c-19.1-19-50.1-23.7-74.6-13.2-12.2 5.2-21.9 15.9-25.6 28.7-4.8 16.9-1.4 36.7 10.9 49.7 11 11.8 27.6 16.9 43.4 16.7 12.6-0.5 25.6-2.3 36.8-8.4 1.1-0.9 2.9-1.3 3.5-2.8 0-4.8-0.1-9.7 0-14.5-11.3-0.1-22.6 0-33.9-0.1q0.1-17.5 0-35 39.1-0.1 78.3 0c-0.1 24.2 0.1 48.4-0.1 72.6-12.3 8.3-25.4 15.7-39.7 20-16.1 5.1-33 6.9-49.8 6.6-30.9 0.6-63.2-11.3-82.9-35.8-23-28.5-24.3-72.4-2.5-102 12.6-17.6 32-29.7 52.7-35.4zm271.7-3.2c29-3.7 60.3 0.6 84.7 17.6 22.6 15.1 37.1 41.7 36.8 69 0.6 23.2-9 46.5-25.9 62.4-20.2 19.2-48.6 27.9-76.1 27.4-22.4 0.5-45.2-4.9-64-17.1-15.2-9.8-27.3-24.4-33.6-41.3-10.1-27-6-59.3 12-82 15.8-20.7 40.8-32.5 66.1-36zm10.1 38.6c-16 2-31.4 11.6-38.6 26.3-7.8 15.5-6.8 35.1 2.5 49.7 12.8 20.5 40.4 26.9 62.6 20.3 11.7-3.4 22.2-11.1 28.3-21.6 6.2-10.1 8-22.5 6.2-34.1-1.9-14-10.7-26.8-23-33.8-11.4-6.7-25.1-8.4-38-6.8zm-1155.8-36.6c18.3-0.1 36.5 0 54.8 0 13 0.1 26.2-0.9 38.9 2.8 12.5 3.3 24.2 10.6 31.3 21.6 14.8 23.1 10.5 57.8-12.2 74.4-10.5 8-23.7 11.7-36.8 12.5-9.4 0.2-18.8 0-28.3 0.1 0.1 20 0 40 0.1 60-15.9 0-31.9 0-47.8 0q0.1-85.7 0-171.4zm47.7 36.1c0.1 13.1 0.1 26.2 0 39.2 9-0.5 18.5 1.6 26.9-2.3 12.6-6 13.6-26.3 1.9-33.8-8.6-5.2-19.2-2.5-28.8-3.1zm154.9-36.1q23.9-0.1 47.9 0c-0.1 44.6 0 89.3-0.1 133.9 19.6 0.1 39.1 0 58.6 0.1 0 12.4-0.1 24.9 0 37.3-35.5 0.1-70.9 0.1-106.4 0.1 0.1-57.2 0-114.3 0-171.4zm226.3 0.1c16.8-0.2 33.6-0.1 50.4-0.1 22.6 57 44.9 114.2 67.6 171.3-16 0.2-32-0.1-47.9 0.1-5.1-12.6-9.4-25.6-14.2-38.4q-30.6-0.1-61.3 0c-4.7 12.7-9.3 25.5-13.9 38.3-16.1 0.1-32.2 0.1-48.3 0.1 22.7-57.1 45.1-114.2 67.6-171.3zm25.2 44.6q-9.3 27-18.3 54c12.3-0.1 24.6 0 36.9-0.1-6.5-17.8-12.1-36-18.6-53.9zm128.6-44.7c17.9-0.1 35.8 0 53.7 0 17.9 31.3 35.8 62.6 53.5 93.9 0.3 25.8 0 51.6 0.1 77.5-15.8 0-31.7 0-47.5 0 0-25.3 0-50.5 0-75.7 0.3-1.6-0.8-2.9-1.6-4.1-19.4-30.5-38.7-61.1-58.2-91.6zm755.4 0c16.2 0 32.5-0.1 48.7 0 23.6 35.4 47.5 70.7 71.2 106 0-35.2 0.2-70.5 0-105.7 15.5-0.7 31.2-0.2 46.9-0.3-0.2 57.1 0 114.3-0.1 171.4-15.7 0-31.4-0.1-47.1 0-24.6-34.7-48.3-70.1-72.9-104.9 0.1 34.9-0.1 69.9 0.1 104.8-15.6 0.1-31.2 0.1-46.8 0.1q0-85.7 0-171.4z"/>
	</g>
	<g id="#6c0000ff">
		<path id="Layer" class="s6" d="m676 158.4c12.9 0 25.8 0 38.6 0 113.4 0 226.7-0.1 340 0-1.8 0.5-3.6 1.2-5.4 1.5-107.2 11.2-214.3 22.8-321.4 34.1-17-11.5-34.2-22.9-51.1-34.6z"/>
	</g>
	<g id="#7b1405ff">
		<path id="Layer" class="s7" d="m1054.6 158.4c2.5-0.1 4.9 0 7.4 0-12.5 13.9-26.5 26.4-39.3 40-8.7 10.4-18.8 19.5-28.3 29.2q-28 28.2-56.1 56.3c-5.5 5.7-11.5 11-16.6 17.1-4.4 5.2-9.3 9.9-14.4 14.4-59.7-40.7-119.7-80.9-179.5-121.4 107.1-11.3 214.2-22.9 321.4-34.1 1.8-0.3 3.6-1 5.4-1.5z"/>
	</g>
	<g id="#881e0cff">
		<path id="Layer" class="s8" d="m1062 158.4h0.6q-0.1 157 0 314.1c-10-10.5-20.3-20.6-30.5-30.8-14.6-15.8-30.1-30.6-45.1-46-16.8-16.9-33.6-33.9-50.4-50.8-9.2-10-18.7-19.7-28.7-29-0.1-0.1-0.4-0.4-0.6-0.5 5.1-4.5 10-9.2 14.4-14.4 5.1-6.1 11.1-11.4 16.6-17.1q28.1-28.1 56.1-56.3c9.5-9.7 19.6-18.8 28.3-29.2 12.8-13.6 26.8-26.1 39.3-40z"/>
	</g>
	<g id="#efeeeeff">
		<path id="Layer" class="s9" d="m443.4 159.5q111.5 150.5 222.9 301.1c2.6 3.7 5.3 7.4 8.2 10.9-4.9 1.7-10 0.8-15 1-72.2 0.1-144.3-0.3-216.4 0.1l-0.7 0.1c-0.3-99.7 0-199.4-0.1-299.1 0.1-4.7-0.7-9.6 1.1-14.1z"/>
	</g>
	<g id="#a7a9acff">
		<path id="Layer" class="s10" d="m899.2 321c2.6-1.7 5.1-3.7 8-4.8-47 95.5-94.2 190.8-141.2 286.3-4.2 8.9-9.2 17.6-12.9 26.8l-0.1 0.2c-0.3-0.2-0.9-0.7-1.2-0.9-8.5-19.5-18.6-38.3-27.9-57.4-16.4-32.9-32.3-66-48.8-98.8 74.7-50.5 149.4-100.9 224.1-151.4z"/>
		<path id="Layer" class="s10" d="m697.1 753.5c17.5 0 35.1-0.1 52.7 0-17.7 28.3-35.9 56.2-53.5 84.6-0.3-0.2-0.8-0.5-1.1-0.6q-11.2-19.8-22.5-39.5c8-14.9 16.2-29.7 24.4-44.5z"/>
	</g>
	<g id="#9b3220ff">
		<path id="Layer" class="s11" d="m907.2 316.2l0.7-0.3c10 9.3 19.5 19 28.7 29 16.8 16.9 33.6 33.9 50.4 50.8 15 15.4 30.5 30.2 45.1 46 10.2 10.2 20.5 20.3 30.5 30.8-103.2 52.3-206.4 104.4-309.5 156.8 3.7-9.2 8.7-17.9 12.9-26.8 47-95.5 94.2-190.8 141.2-286.3z"/>
	</g>
	<g id="#cbcacaff">
		<path id="Layer" class="s12" d="m674.5 471.5c0.1 0.2 0.5 0.7 0.6 0.9 16.5 32.8 32.4 65.9 48.8 98.8 9.3 19.1 19.4 37.9 27.9 57.4-12.1-5.1-23.5-11.8-35.3-17.4-91.1-46.2-182.3-92.3-273.4-138.6 72.1-0.4 144.2 0 216.4-0.1 5-0.2 10.1 0.7 15-1z"/>
	</g>
</svg>