<svg version="1.2" baseProfile="tiny-ps" xmlns="http://www.w3.org/2000/svg" viewBox="0 0 1671 1500" width="1671" height="1500">
	<title>Screenshot 2021-12-15 at 08-svg</title>
	<style>
		tspan { white-space:pre }
		.s0 { fill: #ffffff } 
	</style>
	<g id="#467ddbff">
		<path id="Layer" fill-rule="evenodd" class="s0" d="m427.32 0.7c12.77 0.77 25.43 2.79 37.95 5.52c67.6 12.44 132.68 40.1 187.36 81.95c46.48 35.84 85.62 81.64 111.72 134.34c11.6 22.09 20.56 45.49 27.45 69.47c8.71 29.8 14.39 60.65 14.99 91.74c-18.53 0.15-37.05 0.03-55.59 0.07c-0.26 6.52-0.31 13.06-0.86 19.56c-1.26 12.25 1.08 24.47 0.57 36.73c18.64 0.29 37.27 0 55.91 0.17c-0.89 39.64-9.91 78.68-22.77 116.05c-22.91 64.36-62.95 122.41-114.75 166.92c-57.58 49.79-129.17 82.36-203.79 96.37c-12.56 2.72-25.26 5.14-38.17 5.14c-0.07-274.68-0.02-549.36-0.02-824.04zm256.62 253.69c-37.55 36.01-59.16 86.95-62.99 138.5c-1.07 22.59-0.62 45.42 3.85 67.67c10.07 47.61 35.09 92.99 73.91 123.05c11.36-20.54 20.26-42.36 27.47-64.67c-19.91-24.19-30.77-54.87-33.66-85.84c-3.98-22.28-0.1-44.92 4.11-66.86c5.03-19.67 13.25-38.76 25.52-55.04c1.98-2.87 4.82-6.18 3.03-9.86c-6.85-20.66-15.18-40.91-26.02-59.84c-5.63 3.61-10.6 8.09-15.23 12.89zm-46.03-253.24c67.27-1.02 134.59-0.14 201.9-0.45c109.83-1.6 219.31 45.37 293.64 126.27c79.3 83.46 118.64 201.59 110.36 315.92c-3.61 49.71-15.56 98.88-35.98 144.37c-22.18 49.41-54.16 94.47-93.79 131.39c-46.29 43.12-102.89 75.2-163.93 92c-17.07 5.28-34.8 7.93-52.33 11.11c-21.48 2.94-43.19 3.8-64.84 3.6c-54.5 0-108.98 0-163.49 0c-10.31-0.09-20.63 0.34-30.92-0.45c6.02-5.14 12.96-9.02 19.62-13.25c27.6-17.51 52.97-38.37 76.61-60.89c23.82-24.09 45.48-50.38 63.78-78.92c10.19-15.17 18.05-31.69 27.04-47.57c16.81 0.43 33.64 0.46 50.46 0.12c30.29-3.17 60.42-11.75 86.44-27.89c23.03-13.63 42.68-32.16 60.49-51.94c-15.78-13.28-30.12-28.32-46.65-40.67c-19.82 21.64-44.02 39.85-71.93 49.55c-17.28 5.37-35.31 8.91-53.49 7.74c2.1-9.6 5.08-18.98 7.66-28.46c6.9-30.38 12.41-61.22 13.25-92.43c53.4-0.21 106.78-0.05 160.18-0.09c2.98-12.1 1.58-24.62 1.77-36.94c-1.86-37.03-10.15-74.26-27.96-107c-11.44-22.47-28.45-41.57-47.53-57.81c-24.21-19.06-53.54-31.35-84.03-35.6c-14.77-3.23-29.93-1.31-44.86-1.93c-4.58 0.17-5.61-5.3-7.71-8.33c-40.46-80.24-105.78-147.07-183.72-191.47zm213.38 263.13c15.47-1.15 30.48 4.2 44.11 10.99c28.69 14.56 48.01 43.03 57.65 73.07c3.36 11.97 7.78 24.04 6.64 36.68c-29.27-0.15-58.53 0.05-87.8-0.1c-1.02-26.17-4.06-52.3-9.91-77.85c-2.39-14.56-7.55-28.42-10.69-42.79z" />
	</g>
	<g id="#000000ff">
		<path id="Layer" fill-rule="evenodd" class="s0" d="m200.52 1075.09c8.17-2.41 16.78-1.1 25.18-1.39c3.03-0.55 4.2 3.23 3.79 5.63c-0.14 51.1 0.19 102.2-0.15 153.26c-0.52 0.57-1.51 1.69-2.01 2.25c-8.93-0.14-18.09 1.1-26.79-1.31c0.12-52.82 0.12-105.64 0-158.44zm74.5-1.34c9.83 0.05 19.67-0.31 29.5 0.12c2.72 1.74 3.44 5.04 4.63 7.85c12.44 31.64 24.83 63.31 37.33 94.94c2.31 6.49 4.96 12.87 7.99 19.08c15.76-40.29 31.61-80.54 47.19-120.88c10.43-0.14 20.87-0.22 31.3 0.09c-21.96 53.56-44.33 106.96-66 160.64c-8.72 0.07-17.45 0.17-26.16-0.09c-19.07-47.09-38.82-93.91-58.06-140.93c-2.81-6.85-6.28-13.51-7.71-20.82zm202.95 2.37c0.55-0.57 1.65-1.7 2.19-2.27c36.16-0.38 72.31 0.02 108.47-0.19c3.15 0.14 6.9-0.72 9.07 2.25c0.4 7.81 0.02 15.66 0.17 23.48c-30.36 0.33-60.71 0.02-91.09 0.15c-0.19 13.7-0.09 27.39-0.05 41.09c26.9 0.14 53.81-0.12 80.73 0.14c-0.31 8.53 0.89 17.22-1.03 25.64c-26.57-0.09-53.14-0.03-79.7-0.02c-0.1 14.26 0 28.54-0.07 42.82c30.61 0.1 61.25 0.03 91.86 0.03c-0.05 8.57 0.17 17.14-0.24 25.7c-38.81-0.12-77.61 0.03-116.42-0.09c-3.01 0.31-4.65-3.1-4.06-5.66c0.14-51.03-0.22-102.08 0.17-153.09zm354.09 32.55c4.22-21.33 26-36.68 47.32-35.82c12.08 0.36 24.7-1.43 36.23 3.18c10.65 3.2 20.19 9.08 29.15 15.55c-4.66 7.57-10.02 14.69-15.13 21.95c-13.03-8.36-27.4-16.65-43.37-16.33c-7.38-0.45-14.95 1.7-20.69 6.4c-5.37 4.28-6.81 11.96-5.03 18.34c1.29 5.59 6.68 8.96 11.51 11.3c20.1 8.74 43.56 9.1 61.64 22.45c9.84 6.76 15.87 18.43 15.52 30.4c1.1 13.57-3.67 27.75-14.01 36.87c-12.01 10.27-28.24 14.35-43.8 14.14c-24.39-0.12-49.41-9.03-66.81-26.43c6.02-6.57 11.27-13.83 17.67-20.08c14.15 12.99 33.09 22.07 52.64 20.77c9.72 0.1 20.84-4.42 24.83-13.83c0.24-5.51 1.98-12.47-2.48-16.72c-5.73-6.69-14.73-8.71-22.72-11.34c-18.98-5.06-40.36-8.26-54.57-23.07c-9.45-10.2-9-24.81-7.95-37.75zm170.82 1.77c0.43-12.27-1.07-24.69 1.22-36.82c9.22 0.57 18.67-1.07 27.74 1.32c-0.07 52.91-0.07 105.81 0 158.73c-9.07 2.36-18.52 0.72-27.74 1.31c-1.88-8.72-1.1-17.65-1.2-26.48c-0.02-32.69-0.02-65.38-0.02-98.07zm90.67-35.7c6.51-1.63 13.23-0.95 19.88-1.03c33.06-0.02 66.1 0.03 99.16-0.03c0.34 8.62 0.15 17.24 0.21 25.86c-30.06-0.03-60.13 0.03-90.19-0.02c-0.34 14.64-0.1 29.3-0.14 43.96c26.62-0.02 53.26 0 79.9-0.02c-0.12 8.38 0.17 16.76-0.09 25.14l-0.98 1.07c-26.28 0.1-52.57 0.02-78.87 0.03c0.02 12.92 0 25.86 0 38.8c-0.09 8.84 0.62 17.77-1.26 26.5c-9.21-0.53-18.57 0.91-27.62-1.14c0.02-53.04 0-106.09 0-159.11zm167.2 1.05c0.53-0.52 1.62-1.55 2.17-2.06c8.16-0.09 16.33-0.1 24.51 0.02c0.57 0.48 1.72 1.45 2.31 1.93c0.12 52.7-0.03 105.42 0.07 158.11c-8.79 2.03-17.9 0.91-26.83 1.08c-0.55-0.5-1.67-1.51-2.22-2.01c-0.1-52.35-0.1-104.71 0-157.06zm90.9-2.12c37.07 0.03 74.15 0.07 111.22-0.02c2.36 0.48 5.77-1.1 7.45 1.19c0.6 8.21 0.07 16.47 0.24 24.69c-30.22 0-60.46-0.02-90.67 0.02c-0.09 13.7-0.05 27.41-0.03 41.1c26.79 0.05 53.59-0.05 80.38 0.05c-0.02 8.53 0.03 17.08-0.05 25.62c-26.78 0.09-53.57 0.02-80.35 0.05c0 14.28 0 28.58 0 42.87c30.77 0.1 61.56-0.14 92.33 0.12c-0.05 8.05-0.09 16.1 0.03 24.16c-6.42 2-13.16 1.31-19.76 1.39c-33.59 0-67.18-0.05-100.78 0.02c-0.33-53.75-0.31-107.51-0.02-161.26zm-1350.83 1.22c22.68-0.29 45.38-0.12 68.06-0.1c36.4-0.05 71.57 28.23 76.55 64.81c0.62 13.73 1.81 28.01-2.91 41.21c-8.26 25.07-30.39 44.49-55.91 50.72c-8.5 2.82-17.55 2.24-26.38 2.34c-19.79-0.1-39.6 0.17-59.39-0.15c0.03-52.94 0.03-105.88-0.02-158.82zm29.26 24.64c-0.21 36.51-0.21 73.04 0 109.54c16.71-0.31 33.76 1.43 50.04-3.29c13.18-3.96 24.88-13.28 30.8-25.81c7.8-15.85 7.68-35.29-0.1-51.12c-5.83-12.63-17.6-21.87-30.75-25.96c-16.3-4.44-33.28-3.27-49.99-3.37zm621.56-24.6c25.99-0.4 52.01-0.1 78.01-0.17c11.74-0.36 23.52 3.08 33.39 9.41c26.24 16.65 27.88 59.72 3.89 79.04c-6.02 5.21-13.49 8.29-20.89 10.96c14.13 19.72 28.1 39.55 42.37 59.17c-10.74 3.06-22.03 0.95-33.02 1.58c-12.91-17.19-24.85-35.08-37.41-52.51c-1.38-1.63-2.93-4.06-5.35-3.73c-10.67-0.12-21.34 0.02-31.99 0c-0.19 16.31-0.1 32.62-0.05 48.93c-0.1 2.67 0.79 6-2.37 7.26c-8.09 0.09-16.19 0.21-24.26-0.1c-1.86-1.41-2.63-3.25-2.29-5.56c0.02-51.43 0.03-102.85 0-154.28zm28.86 25.64c0.03 17.39 0.02 34.79 0.02 52.18c14.66 0.17 29.34 0.05 44.02 0.09c5.32 0.14 10.64-0.83 15.44-3.22c12.27-5.25 18.31-21.28 12.58-33.31c-3.77-9.81-14.46-15.3-24.57-15.5c-15.82-0.71-31.65-0.31-47.48-0.24zm844.84-25.81c22.15-0.02 44.31-0.03 66.48 0c32.65-0.31 65.05 21.35 74.98 52.91c4.99 12.61 3.91 26.41 3.41 39.67c-2.46 13.95-8.07 27.53-17.35 38.37c-13.04 15.54-32.37 25.24-52.33 27.85c-25.06 0.69-50.13 0.12-75.19 0.29c-0.02-53.03-0.02-106.07 0-159.1zm28.36 25.74c0 35.87 0 71.75 0 107.62c20.56-1.07 43.14 3.99 61.8-7.16c12.2-6.38 20.48-18.75 23.78-31.88c0.84-9.24 0.67-18.56 0.17-27.8c-3.75-20.59-21.86-37.13-42.44-40.09c-14.4-1.31-28.89-0.57-43.32-0.69zm-1089.95 249.85c9.88-9.2 23.56-13.56 36.95-12.53c17.5-1.31 34.8 8.34 43.92 23.14c8.62 12.97 11.32 28.99 10.36 44.34c-33.35 0.05-66.7-0.1-100.04 0.07c1.22 15.62 8.71 31.45 22.46 39.74c12.34 8.29 28.52 8.93 42.35 4.42c9.4-3.11 16.93-9.7 24.08-16.28c2.62 2.74 5.35 5.37 8.19 7.91c-12.22 13.42-29.46 22.45-47.79 22.75c-16.97 0.69-34.14-6.23-45.66-18.77c-23.96-26-21.8-71.71 5.18-94.8zm12.12 5.32c-12.48 8.64-19.22 23.36-20.98 38.11c28.95 0.21 57.91 0.14 86.87 0.03c0-11.25-4.47-22.18-11.12-31.12c-12.65-16.26-38.36-19.11-54.78-7.02zm285.19-13.88c11.36-4.68 24.26-6.8 36.23-3.11c14.13 2.96 26.4 12.63 33.21 25.27c7.38 12.39 9.26 27.13 8.62 41.33c-33.4 0.12-66.81-0.07-100.19 0.1c1.57 15.12 8.26 30.68 21.51 39.11c19.64 13.61 48.36 8.81 64.19-8.55c4.27-4.52 8.35 2.48 11.56 4.96c-10.31 11.11-23.78 20.68-39.36 21.7c-8.6 0.4-17.3 0.71-25.83-0.62c-18.36-4.51-33.88-18.62-40.32-36.35c-4.84-10.93-4.61-23.12-3.89-34.79c2.29-20.63 15.09-40.36 34.26-49.03zm-4.9 17.05c-10.29 8.76-15.3 21.88-17.19 34.94c28.93 0.22 57.86 0.1 86.8 0.07c-0.24-17.31-9.6-35.6-26.11-42.55c-14.35-5.83-32.18-3.39-43.5 7.54zm-154.85 1.14c8.17-10.12 18.34-20.1 31.91-21.64c12.53-0.79 26.16-1.82 37.4 4.9c14.35 8.07 22.58 24.6 22.53 40.79c0.03 25.55 0.07 51.12-0.03 76.68c-4.1-0.05-8.19-0.1-12.27-0.19c0.02-24.36 0.05-48.74 0-73.1c0.03-10.7-3.2-21.94-11.2-29.4c-10.46-10.12-26.74-11.87-40.2-7.67c-16.95 5.39-28.46 22.92-28.14 40.47c0.05 23.28 0.03 46.57 0.02 69.87c-3.94-0.02-7.88-0.02-11.81-0.02c-0.05-40.19-0.07-80.38 0-120.59c3.92-0.02 7.85-0.02 11.79 0.02c0.03 6.61 0.03 13.25 0.02 19.89zm312.29-15.62c8.19-4.7 17.66-6.45 27.02-6.3c0.03 4.58 0.02 9.17-0.1 13.78c-13.85-1.2-27.79 4.7-37.12 14.9c-10.53 10.34-14.4 25.31-16.07 39.52c-0.21 18.15 0.03 36.3-0.09 54.44c-3.94-0.03-7.88-0.05-11.81-0.09c-0.07-40.16-0.03-80.31-0.02-120.47c3.92-0.07 7.85-0.09 11.79-0.09c0.15 10.65-0.1 21.3 0.19 31.95c6.52-10.99 14.64-21.63 26.21-27.65zm45.41 49.98c-2.43-29.83 25.06-57.29 54.62-56.48c8.19 0 16.69-0.33 24.42 2.84c11.75 4.03 20.75 12.97 29.24 21.68c0.19-7.45 0.05-14.88 0.17-22.31c3.67 0 7.35 0 11.03 0.03c0.12 34.72 0.03 69.42 0.05 104.14c0.69 17.21-7.5 34.86-21.89 44.6c-10.27 6.61-22.35 10.55-34.62 10.44c-20.93 1.05-41.68-6.25-58.44-18.55c2-2.91 3.87-5.92 6.28-8.5c4.56-0.48 7.86 3.77 11.81 5.51c15.66 9.79 34.85 10.53 52.69 8.4c10.17-2.8 20.31-8.46 25.5-18c8.21-12.42 6.69-28.04 6.54-42.17c-8.62 9.81-18.4 19.34-31.22 23.24c-20.72 6.76-45.05 1.24-60.42-14.31c-11-10.29-16.92-25.53-15.76-40.55zm44.92-43.79c-7.59 2.36-14.95 6.19-20.46 12.01c-12.89 13.68-15.95 35.55-7.3 52.23c7.37 16 25.19 26.13 42.64 25.36c11.68 0.1 23.22-4.52 32.32-11.75c14.04-11.03 20.32-31.21 13.99-48.07c-8.23-24.1-37.34-36.84-61.2-29.78zm105.77-10.39c4.59-0.1 9.22-0.1 13.84 0c14.21 30.35 28.27 60.77 42.49 91.12c2.27 5.23 4.72 10.39 7.74 15.23c13.82-35.6 28.7-70.78 42.64-106.34c4.56-0.1 9.14-0.09 13.72 0.03c-14.97 35.3-29.63 70.75-44.57 106.07c-5.61 12.89-9.96 26.58-18.38 38.02c-6.4 8.74-16.69 15.52-27.86 15.04c-8.98 0.58-17.97-1-26.09-4.89c0.98-3.58 2.2-7.07 3.34-10.56c9.24 2.63 19.22 6.61 28.77 3.03c9.55-3.3 15.02-12.47 19.33-21.01c1.58-2.72 2.46-6.06 1.22-9.05c-15.38-31.12-30.22-62.52-45.54-93.68c-3.49-7.71-7.62-15.11-10.65-23z" />
	</g>
</svg>