<svg version="1.2" xmlns="http://www.w3.org/2000/svg" viewBox="0 0 1572 598" width="1572" height="598">
	<title>JCDecaux_logo-svg</title>
	<defs>
		<linearGradient id="g1" x1="1302.9" y1="14.5" x2="1" y2="14.5" gradientUnits="userSpaceOnUse">
			<stop offset="0" stop-color="#ffffff" stop-opacity="0"/>
			<stop offset="1" stop-color="#ffffff"/>
		</linearGradient>
		<linearGradient id="g2" x1="8.2" y1="124.2" x2="14.3" y2="597.4" gradientUnits="userSpaceOnUse">
			<stop offset="0" stop-color="#ffffff"/>
			<stop offset="1" stop-color="#ffffff" stop-opacity="0"/>
		</linearGradient>
	</defs>
	<style>
		.s0 { fill: url(#g1) } 
		.s1 { fill: url(#g2) } 
		.s2 { fill: #ffffff } 
	</style>
	<g id="layer1">
		<path id="path59" class="s0" d="m1302.9 27.1l-1301.8 0.9-0.1-26.2 1275.7-0.8z"/>
		<path id="path61" class="s1" d="m27.2 28l0.4 569.3-26.2 0.1-0.4-595.6z"/>
		<path id="path67" fill-rule="evenodd" class="s2" d="m351.8 380.6c0 27-7.2 71.1-69.8 71.1-35 0-69.1-19.1-69.2-64.9l0.1-18.2h41.7v9.4c0 20.3 5 34.9 26.8 34.9 24.3 0 24.3-19.6 24.3-34.4l-0.1-141.5h46.1zm166.9-73.3c-2.9-20.8-22.9-36.7-45.8-36.7-41.5 0.1-57 35.3-57 72 0 35 15.6 70.2 57 70.2 28.3 0 44.1-19.4 47.6-47h44.7c-4.7 52.2-40.8 85.7-92.2 85.8-65 0-103.2-48.4-103.2-108.9-0.1-62.3 38.1-110.8 103-110.9 46.1 0 85 27 90.6 75.5zm62.9-70.6h90.5c54.3-0.1 95.2 34 95.2 103.6 0.1 60.8-31 106-95.1 106.1h-90.5zm46.2 170.9h41.2c26.7 0 52.2-16.5 52.2-62.9 0-42.3-14.7-69.3-60.6-69.2l-32.9-0.1zm192.5-27.1c1.2 26.4 14.1 38.4 37.3 38.4 16.8 0 30.3-10.3 32.9-19.7h36.7c-11.7 35.9-36.6 51.1-71 51.2-47.9 0-77.6-32.9-77.6-79.9-0.1-45.5 31.3-80.2 77.5-80.3 51.7 0 76.7 43.5 73.8 90.2zm67.8-26.5c-3.8-21.1-12.9-32.3-33.2-32.3-26.4 0-34 20.6-34.6 32.4zm160.7-6.3c-2.7-17.1-13.5-26.2-30.9-26.2-26.7 0.1-35.5 27.1-35.5 49.5 0 21.7 8.6 47.8 34.7 47.8 19.4-0.1 30.6-12.4 33.2-30.9h40.2c-5.3 40.2-33.1 62.3-73.1 62.3-45.8 0-76.7-32.3-76.7-77.8-0.1-47.3 28.1-82.2 77.5-82.3 35.8 0 68.7 18.8 71.4 57.5zm55-6.8c2.3-39.1 37.3-50.8 71.4-50.8 30.3-0.1 66.7 6.7 66.7 43.1l0.1 79c0 13.8 1.5 27.6 5.3 33.7l-42.3 0.1c-1.5-4.7-2.7-9.7-3-14.7-13.2 13.8-32.6 18.8-51.1 18.8-28.8 0-51.7-14.3-51.7-45.4-0.1-34.4 25.8-42.6 51.6-46.2 25.6-3.8 49.4-3 49.4-20 0-17.9-12.4-20.5-27.1-20.6-15.8 0.1-26.1 6.5-27.5 23zm96.4 30.8c-7.1 6.1-21.8 6.5-34.7 8.8-12.9 2.7-24.7 7.1-24.7 22.4 0 15.5 12.1 19.3 25.6 19.3 32.6 0 33.8-25.8 33.8-34.9zm207.1 74.1l-39.7 0.1v-21.2h-0.9c-10.6 17.1-28.8 25.3-46.4 25.3-44.4 0-55.6-24.9-55.6-62.5l-0.1-93.5h41.8l0.1 85.8c-0.1 25 7.2 37.3 26.7 37.3 22.6 0 32.3-12.7 32.3-43.5l-0.1-79.6h41.8zm60.9-80l-50-71.9h47.6l26.8 39.6 26.4-39.6 46.1-0.1-49.9 71.1 56.2 80.8h-47.6l-31.7-47.9-31.8 47.9h-46.7z"/>
	</g>
</svg>