<svg version="1.2" xmlns="http://www.w3.org/2000/svg" viewBox="0 0 1653 340" width="1653" height="340">
	<title>DH_nav_logo-svg</title>
	<defs>
		<clipPath clipPathUnits="userSpaceOnUse" id="cp1">
			<path d="m0 1h1652v338.52h-1652z" />
		</clipPath>
	</defs>
	<style>
		.s0 { fill: #531295 } 
		.s1 { fill: #00c1f3 } 
	</style>
	<g id="Group_959">
		<g id="Clip-Path: Group_814" clip-path="url(#cp1)">
			<g id="Group_814">
				<path id="Path_477" fill-rule="evenodd" class="s0" d="m528.1 33.8c3.1 4.5 5.7 9.3 7.7 14.3c2.1 5 3.5 10.3 4.4 15.6c0.9 5.4 1.2 10.8 1 16.2c0.3 5.4 0 10.8-0.9 16.1c-0.9 5.4-2.4 10.6-4.4 15.6c-2.1 5-4.7 9.8-7.8 14.2c-3 4.5-6.6 8.5-10.6 12.2c-4.3 3.5-8.9 6.7-13.7 9.4c-4.9 2.6-9.9 4.9-15.2 6.7c-5.3 1.7-10.7 3-16.1 3.8c-5.5 0.7-11.1 1-16.6 0.8h-48.1v-157.7h48.1c5.5-0.3 11.1 0 16.6 0.8c5.4 0.8 10.8 2 16.1 3.8c5.3 1.8 10.3 4 15.2 6.7c4.8 2.7 9.4 5.8 13.7 9.3c4 3.7 7.5 7.8 10.6 12.2zm-61.1 97.3q5.3-0.7 10.5-2.4q5.1-1.7 9.8-4.3q4.7-2.6 8.8-6.1q3.8-3.7 6.7-8.1q2.9-4.5 4.8-9.5q1.8-4.9 2.6-10.2q0.8-5.3 0.4-10.6q0.3-5.3-0.4-10.6q-0.8-5.2-2.7-10.2q-1.9-5-4.7-9.5q-2.9-4.5-6.7-8.3q-4.2-3.4-8.9-5.9q-4.7-2.6-9.8-4.3q-5.1-1.6-10.4-2.3q-5.3-0.7-10.7-0.4h-18.3v103.1h18.3q5.4 0.3 10.7-0.4z" />
				<path id="Path_478" class="s0" d="m683 158.7h-109.2v-157.7h108.5v26.9h-78.3v35.9h72v26.7h-72v41.4h79z" />
				<path id="Path_479" class="s0" d="m747.5 158.7h-30.1v-157.7h111.1v26.9h-81v40.4h74.5v26.7h-74.5z" />
				<path id="Path_480" class="s0" d="m860.9 1h30.2v157.7h-30.2z" />
				<path id="Path_481" class="s0" d="m960.2 158.6h-29.1v-157.7h29.2l70.8 107.1l1.2 1.9v-109h29.1v157.7h-29l-71-107.1l-1.2-1.9z" />
				<path id="Path_482" class="s0" d="m1101.6 1h30.2v157.7h-30.2z" />
				<path id="Path_483" class="s0" d="m1208.2 28.4h-48.3v-27.4h126.3v27.4h-48.1v130.3h-29.9z" />
				<path id="Path_484" class="s0" d="m1314.5 1h30.2v157.7h-30.2z" />
				<path id="Path_485" class="s0" d="m1457 158.7h-29.1l-60-157.7h31.9l39.7 107.9q1.7 5.2 3 9.8l2.8-9.6l39.8-108.1h31.9z" />
				<path id="Path_486" class="s0" d="m1646.3 158.7h-109.1v-157.7h108.5v26.9h-78.4v35.9h72.1v26.7h-72.1v41.4h79.1z" />
				<path id="Path_487" class="s1" d="m484.3 206.1h25.9v131h-25.9v-54.9h-53.8v54.9h-25.9v-131h25.9v52.5h53.8z" />
				<path id="Path_488" class="s1" d="m568.9 314h65.1v23.1h-91v-131h90.4v23.3h-64.5v28.5h59.3v23.1h-59.3z" />
				<path id="Path_489" fill-rule="evenodd" class="s1" d="m727.5 206.1l54 131h-27.5l-13.6-34.8h-49.2l-13.8 34.8h-27.5l53.9-130.9zm-13.4 38l-14 35.3h31.2l-15.6-39.6q-0.8 2.1-1.6 4.3z" />
				<path id="Path_490" class="s1" d="m823.8 314h64.4v23.1h-90.3v-131h25.9z" />
				<path id="Path_491" class="s1" d="m887.3 206.1h105.2v23.6h-39.7v107.4h-25.7v-107.4h-39.8z" />
				<path id="Path_492" class="s1" d="m1095.2 206.1h25.9v131h-25.9v-54.9h-53.7v54.9h-25.9v-131h25.9v52.5h53.7z" />
				<path id="Path_493" class="s1" d="m1254.4 289l20.3 13.9l-1.5 2.5q-2.2 3.8-4.9 7.4q-2.7 3.6-5.7 6.8q-3.1 3.3-6.5 6.1q-3.4 2.9-7.2 5.4q-3.9 2.2-8 3.9q-4.2 1.7-8.6 2.7q-4.3 1.1-8.8 1.6q-4.5 0.4-9 0.2c-4.4 0.2-8.8-0.2-13.1-0.9c-4.4-0.8-8.7-2-12.8-3.7c-4.1-1.6-8-3.7-11.7-6.1c-3.6-2.5-7.1-5.3-10.2-8.5c-3.1-3.1-5.9-6.6-8.4-10.4c-2.4-3.8-4.4-7.7-6.1-11.9c-1.6-4.2-2.8-8.5-3.5-12.9c-0.8-4.4-1.1-8.9-1-13.4c-0.1-4.5 0.3-9 1.1-13.5c0.8-4.4 2-8.8 3.7-13c1.7-4.1 3.8-8.1 6.4-11.9c2.5-3.8 5.4-7.3 8.6-10.4c3.1-3.1 6.6-5.9 10.3-8.4c3.7-2.4 7.6-4.5 11.7-6.1c4.1-1.6 8.4-2.9 12.8-3.6c4.3-0.8 8.8-1.2 13.2-1.1q4.6-0.1 9.2 0.5q4.6 0.5 9 1.7q4.5 1.1 8.8 2.9q4.2 1.7 8.2 4.1q3.7 2.1 7 4.8q3.2 2.8 6.1 5.9q2.8 3.2 5.2 6.7q2.3 3.6 4.1 7.4l1.1 2.3l-20.6 14.5l-1.6-3c-1.5-3.6-3.6-6.9-6.1-9.9c-2.5-3-5.4-5.6-8.7-7.8c-3.2-2.1-6.8-3.8-10.5-4.9c-3.7-1.2-7.6-1.7-11.5-1.8q-4.1-0.1-8.1 0.7q-4.1 0.8-7.8 2.5q-3.8 1.6-7.1 4q-3.3 2.4-6 5.5q-3 3.2-5.4 6.9q-2.3 3.7-3.9 7.8q-1.5 4.1-2.2 8.5q-0.8 4.3-0.6 8.7q-0.2 4.4 0.5 8.7q0.7 4.3 2.2 8.3q1.5 4.1 3.8 7.8q2.2 3.7 5.2 6.9q2.7 3.1 6.1 5.6q3.3 2.4 7.1 4q3.8 1.7 7.8 2.5q4.1 0.7 8.2 0.6c4 0.1 8-0.5 11.8-1.5c3.8-1.1 7.4-2.8 10.8-4.9c3.3-2.2 6.4-4.8 9-7.8c2.6-3 4.7-6.4 6.3-10z" />
				<path id="Path_494" fill-rule="evenodd" class="s1" d="m1361.3 206.1l53.9 131h-27.5l-13.6-34.8h-49.2l-13.8 34.8h-27.5l53.9-130.9zm-13.3 38l-14 35.3h31.1l-15.6-39.6c-0.4 1.4-1 2.8-1.5 4.3z" />
				<path id="Path_495" fill-rule="evenodd" class="s1" d="m1521.2 273q-2.4 2-4.9 3.6q-2.6 1.6-5.3 2.9q-2.8 1.3-5.6 2.2l32.6 55.4h-30l-29.9-52.7h-20.6v52.7h-25.9v-131h56.1q4.5-0.2 9 0.4q4.5 0.6 8.8 1.9q4.4 1.3 8.4 3.4q4 2.1 7.6 4.8q3.1 2.5 5.5 5.7q2.5 3.2 4.1 6.8q1.7 3.6 2.5 7.5q0.8 3.9 0.7 7.9q0.1 3.3-0.5 6.6q-0.5 3.3-1.6 6.4q-1.2 3.1-2.8 6q-1.7 2.8-3.9 5.3q-2 2.3-4.3 4.2zm-63.7-11.3h29c19.6 0 21.9-9.2 21.9-16.3c0-7.1-2.3-16.5-21.9-16.5h-29z" />
				<path id="Path_496" class="s1" d="m1652 314v23.1h-91v-131h90.5v23.3h-64.6v28.5h59.4v23.1h-59.4v33z" />
				<path id="Path_497" class="s0" d="m247.1 251h-41.9v-121.6h-121.5v-41.9h163.4z" />
				<path id="Path_498" class="s0" d="m330.5 4v330.7h-241.6l41.9-41.9h157.8v-246.9h-246.7v217.3l169.4-169.5l29.6 29.6l-211.3 211.4h-29.6v-330.7z" />
			</g>
		</g>
	</g>
</svg>