<svg version="1.2" baseProfile="tiny-ps" xmlns="http://www.w3.org/2000/svg" viewBox="0 0 1541 1460" width="1541" height="1460">
	<title>logo_dhtankers-svg</title>
	<style>
		tspan { white-space:pre }
		.shp0 { fill: #003a65 } 
		.shp1 { fill: #009b97 } 
		.shp2 { fill: #ffffff } 
	</style>
	<g id="Capa_2">
		<g id="Capa_1-2">
			<path id="Layer" class="shp0" d="M775.18 154.05C722.55 155.14 670.02 158.87 617.77 165.21C565.51 171.56 513.61 180.52 462.26 192.07C410.91 203.61 360.16 217.72 310.22 234.34C260.28 250.96 211.21 270.08 163.18 291.61C103.19 319.13 48.71 346.64 0 374.15L0 634.69C13.42 619.55 27.13 604.68 41.14 590.09C55.15 575.5 69.45 561.19 84.02 547.16C98.6 533.14 113.46 519.41 128.58 505.98C143.7 492.54 159.09 479.41 174.74 466.59C312.33 354.07 527.79 218.98 773.25 218.98C801.27 219.52 829.23 221.61 857.02 225.23C884.8 228.85 912.37 234 939.58 240.66C966.8 247.32 993.63 255.48 1019.95 265.09C1046.27 274.7 1072.04 285.76 1097.14 298.22C1123 310.73 1148.43 324.11 1173.38 338.34C1198.34 352.56 1222.82 367.62 1246.76 383.49C1270.71 399.36 1294.11 416.03 1316.94 433.47C1339.76 450.91 1362 469.11 1383.6 488.05C1397.6 500.07 1411.39 512.33 1424.96 524.83C1438.53 537.32 1451.89 550.06 1465.01 563.02C1478.14 575.99 1491.04 589.18 1503.71 602.6C1516.38 616.01 1528.81 629.65 1541 643.49L1541 370.85C1527.79 362.66 1514.43 354.72 1500.93 347.02C1487.43 339.32 1473.79 331.86 1460.02 324.65C1446.25 317.45 1432.34 310.49 1418.32 303.79C1404.3 297.09 1390.15 290.65 1375.89 284.46C1328.7 263.62 1280.49 245.18 1231.44 229.21C1182.39 213.24 1132.56 199.76 1082.15 188.81C1031.73 177.87 980.8 169.48 929.54 163.67C878.28 157.87 826.76 154.66 775.18 154.05L775.18 154.05Z" />
			<path id="Layer" class="shp0" d="M1357.18 518.31C1336.26 499.98 1314.73 482.36 1292.63 465.47C1270.53 448.59 1247.87 432.45 1224.68 417.09C1201.49 401.72 1177.8 387.14 1153.63 373.37C1129.46 359.6 1104.84 346.65 1079.8 334.53C1056.05 322.72 1031.67 312.22 1006.76 303.09C981.85 293.96 956.46 286.21 930.7 279.87C904.94 273.54 878.85 268.63 852.55 265.17C826.25 261.71 799.77 259.7 773.25 259.15C644.47 259.15 440.56 300.42 200.61 496.58C182.35 511.58 164.45 527.01 146.93 542.86C129.41 558.71 112.27 574.98 95.53 591.65C78.78 608.33 62.44 625.39 46.51 642.85C30.58 660.3 15.08 678.13 0 696.32L0 1455.1L1541 1455.1L1541 706.22C1527.01 689.33 1512.68 672.73 1498.01 656.43C1483.33 640.13 1468.32 624.13 1452.99 608.46C1437.65 592.78 1421.99 577.42 1406.02 562.39C1390.05 547.36 1373.76 532.67 1357.18 518.31L1357.18 518.31Z" />
			<path id="Layer" class="shp0" d="M146.95 254.75C196.23 232.57 246.6 212.87 297.85 195.74C349.11 178.61 401.2 164.06 453.91 152.15C506.63 140.24 559.91 130.98 613.56 124.4C667.2 117.83 721.14 113.95 775.18 112.78C828.12 113.45 880.99 116.79 933.59 122.79C986.19 128.79 1038.45 137.43 1090.18 148.7C1141.91 159.97 1193.03 173.84 1243.36 190.26C1293.69 206.68 1343.16 225.63 1391.58 247.04C1404.41 252.64 1417.15 258.44 1429.8 264.43C1442.45 270.43 1455 276.61 1467.46 282.99C1479.92 289.37 1492.29 295.94 1504.54 302.69C1516.8 309.45 1528.96 316.4 1541 323.53L1541 -203.61L0 -203.61L0 326.55C44.58 302.34 93.84 278.13 146.95 254.75Z" />
			<path id="Layer" class="shp1" d="M1005.23 707.05C860.76 565.08 793.62 549.68 771.6 549.68C684.09 549.68 505.78 718.6 400.11 852.31C418.45 840.57 436.8 829.75 455.15 819.85C479.6 807.04 504.81 795.74 530.65 786.02C556.48 776.3 582.89 768.17 609.72 761.69C636.55 755.2 663.76 750.37 691.18 747.21C718.61 744.06 746.2 742.59 773.8 742.81C801.63 742.7 829.45 744.33 857.07 747.71C884.7 751.08 912.09 756.19 939.07 763C966.06 769.82 992.59 778.32 1018.5 788.47C1044.42 798.62 1069.67 810.38 1094.11 823.7C1107.04 830.85 1119.7 838.28 1132.36 846.26C1122.36 834.13 1112.21 822.13 1101.91 810.26C1091.61 798.39 1081.16 786.65 1070.56 775.04C1059.96 763.43 1049.22 751.96 1038.33 740.63C1027.44 729.3 1016.4 718.1 1005.23 707.05L1005.23 707.05Z" />
			<path id="Layer" class="shp0" d="M1298.29 1284.8C1262.13 1253.9 1223.26 1226.32 1182.13 1202.41C1141.01 1178.5 1097.81 1158.36 1053.06 1142.23C1008.31 1126.09 962.19 1114.04 915.27 1106.2C868.35 1098.37 820.82 1094.8 773.25 1095.52C725.67 1094.6 678.09 1098 631.13 1105.69C584.16 1113.38 537.98 1125.32 493.17 1141.36C448.37 1157.4 405.11 1177.48 363.93 1201.36C322.76 1225.23 283.84 1252.79 247.66 1283.7C233.36 1296.05 219.55 1308.95 206.27 1322.38C192.99 1335.81 180.24 1349.77 168.06 1364.2C155.87 1378.64 144.27 1393.55 133.26 1408.9C122.25 1424.25 111.85 1440.03 102.09 1456.2L1437.26 1456.2C1428.2 1440.1 1418.46 1424.39 1408.08 1409.1C1397.69 1393.82 1386.66 1378.98 1375.03 1364.63C1363.39 1350.27 1351.15 1336.42 1338.34 1323.1C1325.54 1309.77 1312.18 1297 1298.29 1284.8L1298.29 1284.8Z" />
			<path id="Layer" class="shp1" d="M773.25 783.26C747.29 783.04 721.35 784.41 695.56 787.37C669.77 790.33 644.19 794.87 618.96 800.96C593.72 807.06 568.89 814.69 544.59 823.83C520.29 832.96 496.58 843.58 473.58 855.61C452.37 866.99 431.76 879.44 411.81 892.92C391.87 906.39 372.62 920.86 354.14 936.29C335.67 951.71 317.99 968.06 301.17 985.28C284.35 1002.5 268.42 1020.56 253.44 1039.39C229.62 1069.97 207.47 1101.82 187.11 1134.8C166.74 1167.79 148.18 1201.85 131.51 1236.84C114.85 1271.84 100.09 1307.71 87.32 1344.31C74.54 1380.9 63.77 1418.16 55.04 1455.93L55.04 1455.93C65.71 1436.78 77.22 1418.11 89.52 1399.97C101.82 1381.82 114.91 1364.22 128.74 1347.21C142.57 1330.2 157.13 1313.81 172.39 1298.06C187.64 1282.32 203.58 1267.25 220.14 1252.89C258.04 1220.51 298.79 1191.62 341.9 1166.59C385.01 1141.56 430.3 1120.49 477.21 1103.62C524.13 1086.76 572.47 1074.18 621.65 1066.04C670.84 1057.9 720.65 1054.23 770.5 1055.08C820.75 1054.18 870.98 1057.86 920.57 1066.05C970.15 1074.24 1018.89 1086.91 1066.19 1103.92C1113.48 1120.92 1159.13 1142.19 1202.58 1167.44C1246.02 1192.7 1287.09 1221.86 1325.26 1254.54C1341.49 1268.72 1357.05 1283.66 1371.89 1299.29C1386.72 1314.93 1400.82 1331.25 1414.13 1348.2C1427.44 1365.16 1439.96 1382.72 1451.63 1400.84C1463.3 1418.97 1474.11 1437.62 1484.04 1456.75L1485.96 1456.75C1478.77 1419.69 1469.35 1383.09 1457.75 1347.16C1446.15 1311.23 1432.39 1276.03 1416.54 1241.76C1400.7 1207.48 1382.8 1174.2 1362.95 1142.08C1343.09 1109.96 1321.32 1079.07 1297.74 1049.57C1200.05 927.97 1029.72 783.26 773.25 783.26Z" />
			<path id="Layer" class="shp2" d="M247.66 1282.05C283.87 1251.21 322.81 1223.72 364 1199.93C405.19 1176.13 448.45 1156.12 493.26 1140.15C538.07 1124.18 584.23 1112.31 631.19 1104.68C678.14 1097.06 725.69 1093.72 773.25 1094.69C820.82 1093.97 868.35 1097.55 915.27 1105.38C962.19 1113.21 1008.31 1125.27 1053.06 1141.4C1097.81 1157.53 1141.01 1177.68 1182.13 1201.59C1223.26 1225.5 1262.13 1253.07 1298.29 1283.98C1312.55 1296.43 1326.25 1309.5 1339.38 1323.14C1352.5 1336.79 1365.03 1350.99 1376.92 1365.72C1388.82 1380.44 1400.07 1395.68 1410.64 1411.38C1421.22 1427.08 1431.11 1443.23 1440.28 1459.78L1485.96 1459.78C1475.96 1440.33 1465.04 1421.37 1453.23 1402.95C1441.43 1384.54 1428.76 1366.7 1415.26 1349.49C1401.76 1332.28 1387.45 1315.72 1372.38 1299.87C1357.31 1284.02 1341.49 1268.89 1324.98 1254.54C1287.04 1221.93 1246.23 1192.81 1203.04 1167.54C1159.85 1142.28 1114.47 1120.97 1067.44 1103.87C1020.42 1086.78 971.94 1073.97 922.61 1065.6C873.27 1057.23 823.29 1053.34 773.25 1053.98C723.41 1053.13 673.59 1056.8 624.4 1064.94C575.22 1073.08 526.88 1085.66 479.97 1102.52C433.05 1119.38 387.76 1140.46 344.65 1165.49C301.54 1190.52 260.79 1219.41 222.89 1251.79C205.96 1266.41 189.68 1281.77 174.11 1297.84C158.53 1313.9 143.68 1330.65 129.59 1348.03C115.5 1365.41 102.2 1383.41 89.71 1401.97C77.22 1420.53 65.56 1439.64 54.76 1459.23L100.16 1459.23C109.97 1442.61 120.44 1426.39 131.55 1410.61C142.66 1394.84 154.41 1379.51 166.75 1364.68C179.1 1349.85 192.04 1335.52 205.54 1321.74C219.04 1307.95 233.09 1294.71 247.66 1282.05L247.66 1282.05Z" />
			<path id="Layer" fill-rule="evenodd" class="shp2" d="M11.83 1459.51C20.82 1418.98 32.06 1378.99 45.51 1339.71C58.96 1300.44 74.59 1261.95 92.33 1224.41C110.07 1186.88 129.89 1150.37 151.7 1115.05C173.51 1079.73 197.28 1045.65 222.89 1012.98C228.39 1006.11 234 999.32 239.71 992.62C245.42 985.92 251.24 979.31 257.16 972.79C263.08 966.28 269.1 959.86 275.22 953.53C281.35 947.2 287.57 940.98 293.89 934.85C308.27 911.19 323.44 888.01 339.36 865.36C355.28 842.7 371.95 820.59 389.33 799.04C406.72 777.49 424.82 756.53 443.6 736.18C462.38 715.83 481.84 696.12 501.93 677.06C644.74 537.3 727.02 507.86 771.05 507.86C845.62 507.86 954.87 599.75 1033.3 676.78C1053.23 695.99 1072.63 715.75 1091.45 736.04C1110.27 756.33 1128.52 777.16 1146.17 798.48C1163.82 819.8 1180.87 841.62 1197.29 863.9C1213.71 886.18 1229.49 908.92 1244.63 932.1C1252.21 939.16 1259.66 946.37 1266.97 953.7C1274.29 961.04 1281.47 968.51 1288.52 976.1C1295.56 983.7 1302.47 991.42 1309.24 999.27C1316.01 1007.11 1322.63 1015.08 1329.11 1023.16C1354.27 1054.71 1377.45 1087.78 1398.52 1122.2C1419.59 1156.61 1438.51 1192.29 1455.18 1229.03C1471.84 1265.78 1486.21 1303.53 1498.21 1342.05C1510.21 1380.57 1519.81 1419.8 1526.97 1459.51L1485.96 1459.51C1478.91 1422.1 1469.59 1385.15 1458.05 1348.87C1446.5 1312.6 1432.75 1277.06 1416.89 1242.45C1401.02 1207.85 1383.05 1174.24 1363.09 1141.82C1343.13 1109.4 1321.22 1078.23 1297.47 1048.47C1199.78 926.87 1029.44 782.16 773.25 782.16C747.38 782 721.52 783.43 695.83 786.44C670.13 789.44 644.64 794.02 619.5 800.13C594.37 806.25 569.62 813.89 545.42 823.03C521.22 832.16 497.59 842.77 474.68 854.79C453.47 866.17 432.86 878.62 412.91 892.09C392.97 905.56 373.72 920.04 355.24 935.46C336.77 950.89 319.09 967.24 302.27 984.46C285.45 1001.67 269.52 1019.74 254.54 1038.57C230.36 1069.42 207.9 1101.57 187.25 1134.88C166.59 1168.19 147.78 1202.6 130.9 1237.97C114.03 1273.34 99.1 1309.61 86.2 1346.62C73.29 1383.62 62.43 1421.31 53.66 1459.51L11.83 1459.51ZM399.56 851.21C417.9 839.47 436.25 828.65 454.6 818.75C479.05 805.94 504.26 794.64 530.1 784.92C555.93 775.2 582.34 767.07 609.17 760.59C636 754.1 663.21 749.27 690.63 746.11C718.06 742.96 745.65 741.49 773.25 741.71C801.02 741.63 828.76 743.29 856.31 746.68C883.87 750.07 911.18 755.19 938.1 762.01C965.01 768.82 991.47 777.32 1017.32 787.45C1043.17 797.57 1068.36 809.32 1092.73 822.6C1105.67 829.75 1118.33 837.18 1130.98 845.16C1121.01 833.03 1110.88 821.03 1100.6 809.16C1090.33 797.29 1079.9 785.55 1069.32 773.94C1058.75 762.34 1048.02 750.87 1037.16 739.53C1026.29 728.2 1015.28 717 1004.13 705.95C859.66 563.98 792.51 548.58 770.5 548.58C683.82 548.58 505.5 717.5 399.56 851.21Z" />
		</g>
	</g>
</svg>