<svg version="1.2" xmlns="http://www.w3.org/2000/svg" viewBox="0 0 1275 1549" width="1275" height="1549">
	<title>dobs-svg</title>
	<style>
		.s0 { fill: #ffffff } 
	</style>
	<path id="Layer" fill-rule="evenodd" class="s0" d="m1274.9 763.4c0 387.3-212.5 785.6-799 785.6h-456v-55.3h451.5c409.5 0 615.3-250.1 615.3-730.3 0-416-192.5-708.1-657.3-708.1h-416.1v-55.3h444.8c591 0 816.8 389.5 816.8 763.4zm-664.3-505.9c-7.2 2.6-13.8 6.5-19.4 11.7-5.6 5.2-10.1 11.5-13.2 18.5-3.1 6.9-4.7 14.5-4.8 22.1 0 31 20 50.9 53.2 73l73 48.7c53.1 35.4 88.5 70.8 88.5 130.6 0 77.4-75.2 137.2-154.9 137.2-11.9-0.2-23.7-1.2-35.4-3.2-11.7-2-23.2-4.9-34.5-8.6-11.2-3.8-22.1-8.4-32.7-13.8-10.5-5.5-20.6-11.7-30.2-18.7v-104c57.6 62 97.4 97.4 146.1 97.4 8.2 1.1 16.6 0.4 24.6-1.9 7.9-2.4 15.3-6.5 21.6-11.9 6.3-5.4 11.3-12.2 14.8-19.7 3.5-7.5 5.3-15.7 5.4-24.1 0-31-13.3-48.7-53.1-75.2l-81.9-55.3c-42.1-28.8-79.7-66.4-79.7-124 0-79.6 64.2-128.3 143.9-128.3q16.4 0.4 32.7 2.7 16.4 2.3 32.3 6.5 15.9 4.1 31.3 10.2 15.3 6 29.8 13.8v95.2c-44.3-46.5-90.7-81.9-135-81.9-7.6-0.5-15.2 0.5-22.4 3zm-610.6 54.5v-19.9c29.2-3.2 58.2-8.1 86.8-14.7 28.5-6.6 56.7-15 84.3-25.1 27.6-10 54.5-21.7 80.7-35.1 26.1-13.3 51.4-28.2 75.8-44.6q-2.5 20.4-4.3 40.8-1.8 20.5-2.9 40.9-1.1 20.5-1.5 41-0.4 20.5-0.2 41.1v814.3c0 119.5 50.9 152.7 154.9 188.1h-442.6c104-35.4 154.9-68.6 154.9-188.1v-701.5c0-95.2-26.5-137.2-185.9-137.2zm484.7 617.4l163.8-159.3v101.8h170.4l-15.5 68.5h-154.9l2.2 234.6c0 70.8 19.9 97.4 75.3 97.4 9.6-0.7 19.2-2.2 28.6-4.6 9.4-2.4 18.6-5.5 27.5-9.5 8.8-3.9 17.3-8.7 25.3-14.1 8.1-5.4 15.6-11.5 22.6-18.3l4.4 6.7c-6.8 15.7-15.9 30.4-26.8 43.6-11 13.1-23.8 24.7-38.1 34.2-14.2 9.6-29.8 17.1-46.1 22.2-16.4 5.2-33.4 8-50.5 8.4-68.7 0-108.5-46.5-108.5-128.4v-272.2h-79.7z"/>
</svg>