<svg version="1.2" xmlns="http://www.w3.org/2000/svg" viewBox="0 0 1507 538" width="1507" height="538">
	<title>DIC_Asset_Logo_2019_white-svg</title>
	<style>
		.s0 { fill: #000000 } 
	</style>
	<g id="Layer">
		<path id="Layer" fill-rule="evenodd" class="s0" d="m402 91.9c43.9 50 64.4 115.3 64.4 176.9 0 67.1-25.4 132.5-71.5 181.1-46.2 48.6-113.2 80.4-196.1 80.4h-197.8v-523h197c92.7 0 160.1 34.5 204 84.6zm-17 177c-0.4-102-61.4-187-198.7-187.3h-106.2v374.5h109.8c159.2-0.1 194.7-124.8 195.1-187.2zm184.5-261.6h79.2v523h-79.2zm629.7 396.6l6-4.1v90.4l-2 1.1c-49.1 26.7-103.2 45.8-181.7 45.8h-0.1c-94.4 0.1-162.6-37.7-207-89.2-44.4-51.5-65-116.5-65.1-171.5 0-79.5 29-148.6 78.1-197.6 49.1-49.2 118.3-78.2 198.3-78.2 51.7 0 104.1 13 172.1 42.6l2.3 1v88.8l-5.9-3.6c-60.8-36.8-112.4-53.1-169.2-53.1-111.7 0.1-194.2 82-194.3 193.3 0.2 113.6 79.5 191.5 197.2 191.7 55.2 0.1 115.7-20 171.3-57.4zm175.8-197.2h131.2v136h-131.2z"/>
	</g>
</svg>