<svg version="1.2" xmlns="http://www.w3.org/2000/svg" viewBox="0 0 1376 1571" width="1376" height="1571">
	<title>logo-dice-svg</title>
	<style>
		.s0 { fill: #000000 } 
		.s1 { fill: #ff2400 } 
		.s2 { fill: #ff0000 } 
	</style>
	<path id="Layer" class="s0" d="m1375.9 777.7c0.9 103.8-18.7 206.7-57.7 302.8-39 96.1-96.7 183.5-169.7 257.3-72.9 73.7-159.8 132.2-255.5 172.2-95.6 40-198.3 60.6-302 60.7h-545c-12.1 0-23.6-4.8-32.1-13.3-8.4-8.4-13.2-20-13.2-32v-107.7c0-40.6 16.1-79.4 44.7-108.1 28.6-28.7 67.3-45 107.8-45.2h437.8c63.5-0.1 126.3-12.8 184.9-37.4 58.5-24.5 111.6-60.5 156.2-105.7 44.5-45.3 79.6-99 103.3-157.9 23.6-59 35.3-122 34.4-185.5-4-259.9-221.9-471.5-485.7-471.5h-430.2c-40.6 0-79.5-16.2-108.3-44.9-28.7-28.7-44.9-67.6-44.9-108.2v-107.8c0-12 4.8-23.5 13.3-32 8.5-8.5 20-13.3 32-13.3h534.7c434.3 0 791.2 348.8 795.2 777.5z"/>
	<path id="Layer" class="s1" d="m261.3 454.6c28.7 28.7 44.9 67.7 44.9 108.3v445.3c0 40.6-16.1 79.6-44.8 108.3-28.7 28.7-67.7 44.8-108.3 44.8-40.6 0-79.5-16.1-108.3-44.8-28.7-28.7-44.8-67.7-44.8-108.3v-445.3c0-40.6 16.2-79.6 44.9-108.3 28.7-28.7 67.6-44.9 108.2-44.9 40.6 0 79.5 16.2 108.2 44.9z"/>
	<path id="Layer" class="s2" d="m261.3 454.6c28.7 28.7 44.9 67.7 44.9 108.3v445.3c0 40.6-16.1 79.6-44.8 108.3-28.7 28.7-67.7 44.8-108.3 44.8-40.6 0-79.5-16.1-108.3-44.8-28.7-28.7-44.8-67.7-44.8-108.3v-445.3c0-40.6 16.2-79.6 44.9-108.3 28.7-28.7 67.6-44.9 108.2-44.9 40.6 0 79.5 16.2 108.2 44.9z"/>
</svg>