<svg version="1.2" xmlns="http://www.w3.org/2000/svg" viewBox="0 0 1221 636" width="1221" height="636">
	<title>DINO-IR-Presentation_March-2022_FINAL-2-pdf-svg</title>
	<defs>
		<clipPath clipPathUnits="userSpaceOnUse" id="cp1">
			<path d="m-27486.64-22068.83h31975.67v24030.35h-31975.67z"/>
		</clipPath>
	</defs>
	<style>
		.s0 { fill: #ffffff } 
	</style>
	<g id="Clip-Path: Page 1" clip-path="url(#cp1)">
		<g id="Page 1">
			<path id="Path 4" class="s0" d="m534.4 533.7c-12 26.2-15 55.7-8.9 84 0 0 6.8 15 3.7 16.2-15.6 1.9-31.6 2.3-47.5 1.6-20.6 0.5-41 0-60.9-1.6-2.3-0.9-3-3.1-2.8-5.2 0-0.7 4-39.8 8.2-59.9 3.1-15.5 7.5-30.5 12.4-45.2 2.6-6.8 5.2-13.6 7.5-20.6 0.5-3.1 1-6.1 0.5-9.2 0-3.5 0-6-3.5-8.2-3.3-0.9-6.8-0.4-10.3 0.8-6.6 2.5-13.4 5.8-19.9 9.8-8.4 4.9-16.9 10.8-25.1 16.6-7.9 5.6-18 13.4-27.4 20.2-14.7 11.9-29.7 24.1-44.9 35.3-5.6 4.7-11.9 9.4-17.8 13.8-4 3.1-7.9 6.1-12.9 8.7-20.8 13.1-43 23.7-66.4 31.4-27.7 8.9-56.5 11.5-85.3 7.7-12.8-1.9-25.7-5.6-37.4-11.5-11-5.8-20.9-14-27.9-24.1-10.3-13.8-14.7-30.4-13.8-47.3 0.5-2.3 0.5-4.4 1.4-6.6 1.7-8.6 6.6-17 8-25.7 1.1-9.8 1.1-19.9-1-29.8-1.8-5.6-4.4-10.7-7.5-15.6-6.7-11.3-16.8-20.2-29.4-25.1-3.1-1.6-6.6-2.8-10.1-3.5-3.5-0.5-6.8-1.4-9.8-2.6-4.5-2.1-6.6-7.3-4.5-11.9 0.9-1.9 2.8-3.5 4.5-4.5 3.5-1.6 7-2.8 11.2-3 11.9-0.7 24.3 1.4 35.3 6.3 18.3 6.8 33.8 18.7 45 34.4 7.9 11.7 13.8 25.1 16.8 38.9q1.4 9.6 0 19.4c-1.4 7.5-0.9 15.5 2.6 22.7 2.4 3.8 5.4 7.3 8.9 10.4 9.4 5.8 20.6 8.6 31.1 7.7 17.8 0 32.8-12 47.1-21.1 24.6-15.2 39.1-40.5 56.9-61.8 24.3-29.5 44.9-62.1 66.9-92.8 23.2-33.2 43.6-68.1 69.3-99.3 30.2-39.5 68.4-72.6 111.9-96.9 45.5-22 96-29.1 145.9-20.6 18.5 3 37.2 8.6 54.5 16.4 40.8 18.2 76.8 46.1 115.9 67 10.8 5.3 20.4 11.9 31.1 17 8 4.5 16.9 8 25.8 10.1 16.8 2.4 34.2-1.4 48.9-10.5 32.3-17.6 54.6-63 72.4-94.2 31.8-56.4 71.8-174.4 152.6-171.4 13.3 0.5 25.7 4.9 36.5 12.4 8.4 6.1 14.5 13.6 19.4 22.5 5.9 13.1 14.8 36.1 4.5 49.4-10.1 13.4-41.7 6.1-48.7 3.1-1.9-1-3.3-2.1-4.5-3.3-4.4-4.5-9.3-7.7-15.6-9.6-4.5-1.2-9.4-0.7-13.4 1.6-7.9 4.2-14.5 11-18.5 19q-4.7 7.2-7.9 15.2c-9.4 26.7-9.4 35.8-14.8 53.4-9.8 35.6-22.2 70.5-36.5 104.5-13.3 31.1-29.3 60.8-48 88.9-18.5 28.4-41.7 54.1-67.4 76.4-7.5 6.6-15.5 11.9-23.4 17.6-9.4 5.3-18.3 11.4-26.2 18-12.5 10.5-20.2 25-22.3 40.7-1.9 19 3.1 37.7 13.4 53.7 12.8 22 27.8 42.8 45.1 62 0 0 4 4.2 2.4 7.3-2.4 3-41.9 1.6-41.9 1.6 0 0-43.1-0.9-44.3-1.4-0.9-0.4-1.8-0.9-2.3-1.6-11.9-17.6-20.8-37-26.2-57.6-1.2-3.8-4.9-12.2-4.9-12.2 0 0-3.6-6.3-4.5-7-4.4-3.3-10.5-3.3-15.4 0-2.6 1.8-3.6 8.9-4.5 13.8-0.9 11 0.5 22 4.5 32.3 3 8.7 7 16.6 11.9 24.1 1.9 2.4 1.9 5.2 0.9 7.5-2.1 4-41.6 2.1-41.6 2.1 0 0-34.7-0.9-36.1-2.3-1.4-1.2-2.6-4.2-2.6-4.2-16.8-27.9-24.1-60.4-19.2-92.5 1.9-10.8 0-24.2-11.9-27.2-5.4-1.4-11-0.5-15.9 2.3-5.4 4-9.4 10.1-10.3 16.7-2.1 9.6-2.6 19.6-1.4 29.5 1.4 13.8 4 27.8 7.9 41.2 2.8 9.1 5.9 18.3 10.3 26.9 0 0 2.6 4.9 0.5 6.8-4.4 3.8-48 1.9-48 1.9 0 0-41.7 0-44-0.9-0.7-0.7-1.2-1.9-1.6-2.9-3.5-8.9-6.4-19.2-8.9-28.3-3.5-13.3-4.5-27.2-3.1-40.7q0.5-4.7 0-9.4c-1.4-11-8.2-26.9-20.1-30.5-9.4-0.7-18.3 4.3-22.7 12.5z"/>
		</g>
	</g>
</svg>