<svg version="1.2" xmlns="http://www.w3.org/2000/svg" viewBox="0 0 1575 1558" width="1575" height="1558">
	<title>logo_dksh_white-svg</title>
	<style>
		.s0 { fill: #be0028 } 
	</style>
	<g id="Ebene_2">
		<g id="DKHS_NEG_White">
			<g id="DKSH_NEG_White">
				<g id="DKSH-fantree-symbol_NEG">
					<path id="Layer" class="s0" d="m1340.2 463.3c64.8 8.8 96.1 50.8 103.3 80.3 2.3 9.2 1.7 12.5-7.7 12.6q-12.5 0.1-25 1.1-12.5 0.9-24.9 2.6-12.4 1.8-24.6 4.4-12.3 2.5-24.3 5.9c-4.2 1.2-3.9 1.2-7.2-1.5-30.5-25.8-58.5-42-87.8-41.9-2.8 0-5.9 1.9-5.1 4.4 12.7 22.3 24.5 36.4 35.2 53.1 4.3 6.6 4 7.9-3.2 11.3q-11.3 5.3-22.3 11.1-11 5.8-21.8 12-10.8 6.3-21.3 13-10.5 6.7-20.7 13.8c-4.3 3-4.2 3-8.6 0.2q-8.4-5.8-17.5-10.3-9.2-4.6-18.9-7.7-9.7-3.2-19.7-4.8-10.1-1.7-20.3-1.9c-2.6 0.1-5.3 2.8-3.8 5.1 11.1 17.2 23.1 32.1 35.9 49.8 4 5.7 3.9 6.3-1.5 10.6q-22.1 18.6-43.7 37.9-21.5 19.4-42.4 39.4-20.8 20-41 40.8-20.2 20.7-39.6 42.2c-17.5 18.7-32.7 13.6-55.3 10.2 0.5-65.7 0.3-61.6 0.3-73.3 89.9-152.6 260.1-344 433.5-320.4zm-434.2 275.4c-2.5-85.5-10.4-173.8-45.6-258.8 42.1-63.6 102.9-138.1 163.9-164.3 76.9-32.9 123.4-9.9 134.5 8.1 5.1 8.1 7.7 10-0.4 14.6-152.7 88.1-220.8 304.1-252.4 400.4zm654.9 112.9q-9-5.2-18.5-9.5-9.5-4.3-19.4-7.5-9.9-3.3-20.1-5.5-10.2-2.2-20.5-3.3c-4.4-0.6-4.1-0.4-6-4.4-17-35.8-36.6-60.7-53.9-67.8-2.9-1.2-6.2-1-6.6 1.6 0 19.5 1.3 38.3 2.3 60.2 0.3 7.1-0.2 7.7-7.4 8.1q-11.8 0.7-23.6 1.9-11.9 1.2-23.6 2.9-11.8 1.6-23.4 3.8-11.7 2.1-23.3 4.7c-5.3 1.2-5.3 1.2-8.2-3.4-18.7-28.9-36-44.6-52.5-50.2-2.7-0.9-5.9 0.3-5.8 2.8 0.6 11.7 3.3 34.8 5.9 59.8 0.6 6.2 0.5 6.5-5.5 8.3q-22.3 6.8-44.3 14.4-22 7.6-43.7 16-21.8 8.3-43.2 17.4-21.4 9.1-42.5 18.9c-2.5 1.4-5.2 2.4-7.9 3-2.8 0.7-5.6 1-8.4 0.9-2.9-0.1-5.7-0.5-8.4-1.4-2.7-0.8-5.3-1.9-7.7-3.4-43.2-30.4-111.2 26.2-151.7 105.3q-3 5.2-5.7 10.7-2.7 5.4-5.1 11-2.3 5.6-4.4 11.4-2 5.7-3.7 11.5c245.4-223.6 646.3-160.7 688.7-35.6 3.2 8.1 5.3 16.5 6.4 25.1 1.1 8.6 1.1 17.3 0 25.9-1.1 8.6-3.3 17-6.6 25.1-3.2 8-7.4 15.7-12.6 22.7-5 8-9.1 10-15.1 2.8q-5.5-6.5-11.5-12.4-6-6-12.5-11.4-6.6-5.5-13.5-10.3-7-4.9-14.3-9.2c-3.5-2.1-3.3-1.8-3.8-5.9-0.6-8.3-1.9-16.6-3.8-24.7-2-8.1-4.6-16-7.8-23.7-3.2-7.7-7.1-15.2-11.5-22.3-4.4-7-9.4-13.7-14.9-20-1.9-2.1-5.8-2.5-6.8 0-4.4 22.9-7.8 41.6-11.7 60.5-1.5 7.6-2.5 8.1-9.9 5.9q-8.6-2.6-17.3-4.9-8.7-2.2-17.5-4.2-8.8-1.9-17.7-3.5-8.8-1.6-17.7-2.9c-5.2-0.8-5-0.7-6.4-5.7-9.8-36.2-24.2-63.7-38.9-74.9-2-1.6-5.9-1.5-6.3 1.3-2.5 18.6-4.6 40.7-7.9 66.1-0.8 6.7-1.3 7.1-8.1 6.7q-25.1-0.9-50.2-0.7-25.1 0.2-50.2 1.6-25.1 1.4-50.1 4-25 2.6-49.8 6.3-4.7 0.4-9.4-0.3-4.8-0.7-9.2-2.4-4.4-1.7-8.4-4.3-3.9-2.7-7.2-6.2c-28.9-29.1-91.9-4.1-151.7 36.3-17.7 12.7-28.8 24.3-28.5 37v438.5c0 7.3-0.6 7.9-7.9 7.8-54.7 0-109.4-5.1-163.2-15-53.9-9.9-106.8-24.7-157.9-44.1-51.2-19.5-100.5-43.5-147.4-71.8-46.8-28.4-91-60.9-132-97.2-161.4-146.1-252-344.2-252-550.8 0-206.6 90.6-404.8 252-550.9 41-36.3 85.2-68.8 132-97.1 46.8-28.4 96.2-52.4 147.4-71.8 51.1-19.5 104-34.3 157.9-44.2 53.8-9.9 108.5-14.9 163.2-15 7.3-0.1 7.9 0.5 7.9 7.8v472.1c-7-18-15.6-35.5-25.7-52-10.1-16.5-21.7-32.1-34.6-46.5-13-14.5-27.2-27.7-42.6-39.6-15.3-11.8-31.7-22.2-49-31.1-62.4-32.1-116.1-17.6-148.1 12.2-7 6.5-7.3 9.3 0.4 14.7q11.1 7.6 21.9 15.6 10.7 8 21.2 16.4 10.5 8.5 20.6 17.3 10.1 8.8 19.9 18c3.7 3.6 3.5 3.6 8.3 1.6q8.8-4.2 18-7.2 9.2-3 18.7-4.9 9.5-1.9 19.2-2.7 9.7-0.7 19.3-0.2c2.8 0.3 5.2 3.6 3.7 5.7-16.9 16.5-31.7 26.7-46 38.7-5.7 4.7-5.7 5.5-0.9 11.1q6.8 7.8 13.4 15.9 6.6 8.1 12.8 16.4 6.3 8.3 12.3 16.8 5.9 8.6 11.6 17.3c3.3 5.1 3.5 5.2 9.2 3.1q9.3-3.9 19-6.6 9.7-2.7 19.7-4.3 9.9-1.6 20-2 10-0.4 20.1 0.4c2.5 0.4 4.3 4.2 2.2 6-18 15.7-37.2 28.4-58.4 45.6-4.8 3.9-4.8 4.1-2 9.6q10.6 21.2 19.6 43.3 9.1 22 16.4 44.6 7.4 22.6 13.1 45.7 5.6 23.1 9.5 46.6c0.3 2.2 0.9 4.4 1.9 6.4 0.9 2.1 2.2 4 3.7 5.6 1.5 1.7 3.3 3.1 5.2 4.2 2 1.1 4.1 1.9 6.3 2.4 41.6 13 62.2 107.3 20 200.3-62-338.7-277.5-536.3-479.1-508.2-12.1 0.9-23.9 3.7-35.1 8.3-11.3 4.6-21.7 10.9-30.9 18.7-9.3 7.8-17.3 17-23.8 27.3-6.4 10.2-11.2 21.4-14.2 33.2-2.4 9.2-1.5 11 7.8 12.6 244.4 43.6 337.4 125.5 430.6 246.8 1.4 2.1 3.1 4 5 5.6 2 1.6 4.2 2.9 6.5 3.9 2.3 0.9 4.8 1.6 7.3 1.8 2.6 0.2 5.1 0.1 7.6-0.4 70.9-14.2 93.8 148.2 112.6 241.2-197.5-340.4-544.7-422.6-677.2-312.5-8.4 6-15.9 13.4-22.1 21.7-6.1 8.3-10.9 17.6-14.1 27.5-3.3 9.8-4.9 20.1-4.9 30.5 0 10.3 1.6 20.6 4.9 30.5 2.7 9.2 2.7 11.5 11.5 8.3q13-4.7 26.3-8.7 13.2-3.9 26.7-7 13.4-3.1 27.1-5.4 13.6-2.3 27.3-3.8c4.9-0.5 4.7-0.4 6.5-4.9 15.1-39.2 29.7-69.8 47.3-79.2 2.4-1.4 6.1-1.1 6.5 1.5 0 22.5-2.4 44.9-3.8 71.6-0.4 7.4 0.2 8.1 7.6 8.2q12.9 0.3 25.8 1.1 12.9 0.9 25.8 2.3 12.8 1.4 25.6 3.4 12.7 1.9 25.4 4.5c5.7 1.1 5.7 1.1 8.4-4 17.2-32.8 30.7-53.5 46.5-60.6 2.4-1 6 0.3 5.8 2.7-0.7 12.9-4.4 39.9-7.7 67.9-0.7 6.3-0.5 6.6 5.6 8.4q18.8 5.5 37.3 12 18.5 6.5 36.7 13.9 18.1 7.5 35.9 15.8 17.8 8.3 35.1 17.6c2.5 1.2 5.1 2.2 7.9 2.8 2.7 0.6 5.5 0.9 8.3 0.8 2.8-0.1 5.6-0.5 8.3-1.3 2.7-0.8 5.3-1.9 7.8-3.3 60.5-31.6 219.2 184 184.6 156.4-306.1-243.8-636.2-176.3-689.3-36.6-3.1 8-5.2 16.4-6.3 25-1.1 8.6-1.3 17.2-0.4 25.8 0.9 8.6 2.7 17.1 5.5 25.2 2.9 8.2 6.6 16 11.2 23.3 5.1 8 8.5 9.5 15.1 2.9q9.5-9.4 19.7-17.8 10.2-8.5 21.2-16 10.9-7.5 22.4-14 11.6-6.6 23.7-12.1c4.2-2 4.1-1.7 4.5-6.4q0.5-12.8 2.5-25.4 2-12.6 5.4-24.9 3.4-12.3 8.2-24.1 4.8-11.9 10.9-23.1 0.6-0.8 1.5-1.3 0.9-0.5 1.9-0.5 1 0 1.9 0.5 0.9 0.5 1.5 1.3c5.4 28.4 8.6 51.1 13.3 75.4 1.4 7.5 2.3 8.1 9.7 6q12.1-3.3 24.3-6 12.2-2.8 24.5-5 12.4-2.3 24.8-3.9 12.4-1.7 24.9-2.8c5.5-0.5 5.5-0.5 6.8-6q1.9-10.2 4.8-20.1 2.9-10 6.8-19.6 3.8-9.7 8.6-18.9 4.8-9.2 10.4-17.9c1.6-2 5.9-1.5 6.3 1.3 2.6 19.6 4.1 43.7 7.2 71.1 0.7 6.7 1.1 7 7.9 6.9q17.4-0.2 34.8 0.2 17.4 0.3 34.8 1.3 17.4 0.9 34.7 2.4 17.4 1.6 34.7 3.7 4.6-0.1 9.2-1 4.6-0.9 9-2.6 4.4-1.7 8.4-4.1 4-2.4 7.5-5.5c61.9-34 157.1 40.9 192.4 65.6q2.7-12.6 6.2-25.1 3.5-12.4 7.7-24.6 4.2-12.2 9.2-24.1 4.9-12 10.5-23.6c165.6-301.1 545-362.5 648-261.9 7.1 6.8 13.5 14.3 18.8 22.5 5.4 8.3 9.8 17.1 13.1 26.3 3.3 9.3 5.5 18.9 6.5 28.7 1 9.7 0.9 19.6-0.4 29.3-1.9 9.4-4.8 13-12.9 8z"/>
				</g>
			</g>
		</g>
	</g>
</svg>