<svg version="1.2" xmlns="http://www.w3.org/2000/svg" viewBox="0 0 1593 1018" width="1593" height="1018">
	<title>drmtchlogo-white2-svg</title>
	<style>
		.s0 { fill: #31428c } 
	</style>
	<g id="#ffffffff">
		<path id="Layer" fill-rule="evenodd" class="s0" d="m0.4 0.5c128.4 0.1 256.9-0.2 385.4 0.2 85.4 1.3 172 21.4 244.6 67.7 66.2 41.5 118.5 103.7 151.1 174.5 40.6 86.3 54.9 182.9 53.4 277.6-1.1 121.3-32.3 246.6-109.9 342.2-42.4 53.3-99.2 94.7-162.1 120.4-61 24.9-127.4 35.3-193.2 34-123.1 0-246.2-0.1-369.3 0 0-338.9 0-677.8 0-1016.6zm193.9 181.5c0 218.1 0 436.3 0 654.4 59.6 0.1 119.3 0 178.9 0.1 47.2 0.2 95.8-7.6 137.1-31.7 52.2-28.9 88.3-81.1 106.7-137.1 23.5-68.4 27.2-142.1 22-213.8-6.3-72.6-26-148.6-77.5-202.6-43.6-47-108.7-68.2-171.5-69.3q-97.9 0-195.7 0z"/>
		<path id="Layer" class="s0" d="m829.5 0.5q381.5 0 763.1 0 0 59.6 0 119.3c-106.3 0-212.7 0-319 0 0 299.1 0 598.2 0 897.3-41.7-0.1-83.4 0-125.1-0.1q0-448.6 0-897.2c-106.4 0-212.7 0-319 0q0-59.7 0-119.3z"/>
	</g>
</svg>