<svg version="1.2" xmlns="http://www.w3.org/2000/svg" viewBox="0 0 1524 590" width="1524" height="590">
	<title>dulem-svg</title>
	<style>
		.s0 { fill: #ffffff } 
	</style>
	<g id="Layer">
		<path id="Layer" fill-rule="evenodd" class="s0" d="m279.6 345.2c0 25.8-5.5 48.9-15.2 68.7-10.4 18.7-23.4 34.7-39.8 46.8-15.7 12.1-34.2 20.9-54.3 27-20.2 6-40.3 8.8-59.9 8.8h-105.5c-2.7 0-4.9-2.2-4.9-5v-292.7q0-1 0.4-1.9 0.3-0.9 1-1.6 0.7-0.7 1.6-1.1 0.9-0.3 1.9-0.3h105.5c20.1 0 39.7 2.7 59.9 7.7 20.1 4.9 38 13.7 54.4 25.3 16.3 12.1 29.3 27.5 39.7 46.7 9.7 19.3 15.2 42.9 15.2 71.6zm-66.4-1.1c0-19.8-3.2-36.3-9.8-49-6.5-12.1-15.2-22-25.5-29.2q-4.1-2.5-8.4-4.7-4.2-2.2-8.7-4-4.4-1.8-9-3.2-4.6-1.4-9.3-2.4c-13.6-2.7-27.2-3.8-40.2-3.8h-39.2v193.1h39.2c13.6 0 26.6-1.1 40.2-4.4q4.8-1 9.4-2.5 4.6-1.5 9.1-3.4 4.4-2 8.6-4.4 4.3-2.3 8.3-5.1c10.3-7.2 19-17.1 25.5-29.2q9.8-18.1 9.8-47.8zm291.1-51.2v198.6c0 2.7-2.1 4.9-4.9 4.9h-48.2c-2.8 0-5-2.2-5-4.9v-16.6q-1.8 2.1-3.8 4.1-2.1 2-4.2 3.9-2.1 1.8-4.4 3.6-2.2 1.7-4.6 3.3c-12 8.3-25.7 12.2-42.2 12.2-13.7 0-26.3-2.2-36.1-7.2q-3.7-1.7-7.1-3.8-3.4-2.1-6.6-4.5-3.2-2.5-6.1-5.3-2.9-2.7-5.5-5.8c-6.5-8.3-11.5-17.1-14.2-27.6-2.8-10-4.4-20.5-4.4-31v-124.4q0-1 0.4-1.9 0.3-0.9 1-1.6 0.7-0.7 1.6-1.1 0.9-0.4 1.9-0.4h51q1 0 1.9 0.4 0.9 0.4 1.6 1.1 0.7 0.7 1.1 1.6 0.3 0.9 0.3 1.9v110.6c0 5.5 0.6 11.6 1.1 17.7 0.6 5.5 2.2 11 5 15.5q0.8 1.6 1.8 3.2 1.1 1.6 2.3 3 1.3 1.4 2.7 2.6 1.5 1.2 3 2.2c4.4 2.8 9.9 4.4 17 4.4 7.2 0 13.2-1.6 18.7-4.4 5.5-2.7 9.8-6.6 13.1-11 3.3-4.5 6.1-9.4 7.7-15.5 1.6-6.1 2.7-12.2 2.7-18.3v-109.5q0-1 0.4-1.9 0.4-0.9 1.1-1.6 0.7-0.7 1.6-1.1 0.9-0.4 1.9-0.4h51c2.7 0 4.9 2.3 5.4 5zm225.9 43c2.7 10 4.4 20.5 4.4 30.9v124.7c0 2.8-2.2 5-5 5h-51.1c-2.7 0-4.9-2.2-4.9-5v-110.3c0-5.5-0.6-11.6-1.1-17.7-0.6-5.5-2.2-11-5-15.4-2.2-4.4-5.5-8.3-9.9-11.1-4.4-2.7-9.9-4.4-17-4.4-7.2 0-13.8 1.7-18.7 4.4q-2 1-3.8 2.2-1.8 1.2-3.4 2.6-1.7 1.4-3.2 3-1.5 1.5-2.8 3.3c-3.3 4.4-6 9.4-7.7 15.4-1.6 6.1-2.7 12.2-2.7 18.2v109.8c0 2.8-2.2 5-5 5h-51.1c-2.8 0-5-2.2-5-5v-199.1q0-1 0.4-1.9 0.4-0.9 1.1-1.6 0.7-0.7 1.6-1.1 0.9-0.4 1.9-0.4h48.4q0.9 0 1.9 0.4 0.9 0.4 1.6 1.1 0.7 0.7 1 1.6 0.4 0.9 0.4 1.9v16.5q1.8-2.2 3.7-4.2 1.9-2 4-3.9 2-1.8 4.3-3.5 2.2-1.7 4.5-3.3c12.1-8.3 26.4-12.1 42.3-12.1 13.8 0 26.4 2.2 36.3 7.2q3.5 1.7 6.9 3.8 3.3 2.1 6.4 4.6 3.2 2.4 6 5.1 2.9 2.8 5.4 5.8c6.6 7.7 11.6 17.1 14.9 27.5zm245.6 58.5v6.6c0 2.2 0 4.9-0.6 7.1-0.5 2.8-2.7 4.4-4.8 4.4h-148q0.2 1.7 0.6 3.3 0.4 1.6 0.9 3.2 0.6 1.6 1.3 3.1 0.7 1.6 1.5 3 1 2 2.3 3.9 1.2 1.9 2.7 3.6 1.4 1.8 3 3.3 1.7 1.6 3.5 2.9 1.9 1.5 3.9 2.9 2 1.3 4.1 2.5 2.2 1.1 4.4 2.1 2.2 1 4.4 1.9 9.8 3.3 19.6 3.3c12 0 21.8-1.7 29.9-6.1q3-1.4 5.7-3.3 2.7-1.8 5.2-4 2.5-2.1 4.6-4.5 2.2-2.5 4.1-5.2c0.6-1.1 2.2-2.2 3.3-2.2 1.6 0 2.7 0 3.8 1.1l33.7 26.4c2.2 1.6 2.7 4.4 1.1 6.6-20.7 27.9-51.1 41.7-90.3 41.7-16.3 0-31.6-2.8-45.2-7.7q-4.9-1.8-9.7-4-4.7-2.3-9.3-5-4.5-2.7-8.7-5.8-4.2-3.1-8.2-6.6-3.9-3.5-7.3-7.5-3.5-3.9-6.5-8.2-3.1-4.3-5.6-8.9-2.5-4.6-4.5-9.5c-6-13.7-8.7-28.5-8.7-45.5q0-5.8 0.5-11.7 0.6-5.8 1.7-11.5 1-5.7 2.7-11.3 1.6-5.6 3.8-11.1c5.4-13.7 13.6-25.2 23.4-35.1 9.8-9.9 21.8-17 35.4-22.5q20.4-8.2 44-8.2c14.7 0 28.3 2.2 40.8 7.1q4.6 1.8 9 4.1 4.4 2.2 8.5 4.9 4.1 2.7 7.9 5.8 3.8 3.1 7.3 6.6 3.5 3.8 6.6 8 3.1 4.1 5.8 8.5 2.6 4.4 4.8 9.1 2.3 4.7 4 9.6c4.9 14.2 7.6 30.1 7.6 48.8zm-60.9-27.4c0-4.4-1.1-8.3-2.2-12.1-1.6-5.5-4.4-9.9-7.6-13.7-3.3-3.9-7.6-7.2-13.1-9.4-4.9-2.2-11.4-3.3-19-3.3-14.2 0-25.6 3.9-35.4 12.1-8.1 7.1-13.6 15.9-15.2 26.4zm507.3-23.4q0.9 3.8 1.5 7.7 0.6 3.8 1 7.7 0.4 3.9 0.6 7.8v124.7c0 2.8-2.2 5-4.9 5h-51.2c-2.7 0-4.9-2.2-4.9-5v-110.3c0-5.5-0.6-11.6-1.1-17.7-0.6-5.5-2.2-11-5-15.4-2.2-4.4-5.5-8.3-9.9-11.1-4.4-2.7-9.9-4.4-17-4.4-7.2 0-13.2 1.7-18.2 4.4q-1.8 1.2-3.5 2.5-1.7 1.4-3.3 2.8-1.6 1.5-3 3-1.5 1.6-2.8 3.3c-3.3 4.4-5.5 10-7.2 16-1.6 6.1-2.2 12.2-2.2 18.2v108.2c0 2.7-2.2 4.9-4.9 4.9h-51.2c-2.7 0-4.9-2.2-4.9-4.9v-120.3q0-17.4-8.3-28.1c-4.9-7.2-13.2-10.5-24.7-10.5q-2.3 0-4.6 0.2-2.3 0.3-4.5 0.9-2.2 0.5-4.4 1.4-2.1 0.8-4.1 1.9c-5 2.8-8.8 6.6-12.1 11-2.8 5-5.5 10-7.2 16-1.6 6.1-2.7 12.2-2.7 18.2v109.8c0 2.8-2.2 5-5 5h-51.1c-2.8 0-5-2.2-5-5v-199.1q0-1 0.4-1.9 0.4-0.9 1-1.6 0.7-0.7 1.7-1.1 0.9-0.4 1.9-0.4h48.4q1 0 1.9 0.4 0.9 0.4 1.6 1.1 0.7 0.7 1.1 1.6 0.3 0.9 0.3 1.9v16.5l1.7-1.6q1.6-1.8 3.3-3.5 1.7-1.7 3.4-3.3 1.8-1.6 3.7-3.1 1.9-1.5 3.9-2.8 2.2-1.6 4.5-2.9 2.3-1.4 4.7-2.6 2.4-1.1 4.9-2.1 2.5-1 5.1-1.8c7.7-2.2 15.4-3.3 24.2-3.3 17.1 0 31.4 3.8 42.4 11 8.8 6.1 15.9 13.3 21.4 22.1q2.4-3.5 5.2-6.7 2.8-3.2 5.9-6 3.1-2.9 6.6-5.4 3.4-2.4 7.1-4.5c12.1-7.2 26.4-10.5 42.3-10.5 13.8 0 26.4 2.2 36.3 7.2q3.6 1.7 6.9 3.8 3.4 2.1 6.5 4.6 3.1 2.4 6 5.1 2.8 2.8 5.4 5.8c6.6 8.2 11.5 17.1 14.3 27.5q1 3.8 1.8 7.7zm-358.7-164.1v312.6c0 2.2-2.1 4.4-4.8 4.4h-50.6c-2.7 0-4.9-1.7-4.9-4.4v-272.9q0-1 0.2-1.9 0.2-0.9 0.6-1.8 0.4-0.9 1.1-1.6 0.6-0.7 1.4-1.3l44.1-38.6c6.5-5 12.9-0.6 12.9 5.5z"/>
		<path id="Layer" class="s0" d="m5.5 590c-2.8 0-5.5-2.2-5.5-4.9v-46.7c0-2.7 2.2-4.9 5.5-4.9h1457.7v-281.5c0-0.5-2.7-4.9-3.2-6l-195.5-172.8-152.7 129.5c-4.4 3.8-12.1 2.2-12.6-5.5v-57.1c0-2.2 1.1-4.9 2.7-6.6l133.1-112.4c7.6-5.5 18-8.8 29.5-8.8 11.5 0 21.9 3.3 29.6 8.8l202.5 178.8c15.3 11 27.4 34 27.4 52.7v300.6c0 20.3-17 36.8-37.8 36.8z"/>
	</g>
</svg>