<svg version="1.2" xmlns="http://www.w3.org/2000/svg" viewBox="0 0 1581 788" width="1581" height="788">
	<title>1315 Van Trump-4-pdf-svg</title>
	<defs>
		<clipPath clipPathUnits="userSpaceOnUse" id="cp1">
			<path d="m-2520.25-398.39h15775.67v8873.81h-15775.67z"/>
		</clipPath>
		<clipPath clipPathUnits="userSpaceOnUse" id="cp2">
			<path d="m1818.06-179.5v1431.06h-1998.09v-1431.06"/>
		</clipPath>
	</defs>
	<style>
		.s0 { fill: #ffffff } 
	</style>
	<g id="Clip-Path: Page 1" clip-path="url(#cp1)">
		<g id="Page 1">
			<g id="Clip-Path: Mask" clip-path="url(#cp2)">
				<g id="Mask">
					<path id="Path 15" class="s0" d="m1288.9 181.7l-73.9 183.2-78.9-181.6 74.8-183.2z"/>
					<path id="Path 16" class="s0" d="m1398.2 290.2l182.4 76.4-183.2 75.6-182.4-76.5zm-0.9 0l-183.2 75.6 74.8-182.4 183.2-76.4z"/>
					<path id="Path 17" class="s0" d="m1211.7 0.9l3.3 364.8-78.1-181.5z"/>
					<path id="Path 18" class="s0" d="m1288.9 182.5l183.2-75.6-257.1 258.8z"/>
					<path id="Path 19" class="s0" d="m1398.2 290.2l182.4 76.4-365.6-0.9z"/>
					<path id="Path 20" fill-rule="evenodd" class="s0" d="m127.1 573.6c-1.6-4.1-2.5-6.6-3.3-14.8-12.3 13.2-27.1 18.9-46 18.9-47.6 0-77.2-37.8-77.2-96.9 0-58.4 32.8-98.6 78-98.6 16.5 0 29.6 4.9 41.1 17.2 0 0-1.6-14.8-1.6-31.2v-69l41.1 6.6v202.1c0 37 1.6 55.9 5.7 65.7zm-9-143.8q-14-14.8-34.5-14.8c-25.5 0-37.8 20.6-37.8 65.8 0 41.9 8.2 62.4 38.6 62.4 15.6 0 27.9-8.2 33.7-18.1zm208.7 151.2c-11.5-4.1-21.4-13.1-25.5-25.4-15.6 17.2-32.1 23-52.6 23-42.7 0-62.4-23.9-62.4-55.9 0-43.6 32.8-65.7 93.6-65.7h12.4v-9.9c0-21.4-4.2-32.9-25.5-32.9-28 0-56.7 21.4-56.7 21.4l-18.1-29.6c27.9-18.1 51.8-25.5 79.7-25.5 29.6 0 49.3 10.7 57.5 31.3 3.3 8.2 3.3 18 2.5 46l-0.8 54.2c0 24.7 2.4 32.9 17.2 42.7zm-42.7-96.1c-41.1 0-53.4 11.5-53.4 35.3 0 18.1 9.9 28.8 26.3 28.8 13.1 0 25.5-7.4 33.7-19.7l0.8-44.4c0 0-4.1 0-7.4 0zm190.6 88.7v-124.9c0-25.4-5.7-32.8-21.3-32.8-12.4 0-28.8 9-41.9 21.3v136.4h-40.3v-138c0-19.7-1.6-31.2-6.6-44.4l37-10.6c4.9 8.2 7.4 16.4 7.4 26.2 19.7-16.4 37-25.4 57.5-25.4 28.8 0 48.5 17.2 48.5 51.7v140.5zm99-216.1c-14.8 0-26.7-12.1-26.7-27.1 0-15 11.9-27.1 26.7-27.1 14.8 0 26.7 12.1 26.7 27.1 0 15-11.9 27.1-26.7 27.1zm-21 216.1v-184.8l41.1-7.4v192.2zm276.9 0v-129.8c0-22.2-4.9-28.7-19.7-28.7-13.1 0-26.3 9.8-39.4 21.3v137.2h-39.5v-129c0-22.1-4.9-28.7-20.5-28.7-10.7 0-24.7 5.7-38.6 18.1v139.6h-39.5v-134.7c0-23.8-2.4-37.8-6.5-47.7l36.9-10.6q5.8 9 6.6 24.6c14.8-15.6 32-23.8 50.1-23.8 16.5 0 31.2 4.9 45.2 27.1 18.1-18.1 36.2-27.1 55.9-27.1 31.2 0 49.3 15.6 49.3 54.2v138zm110.1-82.9v3.2c0 25.5 9 53.4 46.8 53.4 17.3 0 32.1-6.5 46-18.9l16.5 25.5c-19.8 16.5-42.8 24.7-67.4 24.7-54.2 0-87.1-38.6-87.1-98.6 0-33.7 7.4-55.1 23-74 15.6-17.2 33.7-24.6 58.3-24.6 18.1 0 35.4 4.9 51.8 18.9 16.4 14.8 23.8 37.8 23.8 82.1v8.3zm37-78.9c-23.8 0-36.2 18-36.2 48.5h69.9c0-30.5-14-48.5-33.7-48.5zm189.8 9c-4.1-0.8-7.4-2.5-11.5-2.5-17.3 0-31.2 12.4-35.3 28v127.3h-41.1v-133.1c0-23.8-2.5-38.6-6.6-50.1l37.8-9.8c4.1 9 6.6 19.7 6.6 29.5 14.8-19.7 29.6-29.5 48.5-29.5 5.7 0 9 0.8 13.9 2.4zm-443.7 238.3l-7.4 14.8c-11.5-5.8-21.3-9.1-32.8-9.1-14.8 0-24.7 8.3-24.7 20.6 0 10.7 5 16.4 19.7 19.7l16.5 3.3c23.8 4.9 34.5 16.4 34.5 36.1 0 24.7-19.7 41.9-48.5 41.9-16.4 0-34.5-4.9-47.6-12.3l7.3-15.6c14 8.2 27.2 12.3 41.1 12.3 16.5 0 26.3-9 26.3-22.1 0-11.5-6.5-18.1-21.3-21.4l-15.7-3.3c-21.3-4.1-32.8-18.1-32.8-36.1 0-23.1 18.9-39.5 46-39.5 14 0 28.8 4.1 39.4 10.7zm115.9 4.9l-11.5 14c-9.1-7.4-14.8-10.7-24.7-10.7-9.8 0-19.7 5.8-24.6 14.8q-7.4 14-7.4 42.7c0 28.8 11.5 44.4 32 44.4 10.7 0 20.6-4.9 28-14l11.5 13.2c-12.4 12.3-23.9 17.2-39.5 17.2q-28.3 0-41.9-19.7c-8.2-12.3-12.3-26.3-12.3-45.2 0-28.7 8.2-44.4 19.7-55 9.9-10.7 21.4-15.6 34.5-15.6 17.3 0 26.3 6.5 36.2 13.9zm27.1-9.8l21.4-4.1v132.2h-21.4zm11.1-24.6c-8.9 0-16-7-16-15.6 0-8.7 7.1-15.6 16-15.6 8.9 0 16 6.9 16 15.6 0 8.6-7.1 15.6-16 15.6zm138.4 127.3l8.3 12.4c-12.4 10.7-27.2 16.4-44.4 16.4-35.3 0-57.5-25.5-57.5-69 0-21.4 4.9-35.3 15.6-48.5 10.7-12.3 23.8-18.1 38.6-18.1 14 0 27.1 5 35.3 14 11.5 11.5 14.8 23.8 14.8 55.1v2.4h-80.5v3.3c0 12.3 0.8 21.4 5.8 27.9 7.3 11.5 18.9 15.7 32.8 15.7 12.3 0 22.2-3.3 31.2-11.6zm-69.8-50.1h59.2c0-14.8-1.7-23-5.8-29.6-4.9-6.5-14-10.6-23.8-10.6-18.1 0-28.8 13.1-29.6 40.2zm112.6-50.9l19.7-5.8c0 0 4.9 9.9 4.9 20.6 13.2-13.2 27.1-20.6 41.1-20.6 13.1 0 26.3 8.2 31.2 19.8 2.5 4.1 3.3 9.8 3.3 14.7v97.8h-20.5v-87.1c0-13.9-0.9-17.2-5-21.3-2.4-3.3-8.2-5.8-13.9-5.8-10.7 0-27.1 8.2-36.2 18.9v95.3h-19.7v-99.4c0-18.1-4.9-27.1-4.9-27.1zm198-2.5l-5.8 15.6h-27.1v83c0 14.8 4.1 19.7 16.5 19.7 5.7 0 9-0.8 13.1-3.2l2.5 13.9c-6.6 2.5-14 4.9-23 4.9-6.6 0-11.5-1.6-17.3-4.1-8.2-4.1-12.3-12.3-12.3-25.4v-88.8h-16.5v-15.6h16.5c0-12.3 2.4-32.8 2.4-32.8l21.4-5c0 0-2.5 20.6-2.5 37.8zm28 0.8l21.3-4.1v132.3h-21.3zm11.1-24.6c-8.9 0-16.1-7-16.1-15.6 0-8.7 7.2-15.7 16.1-15.7 8.8 0 16 7 16 15.7 0 8.6-7.2 15.6-16 15.6zm113.8-12.4c-5-2.4-12.4-5.7-18.9-5.7-11.5 0-18.1 7.4-18.1 23v19.7h36.1l-6.5 15.6h-29.6v113.4h-21.4v-113.4h-12.3v-15.6h12.3v-20.5c0-18.9 9.1-27.1 14.8-32.1 5.8-4.1 13.2-5.7 23-5.7 10.7 0 20.6 2.4 28 6.6zm27.1 37.8l21.3-3.3v132.2h-21.3zm11.1-25.4c-8.9 0-16.1-7-16.1-15.6 0-8.7 7.2-15.6 16.1-15.6 8.8 0 16 6.9 16 15.6 0 8.6-7.2 15.6-16 15.6zm130.2 35.3l-10.7 14c-9.8-7.4-14.8-10.7-24.6-10.7-10.7 0-19.7 5.7-24.7 14.8q-7.4 14-7.4 42.7c0 28.8 11.5 44.4 32.1 44.4 10.7 0 20.5-4.9 27.9-14l10.7 13.2c-11.5 12.3-23 17.2-39.5 17.2q-27.1 0-41-19.7c-8.3-12.3-12.4-27.1-12.4-46 0-28 8.3-44.4 19.8-55.1 9.8-10.7 21.3-14.8 34.5-14.8 16.4 0 26.3 5.8 35.3 14z"/>
				</g>
			</g>
		</g>
	</g>
</svg>