<svg version="1.2" xmlns="http://www.w3.org/2000/svg" viewBox="0 0 1578 1578" width="1578" height="1578">
	<title>logo-dc-svg</title>
	<style>
		.s0 { fill: #99ccff } 
	</style>
	<g id="Layer_2">
		<g id="Logo">
			<path id="Path_233" class="s0" d="m1576.3 792.7c-0.5 1.1-1.3 2.2-2.2 3.1-0.9 1-2 1.7-3.2 2.2-1.2 0.5-2.5 0.7-3.8 0.7h-88.7c-620.9 0-680.1 59.1-680.1 680.1v88.8c0 1.3-0.2 2.6-0.7 3.8-0.5 1.2-1.2 2.3-2.2 3.2-0.9 0.9-2 1.6-3.2 2.1-1.2 0.5-2.4 0.8-3.7 0.8-1.3 0-2.6-0.3-3.8-0.8-1.2-0.5-2.3-1.2-3.2-2.1-0.9-1-1.6-2.1-2.1-3.2-0.5-1.2-0.7-2.5-0.7-3.8v-88.8c0-621-59.2-680.1-680.1-680.2h-88.7c-1.3 0-2.6-0.3-3.8-0.8-1.2-0.5-2.3-1.2-3.2-2.1-0.9-0.9-1.7-2-2.1-3.2-0.5-1.2-0.8-2.5-0.8-3.8 0-1.3 0.3-2.6 0.8-3.8 0.5-1.2 1.2-2.2 2.1-3.1 0.9-1 2-1.7 3.2-2.2 1.2-0.5 2.5-0.7 3.8-0.7h88.7c621 0 680.1-59.1 680.1-680.1v-88.8c0-1.3 0.2-2.6 0.7-3.8 0.5-1.2 1.3-2.3 2.2-3.2 0.9-0.9 2-1.6 3.2-2.1 1.2-0.5 2.5-0.8 3.8-0.7 1.3 0 2.6 0.2 3.8 0.7 1.2 0.5 2.3 1.2 3.2 2.1 0.9 1 1.7 2 2.1 3.2 0.5 1.2 0.8 2.5 0.8 3.8v88.8c0 621 59.1 680.1 680 680.1h88.8c1.3 0 2.6 0.3 3.8 0.8 1.2 0.5 2.3 1.2 3.2 2.1 0.9 0.9 1.6 2 2.1 3.2 0.5 1.2 0.8 2.5 0.7 3.8-0.1 1.4-0.3 2.7-0.8 3.9z"/>
		</g>
	</g>
</svg>