<svg version="1.2" xmlns="http://www.w3.org/2000/svg" viewBox="0 0 1559 1623" width="1559" height="1623">
	<title>download (4) (1)-svg</title>
	<style>
		.s0 { fill: #f57921 } 
		.s1 { fill: #0b4696 } 
	</style>
	<g id="#f57921ff">
		<path id="Layer" class="s0" d="m689.8 0.4c60.9 0.8 122.1 1.2 183.2 0.6c-0.4 25.2-0.6 50.4-1 75.6c172.3 23.3 338.6 99.7 460.6 224.8c134.3 130.7 214 313.6 226.2 500.1q-101.6 0.6-203.3 0c-19.7-257.2-229-479.7-482.9-520.7c-1 37.2-0.4 74.4 2.6 111.4c177.3 31.9 319.4 177.3 364.6 348.9c-60.2 1-120.5 1.2-180.7-0.6c-51.7-132.7-204.2-218.4-344.4-182.8c-99.1 18.9-175.4 96.3-217.8 184.6c-58.2-0.8-116.5-0.8-174.9-1c41.6-175.8 190.1-318.6 368-351.3c-0.2-36.6-0.4-73.2-0.8-109.8c-253.5 40.2-465.5 261.5-483.5 519.5c-68 3.6-136.3 1.8-204.5 1.8c16-367.8 325.2-688.4 690.2-725.5c-0.6-25.2-1.2-50.4-1.6-75.6z" />
	</g>
	<g id="#0b4696ff">
		<path id="Layer" class="s1" d="m312.2 799.5c312.4 1.4 625-2.8 937.4 2c-0.2 53.4-3.2 106.7-13.8 159.1c-121.1 0-242.2-0.2-363.6 0c0.2 33.6 0.2 67 0.2 100.6c109-0.2 217.7 1 326.6-1.2c-31.9 62.1-79.3 113.5-130.3 160.3c-65.5 1.4-130.9 1.4-196.3 1c0 65.1-1.2 130.3 2 195.2c252.1-43.1 462-262.6 480.5-519.8c68-0.4 136-0.4 203.9-0.2c-13.6 195.8-101.9 386.3-246.8 519.4c-144.3 133.2-340.4 211.7-537.5 206.7c-272.2 4-537.7-152.9-671.4-389.2c-61.1-102.3-90.7-219.4-102.5-336.9c67.2 0 134.3 0.4 201.5-1.4c23.8 258 231.2 480.5 487.1 521.6c1.2-64.9 1.4-129.9 1.2-195c-65 0-130-0.8-194.9-0.2c-53.2-45.4-102.6-97.2-132.3-161.3c108.9 2 218 0.6 327 1.4c0-33.8 0-67.4 0.2-101c-123.8-2.2-247.7 4.6-371-3.8c-6-52.2-8.8-104.7-7.2-157.3z" />
	</g>
</svg>