<svg version="1.2" baseProfile="tiny-ps" xmlns="http://www.w3.org/2000/svg" viewBox="0 0 1699 863" width="1699" height="863">
	<title>db_logo-svg</title>
	<style>
		tspan { white-space:pre }
		.shp0 { fill: #ffc424 } 
		.shp1 { fill: #e31937 } 
	</style>
	<g id="#ffc424ff">
		<path id="Layer" fill-rule="evenodd" class="shp0" d="M117.08 0L273.01 0C297.6 1.97 324.75 3.28 344.66 19.74C361.41 35.05 371.67 57.25 372.37 79.98C373.63 112.04 367.12 143.72 361.46 175.1C349.47 235.56 337.76 296.07 325.36 356.46C317.58 390.08 310.73 425.18 291.5 454.5C273.59 479.12 247.61 498.13 218.42 507.06C191.8 515.1 163.73 515.64 136.16 515.37C95.77 515.37 55.39 515.37 15 515.37C49.15 343.6 82.96 171.77 117.08 0ZM208.84 94.81C187.57 201.97 166.45 309.15 145.16 416.31C156.73 415.92 168.47 417.35 179.94 415.26C189.98 413.49 198.31 406.17 202.83 397.22C211.22 381.01 213.75 362.63 217.32 344.93C230.59 277.89 243.96 210.86 257.06 143.79C258.81 130.33 262.85 114.82 254.83 102.64C242.94 90.29 224.01 96.19 208.84 94.81ZM718.66 0L822.37 0C818.05 19.79 814.26 39.67 810.44 59.56C775.88 59.56 741.34 59.53 706.77 59.58C710.76 39.72 714.63 19.84 718.66 0ZM528.97 109.18C546.43 86.57 573.97 70.89 602.96 71.62C620.2 71.42 638.91 77.5 648.95 92.35C660.06 108.42 659.47 129.33 656.07 147.76C647.13 192.49 638.52 237.29 629.43 281.99C596.45 281.97 563.49 282.02 530.53 281.97C537.09 249.37 543.44 216.7 549.95 184.07C551.04 175.93 553.09 166.38 547.86 159.23C542.34 153.35 532.79 155.46 526.91 159.74C518.77 166.38 515.9 177.12 513.81 186.94C492.1 296.41 470.45 405.88 448.81 515.34C414.27 515.37 379.74 515.37 345.2 515.34C374.17 369.32 402.95 223.24 431.97 77.18C466.48 77.18 501.02 77.16 535.54 77.21C533.33 87.86 531.36 98.58 528.97 109.18ZM1132.64 116.57C1158.8 87.15 1198.68 73.42 1237.23 71.76C1267.03 70.64 1299.04 75.12 1323.25 93.88C1338.86 105.58 1347.27 124.61 1349.5 143.6C1352.03 167.79 1348.58 192.1 1343.91 215.82C1337.35 248.4 1331.13 281.05 1324.49 313.6C1274.52 313.6 1224.52 313.6 1174.55 313.6C1167.79 347.7 1161.08 381.83 1154.27 415.94C1153.06 423.6 1151.48 431.91 1155 439.23C1160.62 447.25 1172.29 446.74 1180.7 444.38C1193.14 439.96 1198.8 426.54 1201.62 414.63C1206.75 390.54 1211.27 366.3 1216.13 342.14C1250.41 342.23 1284.65 342.09 1318.92 342.21C1312.61 373.11 1307.53 404.42 1297.32 434.37C1291.46 451.85 1281.86 468.21 1268.37 480.92C1242.68 507.32 1205.39 519.53 1169.13 519.65C1140.93 520.18 1110.79 518.75 1086.14 503.53C1071.56 494.66 1061.89 479.32 1058.29 462.81C1051.63 437.8 1053.14 411.57 1056.47 386.16C1060.67 354.78 1067.48 323.83 1073.58 292.76C1081.4 254.31 1088.28 215.51 1099.66 177.88C1106.32 155.49 1116.79 133.95 1132.64 116.57ZM1211.08 153.95C1204.35 161.34 1201.91 171.41 1199.97 180.94C1196.47 199.46 1192.68 217.91 1188.98 236.39C1204.98 236.46 1220.95 236.36 1236.94 236.44C1241.15 215.36 1245.69 194.31 1249.31 173.11C1250.67 164.5 1250.67 153.15 1242.24 148.05C1232.05 143.4 1218.69 145.49 1211.08 153.95ZM1515.76 105.09C1530.15 89.39 1548.52 76.16 1570.01 72.95C1592.34 69.7 1616.97 71.91 1635.9 85.16C1649.78 94.91 1656.46 112.19 1657.63 128.6C1659.11 154.93 1652.96 180.77 1648.1 206.44C1627.78 309.44 1607.27 412.37 1587.02 515.37C1552.46 515.34 1517.89 515.39 1483.33 515.34C1504.77 407.72 1525.99 300.06 1547.31 192.39C1549.13 181.18 1551.78 169.39 1548.16 158.26C1546.33 152.11 1539.84 148.19 1533.57 148.82C1524.31 148.58 1516.1 154.32 1510.85 161.56C1502.02 173.57 1499.25 188.62 1496.48 202.94C1475.8 307.06 1455.28 411.23 1434.57 515.37C1399.52 515.37 1364.47 515.37 1329.45 515.37C1358.52 369.34 1387.27 223.26 1416.22 77.21C1451.25 77.18 1486.27 77.14 1521.3 77.23C1519.55 86.54 1517.65 95.83 1515.76 105.09ZM814.79 515.34C819.63 369.29 825.1 223.24 830.15 77.18C864.4 77.21 898.65 77.16 932.87 77.21C928.74 150.79 924.41 224.4 920.5 298.01C945.56 224.5 969.99 150.77 994.83 77.18C1029.9 77.18 1064.97 77.16 1100.05 77.21C1047.04 223.21 994.27 369.34 941.28 515.37C899.11 515.34 856.96 515.39 814.79 515.34ZM702.52 81.44C737.04 81.49 771.53 81.34 806.04 81.49C777.41 226.13 748.85 370.77 720.12 515.37C685.6 515.37 651.09 515.37 616.57 515.37C645.3 370.75 673.79 226.06 702.52 81.44Z" />
	</g>
	<g id="#ffffffff">
	</g>
	<g id="#e31937ff">
		<path id="Layer" class="shp1" d="M1235.89 640.32C1265.43 639.28 1294.98 640.71 1324.49 639.47C1785.58 637.48 2246.79 649.41 2707.07 677.71C2952.98 693 3198.67 712.4 3443.57 739.41C3472.11 743.27 3501.03 744.73 3529.25 750.57L3529.25 751.1C3505.09 747.8 3480.62 747.97 3456.31 746.29C3189.14 733.19 2921.65 726.65 2654.23 723.8C2540.79 723.22 2427.36 721.78 2313.95 723.22C1876.14 725.11 1438.27 739.51 1001.36 768.9C680.48 790.8 360.05 820.68 41.17 863L-131.25 863L-131.25 698.01C323.66 663.46 779.77 644.5 1235.89 640.32Z" />
	</g>
</svg>