<svg version="1.2" xmlns="http://www.w3.org/2000/svg" viewBox="0 0 1506 573" width="1540" height="586">
	<title>Screenshot 2022-12-05 at 17-svg</title>
	<style>
		.s0 { fill: #ffffff } 
		.s1 { fill: #648bc4 } 
		.s2 { fill: #274d85 } 
	</style>
	<g id="#ffffffff">
		<path id="Layer" class="s0" d="m572.1 55.5c42-39.4 101.2-54.4 157.5-55 27.7-0.4 55.5-0.6 83.1 0.8 48.2 5.9 99.6 19.8 133.1 57.3-21.7 2.6-43.6 3-65.1 6.4-117.2 15.4-230.2 56.4-333.6 112.9-6.7 3.4-12.7 8.4-20.3 9.4-0.8-12.7-1.1-25.5-0.5-38.3 3.9-35.2 20.3-68.9 45.8-93.5zm-571.9-46.3c65.6-0.4 131.2-0.1 196.9-0.2 31.9 0.1 63.9-0.3 95.8 0.6 36.5 3.1 73.3 11.1 104.9 30.3 46.8 26.6 79.3 73.7 95.3 124.4 3.7 12.6 7.5 25.1 9.5 38-1.3 2.6-4.1 3.8-6.3 5.4-59.5 36.6-115 79.4-166.1 127-0.1-39.7 3.6-80-6-118.9-4.8-23-16.4-46.3-37.7-58.1-32.6-18.6-71.4-15.5-107.5-15.6 0 95.6-0.3 191.2 0.1 286.8 21.1 0 42.1 0.1 63.1-0.3-31.5 39.4-61.2 80.3-86.5 124.1-2.1 3.7-4.6 7.3-7.1 10.8-49.5-0.3-98.9 0.1-148.4-0.2-0.1-184.7 0-369.4 0-554.1z"/>
	</g>
	<g id="#648bc4ff">
		<path id="Layer" class="s1" d="m1151 13c47.1-13.4 96.6-12.9 145.2-11.6 37.4 3.6 75.8 9.9 109.2 28.1 34.5 19 61.3 51.7 72.4 89.5 4.1 15 8.9 30.1 9.3 45.7-36.7 0.6-73.4-0.1-110 0.4-17.9-0.3-35.7 0.6-53.6-0.5-2.3-11.5-4.4-23.7-11.7-33.2-10.2-12.9-25-22.2-41.2-25.3-20.2-4.2-42-4.5-61.3 3.5-15 6.7-26 22.7-24.7 39.4 1.5 8.4 5.7 16.9 13 21.7 13.6 9.1 29.4 13.8 45.2 17.3 34.9 7.9 70.1 15 104.4 25.8 33.5 10.5 67.7 22 95.9 43.6-12.3-3.4-23.9-8.7-35.9-12.7-43.7-14.2-88.8-23.6-134.4-29-32.5-4.2-65.3-6.6-98.1-6.4-31.2 0.2-62.6-0.9-93.7 2.3-15-0.5-29.7 3.6-44.7 2.6-11.2-31.2-12.4-65.9-1.9-97.4 5.4-15.3 13.4-29.7 22.7-42.9 23.5-30 57.4-50.8 93.9-60.9zm-361.9 105.6c60-13.1 121.4-20.7 182.9-20.8 10.6 22.8 17 47.5 19.2 72.5-38.9 1.5-77.9 0.2-116.8 0.6-16.8-0.4-33.8 1.1-50.5-0.9-3-9.4-5.1-19.5-11-27.6-6.2-9.6-16.7-15-23.8-23.8zm-246.4 93c47.6-24.2 96.2-47.1 146.9-64 3.3 8.2 6.5 17.6 14.9 22 26.9 14.7 57.9 17.4 87.1 24.9 40 10 80.3 20.4 117.7 38.1-8.6 3.4-17.8 4.4-26.8 6.2-69.3 15.4-138 33.8-204.5 58.5-11.2 3.6-22.1 7.9-33 12-3.7 1.7-7.8 0.9-11.4-0.8-33.1-14.4-64.8-35.2-85.1-65.6-5.6-8.2-9.8-17.2-14.1-26 2.7-1.8 5.4-3.7 8.3-5.3zm-63.2 36.7c9.1-5.3 18-11.3 27.6-15.8 2.8 11.7 2.2 23.9 2.6 35.9 0.1 33.6 0.9 67.6-5.6 100.8-0.5 3.4-4.2 4.4-6.7 6-86.2 44.8-168.6 98.2-239.7 164.7-8.5 7.4-15.5 16.4-24.8 22.8-8.3 1.4-16.8 0.5-25.2 0.7-16.5-0.3-33 0.7-49.4-0.6 3.3-7.8 8.6-14.4 13.3-21.4 13.6-20.9 29.5-40.1 44.6-60 13.3-17.8 28.9-33.7 43.1-50.9 6.2-8.2 17.5-7.6 26-12.1 18.4-9 30-27.6 36.6-46.4 2.6-8.1 10.1-12.8 15.9-18.3 44.2-38.9 91.6-74.3 141.7-105.4z"/>
	</g>
	<g id="#274d85ff">
		<path id="Layer" class="s2" d="m1055 244.9c10.5-2.8 21.5-3 32.4-3 32-0.2 63.9-0.5 95.9 0.3 36.7 2.8 73.7 4.2 109.8 12.1 21.4 3.2 42.4 8.5 63.3 14.1 20.3 7 40.8 13.5 60.6 21.7 15 4.4 27.7 13.8 41.8 20.2 10.8 5 20.1 12.3 29.9 19 4.4 3.3 9.9 6.5 11.5 12.3 2.5 8.3 3.3 17 4.4 25.5 2.9 20-0.9 40.1-4.9 59.6-13.2 57.1-58.8 103.6-112.9 124.2-20.1 8.8-42 11.8-63.3 15.7-18.2 3.7-36.7 3.1-55.1 4.5-12.8 0.9-25.6-1-38.4-1.1-18.1-0.1-36.1-2.9-54-5.1-23.2-4.5-46.7-9.6-67.6-20.9-27.6-11.7-50.2-33.3-64.8-59.2-13.4-23.4-23.2-49.1-27-75.8-1.6-12.9-5.1-25.7-4.6-38.8 36.5-1.1 73-0.1 109.5-0.5 15.5 0.4 31-1 46.5 0.8 5.5 17.4 7 36.4 16.8 52.1 10 14.1 23.5 26.1 39.7 32.5 26.9 11.1 58.3 10.8 84.8-1.6 10.9-6 20.1-15.4 26.2-26.3 8.1-17.4 5.7-39.9-7.8-54-13.2-15.3-33.3-20.4-51.5-27.2-15.1-5.7-31.1-8.1-46.9-11.4-36.9-8.9-73.4-20.2-107.8-36.4-17.9-9-35.3-19.4-49.8-33.3-6.3-6-13.2-11.9-16.7-20zm-193.3 25.4c25-3.8 49.4-11.2 74.6-13.9 4.8-0.1 10.5-1.5 14.7 1.6 30.5 24 50.8 60.2 56.2 98.6 1.5 15.8 1.3 31.8 0.1 47.6-4.8 39-23.4 75.8-51 103.7-22.6 23.2-51.4 39.8-82 49.8-23.3 5.9-46.9 11.2-70.8 13.9-25.3 1.1-50.7 0.6-76.1 0.4-19.2 0.2-38-4.1-56.9-6.6-15.8-2-30.5-8.2-45.6-13-30-9.9-56.7-29.5-75.3-55.1-17.9-23.4-30.8-50.6-37.7-79.3-2.2-9.1-4.6-18.4-4.4-27.8 13.2-6.7 26.4-14.3 41-17.6 36.9-1 73.8 0.2 110.8-0.7 5.6-0.2 11.2 0.3 16.9 1 2.7 11.2 3.5 23.2 9.4 33.5 7 12.2 14.1 25.2 26 33.3 11.4 8.9 26 12 40 14 15.5 2.6 31.3 0.3 46.3-3.8 17.3-5.1 32.2-19.4 36-37.3 3.6-15.3-3.2-31.8-15.2-41.6-12.3-11.1-28.6-15.4-44-20.3-13.5-4.5-27.2-8.6-41.2-11.2-19.8-3.8-38.9-9.9-58.4-15 0.1-0.9 0.1-2.7 0.1-3.7 37.5-11.3 74.3-24.9 112.6-33 24.5-6.7 49.2-12.1 73.9-17.5zm-387.9 136.3c8.2-4.6 16.2-9.9 25.3-12.4-9 34.7-26.5 67.2-50.2 94.1-24.9 27.8-56.8 50.5-93.3 60.1-24.1 7.3-49.1 11.1-74.1 13.4-12.5 1.6-25.2 2.1-37.7 0.8 8.9-9.8 19.6-17.6 29.5-26.3 61.9-50.3 129.5-93.4 200.5-129.7z"/>
	</g>
</svg>