<svg version="1.2" xmlns="http://www.w3.org/2000/svg" viewBox="0 0 1560 320" width="1560" height="320">
	<title>logo-color (1)-svg</title>
	<style>
		.s0 { fill: #ffffff } 
	</style>
	<path id="Layer" fill-rule="evenodd" class="s0" d="m1415.1 126.3l2.6 19.9c0 0-17.3-8.5-38-7.3-12.3 0.7-20.2 5-27 10.3v100.7h-28v-124.4l28-3.6v12.1c5.5-3.6 14.9-9.8 28-10.7 15.8-1.1 31.6 2.5 34.4 3zm-739.2 112.8c10.8-0.8 29.7-3.1 29.7-20.8 0-6.1-4-10.8-11-14.7-9.3-5.3-20.7-9.5-25.3-11.5-18.4-7.5-38.1-16.4-38.1-34.7 0-21.1 15.5-35.8 53.4-35.8 16.8 0 37 4.7 37 4.7v19.5c0 0-21.8-11-40.2-11-13.4 0-24.5 4-24.5 15.3 0 5.9 4.1 10.3 10.8 13.9 9.5 5.2 20.8 8.9 25.4 10.8 18.5 7.4 38.3 17 38.3 38.6 0 27.5-25.5 39-58.2 39-26.5 0-42.8-4.9-42.8-4.9v-10.5c-0.1-0.2 27.4 3.4 45.5 2.1zm188.2-93.5c0 0-21.2-10.9-39.3-10.9-34 0-40.9 25.2-40.9 39.4 0 16.1 0.9 31.9 11.5 44.3 10.4 11.8 31.9 20.8 52.3 20.8 8.5 0 19.2-1.9 19.2-1.9v10.5c0 0-14.6 4.6-35.8 4.6-56.7 0-77.7-28.8-77.7-69.2 0-33.5 17.1-61.6 64.2-61.6 28.4 0 46.7 4.7 46.7 4.7v19.3zm430.3 101.5c0 0-15.1 5.1-41 5.1-47.7 0-75.6-24.7-75.6-69.2 0-38.2 17.8-61.6 65.5-61.6 30.8 0 55 18.2 55 50.3v5.4h-92.5c0 13.3 2.2 30.7 13.3 42.8 10.6 11.6 30.1 19.1 51.2 19.1 10.4 0 24.4-3.6 24.4-3.6v11.7zm-27.4-81.9c0-15.7-10.5-30.5-27.9-30.5-25.5 0-31.4 20.6-32.8 30.5zm-235-37.3l28.1-3.7 45.5 93.6 42.9-93.6h21l-60 127.9h-17c0 0-60.5-124.2-60.5-124.2zm-146.3 59.6c0-39 19.7-66.1 67.4-66.1 42.8 0 68.2 25.9 68.2 65.8 0 40.1-22 65-67.6 65-43.8 0-68-26.6-68-64.7zm68.3 51.5c33.9 0 36.8-31.1 36.8-51.5 0-22-5.3-52.8-37.4-52.8-35.3 0-37.2 30.8-37.2 52.8 0 20.1 6 51.5 37.8 51.5zm-372-139.7c-11 0-19.8-7.3-19.8-16.3 0-9 8.8-16.2 19.8-16.2 10.9 0 19.7 7.2 19.7 16.2 0 9-8.8 16.3-19.7 16.3zm-12.9 25.6l28.1-3.7v128.2h-28.1c0 0 0-124.5 0-124.5zm-135.6-55.3c29 0 56.7 7 76.3 22.2 21 16.4 32.6 42 32.6 67.6 0 25.9-11.1 51.5-32.3 67.9-19.4 15.2-47.9 21.9-76.7 21.9h-52.9v-179.6c0 0 53 0 53 0zm-21.6 13.6v152.9c20.5 0 39.6-1.6 52.7-7.3 29-13 43.4-40.2 43.4-69.1 0-29-14.4-56.1-43.4-69-13.1-6.1-32.2-7.5-52.7-7.5zm1021.6 41.5l27-3.4 36.7 92.1 41.7-92.1h20.7l-59 130.2c-9.8 20.7-27.2 48.2-58.6 48.2h-4.7v-19.3c31.5 2.1 44.5-21.4 44.5-30.8 0-7.2-3.6-14.9-3.6-14.9 0 0-44.7-109.9-44.7-110z"/>
	<path id="Layer" fill-rule="evenodd" class="s0" d="m158.8 319.1c-87.8 0-158.8-71.3-158.8-159.5 0-88.3 71-159.6 158.8-159.6 87.8 0 158.8 71.3 158.8 159.6 0 88.2-71 159.5-158.8 159.5zm148-159.5c0-82.2-66.2-148.7-148-148.7-81.8 0-148 66.5-148 148.7 0 82.2 66.2 148.6 148 148.6 81.8 0 148-66.4 148-148.6zm-148.1 140.3c-77.2 0-139.5-62.8-139.5-140.5 0-77.6 62.3-140.4 139.5-140.4 77.2 0 139.6 62.8 139.6 140.4 0 77.7-62.4 140.5-139.6 140.5zm-51.4-210.7c-8 7.8-15.7 15.7-23.2 24 24.5 26.7 49.6 52.4 75.4 77.7 25.8-25.3 51.1-51 75.4-77.7-7.4-8.2-15.2-15.9-23.1-23.7q-26.4 24.8-52.3 50.5c-17.1-17.1-34.5-34.1-52.2-50.8zm24.1-21.4c9.7 7.9 19 16.1 28.3 24.4 9.2-8.3 18.5-16.5 28-24.4-9-7.7-18.5-15-28.2-21.9-9.6 6.9-19 14.2-28.1 21.9zm-68.2 69.2c-6 7.5-11.8 15.1-17.3 23 31.3 43.3 70 81.7 113.6 112.5 43.5-30.8 82.2-69.2 113.2-112.7-5.3-7.7-11-15.3-16.9-22.7-28.8 36-61.3 68.9-96 99.3-35-30.5-67.5-63.5-96.6-99.4z"/>
</svg>