<svg version="1.2" xmlns="http://www.w3.org/2000/svg" viewBox="0 0 1571 1590" width="1571" height="1590">
	<title>Dynatrace_Logo_Horizontal_White-ai</title>
	<style>
		.s0 { fill: #ffffff } 
	</style>
	<g id="Layer 1">
		<g id="&lt;Group&gt;">
			<path id="&lt;Path&gt;" class="s0" d="m462.9 1040.5l-402.6 383.1c0 0-31.1-215-46.8-456.8-9.2-142.4-12.2-269.5-13.1-350.1 25.8-107.4 471.5-54.2 471.5-54.2-23.7 286.3-9 478-9 478z"/>
			<path id="&lt;Path&gt;" class="s0" d="m927.8 1586.6c-1.2 0.3-4.5 0.8-6.6 0.6-25.9-1.8-210.1-14.5-346-30.1-240.7-27.6-454-69.2-454-69.2l402.6-383.2c0 0 190.7 24.1 477.8 14.5 0 0 30.5 437.9-73.8 467.4z"/>
			<path id="&lt;Path&gt;" class="s0" d="m28.8 562.8c-16.3 20.7-23.6 34.3-28.4 53.9-0.1-8.8-0.2-17.1-0.2-24.7 0-5.2-3.9-61.2 48.4-110.9 115.9-110.1 404-383.5 461.5-438 52.3-49.7 108.1-42.9 113.3-42.6 77.4 4.5 216.4 14.3 373.6 32.8 240.7 28.3 452 68.6 452 68.6l-402.6 383.2c0 0-189.9-23.9-477-15-162.6 5-323.5 22.6-432.5 36.8-21.4 2.9-74.9 13.8-108.1 55.9z"/>
			<path id="&lt;Path&gt;" class="s0" d="m1570.5 995.7c0 5.2 4.1 61.2-48.2 111-57.2 54.7-344.6 329-460.2 439.3-52.2 49.8-107.9 43.2-113.1 42.9-7.7-0.5-16-0.9-24.8-1.5 19.9-3.7 33.9-10.4 55.3-25.6 43.6-31.1 57.2-84 61.1-105.3 19.6-108.1 45.1-268 58.2-430.1 23-286.3 8.6-477.1 8.6-477.1l402.5-383.2c0 0 29.9 213 46.2 454.8 10.7 158 13.7 297.2 14.4 374.8z"/>
		</g>
	</g>
</svg>