<svg version="1.2" xmlns="http://www.w3.org/2000/svg" viewBox="0 0 1546 220" width="1546" height="220">
	<title>logo (67)-svg</title>
	<style>
		.s0 { fill: #ffffff } 
	</style>
	<g id="Layer_1-2">
		<path id="Layer" class="s0" d="m832.6 135.5l-40-90.5-40 90.5-15.1 34.3-22.1 50h-39.7l97-219.8h39.7l97.1 219.8h-39.7l-22.1-50c0 0-15.1-34.3-15.1-34.3zm195.3 84.3h-41.6l-88.5-219.8h41.6l67.7 164.2 67.7-164.2h41.6z"/>
		<path id="Layer" fill-rule="evenodd" class="s0" d="m1166.3 169.8l-22.1 50h-39.7l97-219.8h39.7l97 219.8h-39.7l-22-50h-110.2zm95.1-34.2l-40-90.6-40 90.6c0 0 80 0 80 0zm-1094.7-106.8q31.8 28.8 31.8 80.1 0 51.2-30.9 81.1-30.9 29.9-94.5 29.9h-73.1v-219.9h75.6q59.2 0 91.1 28.8zm-5.7 81q0-75.5-86.6-75.5h-37.2v150.7h41.3q40 0 61.3-19 21.2-19.1 21.2-56.2zm134.2 110.1v-86.8l-81.9-133.1h40.7l60.1 100 60.2-100h40.6l-81.9 133.1v86.8zm312.8-219.9h37.2v219.9h-40.3l-124.8-160.4v160.4h-37.1v-219.9h37.1l127.9 164.2zm891.5 219.8l-54.1-82.7h-1.6l-54.2 82.7h-46.3l75.6-112.9-70.3-106.9h46l49.2 74.2h1.6l49.1-74.2h46l-70.2 106.9 75.6 112.9z"/>
	</g>
</svg>