<svg version="1.2" baseProfile="tiny-ps" xmlns="http://www.w3.org/2000/svg" viewBox="0 0 1574 1571" width="1574" height="1571">
	<title>Digital-World-DWAC-svg</title>
	<style>
		tspan { white-space:pre }
		.shp0 { fill: #ffffff } 
	</style>
	<g id="#0e3487ff">
		<path id="Layer" class="shp0" d="M0.8 0.76C465.46 0.14 930.13 0.64 1394.79 0.51C1454.1 0.82 1513.47 -0.29 1572.84 1.13C1573.52 230.78 1572.65 460.43 1573.27 690.08C1523.53 689.83 1472.73 693.6 1425.95 711.63C1346.22 742.13 1279.87 803.88 1241.05 879.71C1219.76 818.27 1199.83 756.46 1180.2 694.52C1118.73 693.23 1057.2 694.15 995.73 693.91C943.27 916.52 891.06 1139.13 839.22 1361.86C815.77 1361.92 792.25 1361.8 768.8 1362.17C728.38 1200.63 688.32 1039.03 648.02 877.49C641.66 851.93 635.99 826.18 627.35 801.29C623.09 813.95 619.14 826.73 615.99 839.7C574.83 1013.96 533.97 1188.28 492.43 1362.48C470.65 1362.42 448.86 1362.6 427.08 1363.22C418.68 1333.02 409.8 1303.01 400.91 1273C391.03 1246.63 412.7 1222.55 419.24 1197.98C433.99 1236.08 439.48 1277.2 455.65 1314.75C467.01 1314.25 469.11 1303.26 471.08 1294.49C514.03 1109.18 559.15 924.36 602.72 739.17C618.95 739.11 635.18 739.11 651.41 738.8C700.42 930.35 749.24 1121.96 798.3 1313.45C801.76 1313.45 808.73 1313.39 812.25 1313.33C859.95 1105.66 907.72 897.93 953.95 689.96C939.75 690.02 925.5 690.02 911.3 689.83C874.7 849.52 841.25 1009.95 804.84 1169.76C766.45 1029.58 733.25 888.05 696.53 747.44C690.3 728.98 691.16 705.02 678.08 690.76C641.54 688.6 604.82 690.08 568.22 690.08C531.62 850.14 494.22 1009.95 457.19 1169.88C446.21 1137.46 432.88 1104.12 437.01 1069.16C442.14 969.81 422.32 863.97 356.78 786.04C332.65 760.72 332.96 723.3 319.81 692.55C306.24 687.24 290.87 690.57 276.61 689.58C279.94 703.17 283.52 716.69 286.8 730.34C265.94 722.25 238.22 718.98 230.7 694.03C154.35 702.12 77.64 696.62 0.93 698.04C0.99 465.62 1.23 233.19 0.8 0.76ZM1437.12 753.43C1480.08 736.21 1526.8 732.81 1572.65 732.87C1573.02 746.64 1573.21 760.35 1573.33 774.12C1510.44 768.38 1444.41 781.9 1393.61 820.87C1330.36 866.13 1298.02 942.39 1287.52 1017.48C1278.27 992.16 1264.75 966.54 1263.52 939.55C1291.54 856.87 1353.93 783.57 1437.12 753.43ZM0.56 733.8C84.74 736.89 174.6 721.76 253.04 760.29C322.34 791.78 362.09 864.28 378.75 935.66C399.98 1034.95 396.4 1143.02 351.35 1235.52C319.2 1297.64 262.54 1352.78 190.95 1363.1C127.88 1371.68 64 1366.55 0.62 1367.23C0.74 1353.65 0.8 1340.06 0.86 1326.54C72.58 1323.7 147.38 1336.17 216.19 1309.99C264.7 1292.7 300.31 1250.46 320.31 1204.15C347.77 1144.75 353.57 1077.93 352.28 1013.34C351.23 949.68 328.64 885.89 286.67 837.72C253.1 799.19 201.38 784.31 152.69 776.34C102.2 773.44 51.53 776.1 0.99 774.92C0.99 761.22 0.8 747.51 0.56 733.8ZM1032.45 737.56C1071.09 735.9 1109.84 737.32 1148.54 737.26C1221.12 958.63 1293.02 1180.25 1366.89 1401.2C1387.63 1409.29 1411.02 1395.39 1432.31 1403.73C1477.98 1417 1525.87 1416.88 1572.96 1415.21C1573.21 1466.9 1573.15 1518.65 1573.27 1570.39C1049.18 1569.28 525.14 1570.21 1.05 1569.9C1.17 1514.2 1.17 1458.5 0.99 1402.8C77.02 1398.85 154.23 1408.98 229.34 1392.98C284.57 1380.76 330.92 1344.51 366.53 1301.78C377.95 1334.44 385.73 1368.34 396.9 1401.13C404.86 1407.68 416.28 1403.67 425.72 1404.96C459.48 1404.59 493.3 1404.84 527.06 1405.21C559.89 1258 593.4 1110.91 626.73 963.82C662.22 1102.69 695.36 1242.19 730.1 1381.25C732.63 1389.09 733.44 1398.36 739.85 1404.41C788.61 1405.15 837.43 1405.46 886.12 1403.67C903.28 1352.54 925.25 1303.2 943.33 1252.44C1035.97 1252.69 1128.54 1252.5 1221.18 1252.44C1239.08 1301.47 1254.81 1351.43 1274.32 1399.9C1286.66 1409.9 1307.52 1402 1323.13 1404.47C1301.84 1339.51 1279.32 1274.98 1258.02 1210.02C1143.48 1208.6 1028.93 1210.26 914.39 1209.34C917.29 1196.12 920.25 1183.03 923.03 1169.82C1030.6 1169.08 1138.17 1169.82 1245.68 1169.51C1205.63 1039.83 1161.62 911.33 1119.04 782.46C1098.98 777.64 1078 780.6 1057.63 780.85C1018.38 891.51 978.94 1002.1 938.21 1112.2C958.82 1014.82 983.76 918.37 1005.54 821.24C1012.76 792.95 1017.27 762.88 1032.45 737.56ZM0.99 810.12C74.24 812.53 153.3 799.62 220.51 835.93C275.32 866.56 301.24 929.24 306.24 989.32C310.31 1051.32 308.89 1116.16 283.89 1174.08C266.06 1216.69 231.93 1253.92 187.74 1269.36C127.94 1291.47 63.2 1281.03 0.99 1283.75C1.11 1125.85 0.99 968.02 0.99 810.12ZM1468.66 827.84C1501.8 815.8 1537.72 813.95 1572.59 816.3C1573.76 975.92 1572.96 1135.61 1573.02 1295.29C1519.82 1300.17 1463.66 1292.27 1419.17 1260.9C1365.35 1226.26 1340.48 1161.48 1333.63 1100.22C1327.95 1035.33 1335.35 965.79 1371.64 910.1C1393.74 873.05 1427.25 841.61 1468.66 827.84ZM979.93 1126.41C1014.62 1027.36 1049.73 928.44 1086.7 830.25C1120.77 928.37 1154.46 1026.68 1186.19 1125.6C1117.43 1126.59 1048.68 1125.36 979.93 1126.41ZM1374.85 1286.22C1399.48 1304.19 1425.34 1321.79 1455.21 1329.69C1493.35 1342.22 1533.83 1339.69 1573.39 1341.17C1573.02 1352.91 1572.65 1364.64 1572.47 1376.43C1510.81 1379.21 1447.92 1372.3 1392.2 1344.32C1386.39 1324.93 1379.91 1305.79 1374.85 1286.22Z" />
	</g>
</svg>