<svg version="1.2" xmlns="http://www.w3.org/2000/svg" viewBox="0 0 1547 1549" width="1547" height="1549">
	<title>dw_logo-svg-svg</title>
	<style>
		.s0 { fill: #1006a0 } 
	</style>
	<g id="Ebene_2">
		<g id="Ebene_1-2">
			<path id="Layer" class="s0" d="m220.9 1548h-220.9v-1548h1546.4v195.7q-28.8-12.7-58.2-23.7-29.7-10.8-60-19.5-30.2-9.1-60.8-15.9-30.8-6.8-61.9-11.3-24.6-4-49-6.5-24.6-2.8-49.2-4.8-24.6-1.7-49.2-2.6-24.6-0.8-49.2-0.8c-354.3 0-693.2 133.5-822.1 190.9l-65.9 29.1v443.6h221.1v-298.5c143.4-57.7 402.5-143.9 666.9-143.9q20.4 0 40.7 0.5 20.4 0.9 40.8 2.3 20.3 1.4 40.7 3.7 20.4 2.2 40.4 5.4 36.8 5.3 72.4 14.7 36 9 70.7 22 34.8 13 67.6 29.7 33.1 16.7 64.2 36.8v316.8q-4.5-8.5-9.6-16.7-4.8-8.2-10.4-16.1-5.4-7.9-11.4-15.9-5.6-7.6-12.1-15c-63.1-74.1-152.5-120.4-265.3-137.7q-16.1-2.5-32.2-4.2-16.2-1.7-32.6-3.2-16.1-1.1-32.2-1.7-16.4-0.5-32.5-0.2c-110 0-232.5 17.8-363.7 52.9l-81.8 22v624l81.8 22c131.2 35.1 253.7 52.9 363.7 52.9q16.1 0 32.5-0.5 16.1-0.6 32.2-1.7 16.2-1.2 32.3-2.9 16.1-1.9 32.2-4.2c112.9-17.3 202.2-63.9 265.6-138q6.2-7.4 12.1-15 5.7-7.7 11.4-15.6 5.3-7.9 10.4-16.1 5.1-8.5 9.6-17v316.8q-31.1 20.4-64.2 37.1-33.1 16.4-67.8 29.7-34.5 13-70.5 22-35.9 9.4-72.6 14.5-20.1 3.1-40.5 5.3-20.1 2.3-40.4 4-20.4 1.4-40.8 2.3-20.3 0.5-40.7 0.5h-0.5c-264.2 0-523-86.2-666.6-144.2v-298.2h-220.9zm1114.3-704.2c11 13.3 19.8 28.5 25.7 44.9 5.9 16.4 9.1 33.7 9.1 50.9 0 17.6-3.2 34.8-9.1 51.2-5.9 16.4-14.7 31.7-25.7 45-28 32.8-72.1 54-131.3 63.1q-11.8 1.7-23.7 3.1-11.9 1.1-23.8 2-12.1 0.8-24 1.4-11.9 0.3-24 0.3-28.3-0.3-56.6-2-28.3-2-56.3-5.1-28.3-3.1-56.3-7.9-27.7-4.5-55.4-10.8v-280q27.7-6.2 55.4-11 28-4.5 56.3-7.9 28-3.1 56.3-4.8 28.3-1.7 56.6-2.3 11.8 0 24 0.6 11.9 0.2 24 1.1 11.9 0.8 23.8 2.3 11.9 1.1 23.7 2.8c59.2 9.3 103.3 30.2 131.3 63.1z"/>
		</g>
	</g>
</svg>