<svg version="1.2" xmlns="http://www.w3.org/2000/svg" viewBox="0 0 1559 548" width="1559" height="548">
	<title>dw_logo-svg</title>
	<style>
		.s0 { fill: #1006a0 } 
		.s1 { fill: #000000 } 
	</style>
	<g id="Ebene_2">
		<g id="Ebene_1-2">
			<path id="Layer" class="s0" d="m78.1 547.3h-78.1v-547.3h546.8v69.2q-10.2-4.5-20.6-8.4-10.5-3.8-21.2-6.9-10.7-3.2-21.5-5.6-10.9-2.4-21.9-4-8.7-1.4-17.3-2.3-8.7-1-17.4-1.7-8.7-0.6-17.4-0.9-8.7-0.3-17.4-0.3c-125.3 0-245.1 47.2-290.7 67.5l-23.3 10.3v156.8h78.2v-105.5c50.7-20.4 142.3-50.9 235.8-50.9q7.2 0 14.4 0.2 7.2 0.3 14.4 0.8 7.2 0.5 14.4 1.3 7.2 0.8 14.3 1.9 13 1.9 25.6 5.2 12.7 3.2 25 7.8 12.3 4.6 23.9 10.5 11.7 5.9 22.7 13v112q-1.6-3-3.4-5.9-1.7-2.9-3.7-5.7-1.9-2.8-4-5.6-2-2.7-4.3-5.3c-22.3-26.2-53.9-42.6-93.8-48.7q-5.7-0.9-11.4-1.5-5.7-0.6-11.5-1.1-5.7-0.4-11.4-0.6-5.8-0.2-11.5-0.1c-38.9 0-82.2 6.3-128.6 18.7l-28.9 7.8v220.6l28.9 7.8c46.4 12.4 89.7 18.7 128.6 18.7q5.7 0 11.5-0.2 5.7-0.2 11.4-0.6 5.7-0.4 11.4-1 5.7-0.7 11.4-1.5c39.9-6.1 71.5-22.6 93.9-48.8q2.2-2.6 4.3-5.3 2-2.7 4-5.5 1.9-2.8 3.7-5.7 1.8-3 3.4-6v112q-11 7.2-22.7 13.1-11.7 5.8-24 10.5-12.2 4.6-24.9 7.8-12.7 3.3-25.7 5.1-7.1 1.1-14.3 1.9-7.1 0.8-14.3 1.4-7.2 0.5-14.4 0.8-7.2 0.2-14.4 0.2h-0.2c-93.4 0-184.9-30.5-235.7-51v-105.4h-78.1z"/>
			<path id="Layer" class="s0" d="m472.1 298.3c3.9 4.7 7 10.1 9.1 15.9 2.1 5.8 3.2 11.9 3.2 18 0 6.2-1.1 12.3-3.2 18.1-2.1 5.8-5.2 11.2-9.1 15.9-9.9 11.6-25.5 19.1-46.4 22.3q-4.2 0.6-8.4 1.1-4.2 0.4-8.4 0.7-4.3 0.3-8.5 0.5-4.2 0.1-8.5 0.1-10-0.1-20-0.7-10-0.7-19.9-1.8-10-1.1-19.9-2.8-9.8-1.6-19.6-3.8v-99q9.8-2.2 19.6-3.9 9.9-1.6 19.9-2.8 9.9-1.1 19.9-1.7 10-0.6 20-0.8 4.2 0 8.5 0.2 4.2 0.1 8.5 0.4 4.2 0.3 8.4 0.8 4.2 0.4 8.4 1c20.9 3.3 36.5 10.7 46.4 22.3z"/>
			<path id="Layer" fill-rule="evenodd" class="s1" d="m786.3 194.4c0 33.9-24.9 55.5-58.5 55.5h-44.3v-111h44.3c33.6 0 58.5 21.4 58.5 55.5zm-27.6 0c0-18.9-12.3-30.8-30.7-30.8h-17.9v61.8h17.7c18.6-0.1 30.9-12.2 30.9-31zm130.1 30.9v24.6h-84.7v-111h83.5v24.6h-57.1v18h54.5v24.5h-54.5v19.3zm17.3-26v-60.4h26.6v60.6c0 19.5 5.7 26.9 21.1 26.9 15.3 0 21.3-7.3 21.3-26.9v-60.6h26.4v60.4c0 30.3-10 52.6-47.8 52.6-37.2 0-47.6-21.7-47.6-52.6zm203.7-35.8h-33.8v86.4h-26.3v-86.4h-34v-24.6h94.1zm7.9 73.4l12.4-21.6c9.2 7.2 25.8 12.6 37.7 12.6 9.7 0 15.8-3.5 15.8-10.2 0-6.6-6-7.6-17.9-10.3-33-7.7-44.6-13-44.6-33 0-30.1 26.3-37.6 47.6-37.6q5.5 0 10.9 0.7 5.4 0.7 10.7 2.2 5.3 1.5 10.3 3.7 5 2.1 9.6 5l-12.5 21.9q-3.5-2.2-7.2-3.9-3.8-1.7-7.7-2.8-3.9-1.2-8-1.8-4-0.6-8.1-0.7c-11.4 0-16.7 4.1-16.7 10.1 0 5.3 4.9 7.3 19.5 10.2 16.5 3.3 43.4 8.8 43.4 34.5 0 22.7-19.1 36-46.1 36-21.2 0.1-41.3-9.1-49.1-15zm109.3-42.5c0-33.9 24.7-57.5 58.1-57.5 21.2 0 38.5 9.3 48.4 23l-23 14.6q-2.2-2.9-5-5.3-2.9-2.2-6.2-3.8-3.3-1.6-6.9-2.3-3.5-0.8-7.2-0.7c-18 0-30.8 13-30.8 32 0 19.1 12.5 32.1 30.8 32.1 11.2 0 21.2-5.1 26.6-14.9l22.2 15.6c-10 15.5-27.7 24.8-49 24.8-33.4 0-58-23.6-58-57.6zm223.2-55.4v110.9h-26.4v-44h-46.1v44h-26.4v-110.9h26.4v42.6h46.1v-42.6zm108.1 86.3v24.6h-84.7v-110.9h83.5v24.5h-57.1v18.1h54.5v24.4h-54.5v19.4zm-704.6 72.1l-32.8 111h-30.8l-21.4-72.6-21.2 72.6h-30.8l-33-111h27.8l20.8 79.8 22.1-79.8h28.2l22.4 79.8 20.9-79.8zm3.9 55.5c0-33.9 24.7-57.5 58.3-57.5 33.6 0 58.5 23.4 58.5 57.5 0 34.1-24.9 57.6-58.5 57.6-33.6 0-58.3-23.7-58.3-57.6zm89.2 0c0-18.9-12.5-32-30.8-32-18.3 0-30.8 13.2-30.8 32 0 18.8 12.5 32 30.8 32 18.3 0 30.8-13.1 30.8-32zm144.4-55.5v111h-26.4v-44h-46.2v44h-26.3v-111h26.3v42.7h46.2v-42.7zm121.1 0v111h-23.7l-48-64.5v64.5h-26.1v-111h23.6l48 64.7v-64.7zm107.9 86.4v24.6h-84.8v-111h83.6v24.6h-57.1v18.1h54.5v24.4h-54.5v19.3zm115.8-86.4v111h-23.5l-48-64.5v64.5h-26.1v-111h23.6l48 64.7v-64.7z"/>
		</g>
	</g>
</svg>