<svg version="1.2" xmlns="http://www.w3.org/2000/svg" viewBox="0 0 1560 1131" width="1560" height="1131">
	<title>ESGG-Platinum-svg</title>
	<style>
		.s0 { fill: #ffffff } 
	</style>
	<g id="Layer">
		<path id="Layer" fill-rule="evenodd" class="s0" d="m863.4 83.1c-27.5-2.9-69.9-5.5-99.3-0.8 8.2 109.9-0.5 199.4-44.5 283.7 10.8 48.3 25.8 77.4 49.4 102.1 32.1 33.5-6.6 38.7-35.5 4.3-11.7-14-25.1-28.1-34.3-62.3-8.1 23-18.3 36.6-37.2 43.8-12.6 56.4-93 65.2-126.7 19.4-34.7 4.3-64.1-9.6-78.8-32.7-34 76.8-125 77.3-149.1-1.6-36 47.9-105.1 66-167.7 29.9-35.8-20.7-60.8-54.3-71.3-124.1-9.1-60.7 23.8-132.2 62.6-160.4-11.9-37.3-7-80 13.4-108.3 20.4-28.4 61.8-45.2 104.7-36.3 24.2 5 47.7 21.9 61.2 50.8 13 28-8.8 42.5-23.4 19.1-47.1-75.6-150.9-28.3-125.3 63 48.3-6.7 83.2 6.2 98.9 36.3 25.6 48.9-26.8 81.6-68.9 54.8-23-14.8-37.3-34.8-46.7-48.8-49.2 46.3-59.9 117.2-30.2 178 34.1 70.1 116.9 87.6 170.3 18.4 39-50.5 36.7-137.8 133.6-134.7 9.1-51.5 67.9-55.5 76.9-4.6 8 45.1 3.4 86-20.9 146.1 9.5 20.6 24 28.8 46 27.7-5.2-10.6-6.8-18.8-8-26.4-2.4-16.6 10-23.9 18.9-5.5 3.7 7.6 7 15.8 12.7 22.5 21-20.1 43.4-52.1 45.3-80.2-29-23.7-51.1-64-55.9-98.9-6.8-49 46.8-63.7 76.3-23.6 16.8 22.8 25.7 61.3 12.1 117.6 21.4 16.9 32.5 34.7 38.4 58.7 10.7-7.6 18.2-21.5 21-42.3-25.9-62.8-41.8-175.1-38-245.9-29 16.1-49.8 34.4-66 49.9-19.4 18.5-23.2-2.4-14.1-13.9 18.5-23.5 50.6-47.5 80-63.7 1.6-109.4 100-125.5 116.4-37.3 36.4-7.4 72-8.6 102.4-4.2 30.8 4.5 27.2 33.2 1.3 30.4zm-690.6 115c11.7 23.6 27.5 39.9 42.7 44.9 23.4 7.7 35.1-9.2 17.3-25.7-9.6-9-27.9-19.5-60-19.2zm266.1 217.6c-14.7-28.1-27.7-70.9-24.6-107.9-39.9-3.2-64.7 21.6-78.2 73.8-22.8 88.1 62.4 124.2 102.8 34.1zm29.5-127.4c-5.5-30.5-22.4-28.7-27.3-1.1 20 15.2 13.1 32.9-2 28.2 0.4 11.8 5.5 50.3 17.2 74.6 15.4-36.2 16.7-75.9 12.1-101.7zm131.3 39.9c5.9-30-3.5-62.5-12.1-76-13.2-21-30.5-18.1-26.7 12.2 2.2 17 17.1 45.1 38.8 63.8zm12.3 55c-8.6 34.4-27.9 58-51.6 77.8 37.8 43.2 116.9-12.1 51.6-77.8zm64.5-303.1c14.4-7.1 35.9-13 54.7-17.2-9.6-50.5-50.5-43-54.7 17.2zm56.9 8.7c-21.1 2.8-39.2 7.3-55.9 17.1-4.3 50.2 5.5 146.1 22.6 216 26.9-66.6 41.9-166.5 33.3-233.1z"/>
		<path id="Layer" class="s0" d="m965.3 201.2c-31.7-99.3-97.9-88.9-91.1-33 5.4 44.8 48.4 70.4 83.8 109.8 51.2 56.9 55.5 169.1-36.5 206.8-108.9 44.5-247-76.8-129.3-200 26.6-27.8 62.1-30.2 21 15.7-76.7 85.3-0.5 188 97.9 154.6 41.7-14.2 59-61.7 42.3-119.8-16.6-58.2-67.4-67.4-99.4-129.8-42.4-82.7 25.9-130.4 74.6-106.8 30.4 14.7 53.2 45.1 65.1 90.3 9.2 34.7-18.1 44.7-28.4 12.2z"/>
		<path id="Layer" fill-rule="evenodd" class="s0" d="m1489.1 403.6c-43.3 81.6-113.7 115-165.8 67.7-33.4 35.5-96.3 44.2-108.7 0.3-34.4 50.6-132 42.7-122.4-32.5-23.6 73.1-80.8 56.7-76.9 14.1-13.2 19.7-29.3 34.3-46.5 41.1-18.6 7.5-32.5-2.1-15.4-13.7 74.6-50.6 73.9-119 94.1-155.2 12.2-21.7 29.7-21.8 28.8 4-1.2 31.6-11.4 60.5-34 97.1-13.4 40.4 8.7 47.8 29.2 0.7 26.3-60.3 58.7-115.6 144-107.8 3.5-71.4 13.7-108.9 29.7-135.8 35-59.2 85-57.5 84.4 19.2-0.5 59-45.2 175.4-89.4 238.4-0.1 42.3 31.5 42.3 65.1 3.1-15.3-37.4-9.2-91.5 11.6-122.3 38-56.6 100-45.8 99.9 10.7-0.1 37.8-18.3 78.4-70.9 116.1 8.7 13.3 30.1 19.9 55.8 9.6 22.9-9.2 44.1-34.2 67.1-69.4 16.7-25.5 34.1-11.4 20.3 14.6zm-249.7-79.5c12.6 7.1 8.6 22.2-1 22.7-1.3 19.4-2.2 36-1.7 53.6 36.5-60.2 63.8-133.9 67.2-194.8 1.8-33.1-19.7-37.4-37.2-5.4-12.5 22.7-22.6 72.4-27.3 123.9zm-26.1 22.6c-55.5-0.4-82.4 25.2-92 65.5-10.5 43.9 4.4 62.9 29.2 64 22.1 1.1 43.4-9.6 61.3-40.4-2.7-27.3-0.2-67.5 1.5-89.1zm116.2 78.7c39.8-33.5 61.1-65 60.4-88.5-0.8-26-22.5-30.5-41.4-11.8-17 17-28.1 58.2-19 100.3z"/>
		<path id="Layer" class="s0" d="m1118.8 249.1c-8.3 4.6-16.4 10.1-27.2 16.8 9.3 10.3 19.1 23.1 23.3 31.6 9.5 19.1 5.5 23.4-10.9 7.8-7-6.8-20.6-18.1-31.1-27.3-15.7 9-28.8 18-39.2 26.1-12.6 9.8-19.1 8.2-7.3-9.5 7.5-11.1 15.6-20 29.3-29.6-7-5.7-11.8-9.7-18.4-14.3-30.9-21.7-7.4-38.5 16.7-18.6 7.4 6 14.9 13 22.2 20.3 12.2-8.7 23.2-15.7 29.5-18 19.6-7.4 31.2 4.6 13.1 14.7z"/>
		<path id="Layer" fill-rule="evenodd" class="s0" d="m375.9 532.2h11.6v218.5c0 38.8-25.8 63.8-65.7 63.8h-206.9v-0.1h-9c0-5.3 0-32.1-0.1-65.6 0-55.6-0.1-129.6-0.1-153.9 0-38.6 25.2-62.7 65.7-62.7l204.5 0.1zm-6.6 218.5v-200.2h-197.9c-30.6 0-47.4 15.8-47.4 44.4 0 19.5 0 70.9 0.1 119.2h146.2c5 0 9.1 4 9.1 9.1 0 5.1-4.1 9.1-9.1 9.1h-146.2c0 5.6 0 11.2 0 16.5 0 18.8 0.1 35.5 0.1 47.4h197.6c30.2 0 47.5-16.5 47.5-45.5z"/>
		<path id="Layer" fill-rule="evenodd" class="s0" d="m657.4 802.7v11.7h-218.4c-38.8 0-63.8-25.8-63.8-65.8v-206.9h0.1v-9c5.3 0 32.2 0 65.7-0.1 55.6-0.1 129.6-0.2 153.8-0.2 38.7 0 62.7 25.2 62.7 65.7-0.1 0-0.1 204.6-0.1 204.6zm-218.4-6.6h200.1v-198c0-30.6-15.7-47.4-44.3-47.4-24.3 0-98.2 0.1-153.8 0.1-18.8 0-35.5 0.1-47.5 0.1v53.5h146.5c5.1 0 9.2 4.1 9.2 9.1 0 5-4.1 9.1-9.2 9.1h-146.5v126c0 30.2 16.6 47.5 45.5 47.5z"/>
		<path id="Layer" fill-rule="evenodd" class="s0" d="m1196.2 804.2h-0.1v11.8h-218.4c-38.7 0-63.8-25.9-63.8-65.8v-207h0.1v-9c5.3 0 32.2 0 65.7-0.1 55.6 0 129.6-0.1 153.9-0.1 38.6 0 62.6 25.1 62.6 65.6zm-218.4-6.6h200.2v-63.7h-144.9c-5 0-9.1-4-9.1-9.1 0-5 4-9.1 9.1-9.1h144.9v-116.1c0-30.6-15.8-47.4-44.4-47.4-24.2 0-98.2 0.1-153.8 0.2-18.8 0-35.5 0.1-47.5 0.1v197.6c0 30.2 16.6 47.5 45.5 47.5z"/>
		<path id="Layer" fill-rule="evenodd" class="s0" d="m1486.8 751.3c28.4 74.1-66.6 125-123.2 77.4-25.1 39.2-75.9 31.8-95.8 5.9-0.8 29.8-35.9 34.8-53.5 14.6v17.8c0 5.4-4.4 9.7-9.7 9.7-5.4 0-9.8-4.3-9.8-9.7v-17.3c-4.4 2.7-9.7 4.8-15.6 6.5v56.9c0 5.4-4.5 9.8-9.8 9.8-5.4 0-9.8-4.4-9.8-9.8v-53.5c-33.3 2.8-73.4-6.5-84.4-25.9-9.1 21.7-39.1 20.8-58.3 0.9-14.1 47.5-121.6 31.7-129 0.8-12.6 26.7-38.7 17.7-80.2 4.5-49.6-15.6-103.2-19.8-153.4-9.4v68.1c0 5.4-4.4 9.7-9.8 9.7-5.4 0-9.7-4.4-9.7-9.7v-63.4q-19.6 5.6-38.1 14.5c-58.6 28.2-105.4 24.9-124.5-18.4-11.7 22.5-59.7 32.4-73-5.2-7.7-22-48.6-8.9-71.1 6.9-25.4 17.7-90 50-119.1 1.6-8.4 27.5-32.1 24.2-43.1 7.4v41.7c0 5.4-4.4 9.7-9.8 9.7-5.4 0-9.7-4.3-9.7-9.7v-31.4c-5.5 2.6-11.5 4-17.7 4v73.3c0 5.5-4.3 9.8-9.7 9.8-5.4 0-9.8-4.4-9.8-9.8v-77.1c-22.7-9.2-41.7-34.6-36.9-72.9-27.3-1.6 11.8-39.1 6.7-59.2-19.2 8.4-41.4-32.9-2.2-57.2-32.3-40.9-47.3-119.9 6.6-140.9-2.4-6.4-2.1-14.3 1.5-21.7 6.3-12.9 19.8-19.2 30.2-14.2 10.1 4.9 13.5 18.3 8.4 30.7 140.6 0 1268.9 0 1333 0 58.9 0 65.2 87.5 38.2 137.6-27.7 51.6 25.9 81.1-7.9 96.6zm-1105.2 1.9c0-33.4-1.9-211.8-1.9-211.8-11.8 0-191.5 0.3-205.8 0-29.7-0.5-61.9 14.4-61.5 54.5 0.3 27.5 1.7 174.5 1.7 208.5 28 0 192.8 0.5 215.9 0.5 23.1 0 51.6-18.3 51.6-51.7zm267-153.9c0.5-29.6-14.4-61.9-54.5-61.5-27.5 0.3-174.4 1.8-208.4 1.8 0 27.9-0.4 192.7-0.4 215.8 0 23.2 18.3 51.7 51.7 51.7 33.4 0 211.7-1.9 211.7-1.9 0-11.8-0.3-191.5-0.1-205.9zm270-11.2c0-37.7-34.4-50.6-51.4-50.6-18.8 0-137.4 0-164 0-26.6 0-50.1 23.2-50.1 50.2 0 21.8 0 199.8 0 218.1l264.6 2.6c0 0 0.9-182.5 0.9-220.3zm268.2 11.6c0.5-29.6-14.4-61.9-54.5-61.4-27.5 0.3-174.4 1.7-208.4 1.7 0 28-0.4 192.8-0.4 215.9 0 23.2 18.3 51.7 51.6 51.7 33.4 0 211.7-1.9 211.7-1.9 0-11.9-0.1-191.5 0-206zm271.4 154.1c0-33.4-2-211.8-2-211.8-11.8 0-191.4 0.3-205.8 0-29.6-0.4-61.9 14.4-61.5 54.5 0.3 27.5 1.8 174.4 1.8 208.5 27.9 0 192.7 0.4 215.8 0.4 23.1 0 51.7-18.3 51.7-51.6z"/>
		<path id="Layer" fill-rule="evenodd" class="s0" d="m927.1 806v9.1h-282.7v-72.5c0.1-53.5 0.1-124.7 0.1-148.9 0-38.5 25.2-62.5 65.6-62.5h151.1c40.5 0 65.7 24 65.7 62.5 0 24.2 0 95.4 0.1 148.9 0 32.3 0 58.2 0.1 63.4zm-18.4-9.1c0-11.3 0-31.1 0-54.2-0.1-53.5-0.1-124.8-0.1-148.9 0-28.5-16.9-44.2-47.4-44.2h-151.1c-30.5 0-47.4 15.7-47.4 44.2 0 24.1 0 95.3 0 148.9v54.2h69.7v-79.7c0-5 4-9.1 9.1-9.1 5.1 0 9.1 4 9.1 9.1v79.7h67.1v-79.7c0-5 4-9.1 9.1-9.1 5.1 0 9.1 4 9.1 9.1v79.7z"/>
		<path id="Layer" fill-rule="evenodd" class="s0" d="m1463.7 532.3v218.4c0 38.8-25.9 63.8-65.8 63.8h-206.9v-0.1h-9c0-5.3-0.1-32.1-0.2-65.6 0-7.6 0-15.4 0-23.4 0-0.2 0-0.4 0-0.7 0-0.2 0-0.4 0-0.6 0-51-0.1-108.4-0.1-129.2 0-38.6 25.2-62.7 65.7-62.7l204.5 0.1zm-106.7 90.3c0-5 4-9.1 9.1-9.1h79.2v-63h-197.9c-30.6 0-47.4 15.8-47.4 44.5 0 19.7 0 71.9 0.1 120.7h79.2c5 0 9.1 4 9.1 9.1 0 5-4.1 9.1-9.1 9.1h-79.2c0 5.1 0 10.1 0 14.9 0 18.8 0.1 35.5 0.1 47.5h197.6c30.3 0 47.5-16.6 47.5-45.5v-119h-79.2c-5.1 0-9.1-4-9.1-9.2z"/>
		<path id="Layer" class="s0" d=""/>
		<path id="Layer" class="s0" d="m1194 904.6c-5.1 0-9.2-5.6-9.2-12.6 0-6.9 4.1-12.6 9.2-12.6 5.1 0 9.2 5.7 9.2 12.6 0 7-4.1 12.6-9.2 12.6z"/>
		<path id="Layer" class="s0" d="m381.9 856.3c-8.1 0-14.6-7.6-14.6-17.1 0-9.4 6.5-17.1 14.6-17.1 8.2 0 14.7 7.7 14.7 17.1 0 9.5-6.5 17.1-14.7 17.1z"/>
		<path id="Layer" class="s0" d="m351.7 846.6c-4.6 0-8.3-4.4-8.3-9.8 0-5.4 3.7-9.8 8.3-9.8 4.5 0 8.2 4.4 8.2 9.8 0 5.4-3.7 9.8-8.2 9.8z"/>
		<path id="Layer" class="s0" d="m19.8 559.1c-4.6 0-8.3-5.1-8.3-11.3 0-6.2 3.7-11.2 8.3-11.2 4.6 0 8.3 5 8.3 11.2 0 6.2-3.7 11.3-8.3 11.3z"/>
		<path id="Layer" class="s0" d="m44.7 589.4c-5.9 0-10.7-6.1-10.7-13.7 0-7.6 4.8-13.7 10.7-13.7 6 0 10.8 6.1 10.8 13.7 0 7.6-4.8 13.7-10.8 13.7z"/>
		<path id="Layer" class="s0" d="m38.2 329c9.9 3.5 14.1 17.1 9.3 30.3-4.7 13.2-16.6 21.1-26.5 17.5-9.9-3.5-14.1-17.1-9.3-30.4 4.7-13.2 16.6-21 26.5-17.4z"/>
		<path id="Layer" class="s0" d="m13.5 421.3c-7 0-12.7-6.3-12.7-14.2 0-7.8 5.7-14.2 12.7-14.2 7 0 12.7 6.4 12.7 14.2 0 7.9-5.7 14.2-12.7 14.2z"/>
		<path id="Layer" class="s0" d="m62.4 393.5c7.6 2.1 11.8 11.2 9.3 20.7-2.5 9.3-10.6 15.4-18.2 13.4-7.6-2-11.7-11.2-9.2-20.6 2.4-9.5 10.5-15.5 18.1-13.5z"/>
		<path id="Layer" class="s0" d="m1515.7 380.2c-9.2 0-16.6-9.6-16.6-21.5 0-11.9 7.4-21.5 16.6-21.5 9.2 0 16.6 9.6 16.6 21.5 0 11.9-7.4 21.5-16.6 21.5z"/>
		<path id="Layer" class="s0" d="m1553.6 315.1c5.6 2.6 7.4 10.7 4 18-3.4 7.4-10.7 11.2-16.3 8.6-5.6-2.5-7.5-10.7-4.1-18 3.4-7.3 10.8-11.2 16.4-8.6z"/>
		<path id="Layer" class="s0" d="m1461 508.3c-7 0-12.7-4.3-12.7-9.8 0-5.4 5.7-9.7 12.7-9.7 7 0 12.7 4.3 12.7 9.7 0 5.5-5.7 9.8-12.7 9.8z"/>
		<path id="Layer" class="s0" d="m539.3 182.4c5-4.7 11.8-5.5 15.4-1.8 3.5 3.7 2.2 10.5-2.7 15.2-5 4.7-11.8 5.5-15.3 1.8-3.6-3.7-2.4-10.5 2.6-15.2z"/>
		<path id="Layer" class="s0" d="m518.6 202c3.4-4.2 9.2-5.1 12.9-2 3.7 3 3.9 8.9 0.4 13-3.4 4.2-9.1 5.1-12.8 2.1-3.7-3.1-3.9-8.9-0.5-13.1z"/>
	</g>
	<g id="Layer">
		<path id="Layer" class="s0" d="m332.9 1048.1h72.3c0 27.7-5.7 47.5-22.5 63-14.7 13.6-31.5 17.6-49.3 17.6-25.3 0-42.5-9.2-53.8-20.8-10.5-10.5-20.2-27.5-20.2-50.6 0-22.3 8.8-40.6 21-52.5 11.6-11.6 29.6-20.6 54.4-20.6 13.1 0 27.2 2.9 37.8 9.5 11 6.7 20 17.9 25 28.8l-34.7 14.3c-2.5-6.5-6.5-11.2-10.1-14.1-6-5.1-12.5-6.9-19.5-6.9-8.7 0-17.5 3.2-24 9.7-8.1 8.2-12.1 21.2-12.1 32.1 0 12.8 4.6 23.3 11.1 30.3 6.8 7.1 14.9 10.7 25.6 10.7 6.4 0 13.7-1.1 20.2-6.5 3.3-2.7 7.3-7.7 8.6-15.5h-29.8z"/>
		<path id="Layer" fill-rule="evenodd" class="s0" d="m548 987.3c10.5 0 23.9 1.7 34.3 12.5 7.9 8.2 11.9 20.3 11.9 31.5 0 12-4.2 22.5-11.1 29.2-5.5 5.3-12.8 8.4-19.3 9.7l43.9 57.3h-45.2l-34.9-53.7v53.7h-36.3v-140.2zm-20.4 62.8h7c5.5 0 13.2-1.5 17.6-5.6 2.8-2.8 4.7-7.4 4.7-11.8 0-4.2-1.7-8.8-4.9-11.7-3.3-3.4-9.4-5.5-17.4-5.5h-6.9c0 0 0 34.6-0.1 34.6z"/>
		<path id="Layer" fill-rule="evenodd" class="s0" d="m812.3 1109.9c-14.3 13.6-34.4 20.8-55.2 20.8-20.8 0-41-7.2-55.3-20.8-14.9-14.3-22.1-33.8-22.1-52.4 0-18.7 7.2-38.4 22.1-52.5 14.3-13.7 34.5-20.8 55.3-20.8 20.8 0 40.9 7.1 55.2 20.8 14.9 14.1 22.1 33.8 22.1 52.5 0 18.5-7.2 38.1-22.1 52.4zm-83.6-79.3c-7.6 7.4-11.2 17.7-11.2 27.6 0 12.4 5.9 21 11.2 26 6.7 6.5 16.1 11.2 28.4 11.2 12.4 0 21.6-4.4 28.1-10.9 6.5-6.5 11.3-16.2 11.3-26.9 0-10.9-4.8-20.6-11.3-26.9-7.8-7.3-18.5-11.2-28.1-11.2-10.1 0-20.8 3.6-28.4 11.1z"/>
		<path id="Layer" class="s0" d="m956.9 987.3v83.1c0 5.9 0.2 14.9 7.2 21.6 4.2 4 10.9 6.7 17.2 6.7 6.3 0 12.8-2.5 16.8-6 8.4-7.4 8.2-17.7 8.2-25.4v-79.9h36.4v80.5c0 14.7-0.7 30.1-15.7 45.4-11.8 12-26.5 17.4-46.3 17.4-22 0-37.7-7.6-46.4-16.8-12.2-13.3-13.6-31.1-13.6-46v-80.6z"/>
		<path id="Layer" fill-rule="evenodd" class="s0" d="m1171.4 1081.1v46.4h-36.4v-140.2h58c12.2 0 24.9 2.4 35.6 12.7 10.9 10.5 13 22.3 13 34 0 11.2-1.5 24.2-12.4 34.9-10.9 10.8-23.9 12.2-34.8 12.2zm12.1-29.5c3.8 0 10.9-0.4 15.3-4.4 4.5-3.7 4.7-9.5 4.7-12.8 0-3.8-0.4-8.8-4.2-12.6-4.3-4.4-10.9-5.1-15.6-5.1h-12.4v34.9z"/>
	</g>
</svg>