<svg version="1.2" xmlns="http://www.w3.org/2000/svg" viewBox="0 0 1580 322" width="1580" height="322">
	<title>eargo_orange_logo-svg</title>
	<defs>
		<clipPath clipPathUnits="userSpaceOnUse" id="cp1">
			<path d="m0 0h1580v321.78h-1580z"/>
		</clipPath>
	</defs>
	<style>
		.s0 { fill: #ff5e2b } 
	</style>
	<g id="Clip-Path" clip-path="url(#cp1)">
		<g id="Layer">
			<path id="Layer" fill-rule="evenodd" class="s0" d="m1580 160.9c-0.1 0.1-31.4 34.2-44.9 47.8q-20.2 20.2-40.3 40.5c-12.9 12.9-26 25.8-40.4 37-13.8 10.9-29.3 19.5-45.8 25.7-16.6 5.8-34 9.1-51.6 9.8-18 0.8-36.1-1.2-53.6-5.9-16.9-4.6-32.9-11.9-47.5-21.6-13.9-9.4-26.4-20.8-37.1-33.8-10.8-13.1-19.3-28-25.2-43.9-2.8-7.5-4.9-15.2-6.5-23-13.7 77.5-76.9 128.3-162 128.3-94.6 0-168.5-70.8-168.5-160.9q0-4.2 0.2-8.3c-10.8 28.4-33.3 49.6-64.1 60.2l87.2 102h-113.9l-79.9-94.6h-6.4v94.6h-189.2l-14.7-41.8h-118.1l-14.7 41.8h-343v-307.9h245.7v78.6h-150.6v40h138.2v70.8h-138.2v39.9h152.9v62.4l115.3-291.7h106.9l114.4 289.5v-289.5h168.1c66.6 0 111.2 42.3 111.2 105.3q0 0.4 0 0.7c20.7-66 83.8-112.9 161.2-112.9 74 0 132.7 34.5 153.4 91.9l-98.3 23.5c-11.5-23-30.7-30.3-55.1-30.3-43.2 0-73 32.6-73 75.8 0 43.2 30.3 75.8 73.5 75.8 28.9 0 49.1-11 61-30.3h-70.7v-76.3h170.9c1.6-8.4 3.8-16.7 6.7-24.7 5.9-16 14.5-30.8 25.3-43.9 10.6-13 23.1-24.4 37.1-33.8 14.5-9.8 30.6-17.1 47.5-21.6 17.5-4.7 35.5-6.7 53.6-5.9 17.6 0.6 35 3.9 51.6 9.8 16.5 6.1 32 14.7 45.8 25.6 14.5 11.2 27.6 24 40.4 37q20.2 20.3 40.3 40.5c13.5 13.6 44.9 47.7 44.9 47.8zm-1132.2 33.5l-30.8-87.7-31.3 87.7zm322.9-79.9c0-18-14.7-30.4-38.5-30.4h-52.4v62.5h52.4c23.8 0 38.5-12.4 38.5-32.1zm687.1 46.4c0 0-32.8-34.1-40.1-41.3-12.2-12-25.4-24.3-41.7-30-9-3-18.4-4.5-27.9-4.5-0.7 0-1.6 0-2.3 0-36.2 1.8-65.1 35.1-65.1 75.8 0 40.7 28.9 74 65.1 75.8 0.7 0 1.5 0 2.3 0 9.5 0.1 18.9-1.4 27.9-4.5 16.3-5.6 29.5-17.9 41.7-29.9 7.3-7.3 40.1-41.4 40.1-41.4z"/>
		</g>
	</g>
</svg>