<svg version="1.2" xmlns="http://www.w3.org/2000/svg" viewBox="0 0 1557 782" width="1557" height="782">
	<title>EnBW (1)-svg</title>
	<style>
		.s0 { fill: #ffffff } 
		.s1 { fill: #fd951f } 
	</style>
	<g id="layer1">
		<g id="Ebene_x0020_1">
			<g id="_47774088">
				<path id="_94562272" fill-rule="evenodd" class="s0" d="m983.2 391.6c-40.1-41-64.9-97.2-64.9-159.2 0-125.5 101.6-227.3 227-227.4h408.7v136.5h-408.7c-50 0.1-90.6 40.7-90.6 90.9 0 50.1 40.6 90.8 90.6 90.9h271.5v136.4h-271.5c-50 0.1-90.6 40.8-90.6 90.9 0 50.2 40.6 90.8 90.6 90.8h408.7v136.6h-408.7c-125.4-0.1-227-101.9-227-227.4 0-62 24.8-118 64.9-159z"/>
				<path id="_93913832" fill-rule="evenodd" class="s1" d="m25.6 449.6c-10.8 0-19.5-26-19.5-58.1 0-32.2 8.7-58.1 19.5-58.1h680.8v116l-386.4 0.2z"/>
			</g>
		</g>
	</g>
</svg>