<svg version="1.2" xmlns="http://www.w3.org/2000/svg" viewBox="0 0 1586 229" width="1586" height="229">
	<title>EnBW-svg</title>
	<style>
		.s0 { fill: #ffffff } 
		.s1 { fill: #fd951f } 
	</style>
	<g id="layer1">
		<g id="Ebene_x0020_1">
			<g id="_47774088">
				<path id="_94562272" fill-rule="evenodd" class="s0" d="m699.1 114.7c-11.9-12.1-19.2-28.7-19.2-47.1 0-37 30-67.1 67.1-67.1h120.7v40.3h-120.7c-14.8 0-26.8 12-26.8 26.8 0 14.9 12 26.9 26.8 26.9h80.1v40.3h-80.1c-14.8 0-26.8 12.1-26.8 26.8 0 14.9 12 26.9 26.8 26.9h120.7v40.3h-120.7c-37.1 0-67.1-30.1-67.1-67.2 0-18.3 7.3-34.8 19.2-46.9zm309.4-7.1c14.7 0.1 26.6 12.1 26.7 26.8v94.4h40.3v-94.4c-0.1-37-30-67-67-67.1h-107.5v161.3h40.3v-121zm509.6 121.2c37 0 67-30 67.1-67.1v-161.2h-40.3v161.2c0 14.8-12 26.8-26.8 26.8-14.8 0-26.8-12-26.8-26.8v-94h-40.3v94c0 14.8-12 26.8-26.8 26.8-14.8 0-26.8-12-26.9-26.8v-161.2h-40.3v161.2c0.1 37.1 30.1 67.1 67.2 67.1 18.3 0 34.8-7.3 46.9-19.2 12.1 11.9 28.7 19.2 47 19.2zm-268.3-188c14.8 0 26.8 12.1 26.8 26.9 0 14.8-12 26.8-26.8 26.8h-53.7v40.3h53.7c14.8 0 26.8 12.1 26.8 26.9 0 14.8-12 26.8-26.8 26.8h-134.2v40.3h134.2c37.1 0 67.1-30.1 67.1-67.1 0-18.4-7.3-34.9-19.2-47 11.9-12.1 19.2-28.7 19.2-47 0-37.1-30-67.2-67.1-67.2h-134.2v147.7h40.3v-107.4z"/>
				<path id="_93913832" fill-rule="evenodd" class="s1" d="m17.5 131.8c-9.5 0-17.2-7.7-17.2-17.2 0-9.5 7.7-17.1 17.2-17.1h599.8v34.3h-340.4z"/>
			</g>
		</g>
	</g>
</svg>