<svg version="1.2" xmlns="http://www.w3.org/2000/svg" viewBox="0 0 1338 1601" width="1338" height="1601">
	<title>Eletrobras-svg</title>
	<defs>
		<linearGradient id="g1" x1="669.5" y1="1153.3" x2="669.5" y2="448.2" gradientUnits="userSpaceOnUse">
			<stop offset="0" stop-color="#ffffff"/>
			<stop offset="1" stop-color="#ffffff"/>
		</linearGradient>
	</defs>
	<style>
		.s0 { fill: url(#g1) } 
	</style>
	<path id="path4112" class="s0" d="m701.2 1099.9c-172.6-270-159.9-592.2-46.9-902.8 61.2-88.6 136.6-152.5 229.5-191.9 25.3-12.8 36.3 4.3 35 13.8-55.4 330 29.5 496.8 136 631 0.2 0.8 1 2.2 0.6 4.3l-6.6 22.1c-63.8 207.1-181.5 345.8-340.8 424.6-0.6 0-1 0.4-1.6 0.8-1.7 0.2-3.3 0-5.2-1.9zm422 408.8c-253.2 149.4-606.6 122-1020.1-116.9-53.6-61.6-74-101.6-101.4-183.4-3.3-20.2 2.7-36.5 21.2-31.8 250.2 66.2 478.7 56.7 666-23.7l4.5 6c95.4 133.6 236.1 252.5 429.8 349.8zm214.5-387.5c3.3 134.2-68.8 279.9-175.9 363.2h-0.5c-198.8-96.3-339.9-214.2-434.3-345.7-0.2-1.2 0-2.5 1.4-4.3 167.3-83.5 292-232.1 357.5-446.5 139.9 152.1 247.1 255.4 251.8 433.3z"/>
</svg>