<svg version="1.2" xmlns="http://www.w3.org/2000/svg" viewBox="0 0 1326 1589" width="1326" height="1589">
	<title>EME_Logo_RGB_Gray_Final-svg</title>
	<style>
		.s0 { fill: #ffffff } 
		.s1 { fill: #b14a32 } 
	</style>
	<g id="#241f20ff">
		<path id="Layer" class="s0" d="m1030.7 35.1c98.1-0.1 196.4-0.2 294.6 0 0 334.9 0.1 669.9 0 1004.8-99.2-89.3-196.6-180.7-294.8-271 0.2-244.6-0.1-489.2 0.2-733.8zm-1028.4 532.7c99.2 89.3 197.1 180.2 294.5 271.3-0.1 239-0.3 477.8 0.1 716.7-98.6 0-197.4 2.2-295.9-1.2 2.7-329 0-657.9 1.3-986.8z"/>
	</g>
	<g id="#b14a32ff">
		<path id="Layer" class="s1" d="m2.3 1c441.5 406.1 881.3 814 1322.9 1219.9 0.1 122.7 0.3 245.4-0.1 368.1h-3.1c-3.3-3.8-9.8-11.4-13.1-15.2-233.2-210.2-464.9-422.2-697.7-632.9-201.7-186.5-410.8-365.7-608-556.9-2.7-127.5-0.6-255.3-0.9-383z"/>
	</g>
</svg>