<svg version="1.2" xmlns="http://www.w3.org/2000/svg" viewBox="0 0 1582 338" width="1582" height="338">
	<title>logo (64)-svg</title>
	<defs>
		<clipPath clipPathUnits="userSpaceOnUse" id="cp1">
			<path d="m604.71 288.69h43.8v48.47h-43.8z"/>
		</clipPath>
		<clipPath clipPathUnits="userSpaceOnUse" id="cp2">
			<path d="m673.4 288.7h45.76v48.46h-45.76z"/>
		</clipPath>
		<clipPath clipPathUnits="userSpaceOnUse" id="cp3">
			<path d="m832.8 337.16h-45.76v-48.46h45.76c0 0 0 48.45 0 48.46z"/>
		</clipPath>
	</defs>
	<style>
		.s0 { fill: #094975 } 
		.s1 { fill: #003459 } 
		.s2 { fill: #0092b3 } 
	</style>
	<g id="Layer">
		<path id="Layer" fill-rule="evenodd" class="s0" d="m971.3 194l-4.6 37.3-1 0.2c-12.4 3.1-24 4.6-35.6 4.6-33.9 0-50.2-18.9-45.9-53.3l10.3-83h-57.9l-9.9 79.5c-1.4 11.7 2.9 16.5 14.9 16.5 7.8 0 12.6-0.3 24.1-1.6l2.1-0.2-4.6 37.2-1.4 0.3c-12.4 3.1-24 4.6-35.6 4.6-33.8 0-50.2-18.9-45.9-53.3l10.3-83h-30.7l4-32.4h30.7l5.1-41.2h46l-5.1 41.2h57.9l5.1-41.2h46l-5.1 41.2h42.5l-4 32.4h-42.5l-9.9 79.5c-1.5 11.7 2.9 16.5 14.9 16.5 7.8 0 12.6-0.3 24.1-1.6 0 0 1.7-0.2 1.7-0.2zm-368.6-130.4l-6.2-1.4q-1.5-0.3-3-0.5-1.5-0.1-3-0.3-1.6-0.1-3.1-0.1-1.5-0.1-3.1-0.1c-20.2 0-37.4 8.2-47.2 22.1l-0.3-19.9h-36.1l-20.3 163.9h42.5l10.2-82.6c3.3-26.9 20.6-43.6 45.1-43.6 3.8 0 8.2 0.5 12.7 1.5l4.5 1.1c0 0 7.3-40.1 7.3-40.1zm-201.1-2.4c-50.1 0-88.9 37.9-95 87.6-6.3 51.3 21.5 87.3 73.5 87.3 37.3 0 66.5-16.7 84-55.9h-39.9c-4.1 10.3-20.1 21.5-38.3 21.5-25.2 0-37.6-13.1-35.4-42h119c9.5-51-11.8-98.5-67.9-98.5zm-47.5 69.6c2.2-12.8 13.3-35.3 42-35.3 22 0 30.4 12.2 31.7 35.3zm335.7-69.6c-50.1 0-88.9 37.9-95 87.6-6.3 51.3 21.5 87.3 73.5 87.3 37.3 0 66.5-16.7 84-55.9h-39.8c-4.2 10.3-20.2 21.5-38.4 21.5-25.2 0-37.6-13.1-35.3-42h118.9c9.5-51-11.8-98.5-67.9-98.5zm-47.5 69.6c2.2-12.8 13.3-35.3 42-35.3 22 0 30.4 12.2 31.7 35.3zm-430.7-46.4h-193.6l-18 143.6h166.6l-8.3-44h-102.1l6.9-54.7h114.2l24.4 98.8h45.6l81-164.5h-45.4l-50.6 108.2z"/>
		<path id="Layer" fill-rule="evenodd" class="s1" d="m77 61.2l-50.8-17.5h52.4z"/>
		<path id="Layer" fill-rule="evenodd" class="s2" d="m1468 26.2h19.1l-17 131.7 0.7 0.6 84.7-74.1h25.5l-68.6 58.5 55.9 93.2h-20.9l-49.1-82-30.9 27-7.1 55h-19.1zm-310.6 143.9c-2.4 19.2-14.3 57.2-82.1 57.2h-88.2l25.7-201.1h88.3c31.7 0 62.5 12.1 60.6 49.3-1.1 21.2-18.6 43.5-42 45l-0.1 0.6c26.5 3.4 41.2 22.8 37.8 49zm-136-55.8h68.4c31.8 0 49-15.2 51.4-34 3.2-25.1-11.2-37.8-42.2-37.8h-68.4zm116.2 55.2c3.3-25.6-15.1-38.9-49.9-38.9h-68.4l-10.3 80.3h68.4c29.5 0.3 56.1-9.3 60.2-41.4zm156.1 62.2c-17.1 0-18.8-11.5-18.8-21.4-13.3 14.2-34.3 25.7-58.9 25.7-27.7 0-48.8-13.6-45.1-43.5 5.3-41.8 46.6-43.3 86.9-47.9 15.5-1.7 24.2-3.7 26.2-20.2 3.1-24.5-14-30.5-35.6-30.5-22.8 0-41 10.4-44.6 34.6h-18.4c6.1-34.9 32.8-49.9 67.3-49.9 26.6 0 54.5 8.1 49.5 47.9l-9.9 78.9c-0.9 7 2.1 11 9.4 11h6.1l16.8-133.5h18.4l-3.3 25.7h0.6c9-17.9 30.7-30 52-30 42.3 0 52.5 21.9 48 57.4l-12 95.7h-18.4l11.7-92.8c3.2-25.7-2.9-45-32.7-45-29.2 0-49.5 21.9-53.7 51l-10.9 86.8zm-12.9-81.3c-2.8 4.3-11.8 5.7-16.9 6.6-31.9 5.5-70.7 5.2-74.4 34.3-2.3 18.2 12.7 29.4 29.9 29.4 28.1 0 55.1-17.6 58.5-46.7 0 0 2.9-23.6 2.9-23.6zm-1080.7-150.5l9.6 43.7h-183.4l5.5-43.7z"/>
		<path id="Layer" fill-rule="evenodd" class="s0" d="m525.2 288.5h8.4l8 43.8h-8.1l-1.9-11.6h-18.1l-7.1 11.6h-8.5zm2.7 7.7h-0.1l-11 18.6h13.9z"/>
		<g id="Layer">
			<g id="Clip-Path" clip-path="url(#cp1)">
				<path id="Layer" fill-rule="evenodd" class="s0" d="m640.3 305.2c0-6.5-3.9-9.9-10.6-9.9-11.2 0-16.8 11.1-16.8 21.4 0 8.6 4.7 13.9 12.9 13.9 8.5 0 11.3-7.5 12.2-10.7h8.3c-2.7 11.7-10.9 17.3-20.7 17.3-13.4 0-20.9-8.8-20.9-20.3 0-19.4 13-28.2 25.2-28.2 11.2 0 18.9 5.9 18.6 16.5 0 0-8.2 0-8.2 0z"/>
			</g>
		</g>
		<g id="Layer">
			<g id="Clip-Path" clip-path="url(#cp2)">
				<path id="Layer" fill-rule="evenodd" class="s0" d="m696.3 337.2c-12.7 0-22.9-10.9-22.9-24.3 0-13.4 10.2-24.2 22.9-24.2 12.6 0 22.9 10.8 22.9 24.2 0 13.4-10.3 24.3-22.9 24.3zm14.6-24.3c0-9.7-6.5-17.6-14.6-17.6-8.1 0-14.7 7.9-14.7 17.6 0 9.8 6.6 17.7 14.7 17.7 8.1 0 14.6-7.9 14.6-17.7z"/>
			</g>
		</g>
		<path id="Layer" fill-rule="evenodd" class="s0" d="m735.5 314.8h24.4l-1.7 7h-24.5z"/>
		<g id="Layer">
			<g id="Clip-Path" clip-path="url(#cp3)">
				<path id="Layer" fill-rule="evenodd" class="s0" d="m809.9 337.2c-12.6 0-22.9-10.9-22.9-24.3 0-13.4 10.3-24.2 22.9-24.2 12.7 0 22.9 10.8 22.9 24.2 0 13.4-10.2 24.3-22.9 24.3zm14.7-24.3c0-9.7-6.6-17.6-14.7-17.6-8.1 0-14.6 7.9-14.6 17.6 0 9.8 6.5 17.7 14.6 17.7 8.1 0 14.7-7.9 14.7-17.7z"/>
			</g>
		</g>
		<path id="Layer" fill-rule="evenodd" class="s0" d="m857.1 288.5h19c14.9 0 14.9 9.3 14.9 13.4 0 0.2-0.2 13.6-17.4 13.6h-14.2l-3.8 16.8h-8.3zm3.6 20.7h12.6c7.4 0 9.3-4.6 9.3-8.5 0-2.4-1.1-6-7.9-6h-10.7zm57.3-20.7h34l-1.4 6.6h-26l-2.5 11.5h24l-1.3 6.2h-24.2l-2.8 12.8h26.2l-1.5 6.6h-34.1zm60.9 0h19.8c3.9 0 14.4 0.5 14.4 11.2 0 6.9-3.9 10.8-10.4 11.9v0.1c3.9 1.3 4.9 4.3 4.9 7.9 0 3-0.8 6-0.7 9 0 1.3 0.1 2.5 0.8 3.6h-8.4q-0.1-0.4-0.2-0.8-0.1-0.4-0.2-0.8 0-0.4-0.1-0.9 0-0.4 0-0.8c0-3.3 0.8-6.4 0.8-9.6 0-5.1-4.3-5.1-8.6-5.1h-9.5l-4 18h-8.1c0 0 9.5-43.7 9.5-43.7zm3.8 19.9h11.8c6.7 0 10.6-2.9 10.6-7.9 0-4.8-4-5.7-8.2-5.7h-11.2zm66.4-19.9h8.4l7.9 43.7h-8.1l-1.8-11.6h-18.2l-7 11.6h-8.5zm2.7 7.7h-0.1l-11 18.6h13.9zm41.1-7.7h33.7l-1.3 6.6h-13.1l-7.2 37.1h-7.1l7.2-37.1h-13.5zm60.7 0h7.9l-9.5 43.7h-7.9zm34.2 0h7l3.8 34.6h0.1l16.6-34.6h7.4l-21.9 43.8h-7.9zm62.1 0h34l-1.4 6.6h-26l-2.5 11.4h24l-1.3 6.3h-24.2l-2.8 12.8h26.2l-1.5 6.6h-34.2zm87.4 0h20.3c12.4 0 13.7 7 13.7 10.2 0 5.1-3.5 9.5-9 10.4v0.1c4.8 1.4 7 4.6 7 9.2 0 4.5-3.1 13.8-17.6 13.8h-24.1zm-0.1 37.5h11.7c2.8 0 11.5 0.3 12.2-6.8 0.2-2.1 0-6.9-8.4-6.9h-12.4zm4.2-19.2h12.3c8.2 0 9.3-4.5 9.3-6.8 0-1.8-0.5-5.2-7.2-5.2h-11.7zm74.6-18.3h8.5l7.9 43.7h-8.1l-1.9-11.6h-18.1l-7 11.6h-8.6zm2.8 7.7h-0.2l-10.9 18.6h13.9zm48.5-7.7h8.1l12.9 32.6h0.1l6.5-32.6h7.3l-8.7 43.7h-8.1l-13-32.4h-0.1l-6.3 32.4h-7.4zm61.1 0h7.4l-4 19.9 0.2 0.1 21.5-20h9.9l-20.3 18.1 13.2 25.6h-8.4l-10.6-20.8-7.4 6.6-2.8 14.2h-7.4z"/>
	</g>
</svg>