<svg version="1.2" xmlns="http://www.w3.org/2000/svg" viewBox="0 0 1571 1367" width="1571" height="1367">
	<title>de1ae51e-6f11-47ff-8259-b8bb57e680fa-svg</title>
	<style>
		.s0 { fill: #55c9e9 } 
		.s1 { fill: #006496 } 
		.s2 { fill: #097eb0 } 
		.s3 { fill: #505d6a } 
		.s4 { fill: #949ba3 } 
	</style>
	<g id="#55c9e9ff">
		<path id="Layer" class="s0" d="m612.3 0.9c118.6 0.1 237.1 0 355.7 0 24.1 248.7 112.5 490.8 254.6 696.4 94.8 137.8 213 259.5 347.8 358.4-59.6 102.3-117.3 205.7-178.3 307.1-2.7-1.5-7.9-4.4-10.6-5.8-114.7-86.2-223.9-180.7-317.8-289.6-52.1-58.8-99.6-121.6-143.9-186.4-48.6-72.6-92.5-148.4-130.3-227.3-91.3-189.7-150.3-395.1-171.7-604.6-1.4-12.9-3.4-25.6-5.2-38.4-0.1-2.5-0.2-7.4-0.3-9.8z"/>
	</g>
	<g id="#006496ff">
		<path id="Layer" class="s1" d="m603.9 70.1c2.3-19.8 4.6-39.8 8.7-59.4 1.8 12.8 3.8 25.5 5.2 38.4 21.4 209.5 80.4 414.9 171.7 604.6-11 21.9-21.6 44-33.2 65.6-20.5-33.8-31.3-72.1-44.6-109-56.8-163.5-90.2-335.2-97.9-508-1.3-11.3-6.4-21.6-9.9-32.2z"/>
	</g>
	<g id="#097eb0ff">
		<path id="Layer" class="s2" d="m603.9 70.1c3.5 10.6 8.6 20.9 9.9 32.2 7.7 172.8 41.1 344.5 97.9 508 13.3 36.9 24.1 75.2 44.6 109-30.6 57.6-64.2 113.5-100.9 167.3-111.7 164.5-249.9 311.3-408.8 431.2-7.4 5.7-13.9 12.3-19.7 19.8-10.1 6.2-20.1 12.7-29.9 19.2-6.4 3.9-13.3 6.6-20.1 9.7-59.2-101.9-117.9-204.1-176.9-306 193.1-138.6 352.6-324 459.2-536.5 72.3-142.1 120.7-296.2 144.7-453.9z"/>
	</g>
	<g id="#505d6aff">
		<path id="Layer" class="s3" d="m919.8 881c44.3 64.8 91.8 127.6 143.9 186.4 93.9 108.9 203.1 203.4 317.8 289.6-17.8-5.6-34.8-13.3-52.3-19.9h3.2l14.7-0.5c-194.4-119.6-369.9-272.2-507.5-454.6 27.5 0.8 55 2 82.4 4.2z"/>
		<path id="Layer" class="s3" d="m655.4 886.6c29.1-2.6 58.4-3.5 87.6-4.6-127.5 169-286.6 313.7-464.7 428-16.5 10.3-32.3 22.5-51.4 27.6 5.8-7.5 12.3-14.1 19.7-19.8 158.9-119.9 297.1-266.7 408.8-431.2z"/>
	</g>
	<g id="#949ba3ff">
		<path id="Layer" class="s4" d="m743 882c32.2-0.5 64.4-0.5 96.6 0 137.6 182.4 313.1 335 507.5 454.6l-14.7 0.5c-204.2-78.7-425.2-114.9-643.8-98.8-169.2 10.9-335.3 53.4-491.6 118.5 9.8-6.5 19.8-13 29.9-19.2 19.1-5.1 34.9-17.3 51.4-27.6 178.1-114.3 337.2-259 464.7-428z"/>
	</g>
</svg>