<svg version="1.2" baseProfile="tiny-ps" xmlns="http://www.w3.org/2000/svg" viewBox="0 0 1541 1004" width="1541" height="1004">
	<title>Endeavor_Group_logo-svg</title>
	<style>
		tspan { white-space:pre }
		.shp0 { fill: #ffffff } 
	</style>
	<g id="Layer">
		<path id="Layer" class="shp0" d="M0.79 0.39L295.63 0.39C472.53 0.39 590.46 3.91 590.46 8.31C590.46 12.71 586.94 26.79 581.66 39.12L572.86 62L317.63 62L62.4 62L64.16 266.22L66.8 471.33L289.46 473.97L511.25 475.73L511.25 502.14L511.25 528.54L289.46 530.3L66.8 532.94L66.8 735.41L66.8 937.87L331.71 940.51L597.5 942.27L601.02 973.08L604.54 1003.89L302.67 1003.89L0.79 1003.89L0.79 502.14L0.79 0.39Z" />
		<path id="Layer" class="shp0" d="M792.88 0.39L839.53 0.39L887.05 0.39L1026.99 217.81C1103.56 338.41 1229.41 534.71 1305.98 656.18C1383.43 776.78 1452.08 882.41 1458.24 889.45C1468.8 900.01 1470.56 835.76 1470.56 451.08L1470.56 0.39L1505.76 0.39L1540.97 0.39L1540.97 502.14L1540.97 1003.89L1498.72 1003.89L1455.6 1003.89L1161.65 546.15C1000.59 294.39 865.05 88.41 861.53 88.41C857.13 88.41 854.49 294.39 854.49 546.15L854.49 1003.89L823.69 1003.89L792.88 1003.89L792.88 502.14L792.88 0.39Z" />
	</g>
</svg>