<svg version="1.2" xmlns="http://www.w3.org/2000/svg" viewBox="0 0 1534 828" width="1534" height="828">
	<title>equifax_150_28-svg</title>
	<style>
		.s0 { fill: #ffffff } 
	</style>
	<g id="Layer">
		<g id="Layer">
			<path id="Layer" fill-rule="evenodd" class="s0" d="m316.9 357.8l-29.6 136h316.9l-26.7 133.1h-577.4l142.1-626.9h559.7l-26.7 127.2h-307.9l-23.7 106.4h269.5l-26.7 124.2zm823.2 0l393.8 470.2h-260.6l-171.7-201.1c0 0-65.2 20.7-168.8 17.8-103.6-6-296.1 0-287.2-180.4 5.9-88.7 35.5-204.1 35.5-204.1 56.3-221.8 210.2-221.8 390.9-215.8 124.3 2.9 319.8 2.9 284.2 198.1 0 0-8.9 56.2-20.7 115.3zm-97.7-207c-88.8-5.9-121.4 76.9-121.4 76.9-38.5 112.4-53.3 212.9-53.3 212.9-14.8 73.9 41.4 100.6 91.8 100.6 44.4 0 103.6-26.7 121.4-76.9 38.5-106.5 53.3-212.9 53.3-212.9 20.7-118.3-91.8-100.6-91.8-100.6z"/>
		</g>
	</g>
</svg>