<svg version="1.2" xmlns="http://www.w3.org/2000/svg" viewBox="0 0 1534 522" width="1534" height="522">
	<title>cropped-logo-white-svg</title>
	<style>
		.s0 { fill: #000000 } 
		.s1 { fill: #fed00a } 
	</style>
	<g id="#ffffffff">
		<path id="Layer" fill-rule="evenodd" class="s0" d="m496.7 0h5.9c0.2 174 0 348 0.1 522h-5.9c-0.1-174 0-348-0.1-522zm225.1 36.3c14.6 0 29.3-0.9 43.8 0.4 18.5 18.5 36.1 37.8 54.7 56.2 8.3 8.8 17.2 17 24.8 26.4 0.7-27.7 0.3-55.3 0.2-83 13.3-0.3 26.5-0.5 39.8 0.2-0.4 45.2-0.2 90.4-0.2 135.7-10.8 0.3-21.6 0.2-32.4 0.2-3.2 0.5-5.2-2.3-7.4-4-16.4-17-33.2-33.7-49.8-50.5-11.1-11.7-23.2-22.4-33.4-35-1.1 29.8-0.2 59.6-0.4 89.3-13.2 0.3-26.4 0.2-39.6 0.1 0-45.3 0.3-90.7-0.1-136zm240.3-0.2c14.6 0 29.3-0.2 44 0.2 23.2 45.4 46.6 90.7 70.4 135.9-14.2 0.5-28.4 0-42.5 0.2-4.5-8.2-8.2-16.8-12.4-25.1-20-0.7-40-0.2-60-0.3 2.5-10.2 7.3-19.5 11.5-28.9 11.4 0 22.8 0.2 34.2-0.2-8.4-15.7-15.8-31.9-23.6-48-17.2 34-33.7 68.3-50.4 102.5-14.2-0.2-28.4 0.3-42.5-0.3 9.7-16 17.4-33.2 26.3-49.7 15.2-28.6 29.4-57.8 45-86.3zm121.9 0c28 0.1 56-0.1 84 0.1 22.5 0.1 45.7 7.4 61.9 23.3 24.3 25.7 22.4 72.4-5.8 94.5-14.6 11.8-33.3 16.4-51.6 18.2-29.5 0.4-58.9 0.1-88.4 0.2-0.1-45.5 0-90.9-0.1-136.3zm39.7 31.6c0 24.3 0.1 48.5-0.1 72.8 14.2 0 28.4 0.4 42.6-0.2 13.7-0.5 28.6-6.5 35.5-19 5.4-8 4.2-18.5 3.1-27.6-4.7-15.8-21.1-23.9-36.4-25.9-14.9-0.6-29.8-0.4-44.7-0.1zm-206.8 124.4c16.4-5.3 33.9-3.7 50.9-3.2 17.5 3.2 35.7 8.3 49.2 20.7 30.6 26.5 29.3 81.2-3.2 105.8-12.5 10.2-28.4 14.5-43.9 17.7-19.1 0.6-38.9 2.6-57.2-4.1-14.7-3.7-28.3-11.8-38-23.5-15.8-19.9-18.6-48.4-9.7-71.8 8.2-22.1 29.4-36.8 51.9-41.6zm30.4 28.5c-5.1 0.1-10 1.4-15 2.2-14.4 2.3-27.1 13.5-30.6 27.8-0.6 7.5-0.7 15.1 0.2 22.6 3.5 10.5 11.3 19.4 21.5 23.8 17.3 6.2 36.9 6.2 53.8-0.9 6.6-3.7 13.3-8.3 16.1-15.6 8.9-14.8 5.8-35.2-6.1-47.3-10.5-10.2-25.9-12.3-39.9-12.6zm-225.4 108.4c0.2-45.3-0.1-90.6 0.1-135.9 12.9 0 25.7 0 38.5 0-0.4 34.7 0 69.4-0.2 104.1 33.1 0.8 66.3-0.1 99.4 0.5-0.1 10.4-0.1 20.8 0 31.2-45.9 0.4-91.9 0.2-137.8 0.1zm327.6-135.9c32.6 0 65.2 0 97.8 0 17.2-0.4 35.9 2.7 48.3 15.7 4.9 7.2 9 16.3 6.6 25.2-2 5.4-4.2 10.8-7.9 15.3-5.1 4.2-11.9 5.7-17.1 10 13.4 1.1 27.5 9.1 31.4 22.7 1.3 9.8 2.2 21.2-4.4 29.5-10.5 13.2-28.1 17.7-44.3 17.5-36.8 0.2-73.6 0.1-110.4 0 0.1-45.3 0.1-90.6 0-135.9zm40.1 27.6c0.1 27-0.2 54 0.2 80.9 20.6-0.2 41.3 0.1 61.9-0.1 5.3 0.1 10.4-2.1 14.8-4.8 3.4-4.7 4.1-11.4 1.3-16.5-4.3-5.5-11.8-7.1-18.4-7.6-16.6-0.2-33.2 0.1-49.7-0.1 2.9-6.7 5-13.6 8-20.2 1.1-1.9 1.6-5.5 4.6-4.9 12.9-0.6 26 1 38.7-0.8 8.4-1.3 15.2-10.2 10.5-18.3-1.8-6-9-5.9-13.9-7.4-19.3-0.6-38.6-0.2-58-0.2zm114.5 108.2c23.2-45.3 46.9-90.4 70.1-135.7q22-0.2 44 0c24.1 45 46.7 90.8 70.8 135.8-14 0.3-28-0.2-41.9 0.3-5.2-8.1-9.1-16.9-13.1-25.5-20.3-0.2-40.5 0.2-60.7-0.2 4.6-9.3 8.2-19 11.6-28.7 11.6-0.3 23.2 0 34.7-0.3-8.2-15.6-15.2-31.9-23.7-47.4-17.1 33.8-32.8 68.3-50.4 101.8-13.8 0.1-27.6 0.2-41.4-0.1zm192.8-135.7c12.7-0.1 25.5-0.1 38.2-0.1-0.1 34.8 0 69.5-0.1 104.2 33 0.6 66 0 99 0.3v31.4c-45.7 0.1-91.4 0.2-137.1 0 0.2-45.3 0.1-90.5 0-135.8z"/>
		<path id="Layer" class="s0" d="m138 146.3c40.9-32.7 99.9-40 147.7-19 37.7 15.6 67.5 48.1 80.9 86.4-21.4-0.1-42.7-0.1-64 0-19.1-34.7-64.9-50-101.8-37.6-36.9 10.8-64.5 48.3-62.3 87-1.1 44.4 37.1 84.7 81.2 87.4-16.7 13-30.7 29.7-37.7 49.9-27-10.8-51.7-28.2-69-51.7-12.2-15.5-20.6-33.6-26.4-52.4-5.7-23.5-5.9-48.5-0.5-72.1 8.5-30.5 26.3-58.9 51.9-77.9zm-122.2 31.6c30.6-81.2 112.5-140.3 199.4-143.3 26.1-0.8 52.9 0.4 77.8 9.1 77.3 22 139.5 89 156.3 167.5 2.1 9.8 3.1 19.7 5 29.4 0.9 13.1 0.6 26.3 0.2 39.4 0.1 3.3-1.1 6.4-2.1 9.5-27.7 0-55.3-0.1-83 0-5.3 27.2-18.4 53.1-38.4 72.4-12.6 11.5-27.4 20.3-42 29.1-15.3 8.9-32.4 20.9-35.1 39.9-0.5 18.9-0.2 37.8-0.1 56.7-18.1 0.3-36.3 0.2-54.5 0.1 0.6-20.1-0.3-40.2 0.5-60.2 2.6-11.6 4.3-23.8 10.4-34.1 14-24.5 38.5-40.1 62-54.4 19.1-10.2 36.9-27.3 40.8-49.5-46.1-0.1-92.1 0.1-138.1-0.1 0-18.1-0.1-36.1 0.1-54.2 73-0.2 146 0.1 218.9-0.2-8.7-60.8-54.2-114.8-112.9-133.4-42.7-15-91.4-10.7-131.3 10.3-29.9 15.4-54.8 40.2-70.6 69.8-19.6 36.2-24.9 79.6-14.9 119.5 11.7 56.8 57.8 104 113.1 120.2 0.3 20.3 0 40.5 0.1 60.8-41.2-8.1-79.7-29.8-109.5-59.3-53.9-51.9-77.6-131.6-64-204.8 3.8-13.4 5.7-27.5 11.9-40.2zm369.2 142.5c1-2.8 2.2-5.4 3.3-8.2 20.3 0 40.6-0.1 60.9 0.1-12.6 54-45.3 103.5-91.3 134.8-24.4 16.8-52 29.7-81.1 35.2-0.1-20.3-0.3-40.6 0.1-60.9 49.3-14 90.8-52.7 108.1-101z"/>
	</g>
	<g id="#fed00aff">
		<path id="Layer" class="s1" d="m556.5 36.4q75.4-0.7 150.8 0-0.2 14.7 0 29.5c-36.5 0.6-73.1 0-109.6 0.4-0.7 0.6-1.9 2-2.5 2.7-0.4 6.6-0.9 13.5 1.4 19.9 30.6-0.2 61.3-0.5 92 0.1-0.6 9.4 0.9 19-0.7 28.2l-2 0.8c-30.3 0.4-60.6-0.2-90.9 0.2 0 8.1-0.1 16.1 0.1 24.2 37.6 0.2 75.3 0 113 0.1 0 9.9 0 19.9 0 29.9-50.5 0-100.9 0-151.3-0.1-0.3-45.3 0.2-90.6-0.3-135.9zm8.3 174.9c13.8-13.5 33.1-19 51.6-22.3 17.6-0.7 35.9-2.3 52.9 3.7 14.6 3.4 28 11 39.6 20.5-9.8 7.2-19.4 14.7-29.4 21.6-10.1-8.3-22.3-14.3-35.7-14.5-16.7-0.6-36.2 0.1-48.3 13.4-9.2 8.5-10.1 22-9.3 33.7 0.7 14.8 12.2 27.7 26.3 31.6 12.7 4.1 26.4 3.4 39.6 2.5 9.2-1.6 19.1-4.1 25.3-11.6 0.6-3.5 0.5-7 0.8-10.5-6.5-0.8-13-0.7-19.5-0.7 4.3-8.7 5.8-18.8 10.9-27 12.8-3 26.6-1.2 39.8-0.7-0.1 19.3 0 38.7 0 58-13.6 13.8-32.6 20-51.1 23.8-14.6 1.4-29.3 1.2-43.8 0.3-19.3-3.7-39.6-10.1-52.9-25.4-23.8-26.6-22.6-71.5 3.2-96.4zm3 138.5c47.2 0 94.3-0.2 141.5 0.2-0.8 9.2 1.9 19.1-1.5 27.8-26.4 39.8-52.3 80-79.1 119.6-16.3 1.7-33 0.5-49.5 0.4 22.1-31.2 43-63.2 64.6-94.8 4.2-6.6 9.3-12.5 12.7-19.5-34.4-0.2-68.8 0.1-103.2-0.2 5.6-10.8 8.8-22.7 14.5-33.5z"/>
	</g>
</svg>