<svg version="1.2" xmlns="http://www.w3.org/2000/svg" viewBox="0 0 1555 1551" width="1555" height="1551">
	<title>cropped-logo-white-svg</title>
	<style>
		.s0 { fill: #ffffff } 
	</style>
	<g id="#ffffffff">
		<path id="Layer" class="s0" d="m471.7 382.8c139.7-111.7 341.5-136.8 504.8-64.8 128.8 53.1 230.5 164.4 276.3 295.4-72.9-0.5-145.9-0.3-218.8-0.1-65.1-118.7-221.6-171-347.8-128.7-126.2 36.9-220.4 165.3-212.9 297.5-3.7 151.9 126.9 289.5 277.6 298.8-57.1 44.6-104.9 101.7-128.9 170.8-92.2-37.1-176.5-96.6-235.9-176.9-41.8-53-70.4-114.9-90.3-179-19.4-80.5-19.9-165.8-1.7-246.6 29.2-104.3 90.2-201.3 177.6-266.4zm-417.7 108.3c104.6-277.9 384.3-479.7 681.4-490.1 89.3-2.5 180.8 1.5 265.8 31.2 264.4 75.2 477 304.3 534.4 572.6 7 33.4 10.4 67.3 17.1 100.6 2.9 44.8 2.1 89.7 0.6 134.4 0.2 11.4-3.9 21.9-7.2 32.6-94.5 0.2-189-0.3-283.6 0.2-18.3 92.9-62.9 181.3-131.3 247.4-43.2 39.3-93.5 69.4-143.4 99.3-52.5 30.7-110.8 71.6-120.1 136.4-1.5 64.6-0.7 129.3-0.3 194-62 1-124.1 0.7-186.2 0.1 1.9-68.6-1.2-137.2 1.8-205.8 8.7-39.4 14.4-81.2 35.5-116.5 47.9-83.5 131.5-136.9 211.7-185.9 65.3-35 126.2-93.3 139.5-169-157.4-0.6-314.7 0.3-471.9-0.5 0.1-61.8-0.3-123.6 0.2-185.3 249.5-0.8 498.9 0.3 748.4-0.6-29.8-208-185.5-392.6-386.1-456.1-145.8-51.3-312.4-36.7-448.8 35.2-102.1 52.7-187.2 137.4-241.2 238.7-66.8 123.6-85 272.1-51 408.4 40.3 194.1 197.5 355.7 386.7 410.9 0.8 69.3 0 138.6 0.3 208-140.9-28-272.4-101.9-374.3-202.9-184.1-177.5-265.1-449.8-218.7-699.9 12.9-46 19.6-94.1 40.7-137.4zm1261.9 487c3.3-9.5 7.5-18.7 11.3-27.9 69.3-0.2 138.6-0.6 207.9 0.2-43 184.6-154.6 353.8-311.8 460.9-83.5 57.3-177.9 101.4-277.4 120.2-0.2-69.4-0.9-138.8 0.3-208.1 168.5-47.9 310.5-180.4 369.7-345.3z"/>
	</g>
</svg>