<svg version="1.2" xmlns="http://www.w3.org/2000/svg" viewBox="0 0 1585 1595" width="1585" height="1595">
	<title>elekta-svg</title>
	<style>
		.s0 { fill: #005369 } 
		.s1 { fill: #0db3c9 } 
	</style>
	<g id="Ebene 2">
		<g id="Layer 1">
			<path id="Path 1448" class="s0" d="m1515.4 475.6c42.4 95.3 65.7 197.9 68.5 302.2 2.8 104.2-14.8 208-52 305.5-37.2 97.4-93.2 186.6-164.8 262.4-71.6 75.9-157.4 136.9-252.5 179.7-95.1 42.8-197.8 66.2-302.1 68.9-104.3 2.6-208-15.5-305.2-53.4-97.2-37.8-185.9-94.7-260.9-167.2-74.9-72.5-134.7-159.2-175.8-255.1-54.1-120.6-77.3-252.8-67.4-384.7 10-131.8 52.7-259 124.3-370.2 71.6-111.1 169.9-202.6 285.8-266.1 116-63.5 246-97.1 378.2-97.6 27.7 0 55.3 1.3 82.9 4 27.5 2.8 54.9 6.9 82 12.4 27.1 5.5 54 12.4 80.4 20.6 26.4 8.2 52.4 17.7 77.9 28.6l-119.7 122.9q-24.6-8.5-49.7-15-25.1-6.5-50.6-11-25.6-4.5-51.4-7-25.8-2.5-51.7-2.9c-257.7 0-489.9 155.2-588.5 393.1-98.6 238-44.1 512 138 694.1 182.2 182.2 456.2 236.7 694.2 138.1 238-98.6 393.2-330.8 393.2-588.4q0.6-26-1.4-51.9-2-26-6.5-51.6-4.5-25.6-11.5-50.6-7-25.1-16.4-49.3z"/>
			<path id="Path 1455" class="s1" d="m813.1 753c5.9 2.8 11.2 6.6 15.8 11.2 4.6 4.6 8.4 9.9 11.2 15.8 2.8 5.9 4.6 12.2 5.3 18.6 0.4 13.8-4.8 27.1-14.4 37-9.5 9.8-22.7 15.4-36.5 15.4-13.7 0-26.9-5.6-36.5-15.4-9.6-9.9-14.7-23.2-14.3-37-0.3-6.8 0.8-13.5 3.2-19.8 2.5-6.3 6.2-12.1 11-16.8 4.8-4.8 10.5-8.6 16.8-11 6.3-2.5 13.1-3.6 19.9-3.2 6.4 0.6 12.7 2.4 18.5 5.2zm202.5-235.3c12.2 4.7 23.4 12 32.7 21.2 9.3 9.3 16.5 20.5 21.2 32.7 4.8 12.3 6.9 25.4 6.2 38.6 0 39.9-24 75.9-60.9 91.2-36.9 15.3-79.4 6.9-107.6-21.4-28.3-28.2-36.7-70.7-21.4-107.6 15.3-36.9 51.3-60.9 91.2-60.9 13.2-0.7 26.3 1.4 38.6 6.2zm304.1-345c21.4 9.1 40.7 22.4 56.8 39.1 16.2 16.7 28.8 36.4 37.3 58 8.4 21.7 12.5 44.7 11.9 68 0 47.2-19.1 92.5-52.8 125.7-33.8 33.1-79.4 51.3-126.7 50.5-47.3-0.8-92.3-20.5-124.9-54.8-32.6-34.2-50.1-80.1-48.5-127.4 0.4-23.1 5.4-46 14.7-67.2 9.3-21.2 22.6-40.4 39.3-56.5 16.6-16 36.3-28.7 57.8-37.2 21.5-8.5 44.5-12.7 67.6-12.4 23.3 0.2 46.2 5 67.5 14.2z"/>
		</g>
	</g>
</svg>