<svg version="1.2" xmlns="http://www.w3.org/2000/svg" viewBox="0 0 1514 1047" width="1514" height="1047">
	<title>img__logo--header-svg</title>
	<defs>
		<clipPath clipPathUnits="userSpaceOnUse" id="cp1">
			<path d="m-3059.42-13.76h4577.36v2361.76h-4577.36z"/>
		</clipPath>
	</defs>
	<style>
		.s0 { fill: #74cee2 } 
		.s1 { fill: #8bb836 } 
	</style>
	<g id="Clip-Path" clip-path="url(#cp1)">
		<g id="Layer">
			<path id="Layer" class="s0" d="m787.1 297.8h-358l17.7-30.9h357.9c0 0-17.6 30.9-17.6 30.9zm35.3-61.7h-358l17.6-30.8h358c0 0-17.6 30.8-17.6 30.8zm691.6-235.9l-83.5 145.9h-556.6l-16.3 28.5h-357.9l99.7-174.4zm-762.1 359.2h-358l17.7-30.9h357.9z"/>
			<path id="Layer" class="s1" d="m511.2 779.9h-357.9l17.6-30.9h358zm35.2-61.7h-357.9l17.7-30.8h357.8c0-0.1-17.6 30.8-17.6 30.8zm35.2-61.6h-357.8l17.6-30.9h357.9zm-105.8 184.8h-358l17.7-30.8h358c-0.1 0-17.7 30.8-17.7 30.8z"/>
			<path id="Layer" class="s0" d="m857.6 174.6h556.6l-17.7 30.7h-556.5c0 0 17.6-30.7 17.6-30.7zm-35.2 61.5h556.5l-17.6 30.8h-556.6zm-35.3 61.6h556.5l-17.5 30.8h-556.6c0 0 17.6-30.8 17.6-30.8z"/>
			<path id="Layer" class="s1" d="m1015.8 565.8h-382.2l-16.6 29.2h-358l117.3-204.9h359-1.1l17.6-30.7h382.6zm-398.8 29.1h556.6l-17.7 30.8h-556.5c0 0 17.6-30.8 17.6-30.8zm-35.3 61.6h556.6l-17.6 30.8h-556.6zm-35.3 61.6h556.6l-17.6 30.8h-556.5zm-35.2 61.6h556.5l-17.6 30.8h-556.5c0 0 17.6-30.8 17.6-30.8z"/>
			<path id="Layer" class="s1" d="m1032.5 841.4l-7.6 13.3-38.9 68-70.7 123.6h-914.5l99.6-174.1h358l9.9-17.5 7.7-13.3z"/>
		</g>
	</g>
</svg>