<svg version="1.2" xmlns="http://www.w3.org/2000/svg" viewBox="0 0 1593 1493" width="1593" height="1493">
	<title>ESG report 2023_final-1-pdf-svg (2)-svg</title>
	<style>
		.s0 { fill: #ffffff } 
	</style>
	<g id="Clip-Path: Page 1">
		<g id="Page 1">
			<path id="Path 6" class="s0" d="m857.6 1173c-145.8 0-263.7-117.9-263.7-263.8 0-145.8 117.9-263.7 263.7-263.7 145.9 0 263.8 117.9 263.8 263.7 0 145.9-117.9 263.8-263.8 263.8zm-26.4-1172.8q-15.4 0-29 0c-99 3.4-196.3 27.3-283.4 68.3-88.7 41-167.3 99-230.4 169-64.9 70-114.4 151.9-146.8 240.7-20.5 56.3-34.2 114.4-39.3 174.1-5.1 52.9 35.9 99 88.8 99 20.5 0 37.5-15.3 39.2-35.8 17.1-136.6 83.7-264.6 182.7-351.7 107.5-97.3 250.9-145.1 389.2-136.6 138.2 6.9 266.2 71.7 353.3 170.8 46.1 51.2 80.2 110.9 100.7 174.1 34.1 107.5 131.4 179.2 242.4 179.2 58 0 102.4-51.2 92.2-107.5-12-68.3-32.5-133.2-61.5-192.9-42.7-93.9-104.1-179.3-179.2-247.6-75.1-69.9-162.2-122.9-256.1-157-83.6-30.7-174.1-46.1-261.1-46.1zm530.8 776.7c-17 136.6-83.6 264.6-182.6 351.7-107.5 97.3-250.9 145.1-389.2 136.6-138.2-6.9-266.3-71.7-353.3-170.8-46.1-51.2-80.2-110.9-100.7-174.1-34.2-107.5-131.5-179.2-242.4-179.2-58 0-102.4 51.2-92.2 107.5q17.9 102.4 61.5 194.6c42.6 93.9 104.1 177.6 179.2 245.9 75.1 69.9 162.2 122.9 256 157 93.9 35.9 194.6 49.5 291.9 46.1 99-3.4 196.3-27.3 283.4-68.3 88.7-41 167.2-99 232.1-169 63.2-70 112.7-151.9 145.1-240.7 20.5-56.3 34.1-114.4 39.3-174.1 5.1-52.9-35.9-99-88.8-99-20.5 0-37.6 15.3-39.3 35.8z"/>
		</g>
	</g>
</svg>