<svg version="1.2" xmlns="http://www.w3.org/2000/svg" viewBox="0 0 1600 460" width="1600" height="460">
	<title>embark-trucks-logo-vector-svg</title>
	<style>
		.s0 { fill: #006bd4 } 
		.s1 { fill: #3a9cff } 
	</style>
	<path id="Layer" fill-rule="evenodd" class="s0" d="m374.1 154.8h145.9l-10.1 45.3h-91.5l-5.3 23.7h89.8l-10.1 45.3h-89.9l-5.8 26.4h92l-9.9 45.3l-145.9-0.2zm309.4 185.7l24.8-112.5l-70.4 112.5h-25.1l-20.5-112.5l-25.1 112.5h-53.9l40.8-185.7h71l18.6 101.2l62.4-101.2h72l-40.8 185.7zm92.3 0l40.8-185.7h102.4c36.3 0 58.4 17.5 58.4 42.9c0 22.3-16.3 45.8-41.9 49c17.6 6.1 27 21 27 36.2c0 32-24 57.9-65.4 57.9h-121.3zm132.8-59.7c0-7.2-5.3-12.6-13.6-12.6h-49.6l-5.9 28h52.3c9.3 0 16.8-6.6 16.8-15.4zm-4.3-56.5c9.9 0 15.5-7.5 15.5-14.7c0-6.4-5.3-10.9-12.8-10.9h-45.6l-5.9 25.3h48.8zm233.1-69.5l32.8 185.7h-59.5l-4-25.6h-73.6l-14.9 25.6h-61.1l115-185.7c-0.3 0 65.3 0 65.3 0zm-44 53.5l-35.2 59.7h43.2zm201.9 132.2l-18.2-59.4h-24l-13 59.4h-54.2l40.8-185.8h88.8c43.5 0 68 23.2 68 54.7c0 34.1-22.6 60.7-53.3 67.4l25.3 63.4zm10.4-106c13.1 0 21.6-9.1 21.6-19.5c0-7.7-5.3-13.6-16.5-13.6h-40.3l-7.2 33.1zm193.6 106l-35.2-67.9l-14.1 13l-12.3 54.6h-54.1l40.8-185.7h54.1l-15.4 70.4l71.2-70.4h65.8l-94.6 86.9l58.1 98.8zm-1363.5-233.1c10.7 7.7 20.6 16.8 29.1 26.6c13.9 16.3 26.4 38.7 21.1 62.6l-57.9 262.8c-10.7-7.7-20.5-16.8-29.1-26.7c-13.8-16.2-26.4-38.6-21-62.6z" />
	<path id="Layer" class="s1" d="m246.9 49.8c0 0 60.8 41.1 50.2 89l-11 49.3l-19.7 89.8l-10.9 49.3c-10.7 48-83 60-83 60l47-213.5zm-187.8-49c10.7 7.7 20.6 16.8 29.1 26.7c13.9 16.2 26.4 38.6 21.1 62.6l-57.9 262.7c-10.7-7.7-20.5-16.8-29.1-26.6c-13.8-16.3-26.4-38.7-21-62.6z" />
</svg>