<svg version="1.2" xmlns="http://www.w3.org/2000/svg" viewBox="0 0 1539 225" width="1539" height="225">
	<title>2021-EMCORE-Annual-Report-1-pdf-svg</title>
	<defs>
		<clipPath clipPathUnits="userSpaceOnUse" id="cp1">
			<path d="m-3360.04-570.24h5356.43v6981.18h-5356.43z"/>
		</clipPath>
	</defs>
	<style>
		.s0 { fill: #858589 } 
		.s1 { fill: none;stroke: #858589;stroke-width: 5 } 
	</style>
	<g id="Clip-Path: Page 1" clip-path="url(#cp1)">
		<g id="Page 1">
			<path id="Path 6" fill-rule="evenodd" class="s0" d="m218.1 104v28.4h-155.5c1.3 26.1 5.8 33.4 7.2 34.7 1.3 1.4 8.6 7.7 40.6 7.7h107.3v50h-106c-44.6 0-73.5-7.6-89.3-23.4-14.8-15.3-22-44.7-22-89.8 0-41.4 7.2-69.4 22.5-85.2 14.9-15.8 43.3-23.9 83.9-23.9 45 0 73 6.3 88.3 20.8 15.8 13.9 23 40.1 23 80.7zm-67.6-45.6c-1.8-1.3-9.9-5.8-40.6-5.8-30.2 0-38.3 5.4-40.1 6.7-1.4 1.4-5 6.8-6.3 24.4h93.3c-0.9-19.4-5.4-24.4-6.3-25.3zm658.7 166.4h-92.4c-41.5 0-69-7.2-83.9-22.5-18-18.5-21.6-58.6-21.6-89.3 0-29.3 3.6-67.6 21.6-87 14.9-15.4 42-23.5 79.8-23.5h97v49.2h-99.2c-23.9 0-30.2 4.9-32 7.2-3.2 4.5-7.2 21.2-7.2 54.1 0 38.3 5.8 53.2 7.6 55.5 1.4 1.3 8.6 7.6 41.1 7.6h89.2zm220.1-200.6c17.5 17.5 21.1 59 21.1 90.6 0 44.6-7.2 73.5-21.1 87.9-14.5 14.9-42 22.1-85.7 22.1-43.3 0-70.3-7.2-85.2-22.1-14-14.4-20.8-43.7-20.8-87.9 0-31.6 3.6-73.1 20.8-90.6 14.9-14.9 41.9-22.1 85.2-22.1 43.7 0 71.2 7.2 85.7 22.1zm-39.7 90.6c0-39.7-5-54.6-6.8-56.8 0-0.5-5.4-6.3-39.2-6.3-32.9 0-38.3 5.8-38.8 6.3-1.8 2.2-6.3 17.1-6.3 56.8 0 45.5 6.3 53.7 6.3 54.1 0.5 0 5.9 6.3 38.8 6.3 33.4 0 39.2-6.3 39.2-6.3 0.5-0.4 6.8-8.6 6.8-54.1zm-409-36.5v146.1h-59.5v-143.9c0-23-17.1-24.3-36.5-24.3-22.1 0-37.9 1.8-37.9 24.8v143.4h-60.4v-147c0-18.5-12.6-23-36.1-23-24.3 0-37.8 4.5-37.8 24.3v145.7h-60.5c0 0 0-148.8 0-149.3 1.4-29.8 14.9-51.4 39.3-62.7 19.4-8.5 36.9-9.9 56.8-9.9 27.5 0 52.3 2.3 70.8 18 19.8-15.7 37.8-18.4 66.2-18.4 78.9 0 95.6 41.4 95.6 76.2zm668.7-76.2v49.1h-78.5c-11.2 0-35.6 5.9-35.6 41v132.6h-58.6v-143.8c0-18.5 7.2-78.5 101-78.9zm231.7 101.9v28.4h-155.5c0.9 25.7 5.9 32.9 7.2 34.7 0.9 1.4 8.6 7.7 40.6 7.7h107.3v50h-106c-44.6 0-73.9-7.6-89.2-23.4-15.4-15.8-22.6-45.1-22.6-89.8 0-41.9 7.2-69.9 22.6-85.6 15.3-15.8 43.7-23.9 84.3-23.9 44.6 0 73 6.7 88.3 20.7 15.8 14 23 40.6 23 81.2zm-68-45.6c-1.8-1.3-10-6.3-40.6-6.3-30.2 0-37.9 5.4-39.7 7.2-1.3 1.4-5.4 6.3-6.8 24.4h93.8c-0.9-19.9-5.4-24.4-6.7-25.3zm97.4-25.7h-6.4v12.2h-5.4v-31.6h11.3q5.4 0 8.6 2.3 2.7 2.7 2.7 7.2 0 3.2-1.4 5.4-1.8 2.3-4.5 3.2l7.2 13v0.5h-5.8zm-5.9-4.5h5.4q2.7 0 4.5-1.4 1.4-1.3 1.4-4 0-2.3-1.4-3.6-1.3-1.4-4.5-1.4h-5.4z"/>
			<path id="Path 7" class="s1" d="m1509.4 55.3c-14.2 0-25.7-11.5-25.7-25.7 0-14.2 11.5-25.7 25.7-25.7 14.3 0 25.7 11.5 25.7 25.7 0 14.2-11.4 25.7-25.7 25.7z"/>
		</g>
	</g>
</svg>