<svg version="1.2" xmlns="http://www.w3.org/2000/svg" viewBox="0 0 1603 434" width="1603" height="434">
	<title>epiroc-svg</title>
	<style>
		.s0 { fill: #ffc72c } 
	</style>
	<path id="Layer" fill-rule="evenodd" class="s0" d="m943.8 44.4c15.2-0.1 28.9 8.8 34.9 22.8 5.9 13.9 2.8 30-7.9 40.8-10.6 10.8-26.7 14-40.7 8.3-14.1-5.8-23.2-19.4-23.2-34.6 0-4.8 1-9.6 2.9-14.1 1.8-4.5 4.5-8.6 8-12 3.4-3.5 7.4-6.2 11.9-8.2 4.5-1.9 9.3-2.9 14.1-3zm512.2 205.4c0 33.2 22.2 51.6 48.7 51.6 4.3 0.2 8.7-0.2 12.9-1.4 4.2-1.1 8.3-2.8 11.9-5.2 3.7-2.3 7-5.2 9.9-8.5 2.8-3.3 5.1-7 6.8-11.1q0.4-0.9 1.1-1.7 0.7-0.7 1.7-1.2 0.9-0.4 1.9-0.5 1.1-0.1 2.1 0.2l45.8 14q1.1 0.3 2 1.1 0.9 0.7 1.4 1.8 0.5 1 0.6 2.2 0 1.2-0.3 2.3c-11.1 34.4-44.9 66.9-97.8 66.9-62.2 0-112.1-45.7-112.1-110.3 0-64.5 48.7-110.6 109.9-110.6 54.6 0 87.7 31.8 98.7 66.9q0.4 1.1 0.4 2.3-0.1 1.2-0.6 2.2-0.6 1.1-1.4 1.8-0.9 0.8-2.1 1.1l-46.5 14.1q-1.1 0.3-2.1 0.2-1.1-0.1-2-0.6-1-0.5-1.7-1.2-0.7-0.8-1.1-1.8c-5.6-14-18.1-26.1-40.3-26.1-26.4-0.5-47.8 18-47.8 51.5zm-81.5-0.4c0 64.5-48.7 110.6-110.7 110.6-62.1 0-110.8-46-110.8-110.6 0-64.6 48.7-110.3 110.8-110.3 62.5 0 110.7 45.8 110.7 110.3zm-110.7 52c24.3 0 47-16.7 47-52 0-35.3-23.2-51.6-47-51.6-23.9 0-47 16.9-47 51.6 0 34.8 23.1 52 47 52zm-120.1-99.3q-0.1 1.1-0.7 2.1-0.6 1-1.5 1.6-0.9 0.7-2 1-1.1 0.2-2.2 0.1-1.5-0.2-3-0.4-1.5-0.1-3-0.2-1.5-0.1-3-0.1-1.6-0.1-3.1-0.1c-25.6 0-48.6 15.2-48.6 56.8v85.2q0 1.2-0.5 2.2-0.4 1-1.2 1.8-0.8 0.8-1.8 1.3-1 0.4-2.2 0.4h-52.4q-1.2 0-2.2-0.4-1-0.5-1.8-1.3-0.8-0.8-1.3-1.8-0.4-1-0.4-2.2v-197q0-1.1 0.4-2.1 0.5-1.1 1.3-1.9 0.8-0.8 1.8-1.2 1-0.4 2.2-0.4h50.3q1.2 0 2.2 0.4 1 0.4 1.8 1.2 0.8 0.8 1.2 1.9 0.5 1 0.5 2.1v22.5c11-23.5 37.3-30.2 54.1-30.2q2.3 0 4.6 0.2 2.3 0.1 4.7 0.4 2.3 0.3 4.6 0.6 2.3 0.4 4.5 0.8 1.1 0.3 2 0.9 0.9 0.6 1.5 1.5 0.6 1 0.8 2 0.2 1.1 0 2.2zm-231.4-50.7c0-3.3 2.7-6 6-6h51.8c3.3 0 6 2.7 6 6v196.3c0 3.4-2.7 6-6 6h-51.8c-3.3 0-6-2.6-6-6zm-24.4 97.5c0 63.8-41.1 109.5-99.4 109.5-26.9 0-47-9.3-56.7-21v90.4q0 1.1-0.4 2.1-0.5 1-1.2 1.8-0.8 0.7-1.8 1.2-1.1 0.4-2.2 0.4h-52.4q-1.1 0-2.2-0.4-1-0.5-1.8-1.3-0.8-0.8-1.2-1.8-0.5-1-0.5-2.2v-276.5q0-1.1 0.5-2.2 0.4-1 1.2-1.8 0.8-0.8 1.8-1.2 1.1-0.5 2.2-0.5h50.2q1.1 0 2.2 0.5 1 0.4 1.8 1.2 0.8 0.8 1.2 1.8 0.5 1.1 0.5 2.2v15.7c8.8-13.4 31.4-26.4 61.2-26.4 60.6 0 97.1 46.1 97 108.5zm-109.8 52.4c25.1 0 47.2-17 47.2-51.9 0-34.9-22.6-51.6-47.4-51.6-24.8 0-47 17.2-47 51.6 0 34.4 22.2 51.9 47 51.9zm-326.4 46.8v-285.9q0.1-1.1 0.5-2.1 0.4-1.1 1.2-1.9 0.8-0.8 1.8-1.2 1.1-0.4 2.2-0.4h177.1q1.2 0 2.2 0.4 1 0.4 1.8 1.2 0.8 0.8 1.2 1.9 0.5 1 0.5 2.1v51.2q0 1.1-0.5 2.2-0.4 1-1.2 1.8-0.8 0.8-1.8 1.2-1 0.4-2.2 0.4h-110.7q-1.1 0-2.1 0.5-1.1 0.4-1.9 1.2-0.8 0.8-1.2 1.8-0.4 1.1-0.4 2.2v45.3q0 1.1 0.4 2.1 0.4 1.1 1.2 1.9 0.8 0.7 1.9 1.2 1 0.4 2.1 0.4h99.5q1.1 0 2.1 0.5 1.1 0.5 1.8 1.3 0.8 0.8 1.2 1.9 0.4 1 0.4 2.1v46.8q0 1.1-0.4 2.2-0.5 1-1.3 1.8-0.8 0.8-1.8 1.2-1 0.5-2.2 0.5h-99.4q-1.1 0-2.2 0.4-1 0.4-1.8 1.2-0.8 0.8-1.2 1.9-0.5 1-0.5 2.1v45.7q0 1.2 0.5 2.2 0.4 1 1.2 1.8 0.8 0.8 1.8 1.2 1.1 0.5 2.2 0.5h111.2q1.1 0 2.1 0.4 1.1 0.4 1.9 1.2 0.8 0.8 1.2 1.9 0.4 1 0.4 2.1v51.6q0 1.2-0.4 2.2-0.4 1-1.2 1.8-0.8 0.8-1.9 1.3-1 0.4-2.1 0.4h-177.5q-1.1 0-2.2-0.4-1-0.5-1.8-1.3-0.8-0.8-1.2-1.8-0.5-1.1-0.5-2.2z"/>
	<path id="Layer" class="s0" d="m351.5 174.6c-0.7 2.6-1.7 5-3 7.3-1.3 2.3-3 4.3-4.8 6.2-1.9 1.9-4 3.5-6.2 4.8l-162.4 93.6-76.8-41v-87.6l64.9 37.4q2.4 1.3 5 2 2.6 0.7 5.3 0.7 2.8 0 5.4-0.7 2.6-0.7 5-2l90.3-52.1-87.6-51.1q-2.3-1.3-4.8-2-2.6-0.7-5.2-0.7-2.6 0-5.2 0.7-2.5 0.7-4.8 2l-87.8 50.7v112.8l97.8 56.3 175.9-105v76.6c0 2.6-0.4 5.2-1.1 7.7-0.7 2.5-1.7 4.9-3 7.2-1.3 2.2-2.9 4.3-4.7 6.1-1.9 1.9-4 3.5-6.2 4.8l-145.9 83.9c-2.3 1.4-4.7 2.4-7.2 3-2.6 0.7-5.2 1.1-7.8 1.1-2.6 0-5.2-0.4-7.8-1.1-2.5-0.6-5-1.6-7.2-3l-145.9-84.1c-2.2-1.3-4.3-2.9-6.2-4.7-1.8-1.9-3.4-4-4.7-6.2-1.3-2.3-2.4-4.7-3-7.2-0.7-2.5-1.1-5.1-1.1-7.7v-168.2c0-2.7 0.4-5.3 1-7.8 0.7-2.6 1.8-5 3.1-7.3 1.3-2.3 2.9-4.4 4.8-6.2 1.9-1.9 4-3.5 6.3-4.8l145.7-84.1c2.2-1.3 4.7-2.3 7.2-3 2.6-0.7 5.2-1 7.8-1 2.6 0 5.2 0.3 7.8 1 2.5 0.7 4.9 1.7 7.2 3l145.9 84.4c2.2 1.3 4.3 2.8 6.2 4.7 1.8 1.8 3.4 3.9 4.7 6.2 1.3 2.2 2.3 4.6 3 7.1 0.7 2.6 1.1 5.2 1.1 7.8v51.8c0 2.6-0.4 5.2-1 7.7z"/>
</svg>