<svg version="1.2" xmlns="http://www.w3.org/2000/svg" viewBox="0 0 1516 1290" width="1516" height="1290">
	<title>Equity_Residential_logo-svg</title>
	<style>
		.s0 { fill: #9c9c9c } 
	</style>
	<g id="layer1">
		<g id="g14442">
			<path id="path14032" class="s0" d="m992.5 472.6h510.2v342.7h-510.2zm0-472.2c0 0 443.2 0 472.1 0 39.7 0 38.1 21.4 38.1 57.6 0 36 0 285.3 0 285.3h-510.2zm255.2 1288.8c-148 0-267.5-79.4-267.5-177.6 0-98.3 119.5-177.7 267.5-177.7 147.9 0 267.5 79.4 267.5 177.7 0 98.2-119.6 177.6-267.5 177.6zm-1246.7-816.6h899.7v342.6h-899.7zm0-444.2c0-14.9 9.7-28 29.7-28 8-0.1 870 0 870 0v342.6h-899.7c0 0 0-305.5 0-314.6zm899.1 1254.7c0 0-830.1 0-859 0-39.8 0-40.8-10.1-40.8-46.2 0-36 0-296.7 0-296.7h899.8z"/>
		</g>
	</g>
</svg>