<svg version="1.2" xmlns="http://www.w3.org/2000/svg" viewBox="0 0 1503 624" width="1503" height="624">
	<title>FINAL FY 2021 Earnings - Presentation-12-pdf-svg</title>
	<defs>
		<clipPath clipPathUnits="userSpaceOnUse" id="cp1">
			<path d="m-7491-4046h9450v5316h-9450z"/>
		</clipPath>
	</defs>
	<style>
		.s0 { fill: #ff3a12 } 
	</style>
	<g id="Clip-Path: Page 1" clip-path="url(#cp1)">
		<g id="Page 1">
			<path id="Path 5" fill-rule="evenodd" class="s0" d="m0.4 615v-606h387.5v92.5h-285.3v420.5h285.3v92.6h-285.3l-15.3 0.4zm102.2-263l48.8-92.5h210.3v92.5z"/>
			<path id="Path 7" fill-rule="evenodd" class="s0" d="m827.6 354l216 186.6v74h-65.3l-59.2-51.1c-51.1 37.9-114.2 60.4-182.6 60.4-170.3 0-308.7-139.8-308.7-312.1 0-172 138.4-311.4 308.7-311.4 170.7 0 308.7 139.4 308.7 311.4 0 58.4-15.8 113-43.5 159.5l-81.1-70.1c11.6-27.1 18.1-57.3 18.1-89.4 0-119.7-90.3-216.5-202.2-216.5-111.5 0-201.8 96.8-201.8 216.5 0 119.6 90.3 216.4 201.8 216.4 38.8 0 74.6-11.6 105.3-31.3l-84.5-73.6-0.8-69.3zm675 71.6l-82.7 73.6 82.7 73.6v41.8h-43.4l-84.2-75.1-84.6 75.1h-43.4v-41.8l82.6-73.6-119.5-106.9h-37.7v108.8h-57.7v-296.2h154.9c50.8 0 92.3 42.2 92.3 93.7 0 42.6-28.1 78.6-66.1 89.8l79.2 70.5 84.2-75.1h43.4zm-198.4-127c0-19.8-15.3-35.6-34.6-35.6h-97.2v71.6h97.2c19.3 0 34.6-15.9 34.6-36z"/>
		</g>
	</g>
</svg>