<svg version="1.2" xmlns="http://www.w3.org/2000/svg" viewBox="0 0 1319 1595" width="1319" height="1595">
	<title>encore-logo-svg</title>
	<defs>
		<clipPath clipPathUnits="userSpaceOnUse" id="cp1">
			<path d="m491.22 376.13q22.08-6.13 44.48-10.98 22.4-4.86 45.03-8.43 22.64-3.57 45.44-5.85 22.81-2.28 45.71-3.25 8.47 0 15.73 0l-58.11 246.49c-280.33 23.94-497.43 177.11-503.08 369.27-2.43 84.05 36.31 162.98 103.57 228.61l-5.24 7.39c-134.52-62.8-207.29-141.2-221.55-268.14-26.1-230.49 112.59-450.76 488.02-556.45"/>
		</clipPath>
		<linearGradient id="g1" x1="66" y1="1165.2" x2="770.9" y2="83.7" gradientUnits="userSpaceOnUse">
			<stop offset="0" stop-color="#1b75bc"/>
			<stop offset=".2" stop-color="#0d6291"/>
			<stop offset=".6" stop-color="#2a3990"/>
			<stop offset="1" stop-color="#2a3990"/>
		</linearGradient>
		<clipPath clipPathUnits="userSpaceOnUse" id="cp2">
			<path d="m102.61 1359.14c-41.03-159.62 98.33-461.65 531.87-484.11l-35.24 170.38c-7.67 0.94-15.2 1.75-23.01 3.09-235.93 39.27-406.77 191.22-382.02 340.09 18.03 108.38 135.19 184.23 288.4 202.52q-18.23 2.57-36.63 3.36-18.4 0.8-36.79-0.18-18.39-0.98-36.6-3.73-18.2-2.76-36.06-7.25c-133.98-39.27-201.64-100.19-233.92-224.71"/>
		</clipPath>
		<linearGradient id="g2" x1="164.4" y1="1690.2" x2="555.2" y2="765" gradientUnits="userSpaceOnUse">
			<stop offset="0" stop-color="#1b75bc"/>
			<stop offset=".5" stop-color="#1b75bc"/>
			<stop offset="1" stop-color="#2a3990"/>
		</linearGradient>
		<clipPath clipPathUnits="userSpaceOnUse" id="cp3">
			<path d="m1120.22 4.98q11.21-1.14 22.44-1.99 11.24-0.85 22.49-1.41 11.26-0.55 22.52-0.81 11.27-0.26 22.54-0.23 13.62-0.31 27.25 0.11 13.62 0.41 27.2 1.56 13.58 1.14 27.08 3.01 13.5 1.88 26.89 4.47l-97.93 233.71c-280.47-22.45-519.77 93.33-556.9 281.59-16.14 82.03 9.02 166.21 64.57 242.06l-6.45 6.45c-122.82-83.37-181.47-172.66-174.87-300.28 12.24-231.83 185.22-426.28 573.43-468.78"/>
		</clipPath>
		<linearGradient id="g3" x1="457.7" y1="893.9" x2="1330.9" y2="-57" gradientUnits="userSpaceOnUse">
			<stop offset="0" stop-color="#8cc63f"/>
			<stop offset=".1" stop-color="#8cc63f"/>
			<stop offset=".5" stop-color="#70b644"/>
			<stop offset=".5" stop-color="#6eb544"/>
			<stop offset="1" stop-color="#6eb544"/>
		</linearGradient>
		<clipPath clipPathUnits="userSpaceOnUse" id="cp4">
			<path d="m1080.13 515.71q12.39 0.03 24.77 0.41 12.38 0.37 24.75 1.1 12.36 0.72 24.7 1.79 12.34 1.07 24.65 2.49l-62.69 162.17c-7.8-0.8-15.47-0.8-23.27-0.8-239.03 0-432.73 122.1-432.73 272.71 0 109.33 103.04 203.46 251.14 247.16q-18.42-0.45-36.7-2.69-18.29-2.24-36.27-6.23-17.99-4-35.5-9.71-17.51-5.72-34.39-13.1c-125.64-60.65-182.4-131.92-193.7-260.08-13.18-150.61 144.07-395.22 505.24-395.22z"/>
		</clipPath>
		<linearGradient id="g4" x1="621.5" y1="1284.8" x2="1163.8" y2="441.2" gradientUnits="userSpaceOnUse">
			<stop offset="0" stop-color="#b9d532"/>
			<stop offset=".4" stop-color="#b9d532"/>
			<stop offset="1" stop-color="#6eb544"/>
		</linearGradient>
	</defs>
	<style>
		.s0 { fill: url(#g1) } 
		.s1 { fill: url(#g2) } 
		.s2 { fill: url(#g3) } 
		.s3 { fill: url(#g4) } 
	</style>
	<g id="Layer_2">
		<g id="Layer_1-2">
			<g id="Clip-Path" clip-path="url(#cp1)">
				<g id="Layer">
					<path id="Layer" class="s0" d="m-413 944.6l602-923.2 888.7 579.2-602 923.2z"/>
				</g>
			</g>
			<g id="Clip-Path" clip-path="url(#cp2)">
				<g id="Layer">
					<path id="Layer" class="s1" d="m-197.8 1489l346.2-819.2 745.6 314.9-346.2 819.1z"/>
				</g>
			</g>
			<g id="Clip-Path" clip-path="url(#cp3)">
				<g id="Layer">
					<path id="Layer" class="s2" d="m155 419.5l741.3-807.1 807.4 741.2-741.3 807.1z"/>
				</g>
			</g>
			<g id="Clip-Path" clip-path="url(#cp4)">
				<g id="Layer">
					<path id="Layer" class="s3" d="m251.1 1013.6l492-765 747.1 480.1-492 765.1z"/>
				</g>
			</g>
		</g>
	</g>
</svg>