<svg version="1.2" xmlns="http://www.w3.org/2000/svg" viewBox="0 0 1579 252" width="1579" height="252">
	<title>Eckert_logo-svg</title>
	<style>
		.s0 { fill: #000000 } 
		.s1 { fill: #b51047 } 
	</style>
	<g id="layer1">
		<g id="g3144">
			<path id="path33" fill-rule="evenodd" class="s0" d="m403.4 135.5h-51v47.4h57v14.2h-74.1v-131.4h71.1v14.1h-54v41.6h51zm91.3 58.2c-4.5 2.2-14.4 5.5-27.1 5.5-28.4 0-47.1-19.4-47.1-48.2 0-29.1 19.9-50.3 50.7-50.3 10.2 0 19.3 2.6 23.9 5l-3.8 13.2c-4.2-2.2-10.6-4.5-20.1-4.5-21.5 0-33.3 16.1-33.3 35.7 0 21.8 14.1 35.3 32.9 35.3 9.6 0 16.2-2.5 21-4.6zm37-47.6h0.4c2.3-3.3 5.6-7.5 8.3-10.7l27.8-32.5h20.6l-36.4 38.7 41.5 55.6h-20.9l-32.5-45.4-8.8 9.9v35.5h-17v-138.5h17zm85.4 7c0.3 23.2 15.1 32.8 32.3 32.8 12.3 0 19.8-2.2 26.2-4.9l3 12.2c-6 2.8-16.5 6-31.5 6-29 0-46.5-19.3-46.5-47.6 0-28.5 16.9-50.9 44.4-50.9 30.8 0 38.9 27 38.9 44.4 0 3.6-0.2 6.2-0.6 8zm50.3-12.3c0.1-10.8-4.5-27.8-23.7-27.8-17.6 0-25 15.9-26.4 27.8zm39.8-8.6c0-11.1-0.2-20.6-0.7-29.3h15l0.7 18.5h0.6c4.4-12.7 14.8-20.7 26.3-20.7 1.8 0 3.2 0.2 4.7 0.5v16.1c-1.7-0.3-3.5-0.4-5.8-0.4-12.1 0-20.7 9.1-23 21.9-0.4 2.4-0.7 5.2-0.7 8v50.4h-17.1zm93.3-52v22.6h24.7v13h-24.7v50.8c0 11.8 3.4 18.4 13 18.4 4.5 0 7.4-0.5 9.9-1.2l0.8 13c-3.3 1.3-8.7 2.3-15.3 2.3-7.9 0-14.5-2.5-18.6-7.2-4.7-5.2-6.6-13.5-6.6-24.6v-51.5h-14.7v-13h14.7v-17.4zm162.4 116.9c-3.7-3.8-7.1-7.5-12.2-12.8-11.5 10.4-24 14.9-38.5 14.9-25.5 0-40.4-17.2-40.4-36.8 0-17.9 10.8-30.1 25.7-38.4v-0.6c-6.8-8.6-11-18.2-11-27.5 0-16 11.7-32.4 33.5-32.4 16.4 0 29.1 10.8 29.1 27.9 0 13.8-8.1 24.7-28.9 35v0.7c11.1 12.9 23.6 27.2 32 36.6 6.1-9.2 10.1-21.9 12.7-38.4h15.6c-3.5 20.7-9.1 37-19 48.5 7.1 7.6 13.9 14.9 21.8 23.3zm-47.7-10.8c11.3 0 20.7-5 26.9-11.8-7.8-8.6-22.4-24.7-36.9-41.4-7.2 4.5-17 12.8-17 26.6 0 15.2 11 26.6 26.8 26.6zm3.5-111.1c-10.6 0-16.3 9.1-16.3 19.1 0 9.4 4.4 16.6 10 23.6 13.3-7.6 21.8-14.6 21.8-25.7 0-8.1-4.5-17-15.3-17zm102.5 111.9l72.9-106.7v-0.6h-66.7v-14.2h88.8v10.4l-72.5 106.2v0.6h73.5v14.3h-96zm116.6-84.4h17v94.3h-17zm8.2-17.4c-6.4 0-10.7-5-10.7-11.1 0-6.1 4.5-11 11-11 6.7 0 11 4.8 11 11 0 6.1-4.2 11.1-11.1 11.1zm47 67.6c0.3 23.2 15 32.8 32.3 32.8 12.3 0 19.8-2.2 26.1-4.9l3 12.2c-6 2.8-16.5 6-31.5 6-29 0-46.4-19.3-46.4-47.6 0-28.5 16.8-50.9 44.4-50.9 30.8 0 38.9 27 38.9 44.4 0 3.6-0.3 6.2-0.6 8zm50.2-12.3c0.2-10.8-4.4-27.8-23.7-27.8-17.5 0-25 15.9-26.3 27.8zm118.6 42.6c0 21.9-4.5 34.9-13.5 43.2-9.3 8.5-22.5 11.3-34.4 11.3-11.4 0-23.9-2.6-31.5-7.7l4.3-13.2c6.3 3.9 16 7.5 27.8 7.5 17.5 0 30.4-9.1 30.4-33v-10.5h-0.4c-5.2 8.8-15.5 15.9-30 15.9-23.6 0-40.3-20-40.3-46.2 0-31.9 20.8-50 42.6-50 16.4 0 25.3 8.5 29.5 16.3h0.4l0.7-14.1h15.1c-0.4 6.6-0.7 14.3-0.7 25.8zm-17.1-43.5c0-2.8-0.3-5.4-1-7.7-3.1-9.9-11.4-18.2-24.1-18.2-16.4 0-28.1 13.8-28.1 35.7 0 18.5 9.5 34 27.9 34 10.7 0 20.3-6.7 23.9-17.7 0.9-2.7 1.4-6.1 1.4-9.1zm43.6-81.2h17v138.4h-17zm55.2 94.4c0.3 23.2 15 32.7 32.3 32.7 12.3 0 19.8-2.2 26.1-4.8l3 12.2c-6 2.7-16.5 6-31.5 6-29 0-46.4-19.3-46.4-47.6 0-28.6 16.8-50.9 44.4-50.9 30.8 0 38.8 27 38.8 44.4 0 3.6-0.2 6.1-0.5 8zm50.2-12.3c0.2-10.8-4.4-27.8-23.7-27.8-17.5 0-25 15.8-26.3 27.8zm37.8-8.6c0-11.1-0.2-20.6-0.7-29.3h15l0.7 18.5h0.6c4.4-12.7 14.8-20.7 26.3-20.7 1.8 0 3.2 0.1 4.7 0.5v16.1c-1.7-0.3-3.4-0.5-5.8-0.5-12.1 0-20.7 9.1-23 22-0.4 2.4-0.7 5.2-0.7 8v50.4h-17.1z"/>
			<path id="path61" class="s1" d="m126 175.2c-69.5 0-125.6-22-125.6-49.2 0-27.2 56.1-49.2 125.6-49.2 69.4 0 125.5 22 125.5 49.2 0 27.2-56.1 49.2-125.5 49.2z"/>
			<path id="path65" class="s1" d="m209.7 188.9v62.5h-167.4v-62.5c25 5.1 53.5 8 83.7 8 30.2 0 58.7-2.9 83.7-8z"/>
			<path id="path69" class="s1" d="m42.3 0.6h167.4v62.5c-25-5.1-53.5-8-83.7-8-30.2 0-58.7 2.9-83.7 8z"/>
		</g>
	</g>
</svg>