<svg version="1.2" xmlns="http://www.w3.org/2000/svg" viewBox="0 0 1553 1104" width="1553" height="1104">
	<title>EVBG-Logo-Black-RGB-ai</title>
	<style>
		.s0 { fill: #ffffff } 
	</style>
	<g id="Layer 1">
		<g id="&lt;Group&gt;">
			<g id="&lt;Group&gt;">
				<path id="&lt;Compound Path&gt;" fill-rule="evenodd" class="s0" d="m1552.1 0.5v329.9h-24.1c-313 0-593.2 190.6-697.3 474.3-54.5 148.6-52.6 273-52.6 274.2l0.5 24.6h-0.5v0.1h-330.2v-24.2c0-233.4-190.1-423.2-423.7-423.2h-24.2v-329.9h24.2c210.8 0 410.6 88 553.5 242.6 6.7-13.5 10.9-21.1 11.2-21.7l0.2-0.3c192.4-337 552.2-546.4 938.9-546.4zm-1087.9 908.4c21.5-117.6 59.7-219.4 85.8-280.1 1.9-4.3 3.7-8.4 5.4-12.4-129.2-147.7-312.2-234.7-507.1-241.4v233.5c189.6 9.6 350.1 131.6 415.9 300.4zm265.1 146.4c-4.8-143.9-52.9-280.3-139.6-396.3-35.2 84.1-88.2 235.7-93.2 396.3zm774.5-1006.2c-360.1 8.5-692.8 206.7-872.7 521.6-0.8 1.4-8.2 15.1-19 38.1 3.7 4.7 7.6 9.6 11.6 14.9 61.8 80.9 105.7 171.4 130.5 267.4 7.7-32.1 17.8-66.8 31.1-103 108.4-295.4 395.2-496.1 718.5-505.7z"/>
			</g>
		</g>
	</g>
</svg>