<svg version="1.2" xmlns="http://www.w3.org/2000/svg" viewBox="0 0 1534 244" width="1534" height="244">
	<title>Q3 2022 EVR Investor Presentation_v7-1-pdf-svg</title>
	<defs>
		<clipPath clipPathUnits="userSpaceOnUse" id="cp1">
			<path d="m-352.48-1389.36h4539.23v3513.6h-4539.23z"/>
		</clipPath>
	</defs>
	<style>
		.s0 { fill: #ffffff } 
	</style>
	<g id="Clip-Path: Page 1" clip-path="url(#cp1)">
		<g id="Page 1">
			<path id="Path 7" fill-rule="evenodd" class="s0" d="m35 56.3c0-36.5 0-44-22.1-46.3h-4.9c-2.3-2.5 0-7.4 0-9.7 9.8 0 14.6 2.3 22.1 2.3h87.7c24.3 0 46.1 0 48.7-2.3 2.3 7.2 4.9 31.6 7.2 48.5-2.3 2.6-7.2 2.6-9.8 0-4.9-16.9-7.1-29-26.6-33.9-7.5-2.6-19.5-2.6-34.1-2.6h-27c-9.7 0-9.7 2.6-9.7 14.7v73.2c0 9.7 0 9.7 9.7 9.7h22.1c14.6 0 26.6-2.5 29.2-2.5 4.9-2.3 7.2-4.9 9.8-12.1l2.3-14.6c2.5-2.6 7.4-2.6 9.7 0 0 7.1-2.3 21.8-2.3 36.4 0 12.1 2.3 26.7 2.3 34.2-2.3 2.3-7.2 2.3-9.7 0l-2.3-14.7c-2.6-4.8-4.9-12.3-12.4-12.3-4.8-2.3-12-2.3-26.6-2.3h-22.1c-9.7 0-9.7 0-9.7 9.8v51.1c0 16.9 0 31.5 4.9 36.4 4.8 4.9 12.3 7.5 43.8 7.5 29.2 0 39 0 46.4-4.9 7.2-2.6 16.9-14.6 24.4-34.2 4.9-2.3 9.7 0 9.7 2.3-2.6 12.4-12.3 39.1-14.6 48.8h-177.9c-2.3 0-2.3-4.8-2.3-7.1l12-2.6c22.1 0 22.1-7.2 22.1-43.7zm211.7 65.8c-9.7-24.4-12-27-19.5-29.3l-12-2.6c-2.6-2.3-2.6-7.2 0-7.2h68.2c2.3 0 2.3 7.2 0 7.2l-7.4 2.6c-9.8 0-9.8 4.9-2.3 21.8l16.9 41.3c9.7 19.6 14.6 34.2 22 44 7.2-14.7 12.1-29.3 19.5-44 7.2-16.9 16.9-41.3 21.8-51 2.6-7.2 0-9.8-9.7-12.1l-4.9-2.6c-4.9-2.3-2.3-7.2 0-7.2h53.6c4.9 0 4.9 7.2 2.6 7.2l-9.8 2.6c-9.7 2.3-12.3 4.9-24.3 29.3l-27 58.2c-12 24.4-21.8 51.1-26.6 60.9 0 2.6-2.6 2.6-2.6 2.6-2.3 0-4.9 0-4.9-2.6-2.3-7.2-7.1-19.5-12-29.3zm197.4-2.3c0-24.4-2.5-24.4-14.6-26.7l-4.9-2.6c-2.5 0-2.5-7.1 0-7.1h117c0 2.3 2.3 19.5 4.8 36.4-2.5 2.3-7.4 2.3-9.7 0-2.6-9.7-4.9-14.6-7.5-16.9-4.8-9.8-21.7-9.8-29.2-9.8h-16.9c-12.3 0-12.3 0-12.3 12.1v39c0 7.2 0 7.2 7.4 7.2h16.9c19.5 0 19.5-2.3 24.4-12.1v-7.4c2.6-2.3 7.4-2.3 9.7 0v51.4c-2.3 2.3-7.1 2.3-9.7 0v-4.9c-4.9-12.4-4.9-14.7-24.4-14.7h-16.9c-7.4 0-7.4 0-7.4 7.2v26.7c0 9.8 0 22.1 4.9 27 2.5 2.3 9.7 4.9 29.2 4.9 24.3 0 36.7-2.6 46.4-31.9 2.3-2.3 9.8 0 9.8 2.6-2.6 14.6-7.5 34.2-9.8 39h-134.1c-2.3 0-2.3-7.4 0-7.4l9.7-2.3c14.7 0 17.2-2.6 17.2-29.3zm177.7 4.9c0-21.8 0-29.3-7.2-29.3l-9.7-2.3c-4.9 0-4.9-7.5 0-9.8h58.5c34.1 0 70.5 4.9 70.5 41.4 0 24.4-19.5 34.1-34.2 39v4.9c19.5 31.6 34.2 48.5 46.5 58.3 7.1 4.9 14.6 7.4 19.5 7.4 2.3 0 2.3 4.9 0 4.9-2.6 2.3-7.5 2.3-14.7 2.3-22 0-34.1-7.2-51.3-26.7-9.7-12.3-19.4-27-26.6-39-2.6-4.9-7.5-4.9-12.3-4.9-9.8 0-12.1 0-12.1 4.9v24.4c0 26.7 2.3 26.7 16.9 29.3l9.8 2.3c2.6 0 2.6 7.4-2.3 7.4h-73.1c-2.6 0-2.6-7.4 0-7.4l4.9-2.3c16.9-2.6 16.9-2.6 16.9-29.3zm26.9 26.7c0 9.7 2.3 9.7 19.5 9.7 21.8 0 34.1-9.7 34.1-34.1 0-19.5-12.3-33.9-36.7-33.9-14.6 0-16.9 0-16.9 9.5zm287.5-65.8c0 7.5 0 24.4 2.3 39.1-2.3 2.6-7.2 2.6-9.8 0-4.9-19.5-16.9-36.5-48.7-36.5-31.5 0-63.3 21.8-63.3 70.6 0 48.8 31.8 75.5 65.9 75.5 34.1 0 48.7-26.7 51-36.4 2.6-2.6 7.4-2.6 9.7 0-2.3 16.9-7.1 31.6-12 38.7-9.7 2.6-24.4 7.5-48.7 7.5-22.1 0-43.9-4.9-63.4-17.2-19.4-12.1-34.1-33.9-34.1-63.2 0-29.3 12.1-51.1 31.6-63.4 17.2-14.7 41.5-21.8 68.2-21.8 24.3 0 46.4 7.1 51.3 7.1zm221.8 75.5c0 48.8-36.7 83-88 83-55.9 0-87.7-36.5-87.7-80.4 0-48.8 36.7-85.2 87.7-85.2 58.7 0 88 39 88 82.6zm-143.9-4.8c0 36.7 16.9 78 58.5 78 26.9 0 53.6-19.5 53.6-68.3 0-38.7-19.5-77.8-58.5-77.8-26.9 0-53.6 17-53.6 68.1zm212.1-31.6c0-21.8 0-29.3-9.8-29.3l-9.7-2.3c-2.6 0-2.6-7.5 0-9.8h60.7c31.8 0 68.2 4.9 68.2 41.4 0 24.4-16.9 34.1-31.5 39v4.9c19.5 31.6 34.1 48.8 46.2 58.3 7.4 4.9 12.3 7.4 19.4 7.4v4.9c-4.8 2.3-9.7 2.3-14.6 2.3-21.8 0-36.4-7.2-51-26.7-9.7-12-19.5-26.7-26.9-39-2.3-4.9-7.2-4.9-14.6-4.9-9.8 0-9.8 0-9.8 4.9v24.4c0 26.7 2.6 26.7 17.2 29.3l9.8 2.3c2.3 0 0 7.4-2.6 7.4h-73.1c-2.3 0-2.3-7.4 0-7.4l4.9-2.3c14.6-2.6 17.2-2.6 17.2-29.3zm26.6 26.7c0 9.7 0 9.7 19.5 9.7 22.1 0 34.1-9.7 34.1-33.8 0-19.6-12-34.2-36.4-34.2-14.6 0-17.2 0-17.2 9.8zm160.8-31.6c0-24.4 0-24.4-14.6-27l-4.9-2.3c-2.3 0-2.3-7.5 0-7.5h119.5c0 2.6 2.3 19.6 2.3 36.8 0 2.3-7.2 2.3-7.2 0-2.6-9.8-4.8-14.7-7.4-17.2-4.9-9.8-21.8-9.8-31.5-9.8h-14.7c-12.3 0-12.3 0-12.3 12.3v38.8c0 7.5 0 7.5 4.9 7.5h17.2c19.5 0 21.8-2.6 24.3-12.4l2.3-7.2c0-2.5 7.5-2.5 7.5 0v51.1c0 2.6-7.5 2.6-7.5 0l-2.3-4.8c-2.5-12.1-4.8-14.7-24.3-14.7h-17.2c-4.9 0-4.9 0-4.9 7.5v26.7c0 9.7 0 21.8 2.6 26.7 4.9 2.6 9.7 4.9 31.5 4.9 22.1 0 34.1-2.3 46.4-31.6 2.3-2.6 7.2 0 9.8 2.3-2.6 14.6-7.5 34.1-12.3 39h-131.6c-2.3 0-4.8-7.2-2.3-7.2l9.8-2.5c16.9 0 16.9-2.3 16.9-29.3z"/>
		</g>
	</g>
</svg>