<svg version="1.2" xmlns="http://www.w3.org/2000/svg" viewBox="0 0 1657 279" width="1657" height="279">
	<title>exscientia-logo-svg</title>
	<style>
		.s0 { fill: #ffffff } 
		.s1 { fill: #ff6600 } 
	</style>
	<g id="XMLID_2_">
		<path id="XMLID_3_" fill-rule="evenodd" class="s0" d="m541 50.3v33.2h-93.8v48.9h87.9v33.3h-87.9v56.5h101.9l-24.1 33.2h-114.5v-205.1zm54.7 126.8l-51.2-70h38.2l32.4 44.4l32-44.4h38.5l-51.1 69.7l56.1 78.6h-37.9l-37.6-52.4l-37.7 52.4h-37.9zm113.1 33c6.1 10 20 18.5 39.1 18.5c20.3 0 26.4-8.5 26.4-16.2c0-12.3-17.6-15.2-40.5-23.5c-21.8-8-36.5-19.1-36.5-41.8c0-28.6 24.1-44.4 52.3-44.4c23 0 38.3 9.1 48 21.7l-19.7 20.9c-5.6-7-14.5-12.3-28.8-12.3c-11.2 0-18 5.3-18 13.2c0 11.2 12.4 12.7 37.4 21.8c27.3 9.7 39.6 22.7 39.6 44.2c0 25.6-18.5 47.1-60.8 47.1c-30.9 0-52.1-12.4-61.2-30.1zm189.7-107.7c22.1 0 42.3 7.4 59.4 25.6l-21.8 22.7c-10-10.3-21.7-16.2-37.6-16.2c-25.8 0-45.5 19.7-45.5 46.5c0 26.8 19.7 46.5 45.5 46.5c15.9 0 27.6-5.9 37.6-16.2l21.8 22.7c-17.1 18.2-37.3 25.6-59.4 25.6c-44.7 0-80.5-33.3-80.5-78.6c0-45.3 35.8-78.6 80.5-78.6zm70.5-33.6c0-11.7 9.7-20.9 21.2-20.9c11.2 0 20.9 9.2 20.9 20.9c0 11.8-9.7 20.9-20.9 20.9c-11.5 0-21.2-9.1-21.2-20.9zm3.6 38.3h35.2v148.4h-35.2zm50.9 74.1c0-47.6 33.2-78.2 77.6-78.2c44.1 0 73.2 33.2 73.2 74.7c0 0 0 6.5-0.6 12.4h-115.2c1.2 23.5 18.5 38.8 44.7 38.8c17.9 0 28.8-5.8 39.9-17l21.2 20.6c-19.1 20.3-40 26.5-62.3 26.5c-46.5 0-78.5-30.1-78.5-76.6zm114.9-15.9c0-17.6-16.7-32.4-37.3-32.4c-22.1 0-40.3 14.5-41.7 32.4zm53.8-58.3h34.9v21.2c6.8-14.1 23.6-24.1 45-24.1c35.6 0 56.1 23 56.1 59.4v91.9h-35.2v-86.8c0-20.1-11.5-33-31.5-33c-20 0-34.4 14.1-34.4 34.4v85.4h-34.9c0 0 0-148.4 0-148.4zm174.5 32.1h-29.6v-32.1h29.6v-56.8h35.3v56.8h30.5v32.1h-30.5v116.3h-35.3zm79.8-70.4c0-11.7 9.7-20.9 21.1-20.9c11.2 0 20.9 9.2 20.9 20.9c0 11.8-9.7 20.9-20.9 20.9c-11.4 0-21.1-9.1-21.1-20.9zm3.5 38.3h35.2v148.4h-35.2zm124-3.3c25 0 42.3 10.9 47.3 24.7v-21.4h35.3v148.3h-35.3v-21.5c-5 13.9-22.3 24.7-47.3 24.7c-41.8 0-74.1-33.5-74.1-77.4c0-43.8 32.3-77.4 74.1-77.4zm2 124.7c26.6 0 47.2-20.3 47.2-47.3c0-27-20.6-47.2-47.2-47.2c-26 0-45.7 20.2-45.7 47.2c0 27 19.7 47.3 45.7 47.3z" />
	</g>
	<g id="XMLID_1714_">
		<path id="Layer" class="s1" d="m253.8 137.4q1.4 0.9 2.5 2.1c-0.8-0.8-1.6-1.5-2.5-2.1z" />
		<g id="XMLID_1715_">
			<path id="Layer" class="s1" d="m269.7 195.4c-30.2 70.4-112.6 102.5-184 71.7q-0.4-0.2-0.7-0.4q-0.4-0.1-0.7-0.3l48-110.8l89.8-0.6c1.7 10.7 11.2 19 22.4 19h0.4c12.3-0.2 22.2-10.2 22-22.5c-0.3-12.4-10.6-22.3-23-22.2c-11.3 0-20.5 8.4-22 19.1l-89.7 0.7l-38.3-80.5l12.9-5.8l-15-31.5l-31.6 14.4l14.9 31.5l12.9-5.8l38.5 81l-48.2 111.2q-2-1-3.9-2q-0.7-0.4-1.4-0.8q-1.8-1-3.6-2q-0.2-0.1-0.4-0.2q-1.7-1.1-3.4-2.2q-0.7-0.4-1.4-0.8q-1.7-1.1-3.4-2.3q-2-1.4-4-2.9q-2-1.5-4-3.1q-1.8-1.5-3.6-3q-0.4-0.3-0.7-0.6q-1.6-1.4-3.2-2.8q-1.6-1.5-3.2-3.1q-1.2-1.1-2.2-2.3c-4-4-7.6-8.2-11-12.6q-1.4-1.9-2.8-3.9q-1.4-2-2.8-4c-0.8-1.2-1.6-2.5-2.4-3.8q-0.1-0.2-0.2-0.4q-1.2-1.9-2.3-3.8q-0.1-0.1-0.1-0.3q-1.1-1.8-2-3.6q-0.3-0.4-0.5-0.9q-0.7-1.4-1.4-2.8q-0.4-0.8-0.8-1.7q-0.8-1.5-1.5-3.1q-0.3-0.7-0.6-1.4c-0.3-0.8-0.7-1.6-1-2.4q-0.4-1-0.8-2.1q-0.7-1.6-1.3-3.3q-0.1-0.3-0.3-0.8c-0.4-1.1-0.8-2.3-1.1-3.5q-0.4-0.9-0.6-1.9q-0.4-1.1-0.7-2.2q-0.4-1.2-0.7-2.3q-0.4-1.6-0.8-3.1q-0.1-0.4-0.2-0.8q-0.5-1.9-0.9-3.8c-0.1-0.4-0.2-0.8-0.2-1.2q-0.4-1.8-0.7-3.6q-0.4-2.1-0.7-4.1q-0.3-1.7-0.4-3.4q-0.2-1-0.3-2q-0.1-0.7-0.1-1.5q-0.2-1.7-0.3-3.5q-0.2-2.3-0.3-4.6q-0.1-2.5-0.1-5.1c0-18.1 3.6-36.4 11.2-54c30.2-70.3 112.6-102.4 183.9-71.6c71.5 30.7 104.8 112.7 74.6 183z" />
			<path id="XMLID_1724_" class="s1" d="m241.8 134.5c0.6 0 1.4 0 2.2 0c-1 0-1.7 0-2.2 0z" />
			<path id="XMLID_1722_" class="s1" d="m244 174q-1.2 0-1.9 0c0.5 0 1.2 0 1.9 0z" />
			<path id="XMLID_1721_" class="s1" d="m244 134.5z" />
			<path id="XMLID_1720_" class="s1" d="m247.4 174c1.4 0 1.1 0 0 0z" />
			<path id="Layer" class="s1" d="m261.6 151.5c0.2 9.4-7.5 17.2-17 17.2c-9.5 0.1-17.4-7.5-17.6-17c-0.2-9.4 7.5-17.1 17-17.2h0.1c3.5 0 6.9 1.1 9.7 2.9q1.4 0.9 2.5 2.1c0.8 0.8 1.6 1.6 2.2 2.5q0.9 1.4 1.6 2.9c0.9 2 1.5 4.3 1.5 6.6z" />
		</g>
	</g>
</svg>