<svg version="1.2" xmlns="http://www.w3.org/2000/svg" viewBox="0 0 1559 505" width="1559" height="505">
	<title>Experian_logo-svg</title>
	<style>
		.s0 { fill: #406eb3 } 
		.s1 { fill: #632678 } 
		.s2 { fill: #982881 } 
		.s3 { fill: #ba2f7d } 
		.s4 { fill: #26478d } 
	</style>
	<g id="layer1">
		<g id="g135">
			<rect id="path12" class="s0" x="159.2" y=".9" width="118.6" height="118.6" rx="31"></rect>
			<rect id="path14" class="s1" x=".9" y="114.2" width="133.3" height="133.2" rx="34"></rect>
			<rect id="path16" class="s2" x="33.3" y="299.6" width="81" height="81" rx="21"></rect>
			<rect id="path18" class="s3" x="126.8" y="407.7" width="96.7" height="96.6" rx="25"></rect>
			<rect id="path20" class="s3" x="319.1" y="76.6" width="66.4" height="66.3" rx="17"></rect>
			<path id="path22" fill-rule="evenodd" class="s4" d="m1052.8 146.1c0-10 8.3-18.3 18.8-18.3 9.9 0 18.3 7.8 18.3 18.3 0 9.9-7.9 18.3-18.3 18.3-10.5 0-18.8-8.4-18.8-18.3zm-656.9 215.7c-2.6 4.2-7.3 6.3-12.5 6.3-2.6 0-6.3-0.6-8.4-2.1-4.2-2.6-6.8-7.9-6.8-13.1 0-2.6 0.6-5.2 2.1-7.3l42.9-67.4-42.9-67.4c-1.5-2.1-2.1-5.2-2.1-7.3 0-5.2 2.6-10.4 7.3-13 2.7-1.6 5.3-2.1 7.9-2.1 5.2 0 9.9 2.1 13 6.2l35.1 55.4 35.5-55.4c2.6-4.1 7.8-6.2 13.1-6.2 2.6 0 5.2 0.5 7.8 2.1 4.7 2.6 7.3 7.8 7.3 13 0 2.6-0.5 5.2-2.1 7.3l-42.8 67.4 42.8 67.4c1.6 2.1 2.1 4.7 2.1 7.3 0 5.2-2.6 11-6.8 13.1-2.6 1.5-5.7 2.1-8.3 2.1q-7.9 0-12.6-6.3l-35.5-54.9zm153.1-153c16.2-14.6 38.1-23.5 61.6-23.5 51.8 0 92.5 41.3 92.5 92.5 0 50.6-41.2 91.9-92.5 91.9-23.5 0-45.4-8.9-61.6-23.5v78.8c0 7.9-7.3 14.7-15.2 14.7-7.3 0-15.1-6.8-15.1-14.7v-223.5c0-7.8 7.3-14.6 15.1-14.6 8.4 0 15.2 6.8 15.2 14.6zm122.8 68.9c0-34-27.6-61.6-61.7-61.6-34.1 0-61.6 27.6-61.6 61.6 0 34.1 27.5 61.7 61.6 61.7 34.1 0 61.7-27.6 61.7-61.7zm293.1-16.7v92.5c0 7.8-7.3 14.6-15.1 14.6-8.4 0-15.2-6.8-15.2-14.6v-152c0-7.9 7.3-14.6 15.2-14.6 7.3 0 14.6 6.2 15.1 14.1 12.6-9.4 28.8-15.2 46-15.2 9.4 0 16.7 7.3 16.7 15.2 0 8.3-7.3 15.6-16.7 15.6-23.5 0.6-46 8.9-46 44.4zm121.8-59.5v152.5c0 7.8-7.8 14.6-15.2 14.6-7.8 0-15.1-6.8-15.1-14.6v-152.5c0-7.9 6.8-14.6 15.1-14.6 7.9 0 15.2 6.7 15.2 14.6zm179.2 0c0-7.9 7.3-14.6 15.2-14.6 7.3 0 15.1 6.7 15.1 14.6v152.5c0 7.8-7.3 14.6-15.1 14.6-8.4 0-15.2-6.8-15.2-14.6v-7.3c-16.7 14.6-38.1 23.5-61.6 23.5-51.8 0-92.5-41.3-92.5-92.5 0-50.6 41.3-91.9 92.5-91.9 23.5 0 44.9 8.9 61.6 23.5zm0 76.3c0-34.1-27.5-61.7-61.6-61.7-34.1 0-61.7 27.6-61.7 61.7 0 34.1 27.6 61.6 61.7 61.6 34.1 0 61.6-27.5 61.6-61.6zm185.5-14.7c0-25.5-21.9-47.5-47.5-47.5-24.6 0-47.6 9.9-47.6 46v92.4c0 7.9-7.3 14.7-15.1 14.7-8.4 0-15.2-6.8-15.2-14.7v-152.5c0-7.8 7.3-14.6 15.2-14.6 7.3 0 14.6 6.3 15.1 14.1 13.1-9.9 29.3-15.2 47.1-15.2 41.2 0 78.3 32.4 78.3 73.2v95c0 7.9-7.3 14.7-15.1 14.7-8.4 0-15.2-6.8-15.2-14.7zm-1103.6 26.1c-0.5 0.6-1 0.6-1.6 0.6-0.5 0-139.5 0-139.5 0 5.2 29.2 30.3 50.1 61.2 50.1 16.2 0 31.3-5.2 41.8-16.2 3.1-3.6 7.3-6.2 12-6.2 7.8 0 15.1 6.7 15.1 15.1 0 4.2-2.1 8.9-5.2 11.5-16.7 16.7-39.7 26.1-64.3 26.1-51.2 0-92.5-40.7-92.5-92.4 0-50.7 40.8-92 92.5-92 49.7 0 91.5 39.7 92 86.7 0 7.9-5.2 14.1-11.5 16.7zm-139.5-30.2h117.6c-7.9-25.1-30.9-42.9-58.6-42.9-28.2 0-51.2 17.8-59 42.9zm688.7 30.8c0 0-1.6 0-2.1 0-0.5 0-138.5 0-138.5 0 5.3 29.2 30.3 50.1 61.2 50.1 16.2 0 31.3-5.2 41.8-16.2 3.1-3.6 7.3-6.2 12-6.2 7.8 0 15.2 6.7 15.2 15.1 0 4.2-2.1 8.9-5.3 11.5-16.7 16.7-39.7 26.1-64.2 26.1-51.3 0-92.5-40.7-92.5-92.4 0-50.7 40.7-92 92.5-92 49.1 0 91.4 39.7 91.9 86.7 0 7.9-5.7 14.7-12 17.3zm-139-30.8h117.6c-7.9-25.1-30.8-42.9-58.5-42.9-28.3 0-51.3 17.8-59.1 42.9zm756.1 109.6c-1.5 0-2.6-1-2.6-2.6v-25.6h-5.7c-1.6 0-2.6-1-2.6-2.6 0-1.5 1-2.6 2.6-2.6h16.7c1.6 0 2.6 1.1 2.6 2.6 0 1.6-1 2.6-2.6 2.6h-5.7v25.6c0 1.6-1.1 2.6-2.7 2.6zm29.8 0c-1.5 0-2.1-1-2.6-2.1l-7.3-20.8v20.3c0 1.6-1 2.6-2.6 2.6-1.6 0-2.6-1-2.6-2.6v-27.1c0-2.1 1.5-3.7 3.6-3.7 1.6 0 3.2 1.1 3.7 2.6l7.3 21.4 7.3-21.4c0.5-1.5 2.1-2.6 3.7-2.6 2.1 0 3.6 1.6 3.6 3.7v27.1c0 1.6-1 2.6-2.6 2.6-1.5 0-2.6-1-2.6-2.6v-20.3c-1 3.1-2.6 8.3-4.2 12.5-2.6 8.3-3.1 8.3-3.1 8.3 0.5 1.6-0.5 2.1-1.6 2.1z"/>
		</g>
	</g>
</svg>