<svg version="1.2" xmlns="http://www.w3.org/2000/svg" viewBox="0 0 1563 250" width="1563" height="250">
	<title>express-logo-svg</title>
	<style>
		.s0 { fill: #1a1918 } 
	</style>
	<g id="Option-1-MVP">
		<g id="0.1_home">
			<g id="Express_logo">
				<path id="Fill-1" class="s0" d="m0 242.8v-236.1h174v45.8h-114.9v43.1h107.2v45.7h-107.2v55.7h124.8v45.8h-183.9"/>
				<path id="Fill-2" fill-rule="evenodd" class="s0" d="m291.9 115.8l-78-109.1h71.7l43.1 71.9 42.9-71.9h70.7l-77.8 109.1 90.8 127h-72.4l-54.5-88.2-56.1 88.2h-71.4zm181.6-109h117.2c63.7 0 87.3 33.1 87.3 79.9 0 31.5-17.6 79.9-98.6 79.9h-46.1v76.3h-59.8zm59 116.1h49.9c26.9 0 36.5-17.6 36.5-35.8 0-23.6-11.2-36.5-38.2-36.5h-48.2zm161.4-116.1h118.3c53.1 0 85.6 24.6 85.6 77.6 0 30.5-19.2 55.1-48.8 63.7l54.1 94.9h-66.1l-46.4-85h-37.6v85h-59.1zm59.1 107.4h54.2c18.9-0.4 31.5-10 31.5-31.8 0-21.9-12.6-31.5-31.5-31.9h-54.2zm168.3-107.4h174v45.7h-114.9v43.2h107.2v45.7h-107.2v55.7h124.8v45.8h-183.9zm243.8 165.5c20.6 18.6 40.2 29.5 68.4 29.5 15.6 0 44.2-6.6 44.2-27.2 0-11.9-9-17.9-26.6-20.9l-49.1-7.9c-43.9-7-67.8-30.2-67.8-65 0-57.1 46.2-80.6 96.6-80.6 39.2 0 77.7 15.9 104.3 45.4l-44.8 32.2c-15.6-18.9-38.5-29.8-63.4-29.8-13.6 0-33.6 8.6-33.6 23.8 0 12.6 10.3 18.9 32.9 22.6l22.6 3.6c47.1 7.6 86 22.2 86 67.3 0 71-64.1 84.3-108.3 84.3-40.1 0-74.4-12.9-106.6-48.1zm227.5 0c20.6 18.6 40.2 29.5 68.4 29.5 15.6 0 44.1-6.6 44.1-27.2 0-11.9-8.9-17.9-26.6-20.9l-49.1-7.9c-43.8-7-67.7-30.2-67.7-65 0-57.1 46.2-80.6 96.7-80.6 39.1 0 77.6 15.9 104.2 45.4l-44.9 32.2c-15.5-18.9-38.5-29.8-63.4-29.8-13.5 0-33.5 8.6-33.5 23.8 0 12.6 10.3 18.9 32.9 22.6l22.5 3.6c47.2 7.6 86.1 22.2 86.1 67.3 0 71-64.2 84.3-108.3 84.3-40.2 0-74.4-12.9-106.5-48.1z"/>
			</g>
		</g>
	</g>
</svg>