<svg version="1.2" xmlns="http://www.w3.org/2000/svg" viewBox="0 0 1545 458" width="1545" height="458">
	<title>Wilmar_International_Logo-svg</title>
	<defs>
		<clipPath clipPathUnits="userSpaceOnUse" id="cp1">
			<path d="m-2370.12-3110.63h6285.23v8884.7h-6285.23z"/>
		</clipPath>
	</defs>
	<style>
		.s0 { fill: #ffffff } 
		.s1 { fill: #60a4b0 } 
	</style>
	<g id="g10">
		<g id="g16">
			<g id="Clip-Path: g18" clip-path="url(#cp1)">
				<g id="g18">
					<g id="g24">
					</g>
					<g id="g28">
					</g>
					<g id="g32">
					</g>
					<g id="g36">
					</g>
					<g id="g40">
					</g>
					<g id="g44">
					</g>
					<g id="g48">
						<path id="path26" fill-rule="evenodd" class="s0" d="m452.6 340.7v17.2q0 26.3 0.6 49.6c0.5 15.5 1.4 30.4 2.9 44.8h-70.5c1.7-14.4 2.8-29.3 3.3-44.8q0.8-23.3 0.8-49.6v-17.2q0-26.3-0.8-49.3c-0.5-15.4-1.6-30.8-3.3-46.4h70.5q-2.2 23.3-2.9 46.4-0.6 23-0.6 49.3zm-5.5-185.2q10.8 9.9 10.8 24 0 14.2-10.8 24.1-10.8 9.9-26.3 9.8-15.4 0.1-26.2-9.8-10.8-9.9-10.8-24.1 0-14.1 10.8-24 10.8-9.9 26.2-9.9 15.5 0 26.3 9.9zm123.8 134.9v25.8q0 38.8 1 71.4 1 32.5 3.1 64.6h-70.5q1.7-32.1 2.6-64.6 0.9-32.6 0.9-71.4v-25.8q0-38.9-0.9-71.5-0.9-32.5-2.6-65.8h70.5q-2.1 33.3-3.1 65.8-1 32.6-1 71.5zm391.7 161.8l0.1 0.1h-70.5q3.3-22.5 4.3-53 0.9-30.5 0.9-69.8 0-27.3-9.9-40c-6.5-8.5-15.7-12.8-27.6-12.8q-11.3 0-18.6 4.8c-4.8 3.2-8.7 7.3-11.5 12.3-2.8 5.1-4.7 10.4-5.6 16.2-1 5.8-1.5 11.3-1.5 16.4v31.2q0.1 26.3 0.8 49.7c0.5 15.5 1.4 30.4 3 44.7l0.2 0.3h-70.6c1.6-14.4 2.6-29.4 3.1-45q0.7-23.4 0.7-49.7v-26.4q0-25.9-7-40.2c-4.8-9.5-13.7-14.3-26.8-14.3-14.1 0-24.4 5.6-31 16.9q-9.8 16.8-9.8 46.7v17.3q-0.1 26.3 0.6 49.7 0.7 23.3 3.1 45-0.1-0.1-0.2-0.1v0.1h-70.6q2.6-21.6 3.4-44.9 0.8-23.3 0.8-49.7v-17.2q0-26.4-0.8-49.5-0.8-23.1-3.4-46.4h68.2l-2.1 32.4h1q13.1-18.1 30.7-28 17.6-10 40.1-10 21.1 0 36.4 10.6c10.2 7.1 18.1 17.2 23.7 30.4 9.4-13.2 20.3-23.3 32.8-30.4 12.5-7 25.8-10.6 39.9-10.6q35.2 0 54.2 18.8 19 18.8 19 60.7-0.1 21.9-0.9 38.8-0.9 16.8-0.9 33.7c0 9.2 0.3 19.2 0.7 30 0.5 10.7 1 21.1 1.6 31.2zm257.6-15c4.7 5.8-6.2 10.1-6.2 10.1-9.1 3.4-16.8 6-23.1 7.8q-9.3 2.5-20.1 2.5-17.4 0-28.1-7.7-10.8-7.8-16.4-22.4-10.9 13.8-25.4 21.9-14.5 8.2-36.3 8.2-17.8 0-30.5-4.3-12.6-4.3-20.8-12.2-8.2-8-12-18.2c-2.5-6.7-3.7-13.6-3.7-20.5q0-14.2 4.9-24.5 4.9-10.4 14.1-17.7 9.2-7.3 21.8-12.3 12.8-5 28.7-8.4 19.8-4.4 31.3-7.6c7.7-2.1 13.4-4.3 17.2-6.4 3.8-2.2 6.2-4.6 7.3-7.2q1.6-3.8 1.6-9.4 0-5.2-1.4-9.8c-3.6-8.5-14.7-17-40.4-14.2-36.4 3.9-67.9 36.4-67.9 36.4l-4-20.4c-1.9-5.1-5-25.5-5-25.5 13.1-9.8 35.1-23.5 50.3-28.6 15.2-5.2 30.3-7.8 45.4-7.8 12.5 0 28.1 1.3 38.6 3.9q15.7 3.9 27.2 12.3c7.7 5.6 13.6 12.9 17.8 21.8 4.3 8.9 6.4 19.7 6.4 32.3q0 27.6-0.6 51.1c-0.4 15.7-0.6 31.3-0.6 46.8 0 6.9 0.6 12.3 1.7 16.2 1 3.8 2.7 6.8 4.9 8.8 2.2 2 5.1 3.3 8.7 3.9 8.2 1.2 12.4-1.7 14.6 1.1zm-94.5-96c-6.6 3.4-13.6 6.3-21 8.4-7.4 2.2-14.2 4.9-20.3 8.2q-9.2 5-15.1 13.6c-3.9 5.7-5.9 14.1-5.9 25 0 10.6 2.4 18.7 7.3 24.3q7.3 8.4 19.5 8.4 15.6 0 25.2-10.8c6.5-7.1 9.7-17.8 9.7-31.8q0-18.6 0.3-28.3 0.3-9.7 0.3-17zm260.5-86.3c-0.4 4.8-0.9 9-1.2 16.9l0.2 12.5c0 2.3 0.4 6.1 0.4 8.7 0 2.6 0.3 3.8 0.4 7.3 0.2 4.4-4.2 3.4-4.2 3.4q-4.7-2.5-10.6-4.2-5.9-1.8-13.4-1.8-21.2 0-33.4 12.8-12.2 12.7-12.2 30v17.2c0 17.6 0.2 34.1 0.7 49.7 0.4 15.5 1.5 30.5 3 44.9h-70.1c1.2-14.4 2-29.4 2.3-44.8q0.6-23.3 0.6-49.6v-17.3q0-26.2-0.6-49.3c-0.3-15.4-1.1-30.9-2.3-46.4h64.3l-1.5 52.6 1.1 0.9c8.2-19.8 18.2-34.4 29.7-43.8q17.4-14 41.4-14c1.6 0 6.3 0.6 7.6 0.6q-1.5 6.4-2.2 13.7zm-1033.2-10q-3.3 5.7-9 18.6-5.6 12.9-12.4 30.6-6.9 17.7-14.6 38.6-7.8 20.9-15.3 42-7.5 21.1-14.8 41.4-7.3 20.2-12.9 36.1h-52.2c-3.8-10.9-7.7-22.6-11.8-35.1q-6.1-18.7-12.2-37-6.1-18.4-11.8-35.8-5.6-17.4-10.3-32.5h-0.9q-12.3 36.2-24.3 71.1c-7.9 23.2-15.6 46.4-22.7 69.3h-54.6c-3.5-10.6-7.4-22.9-12-36.8q-6.8-20.9-14.3-42.4c-5.1-14.4-10.1-28.6-15.1-42.7-5-14.1-9.6-26.9-13.8-38.6-4.1-11.1-7.6-20.7-10.6-28.7l-7.1-18.1h71q11.3 37.6 23.5 77c4.1 13.2 8.1 25.9 12 38l33.7-115h78.5q11.3 38 23 74.6c4.4 13.8 9 27.8 13.6 41.8l34.1-116.4z"/>
					</g>
				</g>
			</g>
		</g>
		<g id="g52">
			<path id="path54" class="s1" d="m1305.1 0.5l-318.3 200-318.3-200h128.6l189.7 114.9 189.8-114.9z"/>
		</g>
		<g id="g56">
			<path id="path58" class="s0" d="m1544.7 0.5l-318.4 200-318.3-200h128.6l189.7 114.9 189.8-114.9z"/>
		</g>
	</g>
</svg>