<svg version="1.2" xmlns="http://www.w3.org/2000/svg" viewBox="0 0 1686 262" width="1686" height="262">
	<title>FA_BIG</title>
	<style>
		.s0 { fill: #ffffff } 
	</style>
	<path id="Layer" class="s0" d="m107.7 137.6c0.7-1.3 1.8-2.4 3.2-2.9 1.4-0.6 3-0.6 4.4 0 1.4 0.6 2.5 1.7 3.1 3.1 0.6 1.4 0.7 3 0.1 4.4-2.3 5.5-3.7 11.3-4.2 17.3-0.4 5.9 0 11.9 1.5 17.7 1.4 5.8 3.7 11.3 6.9 16.3 3.2 5.1 7.1 9.6 11.7 13.4 1.3 0.9 2.1 2.4 2.3 4 0.2 1.6-0.2 3.2-1.3 4.4-1 1.3-2.5 2-4 2.2-1.6 0.1-3.2-0.4-4.4-1.5-5.6-4.6-10.4-10-14.2-16.2q-5.9-9.1-8.4-19.8c-1.8-7-2.4-14.2-1.8-21.4 0.6-7.2 2.3-14.3 5.1-20.9zm85.6 89.3c-1.5 0.5-3 0.4-4.4-0.2-1.4-0.7-2.4-1.9-3-3.3-0.5-1.4-0.5-3 0.1-4.4 0.6-1.4 1.8-2.5 3.2-3.1q1.2-0.5 2.5-1 1.2-0.5 2.4-1.1 1.2-0.6 2.4-1.3 1.2-0.6 2.3-1.3 1.2-0.7 2.3-1.5 1.1-0.8 2.2-1.6 1-0.8 2.1-1.7 1-0.8 2-1.8c1.1-1 2.6-1.6 4.2-1.5 1.5 0.1 3 0.7 4.1 1.9 1 1.1 1.6 2.6 1.5 4.2 0 1.6-0.7 3-1.9 4.1q-1.2 1.1-2.4 2.1-1.3 1.1-2.6 2.1-1.2 1-2.6 1.9-1.3 0.9-2.7 1.8-1.4 0.8-2.9 1.6-1.4 0.8-2.9 1.5-1.4 0.7-2.9 1.4-1.5 0.6-3.1 1.2zm54.4-90.3c-0.2 1.5-1 2.9-2.2 3.9-1.3 1-2.8 1.4-4.4 1.2-1.5-0.2-2.9-1-3.9-2.2-1-1.2-1.4-2.8-1.2-4.4q0.3-2.3 0.4-3.3c0.1-0.8 0.2-1.9 0.3-3.4 0.2-1.5 1-2.9 2.2-3.9 1.2-0.9 2.7-1.4 4.2-1.2 1.5 0.1 2.9 0.8 3.9 2 1 1.1 1.5 2.6 1.5 4.1q-0.2 1.3-0.4 3.7-0.3 2.4-0.5 3.6zm-94.8-67.1c-0.7-1.4-0.8-3-0.3-4.4 0.5-1.5 1.5-2.7 2.8-3.4 1.4-0.7 3-0.9 4.4-0.5 1.5 0.5 2.7 1.4 3.5 2.7l1.2 2.3q0.7 1.4 1.1 2.3c0.6 1.4 0.6 3 0 4.4-0.5 1.4-1.6 2.5-2.9 3.2-1.4 0.6-3 0.7-4.4 0.2-1.5-0.4-2.6-1.4-3.4-2.8q-0.6-1.3-0.9-2zm9.1 25.5c-0.3-1.5 0.1-3.1 0.9-4.4 0.9-1.3 2.2-2.2 3.8-2.5 1.5-0.3 3.1 0 4.4 0.9 1.3 0.9 2.2 2.2 2.5 3.8q1.7 8.6 1.9 17.3 0.3 8.8-0.9 17.5-1.2 8.7-3.9 17-2.6 8.4-6.6 16.2c-0.6 1.1-0.8 2.4-0.7 3.6 0.1 1.3 0.7 2.5 1.5 3.4 0.8 1 1.9 1.7 3.1 2.1 1.2 0.3 2.5 0.3 3.7-0.1q0.6-0.2 1.2-0.5 0.5-0.3 1-0.7 0.5-0.4 0.9-0.9 0.3-0.5 0.6-1.1 0.8-1.4 1.5-2.9 0.7-1.5 1.4-3.1 0.7-1.5 1.3-3 0.6-1.5 1.2-3.1 0.6-1.5 1.1-3.1 0.6-1.6 1.1-3.1 0.5-1.6 0.9-3.2 0.5-1.6 0.9-3.2c0.5-1.3 1.5-2.5 2.7-3.2 1.3-0.7 2.8-0.9 4.3-0.5 1.4 0.3 2.6 1.2 3.4 2.4 0.9 1.3 1.2 2.7 1 4.2q-0.9 3.5-2 7-1.1 3.5-2.4 6.9-1.3 3.4-2.8 6.7-1.5 3.3-3.1 6.6c-2.4 3.9-6.2 6.9-10.6 8.1-4.4 1.3-9.2 0.9-13.3-1.2-4.1-2.1-7.3-5.7-8.8-10.1-1.6-4.3-1.4-9.1 0.4-13.3q3.6-7 5.9-14.4 2.4-7.4 3.5-15.1 1-7.7 0.8-15.5-0.2-7.8-1.8-15.4zm-108.8 124.5c0.6 1.4 0.7 3 0.1 4.4-0.5 1.4-1.6 2.6-2.9 3.3-1.4 0.6-3 0.7-4.4 0.2-1.5-0.4-2.7-1.5-3.4-2.8q-2-4.2-3.7-8.5-1.7-4.3-3.1-8.7-1.4-4.4-2.6-8.8-1.1-4.5-2-9.1c-0.4-1.5-0.1-3.2 0.7-4.6 0.9-1.4 2.3-2.4 3.9-2.7 1.6-0.3 3.3 0.1 4.6 1.1 1.3 1 2.2 2.5 2.3 4.1q0.8 4.2 1.9 8.3 1 4.1 2.3 8.1 1.3 4 2.9 7.9 1.6 4 3.4 7.8zm-12.7-55.9c0 1.6-0.6 3.1-1.7 4.2-1.1 1.1-2.6 1.7-4.1 1.7-1.6 0-3.1-0.6-4.2-1.7-1.1-1.1-1.7-2.6-1.7-4.2q0-5.5 0.4-11 0.5-5.6 1.3-11.1 0.9-5.5 2.2-10.9 1.3-5.4 3-10.6c0.5-1.5 1.6-2.7 3-3.4 1.4-0.7 3-0.9 4.5-0.4 1.4 0.5 2.7 1.6 3.4 3 0.7 1.4 0.8 3 0.3 4.5q-0.8 2.4-1.5 4.8-0.7 2.5-1.3 4.9-0.6 2.5-1.1 5-0.5 2.5-0.9 5-0.4 2.5-0.7 5-0.3 2.6-0.5 5.1-0.2 2.5-0.3 5.1-0.1 2.5-0.1 5.1zm127.3 80.2c1.5 0 3 0.7 4.1 1.8 1.1 1.1 1.7 2.7 1.6 4.2 0 1.6-0.6 3.1-1.8 4.1-1.1 1.1-2.6 1.7-4.2 1.7q-1.5 0-3.1-0.2c-1.1 0-2.1-0.1-3.1-0.2-1.5-0.2-2.9-1-3.9-2.1-0.9-1.2-1.4-2.7-1.2-4.3 0.1-1.5 0.8-2.9 2-3.9 1.1-1 2.6-1.5 4.1-1.4l2.8 0.2c0.9 0 1.8 0.1 2.7 0.1zm44.2-146.7c-0.2-1.6 0.2-3.2 1.2-4.4 1-1.2 2.4-2 3.9-2.2 1.6-0.2 3.1 0.2 4.4 1.2 1.2 1 2 2.4 2.2 3.9q0.4 4.2 0.7 8.3 0.2 4.1 0.3 8.3 0 4.1-0.2 8.2-0.2 4.2-0.6 8.3-0.5 4.1-1.1 8.2-0.6 4.1-1.5 8.1-0.9 4.1-1.9 8.1-1.1 4-2.4 7.9c-0.5 1.4-1.6 2.6-3 3.3-1.4 0.6-2.9 0.7-4.4 0.3-1.4-0.5-2.7-1.5-3.4-2.9-0.7-1.4-0.8-2.9-0.4-4.4q2.4-7.3 4-14.7 1.6-7.5 2.4-15.1 0.8-7.6 0.7-15.3 0-7.6-0.9-15.2zm-63.8-54.5c1 1.2 1.5 2.7 1.4 4.2-0.1 1.6-0.8 3-1.9 4-1.1 1-2.6 1.6-4.1 1.5-1.5 0-3-0.6-4.1-1.7q-1.3-1.5-2.8-3-1.4-1.4-2.9-2.8-1.5-1.4-3.1-2.7-1.6-1.3-3.2-2.5-1.6-1.3-3.3-2.5-1.7-1.1-3.4-2.2-1.7-1.1-3.5-2.1-1.8-1-3.6-2-1.2-0.6-2.3-1.1-1.2-0.6-2.4-1.1-1.2-0.5-2.3-1-1.2-0.5-2.4-1-1.2-0.4-2.5-0.9-1.2-0.4-2.4-0.8-1.2-0.4-2.4-0.7-1.3-0.4-2.5-0.7c-1.5-0.4-2.8-1.4-3.6-2.7-0.8-1.4-1-3-0.6-4.5 0.4-1.5 1.3-2.8 2.7-3.6 1.3-0.8 2.9-1 4.4-0.6q1.4 0.4 2.8 0.8 1.4 0.3 2.8 0.8 1.4 0.4 2.7 0.9 1.4 0.5 2.7 1 3.6 1.3 7 2.9 3.4 1.6 6.7 3.5 3.3 1.8 6.4 3.9 3.2 2 6.1 4.3 1.9 1.4 3.6 2.9 1.8 1.5 3.5 3 1.7 1.6 3.3 3.2 1.7 1.6 3.2 3.3zm-90.7 17.2c1.5-0.3 3 0 4.3 0.8 1.3 0.8 2.2 2 2.6 3.5 0.3 1.5 0.2 3-0.6 4.3-0.7 1.4-1.9 2.3-3.3 2.8q-3 0.8-5.9 2-2.8 1.2-5.5 2.8-2.6 1.6-5 3.5-2.4 2-4.5 4.3c-1 1.2-2.5 2-4.1 2.1-1.6 0.1-3.2-0.5-4.4-1.6-1.2-1.1-1.8-2.6-1.9-4.2 0-1.6 0.6-3.1 1.8-4.3q1.3-1.4 2.7-2.8 1.4-1.3 2.9-2.6 1.6-1.2 3.2-2.4 1.6-1.1 3.3-2.1 1.6-1.1 3.4-2 1.7-0.8 3.6-1.6 1.8-0.8 3.6-1.4 1.9-0.7 3.8-1.2zm-45.9 152.6c-0.4-1.5-0.2-3 0.5-4.4 0.7-1.3 2-2.3 3.4-2.8 1.5-0.4 3.1-0.3 4.4 0.4 1.4 0.7 2.4 1.9 2.9 3.3l0.8 2.6q0.2 0.4 0.9 2.6c0.5 1.4 0.3 3-0.4 4.4-0.7 1.4-1.9 2.4-3.3 2.9-1.4 0.5-3 0.4-4.4-0.2-1.4-0.7-2.5-1.8-3-3.3l-0.9-2.7q-0.7-2-0.9-2.8zm59.3 32.2c1 1.2 1.5 2.7 1.3 4.3-0.1 1.5-0.8 3-2 4-1.2 1-2.8 1.5-4.3 1.3-1.6-0.1-3-0.8-4-2-1.2-1.4-2.3-2.9-3.4-4.2-1.1-1.3-2-2.7-3.2-4.3-0.9-1.2-1.3-2.8-1-4.4 0.3-1.5 1.1-2.9 2.4-3.8 1.2-0.9 2.8-1.2 4.3-1 1.6 0.3 3 1.1 3.9 2.4q1.2 1.8 2.9 3.9 1.7 2.1 3.1 3.8zm128.9-123.7c0 1.5-0.7 3-1.9 4-1.2 1.1-2.7 1.6-4.2 1.5-1.6-0.1-3-0.8-4.1-1.9-1-1.2-1.6-2.7-1.5-4.3 0.5-8.4 0-16.8-1.4-25.2-1.4-8.3-3.6-16.4-6.7-24.3-3.1-7.8-7.1-15.3-11.8-22.3-4.7-7-10.2-13.5-16.3-19.3-1.1-1.1-1.9-2.6-1.9-4.2-0.1-1.5 0.5-3.1 1.6-4.3 1.1-1.1 2.6-1.8 4.2-1.8 1.6 0 3.1 0.6 4.2 1.8 6.8 6.4 12.8 13.5 18 21.2 5.1 7.7 9.5 15.9 12.9 24.5 3.4 8.7 5.9 17.6 7.4 26.8 1.5 9.2 2 18.5 1.5 27.7zm-53 107.5c-1.5-0.5-2.7-1.6-3.3-3-0.7-1.4-0.8-3-0.2-4.5 0.5-1.5 1.6-2.7 3-3.3 1.4-0.7 3-0.8 4.5-0.2q2 0.7 4 1.3 2.1 0.6 4.2 1 2.1 0.4 4.2 0.6 2.1 0.3 4.2 0.3c1.6 0.1 3 0.8 4.1 1.9 1 1.2 1.6 2.7 1.6 4.3-0.1 1.5-0.8 3-1.9 4-1.2 1.1-2.7 1.7-4.2 1.6q-1.3 0-2.6-0.1-1.3-0.1-2.6-0.3-1.3-0.2-2.5-0.4-1.3-0.2-2.6-0.4-1.2-0.2-2.5-0.5-1.3-0.3-2.5-0.7-1.3-0.3-2.5-0.7-1.2-0.4-2.4-0.9zm-92-121.5c-0.7 1.4-2 2.5-3.5 2.9-1.4 0.5-3 0.4-4.4-0.3-1.4-0.7-2.5-2-2.9-3.5-0.5-1.4-0.4-3.1 0.3-4.4 3.7-7.2 10.1-12.5 17.8-15 7.6-2.4 15.9-1.7 23.1 2 7.1 3.6 12.5 10 15 17.6 2.5 7.7 1.9 16-1.8 23.2q-0.8 1.7-1.6 3.4-0.8 1.7-1.5 3.5-0.7 1.7-1.3 3.5-0.6 1.8-1.2 3.6-0.5 1.8-0.9 3.6-0.5 1.8-0.8 3.7-0.4 1.8-0.6 3.7-0.3 1.8-0.5 3.7c-0.2 1.5-0.9 2.9-2.1 3.9-1.2 1-2.8 1.5-4.3 1.3-1.5-0.1-3-0.9-4-2.1-0.9-1.2-1.4-2.7-1.3-4.3q0.2-2.1 0.5-4.2 0.4-2.2 0.8-4.3 0.4-2.1 0.9-4.2 0.5-2.1 1.1-4.2 0.6-2 1.3-4.1 0.7-2 1.5-4 0.8-2 1.7-4 0.9-2 1.9-3.9c2.4-4.4 2.9-9.6 1.5-14.5-1.5-4.8-4.9-8.8-9.4-11.1-4.4-2.3-9.7-2.7-14.4-1.1-4.8 1.6-8.7 5.1-10.9 9.6zm86.8-103.7c1.4 0.8 2.4 2.1 2.8 3.7 0.4 1.6 0.1 3.2-0.8 4.6-0.9 1.3-2.3 2.2-3.9 2.5-1.5 0.3-3.2 0-4.5-1l-1.6-1-1.7-1.1c-1.3-0.8-2.1-2.1-2.5-3.6-0.3-1.4-0.1-3 0.7-4.3 0.8-1.3 2-2.2 3.5-2.6 1.5-0.4 3-0.3 4.4 0.5q0.7 0.4 1.8 1.1 0.8 0.5 1.8 1.2zm-13.8 167c-0.4-1.5-0.2-3.2 0.6-4.6 0.9-1.5 2.3-2.4 3.9-2.8 1.6-0.3 3.3 0.1 4.6 1 1.3 1 2.2 2.5 2.4 4.1q0.3 1.7 0.9 3.4 0.5 1.6 1.2 3.2 0.7 1.6 1.6 3.1 0.9 1.5 2 2.9c3.1 4.1 7.3 7.4 12.1 9.6 4.8 2.1 10 2.9 15.2 2.5 5.2-0.5 10.2-2.2 14.6-5.2 4.3-2.9 7.8-6.9 10.2-11.5 0.7-1.4 2-2.5 3.5-2.9 1.4-0.5 3.1-0.4 4.4 0.3 1.4 0.7 2.5 2 2.9 3.4 0.5 1.5 0.4 3.1-0.3 4.5-3.3 6.5-8.2 12-14.2 16-5.9 4.1-12.9 6.5-20.1 7.2-7.2 0.6-14.4-0.6-21-3.6-6.6-2.9-12.3-7.5-16.7-13.2q-1.4-2-2.7-4-1.2-2.1-2.2-4.3-1-2.2-1.7-4.4-0.7-2.3-1.2-4.7zm-116.7-90.1c-0.7 1.4-1.9 2.4-3.4 2.9-1.5 0.5-3.1 0.3-4.5-0.4-1.4-0.7-2.4-1.9-2.9-3.4-0.5-1.5-0.4-3.1 0.4-4.5q1.2-2.4 2.6-4.7 1.4-2.4 2.9-4.5c0.9-1.3 2.3-2.1 3.8-2.4 1.5-0.3 3.1 0.1 4.4 0.9 1.2 0.9 2.1 2.3 2.4 3.8 0.3 1.6-0.1 3.2-1 4.4q-1.3 2-2.5 3.9c-0.7 1.2-1.5 2.6-2.2 4zm-5.6 60.9c0.1-1.6 0.9-3 2.2-4 1.2-0.9 2.7-1.3 4.3-1.2 1.5 0.2 2.9 1 3.9 2.3 1 1.2 1.4 2.7 1.2 4.3q-0.3 2.5-0.5 5-0.3 2.4-0.4 4.9-0.2 2.5-0.2 5-0.1 2.5-0.1 5 0 2.5 0.1 5 0.1 2.5 0.3 5 0.2 2.5 0.4 5 0.3 2.5 0.6 5c0.2 1.5-0.2 3.1-1.1 4.3-1 1.3-2.3 2.1-3.9 2.3-1.5 0.2-3.1-0.2-4.3-1.1-1.3-1-2.1-2.4-2.3-3.9q-0.7-5.4-1.1-10.7-0.4-5.4-0.4-10.8 0-5.4 0.3-10.7 0.3-5.4 1-10.7zm136.5 96c1.5 0.5 2.7 1.6 3.3 3 0.7 1.4 0.7 3.1 0.2 4.5-0.6 1.5-1.7 2.7-3.1 3.3-1.4 0.7-3 0.7-4.5 0.2q-2.7-1-5.1-2.1-2.5-1.1-5.1-2.4c-5.7-2.9-11-6.4-16-10.4-4.9-4.1-9.4-8.6-13.5-13.6-4-4.9-7.4-10.3-10.3-16-2.9-5.7-5.2-11.7-6.9-17.8q-0.5-1.8-1-4.3-0.5-2.1-0.8-4.3c-0.4-1.5-0.1-3.2 0.8-4.5 0.9-1.4 2.3-2.3 3.9-2.5 1.6-0.3 3.2 0.1 4.5 1 1.3 1 2.1 2.4 2.3 4q0.3 1.9 0.8 3.8 0.3 1.5 0.9 3.7c1.4 5.4 3.4 10.6 5.9 15.5 2.6 5 5.6 9.7 9.1 14 3.5 4.3 7.4 8.3 11.7 11.8 4.3 3.5 9 6.6 14 9.1 1.4 0.7 2.8 1.4 4.4 2.1q2.4 1 4.5 1.8zm-34.2-183.1c-1.3-0.9-2.2-2.2-2.6-3.7-0.3-1.6 0-3.2 0.8-4.5 0.8-1.3 2.1-2.2 3.7-2.6 1.5-0.3 3.1 0 4.4 0.8 8.3 5.3 15.5 12.1 21.3 20 5.9 7.9 10.2 16.9 12.7 26.4 2.6 9.5 3.4 19.4 2.4 29.2-1.1 9.7-3.9 19.3-8.4 28-0.7 1.4-1.9 2.5-3.4 2.9-1.5 0.5-3.1 0.4-4.5-0.3-1.4-0.7-2.4-2-2.9-3.5-0.5-1.4-0.3-3.1 0.4-4.4 3.8-7.5 6.2-15.6 7.1-24 0.8-8.3 0.2-16.7-2-24.8-2.2-8.1-5.9-15.7-10.8-22.5-5-6.7-11.1-12.5-18.2-17zm-74.7 5.5c-1.3 0.9-2.9 1.2-4.4 0.9-1.5-0.3-2.9-1.2-3.8-2.5-0.8-1.2-1.2-2.8-0.9-4.4 0.3-1.5 1.2-2.9 2.5-3.7 4.6-3.2 9.6-5.9 14.7-8 5.2-2.1 10.6-3.7 16.1-4.7q8.4-1.5 16.8-1.2c5.6 0.2 11.1 1 16.6 2.3 1.6 0.3 3 1.3 3.8 2.6 0.9 1.4 1.2 3.1 0.8 4.6-0.4 1.6-1.4 2.9-2.8 3.7-1.5 0.8-3.1 1-4.7 0.5-4.6-1.1-9.3-1.8-14.1-2-4.8-0.1-9.6 0.2-14.3 1.1-4.7 0.8-9.3 2.2-13.7 4-4.4 1.8-8.6 4.1-12.6 6.8zm158.8-18.1c-0.8-1.3-1.1-2.9-0.7-4.5 0.3-1.5 1.3-2.8 2.6-3.6 1.4-0.8 3-1.1 4.5-0.7 1.5 0.4 2.8 1.3 3.6 2.7q1.3 2.1 2.5 4.3 1.3 2.1 2.4 4.3 1.2 2.2 2.3 4.5 1.1 2.2 2.1 4.5 1 2.3 1.9 4.6 1 2.3 1.8 4.6 0.9 2.4 1.7 4.7 0.8 2.4 1.5 4.8c0.5 1.5 0.4 3.2-0.4 4.6-0.7 1.4-2 2.4-3.5 2.9-1.5 0.4-3.2 0.3-4.6-0.5-1.3-0.8-2.4-2.1-2.8-3.6q-0.6-2.2-1.4-4.4-0.7-2.2-1.5-4.4-0.8-2.1-1.6-4.3-0.9-2.1-1.8-4.2-1-2.1-2-4.2-1-2.1-2.1-4.1-1-2-2.2-4-1.1-2-2.3-4zm-173.8 58.2c0.6-1.5 1.7-2.6 3.2-3.2 1.5-0.7 3.2-0.6 4.6 0 1.5 0.7 2.6 1.9 3.2 3.4 0.5 1.5 0.4 3.1-0.3 4.6q-1.6 3.8-3.2 7.9-1.5 4.1-2.8 8c-0.3 1.7-1.3 3.1-2.7 4-1.4 0.9-3.2 1.1-4.8 0.6-1.6-0.5-2.9-1.7-3.6-3.2-0.7-1.5-0.7-3.3 0-4.8q1.4-4.5 2.9-8.7 1.6-4.3 3.5-8.6zm56.6-88.3c1.6 0 3.1 0.7 4.1 1.8 1.1 1.2 1.7 2.7 1.6 4.3 0 1.5-0.7 3-1.8 4.1-1.2 1-2.7 1.6-4.2 1.6h-1.9-1.8c-1.6 0-3.1-0.6-4.2-1.7-1.1-1.1-1.8-2.6-1.8-4.1 0-1.6 0.6-3.1 1.7-4.2 1.1-1.2 2.6-1.8 4.1-1.8h2.1zm156.1 183c-0.7 1.4-2 2.5-3.4 3-1.5 0.5-3.1 0.4-4.5-0.3-1.4-0.7-2.5-1.9-3-3.4-0.5-1.5-0.4-3.1 0.3-4.5q3.4-6.8 6.1-13.9 2.7-7 4.8-14.2c0.4-1.5 1.4-2.8 2.8-3.5 1.3-0.8 2.9-1 4.4-0.6 1.5 0.4 2.8 1.4 3.6 2.8 0.7 1.4 0.9 3 0.5 4.5q-2.2 7.6-5.1 15.3-2.9 7.5-6.5 14.9zm-151.5-121.3c-1.5-0.3-2.9-1.2-3.8-2.5-0.8-1.3-1.2-2.9-0.9-4.4 0.3-1.6 1.2-2.9 2.5-3.8 1.3-0.9 2.8-1.2 4.4-1q1 0.2 1.9 0.4 1 0.3 2 0.5 0.9 0.3 1.9 0.6 0.9 0.2 1.9 0.6 0.9 0.3 1.9 0.6 0.9 0.4 1.8 0.8 0.9 0.4 1.8 0.8 0.9 0.4 1.8 0.9c4.7 2.4 9.1 5.5 12.9 9.2 3.8 3.7 7.1 7.9 9.7 12.5 2.7 4.6 4.6 9.6 5.8 14.7 1.2 5.2 1.7 10.5 1.4 15.8-0.2 1.6-0.9 3-2.1 4-1.1 0.9-2.6 1.4-4.1 1.4-1.5-0.1-3-0.8-4-1.9-1-1.1-1.6-2.6-1.6-4.1 0.3-4.7-0.2-9.4-1.4-14-1.2-4.5-3.2-8.8-5.8-12.7-2.7-3.9-5.9-7.4-9.6-10.2-3.7-2.9-7.9-5.1-12.4-6.6q-0.7-0.3-1.4-0.5-0.8-0.3-1.5-0.5-0.8-0.2-1.6-0.3-0.7-0.2-1.5-0.3zm-13.1 39.9c0.7-1.4 1.9-2.5 3.4-2.9 1.5-0.5 3.1-0.4 4.5 0.4 1.4 0.7 2.4 1.9 2.9 3.4 0.4 1.5 0.3 3.1-0.4 4.5-5.4 10.5-9 21.8-10.6 33.5-1.6 11.7-1.2 23.6 1.1 35.2 2.4 11.6 6.6 22.7 12.7 32.8 6 10.2 13.7 19.2 22.7 26.8 1.2 1 2 2.4 2.1 4 0.2 1.5-0.3 3.1-1.3 4.3-1 1.2-2.5 1.9-4 2.1-1.6 0.1-3.1-0.4-4.3-1.4-10.1-8.4-18.6-18.5-25.3-29.8-6.7-11.3-11.5-23.6-14.1-36.5-2.6-12.9-3-26.1-1.2-39.1 1.8-13 5.8-25.7 11.8-37.3z"/>
	<path id="Layer" fill-rule="evenodd" class="s0" d="m297.3 213v-163.3h104.1v23.4h-79.4v48.2h67.7v22h-67.7v69.8zm120.1-139.9v-23.4h23.3v23.4zm0 139.9v-116.3h23.3v116.3zm43.5 0v-116.3h23.4v12.4q11-13.7 30.4-13.7 3.3 0 6.6 0.6 3.3 0.6 6.4 1.7 3.1 1.2 6 2.8 2.9 1.7 5.5 3.8l-17 20.1q-1.6-1.3-3.4-2.3-1.8-1-3.7-1.8-2-0.7-4.1-1.1-2-0.4-4.1-0.4-2.1-0.1-4.2 0.2-2.1 0.3-4.2 1.1-2 0.7-3.8 1.8-1.8 1.1-3.4 2.5-7.1 6.7-7.1 18.6v69.9zm71.8-19.5l16.3-16q3.6 3.6 7.8 6.4 4.3 2.8 9 4.7 4.7 2 9.7 2.9 5 0.9 10.1 0.9 22.9 0 22.9-14.9 0-10.1-14.2-11.4l-20.6-1.9q-14.9-1.4-23.8-9.6-9.6-8.9-9.6-23.4 0-17.2 12.3-26.8 11.7-9 31-9 26.7 0 45.4 15.8l-14.3 17q-15.4-10.8-31.1-10.8-19.9 0-19.9 14 0 9.8 15.3 11l19.2 1.4q33.7 2.5 33.7 34.9 0.1 3.8-0.8 7.6-0.9 3.8-2.7 7.2-1.8 3.4-4.4 6.3-2.5 2.9-5.8 5-13.6 9.6-34.4 9.6-28.9 0-51.1-20.9zm119.5-96.8v-35.3h23.4v35.3h16.9v17.9h-16.9v67.7q0 8.7 8.2 8.7h8.7v22h-12.1q-12.6 0-20.4-7.6-7.8-7.5-7.8-21.1v-69.7h-11.7v-17.9zm206 116.3l-12.6-36.4h-61.7l-12.6 36.4h-26.1l59.3-163.3h20.6l59.3 163.3zm-67.3-58.5h47.6l-23.6-71.3h-0.5zm167.3 58.5v-12.2q-2.8 3.3-6.2 5.8-3.4 2.6-7.3 4.3-3.9 1.8-8 2.6-4.2 0.9-8.5 0.9-23.8 0-34.3-20.2-5-9.4-5-39.4 0-17.7 0.7-23 1.4-13.5 7.5-21.3 11.7-15.1 31.1-15.1 15.6 0 30 13.7v-59.4h23.4v163.3zm-22.9-94.3q-14.6 0-19.7 11.3-3.4 7.6-3.4 24.8 0 17.4 3.4 24.9 5 11.3 19.7 11.3 14.4 0 19.7-11.7 3.2-7.6 3.2-24.5 0-17-3.2-24.4-5.3-11.6-19.7-11.7zm100 94.3l-42.6-116.3h24.7l27.2 81.4h0.5l27.2-81.4h24.8l-42.7 116.3zm132.1 0v-10.3q-7.1 11.7-28.8 11.7-19.2 0-30.4-10.3-10.9-9.7-10.9-25.3 0-14.7 9.6-24 10.3-10.4 28.2-10.4h32.3v-12.1q0-8.3-5.5-11.6-5.5-3.3-18.3-3.3-16.5 0-22 8.9l-18.3-14q12.1-16.9 39.1-16.9 48.3 0 48.3 38.3v79.3zm0-40.8v-8.5h-27.9q-20.1 0-20.1 13.9 0 14.7 22 14.7 14.6 0 19-2.5 7.1-3.8 7-17.6zm42.6 40.8v-116.2h23.4v12.3q11-13.7 30.4-13.7 3.6 0 7.2 0.6 3.5 0.7 6.9 2 3.4 1.4 6.4 3.3 3.1 1.9 5.7 4.4 12.7 11.5 12.7 30.1v77.3h-23.3v-69.3q0-11.6-6.4-18.3-1.6-1.7-3.5-3-1.9-1.2-4.1-2.1-2.1-0.9-4.4-1.3-2.2-0.4-4.5-0.3-2.3-0.1-4.6 0.3-2.3 0.4-4.5 1.2-2.1 0.9-4.1 2.2-1.9 1.3-3.5 2.9-6.4 6.7-6.4 18.4v69.2zm116.8-116.2v-35.4h23.4v35.4h16.9v17.8h-16.9v67.7q0 8.7 8.2 8.7h8.7v22h-12.1q-12.6 0-20.4-7.6-7.8-7.5-7.8-21.1v-69.7h-11.7v-17.8zm118.6 116.2v-10.3q-7.1 11.7-28.8 11.7-19.1 0-30.4-10.3-10.8-9.6-10.8-25.3 0-14.6 9.6-24 10.3-10.4 28.1-10.3h32.3v-12.2q0-8.2-5.5-11.6-5.5-3.3-18.3-3.3-16.5 0-22 8.9l-18.3-13.9q12.2-17 39.2-17 48.3 0 48.3 38.3v79.4zm0-40.9v-8.5h-27.9q-20.2 0-20.2 14 0 14.6 22 14.6 14.6 0 19-2.5 7.1-3.8 7.1-17.6zm108 40.6v-11.9q-2.8 3.2-6.2 5.8-3.4 2.5-7.3 4.3-3.9 1.7-8 2.6-4.2 0.9-8.5 0.8-19.7 0-30.6-14.2-6.7-8.6-8.1-21.6-0.6-5-0.6-23.6 0-18.8 0.6-23.6 1.5-13.3 8.1-21.8 10.9-14.2 30.6-14.2 17 0 30 13.7v-12.4h23.3v113.6q0 24.9-15.1 38.7-13.7 12.4-35.2 12.4-23.1 0-40.3-19.5l18.1-14.5q10.5 10.6 22.7 10.6 11.9 0 19.2-6.7 7.4-6.6 7.3-18.5zm-46-57.8q-0.1 2.4 0 4.7 0 2.3 0.1 4.6 0.1 2.3 0.3 4.6 0.1 2.3 0.4 4.7 0.2 1.1 0.5 2.2 0.4 1.2 0.9 2.3 0.4 1 1.1 2 0.6 1.1 1.3 2c2.2 2.8 5 5 8.2 6.6 3.2 1.5 6.7 2.3 10.2 2.3 3.6 0 7.1-0.8 10.2-2.3 3.2-1.6 6-3.8 8.2-6.6q0.8-0.9 1.4-2 0.6-1 1-2 0.5-1.1 0.9-2.3 0.3-1.1 0.5-2.2 0.3-2.4 0.4-4.7 0.2-2.3 0.3-4.6 0.1-2.3 0.2-4.6 0-2.3-0.1-4.7 0.1-2.3 0.1-4.7-0.1-2.3-0.2-4.7-0.1-2.3-0.3-4.7-0.1-2.3-0.4-4.7-0.2-1.1-0.5-2.3-0.4-1.1-0.9-2.2-0.4-1.1-1-2.1-0.6-1-1.4-1.9c-2.2-2.8-5-5.1-8.2-6.6-3.1-1.6-6.6-2.4-10.2-2.4-3.5 0-7 0.8-10.2 2.4-3.2 1.5-6 3.8-8.2 6.6q-0.7 0.9-1.3 1.9-0.7 1-1.1 2.1-0.5 1.1-0.9 2.2-0.3 1.2-0.5 2.3-0.3 2.4-0.4 4.7-0.2 2.4-0.3 4.7-0.1 2.4-0.1 4.7-0.1 2.4 0 4.7zm178.5 8.8h-72.3q0 13.8 7.7 21.2 7.6 7.4 20 7.5 3.6 0 7.1-0.8 3.5-0.7 6.8-2.2 3.3-1.4 6.2-3.5 2.9-2.1 5.3-4.8l16.9 14.5q-16.2 18.8-41.9 18.8-21.5 0-34.5-11.7-16.9-14.9-16.9-47.5 0-31.2 15.6-46.8 12.8-13.1 32.3-13 4.6-0.1 9.2 0.7 4.6 0.8 8.9 2.5 4.4 1.7 8.3 4.3 3.9 2.5 7.2 5.8 14.2 14 14.2 35.7zm-72.3-19.2h49q-0.5-12.8-7.2-20-1.7-1.7-3.7-3.1-2-1.4-4.2-2.3-2.2-0.9-4.6-1.3-2.4-0.5-4.8-0.4-2.4-0.1-4.8 0.4-2.4 0.4-4.7 1.3-2.2 0.9-4.2 2.3-2 1.4-3.7 3.1-6.9 7.1-7.1 19.9z"/>
</svg>