<svg version="1.2" xmlns="http://www.w3.org/2000/svg" viewBox="0 0 1598 829" width="1598" height="829">
	<title>FATE_BIG-svg</title>
	<style>
		.s0 { fill: #656668 } 
		.s1 { fill: #f28b20 } 
		.s2 { fill: #55c9e9 } 
		.s3 { fill: #9a9735 } 
	</style>
	<g id="#656668ff">
		<path id="Layer" fill-rule="evenodd" class="s0" d="m1.4 0.4q193.5 0 386.9 0c0.1 37.6 0 75.3 0 112.9-84.1 0.1-168.2 0-252.3 0q0 67.3 0 134.6c63.5 0 127.1 0 190.7 0 0 36.6 0 73.1 0 109.7q-95.4 0-190.7 0c0 83.6 0 167.2 0 250.7q-67.3 0-134.6 0 0-303.9 0-607.9zm906 142.6c0.1-46.5 0-92.9 0-139.4 43.1 0 86 0 129 0 0 46.5 0 92.9 0 139.4 31 0 62 0 93 0q0 50.4 0 100.9c-31 0-62 0-93 0 0 74 0 148 0 222.1 0.3 15.5 3.2 36 20.3 41.9 23.4 7.5 48.8 4.5 72.7 1.2q-0.2 49.9 0.1 99.7c-34.8 4.8-70.2 5.4-105.2 3.2-32.9-2.2-68.9-8.9-92.4-34.2-18.7-19.5-24.2-47.4-24.4-73.5-0.1-86.8 0-173.6-0.1-260.4-25.6 0-51.2 0-76.9 0q0-50.5 0-100.9c25.7 0 51.3 0 76.9 0zm356.4 11.2c45.6-22.9 98.6-27.4 148.6-20.6 54.4 7.6 104.6 39 136.4 83.7 32.4 44.6 46.9 100 49.2 154.5v35.1c-112.1 0.8-224.1 0.2-336.2 0.3 1.5 26.3 5.8 53.7 20.6 76.1 13 20 35.2 32.6 58.2 37.4 27.2 5.6 56.4 5.5 82.3-5.4 23-10.1 43.9-27.4 53.7-51.1 37.6-0.1 75.2 0 112.9 0-14.2 42.7-36.1 85.1-72.7 112.8-43.3 32.8-99.1 44.6-152.6 43.3-51-0.8-103-14.9-143.7-46.4-43.8-33.3-71.3-84.8-81.7-138.2-11.2-60.2-6-124.8 21.8-180 21.8-44.1 58.8-80.3 103.2-101.5zm38.5 92.7c-25.6 17.6-38.1 48.6-40.5 78.8 69-0.2 138 0.1 206.9-0.2-5.3-25.4-13.3-51.5-30.8-71.4-12-14-29.8-22.1-47.8-24.8-30-4.2-63-1.4-87.8 17.6zm39 459c22.1-32.3 76.5-35.3 100.9-4.3 6 7.1 8.2 16.4 10.6 25.1-4.8 0.1-9.5 0.1-14.3 0.2-3.3-8.5-6.8-17.6-14.2-23.5-20.7-18.8-57.1-12.7-71.6 10.9-15.2 24.4-15 58.1 1.2 82 15.2 22.2 50.8 27.5 70.5 8.3 9.4-8.8 13.5-21.4 15.8-33.7q7 0.1 14.1 0.1c-2.1 14.5-6.3 29.5-17 40.2-29.7 31.7-90 18.2-103.9-23-10.1-26.5-8.3-58.5 7.9-82.3zm166.4-19.6c20.1-9.6 46.2-8.5 64.8 4.1 11.4 7.8 16.9 21.3 17.2 34.8q-7.1 0-14.2 0.1c-1.1-31.6-43.9-42.5-65.7-24.5-11 9-11.6 30.2 2.3 36.8 21.9 9.1 47.2 9.1 67.8 21.7 18.6 11.2 18.5 39.9 4.4 54.7-11.3 11.8-28.6 14.3-44.1 14.6-17-0.3-36.1-3.4-47.8-17-8.3-9.1-9.7-21.7-10.2-33.4q7.1-0.1 14.3-0.1c0.2 13.4 5.8 27.6 18.9 33.1 18.7 7.7 43.8 8.2 58.5-7.7 9.7-9.5 7.4-27.4-4.8-33.7-21.5-12-48.3-10.1-69.5-22.9-20.5-14.9-14.2-50.4 8.1-60.6zm-1507.1-3.5q56.5 0 112.9 0 0.1 6.4 0.1 12.8c-16.6 0-33.1 0-49.7 0q0 64.9 0 129.8c-4.6 0-9.1 0-13.6 0-0.1-43.3 0-86.5 0-129.8-16.6 0-33.2 0-49.7 0q0-6.4 0-12.8zm141.8 0c4.5 0 9.1 0 13.6 0q0 30.8 0 61.7 42.1 0 84.1 0c0-20.6 0-41.1 0-61.7 4.6 0 9.1 0 13.7 0 0 47.5 0 95.1-0.1 142.6q-6.8 0-13.6 0c0-22.7 0-45.4 0-68.1q-42 0-84.1 0c0 22.7 0 45.4 0 68.1-4.5 0-9.1 0-13.6 0 0-47.5 0-95.1 0-142.6zm155.4 0q49.3 0 98.5 0 0 6.4 0 12.8c-28 0-56 0-84.1 0 0 16.9 0 33.7 0 50.5 26.5 0 52.9 0 79.3 0 0 3 0 9 0 12q-39.6 0-79.3 0 0 27.7 0 55.2c28.6 0.1 57.2 0 85.7 0.1 0 3 0 9 0 12-33.3 0-66.7 0-100.1 0 0-47.5 0-95.1 0-142.6zm133.8 0c20.3 0.1 40.6 0 60.9 0 13.1 0.1 27.7 1.7 37.6 11.3 18.8 18 11.7 56.1-14.9 62.6 9.2 2.1 17.9 8.2 20.2 17.8 4.2 16.8 0.8 34.9 8.2 51-5.4-0.1-10.7-0.1-16.1-0.1-2.9-13.5-2.5-27.4-4.8-41-1.7-10.3-9.2-20.9-20.4-21.4-18.8-0.4-37.5 0.1-56.3-0.1 0 20.8 0 41.7 0 62.5q-7.2-0.1-14.4 0c0-47.5 0-95.1 0-142.6zm14.4 12.8q0 27.2 0 54.5c17.7-0.2 35.4 0.3 53.1-0.1 14.5-0.2 28-13.1 27.1-28 0.1-12.1-8.4-24.2-20.9-25.7-19.7-1.7-39.5-0.2-59.3-0.7zm175.7-12.8q7.8 0 15.6 0 27.9 71.3 55.9 142.5c-5.2 0-10.4 0-15.7 0.1-5.7-14.7-11.4-29.5-17.2-44.1-21.2 0.1-42.4 0-63.6 0.1-5.7 14.6-11.4 29.3-17 44q-7.8-0.1-15.4 0c19.2-47.6 38-95.2 57.4-142.6zm-20.6 86.5c18.2 0.1 36.3 0.1 54.5 0-9.1-23.6-17.8-47.3-26.8-70.9-9.2 23.6-18.4 47.2-27.7 70.9zm119.7-86.5c21 0.1 42.1-0.1 63.2 0.1 13.5-0.1 28.2 4.4 36 16.2 13.9 21.2 7 57.4-20.2 63.9-21.3 3.4-43.1 0.6-64.6 1.5 0 20.3 0 40.6 0 60.9-4.8 0-9.6 0-14.4 0q0-71.3 0-142.6zm14.4 12.8c0 19 0 37.9 0 56.9 20.2-1.2 41.1 2.7 60.9-2.4 23.2-8.1 21.8-47.6-2.6-53.1-19.2-3.1-38.9-0.6-58.3-1.4zm126.6-12.8c33.1 0 66.2 0 99.3 0 0 4.3 0 8.5 0 12.8-28.3 0-56.6 0-84.9 0q0 25.3 0 50.5c26.4 0 52.9 0 79.3 0 0 3 0 9 0 12q-39.6 0-79.3 0c0 18.4 0 36.9 0 55.2 28.6 0.1 57.1 0 85.7 0.1 0 3 0 9 0 12-33.4 0-66.7 0-100.1 0 0-47.5 0-95.1 0-142.6zm132.2 0q7.2 0 14.4 0c0.1 29.1-0.2 58.3 0.1 87.4 0.2 14.8 3.1 32.3 17.1 40.5 13.6 7.3 30.6 7.3 44.9 1.9 14-5.6 20-21.5 20.3-35.7 0.3-31.3 0-62.7 0.1-94.1 4.8 0 9.6 0 14.4 0 0 31.3 0.1 62.6 0 93.8 0.3 19.1-9.5 39.3-27.9 46.7-19.3 7.8-42.9 7.6-61.2-3.2-15.1-9-21.6-27-21.9-43.9-0.8-31.1-0.1-62.2-0.3-93.4zm138.6 0q56.4 0 112.9 0 0 6.4 0 12.8c-16.6 0-33.1 0-49.7 0 0 43.3 0.1 86.5 0 129.8-4.5 0-9.1 0-13.6 0 0-43.3 0.1-86.5 0-129.8-16.5 0-33.1 0-49.6 0q0-6.4 0-12.8zm142.6 0c4.8 0 9.5 0 14.4 0 0 47.5-0.1 95.1 0 142.6-4.9 0-9.6 0-14.4 0 0-47.5 0-95.1 0-142.6z"/>
	</g>
	<g id="#f28b20ff">
		<path id="Layer" class="s1" d="m506.2 146.3c59.5-24.6 128.9-23.1 187.5 3.4 78.4 34.6 134.1 114.3 139.2 200-36.8-1.2-73.7-0.8-110.5-0.9-4.9-33.5-23-64.9-50.4-84.9-33.8-25.8-81-32.4-120.6-17.1-54 19.5-90 78.5-81.5 135.5 6.5 58.9 59.3 108.2 118.5 110.6 38 0.2 76 0 114 0.1q0 55.3 0 110.5c-36.9 0-73.8 0.1-110.7 0-60.2-0.7-119.8-25.6-162.3-68.2-38.3-37.1-63-87.7-69.2-140.6-6.6-54.3 5.9-110.9 35.8-156.8 26.1-40.9 65.2-73.5 110.2-91.6z"/>
	</g>
	<g id="#55c9e9ff">
		<path id="Layer" class="s2" d="m723.2 368.8q55.3 0 110.5 0 0 55.3 0 110.6-55.2 0-110.5 0 0-55.3 0-110.6z"/>
	</g>
	<g id="#9a9735ff">
		<path id="Layer" class="s3" d="m723.2 493.8q55.3 0 110.5 0c0 37.1 0 74.2 0 111.3q-55.2 0-110.5 0c0-37.1 0-74.2 0-111.3z"/>
	</g>
</svg>