<svg version="1.2" xmlns="http://www.w3.org/2000/svg" viewBox="0 0 1519 1008" width="1519" height="1008">
	<title>Faze_Clan-svg</title>
	<style>
		.s0 { fill: #e43d30 } 
		.s1 { fill: #000000 } 
	</style>
	<g id="Layer">
		<g id="Layer">
			<path id="Layer" class="s0" d="m870.2 481h488l-205.9 209.7h-194.4l-316.5 274.6v-491.9h-213.5l-57.2-68.7-19-22.9-91.5-106.7h381.2v-76.3h-446l-152.5-179.2h1425.9l-175.4 179.2h-423.2z"/>
			<path id="Layer" fill-rule="evenodd" class="s1" d="m622.4 1007.2v-514.8h-202.1l-64.8-76.2-19.1-19.1-118.2-141.1h404.2v-41.9h-434.7l-186.8-213.6h1517.4l-213.5 213.6h-415.5v244h514.7l-244 247.9h-198.3zm-183-553h224.9v465.3l286-247.9h198.2l167.8-171.6h-465.1v-320.3h434.6l137.3-141.1h-1338.3l118.2 137.3h457.5v118.2h-358.4l64.8 76.2 19.1 19.1z"/>
		</g>
	</g>
</svg>