<svg version="1.2" xmlns="http://www.w3.org/2000/svg" viewBox="0 0 1529 298" width="1529" height="298">
	<title>Fortune_Brands_Home_&amp;_Security_logo-svg</title>
	<style>
		.s0 { fill: #ffffff } 
	</style>
	<g id="layer1">
		<g id="g14012">
			<path id="path13160" fill-rule="evenodd" class="s0" d="m381.2 72.1h83.5v12.1h-70.4v41.6h54.5v12h-54.5v50.6h-13.1zm77.6 73.8v-0.3c0-24.3 18.9-44.9 44.8-44.9 25.7 0 44.7 20.3 44.7 44.6v0.3c0 24.3-19.1 44.9-45 44.9-25.7 0-44.5-20.3-44.5-44.6zm76.4 0v-0.3c0-18.4-13.8-33.6-31.9-33.6-18.6 0-31.4 15.2-31.4 33.3v0.3c0 18.5 13.6 33.4 31.7 33.4 18.6 0 31.6-14.9 31.6-33.1zm26.2-43.3h12.8v22.4c6.3-14.3 18.8-24.6 35-23.9v13.8h-1c-18.7 0-34 13.4-34 39.3v34.3h-12.8c0 0 0-85.9 0-85.9zm62.6-26h12.8v26h27.2v11.3h-27.2v50.2c0 10.4 5.8 14.3 14.4 14.3 4.4 0 8-0.9 12.5-3v10.9c-4.5 2.4-9.3 3.7-15.4 3.7-13.8 0-24.3-6.8-24.3-24.3zm52.2 79.3v-53.4h12.8v50.2c0 16 8.6 26 23.7 26 14.7 0 25.8-10.8 25.8-26.9v-49.3h12.6v86h-12.6v-15c-5.8 9.3-14.6 16.8-29.4 16.8-20.8 0-32.9-14-32.9-34.4zm96.2-53.4h12.8v15c5.6-9.3 14.6-16.8 29.3-16.8 20.8 0 32.9 14 32.9 34.4v53.4h-12.8v-50.2c0-16-8.6-25.9-23.7-25.9-14.8 0-25.7 10.8-25.7 26.9v49.2h-12.8zm133.4 76.8c11.8 0 20.1-4.8 27.1-12.2l7.9 7.2c-8.6 9.6-19.1 16.1-35.3 16.1-23.6 0-42.9-18.1-42.9-44.9 0-24.9 17.5-44.8 41.2-44.8 25.4 0 40 20.2 40 45.5 0 1.2 0 2.5-0.2 4.5h-68c1.8 18.1 15.1 28.6 30.2 28.6zm25.1-38.9c-1.5-15.6-10.5-28.9-27.4-28.9-14.8 0-26.1 12.3-27.9 28.9zm80.6-68.8h49.5c13.2 0 23.7 3.8 30.4 10.3 4.8 5 7.4 11.2 7.4 18.6v0.4c0 15.1-9.3 22.9-18.4 26.9 13.8 4.2 24.9 12.1 24.9 28.1v0.3c0 20-16.8 31.8-42.2 31.8h-51.6zm47.3 51.8c15.8 0 26.7-7.1 26.7-20.7v-0.4c0-11.4-9.1-18.9-25.7-18.9h-35.4v40zm4.7 52.7c17.6 0 28.5-7.8 28.5-20.7v-0.4c0-12.6-10.6-19.9-30.8-19.9h-36.7v41c0 0 39 0 39 0zm60.1-74.1h12.8v22.4c6.3-14.3 18.7-24.6 35-23.9v13.8h-1c-18.8 0-34 13.5-34 39.4v34.2h-12.8c0 0 0-85.9 0-85.9zm52 61v-0.4c0-18.4 15-28 36.7-28 11 0 18.6 1.5 26.3 3.6v-2.6c0-15.3-9.3-23.3-25.4-23.3-10.2 0-18.1 2.5-26.1 6.1l-3.8-10.4c9.4-4.3 18.6-7.3 31.2-7.3 12.1 0 21.6 3.3 27.7 9.4 6 6 9 14.3 9 25.3v52.5h-12.6v-12.8c-6 7.7-15.8 14.6-30.9 14.6-16.1 0-32.1-9.1-32.1-26.7zm63.1-6.7v-7.9c-6.3-1.9-14.6-3.7-25-3.7-16 0-25.1 7-25.1 17.3v0.3c0 10.8 9.9 17.1 21.6 17.1 15.7 0 28.5-9.4 28.5-23.1zm32.7-54.3h12.8v14.9c5.7-9.3 14.6-16.7 29.4-16.7 20.8 0 32.9 13.9 32.9 34.4v53.3h-12.8v-50.2c0-15.9-8.6-25.9-23.7-25.9-14.8 0-25.8 10.8-25.8 26.9v49.2h-12.8zm90.4 43.2v-0.3c0-28.1 20.4-44.7 41.1-44.7 15.9 0 26.2 8.6 32.8 18.3v-51.9h12.8v121.4h-12.8v-17.3c-7 10.3-17.1 19.1-32.8 19.1-20.7 0-41.1-16.3-41.1-44.6zm74.4-0.1v-0.4c0-19.7-15.1-33.1-31-33.1-16.6 0-30.3 12.4-30.3 33.1v0.4c0 20.2 14 33.2 30.3 33.2 15.9 0 31-13.5 31-33.2zm26.3 31.9l6.5-9.2c9.3 7 19.6 11 29.7 11 10.3 0 17.8-5.3 17.8-13.6v-0.4c0-8.6-10.1-11.9-21.4-15.1-13.5-3.8-28.4-8.5-28.4-24.2v-0.4c0-14.8 12.3-24.6 29.2-24.6 10.5 0 22.1 3.7 30.9 9.5l-5.8 9.6c-8-5.1-17.1-8.3-25.4-8.3-10.2 0-16.6 5.3-16.6 12.5v0.3c0 8.2 10.6 11.3 22.1 14.8 13.2 4 27.5 9.2 27.5 24.6v0.4c0 16.2-13.4 25.7-30.5 25.7-12.3 0-25.9-4.8-35.6-12.6z"/>
			<path id="path13220" class="s0" d="m5.8 183.2c-3.5-12-5.3-24.6-5.3-37.8 0-80.9 66.2-144.9 146.7-144.9 78.6 0 147 62.9 147 142.7 0 13.8-1.9 27.1-5.6 39.8l-141.7-123zm281.2 5.3c-19.4 58.3-75.1 99.7-139.8 99.7-63.2 0-120.4-41.4-139.7-99.7z"/>
			<path id="path13228" fill-rule="evenodd" class="s0" d="m401.2 241.8h7.3l19.6 45h-8.2l-4.6-10.8h-21.1l-4.6 10.8h-8zm11.2 27.2l-7.7-17.9-7.6 17.9zm39.6-28.8h7.7v18.1c2.2-3.2 5.3-5.9 10.5-5.9 7.6 0 12 5.1 12 12.9v21.4h-7.7v-19.1c0-5.2-2.6-8.2-7.2-8.2-4.5 0-7.6 3.1-7.6 8.3v19h-7.7zm36.7 30v-0.1c0-9.7 7.7-17.7 18-17.7 10.3 0 17.9 7.9 17.9 17.5v0.2c0 9.5-7.6 17.5-18 17.5-10.3 0-17.9-7.8-17.9-17.4zm28.2 0v-0.1c0-6-4.3-10.9-10.3-10.9-6.2 0-10.2 4.9-10.2 10.7v0.2c0 5.8 4.3 10.8 10.3 10.8 6.2 0 10.2-4.9 10.2-10.7zm14.6-17.1h7.7v5.2c2.1-3.1 5.1-5.9 10.3-5.9 4.8 0 8.2 2.4 10 6 2.7-3.6 6.3-6 11.4-6 7.3 0 11.8 4.7 11.8 12.9v21.5h-7.7v-19.1c0-5.4-2.5-8.3-6.9-8.3-4.2 0-7.2 3-7.2 8.4v19h-7.7v-19.2c0-5.2-2.5-8.2-6.8-8.2-4.3 0-7.2 3.2-7.2 8.5v18.9h-7.7zm57.7 17v-0.1c0-9.7 6.9-17.6 16.5-17.6 10.7 0 16.1 8.4 16.1 18.1 0 0.8-0.1 1.5-0.1 2.2h-24.7c0.8 5.5 4.7 8.6 9.7 8.6 3.7 0 6.4-1.4 9.1-4l4.5 4c-3.2 3.8-7.6 6.3-13.8 6.3-9.7 0-17.3-7.1-17.3-17.5zm25-2.5c-0.5-5-3.5-8.9-8.6-8.9-4.7 0-8 3.7-8.7 8.9zm53.2 19.2v-4.1c-2.3 2.7-5.8 4.8-10.9 4.8-6.4 0-12-3.6-12-10.4v-0.1c0-7.5 5.8-11 13.6-11 4.1 0 6.7 0.5 9.4 1.4v-0.7c0-4.6-3-7.2-8.3-7.2-3.8 0-6.6 0.8-9.7 2.1l-2.1-6.2c3.7-1.6 7.4-2.8 12.9-2.8 9.9 0 14.7 5.3 14.7 14.3v19.9zm0.2-14.1c-1.9-0.7-4.7-1.3-7.7-1.3-4.8 0-7.7 2-7.7 5.2v0.2c0 3.2 2.9 4.9 6.5 4.9 5.1 0 8.9-2.8 8.9-7.1 0 0 0-1.9 0-1.9zm15.7-19.6h7.7v5.3c2.2-3.2 5.3-6 10.5-6 7.6 0 12 5.1 12 13v21.4h-7.7v-19.1c0-5.2-2.6-8.3-7.2-8.3-4.5 0-7.6 3.2-7.6 8.4v19h-7.7zm36.9 17v-0.2c0-11.2 7.5-17.5 15.6-17.5 5.5 0 9 2.8 11.5 6v-18.2h7.7v46.6h-7.7v-5.6c-2.5 3.5-6 6.3-11.5 6.3-7.9 0-15.6-6.3-15.6-17.4zm27.2-0.1v-0.1c0-6.5-4.6-10.8-9.8-10.8-5.3 0-9.7 4.1-9.7 10.8v0.1c0 6.5 4.5 10.8 9.7 10.8 5.2 0 9.8-4.3 9.8-10.8zm31.6 12.4l3.5-5.2c3.6 2.7 7.6 4.1 11 4.1 3.3 0 5.2-1.3 5.2-3.6v-0.1c0-2.6-3.5-3.5-7.5-4.7-4.9-1.4-10.5-3.5-10.5-9.9v-0.1c0-6.4 5.3-10.3 12-10.3 4.2 0 8.8 1.4 12.4 3.8l-3.1 5.5c-3.3-2-6.7-3.2-9.5-3.2-3 0-4.7 1.4-4.7 3.4v0.1c0 2.4 3.6 3.5 7.6 4.7 4.9 1.6 10.4 3.8 10.4 9.9v0.1c0 7.1-5.5 10.6-12.5 10.6-4.8 0-10-1.7-14.3-5.1zm31.9-12.3v-0.1c0-9.7 6.8-17.6 16.4-17.6 10.7 0 16.1 8.4 16.1 18.1 0 0.7 0 1.4-0.1 2.2h-24.7c0.8 5.5 4.7 8.6 9.7 8.6 3.7 0 6.4-1.4 9.1-4.1l4.5 4.1c-3.2 3.8-7.6 6.3-13.8 6.3-9.7 0-17.2-7.1-17.2-17.5zm24.9-2.5c-0.5-5-3.4-8.9-8.5-8.9-4.8 0-8.1 3.7-8.8 8.9zm12.6 2.6v-0.2c0-9.5 7.4-17.6 17.5-17.6 6.4 0 10.3 2.4 13.5 5.9l-4.8 5.1c-2.4-2.5-4.9-4.2-8.8-4.2-5.6 0-9.7 4.9-9.7 10.7v0.2c0 6 4.2 10.8 10.1 10.8 3.6 0 6.3-1.7 8.7-4.2l4.7 4.6c-3.3 3.7-7.2 6.3-13.8 6.3-10 0-17.4-7.8-17.4-17.4zm36.9 4.4v-21.5h7.8v19.2c0 5.2 2.6 8.2 7.1 8.2 4.5 0 7.6-3.1 7.6-8.3v-19.1h7.8v33.7h-7.8v-5.2c-2.1 3.2-5.2 5.9-10.5 5.9-7.6 0-12-5.1-12-12.9zm39-21.5h7.7v7.6c2.1-5 6-8.5 11.9-8.2v8.2h-0.4c-6.8 0-11.5 4.4-11.5 13.3v12.8h-7.7c0 0 0-33.7 0-33.7zm25.5-12.5h8.3v7.4h-8.3zm0.3 12.5h7.7v33.7h-7.7zm18.4 24.4v-17.8h-4.3v-6.6h4.3v-9.3h7.7v9.3h9.1v6.6h-9.1v16.5c0 3 1.6 4.3 4.2 4.3 1.7 0 3.2-0.4 4.7-1.2v6.3c-1.8 1.1-4 1.8-6.9 1.8-5.7 0-9.7-2.5-9.7-9.9zm22.5 17.6l2.6-5.7c1.4 0.8 3 1.3 4.6 1.3 2.1 0 3.5-1 4.7-3.9l-14-33.7h8.2l9.6 25 8.7-25h8.1l-13.4 34.6c-2.7 6.9-5.7 9.5-11.1 9.5-3.3 0-5.6-0.8-8-2.1zm54.5-25v-0.1c0-9.6 7.3-17.6 17.4-17.6 6.4 0 10.3 2.3 13.5 5.8l-4.8 5.2c-2.4-2.5-4.9-4.3-8.7-4.3-5.7 0-9.7 4.9-9.7 10.8v0.1c0 6 4.1 10.8 10 10.8 3.7 0 6.3-1.7 8.8-4.2l4.6 4.6c-3.3 3.7-7.2 6.3-13.7 6.3-10.1 0-17.4-7.8-17.4-17.4zm34.4 0v-0.1c0-9.6 7.7-17.6 18-17.6 10.4 0 18 7.8 18 17.5v0.1c0 9.6-7.7 17.5-18.1 17.5-10.3 0-17.9-7.8-17.9-17.4zm28.2 0v-0.1c0-5.9-4.2-10.8-10.3-10.8-6.2 0-10.1 4.8-10.1 10.7v0.1c0 5.9 4.2 10.9 10.2 10.9 6.3 0 10.2-5 10.2-10.8zm14.6-17h7.7v5.1c2.2-3 5.1-5.8 10.3-5.8 4.8 0 8.2 2.3 10 5.9 2.8-3.6 6.3-5.9 11.4-5.9 7.4 0 11.8 4.6 11.8 12.9v21.5h-7.7v-19.2c0-5.3-2.5-8.2-6.8-8.2-4.2 0-7.2 2.9-7.2 8.4v19h-7.7v-19.2c0-5.3-2.6-8.2-6.9-8.2-4.2 0-7.2 3.2-7.2 8.4v19h-7.7zm59.6 0h7.7v5.6c2.5-3.5 6-6.3 11.4-6.3 8 0 15.7 6.3 15.7 17.5v0.1c0 11.2-7.6 17.5-15.7 17.5-5.5 0-9-2.8-11.4-6v15.5h-7.7zm27 16.9v-0.1c0-6.5-4.4-10.8-9.6-10.8-5.3 0-9.9 4.3-9.9 10.8v0.1c0 6.5 4.6 10.8 9.9 10.8 5.3 0 9.6-4.2 9.6-10.8zm35.4 16.8v-4.2c-2.3 2.8-5.8 4.9-10.9 4.9-6.4 0-12-3.7-12-10.4v-0.1c0-7.5 5.8-11.1 13.6-11.1 4.1 0 6.7 0.6 9.3 1.4v-0.6c0-4.7-2.9-7.2-8.3-7.2-3.7 0-6.5 0.8-9.6 2.1l-2.1-6.2c3.7-1.7 7.3-2.8 12.8-2.8 10 0 14.8 5.2 14.8 14.2v20zm0.2-14.1c-2-0.8-4.7-1.4-7.7-1.4-4.9 0-7.8 2-7.8 5.3v0.1c0 3.2 2.9 5 6.5 5 5.2 0 9-2.9 9-7.1 0 0 0-1.9 0-1.9zm15.7-19.6h7.7v5.2c2.1-3.2 5.3-5.9 10.5-5.9 7.6 0 12 5.1 12 12.9v21.5h-7.7v-19.2c0-5.2-2.6-8.2-7.2-8.2-4.5 0-7.6 3.1-7.6 8.4v19h-7.7zm36.5 42l2.6-5.7c1.4 0.8 2.9 1.3 4.5 1.3 2.2 0 3.5-1 4.8-3.9l-14-33.7h8.2l9.6 25 8.7-25h8.1l-13.4 34.6c-2.7 6.9-5.7 9.5-11.1 9.5-3.3 0-5.7-0.8-8-2.1z"/>
		</g>
	</g>
</svg>