<svg version="1.2" xmlns="http://www.w3.org/2000/svg" viewBox="0 0 1538 188" width="1538" height="188">
	<title>footer-logo-svg</title>
	<style>
		.s0 { fill: #ffffff } 
		.s1 { fill: none;stroke: #ffffff;stroke-width: 4.6 } 
		.s2 { fill: none } 
	</style>
	<path id="Layer" class="s0" d="m353.4 54.7v22h-33.3v16.6h31.8v20.2h-31.8v39.4h-35.4v-98.2z"/>
	<path id="Layer" fill-rule="evenodd" class="s0" d="m358.6 73.9h51.2q15.8 1.9 15.8 18.6 0.1 1.6 0 3.3-0.2 1.6-0.6 3.2-0.4 1.5-1.1 3-0.6 1.5-1.5 2.9-1.1 1.2-2.4 2.2-1.2 1-2.6 1.8-1.4 0.8-2.9 1.3-1.5 0.5-3.1 0.8-0.1 0-0.2 0.1-0.1 0-0.1 0.1-0.1 0.1-0.1 0.2 0 0.1 0 0.2 0 0.1 0.1 0.2 0 0 0.1 0.1 0 0.1 0.1 0.1 0.1 0 0.2 0.1 1.3 0 2.6 0.2 1.3 0.3 2.5 0.8 1.3 0.5 2.4 1.3 1.1 0.7 2 1.7 1 0.9 1.8 2 0.8 1.1 1.3 2.3 0.6 1.2 1 2.5 0.3 1.3 0.4 2.6v27.1h-28.2v-27q0-0.6-0.1-1.1-0.1-0.5-0.3-0.9-0.2-0.5-0.4-0.9-0.3-0.5-0.7-0.8-0.3-0.4-0.7-0.7-0.4-0.4-0.8-0.6-0.5-0.2-1-0.3-0.5-0.1-1-0.1h-5.1v32.4h-28.6zm28.4 14v16.3h4.5q0.7 0.1 1.5-0.1 0.7-0.1 1.4-0.5 0.6-0.3 1.1-0.9 0.6-0.5 0.9-1.2 0.3-0.6 0.5-1.2 0.1-0.7 0.3-1.4 0.1-0.6 0.2-1.3 0-0.7 0-1.3 0.1-0.9 0-1.8-0.1-0.9-0.3-1.8-0.3-0.8-0.6-1.6-0.4-0.8-0.9-1.6-0.3-0.3-0.7-0.6-0.3-0.3-0.8-0.6-0.4-0.2-0.8-0.3-0.5-0.2-1-0.2z"/>
	<path id="Layer" class="s0" d="m488.3 74.1v17.9h-26.4v13.1h25.1v16.1h-25.1v13.7h26.4v18h-54.6v-78.8z"/>
	<path id="Layer" class="s0" d="m551.4 74.1v17.9h-26.5v13.1h25.1v16.1h-25.1v13.7h26.5v18h-54.6v-78.8z"/>
	<path id="Layer" fill-rule="evenodd" class="s0" d="m561 74.3h46.6q20.2 0 20.4 24.1 0 28.4-25 28.4h-13.4v26.1h-28.5zm28.5 35.7h3.8q1.6-0.4 3-1.3 1.4-1 2.3-2.4 1-1.3 1.4-3 0.4-1.6 0.2-3.3 0-8.5-5.6-9.8h-5.1z"/>
	<path id="Layer" fill-rule="evenodd" class="s0" d="m662.1 73.3h6.3q18.2 0 25.4 9.4 5.3 7 5.3 22.5v17.1q0 16.4-7.3 24-7.3 7.6-23.4 7.6h-6.3q-15.7 0-23.2-7.7-7.5-7.7-7.5-23.9v-17.1q-0.2-3 0-5.9 0.2-2.9 0.9-5.8 0.7-2.8 1.8-5.5 1.1-2.8 2.7-5.3 7-9.4 25.3-9.4zm-2 59.8c0 2.8 2.2 5.1 5.1 5.1 2.8 0 5.1-2.3 5.1-5.1v-39.1c0-2.8-2.3-5.1-5.1-5.1-2.9 0-5.1 2.3-5.1 5.1z"/>
	<path id="Layer" fill-rule="evenodd" class="s0" d="m703.7 73.9h51.1q15.8 1.9 15.8 18.6 0.1 1.6 0 3.3-0.2 1.6-0.6 3.2-0.4 1.5-1.1 3-0.6 1.5-1.5 2.9-1.1 1.2-2.3 2.2-1.3 1-2.7 1.8-1.4 0.8-2.9 1.3-1.5 0.5-3.1 0.8-0.1 0-0.2 0.1-0.1 0-0.1 0.1-0.1 0.1-0.1 0.2 0 0.1 0 0.2 0 0.1 0.1 0.2 0 0 0.1 0.1 0 0.1 0.1 0.1 0.1 0 0.2 0.1 1.3 0 2.6 0.2 1.3 0.3 2.5 0.8 1.3 0.5 2.4 1.3 1.1 0.7 2 1.7 1 0.9 1.8 2 0.8 1.1 1.3 2.3 0.6 1.2 1 2.5 0.3 1.3 0.4 2.6v27.1h-28.2v-27q0-0.6-0.1-1.1-0.1-0.5-0.3-0.9-0.2-0.5-0.4-0.9-0.3-0.5-0.7-0.8-0.3-0.4-0.7-0.7-0.4-0.4-0.8-0.6-0.5-0.2-1-0.3-0.5-0.1-1-0.1h-5v32.4h-28.6zm28.3 14v16.3h4.6q0.7 0.1 1.4-0.1 0.8-0.1 1.4-0.5 0.7-0.3 1.2-0.9 0.5-0.5 0.9-1.2 0.2-0.6 0.4-1.2 0.2-0.7 0.3-1.4 0.1-0.6 0.2-1.3 0.1-0.7 0.1-1.3 0-0.9-0.1-1.8-0.1-0.9-0.3-1.7-0.2-0.9-0.6-1.7-0.4-0.8-0.9-1.5-0.3-0.4-0.7-0.7-0.3-0.3-0.8-0.5-0.4-0.2-0.8-0.4-0.5-0.1-1-0.1z"/>
	<path id="Layer" class="s0" d="m843 74.1v17.7h-19.4v61.1h-28.4v-61h-18.7v-17.8z"/>
	<path id="Layer" class="s0" d="m846.1 105h31v16.5h-31z"/>
	<path id="Layer" class="s0" d="m1012.7 54.6v98.3h-31.3l1.2-60.2-14.7 60.2h-24.1l-14.9-59.7 1.2 59.7h-31.3v-98.3h47.4l9.8 50.2 9.7-50.2z"/>
	<path id="Layer" class="s0" d="m1058.4 95.4q0.1-1-0.4-2-0.4-0.9-1.1-1.5-0.8-0.7-1.7-1-1-0.2-2-0.1-0.9-0.1-1.8 0.3-0.9 0.3-1.6 0.9-0.7 0.7-1.1 1.5-0.4 0.9-0.4 1.9v37.9q0 1 0.4 2 0.5 0.9 1.2 1.5 0.8 0.7 1.8 1 1 0.2 2 0.1 0.8 0 1.6-0.3 0.8-0.3 1.5-0.8 0.6-0.5 1-1.3 0.5-0.7 0.6-1.5v-7.3h27.9q0 1.1 0 2.3-0.1 1.1-0.1 2.3-0.1 1.1-0.2 2.2-0.2 1.2-0.3 2.3-0.2 1.1-0.5 2.1-0.3 1-0.7 1.9-0.5 1-1 1.9-0.5 0.9-1.1 1.8-1.3 1.6-2.8 2.9-1.5 1.4-3.2 2.5-1.7 1.1-3.5 1.9-1.9 0.7-3.9 1.2-2.1 0.6-4.3 0.9-2.2 0.4-4.4 0.7-2.3 0.2-4.5 0.3-2.2 0.1-4.5 0-29.6 0-30.7-23.4-0.3-6.2 0-15.3 0-7.6 0-11.1 0-4.2 0-3.5 0-25.4 31.3-25.4 2.3 0 4.5 0.1 2.3 0 4.5 0.2 2.2 0.3 4.5 0.6 2.2 0.4 4.4 0.9 16.1 4.6 16.1 23.3v2.5h-27.6z"/>
	<path id="Layer" class="s0" d="m1207.9 54.6v98.3h-31.3l1-60.4-14.5 60.4h-24.1l-14.8-59.7 1.1 59.7h-31.3v-98.3h47.2l9.8 50.2 9.7-50.2z"/>
	<path id="Layer" fill-rule="evenodd" class="s0" d="m1246.7 73.3h6.3q18.2 0 25.4 9.4 5.3 7 5.3 22.5v17.1q0 16.4-7.3 24-7.3 7.6-23.3 7.6h-6.3q-15.7 0-23.2-7.7-7.5-7.7-7.5-23.9v-17.1q-0.3-3 0-5.9 0.2-2.9 0.9-5.8 0.6-2.8 1.8-5.5 1.1-2.8 2.6-5.3 6.9-9.4 25.3-9.4zm-2 59.9c0 2.8 2.3 5.1 5.1 5.1 2.8 0 5.1-2.3 5.1-5.1v-39.2c0-2.8-2.3-5.1-5.1-5.1-2.8 0-5.1 2.3-5.1 5.1z"/>
	<path id="Layer" fill-rule="evenodd" class="s0" d="m1292 54.7h63.7q19.8 2.4 19.8 23.2 0.1 2.1-0.1 4.1-0.2 2-0.7 4-0.5 2-1.3 3.8-0.8 1.9-1.9 3.6-1.4 1.5-2.9 2.8-1.6 1.2-3.3 2.2-1.8 1-3.6 1.7-1.9 0.6-3.9 1-0.1 0-0.2 0-0.1 0.1-0.2 0.2-0.1 0.1-0.1 0.3 0 0.1 0.1 0.2c0 0.4 0.2 0.6 0.5 0.6q1.6 0.1 3.1 0.4 1.4 0.3 2.9 0.9 1.4 0.6 2.7 1.4 1.3 0.8 2.4 1.8 1.5 1.1 2.7 2.5 1.2 1.4 2 3 0.9 1.7 1.3 3.4 0.5 1.8 0.6 3.6v33.9h-35.4v-34q-0.1-0.7-0.2-1.3-0.1-0.6-0.4-1.2-0.2-0.6-0.6-1.1-0.3-0.5-0.8-1-0.4-0.5-0.9-0.9-0.5-0.4-1.1-0.6-0.6-0.3-1.2-0.4-0.7-0.2-1.3-0.2h-6.4v40.6h-35.3zm35.4 18.2v20.5h5.5q0.9 0.1 1.8-0.1 0.9-0.2 1.7-0.6 0.8-0.5 1.4-1.1 0.7-0.7 1.1-1.5 0.3-0.8 0.6-1.6 0.2-0.8 0.4-1.7 0.2-0.8 0.2-1.7 0.1-0.8 0.1-1.7 0.1-1.1-0.1-2.2-0.1-1.1-0.4-2.1-0.3-1.1-0.8-2.1-0.4-1-1.1-1.9-0.3-0.5-0.8-0.8-0.4-0.4-1-0.7-0.5-0.3-1-0.4-0.6-0.2-1.2-0.3z"/>
	<path id="Layer" fill-rule="evenodd" class="s0" d="m1399.3 74.1h39.7l19.7 78.8h-28.8l-3-13.7h-16.6l-2.6 13.7h-28zm14.1 48.8h10.6l-5.6-29.3z"/>
	<path id="Layer" class="s0" d="m1537.7 152.9h-37.2l-12.8-41 0.6 41h-25v-78.5h33.5l16.4 40.8-0.6-40.8h25.1z"/>
	<path id="Layer" class="s1" d="m4.3 4.3h246.2v179.7h-246.2z"/>
	<path id="Layer" class="s0" d="m96.6 132.8h44v22.1h-44z"/>
	<path id="Layer" class="s0" d="m183.7 89h64.1v65.6h-45v-44l-17.2 44h-28.1l-17.2-44v0.5l-0.1-0.5h-43.6v-21.6h62.8l12.1 31.2 0.1-0.2v0.2l12.1-31.2z"/>
	<path id="Layer" class="s0" d="m96.6 88.8h-43.9v22h43.9v22.1h-43.9v22h-45.6v-88.2h89.5v22.1z"/>
	<path id="Layer" class="s2" d="m6.7 4.3h242v180.5h-242z"/>
</svg>