<svg version="1.2" xmlns="http://www.w3.org/2000/svg" viewBox="0 0 1564 473" width="1564" height="473">
	<title>logo - 2022-09-08T133002</title>
	<style>
		.s0 { fill: #ffffff } 
		.s1 { fill: #00bed6 } 
	</style>
	<g id="Layer">
		<path id="Layer" class="s0" d="m211.7 0.3l211.4 130.1v210.9l-210.8 130.7"/>
		<path id="Layer" class="s0" d="m212.3 472l-211.4-130.7v-210.9l210.8-130.1"/>
		<path id="Layer" class="s0" d="m211.7 166.4h-101.8l51.2-83.1 50.6-83 51.2 83 51.2 83.1z"/>
		<path id="Layer" class="s0" d="m212.3 472l-0.6-95.4 211.4-35.3z"/>
		<path id="Layer" class="s0" d="m423.1 130.4l-109 36-102.4-166.1z"/>
		<path id="Layer" class="s0" d="m212.3 0.3l-101.9 166.1-109.5-36z"/>
		<path id="Layer" class="s0" d="m314.1 166.4l109-36v210.9z"/>
		<path id="Layer" class="s0" d="m0.9 341.3v-210.9l109.5 36z"/>
		<path id="Layer" class="s0" d="m0.9 341.3l211.4 35.3v95.4z"/>
		<path id="Layer" class="s0" d="m423.1 341.3l-211.4 35.3 102.4-210.2z"/>
		<path id="Layer" class="s0" d="m110.4 166.4l101.9 210.2-211.4-35.3z"/>
		<path id="Layer" class="s0" d="m314.1 166.4l-51.2 104.8-51.2 105.4-50.6-105.4-51.2-104.8h101.8z"/>
	</g>
	<g id="Layer">
		<path id="Layer" fill-rule="evenodd" class="s0" d="m652.1 99.8v157.8h54.7v-158.4h116c28.8 0 54.2 5.9 76.5 17.7 22.4 11.8 35.9 28.3 48.3 49.5 12.4 21.2 18.8 45.3 18.8 71.8 0 27.1-6.4 51.2-18.8 71.9-12.4 21.2-30 37.1-53 48.8-22.9 11.8-45.3 17.1-75.3 17.1h-112.5v-77.7h-54.7v78.3h-50.7v-78.9h-124.2v-32.4l146-165.5zm-50.6 86.6l-61.8 70.7h61.8zm215.5 147.8c29.4 0 52.9-8.9 71.2-26.5 17.7-17.7 27.1-41.3 27.1-70.1 0-30-8.8-53.6-27.1-70.7-18.3-17.1-42.4-25.9-73-25.9h-54.8v193.2z"/>
	</g>
	<g id="Layer">
		<g id="Layer">
			<path id="Layer" class="s1" d="m1038.9 99.8l94.7 109 94.8-109h50.1v275.6h-56v-193.7h-1.7l-83.6 97.1h-7.7l-83.6-97.1h-1.7v193.7h-56v-275.6zm524.6 0v45.4h-102.5v230.8h-55.9v-231.4h-102.4v-45.4h260.8z"/>
		</g>
	</g>
</svg>