<svg version="1.2" xmlns="http://www.w3.org/2000/svg" viewBox="0 0 1560 157" width="1560" height="157">
	<title>fluidra-svg</title>
	<style>
		.s0 { fill: #ffffff } 
	</style>
	<g id="Layer">
		<path id="Layer" fill-rule="evenodd" class="s0" d="m132.8 71.6v32.7h-89.9v51.8h-42.2v-91.8c0-35 28.6-63.6 63.7-63.6h116.4v35.1h-111.1c-14.8 0-26.8 12-26.8 26.8v9zm501.9 28.5c0 33.3-38.4 55.7-95.6 55.7-57.1 0-95.5-22.4-95.5-55.7v-99h42.2v94.2c0 17 20.5 27.6 53.3 27.6 32.9 0 53.4-10.6 53.4-27.6v-94.2h42.2zm74.5-99h42.2v150.5h-42.2zm317.8 76.8c0 22.2-9.5 40.6-28.4 54.7-16.3 12.3-38.3 19-62 19h-110.8v-150.5h105.7c58.1 0 95.5 30.2 95.5 76.8zm-93.2-44h-65.8v85h66c15.4 0 30.7-6.9 39.9-17.9 5.8-7 9-15.4 9-23.6 0-25.3-20.6-43.5-49.1-43.5zm338.1 55.7c8 8.6 12.3 19.6 12.3 32v30h-41.8v-31c0-10.1-8.7-16.3-22.7-16.4-3.4 0.1-6.3 0.1-8.6 0h-71.9v47.4h-42.3v-150.5h128.5c36.2 0 60.4 20.1 60.4 50.1v4.3c0 14.4-4.7 25.8-13.9 34.1zm-132.7-55.7v37.5h82.2c14.4 0 22.6-6.2 22.7-17v-4.2c0-10.1-8.8-16.3-22.9-16.3zm-834.7 79.2h92.8v37.5h-94.9c-35.7 0-64.7-28.9-64.7-64.5v-85h41.9v86.4c0 13.9 11.4 25.6 24.9 25.6zm1232.4-1.3l22 39.3h-43.1l-17.3-30.7q-2.7 0-5.7-0.2c-3.6-0.3-7.6-1-12.7-1.9-31.2-5.7-65.9-9-88.6 22.2l-6 10.7h-43.2l84.1-149.7h48.6l46.8 83.5c4.1-1.9 8.7-4.4 14.1-7.6l2-1.3 15.9 26.3-2.1 1.3c-5.5 3.2-10.3 5.9-14.8 8.1zm-115.5-25.2c8.8-1.9 17.5-2.6 25.7-2.6 12.6 0 24.1 1.6 32.7 3.1l-29.4-51.9z"/>
	</g>
</svg>