<svg version="1.2" xmlns="http://www.w3.org/2000/svg" viewBox="0 0 1549 360" width="1549" height="360">
	<title>FirstEnergy_Logo-svg</title>
	<style>
		.s0 { fill: #ffffff } 
	</style>
	<g id="layer1">
		<path id="path2860" class="s0" d="m0 270.2c400.7-34 1136.2-66.2 1381 46l-7.7 43.1c-261.7-145.9-1318.6-92-1373.3-89.1z"/>
		<path id="path2880" fill-rule="evenodd" class="s0" d="m114.4 0.3h166.1l-5.5 39h-121.9l-7.1 50.8h112l-5.2 37.1h-112l-13.8 97.2h-44.3z"/>
		<path id="path2884" fill-rule="evenodd" class="s0" d="m662.8 0.6h166l-5.5 39h-121.9l-7.1 50.8h112l-5.2 37.1h-112l-8.1 57.8h130.4l-5.4 38.9h-174.6z"/>
		<path id="path2864" fill-rule="evenodd" class="s0" d="m271.1 65.3h40.2l-22.3 158.9h-40.2zm54.4 0h40.1l-3 22h0.6c12.1-18.2 31.6-25.7 55-25.7l-4.3 30.4q-2.1 4-3.6 8.5c-26.4 0.8-51.5 13.3-56.2 46.8l-10.8 77h-40.2c0 0 22.4-159 22.4-159zm88.4 26.7c12.5-23.1 41.8-33.5 75.3-33.5 39.9 0 58.2 19.5 64.8 28.9l-31.5 25.2c-3.5-10.4-15-22.7-38.7-22.7-18.7-0.3-31.5 6-32.8 15.4-3.9 27.7 104.5 4.1 96.1 64.1-5.4 38.3-43.7 55.6-81.9 55.6-39.2 0-64.1-12.9-76.7-28.9l33.4-22.3c7.5 12.9 24 19.8 45.4 19.8 19.1 0 33.7-10.1 34.9-18.6 3.7-27-102.5-4.7-94-65q0.7-5 2.1-9.5 1.2 0 2.5 0zm159.1-75.7h40.2l-6.6 47.3h35.9l-3.9 27.6h-35.9l-11.3 80.4c-1.7 12.6-0.1 19.5 15.4 19.5 5.6 0 12-1.3 18.1-1.9l-4.4 31.4c-9.9 1.9-20 3.8-32.5 3.8-33 0-42.2-14.2-38.8-38.4zm264.1 49h40.2l-2.2 15.7h0.7c13.7-13.8 32-19.4 48.1-19.4 39.6 0 54.7 19.1 49.8 54l-15.3 108.7h-40.2l13.7-97.1c2-14.4-2.9-28.6-23.7-28.6-19.4 0-37.3 12.6-41.4 41.8l-11.8 83.9h-40.2c0 0 22.3-159 22.3-159zm180 85.6c-2.6 23.5 16 38.9 37.7 38.9 31.6 0 46.6-17.3 51.3-22.6l31.3 18.8c-15.1 18.3-42.1 39-87.5 39-54.1 0-80.3-35.8-73.7-83.2 6.7-47.5 43-83.3 97-83.3 55.7 0 75.1 35.5 67.1 92.4zm85.2-26.5c1.2-8.5-6.4-31.4-33.5-31.4-23.4 0-40.9 14.4-47.5 31.4zm58.9-59.1h40.1l-3 22h0.6c12.1-18.2 31.6-25.7 55-25.7l-4.3 30.8q-3.1 3.9-5.8 8.2c-25.6 1.4-49.4 14.1-54 46.7l-10.8 77h-40.2c0 0 22.4-159 22.4-159zm88.4 27.1c15.6-19.7 38.7-30.8 64.2-30.8 24 0 35.8 7.8 44.1 19.1h0.6l2.2-15.4h40.2q0 0 0 0h-5.2l3.2 14.2c-5.4 38.4-19.8 141.3-19.8 141.3-6.4 45.2-43.8 56.2-94.6 56.2-52.7 0-63.7-29.5-60.9-49.3h42.1c1.5 11 11.4 19.8 31.5 19.8 26.1 0 39.7-12.6 42.4-32l2.4-17c-14.7 13.2-35.4 17.6-49.9 17.6-41.5 0-68.3-29.5-61.6-77.3 2-14.5 6.7-27.3 13.3-38.2q2.3-0.1 4.7-0.1zm68.4 4.3c-30.3 0-42.7 25.2-45.4 42.1-2.1 17 3.3 42.1 33.6 42.1 30.3 0 42.8-25.1 45.5-42.1 2-16.9-3.4-42.1-33.7-42.1zm151.2 141.7c-13.4 29.2-28.5 38.6-57.5 38.6l-24-0.1 4.9-34.9 15.8-0.2c12.8 0 17.9-3.4 24.3-13.5l-33.8-148.8c1.2-8.6 1.9-14 1.9-14.2h38l19.7 115.6h0.6l47.5-115.6h41.6c0 0-79 173.1-79 173.1zm57.5 33.1q-7.4 7.4-17.8 7.4-10.4 0-17.8-7.4-7.3-7.4-7.3-17.9 0-10.4 7.4-17.7 7.3-7.4 17.7-7.3 10.4-0.1 17.8 7.3 7.3 7.3 7.3 17.7 0 10.5-7.3 17.9zm-33.1-33.2q-6.3 6.3-6.3 15.3 0 9.1 6.3 15.4 6.3 6.4 15.3 6.4 9 0 15.3-6.4 6.3-6.3 6.3-15.4 0-9-6.3-15.3-6.4-6.4-15.3-6.4-8.9 0-15.3 6.4zm14.8 1.4q5.1 0.1 7.5 1 4.3 1.8 4.3 7 0 3.7-2.7 5.5-1.4 0.9-4 1.3 3.3 0.5 4.8 2.7 1.5 2.2 1.5 4.3v2q0 1 0 2.1 0.1 1.1 0.3 1.4l0.2 0.3h-4.6q0-0.1-0.1-0.2 0-0.2 0-0.3l-0.2-0.9v-2.2q0.1-4.8-2.6-6.4-1.5-0.8-5.3-0.8h-3.9v10.8h-4.8v-27.6c0 0 9.6 0 9.6 0zm5.2 4.4q-1.8-1-5.8-1h-4.2v10h4.4q3.1 0 4.6-0.6 2.9-1.2 2.9-4.4 0-3-1.9-4z"/>
	</g>
</svg>