<svg version="1.2" xmlns="http://www.w3.org/2000/svg" viewBox="0 0 1568 326" width="1568" height="326">
	<title>Fertiglobe-AR-2021-vF-1-pdf-svg-svg</title>
	<defs>
		<clipPath clipPathUnits="userSpaceOnUse" id="cp1">
			<path d="m-408.2-4035.47h7160.43v5064.54h-7160.43z"/>
		</clipPath>
	</defs>
	<style>
		.s0 { fill: #88c946 } 
		.s1 { fill: #14234c } 
		.s2 { fill: #184ca2 } 
	</style>
	<g id="Clip-Path: Clip-Path: Page 1" clip-path="url(#cp1)">
		<g id="Clip-Path: Page 1">
			<g id="Page 1">
				<path id="Path 7" class="s0" d="m710.1 12.8c0 32.3-26.4 58.6-58.7 58.6h-11.9v-12.3c0-32.3 25.9-58.7 58.7-58.7h11.9z"/>
				<path id="Path 10" fill-rule="evenodd" class="s1" d="m0.8 259.9v-198.1c0-32.3 26-58.7 58.3-58.7h97.3l-5.9 39.5h-81.6c-14.5 0-26 11.5-26 25.5v26.4h99.5l-5.5 38.3h-94v127.1z"/>
				<path id="Path 11" fill-rule="evenodd" class="s1" d="m244.5 222.8q6.8 0 13.6-1.3 7.2-1.2 14-2.9 6.4-2.2 11.9-4.7 6-2.6 9-6l18.2 36.6q-13.1 7.2-30.6 12.8-17 5.5-41.6 5.5-19.6 0-36.2-6.8-16.6-6.4-28.5-18.3-12.3-11.5-19.1-27.6-6.8-15.8-6.8-34.5 0-19.1 6.8-35.3 7.2-15.7 19.1-27.6 11.9-11.5 27.7-17.9 16.1-6.4 34-6.4 19.1 0 35.3 6.9 15.7 6.8 27.2 19.5 11.5 13.2 17.9 31.9 5.9 18.7 5.1 42.5h-130.6q3.8 17 17 25.1 13.2 8.5 32.3 8.5zm19.2-90.6q-11.5-7.6-28.1-7.6-17 0-28.1 8.9-11.4 8.5-15.3 21.7h85.9q-2.9-15.3-14.4-23zm179.8-0.4c0 0-26.8-0.4-45.5 3-2.1 0-3.8 1.7-3.8 3.8v120.8h-40.8v-136.9c0-9.4 4.2-21.3 22.1-24.3 28.1-4.6 73.6-4.2 73.6-4.2zm28-37.4h31.1v-54l41.2-6.4v60.4h62.5l-5.5 37.8h-57v60q0 8.5 1.3 14 1.7 5.5 5.1 8.9 3.4 3 8.9 4.7 5.5 1.3 14 1.3h34.5l-6 38.2h-33.1q-17 0-29.4-2.5-12.3-2.6-20.8-8.9-8.1-6-11.9-16.2-3.8-9.8-3.8-24.7v-74.8h-36.6zm167.5 0h41.3v165.4h-41.3z"/>
				<path id="Path 11" fill-rule="evenodd" class="s2" d="m719.8 207.1q-6.4-15.3-6.4-33.6 0-18.3 6.4-34 6.4-15.3 18.7-26.8 12.8-11.5 30.6-17.9 17.9-6.3 40.4-6.3 36.2 0 66.4 8.5v149.7q0 22.1-4.3 36.9-4.2 14.9-14 24.3-10.2 9.3-26.4 13.2-16.6 4.2-41.2 4.2-4.7 0-11.1-0.8-5.9-0.5-12.7-1.3-6.4-1.3-12.4-2.6-6.3-1.2-11-2.5l-6.8-42.5c3.8 1.7 6.4 2.9 11.5 4.2q7.6 2.6 15.3 4.3 8 1.7 15.3 2.5 7.6 0.9 13.6 0.9 9.3 0 17.4-1.7 8.1-1.7 13.6-5.1 6-3.4 8.9-8.5 3.4-5.1 3.4-12.4v-3.4q-8.5 1.3-15.7 1.7-7.2 0.5-12.7 0.5-21.3 0-38.3-6.4-17-6.8-29.3-18.3-12.4-11.1-19.2-26.8zm115.2-74.8q-6.8-1.7-13.1-2.6-6.4-1.3-12.4-1.3-24.2 0-38.7 11.1-14.4 10.6-14.4 34 0 23 14.4 34 14.5 11.1 38.7 11.1 5.6 0 11.5-0.9 6.4-0.8 14-2.5zm83.8 127.6v-250.9l41.3-6v256.9zm199-3.4q-16.2 6.8-35.3 6.8-19.2 0-35.3-6.8-16.2-6.9-28.5-18.3-11.9-11.5-18.7-27.7-6.8-16.1-6.8-34.4 0-18.3 6.8-34.5 6.8-15.7 18.7-27.6 12.3-11.9 28.5-18.7 16.1-6.4 35.3-6.4 19.1 0 35.3 6.4 16.1 6.8 28.4 18.7 11.9 11.9 18.7 27.6 6.9 16.2 6.9 34.5 0 18.3-6.9 34.4-6.8 16.2-18.7 27.7-12.3 11.4-28.4 18.3zm-54.9-37q8.5 3.4 19.6 3.4 10.6 0 19.1-3.4 8.5-3.9 14.9-10.2 5.9-6.4 8.9-14.9 3.4-8.5 3.4-18.3 0-9.8-3.4-18.3-3-8.5-8.9-14.9-6.4-6.4-14.9-10.2-8.5-3.8-19.1-3.8-11.1 0-19.6 3.8-8.5 3.8-14.5 10.2-5.9 6.4-8.9 14.9-3.4 8.5-3.4 18.3 0 9.8 3.4 18.3 3 8.5 8.9 14.9 6 6.3 14.5 10.2zm183.3-128.5q8.5-1.2 15.7-1.7 6.8-0.4 12.8-0.4 21.2 0 38.2 6.4 17.5 6.8 29.4 18.7 12.3 11.9 18.7 28.1 6.8 15.7 6.8 34.4 0 18.3-6.4 34-6.8 16.2-19.1 27.7-11.9 11.9-30.2 18.3-17.9 6.8-40.4 6.8-35.7 0-66.4-8.5v-245.8l40.9-6zm0 128.4q14.4 3.4 25.5 3.4 24.6 0 38.7-11.4 14.4-11.1 14.4-35.3 0-23.9-14.4-35.8-14.1-11.4-38.7-11.4-5.6 0-11.9 0.4-6 0.8-13.6 3zm244 2.9q6.4 0 13.6-0.8 7.3-1.3 14.1-3.4 6.3-1.7 11.9-4.3 5.5-2.5 8.9-5.9l18.3 36.5q-13.2 7.3-30.6 12.8-17.5 5.5-41.7 5.5-19.6 0-36.1-6.8-16.6-6.3-29-18.3-11.9-11.4-18.7-27.6-6.8-15.7-6.8-34.4 0-19.2 6.8-35.3 7.3-16.2 18.7-27.7 12-11.5 28.1-17.8 16.2-6.4 34-6.4 19.2 0 35.3 6.4 15.8 6.8 27.2 20 11.5 13.1 17.9 31.8 5.9 18.8 5.1 42.6h-131q4.3 17 17.5 25.1 12.7 8 32.3 8zm19.1-90.1q-11.5-7.7-28.1-7.7-17 0-28.4 8.5-11.1 9-14.9 22.2h85.9q-3-15.4-14.5-23z"/>
			</g>
		</g>
	</g>
</svg>