<svg version="1.2" xmlns="http://www.w3.org/2000/svg" viewBox="0 0 1561 1559" width="1561" height="1559">
	<title>logo-white (3)-svg</title>
	<style>
		.s0 { fill: #ffffff } 
	</style>
	<path id="Layer" fill-rule="evenodd" class="s0" d="m998.8 0.3h-998.5v1309.3c157.1-921.9 998.5-1309.3 998.5-1309.3zm-514.3 746.6c264.6-259.6 709.7-469.6 1075.7-504.2v-242.4h-98.8c-142 36.8-553 160.1-981.3 616.7-428.1 456.7-479.8 896-479.8 896 19.3-80.1 219.5-506.4 484.2-766.1zm383 13c103.3-56.3 447.4-161.5 692.7-176.6v-179.1c0 0-299 70.1-382.8 106.8-84 36.7-301.3 103.8-647.4 367.5-389.8 301.2-503.1 680.2-503.1 680.2 163-287.8 386.5-498 504.9-597.5 60.7-51.2 232.4-145 335.7-201.3zm692.7 798.8v-800.2c0 0-486.2 46.8-860.5 248.1-471.3 253.3-631 552.1-631 552.1z"/>
</svg>