<svg version="1.2" xmlns="http://www.w3.org/2000/svg" viewBox="0 0 1520 351" width="1520" height="351">
	<title>FHTX_CorporateDeck_June2022-1-pdf-svg</title>
	<defs>
		<clipPath clipPathUnits="userSpaceOnUse" id="cp1">
			<path d="m-729.08-943.99h2934.55v2267.62h-2934.55z"/>
		</clipPath>
	</defs>
	<style>
		.s0 { fill: #90c63e } 
		.s1 { fill: #ffffff } 
		.s2 { fill: #43bfee } 
	</style>
	<g id="Clip-Path: Page 1" clip-path="url(#cp1)">
		<g id="Page 1">
			<path id="Path 11" class="s0" d="m291.3 1.8c48 6.6 82.3 42.6 89 88h-38.2c-5.9-26.3-25-47.6-50.8-54.3z"/>
			<path id="Path 12" class="s1" d="m380.3 124.1c-8 50.2-49.9 89.2-106.4 89.2-63 0-107.1-47.9-107.1-106.1v-0.6c0-52.4 36.9-97.2 90.8-104.8v33.3c-32 8-53 36.5-53 71.2v0.3c0 40.1 29.3 73.4 69.9 73.4 35 0 60.9-23.9 67.6-55.9z"/>
			<path id="Path 13" class="s2" d="m929 213.3c-48.2-6.6-82.2-43.1-88.9-88.3h38.2c5.7 26.7 24.8 47.4 50.7 54.6z"/>
			<path id="Path 10" fill-rule="evenodd" class="s1" d="m636.9 4h35.9v85.4h97.8v-85.4h36.5v205.8h-36.5v-87h-97.8v87h-35.9zm450 0h91.1c25.8 0 46.1 7.1 59.1 20.4 11.1 11.1 17.2 26.3 17.2 44.5v0.5c0 33.7-20.3 54.3-48.9 62.3l55.2 78.2h-42.6l-50.4-71.6h-45.2v71.6h-35.5zm88.9 101.9c25.7 0 42.2-13.4 42.2-34.7 0-22.8-16.1-34.8-42.8-34.8h-52.8v69.5zm111.6-101.9h33.7l109.8 142.2v-142.2h35.2v205.8h-29.8l-113.4-146.7v146.7h-35.5zm-1134.2 0v32.4h-116.5v56.5h103.1v33.4h-103.1v83.5h-36.2v-205.8zm256.1 103.2v-0.6c0-57.8 44.1-106.1 105.7-106.1 35.6 0 57.8 9.6 78.8 27.4l-22.6 27.6c-16.1-13.7-31.7-22.2-57.8-22.2-37.8 0-66.7 33.3-66.7 72.9v0.4c0 42.8 28 73.9 70.2 73.9 19.1 0 36.9-6.3 49.3-15.5v-38.7h-52.5v-31.7h87.7v86.7c-20.6 17.4-49.5 32-85.8 32-64.1 0-106.3-45.7-106.3-106.1zm430.9-16.1c7.4-50.2 49.3-89.3 106.1-89.3 63.2 0 107.3 47.6 107.3 105.7v0.4c0 52.6-37.1 97.5-90.8 105.4v-33.7c31.5-7.6 53-36.5 53-70.8v-0.9c0-40-28.9-73.3-69.8-73.3-35.2 0-61 24-67.7 56.5z"/>
			<path id="Path 15" fill-rule="evenodd" class="s1" d="m299.9 281h-26v-13.4h66v13.4h-26v68.5h-14zm55-13.3h13.9v34.3h39.1v-34.3h14.2v81.9h-14.2v-34.9h-39.1v34.9h-13.9zm88 0h60v12.9h-46.1v21.3h40.9v12.5h-40.9v21.8h46.7v13.4h-60.6zm77.4 0h36c10.3 0 18.3 3.1 23.7 8.5q6.7 6.6 6.7 17.2v0.6c0 12.7-8.2 21.3-19.3 24.4l21.8 31.1h-16.8l-19.7-28.9h-18.1v28.9h-14.3zm35.2 40.4c10.2 0 16.9-5.3 16.9-13.3v-0.4c0-8.9-6.3-13.3-16.9-13.3h-20.9v27zm77.2-40.7h13.4l35.6 82.2h-15.1l-8.1-20h-38.5l-8.6 20h-14.2zm20.5 49.7l-14.2-32.4-13.9 32.4zm42.6-49.3h32c18.2 0 30.2 11.1 30.2 27v0.6c0 18.2-14.2 27.6-32 27.6h-16.5v26.7h-13.7zm30.2 42.6c11.1 0 17.8-6.3 17.8-14.6v-0.6c0-9.3-7.1-14.1-17.8-14.1h-16.5v29.3zm47.2-42.6h59.5v12.9h-45.7v21.4h40.9v12.4h-40.9v21.8h46.6v13.4h-60.4zm76 47v-47h14.3v46.3c0 15.5 7.6 23.5 20.3 23.5 12.5 0 20.6-8 20.6-22.8v-47h14.1v46.3c0 24.4-13.7 36.3-34.7 36.3-21.3 0-34.6-11.9-34.6-35.6zm108.9-33.7h-25.7v-13.3h65.7v13.3h-25.7v68.6h-14.3zm56-13.4h14.2v81.9h-14.2zm32 40.9c0-23.1 17.4-42.2 42.3-42.2 14.6 0 23.5 5.4 31.7 12.8l-9.5 10.7c-6.1-6.3-13.3-10.7-22.6-10.7-15.6 0-26.7 13.3-26.7 29.4 0 15.6 11.1 28.9 26.7 28.9 10.2 0 16.5-4 23.5-10.7l8.9 9.4c-8.5 8.9-17.8 14.7-33 14.7-23.5 0-41.3-18.7-41.3-42.3zm84.1 28.9l8.4-10.1c7.6 6.6 15.2 10.5 25.4 10.5 8.9 0 14.6-4.4 14.6-10.2v-0.3c0-6-3.5-8.9-18.2-12.6-17.4-4.5-27-9.3-27-24.5 0-14.1 11.5-23.5 27.4-23.5 11.7 0 21.5 3.5 29.5 10.2l-7.6 10.7c-7.1-5.4-14.7-8.5-21.9-8.5-8.3 0-13.7 4.4-13.7 9.8v0.6c0 5.7 4.1 8.9 19.6 12.4 17.3 4.4 26.2 10.2 26.2 23.9 0 15.5-12.1 24.4-28.9 24.4-12.5 0-24.5-3.9-33.8-12.8zm350-314.3c0-10.8 8.9-20.1 20-20.1 11.1 0 19.5 8.9 19.5 19.7v0.4c0 11.1-8.4 20.3-19.5 20.3-11.1 0-20-9.2-20-20.3zm37.8 0v-0.4c0-9.5-8.2-17.4-17.8-17.4-10.4 0-17.8 7.9-17.8 17.8 0 9.8 7.4 18.1 17.8 18.1 9.6 0 17.8-8.3 17.8-18.1zm-26.3-10.8h9.8c4.8 0 8.3 1.9 8.3 6.7 0 3.7-1.6 5.4-4.4 6.6l5.4 7.3h-6.1l-4.5-6.3h-3.1v6.3h-5.4zm9.3 10.2c2.2 0 3.7-1.3 3.7-3.2 0-1.7-1.5-2.6-3.7-2.6h-3.9v5.8z"/>
		</g>
	</g>
</svg>