<svg version="1.2" xmlns="http://www.w3.org/2000/svg" viewBox="0 0 1551 1212" width="1551" height="1212">
	<title>Screenshot 2022-10-03 at 11-svg</title>
	<style>
		.s0 { fill: #ffffff } 
	</style>
	<g id="#ffffffff">
		<path id="Layer" class="s0" d="m6.6 0.5q772.2 0 1544.4 0c0 16.6 0 33.1 0 49.6q-772.2 0-1544.4 0c0-16.5 0-33 0-49.6z"/>
		<path id="Layer" class="s0" d="m726.1 166.5c8.6-5.4 18.9-4.6 28.6-4.9 2.1 59.8 11 119.1 21.7 177.9-10 2.2-19.9 4.4-29.9 6.6-16.3-29.5-30.8-63.8-61.8-80.9-32.2-17.3-69.5-20.1-105.2-23.8-83-5.2-166.2-2.5-249.3-3.1-0.2 106.5 0.2 213.1-0.2 319.7 34.9 0.6 69.9 0.1 104.9 0.3 51.2-0.2 102.8 1.2 153.4-7.9 22.8-4.3 47.6-12.6 60.6-33.2 9.8-16.9 14.6-36 20-54.6 10.4 0 20.7 0 31.1 0-6.5 53.1-12.2 106.9-7.9 160.5 2.3 24.4 5 48.7 7.9 73.1-10.4-0.1-20.8-0.1-31.1-0.1-6.1-26-8.9-60.5-37.5-71.7-30.8-12.1-64.7-11.9-97.4-13.6-67.9-1.7-135.8-0.4-203.8-0.8 0 97.5-0.1 195 0 292.5 0.8 31.3 3.8 67.1 28.5 89.6 25.8 22.6 61.7 25.7 94.3 29.6 0 7.2 0 14.3 0 21.5-54-2.5-108.1-6.8-162.2-6.6-40.2 0-80.2 4.1-120.3 6.6 0-7.1 0-14.2 0-21.3 21.1-4.5 45.3-9.1 58.3-28.3 13.8-21.7 12.4-48.6 13.9-73.3 0.4-195.3 0.1-390.7 0.2-586-1.3-39.2 5-88.2-28.6-116.3-12.5-10.2-28.5-13.6-43.8-17.1q0.1-10.7 0.1-21.3c59.2 8.5 119.1 6.7 178.7 6.8 89.9 0.1 180 0 269.9 0.1 36.4 0.4 74.1-2.8 106.9-20z"/>
		<path id="Layer" class="s0" d="m1452.6 166.6c8.6-5.4 18.9-4.7 28.8-5 2.2 59.8 11 119 21.7 177.7-9.7 2.3-19.5 4.7-29.2 7.1-11.7-21-22.8-42.6-37.9-61.4-25.8-29.4-66.7-36.5-103.6-40.8-91.5-9.7-183.7-4.7-275.5-5.9 0 106.6-0.1 213.3 0 320 57.5-0.2 115 0.3 172.4-0.3 33.4-1.4 67.3-2.3 99.8-10.7 19.2-5.1 38.8-15 48.5-33.3 8.3-16.2 13.1-34 18-51.4q15.5-0.1 31.1 0c-6.3 51.7-11.8 104.1-8.2 156.3 2.2 25.8 5.1 51.5 8.2 77.2-10.4 0-20.8 0-31.1 0-5.8-23.2-7.4-51.8-28.5-66.8-23.7-14.4-52.5-14.8-79.3-17.3-76.9-3.6-153.9-1.4-230.9-2 0 97.5-0.1 194.9 0 292.3 0.8 31.5 3.8 67.4 28.7 89.9 25.8 22.5 61.6 25.6 94.1 29.5q-0.1 10.7 0 21.5c-54.1-2.5-108.2-6.8-162.3-6.6-40.2-0.1-80.2 4.2-120.2 6.5 0-7.1 0.1-14.2 0.1-21.2 21-4.5 45.1-9.1 58.1-28.1 13.9-21.6 12.5-48.5 14.1-73.2 0.3-187.9 0-375.8 0.1-563.7-0.2-30.3 1.2-60.7-3.2-90.7-2.9-18.4-10.6-37.2-26-48.6-12.3-9.9-28.1-13.3-43.1-16.7 0-7.1 0-14.2 0-21.3 35.4 4.8 70.9 6.8 106.6 6.8 117.2 0.1 234.3 0 351.6 0 33.2 0 67.2-4.2 97.1-19.8z"/>
		<path id="Layer" class="s0" d="m0.5 1161.9q772.2 0 1544.4 0 0 24.8 0 49.6-772.2 0-1544.4 0 0-24.8 0-49.6z"/>
	</g>
</svg>