<svg version="1.2" xmlns="http://www.w3.org/2000/svg" viewBox="0 0 1548 1378" width="1548" height="1378">
	<title>logo (32)-svg</title>
	<style>
		.s0 { fill: #00ae64 } 
		.s1 { fill: #ffffff } 
		.s2 { fill: #1b459c } 
	</style>
	<g id="Layer">
		<path id="Layer" class="s0" d="m1547.4 1377.6h-1134.5c-227.7-3.8-412.9-185.2-412.9-412.9v-964.7h1134.5c227.7 0 409 185.2 412.9 412.9z" />
		<path id="Layer" class="s1" d="m1470.2 409v891.4h-1061.2c-185.2 0-335.7-150.4-335.7-335.7v-891.4h1061.2c185.2 0 335.7 150.5 335.7 335.7z" />
		<path id="Layer" class="s2" d="m1423.9 412.9v841.2h-1011c-158.2 0-289.4-127.3-289.4-289.4v-841.2h1007.1c162.1 0 293.3 131.2 293.3 289.4z" />
		<path id="Layer" fill-rule="evenodd" class="s1" d="m640.6 1122.9l231.5-883.6h54l-231.5 879.8zm598.1-258.6c27 19.3 42.4 50.2 50.2 81.1c7.7 38.6-3.9 77.1-30.9 104.2c-7.7 7.7-42.5 54-127.3 54h-239.3c0 0 154.4-30.9 127.3-158.2c-7.7-23.2-19.2-50.2-38.5-69.5c-27.1-27-54.1-46.3-84.9-57.9c-3.9 0 0 0 0 0c162-34.7 123.4-154.3 123.4-154.3c-19.2-61.8-65.6-108.1-127.3-127.4h247c30.8 0 61.7 11.6 88.7 30.9c30.9 23.2 54 54 61.8 88.8c11.5 38.5 0 77.1-23.2 108c-27 30.9-61.7 46.3-100.3 54c27 11.6 54 27 73.3 46.3zm-683-54h-289.4c0 0 154.3-27 127.3-162.1c-23.1-65.6-73.3-115.7-138.9-135h262.4c34.7 3.8 65.6 19.3 92.6 38.6c30.9 23.1 54 57.8 65.6 96.4c11.6 42.5 3.9 92.6-19.3 115.8c-27 30.9-65.6 46.3-100.3 46.3zm73.3-548l-3.9 196.8h-374.3v-196.8z" />
	</g>
</svg>