<svg version="1.2" xmlns="http://www.w3.org/2000/svg" viewBox="0 0 1538 483" width="1538" height="483">
	<title>x5-svg</title>
	<defs>
		<clipPath clipPathUnits="userSpaceOnUse" id="cp1">
			<path d="m0 0h1537v482h-1537z"/>
		</clipPath>
	</defs>
	<style>
		.s0 { fill: #000000 } 
		.s1 { fill: #5faf2d } 
	</style>
	<g id="Clip-Path" clip-path="url(#cp1)">
		<g id="Layer">
			<path id="Layer" class="s0" d="m366.6 398.4l-43.2-73.9-42.4 73.9h-50.6l65.1-111.3-66.4-103.3h52.9l42.6 69 40.5-69h50.6l-65.2 106.7 67 107.9zm215.7-72.9c0 47.1-34.6 76.6-79.9 76.6-39.8 0-73.5-22.7-76.8-72.1h43.2c3 21.5 19.7 30.8 37.9 30.8 22.6 0 32.4-15.7 32.4-35.9 0-21.1-15.2-34.3-36.3-34.3-17.6 0-29.3 8.6-34.6 17.8h-41.4l14.3-124.5h135.9l-4.5 41.7h-97.2l-3.9 41.2c0 0 10.2-12.3 41.1-12.3 37.3 0 69.8 25.7 69.8 71.1"/>
			<path id="Layer" class="s1" d="m430.8 158.1q0 0.6-0.2 1.3-0.2 0.6-0.7 1.1-0.4 0.4-1 0.7-0.6 0.3-1.3 0.3-0.9-0.1-1.7-0.6-0.8-0.5-1.3-1.3c-47.1-76.5-121.5-74.9-217.8-74.9h-104.5l11.5 78.7c14.8 98.8 22.7 197.3 92.1 227.3 0.6 0.3 1.1 0.7 1.4 1.3 0.4 0.5 0.6 1.2 0.6 1.9q0 0.7-0.2 1.4-0.3 0.8-0.9 1.3-0.5 0.5-1.3 0.6-0.7 0.2-1.4 0c-102.6-18.4-160.6-68.6-179.2-224.5l-24.9-172.7h183c151.6 0 224.6 64.9 247.6 157.1q0.2 0.5 0.2 1z"/>
			<path id="Layer" fill-rule="evenodd" class="s0" d="m831 286.6c0 0 10.8 119.4-106.4 119.4-61.8 0-109.6-48.7-109.6-114.8 0-66.1 47.9-114.8 111.4-114.8 48.8 0 87.8 29 102.7 73.5h-27.5c-13-29.2-41.1-48.3-75.5-48.3-48.9 0-85.1 38.2-85.1 90.3 0 50.6 34.4 89.7 85.1 89.7 42.7 0 75.2-27.9 78.9-72.2h-83.3v-22.5h109.3zm131.8-62.1v27.1q-5.4-0.7-10.8-0.7c-35.6 0-60.4 23.9-60.4 68.8v82.7h-25.6v-175h25.6v39.2c10.2-26.1 30.7-42.7 60.7-42.7q5.3 0 10.5 0.6zm100.2 181.4c-48.5 0-87.7-40.7-87.7-91 0-50.3 39.2-91 87.7-91 48.5 0 87.7 40.7 87.7 91 0 50.3-39.2 91-87.7 91zm61.6-91c0-36.4-27.5-65.9-61.6-65.9-34.1 0-61.7 29.5-61.7 65.9 0 36.4 27.6 65.9 61.7 65.9 34.1 0 61.6-29.5 61.6-65.9zm203.7-87.5v175h-25.7v-34.7c-11.5 22.9-31.3 38.2-60.7 38.2-37.7 0-60.3-24.8-60.3-67.4v-111.1h25.7v106c0 31.2 14.2 47.4 42.1 47.4 33.7 0 53.2-24.8 53.2-63.7v-89.7zm208.6 87.5q0 0 0 0 0 0 0 0zm-79.8 91c-13.3 0.2-26.4-3.2-37.9-10.1-11.5-6.8-21-16.8-27.4-28.7v114.8h-25.7v-254.5h25.7v35.9c6.4-12.1 15.9-22.2 27.5-29.1 11.5-7 24.7-10.5 38.1-10.3 46.1 0 79.5 37.9 79.5 91 0 52.8-33.4 91-79.8 91zm53.9-91c0-36.4-26.7-65.9-59.7-65.9-33 0-59.7 29.5-59.7 65.9 0 36.4 26.7 65.9 59.7 65.9 33 0 59.7-29.5 59.7-65.9z"/>
		</g>
	</g>
</svg>