<svg version="1.2" xmlns="http://www.w3.org/2000/svg" viewBox="0 0 1534 1183" width="1534" height="1183">
	<title>vielogo-svg</title>
	<style>
		.s0 { fill: #ffffff } 
	</style>
	<g id="Layer">
		<g id="Layer">
			<path id="Layer" fill-rule="evenodd" class="s0" d="m513.5 34.2h-269.7l-21.5-33.5h269.7zm38.2 59.7l28.6 47.8h-269.7l-31-47.8zm-374.7 556.5h-43l-133.7-217.3h40.6zm117 0h-57.3l-133.7-217.4h54.9zm145.6 0h-93.1l-136-217.3h97.8zm155.2 0h-112.2l-131.3-217.3h109.8zm699.4 28.6q3.5-7.1 0-14.3c0-2.4-9.6-14.3-14.4-14.3-114.5-2.4-233.9-2.4-348.4-2.4-45.4-71.6-90.7-140.9-138.5-214.9 159.9 0 324.6 0 484.5 0 38.2 0 117 11.9 171.9 52.5 74 57.3 109.8 172 64.4 248.4-119.3 207.7-171.8 300.9-262.5 448.9q-143.2 0-286.4 0c-152.8-248.3-322.2-496.7-472.6-749.8 85.9 0 183.8 0 269.7 0 114.6 183.9 226.7 370.1 343.7 551.6 64.4-112.2 128.9-203 188.6-305.7zm-634.9-413.1h-269.8l-52.5-81.2h269.7zm-288.8-62.1l28.7 45.4h226.7l-28.6-45.4zm374.7 200.6h-269.7l-59.7-93.1h269.8zm-296-74.1l35.8 57.4h226.7l-35.8-57.4z"/>
		</g>
	</g>
</svg>