<svg version="1.2" xmlns="http://www.w3.org/2000/svg" viewBox="0 0 1263 1512" width="1263" height="1512">
	<title>fortum-svg</title>
	<style>
		.s0 { fill: #5ac37d } 
	</style>
	<path id="Layer" class="s0" d="m585.5 311.9c224.2-130.3 500.8-41.6 618.3 162.4 117.4 204.1 55.5 488.3-168.7 617.5-222.2 129.3-500.9 41.7-618.3-162.4-117.5-204-54.5-489.3 168.7-617.5z"/>
	<path id="Layer" class="s0" d="m1067.1 1145.2l148.4 257.5c-386.5 224.4-883.1 91.9-1106.3-295.9-223.1-387.8-90.7-883.5 296.9-1106.8l202.9 54.5-54.5 203c-254.1 146.3-326.7 471.1-192.2 702.9 133.5 232.9 450.6 332.3 704.8 184.8z"/>
</svg>