<svg version="1.2" xmlns="http://www.w3.org/2000/svg" viewBox="0 0 1480 662" width="1480" height="662">
	<title>FPHcare-logo-svg-pdf-svg</title>
	<defs>
		<clipPath clipPathUnits="userSpaceOnUse" id="cp1">
			<path d="m-1802.91 0.68h5075.73v1201.48h-5075.73z"/>
		</clipPath>
	</defs>
	<style>
		.s0 { fill: #ffffff } 
	</style>
	<g id="Clip-Path: Page 1" clip-path="url(#cp1)">
		<g id="Page 1">
			<path id="Path 1" fill-rule="evenodd" class="s0" d="m1028.1 656.3v-652.4h201c59.7 0 115.9-2.4 168 31.4 51.1 33 82.2 90.6 82.2 150.3 0 59.1-25.2 115.5-73.8 152.6-51.3 39.8-123.6 36.6-184.8 36.6h-77.6v281.5zm191.1-389.1c28.2 0 61 1.7 88.8-6.4 33.6-10.6 56.3-38.7 56.3-73.7 0-36.1-25.2-62.1-59.5-71.1-25.4-6.3-60.6-4.6-85.6-4.6h-76v155.8zm-391.4 306.5c-40.7 50.8-100.9 88-180.1 88-109.7 0-201-70.9-201-179.4 0-109.7 94-170 166-208.8-29.4-43-69.8-90.7-69.8-152.3 0-73.9 59.5-120 120.8-120 60.2 0 123.4 39 123.4 114.2 0 84.5-65.1 130.5-130.2 167.1l170.7 235.8c20.9-31 38.2-80.6 39.2-144h30.6c0 62.4-17.1 128.3-49.4 172.1l79.7 109.9h-41.4zm-69.1-455.5c0-58.1-50.8-87.4-92.3-87.4-45.3 0-92.2 36.7-92.2 87.4 0 50.9 30.3 93.7 66.3 141.3 56.2-30.1 118.2-71.8 118.2-141.3zm-129.2 179.3c-71.9 37.6-150.5 92.8-150.5 187.8 0 88 88.7 146.9 168.7 146.9 98.9 0 155.9-76.2 161.8-84.6zm-629-297h433.2v108.2h-311.4v106.2h270.7v104.6h-270.7v333.4h-121.8z"/>
		</g>
	</g>
</svg>