<svg version="1.2" xmlns="http://www.w3.org/2000/svg" viewBox="0 0 1389 1504" width="1389" height="1504">
	<title>first-republic-bank-logo-vector-svg</title>
	<style>
		.s0 { fill: #ba9000 } 
		.s1 { fill: #ffffff } 
	</style>
	<path id="Layer" class="s0" d="m818.4 957.4c0 0 7.7-72.6 31-77.8 6.5-9 7.8-20.7 12.9-27.2 5.2-6.5 11.7-11.6 22-10.3 6.5-6.5 6.5-15.6 16.9-27.2 7.7-9.1 11.6-10.4 18.1-7.8 10.3-9.1 12.9-22 20.7-29.8 5.2-3.9 15.5-6.5 20.7-3.9 9-7.8 18.1-31.1 28.4-38.9 6.5-5.2 15.6-5.2 20.7-2.6 10.4-7.7 19.5-28.5 28.5-40.1 2.6-3.9 9.1-14.3 22-10.4 15.5-10.4 23.3-42.8 32.4-55.7 11.6-14.3 23.2-10.4 23.2-10.4 7.8-37.5 23.3-63.5 37.6-68.6 0 0-1.3 15.5 7.7 20.7 0 0-1.3-11.7 5.2-35 10.4-38.9 27.2-49.2 27.2-49.2 0 0 0 14.2 7.7 19.4 0 0 0-27.2 6.5-47.9 6.5-24.6 19.4-38.9 27.2-40.2 0 0 1.3 22 11.6 29.8 0 0 5.2-32.4 14.3-50.5 16.8-37.6 34.9-37.6 34.9-37.6 0 0-6.5 14.3-5.2 37.6 1.3 25.9 3.9 25.9 3.9 27.2 0 0 6.5-25.9 15.5-54.4 16.9-51.9 38.8-64.8 51.8-57 0 0-9.1 12.9-19.4 59.6-13 54.4-10.4 68.6-10.4 68.6 0 0 5.2-15.5 10.4-29.8 14.2-42.7 29.7-80.3 46.6-69.9 0 0-13 60.9-28.5 125.6-11.7 50.6-27.2 102.4-40.1 132.2-31.1 70-210.9 261.7-270.4 338.1-27.2 46.7-33.7 49.3-31.1 80.4 1.3 16.8 5.2 24.6 3.9 23.3-40.1-35-102.2-28.5-152.7-47.9-31-11.7-51.7-32.4-51.7-32.4z"/>
	<path id="Layer" class="s0" d="m705.8 954.8c0 0 20.7-5.2 34.9 11.6 10.4 11.7 14.3 23.4 20.7 37.6 6.5 13 18.1 14.3 18.1 14.3 0 0-12.9 5.1-31 18.1-20.7 15.5-29.8 35-29.8 35 0 0 23.3-14.3 45.3 0 16.8 10.3 31.1 11.6 31.1 11.6 0 0-23.3 11.7-41.4 35-15.6 19.5-9.1 35-9.1 35 0 0 3.9-7.8 14.2-11.7 11.7-5.1 23.3 0 23.3 0 0 0-10.3 5.2-23.3 27.3-9 16.8-27.1 22-27.1 22 0 0 6.4 6.5 25.8 9 18.2 2.6 31.1-7.7 38.9-14.2 11.6-9.1 22-10.4 22-10.4-13 41.5 12.9 55.7 12.9 55.7 0 0 5.2-16.8 22-33.6 24.6-23.4 54.3-23.4 54.3-23.4 0 0-20.7 9.1-34.9 32.4-14.2 22-22 53.1 0 107.6 37.5 95.8 98.3 104.9 98.3 104.9 0 0-34.9 37.6-85.4 49.2-68.5 15.6-93.1-5.1-93.1-5.1 0 0-1.3 7.7 3.9 15.5 6.4 10.4 22 18.1 22 18.1 0 0-40.2 22.1-119.1-9-80.2-31.1-84.1 9-84.1 9 0 0-5.2-5.1-5.2-18.1 0-6.5 6.5-18.1 6.5-18.1 0 0-27.2 22-51.8 23.3-29.7 2.6-54.3-5.2-72.4-15.6-22-12.9-38.8-16.8-38.8-16.8 0 0 10.3-1.3 36.2-18.1 25.9-16.9 25.9-32.4 25.9-32.4 0 0-20.7 14.2-49.2 20.7-59.5 13-80.2-18.1-80.2-18.1 0 0 23.3 7.7 56.9-11.7 33.7-19.4 54.4-41.5 54.4-41.5 0 0-36.3 7.8-81.5 0-82.9-12.9-97.1-99.7-97.1-99.7 0 0 45.3 50.5 116.5 18.1 72.4-32.4 163-63.5 163-63.5-18.1-10.3-58.2-18.1-59.5-35 0-7.7-9.1-12.9-15.6-15.5-12.9-3.9-32.3-16.8-33.6-32.4-2.6-14.2-37.5-16.8-40.1-38.9-11.7-16.8-49.2-32.3-63.4-55.7-10.4-16.8-1.3-31.1-1.3-31.1 0 0-7.8-18.1-36.2-51.8-23.3-27.2-33.7-47.9-36.3-71.2-1.3-14.3 6.5-24.7 6.5-24.7 0 0-2.6-16.8-14.2-32.4-10.4-12.9-9.1-32.3 1.3-41.4 0 0-6.5-13-18.1-33.7-13-24.6 1.3-31.1 1.3-31.1 0 0-2.6-12.9-9.1-22-10.4-16.9-16.8-27.2-5.2-38.9 0 0-2.6-7.8-24.6-25.9-71.1-58.3-40.1-71.3-40.1-71.3 0 0-2.6-3.8-15.5-14.2-45.3-36.3-25.9-45.4-25.9-45.4 0 0-9-6.4-31-22-13-9-47.9-46.6-40.1-58.3 0 0 2.5-15.5-22-41.4-23.3-23.4-38.9-40.2-54.4-71.3-15.5-31.1-29.7-77.7-12.9-85.5 0 0 16.8 18.1 31 33.7 15.6 15.5 36.3 28.5 36.3 28.5 0 0-23.3-41.5-37.6-75.2-23.3-59.6-12.9-95.8-9-104.9 5.2-9.1 12.9-10.4 12.9-10.4 0 0 18.1 67.4 47.9 111.4 27.2 41.5 59.5 54.5 59.5 54.5 0 0-18.1-24.7-41.4-92-23.3-67.4-22-123.1-12.9-142.5 9-19.5 20.7-15.6 20.7-15.6 0 0 3.9 54.4 40.1 146.4 36.2 92 86.7 111.4 86.7 111.4 0 0-19.4-33.6-38.8-80.3-36.3-88.1-22-127-6.5-130.8 2.6-1.3 29.7 73.8 56.9 125.6 27.2 51.9 64.7 88.1 64.7 88.1l1.3 1.3c0 0-25.9-82.9-28.5-111.4-1.3-28.5 9.1-45.3 22-51.8 7.8-2.6 24.6 72.5 46.6 126.9 31.1 80.4 68.6 120.5 68.6 120.5 0 0 0-19.4 1.3-32.4 2.6-20.7 6.5-31 18.1-34.9 3.9-1.3 24.6 75.1 50.5 121.8 58.2 106.2 77.6 120.4 77.6 120.4 0 0 1.3-19.4 12.9-19.4 0 0 18.1 11.7 76.4 220.3 34.9 125.6 116.4 218.9 116.4 218.9 0 0-18.1-6.5-42.7 1.3-14.2 5.2-33.6 11.7-33.6 11.7z"/>
	<path id="Layer" class="s1" d="m837.8 1233.3c0 0-25.9-14.2-13-55.7 0 0-11.6 1.3-22 10.4-7.7 5.2-20.7 16.8-38.8 14.2-19.4-2.6-25.9-9-25.9-9 0 0 18.1-5.2 27.2-22.1 11.6-22 23.3-27.2 23.3-27.2 0 0-11.7-3.9-23.3 0-10.3 3.9-14.2 11.7-14.2 11.7 0 0-6.5-15.6 9-35 16.8-22 41.4-35 41.4-35 0 0-14.2-1.3-31-11.6-22-13-45.3 0-45.3 0 0 0 7.8-19.5 29.8-35 18.1-13 31-18.1 31-18.1 0 0-11.6-1.3-18.1-14.3-7.8-13-10.4-25.9-20.7-37.6-14.2-15.5-34.9-10.3-34.9-10.3 0 0 12.9-11.7 27.1-15.6 24.6-7.8 42.7-1.3 42.7-1.3 0 0 6.5 1.3 16.8 6.5 10.4 5.2 20.7 13 20.7 13 0 0 19.5 18.1 50.5 29.8 50.5 19.4 112.6 11.6 152.7 47.9 0 0 31 32.4 33.6 62.2 3.9 38.8-9 69.9-27.1 88.1-9.1 9.1-44 10.3-44 10.3 0 0-11.7-12.9-36.3-19.4-20.7-5.2-34.9-2.6-34.9-2.6 0 0-29.8 0-54.3 23.3-18.2 16.9-22 32.4-22 32.4z"/>
	<path id="Layer" class="s0" d="m955.5 1169.8c-12.9-14.2-7.8-25.9-12.9-41.4-7.8-20.7-10.4-19.4-10.4-19.4 0 0 19.4 7.7 50.5 28.5 34.9 22 23.3 55.7 23.3 55.7 0 0 11.6-2.6 22-14.3 19.4-22 27.1-68.7 27.1-68.7 16.9 76.5-23.3 97.2-23.3 97.2 0 0 11.7 42.8-16.8 58.3-20.7 13-55.6 9.1-55.6 9.1 0 0 28.5-7.8 31-38.9 1.3-19.4-11.6-40.1-11.6-40.1 0 0 5.2-2.6 5.2-6.5 2.6-10.4-13-3.9-28.5-19.5z"/>
</svg>