<svg version="1.2" baseProfile="tiny-ps" xmlns="http://www.w3.org/2000/svg" viewBox="0 0 1348 1557" width="1348" height="1557">
	<title>header-logo (1)-svg</title>
	<style>
		tspan { white-space:pre }
		.shp0 { fill: #4fb84f } 
		.shp1 { fill: #045433 } 
	</style>
	<g id="Layer">
		<path id="Layer" class="shp0" d="M673.45 1556.11C673.45 1556.11 0 1357.13 0 375.73L0 0L1347.13 0L1347.13 375.73C1347.13 1322.04 673.45 1556.11 673.45 1556.11Z" />
		<path id="Layer" class="shp1" d="M1347.13 92.41L1347.13 375.73C1347.13 1322.04 686.94 1561.18 673.45 1556.55C659.96 1551.92 646.62 1546.88 633.43 1541.44C620.25 1536 607.23 1530.16 594.4 1523.93C581.56 1517.71 568.92 1511.09 556.49 1504.1C544.06 1497.11 531.84 1489.74 519.85 1482.01L519.85 1070.54L777.82 1070.54C1018.79 1070.1 1062.36 942.6 1062.36 784.59L1062.36 690.44L519.85 690.44L519.85 378.57L1062.36 378.57C1277.19 375.73 1347.13 250.63 1347.13 92.41Z" />
	</g>
</svg>