<svg version="1.2" baseProfile="tiny-ps" xmlns="http://www.w3.org/2000/svg" viewBox="0 0 1540 459" width="1540" height="459">
	<title>header-logo (1)-svg</title>
	<style>
		tspan { white-space:pre }
		.shp0 { fill: #4fb84f } 
		.shp1 { fill: #ffffff } 
		.shp2 { fill: #045433 } 
	</style>
	<g id="Layer">
		<path id="Layer" class="shp0" d="M198.34 458.15C198.34 458.15 0 399.57 0 110.62L0 0L396.74 0L396.74 110.62C396.74 389.24 198.34 458.15 198.34 458.15Z" />
		<g id="Layer">
			<path id="Layer" fill-rule="evenodd" class="shp1" d="M506.92 221.89L506.92 65.51L602.72 65.51L602.72 77C602.71 79.79 602.15 82.56 601.08 85.13C600 87.71 598.43 90.05 596.46 92.02C594.48 93.99 592.13 95.56 589.55 96.62C586.97 97.69 584.21 98.24 581.41 98.24L545.42 98.24L545.42 131.09L592.9 131.09L592.9 142.19C592.91 145.06 592.35 147.9 591.26 150.54C590.16 153.19 588.55 155.59 586.53 157.62C584.5 159.64 582.09 161.24 579.44 162.33C576.79 163.41 573.95 163.96 571.08 163.95L545.42 163.95L545.42 221.7L506.92 221.89ZM624.34 221.89L624.34 65.51L678.82 65.51C681.38 65.39 683.95 65.37 686.51 65.47C689.08 65.56 691.64 65.76 694.19 66.08C696.73 66.39 699.27 66.81 701.78 67.33C704.29 67.86 706.78 68.5 709.23 69.24C711.39 70.04 713.48 71.01 715.48 72.14C717.48 73.28 719.39 74.57 721.18 76.01C722.98 77.44 724.66 79.02 726.2 80.72C727.75 82.43 729.15 84.25 730.41 86.18C731.72 88.3 732.87 90.52 733.85 92.82C734.83 95.12 735.64 97.48 736.28 99.9C736.91 102.31 737.37 104.77 737.64 107.25C737.92 109.74 738.01 112.23 737.92 114.73C737.9 116.9 737.75 119.08 737.47 121.23C737.19 123.39 736.77 125.53 736.23 127.63C735.69 129.74 735.03 131.81 734.23 133.84C733.44 135.86 732.53 137.84 731.5 139.75C730.58 141.64 729.51 143.44 728.31 145.15C727.1 146.86 725.76 148.47 724.29 149.97C722.83 151.47 721.25 152.84 719.56 154.09C717.88 155.33 716.1 156.44 714.24 157.4L714.24 157.79C714.78 158.54 715.3 159.31 715.82 160.08C716.33 160.85 716.84 161.63 717.33 162.42C717.82 163.2 718.3 164 718.77 164.8C719.24 165.6 719.7 166.4 720.14 167.22L750.75 221.89L708.08 221.89L680.29 169.21L662.39 169.21L662.39 221.89L624.34 221.89ZM662.84 136.35L679.46 136.35C680.78 136.43 682.11 136.38 683.42 136.2C684.73 136.02 686.02 135.71 687.27 135.29C688.52 134.86 689.72 134.31 690.87 133.65C692.02 132.99 693.09 132.22 694.09 131.35C695 130.42 695.81 129.4 696.5 128.3C697.2 127.2 697.78 126.04 698.23 124.82C698.68 123.6 699 122.34 699.19 121.05C699.38 119.77 699.43 118.46 699.35 117.17C699.58 115.48 699.54 113.77 699.23 112.09C698.92 110.42 698.34 108.8 697.52 107.31C696.7 105.82 695.65 104.47 694.4 103.31C693.15 102.15 691.73 101.19 690.18 100.48C689.02 100.08 687.85 99.72 686.66 99.42C685.47 99.13 684.27 98.89 683.06 98.7C681.85 98.52 680.63 98.4 679.41 98.33C678.19 98.26 676.96 98.25 675.74 98.3L662.91 98.3L662.84 136.35ZM768.27 221.89L768.27 65.51L866.25 65.51L866.25 98.3L806.51 98.3L806.51 126.73L854.19 126.73L854.19 159.58L806.51 159.58L806.51 189.1L869.27 189.1L869.27 221.89L768.27 221.89ZM893.78 221.89L893.78 65.51L991.76 65.51L991.76 98.3L932.09 98.3L932.09 126.73L979.7 126.73L979.7 159.58L932.09 159.58L932.09 189.1L994.58 189.1L994.58 221.89L893.78 221.89ZM1019.29 221.89L1019.29 65.51L1074.86 65.51C1099.62 65.51 1119.26 72.4 1133.76 86.18C1148.26 99.95 1155.53 119.01 1155.58 143.35C1155.58 167.86 1148.31 187.11 1133.76 201.1C1119.22 215.09 1099.58 222.06 1074.86 222.02L1019.29 221.89ZM1057.79 189.1L1073.51 189.1C1076.38 189.26 1079.27 189.12 1082.11 188.69C1084.96 188.25 1087.75 187.52 1090.44 186.51C1093.14 185.5 1095.72 184.2 1098.15 182.66C1100.57 181.11 1102.83 179.31 1104.89 177.29C1106.88 174.97 1108.64 172.46 1110.14 169.8C1111.65 167.13 1112.9 164.33 1113.86 161.43C1114.83 158.52 1115.51 155.54 1115.9 152.5C1116.29 149.47 1116.38 146.4 1116.18 143.35C1116.38 140.33 1116.29 137.3 1115.9 134.31C1115.5 131.31 1114.82 128.36 1113.85 125.5C1112.87 122.63 1111.62 119.88 1110.11 117.26C1108.59 114.64 1106.82 112.19 1104.82 109.92C1102.75 107.94 1100.48 106.17 1098.06 104.66C1095.63 103.14 1093.05 101.87 1090.37 100.87C1087.68 99.88 1084.9 99.16 1082.07 98.73C1079.24 98.29 1076.37 98.15 1073.51 98.3L1057.79 98.3L1057.79 189.1ZM1171.94 142.71C1171.8 137.44 1172.2 132.17 1173.13 126.98C1174.06 121.79 1175.53 116.71 1177.5 111.83C1179.47 106.94 1181.94 102.26 1184.86 97.88C1187.79 93.5 1191.15 89.42 1194.91 85.73C1202.88 78.44 1212.13 72.7 1222.19 68.79C1232.26 64.89 1242.96 62.88 1253.75 62.88C1264.55 62.88 1275.25 64.89 1285.31 68.79C1295.38 72.7 1304.63 78.44 1312.59 85.73C1316.34 89.43 1319.69 93.51 1322.61 97.9C1325.52 102.28 1327.98 106.96 1329.95 111.84C1331.91 116.73 1333.37 121.81 1334.3 126.99C1335.24 132.18 1335.64 137.44 1335.5 142.71C1335.65 148.08 1335.27 153.45 1334.34 158.75C1333.42 164.05 1331.97 169.23 1330 174.24C1328.04 179.24 1325.58 184.04 1322.65 188.55C1319.73 193.06 1316.36 197.26 1312.59 201.1C1304.72 208.55 1295.5 214.44 1285.42 218.46C1275.34 222.47 1264.6 224.53 1253.75 224.53C1242.91 224.53 1232.16 222.47 1222.09 218.46C1212.01 214.44 1202.79 208.55 1194.91 201.1C1191.14 197.27 1187.76 193.07 1184.82 188.56C1181.89 184.05 1179.42 179.26 1177.45 174.25C1175.48 169.25 1174.03 164.06 1173.1 158.76C1172.17 153.46 1171.79 148.08 1171.94 142.71ZM1212.08 151.78C1212.55 154.78 1213.3 157.73 1214.31 160.59C1215.33 163.45 1216.62 166.21 1218.15 168.83C1219.69 171.45 1221.47 173.92 1223.47 176.2C1227.31 180.4 1231.99 183.76 1237.21 186.05C1242.42 188.35 1248.06 189.53 1253.75 189.53C1259.45 189.53 1265.08 188.35 1270.3 186.05C1275.51 183.76 1280.19 180.4 1284.04 176.2C1286.06 173.92 1287.85 171.46 1289.41 168.84C1290.96 166.23 1292.26 163.47 1293.3 160.61C1294.33 157.75 1295.1 154.8 1295.58 151.79C1296.06 148.79 1296.26 145.75 1296.17 142.71C1296.27 139.78 1296.09 136.85 1295.63 133.96C1295.17 131.07 1294.42 128.24 1293.41 125.49C1292.39 122.75 1291.11 120.11 1289.58 117.61C1288.05 115.12 1286.28 112.77 1284.3 110.62C1280.36 106.58 1275.65 103.37 1270.44 101.17C1265.24 98.98 1259.65 97.85 1254.01 97.85C1248.36 97.85 1242.78 98.98 1237.57 101.17C1232.37 103.37 1227.66 106.58 1223.72 110.62C1221.71 112.76 1219.91 115.09 1218.35 117.58C1216.79 120.07 1215.48 122.71 1214.44 125.45C1213.4 128.2 1212.63 131.04 1212.14 133.94C1211.65 136.83 1211.45 139.77 1211.53 142.71C1211.43 145.74 1211.61 148.78 1212.08 151.78ZM1353.92 221.89L1366.75 65.51L1408.33 65.51L1430.92 131.54L1438.81 157.21L1439.26 157.21C1442.15 146.69 1444.78 137.96 1447.09 131.54L1469.87 65.51L1511.45 65.51L1524.28 221.89L1485.78 221.89L1480.97 151.31C1480.65 147.84 1480.52 143.93 1480.52 139.56C1480.52 135.2 1480.52 131.67 1480.52 129.04L1480.52 125.13L1480.07 125.13C1476.54 136.03 1473.65 144.76 1471.34 151.31L1454.91 196.61L1422.58 196.61L1406.15 151.31L1397.42 125.13L1396.97 125.13C1397.12 127.3 1397.23 129.48 1397.3 131.67C1397.37 133.85 1397.41 136.03 1397.41 138.22C1397.41 140.4 1397.37 142.58 1397.3 144.76C1397.23 146.95 1397.12 149.13 1396.97 151.3L1392.16 221.89L1353.92 221.89ZM508.71 389.17L508.71 295.68L531.56 295.68L531.56 333.09L565.57 333.09L565.57 295.68L588.47 295.68L588.47 389.17L565.57 389.17L565.57 352.92L531.56 352.92L531.56 389.49L508.71 389.17ZM603.17 341.88C603.09 338.75 603.34 335.63 603.89 332.55C604.45 329.47 605.31 326.46 606.47 323.56C607.63 320.65 609.08 317.87 610.8 315.26C612.52 312.65 614.5 310.21 616.71 308C621.48 303.62 627.02 300.16 633.06 297.81C639.1 295.46 645.52 294.25 652 294.25C658.48 294.25 664.9 295.46 670.94 297.81C676.97 300.16 682.52 303.62 687.29 308C689.54 310.22 691.55 312.66 693.3 315.29C695.05 317.91 696.52 320.71 697.7 323.64C698.88 326.57 699.75 329.61 700.31 332.72C700.87 335.83 701.11 338.98 701.02 342.14C701.11 345.35 700.88 348.56 700.32 351.73C699.77 354.9 698.89 358 697.72 360.99C696.54 363.98 695.06 366.85 693.31 369.54C691.56 372.24 689.54 374.75 687.29 377.04C682.57 381.52 677.03 385.05 670.99 387.46C664.95 389.86 658.5 391.1 652 391.1C645.49 391.1 639.05 389.86 633 387.46C626.96 385.05 621.43 381.52 616.71 377.04C614.46 374.72 612.45 372.19 610.71 369.46C608.97 366.74 607.51 363.86 606.35 360.84C605.19 357.83 604.34 354.71 603.8 351.52C603.27 348.34 603.05 345.11 603.17 341.88ZM626.84 341.88C626.78 343.69 626.89 345.5 627.17 347.29C627.45 349.07 627.9 350.83 628.5 352.54C629.11 354.24 629.88 355.88 630.8 357.44C631.71 359 632.77 360.47 633.97 361.84C636.26 364.36 639.06 366.38 642.18 367.76C645.31 369.14 648.68 369.85 652.09 369.85C655.51 369.85 658.88 369.14 662 367.76C665.12 366.38 667.92 364.36 670.22 361.84C671.41 360.47 672.47 359 673.39 357.44C674.31 355.88 675.07 354.24 675.68 352.54C676.29 350.83 676.74 349.07 677.02 347.29C677.29 345.5 677.4 343.69 677.34 341.88C677.41 340.13 677.3 338.37 677.02 336.63C676.74 334.9 676.29 333.2 675.68 331.55C675.07 329.91 674.3 328.32 673.39 326.82C672.47 325.33 671.41 323.92 670.22 322.63C667.86 320.21 665.04 318.3 661.93 316.98C658.81 315.67 655.47 315 652.09 315C648.72 315 645.37 315.67 642.26 316.98C639.15 318.3 636.33 320.21 633.97 322.63C632.76 323.91 631.68 325.31 630.75 326.81C629.81 328.3 629.03 329.88 628.4 331.53C627.78 333.18 627.31 334.88 627.02 336.62C626.73 338.36 626.6 340.12 626.65 341.88L626.84 341.88ZM715.33 389.17L715.33 295.68L738.24 295.68L738.24 369.6L776.74 369.6L776.74 388.85L715.33 389.17ZM787.52 389.17L787.52 295.68L820.76 295.68C823.94 295.5 827.14 295.64 830.31 296.08C833.47 296.53 836.58 297.29 839.59 298.34C842.61 299.4 845.51 300.74 848.26 302.37C851.01 303.99 853.6 305.87 855.98 308C858.19 310.24 860.15 312.7 861.84 315.34C863.52 317.98 864.93 320.8 866.03 323.74C867.14 326.67 867.93 329.72 868.4 332.82C868.86 335.93 869 339.07 868.82 342.2C869.01 345.35 868.87 348.52 868.41 351.64C867.94 354.76 867.15 357.83 866.05 360.79C864.95 363.75 863.54 366.58 861.85 369.25C860.16 371.92 858.19 374.4 855.98 376.66C853.61 378.8 851.03 380.7 848.28 382.34C845.53 383.97 842.63 385.33 839.61 386.4C836.6 387.47 833.48 388.23 830.32 388.69C827.15 389.14 823.95 389.28 820.76 389.11L787.52 389.17ZM810.43 369.92L819.86 369.92C821.57 370.02 823.3 369.94 825 369.68C826.7 369.42 828.36 368.98 829.97 368.37C831.58 367.77 833.12 367 834.57 366.07C836.02 365.14 837.37 364.07 838.59 362.86C839.78 361.47 840.83 359.97 841.73 358.38C842.63 356.79 843.37 355.12 843.95 353.38C844.52 351.65 844.93 349.86 845.16 348.05C845.39 346.24 845.45 344.41 845.33 342.59C845.46 340.78 845.4 338.97 845.17 337.17C844.94 335.37 844.53 333.61 843.94 331.89C843.36 330.18 842.61 328.52 841.7 326.96C840.79 325.39 839.73 323.92 838.53 322.57C837.3 321.38 835.95 320.32 834.5 319.41C833.06 318.5 831.52 317.74 829.92 317.15C828.32 316.55 826.66 316.12 824.97 315.87C823.28 315.62 821.56 315.54 819.86 315.64L810.43 315.64L810.43 369.92ZM883.96 389.17L883.96 295.68L906.8 295.68L906.8 389.17L883.96 389.17ZM926.44 389.17L926.44 295.68L949.67 295.68L975.33 339.38C976.36 341.17 977.52 343.42 978.86 345.79C980.21 348.17 981.17 350.67 982.01 352.21L983.16 354.84C982.46 348.1 982.14 342.78 982.14 338.86L982.14 295.68L1004.98 295.68L1004.98 389.17L982.01 389.17L955.96 345.67C954.93 343.81 953.71 341.56 952.43 339.25C951.14 336.94 950.05 334.37 949.28 332.83L948.13 330.2C948.28 331.53 948.41 332.86 948.53 334.19C948.65 335.51 948.76 336.85 948.84 338.18C948.93 339.51 949 340.84 949.05 342.18C949.1 343.51 949.13 344.84 949.15 346.18L949.15 389.68L926.44 389.17ZM1020.95 332.81C1021.51 329.69 1022.39 326.63 1023.57 323.69C1024.76 320.75 1026.24 317.94 1028 315.31C1029.76 312.67 1031.79 310.22 1034.05 308C1036.34 305.72 1038.86 303.68 1041.57 301.91C1044.28 300.13 1047.16 298.64 1050.17 297.45C1053.18 296.27 1056.3 295.39 1059.49 294.83C1062.67 294.27 1065.91 294.04 1069.14 294.14C1072.39 294.02 1075.65 294.2 1078.86 294.68C1082.07 295.16 1085.24 295.93 1088.31 296.99C1091.38 298.05 1094.35 299.4 1097.17 301.01C1100 302.62 1102.66 304.49 1105.14 306.59L1094.11 323.72C1093.34 323.03 1092.55 322.38 1091.73 321.76C1090.9 321.14 1090.05 320.57 1089.17 320.03C1088.3 319.49 1087.4 318.99 1086.47 318.54C1085.55 318.08 1084.61 317.67 1083.65 317.3C1082.69 316.94 1081.71 316.62 1080.72 316.34C1079.73 316.07 1078.73 315.83 1077.72 315.64C1076.7 315.46 1075.69 315.31 1074.66 315.21C1073.64 315.12 1072.61 315.06 1071.58 315.06C1067.97 314.66 1064.31 315.05 1060.86 316.22C1057.41 317.38 1054.26 319.29 1051.63 321.81C1049 324.32 1046.95 327.38 1045.63 330.77C1044.31 334.16 1043.75 337.8 1043.99 341.43C1043.9 343.32 1043.99 345.22 1044.28 347.09C1044.57 348.96 1045.06 350.8 1045.72 352.57C1046.39 354.34 1047.24 356.04 1048.25 357.64C1049.26 359.24 1050.44 360.73 1051.76 362.09C1053 363.37 1054.37 364.52 1055.85 365.51C1057.33 366.5 1058.91 367.34 1060.56 368.01C1062.21 368.67 1063.93 369.17 1065.69 369.48C1067.44 369.79 1069.22 369.92 1071.01 369.86C1072.74 369.86 1074.47 369.71 1076.19 369.42C1077.9 369.13 1079.58 368.69 1081.22 368.12C1082.85 367.54 1084.44 366.82 1085.95 365.97C1087.47 365.12 1088.91 364.15 1090.26 363.05L1090.26 355.87L1077.04 355.87L1077.04 336.62L1110.08 336.62L1110.08 389.43L1090.83 389.43L1090.83 383.01C1090.03 383.67 1089.19 384.29 1088.32 384.87C1087.45 385.45 1086.56 385.98 1085.64 386.47C1084.72 386.96 1083.77 387.41 1082.81 387.8C1081.84 388.2 1080.86 388.55 1079.86 388.85C1078.76 389.22 1077.65 389.54 1076.52 389.82C1075.4 390.1 1074.26 390.33 1073.12 390.52C1071.97 390.71 1070.82 390.85 1069.67 390.95C1068.51 391.04 1067.35 391.09 1066.19 391.1C1063.22 391.11 1060.26 390.84 1057.34 390.27C1054.42 389.7 1051.57 388.84 1048.82 387.71C1046.08 386.58 1043.45 385.18 1040.98 383.53C1038.51 381.87 1036.21 379.98 1034.11 377.88C1031.78 375.57 1029.69 373.02 1027.89 370.27C1026.09 367.53 1024.59 364.6 1023.39 361.54C1022.2 358.49 1021.34 355.31 1020.81 352.07C1020.28 348.83 1020.09 345.54 1020.25 342.27C1020.16 339.1 1020.4 335.93 1020.95 332.81ZM1156.6 342.27C1156.52 339.1 1156.77 335.93 1157.33 332.81C1157.89 329.7 1158.77 326.64 1159.96 323.7C1161.14 320.77 1162.62 317.96 1164.37 315.32C1166.13 312.68 1168.15 310.23 1170.4 308C1172.71 305.72 1175.25 303.68 1177.98 301.91C1180.7 300.14 1183.6 298.65 1186.63 297.47C1189.65 296.29 1192.79 295.42 1195.99 294.87C1199.2 294.32 1202.44 294.1 1205.69 294.2C1207.33 294.2 1208.96 294.27 1210.59 294.41C1212.23 294.55 1213.85 294.76 1215.46 295.04C1217.07 295.32 1218.67 295.67 1220.26 296.08C1221.84 296.5 1223.4 296.99 1224.94 297.54C1226.43 298.06 1227.89 298.66 1229.32 299.34C1230.74 300.02 1232.13 300.78 1233.47 301.61C1234.81 302.44 1236.11 303.34 1237.35 304.31C1238.6 305.28 1239.79 306.32 1240.92 307.42L1230.33 324.68C1229.5 323.95 1228.65 323.26 1227.76 322.6C1226.88 321.94 1225.97 321.32 1225.03 320.73C1224.1 320.15 1223.14 319.6 1222.16 319.09C1221.18 318.58 1220.18 318.12 1219.17 317.69C1218.19 317.27 1217.19 316.9 1216.18 316.58C1215.17 316.26 1214.14 315.99 1213.1 315.77C1212.06 315.55 1211.02 315.38 1209.96 315.26C1208.9 315.14 1207.84 315.07 1206.78 315.06C1204.96 314.93 1203.13 315.01 1201.33 315.29C1199.52 315.57 1197.75 316.05 1196.06 316.72C1194.36 317.39 1192.74 318.24 1191.23 319.27C1189.72 320.3 1188.33 321.49 1187.08 322.82C1186 324.13 1185.04 325.54 1184.22 327.02C1183.39 328.51 1182.7 330.06 1182.15 331.67C1181.6 333.28 1181.2 334.93 1180.95 336.61C1180.71 338.29 1180.61 339.99 1180.67 341.69C1180.6 343.46 1180.69 345.22 1180.94 346.98C1181.18 348.73 1181.58 350.46 1182.12 352.14C1182.67 353.82 1183.36 355.45 1184.19 357.01C1185.03 358.57 1185.99 360.06 1187.08 361.45C1188.28 362.85 1189.63 364.12 1191.11 365.21C1192.59 366.3 1194.19 367.22 1195.88 367.95C1197.57 368.68 1199.34 369.21 1201.16 369.53C1202.97 369.85 1204.82 369.96 1206.65 369.86C1209 369.79 1211.34 369.49 1213.62 368.95C1215.91 368.41 1218.14 367.64 1220.26 366.65C1222.39 365.66 1224.42 364.45 1226.3 363.05C1228.19 361.65 1229.92 360.06 1231.49 358.31L1243.29 375.05C1240.88 377.6 1238.21 379.88 1235.33 381.87C1232.44 383.86 1229.36 385.54 1226.12 386.89C1222.89 388.24 1219.52 389.25 1216.08 389.91C1212.63 390.56 1209.13 390.85 1205.63 390.78C1199.13 391.15 1192.63 390.16 1186.54 387.86C1180.46 385.56 1174.92 382.01 1170.29 377.44C1165.67 372.87 1162.05 367.37 1159.68 361.31C1157.31 355.25 1156.24 348.76 1156.54 342.27L1156.6 342.27ZM1247.66 341.88C1247.59 338.75 1247.84 335.61 1248.41 332.53C1248.97 329.45 1249.85 326.43 1251.03 323.52C1252.21 320.62 1253.68 317.84 1255.42 315.23C1257.16 312.63 1259.16 310.2 1261.39 308C1266.16 303.62 1271.71 300.16 1277.74 297.81C1283.78 295.46 1290.2 294.25 1296.68 294.25C1303.16 294.25 1309.58 295.46 1315.62 297.81C1321.65 300.16 1327.2 303.62 1331.97 308C1334.21 310.22 1336.22 312.67 1337.97 315.29C1339.71 317.92 1341.18 320.72 1342.36 323.65C1343.54 326.58 1344.42 329.62 1344.98 332.72C1345.54 335.83 1345.78 338.98 1345.7 342.14C1345.79 345.35 1345.55 348.56 1344.99 351.73C1344.43 354.89 1343.55 357.99 1342.38 360.98C1341.2 363.97 1339.73 366.84 1337.98 369.54C1336.23 372.23 1334.22 374.75 1331.97 377.04C1327.25 381.52 1321.72 385.05 1315.67 387.46C1309.63 389.86 1303.18 391.1 1296.68 391.1C1290.18 391.1 1283.73 389.86 1277.69 387.46C1271.64 385.05 1266.11 381.52 1261.39 377.04C1259.12 374.74 1257.09 372.21 1255.33 369.49C1253.57 366.77 1252.09 363.89 1250.91 360.87C1249.73 357.86 1248.86 354.73 1248.32 351.54C1247.77 348.35 1247.55 345.11 1247.66 341.88ZM1271.66 347.29C1271.94 349.07 1272.39 350.83 1272.99 352.54C1273.6 354.24 1274.37 355.88 1275.29 357.44C1276.2 359 1277.26 360.47 1278.46 361.84C1280.75 364.36 1283.55 366.38 1286.67 367.76C1289.8 369.14 1293.17 369.85 1296.58 369.85C1300 369.85 1303.37 369.14 1306.49 367.76C1309.61 366.38 1312.41 364.36 1314.71 361.84C1315.9 360.47 1316.96 359 1317.88 357.44C1318.8 355.88 1319.56 354.24 1320.17 352.54C1320.78 350.83 1321.23 349.07 1321.51 347.29C1321.78 345.5 1321.89 343.69 1321.83 341.88C1321.9 340.13 1321.79 338.37 1321.51 336.63C1321.23 334.9 1320.78 333.2 1320.17 331.55C1319.56 329.91 1318.79 328.32 1317.88 326.82C1316.96 325.33 1315.9 323.92 1314.71 322.63C1312.35 320.21 1309.53 318.3 1306.42 316.98C1303.3 315.67 1299.96 315 1296.58 315C1293.21 315 1289.86 315.67 1286.75 316.98C1283.64 318.3 1280.82 320.21 1278.46 322.63C1277.27 323.92 1276.21 325.33 1275.29 326.82C1274.37 328.32 1273.61 329.91 1273 331.55C1272.39 333.2 1271.94 334.9 1271.66 336.63C1271.38 338.37 1271.27 340.13 1271.33 341.88C1271.27 343.69 1271.38 345.5 1271.66 347.29ZM1360.33 389.17L1360.33 295.68L1392.42 295.68C1393.95 295.61 1395.48 295.6 1397.01 295.66C1398.54 295.72 1400.07 295.84 1401.59 296.03C1403.11 296.22 1404.62 296.47 1406.12 296.79C1407.62 297.1 1409.11 297.48 1410.58 297.93C1411.88 298.39 1413.15 298.97 1414.36 299.64C1415.58 300.31 1416.73 301.09 1417.82 301.95C1418.91 302.81 1419.93 303.75 1420.86 304.78C1421.8 305.8 1422.65 306.9 1423.41 308.06C1424.19 309.34 1424.89 310.66 1425.48 312.03C1426.07 313.41 1426.56 314.82 1426.95 316.26C1427.33 317.71 1427.61 319.18 1427.78 320.66C1427.95 322.14 1428.01 323.64 1427.97 325.13C1427.98 326.42 1427.92 327.72 1427.78 329C1427.65 330.28 1427.43 331.56 1427.14 332.82C1426.85 334.08 1426.48 335.32 1426.04 336.53C1425.6 337.74 1425.08 338.93 1424.5 340.08C1423.95 341.21 1423.31 342.28 1422.59 343.3C1421.86 344.33 1421.06 345.29 1420.18 346.18C1419.31 347.07 1418.36 347.89 1417.35 348.63C1416.35 349.38 1415.28 350.04 1414.17 350.61C1414.49 351.06 1414.81 351.51 1415.12 351.97C1415.43 352.43 1415.74 352.9 1416.03 353.37C1416.32 353.84 1416.61 354.32 1416.89 354.8C1417.17 355.28 1417.44 355.76 1417.7 356.25L1435.86 388.91L1410.19 388.91L1393.57 357.41L1382.86 357.41L1382.86 388.91L1360.33 389.17ZM1383.24 337.84L1393.19 337.84C1393.97 337.89 1394.76 337.86 1395.54 337.76C1396.33 337.66 1397.1 337.48 1397.84 337.23C1398.59 336.97 1399.31 336.65 1399.99 336.26C1400.68 335.86 1401.32 335.4 1401.91 334.89C1402.46 334.32 1402.94 333.71 1403.35 333.05C1403.77 332.38 1404.11 331.68 1404.38 330.95C1404.65 330.22 1404.85 329.46 1404.96 328.69C1405.07 327.91 1405.11 327.13 1405.06 326.35C1405.2 325.35 1405.18 324.32 1404.99 323.33C1404.81 322.33 1404.47 321.37 1403.98 320.47C1403.49 319.58 1402.86 318.78 1402.12 318.09C1401.38 317.4 1400.53 316.83 1399.6 316.41C1398.91 316.16 1398.21 315.96 1397.49 315.78C1396.78 315.61 1396.06 315.46 1395.33 315.36C1394.61 315.25 1393.88 315.18 1393.14 315.14C1392.41 315.1 1391.67 315.09 1390.94 315.12L1383.24 315.12L1383.24 337.84ZM1446.06 389.17L1446.06 295.68L1484.95 295.68C1486.99 295.6 1489.04 295.75 1491.05 296.11C1493.07 296.47 1495.04 297.04 1496.93 297.82C1498.82 298.6 1500.63 299.58 1502.31 300.74C1504 301.9 1505.55 303.24 1506.95 304.73C1508.38 306.28 1509.65 307.96 1510.75 309.76C1511.85 311.56 1512.77 313.46 1513.49 315.43C1514.22 317.41 1514.75 319.45 1515.07 321.54C1515.39 323.62 1515.51 325.72 1515.42 327.83C1515.51 329.95 1515.39 332.08 1515.06 334.18C1514.74 336.28 1514.21 338.34 1513.48 340.34C1512.76 342.33 1511.84 344.26 1510.75 346.08C1509.65 347.9 1508.38 349.61 1506.95 351.18C1505.56 352.69 1504.01 354.03 1502.33 355.2C1500.64 356.38 1498.84 357.36 1496.95 358.14C1495.05 358.93 1493.08 359.51 1491.06 359.87C1489.04 360.23 1486.99 360.37 1484.95 360.3L1468.97 360.3L1468.97 389.17L1446.06 389.17ZM1468.97 340.66L1480.2 340.66C1481.02 340.72 1481.84 340.68 1482.65 340.55C1483.47 340.42 1484.26 340.21 1485.02 339.9C1485.79 339.6 1486.52 339.21 1487.19 338.74C1487.87 338.28 1488.49 337.74 1489.05 337.13C1489.58 336.49 1490.05 335.79 1490.45 335.06C1490.86 334.33 1491.19 333.56 1491.45 332.77C1491.72 331.97 1491.91 331.16 1492.02 330.33C1492.13 329.5 1492.17 328.66 1492.13 327.83C1492.17 327.01 1492.14 326.19 1492.02 325.38C1491.91 324.57 1491.73 323.77 1491.47 322.99C1491.21 322.21 1490.89 321.46 1490.49 320.74C1490.1 320.03 1489.64 319.35 1489.12 318.72C1488.58 318.13 1487.98 317.61 1487.33 317.16C1486.67 316.71 1485.97 316.34 1485.24 316.04C1484.5 315.75 1483.73 315.54 1482.95 315.42C1482.17 315.29 1481.37 315.26 1480.58 315.31L1468.97 315.31L1468.97 340.66ZM1518.57 378.58C1518.57 377.18 1518.85 375.78 1519.38 374.48C1519.92 373.18 1520.71 372 1521.71 371.01C1522.7 370.01 1523.88 369.22 1525.18 368.68C1526.48 368.14 1527.88 367.87 1529.28 367.87C1530.69 367.87 1532.08 368.14 1533.38 368.68C1534.69 369.22 1535.87 370.01 1536.86 371.01C1537.86 372 1538.65 373.18 1539.18 374.48C1539.72 375.78 1540 377.18 1540 378.58C1540 379.99 1539.72 381.38 1539.18 382.68C1538.65 383.98 1537.86 385.17 1536.86 386.16C1535.87 387.16 1534.69 387.94 1533.38 388.48C1532.08 389.02 1530.69 389.3 1529.28 389.3C1527.87 389.31 1526.48 389.04 1525.17 388.5C1523.87 387.97 1522.68 387.18 1521.69 386.18C1520.69 385.18 1519.9 384 1519.37 382.69C1518.83 381.39 1518.56 379.99 1518.57 378.58Z" />
		</g>
		<path id="Layer" class="shp2" d="M396.74 27.21L396.74 110.62C396.74 389.24 202.31 459.64 198.34 458.28C194.37 456.91 190.44 455.43 186.55 453.83C182.67 452.23 178.84 450.51 175.06 448.68C171.28 446.84 167.55 444.89 163.89 442.84C160.23 440.78 156.63 438.61 153.1 436.33L153.1 315.19L229.07 315.19C300.04 315.06 312.88 277.52 312.88 231L312.88 203.28L153.1 203.28L153.1 111.46L312.88 111.46C376.14 110.62 396.74 73.79 396.74 27.21Z" />
	</g>
</svg>