<svg version="1.2" xmlns="http://www.w3.org/2000/svg" viewBox="0 0 1592 162" width="1592" height="162">
	<title>Ford_Otosan_logo-svg</title>
	<style>
		.s0 { fill: #ffffff } 
	</style>
	<g id="Layer">
		<g id="Layer">
			<g id="Layer">
				<path id="Layer" fill-rule="evenodd" class="s0" d="m852.5 82.1c0 44.1-35.8 79.6-79.6 79.6-11.6 0-22.3-2.5-32.3-6.8l22.3-40.8c3 1 6.5 1.6 10 1.6 18.3 0 33.3-14.8 33.3-33.4 0-9.9-4.8-19-11.8-25.2l22.8-40.6c21 14.2 35 38.4 35.3 65.6zm-79.9-32.8c-18.3 0-33.3 14.8-33.3 33.3 0 9.7 4 18.3 10.4 24.5l-0.5 0.5-22.6 39.8c-20.2-14.5-33.6-38.2-33.6-64.8 0-44.1 35.8-79.6 79.6-79.6 10.8 0 21 2.2 30.4 5.9l-22.9 40.9c-2.4-0.5-5.1-0.8-7.5-0.5z"/>
			</g>
			<path id="Layer" fill-rule="evenodd" class="s0" d="m1150.7 82.1c0 44.1-35.8 79.6-79.6 79.6-11.6 0-22.3-2.5-32.3-6.8l22.4-40.8c2.9 1 6.4 1.6 9.9 1.6 18.3 0 33.3-14.8 33.3-33.4 0-9.9-4.8-19-11.8-25.2l22.9-40.6c21.2 14.2 35.2 38.4 35.2 65.6zm-79.6-32.8c-18.3 0-33.3 14.8-33.3 33.3 0 9.7 4 18.3 10.4 24.5l-0.5 0.5-22.6 39.8c-20.2-14.5-33.6-38.2-33.6-64.8 0-44.1 35.8-79.6 79.6-79.6 10.8 0 21 2.2 30.4 5.9l-22.9 40.9c-2.4-0.5-5.1-0.8-7.5-0.5zm-210.8-42.8h122.9v48.7h-38.5v102.7h-46v-102.7h-38.4zm414.6 83.6c7.3 8.1 10 18.6 10 28.2 0 21.8-17.8 39.6-39.5 39.6h-80.2v-46.3h51.7c2.6 0 5.1-0.5 5.1-3.2 0-1.6-0.8-3-1.9-4l-41.7-27.7c-8.9-7.3-14.3-18.3-14.3-30.4 0-21.8 17.8-39.5 39.6-39.5h73.1v42.4h-46.8c-2.7 0-5.1 0.6-5.1 3.3 0 1 0.6 2.4 1.1 3.2zm121.3-40.9l-59.7 108.6h-54.1l87.2-157.8zm7.2 13.5l53.3 95.1h-53l-25.6-49.2zm103.6 95.2h-46.3v-157.8l83.9 65.6v-59.1h47.1v155.3l-84.7-65.6z"/>
		</g>
		<g id="Layer">
			<path id="Layer" class="s0" d="m0.3 3.8h117.8v34.5h-69.2v25.8h59.7v32h-59.7v62.1h-48.6z"/>
			<path id="Layer" fill-rule="evenodd" class="s0" d="m218.6 1.2c53.3 0 81.2 30.3 81.2 79.8 0 49.2-28.2 79.8-81.2 79.8-52.9 0-81.2-30.6-81.2-79.8 0-49.5 28-79.8 81.2-79.8zm0 124.7c24 0 33.4-21.8 33.4-44.9 0-24.5-9.4-44.9-33.4-44.9-23.9 0-33.3 20.4-33.3 44.9 0 23.1 9.7 44.9 33.3 44.9zm106.8-122.1h80.9c39.8 0 57.6 16.4 57.6 43.1 0 20.4-13.5 36.8-35.5 41.9 14.8 3.5 18.3 8.6 26.9 27.4l22 42h-52.7l-15.3-31c-13.5-25.5-19.9-30.1-29-30.1h-6.8v61.1h-48.1zm47.9 63.9h9.1c14.5 0 33.1-0.5 33.1-18 0-14.2-15.9-16.9-33.1-16.9h-9.1zm118.8-64h59.2c56.5 0 85.2 16.7 85.2 76.4 0 57.8-29.8 77.9-85.2 77.9h-59.2zm48.7 119.9h16.7c19.3 0 31.7-12.1 31.7-42.7 0-30.9-8.1-42.8-31.7-42.8h-16.7z"/>
		</g>
	</g>
</svg>