<svg version="1.2" xmlns="http://www.w3.org/2000/svg" viewBox="0 0 1584 878" width="1584" height="878">
	<title>Ford_Otosan_logo-svg</title>
	<style>
		.s0 { fill: #ffffff } 
	</style>
	<g id="Layer">
		<g id="Layer">
			<g id="Layer">
				<path id="Layer" fill-rule="evenodd" class="s0" d="m1583.1 437.2c0 243.7-197.8 439.9-440.2 439.9-63.9 0-123.4-13.4-178.4-37.2l123.4-225.9c16.4 6 35.7 8.9 55 8.9 101.1 0 184.4-81.7 184.4-184.3 0-55-26.7-105.5-65.4-139.7l126.4-224.4c116 78.8 193.3 212.5 194.8 362.7zm-441.7-181.4c-101.1 0-184.3 81.8-184.3 184.3 0 53.5 22.3 101.1 57.9 135.3l-2.9 3-124.9 219.9c-111.6-80.2-185.9-211-185.9-358.2 0-243.7 197.8-439.9 440.1-439.9 59.5 0 116 11.9 168.1 32.7l-126.4 225.9c-13.4-3-28.3-4.5-41.7-3z"/>
			</g>
		</g>
		<g id="Layer">
			<path id="Layer" class="s0" d="m0.5 4.6h651.3v190.3h-382.2v142.7h330.2v176.8h-330.2v343.4h-269.1z"/>
		</g>
	</g>
</svg>