<svg version="1.2" xmlns="http://www.w3.org/2000/svg" viewBox="0 0 1541 1541" width="1541" height="1541">
	<title>frppp-svg</title>
	<style>
		.s0 { fill: #537191 } 
	</style>
	<path id="Layer" fill-rule="evenodd" class="s0" d="m706.1 371.1c17.5 66.2 4.9 101.5-49 115.9l-25.1 6.7-51.5-194.1q2.8-2.3 5.8-4.2 3.1-2 6.3-3.6 3.3-1.5 6.7-2.7 3.5-1.2 7-1.9c49.6-13.3 81.4 14.2 99.8 83.9z"/>
	<path id="Layer" fill-rule="evenodd" class="s0" d="m1540.5 1214.2l-1214.2 326.3-326.3-1214.2 1214.2-326.3zm-1305-829.7q4.8-1.9 9.7-3.6 4.9-1.8 9.8-3.4 5-1.6 9.9-3.1 5-1.4 10-2.7c60.9-16.2 83.8-18.8 131.4 48.7l8.7-2.1c-3.8-11.1-11.1-39.1-14-50.6-4-14.6-8.7-34.7-12.1-49-32.8 9.1-89.7 24.5-145.7 39.5l-52 14.1c-21.3 5.7-55.1 14.2-67.9 16.9l2.1 8.5c27.1-2.5 33.2 7.7 49 67l64.6 243.7c17.2 63.6 18 76.2-7.3 87.9l2.2 8.5c12.6-4.6 45.8-14 67.3-19.8 21.5-5.7 55.3-14.2 68.2-17.1l-2.4-8.5c-27.9 2.5-33.4-8.7-50.4-72.3l-31.4-116.9 32.6-8.7c41.7-11.1 66.4-15.8 87.7 19.7l8.7-2.2c-4.8-13.4-12.5-37.9-17-54.5-4.5-16.6-8.5-36.1-11.8-53.5l-8.7 2.4c2.5 48.2-25.3 58.2-60.7 67.9l-35.3 9.7zm640.3 246.3c30.6-8.3 34.5-14.6 34.5-14.6l-1.2-4.6c-30-1.8-136-107-175.5-154.6 58.8-38.7 76.8-80 63.8-128.8-18.2-67.3-81.6-99.5-185.7-71.7-16.4 4.4-42.1 12.5-73.7 21-22.5 6.1-56.6 14.6-69.7 17.5l2.2 8.5c27.5-2.7 33.6 7.3 49.4 66.6l65 243.7c17.1 63.4 17.9 76-7.9 87.7l2.3 8.5c12.7-4.2 46.6-14 68.4-19.8 21.7-5.7 56-14.4 69.1-17.2l-2.2-8.4c-28.4 2.5-34-8.7-50.9-72.1l-25.9-98 19.7-5.1c85 87.1 115.8 124.4 147.8 138.2 5.6 2.2 11.3 3.9 17.2 5.1 5.9 1.2 11.8 1.9 17.8 2.1 6 0.2 12-0.1 18-0.9 5.9-0.8 11.8-2.1 17.5-3.9zm317.4-406.3c-17-63-84.2-101.7-187.1-74-16.8 4.5-41.7 12.4-74.4 21.1-21.6 5.7-55.5 14.2-68.6 17.2l2.4 8.5c28-2.6 33.6 8.7 50.6 72.3l63.8 237c16.9 63.6 17.9 76.2-7.7 87.8l2.1 8.5c12.9-4.3 46.6-13.8 68.2-19.7 21.5-5.9 55.5-14.4 68.5-17.2l-2.2-8.5c-27.4 2.6-33.4-7.7-49.4-66.9l-82.9-309.9q2.9-2.2 6-4.1 3.1-1.9 6.4-3.5 3.3-1.5 6.7-2.8 3.4-1.2 7-2.1c51.9-13.8 88.4 12.3 105.8 77.7 15 55.7 8.9 98.5-37.1 111q-4.5 1.2-9.2 1.9-4.6 0.8-9.3 1-4.6 0.3-9.3 0-4.7-0.2-9.3-1l-2.6 8.7q7.9 1.8 16.1 2.5 8.1 0.7 16.2 0.3 8.1-0.4 16.2-1.9 8-1.5 15.7-4c76.4-20.6 112.8-83.4 97.4-139.9z"/>
</svg>