<svg version="1.2" xmlns="http://www.w3.org/2000/svg" viewBox="0 0 1550 65" width="1550" height="65">
	<title>Investment-color-svg</title>
	<style>
		.s0 { fill: #005596 } 
		.s1 { fill: #000000 } 
	</style>
	<path id="Layer" class="s0" d="m243.3 34.4l-115.6 29.4h-0.2l-127.5-31.1v-2.4l115.8-29.3 17 4.1v2.4l-96 24.3 89.2 21.9 80.2-20.2-52.1-12.8c-8.7 2.2-30.5 7.7-43.8 11.1l-3.2 0.7 15.3 3.6 32.2-7.9 17 4.1v2.4l-47.5 12-53.8-13.2v-2.4l82.4-21h0.2l90.4 22.2z"/>
	<g id="Layer">
		<path id="Layer" fill-rule="evenodd" class="s1" d="m342.4 37.8h0.3v3.6h-0.3c-3.1 0.5-3.6 1-3.6 2.9v14.7h-0.3c-9.6 3.6-18.4 5.3-27.1 5.3-22.8 0-36.8-12.5-36.8-33 0-21.4 18.6-31.1 37.3-31.1 7.3 0 16 0.5 25.4 4.1l0.8 1.2v0.3c-0.8 2.9-1.5 8.6-2 12.5l-0.2 1.2h-4.1l-0.5-7.9c-3.4-3.7-10.9-6.1-19.2-6.1-14.3 0-23.2 9.4-23.2 24.4 0 21.1 13.1 28.6 24.4 28.6 3.7 0 7.3-0.7 11.4-2.2v-11.5c0-2.2-1.9-2.9-5.1-2.9l-5-0.2v-4.4c1.7 0 3.4 0 4.8 0 2.9 0.3 6.1 0.3 9 0.3 2.9 0 6-0.3 8.9-0.3 1.5 0 3.2 0 5.1 0.5zm54.6 8.7h4.1l-1 15.1-0.5 0.8h-0.2c-3.7 0.4-9.2 0.4-14.1 0.4h-12.6c-2.4-0.2-5.1-0.2-7.5-0.2-2.9 0-5.3 0.2-8 0.2h-3.4v-2.6l3.2-1.7c1.2-0.7 1.7-1.9 1.7-4.8v-40c0-3.6-0.3-6-0.8-7-0.4-0.7-1.4-0.9-3.6-1.2l-3.6-0.2v-4.1c0.7 0 1.9 0 2.9 0 3.1 0.2 7.2 0.2 11.6 0.2 4.4 0 8.2-0.2 11.6-0.2 1 0 2.2 0 2.9 0v4.1l-3.6 0.2c-2.2 0.3-3.4 0.5-3.6 1.2-0.8 1-0.8 3.2-0.8 7v42.9c3.9 0.2 7.8 0.2 11.7 0.2 4.3 0 10.4-0.7 10.9-1.2zm74.1 11.6l2.5 0.2v3.9h-0.3c-2.9-0.3-5.3-0.3-7.5-0.3h-13.8c-2.2 0.3-4.6 0.3-7.3 0.3h-0.2v-3.9l5.1-0.2c0.5 0 0.9-0.3 1.2-0.7 0.5-1 0.5-2.5-0.3-3.9l-4.1-9.9h-22.8l-3.8 9.9c-0.8 1.9-0.5 2.9 0 3.6 0.5 0.7 1.2 1.2 1.9 1.2l4.9 0.3v3.8h-0.3c-1.9-0.2-3.6-0.2-5.3-0.2h-10.2c-1.7 0.2-3.4 0.2-5.3 0.2h-0.3v-3.8l3.2-0.3c1.7 0 3.4-1.9 4.8-5l16.7-39 2.5-6.1 1.4-3.6 1.5-3.8h7v0.2l24 53.9c0.7 2.2 1.9 3.4 4.8 3.2zm-36.3-41l-8.7 21.5h17.9zm113.2 12.5c0 8.9-3.2 16.6-9.2 22.6-7.1 6.8-17.5 10.6-28.6 10.6h-5.6c-2.9-0.2-5.8-0.2-9-0.2-3.1 0-5.8 0.2-8.9 0.2h-5.6v-2.6l3.1-1.7c1.3-0.7 1.7-1.9 1.7-4.8v-40c0-3.6-0.2-6-0.7-7-0.5-0.7-1.2-1.2-3.6-1.4l-3.7-0.3v-3.8h0.3c2.6 0.2 5.1 0.2 7.3 0.2 2.6 0 5 0 7 0q4.3 0 10.2 0c4.6-0.2 9.2-0.2 13.5-0.2 21.4 0 31.8 9.1 31.8 28.4zm-43.4-23.1c-1.9 0-3.6 0-5.3 0.2v50.1c2.6 0.5 5.3 0.5 7.7 0.5 17.9 0 26.4-8.4 26.4-26.3 0-17.8-8-24.8-28.8-24.5zm98.9 36.1c0 7-2.9 12.8-8.5 16.6-4.6 3.1-11.4 5.1-18.9 5.1-6.8 0-13.6-1.5-19.4-4.1h-0.2v-0.3c0.9-4.5 1.4-9.4 1.4-15.4v-0.2h4.4l0.7 7.9c2.4 4.1 9.4 6.8 14.3 6.8 7.3 0 14.3-3.6 14.3-11.6 0-3.8-2.7-6.5-7.5-7.9l-12.9-3.9c-8.7-2.4-13.8-8.2-13.8-15.4 0-12.8 9-20 24.7-20 5.9 0 12.2 1.2 17.2 3.1l0.5 1.3c-0.7 2.4-1.2 7.2-1.2 12.5v0.2h-4.3l-0.5-7.4c-2.4-2.9-7.5-4.9-11.9-4.9-7.5 0-12.4 4.1-12.4 10.6 0 4.1 2.9 6.8 9.5 8.5l10.4 2.6c9.2 2.2 14.3 7.7 14.1 15.9zm64.7-40.7v0.2c-0.8 4.6-1 8.7-1.2 14.3v0.2h-4.4l-0.5-6.5c0-1-0.5-1.7-0.7-1.9-0.7-0.8-3.4-0.8-5.6-0.8h-10.4v42.9c0 3.6 0.2 6 0.7 7 0.5 0.7 1.5 0.9 3.7 1.2l3.6 0.2v4.1h-3.2c-3.4-0.2-7.5-0.2-11.6-0.2-4.4 0-8.2 0.2-11.6 0.2h-2.9v-4.1l3.6-0.2c2.2-0.3 3.4-0.5 3.6-1.2 0.8-1 0.8-3.1 0.8-7v-42.9h-10.5c-2.1 0-5 0-5.5 0.8-0.3 0.2-0.8 0.9-0.8 1.9l-0.4 6.5h-4.4v-0.2c-0.2-5.6-0.5-9.9-1.2-14.3v-0.2l0.7-0.7c3.4 0 6.8 0 9.9 0 6.3 0.2 12.9 0.2 18.9 0.2 6.4 0 12.7-0.2 19-0.2 3.1 0 6.3 0 9.6 0zm74.2 29.6c0 20.2-13.3 32.5-35.4 32.5-21.3 0-33.4-11.6-33.4-31.5 0-20.3 13.3-32.5 35.4-32.5 21.3 0 33.4 11.5 33.4 31.5zm-33.7-26.2c-14 0-20.8 8.4-20.8 25.5 0 20.2 10.4 27.4 19.1 27.4 14.1 0 20.9-8.2 20.9-25.3 0-13.4-5.9-27.4-19.2-27.6zm111.5-4.1h0.2v3.8l-3.6 0.3c-2.7 0.2-3.4 0.7-3.6 1.4-0.8 1-0.8 3.1-0.8 7v40.4c0 2.4 0.3 4.6 0.3 6.8 0 0.7 0 1.7 0 2.4l-1 0.5-7.7-1.2-0.5-0.5c-3.7-3.9-7.5-8-10.9-11.8l-29.8-34.5v34.5c0 3.6 0.2 6 0.7 7 0.5 0.7 1.2 1.2 3.6 1.4l3.7 0.2v3.9h-3.9c-2.4-0.2-4.6-0.2-7.1-0.2-2.1 0-4.6 0.2-7 0.2h-3.9v-3.9l3.7-0.2c2.6-0.2 3.4-0.7 3.6-1.4 0.7-1 0.7-3.2 0.7-7v-36.4c0-3.6-0.2-6-0.7-7-0.5-0.7-1.2-1.2-3.6-1.4l-3.7-0.2v-3.9c1.3 0 2.7 0 3.9 0 2.4 0.2 5.1 0.2 7.5 0.2 1.7 0 3.4-0.2 5.1-0.2q1.5 0 2.9 0c1.2 1.2 2.2 2.6 3.2 3.9 2.2 2.6 4.3 5.5 6.5 7.9l28.6 32v-31.3c0-3.6-0.2-6-0.7-7-0.5-0.7-1.2-1.2-3.6-1.4l-3.7-0.2v-3.9c1 0 2.4 0 3.7 0 2.1 0.2 4.6 0.2 7 0.2 2.4 0 4.6-0.2 7-0.2 1.2-0.2 2.4-0.2 3.9-0.2zm52.8 45.9h4.1l-0.9 14.5-0.5 0.7h-0.3c-3.6 0.5-9.2 0.5-14 0.5h-12.6c-2.4-0.2-5.1-0.2-7.5-0.2-2.9 0-5.4 0.2-8 0.2h-3.4v-2.6l3.1-1.7c1.2-0.8 1.7-2 1.7-4.9v-39.9c0-3.6-0.2-6-0.7-7-0.5-0.7-1.2-1.2-3.6-1.4l-3.7-0.3v-3.8h0.3c2.6 0.2 5.1 0.2 7.2 0.2 2.7 0 5.1 0 7.1 0 6.8 0 11.8-0.2 16.5-0.2 1.4 0 2.6 0 3.8 0 5.6 0 9.5 0 13.6 0.2l0.7 0.7v0.3l-1.2 13h-3.9l-0.7-7c-0.2-0.7-3.9-1.5-10.4-1.5-3.9 0-7.8 0-11.6 0.3v21.2c1.9 0.2 3.8 0.2 5.8 0.2h6c3.2 0 4.6-0.2 4.9-1.7l0.5-5.3h3.8c0 1 0 2.4 0 3.4-0.2 1.9-0.2 4.1-0.2 6.3 0 2.1 0.2 4.3 0.2 6.5 0 0.9 0 2.4 0 3.3h-4.3l-0.5-4.8c-0.2-2.2-1.5-3.1-4.8-3.1h-6.1c-1.9 0-3.9 0-5.8 0.2v23.1c3.9 0.3 7.7 0.3 11.6 0.3 4.4 0 10.4-0.7 10.9-1.2zm66.7-46v4.1l-3.7 0.2c-2.2 0.3-3.4 0.5-3.6 1.2-0.7 1-0.7 3.2-0.7 7v36.4c0 3.6 0.2 6 0.7 6.9 0.5 0.8 1.4 1 3.6 1.3l3.7 0.2v4.1h-3.2c-3.4-0.3-7.5-0.3-11.6-0.3-4.4 0-8.3 0.3-11.7 0.3h-2.9v-4.1l3.7-0.2c2.1-0.3 3.4-0.5 3.6-1.3 0.7-0.9 0.7-3.1 0.7-6.9v-36.4c0-3.6-0.2-6-0.7-7-0.5-0.7-1.5-0.9-3.6-1.2l-3.7-0.2v-4.1c0.8 0 2 0 2.9 0 3.2 0.2 7.3 0.2 11.7 0.2 4.3 0 8.2-0.2 11.6-0.2 1 0 2.2 0 3.2 0zm76.8 0h0.2v3.8l-3.6 0.3c-2.7 0.2-3.4 0.7-3.6 1.4-0.8 1-0.8 3.2-0.8 7v40.5c0 2.4 0.3 4.5 0.3 6.7 0 1 0 1.9 0 2.6l-1 0.5-7.8-1.2-0.7-0.9c-3.6-3.9-7.3-7.7-10.6-11.6l-29.6-34.4v34.4c0 3.6 0.2 6 0.7 7 0.5 0.7 1.2 1.2 3.7 1.4l3.6 0.3v3.8h-3.9c-2.4-0.2-4.6-0.2-7-0.2-2.2 0-4.6 0.2-7 0.2h-3.9v-3.8l3.6-0.3c2.7-0.2 3.4-0.7 3.6-1.4 0.8-1 0.8-3.1 0.8-7v-36.4c0-3.6-0.3-6-0.8-6.9-0.4-0.8-1.2-1.2-3.6-1.5l-3.6-0.2v-3.9c1.2 0 2.6 0 3.9 0 2.4 0.3 5 0.3 7.5 0.3 1.7 0 3.4-0.3 5.1-0.3q1.4 0 2.9 0c1.2 1.2 2.1 2.7 3.1 3.9 2.2 2.6 4.4 5.5 6.6 7.9l28.5 32v-31.3c0-3.6-0.2-6-0.7-6.9-0.5-0.8-1.2-1.2-3.6-1.5l-3.6-0.2v-3.9c0.9 0 2.4 0 3.6 0 2.2 0.3 4.6 0.3 7 0.3 2.4 0 4.6-0.3 7-0.3 1.3-0.2 2.5-0.2 3.7-0.2zm73.7 0h0.2v3.8l-3.2 0.3c-1.7 0.2-2.9 1.4-4.1 4.1l-19.1 44.3c-0.7 1.7-1.5 3.6-2.2 5.3q-0.7 1.8-1.5 3.6v0.2h-7.5v-0.2l-22.3-51.3c-0.9-2.4-2.4-5.8-5.3-6l-4.1-0.3v-3.8h0.2c2.7 0.2 5.1 0.2 7.3 0.2 2.7 0 5.1 0 7 0 2 0 4.1 0 6.8 0 2.4-0.2 5.1-0.2 8.5-0.2h0.2v4.1l-4.8 0.2c-1.2 0.3-2.2 0.7-2.2 1.5 0 1.7 1.2 4.5 1.9 6.2l14.3 33.7 12.9-30.8c1.4-3.4 2.9-7 2.9-8.7 0-1.9-2.2-2.1-3.2-2.1l-4.6-0.3v-3.8h0.3c1.9 0.2 3.6 0.2 5.3 0.2 2.2 0 3.9 0 5.3 0q2.2 0 5.1 0c1.7 0 3.7-0.2 5.9-0.2zm50.6 46h4.1l-1 14.4-0.4 0.7h-0.3c-3.6 0.5-9.2 0.5-14 0.5h-12.6c-2.5-0.2-5.1-0.2-7.6-0.2-2.9 0-5.3 0.2-7.9 0.2h-3.4v-2.6l3.1-1.7c1.2-0.7 1.7-1.9 1.7-4.8v-40c0-3.6-0.2-6-0.7-7-0.5-0.7-1.2-1.2-3.7-1.4l-3.6-0.3v-3.8h0.3c2.6 0.2 5 0.2 7.2 0.2 2.7 0 5.1 0 7 0 6.8 0 11.9-0.2 16.5-0.2 1.5 0 2.7 0 3.9 0 5.6 0 9.5 0 13.6 0.2l0.7 0.8v0.2l-1.2 13h-3.9l-0.7-7c-0.3-0.7-3.9-1.4-10.4-1.4-3.9 0-7.8 0-11.7 0.2v21.2c2 0.2 3.9 0.2 5.9 0.2h6c3.2 0 4.6-0.2 4.9-1.6l0.4-5.3h4.4c0 0.9 0 2.4 0 3.3-0.2 2-0.2 4.1-0.2 6.3 0 2.2 0.2 4.3 0.2 6.5 0 0.9 0 2.4 0 3.4h-4.4l-0.4-4.9c-0.3-2.1-1.5-3.1-4.9-3.1h-6c-2 0-3.9 0-5.9 0.3v23.1c3.9 0.2 7.8 0.2 11.7 0.2 4.3 0 10.4-0.7 10.9-1.2zm58.4-4.6c0 7-2.9 12.8-8.5 16.6-4.6 3.2-11.4 5.1-18.9 5.1-6.8 0-13.6-1.4-19.4-4.1h-0.2v-0.2c0.9-4.6 1.4-9.4 1.4-15.4v-0.3h4.4l0.7 8c2.4 4.1 9.5 6.7 14.3 6.7 7.3 0 14.3-3.6 14.3-11.6 0-3.8-2.7-6.5-7.5-7.9l-12.9-3.9c-8.7-2.4-13.8-8.1-13.8-15.4 0-12.7 9-19.9 24.8-19.9 5.8 0 12.1 1.2 17.2 3.1l0.4 1.2c-0.7 2.4-1.2 7.2-1.2 12.5v0.2h-4.3l-0.5-7.4c-2.4-2.9-7.5-4.8-11.9-4.8-7.5 0-12.4 4.1-12.4 10.6 0 4.1 3 6.7 9.5 8.4l10.4 2.6c9 2.2 14.1 7.7 14.1 15.9zm64.4-40.7v0.3c-0.7 4.6-0.9 8.6-1.2 14.2v0.2h-4.3l-0.5-6.5c0-0.9-0.5-1.7-0.7-1.9-0.8-0.7-3.4-0.7-5.6-0.7h-10.4v42.8c0 3.6 0.2 6.1 0.7 7 0.5 0.7 1.4 1 3.6 1.2l3.7 0.3v4.1h-3.2c-3.4-0.3-7.5-0.3-11.6-0.3-4.4 0-8.3 0.3-11.7 0.3h-2.9v-4.1l3.7-0.3c2.2-0.2 3.4-0.5 3.6-1.2 0.7-0.9 0.7-3.1 0.7-7v-42.8h-10.4c-2.2 0-5.1 0-5.6 0.7-0.2 0.2-0.7 1-0.7 1.9l-0.5 6.5h-4.3v-0.2c-0.3-5.6-0.5-9.9-1.2-14.2v-0.3l0.7-0.7c3.4 0 6.8 0 9.9 0 6.3 0.3 12.9 0.3 18.9 0.3 6.3 0 12.6-0.3 18.9-0.3 3.2 0 6.3 0 9.7 0zm90.7-0.7h0.2v3.8l-3.6 0.3c-2.7 0.2-3.4 0.7-3.7 1.4-0.7 1-0.7 3.2-0.7 7v36.6c0 3.6 0.2 6 0.7 7 0.5 0.7 1.5 1 3.7 1.2l3.6 0.2v4.1h-3.2c-3.4-0.2-7.5-0.2-11.6-0.2-4.4 0-8.2 0.2-11.6 0.2h-2.9v-4.1l3.6-0.2c2.2-0.2 3.4-0.5 3.6-1.2 0.8-1 0.8-3.1 0.8-7v-35.9l-18.5 36.9c-2.4 4.8-4.3 8.9-5.5 11.8v0.2h-3.7v-0.2c-0.7-2.2-1.9-4.4-2.9-6.5l-0.5-1-20.6-41.4v35.9c0 3.6 0.3 6 0.8 7 0.5 0.7 1.2 1.2 3.6 1.4l3.6 0.2v3.9h-3.8c-2.5-0.3-4.6-0.3-7.1-0.3-2.1 0-4.6 0.3-7 0.3h-3.9v-3.9l3.7-0.2c2.6-0.2 3.1-0.7 3.6-1.4 0.7-1 0.7-3.2 0.7-7v-36.4c0-3.6-0.2-6-0.7-7-0.5-0.7-1.2-1.2-3.6-1.4l-3.7-0.3v-3.8c1.2 0 2.7 0 3.9 0 2.4 0.2 4.9 0.2 7.5 0.2 2.7 0 5.1-0.2 7.5-0.2 1.2 0 2.7 0 3.9 0v0.2c1.2 2.7 3.2 6.8 4.9 10.4 0.7 1.4 1.4 2.9 1.9 4.1l14.3 28.9 16.7-33.3c1.2-2.4 2.4-4.8 3.4-7.2 0.5-0.9 0.7-1.9 1.2-2.9v-0.2h0.3c1.9 0.2 3.6 0.2 5.3 0.2q2.9 0 5.1 0c1.7 0 3.4 0 5.3 0 1.5 0 3.4-0.2 5.4-0.2zm52.5 46h4.2l-1 14.4-0.5 0.7h-0.2c-3.7 0.5-9.2 0.5-14.1 0.5h-12.6c-2.4-0.2-5.1-0.2-7.5-0.2-2.9 0-5.3 0.2-8 0.2h-3.4v-2.6l3.1-1.7c1.3-0.7 1.7-1.9 1.7-4.8v-40c0-3.6-0.2-6-0.7-7-0.5-0.7-1.2-1.2-3.6-1.4l-3.7-0.3v-3.8h0.3c2.7 0.2 5.1 0.2 7.3 0.2 2.6 0 5.1 0 7 0 6.8 0 11.9-0.2 16.5-0.2 1.4 0 2.6 0 3.8 0 5.6 0 9.5 0 13.6 0.2l0.7 0.8v0.2l-1.2 13h-3.8l-0.8-7c-0.2-0.7-3.8-1.4-10.4-1.4-3.9 0-7.7 0-11.6 0.2v21.2c1.9 0.2 3.9 0.2 5.8 0.2h6c3.2 0 4.7-0.2 4.9-1.6l0.5-5.3h4.3c0 0.9 0 2.4 0 3.3-0.2 2-0.2 4.1-0.2 6.3 0 2.2 0.2 4.3 0.2 6.5 0 1 0 2.4 0 3.4h-4.3l-0.5-4.9c-0.2-2.1-1.5-3.1-4.9-3.1h-6c-1.9 0-3.9 0-5.8 0.3v23.1c3.9 0.2 7.7 0.2 11.6 0.2 4.4 0 10.4-0.7 10.9-1.2zm80.2-46h0.3v3.9l-3.7 0.2c-2.6 0.3-3.4 0.7-3.6 1.5-0.7 0.9-0.7 3.1-0.7 6.9v40.5c0 2.4 0.2 4.6 0.2 6.7 0 1 0 2 0 2.7l-1 0.5-7.7-1.2-0.7-1c-3.7-3.9-7.3-7.7-10.7-11.6l-29.6-34.4v34.4c0 3.6 0.3 6.1 0.8 7 0.5 0.7 1.2 1.2 3.6 1.5l3.6 0.2v3.9h-3.8c-2.5-0.3-4.6-0.3-7.1-0.3-2.2 0-4.6 0.3-7 0.3h-3.9v-3.9l3.7-0.2c2.6-0.3 3.4-0.8 3.6-1.5 0.7-0.9 0.7-3.1 0.7-7v-36.3c0-3.6-0.2-6-0.7-7-0.5-0.7-1.2-1.2-3.6-1.4l-3.7-0.3v-3.8c1.2 0 2.7 0 3.9 0 2.4 0.2 5.1 0.2 7.5 0.2 1.7 0 3.4-0.2 5.1-0.2q1.5 0 2.9 0c1.2 1.2 2.2 2.6 3.2 3.8 2.1 2.7 4.3 5.6 6.5 8l28.6 32v-31.3c0-3.6-0.2-6-0.7-7-0.5-0.7-1.2-1.2-3.7-1.4l-3.6-0.3v-3.8c1 0 2.4 0 3.6 0 2.2 0.2 4.6 0.2 7.1 0.2 2.4 0 4.6-0.2 7-0.2 1.2-0.3 2.4-0.3 3.6-0.3zm63 0.7v0.3c-0.7 4.6-0.9 8.7-1.2 14.2v0.2h-4.3l-0.5-6.5c0-0.9-0.5-1.7-0.8-1.9-0.7-0.7-3.3-0.7-5.5-0.7h-10.4v42.8c0 3.6 0.2 6.1 0.7 7 0.5 0.7 1.4 1 3.6 1.2l3.7 0.3v4.1h-3.2c-3.4-0.3-7.5-0.3-11.6-0.3-4.4 0-8.3 0.3-11.7 0.3h-2.9v-4.1l3.7-0.3c2.1-0.2 3.4-0.5 3.6-1.2 0.7-0.9 0.7-3.1 0.7-7v-42.8h-10.4c-2.2 0-5.1 0-5.6 0.7-0.2 0.2-0.7 1-0.7 1.9l-0.5 6.5h-4.3v-0.2c-0.3-5.5-0.5-9.9-1.3-14.2v-0.3l0.8-0.7c3.4 0 6.8 0 9.9 0 6.3 0.3 12.9 0.3 18.9 0.3 6.3 0 12.6-0.3 18.9-0.3 3.4 0 6.6 0 10 0z"/>
	</g>
</svg>