<svg version="1.2" xmlns="http://www.w3.org/2000/svg" viewBox="0 0 1550 221" width="1550" height="221">
	<title>logo - 2022-09-30T155532</title>
	<style>
		.s0 { fill: #0047ba } 
		.s1 { fill: #a4a9ad } 
	</style>
	<path id="Layer" class="s0" d="m25 220.8c-14.1 0-25-11.7-25-25 0-13.3 11.7-25 25-25h202.8c14 0 24.9 11.7 24.9 25 0 13.3-11.7 25-24.9 25zm0-82.7c-14.1 0-25-11.7-25-25 0-14 11.7-24.9 25-24.9h202.8c14 0 24.9 11.7 24.9 24.9 0 14.1-11.7 25-24.9 25zm0-81.9c-13.3 0-25-11.7-25-25.8 0-14 11.7-24.9 25-24.9h202.8c14 0 24.9 11.7 24.9 24.9 0 14.1-11.7 25-24.9 25h-202.8z"/>
	<path id="Layer" fill-rule="evenodd" class="s1" d="m1086.5 5.5h29.7v164.6h-37.5l-81.1-126.4-0.8-0.8v127.2h-29.6v-164.6h39l79.6 122.4 0.7 0.8zm-618.5 152.1q-30.4 16.4-67.9 16.4c-50.7 0-86.5-34.3-86.5-85.8 0-53 35.8-87.4 86.5-87.4 25 0 47.6 5.5 64.8 21.1l-21.9 21.8c-10.1-10.1-26.5-16.3-42.9-16.3-33.5 0-56.1 25.7-56.1 58.5 0 35.1 22.6 60.8 56.1 60.8 14.9 0 28.1-3.1 38.3-8.6v-54.6h29.6zm92-152.1h25l62.4 164.6h-33.5l-12.5-37.4h-59.3l-12.5 37.4h-32.7zm31.9 101.4l-21-64-21.1 64zm870.5-101.4h25l62.4 164.6h-33.6l-12.5-37.5h-59.2l-12.5 37.5h-32.8zm32.8 101.4l-21.1-64-21 64zm-815.1-101.4h29.6v138h67.9v26.6h-97.5zm239.4 0v26.5h-77.2v40.5h73.3v26.6h-73.3v44.4h81.9v26.5h-110.8v-164.5zm245.7 0h29.7v164.5h-29.7zm188.8 38.3c-11.7-12.5-23.4-16.4-34.3-16.4-33.6 0-56.2 25.7-56.2 58.5 0 35.1 22.6 60.8 56.2 60.8 13.2 0 25.7-6.2 36.6-20.3l24.2 17.2c-14.8 20.3-37.4 29.6-61.6 29.6-50.7 0-86.6-34.3-86.6-85.8 0-53 35.9-87.3 86.6-87.3 22.6 0 41.3 7 57.7 25.7z"/>
</svg>