<svg version="1.2" xmlns="http://www.w3.org/2000/svg" viewBox="0 0 1521 334" width="1521" height="334">
	<title>gcm-logo-white@2x-svg</title>
	<style>
		.s0 { fill: #3c79a5 } 
	</style>
	<g id="#ffffffff">
		<path id="Layer" fill-rule="evenodd" class="s0" d="m0 0h404.7q0 166.7 0 333.4-202.4 0-404.7 0zm51.2 56.5c-13.5 11.5-19.4 30.9-14.8 48 3.4 15.2 15.5 27.7 30.1 32.8 19.1 7.4 41 3.4 58.6-6.4 0.5-10.3-3.7-24.8 8.3-30-9.6 0-19.2 0.1-28.9 0 4.3 2.8 8.9 6.3 8.4 12.1-0.6 5.8 3.2 15.6-4.7 17.6-16.2 7-37.5 5.5-49.3-8.7-16-20.1-12.4-56.6 12.7-67.7 18.5-8.1 46.8-3.3 53.5 18.4-0.2-6.7 0.2-13.3 0.9-19.9-12.6-3.6-25-9.2-38.4-9-13 0.3-26.4 4.1-36.4 12.8zm113.6-2.2c-23.4 16.4-25.6 54.5-3.9 73.2 20.3 18.4 51.9 16.6 74.7 3.8 0.6-6.3 1.3-12.6 1.9-18.9-8.6 22.8-39 28.3-58.4 16.2-26.2-15.4-24.9-60.7 3-73.6 17.6-9.4 46.2-5.4 52.2 16.2 0.4-6.4 0.9-12.8 1.3-19.2-22.3-9.5-50.2-12.9-70.8 2.3zm88.9-8.8c4 2.8 8.3 6.3 8.1 11.7 0.3 23.9 0.3 47.9 0.1 71.9 0.1 5-4.5 7.7-8.2 10.1 7.9-0.2 15.9 0 23.9-0.4-1.7-0.8-5.1-2.5-6.8-3.3-1.3-4.6-2-9.3-1.8-14 0.1-21.6 0.1-43.2 0-64.8 12.8 28.3 24.5 57 37 85.4 12.5-28.5 24.3-57.3 37.1-85.7 0.1 23.4 0.3 46.9 0 70.4 0.7 5.7-4.1 9.2-8.4 11.8 10-0.3 20-0.3 30.1-0.1-3-2.6-8.4-4.2-8-9.1-0.3-24.4-0.2-48.8-0.1-73.3-1-5.4 4.2-8 7.8-10.6-8.3 0.5-16.7 0.4-25 0.3-10.3 24.4-20.4 48.8-30.4 73.3-10.5-24.4-21.1-48.8-31.5-73.2-7.9 0-15.9 0.1-23.9-0.4z"/>
		<path id="Layer" fill-rule="evenodd" class="s0" d="m479.5 53.3c22.4-13 49.6-8.1 73.1-1.2-1 7.1-1.1 14.3-1.6 21.4-9.3-23.7-41.9-24.9-60.9-12.8-22.9 13.7-22.9 51.7-0.4 65.7 14.2 9.5 33 8.1 47.8 0.8 0.3-9.8 1.2-22.1-10.2-26.1 11-0.2 22-0.2 33 0.1-12.5 5.2-9.1 19.5-9.5 30.3-15.2 8.6-33.4 12.6-50.7 9-17.6-3-34.6-14.3-40.9-31.5-7.9-20.3 1.2-45.3 20.3-55.7zm261.8-6.4c26.5-7.1 61.2 6.1 66.7 35.3 6.3 24.2-9.7 50.3-33.4 57.4-20.8 7-45.9 2.6-61.3-13.7-13.3-14.3-14.9-37-6-53.9 6.9-13 20-21.7 34-25.1zm0.2 8.6c-24.8 9-30.4 43.4-15.9 63.5 10 15.6 32.6 20.7 48.5 11.3 19.5-10.6 24-38.3 13.7-56.9-8.2-16.3-29.2-24.7-46.3-17.9zm101.7-3.9c12.4-6.8 27.4-7.6 41.1-5.4 6.9 0.9 12.6 6.2 19.7 6.1-0.1 6.9 0 13.8-0.1 20.6-3.6-6.9-7.3-14.9-15.3-17.6-12.1-4.4-26.5-4.2-38 1.8-8.5 4-7.4 17.2 0.7 21.1 15.8 7.9 35.4 4.1 50.4 14.2 12.2 9.1 10.8 28.9 1.3 39.5-9.5 9.1-23.4 10.9-35.9 10.8-12.7 0.3-25.3-2.9-36.6-8.7 0-7.4-0.2-14.9 0.6-22.3 2.1 10.7 9.9 19.4 20.7 21.7 12.5 2.4 26.5 3.1 38.2-2.8 9.6-4.5 12.6-20.7 2.3-26.2-15.3-7.8-33.9-4.5-49-13-14.3-7.8-14.5-31.9-0.1-39.8zm214.2-4.1c27-1.3 54.3 1.8 81.1-1.6-1 8.5-1.8 16.9-2.8 25.3-2.6-5.5-3.4-14.7-11.1-15.2-14.7-0.6-29.4 0-44.1-0.2q0 16.6 0 33.2c10.8-0.3 21.8 0.8 32.6-0.6 5.2-0.8 7.1-6.5 10.2-10.1-0.6 9.8-1.2 19.7-2.2 29.5-2.3-3.6-2.8-11-8.4-10.9-10.7-0.4-21.5 0-32.2-0.1 0 11.7-0.1 23.4 0.1 35.1 15.4 0.1 30.9 0.5 46.3-0.1 7.5-1.2 10.8-8.7 15.1-14.1-1.2 7.4-2.7 14.7-4.1 22-26.7 0.3-53.4 0.1-80.1 0.2 3.9-3.5 9.5-6.6 8.5-12.7 0-22.7 0.2-45.4-0.1-68.1 0.7-5.8-5.3-8.3-8.8-11.6zm274.4-0.6c19.3-4.8 41.4-0.1 55.7 14.1 16 16.4 16.1 44.8 1.7 62.2-20.5 25.1-63.7 26.4-85.5 2.3-13.4-14.1-14.8-36.9-5.7-53.6 6.6-13 19.8-21.7 33.8-25zm0.1 8.6c-23.4 8.4-29.4 39.4-18.1 59.6 8.6 18.2 33.3 25.5 50.6 15.4 19.5-10.7 24.1-38 14.1-56.7-8.1-16.7-29.4-25.2-46.6-18.3zm-747.4-8c19.1-0.4 38.1-0.2 57.2-0.2 10.8 0.1 23.1 3.3 28.9 13.4 4.8 9.7 3.3 23.6-6 30.3-6.9 5.4-15.9 6.4-24.3 7.2 14.3 13.8 26 30.7 43.2 41.3-7.4 0.4-14.7 0.4-22.1 0.4-15.5-16.7-32.3-32.3-46.7-50 11.3-1.4 23.8 2.4 34.2-2.9 12.5-7 9.3-28.3-4.9-30.8-11.9-0.9-23.9-0.7-35.8 0.2-0.2 24.3-0.3 48.5 0 72.8 0 5.1 5.3 7.4 8.4 10.7-10.6-0.1-21.4 0.1-32-0.4 3.5-2.6 9.6-4.2 9.1-9.6 0.5-23.5 0.2-47.1 0.2-70.7 0.9-6.1-5.4-8.7-9.4-11.7zm341 0c13-0.2 26-0.5 39.1 0.2-2.8 3.4-12.3 4.5-9 10.2 10.3 20.3 21.1 40.3 31.8 60.4 3.7 0.1 4.1-4.3 5.9-6.6 10-19.2 21.2-37.9 30.5-57.4q-5.5-3.3-10.8-6.7c10.4-0.5 20.9-0.4 31.3 0-5.1 4-10.8 7.7-13.9 13.6-15.2 27.4-29.7 55.3-45 82.8-16-27.5-30.1-56-45.6-83.7-2.9-6-8.8-9.4-14.3-12.8zm240 0c7.4-0.2 14.7-0.2 22-0.2 21.9 22.8 43.6 46 65.3 69 0-19 0.1-37.9 0-56.9 0.7-6-5.2-8.7-8.9-11.9 8.4-0.3 16.9-0.2 25.4-0.1-3.6 3.4-9.4 6.3-8.7 12.1-0.3 28.1 0.3 56.3-0.3 84.4-26.6-26.3-51.7-54.1-78.1-80.7 0.1 22.1-0.2 44.2 0.1 66.3-0.5 5 4.9 7.2 7.7 10.4-8.1-0.1-16.1-0.1-24.1 0 10.7-5.3 7.4-17.2 7.8-26.8-0.4-19.6 0.8-39.3-0.6-58.8-1.9-1.7-5.7-5.1-7.6-6.8zm260 0c17.3-0.4 34.6-0.1 51.8-0.2 8.8 0 18.4 0.9 25.6 6.5 11.9 9.1 11.4 30.3-1.5 38.3-6.5 4.6-14.6 5.3-22.1 6.1 13.8 13.9 25.4 30.1 41.5 41.5-7.1 0.2-14.2 0.2-21.2 0.2-15-16.9-31.1-32.7-45.5-50 10.5-1.1 21.8 1.6 32-1.9 13.4-5.9 11.6-28.7-3-31.7-11.5-1.2-23.1-0.3-34.6-0.4-1.6 23.7-0.6 47.4-0.7 71.1-0.8 6.1 4.4 9.6 8.7 12.6-10.3 0.4-20.6 0.3-30.8 0.3 3.1-3.1 8.7-4.9 8.4-10.1 0.4-23.5 0.1-46.9 0.1-70.4 0.9-6-5-8.6-8.7-11.9z"/>
	</g>
</svg>