<svg version="1.2" xmlns="http://www.w3.org/2000/svg" viewBox="0 0 1580 389" width="1580" height="389">
	<title>GigaCloudLogo1-svg</title>
	<style>
		.s0 { fill: #11325c } 
		.s1 { fill: #ffffff } 
		.s2 { fill: #000000 } 
		.s3 { fill: #723812 } 
		.s4 { fill: #c16b30 } 
	</style>
	<g id="#11325cff">
		<path id="Layer" class="s0" d="m167.5 3.9c42.6-8.1 87.8-1.7 126.3 18.5 32.9 17.2 60.8 44 79.1 76.3 19.1 33.3 27.7 72.4 24.7 110.6-2.6 37.2-16.5 73.5-39.2 103-22.9 30.1-54.7 53.2-90.3 65.5-37 13-77.9 14.3-115.6 4-32.2-8.7-61.8-26-85.4-49.5-27.4-27-46.4-62.3-53.7-100-7.5-37.7-3.5-77.4 11.3-112.8-8.3-4.1-16.3-8.6-24.7-12.3v-0.4c4-1.6 7.5-4.2 11.1-6.4 22.6-13.9 45-27.9 67.6-41.7 0.1 29.3 0 58.5 0 87.8-5.7-2.9-11.5-5.8-17.2-8.6-12.6 30.2-15.4 64.5-7.5 96.3 8.3 34.5 29 65.8 57.4 87 25.4 19.4 57 30.5 89 31.3 35.5 1.1 71.3-10.6 99.3-32.4 28.2-21.7 48.5-53.3 56.3-88 7.3-31.4 4.4-65-8.1-94.6-13.2-31.5-37.1-58.4-66.9-75.1-30.1-17.2-66.2-23.6-100.4-18.2-4.3-13.4-8.9-26.9-13.1-40.3z"/>
		<path id="Layer" fill-rule="evenodd" class="s0" d="m435.7 15.7q572.1 0 1144.3 0v210.5c-381.5 0-762.9 0.1-1144.4 0 0.1-70.1 0-140.3 0.1-210.5zm66.7 41.2c-14.9 5.9-26.4 19.2-30.2 34.7-2.5 9.7-1.8 19.8-1.9 29.7 0.1 9.7-0.7 19.6 1.7 29.1 2.5 10.6 8.5 20.1 16.8 27.1 12.1 10.6 29 13.9 44.7 12.5 14.3-0.7 28.8-5.8 39.2-15.9 1.5-1.6 3.8-3.3 3.5-5.8 0-16.3 0-32.5 0-48.7-17.3-0.1-34.5 0-51.8-0.1 0 5.8 0 11.5 0 17.2 9.5 0 19.1 0 28.6 0 0 9.1-0.1 18.1 0 27.2-7.8 7.4-19.3 8.7-29.7 8.2-9.2-0.5-17.9-5.5-23-13.1-5.7-7.9-7.2-17.9-6.8-27.4 0.3-10.7-0.7-21.4 0.6-31.9 1.7-12.6 10.4-24.9 23.2-27.8 10.2-2 22.4-0.7 29.6 7.6 4.2 4.5 5.4 10.7 5.9 16.6q11 0 22 0c0.4-8.5-1.5-17.4-6.5-24.3-6.6-9.7-17.6-15.5-28.9-17.6-12.3-2.1-25.3-2-37 2.7zm197.3-1.1c-16.1 5.3-29.1 19.2-33.1 35.6-2.8 10.1-1.8 20.7-2 31 0.2 9-0.6 18 1.5 26.9 2.2 10.8 8.2 20.6 16.5 27.8 11.9 10.7 28.7 14.2 44.3 12.9 16.3-0.5 33.1-6.8 43.6-19.7q0.1-25.4 0-50.7c-17.2 0-34.5-0.1-51.8 0q0 8.5 0 17.1c9.6 0 19.1 0 28.7 0-0.3 9.2 0.5 18.4-0.4 27.4-5.7 5.4-13.6 7.5-21.2 7.9-8.4 0.8-17.4-0.5-24.2-5.7-8.9-6.8-13.6-17.9-13.8-28.9 0-10.7 0-21.4 0-32.1 0.3-11.5 5.4-23.3 15.2-29.7 8.4-5.5 19.5-5.6 28.9-2.5 9.4 3.3 15.5 13.1 15 23 7.4 0 14.8 0 22.2 0 0.5-8.8-1.7-17.8-6.9-24.9-6.5-9.2-17.1-14.8-28.1-16.9-11.3-2.1-23.3-2.1-34.4 1.5zm264-0.1c-16.4 5.4-28.8 20.2-32.7 36.9-2.6 9.8-1.8 19.9-1.9 29.8 0.1 8.1-0.5 16.3 1 24.3 2.7 16.3 13.3 31.3 28.3 38.4 12.1 5.7 26 6.2 39 3.7 11.4-2.1 22.2-8.2 29-17.8 5.5-7.6 7.7-17.2 7.2-26.6-7.4 0-14.8 0.1-22.2 0-0.2 7-1.7 14.5-6.6 19.8-6.7 7.3-17.6 8.8-27 7.6-9.5-1.2-17.4-8.2-21.3-16.6-5.4-10.9-4.4-23.4-4.5-35.1 0-11.2-0.5-23.1 5-33.2 4-8 11.6-14.5 20.7-15.5 9.3-1 19.9 0.4 26.7 7.3 5.2 5.2 6.7 12.9 7 19.9 7.5 0.1 15 0.1 22.5 0 0-8.1-1.1-16.5-5.3-23.6-6-10.9-17.6-17.8-29.7-20.4-11.5-2.3-23.8-2.6-35.2 1.1zm247.1-2.2c-21.8 2.3-40.4 20.1-44.8 41.4-2.3 10.1-1.4 20.6-1.6 31-0.1 9 0 18.3 2.8 27 5.2 16.7 19 30.7 36 35.2 11.6 3 24 2.9 35.5-0.5 17.8-5.1 32-20.4 36.3-38.4 2-8 1.9-16.3 1.9-24.5-0.2-10.3 0.7-20.9-2-31-3.4-14-12.8-26.3-25.3-33.5-11.6-6.7-25.6-8.4-38.8-6.7zm-600.3 1.4q0 66.7 0 133.3 11.5 0 22.9 0 0-66.6 0-133.3-11.4 0-22.9 0zm228.7 0c-16 44.4-31.9 88.9-47.8 133.3 8 0 15.9 0 23.9 0 3.6-10.2 7-20.6 10.5-30.8 16.1-0.2 32.1 0 48.2-0.1 3.6 10.3 7 20.6 10.5 30.9 8 0 16 0 24 0-15.8-44.4-31.5-88.9-47.3-133.3q-11 0-22 0zm221 0q0 66.7 0 133.3c29.1 0 58.2 0 87.3 0q0-9 0-18-32.1 0-64.1 0 0-57.6 0-115.3-11.6 0-23.2 0zm243.6 0c0 29.4 0 58.8 0 88.1 0 10.6 2.8 21.4 9.7 29.6 8.8 10.7 22.7 16.3 36.3 17.3 16.3 1.4 34-1.8 46.5-13 9-7.8 13.9-19.7 14-31.6 0-30.1 0-60.2 0-90.4q-11.5 0-22.9 0c0 27.9 0 55.7 0 83.5 0 6.3-0.3 12.7-3 18.4-3.7 8.1-12 13.5-20.7 14.8-9.4 1.6-19.8 0.2-27.3-6-6.4-5.1-9.4-13.4-9.4-21.5q0-44.6 0-89.2-11.6 0-23.2 0zm137.7 0c0 44.5-0.1 88.9 0 133.3 16.4 0 32.8 0 49.1 0 17.2-0.4 34.4-8.2 44.7-22.3 7.5-10.1 10.8-22.9 10.4-35.5-0.4-12.2 1.2-24.7-2.3-36.6-3.7-12.9-12.6-24-24-30.8-9.6-5.8-21-8.2-32.1-8.1-15.3 0-30.6 0-45.8 0zm-230.8 17.8c7.7-2 16.2-1.6 23.6 1.7 9.3 4.2 15.6 13.4 18 23.1 2 7.8 1.3 15.8 1.4 23.7-0.1 9.5 0.8 19.3-2.6 28.4-3.3 9.4-10.6 17.8-20.4 20.6-10.5 3-23.1 1.8-31.3-6-8.1-7.4-11.6-18.5-11.8-29.2-0.1-8.4 0-16.8 0-25.2 0-8.2 1.5-16.5 5.8-23.5 3.8-6.4 9.9-11.7 17.3-13.6zm253.9 0.2c12.7 0.7 26.1-2 38 3.3 13.5 6.1 20.7 21.6 19.9 35.9-0.6 13.3 2.2 27.6-4.4 39.9-5 10.2-15.6 17.3-27 18.1-8.8 0.3-17.6 0-26.5 0.1q0-48.6 0-97.3zm-614.5 13q9 26.2 17.7 52.5-17.8 0-35.6 0c6-17.5 11.9-35 17.9-52.5zm-155.9 160.5c8.9-5.1 19.6-5.6 29.4-3.8 9.8 1.6 19.1 7 24.6 15.3 4.6 6.9 6.1 15.4 5.8 23.6q-4.6-0.1-9.1-0.1c0-8.3-2.4-17.1-8.6-22.9-7-6.7-17.2-8.7-26.5-7.8-7.8 0.7-15 5.1-19.6 11.2-7.3 9.4-9.9 21.6-9.6 33.2 0.5 13.8-1.6 28.3 3.9 41.4 3.7 9.6 11.4 18.4 21.8 20.7 10.3 1.9 22 0.3 30-7 6.4-6 8.6-15.1 8.6-23.6q4.5 0 9.1 0c0.5 10.2-2.4 20.9-9.7 28.2-6.5 7-15.9 10.8-25.4 11.6-11.5 1.4-24-1.7-32.4-10.1-11.5-11-15.8-27.3-15.6-42.8 0.3-13-1.1-26.3 2.6-39 3.2-11.4 10.1-22.3 20.7-28.1zm364.3-4.1c11-1.7 22.9-0.1 32.2 6.3 9.9 6.8 16.3 17.8 18.8 29.4 2.5 10.9 1.4 22.1 1.7 33.2 0.2 11.2-1.3 22.8-6.6 32.8-5.2 9.8-14.1 18-24.9 20.9-10.5 2.9-22.1 2.4-32.1-2.2-10.6-5.1-18.1-15.3-21.8-26.3-3.3-9.9-3.5-20.6-3.4-30.9-0.1-12-0.3-24.4 4.2-35.8 5.1-13.7 17-25.4 31.9-27.4zm1.1 9c-10.5 1.7-18.9 9.6-22.9 19.2-6 13.1-4.3 27.8-4.6 41.8-0.1 11.7 2 24.1 9.3 33.6 11.8 16.1 39.3 15.7 51-0.3 6-7.8 8.6-17.7 9-27.5 0.5-10.3 0.5-20.7-0.2-31.1-0.9-11.2-5.5-22.7-14.5-29.8-7.5-6.1-17.8-7.4-27.1-5.9zm206.2-9.1c10.2-1.4 21.1-0.1 30 5.2 10.5 6.5 17.5 17.6 20.3 29.5 2.9 12 1.7 24.4 2 36.6 0.1 14.1-3.4 29-13.1 39.8-12.5 14.4-35.1 17.1-51.8 8.8-11.4-6.1-18.9-17.9-21.9-30.3-2.9-11.6-1.7-23.7-1.9-35.5-0.3-13.5 2.4-27.7 10.8-38.7 6-8.3 15.4-14 25.6-15.4zm1 9.1c-7 1.1-13.6 4.9-18 10.5-7 8.7-9.6 20.1-9.7 31.1 0 8 0 16 0 24 0.3 10.6 3.1 21.5 9.9 29.8 12.1 15.4 39 14.6 50.4-1.2 7.4-9.8 9.4-22.4 9-34.4-0.4-10.6 1-21.5-1.6-32-2.2-9.1-7.1-17.9-14.9-23.2-7.3-4.9-16.6-5.9-25.1-4.6zm90.5 6.6c6.5-8.9 16.8-15 27.9-15.9 12.6-1.3 26.6 1.4 35.6 10.9 7.1 6.8 10.3 16.8 9.8 26.5q-4.5 0.1-9 0.1c0.2-9.8-4.6-19.6-13-24.7-7.8-4.5-17.4-5.2-26-3.4-10.9 2.4-19 11.6-22.8 21.7-4.6 11.7-3.1 24.6-3.4 36.9-0.1 9.9 0.8 20.2 5.5 29.1 4.7 9.3 13.5 16.9 24 18.4 10.6 1.2 22.3-0.1 30.9-7 2.2-1.8 5.1-4 4.9-7.2 0-9.7 0-19.3 0-29q-15.3 0-30.6 0.1 0-4.3 0-8.6 20 0 40 0c-0.1 14.3 0.3 28.6-0.1 42.9-3.8 6.5-10.5 10.7-17.1 13.9-10.2 4.2-21.7 5.1-32.4 3-15.5-3.2-27.6-16.4-32-31.2-4-12.7-2-26.1-2.5-39.2-0.6-13 2.1-26.7 10.3-37.3zm-893-5.6q0-4.5 0-8.9 44.3 0 88.7 0 0 4.5 0 8.9c-13 0-26 0-38.9 0q0 56.3 0 112.7-4.8 0-9.5 0c0-37.6 0-75.1 0-112.7-13.4 0-26.9 0-40.3 0zm114.4 112.7c0.1-40.6 0-81.1 0.1-121.6q34.2 0 68.4 0 0 4.4 0 8.9c-19.6 0-39.2 0-58.7 0q0 22.6 0 45.2c17.1 0 34.2 0 51.2 0q0 4.4 0 8.8-25.6 0-51.2 0 0 24.9 0 49.8c19.7 0.1 39.3-0.1 59 0.1q-0.1 4.4-0.1 8.8c-22.9 0-45.8 0-68.7 0zm207-121.6q4.9 0 9.7 0 0 28.5 0 56.9 32.2 0 64.4 0 0-28.4 0.1-56.9 4.8 0 9.7 0c0 40.5-0.1 81 0 121.6q-4.9 0-9.8 0c0-18.6 0.1-37.2 0-55.8q-32.2 0-64.4 0 0 27.9 0 55.8-4.8 0-9.7 0 0-60.8 0-121.6zm120.8 0q4.7 0 9.5 0c21.7 34.6 43.2 69.3 64.9 103.8q0-51.9 0-103.8 4.9 0 9.7 0 0.1 60.8 0 121.6-4.8 0-9.7 0c-21.6-34.7-43.2-69.5-64.9-104.1-0.1 34.7 0 69.4-0.1 104.1q-4.7 0-9.4 0 0-60.8 0-121.6zm236.7 121.5c0.1-40.5 0-81 0-121.5q4.7 0 9.5 0.1c-0.1 37.5 0 75.1 0 112.6q29.4 0 58.9 0 0 4.4 0 8.9c-22.8 0-45.6 0-68.4-0.1zm313.3-121.5q5.6 0 11.3 0c11.6 22.3 23.4 44.7 34.8 67.1q17.7-33.4 35.2-67 5.6-0.1 11.3-0.1c-13.5 25.2-27.1 50.2-40.6 75.4-1 1.5-1 3.3-1 5.1 0.1 13.7 0 27.4 0.1 41.1q-4.9 0-9.7 0-0.1-21.2 0-42.4c0-1.7-0.4-3.2-1.2-4.6-13.4-24.9-26.8-49.8-40.2-74.6z"/>
	</g>
	<g id="#ffffffff">
		<path id="Layer" fill-rule="evenodd" class="s1" d="m502.4 56.9c11.7-4.7 24.7-4.8 37-2.7 11.3 2.1 22.3 7.9 28.9 17.6 5 6.9 6.9 15.8 6.5 24.3q-11 0-22 0c-0.5-5.9-1.7-12.1-5.9-16.6-7.2-8.3-19.4-9.6-29.6-7.6-12.8 2.9-21.5 15.2-23.2 27.8-1.3 10.5-0.3 21.2-0.6 31.9-0.4 9.5 1.1 19.5 6.8 27.4 5.1 7.6 13.8 12.6 23 13.1 10.4 0.5 21.9-0.8 29.7-8.2-0.1-9.1 0-18.1 0-27.2-9.5 0-19.1 0-28.6 0 0-5.7 0-11.4 0-17.2 17.3 0.1 34.5 0 51.8 0.1 0 16.2 0 32.4 0 48.7 0.3 2.5-2 4.2-3.5 5.8-10.4 10.1-24.9 15.2-39.2 15.9-15.7 1.4-32.6-1.9-44.7-12.5-8.3-7-14.3-16.5-16.8-27.1-2.4-9.5-1.6-19.4-1.7-29.1 0.1-9.9-0.6-20 1.9-29.7 3.8-15.5 15.3-28.8 30.2-34.7zm197.3-1.1c11.1-3.6 23.1-3.6 34.4-1.5 11 2.1 21.6 7.7 28.1 16.9 5.2 7.1 7.4 16.1 6.9 24.9-7.4 0-14.8 0-22.2 0 0.5-9.9-5.6-19.7-15-23-9.4-3.1-20.5-3-28.9 2.5-9.8 6.4-14.9 18.2-15.2 29.7 0 10.7 0 21.4 0 32.1 0.2 11 4.9 22.1 13.8 28.9 6.8 5.2 15.8 6.5 24.2 5.7 7.6-0.4 15.5-2.5 21.2-7.9 0.9-9 0.1-18.2 0.4-27.4-9.6 0-19.1 0-28.7 0q0-8.6 0-17.1c17.3-0.1 34.6 0 51.8 0q0.1 25.3 0 50.7c-10.5 12.9-27.3 19.2-43.6 19.7-15.6 1.3-32.4-2.2-44.3-12.9-8.3-7.2-14.3-17-16.5-27.8-2.1-8.9-1.3-17.9-1.5-26.9 0.2-10.3-0.8-20.9 2-31 4-16.4 17-30.3 33.1-35.6zm264-0.1c11.4-3.7 23.7-3.4 35.2-1.1 12.1 2.6 23.7 9.5 29.7 20.4 4.2 7.1 5.3 15.5 5.3 23.6-7.5 0.1-15 0.1-22.5 0-0.3-7-1.8-14.7-7-19.9-6.8-6.9-17.4-8.3-26.7-7.3-9.1 1-16.7 7.5-20.7 15.5-5.5 10.1-5 22-5 33.2 0.1 11.7-0.9 24.2 4.5 35.1 3.9 8.4 11.8 15.4 21.3 16.6 9.4 1.2 20.3-0.3 27-7.6 4.9-5.3 6.4-12.8 6.6-19.8 7.4 0.1 14.8 0 22.2 0 0.5 9.4-1.7 19-7.2 26.6-6.8 9.6-17.6 15.7-29 17.8-13 2.5-26.9 2-39-3.7-15-7.1-25.6-22.1-28.3-38.4-1.5-8-0.9-16.2-1-24.3 0.1-9.9-0.7-20 1.9-29.8 3.9-16.7 16.3-31.5 32.7-36.9zm247.1-2.2c13.2-1.7 27.2 0 38.8 6.7 12.5 7.2 21.9 19.5 25.3 33.5 2.7 10.1 1.8 20.7 2 31 0 8.2 0.1 16.5-1.9 24.5-4.3 18-18.5 33.3-36.3 38.4-11.5 3.4-23.9 3.5-35.5 0.5-17-4.5-30.8-18.5-36-35.2-2.8-8.7-2.9-18-2.8-27 0.2-10.4-0.7-20.9 1.6-31 4.4-21.3 23-39.1 44.8-41.4zm-0.1 19.2c-7.4 1.9-13.5 7.2-17.3 13.6-4.3 7-5.8 15.3-5.8 23.5 0 8.4-0.1 16.8 0 25.2 0.2 10.7 3.7 21.8 11.8 29.2 8.2 7.8 20.8 9 31.3 6 9.8-2.8 17.1-11.2 20.4-20.6 3.4-9.1 2.5-18.9 2.6-28.4-0.1-7.9 0.6-15.9-1.4-23.7-2.4-9.7-8.7-18.9-18-23.1-7.4-3.3-15.9-3.7-23.6-1.7zm-600.2-17.8q11.5 0 22.9 0 0 66.7 0 133.3-11.4 0-22.9 0 0-66.6 0-133.3zm228.7 0q11 0 22 0c15.8 44.4 31.5 88.9 47.3 133.3-8 0-16 0-24 0-3.5-10.3-6.9-20.6-10.5-30.9-16.1 0.1-32.1-0.1-48.2 0.1-3.5 10.2-6.9 20.6-10.5 30.8-8 0-15.9 0-23.9 0 15.9-44.4 31.8-88.9 47.8-133.3zm10.9 31c-6 17.5-11.9 35-17.9 52.5q17.8 0 35.6 0-8.7-26.3-17.7-52.5zm210.1-31q11.6 0 23.2 0 0 57.7 0 115.3 32 0 64.1 0 0 9 0 18c-29.1 0-58.2 0-87.3 0q0-66.6 0-133.3zm243.6 0q11.6 0 23.2 0 0 44.6 0 89.2c0 8.1 3 16.4 9.4 21.5 7.5 6.2 17.9 7.6 27.3 6 8.7-1.3 17-6.7 20.7-14.8 2.7-5.7 3-12.1 3-18.4 0-27.8 0-55.6 0-83.5q11.4 0 22.9 0c0 30.2 0 60.3 0 90.4-0.1 11.9-5 23.8-14 31.6-12.5 11.2-30.2 14.4-46.5 13-13.6-1-27.5-6.6-36.3-17.3-6.9-8.2-9.7-19-9.7-29.6 0-29.3 0-58.7 0-88.1zm137.7 0c15.2 0 30.5 0 45.8 0 11.1-0.1 22.5 2.3 32.1 8.1 11.4 6.8 20.3 17.9 24 30.8 3.5 11.9 1.9 24.4 2.3 36.6 0.4 12.6-2.9 25.4-10.4 35.5-10.3 14.1-27.5 21.9-44.7 22.3-16.3 0-32.7 0-49.1 0-0.1-44.4 0-88.8 0-133.3zm23.1 18q0 48.7 0 97.3c8.9-0.1 17.7 0.2 26.5-0.1 11.4-0.8 22-7.9 27-18.1 6.6-12.3 3.8-26.6 4.4-39.9 0.8-14.3-6.4-29.8-19.9-35.9-11.9-5.3-25.3-2.6-38-3.3z"/>
	</g>
	<g id="#000000fe">
		<path id="Layer" fill-rule="evenodd" class="s2" d="m186.7 106.7c4-1.5 7.8-5.5 12.2-4.6 23.7 12.6 47.3 25.3 71 37.9 3 1.7 6.6 3 8.7 6.1q13.7 17.8 27.5 35.5c1 1.4 2.5 3.5 0.8 4.9-8.6 6.4-18.2 11.6-26.8 18-0.8 14.6-0.4 29.3-1.1 43.9 0.2 1.8-1.2 3.1-2.7 3.6-26.5 12.1-53 24.1-79.4 36.3-26.8-13.7-53.6-27.4-80.4-41.1-1.4-0.7-2.7-1.9-2.6-3.6 0-15.2 0.1-30.5 0-45.7-7.4-3.6-15.1-6.6-22.4-10.4-1.5-2.3 0.5-4.4 1.5-6.4 7.6-12.6 15-25.4 22.5-38.1 1.2-2.3 3.8-3.2 5.9-4.3 21.8-10.6 43.5-21.4 65.3-32zm-4.6 6.8c-0.1 20.5 0 41.1-0.1 61.6 5.5 3.4 11.6 5.8 16.7 9.9 23.5-12.8 46.9-25.8 70.4-38.6 2.2-0.5 0.2-2.3-0.8-2.6-23.8-12.5-47.4-25.4-71.2-37.9-4.9 2.7-10 5.1-15 7.6zm-57.8 29.7c5 3.2 10.4 5.8 15.5 8.8 12.8 6.9 25.3 14.1 38.3 20.6-0.1-18.8 0-37.6-0.1-56.4-18 8.9-35.8 18-53.7 27zm-5 3.1c-7.5 12.8-15 25.5-22.5 38.3 27.3 12.6 54.7 25 82 37.6 5-11.6 9.5-23.5 14.5-35.1-24.7-13.7-49.4-27.2-74-40.8zm80.2 44.2c10.4 13.4 20.9 26.7 31.3 40.1 23.6-15.4 47.3-30.9 70.9-46.5q-13.5-17.5-27-34.9c-25.1 13.7-49.9 28-75.2 41.3zm-16.8 35.5c-0.7 2.5-3.9 1.7-5.6 0.8-19.4-8.9-38.9-17.8-58.3-26.7 0 14.3 0 28.5 0 42.7 25.1 12.9 50.3 25.6 75.3 38.6 0.1-28-0.1-56 0.1-84-3.7 9.6-7.5 19.1-11.5 28.6zm16.5-27.7q0 41.7 0 83.4c25-11.4 50-22.8 75-34.2 0.6-13.3 0.3-26.6 0.9-40-14.6 9.5-29 19.2-43.7 28.6-0.8-0.1-2.4-0.5-3.2-0.7-9.6-12.4-19.3-24.7-29-37.1z"/>
	</g>
	<g id="#723812ff">
		<path id="Layer" class="s3" d="m182.1 113.5c5-2.5 10.1-4.9 15-7.6 23.8 12.5 47.4 25.4 71.2 37.9 1 0.3 3 2.1 0.8 2.6-23.5 12.8-46.9 25.8-70.4 38.6-5.1-4.1-11.2-6.5-16.7-9.9 0.1-20.5 0-41.1 0.1-61.6zm-57.8 29.7c17.9-9 35.7-18.1 53.7-27 0.1 18.8 0 37.6 0.1 56.4-13-6.5-25.5-13.7-38.3-20.6-5.1-3-10.5-5.6-15.5-8.8z"/>
	</g>
	<g id="#c16b30ff">
		<path id="Layer" class="s4" d="m119.3 146.3c24.6 13.6 49.3 27.1 74 40.8-5 11.6-9.5 23.5-14.5 35.1-27.3-12.6-54.7-25-82-37.6 7.5-12.8 15-25.5 22.5-38.3zm80.2 44.2c25.3-13.3 50.1-27.6 75.2-41.3q13.5 17.4 27 34.9c-23.6 15.6-47.3 31.1-70.9 46.5-10.4-13.4-20.9-26.7-31.3-40.1zm-16.8 35.5c4-9.5 7.8-19 11.5-28.6-0.2 28 0 56-0.1 84-25-13-50.2-25.7-75.3-38.6 0-14.2 0-28.4 0-42.7 19.4 8.9 38.9 17.8 58.3 26.7 1.7 0.9 4.9 1.7 5.6-0.8zm16.5-27.7c9.7 12.4 19.4 24.7 29 37.1 0.8 0.2 2.4 0.6 3.2 0.7 14.7-9.4 29.1-19.1 43.7-28.6-0.6 13.4-0.3 26.7-0.9 40-25 11.4-50 22.8-75 34.2q0-41.7 0-83.4z"/>
	</g>
</svg>