<svg version="1.2" baseProfile="tiny-ps" xmlns="http://www.w3.org/2000/svg" viewBox="0 0 1601 251" width="1601" height="251">
	<title>Geox-svg</title>
	<style>
		tspan { white-space:pre }
		.shp0 { fill: #000000 } 
	</style>
	<g id="Layer">
		<path id="Layer" fill-rule="evenodd" class="shp0" d="M969.53 250.96C871.63 250.96 792.03 205.03 777.8 151.22C775.86 143.85 774.85 136.14 774.85 128.13C774.85 110.09 780.02 93.31 789.43 78.25C815.1 37.11 886.68 0.52 975.08 0.52L996.91 0.52C1046.82 0.52 1103 18.43 1131.98 37.4C1166.64 60.12 1187.85 91.48 1187.85 128.13C1187.85 143.89 1183.92 158.47 1176.69 171.69C1153.41 214.24 1078.12 250.96 994.49 250.96L969.53 250.96ZM865.24 125.85C865.24 175.48 917.23 215.73 981.36 215.73C1045.49 215.73 1097.5 175.48 1097.5 125.85C1097.5 76.23 1045.49 36 981.36 36C917.22 36 865.24 76.23 865.24 125.85Z" />
		<path id="Layer" class="shp0" d="M450.02 223.19L450.02 70L450.02 28.6C450.02 17.98 454.64 7.73 470.95 7.73L758.35 7.73C758.35 7.73 768.92 7.73 768.92 18.46L768.92 33.39C768.92 33.39 768.92 44.46 758.35 44.46L553.3 44.46C553.3 44.46 543.82 44.69 543.82 55.2L543.82 95.97C543.82 95.97 541.96 107.71 556.52 107.71L720.37 107.71C720.37 107.71 730.51 107.71 730.51 118.32L730.51 133.86C730.51 144.46 720.37 144.46 720.37 144.46L556.54 144.46C542.36 144.46 543.83 156.18 543.83 156.18L543.83 196.92C543.83 207.33 553.31 207.33 553.31 207.33L758.35 207.33C768.92 207.33 768.92 218.39 768.92 218.39L768.92 233.34C768.92 244.05 758.35 244.05 758.35 244.05L470.95 244.05C454.64 244.06 450.02 233.81 450.02 223.19Z" />
		<path id="Layer" class="shp0" d="M1499.45 7.73C1483.12 7.73 1476.66 14.32 1476.66 14.32L1398.28 87.02C1398.28 87.02 1394.79 89.96 1390.8 89.96C1386.8 89.96 1383.32 87.02 1383.32 87.02L1304.95 14.32C1304.95 14.32 1298.47 7.73 1282.15 7.73L1188.31 7.73C1179.95 7.73 1178.65 17.59 1188.31 23.31L1326.01 115.6C1335.18 124.4 1329.49 135.18 1327.29 136.4C1327.42 136.52 1186.79 233.42 1186.79 233.42C1186.79 233.42 1172.33 244.13 1194.39 244.13L1298.04 244.13C1298.04 244.13 1309.06 245.18 1318.72 235.5L1385.1 169.48C1385.1 169.48 1387.36 167.83 1390.8 167.83C1394.24 167.83 1396.49 169.48 1396.49 169.48L1462.87 235.5C1472.54 245.18 1483.56 244.13 1483.56 244.13L1587.28 244.13C1609.35 244.13 1594.88 233.42 1594.88 233.42C1594.88 233.42 1454.26 136.52 1454.37 136.4C1452.17 135.18 1446.5 124.4 1455.67 115.6L1593.35 23.31C1603.03 17.58 1601.71 7.73 1593.35 7.73L1499.45 7.73L1499.45 7.73Z" />
		<path id="Layer" class="shp0" d="M295.75 63.27C297.41 64.42 299.62 64.48 300.52 64.48L384.87 64.48C388.58 64.48 393.92 58.62 388.56 53.35C382.75 47.61 373.52 41.56 367.21 37.4C338.28 18.43 277.25 0.52 227.35 0.52L200.72 0.52C112.31 0.52 40.72 37.11 15.07 78.23C5.67 93.3 0.5 110.09 0.5 128.13C0.5 136.14 1.5 143.85 3.46 151.22C17.67 205.03 97.27 250.96 195.17 250.96L220.14 250.96C303.76 250.96 379.05 214.23 402.34 171.69C409.58 158.47 413.51 143.89 413.51 128.13L413.51 118.22C413.51 106.97 403.37 106.97 403.37 106.97L200.27 107C200.27 107 190.13 107 190.13 118.25L190.13 134.26C190.13 145.51 200.27 145.51 200.27 145.51L312.31 145.51C320.44 145.51 318.28 151.57 318.28 151.57C303.99 188.67 259.56 215.71 206.98 215.71C142.86 215.71 90.87 175.47 90.87 125.84C90.87 76.22 142.86 35.98 206.98 35.98C208.18 35.98 214.14 36 215.31 36.02C244.53 36.7 271.04 45.73 291.49 60.12L295.75 63.27Z" />
	</g>
</svg>