<svg version="1.2" xmlns="http://www.w3.org/2000/svg" viewBox="0 0 780 1517" width="780" height="1517">
	<title>Geron_Full_Logo_Pantone-01-svg</title>
	<style>
		.s0 { fill: #f9a11b } 
		.s1 { fill: #355fab } 
		.s2 { fill: #19bedc } 
		.s3 { fill: #8c99cd } 
	</style>
	<g id="#f9a11bff">
		<path id="Layer" class="s0" d="m376.4 0.5c2.1 0.3 6.4 1 8.6 1.3-1.6 13.6-4.5 26.9-6.8 40.4-15.5 85.4-15.7 173.3-3.3 259.1 13.9 96.4 43.4 190.1 82 279.4 48.2 110.1 107.1 215.1 154.5 325.5 19.8 48.3 33.7 99.4 37.1 151.7 3.8 52.3-3.8 105.5-21.9 154.8-26 71.4-73.1 133.1-127.4 185.5-44.2 44-92.1 84.4-144 118.8 16.5-41.9 38.9-81.4 52.5-124.5 32-96.9 34.9-201.3 19.8-301.7-7.8-54.6-21.3-108.3-33.9-161.9-22.1-92.7-46-184.9-66.5-277.9-20.4-89.9-31.8-182-30.7-274.3 1.2-129.1 27.8-258.1 80-376.2z"/>
	</g>
	<g id="#355fabff">
		<path id="Layer" class="s1" d="m457.2 147.1c9.9 82.9 35.7 163.5 73.8 237.6 42 80.5 88 158.8 132 238.2 49.9 90.5 93.2 186.5 109.4 289.2 8.6 55.4 9.5 112.2 0.4 167.5-7.2 43.7-22.8 85.8-44.5 124.3-21.3 38.9-48 74.5-74.3 110 16.9-46.7 34.5-93.5 43.9-142.5 9.3-46.8 10.8-95.1 3.5-142.3-6.6-43.9-20.2-86.5-37.1-127.4-43.1-126.4-110.8-242.2-164-364.3-35.2-81.7-62.8-168.8-62.9-258.7-0.6-44.5 5.9-89.2 19.8-131.6z"/>
	</g>
	<g id="#19bedcff">
		<path id="Layer" class="s2" d="m264.9 491.5q5.7 1.6 11.3 3.3c-4.5 31.6-10.7 62.9-14.6 94.6-11 90.5-3.3 182.3 14 271.5 13.6 69.6 33.1 138 54.6 205.6 16.9 53.8 33.4 108.1 42.7 163.9 13.5 79 9.9 162.6-22 236.9-9.6-11.7-6.8-27-7.1-40.9-9.4-88.6-43.3-172-77.8-253.3-23.7-55.7-49.3-110.6-72.1-166.7-25.4-62.8-48.1-127.3-58.7-194.4-9.7-61.9-6.2-127 18.6-185.1 22.8-54.9 63.2-101 111.1-135.4z"/>
	</g>
	<g id="#8c99cdff">
		<path id="Layer" class="s3" d="m26.3 913c19.7-35.4 50.1-64.4 85.9-83.1-7.7 71.3 4.3 143.6 28.3 210.9 29.7 86 78.7 163.5 113.6 247.4 15.2 36.7 28.2 74.6 34.5 113.9 4.9 29.6 5.4 59.8 2.3 89.6-32.7-73.7-84.6-136.3-136.4-197.2-32.3-38.2-63.7-77.2-92-118.5-24.4-36-45.7-74.9-56.7-117.2-12.4-48.8-4.2-102.1 20.5-145.8z"/>
	</g>
</svg>