<svg version="1.2" xmlns="http://www.w3.org/2000/svg" viewBox="0 0 1550 518" width="1550" height="518">
	<title>Geron_Full_Logo_Pantone-01-svg</title>
	<style>
		.s0 { fill: #f9a11b } 
		.s1 { fill: #355fab } 
		.s2 { fill: #19bedc } 
		.s3 { fill: #8c99cd } 
	</style>
	<g id="#f9a11bff">
		<path id="Layer" class="s0" d="m128.9 0.5c0.7 0.1 2.2 0.3 2.9 0.5-0.6 4.6-1.6 9.1-2.3 13.7-5.3 29.2-5.4 59.2-1.2 88.5 4.8 32.9 14.9 64.8 28 95.3 16.5 37.6 36.6 73.4 52.8 111.1 6.7 16.5 11.5 33.9 12.6 51.7 1.4 17.9-1.2 36-7.4 52.8-8.9 24.4-25 45.5-43.5 63.4-15.1 15-31.5 28.7-49.2 40.5 5.6-14.3 13.3-27.8 18-42.5 10.9-33 11.8-68.7 6.7-102.9-2.7-18.7-7.3-37-11.6-55.3-7.5-31.6-15.7-63.1-22.7-94.8-6.9-30.7-10.9-62.1-10.4-93.6 0.3-44.1 9.4-88.1 27.3-128.4z"/>
	</g>
	<g id="#355fabff">
		<path id="Layer" class="s1" d="m156.4 50.6c3.4 28.2 12.2 55.7 25.2 81 14.4 27.5 30.1 54.2 45.1 81.3 17 30.9 31.8 63.6 37.4 98.7 2.9 18.9 3.2 38.3 0.1 57.2-2.5 14.9-7.8 29.2-15.2 42.4-7.3 13.2-16.4 25.4-25.4 37.5 5.8-15.9 11.8-31.9 15-48.6 3.2-16 3.7-32.5 1.2-48.6-2.2-15-6.9-29.5-12.7-43.5-14.7-43.1-37.8-82.6-55.9-124.3-12-27.9-21.5-57.6-21.5-88.2-0.2-15.2 2-30.5 6.7-44.9z"/>
		<path id="Layer" fill-rule="evenodd" class="s1" d="m532.9 154.7c8-9.5 16-19 24-28.6q10.7 8.9 21.4 17.7c-8.1 9.8-16.3 19.4-24.4 29.1 8.1 9 15.6 18.7 20.8 29.7 8 16.6 10.4 35.4 9.3 53.6-1.7 26.4-13.3 52.5-33.7 69.7-10 8.5-21.8 14.7-34.4 18.3 15.1 4.2 29.9 10.5 42 20.5 10.5 8.6 18.5 20.2 22.2 33.3 3.5 12.3 3.7 25.5 1 38-3 14.3-10.6 27.4-21.1 37.5-9.6 9.3-21.2 16.3-33.5 21.3-19.7 8-41.1 11.2-62.3 11.2-25.6-0.3-51.9-5.7-73.7-19.6-13-8.2-24.1-19.6-31.1-33.3-6.7-12.7-9.6-27.2-9.4-41.6q15.6 0 31.2 0c-0.4 11.5 2.9 23 9.4 32.4 7.7 11.1 19.2 19 31.6 23.9 17.7 7.1 37.1 9 56 7.4 15.8-1.3 31.7-4.8 45.7-12.5 9.9-5.5 18.7-13.6 23.3-24 6.4-14.4 5.3-32-3.2-45.3-6.7-10.6-17.3-18-28.6-22.9-15.1-6.5-31.6-9.2-48-9.5-13.2 0.1-26.5-1.2-39.4-4.3-23-5.6-44.7-17.9-59.5-36.6-11.2-14.2-18.2-31.4-21-49.2-2.1-13.7-2.3-27.8-0.3-41.5 2.8-17.9 10.1-35.1 21.5-49.2 16.3-20.4 40.1-34 65.3-40 19.1-4.7 39.1-5 58.3-1.1 14.3 2.9 28.5 7.4 40.6 15.6zm-78.1 11.5c-24.2 2.5-48.4 13.9-62.8 34.1-10.1 14-14.8 31.4-14.5 48.5-0.2 17.3 3.9 35 13.7 49.4 7.8 11.5 19.2 20.5 32 25.9 13.9 6 29.1 8.2 44.2 8.1 17.1-0.4 34.3-4.9 48.6-14.4 12.2-7.9 22.1-19 28.5-31.9 7.1-14.2 9.7-30.4 8.2-46.2-1.1-13.7-5.3-27.3-13-38.7-9.1-13.7-23.1-23.7-38.5-29.2-14.8-5.3-30.8-7.2-46.4-5.6zm238.1-21.5c14.3-5 29.5-7.2 44.6-6.8 26.6 0.1 54.1 7.3 75.1 24.2 12.1 9.8 21.7 22.7 27.7 37 9.3 22 10.8 46.5 8.5 70.1-66.2 0-132.3-0.1-198.5 0 1.2 13.6 5.4 27 12.8 38.5 9.6 14.8 24.3 25.9 40.9 31.5 25.2 8.9 53.3 6.3 77.8-3.7 12.1-4.9 23.6-12.1 31.9-22.4 6.9 6.2 13.9 12.5 20.9 18.6-13.4 16.8-32.3 28.4-52.5 35.2-29.4 9.9-62.3 10.3-91.6-0.4-20.5-7.4-38.8-21.1-51.3-39.1-10.3-14.5-16.6-31.7-19.3-49.2-4.5-29.1-0.4-60.2 14.7-85.7 12.9-22.2 34.1-39.4 58.3-47.8zm4.7 28.5c-12.7 5.6-23.8 14.7-31.6 26.1-9 12.7-13.8 27.9-15.7 43.2q84.6 0 169.2 0c-0.2-14.8-4.1-29.8-12.2-42.2-6-9.2-14.1-16.8-23.5-22.3-11.8-7-25.3-10.8-38.9-11.9-16-1.4-32.5 0.6-47.3 7.1zm460.4-34.7c17-1.6 34.4-0.5 50.9 4.4 26.1 7.6 49.3 24.9 63.4 48.3 16.5 27 20.8 60.3 15.1 91.1-4.8 26.5-19.1 51.5-40.7 67.9-24.8 19.1-57.5 26.1-88.3 23-27.7-2.6-54.7-14.8-73.5-35.4-20.2-21.6-30.1-51.5-29.9-80.9-0.3-29.6 9.1-60.1 29.2-82.3 18.7-21.1 46-33.5 73.8-36.1zm5.5 28c-16.1 1.5-32 7.3-44.7 17.4-11 8.6-19.5 20.1-24.9 33-6.8 15.9-8.8 33.5-7.2 50.7 1.5 15.1 6.4 30.1 15.2 42.6 8.1 11.8 19.7 21.1 32.8 26.8 16.8 7.4 35.8 9.2 53.9 6.3 14.6-2.2 28.8-8.1 40.3-17.6 10.9-8.9 19-20.9 23.8-34 5.2-14.2 6.7-29.6 5.5-44.6-1.4-17.2-7.1-34.2-17.5-48.1-8-10.8-18.8-19.5-31.1-25.1-14.4-6.6-30.5-8.7-46.1-7.4zm-207.9-18.5c16.6-8.8 36-11 54.4-9.2 14.4 1.3 28 7.3 39.7 15.6-4.7 8.7-9.6 17.4-14.4 26.1-13.2-9.1-29.7-13.4-45.7-11.7-14.3 1.3-28.3 7-39.3 16.3-17.1 14.2-25.9 36.8-24.8 58.8q0 63.1 0 126.2-15.6 0.1-31.2 0 0-114.1 0-228.2c9.8 0.1 19.6 0 29.4 0.1 0.4 12.3 1.3 24.6 1.7 36.9 6.5-13.1 17.1-24.2 30.2-30.9zm443.7 2.4c12.9-7.3 27.6-11.2 42.3-12 16-0.7 32.3 1.1 47.5 6.6 14.3 5.1 27.5 13.8 37.3 25.4 12.8 15.1 19.7 34.4 21.9 53.9 1.2 9.7 0.8 19.6 0.9 29.4q0 58.2 0 116.4-15.8 0-31.6 0 0-65.5 0-131.1c-0.4-16.4-4.5-33.4-14.8-46.6-8.9-11.6-22.3-19.2-36.5-22.4-14.9-3.3-30.8-3.6-45.6 1-13.8 4.2-26.4 12.8-35.3 24.2-9.1 11.6-14.5 25.9-16.1 40.5-1 7.6-0.5 15.2-0.6 22.9q0 55.7 0 111.5-15.6 0-31.2 0 0-114.1 0-228.2 14.9 0 29.7 0c0.6 12.6 0.5 25.3 1.2 37.9 7.8-12 18.4-22.3 30.9-29.4z"/>
	</g>
	<g id="#19bedcff">
		<path id="Layer" class="s2" d="m90.8 168q1.9 0.6 3.8 1.2c-1.5 10.8-3.6 21.5-4.9 32.3-3.8 30.8-1.2 62.2 4.8 92.6 4.6 23.8 11.2 47.1 18.6 70.2 5.8 18.3 11.4 36.9 14.6 55.9 4.6 27 3.3 55.5-7.6 80.8-3.2-4-2.3-9.2-2.4-13.9-3.2-30.3-14.7-58.7-26.5-86.5-8.1-19-16.9-37.7-24.6-56.8-8.7-21.5-16.5-43.5-20.1-66.4-3.3-21.1-2.1-43.3 6.4-63.1 7.7-18.8 21.5-34.5 37.9-46.3z"/>
	</g>
	<g id="#8c99cdff">
		<path id="Layer" class="s3" d="m9.3 311.9c6.7-12.1 17.1-22 29.4-28.4-2.7 24.4 1.4 49 9.6 72 10.2 29.3 26.9 55.8 38.8 84.4 5.2 12.5 9.6 25.5 11.8 38.9 1.7 10.1 1.8 20.4 0.8 30.6-11.2-25.2-28.9-46.5-46.6-67.3-11-13.1-21.8-26.4-31.4-40.5-8.3-12.3-15.6-25.5-19.4-39.9-4.2-16.7-1.4-34.9 7-49.8z"/>
	</g>
</svg>