<svg version="1.2" xmlns="http://www.w3.org/2000/svg" viewBox="0 0 1517 1512" width="1517" height="1512">
	<title>GuardantHealthMasterLogo_ND_RGBcropped-svg</title>
	<style>
		.s0 { fill: #ffffff } 
		.s1 { fill: #eb1c2d } 
	</style>
	<g id="Layer">
		<path id="Layer" fill-rule="evenodd" class="s0" d="m979.4 1480.4c-587.3 167.5-1115.1-358.7-947.1-944.2 69.9-243.1 261.7-434.4 505.5-504 587.3-167.5 1115.1 358.7 947.1 944.2-69.9 243.1-261.7 434.3-505.5 504zm-166.5-1386c-410.4-32.6-750.9 306.9-718.2 716 25.3 321.6 287 582.5 609.6 607.7 410.4 32.6 750.9-306.8 718.2-715.9-26.8-321.7-287-582.6-609.6-607.8z"/>
		<path id="Layer" class="s1" d="m759.3 1222.5c-209.6-1.5-295.8-188.3-295.8-292 0-121.6 99.6-271.3 136.7-338 110.1-192.7 159.1-342.4 159.1-342.4 0 0 61 169 162.1 345.3 75.8 133.5 136.8 217.9 136.8 338 0 103.8-89.2 287.6-298.9 289.1z"/>
		<g id="Layer">
		</g>
	</g>
</svg>