<svg version="1.2" xmlns="http://www.w3.org/2000/svg" viewBox="0 0 1591 892" width="1591" height="892">
	<title>GHC_BIG copy-svg</title>
	<defs>
		<clipPath clipPathUnits="userSpaceOnUse" id="cp1">
			<path d="m-14535.12-1018.98h24267.3v15222.79h-24267.3z"/>
		</clipPath>
	</defs>
	<style>
		.s0 { fill: #ffffff } 
		.s1 { fill: none;stroke: #ffffff;stroke-width: 10.9 } 
	</style>
	<g id="Clip-Path: Clip-Path: Page 1" clip-path="url(#cp1)">
		<g id="Clip-Path: Page 1">
			<g id="Page 1">
				<path id="Path 8" class="s0" d="m709.5 548.9h-81.6v230.5h-11.7q-11.7-10.9-18.6-15.8-6.8-3.6-22.2-3.6-18.5 0-37.1 9.7-19.4 9.7-44 22.2-25.1 11.7-58.2 21.4-34.3 9.7-82 9.7-71.8 0-127.1-24.3-56.6-23.4-108.3-74.6-50.4-51.7-84.8-120.7-33.1-69-33.1-155.4 0-57.3 12.9-104.1 13.4-45.6 31.9-80.7 18.6-33.9 39.2-57.3 19.4-23.4 33.1-37.2 45.7-45.6 103.8-73.8 59.8-28.3 134.5-28.3 39.1 0 64.2 6.1 24.2 5.6 42.8 13.7 18.5 7.7 33.1 13.3 14.5 6.1 33.1 6.1 20.6 0 29.5-4.9 7.6-6 16.5-16.5h15.4v203h-11.7q-3.7-26.2-15.4-61.4-11.7-35.9-37.1-67.8-24.3-33.1-66.3-55.2-40.7-22.7-104.9-22.7-76 0-122.8 32.3-45.6 31.9-71.9 84.4-25.4 52.5-34.3 118.6-8.5 65-8.5 132.4 0 45.6 3.7 91.2 4 45.6 13.7 86.4 9.7 41.2 27 75.9 16.6 34.3 44.9 58.5 30.3 27 62.6 37.9 33.1 10.5 84.3 10.5 32.4 0 63.4-10.5 31.1-10.9 56.6-32.3 24.2-21.3 40.8-53.2 15.7-33.1 15.7-77.9v-85.6h-131.6v-14.5h310.5zm113.9 245h113v-695h-113v-13.7h327v13.7h-112.6v332.5h338.4v-332.5h-112.7v-13.7h327.1v13.7h-113.1v695h113.1v14.5h-327.1v-14.5h112.7v-347.9h-338.4v347.9h112.6v14.5h-327z"/>
				<path id="Path 9" class="s1" d="m757.1 6.5v879"/>
			</g>
		</g>
	</g>
</svg>