<svg version="1.2" xmlns="http://www.w3.org/2000/svg" viewBox="0 0 1524 1557" width="1524" height="1557">
	<title>ghitha-logo-svg</title>
	<style>
		.s0 { fill: #f8ab12 } 
		.s1 { fill: #dec4b6 } 
	</style>
	<g id="#f8ab12ff">
		<path id="Layer" class="s0" d="m433.3 1.6c32 16.5 64.2 33 96.2 49.7 53.6 33.5 108.3 72.4 137.1 130.7 22.2 76 15.8 155.8 19.6 233.9-92-47.9-195.9-90.4-246.7-187.3-5.9-75.5-6.9-151.2-6.2-227zm452.7 147.9c51.3-77.6 143.6-110.5 223.5-149.2-1.8 78.6 14.2 162.9-25.2 235.5-41 96.9-148.5 129.9-232.3 179.1 5.2-88.7-19.6-187.1 34-265.4zm-546 261c14.4 7.5 43.1 21.9 57.5 29.1 94.3 58.8 220.9 90.7 269.7 200.5 22.4 76 15.4 155.8 17.2 233.9-87.4-50.5-182.2-89.4-263.7-149.4-93.3-75.5-83-206.7-80.7-314.1zm654.3 104.6c65.2-32.2 128.6-67.8 192.8-102-0.5 67.2 4.4 134.5-2.5 201.2-40 121.1-168.9 169.8-271 226.2-15.2 7.7-45.4 23.5-60.3 31.2 5.1-86.3-23.2-184.2 30.4-260.2 28.9-40.2 69.4-69.9 110.6-96.4z"/>
	</g>
	<g id="#dec4b6ff">
		<path id="Layer" class="s1" d="m2.5 103.4c78.7 18.5 158.1 61.3 176.9 146.8 7.2 154.1-0.5 309 3.3 463.3 37.9 77.5 93.1 144.8 165.3 193 131 31.1 276.1 93.7 318.9 234.2 22.7 136.5 10 276.7 8.2 414.5-79.6 1.1-159 1.1-238.7 0-9-98.7 20.6-220.5-64.4-294.2-76.3-53.3-171.7-79.6-235.1-151.3-94.7-101.5-141.6-242.9-135.9-380.5 1.8-208.7-1-417.1 1.5-625.8zm1423.1 36.6c32.5-11.4 65.2-23.2 98-34.3 0.2 234.2 0.5 468.7 0.2 702.9 4.9 160.2-103.4 303-234.8 383.6-66.8 32.7-139.2 60.5-180.2 127 1.8 77.6 2.3 155.1-2.6 232.4-83.8 5.7-168.1 5.2-252.1 3.1 12.8-167.7-49.3-361.7 64.9-505.5 25.3-34.5 62.4-57.2 95.9-83 14.2-5.6 42.8-17.5 57-23.4 35.8-11.1 71.7-23.2 107.5-35.3 68.6-37.9 121.7-95.8 158.8-164.1 46.9-169.8 13.9-346.8 29.7-519.7 2.8-35.6 39.1-55.9 57.7-83.7z"/>
	</g>
</svg>