<svg version="1.2" xmlns="http://www.w3.org/2000/svg" viewBox="0 0 1564 803" width="1564" height="803">
	<title>ghitha-logo-svg</title>
	<style>
		.s0 { fill: #002c3a } 
		.s1 { fill: #f8ab12 } 
		.s2 { fill: #dec4b6 } 
	</style>
	<g id="#002c3aff">
		<path id="Layer" fill-rule="evenodd" class="s0" d="m342.4 0h43.9c0 118.8 0 237.7 0 356.5-14.7 0-29.3 0-43.9 0-0.1-118.8 0-237.7 0-356.5zm166.3 23c9.2-26.4 52.3-27.6 63-1.7 8.1 14.9-3.8 33.2-18.2 38.6-9 1.5-18.2 0.8-27.2 0.6-11.3-8.4-24.8-22.2-17.6-37.5zm920-16.8c12.4-5.8 28.4-5.5 39.4 3.1 17 11.5 13.2 41.8-6 48.9-13.2 5.4-30.1 4.2-40.9-5.7-13.7-12.9-9.9-38.5 7.5-46.3zm-922.4 119.1c64.6-38.3 159.4-10.7 192 57.2 15 33.5 5.6 73.1 23.9 105.6 9.2 14.8 24.3 27.3 42.1 29.5 193.7 5.3 387.7 0.9 581.5 0.8-23-26.5-38.7-62-33.1-97.6 5.6-37.5 25.3-76 60.5-93.4 32.1-17.9 69.8-17.3 105.3-15.2 16.2 2.3 31.8 7.3 47.1 12.9-0.2 11.5-0.4 23.1-0.8 34.6-35.8-5.6-72.9-22.6-108.9-8.4-64.9 22.1-70.6 125.9-12.7 159.1 15.9 9.6 35.2 9.4 53.2 10.5 35.2 0.6 70.5 0 105.7 0.3q0 17.6 0 35.3c-262.9 0.2-525.8-0.1-788.7 0.1-35.2 0.7-68.4-17.7-91.2-43.8-24 28.4-61 44.3-98 43.8-38.6-0.1-77.3 0-115.9-0.1 0-12.6 0-25.3-0.1-38 26.9 5.7 54.6 1.2 81.9 2.7 25.3 1.6 52.8-0.2 74.2-15.2 52.7-36.9 42.5-134.4-20.4-154.9-31.1-12.9-63.4 1-93.7 8.9-2.2-11.4-3.4-23.1-3.9-34.7zm-444.5 4.6c37.4-18 81.5-14.6 119.7-1.1 0.2 9.5-0.8 19-1.2 28.5-32.8-6.2-70.3-15.1-100.7 3.7-13.4 7.4-21.1 21-27.5 34.3-9.6 29.3-2.9 63.6 19.3 85.5 18.4 20.5 47.5 29.5 74.6 27.3 40.7-6 76.1-28.8 112.5-46.6-2.4 12.7-4.5 25.6-5.3 38.5-5.3 3.5-10.6 6.9-16.2 10-70.8 33.9-145 60.7-213.6 99 1.3-12.7 2.3-25.3 2.8-38 22.2-12.7 45.6-23.3 67.9-35.9-27.7-9.5-55.4-23.8-71.9-49-35.9-49.8-17.4-130.7 39.6-156.2zm318.4 317.4c14.5-4.8 29.4-8 44.4-10.4 0 50.2 0 100.4 0 150.5 23.5-18 48.5-36.1 78.5-40.8 27-4.2 56.2-0.8 79.7 13.9 14.9 9.5 21.9 27.8 23 44.8 3.3 63 2.2 126.1 1.9 189.2-14.4-0.1-28.8-0.1-43.2-0.1-0.3-51.6 0.4-103.1-0.3-154.6-1.5-14.9 0.9-31.6-8.6-44.3-8.5-13-25.7-15.6-40-15.6-35.5 2.6-67 23.6-90.3 49.4-0.7 55-0.2 110.1-0.3 165.1q-21.5 0-42.9 0c-1.3-115.7 0-231.4-1.9-347.1zm669.7 0.1c14.5-4.9 29.5-8.2 44.7-10.5 0 50 0.2 100-0.1 150.1 16.4-11.2 31.8-24.4 50.4-32 32.1-13.9 70.6-13.8 101.9 2.1 22.4 11.2 30.4 37.9 29.8 61.4 0.6 58.6 0.9 117.3 0.6 175.9q-22 0-44 0c-0.1-57.4 0-114.8-0.1-172.2 0.6-17.5-9.6-37.3-28.3-40-41.8-9.2-82.1 16.8-109.1 46.5-1.5 55.2-1 110.4-1 165.7q-22 0-44 0c-1.4-115.7 0.3-231.4-0.8-347zm-924.3-0.4c52.8-10.9 110-6.2 157.5 20.5q-7.9 16.2-15.7 32.3c-26.6-10.3-53.2-23.6-82.4-23.4-40.3-1.4-86.3 9.4-109.9 45-31.2 50.3-36.4 115-16.1 170.4 8.6 29.5 30.3 56 60 66 43.5 13.7 92 14.4 134.3-3.7-0.6-32.3 0-64.6-0.5-96.9-28.7-0.4-57.4-0.1-86.1-0.2 1.7-11.6 3.8-23 5.9-34.4 41.2 0.1 82.6 0 123.9 0 0.1 51.9-0.2 103.8 0.1 155.6-28.3 14.6-59.9 19.9-91 24.8h-40.3c-40.6-6.5-85.2-11.3-116.5-40.9-32.1-28.3-41.3-71.8-48.8-111.9v-48.5c5.7-28.1 11.3-57 25.7-82.3 20.2-37.7 58.3-64 99.9-72.4zm593.7 10c15.7-5.3 29 7.3 37.8 18.7 1.4 15.4-6.2 29-20.1 35.8-6.9-0.3-13.8-0.4-20.6-1.2-9.8-3-15.3-12.1-21.4-19.6-0.2-15.1 8.8-30.3 24.3-33.7zm148.6 42.4c14.2-3.4 28.2-7.3 42.3-11.2 0.1 23.4 0.1 46.7 0.1 70 20.4 0 40.8 0 61.3 0-0.6 10.9-1.2 21.8-2.1 32.7-19.7 0.1-39.5 0.1-59.2 0.1-0.1 50.7 0.4 101.3 0.7 152.1-0.7 11.8 8.2 22.5 19.5 25 16.6 2.5 32.9-3.1 49-6.2q0.7 14 1.4 28c-12.7 5.7-26 10.2-39.7 13.1h-23.8c-12.9-4-28.7-5.1-37.9-16.3-9.7-12.3-12-28.6-11.7-43.9 0.2-50.6 0.1-101.3 0.1-152-15.7 0.4-31.5 0.9-47.2 1.4q0-17 0-34 23.6 0 47.2 0 0-29.4 0-58.8zm491.1 74.2c32.4-18 69-28.7 106.1-28.6 29.6 0.2 63.5 5.4 83.4 29.7 14.1 16.5 11.2 39.9 15.5 59.9v159.8q-18.9 0-37.7 0c-1.9-8.8-3.9-17.6-5.8-26.5-19.4 19.1-44.7 30.7-71.4 35.1h-29.8c-19.7-4.1-41.9-6.8-56.5-22.4-29-31.6-22.6-89.3 13.6-113.1 21.4-14.2 47.4-18.3 72.4-21.5 23.9-2.6 47.5-6.8 71.6-6.5-3.8-16.3-2.3-35.8-14.8-48.6-15.3-14.4-38.2-11.5-57.6-11.7-26.8-0.2-50.5 13.7-74.6 23.7-4.8-9.8-9.7-19.5-14.4-29.3zm111.3 99.4c-23.2 2.4-47.9 6.5-66.3 21.9-15.4 13.1-15.3 36.4-9.2 54 10.7 24 41.1 21.2 62.7 19.2 23.1-4.6 47.6-16.2 58.4-38.1 3.2-20 1.4-40.2 1.4-60.2-15.8-0.4-31.5 0.6-47 3.2zm-765.6-119.9q21.4 0 42.9 0c0 80.4 0 160.9 0 241.3-14.3 0-28.6 0-42.9 0 0-80.4 0-160.9 0-241.3z"/>
	</g>
	<g id="#f8ab12ff">
		<path id="Layer" class="s1" d="m961.4 20.3c5.3 2.7 10.7 5.5 16 8.3 9 5.5 18.1 12 22.9 21.7 3.7 12.7 2.6 26 3.2 39-15.3-8-32.6-15.1-41.1-31.2-1-12.6-1.1-25.2-1-37.8zm75.4 24.6c8.6-12.9 24-18.4 37.3-24.8-0.3 13.1 2.4 27.1-4.2 39.2-6.9 16.1-24.8 21.6-38.7 29.8 0.8-14.7-3.3-31.1 5.6-44.2zm-91 43.5c2.4 1.3 7.2 3.7 9.6 4.9 15.7 9.8 36.8 15.1 45 33.4 3.7 12.6 2.5 26 2.8 39-14.5-8.4-30.3-14.9-43.9-24.9-15.6-12.6-13.9-34.5-13.5-52.4zm109.1 17.4c10.9-5.3 21.4-11.2 32.1-17-0.1 11.3 0.8 22.5-0.4 33.6-6.7 20.2-28.2 28.3-45.2 37.7-2.5 1.3-7.5 3.9-10 5.2 0.8-14.4-3.9-30.7 5.1-43.4 4.8-6.7 11.5-11.6 18.4-16.1z"/>
	</g>
	<g id="#dec4b6ff">
		<path id="Layer" class="s2" d="m889.6 37.2c13.1 3.1 26.3 10.3 29.5 24.5 1.2 25.7-0.1 51.5 0.5 77.2 6.3 12.9 15.5 24.1 27.6 32.2 21.8 5.2 46 15.6 53.1 39 3.8 22.8 1.7 46.1 1.4 69.1-13.3 0.2-26.5 0.2-39.8 0-1.5-16.4 3.4-36.8-10.7-49-12.8-8.9-28.7-13.3-39.2-25.2-15.8-17-23.6-40.5-22.7-63.5 0.3-34.7-0.1-69.5 0.3-104.3zm237.2 6.1c5.4-1.9 10.8-3.8 16.3-5.7 0 39 0.1 78.1 0 117.2 0.9 26.7-17.2 50.5-39.1 63.9-11.1 5.5-23.2 10.1-30 21.2 0.3 12.9 0.3 25.8-0.5 38.7-13.9 0.9-28 0.9-42 0.5 2.2-27.9-8.2-60.3 10.8-84.2 4.2-5.8 10.4-9.6 16-13.9 2.4-0.9 7.2-2.9 9.5-3.9 6-1.8 12-3.8 17.9-5.9 11.5-6.3 20.3-15.9 26.5-27.3 7.8-28.3 2.3-57.8 4.9-86.6 0.5-5.9 6.6-9.3 9.7-14z"/>
	</g>
</svg>