<svg version="1.2" xmlns="http://www.w3.org/2000/svg" viewBox="0 0 1532 272" width="1532" height="272">
	<title>logo-header-svg</title>
	<defs>
		<clipPath clipPathUnits="userSpaceOnUse" id="cp1">
			<path d="m0 0h1531.77v271h-1531.77z"/>
		</clipPath>
	</defs>
	<style>
		.s0 { fill: #ffffff } 
		.s1 { fill: #a55252 } 
	</style>
	<g id="Logo Assets/logo-header">
		<g id="Clip-Path: Frame" clip-path="url(#cp1)">
			<g id="Frame">
				<path id="Vector" class="s0" d="m679.6 48.3h-196.8v171.8h196.8v-60.4h-102.9v-46.1h164.3v93.5q0 37.8-14.2 50.9-14.2 13.1-53.1 13h-186.8q-38.8 0-53-13.1-14.1-13.2-14.1-51v-142.8q0-37.8 14.1-51 14.2-13.1 53-13.1h186.8q37.8 0 52.5 12.8 14.7 12.8 14.7 48.7v6.3l-61.4 11z"/>
				<path id="Vector_2" class="s0" d="m795.6 271v-271h62.9v105h196.8v-105h63.6v271h-63.6v-116.6h-196.8v116.6zm382.5 0v-271h50.9l127.5 163.9 124.9-163.9h50.4v271h-58.2v-167.5q0.3-14.5 2.1-28.9c-4.5 9.9-9.8 19.4-15.8 28.5l-101.8 135.5h-12.6l-101.8-136.2c-6.6-8.5-12-17.9-16.2-27.8q1.5 16.3 1.6 28.9v167.5z"/>
				<path id="Vector_4" class="s1" d="m422.6 14.1c-3.5 3.5-6.3 7.6-8.1 12.2l-214.6-6.2 223.2-6.4zm-12.8 29.7q-0.9 6.2-1.2 13.4l-258.6-6.7zm-1.4 29.9v14.7l-308.5-7.4zm0 29.9v16l-358.4-8zm0 29.9v17.3l-408.4-8.7zm14.2 125.5c6.1 5.2 13.4 8.6 21.2 10.1v2.1l-243.9-7 221.5-6.4zm-13.1-32q0.8 6.8 2.6 13.5l-262.2-6.8zm-1-19.1c0 1 0 1.8 0 2.6l-308.5-7.4 308.4-7.3zm0-43.2v16.1l-358.4-8.1z"/>
			</g>
		</g>
	</g>
</svg>