<svg version="1.2" xmlns="http://www.w3.org/2000/svg" viewBox="0 0 1513 250" width="1513" height="250">
	<title>4a98a0d0-1c73-45b6-9e77-6fadaf94850d-svg</title>
	<style>
		.s0 { fill: #ffffff } 
		.s1 { fill: #6bac8e } 
	</style>
	<g id="#ffffffff">
		<path id="Layer" fill-rule="evenodd" class="s0" d="m29.8 84.4q19.9-25 40-50 35.7 7.7 71.4 15.3c4.9 18.6 9.6 37.3 14.5 55.9 0.1 1 1.1 1.1 1.8 1.5q26.7 10 53.4 20c-0.7 17.3-1.6 34.6-2.4 51.9-0.3 4.6-0.3 9.3-0.8 13.9-21.1 5.7-42.2 11.7-63.5 17.3-10.8-16.7-21.9-33.3-32.8-50-21.9-4.7-43.7-9.4-65.6-14-5.3-20.6-10.6-41.2-16-61.8zm12 2.4c4.2 16.7 8.6 33.3 12.8 50 19.4 4.3 38.8 8.3 58.1 12.5 11-13.4 21.8-26.9 32.5-40.5q-6.4-24.9-12.8-49.7c-19.5-4.3-38.9-8.5-58.4-12.5q-16.1 20.1-32.2 40.2zm79.9 69.3c9.1 13.8 18.2 27.5 27.2 41.4 4-0.7 7.8-2 11.7-3 12.2-3.3 24.4-6.8 36.7-10.1 0.8-16.6 1.6-33.2 2.3-49.9-15.5-5.8-31.1-11.5-46.5-17.5-10.5 13-20.9 26.1-31.4 39.1z"/>
	</g>
	<g id="#6bac8eff">
		<path id="Layer" fill-rule="evenodd" class="s1" d="m113.8 0.5c19.2-1.6 38.8 1.1 56.6 8.3 22 8.8 41.4 23.9 55.2 43.2 13.9 19.4 22.1 42.9 23.1 66.8 1.2 23.2-4.3 46.6-15.7 66.9-7.6 13.6-17.9 25.7-29.9 35.6-17.9 14.7-39.9 24.2-62.9 27-23.3 3-47.6-0.7-68.9-10.9-18.6-8.8-34.9-22.3-47.1-38.9-15.6-21.1-24.2-47.3-24.1-73.5-0.5-38.5 18.4-76.6 49.2-99.7 18.6-14.2 41.2-22.9 64.5-24.8zm-84 83.9c5.4 20.6 10.7 41.2 16 61.8 21.9 4.6 43.7 9.3 65.6 14 10.9 16.7 22 33.3 32.8 50 21.3-5.6 42.4-11.6 63.5-17.3 0.5-4.6 0.5-9.3 0.8-13.9 0.8-17.3 1.7-34.6 2.4-51.9q-26.7-10-53.4-20c-0.7-0.4-1.7-0.5-1.8-1.5-4.9-18.6-9.6-37.3-14.5-55.9q-35.7-7.6-71.4-15.3-20.1 25-40 50zm12 2.4q16.1-20.1 32.2-40.2c19.5 4 38.9 8.2 58.4 12.5q6.4 24.8 12.8 49.7c-10.7 13.6-21.5 27.1-32.5 40.5-19.3-4.2-38.7-8.2-58.1-12.5-4.2-16.7-8.6-33.3-12.8-50zm79.9 69.3c10.5-13 20.9-26.1 31.4-39.1 15.4 6 31 11.7 46.5 17.5-0.7 16.7-1.5 33.3-2.3 49.9-12.3 3.3-24.5 6.8-36.7 10.1-3.9 1-7.7 2.3-11.7 3-9-13.9-18.1-27.6-27.2-41.4z"/>
	</g>
	<g id="#295a83ff">
		<path id="Layer" fill-rule="evenodd" class="s0" d="m1415 51.2c7.8 0.1 15.6 0 23.4 0 0 16.7 0.2 33.4 0.1 50 9.7-9.8 24.2-13.3 37.6-12.1 11.1 0.7 22.2 5.6 28.8 14.7 6 8 7.9 18.2 7.9 28 0.1 19.1 0.1 38.3 0.1 57.5-7.8-0.1-15.5-0.1-23.3 0q0-26.7 0-53.4c-0.1-6.9-1-14.5-5.9-19.8-4.1-4.7-10.4-6.7-16.5-6.9-7-0.3-14.6 1.3-19.9 6.2-3.4 2.9-5.9 6.9-7.2 11.2-2.2 6.7-1.7 13.9-1.8 20.9 0 13.9 0.1 27.8 0.1 41.7-7.8 0-15.6 0.1-23.4 0q0.1-69 0-138zm-1073.2 11.5c14.6-5.8 31-6.7 46.4-3.7 13.3 2.7 26.1 9.2 35 19.5-5.1 5-10.2 10-15.4 15-7.5-8-17.8-13.2-28.7-14.5-11.8-1.4-24.4 0.4-34.5 7.1-9.4 5.9-16.1 15.8-18.5 26.6-2.5 11.2-1.4 23.4 4 33.5 6.2 11.7 17.9 20.1 30.8 22.6 12.7 2.3 26.4 0.8 37.7-5.6q0-20.3 0-40.6c7.6 0.1 15.3 0.1 22.9 0.1 0 17.3 0 34.6 0 51.9-7.7 5.9-16.5 10.3-25.9 12.9-14.3 4.1-29.8 4.8-44.3 1.3-16.1-3.9-31-13.8-40-27.8-7.1-10.1-10.5-22.4-10.8-34.6-0.5-13.7 2.8-27.7 10.7-38.9 7.2-11.3 18.3-19.8 30.6-24.8zm111.5-3.6c8.1 0 16.1 0 24.2 0 0 17.9 0 35.8 0.1 53.7 22.4-0.1 44.8 0 67.2 0 0-17.9 0-35.8 0-53.7q12.1 0 24.2 0c0 43.4 0 86.7 0 130.1-8.1 0.1-16.1 0-24.2 0.1q0-27.9 0-55.8-33.7 0-67.3 0c0 18.6 0 37.2 0 55.7q-12.1 0-24.2 0c-0.1-43.3 0-86.7 0-130.1zm201.9 130.1c-0.1-43.3 0-86.7-0.1-130.1 18 0.1 35.9 0 53.8 0.1 10.8 0.1 21.7 1.8 31.4 6.6 8.2 4 15.3 10.5 19.3 18.8 4.2 8.2 5 17.7 4.2 26.7-0.9 8.4-4.2 16.7-9.8 23.2-4.6 5.4-10.9 9.2-17.4 12 10 14.2 19.9 28.5 30 42.7-8.8 0-17.5 0-26.2 0-8.8-12.5-17.5-25-26.2-37.5-0.4-0.8-1.4-0.4-2.1-0.5-10.9 0.2-21.7 0.1-32.6 0.1 0 12.6 0 25.3 0 37.9-8.1 0-16.2 0-24.3 0zm24.3-109.5q0 25.8 0 51.7c9.4 0 18.7 0.1 28.1 0 6.3-0.1 12.9-0.7 18.7-3.5 4.8-2.1 9-5.9 11.1-10.7 2.6-5.6 2.8-11.9 1.8-17.9-1-5.9-4.5-11.4-9.7-14.5-6.9-4.3-15.3-5.4-23.3-5.2-8.9 0-17.8 0.1-26.7 0.1zm125 16.4c16-9.4 36.9-9.6 53.2-0.8 10.3 5.5 17.9 15.3 21.6 26.3 2.8 8.1 3 16.9 2.7 25.4q-39 0.1-78 0c1.2 6.5 4.5 12.7 9.8 16.7 6.6 5.4 15.4 7.3 23.7 7 9.5 0 19-3.8 25.5-10.8 4.2 4.8 8.3 9.7 12.6 14.5-7.6 8.7-18.6 13.8-29.9 15.4-14.8 2-30.8-0.1-43.4-8.4-6.7-4.4-12.4-10.5-16-17.7-4.7-8.9-6.2-19.2-5.4-29.2 1.1-15.6 9.9-30.6 23.6-38.4zm13.4 14.7c-7.7 4.1-13.1 12.1-14 20.8q28.1-0.1 56.1 0c-0.9-5.4-2.9-10.8-6.7-14.9-8.5-10-24.1-11.8-35.4-5.9zm86.6-10.5c9.3-8.8 22.5-11.4 34.9-11.4 12.9 0.2 26.2 2.3 37.7 8.4-2.9 6-5.9 11.9-8.9 17.8-7.7-4.4-16.5-7.1-25.4-7.4-6.1-0.1-12.5 0-18 2.8-2.5 1.3-4.9 3.3-5.6 6.2-1.1 3.9 1.1 8.4 4.9 9.7 11.1 4.5 23.3 4.8 34.7 8.1 6.8 1.6 13.3 5.3 17.5 11 3.1 4.3 4 9.8 3.9 15 0 7-3 13.8-8.1 18.5-6.8 6.2-15.8 9.5-24.9 10.7-15.8 2.1-32.3 0-47-6.4-2.5-1.1-4.8-2.5-7.1-3.9 3-5.9 6-11.8 9-17.7 9.4 6 20.6 9.1 31.8 9.8 6.7 0.1 13.9 0.1 19.8-3.5 4.7-2.9 5.4-11 0.2-13.8-5.4-2.7-11.5-3.4-17.4-4.5-7.9-1.3-15.8-2.6-23.3-5.3-6.7-2.7-13-7.7-15.4-14.7-3.4-10-1.3-22.2 6.7-29.4zm112.6-4.8c14.4-8 32.7-8.7 47.8-2.3 10.8 4.4 19.5 13.2 24.1 23.8 4.3 9.3 5 19.9 4.4 30q-39 0.1-78 0c1.2 6 4.1 11.7 8.7 15.7 6.2 5.8 15 8.1 23.3 8 10 0.3 20.3-3.4 27.1-10.8q6.2 7.3 12.5 14.5c-3 3-6 6.2-9.8 8.4-12.1 7.4-27 8.9-40.8 6.9-13.8-1.9-27.2-8.9-35.3-20.5-9.1-12.8-11-29.8-6.9-44.8 3.4-12.1 11.7-22.9 22.9-28.9zm5.3 20.8c-4 4.1-6.2 9.7-7.2 15.2 18.8 0.1 37.5 0.1 56.3 0.1-0.9-6-3.4-11.8-7.8-16.1-10.8-11-31-10.7-41.3 0.8zm89.5-15.2c12.3-8.9 27.8-12.2 42.9-12.2 11.9 0.1 24.9 2.7 33.6 11.4 7.9 7.5 10.7 18.9 10.8 29.5 0.1 19.8 0 39.6 0 59.4-7.3 0-14.6 0.1-22 0q0-5.9 0.1-11.9c-3 3.8-6.6 7.2-11.1 9.2-8.2 3.9-17.6 4.5-26.5 3.7-9.8-1.1-19.9-5.3-25.7-13.6-7.1-9.9-6.7-24.8 1.6-34.1 4-4.5 9.6-7.5 15.5-9 6.8-1.8 13.9-2.3 20.9-2.3 8 0 16-0.1 24-0.1-0.1-5.7-1-11.8-5.1-16-5.6-6.1-14.5-7.1-22.3-6.8-9.8 0.6-19.9 3.4-27.5 9.9q-4.6-8.6-9.2-17.1zm28.5 47.2c-3.5 1.2-6.8 3.7-7.9 7.3-1.2 4.1-0.7 8.9 2.1 12.1 3.1 3.6 8 5.2 12.6 5.7 5.4 0.4 11.1 0 16.1-2.3 5.6-2.3 10.5-6.9 12.5-12.7 0.3-3.9 0-7.8 0.1-11.7q-9.2-0.1-18.4-0.1c-5.7 0-11.6-0.1-17.1 1.7zm120-53.1c7.6-5 17-6.1 26-6.5 0.1 7.5 0 14.9 0.1 22.3-5.4-1.1-11-0.6-16.2 0.9-6.6 2-12.3 6.8-15.1 13.1-2.5 5.5-3.1 11.7-3.1 17.7q0.1 23.3 0.1 46.5-11.7 0-23.4 0c0-33.1 0-66.2 0-99.3q11.2 0 22.4 0 0 7.1 0 14.2c2.5-3.4 5.4-6.6 9.2-8.9zm60.6 2.5c13.2-8.6 29.9-10.5 45.1-7.4 8 1.9 15.8 5.7 21.7 11.6 2.9 3 5.2 6.4 7.3 10.1-6 3.5-12 6.9-18 10.4-3.5-6-9.3-10.5-15.9-12.5-10.4-3.1-22.7-0.7-30.4 7.2-4.3 4.3-7 10-8 16-1.1 6.9-0.5 14.1 2.2 20.6 3.6 8.4 11.7 14.7 20.7 16.3 6.3 1.1 13 0.7 19-2 5.2-2.2 9.5-6.4 12.4-11.2 6 3.5 12 6.9 18 10.5-3.4 6-8 11.5-13.9 15.3-11.2 7.3-25.4 9.1-38.5 7.1-13.8-2-27-9.2-34.9-20.8-7.9-11-10.3-25.3-8.1-38.5 2-13.3 9.9-25.5 21.3-32.7z"/>
	</g>
</svg>