<svg version="1.2" xmlns="http://www.w3.org/2000/svg" viewBox="0 0 1549 1551" width="1549" height="1551">
	<title>4a98a0d0-1c73-45b6-9e77-6fadaf94850d-svg</title>
	<style>
		.s0 { fill: #ffffff } 
		.s1 { fill: #6bac8e } 
	</style>
	<g id="#ffffffff">
		<path id="Layer" fill-rule="evenodd" class="s0" d="m185.3 524.8c82.6-103.7 165.6-207.3 248.8-310.6 148.2 31.7 296.3 63.5 444.5 95.1 30.3 115.7 59.6 231.8 90.1 347.5 0.5 5.9 6.5 7.1 11.1 9.1q165.9 62.6 332.1 124.8c-4.4 107.5-10.1 215-14.9 322.6-1.9 28.7-1.5 57.6-4.7 86.3-131.7 35.7-263 73-395 108-67.7-104-136.2-207.4-204.6-311-135.9-29.4-271.8-58.9-407.9-87.1-33.1-128.3-65.8-256.6-99.5-384.7zm74.8 15c25.8 103.9 53.6 207.4 79.7 311.2 120.3 26.5 241 51.4 361.3 77.9 68.4-83.3 135.5-167.7 202.2-252.3-26.7-103-53.2-206.1-79.8-309.1-121-26.5-242.1-52.8-363.4-77.5-66.4 83.5-133.2 166.7-200 249.8zm497.1 431.2c56.6 85.6 113.4 171.2 169.4 257.2 24.5-4.1 48.1-12.5 72.2-18.6 76.2-20.6 152.1-41.9 228.4-62.5 5-103.4 10.1-206.7 14.3-310.2-96.4-36.4-193.1-72-289.2-109-65.2 81-130 162.1-195.1 243.1z"/>
	</g>
	<g id="#6bac8eff">
		<path id="Layer" fill-rule="evenodd" class="s1" d="m708.2 2.9c119.2-9.7 240.8 7 351.8 51.9 136.9 54.4 257.5 148.8 343.2 268.6 86.9 120.7 137.8 267 144.1 415.6 7.3 144.1-27.1 290-97.8 415.8-47.5 84.8-111.2 160.2-186.3 221.9-111.2 90.9-248.1 150.3-390.8 168-145.5 18.4-296.3-4.4-428.6-68-116-54.5-217.7-138.8-293.4-242.1-97.2-131.1-150.4-294-150-457.1-3.1-239.5 114.7-476.2 306.3-619.9 115.4-88.4 256.6-142.6 401.5-154.7zm-522.9 521.9c33.7 128.1 66.4 256.4 99.5 384.7 136.1 28.2 272 57.7 407.9 87.1 68.4 103.6 136.9 207 204.6 311 132-35 263.3-72.3 395-108 3.2-28.7 2.8-57.6 4.7-86.3 4.8-107.6 10.5-215.1 14.9-322.6q-166.2-62.2-332.1-124.8c-4.6-2-10.6-3.2-11.1-9.1-30.5-115.7-59.8-231.8-90.1-347.5-148.2-31.6-296.3-63.4-444.5-95.1-83.2 103.3-166.2 206.9-248.8 310.6zm74.8 15c66.8-83.1 133.6-166.3 200-249.8 121.3 24.7 242.4 51 363.4 77.5 26.6 103 53.1 206.1 79.8 309.1-66.7 84.6-133.8 169-202.2 252.3-120.3-26.5-241-51.4-361.3-77.9-26.1-103.8-53.9-207.3-79.7-311.2zm497.1 431.2c65.1-81 129.9-162.1 195.1-243.1 96.1 37 192.8 72.6 289.2 109-4.2 103.5-9.3 206.8-14.3 310.2-76.3 20.6-152.2 41.9-228.4 62.5-24.1 6.1-47.7 14.5-72.2 18.6-56-86-112.8-171.6-169.4-257.2z"/>
	</g>
</svg>