<svg version="1.2" xmlns="http://www.w3.org/2000/svg" viewBox="0 0 1509 1507" width="1509" height="1507">
	<title>logo-gulf-island-w-tagline-svg</title>
	<style>
		.s0 { fill: #3064af } 
		.s1 { fill: #12b24b } 
	</style>
	<g id="Layer_2">
		<g id="Layer_1-2">
			<g id="Layer_2-2">
				<g id="Layer_1-2-2">
					<path id="Layer" class="s0" d="m1508 0v642h-772.4v221.9h287.2c-51.1 124.7-178.9 200.3-313 185.2-134.1-15-241.9-117.1-264-250-22.2-132.8 46.6-264.3 168.5-322 122-57.6 267.4-27.5 356.3 73.9l232.7-78.2c-56.3-88.9-137.8-159-234.1-201.5-96.3-42.6-203.1-55.6-306.8-37.5-103.7 18.1-199.7 66.6-275.8 139.3-76 72.7-128.8 166.2-151.6 268.9h-235v-642z"/>
					<path id="Layer" class="s1" d="m1508 865.2v641.7h-1508v-641.7h235c26.4 117.9 92.2 223.2 186.5 298.7 94.4 75.5 211.7 116.7 332.6 116.7 121 0 238.3-41.2 332.6-116.7 94.4-75.5 160.2-180.8 186.6-298.7z"/>
				</g>
			</g>
		</g>
	</g>
</svg>