<svg version="1.2" xmlns="http://www.w3.org/2000/svg" viewBox="0 0 1557 337" width="1557" height="337">
	<title>investor-logo-svg</title>
	<style>
		.s0 { fill: #ffffff } 
		.s1 { fill: #f15a2c } 
	</style>
	<g id="Layer_2">
		<g id="Layer_1-2">
			<path id="Layer" fill-rule="evenodd" class="s0" d="m1131 10h46.8v321.3h-46.8zm-220.4 111.7c23.4-16.7 53-23.8 88.1-23.8 68.5 0 103.5 44.1 103.5 98.8v134.6h-42.9v-19.5c-11.6 11.9-42.7 23.1-73.1 23.1-49.5 0.1-85.2-25.5-85.2-78.9 0-43.6 32-75.5 91.5-74.4q7.8 0.2 15.6 1.1 7.8 0.9 15.4 2.5 7.7 1.7 15.1 4 7.5 2.4 14.7 5.4c-0.4-30.8-21.9-51.8-60.6-51.8-27.9 0-50.9 6.9-65.1 16.4zm142.5 115.1q-7.2-2.8-14.7-4.9-7.4-2.1-15-3.5-7.6-1.5-15.3-2.3-7.7-0.7-15.4-0.8c-32 0.3-44.1 15.6-44.1 32.1 0 18.6 13 30.4 43 30.4q8-0.3 15.9-1.5 7.9-1.1 15.6-3.1 7.8-1.9 15.3-4.6 7.5-2.7 14.7-6.1zm-323.6-226.8v107.3q6.1-4.7 13-8.3 6.8-3.5 14.1-5.9 7.3-2.4 14.9-3.6 7.7-1.1 15.4-0.9c53.6-0.4 104.1 32.6 103.1 121.2-1 86.8-49.1 115.2-102.8 115.2-24.4 0-48.6-9.5-62.5-23.5v19.8h-43.5v-321.3zm0 260c3.4 3.5 7.1 6.6 11 9.3 4 2.7 8.2 4.9 12.7 6.7 4.4 1.8 9.1 3.2 13.8 4 4.7 0.8 9.5 1.2 14.3 1 42.5 0 59.9-27.8 59.9-71.2 0-41.1-17.3-76.1-59.5-76.1q-7-0.2-13.9 0.7-6.8 1-13.5 3-6.6 2.1-12.9 5.1-6.2 3.1-11.9 7.1zm-150.2-162.8c14.4 5.9 27.6 14.6 38.6 25.6 11.1 11 19.9 24 25.9 38.4 6 14.4 9.1 29.8 9.1 45.4 0 47.8-28.8 90.9-72.9 109.3-44.2 18.3-95 8.3-128.9-25.4-33.9-33.7-44.2-84.5-26.1-128.7 18.1-44.3 61.1-73.3 108.9-73.6 15.6 0 31 3 45.4 9zm-72.7 43.6c-8.6 3.5-16.5 8.8-23.1 15.4-6.6 6.6-11.8 14.5-15.3 23.2-3.5 8.6-5.3 17.9-5.2 27.2 0 28.9 17.4 54.8 44 65.8 26.7 11.1 57.4 4.9 77.7-15.5 20.3-20.5 26.3-51.2 15.2-77.8-11.1-26.6-37.2-43.8-66-43.7-9.4 0-18.6 1.8-27.3 5.4zm-155.8-140.8h46.8v321.3h-46.8zm-83 111.5c-13.2-53.2-64-72.5-105.9-72.5-64.5 0-114.1 49.7-114.1 119.3 0 69.7 49.6 121 114.1 121 40.5 0 83.8-18.8 103.6-66.6h-121.9v-47.8h177.4c-2.3 27.8-4.6 46.2-8.9 57v-0.5c-22.6 63.1-90.4 103.6-150.2 103.6-92.4 0-161.9-69.1-161.9-166.7 0-97.6 71.1-167 161.9-167 63.1 0 139.4 32.4 156.8 120z"/>
			<path id="Layer" fill-rule="evenodd" class="s1" d="m1542.1 100.6q1.2 2.7 2.2 5.4 1.1 2.6 2.1 5.4 0.9 2.7 1.8 5.4l-41.1 20-215.3 105.1c14.4 19.2 34.2 33.8 56.8 41.8 22.7 8.1 47.3 9.2 70.6 3.3 23.3-5.8 44.4-18.5 60.5-36.3 16.2-17.8 26.7-40 30.3-63.8l46.4-22.7c2.2 85.8-60.6 159.3-145.6 170.6-85 11.2-164.9-43.4-185.1-126.7-20.2-83.4 25.7-168.5 106.4-197.5 80.7-28.9 170.2 7.6 207.6 84.8q1.3 2.6 2.4 5.2zm-124.2-50.5c-27.5-6.6-56.5-3.4-82 9-25.5 12.4-45.8 33.3-57.6 59.1-11.7 25.8-14.1 54.9-6.7 82.2l215.3-105c-17-22.7-41.4-38.7-69-45.3z"/>
		</g>
	</g>
</svg>