<svg version="1.2" baseProfile="tiny-ps" xmlns="http://www.w3.org/2000/svg" viewBox="0 0 1542 1574" width="1542" height="1574">
	<title>Glencore_logo-svg copy-svg</title>
	<style>
		tspan { white-space:pre }
		.shp0 { fill: #000000 } 
	</style>
	<path id="Layer" fill-rule="evenodd" class="shp0" d="M1138.15 988.88L1034.16 956.38C1014.66 949.88 1001.66 943.38 1008.16 936.88C1008.16 930.38 1027.66 923.88 1053.66 923.88L1502.24 923.88C1528.24 923.88 1541.24 930.38 1541.24 936.88C1541.24 943.38 1534.74 949.88 1521.74 956.38L1430.68 988.88C1391.69 1001.88 1372.19 1027.88 1372.19 1066.88C1372.19 1183.88 1378.69 1300.88 1391.69 1424.37C1216.2 1528.37 1021.16 1573.87 806.62 1573.87C657.13 1573.87 520.58 1547.87 403.6 1489.37C169.56 1372.38 39.51 1164.38 7.01 878.38C7.01 845.88 0.51 813.38 0.51 780.88C0.51 546.89 78.5 358.39 234.55 228.39C410.1 78.89 631.07 0.89 884.61 0.89C1034.16 0.89 1190.21 26.89 1359.19 78.89L1326.69 442.89C1326.69 462.39 1320.19 475.39 1307.2 468.89C1300.7 468.89 1294.2 455.89 1287.7 436.39L1248.7 254.39C1242.2 228.39 1235.7 208.89 1229.2 195.89C1222.7 182.89 1196.71 169.89 1170.71 156.89C1092.65 124.39 1001.66 104.89 891.11 104.89C722.13 104.89 572.58 143.89 449.09 228.39C273.55 345.39 182.55 533.89 189.05 793.88C189.05 910.88 215.05 1021.38 254.05 1112.38C306.04 1235.88 384.1 1320.38 481.59 1378.87C598.58 1443.87 709.13 1469.87 819.62 1469.87C917.17 1469.87 1014.66 1443.87 1118.65 1398.37C1177.21 1365.88 1209.71 1326.88 1209.71 1268.38C1216.2 1151.38 1203.21 1066.88 1190.21 1021.38C1177.21 1008.38 1164.15 1001.88 1138.15 988.88Z" />
</svg>