<svg version="1.2" xmlns="http://www.w3.org/2000/svg" viewBox="0 0 1598 477" width="1598" height="477">
	<title>logo (25)-svg</title>
	<style>
		.s0 { fill: #004990 } 
	</style>
	<g id="Layer">
		<path id="Layer" fill-rule="evenodd" class="s0" d="m21.9 16.7v59.2h58.7v-20.3l21.9 4.3v11.2c0 17.6-5.9 21.8-23 21.8h-56c-17.6 0-22.9-4.2-22.9-21.8v-49.1c0-17.6 5.9-21.9 22.9-21.9h55.5c17.6 0 22.9 4.3 22.9 21.9v9.1l-21.8 3.2v-17.6zm136.5 0h59.2c14.9 0 19.7 3.2 19.7 18.1v40.5c0 14.4-4.8 18.2-19.7 18.2h-59.2c-14.9 0-19.7-3.8-19.7-18.2v-40.5c0-14.4 4.8-18.1 19.7-18.1zm60.3 14.4h-61.4v48h61.9zm51.2-14.4h12.8l65.1 50.6v-50.6h16.5v76.8h-12.8l-64.5-51.8v51.8h-17.1zm174.4 76.8h-18.7v-63h-36.8v-13.8h92.3v13.8h-36.8zm78.9-76.8h59.2c15 0 19.8 3.2 19.8 18.2v40.5c0 14.4-4.8 18.1-19.8 18.1h-59.2c-14.9 0-19.7-3.7-19.7-18.1v-40.5c0-14.4 4.8-18.2 19.7-18.2zm60.8 14.4h-61.8v48h61.8zm69.4 48h53.3v-62.4h18.7v58.7c0 14.4-4.8 18.1-20.3 18.1h-50.7c-14.9 0-19.7-3.7-19.7-18.1v-58.7h18.7zm106.1-62.4h68.8c12.3 0 18.1 4.3 18.1 15v18.1c0 10.7-5.8 14.4-18.1 14.4h-10.7l36.3 28.8h-26.7l-32-28.8h-17.6v28.8h-18.6c0.5-0.5 0.5-76.3 0.5-76.3zm-0.5 76.3q0 0 0 0zm18.6-62.9v21.3h42.7c5.9 0 8.5-1.1 8.5-6.4v-9.1c0-4.8-2.6-6.4-8.5-6.4zm125.9-13.3v59.2h67.7v-20.8h-35.2v-16h56.5v32c0 17.6-5.8 21.9-22.9 21.9h-64.5c-17.6 0-23-4.3-23-21.9v-49.1c0-17.6 5.9-21.8 23-21.8h64.5c17.1 0 22.9 4.2 22.9 21.3v2.1l-21.3 3.8v-10.7zm128 0h19.2v62.4h59.7v14.4h-78.9zm118.4 0h59.2c14.9 0 19.7 3.2 19.7 18.1v40.6c0 14.4-4.8 18.1-19.7 18.1h-59.2c-14.9 0-19.7-3.7-19.7-18.1v-40.6c-0.6-14.4 4.2-18.1 19.7-18.1zm-1.6 62.4h61.9v-48h-61.9zm181.3-62.4c12.3 0 18.2 3.7 18.2 14.9v9.1c0 6.9-4.8 11.7-12.8 12.8 8.5 1.6 13.3 6.9 13.3 14.4v10.1c0 10.2-8 15-23.5 15h-63.4v-76.3zm-50.2 12.3v18.1h41.6c5.9 0 8.6-1.1 8.6-5.3v-7c0-4.2-2.7-5.3-8.6-5.3zm0 30.9v19.8h41.6c6.4 0 9.1-1.1 9.1-7v-5.8c0-5.9-2.7-7-9.1-7zm134.4-43.2h18.2l46.4 76.3h-20.8l-9.6-17.1h-51.8l-9.6 17.1h-18.6zm25.6 45.9l-18.2-32-17 32zm57-45.9h19.2v62.4h59.8v14.4h-79zm97.1 3.7c2.7 2.7 3.7 5.9 3.7 9.6 0 3.8-1.6 7-3.7 9.6-2.7 2.7-6.4 4.3-9.6 4.3-3.7 0-6.9-1.6-9.6-4.3-2.7-2.6-4.3-5.8-4.3-9.6 0-3.7 1.6-6.9 4.3-9.6 2.7-2.6 5.9-3.7 9.6-3.7 3.7-0.5 6.9 1.1 9.6 3.7zm-1.1 1.1c-2.1-2.1-5.3-3.7-9-3.7-3.2 0-6.4 1-8.6 3.7-2.1 2.7-3.7 5.3-3.7 8.5 0 3.2 1.1 6.4 3.7 8.6 2.2 2.1 5.4 3.7 8.6 3.7 3.2 0 6.4-1.1 9-3.7 2.2-2.2 3.8-5.4 3.8-8.6 0-3.2-1.1-6.4-3.8-8.5zm-1.6 4.8c0 2.1-1.6 3.7-3.7 4.3l3.7 7.4h-2.6l-3.2-6.9h-3.8v6.9h-2.1v-16h5.9c3.7 0 5.8 1.1 5.8 4.3zm-10.1-2.7v5.9h3.2c3.2 0 4.3-0.5 4.3-2.7 0-2.1-1.6-2.6-4.3-2.6zm-919.5 228.2c39.5-10.1 432-125.8 480.6 115.2-28.3-79.4-95-121-219.2-107.7-116.3 5.3-359.5 112-458.2 112-88 0-142.4-24-155.2-78.4 43.8 81.1 172.8 10.7 352-41.1z"/>
		<path id="Layer" class="s0" d="m348.3 367.1c101.4 97 421.4-44.8 517.4-63 83.2-17.6 137.6-5.8 170.6 14.4 32.6 19.8 44.8 49.1 43.8 61.9-4.3 94.9-130.7 96.5-136 96.5-114.7 0-137.1-57-139.8-67.2 19.8 24 53.9 33.6 137.6 34.2 6.4-0.6 151.5-5.4 121.1-77.9-20.8-42.7-110.9-40.5-224.5 5.9-10.7 6.4-163.2 58.6-219.2 66.6-97.1 17.6-170.7-5.8-170.7-5.8 0 0-66.1-14.4-100.3-65.6z"/>
	</g>
</svg>