<svg version="1.2" xmlns="http://www.w3.org/2000/svg" viewBox="0 0 1492 1522" width="1492" height="1522">
	<title>logo_2 (1)-svg</title>
	<style>
		.s0 { fill: #d7282f } 
	</style>
	<g id="Layer_2">
		<g id="Layer_1-2">
			<path id="Layer" class="s0" d="m944.3 1493.8q-24.1 6.8-48.6 12-24.5 5.2-49.3 8.7-24.9 3.5-49.9 5.3-24.9 1.8-50 1.9c-86.8-0.5-172.8-16.2-254.3-46.1-81.4-30-157.1-73.9-223.6-129.7-66.4-55.9-122.8-122.9-166.4-198-43.7-75.1-74-157.2-89.7-242.7h71.6c-10.8 38 5 78.8 71.5 118.2 155.6 93.2 446.7 39.1 673.2 173.4 130.2 77 145.2 189.5 115.5 297zm-697.5-725.8q-17.6 8.5-34.6 18.1-17.1 9.5-33.5 20.2-16.4 10.6-32 22.3h-143.1c-3.6-22.6-3.6-45.5-3.6-68.8q0-3.8 0-7.5h282.6q-18.1 7.3-35.8 15.7zm515.4-313.8c-1.4-8.9-95.5 22.2-173.4 71.7h-553q3.2-9.7 6.7-19.2 3.4-9.6 7.2-19.1 3.7-9.4 7.8-18.8 4-9.3 8.3-18.5h700.4c25.4-28.7 49.7-53.7 71.5-75.2h-733.3q5.8-10 11.8-19.8 6-9.8 12.4-19.4 6.3-9.6 13-19 6.7-9.4 13.6-18.5h768.4q-2.5 2.3-5 4.6-2.4 2.4-4.8 4.8-2.4 2.4-4.7 4.9-2.3 2.5-4.5 5l-3.9 4.7-6.5 7.5q-4.5 5.8-8 12.3-3.5 6.5-5.7 13.5-2.3 7.1-3.4 14.4-1 7.3-0.8 14.6v1.8 6.5c5 22.9 24.7 46.5 68 69.8q14.4 7.4 29.4 13.3 15.1 6 30.6 10.5 15.5 4.5 31.4 7.5 15.9 3 32 4.5h9.3 3.9q44.8 1.5 89.7 1.1 44.8-0.4 89.6-2.8 44.7-2.3 89.4-6.5 44.6-4.3 89-10.4 7.7 18.9 14.2 38.1 6.5 19.3 11.9 38.9 5.4 19.6 9.6 39.5 4.2 19.9 7.3 40.1c0 1.8 0 1.8 0 1.8-75.9-2.6-156.7 0.7-237.2 5.3l-145.9 8.3h-20.4-17.2-35.8-7.5-41.5-3.9-42.2-2.2l-40.7-1.8h-2.5q-17.8-0.9-35.5-2.8-17.7-1.9-35.2-5-17.6-3-34.9-7.2-17.3-4.2-34.3-9.4c-78.3-26.9-63.3-68.8-51.5-87.8 4.7-7.5 8.9-12.8 8.9-12.8 20.4-25.5 40.5-49.5 60.1-71.7m275.1-231.4h-818q10.3-10.4 21-20.3 10.8-10 21.9-19.5 11.1-9.6 22.5-18.7 11.5-9.1 23.3-17.8h877c19.2 14.2 37.6 29.2 55.3 45.1 17.7 15.9 34.7 32.7 50.8 50.2 16.2 17.5 31.5 35.8 45.9 54.7 14.4 19 27.9 38.6 40.5 58.8q-29.9 4.3-60 5.9-30.1 1.6-60.2 0.6-30.1-1-60.1-4.6-29.9-3.6-59.4-9.7c-97.3-26.9-44-88.5-40.8-92.5l61.2-75.2c11.1-10.4-49.4 8.2-120.9 43zm-210.2-217.3c26.7 3.1 53.3 7.7 79.5 13.7 26.2 6 52.1 13.5 77.5 22.4 25.5 8.8 50.4 19.1 74.7 30.7h-624.2c24.2-11.6 49.1-21.9 74.5-30.8 25.4-8.8 51.3-16.3 77.5-22.3 26.2-6.1 52.7-10.6 79.4-13.7 26.7-3.1 53.6-4.7 80.5-4.8 26.9 0.1 53.8 1.7 80.6 4.8zm664.1 831.3c-1.4 12.9-3.2 26.1-5 38.7q-3.7 25-9 49.7-5.3 24.7-12.2 49-7 24.3-15.6 48.1-8.5 23.8-18.6 47c-236.1-134.7-787-82.4-1042-148.7q-6-1.6-12-3.3-5.9-1.8-11.8-3.7-5.9-1.9-11.8-4-5.8-2.1-11.6-4.4c-77.3-30.8-52.9-74.9-41.5-90.6l4.7-6.1q12.5-16.6 25.4-32.8 13-16.1 26.4-32 13.4-15.8 27.3-31.2 13.9-15.4 28.2-30.5h-407.1q0.9-9.6 2.1-19.2 1.2-9.5 2.7-19.1 1.5-9.5 3.2-19 1.8-9.5 3.8-19h489c-3.8 5.1-7.1 10.5-9.6 16.3-2.6 5.7-4.5 11.7-5.7 17.9-1.2 6.2-1.7 12.5-1.5 18.8 0.2 6.3 1.2 12.6 2.8 18.7q0.3 1 0.7 2 0.3 1 0.7 2 0.5 1 0.9 1.9 0.4 1 0.9 2c0 0-0.2-0.7 0 0q0.5 0.9 0.9 1.9 0.5 0.9 1 1.9 0.5 0.9 1 1.8 0.5 1 1.1 1.9c1.8 0.3 1.8 2.1 1.8 2.1l2.8 6.5 2.5 2.8q0.6 0.9 1.3 1.7 0.6 0.8 1.3 1.5 0.6 0.8 1.3 1.5 0.8 0.7 1.5 1.4l2.9 3.3 6.4 5.7 3.9 3.6 7.5 5.7 4.3 3.2 10 7.2 4 2.5c5 2.9 10 6.1 15.7 9 204.3 110.3 672.8 1.4 923.2 85.6z"/>
		</g>
	</g>
</svg>