<svg version="1.2" xmlns="http://www.w3.org/2000/svg" viewBox="0 0 1444 323" width="1444" height="323">
	<title>logo--en-svg</title>
	<style>
		.s0 { fill: #00589c } 
		.s1 { fill: #0080c8 } 
		.s2 { fill: #626261 } 
	</style>
	<path id="Layer" class="s0" d="m161.6 0l161.5 109.2v213.8l-161.5-109.2z"/>
	<path id="Layer" class="s1" d="m161.6 0v323c-89.2 0-161.6-72.4-161.6-161.5 0-89.1 72.4-161.5 161.6-161.5zm323.1 161.5c0 89.1-72.4 161.5-161.6 161.5v-323c89.2 0 161.6 72.4 161.6 161.5z"/>
	<path id="Layer" fill-rule="evenodd" class="s2" d="m968.4 162.6c0 0 0-55.1 0-55.1h32.4v107.6h-30.4l-34.1-54.1v54.1h-32.8v-107.6h30.4zm-177.9-16.1v30c0 24.7-18.3 40.7-40.7 40.7h-16.9c-22.4 0-40.7-15.8-40.7-40.7v-30c0-24.7 18.3-40.7 40.7-40.7h16.9c22.4 0 40.7 14.7 40.7 40.7zm-34.7-2.4c0-7.2-5.9-13-13-13h-2.9c-7.2 0-13 5.8-13 13v34.8c0 1.7 0.4 3.4 1 5 0.7 1.5 1.6 3 2.8 4.2 1.2 1.2 2.6 2.1 4.2 2.8 1.6 0.6 3.3 1 5 1h2.9c1.7 0 3.4-0.4 5-1 1.5-0.7 3-1.6 4.2-2.8 1.2-1.2 2.1-2.6 2.8-4.2 0.6-1.6 1-3.3 1-5zm260.2-36.5h34.6v107.6h-34.6zm428.1 78.5v29h-75.6v-107.5h34.6v78.5zm-284.8-39.6v2.8h-34.8v-5.2c0-7.2-5.8-13-12.9-13h-1.5c-7.2 0-13 5.8-13 13v34.8c0 1.7 0.4 3.4 1 5 0.7 1.5 1.6 3 2.8 4.2 1.2 1.2 2.6 2.1 4.2 2.8 1.6 0.6 3.3 1 5 1h1.5c1.7 0 3.3-0.4 4.9-1 1.6-0.7 3-1.6 4.2-2.8 1.2-1.2 2.2-2.7 2.8-4.2 0.7-1.6 1-3.3 1-5v-3.7h34.8v1.3c0 24.7-18.3 40.7-40.7 40.7h-15.5c-22.4 0-40.8-15.8-40.8-40.7v-30c0-24.7 18.4-40.7 40.8-40.7h15.5c22.4 0 40.7 14.6 40.7 40.7zm-282.5 29.2l20 39.4h-35.8l-14.4-31.9h-10.2v31.9h-34.1v-107.5h50.7c22.4 0 40.7 12.3 40.7 34.2v5.2c0 13.3-6.7 23.1-16.9 28.7zm-16.7-31.6c0-8.4-7.1-12.4-10.6-12.4h-13.1v26.8h11.7c10 0 12-8.8 12-12.7 0 0 0-1.7 0-1.7zm-212.5-36.5h32.8v107.5h-30.4l-35.5-54.5v54.5h-32.8v-107.5h30.4l35.5 54zm663.9 79.5h45.7v28h-80.3v-107.5h77.1v28.1h-42.5v13.1h39v25.5h-39zm-69.6-26.1l29.3 54.2h-39.7l-18.7-38.2h-8.5v38.2h-34.6v-107.5h34.6v40.6h8.6l18.2-40.6h37.5z"/>
</svg>