<svg version="1.2" xmlns="http://www.w3.org/2000/svg" viewBox="0 0 1596 710" width="1596" height="710">
	<title>GNL_logo_clr (1)-svg</title>
	<style>
		.s0 { fill: #ffffff } 
	</style>
	<g id="#0f75bcff">
		<path id="Layer" class="s0" d="m1354.6 0h21.4c34.2 2 68 10.8 98.1 27.1 40.5 21.7 74.3 55.7 95.6 96.4 22 41.9 30.6 90.8 24.2 137.7-5.6 42-23 82.4-49.9 115.1-27.2 33.4-63.9 59-104.8 72.6-51 17.4-108.1 16.1-158.3-3.7-40.7-15.7-76.4-43.6-102.2-78.7 16.2 14.2 34.2 26.5 53.9 35.2 25.5 11.5 53.4 17.6 81.4 17.9 44.1 0.7 88.3-13.5 123.7-39.9 32.6-23.9 57.9-57.8 71.4-96 16.5-46.2 15.6-98.3-2.7-143.8-15.5-39.1-43.5-73.1-78.8-95.9-40.6-26.7-91-37.6-139.2-31 21.3-7.6 43.7-11.6 66.2-13z"/>
		<path id="Layer" class="s0" d="m175 57.4c39.5-3.7 80.7 4.9 114.2 26.6 25.5 16.3 46 39.8 59.6 66.8-22.9 12-45.6 24.3-68.4 36.5-10.9-24.9-31.1-46.2-56.6-56.3-19.2-7.7-41-8.1-60.9-2.4-19 5.4-35.8 17.4-48.2 32.6-19.7 23.9-30.2 54.3-33.7 84.9-2.4 23.5-0.3 47.5 6.6 70.2 7.8 25.8 22 50.4 43.7 67 16.9 13.1 38.4 20 59.8 19.9 18.6 0.1 37-6.6 51.8-17.8 22.4-16.6 37.1-43.6 38-71.6-27.9 0-55.8 0-83.7 0q0-31.4 0-62.8 85.1 0 170.2 0c0.6 25.6-1.3 51.3-7.1 76.3-7.9 34-22.9 67.1-46.9 92.8-20.7 22.6-48.4 38.5-78.1 45.7-29.8 7.1-61.2 7.5-90.9 0.5-32.5-7.5-62.5-24.7-85.6-48.7-28.1-28.6-46.1-66.2-54-105.2-7.8-39.3-5.8-80.5 6.1-118.7 11.9-38.2 34.5-73.6 66.3-98.4 27.8-22 62.4-35.1 97.8-37.9zm231.6-0.8q27.7 0 55.5 0c57.5 75.8 114.9 151.7 172.3 227.5 12.3 16.1 24.2 32.5 36.8 48.3 0.2-88.6 0-177.3 0.1-266 25.6 0 51.2 0.1 76.8 0-0.4 130.1 0 260.1-0.2 390.1 0 4.1 0 8.2 0.2 12.3-18.5 0-37 0-55.4 0-58.3-76.8-116.5-153.8-174.7-230.7-11.5-15.1-22.7-30.3-34.4-45.2-0.5 2.9-0.7 5.9-0.7 8.9 0 66.4 0 132.9 0 199.3 0.2 20.2-0.5 40.4 0.4 60.6-25.6-0.6-51.2-0.1-76.7-0.3q0-202.4 0-404.8zm397.7 9.8c25.6 0 51.2 0.1 76.8 0-0.4 109.4-0.1 218.8-0.1 328.2 36.4 0.2 72.8 0 109.3 0.1 0.1 22.2-0.2 44.5 0.1 66.8q-93.1-0.1-186.1-0.1 0-197.5 0-395z"/>
	</g>
	<g id="#084169bf">
		<path id="Layer" class="s0" d="m1230.3 67.7c36.1-21 80.1-27.5 120.8-18.3 40.5 8.9 77.1 33.6 100.9 67.5 26.5 37.3 36.5 85.6 27.2 130.3-8 40.4-31.6 77.4-64.7 101.8-35.7 26.7-82.3 38.1-126.3 31 45.7-2 89.6-26.4 115.4-64 25.6-36.1 33.3-83.9 20.8-126.3-10.6-37.5-36.8-70.1-70.9-89-24.9-13.9-53.9-20.3-82.4-18.3-39 2.4-76.6 21.1-102.1 50.6-2.4 2.7-4.6 5.5-6.9 8.2 14.5-30.7 38.7-56.7 68.2-73.5z"/>
	</g>
	<g id="#000000ff">
		<path id="Layer" fill-rule="evenodd" class="s0" d="m738 560.4c34.1 35.7 68.1 71.6 102.3 107.3 0-33.5 0-67 0-100.4q8.4-0.1 16.9 0c0 47.5 0 95 0 142.6-34-35.9-68-71.7-102.2-107.4 0 33.8 0 67.6 0 101.3q-8.5 0-16.9 0c0-47.8 0.1-95.6-0.1-143.4zm-283.6 143.4q32.6-71.4 65.3-142.9c21.8 47.6 43.5 95.3 65.3 142.9q-9.4 0.1-18.7 0-7.8-17.2-15.5-34.4c-20.8 0-41.5-0.1-62.3 0.1-5 11.5-10.3 22.9-15.4 34.3q-9.4 0-18.7 0zm41.3-50.1q24 0 47.9 0c-7.9-18.2-15.9-36.4-23.9-54.5q-12 27.2-24 54.5zm787.3 50.1q32.7-71.4 65.3-142.9c21.9 47.6 43.6 95.3 65.4 142.9q-9.4 0.1-18.7 0-7.8-17.2-15.6-34.4c-20.7 0-41.5-0.1-62.2 0-5.1 11.5-10.3 23-15.5 34.4q-9.3 0-18.7 0zm41.4-50.1q24 0 47.9 0c-8-18.2-15.9-36.4-24-54.5q-12 27.2-23.9 54.5zm-1306.5-63.7c12.3-14.9 30.9-24.3 50.1-25.3 22.7-1.4 45.6 8.7 59.9 26.4q-6.1 5.8-12.2 11.6c-9.7-13-25.3-21.6-41.6-22.2-14.4-0.3-28.9 5.2-39.1 15.4-9.2 8.9-15 21.3-16.2 34.1-1.9 18.2 6.3 36.8 20.3 48.5 11.6 9.7 27.8 14.7 42.7 10.7 17.4-4.8 33-19.9 34.1-38.6-11.8 0.1-23.6 0-35.3 0q0-7.8 0-15.7 27.1 0 54.1 0c1 16.5-2.8 33.5-12.8 46.8-10.5 14.3-27.6 23.2-45.2 24.5-17.2 1.7-34.9-3.6-48.3-14.4-17-13.5-27.6-35-27-56.8-0.1-16.3 6-32.5 16.5-45zm252.6-24.2c14.9-2.5 30.6-0.7 44.1 6.1 18.9 9.1 33.5 27 38.2 47.6 4.4 19 1 39.9-10.1 56-10.8 16.3-28.9 27.3-48.1 30.1-14.7 2-30.2 0.3-43.5-6.5-16.7-7.9-29.7-22.9-35.5-40.4-6.7-20-4.3-43.1 7.3-60.9 10.5-16.7 28.2-28.6 47.6-32zm3.7 15.8c-13.6 2.1-26.3 9.6-34.4 20.8-7.9 10.7-11.6 24.3-10.5 37.6 1.1 15.2 9 29.8 21.1 39 12.3 9.5 28.9 13.5 44.1 10 15.7-3.3 29.7-14 36.9-28.3 11.3-21.3 6.4-49.8-11.5-66-12.1-11.1-29.6-15.8-45.7-13.1zm1154.8-0.3c9.6-14.1 28.8-19.3 45-15.4 10.5 2.6 19.1 10.2 24.4 19.4-4.5 2.9-9.1 5.6-13.7 8.4-3.7-5.7-8.8-11-15.7-12.2-11.6-2.9-26.5 3.9-28.2 16.6-1.2 8.3 5.5 15 12.4 18.3 11.1 5.4 23.4 8.4 33.5 15.8 7.3 5.1 13 13 14.8 21.8 2.4 11.9 0.6 25.1-6.8 35-12.9 18.6-41.6 23.1-59.8 9.7-9.9-7.1-16.1-18.6-17.7-30.6 5.8-1.2 11.5-2.3 17.3-3.6 0.5 7 2.8 14.2 8.3 18.9 7.7 7.1 20 9.1 29.3 3.9 11.8-6.4 17-23.1 10.2-34.7-5.8-8.9-16.2-12.5-25.5-16.5-9.6-4-19.6-8.4-26.5-16.5-8.9-10.6-8.9-27-1.3-38.3zm-1277-14q8.4 0 16.9 0 0 60.4 0 120.9 20.8-0.1 41.6 0 0 7.9 0 16-29.3 0-58.5 0 0-68.5 0-136.9zm217.9 0c17.4 0.2 36-1.8 51.8 6.9 20.3 10.9 21.6 45.4 0.8 56.5 8.5 1.7 16.1 7 20.8 14.3 11.1 16.2 7.2 41.9-10.8 51.6-9.3 5.4-20.2 7.4-30.8 7.3-10.6-0.1-21.2 0-31.8-0.1q0-68.2 0-136.5zm17 15.4q0 22.4 0 44.9c8.5-0.3 17.6 0.1 25.3-4.1 5.6-3.1 8.5-9.4 8.9-15.5 0.7-7.5-0.9-16.3-7.5-20.8-7.9-5.1-17.7-4.6-26.7-4.5zm0 58.4q0 23.7 0 47.4c11.7-0.3 24.5 1.5 35.1-4.7 12.9-7.1 14.1-28.3 1.7-36.3-10.9-7.1-24.5-6.3-36.8-6.4zm208.3-73.8q8.5 0 17 0 0 60.4 0 120.9 20.8-0.1 41.5 0 0 7.9 0 16-29.2 0-58.4 0 0-68.5-0.1-136.9zm285.7-0.3q36.7 0 73.3 0 0 8 0 16-28.2 0-56.3 0-0.1 19.2 0 38.4 27.3 0 54.7 0 0 7.8 0 15.7-27.4 0-54.7 0 0 25.5 0 51.1 28.1-0.1 56.3 0 0 7.9 0 16-36.6 0-73.3 0 0-68.6 0-137.2zm82.8 0q41.1 0 82.2 0 0 8 0 16-16.3 0-32.6 0 0 60.4 0 120.8-8.5 0.1-16.9 0 0-60.4 0-120.8c-10.9-0.1-21.8 0-32.7-0.1q0-8 0-15.9zm169.6 0.3q8.5-0.1 17 0 0 60.4 0 120.9 20.7-0.1 41.5 0 0 7.9 0 16-29.2 0-58.5 0 0-68.5 0-136.9zm69-0.3q36.6 0 73.3 0 0 8 0 16-28.2 0-56.4 0 0 19.2 0 38.4 27.4 0 54.8 0 0 7.8 0 15.7-27.4 0-54.8 0 0 25.5 0 51.1 28.2-0.1 56.4 0 0 7.9 0 16-36.7 0-73.3 0 0-68.6 0-137.2zm318.9 0q36.6 0 73.3 0 0 8 0 16-28.2 0-56.4 0 0 19.2 0 38.4 27.4 0 54.8 0 0 7.8 0 15.7-27.4 0-54.8 0 0 25.5 0 51.1 28.2-0.1 56.4 0 0 8 0 15.9-36.7 0.1-73.3 0 0-68.5 0-137.1z"/>
	</g>
	<g id="#041d2f80">
		<path id="Layer" class="s0" d="m1223.7 127.6c32.5-15.6 72.2-15.2 104.2 1.3 20.3 10.2 37.4 26.4 48.8 46 12.1 20.8 17.5 45.4 15.4 69.4-2.7 33.4-20.5 65.6-48 84.9 12-14 21.1-30.7 24.8-48.9 5.4-25.4 0.8-52.8-12.7-75-11.5-19.1-29.2-34.3-49.7-42.7-24-10-51.8-10.5-76.2-1.3-31.6 11.6-56.6 39.3-64.6 72-3.5 13.2-3.8 26.9-2.3 40.4-12.9-36.2-7.1-78.5 15.9-109.3 11.5-15.6 26.8-28.5 44.4-36.8z"/>
	</g>
</svg>