<svg version="1.2" xmlns="http://www.w3.org/2000/svg" viewBox="0 0 1366 1538" width="1366" height="1538">
	<title>gg_logo-svg</title>
	<style>
		.s0 { fill: #db5213 } 
		.s1 { fill: #aaa8a6 } 
		.s2 { fill: #90bc22 } 
		.s3 { fill: #f1c200 } 
	</style>
	<path id="Layer" class="s0" d="m754.7 223.6c-17.3-11-31.5-26.1-41.3-44-9.8-17.9-15-37.9-15-58.4 0-20.4 5.2-40.5 15-58.4 9.9-17.9 24.1-33 41.3-43.9 17.3-11 37-17.4 57.4-18.7 20.4-1.2 40.8 2.6 59.3 11.3 18.5 8.7 34.5 21.9 46.5 38.4 12 16.5 19.6 35.8 22.2 56.1 5.9 45.2 36.1 57.3 66.3 43.1l-0.2 0.4c16.6-8.1 35.4-10.8 53.7-7.7 18.3 3.1 35.1 11.7 48.2 24.8 13.2 13.1 21.9 29.9 25 48.2 3.1 18.2 0.5 37-7.5 53.7-8.1 16.7-21.1 30.4-37.3 39.4-16.2 8.9-34.8 12.6-53.3 10.5-18.4-2-35.7-9.8-49.5-22.1-13.8-12.4-23.4-28.7-27.5-46.8v0.3c-7.6-32.1-35.7-48.1-74.2-25.1-41.5 27.2-37.6 62-11 83.9h-0.6q5.3 4.3 9.8 9.4v-0.4c55.1 62.2 127.7 91.4 226.9 3.4 20.2-17.9 45.4-29.2 72.2-32.5 26.8-3.2 53.9 1.8 77.8 14.4 23.9 12.6 43.4 32.2 55.8 56.1 12.5 24 17.3 51.2 13.9 77.9-3.4 26.8-14.9 51.9-32.9 72-18.1 20-41.8 34.1-68.1 40.3-26.3 6.2-53.9 4.3-79-5.5-25.2-9.9-46.7-27.2-61.8-49.6-74.2-109.4-151.7-99.1-220.4-52.6-17.7 12.1-39.4 16.9-60.5 13.4-21.2-3.5-40.2-15.1-53-32.3-12.8-17.1-18.4-38.6-15.7-59.9 2.8-21.2 13.6-40.6 30.3-54h-0.6c26.9-22.1 30.6-57.5-12.3-84.8h0.1z"/>
	<ellipse id="Layer" class="s0" cx="1280.6" cy="699.3" rx="85" ry="84.9"/>
	<path id="Layer" class="s1" d="m611.2 1061.1h-0.4c13.2 16.2 20.1 36.6 19.5 57.5-0.7 20.9-8.8 40.8-23 56.1h0.4c-42.6 47.5-50.2 92.3 15.2 150.8h-0.2c18.4 16.3 31.3 37.9 37.2 61.8 5.8 23.9 4.2 49-4.5 72-8.8 23-24.3 42.7-44.6 56.7-20.3 13.9-44.3 21.4-68.9 21.4-24.6 0-48.7-7.5-68.9-21.4-20.3-14-35.8-33.7-44.6-56.7-8.8-23-10.3-48.1-4.5-72 5.9-23.9 18.8-45.5 37.2-61.8h-0.2c65.4-58.5 57.7-103.2 15.2-150.8h0.4c-14.2-15.3-22.3-35.2-23-56.1-0.6-20.9 6.3-41.3 19.5-57.5h-0.5"/>
	<path id="Layer" class="s2" d="m317.4 318.4c-16.8 0-33.3-4.7-47.5-13.7-14.2-8.9-25.5-21.7-32.8-36.9-7.2-15.1-10-32-8-48.7 2-16.6 8.7-32.4 19.3-45.4 10.6-13 24.6-22.8 40.6-28.2 15.9-5.3 33-6.1 49.3-2.1 16.3 3.9 31.2 12.4 42.9 24.5 11.6 12 19.7 27.1 23.1 43.6q0 0.1 0 0.1c13.9 65.9 45.3 89.5 101.6 82.9 15.5-18.7 13.2-48-20.3-65.4-24.1-12.6-43.3-32.9-54.5-57.6-11.2-24.8-13.8-52.5-7.3-78.9 6.4-26.4 21.6-49.8 43-66.6 21.4-16.8 47.7-25.9 74.9-25.9 27.2 0 53.6 9.1 75 25.9 21.4 16.8 36.5 40.2 43 66.6 6.4 26.4 3.9 54.1-7.3 78.9-11.2 24.7-30.4 45-54.5 57.6-39.8 20.7-36 57.6-10.5 74.5 11.4 7.4 20.7 17.6 27.2 29.5 6.5 11.9 10 25.2 10.2 38.7 0.2 13.6-3 27-9.2 39-6.2 12.1-15.3 22.4-26.4 30.2-11.1 7.7-24 12.6-37.5 14.2-13.5 1.7-27.1 0-39.8-4.9-12.6-4.9-23.9-12.8-32.8-23.1-8.9-10.2-15.2-22.5-18.2-35.7-15.8-68.1-50.6-92.4-123.5-75.5v-0.3c-6.7 1.6-13.4 2.5-20.3 2.5z"/>
	<path id="Layer" class="s1" d="m76.9 1159c-52-21.5-76.8-81.2-55.2-133.2 21.6-52 81.3-76.7 133.4-55.2 52 21.6 76.8 81.2 55.2 133.2-21.6 52.1-81.3 76.8-133.4 55.2z"/>
	<path id="Layer" class="s1" d="m381.5 1175.5c11.3 14.9 18.2 32.7 19.7 51.3 1.6 18.6-2.2 37.3-10.9 53.8-8.7 16.5-22 30.2-38.2 39.5-16.3 9.2-34.8 13.6-53.5 12.7-18.7-1-36.7-7.2-51.9-18.1-15.2-10.8-27-25.8-34-43.1-7-17.3-8.9-36.3-5.5-54.6 3.5-18.4 12.1-35.4 24.9-49 49.6-53 68.1-109.7-19.7-191.6h0.2c-19.5-17.9-34.3-40.3-42.9-65.4-8.7-25-11-51.7-6.7-77.8l-0.2 0.3c7.2-46.4-23.3-62.9-46.5-54.5l0.3-0.4c-17 6.5-35.7 7.3-53.2 2.5-17.5-4.8-33.1-15.1-44.4-29.4-11.3-14.3-17.7-31.7-18.4-49.9-0.7-18.2 4.4-36.1 14.6-51.1 10.2-15.1 24.9-26.6 42-32.7 17.1-6.2 35.8-6.7 53.2-1.6 17.5 5.1 32.8 15.7 43.9 30.1 11.1 14.4 17.2 32 17.6 50.2l0.2-0.3c0.9 24.6 27.6 46.6 68 22.6l-0.2 0.3c35.5-21.2 77.8-28 118.2-19 40.4 9 75.8 33.1 98.9 67.4 23.2 34.2 32.3 76.1 25.5 116.9-6.8 40.8-29 77.4-62 102.4h0.3c-95.7 72.6-83.1 130.8-39.1 188.7z"/>
	<path id="Layer" class="s2" d="m591.8 504.9c17.3 6.9 32.8 17.6 45.3 31.3 12.5 13.8 21.7 30.2 26.9 48 5.2 17.8 6.3 36.6 3.2 54.9-3.2 18.3-10.4 35.7-21.3 50.8-10.8 15.1-25 27.5-41.4 36.3-16.4 8.8-34.5 13.7-53.1 14.5-18.6 0.7-37.1-2.8-54.1-10.3-17-7.5-32.1-18.8-44.1-32.9h-0.7c-11.7-12.7-20.6-27.7-26-44-36.9-111.3-98.7-148-220.1-107.8-25 8.4-52 9.1-77.5 2-25.5-7-48.2-21.5-65.4-41.6-17.2-20.1-28-44.8-31-71.1-3-26.2 1.9-52.7 14-76.2 12.2-23.4 31.1-42.7 54.3-55.4 23.2-12.6 49.6-18.1 75.9-15.6 26.4 2.4 51.3 12.7 71.8 29.4 20.4 16.7 35.4 39.2 43 64.5 37 121.9 102.5 151.2 214 117.8h0.3l0.7-0.2c28.2-8.6 58.5-6.5 85.3 5.7z"/>
	<ellipse id="Layer" class="s1" cx="541.7" cy="1110.8" rx="89.3" ry="89.2"/>
	<path id="Layer" class="s1" d="m559.1 956.9c-39.8-16.4-58.7-62.1-42.2-101.8 16.5-39.8 62.2-58.7 102-42.2 39.8 16.4 58.7 62.1 42.2 101.8-16.5 39.8-62.1 58.7-102 42.2z"/>
	<path id="Layer" class="s0" d="m800.5 726.5c-62-25.7-91.5-96.7-65.8-158.6 25.7-62 96.8-91.4 158.8-65.7 62 25.6 91.4 96.6 65.7 158.6-25.7 62-96.7 91.4-158.7 65.7z"/>
	<path id="Layer" class="s3" d="m1252.4 927.3c21.2 4.7 40.8 15.1 56.6 29.9 15.9 14.9 27.4 33.8 33.5 54.6 6.1 20.9 6.4 43 1 64-5.4 21.1-16.4 40.3-31.7 55.6-15.4 15.4-34.6 26.4-55.7 31.8-21 5.4-43.2 5-64-1-20.9-6.1-39.8-17.6-54.7-33.5-14.9-15.8-25.2-35.4-30-56.6-8.4-37.4-21.5-51.1-72.7-52.2q-0.5-0.1-1.1 0h0.2c-97.3-2.7-121.7 37-125.5 88.7 12.4 47.6 52.1 67.2 102.5 40.3 14.1-7.7 29.8-11.7 45.8-11.9 16-0.1 31.8 3.6 46 11 14.2 7.3 26.4 18.1 35.5 31.2 9.1 13.1 14.8 28.3 16.7 44.2 1.9 15.8-0.2 31.9-5.9 46.8-5.8 14.9-15.2 28.2-27.3 38.7-12 10.4-26.5 17.8-42.1 21.4-15.6 3.5-31.8 3.3-47.3-0.9-52.4-13.9-94.9 12.8-91.5 79.9l-0.1-0.2c0.1 2.2 0.3 4.4 0.3 6.7 0 25.6-8.1 50.7-23.2 71.4-15.2 20.8-36.5 36.2-60.9 44.1-24.5 7.8-50.8 7.8-75.2-0.2-24.4-8.1-45.6-23.6-60.6-44.4-15-20.9-23-45.9-22.9-71.6 0.2-25.7 8.5-50.6 23.7-71.3 15.3-20.7 36.7-36 61.2-43.7 24.5-7.7 50.8-7.5 75.1 0.7 60.7 20.3 97.3-9.4 101.2-59-1-11.2-4.9-21.9-11.3-31-6.4-9.2-15.1-16.5-25.3-21.3-10.1-4.8-21.3-6.8-32.5-5.9-11.1 1-21.8 4.8-31 11.1l0.2-0.5c-11.2 5.8-23.6 9.1-36.3 9.8-12.6 0.6-25.3-1.6-37-6.3-11.8-4.7-22.4-11.9-31.1-21.1-8.8-9.1-15.4-20.1-19.5-32.1-4.1-12-5.6-24.7-4.3-37.3 1.2-12.6 5.2-24.8 11.6-35.7 6.4-10.9 15.1-20.4 25.5-27.6 10.4-7.3 22.2-12.3 34.6-14.5 55.5-10.8 96.5-38.8 76.8-140.4-3.4-16.6-4-33.7-1.8-50.5 2-21.3 8.2-42.1 18.2-61 10-19 23.7-35.8 40.2-49.4 16.5-13.7 35.6-23.9 56.1-30.2 20.6-6.2 42.1-8.3 63.5-6.2 21.3 2.1 42 8.4 60.9 18.6 18.9 10.1 35.6 23.9 49.1 40.6 13.5 16.6 23.6 35.8 29.7 56.3 6.1 20.6 8.1 42.1 5.8 63.4-0.4 7.1 0.7 14.2 3 20.8 2.4 6.7 6.1 12.8 10.9 18.1 4.7 5.2 10.5 9.5 16.9 12.5 6.4 3 13.4 4.8 20.4 5.1z"/>
</svg>