<svg version="1.2" baseProfile="tiny-ps" xmlns="http://www.w3.org/2000/svg" viewBox="0 0 1590 311" width="1590" height="311">
	<title>gohealth_brand_guidelines (1)-pdf-svg</title>
	<defs>
		<clipPath clipPathUnits="userSpaceOnUse" id="cp1">
			<path d="M-184.46 -2186.57L5084.73 -2186.57L5084.73 1225.02L-184.46 1225.02L-184.46 -2186.57Z" />
		</clipPath>
	</defs>
	<style>
		tspan { white-space:pre }
		.shp0 { fill: #ffffff } 
	</style>
	<g id="Clip-Path: Page 1" clip-path="url(#cp1)">
		<g id="Page 1">
			<path id="Path 1" fill-rule="evenodd" class="shp0" d="M242.97 303.8L210.08 303.8L210.08 272.96L209.22 272.96C188.69 298.89 155.8 310.82 131.13 310.82C47.23 310.82 0.78 255.26 0.78 182.41C0.78 59 81.75 3.05 158.25 3.05C227.34 3.05 280.38 35.14 280.81 103.84L229.41 103.84C227.34 63.91 199.79 45 156.62 45C86.7 45 52.18 115.35 52.18 180.78C52.18 235.48 81.37 268.82 132.77 268.82C183.35 268.82 210.9 235.1 221.96 188.19L141.38 188.19L149.6 149.12L275.86 149.12L242.97 303.8ZM282.4 216.57C282.4 146.62 330.49 85.32 403.67 85.32C462.09 85.32 496.62 117.41 496.62 176.69C496.62 251.16 450.98 309.57 375.3 309.57C316.93 309.57 282.4 275.85 282.4 216.57ZM329.28 217.82C329.28 249.1 344.05 272.53 378.19 272.53C426.32 272.53 449.74 220.28 449.74 177.07C449.74 145.8 434.93 122.37 400.83 122.37C352.7 122.37 329.28 175.44 329.28 217.82Z" />
			<path id="Path 2" class="shp0" d="M550.38 31L576.34 31L551.16 149.46L708.85 149.46L734.03 31L760.03 31L701.96 303.8L676 303.8L704.28 171.6L546.55 171.6L518.31 303.8L492.31 303.8L550.38 31Z" />
			<path id="Path 3" fill-rule="evenodd" class="shp0" d="M763.09 211.75C762.31 216.32 761.93 221.66 761.93 227C761.93 262.54 780.27 289.29 819.23 289.29C850.52 289.29 874.59 269.04 883.76 240.39L907.82 240.39C894.82 284.33 864.64 309.53 818.06 309.53C766.15 309.53 737.86 277.05 737.86 225.88C737.86 163.59 776.82 100.92 844.41 100.92C891.76 100.92 919.27 131.89 919.27 177.72C919.27 188.79 918.88 199.9 917.33 211.75L763.09 211.75ZM894.82 191.46C894.82 186.12 895.21 181.17 895.21 176.21C895.21 143.35 874.59 121.16 841.35 121.16C801.66 121.16 774.54 154.8 766.15 191.46L894.82 191.46Z" />
			<path id="Path 4" fill-rule="evenodd" class="shp0" d="M942.56 165.49C949.06 120.77 983.41 100.92 1025.82 100.92C1052.55 100.92 1094.18 110.09 1094.18 144.85C1094.18 163.98 1085.74 193.79 1081.95 211.32C1073.17 255.69 1068.95 265.98 1068.95 277.83C1068.95 284.68 1075.84 285.84 1081.57 285.84C1085.01 285.84 1087.68 285.45 1091.12 285.11L1087.68 304.19C1082.34 305.35 1074.29 306.09 1067.83 306.09C1054.44 306.09 1047.21 297.69 1046.83 284.68C1046.83 281.27 1047.21 277.44 1047.56 273.99L1046.83 273.22C1033.05 296.18 1005.93 309.53 978.46 309.53C942.56 309.53 915.44 293.51 915.44 254.91C915.44 213.26 948.67 199.9 983.8 193.79C1008.99 189.95 1031.16 191.85 1046.44 188.06C1062.06 184.22 1070.11 175.44 1070.11 149.46C1070.11 126.11 1046.83 121.16 1028.49 121.16C997.92 121.16 971.58 132.62 966.63 165.49L942.56 165.49ZM1061.68 198.35L1060.95 197.58C1053.28 207.14 1029.61 207.92 1017.42 208.65C988.02 210.97 939.5 212.48 939.5 253.75C939.5 278.99 960.51 289.29 983.41 289.29C1021.99 289.29 1046.44 265.98 1054.06 231.61L1061.68 198.35ZM1160.22 31L1184.28 31L1125.48 303.8L1101.45 303.8L1160.22 31ZM1181.22 106.64L1216.74 106.64L1229.35 47.03L1253.42 47.03L1240.8 106.64L1280.15 106.64L1276.32 126.89L1236.24 126.89L1209.12 253.36C1207.18 262.54 1206.45 265.98 1206.45 272.1C1206.45 278.99 1209.89 285.84 1219.02 285.84C1228.58 285.84 1237.75 285.11 1247.3 283.56L1243.09 304.58C1235.08 305.35 1226.68 306.09 1218.68 306.09C1200.73 306.09 1182.39 301.52 1182.39 277.83C1182.39 273.65 1183.16 266.37 1185.06 257.58L1212.18 126.89L1176.66 126.89L1181.22 106.64ZM1317.17 31L1341.24 31L1317.17 142.57L1317.95 142.57C1331.68 119.27 1357.68 100.92 1387.08 100.92C1421.44 100.92 1446.62 116.21 1446.62 154.03C1446.62 160.14 1445.5 168.16 1443.56 177.33L1416.44 303.8L1392.42 303.8L1419.89 176.56C1421.44 170.44 1422.56 163.2 1422.56 156.7C1422.56 130.72 1402.71 121.16 1381.32 121.16C1346.62 121.16 1314.89 152.52 1304.22 202.57L1282.43 303.8L1258.37 303.8L1317.17 31Z" />
			<path id="Path 5" class="shp0" d="M1589.03 0.76C1589.03 0.76 1599.01 116.9 1492.94 138.22C1492.94 138.22 1432.97 70.33 1589.03 0.76ZM1588.12 131.93C1588.12 131.93 1556.91 188.19 1501.77 165.23C1501.77 165.23 1495.22 115.65 1588.12 131.93Z" />
		</g>
	</g>
</svg>