<svg version="1.2" xmlns="http://www.w3.org/2000/svg" viewBox="0 0 1800 74" width="1800" height="74">
	<title>logo (33)-svg</title>
	<style>
		.s0 { fill: #ffffff } 
	</style>
	<path id="Layer" class="s0" d="m276.3 39.4l-131.3 33.5h-0.3l-144.7-35.5v-2.7l131.5-33.6l19.3 4.7v2.7l-109 27.8l101.3 25.1l91.1-23.1l-59.2-14.6c-9.9 2.4-34.7 8.8-49.8 12.6l-3.6 0.8l17.4 4.2l36.6-9.1l19.2 4.7v2.7l-53.9 13.8l-61.1-15.1v-2.8l93.6-23.9h0.2l102.7 25.3z" />
	<g id="Layer">
		<path id="Layer" fill-rule="evenodd" class="s0" d="m388.8 43.5h0.3v4.1h-0.3c-3.5 0.6-4.1 1.1-4.1 3.3v16.8h-0.3c-11 4.1-20.9 6.1-30.8 6.1c-25.8 0-41.8-14.4-41.8-37.8c0-24.4 21.2-35.4 42.4-35.4c8.2 0 18.1 0.5 28.9 4.6l0.8 1.4c-0.8 3.3-1.7 9.9-2.2 14.3l-0.3 1.4h-4.7l-0.5-9.1c-3.9-4.1-12.4-6.9-21.8-6.9c-16.2 0-26.4 10.8-26.4 27.8c0 24.2 14.9 32.8 27.8 32.8c4.1 0 8.3-0.9 13-2.5v-13.2c0-2.5-2.2-3.3-5.8-3.3l-5.8-0.3v-4.9c1.9 0 3.8 0 5.5 0c3.3 0.2 6.9 0.2 10.2 0.2c3.6 0 6.9-0.2 10.2-0.2c1.6 0 3.5 0 5.7 0.8zm62 9.3h4.6l-1.1 17.4l-0.5 1.1h-0.3c-4.1 0.5-10.4 0.5-16 0.5h-14.3c-2.7-0.3-5.7-0.3-8.5-0.3c-3.3 0-6 0.3-9.1 0.3h-3.8v-3l3.6-1.9c1.3-0.9 1.9-2.2 1.9-5.5v-45.7c0-4.1-0.3-6.9-0.8-8c-0.6-0.8-1.7-1.1-4.2-1.4l-4.1-0.2v-4.7c0.8 0 2.2 0 3.3 0c3.6 0.3 8.3 0.3 13.2 0.3c5 0 9.4-0.3 13.2-0.3c1.1 0 2.5 0 3.3 0v4.7l-4.1 0.2c-2.5 0.3-3.9 0.6-4.1 1.4c-0.9 1.1-0.9 3.6-0.9 8v49.2c4.4 0.3 8.8 0.3 13.2 0.3c5 0 11.9-1.1 12.4-1.6zm84.2 13.5l2.8 0.2v4.4h-0.3c-3.3-0.2-6-0.2-8.5-0.2h-15.7c-2.5 0.2-5.2 0.2-8.3 0.2h-0.2v-4.4l5.7-0.2c0.6 0 1.1-0.3 1.4-0.9c0.6-1.1 0.6-2.7-0.3-4.4l-4.6-11.3h-25.9l-4.4 11.3c-0.8 2.2-0.6 3.3 0 4.2c0.5 0.8 1.4 1.3 2.2 1.3l5.5 0.3v4.4h-0.3c-2.2-0.3-4.1-0.3-6-0.3h-11.6c-1.9 0.3-3.8 0.3-6 0.3h-0.3v-4.4l3.6-0.3c1.9 0 3.8-2.2 5.5-5.8l19-44.5l2.7-6.9l1.7-4.1l1.6-4.4h8v0.2l27.2 61.7c0.9 2.5 2.2 3.8 5.5 3.6zm-41.2-46.8l-9.9 24.5h20.3zm128.5 14.3c0 10.2-3.5 19-10.4 25.8c-8 7.7-19.8 12.1-32.5 12.1h-6.3c-3.3-0.2-6.6-0.2-10.2-0.2c-3.6 0-6.6 0.2-10.2 0.2h-6.3v-3l3.6-1.9c1.3-0.8 1.9-2.2 1.9-5.5v-45.7c0-4.1-0.3-6.9-0.8-8c-0.6-0.8-1.4-1.3-4.2-1.6l-4.1-0.3v-4.4h0.3c3 0.3 5.8 0.3 8.2 0.3c3.1 0 5.8 0 8 0q5 0 11.6 0c5.2-0.3 10.4-0.3 15.4-0.3c24.2 0 36 10.5 36 32.5zm-49.2-26.4c-2.2 0-4.2 0-6.1 0.2v57.3c3 0.5 6.1 0.5 8.8 0.5c20.4 0 30-9.6 30-30c0-20.3-9.1-28.3-32.7-28zm112.2 41.2c0 8-3.3 14.6-9.6 19c-5.2 3.6-12.9 5.8-21.5 5.8c-7.7 0-15.4-1.7-22-4.7h-0.2v-0.3c1.1-5.2 1.6-10.7 1.6-17.6v-0.2h5l0.8 9c2.7 4.7 10.7 7.7 16.2 7.7c8.3 0 16.3-4.1 16.3-13.2c0-4.4-3.1-7.4-8.6-9l-14.6-4.4c-9.9-2.8-15.6-9.4-15.6-17.7c0-14.5 10.1-22.8 28-22.8c6.6 0 13.8 1.4 19.6 3.6l0.5 1.4c-0.8 2.7-1.4 8.2-1.4 14.3v0.2h-4.9l-0.6-8.5c-2.7-3.3-8.5-5.5-13.4-5.5c-8.6 0-14.1 4.7-14.1 12.1c0 4.7 3.3 7.7 10.8 9.6l11.8 3.1c10.4 2.4 16.2 8.8 15.9 18.1zm73.5-46.5v0.3c-0.8 5.2-1.1 9.9-1.4 16.2v0.3h-4.9l-0.6-7.4c0-1.1-0.5-1.9-0.8-2.2c-0.8-0.8-3.8-0.8-6.3-0.8h-11.8v48.9c0 4.2 0.2 6.9 0.8 8c0.5 0.8 1.6 1.1 4.1 1.4l4.1 0.3v4.6h-3.5c-3.9-0.2-8.6-0.2-13.3-0.2c-4.9 0-9.3 0.2-13.2 0.2h-3.3v-4.6l4.2-0.3c2.4-0.3 3.8-0.6 4.1-1.4c0.8-1.1 0.8-3.6 0.8-8v-48.9h-11.8c-2.5 0-5.8 0-6.3 0.8c-0.3 0.3-0.9 1.1-0.9 2.2l-0.5 7.4h-5v-0.3c-0.2-6.3-0.5-11.2-1.3-16.2v-0.3l0.8-0.8c3.8 0 7.7 0 11.3 0c7.1 0.3 14.5 0.3 21.4 0.3c7.2 0 14.3-0.3 21.5-0.3c3.6 0 7.1 0 11 0zm84.2 33.8c0 23.2-15.1 37.2-40.2 37.2c-24.2 0-38-13.2-38-36.1c0-23.1 15.2-37.1 40.2-37.1c24.2 0 38 13.2 38 36zm-38.3-29.9c-15.9 0-23.6 9.6-23.6 29.1c0 23.1 11.8 31.4 21.7 31.4c16 0 23.7-9.4 23.7-28.9c0-15.4-6.6-31.4-21.8-31.6zm126.6-4.7h0.3v4.4l-4.1 0.3c-3 0.2-3.9 0.8-4.1 1.6c-0.9 1.1-0.9 3.6-0.9 8v46.2c0 2.8 0.3 5.2 0.3 7.7c0 1.1 0 2.2 0 3l-1.1 0.6l-8.8-1.4l-0.8-0.8c-4.2-4.4-8.3-9.1-12.1-13.5l-33.9-39.3v39.3c0 4.1 0.3 6.9 0.8 8c0.6 0.8 1.4 1.4 4.2 1.6l4.1 0.3v4.4h-4.4c-2.8-0.3-5.2-0.3-8-0.3c-2.5 0-5.2 0.3-8 0.3h-4.4v-4.4l4.2-0.3c3-0.2 3.8-0.8 4.1-1.6c0.8-1.1 0.8-3.6 0.8-8v-41.5c0-4.2-0.3-6.9-0.8-8c-0.6-0.8-1.4-1.4-4.1-1.7l-4.2-0.2v-4.5c1.4 0 3.1 0 4.4 0c2.8 0.3 5.8 0.3 8.6 0.3c1.9 0 3.8-0.3 5.7-0.3q1.7 0 3.3 0c1.4 1.4 2.5 3.1 3.6 4.5c2.5 3 5 6.3 7.5 9l32.4 36.6v-35.7c0-4.2-0.2-6.9-0.8-8c-0.5-0.8-1.4-1.4-4.1-1.7l-4.2-0.2v-4.5c1.1 0 2.8 0 4.2 0c2.5 0.3 5.2 0.3 8 0.3c2.7 0 5.2-0.3 7.9-0.3c1.4-0.2 2.8-0.2 4.4-0.2zm60 52.5h4.7l-1.1 16.5l-0.5 0.9h-0.3c-4.2 0.5-10.5 0.5-16 0.5h-14.3c-2.7-0.3-5.8-0.3-8.5-0.3c-3.3 0-6.1 0.3-9.1 0.3h-3.9v-3l3.6-1.9c1.4-0.9 1.9-2.2 1.9-5.5v-45.7c0-4.1-0.2-6.9-0.8-8c-0.5-0.8-1.4-1.4-4.1-1.6l-4.1-0.3v-4.4h0.2c3.1 0.2 5.8 0.2 8.3 0.2c3 0 5.8 0 8 0c7.7 0 13.5-0.2 18.7-0.2c1.6 0 3 0 4.4 0c6.3 0 10.7 0 15.4 0.2l0.8 0.9v0.2l-1.3 14.9h-4.5l-0.8-8c-0.3-0.8-4.4-1.6-11.8-1.6c-4.4 0-8.8 0-13.2 0.3v24.4c2.2 0.3 4.4 0.3 6.6 0.3h6.9c3.5 0 5.2-0.3 5.5-1.9l0.5-6.1h4.4c0 1.1 0 2.8 0 3.9c-0.3 2.2-0.3 4.7-0.3 7.1c0 2.5 0.3 5 0.3 7.5c0 1.1 0 2.7 0 3.8h-4.9l-0.6-5.5c-0.3-2.5-1.6-3.6-5.5-3.6h-6.9c-2.2 0-4.4 0-6.6 0.3v26.4c4.4 0.3 8.8 0.3 13.2 0.3c5 0 11.9-1.1 12.4-1.6zm111.5-47.4c-0.8 3.3-1.7 9.9-2.2 14.3l-0.3 1.4h-4.7l-0.5-9.1c-4.4-4.6-10.5-6.8-18.5-6.8c-16.2 0-26.4 10.7-26.4 27.8c0 19.2 11.9 31.6 30.6 31.6c6.3 0 14.6-2.2 19.8-5.2h0.3l1.6 1.6l-2.5 5.3c-6.3 3.8-14.3 5.7-24.2 5.7c-25.9 0-41.8-14.3-41.8-37.7c0-24.5 21.2-35.5 42.4-35.5c8.8 0 15.9 0.6 25.8 4.7zm85.3 29.5c0 23.1-15.1 37.1-40.1 37.1c-24.3 0-38-13.2-38-36c0-23.2 15.1-37.2 40.2-37.2c24.2 0 37.9 13.2 37.9 36.1zm-37.9-30c-16 0-23.7 9.6-23.7 29.1c0 23.1 11.8 31.4 21.7 31.4c16 0 23.7-9.4 23.7-28.9c0-15.4-6.9-31.4-21.7-31.6zm143.9-4.7h0.3v4.4l-4.2 0.3c-3 0.2-3.8 0.8-4.1 1.6c-0.8 1.1-0.8 3.6-0.8 8v41.8c0 4.1 0.3 6.9 0.8 8c0.6 0.8 1.7 1.1 4.1 1.4l4.2 0.2v4.7h-3.6c-3.9-0.2-8.5-0.2-13.2-0.2c-5 0-9.4 0.2-13.2 0.2h-3.3v-4.7l4.1-0.2c2.5-0.3 3.8-0.6 4.1-1.4c0.8-1.1 0.8-3.6 0.8-8v-41l-21.1 42.4c-2.8 5.5-5 10.2-6.4 13.5v0.3h-4.1v-0.3c-0.8-2.5-2.2-5-3.3-7.5l-0.6-1.1l-23.3-47.6v41.3c0 4.1 0.2 6.9 0.8 8c0.5 0.8 1.4 1.4 4.1 1.6l4.1 0.3v4.4h-4.4c-2.7-0.2-5.2-0.2-7.9-0.2c-2.5 0-5.3 0.2-8 0.2h-4.4v-4.4l4.1-0.3c3-0.2 3.8-0.8 4.1-1.6c0.8-1.1 0.8-3.6 0.8-8v-41.5c0-4.2-0.2-6.9-0.8-8c-0.5-0.8-1.4-1.4-4.1-1.7l-4.1-0.2v-4.4c1.3 0 3 0 4.4 0c2.7 0.2 5.7 0.2 8.5 0.2c3 0 5.8-0.2 8.5-0.2c1.4 0 3.1 0 4.4 0v0.2c1.4 2.8 3.6 7.5 5.5 11.6c0.9 1.6 1.7 3.3 2.2 4.7l16.3 33l19-38c1.3-2.7 2.7-5.5 3.8-8.2c0.6-1.1 0.8-2.2 1.4-3.3v-0.3h0.3c2.2 0.3 4.1 0.3 6 0.3q3.3 0 5.8 0c1.9 0 3.9 0 6.1 0c1.9 0 3.8-0.3 6.3-0.3zm104.6 0h0.2v4.4l-4.1 0.3c-3 0.2-3.6 0.8-4.1 1.6c-0.8 1.1-0.8 3.6-0.8 8v41.8c0 4.1 0.2 6.9 0.8 8c0.5 0.8 1.6 1.1 4.1 1.4l4.1 0.2v4.7h-3.5c-3.9-0.2-8.6-0.2-13.3-0.2c-4.9 0-9.3 0.2-13.2 0.2h-3.3v-4.7l4.2-0.2c2.4-0.3 3.8-0.6 4.1-1.4c0.8-1.1 0.8-3.6 0.8-8v-41l-21.2 42.1c-2.7 5.5-4.9 10.2-6.3 13.5v0.3h-4.1v-0.3c-0.9-2.5-2.2-5-3.3-7.4l-0.6-1.1l-23.4-47.4v41c0 4.2 0.3 6.9 0.9 8c0.5 0.8 1.3 1.4 4.1 1.7l4.1 0.2v4.5h-4.4c-2.7-0.3-5.2-0.3-8-0.3c-2.5 0-5.2 0.3-8 0.3h-4.4v-4.5l4.2-0.2c3-0.3 3.8-0.9 4.1-1.7c0.8-1.1 0.8-3.6 0.8-8v-41.5c0-4.1-0.3-6.9-0.8-8c-0.6-0.8-1.4-1.4-4.1-1.6l-4.2-0.3v-4.4c1.4 0 3.1 0 4.4 0c2.8 0.3 5.8 0.3 8.6 0.3c3 0 5.8-0.3 8.5-0.3c1.4 0 3 0 4.4 0v0.3c1.4 3 3.6 7.4 5.5 11.5q1.7 2.9 2.5 5l16.2 33l19-38c1.4-2.7 2.8-5.5 3.9-8.2c0.5-1.1 0.8-2.2 1.3-3.3v-0.3h0.3c2.2 0.3 4.1 0.3 6.1 0.3q3.3 0 5.7 0c2 0 3.9 0 6.1 0c1.7 0 3.9-0.3 6.1-0.3zm59.4 52.5h4.7v0.3l-1.1 16.3l-0.6 0.8h-0.2c-4.2 0.5-10.5 0.5-16 0.5h-14.3c-2.8-0.2-5.8-0.2-8.6-0.2c-3.3 0-6 0.2-9 0.2h-3.9v-3l3.9-1.9c1.3-0.9 1.9-2.2 1.9-5.5v-45.7c0-4.1-0.3-6.9-0.8-8c-0.6-0.8-1.4-1.4-4.2-1.6l-4.1-0.3v-4.4h0.3c3 0.3 5.8 0.3 8.2 0.3c3.1 0 5.8 0 8 0c7.7 0 13.5-0.3 18.7-0.3c1.7 0 3.1 0 4.4 0c6.4 0 10.8 0 15.5 0.3l0.8 0.8v0.3l-1.4 14.8h-4.4l-0.8-8c-0.3-0.8-4.4-1.6-11.9-1.6c-4.4 0-8.8 0-13.2 0.3v24.5c2.2 0.2 4.4 0.2 6.6 0.2h6.9c3.6 0 5.2-0.2 5.5-1.9l0.6-6.1h4.9c0 1.1 0 2.8 0 3.9c-0.3 2.2-0.3 4.7-0.3 7.2c0 2.4 0.3 4.9 0.3 7.4c0 1.1 0 2.7 0 3.8h-4.9l-0.6-5.5c-0.3-2.4-1.6-3.5-5.5-3.5h-6.9c-2.2 0-4.4 0-6.6 0.2v26.4c4.4 0.3 8.8 0.3 13.2 0.3c5 0 11.9-1.1 12.4-1.6zm82 13.2h0.3v4.7h-3.6c-2.2-0.3-4.6-0.3-6.8-0.3c-2.2 0-4.5 0.3-6.4 0.3h-3.6v-0.3l-23.6-35.5l0.8-2.2h0.3c4.9 0.5 9.1-0.8 12.1-3.6c3-2.7 4.4-6.3 4.4-10.7c0-7.7-5.2-12.4-13.8-12.4c-2.2 0-4.6 0-6.3 0.8v49.3c0 4.1 0.3 6.9 0.8 8c0.6 0.8 1.7 1.1 4.2 1.3l4.1 0.3v4.7h-3.6c-3.8-0.3-8.5-0.3-13.2-0.3c-5 0-9.4 0.3-13.2 0.3h-3.3v-4.7l4.1-0.3c2.5-0.2 3.9-0.5 4.1-1.3c0.9-1.1 0.9-3.6 0.9-8v-41.6c0-4.1-0.3-6.9-0.9-8c-0.5-0.8-1.3-1.3-4.1-1.6l-4.1-0.3v-4.4h0.3c2.7 0.3 5.2 0.3 7.7 0.3c3.5 0.3 6.6 0.3 9.9 0.3c4.7 0 9.3-0.3 14-0.3c2.5 0 4.7 0 7.2 0c7.9 0 13.4 1.6 17 4.9c2.5 2.5 3.9 6.1 3.9 10.5c0 8-5.5 14.6-15.4 18.2l18.7 27.5c0.8 0.8 1.6 1.9 3 3c0.8 0.6 1.9 0.8 4.1 1.4zm74.1-60.8v0.2c-0.9 3.3-1.7 9.9-2.2 14.3l-0.3 1.4h-4.7l-0.5-9.1c-4.5-4.6-10.5-6.8-18.5-6.8c-16.2 0-26.4 10.7-26.4 27.8c0 19.2 11.8 31.6 30.5 31.6c6.4 0 14.6-2.2 19.9-5.2h0.2l1.7 1.6l-2.5 5.3c-6.3 3.8-14.3 5.7-24.2 5.7c-25.9 0-41.8-14.3-41.8-37.7c0-24.5 21.2-35.5 42.3-35.5c8.8 0 16 0.6 25.9 4.7zm39.9-4.9v4.6l-4.1 0.3c-2.5 0.3-3.9 0.6-4.1 1.4c-0.9 1.1-0.9 3.6-0.9 8v41.5c0 4.2 0.3 6.9 0.9 8c0.5 0.8 1.6 1.1 4.1 1.4l4.1 0.3v4.6h-3.6c-3.8-0.2-8.5-0.2-13.2-0.2c-4.9 0-9.3 0.2-13.2 0.2h-3.3v-4.6l4.1-0.3c2.5-0.3 3.9-0.6 4.2-1.4c0.8-1.1 0.8-3.6 0.8-8v-41.5c0-4.2-0.3-6.9-0.8-8c-0.6-0.8-1.7-1.1-4.2-1.4l-4.1-0.3v-4.6c0.8 0 2.2 0 3.3 0c3.6 0.2 8.3 0.2 13.2 0.2c5 0 9.4-0.2 13.2-0.2c1.1 0 2.2 0 3.6 0zm80.4 64.9l2.7 0.3v4.4h-0.3c-3.3-0.3-6-0.3-8.5-0.3h-15.7c-2.4 0.3-5.2 0.3-8.2 0.3h-0.3v-4.4l5.8-0.3c0.5 0 1.1-0.3 1.4-0.8c0.5-1.1 0.5-2.8-0.3-4.4l-4.7-11.3h-25.9l-4.4 11.3c-0.8 2.2-0.5 3.3 0 4.1c0.6 0.8 1.4 1.4 2.2 1.4l5.5 0.3v4.4h-0.2c-2.2-0.3-4.2-0.3-6.1-0.3h-11.6c-1.9 0.3-3.8 0.3-6 0.3h-0.3v-4.4l3.6-0.3c1.9 0 3.8-2.2 5.5-5.8l19-44.6l2.7-6.9l1.7-4.1l1.6-4.4h8v0.3l27.3 61.6c0.8 2.5 2.2 3.9 5.5 3.6zm-41.3-46.8l-9.9 24.5h20.3zm107.1 33.6l-1.1 17.3l-0.6 0.8h-0.2c-4.2 0.6-10.5 0.6-16 0.6h-14.3c-2.8-0.3-5.8-0.3-8.5-0.3c-3.3 0-6.1 0.3-9.1 0.3h-3.9v-3l3.6-2c1.4-0.8 1.9-2.2 1.9-5.5v-45.6c0-4.2-0.2-6.9-0.8-8c-0.5-0.8-1.6-1.1-4.1-1.4l-4.1-0.3v-4.6c0.8 0 2.2 0 3.3 0c3.5 0.2 8.2 0.2 13.2 0.2c4.9 0 9.3-0.2 13.2-0.2c1.1 0 2.4 0 3.3 0v4.6l-4.2 0.3c-2.4 0.3-3.8 0.6-4.1 1.4c-0.8 1.1-0.8 3.6-0.8 8v49.2c4.4 0.3 8.8 0.3 13.2 0.3c5 0 11.8-1.1 12.4-1.7l2.5-10.4z" />
	</g>
</svg>