<svg version="1.2" xmlns="http://www.w3.org/2000/svg" viewBox="0 0 1583 384" width="1583" height="384">
	<title>cropped-GreenPower-Motor-Logo-svg</title>
	<style>
		.s0 { fill: #169347 } 
		.s1 { fill: #424242 } 
		.s2 { fill: #91c850 } 
	</style>
	<g id="#169347ff">
		<path id="Layer" class="s0" d="m468.1 0h21c4.8 32.7 3.6 66.1-1.9 98.6c-4.9 25.7-14.1 51.6-32.6 70.8c-27.9 29.5-66.3 46.4-104.7 57.5c-0.6-13.6-1-27.3-1-40.9c33.8-3.9 68.2-19.4 87-48.8c19.9-29.9 22.5-66.9 23.2-101.7c-32.6-1.3-64.9 9.8-91.8 27.8c-12.9 9.3-25.3 21-29.9 36.7c-10.1 31.4-12.9 64.8-10.3 97.6c4.7 52.6 18.4 104.4 40 152.6c-10.4 11.2-20.5 22.7-31 33.8h-0.3c-17.2-47.3-28.2-96.7-36-146.3c-5.2-37.9-9-76.5-3.9-114.6c3.5-25.6 10.7-53.3 31.3-70.6c40.2-31.3 90.2-49 140.9-52.5z" />
	</g>
	<g id="#424242ff">
		<path id="Layer" class="s1" d="m573.2 119.9c25.8-25.8 71.6-25.8 99.7-3.8c-6.6 7.2-13.3 14.3-19.5 21.8c-16.4-17.6-49.8-16.2-62.7 4.9c-11 18.2-7.6 46.2 11.6 57.7c14 8.4 31.9 6.2 46.3-0.4c0-6.7 0.1-13.5 0.1-20.3c-7.5 0-14.9 0-22.4 0q0-12.8 0-25.6q24.4 0 48.8 0c0.1 21.8-0.1 43.5 0.1 65.2c-21.4 10.7-46.6 15-70.2 10c-22.6-4.4-41.8-22.5-46.9-45.1c-5.3-22.1-1.2-47.7 15.1-64.4z" />
		<path id="Layer" fill-rule="evenodd" class="s1" d="m1072.1 104.3c16.9-0.5 33.7-0.2 50.6-0.2c13.1-0.2 27.6 3.2 35.9 14.1c7.2 8.8 7.1 20.9 6.1 31.5c-0.8 12.6-10.6 23.5-22.5 26.9c-13.8 4.6-28.5 2.9-42.8 3.3c0.5 16 0.1 32 0.4 48q-13.9 0.1-27.7-0.1c0.4-41.2 0.2-82.4 0-123.5zm27.4 22.9c0.2 9.7 0.2 19.3-0.1 29c10-0.5 20.8 2.1 30.2-2.3c7.5-3 8.9-12.7 5.7-19.4c-8.6-10.8-23.9-6.4-35.8-7.3z" />
		<path id="Layer" class="s1" d="m733.1 143.8c6.7-3.9 14.8-3.1 22.3-2.9c0.1 8.1 0.1 16.3 0.2 24.4c-7.9-1.2-16.4-2.6-23.9 1c-7.3 3.9-9.7 12.8-9.8 20.5c-0.3 13.7-0.1 27.3 0.2 41c-8.9 0.1-17.8 0.1-26.7 0.1q0.1-42.6 0-85.3c8.9 0 17.8 0 26.8 0.1c-0.4 4.6-0.5 9.2-0.8 13.7c3.6-4.4 6.9-9.3 11.7-12.6z" />
		<path id="Layer" fill-rule="evenodd" class="s1" d="m766.2 163.8c12.3-23.5 47.6-31.1 68.1-14.3c13 10.9 14.4 28.7 14.2 44.4c-20.7 0.2-41.4-0.1-62.1 0.2c3.7 6.6 8.1 14.9 16.7 15.4c9.1 2.1 17.6-2.8 23-9.8q9.3 6.9 18.7 13.7c-17 20.7-51.1 22.4-70.4 4.1c-14.4-13.4-17.1-36.6-8.2-53.7zm20.1 11.5c12.2 0.6 24.3 0.4 36.6 0.2c-1.5-9.6-10-18-20.2-15.5c-8.7 0.3-13.5 8.2-16.4 15.3z" />
		<path id="Layer" fill-rule="evenodd" class="s1" d="m880.1 148.9c17-11.3 43.7-12.4 58.1 3.9c9.9 11.1 11.3 26.7 11.2 41c-20.8 0.4-41.5-0.1-62.2 0.4c3.2 7.1 8.3 14.8 17 15.4c9.1 2.1 16.9-3.7 22.9-9.7c6 4.7 12.2 9.2 18.4 13.6c-17.9 21.2-54.2 22.6-72.8 1.8c-17.5-18.7-14.1-52.2 7.4-66.4zm7.1 26.4c12 0.6 24 0.5 36 0.1c-1.3-7.2-5.7-14.8-13.7-15.4c-10.4-2.3-20 5.4-22.3 15.3z" />
		<path id="Layer" class="s1" d="m989.8 153.6c8-10.5 21.5-15.5 34.4-12.2c13.2 1.3 21.1 14.4 22 26.7c1.9 19.8 0.1 39.8 1 59.7q-13.6 0.2-27.1 0.1q0.2-22 0.1-44.1c-0.2-6.1 0.1-13.6-5.4-17.7c-8.4-5.5-21.7-0.7-23 9.8c-1.3 17.2-0.5 34.6-0.3 51.9c-9 0.1-18 0.1-27 0.1q0.2-42.6 0-85.3q12.9-0.1 25.9 0.1c-0.1 2.7-0.4 8.2-0.6 10.9z" />
		<path id="Layer" fill-rule="evenodd" class="s1" d="m1198.4 143.1c17.1-5.1 37.7-2.8 51.1 9.9c17 15.5 18 45 2.6 62c-20.7 23.3-65.4 19.7-79.2-9.3c-12.3-23.1 0-55.3 25.5-62.6zm5.3 23.7c-15.6 9.9-10.4 39.9 9.7 40.1c16.7 2.8 28.5-16.6 21.5-30.8c-4.3-12.6-20.7-15-31.2-9.3z" />
		<path id="Layer" class="s1" d="m1265.5 142.6q14.2 0 28.4 0c6.5 17.8 11.3 36.2 18 54c4.5-18 9.4-36 14.4-53.9c9.5-0.1 19-0.1 28.5-0.1c5.6 16.7 10.1 33.7 14.9 50.6c0.6 0.5 1.9 1.4 2.6 1.9c3.8-17.8 9.5-35.2 15.1-52.6c8.8 0.1 17.8 0.1 26.7 0c-10.6 28.4-20.3 57-30.6 85.5q-13.1-0.1-26.2-0.1c-6.1-18.8-11.3-38-18.1-56.5c-4.6 18.9-10.4 37.6-15.3 56.6c-9-0.1-18.1-0.1-27.1-0.2c-10.1-28.5-20.3-57-31.3-85.2z" />
		<path id="Layer" fill-rule="evenodd" class="s1" d="m1437.4 149.3c16.9-11.6 43.6-12.9 58.3 3c10.2 11.2 11.5 27.2 11.5 41.6c-20.7 0.2-41.4-0.1-62 0.2c3 7 8 14.8 16.5 15.5c9.2 2.1 17.3-3.3 23.1-9.8c6.1 4.7 12.3 9.2 18.6 13.7c-18 21.4-54.6 22.5-73.2 1.4c-16.9-18.5-13.8-51.4 7.2-65.6zm7.6 26c12 0.5 24.1 0.4 36.1 0.3c-1.1-7.5-6.1-15.4-14.4-15.7c-10.4-2-19.3 5.8-21.7 15.4z" />
		<path id="Layer" class="s1" d="m1522.5 142.6c9 0 18 0 27.1 0.1q-0.6 6.8-1.2 13.5c3.9-4.6 7.5-9.9 12.9-13.1c6.7-3.2 14.3-2.4 21.6-2.1c0 8.1 0 16.3 0.1 24.5c-11.1-2.6-27.1-3.2-31.9 9.5c-3.6 17.3-1.5 35.3-1.8 52.8q-13.5 0.2-26.9 0.1c0.1-28.4-0.1-56.9 0.1-85.3z" />
		<path id="Layer" class="s1" d="m563.5 251.6q6.9-0.1 13.9-0.2c9.2 20.4 17.8 41 26.8 61.5c9.1-20.3 18-40.8 26.6-61.3c4.6 0 9.3-0.1 13.9 0c-0.3 26.1-0.3 52.3 0 78.5q-4.8-0.2-9.6-0.1c0.2-22 0.4-44 0.1-66c-9.4 21.9-18.7 43.9-28 65.9c-1.4 0.1-4.3 0.3-5.7 0.5c-10-21.8-18.3-44.4-28.8-65.9c0.3 21.8-0.1 43.7 0.4 65.5c-3.2-0.1-6.4-0.1-9.6 0.1c0.2-26.2 0.3-52.3 0-78.5z" />
		<path id="Layer" fill-rule="evenodd" class="s1" d="m688.7 251.8c13.7-3.9 30-2.1 40.8 7.9c18.5 15.8 18.2 48.5-1.2 63.6c-18.9 15.7-52.2 10-62.6-13c-11.6-21.2-0.7-51.5 23-58.5zm3 8.7c-20.9 7-27 36.4-12.6 52.4c10.5 12.9 32.2 14 43.9 2.2c11.1-10.2 12.8-28.1 5.7-41c-6.8-13.1-23.4-18.5-37-13.6z" />
		<path id="Layer" class="s1" d="m751.2 251.5c20.4 0 40.8 0 61.2 0q0 4.6 0 9.1c-8.6 0.1-17.3 0.1-25.9 0.1c0.5 23.1 0.2 46.2 0.3 69.3q-4.8 0-9.5 0.1c0.2-23.1-0.1-46.3 0.1-69.4q-13.1 0-26.2 0q0-4.6 0-9.2z" />
		<path id="Layer" fill-rule="evenodd" class="s1" d="m848.6 251.6c13.8-3.7 30-1.7 40.7 8.4c16.9 15.1 17.8 44.2 1.7 60.2c-17.1 18-50.6 15.3-63.8-5.9c-14.6-21.5-4.5-55.7 21.4-62.7zm3.2 8.6c-21.8 6.3-27.8 37.2-12.9 53.2c11.1 13.1 33.9 13.2 45.1 0.1c11.3-12.4 11.1-32.9-0.2-45.3c-7.8-8.8-20.9-11.3-32-8z" />
		<path id="Layer" fill-rule="evenodd" class="s1" d="m919 251.5c13.9 0.6 28.7-2.1 41.7 3.9c9.8 4.9 11.7 18.1 7.6 27.3c-3 7-10.8 9.6-17.3 11.9c7.6 11.7 14.5 23.9 22.4 35.5q-6 0-12 0c-7.1-11.7-14.2-23.4-21.2-35.2c-4 0-8 0-12 0c0.4 11.7 0.3 23.5 0.3 35.2c-2.3 0-7.1 0-9.4 0c0-26.2 0-52.4-0.1-78.6zm9.4 9.2q0.2 12.8-0.1 25.5c8.5-0.1 17.3 0.8 25.4-2.3c9-3.5 8.6-18.1-0.2-21.5c-8-3.1-16.8-1.3-25.1-1.7z" />
		<path id="Layer" class="s1" d="m1030.2 259.6c15-13.9 40.7-12.7 54.7 2q-4.2 3.1-8.3 6.3c-9.1-10.2-25.7-12.2-36.6-3.8c-17.7 12.6-17.4 43.3 1.3 54.9c12.2 8.1 29.1 4.3 38.5-6.5c1.6 1.5 5 4.7 6.7 6.2c-13.2 16.2-39.3 17.8-55.1 4.6c-19.1-15.1-19.5-47.7-1.2-63.7z" />
		<path id="Layer" fill-rule="evenodd" class="s1" d="m1123.5 251.9c13.8-4 30.1-2.4 41 7.6c18.9 15.8 18.4 48.8-1 63.9c-18.1 14.6-48.6 10.6-60.8-9.7c-13.5-21.2-4.2-54.2 20.8-61.8zm5.3 8c-7.5 1.8-13.8 7.2-17.7 13.8c-11.2 18.3-0.7 47.4 22.2 49.3c23.4 4.5 42.2-23 33-43.9c-4.9-15.1-22.3-23.9-37.5-19.2z" />
		<path id="Layer" class="s1" d="m1195 251.7q6.9-0.1 13.9-0.2c8.4 20.7 18.1 40.9 26.1 61.8c9.6-20.4 18-41.4 27.3-61.9q6.6 0.1 13.2 0.1q-0.1 39.3 0 78.6c-2.3 0-7 0-9.4 0c-0.3-21.3 0.6-42.7-0.3-64c-9.3 19.4-16.9 39.7-25.6 59.4c-1 3.3-4.1 4.5-6.9 5.7c-10.3-21.7-18.8-44.2-28.8-66.1c0 21.7-0.1 43.3 0.2 65q-4.8-0.2-9.6-0.1c0.3-26.1 0.4-52.2-0.1-78.3z" />
		<path id="Layer" fill-rule="evenodd" class="s1" d="m1297 251.6c13.3 0.6 27.6-2.4 40.1 3.4c13.6 6.3 14.4 28.3 1.5 35.8c-9.7 5.8-21.6 3.5-32.3 4.1c0 11.7-0.1 23.4 0.3 35.1q-4.8-0.1-9.6 0.1c0.2-26.2 0.2-52.3 0-78.5zm9.3 9.1q0 12.8 0 25.5c8.6-0.3 17.7 1.3 25.8-2.3c8.3-4.5 7.1-18.9-1.9-22c-7.7-2.2-15.9-0.9-23.9-1.2z" />
		<path id="Layer" fill-rule="evenodd" class="s1" d="m1382.1 251.3q4.3 0.1 8.5 0.3c11 26.3 21.9 52.7 33.5 78.6c-3.8-0.5-8.3 0.9-11.6-1.2c-3.1-5.8-5.2-12.1-7.8-18.1c-13 0.1-26 0-38.9 0.2c-2.5 6.3-5.2 12.6-7.7 19q-5.5 0-10.9 0.1c11.8-26.2 22.8-52.8 34.9-78.9zm-12.8 51.2c10.8-0.2 21.6-0.2 32.4-0.2c-5.7-12.7-10.8-25.6-15.6-38.7c-5.9 12.8-10.9 26-16.8 38.9z" />
		<path id="Layer" class="s1" d="m1435.8 251.6q5.8-0.1 11.5-0.2c15.9 21.6 30.5 44.2 46.4 65.9c-1.1-22-0.3-43.9-0.6-65.8q4.8 0.2 9.7 0.2c-0.4 26.1-0.2 52.2-0.1 78.4q-6 0-11.8 0.1c-15.6-21.7-30.5-43.9-46-65.7c0.6 21.9 0.1 43.7 0.4 65.5c-2.3 0.1-7 0.1-9.4 0.1c0.1-26.1 0.2-52.3-0.1-78.5z" />
		<path id="Layer" class="s1" d="m1513 251.3q6.1 0.2 12.2 0.3c7.1 11.9 14.7 23.5 21.7 35.6q11.4-17.9 22.8-35.8q5.6 0.1 11.3 0.1c-9.6 15.2-20.1 29.7-29.1 45.2c-1.1 11.1-0.2 22.2-0.2 33.3q-4.8-0.1-9.6 0.1c-0.1-11.3 0.8-22.6-0.2-33.8c-8.9-15.4-19.6-29.8-28.9-45z" />
	</g>
	<g id="#91c850ff">
		<path id="Layer" class="s2" d="m106.9 142.8c48.9-12.4 102.1-4.2 145.9 20.5c6.1 3.6 12.9 6.8 17.6 12.2c0.7 12.4-0.1 24.9 0.3 37.4c-34.1-23.7-73.9-41.6-116-42.7c-40.5-0.5-78.2 17.9-111.3 39.8c23.3 24.1 50.5 45.6 82.7 56.5c36.3 12.7 76.9 11.4 113-1.6c-7.4-7.8-15.3-15.3-25-20.1c-25.2-12.7-53-18.6-79.8-26.5c26.2-1.8 52.8-3.3 78.7 1.8c31.3 6.7 55.8 29 77.5 51.2c-15.1 9.6-30.6 18.6-47.1 25.3c-40.1 17.1-86.8 19.7-127.9 4.3c-48.1-18.1-88.5-54.2-115.5-97.5v-0.8c30.9-27 66.6-50 106.9-59.8z" />
	</g>
</svg>