<svg version="1.2" xmlns="http://www.w3.org/2000/svg" viewBox="0 0 1411 1523" width="1411" height="1523">
	<title>GPS_BIG copy-svg</title>
	<style>
		.s0 { fill: #a6bbc8 } 
	</style>
	<g id="Desktop1">
		<g id="GapInc_Newsroom_Home_Desktop1">
			<g id="gapInc-Copy">
				<path id="Shape" fill-rule="evenodd" class="s0" d="m1233.1 1485.3c-79.6 24.8-331 37.4-398.5 37.4-625.5 0-834.3-387.1-834.3-717.6 0-518.2 380.2-805.1 729.9-805.1 202.3 0 282.4 68.8 392.4 68.8 43.1 0 61.3-12.6 80-50.1h42.7v430.7h-36.6c-37-274.8-282.3-393.2-478.5-393.2-287.9 0-515 262.1-515 661.4 0 424.6 251.4 736.3 588.5 736.3 104.4 0 239.3-24.8 239.3-155.9v-155.8c0-175.1-36.5-237.4-153.1-237.4h-55.3v-43.5h576.4v43.5c-140.9 0-177.9 68.8-177.9 193.8z"/>
			</g>
		</g>
	</g>
</svg>