<svg version="1.2" baseProfile="tiny-ps" xmlns="http://www.w3.org/2000/svg" viewBox="0 0 1592 972" width="1592" height="972">
	<title>cropped-logo-mark-green-192x192-svg</title>
	<style>
		tspan { white-space:pre }
		.shp0 { fill: #2d8b08 } 
	</style>
	<g id="#2d8b08ff">
		<path id="Layer" fill-rule="evenodd" class="shp0" d="M900.72 94.39C1002.05 22.69 1129.91 -4.16 1252.46 1.06C1329.65 10.76 1409.17 23.44 1477.66 62.81C1520.03 85.35 1554.94 118.84 1592 148.76L1592 159.03C1554.44 192.35 1519.95 228.82 1482.88 262.63C1450.05 237.02 1418.79 208.6 1380.73 190.69C1307.51 154.31 1222.19 151.49 1142.76 164.01C1035.96 182.65 940.11 258.24 903.71 361.35C847.24 500.92 894.75 682.26 1026.51 761.91C1120.45 823.66 1242.26 826.97 1347.89 797.63C1369.04 789.68 1396.07 785.7 1409.25 765.72C1416.05 724.04 1412.98 681.27 1409.42 639.33C1339.44 639.08 1269.54 640.41 1199.56 639.25C1192.92 583.63 1197.07 527.52 1196.65 471.66C1325.01 470.42 1453.28 470.92 1581.64 471.41C1583.38 575.76 1581.05 680.03 1582.22 784.37C1582.05 805.51 1583.46 826.81 1579.98 847.78C1554.6 878.44 1517.21 895.68 1482.22 913C1410.66 948.4 1330.81 961.16 1252.37 970.77C1133.55 977.57 1010.84 950.47 910.51 885.16C833.4 832.78 771.62 757.69 736.8 671.07C724.86 639.16 717.81 605.6 706.86 573.27C634.98 572.03 562.92 570.7 491.12 574.1C489.71 632.7 492.44 691.38 489.79 749.98C326.53 751.39 163.26 749.98 0 750.64L0 259.49C163.35 259.9 326.77 257.99 490.04 260.31C492.11 317.25 490.12 374.28 490.78 431.22C562.34 433.29 634.15 435.03 705.62 430.22C708.77 412.4 711.92 394.66 715.57 377.01C735.64 262.63 807.94 162.1 900.72 94.39ZM245.18 440.33C243.94 483.68 243.44 527.03 245.6 570.37C327.11 571.7 408.7 571.45 490.29 570.46C491.53 527.03 490.95 483.6 490.7 440.17C408.94 438.09 326.94 437.85 245.18 440.33Z" />
	</g>
</svg>