<svg version="1.2" xmlns="http://www.w3.org/2000/svg" viewBox="0 0 1552 325" width="1552" height="325">
	<title>Grifols-svg</title>
	<defs>
		<clipPath clipPathUnits="userSpaceOnUse" id="cp1">
			<path d="m0.24 0.25h1551.23v323.88h-1551.23z"/>
		</clipPath>
		<clipPath clipPathUnits="userSpaceOnUse" id="cp2">
			<path d="m0.24 0.25h1551.23v323.88h-1551.23z"/>
		</clipPath>
		<clipPath clipPathUnits="userSpaceOnUse" id="cp3">
			<path d="m0.24 0.25h1551.23v323.88h-1551.23z"/>
		</clipPath>
	</defs>
	<style>
		.s0 { fill: #004186 } 
	</style>
	<g id="Layer">
		<g id="Clip-Path" clip-path="url(#cp1)">
		</g>
		<g id="Clip-Path" clip-path="url(#cp2)">
			<path id="Layer" class="s0" d="m388 194.3l20 0.2 61.8 129.6 64.4-12-72.2-132.7c28.7-17.3 51.3-44 51.3-90.1 0-52.9-39.1-81.3-97.4-81.3h-105.7v310.8h61.3v-269.1h31.7c24.4 0 48.8 12 48.8 47.1 0 22.5-13.4 55.5-55 55.9h-9c0 0 0 41.6 0 41.6zm-127.8-19v129.1c-31 11.2-63.6 19.2-96.7 19.2-100 0-163.3-71.4-163.3-163.4 0-85.4 62.9-160 165-160 31.8 0 63.6 10.8 82.6 24.1l-18.6 37.1c-15.7-8.9-40.1-16.5-62.4-16.5-62 0-104.6 45.1-104.6 116.1 0 74.2 48.8 118 98.8 118 15.7 0 28.5-1.8 40.9-7.6v-96.1z"/>
		</g>
		<g id="Clip-Path" clip-path="url(#cp3)">
			<path id="Layer" fill-rule="evenodd" class="s0" d="m567.1 8.7h60.5v306.5h-60.5zm283.6 39.5h-98.7v99.8h71.4v39.9h-71.4v127.4h-60.5v-306.6h159.2zm157.7 275.5c-79.8 0-144.3-72.3-144.3-161.7 0-89.4 64.5-161.7 144.3-161.7 79.7 0 144.2 72.3 144.2 161.7 0 89.4-64.5 161.7-144.2 161.7zm82.2-166.2c0-57.6-24.4-116.4-82.2-116.4-57.9 0-82.3 58.8-82.3 116.4 0 59.9 21.5 125.4 82.3 125.4 60.7 0 82.2-65.5 82.2-125.4zm103.6-148.8h60.5v259.9h79.4v46.7h-139.9zm327.7 53.4c-12.9-9.2-29.9-17.5-47-17.5-24.5 0-37.8 14.4-37.8 32.4 0 20.1 20.3 35.4 54.4 63.9 39.2 32.9 60 58.7 60 96.4 0 38.5-35 83.2-100.7 83.2-30.4 0-64.1-9.7-85.7-30.7l21.2-35c15.4 11.8 33.3 24.5 59.5 24.5 24.1 0 45.3-13.6 45.3-42.5 0-33.7-39.1-56-62.4-75.3-28.3-24.1-52-42.9-52-83.6 0-41.2 39.5-74.5 92.4-74.5 33.2 0 59.9 12.7 73.6 26.7z"/>
		</g>
	</g>
</svg>