<svg version="1.2" xmlns="http://www.w3.org/2000/svg" viewBox="0 0 1553 746" width="1553" height="746">
	<title>2022042803733-1-1-pdf-svg</title>
	<defs>
		<clipPath clipPathUnits="userSpaceOnUse" id="cp1">
			<path d="m-2875.51-3267h7286.67v9893.07h-7286.67z"/>
		</clipPath>
		<linearGradient id="g1" x1="618.5" y1="237.2" x2="1027.2" y2="237.2" gradientUnits="userSpaceOnUse">
			<stop offset="0" stop-color="#55cabb"/>
			<stop offset="1" stop-color="#2c8180"/>
		</linearGradient>
	</defs>
	<style>
		.s0 { fill: url(#g1) } 
		.s1 { fill: #ffffff } 
	</style>
	<g id="Clip-Path: Page 1" clip-path="url(#cp1)">
		<g id="Page 1">
			<path id="Path 5" class="s0" d="m823.5 0.9l83.8 48.4-204.9 118.1v134.7l120.5 69.8 119.9-69.2v-36.1h-51.4l-69.1-88.2 204.9-0.6v178.2 0.6l-28.1 15.9-26.9 15.9v0.6h-0.6l-27 15.3v1.3l-1.2-1.3-118.7 69.2h0.6l-0.6 0.6-206.2-120v-235.7z"/>
			<path id="Path 6" fill-rule="evenodd" class="s1" d="m203.7 732.5c-16.5 5.5-46.5 12.8-77.1 12.8-42.2 0-72.1-10.4-93.6-30.6-20.8-20.2-32.4-50.2-32.4-83.9 0.6-76.5 56.3-119.9 131.6-119.9 29.3 0 52.6 5.5 63.6 11l-10.4 41.6c-12.9-5.5-28.8-9.8-53.9-9.8-43.4 0-76.4 24.5-76.4 74.7 0 47.1 29.9 75.3 72.8 75.3 11.6 0 21.4-1.2 25.1-3.7v-48.3h-35.5v-40.4h86.2zm53.9-216.1c17.1-3.1 41.6-4.9 69.1-4.9 34.3 0 58.1 4.9 74.6 17.7 14.1 11 21.5 27.6 21.5 48.4 0 29.4-20.8 49.6-40.4 56.9v0.6c15.9 6.8 24.5 22.1 30.6 42.9 6.7 26.3 14 56.3 18.3 65.5h-53.2c-3.7-6.8-9.2-25.7-15.9-53.9-6.1-28.8-15.9-36.7-37.3-36.7h-15.3v90.6h-52zm52 98.5h20.2c25.7 0 41-12.8 41-33 0-20.8-14.1-31.9-38-31.9-12.2 0-19.6 0.7-23.2 1.9zm220.8 68.5l-16.5 59.4h-53.8l70.3-230.2h68l71.5 230.2h-55.6l-17.8-59.4zm58.1-38.5l-14-49c-4.3-13.5-8-30.6-11.7-44.1h-0.6c-3.6 13.5-6.7 30.6-10.4 44.1l-14 49zm126-129.2c15.9-3.1 38.5-4.9 69.7-4.9 32.5 0 55.1 6.1 70.4 18.4 14.7 11.6 24.5 30.6 24.5 53.2 0 22.7-7.4 41.7-20.8 54.5-17.8 16.6-44.1 24.5-74.7 24.5-6.7 0-12.8-0.6-17.7-1.2v82.6h-51.4zm51.4 104.1c4.3 1.2 9.8 1.2 17.1 1.2 27.5 0 44.7-13.4 44.7-37.3 0-20.8-14.7-33.7-40.4-33.7-10.4 0-17.7 1.2-21.4 1.9zm212.3-107.2v88.2h85.6v-88.2h52v230.2h-52v-96.7h-85.6v96.7h-52v-230.2zm333.4 132.9h-84.4v54.4h94.2v42.9h-146.2v-230.2h141.3v42.3h-89.3v48.3h84.4zm179.9 97.4l-20.2-41.7c-8.6-16.5-14.1-28.1-20.8-41.6h-0.6c-4.9 13.5-10.4 25.1-17.8 41l-18.9 42.3h-59.4l66.7-117-64.2-113.2h59.3l20.2 41.6c6.7 14.1 12.2 25.7 17.1 38.6h1.3c5.5-14.7 9.8-25.1 15.3-38.6l19.5-41.6h59.4l-64.9 112 68.6 118.2z"/>
		</g>
	</g>
</svg>