<svg version="1.2" xmlns="http://www.w3.org/2000/svg" viewBox="0 0 1563 1311" width="1563" height="1311">
	<title>Gorilla-logo-style1-svg</title>
	<style>
		.s0 { fill: #a4a5a7 } 
	</style>
	<g id="Layer">
		<path id="Layer" fill-rule="evenodd" class="s0" d="m1271.4 541.3c0-10.7 3.8-21.5 10.8-28.5 6.9-7 13.9-14.5 24.7-17.7 6.9 0 17.7 14.5 17.7 28.5h-10.8l-13.9 17.7-10.8 7c-3.7 7-13.9 0-17.7-7zm-113.3 0.5c-3.3-6.9 10.7-13.9 17.7-17.7 10.7-3.8 21.5 7 35.4 7h14.6c0 3.2 0 10.2 0 14-7.6 13.9-14.6 13.9-28.5 17.7l-21-3.8c-7.5 0-17.7-7.5-18.2-17.2zm-575.3 123.1c10.7 0 17.7 0 28.4 0 0-45.7-24.7-88.1-49.4-88.1-49.4 3.2-49.4 41.9-60.1 95.1h-7c0-52.7 3.7-88.1 42.4-105.9 67.2-20.9 81.1 46.3 81.1 116.7l-24.7-10.8-31.7 17.8c0 17.7 3.8 39.2 17.7 53.2 24.8 10.7 14 3.7 38.7-7l10.8 7-10.8 17.7c-13.9 0-31.7 10.8-42.4 0-21.5-14-28.5-39.2-28.5-60.2 0-21.5 21.5-35.5 35.5-35.5zm670.9-102.6c24.2 24.2 28.5 36 32.2 60.2 8.1 24.2 11.8 60.2 19.9 120.4 0 19.9 4.3 40.3 8 60.2l-27.9-120.4zm-537.7 92.4h-20.9l-12.4-7c0-3.7 0-7-4.3-10.7 16.7 3.7 29.6 3.7 46.2 0l12.4-7 17.1-35.5c3.8-7 3.8-14 8.1-20.9l-4.3 20.9c0 10.8 0 17.8-4.3 24.7 0 7-4.3 14-8.6 17.8l-3.7 3.2-16.7 14h-8.6zm88.1 408.5l-14.5-9.7-9.7-14.5 24.2-33.9 24.2-14.5h9.6l-33.8 38.7zm-140.2-256.4l17.7 7-62.8 62.9 0.5 0.5c-0.5 0-1.1 0.6-1.6 0.6-16.6 4.3-42.4 0-67.7-7-2.1-0.6-4.3-1.6-6.4-2.2l-17.7-9.1-24.8-7-42.4-63.4c-14.5-21-28.5-81.2-35.4-116.6-3.3-31.8 3.7-63.5 10.7-98.9 7-24.8 46.2-67.2 91.9-85 21.4-7 42.4-7 67.1 0 16.1 25.3 78.4 74.2 66.1 104.3-1.1 3.2-2.7 5.9-5.9 8.6-15.6-30.6-27.4-57-43.5-75.2q-8.9-8.1-17.8-14.6c-12.9-8-29-11.8-51.5-9.6-3.3 0-10.2 0-14 3.7-24.7 7-46.2 31.7-60.2 49.5-45.6 53.2-13.9 187 35.5 258 3.7 7 13.9 13.9 24.7 20.9 14 10.8 31.7 21 38.7 24.8l53.1-7c28-17.2 24.8-24.8 45.7-45.2zm-74.7 179.5c4.3 33.4 43 77.4 57 97.9l-32.3-9.7c-10.2-16.1-31.1-51.6-37-86.5-6.5-35 5.9-33.9-1.1-60.2 1.1-5.4 2.7-11.3 3.8-18.3l10.2 2.1 8-5.3c0 0-0.5-0.6-0.5-1.1l7-0.6c-3.2 3.3-5.4 6.5-7.5 10.3-0.6 0.5-0.6 1-1.1 1.6q-3.2 5.6-4.8 11.3c-0.6 1-0.6 1.6-1.1 2.6-1.1 3.8-5.9 23.2-0.6 55.9zm928.8 55.4l-42.4 38.7c-6.5 3.2 4.3 14.5 6.4 22l-20.4 34.4c-10.2 14-21 28.5-31.7 42.5-3.2 0-3.2 3.2-7 7 0.6 0 0.6 0.5 0.6 0.5l-17.2 17.2c-1.6 1.1-2.7 2.2-4.3 3.8-6.5 6.4-12.4 15-16.1 22l1.6-0.5c-0.6 0.5-1.6 1.1-2.2 1.6-4.8 3.8-12.9 8.1-22.5 12.4-11.3 4.8-24.8 9.6-39.3 13.4-13.9 4.3-29 7-42.4 8.6-1.1 0.5-1.6 0.5-2.7 0.5-25.2 9.2-34.4 12.4-47.8 36.1l-16.1-3.8c2.7-14 2.7-32.8 2.7-43.5l-27.4 27.4-34.9 29-18.3-9.7c0-21.5-24.7-30.6-56.9-33.8-5.4 0.5-10.8 0.5-16.7 0.5l-19.3-2.2c-16.1 2.2-24.7 4.9-37.6 3.3-52.1-17.2-92.4-46.3-141.8-54.3l-30.6-14.5-2.7-1.1-4.9-2.2c-2.1-0.5-3.7-0.5-5.9-1-3.7-0.6-7-1.6-10.2-2.2-45.6-1.1-58-9.1-93.5-34.9-3.7-3.2-6.9-7-10.7-7-3.2-7-7-10.2-7-14v-39.2c3.8 0 10.8-3.8 17.7-3.8v21.5c-3.7 3.2-6.9 3.2-10.7 7 3.8 3.8 7 7 10.7 10.8 38.7 35.4 70.4 39.2 130.6 53.2l18.2 8c33.3 2.7 67.7 21.5 116.1 48.9 29 4.9 56.4 7.6 83.8 9.2 36-4.9 62.3-0.6 92.9 30.1 14-7 24.7-17.8 31.7-28.5 10.7-10.8 17.7-17.7 28.5-24.7 3.2 3.2 6.9 5.3 10.2 7.5l0.5-0.5 1.1 2.1c3.2 2.2 7.5 3.8 11.3 5.4 1 0 1.6 0.5 2.1 0.5 3.8 1.6 7.5 2.2 11.8 2.7 1.1 0.5 1.6 0.5 2.7 0.5 3.8 0.6 7.5 0.6 11.8 0.6q1.6 0 3.3 0c3.7 0 8-0.6 11.8-1.1 1.6 0 2.7-0.5 4.3-0.5 3.7-0.6 7.5-1.1 11.2-2.2 1.7 0 3.3-0.5 4.9-1.1 3.7-1 7-1.6 10.2-2.6 2.1-0.6 4.3-1.7 6.4-2.2 2.7-1.1 5.4-1.6 7.6-2.7q6.4-2.4 12.8-4.8c24.8-21.5 42.5-42.5 60.2-60.2 10.8-14 17.7-24.7 28.5-38.7 10.7-17.8 17.7-35.5 28.4-60.2-10.7 0-21.4-3.2-28.4-7-10.8 0-21.5-3.2-28.5-3.2-74.1-14.5-137.5-21.5-211.6 3.2-7 0-14 3.2-24.7 7-67.2 35.5-162.8 39.2-236.9 28.5l-53.2-35.5v-28.5c74.7 74.2 145 53.2 236.9 28.5 24.7-10.2 53.2-24.7 77.9-31.7 67.1-24.7 137.5-35 197.6 3.7 3.3 0 7 0 14 0 10.8 0 17.7 3.3 28.5 7 10.7 0 20.9 3.3 31.7 7 49.4-27.9 77.9-45.7 74.1-105.9-3.2-27.9-31.7-56.4-74.1-63.4-7-3.8-14-3.8-21-3.8l21-13.9 3.7-3.3c0-14.5 0-32.2-3.7-53.2-3.3-35.4-7-74.1-21-109.6-3.7-10.8-7-17.7-10.7-28.5-10.8-24.7-21.5-38.7-28.5-56.4-3.2-3.8-3.2-7-7-10.8l-42.4-53.2c0-49.4 0-69.3-30.1-82.8-34.4 22.1-60.2 24.8-79 22.6-6.9 0-12.8-2.1-18.8-5.4-10.7 0-22-2.1-34.3-8.6v-9.6c-17.2 4.3-29 24.1-60.2 30.6-137.5 31.7-208.4-31.7-307.3-134.4l-7.5-7.5c-16.6 27.9-30.6 57.5-44.6 86.5-0.5 0.6-0.5 1.6-1 2.2q2.4-11.3 6.4-24.2c3.8-14 8.6-26.9 14-39.8 4.8-11.8 10.2-23.6 15.6-34.9l-39.3-39.3c3.3-17.7-7.5-28.4 21-35.4l24.7 10.7c6.4 7 14.5 10.2 25.8 11.3 9.7-12.4 19.9-22.6 30.6-29 45.7-31.7 77.4-38.7 123.6-42.5 46.1-3.7 120.3 31.7 183.7 38.7 3.2 0 10.2 0 13.9-3.7 24.7-3.8 45.7-17.8 63.4-28.5l-7-14c-14.5-24.7-53.1-53.2-28.4-77.9 14.5 0 24.7 0 35.4 0-10.2-24.8-34.9-42.5-63.4-53.2-13.9-7-28.4-10.8-42.4-10.8-28.5 21-28.5 28.5-42.4 0l25.2-17.7c3.8-42.5-123.5 3.2-141.3-17.8-3.2-3.7 7-10.7 10.8-17.7-112.8 0-211.7 49.4-282.6 102.6-7 3.3-13.9 10.3-17.7 14-24.7 17.8-42.4 38.7-60.2 56.5-39.2 42.4-77.9 84.9-113.3 130.6-28.5 39.2-56.4 77.9-77.9 120.4-63.4 116.6-102.6 243.5-141.3 370.8l-67.7 111.3c-4.3 14-8.6 28.5-12.8 42.5 0 0-8.1 88.6-20.5 109.1-12.3 20.4-152 92.4-199.2 181.1l-6.5-4.3c1.1-5.4 2.7-10.7 3.8-16.1 0.5-0.6 0.5-1.1 1-1.6l4.3-15.1c7.6-15.6 16.7-38.7 39.3-53.2 32.7-54.8 61.7-54.8 105.2-98.4 39.8-40.3 39.8-43.5 29-102.1l17.8-43.5h1.6c10.7-17.2 69.8-75.8 63.4-109.7l130.5-325.1 88.1-152.2c14-17.7 28.5-35.4 42.4-53.2 49.4-63.4 105.9-126.8 173-180 3.8-3.8 10.7-7.5 17.7-10.8 53.2-38.7 116.6-67.2 194.5-81.1 38.7-10.8 81.1-14.5 123.5-3.8v10.8c60.2 0 95.6-10.3 141.3 35.4 3.2 3.3 10.2 3.3 14 7 49.4 17.8 67.1 52.7 91.8 98.9l-35.4-7c-17.8-7 7 31.7 10.7 60.2 3.8 17.8 57 14.5 77.9 35.5 10.2 12.4 17.7 27.4 22.6 44.1 20.9-1.6 41.3-1.6 61.7-1.6 17.8-7 28.5 13.9 17.8 24.7-14 14.5-28 74.7-56.4 102.6-15.1 15.1-28.5 26.4-41.4 36.1-0.5 1-0.5 1.6-1.1 2.6 31.7 31.8 38.7 31.8 38.7 85l24.7 38.7 28.5 49.4 10.7 17.8q15.3 26.6 21 53.2c13.9 49.4 13.9 105.8 20.9 159.1 38.7 21.5 63.4 49.9 74.2 77.9 13.9 35.5-3.8 77.9-39.8 104.8zm-111.7 162.3c-0.6 1.1-1.6 1.6-2.7 2.7zm-66.6-910c-11.3-27.4-37.6-46.2-85.4-46.2-28 17.8-42.5 28.5-63.4 28.5-14 0-31.7-3.8-63.4-10.7-50-17.8-84.9-28.5-138.1-28.5-55.3 0-95.6 22-127.3 54.3 25.3 0 62.3-2.7 120.4-1.1 116.5 3.2 137.5 34.9 204.6 45.7 4.3 1 8.1 1 12.4 1 13.4-4.3 26.8-8 41.3-12.3 16.7-7.5 32.8-17.2 48.4-20.4 17.2-5.4 33.8-8.1 50.5-10.3z"/>
	</g>
</svg>