<svg version="1.2" xmlns="http://www.w3.org/2000/svg" viewBox="0 0 1232 1506" width="1232" height="1506">
	<title>presentation-1-pdf-svg copy-svg</title>
	<defs>
		<clipPath clipPathUnits="userSpaceOnUse" id="cp1">
			<path d="m-3880.7-1281.65h15922.2v8960.29h-15922.2z"/>
		</clipPath>
	</defs>
	<style>
		.s0 { fill: #460534 } 
	</style>
	<g id="Clip-Path: Clip-Path: Page 1" clip-path="url(#cp1)">
		<g id="Clip-Path: Page 1">
			<g id="Page 1">
				<path id="Path 19" fill-rule="evenodd" class="s0" d="m1231.8 0.2v1505.8l-1231.3-301.1v-903.6zm-128.8 161.1l-984.2 228.9v725.8l984.2 229.2zm-447.8 250.6c81.5 0 146 13.9 203.4 32.4v128.4c-56.5-25.6-117.1-44-191.8-44-159.1 0-242 93.9-242 228.3 0 133.4 79.7 223.8 220.6 223.8 31.5 0 65.4-4.2 90.4-9.8l-50.5 123.6c-15.8 0.9-32.5 1.5-48.2 1.5-231.3 0-363.4-140.9-363.4-330.8 0-201.8 150.2-353.4 381.5-353.4zm38.4 335.8h140l-46.4 112.1h-140.3zm170.1 0h32.4v297.8c-48.2 24.1-108.8 41.7-174.3 50.6z"/>
			</g>
		</g>
	</g>
</svg>