<svg version="1.2" xmlns="http://www.w3.org/2000/svg" viewBox="0 0 1547 281" width="1547" height="281">
	<title>Goodyear_logo-svg</title>
	<defs>
		<clipPath clipPathUnits="userSpaceOnUse" id="cp1">
			<path d="m-1033.58-2194.25h3614.26v4669.5h-3614.26z"/>
		</clipPath>
		<clipPath clipPathUnits="userSpaceOnUse" id="cp2">
			<path d="m-1033.58-2194.25h3614.26v4669.5h-3614.26z"/>
		</clipPath>
		<clipPath clipPathUnits="userSpaceOnUse" id="cp3">
			<path d="m-1033.58-2194.25h3614.26v4669.5h-3614.26z"/>
		</clipPath>
		<clipPath clipPathUnits="userSpaceOnUse" id="cp4">
			<path d="m-1033.58-2194.25h3614.26v4669.5h-3614.26z"/>
		</clipPath>
		<clipPath clipPathUnits="userSpaceOnUse" id="cp5">
			<path d="m-1033.58-2194.25h3614.26v4669.5h-3614.26z"/>
		</clipPath>
		<clipPath clipPathUnits="userSpaceOnUse" id="cp6">
			<path d="m-1033.58-2194.25h3614.26v4669.5h-3614.26z"/>
		</clipPath>
		<clipPath clipPathUnits="userSpaceOnUse" id="cp7">
			<path d="m-1033.58-2194.25h3614.26v4669.5h-3614.26z"/>
		</clipPath>
		<clipPath clipPathUnits="userSpaceOnUse" id="cp8">
			<path d="m-1033.58-2194.25h3614.26v4669.5h-3614.26z"/>
		</clipPath>
		<clipPath clipPathUnits="userSpaceOnUse" id="cp9">
			<path d="m-1033.58-2194.25h3614.26v4669.5h-3614.26z"/>
		</clipPath>
		<clipPath clipPathUnits="userSpaceOnUse" id="cp10">
			<path d="m-1033.58-2194.25h3614.26v4669.5h-3614.26z"/>
		</clipPath>
		<clipPath clipPathUnits="userSpaceOnUse" id="cp11">
			<path d="m-1033.58-2194.25h3614.26v4669.5h-3614.26z"/>
		</clipPath>
	</defs>
	<style>
		.s0 { fill: #ffde1b } 
	</style>
	<g id="Layer">
		<g id="Clip-Path" clip-path="url(#cp1)">
			<path id="Layer" fill-rule="evenodd" class="s0" d="m756.1 65.2l-0.6 1.8 13.6 22.4 1.8 0.6 42.5-24.8 0.6-1.7c-4.1-10.1-0.6-21.3 1.2-31.3-21.3 11.2-40.8 23-59.1 33z"/>
		</g>
		<g id="Clip-Path" clip-path="url(#cp2)">
			<path id="Layer" fill-rule="evenodd" class="s0" d="m133.3 70.6c-37.8-11.2-80.4-1.8-107 24.7-22.4 22.4-31.3 57.3-23 89.1 3.5 15.4 21.2 30.7 41.3 30.7h100.5l2.4-1.2 19.5-76.1c-20.7-0.6-42.6 0-65 0 0 0-16 57.2-16 58.4-6.5 1.2-14.2 2.4-20.7 0-3.5-1.8-5.3-5.9-4.1-10l22.4-86.7c0.6-3 5.4-7.7 8.9-9.5 10.6-4.7 24.2-2.9 33.1 2.4 0 0 5.3 2.9 10 5.9 3.6-6.5 7.1-13.6 10.1-20.7-4.2-3.5-8.3-4.1-12.4-7z"/>
		</g>
		<g id="Clip-Path" clip-path="url(#cp3)">
			<path id="Layer" fill-rule="evenodd" class="s0" d="m901.5 68.8l0.6 1.8 23.6 80.2-16.5 64.9h70.3l17.7-64.3 68.5-82-0.5-0.6h-32c-14.1 15.9-28.9 33.6-43.7 50.1-2.3 1.8-2.3 2.4-3.5-1.7-4.8-16-9.5-32.5-14.8-48.4 0 0-69.7 0-69.7 0z"/>
		</g>
		<g id="Clip-Path" clip-path="url(#cp4)">
			<path id="Layer" fill-rule="evenodd" class="s0" d="m1079.9 68.8c-12.4 48.4-24.2 96.2-37.8 144.5l-0.6 2.4h121.2c2.3-7.7 5.3-15.9 5.9-24.2h-49.7l-3.5-0.6 8.8-34.2 3-2.4h33.1l1.8-1.8c1.7-7.6 4.1-15.9 5.3-23.6l-34.9-0.5v-1.8c3.6-10.6 5.3-22.4 9.5-32.5 17.1-1.1 37.8 0.6 53.7-0.5 2.4-7.7 4.2-16.6 6-24.8 0 0-121.8 0-121.8 0z"/>
		</g>
		<g id="Clip-Path" clip-path="url(#cp5)">
			<path id="Layer" fill-rule="evenodd" class="s0" d="m787.4 92.4c10.1 0.6 19.5 2.3 29.6 1.2 0.6-5.9 1.7-13.6 2.9-19.5-11.2 4.7-21.8 11.8-32.5 18.3z"/>
		</g>
		<g id="Clip-Path" clip-path="url(#cp6)">
			<path id="Layer" fill-rule="evenodd" class="s0" d="m776.2 100.6c0.6 7.1-0.6 15.4-1.8 22.5 11.2-4.8 23.1-11.8 34.9-18.3z"/>
		</g>
		<g id="Clip-Path" clip-path="url(#cp7)">
			<path id="Layer" fill-rule="evenodd" class="s0" d="m778 133.7c8.2 18.9 18.9 37.1 27.8 55.4h1.7c18.9-17.7 40.8-31.8 61.5-44.8l-12.4-21.2c-5.4 4.7-10.7 14.7-18.4 17.7-8.8-8.3-14.7-17.7-17.7-29-14.7 7.1-28.9 13.6-42.5 21.9z"/>
		</g>
		<g id="Clip-Path" clip-path="url(#cp8)">
			<path id="Layer" fill-rule="evenodd" class="s0" d="m768.5 140.8c-12.4 23-21.9 47.7-29.5 73.1-6.5 13-17.8 23.6-27.2 34.8-3 3.6-5.9 7.7-4.2 13 0.6 1.8 1.8 4.1 4.2 3.5 35.4-10.6 60.8-41.8 86.8-68.4-8.2-18.9-18.9-36.6-27.7-54.9z"/>
		</g>
		<g id="Clip-Path" clip-path="url(#cp9)">
			<path id="Layer" fill-rule="evenodd" class="s0" d="m873.7 152l-28.4 18.3c-41.9 27.1-69.1 73.1-113.4 95.5-5.9 3-12.4 4.8-17.8 8.9 1.8 2.3 1.8 5.9 5.4 5.3 17.7-7.1 34.2-17.1 49-29.5 33.7-31.9 69.1-70.2 109.9-92.6-1.2-2.4-2.9-4.7-4.7-5.9z"/>
		</g>
		<g id="Clip-Path" clip-path="url(#cp10)">
			<path id="Layer" fill-rule="evenodd" class="s0" d="m1035 0.9c0 10.1-7.1 18.3-14.7 24.2-26.1 14.8-61.5 10.1-91.7 7.1-0.5 0.6-1.1 0.6-1.7 1.8 2.3 4.7 8.8 5.9 14.7 7.7-7 7.6-17.1 8.8-27.7 8.2 1.7 2.4 4.7 4.1 8.8 4.7 1.8 2.4-5.9 4.8-8.8 5.3-8.3 3.6-17.8 1.2-24.9-1.1-3.5 4.1 0.7 10-1.7 15.9-1.2 4.1-3 10-5.9 13-4.2-0.6-8.3-8.9-9.5-3.6 0.6 7.1-2.4 12.4-4.7 17.7-5.3 1.2-10.1-14.7-12.4-2.3-2.4 8.8-7.1 17.1-12.4 23.6-4.2-0.6-6.5-5.4-8.3-8.9-6.5-12.4-4.7-28.9-3-41.9-8.8-11.2-10-29.5-4.1-42.4 15.4-30.1 52-26 81.6-26 41.3 4.1 86.8 5.9 126.4-3zm-153.6 16c-2.4 2.3-4.2 4.7-7.1 6.5-3.6 1.7-8.9-2.4-11.2 1.7-2.4 7.1-9.5 7.7-14.8 8.3 1.2 3.5 5.9 4.1 9.4 4.7 5.4 0.6 10.1-1.8 13-5.3 6.5 1.8 11.9-2.4 15.4-7.7 4.1 0 7.7-0.6 10.7-2.9 0.5-1.2 2.3-3.6 0-4.1-5.4 1.1-10.7-0.6-15.4-1.2zm-46.1 35.9c-3 6.6 8.3 5.4 7.7 12.4 1.1 3 4.7 5.4 7.7 4.8v-1.8c-0.6-0.6-2.4-9.4-3-13-4.7 0-8.3-1.8-12.4-2.4z"/>
		</g>
		<g id="Clip-Path" clip-path="url(#cp11)">
			<path id="Layer" fill-rule="evenodd" class="s0" d="m721.8 103.6c8.9 38.9-11.2 79.6-41.9 100.3-9.5 5.9-21.3 11.8-31.3 11.8h-102.3l37.8-148.1h92.8c22.5 0 40.2 17.7 44.9 36zm605.7-31.3l11.8 143.4c-23-0.6-43.7 0-65.6 0-0.6-7.1-0.6-12.4-1.1-20.7v-1.7h-53.8c-6.5 7.6-10.1 15.9-14.8 22.4h-28.3l0.6-1.2c29.5-47.8 60.2-97.3 89.8-145.7h60.2zm-980.3 23.6c14.8 23 2.4 69-19.5 93.2-24.2 27.7-63.2 35.4-99.3 26-20.1-6.5-37.8-26-39.6-48.4-3.5-37.2 16.6-73.2 48.5-91.5 24.8-14.1 62.6-15.9 90.4 0 10.1 6 15.4 13.6 19.5 20.7zm186.1 0c14.8 23 2.4 69-19.4 93.2-24.9 27.7-63.3 35.4-99.3 26-20.7-6.5-38.4-26-39.6-48.4-3.6-37.2 16.5-73.2 47.9-91.5 25.4-14.1 63.2-15.9 90.4 0 10.6 6 15.9 13.6 20 20.7zm-90.9 104.4c7.1 0 13.5-4.1 15.9-11.8l22.5-88.5c1.1-7.1-4.2-13.5-11.3-13.5-7.1 0-14.1 5.9-15.3 12.9l-22.5 88.5c-1.8 4.8 3.6 12.4 10.7 12.4zm-170.8-12.4l22.4-88.5c1.8-6.5-2.9-12.9-10.6-12.9-7.1 0-14.2 5.8-15.4 12.9l-22.4 88.5c-1.2 4.7 3.5 12.4 10.6 12.4 7.1 0 13.6-4.1 15.4-12.4zm991.5-69c-10 15.9-22.4 33.6-30.7 50.1 11.8 0.6 26 0 36.6 0.6l1.2-1.1-4.1-43.1c-1.8-1.8 0-5.3-3-6.5zm-621.6-29.5c0 0-27.2 106.2-26.6 104.4v1.2h17.1c4.8 0 10.1-3.5 11.3-9.4l21.8-80.9c0 0 1.2-5.9-0.6-10.6-4.1-7.6-15.9-4.7-23-4.7zm860.4-20.6c20.1 0 35.4 12.4 40.7 23.6 7.7 14.7 4.2 33-4.1 46.6-5.9 9.4-17.7 18.3-26.6 24.1 3 18.3 7.7 34.9 11.8 52.5-21.2 0-39-1.1-66.7 0h-2.4l-10.6-42.4c-0.6-1.8-5.4-1.2-7.7-1.2l-1.2 2.9-10.6 40.7h-4.8c-23 0-43.1 0.6-62.6 0 13-51.9 27.2-99.7 39-146.8 44.3-0.6 72.7-0.6 105.8 0zm-44.9 20c0 0-15.4 61.4-14.8 59.6v1.2h17.1c5.3 0 10.1-3.6 11.8-8.9l9.5-36.5c0 0 1.2-6.5-0.6-11.3-4.1-7-16-4.1-23-4.1z"/>
		</g>
	</g>
</svg>