<svg version="1.2" xmlns="http://www.w3.org/2000/svg" viewBox="0 0 1600 297" width="1600" height="297">
	<title>2020-Gubretas-Investor-Presentation-1-pdf-svg</title>
	<defs>
		<clipPath clipPathUnits="userSpaceOnUse" id="cp1">
			<path d="m-219.99-370.03h5444.35v4077.88h-5444.35z"/>
		</clipPath>
	</defs>
	<style>
		.s0 { fill: #ffffff } 
	</style>
	<g id="Clip-Path: Page 1" clip-path="url(#cp1)">
		<g id="Page 1">
			<path id="Path 26" fill-rule="evenodd" class="s0" d="m1523.9 104.1c-0.3 5.9 1.9 12 9.8 17.3 19.7 13 36.5 22.3 46.8 29.7 18.4 13.6 19.4 34 18.6 43.3-3.7 44.1-41.2 47.3-63.8 47.3-12.5 0-25-1.6-34.3-4.6-6.1-0.8-8.2-3.1-8.5-5.3-1.3-7.9-3.7-28.4-3.9-34 0-5.3 0.2-9.2 5.3-9.2 5.3 0 6.9 4.5 7.9 8.5 5.1 18.8 9.3 32.1 35.4 31.8 40.1-0.3 34.3-33.7 26.8-39.5-7.7-6.4-34.2-23.1-56.6-38.3-16.2-11.1-18.6-32.1-16.2-43.3 4-19.6 27.1-34.7 55.3-34.7 17 0 37.5 4.5 39.6 5.8 1.3 0.3 3.5 1.3 4 4.3 1.9 3.4 3.7 19.1 3.7 19.1 1.1 5.5-0.8 8.5-6.6 8.2-9.1-0.5 4-28.7-41.8-25.2-14 1.3-21 9.8-21.5 18.8zm-40.7 128c0.8 4-1.8 7.4-5.5 7.4h-68.1c-3.5 0-6.4-2.4-6.6-6.1-0.3-3.2 2.1-6.1 5.5-6.1h4.6c6.3 0 10.1-2.9 7.7-7.4l-11.2-31.3h-51.8l-11.2 31.3c-1.9 5 0 7.4 6.4 7.4h6.9c3.4 0 5.6 2.9 5.3 6.1-0.3 3.7-3.2 6.1-6.6 6.1h-39.7c-3.7 0-6.1-3.4-5-7.4 0.8-4 4.8-4.8 7.7-4.8 5.6 0 7.7-3.2 9.6-7.4l57.1-146.6c1.1-2.4 2.2-2.4 3.8-2.4h12.7c1.1 0 2.4 0.6 2.7 2.2l59.5 146.8c2.1 4.2 3.2 7.4 7.5 7.4h1.3c3.4 0 6.6 0.8 7.4 4.8zm-79.2-58.7l-20.5-55.5-19.9 55c-1.3 3.4 0.5 3.7 1.9 3.7h36.1c0.8 0 3.7 0.3 2.4-3.2zm-80.3-97.1c6.7-0.6 10.1 0.2 11.5 7.4l2.6 25.2c0 2.1 1.1 6.6-3.2 6.6-2.1 0-4 0.6-6.6-5-1.9-4-8.3-22.8-30.9-22-2.1 0-3.9 0-3.9 0-4.6 0-7.2 0.5-7.2 6.6 0 0 0 97.7 0 124.8 0 4.2 3.2 7.2 9.6 7.2h2.1c3.4 0 6.4 2.9 6.4 6.1 0 3.4-3 6.3-6.4 6.3h-65.4c-3.5 0-6.4-2.9-6.4-6.3 0-3.2 2.9-6.1 6.4-6.1h2.1c6.4 0 8.8-3.2 9.6-7.2 0.2-27.4 0-124.8 0-124.8 0-6.1-2.7-6.6-7.2-6.6 0 0-1.6 0-4 0-22.6-0.8-29 18-30.8 22-2.4 5.6-4.3 5-6.4 5-4.5 0-3.5-4.5-3.5-6.6l3-25.2c1.3-7.2 4.5-8 11.4-7.4zm-157.6-0.3c5.8 0 9.5 0.3 10.9 7.4l2.9 25.5c0 2.1 1 6.6-3.5 6.6-2.1 0-4 0.6-6.6-5.3-1.6-3.7-8-22.5-30.6-22-2.4 0-10.1 0-10.1 0-12.2 0-15.1 2.7-15.1 12v39.5c0 2.1-1.4 8 4.5 8h23.4c4.7 0 8.7-2.7 10.1-6.4 1.6-4 3.2-13.3 10.1-12.7 4 0 5.8 3.1 5.8 7.4v34.5c0 5.6-1 10.9-5.8 10.9-6.1 0-6.4-7.2-9.6-13.8-2.4-5.9-8.2-6.7-10.6-6.7h-23.4c-4 0-4.5 2.7-4.5 3.8 0 0-0.3 49.9 0.2 52.8 0.3 1.1 0.8 2.9 1.3 4.2 2.2 3.8 7.2 5.9 18.9 5.9 27.7 0 32.5-3.5 36.4-10.4 5.1-9.3 7.5-19.6 13.6-19.9 6.9-0.2 5.8 6.1 4.8 13.3-1.3 8.2-3.2 23.9-4 25.5-1.1 2.9-4 3.4-7.2 3.4h-117.7c-3.5 0-6.4-2.9-6.4-6.1 0-3.4 2.9-6.3 6.4-6.3h2.1c10.1 0 10.1-8 10.1-14.4l-0.6-109.4c0-6.6 0-14.6-10.1-14.6h-2.1c-3.4 0-6.1-2.6-6.1-6.1 0-3.4 2.7-6.6 6.1-6.6 0 0 65.7 0.5 106.4 0zm-628 82.3c4 0 6.7 2.6 6.7 6.1 0 3.4-2.7 6.4-6.1 6.4-0.6 0-0.8 0-1.1-0.3q-1 0.3-1.8 0.3c-6.2 0-6.7 6.9-6.7 10.9l0.3 44.6c0 7.9-25 15.6-57.7 17.5-38 2.4-97.8-10.1-98.1-82.9 0-18.5 5.3-52.8 40.4-73 15.7-9 30.6-14 53.4-14.6 19.4-0.5 35.4 3.5 46 6.9 1.6 0.6 4.8 1.1 5.3 4.3 1.9 8.7 3.2 15.9 4.6 20.4 0.8 6.4-0.6 9.3-7 9.1-9-0.3-6.6-29-48.9-29-36.7 0-48.6 39.6-49.1 69-0.6 29.2 8.2 76.5 49.1 78.1 13.3 0.5 20.2-1.3 20.2-10.4 0-9 2.2-45.1-1.8-48.5-2.4-1.9-5.1-2.4-8.8-2.7l-4.2 0.3c-4 0-7-3-7-6.4 0-3.5 3-6.1 6.4-6.1 1.1 0 64.9 0 65.9 0zm79.5-82.3c3.5 0 6.1 2.9 6.1 6.1 0 3.7-2.6 6.4-6.1 6.4h-5c-3.7 0.2-8.8 1.6-8.8 14.3v83.4c0 24.9 4.3 45.1 38.3 45.1 26.6 0 37.2-21 37.2-35.8l0.3-92.7c0-6.4 0.8-14.3-10.4-14.3h-2.1c-3.5 0-6.4-2.7-6.4-6.4 0-3.2 2.9-6.1 6.4-6.1h37.7c3.5 0 6.4 2.9 6.4 6.1 0 3.7-2.9 6.4-6.4 6.4h-4.8c-3.4 0.8-5.8 1.6-5.8 14.3v86.3c0 14.1-6.7 54.9-60.1 54.9-68 0-71.5-33.7-71.5-71.6v-69.6c0-6.4 0-14.3-10.4-14.3h-4.5c-3.4 0-6.1-2.7-6.1-6.4 0-3.2 2.7-6.1 6.1-6.1z"/>
			<path id="Path 27" class="s0" d="m326.8 75.2c-10.1 14.6-49.1 64-123.8 54.2-54.5-7.2-76.1-32.4-141.5-31.9-36.7 0.5-54.5 14.1-60.3 19.6l-0.8-0.5c2.9-5.3 10.6-16.2 25.8-26.8 18.6-14.1 51.6-25.5 94.1-21 36.4 4 64.3 18.9 101 26.8 38.8 8.5 76.6 7.7 104.7-21.2zm0 59.5c-9.8 14.8-49.1 63.9-123.8 54.1-54.5-6.9-76.1-32.4-141.5-31.6-36.6 0.6-54.5 13.8-60.3 19.7l-0.8-0.6c2.9-5.3 10.6-16.4 25.8-26.8 18.6-14 51.6-25.7 94.1-20.9 36.4 3.9 64.3 18.8 101 26.8 38.8 8.2 76.6 7.4 105-21.3zm0 59.8c-10.1 14.8-49.4 64-124.1 54.1-54.5-7.1-76.1-32.4-141.2-31.6-36.9 0.3-54.8 13.8-60.6 19.4l-0.8-0.5c3.2-5.3 10.9-16.2 25.8-26.8 18.6-13.8 51.6-25.5 94.1-20.7 36.4 3.7 64.3 18.5 101 26.5 38.8 8.5 76.6 7.7 105-21zm371.7-194c0 4-1.6 44.3-43.4 49.6-43.6 5.9-52.9-6.9-67 8h-0.2c1.6-4.3 14.9-34.8 37.2-36.4 20.7-1.6 57.4 4.5 73.4-21.2zm896.1 236.5c0 5.6-0.5 44.4-42 50.7-38.8 5.9-52.9-5-66.5 9.3l-0.2-0.2c2.6-5.9 16.7-34.8 35.6-36.7 21.8-2.4 56.6 2.9 72.6-23.1z"/>
			<path id="Path 28" fill-rule="evenodd" class="s0" d="m872.3 193.3c0 21.3-17.2 45.7-45.2 45.7h-96.7c-3.5 0-6.4-2.9-6.4-6.4 0-3.2 2.9-6.1 6.4-6.1h2.1c10.1 0 10.1-7.9 10.1-14.3l-0.5-109.1c0-6.4 0-14.4-10.1-14.4h-2.1c-3.5 0-6.2-2.9-6.2-6.3 0-3.5 2.7-6.4 6.2-6.4h60.8c31.1 0 74.5-6.1 74.2 37.2-0.3 24.6-18.9 32.6-35.4 34.5v0.5c15.7 1.6 42.3 9.6 42.8 45.1zm-83.7-50.1c6.4 0 35.6 3.7 35.1-33.2-0.3-17-16-21.8-24.5-21.8-12.2 0-15.1 2.4-15.1 12v34.7c0 2.2-1.1 8.3 4.5 8.3zm41.7 49.9c0-11.2-4.2-37.7-30.5-37.7-12 0-15.7-1.1-15.7 5.8v48.3c0 6.9-3.7 17.6 19.7 17.6 25.5 0 26.5-28.2 26.5-34zm216.7 40.1c0 3.4-3.2 6.3-6.7 6.3h-43.8c0 0-4.8 0.3-6.4-3.7-1.1-2.1-23.7-53.6-23.7-53.6-2.6-6.4-7.1-23.1-21.5-21.3l0.3 51.8c0 6.4-2.1 14.4 8 14.4h2.1c3.4 0 6.1 2.9 6.1 6.1 0 3.4-2.7 6.3-6.1 6.3h-64.9c-3.4 0-6.1-2.9-6.1-6.3 0-3.2 2.7-6.1 6.1-6.1h2.1c10.1 0 10.1-8 10.1-14.4v-109.9c0-6.4 0-14.3-10.1-14.3h-2.1c-3.4 0-6.1-2.7-6.1-6.4 0-3.2 2.7-6.1 6.1-6.1h84.8c5.9 0 47.3-0.8 47.3 40.3 0 20-11.1 34.6-38.2 38.5v0.3c9.8 3.2 19.1 11.7 23.6 21.5l22.1 43.3c2.4 3.4 6.1 7.2 9.8 7.2h0.5c3.5 0 6.7 2.9 6.7 6.1zm-65.4-123c-0.3-17-10.1-22-22.3-22-12.3 0-15.2 1.6-15.2 10.9v40.6c0 2.1-1 8 4.5 8 6.1 0 33.5 5.3 33-37.5z"/>
		</g>
	</g>
</svg>