<svg version="1.2" xmlns="http://www.w3.org/2000/svg" viewBox="0 0 1574 181" width="1574" height="181">
	<title>gerresheimer-dummy-teal-svg</title>
	<style>
		.s0 { fill: #ffffff } 
	</style>
	<g id="layer1">
		<path id="path24" fill-rule="evenodd" class="s0" d="m815.4 54.7c26.6-11.5 64.1-5.2 76.5 23.3 6.1 14.3 5 29.6 5 44.7v41.1c0 3.4 1.5 11.7-1.4 14-2 1.6-5.9 0.9-8.3 0.9-2.9 0-7.6 0.9-10.2-0.9-4.6-3-2-18.6-2-23.6 0-14.3 0.1-28.6 0-42.9-0.2-11.7-2.9-24.6-11.8-32.9-17.4-16.3-48.3-8.4-61 9.3-16.9 23.4-4.2 59.1-8 85.8-1 6.8-14.5 7.1-19.8 4.7-4.1-1.9-2.8-9-2.8-12.6v-154.1c0-2.6-0.8-6.9 0.9-9.1 3.4-4.4 16.1-1.4 21-1.4 4.1 22 0.6 46.8 0.9 69.2 7.3-5.2 12.5-11.8 21-15.5zm279.3-42c2 3 1 8.5 1 11.9 0 3.4 1.3 10.1-2 12.3-3.5 2.3-19.9 2.3-22.5-1.3-2-2.8-0.9-8.6-0.9-11.8 0-3.4-1.3-10.1 2-12.3 3.4-2.2 20-2.4 22.4 1.2zm-1083.3 83.7c-0.7-4.6-0.7-10.3 0.1-14.9 6.7-41.1 65.5-33.2 95.2-33.2h42.9c2.8 0 12.3-1.5 13.9 1.4 1.5 2.7-3.6 7.2-5 9.1-8 10.5-13.8 9.6-26.4 9.6 2.7 9.4 5.4 17.1 4.2 27.2-3.6 30-41 34.1-64.6 34.1-11.6 0-23.1-4.7-34.2-4.6-4 0.1-9.1 3.7-8.9 8.1 0.6 12.5 25.7 8.8 33.4 8.8 21.8 0 45.4-2.6 66.6 3.1 15.1 4.1 23.8 18.2 21 33.6-4.8 0-16.6 2.2-20.5-0.9-1.9-1.5-1.5-4.8-2.3-6.9-1.5-4-5.6-6.6-9.6-7.6-11.3-3.1-23.5-2.1-35-2.1-14.9 0-29.9-0.8-44.7 0.1-5.9 0.3-11.4 4.2-13.9 9.6-1 2-0.6 5.4-2.5 6.9-2.4 2-7.9 0.9-10.8 0.9-2.3 0-6.2 0.7-8.2-0.9-8-6.3 9.1-20.2 13.5-22.7v-0.9c-14.8-9.7-10.3-32.4 6.1-37.6-3.1-7-9.2-12.1-10.3-20.2zm281.4-3.5c1.3 5.7 4.4 22.5 0.5 27.4-3.3 4-18.8 1.5-23.7 1.5h-60.4c-5.5 0-17.9-2.3-22.5 0.9-3.4 2.4-0.1 10.2 1.1 13.1 10.8 25.3 46.7 29.4 68.7 17.3 12-6.6 18.9-29.2 34.5-13.8 3.6 3.6-0.5 9.9-2.5 13.2-6.2 9.9-16.1 17.2-26.8 21.8-28.5 12.3-71.5 6.8-90-20.1-18.3-26.7-12.8-71.1 12.1-91.6 10.1-8.4 23.3-11.4 35.9-13.1 31.8-4.3 65.6 10.5 73.1 43.4zm282.6 60.8c5.2-2.6 9.7-6.2 13.2-10.9 1.9-2.5 3.6-7 6.4-8.7 3.7-2.2 16.9 3.7 17.7 8 0.6 3.5-2.5 7.6-4.3 10.4-6 9.3-14.9 16.9-25.2 21.2-29.1 12.2-72.2 8.1-91.3-19.5-8.3-12-10.3-27-10.3-41.1 0.1-17.4 6.1-36.1 19.3-48 24.6-22.3 73.2-21.9 97.2 0.8 11.7 10.9 14.3 24.2 16.3 39.3 0.5 3.8 2.1 13.1-1.7 15.6-3.6 2.4-11.2 1-15.4 1h-92c0.3 35.2 43.5 45.2 70.1 31.9zm160.9-89.4c4.2 3.8 16.6 18.1 8.9 23.2-3.2 2.1-13.6 5.9-17.2 4.2-5.4-2.4-8.7-12.4-14.2-16.2-11.8-7.9-31.4-8.6-44.7-4.8-6.7 1.9-13.9 6.1-15.4 13.5-2.4 11.4 11.2 15.9 19.8 17.4 20.2 3.6 46.6 0.5 63.9 13.4 16 12 14.5 37.9 1.1 51.3-6.8 6.8-17.2 10.1-26.5 12-22.2 4.5-49.7 2-68.3-11.8-4.8-3.5-22.8-22.7-13.9-28.6 3.5-2.2 12.9-6 17-4.2 5.2 2.4 8.4 13.2 13.5 17.1 12.3 9.3 34.4 12.1 49.1 7.6 6.7-2 13.9-5.7 16.1-12.9 3.2-10.7-6.3-16.6-15.2-18.6-21.5-5.1-46.3-0.9-65.7-13.2-23.5-14.8-13.8-48.9 8.7-58.4 9-3.8 17.7-4.5 27.2-5.8 18.4-2.4 41.8 2.2 55.8 14.8zm270.9 90.5c5.6-2.8 10.5-6.4 14.4-11.2 2.2-2.8 4.1-7.6 7.1-9.5 3.8-2.3 17.1 3.6 18 7.9 0.7 3.4-2.4 7.8-4.2 10.5-5.9 8.7-14.3 16.1-23.9 20.5-28.7 13.4-72.9 9.2-92.2-17.9-8.9-12.5-12.3-29.7-10.5-44.7 1.8-15.4 4.2-29.9 15.3-42 22.5-24.6 71.2-25.8 97.1-6.1 13.5 10.3 20.1 27 20.1 43.8 0 3.7 1.5 11.5-1.4 14.3-2.9 2.9-10.6 1.4-14.4 1.4h-39.4c-18 0-36.3-0.7-54.3 0 0.3 33.4 42 45.8 68.3 33zm366.7-12c14.3 18.8 44.4 21 64.3 10.6 8.5-4.5 11.4-15 18.8-19.3 4-2.3 16.8 3.4 17.7 7.9 0.7 3.6-2.4 7.6-4.3 10.5-6.1 9.6-15.4 17.3-26 21.4-30.1 11.7-72.9 8-91.7-21.4-17.4-27.5-11.1-72.3 15.5-91.4 22.6-16.3 60.5-16 84.1-1.7 15.6 9.5 24.4 27.7 24.5 45.8 0 4.1 1.8 13.9-2.8 16-7.2 3.2-20.8 0.6-28.8 0.6h-50.8c-9 0-19.1-1.2-28 0.9 1.8 7.1 2.9 14.1 7.5 20.1zm-997.4-92.8c4.2-0.1 12.3-1.2 14.4 3.6 1.5 3.5 2 16.8-2.3 18.3-9.9 3.3-19.7-0.3-29.6 6.2-33 21.7-10.1 67.4-19.6 97.9-1.3 4.3-16.3 4-19.6 1.8-2.4-1.6-2-5.2-2-7.8v-85c0-8.6-2.2-20.5 0.4-28.7 1.5-4.8 16.8-5.1 19.7-1.4 3 3.8 1.1 12.4 2.7 17 6.3-12.8 21.7-21.5 35.9-21.9zm93.7 0c3.4 0 12.8-1.3 14.2 2.9 1.3 4.1-5 9-6.9 12-5.4 8.1-11 6.6-19.5 9.3-7.8 2.5-14.3 7.5-18.7 14.4-16.5 25.4-4.1 57.9-8.6 85.7-1 6.2-14.3 5.6-19 4.2-3.8-1.2-3.1-6.3-2.9-9.4 0.5-9.3 0.1-18.7 0.1-28v-63.1c0-5.2-2.4-18.8 0.9-23.1 2.8-3.4 15.1-1.4 19.3-1.4l0.8 17.5c13.5-10.8 21.6-20.9 40.3-21zm692.1 5.6c14.5-7.8 37.2-8.7 51.7-0.3 7.7 4.5 11.9 13.7 19.2 17.5 10.4-26.7 55.5-29.4 75.4-13.6 23.7 18.9 17.5 61.3 17.5 88 0 6.9 3.1 24.5-1.7 30-2.7 3.1-19.5 3.1-20.8-1.3-1.8-6-0.3-14.6-0.3-20.8 0-29.2 10-92.4-37.6-84.7-36.5 6-28.9 51-28.9 77.7v21.9c-0.1 2.9 0.4 6.8-2.8 8.2-2 0.9-4.7 0.5-6.9 0.5-3 0-8.3 1-10.9-0.9-4.8-3.6-2.2-19.1-2.2-24.5 0-24.3 10.2-75.1-21.9-82.6-4.1-1-9-0.9-13.2-0.4-38.1 4.6-30.6 54.4-30.6 81.3 0 5.8 2.7 21.1-0.9 25.7-2.8 3.5-20.1 2.8-20.9-2.1-2.5-14.6-0.1-31.6-0.1-46.4 0-23.3-2.1-47.7 0-70.9 0.6-5.7 15.7-6.6 19.6-3.5 2.8 2.3 1.4 9.9 1.4 13.1 5.3-3.7 9.2-8.8 14.9-11.9zm395.9-5.5c11.3-0.8 14.9 0.8 14.9 12.2 0 2.3 0.7 6.2-0.9 8.2-2.5 3.2-12.7 1.3-16.6 2.2-12.9 2.8-23.9 10-28.9 22.9-7.4 18.5-4.4 40.8-4.4 60.4 0 4.7 2.4 18.9-2 21.8-3.5 2.3-18.2 2.4-20.1-1.8-3.4-7.5-0.6-21.5-0.6-29.7v-63c0-7.6-2.4-20 0.5-27 1.8-4.3 16.9-5.3 19.6-1.5 2.5 3.6 0.9 12 0.9 16.2 12.9-9.2 20.3-19.7 37.6-20.9zm-463.7 7c2.4 8.3 0.3 20.1 0.3 28.8v62.2c0 5.9 3.2 26-2.1 29.6-3.4 2.4-18.2 2.5-20.1-1.7-3-6.9-0.5-19.6-0.5-27v-86.7c0-2.3-0.7-6.2 1.4-7.9 3.6-2.8 19.5-2.2 21 2.7zm-1055.2 46.3c12.8 10.8 32.4 11 48.1 8.5 17.8-2.7 39.9-21.1 20.6-38.1-10.9-9.5-31.4-10.6-45.1-8.6-17.1 2.4-45.1 20.2-23.6 38.2zm149-14.8c-1.3 2.7-5.3 10.5-2.2 13.1 3.7 3 15.8 0.9 20.5 0.9h42c6 0 14.2 1.4 20-0.3 8.1-2.4-3.9-20.3-6.9-23.2-10.6-10.2-28.9-12.7-42.9-10.4-12.5 2-24.8 8-30.5 19.9zm317 14h85.8c-0.4-46.7-84.9-46-85.8 0zm433.6 0h85.9c-0.1-46.7-85.5-45.9-85.9 0zm443.3-27.1c-6.5 4.3-11.6 10.8-13.8 18.3-0.6 2-2.2 6.1-0.4 7.9 2.5 2.3 10.1 0.9 13.3 0.9h71.8c-0.7-34.1-46.4-43.4-70.9-27.1z"/>
	</g>
</svg>