<svg version="1.2" baseProfile="tiny-ps" xmlns="http://www.w3.org/2000/svg" viewBox="0 0 1581 543" width="1581" height="543">
	<title>logo (4)-svg</title>
	<style>
		tspan { white-space:pre }
		.shp0 { fill: #ff3a00 } 
	</style>
	<path id="Layer" fill-rule="evenodd" class="shp0" d="M873.6 264.8L1052.55 532.55L886.27 532.55L786.36 374.43L685.7 532.55L523.15 532.55L702.1 267.04L530.61 10.48L696.88 10.48L788.6 157.4L882.54 10.48L1045.09 10.48L873.6 264.8ZM448.59 43.37L372.87 153.56C346.19 137.73 317.45 129.04 281.12 129.04C205.81 129.04 147.65 191.7 147.65 271.5L147.65 273C147.65 358.02 206.55 418.44 289.33 418.44C325.11 418.44 351.97 410.99 372.84 396.82L372.84 333.41L249.38 333.41L322.09 227.5L510.05 227.5L510.05 461.7C454.86 507.95 378.8 543 283.35 543C120.8 543 0 431.13 0 273L0 271.5C0 119.34 119.31 0 280.38 0C349.12 0 402.78 15.51 448.59 43.37ZM1580.04 270.01L1580.04 271.5C1580.04 421.42 1461.9 543 1304.36 543C1146.86 543 1030.18 422.9 1030.18 272.99L1030.18 271.5C1030.18 121.58 1148.31 0 1305.85 0C1463.35 0 1580.04 120.1 1580.04 270.01ZM1434.91 271.5C1434.91 195.43 1382.42 130.54 1304.36 130.54C1226.34 130.54 1174.56 194.67 1174.56 270.01L1174.56 271.5C1174.56 346.84 1227.79 412.46 1305.85 412.46C1383.13 412.46 1434.91 348.33 1434.91 272.99L1434.91 271.5Z" />
</svg>