<svg version="1.2" xmlns="http://www.w3.org/2000/svg" viewBox="0 0 1518 1308" width="1518" height="1308">
	<title>logo (58)-svg</title>
	<style>
		.s0 { fill: #005b66 } 
	</style>
	<g id="Layer">
		<path id="Layer" class="s0" d="m650.4 452.8c-101.7 62.3-205 0-282.1-73.8 23 6.5 59.1-6.6 82-21.4l469-316.6c101.7-62.3 205 0 282.1 73.8-23-6.5-59.1 6.6-82 21.4zm314.8 313.3c-101.6 62.3-205 0-282-73.8 22.9 6.5 59-6.6 82-21.3l470.6-316.7c101.7-62.3 205 0 282 73.9-22.9-6.6-59 6.5-81.9 21.3zm198.4 397c-228 226.4-639.6 182.1-920-98.4-282-282.2-324.7-694-98.4-920.4 142.7-142.7 360.8-177.1 572.3-113.2-150.8-18-298.4 26.3-405 132.9-201.7 201.8-178.7 549.6 50.8 779.3 229.6 229.6 577.3 252.6 779 50.8 106.5-106.6 149.2-255.9 132.8-405.2 65.6 211.6 31.1 429.8-111.5 574.2z"/>
	</g>
</svg>