<svg version="1.2" xmlns="http://www.w3.org/2000/svg" viewBox="0 0 1597 615" width="1597" height="615">
	<title>halozyme-svg</title>
	<style>
		.s0 { fill: #77787b } 
		.s1 { fill: #0080c7 } 
		.s2 { fill: #37b34a } 
	</style>
	<g id="logo_text">
		<path id="Path_11" fill-rule="evenodd" class="s0" d="m508.5 181.5h18.1v75.9h92v-75.9h18.1v180.9h-18.1v-87.3h-92v87.3h-18.1zm287.1 47v133.8h-17v-23q-2.4 3.1-5.2 5.9-2.8 2.8-5.8 5.3-3.1 2.5-6.4 4.6-3.3 2.2-6.8 4c-6.4 3-13.2 5.1-20.2 6-7 1-14.1 0.8-21.1-0.4-6.9-1.3-13.6-3.6-19.8-6.9-6.3-3.3-12-7.6-16.9-12.7-3.2-3.2-6.2-6.8-8.7-10.7-2.5-3.9-4.7-8-6.4-12.3-1.7-4.3-3-8.7-3.9-13.3-0.8-4.5-1.2-9.1-1.1-13.8 0-4.5 0.4-9.1 1.2-13.6 0.9-4.5 2.2-8.9 3.9-13.1 1.7-4.3 3.9-8.3 6.5-12.1 2.5-3.8 5.4-7.4 8.7-10.6 3.1-3.3 6.6-6.2 10.3-8.8 3.8-2.6 7.8-4.8 12-6.5 4.2-1.8 8.5-3.1 13-4 4.4-0.9 9-1.3 13.5-1.2q3.9-0.1 7.7 0.4 3.9 0.4 7.6 1.3 3.8 0.9 7.4 2.2 3.7 1.3 7.1 3.1 3.5 1.9 6.8 4.2 3.2 2.3 6.2 4.9 2.9 2.7 5.5 5.7 2.7 3 4.9 6.2v-24.6zm-68.7 13.2c-4.7 0-9.3 0.6-13.8 1.8-4.5 1.2-8.8 3-12.9 5.3-4 2.4-7.7 5.3-10.9 8.6-3.3 3.3-6 7.1-8.3 11.2-2.3 4.1-4.1 8.5-5.3 13-1.3 4.6-1.9 9.3-1.9 14 0 4.7 0.7 9.4 1.9 14 1.2 4.5 3 8.9 5.4 13q1.7 3.1 3.8 6 2.1 2.8 4.5 5.4 2.5 2.5 5.3 4.7 2.8 2.2 5.8 4 3 1.7 6.2 3.1 3.1 1.4 6.4 2.3 3.4 0.9 6.8 1.3 3.4 0.5 6.8 0.5 3.5 0 7-0.5 3.5-0.4 6.9-1.3 3.4-0.9 6.6-2.3 3.3-1.3 6.3-3 3.1-1.7 5.8-3.8 2.8-2.1 5.3-4.5 2.5-2.5 4.6-5.2 2.1-2.8 3.8-5.8 1.7-3.1 3-6.5 1.3-3.3 2.2-6.8 0.8-3.4 1.2-7 0.4-3.5 0.4-7.1 0.1-5.4-0.8-10.7-0.9-5.2-2.9-10.2-2-5-4.9-9.6-2.9-4.5-6.7-8.3-3.6-3.8-8-6.8-4.3-2.9-9.2-4.9-4.8-2.1-10-3-5.2-1-10.4-0.9zm98.6-64.8h17.3v185.4h-17.3zm105 48.1c4.8-0.1 9.6 0.3 14.3 1.3 4.8 0.9 9.4 2.3 13.8 4.3 4.4 1.9 8.6 4.3 12.5 7.1 3.9 2.9 7.4 6.1 10.6 9.7 6 6.7 10.7 14.3 13.9 22.7 3.1 8.4 4.7 17.2 4.6 26.2-0.1 8.9-1.9 17.7-5.2 26-3.3 8.3-8.2 15.9-14.3 22.4-6.6 6.7-14.4 11.9-23 15.5-8.7 3.6-17.9 5.5-27.3 5.5-9.3 0-18.5-1.9-27.2-5.5-8.6-3.6-16.4-8.8-23-15.5-6.1-6.5-11-14.1-14.3-22.3-3.3-8.3-5.1-17.1-5.2-26.1-0.1-8.9 1.5-17.7 4.6-26.1 3.2-8.3 7.9-16 13.9-22.6 3.2-3.7 6.7-6.9 10.6-9.8 3.9-2.8 8.1-5.3 12.5-7.2 4.5-1.9 9.1-3.4 13.8-4.3 4.8-1 9.6-1.4 14.4-1.3zm-0.1 16.9q-5.1-0.1-10.2 0.9-5.1 1.1-9.9 3.1-4.7 2.1-9 5.1-4.2 2.9-7.7 6.7-3.8 3.8-6.7 8.3-2.9 4.4-4.9 9.3-2 5-3 10.2-0.9 5.3-0.8 10.6-0.1 3.5 0.4 7 0.4 3.5 1.3 7 0.9 3.4 2.2 6.7 1.3 3.3 3.1 6.3 1.6 3 3.7 5.8 2 2.8 4.4 5.2 2.4 2.5 5.2 4.6 2.7 2.1 5.7 3.8c4 2.2 8.2 3.9 12.7 5.1 4.4 1.1 9 1.7 13.6 1.7 4.5 0 9.1-0.6 13.5-1.7 4.5-1.2 8.7-2.9 12.7-5.1q3-1.7 5.7-3.8 2.8-2.1 5.2-4.6 2.4-2.4 4.4-5.2 2.1-2.8 3.7-5.8 1.8-3 3.1-6.3 1.3-3.3 2.2-6.7 0.9-3.5 1.3-7 0.5-3.5 0.5-7 0-5.3-0.9-10.6-1-5.2-3-10.2-2-4.9-4.9-9.3-3-4.5-6.7-8.3-3.6-3.8-7.8-6.7-4.2-3-9-5.1-4.7-2-9.8-3c-3.4-0.7-6.8-1-10.3-1zm73.1-13.4h98.2l-75.7 118.4h73.3v15.3h-102.9l75.7-118.6h-68.6zm98.5 0h18.1l46 103 44.6-103h18.3l-79.7 182.7h-18.2l25.8-59.1zm138.7 0h17.2v23.1q1.9-2.7 3.9-5.3 2.1-2.6 4.4-4.9 2.4-2.4 4.9-4.5 2.6-2.1 5.3-4 3.1-1.9 6.4-3.3 3.3-1.5 6.8-2.5 3.4-1 7-1.5 3.6-0.5 7.2-0.6 2.4 0 4.8 0.3 2.3 0.2 4.7 0.7 2.3 0.5 4.5 1.2 2.3 0.7 4.5 1.7 2 0.8 4 1.9 1.9 1 3.7 2.3 1.8 1.3 3.4 2.8 1.7 1.4 3.2 3.1 1.6 2 3 4.2 1.4 2.1 2.6 4.4 1.2 2.3 2.2 4.7 1 2.4 1.8 4.9 1.8-3.7 4.1-7 2.3-3.3 5.1-6.4 2.7-3 5.8-5.7 3-2.6 6.4-4.8 3.1-2 6.4-3.6 3.4-1.5 6.9-2.5 3.5-1.1 7.1-1.6 3.7-0.5 7.3-0.5 3.3-0.1 6.5 0.3 3.2 0.5 6.3 1.3 3.1 0.9 6.1 2.3 2.9 1.3 5.6 3.1 2.7 1.8 5 3.9 2.4 2.2 4.4 4.6 2 2.5 3.6 5.3 1.6 2.8 2.8 5.7 1.5 4.6 2.6 9.2 1.1 4.7 1.7 9.4 0.7 4.7 0.9 9.5 0.2 4.8 0 9.5v73.1h-17.7v-73.1q0.2-3.7 0.1-7.4 0-3.7-0.4-7.5-0.4-3.7-1.1-7.3-0.7-3.7-1.6-7.3-0.8-2-1.8-3.9-1.1-1.8-2.4-3.4-1.3-1.7-2.9-3.1-1.6-1.4-3.4-2.6-2-1.2-4.1-2.2-2.1-0.9-4.4-1.6-2.2-0.6-4.5-0.9-2.4-0.3-4.7-0.2-3.1 0-6.1 0.5-3 0.4-5.9 1.4-2.9 0.9-5.6 2.3-2.8 1.4-5.2 3.2-2.6 1.8-4.9 4-2.3 2.2-4.2 4.7-1.9 2.5-3.4 5.2-1.6 2.8-2.7 5.7-1.4 5-2.4 10.1-1.1 5.1-1.7 10.3-0.5 5.1-0.7 10.3-0.2 5.2 0.1 10.4v52.4h-17.2v-68.5q0.2-4.1 0.1-8.3-0.1-4.1-0.5-8.3-0.3-4.1-1-8.2-0.7-4.1-1.6-8.1-0.7-2.1-1.8-4.1-1-1.9-2.4-3.7-1.3-1.8-2.9-3.3-1.6-1.5-3.4-2.8-2-1.3-4.1-2.3-2.2-1-4.4-1.7-2.3-0.7-4.6-1-2.4-0.3-4.8-0.2-2.9 0-5.9 0.5-2.9 0.4-5.8 1.4-2.8 0.9-5.5 2.2-2.6 1.4-5.1 3.1-2.5 1.8-4.8 3.9-2.3 2.2-4.3 4.6-1.9 2.5-3.5 5.2-1.6 2.7-2.7 5.6-1.5 4.5-2.5 9.2-1.1 4.6-1.7 9.2-0.6 4.7-0.8 9.5-0.2 4.7 0 9.4v56.7h-17.3zm337.3 89.3l14.5 7.6q-1.6 3.2-3.4 6.2-1.8 3-3.9 5.9-2 2.8-4.3 5.5-2.4 2.6-4.9 5.1-2.3 2.1-4.8 4-2.4 1.9-5.1 3.5-2.6 1.7-5.4 3-2.8 1.4-5.7 2.5-3.2 1.2-6.5 2.1-3.2 0.9-6.6 1.4-3.3 0.6-6.7 0.8-3.3 0.3-6.7 0.2c-4.8 0.3-9.6 0-14.3-0.8-4.7-0.8-9.3-2.2-13.7-4-4.4-1.9-8.6-4.2-12.5-7-3.9-2.8-7.5-6-10.7-9.6q-4.4-5-7.9-10.6-3.4-5.7-5.8-11.9-2.4-6.3-3.6-12.8-1.1-6.6-1.1-13.2-0.1-6.1 0.9-12.2 1-6 3-11.8 2-5.8 4.9-11.2 3-5.4 6.8-10.2c3.1-4 6.6-7.7 10.6-10.9 3.9-3.3 8.2-6 12.8-8.2 4.6-2.2 9.5-3.8 14.4-4.9 5-1 10.1-1.5 15.2-1.3 5.3-0.2 10.5 0.3 15.6 1.4 5.2 1 10.1 2.7 14.9 5 4.7 2.2 9.2 5 13.2 8.3 4.1 3.3 7.8 7.1 10.9 11.2q3.8 4.9 6.6 10.4 2.8 5.4 4.7 11.3 1.9 5.8 2.8 11.9 0.9 6 0.7 12.2h-120.3q-0.1 5.2 0.8 10.4 1 5.2 2.9 10.1 1.9 5 4.7 9.4 2.8 4.5 6.5 8.3 3.4 3.6 7.5 6.4 4.1 2.9 8.7 4.8 4.5 1.9 9.4 2.9 4.9 0.9 9.9 0.8 2.5 0 5.1-0.2 2.5-0.3 5-0.7 2.5-0.4 4.9-1.1 2.5-0.7 4.9-1.6 2.2-0.8 4.4-1.7 2.2-1 4.2-2.2 2.1-1.2 4-2.6 2-1.3 3.8-2.9 2.2-2.1 4.2-4.3 2-2.2 3.9-4.6 1.8-2.4 3.5-4.9 1.6-2.5 3.1-5.2zm0-36q-0.7-3-1.6-5.9-1-2.9-2.3-5.6-1.2-2.8-2.8-5.4-1.5-2.7-3.3-5.1-1.8-2.1-3.8-4.1-2-1.9-4.2-3.5-2.2-1.7-4.5-3.1-2.4-1.4-4.9-2.6-2.7-1.2-5.5-2.2-2.8-0.9-5.6-1.6-2.9-0.6-5.8-0.9-2.9-0.3-5.9-0.3-4.6-0.1-9.2 0.7-4.6 0.8-8.9 2.4-4.4 1.6-8.3 4-4 2.4-7.4 5.5-2.9 2.8-5.4 6-2.4 3.2-4.4 6.7-2 3.5-3.4 7.3-1.5 3.7-2.5 7.7z"/>
	</g>
	<g id="logo_mark">
		<path id="Path_21" class="s1" d="m207.9 245.4c-15 45.1-103.5 261.5-123.4 310.2h-2c9.4-44.7 48.2-231.7 64.6-326.3 20.9-119.5-135.4-41.2-127.4 34.6 1.9 17.8 23.8 49.8 106.3 11l-1 4.1c-61.9 39.8-107 28.7-122.3-5.6-17.4-65.2 53.4-149.3 134.7-160.3 86.6-11.6 86.7 83.7 70.5 132.3z"/>
		<path id="Path_19" class="s2" d="m244.8 100.4c-6.1-3.8-11.3-8.9-15.3-14.8-4.1-5.8-7-12.5-8.5-19.5-1.5-7-1.6-14.2-0.3-21.3 3.9-21.7 20.5-38.9 42.1-43.6 21.6-4.6 43.8 4.2 56.4 22.3 12.5 18.1 12.9 42.1 1 60.6-12 18.6-33.9 28.1-55.6 24.1-7.1-1.2-13.8-3.9-19.8-7.8zm90.9 135.6c-25 39.2-43.3 74.6-53.8 92.6l-165.8 286.2h-2.3c13.5-38.2 63.8-179.8 111-299 22.5-35.9 67.3-70.9 110.9-79.8zm265-170.5v2.7c-99.5-25.7-181.3 50.4-238.4 128.7q7.8-0.2 15.6 0.4 7.8 0.7 15.4 2.2 7.7 1.5 15.1 3.9 7.5 2.4 14.6 5.6c4.5 1.8 8.7 4.2 12.4 7.3 3.7 3.1 6.9 6.8 9.4 10.9 2.6 4.1 4.4 8.6 5.5 13.3 1.1 4.7 1.5 9.6 1 14.4-1.7 29-33.6 67.4-90.9 93.7h-6.1c39.7-24.6 61.6-54.9 63-78.8 1.1-18.9-9-33.5-31.1-41.3-46.7-16.4-90.4 0.5-131.6 15.5-0.2 0.1-19.7 7.2-19.7 7.2l1.3-4.3c0 0 2.6-1.9 4.7-3.5q5-4.8 9.6-10 4.7-5.3 8.8-10.9 4.2-5.6 7.9-11.5 3.7-5.9 6.9-12.2 2.9-6.4 6-12.8 3.1-6.5 6.4-12.8 3.3-6.3 6.8-12.4 3.5-6.2 7.3-12.3c56.1-87.7 191.7-147 300.1-83z"/>
	</g>
</svg>