<svg version="1.2" xmlns="http://www.w3.org/2000/svg" viewBox="0 0 1564 1538" width="1564" height="1538">
	<title>Happiest_Minds_New_Logo-svg</title>
	<style>
		.s0 { fill: #39b34a } 
		.s1 { fill: #fee600 } 
	</style>
	<g id="#39b34aff">
		<path id="Layer" class="s0" d="m710.7 4.1c46.3-4.8 93.1-4.8 139.3 0c-0.2 82.8 0.1 165.6-0.1 248.4c0 26 0.1 52 0 78c-46.3 0.1-92.6-0.1-138.9 0.1c-0.4-26.1-0.1-52.1-0.2-78.1c-0.1-82.8 0.1-165.6-0.1-248.4z"/>
		<path id="Layer" class="s0" d="m236.6 252.1c29.1-36 63.3-68 99.4-97c31.9 32.2 63.3 64.9 94.9 97.4c44.4 45.7 89 91.2 133.1 137.2c-33.4 31.8-66.2 64.4-99.6 96.3c-76-78-151.5-156.3-227.8-233.9z"/>
		<path id="Layer" class="s0" d="m1129.1 252.5c31.7-32.4 63.1-65.2 95-97.4c36.1 29 70.1 61.1 99.5 97c-76.4 77.5-152 155.8-227.8 233.9c-33.5-31.8-66.3-64.5-99.8-96.3c44.2-46 88.8-91.4 133.1-137.2z"/>
		<path id="Layer" class="s0" d="m745.1 466.9c57.5-8.5 117.8 3.5 167.3 34c47.6 29 84.8 74.4 104 126.6c17.6 48 20.2 101.3 6.9 150.7c-13.4 51.2-43.8 97.7-85.2 130.6c-43.5 35.1-99.1 54.8-155.1 54.7c-65.5 0.7-130.8-25.8-177-72.3c-34-33.3-57.8-76.7-68.1-123.2c-12.4-56.7-5-117.7 22.2-169.2c35.8-70.2 106.9-120.9 185-131.9z"/>
		<path id="Layer" class="s0" d="m0.3 771.7c2.3-46.6 8.8-93.2 20-138.6c39.4 10.5 78.8 20.9 118.2 31.3c47.6 12.5 95.1 25.2 142.7 37.7c35.7 122.5 118 230.5 226.7 297.4c115.6 72.4 260.4 96.1 393.1 64.3c95.4-22.3 183.9-72.3 252.4-142.1c60.2-61.1 105-137.3 129.2-219.6c47.7-12.5 95.3-25.2 142.9-37.7c39.5-10.3 78.7-21.5 118.4-30.9c10.5 45.4 17.5 91.7 19.6 138.3c-46 12.1-92 24.3-138 36.6c-11 27-20.9 54.5-34.5 80.4c-79.7 162.4-227.6 289.6-400.1 344.4c32.7 101.5 65.6 203.1 98.2 304.7c-204.9 0-409.8 0-614.6 0c32.8-101.5 65.6-203.1 98.4-304.6c-112.7-36.3-215.5-102.5-294.9-190.3c-61.8-67.7-108.9-148.4-139.5-234.8c-46.1-11.8-92.1-24.3-138.2-36.5z"/>
	</g>
	<g id="#fee600ff">
		<path id="Layer" fill-rule="evenodd" class="s1" d="m138.3 252.7c32.8-0.8 65.5 0.3 98.3-0.6c76.3 77.6 151.8 155.9 227.8 233.9c33.4-31.9 66.2-64.5 99.6-96.3c-44.1-46-88.7-91.5-133.1-137.2c93.3-0.1 186.6 0 279.9 0c0.1 26-0.2 52 0.2 78.1c46.3-0.2 92.6 0 138.9-0.1c0.1-26 0-52 0-78c93.1 0 186.2-0.1 279.2 0c-44.3 45.8-88.9 91.2-133.1 137.2c33.5 31.8 66.3 64.5 99.8 96.3c75.8-78.1 151.4-156.4 227.8-233.9c34 0.8 68 0.1 102 0.4c-0.1 137.3 0 274.5-0.1 411.9c-47.6 12.5-95.2 25.2-142.9 37.7c-24.2 82.3-69 158.5-129.2 219.6c-68.5 69.8-157 119.8-252.4 142.1c-132.7 31.8-277.5 8.1-393.1-64.3c-108.7-66.9-191-174.9-226.7-297.4c-47.6-12.5-95.1-25.2-142.7-37.7c-0.2-137.2 0.1-274.4-0.2-411.7zm606.8 214.2c-78.1 11-149.2 61.7-185 131.9c-27.2 51.5-34.6 112.5-22.2 169.2c10.3 46.5 34.1 89.9 68.1 123.2c46.2 46.5 111.5 73 177 72.3c56 0.1 111.6-19.6 155.1-54.7c41.4-32.9 71.8-79.4 85.2-130.6c13.3-49.4 10.7-102.7-6.9-150.7c-19.2-52.2-56.4-97.6-104-126.6c-49.5-30.5-109.8-42.5-167.3-34z"/>
		<path id="Layer" class="s1" d="m138.5 808.2c30.6 86.4 77.7 167.1 139.5 234.8c79.4 87.8 182.2 154 294.9 190.3c-32.8 101.5-65.6 203.1-98.4 304.6c-112.1-0.1-224.1 0.2-336.1-0.2c0.2-243.1-0.2-486.3 0.1-729.5z"/>
		<path id="Layer" class="s1" d="m1391 888.8c13.6-25.9 23.5-53.4 34.5-80.4c0.1 243.1 0 486.3 0.1 729.5c-112.2 0-224.3 0-336.5 0c-32.6-101.6-65.5-203.2-98.2-304.7c172.5-54.8 320.4-182 400.1-344.4z"/>
	</g>
</svg>