<svg version="1.2" baseProfile="tiny-ps" xmlns="http://www.w3.org/2000/svg" viewBox="0 0 1603 267" width="1603" height="267">
	<title>Hornbach_Logo_black-svg</title>
	<defs>
		<clipPath clipPathUnits="userSpaceOnUse" id="cp1">
			<path d="M1349.36 14.84L1586.75 14.84L1586.75 251.98L1349.36 251.98L1349.36 14.84Z" />
		</clipPath>
	</defs>
	<style>
		tspan { white-space:pre }
		.shp0 { fill: #231f20 } 
		.shp1 { fill: #f7911a } 
		.shp2 { fill: #c40070 } 
		.shp3 { fill: #ffffff } 
	</style>
	<g id="g2">
		<path id="path14" class="shp0" d="M0 266.67L1601.65 266.67L1601.65 0L0 0L0 266.67Z" />
		<path id="path16" class="shp1" d="M14.63 251.98L1334.79 251.98L1334.79 14.8L14.63 14.8L14.63 251.98L14.63 251.98Z" />
		<path id="path60" class="shp2" d="M1349.36 251.98L1586.75 251.98L1586.75 14.84L1349.36 14.84L1349.36 251.98L1349.36 251.98Z" />
		<g id="Clip-Path: g6" clip-path="url(#cp1)">
			<g id="g6">
				<path id="path70" class="shp1" d="M1311.75 273.1L1603.6 -18.31L1619.88 -2.07L1328.03 289.34L1311.75 273.1Z" />
				<path id="path72" class="shp1" d="M1287.34 248.76L1579.2 -42.65L1595.48 -26.4L1303.63 265L1287.34 248.76" />
				<path id="path74" class="shp1" d="M1262.95 224.42L1554.8 -66.98L1571.08 -50.74L1279.23 240.66L1262.95 224.42Z" />
				<path id="path76" class="shp1" d="M1238.55 200.08L1530.4 -91.32L1546.68 -75.08L1254.83 216.32L1238.55 200.08" />
				<path id="path78" class="shp1" d="M1802.59 415.11L1510.45 123.7L1526.74 107.44L1818.87 398.85L1802.59 415.11Z" />
				<path id="path80" class="shp1" d="M1778.19 439.47L1486.06 148.06L1502.34 131.81L1794.47 423.21L1778.19 439.47Z" />
				<path id="path82" class="shp1" d="M1753.79 463.83L1461.66 172.43L1477.94 156.17L1770.07 447.58L1753.79 463.83Z" />
				<path id="path84" class="shp1" d="M1729.39 488.2L1437.26 196.79L1453.54 180.53L1745.67 471.94L1729.39 488.2Z" />
			</g>
		</g>
		<g id="g8">
			<path id="path122" fill-rule="evenodd" class="shp3" d="M303.29 41.95C308.8 41.91 314.42 42.28 320.14 43.04C347.49 47.44 374.87 63.71 388.99 89.7C406.19 120.09 400.87 164.62 378.81 191.05C355.43 218.36 322.81 228.49 287.07 223.2C260.16 218.79 232.8 202.52 220.45 176.08C204.57 147.45 205.87 103.82 227.49 78.27C247.22 54.11 273.55 42.18 303.29 41.95ZM723.02 47.8L801.86 47.8C811.52 47.8 820.54 52.29 827.43 59.73C840.16 73.44 841.22 98.52 832.84 114.82C829.75 120.11 824.87 124.07 819.58 127.16C831.93 129.36 847.31 137.51 850.73 149.69C855.78 167.67 856.56 189.63 841.33 204.83C830.63 215.52 822.3 218.71 799.64 218.71C772.98 218.71 748.59 218.8 723.11 218.8L723.02 47.8ZM912.22 47.44L960.32 47.44L1025.17 218.8L977.53 218.8L966.95 189.28L905.18 189.28L893.24 218.8L846.51 218.8L912.22 47.44ZM768.85 81.81L768.85 114.37C778.11 114.37 787.83 115.25 794.01 108.2C797.54 104.24 798.39 98.4 796.64 92.38C793.41 81.25 779.43 81.81 768.85 81.81ZM485.45 47.44C495.75 47.44 505.47 53.04 513.84 58.86C531.92 72.96 535.01 96.76 529.28 117.91C525.31 132.88 510.29 146.1 494.85 148.74L548.26 211.23L548.22 47.44L588.82 47.44L670.97 152.96C670.97 118.82 670.88 82.69 670.88 47.89L716.66 47.89L716.66 218.8L670.88 218.8L589.5 114.5L589.36 218.8L493.08 218.8C478.96 196.77 465.31 174.76 450.75 152.73L450.75 218.8L406.2 218.8L406.2 47.44L485.45 47.44ZM1102.61 41.77C1115.03 41.58 1127.32 43.64 1137.99 48.34L1138.12 103.44C1125.77 87.14 1105.93 82.68 1086.08 87.52C1073.72 91.05 1061.38 101.63 1056.96 113.96C1050.35 132.46 1052.97 155.35 1068.41 169.01C1079.88 178.7 1095.31 182.69 1111.19 179.17C1121.34 176.97 1130.62 170.77 1138.12 162.84L1138.12 215.72C1109.89 228.05 1071.49 224.95 1046.34 207.33C1015.45 187.06 1003.13 152.73 1008.87 117.04C1013.28 84.44 1042.81 54.05 1074.13 46.12C1083.2 43.42 1092.95 41.91 1102.61 41.77L1102.61 41.77ZM304.97 84.94C278.32 84.94 256.74 106.49 256.74 133.1C256.74 159.7 278.32 181.25 304.97 181.25C331.61 181.25 353.2 159.7 353.2 133.1C353.2 106.49 331.61 84.94 304.97 84.94ZM49.69 47.44L49.69 47.44L49.69 47.44L49.69 47.44ZM93.83 47.44L93.83 113.05C115.09 113.05 137.52 113.1 159.14 113.1C159.14 91.52 159.09 69.44 159.09 47.44L203.24 47.44L203.24 218.8L159.09 218.8L159.09 148.7C137.87 148.7 116.77 148.74 94.24 148.74L94.24 218.8L49.69 218.8L49.69 47.44L93.83 47.44ZM455.43 81.67C453.88 81.68 452.3 81.75 450.75 81.81L450.75 124.07C461.19 123.83 475.18 124.18 482.68 114.05C486.65 108.32 486.76 98.65 483 92.78C476.82 83.15 466.26 81.61 455.43 81.67ZM936.07 100.72L917.95 154.91C929.86 154.91 942.63 154.91 954.46 154.91L936.07 100.72ZM1254.16 47.44L1298.71 47.44L1298.71 218.8L1254.61 218.8L1254.61 149.19C1233.36 149.19 1210.4 149.33 1189.26 149.33C1189.26 171.72 1189.31 195.29 1189.31 218.8L1145.21 218.8L1145.21 47.8L1189.31 47.8L1189.31 113.55C1210.55 113.55 1232.54 113.51 1254.16 113.51L1254.16 47.44L1254.16 47.44ZM768.85 148.33L768.85 184.43C782.08 183.99 796.2 186.64 805.91 176.95C809.88 172.54 810.29 164.17 808.09 158.44C800.14 145.23 782.96 149.21 768.85 148.33Z" />
			<path id="path120" fill-rule="evenodd" class="shp0" d="M302.11 35.65C339.56 35.07 372.26 51.73 392.94 83.53L400.02 98.54L399.98 41.72L483.41 41.72C502.67 41.72 520.01 51.82 530.59 68.11C540.74 85.3 540.31 113.06 531.05 130.24C525.31 139.49 515.58 148.75 505.43 152.28L542.49 195.45L542.36 41.72L591.5 41.72C616.92 73.61 641.58 104.63 665.84 135.91L665.62 41.72L721.2 41.72L798.78 41.68C818.24 41.68 830.68 50.49 838.7 65.85C847.89 83.48 847.8 109.98 833.25 124.07C849.13 130.68 860.18 147.01 860.18 163.75L906.5 44.81L907.73 41.68L965.27 41.68L1002.24 140.9L1001.78 136.86C999.58 100.3 1018.11 67.71 1049.88 49.21C1074.59 34.67 1111.89 32.53 1138.58 41.68L1142.53 41.72L1195.48 41.68L1195.48 107.79L1248.44 107.79L1248.62 41.68L1304.03 41.68L1304.03 224.56L1248.44 224.56L1248.44 154.5L1195.48 154.5L1195.53 224.51C1195.53 224.51 1140.63 224.56 1137.85 224.56C1098.67 235.51 1057.43 230.52 1031.58 204.15L1021.45 193.09C1024.36 200.99 1032.67 224.51 1032.67 224.51L973.63 224.51C970.02 215.38 966.25 205.12 962.09 194.99L909.59 194.99L897.74 224.51L838.83 224.51C839.8 221.62 844.69 208.78 844.69 208.78C838.18 216.59 830.64 224.56 799.5 224.56C785.91 224.56 722.85 224.51 717.66 224.51L668.7 224.51C643.11 194.12 619.11 160.93 594.4 129.65L594.4 224.51L490.9 224.51C477.67 208.66 467.96 190.59 456.93 173.41L456.02 171.69L455.98 224.51L400.43 224.56L400.43 165.47C389.85 199.39 352.81 228.5 316.19 229.82C277.8 233.34 242.95 220.58 220.45 188.42C215.59 181.37 212.5 173.87 209.41 166.38L208.5 163.66L208.46 224.51L152.92 224.56L152.92 154.5L99.55 154.5L99.55 224.51L44.37 224.51L44.37 41.72L99.6 41.72L99.55 107.7L152.92 107.7L153.01 41.72L208.46 41.72L208.5 97.64C222.62 65.04 257.95 37.73 294.57 35.96C297.1 35.77 299.61 35.69 302.11 35.65L302.11 35.65ZM227.49 78.27C205.87 103.82 204.57 147.45 220.45 176.08C232.8 202.52 260.16 218.79 287.07 223.2C322.81 228.49 355.43 218.36 378.81 191.05C400.87 164.62 406.19 120.09 388.99 89.7C374.87 63.71 347.49 47.44 320.14 43.04C314.42 42.28 308.8 41.91 303.29 41.95C273.55 42.18 247.22 54.11 227.49 78.27ZM723.11 218.8C748.59 218.8 772.98 218.71 799.64 218.71C822.3 218.71 830.63 215.52 841.33 204.83C856.56 189.63 855.78 167.67 850.73 149.69C847.31 137.51 831.93 129.36 819.58 127.16C824.87 124.07 829.75 120.11 832.84 114.82C841.22 98.52 840.16 73.44 827.43 59.73C820.54 52.29 811.52 47.8 801.86 47.8L723.02 47.8L723.11 218.8ZM808.09 158.44C810.29 164.17 809.88 172.54 805.91 176.95C796.2 186.64 782.08 183.99 768.85 184.43L768.85 148.33C782.96 149.21 800.14 145.23 808.09 158.44ZM846.51 218.8L893.24 218.8L905.18 189.28L966.95 189.28L977.53 218.8L1025.17 218.8L960.32 47.44L912.22 47.44L846.51 218.8ZM954.46 154.91C942.63 154.91 929.86 154.91 917.95 154.91L936.07 100.72L954.46 154.91ZM796.64 92.38C798.39 98.4 797.54 104.24 794.01 108.2C787.83 115.25 778.11 114.37 768.85 114.37L768.85 81.81C779.43 81.81 793.41 81.25 796.64 92.38ZM774.57 108.65C779.86 108.21 786.04 107.8 790.01 103.39C792.66 99.87 791.84 92.96 788.37 90.65C784.4 88.01 779.86 87.96 774.57 87.52L774.57 108.65ZM406.2 47.44L406.2 218.8L450.75 218.8L450.75 152.73C465.31 174.76 478.96 196.77 493.08 218.8L589.36 218.8L589.5 114.5L670.88 218.8L716.66 218.8L716.66 47.89L670.88 47.89C670.88 82.69 670.97 118.82 670.97 152.96L588.82 47.44L548.22 47.44L548.26 211.23L494.85 148.74C510.29 146.1 525.31 132.88 529.28 117.91C535.01 96.76 531.92 72.96 513.84 58.86C505.47 53.04 495.75 47.44 485.45 47.44L406.2 47.44ZM483 92.78C486.76 98.65 486.65 108.32 482.68 114.05C475.18 124.18 461.19 123.83 450.75 124.07L450.75 81.81C452.3 81.75 453.88 81.68 455.43 81.67C466.26 81.61 476.82 83.15 483 92.78ZM353.2 133.1C353.2 159.7 331.61 181.25 304.97 181.25C278.32 181.25 256.74 159.7 256.74 133.1C256.74 106.49 278.32 84.94 304.97 84.94C331.61 84.94 353.2 106.49 353.2 133.1ZM1102.61 41.77C1092.95 41.91 1083.2 43.42 1074.13 46.12C1042.81 54.05 1013.28 84.44 1008.87 117.04C1003.13 152.73 1015.45 187.06 1046.34 207.33C1071.49 224.95 1109.89 228.05 1138.12 215.72L1138.12 162.84C1130.62 170.77 1121.34 176.97 1111.19 179.17C1095.31 182.69 1079.88 178.7 1068.41 169.01C1052.97 155.35 1050.35 132.46 1056.96 113.96C1061.38 101.63 1073.72 91.05 1086.08 87.52C1105.93 82.68 1125.77 87.14 1138.12 103.44L1137.99 48.34C1127.32 43.64 1115.03 41.58 1102.61 41.77L1102.61 41.77ZM262.78 133.1C262.78 156.37 281.65 175.22 304.97 175.22C328.28 175.22 347.2 156.37 347.2 133.1C347.2 109.82 328.28 90.92 304.97 90.92C281.65 90.92 262.78 109.82 262.78 133.1ZM49.69 47.44L49.69 47.44L49.69 47.44L49.69 47.44ZM49.69 47.44L49.69 218.8L94.24 218.8L94.24 148.74C116.77 148.74 137.87 148.7 159.09 148.7L159.09 218.8L203.24 218.8L203.24 47.44L159.09 47.44C159.09 69.44 159.14 91.52 159.14 113.1C137.52 113.1 115.09 113.05 93.83 113.05L93.83 47.44L49.69 47.44ZM456.48 118.36C464.42 117.92 472.79 117.03 477.64 110.42C480.73 105.58 480.62 97.75 476.55 93.69C471.25 88.41 463.97 87.96 456.48 87.52L456.48 118.36ZM926.35 148.74L945.74 148.74L936.07 120.54L926.35 148.74ZM1254.16 47.44L1254.16 113.51C1232.54 113.51 1210.55 113.55 1189.31 113.55L1189.31 47.8L1145.21 47.8L1145.21 218.8L1189.31 218.8C1189.31 195.29 1189.26 171.72 1189.26 149.33C1210.4 149.33 1233.36 149.19 1254.61 149.19L1254.61 218.8L1298.71 218.8L1298.71 47.44L1254.16 47.44L1254.16 47.44ZM774.57 154.05L774.57 178.71C783.83 178.71 793.54 178.7 801.05 173.41C804.13 169.44 804.13 162.86 801.05 158.9C795.42 154.93 788.55 153.93 781.56 153.86C779.23 153.84 776.88 153.94 774.57 154.05ZM1079.9 97.23C1066.22 104.72 1060.04 119.25 1059.6 134.23C1060.92 148.77 1067.53 164.6 1082.53 170.33C1095.33 176.93 1120.46 174.18 1137.85 154.5L1137.85 115.64C1132.02 104.69 1127.75 101.22 1115.64 95.46C1110.88 93.19 1105.44 92.05 1099.97 92.01C1092.95 91.97 1085.86 93.76 1079.9 97.23Z" />
		</g>
	</g>
</svg>