<svg version="1.2" xmlns="http://www.w3.org/2000/svg" viewBox="0 0 1542 714" width="1542" height="714">
	<title>601410_002_Web_BMK-2-pdf-svg</title>
	<defs>
		<clipPath clipPathUnits="userSpaceOnUse" id="cp1">
			<path d="m-2963.02-741.12h7466.04v9722.52h-7466.04z"/>
		</clipPath>
	</defs>
	<style>
		.s0 { fill: #162061 } 
		.s1 { fill: #a6180e } 
	</style>
	<g id="Clip-Path: Page 1" clip-path="url(#cp1)">
		<g id="Page 1">
			<path id="Path 2" class="s0" d="m456.4 363v100.5q0 25.1 3.1 31.4 2.6 6.3 10.7 10.7 8.2 4.4 22 4.4h10.7v8.8h-170.3v-8.8h10.7q14.4 0 23.2-5 6.3-3.2 9.5-11.3 2.5-5.7 2.5-30.2v-213.5q0-25.2-2.5-31.4-2.6-6.3-10.7-10.7-8.2-5-22-5h-10.7v-8.8h170.3v8.8h-10.7q-14.4 0-23.2 5-6.3 3.8-9.5 11.9-3.1 5.7-3.1 30.2v91.7h115v-91.7q0-25.2-2.5-31.4-2.5-6.3-10.7-10.7-8.2-5-22-5h-10.7v-8.8h169.7v8.8h-10q-14.5 0-23.3 5-6.3 3.8-9.4 11.9-2.5 5.7-2.5 30.2v213.5q0 25.1 2.5 31.4 2.5 6.3 10.7 10.7 8.1 4.4 22 4.4h10v8.8h-169.7v-8.8h10.7q14.5 0 22.6-5 6.3-3.2 10.1-11.3 2.5-5.7 2.5-30.2v-100.5zm560.6-176.5v113.1h-9.4q-10.7-44-39-67.8-28.9-23.3-65.4-23.3-30.8 0-55.9 17.6-25.1 17-37.1 45.2-15.1 36.5-15.1 81 0 43.4 11.4 79.2 10.6 35.8 33.9 54 23.9 18.2 61 18.2 30.7 0 56.5-13.2 25.2-13.2 53.4-46.5v28.3q-27 28.9-56.5 41.5-29.6 12.5-69.2 12.5-52.1 0-92.3-20.7-40.9-20.7-62.3-59.7-22-38.9-22-83.5 0-46.5 23.9-87.9 24.5-41.5 66-64.7 41.5-23.3 88-23.3 33.9 0 72.3 15.1 22 8.8 27.6 8.8 8.2 0 13.9-5.6 5.6-5.7 6.9-18.3zm192.3 323.5v8.8h-170.3v-8.8h10.6q14.5 0 23.3-5 5.7-3.2 9.4-11.3 2.5-5.7 2.5-30.2v-213.5q0-25.2-2.5-31.4-2.5-6.3-10.7-10.7-8.1-5-22-5h-10.6v-8.8h170.3v8.8h-11.3q-13.9 0-22.7 5-6.3 3.8-9.4 11.9-3.1 5.7-3.1 30.2v213.5q0 25.1 3.1 31.4 2.5 6.3 10.7 10.7 8.2 4.4 21.4 4.4z"/>
			<path id="Path 3" class="s1" d="m805.2 693.4c-115.6 0-231.3-12.6-343.1-40.2-90.5-22-180.4-55.3-257.7-106.8-55.3-37-108.1-87.3-127-152.6-17.6-59.7 1.9-120 39.6-167.7 48.4-61.5 121.3-103 192.3-133.1 9.5-4.4 18.9-8.2 29-12 13.1-5 20.1-7.5 31.4-11.3q4.4-1.2 8.8-2.5c0.6 0 10-3.1 3.1-1.3q8.8-2.5 17.6-5c9.4-2.5-7.5 1.9 2.5-0.6q4.4-1.3 8.8-2.5 4.4-1.3 8.8-2.5c-8.8 2.5 4.4-0.7 6.3-1.3q4.4-1.2 9.4-1.9c0-0.6 10.7-2.5 3.8-1.2q9.4-1.9 18.9-3.8c13.2-3.1 23.8-5 38.3-7.5q40.8-6.9 82.3-11.3c52.8-5.7 105.6-8.2 158.4-8.2 15.1 0 30.8-5.7 44.6-9.4q10.4-2.8 20.8-7.6c-1.3 0.7 8.1-3.1 3.1-3.1-120 0-239.4 13.8-356.3 41.5-101.2 23.8-202.4 56.5-292.3 109.9-58.4 35.1-116.2 83.5-143.3 148.2-23.8 56.5-14.4 118.1 18.9 168.9 40.8 63.5 108.7 106.8 175.3 139.5 90.5 43.9 189.8 70.3 289.1 86.6 79.2 12.6 159.6 18.9 240.1 18.9 15.1 0 30.8-5.7 44.6-9.4 6.9-2.5 13.8-4.4 20.8-7.6-1.3 0.7 8.1-3.1 3.1-3.1z"/>
			<path id="Path 4" class="s0" d="m736.7 20.1c115.6 0 231.3 11.9 343.1 40.2 90.5 22 180.4 54.6 257.7 106.8 55.3 37 108.1 87.3 126.9 152.6 17.6 59.7-1.8 119.9-39.5 167.7-48.4 61.5-121.3 103-192.4 133.1-9.4 4.4-18.8 8.2-28.9 12-13.2 5-20.1 6.9-31.4 10.6q-4.4 1.9-8.8 3.2c-0.6 0-10 3.1-3.1 0.6q-8.8 3.2-17.6 5.7c-9.5 2.5 7.5-2.5-1.9 0.6q-5 1.2-9.4 2.5-4.4 1.3-8.8 1.9c8.8-1.9-4.4 1.2-6.3 1.9q-4.4 0.6-8.8 1.9c-0.6 0-11.3 2.5-4.4 1.2q-9.4 1.9-18.9 3.8c-13.2 2.5-23.9 5-38.3 7.5q-40.9 6.9-82.3 11.3c-52.8 5.7-105.6 8.2-158.4 8.2-15.1 0-30.8 5-44.6 9.4-6.9 1.9-13.9 4.4-20.8 6.9 1.3-0.6-8.1 3.8-3.1 3.8 120-0.6 239.4-13.8 356.3-41.5 101.2-23.8 202.4-56.5 292.3-109.9 58.4-35.8 116.2-83.5 143.2-148.2 23.9-57.2 14.5-118.1-18.8-169-40.9-63.4-108.7-106.7-175.3-139.4-90.5-43.9-189.8-70.3-288.5-86.7-79.8-13.1-160.3-18.8-240.7-18.8-15.1 0-30.8 5.7-44.6 9.4q-10.4 2.8-20.8 7.6c1.3-0.7-8.1 3.1-3.1 3.1z"/>
		</g>
	</g>
</svg>