<svg version="1.2" xmlns="http://www.w3.org/2000/svg" viewBox="0 0 1266 1588" width="1266" height="1588">
	<title>cropped-logo-2-svg</title>
	<style>
		.s0 { fill: #00264c } 
	</style>
	<g id="#00264cff">
		<path id="Layer" class="s0" d="m0 0.8c154 0 307.9 0 461.9 0 0.1 189.6 0 379.3 0.1 568.9 53.5-68 121.6-127.9 204.6-156 61-21.4 126.5-25.8 190.5-21.9 78.9 4.5 158.9 23.4 225.8 66.8 57.3 36.6 102 91.3 130.1 153 25.4 54.9 39.3 114.4 46.2 174.3 5.8 48.3 6 97 5.9 145.6-0.1 218.7 0 437.4-0.1 656.1-131.1 0-262.1 0-393.2 0 32.8-15.1 63.8-34.9 88.8-61.3 33.5-34.4 54.1-80.1 60.7-127.5 6.4-44.9 4.2-92.4-14.2-134.4-15.3-35.6-42.4-65.1-74.3-86.4-35.6-24.2-76.4-39.2-117.4-51.3-55.1-16.1-111.9-24.8-168.3-35.3-22.1-4.4-44.5-8.5-65.7-16.6-12.1-5-24.7-11.3-32.4-22.4-8.1-11.6-6.9-27.1-3.2-40.1 5.1-17.5 20.8-29.7 37.7-34.7 20.3-6.2 42-7.6 63.1-5.7 27.2 2.7 51.9 17.6 69.8 37.6 10.7 12.1 16.2 27.8 17.7 43.7 89.8 0 179.7 0.1 269.5 0-1.5-35.5-9.2-71.1-25.8-102.6-19.5-37.5-51.1-67.7-87.4-88.8-42.8-25-91.1-39.1-139.7-47.5-46.3-7.8-93.4-10.6-140.4-9.7-60.3 1.5-120.9 9.8-178 29.6-41.3 14.4-81 35.6-112.4 66.5-31.3 30.4-52 71.2-58.5 114.4-7 48-2.9 99.6 21.3 142.6 20.4 36.7 54.4 63.9 91.2 83.3 45.6 24 95.5 38.6 145.6 50 55.9 12.8 113.3 18.6 168.1 35.9 17.7 6.1 37.4 13.8 46.8 31.2 9 19.5 7.9 45.4-8.5 60.8-19.1 18.1-46 24.5-71.5 27.2-27.9 2.1-57.4-0.4-82.6-13.4-27.5-16.4-46.7-46.5-48.6-78.7-94.3 0.1-188.7 0-283 0 1 53.9 17.9 108.1 52.1 150.2 29.1 36.8 68.7 63.9 111 83.4-134.4 0-268.9 0-403.3 0z"/>
	</g>
</svg>