<svg version="1.2" xmlns="http://www.w3.org/2000/svg" viewBox="0 0 1551 364" width="1551" height="364">
	<title>heineken-logo (1)-svg</title>
	<style>
		.s0 { fill: #005127 } 
		.s1 { fill: #d8232a } 
	</style>
	<g id="Layer">
		<path id="Layer" fill-rule="evenodd" class="s0" d="m1551 169.5v7.2c0 0-8.3 3.1-8.3 13.4v163.3c0 6.2-5.1 10.3-10.3 10.3h-32l-70.3-111.6c0 0 1 9.3 1 20.7v90.9h-39.2v-194.2h25.8c13.4 0 22.7 5.1 28.9 15.5l58.9 93c0 0-2-6.2-2-20.7v-87.8c0 0 47.5 0 47.5 0zm-752.3 0v183.9c0 6.2-5.1 10.3-10.3 10.3h-33.1l-70.2-111.6c0 0 1 9.3 1 20.7v90.9h-39.3v-194.2h25.9c13.4 0 22.7 5.1 28.9 15.5l58.9 93c0 0-2.1-6.2-2.1-20.7v-87.8c1.1 0 40.3 0 40.3 0zm-485.6 194.2h-52.7v-83.7h-45.5v83.7h-52.7v-173.6c0-10.3-8.3-13.4-8.3-13.4v-7.2h61v74.4h45.5v-74.4h52.7zm179.8-184v24.8h-74.4v39.3h59.9v35.1h-59.9v41.4c0 5.1 4.1 8.2 8.2 8.2h67.2v24.8c0 5.2-4.1 10.4-10.3 10.4h-97.2c-10.3 0-19.6-7.3-19.6-17.6v-176.7h116.8c5.1 0 10.3 5.2 9.3 10.3zm101.2 184h-42.3c-5.2 0-10.4-4.2-10.4-10.4v-183.9h52.7zm752.3-183.9v24.8h-74.4v39.2h59.9v35.2h-59.9v41.3c0 5.2 4.1 8.3 8.3 8.3h67.1v24.8c0 5.1-4.1 10.3-10.3 10.3h-97.1c-10.4 0-19.7-8.3-19.7-17.6v-176.7h116.8c5.2 0 10.3 5.2 9.3 10.4zm-368.9 0v24.8h-74.4v39.2h59.9v35.2h-59.9v41.3c0 5.2 4.1 8.3 8.3 8.3h67.1v24.8c0 5.1-4.1 10.3-10.3 10.3h-97.1c-10.4 0-19.7-8.3-19.7-17.6v-176.7h116.8c5.2 0 10.3 5.2 9.3 10.4zm142.6 69.2l73.4 114.7h-43.4c-16.6 0-22.8-6.2-30-16.5l-46.5-72.4v87.9h-42.4c-5.1 0-10.3-4.2-10.3-10.4v-183.9h52.7v72.3l53.7-60.9c7.3-8.3 14.5-10.4 23.8-10.4h38.2z"/>
		<path id="Layer" fill-rule="evenodd" class="s1" d="m52.7 241.8c-1.1 1-3.1 1-4.2-1q-1.5-1.6 0-3.1c1.1-4.2 27.9-87.9 27.9-87.9l-74.4-53.7c-2-2.1-1-6.2 2.1-6.2 4.1 0 90.9 0 90.9 0 0 0 26.9-83.7 27.9-87.8 1.1-1.1 2.1-2.1 4.2-2.1 1 0 2 1 2 2.1 1.1 4.1 27.9 87.8 27.9 87.8 0 0 85.8 0 91 0 3.1 0 4.1 4.1 2 6.2l-43.4 32h-51.6l-15.5-49.6-15.5 49.6h-51.7l42.4 31-15.5 49.6z"/>
	</g>
</svg>