<svg version="1.2" xmlns="http://www.w3.org/2000/svg" viewBox="0 0 1579 265" width="1579" height="265">
	<title>Hilton_Grand_Vacations_logo-svg</title>
	<style>
		.s0 { fill: #ffffff } 
	</style>
	<path id="Layer" fill-rule="evenodd" class="s0" d="m94 162.7v92.8l7.5 0.8v5.4h-35.7v-5.4l7.5-0.8v-42.3h-45.6v42.3l7.1 0.8v5.4h-34.8v-5.4l7-0.8v-92.8l-7-0.8v-5.4h34.8v5.4l-7.1 0.8v39.8h45.6v-39.8l-7.5-0.8v-5.4h35.7v5.4zm47.6 93.2l6.6 0.8v5h-32.7v-5l6.6-0.8v-63.4l-6.6-0.8v-5h26.1zm-9.1-80.3c-6.2 0-11.2-5.4-11.2-12 0-6.7 5-12 11.2-12 6.2 0 11.2 5.3 11.2 12 0 6.6-5 12-11.2 12zm29.8 81.6l6.6-1.3v-96.9l-6.6-0.8v-5h26.1v102.7l6.6 1.3v4.5h-32.7zm90.3-70.4v7.1h-17.4v44.7c0 11.6 2.5 15.3 12.8 15.3 3.7 0 7.1 0 10.4-0.8v4.9c-9.5 3.4-17.4 5-24 5-15 0-18.7-7-18.7-19.9v-49.2h-13.6v-7.1h14v-15.7l19.1-5.8v21.5zm87.4 38.1c0 23.2-15.8 38.9-40.2 38.9-23.6 0-38.9-10.3-38.9-38.9 0-24 15.7-40.2 40.1-40.2 24.5 0 39 14.5 39 40.2zm-21.2-0.4c0-23.6-7-34-18.2-34-11.2 0-18.2 10-18.2 34 0 23.6 7 33.5 18.2 33.5 11.6 0.5 18.2-9.1 18.2-33.5zm111.9 32.7v5h-32.8v-5l6.7-0.8v-43.1c0-12-4.2-17-13.3-17-4.1 0-10.7 2.9-15.3 6.3v53.4l6.6 0.8v5h-32.7v-5l6.6-0.8v-63l-6.6-0.8v-5.4h26.1v10.4c8.3-6.7 16.1-12 26.9-12 14.5 0 21.1 8.7 21.1 25.6v45.2zm132.6-41.9l-7.1 0.9v41c-12 4.1-19.9 6.6-31.9 6.6-37.7 0-54.2-20.7-54.2-55.1 0-33.9 21.9-54.6 56.7-54.6 10.4 0 19.5 1.2 29.4 4.1v18.6h-7l-2.5-12c-3.7-1.2-9.9-2.5-16.6-2.5-24.4 0-37.7 19.1-37.7 46 0 32.7 10.8 46 36.1 46 2.9 0 5.8-0.4 8.3-0.9v-37.6l-8.7-0.9v-5.3h35.2zm36.8-14.1v-0.8q-0.2 0.4-0.4 0.8zm19.9-16.2c3.3 0 6.2 0.9 7.9 1.3v19.8h-5l-3.3-9.1c-8.7 0-15.4 3.8-19.5 10v48.8l8.3 0.9v4.9h-34.4v-4.9l6.6-0.9v-62.9l-6.6-0.8v-5.4h26.1v13.7c4.6-8 11.4-15.4 19.9-15.4zm82.8 72.1v4.9h-24l-2.1-8.7c-10.3 6.7-13.2 10-21.9 10-12.5 0-20.7-8.7-20.7-20.3 0-17.4 9.9-22.4 42.6-29.8v-3.3c0-13.3-4.1-17.4-14.1-17.4-7 0-11.6 2-13.6 4.5l-2.5 9.1h-5.8v-17.3c5-2.1 14.1-3.8 23.6-3.8 24.4 0 31.5 7.5 31.5 32.3v38.9zm-26.1-38.9c-18.7 3.7-23.6 10.8-23.6 21.1 0 7.9 4.1 12 12 12 3.3 0 6.6-1.2 12-3.3v-29.8zm117.6 38.9v5h-32.7v-5l6.6-0.8v-43c0-12.1-4.1-17-13.2-17-4.2 0-10.8 2.9-15.4 6.2v53.4l6.7 0.8v5h-32.7v-5l6.6-0.8v-62.9l-6.6-0.9v-5.3h26v10.3c8.3-6.6 16.2-12 27-12 14.5 0 21.1 8.7 21.1 25.7v45.1zm89.4 0v5h-26.5v-8.7c-8.7 7-16.1 9.9-24 9.9-17.4 0-30.2-15.3-30.2-37.7 0-25.6 16.1-40.1 40.6-40.1 9.5 0 13.6 2.9 13.6 2.9v-29.4l-8.3-0.9v-4.9h27.8v102.7zm-26.5-60.9c0 0-3.7-4.1-10.8-4.1-13.2 0-22.8 11.1-22.8 29.8 0 17.4 7.9 28.5 20.3 28.5 3.8 0 8.3-1.2 13.3-3.7zm140.8-33.5l-7-0.9v-5.3h24.8v5.3l-6.2 0.9-36 99.8h-15.8l-36.8-99.8-6.7-0.9v-5.3h35.7v5.3l-7.9 0.9 28.6 79.1zm82 94.4v4.9h-24.1l-2-8.7c-10.4 6.7-13.3 10-22 10-12.4 0-20.7-8.7-20.7-20.3 0-17.4 10-22.4 42.7-29.8v-3.3c0-13.3-4.2-17.4-14.1-17.4-7 0-11.6 2-13.7 4.5l-2.5 9.1h-5.8v-17.4c5-2 14.1-3.7 23.6-3.7 24.5 0 31.5 7.5 31.5 32.3v38.9zm-26.1-38.9c-18.6 3.7-23.6 10.8-23.6 21.1 0 7.9 4.2 12 12 12 3.3 0 6.7-1.2 12-3.3v-29.8zm34 7.1c0-23.7 18.6-40.6 41-40.6 7.9 0 14.9 0.8 22.4 3.7v18.2h-5.4l-2.9-8.3c-2.1-3.3-5.8-5.8-12.9-5.8-12 0-21.1 11.2-21.1 29.4 0 20.3 9.1 32.3 24 32.3 10.8 0 19.9-4.5 19.9-4.5v6.6c0 0-12 8.3-28.6 8.3-21.9-0.8-36.4-16.6-36.4-39.3zm143.3 31.8v5h-24l-2.1-8.7c-10.3 6.6-13.2 9.9-21.9 9.9-12.5 0-20.8-8.7-20.8-20.2 0-17.4 10-22.4 42.7-29.9v-3.3c0-13.2-4.1-17.4-14.1-17.4-7 0-11.6 2.1-13.6 4.6l-2.5 9.1h-5.8v-17.4c4.9-2.1 14.1-3.7 23.6-3.7 24.4 0 31.5 7.4 31.5 32.3v38.9zm-26.1-38.9c-18.7 3.7-23.6 10.7-23.6 21.1 0 7.9 4.1 12 12 12 3.3 0 6.6-1.2 12-3.3v-29.8zm62.5-31.5h17.4v7.1h-17.4v44.7c0 11.6 2.5 15.3 12.9 15.3 3.7 0 7 0 10.3-0.8v4.9c-9.5 3.3-17.4 5-24 5-14.9 0-18.7-7-18.7-19.9v-49.2h-13.6v-7.1h14.1v-15.7l19-5.8zm58.4 69.1l6.6 0.9v4.9h-32.7v-4.9l6.6-0.9v-63.3l-6.6-0.8v-5h26.1zm-8.7-80.3c-6.2 0-11.2-5.4-11.2-12.1 0-6.6 5-12 11.2-12 6.2 0 11.2 5.4 11.2 12 0 6.7-5 12.1-11.2 12.1zm104.8 49.2c0 23.2-15.8 39-40.2 39-23.6 0-38.9-10.4-38.9-39 0-24 15.7-40.1 40.2-40.1 24 0 38.9 14.5 38.9 40.1zm-21.5-0.4c0-23.6-7.1-33.9-18.3-33.9-11.2 0-18.2 9.9-18.2 33.9 0 23.6 7 33.6 18.2 33.6 11.6 0.4 18.3-9.2 18.3-33.6zm112.2 32.7v5h-32.7v-5l6.6-0.8v-43.1c0-12-4.2-16.9-13.3-16.9-4.1 0-10.7 2.9-15.3 6.2v53.4l6.6 0.8v5h-32.7v-5l6.7-0.8v-63l-6.7-0.8v-5.4h26.1v10.4c8.3-6.6 16.2-12 26.9-12 14.5 0 21.2 8.7 21.2 25.7v45.1zm56.3-54.7l-2.9-8.3c0 0-3.3-3.7-11.6-3.7-7.9 0-12 5-12 10.8 0 6.6 4.9 9.1 16.5 14.9 14.9 7.4 19.5 13.2 19.5 23.6 0 13.7-10.8 23.2-31.9 23.2-7.4 0-15.3-1.3-22.8-3.7v-17.4h5.8l2.9 9.9c1.7 2.1 5.4 5 12.9 5 10.3 0 15.3-5 15.3-11.2 0-9.1-7-11.6-19.1-17.4-12.4-6.2-17.3-11.6-17.3-21.5 0-13.3 9.9-22.4 28.1-22.4 7.1 0 14.1 0.8 21.5 3.7v14.5z"/>
	<path id="Layer" fill-rule="evenodd" class="s0" d="m880.5 67.5c0 33.1-37.3 56.3-85.8 56.3-31.9 0-68.3-16.1-68.3-42.2 0-17 17-27.4 34.4-30.7v-23.6h26.5v22c4.1 0.5 8.2 1.6 12 3.2v0.9q3.2 1 6 2.3c7.2 4.7 12.2 11.8 12.2 20.9 0 13.7-10.8 25.7-36 23.6v-1.2c8.7 1.6 19-2.1 24.4-8.3h-7v-31.1c-2.5-1.6-6.7-3.7-11.6-4.5v35.6h-26.5v-31.5c7-5.4 21.1-7.9 30.2-6.2-4.1-1.2-9.9-2.5-15.7-2.5-22 0-36.5 13.3-36.5 31.9 0 21.5 22 36.4 49.7 36.4 54.3 0 80.4-31.4 80.4-55.9 0-46.3-50.2-53-77.9-53-39.3 0-83.7 20.3-86.1 56.4 0 16.9 8.7 29.3 18.2 37.2l-0.8 0.8c-12.1-9.9-21.6-24-21.6-40.9 0-32.8 35.6-63.4 84.1-63.4 42.2 0 95.7 28.2 95.7 67.5zm-63 24.4h8.3v-64.6h-26.5v25.2q3.2 1.4 6 3.2c10.6 5 16.3 13.1 16.3 23 0 4.1-1.2 9.1-4.1 13.2z"/>
	<path id="Layer" fill-rule="evenodd" class="s0" d="m874.7 123.4c-3.3 0-5.8-2.6-5.8-5.8 0-3.2 2.5-5.8 5.8-5.8 3.2 0 5.8 2.6 5.8 5.8 0 3.2-2.6 5.8-5.8 5.8zm4.9-5.8c0-2.8-2.2-5-4.9-5-2.8 0-5 2.2-5 5 0 2.7 2.2 5 5 5 2.7 0 4.9-2.3 4.9-5zm-6.2 3.3h-1.2v-7h2c1.3 0 2.5 0.4 2.5 2 0 0.9-0.4 1.3-1.2 1.7q1.2 0 1.2 1.2l0.4 2.1h-1.2l-0.4-1.2-0.4-1.7-0.9-0.4h-0.8zm1.3-4.1c0.8 0 1.2-0.5 1.2-0.9 0-0.4-0.4-0.8-1.2-0.8h-1.3v1.7z"/>
</svg>