<svg version="1.2" xmlns="http://www.w3.org/2000/svg" viewBox="0 0 1598 1581" width="1598" height="1581">
	<title>logo (45)-svg</title>
	<defs>
		<clipPath clipPathUnits="userSpaceOnUse" id="cp1">
			<path d="m0 0h1597.06v1580.04h-1597.06z"/>
		</clipPath>
		<clipPath clipPathUnits="userSpaceOnUse" id="cp2">
			<path d="m0 0h1597.06v1580.04h-1597.06z"/>
		</clipPath>
		<clipPath clipPathUnits="userSpaceOnUse" id="cp3">
			<path d="m0 0h1597.06v1580.04h-1597.06z"/>
		</clipPath>
		<clipPath clipPathUnits="userSpaceOnUse" id="cp4">
			<path d="m0 0h1597.06v1580.04h-1597.06z"/>
		</clipPath>
		<clipPath clipPathUnits="userSpaceOnUse" id="cp5">
			<path d="m0 0h1597.06v1580.04h-1597.06z"/>
		</clipPath>
		<clipPath clipPathUnits="userSpaceOnUse" id="cp6">
			<path d="m0 0h1597.06v1580.04h-1597.06z"/>
		</clipPath>
		<clipPath clipPathUnits="userSpaceOnUse" id="cp7">
			<path d="m0 0h1597.06v1580.04h-1597.06z"/>
		</clipPath>
		<clipPath clipPathUnits="userSpaceOnUse" id="cp8">
			<path d="m0 0h1597.06v1580.04h-1597.06z"/>
		</clipPath>
		<clipPath clipPathUnits="userSpaceOnUse" id="cp9">
			<path d="m0 0h1597.06v1580.04h-1597.06z"/>
		</clipPath>
		<clipPath clipPathUnits="userSpaceOnUse" id="cp10">
			<path d="m0 0h1597.06v1580.04h-1597.06z"/>
		</clipPath>
		<clipPath clipPathUnits="userSpaceOnUse" id="cp11">
			<path d="m0 0h1597.06v1580.04h-1597.06z"/>
		</clipPath>
		<clipPath clipPathUnits="userSpaceOnUse" id="cp12">
			<path d="m0 0h1597.06v1580.04h-1597.06z"/>
		</clipPath>
		<clipPath clipPathUnits="userSpaceOnUse" id="cp13">
			<path d="m0 0h1597.06v1580.04h-1597.06z"/>
		</clipPath>
		<clipPath clipPathUnits="userSpaceOnUse" id="cp14">
			<path d="m0 0h1597.06v1580.04h-1597.06z"/>
		</clipPath>
	</defs>
	<style>
		.s0 { fill: #822b2f } 
		.s1 { fill: #eff4f9 } 
		.s2 { fill: #deeaf3 } 
		.s3 { fill: #cee1ee } 
		.s4 { fill: #bbd6e9 } 
		.s5 { fill: #ffffff } 
	</style>
	<path id="Layer" fill-rule="evenodd" class="s0" d="m152.3 1132.3v38.7h-55v143.4h-42.4v-143.3h-54.9v-38.8m290.8 182.1v-73h-70.3v73h-42.5v-182.1h42.5v71.4h70.3v-71.4h42.4v182.1zm77.7 0v-182.1h115.8v38.8h-73.3v32.6h66.8v36.7h-66.8v35.5h73.3v38.5zm-87.6 78.9l86.1 183.7h-44.1l-13.8-33h-63.1l-13.7 33h-43.2l86.1-183.7c0 0 5.7 0 5.7 0zm-3.2 74.6q0 0 0 0zm0 0c0 0.1-18.2 43.8-18.2 43.8h36.2z"/>
	<g id="Clip-Path" clip-path="url(#cp1)">
		<path id="Layer" fill-rule="evenodd" class="s0" d="m492 1577l-31.1-59.3c-2.6 0.2-4.8 0.2-7.3 0.2-6.2 0-9.7-0.2-15.7-0.5v59.7h-42.4v-180.5c15.4-1.8 32.4-3 53.9-3 56.9 0 79.4 27.1 79.4 60.4 0 21.6-11.8 41-31.5 52.7l42.9 70.4c0 0-48.2 0-48.2-0.1zm-37.7-145.6c-6.4 0-10.4 0.2-16.4 1.2v50.3c5.5 0.4 8.5 0.6 13.5 0.6 20.2 0 33.1-9.7 33.1-28 0-15.2-11.9-24.1-30.2-24.1z"/>
	</g>
	<path id="Layer" class="s0" d="m848.8 1394.8v38.9h-73.4v40.1h62.8v37.1h-62.8v66.2h-42.4v-182.3"/>
	<g id="Clip-Path" clip-path="url(#cp2)">
		<path id="Layer" fill-rule="evenodd" class="s0" d="m1329 1578.5c-21.4 0-33.4-0.9-55.8-2.9v-179.1c21.1-2.2 35.9-2.9 54.1-2.9 75.9 0 111.3 39.3 111.3 90.7 0 53.7-33.7 94.2-109.6 94.2zm4.1-147.1c-7.3 0-11.1 0.2-17.5 1v107.3c7.7 0.8 11 1 20.2 1 39.9 0 57.6-22.4 57.6-56.4 0-33.1-20.9-52.9-60.3-52.9z"/>
	</g>
	<path id="Layer" class="s0" d="m702.6 1394.8v38.8h-54.9v143.4h-42.4v-143.4h-54.9v-38.8m-388.4 0v182.2h-42.4v-73.1h-70.3v73.1h-42.5v-182.2h42.5v71.4h70.3v-71.4"/>
	<g id="Layer">
		<g id="Clip-Path" clip-path="url(#cp3)">
			<path id="Layer" fill-rule="evenodd" class="s0" d="m1193.6 1577l-31.1-59.3c-2.5 0.2-4.8 0.2-7.3 0.2-6.2 0-9.7-0.2-15.7-0.5v59.7h-42.4v-180.5c15.5-1.8 32.4-3 53.9-3 56.9 0 79.4 27.1 79.4 60.4 0 21.6-11.8 41-31.5 52.7l42.9 70.4c0 0-48.2 0-48.2-0.1zm-37.6-145.6c-6.4 0-10.5 0.2-16.5 1.2v50.3c5.5 0.4 8.5 0.6 13.5 0.6 20.2 0 33.2-9.7 33.2-28 0-15.2-12-24.1-30.2-24.1zm-187.6 148.6c-51.8 0-93.7-42-93.7-94.1 0-52 41.9-94.1 93.7-94.1 51.8 0 93.7 42.1 93.7 94.1 0 52.1-41.9 94.1-93.7 94.1zm48.3-93.9c0-31.2-21.6-56.4-48.4-56.4-26.8 0-48.4 25.2-48.4 56.4 0 31.2 21.6 56.4 48.4 56.4 26.8 0 48.4-25.2 48.4-56.4z"/>
		</g>
		<g id="Clip-Path" clip-path="url(#cp4)">
			<path id="Layer" class="s1" d="m1142.2 626.7c-0.7 0.8-1.4 1.9-2.3 3-129.8 19.2-246.2 66.7-370.4 119.2-64.8-0.8-130.4-0.3-196.2 1.2v-123.5c0 0.1 568.9 0.1 568.9 0.1z"/>
		</g>
		<g id="Clip-Path" clip-path="url(#cp5)">
			<path id="Layer" class="s2" d="m869.4 751.3c-33.1-1.1-66.4-2-100-2.4 124.3-52.5 240.7-100 370.5-119.2-1.3 1.6-2.6 3.3-3.7 4.1-12.3 9.6-20.2 16.2-30.6 26.9-4.1 4-8.4 14.4-12.2 16.5-2.6 1.4-17.2 10.6-20.7 11.7-21.9 6.5-26.9 10.1-44.3 21-18.5 11.4-90.9 17-159 41.4z"/>
		</g>
		<g id="Clip-Path" clip-path="url(#cp6)">
			<path id="Layer" class="s2" d="m573.3 750.1c65.8-1.5 131.4-2 196.2-1.2-62.6 26.4-127.1 54-196.2 79.9 0 0 0-78.7 0-78.7z"/>
		</g>
		<g id="Clip-Path" clip-path="url(#cp7)">
			<path id="Layer" class="s3" d="m734.5 924.9c-1 8.9-1.3 18.7 0.8 30.8 3.2 19.9 8.2 38.5 14.7 55-55.6 2.2-114.6-0.9-176.7-9.9v-172c69.1-25.9 133.6-53.5 196.1-79.9 33.6 0.4 66.9 1.3 100 2.4-70.4 25.2-136.2 70.4-133.8 162.9 0 2.1-0.5 6.3-1.1 10.7z"/>
		</g>
		<g id="Clip-Path" clip-path="url(#cp8)">
			<path id="Layer" class="s4" d="m857.8 1165.3c1 1.1-0.4 32.1-0.4 32.4-0.2 0.9-0.6 6.2-1.2 12.4-95.1 15.7-193.6 28-282.9 34.8v-244.1c62.2 9 121.1 12.1 176.7 9.9 1.9 5 4 9.8 6.1 14.4 16.2 33.6 31.3 53.1 55.3 74.8 6.1 5.5 13.1 10 19.1 15.8 11.9 11.8 18.2 34.3 27.3 49.6zm536.3-243.1v138.4c-5.7 1.4-28.6 9.9-52.3 18.7 0.4-0.8 1.4-3 1.5-3.2 1.6-4 2.7-7 2.9-7.6 5.1-15.4 8.3-31.9 13.8-43.8 3.7-7.7 12.8-31.6 12.8-31.6 8-25.7 11.4-42.5 14.2-59.4 0.3-1.9 3.8-7 7.1-11.5zm-171.6 167.6c0.4 0.5 6.3 13.1 12.4 27.2-67.9 27.7-175.6 55.4-295.6 78.3 2.7-8.5 7.3-17.4 16-26.1 2.3-2.3 21.7-22.4 24-25.5 7.6-9.8 8.8-12 17.7-32.1 2-4.4 5.3-9.4 9.6-13.5 24.7-11.7 49.3-1.9 61.6-5.1 9.1-2.4 7.6-9.4 9.4-17.8 3.6-0.2 7.5-0.4 11.6-0.5 8.7 0 18.1-2.4 26.3-3.6l16.9-2.3c21.4-3.1 27.1-7.5 27.1-7.5 15.2-3.9 30.7-9.1 37.3-14.1 6.9 0.9 10.7 16.9 15.7 25.2 4.9 8.4 5.4 11.6 10 17.4zm78.4-84.3c0.5 3.6 0.9 6.9 0.8 7.8 0 1-0.2 3.9-0.3 4.9-0.6 5.9-1.4 58.9-2.3 76.8-7.8 2.9-13.1 4.6-17.1 5.8-4.2-15.4-9.5-53.6-10.9-56.9-4.9-11.2-5-19.8-6.4-34.7 12.4-0.3 25-1.2 36.2-3.7z"/>
		</g>
		<g id="Clip-Path" clip-path="url(#cp9)">
			<path id="Layer" fill-rule="evenodd" class="s0" d="m1512.4 31.9c1.4-1.5 11.1 10.3 11.7 11 6.2 7.1 23 36.7 24.8 48.2 2.8 17.4 1.7 40.5-8.3 57.5-1.5 2.5-7.2 8-7.2 11.1 0 31.5-8.6 44.7-11.7 63.3-0.1 1.4-0.4 3-1 4.5-0.3 0.9-0.9 2.3-1.3 3.3l1.8-1.1c13-8.4 39.4-37.9 48.2-49.3 11.8-15.6 19.1-49.2 26.6-67.6 0.1-0.4 0.4-0.6 0.7-0.6 0.3 0 0.3 0.6 0.3 1.3 0.1 0.6-0.8 12.8-1 16.5-0.7 15.3-6.4 43.8-12.8 55.4-7.9 14.4-25.3 34.3-36 45.4-21.9 22.5-52.6 53.6-81 69.9-10.5 6-22.1 10-33.9 16.1-3.6 1.9-9.1 3.6-11 5.5-2.9 2.8-2.9 13.4-5.2 17.4-5.6 9.1-12.3 15-22.1 21.4-3.7 2.5-9.9 4.3-10.1 9.2-0.4 6.4 8.2 7.8 14.5 11.3 15.6 8.1 10.1 22.5 4.8 38.8-0.1 0.4-0.1 0.9-0.1 1.3 0.1 1.6-0.3 3.7-0.1 5.1 0.1 0.6 0.6 1.2 0.6 1.9v9.2c0 0.6 0 1.1-0.2 1.6-1.8 4.7-6.2 11.4-10.1 13.9-6 4.2-21 6.7-23 15.3-0.7 2.7-0.5 5.7 0.8 8.4 3 6.5 12.4 26.6 13.7 27.3 3 7.7 8 24.1 9 54.3-1.5 24.7-2.4 25.5 6.3 45.6 0.5 1.1 18.9 34.1 17.9 61.8 0 0.6 0.2 2.2 0.6 4.4 1.7 3.3 3.8 6.7 4.8 10.4 1.4 5.1 3.2 9.3 3.6 14.7 0.6 8 3.3 7.1 3.7 14.9 0.3 5.9-1.1 18.9-0.1 25.5 0.1 1 0.1 2 0.2 3 0.1 0.4 0.1 0.8 0.1 1.2 0.5 4.6 1 9.1 1 14 0 1.6-0.2 3-0.4 4.4 0.3 25.7-1.8 55.3-1.6 61.9 0.5 35.7-19.4 77.1-19.4 77.1-4 5.8-6.9 12.3-10.6 17.1 0 0-12.4 15.3-12.8 19-2.9 16.9-6.2 33.7-14.3 59.4 0 0-9.1 23.9-12.7 31.6-5.6 11.9-8.8 28.4-13.9 43.8-0.2 0.6-1.3 3.6-3 7.6l-1.4 3.2c23.7-8.8 46.6-17.3 52.3-18.7v253.9h-820.8v-69.5c89.3-6.8 187.7-19.1 282.9-34.8 0.6-6.2 1-11.5 1.2-12.4 0-0.3 1.4-31.4 0.4-32.4-9.1-15.4-15.4-37.9-27.3-49.6-6-5.8-13-10.4-19.1-15.8-23.9-21.7-39.1-41.2-55.3-74.9-9.4-19.8-16.6-43.5-20.7-69.4-2.1-12.1-1.8-21.8-0.8-30.8 0.5-4.4 1-8.6 1-10.7-4.8-182.2 255.2-181 292.8-204.3 17.4-10.8 22.4-14.4 44.3-21 3.5-1 18-10.3 20.6-11.7 3.9-2.1 8.2-12.4 12.3-16.5 10.4-10.7 18.3-17.2 30.6-26.8 2.3-1.9 6-7.3 6.9-8.6 2.1-3.5 3.4-8.6 5.5-15.2 2.1-6.3 1.6-9.4 4.3-15 5.6-12 10.2-23.8 11.1-36.3 2-30.8 10.1-51.1 12-57.7 2-6.3 2.8-17.9 4.1-24.2 0.2-0.9 0.8-1.9 1.2-2.9 2-6.4 5.1-14.2 5.4-16.8 1.7-11.1 0.5-11.1 0.8-24.1 0.1-5-0.6-8.4-0.3-13.5 0.3-3.5-0.5-11-6.8-10.8-9.7 0.6-18.1-2-19.8-2.2-13.6-5.1-28.4-10-34.6-21.5-4.4-8.6-7-20-11.3-31.8-1.5-4.4-3.7-10.1-5.6-15.9-1.4-4.5-3.1-13.7-5.7-15.9-3.6-3-10.1-4.4-17.4-5.8-19.2-3.6-40.5-8.8-56.6-13.9-25.5-8.1-52.2-19.8-74.9-31-24-11.9-50.8-23.4-64.9-44.5-4.3-6-7-11.2-9.5-17.8-7.9-20-15-40.6-30.5-54.4-2.8-2.1-5-4.4-7.3-7.2-12.6-12.7-17.9-55.8-16.5-75.1 1.3-20.6 18-45.4 31-60.2 1.5-1.6 10.6-9.8 14.3-11.3 0.3-0.2 0.6-0.3 0.7-0.2 0.1 0.1 0 0.3-0.2 0.7-9.3 15.9-25.2 40.9-27.6 60.2-1.5 12.5-3.4 46.3 3.8 57.9 5.1 7.9 11.7 22 19 26.5 2.1 1.1 6.1-2.5 7.2-2.7 2.8-0.7 6.2-9 7.8-11.2 13.5-18.7 38.8-28.9 58.9-42.2 24.6-16.3 37.7-73.3 65.3-86.3 0.7-0.3 1.1-0.6 1.3-0.4 0.2 0.2-0.3 1.1-0.5 1.3-15.7 25.5-31 77.3-54 95.4-4.2 3.3-7.3 6.5-10.3 8.6 0 2.6 0.1 5.5 0.1 8.6 0 1.1-0.2 6.3-0.2 8.9 4.9-0.8 12.4-2.8 14.3-3.4 26.8-6.8 65-30.5 93.7-39.5 0.8-0.3 1.3-0.4 1.4-0.2 0.2 0.2 0 0.5-0.7 1.2-6.2 5.1-12.8 9.5-19.6 13.6-19.9 12.4-55.5 35.5-82 42.1-2 0.5-3.9 1.1-6.3 1.7 0 1.1 0.5 8.7 1.3 14.5 5.3 34.5 20.4 79.6 45.5 99.4 1.3 2 3.5 3.3 5.5 4.8 18.8 11.8 40 19.2 62.7 25.5 23.6 6.6 50.4 9.2 70.6 6.2 4-1.2 16.9-1.1 17.7-7.8 0.4-2.9-5.5-10.5-7.8-14.4-7.8-13.3-21.8-41-28.1-54.9-10.7-23-18.5-49.2-18.5-75.5 0-9.4 0.8-32.5 3.4-43 0.8-3.3 3.1-15.7 4.7-15.7 0.5 0 0.8 1 0.8 1.8 0.1 1.8 0.3 15.5 0.5 17.7 1.2 13.3 2.9 50 6.8 62.5 8.4 27.3 18.1 46.6 31.1 67.8 12.8 20.9 38 60.7 67.1 60.9 1.1 0 2.7-0.3 3.9-0.6 18.4-4 21.3-28.6 23.2-48.2 0.1-1.3-0.3-3.7-0.5-5.6-3.1-29.9-24.3-63.3-32.6-88.1-0.9-2.4-1.8-5.9-2.8-8.3-1.5-4.2-5.9-9.9-7.3-14.9-1.1-4.4-5.3-18 1.8-10.1 6.3 7.2 14.4 23 18.2 30 15.7 28.3 42.1 61.6 42.7 103.6 0.1 10.3-0.1 23.8-1.2 38.3-0.2 2.9-0.5 3.1-0.5 3.3-0.8 4.4 1.2 3.9 6 4.4 6.5 0.9 14.9 2.7 20.1 5 4 2 5.5 6 10 6.8 4.5 0.6 8.7-2.3 13.9-3.4 3.8-0.8 8.3 0.2 11.5-0.5 5.2-1.2 12.4-9.4 17.8-14.5 6.4-5.7 10.9-12.2 15.6-16.7 22.2-20.7 43.1-47.3 58.3-74.8 7.6-13.7 11.3-45.5 12.7-64.6-15.8-3.7-28.3-8.4-41.5-13.6-8.5-3.3-17-7-26.6-11.7-7.5-3.6-27.1-10.8-33.9-13.8-1.6-0.7-9.3-5.5-8.2-6.7 1.4-1.7 24.4 6.3 26.5 6.7 17.3 3.5 36.8 10.5 52.7 15.5 23.8 7.5 22.1 6.3 50.2 9.4 2 0 20.6 1.7 22.6 1.7 22.1 1.7 36.6 7.2 38.8 6.6 3.4-0.8 3.4-2.6 2.7-8.4-1-8.9-6.6-18.5-10.5-24.4-5.9-8.6-22.6-23.6-29.4-33.2-5.7-8.1-15.2-17.4-22.2-24.6-12.2-12.7-18.2-17.2-19.2-18.2-0.4-0.4-0.7-1.2-0.6-1.4 0.2-0.4 0.4-0.3 0.5-0.3 25.5 6 47.7 38.2 65.4 53.9 2.8 2.3 8.6 6.7 11.1 9.4 7.9 8.8 14.2 16.3 17.7 26 2.6 7.5 3.2 31.6 11.2 32.3 3.9 0.4 7.5-6 8.2-7.3 1.8-3.2 4-16.4 5.1-21.5 2.6-13.1-18.9-59.2-24.5-72.5-0.5-0.9-1.6-3.3-1-3.8zm-9.8 195.4c-1.1 1.1-5.7 4.7-11 8.9-21.7 16.5-50.2 29.7-72 47.3-2.2 1.7-11.9 9.8-10 11.1 4.6 3.3 19.6-5.4 26.6-7.8 25.1-8.6 55.4-26.7 64.2-48.6 1.9-4.8 1.9-8.7 2.2-10.9zm-200.9 786.1c0.1-0.9-0.3-4.2-0.8-7.8-11.2 2.4-23.8 3.4-36.3 3.6 1.4 14.9 1.6 23.6 6.4 34.7 1.4 3.3 6.8 41.6 11 56.9 4-1.2 9.3-2.9 17.1-5.7 0.8-18 1.7-70.9 2.3-76.9-0.1 0 0.3-4.8 0.3-4.8zm-66.8 103.6c-6-14-11.9-26.6-12.4-27.2-4.5-5.8-5-8.9-10-17.3-5-8.4-8.7-24.4-15.6-25.3-6.7 5.1-22.1 10.2-37.3 14.2 0 0-5.7 4.3-27.1 7.4l-17 2.4c-8.2 1.1-17.5 3.5-26.3 3.6-4.1 0-8 0.2-11.6 0.4-1.8 8.4-0.3 15.4-9.4 17.8-12.3 3.3-36.9-6.6-61.6 5.1-4.3 4.2-7.6 9.1-9.5 13.6-8.9 20-10.2 22.2-17.8 32.1-2.2 3-21.7 23.1-24 25.4-8.7 8.7-13.2 17.7-16 26.1 120-22.8 227.7-50.5 295.6-78.3zm-47-780.1c0.8 0.5 5 2.2 5 2.2 0.5 0 9.6-6.2 9.6-6.2 5.7-10-11.6-15-22.1-13-1 0-4.5 1.2-5.1 2.8-1.6 5 4.8 6.1 6.3 7.4 1.6 1.2 3.8 5.1 6.3 6.8zm-235.7-93.9c-14.7-26.1-20.5-53.4-22.7-88.8 0-3.9-0.3-7.3-0.5-9.5-1.8 0.3-2.2 0.5-3.3 0.8-3.4 0.9-8.6 3.5-12.3 5.4-6 3.2-11.2 6.6-14.4 10.1-13.2 13.2-7.3 8.8-1.8 30.3 3 11.1 8.3 22.2 15.1 28.4 1.8 2.2 3.9 4.2 6.1 6.1 12.1 7 20.6 11.3 33.8 17.2zm-51.1-103.8c5.1-1.4 9.5-4.1 13-5.4 5.7-2.1 11.2-4 14.5-5.2 0.4-2.8 0.9-9 1.7-15.7-0.5 0.4-1.3 0.9-2 1.3-5.7 3.6-20.3 12.1-26.6 20-1.7 2.1-4.5 6-0.6 5zm610.7 28.8c-4.2-30.4-44.9-33.4-75.5-34.8-2.7-0.1-5.3-0.2-7.4-0.2 0.6 7.8 0 16.9-0.9 27.9-4.9 48.5-27.8 79.9-52.7 112.1-1.1 1.2-10.9 12.4-9.5 14.3 0.8 1.3 3.8-1.3 4.4-1.6 6.1-2.7 15.1-8.3 17.9-10 9-5.8 14.1-11.7 20.5-16.1 24.5-17.2 69.9-30.9 91.5-57.7 6.2-7.7 13.6-19.5 11.7-33.9z"/>
		</g>
		<g id="Clip-Path" clip-path="url(#cp10)">
			<path id="Layer" class="s5" d="m1193.1 482.9c2.8-2.2 4.1-3.9 4.4-4 0.4-0.1 0.7-0.5 0.5-0.7 0-0.4-0.1-1.3-0.1-1.7 0-0.2-1.2-8.9 0.1-10.9 1.2-1.9 4.1-5.4 4.1-4.9 0 0.6 2.6 22-1.5 24.9-10.8 7.9-7.5-2.7-7.5-2.7zm184.4-34.5c-5.8 0-11.7-2-14.9-6.1l-2.2 7c-3.1-0.1-4.2-3.1-5.8-4.8-1.3 1.6-2.6 2.6-2.2 5.7 0 0-1.8 3.2-2.8 0.3-4.8-14.1-7.9 1.1-14.3-5.7-12.1-3-15.3 1.3-18.3 2.8-3 1.5-5.9-4.4-2.3-5.5 9.3-3 0.8-15.4 13.8-14 12.1 5.9 22.9 1.3 23.5 3 0.5 1.8-6.1 2.6-6.1 2.6-15.1 3.1-5.4-1.3-19.7-0.1-1.3 1.6-3.7 3.3-2.2 5.5 16.1 8.8 33.8-9.8 46.5 1.3 8 1.5 12.6 2.9 17.8 0 3.6-1.6 1.6-7.9 6.5-3.3 0.7 9.5-10.5 7.9-17.3 11.3zm-78.3-82.8c-0.8 0-1.4 0.4-2 1l-1.9 1.7c-2.1 2.1-3.6 2.3-6.4 1.2 4.2-7.7 12.2-8.8 19.8-10.6 2.5 1.5 8.4 3 10.3-1.2 1.2-2.8-2.8-4-4.2-6.4 0.1-4.8 2.1-6.5 6.6-6.7 3.8 0 6 0.8 8.8-2.6 2.5 3.4 2.1 5.5-0.9 8.2l-1.4 1.3c-1.5 1.3-2.6 2.7-2.5 4.7 2.5 1.6 4.1 5.8 7.7 5.3 2.6-1.2 4.6 0.8 5.1-2 0.8-3.3 11.8 4.5 8 5.1-3.7 0.6-5.3-2-8.8 0.3-3.2 2.2-9.3 2.4-12.4-0.8-6.9 7.8-16.4-1.8-25.8 1.5zm-38 5.8c-2.5 3.3-3.8 9.1-10.4 9.9-1.1 0-8.9-1.1-11-1.9-1-0.4-9.2-7.9-6.2-8 2.7-0.1 4 1 7.1 1.5 6.9 1.1 16.5 1.4 20.5-1.5zm-12.5-14.3c-5-7-13.7 0.4-19.1 3.2 3.3 11.2 11.9-3.8 19.1-3.2zm114.2 25.6c-5.4 4.2-13.8 1.7-17.7 8.9 0.6 4.6-4.2 10.3 4.1 13.2 6 2.4 7.4 2.7 13.7 2.6 5.1-0.2 10.6-5.5 9.8-12.1-4.9-6.2-11.1 2-15.7-0.6 8.6-12.7 21.7-1.3 33.5-1.6 3.2-4.5 4.7-4 6.9-3.4 2.1 0.6 0.1 2.5 0.1 2.5-4.5 3-0.6 8.2-6.3 6.8-19.5-4.7-11.1 16.5-25.5 14.6-13.8 2.6-23-5.1-24.9-6.4-3.7-5.6-1.9-10.7-0.9-16.7 3.5-8.6 14.6-9.6 22.9-7.8zm-122.5 68.5c0.7 1 1.4 1.8 2.1 2.8-0.9-0.2-1.9-0.5-2.9-0.5-2.5-0.2-5.1-0.9-7.6-1.6-13.4-5.3-30.8-16.8-31.3-38.6 1.4-4.2 1.5-8.9 0.4-13l-0.1-0.3c2.5-2.9 6.3-6.7 8.6-8.3 1.8 2.9 4.3 9.4 4 12.5-0.1 0.8-0.7 1.5-1.1 2.3 3 3.1 7.2 9.2 8.4 11.3l-1.8 0.2c-2.1-1.7-4.9-3.4-7.8-4l0.2 1.2c2.2 2.5 3.2 5.7 5.2 8.3 2.9 3.6 8.5 5.8 10.4 10.1l-1.9 0.1c-2.5-2.3-8.7-5.3-12-6.3l0.2 2.5c0.2 0.2 0.3 0.5 0.5 0.8 0.1 0.1 0.2 0.1 0.4 0.1l0.2 0.9c0.5 0.7 1 1.3 1.4 2q0.5 1.3 0.8 2.6c0.8 0.7 1.7 1.3 2.6 1.7 0 0.1 0.1 0.2 0.1 0.2l13.9 6.3c1.2 0.7 2.7 2.1 3.6 3.2-0.7 0.2-1.4 0.3-1.9 0.6 2.4 0.9 3.6 2.1 5.4 2.9z"/>
		</g>
		<g id="Clip-Path" clip-path="url(#cp11)">
			<path id="Layer" class="s5" d="m1274.8 356.7c-4.1 2.5-7.7 2.2-11.2 1.2 0.2 5.7-10.9 5.6-7.6-1.8 0.2-0.3 1-0.7 1.6-0.9-0.9-0.5-1.8-0.9-2.5-1.5-3.3-2.3-6.6-4.7-9.6-6.1-4.7-1.4-12.1 0.2-15.8 3 2.6-6.9 12.8-8.4 18.9-9.8-2.8-4.6-12.8-2.2-16.4-1.7-6.2 2.7-10 3.4-13.8 9.4l-1.7-1.1c9.1-10.8 18.3-16.5 34.2-14.4 7.2 1.6 11.6 2.8 16.8 6.5l5.6 4.1c2.1 2.8 6.6 8.7 1.5 13.1zm-77.3 6.7c1.5 1.6 0.1 5-1.2 5.7-1.8 0.7-3.2 8.7-6.2 9-1.2 0.2-7.7-4.4-6.2-9 0.2-0.8 7.1-3.4 6.7-6.2 0.1 0.4-9.1-7.6-9.5-7.5-1.5 0.8-0.9 12.7-5.2 9.8-0.2-0.1 0.1-3.8 0-4.6-0.1-1-2.9-11.4-5.1-10.7-2.2 0.6 0.5 7.5-2.2 8.4-6.2 2.3-4.2-14.2-8-14.7-1.9 0.3-0.3 4.2-1.6 5.1-1.1 2.9-4.2 4.6-5.8 3.4-2.7-2-0.3-14-1.7-14.7-3.3-1.9-2.8 12.1-5 12.5-2.1 0.3-4-12.5-4.5-13.7-1.2-2.5-7.7-10.1-9.2-8.9-2.6 1.7 1.4 7.4 1.8 8.4 1.2 3.9 1.3 7.6 2.2 10.2 3.6 9.3 11.2 15.6 14.2 24.4 2.6 7.7-0.1 11.5 8.4 11.8 5.7 0.4 17.8-4.3 20.5-0.5 1.6 2.3-2.6 11.8-4 12.4-1 0.5-7.4-0.3-9.6-0.5-8.8-1.2-23.1-4.9-27.3-9.2-2.8-2.9-2.7-7.5-5-14-3.3-9.7-11.2-25.4-13.6-35.7-0.6-2.4 0-4.7-0.6-6.9-0.6-2.6-6.8-16.3-4.5-19.2 0.8-0.9 7.5-0.6 10.2 0 13.9 3.3 26 14.2 36.8 22.6 4 3 7.2 6.8 10.8 9.1 4.6 3.1 9.4 4.4 13.1 9 0.5 0.9 0.4 2.9 1 3.5 3.9 3.7 8.7 3.4 10.3 10.7zm-264.5 612c-2.4 7.8-5.9 11.7-13.4 7.7-2.2-5.6-2.4-6 1.6-7.1l2.1-0.4c3.4-1.1 3.1-5.6 6.7-4 3.6 1.4 3 3.8 3 3.8zm-22.1 12.1c4.1 2 5.9 3.6 2.2 5.7-3.7 2.1-1.7 0.8-3.6 2.4l-1.2 0.8-1.3 0.9c-2.4 1.3-4.1 0.9-6.4-1.2l-0.2-2.6c-0.3-3.5 0-6.4 3.8-8.2 2.2 0.8 4.8 1.2 6.7 2.2zm58.9-13.6h0.6c-0.3 6.5-3.6 11.2-10 14.5l-4.5-4c1.2-1.3 2.3-2.6 3.1-3.7l1.5-1.7 1.4-1.7c2-1.7 4.3-3.2 7.9-3.4zm76.8-17.2c-5.5 2.1-11.2 5.7-17.6 2.2l-2.6-2.3c4.5-6.9 10.6-4.1 17.8-5.2 2.4 1.8 3.2 2.7 2.4 5.3zm-24.9 11.1c4.5-1.3 7.2 0.8 11.1 1.9-0.5 8.8-8.5 5.1-12.1 7.9l-1.3 1.1c-1.3-2.7-1.9-4.2-0.6-6.7 0.7-1.6 1.7-2.8 2.9-4.2zm-0.7 22.7c1.5 0.9 2 1 3.5 1.9l-0.7 1.9c-4.7 0.2-10.1 2.9-13.2-2.3-2.1-3.2 2.7-5.9 6.9-5.5 0.9 1.9 1.6 2.6 3.5 4zm-20.6-30.1c0.3 0.7 0.4 1.6 0.5 2.1 0.5 3.7-5.7 4.4-8 8.9l-2 0.3c-0.3 0-0.5 0-0.7 0h-2.5c-2 0-3 0.9-3.8 1.9l-1.5-0.9-1.6-1.1c-0.1-0.7-0.2-1.1-0.2-1.6-0.1-2.1 1-2.6 3.9-4l2.4-1.3c3.7-1.5 5.7-3.1 7.5-6.8 1.8 0.1 5.3 0.8 6 2.5zm-165.9 21.4c0-2.5 2.7-5.5 2.8-8.3 0-0.7-0.5-1.5-1.3-2.1l-0.3-0.2-0.3 0.1c-4.4 0.7-7.8 3-9.9 4.4q-2 0.6-2.8 0.6c-1.1 0-1.1-0.2-1.2-1.1-0.2-1.6 1.1-4.2 1.1-4.2 3.5-4.3 9.3-4.2 13.1-10.4 1.1-0.3 2.4-0.6 3.6-0.6 2.5 0 4.4 1 6.9 3.2 2.2 2.2 3.6 4.4 6.1 4.6 1.6-0.1 3.1-1.2 5.3-3.6 3.5-4.1 2.8-8.6 9.3-8.8 1.1-0.6 2-0.9 2.8-0.9 1 0.1 2 0.3 3 0.9l1.8 0.7c0.2 0.2 0.7 0.3 1.1 0.3 1.6-0.1 2.4-1.6 2.8-2.2 2.7 0.9 5.5 1.2 8.5 1.3 8.5-0.1 17.8-3.3 24.8-4.7l4.3-3.2c0.8-0.1 1.9-0.3 3.1-0.4h0.4l0.2-0.4c3.1-6.6-0.4-14.3 9.4-15.3h0.6l0.1-0.5c0.9-3.5 4.1-5.1 7.1-6.3l2.4-1.2c2.9-1.5 4.3-2.8 5.5-5.7h1.1c8.3 0 11.7-5.4 15.8-10.8 3.4-4.2 7.2-8.5 13.3-8.5 1.4 0 3 0.1 4.7 0.8l1.3 0.3-1.2-4.8c1.4-1.4 1.5-1.4 2.8-1.5h0.8l1.1 0.1-0.3-1c-1.5-4.6-2.4-5.6-2.7-10.4 4.3-3.6 4.7-5.4 10.4-8.3 0.9 2.8 3.7 3.5 3.7 5.3 0.3 5.5-2.2 8-3.3 15.6v0.3l0.1 0.4c0.5 0.5 0.9 1 1.4 1.4 0.7 0.9 0.9 1.8 0.9 2.6 0.2 1.6-1 3.1-2.2 4.5-2.6 3.2-5.7 3.9-8.9 4-2.8 0-5.7-0.5-8.3-0.5-2.1 0-4.1 0.5-5.7 1.8-5.8 5.1 3.1 9.5-13.7 16.1-3.1 1.4-6.1 2.2-9.1 3.4-0.6 0.6-0.9 0.8-0.9 1.5 0.4 1.3 1.2 1.1 2.1 1.4 2.4 0.8 5.4 0.9 7.7 1.6 0.7 0 1.2-0.1 1.5-0.1 3.8 0 5.3 1.7 5.4 3.4 0.1 2.2-2.3 5.2-8.2 5.3-1.3 0-2.7-0.2-4.3-0.4-4.1-1.3-7.3-4.1-11.5-6.3l-0.5-0.2-2.4 1.9c-1 0.9-1.4 2-1.4 3 0.3 2.5 2.8 4.6 2.7 5.7 0 0.3 0 0.5-0.2 0.7-5 1.8-22.5 11.3-27 24.4-7.2 15-27.2 3.1-32.5 14.8-0.8 0.3-1.6 0.3-2.3 0.3-1.8 0-3.2-0.6-3.9-2.1-0.3-0.7-0.4-1.5-0.5-2.2-0.5-5.9 8.1-6 11.3-10.5 2.8 0 6.5 1.1 9.8 1.1 1.8 0 3.6-0.4 5-1.6 3.2-1.6 5.2-4.3 6.6-7.2l0.7-1.7-1.6 0.6c-2.7 0.7-6.2 1.1-10.1 1.2q-0.3 0-0.5 0c-2 0.7-3.6 1-5.2 1-4.6 0.1-9-1.9-13.1-1.9-2.7 0-5.2 1-6.9 4.1-4.9 2.3-9.8 5-15.3 6.5-5 1.9-7.8 11-12.5 10.9-1.1 0-2.6-0.5-4.3-2zm53.2-139.8c0.5 0.3 1 0.3 1.6 0.4 3.3-0.3 9.5-9.6 10.4-11.8 1.8 0.1 2.4 0.6 3.1 2.4v0.1c0.5 0.9 0.6 2.4 0.8 3.7-2.1 3.3-15.5 7.7-20.3 14-1.4 0.5-2.4 0.6-4.2 0.6l-0.2 0.1-1.8 0.9c-0.7-1.2-0.9-2.4-1-3.4-0.2-4.3 4.4-6.8 10.6-7-0.1 0 1 0 1 0zm-3.3-16.5c0.8 0 1.7 0.1 2.9 0.5-0.4 1.8-5.1 8.4-8.5 8.7-1.4 0.1-4.7-0.7-5.5-2.2l-0.1-0.2c2.8-1.6 4.2-3.2 6.6-4.9 1.8-1.4 3.1-1.9 4.6-1.9z"/>
		</g>
		<g id="Clip-Path" clip-path="url(#cp12)">
			<path id="Layer" class="s5" d="m824.3 941.7l0.4-0.2c3.5-1.5 6.2-2.5 8.6-5.4 1.3-0.2 2.8-0.4 4.1-0.4 6.4-0.1 9.2 4.1 15.7 4.1 1 0 2-0.1 3.2-0.4 5-4.3 4.5-7.6 11.4-8.7 1.3 1 2.3 1.4 3.6 1.4 0.7 0 1.5-0.2 2.4-0.3l2.1-1c1-0.4 2.1-0.7 3.1-0.7 1.6 0 3.1 0.5 4.5 2.8l0.5 0.6 0.5-0.2c3.6-1.9 13.1-2.6 13.1-8.6l0.1-0.2-0.1-0.3-0.2-0.3c-8.6-7.4-19.3-4.8-28.6-6.3-1.5 0.6-2.3 1.3-3 2.4-1.7 2.3-3.7 5.3-6.1 5.3-0.8 0-1.8-0.2-3.1-1.2l-0.6-0.4-0.5 0.6c-2.1 3.4-4.2 4.3-6.6 4.4-3.6 0-7.8-2.6-12-2.6-2.1 0-4.3 0.9-6.2 3l-3.5 0.4-2.6-0.8c-0.5-1.5-2.1-2.4-3.6-2.4-2.4 0.1-4.7 2-6.2 2.8h-1.4c-1.9 0-3-0.3-3.6-1.7l-0.2-1.5c-0.5-6.4 7.6-4.8 11.4-8.5 1.1-3.2 2.8-4.5 4.7-5.8l3.1-1.6c1.5-0.7 1.4-1 2.8-1.1h1.7c3.8 0 4 0.6 4.1 1.4 0.1 1.3-1.2 3.7-1.1 6.1 0.1 1.6 1 3.2 3.3 4.2 1.4 0.5 2.6 0.6 3.7 0.6 10.2-0.6 8.8-13.5 16.8-13.2 1.6 0 3.6 0.5 6.3 1.6l0.4 0.2 0.3-0.3c1.3-1.3 3.3-1.6 5.6-2.4 0.8 0.5 1.3 0.8 1.9 1.9 0.8 1.7 0.9 3.1 2.3 4.1l0.3 0.3 0.4-0.3c18.5-11.4 25.5-14.6 27.7-14.5 0.9 0 0.8 0.1 1.1 0.7-0.2 3.8-1.2 5.3-4.9 6.8l-1.7 1c-2 0.6-3.4 2.1-4.1 4.1 0.1 0.9 0.2 1.6 0.2 2.2v0.7c0.1 0.3 0.2 0.5 0.1 0.8 0.1 0.9 0.1 1.6 0.9 2.2l0.3 0.2 0.3-0.2c8.9-2.5 16.9-14.3 26.9-14.3 0.9 0 1.8 0.1 2.8 0.2l0.4 0.1 0.3-0.3c8.1-9.1 16.4-13.8 25.8-22.2 5.4-0.4 7.2-3.2 8.6-7.9 0.6-2.6 0.4-5.4 1.5-8.1 0.6-0.1 1.3-0.3 1.9-0.3 3.2-0.4 5 7 6 10.6-1.6 5.2-3.6 6.1-8.8 8.6-4.6 2-6.5 2.9-7.4 7.7-3 0.1-5.3 0.6-6.5 3.2l-1.3 1.5c-1.6 3-2.1 5.5-7.2 6.5-5.7 1.1-15 12.7-20.9 12.6-0.5 0-0.9-0.1-1.3-0.2-0.7-0.2-1.6-0.3-2.2-0.3-1.9 0-3.5 1-4.9 2.6l-1.4 1.7c-1.4 1.8-2.7 4.1-4.2 5.6l-0.4 0.4 0.2 0.4q0.6 1.6 0.8 3.1c0.4 7-8.8 12.4-14.9 13.9-4.9-0.5-9.7-2.4-14.8-2.4-2.5 0-5 0.6-7.4 2-2.5 2.8-5.9 4.2-9.6 4.5l-3.6 0.9c-6.4 0.9-11.4 1.1-13.9 2-2.3 0.3-4.8 1.2-7.5 1.2-2.4 0-4.9-0.5-7.7-2.4-0.7-0.4-1.3-0.7-2-0.7-0.6 0-1.1 0.3-1.5 0.6-1.3 0.6-2.3 0.9-3.1 0.9-1.5 0-2.5-0.9-4-2.3 0.1-0.1 0-0.4 0-0.7-0.4-2.5 3.8-2.8 8.2-4.1zm-22.8 43.9c-0.6-0.3-1.5-1.1-2.4-1l-1.8 1.6c-4.9-3.9-1.7-5.9-0.6-10.2l9.1-6c0.9 2.8 2.6 7 2.7 9.6 0.1 3.9-2.9 5.5-7 6zm-7.9-26l-6.4 5.9c-2-5.9-0.2-8.8 1-14.5 0.8-0.3 1.7-0.6 2.7-1.3 3.4-2.4 4.5-4.4 9.6-3.4-0.9 3.4 0 4.4 3.2 6.4l1.7 1.3c2.4 1.8 3.6 3.3 3.6 6.2-3 2.2-5.2 1.8-7.9-0.2l-1.9-1.3c-2.6-1.6-3.8-2-5.6 0.9zm-8.4-24.6l-0.9 0.3c-0.5 0.3-1.2 0.3-2 0.3h-1.8c-1.5-0.6-1.8-1.2-1.8-1.3 0 0 0.1-0.4 0.6-0.8v-0.1c5.2-6.1 5.6-8.6 13.8-10.9 0 0 4.8-1.2 5.7-1.6 7.9-3.1 1.4 3.5 1.5 4.4 0 1.4 0.4 2.8 1.2 4.9 0.5 1.5 1.4 1.3 1.5 2.2 0-0.3-1.3 0.8-2.5 2.5-1.5-0.2-3.2-2.6-6.4-2.7-0.4 0-8.8 2.8-8.9 2.8zm17.2-36l4.4-0.3c1.6 0-0.2 3.4-0.3 4.4l-0.6 2.7c-0.6 2.7-0.9 1.5-2.6 3.3 0 0-2.7 1.1-4 1.1-3.5 0-7.6 2.9-7.6 2.9 0 0 0.4 1-2.1 2.4-3.4 2-3.6 0.7-4.2-1.5-0.7-1.6-0.9-2.4-1.6-4.4l3-2.9c3.1-2.5 6.3-4.7 10.4-5l0.5-0.1 0.3-0.3c0.9-1.8 2.5-2.3 4.4-2.3zm-20.6-0.1l-7.9 1.6c0.3-2.3 0.4-3.1 3.2-4.7l2.2-0.9c0.9-0.5 1.3-0.7 1.8-1.2 1.4-2 2.8-3.5 4.3-4.6h0.2c4.6-4.4 13.5-14.4 14.2-14.4 2.3 0 3.8 1.1 5.6 3.8l1 1.8c-3.4 11.2-16.3 11.1-24.6 18.6zm118.3-51.2l0.1 4.4 0.1 0.2c1.1 0.5-0.7 2.7 1 2.7 0.5 0 1-0.1 1.4-0.2l0.7-0.3 0.1-0.5c0.8-5.9 8.4-14.6 13.1-14.6 2.1-0.2 4.7 0.7 7.6 2.7v1.3c0.2 1.3 0.4 2.1 0.4 2.8 0 1 0.4 1.7-1.4 2.6l-1.3-0.4c-0.4-0.6-0.3-1-1.5-1-0.2 0-0.3 0.1-0.3 0.1-0.6 0-1.1 0.1-1.2 0.1l-0.6 0.1-4.7 6.2c-3.9 9-14.8 9.1-24.1 11.1l-4.7-3.5c7.1-2.5 9.6-10.8 14.2-13.8 0 0 1.1 0 1.1 0zm-29-30.7c-0.2-0.5-0.3-1-0.3-1.5-0.2-4.2 4-7.4 8.1-7.5 2 0 3.7 0.6 5.1 1.9-0.3 3.1-7.7 4.7-12.3 7.4l-0.4 0.3c0 0-0.2-0.6-0.2-0.6zm-87.4 42.1v-0.1c0-0.1 0.7-0.6 2.5-0.6h0.4c0.8-0.1 1.6 0 2.5 0 2.7-0.1 5.9-0.2 8.5-2 1.7-0.9 3.2-2.1 4.7-3.4l4.4-3.7c3.7-2.9 7.5-5.4 12.4-5.4 3 0 6.4 0.7 10.5 3.1l0.4 0.1 0.1-0.1c9.7-0.7 15.4-10.4 23.4-12.7l0.3-0.1 0.3-0.3c1.1-1.8 3.2-2.5 5.7-2.6 2.9 0 6.2 0.9 8.3 1.7 0.2 0.6 0.3 1.1 0.3 1.4 0 1.3-0.3 2.2-1.7 3.4-1.2 1.2-1.8 2.4-1.8 3.5 0.2 1.3 1 2.1 1.7 2.8-1.5 1.2-1.8 1.4-3.2 3-0.9 1.3-1.8 1.8-2.9 1.8-0.5 0-1-0.1-1.7-0.3-1.7-1-1.8-2.4-2-4.2-0.1-0.6-0.1-1.2-0.1-1.8 0-1.1-0.5-3.1-2.4-3.1-0.4 0-0.7 0-1 0.2l-0.5 0.1-2 3.5c-2.9 3.7-5.3 5.8-10.2 7.6-1.7-1.1-3-1.6-4.4-1.6-2.2 0-3.7 1.4-5.4 3.4l-2 2.1c-1.3 1.2-2.5 1.7-3.7 1.7-1.2 0-2.6-0.5-4.3-1.8l-0.2-0.2h-0.2c-0.5-0.1-0.9 0-1.1 0-3.6 0-6.3 1.7-9.3 3.8l-2.3 1.6c-2.1 1.4-4.5 2.4-7.3 2.5-0.4 0-0.9 0-1.4-0.1h-0.5c-2.5 0.7-4 2.3-4.8 4.4l-0.9 2c-0.6 1.8-6.2 5.6-8 6.3 0.1-1.5 1.6-4.9 2.9-8.2 0.2-0.8 0.3-1.4 0.3-2.1-0.6-4-4.8-5-4.3-5.6zm5.9-17c0-0.3 0-0.5 0.2-0.7 13-24.7 29.1-8.9 46.1-21.4 0.5 0 1.7-0.1 2.7-0.2h0.1l1.4 0.5 0.7 0.2 0.4-0.7c2.4-4.4 1.4-9.6 6.3-9.8 0.7 0 1.6 0 2.6 0.3h0.3l1.7-0.6c1.2 0.3 1.8-1.8 3-2 2.5-0.2 5.1-1.9 7.2-2.2 1.8-0.3 2.4 0.1 2.5 0.4 0.7 1.6-5.6 5.2-10.8 7.2-2.8 1.3-4.6 2.5-4.4 4.7 0 0.6 0.3 1.2 0.7 1.6 0.6 0.5 1.3 0.6 1.8 0.6 2.1-0.3 4.8-2.2 5.8-2.2 0 0 0 0.1 0.1 0.2 0.2 1.5-0.8 2-1.5 2.9l-1.4 1.9c-3 3.7-5.6 6.5-9.8 7-1.1 0.1-2.3 0-3.6-0.3-1.6-1.4-3.3-1.9-4.8-1.8-3.6 0.5-6 2.9-9.3 3.1-1.2 0.2-2.5 0-4.1-0.9l-0.4-0.2-0.5 0.2c-8.3 4.1-17.8 6.1-24.7 13.8l-3.4 1.8c-2.3-0.6-4.8-2.4-4.9-3.4zm79.7 18.2c0.8 1.5 1.3 3.5 3.6 3.7 0.8 0 1.6-0.4 2.6-1.1 4.4 0.2 6.2 1.3 7.9 4-1.2-0.1-2.2-0.1-2.9-0.1-2.1 0-3.6 0.4-6.8 1.6-1.3 0.5-2.6 0.9-3.9 0.9-1.6 0-3.1-0.5-4.9-1.7l-0.7-0.6-0.6 0.5c-1.7 1.5-3.9 2.1-6.2 2.1-1.4 0-2.8-0.2-4.3-0.4l-4.3-0.6c-1.2-0.1-2.1-0.2-3-0.2-1.7 0.1-3.1 0.3-3.9 1.3-0.9 1-1.1 2.3-1 3.8 0 0.7 0.1 1.5 0.3 2.2-6.5 2.2-10.1 5.4-16.9 6.6-0.7 0.1-1.7 0.5-2.2 1.4l-2.2 2.1c-1.5 1.6-3.1 3-4.2 3-0.4 0-1-0.1-1.7-0.7 0-0.2-0.2-0.6-0.1-0.8-0.1-1.9 0.8-3.4 2.4-5.2l1.7-1.6c1.3-1.6 2.4-2.8 2.4-4.6-0.1-0.7-0.5-1.5-1.1-2.3l-0.4-0.6-3 1.1c-1.2 0.3-2.1 0.6-2.8 0.5-1.7 0-2.2-0.6-2.6-3.2 6.7-2.4 10-7.6 16.3-7.6 1.2 0 2.5 0.2 4 0.5 1.8 1.5 3.9 2.1 5.8 2 4.6-0.1 9.3-2.8 13.1-3.2h0.3l7-6.8c0.3 0.5 0.9 1 1.7 1.3l0.4 0.1c0.9-0.1 1.2-0.3 1.6-0.6 0.3-0.2 0.5-0.3 0.6-0.3v-0.1l0.3-0.1 0.2-0.2c0.7-0.4 1.3-0.6 2.1-0.6 0.6 0 1.2 0.1 1.9 0.4 1.9 0.8 2.7 2.4 3.5 4.1zm154.3 72c0.2 1.9-0.9 3-1.6 4.2-1.4 1.2-2.5 2.2-3.2 3.6-2.6-0.8-4.3-0.6-6.7-1-4.3-0.4-5.2-2.6-5.7-6.2 2.2 0.3 2.7 0.6 4.6-0.7 1.1-0.8 2.3-1.9 3.3-2.5 3.7-2.6 6.5-1.7 9.3 2.6zm-4.2-39.4l-2.8 2c-1.9 0-2.7 1.5-2.8 2.7-1.7 1.7-2.5 3.5-2.3 5.1 0.1 2.7 1.9 4.8 3.5 7.1 1.4 2 1.9 3.4 1.9 4.6 0.3 2.4-2.1 4.2-8 5.5-1.1-0.7-2.3-0.9-3.5-0.9-2.1 0.1-4.2 1-5.8 2.1-1.3-1.3-3.4-3.6-3.3-4.8 0-0.5 0.1-1 1.8-1.6 2.5-0.4 5.7-0.4 8.1-2.9l0.6-0.7-2.7-2.2c-1.5-1.3-2.2-2-2.2-3.4 0-0.3 0-0.7 0.1-1.3 1.6-2.3 4.6-1 6.6-3.4l0.3-0.7-0.4-0.3c-0.6-1.1-0.8-2-0.9-3 0-2.2 1.1-4.7 2.4-6.9l2.1-3.4c0.9-0.1 6.9-3.8 7.7-3.8l4.3-0.7c3.7 0 4.6 0.3 5.6 4.4v0.1c0 2-8.3 5.8-10.3 6.4z"/>
		</g>
		<g id="Clip-Path" clip-path="url(#cp13)">
			<path id="Layer" class="s5" d="m883.8 882.9c3.3-0.2 6.7 0.7 10.3 0.6 2.5 0 5.2-0.6 7.7-2.4 14.2-12.8 37.5-18.6 40.2-18.7 2.8 0.1 7.4-0.3 7.4-0.3-1.5 4.3-9.8 12.4-16.8 14.7-0.6 0.1-1.3 0.1-1.9 0.1-3.2 0.2-8.9 1.7-11.9 1.7-0.5 0-0.9 0.1-1.4 0.1l-0.4 0.1-0.1 0.3c-1.5 3-3.3 5.6-5.4 8.1l-2 1.4c-3.3 1.6-7.8 3.3-12 3.4-1.8 0-3.4-0.3-4.9-0.8-1.7-1.5-3.3-2.4-5-2.4-1.4 0.1-2.8 0.7-4.3 1.7l-2.4 1.5c-2 1.1-4.2 1.9-6.5 2-0.6 0-1.1-0.1-1.7-0.2h-0.4l-0.3 0.3c-1.5 1.5-3.1 2-4.7 2.1-3.8 0.1-8.1-3.2-12.4-3.2-0.3 0-0.5 0-0.8 0.1h-0.4l-0.1 0.3c-2.7 3.8-9.8 5.6-14.8 6.4-7.8-1.3-11.4-1.5-13.2-7 1 0.3 1.8 0.5 2.7 0.5 1.2 0 2.3-0.6 3.6-2.1 2-2.2 4-4.2 6.2-4.2 1 0 2.2 0.3 3.7 1.3l0.3 0.2 0.4-0.1c2.5-1 4.4-2.9 6.6-2.8 0.5-0.1 1.1 0.1 1.9 0.3l0.6 0.4 0.3-0.7c2.5-4.6 7.6-7.1 13.7-7.1 1-0.1 2 1.1 3.1 1.3l5.8 6.7 0.8-0.5c2.9-2.5 5.6-3.1 8.5-3.1zm153.1 31.3c0 1.2-0.7 2.5-1 4.4-1.2 0.6 0.1 1.1-1 2.1-2.3 1.4-3.3 2.4-4.9 2.3-1.9 0-3.3-0.9-4.3-4.6 2.5-1.6 3.1-3.9 2.9-5.5 0-0.8-0.3-1.5-0.3-1.7l-0.2-0.3-0.4-0.2c-3.2-1.4-4.1-2.6-4.1-4.2q-0.2-1.2 0.5-3.1c3.2-2.3 2.5-2.4 5.6-1.7l2.7 0.5c6 1.1 4.3 6.7 4.5 12zm-88.6-60.8c-2.1-1-3.5-3.1-2.1-5.7 3.6-6.8 12.8-12.3 21.3-6.5 0.7 12-10.8 8-17.4 11.4 0 0-1.8 0.8-1.8 0.8zm-19.7-12.9l-0.9-1.9 0.9-2.9c1.8-2.4 1.5-0.9 3.4-2.1l1.4-1.2c3.8-3.6 4.2-4.2 9.8-4.1 2.2 2.5-0.4 12.3-7.3 14.4-3.6 1.7-5.9 0.4-7.3-2.2zm-23.2-18.2c4.5-0.8 10-3.4 14.6-3.5 1.9 0 3.5 0.5 5 1.5l0.2 0.1c-4.9 3.1-6.9 5.6-9.8 10.2-0.6-0.9-1.3-1.8-3-2.3-4.6-1.4-7-1.1-7.1-4.4 0-0.5 0-1.1 0.1-1.6zm-12.1-3.8c-0.9 0-1.8 0-2.9-0.1 1.5-3.9 8.4-15.6 12.1-15.5 0.5 0.1 1.1 0.1 1.7 0.3l0.4 0.2 0.3-0.2 0.9-0.4c0.7-0.5 0.9-0.6 1.3-0.6 0.2 0.1 0.5 0.1 0.7 0.1 0.6 0.5 1 0.7 1.2 0.8l1.5 1.1c1 0.8 1.3 1.3 1.4 2v0.6c-3.8 3.8-13.2 11.6-18.6 11.7zm36.5-3.9l0.5-1.8 0.9-2.7c1-2.9 3.2-6.7 6.7-7.7 2.1-0.9 4.9 1.3 4.5 3.2l0.1 1.9c0.1 3.1-0.3 5.9-3.4 7.5-1.3-0.3-2.7-0.5-3.9-0.7-2.4-0.4-3.2-0.2-5.4 0.3zm117.1 111.1l0.1-0.5c0.2-0.7 0-1.6-0.3-2.4l-0.1-2.6c-0.3-1.5-0.3-2.8-0.1-3.8 0.3-2.4 1.8-3.6 6.7-4.2l3 3.7c-2.5 1.5-3.5 3.7-3.8 5.9-0.2 1.9-0.1 4-0.3 6.1 0 0.5-0.1 1-0.1 1.3-0.8 3.5-1.5 3.8-3.3 3.7-1.5-0.3-3.5-1.4-5.5-2.8 1.6-0.7 3.3-1.7 3.7-4.3 0 0.1 0-0.1 0-0.1zm-11.5 9.9c0.9 0 2.1 0.3 3.5 1.1 0.4 0.7 0.5 1.5 0.5 2.1 0.4 3.9-5 5.5-9.7 7.5l-1.1 0.1h-0.6c-2-0.1-2.3-0.2-3.1-1.4 2.6-0.6 2.7-2.2 4.1-4.7l1.1-1.8 1-1.1c1.4-2.1 2.7-1.8 4.3-1.8zm-85.4-109.3l-4.7-2.5c1.6-3.2 3.8-6.1 6.7-8 3.3-2.5 6.9-2.7 9.7 1.1 0.1 3.3-2.1 4.9-4.6 6.6-2.4 1.4-4.6 1.9-7.1 2.8zm45.8 4c0 2.4-1 6.2-3.1 7.8-0.7 0.5-3.1 1.3-4.1 1.5l-2.8 0.3c-4.2 1.7-3.6 0.8-5.1 5.1-6.1-0.9-7.6-4.7-8.1-9.6 6-7.3 14.5-8.8 23.2-5.1zm-21.2 32.9c1.8-6.2 11.3-11.9 17.8-5-1 8.8-9.1 6.2-12.2 9.5l-2.9 2.3c-2.2-2 1.3-3.7-2.7-6.8zm32.2 93.1c-4.1-0.2-5.1-2.3-5.4-5.7 2.8-4.9 10.8-9.9 16.2-2.8-2.2 7.5-8.2 4.9-10.8 8.5zm-6.4-24c-0.6 0-1.3-0.1-2.5-0.1h-1.9-0.7c-1.4 0-2.4 1.2-2.4 2.9-0.6 0.8-1.5 1.8-2.8 2.3h-0.1c-2.3 1-7 1.2-7.7 5.3v0.3l0.1 0.4c2 2.1 1.4 3.6 2.4 7l-2.8 2.5c-11.2 2.1-14.2 9.1-24.8 9.2h-2.1l-0.3-0.1-0.3 0.3c-3.4 3.8-3.9 10.3-8.9 10.1-0.8 0-1.8 0-2.9-0.4-0.8 0.1-1.2 0.2-1.5 0.1-3.4 0.1-5.2-4.5-5.9-6.2l-2.1-1.3c0 0.1 0 0 0-0.3-0.2-2 3.3-3.5 4.3-3.9 2.4 1.7 1.2 3.5 3.5 3.7 1.2 0 2.3-0.9 3.9-2.6l0.9-1.5 1.1-1.7c2.3-3.2 4.8-6.6 9-6.6 1.6 0 3.5 0.5 5.9 1.6l0.3 0.2h0.3c4-1.4 8.1-2.4 10.7-6.2l0.3-0.3-0.3-0.6c-1-1.5 0.3-1.5 0.2-3-0.6-9 12.3-15.5 14.5-16.8 4.4 1.5 9.5-0.8 12.2 2.6 0.4 1.6 0.8 2.7 0.8 3.1v0.1c0-0.1-0.4-0.1-0.4-0.1zm28.1-169.9c0 0-0.2 0-0.2-0.3 1.1-6.1 10-11.2 16-14.7 0.6 0 1.2 0 1.6 0 0 0 0.1 0.1 0.3 0.1h0.4c0.2-0.2 0-0.2 0.9 1.4-1.9 6.3-4.8 7.6-10.8 9.2-1 0.3-1.7 0.6-2.5 0.8l-0.4 0.1c-1.8 1.1-3.3 2.4-4.5 3.8 0 0-0.1 0-0.1 0 0 0.1-0.3-0.1-0.7-0.4zm25 43.2l-2.1 2.1c-1.1-3.2-1-2.3-1.2-6.5-0.4-6.7 2.7-12.1 6.4-15.9 0.2-0.2 0.4-0.3 0.8-0.3 0.6 0 1.8 0.5 3.1 1.4l0.1 2.6c-0.7 3.8-0.7 4.5-2.6 7.9v0.1c-2.4 4.5-4.2 3.3-4.5 8.6zm-43.8 72c-1.9 0.1-4.4-1.5-7.3-3.8 1.3-0.6 1.8-1.1 2.2-1.7 0.3-0.7 0.2-1.1 1.6-2.8 2.4-3.1 4.6-5.3 8.5-6.3 1.4 0 2.4 0.8 3.7 1.6l1.3 1.3c0.8 0.6 1.5 1.1 2.2 1.7-2.3 0.7-2.9 2-4.9 3.2-2.1 1.3-1.4 2.1-2.3 3.4-2 2.7-3.6 3.4-5 3.4zm-8-34.6c3.8-1.8 5.8-0.5 8.4 3.2l1.1 1.5c-1.5 1.9-2.3 3.7-3.6 5.9-1.6 2.8-0.4 5.4-0.4 5.4-4-0.2-3.9 1.7-7.1-1.5-0.7-0.8-1.3-1.6-1.9-2.5l-1.4-1.9c-2.1-5.6 2.9-6.3 4.9-10.1zm-12.8-31.8c0.4 8.9-9.6 6.1-15.5 8.6l-1.7 0.8c-1.8-0.8-3-2.3-1.7-4.4 3.2-5.1 11.4-9.4 18.9-5zm-17.8-14l-5.3-2.5c1.9-3.5 4.3-6.7 7.6-8.7 3.7-2.7 7.7-2.8 11 1.1 0.1 3.6-2.3 5.3-5.3 7.1-2.8 1.4-5.2 2-8 3zm28.2 8.4c3.7-4.4 9.2-5.4 14.6-3.2 0 1.6-0.7 3.8-2 4.8-0.4 0.4-1.9 0.7-2.5 0.8l-1.8 0.3c-2.7 1-2.3 0.4-3.2 3.1-3.9-0.6-4.8-2.8-5.1-5.8zm52.1 26.7l-2.2 0.4c-3.3 1.2-2.8 0.5-3.9 3.8-4.7-0.7-5.9-3.6-6.2-7.3 4.6-5.6 11.1-6.8 17.7-4 0 1.9-0.7 4.8-2.3 6-0.5 0.5-2.4 1-3.1 1.1zm-34.8-11.1l0.9 1.1c-1.2 1.5-1.9 2.9-3.1 4.8-1.3 1.9-0.3 4-0.3 4-3.4-0.1-3.4 1.4-6-1.2-0.7-0.6-1.2-1.2-1.7-1.7l-1.2-1.6c-1.7-4.3 2.6-5 4.3-7.9 3.2-1.6 5-0.4 7.1 2.5zm0.2 21.2c0.3-1.6 0.9-2.6 2.3-3.4 0.6-0.2 1.1-0.2 1.7-0.4l1.4-0.4c2.7-0.3 3.2-0.6 3.2-3.1 1.7-0.6 4.8-0.7 4.6 2.3l0.7 5.6c-4.2 1.5-9.9 3-13.9-0.6zm9.3 12c4.1-0.4 8.7-3 11.5 0.7 2.9 6.6-7.8 3.7-9.5 5.6l-1.4 0.1c-1.9-1.4-2.3-5-0.6-6.4zm71.9-114.8c1.7-1.9 3.2-3.3 5.4-3.3 0.6 0 1.3 0.1 2.2 0.2 0.1 0.1 0.8 0.3 1.4 0.5 0.7 0.3 1 0.8 1 1.1 0.1 0.1 0 0.1 0 0.2 0.2 1-3.2 4.5-6.9 7.4-3.6 3.1-7.2 5.6-7.9 7.9-0.2 0.2-0.2 0.5-0.2 0.9 0.6 3.3 4.8 4.3 6.9 4.4 0.3 0 0.7 0 1-0.2 7-4 10.9-11.7 18.1-11.7 1.3 0 2.7 0.2 4.3 0.8-0.1 4.5-0.2 8.6-5.4 9.2-9.6 2.5-11.6 2.7-15.9 11.2l-0.4 0.9 0.9 0.4c1.6 1 3 1.4 4.3 1.4 2.3 0 3.7-1.2 5.7-2.1 1.6-0.8 3-1.1 4.3-1.1 1.3-0.1 2.7 0.2 4.3 0.7-2.9 6.8-7.5 10.3-14.3 10.4-1.6 0-3.3-0.1-5.2-0.5-2.8-0.3-12.9-4-13.2-6.8l0.1-0.2-0.1-0.4-0.6-2.1c-0.1-0.5-0.3-1-0.4-1.3-0.3-0.3 0.1-0.7-1.1-1.3h-0.3l-0.3 0.2c-3 1.7-4 5.1-6.4 5.3-7 2.1-16.4 5.9-16.4 5.9l-2.3-1.9c0 0 1.8-2 4.2-4l3.6-2.2c1.2-1.1 4.3-1.6 4.5-4.3v-0.4c-0.3-1.1 1.2-0.2 1.2-1.1-0.1-1.3 0.4-2.6 1.2-4.5l3-2.8c0.2-0.8 1.6-4.5 1.6-5.2 0 0 4-1.4 13.6-6.9 1.5-0.2 2.1-1.4 3-2.8-0.1 0.1 1.5-1.9 1.5-1.9z"/>
		</g>
		<g id="Clip-Path" clip-path="url(#cp14)">
			<path id="Layer" fill-rule="evenodd" class="s5" d="m1036.1 742.7h-0.1c0 0-0.1 0 0-0.1-0.5-12.4 3.9-12.2 11.6-13.5 7.5-0.9 16.7-0.5 19.4-9.1 0.6-2 6.5 2.6 7.9 2.6 2.1-0.5 2.9-2.3 3.3-3.5l-2.4-5.7c0.2-0.2 1.3-1.7 1.2-4.1 0-1.5 0-0.8 2.3-2.3 0.9-0.3 0.2-3.7 2.4-3.7 0.1 0 0.4 0 0.7 0h0.3l0.2-0.1c2.1-1.2 3.3-3 4.2-4.6 0.6-0.5 1.3-1 1.7-1.5h2.9c5.6 0.3 7.1 2.1 7.2 4.2 0.1 1.4-0.7 1.7-2.2 3.5-1 1.7-2.3 2.6-4.5 2.7l-3.3 1.8c-1.3 0-2.8 0.5-3.3 2l-0.1 0.4 0.2 0.4c3 4.9 2.7 10.2 2.7 12.9q0.1 0.6-0.1 0.9c-1.1 2.5-2.8 3.5-4.5 5-0.7 0.5-1.1 1.4-1.2 2.2l-11.1 9.9-0.6 0.7c-6.3 6.5-3.6 18.8-14.4 20.5h-0.2l-0.2 0.1c-5 2.9-10.9 6.5-13.1 6.3-0.3 0-0.3 0-0.3 0v-0.3c-0.3-1.2 3.4-6.3 7.2-10.3 3.9-4.1 6.2-6.1 6.2-6.1 1.2-2.3 1.6-4.6 1.6-5.9l2.4-2.5c7-2.3 7.2-6 9-11.8l0.3-0.8-0.6-0.4c-0.7-0.4-1.8-2.1-3.9-2.1-0.8 0-1.7 0.3-2.4 0.8-3.7 2.8-8 7.1-10.1 6.9-0.3 0.1-0.5 0-0.8-0.2-1.7-1.1-0.2-3.1-1.3-3.3-0.7 0.2-0.4 0.2-0.7 0.2h-3l-0.2 0.2c-4.3 4.3-3.6 7.6-10.3 7.7zm38 195.4l0.3 3.4c-2.1 0.7-3.6 1.1-5.6-0.3l-1.5-1.2c-4.9 2.2-7.8 8.4-14.2 5.3-1.4-10.9 5.4-7.3 12.1-11.1 0 0 3.5-3.1 5.8-1.4 2.3 1.6 3 5.3 3.1 5.3zm-16.1 26.8c0.2 2.9-0.3 7.1-3.1 9.2l-1 0.7c-1.6-1.9-2.2-1.6-5-2-4.1-0.2-5.2-1.6-6.6-4.9l1.7-0.1c5.3-0.2 7.7-5.2 14-2.9zm-210.1 33.5c-3.7 3.3 2.1 10.1-2.5 15.9l-4.8-1.5c-2.9-4.8-4-13.1-2-18.7 6.4-11.1 21.2-3.7 25.8-14.5l2.8 1.3c-1.6 4 2 7.8-4.5 11.4-4-1.7-4.7-1.1-6.4 2.1-1.2 2.3-3.2 5.6-8.4 4zm-29.2-4.3c1.2 3.6-0.8 3.6-3.3 4.8-1.5 0-2.7 1.1-3.7 1.9-2.3 1.9-3.8 1-6.3-0.7 1.3-1.2 2.5-2.1 3.4-3.4l1.4-1.2c2.4-2.5 4.6-4.1 8.5-1.4zm49.6 6.4l1.3-7.4c3.4 0 5.4 0.6 8.5 1.7l3 1.1c1.4 0.6 2.9 1.1 4.3 1.4l-0.1 1.1 0.3 1.3c0 0.6 0.1 1.3 0.2 2.1 0.2 2-0.3 3.7-2.4 4.9l-5.6 0.3c0.4-1.1 1.1-2.1-1.1-3.7l-1.9-0.7-1.8 0.3c-2.2 0.2-3.8-0.5-4.7-2.4zm-0.5 15.2c-1.8 0.6-2.9 0.8-3.8 2.9-0.2 0.6-0.6 1.2-0.8 1.8l-0.3 2.6c-0.9 5.2-3.1 5.9-8.4 3.2 2.1-8.2-0.6-14.7 8.1-20.2 4 2.2 4.5 5.9 5.2 9.7zm392.6-455.4c-0.1-0.3-1.4-1.5-1.5-2.3v-0.2c0.1-0.4 0.3-0.9 0.3-0.9v-0.1c0.1-0.1 0.1-4.7 1.4-5.8 1.1-0.8 3.5-1.4 5-1.6 0.4 0 2.1 1.6 2.3 1.8 0.5 0.4 0.2 0.4 0.2 0.5 0 1.2-3.2 5.2-3.4 6.8-0.2 0.8-0.3 1.6-0.3 2.2-0.3 0.7-0.3 0.9-0.3 1-0.2 0.2 0.3 0.2-0.7 0.5h-0.2-0.4c-0.1 0-0.2 0-0.2 0-0.2 0-0.2 0-0.7-0.1-0.4-0.2-0.5-0.4-0.9-0.7-0.2-0.2-0.4-0.7-0.6-1.1zm-65.2-24.7c0.4 0.5 2 0.6 2 0.7 0 1.2-3.2 5.5-3.5 7.1-0.1 1-0.1 1.8-0.2 2.5-0.2 0.6-0.2 0.9-0.3 1.1-0.2 0 0.4 0.2-0.7 0.5h-0.7c-0.3 0-0.3 0-0.8-0.1-0.3-0.2-0.6-0.5-0.9-0.9-0.1-0.2-0.4-0.6-0.7-1.1 0-0.3-1.3-1.5-1.4-2.5v-0.1c0.1-0.6 0.2-1.1 0.2-1.1 0.1-0.1 0.2-5 1.5-6.1 1-1 1.8-1.7 3.2-1.7 0.3 0 2.2 1.7 2.3 1.7zm130.6 58c0.1 0-1.1 2.9-1.1 2.9-0.2 1.6 1 2.1 0.4 6.3-0.8 5.8-2.9 15.2-3 17 0 1.3-1.8 4.5-1.8 5.4v0.2c-0.4 0.9-1.6 4.5-1.7 7.4h1.3c0.1 2.7 1.6 7.2 1.9 10.2 0.3 2.9-1.2 11.8-1.2 12.3v0.5c0 0.8 0 2-0.1 3.2 0 0.9-1 3.9-1.1 6.4 0 1.8-2.1 6.4-2.2 10 0 0.4 0.1 0.7 0.2 1.1v0.8c0.2 3.1-2.1 8.7-3.1 9.4 0 1.1-1.2 0.5-1.5 0.8-3.1-0.7-0.8-11-1.3-20-0.1-1.1-0.1-2.1-0.1-3.2 0-9.9 1.1-18.7 1.1-18.7v-0.3c-1.8-14-4.6-26.3-4.6-27.1v-0.2c0-0.8-0.6-1.6-1.6-1.6-0.1 0-0.4 0-0.5 0.1-0.5 0.1-0.8 0.4-1.5 0.7-1.8 1.3-5 3.7-5.8 6.2-0.8 2.7-3.1 14.7-3.5 21.2-0.2 3.1-0.8 6.3-1.4 8.7-0.3 1.2-0.5 2.3-0.8 2.9-0.1 0.4-0.2 0.7-0.4 1 0 0.1-0.1 0.2-0.1 0.2-0.6 0.6-1.4 5.9-5.7 4.8-0.2 0.1-1.6-2.3-1.8-2.1 0.6-2.9 1.8-6.5 3.4-13.6 2-8 4.4-14.6 4.4-17.2 0-0.1 0-0.4-0.2-0.7 0-0.2-0.1-0.8-0.9-0.9h-0.3c-0.6 0.2-0.7 0.3-1.2 0.6-10.2 1-15.5 10.7-18.5 19.7-1.5 4.7-1 7.7-1 10.4-0.1 3.8-3.3 0.7-3.3 0.9 0-3.2-2.1-7.3-2.4-11 0.1 0.4 0.8-3.5 0.8-3.5 0-5.6 7.7-20 10.9-23.4 1.8-2 1.2-4 2.4-5.3l1.6-1.7c0.1-0.1 0.3-0.3 0.4-0.5 0-0.1 0-0.1 0.3-0.4 0.1-0.2 0.1-0.4 0.1-0.5 0-0.3 0-0.6-0.1-0.8-0.2-0.4 0.1-5.6-0.5-9-0.2-1-0.3-2.7-0.3-4.4 0-3.7 0.4-12.9 0.5-13.6l-0.1-0.5c-0.1-0.2-1.7-5.4-1.9-6.9-0.2-1.2-0.2-3.1-0.2-4.6v-1.3c0.1-0.8 0.4-2.3 0.6-3.4 0-0.5 0.1-0.8 0.1-1.3 0-0.3-0.1-0.6-0.1-1-0.1-0.3-0.3-0.8-1-1-0.4 0-0.7-0.2-1.1-0.3h-0.5c0.8-2.3 3.8-8.1 4.1-10.9 0.1-0.7 1.6-1.7 2.8-0.7 0.4 1.2 0.7 2.5 0.8 3.3 0.4 2.7 0.7 5 0.7 5 0 0.5 0.1 0.7 0.4 1 0.2 0.2 0.9 1.5 0.9 2 0 0.4 0 1.6 0 2.7 0 1.9 0 3.8-0.1 4.7-0.1 1-0.2 2.5-0.2 3.6l0.1 1.8 0.3 1.4c0.1 0.5 0.4 0.6 0.6 0.9 0.4 0.3 0.6 3.7 0.9 5 0.6 2.1 0.7 10.8 1.5 13 0.2 0.5 0.3 1.6 0.3 3 0 3.3 3.2 6.6 2.1 11.6-1.2 5.1-1.1 3.5-1.4 3.8-0.2 0.4-0.9 2.4-0.9 2.7 0 0.2-1.6 2.8-0.6 3l1.9-2.2c1.2-0.5 8-4.2 9.5-7.6 0.8-2.6 3.6-5.2 4.3-7.7 0.3-1.3 0.6-2.4 0.9-3.2q0.3-0.5 0.3-0.9c0-0.2 0-0.2 0.1-0.3h0.1c0-0.2 0-0.3 0-0.5 0-0.1 0.1-0.9 0.2-1.3h-0.1 0.1v-0.1c-0.1-0.6-0.2-3.9-0.4-5.5-0.1-1.7-1.2-8.9-1.6-11.4-0.3-2.1-0.7-8.2-0.9-10.8 0.1-1.8 2.7-1 3.2-0.4 0.3 0.6 1.1 7.8 1.1 7.8 0.5 0.5 3.3 6.2 3.7 7.5 0.6 1.7 1.3 4.9 1.3 5.5v0.1c0 1-0.3 8.4-0.6 11.1-0.3 1.8-0.3 4.8-0.3 7.3 0 1.6 0 3.1 0.1 3.9 0.4 1.7 0.8 4 1.1 5.2 0.2 0.7 0.4 1.5 1.6 1.6 1.2-0.1 1.3-0.9 1.7-1.4 0.4-1.3 2.6-7.7 3-9.7 0.5-1.9 0.1-7.3 0.3-8.8 0.1-1.1-0.1-6 0-6.3 0-0.2 0.6-2.5 0.7-2.9 0.2-1 4.2-1.6 4.5 0.3 0.1 0 1 2.5 1 2.5zm-61.1 54.4q0 0.2 0.1 0.3-0.1-0.1-0.1-0.3zm-18.7-104.4c-0.2-0.7-2-3.5-2-5.1 0-0.1 0-0.2 0-0.3 0.3-1.2 0.3-2.1 0.3-2.2h0.1c0 0 0-0.1 0-0.1 0-0.1 0-0.2 0.2-0.2 0.1-0.2 0.2-0.5 0.3-0.9 0.4-0.8 0.8-1.6 1.3-2.7 0.9-2.1 2-4.4 3-5.5 0.8-1 1.5-1.7 2.3-2.1 0.8-0.5 1.4-1 2.5-1 0.5-0.1 0.9 0.2 1.2 0.5 0.2 0.3 0.2 0.4 0.2 0.6 0 2.3-3.4 9.8-4.3 15.1-0.5 3.8-0.4 6.8-0.5 7.2 0 0.1 0.1 0 0 0.3-0.2 0.1 0 0.2-0.7 0.4h-1.2c-0.2-0.1-0.4 0-0.9-0.3-0.3-0.3-0.7-0.8-1.1-1.3 0-0.4-0.5-1.4-0.7-2.4zm-34.2 7.9c-0.8 0.6-6.9 5.1-8.5 5.9-1.6 0.7-4.3 0.2-5-0.8-0.7-0.8 6.2-6.2 7.4-8.8 1.3-2.6 2.9-6.8 3.1-7.5 0.1-0.9 0.6-3.9 0.8-4.9 0.1-0.9 0.5-2.4 0.6-2.7 0.1-0.3 2-4.3 3.1-5 1-0.8 1.6 0.5 1.6 1.1 0 0.7 1 9.7 0.8 12.7-0.2 3.2-0.5 5.9-0.6 6.1 0 0.2-1.3 1.7-1.6 2-0.3 0.4-1 1.3-1.7 1.9zm-14.6-33.9c-0.4 3.1-0.7 3.9-0.6 5.1 0 0 0 0.1 0 0.1v0.4c0 0.8 0 1.4-0.6 2l-0.3 0.2c-0.1 0-0.3 0.1-0.4 0.1-0.7 0-0.8-0.3-0.9-0.3-0.1-0.1-0.2-0.2-0.2-0.4-0.1 0-0.2-0.2-0.4-0.5-0.1-0.5-0.3-1.1-0.5-1.8-0.5-1.3-1-2.9-1.2-4.1-0.2-1.7-0.5-3.8-0.5-5.2-0.1-0.3-0.1-0.6 0-0.8 0-0.6 0.2-0.8 0.6-1.4 0.5-0.5 1.1-1.3 1.8-2.2 1.4-1.6 4.8-3.9 6.8-6.3 4-4.7 4.7-6.3 5.6-9.2 0 0 6.9-2.8 5.5 0.1-0.5 1.3 0.4 0.9 0.4 1.4-0.1 1.7-0.1 3.9-0.1 4.7 0 1.2 0 2.8-1.7 3.3-1.1 0.3-2.5 1.6-3.5 1.8h-0.8c-0.5 0-0.9 0-1.2-0.2 0 0.2-0.1 0.2-0.2 0.2-0.2 0.2-0.6 2.2-0.8 2.6-0.8 0.7-1.7 3.3-2.8 4.4-1.9 2.2-3.9 4.8-4 6zm23.4 57.6c-0.4 1.4-1.6 5.2-2.3 6.2-0.3 1-1.2 3.3-1.8 3.4-0.5 0.2-1 0.3-1 0.3h-0.2c-0.1 0-0.2 0.1-0.3 0.1-0.1 0.1-3.8 4.6-5.3 5.6-5.6 3.6 0-13.4 0-13.4 0.6-0.8 2.5-4.1 2.9-5 0.2-1.1 1.3-3.8 1.6-4.7 0.3-0.9 1.8-3 2.3-3.2 0.4-0.1 1-0.3 1.2-0.3 0.2 0 0.4 0.2 0.5 0.2h0.3c0.2-0.2 7.8-3.3 8.4-5.4 0.6-2.1-1.5-8.9-1.9-10.4-0.3-1.5-1.7-6.8-1.7-8.3-0.3-1.4 0.7-7.3 1.9-9 1.3-1.9 2.5-0.2 2.8-0.5 0.3-0.3 0.3-0.7 0-0.9-0.3-0.2-1.1-4.5-1.4-4.5-0.3-0.2 1.4-2.4 1.8-4.6 0.5-2.2 5.2-7.4 6.7-8.3 1.6-0.9 3-0.8 3.3 0.2 0.4 1.1-2.2 5.3-2.5 6.8-0.3 1.5-1.2 8.4-0.8 10.4 0.4 1.9 0.9 7.3-0.4 8.3-1.3 1.2-2.4 2.2-2.4 2.2-0.1 0.1-0.3 0.2-0.4 0.3 0 0.1-1.2 2.9-1.3 3.9-0.1 1 0.7 4.2 1.7 6 1 1.9-0.8 6.1-1.4 7.5-0.5 1.3-1.8 5.5-1.9 6.5-0.1 1.1-0.9 1.4-1.5 0.8-0.7-0.7-1.5-1-1.6-0.6-0.3 0.4-1.9 2.9-2 3.9-0.4 1-2.8 5.3-3.3 6.5zm20.8 58.6c-1.7-0.2-5.6 4-6.9 4.1-1.1 0.1-2.3 1-3.4 0.1-0.3-0.2 1.4-3 1.4-3.1 0-0.1 4.6-7.3 9-12.7 4.3-5.4 7.9-10.2 8.2-10.7 0.2-0.3 0-0.8-0.5-1-0.5-0.1-1.4-0.3-1.8-0.3-0.1-0.1-4.9 1.2-6.4 2.6-1.4 1.3-6.1 5.7-7.4 6.5-1.2 0.9-3.5 3.4-4.1 3.4-0.8 0.3-4.1 1.9-5.1 2.1-1 0.1-3.3-1.8-3.8-1.9-0.4 0 2.5-2.9 6.7-5.5 4.2-2.6 7-4.9 6.3-5.2-0.8-0.2-6.3-0.7-7.6-1.8-1.4-1.3 2.9-6.3 2.9-6.3l5.3-5.3c0.1-0.2 0.3-0.5 0.2-0.8-0.1-0.2-0.2-1.5-0.2-2 0-0.6 2.3-3.9 2.7-5.8 0.5-1.6-0.1-6.3 1.4-6.8 1.4-0.6 1.1-2.2 1.4-2.2 0.4 0 0.7-0.3 0.7-0.7v-1.2c0-0.2 0.6-5.1 1.4-6.5 0.8-1.6 1.9-3.5 2.5-4.3 0.6-0.8 0.9-1.6 0.6-1.9-0.3-0.1-1.4-0.8-1.9-0.9-0.2-0.1 3.7-6.8 4.8-9.1 1.5-2.4 3.8-1.4 3.8-1.2 0 0.2-0.4 4.9-0.9 6.5-0.6 1.9-1 3.5-1 3.6-0.1 0.1-0.1 0.4 0 0.6 0 0.1 0.3 0.6 0.3 0.8 0 0.1 0.8 3.6 0.3 4.6-0.6 0.9-3.5 2.8-4 3.9-0.3 1.1-0.6 2.1-0.6 2.1-0.1 0.3 0.1 0.5 0.1 0.7 0 0 0.9 1.5 1 2.2 0 0.7 0 2.8 0 3.6-0.3 0.7-2 4.6-2.1 5.8-0.1 1.4-0.3 3.7-0.1 4.3 0 0.3-1.4 4.4-5.2 8.3-3 2.9-4 5.7-3.4 5.8 0.6 0.1 1.9 0.4 2.4 0.4 0.4 0 5.4-0.5 6.7-1.8 1.3-1.1 4.9-4.3 6.2-5.7 1.2-1.1 2.3-2.3 2.5-2.4 0.1 0 0.2 0 0.2-0.2 0.1-0.1 1.5-2.9 1.8-4.3 0.4-1.4 1.9-7 2.5-8.8 0.5-1.9 1.9-6.4 2.5-8 0.6-1.6 2.7-5.2 3.5-5.8 0.8-0.6 1.8 0.3 2.1 0.6 0.2 0.6 0.3 0.8 0.3 0.8 0 0.2-0.1 0.2-0.1 0.2-0.1 0-0.8 0.6-0.8 0.6 0 0-0.8 1.2-1.2 1.5-0.7 0.3-0.5 2.9-0.7 3.7-0.1 0.7 0.3 10.1 0.4 11.2 0.2 1.2-0.5 6.8-1.5 8.2-1.1 1.6-4.5 7.8-5.6 10.2-0.8 2.4-1.6 5.2-1.6 6.1-0.2 0.9 0.2 1.2 1 0.6 0.7-0.6 4-4.2 4.9-5.3 1-1.1 4.4-7.8 5-8.7 0.5-0.9 1.8-1.3 2.6-0.1 0.4 0.4 0.2 2.2-1.4 5.1-1.6 2.9-4.1 10.1-5.3 12.1-1 2-3.4 4.5-3.4 4.5 0-0.1-7-1.7-8.3 0.4-1.5 2.1-1 4.1-2.8 5-1.6 0.9-4.6 5.5-6.5 5.5zm74.8-64.7c0-0.7 0-1 0-1.2 0-0.2-0.4-0.1 0.3-0.5l0.2-0.1h0.3c0 0 0 0 0.1-0.1 0.1 0 0.1 0 0.5 0.1 0.2 0.1 0.4 0.2 0.8 0.5 0.1 0.1 0.4 0.7 0.7 1.1 0.1 0.2 3 1.3 3.3 2.2v0.2c0 0.6 0 1.1 0 1.1v0.1c0 0 1.1 4.9 0.5 6.4-0.5 1-0.8 1.8-1.7 2.2-0.3 0-3.5-1.3-3.7-1.5-0.4-0.4-0.3-0.4-0.4-0.6-0.3-1.2-0.2-5.7-0.5-7.5-0.1-0.9-0.3-1.7-0.4-2.4zm48.9 53.2c0.1 0.1 0.6 7.1 4.4 11.1 3.7 3.9 9.9 14.9 10.8 20.7 0.9 5.6 3.5 10.1 1.8 12.1-0.7 0.8-2.5-3.1-7-13-4.5-9.9-13-17.9-16.1-17-0.8 0.2 0 9.3 3.6 19.1 3.4 9.9 2.8 14.6 2.7 14.6-0.1 0-1.3-0.6-2.6-1.3-1.2-0.7-5.3-4.4-5.9-5-0.6-0.5-0.1-3.6-1.6-10-1.6-6.3-4.9-18.3-5.7-21-0.9-2.6-5.1-3.4-5.6-3.6-0.5-0.1-0.8 1.4-0.8 1.8 0 0.5-1.2 8.2 1.1 21.7 2.4 13.4 8.5 31.3 8.4 31.6 0 0.4 0 2.8-1.4 1.9-1.5-1.1-2.4-1-4-4.2-0.6-1.4-1.9-2.7-2.3-2.7-0.5 0-1-1.4-2.3-3.7-1.2-2.2-4.4-15.4-5.5-23-0.6-3.9-4.2-4.5-4.1-8.3 0.1-8.8 1.7-16.7 1.7-16.7 0 0 0-0.1 0.1-0.3 0.2-1.2 0.8-3.6 1.1-5.2 0.2-1.6-1.7-7.9-2.1-10.8-0.4-3-0.7-10.7-0.7-11.3 0-0.7 0.8-3.9 1.4-5.8 0.5-1.8 4.8-5 4.9-5 0.1 0 0.2-0.3 0.2-0.4 0-0.1 0.1-0.4 0.2-0.6 0.1-0.3 0.2-1.9 0.5-2.6 0.5-0.5-1.8-5.1-1.2-6 0.4-0.9-1.3-8.4 3.5-8.2 0.1-0.2 0.9-0.3 1.3 1.2 0.5 1.4 0.8 7.7 0.7 9.7-0.2 2-0.8 5.5-1.1 8.1-0.4 2.4-1.3 9.8-1.6 11.4-0.1 1.6-0.3 5.1-0.3 5.5 0 0.4 0.1 1.2 0.1 1.2l0.1 0.2c0 0 0.5 2.1 1.2 4.5 0.7 2.5 4.3 8.1 5.2 10.7 0.9 2.6 6.2 8.1 8.2 7.1 1.3-0.6 1.2-2.5-0.5-9.4-1.5-7-2.2-14.5-1.5-16.7 0.8-2.2 3-9.7 3.4-11.7 0.5-2.1 0.7-3.7 0.8-3.8 0.1-0.1 0.3-0.2 0.4-0.4 0-0.1 0.1 1.7 0.2 1.1 0.1-0.6 0.1-3.5 0-5.3-0.1-0.4-0.4-4-0.1-6.1 0.1-1.1 0.9-1.3 1-1.4 0.1-0.1 0.2-0.3 0.2-0.4 0-0.1 0.6-3.7 0.7-6.4 0.3-6.9 2.2-7.5 2.2-7.3 0 0.2 2.1 0.2 2.3 3.7 0.4 3.5 1.5 10.3 1.3 10.7-0.8 1.2-1.3 2.4-1.5 2.4-0.1 0-0.2 0.8-0.7 1.8-0.3 0.7-0.6 0.9-0.4 2.1 0.3 1.1 0 1.2 0.1 1.9 0.1 0.9 0.3 1.6 0.2 3.4-0.3 1.9 0.7 5.3 0.6 5.5-0.1 0.4 0 0.7 0.4 0.9 0 0.1-3 1.6-1.8 3.1 1.2 1.6 1.6 10.3 1 13.9-0.7 3.6 0.5 9 0.3 9.3 0 0.1 0 0.4 0.1 0.6zm11.8-16.4c-2.4-3.6-5.1-17.3-3.4-21.5 1.8-4.2 5.5-14.3 5.8-14.7 0.2-0.3 1 0.3 1 2.4 0.2 2.1-0.3 6.2-0.5 6.4-0.1 0.2 0.6 1.7 0.4 2-0.3 0.1-0.2 0.6 0 0.8 0.2 0.2-1.5 1.9-0.2 4.9 1.2 2.9 3.8 13.6 4.4 15.9 0.6 2.3 5.2 6.8 6.1 7.2 0.9 0.4 3.6 3.6 3.1 6.6-0.4 3.1 2.7 7.6 2.2 7.9-0.4 0.2-1.5-0.2-4.1-3.5-3.2-4.2-7.9-11.4-8-11.6-0.1-0.2-0.6-0.4-0.9-0.4-0.2 0-2.7-1-1.9 1.6 0.2 0.5-1.1 0.8-1.1 0.8-0.1 0-0.7-1.3-2.9-4.8zm-241.5 357c-2.3 0-4.7 0.6-5.7 3.1l-0.5 4.5c-2.5-1.1-6.2-3.7-6.1-5.9 0-0.6 0.2-1.4 1-2.4l0.3-0.2-0.1-0.5v-0.2c-0.2-2.4 1.6-3.4 4-4.7 0.9-0.1 1.7-0.5 2.5-0.9 2.5 1.9 4.9 3 7.1 3 2.6 0 4.6-1.9 5.8-5.2 1.6 1 2.1 2.1 2.2 3.5 0.1 1.2-0.4 1.2-0.9 3.1-1 1.1-2.4 1.4-4.2 1.3-1.8 0.2-3.6 1.4-5.4 1.5zm3.9 12.6c3.3-1.1 5.3 0.7 8.4 1.8-0.4 7.7-6.7 1.2-9.3 3.5l-1 1c-1-2.2-1.4-2.1-0.4-4.2 0.4-1.4 1.4-0.9 2.3-2.1zm-32.7-250.6c5.3-5.9 12.6-7.2 20.2-4.2-0.1 1.9-1 5-2.8 6.3-0.6 0.4-2.7 0.9-3.5 1.1l-2.5 0.3c-3.6 1.3-3.1 0.7-4.4 4.1-5.3-0.7-6.6-3.7-7-7.6zm112.3-210.8c-2.3 2.3-2.2 1.6-1.9 4.4-4.3 1.7-6.5 0.3-8.1-2.2 1.8-6 7-9.9 13.9-11 0.6 1.3 1.1 3.8 0.1 5.2-0.2 0.7-1.6 1.9-2.2 2.3 0 0-1.8 1.3-1.8 1.3zm-77.2 242.3l1.2 1.2c0.8 0.5 1.3 1 2.1 1.5-2.1 0.8-2.8 1.9-4.5 3-2 1.3-1.3 2.1-2.2 3.1-1.8 2.5-3.2 3.2-4.6 3.2-1.8 0.1-4-1.4-6.6-3.5 1-0.5 1.5-0.9 1.8-1.5 0.4-0.8 0.3-0.9 1.7-2.5 2.1-2.9 4.1-4.9 7.8-5.9 1.2 0 2.1 0.7 3.3 1.4zm-2.2 41.8c1.3-0.1 2.2 0.6 3.4 1.4l1.2 1.2c0.8 0.5 1.4 1 2.1 1.5-2.1 0.7-2.7 1.9-4.5 3-2 1.3-1.3 2.1-2.3 3.1-1.8 2.5-3.1 3.2-4.5 3.2-1.8 0.2-4.1-1.5-6.6-3.5 1-0.6 1.5-0.9 1.8-1.5 0.4-0.8 0.3-1 1.6-2.7 2.2-2.7 4.3-4.9 7.8-5.7zm-8.2-62.6c3.6-2.2 5.7-2.2 8.7-1.2l1.3 0.4c-1.3 1.4-1.9 2.5-2.9 4.1-1.3 1.8 0.2 2.7 0.2 2.7-4 1.2-3.7 2.2-7.2 1.6-0.8-0.2-1.5-0.4-2.2-0.5l-1.7-0.6c-2.6-2 2.2-4.1 3.8-6.5zm-51.9 119.8c-1.5-2.6-1.8-3.9-1.9-5.8 0-1.2 0-2.8 0-4.8v-0.4c-0.1-2.5-0.6-5.3-3.9-7.5l-0.5-0.4-8 4.5c0.2-0.8 0.3-1.4 0.3-2.1-0.1-1.3-0.7-2.4-1.9-3.5 3-3.1 5.6-4.1 9.3-4.1 1.1-0.1 2.5 0 4.1 0.2l4.6 0.8c1.6 0.1 3 0.2 4.4 0.2 3.8 0 6.9-1.8 8.1-6.9l0.1-0.4-0.2-0.3c-0.7-1.6-1-3-1-4.2-0.5-6.5 7-9.3 13.2-13.7 1.9-1.4 3.3-2.9 4.1-4.6l0.4-0.9-0.8-0.5c-3-2.2-9.8-5.8-13.5-6.9l-0.8-0.1-0.4 0.6c-0.8 1.8-2.6 2.7-4.7 3.6l-2 0.6c-1 0.3-2 0.9-2 2 0.5 2 2.1 2.6 2 3.3 0 0.3 0 0.4-0.2 0.6-0.1 1.4-14.5 13-17.7 13.1 0-0.1-0.1-0.2-0.1-0.4-0.4-4.9 5-22.2 15.2-27.2 2.9-2 3.7-6.1 5.1-5.7 0.5 0 1.4 0.3 2.7 1.3l0.4 0.3 0.5-0.1c0.6-0.2 1.3-0.2 1.7-0.3 4-0.2 8 3.5 13.3 3.6 2.4 0 5-0.9 7.8-3.2 1.1-0.3 1.9 0.3 2.5-1.1l0.6-1c0.7-1.7 1.2-1.9 1.9-2 0.7 0 1.9 0.6 3.1 1.9 0.7 0.8 1 1.8 1 2.7 0.1 1.8-0.8 3.5-2.2 5.3l-2 1.3c-2.2 2.7-3.8 5-3.6 8 0 1.4 0.4 2.8 1.2 4.3-6.2 4.9-15.9 11.2-18 19.3l-0.1 0.4 0.4 0.4c1.2 1.6 1.6 2.9 1.7 3.9 0.5 3.7-6.3 6.7-10.9 8.4-2 0-3.5 0.6-4.4 1.8l-1.9 1.1c-0.7 0.4-1.2 0.8-1.6 0.8l-0.6 0.3-0.1 0.5c-0.3 1.5-0.3 2.8-0.3 4 0.1 0.9 0.2 1.8 0.3 2.7 0.1 2.5 0.1 4-4.7 6.3zm80.7 9.9c0.4 0.7 3.8 1.2 3.8 1.5 0.3 1-1.5 1.1-3.2 2.8-1.1-0.3-1.9 1.2-2.8 1.2-2.3 0-0.7-0.6-2.2 1.9l-1.2 1.9c-1.4 2-2.9 3.7-5 4.7v0.3l-0.4 0.6c0 0.2 0.1 0.5 0.1 0.7 0.1 2.9-2 5-4.9 6-0.3-0.7 0.5-3-0.6-3h-0.2c-0.4 0.1-0.6 0.1-0.9 0.1h-0.3l-1.3 0.1h-0.1l-0.2 0.2c-4.1 3.2-7 7.7-10.9 10.5l-0.5 0.3c-0.2-0.7-0.4-1.5-0.4-2.4-0.1-3.1 1.1-6.2 3-8.5 4.1-5.9 13.6-2.4 14.5-11.8 7.7-4.1 4.5-6.5 13.7-7.1zm-36.2 33c-5.4 6.6-9.7 7.1-18.5 10.8 0 0-9.7 2.1-9.3 8.9l0.4 3.8-6.6-1.1c0-5.7 0.4-11.1 8.4-18.7 1.6 0.2 3 0.2 4.3 0.2 5.8-0.1 8.1-2.4 13.5-5.7 0.6-0.2 1.5-0.3 2.4-0.3 2.3 0 4.3 0.8 5.4 2.1zm23.9 2.4c2.4-0.2 3.8-0.6 5.5-1-3.4 5.5-3 5.4-11.4 7.4l-3.8 6.9v0.1c-9.1 1.9-14.8 4.4-16.9 12.8-3.1 0.1-4.2 2.2-5.8 3.5-1.7 1.4-3 1.8-4 1.8-1.1-0.1-2.2-0.6-3.6-1.7 6.7-5.1 8-10.1 12-16 0.1-0.3 10.8-7.9 16.4-7.6 0.8 0 1.5-1.6 2.5-1.4l0.5 0.1 0.4-0.4c2.6-2 0.5-4.4 3.4-4.4 0 0 4.8-0.1 4.8-0.1zm-24.8 45.7c-0.5-0.7-1.2-1.4-2.6-1.3-0.5 0-1 0-1.5-0.1l-1.3 0.1-0.4-0.1-1.3 1.7c-0.6 0.6-1 0.8-1.6 0.9q-0.4 0-1.2-0.3c0.1-0.8 0.1-1.3 0-2.2l-0.3-2.5c-0.1-0.5-0.2-1.1-0.2-1.5 0-1.2 0.1-2 1.3-2.8 2.5 0.4 5.6 1.4 8.7 1.2 1.5 0.1 3.2-0.1 4.5-1 2.6-1.3 4.1-2.8 5.8-5.1l1.1-1.8c1.7-2.4 3-4.8 7.8-5.7h0.3l1.2 4.3-1.9 1.5c-0.9 0.6-1.8 1.4-2.7 2.3-1.6 1.8-2.7 3.9-3.1 6.3-2.2 3.9-8 4.8-12.6 6.1zm-21.5-56.3c-5.7-0.5-11.6-6-16.4-6.8l-2.6-1.6c0-0.4-0.1-0.6-0.1-0.9-0.3-3 3.9-3.9 7-7.4 1.2-1.7 1.8-3 1.8-4.5-0.1-1.4-0.9-2.7-2-3.9 0.9-0.9 1.6-1.7 2.4-2.2 2.1-1.6 4.8-2.9 6.5-5.1l0.2-0.2-0.3-6.4c7.7-4.6 9.6-15.1 18.7-15 0.4 0 0.7 0 1 0h0.2 0.3c3.2-1.3 3.8-5.2 4.1-7.6l0.4-3.4c0.6-4.1 1.6-5.4 3.3-5.4 1.2 0 2.8 0.7 5.2 2-1.9 3.9-5.3 8.3-5.1 13 0.1 2.2 1.1 4.3 3.3 6.2v1.5c0 1.7-0.2 2-1.8 2.8-0.5-0.4-0.9-0.9-1.8-1.2l-1.3-0.7c-0.7-0.3-1.5-0.7-2.2-1.4l-0.4-0.5h-0.5c-5 0.5-9.7 3.8-11.9 8.3-2.2 6.7-5.8 12.6-10.6 18l-0.4 0.5 0.3 0.5c0.2 0.6 0.4 1.3 0.4 1.9 0.2 2.3-1.7 4.9-3.3 7.3-0.1 0.1-0.9 0.8-1 1.9 0.1 0.3 0.2 0.6 0.4 0.8 0.4 0.5 1.7 1.6 3.8 1.6 1.4 0 3-0.6 4.7-2.1 5.6-5.3 8.5-4.9 9.6-11.8 0.3-1.7 4.8-3.2 7.5-6.5l1.6-2.3c1.9-2.3 3.7-4.6 7.2-4.6 0.7 0 1.6 0 2.7 0.3l0.6 0.2 0.4-0.5c4.6-7.1-2.2-6.9 6.3-10.5l0.7-0.2-0.2-0.8v-0.5c-0.2-2.8 1.4-5.6 2.7-8.5 0.2 0 0.5 0 0.8-0.1 1.5 0 2.8 0.9 4.3 2.4-0.3 9.8-7.4 12.7-7 23.1 0 1.1 0.2 2.2 0.6 3.3-6.8 0.8-6.8-2.2-12.1 2.1l-0.3 0.2-0.7 5-0.9 1c-1.2-0.6-2.4-1-3.8-1-3 0.1-6.1 1.8-6.8 4.8-2.4 7.2-8.8 11.1-15.5 14.9zm281.9-267.2c2.6 4.7 7.6 7.9 8.5 12.7-6.4 0.7-8.5-4.5-10.7-8.7 0.9 0.2-0.7-6.6 0.3-6.4 0 0.1 1.9 2.4 1.9 2.4zm-481.9 393.8c-5.4 6.2-9.5 9.1-17.6 11.8-0.8-5.4 0.1-7.6 3.7-11.5l2.3-2.6c3.8-4.5 4.9-6.9 2.5-12.5 2-0.9 3.2-1.2 5.3-0.3 3.2 1.4 5.2 4.2 8.5 6.6 0.3 2.4-1.2 3.4-3.2 4.6l-1.5 0.3c-2.2 0.8-1 1.8 0 3.6zm28 38.3l0.1 0.4-0.1 0.3c-0.9 2.1-2.3 3.1-3.7 3.1h-0.1c-2.1-0.1-4.1-1.6-5.4-1.6l-0.2 0.1-0.8 0.1 0.2-0.9 0.2-2.1 0.1-0.4 0.3-0.3 0.8-0.3c1.5-1 3-2 4.5-2 1.5 0 3 1.1 4.1 3.6zm-19.7-6.7l2 2.3c-2.8 3-4.9 2.6-8.7 2.5-3.7 0.2-3.3 1.4-3.3 4.1l-5.1 0.1-3.2-11c4.9 0.2 9.9 0.3 14.9 1.5 0 0 3.4 0.5 3.4 0.5zm-30.2-14.7c2.2 4.2 2.8 7.3 0.1 9.9 0 0-4.2 3.4-5.2 2.5-0.9-0.7-1.3-2.4-1.3-2.4 0.5-1.2-0.1-1.2-0.2-2.9 0.1-1.6-0.2-3.3-0.5-4.9-0.4-4.6-0.2-7.4 5.1-8.1 0 0 2 5.9 2 5.9zm53.6-12.6c-4.9 6.5-10.9 5.1-15.7 9.6-1.3 4.2-4.9 8.2-9.9 10.4l-1.3-1.3c3.8-4.3-1.7-21.3 13.2-16.9 3.9-4.8 8-6.8 13.7-1.8zm466.5-685.9c-6 5-13.4 14.9-21.5 16.5-4.5 0.7-16.8-0.5-17.7-2.9-0.7-2.3 14.3-13 17.7-14.7 3.7-2 6.9-2.2 11.9-4 2.6-1 9.1-4.7 10.7-4.5 2.9 0.4 4.3 2.2 3.4 5.7-0.6 1.9-2.4 2.1-4.5 3.9z"/>
		</g>
	</g>
</svg>