<svg version="1.2" xmlns="http://www.w3.org/2000/svg" viewBox="0 0 1549 420" width="1549" height="420">
	<title>hikma-svg</title>
	<defs>
		<clipPath clipPathUnits="userSpaceOnUse" id="cp1">
			<path d="m713.42 133.59h704.74v285.72h-704.75z"/>
		</clipPath>
	</defs>
	<style>
		.s0 { fill: #ff5c57 } 
	</style>
	<g id="Layer">
		<g id="Layer">
			<path id="Layer" fill-rule="evenodd" class="s0" d="m160 124.8c-28.5 0-51.3 9.1-67.9 27.1v-151.4h-92.1v411.5h92.1v-152.9c0-15.7 3.8-28.3 11.3-37.4 7.4-9 16.9-13.4 29.2-13.4 24.5 0 35.9 14.1 35.9 44.5v159.1h92v-178.7c0-35-9.8-62.1-29.3-80.6-19.5-18.4-43.4-27.8-71.2-27.8z"/>
		</g>
		<path id="Layer" fill-rule="evenodd" class="s0" d="m299.9 411.9h89.2v-270.6h-89.2zm391.3-270.7h-105.3l-65.6 88.2v-216.6h-89.2v399.1h89.2v-95.3l64.5 95.3h112.1l-110-140.9c0 0 104.3-129.8 104.3-129.8z"/>
		<g id="Layer">
			<g id="Clip-Path" clip-path="url(#cp1)">
				<path id="Layer" fill-rule="evenodd" class="s0" d="m1106.3 238.7v173.3h-89.2v-156.4c0-17.2-3-40-28.6-40-10.8 0-18.9 3.7-24.7 11.5-6 8-9 19.3-9 33.6v151.3h-89.3v-156.4c0-17.2-3-40-29.1-40-10.5 0-18.5 3.8-24.4 11.7-6.2 8.2-9.3 20.3-9.3 36v148.7h-89.3v-270.7h83.6v20.9c16.9-19 39.1-28.6 66.4-28.6q5.8 0 11.5 0.7 5.8 0.7 11.4 2.1 5.6 1.5 11 3.6 5.4 2.1 10.4 4.9 4.2 2.3 8.1 5 3.9 2.8 7.4 6 3.6 3.2 6.7 6.8 3.1 3.6 5.8 7.5 2.6-4 5.5-7.6 3-3.6 6.5-6.8 3.4-3.2 7.2-5.9 3.8-2.7 7.9-5c13.5-7.5 29.1-11.3 46.1-11.3 26.2 0 49.3 9 68.4 26.8 19.3 18 29 44.3 29 78.3zm222.6-97.5h89.3v270.8h-85.2v-19.3c-18.9 17.9-42.8 26.9-71.5 26.9-36.2 0-66.3-13.3-89.4-39.7-22.9-26.2-34.6-61-34.6-103.3 0-41.6 11.7-76.2 34.8-102.7 23.3-26.8 53.5-40.3 89.7-40.3 26.4 0 48.9 7.4 66.9 22 0 0 0-14.4 0-14.4zm-9.7 184.8c10.2-12.4 15.3-29 15.3-49.4 0-19.3-5.1-35.3-15.3-47.6-10-12.1-22.6-18-38.3-18-15.4 0-27.8 5.8-37.8 17.8-10.2 12.1-15.3 28.2-15.3 47.8 0 20.4 5.1 37 15.3 49.4 10.1 12.3 22.4 18.3 37.8 18.3 15.7 0 28.2-6 38.3-18.3z"/>
			</g>
		</g>
		<path id="Layer" fill-rule="evenodd" class="s0" d="m395.1 54.9c0 6.7-1.3 13.3-3.8 19.4-2.6 6.2-6.3 11.8-11 16.5-4.7 4.7-10.3 8.5-16.4 11-6.1 2.6-12.7 3.9-19.4 3.9-6.6 0-13.2-1.3-19.4-3.9-6.1-2.5-11.7-6.3-16.4-11-4.7-4.7-8.4-10.3-10.9-16.5-2.6-6.1-3.9-12.7-3.9-19.4 0-6.6 1.3-13.2 3.9-19.4 2.5-6.1 6.2-11.7 10.9-16.5 4.7-4.7 10.3-8.4 16.4-11 6.2-2.5 12.8-3.9 19.4-3.9 27.9 0 50.6 22.8 50.6 50.8zm1153.6 313.5c0 6.7-1.3 13.3-3.8 19.5-2.6 6.1-6.3 11.7-11 16.4-4.7 4.7-10.3 8.5-16.4 11-6.1 2.6-12.7 3.9-19.4 3.9-6.6 0-13.2-1.3-19.4-3.9-6.1-2.5-11.7-6.3-16.4-11-4.7-4.7-8.4-10.3-10.9-16.4-2.6-6.2-3.9-12.8-3.8-19.5-0.1-6.6 1.2-13.2 3.8-19.4 2.5-6.1 6.2-11.7 10.9-16.4 4.7-4.8 10.3-8.5 16.4-11.1 6.2-2.5 12.8-3.8 19.4-3.9 27.9 0 50.6 22.8 50.6 50.8z"/>
	</g>
</svg>