<svg version="1.2" xmlns="http://www.w3.org/2000/svg" viewBox="0 0 1687 1593" width="1687" height="1593"><style>.s0{fill:#ffffff}.s1{fill:#2a3676}</style><path class="s0" d="m1341.6 595.3q34.2 0.1 68.6 0c-0.3 135.3 0 270.5-0.2 405.8c-0.4 12 2.5 23.7 5.7 35.1c16.9 7.3 35.2 6.9 53.1 4.3q-0.1 23.8 0.1 47.5c-32 8.3-67.8 14.2-98.4-2.4c-19.9-11.6-29.1-34.9-28.6-57.2c-0.6-144.4 0.2-288.8-0.3-433.1z" /><path class="s0" d="m1546.4 595.2c22.6 0.1 45.2 0.1 67.9 0.1c-0.4 135.3 0.1 270.7-0.3 406c-0.4 11.9 2.7 23.5 5.9 34.9c17.1 7.5 35.6 7.4 53.5 2.9c0 16.3 0.1 32.5 0.3 48.8c-25.9 5.8-53.2 12.9-79.5 5c-27.5-4.4-48.1-30.8-47.7-58.4c-0.3-146.4 0.1-292.8-0.1-439.3z" /><path class="s0" d="m1141.3 647.8c18.6-17.3 37.8-33.9 56.8-50.9c15.1 17.3 30.6 34.3 45.8 51.5c-19.2 16.9-38.1 34.1-57.6 50.7c-14.8-17.3-29.7-34.5-45-51.3z" /><path class="s0" d="m676.9 628.7q35.7 0.2 71.5-0.1c-0.1 64.5 0 129 0 193.5c72.7-0.2 145.4-0.1 218.2-0.1c-0.1-64.4 0-128.9-0.1-193.2c23.3 0 46.6 0 69.9 0c-0.3 153.1-0.2 306.3 0 459.5q-35 0-70 0.1c0.3-68.5 0-136.9 0.2-205.4c-72.8 0-145.5 0.2-218.2-0.1c0 68.5-0.1 137 0 205.6c-23.9-0.2-47.7-0.2-71.6 0c0-153.3 0-306.6 0.1-459.8z" /><path class="s0" d="m1159.2 746.2c22.6 0.1 45.2 0.1 67.9 0.1c0.1 114-0.1 228.1 0.1 342.2c-22.8-0.2-45.4-0.2-68.1 0c0.3-114.1 0-228.2 0.1-342.3z" /><path fill-rule="evenodd" class="s1" d="m0 0.4c562.3 0 1124.6 0 1686.9 0c-0.6 530.8-0.2 1061.6-0.2 1592.3c-562.2 0-1124.5 0-1686.7 0.1zm1341.6 594.9c0.5 144.3-0.3 288.8 0.3 433.2c-0.5 22.2 8.7 45.5 28.6 57.1c30.6 16.7 66.4 10.8 98.4 2.4q-0.2-23.7-0.1-47.4c-17.9 2.5-36.2 2.9-53.1-4.3c-3.2-11.5-6.1-23.2-5.7-35.1c0.2-135.3-0.1-270.6 0.2-405.9q-34.4 0.1-68.6 0zm204.8 0c0.2 146.4-0.2 292.9 0.1 439.3c-0.4 27.5 20.2 53.9 47.7 58.4c26.3 7.8 53.6 0.7 79.5-5.1c-0.2-16.2-0.3-32.5-0.3-48.8c-17.9 4.5-36.4 4.6-53.5-2.8c-3.2-11.4-6.3-23.1-5.9-35c0.4-135.3-0.1-270.6 0.3-406c-22.7 0.1-45.3 0.1-67.9 0zm-405.1 52.5c15.3 16.8 30.2 34.1 45 51.3c19.5-16.6 38.4-33.8 57.6-50.7c-15.2-17.2-30.7-34.2-45.8-51.5c-19 17-38.2 33.6-56.8 50.9zm-464.4-19.1c-0.1 153.3-0.1 306.5-0.1 459.8c23.9-0.2 47.7-0.2 71.6 0c-0.1-68.5 0-137.1 0-205.6c72.7 0.3 145.4 0.1 218.2 0.1c-0.2 68.5 0.1 137-0.2 205.4q35 0 70 0c-0.2-153.2-0.3-306.4 0-459.6c-23.3 0-46.6 0-69.9 0c0.1 64.4 0 128.8 0.1 193.3c-72.8-0.1-145.5-0.1-218.2 0c0-64.5-0.1-128.9 0-193.4q-35.8 0.2-71.5 0zm482.3 117.6c-0.1 114 0.2 228.1-0.1 342.2c22.7-0.2 45.3-0.2 68.1 0c-0.2-114.1 0-228.1-0.1-342.2c-22.7 0.1-45.3 0-67.9 0z" /></svg>