<svg version="1.2" xmlns="http://www.w3.org/2000/svg" viewBox="0 0 1800 856" width="1800" height="856"><style>.s0{fill:#ffffff}.s1{fill:#2a3676}.s2{fill:#b4c0c1}</style><path class="s0" d="m547.3 242.9q13.9 0 28 0c-0.2 55.2 0 110.4-0.1 165.6c-0.2 4.9 1 9.6 2.3 14.3c6.9 3 14.4 2.8 21.7 1.8q-0.1 9.7 0 19.3c-13.1 3.4-27.7 5.8-40.1-0.9c-8.1-4.8-11.9-14.3-11.7-23.4c-0.2-58.9 0.1-117.8-0.1-176.7z" /><path class="s0" d="m630.8 242.9q13.9 0 27.7 0c-0.1 55.2 0.1 110.4-0.1 165.7c-0.1 4.8 1.1 9.6 2.4 14.2c7 3.1 14.5 3 21.9 1.2q-0.1 9.9 0.1 19.9c-10.6 2.4-21.7 5.3-32.5 2c-11.2-1.8-19.6-12.5-19.4-23.8c-0.1-59.7 0-119.5-0.1-179.2z" /><path class="s0" d="m465.6 264.3c7.6-7.1 15.4-13.8 23.1-20.7c6.2 7 12.5 13.9 18.7 21c-7.8 6.9-15.5 13.9-23.5 20.7c-6-7.1-12.1-14.1-18.3-21z" /><path class="s0" d="m276.1 256.5q14.6 0.1 29.2 0c0 26.3 0 52.6 0 78.9c29.7 0 59.3 0 89 0c0-26.3 0-52.6 0-78.8c9.5 0 19 0 28.5 0c-0.1 62.5-0.1 125 0 187.5q-14.3 0-28.6 0c0.2-27.9 0-55.9 0.1-83.8c-29.7 0-59.3 0.1-89-0.1c0 28 0 56 0 83.9q-14.6-0.1-29.2 0c0-62.5 0-125 0-187.6z" /><path class="s0" d="m842.3 266q13.8 0 27.7 0c0.1 12.8 0 25.7 0 38.6c14 0.1 28.1 0 42.2 0c0.1 6.7 0.1 13.3 0.2 20q-21.2-0.1-42.3 0c-0.1 26.6-0.1 53.1-0.1 79.7c-0.3 7.6 2.1 16.8 9.9 19.8c10.7 3.8 22 0.8 32.7-1.3q0 10.8 0 21.7c-17 3.5-35.8 6.8-52.1-1c-12.9-6.2-18.2-21.2-18.1-34.7c-0.3-28.1 0-56.1-0.1-84.2c-8.1 0-16.2 0-24.3-0.2q0.1-9.9 0.2-19.8c8.1 0.1 16.2 0 24.3-0.3c-0.3-12.8-0.3-25.5-0.2-38.3z" /><path class="s0" d="m723.9 309.2c20.1-11 44.3-7.9 65.3-1.4q0.1 10.7 0.1 21.4c-14.1-6.2-30.6-10.3-45.5-4.6c-11.7 4.8-13.9 22.9-3.6 30.3c12.6 9.5 29.4 11.1 41.8 21c21.4 15.9 17.9 54.4-6.3 65.8c-21.9 10.5-47.8 7.1-70-0.8c0.1-7.4 0.1-14.7 0.1-22c15.4 6.6 32.9 12.2 49.6 7.1c14-3.8 17.7-25.5 5.2-33.2c-15.3-10.5-36.8-12.2-47.9-28.7c-10.8-17.2-7.7-44.5 11.2-54.9z" /><path class="s0" d="m1002.5 306.5c6.8-3.3 14.5-4 21.9-5c0 8.8 0 17.6-0.1 26.4c-17.8 0.7-35.2 7.4-48.6 19.3c0.3 32.3 0.1 64.6 0.1 96.9q-13.9 0-27.7 0c0-46.4 0-92.8-0.1-139.3q12.7-0.3 25.4-0.1c0 8.3 0 16.5 0 24.8c8.9-8.6 17.7-17.9 29.1-23z" /><path fill-rule="evenodd" class="s0" d="m1083.6 306.3c13.9-5.3 29.6-5.8 43.8-1.4c14.8 4.6 26.6 16.9 31.6 31.4c5.4 14.6 5.4 30.4 5 45.8c-30.5 0.1-61-0.1-91.4 0.1c1.2 10.6 2.8 22.1 10.1 30.5c8.5 10.4 22.7 13.9 35.6 13.6c14.4 0.3 28.3-4 41.4-9.6c0 7.2 0 14.4 0.1 21.6c-21.3 9.3-45.8 13-68.5 7c-19-4.8-35-19.6-41.3-38.2c-7.5-21.7-7.2-46.4 1.1-67.9c5.7-14.9 17.7-27.1 32.5-32.9zm-2.2 29.7c-5.9 7.6-7.4 17.4-8.7 26.6c22 0.1 44 0.1 66 0.1c-0.5-13.5-3.4-29.7-16.6-36.5c-13.6-5.8-31.7-2.7-40.7 9.8z" /><path fill-rule="evenodd" class="s0" d="m1209.1 308.5c23.5-5.9 48.9-10.1 72.6-2.6c15.1 4.6 24.5 19.8 25.3 35.1c2.1 26.9-0.4 54.1 1.2 81c1.3 7.1 10 5.3 15.3 6.1c-0.4 5.2 1.2 11.1-1.1 15.9c-8.8 4.6-20.2 5.2-29.3 1.1c-5.7-2.5-7.9-8.7-10.8-13.8c-10.4 9.6-23.9 15.5-38.1 16.3c-16.5 1.2-36-3.4-44.7-18.9c-10.2-19.5-6.5-48.3 13.7-60c20.4-11.7 44.8-7.6 67.2-8.3c0.4-12.5-0.3-29.3-14.3-34.3c-18.7-5.4-38.5-0.9-57 3.2q0-10.4 0-20.8zm26.4 73c-17.8 6.3-18.6 36.9-0.2 42.9c14.9 3.9 32.8 1.5 44.2-9.6c2.3-11.9 0.6-24.3 1-36.4c-15 0.4-30.6-2.2-45 3.1z" /><path class="s0" d="m1384.2 321.8c15.3-14.1 36.8-23.9 57.8-18.4c12 2.1 21.6 10.4 28.3 20.3c11.6-10.7 25.5-19.9 41.6-21.5c14.1-1.3 30 1.7 39.8 12.7c8.6 9.5 11.5 22.8 11.5 35.3c0.1 31.3 0 62.6 0.1 93.9q-14 0-27.9 0q0.1-43.6 0.1-87.2c0.2-11.8-4.2-25.4-15.9-30.4c-15.6-6.2-33 0.1-45.3 10.4c0.9 35.7 0.3 71.5 0.4 107.2q-13.8-0.1-27.6 0c-0.1-29.1 0.2-58.2-0.1-87.2c-0.1-11.5-3.9-24.7-15.1-30.1c-15.5-6.6-33.1-0.7-45.5 9.7c0 35.8 0.1 71.7 0 107.5q-14.1 0.1-28.1 0.1c0-46.5 0-93 0.1-139.5q12.7 0 25.4 0q0.2 8.6 0.4 17.2z" /><path class="s0" d="m472.9 304.5q13.8 0 27.7 0c0 46.5-0.1 93.1 0 139.6q-13.9-0.1-27.8 0c0.2-46.5 0-93.1 0.1-139.6z" /><path fill-rule="evenodd" class="s1" d="m0 0.1q344.1 0 688.1 0c-0.2 216.6 0 433.2 0 649.8q-344.1 0-688.1 0zm547.3 242.8c0.2 58.9-0.1 117.8 0.1 176.7c-0.2 9.1 3.6 18.6 11.7 23.3c12.4 6.8 27 4.4 40.1 1q-0.1-9.7 0-19.4c-7.3 1.1-14.8 1.2-21.7-1.7c-1.3-4.7-2.5-9.5-2.3-14.3c0.1-55.2-0.1-110.4 0.1-165.6q-14.1 0-28 0zm83.5-0.1c0.1 59.8 0 119.6 0.1 179.3c-0.2 11.2 8.2 22 19.4 23.8c10.8 3.2 21.9 0.3 32.5-2q-0.2-10-0.1-19.9c-7.4 1.8-14.9 1.8-21.9-1.2c-1.3-4.7-2.5-9.4-2.4-14.3c0.2-55.2 0-110.4 0.1-165.6q-13.8 0-27.7-0.1zm-165.2 21.5c6.2 6.8 12.3 13.9 18.3 20.9c8-6.7 15.7-13.8 23.5-20.7c-6.2-7-12.5-13.9-18.7-21c-7.7 6.9-15.5 13.7-23.1 20.8zm-189.5-7.8c0 62.5 0 125.1 0 187.6q14.6-0.1 29.2 0c0-28 0-55.9 0-83.9c29.7 0.1 59.3 0.1 89 0.1c-0.1 27.9 0.1 55.8-0.1 83.8q14.3-0.1 28.6 0c-0.1-62.6-0.1-125.1 0-187.6c-9.5 0-19 0-28.5 0c0 26.3 0 52.6 0 78.9c-29.7 0-59.3-0.1-89 0c0-26.3 0-52.6 0-78.9q-14.6 0.1-29.2 0zm196.8 48c-0.1 46.5 0.1 93.1-0.1 139.6q13.9-0.1 27.8 0c-0.1-46.5 0-93.1 0-139.6q-13.9 0-27.7 0z" /><path fill-rule="evenodd" class="s1" d="m399.4 707.2c18.3-2.3 38.1 2.2 51.9 15c16.1 14.3 22.8 36.6 22.8 57.6c-0.1 19.6-5 40.2-18.3 55.1c-23.3 26.9-70.2 28.3-94.6 2.2c-13.8-14.7-20-35.4-19-55.3c-0.8-19.3 5.4-39 18-53.7c9.9-11.5 24.3-18.7 39.2-20.9zm-7.1 17.8c-18.3 7.2-27.8 27.3-29.7 46c-3 22 2.6 47.5 21 61.7c9.6 7.8 22.8 8.6 34.6 6.6c12.2-2.7 22.1-12 27.8-22.9c13-26.7 11.3-63.3-11.1-84.5c-11.4-10.2-28.6-12.4-42.6-6.9z" /><path fill-rule="evenodd" class="s1" d="m13 711.1c15-3.1 30.4-3.2 45.7-2.5c13.4 0.7 27.6 5.9 35.4 17.4c7.1 11.4 6.6 27.3-2.1 37.7c-4.3 5.8-10.8 9.1-17.3 12c7.5 2.9 15.2 6.2 20.6 12.4c13 14 11.8 38.1-1.5 51.5c-8.5 9.2-21.3 12.8-33.4 14.2c-15.8 2-31.8 1.3-47.4-0.9c0-47.3 0-94.5 0-141.8zm19.1 12.1c-0.4 15.5 0 31.1-0.3 46.6c13.3-0.4 28.4 2.5 39.5-6.5c11.3-8 11.8-26.9 0.4-35c-11.6-7.8-26.4-6-39.6-5.1zm-0.2 61.4c0.1 18.3 0 36.6 0 54.9c14.1 0.6 29.7 2.3 42-6c14.6-9.5 14-34.4-1.2-43.1c-12.2-7.6-27.1-5.6-40.8-5.8z" /><path class="s1" d="m214 708.4q9.9 0 19.8 0c-0.2 48.7 0 97.4-0.1 146.1q-9.8 0-19.6 0c-0.1-48.7 0-97.4-0.1-146.1z" /><path fill-rule="evenodd" class="s1" d="m583.4 710.4c16.3-2 32.8-3 49.2-1.5c14.6 1.7 29.8 9.2 35.9 23.3c6.8 16.4 4.4 37.7-8.9 50.2c-15.2 14.6-38 16-57.9 13.8c0.1 19 0 38.1 0.1 57.1q-9.3 0-18.6 0c0.2-47.7-0.1-95.3 0.2-142.9zm18.3 13.9c0.1 18.8 0 37.6 0 56.4c12.8 1.2 26.9 2.7 38.3-4.4c16.9-9.6 18.2-38 1.2-48.3c-11.9-6.6-26.4-5.8-39.5-3.7z" /><path fill-rule="evenodd" class="s1" d="m1222.7 711c15.3-3 31-3.1 46.5-2.5c13.5 0.7 28.2 5.3 36.2 16.9c6.9 9.1 6.9 21.4 5.2 32.2c-2.9 12.9-14 22.3-26.1 26.6c8.7 4 15.6 11.3 18.5 20.5c5.4 15.9 7.3 32.9 13.7 48.6q-9.8-0.1-19.7 0c-4-11.4-6.8-23.2-9.3-35.1c-2.3-9.8-6.4-20.9-16.6-24.9c-9.5-3.4-19.9-2.7-29.8-2.7c-0.1 20.9-0.1 41.8 0 62.7q-9.3-0.1-18.6 0c0-47.4 0-94.9 0-142.3zm18.5 13.1q0 26.3 0 52.5c13.8-0.5 29.2 2.5 41.1-6.1c14-9.3 14.4-32.9 0.3-42.2c-12.3-7.6-27.7-6.6-41.4-4.2z" /><path class="s1" d="m781.8 709.1c6.2 0 12.5 0 18.7 0.1q0 30 0 60.1c23.3 0.1 46.6 0 69.8 0.1c0-20.1 0-40.2 0-60.3q9.7 0.1 19.4 0c0 48.1-0.1 96.1 0 144.2q-9.7 0-19.4-0.1c0-22.5 0-45 0-67.5c-23.2 0.1-46.5 0-69.8 0.1c0.1 22.5 0 45 0.1 67.5q-9.4-0.1-18.8 0c0-48.1 0-96.1 0-144.2z" /><path fill-rule="evenodd" class="s1" d="m1044.4 709.3c7.6-0.2 15.2-0.2 22.9-0.2c16.6 48 32.9 96.1 49.4 144.2c-6.8 0-13.5 0-20.3-0.1c-5.1-15.1-10.2-30.2-15.4-45.2c-17 0.1-33.9 0-50.9 0c-5.1 15.1-9.9 30.2-15 45.3q-9.8 0-19.6-0.1c16.5-47.9 32.9-95.9 48.9-143.9zm11 15.9c-5.3 23.4-14.1 45.7-21.5 68.4c14.4-0.1 28.9 0 43.4-0.1c-7.6-22.6-16.2-45-21.9-68.3z" /><path class="s1" d="m1429.3 709.1c7.9 0 15.9 0 23.9 0.1c13 39.6 29.6 78.2 39 119c11.4-40.5 27.2-79.6 41.7-119.1c7.9 0.1 15.9 0.1 23.9 0c3 48.1 5.7 96.1 9.1 144.2q-9.2-0.1-18.3 0c-2.8-42-5.5-84.1-6.5-126.2c-12 42.7-29.1 83.6-43.6 125.4c-4.8 0.1-9.7 0.1-14.5 0.2c-13.8-41.6-29.6-82.6-40.2-125.2c-1.3 42-4.2 83.9-6.9 125.8q-9.1 0-18 0c3.8-48.1 6.4-96.2 10.4-144.2z" /><path fill-rule="evenodd" class="s1" d="m1667.2 853.2c16.2-48.1 32.5-96.1 49.1-144.1c7.5 0.1 15.1 0 22.7 0.1c16.5 48 32.6 96.1 49.3 144c-6.8 0.1-13.6 0.1-20.4 0.1c-4.9-15.2-10.2-30.1-15.3-45.2c-16.9-0.1-33.9 0-50.8-0.1c-5.3 15-10.1 30.2-15.2 45.3c-6.5 0-12.9 0-19.4-0.1zm59.4-126.4c-5.3 22.8-14.1 44.5-21 66.8c14.3-0.1 28.6 0 42.9 0c-4.5-15.5-10.3-30.4-15.2-45.7c-2.1-7.1-3.8-14.4-6.7-21.1z" /><path fill-rule="evenodd" class="s2" d="m688.1 0.1q555.5 0 1111.1 0q0 111 0 221.9c0.2 20.1-0.8 40.3 0.8 60.3v367.3c-370.6 0.7-741.3 0.1-1111.9 0.3c0-216.6-0.2-433.2 0-649.8zm154.2 265.9c-0.1 12.8-0.1 25.5 0.2 38.3c-8.1 0.3-16.2 0.4-24.3 0.3q-0.1 9.9-0.2 19.8c8.1 0.2 16.2 0.2 24.3 0.2c0.1 28.1-0.2 56.1 0.1 84.2c-0.1 13.5 5.2 28.5 18.1 34.7c16.3 7.8 35.1 4.5 52.1 1q0-10.9 0-21.7c-10.7 2.1-22 5.1-32.7 1.3c-7.8-3-10.2-12.2-9.9-19.8c0-26.6 0-53.1 0.1-79.7q21.1-0.1 42.3 0c-0.1-6.7-0.1-13.3-0.2-20c-14.1 0-28.2 0.1-42.2 0c0-12.9 0.1-25.8 0-38.6q-13.9 0-27.7 0zm-118.4 43.2c-18.9 10.4-22 37.7-11.2 54.9c11.1 16.5 32.6 18.2 47.9 28.7c12.5 7.7 8.8 29.4-5.2 33.2c-16.7 5.1-34.2-0.5-49.6-7.1c0 7.3 0 14.6-0.1 22c22.2 7.9 48.1 11.3 70 0.8c24.2-11.4 27.7-49.9 6.3-65.8c-12.4-9.9-29.2-11.5-41.8-21c-10.3-7.4-8.1-25.5 3.6-30.3c14.9-5.7 31.4-1.6 45.5 4.6q0-10.7-0.1-21.4c-21-6.5-45.2-9.6-65.3 1.4zm278.6-2.7c-11.4 5.1-20.2 14.4-29.1 23c0-8.3 0-16.5 0-24.8q-12.7-0.2-25.4 0.1c0.2 46.5 0.1 92.9 0.1 139.3q13.8 0 27.7 0c0-32.3 0.2-64.6-0.1-96.9c13.4-11.9 30.8-18.6 48.6-19.3c0.1-8.8 0.1-17.6 0.1-26.4c-7.4 1-15.1 1.7-21.9 5zm81.1-0.2c-14.8 5.8-26.8 18-32.5 32.9c-8.3 21.5-8.6 46.2-1.1 67.9c6.3 18.6 22.3 33.4 41.3 38.2c22.7 6 47.2 2.3 68.5-7c-0.1-7.2-0.1-14.4-0.1-21.6c-13.1 5.6-27 9.9-41.4 9.6c-12.9 0.3-27.1-3.2-35.6-13.6c-7.3-8.4-8.9-19.9-10.1-30.5c30.4-0.2 60.9 0 91.4-0.1c0.4-15.4 0.4-31.2-5-45.8c-5-14.5-16.8-26.8-31.6-31.4c-14.2-4.4-29.9-3.9-43.8 1.4zm125.5 2.2q0 10.4 0 20.8c18.5-4.1 38.3-8.6 57-3.2c14 5 14.7 21.8 14.3 34.3c-22.4 0.7-46.8-3.4-67.2 8.3c-20.2 11.7-23.9 40.5-13.7 60c8.7 15.5 28.2 20.1 44.7 18.9c14.2-0.8 27.7-6.7 38.1-16.3c2.9 5.1 5.1 11.3 10.8 13.8c9.1 4.1 20.5 3.5 29.3-1.1c2.3-4.8 0.7-10.7 1.1-15.9c-5.3-0.8-14 1-15.3-6.1c-1.6-26.9 0.9-54.1-1.2-81c-0.8-15.3-10.2-30.5-25.3-35.1c-23.7-7.5-49.1-3.3-72.6 2.6zm175.1 13.3q-0.2-8.6-0.4-17.2q-12.7 0-25.4 0c-0.1 46.5-0.1 93-0.1 139.5q14 0 28.1-0.1c0.1-35.8 0-71.7 0.1-107.5c12.3-10.4 29.9-16.3 45.4-9.7c11.3 5.4 15 18.6 15.1 30.1c0.3 29 0 58.1 0.1 87.2q13.8-0.1 27.6 0c-0.1-35.7 0.5-71.5-0.4-107.2c12.3-10.3 29.7-16.6 45.3-10.4c11.7 5 16.1 18.6 15.9 30.4q0 43.6-0.1 87.2q13.9 0 27.9 0c-0.1-31.3 0-62.6-0.1-93.9c0-12.5-2.9-25.8-11.5-35.3c-9.8-11-25.7-14-39.8-12.7c-16.1 1.6-30 10.8-41.6 21.5c-6.7-9.9-16.3-18.2-28.3-20.3c-21-5.5-42.5 4.3-57.8 18.4z" /><path class="s2" d="m1081.4 336c9-12.5 27.1-15.6 40.7-9.8c13.2 6.8 16.1 23 16.6 36.5c-22 0-44 0-66-0.1c1.3-9.2 2.8-19 8.7-26.6z" /><path class="s2" d="m1235.5 381.5c14.4-5.3 30-2.7 45-3.1c-0.4 12.1 1.3 24.5-1 36.4c-11.4 11.1-29.3 13.5-44.2 9.6c-18.4-6-17.6-36.6 0.2-42.9z" /></svg>