<svg version="1.2" xmlns="http://www.w3.org/2000/svg" viewBox="0 0 1601 550" width="1601" height="550">
	<title>hims-svg</title>
	<style>
		.s0 { opacity: .9;fill: #000000 } 
	</style>
	<g id="Layer">
		<path id="Layer" class="s0" d="m1301.4 476.5c0-23.4 14.3-38.9 42.5-38.9c33 0 42.5 11.5 54 59.2c4 16.3 13.9 26.2 39.7 26.2c35 0 54-19.1 54-47.3c0-24.6-25-44.4-73.8-75.4c-53.6-33-83-64.3-83-110.4c0-71.5 79.4-114.4 152.1-114.4c81.7 0 113.1 35 113.1 67.9c0 21.9-14.3 33.8-38.9 33.8c-31 0-40.5-12.3-50.8-49.3c-4.8-18.6-14.3-26.2-33-26.2c-29.3 0-49.2 15.1-49.2 42.5c0 26.2 25.8 42.5 82.6 78.2c53.6 31.4 77.4 66 77.4 106.5c0 66.7-71.9 120.7-161.6 120.7c-89.3-1.2-125.1-37.7-125.1-73.1z" />
		<path id="Layer" class="s0" d="m37.3 167.6c0-15.5 0-63.6-1.6-73.1c-2.4-13.1-5.9-13.9-26.6-19.1c-7.1-1.5-8.7-6.7-8.7-12.3c0-7.1 0.8-7.9 22.6-12.3c42.9-9.9 79-24.6 114-44.9c7.1-5.1 8.7-5.1 10.3-5.1c5.9 0 5.9 6.7 5.9 15.5v77l-0.8 125.5c0 7.9 0 11.9 3.6 11.9c0.8 0 2.4 0 11.9-8.7c33.8-28.6 71.9-45.7 116-45.7c32.9 0 63.1 10.3 85.7 34.6c19.9 20.6 22.7 51.2 22.7 84.9v195.8c0 17.5 3.5 24.2 25.8 30.2c0 0 5.9 2.8 19 2.8c13.1 0 18.3-2 18.3-2c24.2-7.1 24.2-16.3 24.2-54.4l-0.8-95.3c0-15.5-0.8-92.5-2.4-102.1c-2.4-13.1-5.9-13.9-26.6-19c-7.1-1.6-8.7-6.8-8.7-12.3c0-7.2 0.8-8 22.6-12.4c42.5-9.5 78.6-24.2 113.6-44.8c7.1-5.2 8.7-5.2 10.3-5.2c5.9 0 5.9 6.8 5.9 15.5v281.5c0 34.6 2.8 41 27.8 47.7c0 0 8 2.8 22.7 2.8c14.3 0 22.2-2.8 22.2-2.8c29.4-7.1 29.4-17.5 29.4-52.8c0-61.6 0-141-2.4-185.1c-0.8-26.6-1.6-27-36.5-32.9c-8.8-1.6-9.6-6-9.6-11.9c0-8.8 3.6-9.6 16.7-12c31-6.7 78.6-19 120.3-43.2c13.1-8 14.7-8 16.7-8c5.2 0 5.2 6 5.2 10.3v31.4c0 7.2 0 10.3 3.5 10.3c2.4 0 3.6 0 8.8-5.1c36.1-32.2 67.5-47.7 108-47.7c36.5 0 65.9 11.9 87.3 40.9c11.1 14.7 11.9 15.5 14.7 15.5c1.6 0 2.8 0 16.3-12.3c22.6-21.4 60.7-44.9 110.7-44.9c6.8 0 71.1 0.8 96.9 46.1c9.5 16.7 14.7 25.8 14.7 123.1v146.1c0 12.3 0 24.3 23.4 30.2c8.8 2.4 13.9 3.6 13.9 13.9c0 6.8-1.6 11.1-11.9 11.9h-21.8h-80.6h-60c-7.1 0-16.2-1.6-16.2-13.9c0-7.1 4.3-8.7 12.3-11.1c14.7-4.4 24.2-6.7 24.2-42.5v-71.1c0-20.6 0-113.5-1.6-126.2c-0.8-12.4-4.4-55.6-53.6-55.6c-14.7 0-58 11.1-58 52v210.5c0 21.4 3.6 26.6 27 32.1c8 2.4 13.1 3.6 13.1 11.9c0 12.3-6.7 13.9-26.2 13.9h-63.9h-83.8c-10.3 0-18.2-0.8-18.2-12.3c0-7.1 2.7-8.7 10.3-11.1c26.6-7.9 26.6-18.3 26.6-51.2c0-34.6 0-177.5-3.6-201c-5.1-30.2-31-39.7-50.4-39.7c-25 0-49.2 17.5-56.4 36.2c-2.4 5.9-2.4 83.7-2.4 96.1c0 21.8 0 116.7 1.6 131.4c1.6 19.9 17.5 24.2 33 27.8c7.1 2.4 11.1 2.8 11.1 11.9c0 11.9-9.5 12.3-19.9 12.3h-84.1h-73.9h-69.1h-65.1h-83.7h-39h-21h-66.7h-64.7h-20.7c-5.9-0.8-7.9-6.7-7.9-11.9c0-7.1 3.6-9.5 10.3-11.1c11.1-2.8 18.3-5.2 21.5-13.1c3.5-10.3 3.5-30.2 4.3-45.7c0.8-71.9 0.8-73.4 0.8-154.1c0-31.3 0-82.2-55.2-82.2c-25 0-43.2 14.7-49.2 20.7c-13.9 13.1-19.1 18.3-19.1 45.7v194.9c0 18.3 2.4 25.9 27 32.2c6.8 1.6 13.9 2.8 13.9 10.3c0 13.1-9.5 13.9-22.6 13.9h-60.7h-90.2c-13.1 0-19 0-19-11.9c0-7.1 4.3-8.7 12.3-11.1c24.2-8.7 24.2-18.3 24.2-54.4v-89v-157.6z" />
		<path id="Layer" class="s0" d="m597.9 88.5c0 37.8-30.2 64.8-63.1 64.8c-28.6 0-60.8-21.1-60.8-61.6c0-32.9 27-63.9 63.2-63.9c34.9 0 60.7 28.6 60.7 60.7z" />
	</g>
</svg>