<svg version="1.2" xmlns="http://www.w3.org/2000/svg" viewBox="0 0 1521 291" width="1521" height="291">
	<title>ht-logo-color-svg</title>
	<defs>
		<clipPath clipPathUnits="userSpaceOnUse" id="cp1">
			<path d="m1 0.37h1519.69v290.53h-1519.69z" />
		</clipPath>
		<clipPath clipPathUnits="userSpaceOnUse" id="cp2">
			<path d="m1 0.37h1519.69v290.53h-1519.69z" />
		</clipPath>
		<clipPath clipPathUnits="userSpaceOnUse" id="cp3">
			<path d="m1 0.37h1519.69v290.53h-1519.69z" />
		</clipPath>
		<clipPath clipPathUnits="userSpaceOnUse" id="cp4">
			<path d="m1 0.37h1519.69v290.53h-1519.69z" />
		</clipPath>
		<clipPath clipPathUnits="userSpaceOnUse" id="cp5">
			<path d="m1 0.37h1519.69v290.53h-1519.69z" />
		</clipPath>
		<clipPath clipPathUnits="userSpaceOnUse" id="cp6">
			<path d="m1 0.37h1519.69v290.53h-1519.69z" />
		</clipPath>
		<clipPath clipPathUnits="userSpaceOnUse" id="cp7">
			<path d="m1 0.37h1519.69v290.53h-1519.69z" />
		</clipPath>
		<clipPath clipPathUnits="userSpaceOnUse" id="cp8">
			<path d="m1 0.37h1519.69v290.53h-1519.69z" />
		</clipPath>
		<clipPath clipPathUnits="userSpaceOnUse" id="cp9">
			<path d="m1 0.37h1519.69v290.53h-1519.69z" />
		</clipPath>
		<clipPath clipPathUnits="userSpaceOnUse" id="cp10">
			<path d="m1 0.37h1519.69v290.53h-1519.69z" />
		</clipPath>
		<clipPath clipPathUnits="userSpaceOnUse" id="cp11">
			<path d="m1 0.37h1519.69v290.53h-1519.69z" />
		</clipPath>
		<clipPath clipPathUnits="userSpaceOnUse" id="cp12">
			<path d="m1 0.37h1519.69v290.53h-1519.69z" />
		</clipPath>
		<clipPath clipPathUnits="userSpaceOnUse" id="cp13">
			<path d="m1 0.37h1519.69v290.53h-1519.69z" />
		</clipPath>
		<clipPath clipPathUnits="userSpaceOnUse" id="cp14">
			<path d="m1 0.37h1519.69v290.53h-1519.69z" />
		</clipPath>
		<clipPath clipPathUnits="userSpaceOnUse" id="cp15">
			<path d="m1 0.37h1519.69v290.53h-1519.69z" />
		</clipPath>
	</defs>
	<style>
		.s0 { fill: #231f20 } 
		.s1 { fill: #006838 } 
		.s2 { fill: #29b2b5 } 
		.s3 { fill: #238e8d } 
		.s4 { fill: #2880b9 } 
		.s5 { fill: #024d26 } 
		.s6 { fill: #20713c } 
		.s7 { fill: #2c3e50 } 
	</style>
	<g id="Layer">
		<path id="Layer" class="s0" d="m461.4 218h-19.6v-63.9h-70.2v63.9h-19.6v-144.7h19.6v65.4h70.2v-65.4h19.6z" />
		<path id="Layer" class="s0" d="m537.9 73.3h19.6v144.7h-19.6z" />
		<g id="Layer">
			<path id="Layer" fill-rule="evenodd" class="s0" d="m738.1 198.5q-5.1 8-17.9 14.8q-12.8 6.8-33.1 6.8q-25.1 0-41.5-16.6q-16.4-16.6-16.4-43v-29.8q0-26.3 15.8-42.9q15.8-16.6 40.8-16.6q24.1 0 38.1 12.9q14 12.9 13.6 32.7l-0.2 0.6h-18.7q0-13.2-8.6-22q-8.5-8.8-24.2-8.8q-16.6 0-26.8 12.4q-10.1 12.5-10.1 31.5v30q0 19.3 10.7 31.8q10.8 12.5 27.5 12.5q12.8 0 20.3-3.4q7.5-3.3 11.2-7.9v-32.6h-32.8v-15.3h52.3z" />
			<path id="Layer" class="s0" d="m922 218h-19.6v-63.9h-70.2v63.9h-19.6v-144.7h19.6v65.4h70.2v-65.4h19.6z" />
			<path id="Layer" class="s0" d="m1096.5 83.4h-49.3v134.6h-11.9v-134.6h-50.9v-10.1h112.1z" />
			<g id="Clip-Path" clip-path="url(#cp1)">
				<path id="Layer" class="s0" d="m1163.5 73.3h11.9v144.7h-11.9z" />
			</g>
			<g id="Clip-Path" clip-path="url(#cp2)">
				<path id="Layer" fill-rule="evenodd" class="s0" d="m1256.1 218v-144.7h44.2q26.5 0 43.8 17.7q17.4 17.7 17.4 45.4v18.6q0 27.7-17.4 45.3q-17.3 17.7-43.8 17.7zm11.9-134.6v124.5h32.2q21.4 0 35.3-15q13.9-15 13.9-37.9v-18.9q0-22.7-13.9-37.7q-14-15-35.3-15z" />
			</g>
			<g id="Clip-Path" clip-path="url(#cp3)">
				<path id="Layer" class="s0" d="m1510.6 147.9h-64.9v60h75v10.1h-86.9v-144.7h86.4v10.1h-74.5v54.4h64.9z" />
			</g>
			<g id="Clip-Path" clip-path="url(#cp4)">
				<path id="Layer" fill-rule="evenodd" class="s1" d="m148.4 20.4q0 0 0 0q0 0 0 0z" />
			</g>
			<g id="Clip-Path" clip-path="url(#cp5)">
				<path id="Layer" fill-rule="evenodd" class="s2" d="m146.5 155.8q0 0-0.1 0.1q-0.8-0.2-1.6-0.5l-0.9-1.7l-37.2-64.2l35.9 65.1c-1.6-0.7-3.3-1.5-5-2.1c0.2-0.1 0.3-0.2 0.3-0.2c0.2-0.3 0.5-0.6 0.4-0.8c-0.1-0.3-0.5-0.4-0.8-0.6c-0.6-0.2-1.3-0.3-2-0.6c-0.6-0.2-1.2-0.5-1.8-0.8q-1.2-0.6-2.4-1.2c-0.4-0.2-0.3-0.4 0-0.7c0.1-0.1 0.3-0.2 0.4-0.3q0.7-0.5 0.1-1c-0.2-0.2-0.4-0.2-0.6-0.3c-1.1-0.4-2.2-0.8-3.2-1.3c-1.3-0.8-2.6-1.7-4-2.6c0.3-0.1 0.5-0.3 0.7-0.3c0.2-0.1 0.4-0.2 0.6-0.3c0.2-0.2 0.6-0.4 0.5-0.5c0-0.3-0.2-0.5-0.5-0.7c-0.1-0.1-0.3-0.2-0.5-0.2c-2.9-0.8-5-2.8-6.9-5.2c0.6-0.2 1-0.3 1.4-0.4c0.2-0.1 0.5-0.3 0.5-0.4c0-0.3-0.2-0.5-0.3-0.7c-0.2-0.2-0.4-0.3-0.7-0.3c-1.5-0.6-2.9-1.4-4.1-2.4c-0.6-0.5-1.1-1.1-1.7-1.6c0.2-0.2 0.3-0.2 0.3-0.3q0.7-0.2 1.4-0.4c0.5-0.2 0.6-0.5 0.2-0.9q-0.2-0.2-0.4-0.3c-2-1-3.7-2.1-5-3.8c-0.4-0.6-0.7-1.2-1.1-1.7q0.1-0.1 0.2-0.2c0.6 0.2 1.3 0.3 1.9 0.4c0.2 0.1 0.6 0 0.7-0.1c0-0.3 0-0.6-0.2-0.8c-0.2-0.3-0.5-0.6-0.9-0.8c-2.1-1.8-4.1-3.8-5.5-6.5c0.9 0 1.7 0.1 2.4 0.1c0.3 0 0.6-0.2 0.8-0.3c-0.1-0.2-0.2-0.5-0.4-0.8c-0.1-0.1-0.2-0.2-0.3-0.3c-1.8-1.1-3.2-2.5-4.3-4.3c-0.5-0.8-0.9-1.6-1-2.6c0.6 0.2 1.1 0.4 1.6 0.6c0.4 0 0.8 0 1-0.2c0.2-0.2 0.1-0.7 0-0.9c-0.3-0.5-0.7-0.9-1-1.3c-0.8-0.9-1.7-1.7-2.5-2.7c-0.7-0.9-1.3-1.9-1.4-3.2c0.5 0.1 1 0.2 1.5 0.3c0.2 0 0.5 0 0.5-0.1c0.2-0.2 0.2-0.4 0.2-0.6c-0.1-0.2-0.2-0.4-0.4-0.5c-1.5-1.7-2.7-3.6-3.6-5.7c-0.2-0.6-0.4-1.2-0.6-1.9c0.6 0.1 0.9 0.2 1.3 0.2c0.2 0 0.6-0.1 0.7-0.2c0-0.2-0.1-0.5-0.2-0.7c-0.4-0.8-0.9-1.5-1.3-2.3c-0.4-1.1-0.7-2.2-1.1-3.3c-0.2-0.6-0.6-1.1-0.3-1.7c0.4 0.1 0.9 0.3 1.3 0.3c0.3 0.1 0.6 0 0.7-0.2c0.1-0.1 0-0.4-0.1-0.6c-1.2-2.2-2-4.4-2.7-6.8c0.7 0.3 1.3 0.7 2 1.1c0.1 0.1 0.5 0.1 0.6 0.1c0.1-0.1 0.2-0.5 0.1-0.7c-0.2-1.4-0.5-2.9-0.7-4.4c-0.2-2.4-0.2-4.9-0.4-7.3c-0.2-2.2-0.6-4.4-0.9-6.5c0-0.2 0-0.3 0-0.6c0.1 0.2 0.2 0.3 0.3 0.4c1.9 3.1 3.9 6.2 5.7 9.4c1.4 2.3 2.5 4.8 3.7 7.2q0.5 0.8 0.9 1.6q0.1 0 0.3-0.1q0.6-1.9 1.1-3.8c0.2 0.1 0.3 0.1 0.3 0.2c1.2 2.5 2.4 5 3.6 7.5c0.1 0.3 0.5 0.4 0.8 0.7c0.1-0.3 0.3-0.6 0.4-0.9c0.1-0.5 0.2-1.1 0.3-1.6q0.2 0 0.3 0c0.6 1.5 1.2 3 1.7 4.5c0.5 1.4 0.9 2.9 1.5 4.4c0 0.2 0.4 0.4 0.6 0.6c0.1-0.2 0.3-0.4 0.5-0.6c0.2-0.6 0.5-1.1 0.7-1.7q0.1 0 0.2 0c0.3 1 0.6 2 0.8 3c0.4 1.9 0.8 3.8 1.2 5.7c0.1 0.3 0.3 0.5 0.5 0.7c0.3 0.3 0.5 0.3 0.7-0.1c0.2-0.4 0.5-0.8 0.7-1.2c0.2 0.3 0.3 0.4 0.3 0.5c0.7 2.2 1.2 4.3 1.3 6.6c0 0.9 0.1 1.8 0.2 2.7c0 0.4 0.3 0.8 0.7 0.8c0.1 0 0.3-0.4 0.5-0.6q0.4-0.8 0.8-1.7q0.1 0.1 0.2 0.1c0 0.3 0 0.6 0.1 0.9c0 1.6-0.1 3.3 0 4.9q0.1 2.4 0.4 4.8c0 0.3 0.3 0.7 0.6 0.8c0.1 0.1 0.5-0.2 0.8-0.4c0.3-0.1 0.5-0.4 0.8-0.7c0.1 0.2 0.1 0.4 0.2 0.5c0.3 2 0.6 4.1 0.9 6.2q0.2 1.4 0.7 2.7c0.2 0.6 0.7 0.7 1.2 0.2c0.1-0.2 0.3-0.3 0.7-0.7c0.2 0.9 0.4 1.6 0.5 2.3c0.1 1.7 0.2 3.3 0.3 5c0 1.1 0.2 1.2 1.2 1.1c0.1 0.8 0.2 1.7 0.3 2.5c0.2 1.4 0.4 2.8 0.8 4.1c0.2 0.9 0.5 1 1.3 0.4q0.2 0.3 0.3 0.6q0.6 2.4 1.3 4.9c0.2 0.8 0.5 0.9 1.3 0.5c0.2 0.8 0.4 1.5 0.6 2.3c0.3 1.3 0.4 2.6 0.9 3.9c0.8 1.9 1.9 3.8 2.8 5.8q0.8 1.6 1.6 3.2z" />
			</g>
			<g id="Clip-Path" clip-path="url(#cp6)">
				<path id="Layer" fill-rule="evenodd" class="s3" d="m135.5 94.4c-0.4-1.1-0.5-2.3-0.7-3.5q0.1 0 0.2-0.1c0.3 0.3 0.7 0.6 1.1 0.8c0.5 0.3 0.9 0 0.9-0.5c0-0.2-0.1-0.5-0.2-0.7c-0.8-1.7-1.5-3.5-1.7-5.4c-0.1-0.4-0.1-0.8-0.1-1.4c0.5 0.3 0.8 0.5 1.1 0.8c0.4 0.3 0.8 0.2 1.1-0.1c0.2-0.3 0.3-0.7 0.3-1c-0.4-1.5-0.9-3-1.3-4.4c-0.1-0.6-0.2-1.2-0.3-2c0.5 0.4 0.8 0.7 1.1 0.9c0.2 0.2 0.6 0.1 0.8 0.1c0.1-0.1 0.1-0.5 0.1-0.7c-0.3-1.7-0.8-3.4-1.1-5.2c-0.2-1.3-0.2-2.6-0.3-4q0.1 0 0.2-0.1c0.5 0.4 0.9 0.8 1.4 1.1c0.3 0.1 0.7 0.1 1 0.1c0-0.3 0.1-0.6 0-0.8c-0.2-0.6-0.5-1.1-0.6-1.7c-0.2-2-0.4-4-0.6-6c0 0 0-0.1 0.1-0.3c0.4 0.4 0.7 0.7 1.1 1c0.3 0.1 0.7 0.1 0.9 0c0.1 0 0.3-0.4 0.2-0.6q-0.9-3.6-1-7.2c-0.1-0.9 0-1.8 0-2.7c0.2 0.1 0.3 0.1 0.4 0.2c0.4 0.3 0.8 0.6 1.3 0.8c0.5 0.2 0.8 0 0.8-0.5c0-0.5-0.1-1.1-0.2-1.7q-0.2-2.7-0.4-5.5q0.1 0 0.2-0.1c0.3 0.3 0.6 0.6 0.9 0.8c0.3 0.2 0.6 0.2 0.9 0.2c0.1 0 0.2-0.3 0.2-0.5q-0.1-1-0.2-1.9c-0.4-2.6-0.5-5.2 0.2-7.9q0.9 0.5 1.7 1c0.3 0.2 0.5 0.3 0.8 0.4c0.1-0.3 0.2-0.6 0.3-0.8c0.2-2.3 0.5-4.5 0.7-6.7q0.3-2.2 0.7-4.4c0.2-1.4 0.5-2.6 0.7-3.9c0.3 1.3 0.6 2.5 0.8 3.9q0.4 2.2 0.7 4.4c0.2 2.2 0.5 4.4 0.7 6.7c0.1 0.2 0.2 0.5 0.3 0.8c0.3-0.1 0.5-0.2 0.8-0.4q0.8-0.5 1.7-1c0.7 2.7 0.6 5.3 0.2 7.9q-0.1 0.9-0.2 1.9c0 0.2 0.1 0.5 0.2 0.5c0.3 0 0.6 0 0.8-0.2c0.4-0.2 0.7-0.5 1-0.8q0.1 0.1 0.2 0.1q-0.2 2.8-0.4 5.5c-0.1 0.6-0.2 1.2-0.2 1.7c0 0.5 0.3 0.7 0.8 0.5c0.5-0.2 0.9-0.5 1.3-0.8c0.1-0.1 0.2-0.1 0.4-0.2c0 0.9 0.1 1.8 0 2.7q-0.1 3.6-1 7.2c-0.1 0.2 0.1 0.6 0.2 0.6c0.2 0.1 0.6 0.1 0.9 0c0.4-0.3 0.7-0.6 1.1-1c0.1 0.2 0.1 0.3 0.1 0.3c-0.2 2-0.4 4-0.6 6c-0.1 0.6-0.4 1.1-0.6 1.7c-0.1 0.2 0 0.5 0 0.8c0.3 0 0.7 0 1-0.1c0.5-0.3 0.9-0.7 1.4-1.1q0.1 0.1 0.2 0.1c-0.1 1.4-0.1 2.7-0.3 4c-0.3 1.8-0.8 3.5-1.1 5.2c0 0.2 0 0.6 0.1 0.7c0.2 0 0.6 0.1 0.8-0.1c0.3-0.2 0.6-0.5 1.1-0.9c-0.1 0.8-0.2 1.4-0.3 2c-0.4 1.4-0.9 2.9-1.3 4.4c0 0.3 0.1 0.7 0.3 1c0.3 0.3 0.7 0.4 1.1 0.1c0.3-0.3 0.6-0.5 1.1-0.8c0 0.6 0 1-0.1 1.4c-0.2 1.9-0.9 3.7-1.7 5.4c-0.1 0.2-0.2 0.5-0.2 0.7c0 0.5 0.4 0.8 0.9 0.5c0.4-0.2 0.8-0.5 1.1-0.8q0.1 0.1 0.2 0.1c-0.2 1.2-0.3 2.4-0.7 3.5c-0.3 1.3-0.9 2.5-1.3 3.7c-0.1 0.3 0 0.6 0 0.9c0.3 0 0.7 0 1.1 0c0.2 0 0.4-0.2 0.8-0.4c-0.2 1-0.3 1.8-0.6 2.5c-0.6 1.6-1.4 3.2-2.1 4.7c-0.2 0.3-0.4 0.7 0 0.9c0.2 0.2 0.6 0.1 0.9 0c0.4-0.2 0.7-0.5 1.1-0.8c-0.4 1.9-1.1 3.5-2 5c-0.1 0.3-0.1 0.6-0.1 1c0.4 0 0.7 0 1-0.1c0.2 0 0.4-0.2 0.7-0.4c0.2 0.8 0 1.6-0.3 2.2c-0.7 1.4-1.6 2.7-2.3 4.1c-0.2 0.3-0.3 0.8-0.2 1.1c0.2 0.4 0.6 0.1 0.9 0c0.2 0 0.4-0.1 0.9-0.2c-0.2 0.7-0.3 1.3-0.5 1.9c-0.6 1.6-1.6 3-2.8 4.3c-0.5 0.5-0.4 1 0.2 1.1c0.2 0.1 0.4 0 0.6-0.1c0.2-0.1 0.5-0.1 1-0.3c-0.9 1.7-1.6 3.2-2.9 4.4q-0.3 0.3-0.5 0.6c-0.4 0.6-0.2 1.1 0.5 1.4c0.7 0.2 0.7 0.3 0.4 0.9c-0.8 1.6-1.8 3.1-2.9 4.4c-0.2 0.2-0.3 0.6-0.4 0.8c0.3 0.1 0.6 0.3 1 0.3c0.2 0.1 0.5 0 0.8 0c-0.3 1.2-0.9 2.1-1.6 3c-0.5 0.5-1.1 1.1-1.6 1.7q-0.2 0.2-0.4 0.4c-0.2 0.5 0 0.8 0.5 0.8q0.3 0 0.6 0q-0.9 2.3-1.8 4.5l-1.5-73l-1.4 73q-0.9-2.2-1.8-4.5q0.3 0 0.6 0c0.5 0 0.7-0.3 0.5-0.8q-0.2-0.2-0.4-0.4c-0.5-0.6-1.1-1.2-1.6-1.7c-0.7-0.9-1.3-1.8-1.6-3c0.3 0 0.6 0.1 0.8 0c0.4 0 0.7-0.2 1-0.3c-0.1-0.2-0.2-0.6-0.4-0.8c-1.1-1.3-2.1-2.8-2.9-4.4c-0.3-0.6-0.3-0.7 0.4-0.9c0.7-0.3 0.9-0.8 0.5-1.4q-0.2-0.3-0.5-0.6c-1.3-1.2-2-2.7-2.9-4.4c0.5 0.2 0.8 0.2 1 0.3c0.2 0.1 0.4 0.2 0.6 0.1c0.6-0.1 0.7-0.6 0.2-1.1c-1.2-1.3-2.2-2.7-2.8-4.3c-0.2-0.6-0.3-1.2-0.5-1.9c0.4 0.1 0.7 0.2 0.9 0.2c0.3 0.1 0.7 0.4 0.9 0c0.1-0.3 0-0.8-0.2-1.1c-0.7-1.4-1.6-2.7-2.3-4.1c-0.3-0.6-0.5-1.4-0.3-2.2c0.3 0.2 0.5 0.4 0.7 0.4c0.3 0.1 0.6 0.1 1 0.1c0-0.4 0-0.7-0.1-1c-0.9-1.5-1.6-3.1-2-5c0.4 0.3 0.7 0.6 1.1 0.8c0.3 0.1 0.7 0.2 0.9 0c0.4-0.2 0.2-0.6 0-0.9c-0.7-1.5-1.5-3.1-2.1-4.7c-0.3-0.7-0.4-1.6-0.6-2.5c0.4 0.2 0.6 0.4 0.8 0.4c0.4 0 0.8 0 1.1 0c0-0.3 0.1-0.6 0-0.9c-0.4-1.2-1-2.4-1.3-3.7z" />
			</g>
			<g id="Clip-Path" clip-path="url(#cp7)">
				<path id="Layer" fill-rule="evenodd" class="s4" d="m98.2 152.7c0.2-0.3 0.6-0.7 0.2-1.1c-0.3-0.2-0.8-0.2-1.2-0.1c-2.1 0.8-4.1 0.6-6.3-0.1c0.3-0.4 0.5-0.8 0.7-1.2c0.2-0.3 0.4-0.8 0.3-0.9c-0.3-0.3-0.7-0.4-1.1-0.5c-1.2 0-2.4 0.1-3.6 0c-1.5-0.2-2.9-0.8-4.3-1.7c0.5-0.4 0.9-0.7 1.3-1.1c0.2-0.2 0.4-0.7 0.3-0.9c-0.1-0.2-0.5-0.4-0.8-0.4c-1.3-0.2-2.7-0.1-4-0.4c-1.2-0.2-2.3-0.8-3.4-1.2c0.3-0.4 0.7-0.5 1-0.7c0.2-0.3 0.6-0.6 0.6-0.9c0-0.5-0.5-0.6-1-0.6c-0.5 0-1 0-1.4-0.1q-1.3-0.4-2.6-1c-0.9-0.3-1.8-0.8-2.9-1.3c0.4-0.2 0.5-0.3 0.7-0.3q0.4-0.3 0.8-0.7c-0.3-0.2-0.5-0.6-0.9-0.8c-1.1-0.4-2.3-0.8-3.4-1.3c-1.2-0.5-2.4-1.2-3.8-1.9c0.7-0.4 1.1-0.6 1.6-0.9c0.2-0.2 0.4-0.4 0.4-0.5c-0.1-0.3-0.3-0.5-0.6-0.6c-2.8-0.7-5.3-2-7.7-3.5c-0.3-0.3-0.6-0.5-1-0.8c0.8-0.3 1.4-0.5 2-0.7c0.2-0.1 0.4-0.3 0.7-0.4c-0.2-0.2-0.4-0.5-0.7-0.6c-1.6-0.7-3.2-1.3-4.8-2c-1-0.5-2-1.2-3-1.7c0.9-0.4 1.7-0.6 2.6-0.7c0.2-0.1 0.4-0.2 0.6-0.3c-0.1-0.2-0.2-0.6-0.4-0.7c-4.8-3.3-9.1-7-12.9-11.3c-0.9-1-1.7-2-2.5-3q0.1-0.1 0.2-0.1q0.2 0 0.4 0.2c3.7 2.4 7.4 4.9 11.2 7.4c2.1 1.3 4.2 2.6 6.4 3.9c0.2 0.1 0.5 0 0.7 0.1c0-0.3 0.1-0.6 0.1-0.8c-0.1-0.6-0.3-1.2-0.4-1.9c0.3 0 0.4 0 0.4 0q3.6 1.9 7.1 3.7c1.2 0.6 2.3 1.3 3.5 1.9c0.2 0.1 0.6 0.2 0.7 0.1c0.2-0.1 0.2-0.5 0.2-0.7c0-0.3-0.1-0.6-0.2-1c0.2 0 0.3 0 0.4 0c1.6 0.7 3.2 1.4 4.8 2.2c1 0.5 1.9 1.1 2.8 1.6c0.7 0.5 1 0.3 1.2-0.5c0-0.7 0.2-1.3 0.3-2.1c1 0.6 2 0.9 2.9 1.5c1.5 0.9 2.9 2 4.3 2.9c0.3 0.2 0.7 0.2 1 0.3c0-0.3 0.2-0.5 0.1-0.8c0-0.5 0-1-0.1-1.7c1.3 0.8 2.4 1.5 3.4 2.2c1.5 1.2 2.9 2.5 4.4 3.7c0.2 0.2 0.6 0.2 0.9 0.4c0.1-0.3 0.3-0.6 0.3-0.9c0-0.6-0.1-1.2-0.2-1.9c0.7 0.5 1.4 0.8 2 1.3q3.2 2.4 6.4 4.8c0.2 0.2 0.6 0.3 0.7 0.3c0.2-0.2 0.3-0.5 0.3-0.8c0-0.5 0-1.1 0-1.7c0.3 0.1 0.4 0.1 0.5 0.2c0.8 0.8 1.6 1.5 2.3 2.3c1.1 1.3 2.1 2.7 3.2 4c0.2 0.3 0.4 0.6 0.6 0.8c0.2 0.1 0.7 0 0.8-0.1c0.3-0.3 0.4-0.8 0.6-1.3c0.5 0.7 0.9 1.3 1.4 1.8c0.5 0.6 1.1 1.1 1.5 1.6c1.2 1.4 2.2 2.9 3.4 4.3c0.2 0.2 0.6 0.4 0.8 0.4c0.3-0.2 0.5-0.6 0.7-0.9c0.1-0.2 0-0.5 0.1-0.9c0.8 1.1 1.5 2 2.2 3c0.9 1.2 1.8 2.4 2.8 3.5c0.5 0.5 1.2 1.1 1.9 1.2c0.7 0.1 1.2 0.3 1.8 0.7c0.6 0.6 1.4 1 2 1.6c0.8 0.8 1.7 1.3 2.6 1.8l-59.9-24.8l62.9 27.6q-0.5 0.1-1.1 0.2c-2.9 0.1-5.8 0.2-8.6 0.3c-0.4 0-0.7 0-0.8-0.5c-0.1-0.5-0.5-0.7-1.1-0.6c-1.3 0.2-2.6 0.6-4 0.8c-1.4 0.2-2.9 0.3-4.5 0.5c0.1-0.5 0.2-0.8 0.2-1c-0.1-0.3-0.2-0.6-0.4-0.8c-0.2-0.1-0.6 0-0.7 0.1c-2.3 1.6-4.8 1-7.4 1.1c0.4-1.4 0.2-1.5-1-1.5c-1.8 0-3.6 0-5.4 0c-1.3-0.1-2.6-0.4-3.8-0.9c0.2-0.4 0.4-0.8 0.7-1.2z" />
			</g>
			<g id="Clip-Path" clip-path="url(#cp8)">
				<path id="Layer" fill-rule="evenodd" class="s5" d="m258.1 106.2c-0.8 0.9-1.6 1.9-2.4 2.9c-3.8 4.3-8.1 8-12.9 11.2c-0.2 0.2-0.2 0.5-0.4 0.8c0.2 0 0.4 0.2 0.6 0.2c0.9 0.2 1.7 0.3 2.6 0.7c-1 0.6-2 1.2-3 1.7c-1.6 0.7-3.2 1.3-4.7 2c-0.3 0.1-0.5 0.4-0.7 0.6c0.2 0.1 0.4 0.3 0.7 0.4c0.6 0.3 1.2 0.4 2 0.7c-0.4 0.3-0.7 0.5-1.1 0.8c-2.4 1.5-4.9 2.8-7.6 3.5c-0.3 0-0.5 0.3-0.6 0.5c0 0.1 0.3 0.4 0.4 0.5c0.5 0.3 0.9 0.6 1.6 1c-1.4 0.7-2.6 1.3-3.8 1.9c-1.1 0.5-2.3 0.8-3.3 1.3c-0.4 0.1-0.7 0.5-1 0.8q0.4 0.3 0.9 0.6c0.1 0.1 0.2 0.1 0.6 0.3c-1.1 0.5-1.9 1-2.8 1.4q-1.3 0.5-2.6 0.9c-0.5 0.1-0.9 0.1-1.4 0.1c-0.5 0-1 0.1-1 0.6c0 0.3 0.4 0.6 0.6 0.9c0.3 0.2 0.6 0.3 1 0.7c-1.1 0.4-2.2 1-3.4 1.2c-1.3 0.3-2.7 0.2-4 0.3c-0.3 0.1-0.7 0.3-0.8 0.5c-0.1 0.2 0.1 0.6 0.3 0.9c0.4 0.4 0.8 0.7 1.3 1.1c-1.4 0.9-2.8 1.5-4.3 1.7c-1.2 0.1-2.4 0-3.6 0c-0.3 0-0.8 0.2-1 0.4c-0.1 0.1 0.1 0.6 0.2 0.9c0.2 0.4 0.5 0.8 0.8 1.3c-2.2 0.6-4.2 0.8-6.3 0c-0.3-0.1-0.9-0.1-1.2 0.1c-0.4 0.4 0 0.8 0.2 1.1c0.3 0.4 0.5 0.8 0.8 1.3c-1.3 0.4-2.5 0.7-3.8 0.8c-1.8 0-3.6 0-5.4 0c-1.2 0-1.4 0.1-1.1 1.5c-2.4-0.1-5 0.5-7.2-1.1c-0.2-0.1-0.6-0.2-0.7-0.1c-0.2 0.2-0.4 0.5-0.4 0.8c-0.1 0.3 0 0.5 0.1 1c-1.5-0.2-3-0.3-4.4-0.5c-1.4-0.2-2.7-0.6-4-0.8c-0.6-0.1-1 0.1-1.1 0.6c-0.1 0.5-0.4 0.5-0.7 0.5c-2.9-0.1-5.8-0.2-8.6-0.3q-0.6-0.1-1.1-0.2l62.6-27.4l-59.9 24.8c1-0.6 2-1.1 2.8-2c0.7-0.5 1.4-1 2.1-1.5c0.5-0.5 1-0.7 1.7-0.8c0.7-0.1 1.4-0.6 1.9-1.1c1-1.1 1.9-2.4 2.8-3.6c0.7-0.9 1.4-1.8 2.2-2.9c0 0.4 0 0.7 0.1 0.9c0.2 0.3 0.4 0.7 0.7 0.8c0.1 0.1 0.6-0.1 0.8-0.3c1.1-1.4 2.2-2.9 3.3-4.2c0.5-0.6 1-1.1 1.5-1.6c0.5-0.6 0.9-1.2 1.5-1.8c0.2 0.5 0.3 0.9 0.5 1.2c0.1 0.2 0.6 0.3 0.8 0.1c0.3-0.1 0.4-0.5 0.6-0.8c1.1-1.3 2.1-2.7 3.2-3.9c0.6-0.9 1.5-1.6 2.2-2.3c0.1-0.1 0.3-0.1 0.6-0.2c0 0.6-0.1 1.1 0 1.7c0 0.2 0.1 0.6 0.2 0.7c0.1 0.1 0.5 0 0.7-0.2q3.3-2.4 6.5-4.8c0.5-0.4 1.2-0.8 1.9-1.3c-0.1 0.7-0.2 1.3-0.2 1.9c0 0.3 0.2 0.6 0.3 0.9c0.3-0.2 0.7-0.2 0.9-0.4c1.5-1.2 2.9-2.5 4.4-3.7c1-0.7 2.1-1.3 3.3-2.1c0 0.7-0.1 1.1-0.1 1.6c0 0.3 0.1 0.6 0.2 0.8c0.3-0.1 0.7-0.1 0.9-0.2c1.5-1 2.8-2 4.3-3c0.9-0.5 1.9-0.9 2.9-1.4c0.1 0.7 0.2 1.4 0.3 2c0.1 0.8 0.5 1 1.2 0.6c0.9-0.6 1.8-1.2 2.7-1.6c1.6-0.8 3.2-1.5 4.8-2.2c0.1-0.1 0.2 0 0.4 0c-0.1 0.3-0.1 0.6-0.2 0.9c0 0.3 0.1 0.7 0.2 0.8c0.2 0.1 0.5 0 0.8-0.1c1.1-0.6 2.2-1.3 3.4-1.9q3.5-1.9 7-3.7c0.1 0 0.2 0 0.5 0c-0.2 0.7-0.3 1.3-0.4 1.9c-0.1 0.2 0 0.5 0 0.7c0.3 0 0.6 0.1 0.8 0c2.1-1.3 4.3-2.6 6.3-3.9c3.8-2.5 7.4-4.9 11.1-7.4q0.2-0.1 0.4-0.2q0.1 0.1 0.2 0.2z" />
			</g>
			<g id="Clip-Path" clip-path="url(#cp9)">
				<path id="Layer" fill-rule="evenodd" class="s6" d="m151.5 155.5q-0.7 0.2-1.4 0.4q-0.1-0.1-0.1-0.1q0.8-1.6 1.6-3.2c0.9-2 2-3.9 2.8-5.8c0.5-1.3 0.6-2.6 0.9-3.9c0.2-0.8 0.4-1.5 0.6-2.3c0.8 0.4 1.1 0.3 1.3-0.5q0.7-2.5 1.3-4.9q0.1-0.3 0.3-0.6c0.7 0.6 1.1 0.5 1.3-0.4c0.4-1.3 0.6-2.7 0.8-4.1c0.1-0.8 0.2-1.7 0.3-2.5c1 0.1 1.2 0 1.2-1.1c0.1-1.7 0.2-3.3 0.3-5c0.1-0.7 0.3-1.4 0.5-2.3c0.4 0.4 0.6 0.5 0.7 0.7c0.5 0.5 1 0.4 1.2-0.2q0.5-1.3 0.7-2.7c0.3-2.1 0.6-4.2 0.9-6.2c0.1-0.1 0.1-0.3 0.2-0.5c0.3 0.3 0.5 0.6 0.8 0.7c0.3 0.2 0.7 0.5 0.8 0.4c0.3-0.1 0.6-0.5 0.6-0.8q0.3-2.4 0.4-4.8c0.1-1.6 0-3.3 0-4.9c0-0.3 0.1-0.6 0.1-0.9q0.1 0 0.2-0.1q0.4 0.9 0.8 1.7c0.2 0.2 0.4 0.6 0.5 0.6c0.4 0 0.7-0.4 0.7-0.8c0.1-0.9 0.2-1.8 0.2-2.7c0.1-2.3 0.6-4.4 1.2-6.6c0.1-0.1 0.2-0.2 0.3-0.5c0.3 0.4 0.6 0.8 0.8 1.2c0.2 0.4 0.4 0.4 0.7 0.1c0.2-0.2 0.4-0.4 0.5-0.7c0.4-1.9 0.8-3.8 1.2-5.7c0.2-1 0.5-2 0.8-3q0.1 0 0.2 0c0.2 0.6 0.5 1.1 0.7 1.7c0.1 0.2 0.4 0.4 0.5 0.6c0.2-0.2 0.6-0.4 0.6-0.6c0.6-1.5 1-3 1.5-4.4c0.5-1.5 1.1-3 1.7-4.5q0.1 0 0.3 0c0.1 0.5 0.2 1.1 0.3 1.6c0.1 0.3 0.3 0.6 0.4 0.9c0.3-0.3 0.7-0.4 0.8-0.7c1.2-2.5 2.4-5 3.6-7.5c0-0.1 0-0.1 0.3-0.2q0.5 2 1.1 3.8q0.2 0.1 0.3 0.1q0.4-0.8 0.9-1.6c1.2-2.4 2.3-4.9 3.7-7.2c1.8-3.2 3.8-6.3 5.7-9.4c0.1-0.1 0.2-0.2 0.3-0.4c0 0.3 0 0.4 0 0.6c-0.3 2.1-0.7 4.3-0.9 6.5c-0.2 2.4-0.2 4.9-0.4 7.3c-0.2 1.5-0.5 3-0.7 4.4c-0.1 0.2 0 0.6 0.1 0.7c0.1 0 0.5 0 0.6-0.1c0.7-0.4 1.3-0.8 2-1.1c-0.7 2.4-1.5 4.6-2.7 6.8c-0.1 0.2-0.2 0.5-0.1 0.6c0.1 0.2 0.4 0.3 0.7 0.2c0.4 0 0.9-0.2 1.3-0.3c0.3 0.6-0.1 1.1-0.3 1.7c-0.4 1.1-0.7 2.2-1.1 3.3c-0.4 0.8-0.9 1.5-1.3 2.3c-0.1 0.2-0.2 0.5-0.2 0.7c0.1 0.1 0.4 0.2 0.7 0.2c0.3 0 0.7-0.1 1.3-0.2c-0.2 0.7-0.4 1.3-0.6 1.9c-0.9 2.1-2.1 4-3.6 5.7c-0.2 0.1-0.3 0.3-0.4 0.5c0 0.2 0 0.4 0.2 0.6c0 0.1 0.3 0.1 0.5 0.1c0.5-0.1 1-0.2 1.5-0.3c-0.1 1.3-0.7 2.3-1.4 3.2c-0.8 1-1.7 1.8-2.5 2.7c-0.3 0.4-0.7 0.8-1 1.3c-0.1 0.2-0.2 0.7 0 0.9c0.2 0.2 0.6 0.2 0.9 0.2c0.6-0.2 1.1-0.4 1.7-0.6c-0.1 1-0.5 1.8-1 2.6c-1.1 1.8-2.5 3.2-4.3 4.3c-0.1 0.1-0.2 0.2-0.3 0.3c-0.2 0.3-0.3 0.6-0.4 0.8c0.2 0.1 0.5 0.3 0.8 0.3c0.7 0 1.5-0.1 2.4-0.1c-1.4 2.7-3.4 4.7-5.5 6.5c-0.4 0.2-0.7 0.5-1 0.8c-0.1 0.2-0.1 0.5-0.1 0.8c0.1 0.1 0.5 0.2 0.7 0.1c0.6-0.1 1.3-0.2 1.9-0.4q0.1 0.1 0.2 0.2c-0.4 0.5-0.7 1.1-1.1 1.7c-1.3 1.7-3 2.8-5 3.8q-0.2 0.1-0.4 0.3c-0.4 0.4-0.3 0.7 0.2 0.9q0.7 0.2 1.4 0.4c0 0.1 0.1 0.1 0.3 0.3c-0.6 0.5-1.1 1.1-1.7 1.6c-1.2 1-2.6 1.8-4.1 2.4c-0.3 0-0.5 0.1-0.7 0.3c-0.1 0.2-0.3 0.4-0.3 0.7c0 0.1 0.3 0.3 0.5 0.4c0.4 0.1 0.8 0.2 1.4 0.4c-1.9 2.4-4 4.4-6.9 5.2c-0.2 0-0.4 0.1-0.5 0.2c-0.3 0.2-0.5 0.4-0.5 0.7c-0.1 0.1 0.3 0.3 0.5 0.5c0.2 0.1 0.4 0.2 0.6 0.3c0.2 0 0.4 0.2 0.7 0.3c-1.4 0.9-2.7 1.8-4 2.6c-1 0.5-2.1 0.9-3.2 1.3c-0.2 0.1-0.4 0.1-0.6 0.3q-0.6 0.5 0.1 1c0.1 0.1 0.3 0.2 0.4 0.3c0.3 0.3 0.4 0.5 0 0.7q-1.2 0.6-2.4 1.2c-0.6 0.3-1.2 0.6-1.8 0.8c-0.7 0.3-1.4 0.4-2 0.6c-0.3 0.2-0.7 0.3-0.8 0.6c-0.1 0.2 0.2 0.5 0.4 0.8c0 0 0.1 0.1 0.3 0.2c-1.8 0.6-3.5 1.5-5.2 2.2l36-65.2l-37.2 64.2z" />
			</g>
			<g id="Clip-Path" clip-path="url(#cp10)">
				<path id="Layer" fill-rule="evenodd" class="s4" d="m67.6 230.6c-7.3-6.9-13.8-14.8-19.2-23.5c74.9-15.6 159.4 16.7 159.4 16.7c-79.7-18.7-131.4 0.2-140.2 6.8z" />
			</g>
			<g id="Clip-Path" clip-path="url(#cp11)">
				<path id="Layer" fill-rule="evenodd" class="s7" d="m260 179c-4.3 14.3-11.2 27.4-20.2 38.8c-34.6-14.3-100.5-35.5-162.8-21.9c0 0 51-41.6 183-16.9z" />
			</g>
			<g id="Clip-Path" clip-path="url(#cp12)">
				<path id="Layer" fill-rule="evenodd" class="s4" d="m134.9 167.4c0 0-52 2.9-93.9 25.7c-4.9-11.1-8.2-23.1-9.4-35.6c24.2-0.9 63.6 0.3 103.3 9.9z" />
			</g>
			<g id="Clip-Path" clip-path="url(#cp13)">
				<path id="Layer" fill-rule="evenodd" class="s7" d="m214.4 240.9c0 0 0.1 0.2 0.3 0.5c-20.5 14.4-45.8 22.3-72.7 21c-25-1.3-47.7-10.3-66-24.6q0.6-0.2 1.3-0.4c73.1-24.2 137.1 3.5 137.1 3.5z" />
			</g>
			<g id="Clip-Path" clip-path="url(#cp14)">
				<path id="Layer" fill-rule="evenodd" class="s5" d="m263 157.5c-1 7.4-1.5 10.8-1.5 10.8c-43.8-9.8-101.8-0.9-101.8-0.9c39.6-9.6 79.1-10.8 103.3-9.9z" />
			</g>
			<g id="Clip-Path" clip-path="url(#cp15)">
				<path id="Layer" fill-rule="evenodd" class="s4" d="m1 145.6c0-80.2 65.2-145.2 145.7-145.2c80.4 0 145.6 65 145.6 145.2c0 80.3-65.2 145.3-145.6 145.3c-80.5 0-145.7-65-145.7-145.3zm12.4 0c0 73.4 59.7 132.9 133.3 132.9c73.5 0 133.2-59.5 133.2-132.9c0-73.3-59.7-132.8-133.2-132.8c-73.6 0-133.3 59.5-133.3 132.8z" />
			</g>
		</g>
	</g>
</svg>