<svg version="1.2" xmlns="http://www.w3.org/2000/svg" viewBox="0 0 1504 1689" width="1504" height="1689">
	<title>hive-logo-landscape-black-svg</title>
	<defs>
		<linearGradient id="g1" x1="172.9" y1="1424.2" x2="1332.7" y2="264.3" gradientUnits="userSpaceOnUse">
			<stop offset="0" stop-color="#2ab4ff"/>
			<stop offset="1" stop-color="#7fc6ce"/>
		</linearGradient>
		<linearGradient id="g2" x1="753" y1="1684.1" x2="753" y2="744.8" gradientUnits="userSpaceOnUse">
			<stop offset="0" stop-color="#2a85ff"/>
			<stop offset="1" stop-color="#ffffff"/>
		</linearGradient>
	</defs>
	<style>
		.s0 { fill: url(#g1) } 
		.s1 { opacity: .6;fill: #ffffff } 
		.s2 { opacity: .8;fill: url(#g2) } 
		.s3 { opacity: .1;fill: #ffffff } 
	</style>
	<g id="Layer">
		<path id="Layer" class="s0" d="m1424.4 1326.2l-590.9 341c-50.4 28.9-110.5 28.9-160.9 0l-593.3-343.4c-48.1-28.9-79.3-81.7-79.3-139.4v-682.2c0-55.2 31.2-110.5 79.3-139.3l593.3-341.1c50.4-28.8 110.5-28.8 160.9 0l590.9 341.1c48.1 28.8 79.3 81.7 79.3 139.3v684.6c0 57.7-28.8 110.5-79.3 139.4z" />
		<g id="Layer">
			<path id="Layer" class="s1" d="m1100.1 764.1l-266.6 153.7c-50.4 28.8-110.5 28.8-160.9 0l-269.1-153.7c-48-28.9-79.2-81.7-79.2-139.4v-307.4c0-57.7 28.8-110.5 79.2-139.3l269.1-156.2c50.4-28.8 110.5-28.8 160.9 0l266.6 156.2c48.1 28.8 79.3 81.6 79.3 139.3v307.4c0 57.7-28.8 110.5-79.3 139.4z" />
			<path id="Layer" class="s2" d="m1100.1 1508.7l-266.6 153.7c-50.4 28.9-110.5 28.9-160.9 0l-266.6-153.7c-48.1-28.8-79.3-81.7-79.3-139.3v-309.9c0-57.6 28.8-110.5 79.3-139.3l266.6-153.7c50.4-28.9 110.5-28.9 160.9 0l266.6 153.7c48.1 28.8 79.3 81.7 79.3 139.3v309.9c0 57.6-28.8 110.5-79.3 139.3z" />
			<path id="Layer" class="s3" d="m1424.4 951.4l-266.6 153.8c-50.4 28.8-110.5 28.8-160.9 0l-269.1-153.8c-48-28.8-79.2-81.6-79.2-139.3v-307.5c0-57.6 31.2-110.5 81.6-141.7l266.7-153.7c50.4-28.8 110.5-28.8 160.9 0l266.6 156.1c48.1 28.8 79.3 81.7 79.3 139.3v307.5c0 57.7-28.8 110.5-79.3 139.3z" />
			<path id="Layer" class="s1" d="m1422 1321.3l-266.6 153.8c-50.4 28.8-110.5 28.8-160.9 0l-266.7-153.8c-48-28.8-79.2-81.6-79.2-139.3v-307.4c0-57.7 31.2-110.5 81.6-139.4l266.7-153.7c50.4-28.8 110.5-28.8 160.9 0l266.6 153.7c48.1 28.9 79.3 81.7 79.3 139.4v309.8c0 57.7-28.8 110.5-81.7 136.9z" />
			<path id="Layer" class="s3" d="m775.9 951.4l-266.7 153.8c-50.4 28.8-110.5 28.8-160.9 0l-269-153.8c-48.1-28.8-79.3-81.6-79.3-139.3v-307.5c0-57.6 31.2-110.5 79.3-139.3l269-156.1c50.4-28.8 110.5-28.8 160.9 0l269.1 156.1c48 28.8 79.2 81.7 79.2 139.3v307.5c0 57.7-31.2 110.5-81.6 139.3z" />
			<path id="Layer" class="s1" d="m773.5 1321.3l-266.7 153.8c-50.4 28.8-110.5 28.8-160.9 0l-266.6-153.8c-48.1-28.8-79.3-81.6-79.3-139.3v-307.4c0-57.7 31.2-110.5 79.3-139.4l271.4-153.7c50.4-28.8 110.5-28.8 160.9 0l266.7 153.7c48 28.9 79.2 81.7 79.2 139.4v309.8c0 57.7-31.2 110.5-84 136.9z" />
		</g>
	</g>
	<g id="Layer">
		<g id="Layer">
		</g>
	</g>
</svg>