<svg version="1.2" xmlns="http://www.w3.org/2000/svg" viewBox="0 0 1371 1482" width="1371" height="1482">
	<title>highwoods-logo-trademark-svg</title>
	<style>
		.s0 { fill: #ffffff } 
		.s1 { fill: #11abf1 } 
	</style>
	<g id="#11abf1ff">
		<path id="Shape 1" class="s0" d="m9.6 1h1344v1480h-1344z"/>
		<path id="Layer" class="s1" d="m21.6 1.4c77.3-0.4 154.6 0 231.9-0.2 0.4 89.3 0.5 178.6-0.1 267.8-77.2-89.2-154.9-178-231.8-267.6zm641.7 0c19.8-0.1 39.7-0.2 59.6-0.2 0.4 27.4 0.6 55-0.5 82.5-19.4-27.6-39.6-54.7-59.1-82.3zm-350 135c-0.6-45-0.6-90.1-0.1-135.1 31.4-0.1 62.8-0.1 94.2 0.1-1.7 11.6 0.8 25.1-7.8 34.5-28.3 33.9-57.7 66.9-86.3 100.5zm171.8-135.1c34.4-0.1 68.7-0.1 103.1 0 44.2 60.9 90.2 120.5 135 180.9-0.2 39.7 0.3 79.5-0.5 119.2-79.3-91-158.9-181.8-238.1-272.9 0.2-9.1 0.3-18.1 0.5-27.2zm298.7 158.8c-0.4-52.9-0.2-105.8 0-158.8 24.2-0.1 48.3 0 72.5-0.3 56.9 71.2 112.7 143.4 169.5 214.7 7.8 10 16.3 21 15 34.5-0.1 73.7 0 147.3-0.2 221-87.2-102.3-170.7-207.8-256.8-311.1zm153.3-158.7c32.8-0.2 65.5-0.2 98.2 0 0 42.5 0.5 85-0.3 127.6-33.4-41.9-65.7-84.8-97.9-127.6zm157-0.2c64 0.2 127.9-0.2 191.8 0.2-63.3 73.6-127.5 146.5-191.7 219.3-0.4-73.2-0.1-146.3-0.1-219.5zm4.8 320.3c89.6-107.7 180.3-214.5 271-321.3 0.7 66.9 0.4 133.8 0.3 200.7 1.4 12.6-9.2 21.2-16.1 30.3-85.5 97.8-168.7 197.7-254.6 295.1-0.6-68.2 0.3-136.5-0.6-204.8zm-1095.7-253.5c80.7 93 161.4 186 242.1 279.1 11.2 10.1 8.1 25.7 8.7 39.1-0.6 61.4 0.1 122.7-0.5 184-80.5-93.4-160-187.8-240.8-281-13.3-13.3-10.5-33.5-11.6-50.7 0.6-56.8-1.1-113.7 2.1-170.5zm444.9 10c92.7 105.1 183 212.2 274.8 318 0.1 101 0.6 202.1 0.6 303-74.9-88.1-152-174.4-226.9-262.6 22.6-28.4 47.9-54.4 69.4-83.7-16.4-11.9-32.6-24-48.9-35.9-69.9 79.9-140.3 159.5-210.6 239.1-1.1-106.4 0-212.9-0.6-319.3 47.3-53 94.4-106.1 142.2-158.6zm337.3 173c79.2 98.1 156.5 197.9 235.4 296.2 6.6 9 15.5 17.9 15.3 29.9 1.8 57.9 0.3 116 4.2 173.8 1.4 11.8-7.5 20.8-14.2 29.2-65.4 74.4-130.4 149.2-195.5 223.9-13.6 17.1-28.7 32.9-44.7 47.7-2.4-107.2-0.2-214.5-1.2-321.9 48-56.6 100.5-109.3 146.4-167.7-14.2-11.2-28.2-22.7-41.6-34.8-36.8 37.8-68.6 80-104 118.9-1-131.8-0.9-263.5-0.1-395.2zm311.2 381.1c91.2-106.8 181.6-214.3 273.3-320.7 0.8 77.4 0.3 155 0.2 232.5-91.4 105.8-181.5 212.6-273.1 318.2-0.7-76.6-0.2-153.3-0.4-230zm-1095.2-262.7c84.8 95 166.6 192.5 250.9 287.9 0.6 65.4 4.3 130.9 1.8 196.3-80.9-95.2-163.5-188.7-244.9-283.4-5.5-6.4-9-14.3-7.8-22.9 3.1-59.2-2.1-118.6 0-177.9zm454.9 113.9c90.7 100.1 177.2 204 266.8 305.2-0.2 84.7 0.7 169.4-0.5 254.2-91.7-103.8-183.6-207.3-275.8-310.7-15.2 12.4-30.1 25.2-44.9 38.2 107.1 125.3 214.6 250.5 321.3 376.3-0.2 111.5 0.2 222.9-0.2 334.4-138.9-0.1-277.9-0.1-416.8 0-0.4-274.5 0-549.1-0.3-823.6 50-58.1 100.8-115.5 150.4-174zm-454.9 152.4c82.1 92.5 161.9 187.1 243.3 280.1 14.5 12.9 11 33.4 11.5 50.8-1.3 171.5 1.5 342.9-1.4 514.4-83.7 0-167.4-0.5-251 0.2-4.5-39.8-2.1-79.7-2.5-119.6 0.1-158.3 0.1-316.7 0-475 3.5-83.6-2.1-167.3 0.1-250.9zm1121.1 284.2c82.7-94 164.6-188.7 247.4-282.6 0.9 281.2 0.3 562.4 0.3 843.5-92 0.1-184 0-276.1 0-0.1-156.9 0.1-313.7 0-470.6 0.2-18.9-1.3-37.8 1.3-56.5 6.9-12.8 17.8-22.8 27.1-33.8zm-337.6 238.8c83.4-96.5 166.2-193.5 250.1-289.6 0.9 203.9 0.3 407.8 0.4 611.7-83.5 0.2-167 0-250.5 0 0-107.3 0-214.7 0-322.1z"/>
	</g>
</svg>