<svg version="1.2" xmlns="http://www.w3.org/2000/svg" viewBox="0 0 1558 431" width="1558" height="431">
	<title>Herbalife New 2023-svg</title>
	<style>
		.s0 { fill: #ffffff } 
	</style>
	<path id="Layer" class="s0" d="m1525.2 110.4q-13.9 13.4-29 25.6-12.8 10.4-24.3 22.2c-0.2 0.2-0.5 0.1-0.7-0.1q-8.1-12.4-11.9-26.5-2.8-10.5-2.7-20.2 0.3-18 9.7-34.2 3.9-6.7 8.1-12.4 3.7-4.8 9.7-11.1 16.2-16.8 34.5-31.3 12.4-9.9 23.4-21.3c0.3-0.3 0.8-0.2 1 0.1q4.2 7 7.4 14.4 3.4 8 5 15.4 6.9 31.9-13 59.4-8.4 11.6-17.2 20zm-147.5 46.8q-0.6-0.4-1.1-1-15.5-17.7-25.7-38.9-7.3-15-14.3-30.1-5-10.9-11.7-21.5c-0.3-0.3-0.1-0.8 0.3-0.9q17.6-5.6 36.3-4.3 12.9 1 25.4 7.7 15.1 8.1 25.7 21.5 6.4 8 11.5 16.9 10.2 17.5 18.5 36 6.9 15.4 16 31c0.3 0.5 0 1-0.5 1.2q-8.3 2.3-16.1 3.4-37.1 5.5-63.2-20.1-0.3-0.3-1.1-0.9zm95.9 119.6q-0.9 0.9-1.8 2c-0.4 0.4-1 0.3-1.3-0.2q-5.3-9.3-9.2-19.2-5.5-14.1-5.1-28.8 0.3-10 3.9-20 4.5-12.6 12.7-23.4 4.2-5.6 8.9-10.8 4-4.6 9.9-10 16.4-15.2 33.6-29.4 8.8-7.2 16.4-15.2c0.3-0.2 0.7-0.2 0.9 0.1q7.1 11.4 11 24.1 9.3 30.8-7.3 58.1-10.9 18-26.6 32-14.9 13.4-30.3 26.2-8.2 6.8-15.7 14.5z"/>
	<path id="Layer" fill-rule="evenodd" class="s0" d="m1185.7 225.7h47.8c0.5 0 0.9 0.5 0.9 1v37.2c0 0.5-0.3 0.9-0.8 0.9h-47.6c-0.4 0-0.8 0.3-0.8 0.8v157.4c0 0.8-0.6 1.3-1.3 1.3l-41.6-0.3c-0.6 0-1-0.4-1-1v-157.2c0-0.6-0.5-1-1-1h-28.9c-0.5 0-0.9-0.3-0.9-0.8l0.1-37.6c0-0.4 0.3-0.7 0.7-0.7h29c0.6 0 1-0.5 1-1q-0.2-20.5 0.3-40.2 0.2-9.1 3.7-19.8 5-15.5 19.4-22.3 3.7-1.7 8.3-3 3.9-1.1 8.7-1.6 10.7-1.3 25.3-1.3 18.1 0 37.1 0c0.5 0 0.9 0.4 0.9 0.9v40.2c0 0.5-0.5 1-1.1 1q-25.1 0.3-50.6 0.2 0 0-2.4-0.1-5.5-0.3-5.7 5.6-0.2 9.2 0 40.9c0 0.3 0.3 0.5 0.5 0.5zm-1140.7 78.1c-0.3 0-0.6 0.3-0.6 0.7v118.5c0 0.6-0.5 1.1-1.1 1.1h-42.2c-0.4 0-0.8-0.4-0.8-0.8v-275.5c0-0.4 0.3-0.8 0.8-0.8l42.2-0.2c0.6 0 1 0.5 1 1l0.1 115.2c0 0.2 0.2 0.5 0.5 0.5q51.1 0 101.4-0.2 1.9 0 3.8 0.4c0.5 0.1 1-0.3 1-0.8v-115.5c0-0.2 0.2-0.4 0.4-0.4h43.1c0.3 0 0.7 0.3 0.7 0.7v275.3c0 0.6-0.5 1.1-1.1 1.1h-42c-0.6 0-1.1-0.5-1.1-1.1v-118.4c0-0.5-0.3-0.8-0.8-0.8zm546.8-157.1q5.9-0.1 12.4 0c0.6 0 1 0.5 1 1q-0.5 58.4 0.1 117.2c0 0.4 0.1 0.7 0.4 0.8q1.6 0.9 2.7-0.1 0.6-0.5 1-2.1 3.8-13 11.1-22.9 17.7-24 46.6-26.9 9.8-0.9 20.5 0.9 40.1 6.8 59 44.3 4.9 9.8 7.9 20.9 2.3 9 3.4 20.2 3.2 34.8-6.9 68.1-3.5 11.6-10.1 23.2-7.7 13.8-19.6 23.5-8.1 6.7-17.5 10.7-15 6.3-30.5 5.2-36.2-2.6-54.8-33.2-6.2-10-9.4-23.3-0.6-2.6-3.6-1.4c-0.2 0.1-0.4 0.4-0.4 0.7l-0.1 49.6c0 0.5-0.4 0.9-0.9 0.9h-42.4c-0.3 0-0.6-0.2-0.6-0.6v-275.9c0-0.4 0.3-0.8 0.8-0.8q8.9 0 17.5 0.1 4.2 0 12.4-0.1zm104.4 123.3q-9.2-10.7-21.5-13.5-21.4-4.8-37.3 11.1-9 9-13.1 20-11.3 30.5-1.9 62.4 3.9 13.5 12.4 23.7 6.2 7.3 14.8 11.2 8.4 3.8 17.6 3.5 10-0.3 18.3-5.5 10.3-6.5 16.3-16.5 6.7-11.3 9.4-24.8 4.4-22.6-1.2-44.8-3.8-15.1-13.8-26.8zm84.7 137.4q-11.2-12-13.8-28.3-1-6.4-0.9-12.8 0.2-23.6 17.1-38.8 6.9-6.3 16.9-11 19.7-9.2 41.2-12.6 27.4-4.3 56.4-8.4c0.6-0.1 1-0.5 1-1.1q0-6.6-0.1-12.6-0.1-7.1-1.8-10.9-3.1-6.7-10.2-10.5-6.4-3.4-13-4.4-15-2.3-28.8 2.4-8.3 2.9-13.4 7.5-5.9 5.3-8.8 13.1c-0.2 0.6-0.8 0.9-1.3 0.8l-43.2-8.2c-0.8-0.2-1.2-0.8-1.1-1.5q4.7-23.1 22.5-37.9 7.9-6.7 19.6-11.3 21.7-8.8 47.3-8.3 20.7 0.4 37.8 8 29.4 13 36.7 43.1 1.4 5.7 1.5 14.4 0.6 44.4 0.2 88.7 0 6.4 0.6 9.9 0.5 3.5 3.4 5.2 1.7 1 5.6 1.2 14.4 0.4 28.9-0.1c0.3 0 0.5-0.2 0.5-0.5v-234.3c0-0.5 0.4-1 1-0.9l42.5 0.2c0.3 0 0.5 0.2 0.5 0.5l0.1 275.9c0 0.5-0.4 0.9-0.9 0.9q-32.1 0.1-63.8-0.3-10.4-0.1-19.7-3-8.5-2.6-13.4-9.1-3.8-5-5.8-14.4-2.2-10.3-1.7-20.9c0-0.3-0.1-0.6-0.4-0.7q-3-1.6-3.7 1.4-0.3 1-0.3 1.1-5.9 18.3-18.8 30.3-21.6 20.1-51.4 20.5-13.3 0.2-26.3-2.4-12.8-2.5-24.2-8.7-8.2-4.4-14.5-11.2zm37-29q5.1 4.1 10.8 5.7 20.2 5.4 39.8-2.8 31.8-13.2 29.8-48c0-0.4-0.4-0.7-0.8-0.7q-20.3 2.4-40.2 5.2-16.8 2.3-18.2 2.6-9.4 2.1-17.2 7-7.6 4.8-9.7 13.4-1.2 5.2 0.1 9.4 1.4 4.9 5.6 8.2zm230.2-226.9c0-0.6 0.4-1 1-1h42c0.5 0 1 0.4 1 1v50.4c0 0.6-0.5 1-1 1h-42c-0.6 0-1-0.4-1-1zm-773.5 227.8q6.8 4.7 14.9 6.7 10.4 2.6 21.7 2.1 25.2-1.2 38.6-21.7c0.2-0.3 0.7-0.5 1.1-0.4l40.5 12.2c0.5 0.2 0.7 0.7 0.5 1.1q-13.8 28.1-41.2 41.6-23 11.2-49.5 9.6-41.8-2.6-67.5-34.6-12.5-15.5-18.8-35.3-11.3-35.6-2.7-72 8.3-35 34.9-55.9 22-17.2 52.1-19.1 37.9-2.4 65.2 22.3 10.9 9.9 19.1 24.5 11.1 19.9 14.6 42.5 2.7 17.4 2.1 34.7c0 0.4-0.4 0.7-0.8 0.7h-142.6c-0.4 0-0.7 0.4-0.7 0.8q-0.2 16.1 7.6 28.6 4.3 7 10.9 11.6zm44-76.6q17.1 0 34.3 0c0.3 0 0.6-0.2 0.6-0.6q-0.5-23.3-17.2-36-8-6.1-18.5-8.5-14.2-3.1-28.2 0.8-10.6 3-18.1 9.3-14.4 12.1-15.5 33.7c-0.1 0.8 0.6 1.5 1.4 1.5q30.1-0.1 61.2-0.2zm947.1 96.5q-18.6-21.1-24.6-49.1-6.5-29.8-0.9-57.5 5.9-28.8 25.2-49.9 7-7.6 15.6-13.3 28.1-18.8 63-15.5 25 2.4 44.5 17.8 7.7 6.1 14.4 14.5 11.5 14.3 17.8 31.9 7.7 21.8 8.4 45.1 0.2 7.4 0 14.4c0 0.4-0.4 0.7-0.8 0.7h-142.8c-0.3 0-0.5 0.3-0.5 0.6q-0.1 15 6.6 27.4 3.8 7 10.6 12 5.7 4.3 14.1 6.8 18.6 5.8 38 0.2 15.9-4.7 24.1-18.5c0.4-0.7 1.2-1 2-0.8l40.1 12.2c0.5 0.1 0.7 0.7 0.5 1.2q-14.7 29.5-44 42.8-21.7 9.8-46.4 8.4-39.4-2.2-64.9-31.4zm58.7-96.5q9.4 0.2 39.8 0 1.3 0 8.8 0.2 4.5 0.2 8.8-0.2c0.4 0 0.7-0.4 0.7-0.8q-0.3-15-7.9-26.1-5.9-8.6-15.2-13.6-9.2-4.9-20.6-5.7-11.1-0.8-21.1 2.2-10.3 3-17.9 9.7-13.9 12.2-14.8 32.9c0 0.8 0.7 1.6 1.6 1.5q18.4-0.3 37.8-0.1zm-909.5-53.3q-0.1-9.7 0-19.8c0-0.6 0.5-1.1 1.1-1.1h42.3c0.4 0 0.7 0.3 0.7 0.7v41.2c0 0.3 0.3 0.6 0.6 0.6q2.4 0.4 3.5-0.8 0.1-0.2 1.4-2.9 8.7-19.3 24.8-32.3 8.2-6.5 18.3-9.1 4.9-1.2 14.3-1.2 9.9 0 19.7-0.2c0.3 0 0.5 0.2 0.5 0.5v41.5c0 0.5-0.4 1-0.9 1q-13 0-25.9 0-10.8 0-15.5 1.2-7.8 1.9-14.3 6.8-9.3 7-15.1 17.6-6.3 11.3-8.9 23.9-2.5 12.3-2.5 24.9 0.1 40.9-0.1 81.2c0 0.6-0.5 1.1-1.1 1.1l-41.8-0.2c-0.5 0-0.9-0.4-0.9-0.8q-0.5-76.9-0.1-154.1 0.1-6.5-0.1-19.7zm633.2-19.8c0-0.6 0.5-1 1-1h41.9c0.6 0 1 0.4 1 1v193.4c0 0.6-0.4 1-1 1h-41.9c-0.5 0-1-0.4-1-1z"/>
</svg>