<svg version="1.2" baseProfile="tiny-ps" xmlns="http://www.w3.org/2000/svg" viewBox="0 0 1563 427" width="1563" height="427">
	<title>HLIO_September_2021_Investor_Presentation_Morgan_Stanley_Conference-pdf-svg</title>
	<defs>
		<clipPath clipPathUnits="userSpaceOnUse" id="cp1">
			<path d="M-4159.39 -1375.89L4107.72 -1375.89L4107.72 3282.29L-4159.39 3282.29L-4159.39 -1375.89Z" />
		</clipPath>
	</defs>
	<style>
		tspan { white-space:pre }
		.shp0 { fill: #365072 } 
		.shp1 { fill: #78a9d1 } 
		.shp2 { fill: #ffffff } 
	</style>
	<g id="Clip-Path: Page 1" clip-path="url(#cp1)">
		<g id="Page 1">
			<path id="Path 9" fill-rule="evenodd" class="shp0" d="M521.43 322.67C520.87 322.67 520.57 322.45 520.57 322.02L520.57 287.94C520.57 287.94 505.46 287.94 504.94 287.94C504.38 287.94 504.08 287.73 504.08 287.3L504.08 280.27C504.08 279.88 504.38 279.66 504.94 279.66L549.42 279.66C550.02 279.66 550.28 279.88 550.28 280.27L550.28 287.3C550.28 287.73 550.02 287.94 549.42 287.94L533.79 287.94L533.79 322.02C533.79 322.45 533.53 322.67 532.93 322.67L521.43 322.67ZM570.69 279.88C570.69 279.45 570.95 279.23 571.55 279.23L609.79 279.23C610.39 279.23 610.69 279.45 610.69 279.88L610.69 286.91C610.69 287.3 610.39 287.51 609.79 287.51L584.12 287.51C584.12 287.51 583.56 287.51 583.56 287.94L583.56 296.53C583.56 296.53 583.56 296.96 584.12 296.96L605.78 296.96C606.38 296.96 606.77 296.96 606.77 297.56L606.77 304.59C606.77 305.02 606.77 305.24 605.78 305.24L584.12 305.24C584.12 305.24 583.56 305.24 583.56 305.67L583.56 314.64C583.56 314.64 609.23 314.64 609.79 314.64C610.39 314.64 610.69 314.64 610.69 315.33L610.69 322.36C610.69 322.79 610.39 323.01 609.79 323.01L571.55 323.01C570.95 323.01 570.69 322.79 570.69 322.36L570.69 279.88ZM633.9 312.66C633.51 312.06 633.21 311.36 633.08 310.63C632.86 309.86 632.69 309.04 632.56 308.26C632.56 307.4 632.56 306.36 632.56 305.15C632.56 303.95 632.56 302.57 632.56 300.93C632.56 299.33 632.56 297.86 632.56 296.66C632.56 295.45 632.56 294.5 632.56 293.64C632.69 292.86 632.86 292.09 633.08 291.31C633.21 290.58 633.51 289.89 633.9 289.2C635.4 285.7 638.2 282.81 641.78 281.22C645.87 279.28 650.43 278.37 655.04 278.54C659.47 278.37 663.95 279.28 667.96 281.04C671.27 282.51 674.07 284.97 675.88 288.07C675.88 288.51 675.88 288.72 675.45 288.85L665.89 292C665.46 292.26 664.9 292.09 664.68 291.65C663.82 290.23 662.62 289.07 661.15 288.16C657.49 286.35 653.1 286.35 649.44 288.16C647.98 288.98 646.9 290.19 646.21 291.65C646.21 292.09 646.21 292.43 645.82 292.95C645.74 293.51 645.74 294.07 645.82 294.63C645.74 295.45 645.74 296.31 645.82 297.13L645.82 304.81C645.74 305.67 645.74 306.53 645.82 307.4C645.74 307.96 645.74 308.52 645.82 309.08L646.21 310.37C646.9 311.84 648.02 313.05 649.44 313.87C653.1 315.63 657.49 315.63 661.15 313.87C662.62 312.96 663.78 311.75 664.68 310.37C665.03 310.07 665.59 310.07 665.89 310.37L675.45 313.52C676.01 313.52 676.18 313.52 675.88 314.3C674.07 317.36 671.27 319.82 667.96 321.33C663.95 323.14 659.47 324 655.04 323.87C650.43 323.96 645.91 323.05 641.78 321.2C638.07 319.43 635.28 316.37 633.9 312.66ZM697.8 279.88C697.8 279.45 698.05 279.23 698.66 279.23L709.81 279.23C710.33 279.23 710.63 279.45 710.63 279.88L710.63 296.23C710.63 296.23 710.63 296.57 711.19 296.57L730.56 296.57C730.95 296.57 731.17 296.57 731.17 296.23L731.17 279.88C731.17 279.45 731.47 279.23 732.03 279.23L743.18 279.23C743.78 279.23 744.08 279.45 744.08 279.88L744.08 322.02C744.08 322.45 743.78 322.67 743.18 322.67L732.03 322.67C731.47 322.67 731.17 322.45 731.17 322.02L731.17 305.28C731.17 305.28 731.17 304.9 730.56 304.9L711.19 304.9C710.8 304.9 710.63 304.9 710.63 305.28L710.63 322.02C710.63 322.45 710.33 322.67 709.81 322.67L698.66 322.67C698.05 322.67 697.8 322.45 697.8 322.02L697.8 279.88ZM769.01 279.88C769.01 279.45 769.27 279.23 769.87 279.23L780.77 279.23C781.28 279.19 781.84 279.45 782.19 279.88L803.24 307.18L803.72 307.18L803.72 279.88C803.72 279.45 803.98 279.23 804.58 279.23L814.44 279.23C815.04 279.23 815.34 279.45 815.34 279.88L815.34 322.02C815.34 322.45 815.04 322.67 814.44 322.67L804.06 322.67C803.46 322.67 802.94 322.45 802.51 322.02L780.77 294.76L780.77 322.02C780.77 322.45 780.47 322.67 779.91 322.67L769.96 322.67C769.44 322.67 769.14 322.45 769.14 322.02L769.01 279.88ZM861.8 323.36C857.15 323.48 852.46 322.58 848.2 320.77C844.49 319.21 841.61 316.37 840.06 312.83C839.67 312.1 839.46 311.36 839.24 310.59C839.03 309.81 838.85 308.99 838.77 308.17C838.77 307.27 838.77 306.23 838.77 305.11C838.77 303.95 838.77 302.57 838.77 300.93C838.77 299.33 838.77 297.91 838.77 296.79C838.77 295.67 838.77 294.63 838.77 293.72C838.85 292.9 839.03 292.09 839.24 291.31C839.46 290.53 839.67 289.8 840.06 289.07C841.61 285.53 844.49 282.68 848.2 281.22C852.46 279.32 857.11 278.41 861.8 278.54C866.5 278.41 871.15 279.32 875.41 281.22C879.07 282.68 882 285.53 883.46 289.07C883.85 289.8 884.15 290.53 884.37 291.31C884.62 292.09 884.75 292.9 884.8 293.72C884.8 294.63 884.8 295.62 884.8 296.79C884.8 297.99 884.8 299.33 884.8 300.93C884.8 302.57 884.8 303.95 884.8 305.11C884.8 306.23 884.8 307.27 884.8 308.17C884.75 308.99 884.62 309.81 884.37 310.59C884.15 311.32 883.85 312.1 883.46 312.83C882 316.37 879.07 319.21 875.41 320.77C871.15 322.58 866.5 323.48 861.8 323.36ZM861.8 315.07C863.91 315.16 865.94 314.73 867.83 313.82C869.34 313 870.46 311.8 871.15 310.29C871.36 309.86 871.49 309.42 871.53 308.95C871.53 308.48 871.53 307.91 871.92 307.14C871.96 306.28 871.96 305.46 871.92 304.59C871.92 303.56 871.92 302.35 871.92 300.93C871.92 299.55 871.92 298.34 871.92 297.3C871.92 296.23 871.92 295.41 871.92 294.67C871.92 293.98 871.92 293.42 871.53 292.95C871.49 292.47 871.36 292 871.15 291.61C870.46 290.1 869.34 288.85 867.83 288.07C865.94 287.17 863.91 286.74 861.8 286.82C859.69 286.74 857.63 287.17 855.77 288.07C854.27 288.85 853.06 290.1 852.37 291.61L851.99 292.95C851.9 293.51 851.9 294.11 851.99 294.67C851.9 295.54 851.9 296.44 851.99 297.3L851.99 304.33C851.9 305.15 851.9 306.02 851.99 306.84C851.9 307.44 851.9 308.04 851.99 308.69L852.37 310.03C853.11 311.49 854.27 312.75 855.77 313.52C857.58 314.51 859.69 315.07 861.8 315.07ZM908.61 279.88C908.61 279.45 908.91 279.23 909.47 279.23L920.58 279.23C921.18 279.23 921.44 279.45 921.44 279.88L921.44 313.95C921.44 313.95 921.44 314.38 922 314.38L948.31 314.38C948.87 314.38 949.17 314.56 949.17 314.99L949.17 322.02C949.17 322.45 948.87 322.67 948.31 322.67L909.47 322.67C908.91 322.67 908.61 322.45 908.61 322.02L908.61 279.88ZM992.18 323.36C987.49 323.48 982.84 322.58 978.53 320.77C974.96 319.21 972.03 316.37 970.48 312.83C970.14 312.1 969.88 311.32 969.62 310.59C969.4 309.77 969.23 308.99 969.1 308.17C969.1 307.27 969.1 306.23 969.1 305.11C969.1 303.95 969.1 302.57 969.1 300.93C969.1 299.33 969.1 297.91 969.1 296.79C969.1 295.67 969.1 294.63 969.1 293.72C969.23 292.9 969.4 292.09 969.62 291.31C969.84 290.53 970.14 289.8 970.48 289.07C972.03 285.53 974.96 282.68 978.53 281.22C982.84 279.32 987.49 278.41 992.18 278.54C996.88 278.41 1001.57 279.32 1005.83 281.22C1009.45 282.73 1012.33 285.53 1013.93 289.07C1014.27 289.8 1014.53 290.53 1014.7 291.31C1014.96 292.09 1015.13 292.9 1015.26 293.72C1015.26 294.63 1015.26 295.62 1015.26 296.79C1015.26 297.99 1015.26 299.33 1015.26 300.93C1015.26 302.57 1015.26 303.95 1015.26 305.11C1015.26 306.23 1015.26 307.27 1015.26 308.17C1015.13 308.99 1014.96 309.77 1014.7 310.59C1014.53 311.32 1014.23 312.1 1013.93 312.83C1012.33 316.37 1009.45 319.21 1005.83 320.77C1001.53 322.58 996.88 323.48 992.18 323.36ZM992.18 315.07C994.29 315.16 996.32 314.73 998.25 313.82C999.72 313 1000.92 311.8 1001.57 310.29L1002 308.95C1002.04 308.35 1002.04 307.74 1002 307.14C1002 306.4 1002 305.59 1002 304.59C1002 303.6 1002 295.67 1002 294.98C1002.04 294.37 1002.04 293.81 1002 293.21L1001.57 291.87C1000.92 290.36 999.76 289.11 998.25 288.38C996.32 287.47 994.29 287.04 992.18 287.08C990.07 287 988.01 287.43 986.15 288.38C984.69 289.11 983.48 290.36 982.84 291.87C982.67 292.3 982.45 292.73 982.36 293.21C982.36 293.72 982.36 294.28 982.36 294.98C982.36 295.67 982.36 296.57 982.36 297.56C982.36 298.55 982.36 299.81 982.36 301.23C982.36 302.61 982.36 303.82 982.36 304.9C982.28 305.71 982.28 306.58 982.36 307.4C982.36 308.17 982.36 308.73 982.36 309.25C982.45 309.68 982.67 310.16 982.84 310.59C983.48 312.1 984.69 313.31 986.15 314.08C988.09 314.9 990.12 315.25 992.18 315.07ZM1039.12 312.83C1038.73 312.1 1038.43 311.32 1038.21 310.59C1038 309.77 1037.82 308.99 1037.69 308.17C1037.69 307.27 1037.69 306.23 1037.69 305.11C1037.69 303.95 1037.69 302.57 1037.69 300.93C1037.69 299.33 1037.69 297.91 1037.69 296.79C1037.69 295.67 1037.69 294.63 1037.69 293.72C1037.82 292.9 1038 292.09 1038.21 291.31C1039.59 286.82 1042.82 283.11 1047.17 281.13C1051.52 279.28 1056.25 278.41 1060.99 278.54C1063.57 278.5 1066.11 278.71 1068.57 279.23C1070.68 279.62 1072.7 280.27 1074.64 281.22C1076.32 281.91 1077.91 282.86 1079.25 284.06C1080.45 285.14 1081.44 286.39 1082.17 287.82C1082.17 288.25 1082.17 288.51 1081.83 288.72L1072.4 291.61C1072.05 291.83 1071.58 291.83 1071.19 291.61C1070.12 290.14 1068.74 288.98 1067.06 288.25C1065.21 287.38 1063.1 287.04 1060.99 287.08C1058.88 287 1056.68 287.43 1054.75 288.42C1053.24 289.2 1052.12 290.45 1051.47 291.96C1051.26 292.39 1051.09 292.82 1050.96 293.29C1050.96 293.77 1050.96 294.33 1050.96 295.06C1050.91 295.92 1050.91 296.79 1050.96 297.65C1050.96 298.64 1050.96 299.81 1050.96 301.23C1050.96 302.61 1050.96 303.82 1050.96 304.9C1050.91 305.71 1050.91 306.58 1050.96 307.4C1050.96 308.17 1050.96 308.73 1050.96 309.25C1051.09 309.68 1051.26 310.16 1051.47 310.59C1052.12 312.1 1053.24 313.31 1054.75 314.08C1056.77 314.99 1058.92 315.42 1061.16 315.33C1063.18 315.38 1065.25 314.94 1067.1 314.17C1068.74 313.56 1069.99 312.36 1070.68 310.85C1070.89 310.29 1071.11 309.64 1071.19 309.04C1071.28 308.22 1071.28 307.4 1071.19 306.58C1071.19 306.58 1063.23 306.58 1062.71 306.58C1062.19 306.58 1061.89 306.36 1061.89 305.93L1061.89 299.76C1061.89 299.33 1062.19 299.12 1062.71 299.12L1083.25 299.12C1083.85 299.12 1084.11 299.33 1084.11 299.76L1084.11 303.34C1084.11 305.15 1083.98 307.01 1083.72 308.82C1083.64 310.29 1083.21 311.75 1082.6 313.09C1081.05 316.67 1078.21 319.52 1074.59 321.2C1070.29 323.14 1065.68 324.13 1060.9 324C1056.17 324.13 1051.47 323.23 1047.12 321.37C1043.38 319.69 1040.49 316.63 1039.12 312.83ZM1107.53 279.88C1107.53 279.45 1107.53 279.23 1108.52 279.23L1119.63 279.23C1120.19 279.23 1120.49 279.45 1120.49 279.88L1120.49 322.02C1120.49 322.45 1120.19 322.67 1119.63 322.67L1108.52 322.67C1107.84 322.67 1107.53 322.67 1107.53 322.02L1107.53 279.88ZM1145.42 279.88C1145.42 279.45 1145.73 279.23 1146.29 279.23L1184.52 279.23C1185.12 279.23 1185.43 279.45 1185.43 279.88L1185.43 286.91C1185.43 287.3 1185.12 287.51 1184.52 287.51L1158.86 287.51C1158.51 287.51 1158.34 287.51 1158.34 287.94L1158.34 296.53C1158.34 296.53 1158.34 296.96 1158.86 296.96L1180.22 296.96C1180.82 296.96 1181.12 297.13 1181.12 297.56L1181.12 304.59C1181.12 305.02 1180.82 305.24 1180.22 305.24L1158.86 305.24C1158.51 305.24 1158.34 305.24 1158.34 305.67L1158.34 314.64C1158.34 314.64 1184 314.64 1184.52 314.64C1185.12 314.64 1185.43 314.64 1185.43 315.33L1185.43 322.36C1185.43 322.79 1185.12 323.01 1184.52 323.01L1146.29 323.01C1145.73 323.01 1145.42 322.79 1145.42 322.36L1145.42 279.88ZM1228.57 323.36C1224.13 323.31 1219.66 322.75 1215.31 321.59C1213.5 321.07 1211.69 320.42 1209.88 319.69C1208.38 319.09 1207 318.31 1205.71 317.4C1205.15 317.4 1205.15 316.67 1205.71 316.33L1212.29 310.76C1212.68 310.46 1213.28 310.46 1213.63 310.76C1215.91 312.06 1218.32 313.09 1220.86 313.87C1223.62 314.82 1226.59 315.29 1229.56 315.29C1232.01 315.42 1234.47 314.9 1236.79 313.82C1238.21 313.13 1239.16 311.67 1239.16 310.07C1239.16 308.78 1238.47 307.57 1237.27 306.92C1234.99 305.89 1232.57 305.33 1230.03 305.24L1226.85 305.24C1221.94 305.02 1217.12 303.64 1212.9 301.23C1209.71 299.29 1207.9 295.84 1208.03 292.21C1207.99 290.32 1208.5 288.42 1209.5 286.74C1210.57 285.05 1211.99 283.63 1213.76 282.6C1215.82 281.35 1218.02 280.44 1220.39 279.88C1223.27 279.23 1226.24 278.93 1229.17 278.93C1232.92 278.93 1236.71 279.36 1240.37 280.14C1243.51 280.83 1246.52 281.95 1249.41 283.46C1249.93 283.46 1249.97 284.06 1249.41 284.45L1244.07 290.27C1243.68 290.58 1243.17 290.58 1242.78 290.27C1240.63 289.24 1238.34 288.42 1236.06 287.82C1233.65 287.21 1231.24 286.95 1228.83 286.95C1226.72 286.87 1224.61 287.3 1222.8 288.29C1221.59 289.02 1220.82 290.27 1220.73 291.65C1220.82 292.99 1221.64 294.2 1222.84 294.76C1225.13 295.84 1227.62 296.44 1230.08 296.53L1233.26 296.53C1238.21 296.74 1242.99 298.17 1247.26 300.58C1250.31 302.61 1252.12 306.02 1252.04 309.64C1252.04 311.58 1251.48 313.48 1250.53 315.12C1249.41 316.93 1247.9 318.44 1246.05 319.47C1243.81 320.81 1241.4 321.76 1238.82 322.32C1235.5 323.05 1232.01 323.4 1228.57 323.36ZM541.67 115.94L541.67 159.84L628.47 159.84L628.47 115.94L668.69 115.94L668.69 238.6L628.95 238.6L628.95 194.26L542.18 194.26L542.18 238.6L501.84 238.6L501.84 115.94L541.67 115.94ZM864.26 115.94L864.26 144.79L762.38 144.79L762.38 162.65L859.13 162.65L859.13 189.69L762.38 189.69L762.38 209.19L865.03 209.19L865.03 238.6L724.62 238.6L724.62 115.94L864.26 115.94ZM955.37 115.94L955.37 207.29L1045.06 207.29L1045.06 238.56L914.94 238.56L914.94 115.94L955.37 115.94ZM1091.65 115.94L1132.21 115.94L1132.21 238.6L1091.65 238.6L1091.65 115.94Z" />
			<path id="Path 10" fill-rule="evenodd" class="shp0" d="M1346.12 122.62C1355.76 129.61 1358.65 142.07 1358.65 177.27C1358.65 212.46 1355.76 224.93 1346.12 232.09C1336.56 239.25 1324.42 240.5 1272.32 240.5C1220.22 240.5 1207.26 239.25 1197.74 232.09C1188.14 224.93 1185.21 212.55 1185.21 176.49C1185.21 142.29 1188.05 129.78 1197.74 122.62C1207.39 115.42 1219.44 114.08 1271.89 114.08C1324.37 114.08 1336.43 115.59 1346.12 122.62ZM1226.72 153.68C1224.35 157.95 1223.62 164.89 1223.62 180.59C1223.62 196.25 1224.82 200.82 1229.3 204.31C1233.78 207.85 1240.5 208.67 1272.66 208.67C1304.87 208.67 1309.78 207.98 1314.9 204.31C1320.02 200.69 1320.5 195.6 1320.5 180.72C1320.5 162.52 1319.38 155.57 1315.98 151.48C1312.58 147.42 1307.49 145.91 1272.62 145.91C1234.08 145.87 1230.46 146.43 1226.72 153.59L1226.72 153.68Z" />
			<path id="Path 11" class="shp0" d="M1444.38 197.93C1444.38 204.96 1445.15 207.68 1448.25 209.53C1451.26 211.34 1455.96 212.12 1483 212.12C1524.29 212.12 1524.29 212.12 1524.29 201.29C1524.29 194.26 1521.45 192.11 1509.13 191.89L1478.86 190.77L1458.41 189.86L1448.25 189.86C1416.9 188.92 1408.25 181.19 1408.25 154.15C1408.25 130.77 1415.05 120.29 1432.45 116.63C1450.71 114.56 1469.13 113.78 1487.52 114.38C1524.29 114.38 1537.51 116.07 1546.47 121.98C1553.66 126.89 1557.06 134.7 1557.06 149.15C1557.06 149.92 1557.06 152.47 1557.06 154.84L1519.86 154.84C1519.51 147.81 1518.91 146.43 1516.07 144.75C1513.31 143.07 1508.14 142.55 1480.89 142.55C1448.38 142.55 1445.71 143.33 1445.71 152.34C1445.71 156.91 1447.35 159.37 1451.31 160.19C1464.74 161.87 1478.31 162.61 1491.87 162.43C1533.55 163.73 1541.64 164.63 1549.7 169.46C1557.83 174.34 1561.58 183.05 1561.58 199.91C1561.58 220.96 1556.33 231.74 1543.19 236.49C1535.62 239.25 1519.68 240.16 1482.05 240.16C1442.87 240.16 1427.5 238.56 1418.67 233.12C1409.76 227.73 1407.09 220.62 1407.09 203.71L1407.09 197.8L1444.38 197.93Z" />
			<path id="Path 12" class="shp1" d="M218.82 426.65C97.96 426.65 -0.04 331.42 -0.04 213.93C-0.04 96.48 97.96 1.25 218.82 1.25L218.82 426.65Z" />
			<path id="Path 13" class="shp0" d="M218.82 1.25L219.25 1.25C340.11 1.25 438.07 96.48 438.07 213.93C438.07 331.42 340.11 426.65 219.25 426.65L218.82 1.25Z" />
			<path id="Path 14" class="shp2" d="M144.55 112.06L144.55 187.23L293.05 187.23L293.05 112.06L362.03 112.06L362.03 321.89L293.05 321.89L293.05 246.06L144.55 246.06L144.55 321.89L75.61 321.89L75.61 112.06L144.55 112.06Z" />
		</g>
	</g>
</svg>