<svg version="1.2" xmlns="http://www.w3.org/2000/svg" viewBox="0 0 1514 1511" width="1514" height="1511">
	<title>halma-logo-svg</title>
	<defs>
		<linearGradient id="g1" x1="23225.2" y1="4272.2" x2="1928.5" y2="7177.8" gradientUnits="userSpaceOnUse">
			<stop offset="0" stop-color="#29d2dc"/>
			<stop offset="100" stop-color="#80f156"/>
		</linearGradient>
		<linearGradient id="g2" x1="5523.8" y1="6867.2" x2="21970.1" y2="13529.5" gradientUnits="userSpaceOnUse">
			<stop offset="0" stop-color="#a7ff18"/>
			<stop offset="100" stop-color="#5dae00"/>
		</linearGradient>
		<linearGradient id="g3" x1="5047.5" y1="7555" x2="5047.5" y2="22996" gradientUnits="userSpaceOnUse">
			<stop offset="0" stop-color="#9fffce"/>
			<stop offset="100" stop-color="#c8fd5a"/>
		</linearGradient>
	</defs>
	<style>
		.s0 { fill: url(#g1) } 
		.s1 { fill: url(#g2) } 
		.s2 { fill: url(#g3) } 
		.s3 { fill: #63fbf5 } 
	</style>
	<g id="📤-Styleguide-to-Build">
		<g id="logo">
			<g id="Layer">
				<g id="UI-Kit/Logos/circle">
					<g id="logo">
						<path id="Fill-10" fill-rule="evenodd" class="s0" d="m0.9 743.5c6.6-411.3 342.6-742.8 756.1-742.8 202.3 0 386 79.3 521.7 208.5-39.1-35-90.8-56.3-147.4-56.3-122 0-220.8 98.7-220.8 220.5 0 58.5 22.8 111.6 60 151.1-56.2-51.7-131.1-83.3-213.5-83.3-171.4 0-310.8 136.6-315 306.7-4.2-118.1-101.4-212.5-220.7-212.5-117.8 0-214 92.1-220.4 208.1z"/>
						<path id="Combined-Shape" fill-rule="evenodd" class="s1" d="m1.2 737.9c6.8-113.4 102.8-203.4 220.2-203.4 120.3 0 218.1 94.4 220.5 211.8q0.1 0.8 0.1 1.6 0 0.6 0 1.2 0 0.8 0 1.6 0 3-0.1 5.9 0 3.6 0.1 7.2c4.2 170.1 143.6 306.7 315 306.7 83.8 0 160-32.7 216.4-85.9-36.1 39.2-58.1 91.5-58.1 149 0 121.8 98.9 220.5 220.8 220.5 57.7 0 110.2-22.1 149.5-58.2-136.3 133.1-322.9 215.1-528.6 215.1-413.5 0-749.5-331.4-756.1-742.8q-0.1-6.1-0.2-12.3 0.1-6.2 0.2-12.4 0.1-2.8 0.3-5.6z"/>
						<path id="Combined-Shape" fill-rule="evenodd" class="s2" d="m1212.8 1340.4c-24.2 9.2-50.5 14.3-77.9 14.3-121.4 0-219.8-98.7-219.8-220.3 0-20.2 2.7-39.7 7.8-58.3 9.3-34.6 26.9-65.9 50.5-91.5q1.8-1.8 3.6-3.5 2.8-2.9 5.6-5.6 2-2 3.9-4.1c53.1-56.3 85.6-132.1 85.6-215.5 0-84.9-33.7-161.9-88.4-218.5 39.1 35.1 90.9 56.5 147.6 56.5 121.9 0 220.8-98.8 220.8-220.5 0-58.4-22.7-111.5-59.8-150.9 136.5 136.6 220.9 325.1 220.9 533.4 0 204.7-81.6 390.5-214.1 526.5q-6.7 6.8-13.5 13.5c-20.9 19.2-45.6 34.5-72.8 44.5z"/>
						<path id="Fill-13" fill-rule="evenodd" class="s3" d="m1131.4 151.8c57 0 109 21.4 148.3 56.6q6.9 6.5 13.7 13.3c37.3 39.6 60.2 93 60.2 151.6 0 122.3-99.5 221.5-222.2 221.5-57.1 0-109.1-21.4-148.4-56.7q-6.5-6.7-13.4-13c-37.4-39.6-60.3-93-60.3-151.8 0-122.3 99.4-221.5 222.1-221.5z"/>
					</g>
				</g>
			</g>
		</g>
	</g>
</svg>