<svg version="1.2" xmlns="http://www.w3.org/2000/svg" viewBox="0 0 1086 1043" width="1086" height="1043">
	<title>HLTH_BIG copy-svg</title>
	<style>
		.s0 { fill: #424242 } 
	</style>
	<path id="Layer" fill-rule="evenodd" class="s0" d="m543 0.6h534.2c9.4 0 8.7 0.1 8.7 8.7c-0.1 186.4-0.1 372.9-0.1 559.3v463.1c0 1.9 0 3.8-0.2 5.8c-0.5 3.5-1.5 4.4-5 4.6c-0.6 0-1.3 0-1.9 0h-1069.2c-9 0-9.4-0.4-9.4-9.6c0-2.7 0-1025.4 0-1028.2q0-3.5 3.5-3.6q2.7 0 5.4 0c178-0.1 356-0.1 534-0.1zm0.1 479.1c1 0 449 0 449.9 0c3.6-0.3 4.9-1.4 5.4-5q0.2-1.1 0.3-2.2q0.1-1.2 0.2-2.3q0-1.2 0.1-2.3q0-1.1 0-2.3c0.1-123.8 0.1-247.7 0.1-371.6c0-1.3 0.1-2.6-0.1-3.8c-0.4-3.9-2.7-6-6.6-6.2c-2.5-0.1-4.9 0-7.3 0h-884.8c-2.5 0-4.9-0.1-7.3 0.1c-3.3 0.2-5.7 2.6-6.2 5.8c-0.1 1.1-0.1 2.3-0.1 3.4q0 185.5 0.1 371.1c0 2.5 0.2 5.1 0.4 7.7c0.6 6.7 1.7 7.7 8.3 7.7c149.3-0.1 298.4-0.1 447.6-0.1zm-0.2 478.5c0.6 0 448.8 0 449.5 0c4.6-0.2 6.1-1.5 6.4-6c0.2-2.2 0.3-4.5 0.3-6.8v-367.2c0-2.9-0.1-5.8-0.2-8.7c-0.3-5.2-1.5-6.4-6.9-6.5c-1.9 0-3.9 0-5.8 0h-889.8c-1.3 0-2.7 0-3.9 0.1c-3.7 0.3-4.9 1.6-5.2 5.1c-0.2 3.2-0.5 6.4-0.5 9.6c0 122.5 0 244.9 0 367.3c0 2.8 0.3 5.4 0.6 8.1c0.4 3.2 1.7 4.5 5 4.9c1.1 0.1 2.3 0 3.4 0c149 0.1 298 0.1 447.1 0.1z" />
</svg>