<svg version="1.2" xmlns="http://www.w3.org/2000/svg" viewBox="0 0 1538 282" width="1538" height="282">
	<title>hrv_logo_rgb-d47241b0de0625b94715c3963a9a88b69a7684d1c082af93c436671f6b4407ab-svg</title>
	<style>
		.s0 { fill: #000000 } 
		.s1 { fill: #005192 } 
	</style>
	<g id="hannover_re_xA9_">
		<g id="Layer">
			<path id="Layer" class="s0" d="m30.8 0h17.6l-15.4 137.5h1.1c8.8-18.7 28.6-34.1 49.5-34.1 41.8 0 47.3 36.3 42.9 72.6l-11 100.1h-17.6l11-99c3.3-27.5 0-53.9-27.5-53.9-26.4 0-49.5 23.1-55 69.3l-9.9 84.7h-16.5z"/>
			<path id="Layer" fill-rule="evenodd" class="s0" d="m268.4 205.7c-3.3 33-5.5 51.7-5.5 70.4h-16.5c0-8.8 0-17.6 1.1-27.5h-1.1c-12.1 22-28.6 31.9-50.6 31.9-23.1 0-46.2-14.3-41.8-50.6 5.5-51.7 55-56.1 81.4-56.1h20.9l1.1-9.9c3.3-29.7-12.1-40.7-33-40.7-15.4 0-29.7 6.6-42.9 18.7l-8.8-15.4c14.3-15.4 36.3-24.2 53.9-24.2 33 0 51.7 18.7 47.3 60.5zm-34.1-14.3c-29.7 0-59.4 8.8-62.7 38.5-2.2 20.9 12.1 31.9 27.5 31.9 37.4 0 50.6-29.7 53.9-58.3l1.1-11zm79.2-36.3c1.1-12.1 3.3-38.5 4.4-47.3h17.6c-1.1 12.1-2.2 26.4-2.2 29.7h1.1c8.8-18.7 28.6-34.1 49.5-34.1 41.8 0 47.3 36.3 42.9 72.6l-11 100.1h-17.6l11-99c3.3-27.5 0-53.9-27.5-53.9-26.4 0-49.5 23.1-55 69.3l-9.9 84.7h-17.6zm155.1 0c1.1-12.1 3.3-38.5 4.4-47.3h17.6c-1.1 12.1-2.2 26.4-2.2 29.7h1.1c8.8-18.7 28.6-34.1 49.5-34.1 41.8 0 47.3 36.3 42.9 72.6l-11 100.1h-17.6l11-99c3.3-27.5 0-53.9-27.5-53.9-26.4 0-49.5 23.1-55 69.3l-9.9 84.7h-17.6zm224.4-51.7c41.8 0 67.1 37.4 61.6 89.1-5.5 51.7-39.6 89.1-81.4 89.1-41.8 0-67.1-37.4-60.5-89.1 5.5-51.7 38.5-89.1 80.3-89.1zm-17.6 157.3c33 0 57.2-30.8 61.6-69.3 4.4-38.5-13.2-69.3-46.2-69.3-33 0-57.2 30.8-61.6 69.3-4.4 38.5 13.2 69.3 46.2 69.3zm101.2-152.9h19.8l28.6 145.2 60.5-145.2h17.6l-72.6 168.3h-17.6zm251.9 135.3c-16.5 25.3-38.5 36.3-62.7 36.3-40.7 0-63.8-36.3-58.3-89.1 5.5-49.5 37.4-88 77-88 41.8 0 59.4 39.6 55 79.2l-2.2 15.4h-113.3c-2.2 18.7 3.3 63.8 44 63.8 17.6 0 37.4-11 48.4-29.7zm-7.7-66c3.3-29.7-14.3-55-40.7-55-38.5 0-53.9 46.2-55 55zm52.8-22c1.1-12.1 3.3-38.5 4.4-47.3h17.6c-1.1 12.1-2.2 26.4-2.2 29.7 11-19.8 26.4-34.1 47.3-34.1 3.3 0 6.6 1.1 9.9 2.2l-4.4 22c-2.2-1.1-4.4-1.1-6.6-1.1-30.8 0-47.3 26.4-50.6 59.4l-9.9 92.4h-17.6z"/>
		</g>
		<g id="Layer">
			<path id="Layer" fill-rule="evenodd" class="s1" d="m1238.6 99h44l-3.3 28.6h1.1c12.1-22 25.3-33 45.1-33 5.5 0 11 0 14.3 2.2l-5.5 50.6c-5.5-2.2-12.1-3.3-18.7-3.3-33 0-39.6 24.2-44 59.4l-8.8 73.7h-44zm223.3 147.4c-16.5 22-40.7 35.2-63.8 35.2-44 0-74.8-37.4-68.2-93.5 6.6-57.2 45.1-93.5 89.1-93.5 40.7 0 62.7 37.4 56.1 93.5l-2.2 17.6h-101.2c1.1 20.9 12.1 34.1 28.6 34.1 14.3 0 25.3-9.9 34.1-22zm-27.5-79.2c2.2-18.7-7.7-34.1-23.1-34.1-19.8 0-31.9 16.5-35.2 34.1z"/>
		</g>
		<g id="Layer">
			<g id="Layer">
				<g id="Layer">
					<g id="Layer">
						<path id="Layer" fill-rule="evenodd" class="s0" d="m1507 92.4c-17 0-30.8-13.8-30.8-30.8 0-17 13.8-30.8 30.8-30.8 17 0 30.8 13.8 30.8 30.8 0 17-13.8 30.8-30.8 30.8zm26.5-30.8c0-14.6-11.8-26.4-26.5-26.4-14.6 0-26.4 11.8-26.4 26.4 0 14.6 11.8 26.4 26.4 26.4 14.7 0 26.5-11.8 26.5-26.4z"/>
					</g>
				</g>
			</g>
			<g id="Layer">
				<g id="Layer">
					<g id="Layer">
						<path id="Layer" fill-rule="evenodd" class="s0" d="m1520.2 78.1h-5.5l-8.8-14.3h-4.4v14.3h-4.4v-33h8.8c9.9 0 12.1 4.4 12.1 8.8 0 4.4-2.2 7.7-7.7 8.8zm-17.6-19.8h5.5c5.5 0 6.6-3.3 6.6-4.4 0-2.2-1.1-4.4-6.6-4.4h-5.5z"/>
					</g>
				</g>
			</g>
		</g>
	</g>
</svg>