<svg version="1.2" xmlns="http://www.w3.org/2000/svg" viewBox="0 0 1550 1550" width="1550" height="1550">
	<title>hrt_logo-svg</title>
	<style>
		.s0 { fill: #ffffff } 
	</style>
	<g id="Layer">
		<path id="Layer" fill-rule="evenodd" class="s0" d="m0 0h1549.4v1549.6h-1549.4zm1268.2 1288.4c-2.9-8.6-8.6-14.4-17.2-20.1l-599.7-315.7 143.5-149.2q8.6-12.9 8.6-25.8c0-11.5-5.8-20.1-11.5-25.8-11.5-14.4-34.4-14.4-48.8 0l-134.8 140.6-206.6-591.1c-8.6-20.1-28.7-28.7-45.9-23-8.6 2.9-17.2 8.6-20.1 17.2-5.7 8.6-5.7 17.2-2.9 25.8l198 565.3-215.2-114.7c-17.2-8.6-40.2-2.9-48.8 14.3-5.7 8.6-5.7 17.2-2.8 25.8 2.8 8.6 8.6 14.4 17.2 20.1l249.6 126.3-292.7 304.2q-8.6 12.9-8.6 25.8c0 11.5 5.8 20.1 11.5 25.8 11.5 14.4 37.3 14.4 48.8 0l286.9-295.6 100.4 287c5.8 14.3 20.1 23 34.5 23 2.8 0 8.6-2.9 11.4-2.9 8.6-2.9 17.2-8.6 20.1-17.2 5.8-8.6 5.8-17.2 2.9-25.9l-89-252.5 559.5 292.7c17.2 8.6 40.2 2.9 48.8-14.3 5.7-8.6 5.7-11.5 2.9-20.1z"/>
	</g>
</svg>