<svg version="1.2" xmlns="http://www.w3.org/2000/svg" viewBox="0 0 1589 451" width="1589" height="451">
	<title>hrt_logo-svg</title>
	<style>
		.s0 { fill: #21578b } 
	</style>
	<path id="Layer" fill-rule="evenodd" class="s0" d="m565.6 93.3v43.4h50v-43.4h18.3v105h-17.5v-44.1h-50v44.1h-18.3v-105zm95.8 0h78.3v16.7h-59.1v27.5h52.4v16.7h-52.4v28.3h59.9v16.7h-79.1zm138.3-0.9h17.5l46.6 105.9h-19.1l-10.9-25h-50l-10.8 25h-19.1zm26.6 64.1l-18.3-41.6-18.3 42.5h36.6zm73.3-63.4v88.4h55v16.6h-74.1v-105zm85.8 17.5h-33.4v-17.5h85v17.5h-33.3v88.4h-18.3zm70.8-17.5h18.3v43.3h50v-43.3h18.3v105h-18.3v-44.2h-50v44.2h-18.3zm109.9 52.5c0-30 22.5-55 54.2-55 19.1 0 30.8 6.6 40.8 16.6l-11.7 13.4c-8.3-7.5-17.5-13.4-29.1-13.4-20 0-35 16.7-35 37.5 0 20.9 15 37.5 35 37.5 13.3 0 20.8-5 29.9-13.3l11.7 11.7c-10.8 11.6-23.3 18.3-42.5 18.3-30.8 0.8-53.3-22.5-53.3-53.3zm152.4-53.4h17.5l46.7 105.9h-19.2l-10.8-25h-50l-10.8 25h-19.2zm26.7 64.1l-18.3-42.5-18.4 42.5zm101.7-63.3c13.3 0 23.3 4.2 30 10.8 5.8 5.9 8.3 13.4 8.3 22.5 0 17.5-10 27.5-25 31.7l28.3 40h-21.6l-25.9-36.7h-23.3v36.7h-18.3v-105zm-0.9 52.5c13.4 0 21.7-6.7 21.7-17.5 0-11.7-8.3-17.5-21.7-17.5h-26.6v35zm63.3-52.5h78.3v16.7h-59.1v27.5h52.4v16.6h-52.4v28.4h59.9v16.6h-79.1zm-915.4 160c13.3 0 23.3 4.2 29.9 10.9 5.9 5.8 8.4 13.3 8.4 22.5 0 17.5-10 27.5-25 31.6l28.3 40h-21.7l-25.8-36.6h-23.3v36.6h-18.3v-105zm-0.9 51.7c13.4 0 21.7-6.7 21.7-17.5 0-11.7-8.3-17.5-21.7-17.5h-26.6v35zm141.6-51.7v16.7h-60v27.5h52.5v16.7h-52.5v27.5h60v16.6h-79.1v-105zm59.1-0.8h17.5l46.6 105.8h-19.1l-10.8-25h-50l-10.9 25h-19.1zm26.6 64.2l-18.3-42.5-17.5 42.5zm73.3-63.3v88.3h55v16.7h-74.1v-105zm85.8 16.6h-33.4v-17.5h85v17.5h-33.3v88.4h-18.3zm102.4 46.6l-41.6-63.3h21.6l29.2 46.7 30-46.7h20.8l-41.7 63.3v41.7h-18.3z"/>
	<g id="Layer">
		<path id="Layer" fill-rule="evenodd" class="s0" d="m0 0h449.8v450h-449.8zm368.2 374.2c-0.9-2.5-2.5-4.2-5-5.9l-174.1-91.6 41.6-43.4q2.5-3.7 2.5-7.5c0-3.3-1.6-5.8-3.3-7.5-3.3-4.1-10-4.1-14.2 0l-39.1 40.9-60-171.7c-2.5-5.8-8.3-8.3-13.3-6.7-2.5 0.9-5 2.5-5.8 5-1.7 2.5-1.7 5-0.9 7.5l57.5 164.2-62.5-33.3c-5-2.5-11.6-0.9-14.1 4.1-1.7 2.5-1.7 5-0.9 7.5 0.9 2.5 2.5 4.2 5 5.9l72.5 36.6-85 88.4q-2.5 3.7-2.5 7.5c0 3.3 1.7 5.8 3.4 7.5 3.3 4.1 10.8 4.1 14.1 0l83.3-85.9 29.2 83.4c1.7 4.1 5.8 6.6 10 6.6 0.8 0 2.5-0.8 3.3-0.8 2.5-0.8 5-2.5 5.8-5 1.7-2.5 1.7-5 0.9-7.5l-25.8-73.3 162.4 85c5 2.5 11.6 0.8 14.1-4.2 1.7-2.5 1.7-3.3 0.9-5.8z"/>
	</g>
</svg>