<svg version="1.2" xmlns="http://www.w3.org/2000/svg" viewBox="0 0 1527 526" width="1527" height="526">
	<title>Himalaya-Shipping-Logo-White-svg</title>
	<style>
		.s0 { fill: #ffffff } 
	</style>
	<g id="Layer_1">
		<path id="Layer" fill-rule="evenodd" class="s0" d="m582.9 282.7v-135.3h24.7v56.2h60.8v-56.2h24.7v135.3h-24.7v-59.1h-60.8v59.1zm136.2-135.3h24.7v135.3h-24.7zm51.2 135.2v-135.2h29.3l42.9 85.9 42.6-85.9h29.3v135.2h-24.7v-93.4l-37.5 74.1h-19.7l-37.6-74.1v93.4zm161.7 0l49.3-135.2h27.9l49.4 135.2h-26.1l-10.8-31.1h-52.5l-11.1 31.1zm43.6-50.4h39.4l-19.7-56.2zm100.5 50.5v-135.3h24.7v115.9h59.7v19.4zm97.6 0l49.4-135.3h27.8l49.4 135.3h-26.1l-10.7-31.2h-52.6l-11.1 31.2zm43.6-50.5h39.4l-19.7-56.2zm119.8 50.5v-48l-45.4-87.3h27.9l30 62.3 29.7-62.3h27.5l-45 87.3v48zm61.5 0l49.3-135.3h27.9l49.4 135.3h-26.1l-10.8-31.1h-52.5l-11.1 31.1zm43.6-50.5h39.4l-19.7-56.2zm-825.4 181.1c-7.5 0-13.9-1.1-19.3-3.6-5.7-2.5-10-6.1-13.2-10.7-3.2-4.7-5-10.4-5-17.2h19.3c0.3 4.7 1.8 8.6 5 11.8 3.2 3.2 7.5 4.7 13.2 4.7 5 0 8.6-1.1 11.5-3.6 2.8-2.5 4.3-5.4 4.3-9.3 0-3.9-1.5-7.2-4-9.7-2.5-2.1-5.7-4.3-10-5.7-4.3-1.4-8.6-2.9-13.6-4.6-7.8-2.5-13.6-6.1-17.9-10.4-3.9-4.3-6-9.7-6-16.8q0-9.2 4.3-15.1c2.8-4.3 6.7-7.5 12.1-10 5-2.5 10.7-3.6 17.5-3.6 6.8 0 12.6 1.1 17.6 3.6 5 2.5 9.3 5.7 12.1 10 2.9 4.3 4.7 9.3 4.7 15.4h-19.7c0-3.6-1.4-6.8-4.3-9.3q-3.7-4.3-10.7-4.3c-4 0-7.5 1.1-10 2.9-2.5 2.1-4 5-4 8.9 0 3.3 1.1 6.1 3.2 7.9 2.2 1.8 5.1 3.6 8.6 5 3.6 1.4 7.9 2.9 12.5 4.3 5.1 1.8 9.7 3.6 13.6 6.1 4 2.1 7.5 5.4 10.1 9.3 2.5 3.6 3.5 8.6 3.5 14.3 0 5.4-1.4 10-3.9 14.7-2.5 4.6-6.8 8.2-11.8 10.7-5.7 2.9-12.2 4.3-19.7 4.3zm94.1-1.8v-100.2h18.2v41.5h45.1v-41.5h18.2v100.2h-18.2v-43.6h-45.1v43.6zm143.8-100.2h18.2v100.2h-18.2zm80.8 100.2v-100.2h37.2c7.9 0 14.6 1.5 20 4 5.4 2.5 9.3 6.4 11.8 11 2.5 4.7 3.9 10.1 3.9 15.8 0 5.4-1 10.7-3.5 15.4-2.5 4.6-6.5 8.2-11.5 11.1-5.3 2.8-11.8 4.3-20 4.3h-18.6v38.6zm18.2-53.7h17.6c6.4 0 11.1-1.4 13.6-4.3 2.8-2.8 4.2-6.8 4.2-11.4 0-5-1.4-9-4.2-11.5-2.9-2.8-7.6-4.3-13.6-4.3h-17.6zm111.6 53.7v-100.2h37.2c7.9 0 14.7 1.5 20 4 5.4 2.5 9.3 6.4 11.8 11.1 2.5 4.6 4 10 4 15.7 0 5.4-1.1 10.7-3.6 15.4-2.5 4.6-6.4 8.2-11.4 11.1-5.4 2.8-11.9 4.3-20.1 4.3h-19.6v38.6zm18.2-53.7h17.5c6.5 0 11.1-1.4 13.6-4.2 2.9-2.9 4.3-6.8 4.3-11.5 0-5-1.4-8.9-4.3-11.4-2.9-2.9-7.5-4.3-13.6-4.3h-17.5zm111.6-46.6h18.2v100.2h-18.2zm80.4 100.2v-100.2h18.3l47.2 70.5v-70.5h18.2v100.2h-18.2l-47.2-70.5v70.5zm189.9 1.8q-14 0-24.7-6.4c-7.2-4.3-12.5-10.4-16.5-17.9-3.9-7.9-5.7-16.8-5.7-26.9 0-10.3 2.2-19.3 6.1-27.2 3.9-7.8 10-13.9 17.2-18.6 7.5-4.6 16.4-6.8 26.8-6.8 11.8 0 21.4 2.9 29.3 8.6 7.9 5.8 12.9 13.3 15 23.3h-20.4c-1.4-4.7-4.3-8.2-8.2-10.7-3.9-2.5-9.3-4-15.4-4-10 0-17.8 3.2-23.2 9.7-5.4 6.4-8.2 15-8.2 26.1 0 11.1 2.5 19.7 7.8 25.8 5.4 6 12.9 8.9 22.2 8.9 8.9 0 15.7-2.5 20.4-7.1q7-7.6 8.6-19.4h-25.4v-13.6h43.6v54.4h-16.8l-1.4-13.2c-3.2 4.6-7.2 8.6-12.2 11.1-5.3 2.5-11.4 3.9-18.9 3.9zm-1204.5 112c-144.3 0-261-117.4-261-262.6 0-145.3 116.7-262.7 261-262.7 144.4 0 261.1 117.4 261.1 262.7 0 145.2-116.7 262.6-261.1 262.6zm232.1-262.6c0-129.2-103.7-233.7-232.1-233.7-128.3 0-232.1 104.5-232.1 233.7 0 129.2 103.8 233.6 232.1 233.6 128.4 0 232.1-104.4 232.1-233.6zm-104 24.3c0-8.2-2.6-14.3-7.9-19-5-4.6-11.8-8.2-20.4-11.1-8.6-2.8-17.5-5.7-27.2-8.9-15.4-5.4-27.5-12.2-35.7-20.4-8.3-8.6-12.2-19.3-12.2-33.3-0.4-11.8 2.5-21.8 8.2-30 6.1-8.6 14-15.1 24.3-19.7 10.4-4.7 22.2-7.2 35.4-7.2 13.3 0 25.1 2.5 35.5 7.2 10.3 4.6 18.5 11.1 24.3 19.7 6 8.6 9.3 18.6 9.6 30.4h-39.7c0-6.8-2.8-12.9-8.2-18.3-5-5.3-12.5-8.2-21.8-8.2-7.9 0-14.7 1.8-20.4 6.1-5.4 3.9-8.2 9.6-8.2 17.5 0 6.5 2.1 11.8 6.4 15.8 4.3 3.9 10.4 7.1 17.5 9.6 7.2 2.9 15.8 5.8 25.1 8.6 10 3.2 19.3 7.2 27.5 11.8 8.2 4.7 15 10.8 20 18.3 5 7.5 7.5 16.8 7.5 28.6 0 10.4-2.8 20-8.2 29-5.3 8.9-13.2 16.1-23.9 21.4-4 1.8-8.3 3.6-12.6 4.7-21.8 1.1-46.1-1.8-72.6-7.5-8.2-4.7-15-10.7-20-17.9-6.4-9.7-9.6-21.1-10-34.4h39.3c0.4 9.3 3.6 17.2 10.1 23.7 6.4 6 15.3 9.3 26.8 9.3 9.6 0 17.5-2.2 23.2-6.8 5.7-4.7 8.6-11.1 8.3-19zm-287.6 39v-184.6h38.7v84.1h95.1v-84.1h38.6v181.7c-13.2-2.8-26.1-5-38.6-6.8v-61.1h-95.1v61.5c-13.3 2.1-26.5 5.4-38.7 9.3zm-13.2 37.2c37.9-17.2 99.4-31.1 201-4.3 62.2 16.5 108.7 14.3 142.7 4.3 0 1.8-49 104.5-171 104.5-117.3 0-168.8-97-172.7-104.5z"/>
	</g>
</svg>