<svg version="1.2" xmlns="http://www.w3.org/2000/svg" viewBox="0 0 1561 271" width="1561" height="271">
	<title>Logo (49)-svg</title>
	<defs>
		<clipPath clipPathUnits="userSpaceOnUse" id="cp1">
			<path d="m0 0h1561v271h-1561z"/>
		</clipPath>
	</defs>
	<style>
		.s0 { fill: #000000 } 
	</style>
	<g id="Clip-Path" clip-path="url(#cp1)">
		<g id="Layer">
			<path id="Layer" class="s0" d="m146.7 0v119.1h43.4v-41.1h30.9v110.9h-30.9v-41.1h-43.4v123.2h126v-271zm-20.7 147.8h-43.4v41.1h-30.9v-110.9h30.9v41.1h43.4v-119.1h-126v271h126z"/>
			<path id="Layer" fill-rule="evenodd" class="s0" d="m669.3 2.1h12.4v268.9h-12.4v-131.4h-322.2v131.4h-12.4v-268.9h12.4v127.2h322.2zm872.1 149.8c12 12.5 19 29.1 19.6 46.4 1.2 40.1-32.2 72.8-72.5 72.8h-256.8c-5 0-9.9-2-13.5-5.6-3.5-3.5-5.6-8.4-5.6-13.4v-233c0-5.1 2.1-9.9 5.6-13.5 3.6-3.5 8.5-5.5 13.5-5.5h224c15.3 0 30.2 4.9 42.4 13.9 12.3 9.1 21.2 21.9 25.6 36.4 4.3 14.6 3.8 30.1-1.5 44.4-5.3 14.2-15.1 26.4-27.9 34.6h1.4v0.8c17.4 1.4 33.6 9.1 45.7 21.7zm-316.2-137.3c-1.4 1.4-2.2 3.3-2.2 5.3v111.6h232.7c8.8 0 17.4-1.9 25.3-5.6 8-3.7 15-9 20.6-15.7 5.6-6.6 9.7-14.4 12-22.8 2.3-8.4 2.7-17.2 1.2-25.7-5-28.8-30.7-49.3-59.9-49.3h-224.3c-2.1 0-4 0.8-5.4 2.2zm290.3 240.7c7.9-3.7 15-9 20.6-15.7 5.6-6.6 9.7-14.4 12-22.8 2.3-8.4 2.7-17.2 1.1-25.8-4.9-28.7-30.6-49.3-59.9-49.3h-266.3v111.6c0 2 0.8 3.9 2.2 5.3 1.4 1.4 3.3 2.2 5.4 2.2h259.6c8.7 0 17.4-1.9 25.3-5.5zm-406.2-255.2h10.4v252c0 5-2 9.9-5.6 13.4-3.6 3.6-8.4 5.6-13.5 5.6h-306.8c-2.5 0-5-0.5-7.3-1.5-2.3-0.9-4.5-2.3-6.2-4.1-1.8-1.7-3.2-3.8-4.2-6.1-0.9-2.3-1.4-4.8-1.4-7.3v-252h12.4v253.2c0 2 0.8 3.9 2.2 5.3 1.4 1.4 3.4 2.2 5.4 2.2h307.1c2 0 3.9-0.8 5.3-2.2 1.5-1.4 2.2-3.3 2.2-5.3z"/>
		</g>
	</g>
</svg>