<svg version="1.2" xmlns="http://www.w3.org/2000/svg" viewBox="0 0 1206 1548" width="1206" height="1548">
	<title>HVT_BIG copy-svg</title>
	<style>
		.s0 { fill: #ffffff } 
	</style>
	<path id="Layer" fill-rule="evenodd" class="s0" d="m930.8 87.9v1373.2q0.6 12.2-1.8 25-2.5 12.2-7.9 23.8-4.9 11-13.5 20.8-7.9 9.7-18.3 17h316.6q-10.9-7.3-18.9-16.4-8.5-9.8-14-21.4-4.9-11.6-7.3-23.8-2.5-12.8-1.2-25v-1370.8q-1.3-12.8 0.6-25.6 2.4-12.8 7.3-25 5.5-11.6 14-21.4 8.6-10.3 19.5-17h-316.6q10.4 7.3 18.3 17 8.6 9.2 13.5 20.8 5.4 11.6 7.9 23.8 2.4 12.8 1.8 25zm-930.3 1459.8h316.6q-11-7.3-18.9-16.4-8.5-9.8-14-21.4-4.9-11.6-7.4-23.8-2.4-12.8-1.2-25v-623.8h469.2l154.3-162.2h-623.5v-587.8q-1.2-12.2 1.2-25.1 2.5-12.1 7.4-23.7 5.5-11.6 14-21.4 7.9-9.7 18.9-16.4h-316.6q10.4 7.3 18.3 17 8.5 9.8 14 20.8 4.9 11.6 7.3 23.7 2.5 12.9 1.9 25.1v1373.8q0.6 12.2-1.9 25-2.4 12.2-7.3 23.8-5.5 11-14 20.8-7.9 9.7-18.3 17z"/>
</svg>