<svg version="1.2" xmlns="http://www.w3.org/2000/svg" viewBox="0 0 1548 427" width="1548" height="427">
	<title>download (7)-svg</title>
	<style>
		.s0 { fill: #221e21 } 
	</style>
	<path id="Layer" fill-rule="evenodd" class="s0" d="m153.1 15.8q-0.4-2-1.3-3.9-0.8-1.9-2.2-3.4-1.3-1.6-3-2.8h51.9q-1.8 1.1-3.2 2.8-1.4 1.6-2.3 3.5-0.8 2-1.2 4.1-0.3 2.1-0.1 4.2v224.8q-0.2 2 0.2 4.1 0.4 2 1.2 3.9 0.9 1.9 2.3 3.5 1.3 1.5 3.1 2.7h-51.9q1.7-1.2 3-2.8 1.4-1.6 2.2-3.4 0.9-1.9 1.3-3.9 0.4-2.1 0.3-4.1v-225.2q0.1-2-0.3-4.1zm1266.2 242.5q-1.5 0.3-2.9 0.9-1.3 0.6-2.6 1.4-1.2 0.8-2.3 1.9-1 1-1.9 2.2v-58c3.2 3.6 6.7 6.9 10.5 9.7 3.9 2.8 8 5.2 12.4 7.1 4.4 1.8 9 3.2 13.7 4 4.7 0.9 9.5 1.2 14.3 0.9 1.7 0 3.5 0 5.2 0 5.4-0.3 10.7-1.7 15.6-4.1 4.9-2.4 9.3-5.7 12.9-9.8 3.6-4.1 6.3-8.8 8.1-14 1.7-5.1 2.5-10.5 2.1-16q0.1-3.5-0.4-7-0.6-3.5-1.6-6.9-1.1-3.4-2.7-6.6-1.6-3.1-3.7-6c-22.9-31.4-83.3-41.1-83.3-96 0-37.8 28.8-62 63.9-62q2.1 0 4.1 0.2 2.1 0.2 4.1 0.4 2.1 0.3 4.1 0.7 2 0.4 4.1 0.9 1.7 0.5 3.4 0.9 1.8 0.4 3.6 0.7 1.8 0.3 3.5 0.5 1.8 0.2 3.6 0.3 1.5 0.1 2.9-0.2 1.4-0.2 2.7-0.9 1.3-0.6 2.4-1.5 1.1-0.9 2-2v55.6c-2.1-3.2-4.6-6.1-7.4-8.7-2.8-2.5-6-4.6-9.4-6.3-3.4-1.7-7-2.9-10.7-3.6-3.7-0.7-7.5-1-11.3-0.7-3.2 0.2-6.3 0.8-9.3 2.1-2.9 1.2-5.6 2.9-7.9 5.1-2.4 2.1-4.3 4.7-5.7 7.6-1.4 2.8-2.3 5.9-2.7 9 0 37.2 71.9 41 88.5 98.2q0.9 3.1 1.6 6.3 0.6 3.2 1 6.4 0.5 3.2 0.7 6.4 0.2 3.2 0.1 6.4v3.1c-0.1 10.3-2.2 20.6-6.3 30.1-4.1 9.6-10 18.2-17.4 25.5-7.4 7.3-16.2 13-25.8 16.9-9.7 3.8-20 5.8-30.4 5.6-17.3 0-31.2-6.4-45.4-6.7zm-1415.4-1.8q1.4-1.6 2.3-3.4 0.8-1.9 1.2-3.9 0.4-2.1 0.3-4.1v-225.3q0.1-2-0.3-4.1-0.4-2-1.2-3.9-0.9-1.8-2.3-3.4-1.3-1.6-3-2.8h51.9q-1.8 1.1-3.1 2.7-1.4 1.6-2.3 3.5-0.8 1.9-1.2 3.9-0.4 2.1-0.2 4.1v96.4h102.2l-25.3 26.6h-76.9v102.3q-0.2 2 0.2 4.1 0.4 2 1.2 3.9 0.9 1.9 2.3 3.5 1.3 1.5 3.1 2.7h-51.9q1.7-1.2 3-2.8zm447.2-5.4q1 1.6 2.1 3 1.1 1.4 2.4 2.7 1.2 1.3 2.6 2.5h-55.7q1.1-0.6 2-1.5 0.8-0.9 1.4-2 0.6-1.1 0.8-2.3 0.2-1.2 0.1-2.4-0.2-1.2-0.4-2.5-0.3-1.2-0.7-2.4-0.3-1.2-0.8-2.4-0.4-1.2-1-2.3l-19.4-44.7h-100.7l-19.4 44.7q-0.6 1.2-1.1 2.5-0.5 1.2-0.9 2.5-0.4 1.4-0.7 2.7-0.3 1.3-0.5 2.7-0.1 1.2 0.2 2.4 0.2 1.2 0.8 2.3 0.5 1.1 1.4 2 0.8 0.9 1.9 1.5h-53.5q1.4-1.3 2.6-2.7 1.2-1.4 2.3-2.9 1.1-1.5 2-3.2 0.9-1.6 1.7-3.3l41.1-89.7 72.5-156.2h1.6l72.4 156.2 41.1 89.7q0.9 1.6 1.8 3.1zm-78.2-80.6l-5.4-12.2-33.3-76-33.4 76-5.4 12.2zm642.1 79.6q0.2 1.5 0.8 2.9 0.6 1.4 1.5 2.6 0.9 1.2 2.1 2.2 1.2 0.9 2.6 1.5h-58.2c7-3.6 7.7-12.2 7.7-19.9 0.1-7-0.8-14-2.5-20.7-1.7-6.8-4.3-13.3-7.7-19.5-3.4-6.1-7.5-11.7-12.3-16.8-4.8-5.1-10.3-9.5-16.2-13.2q-2.5-1.7-5-3.2-2.5-1.5-5.1-2.9-2.6-1.3-5.3-2.5-2.7-1.2-5.5-2.3-4-1.5-8.1-2.7-4.1-1.2-8.3-2-4.2-0.9-8.5-1.4-4.3-0.6-8.5-0.8v93.7q-0.2 2 0.3 4.1 0.4 2.1 1.3 3.9 1 1.9 2.4 3.5 1.3 1.5 3.1 2.7h-52.2q1.7-1.2 3-2.8 1.4-1.6 2.2-3.4 0.9-1.9 1.3-3.9 0.4-2.1 0.2-4.1v-225.7q0.1-2-0.3-4-0.5-2-1.4-3.8-0.9-1.7-2.2-3.2-1.3-1.6-3-2.7h64.9c45.4 0 91 14.2 90.3 69.8 0 7.6-1.4 15.2-4.2 22.3-2.7 7.1-6.8 13.7-11.9 19.4-5.1 5.6-11.2 10.3-18 13.8-6.8 3.5-14.2 5.7-21.8 6.5v0.7q5.3 1.4 10.4 3.4 5.2 2 10 4.5 4.9 2.5 9.5 5.6 4.6 3 8.8 6.6c27.5 23 38.8 58.7 44.2 91.7zm-115.7-130c30.1 0 50.4-18.6 50.4-43.9 0-20.5-14.8-37.4-45.8-37.4h-25.8v80.8h21zm449.3-106.6c0-3.1-2.9-5.6-5-7.8h64.2q-2.9 2-5.6 4.4-2.7 2.3-5.1 5-2.3 2.6-4.4 5.5-2 3-3.6 6.1l-72.9 115.8v102.6q-0.2 2.1 0.2 4.1 0.3 2.1 1.2 4 0.9 1.8 2.3 3.4 1.3 1.6 3.1 2.8h-51.9q1.7-1.2 3.1-2.8 1.3-1.6 2.2-3.4 0.9-1.9 1.3-4 0.3-2 0.1-4.1v-102.5l-73-115.8q-1.7-3.2-3.7-6.1-2.1-2.9-4.5-5.6-2.3-2.6-5-5-2.7-2.3-5.7-4.3h64.2c-2.1 2.1-5 4.6-5 7.7q0.5 2.2 1.2 4.4 0.7 2.1 1.6 4.2 0.9 2.1 2 4 1.1 2 2.4 3.9l44.3 75.2h0.7l44.4-75.2q1.3-1.9 2.3-3.9 1.1-2 2-4.1 0.8-2 1.5-4.2 0.7-2.1 1.2-4.3zm-236.8 235.7q0.3 2.1 1.2 4 0.9 1.8 2.3 3.4 1.3 1.6 3 2.8h-52.1q1.7-1.2 3-2.8 1.3-1.6 2.2-3.5 0.9-1.9 1.3-3.9 0.3-2 0.2-4.1v-206.3h-45.3q-2 0.3-3.9 0.9-1.9 0.6-3.7 1.4-1.8 0.9-3.5 2-1.6 1.1-3.1 2.4v-39.8h157.9v39.5q-1.5-1.3-3.2-2.3-1.7-1.1-3.5-1.9-1.8-0.8-3.7-1.4-1.9-0.5-3.8-0.8h-45.5v206.3q-0.2 2.1 0.2 4.1zm-465.9 7.4q1.3-1.5 2.2-3.4 0.9-1.9 1.2-3.9 0.4-2 0.2-4.1v-225.3q0.2-2.1-0.2-4.1-0.3-2-1.2-3.9-0.9-1.9-2.2-3.5-1.4-1.5-3.1-2.7h148.9v42.7c-5.2-8.9-14.4-9.6-27.2-9.6h-76.6v76.4h98.7l-26.2 27.7h-72.5v83.8h76.3c12.7 0 22-0.7 27.2-9.6v42.3h-148.6q1.7-1.2 3.1-2.8zm-70.1-245.1q-0.4-1.2-1-2.2-0.6-1.1-1.4-2-0.8-0.9-1.8-1.6h58.9q-2.9 2.5-5.5 5.2-2.6 2.8-4.9 5.9-2.3 3-4.2 6.3-1.9 3.3-3.4 6.8l-55.7 128.5-46.5 106.6h-0.7l-46.5-106.6-55.8-128.5q-1.6-3.5-3.5-6.7-1.9-3.3-4.2-6.3-2.3-3-4.9-5.7-2.6-2.8-5.5-5.2h61.1q-1 0.7-1.8 1.6-0.8 0.8-1.4 1.8-0.6 1-1 2.1-0.4 1.1-0.5 2.3-0.1 0.8 0 1.5 0 0.8 0.2 1.6 0.1 0.8 0.4 1.5 0.2 0.8 0.5 1.5l56.4 138.5 7.7 19.5h0.6l7.8-19.5 56-138.5q0.3-0.7 0.6-1.5 0.2-0.7 0.3-1.5 0.2-0.8 0.2-1.6 0.1-0.7 0.1-1.5-0.2-1.2-0.6-2.3zm-117.6 337.3h61.1v13.5h-21.6v62.9h-17.8v-62.9h-21.7zm-317.8 0h17.8v44.9q0 1.7-0.1 3.4-0.2 1.6-0.4 3.3-0.3 1.6-0.8 3.2-0.4 1.6-1 3.2-0.9 3-2.5 5.7-1.6 2.7-3.8 5-2.2 2.3-4.8 4-2.6 1.8-5.6 2.9-1.6 0.6-3.3 1-1.7 0.5-3.5 0.8-1.7 0.3-3.4 0.4-1.8 0.2-3.5 0.2-1.8 0-3.6-0.2-1.7-0.1-3.5-0.4-1.7-0.3-3.4-0.8-1.7-0.4-3.4-1-2.9-1.1-5.5-2.8-2.6-1.6-4.8-3.8-2.2-2.2-3.9-4.8-1.6-2.6-2.7-5.5-0.6-1.6-1-3.2-0.4-1.6-0.7-3.3-0.3-1.6-0.4-3.2-0.2-1.7-0.1-3.4v-45.6h17.6v44.9q0 1 0.1 1.9 0 0.9 0.1 1.8 0.2 0.9 0.4 1.8 0.2 0.9 0.4 1.7 0.3 0.8 0.6 1.5 0.3 0.7 0.6 1.4 0.4 0.7 0.9 1.4 0.4 0.6 0.9 1.3 0.5 0.5 1 1 0.6 0.5 1.2 0.9 0.6 0.5 1.3 0.8 0.6 0.4 1.3 0.7 1.5 0.5 3.1 0.8 1.6 0.3 3.3 0.3 1.6 0 3.2-0.3 1.6-0.3 3.2-0.8 0.7-0.3 1.3-0.7 0.7-0.3 1.3-0.8 0.6-0.4 1.1-0.9 0.6-0.5 1.1-1 0.5-0.6 0.9-1.3 0.5-0.6 0.8-1.3 0.4-0.7 0.7-1.4 0.3-0.7 0.5-1.5 0.3-0.9 0.5-1.8 0.2-0.9 0.3-1.8 0.1-0.9 0.2-1.8 0.1-0.9 0-1.9zm-133 0h49.4v13.1h-31.5v19.6h26.2v13.8h-26.2v30h-17.9zm396.5 0h17.7v76.4h-17.9zm-162 47.2q0.4 0.3 0.8 0.7 0.3 0.4 0.6 0.8 0.4 0.4 0.6 0.9l16.4 26.8h-16.2q-1 0-1.9-0.2-0.9-0.2-1.8-0.6-0.9-0.5-1.5-1.1-0.7-0.7-1.2-1.5l-12.7-22.4q-0.2-0.3-0.4-0.6-0.3-0.3-0.5-0.6-0.3-0.3-0.6-0.5-0.2-0.2-0.6-0.4-0.3-0.2-0.7-0.3-0.4-0.1-0.8-0.2-0.4-0.1-0.8-0.1-0.4-0.1-0.8 0h-4.5v28.8h-17.9v-76.7h25q1.8-0.1 3.5-0.1 1.8 0.1 3.5 0.2 1.8 0.1 3.6 0.4 1.7 0.3 3.4 0.6 1.3 0.4 2.6 0.9 1.3 0.4 2.5 1 1.2 0.7 2.3 1.4 1.2 0.7 2.2 1.5 0.9 0.8 1.7 1.6 0.8 0.8 1.5 1.7 0.7 1 1.3 2 0.5 1 1 2 0.4 1.1 0.7 2.2 0.4 1.1 0.6 2.3 0.2 1.1 0.3 2.3 0.1 1.1 0.1 2.3 0 0.9-0.1 1.8-0.1 0.9-0.2 1.8-0.1 0.9-0.3 1.8-0.2 0.9-0.4 1.7-0.6 1.7-1.3 3.2-0.8 1.6-1.8 3-1 1.4-2.2 2.7-1.1 1.2-2.5 2.3-0.8 0.6-1.5 1.1-0.8 0.5-1.7 1-0.8 0.4-1.7 0.8-0.9 0.4-1.8 0.7 0.5 0.3 0.9 0.5 0.5 0.3 0.9 0.6 0.4 0.2 0.8 0.5 0.5 0.3 0.9 0.7 0.4 0.3 0.7 0.7zm-6.8-18.6q0.2-0.7 0.4-1.4 0.1-0.7 0.2-1.4 0.1-0.6 0.1-1.3 0-0.7 0-1.4 0.1-1.1-0.1-2.2-0.2-1.1-0.6-2.1-0.5-1-1.1-1.9-0.6-0.9-1.5-1.6-1.1-0.8-2.3-1.4-1.2-0.6-2.5-0.9-1.3-0.4-2.7-0.5-1.3-0.2-2.7-0.1h-7.1v23.3h7.1q0.8 0 1.6 0 0.8-0.1 1.6-0.2 0.7-0.1 1.5-0.3 0.8-0.2 1.5-0.4 0.6-0.2 1.2-0.5 0.5-0.3 1.1-0.6 0.5-0.3 1-0.7 0.5-0.4 0.9-0.8 0.4-0.4 0.8-0.9 0.3-0.4 0.6-0.9 0.3-0.5 0.6-1 0.2-0.5 0.4-1.1zm111.5-28.6h15.5v76.5h-9.2q-0.4 0-0.9-0.1-0.4 0-0.9-0.1-0.4-0.1-0.8-0.2-0.5-0.1-0.9-0.3-0.4-0.2-0.8-0.4-0.4-0.3-0.7-0.6-0.4-0.3-0.7-0.6-0.3-0.4-0.6-0.8l-36.2-45.8v49.3h-15.5v-77.5h10.9q0.2 0 0.4 0.1 0.2 0 0.3 0.1 0.2 0 0.4 0.1 0.2 0 0.4 0.1l1.1 0.8q0.2 0.2 0.4 0.3 0.1 0.2 0.3 0.4 0.2 0.2 0.3 0.4 0.2 0.2 0.3 0.4l36.5 46.5v-8.3zm773.8 0h61v13.4h-21.6v63.1h-17.9v-62.9h-21.5zm169.2 64.6h12.7v12.7h-43.8v-11.9h14.7v-44.7l-8.6 7.3q-0.2 0.1-0.5 0.3-0.2 0.1-0.4 0.2-0.2 0.1-0.4 0.2-0.2 0.1-0.5 0.2h-1.6q-0.6 0-1.1-0.1-0.6-0.2-1.1-0.4-0.5-0.3-1-0.6-0.4-0.4-0.8-0.8l-5.2-6.8 23.9-20.2h13.5zm92.7-20.8q0.5 0.6 0.8 1.2 0.4 0.7 0.7 1.3 0.3 0.7 0.6 1.4 0.2 0.7 0.4 1.5 0.2 0.7 0.3 1.4 0.2 0.8 0.3 1.5 0.1 0.7 0.1 1.5 0.1 0.7 0.1 1.5 0 1.2-0.1 2.4-0.2 1.2-0.4 2.4-0.3 1.2-0.6 2.4-0.4 1.1-0.9 2.2-0.5 1.1-1.1 2.1-0.6 0.9-1.3 1.8-0.7 1-1.5 1.8-0.8 0.8-1.7 1.5-1 0.8-2 1.5-1.1 0.6-2.2 1.2-1 0.6-2.2 1.1-1.1 0.4-2.3 0.8-2.7 0.8-5.5 1.3-2.8 0.4-5.7 0.4-2.8 0-5.6-0.4-2.8-0.5-5.5-1.3-1.2-0.4-2.3-0.8-1.2-0.5-2.3-1.1-1.1-0.6-2.1-1.2-1-0.7-2-1.5-0.9-0.7-1.7-1.5-0.8-0.8-1.5-1.8-0.7-0.9-1.3-1.8-0.6-1-1.1-2.1-0.5-1.1-0.9-2.2-0.4-1.2-0.6-2.4-0.3-1.2-0.4-2.4-0.1-1.2-0.1-2.4 0-0.8 0.1-1.5 0-0.8 0.1-1.5 0.1-0.7 0.3-1.5 0.1-0.7 0.3-1.4 0.2-0.7 0.4-1.4 0.2-0.6 0.5-1.3 0.3-0.6 0.6-1.2 0.3-0.6 0.7-1.2 0.4-0.6 0.9-1.2 0.5-0.5 1-1 0.5-0.5 1-1 0.6-0.5 1.2-0.9 0.6-0.5 1.3-0.9 0.7-0.4 1.5-0.8 0.7-0.4 1.5-0.7 0.8-0.3 1.5-0.6-1.1-0.5-2.2-1.2-1.1-0.7-2.1-1.5-1-0.9-1.9-1.9-0.8-1-1.5-2.1-0.7-1.1-1.2-2.3-0.5-1.3-0.8-2.6-0.3-1.2-0.5-2.6-0.1-1.3-0.1-2.6 0-1.1 0.1-2.1 0.2-1.1 0.4-2.2 0.2-1 0.6-2 0.3-1 0.8-2 0.5-1 1-1.9 0.6-0.9 1.2-1.7 0.7-0.8 1.4-1.6 0.8-0.8 1.6-1.5 0.8-0.7 1.8-1.3 0.9-0.7 1.9-1.2 0.9-0.6 2-1 1-0.5 2-0.9 2.5-0.8 5-1.2 2.5-0.4 5-0.4 2.6 0 5.1 0.4 2.5 0.4 4.9 1.2 1.1 0.4 2.1 0.9 1 0.4 2 1 1 0.5 1.9 1.2 0.9 0.6 1.8 1.3 0.8 0.7 1.5 1.5 0.8 0.8 1.4 1.6 0.7 0.8 1.2 1.7 0.6 0.9 1 1.9 0.5 1 0.8 2 0.4 1 0.6 2 0.2 1.1 0.3 2.2 0.2 1 0.2 2.1 0 1.3-0.2 2.6-0.1 1.4-0.4 2.6-0.3 1.3-0.8 2.6-0.5 1.2-1.2 2.3-0.7 1.1-1.5 2.1-0.9 1-1.9 1.9-1 0.8-2.1 1.5-1.1 0.7-2.2 1.2 0.7 0.3 1.5 0.6 0.8 0.3 1.5 0.7 0.8 0.4 1.5 0.8 0.7 0.4 1.3 0.9 0.6 0.4 1.2 0.9 0.5 0.5 1 1 0.5 0.5 1 1 0.5 0.6 0.9 1.2zm-32.9-26.6q0 0.4 0 0.9 0 0.4 0.1 0.9 0.1 0.4 0.1 0.8 0 0.5 0 1-0.1 0.5-0.1 1 0 0.5 0.1 1 0 0.5 0 1 0.1 0.4 0.3 0.9 0.1 0.4 0.3 0.8 0.1 0.5 0.4 0.9 0.2 0.4 0.4 0.8 0.3 0.4 0.6 0.7 0.3 0.3 0.6 0.6 0.4 0.3 0.8 0.6 0.3 0.2 0.8 0.4 1 0.5 2.2 0.7 1.1 0.2 2.2 0.2 1.2 0 2.3-0.2 1.2-0.2 2.2-0.7 0.4-0.2 0.8-0.4 0.4-0.3 0.7-0.6 0.4-0.3 0.7-0.6 0.3-0.3 0.6-0.7 0.2-0.4 0.4-0.8 0.3-0.4 0.4-0.9 0.2-0.4 0.3-0.8 0.2-0.5 0.3-0.9 0-0.5 0-1 0-0.5 0-1 0-0.5 0-1 0-0.5 0-1-0.1-0.4-0.1-0.9 0-0.4-0.1-0.8 0-0.5-0.1-0.9-0.1-0.4-0.2-0.9-0.1-0.4-0.3-0.8-0.1-0.4-0.3-0.7-0.2-0.4-0.5-0.7-0.2-0.4-0.5-0.7-0.3-0.3-0.6-0.6-0.3-0.3-0.7-0.6-0.3-0.3-0.7-0.5-0.4-0.2-0.8-0.4-1-0.4-2-0.6-1.1-0.2-2.1-0.2-1.1 0-2.2 0.2-1 0.2-2 0.6-0.4 0.2-0.8 0.4-0.3 0.2-0.7 0.5-0.3 0.3-0.6 0.6-0.4 0.3-0.6 0.6-0.3 0.3-0.6 0.6-0.2 0.4-0.4 0.8-0.2 0.3-0.3 0.7-0.2 0.4-0.3 0.8 0 0.5 0 0.9zm18.3 41.5q0.2-0.5 0.3-1 0.1-0.5 0.1-1 0.1-0.5 0.1-1 0.1-0.6 0-1.1 0.1-0.6 0-1.1 0-0.6-0.1-1.2 0-0.6-0.2-1.1-0.1-0.6-0.2-1.2-0.1-0.4-0.3-0.9-0.1-0.5-0.4-0.9-0.2-0.4-0.4-0.9-0.3-0.4-0.6-0.7-0.3-0.4-0.7-0.8-0.4-0.3-0.8-0.6-0.4-0.3-0.8-0.5-0.5-0.2-1-0.4-1.2-0.4-2.4-0.6-1.3-0.2-2.6-0.2-1.3 0-2.5 0.2-1.3 0.2-2.5 0.6-0.5 0.2-0.9 0.4-0.5 0.2-0.9 0.5-0.4 0.3-0.8 0.6-0.4 0.4-0.7 0.8-0.3 0.3-0.6 0.7-0.3 0.4-0.5 0.8-0.3 0.4-0.5 0.8-0.2 0.5-0.3 0.9-0.2 0.6-0.3 1.1-0.1 0.6-0.1 1.2-0.1 0.6-0.1 1.1-0.1 0.6-0.1 1.2 0 0.5 0.1 1.1 0 0.5 0.1 1 0.1 0.6 0.2 1.1 0.1 0.5 0.3 1 0.1 0.5 0.3 1 0.2 0.4 0.4 0.8 0.2 0.5 0.5 0.9 0.3 0.4 0.6 0.8 0.4 0.3 0.8 0.6 0.5 0.3 1 0.6 0.4 0.2 0.9 0.4 0.5 0.2 1 0.4 1.2 0.4 2.4 0.6 1.1 0.2 2.4 0.2 1.2 0 2.4-0.2 1.2-0.2 2.3-0.6 0.5-0.2 0.9-0.4 0.5-0.3 0.9-0.6 0.4-0.3 0.8-0.6 0.4-0.4 0.7-0.8 0.3-0.3 0.6-0.7 0.3-0.4 0.5-0.9 0.3-0.4 0.4-0.8 0.2-0.5 0.4-1zm177.9-18.1q0.4 1.2 0.8 2.4 0.3 1.1 0.5 2.4 0.2 1.2 0.3 2.4 0.1 1.3 0.1 2.5 0 1.4-0.1 2.9-0.1 1.4-0.4 2.9-0.3 1.4-0.7 2.8-0.4 1.4-0.9 2.7-0.6 1.2-1.2 2.4-0.7 1.2-1.4 2.3-0.8 1.1-1.7 2.1-0.8 1-1.8 2-1 0.9-2.1 1.8-1.1 0.8-2.2 1.5-1.2 0.7-2.5 1.3-1.2 0.6-2.5 1.1-1.4 0.5-2.9 0.9-1.4 0.4-2.9 0.7-1.5 0.2-3 0.4-1.5 0.1-3 0.1-1.8 0-3.5-0.2-1.8-0.2-3.5-0.6-1.7-0.4-3.3-0.9-1.7-0.6-3.3-1.3-0.7-0.3-1.4-0.6-0.8-0.4-1.4-0.8-0.7-0.4-1.4-0.8-0.7-0.5-1.3-0.9-0.6-0.5-1.2-0.9-0.6-0.5-1.2-0.9-0.5-0.5-1.1-1-0.5-0.5-1.1-1l5.1-6.8q0.1-0.2 0.3-0.5 0.3-0.2 0.5-0.4 0.2-0.2 0.5-0.4 0.2-0.2 0.5-0.3 0.3-0.1 0.6-0.2 0.2-0.1 0.5-0.2 0.3-0.1 0.6-0.1 0.3 0 0.6 0 0.4 0 0.8 0 0.4 0.1 0.7 0.2 0.4 0.1 0.8 0.3 0.4 0.2 0.7 0.4l3 1.8q0.5 0.3 0.9 0.6 0.5 0.2 1 0.5 0.5 0.2 1 0.4 0.5 0.2 1 0.4 0.6 0.2 1.3 0.4 0.7 0.2 1.4 0.3 0.7 0.1 1.4 0.1 0.7 0.1 1.4 0.1 0.7 0 1.4-0.1 0.7 0 1.4-0.2 0.7-0.1 1.4-0.3 0.7-0.2 1.4-0.5 0.5-0.3 1-0.6 0.5-0.3 1-0.7 0.5-0.4 0.9-0.8 0.5-0.4 0.9-0.9 0.3-0.5 0.7-1 0.3-0.5 0.5-1.1 0.3-0.5 0.5-1.1 0.2-0.6 0.4-1.2 0.1-0.6 0.3-1.3 0.1-0.7 0.2-1.3 0.1-0.7 0.1-1.4 0.1-0.7 0.1-1.3 0-1.2-0.1-2.4-0.2-1.1-0.6-2.2-0.4-1.1-1.1-2.1-0.6-1-1.4-1.9-1-0.7-2-1.3-1.1-0.6-2.2-1-1.2-0.4-2.4-0.5-1.2-0.2-2.4-0.1-1.3 0-2.6 0.1-1.3 0.1-2.6 0.4-1.3 0.2-2.5 0.6-1.3 0.3-2.5 0.8l-10-2.7 6.5-38.7h39.6v5.7q0 0.4 0 0.8 0 0.4-0.1 0.7-0.1 0.4-0.2 0.8-0.1 0.4-0.2 0.7-0.1 0.4-0.3 0.7-0.2 0.3-0.4 0.6-0.2 0.3-0.5 0.6-0.2 0.3-0.5 0.5-0.3 0.3-0.7 0.6-0.3 0.2-0.7 0.4-0.4 0.2-0.7 0.4-0.4 0.1-0.8 0.3-0.6 0.1-1.1 0.2-0.6 0.1-1.1 0.2-0.6 0-1.1 0.1-0.6 0-1.2 0h-18.3l-2.2 12.7 4.2-0.5h3.9q1.3-0.1 2.7 0 1.3 0.1 2.7 0.4 1.3 0.2 2.7 0.6 1.3 0.3 2.6 0.8 2.1 0.8 4.1 2.1 1.9 1.3 3.6 2.9 1.6 1.7 2.8 3.6 1.2 2 2 4.2zm-455.3-2.5q0.6 0.6 1.1 1.3 0.6 0.7 1 1.4 0.5 0.7 0.9 1.5 0.4 0.8 0.7 1.6 0.4 0.9 0.7 2 0.3 1 0.5 2 0.2 1 0.2 2.1 0.1 1 0.1 2.1 0 1.3-0.1 2.5-0.1 1.3-0.4 2.6-0.2 1.2-0.6 2.5-0.3 1.2-0.8 2.4-0.4 1.1-0.9 2.1-0.6 1-1.2 2-0.6 1-1.4 1.9-0.7 0.9-1.5 1.7-0.9 0.9-1.9 1.7-1 0.8-2.1 1.5-1.1 0.7-2.3 1.3-1.1 0.5-2.3 1-1.4 0.5-2.9 0.9-1.4 0.4-2.9 0.6-1.4 0.3-2.9 0.4-1.5 0.1-3 0.1-1.9-0.1-3.7-0.3-1.9-0.2-3.7-0.5-1.8-0.4-3.6-0.9-1.8-0.5-3.5-1.2-0.9-0.3-1.7-0.7-0.8-0.3-1.6-0.7-0.8-0.4-1.6-0.9-0.8-0.4-1.6-0.9-0.7-0.4-1.4-0.9-0.7-0.5-1.4-1-0.7-0.5-1.3-1-0.7-0.6-1.3-1.2l5.3-8.4q0.2-0.2 0.3-0.4 0.2-0.2 0.4-0.4 0.2-0.2 0.5-0.4 0.2-0.2 0.4-0.3 0.3-0.1 0.6-0.3 0.2-0.1 0.5-0.2 0.3 0 0.6-0.1 0.3 0 0.6 0 0.4 0 0.8 0.1 0.5 0.1 0.9 0.2 0.4 0.1 0.8 0.3 0.4 0.2 0.7 0.4l3.6 2.2q0.6 0.4 1.1 0.7 0.6 0.3 1.2 0.5 0.6 0.3 1.2 0.6 0.6 0.2 1.2 0.5 0.8 0.3 1.6 0.6 0.8 0.2 1.7 0.4 0.8 0.2 1.6 0.3 0.9 0.1 1.7 0.2 1 0 2.1-0.1 1-0.1 2-0.3 1-0.3 1.9-0.8 0.9-0.4 1.8-1 0.7-0.7 1.2-1.4 0.6-0.8 0.9-1.7 0.4-0.9 0.5-1.8 0.2-1 0.1-1.9 0-0.6-0.1-1.2-0.1-0.6-0.3-1.1-0.1-0.6-0.4-1.1-0.3-0.5-0.7-1-0.4-0.4-0.8-0.8-0.5-0.4-1-0.8-0.5-0.3-1-0.6-0.5-0.3-1.1-0.6-0.6-0.3-1.3-0.6-0.7-0.2-1.4-0.5-0.7-0.2-1.4-0.5-0.7-0.2-1.4-0.4l-6.2-1.8q-0.8-0.3-1.6-0.6-0.8-0.3-1.6-0.6-0.7-0.3-1.5-0.7-0.8-0.3-1.5-0.7-0.8-0.4-1.5-0.8-0.8-0.5-1.5-1-0.7-0.5-1.3-1-0.7-0.6-1.3-1.2-0.6-0.6-1.1-1.3-0.6-0.8-1.1-1.5-0.5-0.8-0.9-1.6-0.4-0.8-0.7-1.7-0.4-1.1-0.7-2.2-0.3-1.1-0.5-2.2-0.2-1.2-0.3-2.3 0-1.2 0-2.3 0-1.1 0.1-2.2 0.1-1.1 0.4-2.2 0.2-1 0.5-2.1 0.3-1 0.8-2 0.4-1.1 0.9-2.1 0.6-1.1 1.2-2 0.7-1 1.4-1.9 0.8-0.9 1.6-1.7 0.9-0.9 1.9-1.6 0.9-0.8 2-1.4 1-0.7 2.1-1.2 1.1-0.6 2.2-1 1.4-0.5 2.7-0.9 1.4-0.4 2.8-0.6 1.5-0.2 2.9-0.4 1.4-0.1 2.9-0.1 0.8 0 1.7 0.1 0.8 0 1.7 0.1 0.9 0.1 1.7 0.2 0.9 0.1 1.7 0.3 0.9 0.1 1.7 0.2 0.8 0.2 1.6 0.4 0.8 0.2 1.6 0.4 0.7 0.3 1.5 0.6 0.7 0.2 1.4 0.5 0.7 0.3 1.4 0.6 0.7 0.4 1.4 0.7 0.7 0.4 1.4 0.7 0.6 0.4 1.2 0.8 0.7 0.4 1.2 0.8 0.6 0.4 1.2 0.9 0.6 0.5 1.1 0.9l-4.5 8.3q-0.1 0.3-0.3 0.6-0.2 0.3-0.4 0.5-0.2 0.2-0.4 0.5-0.3 0.2-0.5 0.4-0.3 0.1-0.5 0.3-0.3 0.1-0.6 0.2-0.3 0-0.6 0.1-0.3 0-0.6 0-0.3 0-0.7-0.1-0.3 0-0.6-0.1-0.4-0.1-0.7-0.3-0.3-0.1-0.6-0.3l-3.1-1.7q-0.5-0.2-1-0.5-0.5-0.2-1-0.4-0.5-0.2-1-0.4-0.5-0.2-1-0.4-0.7-0.2-1.3-0.4-0.6-0.1-1.3-0.2-0.6-0.1-1.3-0.1-0.7-0.1-1.3-0.1-1-0.1-2.1 0-1 0.1-2 0.4-1 0.2-1.9 0.7-1 0.5-1.8 1.1-0.6 0.6-1 1.2-0.5 0.7-0.8 1.4-0.3 0.8-0.5 1.5-0.2 0.8-0.1 1.6-0.1 0.6 0 1.1 0.1 0.5 0.3 1 0.2 0.5 0.5 1 0.2 0.4 0.6 0.8 0.4 0.4 0.9 0.8 0.4 0.4 0.9 0.7 0.5 0.4 1 0.6 0.6 0.3 1.1 0.6 0.7 0.3 1.3 0.6 0.7 0.2 1.4 0.5 0.7 0.2 1.4 0.5 0.7 0.2 1.4 0.4l6.3 2.1q0.8 0.2 1.6 0.5 0.8 0.4 1.6 0.7 0.8 0.3 1.5 0.7 0.8 0.4 1.6 0.8 0.7 0.3 1.4 0.8 0.8 0.4 1.5 0.9 0.7 0.5 1.3 1 0.7 0.6 1.3 1.1zm-489.1-38h17.9v45.6q0 1.7-0.2 3.4-0.1 1.6-0.4 3.3-0.3 1.6-0.7 3.2-0.5 1.6-1.1 3.2-0.5 1.4-1.2 2.8-0.7 1.3-1.5 2.6-0.8 1.3-1.8 2.5-0.9 1.2-2 2.3-1.1 1.1-2.3 2-1.2 1-2.5 1.8-1.3 0.9-2.7 1.6-1.4 0.7-2.9 1.3-3.3 1.1-6.8 1.7-3.4 0.6-7 0.6-3.5 0-7-0.6-3.4-0.6-6.7-1.7-1.5-0.6-2.9-1.3-1.4-0.7-2.7-1.5-1.3-0.9-2.5-1.8-1.2-1-2.3-2.1-1.1-1.1-2.1-2.3-0.9-1.2-1.8-2.5-0.8-1.3-1.5-2.6-0.6-1.4-1.1-2.8-0.6-1.6-1.1-3.2-0.4-1.6-0.7-3.2-0.3-1.7-0.4-3.3-0.2-1.7-0.2-3.4v-45.6h17.9v44.9q-0.1 1 0 1.9 0.1 0.9 0.2 1.8 0.1 0.9 0.3 1.8 0.2 0.9 0.5 1.8 0.2 0.7 0.5 1.4 0.3 0.8 0.7 1.5 0.4 0.6 0.8 1.3 0.5 0.7 1 1.3 0.5 0.5 1 1 0.6 0.5 1.2 0.9 0.6 0.4 1.2 0.8 0.6 0.4 1.3 0.7 1.6 0.5 3.2 0.8 1.6 0.3 3.2 0.3 1.7 0 3.3-0.3 1.6-0.3 3.2-0.8 0.7-0.3 1.3-0.7 0.6-0.3 1.2-0.8 0.6-0.4 1.2-0.9 0.5-0.5 1-1 0.5-0.6 1-1.3 0.4-0.6 0.8-1.3 0.4-0.7 0.7-1.4 0.3-0.7 0.5-1.5 0.3-0.9 0.5-1.8 0.2-0.9 0.3-1.8 0.1-0.9 0.2-1.8 0.1-0.9 0-1.9zm864.3 44.6q0.4 0.6 0.7 1.2 0.3 0.7 0.5 1.3 0.3 0.7 0.4 1.4 0.2 0.7 0.4 1.4 0.1 0.8 0.2 1.5 0.1 0.7 0.2 1.5 0 0.7 0 1.5 0 1.2-0.1 2.4-0.1 1.2-0.4 2.4-0.2 1.2-0.6 2.4-0.4 1.1-0.9 2.2-0.5 1.1-1.1 2.1-0.6 0.9-1.3 1.8-0.7 1-1.5 1.8-0.8 0.8-1.7 1.5-0.9 0.8-2 1.5-1 0.6-2.1 1.2-1.1 0.6-2.2 1.1-1.2 0.4-2.4 0.8-2.7 0.9-5.5 1.3-2.8 0.4-5.6 0.4-2.9 0-5.7-0.4-2.8-0.4-5.5-1.3-1.2-0.4-2.3-0.8-1.1-0.5-2.2-1.1-1.1-0.6-2.2-1.2-1-0.7-2-1.5-0.8-0.7-1.7-1.5-0.8-0.8-1.5-1.8-0.7-0.9-1.3-1.8-0.6-1-1-2.1-0.5-1.1-0.9-2.2-0.4-1.2-0.6-2.4-0.3-1.2-0.4-2.4-0.1-1.2-0.1-2.4 0-0.8 0.1-1.5 0-0.8 0.1-1.5 0.1-0.7 0.2-1.5 0.1-0.7 0.3-1.4 0.2-0.7 0.4-1.4 0.3-0.6 0.5-1.3 0.3-0.6 0.7-1.2 0.3-0.6 0.7-1.2 0.4-0.6 0.8-1.2 0.5-0.5 1-1 0.5-0.5 1.1-1 0.5-0.5 1.1-0.9 0.7-0.5 1.4-0.9 0.7-0.4 1.4-0.8 0.8-0.4 1.5-0.7 0.8-0.3 1.6-0.6-1.2-0.5-2.3-1.2-1.1-0.7-2.1-1.5-1-0.9-1.8-1.9-0.9-1-1.6-2.1-0.6-1.1-1.1-2.3-0.5-1.3-0.8-2.6-0.4-1.2-0.5-2.6-0.2-1.3-0.1-2.6 0-1.1 0.1-2.1 0.1-1.1 0.3-2.2 0.3-1 0.6-2 0.4-1 0.8-2 0.5-1 1.1-1.9 0.5-0.9 1.2-1.7 0.6-0.8 1.4-1.6 0.7-0.8 1.5-1.5 0.9-0.7 1.8-1.3 0.9-0.7 1.9-1.2 1-0.6 2-1 1-0.5 2.1-0.9 1.2-0.4 2.4-0.7 1.3-0.3 2.5-0.5 1.3-0.2 2.5-0.3 1.3-0.1 2.6-0.1 1.3 0 2.5 0.1 1.3 0.1 2.6 0.3 1.2 0.2 2.4 0.5 1.3 0.3 2.5 0.7 1 0.4 2.1 0.9 1 0.4 1.9 1 1 0.5 1.9 1.2 1 0.6 1.8 1.3 0.8 0.7 1.6 1.5 0.7 0.8 1.4 1.6 0.6 0.8 1.1 1.7 0.6 0.9 1 1.9 0.5 1 0.9 2 0.3 1 0.5 2 0.3 1.1 0.4 2.2 0.1 1 0.1 2.1 0 1.3-0.1 2.6-0.2 1.4-0.5 2.6-0.3 1.3-0.8 2.6-0.5 1.2-1.2 2.3-0.6 1.1-1.5 2.1-0.8 1-1.8 1.9-1 0.8-2.1 1.5-1.1 0.7-2.3 1.2 0.8 0.3 1.6 0.6 0.7 0.3 1.5 0.7 0.7 0.4 1.4 0.8 0.7 0.4 1.4 0.9 0.6 0.4 1.1 0.9 0.6 0.5 1.1 1 0.5 0.5 0.9 1 0.5 0.6 0.9 1.2c0.2 0.4 0.5 0.8 0.7 1.2zm-33.3-28.3q-0.1 0.5-0.1 0.9 0 0.4 0 0.9 0 0.4 0 0.8 0 0.5 0.1 0.9-0.1 0.5-0.1 1 0 0.5 0 1 0 0.5 0 1 0 0.5 0.1 1 0.1 0.4 0.2 0.9 0.1 0.4 0.3 0.8 0.2 0.5 0.4 0.9 0.2 0.4 0.5 0.8 0.2 0.3 0.5 0.7 0.4 0.3 0.7 0.6 0.3 0.3 0.7 0.5 0.4 0.3 0.8 0.5 1.1 0.5 2.2 0.7 1.1 0.2 2.3 0.2 1.2 0 2.3-0.2 1.1-0.2 2.2-0.7 0.4-0.2 0.8-0.5 0.3-0.2 0.7-0.5 0.3-0.3 0.6-0.6 0.3-0.4 0.6-0.7 0.3-0.4 0.5-0.8 0.2-0.4 0.4-0.9 0.2-0.4 0.3-0.8 0.1-0.5 0.2-0.9 0.1-0.5 0.1-1 0-0.5 0-1 0-0.5 0-1 0-0.5-0.1-1 0-0.4 0-0.9-0.1-0.4-0.1-0.9-0.1-0.4-0.2-0.8-0.1-0.5-0.2-0.9-0.1-0.4-0.2-0.8-0.2-0.4-0.4-0.7-0.2-0.4-0.4-0.8-0.3-0.3-0.5-0.6-0.3-0.4-0.6-0.6-0.4-0.3-0.7-0.6-0.4-0.3-0.7-0.5-0.4-0.2-0.8-0.4-0.5-0.2-1-0.4-0.5-0.1-1.1-0.2-0.5-0.1-1-0.2-0.6 0-1.1 0-0.5 0-1 0-0.6 0.1-1.1 0.2-0.5 0.1-1 0.2-0.5 0.2-1 0.4-0.4 0.2-0.8 0.4-0.4 0.2-0.7 0.5-0.4 0.2-0.7 0.5-0.3 0.3-0.6 0.7-0.3 0.3-0.5 0.6-0.2 0.4-0.4 0.8-0.2 0.3-0.4 0.7-0.1 0.4-0.2 0.8zm18.2 41q0.1-0.5 0.2-1.1 0.1-0.5 0.1-1.1 0-0.5 0-1 0-0.6 0-1.2-0.1-0.6-0.1-1.1-0.1-0.6-0.2-1.2-0.1-0.6-0.3-1.1-0.1-0.5-0.2-1-0.2-0.4-0.4-0.9-0.2-0.4-0.5-0.8-0.3-0.4-0.6-0.8-0.3-0.4-0.7-0.7-0.3-0.4-0.7-0.6-0.5-0.3-0.9-0.5-0.5-0.3-0.9-0.4-1.2-0.5-2.5-0.7-1.3-0.2-2.6-0.2-1.2 0-2.5 0.2-1.3 0.2-2.5 0.7-0.5 0.1-0.9 0.4-0.5 0.2-0.9 0.5-0.4 0.2-0.8 0.6-0.3 0.3-0.7 0.7-0.3 0.4-0.5 0.8-0.3 0.4-0.5 0.9-0.2 0.4-0.4 0.9-0.1 0.4-0.3 0.9-0.1 0.5-0.2 1.1-0.1 0.6-0.2 1.2 0 0.5-0.1 1.1 0 0.6 0 1.2 0 0.5 0 1 0.1 0.6 0.2 1.1 0 0.5 0.2 1.1 0.1 0.5 0.2 1 0.1 0.5 0.3 1 0.2 0.4 0.4 0.9 0.3 0.4 0.6 0.8 0.3 0.4 0.7 0.7 0.3 0.4 0.6 0.8 0.4 0.3 0.8 0.6 0.4 0.3 0.9 0.5 0.4 0.3 0.9 0.5 1.1 0.4 2.3 0.6 1.2 0.2 2.4 0.2 1.3 0 2.4-0.2 1.2-0.2 2.4-0.6 0.5-0.2 0.9-0.4 0.5-0.3 0.9-0.6 0.4-0.3 0.8-0.6 0.4-0.4 0.7-0.8 0.3-0.3 0.6-0.7 0.3-0.4 0.5-0.9 0.2-0.4 0.4-0.9 0.2-0.4 0.4-0.9 0.1-0.5 0.3-1zm-483.8-57.3h49.5v13.1h-31v17.9h24.1v13.3h-24.1v18.4h31v13.8h-49.3zm-264.5 47.1q0.4 0.4 0.7 0.8 0.3 0.4 0.6 0.8 0.2 0.4 0.4 0.9l16.3 26.8h-16.1q-1 0-1.9-0.2-1-0.2-1.8-0.6-0.9-0.5-1.6-1.1-0.7-0.7-1.1-1.5l-12.8-22.4q-0.2-0.4-0.4-0.7-0.2-0.3-0.4-0.5-0.3-0.3-0.6-0.5-0.2-0.2-0.6-0.4-0.3-0.2-0.7-0.3-0.4-0.1-0.8-0.2-0.4-0.1-0.8-0.1-0.4-0.1-0.8 0h-4.6v28.8h-17.4v-76.7h25.1q1.8-0.1 3.6-0.1 1.7 0 3.5 0.2 1.8 0.1 3.5 0.4 1.7 0.2 3.5 0.6 1.3 0.4 2.5 0.8 1.3 0.5 2.5 1.1 1.2 0.6 2.4 1.4 1.1 0.7 2.2 1.5 0.9 0.7 1.7 1.6 0.8 0.8 1.5 1.7 0.6 0.9 1.2 1.9 0.6 1 1 2.1 0.4 1.1 0.7 2.2 0.3 1.1 0.5 2.3 0.2 1.1 0.3 2.3 0.1 1.1 0.1 2.3 0 0.9 0 1.8-0.1 0.9-0.2 1.8-0.1 0.9-0.3 1.8-0.2 0.8-0.5 1.7-0.2 0.8-0.5 1.6-0.3 0.8-0.7 1.6-0.4 0.8-0.8 1.5-0.4 0.7-0.9 1.4-0.5 0.7-1.1 1.4-0.6 0.7-1.2 1.3-0.6 0.7-1.2 1.3-0.7 0.5-1.4 1.1-0.7 0.6-1.5 1.1-0.8 0.5-1.7 1-0.8 0.4-1.6 0.8-0.9 0.4-1.8 0.7 0.5 0.2 0.9 0.5 0.4 0.3 0.8 0.5 0.5 0.3 0.9 0.6 0.4 0.3 0.7 0.7 0.4 0.3 0.7 0.6zm-6.7-18.8q0 0.1-0.1 0.2 0 0 0 0.1zm0 0.2q0.2-0.7 0.4-1.3 0.2-0.7 0.3-1.4 0.2-0.7 0.2-1.4 0.1-0.7 0.1-1.4 0-1.1-0.2-2.2-0.2-1.1-0.6-2.1-0.5-1-1.1-1.9-0.7-0.8-1.5-1.6-1.1-0.8-2.3-1.4-1.2-0.6-2.5-0.9-1.3-0.4-2.6-0.5-1.4-0.1-2.7 0h-7.8v23.2h7.6q0.8 0 1.6 0 0.8 0 1.6-0.2 0.7-0.1 1.5-0.3 0.8-0.2 1.5-0.4 0.6-0.2 1.2-0.5 0.5-0.2 1-0.6 0.6-0.3 1.1-0.7 0.5-0.3 0.9-0.8 0.4-0.4 0.7-0.8 0.4-0.5 0.7-1 0.3-0.5 0.5-1 0.2-0.4 0.4-0.8zm59.9-28.6h49.4v13.1h-31.5v17.9h24.1v13.2h-24.1v18.4h31.5v14h-49.4zm142.3 34.4q0.7 0.7 1.3 1.5 0.6 0.8 1 1.7 0.3 0.9 0.5 1.8 0.2 1 0.2 1.9 0 1.5-0.5 2.9-0.4 1.4-1.2 2.6-0.8 1.2-2 2.1-1.1 1-2.5 1.5-0.4 0.2-0.9 0.4-0.5 0.1-1 0.2-0.5 0.1-1 0.2-0.5 0-1 0-0.5 0-1 0-0.5-0.1-1-0.2-0.4-0.1-0.9-0.2-0.5-0.2-0.9-0.4-0.4-0.2-0.9-0.4-0.4-0.3-0.8-0.5-0.3-0.3-0.7-0.6-0.4-0.3-0.7-0.7-0.4-0.3-0.7-0.6-0.3-0.4-0.5-0.8-0.3-0.4-0.5-0.8-0.2-0.4-0.4-0.9-0.2-0.4-0.4-0.9-0.1-0.4-0.2-0.9-0.1-0.5-0.2-1-0.1-0.5-0.1-1 0-0.5 0.1-1 0.1-0.5 0.2-1 0.1-0.5 0.2-1 0.2-0.4 0.4-0.9 0.6-1.3 1.5-2.5 0.9-1.1 2.1-1.9 1.2-0.8 2.6-1.3 1.3-0.4 2.8-0.4 0.5 0 1 0 0.5 0.1 1 0.2 0.5 0.1 1 0.2 0.5 0.2 0.9 0.3 0.5 0.2 0.9 0.5 0.4 0.2 0.8 0.5 0.4 0.3 0.8 0.6 0.4 0.3 0.7 0.6z"/>
</svg>