<svg version="1.2" xmlns="http://www.w3.org/2000/svg" viewBox="0 0 1601 336" width="1601" height="336">
	<title>logo (8)-svg</title>
	<style>
		.s0 { fill: #ffffff } 
		.s1 { fill: #f15a4e } 
	</style>
	<g id="Layer_2">
		<g id="Layer_1-2">
			<path id="Layer" fill-rule="evenodd" class="s0" d="m692.5 6.1h22.9v130.7h-22.9zm177.8 132.4c-3.3 0-25.5-0.9-25.5-28.2v-57.1h-13.1v-17.5h13.1v-29.6h22.5v29.6h24.4v17.5h-24.4v55.2q0 1 0.2 2 0.2 1 0.6 1.9 0.4 0.9 0.9 1.8 0.6 0.8 1.3 1.5 0.8 0.5 1.6 0.9 0.8 0.5 1.7 0.7 0.8 0.3 1.7 0.5 0.9 0.1 1.9 0.1 1.5-0.1 3.1-0.4 1.5-0.3 3-0.8 1.4-0.6 2.8-1.4 1.3-0.8 2.5-1.8l8.8 16q-2.8 2.3-6 4.1-3.2 1.8-6.7 3-3.4 1.1-7.1 1.6-3.6 0.6-7.3 0.4zm277.6-1.6h-22.5v-101.2h20.9v20q1.2-2.1 2.5-4 1.3-1.9 2.8-3.6 1.5-1.8 3.2-3.4 1.7-1.6 3.5-3 2-1.6 4.2-2.8 2.2-1.2 4.5-2.1 2.3-0.9 4.8-1.4 2.4-0.5 4.9-0.7 0.6 0 1.3 0 0.7-0.1 1.4 0 0.6 0 1.3 0.1 0.7 0.1 1.3 0.3v20.2h-0.7q-2.7 0.1-5.4 0.5-2.6 0.4-5.2 1.1-2.6 0.7-5.1 1.8-2.5 1.1-4.8 2.5-2.2 1.3-4.1 2.9-1.9 1.6-3.6 3.6-1.6 1.9-2.9 4.1-1.3 2.2-2.2 4.6zm126-25.6c0 7.5 6.5 6.1 6.5 6.1v19.3q-1.2 0.2-2.4 0.4-1.1 0.2-2.3 0.4-1.2 0.1-2.4 0.2-1.2 0-2.4 0.1-1.5 0.1-2.9-0.1-1.5-0.2-2.9-0.6-1.5-0.4-2.8-1-1.3-0.7-2.5-1.6-1.2-1.1-2.2-2.3-0.9-1.3-1.6-2.8-0.7-1.4-1.1-2.9-0.4-1.6-0.5-3.2c-5.7 7.7-15.6 15.4-34.8 15.4q-1.9 0-3.9-0.1-1.9-0.2-3.8-0.5-1.9-0.3-3.8-0.8-1.9-0.4-3.7-1-1.6-0.6-3.1-1.3-1.6-0.7-3-1.5-1.4-0.9-2.8-1.9-1.4-0.9-2.6-2-1.1-1.1-2.2-2.3-1-1.2-1.9-2.5-0.9-1.2-1.7-2.6-0.8-1.3-1.4-2.8-0.7-1.5-1.2-3-0.5-1.6-0.8-3.2-0.3-1.6-0.5-3.2-0.1-1.6-0.1-3.3c0-31 36.4-32.3 42.7-32.3q3.2 0 6.4 0.3 3.2 0.3 6.4 0.7 3.2 0.5 6.4 1.1 3.1 0.6 6.2 1.4v-4.7q0.1-2.2-0.2-4.3-0.4-2.2-1.1-4.3-0.8-2-2-3.9-1.2-1.9-2.7-3.5-1.8-1.5-3.9-2.6-2.1-1.1-4.3-1.9-2.3-0.7-4.6-1-2.4-0.3-4.7-0.1-3.9 0.1-7.7 0.7-3.9 0.7-7.5 1.9-3.7 1.2-7.2 2.9-3.5 1.8-6.6 4l-8.6-15.4 0.6-0.4q4.1-3.1 8.7-5.4 4.6-2.4 9.5-4 5-1.6 10.1-2.3 5.1-0.8 10.3-0.6 4.5-0.1 8.9 0.7 4.4 0.8 8.6 2.4 4.1 1.6 8 3.9 3.8 2.4 7.1 5.4 3 2.9 5.3 6.3 2.3 3.5 3.8 7.3 1.6 3.9 2.2 8 0.7 4.1 0.4 8.3v36zm-50.7 10.9c22.7 0 28.5-15.8 28.5-24.1v-5.3q-2.8-0.8-5.6-1.5-2.8-0.6-5.6-1-2.8-0.5-5.6-0.8-2.9-0.2-5.8-0.3-2.3-0.1-4.6 0.1-2.3 0.2-4.6 0.7-2.3 0.5-4.5 1.4-2.1 0.8-4.2 2-1.5 0.9-2.8 2.1-1.3 1.3-2.2 2.9-0.9 1.5-1.4 3.3-0.4 1.7-0.4 3.6 0 1.6 0.3 3.3 0.4 1.6 1.1 3.2 0.6 1.5 1.7 2.9 1 1.3 2.2 2.4 1.4 1.3 3 2.2 1.6 0.9 3.3 1.6 1.8 0.6 3.6 0.9 1.8 0.3 3.7 0.2zm-399.1-45.9v60.4h-22.5v-56.5c0-16.5-6.5-26.1-19.2-26.1-2.9 0-20.1 0.7-26.6 22.8v60h-22.5v-101.2h20.5v18c1.8-3.1 3.9-5.9 6.3-8.3 2.5-2.5 5.3-4.6 8.3-6.4 3.1-1.7 6.3-3 9.7-3.9 3.4-0.8 6.9-1.2 10.4-1.1 10.9 0 35.6 8.9 35.6 42.3zm173.9-9.5q0.8 2.4 1.5 4.8 0.6 2.4 1 4.9 0.5 2.4 0.7 4.9 0.2 2.5 0.2 5 0 2.3 0 4.4-0.4 2-0.4 3.4v0.6h-80q0.1 1.3 0.4 2.7 0.2 1.3 0.6 2.6 0.4 1.3 0.9 2.6 0.5 1.2 1.1 2.4 0.6 1.2 1.4 2.4 0.7 1.1 1.5 2.2 0.8 1.1 1.8 2.1 0.9 1 1.9 1.9 1 0.8 2.1 1.6 1.1 0.8 2.2 1.4 1.2 0.7 2.4 1.3 1.2 0.5 2.5 1 2.2 0.8 4.6 1.3 2.4 0.5 4.8 0.6 2.4 0.1 4.8-0.1 2.4-0.3 4.8-0.9 0.9-0.2 1.9-0.5 1-0.3 1.9-0.6 1-0.4 1.9-0.8 0.9-0.4 1.8-0.9 0.9-0.4 1.7-1 0.8-0.5 1.6-1.1 0.8-0.6 1.5-1.3 0.8-0.6 1.5-1.3 0.6-0.6 1.2-1.2 0.6-0.6 1.1-1.3 0.5-0.7 1-1.4 0.4-0.7 0.8-1.4l0.3-0.6 20.5 5.9-0.4 0.8q-1.5 2.9-3.4 5.6-1.9 2.7-4.1 5.1-2.3 2.4-5 4.4-2.6 2-5.5 3.6-3.3 1.8-6.8 3.2-3.6 1.4-7.3 2.3-3.6 0.9-7.4 1.4-3.8 0.4-7.6 0.3-2.7 0.1-5.5-0.2-2.7-0.2-5.4-0.8-2.7-0.5-5.3-1.3-2.6-0.8-5.1-1.8-2.4-1-4.6-2.2-2.2-1.2-4.3-2.6-2-1.5-4-3.1-1.9-1.6-3.7-3.4-1.7-1.8-3.2-3.8-1.6-1.9-2.9-4-1.3-2.1-2.5-4.3-1.1-2.2-2-4.5-1-2.4-1.7-4.9-0.7-2.5-1.2-5-0.5-2.5-0.7-5.1-0.2-2.6-0.2-5.1 0-2.6 0.2-5.2 0.3-2.5 0.7-5.1 0.5-2.5 1.2-5 0.7-2.5 1.7-4.9 0.9-2.3 2-4.5 1.2-2.3 2.5-4.4 1.3-2.1 2.9-4.1 1.5-1.9 3.2-3.8 1.8-1.8 3.7-3.4 1.9-1.7 4-3.1 2.1-1.4 4.3-2.7 2.2-1.2 4.6-2.2 2.5-1 5.2-1.8 2.7-0.8 5.4-1.3 2.7-0.6 5.5-0.8 2.7-0.3 5.5-0.2 2.8 0 5.5 0.2 2.7 0.3 5.4 0.8 2.7 0.5 5.3 1.3 2.6 0.9 5.2 1.9 2.3 1 4.5 2.2 2.2 1.2 4.3 2.7 2.1 1.4 4 3 1.9 1.6 3.7 3.4 1.6 1.8 3.1 3.8 1.4 1.9 2.6 4 1.3 2 2.3 4.2 1 2.2 1.9 4.5zm-19.1 12c-0.2-2.6-0.7-5.2-1.6-7.6-0.9-2.5-2.1-4.8-3.7-6.9-1.5-2.2-3.4-4.1-5.5-5.7-2-1.6-4.3-2.9-6.8-3.8q-2.6-1-5.4-1.5-2.8-0.5-5.6-0.5-2.9 0-5.7 0.5-2.8 0.5-5.4 1.5-1.2 0.4-2.4 1-1.2 0.6-2.3 1.2-1.1 0.7-2.2 1.5-1 0.7-2 1.6-1 0.9-1.9 1.9-0.9 1-1.7 2-0.7 1.1-1.4 2.2-0.7 1.2-1.3 2.4-0.5 1.2-1 2.4-0.5 1.2-0.8 2.5-0.4 1.3-0.6 2.6-0.3 1.3-0.4 2.6h57.6zm132.3-43.3v95.6c0 15.3-3.1 28.5-15.6 39.2q-2 1.5-4 2.8-2.1 1.4-4.3 2.5-2.1 1.1-4.4 2-2.3 0.9-4.7 1.6-2.6 0.7-5.2 1.3-2.7 0.6-5.3 1-2.7 0.4-5.4 0.6-2.7 0.2-5.4 0.2-6.5-0.1-12.8-1.3-6.4-1.3-12.3-3.8-6-2.5-11.4-6.1-5.4-3.6-9.9-8.2l12.4-15.1q3.3 3.5 7.2 6.2 3.9 2.7 8.3 4.5 4.4 1.9 9.1 2.8 4.6 1 9.4 1c19.3 0 33.3-9 33.3-27.8v-14.2q-1.3 2-2.9 3.8-1.6 1.9-3.4 3.4-1.8 1.6-3.9 2.9-2 1.3-4.2 2.4-2.5 1.1-5.1 2-2.6 0.9-5.3 1.5-2.7 0.6-5.4 0.9-2.8 0.3-5.5 0.3-2.4 0-4.9-0.2-2.4-0.3-4.8-0.8-2.3-0.5-4.6-1.3-2.3-0.8-4.5-1.9-2.1-1-4.1-2.2-2-1.2-3.8-2.6-1.9-1.4-3.6-3-1.6-1.6-3.2-3.4-1.5-1.8-2.9-3.8-1.3-1.9-2.5-4-1.2-2-2.2-4.2-1-2.2-1.8-4.4-0.9-2.3-1.5-4.8-0.7-2.4-1.1-4.8-0.4-2.5-0.6-4.9-0.2-2.5-0.2-5 0-2.6 0.2-5.2 0.2-2.6 0.6-5.1 0.5-2.6 1.1-5.1 0.7-2.5 1.6-5 0.8-2.2 1.8-4.4 1-2.2 2.2-4.3 1.2-2.1 2.6-4.1 1.4-2 3-3.8 1.6-1.7 3.3-3.3 1.7-1.6 3.6-3.1 1.8-1.4 3.8-2.6 2-1.2 4.1-2.2c3.2-1.5 6.6-2.6 10-3.3 3.4-0.7 6.9-1 10.4-0.9 3.5 0.1 7 0.6 10.4 1.5 3.4 0.8 6.7 2.1 9.8 3.7q2.1 1.2 4 2.6 1.9 1.4 3.7 3.1 1.7 1.6 3.2 3.5 1.5 1.8 2.8 3.8v-16.5zm-25.1 63.4q0.5-1.5 1-3 0.4-1.5 0.7-3 0.3-1.5 0.4-3.1 0.2-1.6 0.2-3.1 0-1.6-0.2-3.2-0.1-1.5-0.4-3.1-0.2-1.5-0.6-3-0.4-1.6-0.9-3-0.5-1.5-1.1-2.9-0.6-1.4-1.3-2.7-0.7-1.3-1.5-2.6-0.9-1.3-1.8-2.5-0.9-1.2-1.9-2.2-1.1-1.1-2.2-2-1.1-1-2.4-1.8-1.2-0.9-2.5-1.6-2.8-1.4-5.9-2.1-3.1-0.7-6.3-0.7-3.2 0-6.3 0.7-3.1 0.7-6 2.1-1.3 0.8-2.5 1.6-1.2 0.8-2.3 1.8-1.1 1-2.2 2-1 1.1-1.9 2.3-0.9 1.2-1.7 2.4-0.9 1.3-1.6 2.7-0.7 1.3-1.3 2.7-0.6 1.4-1.1 2.8-0.5 1.5-0.9 3-0.4 1.5-0.6 3.1-0.3 1.5-0.4 3.1-0.1 1.6-0.1 3.1 0 1.6 0.1 3.1 0.1 1.6 0.4 3.1 0.3 1.6 0.7 3.1 0.5 1.5 1.1 2.9c8 18.7 22.4 19.3 26.6 19.3 3 0 5.9-0.5 8.7-1.4 2.8-0.9 5.4-2.2 7.8-3.9 2.4-1.7 4.5-3.8 6.2-6.2 1.7-2.4 3.1-5 4-7.8zm242 37.8q-1.5 0.3-3 0.6-1.6 0.3-3.1 0.4-1.6 0.2-3.1 0.3-1.6 0.1-3.1 0.1c-3.4 0-25.5-0.8-25.5-28.2v-103.9h22.5v103.2q0 1 0.1 1.9 0.2 1 0.6 1.9 0.4 1 1 1.8 0.6 0.8 1.3 1.4 1.4 0.8 3 1.2 1.5 0.5 3 0.7 1.6 0.2 3.2 0.1 1.6-0.1 3.1-0.5z"/>
			<path id="Layer" class="s1" d="m1 239.9h65.3v91.5h-65.3zm623.4-0.2c-1.1 13-4.6 25.6-10.3 37.3-5.7 11.7-13.5 22.2-23.1 31-9.6 8.8-20.7 15.7-32.8 20.5-12.1 4.7-25 7.1-38 7.2h-3c-11.5-0.3-22.9-2.5-33.7-6.6-10.9-4-20.9-9.8-29.9-17.1-8.9-7.3-16.5-16-22.6-25.8-6.1-9.8-10.5-20.6-13-31.8q-0.5-1.8-0.8-3.6-0.4-1.9-0.7-3.7-0.3-1.8-0.5-3.7-0.2-1.8-0.4-3.7h65.4c1 4.4 2.7 8.6 5.1 12.4 2.4 3.9 5.4 7.3 8.9 10.1 3.5 2.8 7.4 5 11.7 6.5 4.2 1.5 8.7 2.3 13.2 2.3h1.8c4.4-0.2 8.7-1.1 12.8-2.6 4.1-1.6 7.9-3.8 11.2-6.7 3.4-2.8 6.3-6.1 8.5-9.9 2.3-3.7 3.9-7.8 4.9-12.1zm-542.4 91.7l39.3-91.5h67.1l-39.5 91.5h-66.9zm310.2-91.5l39.2 91.5h-66.9l-38.3-91.5h66z"/>
			<path id="Layer" fill-rule="evenodd" class="s1" d="m743.7 200.3l52 130h-24.3l-14.2-36.7h-51l-14.1 36.7h-24.4l52.3-130.5h23.5zm-12.1 24.8l-19.3 50.9h38.1zm398.3 73.2l20.9 7.2-0.4 0.8q-1.3 2.9-3.1 5.6-1.7 2.6-3.9 5-2.1 2.4-4.6 4.4-2.5 2-5.3 3.7-3.1 1.8-6.5 3.2-3.4 1.4-6.9 2.3-3.6 0.9-7.2 1.3-3.7 0.4-7.4 0.3-2.7 0-5.4-0.2-2.8-0.3-5.4-0.8-2.7-0.6-5.3-1.4-2.7-0.8-5.2-1.9-2.3-1-4.5-2.2-2.3-1.2-4.3-2.7-2.1-1.4-4-3.1-2-1.6-3.7-3.5-1.7-1.8-3.3-3.7-1.5-2-2.9-4.1-1.3-2.1-2.4-4.3-1.2-2.2-2.1-4.5-0.9-2.4-1.6-4.9-0.8-2.5-1.2-5-0.5-2.5-0.8-5.1-0.2-2.6-0.2-5.1 0-2.6 0.2-5.2 0.3-2.5 0.7-5 0.5-2.6 1.2-5 0.7-2.5 1.6-4.9 1.8-4.7 4.5-8.9 2.7-4.2 6.2-7.8 3.5-3.6 7.7-6.4 4.1-2.8 8.8-4.7 2.5-1.1 5.2-1.9 2.6-0.8 5.4-1.3 2.7-0.5 5.5-0.8 2.7-0.2 5.5-0.2 3.5-0.1 7 0.3 3.6 0.4 7 1.3 3.4 0.9 6.7 2.2 3.2 1.3 6.3 3.1 2.7 1.6 5.2 3.5 2.5 2 4.7 4.3 2.1 2.2 4 4.8 1.8 2.6 3.2 5.4l0.4 0.8-20.7 7.2-0.3-0.5q-0.9-1.5-2-2.9-1.1-1.3-2.4-2.5-1.2-1.2-2.6-2.2-1.5-1-3-1.8-1.6-0.9-3.3-1.5-1.7-0.6-3.5-1.1-1.7-0.4-3.6-0.6-1.8-0.2-3.6-0.2-1.5 0-2.9 0.1-1.5 0.2-3 0.5-1.4 0.3-2.8 0.8-1.4 0.4-2.8 1-1.3 0.6-2.6 1.3-1.2 0.7-2.4 1.6-1.1 0.8-2.2 1.8-1.1 0.9-2.1 2-1 1.1-1.9 2.3-0.9 1.2-1.6 2.5-0.8 1.3-1.5 2.6-0.6 1.4-1.2 2.8-0.6 1.5-1 3.2-0.4 1.6-0.7 3.2-0.3 1.7-0.5 3.4-0.1 1.6-0.1 3.3 0 1.7 0.1 3.3 0.2 1.7 0.5 3.3 0.3 1.6 0.7 3.2 0.4 1.6 1 3.2 0.6 1.4 1.3 2.8 0.6 1.3 1.4 2.7 0.8 1.3 1.7 2.5 1 1.2 2 2.4 1 1 2.1 2 1.1 1 2.2 1.9 1.2 0.8 2.5 1.6 1.2 0.7 2.6 1.3 2.2 1 4.6 1.6 2.4 0.6 4.8 0.8 2.5 0.2 5 0 2.4-0.3 4.8-0.9 0.9-0.3 1.8-0.6 1-0.3 1.9-0.6 0.9-0.4 1.7-0.8 0.9-0.4 1.8-0.9 0.8-0.4 1.5-0.9 0.7-0.5 1.5-1 0.7-0.5 1.4-1.1 0.6-0.6 1.3-1.2 0.5-0.5 1.1-1.1 0.5-0.6 0.9-1.2 0.5-0.6 0.9-1.3 0.3-0.7 0.7-1.4zm344 0l20.6 7-0.3 0.8q-1.3 2.9-3.1 5.6-1.7 2.7-3.8 5.1-2.1 2.4-4.6 4.5-2.5 2-5.2 3.7-3.2 1.8-6.6 3.2-3.3 1.4-6.9 2.4-3.5 0.9-7.2 1.3-3.6 0.4-7.3 0.3-2.7 0-5.4-0.2-2.8-0.3-5.5-0.8-2.6-0.6-5.3-1.4-2.6-0.8-5.1-1.9-2.3-1-4.5-2.2-2.3-1.2-4.3-2.7-2.1-1.4-4.1-3.1-1.9-1.6-3.6-3.5-1.7-1.8-3.3-3.7-1.5-2-2.9-4.1-1.3-2.1-2.4-4.3-1.2-2.2-2.1-4.5-0.9-2.4-1.7-4.9-0.7-2.5-1.2-5-0.4-2.5-0.7-5.1-0.2-2.6-0.2-5.1 0-2.6 0.2-5.2 0.3-2.5 0.7-5 0.5-2.6 1.2-5 0.7-2.5 1.6-4.9 1.8-4.7 4.5-8.9 2.7-4.3 6.2-7.9 3.5-3.6 7.6-6.4 4.2-2.8 8.8-4.7 2.6-1.1 5.2-1.9 2.7-0.8 5.4-1.3 2.7-0.5 5.5-0.8 2.8-0.2 5.5-0.2 3.6-0.1 7.1 0.3 3.5 0.4 6.9 1.3 3.4 0.9 6.7 2.2 3.3 1.3 6.3 3.1 2.8 1.6 5.3 3.5 2.5 2 4.6 4.3 2.2 2.3 4 4.9 1.9 2.6 3.3 5.5l0.4 0.8-21 7.1-0.4-0.5q-0.9-1.5-1.9-2.8-1.1-1.4-2.4-2.6-1.2-1.1-2.6-2.2-1.4-1-2.9-1.8-1.6-0.9-3.3-1.5-1.7-0.6-3.5-1.1-1.8-0.4-3.6-0.6-1.8-0.2-3.6-0.2-1.5 0-3 0.2-1.4 0.1-2.9 0.4-1.4 0.3-2.9 0.8-1.4 0.4-2.7 1-1.3 0.6-2.6 1.3-1.2 0.7-2.4 1.6-1.2 0.8-2.3 1.8-1 0.9-2 2-1 1.1-1.9 2.3-0.9 1.2-1.7 2.5-0.8 1.3-1.4 2.6-0.7 1.4-1.2 2.8-0.6 1.5-1 3.1-0.4 1.6-0.7 3.3-0.3 1.6-0.4 3.3-0.1 1.7-0.1 3.3 0 1.7 0.1 3.3 0.1 1.7 0.4 3.3 0.3 1.6 0.8 3.2 0.4 1.6 1 3.2 0.6 1.4 1.3 2.8 0.6 1.3 1.4 2.7 0.8 1.3 1.8 2.5 0.9 1.2 1.9 2.4 1 1 2.1 2 1.1 1 2.3 1.9 1.2 0.8 2.4 1.6 1.3 0.7 2.6 1.3 2.3 1 4.6 1.6 2.4 0.6 4.9 0.8 2.4 0.2 4.9 0 2.4-0.3 4.8-0.9 0.9-0.3 1.9-0.6 0.9-0.3 1.8-0.6 0.9-0.4 1.8-0.8 0.9-0.4 1.7-0.9 0.8-0.4 1.5-0.9 0.8-0.5 1.5-1 0.7-0.5 1.4-1.1 0.7-0.6 1.3-1.2 0.6-0.5 1.1-1.1 0.5-0.6 0.9-1.2 0.5-0.6 0.9-1.3 0.4-0.7 0.7-1.4zm-315.9-102.4h22.7v22.9h-22.7zm0 33.2h22.7v101h-22.7zm232.8 40.6v60.6h-22.5v-56.6c0-16.5-6.5-26.1-19.2-26.1-2.9 0-20.1 0.7-26.6 22.8v59.9h-22.5v-101.2h20.6v18.1c1.7-3.1 3.8-5.9 6.3-8.3 2.4-2.5 5.2-4.6 8.2-6.4 3.1-1.7 6.3-3 9.7-3.9 3.4-0.8 6.9-1.2 10.4-1.2 11 0 35.6 9 35.6 42.3zm-101.4-10q0.8 2.3 1.5 4.7 0.6 2.5 1 4.9 0.5 2.5 0.7 5 0.2 2.5 0.2 5 0 2.3 0 4.4-0.4 2-0.4 3.3v0.6h-80q0.1 1.4 0.4 2.7 0.2 1.4 0.6 2.7 0.4 1.3 0.9 2.5 0.5 1.3 1.1 2.5 0.6 1.2 1.4 2.3 0.7 1.2 1.5 2.2 0.8 1.1 1.8 2.1 0.9 1 1.9 1.9 1 0.9 2.1 1.7 1.1 0.7 2.2 1.4 1.2 0.7 2.4 1.2 1.2 0.6 2.5 1 2.2 0.9 4.6 1.3 2.4 0.5 4.8 0.6 2.4 0.1 4.8-0.1 2.4-0.2 4.8-0.8 0.9-0.2 1.9-0.5 1-0.3 1.9-0.7 1-0.3 1.9-0.7 0.9-0.5 1.8-0.9 0.9-0.5 1.7-1 0.8-0.5 1.5-1 0.8-0.6 1.5-1.2 0.7-0.6 1.4-1.3 0.6-0.6 1.2-1.2 0.6-0.6 1.1-1.3 0.5-0.7 1-1.4 0.5-0.7 0.9-1.4l0.2-0.6 20.6 5.9-0.4 0.8q-1.4 3-3.3 5.7-1.9 2.7-4.2 5-2.3 2.4-4.9 4.4-2.6 2-5.5 3.6-3.4 1.8-6.9 3.2-3.6 1.4-7.2 2.2-3.7 0.9-7.5 1.4-3.8 0.4-7.6 0.3-2.7 0-5.5-0.2-2.7-0.3-5.4-0.8-2.7-0.5-5.3-1.3-2.6-0.8-5.1-1.9-2.4-1-4.6-2.2-2.2-1.2-4.3-2.6-2.1-1.4-4-3-1.9-1.7-3.7-3.5-1.7-1.8-3.2-3.7-1.6-2-2.9-4.1-1.4-2.1-2.5-4.3-1.1-2.2-2-4.5-1-2.4-1.7-4.9-0.7-2.4-1.2-5-0.5-2.5-0.7-5-0.2-2.6-0.2-5.2 0-2.6 0.2-5.1 0.2-2.6 0.7-5.1 0.5-2.6 1.2-5 0.7-2.5 1.7-4.9 0.9-2.3 2-4.6 1.1-2.2 2.5-4.3 1.3-2.1 2.9-4.1 1.5-2 3.2-3.8 1.8-1.8 3.7-3.5 1.9-1.6 4-3.1 2.1-1.4 4.3-2.6 2.2-1.2 4.6-2.2 2.5-1.1 5.2-1.9 2.7-0.8 5.4-1.3 2.7-0.5 5.5-0.8 2.7-0.2 5.5-0.2 2.8 0 5.5 0.3 2.7 0.2 5.4 0.8 2.7 0.5 5.3 1.3 2.6 0.8 5.2 1.9 2.3 1 4.5 2.2 2.2 1.2 4.3 2.6 2.1 1.4 4.1 3.1 1.9 1.6 3.7 3.4 1.6 1.8 3.1 3.7 1.4 2 2.6 4 1.3 2.1 2.3 4.3 1 2.1 1.9 4.4zm-19.1 11.8c-0.2-2.6-0.7-5.2-1.6-7.6-0.9-2.5-2.1-4.8-3.7-7-1.5-2.1-3.4-4-5.5-5.6-2-1.6-4.3-2.9-6.8-3.8q-2.6-1-5.4-1.5-2.8-0.5-5.6-0.5-2.9 0-5.7 0.5-2.8 0.5-5.4 1.5-1.2 0.4-2.4 1-1.2 0.5-2.3 1.2-1.1 0.7-2.2 1.5-1 0.7-2 1.6-1 0.9-1.9 1.9-0.9 0.9-1.7 2-0.7 1.1-1.4 2.2-0.7 1.2-1.3 2.4-0.5 1.1-1 2.4-0.5 1.2-0.8 2.5-0.4 1.3-0.6 2.6-0.3 1.3-0.4 2.6h57.6zm327.1-11.9q0.8 2.4 1.5 4.8 0.6 2.4 1 4.9 0.5 2.5 0.7 5 0.2 2.5 0.2 5 0 2.3 0 4.3-0.4 2-0.4 3.4v0.6h-80q0.1 1.4 0.4 2.7 0.2 1.3 0.6 2.6 0.4 1.3 0.9 2.6 0.5 1.3 1.1 2.5 0.6 1.2 1.4 2.3 0.7 1.1 1.5 2.2 0.8 1.1 1.8 2.1 0.9 1 1.9 1.9 1 0.9 2.1 1.6 1.1 0.8 2.2 1.5 1.2 0.6 2.4 1.2 1.2 0.6 2.5 1 2.2 0.8 4.6 1.3 2.4 0.5 4.8 0.6 2.4 0.1 4.8-0.1 2.4-0.2 4.8-0.8 0.9-0.3 1.9-0.5 1-0.3 1.9-0.7 1-0.3 1.9-0.8 0.9-0.4 1.8-0.9 0.9-0.4 1.7-0.9 0.8-0.5 1.5-1.1 0.8-0.5 1.5-1.2 0.7-0.6 1.4-1.2 0.6-0.6 1.2-1.2 0.6-0.6 1.1-1.3 0.5-0.7 1-1.4 0.5-0.7 0.9-1.5l0.2-0.5 20.6 5.9-0.4 0.8q-1.4 2.9-3.3 5.6-1.9 2.7-4.2 5.1-2.3 2.4-4.9 4.4-2.6 2-5.5 3.6-3.4 1.8-6.9 3.2-3.6 1.3-7.2 2.2-3.7 0.9-7.5 1.3-3.8 0.4-7.6 0.4-2.7 0-5.5-0.3-2.7-0.2-5.4-0.7-2.7-0.6-5.3-1.4-2.6-0.7-5.1-1.8-2.4-1-4.6-2.2-2.2-1.2-4.3-2.6-2.1-1.4-4-3.1-1.9-1.6-3.7-3.4-1.7-1.8-3.2-3.7-1.6-2-2.9-4.1-1.4-2.1-2.5-4.3-1.1-2.2-2-4.5-1-2.4-1.7-4.9-0.7-2.5-1.2-5-0.5-2.5-0.7-5.1-0.2-2.5-0.2-5.1 0-2.6 0.2-5.2 0.2-2.5 0.7-5.1 0.5-2.5 1.2-5 0.7-2.4 1.7-4.8 0.9-2.4 2-4.6 1.1-2.2 2.5-4.4 1.3-2.1 2.9-4 1.5-2 3.2-3.8 1.8-1.9 3.7-3.5 1.9-1.6 4-3.1 2.1-1.4 4.3-2.6 2.2-1.2 4.6-2.2 2.5-1.1 5.2-1.9 2.7-0.8 5.4-1.3 2.7-0.5 5.5-0.8 2.7-0.2 5.5-0.2 2.8 0 5.5 0.2 2.7 0.3 5.4 0.8 2.7 0.6 5.3 1.4 2.6 0.8 5.2 1.9 2.3 1 4.5 2.2 2.2 1.2 4.3 2.6 2.1 1.4 4.1 3 1.9 1.7 3.7 3.5 1.6 1.8 3.1 3.7 1.4 1.9 2.6 4 1.3 2.1 2.3 4.2 1 2.2 1.9 4.5zm-19.1 12.1c-0.2-2.6-0.7-5.2-1.6-7.7-0.9-2.5-2.1-4.8-3.7-6.9-1.5-2.1-3.4-4-5.5-5.6-2-1.6-4.3-2.9-6.8-3.9q-2.6-1-5.4-1.5-2.8-0.5-5.6-0.5-2.9 0-5.7 0.5-2.8 0.5-5.4 1.5-1.2 0.5-2.4 1-1.2 0.6-2.3 1.3-1.1 0.6-2.2 1.4-1 0.8-2 1.6-1 0.9-1.9 1.9-0.9 1-1.7 2.1-0.7 1-1.4 2.2-0.7 1.1-1.3 2.3-0.5 1.2-1 2.4-0.5 1.3-0.8 2.5-0.4 1.3-0.6 2.6-0.3 1.3-0.4 2.6h57.6zm-678.9 39v18.6q-1.1 0.6-2.4 1.1-1.2 0.4-2.5 0.7-1.2 0.2-2.5 0.3-1.3 0-2.6-0.2-1.4 0-2.9-0.2-1.4-0.3-2.8-0.7-1.3-0.5-2.6-1.2-1.2-0.7-2.4-1.7-1-1-1.9-2.2-0.9-1.2-1.5-2.6-0.6-1.4-0.9-2.8-0.4-1.5-0.4-3v-3.3c-1.8 3-4.1 5.7-6.6 8.1-2.6 2.5-5.5 4.5-8.6 6.2-3.1 1.6-6.4 2.9-9.8 3.7-3.5 0.7-7 1.1-10.5 0.9q-2.5 0-4.9-0.2-2.5-0.3-4.9-0.8-2.4-0.5-4.7-1.3-2.3-0.8-4.6-1.9-2.1-1-4.1-2.2-2.1-1.2-4-2.7-1.9-1.4-3.6-3-1.8-1.6-3.4-3.4-1.6-1.8-3-3.8-1.5-2-2.7-4.1-1.3-2.1-2.3-4.3-1.1-2.2-1.9-4.5-0.9-2.5-1.6-5-0.7-2.6-1.1-5.2-0.5-2.5-0.7-5.2-0.2-2.6-0.2-5.2 0-2.5 0.2-5 0.2-2.5 0.6-5 0.4-2.4 1.1-4.8 0.6-2.5 1.5-4.8 0.8-2.2 1.8-4.3 1-2.1 2.2-4.1 1.2-2 2.5-3.9 1.4-1.9 2.9-3.7 1.5-1.7 3.2-3.3 1.7-1.6 3.5-3 1.8-1.4 3.7-2.6 1.9-1.2 4-2.2 2.1-1.1 4.3-1.8 2.3-0.8 4.5-1.3 2.3-0.6 4.7-0.8 2.3-0.3 4.7-0.2 2.8-0.1 5.5 0.2 2.8 0.3 5.5 1 2.7 0.6 5.3 1.6 2.6 1 5 2.2 1.9 1 3.7 2.2 1.7 1.2 3.4 2.5 1.6 1.3 3.1 2.8 1.5 1.5 2.8 3.2v-48.5h22.6v107.3c0 4.2 1.2 7.4 5.7 7.4zm-85.3-31.3q0 1.9 0.1 3.8 0.2 1.9 0.5 3.8 0.3 1.8 0.7 3.7 0.5 1.8 1.1 3.6 0.5 1.5 1.2 2.9 0.7 1.4 1.6 2.8 0.8 1.3 1.8 2.6 0.9 1.2 2 2.4 1.1 1.1 2.2 2.1 1.1 1 2.4 1.9 1.2 0.9 2.5 1.6 1.3 0.8 2.7 1.5 1.2 0.5 2.5 1 1.3 0.4 2.7 0.8 1.3 0.3 2.7 0.5 1.4 0.2 2.8 0.2 1.4 0 2.9-0.1 1.5-0.2 3-0.6 1.4-0.3 2.8-0.8 1.4-0.6 2.7-1.3 1.3-0.7 2.6-1.5 1.2-0.8 2.3-1.7 1.2-0.9 2.2-2 1.1-1 2-2.2 1-1.2 1.8-2.4 0.9-1.3 1.7-2.6 0.7-1.4 1.4-2.8 0.6-1.4 1.2-2.8 0.5-1.5 0.9-3 0.4-1.5 0.7-3.1 0.3-1.5 0.4-3.1 0.2-1.6 0.2-3.1 0-1.9-0.2-3.8-0.1-1.9-0.4-3.8-0.4-1.8-0.8-3.7-0.5-1.8-1-3.6-0.6-1.4-1.3-2.7-0.7-1.4-1.6-2.6-0.8-1.3-1.7-2.5-1-1.1-2.1-2.2-1-1.1-2.1-2.1-1.2-1-2.4-1.8-1.2-0.9-2.5-1.7-1.3-0.7-2.6-1.3-1.3-0.6-2.6-1.1-1.3-0.4-2.6-0.7-1.4-0.4-2.7-0.5-1.4-0.2-2.8-0.2-1.5-0.1-3 0.1-1.5 0.2-2.9 0.5-1.5 0.4-2.9 0.9-1.4 0.5-2.8 1.2-1.3 0.6-2.5 1.4-1.2 0.8-2.4 1.8-1.2 0.9-2.2 1.9-1.1 1-2 2.2-1 1.1-1.9 2.3-0.8 1.2-1.6 2.5-0.8 1.3-1.4 2.7-0.6 1.3-1.2 2.7-0.5 1.5-0.9 3-0.4 1.5-0.7 3.1-0.3 1.5-0.4 3.1-0.2 1.5-0.2 3.1zm232.7 1.1q0.6 2 1 4.1 0.4 2 0.5 4.1 0.2 2.1 0.2 4.2 0 2.3-0.2 4.5-0.2 2.2-0.7 4.4-0.4 2.2-1.2 4.3-0.7 2.1-1.7 4.1-0.9 1.8-2.1 3.5-1.1 1.6-2.5 3.2-1.3 1.5-2.9 2.8-1.5 1.3-3.1 2.5-1.9 1.2-3.8 2.2-1.9 1.1-3.9 1.9-2.1 0.9-4.1 1.5-2.1 0.7-4.2 1.2-2.4 0.5-4.8 0.9-2.4 0.4-4.8 0.7-2.5 0.3-4.9 0.4-2.4 0.1-4.9 0.1-3.8 0-7.6-0.3-3.8-0.3-7.5-0.9-3.8-0.5-7.5-1.4-3.7-0.8-7.4-2-3.5-1.1-6.9-2.5-3.4-1.3-6.7-3-3.3-1.7-6.4-3.6-3.2-2-6.1-4.2l-0.5-0.4 10.2-19.1q1 0.7 1.9 1.4 1 0.7 1.9 1.4 1 0.6 2 1.3 1 0.6 2 1.2 1.3 0.8 2.6 1.4 1.3 0.7 2.6 1.4 1.3 0.6 2.7 1.2 1.4 0.5 2.7 1 1.7 0.6 3.3 1.2 1.6 0.5 3.2 1 1.7 0.5 3.3 1 1.7 0.4 3.4 0.8 1.8 0.4 3.6 0.7 1.8 0.3 3.6 0.5 1.9 0.2 3.7 0.3 1.8 0.1 3.7 0.1 2.4 0.1 4.8-0.1 2.4-0.1 4.8-0.6 2.4-0.5 4.6-1.3 2.3-0.8 4.5-1.9c1.5-0.9 2.9-2.1 3.9-3.6 1.1-1.4 1.8-3.1 2.2-4.8 0.4-1.8 0.4-3.6 0-5.3-0.3-1.8-1.1-3.5-2.1-4.9q-0.7-0.9-1.5-1.6-0.8-0.8-1.7-1.5-0.9-0.6-1.8-1.2-1-0.6-2-1-1.3-0.7-2.7-1.3-1.4-0.7-2.8-1.2-1.5-0.5-2.9-1-1.4-0.5-2.9-0.9c-4.6-1.3-9.6-2.7-15.2-4.1q-2.2-0.6-4.4-1.2-2.2-0.6-4.3-1.2-2.2-0.7-4.3-1.4-2.2-0.8-4.3-1.5-1.7-0.7-3.3-1.6-1.6-0.8-3.2-1.8-1.5-1-3-2.1-1.5-1.1-2.8-2.3-1.2-1-2.3-2.1-1.1-1.1-2-2.3-1-1.3-1.8-2.6-0.8-1.3-1.5-2.7-0.7-1.6-1.2-3.3-0.5-1.6-0.8-3.3-0.3-1.7-0.5-3.4-0.1-1.8-0.1-3.5 0-2.3 0.2-4.5 0.2-2.2 0.7-4.4 0.5-2.2 1.2-4.4 0.8-2.1 1.8-4.1 0.9-1.9 2.1-3.7 1.1-1.7 2.5-3.3 1.3-1.6 2.8-3.1 1.6-1.4 3.2-2.7 1.8-1.3 3.6-2.5 1.9-1.2 3.9-2.1 1.9-1 4-1.8 2-0.8 4.2-1.4 2.3-0.7 4.7-1.2 2.4-0.5 4.9-0.8 2.4-0.3 4.9-0.5 2.4-0.1 4.9-0.1 3.2 0 6.5 0.2 3.2 0.3 6.5 0.8 3.2 0.6 6.3 1.4 3.2 0.8 6.3 1.9 2.7 1 5.4 2.2 2.6 1.1 5.2 2.4 2.6 1.4 5 2.9 2.5 1.5 4.9 3.2l0.5 0.3-10.6 18.5q-0.8-0.6-1.5-1.1-0.8-0.6-1.5-1.2-0.8-0.5-1.6-1.1-0.8-0.5-1.6-1-1-0.6-2-1.1-1-0.6-2-1.1-1-0.5-2.1-0.9-1-0.5-2.1-0.9-1.2-0.5-2.5-0.9-1.3-0.5-2.6-0.9-1.3-0.3-2.6-0.7-1.3-0.3-2.6-0.6-1.5-0.3-2.9-0.5-1.4-0.2-2.9-0.4-1.4-0.1-2.9-0.2-1.4-0.1-2.9-0.1-2.5-0.1-5 0-2.5 0.2-4.9 0.8-2.4 0.5-4.8 1.4-2.3 0.9-4.4 2.2-1.5 0.9-2.6 2.2-1.2 1.4-2 2.9-0.8 1.6-1.1 3.3-0.4 1.7-0.3 3.4-0.1 0.9 0 1.9 0.2 0.9 0.4 1.9 0.2 0.9 0.6 1.7 0.4 0.9 0.8 1.7 0.6 0.8 1.3 1.5 0.6 0.7 1.4 1.4 0.7 0.6 1.5 1.1 0.8 0.6 1.7 1 1.2 0.6 2.4 1.2 1.2 0.5 2.5 1 1.3 0.5 2.6 0.9 1.3 0.4 2.6 0.8c4 1.1 9.1 2.3 14.4 3.7q2.3 0.5 4.6 1.1 2.3 0.6 4.6 1.3 2.2 0.6 4.5 1.4 2.2 0.7 4.5 1.5 1.8 0.6 3.6 1.4 1.8 0.7 3.5 1.6 1.8 0.9 3.4 1.9 1.7 1 3.3 2.2 1.4 1 2.7 2.2 1.3 1.2 2.4 2.6 1.2 1.3 2.1 2.8 1 1.5 1.8 3 0.8 2 1.5 4z"/>
			<path id="Layer" class="s0" d="m58.3 4.9c1.6 0.7 3 1.6 4.2 2.8 1.2 1.2 2.2 2.6 2.8 4.2 0.7 1.6 1 3.2 1 4.9v223h-65.3v-223c0-1.7 0.3-3.3 1-4.9 0.6-1.6 1.6-3 2.8-4.2 1.2-1.2 2.6-2.1 4.2-2.8 1.5-0.6 3.2-1 4.9-1h39.5c1.7 0 3.4 0.4 4.9 1zm553.3 176q4.3 7.7 7.1 16.1 2.9 8.3 4.4 17 1.4 8.7 1.4 17.6c0 2 0 4.2 0 6.4v2.1h-65.4c0.2-0.8 0.4-2 0.5-2.5q0.1-0.8 0.2-1.5 0-0.7 0.1-1.5 0-0.7 0.1-1.5 0-0.7 0-1.5 0-3.3-0.6-6.7-0.5-3.3-1.6-6.4-1.1-3.2-2.8-6.2-1.6-2.9-3.7-5.5-2.1-2.6-4.5-4.8-2.5-2.2-5.3-4-2.7-1.8-5.8-3-3-1.3-6.2-2.1l-38.7-9.1c-9.9-2.7-19.3-6.9-27.7-12.5-8.5-5.7-16-12.7-22.2-20.8-6.2-8.1-11-17.2-14.2-26.9-3.2-9.7-4.8-19.8-4.7-30 0-23.1 8.6-45.5 24.2-62.6 15.5-17.2 36.9-28 60-30.3 23.1-2.3 46.2 4 64.8 17.8 18.7 13.7 31.6 33.9 36.2 56.6q0.2 1.3 0.2 2.7 0.1 1.3-0.2 2.6-0.3 1.3-0.8 2.5-0.5 1.2-1.2 2.3-0.7 1.1-1.7 2.1-0.9 0.9-2 1.6-1.1 0.7-2.4 1.2-1.2 0.5-2.5 0.7l-36.9 7.5q-1.3 0.3-2.7 0.3-1.3 0-2.6-0.3-1.3-0.2-2.5-0.7-1.3-0.5-2.4-1.3-1.1-0.7-2-1.6-1-1-1.7-2.1-0.7-1.1-1.3-2.3-0.5-1.2-0.7-2.5c-2.1-10.2-9.5-18.5-19.4-21.7-9.9-3.2-20.8-0.8-28.4 6.3-7.7 7-10.9 17.7-8.5 27.8 2.5 10.1 10.2 18.1 20.2 21 6.7 1.9 31.4 7.2 37 8.6q8.4 2 16.4 5.4 7.9 3.4 15.2 8 7.3 4.7 13.8 10.5 6.4 5.7 11.8 12.5 5.5 6.9 9.7 14.7zm-334.4-175c3.7 1.1 7.1 2.7 10.3 4.8 3.2 2.1 6 4.6 8.4 7.6 2.5 2.9 4.5 6.1 6 9.6l90.3 211.9h-181.9l19-45c0.9-2.6 2.2-5.1 3.9-7.3 1.6-2.3 3.7-4.2 6-5.7 2.3-1.6 4.9-2.7 7.6-3.4 2.7-0.7 5.5-0.9 8.2-0.7h44.2l-42.2-96.3-68.6 158.4h-67l90.6-211.9c1.5-3.5 3.5-6.7 6-9.6 2.4-3 5.2-5.5 8.4-7.6 3.2-2.1 6.6-3.7 10.3-4.8 3.6-1.1 7.4-1.6 11.2-1.6h18.1c3.8 0 7.6 0.5 11.2 1.6z"/>
		</g>
	</g>
</svg>