<svg version="1.2" xmlns="http://www.w3.org/2000/svg" viewBox="0 0 1553 640" width="1553" height="640">
	<title>2020-annual-report-1-pdf-svg</title>
	<defs>
		<clipPath clipPathUnits="userSpaceOnUse" id="cp1">
			<path d="m-5536.89-8633.37h7268.32v9464.91h-7268.32z"/>
		</clipPath>
	</defs>
	<style>
		.s0 { fill: #ffffff } 
	</style>
	<g id="Clip-Path: Page 1" clip-path="url(#cp1)">
		<g id="Page 1">
			<path id="Path 1" fill-rule="evenodd" class="s0" d="m492.5 402.3l-10.4 24.5q-31.2 15.9-61.2 23.2-30 6.7-65.4 6.7-41.6 0-77.1-10.4-35.5-10.4-61.8-29.9-26.9-19-43.5-43.4-17.1-23.9-25.7-52-9.1-28.1-9.1-61.8 0-85.6 59.9-141.2 59.4-56.2 162.2-56.2 24.4 0 45.2 3 20.8 2.5 50.2 10.4 30 8 36.7 9.2-6.1 14.7-8.6 28.7-4.2 23.2-6.1 53.2h-16.5v-31.8q-2.4-26.3-29.4-39.1-26.3-12.9-77-12.9-38 0.7-64.9 9.8-26.3 9.2-46.5 29.4-20.2 19.5-33 50.1-12.9 30.6-13.5 77.1 0 80.7 49.6 130.2 49.5 48.9 130.9 48.9 36.7 0 67.9-9.8 21.4-6.7 42.8-22m-13.4 52.6v-17.7q21.4-0.7 26.3-1.9 5.5-1.8 9.8-5.5 4.2-4.3 12.8-22 4.9-9.8 34.9-74.6l66.7-151q11-24.5 47.1-110.7h16.5l115 268.4q27.6 64.9 36.7 81.4 4.9 9.7 11 12.2 6.2 3 27.6 3.7v2.6q-1.8 1.1-3.7 2.2v12.7q-39.3-2.3-55.1-2.3l-86.2 2.5v-17.7q30-0.7 36.7-1.9 6.1-1.8 8.5-4.3 2.5-2.4 2.5-6.1 0-6.1-3.7-15.3l-33-81.3h-155.4l-28.2 68.5q-7.9 18.3-7.9 26.9 0 3.7 1.8 6.1 3.1 3.7 9.2 4.9 9.8 1.8 34.9 2.5v17.7q-45.3-1.8-67.9-1.8-25.7 0-56.9 1.8zm404.4 0q-0.8-0.1-1.6-0.1 0.8 0 1.6-0.1zm-280.2-148.6h135.8l-67.3-161.4zm280.2 148.4v-14.9q12.9-7.8 22-14.2 1.9-17.8 2.5-50.2 1.8-55 1.8-76.4v-108.8q0-25.7-1.2-61.2-0.6-22-3.7-27.5-1.8-3.1-5.5-4.9-8.6-3.7-36.7-3.7v-17.1q39.1 1.2 69.1 1.2 22.7 0 62.4-1.2 39.8-0.6 61.2-0.6 65.5 0 105.2 16.5 39.8 17.1 68 56.3 27.5 39.1 27.5 95.4 0 40.9-12.9 76.4-13.4 35.4-35.4 61.7-22.7 26.9-48.4 42.2-25.7 15.3-53.8 23.3-28.2 7.9-77.1 7.9-16.5 0-44.1-0.6-36.7-1.2-47.7-1.2-15.7 0-53.2 1.6zm-3.7 0q1 0.1 2.1 0.1-1 0.1-2.1 0.1zm82.6-29.1q29.4 5.5 61.8 5.5 33.7 0 59.4-6.1 25.7-6.2 44-16.6 18.4-11 35.5-31.7 17.1-20.8 26.3-53.2 9.2-32.4 9.2-66.7 0-50.1-17.8-85.6-17.7-35.4-53.2-54.4-36.1-19-98.5-19-33 0-66.7 4.9-0.6 13.5-1.2 46.5l-1.2 38.5v107l1.2 82.6q0 18.9 1.2 48.3zm-953.2-154.1l-4.3-10.4q43.5-30 58.8-37.3 14.7-7.3 23.2-7.3 4.3 0 6.7 3.6 3.7 4.3 3.7 13.5 0 3.6-1.8 11.6-3.1 14.7-13.5 53.8-26.3 99.7-26.3 117.4 0 5.5 1.9 7.3 1.8 2.5 4.8 2.5 4.9 0 12.3-3.7 7.3-3.7 27.5-18.3l4.9 9.8q-39.8 30.5-60 40.9-9.7 4.9-15.9 4.9-6.1 0-11-5.5-4.9-6.1-4.9-15.9 0-7.9 1.9-17.7 1.8-9.2 8.5-34.9 28.2-103.3 28.2-127.8 0-5.5-1.2-7.3-1.3-1.8-3.7-1.8-3.1 0-7.4 1.8-1.8 1.2-32.4 20.8zm63.6-140.6q0-14.1 9.2-23.3 8.6-9.8 19.6-9.1 8.6 0 13.5 4.8 5.5 5.5 5.5 14.7 0 12.9-8 23.3-7.3 11-19.6 11-8.5 0-14-6.2-6.2-5.5-6.2-15.2z"/>
			<path id="Path 5" fill-rule="evenodd" class="s0" d="m1357 41c0 0-86.3 105.1 31.8 269 0 0 181.9 223.7 4.3 311 32.1-17.2 123.8-87.8-20.8-286.5 0 0-133.4-159.6-15.3-293.5zm36.1 580c-5.9 3.1-9.8 4.5-9.8 4.5q5.1-2.2 9.8-4.5zm-1.2-424.1c9.1 2.4 13.4 17.1 9.1 32.4-4.2 15.9-15.9 25.7-25 23.2-9.8-3-14.1-17.7-9.8-33 4.3-15.3 15.9-25.7 25.7-22.6zm-3.7 92.3c0 0 108.3-127.8 39.2-288.6 0 0 103.4 110.7-19.6 313.7z"/>
			<path id="Path 6" fill-rule="evenodd" class="s0" d="m1357 336.3l15.9 20.2c0 0-145.6 308.1-752.5 281.8 0 0 530.4 18.4 736.6-302zm186.6-209.7q-9.2 8.5-21.4 8.5-12.3 0-20.8-8.5-8.6-8.6-8.6-21.4 0-12.3 8.6-20.8 8.5-8.6 20.8-8.6 12.2 0 21.4 8.6 8.6 8.5 8.6 20.8 0 12.8-8.6 21.4zm-39.2-39.2q-7.9 7.4-7.9 18.4 0 10.4 7.9 17.7 7.4 8 17.8 8 11 0 18.3-8 7.4-7.3 7.4-17.7 0-11-7.4-18.4-7.3-7.3-18.3-7.3-10.4 0-17.8 7.3zm17.2 1.9q6.1 0 9.2 1.2 4.8 1.8 4.8 7.9 0 4.3-3 6.8-1.8 0.6-4.9 1.2 4.3 0.6 5.5 3 1.8 3.1 1.8 5.5c0 0.9 0 4.1 0 4.9q0.6 1.3 0.6 1.3v0.6h-5.5q0-0.6 0-0.6v-3.7q0-5.5-3-7.3-1.9-1.3-6.7-1.3h-4.3v12.9h-5.5v-32.4zm6.1 4.9q-2.5-1.3-7.4-1.3h-4.9v11.7h5.5q3.7 0 5.6-0.7 3-1.2 3-4.8 0-3.7-1.8-4.9z"/>
		</g>
	</g>
</svg>