<svg version="1.2" xmlns="http://www.w3.org/2000/svg" viewBox="0 0 1577 459" width="1577" height="459">
	<title>icosavax-color-svg</title>
	<style>
		.s0 { fill: #1a293f } 
		.s1 { fill: #895787 } 
		.s2 { fill: #ed806b } 
	</style>
	<g id="Layer">
		<path id="Layer" class="s0" d="m273.4 40.4c0 15.8-14.8 28.3-18.2 30.5-3.9 3.4-4.5 8-5.1 13.6-0.5 3.4-0.5 6.2-1.6 9.1-2.3 6.2 0 8.4 2.2 10.7 0.6 0.6 1.1 1.1 1.7 2.3 2.3 2.8 2.3 9 1.7 13h-5.1c1.1-5.1 0-9.6-1.7-11.9-0.5-1.1-1.7-1.7-2.2-2.8-3.4-4-4-4.6-3.4-10.8 0-1.1 0-1.7 0.5-2.8 0.6-7.9 1.7-18.7 6.8-22.1 6.2-4.5 13-14.7 13-27.1 0-10.2-3.9-15.8-9-23.2-0.6-1.1-1.7-2.2-2.3-3.4-0.6-1.1-1.1-2.2-1.7-2.8-3.9-6.8-4.5-7.3-11.9-7.3h-10.7c-5.7 0-6.8 0.5-10.8 6.7-0.5 1.2-1.7 2.3-2.2 4-0.6 1.1-1.7 2.3-2.3 3.4-5.1 7.9-9.1 13-9.1 23.7-0.5 11.9 6.3 21.5 13.1 27.2 5.1 3.9 6.2 14.1 6.8 21.5 0 1.1 0 2.2 0.5 3.4 0.6 5.6-0.5 6.7-3.4 10.7-0.5 0.6-1.1 1.7-2.2 2.8-2.3 3.4-2.3 7.9-1.7 11.9h-4.6c-0.5-4-0.5-11.3 1.7-13 0.6-0.6 1.2-1.7 1.7-2.3 2.3-2.2 4-3.9 2.3-10.7q-1.7-4.3-1.7-8.5c-0.6-5.1-1.7-10.7-5.1-13.6-3.4-2.2-18.1-14.7-18.1-30.5 0-14.1 2.8-17.5 6.8-23.7 2.8-4 3.9-7.4 5.6-11.9 1.2-3.4 4-5.7 7.4-5.7h41.3c4 0 6.8 2.9 7.4 5.7 1.1 3.9 2.8 8.5 5.6 11.9 5.7 4.5 8 7.3 8 22z"/>
		<path id="Layer" class="s1" d="m223 119c-0.6-3.4 0-4.5 0.6-5.7 0.5-1.1 1.6-1.6 2.2-2.8 4-4.5 5.1-7.3 4.5-15.2 0-1.2 0-2.3-0.5-3.4-1.2-8.5-2.3-20.4-9.6-26.6-5.1-4-11.4-11.9-10.8-21.5 0-8.5 3.4-12.4 7.9-20.4 0.6-1.1 1.7-2.2 2.3-3.3 1.1-1.7 1.7-2.9 2.8-4 1.2-1.7 2.3-3.4 2.8-4 0.6 0 2.3 0 2.9 0h10.7c1.2 0 2.9 0 3.4 0 0.6 0.6 1.7 2.3 3.4 4 0.6 1.1 1.2 1.7 1.7 2.8 0.6 1.2 1.7 2.3 2.3 3.4 4.5 7.4 7.9 11.9 7.9 20.4 0 10.1-5.1 17.5-10.7 21.5-7.4 5.6-8.5 18-9.7 27.1 0 1.1 0 1.7 0 2.8-1.1 7.9 1.2 10.8 4.6 15.3 0.5 0.6 1.1 1.7 2.2 2.8 0.6 0.6 1.2 1.7 0.6 5.7z"/>
		<path id="Layer" class="s0" d="m141.5 58.5c10.2 11.9 6.8 31.1 5.6 35.1-1.1 5 1.7 9.6 4.6 13.5 1.7 2.9 3.4 5.1 3.9 7.9 2.3 6.3 5.1 6.3 8.5 6.8 1.2 0 1.7 0 2.9 0.6 3.4 0.6 7.3 5.6 9.6 9.6l-4 2.8c-2.8-4.5-5.6-7.3-9-7.9-1.2 0-2.3-0.5-3.4-0.5-4.6-1.2-6.3-1.2-9.7-6.3-0.5-0.5-1.1-1.7-1.7-2.2-3.9-6.2-10.7-15.3-9-21.5 1.7-7.9 0.6-19.8-7.4-28.9-6.8-7.3-13-9.6-21.5-11.8-1.1-0.6-2.8-0.6-3.9-1.2-1.2-0.5-2.3-0.5-3.4-1.1-6.3-3.4-7.4-3.4-12.5 1.1l-7.3 6.8c-4.6 4-4.6 4.6-4 11.9 0 1.1 0.6 2.8 0.6 4 0 1.1 0.5 2.8 0.5 3.9 1.2 9.6 1.7 15.9 8 23.8 7.3 9.6 19.2 12.4 27.1 11.8 6.2 0 13.6 6.8 19.8 11.9 1.2 1.1 1.7 1.7 2.9 2.3 3.9 3.9 3.9 5.1 3.9 10.7q0 1.7 0 3.4c0 4 4 7.4 6.2 10.2l-3.9 3.4c-3.4-2.8-7.4-7.9-7.4-11.3 0-1.2 0-1.7 0-2.9 0-3.3 0.6-6.2-5.1-9.6-2.8-1.7-4.5-3.9-6.8-5.1-3.9-3.9-7.9-7.3-13-6.7-3.9 0-23.2 0-33.4-11.9-9-11.3-9.6-14.7-10.2-22.6 0-4-1.1-8.5-3.3-12.5-1.7-3.4-0.6-6.8 2.2-9.6l31.7-26.6c2.8-2.2 6.8-2.8 9.6-0.5 3.4 2.8 7.4 4.5 11.9 5.6 6.8 1.7 11.3 2.9 20.4 13.6z"/>
		<path id="Layer" class="s1" d="m153.4 151.2c-2.3-2.2-3.4-3.9-3.4-4.5q0-1.7 0-3.4c0-5.6-0.6-9-6.2-14.7-0.6-0.6-1.7-1.7-2.3-2.2-6.2-5.7-14.7-14.2-23.8-14.2-6.8 0-15.8-2.2-22.1-9.6-5-6.2-5.6-11.9-6.7-20.4 0-1.1-0.6-2.8-0.6-3.9 0-1.7-0.6-3.4-0.6-4 0-2.2-0.5-3.9-0.5-4.5 0-0.6 1.7-1.7 2.2-1.7l7.9-6.8c0.6-0.5 2.3-1.7 2.9-1.7 0.5 0 2.8 0.6 5.1 1.7 1.1 0.6 2.2 0.6 3.4 1.2 1.7 0.5 2.8 1.1 3.9 1.1 8.5 2.8 13 3.9 19.3 10.2 6.2 7.3 7.3 16.9 5.6 23.2-2.8 8.4 5.1 18 9.6 25.4 0.6 0.6 1.2 1.7 1.7 2.3 4 6.7 7.4 7.3 13.1 9 1.1 0 2.2 0.6 3.4 0.6 0.5 0 2.2 0.5 3.9 3.9z"/>
		<path id="Layer" class="s0" d="m52.1 157.5c15.8 2.8 24.9 19.7 27.1 22.6 2.9 4.5 7.4 5.6 11.9 7.3 3.4 1.2 5.7 1.7 8.5 3.4 5.7 3.4 8.5 1.7 10.8 0 0.5-0.6 1.7-1.1 2.2-1.7 2.9-1.7 9.6-0.5 13 1.1l-0.5 4c-5.1-2.3-9.6-1.7-11.9-0.6-1.1 0.6-2.3 1.2-2.8 1.7-4 2.3-5.7 3.4-11.4 1.2-1.1 0-1.7-0.6-2.8-0.6-7.3-2.3-18.1-4.5-20.9-10.7-4-7.4-11.9-15.3-24.4-17.6-10.2-1.7-15.8 1.2-24.3 4.6-1.1 0.5-2.8 1.1-4 1.6-1.1 0.6-2.2 1.2-3.4 1.2-6.2 3.9-7.3 3.9-8.4 10.7l-1.2 11.3c-1.1 5.7-0.5 6.8 4.5 11.9 0.6 0.6 1.7 1.7 2.9 2.8 1.1 1.2 1.7 1.7 2.8 2.9 7.4 6.7 11.9 11.3 21.5 13 11.9 2.8 22.7-2.9 28.3-8.5 4.5-4 15.3-4 22.6-3.4q1.7 0 3.4 0c5.7 0.6 6.8 1.7 10.2 5.1 0.6 0.5 1.7 1.7 2.3 2.8 2.8 2.8 7.4 3.4 11.3 4l-1.1 4.5c-4 0-10.8-1.7-12.5-4-0.5-0.5-1.1-1.7-1.7-2.2-2.2-2.9-3.9-4.6-10.2-4-2.8 0.6-5.6 0.6-9 0-5.1 0-10.8-0.6-14.2 3.4-2.8 2.8-17.5 15.3-33.3 11.9-13.6-2.8-17-5.1-22.1-11.3-3.4-3.4-6.2-5.7-10.8-7.4-3.4-1.7-4.5-4.5-3.9-8.5l7.3-40.7c0.6-3.9 4-6.2 6.8-6.2 4 0 7.9-1.1 12.5-2.8 6.8-3.4 10.7-5.7 24.9-2.8z"/>
		<path id="Layer" class="s1" d="m120.5 220.8c-3.3 0-4.5-1.2-5-1.7-1.2-1.1-1.7-1.7-2.3-2.3-4-3.9-6.2-6.8-14.2-7.3q-1.7 0-3.4 0c-9-1.2-20.9-1.7-28.3 3.9-4.5 4.6-13.5 8.5-23.2 6.8-8.4-1.7-11.8-5.1-18.6-11.9-1.2-1.1-1.7-1.7-2.9-2.8q-1.7-1.7-3.4-3.4-2.5-2.5-3.4-3.4c0-0.5 0-2.2 0.6-2.8l1.7-10.2c0-1.1 0.6-2.8 0.6-3.4 0.5 0 3.4-1.1 5.1-2.2 1.1-0.6 2.2-0.6 3.4-1.2 1.1-0.5 2.8-1.1 3.9-1.7 8.5-3.9 12.5-5.6 21-3.9 9.6 1.7 16.4 8.5 19.8 14.1 3.9 8.5 16.4 11.9 24.9 13.6 1.1 0 1.7 0.6 2.8 0.6 7.9 2.2 10.8 1.1 15.9-1.7 1.1-0.6 1.7-1.2 2.8-1.7 0.5 0 2.2-0.6 5.6 0.5z"/>
		<path id="Layer" class="s0" d="m47 290.9c13.6-7.9 31.7-1.1 35.6 0.6 4.6 2.2 9.6 0 14.2-2.3 2.8-1.1 5.6-2.8 8.5-2.8 6.2-1.2 7.3-4 8.5-6.8 0-1.1 0.5-1.7 1.1-2.8 1.1-2.9 6.8-6.3 10.7-8l2.3 4c-5.1 1.7-8.5 4.5-9.6 7.4-0.6 1.1-1.1 2.2-1.1 3.3-1.7 4.6-2.3 5.7-8 8.5-1.1 0-1.7 0-2.8 0.6-6.8 3.4-17 7.9-22.6 5.1-7.4-3.4-19.3-4-29.5 2.2-8.5 5.1-11.9 11.3-15.8 19.8-0.6 1.2-1.1 2.3-1.7 4-0.6 0-1.1 1.1-1.7 1.7-4 6.8-4 7.9-1.1 13.6l5.1 9c3.3 5.1 3.9 5.1 11.3 5.7 1.1 0 2.8 0 3.9 0 1.7 0 2.9 0 4 0 9.6 0.5 15.8 1.1 24.9-4 10.7-5.7 15.3-16.4 17-24.9 1.1-6.2 9.6-12.4 15.3-16.9 1.1-0.6 2.2-1.7 2.8-2.3 4.5-3.4 6.2-3.4 11.3-2.8 1.1 0 2.3 0.5 3.4 0.5 4 0.6 7.9-2.2 11.3-3.9l2.8 3.9c-3.3 2.9-9 5.7-11.8 5.1-1.2 0-1.7-0.5-2.9-0.5-3.4-0.6-5.6-1.7-10.2 3.9-2.2 2.3-3.9 4-6.7 5.7-4 3.4-8.5 6.2-9.1 11.8-0.6 4-4 22.7-17.5 30.6-11.9 6.8-16.5 6.8-23.8 5.6-4-0.5-8.5 0-13 1.2-3.4 1.1-6.8-0.6-9.1-4l-20.4-36.2c-1.7-3.4-1.1-7.3 1.2-9.6 3.4-3.4 5.6-6.2 7.3-10.7 1.7-4.6 4-8.5 15.9-15.3z"/>
		<path id="Layer" class="s1" d="m140.9 294.9c-2.8 1.6-3.9 2.8-5.1 2.2-1.1 0-2.2-0.6-3.4-0.6-5.6-1.1-9-1.1-15.8 4-1.1 0.6-1.7 1.1-2.8 2.3-6.8 5.1-17 11.8-18.2 20.9-1.1 6.8-4.5 15.3-13 20.3-7.3 4-12.4 4-21.5 3.4-1.1 0-2.8 0-3.9 0-1.7 0-3.4 0-4-0.5-2.3 0-4 0-4.5-0.6-0.6-0.6-1.2-1.7-1.7-2.3l-5.1-9c-0.6-1.1-1.2-2.3-1.7-2.8 0-0.6 1.1-2.9 2.2-4.6 0.6-1.1 1.2-1.6 1.7-2.8 0.6-1.1 1.2-2.8 1.7-3.9 4-8 6.3-12.5 13.1-17 8.4-5.1 18.1-4 23.7-1.7 9.1 4 20.4-1.7 28.3-5.1 1.2-0.6 1.7-0.6 2.9-1.1 7.3-3.4 9-6.2 11.3-11.9 0.5-1.1 0.5-1.7 1.1-2.8 0-0.6 1.1-1.7 4.5-3.4z"/>
		<path id="Layer" class="s0" d="m129 396.1c5.1-14.7 23.8-21 27.8-22.1 4.5-1.7 7.3-6.2 9.6-11.3 1.7-2.8 2.8-5.1 4.5-7.9 4-5.1 3.4-7.9 1.7-10.8-0.6-0.5-0.6-1.7-1.1-2.8-1.1-3.4 1.1-9.6 3.4-13l3.9 2.3c-3.4 4.5-3.4 9-2.8 11.8 0.6 1.2 0.6 2.3 1.1 3.4 1.7 4.6 2.3 5.7-0.5 11.3-0.6 0.6-1.2 1.7-1.2 2.9-3.4 6.8-7.9 16.4-14.1 18.6-7.9 2.9-17.5 9.1-20.9 20.4-3.4 9.6-1.7 15.8 0.5 24.9 0.6 1.1 0.6 2.8 1.2 3.9 0.5 1.2 0.5 2.3 0.5 3.4 1.7 7.9 2.3 9.1 7.9 11.3l9.7 4c5.6 2.2 6.2 1.7 11.8-2.8 1.2-0.6 2.3-1.7 3.4-2.9 1.2-0.5 2.3-1.7 3.4-2.2 8-5.7 12.5-9.6 17-19.3 4-11.3 1.2-22.6-3.4-29.4-3.4-5-1.1-15.8 1.2-22.6 0.5-1.1 0.5-2.2 1.1-3.4 1.7-5.6 2.8-6.2 6.8-9 1.1-0.6 1.7-1.1 2.8-1.7 3.4-2.3 4.5-6.8 5.1-10.8l4.5 1.7c-1.1 4-3.4 10.8-5.6 11.9-0.6 0.6-1.7 1.1-2.3 1.1-2.8 1.7-5.1 2.9-5.1 9.7 0 2.8-0.6 5.6-1.7 9-1.1 5.1-2.2 10.8 0.6 14.7 2.2 3.4 11.9 20.4 6.2 35.1-4.5 13-8.5 15.8-14.7 20.3-4 2.3-6.8 5.1-9.6 9.6-2.3 2.9-5.7 4-9.1 2.9l-39-14.2c-3.4-1.1-5.7-4.5-5.1-7.9 0.5-3.9 0-9-1.2-13-1.7-10.2-2.8-14.1 1.7-27.1z"/>
		<path id="Layer" class="s1" d="m203.7 339.5c-0.5 2.8-1.7 4.5-2.8 5.1-1.1 0.6-2.3 1.1-2.8 1.7-4.5 3.4-7.4 4.5-9.6 12.4 0 1.2-0.6 2.3-0.6 3.4-2.3 8.5-4.5 20.4 0 28.3 4 5.7 6.2 14.7 2.8 23.8-3.4 7.9-7.3 10.7-14.7 16.4-1.1 0.5-2.3 1.7-3.4 2.2-1.7 1.1-2.8 1.7-3.9 2.8-1.7 1.2-3.4 2.9-4 2.9-0.6 0-2.3-0.6-2.8-0.6l-8.5-4.5c-1.2-0.6-2.9-1.1-2.9-1.1-0.5-0.6-1.1-2.9-1.7-5.1 0-1.2-0.5-2.3-0.5-3.4-0.6-1.7-0.6-2.9-1.2-4-2.2-9-3.3-13.6-0.5-21.5 3.4-9.6 11.3-14.7 17.5-16.9 9.1-3.4 14.2-13.6 18.1-22.1 0.6-1.1 1.2-1.7 1.2-2.8 3.9-7.4 2.8-10.8 1.1-15.8-0.6-1.2-0.6-1.7-1.1-3.4 0-0.6-0.6-2.3 1.7-5.7z"/>
		<path id="Layer" class="s0" d="m259.2 423.8c-5.1-14.7 4-31.7 6.2-35.1 2.9-3.9 1.7-9.6 0.6-14.1-0.6-3.4-1.7-5.7-1.7-9.1 0-6.2-2.8-7.9-5.1-9.6-0.6-0.5-1.7-0.5-2.3-1.1-2.8-1.7-5.1-7.9-5.6-11.9l3.9-1.7c1.2 5.1 3.4 9.1 5.1 10.8 1.2 0.5 2.3 1.1 2.9 1.7 3.9 2.8 5.1 3.3 6.8 9 0 1.1 0.5 1.7 0.5 2.8 2.3 7.4 4.6 18.1 1.2 23.2-4 6.8-7.4 18.7-3.4 29.4 3.9 9.6 9 13 16.4 19.2 1.1 0.6 2.2 1.7 3.4 2.9 1.1 0.5 1.7 1.7 2.8 2.2 6.2 4.6 7.4 5.1 13 3.4l9.6-3.9c5.7-2.3 5.7-3.4 7.4-10.2 0.6-1.1 0.6-2.8 1.1-4 0.6-1.1 0.6-2.8 1.2-3.9 2.2-9.6 3.9-15.9 0.5-25.5-3.9-11.8-13.6-18.1-21.5-20.3-6.2-2.3-10.7-11.9-13.6-18.1q-0.8-1.7-1.7-3.4c-2.8-5.1-2.2-6.8-0.5-11.3 0.5-1.2 0.5-2.3 1.1-3.4 1.1-4-0.6-7.9-2.8-11.9l4.5-1.7c2.3 4 4 10.2 3.4 13 0 1.1-0.6 1.7-1.1 2.8-1.2 3.4-2.9 5.7 1.7 10.8 2.2 2.2 3.4 4.5 4.5 7.3 2.8 4.6 4.5 9.7 9.6 11.3 4 1.2 21.5 8 27.7 22.1 4.6 13 4 17.5 1.7 24.9-1.7 3.9-1.7 8.5-1.1 13 0.6 3.4-1.7 6.8-5.1 7.9l-39.6 14.7c-3.4 1.1-7.4 0-9.1-2.8-2.8-4-5.1-6.8-9.6-9.6-4.5-4.6-7.9-6.8-13-19.8z"/>
		<path id="Layer" class="s1" d="m279.6 332.2c1.7 2.8 1.7 4.5 1.7 5.6-0.6 1.2-0.6 2.3-1.2 3.4-1.7 5.1-2.8 9.1 1.2 15.8q0.8 1.7 1.7 3.4c3.9 8 9 18.7 17.5 21.5 6.2 2.3 14.2 7.4 17.6 17 2.8 7.9 1.7 12.4-0.6 21.5-0.6 1.1-0.6 2.2-1.1 3.9-0.6 1.7-0.6 3.4-1.2 4-0.5 2.3-1.1 4-1.1 4-0.6 0.5-1.7 1.1-2.8 1.1l-9.6 3.9c-1.2 0.6-2.9 1.2-2.9 1.2-0.5 0-2.8-1.7-3.9-3.4-0.6-0.6-1.7-1.2-2.9-2.3-1.1-1.1-2.2-1.7-3.4-2.8-7.3-5.1-11.3-8.5-14.1-16.4-4-9.1-1.1-18.7 2.8-23.8 4.5-7.9 2.3-20.3-0.6-28.2 0-1.2-0.5-1.7-0.5-2.9-2.3-7.9-4.5-10.1-9.6-12.4-0.6-0.6-1.7-1.1-2.9-1.7-0.5 0-1.7-1.1-2.8-5.1z"/>
		<path id="Layer" class="s0" d="m376.9 361.6c-13.6-7.9-17-27.2-17.5-30.6-0.6-5-4.5-7.9-9.1-11.8-2.8-2.3-4.5-4-6.8-6.3-3.9-5-7.3-4.5-9.6-3.9-1.1 0-1.7 0.6-2.8 0.6-3.4 0.5-9.1-2.9-11.9-5.1l2.3-4c3.9 4 8.4 4.5 11.3 4 1.1 0 2.2-0.6 3.4-0.6 4.5-0.6 6.2-1.1 11.3 2.8 0.6 0.6 1.7 1.2 2.3 1.7 6.2 4 14.7 10.8 15.8 17.6 1.1 7.9 5.7 19.2 17 24.8 9 4.6 15.3 4 24.9 4 1.1 0 2.8 0 3.9 0q1.7 0 3.4 0c8-0.6 9.1-0.6 11.9-6.2l5.1-9.1c3.4-5.1 2.8-6.2-0.5-12.4-0.6-1.1-1.2-2.3-2.3-4q-0.9-1.7-1.7-3.4c-4-8.5-7.4-14.1-15.9-19.8-10.1-6.2-22-5-29.4-2.2-5.6 2.2-15.3-2.3-22.1-4.5q-1.7-0.9-3.4-1.7c-5-2.9-5.6-4-7.3-8.5-0.6-1.2-0.6-2.3-1.1-3.4-1.7-4-5.7-5.7-9.7-7.4l2.9-3.9c3.9 1.7 9.6 5.1 11.3 7.9 0.6 1.1 0.6 1.7 1.1 2.8 1.2 3.4 1.7 5.7 8.5 6.8 2.8 0.6 5.7 1.7 8.5 2.8 5.1 2.3 10.2 4 14.7 2.3 4-1.7 21.5-7.9 35.7-0.6 11.9 6.8 13.5 11.3 16.9 18.1 1.7 4 4 7.4 7.4 10.8 2.8 2.8 3.4 6.2 1.1 9.6l-20.3 36.2c-1.7 3.4-5.1 4.5-9.1 3.9-4-1.1-8.5-1.7-13-1.1-10.8 0-14.7 0.6-27.2-6.2z"/>
		<path id="Layer" class="s1" d="m334.5 277.9c2.8 1.1 3.9 2.8 4.5 3.4 0.6 1.1 1.1 2.2 1.1 3.4 2.3 5.1 4 8.5 11.4 11.8 1.1 0.6 2.2 1.2 3.4 1.2 7.9 3.9 19.2 8.5 27.7 5.1 6.2-2.9 15.8-4 24.3 1.7 6.8 3.9 9.6 9 13.6 17.5q0.8 1.7 1.7 3.4c0.6 1.7 1.7 2.8 2.3 3.9 1.1 1.7 1.7 4 2.2 4 0 0.6-1.1 1.7-1.1 2.3l-5.1 9c-1.7 1.1-2.8 2.8-2.8 3.4-0.6 0-2.9 0.6-5.1 0.6q-1.7 0-3.4 0c-1.7 0-2.8 0-4 0-9 0.5-14.1 1.1-20.9-3.4-8.5-4.5-12.5-13-13-20.4-1.7-9.6-11.4-16.4-18.7-21.5-0.6-0.5-1.7-1.1-2.3-1.7-6.2-4.5-10.2-4.5-15.8-3.9-1.2 0-2.3 0.5-3.4 0.5-0.6 0-2.3 0-5.1-2.2z"/>
		<path id="Layer" class="s0" d="m427.3 237.7c-15.9 2.9-30-10.1-33.4-11.8-4-3.4-9.1-3.4-14.1-2.9-3.4 0-6.3 0.6-9.1 0-6.2-1.1-8.5 1.2-10.2 4-0.6 0.6-1.1 1.7-1.7 2.3-2.3 2.2-8.5 3.9-12.4 3.9l-0.6-3.9c5.7 0 9.6-1.7 11.3-4 0.6-1.1 1.7-1.7 2.3-2.3 3.4-3.9 3.9-4.5 10.2-5 1.1 0 1.7 0 2.8 0 7.9-0.6 18.7-1.7 23.2 3.3 5.7 5.1 17 10.8 28.3 8 10.2-2.3 14.7-6.3 21.5-12.5 1.1-1.1 2.3-1.7 2.8-2.8 1.2-1.1 1.7-1.7 2.9-2.3 5.6-5.1 6.2-6.2 5.1-12.4l-2.3-11.9c-1.1-5.6-2.3-6.2-8.5-9-1.1-0.6-2.8-1.2-4-1.7q-1.7-0.9-3.4-1.7c-9-4-14.7-6.2-24.9-4.5-11.8 1.7-20.3 10.1-24.3 17.5-3.4 5.6-13 8.5-20.4 10.7-1.1 0.6-2.2 0.6-3.4 1.2-5.6 1.7-6.8 1.1-11.3-1.7-1.1-0.6-1.7-1.2-3.4-1.7-3.4-1.7-7.9-0.6-11.9 0.5l-1.1-4.5c4-1.7 10.8-2.3 13-1.1 1.2 0.5 1.7 1.1 2.3 1.7 2.8 1.7 5.1 3.4 11.3 0 2.8-1.7 5.1-2.3 8.5-3.4 5.1-1.7 10.2-3.4 12.4-7.9 1.7-3.4 11.9-20.4 27.2-22.7 13.6-2.8 18.1-0.5 24.3 2.9 4 2.2 8 3.4 12.5 3.4 4 0 6.2 3.4 6.8 6.2l7.3 40.7c0.6 4-1.1 7.3-3.9 8.5-4 1.7-7.4 3.9-10.8 7.3-3.9 4.6-6.8 7.4-20.9 9.6z"/>
		<path id="Layer" class="s1" d="m341.3 202.1c2.8-1.1 4.5-1.1 5.6-0.5 1.2 0.5 2.3 1.1 2.9 1.7 5.1 2.8 7.9 3.9 15.8 2.2 1.1-0.6 2.3-0.6 3.4-1.1 8.5-2.8 19.8-5.7 24.3-13.6 3.4-5.6 10.2-12.4 19.8-14.1 8.5-1.2 12.5 1.1 21 3.9q1.7 0.9 3.4 1.7c1.7 0.6 2.8 1.2 3.9 1.7 1.7 0.6 4 1.7 4 2.3 0 0.6 0.6 2.3 0.6 2.8l1.7 10.2c0 1.1 0.5 2.8 0.5 3.4 0 0.6-2.2 2.2-3.9 3.9-0.6 0.6-1.7 1.7-2.9 2.3-1.1 1.1-2.2 2.3-3.4 2.8-6.2 6.3-10.1 9.6-18.6 11.3-9.7 2.3-18.7-2.2-23.2-6.7-6.8-6.3-19.3-5.1-28.3-4.6-1.2 0-1.7 0-2.9 0-7.9 0.6-10.7 2.9-14.1 7.4-0.6 0.5-1.1 1.7-2.3 2.2-0.5 0.6-1.7 1.7-5.1 1.7z"/>
		<path id="Layer" class="s0" d="m386.5 111.1c-10.1 11.9-29.4 11.9-33.3 11.9-5.1 0-9.1 3.4-12.5 6.7-2.3 2.3-4.5 4-7.4 5.7-5.6 3.4-5.6 6.2-5 9.6 0 1.1 0 1.7 0 2.8 0 3.4-4 8.5-7.4 11.3l-4-3.9c4-4 6.3-7.4 6.3-10.2q0-1.7 0-3.4c0-4.5 0-6.2 3.9-10.7 0.6-0.6 1.2-1.2 2.3-2.3 5.1-5.1 13-12.4 19.8-12.4 7.9 0.5 19.8-2.9 27.2-11.9 6.2-7.9 6.7-14.1 7.9-23.7 0-1.2 0.5-2.9 0.5-4 0-1.1 0.6-2.3 0.6-3.4 1.1-7.9 1.1-9-3.9-13l-8-6.2c-4.5-4-5.6-4-11.9-1.7-1.1 0.5-2.8 0.5-3.9 1.1-1.2 0.6-2.8 0.6-4 1.1-9.6 2.9-15.3 4.6-22.1 11.9-7.9 9.1-9 20.4-7.3 28.9 1.1 6.2-4.5 14.7-9.1 20.9-0.5 1.1-1.1 2.2-2.2 2.8-3.4 4.5-4.6 5.1-9.7 5.7-1.1 0-2.2 0.5-3.3 0.5-4 0.6-6.8 4.5-8.5 7.9l-4-3.4c2.3-3.9 6.8-8.4 9.6-9.6 1.2 0 1.7-0.5 2.9-0.5 3.3-0.6 6.2-0.6 8.4-6.8 1.2-2.8 2.9-5.1 4-7.9 3.4-4.6 5.7-9.1 4.5-13.6-0.5-4-3.9-22.6 5.7-35.1 9-11.3 13-11.8 20.4-13.5 3.9-1.2 7.9-2.9 11.9-5.7 2.8-2.2 6.7-1.7 9.6 0.6l31.7 26.6c2.8 2.2 3.9 6.2 2.2 9.6-2.2 3.9-3.4 7.9-3.4 12.4 0.6 10.2 0.6 13.6-8.5 24.9z"/>
		<path id="Layer" class="s1" d="m296.6 138.8c1.7-2.8 3.4-4 3.9-4 0.6 0 2.3-0.5 3.4-0.5 5.7-1.2 9.1-2.3 13-9.1 0.6-1.1 1.2-1.7 1.7-2.8 4.6-7.4 11.9-17 9.7-26-1.7-6.2-0.6-16.4 5.6-23.2 5.7-6.2 10.8-7.9 19.3-10.7 1.1-0.6 2.2-0.6 3.9-1.2 1.7-0.5 3.4-1.1 4-1.1 2.2-0.6 3.9-1.1 3.9-1.1 0.6 0 1.7 1.1 2.3 1.7l7.9 6.7c0.6 0.6 2.3 1.7 2.3 2.3 0 0.6 0 2.8-0.6 5.1 0 1.1-0.5 2.3-0.5 3.4 0 1.7-0.6 2.8-0.6 3.9-1.1 9.1-1.7 13.6-6.8 20.4-6.2 7.4-15.3 10.2-22.1 10.2-9.6-0.6-18.1 8.5-24.3 14.7-0.6 0.5-1.1 1.1-2.3 2.2-5.6 5.1-6.2 9.1-6.2 14.7q0 1.7 0 3.4c0 0.6-0.6 2.3-3.4 4.6z"/>
		<g id="Layer">
			<g id="Layer">
				<path id="Layer" class="s0" d="m242.8 207.8l11.9 27.1-22.7 19.2-24.9-15.2 6.8-28.3z"/>
				<g id="Layer">
					<g id="Layer">
						<g id="Layer">
							<path id="Layer" class="s2" d="m229.8 262.6l2.8 30.6-23.2 7.9-28.3-17-5.1-28.3 24.9-10.7z"/>
							<path id="Layer" class="s2" d="m205.4 203.8l-7.9 33.4-24.3 10.7-14.7-19.2 8.5-35.6 19.8-11.3z"/>
							<path id="Layer" class="s2" d="m291.5 248.5l2.2 26-25.4 22.6-27.2-5.1-2.8-30.5 25.4-21.5z"/>
							<path id="Layer" class="s2" d="m259.8 173.3l-14.2 22-33.9 3.4-18.7-22.6 14.1-19.2 35.1-2.3z"/>
							<path id="Layer" class="s2" d="m292.6 184.6l13.6 33.9-13 21.5-27.8-8.5-13-31.1 14.7-22z"/>
						</g>
					</g>
				</g>
			</g>
		</g>
		<g id="Layer">
			<path id="Layer" class="s0" d="m584.1 169.9h21.5v98.4h-21.5z"/>
			<path id="Layer" class="s0" d="m662.2 219.1c0-28.3 20.9-51.5 51.5-51.5 18.6 0 29.4 6.2 38.4 15.3l-13.5 15.8c-7.4-6.8-15.3-11.3-25.5-11.3-16.4 0-28.3 13.6-28.3 30.6v0.5c0 17 11.9 30.6 28.3 30.6 11.3 0 18.1-4.6 26-11.9l13.6 13.5c-10.2 10.8-20.9 17.6-40.2 17.6-28.8 1.1-50.3-21.5-50.3-49.2z"/>
			<path id="Layer" fill-rule="evenodd" class="s0" d="m799.7 219.1c0-28.3 22.1-51.5 52.6-51.5 30.6 0 52.7 22.6 52.7 50.9v0.6c0 28.3-22.1 50.9-52.7 50.9-31.1-0.6-52.6-23.2-52.6-50.9zm82 0c0-17-11.8-31.1-29.4-31.1-17.5 0-29.4 13.6-29.4 30.5v0.6c0 16.9 11.9 30.5 29.4 30.5 17 0 29.4-14.1 29.4-30.5z"/>
			<path id="Layer" class="s0" d="m952.5 253l12.4-15.3c9.1 7.4 18.2 11.9 29.5 11.9 9 0 14.1-3.9 14.1-9.6 0-5.1-3.4-8.5-19.8-12.4-19.8-5.1-32.8-10.8-32.8-30v-0.6c0-18.1 14.1-29.4 34.5-29.4 14.2 0 26.6 4.6 36.2 12.5l-11.3 16.4c-8.5-5.7-17.5-9.6-25.5-9.6-8.4 0-12.4 3.9-12.4 8.4v0.6c0 6.2 4 8.5 20.9 12.4 20.4 5.1 31.2 11.9 31.2 29.4v0.6c0 19.8-14.8 30.5-36.3 30.5-13.5 0-28.8-5-40.7-15.8z"/>
			<path id="Layer" fill-rule="evenodd" class="s0" d="m1117.8 168.8h20.3l42.5 98.9h-22.7l-9-22h-41.9l-9.1 22h-22.6zm22.6 58.3l-13-31.7-13 31.7z"/>
			<path id="Layer" class="s0" d="m1208.9 169.9h23.7l26.1 69 26-69h23.2l-39.6 98.9h-19.2z"/>
			<path id="Layer" fill-rule="evenodd" class="s0" d="m1378.7 168.8h20.3l42.5 98.9h-22.7l-9-22h-41.9l-9.1 22h-21.5zm22.7 58.3l-13-31.7-13.1 31.7z"/>
			<path id="Layer" class="s0" d="m1516.7 218l-32.8-48.1h25.5l20.4 31.7 20.3-31.7h24.9l-32.8 48.1 34.5 50.3h-25.4l-22.1-33.9-22.1 33.9h-24.9z"/>
		</g>
	</g>
</svg>