<svg version="1.2" xmlns="http://www.w3.org/2000/svg" viewBox="0 0 1508 1507" width="1508" height="1507">
	<title>header-logo--dark-svg</title>
	<style>
		.s0 { fill: #ffffff } 
	</style>
	<g id="Layer_2">
		<g id="Layer_1-2">
			<path id="Layer" fill-rule="evenodd" class="s0" d="m32.4 724.5h-2.4c-3.9-0.3-7.6-1.4-11-3.2-3.4-1.7-6.5-4.1-9-7.1-2.5-2.9-4.4-6.3-5.6-10-1.1-3.6-1.6-7.5-1.3-11.3 2.8-33.1 7.8-66 14.9-98.4 7.1-32.4 16.3-64.3 27.7-95.5 11.3-31.2 24.7-61.6 40-91.1 15.4-29.4 32.7-57.8 51.8-84.9 4.5-6.4 11.3-10.7 19-12 7.7-1.4 15.6 0.4 21.9 4.9 6.4 4.4 10.8 11.2 12.1 18.9 1.4 7.7-0.3 15.6-4.8 22-17.6 25-33.5 51.1-47.7 78.2-14.1 27.2-26.5 55.2-36.9 83.9-10.5 28.8-19 58.2-25.6 88-6.5 29.9-11.1 60.2-13.7 90.6-0.3 3.7-1.3 7.2-2.9 10.5-1.6 3.3-3.8 6.2-6.5 8.7-2.7 2.5-5.9 4.4-9.3 5.8-3.4 1.3-7 2-10.7 2zm210.2-458.8c-5.8 0-11.5-1.8-16.3-5.1-4.9-3.2-8.6-7.9-10.8-13.3-2.2-5.4-2.8-11.3-1.6-17 1.2-5.8 4-11 8.2-15.1 48.6-47.4 103.4-88.1 162.9-120.9 59.5-32.8 123.1-57.5 189.1-73.3 66.1-15.9 134-22.8 201.9-20.6 67.8 2.2 135.1 13.6 200 33.7 7.4 2.4 13.6 7.6 17.3 14.5 3.6 6.9 4.3 14.9 2 22.4-2.3 7.4-7.5 13.6-14.4 17.2-6.9 3.7-15 4.4-22.4 2.1-59.9-18.7-121.9-29.2-184.6-31.3-62.6-2.1-125.3 4.2-186.2 18.8-61 14.7-119.7 37.5-174.5 67.8-54.9 30.3-105.4 67.9-150.2 111.7q-2 2-4.4 3.6-2.3 1.5-4.9 2.6-2.7 1.1-5.4 1.6-2.8 0.6-5.7 0.6zm97.6 1120.4q-0.1 0-0.1 0zm-4.4-0.4q-2.2-0.3-4.3-0.9-2.1-0.7-4.1-1.7-2-0.9-3.9-2.2c-32.3-22.1-62.8-46.6-91.3-73.4-28.5-26.8-54.9-55.8-78.9-86.7-24-30.9-45.6-63.6-64.6-97.8-19-34.2-35.3-69.8-48.8-106.5q-6.9-18.9-12.9-38.1-5.9-19.3-10.8-38.8-4.9-19.5-8.7-39.3-3.9-19.8-6.6-39.7c-1-7.7 1-15.5 5.7-21.7 4.8-6.3 11.8-10.3 19.5-11.4 7.7-1 15.5 1 21.7 5.8 6.2 4.7 10.3 11.7 11.4 19.4 3.4 24.2 8 48.3 13.9 72 5.9 23.7 13.1 47.2 21.4 70.1 8.4 23 18 45.5 28.7 67.5 10.8 22 22.7 43.4 35.7 64.1 12.8 20.3 26.5 39.9 41.2 58.8 14.8 18.9 30.5 37 47 54.3 16.6 17.3 34.1 33.7 52.3 49.2 18.3 15.5 37.3 30.1 57.1 43.6 5.2 3.6 9 8.7 11.1 14.6 2.1 6 2.2 12.4 0.3 18.4-1.8 6-5.6 11.2-10.6 15-5 3.7-11.1 5.7-17.3 5.8q-2.1 0-4.2-0.4zm4.2 0.4q0.1 0 0.2 0h-0.3q0 0 0.1 0zm1095.7-861.9c-2.9 0-5.8-0.4-8.6-1.3-2.8-0.8-5.5-2.1-8-3.8-2.4-1.6-4.6-3.6-6.4-5.9-1.9-2.3-3.4-4.8-4.5-7.6-14.6-37.8-32.5-74.2-53.5-108.9-20.9-34.7-44.9-67.6-71.5-98.1-26.6-30.6-55.9-58.8-87.4-84.3-31.5-25.5-65.2-48.2-100.7-67.9-6.8-3.8-11.9-10.1-14-17.6-2.2-7.6-1.3-15.6 2.5-22.5 3.8-6.8 10.1-11.9 17.7-14 7.5-2.2 15.5-1.3 22.4 2.5 38.4 21.3 75 46 109.2 73.6 34.2 27.7 65.9 58.2 94.9 91.4 28.9 33.1 54.8 68.7 77.6 106.4 22.7 37.6 42.2 77.2 58.1 118.2 1.4 3.6 2 7.4 1.9 11.3-0.1 3.9-0.9 7.7-2.5 11.2-1.6 3.5-3.8 6.7-6.6 9.4-2.8 2.7-6.1 4.8-9.7 6.2q-1.3 0.4-2.7 0.8-1.3 0.3-2.7 0.5-1.3 0.3-2.7 0.4-1.4 0-2.8 0zm-164.7 763.1c-5.8 0-11.5-1.7-16.3-4.9-4.9-3.2-8.6-7.7-10.9-13.1-2.2-5.3-2.9-11.2-1.8-16.9 1.1-5.7 3.9-11 8-15.1 31.4-32.2 59.7-67.3 84.4-104.9 24.7-37.6 45.7-77.6 62.7-119.3 16.9-41.6 29.8-84.9 38.4-129 8.7-44.2 13-89.1 12.9-134.1q0-12.1-0.4-24.1-0.4-12.1-1.3-24.1-0.8-12-2-24-1.2-12-2.9-24c-0.5-7.5 1.8-14.9 6.5-20.7 4.7-5.9 11.5-9.7 19-10.7 7.4-1 15 0.9 21.1 5.2 6.1 4.4 10.3 11 11.8 18.3q1.7 13 3.1 26 1.3 13 2.2 26 0.9 13.1 1.3 26.1 0.5 13.1 0.5 26.2c0 48.7-4.7 97.4-14 145.3-9.3 47.9-23.3 94.8-41.7 140-18.4 45.2-41.2 88.5-67.9 129.3-26.8 40.8-57.5 78.9-91.6 113.7q-2.1 2.1-4.5 3.8-2.5 1.6-5.2 2.8-2.7 1.1-5.6 1.7-2.9 0.5-5.8 0.5zm-513.8 219.1c-23.3 0-46.5-1-69.6-3.1-23.1-2.1-46.2-5.3-69-9.5-22.8-4.3-45.4-9.5-67.8-15.9-22.3-6.3-44.4-13.6-66.1-22-7.2-2.8-13.1-8.4-16.2-15.5-3.2-7.2-3.4-15.2-0.6-22.5 2.8-7.3 8.4-13.2 15.5-16.3 7.2-3.2 15.2-3.4 22.5-0.6 47.5 18.3 96.8 31.4 147.1 38.9 50.3 7.6 101.3 9.7 152 6.2 50.8-3.5 101-12.6 149.8-27 48.8-14.4 95.8-34.1 140.3-58.7 6.9-3.8 14.9-4.7 22.4-2.5 7.5 2.1 13.8 7.1 17.6 14 3.8 6.8 4.7 14.8 2.6 22.3-2.2 7.5-7.2 13.8-14 17.6q-20.6 11.4-41.8 21.6-21.2 10.1-43 18.8-21.8 8.8-44.1 16.2-22.3 7.4-45 13.3-23.5 6.2-47.5 10.8-23.9 4.7-48 7.7-24.2 3.1-48.5 4.7-24.3 1.5-48.6 1.5zm-106.7-166.9q-0.8-0.1-1.5-0.1-0.8 0-1.6-0.1-0.7-0.1-1.5-0.2-0.7-0.1-1.4-0.3c-19.5-4-38.8-9-57.8-15-19.1-6-37.7-13-56-20.8-18.3-7.9-36.2-16.7-53.7-26.4-17.4-9.6-34.3-20.2-50.7-31.6-16.1-11.1-31.7-23.1-46.6-35.7-15-12.7-29.3-26.1-42.9-40.2-13.7-14.1-26.6-28.9-38.8-44.2-12.2-15.4-23.7-31.3-34.3-47.8-4.9-6.6-6.9-14.9-5.5-23 1.5-8.1 6.3-15.2 13.2-19.6 6.9-4.4 15.4-5.7 23.3-3.7 8 2.1 14.7 7.4 18.6 14.7 9.5 14.8 19.8 29.2 30.8 43.1 11 13.8 22.7 27.2 35 39.9 12.3 12.7 25.2 24.8 38.7 36.2 13.5 11.5 27.5 22.2 42.1 32.3 14.7 10.2 30 19.7 45.7 28.4 15.8 8.7 31.9 16.6 48.5 23.6 16.5 7.1 33.4 13.3 50.5 18.7 17.2 5.4 34.6 9.8 52.2 13.4 7.1 1.5 13.4 5.6 17.7 11.5 4.3 5.9 6.3 13.2 5.5 20.4-0.7 7.2-4.1 14-9.5 18.8-5.4 4.9-12.4 7.6-19.7 7.7zm148.6 10.1c-7.5-0.2-14.7-3.2-20-8.5-5.4-5.3-8.5-12.4-8.8-19.8-0.3-7.5 2.3-14.9 7.2-20.5 4.9-5.7 11.8-9.3 19.3-10 45.7-3.7 90.8-13.1 134.1-28.2 43.3-15 84.6-35.5 122.7-61 38.2-25.5 72.9-55.7 103.4-90 30.5-34.3 56.5-72.3 77.4-113.1 3.7-6.7 9.9-11.7 17.2-13.9 7.3-2.2 15.2-1.5 22 1.9 6.8 3.5 12 9.5 14.4 16.7 2.5 7.2 2.1 15.1-1.1 22.1-23.1 45.3-51.9 87.5-85.8 125.6-33.8 38-72.3 71.6-114.6 99.9-42.3 28.2-88.1 51-136.2 67.7-48.1 16.7-98.1 27.1-148.9 31.1zm520.8-463.5q-0.7 0-1.3 0-0.7 0-1.4-0.1-0.7-0.1-1.3-0.1-0.7-0.1-1.4-0.3c-3.8-0.6-7.4-2.1-10.7-4.2-3.2-2.1-6-4.8-8.2-8-2.2-3.2-3.8-6.8-4.6-10.5-0.8-3.8-0.9-7.7-0.2-11.5 5.4-29 8.4-58.3 8.9-87.7 0.6-29.5-1.2-58.9-5.5-88-4.2-29.1-10.8-57.9-19.7-85.9-9-28.1-20.2-55.3-33.5-81.6-4.1-6.9-5.1-15.3-2.8-23 2.3-7.8 7.7-14.2 14.8-17.9 7.2-3.7 15.6-4.3 23.2-1.6 7.6 2.7 13.8 8.3 17.2 15.7q7.9 15.4 14.9 31.3 7 15.9 13 32.2 6.1 16.3 11.1 32.9 5.1 16.6 9.2 33.5c5 20.4 8.9 41.2 11.7 62 2.8 20.9 4.5 41.9 5.1 63 0.6 21 0.1 42.1-1.5 63.1-1.6 21-4.4 41.9-8.2 62.6-0.6 3.4-1.8 6.6-3.5 9.5-1.7 3-3.9 5.6-6.5 7.8-2.6 2.2-5.6 3.9-8.8 5-3.2 1.2-6.6 1.8-10 1.8zm-169.1-516.9q-2.8 0-5.5-0.5-2.8-0.5-5.3-1.5-2.6-1-5-2.5-2.3-1.5-4.4-3.4c-19.1-18.1-39.5-34.8-61.1-49.9-21.5-15.1-44.1-28.5-67.7-40.3-23.5-11.8-47.9-21.8-72.9-30.1-25-8.2-50.6-14.5-76.5-19-7.7-1.4-14.5-5.7-19-12.1-4.5-6.4-6.3-14.2-5-21.9 1.3-7.7 5.6-14.6 12-19.1 6.3-4.5 14.2-6.3 21.9-4.9 28.8 4.8 57.2 11.8 84.9 20.9 27.8 9.1 54.8 20.3 80.9 33.3 26.1 13.1 51.2 28.1 75.1 44.8 23.9 16.8 46.5 35.2 67.7 55.3 2.9 2.7 5.1 5.8 6.7 9.4 1.6 3.5 2.5 7.3 2.6 11.2 0.1 3.8-0.5 7.7-1.9 11.3-1.4 3.6-3.4 6.9-6.1 9.7q-2.1 2.2-4.5 3.9-2.5 1.8-5.3 2.9-2.7 1.2-5.7 1.9-2.9 0.6-5.9 0.6zm-655.4-93.2c-6.5-0.1-12.8-2.3-17.9-6.4-5.1-4-8.7-9.7-10.2-16-1.6-6.3-0.9-13 1.7-18.9 2.7-6 7.2-10.9 13-14 16.9-8.6 34.2-16.4 51.9-23.4 17.6-7 35.6-13.2 53.9-18.4 18.2-5.3 36.7-9.7 55.4-13.2 18.7-3.5 37.5-6.1 56.4-7.8 7.6-0.3 15 2.4 20.6 7.3 5.7 5 9.2 12 9.9 19.5 0.7 7.6-1.5 15-6.2 21-4.7 5.9-11.5 9.8-19 10.9q-25.6 2.2-50.8 7-25.2 4.7-49.9 11.8-24.7 7.1-48.6 16.6-23.9 9.4-46.7 21.1-1.6 0.8-3.2 1.3-1.7 0.6-3.4 1-1.7 0.3-3.4 0.5-1.7 0.2-3.5 0.1zm-287 668.3c-3.1 0-6.3-0.5-9.3-1.5-3-1-5.8-2.5-8.3-4.4-2.5-1.9-4.7-4.2-6.5-6.8-1.8-2.5-3.2-5.4-4.1-8.4-14.8-50-22.9-101.7-24.3-153.8-1.4-52.1 4.1-104.2 16.2-154.9 12.1-50.7 30.8-99.6 55.6-145.5 24.8-45.8 55.4-88.3 91.2-126.2 5.3-6 12.8-9.6 20.7-9.9 8-0.4 15.8 2.5 21.6 8 5.8 5.5 9.1 13.1 9.2 21.1 0.1 8-3 15.6-8.7 21.3-32.2 34.1-59.9 72.4-82.2 113.7-22.4 41.4-39.2 85.5-50.2 131.2-10.9 45.7-15.8 92.7-14.5 139.6 1.2 47 8.6 93.6 21.9 138.7 1.1 3.7 1.4 7.6 1 11.4-0.4 3.9-1.5 7.6-3.4 11-1.8 3.4-4.3 6.4-7.3 8.8-3.1 2.5-6.5 4.3-10.2 5.4q-1 0.3-2.1 0.5-1 0.2-2.1 0.4-1 0.1-2.1 0.2-1 0.1-2.1 0.1zm545.6 252c-16.1 0-32.2-0.8-48.2-2.5-16-1.7-31.9-4.3-47.6-7.8-15.7-3.5-31.2-7.8-46.4-13-15.3-5.1-30.2-11.1-44.8-17.9-7-3.4-12.5-9.3-15.2-16.7-2.6-7.3-2.3-15.4 1-22.4 3.3-7.1 9.3-12.6 16.6-15.2 7.4-2.7 15.4-2.3 22.5 1 27.9 12.8 57.3 22.4 87.4 28.3 30.2 5.9 60.9 8.3 91.6 6.9 30.7-1.4 61.2-6.4 90.7-15 29.5-8.6 57.9-20.7 84.5-36.1 6.8-4.4 15.1-5.8 22.9-3.9 7.9 1.9 14.6 6.9 18.6 13.9 4.1 7 5.1 15.3 2.8 23.1-2.3 7.7-7.6 14.2-14.8 17.9-16.8 9.7-34.1 18.2-52 25.6-17.9 7.4-36.2 13.7-54.9 18.7-18.7 5-37.7 8.8-56.9 11.3-19.1 2.5-38.5 3.8-57.8 3.8zm355.5-201.9q-2 0-4-0.3-1.9-0.3-3.8-0.8-1.9-0.5-3.8-1.3-1.8-0.8-3.5-1.8c-3.3-2-6.2-4.6-8.5-7.7-2.3-3.1-4-6.6-5-10.4-0.9-3.7-1.1-7.6-0.6-11.5 0.6-3.8 1.9-7.5 3.9-10.8 8.8-14.8 16.6-30.1 23.3-45.9 6.8-15.8 12.5-32.1 17-48.7 4.6-16.6 8-33.4 10.3-50.5 2.3-17 3.4-34.2 3.4-51.4q0-6-0.2-12-0.2-6-0.5-12-0.4-6.1-1-12.1-0.5-5.9-1.3-11.9c-0.8-7.7 1.5-15.4 6.3-21.4 4.8-6 11.7-9.9 19.4-10.9 7.6-1 15.3 1.1 21.5 5.8 6.1 4.6 10.2 11.5 11.3 19.1 3 24.3 4 48.8 3 73.2-1 24.5-4 48.8-9 72.8-5 23.9-12 47.4-20.9 70.2-8.8 22.8-19.6 44.8-32.1 65.9-1.2 2.2-2.8 4.2-4.6 6-1.8 1.7-3.9 3.3-6.1 4.5-2.2 1.3-4.6 2.2-7 2.9-2.5 0.6-5 1-7.5 1zm6.5-412c-2.6 0-5.2-0.3-7.7-1-2.6-0.7-5-1.7-7.2-3-2.3-1.4-4.4-3-6.2-4.9-1.8-1.8-3.4-4-4.6-6.2-16.6-29.9-37-57.5-60.9-82-23.8-24.4-50.8-45.6-80.2-63-29.5-17.3-61.1-30.6-94.1-39.6-32.9-9-66.9-13.5-101.1-13.5q-6 0-12.1 0.2-6 0.1-12 0.5-6 0.4-12 0.9-6 0.6-12 1.3-0.5 0-0.9 0.1-0.5 0-0.9 0-0.5 0-1 0-0.4-0.1-0.9-0.1c-7.6 0.2-14.9-2.6-20.5-7.7-5.6-5.2-9-12.3-9.5-19.8-0.4-7.6 2-15.1 7-20.9 4.9-5.8 11.8-9.4 19.4-10.2 43.7-5.5 88-4.5 131.4 3.1 43.4 7.5 85.4 21.5 124.7 41.4 39.2 19.9 75.3 45.6 107 76.2 31.7 30.6 58.7 65.7 80 104.2 1.9 3.4 3.1 7.1 3.5 11 0.4 3.8 0.1 7.7-0.9 11.4-1.1 3.7-2.9 7.2-5.3 10.2-2.4 3.1-5.4 5.6-8.8 7.5q-1.6 0.9-3.3 1.6-1.7 0.8-3.5 1.3-1.8 0.5-3.7 0.7-1.8 0.3-3.7 0.3zm-720.4-6.5q-1.9 0.1-3.8-0.2-1.9-0.3-3.8-0.8-1.9-0.5-3.6-1.2-1.8-0.7-3.5-1.7c-3.3-1.9-6.3-4.5-8.6-7.6-2.4-3.1-4.1-6.6-5.1-10.3-1-3.7-1.2-7.6-0.7-11.4 0.5-3.9 1.7-7.6 3.7-10.9 9.7-16.8 20.4-32.8 32.2-48.2 11.8-15.3 24.6-29.9 38.3-43.6 13.6-13.6 28.2-26.4 43.5-38.2 15.4-11.8 31.5-22.5 48.2-32.2 6.8-3.9 14.8-5 22.4-3 7.5 2 14 6.9 17.9 13.7 3.9 6.7 5 14.8 3 22.3-2 7.6-6.9 14-13.7 17.9-14.5 8.4-28.5 17.8-41.8 28-13.3 10.2-25.9 21.2-37.8 33.1-11.9 11.8-23 24.4-33.2 37.7-10.3 13.3-19.6 27.2-28.1 41.7-1.2 2.3-2.8 4.3-4.6 6.2-1.8 1.8-3.9 3.4-6.1 4.7-2.2 1.3-4.6 2.3-7.1 3-2.5 0.7-5.1 1-7.7 1zm54.5 487.5q-3 0-6-0.6-2.9-0.6-5.7-1.8-2.8-1.2-5.3-3-2.5-1.8-4.5-4c-18.8-20.2-35.6-42.1-50.2-65.5-14.7-23.3-27.1-48-37.2-73.7-10-25.7-17.7-52.2-22.8-79.3-5.1-27.1-7.6-54.6-7.6-82.2q0-7.8 0.3-15.6 0.3-7.8 0.8-15.6 0.6-7.8 1.4-15.5 0.8-7.8 1.9-15.5c1.4-7.4 5.6-14 11.7-18.4 6.1-4.3 13.7-6.2 21.2-5.2 7.4 1 14.2 4.8 18.9 10.7 4.8 5.8 7.1 13.3 6.5 20.8q-0.9 6.7-1.7 13.4-0.7 6.8-1.1 13.5-0.5 6.8-0.7 13.5-0.3 6.8-0.3 13.6c0 23.9 2.2 47.8 6.6 71.2 4.4 23.5 11 46.6 19.8 68.8 8.7 22.3 19.5 43.7 32.2 63.9 12.7 20.3 27.2 39.3 43.5 56.8 2.6 2.9 4.7 6.2 6 9.8 1.3 3.6 1.9 7.5 1.8 11.3-0.2 3.9-1.1 7.7-2.7 11.2-1.6 3.5-3.9 6.7-6.8 9.3q-2 1.9-4.3 3.4-2.3 1.5-4.9 2.6-2.5 1-5.3 1.6-2.7 0.5-5.5 0.5zm100.7-429.5c-5.8 1.9-12.2 1.9-18.1 0.1-5.8-1.9-11-5.5-14.7-10.5-3.7-4.9-5.8-10.9-5.9-17-0.1-6.2 1.7-12.3 5.2-17.4 8.8-12.7 18.6-24.7 29.3-35.8 10.7-11.1 22.4-21.4 34.7-30.6 12.4-9.3 25.5-17.5 39.2-24.7 13.7-7.1 28-13.1 42.7-18q6.9-2.2 13.8-4.2 7-1.9 14.1-3.5 7.1-1.6 14.2-2.8 7.1-1.2 14.3-2.1c7.6-0.6 15.2 1.7 21.1 6.5 5.9 4.8 9.7 11.7 10.6 19.3 0.9 7.6-1.1 15.2-5.7 21.3-4.6 6.1-11.3 10.1-18.9 11.4q-5.7 0.7-11.4 1.6-5.7 1-11.3 2.3-5.6 1.2-11.2 2.7-5.6 1.6-11 3.4c-11.7 3.8-23.1 8.6-34 14.3-10.9 5.7-21.3 12.3-31.2 19.6-9.8 7.4-19 15.6-27.6 24.5-8.5 8.8-16.3 18.4-23.2 28.5q-1.4 1.9-3.1 3.6-1.6 1.7-3.5 3.1-1.9 1.4-4 2.5-2.1 1.1-4.4 1.9zm469.6 116.7q-0.7 0.2-1.4 0.4-0.7 0.2-1.5 0.4-0.7 0.1-1.4 0.3-0.7 0.1-1.5 0.2c-3.8 0.5-7.7 0.2-11.4-0.9-3.8-1-7.2-2.8-10.3-5.2-3-2.3-5.6-5.3-7.5-8.7-1.9-3.3-3.1-7-3.6-10.9-1.9-16-5.5-31.8-10.8-47-5.2-15.3-12.1-30-20.4-43.8-8.3-13.8-18.1-26.7-29.1-38.5-11.1-11.8-23.3-22.4-36.6-31.6-6.7-4.3-11.5-11.2-13.1-19-1.6-7.9 0.1-16.1 4.6-22.7 4.6-6.6 11.7-11.1 19.6-12.3 7.9-1.3 16 0.7 22.5 5.6 16.6 11.6 31.9 24.9 45.8 39.7 13.8 14.8 26 31 36.5 48.4 10.4 17.4 19 35.8 25.6 54.9 6.6 19.2 11.1 39 13.6 59.1 0.4 3.4 0.3 6.7-0.5 10-0.7 3.3-2 6.4-3.7 9.3-1.8 2.8-4 5.4-6.7 7.5-2.6 2.1-5.5 3.7-8.7 4.8zm-175.6 275.9q-6.9 2.3-13.9 4.2-7 2-14 3.6-7.1 1.6-14.3 2.8-7.1 1.3-14.3 2.1c-7.6 0.6-15.1-1.7-21-6.6-5.9-4.8-9.6-11.7-10.5-19.2-1-7.6 1.1-15.2 5.7-21.3 4.5-6 11.3-10.1 18.8-11.3 16-2 31.8-5.6 47-10.9 15.3-5.2 30-12 43.8-20.4 13.8-8.3 26.7-18 38.5-29.1 11.8-11 22.4-23.2 31.6-36.5 4.5-6.4 11.3-10.8 19-12.2 7.6-1.3 15.6 0.4 22 4.8 6.4 4.4 10.8 11.2 12.1 18.9 1.4 7.7-0.3 15.6-4.7 22-8.8 12.7-18.6 24.7-29.3 35.9-10.7 11.1-22.3 21.3-34.7 30.6-12.3 9.3-25.4 17.5-39.1 24.6-13.8 7.2-28 13.2-42.7 18zm-228.9-32.9q-3.3 1.1-6.7 1.4-3.4 0.3-6.8-0.2-3.4-0.5-6.6-1.7-3.2-1.3-6-3.2c-12.7-8.8-24.7-18.6-35.9-29.3-11.1-10.7-21.3-22.3-30.6-34.7-9.3-12.4-17.5-25.5-24.7-39.2-7.1-13.7-13.1-27.9-18-42.6q-2.2-6.9-4.2-13.9-1.9-7-3.5-14-1.6-7.1-2.8-14.3-1.2-7.1-2.1-14.3c-0.6-7.6 1.8-15.1 6.6-21 4.8-5.8 11.7-9.6 19.3-10.5 7.5-0.9 15.1 1.1 21.2 5.7 6.1 4.5 10.2 11.3 11.4 18.8q0.7 5.7 1.7 11.4 0.9 5.7 2.2 11.3 1.2 5.6 2.8 11.2 1.5 5.5 3.3 11c3.9 11.7 8.7 23.1 14.4 34 5.7 10.9 12.2 21.3 19.6 31.1 7.4 9.9 15.5 19.1 24.4 27.6 8.9 8.5 18.4 16.3 28.5 23.3 3.2 2.2 5.9 5 8 8.3 2.1 3.2 3.6 6.8 4.2 10.6 0.7 3.8 0.7 7.7-0.1 11.5-0.9 3.8-2.4 7.4-4.6 10.5q-1.4 2-3 3.7-1.7 1.7-3.6 3.2-1.9 1.4-4.1 2.5-2.1 1.1-4.3 1.8zm177.7-335.8c12.5 5.2 23.9 12.8 33.5 22.4 9.6 9.6 17.2 21 22.4 33.6 5.2 12.5 7.9 25.9 7.9 39.5 0 41.9-25.2 79.6-63.9 95.6-38.7 16-83.2 7.1-112.8-22.5-29.5-29.6-38.4-74.1-22.3-112.7 16-38.7 53.8-63.8 95.6-63.8 13.6 0 27 2.7 39.6 7.9zm-56.7 54.3c-5.4 2.3-10.3 5.6-14.4 9.7-4.2 4.1-7.4 9.1-9.7 14.5-2.2 5.4-3.4 11.2-3.4 17 0 18 10.9 34.3 27.5 41.2 16.7 6.9 35.9 3.1 48.6-9.7 12.8-12.7 16.6-31.9 9.7-48.5-6.9-16.7-23.2-27.5-41.2-27.5-5.9 0-11.7 1.1-17.1 3.3z"/>
		</g>
	</g>
</svg>