<svg version="1.2" xmlns="http://www.w3.org/2000/svg" viewBox="0 0 1518 1174" width="1518" height="1174">
	<title>Intellicheck_Logo_Color-svg</title>
	<style>
		.s0 { fill: #0091fd } 
		.s1 { fill: #fdab08 } 
		.s2 { fill: #f58320 } 
	</style>
	<g id="#0091fdff">
		<path id="Layer" class="s0" d="m569.5 3.5c45.1-7.4 92.3-1.4 134.1 17.1 64.7 28.2 115.1 87.1 133.3 155.4 13.1 50 10.3 104.5-9.5 152.4-24.7 61.7-77.1 111.4-139.5 133.9-50.7 17.8-107.7 18.8-158.4 0.5-45.6-15.4-85.9-45.7-114.1-84.8-35.7-48.4-51.4-111-43.3-170.6 7.1-57.5 36.6-111.8 80.4-149.5 32.9-28.6 74-47.6 117-54.4z"/>
		<path id="Layer" class="s0" d="m150.1 508.7c41.7-40.9 100-64.1 158.3-62.4 56.9 0 112.5 24.6 152.8 64.3 49.1 48.7 97.7 97.7 146.5 146.6l-1 0.9c-101.2 100.9-201.5 202.6-303.1 303l-0.4 0.5c-100.4-101.8-202.1-202.3-302.7-303.8 50.2-49.4 99.3-99.9 149.6-149.1z"/>
	</g>
	<g id="#fdab08ff">
		<path id="Layer" class="s1" d="m1056.9 207.2c37.6-37.5 88.9-61 141.9-64 62.2-4.5 125.8 18.6 170.2 62.7 49.4 49.6 99.1 99.1 148.5 148.8-202 202.8-404.5 405.1-606.6 607.8-81.2-83.2-164.2-164.6-246.1-247.2-19.2-19.2-38.2-38.7-58.1-57.2l1-0.9c149.7-150.1 299.5-300 449.2-450z"/>
	</g>
	<g id="#f58320ff">
		<path id="Layer" class="s2" d="m303.6 961.1c101.6-100.4 201.9-202.1 303.1-303 19.9 18.5 38.9 38 58.1 57.2 81.9 82.6 164.9 164 246.1 247.2-48.8 49.1-97.8 98-146.7 147-41.8 41.4-100.3 65.8-159.1 64.2-47.2 0.2-94.1-16.1-131.5-44.6-16.6-12.2-30.1-28-44.9-42.3-41.6-42-83.8-83.4-125.1-125.7z"/>
	</g>
</svg>