<svg version="1.2" xmlns="http://www.w3.org/2000/svg" viewBox="0 0 1585 1012" width="1585" height="1012">
	<title>IDEAYA-Logo-White-Web-svg</title>
	<style>
		.s0 { fill: #ffffff } 
		.s1 { fill: #e82c26 } 
		.s2 { fill: #ec4d24 } 
		.s3 { fill: #f17224 } 
		.s4 { fill: #f49823 } 
		.s5 { fill: #f7ba1e } 
		.s6 { fill: #f8c725 } 
		.s7 { fill: #f8d126 } 
		.s8 { fill: #3f92cf } 
		.s9 { fill: #38b0cd } 
		.s10 { fill: #71c08e } 
		.s11 { fill: #a6cc50 } 
		.s12 { fill: #cbd93d } 
		.s13 { fill: #e8e52c } 
	</style>
	<path id="Layer" fill-rule="evenodd" class="s0" d="m29.8 687.6c14.7 0 24.2 5.8 24.2 17.8 0.1 1.7-0.1 3.5-0.6 5.1-0.5 1.6-1.3 3.2-2.3 4.6-1 1.4-2.2 2.6-3.6 3.6-1.4 1-2.9 1.8-4.6 2.2 6.4 1.9 13.9 6.7 13.9 17.7 0 16-15.6 19.5-26.8 19.5h-30v-70.5zm-1.2 10h-17.1v19.2l18.7 0.1c6.7 0 12.1-2.8 12.1-9.7 0-6.8-5.2-9.6-13.7-9.6zm1.9 29h-19v21.4h17.4c7.9 0 16.2-0.9 16.2-10.6 0-9.4-8.2-10.8-14.6-10.8zm75.6-39h11.5v70.5h-11.5zm97.6-1.3c24.8 0 37 18 37 36.5 0 18.6-12.3 36.6-37 36.6-24.8 0-37.1-18-37.1-36.6 0-18.5 12.2-36.5 37.1-36.5zm0 10.8c-17.1 0-25.4 12.3-25.4 25.8 0 13.5 8.3 25.8 25.4 25.8 17 0 25.3-12.4 25.3-25.9 0-13.4-8.2-25.7-25.3-25.7zm106.7-10.8q2.9-0.1 5.7 0.3 2.9 0.3 5.7 1 2.7 0.6 5.4 1.7 2.7 1 5.3 2.3v11q-2.4-1.5-5-2.6-2.5-1.1-5.2-1.9-2.7-0.7-5.4-1.1-2.8-0.3-5.6-0.2c-8.6 0-14 2.5-14 8.5 0 15.2 40.3 9.1 40.3 34.3 0 14.7-12.6 19.9-26.7 19.8q-3.3 0-6.5-0.3-3.2-0.4-6.4-1.2-3.2-0.7-6.2-1.9-3-1.2-5.9-2.7v-11.4q2.7 1.7 5.6 3 2.9 1.4 6 2.2 3.1 0.9 6.2 1.4 3.2 0.4 6.4 0.4c9.1 0 15.8-2.1 15.8-8.8 0-16.3-40.3-9.7-40.3-34.6 0-13 11.5-19.2 24.8-19.2zm108.1 0q2.6 0 5.2 0.3 2.5 0.2 5.1 0.8 2.5 0.6 4.9 1.5 2.5 0.8 4.8 2v11.1q-2-1.3-4.2-2.3-2.2-1-4.5-1.6-2.3-0.7-4.7-1-2.3-0.3-4.7-0.3c-13.5 0-27.5 8-27.6 26.6 0 17.3 14.3 25.4 27.7 25.4 7.3 0 13.8-1.9 18.5-5.5v11.4q-2.4 1.2-4.9 2-2.5 0.9-5.1 1.5-2.6 0.6-5.2 0.9-2.6 0.3-5.3 0.2c-18.2 0-37.6-11.8-37.5-35.9 0.1-25.1 19-37.1 37.5-37.1zm69.8 1.2h11.4v70.5h-11.4zm113 0v10.5h-37.1v19.2h34.1v10.5h-34.1v19.9h37.7v10.5h-49.1v-70.6zm49.8 70.5v-70.5h10.9l37.9 51.6c-0.1-2.4-0.1-5.2-0.1-7.8v-43.8h11.5v70.5h-10.8l-37.9-51.5c0.1 2.4 0.1 5.1 0.1 7.6v43.9zm146.6-71.7q2.6 0 5.2 0.3 2.6 0.2 5.1 0.8 2.5 0.6 5 1.5 2.4 0.9 4.8 2v11.2q-2-1.3-4.2-2.3-2.2-1-4.5-1.7-2.3-0.7-4.7-1-2.4-0.3-4.8-0.3c-13.5 0-27.5 8-27.6 26.6 0 17.4 14.3 25.4 27.8 25.4 7.3 0 13.8-1.9 18.4-5.4v11.4q-2.4 1.1-4.9 2-2.5 0.8-5.1 1.4-2.6 0.6-5.2 0.8-2.6 0.3-5.3 0.3c-18.2 0-37.6-11.9-37.5-36 0.1-25 18.9-37 37.5-37zm118.2 1.2v10.5h-37.1v19.2h34v10.5h-34v19.9h37.7v10.5h-49.2v-70.6zm70.7-1.2q2.9-0.1 5.7 0.3 2.9 0.3 5.7 1 2.8 0.6 5.4 1.7 2.7 1 5.3 2.3v11q-2.4-1.5-5-2.6-2.5-1.1-5.2-1.9-2.7-0.7-5.4-1.1-2.8-0.3-5.6-0.3c-8.6 0-14 2.6-14 8.6 0 15.2 40.3 9.1 40.3 34.2 0 14.8-12.6 20-26.7 19.9q-3.2 0-6.5-0.3-3.2-0.4-6.4-1.2-3.1-0.8-6.2-1.9-3-1.2-5.9-2.8v-11.3q2.7 1.7 5.6 3 2.9 1.4 6 2.2 3.1 0.9 6.2 1.4 3.2 0.4 6.4 0.4c9.1 0 15.8-2.2 15.8-8.8 0-16.3-40.3-9.7-40.3-34.7 0-12.9 11.5-19.1 24.8-19.1zm-986.7-413.1h56.4v346.4h-56.4zm248.8 0c122.7 0 182.1 72.7 182.1 173.2 0 100.4-59.4 173.1-182.1 173.1h-121.3v-346.3zm-0.5 51.4h-64.3v243.5h64.3c82.2 0 125.2-44.1 125.2-121.7 0-77.7-43-121.8-125.2-121.8zm467.3-51.4v51.4h-185.2v94.5h185.2v51.5h-185.2v97.5h185.2v51.4h-241.6v-346.3zm22.2 346.3l146.5-346.3h61.9l146.1 346.3h-59.5l-30.7-74.7h-173.7l-30.7 74.7zm109.9-124.2h134.7l-60.9-147.9c-2-5.4-4-10.8-6.5-19.3-2.4 8.5-4.3 13.9-6.4 19.3zm382.4 124.2l146.5-346.3h61.9l146.1 346.3h-59.4l-30.7-74.7h-173.8l-30.7 74.7zm109.9-124.2h134.6l-60.9-147.9c-1.9-5.4-3.9-10.8-6.4-19.3-2.5 8.5-4.4 13.9-6.4 19.3z"/>
	<path id="Layer" class="s0" d="m1212.6 657.5c0 0 50.9 6 78.5 67.8 40.2 90 16.3 170.6-14.4 201.2 3.4-148.9-34.5-216.6-64.1-269zm94.8-545.4c37.3 148.8-42.4 313.9-85.5 415.3-46.5 109.3-122.1 258.6-122.3 359.4-0.2 57.3 17 94.2 37.2 125.1-35.4-5.6-68.4-42.2-81.4-109.3-20.9-107.7 53.2-244.2 122.3-409.2 63.8-152.4 116.1-267.1 73.7-418.9-7.8-28.1-19.8-52.8-31.2-74.5 28.9 5.8 70.6 45.6 87.2 112.1zm-178.9 423c-93.9-224.3-126.9-313.9-82.1-392.8 9.2 124.8 68.6 217.5 92.9 279.7 22.2 56.7-0.8 96.8-10.8 113.1z"/>
	<path id="Layer" class="s1" d="m1193.3 89.3h28.1c2.9 0.1 5.6 1.3 7.6 3.4 2 2.1 3.1 4.8 3.1 7.7 0 2.9-1.1 5.7-3.1 7.7-2 2.1-4.7 3.3-7.6 3.4h-28.1c-3.1 0.1-6-1-8.2-3.1-2.1-2.1-3.4-5-3.4-8 0-3 1.3-5.9 3.4-8 2.2-2.1 5.1-3.2 8.2-3.1z"/>
	<path id="Layer" class="s2" d="m1152.7 135h75.2c2.9 0.1 5.6 1.3 7.6 3.4 2 2.1 3.1 4.8 3.1 7.7 0 2.9-1.1 5.7-3.1 7.7-2 2.1-4.7 3.3-7.6 3.4h-75.2c-2.9-0.1-5.6-1.3-7.6-3.4-2-2-3.1-4.8-3.1-7.7 0-2.9 1.1-5.6 3.1-7.7 2-2.1 4.7-3.3 7.6-3.4z"/>
	<path id="Layer" class="s3" d="m1109.8 180.7h120.7c3.1-0.1 6 1 8.2 3.1 2.2 2.1 3.4 5 3.4 8 0 3-1.2 5.9-3.4 8-2.2 2.1-5.1 3.2-8.2 3.1h-120.7c-3.1 0.1-6-1-8.2-3.1-2.1-2.1-3.4-5-3.4-8 0-3 1.3-5.9 3.4-8 2.2-2.1 5.1-3.2 8.2-3.1z"/>
	<path id="Layer" class="s4" d="m1098.3 226.3h125.3c2.9 0.2 5.6 1.4 7.6 3.4 2 2.1 3.2 4.9 3.2 7.8 0 2.9-1.2 5.6-3.2 7.7-2 2.1-4.7 3.3-7.6 3.4h-125.3c-2.9-0.1-5.6-1.3-7.6-3.4-2-2.1-3.1-4.8-3.1-7.7 0-2.9 1.1-5.7 3.1-7.8 2-2 4.7-3.2 7.6-3.4z"/>
	<path id="Layer" class="s5" d="m1105 283.3c0-1.5 0.3-2.9 0.9-4.3 0.5-1.3 1.3-2.5 2.4-3.6 1-1 2.2-1.8 3.6-2.4 1.3-0.5 2.8-0.8 4.2-0.8h94.7c2.9 0.1 5.6 1.3 7.6 3.4 2 2 3.1 4.8 3.1 7.7 0 2.9-1.1 5.6-3.1 7.7-2 2.1-4.7 3.3-7.6 3.4h-94.7c-1.4 0-2.9-0.3-4.2-0.8-1.4-0.6-2.6-1.4-3.6-2.4-1.1-1.1-1.9-2.3-2.4-3.6-0.6-1.4-0.9-2.8-0.9-4.3z"/>
	<path id="Layer" class="s6" d="m1126.7 329c0-1.5 0.3-3 0.8-4.3 0.6-1.4 1.4-2.6 2.4-3.6 1.1-1.1 2.3-1.9 3.6-2.4 1.4-0.6 2.8-0.9 4.3-0.9h57.1c2.9 0.1 5.6 1.3 7.6 3.4 2 2.1 3.1 4.9 3.1 7.7 0 2.9-1.1 5.7-3.1 7.8-2 2-4.7 3.3-7.6 3.4h-57.1c-1.5 0-2.9-0.3-4.3-0.9-1.3-0.5-2.5-1.4-3.6-2.4-1-1-1.8-2.2-2.4-3.6-0.5-1.3-0.8-2.8-0.8-4.2z"/>
	<path id="Layer" class="s7" d="m1148.6 374.7c0-1.5 0.3-2.9 0.9-4.3 0.5-1.3 1.4-2.6 2.4-3.6 1-1 2.2-1.9 3.6-2.4 1.3-0.6 2.8-0.9 4.3-0.9h14.4c2.9 0.1 5.6 1.4 7.6 3.4 2 2.1 3.1 4.9 3.1 7.8 0 2.8-1.1 5.6-3.1 7.7-2 2.1-4.7 3.3-7.6 3.4h-14.4c-1.5 0-3-0.3-4.3-0.9-1.4-0.5-2.6-1.4-3.6-2.4-1-1-1.9-2.2-2.4-3.6-0.6-1.3-0.9-2.8-0.9-4.2z"/>
	<path id="Layer" class="s8" d="m1140.1 914.8h24.8c2.8 0 5.5 1.1 7.5 3.1 2 2 3.1 4.7 3.1 7.5 0 2.8-1.1 5.5-3.1 7.5-2 1.9-4.7 3.1-7.5 3.1h-24.8c-2.8 0-5.5-1.2-7.5-3.1-2-2-3.1-4.7-3.1-7.5 0-2.8 1.1-5.5 3.1-7.5 2-2 4.7-3.1 7.5-3.1z"/>
	<path id="Layer" class="s9" d="m1135.3 871.3h66c2.8 0 5.4 1.1 7.4 3.1 2 2 3.1 4.7 3.1 7.5 0 2.8-1.1 5.5-3.1 7.5-2 2-4.6 3.1-7.4 3.1h-66c-2.8 0-5.5-1.1-7.4-3.1-2-2-3.1-4.7-3.1-7.5 0-2.8 1.1-5.5 3.1-7.5 1.9-2 4.6-3.1 7.4-3.1z"/>
	<path id="Layer" class="s10" d="m1241.5 838.4c0 1.4-0.3 2.8-0.8 4.1-0.5 1.2-1.3 2.4-2.3 3.4-1 1-2.1 1.8-3.4 2.3-1.3 0.5-2.7 0.8-4.1 0.8h-91.8c-2.9 0.1-5.7-1-7.8-3-2.1-2-3.2-4.7-3.2-7.6 0-2.9 1.1-5.6 3.2-7.6 2.1-2 4.9-3.1 7.8-3h91.8c1.4 0 2.8 0.3 4.1 0.8 1.3 0.6 2.4 1.4 3.4 2.3 1 1 1.8 2.2 2.3 3.5 0.5 1.2 0.8 2.6 0.8 4z"/>
	<path id="Layer" class="s11" d="m1231.9 794.9c0 1.4-0.2 2.8-0.8 4.1-0.5 1.3-1.3 2.4-2.3 3.4-0.9 1-2.1 1.8-3.4 2.3-1.3 0.5-2.7 0.8-4 0.8h-70.4c-2.9 0.1-5.7-0.9-7.8-2.9-2.1-2-3.2-4.8-3.2-7.7 0-2.8 1.1-5.6 3.2-7.6 2.1-2 4.9-3.1 7.8-2.9h70.4c1.3 0 2.7 0.2 4 0.8 1.3 0.5 2.5 1.3 3.4 2.2 1 1 1.8 2.2 2.3 3.5 0.6 1.3 0.8 2.6 0.8 4z"/>
	<path id="Layer" class="s12" d="m1209.1 762h-42.4c-2.8 0.1-5.6-0.9-7.7-2.9-2.1-2-3.2-4.8-3.2-7.7 0-2.8 1.1-5.6 3.2-7.6 2.1-2 4.9-3 7.7-2.9h42.4c2.8 0.1 5.3 1.2 7.2 3.2 1.9 2 3 4.6 3 7.3 0 2.8-1.1 5.4-3 7.4-1.9 2-4.4 3.1-7.2 3.2z"/>
	<path id="Layer" class="s13" d="m1187.8 697.4h6.9c2.8 0 5.5 1.1 7.5 3.1 2 2 3.1 4.7 3.1 7.5 0 2.8-1.1 5.5-3.1 7.4-2 2-4.7 3.1-7.5 3.1h-6.9c-2.8 0-5.5-1.1-7.4-3.1-2-1.9-3.1-4.6-3.1-7.4 0-2.8 1.1-5.5 3.1-7.5 1.9-2 4.6-3.1 7.4-3.1z"/>
</svg>