<svg version="1.2" baseProfile="tiny-ps" xmlns="http://www.w3.org/2000/svg" viewBox="0 0 1608 428" width="1608" height="428">
	<title>idex corp-svg-svg</title>
	<defs>
		<clipPath clipPathUnits="userSpaceOnUse" id="cp1">
			<path d="M-31.33 625.07L1607.03 625.07L1607.03 0.4L-31.33 0.4L-31.33 625.07Z" />
		</clipPath>
	</defs>
	<style>
		tspan { white-space:pre }
		.shp0 { fill: #ffffff } 
	</style>
	<g id="Symbols">
		<g id="tranparent-header">
			<g id="logo">
				<g id="Layer">
					<g id="Group-5">
						<g id="Clip-Path: Clip-Path: Fill-2" clip-path="url(#cp1)">
							<g id="Clip-Path: Fill-2">
								<path id="Fill-1" fill-rule="evenodd" class="shp0" d="M320.74 0.4L202.23 426.97L0.37 426.97L118.88 0.4L320.74 0.4ZM354.24 0.4L536.72 0.4C602.71 0.4 658.99 64.67 664.33 145.4C694.02 59.66 774 0.4 835.18 0.4L1261.85 0.4L1301.77 72.66L1376.84 0.4L1607.03 0.4L1381.67 217.34L1497.53 426.97L1293.11 427.05L1248.13 345.9L1163.9 426.97L791.71 426.97C734.89 426.97 662.25 369.54 651.49 279.75C614.41 367.81 547.36 426.97 471.83 426.97L235.74 426.97L354.24 0.4ZM885.52 143.79L1045.48 143.79L1032.55 190.33L481.35 190.33L471.81 224.69L1023 224.69L1009.49 273.32L860.85 273.32C864.82 292.1 887.78 308.18 901.34 307.86L999.92 307.86L978.89 383.49L1143.86 224.69L1256.63 224.69L1266.06 190.33L1162.3 190.33L1076.01 33.93L1053.73 114.07L934.07 113.63C904.46 113.63 885.52 136.9 885.52 143.79Z" />
							</g>
						</g>
					</g>
				</g>
			</g>
		</g>
	</g>
</svg>