<svg version="1.2" xmlns="http://www.w3.org/2000/svg" viewBox="0 0 1578 1059" width="1578" height="1059">
	<title>Intact_Financial_logo-svg</title>
	<style>
		.s0 { fill: #051922;stroke: #000000;stroke-opacity: .1;stroke-width: 0 } 
		.s1 { fill: #e3173e;stroke: #000000;stroke-opacity: .1;stroke-width: 0 } 
		.s2 { fill: #00aebd;stroke: #000000;stroke-opacity: .1;stroke-width: 0 } 
	</style>
	<g id="layer1">
		<path id="path4796" class="s0" d="m0 995.8q391.8 0 783.7 0 326.2 0 652.3 0 70.9 0 141.7 0v63.1q-70.8 0-141.7 0-326.1 0-652.3 0-391.9 0-783.7 0z"/>
		<path id="path4796-9" class="s1" d="m0 0.9q391.8 0 783.7 0 326.2 0 652.3 0 70.9 0 141.7 0v63q-70.8 0-141.7 0-326.1 0-652.3 0-391.9 0-783.7 0z"/>
		<path id="path4796-9-6" class="s2" d="m0 498.2q391.8 0 783.7 0 326.2 0 652.3 0 70.9 0 141.7 0v63q-70.8 0-141.7 0-326.1 0-652.3 0-391.9 0-783.7 0z"/>
	</g>
</svg>