<svg version="1.2" xmlns="http://www.w3.org/2000/svg" viewBox="0 0 1442 1514" width="1442" height="1514">
	<title>INFICON-Corporate-Logo-2-Color-svg</title>
	<style>
		.s0 { fill: #ffffff } 
	</style>
	<g id="#2e598aff">
		<path id="Layer" class="s0" d="m1112.9 0h44.9c35 2.7 70 8.4 103 20.8 48.9 17.5 92.5 50 121.9 93 41.5 59.5 56.8 133.4 58.3 204.9 1.7 123-32.4 243.9-80.6 356.1-56.2 130-134.1 249.9-224.4 358.6-0.2-243.3-0.1-486.6-0.1-729.8-221.5-0.1-442.9 0-664.3-0.1 76.4-67.6 159.6-127.6 248.5-177.8 30.4 25 66.2 43.7 104.8 52 63.1 14.5 131.8 1.9 185.6-34.1 50.4-33 87-85.4 102.4-143.6zm-1031.4 827.3c81.3-185.3 204.9-350.5 351.6-489 43.6 3.5 87.4 8.3 129.8 19.6 35.9 9.9 72.2 24.8 98.1 52.6 28.9 30.1 41 71.8 47.3 112 9.2 61 9.3 122.9 11.2 184.4 0 169.1 0.1 338.3 0 507.4-2.2 59.8-1.9 119.9-11.9 179.1-116 64-243.5 113.7-377.1 120.6h-36.7c-59.5-2.8-120.3-16.7-169.9-51.1-49.2-32.9-83.8-84.5-102.4-140.3-12.9-37.3-18.7-76.7-21.5-116v-61.4c6.6-110 37.6-217.3 81.5-317.9z"/>
	</g>
</svg>