<svg version="1.2" xmlns="http://www.w3.org/2000/svg" viewBox="0 0 1507 1504" width="1507" height="1504">
	<title>14567890-svg</title>
	<style>
		.s0 { fill: #0c36a1 } 
	</style>
	<g id="#56575aff">
		<path id="Layer" fill-rule="evenodd" class="s0" d="m156.1 0h1346.9c7.2 418.8 0.9 837.9 3 1256.7 3.8 95.8-24.7 205.8-120.9 247.3h-1384.2c0.3-437.9-0.8-875.6 0.3-1313.4-1.1-90.3 67.3-171.6 154.9-190.6zm253.6 400.2c-78.5 11.2-81.2 106.2-75.3 167.7 6.1 231.9 19.5 463.8 16.6 695.8l-0.4 12.2c235.1-47.8 470-96.7 705.1-144.1 29.9-6.3 62.3-13.9 81.9-39.8 0.4-0.6 1.3-1.5 1.9-2.1l9.5-11.8c7.3-273.6 0.2-547.1 3.6-820.7l0.4-10.1c-247.6 52-494.9 105.7-743.3 152.9zm-72.8 723.4c0.2 47-4.6 95.8 14.1 140.1-18.7-44.3-13.9-93.1-14.1-140.1z"/>
	</g>
</svg>