<svg version="1.2" xmlns="http://www.w3.org/2000/svg" viewBox="0 0 1582 1582" width="1582" height="1582">
	<title>20_year_logo-svg</title>
	<style>
		.s0 { fill: #0d4365 } 
		.s1 { fill: #ffffff } 
		.s2 { fill: #40b4e5 } 
	</style>
	<g id="Layer">
		<g id="Layer">
			<path id="Layer" class="s0" d="m0 0.2h1581.2v1581.2h-1581.2z"/>
			<g id="Layer">
				<path id="Layer" class="s1" d="m233.7 312.6h157.8v716.1h-157.8z"/>
				<path id="Layer" class="s1" d="m1133.9 978c-93.1 48.5-195.2 68.6-300.1 68.6-223.6 0-386.5-146.7-386.5-376 0-229.7 162.9-376.4 386.5-376.4 113.3 0 213.6 25.1 285 92l-111 121.6c-42.3-44.6-94.2-67.5-174-67.5-134.4 0-222.5 97-222.5 230.3 0 133.3 88.1 230.4 222.5 230.4 68.6 0 119.4-19 148.4-35.1v-116.6h-128.3v-145.6h280z"/>
				<path id="Layer" class="s1" d="m1189.7 312.6h157.8v716.1h-157.8z"/>
			</g>
			<path id="Layer" class="s2" d="m233.7 1105.1h1113.3v164.6h-1113.3z"/>
		</g>
		<g id="Layer">
		</g>
	</g>
</svg>