<svg version="1.2" xmlns="http://www.w3.org/2000/svg" viewBox="0 0 1508 571" width="1508" height="571">
	<title>ihuman-logo-svg</title>
	<style>
		.s0 { fill: #ff892c } 
		.s1 { fill: #4ab034 } 
	</style>
	<g id="#ff892cff">
		<path id="Layer" class="s0" d="m312.9 3c23.7-2.9 47.7-3.7 71.6-1.6 21.4 1.8 42.8 6 63 13.6 14.1 5.3 27.6 12.3 39.6 21.4 9.6 7.3 18.2 16 25 25.9 7.8 11.4 13.3 24.3 15.9 37.8 3.1 15.8 2.4 32.2-1.1 47.9-2.6 11.5-6.7 22.6-11.7 33.3-10.3 21.5-24.3 41.1-40.4 58.5 2.4-3.1 5-6.1 7.4-9.2 15.2-19.7 27.8-42 34.1-66.2 3.9-15.2 5.2-31.2 2.5-46.7-2.6-14.6-8.6-28.7-17.5-40.6-8.6-11.6-19.7-21.2-32-28.7-14.6-9.1-30.9-15.3-47.6-19.6-22.3-5.6-45.5-7.7-68.5-7.4-44.2 0.7-88 10-129.4 25.2-33.3 12.3-65.2 28.5-94.5 48.7-29.8 20.7-57 45.6-77.9 75.4-9.7 13.9-17.8 28.9-23.4 44.9-4.8 13.6-7.6 28-7.4 42.4 0.2 11.6 2.3 23.1 6.5 33.9 5.8 15 15.6 28.4 27.7 38.9 12.3 10.8 26.9 18.9 42.2 24.8 21.1 8.1 43.5 12.3 66 13.8 5.2 0.4 10.4 0.4 15.7 0.9-4.6 0-9.2-0.1-13.7-0.2-22-0.5-44.1-3.2-65.3-9.1-17.2-4.8-33.9-11.6-48.8-21.4-13.5-8.8-25.6-20-34.4-33.6-10.7-16.2-16.2-35.6-16.5-55v-2.8c0.3-11.6 2.1-23.2 5.4-34.3 5.1-17.6 13.4-34.1 23.3-49.4 9.8-15 21.2-28.8 33.7-41.5 25.7-26.3 55.7-48.1 87.7-66 28.7-15.9 59-28.8 90.3-38.4 23.7-7.2 48-12.5 72.5-15.6z"/>
		<path id="Layer" class="s0" d="m225.4 299.1c6.7-1 13.6 0 19.6 3.1 6.2 3.1 11.3 8.4 14.2 14.7 4 8.4 3.9 18.6-0.2 26.9-2.8 6.1-7.8 11.2-13.8 14.3-5.8 3.1-12.6 4.2-19.1 3.2-8-1.1-15.4-5.4-20.3-11.7-4.4-5.6-6.8-12.7-6.6-19.8 0-8.7 3.9-17.2 10.3-23 4.5-4 10-6.7 15.9-7.7z"/>
	</g>
	<g id="#4ab034ff">
		<path id="Layer" class="s1" d="m299 264.7q28.6 0 57.1 0c0.1 44.9 0 89.8 0.1 134.7 0.5-0.3 1-0.8 1.3-1.3 6.8-10.2 15.7-19.1 26.5-25 11.3-6.2 24.4-8.5 37.2-7.9 10.3 0.4 20.8 2.4 30 7.3 8.1 4.1 14.8 10.5 19.7 18.1 4.4 6.9 7.3 14.7 9.3 22.6 2.2 9.4 3.1 19 3.3 28.6q0 61.7 0 123.3c-19 0-37.9 0-56.9 0 0-35.1 0-70.2 0-105.4 0.1-9.2-0.1-18.6-2.6-27.5-1.8-6.4-5.1-12.7-10.3-16.9-5.5-4.5-12.7-6.3-19.7-6.2-6.6-0.2-13.3 1.6-18.9 5.1-9.6 6.2-15.9 16.8-17.9 28-1.4 6.9-1 14-1.1 20.9q0 51 0 102-28.5 0-57.1 0 0-150.2 0-300.4zm-96.8 123.3c19-6.1 37.9-12.1 56.9-18.1q0 97.6 0 195.2-28.4 0-56.9 0 0-88.6 0-177.1z"/>
		<path id="Layer" fill-rule="evenodd" class="s1" d="m865 366.9c10.8-2.4 22.1-2.3 32.8 0.1 8.8 2 17.1 6 23.7 12.1 7 6.2 12 14.2 15.6 22.8 4.3-7.1 9.6-13.7 15.9-19.2 6.5-5.7 14.1-10.2 22.2-13.1 8.4-3 17.4-4.3 26.3-4.4 9.7-0.1 19.6 1.1 28.7 4.7 7.7 3.1 14.7 8.1 19.9 14.5 8.1 9.8 12.3 22.2 14.4 34.6 1.8 10.1 2 20.3 2 30.6q0 57.7 0 115.5-28.5 0-57 0 0-48.8 0-97.6c-0.2-10 0.6-20.2-1.4-30.1-1.4-7.9-4.4-15.9-10.5-21.3-6.5-6-15.8-7.7-24.2-6.9-6.8 0.7-13.2 4.1-17.9 9-6.7 6.9-11 16-12.8 25.5-0.9 5.1-1.1 10.4-1 15.5q0 53 0 105.9-28.5 0-56.9 0c-0.1-38.4 0-76.7 0-115.1-0.4-10.8-1.9-22.4-8.9-31.1-5.4-6.9-14.4-10-22.9-9.8-8-0.3-16 2.5-21.8 8.1-6.3 5.8-10.2 13.9-12.1 22.2-1.4 5.9-1.9 11.9-1.8 17.9q0 53.9 0 107.8-28.6 0-57.1 0 0-97.6 0-195.2 28.5 0 57.1 0c0.1 10.3-0.1 20.6 0.1 30.8 2-2.3 3.4-5.1 5.4-7.4 10.4-13.5 25.7-22.7 42.2-26.4zm294.4 2.5c13.5-2.6 27.2-4.6 41-4 11.9 0.5 23.9 2.3 35 6.8 9.1 3.8 17.5 9.5 23.9 17 5.3 6.2 9.2 13.5 11.8 21.2 3.6 10.4 5.1 21.4 5.5 32.4q0 61.2 0 122.4-27.1 0-54.3 0c0-9.5 0.1-19 0-28.5-0.9 0.5-1.3 1.4-1.9 2.3-5 7.9-11.5 15.1-19.4 20.3-8.8 6-19.2 9.4-29.7 10.3-11.7 1-23.9 0.1-34.9-4.2-12.2-4.8-22.8-14.1-28.4-26-3.3-6.7-5-14.1-5.6-21.4-1-14.3 1-29.4 8.8-41.7 7-11.3 18.6-19.1 30.9-23.8 11.8-4.6 24.3-6.3 36.7-7.9q22-3 43.9-5.9c-0.1-6.4-0.9-13-3.9-18.7-2.5-5-6.8-9.1-11.9-11.4-5.8-2.8-12.3-3.7-18.6-3.8-15.4-0.2-30.8 3-44.9 9-7.7 3.3-15 7.5-22 12.2 0-14.7 0-29.4 0-44.1 11.8-6.4 24.9-9.9 38-12.5zm25.2 107.7c-7.9 1.2-16.2 3.6-22.2 9.2-4.7 4.2-7.1 10.4-7.3 16.7-0.5 7.1 1.9 14.5 7.4 19.3 6.3 5.6 15.2 7.2 23.4 6.6 8.2-0.5 16.3-3.7 22.5-9.3 7.2-6.4 12.1-15.3 13.6-24.9 1.2-7.4 0.5-15 0.7-22.5q-19 2.4-38.1 4.9zm233.7-108.3c10.3-3.4 21.2-4.2 32-3.3 9.1 0.7 18.3 2.9 26.3 7.3 6.6 3.6 12.3 8.8 16.6 14.9 5.1 7.1 8.5 15.3 10.6 23.7 2.8 10.6 3.7 21.5 3.8 32.3q0 60.7 0 121.4-28.4 0-56.7 0 0-50.5 0-101c0.1-11 0.1-22.2-3.4-32.7-2.1-6.9-6.1-13.4-12.1-17.4-5.4-3.5-11.8-5-18.1-4.9-7.3-0.2-14.7 1.9-20.6 6.3-7.1 5.1-12.3 12.7-15 21-1.9 6.1-2.6 12.6-2.5 19q0 54.8 0 109.7-28.6 0-57.2 0 0-97.6 0-195.2 28.6 0 57.2 0c0.3 10.3 0.4 20.5 0.7 30.8 4.3-7.1 9.5-13.7 15.8-19.2 6.6-5.7 14.3-10.1 22.6-12.7zm-896.8 1.3q28.5 0 57.1 0.1 0 57.8 0 115.7c0.4 10 2 20.4 8 28.6 4.3 6.1 11.3 10 18.7 11.1 9.1 1.4 19 0.4 26.9-4.7 7.7-4.8 13.1-12.8 15.7-21.4 1.8-6.1 2.3-12.5 2.4-18.9q0-55.2 0-110.5 28.3 0 56.6 0 0 97.6 0 195.1c-18.8 0-37.7 0-56.6 0-0.1-10 0-20 0-30-1.1 0.2-1.5 1.4-2.1 2.2-4.6 6.9-10.1 13.3-16.7 18.6-7.3 5.8-15.9 10-25 12.1-8.8 2.1-17.8 2.3-26.7 1.5-9.4-0.9-18.8-3.4-27-8.1-7.4-4.2-13.6-10.2-18.2-17.3-4.7-7.3-7.8-15.5-9.8-23.9-2.6-11.1-3.5-22.5-3.3-33.9q0-58.1 0-116.3z"/>
	</g>
</svg>