<svg version="1.2" xmlns="http://www.w3.org/2000/svg" viewBox="0 0 1532 1532" width="1532" height="1532">
	<title>Iluka Resources logo-svg</title>
	<style>
		.s0 { fill: #006bb6 } 
		.s1 { fill: #009a66 } 
	</style>
	<path id="Layer" class="s0" d="m0.8 766.6c0-162.5 51.7-320.8 147.6-451.9 95.9-131.2 231-228.4 385.7-277.7 154.8-49.3 321.2-48.1 475.2 3.5 154.1 51.6 287.7 150.8 381.6 283.3l-14.4 14.6c-78.5-72.3-182-111.4-288.8-108.9-106.7 2.4-208.3 46.1-283.5 121.9-75.2 75.9-118.1 177.9-119.6 284.7-1.6 106.8 38.3 210 111.2 288l-466.9 471c-50.5-35.1-96.6-76.2-137.2-122.4-40.7-46.1-75.6-97-104-151.5-28.5-54.6-50.3-112.3-64.9-172.1-14.7-59.7-22.1-121-22-182.5z"/>
	<path id="Layer" class="s1" d="m1517.9 912.6c-14.4 73.8-39.7 145.2-74.9 211.7-35.3 66.5-80.1 127.5-133.1 180.9-53 53.5-113.6 98.8-179.8 134.6-66.2 35.8-137.3 61.7-211 76.7zm-2.9-307.5q4.2 19.8 7.4 39.8 3.2 19.9 5.3 40.1 2.1 20.1 3.2 40.3 1 20.2 1 40.5 0 21.8-1.2 43.4l-714.6 721q-24.7 1.5-49.6 1.5-19.4 0-38.9-1-19.4-0.9-38.8-2.9-19.3-1.9-38.6-4.9-19.2-2.9-38.3-6.8zm-88.5-228q10.8 18.5 20.6 37.5 9.8 19 18.6 38.5 8.7 19.5 16.3 39.5 7.6 20 14.1 40.4l-955.2 964.9q-20.5-6.3-40.5-13.7-20-7.3-39.6-15.8-19.6-8.5-38.7-18.1-19.1-9.6-37.7-20.2z"/>
</svg>