<svg version="1.2" xmlns="http://www.w3.org/2000/svg" viewBox="0 0 1589 807" width="1589" height="807">
	<title>IM_Cannabis_Logo (1)-svg</title>
	<style>
		.s0 { fill: #402b56 } 
	</style>
	<g id="#402b56ff">
		<path id="Layer" class="s0" d="m94.4 0.9c20.8-2.4 42.3 1.2 60.9 10.8 22.8 11.6 41.2 31.8 50.5 55.6 9.8 24.5 9.9 52.7 0.4 77.3-7.5 19.8-21.2 37.2-38.7 49.3-17.4 12.1-38.7 18.9-60 18.8-24.1 0.4-48.2-8.1-66.9-23.2-19.5-15.5-33.2-38-37.9-62.4-4.9-24.5-0.8-50.8 11.6-72.6 16.1-29.3 46.9-49.9 80.1-53.6zm277.4 255.9c52.4-9.6 107.5-3.8 156.8 16.6 31.3 12.9 60.2 31.7 84.9 54.9 32.2-30.2 71.5-52.9 114-65 50.2-14.6 104.5-14.7 154.8-0.3 64.4 18.2 121.5 60.6 157.8 116.8 8.3 11 14.3 23.4 20.3 35.8 23.6-53 64.5-98 114.9-126.8 38.4-22.1 82.3-34.7 126.6-36.3 52.1-2.1 104.7 10.8 149.7 37.2 39.8 23.1 73.7 56.3 97.6 95.8 21.9 35.9 35.3 77 39 119-58.5 0-117-0.1-175.5 0-4.8-18.6-14.6-36-28.5-49.3-18.9-18.7-45.4-29.4-72.1-29.1-36.9-0.3-72.7 21.4-89.9 54-12.9 23.6-15.9 52.4-8.2 78.1 10.2 35.3 40.6 63.7 76.5 71.3 25.6 5.8 53.3 1.1 75.7-12.6 23-14 40.1-37.4 46.4-63.6q87.8 0 175.6 0c-3.8 43.6-18.1 86.2-41.4 123.1-22.6 36-53.6 66.5-89.8 88.7-39.7 24.4-85.7 38.5-132.3 40.3-50 2.3-100.6-9.3-144.5-33.5-52.3-28.4-94.8-74.2-119.5-128.4-17.1 38.3-43.4 72.5-75.7 99.2-48 39.9-110 62.7-172.5 62.9q0-85 0-170c21.3-0.8 42.3-8.1 59.3-20.8 13.7-10.1 24.8-23.5 32.3-38.8 10.3-20.8 13.4-45.2 8.7-67.9-7.1-36.2-34.6-67.4-69.5-79.2-23.5-9.1-50.3-9.4-73.9-0.5-21.8 8-40.8 23.7-52.9 43.6-10.1 16.2-15.2 35.3-15.4 54.5 0 45.9-0.1 91.8 0 137.8-58.2-0.1-116.3 0.1-174.5-0.1 0.2-45.5 0-91 0.1-136.6 0.1-20.1-5.5-40.3-16.4-57.3-11.2-17.6-27.7-31.7-46.9-39.9-19.8-8.6-42.3-10.8-63.3-6.2-22.7 4.8-43.5 17.6-58.3 35.4-15.3 18.3-23.9 42-24.2 65.8 0 46.2 0.1 92.4 0 138.6q-150.4 0-300.8 0 0.1-204.6 0-409.2 90.6 0 181.3 0c0 36.4 0.1 72.8 0 109.2 41.7-55.8 105-95.1 173.7-107.2z"/>
		<path id="Layer" fill-rule="evenodd" class="s0" d="m268.5 749.4c10.5-14.1 31.2-16.6 46.7-9.9 0 5.4-0.1 10.7 0 16.1-7.4-6.4-18.8-7.6-27.4-3.2-11.6 6.3-13.4 23.3-6 33.4 8 9.8 23.9 9.3 33.4 2-0.1 5-0.1 10 0 14.9-11.2 5.3-24.7 5.8-36 0.7-8.6-4-14.9-12.3-16.8-21.6-2.3-11-0.7-23.2 6.1-32.4zm458-12.4c9.3-1.9 19.3-0.3 27.6 4.3-0.3 4.9 0.2 9.9-0.4 14.8-6.3-4.3-13.8-7.5-21.6-6.5-2.8 0.3-6.1 1.6-6.8 4.7-1.1 3.7 1.9 7.4 5.5 8.2 8.3 2.8 18.5 3.6 24 11.4 6.1 9.6 2.8 24.5-7.7 29.7-11 5.6-24.5 3.7-35.3-1.7-0.1-5.4 0-10.8-0.1-16.2 7.1 5.9 16.8 9.5 26 7.3 5.4-0.9 6.5-9.2 1.7-11.7-6.9-3.4-15.2-3.4-21.7-8-7.9-4.8-9.4-15.7-6.3-23.9 2.3-6.5 8.5-11 15.1-12.4zm-708.5 0.3c5.2 0 10.5 0.1 15.7 0-0.1 22.8 0 45.7 0 68.5-5.3 0-10.5 0.1-15.7-0.2q0-34.2 0-68.3zm72.4 0c5.9 0 11.7 0.1 17.6 0 8.8 22.8 17.4 45.6 26.2 68.3-5.5 0.5-11.1-0.2-16.7 0.2-1.8-4.4-3.2-9.1-5-13.5-9-0.6-18 0-27-0.5-1.8 4.6-3.5 9.2-5.1 13.8-5.4 0.3-10.8 0.2-16.1 0.2 8.2-22.9 17.5-45.6 26.1-68.5zm-0.5 41.8c6-0.1 11.9 0 17.9 0-3.1-8.2-5.9-16.4-9.1-24.5-2.7 8.2-5.9 16.3-8.8 24.5zm58.6-41.7c6.6-0.1 13.3 0 19.9-0.1 5.7 16.7 11.4 33.4 17 50.1 5.5-16.8 11.4-33.4 17.1-50.1 6.5 0.1 13.1 0 19.6 0.1 2.8 22.7 5.9 45.5 8.9 68.2-5.1 0.4-10.2 0-15.3 0-2.1-16.1-4.6-32.2-6.3-48.3-5.9 16.2-11.1 32.6-16.9 48.8-5.4-0.1-10.8 0-16.2-0.1-5.4-15.9-10.6-31.8-16.3-47.6-2.1 15.8-3.9 31.6-6.1 47.4q-7.1 0.1-14.2 0c2.8-22.9 6.1-45.6 8.8-68.4zm199.9-0.1c5.9 0.1 11.7 0 17.6 0 8.7 22.9 17.6 45.7 26.1 68.6-5.5-0.6-11.3 0.4-16.6-0.6-2.1-4.2-3.3-8.8-5-13.2-9.1 0-18.2-0.4-27.3 0-1.7 4.4-3 9-4.9 13.3-5.3 1-10.9 0.1-16.3 0.4 8.7-22.9 17.6-45.7 26.4-68.5zm8.4 17.3c-3 8.1-5.9 16.3-8.9 24.5q8.9-0.1 17.8 0c-3-8.2-5.9-16.4-8.9-24.5zm42.7-17.3c4.9 0.1 9.7 0 14.5 0.1 10.8 14.7 21.8 29.3 32.6 44.1 0.3-14.7 0-29.5 0.1-44.2 4.7 0 9.5 0.1 14.2 0-0.1 22.8 0 45.5-0.1 68.3-4.7 0.1-9.6 0.6-14.3-0.1-11.2-14.4-21.9-29.3-32.8-44-0.1 14.7 0 29.4 0 44.2q-7.1 0.3-14.2-0.1 0-34.1 0-68.3zm75.5 0c4.8 0 9.6 0.1 14.4 0 10.9 14.8 21.8 29.5 32.8 44.3 0-14.8-0.1-29.6 0-44.3 4.7 0.1 9.4 0 14.2 0-0.2 22.9-0.1 45.7-0.1 68.5-4.8-0.2-9.7 0.5-14.4-0.3-11.1-14.4-21.8-29.2-32.7-43.8-0.1 14.7 0 29.4 0 44.1-4.7 0-9.4 0-14.1 0-0.1-22.8 0-45.7-0.1-68.5zm94.6 0q8.8 0.1 17.6 0c8.7 22.8 17.6 45.6 26.1 68.5-5.6 0-11.2 0.1-16.7-0.1-1.6-4.6-3.3-9.1-4.9-13.6-9.1-0.2-18.2-0.2-27.3 0-1.5 4.5-3.2 9-4.8 13.5-5.5 0.4-11 0.4-16.4-0.1 9-22.6 17.6-45.5 26.4-68.2zm-0.5 41.8c5.9 0 11.9 0 17.8-0.1-3-8.1-5.9-16.3-8.9-24.4q-4.4 12.3-8.9 24.5zm51.5-41.8c9 0.1 18 0 27 0.1 6.3 0.2 13.2 2.2 17 7.6 4.9 7.1 3.3 17.5-3 23.2 11.1 4.9 13 20.8 5.2 29.4-6.1 7.1-16.2 8.4-25 8.2-7.1-0.4-14.1 0-21.2 0.1q0-34.3 0-68.6zm15.2 11.9q0 7.9 0 15.8c4.4-0.2 9.1 0.8 13.1-1.3 4.7-2.5 5.3-10.1 0.7-12.9-4.2-2.5-9.2-1.3-13.8-1.6zm0.1 27.7c-0.1 5.6-0.1 11.1-0.1 16.7 5.2-0.3 10.7 0.9 15.7-0.9 5.5-2.3 6.5-11.1 1.3-14.2-5.2-2.8-11.3-1.2-16.9-1.6zm46.7-39.5c5.2-0.1 10.5 0 15.7-0.1 0.1 22.8 0 45.7 0.1 68.5-5.3 0-10.5 0.1-15.7-0.2 0-22.7 0.1-45.5-0.1-68.2z"/>
	</g>
</svg>