<svg version="1.2" xmlns="http://www.w3.org/2000/svg" viewBox="0 0 1528 298" width="1528" height="298">
	<title>Imago_Main_Logo_HR-svg</title>
	<style>
		.s0 { fill: #bbe4fa } 
		.s1 { fill: #59c6f1 } 
		.s2 { fill: #009fe3 } 
		.s3 { fill: #ffffff } 
	</style>
	<g id="#bbe4faff">
		<path id="Layer" class="s0" d="m449.7 0h4.3c4.6 0.8 9.2 1.3 13.8 2.2 7.6 1.5 15 3.6 22.2 6.4-3.4 3-7 5.9-10.5 8.9-0.8 0.6-1.6 1.4-2.6 1.7-1.5-0.1-2.9-0.6-4.2-0.9-11.1-3.1-22.4-5.5-33.4-8.8 3-3.6 6.6-6.7 10.4-9.5zm43.7 10.8c0.8-0.7 1.8-0.1 2.6 0.2 12.1 5.4 23.5 12.2 33.8 20.5-1.7 7.2-3.2 14.4-4.9 21.6-7.2 2.5-14.5 4.6-21.7 7-1 0.5-2.1 0.3-3-0.4-6.1-3.9-12.3-7.7-18.4-11.6-1.3-0.7-1.1-2.4-1.2-3.7-0.3-7-0.8-14-1-21-0.2-1.3 1.1-2.1 2-2.9 4-3.2 7.8-6.6 11.8-9.7zm39.7 23.3c7.9 6.1 15.1 13.2 21.9 20.6 1.3 1.4 2.7 2.8 3.8 4.4-1.9 1.4-4.1 2.4-6.2 3.6-1.1 0.6-2.2 1.4-3.4 1.6-2-0.6-3.7-1.8-5.5-2.7-4-2-7.9-4.2-11.8-6.3-1-0.6-2.4-1-3-1.9 1.1-6.5 2.8-12.9 4.2-19.3zm-111.7 20.6c0.6-5.3 1.2-10.7 2.8-15.7 2.2 6.3 4.2 12.6 6.3 19 0.9 1.7-0.8 3.1-1.8 4.3-2.5 2.6-4.6 5.4-7.2 7.8-0.7-5.1-0.4-10.3-0.1-15.4zm4.1 19.1c3.1-3.5 5.9-7.2 9.1-10.5 5.7 1.3 11.4 2.5 17.1 3.8 2 0.5 4 0.7 5.9 1.5 0.7 0.8 1 1.9 1.4 2.9q3.2 8 6.6 15.9c0.3 1 1 2.2 0.2 3.2q-4.1 7.4-8.2 14.8c-0.7 1.3-1.3 2.8-2.4 3.9-1.6 0.4-3.2 0.3-4.8 0.3-5.1-0.1-10.1 0-15.2-0.1-1 0.2-1.6-0.7-2-1.4-4.5-8.2-7.6-17.2-9.4-26.3-0.3-1.7-0.7-3.4-0.6-5 0.5-1.2 1.5-2.1 2.3-3zm332.8 3.6c10.1-2.2 20.5-3.4 30.8-3.5 3 5.5 5.8 11.1 8.9 16.5-2.4 5.6-5.1 11-7.7 16.6-1 2-1.7 4.3-3 6.1-2.6 1-5.5 1.1-8.2 1.7-4.3 0.8-8.7 1.5-13.1 2.3-1.4 0.3-3.2 0.8-4.3-0.5-5.8-5-11.9-9.7-17.5-14.9 1.1-5.6 2-11.3 2.9-17 0.3-1.6 0.5-3.2 1.1-4.7 3.2-1.3 6.7-1.8 10.1-2.6zm35.4-3.5c13.1 0.4 26.2 2.6 38.6 6.7 1.3 0.4 2.3 1.4 2.9 2.6 1.9 3.4 3.6 7 4.7 10.8-12.9-1.5-25.7-3.5-38.6-5.2-2-3.5-3.7-7.1-5.7-10.5-0.8-1.4-1.4-2.8-1.9-4.4zm-83.1 20.7c10.6-5.5 21.8-10 33.3-13.5-1.1 6.6-2.1 13.3-3.4 19.9-6.8 0.7-13.6 1.3-20.4 2-1.2 0-2.6 0.5-3.3-0.6-2.2-2.5-4.2-5.2-6.2-7.8zm-273.5 19q9.2-0.1 18.4 0c2.1 6.2 3.8 12.5 5.8 18.7 0.4 1.4 1 2.9 0.2 4.3-2.2 4.8-4.6 9.5-6.9 14.2-0.7 1.4-1.2 2.9-2.2 4.1-1.2 0.6-2.6 0.6-3.9 0.8-4.6 0.6-9.2 1.3-13.8 2 2.4-9.3 8.8-17 16.1-22.9q-4.5-6-8.5-12.4c-1.8-2.9-3.8-5.7-5.2-8.8zm147.3 12.5c4.6-0.3 9.3-0.6 13.9-0.7-2.9 15.4-5.6 30.8-8.7 46.1-2.2-0.5-4.4-0.9-6.5-1.8-1-0.4-1.2-1.6-1.6-2.4-2.2-6.4-4.4-12.8-6.8-19.1-0.3-0.9-0.6-2-0.1-3 3.2-6.4 6.6-12.7 9.8-19.1zm251.8 8.6c2.2-2.5 4.2-5.2 6.6-7.5-0.8 8.2-3.3 16.2-6.4 23.8-0.8 2-1.8 4-2.8 5.9-2-4.3-3.1-9-4.9-13.4 2.4-3 5-5.9 7.5-8.8zm-190.2 20.3c1-4.7 1.9-9.4 3-14.1 3.9 1.9 7.8 3.5 11.6 5.5 1.1 0.4 1.1 1.7 1.2 2.6q0.6 8.8 1.5 17.5c0 1.4 0.4 3-0.8 4.1q-4.7 5.3-9.5 10.6c-2 2.1-3.7 4.5-5.9 6.4-2.5 0.5-5.1-0.4-7.6-0.6 2-10.7 4.4-21.3 6.5-32zm150.2-9c1.5-1.4 2.7-3.1 4.4-4.2 1.6-0.1 3.2 0.3 4.8 0.6 6.2 1.1 12.5 2 18.7 3.2 1.6 4.8 3.1 9.6 4.8 14.3 0.5 1.3 0.7 2.8-0.1 4-4.5 7.6-10.2 14.5-16.8 20.4-1.6 1.4-3.1 3.2-5.1 4-3.1-0.7-5.9-2.3-8.9-3.4-3.2-1.4-6.5-2.6-9.7-4-1.1-0.4-1-1.6-1.2-2.5q-1.1-9.7-2.3-19.4c-0.3-1.5 1.1-2.4 1.9-3.4 3.3-3 6.3-6.4 9.5-9.6zm-250 2.7c8.2 0 16.3-0.6 24.5-0.5 2.2 6 4.3 12.1 6.5 18.1 0.6 1.6 1.3 3.2 1.5 5-2.8 3-6.2 5.5-9.3 8.3-2.4 1.9-4.5 4.3-7.2 6-2.6-1.1-4.8-3-7.2-4.4q-6.9-4.4-13.7-8.9c1.5-7.9 3-15.8 4.9-23.6zm-96.3 10.6c1-0.1 2-0.4 3-0.2 0.9 0.7 1.5 1.5 2.1 2.3 4.4 5.7 9 11.2 13.3 16.8q-3.1 11.5-6.2 23.1c-0.2 0.8-0.4 1.9-1.4 2-6.7 2-13.5 3.8-20.2 5.7-4.2-8.7-6.2-18.2-7.2-27.8-0.6-6.5-1.1-13 0.1-19.5 5.5-0.9 11-1.5 16.5-2.4zm216 13.2c7.5 3.3 15.1 6.5 22.6 10.1-1.5 7.8-3 15.5-4.4 23.3-8.2 1.7-16.4 3.1-24.6 4.6-2.8-5.2-5.3-10.6-8.1-15.9-0.6-1.3-1.5-2.5-1.6-4 1.7-2.5 4-4.5 5.9-6.8 3.4-3.8 6.8-7.6 10.2-11.3zm-84.7 1.8c1-1.2 2.5-0.4 3.7-0.1 1.3 0.4 2.8 0.6 4 1.4-1.1 6.3-2.4 12.6-3.6 18.9-1 4.3-1.2 8.9-3.3 12.8-2.6 4.6-5.8 8.9-9.4 12.7-1.7-1.3-3.5-2.5-5.3-3.7-0.7-0.6-1.8-1.2-1.7-2.3-0.5-7.2-0.7-14.3-1.1-21.5 0-1.2-0.3-2.4 0.1-3.6 1.2-1.5 2.9-2.6 4.3-3.9 4.1-3.6 8.2-7.1 12.3-10.7zm-43.9 1.5c1.3-0.7 2.6 0 3.7 0.8 6.1 4 12.3 7.9 18.4 11.9 1.6 0.7 1.2 2.6 1.4 4 0.2 7.3 0.8 14.6 0.9 21.9q-7.6 4.4-15.2 8.8c-2 1-3.8 2.5-5.9 3.3-1.9-0.3-3.5-1.5-5.2-2.3-5.5-2.8-10.9-5.7-16.5-8.4-1.4-0.7-2.9-1.3-4.1-2.3-0.2-0.5-0.2-1.1-0.2-1.6 0.6-9.7 1-19.3 1.5-29 7-2.5 14.1-4.7 21.2-7.1zm248.3 8.3c5.7 2.3 11.4 4.7 17.1 7-6.5 5.5-13.6 10.1-20.8 14.5 4.5 8.2 7.4 17.8 6.3 27.2-4.4-2.4-8.7-5-13.1-7.5-0.8-0.5-1.6-0.9-2.3-1.6-0.3-0.7-0.3-1.6-0.4-2.3-0.3-6.1-0.7-12.1-1.1-18.2-0.3-1.5 0.8-2.6 1.7-3.7 4.2-5.1 8.3-10.3 12.6-15.4zm-150.9 26.1c1.4-6.5 2.5-13 4.1-19.5q3.5 0.5 6.9 0.9c3.6 7 7 14 10.6 21-2.4 5.3-4.9 10.6-7.3 15.9-1.4 2.5-2.2 5.3-3.9 7.7-2.6 1-5.5 1.4-8.3 2-1.7-4.8-3.1-9.8-3.7-14.9-0.6-4.4 0.9-8.8 1.6-13.1zm-178.1-1.8c2.3-0.5 4.5-1.6 6.9-1.6 1.6 0.8 2.8 2 4.2 3.1 5.6 4.3 11.1 8.7 16.8 13 0.6 0.5 1.2 1 1.7 1.6 0.1 1-0.2 1.9-0.4 2.8-1.5 6.3-2.8 12.6-4.4 18.9-14.2-5-26.9-14.4-35.3-27-1.3-2.1-2.9-4.2-3.8-6.6 4.6-1.7 9.5-2.7 14.3-4.2zm227.2 1.5c1.4-0.4 2.5 0.8 3.5 1.6 5.1 4.6 10.4 8.9 15.5 13.4 0.7 0.5 0.1 1.4 0 2.1-3.4 9.1-6.4 18.3-9.9 27.3-9.2 0.8-18.4 1.5-27.6 2.3-1.3 0.2-2-1-2.7-1.8-4.2-5.6-8.5-11.1-12.7-16.6-1-1-0.3-2.3 0.2-3.3q4.4-9.3 8.7-18.7c0.4-0.9 1-2 2.2-2.1 7.6-1.4 15.2-2.8 22.8-4.2zm-126.2 11.2c1.9-1 3.6-2.4 5.6-3 2.5 1.3 4.6 3.1 6.9 4.8-5.1 5.2-10.7 9.8-16.7 13.9-3.7 2.4-7.5 4.8-11.5 6.5 0.1-4.5 0.1-9 0.5-13.4q7.6-4.4 15.2-8.8zm200.7 13c4.1-2.4 8.3-4.8 12.5-7 4.8 2.7 9.5 5.6 14.3 8.3 0.8 0.6 2.1 0.9 2.5 1.9-0.2 2.5-1.2 4.8-2 7.1-3.8 9.4-8.8 18.4-15.2 26.3-2.2 2.5-4.2 5.3-7 7.3-2.9-1.5-5.1-4-7.8-5.8-3.1-2.6-6.6-4.7-9.4-7.6 0.2-5.6 1.4-11.1 2-16.6 0.5-2.9 0.4-6 1.3-8.9 2.7-2 5.9-3.3 8.8-5zm-120 7.7c2.5-0.5 5-1.4 7.6-1.7 0.8-0.2 1.2 0.7 1.8 1.3 4.1 5.6 8.5 11 12.7 16.6 0.9 0.9 0.3 2.2-0.1 3.3-1.2 3.4-2.4 6.8-3.8 10.2-5-5.2-9-11.4-12.6-17.6-2.1-3.9-4.2-7.8-5.6-12.1zm95.5 28c3-0.7 6-2 9.2-2.4 2.2 1.1 4 3 6.1 4.4 3.8 3.1 7.7 5.9 11.3 9-10.2 8.8-23.1 14.3-36.5 15.8-4.2 0.3-8.4 1.7-12.6 0.4 1.2-7.2 2.4-14.5 3.6-21.8 6.2-2 12.6-3.6 18.9-5.4z"/>
	</g>
	<g id="#59c6f1ff">
		<path id="Layer" class="s1" d="m436.6 12.9c11.6 2.9 23.2 5.9 34.8 8.9 1.4 0.4 2.9 0.6 4.3 1.2 0.4 2.6 0.2 5.2 0.4 7.8 0.5 6 0.6 12.1 0.9 18.1-5.4 4.9-10.7 9.9-16.1 14.9-0.6 0.5-1.3 1.2-2.2 0.8-8-2.1-16.1-4.1-24.1-6.2-2.7-8.3-5.4-16.5-8.1-24.7-0.3-0.8-0.3-1.6 0-2.4 2.5-6.6 5.9-12.8 10.1-18.4zm37.1 44.1c2.2-1.8 4-4 6.3-5.5 6.5 3.8 12.8 8 19.2 12-1.4 7.7-3 15.3-4.6 22.9-5.6 0.4-11.2 0.1-16.9 0.2-2.3-0.1-4.8 0.2-7.1-0.3-1.8-3.5-3.1-7.3-4.8-10.9-1-2.7-2.5-5.2-3.1-8 3.4-3.7 7.4-6.9 11-10.4zm87.7 5.2c2.6 2.4 4.5 5.4 6.8 8.1 4.6 5.9 8.9 12 13 18.3-2 3-4 6-5.9 9.1-8.2-1.7-16.3-3.3-24.4-5.1 0.1-3.8-0.1-7.7 0.1-11.5 0.3-4.4 0.1-8.9 0.2-13.4 3.4-1.7 6.7-3.9 10.2-5.5zm22 30c6 9.3 11.3 19.1 15.9 29.1-4.7 0.6-9.4 0.7-14.1 0.9-1.2-1.9-1.4-4.2-2.2-6.3q-2.4-7.9-4.9-15.8c1.8-2.6 3.5-5.3 5.3-7.9zm211.3 14.3c2.2-4.7 4.2-9.4 6.6-13.9 11.3 1.7 22.7 3.1 34 4.7 1.9 0.3 3.9 0.4 5.8 1 2 5.6 2.2 11.6 2.6 17.5 0 1.9 0.3 4.2-1.2 5.7-5.6 6.5-11.1 13-16.6 19.5-8.6-1.1-17.1-2.4-25.6-3.5-2.7-5.5-5.2-11-7.8-16.5-0.7-1.7-1.9-3.3-2-5.2 1.1-3.2 2.9-6.2 4.2-9.3zm-116 7c9-6.4 18.6-12 28.3-17.2 2.5 3 4.9 6.2 7.4 9.2-3.1 7.7-6.1 15.5-9.3 23.2-5.8-1.2-11.7-2.2-17.6-3.3-2.2-0.5-4.4-0.6-6.5-1.4-1.2-3.4-1.3-7-2.3-10.5zm-21.8 16.7c5.9-5 12.1-9.9 18.5-14.3 0.6 3.1 1.2 6.2 1.8 9.3-4.8 6-9.7 11.9-14.6 17.9-4.4-1.9-8.7-4-13-6.1 2.2-2.5 4.8-4.6 7.3-6.8zm107.3-8.8c7.4-1.6 14.9-2.7 22.4-4.1 3.3 7.2 6.8 14.2 9.9 21.5-1.7 2.3-4.1 4.1-6.2 6.3q-4.1 4.1-8.3 8.3c-7.4-3.1-14.8-6.1-22.3-9.1 1.1-6.4 2.5-12.7 3.6-19.1 0.2-1.3 0.4-2.6 0.9-3.8zm-308.2 35.3c3-6.5 6.2-12.9 9.4-19.3 8.2 2.1 16.5 3.9 24.7 6-0.1 8 0.2 16.1-0.4 24-6.3 2.7-12.5 5.4-18.8 8-5-6.2-9.9-12.5-14.9-18.7zm16.8 22c6.2-2.7 12.5-5.2 18.7-8 7 3.9 13.8 7.9 20.7 11.8q-0.6 15.5-1.4 30.9-11 4.1-21.9 8.2c-7.4-5.7-14.7-11.5-22.1-17.2-0.4-0.4-0.9-0.7-1.1-1.2 0.1-1.5 0.6-2.9 0.9-4.3 1.7-6 3.3-12.1 4.9-18.1 0.2-0.8 0.3-1.8 1.3-2.1zm260.6 42.2c3-7.4 5.9-14.9 8.9-22.3 8.4 1.4 16.8 2.5 25.2 4 0.3 7.1 1.1 14.2 1.2 21.3-5.3 2.9-10.5 5.9-15.7 8.8-1.7 0.9-3.3 2-5.1 2.7-2.6-2.1-4.6-4.8-7.1-7-2.5-2.5-5-5-7.4-7.5zm-243.2 4.2c7.5-2.8 14.9-5.5 22.3-8.4 8.7 4.4 17.3 8.9 26 13.3 0 5-0.5 10.1-0.5 15.1-10.7 4.8-22.7 6.8-34.4 5.8-6.2-0.5-12.4-1.7-18.5-3.5 1.6-7.4 3.4-14.9 5.1-22.3zm216.6 1.5c7.9-1.2 15.8-2.2 23.7-3.2 5 5.1 10.2 10.1 15.1 15.2-1.2 8.3-2.1 16.6-3.3 24.9-9.2 2.6-18.4 5.2-27.6 7.7-0.9 0.5-1.6-0.3-2.2-0.8-3.6-3.4-7.2-6.8-10.9-10.2-1.6-1.6-3.4-2.9-4.8-4.7 3.1-9.7 6.8-19.3 10-28.9zm-42.2 33.9c8.8-0.9 17.7-1.4 26.6-2.3 1.1-0.1 2.6-0.4 3.5 0.7 5.5 5 10.9 10.3 16.5 15.3-1.1 7.5-2.4 15.1-3.7 22.6-8.7-0.9-17.4-2.9-25.4-6.4-8.5-3.6-16.1-9.1-22.6-15.6 1.5-4.8 3.5-9.5 5.1-14.3z"/>
	</g>
	<g id="#009fe3ff">
		<path id="Layer" class="s2" d="m523.8 57.5c1.2-0.4 2.5-1.1 3.7-0.3 6.6 3.6 13.2 7 19.8 10.6 0 7.5-0.1 15-0.1 22.6-0.1 1.3 0.3 3-1.1 3.8-8.6 7.1-16.9 14.4-25.6 21.3-7.2-8.9-14.6-17.6-21.9-26.5-0.7-0.6-0.2-1.7-0.2-2.5 1.6-7.4 3.1-14.9 4.6-22.3 6.9-2.4 13.9-4.4 20.8-6.7zm98.9 17.3c7.9 1.4 15.9 3 23.8 4.5 1.2 7.9 2.3 15.9 3.5 23.8-7.3 3.7-14.6 7.3-21.9 11q-5.9-6-11.7-12c-1.7-1.8-3.7-3.4-5.2-5.5 0.8-2.6 2.5-4.9 3.7-7.4q3.9-7.2 7.8-14.4zm-152.3 15.4c8.1 0 16.2 0.1 24.2 0 7.8 9.2 15.4 18.5 23.1 27.7-8.4 7.2-16.9 14.1-25.3 21.3-0.8 0.8-2 0.3-2.9 0.1-8-1.9-16-3.8-23.9-5.7-2.2-7.3-4.4-14.5-6.6-21.8 3.8-7.2 7.6-14.4 11.4-21.6zm78.4 6.7c0.7-0.8 1.8-0.4 2.7-0.2 7.7 1.6 15.4 3.1 23.1 4.8 2.2 6.9 4.3 13.9 6.4 20.9 0.6 1.4-0.3 2.7-0.9 3.9-3.2 6-6.1 12.1-9.3 18-8.5 0.1-17.1 0.7-25.6 0.6-7.3-8.9-14.8-17.6-22.1-26.5q12.8-10.8 25.7-21.5zm170.3 9.9c7.5-0.6 15-1.4 22.5-2.1 4.6 3.8 9.2 7.6 13.7 11.5 1.7 1.4 3.6 2.6 5 4.3-1.4 8.1-3.1 16.1-4.5 24.2-10.4 5.5-20.8 11.1-31.2 16.6q-7.7-14.7-15.5-29.3c-0.3-0.6-0.8-1.3-0.4-2 3-7.4 5.9-14.8 8.8-22.1 0.2-0.8 0.9-1 1.6-1.1zm-199.9 14.8c0.6-0.7 1.4-0.4 1.8 0.3 7.2 8.5 14.3 17 21.5 25.6-1.7 8-3.3 16.1-5 24.2-6.9 2.4-13.8 4.6-20.7 7-1.1 0.3-2.4 0.9-3.4 0.1-6.6-3.7-13.1-7.5-19.7-11.2 0-7.7 0.1-15.3 0.1-23-0.1-0.9 0.1-2 0.9-2.5q12.3-10.3 24.5-20.5zm97.5 0.9c2.3-0.4 4.6 0.3 6.9 0.7 3 0.6 6.1 1.1 9 1.8 1.8 0.5 3.4 2 3.4 3.9 0 2-0.6 4-0.9 5.9q-10.3 54.2-20.5 108.5c-0.6 3.1-2.3 6-5 7.8-3.3 2.4-8 2.8-11.7 1-3.5-1.5-6.2-5-6.8-8.8-0.6-2.8 0.4-5.6 0.9-8.4q10.3-54.4 20.6-108.9c0.2-2.1 2.2-3.3 4.1-3.5zm48.5 23.4c4.9-6.1 9.9-12.1 14.8-18.1 7.8 1.5 15.7 3 23.6 4.4 0.8 0.2 1.8 0.4 2.1 1.3 5.2 9.8 10.3 19.7 15.6 29.5-9.2 5-18.5 9.8-27.8 14.7-1.3 0.6-2.7 2-4.2 1-7.4-3.3-14.8-6.5-22.1-9.9-0.6-7.6-1.2-15.3-2-22.9zm91.5 2.6c0.7-0.4 1.5-1 2.3-0.4 7.2 2.9 14.4 5.7 21.5 8.8 0.6 2.7 0.6 5.5 0.9 8.2 0.5 5.4 1.2 10.8 1.6 16.2-4.7 5.8-9.5 11.6-14.2 17.5-8.9-1.2-17.7-2.6-26.6-4.1-5.2-10-10.6-20-15.8-30.1 10.1-5.4 20.2-10.7 30.3-16.1zm-40.6 21.5c2.3-1.2 4.6-2.5 7-3.5 5 9.4 9.9 18.7 14.9 28.1 0.3 0.9 1.2 1.8 0.7 2.8-2.9 7.4-5.9 14.8-8.8 22.2q-11.9 1.7-23.9 3.1c-6.1-5.3-12.3-10.5-18.3-15.8q2.1-10.9 4.1-21.8c0.3-1.1 0.2-2.7 1.6-3.1q11.4-6 22.7-12z"/>
	</g>
	<g id="#003466ff">
		<path id="Layer" fill-rule="evenodd" class="s3" d="m1058.9 120.4c6.6-2.3 13.8-2.3 20.7-1.7 3.5 0.4 6.9 1.2 10.4 1.4-0.2 3.3-0.6 6.5-0.5 9.8-0.1 1.4 0.1 2.9-0.5 4.2q-0.7 0.2-1.3-0.1c-0.8-2.6-0.9-5.7-3.1-7.6-3.3-3-8-3.9-12.3-4.2-4.9-0.3-10.2 0.4-14.2 3.4-2.6 2.1-4.3 5.4-4.1 8.8-0.1 3.3 1.9 6.3 4.2 8.6 6.8 6.3 15.3 10.4 22.6 16 5.1 4 10.1 9.1 11 15.9 1.3 7.5-2.6 15.3-8.9 19.5-7.1 4.8-16 5.8-24.4 5.4-5.1-0.2-10.3-1-14.9-3.1-1.3-0.5-1.2-2.1-1.2-3.2 0.1-4.4 0.2-8.8 1-13 0.4-0.1 1.2-0.1 1.6-0.1 0.1 2.9 0.3 6 2 8.4 2.7 4.1 7.5 6 12.1 6.7 5.5 0.8 11.4 0.6 16.4-2.1 3.8-2.1 6.8-5.9 7.2-10.2 0.5-4.4-1.4-8.8-4.6-11.8-5.7-5.5-12.8-9.3-19.2-14-4.6-3.4-9.3-7.3-11.8-12.6-2.4-5.2-2.2-11.7 1-16.5 2.5-3.9 6.5-6.4 10.8-7.9zm-1058.9 0.1c3.2-0.2 6.5 0.1 9.8 0.1 4 0.2 8.1-0.2 12.2-0.2 0.9 0 1.8 0.4 2.6 0.7-2 1.5-5.1 0.6-6.7 2.8-1.4 2.4-1.1 5.3-1.3 8 0 16.5 0 32.9 0 49.4 0.2 4 0.1 8.2 0.8 12.2 0.3 1.8 1.6 3.4 3.5 3.6 2 0.6 4.5-0.2 6.1 1.2-0.2 0.2-0.8 0.5-1.1 0.7-5.5 0.4-11.1-0.4-16.6-0.1-3 0.1-6 0.4-8.9 0-0.1-0.3-0.2-0.8-0.2-1.1 1.6-0.5 3.4-0.3 5-1.1 1.4-1.1 1.6-3 1.9-4.6 0.6-5.1 0.6-10.2 0.6-15.2q0-22.3 0-44.5c-0.2-2.7 0.1-5.6-1.1-8.1-1.3-2.3-4.4-2-6.6-2.6zm860.8 0.2c1.2-0.4 2.5-0.3 3.8-0.3 5.4 0.1 10.8 0.5 16.1 0.1 6.2-0.2 12.5-0.5 18.3 1.9 4 1.5 7.5 4.4 9.2 8.4 1.8 4.1 1.3 8.9-0.5 12.9-1.9 4.4-5.3 7.8-8.6 11 7.1 2.3 14 6.9 17.2 13.9 3.6 7.5 1.6 17.1-4.4 22.8-6 6.2-15 8.3-23.4 8-5.8-0.2-11.7-0.8-17.5-0.5-2.8 0.1-5.7 0.3-8.5 0 0-0.3-0.1-0.9-0.1-1.2 2.1-0.6 5.1 0.1 6.3-2.1 1.4-3 1.3-6.3 1.5-9.5 0.3-13.5 0.1-27 0.2-40.5-0.1-6.2 0.2-12.4-0.3-18.6-0.2-1.8-1.1-3.5-2.8-4.2-2.1-0.9-4.4-0.4-6.5-1.2 0-0.3 0-0.7 0-0.9zm20.2 3.2c-0.7 0.2-1.7 0.2-1.6 1.1 0 9.6-0.1 19.1 0.1 28.7 1.6 0.7 3.5 0.5 5.2 0.6 2.7 0 5.4 0.2 8.1-0.2 2.6-0.5 4.5-2.7 5.9-4.9 2.5-4.2 2.5-9.5 1.3-14.2-0.9-3.8-3-7.5-6.5-9.6-3.7-2.3-8.4-2.3-12.5-1.5zm-1.5 33.4c-0.1 9.5-0.1 18.9-0.1 28.3 0.3 2.5-0.1 5.5 1.7 7.5 2.6 2.2 6.2 2.5 9.4 2.8 5.4 0.5 11.3-1 14.9-5.2 3.1-3.7 3.5-8.8 2.7-13.4-0.9-7.1-5.1-13.9-11.5-17.4-5.2-3-11.4-2.5-17.1-2.6zm-827.2-23.5c1-0.5 1.9 0.3 2.3 1.1 10.6 17.8 21.1 35.7 31.8 53.5q15.2-26.7 30.5-53.4c0.4-0.7 0.9-1.5 1.9-1.4 0.7 0.5 0.8 1.3 0.9 2.1 2.4 17.8 4.8 35.5 7.1 53.3 0.4 2.8 1.3 6 3.9 7.6 2.7 1.4 5.9 1.2 8.9 1.6 0.1 0.1 0.4 0.4 0.6 0.6-1.3 0.7-2.9 0.6-4.4 0.5-4.8 0-9.7-0.2-14.6-0.4-1.3-0.1-2.7-0.1-3.9-0.7 0.1-0.6 0.8-0.9 1.2-1.4 0.1-1 0.1-2 0-3-1.7-14.5-3.3-29-5-43.6-8.8 15.1-17.5 30.3-26.2 45.5-0.8 1.2-1.3 2.6-2.5 3.5-1 0.3-1.6-0.9-2.1-1.5-9.9-15.2-18.9-30.9-27.7-46.7-1.3 11.4-2.4 22.8-3.6 34.2-0.3 3.4-1 6.8-0.7 10.2 0.2 1.1 1.3 1.9 2.3 2.1 1.8 0.4 3.7 0.4 5.5 0.9-0.6 0.8-1.4 1.1-2.3 1-4.7-0.1-9.5-0.4-14.2-0.1-2.1-0.1-4.4 0.5-6.4-0.5 1.7-1.3 4-0.5 5.9-1.4 1.8-0.9 2.3-3.1 2.6-5q3.6-27.1 7.3-54.2c0.2-1.5 0.2-3 0.9-4.4zm127.7 2.3c0.6-0.9 0.9-2.5 2.2-2.4 1.2 0.7 1.6 2.1 2.2 3.3 7.3 15.5 14.5 31 21.9 46.5 2.3 4.5 4.1 9.6 8.3 12.8 2.4 1.7 5.5 1.6 8.2 2-0.2 0.6-0.7 1.1-1.5 1-2.6 0.3-5.2-0.1-7.8 0-4.3 0-8.5 0.2-12.7-0.5 0.8-0.8 2.4-1.7 1.6-3q-5-10.8-9.9-21.5-11.5-0.1-23 0c-0.8-0.2-1 0.8-1.2 1.2-2.2 5.4-4.5 10.6-6.6 16-0.5 1.5-1.2 3.3-0.7 4.9 1.4 2.3 4.4 1 6.3 2.4-1.7 0.9-3.7 0.5-5.6 0.5-5.5-0.4-11.1 0.1-16.6 0.1q-1.2-0.1-2.2-0.6c1.8-1.3 4.1-0.6 6.2-1.3 3.2-0.8 5.2-3.8 6.5-6.7 8.1-18.2 16.3-36.5 24.4-54.7zm-5.5 24.2c-1.4 3.6-3 7.1-4.2 10.7q10.4 0.1 20.7 0c-3.6-8.2-6.9-16.5-10.8-24.6-2.2 4.4-3.8 9.2-5.7 13.9zm81.4-24.6c11.9-2.9 24.3-2.4 36.3-0.3 2.6 0.4 5.3 0.3 7.9 0.8 0.6 0.7 0.1 1.6 0.1 2.4-0.6 4-0.4 8.1-0.7 12.1-0.6-0.1-1.6 0.2-1.5-0.8-0.5-3.2-1.9-6.6-4.9-8.2-7.1-4.1-15.5-4.8-23.4-4.7-7.8 0-15.8 1.9-22 6.7-5.7 4.5-8.5 11.8-8.8 19-0.5 8.9 3.4 17.7 9.8 23.9 8.2 7.4 19.7 10.7 30.7 10.1 3.3-0.2 6.7-0.5 9.7-1.9 1.1-0.4 1.9-1.6 1.8-2.8 0-5.4 0-10.8 0-16.2-0.1-1.9 0-4.1-1.4-5.6-2-1.6-4.7-1.3-7.1-1.7-0.2-0.3-0.6-0.7-0.9-1 3.5-0.5 7.1 0 10.6 0 5.1 0.3 10.3-0.6 15.5 0-1.2 1.8-3.6 1-5.3 1.8-1.9 0.6-2.2 2.8-2.3 4.5-0.5 7.1 0.1 14.3-0.4 21.4 0 1.4-1.6 1.7-2.6 2.1-8.1 2.9-16.8 3.5-25.3 3.1-9.6-0.4-19.2-2.5-27.4-7.5-7.7-4.5-12.9-12.7-14.3-21.4-1.2-8.1 0.9-16.6 5.8-23.1 4.9-6.5 12.3-10.7 20.1-12.7zm104.9-1.5c9.3-1.2 18.9-0.4 27.7 2.9 7 2.7 13.5 7.4 17.3 14 3.9 6.8 4.6 15.3 2.6 22.9-2 7.7-7.1 14.5-13.7 19-8 5.4-17.8 7.7-27.4 7.5-9.2 0-18.8-2.2-26.3-7.6-7.5-5.3-12.5-13.9-13.3-23-0.7-6.5 1.3-13.2 4.7-18.7 6.1-9.8 17.1-15.6 28.4-17zm3.7 2.6c-5 0.4-10 1.6-14.3 4.1-5.6 3.1-9.7 8.5-11.4 14.6-1.9 7-1.6 14.7 0.9 21.5 2.8 7.5 8.6 13.7 15.9 17 8.4 3.8 18.3 4.3 27 1 5-1.9 9.5-5.2 12.3-9.7 4-6.2 4.9-13.9 4.3-21.1-0.7-7.9-4.5-15.7-10.8-20.6-6.7-5.4-15.5-7.4-23.9-6.8zm625-1.6c10.5-1.4 21.7-0.3 31.3 4.7 6.7 3.5 12.2 9.3 14.6 16.6 2.6 8.1 1.7 17.3-2.4 24.7-3.6 6.7-9.7 11.9-16.6 15-6.2 2.8-13.1 4.1-19.9 4-9.4 0.1-19.1-2.2-26.6-8.1-7-5.3-11.6-13.8-12.2-22.6-0.6-8.5 3-16.8 8.6-22.9 6.1-6.4 14.5-10.2 23.2-11.4zm3.1 2.6c-8.7 0.7-17.5 4.9-21.8 12.8-4.5 8.4-4.4 18.9-0.9 27.6 3.3 8.4 10.7 14.8 19.3 17.3 9.7 2.8 21 1.6 28.9-4.9 6.3-5.2 9-13.6 9-21.6 0.2-8.2-2.5-16.8-8.4-22.6-6.7-6.8-16.7-9.6-26.1-8.6zm131-0.5c8.6-2.8 17.8-2.9 26.8-2.4 4.7 0.3 9.3 1.2 13.9 1.7 1.4 0.2 2.9 0.2 4.3 0.6-0.2 4.4-0.7 8.8-0.6 13.3 0 1-0.2 3.3-1.7 2.2-0.3-2.4-0.4-5-1.8-7.2-2.1-3.4-6.1-4.8-9.7-5.9-6.4-1.7-13-1.9-19.6-1.3-4.5 0.4-9.1 1.5-13.2 3.7-5.5 3.2-9.7 8.7-11 14.9-1.2 5.8-1.4 11.9 0.6 17.6 2.8 8 9.3 14.4 16.9 17.9 6.8 3.3 14.5 4.3 21.9 3.7 4.4-0.2 9.1-0.9 12.6-3.7 2.6-2.1 3.6-5.5 4.5-8.6 0.4 0 1 0.1 1.4 0.2-0.1 4.1-1.1 8.1-2.2 12-0.5 2-2.9 2.4-4.6 2.8-7.5 1.5-15.3 1.5-23 1.2-9.5-0.7-19.3-3.3-26.9-9.4-6.2-4.8-10.3-12.2-11-20-1-7.3 1-14.8 5.2-20.7 4.1-6 10.3-10.3 17.2-12.6zm148.7-0.5c0.2-0.8 0.1-2 1.2-2.2 1 0.4 1.8 1.2 2.7 1.9 15 13.8 30.4 27.2 45.5 40.9 3.7 3.4 7.4 6.9 11.2 10.2-0.3-13.9-0.8-27.7-1.1-41.5-0.1-2.3 0.1-4.9-1.1-6.9-1.3-1.9-3.9-1.8-5.9-2-1-0.2-2.5 0.4-2.8-1 1.7-0.7 3.5-0.4 5.3-0.3 3.7 0 7.5 0.3 11.2 0 2.3 0.1 4.6-0.5 6.8 0.3-0.8 1.5-2.9 0.7-4.2 1.3-2.1 0.2-3.2 2.3-3.2 4.2-0.3 16.7-0.1 33.5-0.3 50.3-0.1 2.5 0.4 5.1-0.4 7.6-1.5 0.2-2.5-1.1-3.6-1.8-19.5-15.9-38.1-32.9-56.6-50 0.6 13.9 0.9 27.8 1.4 41.7 0.2 2.2 0.3 4.4 1.5 6.3 1.2 1.6 3.5 1.7 5.3 1.8 1.1 0.2 2.7-0.3 3.2 1.1-3.5 0.7-7 0.1-10.5 0.2-4.5-0.4-9.1 0.6-13.6-0.1 0-0.2 0-0.7 0-0.9 2-0.4 4.3-0.1 6.1-1.2 1.7-1.6 1.5-4.1 1.7-6.2 0.1-15 0.2-30 0.2-44.9 0-2.9-0.1-5.9 0-8.8zm100.9 0.1c7.3-2.2 14.9-2.4 22.4-2.2 7.1 0.3 14.1 1.8 21.1 2.5-0.6 4.4-0.7 8.8-0.8 13.3 0 0.9-0.1 3.2-1.6 2.3-0.4-2.4-0.4-4.9-1.7-7.1-2-3.5-6-5-9.7-6.1-6.5-1.8-13.3-2-19.9-1.3-5.2 0.6-10.4 1.9-14.6 4.9-3 2.2-5.6 5-7.2 8.4-2.3 4.5-2.8 9.6-2.8 14.5 0.1 7.6 3.7 15 9.2 20.2 7.3 7 17.6 10.2 27.5 9.9 5.4-0.1 11.3-0.3 15.7-3.7 2.8-2 3.6-5.5 4.7-8.6 0.8-0.5 1.5 0.3 1.4 1.2-0.4 3-1 5.9-1.7 8.9-0.4 1.6-0.8 3.7-2.7 4.1-6.2 2-12.9 2.1-19.3 2.1-10.3 0-20.9-1.7-29.6-7.4-6.2-3.9-11.1-9.9-13-16.9-2.4-8.1-1.4-17.2 3.1-24.5 4.3-7.1 11.5-12.3 19.5-14.5zm122.5 0.3c4.9-2.1 10.4-2.6 15.7-2.5 4.9-0.1 9.8 1 14.7 1.4-0.5 3.3-0.5 6.7-0.6 10 0.1 0.9-0.7 1.2-1.3 1.6-0.9-2.3-1-5.3-3.2-6.8-4.2-3-9.6-3.3-14.5-3.1-4.3 0.2-9.2 1.6-11.6 5.5-2.1 3.2-1.1 7.7 1.7 10.2 7.3 6.6 16.8 10 24.4 16.2 2.3 2 4.5 4.4 5.8 7.3 1.3 2.6 0.4 5.5 0.8 8.3-0.9 3.6-3 6.9-5.9 9.1-4.6 3.6-10.5 5.1-16.2 5.6-6.8 0.4-13.8 0.2-20.3-2-0.7-0.3-1.7-0.7-1.7-1.6-0.2-3.8 0-7.5 0.6-11.3 0.2-1.1 2.1-0.7 1.7 0.5-0.1 3.5 1.8 6.8 4.9 8.5 4.4 2.6 9.8 3.1 14.8 2.8 4.9-0.4 10.2-2.3 12.9-6.7 2.3-3.9 1-9.2-2.3-12.2-8.1-7.7-19.6-10.8-26.9-19.5-3.4-4.1-4.2-10.4-1.3-15 1.7-2.9 4.7-5 7.8-6.3zm-251-1.2c3.5 0 7.1 0.2 10.5-0.9 0.2 0.2 0.5 0.6 0.6 0.8-0.8 2.5-1 5.1-1.2 7.7 0 1.2-0.4 2.2-1 3.1-1.6-1.4-0.5-4-2.3-5.4-2.1-1.7-5-1.6-7.6-1.9-4.6-0.1-9.2-0.3-13.8-0.1-0.2 8.1-0.1 16.3-0.1 24.4 6.6 0 13.2 0.3 19.7-0.3 1.7-0.1 2.8-1.6 4.4-2.2 0.4 1-0.1 2-0.2 3-0.6 2.9-0.7 5.8-0.9 8.7 0 0.7-0.9 1.3-1.3 0.6-0.4-1.6-0.3-3.5-1.6-4.7-1.8-1.4-4.2-1.4-6.3-1.6-4.6-0.1-9.2-0.4-13.8-0.2-0.1 5.5 0 11.1 0 16.7 0 2.8-0.3 5.8 0.5 8.6 0.4 1.5 1.9 2.5 3.4 2.9 2.9 0.7 6 0.6 9 0.6 3.6-0.1 7.4 0.1 10.6-1.5 2.2-1.2 2.9-3.7 3.5-5.9 0-0.8 0.8-0.6 1.4-0.8 0.1 3.2-0.6 6.5-1.3 9.7-0.3 1.3-1.6 2-2.9 1.9-12.6 0.5-25.1-0.8-37.7-0.1-1.1-0.1-2.8 0.3-3.1-1.2 2.1-0.5 5.3 0.2 6.4-2.2 1.3-3.4 1-7.1 1.2-10.6q0.1-20 0-40c-0.2-2.3 0.3-5.2-1.7-6.7-2.3-1.8-5.5-0.4-7.7-2.2q1.7-0.5 3.5-0.4c9.9 0.4 19.8 0.2 29.8 0.2zm221.3 0c2.4 0.1 4.8-0.5 7.2-0.7 0.6 1.1-0.3 2.3-0.4 3.4-0.7 2.6 0.1 5.5-1.4 7.8-0.2-0.1-0.7-0.3-1-0.4-0.2-1.9-0.3-4.2-2.2-5.3-2.5-1.2-5.4-1.3-8.1-1.4-4.5-0.1-9.1-0.3-13.6-0.2q-0.1 12.3 0 24.5c6.7 0 13.4 0.3 20.1-0.3 2 0 3.3-1.6 5-2.3 0.2 2-0.6 3.9-0.8 5.9-0.3 2.2-0.2 4.3-0.5 6.4-0.4 0.4-1 0.3-1.4 0.4-0.2-1.8-0.1-3.9-1.6-5.1-2-1.4-4.4-1.4-6.7-1.5-4.7-0.1-9.4-0.4-14.1-0.2 0 7.1-0.3 14.3-0.2 21.5 0.2 1.9 0.2 4 1.6 5.4 1.5 1.3 3.5 1.5 5.4 1.7q6.1 0.5 12.1 0c2.4-0.2 5-0.6 6.8-2.3 1.6-1.5 1.9-3.7 2.5-5.6 0.4 0 1.1 0.1 1.4 0.1-0.1 3.2-0.6 6.4-1.5 9.5-0.3 1.2-1.5 1.9-2.7 1.9-12.4 0.5-24.8-0.7-37.2-0.2-1.8 0-3.7 0.2-5.5-0.2 0-0.2 0.1-0.7 0.1-0.9 1.7-0.4 3.5-0.1 5.1-0.9 1.6-0.9 1.9-2.9 2.2-4.5 0.6-5.4 0.4-10.8 0.4-16.2 0-10.7 0.1-21.4 0-32.1-0.2-2.1 0-5-2.3-6.1-2.3-1.4-5.4-0.2-7.6-1.9 2.5-0.8 5.1-0.3 7.6-0.3 10.4 0.2 20.8 0.1 31.3 0.1zm-539.1 0.2c2.1-0.8 4.4-0.2 6.6-0.3 2.8 0.2 5.5 0.2 8.3 0 2 0 4.1-0.5 6.1 0.4-1.6 1.4-4.3 0.5-5.7 2.4-1.1 2.1-0.8 4.5-1 6.8 0 11.1 0 22.2 0 33.3 0 4.5 0 9.1 0.4 13.6 0.2 1.7 0.3 3.7 2 4.6 1.9 0.8 3.9 0.5 5.9 0.9 0 0.2 0 0.7 0 0.9-3.5 0.6-7.1 0-10.6 0-3.8-0.1-7.7 0.5-11.5 0.1 0.3-1.6 2-1.1 3.1-1.4 2.3-0.2 2.7-2.8 2.9-4.6 0.6-7.1 0.4-14.3 0.5-21.4-0.1-9.5 0.1-18.9-0.2-28.4-0.1-1.7-0.1-3.8-1.5-5-1.6-1.2-3.8-0.5-5.3-1.9zm252.6-0.1c4.2-0.8 8.6 0.3 12.9-0.1 2.5 0.1 5.2-0.6 7.7 0.2-0.8 1.4-2.6 0.9-3.9 1.4-1.9 0.5-2.3 2.8-2.4 4.6-0.3 7.8-0.1 15.6-0.2 23.4 0.1 8.6-0.1 17.3 0.4 25.9 0.2 1.9 0.1 4.1 1.8 5.3 1.9 1.1 4.2 0.6 6.3 1.1 0.1 0.9-0.7 1.2-1.4 1.1-4.5 0.1-9.1-0.4-13.7-0.1-1.8 0-3.6 0.2-5.3 0.2-0.9 0.1-1.4-0.5-1.9-1.1 1.8-0.6 4.5 0 5.4-2.1 1.1-3.3 0.9-6.9 1.1-10.3 0-11.4 0-22.8 0-34.2 0-3.4 0.1-6.9-0.3-10.3-0.1-1.2-0.5-2.5-1.6-3.2-1.3-0.7-2.7-0.7-4.1-0.9-0.2-0.2-0.6-0.6-0.8-0.9z"/>
	</g>
</svg>