<svg version="1.2" xmlns="http://www.w3.org/2000/svg" viewBox="0 0 1605 293" width="1605" height="293">
	<title>inchcape-svg</title>
	<defs>
		<clipPath clipPathUnits="userSpaceOnUse" id="cp1">
			<path d="m372.14 24.68h1231.86v244.64h-1231.86z"/>
		</clipPath>
		<clipPath clipPathUnits="userSpaceOnUse" id="cp2">
			<path d="m1 1h300.07v292h-300.07z"/>
		</clipPath>
	</defs>
	<style>
		.s0 { fill: #00233a } 
	</style>
	<g id="Group 3">
		<g id="Clip-Path: Group 3" clip-path="url(#cp1)">
			<g id="Group 3">
				<path id="Fill 1" fill-rule="evenodd" class="s0" d="m1300.4 269.3h-38.5v-200.4h35.3v18.3h0.6q2.9-3.7 6.3-6.9 3.4-3.1 7.3-5.8 3.8-2.6 8-4.6 4.2-2 8.7-3.4 2.6-0.8 5.3-1.4 2.7-0.5 5.4-0.9 2.7-0.4 5.5-0.5 2.7-0.2 5.5-0.1c5.6-0.2 11.3 0.3 16.9 1.4 5.5 1.2 10.9 2.9 16.1 5.2 5.2 2.3 10 5.2 14.6 8.6 4.5 3.4 8.6 7.3 12.3 11.7q4.9 5.8 8.7 12.4 3.8 6.6 6.4 13.7 2.6 7.1 4 14.6 1.3 7.5 1.3 15.1c0.1 5.4-0.4 10.9-1.4 16.2-1 5.4-2.5 10.6-4.4 15.7-2 5-4.5 9.9-7.4 14.5-2.9 4.6-6.2 8.9-9.9 12.9-3.7 3.9-7.7 7.4-12.1 10.4-4.4 3.1-9.1 5.7-14 7.8-4.9 2.1-10 3.7-15.2 4.8-5.3 1.1-10.6 1.6-15.9 1.6-4.6 0.2-9.2-0.1-13.7-0.9-4.5-0.7-9-2-13.2-3.7-4.3-1.7-8.3-3.9-12.1-6.5-3.8-2.6-7.3-5.6-10.4-8.9 0 0 0 59.1 0 59.1zm45.1-171.4q-4.6 0-9 0.9-4.5 0.9-8.7 2.5-4.2 1.7-8 4.2-3.8 2.5-7 5.6-3.6 3.5-6.4 7.6-2.8 4.1-4.7 8.8-1.9 4.6-2.8 9.5-0.9 4.9-0.8 9.9c-0.2 3.5 0.1 7 0.8 10.5 0.7 3.5 1.7 6.9 3.1 10.1 1.5 3.2 3.3 6.3 5.4 9.1 2.1 2.9 4.5 5.5 7.2 7.7q3.2 2.7 6.8 4.8 3.5 2.1 7.4 3.5 3.8 1.5 7.9 2.3 4 0.8 8.2 1c6.3-0.2 12.5-1.6 18.2-4.1 5.8-2.6 11-6.2 15.3-10.8 4.3-4.5 7.8-9.9 10-15.7 2.3-5.9 3.4-12.1 3.3-18.4q0-4.9-0.9-9.7-0.9-4.8-2.7-9.4-1.8-4.5-4.5-8.6-2.7-4.1-6.1-7.6-3.2-3.2-6.9-5.7-3.7-2.6-7.8-4.3-4.1-1.8-8.5-2.7-4.4-1-8.8-1zm175.9 132.3c-5.6 0.1-11.2-0.4-16.7-1.4-5.5-1.1-10.9-2.6-16.1-4.7-5.2-2.1-10.2-4.7-14.8-7.7-4.7-3.1-9.1-6.6-13.1-10.5-3.8-3.8-7.3-8-10.3-12.5-3-4.5-5.5-9.3-7.6-14.3-2-5-3.6-10.2-4.6-15.5-1.1-5.3-1.6-10.8-1.5-16.2-0.2-11.1 1.9-22.1 6.1-32.4 4.2-10.2 10.4-19.6 18.3-27.4 7.9-7.8 17.2-14 27.5-18.1 10.3-4.2 21.4-6.2 32.5-6q4.5 0 9 0.4 4.5 0.5 8.9 1.4 4.5 0.9 8.8 2.2 4.3 1.4 8.4 3.2 3.7 1.6 7.2 3.7 3.5 2 6.8 4.3 3.3 2.4 6.3 5.1 3.1 2.7 5.8 5.6c4.5 4.9 8.5 10.4 11.7 16.2 3.2 5.9 5.7 12.1 7.4 18.5 1.7 6.5 2.6 13.2 2.6 19.8 0.1 6.7-0.7 13.4-2.3 19.9h-124.6q0.8 2.8 2 5.6 1.2 2.7 2.8 5.2 1.6 2.6 3.5 4.8 1.9 2.3 4.2 4.2 3.2 3 6.9 5.3 3.7 2.3 7.8 3.8 4.1 1.6 8.4 2.4 4.3 0.8 8.7 0.7c3.7 0.3 7.4 0 11-0.8 3.6-0.8 7.1-2.1 10.3-3.8 3.3-1.8 6.3-4 8.9-6.6 2.7-2.6 4.9-5.5 6.8-8.7h40.4q-1.9 5.6-4.7 10.9-2.8 5.3-6.4 10.1-3.6 4.8-7.8 9-4.3 4.2-9.1 7.7-5.3 4-11.2 7.1-5.8 3.1-12.2 5.2-6.3 2.1-12.8 3.2-6.6 1.1-13.2 1.1zm0-132.3c-5.3-0.2-10.5 0.5-15.5 2.1-5 1.6-9.7 4.1-13.8 7.4-4.2 3.2-7.7 7.2-10.4 11.7-2.8 4.5-4.7 9.4-5.7 14.5h88.7q-0.5-4-1.8-7.8-1.3-3.8-3.3-7.3-2-3.5-4.7-6.6-2.6-3-5.8-5.5-3-2.2-6.3-3.8-3.3-1.7-6.9-2.7-3.5-1.1-7.2-1.6-3.6-0.5-7.3-0.4zm-363.9 132.3c-5.1 0-10.1-0.4-15.1-1.4-4.9-1-9.8-2.4-14.4-4.4-4.7-1.9-9.2-4.3-13.4-7.1-4.2-2.8-8.1-6.1-11.6-9.7q-2.8-2.8-5.3-5.9-2.5-3.1-4.6-6.4-2.2-3.4-4-6.9-1.8-3.5-3.2-7.3-1.7-4.1-2.9-8.5-1.2-4.3-2-8.7-0.8-4.4-1.2-8.9-0.4-4.5-0.3-9c-0.1-5.4 0.3-10.9 1.3-16.2 1-5.4 2.5-10.6 4.5-15.7 2-5.1 4.5-9.9 7.5-14.5 3-4.6 6.4-8.8 10.2-12.8 3.7-3.7 7.8-7 12.1-9.9 4.4-3 9.1-5.4 13.9-7.4 4.9-2 10-3.5 15.1-4.5 5.2-1 10.5-1.5 15.7-1.5 5.1 0.1 10.1 0.6 15.1 1.7 4.9 1.1 9.7 2.8 14.3 5 4.6 2.1 8.9 4.8 12.9 7.9 4 3.1 7.6 6.6 10.9 10.5h0.5v-19.7h35.3v156.2h-35.3v-19.4c-3.6 3.8-7.6 7.2-11.9 10.2-4.3 3-8.9 5.5-13.7 7.6-4.7 2.1-9.7 3.7-14.9 4.9-5.1 1.1-10.3 1.7-15.5 1.8zm8.1-132.3c-3.4-0.1-6.8 0.2-10.1 0.9-3.3 0.6-6.5 1.7-9.6 3.1-3.1 1.4-6 3.1-8.7 5.1-2.7 2.1-5.1 4.4-7.3 7q-2.9 3.6-5.1 7.6-2.3 3.9-3.8 8.2-1.5 4.3-2.3 8.8-0.8 4.5-0.8 9.1-0.1 4.7 0.8 9.3 0.9 4.7 2.6 9 1.8 4.4 4.3 8.4 2.6 3.9 5.8 7.3 3.4 3.4 7.3 6.1 4 2.7 8.4 4.5 4.4 1.8 9 2.7 4.7 0.9 9.5 0.9c6.3 0 12.7-1.2 18.5-3.7 5.9-2.5 11.2-6.2 15.6-10.8 4.4-4.6 7.8-10.1 9.9-16.1 2.2-6 3.2-12.3 2.8-18.7 0.3-6.3-0.6-12.7-2.8-18.6-2.2-5.9-5.6-11.4-10-15.9-4.4-4.6-9.7-8.2-15.6-10.7-5.8-2.4-12.1-3.6-18.4-3.5zm-172.2 132.3c-11.1 0.1-22.1-2.1-32.4-6.2-10.3-4.2-19.6-10.4-27.5-18.2-8-7.7-14.3-17-18.6-27.2-4.4-10.2-6.6-21.2-6.8-32.3 0-5.6 0.6-11.1 1.7-16.5 1.2-5.5 2.8-10.8 5.1-15.9 2.2-5.1 4.9-9.9 8.2-14.4 3.2-4.6 6.9-8.8 10.9-12.5 4-3.7 8.3-7 12.9-9.9 4.6-2.9 9.4-5.4 14.5-7.4 5-2 10.2-3.5 15.5-4.6 5.4-1 10.8-1.5 16.2-1.6q5.4 0.1 10.8 0.8 5.4 0.7 10.7 2 5.3 1.4 10.3 3.3 5.1 1.9 9.9 4.5c4.6 2.4 9 5.3 13 8.5 4 3.3 7.7 7 11.1 11 3.3 3.9 6.2 8.2 8.7 12.8 2.5 4.5 4.6 9.3 6.1 14.3h-43.3c-1.7-3.5-3.8-6.7-6.4-9.6-2.6-2.9-5.6-5.3-8.9-7.4-3.3-2-6.8-3.5-10.6-4.5-3.7-1-7.5-1.4-11.4-1.3q-4.4-0.1-8.8 0.7-4.3 0.8-8.4 2.4-4.1 1.6-7.9 4-3.7 2.3-6.9 5.3-3.6 3.6-6.5 7.8-2.8 4.3-4.6 9-1.9 4.7-2.8 9.7-0.8 5-0.6 10.1-0.1 4.7 0.8 9.4 0.8 4.7 2.5 9.1 1.7 4.4 4.2 8.5 2.5 4 5.8 7.5 3.4 3.5 7.4 6.2 4 2.8 8.6 4.6 4.5 1.9 9.3 2.8 4.8 0.9 9.6 0.9c3.7-0.1 7.3-0.7 10.8-1.7 3.5-1 6.8-2.5 9.9-4.4 3.1-1.9 6-4.2 8.5-6.8 2.5-2.7 4.6-5.6 6.4-8.8h43.3c-2.8 8.2-7 16-12.2 23-5.3 7-11.6 13.1-18.8 18.1-7.2 5-15.1 8.8-23.5 11.4-8.3 2.5-17.1 3.7-25.8 3.5zm-328.9 0c-11.1 0.1-22.1-2.1-32.4-6.2-10.3-4.2-19.6-10.4-27.5-18.2-8-7.7-14.3-17-18.6-27.2-4.3-10.2-6.6-21.2-6.8-32.3 0-5.6 0.6-11.1 1.7-16.5 1.2-5.5 2.9-10.8 5.1-15.9 2.2-5.1 4.9-9.9 8.2-14.4 3.2-4.6 6.9-8.8 10.9-12.5 4-3.7 8.3-7 12.9-9.9 4.6-2.9 9.4-5.4 14.5-7.4 5-2 10.2-3.5 15.5-4.6 5.4-1 10.8-1.5 16.2-1.6q5.4 0.1 10.8 0.8 5.4 0.7 10.7 2 5.3 1.4 10.3 3.3 5.1 1.9 9.9 4.5c4.6 2.4 9 5.3 13 8.5 4 3.3 7.8 7 11.1 10.9 3.3 4 6.2 8.3 8.7 12.9 2.5 4.5 4.6 9.3 6.2 14.3h-43.4c-1.7-3.5-3.8-6.7-6.4-9.6-2.6-2.9-5.6-5.3-8.9-7.4-3.3-2-6.8-3.5-10.6-4.5-3.7-1-7.5-1.4-11.4-1.3q-4.4-0.1-8.8 0.7-4.3 0.8-8.4 2.4-4.1 1.6-7.9 4-3.7 2.3-6.9 5.3-3.6 3.6-6.4 7.8-2.8 4.3-4.7 9-1.9 4.7-2.7 9.7-0.9 5-0.7 10.1-0.1 4.7 0.8 9.4 0.8 4.7 2.5 9.1 1.7 4.4 4.2 8.5 2.6 4 5.8 7.5 3.4 3.5 7.4 6.2 4.1 2.8 8.6 4.6 4.5 1.9 9.3 2.8 4.8 0.9 9.7 0.8c3.6 0 7.2-0.6 10.7-1.6 3.5-1 6.9-2.5 10-4.4 3.1-1.9 5.9-4.2 8.4-6.8 2.5-2.7 4.7-5.6 6.4-8.8h43.4c-2.9 8.2-7 16-12.3 23-5.3 7-11.6 13.1-18.8 18.1-7.1 5-15.1 8.8-23.4 11.4-8.4 2.5-17.2 3.7-25.9 3.5zm129-5.1h-38.4v-200.4h38.4v55.2l0.1-0.1q4.1-4 9-7.1 4.8-3.1 10.1-5.2 5.4-2.1 11-3.1 5.7-1 11.4-0.9c4.7 0.2 9.4 0.8 14 1.9 4.6 1.1 9.1 2.7 13.3 4.8 4.3 2 8.3 4.5 12 7.4 3.7 2.9 7.1 6.2 10.1 9.9 12.8 15.7 12.8 37.7 12.8 49.5v88.1h-38.5v-79.9c0-14.2 0-47.3-32.9-47.3-32.4 0-32.4 34.7-32.4 47.8zm-328.9 0h-38.4v-156.2h35.5v13.5l0.5-0.5q4.2-4.3 9.2-7.8 5-3.4 10.6-5.8 5.6-2.3 11.6-3.5 6-1.3 12-1.2 3.2 0 6.3 0.3 3.1 0.4 6.1 1 3.1 0.6 6.1 1.5 3 0.9 5.9 2.1 3.4 1.3 6.7 3 3.2 1.8 6.3 3.9 3 2.1 5.7 4.6 2.8 2.4 5.2 5.2c14.8 17.2 14.8 43 14.8 55.5v84.4h-38.5v-77.1q0.2-3.8 0-7.6-0.2-3.8-0.7-7.5-0.5-3.8-1.3-7.5-0.9-3.7-2-7.3c-0.9-3-2.3-5.9-4.1-8.4-1.8-2.6-4-4.8-6.6-6.6-2.5-1.8-5.4-3.2-8.4-4.1-3-0.9-6.1-1.3-9.2-1.1q-3.9 0.1-7.6 1-3.8 1-7.2 2.8-3.4 1.8-6.3 4.3-3 2.6-5.2 5.7c-7 9.5-7 25.9-7 39.1 0 0 0 74.3 0 74.3zm-52.9 0h-39.6v-200.4h39.6z"/>
			</g>
		</g>
	</g>
	<g id="Group 6">
		<g id="Clip-Path: Group 6" clip-path="url(#cp2)">
			<g id="Group 6">
				<path id="Fill 4" fill-rule="evenodd" class="s0" d="m141.8 293c-9.3-0.5-18.6-1.9-27.7-4.2-9.1-2.2-18-5.3-26.5-9.2-8.5-3.9-16.7-8.5-24.3-13.9-7.7-5.4-14.8-11.5-21.3-18.2-6.5-6.7-12.4-13.9-17.4-21.6-5.1-7.8-9.5-16-13-24.6-3.5-8.6-6.1-17.5-7.9-26.6-1.8-9-2.7-18.3-2.7-27.6q0-7.3 0.7-14.6 0.8-7.2 2.3-14.4 1.4-7.2 3.7-14.2 2.2-6.9 5.1-13.6 2.8-6.6 6.3-12.8 3.4-6.2 7.5-12 4-5.9 8.6-11.3 4.6-5.4 9.7-10.4 5.2-5 10.8-9.5 5.6-4.5 11.6-8.4 6-4 12.3-7.3 6.4-3.4 13-6.1c9.2-3.8 18.8-6.7 28.6-8.6 9.8-1.9 19.8-2.9 29.8-2.9 10 0 20 1 29.8 2.9 9.8 1.9 19.4 4.8 28.6 8.6q6.6 2.7 13 6.1 6.3 3.3 12.3 7.3 6 3.9 11.6 8.4 5.6 4.5 10.8 9.5 5.1 5 9.7 10.4 4.6 5.4 8.6 11.3 4.1 5.8 7.5 12 3.5 6.2 6.3 12.8c4.8 11 8.2 22.6 10.1 34.5 1.9 11.9 2.2 24 1.1 36-1.2 12-3.8 23.8-8 35.2-4.1 11.3-9.6 22.1-16.4 32q1.8-8 2.9-16.1 1-8 1.4-16.2 0.3-8.2-0.1-16.3-0.4-8.2-1.6-16.2-1.5-8.4-3.8-16.7-2.3-8.2-5.4-16.1-3.1-8-7-15.6-3.8-7.7-8.4-14.9-1.9-3.1-4-6.2-2.1-3.1-4.3-6-2.3-3-4.6-5.9-2.4-2.8-4.9-5.6l-53.2 17.7q4.7 8.5 8.3 17.5 3.5 9 6 18.4 2.4 9.4 3.7 19 1.3 9.6 1.4 19.3 0 11.1-1.6 22.1-1.6 11-4.7 21.7-3.2 10.7-7.8 20.8-4.6 10.1-10.7 19.4-3.6 5.8-7.7 11.3-4.1 5.4-8.6 10.6-4.5 5.1-9.3 9.9-4.9 4.7-10.2 9.1zm-23.9-266.4h-0.2q7.3 4.2 14.2 9.1 6.8 4.9 13.2 10.5 6.3 5.6 12.1 11.7 5.8 6.2 10.9 12.9l44.5-14.7q-6.9-4.7-14.3-8.7-7.3-4-15.1-7.2-7.7-3.2-15.7-5.7-8.1-2.4-16.3-4-4.1-0.9-8.2-1.6-4.2-0.7-8.3-1.2-4.2-0.5-8.4-0.7-4.2-0.3-8.4-0.4z"/>
			</g>
		</g>
	</g>
</svg>