<svg version="1.2" xmlns="http://www.w3.org/2000/svg" viewBox="0 0 1520 435" width="1520" height="435">
	<title>616da26f944b14a32179c1df_Intercure logo (1)-svg</title>
	<style>
		.s0 { fill: #ffffff } 
	</style>
	<g id="#ffffffff">
		<path id="Layer" class="s0" d="m753.1 1.5c1.2-1.4 3.6-1.5 4.8 0 13.4 12.4 24 28.2 29.1 45.8 3.6 12.2 4.5 25.3 1.8 37.8-2.4 11.4-7.3 22.2-13.8 31.9-5.6 8.4-12.4 15.9-19.5 23.1-6.7-6.9-13.4-14-18.8-22-6-8.7-10.6-18.3-13.4-28.4-4-15-3.4-31.1 1.6-45.7 5.6-16.2 15.5-31 28.2-42.5zm-107.8 94c7.5-1 15.1-0.3 22.5 0.6 12.8 1.9 25.5 5.9 36.6 12.6 7.8 4.6 14.6 10.7 20.4 17.6 7.1 9 12.2 19.5 15.2 30.6 3.4 12.1 4.5 24.7 4.4 37.2-8.7-0.2-17.5 0.6-26-0.9-10.6-1.8-21.1-4.8-30.5-10.1-8.6-4.7-16.3-11-22.5-18.4-7.8-9.5-13.3-20.7-16.6-32.4-3.2-11.9-4.7-24.5-3.5-36.8zm201.5 0.5c7.1-0.9 14.3-1.5 21.5-0.5 1.1 13.3-0.6 26.9-4.5 39.6-2.9 8.9-6.9 17.5-12.4 25.1-6.5 9.5-15.4 17.2-25.5 22.7-9.5 5.4-20.2 8.5-30.9 10.3-8.5 1.5-17.2 0.7-25.9 0.9 0-13.7 1-27.5 5.2-40.6 3.4-10.9 8.9-21.2 16.5-29.8 14.2-16.1 35-25 56-27.7z"/>
		<path id="Layer" fill-rule="evenodd" class="s0" d="m881.5 245.3c13.4-1.3 27.1-0.5 39.9 3.6 14.8 4.4 28 13.1 38.9 24q-5.7 5.6-11.4 11.3c-8.7-8.4-19-15.3-30.5-19-22.4-7.4-48.4-4.9-68.2 8.5-10.2 7.1-19.1 16.3-25.2 27.2-6.1 10.7-9.3 22.9-9.7 35.2-0.6 13.4 1.9 27.1 7.9 39.2 5.7 11.2 14.1 21 24.1 28.5 9.1 6.8 19.8 11.4 31 13.3 13.1 2.3 27 1.7 39.7-2.6 11.7-3.5 22.1-10.4 30.9-18.7q5.7 5.7 11.4 11.4c-7.2 7-15.1 13.2-24.1 17.6-12.3 6.4-26.2 9.6-40.1 9.9-14.4 0.5-29-2-42.2-7.8-9.8-4.3-18.7-10.4-26.5-17.7-8.3-7.6-15.3-16.6-20.5-26.6-5.8-11.2-9.1-23.6-9.8-36.2-0.9-13.7 0.8-27.7 5.8-40.5 4-10.7 10.3-20.5 18-29 8.7-9.5 18.8-17.8 30.5-23.1 9.4-4.7 19.7-7.2 30.1-8.5zm-881.1 3.4q9 0 17.9 0 0 91 0 182.1-8.9 0-17.9 0 0-91 0-182.1zm71.3 0q9 0 17.9 0c34.8 50.9 69.6 101.8 104.6 152.6 0-50.9 0-101.7 0-152.6q9 0 18 0 0 91 0 182.1-9 0-18 0c-34.9-50.8-69.6-101.8-104.6-152.5-0.1 50.8 0 101.6 0 152.5q-9 0-17.9 0 0-91.1 0-182.1zm182.8 0q70.1 0 140.2 0 0 8.4 0 16.8-30.6 0-61.1 0 0 82.6 0 165.3-9 0-17.9 0 0-82.7 0-165.3-30.6 0-61.2 0 0-8.4 0-16.8zm182.7 0q66.2 0 132.4 0 0 8.4 0 16.8-57.3 0-114.6 0 0 32.8 0 65.7c32.7 0 65.3 0 97.9 0q0 8.5 0 16.9-48.9 0-97.9 0 0 33 0 65.9 57.3 0 114.6 0 0 8.4 0 16.8-66.2 0-132.4 0 0-91.1 0-182.1zm179.6 0q37.2 0 74.5 0c6.4 0 12.9 0.2 19.2 1.8 9.8 2.5 18.9 7.7 26.1 14.8 7.5 7.2 13.2 16.2 15.8 26.3 3.1 12.1 2.5 25.3-2.4 36.8-6.3 15.3-19.3 27.3-34.8 33 11.7 23.1 23.4 46.2 35 69.4q-9.7 0-19.4 0-16.7-33.1-33.4-66.1-31.4 0-62.7 0 0 33 0 66.1-9 0-17.9 0 0-91.1 0-182.1zm17.9 16.8q0 41.3 0 82.6 28 0 55.9 0c4.5 0.1 9.1-0.1 13.5-0.9 15.6-3.1 28.3-16.6 31-32.2 1.8-10.1 0.3-21-5-29.9-5.5-8.9-14.4-16.3-24.8-18.5-5.6-1.4-11.4-1.1-17.1-1.1q-26.7 0-53.5 0zm372.8-16.8q8.9 0 17.9 0 0 50 0 100c0.1 6.9-0.2 13.7 0.2 20.6 0.9 12.6 6.4 24.8 15.5 33.7 6.9 7.2 16.1 12.2 25.9 14.3 12.2 2.4 25.5 0.8 36.3-5.7 12.1-7.3 21.6-19.2 25-33.1 1.9-7.1 1.7-14.6 1.7-21.9q0-53.9 0-107.9 9 0 18 0 0 51.8 0 103.6c-0.1 7.3 0.2 14.6-0.7 21.8-1.4 12.4-6.5 24.3-14.4 34-6.5 8-14.5 14.9-23.7 19.6-7.2 3.5-15 5.9-23 6.8-11.8 1-24 0.1-35-4.7-10-4-18.9-10.6-26-18.7-9.2-10-15.3-22.9-17-36.5-0.8-5.6-0.7-11.2-0.7-16.8q0-54.6 0-109.1zm193.7 0q35.5 0 70.9 0c8.7-0.1 17.7 0 26.1 2.8 16.3 5.1 29.8 17.9 36.4 33.5 4.6 11.4 5.4 24.4 2.3 36.3-4.9 18.4-19.4 33.6-37.2 40.1q17.4 34.7 34.9 69.4-9.7 0-19.4 0c-11.1-22.1-22.3-44.1-33.4-66.1q-31.4 0-62.7 0 0 33 0 66.1-8.9 0-17.9 0 0-91.1 0-182.1zm17.9 16.8q0 41.3 0 82.6c20.7 0 41.4 0.1 62.1-0.1 10.8-0.1 21.3-4.9 28.4-13 13.7-14.7 14.3-39.5 1.4-54.8-5.5-6.7-13.1-11.9-21.7-13.7-5.2-1.3-10.7-1-16-1q-27.1 0-54.2 0zm168.2-16.8q66.2 0 132.4 0 0 8.4 0 16.8-57.3 0-114.5 0 0 32.8 0 65.7 48.9 0 97.8 0 0 8.5 0 16.9-48.9 0-97.8 0 0 33 0 65.9 57.2 0 114.5 0 0 8.4 0 16.8-66.2 0-132.4 0c0-60.7 0-121.4 0-182.1z"/>
	</g>
</svg>