<svg version="1.2" xmlns="http://www.w3.org/2000/svg" viewBox="0 0 1582 493" width="1582" height="493">
	<title>InfuSystem_Logo-svg</title>
	<style>
		.s0 { fill: #7b868c } 
		.s1 { fill: #0977be } 
	</style>
	<g id="Layer">
		<path id="Layer" class="s0" d="m781.3 385.5v-36h12.3c8 0 13.3-1 13.3-1 10.4-2.6 13.4-10.5 18.3-22.4l3.2-8-60.7-139.8h46.2l35.6 91.5h0.6l30.3-91.5h43.9l-62.8 161.3c-11 28.4-17.4 44.9-54.6 45.9h-12.5z"/>
		<path id="Layer" class="s1" d="m146 114.9h44.4v202h-44.4z"/>
		<path id="Layer" class="s1" d="m218.5 178.3h41v18.9h0.6c5.7-10.9 19.7-22.3 40.4-22.3 43.4 0 51.3 28.5 51.3 65.5v76.5h-42.8v-68c0-15.9-0.2-36.6-22.3-36.6-22.4 0-25.8 17.3-25.8 35.4v69h-42.8v-138.4z"/>
		<path id="Layer" class="s0" d="m738.3 164.4c-7-9.1-21.3-13.5-32.1-13.5-12.5 0-30 5.6-30 20.9 0 36.9 93.1 13.1 93.1 83.9 0 45.1-36.2 66.6-77.8 66.6-25.9 0-48.9-7.6-67.9-25.3l31.5-34.8c9.1 12 23.9 19.1 38.8 19.1 14.5 0 30.8-6.9 30.8-21.1 0-37.1-94.7-17.1-94.7-84.5 0-43.1 37.4-65.6 77-65.6 22.7 0 44.8 6 61.9 21.1z"/>
		<path id="Layer" class="s1" d="m390 212.5h-28.2v-34.2h28.2v-24.6c0-30.2 7.6-55.9 54.3-55.9 8.6 0 17 0.6 25.1 2.6l-2 36.2c-4.9-1.8-8.9-2.8-13.9-2.8-13.7 0-20.5 4.2-20.5 22.5v22h31.6v34.2h-31.6v104.4h-43z"/>
		<path id="Layer" class="s1" d="m609.9 317.1h-41v-18.9h-0.6c-5.7 10.8-19.7 22.3-40.4 22.3-43.4 0-51.3-28.6-51.3-65.6v-76.4h42.8v68c0 15.9 0.2 36.6 22.3 36.6 22.4 0 25.8-17.5 25.8-35.4v-69.4h42.8v138.8z"/>
		<path id="Layer" class="s0" d="m1009.1 219.1c-6.2-7.6-14.5-11.7-24.7-11.7-7.1 0-15.7 3.3-15.7 11.5 0 20.5 72.2 3.2 72.2 55.9 0 35.5-34.2 45.7-64 45.7-19.3 0-40.8-4.8-54.4-18.9l25.9-28.8c8 9.7 17.3 15.1 30.1 15.1 9.7 0 19.3-2.6 19.3-10 0-22.4-72.1-3.5-72.1-56.2 0-32.6 29.1-46.8 58.1-46.8 18.3 0 38.6 4.6 51.2 18.3z"/>
		<path id="Layer" class="s0" d="m1152.8 212.5h-37.6v46.2c0 14.9 1.6 25.8 20.3 25.8 4.6 0 13.7-0.6 17.3-4v35.6c-9.4 3.4-19.9 4.2-29.9 4.2-28.6 0-50.5-11.7-50.5-42v-66h-27.3v-34.2h27.3v-40.9h42.8v41.1h37.6z"/>
		<path id="Layer" fill-rule="evenodd" class="s0" d="m1298.7 293c-13.6 17.3-36.1 27.3-58.4 27.3-42.9 0-77-28.6-77-72.8 0-44.3 34.1-72.8 77-72.8 40 0 64.9 28.5 64.9 72.8v13.5h-99.1c3.4 16.3 15.7 26.7 32.1 26.7 14.1 0 23.4-7 30.6-16.9zm-36.2-60.9c0.2-14.3-10.8-26.2-26.1-26.2-18.9 0-29.2 12.9-30.2 26.2z"/>
		<path id="Layer" class="s0" d="m1324.3 178.3h41v18.9h0.6c5.6-10.9 19.7-22.3 40.4-22.3 19.3 0 35.4 8 42.8 24.7 10.1-17.7 23.3-24.7 43.8-24.7 37.6 0 49.1 26.5 49.1 60.1v81.9h-42.8v-80.9c0-12.9-4.9-23.7-18.9-23.7-19.7 0-26 13.9-26 31.2v73.4h-42.8v-73.4c0-10.3 0.6-31.2-19.1-31.2-22.3 0-25.7 17.3-25.7 35.4v69h-42.8v-138.4z"/>
		<path id="Layer" class="s0" d="m129.7 7.1c74.9-25.2 145.7 28.1 161.8 64.1 0.4 1 1.4 4.1 1.4 4.1 3.8 12.8-3.2 26.5-16.1 30.7-13.1 4.5-25.1-3.2-31.7-15.4-7.1-10.5-46.3-79.9-115.4-83.5z"/>
		<path id="Layer" class="s1" d="m1.4 155.9c-7.6-78.6 60.3-135.6 98.9-142.8 1-0.2 4.2-0.6 4.2-0.6 13.3-0.8 25.2 9 26.4 22.5 1.4 13.7-8.9 23.8-22.3 27.4-11.7 4.6-88.1 26.9-107.2 93.5z"/>
		<path id="Layer" class="s0" d="m118 314.3c-78.4-9.9-118.8-88.7-117.4-128.2 0-1 0.4-4.2 0.4-4.2 2.2-13.3 14.5-22.5 27.8-20.7 13.6 1.6 21.1 13.9 21.7 27.7 2 12.3 6.8 92 67.5 125.4z"/>
		<path id="Layer" fill-rule="evenodd" class="s0" d="m1562.5 189.7c-10.8 0-19.5-8.7-19.5-19.5 0-10.8 8.7-19.5 19.5-19.5 10.8 0 19.5 8.7 19.5 19.5 0 10.8-8.7 19.5-19.5 19.5zm17.5-19.5c0-9.8-7.9-17.7-17.7-17.7-9.8 0-17.7 7.9-17.7 17.7 0 9.8 7.9 17.7 17.7 17.7 9.8 0 17.7-7.9 17.7-17.7zm-17.7-12.7c2.2 0 4.2 0 5.8 0.7 3.2 1 4.4 3.8 4.4 6.2 0 3.6-2.8 5-4.4 5.6 1.6 1 2.2 1.6 2.8 4.7 0.6 3.4 0.8 5.4 2.2 7.8h-6.8c-0.8-1.6-1-3.2-1.4-5.4-0.6-4.7-0.8-5.1-4.4-5.1h-1v10.5h-6.1v-25zm-3 9.7h2.6c1.8 0 2.8 0 3.4-0.4 0.8-0.4 1-1.4 1-2.2 0-0.8-0.4-1.8-1.2-2.2-0.8-0.2-1.2-0.2-4-0.2h-1.8z"/>
		<path id="Layer" class="s1" d="m208.5 458.1c6.6 1.6 11.4 4.1 14.2 7.1 2.9 3 4.3 6.4 4.3 10.4 0 2-0.4 4.3-1.2 6.3-0.8 2-2.1 3.6-3.7 5.2-1.6 1.4-3.8 2.8-6.4 3.6-2.6 1-5.8 1.4-9.4 1.4-2.1 0-3.9-0.2-5.9-0.4-2-0.4-3.8-0.8-5.8-1.2-1.8-0.6-3.6-1.2-5.2-2-1.6-0.8-3.2-1.6-4.5-2.6l6.9-9.5q3 2.1 6.6 3.7c2.4 0.8 5 1.4 8.1 1.4 2.8 0 4.8-0.4 6.4-1.4 1.6-0.8 2.2-2.1 2.2-3.7 0-0.8-0.2-1.4-0.4-2q-0.6-0.9-1.8-1.8c-0.8-0.6-2-1.2-3.6-1.6-1.6-0.6-3.6-1.2-6.1-1.6-5.8-1.4-10.2-3.4-13.2-6.2q-4.2-4-4.2-10.9 0-3 1.2-6c0.8-2.1 2.2-3.7 3.8-5.1 1.6-1.4 3.8-2.6 6.4-3.4 2.6-0.8 5.4-1.4 8.9-1.4 3.8 0 7.6 0.6 11.2 1.6 3.6 1 6.8 2.6 9.9 4.4l-6.9 9.5c-2.2-1.4-4.4-2.6-6.8-3.4-2.4-0.8-4.8-1.2-7.4-1.2-3.1 0-5.1 0.4-6.5 1.4-1.4 1-2 2-2 3.2 0 0.6 0.2 1.2 0.4 1.8 0.2 0.6 0.8 1 1.4 1.6 0.8 0.6 1.8 1 3.2 1.6 1.6 0.2 3.5 0.6 5.9 1.2z"/>
		<path id="Layer" fill-rule="evenodd" class="s1" d="m291.7 481.7h-22.9l-4 9.4h-13.5l23.9-53.9h10.1l23.9 53.9h-13.3zm-11.7-29.6c-1 3.3-2.2 6.3-3.2 9.5-1 3.2-2.2 6.2-3.4 9.3h13.7c-1.2-3.1-2.4-6.3-3.4-9.3-1.2-3.2-2.4-6.4-3.7-9.5z"/>
		<path id="Layer" class="s1" d="m374.1 437v11.1h-26.1v11.4h23.7v11.1h-23.7v20.5h-12.1v-54.1z"/>
		<path id="Layer" class="s1" d="m443.2 437v11.1h-26.5v10.2h24.3v11.3h-24.3v10.3h27.4v11.2h-39.4v-54.1z"/>
		<path id="Layer" class="s1" d="m465.8 485.5c0-1.8 0.6-3.4 2-4.6 1.2-1.2 3-2 5-2 2 0 3.6 0.6 5 2 1.2 1.2 2 2.8 2 4.6 0 1.8-0.6 3.4-2 4.6-1.2 1.2-3 2-5 2-2 0-3.6-0.6-5-2-1.4-1.2-2-2.8-2-4.6z"/>
		<path id="Layer" class="s1" d="m566.9 458.1c6.6 1.6 11.4 4.1 14.2 7.1 2.9 3 4.3 6.4 4.3 10.4 0 2-0.4 4.3-1.2 6.3-0.8 2-2.1 3.6-3.7 5.2-1.6 1.4-3.8 2.8-6.4 3.6-2.6 1-5.8 1.4-9.4 1.4-2.1 0-3.9-0.2-5.9-0.4-2-0.4-3.8-0.8-5.8-1.2-1.8-0.6-3.6-1.2-5.2-2-1.6-0.8-3.2-1.6-4.4-2.6l6.8-9.5q3 2.1 6.6 3.7c2.4 0.8 5 1.4 8.1 1.4 2.8 0 4.8-0.4 6.4-1.4 1.6-0.8 2.2-2.1 2.2-3.7 0-0.8-0.2-1.4-0.4-2q-0.6-0.9-1.8-1.8c-0.8-0.6-2-1.2-3.6-1.6-1.6-0.6-3.6-1.2-6.1-1.6-5.8-1.4-10.2-3.4-13.2-6.2q-4.2-4-4.2-10.9c0-2 0.4-4 1.4-6 0.8-2.1 2.2-3.7 3.8-5.1 1.6-1.4 3.8-2.6 6.4-3.4 2.6-0.8 5.4-1.4 8.9-1.4 3.8 0 7.6 0.6 11.2 1.6 3.6 1 6.8 2.6 9.9 4.4l-6.9 9.5c-2.2-1.4-4.4-2.6-6.8-3.4-2.4-0.8-4.8-1.2-7.4-1.2-3.1 0-5.1 0.4-6.5 1.4-1.4 1-2 2-2 3.2 0 0.6 0.2 1.2 0.4 1.8 0.2 0.6 0.8 1 1.4 1.6 0.8 0.6 1.8 1 3.2 1.6 1.2 0.2 3.3 0.6 5.7 1.2z"/>
		<path id="Layer" class="s1" d="m677 491.1h-12.4c-0.4-5.6-0.6-11.2-0.8-16.7-0.2-5.4-0.4-11.2-0.6-16.9h-0.2c-2.7 4.9-5.5 9.5-8.3 13.9-2.8 4.4-5.8 9.1-8.6 13.5h-0.8c-2.9-4.6-5.9-9.1-8.7-13.5-2.8-4.4-5.6-9-8.2-13.9h-0.2c-0.2 5.7-0.2 11.3-0.6 16.9-0.2 5.7-0.6 11.1-0.8 16.7h-12.5l3.4-53.9h10.7l17.1 27.2h0.2l17.1-27.2h10.6z"/>
		<path id="Layer" fill-rule="evenodd" class="s1" d="m742.6 481.7h-23l-4 9.4h-13.3l24-53.9h10l23.9 53.9h-13.2zm-11.7-29.6c-1 3.3-2.2 6.3-3.2 9.5-1 3.2-2.2 6.2-3.4 9.3h13.7c-1.3-3.1-2.5-6.3-3.5-9.3-1.2-3.2-2.4-6.4-3.6-9.5z"/>
		<path id="Layer" fill-rule="evenodd" class="s1" d="m809.3 471.6h-10.5v19.3h-12v-53.9h25.3c3 0 5.8 0.4 8.2 1.2 2.5 0.8 4.7 2 6.3 3.4 1.8 1.4 3 3.5 3.8 5.5 0.8 2.2 1.4 4.4 1.4 7 0 3.8-1 7-2.8 9.9-1.8 2.8-4.4 4.6-7.9 6l12.3 20.9h-14.1zm-10.4-11h13.5c2.4 0 4.2-0.6 5.6-1.7 1.2-1.2 2-2.6 2-4.6 0-1.8-0.6-3.4-2-4.4-1.4-1-3.2-1.6-5.6-1.6h-13.5z"/>
		<path id="Layer" class="s1" d="m903.6 437v11.1h-16.5v43h-12.1v-43h-16.5v-11.1z"/>
		<path id="Layer" class="s1" d="m915 485.5c0-1.8 0.6-3.4 2-4.6 1.2-1.2 3-2 5.1-2 2 0 3.6 0.6 5 2 1.2 1.2 2 2.8 2 4.6 0 1.8-0.6 3.4-2 4.6-1.2 1.2-3 2-5 2-2.1 0-3.7-0.6-5.1-2-1.4-1.2-2-2.8-2-4.6z"/>
		<path id="Layer" class="s1" d="m1035.6 437v11.1h-16.5v43h-12v-43h-16.5v-11.1z"/>
		<path id="Layer" fill-rule="evenodd" class="s1" d="m1086.7 471.6h-10.5v19.3h-12v-53.9h25.3c3 0 5.8 0.4 8.2 1.2 2.4 0.8 4.7 2 6.3 3.4 1.8 1.4 3 3.5 3.8 5.5 0.8 2.2 1.4 4.4 1.4 7 0 3.8-1 7-2.8 9.9-1.8 2.8-4.4 4.6-7.9 6l12.3 20.9h-14.1zm-10.4-11h13.4c2.5 0 4.3-0.6 5.7-1.7 1.2-1.2 2-2.6 2-4.6 0-1.8-0.6-3.4-2-4.4-1.4-1-3.2-1.6-5.7-1.6h-13.4z"/>
		<path id="Layer" class="s1" d="m1163.3 492.1c-3.5 0-6.7-0.4-9.5-1.4-2.8-1-5.2-2.4-7.4-4.2q-3-2.7-4.8-6.6c-1.2-2.7-1.7-5.7-1.7-9.1v-33.6h12.1v33.4c0 1.8 0.2 3.4 0.8 4.8 0.6 1.4 1.4 2.4 2.4 3.5q1.5 1.2 3.6 1.8c1.5 0.4 2.9 0.6 4.5 0.6q2.4 0 4.2-0.6 2.1-0.6 3.6-1.8c1-0.9 1.8-2.1 2.4-3.5 0.6-1.4 0.8-3 0.8-4.8v-33.4h12.1v33.6c0 3.4-0.6 6.4-1.6 9.1-1.2 2.6-2.6 4.8-4.9 6.6q-3 2.7-7.2 4.2c-3 0.8-6 1.4-9.4 1.4z"/>
		<path id="Layer" class="s1" d="m1239.4 458.1c6.7 1.6 11.5 4.1 14.3 7.1 2.8 3 4.2 6.4 4.2 10.4 0 2-0.4 4.3-1.2 6.3-0.8 2-2 3.6-3.6 5.2-1.6 1.4-3.8 2.8-6.4 3.6-2.6 1-5.8 1.4-9.5 1.4-2 0-3.8-0.2-5.8-0.4-2-0.4-3.8-0.8-5.8-1.2-1.8-0.6-3.6-1.2-5.2-2-1.7-0.8-3.3-1.6-4.5-2.6l6.9-9.5q3 2.1 6.6 3.7c2.4 0.8 5 1.4 8 1.4 2.9 0 4.9-0.4 6.5-1.4 1.6-0.8 2.2-2.1 2.2-3.7 0-0.8-0.2-1.4-0.4-2q-0.6-0.9-1.8-1.8c-0.8-0.6-2-1.2-3.6-1.6-1.7-0.6-3.7-1.2-6.1-1.6-5.8-1.4-10.2-3.4-13.2-6.2q-4.3-4-4.3-10.9c0-2 0.4-4 1.4-6 0.8-2.1 2.3-3.7 3.9-5.1 1.6-1.4 3.8-2.6 6.4-3.4 2.6-0.8 5.4-1.4 8.8-1.4 3.9 0 7.7 0.6 11.3 1.6 3.6 1 6.8 2.6 9.8 4.4l-6.8 9.5c-2.2-1.4-4.4-2.6-6.8-3.4-2.4-0.8-4.8-1.2-7.5-1.2-3 0-5 0.4-6.4 1.4-1.4 1-2 2-2 3.2 0 0.6 0.2 1.2 0.4 1.8 0.2 0.6 0.8 1 1.4 1.6 0.8 0.6 1.8 1 3.2 1.6 1.4 0.2 3.2 0.6 5.6 1.2z"/>
		<path id="Layer" class="s1" d="m1328.1 437v11.1h-16.5v43h-12v-43h-16.5v-11.1z"/>
		<path id="Layer" class="s1" d="m1395.2 437v11.1h-26.5v10.2h24.3v11.3h-24.3v10.3h27.3v11.2h-39.4v-54.1z"/>
		<path id="Layer" fill-rule="evenodd" class="s1" d="m1445.9 437c4.6 0 8.6 0.6 12.4 1.8 3.7 1.2 6.9 3 9.5 5.4q3.9 3.7 6 8.5c1.4 3.4 2 7 2 11.3 0 4.2-0.6 8-2 11.2q-2.1 5.2-6 8.5c-2.6 2.4-5.6 4-9.5 5.4-3.6 1.2-7.8 1.8-12.4 1.8h-18.7v-53.9zm-0.6 42.9c6.2 0 10.8-1.3 13.9-3.9 3-2.6 4.4-6.6 4.4-12 0-10.7-6-15.9-18.1-15.9h-6v31.8z"/>
		<path id="Layer" class="s1" d="m1489.5 485.5c0-1.8 0.6-3.4 2-4.6 1.2-1.2 3-2 5-2 2.1 0 3.7 0.6 5.1 2 1.2 1.2 2 2.8 2 4.6 0 1.8-0.6 3.4-2 4.6-1.2 1.2-3 2-5.1 2-2 0-3.6-0.6-5-2-1.4-1.2-2-2.8-2-4.6z"/>
		<path id="Layer" class="s1" d="m1506.6 443.4c2.2 0.6 3.8 1.2 4.6 2.3 1 1 1.4 2.2 1.4 3.4 0 0.6-0.2 1.4-0.4 2q-0.3 0.9-1.2 1.8c-0.6 0.4-1.2 0.8-2 1.2-0.8 0.4-1.8 0.4-3 0.4-0.6 0-1.2 0-2-0.2-0.6-0.2-1.2-0.2-1.8-0.4q-0.9-0.3-1.8-0.6c-0.6-0.2-1-0.6-1.4-0.8l2.2-3c0.6 0.4 1.4 0.8 2.2 1.2 0.8 0.2 1.6 0.4 2.6 0.4 0.8 0 1.6-0.2 2-0.4 0.6-0.2 0.8-0.6 0.8-1.2 0-0.2 0-0.4-0.2-0.6-0.2-0.2-0.2-0.4-0.6-0.6q-0.3-0.3-1.2-0.6c-0.6-0.2-1.2-0.4-2-0.6-2-0.4-3.4-1.2-4.4-2-1-0.9-1.4-2.1-1.4-3.7 0-0.6 0.2-1.4 0.4-2 0.2-0.6 0.8-1.2 1.2-1.6 0.6-0.4 1.2-0.8 2-1.2 0.8-0.2 1.8-0.4 3-0.4q1.8 0 3.6 0.6c1.2 0.4 2.2 0.8 3.2 1.4l-2.2 3c-0.8-0.4-1.4-0.8-2.2-1-0.8-0.2-1.6-0.4-2.4-0.4-1 0-1.6 0.2-2.2 0.4-0.4 0.4-0.6 0.6-0.6 1 0 0.2 0 0.4 0.2 0.6q0 0.3 0.6 0.6c0.2 0.2 0.6 0.4 1 0.6 0.6 0 1.2 0.2 2 0.4z"/>
		<path id="Layer" class="s1" d="m1533.7 454.1h-3.6c0-1.8-0.2-3.6-0.2-5.4 0-1.8-0.2-3.6-0.2-5.5-0.8 1.7-1.6 3.1-2.4 4.7-0.8 1.4-1.8 3-2.6 4.4h-0.2c-0.8-1.4-1.6-3-2.6-4.4-0.8-1.4-1.6-3-2.4-4.7 0 1.9 0 3.7-0.2 5.5 0 1.8-0.2 3.6-0.2 5.4h-3.7l1-17.7h3.3l5 9.1 5-9.1h3.2z"/>
	</g>
</svg>