<svg version="1.2" xmlns="http://www.w3.org/2000/svg" viewBox="0 0 1276 1574" width="1276" height="1574">
	<title>519-5197016_inuvo-logo-clipart-svg</title>
	<style>
		.s0 { fill: #ffffff } 
		.s1 { fill: #a6cc44 } 
	</style>
	<g id="#1e1e1eff">
		<path id="Layer" class="s0" d="m1 399.4c52.4-0.2 104.8-0.2 157.2-0.1 35.5 1.2 74 3.5 103.5 25.7 29.3 21.8 39.8 60.1 40.9 95.1 0 154.6 0 309.1 0 463.7 0.5 82-3.3 164.6 10.7 245.8 9.4 52.3 28.6 105.8 68.8 142.4 32.3 30.7 76.2 46 119.7 51.9 66.8 7.1 135.7 0.9 198.3-24.6 71.8-28.3 133.5-79.5 178-142.2 57.5-80.8 88.7-179 93.6-277.7 1.4-193.2-0.1-386.5 0.8-579.8 52.1-0.7 104.2-0.2 156.3-0.3 0.2 320.3 0 640.5 0.1 960.8 0.2 15.7 4.3 33.5 18.2 42.9 12.6 8 28.3 8.9 42.9 9.3 28.5 0.1 56.9-0.2 85.3 0-0.1 45.1 0.3 90.2-0.2 135.3-56 0.3-112.1 0.2-168.1 0.1-39.5-1.3-83.8-11.2-108.1-45.3-25.3-36.3-22.3-82.8-22.3-124.9-1-31.5 3.9-62.7 4.1-94.1-48.5 109.3-138.5 199.3-247.2 248.9-47.3 22.3-98.6 33.3-149.8 41.7h-107.7c-28.1-4.6-56.6-7.7-84.1-15.4-59.9-15.6-116.8-47.6-156.2-96-45.1-54.2-67.8-123.3-79.1-191.9-14.9-90.5-10.1-182.5-10.9-273.8 0-138.5 0.2-277.1-0.1-415.7 1.4-22.2-17-43.8-39.6-43.9-35-1.5-70 0-105-0.7q-0.2-68.6 0-137.2z"/>
	</g>
	<g id="#a6cc44ff">
		<path id="Layer" class="s1" d="m1.8 0h1129c0 46.6 0 93.1 0 139.6q-564.5 0-1129 0c-0.1-46.5 0-93 0-139.6z"/>
	</g>
</svg>