<svg version="1.2" xmlns="http://www.w3.org/2000/svg" viewBox="0 0 1567 1568" width="1567" height="1568">
	<title>Logo (43)-svg</title>
	<style>
		.s0 { fill: #9fcc3b } 
		.s1 { fill: #04a54f } 
		.s2 { fill: #0c9347 } 
		.s3 { fill: #65bc46 } 
		.s4 { fill: #3cae49 } 
		.s5 { fill: #168241 } 
		.s6 { fill: #0b763c } 
	</style>
	<g id="Layer">
		<path id="Layer" class="s0" d="m1541.3 944.5c33.6 33.5 33.6 88.1 0 121.6l-476 476.6c-33.5 33.5-88 33.5-121.5 0l-160.3-160.5-160.4 160.5c-33.5 33.5-88 33.5-121.5 0l-476-476.4c-33.6-33.5-33.6-88.1 0-121.7l160.3-160.4-160.3-160.5c-33.6-33.6-33.6-88.1 0-121.7l475.8-476.5c33.5-33.6 88.1-33.6 121.6 0l160.3 160.5 160.3-160.5c33.5-33.6 88-33.6 121.5 0l476.1 476.5c33.5 33.6 33.5 88.1 0 121.7l-160.3 160.5z"/>
		<path id="Layer" class="s1" d="m783.5 1382.2l-160.4 160.5c-33.5 33.5-88 33.5-121.5 0l-476.2-476.4c-33.5-33.5-33.5-88.1 0-121.7l160.3-160.4 181.6 181.6c21 21.2 51.7 29.8 80.8 22.9l172.3-41.5-41.4 172.5c-7 29 1.6 59.6 22.8 80.8z"/>
		<path id="Layer" class="s2" d="m907 784l-11.7 48.6c-7.6 31.5-32.1 55.9-63.4 63.6l-383.8 92.3c-29.1 7-59.8-1.7-80.9-22.9l-181.5-181.6 181.5-181.5c21.1-21.2 51.8-29.8 80.9-22.9l383.8 92.4c31.5 7.6 55.8 32.2 63.4 63.5z"/>
		<path id="Layer" class="s2" d="m783.3 660.3l48.6 11.7c31.5 7.6 55.8 32.2 63.4 63.5l92.3 384.2c6.9 29.1-1.7 59.8-22.8 81l-181.5 181.7-181.5-181.7c-21.2-21.2-29.8-51.9-22.8-81l92.2-384.2c7.6-31.5 32.2-55.9 63.5-63.5z"/>
		<path id="Layer" class="s3" d="m659.5 784l11.7-48.7c7.6-31.5 32.2-55.9 63.5-63.5l383.8-92.4c29.1-6.9 59.7 1.7 80.9 22.9l181.5 181.9-181.5 181.6c-21.2 21.2-51.8 29.8-80.9 22.9l-383.8-92.4c-31.5-7.6-55.9-32.2-63.5-63.5z"/>
		<path id="Layer" class="s3" d="m783.3 908l-48.6-11.7c-31.5-7.6-55.9-32.2-63.5-63.5l-92.2-384.2c-7-29.1 1.6-59.8 22.8-81l181.5-181.6 181.5 181.4c21.1 21.2 29.7 51.9 22.8 81l-92.3 384.2c-7.6 31.5-32.1 55.9-63.4 63.6z"/>
		<path id="Layer" class="s4" d="m659.5 784.2l11.7-48.7c7.6-31.5 32.2-55.9 63.5-63.5l211.4-50.9-50.8 211.7c-7.6 31.5-32.1 55.9-63.4 63.5l-48.6 11.7-48.6-11.7c-31.5-7.6-55.9-32.2-63.5-63.5z"/>
		<path id="Layer" class="s5" d="m783.3 907.9l-48.6-11.7c-31.5-7.7-55.9-32.2-63.5-63.6l-50.8-211.6 211.5 50.8c31.5 7.6 55.8 32.2 63.4 63.5l11.7 48.7-11.7 48.6c-7.6 31.5-32.1 55.9-63.4 63.6z"/>
		<path id="Layer" class="s5" d="m783.3 660.3l48.6 11.7c31.5 7.6 55.8 32.2 63.4 63.5l50.8 211.7-211.4-50.9c-31.5-7.6-55.9-32.2-63.5-63.5l-11.7-48.6 11.7-48.7c7.6-31.5 32.2-55.9 63.5-63.5z"/>
		<path id="Layer" class="s5" d="m907 784.2l-11.7 48.6c-7.6 31.5-32.1 55.9-63.4 63.5l-211.5 50.9 50.8-211.7c7.6-31.5 32.2-55.9 63.5-63.5l48.6-11.7 48.6 11.7c31.5 7.6 55.8 32.2 63.4 63.5z"/>
		<path id="Layer" class="s6" d="m907 784.2l-11.7 48.6c-7.6 31.5-31.9 55.9-63.4 63.5l-48.6 11.7-48.6-11.7c-31.5-7.6-55.9-32.2-63.5-63.5l-11.7-48.6 11.7-48.7c7.6-31.5 32.2-55.9 63.5-63.5l48.6-11.7 48.6 11.7c31.5 7.6 55.8 32.2 63.4 63.5z"/>
	</g>
</svg>