<svg version="1.2" baseProfile="tiny-ps" xmlns="http://www.w3.org/2000/svg" viewBox="0 0 1335 1317" width="1335" height="1317">
	<title>IRCTC_Logo-svg</title>
	<style>
		tspan { white-space:pre }
		.shp0 { fill: #0b4c76 } 
		.shp1 { fill: #ccc7d2 } 
		.shp2 { fill: #000080 } 
		.shp3 { fill: #000075 } 
	</style>
	<g id="#0b4c76ff">
		<path id="path6" class="shp0" d="M691.57 0L729.39 0C784.77 6.92 837.34 31.97 877.82 70.38C947.68 135.11 977.98 230.06 993.41 321.47C993.92 327.83 994.24 334.23 994.88 340.64C941.75 339.96 888.59 341.43 835.47 339.88C834.68 339.84 833.05 339.68 832.25 339.6C821.55 294.43 804.18 249.9 776.62 212.25C737.1 157.73 670.26 126.32 603.62 124.69C556.18 123.78 510.62 143.66 474.08 172.92C428.51 208.71 391.93 254.43 357.77 300.83C389.98 231.89 432.33 167.16 484.33 111.45C538.85 53.28 610.94 8.15 691.57 0Z" />
		<path id="path8" class="shp0" d="M476.06 524.01C534.47 523.86 592.92 523.58 651.29 524.13C683.54 538.17 714 559.04 735.63 587.12C758.45 616.42 763.3 657.49 750.1 691.93C742.39 709.38 726.13 721.19 710.22 730.73C680.28 747.75 647.16 757.89 614.51 768.31C613.72 774.79 612.96 781.23 612.17 787.71C665.45 841.51 721.31 892.64 774.79 946.24C765.49 948.03 756.03 947.39 746.64 947.31C656.38 947.23 566.12 947.47 475.86 947.19C475.47 806.12 475.39 665.01 476.06 524.01Z" />
		<path id="path10" class="shp0" d="M731.89 524.61C788.51 522.86 845.17 524.41 901.83 523.86C902.83 664.97 902.07 806.12 902.19 947.27C880.76 946.84 859.17 948.47 837.78 946.56C785.61 894.95 734.67 841.95 682.71 790.1C717.1 779.32 753 766.32 777.1 738.01C823.5 687.31 817.54 601.43 768.99 554.31C758.33 542.38 744.34 534.43 731.89 524.61Z" />
		<path id="path12" class="shp0" d="M187.75 656.22L188.82 655.35C215.58 704.09 243.06 752.48 268.94 801.75C268.7 801.79 268.19 801.95 267.91 802.03C260.99 803.06 256.38 808.59 251.69 813.16C222.74 843.93 195.19 877.25 179 916.7C160.75 959.76 158.45 1008.67 170.21 1053.75C181.11 1102.34 211.61 1146.12 253.95 1172.48C315.47 1211.65 389.18 1222.26 459.68 1234.07C362.03 1238.37 261.27 1230.37 170.37 1191.85C105.48 1164.41 46.6 1115.98 19 1049.82C-6.88 991.81 -4.74 924.33 16.14 865.13C46.87 777.85 115.5 710.81 187.75 656.22Z" />
		<path id="path14" class="shp0" d="M1212.41 668.27C1272.85 756.42 1325.85 855.15 1335 963.46L1335 1017.06C1331.7 1070.73 1309.99 1123.18 1273.97 1163.22C1232.93 1207.51 1175.63 1235.31 1116.27 1244.49C1032.73 1256.94 948.79 1236.7 870.66 1208.07C871.38 1206.48 872.85 1203.26 873.56 1201.67C896.82 1155.42 922.67 1110.49 947.28 1065.01L949.11 1064.13C996.9 1077.25 1047.8 1083.3 1096.99 1074.79C1157.38 1063.81 1210.62 1024.61 1243.03 973C1263.51 940.32 1272.3 901.03 1270.15 862.66C1267.6 793.95 1237.5 730.89 1212.41 668.27Z" />
	</g>
	<g id="#ccc7d2ff">
		<path id="path27" class="shp1" d="M993.41 321.47C994.72 327.12 996.19 332.68 997.66 338.29C1039.69 341.39 1081.76 336.54 1123.78 337.89C1125.06 448.39 1116.63 559.16 1095.04 667.59C1067.96 805.8 1018.5 939.64 949.03 1062.14C960.64 1019.76 976.27 978.53 986.69 935.78C1020.84 803.34 1035.47 665.21 1023.86 528.75C1019.73 465.33 1008.55 402.62 994.88 340.64C994.24 334.23 993.92 327.83 993.41 321.47Z" />
		<path id="path29" class="shp1" d="M562.66 368.55C651.21 349.98 741.67 337.85 832.25 339.6C833.05 339.68 834.68 339.84 835.47 339.88C770.62 353.52 705.61 367.51 642.82 389.1C557.85 416.78 475.75 453.6 399.08 499.52C322.86 542.62 254.91 598.33 188.82 655.35L187.75 656.22C167.31 618.49 142.46 583.22 123.57 544.73C260.16 464.77 407.95 402.94 562.66 368.55Z" />
		<path id="path31" class="shp1" d="M267.91 802.03C268.19 801.95 268.7 801.79 268.94 801.75L269.66 803.06L267.91 802.03Z" />
		<path id="path33" class="shp1" d="M269.66 803.06C270.22 803.7 271.33 804.97 271.93 805.6C271.33 804.97 270.22 803.7 269.66 803.06Z" />
		<path id="path35" class="shp1" d="M271.93 805.6C313.8 848.07 351.81 894.59 397.22 933.6C527.95 1054.19 685.49 1144.57 854.08 1200.55C860.36 1202.7 867.12 1204.17 873.56 1201.67C872.85 1203.26 871.38 1206.48 870.66 1208.07C851.3 1243.34 830.82 1278.09 810.94 1313.08C808.27 1319.72 801.44 1314.71 797.38 1312.72C607.91 1202.9 436.98 1056.5 313.95 874.19C299.6 851.53 283.42 829.9 271.93 805.6Z" />
		<path id="path37" class="shp1" d="M947.28 1065.01C947.72 1064.29 948.59 1062.86 949.03 1062.14L949.11 1064.13L947.28 1065.01Z" />
	</g>
	<path id="path2417" class="shp2" d="M827.08 316.43C795.2 201.78 720.14 133.65 615.3 124.19C547.89 118.11 481.21 153.61 410.12 233.43C395.58 249.76 382.95 262.39 382.05 261.5C381.16 260.6 387.39 248.06 395.9 233.61C452.43 137.61 529.13 60.89 602.35 27.09C676.85 -7.29 737.42 -7.32 808.72 26.99C899.28 70.57 957.02 155.86 983.52 285.22C987.75 305.86 991.96 326.39 992.89 330.86L994.57 338.97L913.96 338.97L833.34 338.97L827.08 316.43Z" />
	<path id="path2419" class="shp2" d="M329.11 1229.31C313.24 1227.65 284.22 1222.88 264.63 1218.7C129.6 1189.9 45.87 1125.58 11.31 1024.12C5.95 1008.38 4.58 993.88 4.66 953.8C4.75 906.84 5.53 901.15 15.76 872.32C35.22 817.47 61.88 776.11 108.25 728.84C139.44 697.05 186.16 658.2 189.35 661.39C190.6 662.65 208.13 693.87 228.29 730.77L264.95 797.87L247.19 816.34C176.29 890.07 150.58 962.21 166.73 1042.15C175.31 1084.59 189.99 1113.62 217.81 1143.11C255.19 1182.74 304.85 1205.29 396.74 1224.38L437.29 1232.8L397.62 1232.56C375.81 1232.42 344.97 1230.96 329.11 1229.31L329.11 1229.31Z" />
	<path id="path2421" class="shp2" d="M1019.68 1243.94C985.08 1239.74 951.09 1231.85 907.26 1217.83L872.38 1206.68L887.05 1179.41C932.44 1095.02 948.55 1067.39 952.34 1067.4C954.67 1067.4 968.39 1069.86 982.83 1072.88C1017.59 1080.13 1083.78 1080.1 1111.3 1072.82C1178.88 1054.95 1239.7 999.17 1261.95 934.66C1268.74 914.97 1270.24 903.24 1270.1 870.86C1269.9 826.85 1263.11 795.51 1240.97 736.39C1233.99 717.76 1228.94 701.87 1229.74 701.07C1230.55 700.27 1241.31 716.58 1253.67 737.33C1287.41 793.97 1310.93 851.45 1326.74 915.94C1334.28 946.68 1333.15 1038.4 1324.9 1065.59C1312.72 1105.7 1290.63 1142.86 1262.19 1171.06C1240.68 1192.39 1229.06 1200.43 1198.98 1214.85C1178.7 1224.57 1151.45 1235.07 1138.4 1238.19C1107.78 1245.51 1054.01 1248.11 1019.68 1243.94L1019.68 1243.94Z" />
	<path id="path2423" class="shp2" d="M478.76 735.64L478.76 526.48L565.45 526.48C662.89 526.48 662.39 526.38 701.7 556.38C756.59 598.29 772.32 666.77 736.23 706.72C721.46 723.07 683.77 743.51 643.47 757.02C615.85 766.27 613.92 767.59 612.9 777.84C611.9 787.8 618.85 795.77 690.43 866.69L769.05 944.61L623.91 944.7L478.76 944.79L478.76 735.64Z" />
	<path id="path2425" class="shp2" d="M785.2 891.6C756.45 862.34 722.77 827.79 710.36 814.8L687.78 791.2L717.6 779.05C742.11 769.06 751.63 762.67 771.09 743.15C791.63 722.56 795.88 715.92 803.15 693.11C810.14 671.16 811.13 662.52 809.12 640.93C805.28 599.52 785.49 563.23 753.39 538.72L737.36 526.48L819.02 526.48L900.68 526.48L900.68 735.64L900.68 944.79L869.08 944.79L837.48 944.79L785.2 891.6Z" />
	<path id="path3207" class="shp3" d="M825.1 309.22C790.16 203.37 730.51 145.37 638.24 127.5C612.19 122.45 601.45 121.99 580.54 125.03C526 132.93 486.82 156.02 427.73 215.09C405.42 237.4 387.17 254.41 387.17 252.91C387.17 251.4 393.93 238.91 402.19 225.15C468.62 114.53 565.94 31.25 654.25 9.45C684.02 2.1 728.97 1.95 756.94 9.11C804.02 21.16 865.46 58.01 894 91.32C923.87 126.17 949.2 172.44 965.4 221.77C973.58 246.67 992.99 326.98 992.99 335.91C992.99 337.59 957.43 338.97 913.95 338.97L834.92 338.97L825.1 309.22Z" />
	<path id="path3209" class="shp3" d="M983.98 1236.84C955.56 1231.03 877.66 1209.29 874.72 1206.36C873.5 1205.13 927.52 1105.78 941.87 1082.86C949.05 1071.4 953.17 1068.07 958.66 1069.3C1004.16 1079.49 1077.33 1081.14 1110.34 1072.74C1149.3 1062.82 1176.21 1046.71 1209.46 1013.43C1254.16 968.69 1270.56 931.4 1270.59 874.47C1270.61 834.25 1265.43 806.37 1248.88 757.76C1241.03 734.69 1234.6 714.19 1234.6 712.2C1234.61 710.22 1241.11 719.14 1249.07 732.03C1287.74 794.7 1322.19 884.77 1329.17 941.46C1334.71 986.49 1328.62 1054.93 1316.37 1085.27C1283.54 1166.52 1218.15 1219.56 1126.93 1238.89C1093.33 1246.01 1023.93 1245.02 983.98 1236.84L983.98 1236.84Z" />
	<path id="path3211" class="shp3" d="M763.79 868.59L688.37 792.39L718.97 778.28C754.18 762.05 782.6 736.86 797.58 708.59C806.16 692.41 807.14 686.67 807.18 652.7C807.22 617.29 806.46 613.28 795.53 590.88C787.56 574.55 776.9 560.5 762 546.71L740.15 526.48L819.69 526.48L899.23 526.48L899.23 735.64L899.23 944.79L869.23 944.79L839.22 944.79L763.79 868.59Z" />
	<path id="path3213" class="shp3" d="M480.92 735.22L480.92 525.66L566.57 527.22C662.37 528.97 665.99 529.75 698.52 555.6C732.48 582.59 749.71 610.45 753.8 644.99C759.4 692.26 730.76 722.98 654.02 752.04C615.12 766.77 607.68 773.37 614.61 787.02C616.87 791.49 652.21 828.81 693.13 869.96L767.55 944.79L624.24 944.79L480.92 944.79L480.92 735.22Z" />
	<path id="path3215" class="shp3" d="M352.91 1229.57C179.15 1217.2 64.73 1151.48 17.18 1036.74C7.08 1012.37 6.73 1009.51 6.94 953.8C7.14 899.74 7.77 894.52 17.03 870.86C30.53 836.36 52.21 796.94 71.4 771.99C100.23 734.53 184.82 657.4 190.05 663.81C191.84 666 251.85 775.08 258.54 788.32C264.1 799.29 263.98 799.74 253.09 809.95C232.47 829.27 199.34 873.47 186.78 898.4C169.18 933.35 163.22 958.95 163.4 998.9C163.84 1096.24 215.34 1167.33 310 1201.25C321.7 1205.44 352.37 1214.19 378.15 1220.68C429.77 1233.68 426.55 1234.82 352.91 1229.57Z" />
	<path id="path3217" class="shp3" d="M991.19 1238.71C954.47 1231.21 879.58 1210.23 874.61 1206.06C872.45 1204.24 942.61 1079.24 948.91 1073.69C954.36 1068.89 958.71 1068.81 983.98 1073.02C1018.62 1078.8 1074.83 1079.56 1101.59 1074.63C1172.58 1061.53 1246.7 992 1265.14 921.2C1276.6 877.2 1270.92 824.04 1247.25 753.75C1240.32 733.18 1235.37 715.63 1236.25 714.76C1242.36 708.65 1291.3 807.63 1310.3 864.55C1328.87 920.17 1333.42 951 1330.69 1002.48C1328.06 1051.78 1321.72 1078.22 1304.8 1110.42C1273.27 1170.41 1226.15 1208.24 1151.66 1233.35C1121.07 1243.67 1030.27 1246.7 991.19 1238.71L991.19 1238.71Z" />
	<path id="path3229" class="shp3" d="M1024.67 1242.64C983.94 1239.77 875.07 1212.19 875.07 1204.75C875.07 1201.53 902.55 1150.23 928.57 1104.9L948.92 1069.45L965.18 1071.42C1008.28 1076.65 1083.41 1077.95 1103.32 1073.81C1137.84 1066.62 1177.74 1044.25 1206.06 1016.21C1273.81 949.14 1286.16 881.37 1251.35 767.82C1233.44 709.38 1233.41 709.23 1242.54 720.25C1256.39 736.96 1296.68 822.69 1311.18 866.29C1330.26 923.69 1335.21 965.36 1329.69 1021.93C1319.78 1123.4 1262.87 1193.85 1161.76 1229.79C1128.52 1241.61 1077.67 1246.37 1024.67 1242.64L1024.67 1242.64Z" />
	<path id="path3235" class="shp3" d="" />
	<path id="path3239" class="shp3" d="M828.35 320.88C821.28 292.81 803.27 252.88 785.15 225.11C744.15 162.32 676.38 125.18 602.95 125.29C567.52 125.34 544.8 131.1 511.98 148.34C484.72 162.67 432.38 206.29 405.26 237.3C395.9 247.99 388.25 255.38 388.25 253.71C388.25 246.02 412.85 205.9 438.49 171.79C491.36 101.45 559.03 45.19 620.24 20.68C653.25 7.46 676.96 2.64 708.93 2.64C742.11 2.64 769.51 10.33 813.73 32.07C846.25 48.05 855.88 55.01 882.33 81.65C939.59 139.29 962.29 190.46 992.46 329.89L994.21 338L913.43 338L832.66 338L828.35 320.88Z" />
</svg>