<svg version="1.2" xmlns="http://www.w3.org/2000/svg" viewBox="0 0 1579 231" width="1579" height="231">
	<title>Iradimed+Logo-svg</title>
	<style>
		.s0 { fill: #ffffff } 
	</style>
	<g id="#adb0d8ff">
		<path id="Layer" class="s0" d="m0 0h218c-0.1 77 0 154-0.1 231h-217.9v-46.8c25.3-8.9 49.3-20.9 72.4-34.4 28.3-16.7 55.3-35.6 79.5-57.9 9-8.4 17.6-17.4 24.8-27.4 4.1-6 8-12.5 9-19.8 0.8-4.7-1.8-9.8-6.2-11.8-5.5-2.5-11.8-2.7-17.7-2.1-19.7 2.2-38.3 9.3-56.4 17-37.6 16.6-73 38.1-105.4 63.3z"/>
	</g>
	<g id="#808285ff">
		<path id="Layer" fill-rule="evenodd" class="s0" d="m259.7 197.2c-0.1-53.4 0-106.9 0-160.3q16 0 31.9 0c0 53.4 0.1 106.9 0 160.3q-15.9 0-31.9 0zm72.9-160.3q45.4-0.1 90.8 0c15.6 0.4 31.8 0.3 46.5 6.2 11.4 4.9 20.9 14.5 24.9 26.3 4.1 12.5 1.8 27.3-7.2 37.2-9.7 11.3-24.6 16-38.7 18.8 10.5 5.4 18.9 14 26.8 22.6 11.7 13.9 22.9 28.4 34.7 42.3 0.4 0 1.1 0.1 1.4 0.2 25.3-51.2 50.4-102.4 75.7-153.6 10.7 0 21.5-0.1 32.2 0 21.1 40.4 42.3 80.8 63.4 121.2 6.7 13.1 13.8 25.9 20.2 39.1-12 0.1-24 0-36 0.1-7.8-15.6-15.4-31.2-23-46.9-26.7 0-53.3-0.1-80 0.1-7 15.6-14.4 31.1-21.4 46.7-22.2 0.1-44.5-0.1-66.7 0.1-11.5-13.7-22.5-27.8-34.1-41.3-6-6.7-11.7-13.8-18.8-19.4-7.2-5.6-16.4-8.2-25.5-8.1-11.1-0.1-22.2-0.1-33.2 0-0.1 22.9 0 45.8-0.1 68.7-10.6 0-21.2 0.1-31.8 0-0.1-53.4 0-106.9-0.1-160.3zm31.9 23c0.1 15.1 0.1 30.1 0 45.1 14.7 0.3 29.3 0.1 44 0.1 12.1-0.1 24.4 0.6 36.2-2.4 7.4-1.9 14.8-6.5 17.9-13.8 2.9-6.5 1.4-14.8-3.9-19.7-6.5-6.4-15.8-8.5-24.5-9.2-20.6-1.3-41.3 0-61.9-0.6-2.6 0-5.2 0.2-7.8 0.5zm210.4 68.2q29.3 0.1 58.6 0c-10-21.2-21.2-41.9-30-63.6-7.7 21.9-19.1 42.4-28.6 63.6zm142-91.2c27 0 54-0.2 81 0.1 19.3 0.2 39.5 2.7 55.8 13.7 14.4 8.9 24.8 23.5 29.3 39.7 2.4 8 3.2 16.3 3.3 24.6 0.5 16.7-3.4 33.8-12.6 47.9-6.9 10.7-16.9 19.6-28.4 25-15.2 7-32.1 8.6-48.5 9.3-26.6 0.1-53.2 0-79.8 0-0.1-53.4-0.1-106.9-0.1-160.3zm31.7 25.8c0 36.8 0.1 73.7 0 110.5 15.4 0.3 30.7 0 46.1 0.1 13.1-0.1 26.8-1.6 38.2-8.5 10.6-7.2 16.8-19.4 19.2-31.7 2.2-12.3 2.2-25-0.7-37.1-2.7-11.3-10.3-21.1-19.9-27.4-9.3-6-20.7-7.3-31.5-7.6-16-0.9-32-0.3-48-0.5-1.5-0.1-4 0.1-3.4 2.2zm172.6-25.8q16 0 31.9 0c0 53.4 0.1 106.9 0 160.3-10.6 0-21.3 0-31.9 0 0-53.4 0-106.9 0-160.3zm72.1 0c14.6-0.1 29.2 0 43.8-0.1 18.2 42.5 36.4 85 54.5 127.6 19.1-42.5 37.6-85.2 56.7-127.6 13.1 0.1 26.3 0 39.5 0.1 0 53.4 0 106.9 0 160.3q-15.4 0-30.7 0c-0.1-34.1-0.1-68.3-0.1-102.4 0-5.5 0.2-10.9-0.2-16.3-17.3 39.7-35.4 79.1-52.9 118.7-9 0.1-18 0-27.1 0.1-12-27-23.6-54.3-35.5-81.4-5.5-13.1-11.7-26-16.8-39.4-1.2 14.9-0.4 29.9-0.6 44.9 0 15.6-0.2 31.2 0.2 46.8-0.8 9.7 0.6 19.4-0.4 29.1-10.1-0.1-20.2 0-30.3-0.1-0.1-53.4 0-106.9-0.1-160.3zm231.8 160.3c-0.1-53.4-0.1-106.9-0.1-160.3 49.6-0.1 99.1 0 148.6-0.1 0.1 7.9 0 15.8 0.1 23.7-38.9 0-77.8 0.1-116.7 0-0.2 14-0.1 28-0.1 42.1 36.4-0.1 72.8 0 109.2 0q0 11.8 0 23.7c-36.4-0.1-72.8 0-109.2-0.1-0.1 15.7 0 31.4 0 47.1q48.3 0 96.7 0c8.3 0.2 16.6-0.5 24.9 0.5-0.2 7.8 0 15.6-0.1 23.4-51.1 0.1-102.2 0-153.3 0zm184.2-160.3c27.7 0 55.4-0.2 83.1 0.1 10.5 0.6 21.1 1 31.2 3.9 18.7 4.8 35.9 16.8 45.2 33.9 9.5 16.6 11 36.4 9 55.1-2.6 21.9-14.7 42.9-33.8 54.5-16.4 10-36.1 12-54.9 12.8-26.6 0.1-53.2 0-79.8 0-0.1-53.4 0-106.9 0-160.3zm31.9 23.6c-0.1 37.6-0.1 75.2 0 112.8 15.2 0 30.5 0 45.8 0 11-0.1 22.2-1.1 32.4-5.5 9.5-3.9 16.5-12.1 20.6-21.2 5.1-10.8 6.3-23 5.9-34.8-0.5-9.7-2.1-19.7-7.3-28.1-5.7-8.8-14-16.2-24-19.4-10.7-3.5-22-3.1-33-3.8-13.5 0-26.9 0-40.4 0z"/>
	</g>
</svg>