<svg version="1.2" xmlns="http://www.w3.org/2000/svg" viewBox="0 0 1518 1609" width="1518" height="1609">
	<title>Iradimed+Logo-svg</title>
	<style>
		.s0 { fill: #adb0d8 } 
	</style>
	<g id="#adb0d8ff">
		<path id="Layer" class="s0" d="m0 0h1517.7c-0.1 536.3 0.1 1072.7-0.2 1609h-1517.5v-326.2c175.9-61.9 343.4-145.2 504.1-239.4 196.8-116.2 385.3-248.1 553.7-403.1 62.7-58.5 122.4-121.2 172.3-191.2 28.7-41.6 55.8-86.7 63.3-137.5 5.5-33-13-68.2-43.6-82.1-38.4-17.7-82-19.1-123.4-14.8-136.7 15.3-266.7 64.5-392.3 118-261.7 115.8-508.4 265.4-734.1 441z"/>
	</g>
</svg>