<svg version="1.2" xmlns="http://www.w3.org/2000/svg" viewBox="0 0 1502 1486" width="1502" height="1486">
	<title>irsa-svg</title>
	<style>
		.s0 { fill: #ffffff } 
		.s1 { fill: #70a39a } 
	</style>
	<g id="_x23_000000ff">
		<path id="Layer" fill-rule="evenodd" class="s0" d="m0 0.1h1501.8v1485.9c-500.4 0-1001.4 0-1501.8 0zm108.2 108.2q0 59.9 0 119.8 70.3 0 140.6 0c83.3 163.1 166.6 325.7 249.9 488.3-38.8 0-78.1 0-116.9 0-63-123.8-126.1-248.2-189.2-372-27.7 0-56.1 0-83.8 0 0 191.5 0 382.4 0 573.9q636 0 1272.1 0c0-190.9 0-382.4 0-573.4q-41.7 0-83.3 0c-15.1 29.5-30.7 59.1-44.6 89.1q-19.1 38.2-38.2 76.4c-14.4 29.5-30.6 58.5-45.1 88.6-5.2 10.9-9.8 21.9-16.2 32.4-15 27.7-28.9 56.1-42.8 84.4-38.7 0.6-77.5-0.5-116.3 0.6 20.9-42.8 41.7-85.6 64.2-127.3 15.1-30.7 30.7-61.3 46.3-91.4 25.5-48.6 49.2-97.8 75.8-145.8 19.1-39.4 39.9-77.6 60.2-116.3 1.1-1.8 1.7-4.7 1.7-7q69.4 0 138.8 0c0-40.5 0-80.4 0-120.9-124.9 0-249.9 0-375.4 0-36.4 203.7-72.3 406.2-108.2 609.3q-50.3 0-100.6 0c34.7-203.1 69.4-405.6 104.1-608.7q-153.6 0-307.2 0c33 203.1 66.5 405.6 100.1 608.7-34.1 0-67.7 0-101.8 0-34.2-203.1-67.7-405.6-101.8-608.7-127.3 0-254.6 0-382.4 0zm0 920q0 62.5 0 125 636 0 1272.1 0c0-41.7 0-83.4 0-124.4-4.6-1.8-9.8 0-15.1-0.6-418.8 0-838.2 0-1257 0zm0 234.3q0 57.3 0 114.6 636 0 1272.1 0c0-38.2 0-76.4 0-115.2-424 0.6-848.1 0-1272.1 0.6z"/>
	</g>
	<g id="_x23_70a39aff">
		<path id="Layer" class="s1" d="m108.2 108.3c127.2 0 255.1 0 382.4 0 34.1 203.1 67.6 405.6 101.8 608.7 34.1 0 67.7 0 101.8 0-33.6-203.1-67.1-405.6-100.7-608.7q153.6 0 307.2 0c-34.7 203.1-69.4 405.6-104.1 608.7q50.3 0 100.6 0c35.9-203.1 71.8-405.6 107.1-608.7 124.9 0 249.9 0 375.4 0 0 40.5 0 80.4 0 120.9q-69.4 0-138.8 0c0 2.3 0 4.6-1.8 7-20.2 38.7-41 76.9-60.1 116.3-26.6 48-50.4 97.2-75.8 145.8-15.6 30.1-31.2 60.7-46.3 91.4-22.6 42.2-43.4 85.1-64.2 127.3 38.8-1.7 77.5-0.6 116.3-0.6 13.9-28.3 27.7-56.7 42.8-84.5 5.8-10.4 10.4-21.4 16.2-32.4 14.4-29.5 30.6-58.4 45.1-88.5q19.1-38.2 38.2-76.4c14.4-30.1 29.5-59.6 44.5-89.1q41.7 0 83.3 0c0 191 0 382.5 0 573.4q-636 0-1272.1 0c0-191.5 0-382.4 0-574 27.8 0 56.1 0 83.9 0 63.1 123.9 126.1 248.3 189.2 372.1 38.7 0 78.1 0 116.8 0-83.3-162.6-166.6-325.8-249.9-488.4q-70.3 0-140.6 0c1.8-40.5 1.8-80.4 1.8-120.3zm0 920c418.8 0 838.2 0 1257 0 4.7 0.6 10.5-0.6 15.1 0.6 0 41.6 0 83.3 0 124.4q-636.1 0-1272.1 0 0-62.5 0-125zm0 234.3q636 0 1272.1 0c0 38.2 0 76.4 0 115.2q-636.1 0-1272.1 0c0-38.8 0-77 0-115.2z"/>
	</g>
	<g id="_x23_ffffffff">
	</g>
</svg>