<svg version="1.2" xmlns="http://www.w3.org/2000/svg" viewBox="0 0 976 1567" width="976" height="1567">
	<title>logo-irt-blue-svg</title>
	<style>
		.s0 { fill: #084267 } 
		.s1 { fill: #80a7c4 } 
	</style>
	<g id="#084267ff">
		<path id="Layer" class="s0" d="m554.8 9.7c0.4-4.3 3.1-10.3 8.3-9.3 7.7-1.6 8.6 8.6 9.1 13.9 1.9 32.8 1.5 65.6 2.2 98.5 2.1 70.9 3.7 141.8 5.5 212.7-10.4 0-20.8 0-31.2 0 0-13-1.2-26.1-0.2-39.1 2-92.2 4.5-184.4 6.3-276.7z"/>
		<path id="Layer" class="s0" d="m498.4 562.2c21.3-20.4 51.8-32.7 81.4-27.6 24 4.7 46.6 18.2 61.3 37.7 15.7 20.2 19.5 46.7 19.3 71.6-10.1-4-18.7-10.8-28.5-15.4-27.9-13.6-59.9-19.5-90.6-13.8-24.9 4-48.7 13.7-70.5 26-4.1-28.6 8.1-57.8 27.6-78.5z"/>
		<path id="Layer" class="s0" d="m108.7 723.6c50.6-66.2 117.3-119.9 192.6-155.6 0 10.7 0 21.4 0.1 32.1-57.1 29.6-109.2 69.4-151 118.4-50.8 58.3-87.4 129-106.2 204.1-30 119.4-13.3 249.9 46.2 357.7 37.7 68.7 91.8 128.4 156.7 172.4 78.8 53.7 173.6 83.8 269 85.2 81.5 1.6 163.5-17.4 235.9-55.1 76.9-39.6 142.9-99.8 189.6-172.6 11.4 0 22.8 0 34.2-0.1-30.8 52.1-71.1 98.5-117.6 137.2-65.9 54.4-145.1 92.4-228.9 109.1-101.6 20.6-209.4 10.6-305.1-29.4-85.9-35.4-161.7-94.5-217.7-168.6-58.3-77-94.8-170.5-103.3-266.9-0.5-8.8-1.5-17.5-3.2-26.1v-49.5l1.1 8.6c3.4-108.3 41.5-215.1 107.6-300.9z"/>
		<path id="Layer" class="s0" d="m484.5 665.2c25.5-17.6 57.5-22.2 87.9-21.7 33.4-0.4 67.2 14.5 88.2 40.8 6.1 8.4 9.6 18.7 9.9 29-0.7 62.9-0.1 125.7-0.3 188.6-6.4-1.7-13.3-2.9-18.2-7.6-2.8-4.1-3-9.3-3.1-14.1 0.2-43.7-1.5-87.6-0.1-131.3 0.3-13.6 0.4-28.2-8.1-39.6-3.2 1.4-7.9 1.2-9 5.3-3.9 10.9-4 22.7-4.3 34.1 0.1 43.4-0.1 86.8 0.1 130.2-8.7-4.9-18.6-8.5-25.6-15.7-3.3-6.3-2.1-13.7-2.7-20.4-0.4-43.1 0.1-86.1-0.2-129.2 0.3-11.6-7.5-23.4-19.1-26.1-8.8-1.3-19-1.2-25.8 5.4-8.3 7.6-9 19.6-8.8 30.1 0.1 38.3-0.1 76.7 0.1 115-0.2 7.5-0.6 15.6-4.9 21.9-6.8 8.1-17.8 10.1-27.7 11.1-0.4-50.3 1-100.8-0.9-151.1q-2.5-3.7-4.9-7.4c-5.5 0-12.5-1.5-16.2 3.8-7.4 9-9.2 21.1-10.7 32.3-2.6 46.7 0.3 93.6-2 140.3-6 5.7-13.8 8.8-21.9 10.1-0.9-63.4-0.6-126.8-0.2-190.3 0.6-18.6 14.6-32.9 28.5-43.5z"/>
		<path id="Layer" class="s0" d="m301.1 1138.8c87.3-41 174.4-82.5 261.6-123.6 60.5 40.2 120.8 80.5 181.2 120.8 8.4 4.7 3.7 15.9 4.9 23.6 1.1 49.9-0.9 99.8-0.7 149.8-61.8-44.1-123.9-87.8-185.9-131.6-86.8 44.4-174.1 88-261.1 132.3-0.3-57.1-0.4-114.2 0-171.3z"/>
	</g>
	<g id="#80a7c4ff">
		<path id="Layer" class="s1" d="m533.4 356.5c9.9-2.1 19.6-5.8 29.8-5.3 10.7-0.5 21 3.2 30.7 7.1 9.8 4.7 3.5 17.7 5.1 26.1-1.5-1-4.7-3.1-6.3-4.2-2.3-0.9-4.6-1.7-7-2.4-4.9-1.2-9.9-1.9-14.7-3.5q-7.9-0.4-15.7 0c-5 2.2-10.4 2.2-15.7 2.2l1.1 1.7c-3.9 1.3-8.1 1.8-12.1 3.1-0.2 1.1-0.6 3.2-0.8 4.3-1.5-6.9-3-13.8-3-20.9 2.9-2.7 5.7-5.5 8.6-8.2z"/>
		<path id="Layer" class="s1" d="m547.6 408.8c10.7-2 21.6-1.3 32.4-1 2.6 1.7 4.8 4 7.2 6.1 0.4 25.5 0.1 51.1 0.2 76.6-0.1 3.4 0.6 6.6 1.5 9.8-1.2 0.6-3.6 1.9-4.8 2.5-14.3 0.6-28.7-0.1-43.1 0.3 0.3-28.5-0.3-57 0.4-85.5-1.1-4.5 3.5-6.4 6.2-8.8z"/>
		<path id="Layer" class="s1" d="m567.1 892.5q3.2 2.3 6.7 4.4c2.2 1.4 4.6 2.9 6.9 4.3 6.3 3.6 12.3 7.8 18.5 11.6 4.2 2.2 8.1 4.9 12.1 7.4q4.4 3 9 5.6c5.2 2.4 9.8 5.5 14.5 8.6 2.3 1.4 4.6 3 7 4.4 3.8 2.1 7.5 4.5 11.4 6.7 6.4 3.8 12.6 8.2 19 12.1 3.9 2.2 7.6 4.5 11.4 6.8 4.2 2.3 8.1 5 12.2 7.4 3.1 2.5 7.2 4 9.7 7.3-1.7 26.7-0.6 53.6-0.6 80.3-3.8-4.5-8.8-7.8-13.7-11-5.7-3.5-11.2-7.3-16.7-11-2.5-1.5-5-3.2-7.5-4.7-0.9-0.7-2.8-2.3-3.7-3.1-3.5-1.8-6.6-4.3-10.1-6.2-2.3-1.6-4.5-3.3-6.8-4.8-4.8-3.2-9.5-6.3-14.3-9.4-4.6-3.2-9.2-6.3-14-9.3-2.4-1.6-4.7-3.3-7.1-4.8-2.3-1.5-4.6-3.1-6.9-4.6-4.7-3.2-9.4-6.4-14.1-9.4-2.6-1.7-5-3.4-7.7-4.9-3.8-2.9-7.9-5.5-11.4-8.7-5 0.9-9.3 3.4-13.8 5.6-3.9 2.2-8.1 3.9-12.5 4.6l0.7 1.2c-3.1 1.1-6.2 2.3-9.3 3.4-3 1.8-6.2 3.3-9.4 5q-7 3.5-14.1 6.9c-6.7 3.7-13.9 6.5-21.1 9.4q-4.6 2.4-9.4 4.8c-3.1 1.5-6.2 3.1-9.4 4.6q-3.4 1.7-6.8 3.5c-2.4 1.1-4.8 2.3-7.2 3.5-5.3 2.6-10.9 4.7-16.4 7-1.2 0.6-3.5 1.9-4.7 2.6-3.1 1.5-6.3 3-9.5 4.4q-3.4 1.8-6.7 3.7c-2.5 1.1-4.8 2.3-7.2 3.4-6.2 3.1-12.8 5.3-19 8.5-3.9 1.8-7.7 3.8-11.8 5.4-2.4 1.8-5.1 3.2-6.9 5.8 1.1-17.1 0.2-34.3 0.4-51.5-0.3-10.1 1.1-20.5-1.2-30.5q2.7-2.1 5.7-3.8c3.8-1.8 7.7-3.3 11.6-4.6 5.6-2.5 11.3-4.5 16.5-7.7q3.6-1.5 7.3-2.9c4.6-2 9.3-3.7 13.8-5.7 4-2.1 8.1-4.3 12.7-4.5l-0.7-1.4c8.7-3 17-7.3 25.6-10.6 5.3-2.6 10.9-4.6 16.3-7 3.8-1.9 7.7-3.6 11.7-4.8q3.5-1.7 7.1-3.5 2.4-1.3 4.9-2.6 4.5-1.7 9.2-3.2c1.2-0.7 3.6-1.9 4.8-2.5 5.4-2.5 10.9-4.6 16.4-6.7 1.2-0.7 3.5-2 4.6-2.6 4.7-2.2 9.5-4 14.2-6.1q4.9-1.9 10-3.2z"/>
	</g>
</svg>