<svg version="1.2" xmlns="http://www.w3.org/2000/svg" viewBox="0 0 1420 1554" width="1420" height="1554">
	<title>ironwood-svg</title>
	<style>
		.s0 { fill: #99c13c } 
		.s1 { fill: #7a9e3f } 
		.s2 { fill: #bed63a } 
	</style>
	<g id="Layer">
		<path id="Layer" class="s0" d="m142.7 1077.9c-100.9-179.5-145.8-374.1-142.1-568.6 175.8 108.5 321.6 254.4 426.3 430.2 100.9 179.6 145.8 374.1 142.1 568.7-175.8-108.5-325.3-250.7-426.3-430.3z"/>
		<path id="Layer" class="s1" d="m288.5 838.5c-93.4-280.6-100.9-564.9-37.3-838 216.8 194.5 385.1 433.9 478.6 714.5 93.4 280.6 100.9 565 37.4 838.1-220.7-194.6-385.2-437.8-478.7-714.6z"/>
		<path id="Layer" class="s2" d="m1017.7 857.2c71-217 198.1-404.1 366.4-557.4 52.4 213.2 48.6 433.9-22.4 650.9-71.1 217-198.2 404.1-366.5 557.5-52.3-213.3-48.6-434 22.5-651z"/>
		<g id="Layer">
		</g>
	</g>
</svg>