<svg version="1.2" xmlns="http://www.w3.org/2000/svg" viewBox="0 0 1511 1505" width="1511" height="1505">
	<title>ironsource-svg</title>
	<style>
		.s0 { fill: #ffffff } 
	</style>
	<path id="Layer" fill-rule="evenodd" class="s0" d="m755.2 1504.6c-417.6 0-755.2-336.3-755.2-752.3 0-416 337.6-752.3 755.2-752.3 417.6 0 755.2 336.3 755.2 752.3 0 416-337.6 752.3-755.2 752.3zm-154.9-1084.4l-192.5-0.3-0.2 151.9 192.5 0.3zm0 191.9l-193.8-0.3-0.1 152.8c-0.1 22.8-32.1 31-58.4 39.7l-0.2 103.4c26.4 9 58.3 12.5 58.3 41.3l-0.3 144.4 193.8 1.6 0.1-110.5c0.1-75.3-19.1-110.6-68.7-130.4 47.4-13 69-49 69-112.8 0.1 0 0.3-129.2 0.3-129.2zm551.3 303.7c0.3-216.4-298.6-194.9-298.4-280.4 0-26.2 17-42.5 46.5-42.5 36.9 0.1 53.2 31.5 53.1 62.9v21.8l195.5 0.3v-38.1c0.2-116.7-82.3-209.6-248.4-209.9-184.9-0.3-259.3 101.5-259.4 218.2-0.3 216.7 298.7 204.1 298.6 281.4 0 27.2-17.3 43.4-52.3 43.3-38-0.1-57.8-26.3-57.8-64.5v-15.4l-195.5-0.3v35.4c-0.2 117 83.3 209.8 257.7 210 182.4 0.3 260.3-105.3 260.4-222.2z"/>
</svg>