<svg version="1.2" xmlns="http://www.w3.org/2000/svg" viewBox="0 0 1527 1125" width="1527" height="1125">
	<title>logo_Personal_IM3-svg</title>
	<style>
		.s0 { fill: #ed1c24 } 
		.s1 { fill: #ffffff } 
	</style>
	<g id="Layer_2">
		<path id="Layer" class="s0" d="m1.7 63.3c0-25.3 15.3-48.2 38.7-57.9c23.4-9.7 50.3-4.3 68.2 13.6c17.9 17.9 23.3 44.8 13.6 68.2c-9.7 23.4-32.5 38.7-57.9 38.7c-8.2 0-16.4-1.6-24-4.7c-7.6-3.1-14.5-7.7-20.3-13.6c-5.8-5.8-10.4-12.7-13.6-20.3c-3.1-7.6-4.7-15.8-4.7-24z" />
		<path id="Layer" class="s1" d="m87.4 180.2c7.3 2.9 14.1 7.2 19.8 12.6c5.8 5.4 10.5 11.8 14 18.9c3.4 7.2 5.4 14.9 6 22.7v560.6h-125.5v-558.9c0.5-8 2.4-15.8 5.7-23.1c3.3-7.3 8-13.9 13.7-19.4c5.8-5.6 12.5-10 19.9-13.1c7.4-3 15.3-4.7 23.3-4.8c7.9 0.1 15.8 1.6 23.1 4.5zm797.3 13.6c28.7 12 54.8 29.3 77 51.1c22.1 21.8 39.9 47.5 52.5 76c12.5 28.4 19.5 58.9 20.6 90v384.1h-125.2v-382.7c-1.5-30.1-14.5-58.5-36.3-79.3c-21.9-20.8-50.9-32.5-81-32.5c-30.2 0-59.1 11.7-81 32.5c-21.8 20.8-34.8 49.2-36.3 79.3v316.7c-0.2 7.8-1.9 15.6-5.1 22.7c-3.1 7.2-7.6 13.7-13.2 19.2c-5.6 5.5-12.2 9.8-19.5 12.8c-7.2 3-15 4.5-22.8 4.6c-8 0.4-15.9-0.9-23.4-3.7c-7.4-2.9-14.2-7.2-19.9-12.7c-5.7-5.6-10.1-12.3-13.1-19.7c-3-7.3-4.5-15.3-4.3-23.2v-316.4c-0.5-15.1-3.9-29.9-10.1-43.6c-6.2-13.7-15-26.1-26-36.4c-10.9-10.3-23.8-18.4-37.8-23.8c-14-5.4-29-7.9-44-7.6c-15-0.5-29.9 1.9-43.9 7.3c-14 5.3-26.8 13.4-37.5 23.8c-10.8 10.4-19.4 22.9-25.3 36.7c-5.8 13.8-8.8 28.6-8.8 43.6v382.9h-125.2v-384.1c1.1-31 8-61.6 20.6-90.1c12.5-28.4 30.3-54.3 52.5-76c22.2-21.8 48.4-39.1 77.1-51.1c28.7-11.9 59.4-18.3 90.5-18.8c13.9 0 27.9 1 41.7 3.3c13.7 2.2 27.3 5.6 40.5 10c13.3 4.5 26.1 10.1 38.4 16.6c12.3 6.6 24.1 14.2 35.2 22.7l23.3 18.1l23.4-18.1c11.1-8.5 22.8-16.2 35.2-22.8c12.3-6.7 25.1-12.3 38.4-16.8c13.3-4.5 26.9-7.9 40.7-10.2c13.8-2.2 27.8-3.4 41.8-3.3c31 0.5 61.7 6.9 90.3 18.9zm324.5 349.6c-15-1.1-29.1-7.8-39.4-18.8c-10.3-11-16.1-25.6-16.1-40.7c0-15 5.8-29.6 16.1-40.6c10.3-11 24.4-17.7 39.4-18.8h132.2c16.5-1.1 31.9-8.4 43.2-20.4c11.3-12.1 17.6-28 17.6-44.6c0-16.5-6.3-32.4-17.6-44.5c-11.3-12-26.7-19.4-43.2-20.4h-246.3v-119.7h250.2c24 0.2 47.8 5.2 69.9 14.6c22.2 9.4 42.3 23 59.1 40.2c16.9 17.1 30.2 37.4 39.2 59.8c9.1 22.3 13.6 46.1 13.4 70.2c0.1 9.9-0.7 19.8-2.2 29.6c-1.6 9.8-3.9 19.5-7 28.9c-3 9.5-6.8 18.6-11.4 27.5c-4.5 8.8-9.7 17.3-15.5 25.3l-10.6 14.2l10.8 14.7c5.8 8 10.9 16.3 15.4 25.1c4.4 8.7 8.2 17.8 11.2 27.1c3.1 9.3 5.4 18.8 7 28.5c1.5 9.7 2.3 19.5 2.3 29.3c0.2 24-4.4 47.8-13.4 70.1c-9 22.3-22.3 42.6-39.2 59.7c-16.8 17.1-36.8 30.8-58.9 40.2c-22.1 9.5-45.8 14.5-69.9 14.8h-250.4v-120.5h246.3c16.5-1.1 31.9-8.4 43.2-20.5c11.3-12.1 17.6-28 17.6-44.5c0-16.6-6.3-32.5-17.6-44.5c-11.3-12.1-26.7-19.4-43.2-20.5z" />
		<path id="Layer" class="s0" d="m988.7 956.3c4.8 1.9 9.1 4.8 12.7 8.4c3.6 3.6 6.5 7.9 8.4 12.7c2 4.7 3 9.8 3 14.9c0 15.7-9.5 29.9-24.1 36c-14.5 6-31.3 2.7-42.4-8.5c-11.1-11.1-14.5-27.9-8.5-42.4c6.1-14.6 20.3-24.1 36-24.1c5.1 0 10.2 1 14.9 3z" />
		<path id="Layer" class="s0" d="m1393.1 860.9c45.5 0 87.8 23.6 111.7 62.4c23.9 38.7 26 87.1 5.7 127.8c-20.4 40.7-60.4 67.9-105.7 72c-45.4 4.1-89.6-15.6-116.9-52.1c-12.2 16.4-28.1 29.7-46.3 38.8c-18.3 9.2-38.4 13.9-58.8 13.9c-20.4 0-40.6-4.7-58.8-13.9c-18.3-9.1-34.2-22.4-46.4-38.8q-2.7 4-5.7 7.7q-3 3.8-6.3 7.3q-3.3 3.5-6.8 6.7q-3.6 3.2-7.3 6.2c-13.9 10.2-29.7 17.7-46.5 21.8c-16.8 4.2-34.2 5-51.3 2.4c-17.1-2.6-33.5-8.5-48.2-17.4c-14.8-9-27.7-20.7-37.9-34.7c-12.3 16.4-28.1 29.7-46.4 38.8c-18.3 9.2-38.4 13.9-58.8 13.9c-20.4 0-40.6-4.7-58.8-13.9c-18.3-9.1-34.2-22.4-46.4-38.8q-2.7 4-5.7 7.7q-3 3.8-6.3 7.3q-3.3 3.5-6.8 6.7q-3.6 3.2-7.3 6.2c-13.9 10.2-29.7 17.7-46.5 21.8c-16.7 4.2-34.2 5-51.3 2.4c-17-2.6-33.4-8.5-48.2-17.4c-14.8-9-27.7-20.7-37.9-34.7c-12.3 16.3-28.1 29.6-46.4 38.7c-18.2 9.1-38.3 13.8-58.7 13.8c-20.3 0-40.4-4.7-58.7-13.8c-18.2-9.1-34.1-22.4-46.3-38.7c-33.9 45.3-92.9 63.8-146.6 45.9c-53.6-17.9-89.8-68.1-89.8-124.6c0-56.6 36.2-106.8 89.8-124.7c53.7-17.8 112.7 0.6 146.6 45.9q2.7-3.8 5.7-7.3q3.1-3.5 6.3-6.8q3.3-3.3 6.9-6.3q3.5-3 7.3-5.8c13.8-10.4 29.6-17.9 46.5-22.2c16.8-4.2 34.3-5.1 51.4-2.5c17.2 2.5 33.7 8.5 48.5 17.5c14.9 8.9 27.8 20.8 38 34.8c12.3-16.3 28.1-29.5 46.3-38.6c18.3-9.2 38.4-13.9 58.7-13.9c20.4 0 40.5 4.7 58.8 13.9c18.2 9.1 34 22.3 46.3 38.6q2.8-3.7 5.8-7.3q3.1-3.5 6.4-6.8q3.3-3.3 6.9-6.3q3.5-3 7.3-5.8c13.8-10.4 29.5-17.9 46.2-22.3c16.7-4.3 34.1-5.2 51.2-2.8c17.1 2.4 33.5 8.2 48.4 17c14.8 8.8 27.8 20.5 38.1 34.3c8.1-10.8 17.8-20.2 28.7-28.1c10.9-7.8 23-13.9 35.8-18.1c12.8-4.1 26.2-6.3 39.6-6.4c13.5-0.1 26.9 1.9 39.8 5.8v66.8l-2.8-1.9c-26.8-16.3-61.3-12.5-83.8 9.3c-22.6 21.8-27.6 56.1-12.3 83.4c15.4 27.4 47.2 40.9 77.6 33c30.4-7.9 51.6-35.3 51.6-66.7v-111.3q5.3 3.2 10.2 6.8q5 3.7 9.6 7.9q4.5 4.1 8.7 8.6q4.2 4.6 7.9 9.5q2.8-3.7 5.8-7.2q3.1-3.5 6.4-6.8q3.2-3.3 6.8-6.3q3.5-3.1 7.2-5.9c13.8-10.4 29.4-17.9 46.2-22.2c16.7-4.4 34.1-5.3 51.2-2.9c17.1 2.4 33.5 8.2 48.3 17c14.9 8.8 27.8 20.5 38.2 34.3c6.1-8.2 13.1-15.6 21-22.1c7.8-6.5 16.4-12.1 25.5-16.7c9.1-4.5 18.7-8 28.6-10.3c10-2.4 20.1-3.5 30.3-3.5z" />
		<path id="Layer" fill-rule="evenodd" class="s1" d="m1012.5 935.5v-68.5q4 1.3 7.9 2.8q3.9 1.5 7.7 3.3q3.8 1.7 7.5 3.7q3.7 1.9 7.2 4.1v111.4q0 4.7-0.6 9.4q-0.7 4.7-2 9.3q-1.2 4.6-3.1 9q-1.9 4.4-4.3 8.4c-14.6 23.8-42 36.4-69.5 32.1c-27.5-4.3-49.8-24.8-56.3-51.9c-6.6-27.1 3.8-55.5 26.2-71.9c22.5-16.5 52.7-17.9 76.5-3.4zm-23.7 92.7c4.7-1.9 9-4.8 12.6-8.4c3.6-3.6 6.5-7.9 8.4-12.6c2-4.8 3-9.8 3-15c0-15.7-9.5-29.9-24-36c-14.6-6-31.4-2.7-42.5 8.5c-11.1 11.1-14.5 27.9-8.4 42.5c6 14.5 20.2 24 36 24c5.1 0 10.1-1 14.9-3z" />
		<path id="Layer" fill-rule="evenodd" class="s1" d="m1183.9 1061.3c-28.1 0-53.3-16.9-64-42.9c-10.7-25.9-4.8-55.7 15.1-75.5c19.9-19.8 49.7-25.7 75.6-14.9c25.9 10.9 42.7 36.2 42.6 64.3c0 9.1-1.8 18.1-5.3 26.4c-3.5 8.4-8.6 16.1-15 22.5c-6.5 6.4-14.1 11.5-22.5 14.9c-8.4 3.5-17.4 5.2-26.5 5.2zm0-108c-15.8 0-30 9.5-36 24.1c-6 14.5-2.7 31.3 8.4 42.4c11.2 11.2 27.9 14.5 42.5 8.5c14.6-6.1 24-20.3 24-36c0-5.1-1-10.2-2.9-14.9c-2-4.8-4.9-9.1-8.5-12.7c-3.6-3.6-7.9-6.5-12.6-8.4c-4.7-2-9.8-3-14.9-3z" />
		<path id="Layer" fill-rule="evenodd" class="s1" d="m1394.2 1061.3c-28 0.1-53.4-16.7-64.2-42.7c-10.8-25.9-4.9-55.8 15-75.6c19.8-19.9 49.7-25.8 75.6-15c25.9 10.8 42.7 36.2 42.6 64.3c0 9-1.8 18-5.2 26.4c-3.5 8.4-8.6 16-15 22.4c-6.4 6.4-14 11.5-22.4 14.9c-8.3 3.5-17.3 5.3-26.4 5.3zm0-108c-15.7 0-29.9 9.5-36 24.1c-6 14.5-2.7 31.3 8.5 42.4c11.1 11.2 27.9 14.5 42.4 8.5c14.6-6.1 24.1-20.3 24.1-36c0-5.1-1-10.2-3-14.9c-1.9-4.8-4.8-9.1-8.4-12.7c-3.6-3.6-7.9-6.5-12.7-8.4c-4.7-2-9.8-3-14.9-3z" />
		<path id="Layer" fill-rule="evenodd" class="s1" d="m343.4 1061.3c-28.1 0-53.3-16.9-64-42.9c-10.7-25.9-4.8-55.7 15.1-75.5c19.9-19.8 49.7-25.7 75.6-14.9c25.9 10.9 42.7 36.2 42.6 64.3c-0.1 9-1.9 18-5.4 26.4c-3.5 8.4-8.6 16-15 22.4c-6.5 6.4-14.1 11.5-22.5 14.9c-8.4 3.5-17.3 5.3-26.4 5.3zm0-108c-15.8 0-30 9.5-36 24.1c-6 14.5-2.7 31.3 8.4 42.4c11.2 11.2 27.9 14.5 42.5 8.5c14.5-6.1 24-20.3 24-36c0-5.1-1-10.2-2.9-14.9c-2-4.8-4.9-9.1-8.5-12.7c-3.6-3.6-7.9-6.5-12.6-8.4c-4.7-2-9.8-3-14.9-3z" />
		<path id="Layer" fill-rule="evenodd" class="s1" d="m133.1 1061.3c-28.1 0.1-53.4-16.7-64.2-42.6c-10.9-25.9-5-55.7 14.8-75.6c19.8-19.9 49.6-25.9 75.5-15.2c25.9 10.8 42.9 36 42.9 64.1c0 9.1-1.8 18.1-5.2 26.5c-3.5 8.4-8.5 16-15 22.5c-6.4 6.4-14 11.5-22.4 15c-8.4 3.5-17.4 5.3-26.4 5.3zm0-108c-15.8 0-30 9.5-36 24.1c-6.1 14.5-2.7 31.3 8.4 42.4c11.2 11.2 27.9 14.5 42.5 8.5c14.5-6.1 24-20.3 24-36c0-5.1-1-10.2-3-14.9c-1.9-4.8-4.8-9.1-8.4-12.7c-3.6-3.6-7.9-6.5-12.6-8.4c-4.8-2-9.8-3-14.9-3z" />
		<path id="Layer" fill-rule="evenodd" class="s1" d="m766 1061.3h-10c-27.2-3-50.1-21.7-58.5-47.7c-8.3-26.1-0.6-54.6 19.8-72.8c20.4-18.3 49.6-22.8 74.5-11.6c25 11.2 41 36 41 63.3q0.2 1.7 0.3 3.3q0.1 1.6 0.1 3.3q0 1.6-0.1 3.3q-0.1 1.6-0.3 3.2h-105.5l2 5q2.1 4 5 7.4q2.9 3.3 6.5 5.9q3.7 2.6 7.8 4.4q4.1 1.7 8.5 2.4q1.3 0.1 2.6 0.1q1.3 0.1 2.5 0.1q1.3 0 2.6-0.1q1.3 0 2.6-0.1h1.7q3.5 0 7-0.6q3.5-0.6 6.9-1.8q3.3-1.2 6.4-3q3.1-1.8 5.8-4.1l27.8 15v1.4c-3.3 3.9-7 7.3-11 10.4c-4.1 3-8.5 5.6-13.1 7.6c-4.6 2.1-9.5 3.6-14.5 4.6c-4.9 1-10 1.5-15.1 1.4zm-1.9-108c-3.9 0-7.7 0.5-11.4 1.6c-3.7 1.1-7.2 2.8-10.4 4.9c-3.2 2.2-6.1 4.8-8.5 7.8c-2.5 3-4.4 6.3-5.9 9.9h72.4c-1.5-3.6-3.4-6.9-5.9-10c-2.4-3-5.2-5.6-8.5-7.7c-3.2-2.2-6.7-3.8-10.4-4.9c-3.7-1.1-7.5-1.7-11.4-1.6z" />
		<path id="Layer" class="s1" d="m488.3 1057.9v-69.5c0.8-15.3 6.6-29.9 16.5-41.6c9.9-11.6 23.4-19.6 38.3-22.8c15-3.2 30.6-1.3 44.4 5.3c13.8 6.6 25 17.6 31.9 31.2l-27.8 14.2c-3.9-7.9-10.3-14.3-18.2-18.1c-7.9-3.8-16.9-4.8-25.5-2.9c-8.5 1.9-16.2 6.7-21.7 13.6c-5.5 6.8-8.6 15.3-8.6 24.1v65.7z" />
	</g>
</svg>