<svg version="1.2" baseProfile="tiny-ps" xmlns="http://www.w3.org/2000/svg" viewBox="0 0 1529 1527" width="1529" height="1527">
	<title>logo (9)-svg</title>
	<style>
		tspan { white-space:pre }
		.shp0 { fill: #0080c7 } 
		.shp1 { fill: #00871a } 
		.shp2 { fill: #61b800 } 
		.shp3 { fill: #00b8e8 } 
	</style>
	<g id="Desktop">
		<g id="Navigation">
			<g id="Navigation-/-Large-/-Main-Nav">
				<g id="Main-Nav">
					<g id="logo-no-tag">
						<g id="Group">
							<path id="Path" class="shp0" d="M1054.83 318.08C978.07 249.65 897.52 185.57 813.58 126.14C874.85 80.35 938.78 38.21 1005.03 -0.05C1091.46 34.95 1166.96 90.3 1237.25 150.75C1176.19 206.1 1114.93 260.92 1054.83 318.08Z" />
							<path id="Path" class="shp1" d="M1210.49 1053.48C1278.92 976.76 1343.01 896.29 1402.47 812.45C1448.28 873.53 1490.44 937.27 1528.72 1003.32C1493.68 1089.64 1438.36 1165.03 1377.73 1235.23C1322.73 1174.58 1267.83 1113.39 1210.49 1053.48Z" />
							<path id="Path" class="shp2" d="M126.36 714.57C80.49 653.39 38.3 589.55 0 523.38C35.04 436.95 90.47 361.56 150.99 291.36C206.42 352.33 261.21 413.52 318.55 473.54C249.98 550.2 185.82 630.67 126.36 714.57L126.36 714.57Z" />
							<path id="Path" class="shp2" d="M1237.25 1376.16C1166.96 1436.71 1091.46 1491.96 1005.03 1526.95C911.37 1474.78 824.51 1410.31 739.57 1345.09C624.72 1257.67 516.22 1162.24 414.86 1059.52C494.07 979.14 573.46 899.01 653.03 819.13C843.24 1009.72 1037.98 1195.4 1237.25 1376.16Z" />
							<path id="Path" class="shp3" d="M715.57 1400.87C654.41 1446.63 590.59 1488.73 524.44 1526.95C437.9 1491.96 362.4 1436.71 292.11 1376.16C352.85 1320.91 414.12 1266.09 474.22 1208.83C551.02 1277.28 631.6 1341.39 715.57 1400.87L715.57 1400.87Z" />
							<path id="Path" class="shp3" d="M1378.05 291.36C1438.68 361.56 1494 436.95 1529.04 523.38C1476.8 616.8 1412.24 703.65 1346.94 788.48C1259.39 903.1 1163.83 1011.39 1060.98 1112.54C980.5 1033.51 900.26 954.26 820.27 874.8C1011.11 684.91 1197.04 490.43 1378.05 291.36Z" />
							<path id="Path" class="shp1" d="M291.79 150.75C362.09 90.3 437.58 34.95 524.12 -0.05C616.9 54.07 705.62 114.85 789.58 181.82C904.32 269.28 1012.76 364.71 1114.08 467.39C1034.93 547.77 955.58 627.9 876.01 707.78C685.87 517.26 491.13 331.58 291.79 150.75Z" />
							<path id="Path" class="shp0" d="M468.06 414.26C548.54 493.37 628.78 572.65 708.77 652.11C517.64 842 331.72 1036.41 150.99 1235.34C90.47 1165.35 35.04 1089.96 0 1003.64C54.17 910.97 115.03 822.36 182.1 738.53C269.68 623.87 365.23 515.51 468.06 414.26L468.06 414.26Z" />
						</g>
					</g>
				</g>
			</g>
		</g>
	</g>
</svg>