<svg version="1.2" xmlns="http://www.w3.org/2000/svg" viewBox="0 0 1553 488" width="1553" height="488">
	<title>Türkiye_İş_Bankası_logo-svg</title>
	<style>
		.s0 { fill: #ffffff } 
	</style>
	<g id="layer1">
		<path id="path671" fill-rule="evenodd" class="s0" d="m971.8 296.2h-49.7v-95.1h50.2c21.2 0 34.7 8.9 34.7 25.2c0 8.1-4.4 14.6-11.6 18.4c8.7 3.4 15.3 10.4 15.3 20.8c0 20-15.5 30.7-38.9 30.7zm-0.5-77.5h-27.7v18h28.8c9.1 0 12.4-3.6 12.4-8.9c0-6-3.9-9.1-13.5-9.1zm1.3 34.8h-29.1v24.6h29.1c10.6 0 15.6-4.8 15.6-12.3c0-8.2-5-12.3-15.6-12.3zm122.3 42.7l-8.6-21.2h-40l-8.6 21.2h-23.4l41.9-95.1h21.2l41.6 95.1zm-23.1-56.5c-2.2-5.5-4.4-11.3-5.5-14.8c-1.1 3.5-3.3 9.3-5.5 14.8l-7 17.3h25zm125.6 56.5l-40.2-51.9c-2.6-3.5-6.2-8.3-7.6-10.7c0 3.5 0.3 15.5 0.3 20.8v41.8h-21.5v-95.1h20.9l38.7 50.3c2.7 3.5 6.3 8.3 7.7 10.7c0-3.5-0.3-15.5-0.3-20.8v-40.2h21.6v95.1c-0.1 0-19.6 0-19.6 0zm273 1.5c-18.3 0-34.2-6.7-42.5-17.3l15.8-12.2c7.7 7.7 17.5 10.9 28 10.9c13 0 19-3.2 19-10.4c0-6.1-3.7-8.8-24.3-12.9c-20.2-4-34.2-9.6-34.2-28.3c0-17.3 17.4-27.9 39-27.9c17 0 29.5 5.6 39.8 15l-15.7 13.2c-7.1-6.2-14.9-9.7-24.9-9.7c-11.7 0-15.6 4.3-15.6 8.5c0 6 4.7 7.9 22 11.5c17.4 3.5 36.6 8.7 36.6 29.3c0 18.1-13.1 30.3-43 30.3zm81.7-1.5h-21.8v-95.1h21.8zm-245 0l-29.7-45.9l-17.5 17.9v28h-21.9v-95.1h21.9v27.1c0 3.5-0.2 12-0.3 15.1c1.5-2.2 5.6-6.6 8.6-9.7l30.6-32.5h26.4l-32 32.9l34.5 53.5l38.1-86.4h21.2l41.6 95.1h-24.1l-8.6-21.2h-40l-8.6 21.2zm74.3-56.5c-2.2-5.6-4.3-11.3-5.4-14.8c-1.1 3.5-3.3 9.2-5.5 14.8l-7 17.3h25zm-950.7-44.6c-6.7 0-12.2-5.5-12.2-12.2c0-6.8 5.5-12.2 12.2-12.2c6.8 0 12.3 5.4 12.3 12.2c0 6.7-5.5 12.2-12.3 12.2zm-287.8 102.6c-26.4 0-44.2-15.5-44.2-43.2v-53.4h21.9v53.1c0 15.2 8.4 24.9 22.3 24.9c13.9 0 22.5-9.4 22.5-24.6v-53.4h21.9v53.1c0 27.6-16.6 43.5-44.4 43.5zm-16.6-102.8c-6.7 0-12.2-5.4-12.2-12.2c0-6.8 5.5-12.2 12.2-12.2c6.8 0 12.3 5.4 12.3 12.2c0 6.8-5.5 12.2-12.3 12.2zm33.7 0c-6.8 0-12.2-5.4-12.2-12.2c0-6.8 5.4-12.2 12.2-12.2c6.7 0 12.2 5.4 12.2 12.2c0 6.8-5.5 12.2-12.2 12.2zm482.4 101.3c0 0-78.3 0-78.3 0v-95.1h75.9v18.6h-54v16.4h31.4v18.5h-31.4v23h56.4zm-127.8-37.7v37.7h-21.9v-37.2l-41.4-57.9h25.2l15.4 22.6c4 5.6 9.9 15 11.9 18.5c2.1-3.5 7.8-12.6 11.9-18.5l15.5-22.6h24.8zm-133.5 37.6l-29.7-45.9l-17.5 17.9v28h-21.9v-95.1h21.9v27.1c0 3.5-0.2 12.1-0.3 15.1c1.5-2.2 5.6-6.6 8.6-9.7l30.6-32.5h26.4l-32 32.9l40.1 62.2zm-110.9 0l-19.5-34.2h-22.1v34.2h-21.8v-95.1h50.9c20.6 0 37.6 10 37.6 30.2c0 14.3-7 23.2-20.9 28l20.9 36.9zm-12.9-76.6h-28.6v24.4h28.6c10.1 0 15.6-4 15.6-12.3c0-8.6-5.9-12.1-15.6-12.1zm-204 0.3v76.3h-21.8v-76.3h-31.5v-18.8h84.7v18.8zm366.6-18.8h21.8v95.1h-21.8zm301.7 202.8c-12.8-2.9-18 0-21.6 2.1c-0.7 0.5-1.2 0.9-2 1.5c-2.8 2.4-6.1 7.2-6.1 7.2h-5.5v-82.5h6.4c0 0 1.4 5.5 2.6 8.8c7.6 21.8 23 37.9 23 37.9c44.7 41.9 94 26.6 94 26.6c41.4-14.9 48.2-48.9 37.8-72.6c-10.4-23.7-37.3-36.8-37.3-36.8l-8.9-5v57.6c0.4 3.5-1.2 15.3 11.5 18.5l6.4 1.7v6.5h-81.6v-6.5l6.7-1.8c12.4-3.3 10.8-14.9 11.1-18.4v-83.2l-7.6-4.2c-13.8-7.6-21.6-11.3-33.1-20c-22.1-16.6-36-34.8-36-64c0-39.3 29.9-71.7 71-77.5c1.8-0.3 3.8-0.5 5.7-0.6v-8.8c-0.3-3.4 1.3-15.2-11.4-18.4l-6.4-1.7v-6.5h81.6v6.5l-6.7 1.8c-12.4 3.3-10.8 14.9-11.2 18.3v131.6l-45.9-25.3v-85.1c-2.3 0.1-3.9 0.3-3.9 0.3c-23.3 3.9-43.4 19.5-43.4 41.7c0 14.3 6.2 25.6 15.9 33.8c0 0 6 6.3 18.6 14.2c12.7 7.9 62.9 35.1 62.9 35.1c0 0 29.9 16 39.2 23.2c4.5 3.4 10 8.6 10 8.6c17.8 16 31.4 39.2 31.4 64.9c0 7.7-1.1 15.3-2.9 22.4c0 0-11 42.4-58.9 58.6c0 0-14 5.8-29.1 6.7c0 0-0.4 0.1-2 0.1c7 4.7 11.6 12.7 11.6 21.7c0 6.6-2.7 11.2-6 16c-2.4 3.3-6.6 10.8-9.2 14.5c-6.2 8.4-10.6 13.8-10.6 13.8h-6.7c0 0 3-11.7 2.1-14.6c-1.1-3.4-1.6-4.8-5.4-6.7c-9.6-3.4-16.5-12-16.5-23c0-10.3 5.9-19.1 14.5-23.4c-10-1.8-18.9-5-29.7-9.6c0 0-14.6-5-17.5-5.7zm140.3-222.8h-7.1l-0.8-5c-0.6-3.8-2-10.3-3-13.4c-1.4-4.3-5.7-14.2-11.5-22.1c-5.9-7.8-10.8-12.6-14-15c-2.5-1.8-4.9-4.2-10.1-7.1v-12.1l12 4.8c0 0 8.2 3.4 14.5 2.7c5.5-0.6 8.1-1.9 10.9-5.5l3.1-4.8h6v3.8zm-80.8-181.1c14.7 0 26.7 11.9 26.7 26.6c0 14.7-12 26.7-26.7 26.7c-14.7 0-26.6-12-26.6-26.7c0-14.7 11.9-26.6 26.6-26.6z" />
	</g>
</svg>