<svg version="1.2" xmlns="http://www.w3.org/2000/svg" viewBox="0 0 1561 475" width="1561" height="475">
	<title>Ispire-logo-black-75x23-svg</title>
	<style>
		.s0 { fill: #ffffff } 
	</style>
	<g id="surface1">
		<path id="Layer" fill-rule="evenodd" class="s0" d="m505.6 170.3c0.7-89.2 70-163.1 159.3-169 94.1-6.3 175.3 65 181.6 159.1 5.2 95.1-63.8 176.4-170.9 180.5-39.4 1.8-75.2-14.1-106.6-36.2 0 10.3 0.4 159.4 0.4 169.7h-63.8c0-56.8 0-247.2 0-304.1zm274.5 2.6c1.1-58.6-45.4-107.3-104.1-108.5-1.5 0-2.6 0-4 0-58.7 1.2-105.6 49.5-104.8 108.1 1.1 58.7 49.4 105.6 108.1 104.9 57.2-1.2 103.7-47 104.8-104.5zm422.5-171.6v62c-8.5 1.5-17 2.6-25.1 4.5-47.3 12.1-79.3 53.1-79.8 103.3-0.3 56.4 0 112.2 0 168.2h-65.3v-167.1c0-89.3 68.7-163.9 158-170.5 3.7-0.4 7.4-0.4 12.2-0.4zm-294.5 0h62.3v338.4h-62.3zm652.5 174.2c0 4.5 0 8.8-0.4 13.3l-0.4 5.1h-279c1.2 6.3 3 12.6 5.6 18.5 1.5 3.7 3.3 7.4 5.2 10.6 5.2 9.7 11.8 18.5 19.5 25.9 17 16.3 38.8 27.4 62.4 30.7 23.2 3.7 47.2-0.4 67.9-11.5 8.8-4.8 17-11.1 23.9-18.5 5.6-5.5 10.4-11.4 14.8-18q6.6-10.5 11.1-22.2l1.4-3.7h65l-2.6 7.8c-5.5 15.5-12.5 30.6-21 44.7-8.1 13.6-18.1 25.8-29.5 36.9-30.6 29.8-72 46.5-115.1 46.1-43.6 0.3-85.7-15.9-117.4-45.4-17-15.8-30.6-35-39.9-56.4-18.4-42.9-18.8-91.3-1.1-134 8.5-20.7 20.6-39.4 36.6-55.4 7.7-7.7 16.5-14.7 25.8-21 9.2-6.3 19.2-11.4 29.5-15.5 21-8.8 43.6-12.9 66.1-12.9 4.4 0 8.8 0 12.5 0.4 43.9 2.5 84.8 22 114.4 54.5 29.5 32.9 45.3 75.3 44.7 120zm-275.4-38.8h209.2c-4.4-14.4-12.2-27.7-22.5-38.8-12.5-12.8-27.7-22.8-44.6-29.1-12.6-4.7-25.8-7.4-39.1-7.4-13.4 0-26.6 2.7-38.8 7.4-3.7 1.5-7.4 3.4-11.1 5.2-23.6 12.9-42.4 34-52 59.4-0.4 1.1-0.7 1.9-1.1 2.9zm-839.8 101.5c0 6.7-0.8 13.3-1.9 19.9-1.4 6.7-3.3 12.6-5.9 18.8-2.6 5.9-5.5 11.8-9.2 17.4-3.3 5.1-7.4 10.4-11.8 14.7-4.5 4.4-9.2 8.5-14.4 12.2-5.2 3.7-10.7 7-16.6 9.6-6 3-12.2 5.2-18.8 6.3-6.7 1.4-13.3 2.3-19.9 2.3h-227v-59.8h227.3c4.8 0 9.6-0.8 14.1-3.1 4.7-2.2 8.8-5.1 12.1-8.8q5.5-5.5 8.9-13.3c1.9-5.1 2.9-10.7 2.9-16.2 0-5.2-0.7-10.7-2.9-15.5-1.8-4.4-4.8-8.5-8.2-11.8-3.6-3.3-7.7-6.2-12.5-8.1-4.4-1.8-9.6-2.6-14.4-2.6h-134.2c-7.1 0-14.1-0.7-21.1-2.3-6.7-1.4-13.3-3.7-19.5-6.2-6-2.5-11.9-5.9-17-9.6-5.2-3.7-10.4-7.8-14.8-12.2-4.4-4.5-8.5-9.6-12.2-14.8-3.7-5.5-6.7-11.4-9.2-17.3-2.6-6.2-4.4-12.5-5.6-18.8-1-6.6-1.8-12.9-1.8-19.6 0-6.6 0.8-13.3 1.8-19.5 1.2-6.3 3.3-12.6 5.6-18.5 2.5-5.9 5.5-11.5 9.2-17 3.7-5.1 7.8-10 12.2-14.4 4.4-4.4 9.6-8.4 15.1-11.8v-0.2c5.6-3.7 11.5-6.7 17.4-9.3 6.2-2.6 12.5-4.4 19.2-5.5 6.6-1.2 13.6-1.9 20.6-1.9h200v60.1h-199.9c-5.6 0-11.1 0.8-16.7 2.7-4.8 1.8-9.2 4.4-13.3 8.1-3.7 3.3-6.6 7.4-8.4 11.7-1.9 4.8-3.1 10.3-3.1 15.5 0 5.6 0.8 11.1 3.1 16.3 2.2 4.8 5.1 9.2 8.7 13.2 3.7 3.7 8.2 6.7 13 8.9 5.2 1.9 10.7 3 16.2 3h134.3c6.7 0 13.3 0.7 19.6 1.8 6.3 1.1 12.5 3.3 18.5 5.9 5.9 2.6 11.4 5.5 16.6 9.2 5.1 3.7 9.9 7.4 14.3 11.8 4.4 4.5 8.6 9.3 11.8 14.4 3.7 5.2 6.7 10.7 8.9 16.7 2.6 5.9 4.4 12.1 5.9 18.4 2.2 6.3 3 12.6 3 19.2zm-445.4-236.9h62.3v338.4h-62.3z"/>
	</g>
</svg>