<svg version="1.2" xmlns="http://www.w3.org/2000/svg" viewBox="0 0 1615 1406" width="1615" height="1406">
	<title>issss333-svg-svg</title>
	<style>
		.s0 { fill: #ffffff } 
	</style>
	<g id="#ffffffff">
		<path id="Layer" fill-rule="evenodd" class="s0" d="m676.2 0h7.5c10.4 0.4 20.8 0.2 31.2 0.7 15.7 0.7 31.3 1.9 47 2.8 45.7 4.7 91.3 11.8 136.1 22.3 87.7 21.1 173 52.9 252.2 96.1 33.3 17.6 65.3 37.5 96.2 58.9 31.9 22.4 62.8 46.1 91.8 72 28.1 25.2 55 51.8 80 80 50.6 57.5 94 121.4 127.4 190.4 38.6 79.9 63.3 167 68.3 255.8 5.5 92-11.1 185.5-49.7 269.3-32.7 71.1-80.8 134.7-139.4 186.3-15.1 13.5-31.2 25.7-47.4 37.7-49.2 35.1-103.3 63.3-160.1 84.1-18.1 6.2-36.1 13-54.7 17.9-47.3 13.3-95.8 22.6-144.7 26.9-49.5 5.3-99.4 4.6-149 1.5-23.6-1.9-47-4.5-70.4-8-46.2-6.3-91.8-17.2-136.6-30.1-84.9-25.2-166.5-61.3-242.3-107.2-107.4-65.4-203.4-150.7-277-253-42.7-59.4-78.2-124.3-103-193.3-25.2-69.2-39-142.6-39.6-216.3v-12.6c0.7-26.3 2.7-52.6 6.8-78.7 10.1-65.1 31.6-128.5 63.9-185.9 34.9-62.3 82.1-117.4 137.4-162.4 14.1-11.1 28.2-22.1 43.1-32 34.9-23.4 71.9-43.7 110.5-60.3 53.2-22.8 109.2-39 166.2-49.4 22.1-4.5 44.6-6.7 67-9.5 27-2.6 54.2-3.7 81.3-4zm-31.9 44.5c-11 34.6-21.1 69.4-31.9 104.1-4.8 16.4-10.3 32.7-14.6 49.3-3 0.3-5.9 0.1-8.9 0.1-60.4 0-120.9 0-181.3 0 11.5-38.7 23.4-77.3 35.2-115.9-77.8 25.7-151.3 65.6-213 119.7-72 62.4-127 144.5-155.7 235.5-15.6 48.6-23.7 99.6-24.7 150.7 0.5 11.4 0.4 22.7 0.9 34.1 1.9 47.4 9.8 94.4 22.9 140 20.8 73.3 54.9 142.5 97.6 205.5 8.4-26.1 16.1-52.5 24.2-78.8 26.1-85.9 52.2-171.9 78.4-257.9 24.9-82.1 49.7-164.2 74.8-246.2q95 0 190 0c-60 196.8-119.5 393.7-179.5 590.4-0.4 3.4-1.5 6.7-2.5 10-57.8-0.1-115.5 0-173.3-0.1 9.2 12.4 18.4 24.9 28.1 36.9 27.6 34.2 58 65.9 90.3 95.6 15.6 13.9 31.5 27.4 47.7 40.5 14.8 11.7 30.2 22.6 45.5 33.7 17 11.4 33.9 22.9 51.6 33.2 34.7 21.3 71.2 39.8 108.4 56.4 40.1 17.9 81.5 32.7 123.7 45 20.1 5.5 40.4 10.7 60.8 15.3 22.8 4.5 45.7 9.2 68.9 12 27.2 3.7 54.6 6.3 82.1 7.5 52.1 1.9 104.5 0.1 156-8 18.8-2.7 37.4-6 55.8-10.3 23.4-5.4 46.7-11.3 69.3-19.4 19.6-6.6 39-14 58-22.3 71.5-31.3 137.9-75.5 191.7-132.3 55.4-57.7 97.1-128.5 120.8-204.9 15.2-48.8 22.9-99.8 23.6-150.9 0-24.4-1.2-48.8-4.1-73.1-5-43.8-15.2-86.9-29.3-128.7-25.9-75.4-65-146.1-113.5-209.3-7.3 24.8-15 49.5-22.5 74.2-5.4 18.2-11.3 36.1-16.2 54.4-1.5 0.4-3.1 0.2-4.6 0.3q-46 0-92 0c-10.7 0.1-21.4-0.4-32.1 0.3-17 1.3-33.6 10.9-41.3 26.5-5.2 10.2-5.2 22.7-0.7 33.2 3.7 8.5 10.4 15.1 16.2 22.1 26.2 32 52.3 64 78.5 96 3.7 4.8 8.1 8.9 11.3 14.1 20.1 28.2 24.4 65.4 15.7 98.5-9.6 37.9-32.6 71.6-61.7 97.4-14 12.7-29.4 23.8-45.9 33-20.1 11.8-42.1 19.9-64.5 25.8-22.7 5.4-46.2 7-69.5 6.6-57.5 0-115 0-172.5 0 2.7-8.1 4.7-16.4 7.3-24.5 12.4-40.4 24.5-80.9 37-121.3q54.1 0 108.2 0c10.3-0.1 20.8 0.7 30.8-2.1 15.6-4.4 29.8-16.3 34-32.3 3.5-12.8-0.5-26.8-9.1-36.7-5.3-5.8-10.1-12-15.1-18-25.4-31.2-51.1-62.2-76.4-93.4-18.5-21-28.3-49.1-27.6-77 0.6-24 7.4-47.7 18.6-68.9 10.5-20.1 24.5-38.3 40.8-54.1 29.2-27.8 64.7-49.3 103.4-60.9 22.5-7 46.1-10.3 69.6-10.1 55.5-0.1 111 0 166.5-0.1l0.6-0.4c-12.2-14.3-24.3-28.7-37.2-42.4-26.6-29.1-55.4-56.2-85.8-81.4-62.2-51.4-131-94.8-204.2-128.7-56.4-26.5-115.4-47.1-175.9-62.1-46.2-11.8-93.5-19.1-141-23.6-38.8-2.9-77.8-4-116.7-1.8z"/>
		<path id="Layer" class="s0" d="m646 442c42.8-35.1 97.3-56.6 152.9-57 63.2-0.1 126.4 0 189.6-0.1-7.9 27.3-16.6 54.4-24.7 81.6-6.4 21.4-13.4 42.7-19.3 64.2-41.1 0.2-82.3 0-123.5 0.1-12.3 0.2-24.9 3.8-34.3 11.9-9.7 7.7-16.4 19.7-16.1 32.3 0 8.9 3.2 17.6 8.6 24.7 31 37.4 61.5 75.2 92.4 112.8 16.1 17.9 26.1 41.3 27.9 65.5 2 25.1-3.8 50.4-14.4 73.1-10 21.4-23.9 40.8-40.4 57.6-12.9 12.6-26.6 24.4-41.8 34.2-16.3 10.5-33.5 19.7-51.8 26.2-12.4 4.4-25 8.5-38 10.8-21.8 4.2-44 4.7-66.1 4.4-55.1 0-110.3 0-165.4 0 14.5-48.7 29.5-97.1 44.2-145.7 38.4-0.3 76.8 0 115.2-0.1 10.4 0.2 21.2-0.2 30.8-4.7 10.6-4.4 19.7-12.7 24.7-23.1 5.1-10.8 4.7-24-0.9-34.6-3.5-7.1-9.5-12.3-14.3-18.5-29.4-36.2-59.2-72.2-88.6-108.4-11.6-15.8-19.2-34.6-21.3-54.1-2.6-21.7 1.3-43.6 8.5-64 13.1-35.2 37-65.7 66.1-89.1z"/>
	</g>
</svg>