<svg version="1.2" xmlns="http://www.w3.org/2000/svg" viewBox="0 0 1292 1580" width="1292" height="1580">
	<title>Orix_logo-svg</title>
	<style>
		.s0 { fill: #ffffff } 
	</style>
	<g id="layer1">
		<g id="g22785">
			<path id="path22503" fill-rule="evenodd" class="s0" d="m1213.5 1575.3c2.5-7 3.6-13.1-6-26.9l-104.7-151.7-111.1 153.2c-8.3 11.2-7.2 19-4.3 25.4h-78.9c9.7-6.7 14.2-12.4 27-29.7l140.1-188.2-117.8-170.7c-10.9-16-15.3-21.4-23.5-26.2h81.4c-2.7 5.9-1.7 15.7 5.4 25.1l87.7 128.2 95.2-127.5c8.5-11.3 8.9-19.7 6.2-25.8h68.7c-7.6 5.7-10.2 9.4-22.1 25.5l-121.6 166.5 136 198.8c10.4 15.2 14.6 19.5 20.7 24zm-442.4-0.6v0.6h-72.3c-17.2-16.6-104.1-144.3-150.3-202.4-16.7-21.2-23.6-32.3-31-35.5v204c0 20.9 0.2 23.3 7.7 33.9h-67.9c6.9-10.9 7.5-14.6 7.5-33.9v-340.3c0-30.7-0.2-32.2-7.1-40.6h111.1c89.5 0 129 39.2 129 95.2 0 71.9-66.7 99-109.1 99.1v1.6c9 6.9 12.9 10.6 29.8 31.7l118.4 152.5c17.5 22 22.6 26.6 34.2 34.1zm-127.1-317.4c0-36-31.8-69.5-91.8-69.5-17.1 0-27.6 1.8-34.7 4.4v141.5c4 0.4 11.7 1.2 21.7 1.2 67.8 0 104.8-36.7 104.8-77.6zm162.4 318c6.9-10.9 7.5-14.6 7.5-33.9v-340.3c0-30.7-0.2-32.2-7.1-40.6h66.7c-6.8 8.4-7 9.9-7 40.6v340.3c0 19.3 0.6 23 7.5 33.9zm-596.2 4c-116.2 0-210.2-94.5-210.2-211.4 0-116.9 94-211.4 210.2-211.4 116.3 0 210.2 94.5 210.2 211.4 0 116.9-93.9 211.4-210.2 211.4zm153.6-211.4c0-98.7-69-178.4-154.4-178.4-85.3 0-154.3 79.7-154.3 178.4 0 98.6 69 178.3 154.3 178.3 85.4 0 154.4-79.7 154.4-178.3z"/>
			<path id="path22519" class="s0" d="m1291.9 0v42.4l-1291.9 371v-42.4zm-395.7 209.5l395.7-113.6v42.4l-350.6 100.7c-1.8 82.9-99.5 145.6-176.7 145.6-58 0-99-19.5-127.4-58.2l-637.1 182.9v-42.4l662.6-190.3c11.9 42.7 50.1 63.8 94.4 63.8 67.8 0 153.2-46.8 139.1-130.9zm117.6 62.3l278.1-79.9v42.4l-246.1 70.7c-10.3 91.6-140.8 204.3-278.8 204.3-92.2 0-163.3-40.8-179.9-72.6l-587 168.5v-42.3l593.7-170.5c23.2 41.5 91.8 73.6 167.1 73.6 138 0 256.6-109.3 252.9-194.2zm71.5 75.4l206.6-59.4v42.4l-190.8 54.9c-19 107.2-148.6 227.3-324.4 227.3-64.5 0-142.8-19.7-195.5-78l-581.1 166.8v-42.4l577.2-165.7c37.2 51.8 112.5 81.6 199.4 81.6 149 0 284.2-102.6 308.6-227.5zm32.1 86.8l174.5-50.2v42.4l-168.2 48.4c-42.8 144-174.4 224.9-314.8 224.9-82.6 0-161.6-32.9-197.6-77.7l-611.2 175.4v-42.4l595.5-171c37.4 46.5 102.2 83 204.2 83 125.3 0 281.5-70.2 317.6-232.8zm-445.3 266.2l-672 193v-42.4l643-184.7c4.4 8.5 17.7 24.9 29 34.1zm448.7-171.3l171.1-49.1v42.4l-181.4 52c4.7-14.3 8.8-34.4 10.3-45.3zm-1120.7 513.8l1291.8-371v42.4l-1291.8 371zm1085.9-407.8l206-59.1v42.4l-251.8 72.2c-41.7 40.1-104.2 77.3-191.5 77.3-18.5 0-37.1-2.4-55.1-6.3l-793.5 227.7v-42.3l727.8-209c-11.9-6.1-22.7-12.8-32.1-19.8-2.8-2-0.5-3.8 2.1-2.5 27.8 13.8 68.9 24.9 115 24.9 198.9 0 281.7-130.6 289.8-145.5 1.8-3.3 4.5-1.6 3.7 1.2-1.8 5.7-8.5 20.3-20.4 38.8z"/>
		</g>
	</g>
</svg>