<svg version="1.2" baseProfile="tiny-ps" xmlns="http://www.w3.org/2000/svg" viewBox="0 0 1656 296" width="1656" height="296">
	<title>jazz-pharmaceuticals-logo-pdf-svg</title>
	<defs>
		<clipPath clipPathUnits="userSpaceOnUse" id="cp1">
			<path d="M-25.02 -705.85L1681.02 -705.85L1681.02 1001.85L-25.02 1001.85L-25.02 -705.85Z" />
		</clipPath>
	</defs>
	<style>
		tspan { white-space:pre }
		.shp0 { fill: #851c66 } 
		.shp1 { fill: #ffcc00 } 
	</style>
	<g id="Clip-Path: Page 1" clip-path="url(#cp1)">
		<g id="Page 1">
			<path id="Path 1" fill-rule="evenodd" class="shp0" d="M419.14 78.22L404.89 78.22L404.89 160.38C404.89 176.31 402.93 184.72 389.97 184.72C380.39 184.72 376.66 178.23 376.66 168.81L376.66 160.38L363.02 160.38L363.02 169.96C363.02 183.92 370.85 196.42 390.14 196.42C413.99 196.42 419.14 181.46 419.14 160.85M446.68 133.44L446.68 132.62C446.68 129.53 446.68 115.58 461.6 115.58C470.69 115.58 475.54 120.29 475.54 128.41C475.54 135.69 475.54 138.46 465.67 141.58L447.32 147.06C436.16 150.49 430.96 158.93 430.96 171.11C430.96 186.71 438.41 196.42 454.65 196.42C462.76 196.42 471.18 191.72 475.54 183.9L475.91 183.9C476.54 195.13 483.05 195.13 488.21 195.13C491.64 195.13 495.2 194.47 496.14 194.31L496.14 184.58C495.5 185.07 494.66 185.39 492.96 185.39C488.7 185.39 488.7 181.97 488.7 178.42L488.7 129.88C488.7 120.76 488.7 104.86 462.25 104.86C441.48 104.86 433.07 113.62 433.07 133.44L446.68 133.44ZM475.08 169.15C475.08 178.1 466.49 185.69 457.56 185.69C448.3 185.69 445.2 179.52 445.2 170.77C445.2 163.15 447.47 159.73 451.87 156.98C458 153.25 470.04 152.1 475.08 146.75L475.08 169.15ZM505.16 118.82L542.66 118.82L503.24 183.44L503.24 194.15L557.21 194.15L557.21 182.45L518.63 182.45L557.56 118.47L557.56 107.12L505.16 107.12L505.16 118.82ZM566.54 118.82L604.02 118.82L564.58 183.44L564.58 194.15L618.61 194.15L618.61 182.45L580.01 182.45L618.93 118.47L618.93 107.12L566.54 107.12L566.54 118.82ZM665.37 194.16L679.64 194.16L679.64 145.12L697.34 145.12C716.95 145.12 730.78 133.12 730.78 111.5C730.78 78.22 704.98 78.22 694.93 78.22L665.37 78.22L665.37 194.16ZM679.64 89.9L695.71 89.9C709.85 89.9 715.84 98.18 715.84 110.87C715.84 126.29 707.1 133.43 696.69 133.43L679.64 133.43L679.64 89.9ZM741.74 194.16L755.38 194.16L755.38 134.1C755.38 121.42 765.31 116.54 772.59 116.54C784.87 116.54 785.42 127.43 785.42 134.1L785.42 194.16L799.03 194.16L799.03 132.44C799.03 122.23 799.03 104.86 776.67 104.86C768.86 104.86 759.31 109.87 755.71 117.03L755.38 117.03L755.38 78.22L741.74 78.22L741.74 194.16ZM825.13 133.44L825.13 132.62C825.13 129.53 825.13 115.58 840.09 115.58C849.15 115.58 854.02 120.29 854.02 128.41C854.02 135.69 854.02 138.46 844.13 141.58L825.8 147.06C814.59 150.49 809.42 158.93 809.42 171.11C809.42 186.71 816.89 196.42 833.11 196.42C841.22 196.42 849.64 191.72 854.02 183.9L854.35 183.9C855.01 195.13 861.46 195.13 866.65 195.13C870.07 195.13 873.67 194.47 874.62 194.31L874.62 184.58C873.94 185.07 873.19 185.39 871.38 185.39C867.17 185.39 867.17 181.97 867.17 178.42L867.17 129.88C867.17 120.76 867.17 104.86 840.74 104.86C819.95 104.86 811.53 113.62 811.53 133.44L825.13 133.44ZM853.55 169.15C853.55 178.1 844.94 185.69 835.98 185.69C826.79 185.69 823.7 179.52 823.7 170.77C823.7 163.15 825.94 159.73 830.34 156.98C836.52 153.25 848.53 152.1 853.55 146.75L853.55 169.15ZM885.64 194.15L899.26 194.15L899.26 139.12C899.26 124.64 910.29 118.47 917.1 118.47C921.48 118.47 923.11 118.98 924.44 119.13L924.44 105.83C923.11 105.16 921.17 104.86 918.41 104.86C908.67 104.86 903.48 111.84 899.6 120.12L899.26 120.12L899.26 107.12L885.64 107.12L885.64 194.15ZM937.07 194.15L950.7 194.15L950.7 134.09C950.7 120.44 960.58 116.54 966.89 116.54C978.11 116.54 978.6 127.42 978.6 134.09L978.6 194.15L992.19 194.15L992.19 134.09C992.19 120.44 1002.11 116.54 1008.43 116.54C1019.6 116.54 1020.1 127.42 1020.1 134.09L1020.1 194.15L1033.7 194.15L1033.7 132.44C1033.7 122.2 1033.7 104.86 1010.87 104.86C1001.95 104.86 994.15 111.03 990.26 118.64C987.5 108.73 981.49 104.86 971.46 104.86C962.98 104.86 953.89 109.41 950.37 117.35L950 117.35L950 107.12L937.07 107.12L937.07 194.15ZM1061.15 133.44L1061.15 132.62C1061.15 129.53 1061.15 115.58 1076.05 115.58C1085.15 115.58 1090 120.29 1090 128.41C1090 135.69 1090 138.46 1080.12 141.58L1061.78 147.06C1050.57 150.49 1045.42 158.93 1045.42 171.11C1045.42 186.71 1052.88 196.42 1069.1 196.42C1077.22 196.42 1085.64 191.72 1090 183.9L1090.32 183.9C1091 195.13 1097.5 195.13 1102.66 195.13C1106.06 195.13 1109.65 194.47 1110.62 194.31L1110.62 184.58C1109.96 185.07 1109.18 185.39 1107.35 185.39C1103.14 185.39 1103.14 181.97 1103.14 178.42L1103.14 129.88C1103.14 120.76 1103.14 104.86 1076.72 104.86C1055.97 104.86 1047.5 113.62 1047.5 133.44L1061.15 133.44ZM1089.51 169.15C1089.51 178.1 1080.94 185.69 1072.01 185.69C1062.76 185.69 1059.68 179.52 1059.68 170.77C1059.68 163.15 1061.96 159.73 1066.31 156.98C1072.5 153.25 1084.48 152.1 1089.51 146.75L1089.51 169.15ZM1173.85 133.6C1173.85 123.51 1169.81 104.86 1146.14 104.86C1119.36 104.86 1115.15 130.02 1115.15 151.79C1115.15 181.65 1124.09 196.42 1145.3 196.42C1167.03 196.42 1173.85 177.74 1173.85 163.95L1160.22 163.95C1160.22 173.35 1157.64 185.69 1145.97 185.69C1129.58 185.69 1129.4 162.97 1129.4 151.61C1129.4 119.8 1138.03 115.58 1146.44 115.58C1156.8 115.58 1160.22 125.16 1160.22 133.6L1173.85 133.6ZM1245.07 152.27L1245.07 146.72C1245.07 128.04 1242.63 104.86 1216.06 104.86C1189.27 104.86 1185.08 130.02 1185.08 151.79C1185.08 181.65 1193.99 196.42 1215.24 196.42C1238.93 196.42 1244.43 174.83 1244.43 165.59L1230.81 165.59C1230.81 172.06 1228.99 185.69 1216.06 185.69C1199.33 185.69 1199.33 165.59 1199.33 152.27L1245.07 152.27ZM1199.82 141.57L1199.82 138.3C1199.82 133.1 1201.44 115.58 1215.69 115.58C1227.74 115.58 1230.81 127.1 1230.81 136.82L1230.81 141.57L1199.82 141.57ZM1314.02 107.15L1300.39 107.15L1300.39 167.19C1300.39 179.85 1290.49 184.73 1283.21 184.73C1270.89 184.73 1270.38 173.85 1270.38 167.19L1270.38 107.15L1256.75 107.15L1256.75 168.81C1256.75 179.03 1256.75 196.42 1279.62 196.42C1288.09 196.42 1297.2 191.89 1300.7 183.92L1301.04 183.92L1301.04 194.16L1314.02 194.16L1314.02 107.15ZM1337.11 107.15L1324.4 107.15L1324.4 117.83L1337.11 117.83L1337.11 177.9C1337.11 189.28 1340.5 195.13 1354.59 195.13C1360.27 195.13 1363.82 194.47 1365.64 194.16L1365.64 182.97C1364.18 183.12 1362.55 183.44 1359.59 183.44C1352.46 183.44 1350.69 180.69 1350.69 173.7L1350.69 117.83L1365.78 117.83L1365.78 107.15L1350.69 107.15L1350.69 81.78L1337.11 81.78L1337.11 107.15ZM1378.27 194.15L1391.87 194.15L1391.87 107.12L1378.27 107.12L1378.27 194.15ZM1378.27 93.79L1391.87 93.79L1391.87 78.22L1378.27 78.22L1378.27 93.79ZM1463.29 133.6C1463.29 123.51 1459.26 104.86 1435.57 104.86C1408.81 104.86 1404.57 130.02 1404.57 151.79C1404.57 181.65 1413.51 196.42 1434.76 196.42C1456.51 196.42 1463.29 177.74 1463.29 163.95L1449.71 163.95C1449.71 173.35 1447.08 185.69 1435.41 185.69C1419.04 185.69 1418.85 162.97 1418.85 151.61C1418.85 119.8 1427.46 115.58 1435.9 115.58C1446.25 115.58 1449.71 125.16 1449.71 133.6L1463.29 133.6ZM1490.04 133.44L1490.04 132.62C1490.04 129.53 1490.04 115.58 1504.91 115.58C1514.02 115.58 1518.88 120.29 1518.88 128.41C1518.88 135.69 1518.88 138.46 1508.97 141.58L1490.63 147.06C1479.45 150.49 1474.29 158.93 1474.29 171.11C1474.29 186.71 1481.76 196.42 1497.92 196.42C1506.04 196.42 1514.51 191.72 1518.88 183.9L1519.19 183.9C1519.83 195.13 1526.32 195.13 1531.52 195.13C1534.93 195.13 1538.48 194.47 1539.47 194.31L1539.47 184.58C1538.82 185.07 1538.02 185.39 1536.2 185.39C1531.99 185.39 1531.99 181.97 1531.99 178.42L1531.99 129.88C1531.99 120.76 1531.99 104.86 1505.55 104.86C1484.83 104.86 1476.4 113.62 1476.4 133.44L1490.04 133.44ZM1518.38 169.15C1518.38 178.1 1509.78 185.69 1500.88 185.69C1491.63 185.69 1488.55 179.52 1488.55 170.77C1488.55 163.15 1490.79 159.73 1495.19 156.98C1501.33 153.25 1513.36 152.1 1518.38 146.75L1518.38 169.15ZM1551.29 194.15L1564.93 194.15L1564.93 78.22L1551.29 78.22L1551.29 194.15ZM1633.36 132.62C1633.23 122.36 1632.23 104.86 1606.91 104.86C1591.83 104.86 1579.18 112.63 1579.18 128.89C1579.18 146.88 1590.07 149.98 1600.61 153.57C1611.11 157.14 1621.86 159.57 1621.86 171.27C1621.86 183.6 1611.77 185.69 1607.4 185.69C1594.14 185.69 1591.17 176.11 1591.17 165.59L1577.54 165.59C1577.54 174.48 1577.9 196.42 1607.4 196.42C1623.64 196.42 1635.52 187.5 1635.52 169.15C1635.52 151.95 1624.76 148.19 1614.22 144.62C1603.52 141.04 1592.81 139.12 1592.81 128.89C1592.81 116.69 1602.56 115.58 1606.91 115.58C1616.82 115.58 1619.75 121.58 1619.75 132.62L1633.36 132.62ZM0.52 148.01C0.52 209.08 37.56 261.4 90.36 283.89L90.36 147.37C90.36 146.67 90.36 145.93 90.43 145.2C91.99 120.87 117.11 101.49 147.87 101.49C149.27 101.49 150.64 101.56 152.02 101.62L152.88 101.68C154.23 101.81 155.59 101.9 156.93 102.09L157.01 102.09C158.48 102.3 159.9 102.51 161.26 102.77L161.43 102.8C170.14 104.48 178.07 107.78 184.71 112.24L184.71 4.95C173 1.92 160.74 0.31 148.1 0.31C66.62 0.31 0.52 66.45 0.52 148.01Z" />
			<path id="Path 2" class="shp1" d="M205.41 11.93L205.41 147.56C205.41 172.99 179.65 193.62 147.87 193.62C137.07 193.62 126.99 191.2 118.38 187.05L118.38 164.84C124.95 171.99 135.53 176.7 147.47 176.89C167.78 177.21 184.46 164.43 184.74 148.33C185 132.22 168.76 118.94 148.43 118.57C128.11 118.26 111.43 131.05 111.15 147.13L111.21 147.9L111.21 182.97L111.15 182.92L111.21 291.01C122.99 294.06 135.35 295.69 148.1 295.69C229.61 295.69 295.65 229.6 295.65 147.98C295.65 86.8 258.39 34.36 205.41 11.93Z" />
			<path id="Path 3" fill-rule="evenodd" class="shp0" d="M1646.9 111.75C1642.2 111.75 1638.35 107.9 1638.35 103.16C1638.35 98.43 1642.2 94.61 1646.9 94.61C1651.64 94.61 1655.48 98.43 1655.48 103.16C1655.48 107.9 1651.64 111.71 1646.9 111.75ZM1646.9 95.6C1642.73 95.6 1639.34 99 1639.36 103.2C1639.36 107.33 1642.73 110.75 1646.9 110.72C1651.08 110.72 1654.49 107.33 1654.49 103.16C1654.49 99 1651.08 95.6 1646.9 95.6ZM1643.72 98.18L1647.94 98.18C1649.41 98.18 1650.8 98.47 1650.96 100.61C1651 101.82 1650.6 102.28 1649.7 102.97C1650.7 103.58 1650.7 103.73 1650.83 105.38C1650.96 106.61 1650.78 106.82 1651.29 107.62L1649.86 107.62L1649.65 106.45C1649.43 105.33 1649.99 103.58 1648.06 103.58L1644.93 103.58L1644.93 107.62L1643.72 107.62L1643.72 98.18ZM1644.93 99.26L1644.93 102.51L1647.98 102.51C1648.8 102.51 1649.6 102.29 1649.7 101.1C1649.9 99.48 1648.71 99.26 1647.98 99.26L1644.93 99.26Z" />
		</g>
	</g>
</svg>