<svg version="1.2" xmlns="http://www.w3.org/2000/svg" viewBox="0 0 1549 695" width="1549" height="695">
	<title>jbhifi-svg</title>
	<style>
		.s0 { fill: #ffffff } 
	</style>
	<g id="jbLogo">
		<path id="Layer" fill-rule="evenodd" class="s0" d="m1458.5 694.1h-626.5v-694.1h637.6c11.3 1.8 22.2 5.7 32.1 11.4 10 5.7 18.8 13.1 26 22 7.2 8.9 12.8 19 16.4 29.8 3.6 10.9 5.2 22.3 4.7 33.7v149.6c0 0 1 83.5-67.2 80.6 9.8 2 19.1 5.7 27.6 10.9 8.5 5.3 15.9 12 22 19.9 6.2 7.8 10.8 16.7 13.8 26.2 3 9.5 4.3 19.5 3.8 29.4v170c0 0-2.1 110.6-90.3 110.6zm-218.7-568.2h-122.9v145h123.9c0-0.2 69.1-64.4-1-145zm0 283.2h-122.9v144.8h123.9c0 0 69.1-64.2-1-144.8zm-531.6 152.1c0 0 8.6 114.6-72.1 131.2h-542.9c-13-2.7-25.5-7.6-36.8-14.4-11.4-6.9-21.5-15.7-30-26-8.4-10.2-15-21.9-19.5-34.4-4.5-12.5-6.8-25.7-6.9-38.9 0-94.2 0-216.6 0-216.6h293.9v149.4c1.2 4.7 3.3 9.2 6 13.2 2.8 3.9 6.3 7.4 10.3 10.1 4 2.8 8.5 4.8 13.2 6 4.7 1.2 9.6 1.5 14.4 0.9q6.6 0.7 13.2 1 6.6 0.3 13.2 0.3 6.6 0 13.1-0.3 6.6-0.3 13.2-1c4.2-0.1 8.4-1 12.3-2.6 3.9-1.6 7.5-3.8 10.7-6.6 3.1-2.8 5.7-6.2 7.7-9.9 2-3.7 3.3-7.7 3.9-11.9v-510.7h283.3v561.9z"/>
	</g>
</svg>