<svg version="1.2" xmlns="http://www.w3.org/2000/svg" viewBox="0 0 1524 1317" width="1524" height="1317">
	<title>jefferies-svg</title>
	<style>
		.s0 { fill: #ffffff } 
	</style>
	<path id="Layer" fill-rule="evenodd" class="s0" d="m1402.3 1042.5l115.2 83c-17.9 28.7-39.4 55.1-63.9 78.5-24.5 23.4-51.8 43.6-81.4 60.2-29.5 16.6-61 29.4-93.7 38.2-32.8 8.7-66.5 13.4-100.3 13.7-238.2 0-380.5-180-380.5-481.3 0-355.5 203.2-481.4 377.1-481.4 224.7 0 348.5 172.7 348.5 486.5v47.5h-542.2v7.9c8.8 174.8 81.8 271.2 205.9 271.2 100.9 0 159.6-49.8 215.3-124zm-420.3-281.6h368.6v-8.2c-9.4-165.8-67.5-246.3-177.6-246.3-62.7 0-170.6 33.1-190.1 246zm-539.8-760.6h193.4v992c0 208.9-114.3 323.8-323.3 323.8-27.6 0-55.2-2.1-82.6-6.2-27.3-4.1-54.3-10.2-80.7-18.4-26.5-8.1-52.3-18.2-77.2-30.2-24.9-11.9-48.9-25.7-71.8-41.3l80.3-139.2c15.4 10.6 31.5 20.2 48.2 28.6 16.7 8.5 34 15.7 51.7 21.8 17.7 6 35.9 10.8 54.2 14.3 18.4 3.5 37 5.8 55.7 6.7 70 0 152.1-29.8 152.1-172.4z"/>
</svg>