<svg version="1.2" xmlns="http://www.w3.org/2000/svg" viewBox="0 0 1585 267" width="1585" height="267">
	<title>Jet2Logo-svg</title>
	<style>
		.s0 { fill: #e2231a } 
	</style>
	<path id="Layer" class="s0" d="m217.7 9.8c0 0-5.6 24.2-12.4 55.9l-5.9 6.9-32-2 15.3-36.9h-6.8l-26.4 36.6c0 0-6.9 0.3-9.8 0.3-0.7 0.3-1.7 0.3-3 0.3 0.7-3.9 1-7.5 1.7-10.4 1.9-11.5 6.2-29.5 14-38.9 7.8-9.2 21.5-11.5 33.3-11.8 11.7-0.3 32 0 32 0zm-18.3 70.3l2.3 2.6c-2.6 11.8-5.2 24.2-7.9 36.6-8.8 42.2-14.6 81-26.1 97.4-22.8 32.7-49.2 42.1-89.1 42.1-52.2 0-78.6-31.3-78.6-55.5 0-26.8 2.6-52 2.6-52l60.7 0.3c0 0-2.3 26.2-2.3 41.2 0 8.2 10.5 13.4 21.9 13.4 35.2 0 34.6-29.1 42.7-70.2 4.3-21.3 7.5-40.6 9.8-55.3 1.7 0.4 3.3 0.4 4.6 0.4 2.6 0.3 9.8 0.3 9.8 0.3l26.4 36.6h6.9l-15.4-36.6z"/>
	<path id="Layer" fill-rule="evenodd" class="s0" d="m435.3 65c0 0 3-17.3 7.5-31 3.6-11.1 11.8-23.2 22.2-24.5 7.5-1 39.2 0 39.2 0l-12.4 55.9 39.5-0.4-6.2 33.7h-41.1c0 0-22.6 85.3-17.7 103.3 2 8.2 18 7.5 18 7.5l17.9-0.3-8.5 44.7c0 0-29.3 0.7-53.5-0.6-11.7-0.7-26.4-7.9-32-19.9-7.5-16.7 3.3-61.5 6.9-78.8 4.9-22.9 11.7-54.9 11.7-54.9h-32.9l8.8-34.3zm73.4 189.5c0 0 4.6-34.3 21.9-56.5 22.8-29.8 77-53.6 94-61.8 31.3-14.7 49.9-34 49.9-51.3 0-12.1-9.8-30.7-33-30.7-23.1 0-43 19.6-45.3 45.4-6.5 0-16 0-31 0-6.5 0-28.4 0-28.4 0 0 0 8.5-46.4 35.9-67 21.9-16.3 38.5-23.5 68.8-24.5 34.3-1.3 66.9 10.8 81.6 34.3 14.4 22.9 18.3 60.2-2.9 84-18.9 20.9-38.2 32.4-55.2 42.2-22.8 13.4-53.8 29.1-62.6 33.3-7.5 3.6-6.5 7.5-6.5 7.5h99.2c15 0 22.8-5.9 22.8-5.9 0 0 6.5 21-3.9 34.7-3.6 4.9-14 16.3-32.3 16.3zm237.2 0l10.5-61.7 68.8-0.4-10.7 62.1zm297.9-69.3c0 59.2-58.7 73.9-63.3 75.5-12.1 3.6-29.4 5.3-46.7 5.3-36.5 0-81.2-31.4-81.2-83.4 0-71.2 43.7-125.5 119.7-122.9 79 3 80.6 64.1 80 75.5h-60.4c0-4.5 1.3-29.1-30-29.1-37.2 0-50.9 33.7-50.9 71.6 0 27.8 17.6 41.9 39.2 41.9 8.1 0 13.3-2.3 18.6-5.6 15-9.8 14.6-23.2 14.3-28.8zm99.2 79.8c-49.6 0-82.5-32.4-82.5-80.4 0-67.3 46.9-122.9 115.8-122.9 52.5 0 82.6 35.9 82.6 80.4 0 70.9-49 122.9-115.6 122.9zm7.9-43.8c31 0 48.9-45.8 48.9-78.8 0-18.3-7.8-36.9-30.6-36.9-33 0-49.7 47.7-49.7 78.1 0 22.6 11.5 37.9 31 37.9h0.4zm112.6 37.6l25.4-128.1c4.9-24.2 7.8-44.5 10.5-61.8h51.2l-3.6 31.1h1c18.6-24.5 43.1-35.3 69.2-35.3 32.3 0 46.3 19.2 47.9 35.9 18.3-24.5 43.4-35.9 69.9-35.9 31 0 49.3 18.9 49.3 51.3 0 7.8-1.7 22.9-3.3 32.7l-21.9 110.1h-58.1l20.3-103.6c1.6-7.5 2.9-15.7 2.9-22.9 0-13.1-6.2-22.5-19.9-22.5-19.9 0-39.8 24.8-47.6 63l-17 85.7h-57.5l21.3-104.3c1.3-7.5 2.6-14.7 2.6-21.2 0-13.1-4.6-23.2-19-23.2-20.2 0-41.4 26.4-48.3 63.7l-16.9 85.3zm-868.7-120.6c-2.3 35.3-2.3 37.9-2.3 37.9h-134.5c0 0-9.8 45.1 34.3 44.1 31-0.6 31.7-20.9 31.7-20.9h60.6c0 0-18.2 64.4-94.6 61.8-65.9-2-79.3-30.7-86.5-46.1-7.1-15.4-2.3-90.2 24.2-118.3 24.8-26.5 48-31.4 76.7-32.4 58.4-2.2 93.6 35.7 90.4 73.9zm-89.8-36.9c-36.9 0-42.7 38.2-42.7 38.2l75.4-0.3c0 0 1.3-37.9-32.7-37.9zm443-73.2c-7.6 0-13.8-6.3-13.8-14.1 0-7.8 6.2-14 13.8-14 7.7 0 13.9 6.2 13.9 14 0 7.8-6.2 14.1-13.9 14.1zm11.6-13.9c0-6.6-5-12-11.2-12-6.3 0-11.3 5.4-11.3 12 0 6.6 5 11.9 11.3 11.9 6.2 0 11.2-5.3 11.2-11.9zm-17 8v-15.7c1.3-0.3 2.7-0.3 4.6-0.3 2.3 0 3.9 0.6 4.9 1.3 1 0.6 1.3 1.6 1.3 3.2 0 2-1.3 3.3-2.9 4 1.3 0.3 2.3 1.6 2.6 3.9 0.3 2.3 0.6 3.3 1 3.9h-2.6q-0.5-1-1-3.9c-0.4-2-1.3-2.6-3.3-2.6h-1.6v6.2zm2.6-8.8h1.9c2 0 4-0.7 4-2.7 0-1.3-1-2.6-4-2.6q-0.9 0-1.9 0z"/>
</svg>