<svg version="1.2" xmlns="http://www.w3.org/2000/svg" viewBox="0 0 1534 1532" width="1534" height="1532">
	<title>adamas-one-logo-svg</title>
	<style>
		.s0 { fill: #000000 } 
		.s1 { fill: #ed87b1 } 
		.s2 { fill: #e7649b } 
		.s3 { fill: #b43d73 } 
		.s4 { fill: #c1c1c0 } 
		.s5 { fill: #fefefe } 
		.s6 { fill: #959493 } 
		.s7 { fill: #a9a8a8 } 
	</style>
	<g id="Layer_1-2">
		<path id="Layer 1" class="s0" d="m1 0h1532.1v1532h-1532.1z"/>
		<g id="Layer">
			<path id="Layer" class="s1" d="m254 512.4h565.4l108.4 108.3h-629.8z"/>
			<path id="Layer" class="s2" d="m766.7 1531.3l-738.2-737.8h152.3l585.9 582.6z"/>
			<path id="Layer" class="s3" d="m1505 793.5l-738.3 737.8v-155.2l585.9-582.6z"/>
			<path id="Layer" class="s2" d="m1279.4 512.4l225.6 225.4h-152.4l-225.6-225.4z"/>
			<path id="Layer" class="s4" d="m766.7 0v152.2l-307.6 307.5h-152.3z"/>
			<path id="Layer" class="s5" d="m766.7 0l459.9 459.7h-155.2l-304.7-307.5z"/>
			<path id="Layer" fill-rule="evenodd" class="s5" d="m766.7 380.6l-76.2 76.1h-152.3l228.5-228.3zm-536.1 383.5l90.8-90.7h152.3l-90.8 90.7z"/>
			<path id="Layer" class="s6" d="m766.7 1300l-536.1-535.8h152.3l383.8 383.5z"/>
			<path id="Layer" class="s7" d="m1302.8 764.2l-536.1 535.8v-152.3l383.8-383.5z"/>
			<path id="Layer" class="s4" d="m766.7 228.4l536.1 535.8h-152.3l-383.8-380.6z"/>
			<path id="Layer" class="s2" d="m298 620.7l-117.2 117.1h-152.3l225.5-225.4z"/>
		</g>
	</g>
</svg>