<svg version="1.2" xmlns="http://www.w3.org/2000/svg" viewBox="0 0 1569 1039" width="1569" height="1039">
	<title>j-j-snack-foods-logo-black-and-white-svg</title>
	<style>
		.s0 { fill: #ffffff } 
	</style>
	<g id="#ffffffff">
		<path id="Layer" fill-rule="evenodd" class="s0" d="m660.1 41.1c10.1-22.4 33.3-38.5 57.7-40.8 77.4 0 154.9-0.1 232.3 0.1 14.7-0.1 27.9 14.5 25.6 29.1-2.2 14.4-9.2 27.6-14.1 41.2-3 6.4-4.5 14.3-10.8 18.4-16.6 12-31.6 27.6-38 47.4-6.1 20.7-8.2 42.5-6.5 64-40.7 14.4-80.9 40-98.2 81.2-10.5 25.7-27.7 51.6-22.7 80.6 3 25.8 16.6 49.3 35.1 67.3-9.4 26.1-20.3 51.7-30.1 77.8-44.1 2.2-92.4-7.8-131.8 17.7-23.4 13.3-32.8 39.5-44.7 62.1-30.5 59.1-49.2 125.3-48.1 192.2 2.3 45.5 12.4 90.5 29.8 132.6-40.1 43.4-88.6 79.6-144.1 100.8-51.9 20.3-108.3 27.5-163.9 26-69.9-2.4-142.3-20.4-197.5-65.3-41.3-32.8-70.7-80-82.3-131.3-14-60-6.4-123.3 13.9-181 10.8-32.6 27.3-63 43.9-93 11.2-19.6 33.9-32.2 56.5-31.3 74.8 0.2 149.7-0.2 224.5 0.2 9.3-0.4 15.5 8.1 19.9 15.1 3.6 17.1-6 32.5-11.1 48.1-14.1 39.8-31.1 78.6-44 118.8-3.5 13.3-7.2 30 3.1 41.3 9.2 9.6 23.8 6 35.7 5.8 15.8-1.9 24.7-16.6 30.6-29.8 94.6-231.1 185.7-463.7 279.3-695.3zm597.4-9.3c13.2-19.2 36.2-32.9 59.9-31.6 76.1 0.3 152.1-0.2 228.2 0.2 17.4 2.4 27.5 22.5 20.7 38.4-76.9 196.5-154 393-231 589.5-27.4 68.2-50.8 138.5-88.4 202-35.5 60-82.4 114.5-142 151.6-52.4 33.5-113.9 51.7-175.8 55.8-56.7 3.9-114.8-1.1-168.5-20.7-46.3-16.4-88.5-45.2-118.3-84.5-34-43.2-45.2-99.1-48.8-152.7-1.7-68.1 20.1-134.7 52-194.3 7-11.2 10.9-25.1 22.1-33 16.4-12.2 37.3-18.3 57.8-17.5 20.9 0.3 41.9-0.8 62.7 1.8 50.3 0.5 100.5-0.1 150.8 0.3 15.9 0.4 23.9 18.8 19.8 32.6-14.7 42.8-31.8 84.8-47.5 127.3-5.6 15.8-12.2 32.2-10.9 49.4 0.9 11.8 11.8 21.8 23.8 20.4 15.1 1.4 33-1.5 41.4-15.8 11.3-19.3 17.8-41 26.8-61.4 30.5-74 59.8-148.3 89.7-222.5 49.6-0.5 99.1 1.1 148.5-0.8-1.3-11.5-7.6-21.2-12.5-31.3-11.1-23.4-21.3-47.2-33.3-70.2 37.7-32.6 66.1-74.4 89.5-118 4-5.7 2.9-12.8 3.6-19.3-27.1-6.8-55.4-0.4-82.9-4 16.7-26.3 35.3-52.6 42.1-83.6 3.6-14.6-0.9-29.7-7.5-42.7 9.8-21.6 16.2-44.8 28-65.4zm-214.8 61.6c33.3-10.4 72.3-17.9 104.2 0.8 20.7 10.7 36.5 33 34.9 56.9 0.7 21.2-9.2 42.1-24.4 56.5-21.7 22.6-51.4 35-80.3 45.5 5.9 11.3 12.3 22.4 18.6 33.6 12.4-11.3 25.6-21.9 37.9-33.4 9.9-9.4 24.5-6.3 36.9-6.8 17 0.7 34.5-2.4 50.8 4.1-1.1 10.2-6.7 18.9-12.1 27.5-19.3 29.6-44.4 55.4-73.5 75.4 9.5 17.9 20 35.3 30 52.9 3.5 4.7 2.8 10.7 3 16.3-32.4 0.7-64.7 0.1-97.1 0.4-3.2-4.4-6.4-8.8-9.4-13.2-29.9 16.4-64.6 20.2-98 22.3-36.7-1.1-76.6-3.7-106.5-27.3-20-14.9-28.7-42.2-21.7-66 6-20.2 14.1-40.5 28.8-56 22.3-25.5 53.4-41.4 85.2-51.7-15.1-21.2-4.4-47.4 4.3-68.8 17.3-34.8 53-55.9 88.4-69zm-3 74.6c-9.2 12.6 3.5 26.2 9.8 37 15.4-6.4 32-13.1 42.5-26.7 6.3-6.6 3.2-17.8-3.9-22.6-16.3-7.2-37.6-1.8-48.4 12.3zm-96.8 157.1c-3.7 8.1 0.9 19.5 9.7 21.9 22.7 8.9 46.5-0.9 67.7-9.1-9.6-16.8-19.1-33.6-29.3-50-18.3 8.1-42.3 15.4-48.1 37.2z"/>
	</g>
</svg>