<svg version="1.2" xmlns="http://www.w3.org/2000/svg" viewBox="0 0 1360 1579" width="1360" height="1579">
	<title>jinko-solar-logo-vector-svg</title>
	<style>
		.s0 { fill: #2eab48 } 
	</style>
	<path id="Layer" fill-rule="evenodd" class="s0" d="m556.1 1157.2c-26.6 152.1-171.3 274.6-323.5 274.6-152.1 0-254-124-227.4-274.6 26.5-152.1 171.3-274.7 322-274.7 153.6-1.5 255.5 122.6 228.9 274.7zm336.8-1154.9c0 0-130 657.2-192 968.8-48.8 242.2-122.6 511-416.6 530.2-10.3 1.4-22.1 1.4-35.4 1.4-82.7 0-162.5-25.1-226-70.9 60.5 73.9 156.6 116.7 261.4 134.4 192 35.5 419.5-7.4 551-87.1 236.3-140.3 305.7-370.7 354.5-620.2 42.8-212.7 169.8-858 169.8-858h-466.7z"/>
</svg>