<svg version="1.2" xmlns="http://www.w3.org/2000/svg" viewBox="0 0 1561 719" width="1561" height="719">
	<title>Johnson_Matthey _Logo_blue-svg</title>
	<style>
		.s0 { fill: #ffffff } 
	</style>
	<g id="JM_Logo">
		<path id="Path_287" fill-rule="evenodd" class="s0" d="m454.7 0.3h119v419c-2.8 165-131.3 299.1-292.6 299.1-18 0-36-1.7-53.7-5.1-17.7-3.4-35.1-8.4-51.9-15-16.8-6.7-32.9-14.9-48.2-24.5-15.2-9.6-29.5-20.7-42.7-33-10-9.3-19.4-19.2-28-29.8-8.6-10.5-16.5-21.6-23.6-33.3-7.1-11.6-13.5-23.7-18.9-36.2-5.5-12.5-10.1-25.3-13.8-38.4l114.3-33.7c5 18.1 12.9 35.3 23.5 50.9 10.5 15.6 23.5 29.4 38.4 40.8 14.9 11.4 31.6 20.3 49.4 26.3 17.8 6.1 36.4 9.2 55.2 9.3 23-0.3 45.8-5 66.9-14.1 21.2-9.1 40.4-22.2 56.5-38.7 16.1-16.4 28.8-35.9 37.4-57.3 8.7-21.4 13-44.3 12.8-67.3zm671.9 578.7l-314.5-578.7h-119.5v706.7h119.5v-457l248.1 457h132.8l248.1-457v457h119.5v-706.7h-119.5z"/>
	</g>
</svg>