<svg version="1.2" baseProfile="tiny-ps" xmlns="http://www.w3.org/2000/svg" viewBox="0 0 1224 1707" width="1224" height="1707">
	<title>cdea5764-1804-4a2b-b18e-a9b29dacf440 (1) (1)-svg</title>
	<style>
		tspan { white-space:pre }
		.s0 { fill: #0061aa } 
		.s1 { fill: #ffffff } 
	</style>
	<g id="#0061aaff">
		<path id="Layer" fill-rule="evenodd" class="s0" d="m491.52 0.31c62.45 0 124.85-0.05 187.24 0.05c-0.11 19.43 0 38.87-0.05 58.35c17.74 0 35.42-0.05 53.16-0.05c-0.11-19.43 0-38.87-0.05-58.35c63.3 0 126.55 0 189.84 0c-0.05 19.43 0.05 38.87-0.11 58.25c19.54 0.21 39.08 0.11 58.63 0.32c-0.27 40.62-0.05 81.29-0.05 121.96c60.64 0 121.24-0.05 181.88 0.05c-0.11 19.43-0.05 38.87-0.05 58.3c20.34 0.05 40.68 0.05 61.07 0.11c1.06 141.61-1.96 283.11-1.33 424.71c0 104.33-0.05 208.72 0 313.05c-19.54-0.05-39.03 0.05-58.57 0c0.05 162.1-0.37 324.15 0.21 486.25c-19.28-4.09-39.03-2.92-58.57-2.87c-0.21 21.24-0.05 42.48-0.11 63.72c-19.6-0.05-39.19 0-58.79 0.05c-0.11 21.13-0.05 42.32 0 63.45c-22.83 0-45.67-0.11-68.45 0.11c0.21 17.73-0.27 35.47 0.05 53.2c-38.98-0.05-77.9 0.05-116.88 0c0 21.98-0.48 43.96 0.96 65.89c-30.32-3.29-60.86-1.54-91.23-1.86c-113.22-0.32-226.43 0.42-339.65-0.27c-0.27-21.45 0.27-43.06-3.4-64.3c-39.62 2.65-79.71-3.08-119 3.4c0.37-18.69 0.21-37.43 0.27-56.18c-20.5-0.05-41-0.05-61.49 0.27c4.41-20.97 2.71-42.53 2.87-63.77c-22.94-0.05-45.88 0.05-68.82 0c-0.05-21.29 0.11-42.53-0.11-63.72c-17.74 0.21-35.47-0.21-53.21 0.05c0-39.03 0-78.05-0.05-117.02c-22.14-0.11-44.34-0.16-66.54 0.16c4.14-19.22 2.81-38.97 2.92-58.46c-0.11-84.9 0-169.85-0.05-254.81c21.24-0.05 42.48 0.11 63.72 0c-0.05-17.79 0-35.52 0-53.26c-22.2-0.11-44.39-0.16-66.59 0.16c4.41-20.97 2.71-42.48 2.81-63.72c-21.19-0.05-42.43 0.05-63.67 0c0.05-62.39-0.05-124.78 0-187.16c42.48 0.05 84.91-0.11 127.34 0.05c0.16-20.39 0.05-40.78 0.21-61.17c62.29 0.16 124.63 0 186.98 0.05c0.16 20.39 0.05 40.72 0.11 61.11c38.08-0.11 76.15-0.05 114.17 0c0-222.58 0-445.1 0-667.68c20.82-0.11 41.69 0 62.5-0.16c-0.21-19.43-0.11-38.87-0.11-58.3zm5.2 62.65c0.16 262.72 0.16 525.44 0 788.16c-22.52 0.05-45.03 0.05-67.55 0c0.05-18.96-0.21-37.86 0.05-56.81c-39.83-0.37-79.66-0.21-119.54-0.16c-0.11-20.81 0.05-41.57-0.16-62.39c-48.64-0.11-97.23-0.11-145.88 0c-0.05 19.43-0.11 38.92-0.05 58.41c-31.01-0.21-61.97 0-92.93 0c0 39.34 0.11 78.69-0.11 117.98c20.82 0.16 41.69 0.05 62.5 0.11c0.05 20.81-0.05 41.63 0.11 62.49c37.92-0.16 75.88-0.16 113.85 0c0.32-20.81 0.21-41.57 0.16-62.39c42-0.21 84.06-0.11 126.12-0.05c0.11 20.76 0 41.52 0.05 62.28c20.34 0.11 40.73 0 61.07 0.16c-0.05 63.24 0.05 126.47-0.05 189.77c-20.34-0.05-40.73-0.16-61.07 0.16c0.05 20.71 0.11 41.41 0 62.12c-21.24 0-42.43 0-63.62 0c-0.11-20.81 0.05-41.63-0.32-62.39c-20.71 0.05-41.37 0.11-62.02-0.05c-0.16-42.48-0.11-84.9-0.05-127.38c-38.08 0.05-76.1 0.16-114.12-0.11c-0.27 100.51-0.05 200.97-0.05 301.48c19.44-0.05 38.87 0.05 58.31-0.05c0.11 39.88 0 79.7 0.11 119.57c20.34-0.05 40.62-0.11 60.91 0c0.11 20.23 0.11 40.46 0.05 60.74c20.76 0.37 41.53 0.21 62.34 0.32c0.16 22.09 0.05 44.23 0.11 66.32c39.83 0 79.66-0.05 119.48 0.11c-0.21 18.05 0.16 36.16 0 54.26c140.3 0.11 280.6 0 420.9 0.05c-0.27-18.11 0.11-36.26-0.05-54.37c39.72 0 79.5-0.16 119.22 0.05c0.42-22.14 0.27-44.28 0.21-66.37c20.82-0.16 41.58-0.05 62.4-0.21c0.05-20.28 0.05-40.57 0.05-60.85c20.39-0.21 40.73-0.05 61.07-0.16c0-160.99-0.05-322.03 0.05-483.07c19.44-0.05 38.92-0.11 58.36-0.05c0.05-242.01-0.11-484.02 0.11-726.03c-58.94-0.05-117.89-0.16-176.83 0.05c0.27 202.19 0.16 404.33 0.05 606.46c-21.19 0.05-42.38 0.05-63.51 0c-0.16-262.72-0.16-525.44-0.05-788.16c-60.22-0.42-120.44-0.42-180.66 0c0.11 262.72 0.11 525.44-0.05 788.16c-20.71 0.05-41.47 0.05-62.24 0c-0.16-262.77 0-525.54-0.05-788.37c-58.89 0-117.78-0.32-176.68 0.21zm-244.12 913.04c-0.05 17.2-0.05 34.41 0 51.61c20.71 0.16 41.37 0.11 62.08 0.05c0.48 41.2 0.21 82.35 0.27 123.5c17.68-0.05 35.37 0 53.05 0c0.11-58.41 0.11-116.76 0-175.16c-38.45-0.11-76.95-0.11-115.39 0z" />
	</g>
	<g id="#ffffffff">
		<path id="Layer" class="s1" d="m496.72 62.96c58.89-0.53 117.78-0.21 176.68-0.21c0.05 262.83-0.11 525.6 0.05 788.37c20.76 0.05 41.53 0.05 62.24 0c0.16-262.72 0.16-525.44 0.05-788.16c60.22-0.42 120.44-0.42 180.66 0c-0.11 262.72-0.11 525.44 0.05 788.16c21.14 0.05 42.32 0.05 63.51 0c0.11-202.14 0.21-404.27-0.05-606.46c58.94-0.21 117.89-0.11 176.83-0.05c-0.21 242.01-0.05 484.02-0.11 726.03c-19.44-0.05-38.92 0-58.36 0.05c-0.11 161.04-0.05 322.08-0.05 483.07c-20.34 0.11-40.68-0.05-61.07 0.16c0 20.28 0 40.57-0.05 60.85c-20.82 0.16-41.58 0.05-62.4 0.21c0.05 22.09 0.21 44.23-0.21 66.37c-39.72-0.21-79.5-0.05-119.22-0.05c0.16 18.11-0.21 36.26 0.05 54.37c-140.3-0.05-280.6 0.05-420.9-0.05c0.16-18.11-0.21-36.21 0-54.26c-39.83-0.16-79.66-0.11-119.48-0.11c-0.05-22.09 0.05-44.23-0.11-66.32c-20.82-0.11-41.58 0.05-62.34-0.32c0.05-20.28 0.05-40.51-0.05-60.74c-20.29-0.11-40.57-0.05-60.91 0c-0.11-39.88 0-79.7-0.11-119.57c-19.44 0.11-38.87 0-58.31 0.05c0-100.51-0.21-200.97 0.05-301.48c38.02 0.27 76.04 0.16 114.12 0.11c-0.05 42.48-0.11 84.9 0.05 127.38c20.66 0.16 41.31 0.11 62.02 0.05c0.37 20.76 0.21 41.57 0.32 62.39c21.19 0 42.38 0 63.62 0c0.11-20.71 0.05-41.41 0-62.12c20.34-0.32 40.73-0.21 61.07-0.16c0.11-63.29 0-126.53 0.05-189.77c-20.34-0.16-40.73-0.05-61.07-0.16c-0.05-20.76 0.05-41.52-0.05-62.28c-42.06-0.05-84.12-0.16-126.12 0.05c0.05 20.81 0.16 41.57-0.16 62.39c-37.97-0.16-75.94-0.16-113.85 0c-0.16-20.87-0.05-41.68-0.11-62.49c-20.82-0.05-41.69 0.05-62.5-0.11c0.21-39.29 0.11-78.64 0.11-117.98c30.96 0 61.92-0.21 92.93 0c-0.05-19.49 0-38.97 0.05-58.41c48.64-0.11 97.23-0.11 145.88 0c0.21 20.81 0.05 41.57 0.16 62.39c39.88-0.05 79.71-0.21 119.54 0.16c-0.27 18.96 0 37.86-0.05 56.81c22.52 0.05 45.03 0.05 67.55 0c0.16-262.72 0.16-525.44 0-788.16z" />
	</g>
</svg>