<svg version="1.2" baseProfile="tiny-ps" xmlns="http://www.w3.org/2000/svg" viewBox="0 0 1719 714" width="1719" height="714">
	<title>cdea5764-1804-4a2b-b18e-a9b29dacf440-svg</title>
	<style>
		tspan { white-space:pre }
		.s0 { fill: #0061aa } 
		.s1 { fill: #ffffff } 
		.s2 { fill: #ffde00 } 
	</style>
	<g id="#0061aaff">
		<path id="Layer" class="s0" d="m973.84 0h24.66c0 36.17 0 72.33 0 108.5c-10.09 0-20.17 0.01-30.25 0c0.01-23.59-0.01-47.18 0.01-70.76c-9.28 7.18-20.05 12.13-31.26 15.44c0-8.23-0.02-16.47 0.02-24.7c5.9-1.92 11.73-4.18 17.13-7.3c8.64-4.75 15.14-12.55 19.69-21.18z" />
		<path id="Layer" class="s0" d="m843.2 1.76c23.52-0.03 47.03 0 70.55-0.01c-0.01 7.92 0 15.84 0 23.75c-15.86 0.02-31.72-0.05-47.57 0.04c-0.84 5.19-1.7 10.37-2.52 15.56c9.9-4.55 21.42-5.86 31.91-2.61c9.83 2.92 18.08 10.71 21.45 20.4c4.65 13.66 0.71 29.62-9.1 40.05c-7.77 8.02-19.16 11.23-30.06 11.42c-12.18 0.31-25.49-0.95-35.29-8.95c-6.62-5.1-10.41-12.86-12.8-20.68c10.07-1.14 20.15-2.21 30.24-3.29c1.03 4.45 2.56 9.27 6.52 11.99c4.57 3.52 11.46 3.72 16.05 0.1c4.77-3.56 6.17-9.9 6.2-15.55c-0.02-5.02-0.62-10.64-4.28-14.42c-3.98-4.43-10.78-5.32-16.19-3.3c-3.68 1.18-6.46 4-9.13 6.65c-8.49-1.18-16.97-2.37-25.43-3.66c3.17-19.16 6.28-38.33 9.45-57.49z" />
		<path id="Layer" class="s0" d="m1035 1.75c10 0 20 0 30 0c0 6.83 0 13.67 0 20.5c-10 0-20 0-30 0c0-6.83 0-13.67 0-20.5z" />
		<path id="Layer" fill-rule="evenodd" class="s0" d="m1183.75 1.75c10.08 0 20.16 0 30.25 0c-0.01 12.17 0.02 24.33-0.02 36.49c11.69-11.89 33.1-12.04 44.71 0.02c7.48 7.14 10.08 17.82 10.47 27.83c0.41 12-1.9 24.87-9.84 34.29c-8.8 10.29-24.71 12.74-36.66 6.84c-4.45-2.21-7.7-6.09-10.93-9.74c0.01 3.68 0.02 7.35 0.01 11.03c-9.34-0.02-18.66 0-27.99-0.01c0-35.58 0-71.17 0-106.75zm39.54 50.56c-4.74 1.49-8.03 5.98-8.84 10.77c-1.05 5.98-1 12.4 1.34 18.07c2.62 6.26 10.98 9.26 16.84 5.65c5.06-3 6.4-9.36 6.63-14.8c0.17-5.84 0.02-12.53-4.33-16.98c-2.92-3.15-7.64-4.09-11.64-2.71z" />
		<path id="Layer" fill-rule="evenodd" class="s0" d="m172.5 4c11.75 0 23.5 0 35.25 0c0 3.67 0 7.33 0 11c3.33 0 6.67 0 10 0c0-3.67 0-7.33 0-11c11.92 0 23.83 0 35.75 0c0 3.67 0 7.33 0 10.99c3.67 0.01 7.33 0.01 11 0.02c0 7.66 0 15.32 0 22.99c11.42 0 22.83 0 34.25 0c0 3.67 0 7.33 0 11c3.83 0 7.66 0 11.5 0c0 30.58 0 61.17 0 91.75c454.29 0 908.57 0.01 1362.86 0c15.28 15.34 30.72 30.54 45.89 45.99v480.77c-15.2 15.54-30.39 31.1-45.74 46.49h-1627.54c-15.33-15.4-30.54-30.94-45.72-46.49v-480.78c15.19-15.43 30.6-30.65 45.89-45.98c19.37 0.01 38.74-0.01 58.11 0c0-3.83 0-7.67 0-11.5c11.75 0 23.5 0 35.25 0c0 3.83 0 7.67 0 11.5c7.17 0 14.33 0 21.5 0c0-41.92 0-83.83 0-125.75c3.92 0 7.83 0 11.75 0c0-3.67 0-7.33 0-11zm1 160.25c-4.25 0-8.5 0-12.75 0c0-3.59 0-7.17 0-10.75c-7.5 0-15 0-22.5-0.01c0-3.91 0-7.83 0-11.74c-9.17 0-18.33 0-27.5 0c0 3.67 0 7.33 0 11c-5.83 0-11.67 0-17.5 0c0 7.42 0 14.83 0 22.25c3.91 0 7.83 0 11.75 0c0 3.92 0 7.83 0 11.75c7.17 0 14.34 0 21.5 0c0-3.92 0-7.83 0-11.75c7.92 0 15.83 0 23.75 0c0 3.92 0 7.83 0 11.75c3.83 0 7.67 0 11.5 0c-0.01 11.92 0.01 23.84-0.01 35.75c-3.83-0.01-7.66 0-11.49 0c0 3.91 0 7.83 0 11.75c-4 0-8 0-11.99 0c-0.01-3.91-0.01-7.83-0.01-11.75c-3.91 0-7.83 0-11.75 0c0-8 0-16 0-24c-7.16 0-14.33 0-21.49-0.01c-0.02 18.92-0.01 37.84-0.01 56.76c3.67 0 7.33 0 11 0c0.01 7.5-0.01 15 0 22.5c3.83 0 7.66 0 11.5 0c0 3.83 0 7.67 0 11.5c3.92 0 7.83 0 11.75 0c0 4.16 0 8.33 0 12.5c7.49 0 14.98 0.01 22.48-0.01c0.02 3.42 0.02 6.84 0.02 10.26c26.42 0 52.83 0 79.25 0c0-3.42 0-6.83 0-10.25c7.5-0.01 15 0.01 22.51-0.01c-0.01-4.16-0.01-8.33-0.01-12.49c3.91 0 7.83 0 11.75 0c0-3.84 0-7.67 0-11.5c3.83 0 7.67 0 11.5 0c0-30.33 0-60.67 0-91c3.67 0 7.33 0 11 0c0-45.58 0-91.16 0-136.75c-11.08 0-22.17-0.01-33.26 0.01c0.01 38.08 0.01 76.16 0.01 114.24c-4 0-8 0-12 0c0-49.5 0.01-99 0-148.5c-11.33 0-22.67 0-34 0c-0.01 49.5 0.01 99 0 148.5c-3.92 0-7.83 0-11.75 0c0-49.5 0-99 0-148.5c-11.08 0-22.16 0-33.25 0c-0.01 49.5 0 99 0 148.5zm-123.28-11.78c-12.97 12.86-25.88 25.78-38.75 38.74c0.07 157.31-0.01 314.62 0.04 471.94c12.9 13.12 25.81 26.24 38.69 39.39c539.47-0.09 1078.95-0.02 1618.42-0.03c13.06-13.02 25.81-26.34 38.87-39.36c0.04-157.32-0.02-314.64 0.03-471.96c-12.88-12.94-25.77-25.86-38.72-38.72c-452.85 0.06-905.7 0.01-1358.55 0.03c0 11.75 0 23.5 0 35.25c-3.84 0-7.67 0-11.5 0c0 30.58 0 61.17 0 91.75c-3.67 0-7.33 0-11 0c0 3.83 0 7.66 0 11.5c-3.83 0-7.67 0-11.5 0c0 3.91 0 7.83 0 11.75c-3.92 0-7.83 0-11.75 0c0 3.58 0 7.16 0 10.75c-7.5 0-15 0-22.49-0.01c-0.01 3.92-0.01 7.84-0.01 11.76c-27.08 0-54.17 0-81.25 0c0-3.92 0-7.84 0-11.75c-7.5 0-15-0.01-22.5 0c0-3.58 0-7.17 0-10.75c-3.92 0-7.83 0-11.75 0c0-3.91 0-7.83 0.01-11.74c-4.09-0.01-8.18-0.01-12.26-0.01c0-3.84 0-7.67 0-11.5c-3.42 0-6.83 0-10.25 0c0-7.59 0-15.17 0-22.75c-4.17 0-8.33 0-12.5 0c0-19.75 0-39.5 0-59.25c4.17 0 8.33 0 12.49 0.01c0.01-3.26 0.01-6.51 0.01-9.76c-4.17 0-8.34 0-12.5 0c0-3.92 0-7.83 0-11.75c-3.83 0-7.67 0-11.5 0c0-7.84 0.01-15.67-0.01-23.51c-9.92-0.01-19.85 0.05-29.77-0.02zm77.28 35.28c0 3.25 0 6.5 0 9.75c3.92 0 7.83 0 11.75 0.01c0 7.74 0 15.49 0 23.24c3.33 0 6.66 0 10 0c0-11 0-22 0-33c-7.25 0-14.5 0-21.75 0z" />
		<path id="Layer" fill-rule="evenodd" class="s0" d="m1116.55 29.79c13.99-1.57 29.65 0.38 40.44 10.2c11.86 10.63 14.85 28.49 10.28 43.28c-3.53 11.25-12.68 20.4-23.8 24.2c-9.45 3.25-19.72 3.44-29.53 2.04c-13.63-2.05-26.27-11.31-31.17-24.36c-5.5-15.07-2.47-33.73 9.72-44.73c6.55-6.1 15.22-9.61 24.06-10.63zm3.94 20.87c-5.7 1.96-9.29 7.71-9.95 13.52c-0.87 7.19-0.81 15.43 4.07 21.28c4.7 5.8 14.46 6.18 19.59 0.77c4.3-4.18 4.87-10.57 5.05-16.22c-0.09-5.46-0.76-11.46-4.57-15.68c-3.48-3.9-9.26-5.41-14.19-3.67z" />
		<path id="Layer" fill-rule="evenodd" class="s0" d="m1466.52 29.75c9.86-1.09 20.12-0.32 29.38 3.43c10.53 4.26 18.7 13.7 21.55 24.68c3.48 13.37 1.14 28.85-8.48 39.2c-8.41 9.52-21.55 13.46-33.95 13.22c-10.22 0.3-20.87-1.88-29.22-8.01c-7.83-5.61-13.51-14.22-15.14-23.75c-1.69-10.12-0.55-21.06 4.9-29.93c6.43-10.91 18.52-17.63 30.96-18.84zm3.89 20.84c-6.56 1.95-9.99 8.9-10.36 15.32c-0.53 7.09-0.27 15.54 5.39 20.69c5.18 5.05 14.44 4.45 19.11-1.02c3.86-4.56 4.37-10.89 4.39-16.62c-0.2-5.46-1.14-11.56-5.42-15.41c-3.39-3.36-8.63-4.41-13.11-2.96z" />
		<path id="Layer" class="s0" d="m1579.32 30.23c7.25-1.49 15.15-1.45 22.01 1.6c4.51 2.1 7.77 6.01 10.25 10.21c4.92-5.06 10.43-10.2 17.58-11.72c9.42-2.08 20.6-1.46 27.93 5.53c6.05 5.57 7.64 14.21 7.89 22.07c0.05 16.86 0 33.72 0.02 50.58c-10 0-20 0-30 0c-0.04-15.2 0.07-30.41-0.04-45.6c0.19-5.68-5.15-11.16-10.95-10c-6.01 0.72-9.57 6.75-9.63 12.39c-0.32 14.39-0.04 28.81-0.13 43.21c-10 0.01-20-0.01-29.99 0c-0.02-14.82-0.01-29.65 0-44.47c0.05-3.5-0.79-7.42-3.81-9.58c-4.22-3.16-10.76-1.94-13.82 2.27c-2.64 3.45-2.97 8-3.12 12.18c-0.03 13.2 0 26.4-0.01 39.6c-10 0-20 0-30 0c0-25.83 0-51.67 0-77.5c9.33 0 18.67-0.01 28.01 0.01c-0.01 3.67 0 7.33-0.08 11c4.83-5.33 10.63-10.32 17.89-11.78z" />
		<path id="Layer" class="s0" d="m1356.79 31.56c9.81-2.66 20.19-2.78 30.23-1.47c8.06 1.07 16.24 3.97 21.96 9.97c4.58 4.36 7.38 10.16 9.42 16.06c-9.39 1.21-18.76 2.55-28.16 3.7c-1.32-3.67-3.49-7.31-7.33-8.75c-5.84-2.18-13.2-1.45-17.73 3.13c-3.85 3.9-5.04 9.57-5.29 14.87c-0.26 5.53 0.46 11.55 4.13 15.96c5.61 6.93 17.49 7.06 23.39 0.42c1.86-2.13 2.95-4.77 4.13-7.32c9.43 1.17 18.89 2.21 28.34 3.23c-2.4 8.33-6.88 16.41-14.16 21.41c-8.5 6.34-19.44 7.78-29.75 7.67c-8.22-0.26-16.67-0.77-24.3-4.14c-10.87-4.67-19.32-15.05-20.94-26.87c-1.04-7.31-0.96-14.85 0.78-22.05c3.05-12.27 13.3-22.19 25.28-25.82z" />
		<path id="Layer" class="s0" d="m364.39 31c9.66 0 19.32 0 28.98 0c4.15 16.02 8.01 32.12 12.38 48.07c5.26-15.99 10.41-32.02 15.67-48.02c8.94-0.11 17.89-0.01 26.85-0.06c5.45 16.1 10.69 32.28 16.2 48.37c4.07-16.13 8.2-32.25 12.34-48.36c19.21 0 38.42-0.01 57.63 0.01c4.16 16.12 8.26 32.26 12.4 48.39c5.13-16.15 10.5-32.23 15.66-48.37c8.96-0.06 17.93-0.03 26.9-0.02c5.31 16.14 10.89 32.2 16.17 48.36c4.12-16.13 8.21-32.26 12.38-48.37c19.22 0.01 38.45-0.02 57.68 0.01c4.1 16.11 8.27 32.2 12.4 48.29c5.25-16.09 10.39-32.22 15.69-48.3c8.91 0.01 17.83-0.02 26.75 0.01c5.5 16.07 10.71 32.23 16.26 48.28c4.11-16.1 8.18-32.21 12.35-48.29c9.6 0 19.19 0 28.79 0c-9.52 25.84-19.02 51.68-28.57 77.5c-8.89 0.01-17.78-0.01-26.67 0.01c-5.1-15.3-10.23-30.6-15.46-45.86c-5.06 15.26-9.94 30.58-14.96 45.85c-8.97-0.01-17.93 0.02-26.89-0.02c-9.5-25.75-19.05-51.48-28.63-77.21c-9.54 25.73-18.99 51.49-28.51 77.23c-8.87 0-17.75 0-26.62 0c-5.21-15.28-10.31-30.61-15.53-45.9c-5.04 15.29-9.96 30.61-14.99 45.9c-8.95-0.01-17.91 0.02-26.86-0.01c-9.54-25.77-19.1-51.52-28.66-77.28c-9.53 25.75-18.97 51.53-28.46 77.29c-8.91 0-17.81 0-26.71 0c-5.04-15.36-10.31-30.65-15.39-45.99c-5 15.33-10.02 30.65-14.98 45.99c-8.97 0-17.94 0-26.91 0c-9.51-25.85-19.16-51.65-28.68-77.5z" />
		<path id="Layer" class="s0" d="m1035 31c10 0 20 0 30 0c-0.05 25.7 0.09 51.4-0.07 77.09c-0.51 8.43 0.23 18.23-5.98 24.87c-5.64 6.48-14.92 7.33-22.96 6.95c-6.25-0.33-12.44-1.29-18.57-2.48c1.52-7.23 3.03-14.46 4.55-21.69c3.07 0.21 6.56 1.36 9.39-0.44c1.94-1.12 2.71-3.39 3.1-5.48c0.74-4.23 0.52-8.55 0.54-12.83c-0.01-22 0-43.99 0-65.99z" />
		<path id="Layer" class="s0" d="m784 78.75c10.67 0 21.33 0 32 0c0 9.92 0 19.83 0 29.75c-10.67 0-21.33 0-32 0c0-9.92 0-19.83 0-29.75z" />
		<path id="Layer" class="s0" d="m1283.5 78.75c10.66 0 21.33 0 32 0c0 9.92 0 19.83 0 29.75c-10.67 0-21.34 0-32 0c0-9.92-0.01-19.83 0-29.75z" />
		<path id="Layer" class="s0" d="m1402.49 234.58c0.9-2.28 3.66-2.58 5.61-3.59c12.96 1.49 25.94 2.8 38.92 4.19c3.21 0.44 6.98-0.06 9.58 2.33c1.23 1.53 1.67 3.53 2.44 5.32c-0.81 2.96-1.2 6.35-3.83 8.34c-4.43 3.81-9.46 7.33-11.76 12.94c-4.51 13.33-9.46 26.5-14.15 39.77c4.99 2.6 9.98 5.23 14.9 7.99c6.75 5.25 10.81 13.12 13.43 21.12c4.31 0.02 8.63 0.06 12.95-0.09c10.25-29.11 20.95-58.07 30.89-87.3c1.93-4.7 2.41-10.16 6.11-13.94c10.21 0.2 20.29 2.24 30.35 3.84c7.77 1.73 15.84 2.66 23.17 5.95c0.04 2.78-0.37 5.53-1.46 8.09c-2.46 1.69-4.56 4.05-7.53 4.8c-4.23 0.89-8.1 3.57-10.48 7.13c-2.32 6.21-3.64 12.75-6.08 18.92c-6.54 17.53-13.07 35.07-19.59 52.61c22.24 0 44.48 0 66.71 0c6.99-6.82 12.82-14.75 20.29-21.07c3.42-3.13 6.01-7.1 9.84-9.79c1.97 1.33 4 2.76 5.07 4.99c5.43 9.54 11.39 18.79 16.54 28.49c2.48 3.69-1.05 9.12-5.35 8.64c-21.46-0.01-42.92-0.02-64.38 0c-20.15 57.98-40.29 115.95-60.45 173.93c-3.03 8.92-6.65 17.71-8.05 27.09c4.08 1.62 8.54 0.79 12.82 0.97c5.08-0.13 11.19 1.16 14.95-3.25c10.25-12.92 16.77-28.23 24.86-42.49c1.14-1.65 3.11-2.46 4.62-3.74c0.5 0.38 1.5 1.15 2 1.53c-0.65 6.27-4.74 11.52-5.64 17.74c-0.89 5.87-2.03 12.09 0.1 17.84c5.93 0.52 7.39 7.24 7.65 12.12c-0.65 8.47-2.73 16.98-7.02 24.4c-3.89 7.76-10.51 13.6-15.46 20.63c-1.9 2.93-5.23 4.25-7.96 6.22c-7.32 5.78-16.82 8.6-26.1 8.26c-15.68-0.02-31.36-0.03-47.03 0.01c-4.71 0.13-9.51-1.31-13.18-4.27c-4.27-4.28-2.97-10.76-2.88-16.19c0.07-5.03 1.59-9.88 3.92-14.31c2.64-6.57 4.65-13.37 7.06-20.03c23.64-68.83 47.38-137.63 70.98-206.47c-2.55 0-5.08 0-7.6-0.02c-8.47 21.54-16.18 43.38-25.33 64.65c-8.33 19.86-17.08 39.55-25.79 59.25c-3.55 8.26-7.51 16.34-11.49 24.39c-5.2 8.76-10.7 17.34-16.09 25.98c-2.59 4.22-4.36 8.88-6.89 13.13c-10.99 16.09-22.69 31.82-36.6 45.51c-6.15 7.18-13.32 13.41-21.04 18.84c-5.89 3.79-11.37 8.24-17.7 11.3c-7.29 3.6-14.38 7.88-22.35 9.8c-2.18 0.52-4.19 1.51-6.13 2.58c-0.64-0.95-1.27-1.89-1.88-2.82c5.75-7.58 14.48-12.33 19.68-20.38c11.13-16.29 24.59-30.92 34.77-47.86c8.05-14.98 16.85-29.55 24.61-44.68c5.69-9.98 9.88-20.69 14.64-31.12c3.46-8.14 7.79-15.89 10.85-24.2c4.49-11.67 9.89-22.95 14.84-34.42c9.47-23.05 17.9-46.52 26.41-69.94c-2.79 0.01-5.58 0.01-8.35-0.02c-0.53 5.74-2.92 11.01-4.51 16.49c-2.28 7.83-8.5 13.47-13.71 19.42c-5.06 6.39-14.46 8.32-21.95 5.63c-1.57-2.22-3.68-4.11-4.76-6.62c-0.78-3.32-0.62-6.78-0.4-10.15c4.51-11.14 10.85-21.55 14.29-33.13c0.88-4.66 1.25-9.46 3.22-13.85c-1.15-3.19-1.94-6.54-3.79-9.42c-33.41 95.96-66.87 191.91-100.29 287.88c-2.3 6.59-5.6 12.82-9.51 18.59c-9.66 5.67-21.32 4.79-32.11 4.63c-4.14-0.01-7.91-1.87-11.92-2.55c-1.1-5.59-0.47-11.38 1.6-16.66c20.28-58.54 40.62-117.05 61.02-175.54c-4.11 3.09-8.33 6.05-12.21 9.43c-6 6.2-16.24 7.14-23.86 3.56c-4.95-5.39-4.09-13.14-3.04-19.81c0.09-6.2 4.87-10.72 8.16-15.53c7.19-7.09 15.22-13.38 21.8-21.09c2.28-2.71 4.91-5.1 7.25-7.75c6.05-7.5 11.18-15.67 16.44-23.73c2.63-3.9 2.44-8.78 3.75-13.14c2.36-7.47 1.16-15.39 0.76-23.05c0.45-0.63 1.35-1.88 1.81-2.5c2.62 3.51 5.25 7.1 7.02 11.14c1.45 4.54 2 9.31 3 13.97c12.04-35.27 24.05-70.57 36-105.86z" />
		<path id="Layer" class="s0" d="m1227.17 257.2c7.09-7.27 14.73-13.96 21.87-21.17c1.96 0.28 4.28 0.6 5.38 2.52c7.46 12.87 15.27 25.56 22.74 38.43c2.32 4.1 1.31 8.86-1.38 12.49c-35.75 0.07-71.5-0.01-107.25 0.04c-7.18 18.45-14.27 36.94-21.48 55.39c-6.16 14.7-12.33 29.4-18.52 44.09c19.11 0.02 38.22 0 57.33 0.01c12.58-12.15 24.36-25.09 36.7-37.47c2.3-2.28 5.04-4.62 8.28-5.24c1.66 0.9 3.23 2.14 4.13 3.86c7.12 12.13 14.43 24.14 21.55 36.27c2.77 4.65 1.94 12.43-3.65 14.47c-23.78 0.29-47.58-0.02-71.36 0.15c-14.66 41.12-29.36 82.23-44.03 123.34c-2.41 6.63-5.12 13.5-4.64 20.67c0.98 3.05 4.88 2.74 7.42 3.3c6.56 0.39 13.15 0.02 19.73 0.16c3.92-0.07 8.27 0.6 11.67-1.86c3.99-2.94 7.64-6.58 9.91-11.04c10.32-18.59 20.96-37 31.23-55.62c0.92 0.02 2.75 0.06 3.66 0.08c-0.22 4.17-2.19 7.93-3.46 11.83c-2.94 8.55-6.59 16.96-7.91 25.97c-0.18 2.96-0.52 6.91 2.34 8.77c4.69 3.14 9.05 8.33 8.36 14.34c-0.12 5.21 0.11 10.7-2.26 15.5c-1.85 6-4.19 11.93-7.95 17.02c-2.78 3.65-4.3 8.1-7.34 11.56c-4.24 5.11-8.84 9.93-13.74 14.4c-3.64 3.14-7.86 5.9-12.61 6.92c-5.95 1.21-11.67 3.65-17.82 3.59c-21.68 0.09-43.36-0.02-65.04 0.05c-7 0-14.62-1.23-19.98-6.09c-4.19-4.24-2.69-10.65-2.62-15.97c1.52-5.83 2.09-11.89 4.2-17.56c19.62-56.47 39.24-112.94 58.86-169.41c-2.1 0-4.16 0.02-6.23 0.05c-3.84 7.59-8.03 15.01-11.61 22.73c-5.05 10.81-10.5 21.5-17.36 31.29c-3.86 5.6-7.24 11.5-11.05 17.13c-6.61 8.61-13.91 16.65-21.01 24.86c-12.48 16.12-27.15 30.38-42.09 44.19c-5.21 4.44-10.02 9.41-15.84 13.08c-11.69 7.59-22.95 15.82-34.25 23.97c-8.06 4.9-16.33 9.47-24.56 14.08c-8.36 4.78-17.28 8.46-25.66 13.19c-7.32 4.22-15.32 6.99-23.1 10.2c-1.85 0.6-4.93 1.83-5.73-0.78c0.44-1.45 1.59-2.46 2.66-3.46c0.19-0.41 0.58-1.23 0.77-1.64c5.4-2.61 10.65-5.55 15.78-8.66c18.51-13.6 36.73-27.69 53.36-43.57c7.62-6.76 13.91-14.83 20.52-22.55c7.54-9.49 15.96-18.31 22.66-28.45c5.16-7.7 11.13-14.81 16.35-22.47c16.11-27.26 32.64-54.37 45.87-83.18c-31.35-0.01-62.7 0.02-94.05-0.01c-2.45 0.35-4.77-1.29-4.23-3.96c-0.79-4.65 3.93-8.15 8.21-8.01c31.57-0.05 63.13 0 94.7-0.02c8.17-19.96 16.96-39.67 24.6-59.84c5.13-13.2 10.2-26.43 15.28-39.65c-26.22-0.11-52.46 0.18-78.68-0.15c0.23-2.69 0.76-5.33 1.46-7.94c4.7-3.12 10.4-2.03 15.71-2.17c51.36-0.01 102.72 0.01 154.08-0.01c7.03-7.36 14.04-14.73 21.12-22.04z" />
		<path id="Layer" class="s0" d="m412.91 256.55c22.12-6.17 44.2-12.49 66.43-18.29c2.41 14.34 4.86 28.66 7.28 43c11.57 0 23.14-0.05 34.71 0.03c11.74-14.29 23.36-28.67 35.01-43.02c19.04 5.44 38.09 10.81 57.15 16.2c-6.14 9.01-11.67 18.48-18.79 26.78c16.22 0 32.44 0 48.67 0c-6.34 19.09-12.71 38.17-19.08 57.25c-94.8 0-189.61 0-284.41 0c6.36-19.09 12.71-38.17 19.09-57.25c9.97 0.93 19.99 0.76 29.99 0.75c9.16 0.29 18.32 0.43 27.48 0.81c-1.13-8.76-2.49-17.49-3.53-26.26z" />
		<path id="Layer" class="s0" d="m1570.11 242.64c7.53-1.58 15.32-0.16 22.85 0.87c4.83 1.98 10.16 2.94 14.51 5.99c5.43 4.05 9.93 9.79 10.85 16.69c1.5 15.19-5.04 30.65-16.37 40.74c-4.79 5.36-12.01 7.72-19.02 8.05c-4.04 0.13-7.17-2.72-10.59-4.38c-2.79-5.92-2.65-12.74-0.52-18.84c2.5-7.32 2.92-15.08 3.62-22.72c0.03-4.84 0.57-9.88-0.98-14.55c-2.05-3.74-5.09-7.25-4.35-11.85z" />
		<path id="Layer" class="s0" d="m789.52 248.26c5.76-1.6 11.75-1.92 17.66-2.61c-1.68 20.48-3.4 40.95-5.06 61.43c-12.13 1.67-24.28 3.11-36.46 4.35c-4.4 12.05-8.75 24.12-13.08 36.19c3.9 0.45 7.8 0.91 11.7 1.44c-4.15 12.39-8.27 24.79-12.4 37.18c7.28 0.02 14.56 0 21.84 0.01c-3.19 8.58-6.35 17.17-9.53 25.75c-12.08 0-24.16-0.01-36.23 0c4.94 8.45 9.88 16.9 14.84 25.34c3.56 6.47 8.51 12.51 9.03 20.18c-14.11 21.12-27.68 42.6-41.72 63.76c-2.88-4.07-5.71-8.17-8.6-12.23c-11.46 35.55-22.77 71.15-34.22 106.7c-22.19-0.01-44.39 0.01-66.58 0c10-29.49 20.07-58.96 29.5-88.64c-5.7 6.36-11.18 12.92-16.94 19.24c-5.35 6.46-10.83 12.83-16.87 18.66c-2.56-22.09-5.47-44.15-7.88-66.25c5.1-8.64 13.66-14.6 19.72-22.55c11.6-13.76 23.16-27.6 33.53-42.33c4.95-7.16 10.97-13.59 14.94-21.4c-9.22 0.12-18.44-0.43-27.66-0.52c7.57-21.24 15.13-42.49 22.73-63.71c13.1 0 26.19 0 39.29 0c2.22-9.1 4.37-18.2 6.55-27.31c-9.97 0.41-19.95 0.72-29.91 1.37c4.36-21.43 8.85-42.83 13.2-64.26c27.15-1.3 54.31-2.88 81.28-6.33c9.1-1.18 18.42-0.99 27.33-3.46z" />
		<path id="Layer" fill-rule="evenodd" class="s0" d="m819.3 250c46.74 0 93.48 0 140.22 0c-14.12 41.33-28.24 82.66-42.32 124c-51.09-0.01-102.18 0.02-153.27-0.01c6.02-17.09 12.19-34.12 18.2-51.21c10.85-2.37 21.89-3.77 32.81-5.78c1.39-22.34 2.88-44.67 4.36-67zm19.32 75.71c11.25 0.58 22.51 0.91 33.78 0.82c2.5-6.22 4.75-12.54 7.24-18.76c-11.28-0.04-22.56-0.01-33.84-0.02c-2.4 5.98-4.79 11.97-7.18 17.96z" />
		<path id="Layer" fill-rule="evenodd" class="s0" d="m342.84 352c45.51 0 91.01-0.01 136.51 0c-19.97 61.79-39.9 123.59-59.72 185.43c-2.33 6.82-4.09 13.85-7.03 20.46c-1.68 3.91-3.37 7.83-4.88 11.82c-2.33 6.25-6.21 11.74-9.74 17.35c-2.41 4.06-6.43 6.72-9.55 10.18c-5.8 5.48-13.07 9.14-20.55 11.75c-9.38 2.26-19.08 1.72-28.64 1.76c0.37-18.73 0.33-37.48 0.77-56.2c-0.17-0.83-0.42-1.62-0.75-2.38c-2.89 12.26-7.23 24.14-10.73 36.24c-2.62 8.62-5.28 17.24-7.95 25.85c-20.48-0.03-40.96 0.01-61.44-0.02c27.85-87.43 55.83-174.82 83.7-262.24zm41.17 54.75c-1.98 7.15-3.85 14.34-5.82 21.49c5.72 0.02 11.44 0 17.16 0.02c1.91-7.17 3.86-14.33 5.76-21.51c-5.7-0.01-11.4 0-17.1 0zm-17.58 58.3c-2.36 6.24-4.74 12.48-7.12 18.72c5.93-0.04 11.87-0.02 17.81-0.02c2.2-6.24 4.35-12.49 6.51-18.74c-5.74-0.01-11.47-0.05-17.2 0.04zm-20.33 66.19c-2.2 6.52-3.73 13.28-6.35 19.66c0.47 0.54 0.95 1.09 1.45 1.63l-0.04-1.09c3.79-0.18 7.86 0.8 11.44-0.82c2.31-0.97 4.72-1.72 6.92-2.91c2.21-2.15 4.16-4.61 5.77-7.23c0.91-3.11 1.52-6.31 2.93-9.26c-7.38 0.05-14.75 0.03-22.12 0.02z" />
		<path id="Layer" class="s0" d="m551.98 355c20 0 40 0 60 0c-20.75 61.08-41.96 122-62.93 183c-3.14 9.59-7.06 18.96-9.26 28.83c-2.58 5.85-5.58 11.56-8.9 17.03c-4.63 5.94-10.05 11.35-15.94 16.04c-4.27 2.24-8.08 5.56-12.88 6.61c-3.62 0.78-6.44 3.65-10.22 3.87c-3.4 0.44-6.53 1.94-9.87 2.59c-11.83 1.68-23.76 2.38-35.63 3.57c0.95-22.67 1.91-45.34 2.95-68c10.05-1.42 20.1-2.88 30.15-4.29c6.52-0.42 11.14-6.59 12-12.7c20.04-58.89 40.33-117.71 60.53-176.55z" />
		<path id="Layer" class="s0" d="m487.87 355.5c17.6 0.02 35.2-0.04 52.81 0.03c-19.37 58.6-38.94 117.13-58.31 175.73c-17.61-0.02-35.21-0.01-52.82 0c19.53-58.56 38.98-117.14 58.32-175.76z" />
		<path id="Layer" class="s0" d="m784.31 386.25c43.32 0 86.65 0 129.97 0c-6.53 20.25-13.12 40.49-19.71 60.72c-17.24 0.07-34.48 0.01-51.72 0.03c-1.68 5.16-3.35 10.32-4.97 15.5c15.27 0.03 30.54-0.04 45.81 0.03c-7.72 22.27-15.62 44.47-23.41 66.72c-15.06 0-30.12 0.01-45.17-0.01c-1.86 6.18-3.83 12.33-5.7 18.52c18.71-0.02 37.42-0.01 56.13-0.01c-7.2 21.3-13.29 42.95-19.74 64.49c-56.95 0.03-113.89 0-170.83 0.01c6.98-21.52 14.23-42.96 21.21-64.48c17.25-0.04 34.5-0.01 51.74-0.02c2.14-6 4.32-11.99 6.47-17.99c-11.45 0.02-22.88-0.55-34.32-0.53c13.13-22.28 26.34-44.51 39.57-66.74c5.81 0.02 11.62 0.01 17.43 0.01c1.67-5.42 3.31-10.84 4.95-16.26c-7.24 0.02-14.47 0.01-21.7 0c-3.97-5.98-7.97-11.93-11.84-17.97c7.11-0.05 14.21 0 21.32-0.03c4.88-13.99 9.63-28.01 14.51-41.99z" />
	</g>
	<g id="#ffffffff">
		<path id="Layer" class="s1" d="m173.5 164.25c0-49.5-0.01-99 0-148.5c11.09 0 22.17 0 33.25 0c0 49.5 0 99 0 148.5c3.92 0 7.83 0 11.75 0c0.01-49.5-0.01-99 0-148.5c11.33 0 22.67 0 34 0c0.01 49.5 0 99 0 148.5c4 0 8 0 12 0c0-38.08 0-76.16-0.01-114.24c11.09-0.02 22.18-0.01 33.26-0.01c0 45.59 0 91.17 0 136.75c-3.67 0-7.33 0-11 0c0 30.33 0 60.67 0 91c-3.83 0-7.67 0-11.5 0c0 3.83 0 7.66 0 11.5c-3.92 0-7.84 0-11.75 0c0 4.16 0 8.33 0.01 12.49c-7.51 0.02-15.01 0-22.51 0.01c0 3.42 0 6.83 0 10.25c-26.42 0-52.83 0-79.25 0c0-3.42 0-6.84-0.02-10.26c-7.5 0.02-14.99 0.01-22.48 0.01c0-4.17 0-8.34 0-12.5c-3.92 0-7.83 0-11.75 0c0-3.83 0-7.67 0-11.5c-3.84 0-7.67 0-11.5 0c-0.01-7.5 0.01-15 0-22.5c-3.67 0-7.33 0-11 0c0-18.92-0.01-37.84 0.01-56.76c7.16 0.01 14.33 0.01 21.49 0.01c0 8 0 16 0 24c3.92 0 7.84 0 11.75 0c0 3.92 0 7.84 0.01 11.75c3.99 0 7.99 0 11.99 0c0-3.92 0-7.84 0-11.75c3.83 0 7.66-0.01 11.49 0c0.02-11.91 0-23.83 0.01-35.75c-3.83 0-7.67 0-11.5 0c0-3.92 0-7.83 0-11.75c-7.92 0-15.83 0-23.75 0c0 3.92 0 7.83 0 11.75c-7.16 0-14.33 0-21.5 0c0-3.92 0-7.83 0-11.75c-3.92 0-7.84 0-11.75 0c0-7.42 0-14.83 0-22.25c5.83 0 11.67 0 17.5 0c0-3.67 0-7.33 0-11c9.17 0 18.33 0 27.5 0c0 3.91 0 7.83 0 11.74c7.5 0.01 15 0.01 22.5 0.01c0 3.58 0 7.16 0 10.75c4.25 0 8.5 0 12.75 0z" />
		<path id="Layer" class="s1" d="m127.5 187.75c7.25 0 14.5 0 21.75 0c0 11 0 22 0 33c-3.34 0-6.67 0-10 0c0-7.75 0-15.5 0-23.24c-3.92-0.01-7.83-0.01-11.75-0.01c0-3.25 0-6.5 0-9.75z" />
	</g>
	<g id="#ffde00ff">
		<path id="Layer" fill-rule="evenodd" class="s2" d="m50.22 152.47c9.92 0.07 19.85 0.01 29.77 0.02c0.02 7.84 0.01 15.67 0.01 23.51c3.83 0 7.67 0 11.5 0c0 3.92 0 7.83 0 11.75c4.16 0 8.33 0 12.5 0c0 3.25 0 6.5-0.01 9.76c-4.16-0.01-8.32-0.01-12.49-0.01c0 19.75 0 39.5 0 59.25c4.17 0 8.33 0 12.5 0c0 7.58 0 15.16 0 22.75c3.42 0 6.83 0 10.25 0c0 3.83 0 7.66 0 11.5c4.08 0 8.17 0 12.26 0.01c-0.01 3.91-0.01 7.83-0.01 11.74c3.92 0 7.83 0 11.75 0c0 3.58 0 7.17 0 10.75c7.5-0.01 15 0 22.5 0c0 3.91 0 7.83 0 11.75c27.08 0 54.17 0 81.25 0c0-3.92 0-7.84 0.01-11.76c7.49 0.01 14.99 0.01 22.49 0.01c0-3.59 0-7.17 0-10.75c3.92 0 7.83 0 11.75 0c0-3.92 0-7.84 0-11.75c3.83 0 7.67 0 11.5 0c0-3.84 0-7.67 0-11.5c3.67 0 7.33 0 11 0c0-30.58 0-61.17 0-91.75c3.83 0 7.66 0 11.5 0c0-11.75 0-23.5 0-35.25c452.85-0.02 905.7 0.03 1358.55-0.03c12.95 12.86 25.84 25.78 38.72 38.72c-0.05 157.32 0.01 314.64-0.03 471.96c-13.06 13.02-25.81 26.34-38.87 39.36c-539.47 0.01-1078.95-0.06-1618.42 0.03c-12.88-13.15-25.79-26.27-38.69-39.39c-0.05-157.32 0.03-314.63-0.04-471.94c12.87-12.96 25.78-25.88 38.75-38.74zm1352.27 82.11c-11.95 35.29-23.96 70.59-36 105.86c-1-4.66-1.55-9.43-3-13.97c-1.77-4.04-4.4-7.63-7.02-11.14c-0.46 0.62-1.36 1.87-1.81 2.5c0.4 7.66 1.6 15.58-0.76 23.05c-1.31 4.36-1.12 9.24-3.75 13.14c-5.26 8.06-10.39 16.23-16.44 23.73c-2.34 2.65-4.97 5.04-7.25 7.75c-6.58 7.71-14.61 14-21.8 21.09c-3.29 4.81-8.07 9.33-8.16 15.53c-1.05 6.67-1.91 14.42 3.04 19.81c7.62 3.58 17.86 2.64 23.86-3.56c3.88-3.38 8.1-6.34 12.21-9.43c-20.4 58.49-40.74 117-61.02 175.54c-2.07 5.28-2.7 11.07-1.6 16.66c4.01 0.68 7.78 2.54 11.92 2.55c10.79 0.16 22.45 1.04 32.11-4.63c3.91-5.77 7.21-12 9.51-18.59c33.42-95.97 66.88-191.92 100.29-287.88c1.85 2.88 2.64 6.23 3.79 9.42c-1.97 4.39-2.34 9.19-3.22 13.85c-3.44 11.58-9.78 21.99-14.29 33.13c-0.22 3.37-0.38 6.83 0.4 10.15c1.08 2.51 3.19 4.4 4.76 6.62c7.49 2.69 16.89 0.76 21.95-5.63c5.21-5.95 11.43-11.59 13.71-19.42c1.59-5.48 3.98-10.75 4.51-16.49c2.77 0.03 5.56 0.03 8.35 0.02c-8.51 23.42-16.94 46.89-26.41 69.94c-4.95 11.47-10.35 22.75-14.84 34.42c-3.06 8.31-7.39 16.06-10.85 24.2c-4.76 10.43-8.95 21.14-14.64 31.12c-7.76 15.13-16.56 29.7-24.61 44.68c-10.18 16.94-23.64 31.57-34.77 47.86c-5.2 8.05-13.93 12.8-19.68 20.38c0.61 0.93 1.24 1.87 1.88 2.82c1.94-1.07 3.95-2.06 6.13-2.58c7.97-1.92 15.06-6.2 22.35-9.8c6.33-3.06 11.81-7.51 17.7-11.3c7.72-5.43 14.89-11.66 21.04-18.84c13.91-13.69 25.61-29.42 36.6-45.51c2.53-4.25 4.3-8.91 6.89-13.13c5.39-8.64 10.89-17.22 16.09-25.98c3.98-8.05 7.94-16.13 11.49-24.39c8.71-19.7 17.46-39.39 25.79-59.25c9.15-21.27 16.86-43.11 25.33-64.65c2.52 0.02 5.05 0.02 7.6 0.02c-23.6 68.84-47.34 137.64-70.98 206.47c-2.41 6.66-4.42 13.46-7.06 20.03c-2.33 4.43-3.85 9.28-3.92 14.31c-0.09 5.43-1.39 11.91 2.88 16.19c3.67 2.96 8.47 4.4 13.18 4.27c15.67-0.04 31.35-0.03 47.03-0.01c9.28 0.34 18.78-2.48 26.1-8.26c2.73-1.97 6.06-3.29 7.96-6.22c4.95-7.03 11.57-12.87 15.46-20.63c4.29-7.42 6.37-15.93 7.02-24.4c-0.26-4.88-1.72-11.6-7.65-12.12c-2.13-5.75-0.99-11.97-0.1-17.84c0.9-6.22 4.99-11.47 5.64-17.74c-0.5-0.38-1.5-1.15-2-1.53c-1.51 1.28-3.48 2.09-4.62 3.74c-8.09 14.26-14.61 29.57-24.86 42.49c-3.76 4.41-9.87 3.12-14.95 3.25c-4.28-0.18-8.74 0.65-12.82-0.97c1.4-9.38 5.02-18.17 8.05-27.09c20.16-57.98 40.3-115.95 60.45-173.93c21.46-0.02 42.92-0.01 64.38 0c4.3 0.48 7.83-4.95 5.35-8.64c-5.15-9.7-11.11-18.95-16.54-28.49c-1.07-2.23-3.1-3.66-5.07-4.99c-3.83 2.69-6.42 6.66-9.84 9.79c-7.47 6.32-13.3 14.25-20.29 21.07c-22.23 0-44.47 0-66.71 0c6.52-17.54 13.05-35.08 19.59-52.61c2.44-6.17 3.76-12.71 6.08-18.92c2.38-3.56 6.25-6.24 10.48-7.13c2.97-0.75 5.07-3.11 7.53-4.8c1.09-2.56 1.5-5.31 1.46-8.09c-7.33-3.29-15.4-4.22-23.17-5.95c-10.06-1.6-20.14-3.64-30.35-3.84c-3.7 3.78-4.18 9.24-6.11 13.94c-9.94 29.23-20.64 58.19-30.89 87.3c-4.32 0.15-8.64 0.11-12.95 0.09c-2.62-8-6.68-15.87-13.43-21.12c-4.92-2.76-9.91-5.39-14.9-7.99c4.69-13.27 9.64-26.44 14.15-39.77c2.3-5.61 7.33-9.13 11.76-12.94c2.63-1.99 3.02-5.38 3.83-8.34c-0.77-1.79-1.21-3.79-2.44-5.32c-2.6-2.39-6.37-1.89-9.58-2.33c-12.98-1.39-25.96-2.7-38.92-4.19c-1.95 1.01-4.71 1.31-5.61 3.59zm-175.32 22.62c-7.08 7.31-14.09 14.68-21.12 22.04c-51.36 0.02-102.72 0-154.08 0.01c-5.31 0.14-11.01-0.95-15.71 2.17c-0.7 2.61-1.23 5.25-1.46 7.94c26.22 0.33 52.46 0.04 78.68 0.15c-5.08 13.22-10.15 26.45-15.28 39.65c-7.64 20.17-16.43 39.88-24.6 59.84c-31.57 0.02-63.13-0.03-94.7 0.02c-4.28-0.14-9 3.36-8.21 8.01c-0.54 2.67 1.78 4.31 4.23 3.96c31.35 0.03 62.7 0 94.05 0.01c-13.23 28.81-29.76 55.92-45.87 83.18c-5.22 7.66-11.19 14.77-16.35 22.47c-6.7 10.14-15.12 18.96-22.66 28.45c-6.61 7.72-12.9 15.79-20.52 22.55c-16.63 15.88-34.85 29.97-53.36 43.57c-5.13 3.11-10.38 6.05-15.78 8.66c-0.19 0.41-0.58 1.23-0.77 1.64c-1.07 1-2.22 2.01-2.66 3.46c0.8 2.61 3.88 1.38 5.73 0.78c7.78-3.21 15.78-5.98 23.1-10.2c8.38-4.73 17.3-8.41 25.66-13.19c8.23-4.61 16.5-9.18 24.56-14.08c11.3-8.15 22.56-16.38 34.25-23.97c5.82-3.67 10.63-8.64 15.84-13.08c14.94-13.81 29.61-28.07 42.09-44.19c7.1-8.21 14.4-16.25 21.01-24.86c3.81-5.63 7.19-11.53 11.05-17.13c6.86-9.79 12.31-20.48 17.36-31.29c3.58-7.72 7.77-15.14 11.61-22.73c2.07-0.03 4.13-0.05 6.23-0.05c-19.62 56.47-39.24 112.94-58.86 169.41c-2.11 5.67-2.68 11.73-4.2 17.56c-0.07 5.32-1.57 11.73 2.62 15.97c5.36 4.86 12.98 6.09 19.98 6.09c21.68-0.07 43.36 0.04 65.04-0.05c6.15 0.06 11.87-2.38 17.82-3.59c4.75-1.02 8.97-3.78 12.61-6.92c4.9-4.47 9.5-9.29 13.74-14.4c3.04-3.46 4.56-7.91 7.34-11.56c3.76-5.09 6.1-11.02 7.95-17.02c2.37-4.8 2.14-10.29 2.26-15.5c0.69-6.01-3.67-11.2-8.36-14.34c-2.86-1.86-2.52-5.81-2.34-8.77c1.32-9.01 4.97-17.42 7.91-25.97c1.27-3.9 3.24-7.66 3.46-11.83c-0.91-0.02-2.74-0.06-3.66-0.08c-10.27 18.62-20.91 37.03-31.23 55.62c-2.27 4.46-5.92 8.1-9.91 11.04c-3.4 2.46-7.75 1.79-11.67 1.86c-6.58-0.14-13.17 0.23-19.73-0.16c-2.54-0.56-6.44-0.25-7.42-3.3c-0.48-7.17 2.23-14.04 4.64-20.67c14.67-41.11 29.37-82.22 44.03-123.34c23.78-0.17 47.58 0.14 71.36-0.15c5.59-2.04 6.42-9.82 3.65-14.47c-7.12-12.13-14.43-24.14-21.55-36.27c-0.9-1.72-2.47-2.96-4.13-3.86c-3.24 0.62-5.98 2.96-8.28 5.24c-12.34 12.38-24.12 25.32-36.7 37.47c-19.11-0.01-38.22 0.01-57.33-0.01c6.19-14.69 12.36-29.39 18.52-44.09c7.21-18.45 14.3-36.94 21.48-55.39c35.75-0.05 71.5 0.03 107.25-0.04c2.69-3.63 3.7-8.39 1.38-12.49c-7.47-12.87-15.28-25.56-22.74-38.43c-1.1-1.92-3.42-2.24-5.38-2.52c-7.14 7.21-14.78 13.9-21.87 21.17zm-814.26-0.65c1.04 8.77 2.4 17.5 3.53 26.26c-9.16-0.38-18.32-0.52-27.48-0.81c-10 0.01-20.02 0.18-29.99-0.75c-6.38 19.08-12.73 38.16-19.09 57.25c94.8 0 189.61 0 284.41 0c6.37-19.08 12.74-38.16 19.08-57.25c-16.23 0-32.45 0-48.67 0c7.12-8.3 12.65-17.77 18.79-26.78c-19.06-5.39-38.11-10.76-57.15-16.2c-11.65 14.35-23.27 28.73-35.01 43.02c-11.57-0.08-23.14-0.03-34.71-0.03c-2.42-14.34-4.87-28.66-7.28-43c-22.23 5.8-44.31 12.12-66.43 18.29zm1157.2-13.91c-0.74 4.6 2.3 8.11 4.35 11.85c1.55 4.67 1.01 9.71 0.98 14.55c-0.7 7.64-1.12 15.4-3.62 22.72c-2.13 6.1-2.27 12.92 0.52 18.84c3.42 1.66 6.55 4.51 10.59 4.38c7.01-0.33 14.23-2.69 19.02-8.05c11.33-10.09 17.87-25.55 16.37-40.74c-0.92-6.9-5.42-12.64-10.85-16.69c-4.35-3.05-9.68-4.01-14.51-5.99c-7.53-1.03-15.32-2.45-22.85-0.87zm-780.59 5.62c-8.91 2.47-18.23 2.28-27.33 3.46c-26.97 3.45-54.13 5.03-81.28 6.33c-4.35 21.43-8.84 42.83-13.2 64.26c9.96-0.65 19.94-0.96 29.91-1.37c-2.18 9.11-4.33 18.21-6.55 27.31c-13.1 0-26.19 0-39.29 0c-7.6 21.22-15.16 42.47-22.73 63.71c9.22 0.09 18.44 0.64 27.66 0.52c-3.97 7.81-9.99 14.24-14.94 21.4c-10.37 14.73-21.93 28.57-33.53 42.33c-6.06 7.95-14.62 13.91-19.72 22.55c2.41 22.1 5.32 44.16 7.88 66.25c6.04-5.83 11.52-12.2 16.87-18.66c5.76-6.32 11.24-12.88 16.94-19.24c-9.43 29.68-19.5 59.15-29.5 88.64c22.19 0.01 44.39-0.01 66.58 0c11.45-35.55 22.76-71.15 34.22-106.7c2.89 4.06 5.72 8.16 8.6 12.23c14.04-21.16 27.61-42.64 41.72-63.76c-0.52-7.67-5.47-13.71-9.03-20.18c-4.96-8.44-9.9-16.89-14.84-25.34c12.07-0.01 24.15 0 36.23 0c3.18-8.58 6.34-17.17 9.53-25.75c-7.28-0.01-14.56 0.01-21.84-0.01c4.13-12.39 8.25-24.79 12.4-37.18c-3.9-0.53-7.8-0.99-11.7-1.44c4.33-12.07 8.68-24.14 13.08-36.19c12.18-1.24 24.33-2.68 36.46-4.35c1.66-20.48 3.38-40.95 5.06-61.43c-5.91 0.69-11.9 1.01-17.66 2.61zm29.78 1.74c-1.48 22.33-2.97 44.66-4.36 67c-10.92 2.01-21.96 3.41-32.81 5.78c-6.01 17.09-12.18 34.12-18.2 51.21c51.09 0.03 102.18 0 153.27 0.01c14.08-41.34 28.2-82.67 42.32-124c-46.74 0-93.48 0-140.22 0zm-476.46 102c-27.87 87.42-55.85 174.81-83.7 262.24c20.48 0.03 40.96-0.01 61.44 0.02c2.67-8.61 5.33-17.23 7.95-25.85c3.5-12.1 7.84-23.98 10.73-36.24c0.33 0.76 0.58 1.55 0.75 2.38c-0.44 18.72-0.4 37.47-0.77 56.2c9.56-0.04 19.26 0.5 28.64-1.76c7.48-2.61 14.75-6.27 20.55-11.75c3.12-3.46 7.14-6.12 9.55-10.18c3.53-5.61 7.41-11.1 9.74-17.35c1.51-3.99 3.2-7.91 4.88-11.82c2.94-6.61 4.7-13.64 7.03-20.46c19.82-61.84 39.75-123.64 59.72-185.43c-45.5-0.01-91 0-136.51 0zm209.14 3c-20.2 58.84-40.49 117.66-60.53 176.55c-0.86 6.11-5.48 12.28-12 12.7c-10.05 1.41-20.1 2.87-30.15 4.29c-1.04 22.66-2 45.33-2.95 68c11.87-1.19 23.8-1.89 35.63-3.57c3.34-0.65 6.47-2.15 9.87-2.59c3.78-0.22 6.6-3.09 10.22-3.87c4.8-1.05 8.61-4.37 12.88-6.61c5.89-4.69 11.31-10.1 15.94-16.04c3.32-5.47 6.32-11.18 8.9-17.03c2.2-9.87 6.12-19.24 9.26-28.83c20.97-61 42.18-121.92 62.93-183c-20 0-40 0-60 0zm-64.11 0.5c-19.34 58.62-38.79 117.2-58.32 175.76c17.61-0.01 35.21-0.02 52.82 0c19.37-58.6 38.94-117.13 58.31-175.73c-17.61-0.07-35.21-0.01-52.81-0.03zm296.44 30.75c-4.88 13.98-9.63 28-14.51 41.99c-7.11 0.03-14.21-0.02-21.32 0.03c3.87 6.04 7.87 11.99 11.84 17.97c7.23 0.01 14.46 0.02 21.7 0c-1.64 5.42-3.28 10.84-4.95 16.26c-5.81 0-11.62 0.01-17.43-0.01c-13.23 22.23-26.44 44.46-39.57 66.74c11.44-0.02 22.87 0.55 34.32 0.53c-2.15 6-4.33 11.99-6.47 17.99c-17.24 0.01-34.49-0.02-51.74 0.02c-6.98 21.52-14.23 42.96-21.21 64.48c56.94-0.01 113.88 0.02 170.83-0.01c6.45-21.54 12.54-43.19 19.74-64.49c-18.71 0-37.42-0.01-56.13 0.01c1.87-6.19 3.84-12.34 5.7-18.52c15.05 0.02 30.11 0.01 45.17 0.01c7.79-22.25 15.69-44.45 23.41-66.72c-15.27-0.07-30.54 0-45.81-0.03c1.62-5.18 3.29-10.34 4.97-15.5c17.24-0.02 34.48 0.04 51.72-0.03c6.59-20.23 13.18-40.47 19.71-60.72c-43.32 0-86.65 0-129.97 0z" />
		<path id="Layer" class="s2" d="m838.62 325.71c2.39-5.99 4.78-11.98 7.18-17.96c11.28 0.01 22.56-0.02 33.84 0.02c-2.49 6.22-4.74 12.54-7.24 18.76c-11.27 0.09-22.53-0.24-33.78-0.82z" />
		<path id="Layer" class="s2" d="m384.01 406.75c5.7 0 11.4-0.01 17.1 0c-1.9 7.18-3.85 14.34-5.76 21.51c-5.72-0.02-11.44 0-17.16-0.02c1.97-7.15 3.84-14.34 5.82-21.49z" />
		<path id="Layer" class="s2" d="m366.43 465.05c5.73-0.09 11.46-0.05 17.2-0.04c-2.16 6.25-4.31 12.5-6.51 18.74c-5.94 0-11.88-0.02-17.81 0.02c2.38-6.24 4.76-12.48 7.12-18.72z" />
		<path id="Layer" class="s2" d="m346.1 531.24c7.37 0.01 14.74 0.03 22.12-0.02c-1.41 2.95-2.02 6.15-2.93 9.26c-1.61 2.62-3.56 5.08-5.77 7.23c-2.2 1.19-4.61 1.94-6.92 2.91c-3.58 1.62-7.65 0.64-11.44 0.82l0.04 1.09c-0.5-0.54-0.98-1.09-1.45-1.63c2.62-6.38 4.15-13.14 6.35-19.66z" />
	</g>
</svg>