<svg version="1.2" xmlns="http://www.w3.org/2000/svg" viewBox="0 0 1920 446" width="1920" height="446">
	<title>JOBY_BIG-e13f394f-svg</title>
	<style>
		.s0 { fill: #393d47 } 
	</style>
	<g id="#393d47ff">
		<path id="Layer" fill-rule="evenodd" class="s0" d="m607 3.2c15.7-3.7 32.9-4.7 48 1.8 11.9 4.7 21.1 15 25.1 27 5.7 16.4 4.2 34.2 1.4 51-7.1 39.1-25.1 75.2-45.5 109-10.7 18.2-23 35.4-35.7 52.3-22.2 28.9-46.4 56.2-73.2 80.9-26.8 24.8-55.7 48.1-89 63.9-15.7 7.5-32.6 13-50.1 14-19.9 0.7-40.3-3.2-57.6-13.5-26-14.9-44.8-39.3-61-64-22-34.5-38.9-72-54.5-109.7-17.1-2.9-34.4-5.6-50.9-10.9-10.3-3.3-20.3-7.4-30.1-12-14.1-6.2-27.1-14.4-40.1-22.8-32-21.7-60-50.2-78.7-84.2-7.3-14.6-14.8-29.9-15.1-46.5v-0.8c0.3-6.8 1.1-13.9 4.6-20 3.4-6.5 9.3-11.3 16.1-14 9.9-4 21-3.6 31.4-2.4 15.4 2.3 30 8 43.9 14.9 18.6 9.7 35.3 22.9 50.4 37.4 20.5 20.7 36.3 45.5 49.8 71.1 10.5 19.6 20 39.7 29.3 59.9 0.7 2 2.5 2.9 4.6 2.7 31.3 1.5 62.4-6.2 91.2-18 28.1-11.5 54.5-26.6 79.9-43.1 37.9-24.8 73.6-52.8 111.6-77.4 29.3-19.1 59.6-38.6 94.2-46.6zm-516 47.9c-6.1 3.6-8.1 11.2-7.9 17.9 0.6 14.7 7.6 28.1 15.8 40 17.9 28.9 44 53.4 75.8 66.2 8.6 3.1 17.1 6.4 25.9 8.6-9.1-20.2-18.7-40.2-30.2-59.2-12.2-20.8-26-40.8-42.9-58.2-5.6-5.7-11.5-11.5-18.9-15-5.4-2.5-12.2-3.7-17.6-0.3zm467.1 10.3c-19.2 5.9-35.8 17.5-52.4 28.3-16.6 11.7-32.9 23.8-49.3 35.7-19.4 13.9-39.3 27-59.8 39.3-38.2 22.6-79.4 41.7-123.5 49.1-11.1 2-22.4 2.3-33.6 2.7 9.2 21.6 19 43 30.3 63.6 11 20.5 23.4 40.6 40 57.1 11.5 11.2 26.6 20.3 43.2 20.1 12.1 0.5 23.6-3.5 34.9-7.3 18.2-6.9 34.5-17.6 50.2-28.9 16-11.8 31.3-24.6 45.2-38.8 14.2-14.5 27.5-30 40.2-45.8 24.3-29.4 46.2-61.3 61.5-96.5 7.1-17.1 13.1-35.3 12.9-54-0.1-9-2.9-19.1-11.1-24-8.7-5.2-19.4-3.1-28.7-0.6z"/>
		<path id="Layer" fill-rule="evenodd" class="s0" d="m1361.3 217.1c15.5-56.8 30.8-113.7 46.2-170.6q22.3 0 44.5 0c-11.5 42.7-23.2 85.3-34.8 128 23.5-11.8 49.7-17.5 75.8-18.7 22.3-0.7 45.3-0.2 66.4 7.8 13.9 5.2 27.2 13 36.2 24.9 12.3 15.5 15.9 36.2 14.3 55.6-3.4 34.7-18.2 68.9-44.4 92.6-15.3 13.2-33.6 22.8-53 28.7-21.8 6.8-44.7 8.9-67.5 8.7-20.2-0.3-40.8-3.2-59.3-11.8-15.7-7.2-29.4-20-35.7-36.3-7.7-18.9-6.5-40.2-1.8-59.7 4.2-16.5 8.8-32.8 13.1-49.2zm117.2-23.3c-24 2.4-47.7 12.6-63.9 30.8-11.3 12.8-18.6 28.7-22.2 45.3-2.7 11.9-3.8 24.7 0.3 36.4 4.4 13.3 16.8 22.3 29.7 26.2 12.2 3.8 25 4.6 37.6 4.7 12.8 0 25.7-1.7 38-5.3 16-4.6 31.2-13.2 42.2-25.9 10.5-11.8 17.3-26.4 21.1-41.7 2.9-10.8 4.4-22.3 2.3-33.4-1.8-9.4-6.8-18.2-14.4-24.1-9.1-7.4-20.7-10.8-32-12.5-12.8-2.1-25.9-1.8-38.7-0.5zm-516.4-99.3c14.6 0 29.2 0 43.7 0-17.2 63.9-34.4 127.8-51.8 191.6-5.3 20.2-14 40-28.6 55.2-11.3 11.1-25.2 19.3-40.2 24.1-22.9 7.5-47.2 9-71.2 8.8-15-0.6-30.1-1-44.9-3.9-11-2-22.1-4.3-32.7-8q5.1-19.8 10.2-39.5c18.2 6.2 37.2 10.4 56.4 11.5 19 1.3 38.4 1.4 57.1-2.7 15.6-3 31.3-10.5 40.3-24.2 9-12.7 11.7-28.4 15.9-43.1q22.9-84.9 45.8-169.8zm195.4 62.3c25-2.4 50.8-2.1 75.2 4.7 16.3 4.7 32.1 13.4 42.6 27.1 11 13.5 14.9 31.4 14.7 48.4-0.6 20.3-6.3 40.1-14.5 58.6-7.8 17-19.5 32.1-33.9 44.1-21.5 17.9-48.8 27.5-76.2 31.9-12.4 1.6-24.9 2.9-37.4 2.6-15.5-0.4-31.2-1.4-46.2-5.8-14.2-4.1-28.1-10.9-38.5-21.7-9.3-9.4-15.5-21.8-17.8-34.8-3-17.2-0.6-35 3.8-51.8 7.7-27.7 23.2-53.9 46.1-71.7 23.3-18.8 52.8-28 82.1-31.6zm2.1 36.9c-22.2 2.5-44.6 10.4-60.9 26.1-13.6 13.2-22.2 30.9-26.4 49.2-2.7 12-4.1 24.9-0.1 36.7 2.6 8.2 8.1 15.3 15.2 20 9.6 6.1 20.8 9.6 32.1 10.5 15.1 1.9 30.4 1.2 45.3-1.3 18-3.2 35.7-10.4 49.2-23 13.8-12.2 22.4-29.4 26.8-47.1 2.9-10.6 4.6-21.8 2.7-32.7-1.7-9.5-6.3-18.7-14-24.7-9.4-7.9-21.5-11.7-33.5-13.4-12.1-1.4-24.3-1.8-36.4-0.3zm505.8-34.9q22.5-0.1 45 0c9.3 48.1 18.4 96.2 27.6 144.3 1.6 9.2 6.5 18.4 14.8 23.2 38.9-55.8 77.7-111.7 116.5-167.5q25.1-0.1 50.2 0-70 97.9-139.8 196c-9.3 12.7-18.1 25.8-27.8 38.2-10.8 13.5-23.8 25.4-38.8 34.1-17 9.9-36.4 15.3-55.9 17-16 2.2-32.2 1.8-48.1 0.1-8.6-1-17.2-2.6-25.4-5.4 3.1-12.1 6.5-24.2 9.8-36.3 22.5 7 46.5 8.1 69.9 5.7 9.7-1.4 19.2-4.4 27.9-8.9 15.1-8.5 26.4-22.1 35.9-36.3-16.3-10-26.5-27.8-30.4-46.1q-15.7-79.1-31.4-158.1z"/>
	</g>
</svg>