<svg version="1.2" xmlns="http://www.w3.org/2000/svg" viewBox="0 0 1547 513" width="1547" height="513">
	<title>Web-ready JOE Annual Report 245591_002_Print_BMK-1-pdf-svg</title>
	<defs>
		<clipPath clipPathUnits="userSpaceOnUse" id="cp1">
			<path d="m-3067.71-6418.26h7672.5v10003.95h-7672.5z"/>
		</clipPath>
	</defs>
	<style>
		.s0 { fill: #ffffff } 
	</style>
	<g id="Clip-Path: Page 1" clip-path="url(#cp1)">
		<g id="Page 1">
			<path id="Path 9" fill-rule="evenodd" class="s0" d="m223.5 59.7c78.1 23.3 166.6 49.8 213.7 95-5.8 3.9-14.8 11.7-27.7 21.4-55.6-47.2-163.4-75-293.2-27.2-33-61.4-46.5-122.1-51.7-148.6 31.6 21.3 83.9 37.5 143.4 54.9zm-103.4 97c125.3-45.3 228.7-19.4 282.3 25.2-33.6 26.5-84.6 66.5-140.2 109.8-66.5-27.8-111.7-80.8-142.1-135zm421.1 54.2q-3.9 13.6-7.7 28.5c-20.7 80.8-44 172.5-214.5 157-42.6-5.8-87.1-20.7-124-40.7q14.9-11.6 29.7-23.3l0.7 0.7c20.7 9.7 45.9 18.1 52.3 20 80.7 23.3 149.2 12.9 187.9-29.1 29.1-31 36.9-73.6 21.4-115-7.1-19.4-19.4-37.5-36.2-54.3 102-83.3 154.3-38.1 154.3-37.5 1.3 0.7 3.3 1.3 4.6 0.7 0 0 18.7-4.5 40-2.6-32.3 9-90.4 33-108.5 95.6zm-269.3 94.4c69.7 24.6 129.8 20.7 160.8-11 18.1-18.1 23.3-44.6 12.9-69.8-5.1-14.8-15.5-29.1-29-42.6 12.9-10.4 22.6-17.5 27.1-21.4q24.5 23.9 34.9 51.7c14.2 38.2 7.1 77.6-19.4 105.4-36.8 39.4-102.1 49.1-178.9 26.5-6.5-2-27.8-9.1-47.2-18.1q15.5-11.7 31-23.9 3.3 1.3 7.8 3.2zm-84.6 56.2c29.1 16.8 63.3 29.8 98.2 38.2-102.7 11.6-227.4 68.5-285.5 112.4v-12.9c20-10.4 100.1-70.5 187.3-137.7zm249.9-133.8c9.1 22 4.6 44.6-11 60.1-28.4 29.1-84.6 32.4-151.7 8.5l-2-0.7c54.3-42.6 104.7-82.1 137-107.9 12.9 12.3 22.6 25.8 27.7 40z"/>
			<path id="Path 10" fill-rule="evenodd" class="s0" d="m956.5 441.7c11.6 0 21.3 16.1 35.5 16.1 16.8 0 28.4-12.2 28.4-51v-185.5c0-30.4-3.2-37.5-27.8-37.5h-3.8v-6.4h87.8v6.4c-22.6 0.7-27.1 7.1-27.1 25.2v148.7c0 69.8-28.4 116.9-71.7 116.9-19.4 0-34.2-8.4-34.2-18.7 0-5.2 2.5-9.7 6.4-12.3q2.6-1.9 6.5-1.9zm253.1-42.7c-68.4 0-125.2-43.9-125.2-108.5 0-69.2 52.9-118.3 126.5-118.3 65.9 0 122.1 44.6 122.1 107.3 0 70.4-56.2 119.5-123.4 119.5zm-7.7-218.4c-60.7 0-85.3 56.9-85.3 98.9 0 64.6 44 111.1 100.2 111.1 56.8 0 83.9-50.4 83.9-99.5 0-64.6-41.3-110.5-98.8-110.5zm282.9 134.4h-6.5c-2.6-24.5-9.7-27.1-23.9-27.1h-58.8v73.6c0 16.2 6.5 19.4 19.4 19.4h53c24.5 0 31.6-9.7 40.7-39.4h5.8l-5.2 51.7h-184.7v-6.4h9.7c27.8 0 32.9-7.8 32.9-28.5v-146.7c0-19.4-4.5-27.8-27.7-27.8h-7.8v-6.4h166.6l2.6 48.4h-5.8c-4.5-29.7-13.6-36.2-25.8-36.2h-73.7v85.3h62.7c12.3 0 18.1-5.8 20-25.8h6.5zm-830.6 25.2c7.1 31 31.7 49.1 58.8 49.1 23.3 0 47.8-13.6 47.8-40.7 0-50.4-111.1-65.3-111.1-126 0-29.1 25.8-50.4 61.4-50.4 29.7 0 35.5 8.4 47.1 8.4 3.2 0 4.5-0.7 6.5-3.3h5.8l5.8 44h-5.8c-9.7-25.2-32.3-40.7-56.2-40.7-22.6 0-38.8 12.9-38.8 32.3 0 49.1 111.8 62.7 111.8 126.7 0 34.2-30.4 59.4-71.1 59.4-19.3 0-43.2-9.7-48.4-9.7-3.2 0-5.2 2-7.1 3.9h-5.8l-7.1-53zm230.5-22.6c0 14.2 5.2 18.7 20.7 18.7h10.3v5.2h-83.3v-5.2h9.7c16.2 0 20.7-4.5 20.7-18.7v-130.6h-45.9c-10.3 0-14.8 5.9-18.7 29.1h-5.2l4.5-42.6h4.6q0.6 2.6 3.2 3.2 2.6 0.6 5.2 0.6h126.5c3.9 0 7.8-0.6 8.4-3.8h5.2l3.9 42.6h-4.5c-3.9-23.2-8.4-29.1-19.4-29.1h-45.9zm-52.3 62.1h81.4v14.2h-81.4zm699.5-177.7c-7.9 0-14.2-6.4-14.2-14.2 0-7.9 6.3-14.3 14.2-14.3 7.8 0 14.2 6.4 14.2 14.3 0 7.8-6.4 14.2-14.2 14.2zm12.2-14.2c0-6.8-5.5-12.3-12.2-12.3-6.8 0-12.3 5.5-12.3 12.3 0 6.8 5.5 12.2 12.3 12.2 6.7 0 12.2-5.4 12.2-12.2zm-18.1 7.1v-0.7h1.3v-11c0-3.2 0-3.2-0.6-3.2h-1.3v-0.6h7.1c3.9 0 5.2 1.9 5.2 3.8 0 2.6-1.3 3.9-3.3 3.9 2 3.9 3.9 5.8 4.6 7.1h0.6v0.7h-3.2c-0.7 0-3.9-5.8-4.5-7.1h-2v3.2c0 3.2 0.7 3.2 1.3 3.2h1.3v0.7zm5.2-14.9l-1.3 0.7v6.4h1.3c1.3 0 3.2-1.3 3.2-3.2 0-1.3-0.6-3.9-3.2-3.9z"/>
		</g>
	</g>
</svg>