<svg version="1.2" xmlns="http://www.w3.org/2000/svg" viewBox="0 0 1561 645" width="1561" height="645">
	<title>Johnson_Outdoors_Logo_Light-svg</title>
	<style>
		.s0 { fill: #ffffff } 
		.s1 { fill: #212433 } 
		.s2 { fill: #eb3c3c } 
	</style>
	<g id="#ffffffff">
		<path id="Layer" fill-rule="evenodd" class="s0" d="m353.5 11.4c41.5-13.7 87.9-14.5 129.2 0.5 76.1 26.4 125.4 106.6 124.5 185.7 0.7 75.1-19.6 148.4-45.9 218 78.7-32.4 159.6-62.4 244.7-72.1 102.7-11.8 207.7 5.5 303 44.9 68.6 27.9 132.2 66.6 193.2 108.4 26.6 18 52.2 37.6 80.2 53.4 52.4 30.4 109.6 51.3 167.3 69.3 8.1 1.4 13.5 11.1 8.8 18.4-5.3 8.5-16.6 5.1-25 5.8-460.6-0.1-921.2 0.4-1381.9 0.3-12.8-0.2-25.7 0.8-38.4-1.2 1.2-22.7 14.7-42.3 28.2-59.6 36.3-44.2 85.1-75.7 124.5-116.9 30.7-29.9 60.2-63.6 72.8-105.3 8.7-28.6 7.6-63.4-13.9-86.2-27.5-29.3-67.9-41.5-106.2-49-65.8-9.9-131.7-19.5-197.5-29-7.8-1.3-18.1-0.9-21.1-9.9v-6.2q2.3-3.3 4.6-6.5c55.8-11.2 111.7-21.3 167.4-32.4 22.3-4.5 44.1-13.1 61.6-27.8 15.6-12.9 25.2-31 38.3-46.1 21.9-25.2 49.6-46 81.6-56.5zm39.5 5.9c-44.3 4.9-85.6 28.8-113.1 63.7-9.5 11.4-16.9 24.4-27.7 34.7-18.9 21.2-46.2 32.5-73.3 38.9-29.6 6.2-59.3 12-89 17.6-8.3 1.8-19.3 1.7-22.4 11.3 0.9 1.2 2.6 3.8 3.4 5 33.5 7.3 67.8 10.3 101.6 16 30.7 4.9 62.1 7.4 91.7 17.7 20.3 7.2 40.7 16 57.3 30.1 13 10.3 23.3 23.8 37.2 32.9 29.8 19.9 66.3 28 101.8 27.2 33.7-2 68.9-9.6 95.7-31.2 18.9-14.7 31.2-37.2 33.5-60.9 0.5-24.6 0.5-49.4-4.1-73.6-10.1-38.8-32.8-74.8-65.3-98.6-35.9-27.2-83.1-37.7-127.3-30.8zm159.6 291.9c-27.9 25.9-62.5 43.4-97.9 56.7-20.4 7.9-41.9 12.8-61.9 22-31.8 13.8-60.5 34.1-85.9 57.5-21.8 21.1-42.2 43.7-65.4 63.3-25.6 22.7-52.8 43.9-76 69.3 1.1 0.9 3.2 2.9 4.3 3.9 10.5-7.2 20.9-14.6 32.7-19.5 33.4-14.7 70.5-15 106.2-19.2 58.2-4.3 114.7-23.4 165.2-52.4-17.1 17.4-32.7 38.4-36.2 63.2-4 20.6 3.5 43.1 19.3 57.1 15.2 14 36.7 20.1 57.1 18.9 323-0.1 646.1 0 969.1 0 5.8 1 9-4.1 11.8-8.1-5.2-8.4-15.2-10.5-23.6-14.2-44.3-17.1-87.6-37.6-127-64.2-24.4-16.7-48.2-34.1-72.9-50.2-71.2-47.3-147.1-89-229.4-113.5-45.6-13.8-93-21.9-140.5-25-30.9 0.3-62-1.8-92.7 2.8-91.5 10.4-178.2 43.9-262.2 80.2-3.9 2.3-11.1 2.2-10.4-4 19.6-49.8 38.4-100.5 46.7-153.6-0.9-0.8-2.7-2.3-3.5-3.1-8.7 10.9-16.5 22.7-26.9 32.1z"/>
		<path id="Layer" fill-rule="evenodd" class="s0" d="m357.7 66.1c15.7-3.7 33.2 1.1 43.4 13.7 16.9 18.8 10.1 51.7-12.1 63.3-15.3 8.9-33.6 4-48.8-2.4-7.7-3.7-19.7-3.5-22.9-13 3.3-12.1 8.2-23.7 12.2-35.6 4.4-12.7 15.5-22.2 28.2-26zm-10.3 23.3c-5.9 10.2-9.4 21.6-12.1 33 14 6.3 30 15.3 45.6 8.9 15.8-7.7 19.8-31.4 7.2-43.7-10.6-11.4-31.3-10.8-40.7 1.8z"/>
	</g>
	<g id="#212433ff">
		<path id="Layer" fill-rule="evenodd" class="s1" d="m393 17.3c44.2-6.9 91.4 3.6 127.3 30.8 32.5 23.8 55.2 59.8 65.3 98.6 4.6 24.2 4.6 49 4.1 73.6-2.3 23.7-14.6 46.2-33.5 60.9-26.8 21.6-62 29.2-95.7 31.2-35.5 0.8-72-7.3-101.8-27.2-13.9-9.1-24.2-22.6-37.2-32.9-16.6-14.1-37-22.9-57.3-30.1-29.6-10.3-61-12.8-91.7-17.7-33.8-5.7-68.1-8.7-101.6-16-0.8-1.2-2.5-3.8-3.4-5 3.1-9.6 14.1-9.5 22.4-11.3 29.7-5.6 59.4-11.4 89-17.6 27.1-6.4 54.4-17.7 73.3-38.9 10.8-10.3 18.2-23.3 27.7-34.7 27.5-34.9 68.8-58.8 113.1-63.7zm-35.3 48.8c-12.7 3.8-23.8 13.3-28.2 26-4 11.9-8.9 23.5-12.2 35.6 3.2 9.5 15.2 9.3 22.9 13 15.2 6.4 33.5 11.3 48.8 2.4 22.2-11.6 29-44.5 12.1-63.3-10.2-12.6-27.7-17.4-43.4-13.7z"/>
		<path id="Layer" class="s1" d="m552.6 309.2c10.4-9.4 18.2-21.2 26.9-32.1 0.8 0.8 2.6 2.3 3.5 3.1-8.3 53.1-27.1 103.8-46.7 153.6-0.7 6.2 6.5 6.3 10.4 4 84-36.3 170.7-69.8 262.2-80.2 30.7-4.6 61.8-2.5 92.7-2.8 47.5 3.1 94.9 11.2 140.5 25 82.3 24.5 158.2 66.2 229.4 113.5 24.7 16.1 48.5 33.5 72.9 50.2 39.4 26.6 82.7 47.1 127 64.2 8.4 3.7 18.4 5.8 23.6 14.2-2.8 4-6 9.1-11.8 8.1-323 0-646.1-0.1-969.1 0-20.4 1.2-41.9-4.9-57.1-18.9-15.8-14-23.3-36.5-19.3-57.1 3.5-24.8 19.1-45.8 36.2-63.2-50.5 29-107 48.1-165.2 52.4-35.7 4.2-72.8 4.5-106.2 19.2-11.8 4.9-22.2 12.3-32.7 19.5-1.1-1-3.2-3-4.3-3.9 23.2-25.4 50.4-46.6 76-69.3 23.2-19.6 43.6-42.2 65.4-63.3 25.4-23.4 54.1-43.7 85.9-57.5 20-9.2 41.5-14.1 61.9-22 35.4-13.3 70-30.8 97.9-56.7z"/>
	</g>
	<g id="#eb3c3cff">
		<path id="Layer" class="s2" d="m347.4 89.4c9.4-12.6 30.1-13.2 40.7-1.8 12.6 12.3 8.6 36-7.2 43.7-15.6 6.4-31.6-2.6-45.6-8.9 2.7-11.4 6.2-22.8 12.1-33z"/>
	</g>
</svg>