<svg version="1.2" xmlns="http://www.w3.org/2000/svg" viewBox="0 0 1590 462" width="1590" height="462">
	<title>Logo_Jushi-Blue-svg</title>
	<style>
		.s0 { fill: #253b57 } 
	</style>
	<g id="#253b57ff">
		<path id="Layer" class="s0" d="m130.9 21c57-0.2 114.1 0 171.1-0.1 7.3 0 14.6-0.1 21.9 0.1-7.3 1.8-14.9 3.9-20.9 8.5-7.5 5.6-11.2 14.7-12.8 23.5-2.7 14.3-1.9 28.9-2.1 43.4q0 87.1 0 174.2c0 13 0.4 26-0.7 38.9-2.1 27.7-8.7 55.5-22.3 80-10.8 19.8-26.6 37.1-45.7 49.2-21.8 13.9-47.3 21.3-72.9 23.3 8.5-1.2 15.1-7.9 17.9-15.7 2.1-5.4 2.4-11.2 2.3-16.8q0-176.1 0-352.2c-0.2-8.8-0.5-17.6-2.4-26.2-1.6-7.1-4.5-14.1-9.7-19.2-6.4-6.3-15.2-8.9-23.7-10.9zm-93.3 284c10.3-3.5 21.7-3.7 32.2-1 12.7 3.2 24.1 10.8 31.7 21.4 8.6 11.6 12.2 26.6 10.2 40.9-1.4 10.6-6.2 20.8-13.4 28.7-13.7 15.5-36.2 22.1-56.2 17.3-12.9-3-24.4-10.9-32-21.6-5.9-8.2-9.3-18.1-10.1-28.2v-7.9c0.6-8.5 3-17 7.3-24.5 6.6-11.6 17.6-20.9 30.3-25.1z"/>
		<path id="Layer" class="s0" d="m1489.4 0h8c7.3 0.6 14.4 2.3 21 5.3 15.5 6.8 28 20.5 32.5 36.9 3.2 10.9 2.5 22.8-1.6 33.3-4.4 11.3-12.6 21-22.8 27.6-17.7 11.6-41.5 12.9-60.3 3.4-15.8-7.6-28.3-22.3-31.9-39.5-3.1-13.8 0.2-28.7 8.1-40.3 10.4-15.6 28.4-25.6 47-26.7zm-505.2 21c36.1-0.2 72.2-0.1 108.4-0.1 28.6 0.1 57.2-0.1 85.8 0.1-7.3 1.7-14.7 3.9-20.7 8.4-6 4.4-9.8 11.1-11.8 18.1-2.5 8.4-3 17.2-3.2 25.9q0 159.8 0 319.7c0 12.8-0.3 25.8 2.6 38.3 1.6 6.7 4.4 13.4 9.8 17.8 3.3 2.7 7.4 4.2 11.4 5.5-60.7-0.1-121.5 0-182.3-0.1 4.5-1.1 9-2.2 13.3-4.1 6.7-2.7 12.6-7.6 15.8-14.1 5.3-10.2 6-21.9 6.5-33.1q0-159.9 0-319.7c0.1-12.3 0.2-24.8-3.6-36.7-2-6.3-5.5-12.4-10.8-16.6-6-5-13.7-7.4-21.2-9.3zm-43.6 132.4c11.5-1.8 22.3-6.8 31.7-13.6 0 34.5 0.1 68.9 0 103.4-3.5-24.4-15.5-47.3-32.6-64.9-8.4-8.5-18.1-15.8-28.9-20.9-5-2.5-10.4-4.1-15.8-5.8 15.1 1.9 30.5 4.5 45.6 1.8zm-104.7-12.5c7.1-0.2 14.4-0.6 21.5 0.6-11.6-0.5-23.4 1.1-34.3 5.3-9.6 3.7-18.2 10.8-22.3 20.4-2.2 4.8-3 10.1-3.9 15.3-1.1 6.5 0.9 13.1 4.5 18.5 5.4 8.3 13.6 14.3 22 19.5 14.4 8.6 30.1 14.8 45.9 20.3 11.3 3.5 22 8.5 32.6 13.5 22.3 11.1 43.9 24.7 61 43 7.9 8.5 14.6 18 19.4 28.6 10.8 23.4 10.2 51.8-1.5 74.8-9.3 18.8-25.7 33.3-44.4 42.4-23.6 11.8-50.2 15.6-76.3 15.5-5.8-0.1-11.6-0.8-17.4-1.5 12.8 0.4 26.1-0.4 37.9-5.9 10.1-4.5 18.9-12.7 22.8-23.2 1.9-5.1 2.4-10.5 2.9-15.8 0.2-6.9-2.4-13.7-6.6-19.1-6.4-8.4-15.3-14.4-24.4-19.6-16.5-9.2-34.3-15.8-52.1-22-22.9-9.2-45-21-63.8-37.1-15.3-13.1-28.3-29.7-34.8-49-9.2-27.7-4.8-60 13.3-83.2 12.5-16.3 30.8-27.1 50.2-33.3 15.4-5 31.6-7 47.8-8zm363.2 15.3c20-11.1 43.1-15.5 65.9-15 22.2 0.2 45.2 5.3 63.2 18.9 9.8 7.4 17.9 17.2 23.7 28 11.3 20.9 15.4 44.9 16.6 68.4 0.7 17.5 0.3 34.9 0.4 52.4 0 31.2 0 62.5 0 93.8 0.4 11.7 1.2 24.1 6.9 34.6 4.9 9.1 14.6 14.4 24.4 16.2 8-1.9 16-5.4 21.1-12 5.2-6.6 7.3-14.9 8.6-22.9 1.9-11.6 2-23.4 2.1-35.1q0-77.5 0-155c-0.2-13.7 0.4-27.4-0.7-41-1-10.4-3.2-21.4-10.1-29.6-6.4-7.6-16.2-10.9-25.5-13 64.7-0.1 129.5-0.1 194.3 0v0.1c-9.7 2.1-20.1 5.5-26.1 14-6.4 9.3-7.6 21-8.5 32-1.2 19.3-0.5 38.6-0.7 57.9q0 67.3 0 134.6c0 10.7-0.2 21.3 0.9 31.9 1.1 9.8 3.2 20.1 10 27.6 6.4 6.8 15.6 9.5 24.4 11.5v0.2c-122.8-0.1-245.6 0-368.4 0 3.5-1.4 7-2.8 10-5 5.2-3.7 8.8-9.3 10.8-15.3 3.5-10 4.1-20.6 4.2-31.1q0-69.2 0-138.5c0.2-15.7-0.7-31.7-4.7-47-2.9-10.5-7.5-21-15.6-28.6-7.9-7.5-18.9-10.9-29.6-10.7-11.1-0.3-22.1 3.2-30.8 10 7.7-13.6 19.5-24.7 33.2-32.3zm-902.6-11.3c34-0.2 68 0 102 0 26.7 0 53.4-0.1 80.1 0-5.4 2-10.7 4.9-14.4 9.5-5.1 6.5-7.1 14.8-8.4 22.9-1.2 8.3-1.6 16.6-1.5 25q0 68.6 0 137.2c-0.1 15.3 0.9 30.9 5.2 45.7 2.9 9.6 7.6 19.2 15.3 25.9 6.1 5.4 13.9 8.5 21.9 9.5 12 1.4 24.8-0.5 35.1-7.1-9.1 15.7-23.9 27.6-40.5 34.7-21.7 9.4-45.9 11.6-69.2 9.3-20.3-2.1-40.7-9.3-55.7-23.5-16.6-15.3-25.7-37.1-30.1-58.9-3.4-16.3-4.4-33-4.3-49.7q0-55.5 0-111c0-14.3 0.6-29-3.4-43-2.3-7.9-7-15.4-14.2-19.8-5.5-3.4-11.7-5.2-17.9-6.7zm237.3 0c53.2-0.1 106.4 0 159.6 0 7.8 0 15.6-0.2 23.3 0.1-9.2 1.8-18.9 5.2-25.2 12.6-6.4 7.4-8.5 17.3-9.6 26.7-1.1 10.4-0.9 20.9-0.9 31.4q0 86.8 0 173.5c0.1 12.8-0.5 25.8 2.5 38.3 1.8 7 5.1 13.9 10.9 18.3 6.4 5.1 14.5 7.1 22.3 8.8-52.8 0.1-105.6 0-158.4 0.1q0-127.5 0-255c-0.3-10-0.6-20.1-2.8-30-1.5-6.5-4-13-8.9-17.7-3.6-3.5-8.2-5.6-12.8-7.1zm191.8 210.9c4.2 22.4 16 42.8 31.7 59 13.3 13.5 29.7 24.4 48.2 29.3-7.6-0.7-15-2-22.6-2.4-12.6-0.9-25.5 0.3-37.4 4.7-7.1 2.5-13.7 6.1-19.9 10.2 0-33.6-0.1-67.2 0-100.8z"/>
	</g>
</svg>