<svg version="1.2" xmlns="http://www.w3.org/2000/svg" viewBox="0 0 1547 245" width="1547" height="245">
	<title>kaman-logo-color-black-svg</title>
	<style>
		.s0 { fill: #f05329 } 
		.s1 { fill: #ffffff } 
	</style>
	<g id="Layer_2">
		<g id="Layer_1-2">
			<path id="Layer" class="s0" d="m0 143.7l34.8 34.8 178.2-178.5h-69.5l-143.5 143.7zm208.6 23.2l-34.8 34.8 42.1 42.2h69.6l-76.9-77zm-81.2 34.8l201.5-201.7h-69.5l-166.7 166.9-34.7 34.8 42.1 42.2h69.5l-42.2-42.2z"/>
			<path id="Layer" fill-rule="evenodd" class="s1" d="m647.7 82.9h62.6l86.2 161.1h-54l-15.4-26.8h-98l-15.7 26.8h-112.3l-97.1-72.8v72.8h-49.3v-161.1h49.3v70.9l100.7-70.9h65.2l-112.9 79.5 106.6 74.7zm61.6 95.6l-31.1-56.9-30.5 56.8zm99 65.5v-161.1h72.6l57.2 100.6 58.4-100.6h71.4v161.1h-47.5v-114.8l-66.4 114.8h-32l-65.9-114.8v114.8zm271.6 0l87.8-161h62.5l86.3 161h-53.9l-15.5-26.8h-98l-15.7 26.8zm149.6-65.5l-31.3-56.9-30.4 56.9zm244.6 65.5l-96.2-117.1v117.1h-49.2v-161.1h72.8l95.8 118v-118h48.8v161.1z"/>
		</g>
	</g>
</svg>