<svg version="1.2" xmlns="http://www.w3.org/2000/svg" viewBox="0 0 1563 1603" width="1563" height="1603">
	<title>Kaival-Brands_colored-1-svg</title>
	<style>
		.s0 { fill: #c0c0c0 } 
		.s1 { fill: #9d8343 } 
	</style>
	<g id="#c0c0c0ff">
		<path id="Layer" class="s0" d="m1513.5 0h16c17.4 1.5 32.1 15.6 33.1 33.2 3 35.4-12.6 68.8-27.4 99.9-45.4 88.1-107.7 165.9-169.1 243.1-109.5 133.6-229.4 258.4-355.3 376.5-115 107.2-233.1 211.5-359.3 305.3 0-126.9-0.1-253.8 0.1-380.7 68.1-67.7 137.8-134 208.7-198.8 0.1 114.1 0 228.2 0 342.4 121.4-105.7 237.4-217.8 343.2-339.1 57.3-66.1 114.4-133 161-207.3 17-27.8 33.6-56.7 41.6-88.7 2.9-13.9 5.1-31-5.3-42.5-10.8-10.3-27.2-8.5-40.7-5.9-40.1 9.1-75.9 30.4-112.3 48.7-88 49.6-169.7 109.3-250.2 170 121.5-105.6 246.2-207.8 377.5-301.1 43.1-24.5 88.7-47.8 138.4-55z"/>
	</g>
	<g id="#9d8343ff">
		<path id="Layer" class="s1" d="m667 1117.3c258.5-210.4 503.5-438.1 725.6-686.7-20.7 65.1-54.8 124.9-92.2 181.7-52.6 79.2-113.2 152.7-176.3 223.6 134.4 201.7 269.4 403.1 403.9 604.7-85.8 0-171.6 0-257.3 0-99.4-151.4-198.6-302.9-297.9-454.3-37.4 36.9-74.5 74.1-112.1 110.9-0.8 114.4-0.1 228.9-0.4 343.4q-104.4 0-208.8 0c-0.1-62.6 0-125.1 0-187.6-136.3 107.8-278 210.2-431.9 291.5-43.5 22.2-87.9 43.9-135.7 54.6-21.4 3.9-45.9 7-65.1-5.8-12.2-8.2-16.8-23.1-18.8-37v-20.7c4-36.7 18.2-71.3 34.2-104.2 26.9-54.2 60.3-104.7 94.9-154.2-15.2 35.3-33.1 73.5-25.8 112.9 4.2 22.6 28.8 33.1 49.8 30.4 49-4.4 93.7-27.5 137-49.1 134.2-71.1 258-160 376.9-254.1z"/>
	</g>
</svg>