<svg version="1.2" xmlns="http://www.w3.org/2000/svg" viewBox="0 0 1594 763" width="1594" height="763">
	<title>kelly_green_nopad-svg</title>
	<style>
		.s0 { fill: #00ae42 } 
	</style>
	<path id="Layer" class="s0" d="m240.6 304l223.3 277.4h-146.7l-200.3-277.4z" />
	<path id="Layer" class="s0" d="m116.9 304v-0.4l195-277.4h137.5l-208.8 277.4v0.4z" />
	<path id="Layer" class="s0" d="m0 26.2h111.2v555.2h-111.2z" />
	<path id="Layer" class="s0" d="m843.5 27.4l110.5-27.4v582.6h-110.5z" />
	<path id="Layer" class="s0" d="m1023.7 27.4l110-27.4v582.6h-110z" />
	<path id="Layer" class="s0" d="m1593.2 212.5l-155.2 370.1l-76.2 180.2h-108l80.6-184.3l-153.9-366h112.4l93.9 240.6l93.9-240.6z" />
	<path id="Layer" fill-rule="evenodd" class="s0" d="m788.3 431.4h-250.3c10.9 45.9 44.4 71.3 94.4 71.3c36.2 0 69.3-11.7 91-31.8l8.1-7.3l54 65.3l-6.4 6.5c-33.9 33.9-89.5 54-149.2 54c-115.6 0-190.6-75.8-190.6-193.5c0-114.9 72.1-191.9 178.9-191.9c102 0 170.5 75 170.5 186.3zm-99.9-81.5c-9.7-38.7-34.7-60.1-70.1-60.1c-38.3 0-65.7 21.4-77.4 60.1z" />
	<path id="Layer" fill-rule="evenodd" class="s0" d="m1558.1 549.9c0 4.8-1.2 9.3-2.8 13.3c-1.6 4-4 7.7-7.3 10.5c-2.8 3.2-6.4 5.2-10.4 6.8c-4.1 1.7-8.1 2.5-12.5 2.5c-5.3 0-9.7-0.8-13.7-2.5c-4.1-1.6-7.7-4-10.5-6.8c-2.8-2.8-5.3-6.5-6.9-10.5c-1.6-4-2.4-8.1-2.4-12.9c0-4.8 1.2-9.3 2.8-13.3c1.6-4 4.1-7.7 7.3-10.5c3.2-3.2 6.8-5.2 10.9-6.8c4-1.6 8.4-2.4 12.9-2.4c4.4 0 8.4 0.8 12.5 2.4c4 1.6 7.2 4 10.4 6.8c3.3 2.8 5.7 6.5 7.3 10.5c1.6 4 2.8 8.5 2.4 12.9zm-6 1.2c0-4-0.8-7.6-2-10.9c-1.7-3.2-3.3-6-5.7-8.4c-2.4-2.5-5.2-4.5-8.5-5.7c-3.2-1.2-6.4-2-10-2c-4.1 0-7.3 0.8-10.5 2c-3.2 1.2-6.1 3.2-8.5 5.7c-2.4 2.4-4.4 5.2-5.6 8.4c-1.2 3.3-2 6.9-2 10.9c0 3.6 0.4 7.3 1.6 10.5c1.2 3.2 2.8 6 5.2 8.5c2 2.4 4.9 4 8.1 5.6c3.2 1.2 6.8 2 10.9 2c3.6 0 6.8-0.8 10-2c3.3-1.2 6.1-3.2 8.5-5.6c2.4-2.5 4.4-5.3 5.6-8.5c1.3-3.2 2.1-6.9 2.9-10.5zm-34.3 18.2h-6v-36.3h14.1c4.4 0 7.6 0.8 10 2.4c2.5 1.6 3.7 4.4 3.7 8.1c0 3.2-0.8 5.6-2.8 7.2c-1.7 1.6-4.1 2.4-6.9 2.8l10.5 16.2h-6.9l-9.6-15.8h-5.7zm7.7-20.1c1.2 0 2 0 3.2 0c1.2 0 2-0.4 2.8-0.8l2-1.6c0.4-0.8 0.8-2.1 0.8-3.3c0-1.2-0.4-2-0.8-2.8l-2-1.6c-0.8-0.4-2-0.8-2.8-0.8c-0.8 0-9.7 0-10.5 0v10.5z" />
</svg>