<svg version="1.2" xmlns="http://www.w3.org/2000/svg" viewBox="0 0 1562 307" width="1562" height="307">
	<title>Kepco_logo_en-svg</title>
	<style>
		.s0 { fill: #ffffff } 
		.s1 { fill: #eb1923 } 
	</style>
	<g id="layer1">
		<g id="surface23848">
			<path id="path9" fill-rule="evenodd" class="s0" d="m802.7 35.2h98.5v54.2h-97.9l-7 0.1c-15.2 0-28.6 7.4-36.9 18.8h141.8v54.1h-142c8.4 11.5 21.9 19 37.1 19l-0.1-0.1h105v54.2h-109.3c-36.1 0-67.6-19-85.3-47.4v47.4h-82.8c-34.6 0-65.1-17.4-83.2-43.9v43.8h-61.7v-200.1h61.7v43.7c18.1-26.5 48.6-43.8 83.2-43.8h10.8 72v47.4c17.7-28.5 49.2-47.4 85.3-47.4 0 0 10.8 0 10.8 0zm-100 146.1c-7.2-13.8-11.3-29.4-11.3-46 0-16.6 4.1-32.1 11.2-45.9h-67.5l-6.9 0.1c-25.4 0-45.9 20.6-45.9 46 0 25.3 20.5 45.9 45.9 45.9l-0.1-0.1zm858.5-46v0.2c0 46.4-31.5 85.2-74.3 96.6l-3.8 0.9c-15.1 3.6-30.8 5.5-47 5.5-16.5 0-32.5-1.9-47.8-5.6l-2.7-0.7c-24.3-6.4-44.9-21.6-58.3-42.1v45.4h-103.9-5.5c-46.9 0-86.3-32.1-97.2-75.6-11 43.5-50.4 75.6-97.4 75.6h-47.6v70.6h-61.7v-123.6-1.2h104.9c25.4 0 46-21.4 46-45.9 0-25.3-20.6-45.9-46-45.9l-7-0.1h-97.9v-54.2h98.5 10.9c46.9 0 86.3 32.1 97.3 75.6 10.9-43.6 50.3-75.6 97.2-75.6h109.4v45.4c13.4-20.4 34-35.6 58.3-42.1l2.7-0.6c15.3-3.7 31.3-5.7 47.8-5.7 16.2 0 31.9 1.9 47 5.5l3.8 0.9c42.8 11.5 74.3 50.3 74.3 96.7zm-250.2 0.2v-0.2c0-16.6 4.1-32.2 11.2-45.9h-92.9l-6.9 0.1c-25.4 0-45.9 20.5-45.9 45.9 0 25.4 20.5 45.9 45.9 45.9h-0.1 99.8c-7-13.8-11.1-29.3-11.1-45.8zm191.2 0c0-21.1-14.2-38.8-33.5-44.3l-6.6-1.3q-12.7-2.3-26-2.3c-9 0-17.7 0.8-26.2 2.3-2.1 0.4-4.2 0.7-6.3 1.3-19.4 5.4-33.6 23.2-33.6 44.3v0.1c0 21 14.1 38.8 33.5 44.2l6.6 1.3c8.5 1.5 17.1 2.3 26 2.3 8.9 0 17.7-0.8 26.1-2.3 2.2-0.3 4.3-0.7 6.4-1.2 19.4-5.4 33.6-23.2 33.6-44.3z"/>
			<path id="path13" class="s0" d="m413.9 132.4c0 72.5-58.8 131.3-131.4 131.3-27.9 0-53.8-8.8-75-23.6-21.3 14.8-47.2 23.6-75.1 23.6-72.6 0-131.4-58.8-131.4-131.3 0-72.6 58.8-131.4 131.4-131.4 27.9 0 53.8 8.8 75.1 23.7 21.2-14.9 47.1-23.7 75-23.7 72.6 0 131.4 58.8 131.4 131.4z"/>
			<path id="path15" class="s1" d="m413.9 132.4c0 72.5-58.8 131.3-131.4 131.3-27.3 0-52.7-8.4-73.7-22.7l197.5-152.6c4.9 13.7 7.6 28.5 7.6 44z"/>
			<path id="path17" class="s1" d="m157.8 91.2l-139.5 106.3c-2.8-4.9-5.3-9.9-7.4-15.1l150.9-102 45.7-30.8 14.6-13.2 36.8-33.3c7.7-1.4 15.5-2.1 23.6-2.1q3.8 0 7.6 0.2l-63.3 39.9-19.3 12.2z"/>
			<path id="path19" class="s1" d="m206.1 23.7l-197.5 152.7c-4.9-13.8-7.6-28.6-7.6-44 0-72.6 58.8-131.4 131.4-131.4 27.3 0 52.7 8.4 73.7 22.7z"/>
			<path id="path21" class="s1" d="m152.3 149.7l-106.2 81.7c-4.2-3.7-8.2-7.6-11.9-11.8l117.2-78.6 56.1-37.5 41.2-32.3 79.1-62.2c5.9 2.2 11.6 4.7 17.1 7.7l-92.9 61.2-44.5 29.3z"/>
			<path id="path23" class="s1" d="m157.6 172.9l-92.9 72q-7.5-4.5-14.3-9.9l104.9-69.8 52.2-34.8 49.9-38.6 92.8-72c5 3 9.8 6.3 14.3 9.9l-104.9 69.8-52.1 34.7z"/>
			<path id="path25" class="s1" d="m166.3 193.5l-79.2 62.2q-8.9-3.3-17-7.7l92.8-61.3 44.6-29.3 55.1-42.4 106.2-81.7c4.2 3.7 8.2 7.6 11.9 11.8l-117.2 78.5-56 37.5z"/>
			<path id="path27" class="s1" d="m151.5 123.1l-120.8 92.4q-5.2-6.4-9.7-13.4l131.5-88.6 55-37 29.5-23.7 63-50.6c7.2 0.9 14.1 2.4 20.8 4.5l-79.8 51.8-33.5 21.8z"/>
			<path id="path29" class="s1" d="m178 211.8l-63.2 50.7c-7.1-0.9-14-2.5-20.7-4.5l79.8-51.8 33.6-21.8 55.9-42.8 120.8-92.4c3.5 4.3 6.8 8.8 9.7 13.5l-131.5 88.4-54.9 37z"/>
			<path id="path31" class="s1" d="m253.1 184.2l-45.6 30.9-14.7 13.2-36.7 33.3c-7.7 1.4-15.6 2.1-23.7 2.1q-3.9 0-7.6-0.2l63.2-39.9 19.5-12.3 49.7-37.9 139.4-106.2c2.8 4.9 5.3 9.9 7.4 15.1z"/>
		</g>
	</g>
</svg>