<svg version="1.2" xmlns="http://www.w3.org/2000/svg" viewBox="0 0 1568 425" width="1568" height="425">
	<title>KINGSWAY-LOGO-ALT-WHITE-TEXT-768x208-svg</title>
	<style>
		.s0 { fill: #c41230 } 
		.s1 { fill: #ffffff } 
	</style>
	<g id="#c41230ff">
		<path id="Layer" class="s0" d="m0 0h46.1q0 23 0 46c15.1 0 30.3 0 45.5 0 0.1-15.3 0.1-30.7 0-46h46.3q0 23 0 46c15.4 0 30.8 0.1 46.2 0 0-15.4 0-30.7 0-46h45.8q0 23 0 46c15.4 0 30.7 0.1 46.1 0q0-23 0-46h46c-0.1 92.8 0.1 185.7-0.1 278.5-46-26.7-92.2-53.1-138.2-80 25.6-14.6 51-29.5 76.6-44.2 5.1-3 10.5-5.6 15.1-9.4 1.3-17.4 0.2-35 0.5-52.5-61.3 35.2-122.4 70.8-183.6 106.2-1.5-35.4 0.1-70.9-0.7-106.2-15.2 0-30.4-0.1-45.5 0q0 106.2 0 212.5c15.1 8.8 30.3 17.5 45.4 26.3 0-23.9 0.6-47.8 0.1-71.7 0.4-3.2-0.7-7.7 2.9-9.2 13.5-8.1 27.1-15.9 40.8-23.7 2.7-2.1 5.6 0.3 8 1.5 59.5 34.5 119.1 69 178.8 103.4-53.6 31.4-107.5 62.1-161.1 93.4-53.6-31.2-107.4-62-161-93.3z"/>
	</g>
	<g id="#ffffffff">
		<path id="Layer" fill-rule="evenodd" class="s1" d="m818.8 140.6c16.3-12 37.2-15.7 57-15.4 22.7-0.4 46 6.6 63.2 21.9-8.4 6.3-17 12.3-25.2 18.8-13.7-11.8-32.6-15.6-50.1-12.2-11.9 1.6-24.3 7.9-29.1 19.4-5.7 13.8-3.9 31.9 7.9 42 7.4 6.6 17.4 8.5 26.9 10 14.5 0.7 30.3-0.6 42-10.3q-0.1-5.5-0.1-11c-13.3-0.1-26.5 0.1-39.8-0.1 0.1-8.2-0.5-16.4 0.8-24.4 23.8 0.1 47.6 0 71.4 0 0.1 15.7 0 31.4 0.1 47.1-15.2 17.7-39 25.2-61.7 26.1-21.8 0.9-45.1-2.2-63.1-15.3-30.7-22-30.9-74.5-0.2-96.6zm180.5-13.3c30.4-5 64.1-2 90.3 15.6-6.1 7.1-11.9 14.5-17.8 21.7-19.2-13.2-43.7-15-66.2-11.7-5.3 1.2-13.4 3.6-12.5 10.5 1.5 4.5 6.8 5.5 10.8 6.6 22.3 3.7 45.5 2.5 66.9 10.6 8.5 2.9 16.7 8.3 21 16.5 6.7 14 2.2 32.2-10.2 41.5-14.3 10.9-33 13.8-50.5 14-27.4 0.6-55.9-6.1-77.7-23.4 6.1-7.2 12.2-14.5 18.4-21.7 19.9 16.7 47.5 20.7 72.6 17.8 6.8-0.9 14.4-3.5 16.4-10.9-1.8-3.1-3.9-6.7-7.7-7.6-13-4.3-26.9-3.8-40.3-5.8-15.4-2.3-31.8-5-44.4-14.8-12.3-9.4-13.1-28.6-3.9-40.3 8.3-10.8 21.7-16.1 34.8-18.6zm-255.4 1.8c11.1-0.1 22.2 0.1 33.4-0.1 0.3 39.8 0 79.7 0.1 119.6-10.2 0-20.5 0-30.7-0.1q-38.3-38.9-76.4-78.2c-0.2 26.1-0.1 52.2-0.1 78.2-11.3 0.1-22.6 0.1-33.9 0q0-59.7 0-119.4c12.5 0 24.9-0.1 37.4 0.1 23 24.6 46.8 48.3 70.1 72.6 0.1-24.2 0.1-48.5 0.1-72.7zm-320.2 0c11.6-0.1 23.2 0 34.9 0 0 18.4-0.1 36.7 0.1 55.1 19.9-18.5 40.4-36.2 60.1-54.9 14.7-0.4 29.5-0.2 44.3-0.1-17.9 15.5-35 31.7-52.9 47.1 18 24.5 37.2 48.2 56 72.2-13.8 0.1-27.6 0.1-41.5 0-13-17.1-26.6-33.7-39.4-51-9.2 7.4-17.8 15.6-26.7 23.4-0.1 9.2 0 18.4 0 27.7-11.6 0-23.3 0-34.9 0 0-39.8 0-79.7 0-119.5zm152.4 0c11.6 0 23.2-0.1 34.7 0.1q0 59.6 0 119.3c-11.5 0.1-23.1 0-34.7 0.1q0-59.8 0-119.5zm523.1 0.2c12-0.3 24.1-0.2 36.1-0.1 8.6 27.3 17 54.6 26.1 81.7 8.8-27.4 18.8-54.5 28.1-81.8q16.1 0 32.2 0c9.3 27.3 19.2 54.4 28.1 81.8 9.1-27.1 17.5-54.5 26.1-81.7q17.6-0.2 35.2 0c-14.2 39.8-29 79.4-43.2 119.3-11.7 0.2-23.4 0.1-35.1 0-9-26.6-17.3-53.6-27.1-80l1.8-1.1c-0.6-0.3-1.8-0.9-2.4-1.1-9.3 27.4-18.4 54.8-27.6 82.2-11.5 0.1-23.1 0.1-34.6 0-14.6-39.7-28.8-79.6-43.7-119.2zm253.1 0.2c12.8-1 25.7-0.1 38.5-0.4 20.5 39.8 41.2 79.6 61.6 119.4-12.5 0-24.9 0.2-37.4-0.1-3.4-7.5-7.3-14.9-10.7-22.5-21.8-0.3-43.7 0-65.5-0.1-3.8 7.5-7.5 15.2-11.2 22.8-12.3-0.1-24.6 0.1-36.8-0.1 20.7-39.6 40.9-79.4 61.5-119zm-1.6 71.4c13.7 0 27.4 0 41.1 0-6.8-14-13.6-27.9-20.2-41.9-7.4 13.8-13.8 28-20.9 41.9zm70.3-71.7c13.1-0.2 26.2-0.1 39.3-0.1 11.3 17.2 23 34.1 34.4 51.2 11.6-16.9 23-34.1 34.4-51.2q19.5-0.1 38.9 0v4.5l-0.1-3.9c-18.8 26-37.1 52.5-55.8 78.6-0.1 13.4-0.1 26.8-0.1 40.3q-17.5 0-35 0c0-13.5 0-27 0-40.5-18.8-26.2-37.3-52.6-56-78.9z"/>
	</g>
</svg>