<svg version="1.2" xmlns="http://www.w3.org/2000/svg" viewBox="0 0 1293 1537" width="1293" height="1537">
	<title>Screenshot 2022-03-15 at 12-svg</title>
	<style>
		.s0 { fill: #ffffff } 
	</style>
	<g id="#515f6eff">
		<path id="Layer" class="s0" d="m0.9 0.2c124.4-0.1 248.9 0 373.3-0.1c0.3 197.6-0.6 395.2 0.5 592.8c20.6-24 37.9-50.6 56.4-76.2c121.9-172.2 244.9-343.6 366.1-516.2c148.2-0.7 296.4-0.2 444.7-0.3c0 5.8 0 17.1 0 22.8c-156.4 213.2-312.3 426.8-468.1 640.4c-25.1 33.4-50.2 66.7-72.8 101.8c194.3 243.6 385.3 489.9 578.9 734.1c10.2 9.7 12.3 23.4 12.7 36.9c-154.6 0.2-309.4 0.3-464.1-0.1c-139.9-185-281.5-368.6-422-553.1c-9.9-13.2-20.6-25.7-31.8-37.9c-1.1 197.1-0.3 394.2-0.4 591.2c-124.5 0.1-249 0-373.6 0c0.2-512-0.1-1024.1 0.2-1536.1z"/>
	</g>
</svg>