<svg version="1.2" baseProfile="tiny-ps" xmlns="http://www.w3.org/2000/svg" viewBox="0 0 1560 502" width="1560" height="502">
	<title>orthopediatrics_logo-svg</title>
	<style>
		tspan { white-space:pre }
		.shp0 { fill: #ed174f } 
		.shp1 { fill: #00a160 } 
		.shp2 { fill: #0093d0 } 
		.shp3 { fill: #231f20 } 
	</style>
	<g id="Layer">
		<g id="Layer">
			<path id="Layer" fill-rule="evenodd" class="shp0" d="M840 273.6C829.8 291 817.8 301.2 805.2 303C787.8 305.4 761.4 307.2 743.4 308.4C741.6 326.4 735.6 381 735.6 381C735 386.4 730.2 390 725.4 389.4C720 388.8 716.4 384 717 379.2L724.2 309.6C723.6 309.6 723 309.6 723 309.6C718.2 310.2 713.4 306 713.4 301.2C712.8 296.4 717 291.6 721.8 291.6C721.8 291.6 723.6 291.6 726.6 291.6L751.8 138C745.2 137.4 739.8 136.8 735.6 136.8C730.2 136.2 726.6 132 726.6 127.2C727.2 121.8 731.4 118.2 736.2 118.2C740.4 118.2 829.8 121.8 850.2 171C864.6 204 854.4 247.2 840 273.6ZM834 178.2C825 157.2 796.2 146.4 770.4 141C765.6 168.6 751.2 257.4 745.8 290.4C763.2 289.2 786.6 287.4 802.8 285C809.4 283.8 817.2 276.6 823.8 264.6C837 241.2 844.8 204 834 178.2Z" />
			<path id="Layer" fill-rule="evenodd" class="shp0" d="M1015.2 330.6C1017.6 335.4 1016.4 340.8 1012.2 343.2C1011.6 343.8 1008.6 345.6 1004.4 346.8C1004.4 351.6 1000.8 355.8 996 356.4C991.8 356.4 988.2 353.4 987 349.8C981.6 350.4 975.6 349.8 968.4 349.2C955.2 347.4 945 342 938.4 332.4C936 328.8 934.2 325.2 933 320.4C932.4 321 932.4 321 932.4 321C907.8 334.8 877.8 338.4 859.8 339C861 345 862.8 351.6 865.2 358.2C869.4 369 875.4 375.6 882.6 377.4C894.6 381 909.6 371.4 914.4 367.8C918 364.8 924 365.4 927 369.6C930.6 373.2 930 379.2 925.8 382.2C925.2 383.4 901.2 401.4 877.8 395.4C864.6 391.8 855 381.6 848.4 365.4C844.8 355.8 842.4 346.8 841.2 337.8C838.2 336 836.4 333.6 836.4 330C836.4 329.4 836.4 329.4 836.4 329.4C837 326.4 838.2 324 840.6 322.2C841.2 309.6 844.2 297.6 850.8 288C859.8 274.2 873.6 266.4 888.6 266.4C912 265.8 924.6 282.6 931.2 295.2C931.8 288.6 933 282 934.8 274.8C941.4 248.4 961.8 238.2 979.8 235.2C978.6 214.8 976.2 178.2 975 172.8L977.4 176.4C975 172.8 974.4 166.8 978 163.8C981.6 160.8 985.8 159.6 989.4 162.6C993 165.6 994.2 166.8 996.6 208.2C997.2 217.8 997.8 227.4 998.4 235.2C999.6 235.8 1000.2 235.8 1001.4 235.8C1006.8 236.4 1009.8 241.2 1009.2 246C1008.6 250.8 1004.4 254.4 999.6 253.8C1000.2 265.8 1002.6 298.2 1004.4 327.6C1009.2 325.2 1014.6 327 1015.2 330.6ZM917.4 307.8C913.8 298.8 905.4 285 889.8 285C880.8 285 872.4 289.8 867 298.2C862.8 304.2 860.4 312 859.8 320.4C874.2 319.8 897.6 317.4 917.4 307.8ZM987 331.8C985.2 307.8 982.2 268.2 981.6 254.4C970.8 256.2 957.6 262.2 953.4 279.6C948.6 299.4 949.2 313.8 954.6 322.2C958.2 327 963.6 330 972 331.2C977.4 331.8 982.2 331.8 987 331.8Z" />
			<path id="Layer" class="shp0" d="M1039.8 226.8C1035 226.2 1030.2 229.8 1029.6 235.2L1018.8 348C1018.2 352.8 1021.8 357.6 1027.2 358.2C1032 358.8 1036.8 355.2 1037.4 349.8L1048.2 237C1048.8 231.6 1045.2 227.4 1039.8 226.8Z" />
			<path id="Layer" class="shp0" d="M1042.8 211.8C1049.4 211.8 1054.2 204.6 1054.2 198C1054.2 192 1048.8 184.2 1042.2 184.2C1035.6 184.2 1033.8 192.6 1033.8 198.6C1033.8 205.2 1036.2 211.8 1042.8 211.8Z" />
			<path id="Layer" fill-rule="evenodd" class="shp0" d="M1145.4 250.8L1127.4 327.6C1128.6 328.2 1129.2 329.4 1129.8 330.6C1131.6 335.4 1129.8 340.8 1125 342.6C1125 342.6 1124.4 343.2 1123.8 343.2L1122 352.2C1120.8 357 1116 360 1111.2 358.8C1106.4 357.6 1104 352.8 1104.6 348C1093.8 349.2 1081.2 348.6 1071 340.8C1059.6 331.8 1051.2 315.6 1049.4 298.8C1047.6 280.2 1053.6 262.2 1066.2 247.8C1074.6 238.2 1084.8 232.8 1096.2 232.2C1110 231.6 1122 237.6 1130.4 242.4C1132.8 240 1135.8 238.8 1139.4 239.4C1144.2 240.6 1147.2 245.4 1145.4 250.8ZM1109.4 329.4L1125 261.6C1119.6 257.4 1108.8 250.8 1097.4 251.4C1090.8 251.4 1084.8 254.4 1080 260.4C1068.6 273.6 1066.8 287.4 1068 297C1069.2 309 1074.6 320.4 1082.4 326.4C1089.6 331.8 1100.4 330.6 1109.4 329.4Z" />
			<path id="Layer" class="shp0" d="M1288.2 290.4C1291.8 286.8 1291.8 280.8 1288.2 277.2C1284.6 273.6 1267.2 256.8 1252.8 256.8C1249.8 256.8 1247.4 257.4 1244.4 258.6L1244.4 248.4C1244.4 243.6 1240.2 239.4 1235.4 239.4C1230.6 239.4 1226.4 243.6 1226.4 248.4L1226.4 249.6C1224.6 247.8 1222.2 246.6 1219.2 246.6L1191 248.4L1192.8 191.4C1192.8 186.6 1189.2 182.4 1183.8 181.8C1179 181.8 1174.8 185.4 1174.2 190.8L1172.4 249.6L1157.4 250.2C1152.6 250.2 1148.4 255 1149 259.8C1149 264.6 1153.8 268.8 1158.6 268.2L1172.4 267.6L1169.4 363.6C1169.4 368.4 1173 372.6 1178.4 373.2C1183.2 373.2 1187.4 369.6 1188 364.2L1191 266.4L1221 264.6C1223.4 264.6 1225.2 263.4 1227 262.2L1227 268.2C1221.6 272.4 1216.8 276 1214.4 278.4C1210.8 282 1210.2 287.4 1213.8 291C1217.4 294.6 1222.8 295.2 1226.4 291.6L1225.2 362.4C1225.2 367.2 1229.4 371.4 1234.2 371.4C1239 371.4 1243.2 367.2 1243.2 362.4L1244.4 277.2C1248 274.8 1251.6 273.6 1253.4 273.6C1258.2 273.6 1269 281.4 1276.2 288.6C1279.2 294 1284.6 294 1288.2 290.4Z" />
			<path id="Layer" class="shp0" d="M1308 220.2C1301.4 220.2 1296 227.4 1296 233.4C1296 239.4 1298.4 246 1305 246C1311.6 246 1316.4 238.8 1316.4 232.2C1316.4 226.2 1314 220.2 1308 220.2Z" />
			<path id="Layer" class="shp0" d="M1306.2 261.6C1301.4 260.4 1296.6 264 1295.4 268.8C1294.8 271.2 1282.8 329.4 1281 353.4L1277.4 403.2C1277.4 403.2 1276.2 411.6 1285.2 412.8C1294.8 414 1295.4 405 1295.4 405L1299 355.2C1300.2 331.8 1312.8 273.6 1312.8 273C1314 267.6 1311 262.8 1306.2 261.6Z" />
			<path id="Layer" class="shp0" d="M1376.4 238.8C1366.2 236.4 1356 240 1345.8 249.6C1314 277.8 1315.8 307.8 1321.8 333C1325.4 348 1337.4 360 1353.6 363.6C1370.4 367.8 1387.8 362.4 1397.4 351C1400.4 347.4 1400.4 341.4 1396.2 338.4C1392.6 335.4 1386.6 335.4 1383.6 339.6C1378.2 346.2 1367.4 349.2 1357.8 346.8C1353.6 345.6 1342.8 342 1339.8 329.4C1333.8 304.2 1335 284.4 1358.4 264C1364.4 259.2 1369.2 256.8 1373.4 257.4C1379.4 258.6 1384.2 265.8 1385.4 268.2C1387.8 273 1393.2 274.8 1397.4 272.4C1402.2 270 1404 264.6 1401.6 260.4C1400.4 258 1392.6 241.8 1376.4 238.8Z" />
			<path id="Layer" class="shp0" d="M1506 333.6C1501.8 331.2 1495.8 332.4 1493.4 336.6C1489.8 342 1479 356.4 1465.8 357.6C1456.8 358.2 1438.8 353.4 1432.2 344.4C1429.8 340.8 1428 334.8 1430.4 328.2C1432.8 321 1439.4 315 1449.6 312C1483.2 301.8 1498.2 282 1497 268.2C1496.4 255.6 1483.8 238.8 1461.6 232.2C1440.6 226.2 1412.4 243 1408.8 244.8C1404.6 247.2 1402.8 253.2 1405.8 257.4C1408.2 261.6 1414.2 263.4 1418.4 260.4C1428 255 1446.6 247.2 1456.8 249.6C1470.6 253.8 1478.4 263.4 1479 268.8C1479 272.4 1471.2 286.2 1444.2 294.6C1428.6 299.4 1417.2 309 1413 322.2C1409.4 333.6 1410.6 345.6 1417.2 354.6C1428 370.2 1453.8 376.8 1467.6 375.6C1492.2 373.2 1507.8 346.8 1509 345.6C1512 342 1510.2 336.6 1506 333.6Z" />
		</g>
		<path id="Layer" fill-rule="evenodd" class="shp1" d="M262.8 451.8C264.6 456.6 262.8 462 258 463.8C256.8 464.4 256.2 464.4 255 465L252.6 487.2C252 492 247.2 495.6 242.4 495C237.6 494.4 234 489.6 234.6 484.8L235.8 473.4C231 475.8 226.2 478.2 222.6 480C203.4 489.6 193.2 494.4 163.2 499.8C153 501.6 116.4 506.4 88.2 487.2C72 475.8 61.8 459 57.6 436.2C49.8 392.4 54 358.8 70.8 335.4C52.8 334.2 26.4 330 22.8 317.4C21.6 312.6 22.2 306 31.8 299.4C61.8 279 108 302.4 109.8 303.6C112.2 304.2 113.4 306 114 307.8C116.4 307.8 118.8 309 120 311.4C121.2 311.4 122.4 312 123.6 312.6C127.8 315 129.6 321 127.2 325.2C126 327 105.6 365.4 140.4 394.2C178.8 425.4 205.8 421.8 216 420.6C221.4 420 233.4 415.8 243.6 411.6L244.2 406.2C244.8 401.4 249.6 397.8 254.4 398.4C259.2 399 262.8 403.8 262.2 408.6L262.2 409.8C262.8 411 264 412.2 264.6 413.4C267 417.6 264.6 422.4 260.4 424.8L258 445.8C260.4 446.4 262.2 448.2 262.8 451.8ZM46.2 312.6C54.6 315 69.6 316.8 84.6 317.4C85.8 317.4 87 317.4 88.2 318C90 317.4 91.2 316.2 92.4 315.6C79.2 310.8 60 306 46.2 312.6ZM238.2 452.4L240.6 433.2C232.2 436.2 223.2 439.2 217.2 439.8C205.2 441.6 172.8 445.2 128.4 409.2C113.4 396.6 106.2 382.2 103.2 368.4L94.8 388.8C93 393.6 87.6 395.4 82.8 393.6C78 391.8 76.2 386.4 78 381.6L98.4 333.6C94.2 336 90 340.2 86.4 345.6C73.2 364.8 69.6 394.8 76.2 432.6C79.2 450 87 463.2 99 471.6C121.8 487.2 151.8 483 160.8 481.2C189 475.8 196.8 471.6 215.4 462.6C222 459.6 229.2 456 238.2 452.4Z" />
		<g id="Layer">
			<path id="Layer" class="shp2" d="M322.8 217.2C315 213.6 305.4 214.8 296.4 219L296.4 216C296.4 211.2 292.2 207 286.8 207C282 207 277.8 211.2 277.8 216.6L277.8 229.2C270 234 263.4 240 259.8 243C256.2 246.6 255.6 252 259.2 255.6C262.8 259.2 268.2 259.8 271.8 256.2C274.2 254.4 276.6 252 279 250.2L280.8 342C280.8 346.8 285 351 290.4 351C295.2 351 299.4 346.8 299.4 341.4L297.6 238.2C305.4 234 312.6 231.6 315.6 232.8C330 239.4 342.6 258 342.6 258C345.6 262.2 351 263.4 355.2 260.4C359.4 257.4 360.6 252 357.6 247.8C356.4 247.2 341.4 226.2 322.8 217.2Z" />
			<path id="Layer" class="shp2" d="M492.6 205.2C482.4 196.8 469.2 193.8 461.4 194.4C457.2 195 448.8 198.6 439.2 202.8L441.6 126C441.6 121.2 438 117 432.6 116.4C427.8 116.4 423.6 120 423 125.4L420 211.8C418.2 213 415.8 214.2 414 214.8C412.8 212.4 410.4 211.2 407.4 210.6L390 210L390.6 184.2C390.6 179.4 386.4 175.2 381.6 175.2C376.8 175.2 372.6 179.4 372.6 184.2L372 208.2L347.4 205.8C342.6 205.2 337.8 208.8 337.2 214.2C336.6 219.6 340.2 223.8 345.6 224.4L371.4 226.8L369.6 341.4C369.6 346.2 373.8 350.4 378.6 350.4C383.4 350.4 387.6 346.2 387.6 341.4L390 228L403.2 229.2C403.2 230.4 403.8 231 404.4 232.2C406.8 236.4 412.2 238.2 417 235.8C418.2 235.2 420 234 421.2 233.4L418.8 318.6C418.8 323.4 422.4 327.6 427.8 328.2C432.6 328.2 436.8 324.6 437.4 319.2L440.4 223.8C452.4 217.8 462 213 465 212.4C467.4 212.4 475.8 213.6 482.4 219C486.6 222.6 489 226.2 489.6 231C491.4 246.6 486 302.4 483.6 322.8C483 327.6 486.6 332.4 491.4 333C496.2 333.6 501 330 501.6 325.2C502.2 322.2 510 250.2 507.6 229.8C505.2 220.2 500.4 211.8 492.6 205.2Z" />
			<path id="Layer" fill-rule="evenodd" class="shp2" d="M280.2 143.4C280.2 187.2 267.6 226.2 244.2 254.4C220.8 282 188.4 297.6 150 299.4C56.4 303.6 14.4 211.8 12 208.2L12 207C-6.6 147.6 -3.6 98.4 22.2 60C49.2 19.8 94.8 3 126 0.6C157.8 -1.8 181.2 11.4 196.2 23.4C210.6 25.8 226.8 31.2 241.2 42C261 57 273.6 80.4 277.8 110.4C279 121.2 280.2 132.6 280.2 143.4ZM260.4 144C260.4 133.8 259.2 123.6 258 113.4C253.2 76.2 234 57.6 214.2 48.6C214.2 51 213 53.4 210.6 55.2C206.4 58.2 201 57 198 52.8C198 52.2 193.8 46.8 187.2 40.8C174.6 39.6 165 40.8 163.8 40.8C159 41.4 154.2 37.8 153.6 33C153.6 32.4 153.6 32.4 153.6 31.8C153.6 28.2 156 24.6 159 23.4C149.4 20.4 139.2 18 126.6 19.2C97.2 21 58.2 38.4 36.6 70.8C24 89.4 18 111.6 18 136.8C18 156 22.2 177.6 29.4 201C32.4 207 69.6 284.4 148.8 280.8C181.8 279.6 210 266.4 229.8 242.4C250.8 217.2 261.6 182.4 260.4 144Z" />
			<path id="Layer" fill-rule="evenodd" class="shp2" d="M705.6 223.2C706.8 230.4 707.4 237.6 707.4 244.8C707.4 273.6 699 300 683.4 318.6C667.8 337.2 645.6 348 619.8 349.2C556.8 352.2 528.6 290.4 527.4 288L527.4 286.8C514.8 247.8 516.6 214.8 534 189C552 162 582.6 150.6 603.6 148.8C625.2 147 640.8 155.4 651 163.8C660.6 165.6 671.4 169.2 681 176.4C695.4 186.6 703.8 202.2 705.6 223.2ZM688.2 244.8C688.2 238.8 688.2 232.2 687 225.6C684 204.6 674.4 193.2 663.6 187.2C663 187.8 662.4 189 661.2 189.6C657 192.6 651.6 191.4 648.6 187.2C648.6 187.2 646.2 184.2 642.6 180.6C636 180 631.2 180.6 629.4 180.6C624.6 181.2 619.8 177.6 619.2 172.8C619.2 172.2 619.2 172.2 619.2 171.6C619.2 170.4 619.2 169.2 619.8 168C615 166.8 610.2 166.2 604.8 166.8C586.8 168.6 562.8 178.8 549 199.2C541.2 211.2 537.6 225 537.6 240.6C537.6 252.6 540 266.4 544.8 280.8C547.2 285.6 570.6 333 619.2 330.6C640.2 329.4 657.6 321.6 669.6 306.6C682.8 291.6 689.4 269.4 688.2 244.8Z" />
			<path id="Layer" class="shp2" d="M92.4 121.2C99.6 121.2 100.2 111.6 100.2 104.4C100.2 97.2 94.2 91.8 87.6 91.8C80.4 91.8 75 97.8 75 104.4C75 111.6 85.2 121.2 92.4 121.2Z" />
			<path id="Layer" class="shp2" d="M189.6 108C196.8 108 197.4 98.4 197.4 91.2C197.4 84 191.4 78.6 184.8 78.6C177.6 78.6 178.2 84.6 178.2 91.2C178.8 98.4 183 108 189.6 108Z" />
			<path id="Layer" class="shp2" d="M225 139.2C220.2 137.4 214.8 139.8 213 144.6C213 145.2 188.4 210 140.4 214.8C92.4 219.6 71.4 186.6 70.2 185.4C67.8 181.2 61.8 180 57.6 182.4C53.4 184.8 52.2 190.8 54.6 195C55.8 196.8 82.2 239.4 142.2 232.8C201.6 226.8 229.2 153.6 230.4 150.6C232.2 145.8 229.8 141 225 139.2Z" />
			<path id="Layer" class="shp2" d="M351.6 421.2C351.6 421.2 343.8 419.4 336.6 417.6C342.6 414.6 349.2 411.6 349.2 411.6C352.2 409.8 354.6 406.8 354.6 403.2C354.6 402 354.6 400.2 353.4 399C351 394.2 345.6 392.4 341.4 394.8L324.6 402.6L329.4 393C331.8 388.8 330 382.8 325.8 380.4C321.6 378 315.6 379.8 313.2 384C313.2 384 299.4 409.2 296.4 414.6C291 416.4 265.8 424.8 265.8 424.8C262.2 426 259.8 429.6 259.8 433.2C259.8 434.4 259.8 435 260.4 436.2C262.2 441 267 443.4 271.8 442.2L300 433.2L324 452.4C328.2 455.4 333.6 454.8 336.6 450.6C339.6 446.4 339 441 334.8 438L330.6 435L346.8 438.6C351.6 439.8 356.4 436.8 357.6 432C357.6 431.4 357.6 430.8 357.6 429.6C358.2 426 355.8 422.4 351.6 421.2Z" />
			<path id="Layer" fill-rule="evenodd" class="shp2" d="M1537.2 207L1545 220.2L1537.2 220.2L1530.6 207.6L1527.6 207.6L1527.6 220.2L1521 220.2L1521 190.2L1532.4 190.2C1539.6 190.2 1544.4 192.6 1544.4 199.2C1544.4 204.6 1541.4 206.4 1537.2 207ZM1537.8 198C1537.8 195 1534.8 195 1532.4 195L1528.2 195L1528.2 202.2L1533.6 202.2C1536 202.2 1537.8 201.6 1537.8 198Z" />
			<path id="Layer" fill-rule="evenodd" class="shp2" d="M1560 204.6C1560 222 1546.8 232.2 1532.4 232.2C1518 232.2 1504.8 222 1504.8 204.6C1504.8 187.2 1518 177 1532.4 177C1546.8 177 1560 187.2 1560 204.6ZM1552.2 205.2C1552.2 192.6 1543.2 184.2 1532.4 184.2C1521.6 184.2 1512.6 192.6 1512.6 205.2C1512.6 217.8 1521.6 226.2 1532.4 226.2C1543.2 226.2 1552.2 217.8 1552.2 205.2Z" />
		</g>
		<g id="Layer">
			<path id="Layer" fill-rule="evenodd" class="shp3" d="M345 385.8C338.4 385.8 331.8 380.4 331.8 372.6C331.8 365.4 337.8 359.4 345 359.4C352.8 359.4 358.2 365.4 358.2 372.6C358.2 379.8 352.2 385.8 345 385.8ZM357 372.6C357 366 352.2 360.6 345 360.6C338.4 360.6 333 366 333 372.6C333 379.2 338.4 384.6 345 384.6C351.6 384.6 357 379.2 357 372.6ZM345 364.2C346.8 364.2 348 364.2 348.6 364.8C350.4 365.4 351 367.2 351 368.4C351 370.2 349.8 372 347.4 372.6C348.6 373.2 349.2 373.8 349.8 376.2C350.4 378.6 350.4 379.8 351 381L347.4 381C347.4 381 346.8 380.4 346.8 378.6C346.8 378 346.2 376.2 346.2 376.2C345.6 373.8 344.4 373.8 341.4 373.8L341.4 381L338.4 381L338.4 364.8L345 364.8L345 364.2ZM342.6 370.8L345 370.8C345.6 370.8 346.8 370.8 348 370.2C348.6 369.6 348.6 369 348.6 368.4C348.6 367.8 348.6 366.6 347.4 366.6C346.8 366.6 346.2 366.6 344.4 366.6L342.6 366.6L342.6 370.8ZM382.2 471L403.2 471L403.2 474L378.6 474L384.6 426.6L388.2 426.6L382.2 471ZM431.4 445.2C432 446.4 432 447 432 447.6C432 448.2 431.4 449.4 431.4 450C431.4 450.6 430.8 451.8 430.2 452.4C429.6 453 429 453.6 427.8 454.2C426.6 454.8 425.4 455.4 423.6 456C421.8 456 420 456.6 417.6 457.2C415.2 457.8 412.2 457.8 409.2 458.4C409.2 458.4 409.2 459 409.2 459.6C409.2 460.2 409.2 460.2 409.2 460.8C409.2 464.4 409.8 466.8 411.6 468.6C413.4 470.4 415.8 471.6 418.8 471.6C420 471.6 420.6 471 421.8 471C422.4 470.4 423.6 470.4 424.2 469.8C424.8 469.2 425.4 469.2 426 468.6C426.6 468 427.2 468 427.8 467.4C428.4 466.8 428.4 466.2 429 466.2C429.6 465.6 430.2 465.6 430.2 465.6L431.4 466.8C430.8 468 429.6 469.2 428.4 469.8C427.8 470.4 426.6 471 425.4 471.6C424.2 472.2 423 472.8 421.8 472.8C420.6 473.4 419.4 473.4 418.2 473.4C416.4 473.4 414.6 472.8 413.4 472.2C412.2 471.6 411 471 409.8 469.8C408.6 468.6 408 467.4 407.4 465.6C406.8 463.8 406.8 462 406.8 460.2C406.8 459 406.8 457.2 407.4 455.4C408 453.6 408.6 452.4 409.2 450.6C409.8 449.4 410.4 447.6 411.6 446.4C412.8 445.2 414 444 415.2 442.8C416.4 441.6 417.6 441 419.4 440.4C420.6 439.8 422.4 439.8 424.2 439.8C426 439.8 427.2 439.8 428.4 440.4C429.6 441 430.8 441.6 431.4 442.2C432 443.4 432.6 444 431.4 445.2ZM430.8 447C430.8 446.4 430.2 445.8 430.2 445.2C429.6 445.2 429.6 444.6 429 444C428.4 443.4 427.8 442.8 427.2 442.8C426.6 442.2 425.4 442.2 424.2 442.2C422.4 442.2 420.6 442.8 419.4 443.4C418.2 444 417 445.2 415.8 446.4C414.6 447.6 413.4 448.8 412.8 450.6C412.2 452.4 411.6 454.2 411 456C413.4 455.4 416.4 455.4 418.2 454.8C420.6 454.2 422.4 454.2 423.6 453.6C425.4 453.6 426 453 427.2 452.4C427.8 451.8 428.4 451.2 429 450.6C429.6 450 430.2 449.4 430.2 448.8C430.2 448.2 430.2 447.6 430.8 447ZM460.8 441C462 441 463.2 441.6 464.4 442.2L460.2 474L458.4 474C457.8 474 457.2 473.4 457.2 473.4L457.2 472.8L458.4 462.6C457.2 464.4 456.6 466.2 455.4 467.4C454.2 468.6 453 469.8 451.8 471C450.6 472.2 449.4 472.8 448.2 473.4C447 474 445.2 474 444 474C442.8 474 441.6 474 440.4 472.8C439.8 472.2 438.6 471.6 438 470.4C437.4 469.2 436.8 468 436.2 466.8C435.6 465.6 435.6 463.8 435.6 462C435.6 460.2 435.6 458.4 436.2 456.6C436.8 454.8 437.4 453 438.6 451.2C439.2 449.4 440.4 447.6 441.6 446.4C442.8 445.2 444 444 445.8 442.8C447 441.6 448.8 441 450.6 440.4C452.4 439.8 454.2 439.8 456 439.8C457.8 439.8 459 440.4 460.8 441ZM460.2 443.4C459 442.8 457.8 442.8 456 442.8C454.8 442.8 453 442.8 451.8 443.4C450 443.4 448.8 444.6 447.6 445.2C446.4 445.8 445.2 447 444 448.2C442.8 449.4 441.6 451.2 441 452.4C440.4 454.2 439.8 455.4 439.2 457.2C438.6 458.4 438.6 460.2 438.6 462C438.6 465 439.2 467.4 440.4 469.2C441.6 471 442.8 471.6 445.2 471.6C446.4 471.6 447.6 471 448.8 470.4C450 469.8 451.2 468.6 452.4 467.4C453.6 466.2 454.2 464.4 455.4 462.6C456.6 460.8 457.8 459 458.4 456.6L460.2 443.4ZM495.6 426L498.6 426L492.6 474.6L490.8 474.6C490.2 474.6 489.6 474 489.6 474L489.6 473.4L490.8 462.6C489.6 464.4 489 466.2 487.8 467.4C486.6 468.6 485.4 469.8 484.2 471C483 472.2 481.8 472.8 480.6 473.4C479.4 474 477.6 474 476.4 474C475.2 474 474 474 472.8 473.4C471.6 472.8 470.4 472.2 469.8 471C469.2 469.8 468.6 468.6 468 467.4C467.4 466.2 467.4 464.4 467.4 462.6C467.4 460.8 467.4 459 468 457.2C468.6 455.4 469.2 453.6 469.8 451.8C470.4 450 471 448.2 472.2 447C472.8 445.8 474 444.6 475.2 443.4C476.4 442.2 478.2 441.6 479.4 441C481.2 440.4 482.4 439.8 484.2 439.8C486 439.8 487.2 440.4 489 441C490.2 441.6 491.4 442.8 492.6 444.6L495.6 426ZM493.2 447.6C492 445.8 490.8 444.6 489.6 444C487.8 443.4 486.6 442.8 484.8 442.8C483 442.8 481.8 442.8 480.6 443.4C479.4 444 478.2 444.6 477 445.8C476.4 447 475.2 448.2 474.6 449.4C474 450.6 473.4 452.4 472.8 453.6C472.2 454.8 471.6 456 471.6 457.8C471 459 471 460.8 471 462C471 465 471.6 467.4 472.8 469.2C473.4 471 475.2 471.6 477.6 471.6C478.8 471.6 480 471 481.2 470.4C482.4 469.8 483.6 468.6 484.8 467.4C486 466.2 487.2 464.4 488.4 462.6C489.6 460.8 490.8 459 491.4 456.6L493.2 447.6ZM511.8 428.4C511.8 429 511.8 429 511.8 429.6C511.8 430.2 511.8 430.2 511.8 430.8C511.8 431.4 511.2 432 511.2 432C510.6 432 510.6 432.6 510 432.6C509.4 432.6 509.4 432.6 508.8 432.6C508.2 432.6 508.2 432.6 507.6 432.6C507 432.6 506.4 432 506.4 432C506.4 431.4 505.8 431.4 505.8 430.8C505.8 430.2 505.8 430.2 505.8 429.6C505.8 429 505.8 429 505.8 428.4C505.8 427.8 506.4 427.2 506.4 427.2C507 427.2 507 426.6 507.6 426.6C508.2 426.6 508.2 426.6 508.8 426.6C509.4 426.6 509.4 426.6 510 426.6C510.6 426.6 511.2 427.2 511.2 427.2C511.8 427.2 511.8 427.8 511.8 428.4ZM506.4 440.4L509.4 440.4L505.8 474L502.2 474L506.4 440.4ZM540.6 442.2C541.8 444 542.4 446.4 542.4 449.4C542.4 449.4 542.4 450.6 542.4 451.2C542.4 451.8 542.4 452.4 542.4 453.6C542.4 454.8 541.8 456 541.8 457.8C541.8 459.6 541.8 462 541.2 464.4C540.6 467.4 540.6 470.4 540 474L537 474L539.4 453C539.4 451.8 539.4 451.2 539.4 450C539.4 447.6 538.8 445.8 538.2 444.6C537 443.4 535.8 442.8 534 442.8C532.8 442.8 531.6 443.4 530.4 444C529.2 445.2 528 445.8 526.8 447C525.6 448.2 524.4 449.4 523.2 451.2C522 452.4 520.8 454.8 520.2 456.6L518.4 474L515.4 474L520.2 440.4L521.4 440.4C522 440.4 522.6 441 522.6 441.6L521.4 451.2C522 449.4 523.2 447.6 524.4 446.4C525.6 445.2 526.8 444 528 442.8C529.2 441.6 530.4 441 531.6 440.4C533.4 439.8 534.6 439.8 535.8 439.8C538.2 439.8 540 441 540.6 442.2ZM565.8 439.2L574.8 439.2L574.8 441C574.8 441.6 574.8 441.6 574.2 441.6L568.8 442.2C569.4 442.8 570 444 570 444.6C570.6 445.8 570.6 446.4 570.6 447.6C570.6 448.8 570.6 450 570 451.2C569.4 452.4 569.4 453.6 568.8 454.2C568.8 455.4 568.2 456 567.6 456.6C567.6 457.8 567 458.4 566.4 459C565.8 460.2 565.2 460.8 565.2 461.4C564.6 462 564.6 463.2 564.6 463.8C564.6 464.4 565.2 465 565.2 465.6C565.8 466.2 565.8 466.8 566.4 467.4C566.4 468 567 468.6 567.6 469.2C568.2 469.8 568.2 470.4 568.8 471C569.4 471.6 570 472.2 570 472.8C570.6 473.4 570.6 474.6 570.6 475.2C570.6 477 570 478.2 569.4 479.4C568.8 480.6 567.6 481.8 566.4 483C565.2 484.2 563.4 484.8 561.6 485.4C559.8 485.4 558 486 555.6 486C553.8 486 552 486 550.2 487.2C549 486.6 547.8 486 546.6 485.4C545.4 484.8 544.8 484.2 544.2 483C543.6 481.8 543.6 480.6 543.6 479.4C543.6 477.6 544.2 476.4 544.8 475.2C546 474 547.2 472.8 548.4 472.2C549 472 549.6 471.8 550.2 471.6C549 472.2 548.4 472.8 547.8 474C547.2 475.2 547.2 475.8 547.2 477C547.2 477.6 547.2 478.8 547.8 479.4C548.4 480 549 480.6 549.6 481.2C550.2 481.8 551.4 482.4 552.6 482.4C553.8 483 555 483 556.2 483C558 483 559.8 483 561 482.4C562.2 481.8 563.4 481.2 564.6 480.6C565.8 480 566.4 479.4 567 478.2C567 477.6 567.6 476.4 567.6 475.2C567.6 474 567.6 472.8 567 472.2C567 471.6 566.4 471 565.8 470.4C565.6 470.4 564.8 469.81 564.6 469.8C564 469.2 563.4 468.6 563.4 468C562.8 467.4 562.8 466.8 562.8 466.2C562.8 465.6 563.4 464.4 563.4 463.8C564 463.2 564.6 462 565.2 460.8C564 461.4 563.4 461.4 562.2 462C561 462.6 559.8 462.6 558.6 462.6C557.4 462.6 556.2 462.6 555 462C553.8 461.4 552.6 460.8 552 460.2C551.4 459.6 550.8 458.4 550.2 457.2C549.6 456 549.6 454.8 549.6 453C549.6 451.2 549.6 449.4 550.2 448.2C550.8 446.4 551.4 445.2 552.6 444C553.8 442.8 555 441.6 556.8 441C558.6 440.4 560.4 439.8 562.2 439.8C562.8 439.8 564 440.4 565.2 440.4C565.8 441 567 441 565.8 439.2ZM550.2 471.6C551.4 471 552.6 470.4 554.4 469.8C556.2 469.2 558 469.2 560.4 469.2C561.6 469.2 562.2 469.2 563.4 469.2C563.4 469.45 563.45 469.64 563.54 469.8C563.05 469.8 562.53 469.8 562.2 469.8C561.6 469.8 560.4 469.8 559.8 469.8C557.4 469.8 555.6 469.8 553.8 470.4C552.6 470.8 551.4 471.2 550.2 471.6ZM563.54 469.8C563.94 469.8 564.9 470.38 565.18 470.39C564.46 470.37 563.82 470.27 563.54 469.8ZM565.18 470.39C565.19 470.39 565.19 470.39 565.19 470.39C565.19 470.39 565.19 470.39 565.18 470.39ZM567.6 450.6C567.6 448.2 567 446.4 565.8 445.2C564.6 444 563.4 443.4 561 443.4C559.8 443.4 558.6 443.4 557.4 444C556.2 444.6 555 445.2 554.4 446.4C553.8 447 553.2 448.2 552.6 449.4C552 450.6 552 451.8 552 453C552 455.4 552.6 457.2 553.8 458.4C555 459.6 556.2 460.2 558.6 460.2C560.4 460.2 561.6 459.6 562.8 459C564 458.4 565.2 457.8 565.8 456.6C566.4 455.4 567 454.2 567.6 453C568.2 451.8 568.2 450.6 567.6 450.6ZM596.4 426.6L600 426.6L594 474L591 474L596.4 426.6ZM631.2 442.2C632.4 444 633 446.4 633 449.4C633 449.4 633 450.6 633 451.2C633 451.8 633 452.4 633 453.6C633 454.8 632.4 456 632.4 457.8C632.4 459.6 632.4 462 631.8 464.4C631.2 467.4 631.2 470.4 630.6 474L627.6 474L630 453C630 451.8 630 451.2 630 450C630 447.6 629.4 445.8 628.8 444.6C627.6 443.4 626.4 442.8 624.6 442.8C623.4 442.8 622.2 443.4 621 444C619.8 445.2 618.6 445.8 617.4 447C616.2 448.2 615 449.4 613.8 451.2C612.6 452.4 611.4 454.8 610.8 456.6L609 474L606 474L610.2 440.4L611.4 440.4C612 440.4 612.6 441 612.6 441.6L611.4 451.2C612 449.4 613.2 447.6 614.4 446.4C615.6 445.2 616.8 444 618 442.8C619.2 441.6 620.4 441 621.6 440.4C623.4 439.8 624.6 439.8 625.8 439.8C628.2 439.8 630 441 631.2 442.2ZM664.2 442.2C665.4 444 666 446.4 666 449.4C666 449.4 666 450.6 666 451.2C666 451.8 666 452.4 666 453.6C666 454.8 665.4 456 665.4 457.8C665.4 459.6 665.4 462 664.8 464.4C664.2 467.4 664.2 470.4 663.6 474L660.6 474L663 453C663 451.8 663 451.2 663 450C663 447.6 662.4 445.8 661.8 444.6C660.6 443.4 659.4 442.8 657.6 442.8C656.4 442.8 655.2 443.4 654 444C652.8 445.2 651.6 445.8 650.4 447C649.2 448.2 648 449.4 646.8 451.2C645.6 452.4 644.4 454.8 643.8 456.6L642 474L639 474L643.2 440.4L644.4 440.4C645 440.4 645.6 441 645.6 441.6L644.4 451.2C645 449.4 646.2 447.6 647.4 446.4C648.6 445.2 649.8 444 651 442.8C652.2 441.6 653.4 441 654.6 440.4C656.4 439.8 657.6 439.8 658.8 439.8C661.2 439.8 663.6 441 664.2 442.2ZM699 447.6C699.6 448.8 699.6 451.2 699.6 453C699.6 456 699 458.4 698.4 460.8C697.2 463.2 696 465.6 694.8 467.4C693 469.8 691.2 471 689.4 472.2C687.6 473.4 685.2 474 682.8 474C681 474 679.2 473.4 678 472.8C676.8 472.2 675.6 471.6 674.4 470.4C673.2 469.2 672.6 468 672 466.2C671.4 464.4 671.4 462.6 671.4 460.2C671.4 457.2 672 454.8 672.6 452.4C673.8 450 675 447.6 676.2 445.8C678 443.4 679.8 442.2 681.6 441C683.4 439.8 685.8 439.2 688.2 439.2C690 439.2 691.8 439.8 693 440.4C694.2 441.6 695.4 442.2 696.6 443.4C697.8 444.6 698.4 446.4 699 447.6ZM696.6 454.2C696.6 450.6 696 447.6 694.2 445.8C693 444 690.6 442.8 687.6 442.8C686.4 442.8 685.2 442.8 684 443.4C682.8 444 682.2 444.6 681 445.2C680.4 445.8 679.2 447 678.6 448.2C678 449.4 677.4 450.6 676.8 451.8C676.2 453 675.6 454.8 675.6 456C675 457.8 675 459 675 460.8C675 464.4 675.6 467.4 677.4 469.2C678.6 471 681 472.2 684 472.2C685.8 472.2 687.6 471.6 689.4 470.4C691.2 469.2 692.4 468 693.6 466.2C694.2 464.4 695.4 462.6 696 460.2C696.6 458.4 696.6 456 696.6 454.2ZM732 440.4L714.6 473.4L712.2 473.4L703.2 440.4L706.2 440.4C706.8 440.4 706.8 441 706.8 441L714 467.4C714 468 714 468.6 714 469.2C714 469.2 714 469.8 714 470.4C714.6 469.2 714.6 468.6 715.2 467.4L729 441L729.6 440.4L732 440.4ZM756.6 440.4C757.8 440.4 759 441 760.2 441.6L756 473.4L754.2 473.4C753.6 473.4 753 472.8 753 472.8L753 472.2L754.2 462C753 463.8 752.4 465.6 751.2 466.8C750.6 468 749.4 469.2 748.2 470.4C747 471.6 745.8 472.2 744.6 472.8C743.4 473.4 741.6 473.4 740.4 473.4C739.2 473.4 738 473.4 736.8 472.8C736.2 472.2 735 471.6 734.4 470.4C733.8 469.2 733.2 468 732.6 466.8C732 465.6 732 463.8 732 462C732 460.2 732 458.4 732.6 456.6C733.2 454.8 733.8 453 735 451.2C735.6 449.4 736.8 447.6 738 446.4C739.2 445.2 740.4 444 742.2 442.8C743.4 441.6 745.2 441 747 440.4C748.8 439.8 750.6 439.8 752.4 439.8C754.2 439.8 755.4 440.4 756.6 440.4ZM756.6 443.4C755.4 442.8 754.2 442.8 752.4 442.8C751.2 442.8 749.4 442.8 748.2 443.4C746.4 443.4 745.2 444.6 744 445.2C742.8 445.8 741.6 447 740.4 448.2C739.2 449.4 738 451.2 737.4 452.4C736.8 454.2 736.2 455.4 735.6 457.2C735 458.4 735 460.2 735 462C735 465 735.6 467.4 736.8 469.2C738 471 739.2 471.6 741.6 471.6C742.8 471.6 744 471 745.2 470.4C746.4 469.8 747.6 468.6 748.8 467.4C750 466.2 750.6 464.4 751.8 462.6C753 460.8 754.2 459 754.8 456.6L756.6 443.4ZM774 442.2L782.4 442.2L782.4 444.6L772.8 444.6L770.4 463.2C770.4 464.4 770.4 465 770.4 465.6C770.4 466.2 770.4 466.8 770.4 467.4C770.4 468 770.4 468 770.4 468C770.4 469.2 771 470.4 771.6 471C772.2 471.6 772.8 472.2 774 472.2C774.6 472.2 775.2 471.6 775.8 471.6C776.4 471.6 777 471 777.6 471C778.2 471 778.8 470.4 778.8 470.4C778.8 469.8 779.4 469.8 779.4 469.8C780 469.8 780 469.8 780 469.8L780.6 471C779.4 472.2 778.2 472.8 777 473.4C775.8 474 774.6 474 773.4 474C771.6 474 770.4 474 769.2 472.8C768 471.6 767.4 469.8 767.4 468C767.4 468 767.4 467.4 767.4 466.8C767.4 466.2 767.4 465.6 767.4 465C767.4 464.4 767.4 463.8 767.4 462.6L769.8 444L765.6 444C765 444 765 444 765 443.4L765 442.2L770.4 441.6L772.8 429.6C773.4 429.6 773.4 429 773.4 429L775.2 429L774 442.2ZM790.2 440.4L793.8 440.4L789.6 474L786.6 474L790.2 440.4ZM795.6 428.4C795.6 429 795.6 429 795.6 429.6C795.6 430.2 795.6 430.2 795.6 430.8C795.6 431.4 795 432 795 432C794.4 432 794.4 432.6 793.8 432.6C793.2 432.6 793.2 432.6 792.6 432.6C792 432.6 792 432.6 791.4 432.6C790.8 432.6 790.2 432 790.2 432C790.2 431.4 789.6 431.4 789.6 430.8C789.6 430.2 789.6 430.2 789.6 429.6C789.6 429 789.6 429 789.6 428.4C789.6 427.8 790.2 427.2 790.2 427.2C790.8 427.2 790.8 426.6 791.4 426.6C792 426.6 792 426.6 792.6 426.6C793.2 426.6 793.2 426.6 793.8 426.6C794.4 426.6 795 427.2 795 427.2C795.6 427.2 795.6 427.8 795.6 428.4ZM826.2 447.6C826.8 448.8 826.8 451.2 826.8 453C826.8 456 826.2 458.4 825.6 460.8C824.4 463.2 823.2 465.6 822 467.4C820.2 469.8 818.4 471 816.6 472.2C814.8 473.4 812.4 474 810 474C808.2 474 806.4 473.4 805.2 472.8C804 472.2 802.8 471.6 801.6 470.4C800.4 469.2 799.8 468 799.2 466.2C798.6 464.4 798.6 462.6 798.6 460.2C798.6 457.2 799.2 454.8 799.8 452.4C801 450 802.2 447.6 803.4 445.8C805.2 443.4 807 442.2 808.8 441C810.6 439.8 813 439.2 815.4 439.2C817.2 439.2 819 439.8 820.2 440.4C821.4 441.6 822.6 442.2 823.8 443.4C825 444.6 826.2 446.4 826.2 447.6ZM823.8 454.2C823.8 450.6 823.2 447.6 821.4 445.8C820.2 444 817.8 442.8 814.8 442.8C813.6 442.8 812.4 442.8 811.2 443.4C810 444 809.4 444.6 808.2 445.2C807.6 445.8 806.4 447 805.8 448.2C805.2 449.4 804.6 450.6 804 451.8C803.4 453 802.8 454.8 802.8 456C802.2 457.8 802.2 459 802.2 460.8C802.2 464.4 802.8 467.4 804.6 469.2C805.8 471 808.2 472.2 811.2 472.2C813 472.2 814.8 471.6 816.6 470.4C818.4 469.2 819.6 468 820.8 466.2C821.4 464.4 822.6 462.6 823.2 460.2C823.8 458.4 824.4 456 823.8 454.2ZM856.8 442.2C858 444 858.6 446.4 858.6 449.4C858.6 449.4 858.6 450.6 858.6 451.2C858.6 451.8 858.6 452.4 858.6 453.6C858.6 454.8 858 456 858 457.8C858 459.6 857.4 462 857.4 464.4C856.8 467.4 856.8 470.4 856.2 474L853.2 474L855.6 453C855.6 451.8 855.6 451.2 855.6 450C855.6 447.6 855 445.8 854.4 444.6C853.2 443.4 852 442.8 850.2 442.8C849 442.8 847.8 443.4 846.6 444C845.4 445.2 844.2 445.8 843 447C841.8 448.2 840.6 449.4 839.4 451.2C838.2 452.4 837 454.8 836.4 456.6L834.6 474L831.6 474L835.8 440.4L837 440.4C837.6 440.4 838.2 441 838.2 441.6L837 451.2C837.6 449.4 838.8 447.6 840 446.4C841.2 445.2 842.4 444 843.6 442.8C844.8 441.6 846 441 847.2 440.4C849 439.8 850.2 439.8 851.4 439.8C853.8 439.8 856.2 441 856.8 442.2ZM886.2 428.4C886.2 429 886.2 429 886.2 429.6C886.2 430.2 886.2 430.2 886.2 430.8C886.2 431.4 885.6 432 885.6 432C885 432 885 432.6 884.4 432.6C883.8 432.6 883.8 432.6 883.2 432.6C882.6 432.6 882.6 432.6 882 432.6C881.4 432.6 880.8 432 880.8 432C880.8 431.4 880.2 431.4 880.2 430.8C880.2 430.2 880.2 430.2 880.2 429.6C880.2 429 880.2 429 880.2 428.4C880.2 427.8 880.8 427.2 880.8 427.2C881.4 427.2 881.4 426.6 882 426.6C882.6 426.6 882.6 426.6 883.2 426.6C883.8 426.6 883.8 426.6 884.4 426.6C885 426.6 885.6 427.2 885.6 427.2C886.2 427.2 886.2 427.8 886.2 428.4ZM880.8 440.4L884.4 440.4L880.2 474L876.6 474L880.8 440.4ZM915.6 442.2C916.8 444 917.4 446.4 917.4 449.4C917.4 449.4 917.4 450.6 917.4 451.2C917.4 451.8 917.4 452.4 917.4 453.6C917.4 454.8 916.8 456 916.8 457.8C916.8 459.6 916.2 462 916.2 464.4C915.6 467.4 915.6 470.4 915 474L912 474L913.8 453C913.8 451.8 913.8 451.2 913.8 450C913.8 447.6 913.2 445.8 912.6 444.6C911.4 443.4 910.2 442.8 908.4 442.8C907.2 442.8 906 443.4 904.8 444C903.6 445.2 902.4 445.8 901.2 447C900 448.2 898.8 449.4 897.6 451.2C896.4 452.4 895.2 454.8 894.6 456.6L892.8 474L889.8 474L894 440.4L895.8 440.4C896.4 440.4 897 441 897 441.6L895.8 451.2C896.4 449.4 897.6 447.6 898.8 446.4C900 445.2 901.2 444 902.4 442.8C903.6 441.6 904.8 441 906 440.4C907.8 439.8 909 439.8 910.2 439.8C912.6 439.8 914.4 441 915.6 442.2ZM964.8 429C967.2 431.4 968.4 434.4 968.4 438C968.4 440.4 967.8 442.8 967.2 444.6C966.6 447 965.4 448.8 963.6 450C962.4 451.8 960.6 453 958.2 453.6C956.4 454.2 953.4 454.8 951 454.8L942.6 454.8L940.2 474L936.6 474L942.6 426.6L954 426.6C958.8 426.6 962.4 427.8 964.8 429ZM965.4 439.2C965.4 436.2 964.2 433.8 962.4 432C960.6 430.2 957.6 429.6 954 429.6L945.6 429.6L942.6 452.4L951 452.4C953.4 452.4 955.2 451.8 957 451.2C958.8 450.6 960 449.4 961.2 448.2C962.4 447 963.6 445.8 964.2 444C964.8 442.2 964.8 440.4 965.4 439.2ZM993.6 445.2C994.2 446.4 994.2 447 994.2 447.6C994.2 448.2 993.6 449.4 993.6 450C993.6 450.6 993 451.8 992.4 452.4C991.8 453 991.2 453.6 990 454.2C988.8 454.8 987.6 455.4 985.8 456C984 456 982.2 456.6 979.8 457.2C977.4 457.8 974.4 457.8 971.4 458.4C971.4 458.4 971.4 459 971.4 459.6C971.4 460.2 971.4 460.2 971.4 460.8C971.4 464.4 972 466.8 973.8 468.6C975.6 470.4 978 471.6 981 471.6C982.2 471.6 982.8 471 984 471C984.6 470.4 985.8 470.4 986.4 469.8C987 469.2 987.6 469.2 988.2 468.6C988.8 468 989.4 468 990 467.4C990.6 466.8 990.6 466.2 991.2 466.2C991.8 465.6 992.4 465.6 992.4 465.6L993.6 466.8C993 468 991.8 469.2 990.6 469.8C990 470.4 988.8 471 987.6 471.6C986.4 472.2 985.2 472.8 984 472.8C982.8 473.4 981.6 473.4 980.4 473.4C978.6 473.4 976.8 472.8 975.6 472.2C974.4 471.6 973.2 471 972 469.8C970.8 468.6 970.2 467.4 969.6 465.6C969 463.8 969 462 969 460.2C969 459 969 457.2 969.6 455.4C970.2 453.6 970.8 452.4 971.4 450.6C972 449.4 972.6 447.6 973.8 446.4C975 445.2 976.2 444 977.4 442.8C978.6 441.6 979.8 441 981.6 440.4C982.8 439.8 984.6 439.8 986.4 439.8C988.2 439.8 989.4 439.8 990.6 440.4C991.8 441 993 441.6 993.6 442.2C994.2 443.4 994.8 444 993.6 445.2ZM993 447C993 446.4 992.4 445.8 992.4 445.2C991.8 445.2 991.8 444.6 991.2 444C990.6 443.4 990 442.8 989.4 442.8C988.8 442.2 987.6 442.2 986.4 442.2C984.6 442.2 982.8 442.8 981.6 443.4C980.4 444 979.2 445.2 978 446.4C976.8 447.6 975.6 448.8 975 450.6C974.4 452.4 973.8 454.2 973.2 456C975.6 455.4 978.6 455.4 980.4 454.8C982.8 454.2 984.6 454.2 985.8 453.6C987.6 453.6 988.2 453 989.4 452.4C990 451.8 990.6 451.2 991.2 450.6C991.8 450 992.4 449.4 992.4 448.8C992.4 448.2 992.4 447.6 993 447ZM1026 426L1029.6 426L1023.6 474.6L1021.8 474.6C1021.2 474.6 1020.6 474 1020.6 474L1020.6 473.4L1021.8 462.6C1020.6 464.4 1020 466.2 1018.8 467.4C1017.6 468.6 1016.4 469.8 1015.2 471C1014 472.2 1012.8 472.8 1011.6 473.4C1010.4 474 1008.6 474 1007.4 474C1006.2 474 1005 474 1003.8 473.4C1002.6 472.8 1001.4 472.2 1000.8 471C1000.2 469.8 999.6 468.6 999 467.4C998.4 466.2 998.4 464.4 998.4 462.6C998.4 460.8 998.4 459 999 457.2C999.6 455.4 1000.2 453.6 1000.8 451.8C1001.4 450 1002 448.2 1003.2 447C1003.8 445.8 1005 444.6 1006.2 443.4C1007.4 442.2 1009.2 441.6 1010.4 441C1012.2 440.4 1013.4 439.8 1015.2 439.8C1017 439.8 1018.8 440.4 1020 441C1021.2 441.6 1022.4 442.8 1023.6 444.6L1026 426ZM1023.6 447.6C1022.4 445.8 1021.2 444.6 1020 444C1018.2 443.4 1017 442.8 1015.2 442.8C1013.4 442.8 1012.2 442.8 1011 443.4C1009.8 444 1008.6 444.6 1007.4 445.8C1006.8 447 1005.6 448.2 1005 449.4C1004.4 450.6 1003.8 452.4 1003.2 453.6C1002.6 454.8 1002 456 1002 457.8C1001.4 459 1001.4 460.8 1001.4 462C1001.4 465 1002 467.4 1003.2 469.2C1003.8 471 1005.6 471.6 1008 471.6C1009.2 471.6 1010.4 471 1011.6 470.4C1012.8 469.8 1014 468.6 1015.2 467.4C1016.4 466.2 1017.6 464.4 1018.8 462.6C1020 460.8 1021.2 459 1021.8 456.6L1023.6 447.6ZM1042.8 428.4C1042.8 429 1042.8 429 1042.8 429.6C1042.8 430.2 1042.8 430.2 1042.8 430.8C1042.8 431.4 1042.2 432 1042.2 432C1041.6 432 1041.6 432.6 1041 432.6C1040.4 432.6 1040.4 432.6 1039.8 432.6C1039.2 432.6 1039.2 432.6 1038.6 432.6C1038 432.6 1037.4 432 1037.4 432C1037.4 431.4 1036.8 431.4 1036.8 430.8C1036.8 430.2 1036.8 430.2 1036.8 429.6C1036.8 429 1036.8 429 1036.8 428.4C1036.8 427.8 1037.4 427.2 1037.4 427.2C1038 427.2 1038 426.6 1038.6 426.6C1039.2 426.6 1039.2 426.6 1039.8 426.6C1040.4 426.6 1040.4 426.6 1041 426.6C1041.6 426.6 1042.2 427.2 1042.2 427.2C1042.2 427.2 1042.2 427.8 1042.8 428.4ZM1037.4 440.4L1040.4 440.4L1036.2 474L1033.2 474L1037.4 440.4ZM1069.8 440.4C1071 440.4 1072.2 441 1073.4 441.6L1069.2 473.4L1067.4 473.4C1066.8 473.4 1066.2 472.8 1066.2 472.8L1066.2 472.2L1067.4 462C1066.2 463.8 1065.6 465.6 1064.4 466.8C1063.8 468 1062.6 469.2 1061.4 470.4C1060.2 471.6 1059 472.2 1057.8 472.8C1056.6 473.4 1054.8 473.4 1053.6 473.4C1052.4 473.4 1051.2 473.4 1050 472.8C1049.4 472.2 1048.2 471.6 1047.6 470.4C1047 469.2 1046.4 468 1045.8 466.8C1045.2 465.6 1045.2 463.8 1045.2 462C1045.2 460.2 1045.2 458.4 1045.8 456.6C1046.4 454.8 1047 453 1048.2 451.2C1048.8 449.4 1050 447.6 1051.2 446.4C1052.4 445.2 1053.6 444 1055.4 442.8C1056.6 441.6 1058.4 441 1060.2 440.4C1062 439.8 1063.8 439.8 1065.6 439.8C1066.8 439.8 1068 440.4 1069.8 440.4ZM1069.8 443.4C1068.6 442.8 1067.4 442.8 1065.6 442.8C1064.4 442.8 1062.6 442.8 1061.4 443.4C1059.6 443.4 1058.4 444.6 1057.2 445.2C1056 445.8 1054.8 447 1053.6 448.2C1052.4 449.4 1051.2 451.2 1050.6 452.4C1050 454.2 1049.4 455.4 1048.8 457.2C1048.2 458.4 1048.2 460.2 1048.2 462C1048.2 465 1048.8 467.4 1050 469.2C1051.2 471 1052.4 471.6 1054.8 471.6C1056 471.6 1057.2 471 1058.4 470.4C1059.6 469.8 1060.8 468.6 1062 467.4C1063.2 466.2 1063.8 464.4 1065 462.6C1066.2 460.8 1067.4 459 1068 456.6L1069.8 443.4ZM1085.4 442.2L1095 442.2L1095 444.6L1085.4 444.6L1083 463.2C1083 464.4 1083 465 1083 465.6C1083 466.2 1083 466.8 1083 467.4C1083 468 1083 468 1083 468C1083 469.2 1083.6 470.4 1084.2 471C1084.8 471.6 1085.4 472.2 1086.6 472.2C1087.2 472.2 1087.8 471.6 1088.4 471.6C1089 471.6 1089.6 471 1090.2 471C1090.8 471 1091.4 470.4 1091.4 470.4C1091.4 469.8 1092 469.8 1092 469.8C1092.6 469.8 1092.6 469.8 1092.6 469.8L1093.2 471C1092 472.2 1090.8 472.8 1089.6 473.4C1088.4 474 1087.2 474 1086 474C1084.2 474 1083 474 1081.8 472.8C1080.6 471.6 1080 469.8 1080 468C1080 468 1080 467.4 1080 466.8C1080 466.2 1080 465.6 1080 465C1080 464.4 1080 463.8 1080 462.6L1082.4 444L1078.2 444C1077.6 444 1077.6 444 1077.6 443.4L1077.6 442.2L1083 441.6L1085.4 429.6C1086 429.6 1086 429 1086 429L1088.4 429L1085.4 442.2ZM1115.4 440.4C1116.6 440.4 1117.2 440.4 1118.4 441L1117.8 444C1116.6 443.4 1116 443.4 1114.8 443.4C1112.4 443.4 1110 444.6 1108.2 447C1106.4 449.4 1104.6 453 1103.4 457.2L1101.6 474L1098.6 474L1102.8 440.4L1104 440.4C1104.6 440.4 1105.2 441 1105.2 441.6L1104 451.2C1105.8 447.6 1107.6 444.6 1109.4 442.8C1111.2 441 1113.6 440.4 1115.4 440.4ZM1129.8 428.4C1129.8 429 1129.8 429 1129.8 429.6C1129.8 430.2 1129.8 430.2 1129.8 430.8C1129.8 431.4 1129.2 432 1129.2 432C1128.6 432 1128.6 432.6 1128 432.6C1127.4 432.6 1127.4 432.6 1126.8 432.6C1126.2 432.6 1126.2 432.6 1125.6 432.6C1125 432.6 1124.4 432 1124.4 432C1124.4 431.4 1123.8 431.4 1123.8 430.8C1123.8 430.2 1123.8 430.2 1123.8 429.6C1123.8 429 1123.8 429 1123.8 428.4C1123.8 427.8 1124.4 427.2 1124.4 427.2C1125 427.2 1125 426.6 1125.6 426.6C1126.2 426.6 1126.2 426.6 1126.8 426.6C1127.4 426.6 1127.4 426.6 1128 426.6C1128.6 426.6 1129.2 427.2 1129.2 427.2C1129.8 427.2 1129.8 427.8 1129.8 428.4ZM1124.4 440.4L1128 440.4L1123.8 474L1120.8 474L1124.4 440.4ZM1157.4 443.4C1158 444 1158.6 444.6 1159.2 445.2L1158 446.4C1158 447 1157.4 447 1157.4 447C1157.4 447 1157.4 447 1156.8 446.4C1156.8 445.8 1156.2 445.8 1155.6 445.2C1155 444.6 1153.8 444.6 1153.2 444C1152 443.4 1150.8 443.4 1149.6 443.4C1147.8 443.4 1146 443.4 1144.2 444.6C1142.4 445.8 1141.2 447 1140 448.8C1138.8 450.6 1137.6 452.4 1137 454.8C1136.4 457.2 1135.8 459.6 1135.8 462C1135.8 463.2 1135.8 465 1136.4 466.2C1137 468 1137.6 468.6 1138.2 469.8C1139.4 471 1140 471.6 1141.2 472.2C1142.4 472.8 1143.6 472.8 1145.4 472.8C1146.6 472.8 1147.2 472.2 1148.4 472.2C1149 471.6 1150.2 471.6 1150.8 471C1151.4 470.4 1152 470.4 1152.6 469.8C1152.6 469.2 1153.2 469.2 1153.8 468.6C1154.4 468 1154.4 467.4 1155 467.4C1155 466.8 1155.6 466.8 1155.6 466.8L1156.8 468C1155.6 469.2 1154.4 470.4 1153.2 471C1152 471.6 1151.4 472.2 1150.2 472.8C1149.6 473.4 1148.4 474 1147.2 474C1146 474 1144.8 474 1143.6 474C1141.8 474 1140 473.4 1138.8 472.8C1137.6 472.2 1136.4 471 1135.2 469.8C1134 468.6 1133.4 467.4 1132.8 465.6C1132.2 463.8 1132.2 462 1132.2 460.2C1132.2 458.4 1132.2 456.6 1132.8 454.8C1133.4 453 1134 451.8 1134.6 450C1135.2 448.8 1135.8 447 1137 445.8C1138.2 444 1139.4 443.4 1140.6 442.2C1141.8 441 1143.6 440.4 1144.8 439.8C1146.6 439.2 1147.8 439.2 1149.6 439.2C1150.8 439.2 1152 439.8 1152.6 439.8C1153.2 440.4 1154.4 440.4 1155 441C1155.6 441.6 1156.8 442.2 1157.4 443.4ZM1215.6 438C1216.2 440.4 1216.8 443.4 1216.8 446.4C1216.8 450.6 1216.2 454.2 1215 457.8C1213.8 461.4 1212 464.4 1209.6 466.8C1207.2 469.2 1204.8 471 1201.8 472.2C1198.8 473.4 1195.8 474 1192.2 474C1189.2 474 1186.8 474 1184.4 472.8C1182 471.6 1180.2 470.4 1178.4 468.6C1176.6 466.8 1175.4 464.4 1174.8 462C1174.2 459.6 1173.6 456.6 1173.6 453.6C1173.6 449.4 1174.2 445.8 1175.4 442.2C1176.6 438.6 1178.4 435.6 1180.8 433.2C1183.2 430.8 1185.6 429 1188.6 427.8C1191.6 426.6 1194.6 426 1198.2 426C1201.2 426 1203.6 426 1206 427.2C1208.4 428.4 1210.2 429.6 1212 431.4C1213.8 433.2 1215 435.6 1215.6 438ZM1213.8 447C1213.8 444.6 1213.2 442.2 1212.6 439.8C1212 438 1210.8 436.2 1209.6 434.4C1208.4 432.6 1206.6 431.4 1204.8 430.8C1202.4 430.2 1200.6 429.6 1198.2 429.6C1195.2 429.6 1192.2 430.2 1189.8 431.4C1187.4 432.6 1185 433.8 1183.2 436.2C1181.4 438.6 1180.2 441 1179 444C1177.8 447 1177.2 450.6 1177.2 454.2C1177.2 456.6 1177.8 459 1178.4 461.4C1179 463.2 1180.2 465 1181.4 466.8C1182.6 468.6 1184.4 469.8 1186.2 470.4C1188.6 471 1190.4 471.6 1192.8 471.6C1195.8 471.6 1198.8 471 1201.2 469.8C1203.6 468.6 1206 467.4 1207.8 465C1209.6 462.6 1210.8 460.2 1212 457.2C1213.2 453.6 1213.2 450.6 1213.8 447ZM1237.8 440.4C1239 440.4 1239.6 440.4 1240.8 441L1240.2 444C1239 443.4 1238.4 443.4 1237.2 443.4C1234.8 443.4 1232.4 444.6 1230.6 447C1228.8 449.4 1227 453 1225.8 457.2L1224 474L1221 474L1225.2 440.4L1226.4 440.4C1227 440.4 1227.6 441 1227.6 441.6L1226.4 451.2C1228.2 447.6 1230 444.6 1231.8 442.8C1234.2 441 1236 440.4 1237.8 440.4ZM1249.8 442.2L1259.4 442.2L1259.4 444.6L1249.8 444.6L1247.4 463.2C1247.4 464.4 1247.4 465 1247.4 465.6C1247.4 466.2 1247.4 466.8 1247.4 467.4C1247.4 468 1247.4 468 1247.4 468C1247.4 469.2 1248 470.4 1248.6 471C1249.2 471.6 1249.8 472.2 1251 472.2C1251.6 472.2 1252.2 471.6 1252.8 471.6C1253.4 471.6 1254 471 1254.6 471C1255.2 471 1255.8 470.4 1255.8 470.4C1255.8 469.8 1256.4 469.8 1256.4 469.8C1257 469.8 1257 469.8 1257 469.8L1257.6 471C1256.4 472.2 1255.2 472.8 1254 473.4C1252.8 474 1251.6 474 1250.4 474C1248.6 474 1247.4 474 1246.2 472.8C1245 471.6 1244.4 469.8 1244.4 468C1244.4 468 1244.4 467.4 1244.4 466.8C1244.4 466.2 1244.4 465.6 1244.4 465C1244.4 464.4 1244.4 463.8 1244.4 462.6L1246.8 444L1242.6 444C1242 444 1242 444 1242 443.4L1242 442.2L1247.4 441.6L1249.8 429.6C1250.4 429.6 1250.4 429 1250.4 429L1252.8 429L1249.8 442.2ZM1289.4 441.6C1290.6 443.4 1291.2 445.8 1291.2 448.8C1291.2 448.8 1291.2 450 1291.2 450.6C1291.2 451.2 1291.2 451.8 1291.2 453C1291.2 454.2 1290.6 455.4 1290.6 457.2C1290.6 459 1290.6 461.4 1290 463.8C1289.4 466.8 1289.4 469.8 1288.8 473.4L1285.8 473.4L1288.2 452.4C1288.2 451.2 1288.2 450.6 1288.2 449.4C1288.2 447 1287.6 445.2 1287 444C1285.8 442.8 1284.6 442.2 1282.8 442.2C1281.6 442.2 1280.4 442.8 1279.2 443.4C1278 444 1276.8 444.6 1275.6 445.8C1274.4 447 1273.2 448.2 1272 450C1270.8 451.8 1269.6 453.6 1269 455.4L1266.6 473.4L1263.6 473.4L1269.6 424.8L1272.6 424.8L1269.6 450C1270.2 448.8 1271.4 447 1272.6 445.8C1273.8 444 1275 443.4 1276.2 442.2C1277.4 441.6 1278.6 441 1279.8 440.4C1281 439.8 1282.2 439.8 1283.4 439.8C1285.8 439.8 1287.6 441 1289.4 441.6ZM1323.6 447.6C1324.2 448.8 1324.2 451.2 1324.2 453C1324.2 456 1323.6 458.4 1323 460.8C1321.8 463.2 1320.6 465.6 1319.4 467.4C1317.6 469.8 1315.8 471 1314 472.2C1312.2 473.4 1309.8 474 1307.4 474C1305.6 474 1303.8 473.4 1302.6 472.8C1301.4 472.2 1300.2 471.6 1299 470.4C1297.8 469.2 1297.2 468 1296.6 466.2C1296 464.4 1296 462.6 1296 460.2C1296 457.2 1296.6 454.8 1297.2 452.4C1298.4 450 1299.6 447.6 1300.8 445.8C1302.6 443.4 1304.4 442.2 1306.2 441C1308 439.8 1310.4 439.2 1312.8 439.2C1314.6 439.2 1316.4 439.8 1317.6 440.4C1318.8 441.6 1320 442.2 1321.2 443.4C1322.4 444.6 1323 446.4 1323.6 447.6ZM1320.6 454.2C1320.6 450.6 1320 447.6 1318.2 445.8C1317 444 1314.6 442.8 1311.6 442.8C1310.4 442.8 1309.2 442.8 1308 443.4C1306.8 444 1306.2 444.6 1305 445.2C1304.4 445.8 1303.2 447 1302.6 448.2C1302 449.4 1301.4 450.6 1300.8 451.8C1300.2 453 1299.6 454.8 1299.6 456C1299 457.8 1299 459 1299 460.8C1299 464.4 1299.6 467.4 1301.4 469.2C1302.6 471 1305 472.2 1308 472.2C1309.8 472.2 1311.6 471.6 1313.4 470.4C1315.2 469.2 1316.4 468 1317.6 466.2C1318.2 464.4 1319.4 462.6 1320 460.2C1320.6 458.4 1321.2 456 1320.6 454.2ZM1357.8 446.4C1358.4 447.6 1358.4 449.4 1358.4 451.2C1358.4 453 1358.4 454.8 1357.8 456.6C1357.2 458.4 1356.6 460.2 1356 462C1355.4 463.8 1354.8 465.6 1353.6 466.8C1353 468 1351.8 469.2 1350.6 470.4C1349.4 471.6 1347.6 472.2 1346.4 472.8C1344.6 473.4 1343.4 474 1341.6 474C1339.2 474 1338 473.4 1336.2 472.8C1335 472.2 1333.8 471 1332.6 469.2L1330.8 485.4L1327.8 485.4L1333.2 440.4L1334.4 440.4C1335 440.4 1335.6 441 1335.6 441.6L1334.4 451.8C1335.6 450 1336.2 448.2 1337.4 447C1338.6 445.8 1339.8 444.6 1341 443.4C1342.2 442.2 1343.4 441.6 1344.6 441C1345.8 440.4 1347.6 440.4 1348.8 440.4C1350 440.4 1351.2 440.4 1352.4 441C1353.6 441.6 1354.8 442.2 1355.4 443.4C1356 444 1356.6 445.2 1357.8 446.4ZM1354.2 451.8C1354.2 448.8 1353.6 446.4 1352.4 444.6C1351.8 442.8 1350 442.2 1347.6 442.2C1345.8 442.2 1344.6 442.8 1343.4 443.4C1342.2 444 1341 445.2 1339.8 446.4C1338.6 447.6 1337.4 449.4 1336.2 451.2C1335 453 1333.8 454.8 1333.2 457.2L1332 466.8C1333.2 468.6 1334.4 469.8 1335.6 470.4C1337.4 471 1338.6 471.6 1340.4 471.6C1342.2 471.6 1343.4 471.6 1344.6 471C1345.8 470.4 1347 469.8 1348.2 468.6C1348.8 467.4 1350 466.2 1350.6 465C1351.2 463.8 1351.8 462 1352.4 460.8C1353 459.6 1353.6 458.4 1353.6 456.6C1354.2 454.8 1354.2 453.6 1354.2 451.8ZM1384.2 445.2C1384.8 446.4 1384.8 447 1384.8 447.6C1384.8 448.2 1384.2 449.4 1384.2 450C1384.2 450.6 1383.6 451.8 1383 452.4C1382.4 453 1381.8 453.6 1380.6 454.2C1379.4 454.8 1378.2 455.4 1376.4 456C1374.6 456 1372.8 456.6 1370.4 457.2C1368 457.8 1365 457.8 1362 458.4C1362 458.4 1362 459 1362 459.6C1362 460.2 1362 460.2 1362 460.8C1362 464.4 1362.6 466.8 1364.4 468.6C1366.2 470.4 1368.6 471.6 1371.6 471.6C1372.8 471.6 1373.4 471 1374.6 471C1375.2 470.4 1376.4 470.4 1377 469.8C1377.6 469.2 1378.2 469.2 1378.8 468.6C1379.4 468 1380 468 1380.6 467.4C1381.2 466.8 1381.2 466.2 1381.8 466.2C1382.4 465.6 1383 465.6 1383 465.6L1384.2 466.8C1383.6 468 1382.4 469.2 1381.2 469.8C1380.6 470.4 1379.4 471 1378.2 471.6C1377 472.2 1375.8 472.8 1374.6 472.8C1373.4 473.4 1372.2 473.4 1371 473.4C1369.2 473.4 1367.4 472.8 1366.2 472.2C1365 471.6 1363.8 471 1362.6 469.8C1361.4 468.6 1360.8 467.4 1360.2 465.6C1359.6 463.8 1359.6 462 1359.6 460.2C1359.6 459 1359.6 457.2 1360.2 455.4C1360.8 453.6 1361.4 452.4 1362 450.6C1362.6 449.4 1363.2 447.6 1364.4 446.4C1365.6 445.2 1366.8 444 1368 442.8C1369.2 441.6 1370.4 441 1372.2 440.4C1373.4 439.8 1375.2 439.8 1377 439.8C1378.8 439.8 1380 439.8 1381.2 440.4C1382.4 441 1383.6 441.6 1384.2 442.2C1385.4 443.4 1385.4 444 1384.2 445.2ZM1384.2 447C1384.2 446.4 1383.6 445.8 1383.6 445.2C1383 445.2 1383 444.6 1382.4 444C1381.8 443.4 1381.2 442.8 1380.6 442.8C1380 442.2 1378.8 442.2 1377.6 442.2C1375.8 442.2 1374 442.8 1372.8 443.4C1371.6 444 1370.4 445.2 1369.2 446.4C1368 447.6 1366.8 448.8 1366.2 450.6C1365.6 452.4 1365 454.2 1364.4 456C1366.8 455.4 1369.8 455.4 1371.6 454.8C1374 454.2 1375.8 454.2 1377 453.6C1378.8 453.6 1379.4 453 1380.6 452.4C1381.2 451.8 1381.8 451.2 1382.4 450.6C1383 450 1383.6 449.4 1383.6 448.8C1383.6 448.2 1383.6 447.6 1384.2 447ZM1417.2 426L1420.2 426L1414.2 474.6L1412.4 474.6C1411.8 474.6 1411.2 474 1411.2 474L1411.2 473.4L1412.4 462.6C1411.2 464.4 1410.6 466.2 1409.4 467.4C1408.2 468.6 1407 469.8 1405.8 471C1404.6 472.2 1403.4 472.8 1402.2 473.4C1401 474 1399.2 474 1398 474C1396.8 474 1395.6 474 1394.4 473.4C1393.2 472.8 1392 472.2 1391.4 471C1390.8 469.8 1390.2 468.6 1389.6 467.4C1389 466.2 1389 464.4 1389 462.6C1389 460.8 1389 459 1389.6 457.2C1390.2 455.4 1390.8 453.6 1391.4 451.8C1392 450 1392.6 448.2 1393.8 447C1394.4 445.8 1395.6 444.6 1396.8 443.4C1398 442.2 1399.8 441.6 1401 441C1402.8 440.4 1404 439.8 1405.8 439.8C1407.6 439.8 1408.8 440.4 1410.6 441C1411.8 441.6 1413 442.8 1414.2 444.6L1417.2 426ZM1415.4 447.6C1414.2 445.8 1413 444.6 1411.8 444C1410 443.4 1408.8 442.8 1407 442.8C1405.2 442.8 1404 442.8 1402.8 443.4C1401.6 444 1400.4 444.6 1399.2 445.8C1398 447 1396.8 448.2 1396.2 449.4C1395.6 450.6 1395 452.4 1394.4 453.6C1393.8 454.8 1393.2 456 1393.2 457.8C1392.6 459 1392.6 460.8 1392.6 462C1392.6 465 1393.2 467.4 1394.4 469.2C1395 471 1396.8 471.6 1399.2 471.6C1400.4 471.6 1401.6 471 1402.8 470.4C1404 469.8 1405.2 468.6 1406.4 467.4C1407.6 466.2 1408.8 464.4 1410 462.6C1411.2 460.8 1412.4 459 1413 456.6L1415.4 447.6ZM1433.4 428.4C1433.4 429 1433.4 429 1433.4 429.6C1433.4 430.2 1433.4 430.2 1433.4 430.8C1433.4 431.4 1432.8 432 1432.8 432C1432.2 432 1432.2 432.6 1431.6 432.6C1431 432.6 1431 432.6 1430.4 432.6C1429.8 432.6 1429.8 432.6 1429.2 432.6C1428.6 432.6 1428 432 1428 432C1428 431.4 1427.4 431.4 1427.4 430.8C1427.4 430.2 1427.4 430.2 1427.4 429.6C1427.4 429 1427.4 429 1427.4 428.4C1427.4 427.8 1428 427.2 1428 427.2C1428.6 427.2 1428.6 426.6 1429.2 426.6C1429.8 426.6 1429.8 426.6 1430.4 426.6C1431 426.6 1431 426.6 1431.6 426.6C1432.2 426.6 1432.8 427.2 1432.8 427.2C1432.8 427.2 1433.4 427.8 1433.4 428.4ZM1428 440.4L1431 440.4L1426.8 474L1423.8 474L1428 440.4ZM1461.6 443.4C1462.2 444 1462.8 444.6 1463.4 445.2L1462.2 446.4C1462.2 447 1461.6 447 1461.6 447C1461.6 447 1461.6 447 1461 446.4C1461 445.8 1460.4 445.8 1459.8 445.2C1459.2 444.6 1458 444.6 1457.4 444C1456.2 443.4 1455 443.4 1453.8 443.4C1452 443.4 1450.2 443.4 1448.4 444.6C1446.6 445.8 1445.4 447 1444.2 448.8C1443 450.6 1441.8 452.4 1441.2 454.8C1440.6 457.2 1440 459.6 1440 462C1440 463.2 1440 465 1440.6 466.2C1441.2 468 1441.8 468.6 1442.4 469.8C1443.6 471 1444.2 471.6 1445.4 472.2C1446.6 472.8 1447.8 472.8 1449.6 472.8C1450.8 472.8 1451.4 472.2 1452.6 472.2C1453.2 471.6 1454.4 471.6 1455 471C1455.6 470.4 1456.2 470.4 1456.8 469.8C1456.8 469.2 1457.4 469.2 1458 468.6C1458.6 468 1458.6 467.4 1459.2 467.4C1459.2 466.8 1459.8 466.8 1459.8 466.8L1461 468C1459.8 469.2 1458.6 470.4 1457.4 471C1456.2 471.6 1455.6 472.2 1454.4 472.8C1453.8 473.4 1452.6 474 1451.4 474C1450.2 474 1449 474 1447.8 474C1445.4 474 1443.6 473.4 1442.4 472.8C1441.2 472.2 1440 471 1438.8 469.8C1437.6 468.6 1437 467.4 1436.4 465.6C1435.8 463.8 1435.8 462 1435.8 460.2C1435.8 458.4 1435.8 456.6 1436.4 454.8C1437 453 1437.6 451.8 1438.2 450C1438.8 448.8 1439.4 447 1440.6 445.8C1441.8 444 1443 443.4 1444.2 442.2C1445.4 441 1447.2 440.4 1448.4 439.8C1450.2 439.2 1451.4 439.2 1453.2 439.2C1454.4 439.2 1455.6 439.8 1456.2 439.8C1456.8 440.4 1458 440.4 1458.6 441C1459.2 441.6 1459.8 442.2 1461.6 443.4ZM1484.4 442.8L1483.8 444C1483.8 444.6 1483.8 444.6 1483.2 444.6C1483.2 444.6 1483.2 444 1482.6 444C1482.6 443.4 1482 443.4 1481.4 442.8C1480.8 442.2 1479.6 441.6 1479 441.6C1478.4 441 1477.2 441 1476 441C1475.4 441 1474.2 441 1473 441.6C1472.4 442.2 1471.2 442.8 1470.6 443.4C1470 444 1469.4 445.2 1468.8 445.8C1468.2 446.4 1468.2 447 1468.2 448.2C1468.2 449.4 1468.2 450 1468.8 450.6C1469.4 451.2 1470 451.8 1470.6 452.4C1471.2 453 1471.8 453 1473 453.6C1474.2 454.2 1474.8 454.2 1476 454.8C1477.2 455.4 1478.4 455.4 1479 456C1479.6 456 1480.8 456.6 1481.4 457.2C1482 457.8 1482.6 459 1483.2 459.6C1483.8 460.2 1483.8 461.4 1483.8 462.6C1483.8 463.8 1483.8 465.6 1483.2 466.8C1482.6 468 1482 469.2 1480.8 470.4C1480.2 471.6 1479 472.2 1477.2 472.8C1476 473.4 1474.2 474 1472.4 474C1470.6 474 1468.2 473.4 1467 472.8C1465.8 472.2 1464.6 471 1463.4 469.8L1464 468.6C1464.6 468 1464.6 468 1464.6 468L1465.2 468C1465.2 468 1465.2 468 1465.8 468.6C1465.8 469.2 1466.4 469.2 1467 469.8C1467.6 470.4 1468.2 470.4 1469.4 471C1470.6 471.6 1471.8 471.6 1473 471.6C1474.2 471.6 1475.4 471.6 1476.6 471C1477.8 470.4 1479 469.8 1479.6 469.2C1480.2 468.6 1480.8 468 1481.4 466.8C1482 466.2 1482 465 1482 463.8C1482 462.6 1482 462 1481.4 461.4C1480.8 460.8 1480.2 460.2 1479.6 459.6C1479 459 1478.4 459 1477.2 458.4C1476 457.8 1475.4 457.8 1474.2 457.2C1473 456.6 1472.4 456.6 1471.2 456C1470.6 456 1469.4 455.4 1468.8 454.8C1468.2 454.2 1467.6 453.6 1467 453C1466.4 452.4 1466.4 451.2 1466.4 450C1466.4 448.8 1466.4 447.6 1467 446.4C1467.6 445.2 1468.2 444.6 1469.4 443.4C1470.6 442.2 1471.8 441.6 1473 441C1474.8 440.4 1476 440.4 1477.8 440.4C1479.6 440.4 1481.4 440.4 1482.6 441C1483.8 441.6 1485 442.2 1484.4 442.8Z" />
		</g>
	</g>
</svg>