<svg version="1.2" xmlns="http://www.w3.org/2000/svg" viewBox="0 0 1555 279" width="1555" height="279">
	<title>KirklandsHome_Horizontal_Black-svg</title>
	<style>
		.s0 { fill: #ffffff } 
	</style>
	<path id="Layer" class="s0" d="m192.9 5.9c4.9 0 6.9 1.9 7.5 2.9q0 0.6 0 1.2 0 0.6-0.2 1.2-0.1 0.6-0.4 1.2-0.3 0.5-0.6 1c-22.5 31.5-45 59.9-67.4 91.2-6.4 8.8-12.5 17.8-18.8 26.6q-0.7 0.8-1.1 1.9-0.4 1-0.4 2.1 0 1.1 0.4 2.1 0.4 1 1.1 1.8c24.1 34.4 48.3 72 72.5 106.3 4.5 6.5 9.6 12.6 14.2 19q0.4 0.5 0.7 1.1 0.4 0.6 0.5 1.3 0.2 0.6 0.2 1.3 0.1 0.7-0.1 1.3-0.4 0.6-0.9 1.1-0.5 0.5-1.1 0.9-0.6 0.3-1.2 0.6-0.7 0.2-1.4 0.3c-4.7 0.6-32.1 0.4-40.5 0q-1 0.1-1.9 0-1 0-1.9-0.2-1-0.1-1.9-0.3-0.9-0.3-1.8-0.6-1.2-0.4-2.2-1-1.1-0.5-2-1.3-1-0.7-1.8-1.6-0.8-0.9-1.5-1.9c-19.3-27.3-38.7-57.6-57.7-84.9-9.6-13.7-16.8-25.2-26-39.1q-0.9-1.3-1.4-2.7-0.5-1.5-0.5-3 0-1.5 0.5-3 0.5-1.4 1.4-2.7c13.7-20 24.9-37.4 38.8-57.7 13.8-20.3 29.9-38.6 44.9-59.5 3.6-5.1 5.1-7.5 11.2-6.9 6.2 0.6 35.6 0 40.6 0m-144.7 133v120.2c0 12-1 13.2-13.1 13.2h-23.7c-9.3 0-11-2-11.1-11.2 0-1.2 0-2.4 0-3.5v-237.5c0-13.3 0.6-14.1 14.4-14.2 7.4 0 15.4 0 23.1 0 7.7 0 10.5 1.9 10.5 10.5 0 20.5 0 41 0 61.4v61.1"/>
	<path id="Layer" fill-rule="evenodd" class="s0" d="m1365.4 11c0 21.4 0 245.8 0 246.8 0 14.2-0.7 15-15.6 15-7.2 0-14.7 0.1-21.6 0-6.9-0.1-9.7-3-9.7-10q0.1-0.6 0.1-1.2 0-0.6 0-1.2 0-0.7 0-1.3 0-0.6-0.1-1.2c-0.2-1.3-1-3.1-2-3.4q-0.5-0.1-1-0.1-0.6 0.1-1.1 0.2-0.5 0.2-0.9 0.5-0.5 0.3-0.9 0.6c-4.3 4-9.1 7.5-14.2 10.4-5.1 3-10.5 5.4-16.1 7.2-5.6 1.8-11.4 2.9-17.3 3.5-5.9 0.5-11.8 0.5-17.6-0.3-42.8-3.8-78.7-27.5-91.6-72.9-2.7-8.6-4.4-17.5-5-26.5-0.5-9 0-18 1.6-26.9 1.6-8.8 4.3-17.5 8.1-25.7 3.7-8.2 8.4-15.9 14-23 3.6-4.5 7.6-8.6 11.9-12.4 4.3-3.7 9-7.1 14-9.9 4.9-2.9 10.1-5.4 15.5-7.3 5.4-1.9 11-3.3 16.6-4.3q6.5-1.6 13.2-2.2 6.6-0.6 13.3-0.2 6.7 0.4 13.2 1.8 6.5 1.4 12.8 3.7 4.3 1.4 8.4 3.3 4.2 1.9 8.1 4.3 3.9 2.3 7.4 5.1 3.6 2.8 6.9 6c1.8 1.9 2.4 0.6 2.4 0 0-0.5 0-79 0-79.4-0.5-7.5 0.4-9.6 7.4-9.6 10.3 0 20.6 0 30.9 0 6.6 0.1 9.2 3 9.2 10.5m-91.4 219.3c6.3-1.8 12.2-4.6 17.6-8.3 5.4-3.8 10.2-8.3 14.1-13.6 3.9-5.3 6.9-11.1 8.9-17.4 2-6.2 3-12.7 2.9-19.3q-0.2-1.8-0.4-3.7-0.2-1.9-0.4-3.8-0.3-1.8-0.6-3.7-0.3-1.9-0.6-3.7-0.5-1.6-0.9-3.2-0.5-1.5-1.1-3.1-0.5-1.5-1.1-3.1-0.6-1.5-1.3-3c-3.3-7.6-8.2-14.5-14.4-20.1-6.1-5.6-13.5-9.8-21.4-12.3-7.9-2.6-16.3-3.4-24.6-2.4-8.3 1-16.3 3.8-23.4 8.1-6.8 4.2-12.8 9.7-17.5 16.1-4.8 6.4-8.2 13.7-10.3 21.5-2 7.7-2.5 15.8-1.4 23.7 1 8 3.6 15.6 7.5 22.6 3.2 5.9 7.4 11.2 12.3 15.6 5 4.5 10.7 8.1 16.9 10.7 6.1 2.6 12.7 4.2 19.3 4.6 6.7 0.5 13.4-0.2 19.9-2zm-364.1-147.6c0 21.2 0 113.3 0 175.1 0 14.1-0.7 15-15.7 15h-21.6c-6.9-0.2-9.7-3.1-9.7-10.1q0.1-0.6 0.1-1.2 0-0.6 0-1.2 0-0.7 0-1.3 0-0.6-0.1-1.2c-0.3-1.3-1.1-3.1-2.1-3.4q-0.5-0.1-1-0.1-0.6 0.1-1.1 0.2-0.5 0.2-0.9 0.5-0.5 0.3-0.8 0.6c-4.4 4-9.2 7.5-14.3 10.5-5.1 3-10.5 5.4-16.2 7.2-5.6 1.8-11.4 3-17.3 3.6-5.9 0.5-11.8 0.5-17.7-0.2-42.8-3.8-78.7-27.6-91.6-73-2.7-8.6-4.4-17.5-5-26.5-0.6-9 0-18 1.6-26.9 1.6-8.8 4.3-17.5 8.1-25.7 3.7-8.2 8.4-15.9 14-23 3.6-4.5 7.6-8.6 11.9-12.4 4.3-3.7 9-7.1 14-9.9 4.9-2.9 10.1-5.4 15.5-7.3 5.4-1.9 11-3.3 16.7-4.2q7-1.6 14.2-2.1 7.3-0.6 14.5 0 7.2 0.5 14.2 2.1 7.1 1.6 13.9 4.2 3.6 1.3 7.2 3 3.5 1.7 6.8 3.8 3.3 2.1 6.4 4.5 3.1 2.5 5.8 5.2c2.4 2.3 2.4 1.8 2.4 0 0-1.8 0-8.7 0-9.9 0-4.8 1.5-4.8 7.5-4.8 10.3 0 20.6 0 30.8 0 6.7 0.1 9.3 1.2 9.3 8.7zm-91.6 147.7c6.3-1.8 12.3-4.6 17.7-8.4 5.4-3.7 10.1-8.3 14-13.5 3.9-5.3 6.9-11.1 8.9-17.4 2-6.2 3-12.7 2.9-19.3-0.7-4.8-1-10-2.1-15q-0.4-1.5-0.8-3.1-0.5-1.6-1-3.1-0.6-1.6-1.2-3.1-0.6-1.5-1.2-3c-3.4-7.6-8.2-14.5-14.4-20-6.2-5.6-13.5-9.8-21.4-12.3-7.9-2.6-16.3-3.4-24.5-2.4-8.3 0.9-16.2 3.7-23.3 8-6.9 4.2-12.8 9.6-17.6 16.1-4.7 6.4-8.2 13.7-10.2 21.5-2 7.7-2.5 15.8-1.5 23.7 1.1 7.9 3.6 15.6 7.5 22.6 3.3 5.9 7.4 11.1 12.4 15.6 5 4.5 10.7 8.1 16.8 10.7 6.2 2.6 12.7 4.2 19.4 4.6 6.7 0.4 13.4-0.2 19.8-2zm573.1-211.7c6.8-13.1 28.4-15 36.5-7.5 11.9 11.8 6 29.9-35.3 51.9-2.5 1.4-5.5-1.2-5.7-4 0-9.4-0.4-34.1 4.5-40.7zm-1168.8 0c6.9-13.1 28.5-15 36.6-7.5 11.9 11.8 5.9 29.9-35.3 51.9-2.6 1.4-5.6-1.2-5.7-4 0-9.4 0-34.1 4.4-40.7zm715.3 153.9v-88c0-7.5 2.2-9.5 9.9-9.6 7.7 0 16.7 0 25 0 8.3 0 11.4 2.5 11.7 11q-0.1 0.4-0.1 0.8-0.1 0.3-0.1 0.7 0 0.4 0.1 0.8 0 0.4 0.1 0.8c0 1.4 0.9 3.3 1.9 3.7q0.6 0 1.1-0.1 0.6 0 1.1-0.2 0.6-0.2 1.1-0.4 0.5-0.3 0.9-0.7 2.4-1.7 4.7-3.5 2.4-1.7 4.9-3.3 2.4-1.6 4.9-3.2 2.5-1.6 5.1-3.1 6.2-3.1 12.9-5.3 6.7-2.1 13.7-3.1 6.9-1.1 13.9-1.1 7.1 0.1 14 1.2 4.9 0.6 9.7 1.8 4.8 1.2 9.5 2.9 4.6 1.8 9 4.1 4.4 2.3 8.5 5.1 5.1 3.7 9.5 8.3 4.3 4.5 7.7 9.8 3.4 5.3 5.7 11.2 2.3 5.8 3.5 12 1.4 8.6 2.4 17.2 1 8.6 1.6 17.3 0.6 8.7 0.7 17.4 0.1 8.7-0.3 17.4c0 22.4 0 44.4 0 66.5q0.1 0.6 0.1 1.3 0 0.6 0 1.2 0 0.6 0 1.2 0 0.6-0.1 1.3 0 1.1-0.5 2.2-0.5 1.1-1.3 2-0.8 0.9-1.9 1.4-1.1 0.5-2.2 0.6-0.6 0.2-1.2 0.2-0.6 0.1-1.2 0.2-0.6 0.1-1.2 0.1-0.6 0-1.2 0.1c-9.8 0-19.6 0-29.4 0-7.1 0-10.2-1.8-10.3-10.4q0-47.8 0-95.5c0-10.8 0-52-46.9-52-23.9 0-47.3 20.2-47.3 52.4 0 34.6 0 57 0 91.5q0 2.7 0 5.4c0 5.8-2.3 8.5-8.2 8.7-11 0.4-22.1 0.5-33 0-5.8 0-8.1-3-8.1-9.2v-91.1zm524.3-65q-2.6 0-5.3 0.3-2.6 0.4-5.2 1.2-2.6 0.7-5 1.8-2.4 1.2-4.7 2.6-1.5 1.1-2.7 2.5-1.2 1.4-2 3-0.8 1.7-1.2 3.5-0.4 1.8-0.3 3.6v0.7c0.5 11.8 20.2 17 43.1 22.9l4.2 1.1c36 9.1 69.5 22.5 71 58.7v0.8c0.3 4.7 0.1 9.5-0.7 14.2-0.8 4.7-2.1 9.3-4 13.7-1.9 4.4-4.4 8.5-7.3 12.3-2.9 3.8-6.3 7.2-10 10.1q-6.3 4.6-13.1 8-6.9 3.5-14.2 5.8-7.4 2.4-15 3.6-7.6 1.1-15.3 1.1h-4.8c-6.8-0.1-13.7-0.7-20.5-1.8-6.8-1.1-13.5-2.8-20-5-6.5-2.2-12.8-5-18.9-8.2-6.1-3.3-11.9-7-17.3-11.2-6.3-5.3-4.8-33.4-4.8-39.1-0.1-1.3 0.3-2.6 0.9-3.7 0.7-1.1 1.7-1.9 2.9-2.5 1.2-0.5 2.5-0.7 3.7-0.4 1.3 0.2 2.5 0.8 3.4 1.7q8 6.1 16.9 10.9 8.9 4.8 18.5 8.2 9.5 3.4 19.5 5.2 9.9 1.8 20 2.1 2.9 0.2 5.8 0 2.9-0.1 5.7-0.7 2.9-0.5 5.6-1.5 2.8-0.9 5.4-2.2 1.7-1.1 3-2.6 1.4-1.6 2.3-3.4 0.9-1.8 1.4-3.9 0.4-2 0.2-4v-0.8c-0.5-12.6-19.6-19.1-41.7-24.5l-5.1-1.3c-33.7-7.5-64.2-18.6-69.5-57.2v-0.7c-0.4-4.4-0.3-8.7 0.3-13.1 0.7-4.3 1.8-8.5 3.3-12.6 1.6-4 3.7-7.9 6.1-11.5 2.5-3.6 5.4-6.9 8.6-9.8q5.9-4.9 12.5-8.6 6.6-3.8 13.8-6.3 7.2-2.6 14.7-3.8 7.5-1.2 15.2-1.1h5.7q9.1-0.3 18.1 0.8 9 1.1 17.8 3.5 8.7 2.4 17 6 8.4 3.7 16.1 8.5c7.4 4.1 4.7 33.4 4.7 39.1 0 5.8-5.6 8.2-10.9 5-39.7-24.5-68-21.1-68-21.1zm-786.5 153.7c0 11.9-1 13.1-13.1 13.2-7.5 0-15.8 0-23.7 0-9.3 0-11-2-11.2-11.3v-242.8c0-13.4 0.7-14.2 14.4-14.3 7.5 0 15.4 0 23.1 0 7.7 0 10.5 2 10.5 10.6 0 20.4 0 40.9 0 61.4zm-197.9-122.2v120.3c0 12-1.1 13.2-13.2 13.2h-23.6c-9.3 0-11-2-11.2-11.2 0-1.2 0-2.4 0-3.5v-237.5c0-13.3 0.7-14.2 14.3-14.2 7.5 0 15.4 0 23.2 0 7.8 0 10.4 1.9 10.4 10.5 0 20.5 0 41 0 61.4zm124.6-62.8c1.7 0 4.3 0.8 4.9 1.9 0.6 1.2-0.7 3.6-1.7 4.9-20.7 27.3-41.5 51.3-62.2 78.5-4.7 6.2-4.6 6.2 0 12.6 14.4 20.8 32 45 46.5 65.4 6.3 8.9 9.4 12.7 15.6 21.6 0.9 1.2 7.5 11.6-3.8 11.6-7.8 0-11.5 0-19.4 0h-19.6q-1.6 0.1-3.2-0.3-1.6-0.3-3-1-1.5-0.8-2.7-1.9-1.2-1.1-2-2.5c-20.6-29.9-44.4-62.5-65.3-92-0.8-0.9-1.5-1.9-1.9-3.1-0.5-1.1-0.7-2.3-0.7-3.5 0-1.3 0.2-2.5 0.7-3.6 0.4-1.1 1.1-2.2 1.9-3.1 12.2-16.4 24-29.9 36.1-46.2 8.4-11.4 17.1-22.5 25.4-33.8q1.1-1.5 2.4-2.6 1.4-1.1 3-1.8 1.6-0.8 3.3-1.1 1.8-0.3 3.5-0.1c7.5 0 31.5 0 42 0zm-385.8 96v-88.6c0-7.4 1.4-9.3 8.6-9.4 10.8 0 18.8 0 30 0 7.5 0 7.5 3.8 8.2 6.9q0 0.6 0 1.1 0 0.6 0 1.1 0 0.6 0 1.2 0 0.5 0 1.1v174.1c0 11.6-0.9 12.5-12.5 12.6q-3 0.2-6 0.3-3 0.1-6 0.1-3 0-6-0.1-3-0.1-6-0.3c-9.1-0.5-10.1-1-10.1-10.2q0-44.9 0-89.8zm193.6-93.9q0.3 4.4 0.3 8.9 0.1 4.4 0 8.8-0.1 4.5-0.4 8.9-0.3 4.4-0.7 8.8-0.3 0.9-0.9 1.7-0.6 0.8-1.4 1.3-0.8 0.6-1.7 0.8-1 0.2-1.9 0.1-2.5 0-5 0-2.5 0-5 0.1-2.5 0-4.9 0.2-2.5 0.1-5 0.3c-25.5 2-44.9 17.1-44.9 48.9 0 34.6 0 56.5 0 91.2 0 1.7 0 3.5 0 5.3-0.6 5.8-2.3 8.7-8.1 8.7-10.8 0.4-21.6 0-32.4 0-5.7-0.2-7.9-2.9-7.9-9.1 0-30.5 0-60.5 0-90.4 0-29.9 0-58 0-87.9 0-7.4 2.2-9.7 9.7-9.7h24.5c8.8 0.2 11.5 2.6 11.5 11q-0.1 0.4-0.1 0.8 0 0.4 0 0.8 0 0.4 0 0.7 0 0.4 0.1 0.8c0.3 1.4 0.9 3.2 1.9 3.7 1.1 0.4 2.9-0.6 4.1-1.3q2.3-1.8 4.7-3.5 2.3-1.7 4.7-3.4 2.4-1.6 4.8-3.2 2.5-1.6 4.9-3.1c20.5-10.2 48.7-8.1 48.7 0z"/>
</svg>