<svg version="1.2" baseProfile="tiny-ps" xmlns="http://www.w3.org/2000/svg" viewBox="0 0 1612 1390" width="1612" height="1390">
	<title>Kimberly-Clark_logo-svg</title>
	<style>
		tspan { white-space:pre }
		.shp0 { fill: #ffffff } 
	</style>
	<g id="g105">
		<path id="path27" fill-rule="evenodd" class="shp0" d="M805.53 0C1250.09 0 1611.06 311.12 1611.06 694.62C1611.06 1078.12 1250.09 1389.24 805.53 1389.24C360.97 1389.24 0 1078.12 0 694.62C0 309.85 359.7 -1.27 805.53 0ZM656.08 152.39L656.08 586.68C621.88 507.95 545.89 438.11 468.63 391.12L143.12 391.12C248.25 469.85 415.43 593.03 415.43 692.08C415.43 741.61 355.9 750.49 321.71 750.49L116.52 750.49L116.52 986.69L438.23 986.69C510.42 986.69 614.28 960.02 656.08 849.54L656.08 1165.74L954.98 1165.74L954.98 849.54C996.78 961.29 1100.64 986.69 1172.83 986.69L1494.54 986.69L1494.54 750.49L1289.36 750.49C1255.16 750.49 1195.63 740.34 1195.63 692.08C1195.63 593.03 1362.82 469.85 1467.94 391.12L1142.44 391.12C1065.18 438.11 989.18 507.95 954.98 586.68L954.98 152.39L656.08 152.39Z" />
	</g>
</svg>