<svg version="1.2" xmlns="http://www.w3.org/2000/svg" viewBox="0 0 1549 860" width="1549" height="860">
	<title>logo_color-svg</title>
	<style>
		.s0 { fill: #223e99 } 
		.s1 { fill: #f4911d } 
	</style>
	<g id="#223e99ff">
		<path id="Layer" class="s0" d="m0.7 859.3c55.1-286.4 110.3-572.7 165.5-859.2 198 0.3 396-0.1 594 0.2-109.8 143.8-220.7 286.8-331.1 430.2 55.7 142.8 110.5 285.9 165.4 429-197.9-0.2-395.9 0-593.8-0.2z"/>
	</g>
	<g id="#f4911dff">
		<path id="Layer" class="s1" d="m886.2 1.1c56.2 10.7 114.6 34 148 82.9 30.1 43 31.1 99.7 18.3 148.9-21.2 77.6-71.2 143.3-125.2 201.1-83.4 85.1-183.1 153.6-290.2 205.2-26.9-69.9-53.6-139.7-80.7-209.4 109.9-142.9 220.1-285.5 329.8-428.7zm169.4-0.9c109.2 0 218.2 0 327.3 0 55 143.6 110.9 286.9 165.6 430.7-110.6 142.4-220.4 285.5-330.3 428.5-165.4 0.1-330.8-0.1-496.1 0.1-26.4-68-52.3-136.3-78.9-204.3 132.4-51.1 257.2-124.5 360.3-222.6 59.9-58.1 114.6-125.2 142.8-204.9 17.2-48.5 20.9-104.9-4.7-151.3-18-35.3-51.7-58.4-86-76.2z"/>
	</g>
</svg>