<svg version="1.2" xmlns="http://www.w3.org/2000/svg" viewBox="0 0 1570 1473" width="1570" height="1473">
	<title>Bitmap (23)-svg</title>
	<style>
		.s0 { fill: #ffa300 } 
	</style>
	<g id="#ffa300ff">
		<path id="Layer" class="s0" d="m701.4 0.6c65.7 37.4 125.7 85.2 177 140.7 78.8 84.6 132.6 190.3 161.6 301.7 24.3 91.1 32.5 185.6 38.7 279.4 4 47.3 5.3 95.7 21.2 141 38.8 116.2 85.8 229.5 133.4 342.4-94.3-55.9-180-127.9-246.5-215.4-49.2-64.8-86.8-138.2-110.9-215.8-21.5-68.9-32.5-140.6-37.2-212.5-3.8-51.5-3.1-103.1-7.5-154.5-3.5-28.2-9.6-56.1-15.2-83.9-12.4-60.1-36.1-116.9-58-173.9-18.8-49.8-39.4-98.9-56.6-149.2zm14.9 324.7c7.2-10.1 13.5-20.9 22-29.9 3.6 98.1-9.7 197-39.6 290.5-32.4 100.1-87.8 192.5-160.5 268.6-54 57.5-117.1 105.6-182.3 149.8-29.1 20.2-59.2 39.2-86.6 61.8-43.4 38.7-86 78.9-120.7 125.7-49.4 64.1-95.9 130.4-145.8 194-1.8-11.3-2.1-22.9-1.6-34.3 1.8-83.4 14.5-167 43.4-245.4 40.1-111.3 111.8-209.2 198.3-289.2 55.5-52.2 117.2-97.3 178.6-142.3 34.2-26 70.6-50.6 97.4-84.8 70-84.9 134.2-174.5 197.4-264.5zm-436.2 845.6c112.5-51.9 235.5-85.1 360.2-82.9 122.9 0.4 243.5 37.5 351.4 95 58.5 29.8 112.4 67.5 170.5 98 54.3 24.1 109.8 46.6 168.1 59.1 79.4 18 159.2 34 238.8 51.4-121.7 63.1-262.2 91.8-398.9 76.7-95.5-10.1-187.6-40.9-274-81.9-71.7-33.2-138.6-75.4-209.1-110.6-34.5-17.7-72.6-25.7-109.9-35.1-102.5-24.2-205.8-45.1-309.7-62.6 4.1-2.5 8.3-5 12.6-7.1z"/>
	</g>
</svg>