<svg version="1.2" xmlns="http://www.w3.org/2000/svg" viewBox="0 0 1554 354" width="1554" height="354">
	<title>Bitmap (23)-svg</title>
	<style>
		.s0 { fill: #ffffff } 
		.s1 { fill: #ffa300 } 
	</style>
	<g id="#001e54ff">
		<path id="Layer" fill-rule="evenodd" class="s0" d="m408.7 4.8c-2.3 0.1-2.6-3.5-0.3-3.9 4.7-0.9 9.5-0.1 14.2-0.1 9.4 0.1 18.9 1.1 28.4 0.3 6.4 0.1 13-1 19.4-0.3 2.3-0.4 3.5 3.2 1.2 3.8-3.7 0.7-7.7 0.5-11.3 2.1-2.6 1.1-4.6 3.5-5.4 6.2-1.6 5.3-1.4 10.9-1.6 16.3-0.5 20.9-0.1 41.9-0.3 62.8 0 1.7 0.1 3.4 0.3 5 22.6-23.1 45.2-46.2 67.6-69.6 4-4.3 8.4-8.3 11.1-13.6 1.3-2.6 1.3-6.7-1.7-8.2-1.2-0.8-3.4-1.1-3.5-3 0.4-2.2 3-2.1 4.8-2.2q9.3 0.8 18.6 1.1c8.6-0.4 17.1-0.6 25.7-1 1.8 0.1 4.1-0.2 5.5 1.2 0.9 1.3-0.1 3.3-1.8 3.1-13 0.4-24.9 7.4-34.1 16.2-24.3 23.3-48.4 47-72 71.1 19 20.4 38.5 40.3 58.1 60.1 12.1 12.5 24.7 24.5 37.8 35.8 9.7 8.6 21.9 15.1 35 16.1 2.1 0.3 4.3 0.3 6.3 1.1 0 3.5-4 3.3-6.5 3.3-12.1-0.2-24.3 0.6-36.4-1-7.1-1-13.7-4-19.5-8.2-5.9-4.4-11.8-8.9-17-14.1-24.1-24-47.1-49.1-69.8-74.5-2.9-2.9-5-6.7-8.4-9-0.2 17.4 0 34.9-0.1 52.3 0.6 12.9-0.1 26 2.1 38.8 0.6 4 2.7 8.2 6.7 9.6 5.1 1.6 10.5 1.3 15.7 2.3 1.9 1.8-0.7 4-2.7 3.8-15.4 0.4-30.7-1.5-46.1-0.3-5.8 0-11.7 1.1-17.4-0.3q-0.1-1.6-0.2-3.2c4.5-0.8 9.4-0.4 13.4-2.8 3.9-3.8 4.1-9.7 5-14.7 1.5-18.7 1.2-37.5 1.2-56.2q0-42.9 0-85.9c-0.1-9.1 0.1-18.3-0.9-27.3-0.4-3.7-1.7-7.5-4.9-9.6-4.8-3.1-10.7-3.1-16.2-3.4zm1116.6 2.7c5.4-1.9 11.5-1.5 16.6 0.9 6.4 3.1 11.3 9.5 12.1 16.6v6.6c-1.7 10-10.9 18.5-21.3 18-6.3 0.4-12.5-2.5-16.6-7.3-5.7-6.4-6.9-16.2-3.2-23.8 2.6-5 7-9.2 12.4-11zm2.6 2.7c-8.9 2.3-15.3 11.9-13.5 20.9 1.1 7.1 6.8 13.3 13.9 14.9 4 0.7 8.3 0.6 12-1.3 6.7-3.3 11.2-10.6 10.4-18.1-0.4-10.9-12.3-19.6-22.8-16.4zm-4.3 5.7c4.9 0.2 9.9-0.5 14.7 0.8 5.4 1.5 5.6 10.9-0.3 11.9 1.5 1.1 3.1 2.2 3.6 4.1 0.4 2.4 0.3 4.8 0.6 7.2q-2.1-0.1-4.1-0.1c-0.2-2.7 0.2-5.8-1.8-8-2.3-1.7-5.5-1-8.1-1.2 0 3.1-0.1 6.1 0 9.2q-2.3 0-4.6 0.1 0-12 0-24zm4.6 3.2q-0.1 4.2 0 8.4c2.6-0.1 5.5 0.2 8-1 2.4-1.4 2.4-5.6-0.2-6.7-2.5-0.9-5.2-0.6-7.8-0.7zm-394.9 8.4c2.6-1 4.2 1.5 5.1 3.6 7.1 16.1 13.5 32.5 20.2 48.8 11.5 28.3 23 56.7 34.6 85 3.5 8.2 6.5 16.6 11 24.3 2.7 4.7 6 9.4 10.9 12.1 4.5 2.5 9.8 2.8 14.8 3.3 1.4-0.1 2.6 2 1.2 2.9-1.2 0.7-2.6 1-4 1-10.6 0.2-21.2-0.1-31.8-0.3-5.3-0.6-10.8 0.3-15.9-1.2-1.1-2.7 3-2.6 3.7-4.8 1-1.5 0.1-3.2-0.4-4.6q-10.5-25.9-21-51.8c-0.5-1.3-1.2-2.8-2.8-2.4-18-0.1-36.1 0-54.1 0-1.4-0.2-3.1 0.2-3.5 1.8-4 10.5-7.8 21.1-11.7 31.6-2.5 7.2-5.9 14.4-5.7 22.2 0.5 4.1 5 5.4 8.4 5.4 1.5 0.2 4.4-0.6 4.4 1.7 0.4 2.4-2.7 2.5-4.3 2.5-9.8-0.3-19.5-1.3-29.2-0.6-6.4 0.2-12.7 0.9-19.1 0.3-2 0.1-3-2.7-1.1-3.6 4.6-0.9 9.4-0.4 13.7-2.3 4.4-1.8 7.8-5.4 10.1-9.5 4.1-7.2 6.6-15.2 9.7-22.9 17.6-45.2 35.2-90.4 52.9-135.6 1-2.4 1.8-5.1 3.9-6.9zm-4.3 40c-6 16.5-11.7 33.2-17.6 49.8-1.7 5.5-4.4 10.7-5.3 16.3 16.8 0 33.6 0.1 50.4 0-0.5-3.1-1.9-5.8-2.9-8.7q-7.6-20.4-15.2-40.7c-2.4-5.9-4.2-12.2-7-17.9-0.7-1.6-2.3 0.2-2.4 1.2zm-399.6-38.7c2.8-1.3 5.2 1.1 7.1 2.8 11.5 11.5 22.5 23.6 33.9 35.3 22.1 23.3 44.6 46.2 66.8 69.5 12.2 12.7 24 25.7 36.3 38.3q-1.1-61.2-2.6-122.4c-0.5-4.8-0.5-10.7-4.7-13.8-5.1-2.7-11-2.2-16.5-2.7-1.5-0.4-2.1-2.8-0.7-3.6 3.1-0.9 6.3-0.7 9.4-0.4 12.8 0.3 25.5 0.6 38.3-0.2 2.1-0.1 4.2 0 6.3 0.6 1.6 1.4-0.2 3.9-2.1 3.7-4.2 0.2-9.3 0.2-12 4-2.5 4.3-2.2 9.4-2.2 14.1-0.4 18.3-0.1 36.6-0.2 54.9-0.5 19.1-0.1 38.3-0.2 57.4-0.7 12.2-0.2 24.3-0.3 36.4-0.2 2.1 0 4.3-0.6 6.4-0.5 1.7-2.5 1.1-3.6 0.5-2.1-1-3.9-2.6-5.7-4.1-11.5-10-22.3-20.9-33.1-31.6-35.1-34.8-68.8-70.8-102.7-106.7 0.5 32.5 1.7 65 2.2 97.5 0.8 10.8-0.4 21.9 3.1 32.3 1.3 4 5.2 6.2 9.2 6.5 3.7 0.6 7.4 0.6 11.1 1.2 0.2 0.7 0.4 1.9 0.5 2.6-1.2 0.5-2.3 1.2-3.7 1.2-12.1 0.4-24.2-1.5-36.3-0.4-5.8 0.1-11.8 1.1-17.5-0.2q-0.2-1.6 0.3-3.1c4.2-0.9 8.7-0.6 12.7-2.3 2.4-1 3.6-3.7 4.2-6.1 1.7-8.1 1.2-16.5 1.3-24.7 0-43.4 0-86.7 0-130.1 0.3-4.2-0.5-9.1 2-12.8zm239.8 2.3c12.1-3.6 24.9-3.6 37.3-2 7 0.7 13.8 3.2 20.9 3.1 0.1 4-0.7 8-0.7 12-0.4 6.5 0.2 13-0.9 19.4q-1.6 0-3.2 0c-1.6-5.9-2-12.8-6.8-17.3-7.9-6.7-18.7-8.5-28.8-8.5-9.2 0-19.1 2.5-25.7 9.3-5.5 5.6-7.2 14.2-5.6 21.7 1.6 10.1 9.5 17.4 17 23.5 15.3 11.9 32.8 21 45.8 35.6 8.4 9 14.2 20.7 14.4 33.1 0.5 9.8-1.9 19.8-7.5 27.9-4.6 6.9-11 12.3-18.3 16.3-10.3 5-22.1 6.1-33.5 6.3-11.7 0.1-23.6-1-34.6-5.2-2.5-1-5.9-2.2-6-5.3-0.5-10.5 0.4-21 1.4-31.5 0-3 4.5-2.4 4.3 0.3-0.1 6.2 1 12.7 4.7 17.8 5.6 8.3 15.7 12.2 25.4 13.6 11.7 1.7 24.7 0.4 34.3-7.1 12.4-9.9 14-29.8 4.5-42.1-5.3-7.1-12.5-12.4-19.4-17.7-11.5-8.8-23.7-17-34-27.2-7-7.1-13.3-15.4-15.6-25.3-2.5-11-0.9-23.2 5.3-32.7 5.7-9 15.2-15 25.3-18zm502.4 1.1c6 0.1 12-0.7 17.7-2.5 1.9 0.9 0.9 3.4 0.7 5-2.1 7.7-1.7 15.8-2.8 23.6-0.2 1.8-2.1 3.8-3.8 2.4-1.2-1.7-0.7-3.9-1-5.8-0.3-3.7-1.7-8.2-5.7-9.5-9.6-3.4-19.9-3-29.9-3.3-6.2 0.3-12.5-0.6-18.7 0-0.1 22.6-0.1 45.1 0 67.7 11.9 0.2 23.7 0 35.5-0.1 5-0.5 10.2-0.2 15-1.9 2.8-0.8 4-4.3 6.8-4.9 1.8 0.8 1 2.9 0.9 4.3-2 8.9-2.3 18.1-2.8 27.2 0.1 1.9-1.9 4.7-3.8 2.7-0.8-5-0.1-12.1-5.8-14.5-8.6-3.3-18-2.1-27-2.8-6 0.2-11.9-0.6-17.9-0.2-0.2 0.2-0.6 0.5-0.9 0.7-0.2 9.2 0 18.4-0.1 27.5 0.2 12.1-0.5 24.2 0.2 36.3 0.5 4.4 1.8 9.4 6 11.6 5.8 3.1 12.5 2.7 18.8 3.1 8 0 16.1 0.2 23.9-1.4 5.2-0.9 10.2-4 12.5-8.9 1.8-3.4 1.8-7.5 3.1-11.1 1.7-2.2 4.1 0.1 3.7 2.2-0.5 7.4-1.6 14.8-3 22-0.5 2.8-1.7 6.2-4.8 6.9-5.2 0.7-10.6 0.8-15.9 0.4-13 0-26-0.2-38.9-0.9-10.7-0.4-21.4-0.5-32 0.2-3.8 0.2-7.6 0.7-11.4 0.1-1.9-0.4-1.7-2.4-1.1-3.7 3.4-0.5 6.8-0.8 10-1.7 2.6-0.7 3.5-3.5 4.1-5.7 2.9-12.8 1.9-25.9 2.5-38.8q0-39.3 0-78.7c0.1-10-0.1-20-0.5-30-0.4-3.9-0.5-8.7-3.9-11.3-3.9-2.5-8.7-2.2-13.1-2.5-1.7 0.2-2.5-1.6-3.5-2.4 2.1-2.7 5.9-1.8 8.9-1.8 26 0.8 52 0.4 78 0.5zm-848.6 3.1c-2.3-2.5 1.3-4 3.4-3.7 15.9 0.6 31.9 0.7 47.8 0 1.9 0 4.2 0 5.2 1.9-1.1 0.8-1.8 2.5-3.3 2.4-4 0.2-8.8 0.5-11.3 4-2.7 4.5-2.1 10-2.4 15-0.1 26.5 0 53 0 79.6 0.2 18.8-0.7 37.8 1 56.6 0.5 4 1 9 5.1 11 5.1 2.1 10.9 1.6 16.3 2.6 0.1 1.1 0.8 2.9-0.9 3.4-1.4 0.6-2.9 0.4-4.4 0.5-8.9 0-17.7-0.6-26.6-0.8-9.2-0.3-18.3 1-27.4 0.6-2.2 0.4-3.5-2.2-1.9-3.7 3.7-0.8 7.8-0.5 11.1-2.6 3.3-2.7 3.3-7.4 3.9-11.3 1.6-17.9 1.1-35.8 1.4-53.7 0-20.3 0.1-40.7 0-61-0.6-10.6 0.6-21.3-1.3-31.8-0.5-3.5-2.9-6.8-6.5-7.5-3-1.1-6.4-0.2-9.2-1.5zm624-1.8c0.4-2.2 3.1-1.7 4.9-1.9 16.5 0.6 33.1 0.6 49.7 0.1 2.4-0.1 5.1-0.5 7.3 0.9 1.3 1.2-0.9 2.7-2.1 3-4.7 0.5-10.4-0.2-13.9 3.7-3.4 4.8-2.3 11-2.9 16.5-0.1 23.3 0 46.6 0 69.9 0 16.8-0.3 33.6 0.7 50.4 0.4 5.3 0.6 11 3.1 15.8 3.7 5.2 10.8 5.4 16.5 6.3 11.5 0.7 23.1 1.3 34.5-0.6 7-0.9 12.8-6.1 15-12.7 1.7-3 1-7.2 3.7-9.4 2.9-0.7 2.7 3.2 2.6 5-0.9 8.1-1.7 16.4-4.2 24.2-1.3 4.2-6.4 4.2-10 4.2-6.4 0.7-12.9-0.2-19.4 0-23.6 0.2-47.3-2.3-70.9-0.6-3.2 0.1-6.5 0.6-9.6-0.1-1.9-0.3-1.2-2.3-1.1-3.5 4.6-1.1 11.4-0.1 13.5-5.3 2.6-8.1 2.7-16.6 3-25 0.7-26.5 0.4-53.1 0.4-79.7 0.2-13.6-0.2-27.2-0.4-40.8-0.5-4.9 0.2-10.7-3.3-14.7-3.8-3.4-9.2-3-14-3.3-1.5 0.2-2.3-1.3-3.1-2.4zm-835.8 202.9q543.9 0 1087.7 0 0 3.9 0 7.7-543.8 0-1087.7 0 0-3.8 0-7.7zm8.5 46.5c6.7-5.7 15.5-8.7 24.2-8.6 10.3-0.4 21.1 3.1 28 11.1 3.3 3.8 5.4 8.7 6 13.7q-4.1 0.1-8.1 0c-1.5-6.4-5.7-12.1-11.6-15.1-6.5-3.6-14.4-3.9-21.5-2.2-7.7 1.9-14.3 7.4-17.8 14.4-5 10.1-5.2 22.3-1.3 32.8 2.9 7.9 9.3 14.5 17.4 17.1 7.3 2.1 15.6 2.2 22.4-1.6 7.9-4 12.7-12.7 13.5-21.4 2.7-0.1 5.4-0.1 8.2-0.1-0.9 8.3-4.1 16.5-10.2 22.3-4.5 4.2-10.2 7.1-16.2 7.9-5.3-0.1-10.5-0.1-15.8 0-10.1-1.4-19.2-7.8-24.4-16.5-5.2-9-6.7-19.8-5.1-30 1.2-9 5.3-17.8 12.3-23.8zm631.6-2.6c10-6.6 22.9-7.3 34.2-4.4 11.1 2.9 20 12.5 21.8 23.9-2.8 0.1-5.5 0.1-8.2 0-1-7.1-6.4-12.8-12.6-16-6.1-3.1-13.1-3.5-19.7-2.4-8.1 1.3-15.4 6.5-19.2 13.7-5.2 9.5-6 21-2.9 31.3 2.1 7.3 6.9 13.9 13.5 17.5 6 3.4 13.2 4.1 19.9 3.3 7.1-0.9 14.1-4.5 18.2-10.5 3.4-4.9 4.8-11 4.7-16.9-9.2 0-18.3 0-27.5 0q0-3.2 0.1-6.4c11.5 0.1 23.1 0 34.6 0 0 13.1 0 26.1 0 39.1q-2.9 0.1-5.9 0c-0.3-4.4-0.7-8.9-1.1-13.3-4.2 7-11.2 12.5-19.4 13.8-3.5 0.3-7.1 0-10.7 0.1-12.9 1.5-25.7-6.8-31.5-18.1-5.4-10.7-6.1-23.5-2.7-34.9 2.3-8 7.4-15.3 14.4-19.8zm212.6-5.3c9.2-1.4 19-1 27.3 3.4 8.2 4 14.2 11.6 17.2 20.1 2.9 8.7 3.3 18.3 1.1 27.2-2.2 9.7-8.3 18.7-17.2 23.5-4.3 2.3-9 4.3-13.9 4-5-0.2-10 0.1-15-0.2-8.4-1.5-16.3-6.3-21.4-13.2-5.8-7.9-8.1-17.8-7.7-27.5 0.3-9.5 3.3-19.2 9.8-26.3 5.1-5.8 12.3-9.6 19.8-11zm-0.2 6.9c-10.5 2.7-18.2 12.2-20.3 22.6-2.1 9.8-1.2 20.5 3.9 29.3 4.1 7.1 11.5 12.2 19.7 13.3 7.2 1 14.9 0.3 21.2-3.6 6.1-3.5 10.4-9.5 12.5-16.1 2.8-8.5 2.8-17.9 0-26.5-2.1-6.3-6.1-12.2-11.9-15.7-7.3-4.8-16.7-5.2-25.1-3.3zm-729.4-6.1q4.4 0 8.9 0 16 38.3 31.9 76.7-4.4 0.1-8.8 0c-3.3-7.9-6.3-15.9-9.9-23.5-12.1-0.2-24.3 0-36.4-0.1q-4.9 11.8-9.8 23.6-4.2 0.1-8.5 0c10.7-25.6 21.8-51.1 32.6-76.7zm-11.8 46.5q15.7 0 31.3-0.1c-5.2-12.7-10.2-25.5-15.4-38.3-5.3 12.8-10.6 25.6-15.9 38.4zm79.7-46.5c11.9 0 23.8 0 35.7 0 6.3 0 12.9 1.3 17.7 5.6 10.3 9 9.1 28.3-3.1 35.1-4.7 2.7-10.2 3.3-15.5 3.3-8.8 0-17.7 0-26.6-0.1-0.3 10.9 0 21.9-0.1 32.8q-4.1 0.1-8.1 0-0.1-38.3 0-76.7zm8.1 6.5q0 15.5 0 31 12.9 0 25.9 0c5.1-0.1 10.7-1.2 14.4-5 4.4-4.5 4.6-11.6 2.6-17.3-2.7-6.2-9.9-8.5-16.2-8.7-8.9 0-17.8 0-26.7 0zm84-6.5q4.1 0 8.2 0.1-0.1 38.3 0 76.6-4.1 0.1-8.2 0 0-38.3 0-76.7zm36.1 0q32.2 0 64.3 0 0 3.3 0 6.5c-9.3 0.1-18.7-0.1-28.1 0.1 0.1 23.4 0.1 46.7 0.1 70.1-2.8 0-5.5 0-8.2 0 0.1-23.4 0-46.8 0-70.2q-14 0-28.1 0 0-3.2 0-6.5zm107.7 0.1c3-0.1 6-0.1 8.9-0.1 10.8 25.5 21.3 51.1 32 76.7q-4.4 0.1-8.8 0c-3.3-7.9-6.3-15.8-9.9-23.5-12.1-0.3-24.3 0-36.4-0.1-3.3 7.8-6.5 15.7-9.8 23.6q-4.2 0.1-8.5 0c10.6-25.6 21.8-51 32.5-76.6zm-11.7 46.3c10.4 0.1 20.8 0.1 31.2 0.1-5-12.8-10.1-25.6-15.3-38.3q-8 19.1-15.9 38.2zm79.7-46.4q4 0 8.1 0.1c0 23.4 0 46.7 0 70.1 15.1 0.1 30.1 0 45.2 0.1q0 3.2 0 6.4c-17.8 0.1-35.6 0-53.3 0q-0.1-38.3 0-76.7zm236.8 0c12.1 0 24.2 0 36.3 0 6.6 0 13.6 1.1 18.9 5.3 10.2 7.9 8.6 26.4-2.9 32.3-1.7 0.9-3.6 1.5-5.4 2.2 5.4 0.4 10.5 4.1 12.1 9.3 2.7 9 0 19.2 5 27.6q-4.5 0.1-9 0c-3.1-8.4-0.9-17.8-4.3-26.1-1.8-4.6-6.6-7.9-11.7-7.8-10.3 0-20.7 0-31 0q0 17 0 33.9-4 0-8 0 0-38.3 0-76.7zm8 6.5c0 10-0.1 19.9 0 29.8 7.4 0 14.7 0 22.1 0 6 0.1 12.6 0.3 17.7-3.4 7.6-4.7 8-16.8 1.4-22.6-4-3.4-9.5-3.8-14.6-3.8-8.9 0-17.7 0-26.6 0zm191.1-6.5q3.9 0 7.9 0c0 14.9 0 29.7 0 44.5 0 6.2 0.2 12.7 3.5 18.1 3.2 5.4 9.3 8.3 15.4 8.8 7.5 0.8 15.9 0.2 21.8-5 5.3-4.9 6.4-12.4 6.6-19.2q0-23.6 0-47.2 4 0 8 0 0 21.4 0 42.8c0.1 7 0.1 14.3-3.1 20.7-3.7 7.7-11.7 12.7-20 13.9-5.6-0.1-11.2-0.2-16.7 0-8.4-1-16.6-5.9-20.3-13.6-2.3-4.6-3.2-9.8-3.2-14.8 0.1-16.4 0-32.7 0.1-49zm98.6 0q18.2 0 36.3 0c7.2 0.1 15.1 2.3 19.6 8.3 7 9.4 5.6 25.1-4.6 31.7-4.7 3.1-10.4 4-15.8 4-9.2-0.1-18.3 0.1-27.5-0.1-0.1 11 0 21.9 0 32.8q-4 0-8 0 0-38.3 0-76.7zm8 6.5q0 15.5 0 31 8.8 0 17.7 0c6.9-0.1 14.6 0.8 20.6-3.3 6.2-4 7-12.6 4.5-19-2.4-6-9.3-8.3-15.3-8.6-9.2-0.2-18.4 0-27.5-0.1z"/>
	</g>
	<g id="#ffa300ff">
		<path id="Layer" class="s1" d="m166.9 1.1c15.6 8.9 29.9 20.3 42.1 33.5 18.7 20.1 31.5 45.2 38.3 71.7 5.8 21.6 7.8 44.1 9.2 66.4 1 11.2 1.3 22.7 5.1 33.4 9.2 27.7 20.4 54.6 31.7 81.4-22.4-13.3-42.8-30.4-58.6-51.2-11.7-15.4-20.6-32.8-26.3-51.2-5.1-16.4-7.8-33.5-8.9-50.5-0.9-12.3-0.7-24.5-1.8-36.7-0.8-6.8-2.2-13.4-3.6-20-2.9-14.3-8.6-27.8-13.7-41.3-4.5-11.8-9.4-23.5-13.5-35.5zm3.5 77.2c1.8-2.4 3.2-5 5.3-7.1 0.8 23.3-2.3 46.8-9.4 69-7.7 23.8-20.9 45.8-38.2 63.8-12.8 13.7-27.8 25.1-43.3 35.6-6.9 4.8-14.1 9.3-20.6 14.7-10.3 9.2-20.4 18.8-28.6 29.9-11.8 15.2-22.9 31-34.7 46.1-0.4-2.7-0.5-5.5-0.4-8.2 0.4-19.8 3.5-39.6 10.3-58.3 9.6-26.4 26.6-49.7 47.1-68.7 13.2-12.4 27.9-23.1 42.5-33.8 8.1-6.2 16.8-12 23.1-20.2 16.7-20.1 31.9-41.4 46.9-62.8zm-103.6 200.9c26.7-12.3 56-20.2 85.6-19.7 29.2 0.1 57.8 8.9 83.5 22.6 13.9 7.1 26.7 16 40.5 23.3 12.9 5.7 26.1 11 39.9 14 18.9 4.3 37.9 8.1 56.8 12.2-29 15-62.3 21.8-94.8 18.2-22.7-2.3-44.6-9.7-65.1-19.4-17-7.9-32.9-17.9-49.7-26.3-8.2-4.2-17.3-6.1-26.1-8.3-24.4-5.8-48.9-10.7-73.6-14.9 1-0.6 2-1.2 3-1.7z"/>
	</g>
</svg>