<svg version="1.2" xmlns="http://www.w3.org/2000/svg" viewBox="0 0 1563 1271" width="1563" height="1271">
	<title>Kroger_(2021)_logo-svg</title>
	<style>
		.s0 { fill: #ffffff } 
	</style>
	<g id="Layer">
		<path id="Layer" class="s0" d="m486.9 900.6q-9.4 9.3-18.7 18.7l236.8 351.2h-214l-159.9-253.5c-47.8 22.8-99.7 37.4-151.6 47.8v205.7h-178.7v-737.8h178.7v370c78.9-18.7 141.2-54.1 186.9-108.1 58.2-66.5 78.9-147.6 87.3-203.7q4.1-22.9 4.1-47.8c4.2-301.4 249.3-542.5 550.5-542.5 305.3-2.1 554.6 245.3 554.6 552.9h-159.9q0-10.4 0-16.6c-4.2-218.3-184.9-390.8-400.9-386.6-218.2 2-390.6 182.9-386.4 401.1q0 27-4.2 56.1c-8.3 81.1-39.4 193.3-124.6 293.1z"/>
	</g>
</svg>