<svg version="1.2" xmlns="http://www.w3.org/2000/svg" viewBox="0 0 1532 302" width="1532" height="302">
	<title>kilroy-logo-svg</title>
	<style>
		.s0 { fill: #cf1f2f } 
		.s1 { fill: #ffffff } 
	</style>
	<path id="Layer" class="s0" d="m870.6 128.3c0 13.8-8.6 19.5-26.5 19.5h-7.9v-41.2h8.5c17.8 0 25.9 5.3 25.9 21.7z"/>
	<ellipse id="Layer" class="s0" cx="1127.4" cy="152.4" rx="41" ry="45.9"/>
	<path id="Layer" fill-rule="evenodd" class="s0" d="m0 0h1532v302h-1532zm221 230.3l-62.9-80.1 57.9-76.4h-49.8l-49.5 71.1v-71.1h-42.2v156.5h42.2v-70.3l51.1 70.3zm135.9 0h43.1v-156.5h-43.1zm304.6-36.5h-53v-119.9h-42.7v156.4h95.7zm258.8 36.6l-42.7-63c22.8-4.9 35-20.4 35-44.7 0-16.2-6.1-29.5-17.5-38.2-13.4-10.3-30-10.6-51.7-10.6h-47.3v156.5h40.1v-61.3l35.9 61.3zm290.8-77.9c0-22.1-8.4-42.5-24.3-58-15.8-15.3-37.5-24.1-59.4-24.1-21.9 0-43.4 8.8-59.2 24.1-15.9 15.5-24.5 35.7-24.5 58 0 25.1 10.8 47.5 30.5 63.2 15.1 12.1 34.1 18.8 53.2 18.8 21.9 0 43.3-8.5 59.4-24 15.7-15.3 24.3-35.7 24.3-58zm260-78.6h-49l-20.8 40.3c-1.3 2.4-4 6.3-5.5 13.3-1.5-7.2-4.2-11.1-5.3-13.3l-21-40.3h-49.3l55 85.1v71.4h41.2v-71.4z"/>
	<path id="Layer" fill-rule="evenodd" class="s1" d="m74.5 73.8h42.2v71.1l49.5-71.1h49.8l-57.9 76.4 62.9 80.1h-53.2l-51.1-70.3v70.3h-42.2zm282.4 0h43.2v156.4h-43.2zm208.9 0h42.7v119.9h53v36.5h-95.7zm230.3 0h47.3c21.7 0 38.3 0.3 51.7 10.6 11.4 8.7 17.5 22 17.5 38.2 0 24.3-12.2 39.8-35 44.7l42.7 63h-48.2l-35.9-61.3v61.3h-40.1zm48 73.9c17.9 0 26.5-5.7 26.5-19.4 0-16.5-8.1-21.7-25.9-21.7h-8.5v41.1zm283.3 86.7c-19.1 0-38.1-6.8-53.2-18.8-19.7-15.8-30.5-38.1-30.5-63.3 0-22.3 8.6-42.4 24.5-58 15.8-15.3 37.3-24 59.2-24 21.9 0 43.6 8.7 59.4 24 15.9 15.6 24.3 35.9 24.3 58 0 22.3-8.6 42.7-24.3 58-16 15.5-37.5 24.1-59.4 24.1zm40.9-82.1c0-25.4-18.3-45.9-40.9-45.9-22.7 0-41 20.5-41 45.9 0 25.4 18.3 46 41 46 22.6 0 40.9-20.6 40.9-46zm206.9 6.6l-55-85.1h49.3l21 40.2c1.1 2.2 3.8 6.1 5.3 13.4 1.5-7 4.2-11 5.5-13.4l20.8-40.2h49.1l-54.8 85.1v71.3h-41.2z"/>
</svg>