<svg version="1.2" xmlns="http://www.w3.org/2000/svg" viewBox="0 0 1271 1506" width="1271" height="1506">
	<title>kronos-masterlogo-tm-svg</title>
	<style>
		.s0 { fill: #0031a1 } 
	</style>
	<g id="Layer_2">
		<g id="Layer">
			<g id="Layer">
				<path id="Layer" class="s0" d="m620.6 1134c-13.1 54.9-30.9 54.2-41.1 116.1 4 2 8 4 11.9 5.9l43.6 21.2c-1.5-17.7 8.7-37 9-61.1 0.4-44.3-23.4-82.1-23.4-82.1zm-172.9 47.8c0-38.3 8-72 36.3-142.8 7.7-19.4 9.7-45.6 11.6-59.1 1.7-12.5 4.3-24.7 10.6-35.9 21-37.3 45.5-41.1 91.8-58.8 34.7-13.3 40.5-52 37.8-65-0.8-3.7-3.6-6.6-7.3-7.2-76.8-12.4-114.2-60.6-114.2-60.6-54.5-54.7 2.8-130.9 27.3-158.7 8.9-9.9 19.2-18.7 30.8-25.2 86.1-48.4 182.7 39.6 198.3 51.4 17.9 13.6 10.6 21.4 10.6 21.4-13.7 18.2-1.8 25.3 3.5 30.4 26.4 24.7 1.1 39.9-12.1 79.2-11.5 34.2 8.1 71.4 11.6 77.6 8.3-11.1 9.8-26.7 15-49.2 9.5-41.2 23.7-112.9 86.7-251.9 1-5.1 30.9-127.8 27.4-229.3-3.3-94.2 61.2-137.9 61.9-138.3l0.6-0.4c21.3 17.8 9.1 57.3 5.7 67.6 16.4-4.4 40.2-14.1 44.3-25.2 1.9-5 2.8-13.5 3.7-22.6 1.4-14.1 2.8-28.8 8.4-36.1 2.8-3.7 5.6-5.6 8.6-5.8 4.8-0.3 9 4.1 13.7 9.1q1.8 1.9 3.7 3.7c6.3 6.2 13.7 1.9 24.8-4.5 2.8-1.7 6.1-3.7 9.6-5.5 7-3.7 12.2-4.5 15.5-2.5 3.3 2.1 3.3 6.1 3.3 6.3l-0.1 0.3c-1.3 4.3-31.7 103.8-60.1 129-11.3 10.1-23.1 19.9-32.6 27.8-4.7 3.9-8.9 7.4-12.1 10.2-6.5 5.5-6.1 11.2-4.6 19.9 9.3 52.8 17.2 133.7 2.1 218.6-4.3 24-7.4 35.1-15 58.3-10.7 32.5-23.9 82.1-25.9 134.3-1.8 50.3-9.7 75.7-16 96.2-1.6 5.1-3.1 9.9-4.3 14.7-8.9 33.7-5.8 54.8-3.2 64.3 0.9 3.4 2.7 8.6 5 15.2 8.4 24.3 24.1 69.5 28 119.3 4.3 53.4-4.2 89.8-22.2 142.2-15 43.5-39.9 122.2-38.9 161.9v2.1l-1.9-0.9c-1.8-0.8-43.5-22.2-18.7-135.9 6.8-30.9 14.7-52.8 21.7-72.2 18.8-51.9 30.1-83.3-9.1-214.7-10.3-27.7-0.2-69.6 11.9-113.7 8.8-32.2 14.5-66.1 16.9-101 2.1-29.6 7.8-73.8 23.6-116 15.5-41.5 25.7-81.1 27.5-106 5.7-82.7 1.9-111.2-11.4-178.2l-0.3-1.3c-1.2-6-2.3-11.8 3-16.2 11.1-9.4 24.9-21.3 36.1-30.9 9.2-7.9 16.5-14.1 19.8-16.9 13.8-11.4 58.8-85.9 66.7-99-26.2 0.9-47.6 39-55.8 55.7-3.6 7.3-9.1 13.3-16.1 17.3-20.7 11.8-51.1 25.3-61.7 26-3.8 0.3-7.3-1.5-9.2-4.7-1.9-3.1-2-6.9-0.1-10.1 21.6-36.6 17-56.4 15.5-62.9-8.1 9.2-42.9 52.7-35.8 113.7 7.4 62.4-5.4 158.4-34.2 256.8-11.1 37.8-24 74.5-37.8 113.3-18.5 52.6-37.7 107-55 171.5-2.7 10.4-6 18.1-9.8 23.8-9.8 14.6-32.9 10.2-39.6-2.4-20.4-38.3-13.6-83.7-13.6-83.7l-14.4 13.6c0 0-12-15.6 9.9-41.7 20.9-24.9 25.3-43-2.4-58.3-9-5-13.5-14.2-8.6-23.7 0 0 10.1-18.8-4.9-30.3-7.9-6.2-47-39.8-71-46.2-18.1-4.8-49.9-6.1-75.4 22.3 0 0-67 68.1-39 119.7 0 0 22.7 42.3 98.3 48.1 0 0 33.5 0.1 33.5 50.6 0 50.5-51.1 77.9-81.4 89.5-30.3 11.6-61.8 21-62.9 70.7-1.1 49.7-11.2 56.2-33.1 119.9-16.2 47-17.6 81.9-17.4 95.8 23.1 12.2 45.7 23.9 67.9 35.1-0.8-25.7 26.9-69.6 35.2-84.6 27.8-50.2 30.9-83.8 30.9-83.8 0 0 36.4 47.3 51.4 89.5 24 67.5 1.3 74 12.1 142.2 3.9 1.9 7.9 3.8 11.9 5.6 355.1 165 563.6 202.2 563.6 202.2h0.2c71.7-901.8-117.5-1493.6-121.5-1505.8-801.6 437.1-1132.8 912.5-1132.8 912.5 162.1 107.6 312.1 196.3 447.7 269.3z"/>
			</g>
		</g>
	</g>
</svg>