<svg version="1.2" xmlns="http://www.w3.org/2000/svg" viewBox="0 0 1549 1544" width="1549" height="1544">
	<title>Keros Therapeutics - Investor Call Presentation 12</title>
	<defs>
		<clipPath clipPathUnits="userSpaceOnUse" id="cp1">
			<path d="m-3754.39-1849.61h12439.85v6996.39h-12439.85z" />
		</clipPath>
		<clipPath clipPathUnits="userSpaceOnUse" id="cp2">
			<path d="m6901.83 0.48v1553.59h-6900.94v-1553.59" />
		</clipPath>
	</defs>
	<style>
		.s0 { fill: #be1c2e } 
		.s1 { fill: #ec1c24 } 
	</style>
	<g id="Clip-Path: Page 1" clip-path="url(#cp1)">
		<g id="Page 1">
			<g id="Clip-Path: Mask" clip-path="url(#cp2)">
				<g id="Mask">
					<path id="Path 3" class="s0" d="m615.1 1058.4h329.8v106.3c-49.9-27.9-104.3-42.1-164.6-42.1c-60.9 0-116 14.2-165.2 42.1zm324.6-577.9h-329.8l5.2-112.1c49.2 28.5 104.3 42.2 165.2 42.2c60.3 0 114.7-13.7 164.6-42.2zm127.6 456.1v-328.4h106.9c-28.5 49.2-42.7 104.3-42.7 164.5c0 60.3 14.2 114.7 42.7 163.9zm-579.8-323.9v329.7l-112.8-5.8c29.2-49.2 42.8-103.6 42.8-163.9c0-60.2-13.6-115.3-42.8-164.5zm-300 516.3l233.3 232.5l-74.5 74.5c-15.6-55-44.7-103.6-87.5-146.4c-42.1-42.7-92-71.9-146.4-86.1zm1150.7-685.4l-233.9-232.6l82.9-75.8c15.6 55.1 43.4 105 86.8 146.4c42.8 42.8 91.4 71.9 146.5 86.8zm-217.1 907l233.9-233.9l74.5 75.8c-54.4 14.3-103.7 43.4-146.4 86.2c-43.4 42.7-71.3 91.3-86.8 146.4zm-687.5-1148l-233.2 233.9l-75.2-82.9c54.4-14.9 104.3-44.1 147.1-86.8c42.8-41.5 71.3-91.4 86.8-146.4z" />
					<path id="Path 4" class="s1" d="m252.9 1526.1c-18.1 17.5-46 22.1-82.9 13.6c-37.6-9-71.9-29.1-103.7-61.5c-32.4-31.7-52.5-66.7-61.5-103.6c-7.8-37-3.9-64.8 13.6-82.3c17.5-17.5 44.7-22.7 82.9-13.6c36.9 9.7 71.9 29.8 103 60.9c32.4 31.7 52.5 66.7 61.6 103.6c8.4 38.2 4.5 65.5-13 82.9zm-122.4-632.2q-32.4-53.8-32.4-127.6c-3.9-60.3 12.9-107.6 47.9-143.9c14.3-13.6 31.8-21.3 53.1-21.3c21.4 0 43.5 14.9 64.8 42.7c21.4 35.7 31.1 78.4 31.1 128.3c0 56.4-15.5 101-47.9 132.8c-17.5 17.5-34.3 25.9-48 25.9c-27.8 0-51.1-12.3-68.6-36.9zm814.4 451.5c0 21.4-7.1 38.9-21.4 53.1c-35 35-82.9 51.9-143.2 48c-49.2 0-91.3-11-122.4-32.4c-32.4-21.4-46.7-43.4-42.8-68.7c0-14.2 8.4-29.8 25.9-47.3c32.4-32.4 77.1-48.6 133.5-48.6q74.5 0 128.3 31.8c28.5 21.3 42.1 42.7 42.1 64.1zm-878.6-1280.1c31.8-31.7 66.1-52.4 103.7-60.9c36.9-8.4 64.8-3.9 82.9 12.3c17.5 18.8 21.4 46 13 83c-9.1 37.5-29.2 71.9-61.6 103.6c-31.1 31.8-66.1 52.5-103 60.9c-38.2 9.1-65.4 3.9-82.9-13.6c-17.5-17.5-21.4-44.1-13.6-82.3c9-36.9 29.1-71.9 61.5-103zm1417 1412.9c-32.4 32.4-66.7 52.5-103.7 61.5c-37.5 8.5-64.8 3.9-82.2-13.6c-11.1-11-16.9-26.5-16.9-47.9c0-21.4 5.8-44.7 16.9-68.7c10.3-25.2 25.9-48.5 47.3-69.9c32.3-31.1 66-51.2 104.3-60.9c36.9-9.1 64.1-3.9 82.9 13.6c9.7 10.3 15.5 27.2 15.5 47.3c0 21.4-5.8 44.7-15.5 69.9c-11 24-27.2 47.3-48.6 68.7zm-868.2-1290.4c-3.9-18.2 3.9-35.7 21.4-53.2q47.6-48.5 143.8-48.5q74.5 0 122.5 37.5c24.6 17.5 38.9 38.9 42.1 64.2c-3.2 17.5-11.7 33-26.6 47.3c-31.7 32.3-77.7 49.8-138 53.7q-70-5.8-120.5-35c-33-19.4-48.6-41.4-44.7-66zm846.8 578.5c0 64.1-16.2 111.4-47.9 143.1c-17.5 17.5-35 24.6-53.8 21.4c-21.4 0-41.5-14.2-62.8-42.1q-38.3-48.6-38.3-122.4c3.9-60.3 21.4-105.6 53.8-138c14.3-14.3 29.8-23.3 47.3-27.2c21.4 0 42.8 16.8 64.1 48.6c21.4 31.7 34.4 70.6 37.6 116.6zm70-515.7c-7.8 7.1-18.8 13-32.4 16.8c-14.3 2.6-29.8 2.6-48.6 0q-26.2-5.8-52.5-21.3c-18.8-11-36.3-25.3-53.7-42.8c-31.8-31.7-52.5-66.1-61-103.6c-9-37-5.1-64.2 13.7-83c17.4-16.2 44.7-20.7 82.2-12.3c37 8.5 71.3 29.2 103.7 60.9c31.7 31.1 52.5 66.1 60.9 103c9.1 38.2 5.2 64.8-12.3 82.3zm-754.5 682.1c-90.8 0-164.2-73.2-164.2-163.8c0-90.7 73.4-163.9 164.2-163.9c90.8 0 164.3 73.2 164.3 163.9c0 90.6-73.5 163.8-164.3 163.8z" />
				</g>
			</g>
		</g>
	</g>
</svg>