<svg version="1.2" xmlns="http://www.w3.org/2000/svg" viewBox="0 0 1596 900" width="1596" height="900">
	<title>kingspan-logo-svg</title>
	<style>
		.s0 { fill: #c0995d } 
	</style>
	<g id="Home">
		<g id="global-home-20">
			<g id="navbar">
				<g id="logo">
					<path id="Fill-1" fill-rule="evenodd" class="s0" d="m1191.8 230.9c0 4.1-22.6 4.1-55.3-1.7-32.7-5.7-85.2-45.7-202.3-55.7-116.9-10.1-112.6 0.8-162.1-9.6-49.6-10.1-111.3-33.8-111.3-34.8 0.4-1 45.9 8 68.4 4.3 23.1-3.7 149.8-46.4 232-35.7 82.1 11 138.9 84.5 165.1 104 26.3 19.8 65.5 25.3 65.5 29.2zm-196.5-148.4c0 3.3-10.9 3.5-26.2 2.1-15.3-1.6-9.4-4.5-69.2-11.7-59.5-7.3-130 29.7-191.1 40.1-61.1 10.2-112.8-10.4-112.8-10.4 0 0 56-0.6 85.2-9.4 29-8.6 70.5-44.4 132.2-67 61.9-22.5 124.5 25.5 149.2 41.6 24.7 16 32.7 11.1 32.7 14.7zm-191.3-70.2c0 2.6-24.1-4.1-45.8 6.7-22 11-72.1 52.5-118.7 63.5-43.3 9.9-104.4 10.3-112.4 10.3 7.8-0.5 60.7-5.1 92.8-28 35-24.6 71.3-65.4 107.7-64 36.4 1.5 76.4 7.8 76.4 11.5zm-266.8 214.7c17.1 19.4 42.2 38 52.5 63.9l-1.7 7.6c-37.4-34.5-77-61.3-130.9-67.6-10.1-1.9-18.4 2.2-28.5 0 18-22.5 34.4-38.2 65.4-47.4 24.6 7.9 44.4 8.4 68.1 8.3 2 3.1 4.3 9.7 3.3 14.8l-26.4-0.4 3.5 8.7c26.1 13.5 50 18 68.4 43.1l8.8 33.5c-26.1-26.7-44.1-45.9-82.5-64.5zm1040.4 672.2c-1 4.9-359.4-29.7-690.8-151.6-38.2-13.9-76.2-29.2-113-45.6l-39.3 23.3c-12.6-2.8-7.3-14.7-14.3-18.8-36.1-28.8-80.5-43.5-124.2-60.7-10.6 0.4-5.7 14.5-16.5 14.9-84.2-12.8-162.7 33.7-238.9 57.2 5.9-27.9-29.9-32.9-42.9-46.3-49.5-28.4-78.7-55.6-100-80.9-19-22.5-31.6-43.6-46.7-62.8-13.5-17.1-28.9-32.5-52.4-46.1-12.8 10.4-31.6 15.9-49.2 8.1-11.9-5.5-18-13.7-22.3-24.7-1.6-3.9-3-8-4.1-12.5-5.1-19 0.4-35.3 8.6-50.2l19.4-0.2h-19.4c2.1-4.1 4.7-8.2 7.4-12.3 11.8-18.6 36.3 2.5 41.7-22.7 20.2-8.9 46.7-15.7 81.5 0.5 23.5 11 40 21.4 56.8 34.5 6.5 5.1 12.9 10.6 19.8 16.7 1.7-8.7 4.3-12.8 8.4-16.7 3.1-2.9 7.1-5.7 12.7-10.2-2.9-11.1-10.3-25.8 2.4-36.4 5.3-8.8 13.3-12.9 22.1-16.1 12-4.1 25.3-6.4 34.9-16.6 28.8-14.1 53.8 1.9 79.9 16.6 11.1 6.3 22.5 12.4 34.4 15.7 1.2-5.5 1.4-10.8 0.6-15.7-1.7-10.9-7.4-20.7-14.7-29.5-16.8-19.4-48.7-18.3-63.2-37.3-4.3-16.6-9.2-30.9-19.6-43.6l1.6-7.7c20.1 4.3 22.9 28.6 29.7 46.1 3-2.2 9.6 4.5 10.6-0.4-5.9-22.4-16-48.4-29-61.7l2.2-10 97.3-37.4c7.1-32.7 32.1-51.2 61.5-66 41.7-24.3 56.8-67.4 88.3-79.2 19.2-6 64.3-7 64.3-4.7 0 2.6-40.2 28.6-60.3 49.6-18.3 18.6-79 35-79 35 0 0-44.2 8.5-59.9 58 18.2 1.2 37-11.9 56.2-15.7l66.8 45.9-1.6 6.1c-34.6-23.2-84.6-36.5-122.2-20.6-28.4 9.8-54.8 22.5-83.8 34.9 7 4.1 22.1 7.2 23.1 15.4l-21.9 16.5c5.3 24.9 14.1 45 38.2 55.6l44.2-22.3c13.9 21.3 38.4 42.5 31.9 72.8v0.2l-16.6 41c12.1 4.1 22.1 14.7 32.5 21.7 8.4 5.9 17.2 9.2 27.8 4.3 23.3 2.4 41.3 16.7 53.9 32.5l2.9-1.9c-4.3-8.4-10-21.2-16.2-34.9-10.4-22.9-21.6-48.8-27.7-62.7-2.7-6.4-4.3-10.3-4.3-10.3 5.1 3.3 10.2 6.8 15.1 10.3 25.5 18.3 48.4 39.6 69.5 62.7 18.3 20 35.1 41.3 51 62.9 1.1 1.6 2.1 2.9 3.3 4.5-0.6-1.6-1-2.9-1.6-4.5-5.5-17.2-10.9-39.8-15.8-62.9-4.5-21.5-8.7-43.7-12-62.7-5.1-29.9-8.4-52.1-8.4-52.1 8.2 16.1 15.7 33.9 23.3 52.1 8.4 20.6 16.8 42.1 26.6 62.7 10.4 22.5 22.2 44.1 36.5 62.9 5.8 7.6 12.1 14.9 19 21.5 10.3 12.8 25.4 15.9 29.9 32.7-56.4-19.9-118.3-51.5-183.9-52.3-2.5-0.5-4.7-1.1-7-1.9-23.9-8.2-41.5-30-65.8-40-15.7-6.8-30.8-14.7-45.9-22.9-36-19.8-70.7-42.5-105.7-62.7-4.3-2.5-8.8-5.1-13.1-7.4-10.6 0.4-23.7 0.2-27.8 7.2v0.2c7.4 14.7 22.9 28.4 33.2 41.2-28.7-0.8-62.8-63.5-89.3-13.7-7.6 11.5 3.4 21.7 14.9 29.5 3.7 3 8.1 4.7 12.4 5.7 11.5 3 23.9 1.6 31.9 9l-6.1 3.9c-25.8-2.7-62.1-18.4-76 10.2-5.3 16.5 3 28.6 13.5 39.8 5.5 5.9 11.6 11.3 16.7 16.8 10 2.2 15.1 3.2 21.7-3.3-8.2-1.8-19.6-5.9-25-13.5-1.2-1.8-2-3.5-2.6-5.5 12 1 23.9 2.9 35.7 5.5 29.3 6.3 57.9 16.6 83.8 27.8l-7.3-27.8c15.7 22.9 34.3 43.7 54.9 62.9 25.2 23.3 53.4 44 83 62.6 15.1 9.4 30.4 18.5 45.8 26.9 55.3 25 120.5 46.2 164.3 87.3 62.7-34.2 132-55.8 205.5-66.6 0 1.6-0.2 23.9-11 26.7 26.5 24 3.3 47 38.6 67.5 13.1 5.3 26.4 10.2 39.9 15.1 263.3 96.4 564.7 146.3 564.7 151.6zm-1530.5-434c2.1 1.9 4.5 3.7 7.4 5.5 12.1 7.4 9.8-1.4 15.9-5.3 0-0.2 0-0.2 0-0.2-5.9-9.2-8.9-20.4-9.2-31-5.5-8.2 0.5-24.1-0.4-31.9-0.4-3.5-2.4-5.5-7.9-4.1-0.6 1.4-1.1 2.7-1.9 4.1-9.4 19.4-24.3 44.3-3.9 62.9zm549.7-62.9c9 17.6 18.6 36.8 26.8 51.5l27.2 8.4c-11.7-15.8-26.8-39.3-42.5-59.9-9-11.7-18.4-22.5-27.2-30.2 4.5 8.3 9.8 18.9 15.7 30.2zm-134.6-33.1c-2.5-10.2-0.5-21.7-9.2-29.6-0.7-0.6-1.5-1.1-2.5-1.7 0.4 0.4 0.8 1.1 0.8 1.7 3.1 10.6-12.4 34.7 10.9 29.6zm47 230.2c-3.7-2.8-7.6-5.7-11.5-8.7-32.1-24.2-67.8-53.6-67.8-53.6-5.5 17.4-8 25.6-26.6 34.1-14.3 5-27 5-40.2-0.4 11.2-1 16.9-4.5 19-13.9-13.1 3.5-11.9 9-42.3 4.3-4.3-0.8-27.8-14.9-57.7-33.1-32.2-19.8-71.7-44.5-103.2-62.9-11-6.3-20.8-12-29.2-16.5-19-10.2-33.1 7.9-38.4 16.5-1.6 2.5-2.4 4.1-2.4 4.1 0 0 28 19.4 72.9 58.8 19.4 17 42.1 38 67 62.6q1.4 1.5 2.9 3c36.8 27.4 98.7 50.1 90.3 57-9.4 7.6 52.7-2.2 85-17.3 28.8-9.2 31.3-32.3 82.2-34zm-391.2-171.4c12.1-8.1 28-20.6 44-9.2 0.8 8.2-8.6 3.5-14.3 4.9 32.1 14.5 57 27.2 81.7 41.5 18.2 10.4 36.2 21.3 57 34.5-16.3-14.9-27.8-25.9-36.6-34.5-21.8-21.8-25.9-29.4-44.5-48.4-6.3-5.5-11.8-10.2-17-14.5-18.5-15.1-32.7-23.3-66.6-28.4-22.6-2.7-33.5 10.2-38.4 28.4-1.2 4.7-2.2 9.8-2.8 15.1-3.1 15.1 1.2 31.9 16.9 32.5 13.1 0.2 13.9-15.5 20.6-21.9zm192.5 62.1c22.5 14.3 23.1 2.1 44.2-2-14.3-6.9-7.6-2.5-30.3-8.8-5.5 7-6.9 7.8-13.9 10.8zm220.3-150.5c-0.8 6.5-2.2 13.4-5.1 18.4-5.9 10.8-12.7 24.1-22.9 22l-4.7-4.7c8.2-9.4 13.5-22.3 16.2-35.7 1.8-8.8 2.6-18 2.2-26.4 6.1-3.9 10.2 2.1 14.7 5.9 0 0 0.8 9.8-0.4 20.5zm-474.1 178.1c-20.6 7-39.4-5.1-50.4-23.9-5.5-9.4-5.5-19.6-5.3-28.6 0.2-3.3 0.4-6.5 0.2-9.4 1.6-7.5 8.8-16.5 14.5-18-0.8 10.3-1.5 19-0.4 27.4 0.8 6.3 2.6 12.1 6.3 18.8 8.2 14.3 28.8 20.9 47.4 16.1 6.3-1.6 5.7-4.9 10.2-1.2 2.7 11.1-11.8 15.3-22.5 18.8zm855.6 91.1c-67.4 20.5-171.8 77.7-171.8 77.7 0 0-71.1-44.6-114.3-64.4-21-9.4-42-19.8-62.3-31.4-32.3-18.2-63.3-38.9-90.5-62.6-18.2-15.9-34.7-32.7-49.2-51.2 0 0 33.7 24.1 79.4 51.2 38.7 22.9 86.1 48.1 129 62.6 12.6 4.3 24.7 7.7 36.3 9.8 32.7 7.1 66.7 3 94.5-4.5 0.8 21.4-15.4 29.2-33.2 38.6 20.5 1.8 46.6-8.4 62.8-23.5 5.7-6.1 9.6-12.9 12.6-20.4 7.4-19.7 6.8-43.2 5.3-62.6 24.6 19.5 55.2 41.1 81 62.6 7.3 6.1 14.1 12 20.4 18.1zm443.4-26.9c0 1.8-16.5 5.3-38.6 8.8-32.1 5.1-76.6 10.2-100.1 9.6-29-0.7-102.6 9-171.2-9.6-24.6-6.8-48.9-17.2-69.9-33.5-11.1-8.6-23.9-19.3-34.6-29.1-0.8-0.6-1.4-1.2-2-1.8q-31.4-29.1-59.3-61.1c-18.2-20.8-35.1-42.1-50.6-62.9-16.4-21.9-31.1-43.3-43.8-62.7-31.4-47.8-50.2-83.4-52.5-87.7 2.1 2.1 38.4 42.9 81.2 87.7 20.4 21.4 42.3 43.5 62.7 62.7 21.8 20.8 41.7 38 56.4 47.8 7.5 4.9 15.9 10 24.9 15.1 38 21.5 87.4 43.5 131.2 61.1 1.4 0.6 2.6 1 3.9 1.6 23.5 9.2 48.2 18.8 65 24.4 57 19.8 197.3 25.3 197.3 29.6zm239.9-82.8c0 3.7-324.4 16.6-523.1-33.9-27.4-7.1-52.7-15.3-74.2-24.9-20.2-9.2-42-22.3-63.9-38-26-18.6-52.7-40.5-77.3-62.7-65.8-58.9-119.3-119.2-122.8-123.2 4.1 2.6 71.4 44.3 123.9 67 29 12.8 77.4 28.8 144.4 56.2 39.7 16.3 85.7 36.7 138 62.7 24.3 12.2 50 25.5 77 40.4 16.3 8.8 36.3 16.2 58.6 22.5 125.1 34.9 319.4 30.2 319.4 33.9zm-230.5-112.7c0 0-37.8 17.5-136.1-4.3-44.5-10-80.5-25.2-117.3-42.5-44.5-20.9-89.9-44.4-152-64.2-113.4-36.2-126.1-36.1-167.1-59.6-38.5-21.9-62.4-38.9-65.4-40.9 4 1.4 49.4 17.6 83.1 22.3 35.2 5.1 271 32.6 358.2 80 41.7 22.5 67.5 45.2 87.1 62.4 13.3 11.6 23.9 20.8 34.7 25.7 26.8 12.5 74.8 15.7 74.8 21.1z"/>
				</g>
			</g>
		</g>
	</g>
</svg>