<svg version="1.2" xmlns="http://www.w3.org/2000/svg" viewBox="0 0 1371 1543" width="1371" height="1543">
	<title>logo (25)-svg</title>
	<defs>
		<clipPath clipPathUnits="userSpaceOnUse" id="cp1">
			<path d="m0.83 0.83h4523.45v1542.16h-4523.45z"/>
		</clipPath>
	</defs>
	<style>
		.s0 { fill: #00093f } 
		.s1 { fill: #003487 } 
		.s2 { fill: #094eb2 } 
		.s3 { fill: #007ee8 } 
		.s4 { fill: #00a8f6 } 
		.s5 { fill: #ffffff } 
	</style>
	<g id="Clip-Path" clip-path="url(#cp1)">
		<g id="Layer">
			<path id="Layer" class="s0" d="m228.3 717.5c-82.2-44.1-158-71.5-227.5-86.5v-178.5c0-47.2 25.2-90.9 66.1-114.5l552.7-319.5c20.4-11.8 43.2-17.7 66.1-17.7c22.8 0 45.6 5.9 66 17.7l552.7 319.4c40.9 23.7 66.1 67.3 66.1 114.6v223.5c-81.1 18.2-201.1 114.9-368.9 194.1c-207.5 36.7-462.7 14-773.3-152.6z"/>
			<path id="Layer" class="s1" d="m0.8 830.2v-199.2c69.5 15 145.3 42.4 227.5 86.5c310.6 166.6 565.8 189.4 773.3 152.6c-105.6 49.8-230.2 92.6-376 104.4c-41-17.9-83-38.2-126.1-61.3c-206.8-110.9-373.3-116.3-498.7-83z"/>
			<path id="Layer" class="s2" d="m1001.6 870.1c167.8-79.1 287.8-175.9 368.9-194v57.9c-101.3 55.3-223.4 110.3-368.9 136.1z"/>
			<path id="Layer" class="s2" d="m1001.6 870.1c145.5-25.8 267.6-80.8 368.9-136.1v309.4c-196.9 55.3-442.4 62.4-744.9-69c145.8-11.7 270.4-54.5 376-104.3z"/>
			<path id="Layer" class="s3" d="m0.8 838.6v-8.4c125.4-33.3 291.9-27.9 498.7 83c43.1 23.1 85.1 43.4 126.1 61.2c-176.1 14.2-383-16.9-624.8-135.8z"/>
			<path id="Layer" class="s3" d="m0.8 1030.8v-192.2c241.8 118.9 448.7 150 624.8 135.9c302.5 131.3 548.1 124.2 744.9 69v47.8c0 47.3-25.2 90.9-66.1 114.6l-138.3 79.9c-199 25.9-439.7-4.8-728.2-159.5c-174.5-93.7-320.4-112.1-437.1-95.5z"/>
			<path id="Layer" class="s4" d="m0.8 1091.4v-60.6c116.7-16.6 262.6 1.8 437.1 95.4c288.5 154.8 529.2 185.4 728.2 159.6l-414.4 239.5c-20.4 11.8-43.2 17.7-66 17.7c-22.9 0-45.7-5.9-66.1-17.7l-552.7-319.4c-40.9-23.7-66.1-67.3-66.1-114.5z"/>
			<path id="Layer" class="s5" d="m619.2 956.6c0 18.1-14.6 32.8-32.8 32.8h-131.5c-18.1 0-32.8-14.7-32.8-32.8v-135.8c0-4.6 3.7-8.3 8.3-8.3h180.4c4.6 0 8.4 3.8 8.4 8.4c0 0 0 135.7 0 135.7z"/>
			<path id="Layer" class="s5" d="m619.2 723c0 4.6-3.6 8.3-8.2 8.3h-180.6c-4.6 0-8.3-3.8-8.3-8.3v-135.8c0-18.1 14.7-32.8 32.8-32.8h131.6c18.1 0 32.7 14.7 32.7 32.8c0 0 0 135.8 0 135.8z"/>
			<path id="Layer" class="s5" d="m682.9 611.6l49.5-49.5c4.9-4.9 11.6-7.7 18.5-7.7h190.5c22.7 0 34.7 26.8 19.6 43.7l-133.1 149.8c-3.2 3.6-8.6 3.8-12.1 0.5l-132.7-125c-3.4-3.2-3.4-8.5-0.2-11.8z"/>
			<path id="Layer" class="s5" d="m942.5 989.4h-191.8c-6 0-11.8-2.4-16.1-6.6l-51.7-51.8c-3.2-3.3-3.2-8.6 0.2-11.8l132.9-125.2c3.4-3.1 8.7-2.9 11.7 0.5l134.4 151.2c15 17 3.1 43.7-19.6 43.7z"/>
		</g>
	</g>
</svg>