<svg version="1.2" xmlns="http://www.w3.org/2000/svg" viewBox="0 0 1601 547" width="1601" height="547">
	<title>logo (25)-svg</title>
	<defs>
		<clipPath clipPathUnits="userSpaceOnUse" id="cp1">
			<path d="m1 1h1600v545.29h-1600z"/>
		</clipPath>
	</defs>
	<style>
		.s0 { fill: #000000 } 
		.s1 { fill: #00093f } 
		.s2 { fill: #003487 } 
		.s3 { fill: #094eb2 } 
		.s4 { fill: #007ee8 } 
		.s5 { fill: #00a8f6 } 
		.s6 { fill: #ffffff } 
	</style>
	<g id="Clip-Path" clip-path="url(#cp1)">
		<g id="Layer">
			<g id="Layer">
				<path id="Layer" class="s0" d="m633 172.4h17.8v145.1l81.8-85.1h23l-61.1 61.9l62.9 80.5h-21.8l-53.3-67.7l-31.5 31.7v36h-17.8z"/>
				<path id="Layer" class="s0" d="m936.6 356.7l9.6-13.3c15.7 12 32.7 18.4 50.1 18.4c18.1 0 31.7-9.6 31.7-24.6v-0.5c0-15.5-17.3-21.1-36.5-26.4c-22.7-6.7-47.7-14.1-47.7-39.7v-0.6c0-24 19.7-40.5 47.7-40.5c17 0 36.5 6.1 50.9 16l-8.5 13.9c-13.4-8.6-28.8-14.2-43-14.2c-18.1 0-29.8 9.6-29.8 22.7v0.5c0 14.7 18.4 20.3 38.1 25.9c22.4 6.7 46.4 15.2 46.4 40.5v0.6c0 26.4-22.1 42.1-50.1 42.1c-20.5 0-43.2-8-58.9-20.8z"/>
				<path id="Layer" fill-rule="evenodd" class="s0" d="m1443.3 310.6h-115.2c2.9 32.8 26.4 51.7 52.8 51.7c20.5 0 34.9-9.1 46.6-21.3l11.5 10.4c-14.4 15.7-31.7 26.6-58.7 26.6c-38.3 0-70.6-29.8-70.6-74.1v-0.5c0-41.4 29.1-74.4 68-74.4c41 0 66.1 33.3 66.1 75.2c0 2.6 0 3.7-0.5 6.4zm-18.2-14.4c-2.1-27.2-17.6-51.5-47.9-51.5c-26.4 0-46.4 21.9-49.1 51.5z"/>
				<path id="Layer" class="s0" d="m1477.6 232.4h17.9v25.4c9.3-16 24.8-28.8 49.8-28.8c35.2 0 55.7 24 55.7 57.8v88h-17.9v-83.7c0-28-15.4-45.6-42.1-45.6c-25.8 0-45.5 19.5-45.5 47.5v81.8h-17.9z"/>
				<path id="Layer" fill-rule="evenodd" class="s0" d="m1256.3 232.4h17.8v142.4h-17.8zm8.9-33.8c-6 0-10.8-4.8-10.8-10.8c0-6 4.8-10.8 10.8-10.8c6 0 10.8 4.8 10.8 10.8c0 6-4.8 10.8-10.8 10.8z"/>
				<path id="Layer" fill-rule="evenodd" class="s0" d="m904.1 286.8v88h-17.6v-22.4c-9.9 13.4-26.7 25.6-52.5 25.6c-26.7 0-54.1-15.2-54.1-44.5v-0.5c0-29.9 25-46.2 61.5-46.2c19 0 32 2.4 45.1 6.2v-5.6c0-27-16.3-41.1-44.2-41.1c-17.1 0-30.7 4.5-44 10.9l-5.6-14.9c15.4-7.2 30.9-12 51.2-12c19.7 0 35.1 5.3 45.5 15.5c9.6 9.8 14.7 23.2 14.7 41zm-17.1 20.3c-11.4-2.9-26.1-6.1-45-6.1c-28 0-43.7 12.2-43.7 30.9v0.8c0 18.9 17.8 30.1 38.1 30.1c27.4 0 50.6-16.8 50.6-40.8z"/>
				<path id="Layer" fill-rule="evenodd" class="s0" d="m1220.5 303.1v1.1c0 46.6-32.7 74.1-65.2 74.1c-25.8 0-42.3-15.5-53.7-33.3l-0.2-1.1v75.2h-17.8v-186.7h17.8v30.9l0.2-1c11.4-17.9 27.9-33.3 53.7-33.3c32.5 0 65.2 27.4 65.2 74.1zm-18 0.6c0-35.5-23.1-58.2-50-58.2c-23.6 0-51.7 23.5-51.7 57.9v0.5c0 34.4 28.1 57.9 51.7 57.9c26.9 0 50-22.7 50-58.1z"/>
			</g>
			<path id="Layer" class="s1" d="m81.5 254.4c-29.1-15.6-55.9-25.3-80.5-30.6v-63.1c0-16.7 8.9-32.1 23.4-40.5l195.5-112.9c7.2-4.2 15.3-6.3 23.3-6.3c8.1 0 16.2 2.1 23.4 6.3l195.5 112.9c14.5 8.4 23.4 23.8 23.4 40.5v79c-28.7 6.5-71.2 40.7-130.5 68.6c-73.4 13-163.7 5-273.5-53.9z"/>
			<path id="Layer" class="s2" d="m1 294.3v-70.5c24.6 5.3 51.4 15 80.5 30.6c109.8 58.9 200.1 67 273.5 54c-37.4 17.6-81.5 32.7-133 36.9c-14.5-6.3-29.4-13.5-44.6-21.7c-73.2-39.2-132.1-41.1-176.4-29.3z"/>
			<path id="Layer" class="s3" d="m355 308.4c59.3-28 101.8-62.2 130.5-68.6v20.5c-35.9 19.5-79 38.9-130.5 48.1z"/>
			<path id="Layer" class="s3" d="m355 308.3c51.5-9.1 94.6-28.5 130.5-48v109.4c-69.7 19.5-156.5 22-263.5-24.5c51.5-4.1 95.6-19.2 133-36.9z"/>
			<path id="Layer" class="s4" d="m1 297.2v-2.9c44.3-11.8 103.2-9.9 176.4 29.3c15.2 8.2 30.1 15.3 44.6 21.6c-62.3 5.1-135.5-5.9-221-48z"/>
			<path id="Layer" class="s4" d="m1 365.2v-68c85.5 42.1 158.7 53.1 221 48.1c107 46.4 193.9 43.9 263.5 24.4v16.9c0 16.7-8.9 32.1-23.4 40.5l-48.9 28.2c-70.4 9.2-155.6-1.6-257.6-56.4c-61.7-33.1-113.3-39.6-154.6-33.7z"/>
			<path id="Layer" class="s5" d="m1 386.6v-21.4c41.3-5.9 92.9 0.6 154.6 33.7c102 54.8 187.2 65.6 257.6 56.4l-146.6 84.7c-7.2 4.2-15.3 6.3-23.4 6.3c-8 0-16.1-2.1-23.3-6.3l-195.5-112.9c-14.5-8.4-23.4-23.8-23.4-40.5z"/>
			<path id="Layer" class="s6" d="m219.7 338.9c0 6.4-5.2 11.6-11.6 11.6h-46.5c-6.4 0-11.6-5.1-11.6-11.6v-48c0-1.6 1.3-2.9 2.9-2.9h63.8c1.7 0 3 1.3 3 3c0 0 0 47.9 0 47.9z"/>
			<path id="Layer" class="s6" d="m219.7 256.4c0 1.6-1.3 2.9-2.9 2.9h-63.8c-1.7 0-3-1.3-3-3v-48c0-6.4 5.2-11.6 11.6-11.6h46.5c6.4 0 11.6 5.2 11.6 11.6c0 0 0 48.1 0 48.1z"/>
			<path id="Layer" class="s6" d="m242.3 217l17.5-17.5c1.7-1.8 4.1-2.8 6.5-2.8h67.4c8 0 12.2 9.5 6.9 15.5l-47.1 53c-1.1 1.2-3 1.3-4.2 0.1l-47-44.2c-1.2-1.1-1.2-3 0-4.1z"/>
			<path id="Layer" class="s6" d="m334.1 350.5h-67.9c-2.1 0-4.1-0.8-5.6-2.3l-18.3-18.3c-1.2-1.2-1.2-3 0-4.2l47-44.2c1.2-1.2 3.1-1.1 4.2 0.1l47.5 53.5c5.3 6 1.1 15.4-6.9 15.4z"/>
		</g>
	</g>
</svg>