<svg version="1.2" xmlns="http://www.w3.org/2000/svg" viewBox="0 0 1525 592" width="1525" height="592">
	<title>Quaker_Houghton_Logo-svg</title>
	<style>
		.s0 { fill: #ffffff } 
	</style>
	<path id="Layer" fill-rule="evenodd" class="s0" d="m82.9 395.5c77.7-77.3 255.9-21.6 400.2-126-4.8 45.5-22.4 88.7-50.6 124.7-28.3 35.9-66.1 63.2-109.2 78.6-43.1 15.4-89.6 18.4-134.3 8.6-44.6-9.9-85.6-32.1-118.2-64.2q0.7-3.1 1.8-6 1.1-3 2.7-5.7 1.5-2.8 3.4-5.3 2-2.5 4.2-4.7zm401.2-146.3c-103.3 76.4-340.9 13.7-438.2 111q-1.5 1.5-2.9 3.1-1.4 1.6-2.8 3.3-1.3 1.7-2.6 3.5-1.2 1.7-2.4 3.6-6.3-10.2-11.7-21-5.3-10.7-9.6-21.9-4.2-11.3-7.3-22.9-3.2-11.6-5.1-23.4 13.4-5 27.1-8.7 13.8-3.7 27.9-6 14.1-2.4 28.3-3.5 14.2-1 28.5-0.7c70.2 0 117.5 8.4 168.8 8.4 92.9 0 154-4.7 202.2-31.1 0 2 0 4.1-0.2 6.3z"/>
	<path id="Layer" fill-rule="evenodd" class="s0" d="m90.3 203.5q-11.4-0.2-22.8 0.4-11.4 0.5-22.7 1.9-11.3 1.3-22.5 3.4-11.2 2.1-22.3 4.9 0.9-7.6 2.3-15 1.5-7.5 3.3-14.9 1.9-7.4 4.2-14.6 2.3-7.3 5.1-14.4 4.1-0.7 8.3-1.2 4.1-0.5 8.3-0.9 4.1-0.4 8.3-0.6 4.2-0.2 8.3-0.3c122.6 0 238.1 71.9 386.6 71.9q6.1-0.1 12.2-0.4 6.1-0.4 12.1-1 6.1-0.6 12.1-1.5 6-0.9 12-2.1c0 1.9 0 3.7 0.5 5.6q-8.9 3.4-18.1 5.8-9.2 2.5-18.6 4.1-9.4 1.6-18.8 2.2-9.5 0.7-19.1 0.4c-108.7 0-218-33.7-318.7-33.7zm390.7 0c-7.8-46.6-29.1-89.9-61.2-124.6-32.1-34.7-73.6-59.2-119.5-70.7-45.9-11.5-94.1-9.3-138.7 6.2-44.7 15.5-83.8 43.7-112.7 81.1 190.5 10.9 281.1 108 423.4 108z"/>
	<path id="Layer" fill-rule="evenodd" class="s0" d="m642.7 188.4q-4.6 3.2-9.7 5.6-5.1 2.3-10.5 3.8-5.4 1.5-10.9 2.1-5.6 0.6-11.2 0.2c-5.1 0.3-10.2 0-15.2-0.9-5.1-0.8-10-2.1-14.8-4-4.7-1.8-9.3-4.1-13.6-6.9-4.2-2.8-8.2-6-11.8-9.6-3.8-3.8-7.2-7.9-10.2-12.3-3-4.4-5.5-9.2-7.6-14.1-2-4.9-3.5-10-4.5-15.3-1.1-5.2-1.5-10.5-1.5-15.8 0-5.2 0.5-10.4 1.5-15.5 1-5 2.5-10 4.5-14.8 1.9-4.8 4.3-9.4 7.2-13.7 2.8-4.4 6-8.4 9.6-12.1 4-3.8 8.2-7.1 12.8-10 4.6-2.9 9.4-5.3 14.5-7.2 5.1-2 10.3-3.4 15.6-4.3 5.4-0.9 10.8-1.3 16.2-1.2 5.3 0 10.6 0.4 15.9 1.3 5.2 0.9 10.4 2.2 15.4 4.1 5 1.9 9.8 4.2 14.3 6.9 4.6 2.8 8.8 5.9 12.8 9.5 3.8 3.7 7.3 7.8 10.3 12.2 3 4.4 5.5 9.1 7.5 14 2 5 3.5 10.1 4.5 15.3 0.9 5.3 1.3 10.6 1.2 15.9q0 3.8-0.4 7.5-0.4 3.8-1.2 7.5-0.8 3.6-2 7.2-1.2 3.6-2.7 7-1.3 2.9-2.8 5.6-1.6 2.8-3.4 5.3-1.9 2.6-4 4.9-2.2 2.4-4.6 4.4l26.3 28.5-32.8 4zm-2.2-40q2.2-2.9 3.9-6.1 1.7-3.2 2.8-6.7 1.1-3.4 1.7-7 0.5-3.6 0.4-7.2c0-9.2-2.7-18.2-7.7-25.8-5.1-7.7-12.3-13.7-20.8-17.2-8.5-3.6-17.8-4.5-26.8-2.8-9.1 1.7-17.4 6.1-23.9 12.6q-3.1 3.4-5.6 7.3-2.4 4-4.1 8.3-1.7 4.3-2.6 8.9-0.8 4.6-0.9 9.2 0 4.5 0.8 9 0.8 4.4 2.4 8.6 1.7 4.2 4.1 8 2.4 3.9 5.4 7.1 3.2 3.3 6.9 5.9 3.8 2.6 8 4.3 4.2 1.8 8.7 2.6 4.5 0.9 9 0.7 2.4 0.1 4.7-0.2 2.3-0.2 4.6-0.7 2.3-0.5 4.5-1.2 2.2-0.7 4.3-1.7l-27-27 33.8-3.6zm91.4-52.6v55.7q-0.2 2.2 0.1 4.4 0.3 2.2 1 4.3 0.8 2.1 1.9 4.1 1.2 1.9 2.7 3.5 1.4 1.2 3 2.1 1.6 1 3.3 1.6 1.7 0.6 3.5 0.8 1.9 0.3 3.7 0.2 1.8 0.1 3.6-0.2 1.9-0.3 3.6-0.9 1.7-0.6 3.3-1.5 1.6-0.9 3-2.1 1.5-1.7 2.6-3.6 1.1-1.9 1.8-4 0.7-2.1 0.9-4.3 0.3-2.2 0.1-4.4v-55.7h32.6v58.8q0.5 4.5-0.1 8.9-0.5 4.4-1.9 8.6-1.5 4.2-3.9 8-2.3 3.8-5.4 6.9c-11.5 11.3-28.5 13.1-40.5 13.1-12.1 0-29.3-1.8-40.6-13.1q-2.9-2.9-5.1-6.5-2.3-3.5-3.7-7.4-1.4-3.9-2-8.1-0.6-4.1-0.2-8.3v-60.7zm164.7 0h32.6v100.9h-32.6v-12.2c-1.6 2.5-3.5 4.7-5.7 6.7-2.2 2-4.6 3.7-7.2 5.1-2.6 1.3-5.4 2.3-8.2 3-2.9 0.6-5.8 0.9-8.8 0.8-3.5 0.1-7-0.1-10.5-0.6-3.5-0.6-6.8-1.6-10.1-2.9-3.3-1.3-6.4-3-9.3-5-2.8-2-5.5-4.3-7.9-6.9q-3.6-3.8-6.4-8.2-2.8-4.4-4.6-9.3-1.9-4.8-2.8-10-0.9-5.1-0.8-10.3-0.2-5.6 0.8-11.1 1-5.5 3-10.7 2-5.2 4.9-9.9 3-4.8 6.8-8.8 3.5-3.4 7.6-6 4.1-2.5 8.6-4.3 4.5-1.7 9.3-2.5 4.8-0.9 9.6-0.7c3-0.2 6.1 0.1 9 0.6 3 0.6 5.9 1.6 8.6 2.9 2.8 1.2 5.4 2.8 7.7 4.7 2.4 1.9 4.5 4.1 6.4 6.5zm-41.4 31.9q-1.8 1.8-3.2 3.9-1.5 2.1-2.4 4.5-1 2.4-1.4 4.9-0.5 2.5-0.5 5 0 2.5 0.4 4.9 0.4 2.5 1.3 4.8 0.9 2.3 2.1 4.4 1.3 2.2 3 4 1.9 1.9 4.1 3.4 2.2 1.5 4.7 2.5 2.5 1 5.1 1.5 2.7 0.5 5.3 0.5 2.4 0 4.7-0.4 2.3-0.5 4.5-1.3 2.2-0.9 4.1-2.2 2-1.2 3.7-2.9c2.4-2.4 4.4-5.3 5.7-8.5 1.4-3.2 2.1-6.7 2.1-10.2 0.1-3.4-0.5-6.9-1.8-10.1-1.3-3.3-3.2-6.2-5.5-8.8q-1.9-1.6-4-2.8-2.2-1.3-4.5-2.2-2.3-0.8-4.7-1.3-2.5-0.4-4.9-0.4-2.5 0-4.9 0.4-2.4 0.4-4.7 1.3-2.3 0.9-4.4 2.2-2.1 1.2-3.9 2.9zm123.7-95.9v101.2l36.7-37.1h42.7l-47.9 45.7 51.4 55.1h-43.9l-39-43.5v43.5h-32.5v-164.9zm184.2 120.1h-75.5q0 2.3 0.4 4.6 0.4 2.3 1.2 4.5 0.8 2.2 1.9 4.3 1.2 2 2.6 3.8 1.7 1.6 3.6 2.9 2 1.2 4.1 2.1 2.2 0.8 4.5 1.1 2.3 0.4 4.6 0.2 1.7 0.1 3.4-0.1 1.7-0.1 3.3-0.5 1.7-0.4 3.3-1 1.6-0.6 3.1-1.3 1.1-0.8 2.1-1.7 1-1 1.9-2 0.8-1.1 1.5-2.3 0.7-1.1 1.2-2.4l30.8 3.2q-1.2 3.9-3 7.5-1.9 3.7-4.4 6.9-2.5 3.2-5.6 6-3 2.7-6.5 4.9-3.6 2-7.5 3.5-3.8 1.5-7.9 2.5-4 0.9-8.2 1.3-4.1 0.4-8.2 0.2-5.6 0.4-11.1-0.3-5.5-0.7-10.8-2.6-5.2-1.9-9.9-4.8-4.8-3-8.8-6.8-3.7-3.9-6.6-8.4-2.9-4.6-4.8-9.6-2-5-2.9-10.3-0.9-5.2-0.8-10.6 0-5.5 0.9-10.9 1-5.4 3-10.5 2-5.1 4.9-9.8 2.9-4.6 6.6-8.6 3.9-3.7 8.4-6.5 4.5-2.8 9.5-4.7 5-1.9 10.2-2.7 5.3-0.8 10.6-0.6 5.5-0.3 11 0.6 5.4 0.8 10.6 2.8 5.2 1.9 9.8 4.9 4.7 3 8.6 6.8 3.7 4.2 6.5 9.1 2.8 4.8 4.6 10 1.9 5.3 2.7 10.8 0.8 5.5 0.5 11.1zm-30.1-19.4q-0.5-1.7-1.1-3.3-0.7-1.6-1.5-3.1-0.9-1.4-1.9-2.8-1.1-1.4-2.3-2.6-1.6-1.4-3.4-2.5-1.8-1.1-3.7-1.8-2-0.7-4.1-1.1-2.1-0.3-4.2-0.2-2.3-0.1-4.5 0.3-2.3 0.4-4.4 1.3-2.2 0.9-4.1 2.1-1.9 1.3-3.5 3-1 1.1-1.9 2.4-0.9 1.3-1.6 2.6-0.8 1.4-1.3 2.9-0.5 1.4-0.8 3zm41.4-36.7h32.6v15.9q1.1-2.2 2.4-4.1 1.4-2 3-3.8 1.6-1.8 3.4-3.3 1.9-1.6 3.9-2.9 1.9-1.1 4-2 2.2-0.8 4.4-1.4 2.2-0.5 4.4-0.8 2.3-0.2 4.6-0.1 1.3 0 2.7 0.1 1.3 0.1 2.7 0.3 1.3 0.2 2.6 0.5 1.3 0.3 2.6 0.7l-1.8 30.6q-1.7-0.9-3.5-1.6-1.8-0.7-3.6-1.1-1.9-0.5-3.8-0.7-1.9-0.2-3.8-0.2-2.3-0.1-4.5 0.3-2.3 0.4-4.4 1.3-2.1 0.8-4 2.2-1.9 1.3-3.4 2.9-2.2 2.9-3.9 6.1-1.6 3.2-2.6 6.7-1 3.4-1.4 7-0.3 3.6 0 7.2v41.1h-32.6zm-609.4 204.6h60.2v-57.6h34.9v150.9h-34.9v-64h-60.2v64h-34.8v-150.9h34.8zm211.6 80.5c-6.1 5.3-13.1 9.4-20.6 12.2-7.5 2.8-15.5 4.2-23.5 4.2-8.1 0-16-1.4-23.6-4.2-7.5-2.8-14.5-6.9-20.6-12.2-4.8-5-8.6-10.9-11.2-17.3-2.6-6.4-3.9-13.3-3.9-20.2 0-7 1.3-13.8 3.9-20.3 2.6-6.4 6.4-12.3 11.2-17.3 6.1-5.2 13.1-9.2 20.7-12 7.5-2.8 15.4-4.2 23.5-4.2 8 0 16 1.4 23.5 4.2 7.5 2.8 14.5 6.8 20.6 12 4.8 5 8.6 10.9 11.2 17.3 2.6 6.5 4 13.3 4 20.3 0 6.9-1.4 13.8-4 20.2-2.6 6.4-6.4 12.3-11.2 17.3zm-62.5-56.5c-3.8 3.7-6.4 8.4-7.5 13.5-1.1 5.2-0.6 10.6 1.4 15.4 2 4.9 5.4 9.1 9.8 12 4.4 2.9 9.6 4.4 14.9 4.3q2.5 0.1 5-0.4 2.5-0.4 4.8-1.3 2.3-1 4.4-2.3 2.1-1.4 3.9-3.2c2.4-2.5 4.3-5.5 5.6-8.8 1.2-3.2 1.9-6.7 1.9-10.2 0-3.5-0.7-7-1.9-10.2-1.3-3.3-3.2-6.2-5.6-8.8-2.5-2.3-5.4-4.1-8.5-5.3-3.1-1.2-6.5-1.9-9.8-1.9-3.4 0-6.7 0.7-9.9 1.9-3.1 1.2-6 3-8.5 5.3zm121.6-31.4v55.6q-0.2 2.2 0.1 4.4 0.3 2.2 1 4.3 0.7 2.1 1.9 4.1 1.1 1.9 2.6 3.5 1.4 1.2 3 2.1 1.6 1 3.3 1.6 1.8 0.6 3.6 0.8 1.8 0.3 3.7 0.2 1.8 0.1 3.6-0.2 1.8-0.3 3.5-0.9 1.8-0.6 3.4-1.5 1.6-0.9 3-2.1 1.4-1.7 2.5-3.6 1.2-1.9 1.9-4 0.7-2.1 0.9-4.3 0.3-2.2 0.1-4.4v-55.6h32.6v59.1q0.4 4.4-0.1 8.8-0.5 4.4-2 8.6-1.4 4.2-3.8 8-2.3 3.7-5.4 6.9c-11.6 11.4-28.6 13.2-40.5 13.2-12 0-29.2-1.8-40.5-13.2q-3-2.9-5.2-6.5-2.3-3.5-3.7-7.4-1.5-3.9-2-8.1-0.6-4.1-0.3-8.3v-60.7zm164 0h32.7v94.5c0 14.2-0.7 30.3-12.5 43-11.7 12.6-31.4 14.9-42.5 14.9q-5.6 0.4-11.2-0.2-5.6-0.6-11-2.2-5.4-1.6-10.4-4.1-5-2.5-9.5-5.8-3-2.6-5.5-5.7-2.6-3-4.5-6.5-1.9-3.4-3.2-7.2-1.3-3.7-2-7.6h35.5q0.4 1.5 1.1 3 0.7 1.4 1.6 2.7 0.9 1.2 2.1 2.3 1.1 1.1 2.5 2 1.6 0.9 3.3 1.5 1.7 0.7 3.5 1.1 1.7 0.4 3.6 0.6 1.8 0.2 3.6 0.2 2.2 0.1 4.4-0.2 2.2-0.3 4.3-1 2.1-0.7 4-1.7 1.9-1.1 3.6-2.5 1.8-2.2 3.2-4.7 1.3-2.5 2.2-5.2 0.8-2.7 1.2-5.6 0.3-2.8 0.1-5.6v-11.6c-1.5 2.5-3.4 4.8-5.5 6.8-2.2 2.1-4.7 3.8-7.3 5.1-2.6 1.3-5.5 2.3-8.4 2.8-2.9 0.6-5.9 0.7-8.8 0.5q-5.1 0.2-10.1-0.7-5.1-0.8-9.8-2.6-4.8-1.9-9.1-4.6-4.2-2.8-7.9-6.4-3.6-3.7-6.5-8.2-2.8-4.4-4.7-9.3-1.9-4.9-2.8-10.1-0.8-5.1-0.7-10.4-0.2-5.5 0.7-11 0.9-5.5 2.9-10.7 1.9-5.2 4.7-9.9 2.9-4.8 6.6-8.9 3.6-3.6 7.9-6.3 4.2-2.8 9-4.7 4.7-1.9 9.7-2.7 5-0.9 10.1-0.7c2.9-0.2 5.9 0.1 8.8 0.7 2.8 0.6 5.6 1.6 8.3 3 2.6 1.3 5 3 7.2 5 2.2 2 4.1 4.3 5.7 6.7zm-40.5 31.5q-1.8 1.9-3.3 4.1-1.4 2.1-2.4 4.5-1 2.5-1.5 5-0.5 2.6-0.5 5.2-0.1 2.4 0.4 4.9 0.4 2.4 1.3 4.7 0.8 2.3 2.1 4.5 1.3 2.1 2.9 3.9 1.8 1.9 3.9 3.3 2.1 1.4 4.5 2.3 2.4 0.9 4.9 1.4 2.5 0.4 5 0.3 2.4 0 4.8-0.4 2.4-0.4 4.7-1.3 2.3-0.8 4.3-2.1 2.1-1.3 3.8-3 2-1.9 3.5-4.1 1.5-2.2 2.5-4.7 1-2.5 1.5-5.1 0.5-2.6 0.5-5.3 0-2.6-0.5-5.1-0.5-2.6-1.5-5-1-2.4-2.4-4.5-1.5-2.2-3.3-4-1.8-1.5-3.9-2.7-2.1-1.2-4.4-2-2.3-0.8-4.6-1.2-2.4-0.4-4.8-0.4-2.4 0.1-4.7 0.5-2.4 0.5-4.6 1.3-2.2 0.9-4.3 2.1-2 1.3-3.8 2.9zm90.3-95.5h32.5v75.9q1.3-1.6 2.7-3 1.4-1.4 3-2.7 1.6-1.3 3.2-2.5 1.7-1.1 3.5-2.1c3.9-1.8 8-3.1 12.2-3.7 4.2-0.7 8.5-0.7 12.7-0.2 4.3 0.5 8.4 1.6 12.3 3.3 4 1.6 7.7 3.8 11 6.5q2.6 3 4.6 6.5 2 3.4 3.3 7.2 1.3 3.8 1.8 7.8 0.5 3.9 0.2 7.9v64h-32.5v-51.8q0.3-2.7 0.2-5.4-0.2-2.7-0.9-5.3-0.7-2.6-1.9-5-1.2-2.4-2.9-4.5-1.3-1.2-2.8-2.1-1.5-0.8-3.1-1.4-1.6-0.6-3.3-0.9-1.7-0.2-3.4-0.2-1.8 0-3.6 0.3-1.7 0.3-3.4 0.9-1.7 0.7-3.2 1.6-1.5 1-2.7 2.2-1.9 2.2-3.3 4.7-1.3 2.5-2.2 5.2-0.9 2.7-1.2 5.5-0.3 2.8-0.1 5.6v50.4h-32.5zm157.4 90.3v74.2h-32.5v-74.2h-11.4v-26.3h11.4v-32.6h32.5v32.6h20.3v26.3zm123.8 61.7c-6.1 5.2-13.1 9.4-20.6 12.2-7.6 2.8-15.5 4.2-23.6 4.2-8 0-16-1.4-23.5-4.2-7.5-2.8-14.5-7-20.6-12.2-4.8-5-8.6-10.9-11.2-17.3-2.6-6.4-4-13.3-4-20.2 0-7 1.4-13.8 4-20.3 2.6-6.4 6.4-12.3 11.2-17.3 6.1-5.2 13.1-9.3 20.6-12 7.6-2.8 15.5-4.2 23.5-4.2 8.1 0 16 1.4 23.5 4.2 7.6 2.7 14.6 6.8 20.7 12 4.8 5 8.6 10.9 11.2 17.3 2.6 6.5 3.9 13.3 3.9 20.3 0 6.9-1.3 13.8-3.9 20.2-2.6 6.4-6.4 12.3-11.2 17.3zm-62.5-56.5c-2.4 2.5-4.3 5.5-5.6 8.8-1.2 3.2-1.9 6.7-1.9 10.2 0 3.5 0.7 7 1.9 10.2 1.3 3.3 3.2 6.2 5.6 8.8 2.5 2.3 5.4 4.1 8.5 5.3 3.1 1.2 6.5 1.9 9.8 1.9 3.4 0 6.7-0.7 9.9-1.9 3.1-1.2 6-3 8.5-5.3 2.3-2.6 4.2-5.6 5.5-8.8 1.2-3.3 1.9-6.7 1.9-10.2 0-3.5-0.7-7-1.9-10.2-1.3-3.3-3.2-6.2-5.5-8.8-2.5-2.3-5.4-4.1-8.5-5.3-3.2-1.2-6.5-1.9-9.9-1.9-3.3 0-6.7 0.7-9.8 1.9-3.1 1.2-6 3-8.5 5.3zm88.9-31.5h32.6v11.9c1.8-2.4 3.9-4.6 6.2-6.5 2.3-1.8 4.9-3.5 7.6-4.7 2.7-1.3 5.6-2.2 8.5-2.8 2.9-0.6 5.9-0.8 8.9-0.7 5.4-0.6 10.8 0.1 15.8 1.9 5.1 1.8 9.7 4.7 13.4 8.5 3.8 3.8 6.7 8.5 8.4 13.5 1.7 5.1 2.3 10.5 1.6 15.9v63.7h-32.6v-51.6q0.3-2.7 0.1-5.4-0.1-2.6-0.8-5.2-0.7-2.6-1.9-5.1-1.2-2.4-2.8-4.5-1.3-1.2-2.7-2.1-1.5-0.9-3.1-1.5-1.6-0.5-3.3-0.8-1.7-0.2-3.4-0.2-1.9 0-3.7 0.3-1.9 0.3-3.6 1-1.8 0.7-3.3 1.7-1.6 1.1-2.9 2.4-1.7 2-3 4.3-1.3 2.2-2.1 4.7-0.8 2.5-1.2 5.1-0.3 2.6-0.1 5.2v51.7h-32.7zm139.6 83.7h-6.8v17.5h-5.2v-17.5h-6.7v-4.3h18.4zm27.6 17.5h-4.6v-17.5l-6.7 17.5h-2.8l-6.3-17.5v17.5h-4.4v-21.8h7.5l5 12.8 4.8-12.8h7.6z"/>
	<path id="Layer" fill-rule="evenodd" class="s0" d="m573.1 487v7.9h-33v25.9h28v7.6h-28v33.7h-9.7v-75.1zm52.3 19.6q1.7 0.9 3.2 2 1.5 1.1 2.8 2.5 1.4 1.3 2.5 2.8 1.1 1.5 2 3.1 1 1.9 1.7 3.8 0.8 2 1.3 4 0.4 2.1 0.7 4.1 0.2 2.1 0.1 4.2 0.1 2.1-0.1 4.2-0.3 2-0.7 4-0.5 2.1-1.2 4-0.8 2-1.8 3.8-0.9 1.6-2 3.1-1.1 1.5-2.5 2.9-1.3 1.3-2.8 2.4-1.5 1.1-3.2 2-3.5 1.8-7.3 2.7-3.9 0.9-7.8 0.9-4 0-7.8-0.9-3.8-0.9-7.3-2.7-1.7-0.9-3.2-2-1.5-1.1-2.9-2.4-1.3-1.4-2.4-2.9-1.2-1.5-2.1-3.1-1-1.8-1.7-3.8-0.8-1.9-1.2-3.9-0.5-2.1-0.7-4.1-0.3-2.1-0.2-4.2-0.1-2.1 0.2-4.2 0.2-2 0.7-4.1 0.5-2 1.2-4 0.7-1.9 1.7-3.8 0.9-1.6 2.1-3.1 1.1-1.5 2.5-2.8 1.3-1.4 2.8-2.5 1.5-1.1 3.2-2 3.5-1.8 7.3-2.7 3.8-1 7.8-1 3.9 0 7.8 1 3.8 0.9 7.3 2.7zm-24.8 7.4q-1.1 0.6-2.2 1.4-1 0.8-1.9 1.7-0.9 0.9-1.7 1.9-0.8 1.1-1.4 2.2-1.3 2.8-2 5.9-0.7 3-0.7 6.1 0 3.1 0.7 6.1 0.7 3.1 2 5.9 0.6 1.1 1.4 2.2 0.8 1 1.7 1.9 0.9 0.9 1.9 1.7 1.1 0.8 2.2 1.4 1.2 0.6 2.3 1 1.2 0.4 2.4 0.7 1.3 0.2 2.5 0.3 1.2 0.1 2.5 0.1 1.3 0 2.5-0.1 1.3-0.2 2.5-0.5 1.2-0.3 2.4-0.7 1.2-0.5 2.3-1.1 1.1-0.6 2.2-1.3 1-0.8 1.9-1.7 0.9-0.9 1.7-1.9 0.8-1 1.4-2.2 1.3-2.8 2-5.8 0.7-3 0.7-6.1 0-3.1-0.7-6.2-0.7-3-2-5.8-0.6-1.1-1.4-2.1-0.8-1.1-1.7-2-0.9-0.9-1.9-1.6-1.1-0.8-2.2-1.4-1.1-0.6-2.3-1-1.2-0.5-2.4-0.8-1.2-0.3-2.5-0.4-1.2-0.2-2.5-0.2-1.3 0-2.5 0.2-1.3 0.1-2.5 0.4-1.2 0.3-2.4 0.8-1.2 0.4-2.3 1zm70.1-7.8q1.5-0.8 3.1-1.5 1.7-0.7 3.4-1.1 1.7-0.4 3.4-0.6 1.8-0.2 3.6-0.1v10.4h-3q-1.8 0-3.6 0.2-1.8 0.2-3.5 0.8-1.7 0.5-3.4 1.3-1.6 0.8-3 1.9-1.4 1.3-2.5 2.9-1.1 1.7-1.8 3.5-0.7 1.8-1 3.7-0.3 1.9-0.1 3.9v30.9h-9.8v-58.7h9.8v11.9q0.6-1.5 1.5-2.9 0.9-1.3 2-2.5 1-1.2 2.2-2.2 1.3-1.1 2.7-1.9zm104.5-2.4l-16.8 58.7h-10.6l-16.1-47.8-16.3 47.8h-10.6l-16.7-58.7h9.9l12.5 49.4 16.3-49.4h10.2l16.3 49.3 12.6-49.3zm46.7 3.6q1.5 1 2.7 2.2 1.3 1.3 2.4 2.8 1 1.4 1.9 3 0.8 1.6 1.3 3.4v-15.2h9.7v58.8h-9.7v-14.7q-0.5 1.7-1.3 3.4-0.9 1.6-1.9 3-1.1 1.5-2.4 2.8-1.2 1.2-2.7 2.3-1.6 1.1-3.3 1.9-1.8 0.8-3.6 1.4-1.9 0.5-3.8 0.8-1.9 0.2-3.8 0.1-1.9 0.1-3.7-0.2-1.8-0.2-3.5-0.6-1.8-0.5-3.5-1.2-1.7-0.7-3.2-1.6-1.6-1-3-2.1-1.4-1.2-2.7-2.6-1.2-1.3-2.2-2.9-1-1.5-1.8-3.1-0.9-1.9-1.6-3.9-0.6-1.9-1.1-3.9-0.4-2.1-0.6-4.1-0.2-2.1-0.1-4.1-0.1-2.1 0.1-4.2 0.2-2 0.6-4.1 0.5-2 1.1-4 0.7-1.9 1.6-3.8 0.8-1.6 1.8-3.1 1-1.5 2.3-2.8 1.2-1.3 2.6-2.5 1.4-1.1 2.9-2.1 1.6-0.9 3.3-1.6 1.6-0.7 3.4-1.1 1.8-0.5 3.6-0.7 1.8-0.2 3.6-0.2 1.9-0.1 3.9 0.2 1.9 0.2 3.7 0.8 1.9 0.5 3.7 1.4 1.7 0.8 3.3 1.9zm-26.1 10.1c-1.8 2.2-3.1 4.7-4.1 7.4-0.9 2.7-1.3 5.5-1.3 8.4 0 2.8 0.4 5.6 1.3 8.3 1 2.7 2.3 5.2 4.1 7.5q1.4 1.4 3 2.5 1.7 1.1 3.6 1.9 1.8 0.7 3.8 1 2 0.4 4 0.3 1.4 0 2.7-0.2 1.3-0.1 2.6-0.5 1.3-0.3 2.6-0.8 1.2-0.5 2.4-1.2 1.1-0.7 2.1-1.5 1.1-0.8 2-1.8 0.9-0.9 1.7-2 0.7-1.1 1.3-2.3 0.7-1.3 1.2-2.6 0.5-1.4 0.8-2.8 0.3-1.5 0.5-2.9 0.1-1.5 0.1-2.9 0-1.5-0.1-3-0.2-1.4-0.5-2.9-0.3-1.4-0.8-2.8-0.5-1.4-1.2-2.7-0.5-1.2-1.3-2.3-0.7-1.2-1.7-2.2-0.9-1-1.9-1.8-1.1-0.9-2.2-1.6-1.2-0.6-2.4-1.1-1.3-0.5-2.6-0.9-1.3-0.3-2.6-0.5-1.4-0.1-2.7-0.1-2-0.1-4 0.3-2 0.4-3.9 1.1-1.8 0.8-3.5 1.9-1.7 1.2-3 2.6zm77.8-11.2q1.5-0.8 3.2-1.5 1.6-0.7 3.3-1.1 1.7-0.4 3.5-0.6 1.7-0.2 3.5-0.1v10.4h-3q-1.8-0.1-3.6 0.2-1.8 0.2-3.5 0.7-1.8 0.6-3.4 1.4-1.6 0.8-3 1.9-1.4 1.3-2.5 2.9-1.1 1.7-1.8 3.5-0.7 1.8-0.9 3.7-0.3 1.9-0.1 3.9v30.9h-9.7v-58.7h9.7v11.8q0.7-1.4 1.5-2.8 0.9-1.3 2-2.5 1-1.2 2.2-2.2 1.3-1.1 2.6-1.9zm61.5 1.1q1.5 1.1 2.8 2.4 1.2 1.2 2.3 2.7 1 1.4 1.9 3 0.8 1.6 1.3 3.4v-35.6h9.8v79.2h-9.8v-14.7q-0.5 1.7-1.3 3.3-0.9 1.6-1.9 3.1-1.1 1.5-2.3 2.7-1.3 1.3-2.8 2.4-1.6 1.1-3.3 1.9-1.7 0.8-3.6 1.4-1.8 0.5-3.8 0.8-1.9 0.2-3.8 0.1-1.8 0.1-3.6-0.1-1.8-0.3-3.6-0.7-1.8-0.5-3.4-1.2-1.7-0.7-3.3-1.6-1.5-0.9-2.9-2.1-1.4-1.1-2.6-2.4-1.3-1.3-2.3-2.8-1-1.5-1.8-3.1-0.9-1.9-1.6-3.8-0.6-2-1.1-4-0.4-2-0.6-4.1-0.2-2-0.1-4.1-0.1-2.1 0.1-4.1 0.2-2.1 0.6-4.1 0.5-2.1 1.1-4 0.7-2 1.6-3.9 0.8-1.6 1.8-3.1 1-1.4 2.3-2.8 1.2-1.3 2.6-2.4 1.4-1.2 2.9-2.1 1.6-0.9 3.3-1.6 1.6-0.7 3.4-1.2 1.8-0.5 3.6-0.7 1.8-0.2 3.6-0.2 1.9-0.1 3.8 0.1 1.9 0.2 3.8 0.7 1.8 0.6 3.6 1.3 1.7 0.8 3.3 1.9zm-26.1 10.1c-1.7 2.2-3.1 4.7-4 7.4-0.9 2.7-1.4 5.5-1.4 8.4 0 2.8 0.5 5.6 1.4 8.3 0.9 2.7 2.3 5.2 4 7.5q1.4 1.4 3.1 2.5 1.6 1.1 3.5 1.9 1.8 0.7 3.8 1 2 0.4 4 0.3 1.3 0 2.7-0.2 1.3-0.1 2.6-0.5 1.3-0.3 2.6-0.8 1.2-0.5 2.4-1.2 1.1-0.7 2.2-1.5 1-0.8 1.9-1.8 0.9-0.9 1.7-2 0.8-1.1 1.4-2.3 0.6-1.3 1.1-2.6 0.5-1.4 0.8-2.8 0.4-1.5 0.5-2.9 0.2-1.5 0.1-2.9 0.1-1.5-0.1-3-0.2-1.4-0.5-2.9-0.3-1.4-0.8-2.8-0.5-1.4-1.1-2.7-0.6-1.2-1.4-2.3-0.7-1.2-1.6-2.2-0.9-1-2-1.8-1-0.9-2.2-1.6-1.2-0.6-2.4-1.1-1.3-0.5-2.6-0.9-1.3-0.3-2.6-0.5-1.4-0.1-2.7-0.1-2-0.1-4 0.3-2 0.4-3.9 1.1-1.8 0.8-3.5 1.9-1.6 1.2-3 2.6zm132.3-30.4v7.9h-21.2v67.5h-9.7v-67.5h-21.3v-7.9zm46.4 19.6q1.6 0.9 3.1 2 1.5 1.1 2.8 2.5 1.4 1.3 2.5 2.8 1.1 1.5 2 3.1 1 1.9 1.7 3.8 0.8 2 1.2 4 0.5 2.1 0.7 4.1 0.3 2.1 0.2 4.2 0.1 2.1-0.2 4.1-0.2 2.1-0.7 4.1-0.4 2.1-1.2 4-0.7 2-1.7 3.8-0.9 1.6-2 3.1-1.1 1.5-2.5 2.8-1.3 1.4-2.8 2.5-1.5 1.1-3.1 2-3.6 1.8-7.4 2.7-3.8 0.9-7.8 0.9-4 0-7.8-0.9-3.8-0.9-7.4-2.7-1.6-0.9-3.1-2-1.5-1.1-2.9-2.4-1.3-1.4-2.5-2.9-1.1-1.5-2-3.1-1-1.8-1.7-3.8-0.8-1.9-1.3-4-0.5-2-0.7-4.1-0.2-2-0.1-4.1-0.1-2.1 0.1-4.2 0.3-2.1 0.7-4.1 0.5-2 1.3-4 0.7-1.9 1.7-3.8 0.9-1.6 2.1-3.1 1.1-1.5 2.4-2.9 1.4-1.3 2.9-2.4 1.5-1.1 3.1-2 3.6-1.8 7.4-2.8 3.8-0.9 7.8-0.9 4 0 7.8 0.9 3.8 1 7.4 2.8zm-25.2 7.4q-1.2 0.6-2.2 1.4-1 0.8-1.9 1.7-0.9 0.9-1.7 1.9-0.8 1.1-1.4 2.2-1.4 2.8-2.1 5.8-0.7 3.1-0.7 6.2 0 3.1 0.7 6.1 0.7 3.1 2.1 5.9 0.6 1.1 1.4 2.2 0.8 1 1.7 1.9 0.9 0.9 1.9 1.7 1 0.8 2.2 1.4 1.1 0.6 2.3 1 1.1 0.5 2.4 0.8 1.2 0.3 2.4 0.4 1.3 0.2 2.5 0.2 1.3 0 2.6-0.2 1.2-0.1 2.4-0.4 1.3-0.3 2.4-0.8 1.2-0.4 2.4-1 1.1-0.6 2.1-1.4 1.1-0.8 2-1.7 0.9-0.9 1.6-1.9 0.8-1.1 1.4-2.2 1.3-2.8 2-5.9 0.7-3 0.7-6.1 0-3.1-0.7-6.1-0.7-3.1-2-5.9-0.6-1.1-1.4-2.2-0.7-1-1.6-1.9-0.9-0.9-2-1.7-1-0.8-2.1-1.4-1.2-0.6-2.4-1-1.1-0.5-2.4-0.8-1.2-0.3-2.4-0.4-1.3-0.2-2.6-0.2-1.2 0-2.5 0.2-1.2 0.1-2.4 0.4-1.3 0.3-2.4 0.8-1.2 0.4-2.3 1zm90.4-6.8q1.5 1.1 2.7 2.3 1.3 1.3 2.4 2.8 1 1.4 1.9 3 0.8 1.6 1.3 3.3v-14.9h9.7v59.7q0 1.9-0.2 3.7-0.2 1.9-0.6 3.7-0.4 1.9-1.1 3.6-0.7 1.8-1.5 3.4-0.8 1.6-1.9 3-1 1.4-2.2 2.6-1.2 1.3-2.6 2.3-1.4 1.1-2.9 1.9-1.7 0.9-3.4 1.6-1.8 0.7-3.6 1.2-1.8 0.4-3.7 0.6-1.9 0.2-3.8 0.2-2.5 0.1-5.1-0.2-2.6-0.3-5-1.1-2.5-0.7-4.8-1.8-2.3-1.1-4.4-2.6-1.9-1.4-3.4-3.2-1.6-1.7-2.8-3.7-1.2-2-2-4.1-0.8-2.2-1.2-4.5h9.6q0.4 1.4 1.1 2.7 0.6 1.4 1.5 2.6 0.8 1.1 1.9 2.1 1.1 1.1 2.3 1.9 1.3 0.8 2.8 1.5 1.5 0.7 3.1 1.1 1.5 0.4 3.1 0.6 1.6 0.2 3.3 0.1 1.8 0.1 3.6-0.2 1.7-0.3 3.4-1 1.7-0.6 3.2-1.6 1.6-1 2.9-2.2 1.3-1.4 2.3-3.1 1-1.7 1.7-3.5 0.7-1.8 1-3.7 0.3-2 0.2-3.9v-15.7q-0.6 1.8-1.4 3.4-0.8 1.6-1.8 3.1-1.1 1.4-2.4 2.7-1.3 1.3-2.7 2.3-1.6 1.1-3.4 1.9-1.7 0.9-3.6 1.4-1.8 0.5-3.7 0.8-1.9 0.2-3.9 0.2-1.8 0-3.6-0.2-1.8-0.2-3.6-0.7-1.7-0.5-3.4-1.2-1.7-0.7-3.3-1.6-1.6-0.9-3.1-2-1.5-1.2-2.8-2.6-1.3-1.3-2.4-2.9-1.1-1.5-1.9-3.2-0.9-1.9-1.6-3.8-0.7-2-1.1-4-0.4-2-0.6-4.1-0.2-2-0.2-4.1 0-2.1 0.2-4.1 0.2-2.1 0.6-4.1 0.4-2.1 1.1-4 0.7-2 1.6-3.9 0.8-1.6 1.8-3.1 1-1.5 2.2-2.8 1.2-1.3 2.6-2.4 1.4-1.2 3-2.1 1.5-1 3.2-1.7 1.7-0.7 3.5-1.1 1.7-0.5 3.5-0.7 1.8-0.2 3.7-0.2 1.9-0.1 3.9 0.2 1.9 0.2 3.8 0.8 1.9 0.5 3.6 1.4 1.8 0.8 3.4 1.9zm-26.1 10.1c-1.8 2.2-3.1 4.8-4.1 7.4-0.9 2.7-1.4 5.6-1.4 8.4 0 2.8 0.5 5.7 1.4 8.3 1 2.7 2.3 5.2 4.1 7.5q1.4 1.4 3 2.5 1.7 1.1 3.6 1.9 1.8 0.7 3.8 1.1 2 0.3 4 0.2 1.3 0 2.7-0.1 1.3-0.2 2.6-0.5 1.3-0.4 2.6-0.9 1.2-0.5 2.4-1.2 1.1-0.6 2.1-1.5 1.1-0.8 2-1.8 0.9-0.9 1.7-2 0.7-1.1 1.3-2.2 0.7-1.3 1.2-2.7 0.5-1.4 0.8-2.8 0.3-1.4 0.5-2.9 0.1-1.4 0.1-2.9 0-1.5-0.1-2.9-0.2-1.5-0.5-2.9-0.3-1.5-0.8-2.8-0.5-1.4-1.2-2.7-0.6-1.3-1.3-2.4-0.8-1.1-1.7-2.1-0.9-0.9-1.9-1.8-1.1-0.8-2.2-1.5-1.2-0.7-2.4-1.2-1.3-0.5-2.6-0.8-1.3-0.4-2.6-0.5-1.4-0.2-2.7-0.1-2-0.1-4 0.3-2 0.3-3.9 1.1-1.8 0.8-3.5 1.9-1.7 1.1-3 2.6zm113.3 17.8h-47.3q-0.1 2.1 0.2 4.2 0.4 2 1.1 4 0.8 1.9 1.9 3.7 1.1 1.7 2.5 3.2 1.4 1.3 3 2.3 1.5 0.9 3.3 1.6 1.7 0.6 3.6 0.9 1.8 0.3 3.6 0.2 1.6 0.1 3.2-0.1 1.5-0.2 3-0.7 1.5-0.4 3-1.1 1.4-0.7 2.7-1.6 1.1-0.9 2.1-2 1-1 1.7-2.3 0.8-1.2 1.2-2.5 0.5-1.4 0.8-2.8h10.4q-0.6 3-1.8 5.8-1.2 2.8-3.1 5.2-1.9 2.4-4.3 4.3-2.4 1.9-5.2 3.1-1.6 0.7-3.3 1.2-1.6 0.5-3.3 0.8-1.7 0.4-3.5 0.5-1.7 0.2-3.4 0.1-2 0.1-3.9-0.1-2-0.3-3.9-0.7-1.9-0.5-3.7-1.2-1.8-0.7-3.5-1.6-1.6-0.9-3.1-2-1.5-1.1-2.8-2.5-1.3-1.3-2.4-2.8-1.1-1.5-1.9-3.1-1-1.9-1.7-3.8-0.7-1.9-1.2-4-0.5-2-0.7-4.1-0.2-2-0.1-4.1-0.1-2.1 0.1-4.2 0.2-2 0.7-4.1 0.5-2 1.2-4 0.7-1.9 1.7-3.8 0.8-1.6 1.9-3.1 1.1-1.5 2.4-2.8 1.3-1.4 2.8-2.5 1.5-1.1 3.1-2 1.7-1 3.5-1.7 1.8-0.7 3.7-1.1 1.9-0.5 3.9-0.7 1.9-0.2 3.9-0.2 1.9 0 3.8 0.2 2 0.2 3.9 0.7 1.9 0.4 3.7 1.1 1.8 0.7 3.5 1.7 1.5 0.8 2.9 1.9 1.4 1 2.6 2.2 1.3 1.3 2.3 2.7 1.1 1.4 1.9 2.9 0.9 1.5 1.5 3.2 0.7 1.6 1.1 3.3 0.4 1.7 0.6 3.5 0.2 1.7 0.2 3.5 0 0.7 0 1.3 0.1 0.7 0 1.4 0 0.6 0 1.3-0.1 0.7-0.1 1.3zm-11.6-15.6q-0.5-1.1-1.3-2-0.7-1-1.5-1.9-0.9-0.8-1.9-1.6-1-0.7-2-1.2-1.1-0.6-2.3-1-1.1-0.4-2.3-0.7-1.1-0.2-2.3-0.4-1.3-0.1-2.5-0.1-1.8 0-3.6 0.3-1.9 0.3-3.6 0.9-1.7 0.7-3.3 1.6-1.6 1-3 2.2-1.4 1.4-2.5 3.1-1.1 1.7-1.9 3.6-0.7 1.9-1.1 3.9-0.4 2-0.3 4h37.5q0.1-1.4 0.1-2.8-0.1-1.3-0.4-2.7-0.3-1.3-0.7-2.6-0.5-1.3-1.1-2.6zm52.7 34.4v8.5h-7.2q-1.9 0.1-3.7-0.1-1.8-0.2-3.5-0.7-1.7-0.6-3.3-1.4-1.6-0.9-3.1-2.1-1.2-1.4-2.1-3.1-0.9-1.7-1.5-3.6-0.5-1.8-0.7-3.7-0.2-2 0-3.9v-31.7h-8.8v-8.4h9.2v-14.7h9.8v14.7h15.1v8.4h-15.5v31.9q-0.1 1.1 0 2.1 0.1 1 0.3 2 0.3 1 0.8 1.9 0.4 1 1 1.8 0.8 0.6 1.6 1 0.9 0.4 1.8 0.7 1 0.3 1.9 0.4 1 0.1 1.9 0zm59.5-44.6q1.6 1.9 2.9 4.2 1.3 2.2 2.1 4.7 0.8 2.4 1.1 5 0.3 2.5 0.1 5.1v33.8h-9.4v-33q0.1-1.8-0.1-3.6-0.2-1.9-0.8-3.6-0.6-1.7-1.5-3.3-0.9-1.6-2.1-3-1.2-1.2-2.6-2.1-1.4-1-3-1.6-1.6-0.6-3.2-0.8-1.7-0.3-3.4-0.2-1.8-0.1-3.6 0.2-1.7 0.3-3.4 1-1.7 0.7-3.2 1.7-1.5 1-2.7 2.3-1.3 1.6-2.2 3.4-1 1.7-1.6 3.7-0.6 1.9-0.9 3.9-0.2 2.1-0.1 4.1v31.1h-9.7v-79h9.7v34.3q0.5-1.7 1.3-3.3 0.7-1.5 1.7-2.9 1.1-1.4 2.3-2.6 1.3-1.3 2.7-2.2 1.5-1 3.1-1.8 1.6-0.7 3.3-1.2 1.8-0.5 3.5-0.7 1.8-0.2 3.6-0.2 2.2 0 4.4 0.4 2.2 0.4 4.3 1.2 2.1 0.9 3.9 2.1 1.9 1.3 3.5 2.9zm74.8 25.8h-47.2q-0.1 2.1 0.2 4.2 0.4 2 1.1 4 0.7 1.9 1.9 3.7 1.1 1.7 2.5 3.2 1.4 1.3 3 2.3 1.5 0.9 3.3 1.6 1.7 0.6 3.5 0.9 1.9 0.3 3.7 0.2 1.6 0.1 3.2-0.1 1.5-0.2 3-0.7 1.5-0.4 2.9-1.1 1.5-0.7 2.7-1.6 1.2-0.9 2.2-2 0.9-1 1.7-2.3 0.7-1.2 1.2-2.5 0.5-1.4 0.7-2.8h10.4q-0.5 3-1.7 5.8-1.2 2.8-3.1 5.2-1.9 2.4-4.3 4.3-2.4 1.9-5.2 3.1-1.6 0.7-3.2 1.2-1.7 0.5-3.4 0.8-1.7 0.4-3.4 0.5-1.7 0.2-3.5 0.1-1.9 0.1-3.9-0.1-1.9-0.3-3.8-0.7-1.9-0.5-3.7-1.2-1.9-0.7-3.6-1.6-1.6-0.9-3.1-2-1.4-1.1-2.7-2.5-1.3-1.3-2.4-2.8-1.1-1.5-2-3.1-0.9-1.9-1.7-3.8-0.7-1.9-1.1-4-0.5-2-0.7-4.1-0.2-2-0.2-4.1 0-2.1 0.2-4.2 0.2-2 0.7-4.1 0.4-2 1.1-4 0.8-1.9 1.7-3.8 0.9-1.6 2-3.1 1.1-1.5 2.4-2.8 1.3-1.4 2.7-2.5 1.5-1.1 3.1-2 1.7-1 3.6-1.7 1.8-0.7 3.7-1.1 1.9-0.5 3.8-0.7 2-0.2 3.9-0.2 2 0 3.9 0.2 1.9 0.2 3.8 0.7 1.9 0.4 3.7 1.1 1.8 0.7 3.5 1.7 1.6 0.8 3 1.9 1.4 1 2.6 2.2 1.2 1.3 2.3 2.7 1 1.4 1.9 2.9 0.8 1.5 1.5 3.2 0.6 1.6 1 3.3 0.5 1.7 0.7 3.5 0.2 1.7 0.1 3.5 0.1 0.7 0.1 1.3 0 0.7 0 1.4-0.1 0.6-0.1 1.3-0.1 0.7-0.2 1.3zm-11.5-15.6q-0.6-1.1-1.3-2-0.7-1-1.6-1.9-0.8-0.8-1.8-1.6-1-0.7-2.1-1.2-1-0.6-2.2-1-1.1-0.4-2.3-0.7-1.2-0.2-2.4-0.4-1.2-0.1-2.4-0.1-1.8 0-3.7 0.3-1.8 0.3-3.5 0.9-1.7 0.7-3.3 1.6-1.6 1-3 2.2-1.4 1.4-2.5 3.1-1.1 1.7-1.9 3.6-0.7 1.9-1.1 3.9-0.4 2-0.4 4h37.6q0.1-1.4 0-2.8 0-1.3-0.3-2.7-0.3-1.3-0.7-2.6-0.5-1.3-1.1-2.6zm42.9-13.5q1.5-0.9 3.1-1.5 1.7-0.7 3.4-1.1 1.7-0.4 3.5-0.6 1.7-0.2 3.5-0.1v10.6h-3.1q-1.8-0.1-3.6 0.2-1.8 0.2-3.5 0.7-1.7 0.6-3.3 1.4-1.6 0.8-3.1 1.9-1.4 1.3-2.5 2.9-1 1.7-1.7 3.5-0.7 1.8-1 3.7-0.2 1.9 0 3.9v30.9h-9.8v-58.7h10v11.8q0.6-1.4 1.5-2.7 0.8-1.4 1.8-2.6 1.1-1.2 2.2-2.2 1.2-1.1 2.6-1.9zm39.7-1.3h-3.2v8.6h-2.6v-8.6h-3.2v-2h9zm13.5 8.6h-2.3v-8.6l-3.1 8.6h-1.3l-3.1-8.6v8.6h-2.4v-10.6h3.8l2.4 6.2 2.3-6.2h3.7z"/>
</svg>