<svg version="1.2" xmlns="http://www.w3.org/2000/svg" viewBox="0 0 1606 410" width="1606" height="410">
	<title>logo-full-white-svg</title>
	<style>
		.s0 { fill: #ffffff } 
	</style>
	<g id="Layer">
		<g id="Layer">
			<path id="Layer" class="s0" d="m1.2 214h195.8v195.6h-195.8zm-0.6-213.4h195.8v195.6h-195.8zm214.3 213.4c108 0 195.7 87.4 195.7 195.4h-195.7zm0-213.3h195.7c0 108-87.6 195.6-195.7 195.6zm-214.3 0h195.8v195.6h-195.8z"/>
		</g>
		<path id="Layer" fill-rule="evenodd" class="s0" d="m548.3 340.1c19.6 3.4 26.2 11.8 26.2 29.8v2.7c0 20-10 30-41.8 30-6.4 0-18.7 0-38.1-0.3l2.9-14.8c16.7 0.5 24.6 0.3 35.2 0.3 20.7 0 25.3-3.3 25.3-15.8 0-10.9-2.1-14.6-15.8-17.1l-21.2-3.4c-21.1-3.3-26.1-12.7-26.1-28.9v-3c0-18 10.3-29.3 40.8-29.3 11.8 0 18 0 35.3 0.3l-2.8 14.8c-15-0.5-24.5-0.3-34-0.3-18.5 0-22.9 3.3-22.9 15.2 0 10 2.1 14.1 15.1 16.1zm127.1-49.4l-3 14.8h-37.2v96.8h-16.5v-96.9h-39.3l3-14.7zm8.4 66.6v-66.8h16.5v66.9c0 26.4 4.9 33.4 26.7 33.4 21.9 0 26.7-6.9 26.7-33.4v-66.8h16.5v66.8c0 30.7-7.3 47.8-43.1 47.8-35.8 0-43.3-17.2-43.3-47.9zm107.9-66.6h40.4c37.2 0 48.2 16.7 48.2 49.3v12.7c0 33-11 49.6-48.2 49.6h-40.4zm16.5 96.8h23.9c22.8 0 31-6.1 31-35.9v-10.5c0-30-8.2-35.7-31-35.7h-23.9zm91.3-96.8h16.5v111.5h-16.5zm35.6 62.8v-14.2c0-32.2 7.4-51.6 47.8-51.6 39.8 0 47.9 17.7 47.9 51.6v14.2c0 32.2-7.4 51.6-47.9 51.6-39.6 0.1-47.8-17.7-47.8-51.6zm78.5-0.5v-13c0-32.2-5.7-38-30.7-38-24.9 0-30.6 5.4-30.6 38v13c0 32.1 5.7 37.9 30.6 37.9 25 0 30.8-5.4 30.7-37.9zm84.3-12.9c19.6 3.3 26.2 11.7 26.2 29.8v2.6c0 20.1-10 30-41.8 30-6.4 0-18.7 0-38.1-0.2l2.9-14.8c16.7 0.5 24.6 0.3 35.2 0.3 20.8 0 25.3-3.4 25.3-15.9 0-10.8-2.1-14.5-15.8-17.1l-21.2-3.3c-21.1-3.4-26.1-12.7-26.1-28.9v-3c0-18.1 10.4-29.3 40.8-29.3 11.8 0 18 0 35.3 0.2l-2.8 14.8c-15-0.5-24.5-0.3-34-0.3-18.5 0-22.9 3.4-22.9 15.2 0 10 2.1 14.1 15.1 16.1zm-561-251.4l73.1-80.2h40.5l-82.4 89.2 91.7 99.2h-46.4l-76.5-85.2v85.2h-35.5v-188.4h35.5zm145.1 51.1c0 25.4 4.5 31.2 30.1 31.2 12.4 0 27.3 0.2 50.5-0.5l-5.2 26.4c-19.7 0.8-30.1 0.5-46.8 0.5-50.1 0-62.8-23-62.8-62.2v-14.7c0-42.4 13.8-65.4 63.9-65.4 46.3 0 60.4 21.7 60.4 51.3v4.5c0 24.3-5.3 28.8-20.9 28.8zm0-25.1h56.7v-6c0-20.3-6.1-27.4-28.3-27.4-24.1 0-28.6 6.8-28.6 33.6zm114.4 101c19.8 0.7 31 0.5 43.7 0.5 24.1 0 32.8-6.7 32.8-32.3v-2.6c-7.1 5.8-14.2 10.3-37.6 10.3-34.2 0-52.7-12.2-52.7-45v-87.3h34.4v80.4c0 15.9 1.6 24.3 25.7 24.3 25.5 0 30.1-6.7 30.1-26.7v-78h34.4v124.9c0 42.6-18.3 59.6-65.7 59.6-14.8 0-25.4 0.2-50.8-0.5zm259.8-54.2l25.2-102.2h32.8l-40.8 137.6h-34.4l-24.1-96.1-24.4 96.1h-35l-40.2-137.6h34.7l23.8 101.6 26.3-101.6h31.2zm189.6-40.5v14.3c0 50.8-18.3 65.9-65.7 65.9-47.4 0-65.9-15.2-65.9-65.9v-14.3c0-50.8 18.3-65.9 65.9-65.9 47.7 0 65.7 15.1 65.7 65.9zm-35-0.5c0-32.8-5.6-37.8-30.7-37.8-25.2 0-31 5-31 37.8v15.6c0 32.5 5.6 37.6 31 37.6 25.4 0 30.7-5.1 30.7-37.6zm50.1 76.5v-90.5c0-35.2 20.4-47.7 55.6-47.7 13.4 0 22 0 31.2 0.3l-5.6 28.5c-7.1-0.3-16.7-0.5-22.3-0.5-22.2 0-24.5 8.2-24.5 24.9v85zm150.5 0c-49.3 0-64.4-17.5-64.4-65.4v-11.1c0-45.1 15.3-65.2 60.7-65.2 15.1 0 28.6 3.7 35.2 9v-63.9h34.5v171.7c0 18-6.9 24.9-28.4 24.9zm31.5-27.6v-56c0-25.1-6.4-30.7-31-30.7-25.4 0-30.1 6.3-30.1 37v11.4c0 32.6 5.1 38.4 30.5 38.4zm123.1-55.8c32.1 3 39.7 20.4 39.7 38.9v4c0 26.7-18.2 41-57.7 41-13.4 0-39.4 0.3-60.4-0.5l5.3-28c17.9 0.3 40.2 0.5 56.4 0.5 17.7 0 23-3.4 23-13.4 0-7.7-2.6-11.9-16.7-13.3l-29.1-2.3c-27.8-2.1-38.1-19.4-38.1-38.1v-3.7c0-25.1 15.6-39.6 56.1-39.6 15 0 31.7 0.2 58.2 0.5l-5.2 28c-31.3-0.8-45.1-0.5-56-0.5-15.6 0-20.6 2.9-20.6 11.4 0 8.5 2.4 11.4 17.2 12.7z"/>
	</g>
</svg>