<svg version="1.2" xmlns="http://www.w3.org/2000/svg" viewBox="0 0 1526 1526" width="1526" height="1526">
	<title>002-svg</title>
	<style>
		.s0 { fill: #fccf00 } 
		.s1 { fill: #000000 } 
		.s2 { fill: #ffffff } 
	</style>
	<path id="Shape 1" class="s0" d="m0 0h1526v1526h-1526z"/>
	<g id="#000000ff">
		<path id="Layer" fill-rule="evenodd" class="s1" d="m502.6 347.6c173.2-23.7 349.7-23.5 522.9 0.7 54.4 3.9 108 30.4 138.8 76.2 16.1 23.5 32.2 47 48.2 70.6 8.8-10.5 21-19 35.2-19.1 31.3-0.2 62.7-0.4 94 0.1 24.5 0.8 44.6 25.3 41.1 49.5-2.1 20.5-20 33.3-31.9 48.2-15.6 16-28.2 39.1-53 41.3 44.4 1.7 88.2 19.2 119.9 50.5 26.4 25.6 44.7 59.5 51.2 95.6 3.4 18.1 3 36.5 3 54.8-0.1 70.6 0.2 141.3-0.1 211.9 0.8 18-21 16.5-33.2 19.6-0.2 34 0.2 67.9-0.2 101.8 0.6 7.8-6.2 14.7-13.9 14.7-83.8 8.3-167.9 14.7-252 19.9-9.1 2-19.1-4.8-18.2-14.5-0.3-26.1 0.1-52.1-0.1-78.2-260 29.1-523.3 29.1-783.4 0.3-0.1 25.7 0.3 51.5-0.1 77.2 0.9 9.3-7.9 17.2-17.1 15.4-84.3-5-168.5-11.6-252.5-19.8-8 0.1-15.2-6.7-14.6-14.8-0.5-33.8 0-67.7-0.2-101.5-9.8-2.2-20.1-2.8-29.3-6.9-7.2-4.5-6.1-13.9-6.3-21.2 0.2-75.9-0.2-151.7 0.1-227.6 0.1-51.8 24.2-102.8 64.2-135.7 30.5-25.8 70-39.9 109.8-41.3-24.9-2.5-37.5-25.7-53.2-41.8-11.9-14.8-29.6-27.4-31.6-47.7-3.7-24.1 16-48.6 40.5-49.6 23.5-0.8 47 0 70.4-0.4 21.4-1.7 45.7 0.2 59.4 19.1 15.3-22.4 30.7-44.8 46-67.3 20.8-31.7 52.6-55.9 88.4-68.4 18.5-6.7 38.3-8.9 57.8-11.6zm-11.8 109.2c-19.1 3.4-36.6 14.7-46.9 31.1-26.2 38.7-53 77-78.9 115.9 44.6-3 89.2-5.8 133.9-8 0.6-23-2.6-47.3 7.5-68.8 12.9-30.2 44.8-51.2 77.7-50.3 33-0.7 64.6 20.6 77.4 50.8 9.2 19.7 6.5 41.8 7 62.9 61.9-1 123.9-0.9 185.8-0.1 0.6-18.9-2.2-38.5 4.6-56.7 11-32.9 43.9-57.2 78.9-56.9 36.1-1.4 70.9 23.7 81.6 58.1 6.9 19.6 4 40.6 4.6 61 44.6 2.2 89.2 5.1 133.8 8-26.2-39.3-53.3-78.1-79.8-117.2-10.2-15.8-27.4-26.5-45.9-29.7-179.1-27.3-362.2-27.3-541.3-0.1zm-173.3 319.6c-0.7 41.9-0.1 83.8-0.3 125.7 291.8 62.8 597.1 63.2 888.9 0.2-0.4-41.8 0.6-83.6-0.5-125.4-0.9-25.7-28-45.2-52.8-38.7-256.4 52.5-523.4 52.4-779.9 0.3-25.2-7.8-54.8 11-55.4 37.9z"/>
	</g>
	<g id="#ffffffff">
		<path id="Layer" class="s2" d="m490.8 456.8c179.1-27.2 362.2-27.2 541.3 0.1 18.5 3.2 35.7 13.9 45.9 29.7 26.5 39.1 53.6 77.9 79.8 117.2-44.6-2.9-89.2-5.8-133.8-8-0.6-20.4 2.3-41.4-4.6-61-10.7-34.4-45.5-59.5-81.6-58.1-35-0.3-67.9 24-78.9 56.9-6.8 18.2-4 37.8-4.6 56.7-61.9-0.8-123.9-0.9-185.8 0.1-0.5-21.1 2.2-43.2-7-62.9-12.8-30.2-44.4-51.5-77.4-50.8-32.9-0.9-64.8 20.1-77.7 50.3-10.1 21.5-6.9 45.8-7.5 68.8-44.7 2.2-89.3 5-133.9 8 25.9-38.9 52.7-77.2 78.9-115.9 10.3-16.4 27.8-27.7 46.9-31.1z"/>
		<path id="Layer" class="s2" d="m317.5 776.4c0.6-26.9 30.2-45.7 55.4-37.9 256.5 52.1 523.5 52.2 779.9-0.3 24.8-6.5 51.9 13 52.8 38.7 1.1 41.8 0.1 83.6 0.5 125.4-291.8 63-597.1 62.6-888.9-0.2 0.2-41.9-0.4-83.8 0.3-125.7z"/>
	</g>
</svg>