<svg version="1.2" xmlns="http://www.w3.org/2000/svg" viewBox="0 0 1517 1509" width="1517" height="1509">
	<title>kezar-svg</title>
	<style>
		.s0 { fill: #58c1a7 } 
		.s1 { fill: #3dc3da } 
		.s2 { fill: #12948f } 
		.s3 { fill: #009bde } 
	</style>
	<g id="Layer">
		<path id="Layer" fill-rule="evenodd" class="s0" d="m642.4 1188.2c0 176.9-143.6 320.4-320.8 320.4c-177.2 0-320.9-143.5-320.9-320.4c0-23.6 2.6-47.1 7.8-70.1c5.1-23 12.8-45.3 22.8-66.6c10.1-21.3 22.5-41.5 37-60.1c14.5-18.5 31-35.5 49.2-50.4c33.6-33.5 112.3-106 112.3-187.7c0-79.9-77.4-150.8-112.2-185.2c-8.3-6.9-16.2-14.2-23.8-21.8l-0.3-0.3h0.1c-57.4-57.9-92.9-137.4-92.9-225.3c0-176.9 143.7-320.4 320.9-320.4c177.2 0 320.8 143.5 320.8 320.4c0 23.9-2.6 47.6-7.9 70.8c-5.2 23.3-13.1 45.8-23.4 67.3c-10.3 21.5-22.9 41.8-37.7 60.4c-14.8 18.7-31.7 35.7-50.2 50.6c-35.8 35.1-112.2 105.1-112.2 183.5c0 82 80.7 154.7 115 188c7.1 5.8 13.8 12.1 20.4 18.5l1 0.8h-0.1c58.7 58.1 95.1 138.6 95.1 227.6z" />
		<path id="Layer" fill-rule="evenodd" class="s1" d="m275.9 871.4l-0.1-0.4c0 0 254.9-30.3 410.4-185.6c155.5-155.3 191.2-405.3 191.2-405.3l0.3 0.1c20-157.8 154.5-279.9 317.9-279.9c177.2 0 320.9 143.5 320.9 320.4c0 164.3-123.9 299.5-283.4 318.1v0.1c0 0-250.4 32.1-405.9 187.4c-155.5 155.3-189 414-189 414h-0.4c-24.9 152.1-156.8 268.3-316.2 268.3c-177.2 0-320.9-143.5-320.9-320.4c0-161.4 119.7-294.6 275.2-316.8z" />
		<path id="Layer" fill-rule="evenodd" class="s2" d="m642.4 1188.2c0 17.8-1.8 35.1-4.6 52.1q-1.2 7-2.6 14q-1.5 7-3.3 13.9q-1.8 6.9-3.8 13.7q-2.1 6.8-4.5 13.5v0.1c-5.2 14.6-11.6 28.7-18.8 42.3q-6.8 12.8-14.7 25q-7.9 12.2-17 23.6q-9 11.5-19 22q-10 10.6-20.9 20.2c-1.3 1.1-2.5 2.3-3.8 3.4c-4.9 4.2-10.2 8.1-15.3 12.1c-2.8 2-5.4 4.1-8.2 6.1c-4.7 3.3-9.5 6.3-14.4 9.4c-3.6 2.3-7.2 4.5-10.8 6.6q-3.3 1.8-6.6 3.6q-3.3 1.8-6.7 3.5q-3.4 1.7-6.7 3.4q-3.4 1.6-6.9 3.2q-3.5 1.5-7 3q-3.5 1.5-7 2.9q-3.6 1.4-7.2 2.8q-3.6 1.3-7.2 2.5c-4.3 1.4-8.6 3-13 4.3c-5.6 1.6-11.2 3-16.9 4.3c-4.1 1-8.2 2-12.3 2.8c-6.6 1.3-13.3 2.2-20 3.1c-3.5 0.4-6.9 1.1-10.4 1.4c-10.2 1-20.7 1.6-31.2 1.6c-177.2 0-320.9-143.5-320.9-320.4c0-9.1 0.5-18 1.3-26.9l0.4-5.2q0.3-3.2 0.7-6.4q0.4-3.2 0.9-6.4q0.4-3.2 0.9-6.4q0.5-3.2 1.1-6.4l0.8-3.9q2.4-12.3 5.7-24.2l0.5-2q0.9-3.2 1.9-6.3q0.9-3.1 2-6.3q1-3.1 2.1-6.2q1.1-3.1 2.3-6.1l1.3-3.4c10.3-26.3 24-51.2 40.8-73.9c16.8-22.7 36.6-43 58.7-60.6c22.2-17.5 46.5-32.1 72.5-43.3c26-11.1 53.3-18.8 81.3-22.9l-0.1-0.3c0 0 69.7-8.4 158.4-38.5c26.5 47.6 69.2 86.7 91.8 108.7c7.1 5.8 13.8 12.1 20.4 18.5l1 0.8h-0.1c58.7 58.1 95.1 138.6 95.1 227.6z" />
		<path id="Layer" fill-rule="evenodd" class="s3" d="m1195.6 1508.6c-177.4 0-320.8-143.2-320.8-320.4c0-177.2 143.4-320.4 320.8-320.4c177.5 0 320.9 143.2 320.9 320.4c0 177.2-143.4 320.4-320.9 320.4z" />
	</g>
</svg>