<svg version="1.2" xmlns="http://www.w3.org/2000/svg" viewBox="0 0 2173 648" width="2173" height="648">
	<title>llg_logo_202108_1-svg</title>
	<style>
		.s0 { fill: #000000 } 
		.s1 { opacity: 1;fill: #ffffff } 
		.s2 { fill: #fdd73c } 
		.s3 { fill: #ffffff } 
		.s4 { fill: #ffed00 } 
		.s5 { fill: #ffffff;stroke: #ffffff;stroke-width: .8 } 
		.s6 { fill: #1d1d1b } 
	</style>
	<g id="Lag_2">
		<g id="Layer_1">
			<path id="Layer" class="s0" d="m1841.8 647.6c-181.7 0-328.6-141.3-328.6-316.1 0-174.8 146.9-316.1 328.6-316.1 181.7 0 328.6 141.3 328.6 316.1 0 174.8-146.9 316.1-328.6 316.1z"/>
			<path id="Shape_3_copy_4-3" fill-rule="evenodd" class="s1" d="m1822.1 287.3c2.2 3.2-0.8 24.7-8.7 32.4-2.1 1.9-4.4 3.5-6.9 4.7-2.4 1.3-5.1 2.2-7.8 2.8-2.8 0.5-5.6 0.7-8.3 0.5-2.8-0.2-5.6-0.8-8.2-1.7-14.6-5.5-21.5-10.1-26-14.8 10.5-24.3 34.9-40.1 65.9-23.9z"/>
			<path id="Layer" fill-rule="evenodd" class="s2" d="m1766.5 198.7q1.3-1 2.6-1.9 1.4-0.8 2.8-1.6 1.5-0.7 3-1.3 1.5-0.6 3-1.1c5.3-1 8.5 2.7 13.8 6.1 5.3 3.4 14 3 14 3l30.2 18.8q-0.2 0.9-0.4 1.8-0.2 0.9-0.3 1.8-0.2 0.9-0.2 1.9-0.1 0.9-0.1 1.8c-5.8-5.5-56.9-5.7-57.3-5.9q-0.6-0.3-1.1-0.8-0.5-0.5-0.8-1.1-0.3-0.6-0.3-1.3-0.1-0.6 0-1.3c10.1-16 0.8-18.5-7.9-13-8.7 5.5-40.9 36.1-40.9 36.1l0.4-3.4z"/>
			<path id="Shape_125_copy-3" fill-rule="evenodd" class="s3" d="m1747.9 228.4c24.2-11.4 90-5.3 90-5.3l2.2 2c0 0-65.3-3.7-91.2 7.1-25.9 10.8-57.9 60.4-57.9 60.4 0 0 32.7-52.8 56.9-64.2z"/>
			<path id="Layer" fill-rule="evenodd" class="s3" d="m1770.6 194.8q1-0.4 2-0.7 1-0.4 2.1-0.6 1-0.3 2.1-0.4 1-0.2 2.1-0.3c2.6 0.2 7.7 4.6 9.7 6.7 2 2.1 16.8 5.7 16.8 5.7l18.4 11.8c0 0-23.7-8.9-26.5-10.1-2.8-1.2-7.7-0.8-10.1-2.2q-0.8-0.5-1.6-1.1-0.7-0.5-1.4-1.2-0.7-0.6-1.3-1.3-0.6-0.7-1.2-1.5l-16 2.6-1.4-14.2z"/>
			<path id="Layer" fill-rule="evenodd" class="s2" d="m1925.8 453.6l10.7 1v66.7l-16.2-6.3c-2-8.7-4-23.9-8.5-30.4-1.3-1.6-2.5-0.6-4.3-1.6-1.7-3.2-3.3-6.3-4.9-9.5z"/>
			<path id="Layer" fill-rule="evenodd" class="s2" d="m1934.9 305.4c1.2-3.6-3.9-11.1-4.7-15.6l2.6-3.9 3.6 1.6c0 36.1-0.2 72.3-0.2 108.4-2.1-4.1-2.5-8.4-4.7-12-10.3-17.5-25.5-23.7-53.1-21.1-3.2-2.4-6.7-5.2-7.3-10.3l50.2-43.2 1.2-1.2c0.4 1.3 0.8 2.7 1.2 3.9q0 0.1 0.1 0.1 0 0 0.1 0.1 0 0 0.1 0 0 0 0.1 0z"/>
			<path id="Layer" fill-rule="evenodd" class="s4" d="m1762.6 376h1.4l-3.2 5.5-0.4 0.2q-0.2-0.6-0.3-1.1-0.1-0.6-0.2-1.2 0-0.6 0.1-1.2 0-0.6 0.2-1.2z"/>
			<path id="Layer" fill-rule="evenodd" class="s2" d="m1889.3 118q-0.6 0.7-1.1 1.4-0.5 0.8-0.8 1.7-0.3 0.9-0.4 1.8-0.2 0.9-0.1 1.8c3.1 3.3 6.7 4.9 13.4 4.7-5.7 12.2 10.3 12.2 18 15.2l7.3 4.3c0.6 1.9 0 3.5 0.4 5.7 1.3 5.7 5.7 7.3 12.8 7.3v0.2q-0.5 0.1-1 0.3-0.5 0.2-0.9 0.6-0.4 0.3-0.7 0.7-0.3 0.5-0.4 1c-1.8 4.2 3.9 8.9 6.1 10.5v66.5h-0.2c-0.8-2.3-4.1-4.5-5.9-5.7q-1 0.8-1.9 1.7-1 0.9-1.7 1.9-0.8 1-1.4 2.2-0.6 1.1-1.1 2.3c-0.4 2.4 4.7 6.3 6.1 7.9-0.8 4.2-5.1 5.1-6.7 8.1-0.8 3.6-1.4 7.1-2.2 10.7-0.6-0.4-0.4 0.2-0.8-0.8-6.3 2.7-9.1 8.3-14.2 12.2l-28.4 16c0.4-4.9 2.2-10.5 1.2-16.4q-0.9-5.5-2.8-10.8-1.8-5.3-4.6-10.1-2.9-4.8-6.5-9.1-3.6-4.2-8-7.7l-18.7-11.8-7.3-3.6-1.2-3.6-13.2-8.1 0.4 0.2 1-1-17.4-10.5c-5.1-2.1-9.7-2.7-14.4-4.7-4.3-1.8-7.3-6.5-12.2-7.5-3.6-0.9-6.7 3-9.7 3.8l-2.4-4.5-0.4-0.2 1 7.5-39.9 37.9-1 8.1-8.9 9.5q-1.7 2.5-3.4 5-1.7 2.6-3.3 5.2-1.6 2.6-3.1 5.2-1.5 2.6-3 5.3c-4.6 7.4-14.6 28.7-8.9 41.5 3.2 7.5 10.1 13.8 15.2 19.7 4.2 5 11.7 15.8 17.4 18.4l1.2 1.4-14 3h-0.4l9 12.8c1 0.6 20.7 0.4 23.1-1.2q0.1-0.3 0.3-0.5 0.1-0.3 0.3-0.6 0.2-0.2 0.4-0.5 0.2-0.2 0.4-0.4l0.4 0.2c1.2 10.6 0 18.7 12.6 21.1-3.6 13-23.5 26.1-23.5 39.9l-13.8-3c-3 0.6-5.9 2.8-9.5 2.4-1.6-2.6-2-7.1-4.2-9.1q-0.9-0.1-1.8 0-0.8 0-1.7 0.1-0.9 0.1-1.7 0.4-0.9 0.2-1.7 0.5l-16.8-21.1-0.4-0.2c-4.4 4.9-8.1 6.7-16.2 6.3l1 0.2-1 0.4-3.6-3.8c-3.8-2.8-3.8-3-3.6-7.9l-1.2-1.4q-0.6-0.3-1.2-0.3-0.6-0.1-1.2 0.1-0.6 0.2-1.1 0.5-0.5 0.4-0.8 0.9v2.2c1.1 2.2 1.9 0.8 3.9 1.6 1.9 2.8 3.9 5.7 5.7 8.5l-8.5-4.7-1.6 1.2-6.3-3.4-2 1-9.5-6.1c0.4-1.8 0.8-3.9 1.2-5.7l-12.2-10.1c-5.1-3.9-9.5-9-15.4-12-5.5 0.2-9.6 3.9-13 6.3-11.5 8.3-21.7 21.5-9.5 36.9q2 2.4 4.3 4.5 2.4 2.1 5 3.7 2.6 1.7 5.5 3 2.9 1.2 5.9 2c7.1 1.6 13.5-5.5 10.5-12-3.4-7.1-20.9-2.6-24.5-9.5-3.2-4.5 9.6-19.7 12.8-20.7l23.5 16c1 1 1 0.2 2.6-0.2l10.9 7.1v0.1q-0.5 0.2-0.9 0.5-0.4 0.3-0.7 0.8-0.3 0.4-0.5 0.9-0.2 0.5-0.3 1 0.1 0.5 0.4 0.9 0.3 0.5 0.7 0.8 0.4 0.4 0.9 0.6 0.5 0.2 1 0.3 0.3-0.1 0.7-0.2 0.3-0.1 0.6-0.3 0.3-0.2 0.6-0.4 0.3-0.2 0.5-0.5 0.8 0.4 1.6 0.9 0.8 0.5 1.6 1.1 0.7 0.6 1.3 1.3 0.7 0.6 1.2 1.4c0 1.7 0.2 3.1 0.2 4.5l-7.1-2.4c0-2.3 0.7-4.9-3.2-4.9l-1 0.8q-0.2 0.1-0.4 0.3-0.2 0.2-0.4 0.4-0.1 0.2-0.2 0.4-0.1 0.3-0.2 0.5c0.2 3.6 2.9 3.2 5.5 2.4l6.9 2.8c0 9.1 0.2 18.2 0.4 27.3l1.2 1.6c3.4 2.6 10.1 1.8 15.4 2.6l24.3 3.9c20.3 4.9 35.5 12.4 51.7 20.7 4.9 2.4 18 11.1 23.9 8.3 7 3.9 17.2 12 25.7 13.4l-23.9-15.4c-2.3-2.4-0.2-4.5-4.5-6.9l-1 1c-10.1-2.8-13.8-13.9-22.5-18l-0.8-1c2.4-3 3.4-3.8 3-9.3 3-0.2 4.1 1.8 7.1 2.6l38.3-33c2.4 15.2 5.1 30.2 7.5 45.4l-3.4 27.1 12 2.2c0.4 15.2 0.6 30.6 1 45.8l5.9 6.7c8.3 10.4 21.3 21.3 39.7 21.1v-42.8l14.4-12.8 1.6-1.6c3.5 5.3 5.5 3.5 5.5 12.2 7.1 5 16.2 13.2 24.3 16.4 2 3.6 0 18.2 0 23.9l7.1 2.6c-1.2 2.6-0.2 5.7 0.4 8.3l5.1 1.2c1.2 1.4 0.4 7.9 0.4 10.3h8.9v15.6q-1.3 2-3 3.6-1.7 1.6-3.7 2.7-2.1 1.2-4.3 1.9-2.3 0.6-4.6 0.7-0.2 0.8-0.3 1.7 0 0.8 0 1.7 0 0.8 0.1 1.7 0.2 0.8 0.4 1.6c1.2 1.6 6.9 2 9.3 2.2v22q-9.5 2.2-19.2 3.9-9.6 1.6-19.3 2.7-9.7 1.1-19.5 1.7-9.7 0.5-19.5 0.5c-182.3 0-330.2-141.5-330.2-316.1 0-174.6 147.9-316 330.3-316 182.4 0 330.3 141.5 330.3 316.1 0 120.7-70.7 225.5-174.5 278.8l-0.3-1.2-5.1-3.2c-1.9-2-3.9-3.9-5.7-5.9v-16.2h4.7l0.6-9.1q0.9-0.1 1.8-0.2 0.8-0.1 1.7-0.3 0.9-0.2 1.7-0.5 0.9-0.3 1.7-0.6l1.6-6.3-19.7-19.7c-3-3-4.8-6.5-8.9-8.5 0-19.2 0.2-38.5 0.2-57.7q1.3 0.4 2.7 0.6 1.4 0.2 2.7 0.2 1.4 0 2.8-0.1 1.4-0.2 2.7-0.5l13.4-42.3-4.5-4.9-4.2-4.3-16.2 7.9v-263.4c6.8-1.8 7.4-8.7 3.6-13.8 11 1.6 12.2-4.3 13.8-13l9.5-4.7c7.7-2.4 20.7-3.5 15.6-14.4 6.3 0.2 12.8-0.6 13.4-6.3-0.6-1.7-1-3.9-2.4-4.9"/>
			<path id="Layer" fill-rule="evenodd" class="s4" d="m1645.5 403.7q0.8 0.4 1.5 1 0.8 0.5 1.5 1.1 0.7 0.6 1.3 1.2 0.6 0.7 1.2 1.4v0.2l-5.5-2.6z"/>
			<path id="Layer" class="s5" d="m2039.2 73.7c0 16.5-6.4 31.6-17.3 43.8h-135.5c-10.8-12.2-17.3-27.4-17.3-43.8 0-39.9 38.1-72.3 85.1-72.3 46.9 0 85 32.4 85 72.3z"/>
			<path id="Song-2" fill-rule="evenodd" class="s6" d="m1623.6 138.6l56.6 15.8c0.4 19.6 4 81.1-4.2 90.5-15 17.3-43.3 5.2-36.2-21.4 9.2-7.5 21.4-9.6 31.8-1.9v-38.5l-39.7-11c0.8 28.1 8.1 73.2-26.4 66.2-32.4-6.7-10.8-52.4 18.1-31.2zm8.6 14.8c0.2 2.3 0.4 4.6 0.6 6.7l39.1 10.4v-6z"/>
			<g id="Layer">
				<path id="Layer" class="s2" d="m49.3 168v260h72.2v21.6h-121.5v-281.6z"/>
				<path id="Layer" fill-rule="evenodd" class="s2" d="m144.5 259.6c9.3-15.1 20.3-25.7 33-32q4.8-2.3 9.9-4.1 5.1-1.8 10.4-2.9 5.2-1.2 10.6-1.8 5.3-0.5 10.7-0.5 3.5 0 7 0.2 3.5 0.3 7 0.9 3.5 0.6 6.9 1.5 3.4 0.9 6.7 2.1 2.9 1.1 5.6 2.4 2.8 1.3 5.5 2.8 2.6 1.6 5.1 3.3 2.5 1.8 4.8 3.8 2.1 1.9 4.1 4 1.9 2 3.6 4.3 1.7 2.3 3.2 4.7 1.4 2.4 2.6 5 1.2 2.5 2.1 5.2 0.9 2.6 1.5 5.3 0.6 2.8 0.9 5.5 0.3 2.8 0.3 5.6v140.5c0 9.8 4.3 21.2 13 34.3h-36.6q-1.4-1.4-2.7-3-1.2-1.6-2.3-3.3-1.1-1.7-2-3.6-0.8-1.8-1.5-3.7-0.7-2-1.3-4-0.6-2-1.2-4-0.5-2.1-0.9-4.1-0.5-2.1-0.8-4.2-0.7 1.9-1.5 3.7-0.8 1.8-1.8 3.6-0.9 1.7-1.9 3.4-1 1.8-2.1 3.4-1.1 1.6-2.2 3.1-1.2 1.5-2.5 3-1.3 1.4-2.7 2.7-1.4 1.3-2.9 2.5-1.6 1.3-3.2 2.4-1.7 1.1-3.5 2-1.7 1-3.6 1.8-1.8 0.8-3.7 1.5-2.3 0.8-4.6 1.3-2.4 0.6-4.8 0.9-2.4 0.4-4.8 0.5-2.4 0.2-4.8 0.1c-11.8 0-21.7-1.8-29.8-5.3q-2.8-1.2-5.5-2.7-2.7-1.5-5.2-3.4-2.5-1.8-4.7-3.9-2.2-2.1-4.2-4.5-1.9-2.4-3.6-4.9-1.7-2.6-3-5.3-1.4-2.7-2.5-5.6-1.1-2.8-1.9-5.8-0.9-3.3-1.6-6.6-0.6-3.3-1.1-6.7-0.4-3.3-0.6-6.7-0.2-3.4-0.2-6.8 0-25.3 18.5-43.6 18.5-18.2 55.1-25 2.4-0.4 4.7-1 2.3-0.7 4.5-1.6 2.3-0.9 4.4-2.1 2.1-1.2 4-2.6c4.7-3.5 8-8.8 10-15.6v-16c0-10.7-3.1-19.1-9.2-25.3-6.1-6.2-14-9.3-23.8-9.3-5.8 0-11.5 2.4-17.3 7.2q-2.4 2.1-4.7 4.3-2.3 2.2-4.5 4.6-2.2 2.3-4.2 4.8-2 2.5-3.9 5.1zm40 127.1q0 2.6 0 5.3 0.1 2.6 0.2 5.3 0.2 2.6 0.4 5.2 0.3 2.7 0.6 5.3c0.8 5.7 2.2 10.3 4.3 13.8q0.7 1.3 1.6 2.4 0.9 1.2 2 2.1 1.1 1 2.3 1.8 1.3 0.8 2.6 1.4c3.5 1.6 8 2.3 13.3 2.3 5.3 0 10.3-2.7 14.8-8 4.5-5.3 7.8-12.1 9.8-20.3v-65.9q-0.8 0.5-1.6 0.9-0.9 0.5-1.7 0.9-0.9 0.4-1.8 0.8-0.8 0.4-1.7 0.7-3.4 1.3-7.5 2.7-2.2 0.7-4.3 1.5-2.1 0.8-4.1 1.8-2.1 1-4.1 2.1-1.9 1.1-3.8 2.4-1.7 1.1-3.2 2.3-1.6 1.3-3.1 2.6-1.5 1.4-2.8 2.8-1.4 1.5-2.7 3-1.1 1.4-2.2 2.8-1 1.5-1.9 3-0.9 1.6-1.7 3.2-0.8 1.6-1.4 3.3-0.5 1.5-1 3-0.4 1.6-0.7 3.2-0.3 1.5-0.4 3.1-0.2 1.6-0.2 3.2z"/>
				<path id="Layer" fill-rule="evenodd" class="s2" d="m470.8 162v287.6h-36.6l-5-19q-1.6 2.8-3.6 5.5-1.9 2.6-4.2 4.9-2.3 2.3-4.9 4.3-2.6 2-5.4 3.6c-7.7 4.4-18.4 6.7-32.1 6.7-9.8 0-18.6-3.3-26.6-9.8-8-6.5-14.9-15.7-20.8-27.5-5.9-11.8-10.4-25.9-13.6-42.4q-1.2-6.7-2.2-13.5-0.9-6.8-1.5-13.6-0.6-6.8-0.9-13.6-0.3-6.9-0.2-13.7 0-4.5 0.3-9 0.2-4.4 0.6-8.9 0.5-4.4 1.1-8.9 0.6-4.4 1.5-8.8 0.8-4.4 1.9-8.6 1.1-4.3 2.6-8.5 1.4-4.2 3.2-8.2 1.7-4.1 3.8-8 1.9-3.6 4.1-7 2.3-3.3 4.9-6.4 2.6-3.1 5.5-5.9 2.9-2.8 6.1-5.3c8.4-6.4 18.8-9.7 31-9.7q2 0 3.9 0 2 0.1 3.9 0.2 2 0.2 3.9 0.4 2 0.3 3.9 0.6 1.4 0.2 2.8 0.6 1.3 0.3 2.7 0.7 1.4 0.4 2.7 0.9 1.3 0.5 2.6 1.1 1.1 0.5 2.1 1.1 1.1 0.6 2.1 1.2 1 0.7 1.9 1.4 1 0.7 1.9 1.5 3.5 3 7.2 6.3v-56.9zm-80.6 82.9c-9.5 0-16.7 5.5-21.5 16.6-4.8 11.1-7.2 26.6-7.2 46.6q0 4.7 0.2 9.4 0.2 4.7 0.5 9.4 0.2 4.7 0.7 9.4 0.4 4.6 0.9 9.3 0.5 5 1.2 9.9 0.7 5 1.6 9.9 0.9 4.9 1.9 9.8 1.1 4.9 2.3 9.7c3.1 12.3 7.2 22.7 12.2 31.1 5 8.4 10.8 12.7 17.5 12.7 2.7 0 5.3-1.4 7.8-4.3q1-1.2 1.9-2.4 1-1.3 1.8-2.6 0.9-1.3 1.6-2.7 0.7-1.4 1.4-2.8 0.7-1.6 1.4-3.2 0.6-1.6 1.2-3.2 0.5-1.6 1-3.3 0.5-1.6 0.9-3.3 0.4-1.4 0.7-2.9 0.3-1.5 0.5-3 0.2-1.4 0.3-2.9 0.2-1.5 0.2-3v-94.9q-0.1-1.8-0.3-3.5-0.1-1.7-0.4-3.5-0.3-1.7-0.7-3.4-0.4-1.7-0.9-3.4-0.6-2.1-1.3-4.2-0.7-2.1-1.5-4.1-0.8-2.1-1.7-4.1-1-2-2-3.9-1-1.9-2.1-3.6-1.1-1.8-2.3-3.5-1.2-1.7-2.6-3.3-1.3-1.6-2.8-3.1c-3.8-3.8-7.9-5.7-12.4-5.7z"/>
				<path id="Layer" class="s2" d="m543.7 222.6l37.3 141.2 42.6-141.2h26l-73.6 236q-1.8 5.8-4.5 11.2-2.8 5.3-6.4 10.1-3.7 4.9-8.1 9-4.4 4-9.5 7.3-20.8 13.7-49.8 13.7v-26.3q2 0 4.1-0.1 2-0.1 4-0.3 2-0.3 4-0.6 2-0.3 4-0.8 1.8-0.4 3.7-0.9 1.8-0.6 3.5-1.2 1.8-0.7 3.5-1.4 1.7-0.8 3.4-1.7 1.5-0.8 3-1.7 1.5-0.9 2.8-2 1.4-1 2.7-2.2 1.3-1.1 2.5-2.4 1.1-1.2 2.1-2.5 1-1.2 1.8-2.6 0.9-1.4 1.6-2.9 0.7-1.5 1.2-3l10.7-32.6-65.3-202.1z"/>
			</g>
			<g id="Layer">
				<path id="Layer" class="s2" d="m790.3 168v260h72.2v21.6h-121.5v-281.6z"/>
				<path id="Layer" class="s2" d="m929.1 218.9v171.5c0 11.3 2.4 20.5 7.3 27.6 4.9 7.1 11.4 10.7 19.6 10.7q1.5 0 2.9-0.2 1.4-0.1 2.8-0.6 1.4-0.4 2.8-1 1.3-0.6 2.5-1.4 1.2-0.8 2.3-1.7 1.1-0.9 2-2 1-1 1.9-2.1 0.9-1.2 1.6-2.4 0.8-1.3 1.5-2.6 0.7-1.3 1.3-2.7 0.6-1.4 1.1-2.8 0.5-1.4 0.9-2.9 0.4-1.4 0.7-2.9 0.3-1.4 0.5-2.9 0.3-1.5 0.4-2.9 0.1-1.5 0.1-3v-160.5l49.3-15.3v230.7h-40.3l-4.3-16c-5.1 8-11.4 13.7-19 17q-2.9 1.3-5.9 2.2-3 1-6.1 1.6-3.1 0.6-6.3 0.9-3.1 0.3-6.3 0.3-3.1 0-6.3-0.2-3.1-0.3-6.2-0.8-3.1-0.5-6.1-1.4-3.1-0.8-6-1.9-2.7-1-5.3-2.3-2.6-1.3-5.1-2.9-2.5-1.5-4.8-3.3-2.3-1.8-4.4-3.8-2.1-2-4-4.3-1.9-2.2-3.5-4.6-1.7-2.4-3.1-5-1.4-2.5-2.6-5.2-1.2-3-2.2-6-0.9-3.1-1.5-6.3-0.6-3.2-0.9-6.4-0.3-3.2-0.2-6.4v-160.5z"/>
				<path id="Layer" class="s2" d="m1146.9 218.3c15.3 0 27.5 3.6 36.5 10.8q13.5 10.8 20.1 31.5l-24.3 9q-1.1-2.7-2.4-5.3-1.3-2.6-2.8-5-1.5-2.5-3.3-4.8-1.7-2.3-3.7-4.4-7.2-7.5-16.8-7.5c-14.9 0-26 7.8-33.5 23.3-7.5 15.5-11.2 38.6-11.2 69.2q0 4.8 0.2 9.6 0.1 4.7 0.5 9.5 0.4 4.7 1.1 9.5 0.6 4.7 1.4 9.4c2.1 11.5 5.2 21.5 9.3 29.8 4.1 8.3 9.2 14.8 15.1 19.5q2.2 1.7 4.6 3.1 2.5 1.3 5.1 2.2 2.6 0.9 5.4 1.3 2.7 0.4 5.5 0.4 2.6 0 5.2-0.5 2.6-0.5 5-1.6 2.4-1.1 4.5-2.6 2.2-1.6 3.9-3.6c5.1-5.5 10.2-13.4 15.3-23.6l21 10.3q-12.3 24-29.1 36-16.8 12-41.1 12-19.7 0-35.1-8.7-3.9-2.2-7.6-4.9-3.7-2.7-7-5.8-3.3-3.1-6.2-6.6-3-3.4-5.5-7.2c-7.2-10.5-12.7-23.1-16.5-37.6q-1.5-5.9-2.6-11.9-1.1-5.9-1.8-12-0.7-6-1-12.1-0.4-6-0.3-12.1 0-58.2 24.3-88.4c16.4-20.2 38.9-30.2 67.8-30.2z"/>
				<path id="Layer" class="s2" d="m1283 162v151.1l79.9-90.6h33l-71.9 82.6 72.9 144.5h-53.9l-53.9-105.9-6 7v98.9h-49.3v-272.3z"/>
			</g>
			<g id="Layer">
				<path id="Layer" fill-rule="evenodd" class="s0" d="m816.8 528.3q-0.3-1.1-0.7-2.2-0.4-1.1-0.9-2.2-0.5-1-1-2.1-0.6-1-1.2-2-0.6-0.9-1.2-1.7-0.7-0.9-1.4-1.7-0.7-0.8-1.4-1.5-0.8-0.8-1.6-1.5-0.7-0.6-1.5-1.2-0.8-0.6-1.6-1.1-0.9-0.5-1.7-0.9-0.9-0.4-1.8-0.8-0.8-0.3-1.6-0.6-0.8-0.2-1.7-0.4-0.8-0.2-1.7-0.3-0.8-0.1-1.7-0.1-1.6 0-3.1 0.3-1.5 0.4-3 1-1.4 0.6-2.7 1.5-1.3 0.9-2.4 2c-3.3 3.2-6 7.6-8.3 13.1q-0.9 2.4-1.7 4.8-0.7 2.5-1.4 5-0.6 2.4-1.1 5-0.5 2.5-0.8 5-0.4 3.1-0.8 6.2-0.3 3-0.5 6.1-0.2 3.1-0.3 6.2-0.1 3.1-0.1 6.2 0 3.2 0.1 6.4 0.1 3.3 0.2 6.5 0.2 3.2 0.5 6.4 0.2 3.2 0.6 6.4 0.3 2.5 0.7 5 0.4 2.5 1 5 0.5 2.5 1.2 4.9 0.6 2.5 1.4 4.9c1.9 5.5 4.1 9.7 6.7 12.7q3.9 4.5 9 4.5 1 0 1.9-0.1 0.9-0.2 1.8-0.4 1-0.3 1.8-0.7 0.9-0.4 1.7-0.9 0.9-0.6 1.7-1.2 0.9-0.7 1.6-1.5 0.8-0.7 1.5-1.5 0.6-0.9 1.2-1.8 0.7-1.1 1.3-2.2 0.6-1.2 1.1-2.3 0.5-1.2 0.9-2.4 0.4-1.2 0.7-2.5 0.4-1.5 0.7-3 0.2-1.6 0.4-3.1 0.2-1.5 0.3-3.1 0-1.5 0-3.1 0-0.8 0-1.6-0.1-0.8-0.2-1.6-0.1-0.8-0.2-1.6-0.2-0.8-0.4-1.6-0.2-0.5-0.4-1.1-0.2-0.5-0.5-1-0.3-0.5-0.6-0.9-0.4-0.5-0.8-0.9-0.4-0.4-0.8-0.7-0.5-0.3-0.9-0.5-0.5-0.3-1-0.5-0.5-0.2-1-0.3-0.7-0.1-1.3-0.2-0.7-0.2-1.3-0.2-0.7-0.1-1.4-0.2-0.6-0.1-1.3-0.1l1-7.2h31.9v31q0 1.5 0.1 2.9 0.1 1.5 0.3 2.9 0.1 1.4 0.4 2.9 0.3 1.4 0.6 2.8 0.3 1.4 0.8 2.9 0.4 1.4 1 2.8 0.5 1.3 1.1 2.7 0.7 1.3 1.4 2.6l-11.9 6.5q-0.8-1.2-1.5-2.5-0.8-1.2-1.4-2.5-0.6-1.3-1.2-2.7-0.5-1.3-1-2.7-1.6 1.5-3.3 2.8-1.7 1.3-3.5 2.4-1.9 1.1-3.8 2.1-1.9 1-3.9 1.8-2.3 1-4.6 1.7-2.4 0.7-4.8 1.2-2.4 0.5-4.9 0.7-2.4 0.2-4.9 0.2-11.1 0-18.9-3.9-7.8-3.9-12.9-12.9c-3.4-6-5.8-13.9-7.4-23.7-1.6-9.8-2.4-21.8-2.4-36.1q0-3.9 0.1-7.7 0.2-3.9 0.6-7.7 0.3-3.9 0.9-7.7 0.6-3.8 1.4-7.6 0.6-3.1 1.5-6.1 1-3 2.2-5.9 1.2-2.9 2.7-5.6 1.5-2.8 3.2-5.4 1.6-2.3 3.5-4.4 1.9-2.1 4.1-3.9 2.1-1.9 4.5-3.4 2.4-1.6 4.9-2.8c6.9-3.3 15.3-5 25.2-5 9 0 16.3 2.5 22 7.6 5.7 5.1 9.9 12.1 12.6 21.2zm78.6-29.8l27.6 144.1h-25.5l-6-31.3h-26.7l-6.3 31.3h-14.5l27.3-144.1zm-28 101.6h21.8l-11.1-66.3zm88.2-101.6l31.3 93.7 30.7-93.7h18.1v144.1h-25v-93l-29.1 89.4-31.9-91v94.5h-14.6v-144.1h20.5zm171.2 11.4h-50.6v54.8h29.1v11.2h-29.1v55.5h50.6v11.1h-76v-144.1h76zm69 15.6c-2.3-5.6-4.9-9.6-7.9-12.2-3-2.6-5.8-3.8-8.4-3.8q-1 0-1.9 0.1-1 0.1-1.9 0.3-0.9 0.3-1.9 0.6-0.9 0.4-1.7 0.8-0.8 0.5-1.6 1-0.8 0.5-1.5 1.1-0.7 0.6-1.3 1.3-0.6 0.7-1.2 1.4-0.6 0.8-1.1 1.6-0.5 0.8-1 1.6-0.4 0.9-0.8 1.7-0.4 0.9-0.7 1.8-0.3 0.9-0.6 1.9-0.2 0.9-0.4 1.9-0.1 1-0.2 1.9-0.1 1-0.1 2 0 1.6 0.2 3.2 0.2 1.6 0.6 3.1 0.4 1.6 1.1 3.1 0.6 1.4 1.4 2.8 0.9 1.5 1.8 2.9 1 1.4 2.1 2.7 1 1.4 2.2 2.6 1.1 1.3 2.3 2.5c3.4 3.5 7 7 10.9 10.5q1.5 1.3 2.9 2.7 1.4 1.4 2.8 2.9 1.3 1.4 2.6 2.9 1.3 1.5 2.6 3 1.3 1.6 2.5 3.2 1.1 1.6 2.2 3.4 1 1.7 2 3.5 0.9 1.8 1.7 3.6 0.8 2 1.5 4.1 0.6 2.1 1 4.2 0.5 2.2 0.6 4.4 0.2 2.1 0.2 4.3 0 2.2-0.1 4.4-0.2 2.2-0.6 4.4-0.4 2.2-1.1 4.3-0.6 2.2-1.4 4.2-0.8 1.8-1.7 3.4-0.9 1.7-2 3.3-1.1 1.5-2.4 3-1.2 1.4-2.6 2.7-1.4 1.3-2.9 2.4-1.5 1.1-3.1 2-1.7 1-3.4 1.8-1.7 0.7-3.5 1.3-1.9 0.6-3.9 1.1-1.9 0.5-3.9 0.8-2 0.3-4 0.4-2 0.2-4 0.2c-9 0-15.9-2.1-20.9-6.3-5-4.2-8.9-10.4-11.8-18.6l13.1-8.3c0.9 2.5 1.9 4.9 3 7.3q0.4 0.8 0.8 1.7 0.4 0.8 0.9 1.6 0.5 0.8 1 1.5 0.5 0.8 1.1 1.5 0.5 0.7 1.1 1.3 0.6 0.6 1.3 1.2 0.7 0.5 1.4 1 0.7 0.4 1.5 0.8 0.9 0.4 1.8 0.8 0.9 0.3 1.8 0.5 1 0.2 2 0.3 0.9 0 1.9 0c5.5 0 9.4-2.3 11.9-6.8 2.5-4.5 3.7-10.6 3.7-18.1q0-1.6-0.2-3.2-0.2-1.7-0.5-3.2-0.4-1.6-1-3.1-0.6-1.6-1.4-3-0.8-1.5-1.7-2.9-0.9-1.4-1.8-2.8-1-1.4-2-2.7-1.1-1.3-2.2-2.6c-3.1-3.5-6.5-7-10-10.6q-1.3-1.3-2.6-2.6-1.3-1.4-2.6-2.7-1.2-1.4-2.4-2.8-1.2-1.4-2.4-2.9-1.2-1.4-2.2-2.9-1.1-1.5-2.1-3-0.9-1.6-1.8-3.2-0.9-1.6-1.7-3.2-0.8-1.7-1.4-3.6-0.6-1.8-0.9-3.6-0.4-1.9-0.6-3.8-0.2-1.9-0.2-3.8 0-1.9 0.1-3.8 0.2-1.9 0.5-3.7 0.3-1.9 0.7-3.7 0.4-1.9 1-3.7 0.5-1.7 1.3-3.3 0.7-1.7 1.6-3.3 0.8-1.5 1.9-3 1-1.4 2.2-2.8 1.2-1.4 2.6-2.6 1.3-1.3 2.8-2.3 1.5-1.1 3.1-2 1.6-1 3.3-1.7c4.7-2.2 10.3-3.2 16.8-3.2 7.3 0 13.3 1.6 18.1 4.8 4.8 3.2 8.6 8.3 11.3 15.5z"/>
			</g>
		</g>
	</g>
</svg>