<svg version="1.2" xmlns="http://www.w3.org/2000/svg" viewBox="0 0 1509 865" width="1509" height="865">
	<title>Nov_9_2022_corporate_presentation_Final-1-pdf-svg (2)-svg</title>
	<defs>
		<clipPath clipPathUnits="userSpaceOnUse" id="cp1">
			<path d="m-972.69-867.75h16773.03v9433.6h-16773.03z"/>
		</clipPath>
	</defs>
	<style>
		.s0 { fill: #f26717 } 
		.s1 { fill: #f26020 } 
		.s2 { fill: #1f5684 } 
	</style>
	<g id="Clip-Path: Clip-Path: Page 1" clip-path="url(#cp1)">
		<g id="Clip-Path: Page 1">
			<g id="Page 1">
				<path id="Path 9" class="s0" d="m297.5 108.8c-31.4 0-56.8-22.6-56.8-50.7 0-28 25.4-50.6 56.8-50.6 31.4 0 56.8 22.6 56.8 50.6 0 28.1-25.4 50.7-56.8 50.7zm127.6 198.3c-31.4 0-56.8-23.1-56.8-51.5 0-28.5 25.4-51.6 56.8-51.6 31.4 0 56.7 23.1 56.7 51.6 0 28.4-25.3 51.5-56.7 51.5zm114-90.9c-31.7 0-57.3-22.8-57.3-51.1 0-28.2 25.6-51.1 57.3-51.1 31.6 0 57.2 22.9 57.2 51.1 0 28.3-25.6 51.1-57.2 51.1zm33.2 125.8c-31.7 0-57.3-23-57.3-51.5 0-28.5 25.6-51.5 57.3-51.5 31.6 0 57.2 23 57.2 51.5 0 28.5-25.6 51.5-57.2 51.5zm-21.4 370.4c-31.4 0-56.8-23.1-56.8-51.6 0-28.5 25.4-51.5 56.8-51.5 31.4 0 56.7 23 56.7 51.5 0 28.5-25.3 51.6-56.7 51.6zm132.3-46.3c-31.6 0-57.2-22.9-57.2-51.1 0-28.3 25.6-51.1 57.2-51.1 31.7 0 57.2 22.8 57.2 51.1 0 28.2-25.5 51.1-57.2 51.1zm-19.6 125.8c-31.4 0-56.8-23.1-56.8-51.6 0-28.5 25.4-51.5 56.8-51.5 31.4 0 56.7 23 56.7 51.5 0 28.5-25.3 51.6-56.7 51.6zm135.8-25.4c-31.6 0-57.2-22.8-57.2-51.1 0-28.2 25.6-51.1 57.2-51.1 31.6 0 57.2 22.9 57.2 51.1 0 28.3-25.6 51.1-57.2 51.1zm127.1 96.1c-31.4 0-56.8-23-56.8-51.5 0-28.5 25.4-51.6 56.8-51.6 31.4 0 56.8 23.1 56.8 51.6 0 28.5-25.4 51.5-56.8 51.5zm288.7-152.8c-31.6 0-57.2-23.1-57.2-51.6 0-28.5 25.6-51.5 57.2-51.5 31.7 0 57.2 23 57.2 51.5 0 28.5-25.5 51.6-57.2 51.6z"/>
				<path id="Path 10" class="s1" d="m1379.9 712.4c-31.4 0-56.8-23.1-56.8-51.6 0-28.5 25.4-51.5 56.8-51.5 31.4 0 56.8 23 56.8 51.5 0 28.5-25.4 51.6-56.8 51.6zm-1345.3-677c-7-1.7-7.9 2.7-9.6 5.3-0.9 3.5-1.8 6.1-8.8 4.3 1.8 0 1.8-0.8 1.8-1.7-0.9-1.8-6.1-3.5-8.8 0l0.9-2.6c-3.5 0-7.9 0-9.6 0.8 0-3.4 1.7-4.3 4.4-3.4 1.7 0 4.3 0 5.2-2.7-1.7 0-3.5-1.7-5.2-1.7 3.5-1.8 7-3.5 10.4-4.4-2.6 0.9-2.6 3.5-1.7 4.4 1.7 1.7 2.6 2.6 4.4 0 1.7-3.5 1.7-4.4 2.6-4.4 0.9 0 2.6 0 6.1-0.9-1.7 0.9 0.9 5.3 4.4 5.3 0.8 1.7 1.7 1.7 3.5 1.7z"/>
				<path id="Path 11" fill-rule="evenodd" class="s2" d="m42.4 62.5c0 0-0.8 0.9 0 5.3-0.8-3.5-4.3-4.4-7.8-5.3-2.7-2.6-6.2-3.5-6.2-9.6 3.5-1.7 7.9-4.4 11.4-6.1-1.7 0-3.5-2.6-5.2-1.8l0.8-8.7h-0.8c1.7 0 3.5-3.5 5.2-4.4 2.6 4.4 7 7.9 14 12.3 5.2-2.7 5.2 0 13.1 3.5 0 4.3-1.8 3.5-4.4 1.7-3.5-0.9-5.2-1.7-7.8 0 0.8 1.8 3.5 1.8 4.3 1.8 3.5 5.2-3.5 3.4-4.3 6.9-1.8-3.5-5.3-6.1-7.9-8.7-2.6 1.8-4.4 3.5-7 6.1 3.5 6.1 3.5 6.1 2.6 7zm860.5 461.2c-7.5 0.8-15.1 0.9-22.6 2.4l8.6 6.3c-6.1-1.7-11.3-4.3-15.7-6.9h5.3l-0.9-0.9c6.1 1.7 5.2-10.5-3.5-11.4l2.7-1.3c-2.6 0.5-9-2.6-10.6-6.5 6.1 2.6-0.8-7-0.8-8.8 10.4 6.1 18.3 14.9 27 22.7-0.8 0-1.7 1.7-4.1 0.1 7.6 5.1 8.5-1.8 14.6 4.3zm-14.6-4.3q-0.1 0-0.2-0.1 0.1 0.1 0.2 0.1zm-11.5-7.5q0.5-0.1 0.8-0.4zm583.5 258.1q-0.9-1.7 3.5-3.5-1.8 1.8-3.5 3.5zm-545.2-246.3h-6.1c-2.6 0-3.5 0.9-5.2 1.8 0 0-0.9-0.9-0.9-1.8h5.2q3.5-1.7 7 0zm-72.5 46.3l-3.5 1.8v-1.8q1.8 0 3.5 0zm172.1 29.7c-4.3-3.5-10.5-8.7-14-12.2 6.2 4.3 12.3 7 17.5 4.3-7-6.9-21.8-19.2-20.9-23.5-22.8-7.9-44.6-3.5-67.3-15.8-7.9-8.7-3.5-13.9 1.7-13.9-9.6-7.9-9.6-0.9-16.6-2.7 8.8-0.8 7-1.7 6.1-11.3-0.8-0.9-3.4-0.9-6.1-0.9l52.5-2.6c11.3-0.9 22.7 24.5 31.4 24.5-5.2 0.8-2.6 8.7 4.4 12.2 1.7 0 0-2.6 0-4.4 7.8 12.2 20.9 27.1 30.5 25.3l-7.8 2.7c8.7 3.5 14.8 8.7 21.8 8.7 0 0-2.6 0-3.5 0.9 3.5 7.8 11.4 4.3 14.9 10.5l-3.5-1.8c-1.8 2.6 3.5 5.2 5.2 7 2.5 2.5 9.8 1.8 7.4-3.6 0.4 0.4 1.2 0.8 2.2 1.8l1.8 3.5q0.5-0.5 0.7-0.9c2.6 5.3 11.9 10.6 8.9 16.7-5.3 0-6.1 3.5-14 0 0-2.7-0.9-3.5-0.9-4.4v-1.7c0 0-1.7 0 0 0-1.7 0-1.7 0-1.7-0.9l-0.9-0.9c-2.6-2.6-3.5-3.5-7-5.2-4.3-1.8-9.6-4.4-14.8-8.8-4.4 0.9-3.5 3.5-9.6-0.8 3.5-5.3 14.8 5.2 11.3-6.2-5.2-5.2-14-13.9-20.1-7.8 17.2 11.1-6.9 11.3 8.7 21.3-3.3-1.7-7.4 0.2-13-3-7.9-10.5 20.9 2.6 0-14zm53.7 3.4c-0.3-0.2-0.4-0.4-0.4-0.7q0.2 0.4 0.4 0.7zm4.6 4.4c-0.4-0.8-0.7-1.7-0.7-2.5 0 0.7 1.1 1.4 0.7 2.5zm-37.4 21.1c6.2 0.8 11.4 5.2 14.9 6.1-3.5 7-8.7 2.6-15.7-4.4-5.3-7-14-14.8-20.1-13.1-1.8-2.6-1.8-6.1-7-10.5-3.5 10.5-17.5-9.6-26.2-13.9-2.6-4.4 7.8 3.4 4.3-3.5-5.2-4.4-11.3-0.9-16.6-11.4 0.9 0.9 0.9 0 1.8 0-12.2-7-0.9-5.2-1.8-10.5 2.7 7 11.4 7 13.1 11.4 6.2-0.9 11.4 3.5 17.5 7q-0.3 0.4-0.4 0.8h0.4l1.7 0.9-2.2-0.7q0-0.1 0-0.2h-0.4l0.4 0.2c-1.1 3.5 3.8 8.7 1.4 10.3 7.9 7 20.1 20.1 28.8 22.7l-2.6-2.6c8.7 7.9 6.1-3.5 14 1.8zm-271.7-76c3.5-2.6 7.9-3.5 11.4-6.1 0.9 0.8 2.6 0.8 3.5 0.8 4.4-0.8 8.7-3.5 14 5.3-11.4-1.8-9.6 4.3-17.5 7.8l2.6 0.9c0 2.6-3.5 0.9-5.2 0.9 3.5-1.8-1.8-4.4 0-5.3-4.4-0.8-8.8-0.8-12.3-0.8zm509.4 262.9v2.6c-3.5 0 0-0.9 0-2.6zm-240.3-206.7q0.4 0.2 0.9 0.6-0.5-0.3-0.9-0.6zm-64.7-40.5c0 0-0.9-1.8-0.9-2.6 0.9 0.8 0.9 2.6 0.9 2.6zm-64.7-27.1c-0.9 0-1.7 0-3.5-0.8 2.6 0 3.5 0 5.3 0 0.8 0.8 0 0.8-1.8 0.8zm1.8-15.7c0.8 0.9 0.8 0.9 0.8 2.6l-0.8 0.9q0-1.7 0-3.5zm178.2 171.2h-1.8c0-0.9 0.9-0.9 1.8 0zm-166-144.1l-0.9-1.8c0.9 0 0.9 1.8 0.9 1.8zm117.1 57.2l-0.9-0.4c0.5 0 0.7 0.2 0.9 0.4zm0.8 0.4c-0.4 0-0.6-0.2-0.8-0.4z"/>
				<path id="Path 12" fill-rule="evenodd" class="s2" d="m838.3 435.5l6.1-7c10.5 6.1 16.6 10.5 23.6 14.8l8.7 7 4.4 4.4 6.1 5.2c0.9 1.8-1.8 0.9-2.6 0.9 12.2 8.8 27.1 23.6 36.7 27.1 3.5 3.5 11.3 14 7 13.1 1.7 0.9 3.4 1.7 5.2 4.4-0.9 3.5-4.4-3.5-5.2-0.9 0.8 1.7 0.8 1.7 1.7 1.7-3.5 0-1.7 13.1-13.1 2.7-1.8-11.4 7.9 5.2 8.7-4.4-3.5-3.5-4.3 0-5.2 0.9-5.3-4.4-3.5-7-2.6-7.9-3.5 0.9-7.9-7.9-11.4-7-10.5-7.8 1.8-6.1-3.5-11.3l-7.8 5.2c-3.5-2.6-7-6.1-10.5-11.4-4.4-1.7-7-1.7-7.9-1.7-2.6 0.9-2.6 3.5-3.5 5.2 0 2.7-0.9 3.5-2.6 5.3-0.9 0.9-1.8 0.9-4.4 0.9-0.8 0-3.5-0.9-5.2-2.7 4.4-1.7 0-15.7-7.9-23.5 1.8 1.7 6.1 3.4 11.4 4.3 0.9 0.9 3.5 2.6 5.2 3.5 0.9 0.9 2.6 0.9 3.5 2.6l0.9 0.9c-0.9-2.6-0.9-3.5 0-3.5 1.7 0 2.6 0.9 5.2 3.5 4.4 1.8 8.8 5.2 7.9 0-1.8 0-3.5-0.9-6.1-0.9 0-1.7-0.9-1.7-1.8-1.7l-1.7-0.9-0.9-0.9c-2.6-1.7-3.5-2.6-6.1-3.5q-1.2-2.3-2.3-4.5c-6.6-4.5-14-1.3-21.3-9.4-4.4-3.5-2.6-4.4-0.9-7-4.3-0.9-7.8-0.9-7.8-3.5zm30 19.9q0.7 0.4 1.4 1.1l-1.7-1.8q0.1 0.3 0.3 0.7zm-20.4-15.5l6.1 6.1c0-2.7-2.6-4.4-6.1-6.1zm-344.2 77.7l5.2-0.9c-0.8 0.9-3.5 0.9-5.2 0.9zm-169.4-96.1q0.4 0.5 0.8 0.9-0.5-0.5-0.8-0.9zm-1.8-4.4c0.7 2.2 0.8 3.2 1.8 4.4q-1.8-2.1-1.8-4.4zm177.3 99.6q0-0.9 0-0.9h1.7zm121.5-6.9c-0.9 1.7-1.8 1.7-1.8 1.7 0 0 0.9-1.7 1.8-1.7zm-4.4-27.1c-0.9 0.9-1.7 0.9-1.7 0.9zm112.7 41l-5.3-0.9c1.8 0 2.6 0 5.3 0.9zm-103.1-34.1c0 0 0 0-0.9 1.8 0-1.8 0.9-1.8 0.9-1.8zm-561.7-425.3c-5.3-3.5-10.5-6.2-6.2 3.5 4.4 5.2 8.8 9.6 12.3 15.7-5.3-7-9.6-7-14.9-15.7-0.9 0.8-3.5 1.7-4.4 3.4 4.4 6.2 13.2 11.4 19.3 15.8-11.4 0.8-20.1-3.5-31.5-9.6-4.4-6.2 4.4-1.8 0.9-7.9 3.5 2.6 7.9 3.5 7.9 0-1.8-1.7-5.3-1.7-7-1.7 0-2.7 5.2-2.7 2.6-6.2 3.5 0 10.5 9.6 12.2 3.5-5.2-6.1-4.4-6.1-0.9-6.1 2.7 0 7 2.6 7.9 1.8 0 0.8 0 1.7 1.8 3.5zm203.5 279.5c-2.6 0-1.7 3.5 0 5.2-6.1-1.7-3.5-6.1 0-5.2zm-143.3-308.4c0.9 0 1.8 0.9 4.4 0 0 0.9-2.6 0.9-4.4 0zm203.6 279.5c0-0.8 0-0.8 0-1.7 0 0 0.8 0.9 0 1.7zm-263.8-250.6l4.3 1.7c-1.7 0-2.6-0.9-4.3-1.7zm687.5 338l-2.7 0.9c0 0 0-0.9 2.7-0.9zm-69.9 116.2c0 0 0 0 0-0.9 0 0.9 0.9 0.9 0 0.9zm-165.1-112.7c-0.9-1.8-0.9-2.6-0.9-2.6 0.9 0.8 0.9 0.8 0.9 2.6zm-250.7-23.6q-0.9 0-2.7-3.5 1.8 1.8 2.7 3.5zm444.6 5.2c-1.7 0-1.7 0.9-2.6 0.9 0 0 0.9-0.9 2.6-0.9zm-259.4 35c0.8 2.6 0.8 4.3 8.4 6l-3.2 4.5q3.8 1.2 7.6 2.5c-3.1-0.8-5.8-1-8.5-1.7-3.5-1.7 1.8-3.5-2.6-6.9-5.2 1.7-12.2 1.7-5.2 6.9-2.7 0-9.7-6.9-14-6.9 2.6-1.8-7.9-9.7-10.5-11.4 2.6-5.2 14 1.7 21 1.7 0 0 0 0.9-1.8 0.9 8.8 0 8.8 2.6 8.8 4.4zm8.4 6l1.2-1.6-0.9 1.7q-0.2 0-0.3-0.1zm4.4 7q1.4 0.4 2.9 1-1.5-0.5-2.9-1zm-16.3-20c-1.8 0-2.7 1.7-3.5 1.7 0.8-1.7 0.8-1.7 3.5-1.7zm406.2 103.9c-2.6-1.7-4.4-5.2-7-7.8 0.9-4.4 8.7 6.1 7.9 7.8zm-621.2-260.3h-1.7c-0.9-0.8-0.9-1.7-1.8-3.4 0.9 0 3.5 2.6 3.5 3.4zm201 167.8c0 1.7-0.9 1.7-3.5 1.7 1.7 0 2.6-1.7 3.5-1.7zm-204.5-193.1c1.8 2.6 4.4 3.5 7 6.1-1.7 0.9-1.7 4.4-1.7 7.9-0.9-7-3.5-10.5-5.3-14zm634.3 234.1q0 0.9 0 0.9 0 0 0-0.9zm-365.2 48.9h0.9q-0.9 0-0.9 0zm-403.6-404.4c-0.9-1.7-0.9-2.6-0.9-2.6 0 0 0 0.9 0.9 2.6zm-11.4-48l0.9-1.8z"/>
				<path id="Path 13" fill-rule="evenodd" class="s2" d="m870.6 524.6c1.7 0 2.6 1.7 2.6 1.7h-0.9c0.9 1.8 3.5 4.4 4.4 5.3 0.9 0.8 2.6 0.8 3.5 0.8-0.9 0-0.9 1.8-0.9 1.8l0.9 1.7c5.2-0.8 18.4 6.2 22.7 6.2 5.3 1.7 10.5 5.2 14 8.7-2.6-1.8-7-5.3-7-1.8 4.4 7.9 4.4 16.6 16.6 20.1l-5.2-4.3 18.3 3.5c1.8 7.8-9.6-2.7-13.1 0 13.1 4.3 16.6 25.3 24.5 21.8-1.8 4.4-3.5 13.1 3.5 19.2-2.7-10.5 5.2 0 4.3-9.6 2.4 0 5.4 6.3 7.9 7 7.9 18.3 16.6 10.5 23.6 11.3 14.8 10.5 20.9 20.1 33.2 28.9-0.9 3.5-2.6 14.8 3.5 18.3 3.5-2.6 14.8 4.4 18.3-0.9-7-7.8-7.8 0-14-3.5-1.7-9.3 1.6-6.3-1.4-13.3 1.4 2.7 6.3 6.6 11.9 9.9 2.6 1.7 4.4 3.4 7 5.2 1.8 2.6 4.4 5.2 5.3 7l-1.8-0.9c6.1 10.5 3.5 25.3 20.1 27.1l7.9 1.7c-0.9 0-0.9 0-0.9 0.9 10.5 7.9 5.2 12.2 19.2 14.9-0.9 0-0.9 0.8-2.6 0.8 7 7 16.6 4.4 21.8 7 1.8 7-1.7 4.4-5.2 7 12.2 8.7 27.9 7 37.5 4.4l7.9 7c-6.1 0-12.2 2.6-12.2 5.2 5.2 1.7 4.3-0.9 11.3 2.6-2.6 3.5-6.1 4.4-9.6 7.9 11.4 11.3 6.1-10.5 12.3 3.5 5.2 2.6 8.7-1.8 9.6-5.3l7 7.9c0.8-4.4 11.3-1.8 18.3 0 0.9-1.8-5.2-7-8.7-6.1 1.7-4.4 9.6-3.5 13.1-1.8 0 5.3 7 6.1 13.1 8.8 6.1 0.8 11.3 2.6 8.7 7.8 20.1 1.8 48.9 6.1 62 3.5 3.5 3.5 13.1 4.4 7 9.6 15.7 3.5 25.4-7 41.1-1.7 0.9 1.7-7.9-0.9-7 2.6q3.5 0 7 0c2.6 0.9 4.3 0.9 7.8 2.6 4.4 0.9 10.5 1.8 17.5 0.9q-0.9 0.9-1.7 1.7 1.7-0.8 3.5-1.7c1.7-0.9 5.2-1.7 7-2.6 2.6 0-3.5 1.7-2.7 2.6 16.6 0.9 29.7-2.6 43.7-7 13.1-4.4 26.2-9.6 41.1-12.2-7.9 1.7-10.5 8.7-10.5 11.3l9.6-1.7c1.7-3.5 8.7-4.4 14-7.9 0 1.8 3.5 2.7 1.7 4.4 7.9 2.6 14.9-1.7 21.9-6.1 6.1-5.3 13.9-10.5 24.4-10.5-7.8 5.2-15.7 12.2-23.6 18.3l7 4.4-11.3 7.9c6.1 3.5 12.2-7 13.1-0.9-0.9 0.9-4.4 0.9-4.4 4.4 7 0.8 7-3.5 11.4-4.4-12.3 12.2-36.7 15.7-49.8 21.8-2.7 0.9 0.8-3.5 0.8-5.2-4.3 1.7-7.8-1.8-14.8 1.7-4.4 5.3 3.5 3.5 7 3.5 0 3.5-2.6 3.5-6.1 4.4-0.9-4.4-21 0.9-27.1-4.4-19.2 4.4 4.3 13.1-15.7 13.1l-6.2-5.2c-11.3 5.2-26.2 12.2-41 11.4l3.5-0.9c2.6-2.6-0.9-3.5-3.5-6.1-4.4-0.9-8.8 0-14 0.8q-1.7 0-3.5 0-1.7 0-3.5 0c-1.7-0.8-3.5-1.7-5.2-3.5-12.3 5.3-30.6 7-43.7 8.8-2.6-9.6 16.6-5.3 22.7-9.6l-9.6-0.9c5.2 0 8.7-2.6 13.1-6.1-9.6-3.5-14 3.5-24.5 3.5 1.8-1.8 0-3.5-4.3-4.4l-0.9 6.1c0-1.7-1.8-1.7-2.6-2.6h-18.4c5.3 3.5 3.5 7.9 7.9 8.7-0.9-3.5 2.6-3.5 7-1.7-3.5 1.7 4.3 3.5 4.3 7-8.7-2.6-20-3.5-26.2-3.5l-1.7-6.1c-7.9-1.8-17.5-0.9-22.7-4.4l1.7-2.6c-9.6-3.5-20.9-1.8-28.8-9.6-2.6 0-3.5 0.8-5.2 0.8-0.9 0-0.9 0-1.8 0 0 0 0 0-1.7 0h-0.9l-4.4 0.9-3.5 0.9c-6.1 0-11.3 1.7-15.7 2.6-2.6 2.6-9.6-2.6-15.7-7-7-5.2-14.9-9.6-21-8.7 1.8-0.9 7.9-1.8 11.4-1.8-7-4.3-14 0-14.9-6.1 14.9 8.8 0.9-6.1 7.9-5.2-7-3.5-14.9-5.2-19.2-5.2 12.2 6.9-5.3 6.9 6.9 10.4-11.3 0.9-23.5-3.5-34-13.1 0.9-1.7 0-4.3-3.5-7.8l-4.4 0.8c-4.4-3.5 11.4 2.7 1.8-5.2-6.2 0-13.1-6.1-20.1-11.4-7-4.3-12.3-7.8-17.5-3.4-5.2-10.5 16.6 4.3 7-9.7 7.9 0 14.8 11.4 19.2 7-7-1.7 0-7-4.4-8.7l-7.8-1.7 0.9 1.7c-7-1.7-14.9-7-22.8-13.1l-3.5-1.8-3.5-2.6-5.2-4.3c-4.4-3.5-7.9-7-11.3-8.8-14.9-5.2-27.1-3.5-42-17.4 6.1 0-10.5-14 1.8-12.3-5.3-9.6-13.1-12.2-14.9-8.7 6.1 6.1 1.8 2.6 6.1 8.7-4.3 0-13.1-7-14.8-13.1 0.9 2.6 0.9 0.9 1.7 0-5.2-7.8-4.3 0-9.6-3.5 0-5.2-10.5-10.5-14.8-16.6h-9.6c6.1 0-5.3-7-4.4-11.3-5.3-1.8-12.2 0-19.2-8.8 4.3 1.8-4.4-8.7-3.5-12.2-10.5-14.8-25.4-7-34.1-22.7 0.9-0.9 4.4-0.9 2.6-6.1-3.5-0.9-8.7-4.4-10.5-7q-3.5-0.9-3.5 0c-0.8 0-0.8 0-2.6 1.8h-6.1c-3.5 0-7 0-13.1-1.8-0.9 5.2 7.9 9.6 13.1 10.5l1.8-0.9 0.8-0.9h1.8c-1.8 8.8 7.8 4.4 8.7 8.8q-3.5 1.7-7 0c-1.7-0.9-3.5-0.9-4.3-0.9l-0.9-1.7h-0.9l-2.6-1.8c-7-2.6-14-7-19.2-7.9 0.8 5.3 5.2 11.4 10.5 15.8 0.8 0.8 2.6 3.5 4.3 4.3l3.5 3.5c1.8 0.9 5.3 3.5 7.9 6.1l-3.5-6.9 5.2 4.3-3.5-8.7c5.3 4.4 10.5 7.8 14.9 12.2-5.3-6.1-4.4-14-1.8-10.5 4.4 10.5 7.9 3.5 13.1 7.9-2.6-3.5-6.1-6.1-2.6-6.1 7.9 14.8 12.2 12.2 17.5 27.1 2.6-9.6 13.1 8.7 17.5 4.3l-4.4-4.3 11.4 3.5c5.2 13.9-10.5 0 0 15.7q1.7 2.6 3.4 3.5l3.5 6.1c-5.2 0-13.9-9.6-20.1-14.9 11.4 3.5-2.6-5.2-4.3-13.1-3.5 3.5 2.6 7.9-5.3 6.1 7 5.3 7 5.3 14.9 14.9-16.6-17.5-22.7 1.7-35.8-14.9 7.8 3.5 1.7-7.8 1.7-11.3-3.5-2.6-10.5-7-14-7.9v8.8c-4.3-2.7-6.9-7-7.8-11.4-2.6-4.4-4.4-9.6-9.6-9.6-0.9 2.6 0 3.5 1.7 5.2 1.8 0.9 4.4 1.8 3.5 1.8-2.6-0.9-3.5-0.9-5.2-1.8-0.9-1.7-1.8-1.7-3.5-3.5q-1.8-1.7-2.6-3.4c0-0.9-1.8-2.7-2.7-4.4-3.5-6.1-6.1-13.1-10.5-20.1-0.8 1.7-3.4 6.1-7.8 7 2.6-3.5 0-7 6.1-7-3.5-4.4-9.6-4.4-13.1-5.2 7 7.8-5.2 3.5-7.9 5.2-3.5-3.5 2.7-3.5 6.2-3.5-3.5-2.6-5.3-11.4-9.7-6.1 1.8-5.3 14-6.1 21-2.6l-5.2-3.5c3.5 0 5.2 0.8 8.7 4.3-2.6-6.1-1.7-9.6 0.9-12.2 0 0.9-0.9 0.9 0 2.6 1.7 3.5 5.2 3.5 5.2 0.9 5.3-3.5-3.5-7-4.4-11.3l-5.2-2.7c-9.6 2.7-17.5 4.4-25.3 7-7.9-2.6-10.5-7.8-14.9-14l-3.5 3.5c-5.2-3.5-12.2-7.8-5.2-12.2-5.3-1.7-9.6-2.6-9.6-2.6 14-1.8 3.5-8.7 7-16.6q-7-1.8-14-3.5c8.7 7 0 5.2-3.5 5.2 0-5.2-9.6-4.3-14-5.2l0.9-1.7c-4.4-2.7-11.4-5.3-17.5-5.3 0 2.6-7.8 10.5-11.3 14.9 7.8 3.5 2.6 4.3 3.5 7.8-0.9 0-1.8-0.9-3.5 0-0.9 0.9 2.6 2.6 2.6 4.4 8.7-0.9 18.3 1.7 22.7-4.4-2.6-4.3-4.4 0.9-7.9-2.6 5.3-2.6 11.4 0 19.3 2.6l0.8 6.1c2.6 0 6.1 0 7.9 0-3.5 0.9-1.8 6.1-9.6 4.4 0 4.4 7.8 1.7 12.2 5.2l3.5-4.3c-0.9 2.6 7.9 7.8 0 9.6-4.4 0-7.9 0-12.2 0l1.7 5.2q-5.2-1.7-10.5-3.5l3.5-1.7c-7.8-1.8-8.7-3.5-9.6-7 0-3.5-1.7-6.1-10.5-4.4-6.1 5.3-11.3 5.3-20.9 0.9 7 0 1.7-4.4 5.2-7.9-7.8-5.2-11.3 0.9-14.8 3.5-2.7-5.2-3.5-8.7 3.5-7 1.7-7.8-9.7 0.9-9.7-7.8-11.3-1.8-15.7 5.2-21.8 9.6-5.2 6.1-11.3 9.6-24.5 5.2l0.9-3.5c-18.3 4.4-29.7 0-48 3.5l-14.9-8.7c3.5-0.9 11.4-7 8.8-11.4 6.9 7.9 14.8 5.3 20.9 9.7 1.8-2.7-1.7-4.4-3.5-6.2 5.3 0 7 3.5 13.1 2.7 0-2.7-7-3.5-2.6-4.4l7.9 4.4c10.5-2.7 6.1-12.3 17.4-10.5-2.6 4.3-6.9 11.3-11.3 13.1 5.2 0.9-7 2.6-2.6 5.2 7.8-7 12.2-0.9 22.7-5.2-0.9 0.9-1.8 1.7-4.4 2.6 6.1 0 10.5 1.7 14.9 3.5-3.5-4.4 12.2-4.4 11.3-11.4-7.8-0.8-10.5-0.8-14-0.8-3.4 0-6.1 0-15.7-0.9 6.1-2.6 12.3-7.9 14.9-14 0.8 0 0.8 0 0.8 0 3.5-6.1 0-7 1.8-18.3-9.6 7.8-14.9 0.8-25.3 6.1-2.7 5.2 5.2 6.1 11.3 5.2l-8.7 4.4 0.9-3.5c-7 0-14.9-0.9-22.8-0.9 4.4-0.8 5.3-4.3 7.9-7-2.6 0-6.1-0.8-8.7-3.5 0.8 6.2 0 10.5-2.7 10.5-14.8-0.8-23.5-5.2-29.7-12.2h-0.8c1.7 7-11.4 11.4-16.6 16.6 0-5.2-7.9-3.5-12.3-6.1q-0.8 3.5 0 7.8c-4.3-1.7-7.8-1.7-12.2-2.6-4.4 0-9.6 0-13.1-0.9-8.7-1.7-16.6-2.6-24.5-3.4-6.1 11.3-13.1 16.6-15.7 28.8-11.3 0-26.2-3.5-34.9-10.5l1.7-2.6c-4.3-1.8-9.6-3.5-13.1-3.5-4.3-4.4 5.3-4.4 1.8-7.9-6.1 0-10.5-0.9-15.8-0.9 1.8-4.3 14 0 20.1 0.9-0.8 0-3.5 0-2.6 0.9 6.1 5.2 21 0 22.7 9.6 3.5-0.9-7.8 3.5 3.5 7 7.9 4.4 11.4-1.8 13.1-3.5 0-2.6-13.1-7-7-9.6-7-0.9-9.6 1.7-17.4-3.5 7 1.7 14.8-1.8 18.3 3.5 12.2-3.5 12.2-16.6 7-19.2 0.9 4.3-21.8 0-7.9 9.6-7 4.3-19.2 0-29.7 0h0.9c-3.5-1.8-7.9-2.6-11.3-3.5 2.6-1.8 6.1-1.8 6.1-3.5-6.1 0-11.4 0.9-17.5 0.9 10.5-0.9-4.4-6.1-7.9-8.8-2.6 2.7-8.7 2.7-3.5 8.8 6.2 6.1 4.4-0.9 10.5 0.8q-5.2 1.8-10.5 3.5l-0.8-0.8c-0.9 0.8-3.5 2.6-6.1 3.5-12.3-7 7.8-10.5-7.9-13.1v8.7c-0.9 0-1.8-1.8-3.5-2.6 0 0-0.9 0 0 0h-0.9v-0.9h-0.9l-1.7-1.8c-0.9 0-1.7-0.8-1.7-0.8l-2.7-0.9q-1.7-1.7-3.5-3.5c-4.3-4.4-8.7-9.6-13.1-13.1-7.8-8.7-14.8-15.7-21.8-19.2 4.4-0.9 8.7-7 7-13.1 3.5 4.4 12.2 12.2 20.1 16.6 0.8 2.6-12.3 0.9-18.4-5.3-0.8 6.2 5.3 8.8 9.6 9.6 5.3 2.7 9.6 3.5 7.9 10.5 4.4 4.4 8.7 7 12.2 7.9 3.5 1.7 6.1 0 7.9 1.7 2.6-1.7 3.5-1.7 7 0 2.6 0 4.4 1.8 9.6 5.3 0.9-4.4 5.2 0 7.9-4.4-2.7-6.1-7.9-7.8-14.9-11.3l-2.6-0.9h-1.8l-1.7-1.8h-1.8l-2.6-1.7c-4.3-1.8-7-3.5-10.5-7 1.8 0.9 5.3 0.9 5.3 0.9-7-7.9-10.5-8.8-16.6-10.5v1.7c-11.4-2.6-4.4-9.6-7.9-14.8-1.7-1.8-8.7-7.9-8.7-3.5-2.6-4.4-5.3-9.6-7-13.1l-2.6 6.1c-4.4-4.4-4.4-9.6-9.6-10.5l-2.7 6.1c3.5 4.4 7 7.9 11.4 12.3-7-3.5-4.4 3.5-11.4-2.6 10.5 2.6-4.3-7.9-3.5-12.3l-5.2-2.6h1.8c-3.5-5.2-5.3-1.7-10.5-7.9 5.2 7.9 6.1 14.9 14.8 18.4-6.1-1.8-18.3-8.8-20.1-11.4-6.1-1.7-7.8-10.5-12.2-15.7 9.6 7.9 4.4-17.5 20.1 4.4 0 0.8-0.9-0.9-2.6-2.6 0 9.6 11.3 10.4 17.4 13.1 0-4.4 4.4-2.7-0.8-10.5 0.8 4.3-10.5 2.6-14.9-7.9l4.4-7-9.6-10.5 1.7 1.8c-1.7-9.6-10.5-10.5-14.8-20.1-3.5-0.9-9.6-7.9-14-11.4-4.4-4.3-7.8-5.2-5.3 2.5-3.5-10.3-11.3-11.2-18.3-18.2 0.9 4.4 3.5 8.8 5.2 12.2-6.1-1.7-7.8-4.3-9.6-5.2-2.6-0.9-3.5-0.9-10.4-2.6 0-1.8 0-7 2.6-7-2.6-3.5-6.1-8.7-10.5-14.8l-2.6-4.4-1.8-3.5c-2.6-1.8-3.5-5.3-5.2-7-5.3-8.7-11.4-16.6-15.7-17.5-7-12.2-1.8-20.9-14-33.2-2.6-2.6-2.6 7.9-7.9-3.5-0.9-1.7 9.6 4.4 2.6-6.1-8.7-3.5-10.4-21.8-20.1-27-2.6-7-9.6-16.6-5.2-17.5 5.2 9.6 14 19.2 16.6 19.2-2.6 1.7 1.8 9.6-3.5 5.2 6.1 15.8 7.9 5.3 13.1 19.3 2.6-0.9 0-10.5-3.5-11.4 5.3-6.1 17.5 20.1 16.6 3.5-8.7-13.1-20.1-6.1-21.8-21.8 4.3 0.8 7 10.4 14.8 10.4l-3.5-10.4-7.8-3.5h0.8c-6.9-21-13.9-9.6-25.3-19.3 2.6 11.4-7.9 7.9-5.2 15.8-7-7.9-11.4-14.9-7-21 7 6.1 7.8 5.2 8.7 2.6 2.6-0.8 3.5-3.5 10.5 2.6 0-5.2 7.9-5.2 2.6-14.8-10.5-6.1-0.9 7.9-9.6 0q-1.7-1.7 0-3.5c-5.2-0.9-3.5-6.1-7.9-8.7-2.6-10.5-7.8-4.4-9.6-13.1-1.7 7-6.1 0-9.6-0.9 3.5 7.9 0.9 16.6 10.5 27.1 3.5-0.9 4.4-4.4 8.7-0.9l-6.9-7c2.6 0.9 3.5 0.9 6.1 1.8l3.5 9.6c-7.9-7-7.9 0.8-12.3 0-6.1-9.6-6.1-6.1-9.6-12.3 3.5-3.5-7-24.4-12.2-35.8q1.7 1.8 3.5 3.5c7 3.5-1.8-7.8-1.8-10.5l-3.4-1.7q1.3 0 0-2.6c-6.2-4.4-8.8 0.8-15.8-3.5 1.8-3.5 9.6-3.5 6.1-8.8 0.9-3.5 0-14.8-9.6-20-0.8 1.7-3.5 0-5.2-1.8h0.9c-0.9-2.6-1.8-4.4-4.4-7.9 7.9-1.7 7.9 11.4 15.7 9.7l2.6-4.4c3.5 3.5 8.8 6.1 12.3 6.1-4.4-7-7-6.1-12.3-11.4 0-3.5 5.3-2.6 7-1.7l-2.6 1.7c4.4 11.4 12.2 6.2 21.9 16.6 0.8 2.7 0 1.8-1.8 2.7 10.5 3.5 14 16.6 24.5 20.1l-4.4-0.9c5.2 4.3 17.5 11.3 28.8 18.3l1.8-0.9c0-2.6 1.7 1.8 3.5 5.3 5.2 3.5 11.3 7.8 15.7 11.3 0-3.5-0.9-5.2-2.6-7.8-3.5 0-8.8-12.2-11.4-7-1.7-7.9-9.6-12.2-12.2-16.6 3.5 8.7-6.1-1.7-8.8 0.9 0.9-6.1-6.9-8.8-5.2-12.3 0-2.6 1.8 5.3 5.2 5.3 7.9 3.5-6.9-15.7 0.9-10.5-10.5-7.9-20.9-22.7-32.3-29.7l3.5 8.7c-3.5-6.1-13.1-14.8-13.1-18.3 3.5 3.5 6.1 6.1 11.3 9.6 3.5-4.4-9.6-9.6-7.8-13.1-6.1-1.7-12.2-2.6-16.6-3.5l4.4 4.4c-4.4 0-13.2-14-22.8-21.9 5.3-0.8 8.8 0.9 11.4 6.2 3.5 3.4 7 7.8 13.1 10.4 7 4.4-1.7-10.4 5.2-6.1-0.8-3.5-4.3-7-7.8-7l-0.9-3.5c3.5 0 8.7 2.7 14 6.2 5.2 3.4 11.3 7.8 15.7 10.4 0 0-1.7 0-2.6 0 4.4 8.8 11.3 15.8 17.5 20.1-1.8-6.1-3.5-6.1-6.2-7 0.9-0.8 7 4.4 9.7 4.4-3.5-7.9 0.8-4.4-1.8-8.7 3.5 2.6 7 7 10.5 12.2 0.9 5.2-3.5 0-4.4 3.5 4.4 3.5 1.8 13.1 10.5 17.5-7-11.4 6.1-3.5 9.6-0.9l-0.9-2.6c4.4 0 7 3.5 7 7.8-4.3-3.5-7-7.8-7.8-3.5 1.7 2.7 4.3 6.1 6.1 7.9l-2.6-0.9c2.6 4.4 7.8 8.8 11.3 14 3.5-1.7 8.8-1.7 12.2-2.6 0.9 6.1 5.3 7.8 8.8 10.5h-1.8c3.5 8.7 13.1 21.8 16.6 20 0 3.5-7.8-0.8-13.1-3.4-6.1-0.9-7.8 0 3.5 16.6 7.9 12.2 11.4 0 16.6 4.3 0 0 0 0 0 0.9 2.6 7 6.1 4.4 9.6 7.9-1.7-4.4-5.2-8.8-6.1-9.7 3.5-1.7 7 11.4 11.4 13.1-7-0.8 6.1 13.1 0.8 10.5 5.3 14.9 14 22.7 21 25.4 0 6.9 1.8 8.7 4.4 12.2 2.4 2.4 4.4 4.8 6 7.8-1.6 0-1.6-0.8-1.6-1.7-3.5-1.7-1.8 1.7-0.9 5.2 0.9 2.7 0.9 5.3-2.6 2.7 1.7 0 1.7 0 1.7-0.9 0 0 0-2.6-1.7-2.6-3.5-3.5-6.2-6.1-6.2-3.5l1.8 12.2c0 0-0.9-0.9-1.8-1.7 0 0.8 0.9 3.5 0.9 4.3 0 0.9 0.9 3.5 0.9 4.4 0 2.6 0.9 6.1 2.6 7.9 0.9 0 0.9-0.9 0.9-1.8 4.4 7.9 9.6 14.9 15.7 21.8 6.1 7 13.1 12.3 17.5 19.3 4.3-6.2 12.2 0 19.2 7.8 7.9 7 17.5 14.9 22.7 15.7-3.5 1.8-7.9 6.2-7.9 10.5-2.6-0.8-9.6 0-13.9-5.2 1.7-3.5-3.5-11.4 1.7-10.5-13.1-11.4-1.7 7.9-7 8.7 13.1 13.1 26.2 13.1 35.8 18.4v0.9l8.8 3.4c-6.1-5.2-1.8-12.2 4.4-3.4l-0.9-0.9c1.7 7 12.2 10.5 17.5 15.7 2.6-0.9 3.4-0.9 6.1-0.9 5.2 4.4 3.5 13.1 3.5 19.2q3.5 3.5 6.9 3.5c0 0 0.9 0 1.8 0 0 0 1.7 0 2.6 0h0.9c4.4 0 9.6-0.8 12.2-1.7 2.6 5.2 20.1 13.1 9.6 14.8 5.3 0.9 8.8-5.2 12.3-7.8 3.5-3.5 7.8-5.3 14.8 4.3l-4.4 1.8c7.9 2.6 18.4 2.6 27.1 3.5 9.6 0 17.5 1.7 21 3.5-3.5 7 0.9 11.3 6.1 16.6 3.5 0.9 7 2.6 9.6 5.2 0.9 0.9 2.6 3.5 3.5 4.4 0.9 0 0.9 1.7 0.9 2.6 0.9 0 0.9 0 0.9 0.9 0.8-2.6 6.1-3.5 6.9-4.4 1.8 0.9 4.4 2.6 7 0-7-3.5 4.4-14.8-8.7-8.7 6.1-10.5 15.7-17.5 30.6-17.5v5.3l-11.4-1.8c0.9 4.4-6.1 4.4-7.8 7 20.9 3.5-2.7 13.1 19.2 12.2 1.7-3.5 0.8-2.6 6.1-3.5-1.8 0.9-2.6 4.4 1.7 4.4l4.4-5.2c7.9 10.4-12.2 6.9-5.2 13.9-9.6 5.3-24.5 7.9-21.9 15.8 14.9 1.7 12.3-14.9 28-11.4l1.7 1.7c5.3-1.7 5.3-6.1 8.8-9.6 0 0.9 0.8 3.5 4.3 3.5 9.6-8.7 14.9-9.6 24.5-18.3-22.7 6.1-19.2-6.1-41.9 0.9 2.6-2.7 19.2-4.4 20.1-14v7c6.9-3.5 14.8-7 23.5-5.3l-5.2 2.7c12.2-2.7 20.1 9.6 30.6 0q-2.6-0.9-5.3-0.9c6.1-0.9 13.1-0.9 19.2 0.9 5.3-2.7 9.7-5.3 15.8-8.8 0 3.5 8.7 4.4 4.3 7.9 10.5 6.1 15.8-1.8 22.8-1.8 6.1 4.4 3.5 4.4-0.9 4.4-3.5 0-9.6 0.9-10.5 4.4 14.9 6.1 32.3 7 41.1 3.5-2.7-0.9-4.4-3.5-3.5-4.4 0 1.7 7 3.5 10.4 4.4l1.8-3.5c6.1 4.3 5.2 7-0.9 7.8 6.1 2.6 14-1.7 18.4 4.4-10.5 1.7-21.9-6.1-27.1-4.4 9.6 0.9 14.8 6.1 20.1 10.5 4.3 4.4 10.5 8.7 22.7 12.2 0 1.8-4.4 3.5 0 6.2 10.5 3.4 4.4-7 7.9-9.7-7.9-1.7-11.4-5.2-15.8-12.2l3.5-2.6c0 2.6 4.4 5.2 6.1 7l2.7-5.3c-1.8 7 5.2 14.9 12.2 15.8-5.3-7.9-3.5-7-3.5-14.9 11.4-3.5 8.7 11.4 21 8.8-1.8 2.6-11.4-0.9-3.5 5.2 6.1 3.5 7-2.6 11.3-1.8-6.1 3.5-6.1 8.8-13.1 11.4-11.3-5.2-4.3-1.7-15.7-5.2 1.7 3.5 5.2 6.9 7.9 8.7-9.7-3.5-7.9 3.5-9.7 5.2 7 6.1 10.5 6.1 13.2 5.3 3.4-2.6 5.2-4.4 9.6 0 6.9-0.9-8.8-7 0-5.3 9.6 5.3 3.5-3.5 14.8 0.9l-1.7 0.9c1.7 6.1 5.2 3.5 9.6 6.1 5.2 0 1.7-22.7 18.3-11.4-0.9 0.9-1.7 0.9-1.7 1.8q-15.8 17.5-31.5 34.1c16.6 10.4 35 25.3 51.6 41.9 0.8 12.2-15.8-2.6-15.8 1.7l-7.8-7.8c1.7-3.5 18.3 11.3 13.1 0-15.7-7.9-21-17.5-37.6-18.4 0 6.1 5.3 7.9 10.5 11.4 6.1 2.6 11.4 6.1 14.9 13.1-3.5-3.5-7-5.3-10.5-6.1 7.8 7 16.6 14.8 25.3 22.7h3.5c-4.4-3.5-7.9-7-9.6-8.8 8.7 5.3 15.7 5.3 18.3 0l-0.8-1.7 3.5 1.7zm-610.7-190.6q0.1 0.1 0.1 0.2 0-0.1-0.1-0.2zm706.8 272.7h0.8q-0.4 0.2-0.8 0zm63.1 40.9q-0.2-0.4-0.3-0.7 0.2 0.4 0.3 0.7zm-761-351.7c-0.9-0.9-1.8 0-1.8 0 23.6 11.4 41.1 23.6 49.8 34.1 0-5.3-7-18.4-10.5-25.4h7v6.1l9.6 2.7c0-5.3-6.1-10.5-7.8-16.6-1.8 1.7-14.9-5.3-20.1-5.3 2.6 2.7 4.4 6.1 6.1 9.6-3.5-5.2-13.1-13.9-17.5-16.6-1.7 0.9 3.5 14 8.8 10.5-1.8 4.4-10.5-6.1-7 4.4-9.6-4.4-18.4-21-21.9-27.1l3.5-7c-3.5-9.6-7.8 1.8-11.3-9.6 7.8 9.6 1.7-7.8 7.8 0 0-4.3 4.4-5.2-0.8-12.2-5.3 0-6.2-3.5-6.2-7-0.8-3.5-0.8-7-5.2-7.9-1.7-6.1 6.1 0.9 0.9-7.8-9.6-7.9-10.5-4.4-14.9 0 5.3 9.6 12.3 4.3 15.8 13.1l-15.8-7.9c0 2.5 0.9 5.2 1.7 6-1.8-1.6-4.3-2.5-6-2.5-1.8-0.9-3.5-0.9-4.4-1.7 5.2 8.7 9.6 16.6 9.6 20.1l-3.5 0.8c1.8 6.1 6.1 9.6 7.9 10.5 6.1 7.9 13.9 11.4 13.1 17.5l-3.5-1.8c7 9.6 7.8 9.6 16.6 21zm-29.8-63.9q0.1 0.1 0.1 0.1 0 0-0.1-0.1zm40.1-16.6c-0.8-0.8-0.8-0.8-0.8-2.4q0.7 1.4 1.3 3c-0.2-0.3-0.5-0.6-0.5-0.6zm-0.8-2.4q-0.1-0.1-0.1-0.2 0 0 0.1 0 0 0.1 0 0.2zm1076.2 575.4q-1.7 0.9-1.7 1.8 0.9-0.9 1.7-1.8zm-63.7 28.9q-1.8 0-2.7-0.9zm-143.2-3.5c-5.3-0.9-1.8 3.5-1.8 6.1-16.6-11.4-12.2-0.9-26.2-4.4 2.6 1.8 7.9 7 16.6 10.5 6.1 2.6 14 5.3 17.5 2.6l-5.3-4.3 7.9-3.5c2.6 1.7 0.9 3.5 0.9 5.2 1.7-3.5 6.1-3.5 13.1-1.7l4.3 2.6 4.4 1.7 2.6 1.8h1.8l1.7 0.9c1.8 0.8 2.6 0.8 5.3 2.6-10.5 3.5 7.8 12.2-4.4 12.2l-4.4-0.9-3.5-1.7-7.8-1.8c-5.3-2.6-9.6-3.5-14.9-6.1-9.6-3.5-19.2-7-29.7-11.3q0 2.6-2.6 0h1.7c-6.1-1.8-12.2-5.3-17.4-7.9-10.5-11.3 0.9-7.9-14-18.3-0.9 3.5 1.7 4.3 2.6 10.4-4.3-2.6-7.8-4.3-11.3-6.1l0.8-1.7-10.4-2.6c-0.9-5.3 5.2-4.4 9.6-3.5 4.3 1.7 7.8 1.7 0.8-7 22.8 6.1 40.2 20.1 62.1 26.2zm-224.6-159.9c-4.3 1.8-12.2 0.9-19.2-5.2 7 4.4 11.4 0 19.2 5.2zm-19.2-5.2q-0.8-0.9-1.7-1.7v-0.9q0.9 0.9 1.7 2.6zm-150.2-122.3c0 0 0-1.7 1.7-1.7q-1.7 0-3.5-0.9c0 0.9 0 0.9 1.8 2.6zm-214.9-21.8c10.5-7 5.2-7 10.5-15.7l16.5-6.2-4.3 4.4c8.7 2.6 15.7-4.4 15.7 2.6-4.4 4.4-11.4 2.6-15.7 7l6.1 1.8c-9.6 8.7-5.2-5.3-17.5-0.9 4.4 6.1-0.8 0.9-6.1 4.4 5.3 5.2 21-1.8 17.5 7.8-6.1 5.3-20.1-11.3-28.8-0.9v-0.8c-1.8 0-5.3 0-7.9 0 0 0.8-0.9 0.8-1.8 0.8h-1.7v0.9c0 0-0.9 0-1.8 0-3.4 2.6-6.1 5.3-9.6 6.1-2.9-1.9-7.2-1.7-11.3-1.1v-5.9c7.8 7.9 14-0.8 20.1-5.2-0.9 0-1.8 0-1.8 0q-2.6 0-5.2 0c-2.6 0-6.1 0-9.6 0-5.3 0-11.4 0-12.3 5.2-2.6-1.7-4.3-4.3-6.1-6.9l-2.6 2.6c-3.5-6.1 0.9-11.4 9.6-11.4 1.8 1.8 2.6 1.8 1.8 3.5 4.3-1.7 7.8-6.1 17.4-3.5l-5.2 1.8c3.5 1.7 5.2 1.7 8.7 1.7 1.8 0 2.7 0 4.4-1.7q1.7 0 3.5 0 6.5-1.3 10.5-5.3c0.9 5.3 3.5 11.4 7 14.9zm-49 11.3v-3.2c2.2 0.9 4.7 2 7.4 2.3-2.7 0.4-5.4 0.9-7.4 0.9zm0-3.2q-0.2-0.1-0.5-0.3 0.3 0 0.5 0zm-8.7-0.2c2.4-2.4 5-1.4 8.2 0-2.6 0-5.7 0-8.2 0zm16.1 2.6q0.7-0.2 1.4-0.2v0.2q-0.7 0-1.4 0zm23.2-13.1c0 0-0.9 0-0.9 0.9q0 0-0.8 0.9 0.8 0 0.8 0 0-0.9 0-0.9 0 0 0.9-0.9zm-382.6-359q0 0 0 0.9l-0.9-0.9q0.9 0 0.9 0zm-33.2-39.3q-0.9 0-1.8-0.9zm175.1 112.3c0.2 0.3 0.4 0.8 0.4 1.2q-0.2-0.6-0.4-1.2zm271.4 237.1c-3.5-5.2-5.3-11.3-11.4-15.7-3.5-0.9-6.1-3.5-11.4-4.4-3.5 0-8.7-1.7-15.7 0l2.6-1.7c-7-4.4-13.1-1.8-19.2-0.9-7 2.6-14.8 2.6-21.8-3.5 7.8-3.5 7.8-1.7 16.6-11.3-3.5 0-5.3 0.8-8.8 0.8 3.5-5.2-4.3-4.3-11.3-5.2l7-7c3.5 3.5 12.2 6.1 11.3 3.5 0 0 1.8 3.5 5.3 7 4.3 1.7 10.4 4.4 13.9 4.4 0-5.3-15.7-5.3-9.6-14-5.2 2.6-6.1-3.5-12.2-1.8 6.1-2.6 2.6-7 7-10.4-3.5 0-7 0-11.4 0 0-0.9 4.4-0.9 7-2.7 3.5-0.8 5.3-3.5 0.9-7.8-4.4 2.6-14.9-3.5-15.7 2.6v-2.6c-7-3.5-4.4 7.8-14 2.6 0 1.7 0.9 4.4 4.4 5.2 3.5-0.8 5.2-4.3 10.4-4.3 2.7 6.1-6.9-1.8-3.4 7 0.8 4.3 15.7 0 10.4 7.8l-7.8-1.7c0 5.2-6.1 2.6-7 7.8-6.1 0.9-8.8-7-14.9-3.5-2.6 3.5 0 11.4-7.8 5.3-2.6-5.3-9.6-8.8-14.9-12.3q-10.5-5.2-17.5-6.9l-6.1 0.8c0 3.5 12.3 6.1 6.1 8.8-3.4-1.8-6.1-2.7-8.7-3.5l0.9-2.6c-1.8 0-3.5-0.9-5.3-0.9h-4.3c0.9-1.8 4.3-1.8 6.1 0q3.5 0 3.5-3.5c-1.8-2.6-3.5-3.5-3.5-4.4l-0.9-1.7-0.9-0.9c-1.7 0-1.7 0-2.6-0.9 0.9 0 0.9 0 0.9-1.7-1.7-3.5-5.2-1.8-6.1-0.9-2.6 0.9-3.5 3.5-6.1 3.5-4.4 0.9-3.5 3.5-0.9 7.9 3.5 3.5 7 6.9 5.2 10.4-9.6-4.3-18.3-10.4-27-15.7 2.6 0 6.1 0 6.1-3.5-6.1-7 0.8-3.5-7-10.5-2.6 7-13.1-4.3-21-6.9-0.9-4.4-1.7-5.3 5.3-0.9 0.8-4.4-8.8-10.5-10.5-14-2.6 0-6.1-2.6-7.9-3.5 0.9 4.4-1.7 7-7 3.5l-0.9 0.9c7.9 9.6 19.3 27.9 26.3 27.9l-2.7 0.9c4.4 6.1 11.4 8.7 16.6 11.4 6.1 2.6 10.5 4.3 10.5 11.3-0.9 3.5 2.6 2.6 0 7.9 3.5 0 7 1.7 10.5 1.7l-3.5 0.9c3.5 0.9 6.1 2.6 7.9 4.4 0.8 0 2.6 0.8 3.5 0.8l4.3 2.7c7.9-0.9 14-2.7 18.4-4.4 0.8-2.6 0.8-3.5 3.5-3.5 2.6-0.9 4.3 0 6.1 0.9 2.6 2.6 4.4 7 8.7 9.6-4.3-1.8-8.7-2.6-14-5.3-1.7 3.5-1.7 9.6 5.3 14.9-3.5-0.9-5.3 1.7-2.6 3.5 0.8-0.9 10.4 1.7 7.8-3.5 6.1 1.7 14 7 23.6 12.2 8.7 3.5 18.4 7 28 5.3-10.5 2.6 12.2 8.7-2.7 6.9 4.4 4.4 7.9 3.5 10.5 0.9 1.8-0.9 5.3-4.3 11.4-3.5 0.9 3.5-7-0.8-9.6 3.5 9.6 3.5 18.3 1.8 26.2-0.9l7-2.6c0.8 0 3.5-0.8 6.1-0.8 4.4-0.9 7.9-2.7 12.2-0.9l0.9 5.2zm293.5 66.4q-0.9 0-1.7-0.9 0.8 0 1.7 0.9zm-256.8-73.4l10.5-1.7h-0.9l9.6-6.1c-7-0.9-9.6-7.9-0.9-9.6-0.8 1.7 0.9 4.3-0.8 5.2 5.2 3.5 19.2 7 15.7-0.9-12.2 7.9-3.5-11.3-12.2-4.3 4.3-6.2 9.6-3.5 13.9-6.2-5.2 4.4 1.8 10.5 8.8 12.3 3.5-0.9 11.3 0 16.6-1.8-0.9-4.3 3.5-7.8-5.3-9.6 3.5-0.9 7.9-1.7 13.1 1.8-1.7 0-5.2 0.8-5.2 1.7 3.5 6.1 7.8 6.1 9.6 7.9l5.2-0.9-1.7-0.9 7-4.3c-7 1.7-4.4-1.8-3.5-5.3 0 4.4 5.2 0 7.8 1.8l-5.2-8.8c3.5-1.7 10.5 7 8.7 0-13.1-4.3-18.3-2.6-29.7-1.7l5.3 4.4c-14 3.4-7.9-7.9-22.7-8.8-7 4.4-21 0.9-22.7 8.8-1.8-3.5-10.5-6.2-14-2.7-6.1 8.8-22.7 9.6-17.5 13.1 5.2 0 10.5-4.3 14 0.9l-8.8 2.6 6.2 3.5c-3.5-1.7-3.5 3.5-0.9 9.6zm-109.2 3.5q0-0.8 1.7-0.8-0.8 0-1.7 0.8zm-239.4-217.5q0.9 0.9 1.8 1.8-0.9 0-1.8-1.8zm-35.8-48.9c0 5.3 0 11.4 12.2 20.1q0 3.5 3.5 7c0-4.4 0.9-10.5-0.8-15.7-10.5-3.5-10.5-20.1-17.5-31.5l-5.3-3.5c0 2.7 0 3.5 0 5.3 8.8 7.8 7.9 12.2 7.9 18.3zm556.5 256.8c-4.4 4.4-14.9 0.9-15.7 7.9-0.9 0.9 0 1.7 1.7 3.5 3.5 1.7 6.1 3.5 8.7 4.3 0.9-0.8 0.9-0.8 1.8-2.6-1.8-1.7-3.5-4.3-1.8-7.8 5.3 13.1 8.8-3.5 15.8 2.6 4.3-3.5-7.9-9.6-10.5-7.9zm41 39.3l-3.5 3.5 4.4 3.5c0-1.7 0-4.4-0.9-7zm11.4 14.9c0 0 0 0-0.9 0l4.4 3.5q0-1.8-3.5-3.5zm-127.5-63.8c-7.9-1.7-5.3 1.8-7.9 3.5q5.2 0 7.9 0-1.8-1.7 0-3.5zm6.9 25.3c12.3 3.5 23.6 8.8 35 14-8.7-10.5-16.6-20.1-19.2-24.4 0-1.8 0.8-3.5 4.3-4.4 3.5 0 9.6 0.9 18.4 4.4l2.6-0.9c-4.4-2.6-13.1-6.1-21-7-3.5 2.6-9.6 6.1-16.6 10.5-7 3.5-11.3 7.8-11.3 8.7 0.9 5.3 5.2 0 8.7 2.6zm753.1 326.7c0.8-1.7 0.8-2.6 0.8-2.6-0.8 0.9 0 0.9-0.8 2.6zm-1362-724.1c0.9-4.4 6.1 0 8.8 0.9 0 7-6.2-4.4-8.8-0.9zm7.9-3.5c-1.8-1.7-4.4-3.5-7-4.4 2.6 0.9 2.6 0 3.5-0.8zm-7-41.1c3.5 1.8 5.2 1.8 9.6 1.8-1.7 3.5-6.1 1.7-9.6-1.8zm-4.4-2.6q1.8 0 2.7 0.9 0.8 0.8 1.7 1.7-1.7-0.9-4.4-2.6zm0 0c-4.3-3.5-7.8-7-9.6-10.5 5.3 2.6 8.8 2.6 13.1 2.6 3.5 0 7.9 0.9 14 4.4-3.5 3.5-7 0.9-10.5 0-3.5-0.9-5.2-2.6-7 3.5zm24.5-3.5c-2.6-0.9-5.2-0.9-7-2.6v-0.9c1.8 0.9 4.4 2.6 7 2.6zm58.5 206.2c-0.9-0.9-5.2-2.7-4.3-5.3 2.6 0.9 3.4 3.5 4.3 5.3zm1166.3 649q-1.8 0-3.5 0c-9.6 0-17.5-0.9-25.4-2.7zm13.1 0.9q0.9-0.9 1.8-0.9c4.4 0 7.9 0 11.4 0-4.4 0-8.8 0.9-13.2 0.9zm-10.4 0q5.2 0 10.4 0-5.2 0.9-10.4 0zm-1043.1-497c-4.4-10.5-8.7-11.4-14.9-14.8-5.2-2.7-12.2-6.2-16.6-17.5 11.4 11.3 18.4 12.2 30.6 20.9zm-18.3-1.7c7 7.9 4.3 0 12.2 6.1 0 5.3-9.6-3.5-12.2 3.5zm10.5-132.8l1.7 2.7-3.5-1.8zm48.1 195.7l-5.3-7.9h1.8zm-45.5-207h3.5c0.9 2.6 2.7 4.4 3.5 6.1-2.6-2.6-4.3-3.5-7-6.1zm21.9 76l4.3 1.7c0 6.2-2.6-0.8-4.3-1.7zm58.5 155.5c1.8 0 4.4 0.8 7.9 1.7v1.8c-2.7-1.8-6.1-2.7-7.9-2.7zm-14-138c0-2.6 0-5.2 4.4-0.8 4.4 7.8-3.5-2.7-4.4 0.8zm44.6 78.6c0.9 0 1.7 0 3.5 0.9q1.7 1.8 3.5 3.5c-2.7-0.9-5.3 0-7-4.4zm30.6 17.5c0-1.7 0-3.5 2.6-2.6 3.5-0.9 4.3-0.9 0.9 0l2.6 2.6c0.8 1.8-2.6 0.9-6.1 0zm-2.7 0.9c1.8-0.9 1.8-0.9 2.7-0.9zm110 108.3h-8.7v-0.8h0.9c0-1.8 1.7-2.7 2.6-3.5 0.9-1.8 3.5-3.5 7-2.7 0 3.5 1.7 4.4 12.2 7-7 0.9-10.5 0.9-14 0zm-13.1 0.9q-2.6 0-2.6 0l4.4-0.9c-0.9 0.9-0.9 0.9-1.8 0.9zm-109.2-171.2h0.9c-0.9 0-0.9 0-0.9 0.9q-2.6 0-2.6 0c0.9 0 0.9-0.9 2.6-0.9zm0.9-0.9l0.9-1.7 2.6 1.7-3.5 0.9zm143.3 171.2c0.8 2.6 3.5 0.9 6.1 0.9 0.9 1.7-7 3.5-6.1-0.9zm-38.5-80.4c2.7 0 7 0 7.9 1.8-2.6 5.2-6.1-0.9-7.9-1.8zm-0.8-0.8q0 0 0.8 0.8-0.8 0-0.8-0.8zm68.1 58.5c-1.7 3.5 1.7 7 3.5 7-9.6 3.5-6.1-4.4-3.5-7zm-50.7-53.3l6.1-3.5 2.7 0.9zm-13.1-58.5c1.7 1.7 1.7 2.6 2.6 3.5h0.9c0 1.7 0.8 1.7 0.8 1.7 1.8 0 1.8 0 2.7 0.9-0.9-0.9-2.7 0-3.5 0l-0.9 0.9c0 0.8 0.9 2.6 0.9 3.4 0 0.9 0 2.7 0 2.7-0.9 0-0.9 0-1.8 0-1.7 0-2.6 0-3.5-1.8q3.5-1.7 3.5-3.5c0-0.8-1.7-2.6-1.7-4.3-1.8-1.8-4.4-5.3-0.9-7.9-0.9 0.9 0 2.6 0.9 4.4zm41 0c2.6-3.5 9.6-5.3 15.7-4.4 1.8 7.9-16.6 7.9-23.5 12.2l10.4-7.8zm119.7 140.6l-6.1-0.9 4.4-2.6c2.6-1.7-0.9 2.6 1.7 3.5zm-83.8-100.5c3.5-2.6 6.1-2.6 9.6-0.8 0.8 3.5-7.9 1.7-9.6 0.8zm110.9 93.5l-7-0.9h7zm33.2 21.9l0.9 0.8h-6.1l-0.9-0.8zm-34.1-152c7 2.6 7.9-3.5 8.8 3.5-2.7-0.9-6.2-2.6-9.7-2.6-1.7-1.8 3.5-7.9 8.8-5.3-1.8 0.9-4.4 3.5-7.9 4.4zm249 301.3l22.7 8.8q0 0 0 0-0.1 0-0.1 0c-1.6 0.8-2.5 2.6-2.5 3.5 4.4 5.2 7.8-0.9 13.1 7l-11.4-0.9c10.5 7 13.1 10.5 14.9 12.2 2.6 2.6 6.1 3.5 14.8 7.9h-0.8c3.5 2.6 7.8 6.1 12.2 8.7 4.4 2.6 8.7 5.2 12.2 5.2l-1.7 4.4c10.5-4.4 5.2 6.1 16.6 11.4 7 5.2 2.6 5.2 0 8.7 11.3 11.4 18.3-2.6 29.7 8.7-0.9 3.5 2.6 8.8 0 11.4-1.8-3.5-7.9-7-11.4-7-4.3 4.4 14 9.6 3.5 11.4 4.4 5.2 7.9 9.6 14 13.1-18.4-10.5-34.1-21.9-51.6-33.2l-12.2-9.6-6.1-4.4-5.2-4.4c-9.6-7-15.8-13.9-24.5-19.2l-0.9 0.9c-0.8-0.9-0.8-2.6-0.8-3.5-7.9-6.1-14.9-12.2-21.9-18.4 0 3.5-8.7-4.3-12.2-5.2 4.4 0.9 5.2 0.9 5.2-1.7l-1.7-0.9-6.1-4.4c-7-1.7-20.1-22.7-20.1-10.5-3.5-4.3-6.1-12.2-13.1-15.7 0-2.6 0-5.2 0-5.2h1.7c0 0 0.9 0 0.9 1.7 4.4 0 7.8 0 4.4-6.1 6.9 6.1 15.7 17.5 18.3 11.4-0.9-3.5-2.6-7-4.4-11.4 9.6 10.5 15.8 7.9 24.5 17.5-5.2-0.9-24.5-11.4-17.5 1.7l11.4-0.9c1.7 4.4-3.5 2.7-6.1 2.7-0.9 3.5 7.8 13.1 11.3 11.3 0-2.6-7-7.8 0.9-7zm89.8 67.5l-0.7-0.2q0.4 0 0.7 0.2zm1.9 0.7q-0.9 0-1.7 0 0-0.5-0.2-0.7zm-69.1-59.4q0.1 0 0.1 0 0.9 0.1 2.6 1.8zm103.1 105.7l7 4.4c-2.6-0.9-5.2-2.6-7-4.4zm-175.6-146.7c0 2.3-2.1 3.2-3.1 4.7l-0.4-0.4q0 0.5 0 0.9l-12.2-11.4c0.9-1.7 7.9 2.7 5.2-2.6zm-3.4 5.3q0.1-0.3 0.3-0.6l6.6 6.7c-0.8 0-3.5 0-4.3 0.9-2.3-3.1-2.6-4.9-2.6-7zm55-94.4l-3.5-0.8-3.5-2.7zm15.7 29.7c2.6 0 9.6 3.5 10.5 7.9-7-4.4-3.5-3.5-10.5-7.9zm178.2 217.5l-2.6-1.7c0.9 0 1.8 0 2.6 1.7zm145.9 38.5l1.8-0.9c0 0 0 0.9-1.8 0.9zm-8.7 0c1.7 3.5 7.9 0.8 8.7 0l-0.8 6.1-15.8-2.6 11.4-7zm-18.4-7c2.7 0 11.4-0.9 11.4 3.5-6.1 6.1-0.9-3.5-8.7-1.8 4.3 4.4 4.3 9.6-5.3 11.4zm-64.6-7l5.4 0.8-0.2 0.1 0.6 0.2-2.3 2.4zm5.4 0.8l5.1-3.4c0.8 2.6 0.8 3.5 0.8 6.1l9.6 3.5v7c-7.8 0-7.8-6.1-9.6-10.5l-5.5-2.4 0.3-0.2zm26.9 9.7l1.8 0.9q-0.9 0-1.8-0.9zm-6.1-1.8l-5.2-1.7v-1.8c0.8 1.8 3.5 2.7 5.2 3.5zm-201.8-238.4l7 2.6v0.9l-6.1-1.8zm30.5 28c1.8 0 2.7 1.7 2.7 1.7h-3.5c0-1.7 0.8-1.7 0.8-1.7zm47.2-4.4c-3.5 10.5-3.5 21.8-10.5 25.3-12.2 0.9-26.2-15.7-34-19.2 6.1-1.7 7.8-5.2 14.8-3.5 0.9-6.1 0.9-2.6 7-3.5 1.8 5.3-2.6 0.9-4.4 4.4 4.4 6.1 12.3 4.4 12.3 0-10.5-10.5 4.3-0.9 0-8.7 1.7-7 14.8 2.6 14.8 5.2zm-26.2-26.2c0.9 0.9 1.8 0.9 5.3 3.5-3.5-0.9-6.2 0-5.3-3.5zm46.3 115.3l9.6 2.6c0 3.5-6.1 1.8-7 3.5 0-2.6 0-5.2-2.6-6.1zm0 0l-4.4-0.9c2.7 0 3.5 0 4.4 0.9zm133.7 133.6c-1.8 0.9-6.1 2.7-6.1-0.8 2.6 0 4.3 0.8 6.1 0.8zm166-4.3l-3.5-1.8c0.8 0 2.6 0 3.5 1.8zm66.4-98.7l-5.3 3.5v-0.9c-1.6 3.1-9.5 1.3-12.4 2.8 4-2.9 12.7-3.8 17.7-5.4zm-503.2-185.2l7 3.5-1.8-0.8zm485.5 190.6q-0.4 0.3-0.7 0.7 0.3-0.4 0.7-0.7zm-508.3-153l0.9-0.8q-0.9 0.8-0.9 0.8zm479.6 161.6q0.9 0 1.8 0-0.9 0-1.8 0zm-878.8-264.6q0 0 0-0.9 0 0.9 0 0.9zm-295.3-265.6q-0.8 0-0.8-0.9 0 0.9 0.8 0.9zm290.9 161.6q0 0 0.9 0-0.9 0-0.9 0zm68.2-14.8q-0.9 0-2.6 0.8 1.7-0.8 2.6-0.8zm726.8 403.5q-0.9 0-0.9 0.9 0-0.9 0.9-0.9zm-691-364.2q0 0 0-0.9 0 0.9 0 0.9zm-58.5-4.4q0 0.9 0 0.9 0-0.9 0-0.9zm-87.4-9.6q0 0.9 0 1.7v-0.8q0-0.9 0-0.9zm-128.4 9.6q-0.9 0-0.9 0zm-112.7-201.8q0 0.9 0 0.9 0 0 0-0.9zm21 83.9q0.9 1.7 0.9 2.6 0-0.9-0.9-2.6zm3.5-5.3q0 0 0 0.9zm44.5 19.2q0-0.8 0-0.8 0 0 0 0.8zm775.8 476.2q-0.9 0-0.9 0 0 0 0.9 0zm111.8 59.4c-1.8-0.9-3.5-0.9-5.3-1.8zm-557.3-415.8h0.8zm-51.5-16.6c-1.7 0.9-2.6 0.9-2.6 1.8 0-0.9 0.9-0.9 2.6-1.8zm303.1 245.5q-1.7-1.8-2.6-3.5 0.9 1.7 2.6 3.5z"/>
			</g>
		</g>
	</g>
</svg>