<svg version="1.2" baseProfile="tiny-ps" xmlns="http://www.w3.org/2000/svg" viewBox="0 0 1410 1599" width="1410" height="1599">
	<title>nLIGHT_Logo_FullColor_RGB_Digital-svg</title>
	<style>
		tspan { white-space:pre }
		.shp0 { fill: #140b4e } 
		.shp1 { fill: #fffffe } 
	</style>
	<g id="#140b4eff">
		<path id="Layer" fill-rule="evenodd" class="shp0" d="M0 0L5846.34 0L5846.34 1599L0 1599L0 0ZM3069.91 524.51C3015.46 551.54 2969.47 595.76 2941.8 650.05C2909.41 713.62 2900.6 787.41 2909.06 857.73C2917.17 924.22 2944.8 990.01 2994.22 1036.31C3036.16 1077.06 3092.44 1100.11 3149.54 1109.59C3245.69 1125.54 3344.85 1112.08 3436.91 1081.82C3437.03 972.97 3436.79 864.12 3436.99 755.27C3362.04 755.2 3287.09 755.04 3212.14 755.35C3212.45 791.78 3212.56 828.2 3212.06 864.63C3243.2 864.9 3274.34 864.43 3305.52 864.79C3304.04 908.11 3305.79 951.48 3304.82 994.81C3281.24 1002.81 3255.98 1003.43 3231.35 1003.16C3179.71 1002.14 3127.09 981.24 3093.92 940.6C3053.93 892.09 3043.72 825.24 3051.44 764.32C3057.05 715.53 3080.44 667.56 3120.78 638.35C3159.05 610.19 3207.65 599.82 3254.5 600.99C3300.18 601.15 3346.84 607.58 3388.42 627.39C3398.28 589.84 3407.6 552.12 3417.26 514.53C3374.16 495.53 3326.92 488.44 3280.23 485.63C3208.51 481.77 3134.5 491.67 3069.91 524.51ZM1429.7 490.7C1429.74 696.97 1430.33 903.28 1429.43 1109.59C1554.85 1110.6 1680.28 1109.9 1805.74 1109.94C1805.35 1070.82 1805.66 1031.71 1805.51 992.63C1725.68 992.51 1645.86 992.55 1566.04 992.63C1566.16 825.36 1566.08 658.12 1566.08 490.89C1520.59 490.7 1475.15 491.01 1429.7 490.7ZM2287.21 490.7C2287.28 696.93 2287.79 903.2 2286.97 1109.43C2332.5 1110.8 2378.1 1109.78 2423.66 1109.98C2423 903.4 2424.28 696.81 2423.04 490.27C2377.79 491.48 2332.5 490.66 2287.21 490.7ZM3953.18 490.81C3953.3 697.24 3953.18 903.71 3953.26 1110.17C3998.78 1109.78 4044.3 1110.41 4089.87 1109.82C4089.44 1023.87 4089.83 937.91 4089.67 851.92C4164.27 851.6 4238.91 852.07 4313.55 851.72C4313.31 937.79 4313.66 1023.87 4313.39 1109.94C4358.8 1110.21 4404.24 1110.02 4449.69 1110.06C4449.34 903.51 4450.08 697.01 4449.34 490.5C4404.01 491.13 4358.68 490.93 4313.39 490.58C4313.66 570.22 4313.31 649.82 4313.55 729.42C4239.1 730.35 4164.62 729.1 4090.18 730.08C4089.05 650.29 4090.06 570.45 4089.67 490.66C4044.15 491.09 3998.66 490.74 3953.18 490.81ZM4923.28 490.7C4923.59 530.24 4922.19 569.83 4923.94 609.3C4977.77 608.59 5031.67 608.87 5085.5 609.1C5085.19 776.02 5085.69 942.94 5085.23 1109.86C5130.75 1110.33 5176.23 1109.9 5221.76 1110.1C5221.48 942.94 5221.6 775.83 5221.68 608.71C5276.4 609.26 5331.12 608.71 5385.84 608.98C5386.74 569.59 5387.29 530.05 5385.84 490.62C5231.66 491.01 5077.47 490.81 4923.28 490.7ZM531.35 671.81C527.61 683.94 523.48 695.95 519.62 708.08C536.73 709.6 554.08 709.41 570.95 712.49C586.86 718.5 577.42 738.5 574.93 750.4C536.34 869.54 497.06 988.53 456.52 1107.01C497.25 1106.16 537.98 1105.88 578.67 1106.04C588.69 1075.35 600.03 1045.12 608.53 1013.96C632.5 940.72 656.97 867.67 680.94 794.43C690.02 759.52 721.01 735.38 752.77 721.69C775.42 712.22 801.3 713.89 824.61 719.94C842.42 724.97 855.67 741.47 856.84 759.91C859.3 794.16 845.23 826.41 835.21 858.43C808 941.38 779.94 1024.06 753.36 1107.17C815.92 1105.61 878.55 1105.88 941.11 1107.09C945.08 1094.5 948.98 1081.9 953.69 1069.54C940.29 1067.82 926.68 1068.29 913.35 1066.18C906.1 1064.78 897.18 1061.81 895.85 1053.39C895.54 1041.3 899.52 1029.68 902.75 1018.21C928.13 940.09 954.67 862.37 979.61 784.13C989.16 749.97 999.69 712.49 986.59 677.9C974.82 648.06 942.31 633.75 912.5 629.62C879.56 625.79 844.13 626.92 814.51 643.3C778.77 664.33 744.86 688.47 708.77 708.82C717.93 683.59 726.7 658.09 733.87 632.19C732.51 631.29 729.82 629.42 728.45 628.52C663.95 647.56 599.17 669.16 531.35 671.81Z" />
	</g>
	<g id="#fffffeff">
		<path id="Layer" class="shp1" d="M531.35 671.81C599.17 669.16 663.95 647.56 728.45 628.52C729.82 629.42 732.51 631.29 733.87 632.19C726.7 658.09 717.93 683.59 708.77 708.82C744.86 688.47 778.77 664.33 814.51 643.3C844.13 626.92 879.56 625.79 912.5 629.62C942.31 633.75 974.82 648.06 986.59 677.9C999.69 712.49 989.16 749.97 979.61 784.13C954.67 862.37 928.13 940.09 902.75 1018.21C899.52 1029.68 895.54 1041.3 895.85 1053.39C897.18 1061.81 906.1 1064.78 913.35 1066.18C926.68 1068.29 940.29 1067.82 953.69 1069.54C948.98 1081.9 945.08 1094.5 941.11 1107.09C878.55 1105.88 815.92 1105.61 753.36 1107.17C779.94 1024.06 808 941.38 835.21 858.43C845.23 826.41 859.3 794.16 856.84 759.91C855.67 741.47 842.42 724.97 824.61 719.94C801.3 713.89 775.42 712.22 752.77 721.69C721.01 735.38 690.02 759.52 680.94 794.43C656.97 867.67 632.5 940.72 608.53 1013.96C600.03 1045.12 588.69 1075.35 578.67 1106.04C537.98 1105.88 497.25 1106.16 456.52 1107.01C497.06 988.53 536.34 869.54 574.93 750.4C577.42 738.5 586.86 718.5 570.95 712.49C554.08 709.41 536.73 709.6 519.62 708.08C523.48 695.95 527.61 683.94 531.35 671.81Z" />
	</g>
</svg>