<svg version="1.2" xmlns="http://www.w3.org/2000/svg" viewBox="0 0 1210 1544" width="1210" height="1544">
	<title>Lazard_wordmark-svg</title>
	<style>
		.s0 { fill: #222a3b } 
	</style>
	<path id="Layer" class="s0" d="m33.2 1538.3c-19.4 0-28.6-19.1-28.6-19.1l1.9-8.2c0 0 49.7-5.7 65.5-9.3 35.5-6.8 60.6-47.8 68-99.1 9-74.3 9.8-214.2 10.4-384.6l1.4-312c1.1-276.1 2.1-515.4-1.1-572.2-3.3-60.4-17.2-88.8-75.7-101.4-13.9-3.5-60.1-5.4-60.1-5.4l-14.2-10.7 3.9-15.6c0 0 226.4 7.7 235.1 7.7 9 0 217.1-5.8 217.1-5.8l2.8 15.6-14.2 10.7c0 0-37.2 1.3-58.5 4.9-51.6 8.5-65.8 38.8-69.6 100.8-3.9 56.8-4.9 296.1-5.8 572.2l-1.3 315.5c-1.1 260.6 7.6 358.4 37.1 392.6 30.9 35.8 229.4 47.2 432.1 48.3l66.3 0.3c201 1.1 248-32 288.4-84.1 17.5-22.4 35-69.7 38.8-94.3 3.8-17.2 17.5-27.6 17.5-27.6l19.1 0.3c0 0-31.7 197-43.4 240.4-11.7 42-13.7 45.6-57.6 45.3z"/>
</svg>