<svg version="1.2" xmlns="http://www.w3.org/2000/svg" viewBox="0 0 1550 506" width="1550" height="506">
	<title>Laurentian_Bank_of_Canada_logo-svg</title>
	<style>
		.s0 { fill: #fab20b } 
		.s1 { fill: #0b3b6a } 
		.s2 { fill: #1e3b5f } 
		.s3 { fill: #f9ae26 } 
	</style>
	<g id="layer1">
		<g id="g6607">
			<path id="path6237" class="s0" d="m537.7 0h1012.2v505.7h-1012.2z"/>
			<path id="path6249" class="s1" d="m1218.3 224.1q0 0 0 0c0 0 0 0 0 0z"/>
			<path id="path6253" class="s1" d="m1003.9 150.6v24.1h31.1v12.3h-31.1v29.3h31.6v14.7h-53.4v-95.4h53.4v15z"/>
			<path id="path6265" fill-rule="evenodd" class="s1" d="m831.1 135.6v42.8 4.2c0 5.9 0.1 12.7 0.8 17.4 1 6.1 1.8 10.2 5.8 14.6 3.4 3.6 7.4 5.3 12.4 5.3 4.9 0 9-1.7 12.3-5.2 4.1-4.6 4.9-8.6 5.8-14.7 0.8-4.8 0.9-10.4 0.9-15.6v-3.6-45.2h16.1v49 1.5c-0.2 7.4-0.4 14.3-2.1 20.8-1.9 7.4-5.7 13.1-11.6 17.5q0 0 0 0 0 0 0 0c-7.9 6.1-17.6 7.4-24.4 7.4-11.6 0-31.9-3-37.3-23.5-1.4-5.1-2.1-11-2.1-16.8v-55.9zm40.4 88.8q0 0 0 0 0 0 0 0 0 0 0 0 0 0 0 0zm0 0q0 0 0 0z"/>
			<path id="path6269" class="s1" d="m1415.1 135.6h13.6v95.5h-12.6l-53.2-61.5v61.5h-13.6v-95.5h14.4l51.4 60.3z"/>
			<path id="path6273" class="s1" d="m1115.3 135.6h13.5v95.5h-12.5l-53.3-61.5v61.5h-13.5v-95.5h14.3l51.5 60.3z"/>
			<path id="path6277" class="s1" d="m681.7 135.6v80.7h30.7v14.7h-53.4v-95.4z"/>
			<path id="path6279" class="s1" d="m1225.7 135.6h21.8v95.4h-21.8z"/>
			<path id="path6291" fill-rule="evenodd" class="s2" d="m971.3 231.1h-24.4l-0.5-0.8c-0.7-1.3-21-37.2-24.4-43.2h-0.7v44h-22.2v-95.5h37.2c8 0 14.8 2.1 19.6 6.2 4.9 4.1 7.5 10 7.5 16.9 0 12.8-8.2 22.9-21.3 26.2q-0.2 0.1-0.2 0.1l0.2 0.3zm-32.8-57.1c3.4-3 5.2-7.4 5.2-13.2 0-9.8-5.7-15.3-16.1-15.3h-6.4v32.3h6.4c4.2 0 8.1-1.4 10.9-3.8z"/>
			<path id="path6295" class="s1" d="m1213.2 135.6v15h-24.4v80.4h-22v-80.4h-25.3v-15z"/>
			<path id="path6299" fill-rule="evenodd" class="s1" d="m807 231.1h-24.1l-9.8-27.8h-28.9l-10.4 27.8h-13.9l38.2-95.5h11.6zm-37.7-38.6l-9.9-28.1-10.9 28.1z"/>
			<path id="path6303" fill-rule="evenodd" class="s1" d="m1341.7 231.1h-24.1l-9.8-27.8h-28.9l-10.4 27.8h-13.9l38.2-95.5h11.7zm-37.8-38.6l-9.9-28.1-10.9 28.1z"/>
			<path id="path6307" class="s1" d="m1110.5 276.2h13.6v95.5h-12.6l-53.2-61.5v61.5h-13.6v-95.5h14.4l51.4 60.4z"/>
			<path id="path6319" fill-rule="evenodd" class="s1" d="m949.3 343.6c0 9-3.8 16.4-11 21.4-6 4.3-14.3 6.7-23.3 6.7h-35.2v-95.5h38.9c7.8 0 14.1 1.4 18.8 4.1 6.4 3.7 9.6 9.7 9.6 17.9 0 6.8-2.9 12.9-8.3 17.4-2.2 1.9-4.6 3.3-6.8 4.3 9 3.2 17.3 10.6 17.3 23.7zm-46.6-27.4h0.5c5.3 0.1 11.8 0.2 15.6-3.1 3.5-2.9 5.3-7.6 5.3-13-0.1-9-8.4-13.2-13.9-13.2h-7.5zm22.7 28.3c0-11.5-6.3-17.7-18.3-17.7h-4.4v34.1h7.2c7.5 0 15.5-5.7 15.5-16.4z"/>
			<path id="path6323" fill-rule="evenodd" class="s1" d="m1037.1 371.7h-24.2l-9.7-27.8h-28.9l-10.4 27.8h-13.9l38.1-95.5h11.7zm-37.7-38.6l-9.9-28.1-10.9 28.1z"/>
			<path id="path6335" class="s1" d="m1135 276.2h20.3v43c12.1-14.3 34.8-43 34.8-43h15.6c0 0-30 37.4-33.4 42l35.5 53.5h-21.7l-30.8-44.8v44.8h-20.3z"/>
			<path id="path6337" class="s1" d="m0 0h506.1v505.7h-506.1z"/>
			<path id="path6341" class="s3" d="m141.5 107.1l62.4 62.6v67.3h-67.2l-62.5-62.6zm-6.8 130.6l47.5 47.6-47.5 47.7h-88.5v-95.3zm118.2-16.4l47.7 47.4v156.7h-95.5v-156.7zm206.7 16.4v95.3h-88.6l-47.4-47.6 47.4-47.7zm-90.5-0.7h-67.2v-67.3l62.4-62.6 67.3 67.3zm-163.9-156.5h95.5v88.8l-47.7 47.5-47.8-47.5z"/>
		</g>
		<g id="g6645">
			<path id="path6609" class="s0" d="m537.7 0h1012.2v505.7h-1012.2z"/>
			<path id="path6611" class="s1" d="m1218.3 224.1q0 0 0 0c0 0 0 0 0 0z"/>
			<path id="path6613" class="s1" d="m1003.9 150.6v24.1h31.1v12.3h-31.1v29.3h31.6v14.7h-53.4v-95.4h53.4v15z"/>
			<path id="path6615" fill-rule="evenodd" class="s1" d="m831.1 135.6v42.8 4.2c0 5.9 0.1 12.7 0.8 17.4 1 6.1 1.8 10.2 5.8 14.6 3.4 3.6 7.4 5.3 12.4 5.3 4.9 0 9-1.7 12.3-5.2 4.1-4.6 4.9-8.6 5.8-14.7 0.8-4.8 0.9-10.4 0.9-15.6v-3.6-45.2h16.1v49 1.5c-0.2 7.4-0.4 14.3-2.1 20.8-1.9 7.4-5.7 13.1-11.6 17.5q0 0 0 0 0 0 0 0c-7.9 6.1-17.6 7.4-24.4 7.4-11.6 0-31.9-3-37.3-23.5-1.4-5.1-2.1-11-2.1-16.8v-55.9zm40.4 88.8q0 0 0 0 0 0 0 0 0 0 0 0 0 0 0 0zm0 0q0 0 0 0z"/>
			<path id="path6617" class="s1" d="m1415.1 135.6h13.6v95.5h-12.6l-53.2-61.5v61.5h-13.6v-95.5h14.4l51.4 60.3z"/>
			<path id="path6619" class="s1" d="m1115.3 135.6h13.5v95.5h-12.5l-53.3-61.5v61.5h-13.5v-95.5h14.3l51.5 60.3z"/>
			<path id="path6621" class="s1" d="m681.7 135.6v80.7h30.7v14.7h-53.4v-95.4z"/>
			<path id="path6623" class="s1" d="m1225.7 135.6h21.8v95.4h-21.8z"/>
			<path id="path6625" fill-rule="evenodd" class="s2" d="m971.3 231.1h-24.4l-0.5-0.8c-0.7-1.3-21-37.2-24.4-43.2h-0.7v44h-22.2v-95.5h37.2c8 0 14.8 2.1 19.6 6.2 4.9 4.1 7.5 10 7.5 16.9 0 12.8-8.2 22.9-21.3 26.2q-0.2 0.1-0.2 0.1l0.2 0.3zm-32.8-57.1c3.4-3 5.2-7.4 5.2-13.2 0-9.8-5.7-15.3-16.1-15.3h-6.4v32.3h6.4c4.2 0 8.1-1.4 10.9-3.8z"/>
			<path id="path6627" class="s1" d="m1213.2 135.6v15h-24.4v80.4h-22v-80.4h-25.3v-15z"/>
			<path id="path6629" fill-rule="evenodd" class="s1" d="m807 231.1h-24.1l-9.8-27.8h-28.9l-10.4 27.8h-13.9l38.2-95.5h11.6zm-37.7-38.6l-9.9-28.1-10.9 28.1z"/>
			<path id="path6631" fill-rule="evenodd" class="s1" d="m1341.7 231.1h-24.1l-9.8-27.8h-28.9l-10.4 27.8h-13.9l38.2-95.5h11.7zm-37.8-38.6l-9.9-28.1-10.9 28.1z"/>
			<path id="path6633" class="s1" d="m1110.5 276.2h13.6v95.5h-12.6l-53.2-61.5v61.5h-13.6v-95.5h14.4l51.4 60.4z"/>
			<path id="path6635" fill-rule="evenodd" class="s1" d="m949.3 343.6c0 9-3.8 16.4-11 21.4-6 4.3-14.3 6.7-23.3 6.7h-35.2v-95.5h38.9c7.8 0 14.1 1.4 18.8 4.1 6.4 3.7 9.6 9.7 9.6 17.9 0 6.8-2.9 12.9-8.3 17.4-2.2 1.9-4.6 3.3-6.8 4.3 9 3.2 17.3 10.6 17.3 23.7zm-46.6-27.4h0.5c5.3 0.1 11.8 0.2 15.6-3.1 3.5-2.9 5.3-7.6 5.3-13-0.1-9-8.4-13.2-13.9-13.2h-7.5zm22.7 28.3c0-11.5-6.3-17.7-18.3-17.7h-4.4v34.1h7.2c7.5 0 15.5-5.7 15.5-16.4z"/>
			<path id="path6637" fill-rule="evenodd" class="s1" d="m1037.1 371.7h-24.2l-9.7-27.8h-28.9l-10.4 27.8h-13.9l38.1-95.5h11.7zm-37.7-38.6l-9.9-28.1-10.9 28.1z"/>
			<path id="path6639" class="s1" d="m1135 276.2h20.3v43c12.1-14.3 34.8-43 34.8-43h15.6c0 0-30 37.4-33.4 42l35.5 53.5h-21.7l-30.8-44.8v44.8h-20.3z"/>
			<path id="path6641" class="s1" d="m0 0h506.1v505.7h-506.1z"/>
			<path id="path6643" class="s3" d="m141.5 107.1l62.4 62.6v67.3h-67.2l-62.5-62.6zm-6.8 130.6l47.5 47.6-47.5 47.7h-88.5v-95.3zm118.2-16.4l47.7 47.4v156.7h-95.5v-156.7zm206.7 16.4v95.3h-88.6l-47.4-47.6 47.4-47.7zm-90.5-0.7h-67.2v-67.3l62.4-62.6 67.3 67.3zm-163.9-156.5h95.5v88.8l-47.7 47.5-47.8-47.5z"/>
		</g>
	</g>
</svg>