<svg version="1.2" xmlns="http://www.w3.org/2000/svg" viewBox="0 0 1583 252" width="1583" height="252">
	<title>1617716016-LLBLogo-svg</title>
	<style>
		.s0 { fill: #008c99 } 
	</style>
	<g id="Layer">
		<g id="Layer">
			<path id="Layer" class="s0" d="m73.3 238c19.6 9 42.5 12.3 65.4 9.5 36.9-4.5 68.3-25.2 87.3-53.7-28 19-65.5 34.1-98.5 40.8-19.5 4.5-38 5.1-54.2 3.4zm103.5-198.2c-0.6 10.6-8.4 24.6-10.7 28.5-14 25.8-36.9 61.1-69.9 118.2-5 8.4-3.9 15.7 2.8 20.7 7.8 5.6 22.9 10.1 40.3 7.8 75.5-10.6 95.6-38 101.2-49.2 5.6-16.8 7.9-35.9 5.6-54.4-6.1-48.7-40.3-87.3-84.4-101.3 3.3 1.7 16.2 11.2 15.1 29.7zm-49.3-35.9c-6.1 0-12.8 0-19 1.1-67.7 7.9-115.8 68.9-107.4 136.1 1.1 6.7 2.3 13.5 4.5 20.2 50.3-49.9 157.7-145.6 121.9-157.4z"/>
			<path id="Layer" fill-rule="evenodd" class="s0" d="m272.4 161.8c0.6 0 6.7-2.2 8.4-3.9 1.1-1.1 2.2-2.8 2.2-4.5v-98c0-1.6-1.1-2.8-2.2-4.4-1.7-1.7-8.4-4-8.4-4h45.3c0 0-4.5 1.7-6.7 3.4-1.7 1.7-3.3 2.8-3.3 5v97.5h66c5.5 0 8.9-1.1 13.4-2.8 4.5-1.7 6.7-3.4 9.5-6.2l-3.9 17.9m15.6-70.5c10.7-7.3 22.4-9.5 38.1-9.5 26.8 0 44.2 7.8 44.2 20.7v49.8c0 1.7 1.1 2.8 3.3 3.9 2.3 1.2 3.9 1.7 6.2 1.7l-20.2 5.6-8.4-4.5-1.1-6.1c-0.5 0.5-20.1 11.2-40.2 11.2-19.1 0-33.1-11.2-33.1-22.4 0.6-15.1 24.7-21.9 48.2-25.2 17.3-2.8 24.6-5.6 24.6-5.6v-11.2c0-7.3-12.3-11.2-24.1-10.7-27.3 0-41.3 21.3-42.4 23.9zm-5 21.6l-0.1 0.2q0 0 0.1-0.2zm36.8 42.2c12.9 0 29.7-7.3 30.2-7.3v-29.7c-0.5 0-11.7 2.8-19 4-16.2 2.8-31.3 7.8-31.9 18.4-1.1 8.4 8.4 14.6 20.7 14.6zm102.4 6.7h-44.2c3.4-0.5 6.7-1.7 7.8-3.3 1.2-1.2 1.2-2.3 1.2-4v-99.1c0-2.2-1.2-3.3-3.4-5-2.8-1.1-8.9-2.3-10.1-2.3l36.4-5.6v76.8l45.9-26.9c2.2-1.1 5-2.8 4.4-5.1-0.5-2.2-6.1-3.9-6.7-3.9h39.2c-5 1.1-7.8 2.3-12.9 3.9-5 2.3-7.8 3.4-11.7 6.2l-38.6 23 42.5 34.1c3.9 3.4 6.7 5.1 11.7 7.9 3.4 1.1 9 2.2 12.3 3.3h-45.3c0 0 5.6-1.1 6.2-2.8 0.5-1.1-1.1-2.2-2.2-3.3l-45.9-34.8v30.8c0 2.3 0 4.5 1.7 5.6 3.3 2.3 8.4 3.4 11.7 4.5zm159.4-24.6c0 0-4.4 25.2-50.9 25.7-31.3 0-56.5-17.9-56.5-40.8-0.5-22.4 24.6-41.5 58.8-40.9 44.2 0.5 49.7 28 49.7 34.7h-85.5c-5.6 11.8 9.5 36.4 41.4 37 27.9 1.1 43-15.7 43-15.7zm-22.3-28.6c1.6-7.3-10.1-22.4-27.5-22.4-25.7 0-35.2 17.9-34.1 22.4zm52 45.4c0 1.7 0 2.8 1.2 4.5 1.6 1.6 6.7 2.8 10.6 3.3h-40.8c2.8-0.5 6.7-1.1 7.8-2.8 1.1-1.1 0.5-2.2 0.5-3.9v-100.2c0-2.3-1.1-3.4-3.3-4.5-2.8-1.7-9-2.3-9.5-2.3l33.5-5zm22.4-62.7c10.6-7.3 22.4-9.5 38.1-9.5 26.8 0 44.1 7.8 44.1 20.7v49.8c0 1.7 1.2 2.8 3.4 3.9 2.2 1.2 3.9 1.7 6.2 1.7l-20.2 5.6-8.4-4.5-1.1-6.1c-0.6 0.5-20.1 11.2-40.3 11.2-19 0-33-11.2-33-22.4 0.6-15.1 24.6-21.9 48.1-25.2 17.4-2.8 24.6-5.6 24.6-5.6v-11.2c0-7.3-12.3-11.2-24-10.7-28.7 0-41.6 23.5-42 24.6zm-4.4 22.4q0 0 0 0zm35.8 41.5c12.8 0 29.6-7.3 30.2-7.3v-29.7c-0.6 0-11.8 2.8-19 3.9-16.3 2.8-31.4 7.9-31.9 18.5-0.6 8.4 8.9 14.6 20.7 14.6zm97.9 6.7h-34.2c0 0 4-1.7 5.1-2.8 1.1-1.7 1.1-2.2 1.1-3.4v-63.8c0-1.7-1.1-2.8-2.8-3.9-2.2-1.7-8.4-2.3-9.5-2.3l32.4-4.4-0.5 11.7c8.4-5 22.9-11.7 41.9-11.7 25.2 0.5 37.5 11.7 37.5 25.2v48.1c0 1.7 0 2.8 1.1 4.5 1.1 1.1 5.6 2.2 7.3 2.8h-38c1.6-0.6 7.8-1.1 8.9-2.2 1.1-1.2 0.6-3.4 0.6-4.5v-48.7c0-9-10.1-17.4-26.9-16.8-8.9 0-20.1 2.8-32.4 9.5v55.4c0 1.7 0.5 2.8 1.6 4.5 1.7 1.1 6.2 1.7 6.8 2.8zm196.9-3.9l-32.5 6.1v-9.5c-11.2 6.7-21.2 9.5-36.9 9.5-33 0-51.5-21.2-50.9-42 0.6-19.6 24.6-41.4 59.8-40.8 11.2 0 17.9 1.6 28 5.6v-29.2c0-2.2-1.1-3.9-3.3-5.6-2.8-2.2-11.2-2.8-11.2-2.8l35.2-5.6v106.4c-1.1 2.3 0 4 1.7 5.6 1.7 1.7 6.7 2.3 10.1 2.3zm-99-37.5c0 16.8 13.9 35.2 41.3 35.2 19.6 0 23.5-6.1 25.2-7.2v-51.6c-3.9-3.9-10.6-10.6-24-10.6-25.2 0.6-42.5 17.4-42.5 34.2zm188.5 42.5h-76.1c0.5 0 6.7-1.7 9.5-3.3 1.7-1.2 2.2-2.8 2.2-4.5v-92.4c0-1.7-1.1-2.8-2.2-4.5-1.7-1.7-7.8-3.4-9-3.9h57.1c28 0 59.8 5.6 59.8 24.1 0 12.3-16.7 22.4-33 24.6 19.6 0 50.4 11.2 50.4 29.1 0.5 17.9-26.9 30.8-58.7 30.8zm-24.7-101.9c-5 0-15.6 0-15.6 0v40.3h23.5c19.6 0 38-8.9 36.9-20.7-2.2-14.6-21.8-19-44.8-19.6zm17.4 45.9h-33v48.7c0 0 16.2 0 24.6 0 33 0.6 50.3-9.5 49.8-24.6 0-13.4-18.5-24.1-41.4-24.1zm80.5-10.6c10.1-6.7 21.3-9 35.8-9 25.8 0 41.4 7.3 41.4 19.6v47.1c0 1.6 1.1 2.8 3.4 3.9 2.2 1.1 3.3 1.7 6.1 1.7l-19 5-7.8-4.5-1.1-5.6c-0.6 0-19.1 10.7-38.1 10.7-17.9 0-31.3-10.7-30.7-21.3 0.5-14 22.9-20.7 45.3-24.1 16.2-2.2 22.9-5.6 23.5-5.6v-10.6c0-6.8-11.8-10.7-23-10.1-27.4 0-39.7 22.9-39.7 22.9zm30.2 60.5c12.3 0 28-6.7 28.6-6.7v-28c-0.6 0-11.2 2.2-17.9 3.9-15.7 2.8-29.7 7.3-30.3 17.4-0.5 7.8 8.4 13.4 19.6 13.4zm92.9 6.2h-32.5c0 0 4-1.7 4.5-2.3 1.1-1.6 1.1-2.2 1.1-3.3v-59.9c0-1.7-1.1-2.8-2.2-4-2.2-1.6-7.8-2.2-9-2.2l30.8-4.5-0.6 11.2c7.9-4.5 21.9-11.2 39.8-11.2 23.5 0.6 35.2 11.2 35.2 23.5v45.4c0 1.7 0 2.8 1.1 3.9 1.1 1.1 5.1 2.3 7.3 2.8h-34.7c1.7-0.5 6.2-1.1 7.3-2.2 1.1-1.1 0.5-3.4 0.5-4.5v-45.4c0-8.4-8.9-16.2-25.1-15.6-8.4 0-19 2.8-30.2 8.9v52.1c0 1.7 0.5 2.8 1.6 3.9 0 1.7 4 2.3 5.1 3.4zm113 0h-38.6c2.8-0.6 6.1-1.7 7.8-3.4 1.1-1.1 1.1-2.2 1.1-3.9v-93c0-1.6-1.1-3.3-3.3-4.4-2.8-1.2-9-2.3-9.5-2.3l34.6-5.6v72.3l43.7-25.2c2.2-1.2 4.4-2.8 3.9-4.5-0.6-2.3-6.2-3.9-6.2-3.9h36.9c-5 1.1-7.8 2.2-11.7 3.9-4.5 1.7-7.3 3.3-11.2 5.6l-36.3 21.8 40.2 32.5c3.9 2.8 6.2 5 11.2 7.3 2.8 1.1 8.4 2.2 11.8 2.8h-43.1c0 0 5-1.1 5.6-2.3 0-1.1-1.1-2.2-1.7-2.8l-43.6-33v29.1c0 2.3 0 3.9 1.7 5.6 1.6 1.7 3.3 2.8 6.7 3.4z"/>
		</g>
		<path id="Layer" fill-rule="evenodd" class="s0" d="m1567.3 101.4c-7.7 0-14-6.4-14-14.3 0-7.9 6.3-14.3 14-14.3 7.8 0 14 6.4 14 14.3 0 7.9-6.2 14.3-14 14.3zm11.8-14.3c0-6.7-5.1-12.1-11.5-12.1-6.3 0-11.4 5.4-11.4 12.1 0 6.6 5.1 12 11.4 12 6.4 0 11.5-5.4 11.5-12zm-14.6 8.1h-2.8v-15.7c1.2 0 2.8-0.5 4.5-0.5 2.3 0 3.9 0.5 5.1 1.1q1.6 0.8 1.6 3.3c0 2.3-1.1 3.4-3.3 4 1.1 0 2.2 1.6 2.8 3.9 0.5 2.2 0.5 3.3 1.1 3.9h-2.8c-0.6-0.6-0.6-2.2-1.1-3.9-0.6-2.3-1.1-2.8-3.4-2.8h-1.7zm0-8.4h1.7c2.3 0 3.9-0.6 3.9-2.8 0-1.1-1.1-2.8-3.9-2.8q-0.8 0-1.7 0z"/>
	</g>
</svg>