<svg version="1.2" xmlns="http://www.w3.org/2000/svg" viewBox="0 0 1542 471" width="1542" height="471">
	<title>iwTrMyTj_400x400-svg</title>
	<style>
		.s0 { fill: #e02f35 } 
		.s1 { fill: #000000 } 
	</style>
	<g id="#e02f35ff">
		<path id="Layer" class="s0" d="m891.7 2.1c49.6-4.6 99.2 0.5 148.5 4.1 117.4 10.4 235.2 31.4 344.7 76.2 35 12.1 67.2 31.3 97.1 52.9 28 23.9 58.8 53.1 59.4 92.7 4.1 43.2-29 76.8-59.5 102.3-59.3 40.8-127.5 66.6-196.4 86.1-104.6 24.7-211.3 42.5-318.8 45.8-89.4 5.7-179.3 3.1-268.4-6.3-69.4-6.7-137.9-21.8-205.3-39.6-23-7.1-45.6-15.5-67.7-24.9-21-9-41.7-18.9-61.1-30.9 54.7 24.7 112.2 42.9 170.8 55.8 72.3 12.3 145.2 23 218.7 23.2 58.5 1.6 116.9-0.8 175.2-5.4l3.1-2.3c33.2-0.4 65.5-8.8 98.5-10.8 79.9-16 160-36.8 232.8-74.6 41.5-19.4 81.4-46.6 107.3-85.2 17.2-25.1 21.4-58.9 8.8-86.8-15.2-37.8-48.9-64.2-83.6-83.5-30.5-15-61.9-28.8-94.5-38.6-54.6-16.5-110.4-30-167.1-36.3l-2.9-2.1c-46.6-3.7-92.7-12.1-139.6-11.8zm-388.9 13.6c89-9.5 178.9-7.9 268.4-6l2.8 2.2c83.6 3.1 166.9 16.3 247.7 38 33.6 8.4 66.2 19.9 97.9 33.7 4.4 1.5 8.7 3 13.1 4.4 16.3 7.7 32.7 15.2 48.1 24.6-121.8-52.5-254.8-75.9-387-79.3-100.6-2.6-201.5 4.6-300.3 23.7-92.1 19.3-185.8 44.7-263.9 99.3-29.6 19.6-57.3 45.7-69 80.1-11.3 30.6-0.6 64.7 17.9 90.1 36.5 43.9 89.4 69.4 142.1 88.3 100.6 30.8 204.9 51.6 310.4 52.7-45.5 3-91.5 4.8-136.7-1.9-91.4-6-181-25.8-269.2-49.2-64.4-21.3-128.7-47.8-180.9-92.1-24-22.7-45.4-53.2-43.2-87.8 1-36.8 27.2-66.6 54.6-88.4 37.8-29.5 81.5-51.4 127-66.7 89.5-32.2 183.5-50.2 277.7-62.3 14.1-1.5 28.3-2.2 42.5-3.4z"/>
	</g>
	<g id="#000000ff">
		<path id="Layer" class="s1" d="m587.4 89c84.3-0.2 168.6-0.2 252.8 0.4-29.9 47.9-63.2 93.5-93.8 140.9-10.8 16.8-24.1 32-32.6 50.2 129.8 0.7 259.6 0.6 389.4 1-15.9 22.8-30.6 46.6-47.2 69-214.5 0.6-429.2-0.5-643.8-1 58.4-86.8 117.7-173.1 175.2-260.5z"/>
	</g>
</svg>