<svg version="1.2" xmlns="http://www.w3.org/2000/svg" viewBox="0 0 1433 1552" width="1433" height="1552">
	<title>liberty-national-bank-logo-d0e0dbdb-svg</title>
	<style>
		.s0 { fill: #cbd2d0 } 
		.s1 { fill: #003f6c } 
	</style>
	<g id="#cbd2d0ff">
		<path id="Layer" class="s0" d="m5.3 1.9c339.9 0 679.8 0.1 1019.7 0 51 61.1 59.7 144.9 55.6 221.5-6.9 103.7-32.4 205.8-71.6 301.8-37.7 102.9-52.7 219.2-16 324.5 33 102.3 108.8 186.8 199.4 242.5 18.7 10.9 37.5 24.2 59.8 25.3 57.3 3.8 114.8-0.2 172.1-2.5-253.3 112-536.1 151.3-810.9 122.6-210-21.9-417.6-76.8-608-168.8-0.1-27.8-0.1-55.4-0.4-83.1 0.5-53.9 0.5-107.7 0.1-161.5 24.6-21.9 47.7-45.7 73.6-66.1 64.3-43.9 152.2-17.6 214.2-66.5 45.2-29.3 55.5-84.8 81-128.4 79.9-146.7 190.9-273.4 307.4-391.9-88.6 40.9-173.4 91.6-247.3 155.6-57 50-108.9 112.8-121.4 189.9-7 42.1-32.9 82.5-73.9 98.2-62.8 24.2-132.3 9-193.8-11.8-14.1 11.8-27.7 24.4-37.7 40-4.3-187.7-0.4-375.6-2.2-563.5 0.3-25.9 0.3-51.8 0.3-77.8zm154.5 1331.6c72.1-0.3 144.2-0.2 216.2-0.2 37.3 74.2 10.1 182.4-72.6 211.7-40.9 15-88.8 1.2-118.1-30.1-46.1-47-54-123.2-25.5-181.4z"/>
	</g>
	<g id="#003f6cff">
		<path id="Layer" class="s1" d="m1099.5 1c110.8 0.4 221.7 0 332.4 0.2 0.1 367.3 0.3 734.6 0 1101.9-105.9-21.7-207.9-78.9-269.5-169.5-58.4-85.9-74.7-194.7-64.1-296.3 24.4-158 77.5-316.2 53.9-477.7-7.8-55.2-18.1-113.1-52.7-158.6zm-1097.1 623c3.7-181.4-1.5-362.9 2.6-544.3 1.8 187.9-2.1 375.8 2.2 563.5 10-15.6 23.6-28.2 37.7-40 61.5 20.8 131 36 193.8 11.8 41-15.7 66.9-56.1 73.9-98.2 12.5-77.1 64.4-139.9 121.4-189.9 73.9-64 158.7-114.7 247.3-155.6-116.5 118.5-227.5 245.2-307.4 391.9-25.5 43.6-35.8 99.1-81 128.4-62 48.9-149.9 22.6-214.2 66.5-25.9 20.4-49 44.2-73.6 66.1 0.4 53.8 0.4 107.6-0.1 161.5-5.8-120.4 6-241.3-2.6-361.7zm952.9 707.7c167.1-51.2 329.4-120.2 476.6-214.9 0.1 71.8 0.1 143.6 0 215.4-158.8-0.3-317.7 0.9-476.6-0.5z"/>
		<path id="Layer" class="s1" d="m0.9 1122.6c112.3 84.3 233.5 159.7 366.5 206.9-122.1 3.4-244.4 2.4-366.5 3-0.1-70 0-139.9 0-209.9z"/>
	</g>
</svg>