<svg version="1.2" xmlns="http://www.w3.org/2000/svg" viewBox="0 0 1580 303" width="1580" height="303">
	<title>616f49f623187-svg</title>
	<style>
		.s0 { fill: #ffffff } 
	</style>
	<g id="#1879beff">
		<path id="Layer" fill-rule="evenodd" class="s0" d="m149.4 59.6c22.2-19.8 44.5-39.6 66.8-59.4 0.5 28.2 0 56.5 0.2 84.7 27.7 0 55.3 0 83-0.1 0 28.3 0 56.6 0 84.8 28.3 0.1 56.6-0.1 84.9 0.1-19 21.8-37.7 43.7-56.7 65.5-30.1 0-60.2 0-90.3 0-17.8 22.2-35.4 44.7-53.2 67-31.1-0.1-62.1 0-93.2-0.1 0-27.6 0-55.3 0-82.9q-45-0.1-90.1 0c0.1-30.9 0-61.7 0.1-92.5 22.1-19.5 43.7-39.5 65.7-59 0 27.8 0 55.6 0 83.4 27.6 0.1 55.2 0 82.7 0 0-30.5-0.1-61 0.1-91.5zm0.3 92.2q-0.1 41.3 0 82.6c28.8 0 57.7 0 86.5 0 0-27.6 0-55.2 0-82.8-28.9 0.5-57.7 0-86.5 0.2z"/>
	</g>
	<g id="#1c1c1cff">
		<path id="Layer" fill-rule="evenodd" class="s0" d="m1505.2 88.9c10.4-4.8 22.2-4.2 33.4-4.4 10.7 0.3 22.5-0.4 32.1 5.4 5.5 3.3 6.8 10.1 6.4 16-6.6-0.1-13.2 0-19.8-0.1-0.2-2.6-0.6-5.6-3.3-6.8-5.8-2.1-12.1-1.4-18.2-1.5-5 0.1-10.2 0-14.8 1.9-5.1 2.2-3.2 11 2.3 10.9 14.5 1.7 29.4-0.5 43.6 3.3 5.8 1.4 11.1 5.8 12.3 11.9 1.1 7.1-0.6 15.6-6.9 19.8-6.8 4.3-15.3 4.4-23.1 4.7-10.6 0.1-21.3 0.3-31.8-0.7-6.3-0.8-13.3-2.3-17.2-7.8-2.9-3.8-2.9-8.8-2.6-13.4 6.5 0.1 13 0 19.5 0.1 0.2 2.9 0.1 6.5 3.1 8.1 5.3 2.4 11.3 1.2 16.9 1.6 5.9-0.2 11.9 0.5 17.7-0.7 4.4-0.9 5.2-6.1 4.1-9.8-1.5-3.8-6-4.7-9.6-4.8-11.7-0.4-23.4-0.2-35-2-6-0.9-12.8-3.4-15.1-9.6-2.8-7.5-2-18.2 6-22.1zm-1185.5-4q10.4 0 20.7 0c0.1 16.9-0.1 33.9 0.1 50.8 15.4 0.1 30.8 0 46.2 0q0 7 0 14-33.5 0.1-67 0c0-21.6 0-43.2 0-64.8zm78.2 0q34.3 0 68.7 0 0 7 0 14-24.5 0-49.1 0 0 5.8 0 11.5c15.7 0 31.3-0.1 46.9 0q0 6.1 0 12.3c-15.6 0.1-31.2 0-46.9 0q0 6.8 0 13.6c16.6 0 33.1-0.1 49.7 0q-0.1 6.7 0 13.4c-23.1 0.1-46.3 0-69.4 0 0.1-21.6 0-43.2 0.1-64.8zm87.3 0q34.4 0 68.8 0 0 7 0 14c-16.3 0-32.7 0-49 0q0 5.8 0 11.5c15.6 0 31.2-0.1 46.9 0.1q-0.1 6.1 0 12.2c-15.7 0.1-31.3 0-46.9 0q0 6.8 0 13.6c16.5 0 33-0.1 49.6 0q-0.1 6.7 0 13.4c-23.2 0.1-46.3 0-69.5 0 0.1-21.6 0-43.2 0.1-64.8zm132.5 0c22.9 0 45.9 0 68.8 0q0 7 0.1 14c-16.4 0.1-32.7 0-49.1 0.1q0.1 5.7 0.1 11.4c15.6 0.1 31.2-0.2 46.8 0.1q0 6.1 0 12.2c-15.6 0.1-31.3-0.1-46.9 0q0.1 6.8 0 13.6c16.6 0 33.1-0.1 49.6 0q0 6.7 0 13.4c-23.1 0.1-46.3 0-69.4 0 0.1-21.6 0-43.2 0-64.8zm85.8 0c10.9 0 21.9-0.1 32.8 0 11.4 16.9 22.5 34 34.3 50.7 0.4-16.9 0-33.8 0.2-50.7 6.7 0 13.5 0 20.2 0 0 21.6 0 43.2 0 64.8-11.1 0-22.1 0.2-33.2-0.1-11.6-16.9-22.9-34.1-35-50.8-0.1 17 0 34 0 50.9q-9.7 0-19.4 0c0.1-21.6 0-43.2 0.1-64.8zm97.5 0q39.6 0 79.1 0 0 7 0 14.1c-9.9 0-19.7 0-29.5 0 0 16.9-0.1 33.8 0 50.7q-10.3 0.1-20.7 0 0-25.3 0.1-50.7c-9.7 0-19.3 0-29 0q0-7 0-14.1zm89.9 0c22.9 0 45.9 0 68.9 0q0 7 0 14c-16.4 0.1-32.7 0-49.1 0.1q0 5.7 0 11.4c15.6 0 31.3-0.1 46.9 0q0 6.2 0 12.3c-15.6 0.1-31.3 0-46.9 0q0 6.8 0 13.6c16.5 0 33.1 0 49.7 0q0 6.7 0 13.4-34.8 0.1-69.6 0c0.1-21.6 0-43.2 0.1-64.8zm89 0c17.5 0 35 0 52.5 0 7.3 0.3 15 0.5 21.7 3.8 10.3 5.1 11.6 21.6 2.6 28.6-3.1 2.7-7.4 3.6-11.3 4.8 5.9 0.7 13.4 2.2 15.4 8.7 1.4 6.2 0.3 12.6 0.7 18.9q-10.4 0.1-20.8 0c-0.1-4.7 0.2-9.4-0.2-14.2-1.2-4.6-6.7-5.6-10.8-5.8-9.9-0.1-19.8 0-29.7 0q0 10 0 20-10.1 0.1-20.1 0 0-32.4 0-64.8zm20.1 14q0 8.5 0 16.9c9.9 0 19.8 0.1 29.7 0 3.9-0.1 8.7-0.4 11-4 1.2-2.8 1.1-6.2 0.2-9.1-2.1-3.4-6.5-3.2-9.9-3.6-10.3-0.3-20.7-0.1-31-0.2zm81.5-14q20.9 0 41.9 0c9.8 0.3 20.2-0.2 29.4 4 5.6 2.5 8.8 8.5 9.1 14.4 0.4 5.7 0.4 12-3.1 16.9-3.5 4.9-9.6 6.9-15.3 7.8-13.9 2.1-28 0.9-42 1.2 0 6.9 0 13.7 0 20.6q-10-0.1-20-0.1c0-21.6-0.1-43.2 0-64.8zm20.1 13.8c0 5.8 0 11.6 0 17.5 9.6-0.1 19.2 0.1 28.8-0.2 3.5-0.2 8-0.4 9.9-3.8 2-4.5 1.6-12.4-4.7-12.9-11.2-1.3-22.7-0.4-34-0.6zm76.2-13.8q23.7 0 47.4 0c8.7 0.1 17.7-0.1 25.8 3.4 11 4.4 12.9 21.5 3.8 28.8-3.2 2.8-7.5 3.8-11.5 5 6 0.6 13.7 2.4 15.5 9.2 1.1 6 0.2 12.3 0.5 18.4q-10.3 0.1-20.6 0c-0.2-4.9 0.6-10-0.5-14.9-1.6-4-6.5-4.9-10.3-5.1-10-0.1-20 0-30 0 0.1 6.7 0 13.4 0.1 20q-10.1 0.1-20.1 0 0.1-32.4-0.1-64.8zm20.2 14q-0.1 8.5 0 16.9c9.1 0.1 18.1 0 27.2 0.1 3.6-0.1 7.5 0 10.8-1.7 4-2.1 4.1-7.5 2.8-11.3-1.7-3.5-6.3-3.4-9.7-3.8-10.4-0.4-20.8-0.1-31.1-0.2zm81.3-14q9.5 0 19 0c0 21.6 0 43.2 0 64.8q-9.5 0.1-19 0c0-21.6 0-43.2 0-64.8zm53.7 0.9c11.4-1.6 23-1.6 34.5-1.1 8 0.7 17 1.3 23.3 6.9 4 3.6 4.4 9.2 4.3 14.3-6.5 0-13-0.1-19.4 0-0.7-2.5-1-5.8-3.8-6.9-4.9-1.8-10.3-1.4-15.5-1.5-5.7 0.1-11.7-0.3-17.2 1.8-5.1 2-3.6 11 2.1 11 14.3 1.7 29-0.4 43 3.1 5.8 1.4 11.5 5.4 12.6 11.6 1.2 6.9 0.2 15.2-5.8 19.7-7 5-15.8 5-24 5.3-10.6 0.1-21.3 0.3-31.9-0.7-5.9-0.8-12.3-2.2-16.3-7-3.3-3.9-3.8-9.3-3.2-14.2 6.4 0.1 12.9 0.1 19.3 0 0.4 2.6 0.1 5.8 2.4 7.6 3.6 2.5 8.1 2 12.2 2.1 7.3-0.1 14.7 0.5 22.1-0.3 6-0.4 7.3-8.9 3.5-12.6-2.6-2.1-6.2-2.3-9.4-2.4-10.8-0.2-21.6-0.3-32.4-1.7-5.8-0.9-12.6-2.8-15.5-8.4-2.7-5.4-2.8-11.9-0.6-17.4 2.8-6.1 9.7-8.1 15.7-9.2zm79.3-0.9q34.5 0 69 0 0 7 0 14c-16.4 0-32.8 0-49.2 0q0 5.8 0 11.5c15.6 0 31.3 0 46.9 0q0.1 6.1 0 12.3c-15.6 0-31.3 0-46.9 0q0 6.8 0 13.6 24.9 0 49.8 0-0.1 6.7 0 13.4c-23.2 0.1-46.4 0-69.6 0 0.1-21.6 0-43.2 0-64.8z"/>
	</g>
</svg>