<svg version="1.2" baseProfile="tiny-ps" xmlns="http://www.w3.org/2000/svg" viewBox="0 0 1528 1279" width="1528" height="1279">
	<title>leslies-vector-logo-svg</title>
	<style>
		tspan { white-space:pre }
		.shp0 { fill: #004899 } 
		.shp1 { fill: none;stroke: #ffffff;stroke-width: 67.925 } 
		.shp2 { fill: #ffffff } 
		.shp3 { fill: #00a8e4 } 
		.shp4 { fill: #e85673 } 
		.shp5 { fill: none;stroke: #ffffff;stroke-width: 69.532 } 
	</style>
	<g id="Layer">
		<path id="Layer" fill-rule="evenodd" class="shp0" d="M3951.72 967.08C3956.28 928.39 3989.68 906.4 4022.33 906.4C4054.97 906.4 4083.06 928.39 4078.51 967.08C4073.95 1005.76 4040.55 1027.76 4007.9 1027.76C3974.5 1027.76 3946.41 1005.76 3951.72 967.08ZM4057.25 967.08C4060.29 940.53 4042.83 921.57 4020.05 921.57C3996.52 921.57 3975.26 940.53 3971.46 967.08C3968.43 993.62 3985.13 1012.59 4008.66 1012.59C4032.2 1012.59 4054.21 993.62 4057.25 967.08ZM4001.83 999.69L3985.89 999.69L3994.24 933.7L4019.29 933.7C4036.75 933.7 4046.62 938.25 4045.1 954.18C4043.59 966.32 4035.99 970.87 4023.85 971.63L4037.51 1000.45L4020.81 1000.45L4009.42 973.14L4005.63 973.14L4001.83 999.69ZM4018.53 961.01C4023.85 961.01 4027.64 959.49 4028.4 952.66C4029.16 946.6 4021.57 945.84 4017.01 945.84L4008.66 945.84L4007.14 961.01L4018.53 961.01Z" />
	</g>
	<g id="Layer">
		<path id="Layer" class="shp1" d="M1111.6 868.47C904.34 1111.19 637.1 1244.68 391.13 1244.68C121.61 1244.68 -0.62 1040.65 44.18 797.17C44.18 797.17 89.73 818.41 174.76 784.28C241.57 757.73 271.17 709.95 271.17 709.95C271.17 709.95 275.73 804 386.57 788.07C473.12 775.94 537.65 706.91 537.65 706.91C537.65 706.91 533.85 802.48 639.38 785.04C728.96 772.9 793.5 703.12 793.5 703.12C793.5 703.12 795.01 793.38 903.58 783.52C993.92 778.21 1065.29 698.57 1065.29 698.57L1111.6 868.47Z" />
	</g>
	<g id="Layer">
		<path id="Layer" class="shp2" d="M1339.35 351.18C1331.76 167.63 1202.7 34.13 981.77 34.13C687.21 34.13 339.5 273.82 149.7 557.49C149.7 557.49 284.08 563.56 367.59 469.51C367.59 469.51 369.11 550.66 452.62 552.18C536.13 553.7 579.4 518.05 638.62 467.23C638.62 467.23 638.62 548.39 732.76 549.91C833.73 550.66 912.69 464.95 912.69 464.95C912.69 464.95 913.45 539.29 1002.27 546.87C1091.1 554.46 1150.31 464.95 1150.31 464.95L1176.13 376.21L1339.35 351.18Z" />
	</g>
	<g id="Layer">
		<path id="Layer" class="shp1" d="M1339.35 351.18C1331.76 167.63 1202.7 34.13 981.77 34.13C687.21 34.13 339.5 273.82 149.7 557.49C149.7 557.49 284.08 563.56 367.59 469.51C367.59 469.51 369.11 550.66 452.62 552.18C536.13 553.7 579.4 518.05 638.62 467.23C638.62 467.23 638.62 548.39 732.76 549.91C833.73 550.66 912.69 464.95 912.69 464.95C912.69 464.95 913.45 539.29 1002.27 546.87C1091.1 554.46 1150.31 464.95 1150.31 464.95L1176.13 376.21L1339.35 351.18Z" />
		<path id="Layer" class="shp3" d="M1111.6 868.47C904.34 1111.19 637.1 1244.68 391.13 1244.68C121.61 1244.68 -0.62 1040.65 44.18 797.17C44.18 797.17 89.73 818.41 174.76 784.28C241.57 757.73 271.17 709.95 271.17 709.95C271.17 709.95 275.73 804 386.57 788.07C473.12 775.94 537.65 706.91 537.65 706.91C537.65 706.91 533.85 802.48 639.38 785.04C728.96 772.9 793.5 703.12 793.5 703.12C793.5 703.12 795.01 793.38 903.58 783.52C993.92 778.21 1065.29 698.57 1065.29 698.57L1111.6 868.47Z" />
	</g>
	<g id="Layer">
		<path id="Layer" class="shp4" d="M1339.35 351.18C1331.76 167.63 1202.7 34.13 981.77 34.13C687.21 34.13 339.5 273.82 149.7 557.49C149.7 557.49 284.08 563.56 367.59 469.51C367.59 469.51 369.11 550.66 452.62 552.18C536.13 553.7 579.4 518.05 638.62 467.23C638.62 467.23 638.62 548.39 732.76 549.91C833.73 550.66 912.69 464.95 912.69 464.95C912.69 464.95 913.45 539.29 1002.27 546.87C1091.1 554.46 1150.31 464.95 1150.31 464.95L1176.13 376.21L1339.35 351.18Z" />
		<path id="Layer" class="shp5" d="M661.4 882.88C693.28 898.81 719.1 902.6 757.05 902.6C814.75 902.6 857.27 891.99 908.13 857.09L852.71 1001.97L424.53 1001.97L425.29 998.93C481.47 966.32 476.91 911.71 484.51 857.09L530.82 461.16C537.65 406.55 552.83 346.63 505.76 314.02L506.52 310.98L776.79 310.98L776.03 314.02C719.85 346.63 719.85 406.55 713.02 461.92L661.4 882.88Z" />
		<path id="Layer" class="shp0" d="M661.4 882.88C693.28 898.81 719.1 902.6 757.05 902.6C814.75 902.6 857.27 891.99 908.13 857.09L852.71 1001.97L424.53 1001.97L425.29 998.93C481.47 966.32 476.91 911.71 484.51 857.09L530.82 461.16C537.65 406.55 552.83 346.63 505.76 314.02L506.52 310.98L776.79 310.98L776.03 314.02C719.85 346.63 719.85 406.55 713.02 461.92L661.4 882.88Z" />
		<path id="Layer" class="shp5" d="M1185.24 885.16C1218.64 898.81 1265.71 901.09 1302.15 901.09C1361.37 901.09 1391.74 895.02 1438.81 846.48L1444.12 846.48L1384.9 1001.97L938.5 1001.97L939.26 998.93C995.44 966.32 995.44 907.91 1002.27 852.54L1053.14 459.65C1059.97 405.03 1075.15 345.11 1027.33 313.26L1028.09 310.22L1424.38 310.22C1440.32 310.22 1457.03 310.22 1469.17 304.91L1472.21 304.91L1488.15 462.68L1485.12 462.68C1463.1 413.38 1340.11 413.38 1288.49 413.38L1242.94 413.38L1221.68 588.59L1322.65 588.59C1368.2 585.56 1392.5 558.25 1392.5 558.25L1370.48 723.6C1370.48 723.6 1350.74 686.43 1254.32 687.19L1211.05 687.19L1185.24 885.16Z" />
		<path id="Layer" class="shp0" d="M1185.24 885.16C1218.64 898.81 1265.71 901.09 1302.15 901.09C1361.37 901.09 1391.74 895.02 1438.81 846.48L1444.12 846.48L1384.9 1001.97L938.5 1001.97L939.26 998.93C995.44 966.32 995.44 907.91 1002.27 852.54L1053.14 459.65C1059.97 405.03 1075.15 345.11 1027.33 313.26L1028.09 310.22L1424.38 310.22C1440.32 310.22 1457.03 310.22 1469.17 304.91L1472.21 304.91L1488.15 462.68L1485.12 462.68C1463.1 413.38 1340.11 413.38 1288.49 413.38L1242.94 413.38L1221.68 588.59L1322.65 588.59C1368.2 585.56 1392.5 558.25 1392.5 558.25L1370.48 723.6C1370.48 723.6 1350.74 686.43 1254.32 687.19L1211.05 687.19L1185.24 885.16Z" />
	</g>
	<g id="Layer">
	</g>
	<g id="Layer">
	</g>
</svg>