<svg version="1.2" xmlns="http://www.w3.org/2000/svg" viewBox="0 0 1549 372" width="1549" height="372">
	<title>2022 Landec Annual Report-1-pdf-svg</title>
	<defs>
		<clipPath clipPathUnits="userSpaceOnUse" id="cp1">
			<path d="m-593.58-4863h4656v5887.93h-4656z"/>
		</clipPath>
		<clipPath clipPathUnits="userSpaceOnUse" id="cp2">
			<path d="m-428.77-4698.3h4326.37v5558.53h-4326.37z"/>
		</clipPath>
	</defs>
	<style>
		.s0 { fill: #5bcfd0 } 
		.s1 { fill: #027ca4 } 
		.s2 { fill: #043744 } 
		.s3 { fill: #5aa9c8 } 
		.s4 { fill: #1c97a7 } 
	</style>
	<g id="Clip-Path: Page 1" clip-path="url(#cp1)">
		<g id="Page 1">
			<g id="Clip-Path: Mask" clip-path="url(#cp2)">
				<g id="Mask">
					<g id="&lt;Group&gt;" style="opacity: .1">
					</g>
				</g>
			</g>
			<path id="Path 11" class="s0" d="m464 155.1l-30.9-30.9-30.9-30.8-30.9-30.9-30.9-30.9-30.9-30.9-30.9 30.9-31.3 30.9 31.3 30.9 30.9 30.8 30.9 30.9 30.9 30.9-30.9 30.9-30.9 30.9-30.9 30.8-31.3 30.9 31.3 31.2 30.9 30.9 30.9-30.9 30.9-31.2 30.9-30.9 30.9-30.8 30.9-30.9 30.9-30.9z"/>
			<path id="Path 12" class="s1" d="m216.4 278.6l-30.9-30.8-30.9-30.9-30.9-30.9 30.9-30.9 30.9-30.9 30.9-30.8 30.9-30.9-30.9-30.9-30.9-30.9-30.9 30.9-30.9 30.9-30.9 30.9-30.9 30.8-30.9 30.9-30.9 30.9 30.9 30.9 30.9 30.9 30.9 30.8 30.9 30.9 30.9 31.2 30.9 30.9 30.9-30.9 30.9-31.2z"/>
			<path id="Path 13" class="s2" d="m216.4 31.6l-30.9 30.9-30.9 30.9-30.9 30.8-30.9 30.9-30.9 30.9h61.8l30.9-30.9 30.9-30.9 30.9-30.8 30.9-30.9z"/>
			<path id="Path 14" class="s3" d="m371.3 186l-30.9 30.9-30.9 30.9-30.9 30.8-31.3 30.9 31.3-30.9 30.9-30.8 30.9-30.9z"/>
			<path id="Path 15" class="s4" d="m433.1 186h-61.8l-30.9 30.9-30.9 30.9-30.9 30.8-31.3 30.9 31.3 31.2 30.9-31.2 30.9-30.9 30.9-30.8 30.9-30.9z"/>
			<path id="Path 16" class="s0" d="m275.5 158.2l-28.2-27.8-27.8 27.8-27.8 27.8 27.8 27.8 27.8 27.8 28.2-27.8 27.8-27.8z"/>
			<path id="Path 17" class="s3" d="m191.7 186l55.6 55.6-27.8-27.8z"/>
			<path id="Path 18" class="s4" d="m303.3 186h-111.6l27.8 27.8 27.8 27.8z"/>
			<path id="Path 20" fill-rule="evenodd" class="s1" d="m601.3 352.1q0 4.4-2 8.2-1.8 3.4-5.2 5.8-3.1 2.4-7.5 3.8-4.2 1-9.3 1h-35.7v-73.7h39.8q3.8 0 6.9 1.7 3.1 1.4 5.1 4.1 2.4 2.7 3.5 6.2 1.3 3.4 1.3 6.8 0 5.2-2.7 10-2.8 4.8-7.9 7.2 6.2 1.7 9.9 6.5 3.8 4.8 3.8 12.4zm-45.3-42.9v18.9h19.2q3.8 0 6.2-2.5 2.4-2.7 2.4-7.2 0-4.1-2.1-6.5-2.4-2.7-5.8-2.7zm30.6 40.1q0-2-0.7-3.7-0.7-2.1-1.7-3.5-1.1-1.4-2.8-2-1.4-0.7-3.4-0.7h-22v19.5h21.3q2.1 0 3.8-0.7 1.7-1 2.7-2 1.4-1.4 2.1-3.1 0.7-1.7 0.7-3.8zm40.5-52.1h14.4v73.7h-14.4z"/>
			<path id="Path 21" fill-rule="evenodd" class="s1" d="m703 371.6q-7.9 0-14.8-3.4-6.5-3.1-11.3-8.2-4.5-5.2-7.3-12-2.7-6.9-2.7-14.1 0-7.2 2.7-14.1 2.8-6.8 7.9-12 4.9-5.1 11.4-8.2 6.8-3.1 14.4-3.1 8.2 0 14.8 3.4 6.5 3.1 11.3 8.6 4.8 5.1 7.2 12 2.8 6.9 2.8 13.7 0 7.6-2.8 14.1-2.7 6.9-7.6 12-4.8 5.2-11.3 8.2-6.8 3.1-14.7 3.1zm-21.3-37.7q0 4.8 1.3 9.2 1.4 4.5 4.2 8.3 2.7 3.4 6.8 5.5 4.1 2 9.3 2 5.1 0 9.3-2.4 3.7-2 6.5-5.5 2.7-3.4 4.1-7.9 1.7-4.4 1.7-9.2 0-4.8-1.7-9.3-1.4-4.4-4.1-7.9-2.8-3.4-6.9-5.5-4.1-2-8.9-2-5.2 0-9.3 2.4-4.1 2-6.8 5.5-2.8 3.4-4.2 7.9-1.3 4.4-1.3 8.9zm143.5 37v-48.7l-18.9 36.4h-7.9l-19.2-36.4v48.7h-14.4v-73.7h15.4l22 41.8 22-41.8h15.4v73.7zm95.8-12.7v12.7h-51.5v-73.7h50.5v12.3h-36.1v17.9h31.3v11.6h-31.3v19.2z"/>
			<path id="Path 22" fill-rule="evenodd" class="s1" d="m946.7 370.9v-73.7h27.2q8.9 0 15.8 2.7 6.8 3.1 11.3 7.9 4.8 5.2 6.9 11.7 2.4 6.8 2.4 14.4 0 8.6-2.8 15.4-2.4 6.5-7.2 11.7-4.8 4.8-11.3 7.2-6.9 2.7-15.1 2.7zm48.7-37q0-5.2-1.3-9.6-1.4-4.5-4.5-7.9-2.8-3.1-6.9-4.8-4.1-2.1-9.3-2.1h-12.3v48.7h12.3q5.2 0 9.3-1.7 4.1-1.7 7.2-5.1 2.8-3.4 4.2-7.9 1.3-4.5 1.3-9.6zm40.5-36.7h14.1v73.7h-14.1z"/>
			<path id="Path 23" fill-rule="evenodd" class="s1" d="m1075.8 333.5q0-6.8 2.8-13.3 2.4-6.6 6.9-12 4.8-5.2 11.6-8.3 6.6-3.4 15.5-3.4 9.9 0 17.5 4.8 7.6 4.4 11 11.7l-11 7.5q-1.4-3.1-3.4-5.5-2.1-2-4.5-3.4-2.4-1-5.2-1.7-2.4-0.7-5.1-0.7-5.2 0-9.3 2.4-4.1 2-6.5 5.5-2.7 3.7-4.1 7.9-1.4 4.4-1.4 8.9 0 4.8 1.4 9.6 1.7 4.5 4.4 7.9 3.1 3.4 6.9 5.5 4.1 2 8.9 2 2.4 0 5.2-0.7 2.7-0.6 5.1-2 2.4-1.4 4.5-3.4 2.4-2.1 3.4-5.2l11.7 6.9q-1.7 4.1-4.8 7.2-3.4 3.4-7.5 5.5-4.2 2-8.6 3.4-4.8 1-9.3 1-7.9 0-14.4-3.4-6.5-3.1-11.4-8.6-4.8-5.5-7.5-12.3-2.8-6.6-2.8-13.8zm110.6-36.3h13.1l27.8 73.7h-14.8l-6.9-18.5h-25.7l-6.9 18.5h-14.7zm16.4 45.7l-9.9-29.2-10.7 29.2zm47.1 28.5v-74.2h14.4v61.5h37.4v12.7zm-678.1-357.2v194.2h102l-3.8 26.4h-129.1v-220.6zm112.9 60.7h29.9v159.9h-29.9z"/>
			<path id="Path 24" class="s1" d="m834.8 74.8l-3.8 23h-45.3v136.6h-29.5v-136.6h-30.9l3.4-23h27.5q0-36.7 15.8-54.5 16.1-17.9 47-17.9 8.6 0 16.1 1.4 7.3 1.4 12.8 2.7l-5.5 22.4q-10-2.5-20.3-2.5-11 0-17.9 2.8-6.8 2.7-10.9 8.6-4.2 6.1-5.9 15.1-1.7 9.2-1.7 21.9z"/>
			<path id="Path 25" fill-rule="evenodd" class="s1" d="m861.6 164.4q0 13.7 2.7 23.3 2.8 9.3 9 15.5 6.1 5.8 16.8 8.5 10.3 2.8 26.8 2.8 13 0 23.7-1.7 10.6-1.4 17.8-3.1l-4.1 22.3q-7.6 2.7-20.6 4.4-13.1 1.8-25.4 1.8-21.6 0-36.4-5.2-14.8-5.1-23.7-14.7-8.9-9.7-12.7-24.1-3.8-14.4-3.8-32.9v-12.7q0-17.5 4.1-31.9 3.8-14.1 12.4-24.4 8.6-10.3 22-15.8 13.4-5.4 32.2-5.4 17.9 0 30.3 5.1 12 5.5 19.5 14.1 7.6 8.9 11 20.6 3.5 12 3.5 25v11q0 11-3.1 14.1-3.5 3.4-13.4 3.4zm39.8-70.4q-20.6 0-30.2 11.4-9.6 11.3-9.6 37.4h76.9v-7.9q0-19.9-8.3-30.6-8.5-10.3-28.8-10.3zm193.3 137.6q-7.9 2.4-17.8 4.2-9.7 1.7-20.6 1.7-20.3 0-34.4-5.2-14.1-5.1-22.6-15.1-8.3-9.9-12.1-24-3.4-13.7-3.4-31.2v-14.8q0-17.8 4.5-31.5 4.1-14.1 13.4-23.7 8.9-10 23.3-15.1 14.1-5.2 34.4-5.2 11.6 0 21.6 1.8 9.6 1.7 17.8 4.1l-5.5 22.3q-15.4-4.5-29.8-4.5-13.1 0-22.3 2.8-9.3 2.7-15.2 8.9-6.1 6.5-8.9 16.5-2.7 9.9-2.7 25v11q0 14.4 2.7 24.7 2.8 10.3 8.9 16.8 6.2 6.5 15.8 9.3 9.7 3 23.4 3 8.6 0 17.2-1.3 8.2-1.1 16.1-2.8zm87.2-160.5q21.3 0 35.4 5.8 14.1 5.5 22.3 15.8 7.9 10.3 11.3 24.3 3.1 13.8 3.1 30.2v14.4q0 16.8-3.4 30.9-3.5 13.7-12 24-8.3 10.3-22.4 16.2-13.7 5.5-34.3 5.5-21.3 0-35.4-5.5-13.7-5.9-21.9-16.2-8.3-10.3-11.7-24-3.1-14.1-3.1-30.9v-14.4q0-16.4 3.4-30.2 3.8-14 12.1-24.3 8.2-10.3 22.3-15.8 14.1-5.8 34.3-5.8zm0.4 143q23.3 0 32.2-12 9-12 9-39.4v-16.2q0-13.7-2.1-23.6-2.1-9.6-6.9-15.8-4.8-6.2-12.7-9.3-7.9-3.1-19.5-3.1-11.7 0-20 3.1-7.9 3.1-12.7 9.3-4.8 6.2-6.8 15.8-2.4 9.9-2.4 23.6v16.2q0 14 2.4 24 2 9.6 6.8 15.8 4.8 6.1 12.7 8.9 8.3 2.7 20 2.7zm185.4-113.2q-3.8-1-9-1.7-5.1-1-9.9-1-9.3 0-16.8 2.4-7.6 2.4-13.1 7.9-5.5 5.4-8.6 15-3.1 9.7-3.1 24.1v86.8h-30.2v-159.6h26.1l2.4 21.3q7.9-11.7 19.6-17.5 11.3-5.8 28.1-5.8 11.7 0 20.3 3.1z"/>
			<path id="Path 26" fill-rule="evenodd" class="s1" d="m1400.3 164.4q0.4 13.7 3.1 23.3 2.8 9.3 8.9 15.5 6.2 5.8 16.5 8.5 10.7 2.8 27.1 2.8 13.1 0 23.7-1.7 10.7-1.4 17.9-3.1l-4.1 22.3q-7.9 2.7-20.6 4.4-13.1 1.8-25.4 1.8-22 0-36.4-5.2-14.8-5.1-23.7-14.7-9-9.7-12.7-24.1-3.8-14.4-3.8-32.9v-12.7q0-17.5 3.8-31.9 4.1-14.1 12.7-24.4 8.6-10.3 22-15.8 13.3-5.4 31.9-5.4 18.2 0 30.2 5.1 12.4 5.5 19.9 14.1 7.6 8.9 11 20.6 3.4 12 3.4 25v11q0 11-3.1 14.1-3.4 3.4-13.3 3.4zm39.8-70.4q-20.6 0-30.2 11.4-9.6 11.3-10 37.4h77.3v-7.9q0-19.9-8.3-30.6-8.6-10.3-28.8-10.3z"/>
			<path id="Path 26" class="s0" d="m669.6 30.2l29.9 29.9 29.9-29.9-29.9 29.9zm29.9-29.9l-29.9 29.9 29.9-0.4 29.9 0.4z"/>
			<path id="Path 28" fill-rule="evenodd" class="s1" d="m1530.6 102.6c-9.9 0-18-7.9-18-17.6 0-9.8 8.1-17.7 18-17.7 10 0 18.1 7.9 18.1 17.7 0 9.7-8.1 17.6-18.1 17.6zm13.2-17.6c0-7.7-5.9-13.9-13.2-13.9-7.3 0-13.2 6.2-13.2 13.9 0 7.6 5.9 13.8 13.2 13.8 7.3 0 13.2-6.2 13.2-13.8zm-20.2-9.8h7.5c4.9 0 7.6 1.3 7.6 5.8 0 3.4-2.1 4.8-5.2 5.2l5.2 8.5h-3.8l-4.8-8.2h-2.7v8.2h-3.8zm3.8 8.3h3.7c2.1 0 3.8-0.4 3.8-2.8 0-2-2.4-2.4-4.1-2.4h-3.4z"/>
			<path id="Path 28" class="s4" d="m699.5 29.9l-29.9 0.3 29.9 29.9 29.9-29.9z"/>
		</g>
	</g>
</svg>