<svg version="1.2" xmlns="http://www.w3.org/2000/svg" viewBox="0 0 1552 547" width="1552" height="547">
	<title>logo-gray-svg</title>
	<style>
		.s0 { fill: #ffffff } 
		.s1 { fill: #e4701e } 
	</style>
	<g id="Layer">
		<path id="Layer" fill-rule="evenodd" class="s0" d="m1522.2 56.3c-16.1 0-29-12.3-29-28.2 0-15.6 12.9-28.1 29-28.1h0.2c16.1 0 28.6 12.5 28.6 28.1 0 15.9-12.5 28.2-28.8 28.2zm0-50.6h-0.2c-12.3 0-21.6 10.1-21.6 22.4 0 12.5 9.3 22.4 22 22.4 12.3 0.1 21.4-9.9 21.4-22.4 0-12.3-9.1-22.4-21.6-22.4zm6.5 23.2c2.8 0.9 4.3 3.1 5.2 6.9 0.8 4.3 1.4 5.9 2 6.8h-7c-0.9-1-1.4-3.4-2.2-6.7-0.6-3-2.3-4.4-5.9-4.4h-3.1v11.1h-6.5v-27.9c2.6-0.5 6.2-1 10.8-1 5.3 0 7.7 0.9 9.8 2.2 1.5 1.2 2.7 3.5 2.7 6 0 3.3-2.4 5.7-5.8 6.7zm-7.2-10.4c-1.7 0-2.9 0.1-3.6 0.3v8h3.1c3.6 0 6.5-1.2 6.5-4.1 0-2.5-1.9-4.2-6-4.2zm-88.6 414.4c-1.7 0.7-4.1 1.3-7 1.7q-4.3 0.6-10.6 0.6-6.5 0-10.9-0.6c-2.9-0.4-5.3-1-7.2-1.7-1.8-0.7-3.1-1.7-4-2.9q-1.3-1.9-1.2-4.4v-36.9q-22.2 23.9-46 37.2c-15.9 8.9-33.3 13.4-52.2 13.4-20.6 0-38.1-4-52.7-12q-21.8-11.9-35.4-32.2-13.6-20.4-19.8-47.8c-4.1-18.3-6.2-37.6-6.2-57.9q0-36 7.8-65c5.2-19.4 12.9-35.9 23-49.5q15.3-20.5 37.9-31.5c15.1-7.4 32.5-11.1 52.2-11.1 16.4 0 31.5 3.6 45.1 10.8 13.6 7.1 27 17.6 40.3 31.5v-162.3c0-1.5 0.4-2.9 1.1-4.2 0.8-1.4 2.1-2.4 4.2-3.1q3.1-1.1 8-1.9 4.8-0.8 12.3-0.8 7.8 0 12.8 0.8 4.9 0.8 7.8 1.9c1.8 0.7 3.2 1.7 4.2 3.1 0.9 1.3 1.4 2.7 1.4 4.2v413.3q0 2.5-1.1 4.4c-0.8 1.2-2 2.2-3.8 2.9zm-46.9-203.7q-20.9-25.8-40.3-39.3-19.5-13.5-40.7-13.5c-13.1 0-24.2 3.1-33.4 9.3q-13.7 9.4-22.2 24.6c-5.8 10.1-9.9 21.6-12.5 34.4-2.6 12.8-3.9 25.8-3.9 39.1 0 14.1 1.1 27.8 3.2 41.3 2.3 13.4 6 25.4 11.4 35.8 5.4 10.5 12.6 18.9 21.6 25.1 8.9 6.3 20.1 9.5 33.6 9.5q10.3 0 19.8-2.8 9.5-2.8 19.5-9.3c6.6-4.3 13.6-10 20.9-16.9 7.2-6.9 14.9-15.5 23-25.6zm-258.2 203.6q-2.8 1.2-7.8 1.9-5 0.6-12.5 0.6-7.8 0-12.8-0.6c-3.3-0.4-5.9-1.1-7.8-1.9-1.8-0.9-3.2-1.8-4-2.9q-1.3-1.8-1.2-4.2v-163.6q0-23.9-3.8-38.5-3.7-14.5-10.9-25.1c-4.8-7-11-12.4-18.5-16.1-7.6-3.8-16.4-5.6-26.4-5.6q-19.3 0-38.6 13.6c-12.9 9.2-26.4 22.5-40.6 40.1v195.2q0.1 2.4-1.2 4.2c-0.9 1.1-2.2 2-4 2.9-1.9 0.8-4.5 1.5-7.9 1.9q-4.9 0.6-12.7 0.6-7.5 0-12.5-0.6c-3.3-0.4-6-1.1-8-1.9-1.9-0.9-3.3-1.8-4-2.9q-1.1-1.8-1.1-4.2v-279.3c0-1.7 0.3-3.1 0.9-4.2q1-1.7 3.8-3.1 2.8-1.4 7.2-1.9 4.3-0.4 11.5-0.5 6.8 0.1 11.4 0.5 4.5 0.5 7 1.9 2.5 1.4 3.6 3.1c0.7 1.1 1.1 2.5 1.1 4.2v36.9q23.6-26.4 47.2-38.6c15.7-8.2 31.5-12.3 47.5-12.3 18.7 0 34.4 3.1 47.2 9.5 12.8 6.3 23.1 14.7 31.1 25.2 7.8 10.6 13.5 23 16.9 37.1q5.2 21.3 5.2 51.1v170.4q0 2.4-1.3 4.2c-0.8 1.1-2.2 2-4 2.9zm-294.8 1.5c-2.9 0.7-7.1 1-12.7 1-5.4 0-9.8-0.3-13-1-3.2-0.6-5.5-1.5-7-2.7q-2.2-1.9-2.2-5.6v-27.9c-12.2 13-25.9 23.1-41 30.3q-22.6 10.9-47.8 10.9c-14.7 0-28.1-1.9-40.1-5.7q-17.9-5.7-30.5-16.6c-8.4-7.2-15-16.2-19.6-26.7-4.7-10.5-7.1-22.5-7.1-36q0-23.6 9.7-41c6.5-11.6 15.7-21.2 27.7-28.8q18.1-11.5 44.3-17.3 26.2-5.7 58.9-5.7h38.7v-21.7q0-16.1-3.5-28.6c-2.3-8.3-6-15.1-11-20.6-5.1-5.5-11.7-9.6-19.8-12.4q-12.2-4.2-29.9-4.2c-12.7 0-24.1 1.5-34.2 4.5q-15.1 4.5-26.5 9.9-11.4 5.4-19 10-7.6 4.4-11.3 4.4-2.6 0-4.4-1.2c-1.3-0.8-2.3-2-3.3-3.7q-1.4-2.5-2-6.4c-0.5-2.6-0.6-5.4-0.6-8.5q0-7.8 1-12.3 1.1-4.5 5.4-8.5 4.2-4 14.4-9.5c6.9-3.6 14.8-6.9 23.7-9.9q13.4-4.5 29.3-7.5c10.6-1.9 21.3-2.9 32.1-2.9q30.3 0 51.5 6.8 21.2 6.8 34.3 20c8.7 8.8 15 19.8 19 32.8 3.9 13 5.9 28.2 5.9 45.6v188.4q0 3.7-2.5 5.6c-1.7 1.2-4 2.1-6.9 2.7zm-41.7-135.9h-44c-14.1 0-26.4 1.2-36.8 3.6q-15.5 3.6-25.8 10.5-10.3 7-15.1 16.8-4.9 9.8-4.9 22.5 0 21.7 13.9 34.6c9.2 8.6 22.2 12.9 38.8 12.9 13.5 0 26-3.4 37.6-10.3q17.3-10.2 36.3-31.3zm-199.3 194.2c-5.3 9.3-12.4 17.7-21.7 25-11.1 8.8-25.4 15.7-42.6 20.8q-25.9 7.6-61.1 7.6c-22.6 0-41.9-1.9-57.8-5.7-15.9-3.8-28.9-9.1-39.1-15.7q-15.3-9.9-22.1-23.7-6.9-13.8-6.9-30 0-10.2 2.5-19.8 2.5-9.7 7.6-18.3c3.5-5.8 7.7-11.4 12.8-16.6 5.1-5.3 11-10.5 17.6-15.7-0.6-0.4-1.1-0.9-1.8-1.2-9.2-5-16.2-11-20.8-18.4-4.9-7.8-7.3-16.3-7.3-25.4 0-6 0.7-11.7 1.9-17.1 1.2-5.9 3.1-11.6 5.9-16.7 5.2-9.9 11.6-18.9 19.3-26.7-6.4-7.7-11.5-16.3-15.3-25.9-3.7-9.6-5.6-21.3-5.6-34.9q0-23.9 8.1-42.9c5.4-12.6 12.9-23.3 22.5-31.9 9.6-8.7 21-15.4 34.4-20q20.1-7.1 43.8-7.1c7.7 0 14.8 0.5 21.6 1.3v-0.1c0 0 0.8 0.1 1.8 0.2 8.6 1.2 50.1 8.7 71.9 45.2 7.6 12.7 12.9 28.8 13.4 49.5 0.1 1.1 0.1 2.1 0.1 3.2v0.2c0 14.1-2.1 26.7-6.1 37.9-0.6 1.7-1 3.3-1.7 4.8-5.2 12.4-12.6 22.9-22.3 31.5q-14.5 12.9-34.4 19.7-20 6.8-44.3 6.8-17.1 0-32.6-4.5c-10.3-3-18.2-6.7-23.8-11.3q-5.6 5.6-9.2 12.7-3.6 7.2-3.6 16.5c0 7.2 3.4 13.2 10.2 17.9 5.2 3.8 12.3 5.8 20.4 6.8 2.2 0.4 4.1 1 6.5 1l73.3 3.1q20.8 0.7 38.3 5.8 17.5 5.1 30.2 14.6c8.5 6.3 15.2 14 20 23.2 4.7 9.2 7.2 19.9 7.2 32.2 0 12.8-2.8 25-8.2 36.6-0.9 1.9-1.9 3.7-3 5.5zm-169.8-215.3c10.5 10.5 25.2 15.8 44.1 15.8q15.3 0 26.5-4.8 11.2-4.8 18.6-13.4c4.8-5.6 8.5-12.2 10.8-19.7q3.6-11.1 3.6-23.2 0-28.6-15.7-44.5-15.7-16-44.7-16-15 0-26 4.9-11.1 5-18.5 13.7c-4.8 5.8-8.5 12.4-10.8 20-2.4 7.6-3.6 15.5-3.6 23.8 0 18.3 5.2 32.8 15.7 43.4zm114.7 148.2c-1.2-0.8-2.5-1.4-3.8-2.1-9.5-5.1-21.4-8-36.3-8.3l-72.6-2.5q-0.1 0.1-0.4 0.3c-6.4 5-11.8 9.9-15.9 14.4-4.3 4.7-7.7 9.2-10.1 13.4-2.6 4.2-4.3 8.4-5.2 12.5q-1.4 6.3-1.4 12.8 0 20.2 20.6 30.5c13.7 7 32.8 10.5 57.3 10.5q23.4 0 39.1-4.6 15.8-4.5 25.4-11.9c6.5-5 11.1-10.7 13.9-17.1 2.8-6.4 4.2-13.1 4.2-20.2 0-11.9-4.9-21.2-14.8-27.7zm-237.2 7.3q-2.8 1.2-7.8 1.8-4.9 0.6-12.8 0.6c-4.9 0-9.1-0.2-12.4-0.6q-5-0.6-8-1.8c-1.9-0.9-3.3-1.9-4-3q-1.1-1.7-1.1-4.2v-279.3q0-2.1 1.1-4c0.7-1.2 2.1-2.3 4-3.1q3-1.3 8-1.9c3.3-0.4 7.5-0.6 12.4-0.6 5.2 0 9.5 0.2 12.8 0.6q5 0.6 7.8 1.9 2.9 1.2 4.1 3.1c0.8 1.2 1.2 2.6 1.2 4v279.3c0 1.7-0.4 3.1-1.2 4.2-0.8 1.1-2.2 2.1-4.1 3zm-92.2-5.2c-1 2-2.1 3.5-3.5 4.4-1.3 0.9-2.9 1.4-4.8 1.4h-178.3c-4.8 0-9.3-1.6-13.6-4.8q-6.3-4.8-6.3-17v-371.7c0-1.7 0.4-3.1 1.2-4.4 0.8-1.2 2.3-2.2 4.4-2.9q3.1-1.1 8.4-1.9 5.3-0.7 12.8-0.7 7.8 0 12.9 0.7 5.1 0.8 8.3 1.9c2 0.7 3.5 1.7 4.3 2.9 0.9 1.3 1.3 2.7 1.3 4.4v347.3h144.6q2.8 0 4.8 1.4 2.1 1.3 3.5 4c0.9 1.7 1.6 4.1 2 6.9q0.6 4.4 0.6 10.6 0 6.2-0.6 10.4-0.6 4.2-2 7.1z"/>
		<path id="Layer" fill-rule="evenodd" class="s1" d="m614 106.2q0 18-7.1 24.5c-4.7 4.3-13.3 6.5-25.9 6.5-12.4 0-20.9-2.2-25.5-6.4-4.5-4.2-6.8-12.2-6.8-23.9q0-18 7-24.5c4.7-4.3 13.4-6.4 25.9-6.4q18.6 0 25.5 6.3 6.8 6.3 6.9 23.9z"/>
	</g>
</svg>