<svg version="1.2" xmlns="http://www.w3.org/2000/svg" viewBox="0 0 1518 1532" width="1518" height="1532">
	<title>Labcorp_Logo-svg</title>
	<defs>
		<clipPath clipPathUnits="userSpaceOnUse" id="cp1">
			<path d="m0 0.77h1517.6v1531.23h-1517.6z"/>
		</clipPath>
	</defs>
	<style>
		.s0 { fill: #4cd5f7 } 
		.s1 { fill: #2998e3 } 
		.s2 { fill: #3a5ce9 } 
	</style>
	<g id="Official-">
		<g id="BrandPage1">
			<g id="Labcorp_Logo_Horizontal_Color_RGB">
				<g id="Group-3">
					<g id="Clip-2">
					</g>
					<g id="Clip-Path: Fill-1" clip-path="url(#cp1)">
						<path id="Fill-1" fill-rule="evenodd" class="s0" d="m1248.9 181c316.3 254.9 359.2 722.4 97.5 1056.3-260.6 341-736.5 396.7-1064.8 111.1-329.5-293.2-377.1-792.4-104.3-1101.9 273.7-302.9 754.3-326.9 1071.6-65.5z"/>
					</g>
				</g>
				<path id="Fill-11" fill-rule="evenodd" class="s1" d="m1237.6 255.3c232.9 187.8 264.5 532.1 71.8 778-191.9 251.1-542.4 299.1-784.2 88.7-242.7-215.9-277.7-590.4-76.8-818.4 201.6-223.1 555.5-240.8 789.2-48.3z"/>
				<path id="Fill-12" fill-rule="evenodd" class="s2" d="m1217.4 326.1c176.6 142.7 200.5 404.3 54.4 591.2-145.5 190.9-411.2 222.1-594.6 62.2-184-164.1-210.5-443.5-58.2-616.7 152.8-169.5 421.2-183 598.4-36.7z"/>
			</g>
		</g>
	</g>
</svg>