<svg version="1.2" baseProfile="tiny-ps" xmlns="http://www.w3.org/2000/svg" viewBox="0 0 1579 1893" width="1579" height="1893">
	<title>lianbio_logo_V_white-svg</title>
	<style>
		tspan { white-space:pre }
		.shp0 { fill: #ebbba5 } 
	</style>
	<g id="#ffffffff">
		<path id="Layer" class="shp0" d="M1165.04 28.65C1313.54 -46.74 1512.85 37.83 1562.43 196.56C1615.49 342.88 1531.45 520.21 1381.46 565.84C1258.01 612.47 1121.16 554.93 1042.83 455.23C876.48 569.81 705.92 678.19 537.1 789.3C591.89 887.51 590.4 1007.79 536.85 1106.01C707.66 1214.14 874.75 1328.22 1044.81 1437.35C1135.54 1313.34 1319.74 1273.41 1448.65 1360.96C1608.05 1456.94 1620.94 1712.14 1474.92 1826.23C1354.44 1930.88 1149.92 1908.81 1056.71 1778.61C995.97 1702.72 988.54 1599.3 1011.34 1507.78C835.08 1395.93 662.54 1278.37 486.78 1165.28C374.23 1257.29 194.75 1262.75 88.89 1157.84C-33.33 1046.48 -28.62 828.98 102.28 726.55C209.62 627.84 378.94 641.98 488.26 730.27C661.3 614.45 836.07 501.36 1009.61 386.28C971.18 249.38 1029.94 86.44 1165.04 28.65Z" />
	</g>
</svg>