<svg version="1.2" xmlns="http://www.w3.org/2000/svg" viewBox="0 0 1572 361" width="1572" height="361">
	<title>lindblad-svg</title>
	<style>
		.s0 { fill: #006cb5 } 
	</style>
	<g id="Layer">
		<path id="Layer" fill-rule="evenodd" class="s0" d="m550.9 10.8h28.8v113.2h56v26.6h-84.8zm103 32.7h28.2v107.1h-28.2zm-0.6-37.2h29.3v25.8h-29.3c0 0 0-25.8 0-25.8zm55.7 37.2h28.1v14.3c6.2-8.6 13.9-16.3 27.3-16.3 19.9 0 31.4 13.9 31.4 36.1v72.9h-28.2v-64.5c0-12.6-5.5-19-15-19-9.3 0-15.5 6.4-15.5 19v64.5h-28.1zm102.6 55.1v-3.2c0-36.5 19.2-53.9 40.4-53.9 14.3 0 22.6 7.8 28.8 15.8v-51h28.1v144.2h-28.1v-14.7c-6.2 8.9-14.7 16.7-28.8 16.7-21 0-40.4-17.3-40.4-53.9zm69.5-0.6v-2c0-18.1-9.1-29.7-20.8-29.7-11.6 0-20.6 11.6-20.6 29.7v2c0 18.2 9 29.8 20.6 29.8 11.7 0 20.8-11.6 20.8-29.8zm80.5 38.8v13.8h-28.1v-144.3h28.1v52c6.2-9 14.7-16.8 28.8-16.8 21 0 40.4 17.4 40.4 53.9v3.2c0 36.6-19.2 53.9-40.4 53.9-14.3 0-22.8-7.8-28.8-15.7zm41.1-38.8v-2c0-18.1-9-29.7-20.7-29.7-11.6 0-20.7 11.6-20.7 29.7v2c0 18.2 9.1 29.8 20.7 29.8 11.7 0 20.7-11.6 20.7-29.8zm45.7-91.6h28.1v144.2h-28.1zm50.9 113.6v-1.2c0-23.6 15.3-34.1 37-34.1q2.9-0.1 5.7 0.2 2.9 0.3 5.7 0.8 2.8 0.6 5.5 1.4 2.7 0.8 5.3 1.9v-3.2c0-12.4-7.3-18.7-20-18.7-9.9 0-17.8 3.2-24.4 6l-7.7-22.2q4.2-2.2 8.6-3.8 4.4-1.7 9-2.8 4.6-1.1 9.3-1.6 4.7-0.5 9.4-0.4c14.4 0 25.3 4 32.3 11 7.3 7.4 10.9 18.6 10.9 32.3v65h-27.6v-11.6c-6.3 8.3-15 13.5-27.5 13.5-17.4 0-31.5-11.7-31.5-32.5zm59.6-4.6v-9q-1.8-0.8-3.7-1.5-1.9-0.6-3.9-1-2-0.5-4-0.7-2-0.2-4-0.2c-10.3 0-16.9 5.2-16.9 15v0.4c0 8.8 5.6 13.2 13.7 13.4 10.9 0.2 18.8-6.6 18.8-16.4zm46.3-16.8v-3.2c0-36.5 19.2-53.9 40.4-53.9 14.3 0 22.6 7.8 28.7 15.8v-51h28.2v144.2h-28.2v-14.8c-6.1 9-14.6 16.8-28.7 16.8-21 0-40.4-17.3-40.4-53.9zm69.5-0.6v-2c0-18.1-9.1-29.7-20.8-29.7-11.7 0-20.6 11.5-20.6 29.7v2c0 18.2 8.9 29.8 20.6 29.8 11.7 0 20.8-11.6 20.8-29.8zm-723.8 92.2h89.4v26.2h-60.8v30.2h53.5v26.1h-53.5v31.2h61.6v26.1h-90.2zm150 64.1l16.8-31.3h29.1l-30.7 52.1 31.9 54.9h-29.9l-17.6-33.3-17.9 33.3h-29.3l31.7-54.5-30.5-52.5h29.7zm64.8-31.4h28.1v14.8c6.1-9 14.7-16.8 28.7-16.8 21 0 40.4 17.4 40.4 54v3.2c0 36.5-19.2 53.9-40.4 53.9-14.2 0-22.8-7.8-28.7-15.8v43.9h-28.1zm69.1 54.6v-2c0-18.2-8.9-29.8-20.6-29.8-11.7 0-20.8 11.6-20.8 29.8v2c0 18.1 9.1 29.7 20.8 29.7 11.7 0 20.6-11.6 20.6-29.7zm40.3 0.2v-1.8c0-31.8 19.7-54.9 46.4-54.9 30.3 0 45.2 24.9 45.2 56.9 0 1.6 0 5-0.2 9.1h-63.4c2.4 14.2 11.1 21.6 22.9 21.6 8.8 0 15.5-4 22.2-10.6l14.5 17.2c-9.7 10.8-22 17.2-37.8 17.2-28.2 0-49.8-21.4-49.8-54.7zm64.4-9.4c-1.2-14.8-7.5-24-18-24-10.3 0-17 8.8-18.6 24 0 0 36.6 0 36.6 0zm39.3 9.8v-3.2c0-36.6 19.3-53.9 40.5-53.9 14.2 0 22.5 7.7 28.7 15.7v-50.9h28.1v144.2h-28.1v-14.8c-6.2 9-14.7 16.8-28.7 16.8-21 0-40.5-17.4-40.5-53.9zm69.6-0.6v-2c0-18.2-9.1-29.8-20.8-29.8-11.7 0-20.6 11.6-20.6 29.8v2c0 18.1 8.9 29.7 20.6 29.7 11.7 0 20.8-11.6 20.8-29.7zm52.9-54.6h28.2v107.1h-28.2zm-0.6-37.2h29.4v25.8h-29.4zm57.7 117.5v-56.4h-10.8v-23.9h10.8v-27.4h28.1v27.4h21v23.9h-21v50.6c0 6.2 2.8 9.1 8.7 9.1 4.4 0 8.5-1.2 12.1-2.9v22.5q-2.4 1.4-4.9 2.5-2.5 1-5.1 1.7-2.7 0.7-5.4 1.1-2.7 0.3-5.4 0.3c-16.3 0-28.1-6.4-28.1-28.5zm71-80.3h28.1v107h-28.1zm-0.6-37.1h29.3v25.7h-29.3zm46.9 92.1v-2.2c0-31.7 21.4-54.7 50.1-54.7 28.7 0 49.7 22.6 49.7 54.5v2.2c0 31.8-21.2 54.7-49.9 54.7-28.7 0-49.9-22.5-49.9-54.5zm72.1-0.4v-1.4c0-17.4-8.7-30.5-22.2-30.5-14.1 0-22.2 12.9-22.2 30.3v1.4c0 17.2 8.9 30.6 22.4 30.6 13.9 0 22-13 22-30.4zm41.8-54.5h28.2v14.4c6.1-8.6 13.8-16.4 27.3-16.4 19.8 0 31.3 14 31.3 36.1v72.9h-28.1v-64.5c0-12.5-5.6-18.9-15.1-18.9-9.3 0-15.5 6.4-15.5 18.9v64.5h-28.1c0 0 0-107 0-107zm104.4 94.3l12.2-20c9.6 7.4 19.7 12 28.4 12 7.9 0 11.3-3.8 11.3-8.2v-0.4c0-6.2-7.9-8.8-19.4-13.8-15.1-6.6-28-14.2-28-32.3v-0.4c0-20.6 15.9-32.8 36.5-32.8 11.5 0 24.4 4 35.1 11.6l-11.3 20.4c-8-5.2-16.7-9.2-24.2-9.2-6.7 0-10.3 3.4-10.3 7.6v0.4c0 5.5 7.9 8.7 19.2 13.9 15.5 7.4 28.1 15.2 28.1 32.2v0.4c0 22.1-16.2 33.3-37.4 33.3q-5.5 0-10.9-1-5.4-1-10.5-2.9-5.1-1.9-9.9-4.6-4.7-2.7-8.9-6.2zm-1007.3-133.4c-29.1 84.7-115.1 168.8-243.3 168.8-128.2 0-214.8-84.1-243.3-168.8 24.7-86.6 113.9-183.3 255.4-183.3 122 0 210.9 63.2 210.9 63.2 0 0 0.3 23.8-7.4 49.8-60.2-46.9-137.2-68.8-203.6-68.8-98 0-179.1 59.1-209.1 139.1 37.9 78.1 108.7 124.6 197.4 124.6 88.7 0 158.6-46.3 189.1-116.7-10.9-11.3-57-48.5-103.5-62.2q3.5 5.9 6.2 12.1 2.6 6.3 4.4 12.9 1.8 6.6 2.8 13.4 0.9 6.7 0.9 13.6c0 55.8-44.9 101-100.3 101-55.3 0-100.2-45.2-100.2-101 0-44.9 32.8-103.4 112.3-103.4 90.8 0 176.1 44 231.3 105.7zm-187-2.3c0-31.4-25.2-56.8-56.4-56.8-31.1 0-56.3 25.4-56.3 56.8 0 31.4 25.2 56.8 56.3 56.8 31.2 0 56.4-25.4 56.4-56.8z"/>
	</g>
</svg>