<svg version="1.2" xmlns="http://www.w3.org/2000/svg" viewBox="0 0 1553 257" width="1553" height="257">
	<title>NASDAQ_LKFN_2021-24-pdf-svg</title>
	<defs>
		<clipPath clipPathUnits="userSpaceOnUse" id="cp1">
			<path d="m-192-6563.02h5814v7538.67h-5814z"/>
		</clipPath>
	</defs>
	<style>
		.s0 { fill: #000000 } 
		.s1 { fill: #ffffff } 
		.s2 { fill: #00467f } 
	</style>
	<g id="Clip-Path: Page 1" clip-path="url(#cp1)">
		<g id="Page 1">
			<path id="Path 55" fill-rule="evenodd" class="s0" d="m270.2 109q5.2-7.2 12.3-11.9 7.6-4.3 17.1-6.2 9.5-1.9 19-1.9 8.6 0 17.1 1.4 9.1 1 16.2 4.8 7.1 3.3 11.9 9.5 4.7 6.7 4.7 16.7v59.5q0 7.6 0.9 14.7 1 7.1 2.9 11h-31.8q-0.5-2.9-1.4-5.8-0.5-2.8-0.5-5.7-7.6 8.1-17.6 11-10.5 3.3-20.9 3.3-8.1 0-15.2-2.4-7.1-1.9-12.3-6.2-5.3-3.8-8.1-10.4-3.4-6.2-3.4-15.3 0-9.5 3.4-15.7 3.8-6.6 9-10.4 5.2-3.8 12.3-5.3 7.2-1.9 14.3-3.3 6.7-1 13.8-1.4 6.6-1 11.9-2.4 5.2-1 8.5-3.8 2.8-2.4 2.8-7.2 0.1-5.2-1.4-8-1.9-3.4-4.7-4.8-2.9-1.4-6.2-2.4-3.8-0.5-8.1-0.5-9 0-14.2 4.3-5.2 3.8-6.2 12.9h-31.4q0.5-11 5.3-18.1zm62.2 44.2q-3.3 1-6.7 1.5-3.3 0.9-7.1 1.4-3.8 0.5-7.6 1-3.3 0.4-6.6 1.9-3.8 0.9-6.2 2.8-2.4 1.9-4.3 4.8-1.4 2.8-1.4 7.1 0 4.3 1.4 7.2 1.9 2.8 4.3 4.7 2.8 1.4 6.2 2.4 3.8 0.5 7.6 0.5 9 0 14.2-2.9 4.8-3.3 7.6-7.6 2.4-4.3 2.9-8.6 0.4-4.7 0.4-7.1v-11.9q-1.9 1.9-4.7 2.8zm77.9-104.7v84.8l39.4-41h37.1l-43.3 41.9 48 72.4h-38l-31.3-51.4-11.9 11.9v39.5h-31.4v-158.1z"/>
			<path id="Path 56" fill-rule="evenodd" class="s0" d="m520.5 178.9q7.1 6.7 20.4 6.7 9.5 0 16.2-4.7 7.1-4.8 8.5-10h27.6q-6.7 20.9-20.4 29.5-13.4 9-32.8 9-13.8 0-24.3-4.3-10.9-4.3-18.5-12.4-7.6-8-11.4-19-4.3-10.9-4.3-24.3 0-12.8 4.3-23.8 4.3-10.9 11.9-19 7.6-8.1 18.5-12.8 10.5-4.8 23.8-4.8 14.2 0 25.1 5.7 11 5.7 17.6 15.2 7.2 9.6 10.5 21.5 2.8 12.3 1.9 25.7h-82.2q0.5 15.2 7.6 21.8zm35.6-59.9q-5.7-6.2-17.1-6.2-7.6 0-12.3 2.4-5.2 2.4-8.1 6.2-2.9 3.8-4.3 8.1-0.9 4.2-1.4 7.6h50.8q-1.9-11.9-7.6-18.1zm583.8-70.5q11.4 0 20.9 1.9 9 2.4 15.7 6.7 6.6 4.8 10.4 11.9 3.4 7.6 3.4 18.6 0 11.9-5.3 20-5.2 8.1-16.1 13.3 14.7 3.8 21.8 14.3 7.1 10.4 7.1 25.7 0 11.9-4.7 20.4-4.3 8.6-12.3 14.3-7.7 5.2-18.1 8.1-10 2.9-20.4 2.9h-76.5v-158.1zm-4.3 63.8q9.5 0 15.2-4.3 6.2-4.2 6.2-14.2 0-5.8-1.9-9.1-2.4-3.8-5.7-5.7-3.3-1.9-7.6-2.9-4.3-0.4-8.6-0.4h-32.7v36.6zm2.3 67.1q4.8 0 9.5-0.9 4.8-1 8.1-3.4 3.8-2.3 5.7-6.1 1.9-4.3 1.9-10.5 0-11.9-6.6-17.2-6.7-5.2-18.1-5.2h-37.5v43.3zm76-70.4q4.7-7.2 12.3-11.9 7.6-4.3 16.7-6.2 9.5-1.9 19-1.9 8.5 0 17.5 1.4 8.6 1 16.2 4.8 7.1 3.3 11.9 9.5 4.2 6.7 4.2 16.7v59.5q0 8 1 14.7 0.9 7.1 3.3 11h-31.8q-1-2.9-1.4-5.8-0.5-2.8-1-5.7-7.6 8.1-17.6 11-9.9 3.3-20.4 3.3-8.5 0-15.7-1.9-6.6-2.4-12.3-6.7-5.2-3.8-8.1-10.4-2.8-6.2-2.8-15.3 0-9.5 3.3-15.7 3.3-6.6 9-10.4 5.2-3.4 12.4-5.3 6.6-1.9 13.7-3.3 7.2-1 13.8-1.4 7.1-1 12.4-2.4 5.2-1 8-3.8 3.4-2.4 2.9-7.2 0-5.2-1.4-8-1.5-2.9-4.3-4.8-2.9-1.4-6.7-2.4-3.3-0.5-7.6-0.5-9.5 0-14.7 4.3-5.2 3.8-6.2 12.9h-31.3q0.9-11 5.7-18.1zm61.7 44.2q-2.8 1-6.1 1.5-3.8 0.9-7.2 1.4-3.8 0.5-7.6 1-3.8 0.9-7.1 1.9-3.3 0.9-5.7 2.8-2.8 1.9-4.3 4.8-1.4 2.8-1.4 7.1 0 4.3 1.4 7.2 1.5 2.8 4.3 4.7 2.4 1.4 6.2 2.4 3.3 0.5 7.1 0.5 9.5 0 14.3-2.9 5.2-3.3 7.6-7.6 2.3-4.3 2.8-8.6 0.5-4.7 0.5-7.1v-11.9q-1.9 1.9-4.8 2.8zm76.5-60.9v15.7h0.5q6.2-10 15.7-14.2 9.5-4.8 19-4.8 12.8 0 20.9 3.3 8 3.8 12.8 9.5 4.3 6.2 6.2 14.8 1.9 9 1.9 19.5v70.5h-31.4v-64.8q0-14.3-4.3-20.9-4.2-7.2-15.6-7.2-12.9 0-18.6 7.7-5.7 7.6-5.7 25.2v60h-31.3v-114.3zm118.3-43.8v84.8l39.4-41h37l-42.7 41.9 48 72.4h-38l-31.4-51.4-12.3 11.9v39.5h-31.4v-158.1zm-728.2 42.9q-3.3-5.3-7.6-9.1-4.7-3.8-10.4-5.7-6.2-1.9-12.4-1.9-11.8 0-19.9 4.3-8.1 4.8-13.3 12.4-4.8 7.6-7.1 17.1-2.4 9.5-2.4 20 0 10 2.4 19.5 2.3 9.5 7.1 16.7 5.2 7.6 13.3 12.3 8.1 4.3 19.9 4.3 15.7 0 24.7-9.5 9.1-10 11-25.7h33.7q-1.4 14.8-7.1 26.7-5.3 11.9-14.3 20.4-9 8.1-21.4 12.9-11.8 4.3-26.6 4.3-18 0-32.7-6.2-14.3-6.2-24.3-17.6-9.9-11-15.2-25.7-5.2-15.3-5.2-32.4 0-17.6 5.2-32.8 5.3-14.8 15.2-26.2 10-11.4 24.3-17.6 14.7-6.7 32.7-6.7 12.9 0 24.7 3.8 11.4 3.8 20.5 11 9.5 7.1 15.2 17.6 6.1 10.9 7.6 24.7h-33.8q-0.9-6.2-3.8-10.9zm48 1.4h31.4v114.2h-31.4zm0-34.2h31.4v25.2h-31.4zm114.5 34.3v20.9h-22.8v56.6q0 8.1 2.8 10.5 2.4 2.9 10.5 2.9 2.4 0 5.2-0.5 2.4 0 4.3-0.5v24.3q-3.8 0.4-8.6 0.9-4.7 0-9.5 0-7.6 0-13.7-0.9-6.7-1-11.4-3.8-5.3-2.9-8.1-8.1-2.9-5.3-2.9-13.8v-67.6h-19v-20.9h19v-34.3h31.4v34.3zm60.8 156.1q-9 6.1-24.7 6.1-5.2 0-10 0c-2.8-0.4-1.9-0.4-4.7-0.9v-27.1c3.3 0.4 1.4 0.4 4.2 0.9q4.8 0.5 9.5 0 6.2-0.5 9.1-5.2 2.8-4.3 2.8-9.5 0-3.8-1.4-7.7l-39.9-112.7h33.7l25.7 82.3h0.4l24.7-82.3h32.3l-47.5 135.1q-4.7 14.8-14.2 21z"/>
			<path id="Path 57" class="s1" d="m128.4 255.1c-70 0-126.6-56.7-126.6-126.8 0-70.2 56.6-126.9 126.6-126.9 70 0 126.6 56.7 126.6 126.9 0 70.1-56.6 126.8-126.6 126.8z"/>
			<path id="Path 58" fill-rule="evenodd" class="s2" d="m176.6 169.4v-131.8h-36.6v169h88.8c-23.2 29.9-59.8 49.4-100.6 49.4-70.3 0-127.3-57.1-127.3-127.5 0-70.4 57-127.5 127.3-127.5 70.3 0 127.3 57.1 127.3 127.5-0.1 14.3-2.4 28.1-6.7 40.9zm-41.8-131.3l-102.6 168.5h29.4l73.2-120zm0 58.6l-67 109.9h29l38-62.3zm0 57.5l-31.8 51.9h31.8z"/>
		</g>
	</g>
</svg>