<svg version="1.2" xmlns="http://www.w3.org/2000/svg" viewBox="0 0 1511 1508" width="1511" height="1508">
	<title>ll-flooring-seeklogo</title>
	<defs>
		<clipPath clipPathUnits="userSpaceOnUse" id="cp1">
			<path d="m0.95 0.22h7519.33v1507.56h-7519.33z"/>
		</clipPath>
	</defs>
	<style>
		.s0 { fill: #ab7259 } 
	</style>
	<g id="Layer 1">
		<g id="&lt;Clip Group&gt;" clip-path="url(#cp1)">
			<path id="&lt;Path&gt;" class="s0" d="m209.1 698.2l-205.3-204.7c-3.8-3.8-3.8-10.2 0-13.9l106.1-106.4c3.7-3.7 10.2-3.7 13.9 0l311.5 311.1c6.4 6.4 1.9 16.9-7.2 16.9h-212.5c-1.9 0-4.6-1.1-6.5-3zm493.4-483.3v211.9c0 9-10.5 13.5-16.9 7.1l-311.5-311c-3.8-3.7-3.8-10.2 0-13.9l106.5-106c3.7-3.7 10.2-3.7 13.9 0l205.4 205.1c1.5 1.9 3 4.5 2.6 6.8zm-9.4 485.9h-106.5c-3 0-5.2-1.1-7.1-3l-494.2-493.4c-3.8-3.8-3.8-10.2 0-14l106.5-105.9c3.8-3.8 10.2-3.8 13.9 0l494.2 493.4c1.9 1.9 3 4.6 3 7.2v106.3c0 5.3-4.5 9.8-9.8 9.4zm6.8 599.1l-205 205.1c-3.8 3.7-10.2 3.7-14 0l-106.4-106c-3.8-3.7-3.8-10.2 0-13.9l311.4-311c6.5-6.4 17-1.9 17 7.1v212.3c0 1.9-1.5 4.5-3 6.4zm-484.3-493.1h212.5c9.1 0 13.6 10.5 7.2 16.9l-311.5 311.1c-3.7 3.7-10.2 3.7-13.9 0l-106.1-106.4c-3.8-3.7-3.8-10.1 0-13.9l205.3-204.7c1.9-1.9 4.6-3 6.5-3zm486.9 9.4v106.3c0 3-1.1 5.3-3 7.2l-494.1 493.4c-3.8 3.8-10.2 3.8-14 0l-106.1-106.3c-3.8-3.7-3.8-10.1 0-13.9l494.2-493.1c1.9-1.9 4.5-3 7.1-3h106.5c5.3 0 9.8 4.5 9.4 9.4zm599.9-6.4l205.4 204.7c3.7 3.8 3.7 10.2 0 13.9l-106.1 106.4c-3.8 3.7-10.2 3.7-14 0l-311.4-311.1c-6.4-6.4-1.9-16.9 7.1-16.9h212.6c1.9 0 4.1 1.1 6.4 3zm-493.8 483.7v-212.3c0-9 10.6-13.5 17-7.1l311.5 311c3.7 3.7 3.7 10.2 0 13.9l-106.5 106c-3.8 3.7-10.2 3.7-14 0l-205-205.1c-1.8-1.9-3-4.5-3-6.4zm9.8-486.3h106.5c3 0 5.3 1.1 7.2 3l494.1 493.4c3.8 3.8 3.8 10.2 0 14l-106.4 105.9c-3.8 3.8-10.2 3.8-14 0l-494.2-493.4c-1.8-1.9-3-4.6-3-7.2v-106.3c0-5.3 4.6-9.8 9.8-9.4zm-6.8-599.1l205-205.1c3.8-3.7 10.2-3.7 14 0l106.5 106c3.7 3.7 3.7 10.2 0 13.9l-311.5 311c-6.4 6.4-17 1.9-17-7.1v-211.9c0-2.3 1.2-4.9 3-6.8zm484.4 493.1h-212.6c-9 0-13.5-10.5-7.1-16.9l311.4-311.1c3.8-3.7 10.2-3.7 14 0l106.1 106.4c3.7 3.7 3.7 10.1 0 13.9l-205.4 204.7c-2.3 1.9-4.5 3-6.4 3zm-487.4-9.8v-106.3c0-3 1.2-5.3 3-7.2l494.6-493c3.7-3.8 10.2-3.8 13.9 0l106.1 106.3c3.8 3.7 3.8 10.1 0 13.9l-494.1 493.1c-1.9 1.9-4.6 3-7.2 3h-106.5c-5.2 0-9.8-4.5-9.8-9.8z"/>
		</g>
	</g>
</svg>