<?xml version="1.0" encoding="UTF-8"?>
<svg width="150px" height="108px" viewBox="0 0 150 108" version="1.1" xmlns="http://www.w3.org/2000/svg" xmlns:xlink="http://www.w3.org/1999/xlink">
    <!-- Generator: Sketch 53.2 (72643) - https://sketchapp.com -->
    <title>lendlease official</title>
    <desc>Created with Sketch.</desc>
    <defs>
        <linearGradient x1="100%" y1="21.5641104%" x2="0%" y2="21.5641104%" id="linearGradient-1">
            <stop stop-color="#03ABC9" offset="0%"></stop>
            <stop stop-color="#8DEE0F" offset="100%"></stop>
        </linearGradient>
        <linearGradient x1="0%" y1="70.0708935%" x2="100%" y2="70.0708935%" id="linearGradient-2">
            <stop stop-color="#4EA0A5" offset="0%"></stop>
            <stop stop-color="#989D9E" offset="100%"></stop>
        </linearGradient>
        <linearGradient x1="9.67280366%" y1="10.1623481%" x2="95.0312063%" y2="55.8779101%" id="linearGradient-3">
            <stop stop-color="#CBFF00" offset="0%"></stop>
            <stop stop-color="#FBFF00" offset="100%"></stop>
        </linearGradient>
    </defs>
    <g id="Page-1" stroke="none" stroke-width="1" fill="none" fill-rule="evenodd">
        <g id="Artboard" fill-rule="nonzero">
            <g id="lendlease-official">
                <path d="M35.400866,27.798 C32.9877023,27.4631598 30.5590173,28.2949927 28.857866,30.039 L7.799866,51.624 C6.1858887,53.2729955 3.59366062,53.4542882 1.765866,52.046 L68.992866,103.951 C72.2387165,106.457167 76.3471974,107.571277 80.4144876,107.048238 C84.4817779,106.525199 88.1747053,104.407856 90.680866,101.162 C90.845866,100.945 91.005866,100.725 91.158866,100.504 L130.581866,43.463 C131.557244,42.0496167 133.245823,41.3064873 134.946866,41.542 L35.400866,27.798 Z" id="path4" fill="url(#linearGradient-1)"></path>
                <path d="M138.777866,68.486 L107.410866,76.986 L130.576866,43.467 C131.515509,42.1064703 133.118782,41.3627833 134.763716,41.5249072 C136.40865,41.687031 137.83589,42.729404 138.490866,44.247 L146.410866,62.571 C146.99255,63.923103 148.060191,65.0078723 149.402866,65.611 L138.777866,68.486 Z" id="path6" fill="url(#linearGradient-2)"></path>
                <path d="M6.748866,4.341 C6.98027877,2.81480149 6.60990744,1.25838138 5.715866,0 L59.367866,31.108 L35.400866,27.798 C32.9877023,27.4631598 30.5590173,28.2949927 28.857866,30.039 L7.799866,51.624 C6.41841795,53.0368585 4.28273737,53.3960457 2.51512297,52.5128089 C0.747508577,51.6295721 -0.247543476,49.7060289 0.052866,47.753 L6.748866,4.341 Z" id="path8" fill="url(#linearGradient-3)"></path>
                <path d="M51.7433641,53.498174 L51.7433641,61.015256 L48.8272494,61.015256 L48.8272494,54.1422687 C48.8272494,52.7900357 47.9733359,52.415127 47.1194224,52.415127 C46.6712199,52.4218346 46.227556,52.5060276 45.8080552,52.6639818 L45.8080552,61.015256 L42.8925505,61.015256 L42.8925505,50.8109894 C44.0160567,50.3303581 45.7462481,49.8119106 47.3906416,49.8119106 C50.391131,49.8119106 51.7433641,51.3105288 51.7433641,53.498174 Z M95.3781416,54.4130813 L93.7943354,53.8728793 C93.1500373,53.6441525 92.9215138,53.3733399 92.9215138,53.0606449 C92.9215138,52.621896 93.3602626,52.3106242 94.1708706,52.3106242 C95.0994167,52.3442611 96.0061204,52.6015557 96.8139362,53.0606449 L98.086674,50.7904548 C97.4206214,50.3935884 95.835392,49.8117073 94.1298014,49.8117073 C91.7321342,49.8117073 89.8789386,51.2261541 89.8789386,53.2680239 C89.8789386,55.2891559 91.3151398,56.143476 92.62976,56.5793786 L94.0252986,57.0380521 C94.7521417,57.2887367 95.1069224,57.4971323 95.1069224,57.9547893 C95.1069224,58.3512491 94.7348601,58.7249379 93.7532662,58.7249379 C92.7448948,58.6958052 91.7620384,58.4012638 90.9038381,57.8710244 L89.6514316,60.1847234 C90.4646826,60.6828397 91.9622842,61.2256847 93.7937254,61.2256847 C96.2334783,61.2256847 98.169219,59.850274 98.169219,57.664052 C98.1698289,55.8305777 97.0259914,54.9776808 95.3781416,54.4130813 L95.3781416,54.4130813 Z M30.748477,58.7044034 C30.1663927,58.7044034 29.9159114,58.4120396 29.9159114,57.7258591 L29.9159114,46 L27,46 L27,58.5606612 C27,60.3719745 28.1249294,61.2260913 29.8335697,61.2260913 C30.5928742,61.230454 31.3472202,61.1035489 32.0633005,60.8509793 L31.7491824,58.5372803 C31.4237536,58.6339189 31.0876479,58.6900504 30.748477,58.7044034 L30.748477,58.7044034 Z M59.4515601,46 L62.3676748,46 L62.3676748,60.2652353 C60.9631895,60.8872357 59.4458538,61.2139411 57.9098396,61.2250747 C54.891052,61.2250747 53.4316731,59.4123383 53.4316731,57.2248965 L53.4316731,53.5807189 C53.4316731,51.394497 54.891052,49.8119106 57.4105035,49.8119106 C58.1030935,49.8115982 58.7915948,49.9180279 59.4517634,50.127452 L59.4517634,46 L59.4515601,46 Z M59.4515601,52.560089 C59.0017523,52.4046941 58.5303944,52.3206578 58.0545983,52.3110308 C57.2006847,52.3110308 56.3467712,52.8105703 56.3467712,54.1642265 L56.3467712,56.8093253 C56.3467712,58.2660611 57.3037643,58.7046067 58.2650269,58.7046067 C58.6698853,58.7051232 59.0716936,58.6345883 59.45217,58.4962111 L59.45217,52.559479 L59.4515601,52.560089 Z M41.310574,54.225017 L41.310574,56.476299 L35.5192105,56.476299 L35.5192105,56.6629401 C35.5192105,57.9139234 36.2692313,58.7044034 37.5389193,58.7044034 C38.6030582,58.7044034 39.3703605,58.4120396 40.2681896,57.9342547 L41.0790008,60.2451073 C39.9013581,60.9183458 38.5622162,61.2571911 37.2060964,61.2250747 C34.8533613,61.2250747 32.6035025,59.9553867 32.6035025,56.7267803 L32.6035025,54.4346324 C32.6035025,51.6028926 34.3113295,49.8119106 37.0194553,49.8119106 C39.8526183,49.8119106 41.3103707,51.7057688 41.3103707,54.2248137 L41.310574,54.225017 Z M38.4961157,54.1005896 C38.4961157,53.0610516 38.0181275,52.3317687 37.0393799,52.3317687 C36.0173268,52.3317687 35.540965,53.0614582 35.540965,54.1005896 L35.540965,54.2886539 L38.4961157,54.2886539 L38.4961157,54.1003863 L38.4961157,54.1005896 Z M68.0110266,58.7046067 C67.4291455,58.7046067 67.1774443,58.4122429 67.1774443,57.7260624 L67.1774443,46 L64.2643794,46 L64.2643794,58.5606612 C64.2643794,60.3719745 65.3848359,61.2260913 67.0930695,61.2260913 C67.8533864,61.230671 68.6087711,61.1037647 69.3258501,60.8509793 L69.0099021,58.5372803 C68.6850482,58.6340019 68.34947,58.6901365 68.0108233,58.7044034 L68.0110266,58.7046067 Z M88.4846198,53.2883552 L88.4846198,60.2652353 C87.0958192,60.8650299 85.6042453,61.190945 84.0918446,61.2250747 C81.2395702,61.2250747 79.6760952,59.849664 79.6760952,57.6012284 C79.6760952,55.7045238 81.0716339,54.2882473 83.5504228,54.2882473 L85.5715548,54.2882473 L85.5715548,53.8307936 C85.5715548,52.8317148 84.8192976,52.4350516 83.7791497,52.4350516 C82.8235798,52.4350516 81.6114292,52.7898324 80.5706713,53.3296277 L80.2797307,50.7068933 C81.5787373,50.1069617 82.9942638,49.8014874 84.4250742,49.8123172 C86.1322913,49.8119106 88.4836032,50.5605081 88.4836032,53.2881519 L88.4846198,53.2883552 Z M85.5715548,56.476299 L84.0294276,56.476299 C83.1318019,56.476299 82.6121345,56.9557105 82.6121345,57.6014317 C82.6121345,58.3715804 83.298315,58.8089061 84.2589677,58.8089061 C84.7043095,58.8069281 85.1467126,58.7366455 85.5707415,58.6005105 L85.5707415,56.476299 L85.5715548,56.476299 Z M78.5702772,54.2248137 L78.5702772,56.476299 L72.7831833,56.476299 L72.7831833,56.6629401 C72.7831833,57.9139234 73.5301543,58.7044034 74.7998424,58.7044034 C75.8625581,58.7044034 76.6343332,58.4120396 77.5289093,57.9342547 L78.3421603,60.2451073 C77.1639184,60.9181444 75.8243781,61.2569659 74.4678327,61.2250747 C72.1120479,61.2250747 69.8619858,59.9553867 69.8619858,56.7267803 L69.8619858,54.4346324 C69.8619858,51.6028926 71.5698128,49.8119106 74.2793617,49.8119106 C77.1121182,49.8119106 78.5702772,51.7057688 78.5702772,54.2248137 Z M75.7598851,54.1003863 C75.7598851,53.0608482 75.2790505,52.3315654 74.3005063,52.3315654 C73.2782498,52.3315654 72.8006682,53.0612549 72.8006682,54.1003863 L72.8006682,54.2884506 L75.7600885,54.2884506 L75.7600885,54.1003863 L75.7598851,54.1003863 Z M108,54.2248137 L108,56.476299 L102.21128,56.476299 L102.21128,56.6629401 C102.21128,57.9139234 102.958657,58.7044034 104.229565,58.7044034 C105.292281,58.7044034 106.064056,58.4120396 106.960055,57.9342547 L107.773306,60.2451073 C106.595357,60.9175854 105.25643,61.2563762 103.900402,61.2250747 C101.544007,61.2250747 99.2941484,59.9553867 99.2941484,56.7267803 L99.2941484,54.4346324 C99.2941484,51.6028926 101.001975,49.8119106 103.712338,49.8119106 C106.543264,49.8119106 108,51.7057688 108,54.2248137 Z M105.188185,54.1003863 C105.188185,53.0608482 104.7104,52.3315654 103.731652,52.3315654 C102.709396,52.3315654 102.230391,53.0612549 102.230391,54.1003863 L102.230391,54.2884506 L105.187575,54.2884506 L105.187575,54.1003863 L105.188185,54.1003863 Z" id="path2" fill="#FFFFFF"></path>
            </g>
        </g>
    </g>
</svg>