<svg version="1.2" baseProfile="tiny-ps" xmlns="http://www.w3.org/2000/svg" viewBox="0 0 1284 1739" width="1284" height="1739">
	<title>lemonade-svg copy-svg</title>
	<style>
		tspan { white-space:pre }
		.shp0 { fill: #4a4a4a } 
	</style>
	<g id="Layer">
		<path id="Layer" fill-rule="evenodd" class="shp0" d="M791.11 1088.54C767.91 1233.84 746.62 1323.42 746.62 1323.42C746.62 1323.42 835.69 1358.33 964.4 1493.72C1078.15 1613.33 1139.6 1707.16 1111.7 1734.03C1086.25 1758.54 1030.18 1690.16 907.44 1579.91C796.71 1480.43 718.68 1442.35 718.68 1442.35C718.68 1442.35 643.72 1718.29 246.54 1678.36C-92.14 1644.31 -61.71 1299.45 215.07 1241.35C395.19 1203.54 564.51 1257.35 564.51 1257.35C564.51 1257.35 592.13 1112.1 608.23 996.66C624.82 877.63 635.94 780.46 635.94 780.46C635.94 780.46 367.61 745.09 307.03 525.5C289.13 460.56 346.59 428.77 384.66 497.1C465.18 641.49 647.43 665.64 647.43 665.64C715.88 164.32 861.91 -3.45 1050.48 0.58C1237.21 4.56 1326.72 192.13 1263.52 412.18C1154.83 790.36 835.78 788.23 835.78 788.23C835.78 788.23 815.7 934.75 791.11 1088.54ZM1056.81 168.21C912.63 156.32 852.59 666.05 852.59 666.05C852.59 666.05 1042.39 658.4 1121.74 402.77C1148.82 315.54 1156.32 176.44 1056.81 168.21ZM292.02 1528.32C497.05 1535.96 533.54 1371.67 533.54 1371.67C533.54 1371.67 412.96 1320.89 268.46 1352.63C110.27 1387.36 119.76 1521.9 292.02 1528.32Z" />
	</g>
</svg>