<svg version="1.2" xmlns="http://www.w3.org/2000/svg" viewBox="0 0 1561 1601" width="1561" height="1601">
	<title>Footer-Logo-White-svg</title>
	<style>
		.s0 { fill: #ad112b } 
	</style>
	<g id="LFG">
		<g id="Layer">
			<path id="Layer" class="s0" d="m146.6 0.5h1268c80.2 0 146.1 65 146.1 146v1308.1c0 80.2-65 146-146.1 146h-289.5c-33-27.8-70.9-60.8-86.1-70.9-20.3-13.5-36.3-22.8-27.9-41.3 16-32.1 31.2-73.5 42.2-69.2 11 3.3 62.5 10.9 76.8 18.5 7.6 3.4 36.3 3.4 65.9-10.9 47.3-22 59.1-58.3 65.8-62.5 7.6-3.4 22-25.3 22-25.3 6.7-6.8 10.1-16 11-26.2 4.2-18.5 7.6-54.8-7.6-76.8-11-18.5-36.3-43.9-54.9-51.5-25.3-10.9-32.9-18.5-32.9-36.2-3.4-14.4 29.5-18.6 32.9-43.9 0-15.2-8.5-29.6-23.7-29.6v-5.9c13.6-1.7 34.7-8.4 31.3-30.4-2.6-13.5-8.5-26.1-18.6-36.2 0 0-3.4-22 7.6-29.6 15.2-7.6 48.1 0 73.5-3.4 26.1-3.3 51.5-7.6 51.5-32.9 0-39.6-25.4-65.8-51.5-106.3-25.4-40.5-51.5-65.8-54.9-73.4-2.6-8.5-3.4-16.9-4.2-24.5 0 0 22.8-19.4 30.4-26.2 13.5-12.6 29.5-30.4 18.5-52.3-3.4-11-18.5-11-25.3-21.9-11-11-7.6-33-18.6-43.9-7.6-11-7.6-32.9-18.5-51.5-7.6-22-17.8-59.1-17.8-59.1 0 0 39.7-25.3 43.1-36.3 11-23.6 16-49.8 15.2-75.9 0 0 14.3-58.3-22-95.4-10.1-15.2-24.5-27.9-39.7-36.3-18.5-13.5-38.8-25.3-59-36.3-27.1-11-55.8-19.4-83.6-27-14.4-7.6-31.3-11-47.3-11-11.8 4.3-24.5 4.3-36.3 0-11 0-54.9-14.3-81.1-10.9-21.9 0-51.4 14.3-98.7 18.5-47.3 7.6-87.8-3.3-113.2 3.4-26.1 11-40.5 7.6-54.8 14.4-11 5-22 9.2-33.8 11.8 0 0-25.3 7.6-36.3 10.9-9.3 7.6-19.4 15.2-29.5 22l-22 21.9c-7.6 0-29.5 11-32.9 18.6l-14.4 14.3c-6.7 2.6-13.5 6-18.5 11-7.6 7.6-22 29.6-28.7 32.9-11 3.4-22.8 14.4-49 36.3-25.3 25.3-54.9 62.5-59.1 73.4-3.4 7.6-22 43.9-22 51.5-3.3 11-10.9 47.3-18.5 54.9-3.4 7.6-25.4 51.5-25.4 59.1-3.3 10.9-3.3 47.2-7.6 58.2-3.3 11-18.5 54.8-18.5 87.8 0 29.5 18.5 51.4 18.5 62.4 6.8 27.9 10.2 55.7 11 84.4 4.2 18.6 21.1 80.2 28.7 95.4 4.2 11.8 10.2 22.8 18.6 32.9 5.9 21.1 16.9 41.3 31.2 57.4 22 26.1 43.9 52.3 54.9 59.9 22 18.6 27.9 64.1 27.9 64.1 0 0-33.8 6.8-41.4 13.5-7.6 11-37.1 88.7-68.4 141.8-29.5 49.8-81.9 100.5-85.3 122.4-3.3 20.3 23.7 38.8 16.9 42.2-4.2 2.5-35.4 42.2-60.8 75.1h-21.9c-81.9-0.8-147.7-65.8-147.7-146.8v-1308.2c0-80.1 65.8-145.1 146-145.1z"/>
		</g>
	</g>
</svg>