<svg version="1.2" xmlns="http://www.w3.org/2000/svg" viewBox="0 0 2767 489" width="2767" height="489">
	<title>a287e885-9ace-4e6c-ae3b-7012d2d8e86f-svg</title>
	<style>
		.s0 { fill: #e49514 } 
	</style>
	<g id="#e49514ff">
		<path id="Layer" fill-rule="evenodd" class="s0" d="m0 0.5q51.4 0.2 102.8 0c0.3 12.9 0.2 25.7 0.4 38.5-0.2 84.3 0 168.7 0 253 0 21.6-0.7 43.7 5.9 64.5 4.8 15.5 16.4 27.9 29.9 36.4 10.5 6.8 22.8 10.4 35 12.6 21.5 3.6 43.3 2.7 65 2.8 32.3 0 64.5 0 96.8 0-0.1 26.9 0 53.8-0.1 80.7h-164.2c-27.9-1.4-56.4-4.7-82-16.8-21.7-10.1-39.9-26.4-55-44.7-9.3-11.9-17-25.1-22.1-39.3-9.2-24.5-11.3-50.9-12.4-76.8zm518.5 88.6c12.4-29.6 25-59 37.5-88.6 36.3 0.1 72.7 0 109 0 69.4 162.8 138.8 325.6 208.2 488.4h-114.8c-13.1-35.1-27.1-70-40.4-105.1-1.4-3.5-2.5-7.2-4.4-10.4-3-1.3-6.5-0.2-9.6-0.3-28.7 0-57.4 0.1-86 0-13.3-0.9-26.5-0.5-39.8-0.6-15.2-26.5-30.4-53.2-45.8-79.7-25 65.3-49.2 130.8-74.1 196.1h-108.2l-0.7-0.4c48.2-114 96.4-228 144.7-341.9 5.5-13.5 11.7-26.7 16.9-40.4q0 0.7 0 1.5c1.9-6.4 5-12.4 7.5-18.6zm87.5 10.2c-2.1 6-4.4 12-6.8 18-2.1 5.7-4.9 11.3-5.7 17.5q0-1.9 0.1-3.8c-3.2 10.4-7.5 20.3-11.2 30.5q-23.6 62-47.2 124.1c48.3 0.1 96.6 0.1 144.9 0-15.9-41.4-32.5-82.5-48.7-123.8-8-20.7-16.5-41.3-24.3-62.1-0.3-0.1-0.9-0.3-1.1-0.4z"/>
		<path id="Layer" fill-rule="evenodd" class="s0" d="m2580.5 0h186.5v83.6c-56.7 0.2-113.3-0.1-170 0.1-23.2 0.5-47.4 4-67 17.2-12.7 8.6-23.2 20.4-30.2 34-7.1 13.2-11.5 27.8-14.7 42.4-5.6 26.8-7.1 54.3-6.8 81.7-0.2 19.4 1.1 38.8 4.4 58 2.7 13.8 6.6 27.5 13.3 40 6.1 11.6 15.1 21.8 26 29 9.7 6.5 20.8 10.6 32.1 13.2 15.7 3.4 31.8 4.6 47.9 4.3 55 0.1 110 0 165 0.1v85.4h-190.2c-6.9-0.8-13.9-0.5-20.9-1.2-28.8-1.7-58-7.4-83.7-21.1-23.6-12.4-44.9-29.6-61.2-50.8-17.3-22.6-29-49.2-35.8-76.7-9.5-37.9-10.6-77.3-8.8-116.2 1.8-31.8 6.3-63.7 16.8-93.9 9.4-28 24.5-54.4 45.8-75.1 19.9-19.1 44.5-32.9 70.8-41 26-8.4 53.4-11.8 80.7-13zm-1673.7 19c0-6.2-0.2-12.4 0.5-18.5 43.3 0.2 86.6 0 129.9 0.1 58.1 101.6 115.9 203.4 173.9 305.1 8.4 15.1 17.5 29.9 25.5 45.2 1.1-9.3-0.2-18.6 0.1-28-0.2-32.3-1.1-64.6-1.2-96.9 0-21.4-1-42.7-1-64-0.1-27.3-1-54.6-1-82 0.1-17.3-1-34.7-0.9-52 0.1-9.1-0.7-18.2 0.1-27.3 34.9-0.3 69.9 0 104.8-0.2 0.1 162.8 0 325.7 0 488.5h-121.5 1.8c-69.8-122.9-139.9-245.6-209.6-368.4-0.1 20.8 0.4 41.6 0.4 62.4 1.4 34.7 0.5 69.4 1.7 104 0.1 19.4 0.2 38.7 0.5 58.1 1.1 31.6 0.4 63.3 1.4 94.9 0.2 16.3 0.3 32.7 0.4 49h-105.8c0.1-156.7 0-313.4 0-470zm512.9 11.1c0.2-9.9-0.4-19.8 0.4-29.7 62 0.4 123.9 0.1 185.9 0.2 27.3 0.2 54.8-1 82 2.4 38.2 4.3 76.8 15.6 107.7 39.3 28.8 21.4 48.8 53 60.3 86.7 15.7 45.9 18.7 94.9 17.5 143-1 19-2.7 37.9-6.7 56.5-7.4 36.6-22.8 72.4-48.4 100-25.7 27.4-59.6 47.5-96.5 55-12.9 3-26.1 3.7-39.1 5.5h-263.1q0-229.5 0-458.9zm102.7 56.2c0.2 106 0 212 0.1 318q32.7 0 65.5 0c25-0.2 50 0.7 75-0.9 19.5-1.9 39.7-5.9 55.9-17.5 14.6-10 24.2-25.5 30.1-41.8 7.6-21.8 10.4-45 11.4-68 0.3-13.7 1.4-27.4 0.9-41.1-0.9-12.3-0.7-24.7-1.9-37-2.2-21.6-5.8-43.5-15.3-63.2-7.6-16.1-20.4-29.6-36.6-37.2-22.8-10.7-48.7-11.9-73.5-11.6-26.3-0.2-52.7 0.2-79.1-0.1-10.8 0.2-21.7-0.2-32.5 0.4zm488.9-56.9c38.5-21.5 83.3-28 126.7-28.8 58.9-0.1 117.7 0 176.6-0.1 0.1 28.4-0.2 56.8 0.1 85.3-12.9 0.5-25.8-0.1-38.7 0.3-18.3-0.3-36.6 0-54.9 0-10.7-0.4-21.4-0.2-32 0-16.1 0-32.1-0.5-48.1 0-19.5 0.2-39.3 3.5-56.9 12.1-16.4 8-30 21.3-38.3 37.5-10.4 19.5-14.3 41.8-15.5 63.7 94.8 0 189.6 0 284.3 0 0 28.4 0 56.8 0 85.2-94.2 0-188.5 0-282.8 0-2.1-0.5-2.3 2-2.1 3.4 0.7 24.6 3.2 50.1 15.3 72.1 4.3 8.7 11.2 15.9 18.5 22.3 13.7 11 30.8 16.8 48 19.3 24.3 3.7 49 2.4 73.5 2.6 43.2 0.1 86.4 0 129.6 0.1 0 28.2 0 56.4 0 84.6h-203.1c-24.9-1.3-50-4.5-73.4-13.6-18.1-7-35-17-50.1-29.3-27.6-21.8-47.4-52.4-58.6-85.6-14.9-43.4-17.2-90-15-135.5 2.4-42.2 9.4-85 28.5-123 14.9-30.3 38.8-56.3 68.4-72.6z"/>
	</g>
</svg>