<svg version="1.2" xmlns="http://www.w3.org/2000/svg" viewBox="0 0 1571 719" width="1571" height="719">
	<title>apple-touch-icon-svg</title>
	<style>
		.s0 { fill: #ffffff } 
	</style>
	<g id="#000000ff">
		<path id="Layer" class="s0" d="m0.1 0.9c52 0 104 0 156 0q0 292.5 0 585.1c134.1 0 268.1 0 402.1 0 0.2 44.3 0 88.6 0.1 133-186.1 0-372.1 0-558.2 0 0-239.4 0-478.8 0-718.1z"/>
		<path id="Layer" class="s0" d="m558 0.8c51.7 0.4 103.4-0.4 155.1 0.6 46.6 163.8 92.2 327.9 138 492 48.2-164.4 98.6-328.1 146.5-492.5 43.5 0 87 0 130.6 0.1 48.7 164.1 97.6 328.2 148.2 491.7 44.3-164.4 92.6-327.7 137.8-491.9 52.2 0.1 104.3 0.4 156.5-0.3-71 239.3-142.5 478.4-212.2 718.1-51.1 0-102.4 0-153.6 0-45.5-159.5-95-317.8-141.3-477.1-47.3 158.9-95.7 317.6-141.9 476.8-50 0.9-100-0.4-150 0.1-72.5-238.8-143.3-478.2-213.7-717.6z"/>
	</g>
</svg>