<svg version="1.2" xmlns="http://www.w3.org/2000/svg" viewBox="0 0 1556 282" width="1556" height="282">
	<title>lonza-svg</title>
	<style>
		.s0 { fill: #231f20 } 
	</style>
	<g id="Layer">
		<path id="Layer" fill-rule="evenodd" class="s0" d="m0 270v-269h103.3v186.7h139.5v82.3zm254.8-128.5c0-89.3 74.2-140.5 157.5-140.5 83.3 0 157.5 51.2 157.5 140.5 0 89.3-74.2 140.5-157.5 140.5-83.3 0-157.5-50.2-157.5-140.5zm1209.9-107.4v-27.1h90.3v267h-90.3v-27.1l-1 2c-21.1 28.1-53.2 33.1-76.3 33.1-77.2 0-135.4-60.2-135.4-140.5 0-42.1 13-78.3 37.1-102.4 6.5-6.1 13.6-11.6 21.1-16.4 7.6-4.8 15.5-8.9 23.9-12.1 8.3-3.3 16.9-5.7 25.7-7.3 8.8-1.7 17.7-2.4 26.6-2.3 7.2 0 14.3 0.7 21.4 2.1 7 1.4 13.9 3.5 20.5 6.2 6.6 2.8 12.9 6.2 18.9 10.2 5.9 3.9 11.4 8.5 16.5 13.6zm-765.5 8c4.2-6.2 9.1-11.9 14.7-17 5.6-5.1 11.7-9.4 18.3-13 6.7-3.6 13.7-6.3 21-8.2 7.3-1.9 14.8-2.8 22.3-2.9 70.2-1 123.4 44.2 123.4 117.4v151.6h-91.3v-124.5c0-40.1-17.1-59.2-49.2-62.2-7.8-0.8-15.6 0.2-23 2.8-7.4 2.5-14.1 6.7-19.8 12.1-5.6 5.5-10 12.1-12.8 19.4-2.8 7.3-4.1 15.1-3.6 22.9v129.5h-91.3v-262h91.3zm539.8-29.1l-1 1c-4.1 5-96.4 125.5-127.5 166.6q-1.3 1.7-2.6 3.4-1.3 1.8-2.5 3.5-1.3 1.8-2.5 3.6-1.2 1.7-2.4 3.6h128.4v75.2h-293.9l1-1c5-6 135.4-175.6 140.4-182.6l1-1h-127.4v-72.3zm-886.8 128.5c0 17.8 7.1 34.9 19.7 47.5 12.6 12.6 29.7 19.7 47.5 19.7 17.8 0 34.9-7.1 47.5-19.7 12.6-12.6 19.7-29.7 19.7-47.5 0-17.9-7.1-35-19.7-47.6-12.6-12.6-29.7-19.7-47.5-19.7-17.8 0-34.9 7.1-47.5 19.7-12.6 12.6-19.7 29.7-19.7 47.6zm1111.9 47.5c12.6-12.6 19.7-29.7 19.7-47.5 0-17.9-7.1-35-19.7-47.6-12.6-12.6-29.7-19.7-47.5-19.7-17.8 0-34.9 7.1-47.5 19.7-12.6 12.6-19.7 29.7-19.7 47.6 0 17.8 7.1 34.9 19.7 47.5 12.6 12.6 29.7 19.7 47.5 19.7 17.8 0 34.9-7.1 47.5-19.7z"/>
	</g>
</svg>