<svg version="1.2" xmlns="http://www.w3.org/2000/svg" viewBox="0 0 1502 1051" width="1502" height="1051">
	<title>Spark_Networks_Logo-svg</title>
	<style>
		.s0 { fill: #ffffff } 
	</style>
	<g id="#162336ff">
		<path id="Layer" fill-rule="evenodd" class="s0" d="m156.9 39.7c77.1-39.6 167.6-46.4 252-31.8 71.7 12.4 142.3 40.5 196.2 90.4-41.6 44.2-84.6 86.9-126.1 131.1-37.1-34-83.9-59.9-134.9-62.9-27.7-1.6-57.7 2.7-80.3 20-23.4 18.3-20.3 60.7 7.7 73.1 53.5 24.3 113.3 28.8 168 49.5 51.7 18.6 102.6 48.6 131.5 96.8 28.1 45.9 29.7 103 19.6 154.5-9.6 47.2-36.6 91.2-76.8 118.3-76 53.2-172.9 67.5-263.7 58.8-90.3-9-181.8-38.9-250-100.9 0.1-2.5 0.3-7.6 0.5-10.2 42.1-42.8 82.3-87.5 124.5-130.3 40.1 42.5 94.7 73.1 153.5 77.6 27.3 2.3 57.1-1.2 79.4-18.3 18.1-13.8 22.6-40.2 14.1-60.6-5.6-12.9-17.6-21.5-29.9-27.2-58.8-26.4-124.9-30.1-183.3-57.7-39.5-17.7-77-44.4-98.8-82.8-25.7-43.1-27.4-96.3-18.5-144.5 12.3-63 59.7-113.9 115.3-142.9zm924.2-22.8c56.8-17.6 118.5-17.2 176-3.1 87.3 22.5 161.7 86.2 201.1 166.8 42.4 82.9 52.1 179.9 35.6 270.9-14.4 76.4-49.8 150.6-107.7 203.6-54.3 51.5-128.1 80.7-202.7 81.6-84.1 3.6-173.9-28.1-225.1-97.3 0.1 137.2 0 274.3 0 411.5-76.5 0-153.1 0-229.7 0.1 0.1-342.6 0-685.2 0.1-1027.8 72.6 0 145.3 0.1 217.9-0.1 0.3 29.2-0.2 58.3 0.4 87.5 34.1-43.7 80.9-77.4 134.1-93.7zm-2.4 178.8c-59.4 14.1-105.2 64.9-121.4 122.7-21.7 72.9 6.7 159 70.3 201.8 42.4 29.3 99.2 33.2 147.3 16.7 39.9-13.7 69.8-47.3 86.7-85 17.5-38.9 20.8-83.3 13.4-125.1-9.4-47.8-37.5-93.8-80.9-117.6-35.1-18.3-77-22.3-115.4-13.5z"/>
	</g>
</svg>