<svg version="1.2" xmlns="http://www.w3.org/2000/svg" viewBox="0 0 1521 1126" width="1521" height="1126">
	<title>landsea-logo-BOTY-svg</title>
	<style>
		.s0 { fill: #ffffff } 
		.s1 { fill: #26d07c } 
	</style>
	<g id="Layer">
		<g id="Layer">
			<path id="Layer" class="s0" d="m496 1100h-490.9c-3.8 0-5.7-4.4-3.8-6.9l742.4-1091.8c0 0 1.3-1.3 2.5-1.3h498.5c3.8 0 5.7 4.4 3.8 7l-750 1091.8c0 0-1.2 1.2-2.5 1.2z"/>
			<path id="Layer" class="s1" d="m1237.1 1125.2c-156.4 0-282.9-126.3-282.9-282.5 0-156.3 126.5-282.6 282.9-282.6 156.5 0 283 126.3 283 282.6 0 156.2-126.5 282.5-283 282.5z"/>
		</g>
	</g>
</svg>