<svg version="1.2" xmlns="http://www.w3.org/2000/svg" viewBox="0 0 1455 1586" width="1455" height="1586">
	<title>Landstar_System_logo-svg</title>
	<style>
		.s0 { fill: #ffffff } 
	</style>
	<g id="layer1">
		<g id="g24793">
			<path id="path22367" fill-rule="evenodd" class="s0" d="m0.4 1581.5l34.5-187h69.1l-24 129.4h57.5l-10.2 54.5 96-183.9h74l24.4 187h-66.6l-1.2-24.9h-45l-10.2 24.9zm227-69.1h23.9l-0.7-20.1q-0.2-1.6-0.3-4.7-0.6-12.5-0.6-20.2 0-5.1 0-7.8 0.1-2.8 0.2-5.2-2.3 7.5-4.7 14.5-2.4 7-4.6 12.5zm103.6 69.1l34.5-187h68.6l21.5 59.4q0.5 1.4 1.5 4.3 7.2 19.4 10 33.6l18-97.3h67.9l-34.7 187h-68.4l-34.7-96.6c-0.3 8.8-2.2 23-5.7 42.7l-0.3 1.5-9.6 52.4zm222 0l34.5-187h50.5q23.6 0 39.3 2.3 15.8 2.3 25.9 7 22.1 11 33.8 30.1 11.7 19.1 11.7 44.3c0 15.7-3.4 30.5-10.2 44.2q-10.2 20.6-28.8 34.4-17.3 13.1-40.2 18.9-22.9 5.8-57.6 5.8zm78.1-56.2h0.8q22.6 0 35.4-11.5 12.8-11.5 12.8-31.4 0-14.7-9.2-23.2-9.1-8.5-24.8-8.5h-1.3zm113.6 26.7l33.5-48.9q11.1 13.7 23.8 21.1c8.5 4.9 16.9 7.3 25.4 7.3 3.7 0 6.7-0.7 8.9-2 2.2-1.4 3.3-3.1 3.3-5.4 0-3.4-4.8-7.1-14.5-11q-3.2-1.2-5-2-24-10-35-23.1-10.9-13-10.9-31.6 0-29.2 21.4-47.7 21.3-18.4 55.8-18.4 19.9-0.1 36.7 5.8 16.8 5.9 30.9 17.6l-26.2 45.9q-11.4-9.9-20.7-14.8-9.2-4.9-17-4.9-4.7 0-7.6 2.3-2.9 2.2-2.9 5.9 0 6.3 16.9 13.4 4.4 2 7 3.1 21.8 9.8 30.9 22 9.1 12.1 9.1 30.8c0 19.6-7.6 35.9-22.8 49-15.2 13-34.4 19.6-57.6 19.6-14.6 0-29-2.9-43.2-8.7q-21.2-8.6-40.2-25.3zm191.9 29.5l24-130.3h-40l10.8-56.7h147l-10.5 56.7h-38.7l-24.1 130.3zm109.6 0l97.6-187h74l24.4 187h-66.6l-1.2-24.9h-45l-10.2 24.9zm101.7-69.1h23.9l-0.8-20.1q-0.1-1.6-0.2-4.7-0.7-12.5-0.7-20.2 0-5.1 0.1-7.8 0-2.8 0.2-5.2-2.3 7.5-4.8 14.5-2.4 6.9-4.6 12.5zm103.7 69.1l34.5-187.1h72q40.5 0 61.5 14.4 20.9 14.3 20.9 41.9 0 23.3-12.1 38.7-12 15.4-34 20.2l27 71.9h-69.4l-20.3-68-12.7 68zm86.7-104.1h5q15.4 0 22.7-5.1 7.3-5 7.3-15.6 0-8.2-5.9-12-5.8-3.7-18.4-3.7h-4z"/>
			<path id="path22399" class="s0" d="m553 509.8l60.8-163 33.9-90.9 95.4-255.5 108.1 289.9 81.8 219.5h521.1l-435.2 309.8 174.7 521.4-450.5-310.3-472 294.2 156.3-505.6-395.4-309.5z"/>
			<path id="path22403" class="s0" d="m613.8 346.8l-12.9 34.6c-224.9 67.7-368.6 204.3-368.6 204.3 123.3-157.4 381.5-238.9 381.5-238.9zm517.1-51.6c157.8 35.4 238.2 107.5 259.2 188.3 21 80.5-61.1 188.4-112.7 233.5 0 0 95-104.7 74.1-196.4-7.2-31.8-11.2-64.4-80.5-119.2-52.9-41.8-154.7-64.7-231.9-74-106.2-12.9-172.5 3.9-172.5 3.9l-15.1-40.2c0 0 144.1-26.3 279.4 4.1zm-985.3 307.9c-67.4 91.9-91.9 159.3-61.3 248.2 69.8 202.5 415.6 201 496 194.1 334.9-29 503.9-107.9 731-286.6 0 0-170.7 175.2-404.2 251.2-202.8 66-358.4 72.9-460.5 72.4-261.1-1.3-365.4-117.7-392.9-206.6-25.6-82.4-21.5-165.4 91.9-272.7z"/>
			<path id="path22415" fill-rule="evenodd" class="s0" d="m1203.3 1311.8c0-16 12.9-27.7 28.3-27.7 15.1 0 28 11.7 28 27.7 0 16-12.9 27.8-28 27.8-15.4 0-28.3-11.8-28.3-27.8zm28.3 23.1c12.5 0 22.5-9.8 22.5-23.1 0-13.2-10-23.1-22.5-23.1-12.8 0-22.8 9.9-22.8 23.1 0 13.3 10 23.1 22.8 23.1zm-5.9-7.1h-4.9v-32h12.3c7.5 0 11.3 2.8 11.3 9.1 0 5.8-3.6 8.3-8.3 8.9l9.1 14h-5.5l-8.4-13.8h-5.6zm5.8-18c4.1 0 7.8-0.3 7.8-5.3 0-3.9-3.6-4.7-7-4.7h-6.6v10z"/>
		</g>
	</g>
</svg>