<svg version="1.2" baseProfile="tiny-ps" xmlns="http://www.w3.org/2000/svg" viewBox="0 0 1541 585" width="1541" height="585">
	<title>lulus-logo-svg</title>
	<style>
		tspan { white-space:pre }
		.shp0 { fill: #ffffff } 
	</style>
	<g id="#221e20ff">
		<path id="Layer" fill-rule="evenodd" class="shp0" d="M30.25 0L32.68 0C40.96 0.17 49.37 2.95 55.46 8.7C60.98 13.57 64.52 20.34 66.2 27.45C69.07 39.59 68.1 52.17 69.3 64.49C70.49 79.35 71.09 94.24 71.29 109.14C72.41 172.16 75.34 235.13 76.44 298.16C76.93 345.21 75.66 392.29 77.37 439.33C78.54 465.34 79.09 491.74 86.34 516.93C87.86 521.07 88.74 525.55 91.2 529.27C93.97 533.17 99.35 532.63 103.49 531.95C131.67 527.19 157.26 513.3 180.91 497.84C194.73 488.92 208.36 479.7 221.4 469.68C251.23 446.56 279.04 421.01 308.02 396.88C311.11 392.23 310.75 385.87 314.48 381.5C316.67 378.66 320.36 377.35 323.87 377.58C331.56 377.96 338.45 381.77 345.45 384.55C350.49 386.59 356.03 388.07 360.09 391.89C365.05 396.97 367.61 404.28 367.06 411.36C366.6 417.71 365.38 423.97 364.73 430.3C364.09 435.79 364.22 441.32 364.43 446.83C365.11 458.82 366.32 471.01 370.78 482.27C373.42 488.77 377.3 495.33 383.67 498.77C389.24 501.91 396.34 501.61 401.77 498.33C408.9 494.08 414.11 487.34 418.8 480.64C430.42 463.1 438.59 443.49 444.7 423.42C446.98 414.02 447.71 404.33 448.45 394.71C449.92 387.45 453.8 380.39 460.13 376.29C465.17 373.04 471.51 370.26 477.48 372.65C487.69 376.52 495.78 384.61 501.96 393.39C505.16 398.4 508.67 404.35 507.1 410.5C503.21 422.56 500.04 434.94 499.21 447.61C498.18 462.57 500.07 477.52 502.01 492.33C503.43 499.83 505.8 507.34 510.21 513.65C512.49 516.83 515.95 519.74 520.1 519.55C533.26 518.94 546.09 515.06 557.93 509.43C577.69 499.91 594.94 486 610.76 470.97C621.18 460.99 630.98 450.38 640.41 439.46C643.08 436.46 645.04 432.93 647.08 429.5C648.03 428.02 647.45 426.19 647.24 424.6C644.46 411.32 638.72 398.86 636.02 385.56C629.51 356.13 624.89 326.29 621.95 296.29C617.72 254.54 616.9 212.52 617.39 170.59C617.96 128.43 621.22 85.59 635.28 45.52C639.41 32.81 646.94 21.12 657.25 12.56C664.96 6.14 674.66 1.76 684.79 1.59C698.86 1.49 713.27 5.83 723.98 15.18C733.39 23.25 739.45 34.69 742.19 46.68C748.88 74.97 752.03 103.96 754.02 132.93C755.88 162.55 756.27 192.3 754.8 221.95C754.03 237.12 752.73 252.26 750.54 267.3C747 289.71 743.59 312.17 739.12 334.42C732.91 364.5 724.34 394.48 709.2 421.39C707.09 425.16 704.78 429.53 706.26 433.94C708.94 441.86 712.68 449.37 716.39 456.85C721.27 466.62 728.33 475.03 734.78 483.78C742.75 493.79 751.2 503.56 761.3 511.51C764.31 513.86 767.73 515.96 771.61 516.37C779.64 517.43 787.47 514.2 794.28 510.24C805.1 503.85 814.3 495.15 823.04 486.22C834.16 474.34 844.74 461.94 854.27 448.73C863.07 436.72 870.44 423.75 877.3 410.55C879.32 406.83 881.09 402.97 882.3 398.9C887.42 383.82 891.41 368.16 899.39 354.25C902.81 348.61 907.05 342.86 913.37 340.32C917.79 338.53 922.83 339.22 927.04 341.26C933.38 344.31 939.78 347.38 945.48 351.55C949.56 354.61 953.33 358.65 954.42 363.79C955.69 369.64 953.54 375.54 950.81 380.64C941.7 396.59 933.59 413.16 927.37 430.46C922.44 444.52 917.43 458.96 917.49 474.03C917.59 480.03 918.24 486.41 921.63 491.55C923.79 494.93 927.83 496.94 931.84 496.56C937.98 496.02 943.44 492.68 948.25 489.05C957.31 482.02 964.44 472.94 971.46 463.96C980.26 452.56 988.5 440.61 994.72 427.57C998.15 420.17 1001.71 412.84 1004.91 405.34C1007.85 398.91 1010.19 392.07 1014.67 386.48C1018.53 381.46 1024.21 377.38 1030.71 377C1036.18 376.54 1041.3 378.88 1046.32 380.73C1052.24 383.22 1058.62 385.32 1063.24 390.01C1066.5 393.19 1068.29 397.75 1068.02 402.3C1067.71 409 1064.62 415.16 1061.27 420.83C1056.55 428.47 1054.75 437.47 1053.78 446.27C1051.5 468.38 1055 490.68 1060.45 512.09C1065.86 506.18 1071.26 499.95 1078.36 496C1081.84 494.06 1086.06 492.8 1090 494.06C1094.03 495.37 1096.75 498.95 1098.67 502.55C1101.89 508.89 1103.87 516.13 1102.87 523.28C1101.81 531.32 1097.56 538.41 1093.56 545.29C1088.3 554.2 1082.01 563.07 1072.84 568.3C1064.64 572.95 1054.12 573.38 1045.71 569.04C1036.95 564.63 1030.52 556.8 1025.52 548.56C1019.9 539.27 1016.17 529 1013.2 518.6C1011.31 511.39 1008.14 504.32 1008.3 496.74C1000.94 507.6 992.67 517.99 982.46 526.31C970.53 536.06 957.75 545.4 942.92 550.16C930.57 554.16 916.97 554.09 904.65 550.02C892.91 546.45 882.33 538.83 875.8 528.37C871.88 522.4 869.65 515.55 867.96 508.66C849.74 531.99 825.94 550.94 799.12 563.47C792.65 566.21 786.28 569.77 779.12 570.21C769.53 570.89 759.71 569.07 751.09 564.76C733.25 556.31 718.49 542.68 705.51 528.05C698.46 520.2 693.06 511.08 687.67 502.07C682.87 493.8 678.87 485.04 673.39 477.19C667.44 482.2 662.06 487.85 656.27 493.05C641.26 506.84 625.75 520.1 609.33 532.19C595.95 541.91 582 551.01 566.92 557.89C555.73 562.62 543.9 565.8 531.94 567.87C524.62 568.95 517.14 569.79 509.77 568.73C504.19 567.96 499.2 565.18 494.31 562.57C486.25 558.17 479.5 551.55 474.61 543.8C467.52 532.52 462.33 520.16 455.71 508.63C454.65 509.26 453.62 509.98 452.92 511.02C444.33 522.61 434.82 533.78 422.99 542.18C414.11 548.5 403.66 552.86 392.72 553.68C378.56 554.88 364.02 550.58 352.89 541.72C338.91 530.73 329.97 514.68 323.85 498.26C318.99 485.62 318.1 471.95 314.56 458.95C306 467 296.38 473.8 287.28 481.2C273.29 492.09 259.86 503.69 245.67 514.32C235.21 522.36 224.24 529.71 213.25 537C202.13 544.4 190.89 551.67 179.17 558.1C165.21 566.23 150.14 572.29 134.65 576.8C120.93 581.03 106.81 584.28 92.44 585L86.21 585C74.2 584.53 61.7 581.5 52.5 573.37C45.88 567.7 41.84 559.77 38.33 551.95C29.89 532.3 25.6 511.08 23.78 489.83C21.49 466.78 21.62 443.58 21.71 420.44C22.69 362.31 19.46 304.2 20.32 246.07C19.9 199.5 16.28 153.01 16.46 106.44C16.37 84.52 15.34 62.3 9.35 41.09C7.33 33.3 0.85 27.12 0.48 18.84C0.7 12.87 5.13 7.79 10.09 4.89C16.39 1.95 23.32 0.38 30.25 0ZM682.62 61.78C678.22 63.88 675.62 68.31 673.56 72.51C670.02 80.19 668.1 88.48 666.5 96.74C660.62 130.07 660.15 164.03 659.53 197.78C659 234.42 661.48 271.07 666.67 307.33C670.05 329.46 674.16 351.63 681.59 372.81C687.57 362.3 691.35 350.7 694.76 339.15C707.61 286.03 712.07 231.17 711.01 176.62C710.54 156.26 710.38 135.87 708.6 115.57C707.22 102.76 705.67 89.85 701.55 77.58C699.64 72.41 697.45 66.99 693.13 63.34C690.29 60.89 686.04 60.14 682.62 61.78Z" />
		<path id="Layer" fill-rule="evenodd" class="shp0" d="M1189.97 332.3C1203.68 326.29 1219.09 324.48 1233.87 326.72C1245.46 328.32 1256.41 332.63 1267.52 336.12C1272.45 337.67 1277.65 338.48 1282.29 340.86C1287.68 343.81 1291.45 349.45 1292.35 355.5C1293.14 360.65 1291.03 365.76 1288.11 369.91C1283.1 376.75 1275.32 381.56 1266.91 382.79C1251.71 384.75 1237.9 376.55 1223.22 374.43C1217.98 373.73 1212.43 373.18 1207.39 375.12C1204.48 376.2 1202.08 378.8 1201.74 381.96C1201.16 386.47 1203.16 390.77 1205.25 394.64C1209.61 402.52 1215.28 409.57 1221.18 416.34C1229.67 425.71 1238.41 434.86 1247.56 443.6C1252.37 448.38 1257.23 453.18 1262.85 457.02C1264.22 458.13 1265.99 458.22 1267.67 457.85C1276.29 456.46 1284.8 454.48 1293.34 452.64C1330.29 444.84 1367.55 438.46 1405 433.52C1424.12 431.07 1443.33 429.42 1462.49 427.27C1481.96 425.19 1501.63 422.54 1521.21 424.69C1526.82 425.58 1533.21 426.49 1537.16 431.01C1539.63 434.84 1540.71 439.45 1541 443.96L1541 445.38C1540.68 452.81 1537.04 459.71 1532.07 465.1C1528.78 468.73 1524.93 472.45 1519.9 473.24C1513.99 474.05 1508.67 470.82 1503.45 468.6C1497.78 465.82 1491.34 465.67 1485.17 465.58C1474.5 465.71 1463.87 466.94 1453.26 467.89C1417.36 472.37 1381.29 475.81 1345.7 482.47C1330.96 485.51 1316.17 488.46 1301.79 492.97C1309.76 501.96 1318.19 510.93 1323.16 522.02C1325.83 527.76 1326.72 534.53 1324.6 540.59C1322.26 547.46 1316.82 552.77 1310.82 556.57C1291.47 568.96 1268.27 573.16 1245.75 575.19C1211.26 577.96 1175.92 577.14 1142.51 567.31C1135.79 565.37 1128.91 563.13 1123.41 558.63C1118.97 555.12 1115.41 550.06 1114.94 544.29C1114.39 539.75 1115.88 535.24 1118 531.28C1121.43 524.93 1126.52 519.67 1131.85 514.89C1141.1 506.46 1152.01 500.01 1163.45 495.02C1179.62 487.77 1196.69 482.86 1213.27 476.63C1207.14 469.56 1199.82 463.69 1193.46 456.86C1180.07 442.58 1167.32 427.37 1158.5 409.77C1154.66 402.56 1151.77 394.74 1151.01 386.56C1149.85 375.37 1152.6 363.6 1159.49 354.59C1167.15 344.32 1178.34 337.3 1189.97 332.3ZM1184.28 529.52C1182.73 530.09 1181.63 532.35 1183.44 533.35C1188.14 536.24 1193.8 536.77 1199.13 537.65C1217.89 539.45 1237.11 539.25 1255.41 534.35C1257.63 533.66 1260.51 533.01 1261.33 530.51C1262 527.33 1259.81 524.54 1258.06 522.14C1253.27 516.36 1247.42 511.55 1241.31 507.27C1221.85 513.4 1202.13 519.43 1184.28 529.52Z" />
	</g>
</svg>