<svg version="1.2" xmlns="http://www.w3.org/2000/svg" viewBox="0 0 2169 626" width="2169" height="626">
	<title>Lyra_Therapeutics_Logo-svg</title>
	<style>
		.s0 { fill: #129084 } 
		.s1 { fill: #73bf45 } 
		.s2 { fill: #848587 } 
	</style>
	<g id="#129084ff">
		<path id="Layer" class="s0" d="m32.6 18.7c8.3-1.4 17.1 0.8 23.8 6 10.1 7.4 16.4 19.7 16.6 32.3 0.1 72.7 0 145.4 0.1 218.1-0.1 15.4 12.9 31.1 29 30.6 121.3 0.1 242.6 0 363.9 0.1 9.3 0.4 17.6 5.8 23.4 12.8 13.5 17 12.1 44.1-3.6 59.2-4.3 3.8-9.3 7-14.9 8.3-3.9 1-8 0.6-11.9 0.7-120 0-240.1 0-360.1 0-21.6-0.7-42.3-10.2-58.4-24.4-23.5-21.3-37.5-52.7-38-84.4q0-110.5 0-221c0.2-17.3 12.1-35.5 30.1-38.3z"/>
		<path id="Layer" class="s0" d="m1835.9 28.8c14.9-14.9 34.9-25.5 56.2-27.1 28.1-2.6 56.7 10 74.6 31.7 5.2 6 9 13 13.4 19.5 57 87.7 113.8 175.4 170.8 263.1 7.5 10.4 12.8 22.9 12.4 35.9-0.2 7-2.5 13.9-7.2 19.1-4.1 4.5-9.4 7.9-14.9 10.3-9.4 3.9-20.4 2.7-28.9-2.6-13.1-7.7-22.1-20.4-30-33q-75.7-116.3-151.3-232.6c-3.3-5.6-7.5-10.5-11.8-15.3-4.3-5.1-9.4-10.3-16.2-11.9-6.3-1.6-12.8 1.4-17.4 5.8-6.3 6.1-11.8 13-16.4 20.5q-75.6 115.5-151.1 231c-7.4 11.8-15.3 23.8-26.8 32.1-7.8 5.7-17.5 9.6-27.3 8.4-11.3-1.4-22.4-8.6-26.4-19.5-2.9-6.7-2.3-14.2-1.8-21.3 1.8-7.5 4.3-14.9 8.6-21.4 54.9-85.1 109.8-170.2 164.7-255.4 8.6-12.6 15.6-26.5 26.8-37.3zm-753.1 0c11-6.3 23.5-10.3 36.2-10.5 115.3-0.1 230.7 0 346 0 14.4 0.1 28.7-0.3 43 0.2 15.7 0.6 31.1 5.7 44.4 14.1 16.1 10.2 29.3 24.9 38 41.9 15.1 28.5 17.4 63.1 7.7 93.7-4 11.4-8.4 23.2-16.4 32.6-4.9 5.7-12.1 9.5-19.7 9.7-15.4 0.1-30.7-9.1-36.8-23.4-4-8.7-3.4-19.2 1.5-27.4 3.2-5.4 5.7-11.4 6.2-17.7 1.6-10.6-1-22-7.2-30.8-5.2-7.5-14.5-12.4-23.7-11.5-126.3 0.1-252.7 0-379 0.1-10.3-0.4-19.9 7.3-22.3 17.2-0.2 18 0.1 35.9-0.1 53.9 32.1 0.2 64.3 0 96.4 0.1 22.7 0.3 45.4-0.7 68.1 0 49.6 1 99.7 4.4 147.9 16.9 39.9 10.2 78.3 27.2 111.5 51.7 13.9 10.2 26.5 22.1 37.8 35.1 12.9 14.8 23.8 31.3 33.8 48.1 4.8 7.1 7.9 15.6 7.6 24.2-0.2 9.3-2 19.2-8.6 26.2-5.2 6.1-13.1 9.8-21.1 9.8-6.7 0.1-13.3-1.8-19.1-4.9-9.4-4.8-17.6-11.9-23.9-20.5-12.1-16.2-25.2-31.8-40.1-45.5-26.3-24-57.8-42.5-91.8-53.3-22.4-7.2-45.7-11.3-69.1-12.7-25.3-1.8-50.7-2.7-76-2.6-51.2 0-102.3 0-153.4 0 0.1 34.5 0 69 0 103.5 0.4 8.6-2.3 17.3-7.4 24.2-6.2 8.3-15.4 15.5-26.2 15.6-9.8 0.8-19.4-3.8-26.1-10.8-6.2-7.2-10.3-16.4-10.6-26q0.1-111.5 0.1-223c-0.4-12.9 1.8-25.8 5.6-38q0.6-1.4 1.1-2.9c8.7-23.2 23.8-44.9 45.7-57.3z"/>
		<path id="Layer" class="s0" d="m431.2 23.3c12.8-2.7 25.8 2.1 36.4 9 8.7 5.5 15.1 13.6 22.6 20.4 26.5 26 53.8 51.3 83.3 73.9 17.7 13.6 36.6 25.9 57.2 34.8 39.8 17.4 85.9 19.1 127.4 6.5 33.4-10.2 63.3-29.6 89.9-51.9 26.8-22.3 50.8-47.8 75.4-72.5 9.5-9.3 20.9-17.1 34-19.9 9.7-2.2 20.4-0.4 28.2 5.8 8.3 5.7 11.5 16 11.9 25.6-0.5 13.3-5.1 27.1-15 36.5-18.2 18.5-36.4 36.9-55.5 54.4-28.8 26.4-59 51.6-92.9 71.3-17.8 10.2-36.6 18.8-56.3 24.5-36.2 10.5-74.5 11.8-111.9 8.2-23.2-2.4-46.2-7.7-67.5-17.2-33.2-14.8-62.7-36.6-90.4-59.9-29.4-25-57.4-51.8-84.6-79.2-9.2-8.4-14.9-20.3-16.3-32.6-0.8-8 0.1-16.5 4.3-23.6 4.3-7.1 11.6-12.4 19.8-14.1z"/>
	</g>
	<g id="#73bf45ff">
		<path id="Layer" class="s1" d="m1892.4 217.5c16.2-2.7 33.7 2.1 45.7 13.3 14.3 12.4 20.9 32.7 17 51.1-3.4 18-16.7 33.8-33.9 40.1-15.3 5.9-33.2 4.5-47.2-3.9-17-9.8-27.8-29.5-26.6-49.1 0.2-25 20.5-47.6 45-51.5z"/>
		<path id="Layer" class="s1" d="m663.5 293.5c8.3-7.9 19.1-13.4 30.5-14.9 16.6-2.4 34.3 3.3 46.1 15.3 6 5.8 10.2 13.3 13.1 21.1 2.1 5.4 2.3 11.3 3.2 17-0.7 5.7-0.9 11.6-2.9 17-1.4 4.9-4.1 9.1-6.4 13.6-9.8 14.4-26.6 24.2-44.2 24.2-17.6 0.7-35.2-8-45.4-22.4-6.4-8.8-10.3-19.5-10.4-30.4-0.6-15.1 5.7-30.1 16.4-40.5z"/>
	</g>
	<g id="#848587ff">
		<path id="Layer" class="s2" d="m1.7 501.6c39.5-0.2 79.1-0.1 118.6-0.1 0 7.2 0 14.3-0.1 21.5-16.1 0-32.3 0-48.4 0-0.1 33.8-0.1 67.7 0 101.5-7.2 0-14.4 0.1-21.5-0.1 0-33.8-0.1-67.6 0-101.4-16.2-0.1-32.4 0.1-48.6-0.1q0.1-10.6 0-21.3zm373.9-0.1q53.4-0.1 106.8 0c0 7.1-0.1 14.2 0 21.4-28.3 0.3-56.7 0-85 0.1-0.1 26.7 0 53.3-0.1 79.9 28.4 0.2 56.8-0.1 85.1 0.2-0.1 7.1 0 14.2 0 21.3-35.6 0.2-71.2 0.1-106.8 0.1-0.1-41-0.1-82 0-123zm175 0c30.1-0.1 60.2 0 90.4 0 13.6 0 27.9 3.2 38.8 11.8 17 13.4 19.6 40.9 6.2 57.8-6.2 8.4-15.9 13.7-25.8 16.4 12.7 12.1 24.7 25 37.5 37-10.7-0.2-21.5 0.3-32.2-0.2-11.7-11.1-23-22.8-34.5-34.2-15.5-0.2-31 0.1-46.5-0.2 0.2-7.1 0-14.3 0.1-21.4q26.7 0 53.4 0c9 0.4 18.8-0.6 26-6.5 9.5-7.5 9.7-23 1.9-31.8-4.5-4.3-10.8-6.2-16.8-6.8-7-0.6-14.1-0.3-21.1-0.4-18.5 0-37.1-0.1-55.6 0.1 0.1 33.8 0 67.6 0 101.4-7.3 0-14.6 0.1-21.8-0.1q0-61.4 0-122.9zm269.4 17.3c4.1-7.7 10-15.8 19-17.7 7.5-0.6 14.1 5.1 17.8 11.2 22.1 37.3 43.6 75 66 112.2-9.4 0-18.7 0-28.1 0-6.9-11.4-13.9-22.9-20.6-34.4-19.6-0.2-39.2 0-58.8-0.2 4.6-7 8.7-14.4 13.2-21.4 10.9 0 21.7 0.1 32.5 0-7.1-11.3-13.9-22.7-20.7-34.2-0.2 0.1-0.7 0.1-1 0.1-14.9 24.6-30 49.2-45 73.9-2.8 5.2-6.7 10-9.1 15.5-1.3 0.5-2.8 0.8-4.2 0.7-8 0-16 0.1-24 0 0.9-3 2.7-5.5 4.3-8.1 19.6-32.6 39.2-65.1 58.7-97.6zm157.2-17.3c30 0 59.9-0.1 89.8 0 11.4-0.2 23.1 3.3 32 10.5 8.8 6.6 15.1 17 15.9 28 1.9 12.9-2.1 27.1-11.9 36-9.5 9.8-23.5 14.1-37 14-18.3-0.1-36.6 0.2-54.8-0.1 0-7.1 0-14.3 0-21.4 17.6 0 35.2 0 52.9 0 6.7 0.2 13.8 0 19.6-3.8 10.3-6.1 13.3-20.7 7.4-30.8-4.5-7.5-13.7-10.9-22.1-10.9q-34.7 0-69.4 0c-0.1 33.8-0.1 67.6-0.1 101.4-7.4 0.2-14.8 0-22.2 0.1-0.3-41-0.1-82-0.1-123zm200.3 0c35.3 0 70.7-0.1 106.1 0 0.1 7.1 0 14.3 0.1 21.5-28.1 0.1-56.2 0-84.3 0-0.1 26.7 0 53.3 0 80 28.1 0 56.2 0 84.3 0-0.1 7.2 0 14.3 0 21.5-35.4 0-70.8 0-106.2 0-0.1-41 0-82 0-123zm381.1 0c39.4 0 78.8-0.1 118.2 0 0.2 7.2 0 14.3 0 21.5-16 0-32.1 0-48.2 0 0.1 33.9 0.1 67.7 0 101.5-7.3 0-14.6 0.1-21.9-0.1q0-50.7 0-101.3c-16.1-0.2-32.1-0.1-48.2-0.1 0.1-7.2 0.1-14.3 0.1-21.5zm497.2 1.2c6.9-1.8 14.1-1.1 21.2-1.2 27.7 0 55.3 0 83 0 0 7.1 0 14.3 0 21.5-30.7 0-61.4 0-92 0-4.3 0-8.7 1.2-11.8 4.2-4.2 3.7-4.6 10.7-1.5 15.2 3 3.5 7.7 5.6 12.3 5.4 15.3-0.1 30.7 0 46-0.1 9.1 0.1 18.3-0.6 27.1 2.2 11.2 3.3 21.2 11.7 25.2 22.8 4.5 13.3 2.5 29.6-7.8 39.7-8.2 8.3-20 12.3-31.5 12.1-31.6 0-63.2 0.1-94.8-0.1q0-10.7 0-21.4 43.4 0 86.8 0c6.5 0.1 13.4 0.2 19.5-2.5 5.4-2.3 10.1-7.4 10.3-13.5 0.4-4.6-1.6-9.5-5.5-12.3-4.9-3.7-11.2-5.3-17.3-5.2-18.3 0-36.6 0-55 0-8.8 0.3-18-1.1-25.5-5.9-7-4.1-12.4-10.8-14.5-18.6-2.5-9.3-1.4-19.9 4.1-28 5-7.4 13-12.4 21.7-14.3zm-1873.5 35.3c0.1-12.2-0.2-24.4 0.1-36.6 7.2 0.2 14.3-0.1 21.5 0.2-0.2 40.9-0.1 81.9-0.1 122.8-7.1 0.3-14.3 0-21.4 0.1-0.3-28.8 0-57.6-0.1-86.5zm103.2-36.5c7.3-0.1 14.6 0 21.8 0q0 61.5 0 123c-7.2 0-14.5 0.1-21.8-0.1 0.1-16.9 0-33.9 0-50.9-24 0-48.1 0-72.2 0-0.1-7.2 0-14.5 0-21.7 24.1-0.1 48.2-0.1 72.2 0q0.1-25.2 0-50.3zm1070.9 65.5c0-21.8 0-43.7 0-65.5 7.4 0 14.8-0.1 22.2 0 0.1 23.2 0 46.3 0.1 69.5 0 10.5 4.1 22.3 14.1 27 10.7 4.7 22.7 4.5 34.2 5 9.6-0.1 19.6-0.6 28.6-4.5 6.1-2.7 10.9-8 13.2-14.3 3.3-8.7 2.5-18.1 2.6-27.1 0-18.6-0.1-37.1 0-55.6 7.1-0.1 14.1 0.1 21.2-0.1 0.4 24.9 0 49.7 0.2 74.6-0.6 10.1-3.5 20.2-9.4 28.5-3.9 4.7-8.5 9-14 11.8-11.1 6-23.9 7.8-36.4 8.2-9-0.1-18.1 0.4-27.1-0.7-10.7-1.3-21.5-4.1-30.3-10.4-9.9-6.6-15.5-18.1-17.7-29.5-0.5-5.6-1.7-11.2-1.5-16.9zm385.3-65.5c7.3-0.1 14.6 0.1 21.9-0.1 0.3 41 0 82 0.1 123-7.3 0.2-14.7 0.1-22 0 0-40.9 0-81.9 0-122.9zm130.3 4.7c8.5-3.4 17.8-4.9 26.9-4.7 23.2 0 46.4-0.1 69.6 0-0.1 7.1 0 14.3-0.1 21.5-23.5 0.1-46.9-0.1-70.4 0-10.3 0.1-20.6 3.8-27.9 11.1-11.1 10.5-14 27.5-10 41.8 3.4 11.9 13.2 21.6 25 25.1 7.4 2.3 15.2 2 22.9 2 20.2 0 40.3 0 60.4 0 0.1 7.2 0.1 14.3 0 21.5-24.1 0-48.3 0-72.5 0-17.2-0.2-34.2-8-45-21.5-14.3-16.6-17.5-40.9-11.4-61.6 4.7-15.9 17.3-28.9 32.5-35.2zm-1466 45c23.6 0.1 47.1 0 70.6 0 0 7.3-0.1 14.5 0 21.7-23.5 0.3-47-0.1-70.6 0.2 0-7.3 0-14.6 0.1-21.9zm801.4 0.1c23.7-0.2 47.4-0.1 71.1 0 0 7.2 0 14.4 0 21.6-23.7 0.1-47.4 0.3-71.1-0.1q0-10.7 0-21.5z"/>
	</g>
</svg>