<svg version="1.2" baseProfile="tiny-ps" xmlns="http://www.w3.org/2000/svg" viewBox="0 0 1542 437" width="1542" height="437">
	<title>-1-svg</title>
	<defs>
		<clipPath clipPathUnits="userSpaceOnUse" id="cp1">
			<path d="M0 0L1541 0L1541 437L0 437L0 0Z" />
		</clipPath>
	</defs>
	<style>
		tspan { white-space:pre }
		.shp0 { fill: #ffffff } 
		.shp1 { fill: #e11a2b } 
	</style>
	<g id="Clip-Path" clip-path="url(#cp1)">
		<g id="Layer">
			<path id="Layer" fill-rule="evenodd" class="shp0" d="M1540.95 293.26C1541.44 302.06 1540.22 310.64 1537.31 318.74C1534.42 326.86 1529.92 334.19 1523.95 340.57C1517.8 347.15 1510.46 352.28 1502.15 355.84C1493.82 359.37 1484.91 361.14 1475.71 361.14C1465.88 361.14 1456.02 359.18 1447.16 355.49C1438.23 351.74 1430.14 346.17 1423.8 339.35C1418.46 333.59 1414.35 327.08 1411.56 319.9C1408.77 312.71 1407.37 305.05 1407.37 297.09L1407.85 285.22L1433.97 285.08L1434.14 294.32C1434.35 306.52 1438.34 316.75 1445.68 323.98C1453.04 331.26 1463.44 335.09 1475.71 335.09C1481.33 335.09 1486.66 334.11 1491.55 332.13C1496.27 330.17 1500.45 327.37 1503.93 323.76C1507.27 320.26 1509.9 316.16 1511.68 311.59C1513.48 306.98 1514.4 301.98 1514.4 296.71L1514.38 295.38C1514.08 284.19 1511.22 276.2 1505.34 270.28C1498.97 263.87 1488.9 259.31 1473.61 255.91C1458.93 251.65 1443.98 246.84 1433.16 238.12C1421.02 228.4 1415.09 215.39 1414.46 197.14C1414.46 178.18 1421.24 162.53 1434.08 151.78C1445.03 142.62 1459.8 137.57 1475.66 137.57C1493.03 137.82 1507.82 143.41 1518.48 153.84C1529.26 164.35 1535.1 178.88 1535.39 195.89L1535.5 205.39L1508.95 205.39L1508.79 196.18C1508.7 191 1507.9 186.27 1506.33 182.17C1504.85 178.26 1502.72 174.95 1500.05 172.26C1497.24 169.48 1493.76 167.31 1489.74 165.85C1485.37 164.24 1480.59 163.46 1475.9 163.65C1470.16 163.65 1464.94 164.57 1460.28 166.42C1455.8 168.18 1451.97 170.73 1448.92 173.99C1446.19 176.87 1444.11 180.27 1442.74 184.07C1441.36 187.93 1440.77 192.08 1440.96 196.4C1441.41 205.85 1444.11 212.24 1449.7 217.04C1455.21 221.77 1463.62 225.49 1477.84 229.51L1479.38 229.92C1493.11 233.64 1507.17 237.5 1518.8 246.38C1532.56 256.89 1539.79 272.21 1540.95 293.26ZM1415.59 0L1426.2 33L1460.74 33L1432.78 53.45L1443.38 86.54L1415.55 66.08L1387.86 86.45L1398.33 53.48L1370.3 33L1404.91 33L1415.59 0ZM1374.8 137.57L1404.53 137.57L1396.85 156.77L1277.05 437L1247.46 437L1285.76 348.89L1249.05 255.51C1230 207.02 1210.81 158.13 1210.2 156.56L1202.75 137.54L1231.59 137.54L1301.06 313.39L1374.8 137.57ZM1020.23 214.47C1015.81 225.47 1013.49 237.52 1013.49 249.29C1013.49 261.4 1015.67 272.92 1019.99 283.54C1024.31 294.13 1030.57 303.47 1038.61 311.3C1046.4 318.87 1055.47 324.79 1065.61 328.87C1075.81 332.92 1086.68 334.98 1097.91 334.98C1117.06 334.84 1134.88 329.06 1149.36 318.3C1161.59 309.23 1171.11 296.71 1175.46 283.94L1177.59 277.62L1206.4 277.62L1201.89 290.16C1194.34 311.32 1180.71 329.22 1162.53 341.85C1144.32 354.46 1122.59 361.11 1099.72 361.11C1065.51 361.11 1036.42 349 1015.62 326.04C997.35 305.92 986.89 278.08 986.89 249.69C986.89 218.84 998.22 190.43 1018.75 169.7C1039.25 148.98 1067.37 137.54 1097.91 137.54C1118.31 137.54 1139.16 143.3 1156.61 153.76C1178.01 166.55 1193.83 186.14 1202.3 210.42L1206.64 222.89L1178.05 222.89L1175.86 216.69C1169.73 199.61 1158.43 185.59 1143.16 176.17C1130.04 168.07 1114.47 163.62 1099.31 163.62C1085.69 163.81 1075.41 165.63 1066.02 169.4C1056.58 173.18 1047.56 179.1 1037.69 188.01C1030.59 194.5 1024.55 203.68 1020.23 214.47ZM934.05 137.57L960.65 137.57L960.65 361.11L934.08 361.11L934.08 324.22C926.9 332.67 918.62 339.82 909.28 345.52C892.29 355.89 872.59 361.14 850.76 361.14C808.67 361.14 782.64 341.72 768.23 325.42C750.15 305.02 739.79 277.29 739.79 249.37C739.79 221.39 750.15 193.66 768.26 173.29C782.64 156.99 808.65 137.57 850.76 137.57C873.75 137.57 895.69 144.23 914.25 156.8C921.67 161.83 928.36 167.72 934.05 174.24L934.05 137.57ZM935.1 247.41C935.1 241.52 934.59 235.98 933.59 230.79C932.59 225.6 931.11 220.63 929.17 216.01C923.07 200.31 912.55 187.17 898.65 177.88C884.7 168.54 868.11 163.62 850.74 163.62C827.4 163.62 805.98 172.28 790.44 188.06C774.9 203.85 766.32 225.57 766.32 249.31C766.5 271.42 774.52 292.96 788.33 308.39C803.93 325.8 825.89 335.01 851.84 335.01C869.6 335.01 886.27 329.85 900 320.01C913.71 310.24 924.1 296.06 930.06 279.03C931.89 274.25 933.24 269.11 934.13 263.65C935.02 258.22 935.35 252.76 935.1 247.41ZM707.53 192.25C711.47 205.01 713.49 220.2 713.49 237.39L713.49 361.08L686.94 361.08L686.94 237.42C686.94 223.1 685.38 210.8 682.33 200.83C679.47 191.49 675.13 183.8 669.43 178.04C664.93 173.32 659.4 169.73 653 167.39C640.29 162.7 621.41 161.99 605.89 168.18C597.21 171.63 590.33 176.66 585.39 183.15C579.54 190.78 576.27 197.27 574.44 204.85C572.39 213.41 571.95 224.05 571.95 237.39L571.95 361.11L545.38 361.11L545.46 231.52C545.46 218.81 544.38 209.28 542.06 201.54C540.2 195.18 537.47 189.88 532.99 183.83C528.22 177.63 522.07 172.75 514.7 169.38C507.12 165.9 498 163.97 487.61 163.65C480.14 163.21 472.07 164.9 464.46 168.34C457.13 171.69 451.03 176.41 446.82 181.95C441.05 188.66 437.03 195.89 434.44 204.33C431.71 213.11 430.39 223.32 430.39 235.54L430.39 361.11L403.81 361.11L403.81 137.57L430.39 137.57L430.39 161.61C437.05 154.66 444.82 149.09 453.59 145.04C466.92 138.87 479.6 137.57 487.86 137.57C500.91 137.57 513.06 139.88 523.9 144.44C534.99 149.11 544.33 155.93 551.64 164.76C553.5 166.74 555.87 170.22 558.6 175.03C561 171.25 563.64 167.77 566.67 164.43C574.06 156.15 583.77 149.28 594.75 144.61C616.71 135.29 643.18 135.86 662.5 143C672.51 146.67 681.3 152.29 688.62 159.68C696.98 167.94 703.35 178.91 707.53 192.25Z" />
			<path id="Layer" class="shp1" d="M188.78 0L144.42 137.57L0 137.57L117.01 223.08L72.68 360.68L188.59 275.53L305.2 361.08L260.66 222.83L377.16 137.57L233.16 137.57L188.78 0Z" />
		</g>
	</g>
</svg>