<svg version="1.2" xmlns="http://www.w3.org/2000/svg" viewBox="0 0 1552 1121" width="1552" height="1121">
	<title>siam-makro-seeklogo</title>
	<style>
		.s0 { fill: #ed1c24 } 
	</style>
	<g id="Layer 1">
		<g id="&lt;Group&gt;">
			<g id="&lt;Group&gt;">
				<path id="&lt;Compound Path&gt;" fill-rule="evenodd" class="s0" d="m1551.7 399.6v502.5c0 60.5-22.4 116.7-63.6 157.6-39.2 39.8-92.5 61.3-150.1 61.3-57.3 0-110.8-21.5-150.3-61.3-40.5-40.9-63-97.1-63-157.6v-430c0-46.4-10.4-63.1-20.5-72.8-15-14.8-31.7-21.5-53.3-22.3-7.7 0-31.9-0.4-51.5 22.8-10.1 12.1-13.1 30.7-13.1 72.3v430c0 60.5-22.6 116.7-63.4 157.6-39.7 39.8-92.6 61.3-150 61.3-57.8 0-110.9-21.5-150.2-61.3-41.1-40.9-63.4-97.1-63.4-157.6v-430c0-57.8-9.2-67-17.9-75.7-9-9.4-21.6-18.3-47.6-18.3-19-0.3-35.6 7.1-50.8 21.7-11.4 10.6-16.2 32.8-16.2 72.3v430c0 60.5-22.2 116.7-63.1 157.6-39 39.8-92.7 61.3-150.1 61.3-57.5 0-110.7-21.5-150.2-61.3-40.9-40.9-63.4-97.1-63.4-157.6v-663.9c0-132.5 86.4-224.9 210-224.9 59.3 0 109.1 23.7 145.9 54.8 64.8-43.2 155-68.9 245.1-67.1 105.9 2 192.5 21.7 277.4 103.9 69.7-66.2 152.7-99.9 256.9-103.9 122.7-4.5 233.1 35.7 310.4 113.2 70.3 70.9 106 166.7 106 285.4zm-44.3 1.2c0-105.6-31.2-190.2-92.2-251.6-67.9-67.9-165.5-102.9-275.2-99.2-108.1 3.8-190.7 45-258.8 125.8-85.5-101.7-167.7-123.7-278.2-125.8-95.2-1.6-193 32-247.4 83.3-29.5-36.9-79.2-71.4-142.3-71.4-112.4 0-162.6 89.4-162.6 177.7v663.3c0 48.4 17.6 92.7 49.5 124.5 30.7 30.3 71.8 47.4 116.5 47.4 44.8 0 86.3-17.1 116.6-47.4 31.7-31.8 49.5-76.1 49.5-124.5v-429c0-40 4-81.2 30.2-107.1 24.3-23.5 52.6-34.9 84.2-34.9 33.9 0.4 59.4 10.6 80.8 31.9 24.2 24.5 31.9 51 31.9 110.1v429c0 48.4 17.4 92.7 49.6 124.5 30.1 30.3 71.6 47.4 116.3 47.4 44.7 0 86.2-17.1 116.7-47.4 32-31.8 49.5-76.1 49.5-124.5v-429c0-48 3.9-78.7 24.4-103.1 15.1-18.9 43.4-40.9 89-39.7 33.1 0.8 62.1 12.8 84.9 35.3 23.8 23 35.1 56.6 35.1 107.5v429c0 48.4 17.4 92.7 49.1 124.5 30.7 30.3 72 47.4 116.6 47.4 45.1 0 86-17.1 116.7-47.4 31.9-31.8 49.6-76.1 49.6-124.5z"/>
				<path id="&lt;Path&gt;" class="s0" d="m1141.1 82c-106 3.4-182.6 43.1-247.8 128.2l-12.2 16-12.8-16c-82.5-105-157.1-126.7-265.8-128.2-93.7-1.6-193.3 34.2-236.4 85.6l-14.3 16.4-11.2-18.1c-22.5-34.8-68.2-71.8-127.4-71.8-96.3 0-131 78-131 145.5v663.3c0 39.9 14.3 76.4 40.2 102.5 24.6 24.4 57.9 37.6 94.2 37.6 36.5 0 69.9-13.2 94.3-37.6 26.3-26.1 40.2-62.7 40.2-102.5v-429c0-45 4.9-95.8 39.7-130 30.3-28.7 67-44 106.7-43.9 42 0.6 75.6 14 103 41.2 30.5 30.6 40.9 65.1 40.9 132.7v429c0 39.9 14.3 76.4 40.2 102.5 24.6 24.4 57.9 37.6 94.1 37.6 36.1 0 69.8-13.2 94.1-37.6 26.2-26.1 40.6-62.7 40.6-102.5v-429c0-45 2.4-88 31.2-123.7 16.5-19.5 53.3-52.7 114.6-51 41.4 1.4 77.2 16.1 106.3 44.3 39.4 38.9 44.2 89.9 44.2 130.4v429c0 39.9 14.3 76.4 40.5 102.5 24.2 24.4 58.3 37.6 93.8 37.6 36.5 0 69.9-13.2 94.4-37.6 26.1-26.1 40.3-62.7 40.3-102.5v-502.1c0-96.8-28-173.8-82.7-229.1-62-61.7-151-93.7-251.9-89.7z"/>
			</g>
		</g>
	</g>
</svg>