<svg version="1.2" xmlns="http://www.w3.org/2000/svg" viewBox="0 0 1552 1500" width="1552" height="1500">
	<title>sygnetManyDevKontra-svg</title>
	<style>
		.s0 { fill: #005693 } 
	</style>
	<g id="#ffffffff">
		<path id="Layer" fill-rule="evenodd" class="s0" d="m398.8 3.6c80.1-14.1 166.5 18.6 216.4 83 31.8 43 62.9 86.6 94.5 129.7 27.6 37.5 43.5 83.8 43.6 130.5 1.8 61.2-23 122.5-66.5 165.5-39.7 39.8-94.5 63.9-150.7 65.8-72.3 3.8-145.3-29.7-189.4-87.2-31.7-43-62.8-86.5-94.4-129.6-32.3-44.3-47.5-100.7-41.8-155.3 5.3-59 34.9-115.5 80.7-153.1 30.7-25.5 68.2-42.8 107.6-49.3zm-37.7 122.5c-31.2 22.9-50.7 60.8-51.2 99.6-0.7 27.6 8.4 55.2 24.7 77.5 27.7 38 55.3 76 82.9 114.1 27.9 44.9 84.4 70 136.3 57.7-25.6-36.1-52.2-71.6-77.8-107.6-13.2-19.8-9.5-48.6 8.3-64.3 19.9-19.4 56-17 72.8 5.1 26.4 35.6 52.2 71.7 78.3 107.5 24.8-41.3 23.5-96.4-4.3-135.9-30-41.8-60.5-83.3-90.7-125-16.4-23-40.3-40.6-67.6-48.5-37.6-11.4-80.3-4-111.7 19.8zm716.6-122.5c52.8-8.9 108.8 1.3 154.7 29.2 44.2 26.3 78.9 68.2 96.3 116.6 25.2 67.6 15.9 147.1-25.3 206.6-30.5 42.3-61.3 84.4-91.9 126.7-24 33.5-57 60.9-95.1 77-54.6 23.9-118.8 24.9-174.2 3-51.8-20.2-95.5-60.2-120.1-110.1-36.1-71.9-30.6-163 15.3-229.3 26.2-36.3 52.6-72.5 78.9-108.8 9-12.2 17.4-24.9 27.5-36.3 34.1-39.4 82.4-66.2 133.9-74.6zm1.5 102.7c-27.2 7.9-51.1 25.4-67.6 48.4-30.5 42.3-61.4 84.4-91.9 126.8-26.6 39.4-27.4 93.4-3.2 134.2 24.4-33.5 48.8-67.1 73.1-100.7 15.4-27.9 57.8-34 79.7-10.4 16.5 16 19.4 43.8 6.7 62.9-25.7 36-52.2 71.4-77.8 107.5 46.8 10.9 98.4-7.9 127.6-45.9 30.6-41.9 61-84 91.6-126 19.9-26.9 28.7-61.8 23.2-94.8-5.1-33.3-24.2-64.2-51.7-83.6-31.1-22.7-72.9-29.5-109.7-18.4zm-772 501.7c73.5-22.4 157.5-3.8 214.8 47.3 40.1 34.8 66.9 84.2 74.7 136.7 8.5 54.2-3.8 111.2-33.6 157.2-27.8 43.6-70.8 77.2-120.1 93.1-47.9 15.6-95.9 31.1-143.9 46.8-33.8 11.1-70.3 14.6-105.6 9.1-55.3-8.1-107.2-37.5-142.6-80.9-29.6-35.9-47.2-81.1-50.9-127.4v-32.3c2.9-37.6 14.8-74.6 35.1-106.5 27.6-43.9 70.8-77.7 120.1-93.8 50.7-16.4 101.3-33 152-49.3zm29.7 96.2c-47.7 15.3-95.2 30.9-142.9 46.3-13.7 4.1-27.1 10-38.9 18.3-36 24.3-57.5 68.3-54.9 111.7 2 30.3 14.9 60 36.4 81.6 24.3 24.7 59 39.1 93.7 38 18.4-0.1 36-5.9 53.2-11.8 43.3-14.1 86.7-28.1 130.1-42.3 46-15.5 80.2-59.6 84.7-107.9-37.6 12.1-75.1 24.2-112.7 36.5-9.1 2.9-18.4 6.5-28.1 5.8-20.8 0.2-40.3-14.8-46.3-34.5-8-24.1 4.6-53.1 28.6-62.1 42.3-14.2 84.9-27.5 127.3-41.6-31.7-35.8-84.1-52.1-130.2-38zm763.4-91c47.5-17.9 100.8-19.3 149.1-3.8 36.6 12 73.3 23.8 110 35.7 28.1 9.3 57.2 17 82.6 32.8 63.1 37.3 105.2 106.8 110 179.9v32.8c-2.3 24.1-7.6 47.9-17.1 70.3-22.5 54.9-67.8 99.9-122.8 122.4-49.5 20.7-106.4 23.1-157.5 6.3-50.1-16.3-100.2-32.4-150.3-48.9-73.3-25-130.5-90.5-146.4-166.2-14.1-62.7 0.6-131 38.6-182.7 26.1-35.5 62.5-63.4 103.8-78.6zm-15.3 129c41.7 13.8 83.5 27.1 125.2 40.8 10.2 3.6 19.3 10.8 25.1 20 13.8 21.1 8.8 52.4-11.7 67.4-13.5 10.6-32.3 12.7-48.3 7.1-40.6-13.1-81-26.4-121.6-39.4 3.8 38.4 25.7 74.5 58.4 95.1 14.1 9.5 30.5 14.3 46.5 19.4 44.3 14.2 88.4 29 132.8 42.9 50.5 15 108.6-6.8 138-50.3 19.5-28.3 27.4-64.8 19.6-98.5-8.9-42.7-41.3-79.6-82.7-93.5-50.4-16.4-100.8-32.8-151.2-49-46-14.1-98.5 2.1-130.1 38zm-343.7 152.8c47.4-7.3 97.1 0.5 139.6 23 72.2 36.6 121.3 114.6 122.4 195.8 0 51.5 0 103 0.1 154.6 0.7 36.4-7.5 73.1-24.1 105.6-24.2 48.7-66.6 88-116.9 108.5-53.3 22.1-115.2 22.7-168.9 1.6-71.1-27.1-126.1-92.2-140.5-166.9-6-27-4-54.8-4.3-82.2-0.1-39.3 0-78.7-0.1-118.1 0.2-49.4 17.7-98.4 48.2-137.2 35.1-45.2 87.9-76.3 144.5-84.7zm-92.3 221.4c-0.7 50.8-0.2 101.5-0.3 152.3 0 28.4 8.6 57.1 26.1 79.8 23.4 31.2 61.9 50.9 101 50.3 39.2 0.7 77.8-19 101.2-50.2 17-21.9 25.8-49.6 26.2-77.2 0.3-46.5 0-93 0.1-139.5 0.1-15.8-0.7-31.7-5.2-46.8-10.3-36.3-37.6-67-72.1-82 0 44 0 87.9 0 131.9 0.1 23.8-19.5 45.4-43.1 48-27.5 4.7-55.7-17.6-56.9-45.6-0.1-44.7 0-89.5 0-134.3-44.5 19.1-76.1 64.8-77 113.3z"/>
	</g>
</svg>