<svg version="1.2" baseProfile="tiny-ps" xmlns="http://www.w3.org/2000/svg" viewBox="0 0 1520 243" width="1520" height="243">
	<title>mara digi-svg</title>
	<style>
		tspan { white-space:pre }
		.shp0 { fill: #000000 } 
	</style>
	<g id="Layer">
		<path id="fullLogo" fill-rule="evenodd" class="shp0" d="M595.56 151.32L582.79 132.18L500.28 132.18L487.59 151.32L461.47 151.32L531.22 46.59L551.93 46.59L621.68 151.32L595.56 151.32ZM541.58 70.18L514.73 110.49L568.35 110.49L541.58 70.18ZM745.87 151.32L728.94 119.4L654.97 119.4L654.97 151.32L633.3 151.32L633.3 46.59L736.6 46.59C740.54 46.6 744.43 47.38 748.06 48.9C751.7 50.41 755 52.62 757.78 55.4C760.56 58.19 762.77 61.49 764.28 65.13C765.79 68.77 766.58 72.67 766.59 76.6L766.59 89.38C766.58 92.09 766.21 94.77 765.49 97.37C764.76 99.98 763.69 102.47 762.31 104.78C760.92 107.1 759.23 109.22 757.28 111.08C755.33 112.95 753.13 114.54 750.76 115.82L769.58 151.32L745.87 151.32ZM744.92 76.6C744.93 75.51 744.71 74.43 744.3 73.42C743.88 72.41 743.27 71.5 742.49 70.73C741.72 69.96 740.8 69.35 739.79 68.95C738.78 68.54 737.69 68.33 736.6 68.35L654.97 68.35L654.97 97.71L736.6 97.71C737.7 97.72 738.79 97.51 739.8 97.1C740.82 96.69 741.74 96.07 742.51 95.3C743.29 94.52 743.9 93.6 744.31 92.58C744.73 91.57 744.93 90.48 744.92 89.38L744.92 76.6ZM911.35 151.32L898.58 132.18L816.07 132.18L803.37 151.31L777.26 151.31L847 46.59L867.72 46.59L937.47 151.32L911.35 151.32ZM857.36 70.18L830.52 110.49L884.14 110.49L857.36 70.18ZM970.06 151.32L970.06 68.35L912.64 68.35L912.64 46.59L1049.14 46.59L1049.14 68.35L991.72 68.35L991.72 151.32L970.06 151.32ZM1179.16 151.32L1179.16 109.83L1086.06 109.83L1086.06 151.32L1064.4 151.32L1064.4 46.59L1086.06 46.59L1086.06 88.14L1179.16 88.14L1179.16 46.59L1200.89 46.59L1200.89 151.32L1179.16 151.32ZM1249.65 151.32C1245.71 151.32 1241.81 150.54 1238.17 149.03C1234.53 147.52 1231.23 145.31 1228.44 142.52C1225.66 139.74 1223.45 136.43 1221.94 132.79C1220.44 129.14 1219.66 125.24 1219.66 121.3L1219.66 76.6C1219.67 72.66 1220.45 68.76 1221.96 65.12C1223.47 61.48 1225.67 58.18 1228.46 55.39C1231.24 52.6 1234.54 50.39 1238.18 48.88C1241.81 47.37 1245.71 46.59 1249.65 46.58L1332.52 46.58C1336.46 46.59 1340.36 47.37 1343.99 48.88C1347.63 50.39 1350.93 52.6 1353.71 55.39C1356.5 58.17 1358.71 61.48 1360.21 65.12C1361.72 68.76 1362.5 72.66 1362.51 76.6L1362.51 121.3C1362.51 125.24 1361.73 129.14 1360.23 132.79C1358.72 136.43 1356.51 139.74 1353.73 142.52C1350.94 145.31 1347.64 147.52 1344 149.03C1340.36 150.54 1336.46 151.32 1332.52 151.32L1249.65 151.32ZM1340.84 121.3L1340.84 76.6C1340.85 75.51 1340.63 74.43 1340.22 73.42C1339.8 72.41 1339.19 71.5 1338.41 70.73C1337.64 69.96 1336.72 69.35 1335.71 68.94C1334.7 68.54 1333.61 68.33 1332.52 68.35L1249.65 68.35C1248.56 68.33 1247.48 68.54 1246.46 68.95C1245.45 69.35 1244.53 69.96 1243.76 70.73C1242.99 71.5 1242.37 72.41 1241.96 73.42C1241.54 74.43 1241.33 75.51 1241.33 76.6L1241.33 121.3C1241.32 122.39 1241.53 123.48 1241.94 124.5C1242.35 125.51 1242.97 126.44 1243.74 127.21C1244.51 127.99 1245.44 128.6 1246.45 129.01C1247.46 129.43 1248.55 129.64 1249.65 129.62L1332.52 129.62C1333.62 129.64 1334.71 129.43 1335.72 129.02C1336.74 128.6 1337.66 127.99 1338.44 127.22C1339.21 126.44 1339.82 125.52 1340.24 124.5C1340.65 123.49 1340.86 122.4 1340.85 121.3L1340.84 121.3ZM1499.17 151.32L1403.09 76.46L1403.09 151.32L1381.43 151.32L1381.43 46.59L1400.18 46.59L1496.18 121.44L1496.18 46.59L1517.93 46.59L1517.93 151.32L1499.17 151.32ZM369.55 49.51L377.7 49.51L377.7 58.51L369.55 58.51L369.55 49.51ZM449.84 46.59L449.84 151.32L428.1 151.32L428.1 84.71L383.6 135.98L366.75 135.98L322.25 84.71L322.25 151.32L300.58 151.32L300.58 46.59L319.84 46.59L375.21 111.88L415.14 64.74L415.14 69.94L423.3 69.94L423.3 60.94L418.35 60.94L430.51 46.59L449.84 46.59ZM313.85 81.03L305.68 81.03L305.68 90.03L313.85 90.03L313.85 81.03ZM404.85 126.05L413.02 126.05L413.02 135.05L404.85 135.05L404.85 126.05Z" />
		<g id="logoMark">
			<path id="logoMark_PathItem_" class="shp0" d="M111.19 148.82C111.18 149.26 111.17 149.7 111.18 150.14C111.19 150.58 111.21 151.02 111.24 151.46C111.27 151.89 111.31 152.33 111.36 152.77C111.41 153.21 111.47 153.64 111.54 154.07C111.58 154.22 111.64 154.36 111.72 154.5C111.79 154.63 111.88 154.76 111.97 154.88C112.07 154.99 112.18 155.1 112.31 155.19C112.43 155.29 112.56 155.37 112.69 155.43C113.05 155.52 113.41 155.6 113.77 155.66C114.13 155.72 114.5 155.77 114.86 155.8C115.23 155.83 115.6 155.85 115.96 155.85C116.33 155.86 116.7 155.84 117.06 155.82L124.18 155.82C125.05 155.84 125.91 155.83 126.78 155.79C127.64 155.75 128.51 155.69 129.37 155.59C130.23 155.49 131.09 155.37 131.94 155.21C132.79 155.06 133.64 154.87 134.48 154.66C135.17 154.46 135.84 154.21 136.48 153.9C137.13 153.59 137.75 153.23 138.34 152.82C138.93 152.41 139.49 151.96 140.01 151.46C140.53 150.96 141 150.42 141.43 149.85C141.91 149.23 142.34 148.57 142.71 147.88C143.07 147.19 143.38 146.47 143.62 145.72C143.86 144.98 144.04 144.22 144.15 143.44C144.26 142.67 144.3 141.88 144.28 141.1C144.3 140.46 144.27 139.81 144.2 139.17C144.12 138.53 144 137.89 143.83 137.27C143.66 136.65 143.44 136.04 143.18 135.45C142.91 134.86 142.61 134.29 142.26 133.75C141.89 133.23 141.47 132.73 141.02 132.27C140.58 131.81 140.09 131.38 139.58 131C139.06 130.61 138.52 130.27 137.95 129.96C137.38 129.66 136.79 129.41 136.18 129.2C135.18 128.9 134.17 128.64 133.15 128.42C132.13 128.21 131.1 128.03 130.06 127.91C129.02 127.78 127.98 127.69 126.94 127.65C125.9 127.61 124.85 127.61 123.81 127.65L111.19 127.65L111.19 148.82ZM140.37 107.65C140.71 107.18 141.01 106.68 141.27 106.16C141.52 105.64 141.74 105.1 141.91 104.54C142.09 103.99 142.21 103.42 142.3 102.84C142.38 102.27 142.41 101.69 142.4 101.11C142.42 100.53 142.39 99.95 142.32 99.37C142.24 98.79 142.12 98.22 141.96 97.67C141.8 97.11 141.59 96.57 141.34 96.04C141.09 95.52 140.81 95.01 140.48 94.53C140.14 94.06 139.76 93.62 139.35 93.22C138.93 92.81 138.49 92.45 138.02 92.11C137.54 91.78 137.04 91.49 136.52 91.25C136 91 135.45 90.79 134.9 90.64C133.83 90.39 132.76 90.19 131.68 90.02C130.6 89.85 129.52 89.71 128.43 89.61C127.34 89.52 126.25 89.46 125.16 89.44C124.07 89.41 122.98 89.43 121.89 89.48L111.19 89.48L111.19 113.3L121.89 113.3C122.93 113.35 123.98 113.35 125.03 113.31C126.08 113.28 127.12 113.2 128.16 113.08C129.2 112.97 130.24 112.81 131.27 112.61C132.3 112.42 133.32 112.18 134.33 111.91C134.93 111.72 135.51 111.49 136.07 111.21C136.63 110.94 137.17 110.62 137.68 110.25C138.2 109.89 138.68 109.49 139.13 109.06C139.58 108.62 139.99 108.15 140.37 107.65ZM162.15 85.23C162.79 86.12 163.35 87.05 163.84 88.02C164.33 88.99 164.74 90 165.07 91.03C165.4 92.07 165.65 93.13 165.82 94.2C165.98 95.28 166.07 96.36 166.06 97.45C166.06 97.98 166.04 98.52 166.01 99.03L169.64 99.03L169.64 90.03L182.94 90.03L182.94 81.03L158.28 81.03C158.65 81.33 159 81.65 159.35 81.98C159.7 82.31 160.03 82.65 160.35 83C160.68 83.35 160.99 83.72 161.29 84.09C161.59 84.46 161.88 84.84 162.15 85.23L162.15 85.23ZM158.02 114.32C157.26 114.93 156.47 115.51 155.65 116.05C154.83 116.59 153.99 117.09 153.13 117.55C152.27 118.01 151.38 118.43 150.48 118.8C149.58 119.18 148.66 119.52 147.73 119.81C148.64 120.01 149.54 120.25 150.44 120.51C151.33 120.77 152.22 121.07 153.1 121.39C153.98 121.71 154.84 122.06 155.7 122.44C156.55 122.81 157.39 123.22 158.22 123.65C158.53 123.82 158.83 124 159.12 124.19C159.42 124.37 159.71 124.57 160 124.76C160.29 124.96 160.57 125.17 160.85 125.38C161.13 125.59 161.4 125.81 161.67 126.04L172.26 126.04L172.26 117.03L189.51 117.03L189.51 108.03L163.25 108.03C162.91 108.63 162.55 109.21 162.15 109.77C161.76 110.33 161.35 110.88 160.91 111.41C160.47 111.93 160.01 112.44 159.53 112.93C159.05 113.41 158.54 113.88 158.02 114.32L158.02 114.32ZM157.4 9L165.57 9L165.57 18L157.4 18L157.4 9ZM143.65 18L151.82 18L151.82 27.01L143.65 27.01L143.65 18ZM235.17 18L243.32 18L243.32 27.01L235.17 27.01L235.17 18ZM195.18 0L203.35 0L203.35 9L195.18 9L195.18 0ZM179.38 54.01L187.55 54.01L187.55 63.01L179.38 63.01L179.38 54.01ZM200.45 63.01L208.6 63.01L208.6 72.03L200.45 72.03L200.45 63.01ZM259.38 63.01L267.54 63.01L267.54 72.03L259.38 72.03L259.38 63.01ZM273.01 27.01L281.18 27.01L281.18 36.02L273.01 36.02L273.01 27.01ZM207.42 45.01L215.57 45.01L215.57 54.01L207.42 54.01L207.42 45.01ZM166.9 45.01L175.07 45.01L175.07 54.01L166.9 54.01L166.9 45.01ZM188.21 81.03L196.36 81.03L196.36 90.03L188.21 90.03L188.21 81.03ZM218.88 81.03L227.02 81.03L227.02 90.03L218.88 90.03L218.88 81.03ZM229.35 126.04L237.52 126.04L237.52 135.06L229.35 135.06L229.35 126.04ZM203.35 108.03L211.5 108.03L211.5 117.04L203.35 117.04L203.35 108.03ZM239.32 99.03L247.47 99.03L247.47 108.03L239.32 108.03L239.32 99.03ZM263.45 108.03L271.62 108.03L271.62 117.04L263.45 117.04L263.45 108.03ZM281.18 137.23L289.34 137.23L289.34 146.24L281.18 146.24L281.18 137.23ZM199.26 153.06L207.42 153.06L207.42 162.06L199.26 162.06L199.26 153.06ZM207.42 162.06L215.57 162.06L215.57 171.07L207.42 171.07L207.42 162.06ZM229.35 162.06L237.52 162.06L237.52 171.07L229.35 171.07L229.35 162.06ZM247.47 146.81L255.61 146.81L255.61 155.82L247.47 155.82L247.47 146.81ZM184.14 162.06L192.28 162.06L192.28 171.07L184.14 171.07L184.14 162.06ZM218.87 189.07L227.03 189.07L227.03 198.07L218.87 198.07L218.87 189.07ZM201.33 207.07L209.48 207.07L209.48 216.08L201.33 216.08L201.33 207.07ZM185.43 220.6L193.6 220.6L193.6 229.6L185.43 229.6L185.43 220.6ZM199.26 144.06L187.17 144.06L187.17 135.06L195.24 135.06L195.24 126.04L187.07 126.04L187.07 135.06L168.06 135.06C168.77 136.94 169.25 138.91 169.48 140.91C169.71 142.91 169.69 144.94 169.42 146.93C169.15 148.93 168.63 150.89 167.88 152.76C167.13 154.63 166.15 156.39 164.96 158.02C164.12 159.15 163.21 160.21 162.22 161.21C161.23 162.2 160.17 163.12 159.05 163.97C157.93 164.81 156.76 165.57 155.53 166.25C154.3 166.92 153.02 167.5 151.71 168C150.82 168.33 149.91 168.64 149 168.92C148.09 169.2 147.17 169.45 146.24 169.67C145.31 169.89 144.38 170.08 143.44 170.25C142.5 170.41 141.55 170.54 140.61 170.64L140.61 185.34C140.61 185.62 140.55 185.9 140.45 186.16C140.34 186.43 140.18 186.67 139.98 186.87C139.79 187.07 139.55 187.23 139.29 187.34C139.03 187.45 138.75 187.51 138.46 187.51L129.12 187.51C128.83 187.51 128.55 187.45 128.29 187.34C128.03 187.23 127.79 187.07 127.59 186.87C127.39 186.67 127.23 186.43 127.12 186.17C127.01 185.9 126.95 185.62 126.95 185.34L126.95 171.43C126.84 171.43 126.75 171.45 126.66 171.45L118.16 171.45L118.16 185.34C118.16 185.62 118.11 185.91 118 186.17C117.89 186.43 117.73 186.67 117.53 186.87C117.33 187.07 117.09 187.23 116.83 187.34C116.56 187.45 116.28 187.51 116 187.51L106.66 187.51C106.37 187.51 106.09 187.45 105.83 187.34C105.57 187.23 105.33 187.07 105.14 186.87C104.94 186.67 104.78 186.43 104.67 186.17C104.57 185.9 104.51 185.62 104.51 185.34L104.51 171.45L77.64 171.45C77.36 171.45 77.08 171.4 76.82 171.29C76.56 171.19 76.33 171.03 76.13 170.83C75.93 170.63 75.77 170.4 75.66 170.14C75.55 169.88 75.5 169.6 75.5 169.32L75.5 160.08C75.5 159.8 75.55 159.52 75.66 159.26C75.77 159 75.92 158.76 76.12 158.56C76.32 158.36 76.56 158.2 76.82 158.09C77.08 157.98 77.36 157.93 77.64 157.93L79.35 157.93C79.79 157.96 80.23 157.97 80.67 157.95C81.11 157.94 81.55 157.9 81.99 157.85C82.43 157.79 82.86 157.71 83.29 157.61C83.72 157.51 84.15 157.39 84.56 157.25C84.77 157.16 84.97 157.04 85.16 156.91C85.35 156.78 85.53 156.64 85.69 156.47C85.86 156.31 86.01 156.14 86.14 155.95C86.27 155.76 86.39 155.57 86.49 155.36C86.61 154.91 86.71 154.46 86.8 154C86.88 153.55 86.95 153.09 86.99 152.63C87.04 152.16 87.07 151.7 87.08 151.24C87.08 150.77 87.07 150.31 87.04 149.85L87.04 95.36C87.08 94.89 87.09 94.42 87.08 93.96C87.08 93.49 87.05 93.02 87 92.56C86.96 92.1 86.89 91.63 86.81 91.17C86.72 90.71 86.61 90.26 86.49 89.81C86.39 89.61 86.27 89.41 86.13 89.23C86 89.04 85.84 88.87 85.68 88.71C85.52 88.55 85.34 88.41 85.15 88.28C84.97 88.15 84.77 88.03 84.56 87.94C84.15 87.79 83.72 87.67 83.29 87.56C82.86 87.46 82.43 87.38 81.99 87.32C81.55 87.26 81.11 87.23 80.67 87.21C80.23 87.2 79.79 87.21 79.35 87.24L77.64 87.24C77.36 87.24 77.08 87.18 76.82 87.08C76.56 86.97 76.32 86.81 76.12 86.61C75.92 86.41 75.77 86.17 75.66 85.91C75.55 85.65 75.5 85.37 75.5 85.09L75.5 75.85C75.5 75.57 75.55 75.29 75.66 75.03C75.77 74.77 75.93 74.53 76.13 74.33C76.33 74.14 76.56 73.98 76.82 73.87C77.08 73.77 77.36 73.71 77.64 73.72L104.51 73.72L104.51 59.71C104.51 59.44 104.56 59.17 104.66 58.92C104.77 58.66 104.92 58.44 105.11 58.24C105.3 58.05 105.53 57.9 105.78 57.79C106.03 57.69 106.3 57.63 106.57 57.63L116.11 57.63C116.38 57.63 116.65 57.69 116.9 57.79C117.15 57.89 117.38 58.05 117.58 58.24C117.77 58.43 117.92 58.66 118.02 58.91C118.13 59.17 118.18 59.44 118.18 59.71L118.18 73.72L126.96 73.72L126.96 59.71C126.95 59.44 127.01 59.17 127.11 58.91C127.21 58.66 127.37 58.43 127.56 58.24C127.75 58.05 127.98 57.89 128.23 57.79C128.49 57.68 128.76 57.63 129.03 57.63L138.57 57.63C138.84 57.63 139.11 57.69 139.36 57.79C139.61 57.9 139.84 58.05 140.03 58.24C140.22 58.44 140.37 58.66 140.47 58.92C140.58 59.17 140.63 59.44 140.63 59.71L140.63 74.27C141.51 74.35 142.39 74.47 143.26 74.62C144.14 74.76 145.01 74.94 145.87 75.14C146.73 75.34 147.59 75.57 148.44 75.83C149.29 76.09 150.13 76.38 150.96 76.69C150.99 76.7 151.02 76.71 151.05 76.72C151.07 76.74 151.1 76.75 151.13 76.76C151.16 76.77 151.19 76.78 151.22 76.8C151.25 76.81 151.28 76.82 151.31 76.84L151.31 72.03L174.14 72.03L174.14 63.02L151.31 63.02L151.31 54.02L159.88 54.02L159.88 38.62C128.32 23.95 91.19 28.49 64.1 50.35C37.01 72.2 24.67 107.57 32.29 141.55C39.9 175.53 66.14 202.23 99.96 210.41C133.78 218.59 169.3 206.82 191.57 180.07L178.59 180.07L178.59 171.07L169.64 171.07L169.64 162.06L176.76 162.06L176.76 153.07L199.26 153.07L199.26 144.06ZM121.41 227.69C91.57 227.7 63.1 215.11 43.01 193.03C22.91 170.94 13.04 141.4 15.82 111.66C18.6 81.91 33.78 54.72 57.62 36.75C81.46 18.78 111.76 11.7 141.08 17.25L141.08 9L141.08 9L141.08 0L132.94 0L132.94 9L121.41 9L121.41 0C83.84 -0.03 48.38 17.35 25.36 47.07C2.35 76.79 -5.63 115.5 3.75 151.92C13.13 188.33 38.82 218.34 73.33 233.21C107.84 248.07 147.27 246.11 180.14 227.89L180.14 216.08L169.58 216.08C165.87 217.98 162.05 219.66 158.14 221.12C154.23 222.57 150.24 223.78 146.19 224.76C142.13 225.74 138.03 226.47 133.89 226.96C129.74 227.45 125.58 227.69 121.41 227.69L121.41 227.69ZM207.33 189.07L203.13 189.07C201.73 190.76 200.29 192.4 198.79 194C197.3 195.6 195.76 197.15 194.17 198.65C192.58 200.16 190.95 201.61 189.27 203.02C187.6 204.42 185.88 205.77 184.12 207.07L201.33 207.07L201.33 198.07L207.33 198.07L207.33 189.07Z" />
		</g>
		<path id="fullLogo-11" fill-rule="evenodd" class="shp0" d="M300.31 216.08L300.31 182.97L334.68 182.97C335.09 182.97 335.49 182.99 335.89 183.05C336.3 183.1 336.69 183.18 337.08 183.28C337.47 183.39 337.86 183.52 338.23 183.68C338.6 183.83 338.96 184.02 339.31 184.22C339.65 184.43 339.98 184.65 340.29 184.89C340.6 185.14 340.9 185.4 341.18 185.68C341.46 185.96 341.72 186.26 341.96 186.58C342.2 186.89 342.43 187.22 342.63 187.56C342.83 187.91 343.01 188.27 343.17 188.64C343.32 189.01 343.45 189.39 343.56 189.78C343.66 190.17 343.74 190.57 343.79 190.97C343.84 191.37 343.86 191.77 343.86 192.17L343.86 206.9C343.87 207.3 343.84 207.7 343.79 208.1C343.74 208.5 343.66 208.9 343.56 209.29C343.46 209.68 343.33 210.06 343.17 210.43C343.01 210.8 342.83 211.16 342.63 211.51C342.42 211.85 342.2 212.18 341.96 212.49C341.72 212.8 341.46 213.1 341.18 213.38C340.9 213.66 340.6 213.92 340.29 214.16C339.98 214.41 339.65 214.63 339.31 214.83C338.96 215.04 338.6 215.22 338.23 215.38C337.86 215.54 337.47 215.67 337.08 215.77C336.69 215.88 336.3 215.96 335.89 216.01C335.49 216.06 335.09 216.09 334.68 216.08L300.31 216.08ZM334.68 210.33C335.14 210.34 335.59 210.26 336.01 210.09C336.43 209.92 336.81 209.66 337.13 209.34C337.45 209.02 337.7 208.64 337.87 208.22C338.04 207.8 338.13 207.35 338.12 206.9L338.12 192.17C338.13 191.72 338.04 191.27 337.87 190.85C337.7 190.43 337.44 190.05 337.12 189.73C336.8 189.41 336.42 189.15 336.01 188.98C335.59 188.81 335.14 188.72 334.68 188.72L306.05 188.72L306.05 210.34L334.68 210.33ZM395.91 216.08L390.17 216.08L390.17 182.97L395.91 182.97L395.91 216.08ZM476.81 216.08L451.61 216.08C451.2 216.09 450.8 216.06 450.4 216.01C450 215.96 449.6 215.88 449.21 215.78C448.82 215.67 448.44 215.54 448.07 215.38C447.7 215.22 447.34 215.04 446.99 214.83C446.65 214.63 446.33 214.41 446.02 214.16C445.7 213.92 445.41 213.66 445.13 213.38C444.85 213.1 444.58 212.8 444.34 212.49C444.1 212.18 443.87 211.85 443.67 211.51C443.46 211.17 443.28 210.81 443.12 210.43C442.97 210.06 442.84 209.68 442.73 209.29C442.63 208.9 442.55 208.51 442.5 208.11C442.45 207.71 442.42 207.3 442.43 206.9L442.43 192.17C442.42 191.77 442.45 191.36 442.5 190.96C442.55 190.56 442.63 190.17 442.73 189.78C442.84 189.39 442.97 189.01 443.13 188.64C443.28 188.27 443.47 187.91 443.67 187.56C443.87 187.22 444.1 186.89 444.34 186.58C444.58 186.26 444.84 185.97 445.12 185.68C445.4 185.4 445.7 185.14 446.01 184.9C446.33 184.65 446.65 184.43 446.99 184.22C447.34 184.02 447.7 183.83 448.07 183.68C448.44 183.52 448.82 183.39 449.21 183.28C449.6 183.17 450 183.1 450.4 183.04C450.8 182.99 451.2 182.97 451.61 182.97L476.81 182.97C477.21 182.97 477.62 182.99 478.02 183.05C478.42 183.1 478.81 183.18 479.21 183.28C479.6 183.39 479.98 183.52 480.35 183.68C480.72 183.83 481.08 184.02 481.43 184.22C481.77 184.43 482.1 184.65 482.41 184.89C482.73 185.14 483.02 185.4 483.3 185.68C483.58 185.96 483.84 186.26 484.09 186.58C484.33 186.89 484.55 187.22 484.75 187.56C484.96 187.91 485.14 188.27 485.29 188.64C485.45 189.01 485.58 189.39 485.68 189.78C485.79 190.17 485.86 190.57 485.91 190.97C485.96 191.37 485.99 191.77 485.98 192.17L485.98 192.95L480.24 192.95L480.24 192.17C480.25 191.72 480.16 191.27 479.99 190.85C479.82 190.43 479.57 190.05 479.25 189.73C478.93 189.41 478.55 189.15 478.13 188.98C477.71 188.81 477.26 188.72 476.81 188.72L451.61 188.72C451.15 188.72 450.7 188.81 450.29 188.98C449.87 189.15 449.49 189.41 449.17 189.73C448.85 190.05 448.59 190.43 448.42 190.85C448.25 191.27 448.16 191.72 448.17 192.17L448.17 206.9C448.16 207.35 448.25 207.8 448.42 208.22C448.59 208.64 448.84 209.02 449.16 209.34C449.48 209.66 449.86 209.92 450.28 210.09C450.7 210.26 451.15 210.34 451.61 210.33L476.81 210.33C477.26 210.34 477.71 210.26 478.13 210.09C478.55 209.92 478.93 209.66 479.25 209.34C479.57 209.02 479.83 208.64 480 208.22C480.17 207.8 480.25 207.35 480.24 206.9L480.24 202.42L463.43 202.42L463.43 196.67L485.99 196.67L485.99 206.9C485.99 207.3 485.97 207.7 485.92 208.1C485.87 208.5 485.79 208.9 485.69 209.29C485.58 209.68 485.45 210.06 485.3 210.43C485.14 210.8 484.96 211.16 484.75 211.51C484.55 211.85 484.33 212.18 484.09 212.49C483.85 212.8 483.58 213.1 483.3 213.38C483.02 213.66 482.73 213.92 482.41 214.16C482.1 214.41 481.77 214.63 481.43 214.83C481.09 215.04 480.73 215.22 480.35 215.38C479.98 215.54 479.6 215.67 479.21 215.77C478.82 215.88 478.42 215.96 478.02 216.01C477.62 216.06 477.21 216.09 476.81 216.08ZM537.89 216.08L532.15 216.08L532.15 182.97L537.89 182.97L537.89 216.08ZM607.95 216.08L602.21 216.08L602.21 188.72L583.3 188.72L583.3 182.97L626.86 182.97L626.86 188.72L607.95 188.72L607.95 216.08ZM710.68 216.08L703.79 216.08L699.57 209.78L671.65 209.78L667.45 216.08L660.54 216.08L682.58 182.97L688.64 182.97L710.68 216.08ZM695.77 204.03L685.62 188.8L675.48 204.03L695.77 204.03ZM792.2 216.08L754.94 216.08L754.94 182.97L760.68 182.97L760.68 210.34L792.2 210.34L792.2 216.08ZM934.95 216.08L929.21 216.08L929.21 202.42L897.13 202.42L897.13 216.08L891.39 216.08L891.39 182.97L897.13 182.97L897.13 196.67L929.21 196.67L929.21 182.97L934.95 182.97L934.95 216.08ZM990.64 216.08C990.24 216.09 989.83 216.06 989.43 216.01C989.03 215.96 988.64 215.88 988.25 215.78C987.86 215.67 987.48 215.54 987.11 215.38C986.74 215.22 986.38 215.04 986.03 214.83C985.69 214.63 985.36 214.41 985.05 214.16C984.74 213.92 984.44 213.66 984.16 213.38C983.88 213.1 983.62 212.8 983.38 212.49C983.13 212.18 982.91 211.85 982.7 211.51C982.5 211.17 982.32 210.81 982.16 210.43C982 210.06 981.87 209.68 981.76 209.29C981.66 208.9 981.58 208.51 981.53 208.11C981.48 207.71 981.46 207.3 981.46 206.9L981.46 192.17C981.46 191.77 981.48 191.36 981.53 190.96C981.58 190.56 981.66 190.17 981.77 189.78C981.87 189.39 982 189.01 982.16 188.64C982.32 188.27 982.5 187.91 982.7 187.56C982.91 187.22 983.13 186.89 983.37 186.58C983.62 186.26 983.88 185.97 984.16 185.68C984.44 185.4 984.74 185.14 985.05 184.9C985.36 184.65 985.69 184.43 986.03 184.22C986.38 184.02 986.74 183.83 987.11 183.68C987.48 183.52 987.86 183.39 988.25 183.28C988.64 183.17 989.03 183.1 989.43 183.04C989.83 182.99 990.24 182.97 990.64 182.97L1017.94 182.97C1018.34 182.97 1018.75 182.99 1019.15 183.05C1019.55 183.1 1019.95 183.18 1020.34 183.28C1020.73 183.39 1021.11 183.52 1021.49 183.68C1021.86 183.83 1022.22 184.02 1022.57 184.22C1022.91 184.43 1023.24 184.65 1023.55 184.89C1023.86 185.14 1024.16 185.4 1024.44 185.68C1024.72 185.96 1024.98 186.26 1025.22 186.58C1025.46 186.89 1025.68 187.22 1025.88 187.56C1026.09 187.91 1026.27 188.27 1026.42 188.64C1026.58 189.01 1026.71 189.39 1026.81 189.78C1026.92 190.17 1026.99 190.57 1027.04 190.97C1027.09 191.37 1027.12 191.77 1027.11 192.17L1027.11 206.9C1027.12 207.3 1027.09 207.7 1027.04 208.1C1026.99 208.5 1026.92 208.9 1026.81 209.29C1026.71 209.68 1026.58 210.06 1026.42 210.43C1026.27 210.8 1026.09 211.16 1025.88 211.51C1025.68 211.85 1025.46 212.18 1025.22 212.49C1024.98 212.8 1024.72 213.1 1024.44 213.38C1024.16 213.66 1023.86 213.92 1023.55 214.16C1023.24 214.41 1022.91 214.63 1022.57 214.83C1022.22 215.04 1021.86 215.22 1021.49 215.38C1021.11 215.54 1020.73 215.67 1020.34 215.77C1019.95 215.88 1019.55 215.96 1019.15 216.01C1018.75 216.06 1018.34 216.09 1017.94 216.08L990.64 216.08ZM1017.94 210.33C1018.39 210.34 1018.84 210.26 1019.26 210.09C1019.68 209.92 1020.07 209.66 1020.39 209.34C1020.71 209.02 1020.96 208.64 1021.13 208.22C1021.3 207.8 1021.39 207.35 1021.38 206.9L1021.38 192.17C1021.38 191.72 1021.3 191.27 1021.13 190.85C1020.95 190.43 1020.7 190.05 1020.38 189.73C1020.06 189.4 1019.68 189.15 1019.26 188.98C1018.84 188.81 1018.39 188.72 1017.94 188.72L990.64 188.72C990.19 188.72 989.74 188.81 989.32 188.98C988.9 189.15 988.52 189.41 988.2 189.73C987.88 190.05 987.63 190.43 987.46 190.85C987.29 191.27 987.2 191.72 987.21 192.17L987.21 206.9C987.2 207.35 987.28 207.8 987.45 208.22C987.62 208.64 987.88 209.02 988.2 209.34C988.52 209.66 988.9 209.92 989.32 210.09C989.74 210.26 990.19 210.34 990.64 210.33L1017.94 210.33ZM1110.94 216.08L1073.68 216.08L1073.68 182.97L1079.42 182.97L1079.42 210.34L1110.94 210.34L1110.94 216.08ZM1190.96 216.08L1156.58 216.08L1156.58 182.97L1190.96 182.97C1191.36 182.97 1191.77 182.99 1192.17 183.05C1192.57 183.1 1192.97 183.18 1193.36 183.28C1193.75 183.39 1194.13 183.52 1194.5 183.68C1194.88 183.83 1195.24 184.02 1195.59 184.22C1195.93 184.43 1196.26 184.65 1196.57 184.89C1196.88 185.14 1197.18 185.4 1197.46 185.68C1197.74 185.96 1198 186.26 1198.24 186.58C1198.48 186.89 1198.7 187.22 1198.9 187.56C1199.11 187.91 1199.29 188.27 1199.45 188.64C1199.6 189.01 1199.73 189.39 1199.84 189.78C1199.94 190.17 1200.02 190.57 1200.07 190.97C1200.12 191.37 1200.14 191.77 1200.14 192.17L1200.14 206.9C1200.14 207.3 1200.12 207.7 1200.07 208.1C1200.02 208.5 1199.94 208.9 1199.84 209.29C1199.73 209.68 1199.6 210.06 1199.45 210.43C1199.29 210.8 1199.11 211.16 1198.9 211.51C1198.7 211.85 1198.48 212.18 1198.24 212.49C1198 212.8 1197.73 213.1 1197.45 213.38C1197.18 213.66 1196.88 213.92 1196.57 214.16C1196.25 214.41 1195.93 214.63 1195.59 214.83C1195.24 215.04 1194.88 215.22 1194.5 215.38C1194.13 215.54 1193.75 215.67 1193.36 215.77C1192.97 215.88 1192.57 215.96 1192.17 216.01C1191.77 216.06 1191.36 216.09 1190.96 216.08ZM1190.96 210.33C1191.41 210.34 1191.86 210.26 1192.28 210.09C1192.7 209.92 1193.08 209.66 1193.4 209.34C1193.72 209.02 1193.98 208.64 1194.15 208.22C1194.32 207.8 1194.4 207.35 1194.4 206.9L1194.4 192.17C1194.4 191.72 1194.31 191.27 1194.14 190.85C1193.97 190.43 1193.72 190.05 1193.4 189.73C1193.08 189.4 1192.7 189.15 1192.28 188.98C1191.86 188.81 1191.41 188.72 1190.96 188.72L1162.32 188.72L1162.32 210.34L1190.96 210.33ZM1252.18 216.08L1246.45 216.08L1246.45 182.97L1252.18 182.97L1252.18 216.08ZM1342.51 216.08L1337.28 216.08L1304.69 190.69L1304.69 216.08L1298.96 216.08L1298.96 182.97L1304.19 182.97L1336.77 208.37L1336.77 182.97L1342.51 182.97L1342.51 216.08ZM1423.4 216.08L1398.2 216.08C1397.8 216.09 1397.4 216.06 1397 216.01C1396.6 215.96 1396.2 215.88 1395.81 215.78C1395.42 215.67 1395.04 215.54 1394.67 215.38C1394.3 215.22 1393.94 215.04 1393.59 214.83C1393.25 214.63 1392.93 214.41 1392.61 214.16C1392.3 213.92 1392 213.66 1391.72 213.38C1391.44 213.1 1391.18 212.8 1390.94 212.49C1390.69 212.18 1390.47 211.85 1390.27 211.51C1390.06 211.17 1389.88 210.81 1389.72 210.43C1389.56 210.06 1389.43 209.68 1389.33 209.29C1389.22 208.9 1389.14 208.51 1389.09 208.11C1389.04 207.71 1389.02 207.3 1389.02 206.9L1389.02 192.17C1389.02 191.77 1389.04 191.36 1389.09 190.96C1389.14 190.56 1389.22 190.17 1389.33 189.78C1389.43 189.39 1389.56 189.01 1389.72 188.64C1389.88 188.27 1390.06 187.91 1390.27 187.56C1390.47 187.22 1390.69 186.89 1390.94 186.58C1391.18 186.26 1391.44 185.97 1391.72 185.69C1392 185.4 1392.3 185.14 1392.61 184.9C1392.93 184.65 1393.25 184.43 1393.59 184.22C1393.94 184.02 1394.3 183.83 1394.67 183.68C1395.04 183.52 1395.42 183.39 1395.81 183.28C1396.2 183.17 1396.6 183.1 1397 183.04C1397.4 182.99 1397.8 182.97 1398.2 182.97L1423.4 182.97C1423.81 182.97 1424.21 182.99 1424.61 183.05C1425.01 183.1 1425.41 183.18 1425.8 183.28C1426.19 183.39 1426.58 183.52 1426.95 183.68C1427.32 183.83 1427.68 184.02 1428.03 184.22C1428.37 184.43 1428.7 184.65 1429.01 184.89C1429.33 185.14 1429.62 185.4 1429.9 185.68C1430.18 185.96 1430.44 186.26 1430.68 186.58C1430.93 186.89 1431.15 187.22 1431.35 187.56C1431.55 187.91 1431.73 188.27 1431.89 188.64C1432.04 189.01 1432.17 189.39 1432.28 189.78C1432.38 190.17 1432.46 190.57 1432.51 190.97C1432.56 191.37 1432.58 191.77 1432.58 192.17L1432.58 192.95L1426.84 192.95L1426.84 192.17C1426.85 191.72 1426.76 191.27 1426.59 190.85C1426.42 190.43 1426.16 190.05 1425.84 189.73C1425.52 189.4 1425.14 189.15 1424.72 188.98C1424.3 188.81 1423.85 188.72 1423.4 188.72L1398.2 188.72C1397.75 188.72 1397.3 188.81 1396.88 188.98C1396.46 189.15 1396.08 189.41 1395.76 189.73C1395.44 190.05 1395.19 190.43 1395.02 190.85C1394.85 191.27 1394.76 191.72 1394.77 192.17L1394.77 206.9C1394.76 207.35 1394.84 207.8 1395.01 208.22C1395.18 208.64 1395.44 209.02 1395.76 209.34C1396.08 209.66 1396.46 209.91 1396.88 210.09C1397.3 210.26 1397.75 210.34 1398.2 210.33L1423.4 210.33C1423.85 210.34 1424.3 210.26 1424.72 210.09C1425.14 209.92 1425.53 209.66 1425.85 209.34C1426.17 209.02 1426.42 208.64 1426.59 208.22C1426.76 207.8 1426.85 207.35 1426.84 206.9L1426.84 202.42L1410.03 202.42L1410.03 196.67L1432.58 196.67L1432.58 206.9C1432.58 207.3 1432.56 207.7 1432.51 208.1C1432.46 208.5 1432.38 208.9 1432.28 209.29C1432.18 209.68 1432.05 210.06 1431.89 210.43C1431.73 210.8 1431.55 211.16 1431.35 211.51C1431.15 211.85 1430.93 212.18 1430.68 212.49C1430.44 212.8 1430.18 213.1 1429.9 213.38C1429.62 213.66 1429.32 213.92 1429.01 214.16C1428.7 214.41 1428.37 214.63 1428.03 214.83C1427.68 215.04 1427.32 215.22 1426.95 215.38C1426.58 215.54 1426.19 215.67 1425.8 215.77C1425.41 215.88 1425.02 215.96 1424.61 216.01C1424.21 216.06 1423.81 216.09 1423.4 216.08ZM1486.27 216.08C1485.9 216.09 1485.53 216.07 1485.16 216.02C1484.79 215.97 1484.42 215.9 1484.06 215.81C1483.7 215.71 1483.34 215.59 1483 215.45C1482.65 215.31 1482.32 215.14 1482 214.95C1481.68 214.77 1481.38 214.57 1481.09 214.35C1480.8 214.13 1480.53 213.89 1480.27 213.64C1480.01 213.39 1479.77 213.12 1479.54 212.83C1479.32 212.55 1479.11 212.25 1478.92 211.94C1478.73 211.63 1478.57 211.3 1478.42 210.96C1478.28 210.62 1478.15 210.28 1478.06 209.92C1477.96 209.57 1477.88 209.21 1477.84 208.85C1477.79 208.48 1477.76 208.11 1477.76 207.75L1477.76 206.96L1483.51 206.96L1483.51 207.75C1483.5 207.92 1483.52 208.09 1483.55 208.26C1483.58 208.43 1483.63 208.6 1483.7 208.76C1483.77 208.92 1483.85 209.07 1483.95 209.21C1484.05 209.35 1484.17 209.48 1484.3 209.6C1484.43 209.72 1484.57 209.83 1484.73 209.92C1484.88 210.02 1485.04 210.1 1485.21 210.16C1485.38 210.22 1485.56 210.27 1485.73 210.3C1485.91 210.33 1486.09 210.34 1486.27 210.33L1510.71 210.33C1510.89 210.34 1511.07 210.33 1511.25 210.3C1511.43 210.27 1511.6 210.22 1511.77 210.16C1511.94 210.1 1512.1 210.02 1512.25 209.92C1512.41 209.83 1512.55 209.72 1512.68 209.6C1512.81 209.48 1512.93 209.35 1513.03 209.21C1513.13 209.07 1513.21 208.92 1513.28 208.76C1513.35 208.6 1513.4 208.43 1513.43 208.26C1513.47 208.09 1513.48 207.92 1513.48 207.75L1513.48 205C1513.48 204.83 1513.47 204.66 1513.43 204.49C1513.4 204.32 1513.35 204.15 1513.28 203.99C1513.21 203.83 1513.13 203.68 1513.03 203.54C1512.93 203.4 1512.81 203.27 1512.68 203.15C1512.55 203.03 1512.41 202.92 1512.25 202.83C1512.1 202.73 1511.94 202.65 1511.77 202.59C1511.6 202.53 1511.43 202.48 1511.25 202.45C1511.07 202.42 1510.89 202.41 1510.71 202.42L1486.27 202.42C1485.9 202.42 1485.53 202.4 1485.16 202.36C1484.78 202.31 1484.42 202.24 1484.06 202.14C1483.7 202.05 1483.34 201.93 1483 201.78C1482.65 201.64 1482.32 201.47 1482 201.28C1481.68 201.1 1481.38 200.9 1481.09 200.68C1480.8 200.46 1480.52 200.22 1480.26 199.97C1480 199.71 1479.76 199.44 1479.53 199.16C1479.31 198.87 1479.1 198.57 1478.91 198.26C1478.72 197.95 1478.55 197.62 1478.41 197.28C1478.26 196.95 1478.14 196.6 1478.05 196.24C1477.95 195.89 1477.88 195.53 1477.83 195.16C1477.78 194.8 1477.76 194.43 1477.76 194.06L1477.76 191.34C1477.76 190.97 1477.78 190.6 1477.83 190.24C1477.88 189.87 1477.95 189.51 1478.05 189.16C1478.14 188.8 1478.26 188.45 1478.41 188.12C1478.55 187.78 1478.72 187.45 1478.91 187.14C1479.1 186.82 1479.31 186.52 1479.53 186.24C1479.76 185.95 1480 185.68 1480.26 185.43C1480.52 185.17 1480.8 184.93 1481.09 184.71C1481.38 184.49 1481.68 184.29 1482 184.11C1482.32 183.92 1482.65 183.75 1483 183.61C1483.34 183.47 1483.7 183.35 1484.06 183.25C1484.42 183.15 1484.78 183.08 1485.16 183.04C1485.53 182.99 1485.9 182.97 1486.27 182.97L1510.71 182.97C1511.08 182.97 1511.46 182.99 1511.83 183.04C1512.2 183.08 1512.57 183.15 1512.93 183.25C1513.29 183.35 1513.64 183.47 1513.99 183.61C1514.33 183.75 1514.67 183.92 1514.99 184.11C1515.3 184.29 1515.61 184.49 1515.89 184.71C1516.18 184.93 1516.46 185.17 1516.72 185.43C1516.98 185.68 1517.22 185.95 1517.45 186.24C1517.67 186.52 1517.88 186.82 1518.07 187.14C1518.26 187.45 1518.43 187.78 1518.57 188.12C1518.72 188.45 1518.84 188.8 1518.94 189.16C1519.04 189.51 1519.11 189.87 1519.15 190.24C1519.2 190.6 1519.22 190.97 1519.22 191.34L1519.22 192.1L1513.48 192.1L1513.48 191.34C1513.48 191.17 1513.47 190.99 1513.43 190.82C1513.4 190.65 1513.35 190.48 1513.28 190.32C1513.21 190.16 1513.13 190.01 1513.03 189.86C1512.93 189.72 1512.81 189.59 1512.68 189.47C1512.55 189.35 1512.41 189.24 1512.25 189.14C1512.1 189.05 1511.94 188.97 1511.77 188.9C1511.6 188.84 1511.43 188.79 1511.25 188.76C1511.07 188.73 1510.89 188.72 1510.71 188.72L1486.27 188.72C1486.09 188.72 1485.91 188.73 1485.73 188.76C1485.55 188.79 1485.38 188.84 1485.21 188.9C1485.04 188.97 1484.88 189.05 1484.73 189.14C1484.57 189.24 1484.43 189.35 1484.3 189.47C1484.17 189.59 1484.05 189.72 1483.95 189.87C1483.85 190.01 1483.77 190.16 1483.7 190.32C1483.63 190.48 1483.58 190.65 1483.55 190.82C1483.52 190.99 1483.5 191.17 1483.51 191.34L1483.51 194.06C1483.5 194.24 1483.52 194.41 1483.55 194.58C1483.58 194.75 1483.63 194.92 1483.7 195.08C1483.77 195.24 1483.85 195.39 1483.95 195.53C1484.05 195.67 1484.17 195.8 1484.3 195.92C1484.43 196.04 1484.57 196.15 1484.73 196.25C1484.88 196.35 1485.04 196.43 1485.21 196.49C1485.38 196.55 1485.55 196.6 1485.73 196.63C1485.91 196.66 1486.09 196.67 1486.27 196.67L1510.71 196.67C1511.08 196.66 1511.46 196.68 1511.83 196.73C1512.2 196.78 1512.56 196.85 1512.93 196.94C1513.29 197.04 1513.64 197.15 1513.99 197.3C1514.33 197.44 1514.67 197.6 1514.99 197.79C1515.3 197.97 1515.61 198.17 1515.89 198.39C1516.18 198.61 1516.46 198.85 1516.72 199.1C1516.98 199.36 1517.22 199.63 1517.45 199.91C1517.67 200.19 1517.88 200.49 1518.07 200.8C1518.26 201.12 1518.43 201.44 1518.57 201.78C1518.72 202.12 1518.84 202.47 1518.94 202.82C1519.04 203.18 1519.11 203.54 1519.15 203.9C1519.2 204.27 1519.22 204.64 1519.22 205L1519.22 207.75C1519.22 208.11 1519.2 208.48 1519.15 208.84C1519.11 209.21 1519.03 209.57 1518.94 209.92C1518.84 210.27 1518.72 210.62 1518.57 210.95C1518.43 211.29 1518.26 211.62 1518.07 211.93C1517.88 212.24 1517.67 212.54 1517.44 212.82C1517.22 213.11 1516.98 213.38 1516.72 213.63C1516.46 213.89 1516.18 214.13 1515.89 214.35C1515.6 214.57 1515.3 214.77 1514.99 214.95C1514.67 215.14 1514.33 215.31 1513.99 215.45C1513.64 215.59 1513.29 215.71 1512.93 215.81C1512.56 215.9 1512.2 215.97 1511.83 216.02C1511.46 216.07 1511.08 216.09 1510.71 216.08L1486.27 216.08Z" />
	</g>
</svg>