<svg version="1.2" xmlns="http://www.w3.org/2000/svg" viewBox="0 0 1578 1477" width="1578" height="1477">
	<title>logo-908-devices-white-svg</title>
	<style>
		.s0 { fill: #ffffff } 
		.s1 { fill: #ff661b } 
	</style>
	<g id="Layer">
		<path id="Layer" class="s0" d="m1498.7 145.9c26.5 0 48.6 8.8 61.9 26.5 26.5 26.6 22.1 70.8-8.9 128.2-26.5 44.2-66.2 106.1-123.6 172.5-75.1 92.8-260.6 252-384.3 353.7l-13.3-13.3c88.4-92.9 212-229.9 269.5-296.2 123.6-145.9 119.2-190.1 119.2-194.6 0 0 0 0-8.8 0-83.9 0-349 145.9-680.2 420.1-163.5 137-309.2 274.1-410.8 393.4-132.5 154.8-128.1 203.4-128.1 207.8 0 0 0 0 8.8 0 53 0 366.6-145.9 366.6-145.9 0 0-371 278.6-485.8 278.6-26.5 0-48.6-8.9-61.9-26.6q-33.1-39.8 13.3-132.6c26.5-48.6 66.2-110.5 128.1-181.3 119.2-145.9 300.3-313.9 499.1-481.9 172.3-145.9 348.9-274.1 499.1-366.9 106-66.3 251.8-145.9 340.1-141.5zm-706.6 198.9c-95.3 0-172.4-77-172.4-172.4 0-95.3 77.1-172.4 172.4-172.4 95.3 0 172.3 77.1 172.3 172.4 0 95.4-77 172.4-172.3 172.4z"/>
		<path id="Layer" class="s1" d="m76.4 141.5c84 0 229.7 79.6 340.2 137 150.1 92.9 326.8 221.1 499.1 367 198.7 168 375.4 340.4 499.1 481.9 57.4 70.7 101.6 132.6 128.1 181.3q46.4 92.8 13.3 132.6c-13.3 17.7-35.4 26.5-61.9 26.5-114.8 0-485.9-278.5-485.9-278.5 0 0 313.7 145.9 366.7 145.9 4.4 0 8.8 0 8.8 0 0-4.4 4.4-53.1-128.1-207.8-101.6-119.4-247.4-256.4-410.8-393.5-331.3-274.1-596.3-420-680.2-420-4.4 0-8.9 0-8.9 0 0 4.4-4.4 48.6 119.3 199 48.6 57.4 154.6 172.4 238.5 260.8l-17.6 17.7c-119.3-101.7-282.7-243.2-349-322.8-57.4-70.7-97.2-128.2-123.7-172.4-26.5-57.5-30.9-101.7-8.8-128.2 13.3-17.7 35.3-26.5 61.8-26.5z"/>
	</g>
</svg>