<svg version="1.2" baseProfile="tiny-ps" xmlns="http://www.w3.org/2000/svg" viewBox="0 0 1624 262" width="1624" height="262">
	<title>LVMH_logo-svg</title>
	<style>
		tspan { white-space:pre }
		.shp0 { fill: #8d7d7d } 
		.shp1 { fill: #224a3d } 
		.shp2 { fill: none;stroke: #8d7c71;stroke-width: 12.918 } 
	</style>
	<g id="layer1">
		<g id="g16349">
			<g id="Layer">
				<g id="g16351">
					<path id="path16357" class="shp0" d="M620.49 78.22C620.49 71.27 620.49 6.56 620.49 6.56C620.49 1.6 615.93 0.01 618.71 0.01C621.29 0.01 634.17 0.01 634.17 0.01C637.54 0.01 632.79 1.01 632.79 6.37C632.79 10.14 632.79 78.02 632.79 78.02C632.79 85.76 632.79 86.55 646.07 87.35C651.62 87.74 667.08 88.54 680.36 72.26C684.33 67.3 683.14 70.87 683.14 70.87C683.14 70.87 680.96 85.56 680.16 88.34C679.57 90.52 678.98 90.13 676.99 90.13C675.01 90.13 618.71 90.13 618.71 90.13C615.54 90.13 617.32 89.33 619.5 85.96C620.69 84.17 620.49 78.22 620.49 78.22Z" />
					<path id="path16359" class="shp0" d="M699.99 11.72C700.98 13.91 731.11 89.33 731.11 89.33C731.51 90.13 731.91 90.13 731.91 90.13C731.91 90.13 738.05 90.13 738.84 90.13C739.64 90.13 740.03 89.53 740.23 89.33C740.23 89.33 765.41 22.64 767 18.67C768.58 14.7 773.93 5.37 777.11 2.2C779.68 -0.18 775.72 0.21 775.72 0.21C775.72 0.21 760.65 0.21 758.47 0.21C757.28 0.21 755.5 -0.58 758.47 3.79C763.82 11.72 760.25 20.46 760.25 20.46L739.64 77.82C739.64 77.82 714.86 12.92 713.87 10.73C713.07 8.55 713.07 4.78 714.46 3.19C717.24 -0.18 716.25 0.41 714.06 0.41C712.48 0.41 696.42 0.41 693.84 0.41C689.28 0.01 696.22 1.6 699.99 11.72Z" />
					<path id="path16361" class="shp0" d="M816.56 13.31C816.75 22.84 810.61 70.67 808.43 77.22C806.64 83.18 804.07 87.55 803.27 88.54C802.28 89.73 802.08 90.13 803.67 90.13C804.26 90.13 815.56 90.13 816.56 90.13C819.13 90.13 816.36 87.55 816.36 87.55C816.36 87.55 814.18 84.17 814.97 77.22C815.17 74.64 822.3 13.11 822.3 13.11C822.3 13.11 850.06 87.15 851.05 89.33C852.04 91.91 853.23 92.11 854.42 89.33C854.82 88.34 884.16 11.33 884.16 11.33C884.16 11.33 890.7 71.67 891.29 76.63C891.69 81.59 892.09 85.16 891.69 86.35C890.9 89.13 888.52 89.73 890.9 89.73C894.07 89.73 906.95 89.73 907.95 89.73C910.32 89.73 909.93 89.33 908.94 87.74C908.14 86.55 905.96 84.37 903.58 74.84C901.6 66.9 897.64 11.92 897.24 8.35C896.65 0.01 902.2 -0.38 899.42 -0.38C898.63 -0.38 883.36 -0.38 883.36 -0.38C883.36 -0.38 881.38 -0.18 880.59 2.59C880.19 3.98 856.6 70.67 856.6 70.67L830.83 -0.38C830.83 -0.38 818.34 -0.38 814.57 -0.38C808.82 0.01 816.95 1.01 816.56 13.31Z" />
					<path id="path16363" class="shp0" d="M1024.31 1.2C1025.3 0.21 1025.3 0.01 1022.93 0.01C1021.93 0.01 1009.25 0.01 1008.26 0.01C1004.89 0.01 1006.67 1.2 1006.67 1.2C1006.67 1.2 1008.85 3.79 1009.05 7.75L1009.05 41.7L967.02 41.7C967.02 41.7 967.02 12.12 967.02 10.34C967.02 4.58 968.81 2.79 969.4 1.8C970.79 -0.18 970.19 0.01 968.01 0.01C967.42 0.01 957.9 0.01 954.14 0.01C951.56 0.01 950.96 0.21 952.75 1.6C952.75 1.6 954.53 2.79 954.33 10.73C954.33 10.73 954.33 76.63 954.33 79.8C954.14 85.16 953.94 87.55 952.75 89.13C951.56 90.52 953.34 90.32 953.34 90.32C953.34 90.32 967.02 90.32 968.21 90.32C969.4 90.32 968.81 89.53 968.81 89.53C968.81 89.53 967.22 89.13 967.02 80L967.02 45.67L1009.05 45.67C1009.05 45.67 1009.25 78.22 1009.25 80C1009.25 85.56 1009.25 87.74 1007.86 88.94C1007.07 89.73 1005.08 90.32 1008.85 90.32C1010.83 90.32 1022.13 90.32 1023.52 90.32C1025.5 90.32 1026.1 90.32 1024.51 89.13C1023.72 88.34 1022.33 87.15 1022.33 80C1022.33 77.82 1022.33 10.34 1022.33 8.75C1022.53 2.79 1024.31 1.2 1024.31 1.2Z" />
				</g>
			</g>
		</g>
		<path id="path16365" class="shp1" d="M312.22 258.13C312.69 258.13 313.17 257.65 313.17 257.18" />
		<path id="Layer" class="shp1" d="M273.68 177.3L214.05 177.3C213.57 177.3 213.25 177.78 213.25 178.26L213.25 183.02C213.25 183.66 213.73 183.97 214.2 183.97L238.47 183.97C238.94 183.97 239.42 184.61 239.42 185.09L239.42 257.02L239.42 257.18C239.42 257.65 239.9 258.13 240.21 258.13L245.92 258.13C246.4 258.13 246.87 257.65 246.87 257.18L246.87 185.24L246.87 185.24C246.87 184.77 247.51 184.13 247.67 184.13L273.68 184.13C274.15 184.13 274.63 183.66 274.63 183.18L274.63 178.42C274.63 177.78 274.31 177.3 273.68 177.3Z" />
		<path id="Layer" class="shp1" d="M209.45 251.46L176.78 251.46C176.3 251.46 175.82 250.98 175.82 250.51L175.82 220.65L209.45 220.65C209.92 220.65 210.4 220.18 210.4 219.7L210.4 215.1C210.4 214.62 209.92 214.14 209.45 214.14L175.82 214.14L175.82 185.24C175.82 184.77 176.3 184.29 176.78 184.29L209.29 184.29C209.76 184.29 210.24 183.82 210.24 183.34L210.24 178.58C210.24 178.1 209.76 177.62 209.29 177.62L169 177.62C168.53 177.62 168.05 178.1 168.05 178.58L168.05 257.49C168.05 257.97 168.53 258.45 169 258.45L209.13 258.45C209.6 258.45 210.08 257.97 210.08 257.49L210.08 252.57C210.4 251.78 209.92 251.46 209.45 251.46Z" />
		<path id="Layer" class="shp1" d="M420.69 251.46L388.02 251.46C387.55 251.46 387.07 250.98 387.07 250.51L387.07 220.65L420.69 220.65C421.17 220.65 421.64 220.18 421.64 219.7L421.64 215.1C421.64 214.62 421.17 214.14 420.69 214.14L387.07 214.14L387.07 185.24C387.07 184.77 387.55 184.29 388.18 184.29L420.69 184.29C421.17 184.29 421.64 183.82 421.64 183.34L421.64 178.58C421.64 178.1 421.17 177.62 420.69 177.62L380.41 177.62C379.93 177.62 379.46 178.1 379.46 178.58L379.46 257.49C379.46 257.97 379.93 258.45 380.41 258.45L420.53 258.45C421.01 258.45 421.49 257.97 421.49 257.49L421.49 252.57C421.64 251.78 421.17 251.46 420.69 251.46Z" />
		<path id="Layer" class="shp1" d="M636.86 251.46L604.19 251.46C603.71 251.46 603.23 250.98 603.23 250.51L603.23 220.65L636.86 220.65C637.33 220.65 637.81 220.18 637.81 219.7L637.81 215.1C637.81 214.62 637.33 214.14 636.86 214.14L603.23 214.14L603.23 185.24C603.23 184.77 603.71 184.29 604.19 184.29L636.7 184.29C637.17 184.29 637.65 183.82 637.65 183.34L637.65 178.58C637.65 178.1 637.17 177.62 636.7 177.62L596.42 177.62C595.94 177.62 595.46 178.1 595.46 178.58L595.46 257.49C595.46 257.97 595.94 258.45 596.42 258.45L636.54 258.45C637.02 258.45 637.49 257.97 637.49 257.49L637.49 252.57C637.81 251.78 637.33 251.46 636.86 251.46Z" />
		<path id="path16391" class="shp1" d="M181.53 173.65C184.23 173.65 186.45 171.43 186.45 168.73C186.45 166.03 184.23 163.81 181.53 163.81C178.84 163.81 176.62 166.03 176.62 168.73C176.62 171.43 178.84 173.65 181.53 173.65Z" />
		<path id="path16393" class="shp1" d="M197.39 173.65C200.09 173.65 202.31 171.43 202.31 168.73C202.31 166.03 200.09 163.81 197.39 163.81C194.7 163.81 192.48 166.03 192.48 168.73C192.48 171.43 194.7 173.65 197.39 173.65Z" />
		<path id="Layer" class="shp1" d="M367.88 178.26C367.88 177.78 367.41 177.3 366.93 177.3L361.22 177.3C360.74 177.3 360.27 177.78 360.27 178.42L360.27 213.98L313.17 213.98L313.17 178.26C313.17 177.78 312.69 177.3 312.22 177.3L306.51 177.3C306.03 177.3 305.55 177.78 305.55 178.42L305.55 257.33C305.55 257.81 306.03 258.29 306.51 258.29L312.22 258.29C312.69 258.29 313.17 257.81 313.17 257.33L313.17 220.81L360.27 220.81L360.27 257.49C360.27 257.97 360.74 258.45 361.22 258.45L366.93 258.45C367.41 258.45 367.88 257.97 367.88 257.49L367.88 178.26Z" />
		<path id="path16401" class="shp1" d="M440.04 190.01L440.04 257.18C440.04 257.65 439.57 258.13 439.09 258.13L433.38 258.13C432.9 258.13 432.43 257.65 432.43 257.18L432.43 178.42C432.43 177.94 432.9 177.46 433.38 177.3L440.04 177.3L493.8 246.7L493.8 178.42C493.8 177.94 494.12 177.46 494.76 177.46L500.62 177.46C501.1 177.46 501.26 177.94 501.26 178.58L501.26 257.18C501.26 257.65 500.78 258.29 500.15 258.29L494.6 258.29C494.28 258.29 493.01 258.13 493.01 257.65L440.04 190.01Z" />
		<path id="path16403" class="shp1" d="M519.81 190.01L519.81 257.18C519.81 257.65 519.34 258.13 518.86 258.13L513.15 258.13C512.68 258.13 512.2 257.65 512.2 257.18L512.2 178.42C512.2 177.94 512.68 177.46 513.15 177.3L519.81 177.3L573.58 246.7L573.58 178.42C573.58 177.94 573.89 177.46 574.53 177.46L580.4 177.46C580.87 177.46 581.03 177.94 581.03 178.58L581.03 257.18C581.03 257.65 580.56 258.29 579.92 258.29L574.37 258.29C574.05 258.29 572.78 258.13 572.78 257.65L519.81 190.01Z" />
		<g id="g16405">
			<g id="Layer">
				<g id="g16407">
					<path id="path16413" class="shp1" d="M663.12 260.62C656.57 260.62 649.24 258.44 642.5 252.88L647.26 247.13C658.16 256.26 668.87 254.07 674.42 248.52C677.19 245.74 678.78 242.36 678.58 238.59C678.38 234.82 676.2 230.85 670.85 226.68L652.21 213.58L652.01 213.58C646.27 209.02 643.49 203.26 643.49 197.51C643.49 191.75 646.27 186.79 650.23 183.02C658.36 175.47 673.03 173.69 684.92 184.8L679.57 190.36C670.05 181.63 660.74 183.61 655.38 188.57C652.61 191.15 651.02 194.33 651.02 197.51C651.02 200.68 652.61 204.06 656.77 207.43L675.41 220.53C681.95 225.69 685.52 231.84 686.11 238C686.51 244.15 684.13 249.91 679.77 254.07C675.61 258.24 669.66 260.62 663.12 260.62ZM709.31 260.62C702.76 260.62 695.43 258.44 688.69 252.88L693.45 247.13C704.35 256.26 715.06 254.07 720.61 248.52C723.38 245.74 724.97 242.36 724.77 238.59C724.57 234.82 722.39 230.85 717.04 226.68L698.4 213.58L698.21 213.58C692.46 209.02 689.68 203.26 689.68 197.51C689.68 191.75 692.46 186.79 696.42 183.02C704.55 175.47 719.22 173.69 731.11 184.8L725.96 190.36C716.44 181.63 706.93 183.61 701.58 188.57C698.8 191.15 697.41 194.33 697.41 197.51C697.41 200.68 698.8 204.06 702.96 207.43L721.6 220.53L721.8 220.53C728.34 225.69 731.71 231.84 732.3 238C732.7 244.15 730.32 249.91 725.96 254.07C721.8 258.24 715.85 260.62 709.31 260.62Z" />
				</g>
			</g>
		</g>
		<path id="Layer" class="shp1" d="M797.51 179.21L787.84 179.21L763.73 210.02L739.78 179.21L730.11 179.21L759.93 217.48L759.93 257.18C759.93 257.65 760.4 258.13 760.88 258.13L766.59 258.13C767.06 258.13 767.54 257.65 767.54 257.18L767.54 217.48L767.7 217.48L797.51 179.21Z" />
		<path id="path16417" class="shp1" d="M819.72 245.58C819.24 245.58 818.76 246.06 818.76 246.54C818.76 247.01 819.24 247.49 819.72 247.49L819.72 245.58Z" />
		<path id="path16419" class="shp1" d="M842.55 247.49C843.03 247.49 843.5 247.01 843.5 246.54C843.5 246.06 843.03 245.58 842.55 245.58L842.55 247.49Z" />
		<path id="path16421" class="shp1" d="M830.18 260.99C830.18 261.46 830.66 261.94 831.13 261.94C831.61 261.94 832.09 261.46 832.09 260.99L830.18 260.99Z" />
		<path id="path16423" class="shp1" d="M832.09 233.2C832.09 232.72 831.61 232.25 831.13 232.25C830.66 232.25 830.18 232.72 830.18 233.2L832.09 233.2Z" />
		<path id="path16425" class="shp1" d="M818.92 246.06L830.34 232.56L831.61 232.56L843.19 246.06L843.19 247.01L831.61 261.62L830.34 261.62L818.92 247.01L818.92 246.06Z" />
		<path id="path16427" class="shp1" d="M891.72 178.26C891.72 177.78 891.24 177.3 890.77 177.3L885.06 177.3C884.58 177.3 884.1 177.78 884.1 178.26L884.1 257.18C884.1 257.65 884.58 258.13 885.06 258.13L925.18 258.13C925.66 258.13 926.13 257.65 926.13 257.18L926.13 252.25C926.13 251.78 925.66 251.3 925.18 251.3L892.51 251.3C892.03 251.3 891.56 250.82 891.56 250.35L891.56 178.42" />
		<path id="Layer" class="shp1" d="M1099 257.33L1099 257.33L1099 257.33L1099 178.42C1099 177.94 1098.52 177.46 1098.05 177.46L1092.34 177.46C1091.86 177.46 1091.39 177.94 1091.39 178.42L1091.39 257.33L1091.39 257.33L1091.39 257.33L1091.39 257.33L1091.39 257.33C1091.39 257.81 1091.86 258.29 1092.34 258.29L1098.05 258.29C1098.68 258.13 1099 257.81 1099 257.33L1099 257.33L1099 257.33Z" />
		<path id="Layer" class="shp1" d="M1339.27 257.33L1339.27 178.42C1339.27 177.94 1338.79 177.46 1338.32 177.46L1332.61 177.46C1332.13 177.46 1331.66 177.94 1331.66 178.42L1331.66 257.33C1331.66 257.81 1332.13 258.29 1332.61 258.29L1338.32 258.29C1338.79 258.13 1339.27 257.81 1339.27 257.33L1339.27 257.33Z" />
		<path id="Layer" class="shp1" d="M1076.16 177.3L1068.71 177.3L1068.71 228.12L1068.71 228.12C1068.71 241.93 1057.45 253.21 1043.65 253.21C1029.85 253.21 1018.59 241.93 1018.59 228.12L1018.59 228.12L1018.59 177.3L1010.98 177.3L1010.98 228.12L1010.98 228.12C1010.98 246.22 1025.57 260.83 1043.65 260.83C1061.57 260.83 1076.16 246.38 1076.32 228.28L1076.32 228.28L1076.16 177.3Z" />
		<g id="g16449">
			<g id="Layer">
				<g id="g16451">
					<path id="path16457" class="shp1" d="M1132.36 260.23C1125.81 260.23 1118.48 258.04 1111.74 252.49L1116.5 246.33C1127.4 255.46 1138.1 253.48 1143.66 248.12C1146.43 245.34 1148.02 241.97 1147.82 238.2C1147.62 234.62 1145.44 230.26 1140.29 226.29L1140.09 226.29L1140.09 226.09L1121.45 213.19L1121.45 212.99L1121.25 212.99C1115.5 208.42 1112.73 202.67 1112.73 196.91C1112.73 191.15 1115.5 186.19 1119.47 182.42C1127.6 174.88 1142.27 173.29 1154.16 184.41L1149.01 189.96C1139.49 181.23 1129.98 183.02 1124.62 187.98C1121.85 190.56 1120.46 193.74 1120.46 196.91C1120.46 200.09 1121.85 203.66 1125.81 206.84L1126.01 207.03L1144.65 219.94L1144.84 220.13C1151.39 225.29 1154.76 231.25 1155.35 237.4C1155.75 243.55 1153.37 249.31 1149.01 253.48C1144.84 257.45 1138.9 260.03 1132.36 260.23Z" />
				</g>
			</g>
		</g>
		<path id="path16459" class="shp1" d="M1214.3 247.65L1240.94 177.3L1248.87 177.3L1217.63 258.13L1210.65 258.13L1179.41 177.3L1187.34 177.3L1214.3 247.65Z" />
		<g id="Layer">
			<path id="Layer" class="shp1" d="M1406.35 177.3L1346.72 177.3C1346.25 177.3 1345.93 177.78 1345.93 178.26L1345.93 183.02C1345.93 183.66 1346.4 183.97 1346.88 183.97L1371.15 183.97C1371.62 183.97 1372.1 184.61 1372.1 185.09L1372.1 257.02C1372.1 257.49 1372.57 257.97 1372.89 257.97L1378.6 257.97C1379.08 257.97 1379.55 257.49 1379.55 257.02L1379.55 185.09L1379.55 185.09C1379.55 184.61 1380.19 183.97 1380.34 183.97L1406.35 183.97C1406.83 183.97 1407.3 183.5 1407.3 183.02L1407.3 178.26C1407.3 177.78 1406.83 177.3 1406.35 177.3Z" />
			<path id="Layer" class="shp1" d="M1469 177.3L1409.37 177.3C1408.89 177.3 1408.42 177.78 1408.42 178.26L1408.42 183.02C1408.42 183.66 1408.73 183.97 1409.37 183.97L1433.63 183.97C1434.11 183.97 1434.58 184.61 1434.58 185.09L1434.58 257.02C1434.58 257.49 1435.06 257.97 1435.53 257.97L1441.24 257.97C1441.72 257.97 1442.2 257.49 1442.2 257.02L1442.2 185.09L1442.2 185.09C1442.2 184.61 1442.83 183.97 1442.99 183.97L1469 183.97C1469.47 183.97 1469.95 183.5 1469.95 183.02L1469.95 178.26C1469.95 177.78 1469.47 177.3 1469 177.3Z" />
		</g>
		<path id="path16469" class="shp1" d="M1562.25 190.01L1562.25 257.18C1562.25 257.65 1561.78 258.13 1561.3 258.13L1555.59 258.13C1555.11 258.13 1554.64 257.65 1554.64 257.18L1554.64 178.42C1554.64 177.94 1555.11 177.46 1555.59 177.3L1562.25 177.3L1616.01 246.7L1616.01 178.26C1616.01 177.78 1616.33 177.3 1616.97 177.3L1622.83 177.3C1623.31 177.3 1623.47 177.78 1623.47 178.26L1623.47 256.86C1623.47 257.33 1622.99 257.97 1622.36 257.97L1616.81 257.97C1616.49 257.97 1615.22 257.81 1615.22 257.33L1562.25 190.01Z" />
		<g id="g16471">
			<g id="Layer">
				<g id="g16473">
					<path id="path16479" class="shp2" d="M0.59 139.15L1623.4 139.15" />
				</g>
			</g>
		</g>
		<path id="Layer" fill-rule="evenodd" class="shp1" d="M160.12 217.48C160.12 240.34 141.57 258.92 118.73 258.92C95.89 258.92 77.5 240.34 77.34 217.48C77.18 194.3 94.94 177.15 118.73 175.88C118.73 175.88 118.89 175.88 119.05 175.88C142.84 177.15 160.28 195.25 160.12 217.48ZM152.35 217.48C152.35 199.69 138.55 185.4 119.37 183.97L119.21 183.97C99.7 185.09 85.58 199.54 85.58 217.48C85.58 235.9 100.49 250.82 118.89 250.82C137.29 250.82 152.19 235.9 152.35 217.48Z" />
		<path id="Layer" fill-rule="evenodd" class="shp1" d="M1004.64 218.27C1004.64 241.14 986.08 259.72 963.24 259.72C940.4 259.72 922.01 241.14 921.85 218.27C921.69 195.09 939.45 177.94 963.24 176.67C963.24 176.67 963.4 176.67 963.56 176.67C987.19 177.94 1004.79 196.04 1004.64 218.27ZM996.86 218.27C996.86 200.49 983.07 186.2 963.88 184.77L963.72 184.77C944.21 185.88 930.1 200.33 930.1 218.27C930.1 236.69 945 251.62 963.4 251.62C981.8 251.62 996.71 236.69 996.86 218.27Z" />
		<path id="Layer" fill-rule="evenodd" class="shp1" d="M1504.84 176.51C1528.47 177.78 1545.92 195.88 1546.07 218.11C1546.07 240.98 1527.52 259.56 1504.68 259.56C1481.84 259.56 1463.45 240.98 1463.29 218.11C1462.97 194.93 1480.73 177.78 1504.52 176.51C1504.52 176.51 1504.68 176.51 1504.84 176.51ZM1537.99 218.11C1537.99 200.33 1524.19 186.04 1505 184.61L1504.84 184.61C1485.33 185.72 1471.22 200.17 1471.22 218.11C1471.22 236.53 1486.13 251.46 1504.52 251.46C1523.08 251.46 1537.99 236.53 1537.99 218.11Z" />
		<path id="Layer" class="shp1" d="M70.84 177.3L64.17 177.3L36.26 211.6L36.26 211.6L8.35 177.3L1.69 177.3C1.69 177.3 0.74 177.78 0.74 178.26L0.74 257.33C0.74 257.81 1.21 258.13 1.69 258.13L7.4 258.13C8.35 258.13 8.35 257.65 8.35 257.18L8.35 188.9L34.99 222.08C35.31 222.56 37.69 222.56 37.85 222.08L64.33 188.9L64.33 257.18C64.33 257.65 64.33 258.13 65.28 258.13L70.99 258.13C71.47 258.13 71.95 257.81 71.95 257.33L71.95 178.26C71.79 177.78 70.84 177.3 70.84 177.3Z" />
		<path id="Layer" class="shp1" d="M1316.27 177.3L1308.82 177.3L1308.82 228.12C1308.82 241.93 1297.56 253.21 1283.76 253.21C1269.96 253.21 1258.7 241.93 1258.7 228.12L1258.7 177.3L1251.09 177.3L1251.09 228.12L1251.09 228.12C1251.09 246.22 1265.68 260.83 1283.76 260.83C1301.84 260.83 1316.43 246.22 1316.43 228.12L1316.27 177.3Z" />
	</g>
</svg>