<svg version="1.2" xmlns="http://www.w3.org/2000/svg" viewBox="0 0 1553 1537" width="1553" height="1537">
	<title>logo (45)-svg</title>
	<style>
		.s0 { fill: #00477d;stroke: #666666;stroke-width: 29.2 } 
		.s1 { fill: #fcb817 } 
	</style>
	<g id="Layer_2">
		<g id="Logo">
			<path id="Layer" class="s0" d="m15.6 1522.7v-1508.1h768.1c99.3-0.8 197.8 18.1 289.8 55.7c91.9 37.6 175.4 93.2 245.6 163.4c70.2 70.3 125.6 153.8 163.1 245.7c37.5 91.9 56.3 190.3 55.2 289.5c0 422-353.5 754.1-776 754.1z" />
			<path id="Layer" fill-rule="evenodd" class="s1" d="m-5603.4 748.5c0-121.3 80.2-277.7 292.6-277.7c175.6 0 286.4 102.9 286.4 265.1c1.5 38.7-5 77.3-19.2 113.3c-14.2 36.1-35.7 68.8-63.2 96.1c-27.5 27.3-60.4 48.6-96.6 62.5c-36.1 14-74.8 20.3-113.6 18.6c-204.2-0.3-286.4-152.6-286.4-277.9zm480.1 13.4c0-158.7-91.5-257.2-207.7-257.2c-81.6 0-175.6 45.3-175.6 221.9c0 146.1 81.7 263 217.7 263c50.9 1.2 165.6-22.8 165.6-227.7zm477.3 187.1c-14.5-13.1-27.5-27.8-38.8-43.7c-11.4-15.9-20.9-33.1-28.4-51.1c-7.6-18-13.2-36.7-16.6-55.9c-3.5-19.3-4.8-38.8-4-58.3c-0.1-18.1 1.7-36.2 5.3-53.9c3.7-17.7 9.1-35.1 16.2-51.7c7.1-16.6 15.9-32.5 26.3-47.4c10.3-14.8 22.1-28.6 35.3-41.1c51.2-46.7 117-75.1 224.1-75.1q12.9 0 25.8 0.4q13 0.4 25.8 1.2q12.9 0.9 25.8 2.3q12.8 1.3 25.6 3.1c26.9 3.5 49.8 10 70.8 12c7.9 0 10.6 4.4 10.6 8.5c0 4.1-2.1 14-3.6 38.9c-1.4 24.8 0 62.2-2 76.5c-2.1 14.4-2.1 16.4-8.5 16.4c-6.4 0-7-5.5-7-15.5c-0.3-6-1-12-2.4-17.9c-1.3-5.9-3.1-11.6-5.5-17.2c-2.3-5.5-5.1-10.8-8.4-15.9c-3.3-5-7.1-9.8-11.2-14.2c-23.4-24.8-78.7-43.8-144-43.8c-12-0.9-24-0.5-35.9 0.9c-11.9 1.5-23.7 4.1-35.1 7.9c-11.4 3.7-22.5 8.6-32.9 14.5c-10.5 5.9-20.4 12.7-29.5 20.5c-51.8 47.4-65.2 114.9-65.2 183.6c0 168.6 128.4 252.2 223.5 252.2c63.2 0 101.5-7 129.9-39.7q4.3-5.1 8-10.6q3.6-5.6 6.7-11.5q3-5.9 5.3-12.1q2.4-6.2 4-12.6c2-11.4 3.5-14 9.4-14c5.8 0 6.4 4.9 6.4 10.5q-1.1 11.9-2.6 23.7q-1.5 11.8-3.5 23.6q-1.9 11.8-4.3 23.5q-2.3 11.7-5.1 23.3c-0.4 2.4-1.1 4.7-2.1 6.9c-1 2.3-2.4 4.3-4 6.1c-1.7 1.8-3.5 3.4-5.6 4.6c-2.1 1.3-4.4 2.2-6.7 2.8q-15.5 4.6-31.3 7.9q-15.9 3.3-31.9 5.4q-16 2-32.1 2.8q-16.2 0.8-32.3 0.3c-98 0-178.8-21-244.3-77.1zm529.3-262.8v-150.2c0-22.5-8.5-35.9-24-39.7q-3.1-0.8-6.3-1.4q-3.2-0.6-6.4-0.9q-3.1-0.4-6.4-0.5q-3.2-0.2-6.4-0.2c-7 0-11.4 0-11.4-7c0-7 5.6-5.5 17-5.5c26.9 0 71.7 2 92.2 2c20.4 0 58.5-2 87.7-2c9.1 0 15 0 15 5.5c0 5.6-4.1 7-11.5 7q-3.1 0.1-6.3 0.4q-3.2 0.3-6.3 0.7q-3.2 0.4-6.3 1q-3.1 0.7-6.2 1.4c-19 3.5-24.9 15.5-26.4 40.4c-1.4 24.8 0 42.6 0 150.2v124.8c0 68.7 0 124.5 3 155.2c2 19 7 31.8 29.2 34.7q4.5 0.7 9.1 1.2q4.5 0.5 9 0.9q4.6 0.3 9.1 0.6q4.6 0.2 9.1 0.3c7.9 0 11.4 2 11.4 5.8c0 3.8-5.5 7-13.4 7c-46.8 0-91.6-2-110.6-2c-19.1 0-60.9 2-89.3 2c-9.3 0-14.3-2-14.3-7c0-5 2.9-5.8 11.4-5.8q3.2 0 6.4-0.2q3.2-0.2 6.4-0.6q3.2-0.3 6.4-0.9q3.1-0.5 6.3-1.3c14-2.9 18.4-14.9 20.4-35.3c3.5-29.2 3.5-85.6 3.5-154.3zm400.9-166l-105.6 2.9c-41.3 0-58.5 5-68.8 20.5q-2 2.8-3.8 5.8q-1.7 2.9-3.2 6.1q-1.5 3.1-2.8 6.3q-1.2 3.3-2.2 6.6c0 5.5-3.5 8.5-7.9 8.5c-4.4 0-6.4-3.5-6.4-11.4c0-7.9 13.4-75.7 14.9-81.6c1.5-5.8 4.4-13.4 8.5-13.4q3.5 1.4 7.1 2.6q3.7 1.2 7.3 2.3q3.7 1.1 7.4 2q3.7 0.8 7.4 1.6c20.5 2 47.4 3.5 70.9 3.5h280.8q8.6 0 17.2-0.4q8.6-0.4 17.1-1.2q8.6-0.9 17.1-2.3q8.4-1.3 16.8-3.1c5 0 5.6 4.3 5.6 14.9c0 10.5-2.1 63.7-2.1 82.1c0 7-2 11.4-6.4 11.4c-4.4 0-7-3.5-7.9-14v-7.9c0-18.4-20.5-38.3-83.7-39.8l-89.5-2v290.5c0 65.1 0 121.3 3.5 151.7c2 19.8 6.4 35.3 27.8 38.2q4.5 0.7 9 1.2q4.5 0.5 9.1 0.9q4.5 0.3 9.1 0.6q4.5 0.2 9.1 0.3c7.9 0 11.4 2 11.4 5.8c0 3.8-5.6 7-13.5 7c-46.8 0-91.6-2-111.5-2c-19.9 0-60.8 2-89.2 2c-9.4 0-14-2-14-7c0-5 2.9-5.8 11.4-5.8q3.2-0.1 6.4-0.2q3.2-0.2 6.4-0.6q3.2-0.4 6.3-0.9q3.2-0.5 6.3-1.3c14.1-2.9 18.5-18.4 20.5-38.8c3.5-29.3 3.5-85.7 3.5-150.8zm545.4 312.7q0.4-9.6-0.5-19.2q-0.8-9.6-2.9-19q-2.1-9.4-5.3-18.4q-3.3-9.1-7.7-17.7c-4.9-11.3-100-167.1-124.9-204.5q-4.7-7.7-10.2-14.8q-5.4-7.1-11.6-13.6q-6.1-6.5-12.9-12.4q-6.8-5.8-14.2-11q-3.3-1.9-6.9-3.4q-3.5-1.5-7.2-2.6q-3.7-1.2-7.5-1.9q-3.8-0.8-7.6-1.1c-5.6 0-10.6 0-10.6-6.4c0-6.5 5-6.5 13.5-6.5c8.5 0 65.8 2.1 89.2 2.1c15 0 43.9-2.1 75.8-2.1c7 0 10.6 2.1 10.6 6.5c0 4.3-5 4.9-15.6 7.8c-1.4 0.4-2.8 1-4 1.7c-1.2 0.8-2.3 1.8-3.2 3c-0.9 1.2-1.6 2.5-2.1 3.9c-0.4 1.4-0.6 2.8-0.6 4.3q0.5 3.2 1.2 6.3q0.8 3.2 1.8 6.2q1.1 3.1 2.5 6q1.3 3 3 5.8c9.9 21.3 109.1 192 120.5 211.8c7.1-16.9 96.3-173 106.5-194.9q2.2-4.3 4-8.8q1.7-4.4 2.9-9.1q1.3-4.6 2.1-9.4q0.7-4.7 1-9.5c0.1-2.2-0.2-4.3-0.8-6.3c-0.7-2.1-1.8-3.9-3.1-5.6c-1.4-1.6-3.1-3-5-4c-1.9-1-3.9-1.7-6-1.9c-6.5 0-12.9-3-12.9-7.1c0-4 3.5-6.4 12-6.4c23.4 0 45.9 2.1 66.7 2.1c15.5 0 62.3-2.1 76.1-2.1c7.9 0 12.8 0 12.8 5.6c0 5.5-5.5 7-13.4 7q-4.1 0.2-8.1 0.8q-4.1 0.7-8 1.7q-4 1.1-7.8 2.6q-3.8 1.5-7.4 3.4q-5.8 3-11.2 6.8q-5.3 3.8-10.2 8.2q-4.8 4.4-9.1 9.3q-4.2 5-7.9 10.4q-18.5 27.2-36.2 54.9q-17.8 27.7-34.7 55.8q-17 28.2-33.1 56.9q-16.1 28.7-31.4 57.8q-3.2 8.4-5.5 17.2q-2.2 8.8-3.6 17.7q-1.3 9-1.7 18q-0.3 9.1 0.2 18.1v58.4c0 11.4 0 41.2 2.1 71.1c0 20.4 7.9 35.9 29.3 38.8q4.3 0.7 8.8 1.2q4.4 0.5 8.8 0.8q4.4 0.4 8.9 0.6q4.4 0.2 8.9 0.3c7.9 0 11.4 2.1 11.4 5.9c0 3.8-5.6 7-15 7c-44.7 0-89.2-2-108.5-2c-19.3 0-62.3 2-87.8 2c-9.9 0-15.5 0-15.5-7c0-7 3.5-5.9 11.4-5.9q3.2 0 6.3-0.2q3.1-0.2 6.2-0.5q3.1-0.4 6.2-0.9q3.1-0.6 6.2-1.3c14.3-2.9 20.5-18.4 21.9-38.8c2.1-29.3 2.1-58.5 2.1-71.1zm676.2-146.7v-150.2c0-22.5-7.1-35.4-29.3-40.3q-3.4-0.6-6.8-1q-3.5-0.5-6.9-0.7q-3.4-0.3-6.9-0.4q-3.4-0.1-6.9 0c-7.9 0-12 0-12-6.4c0-6.4 5-6.4 15.5-6.4c37.5 0 82.2 2 96.6 2c34.8 0 62.3-2 87.8-2c128.4 0 150.9 68.6 150.9 106.3c0 58.5-33.3 93-72.2 124c58.5 19.8 129 70.1 129 153.1c0 76-58.5 154.6-189.3 154.6c-17 0-81.7-4.4-102.7-4.4c-16.4 0-61.2 2.1-89.3 2.1c-9.3 0-14-2.1-14-7c0-5 2.9-5.9 11.4-5.9q3.2 0 6.4-0.2q3.2-0.2 6.4-0.5q3.2-0.4 6.4-0.9q3.1-0.6 6.3-1.3c14.3-2.9 17.8-18.4 20.4-38.9c3.6-29.2 3.6-85.6 3.6-150.8zm85.1 12c0 5.5 2.1 7 5 7.9q4.1 0.7 8.3 1.1q4.1 0.5 8.3 0.7q4.2 0.3 8.4 0.3q4.1 0.1 8.3-0.1q6.7 0.8 13.5 0.3q6.7-0.5 13.3-2.2q6.5-1.7 12.6-4.6q6.1-2.9 11.5-6.9c5.1-4.7 9.7-10 13.6-15.8c3.9-5.8 7.2-11.9 9.7-18.4c2.5-6.5 4.3-13.2 5.3-20.1c1-6.9 1.3-13.9 0.7-20.8c0-47.4-27.8-109.9-87.8-109.9q-2.9-0.3-5.8-0.4q-2.9-0.2-5.9-0.2q-2.9 0-5.8 0.2q-3 0.1-5.9 0.4c-5 0-6.4 4.4-6.4 12zm93.6 56.7q-6.4-4.3-13.5-7.6q-7-3.2-14.5-5.4q-7.4-2.1-15.1-3.1q-7.7-1-15.4-0.9h-29.3c-2.9 0-4.4 0-4.4 5v168c0 46.8 2.1 58.5 24.9 68.1q6.2 2.4 12.6 4.2q6.3 1.7 12.9 2.8q6.5 1 13.1 1.4q6.6 0.4 13.2 0.1c11.8 0.5 23.6-1.5 34.6-5.9c11-4.5 20.9-11.2 29-19.8c8.1-8.6 14.3-18.9 18.1-30c3.9-11.2 5.2-23.1 4-34.9c0.4-13.7-0.8-27.5-3.8-40.9c-2.9-13.5-7.5-26.5-13.6-38.8c-6.1-12.4-13.7-23.9-22.6-34.4c-8.9-10.5-19-19.9-30.2-27.9zm322.7 76.5c-3.5 0-4.9 0-6.4 5.6l-38.3 101.4q-2.2 5.2-4 10.5q-1.7 5.3-3.1 10.7q-1.3 5.4-2.2 11q-0.8 5.5-1.3 11.1c0 12.8 6.5 21.9 29.3 21.9h10.5c8.5 0 10.6 0 10.6 5.8c0 5.9-4.4 7-12 7c-22.8 0-53.3-2-75.2-2c-7.9 0-46.8 2-83.7 2c-9.4 0-13.5 0-13.5-7c0-7 3-5.8 8.5-5.8q2.8 0.1 5.5 0.2q2.7 0.1 5.5 0.1q2.7 0 5.5-0.1q2.7-0.1 5.5-0.2c32.4-4.4 46.2-29.2 60.2-63.7l177.9-445.1c8.5-20.5 12.9-29.3 19.9-29.3c7.1 0 10.6 6.5 17.9 22.8c17 38.9 130.5 327.9 175.5 435.8c27 63.7 47.4 73.6 62.4 77.1q3.6 0.8 7.2 1.3q3.7 0.5 7.3 0.9q3.7 0.4 7.4 0.6q3.6 0.2 7.3 0.2c5.6 0 9.4 0 9.4 5.8c0 5.9-6.5 7-32.8 7h-134c-12.9 0-21.4 0-21.4-5.5c0-5.6 3-5.9 10-6.5c1.6-0.5 3-1.4 4.2-2.6c1.2-1.1 2.1-2.5 2.7-4.1c0.6-1.5 0.9-3.2 0.8-4.9c-0.1-1.6-0.5-3.2-1.3-4.7l-56.7-150.2q-0.3-1.2-1-2.1q-0.7-1-1.6-1.7q-1-0.7-2.1-1q-1.2-0.3-2.4-0.2zm144.9-35.4c3.5 0 4.4-2 3.5-4.1l-63.8-175.3c0-2.9-1.5-6.4-3.5-6.4c-2.1 0-3.5 3.5-4.4 6.4l-65.2 175.3c0 3 0 5 2.9 5zm391.2 123.9c0 55.3 10.5 73.7 24.9 78.6q4.4 1.4 9 2.4q4.5 1 9.2 1.7q4.6 0.6 9.3 0.8q4.6 0.3 9.3 0.1c7.9 0 12 0 12 5.8c0 5.9-6.4 7.1-16.4 7.1c-46.2 0-74.6-2.1-87.7-2.1c-6.5 0-39.8 2.1-76.7 2.1c-9.1 0-15.5 0-15.5-7.1c0-7 4.4-5.8 11.4-5.8q4 0.1 8-0.1q4.1-0.2 8.1-0.6q4-0.5 7.9-1.2q4-0.7 7.9-1.6c18.4-5.6 21.3-26.3 21.9-87.7l6.5-419.4c0-14.3 2-24.2 9.3-24.2c7.3 0 14.1 9.3 26.4 21.9c12.3 12.6 117 124.8 220 227.4c48.3 48.2 144 150.2 156 161.6h3.5l-7.1-318c0-43.2-7-56.7-24-63.7q-4.5-1.3-9.2-2.2q-4.7-1-9.4-1.5q-4.8-0.6-9.6-0.7q-4.7-0.2-9.5 0c-8.5 0-11.4-2-11.4-6.4c0-4.4 7.9-6.4 18.4-6.4c36.9 0 71.1 2 85.8 2c7.9 0 34.8-2 69.6-2c9.4 0 16.4 0 16.4 6.4c0 6.4-4.1 6.4-12.9 6.4q-2.9 0-5.7 0.2q-2.9 0.2-5.7 0.6q-2.8 0.4-5.6 1q-2.8 0.6-5.5 1.4c-19.9 5.6-25.5 20.5-26.4 60.2l-7.9 447.2c0 15.5-2.9 21.9-9 21.9c-6.2 0-16.4-7.9-24-15.5c-44.8-42.7-135.5-135.3-209.2-208.4c-73.8-73-156-165.1-168.9-178.5h-2zm676.2-202.9h3.5c24-26.3 127.9-131.8 148.3-155.7c20.5-24 35.4-41.2 35.4-53.2c0-12-2.9-12.9-9.9-14c-7-1.2-9.4-3-9.4-7.1c0-4.1 3.5-6.4 11.4-6.4c15 0 53.9 2.1 73.2 2.1c19.3 0 61.1-2.1 83.1-2.1c7 0 12 0 12 6.4c0 6.5-3.5 6.5-10.5 6.5q-5.3 0.2-10.6 0.8q-5.2 0.6-10.4 1.5q-5.2 1-10.2 2.4q-5.1 1.4-10.1 3.2q-10.8 4.6-21.1 10.4q-10.3 5.7-19.9 12.5q-9.6 6.8-18.5 14.5q-8.8 7.7-16.9 16.3c-21.9 21.4-129 127.5-153.3 153.2c25.5 33.3 164.5 182.9 192.2 208.9q10.8 11.9 22.5 22.6q11.8 10.8 24.6 20.4q12.7 9.6 26.3 17.9q13.6 8.4 27.9 15.4q5.2 2.3 10.5 4.2q5.4 1.8 10.9 3.1q5.6 1.3 11.2 2.2q5.6 0.8 11.3 1c4.9 0 9.3 0 9.3 5.9c0 5.8-3.5 7-16.9 7h-61.8q-6.1 0.3-12.2 0.5q-6.1 0.1-12.2 0.1q-6.1 0-12.2-0.1q-6.1-0.2-12.2-0.5c-8.4-1-16.7-2.8-24.8-5.3c-8.1-2.5-15.9-5.8-23.4-9.7c-7.5-4-14.6-8.6-21.2-13.8c-6.7-5.2-12.8-11-18.4-17.4c-31.3-27.7-170.9-191.4-185.8-211.9l-7.9-10.5h-3.5v64.6c0 65.2 0 121.3 2 151.7c0 19.9 7.9 35.3 25.5 38.3q4.3 0.6 8.7 1.1q4.3 0.5 8.6 0.8q4.4 0.4 8.8 0.6q4.3 0.3 8.7 0.4c5.6 0 9.4 2 9.4 5.8c0 3.8-5.6 7.1-13.5 7.1c-39.8 0-84.3-2.1-102.1-2.1c-17.9 0-61.2 2.1-89.5 2.1c-9.1 0-14.1-2.1-14.1-7.1c0-4.9 2.9-5.8 11.4-5.8q3.2 0 6.4-0.2q3.2-0.2 6.4-0.6q3.2-0.3 6.4-0.9q3.1-0.5 6.3-1.2c14.3-3 17.8-18.4 20.5-38.9c3.5-29.2 3.5-85.6 3.5-150.8v-127.1c0-107.9 0-127.8-1.5-150.3c-1.5-22.5-7-35.3-29.3-40.3q-3.4-0.6-6.9-1q-3.4-0.4-6.9-0.7q-3.5-0.2-7-0.3q-3.5-0.1-6.9 0c-7.9 0-12 0-12-6.5c0-6.4 4.9-6.4 15.5-6.4c37.7 0 82.2 2.1 99.2 2.1c16.9 0 61.7-2.1 85.7-2.1c9.9 0 14.9 0 14.9 6.4c0 6.5-4.4 6.5-9.9 6.5q-2.5 0-5 0.1q-2.5 0.2-5 0.4q-2.5 0.3-5 0.6q-2.5 0.4-4.9 0.9c-19.1 3.5-24.9 15.5-26.4 40.3c-1.4 24.9 0 42.7 0 150.3zm1908.6 535.1c218.9-204.6 175.6-458 68.8-630.1c-14.7-24.7-31.5-48-50.4-69.7c-18.8-21.6-39.6-41.5-62-59.5c-22.5-17.9-46.5-33.7-71.8-47.3c-25.3-13.6-51.8-24.8-79.1-33.7c-114.5-36.8-221.2-14.3-329.2 22.6c29.3-22.3 61.2-40.9 95-55.4c33.8-14.5 69.3-24.7 105.6-30.6c36.3-5.8 73.3-7.2 109.9-4c36.7 3.1 72.8 10.8 107.6 22.7c46.1 14 89.9 34.7 130 61.4c40 26.6 76 59 106.7 96c30.7 37.1 55.9 78.4 74.6 122.8c18.7 44.3 30.9 91.1 36 138.9c16.1 212.5-130.8 415.9-241.7 465.9z" />
			<path id="Layer" class="s1" d="m539.1 1347.9c257.7 38.9 438.9-63.1 552.4-292.3c12.4-24.4 22.5-49.8 30.4-76c7.8-26.3 13.3-53.1 16.4-80.3c3-27.2 3.7-54.6 1.9-81.9c-1.8-27.3-6.1-54.4-12.7-80.9c-6.2-26.2-14.6-51.9-25.4-76.6c-10.7-24.7-23.6-48.4-38.6-70.8c-14.9-22.4-31.9-43.4-50.6-62.8c-18.7-19.4-39.1-37.1-61-52.8c22.2 4.7 43.8 11.7 64.4 21.1c20.6 9.3 40.2 20.8 58.4 34.4c18.1 13.5 34.7 29 49.6 46.1c14.8 17.1 27.8 35.7 38.6 55.6c146.3 259.8 14.3 629.5-263.4 738.5c-120.5 48-241.6 31.9-360.4-21.3z" />
			<path id="Layer" class="s1" d="m408.3 711.9c-22.9-168.9 24.3-311.5 165.6-409.1c182.3-127.4 378.9-135.6 573.5-37.4c148.6 74.2 213.9 207.8 223.5 372c-76.7-253.4-266.8-350.7-507.6-338.7c-250.5 12.6-418.2 145.5-455 413.2z" />
			<path id="Layer" class="s1" d="m958.9 148.8c-265.9-13.5-484.5 58.4-578.1 333.1c-72 210.7 11.4 383.2 155.9 532.2c-73.4-2.6-192.5-119.2-230.3-229.1c-17.3-51.6-26.7-105.5-27.9-159.9c-1.3-54.4 5.6-108.6 20.5-160.9c14.9-52.4 37.6-102.2 67.4-147.8c29.7-45.5 66.1-86.4 108-121.2c127.6-107.5 341.7-130 484.5-46.4z" />
			<path id="Layer" class="s1" d="m1083.6 803.4c24 207.5-72 362.1-263.4 442.2c-50.2 19.6-103 31.8-156.7 36.2c-53.8 4.4-107.8 0.9-160.6-10.2c-52.7-11.2-103.6-29.9-150.9-55.7c-47.4-25.8-90.7-58.3-128.7-96.6c-75.4-79.5-117-215.9-92.1-305.7c50.6 272.7 239.6 374.4 483.3 373.8c243.8-0.5 418.2-114.2 469.1-384z" />
			<path id="Layer" class="s1" d="m359.7 258.4c-18.3 21.5-35 44.3-50.1 68.1c-15.1 23.9-28.4 48.8-40 74.6c-11.6 25.7-21.3 52.3-29.1 79.4c-7.9 27.1-13.8 54.7-17.7 82.7c-3.1 27.6-3.9 55.5-2.3 83.3c1.6 27.7 5.5 55.3 11.8 82.4c6.2 27.2 14.7 53.7 25.3 79.4c10.7 25.7 23.5 50.5 38.3 74c14.9 23.9 31.9 46.4 50.9 67.2c19 20.8 39.9 39.8 62.3 56.8c22.5 17 46.5 31.9 71.6 44.5c25.2 12.7 51.5 23 78.5 30.8c111.8 38 216.6 0 324-18.7c-84.3 81-280.1 116.9-422.6 63.2c-200.1-76.3-308.1-256.9-318.9-453c-3.8-41.2-1.6-82.7 6.4-123.3c8-40.5 21.9-79.7 41.1-116.3c19.3-36.6 43.7-70.3 72.6-99.9c28.8-29.7 61.8-55 97.9-75.2z" />
		</g>
	</g>
</svg>