<svg version="1.2" xmlns="http://www.w3.org/2000/svg" viewBox="0 0 1581 891" width="1581" height="891">
	<title>mck_logo_blue-svg</title>
	<style>
		.s0 { fill: #ef8200 } 
		.s1 { fill: #005a8c } 
	</style>
	<path id="Layer" class="s0" d="m1083.2 732.8h474v157.8h-474z"/>
	<path id="Layer" class="s1" d="m627.4 17.3h278.3v873.3h-194.5v-598.6c-30.9 100.3-189.5 598.6-189.5 598.6h-146.9c0 0-150.3-493.3-181.2-596.4v596.7h-193.6v-873.6h278.3c0 0 157.1 483.1 173.8 534 16.4-50.6 174.1-534 174.1-534m752 623.9c-209.3 0-342.3-119.5-342.3-319.9 0-200.3 133-320.4 342.3-320.4 17.4-0.3 34.7 0.4 52 2 17.3 1.5 34.5 4 51.5 7.5 17 3.4 33.8 7.7 50.4 13 16.5 5.2 32.8 11.3 48.6 18.3l-60.3 140.7q-11.7-6.9-24.3-12.3-12.6-5.3-25.8-8.9-13.2-3.6-26.8-5.4-13.6-1.8-27.3-1.8c-102.6 0-187.4 51-187.4 167.7 0 116.6 84.8 167.6 187.4 167.6 9.2 0 18.3-0.6 27.3-1.8 9.1-1.3 18-3.1 26.8-5.5 8.8-2.5 17.5-5.5 25.8-9.2 8.4-3.6 16.5-7.8 24.3-12.5l60.3 141c-15.8 7-32.1 13.1-48.6 18.3-16.6 5.2-33.4 9.5-50.4 12.9-17 3.4-34.2 5.8-51.5 7.3-17.3 1.5-34.7 2-52 1.7"/>
</svg>