<svg version="1.2" xmlns="http://www.w3.org/2000/svg" viewBox="0 0 1533 303" width="1533" height="303">
	<title>mercury-logo-svg</title>
	<style>
		.s0 { fill: #ffffff } 
	</style>
	<g id="Layer">
		<path id="Layer" fill-rule="evenodd" class="s0" d="m490 3.1h35.1l39 62.6 39-62.6h35.2v148.1h-32.4v-96.7l-41.8 63.3h-0.8l-41.3-62.7v96.1h-32zm175.8 0h111.8v29h-79.4v30h69.9v29h-69.9v31.1h80.5v29h-112.9zm266 148.1h-38.1l-31.8-47.4h-25.6v47.4h-32.6v-148.1h67.8c18.8 0 33.5 5.3 43.2 15.1 8.3 8.2 12.7 19.8 12.7 33.8v0.4c0 23.9-12.9 38.9-31.8 45.9zm-37.4-97.5c0-14-9.8-21.2-25.6-21.2h-32.5v42.5h33.1c15.9 0 25-8.5 25-20.9zm50.5 23.9v-0.4c0-42.1 31.7-76.6 77.3-76.6 28 0 44.7 9.3 58.4 22.8l-20.7 23.9c-11.4-10.3-23.1-16.7-37.9-16.7-25 0-43 20.7-43 46.1v0.4c0 25.4 17.6 46.6 43 46.6 17 0 27.3-6.8 39-17.4l20.7 21c-15.2 16.3-32.2 26.4-60.8 26.4-43.6 0-76-33.6-76-76.1zm155.9 10.1v-84.6h32.6v83.8c0 24.1 12.1 36.6 32 36.6 19.9 0 32-12.1 32-35.6v-84.8h32.6v83.5c0 44.9-25.2 66.9-65 66.9-39.8 0-64.2-22.2-64.2-65.8zm285.1 63.5h-38.1l-31.8-47.4h-25.6v47.4h-32.6v-148.1h67.8c18.8 0 33.4 5.3 43.2 15 8.3 8.3 12.7 19.9 12.7 33.9v0.4c0 23.9-12.9 38.9-31.8 45.9zm-37.5-97.6c0-13.9-9.7-21.1-25.6-21.1h-32.4v42.5h33c15.9 0 25-8.5 25-21zm94.2 39.2l-57-89.8h38.2l35.4 59.5 35.9-59.5h37.1l-57 89.1v59.1h-32.6z"/>
	</g>
	<g id="Layer">
		<path id="Layer" fill-rule="evenodd" class="s0" d="m490.1 178.8h21.4v121.9h-21.4zm52.6 0h19.9l65.3 84.2v-84.2h21.1v121.9h-17.9l-67.3-86.8v86.8h-21.1zm127.6 104.2l12.9-15.3c11.6 10.1 23.3 15.8 38.5 15.8 13.2 0 21.6-6.1 21.6-15.3v-0.4c0-8.7-4.9-13.4-27.5-18.6-26-6.3-40.6-14-40.6-36.4v-0.4c0-20.9 17.4-35.3 41.6-35.3 17.8 0 31.9 5.4 44.3 15.3l-11.6 16.1c-10.9-8.2-21.9-12.5-33.1-12.5-12.5 0-19.8 6.5-19.8 14.5v0.3c0 9.4 5.5 13.6 28.9 19.2 25.8 6.2 39.2 15.4 39.2 35.6v0.4c0 22.8-17.9 36.4-43.5 36.4-18.7 0-36.3-6.5-50.9-19.4zm115.8-34.1v-70.1h21.5v69.2c0 22.6 11.7 34.8 30.8 34.8 19 0 30.7-11.4 30.7-33.9v-70.1h21.4v69.1c0 36.4-20.5 54.6-52.4 54.6-31.7 0-51.9-18.2-52-53.6zm235.7 51.7h-25.3l-30-42.5h-26.8v42.5h-21.5v-121.9h54.4c15.3 0 27.4 4.5 35.2 12.2 6.5 6.6 10.1 15.7 10.1 26.3v0.4c0 20-12 32-29.1 36.9zm-50.7-61.5c15.4 0 25.1-7.9 25.1-20.3v-0.4c0-13-9.4-20.2-25.3-20.2h-31.2v40.9zm189.4 61.5h-22.7l-12.4-29.4h-57.7l-12.5 29.4h-22l53.7-122.7h19.9zm-42.9-48.5l-21.1-48.7-20.9 48.7zm60.8-73.4h19.9l65.4 84.2v-84.2h21v121.9h-17.9l-67.3-86.8v86.8h-21.1zm129.7 61.2v-0.4c0-34.6 26-63 62.9-63 22.5 0 36.1 7.8 47.8 19l-13.8 15.8c-9.7-9-20.2-15.1-34.1-15.1-23.4 0-40.3 19.2-40.3 43v0.4c0 23.8 16.9 43.3 40.3 43.3 14.9 0 24.5-6.1 35-15.8l13.7 13.9c-12.7 13.3-26.7 21.6-49.5 21.6-35.5 0-62-27.7-62-62.7zm134.5-61.2h89.6v19.1h-68.1v31.7h61.2v19.2h-61.2v32.7h68.1v19.2h-89.6z"/>
	</g>
	<path id="Layer" class="s0" d="m434.8 3.1v297.6h-221.9zm-14.6 0l-260.7 297.6h-159.3z"/>
</svg>