<svg version="1.2" baseProfile="tiny-ps" xmlns="http://www.w3.org/2000/svg" viewBox="0 0 1577 378" width="1577" height="378">
	<title>Mondelez_international_2012_logo-svg</title>
	<style>
		tspan { white-space:pre }
		.shp0 { fill: #ffffff } 
	</style>
	<g id="layer1">
		<g id="g545">
			<path id="path386" class="shp0" d="M168.2 250.56C160.9 257.19 150.35 259.4 143.75 260.24C130.29 261.93 116.37 257.46 107.49 246.74C100.19 237.99 96.45 226.66 89.33 217.6C78.08 203.26 60.1 193.87 41.58 197.19C4.97 203.83 -11.64 246.55 9.06 276.19C38.64 318.54 105.17 311.2 139.32 281.86C149.95 272.74 159.88 262.59 168.2 250.56" />
			<path id="path388" class="shp0" d="M1408.72 250.55C1416.04 257.19 1426.56 259.4 1433.19 260.24C1446.64 261.93 1460.56 257.47 1469.44 246.75C1476.73 237.99 1480.49 226.66 1487.6 217.6C1498.86 203.26 1516.84 193.86 1535.35 197.19C1571.95 203.83 1588.56 246.55 1567.85 276.19C1538.28 318.53 1471.75 311.21 1437.62 281.87C1426.99 272.75 1417.04 262.59 1408.72 250.55" />
			<path id="path390" fill-rule="evenodd" class="shp0" d="M1304.76 44.48C1304.31 53.61 1296.39 62.48 1286.81 62.77C1286.01 62.8 1198.63 62.8 1197.7 62.77C1187.69 62.29 1179.27 52.67 1179.75 42.97C1180.21 33.84 1188.13 24.97 1197.7 24.68C1198.51 24.65 1285.89 24.65 1286.81 24.68C1296.83 25.17 1305.25 34.77 1304.76 44.48ZM730.3 214.7C734.88 226.99 745.13 230.61 745.13 230.61C745.13 230.61 734.75 244.51 717.29 244.51C697.1 244.51 682.08 235.5 675.28 221.69C673.73 218.64 672.65 215.31 672.02 211.74C671.64 209.64 671.35 207.5 671.29 205.27L671.35 136.7C671.29 136.7 670.58 122.53 657.85 122.53C648.03 122.53 641.52 134.35 639.05 145.93L639.05 216.76C639.05 230.62 628.08 244.21 610.41 244.21C592.73 244.21 582.85 230.94 582.18 216.79C582.15 216.45 582.36 136.58 582.18 120.18C582.18 97.27 565.14 91.36 565.14 91.36C565.14 91.36 575.51 77.45 592.98 77.45C620.36 77.45 638.28 93.94 638.99 116.67C643.96 108.52 661.51 83.58 691.12 83.58C734.97 83.58 728.93 140.49 728.02 172.84C728.02 182.21 728.02 192.39 728.08 199.64C728.43 204.66 729.08 209.64 730.3 214.7L730.3 214.7ZM1151.8 214.7C1156.4 226.99 1166.63 230.61 1166.63 230.61C1166.63 230.61 1156.27 244.51 1138.76 244.51C1118.6 244.51 1101.9 233.86 1095.14 220.04C1088.76 207.6 1090.08 193.77 1089.94 180.23L1089.9 29.93C1089.9 13.42 1103.27 0.04 1119.76 0.04C1136.26 0.04 1149.63 13.42 1149.63 29.93L1149.58 199.64C1149.9 204.66 1150.56 209.64 1151.8 214.7L1151.8 214.7ZM565.57 163.31C565.57 208.16 529.23 244.51 484.42 244.51C439.6 244.51 403.27 208.16 403.27 163.31C403.27 118.45 439.6 82.1 484.42 82.1C529.23 82.1 565.57 118.45 565.57 163.31ZM508.01 163.31C508.01 134.54 498.27 116.9 485.02 116.58L485.02 116.58C484.95 116.58 484.89 116.58 484.84 116.58C484.78 116.58 484.72 116.58 484.67 116.58L484.67 116.58C471.4 116.9 461.67 134.54 461.67 163.31C461.67 192.12 469.35 209.74 484.67 210.02L484.67 210.06C484.72 210.06 484.77 210.03 484.84 210.03C484.9 210.03 484.95 210.06 485.02 210.06L485.02 210.02C500.35 209.74 508.01 192.12 508.01 163.31ZM912.82 214.7C917.43 226.99 927.65 230.61 927.65 230.61C927.65 230.61 917.29 244.51 899.79 244.51C879.62 244.51 862.93 233.86 856.16 220.04C855.7 219.15 855.3 218.25 854.92 217.35C852.27 229.62 835.8 239.89 825.35 242.62C810.22 246.55 790.22 244.36 776.96 235.85C729.93 205.61 734.26 83.39 802.85 83.39C827.78 83.39 843.6 100.3 850.79 110.31L850.91 29.93C850.91 13.42 864.28 0.04 880.77 0.04C897.27 0.04 910.64 13.42 910.64 29.93L910.6 199.64C910.92 204.66 911.58 209.64 912.82 214.7L912.82 214.7ZM846.82 164.13C846.82 139.07 837.1 123.71 823.81 123.43L823.81 123.41C823.75 123.41 823.7 123.43 823.65 123.43C823.58 123.43 823.54 123.41 823.46 123.41L823.46 123.43C810.19 123.71 800.47 139.07 800.47 164.13C800.47 189.22 808.14 204.6 823.46 204.82L823.46 204.85C823.54 204.85 823.58 204.84 823.65 204.84C823.7 204.84 823.75 204.85 823.81 204.85L823.81 204.82C839.14 204.6 846.82 189.22 846.82 164.13ZM1068.21 194.26C1068.21 194.26 1065.25 244.51 1003.54 244.51C968.5 244.51 926.3 217.82 926.3 165.19C926.3 118.45 958.71 83.05 1003.08 83.05C1029.94 83.05 1075.26 96.28 1075.26 136.39C1075.26 176.52 1033.72 179.84 984.2 179.84C984.2 179.84 991.49 206.27 1025.47 206.27C1059.45 206.27 1068.21 194.26 1068.21 194.26ZM980.99 154.09C980.82 155.35 999.93 154.39 1001.14 154.13C1012.51 151.74 1020.68 143.13 1020.46 130.5C1020.25 118.53 1006.87 111.46 997.3 117.67C985.79 125.15 982.73 141.29 980.99 154.09L980.99 154.09ZM1307.14 194.26C1307.14 194.26 1304.18 244.51 1242.47 244.51C1207.44 244.51 1165.23 217.82 1165.23 165.19C1165.23 118.45 1197.64 83.05 1242.01 83.05C1268.87 83.05 1314.19 96.28 1314.19 136.39C1314.19 176.52 1272.65 179.84 1223.13 179.84C1223.13 179.84 1230.42 206.27 1264.4 206.27C1298.38 206.27 1307.14 194.26 1307.14 194.26ZM1219.92 154.09C1219.75 155.35 1238.87 154.39 1240.07 154.13C1251.44 151.74 1259.61 143.13 1259.39 130.5C1259.18 118.53 1245.8 111.46 1236.24 117.67C1224.72 125.15 1221.66 141.29 1219.92 154.09L1219.92 154.09ZM1419.2 198.6C1447.5 198.6 1459.73 186.69 1459.73 186.69C1481.18 210.9 1454.22 265.83 1409.35 237.75C1401.6 232.9 1392.08 228.33 1383.13 226.46C1359.2 221.46 1327.77 231.74 1315.8 242.36C1312.28 225.25 1321.54 202.94 1330.19 188.46C1345.34 163.25 1375.18 146.73 1400.17 132.79L1346.26 132.45C1333.6 132.28 1323.71 122.68 1323.86 110.71C1324.03 98.85 1334.51 88.79 1347 88.81C1347 88.81 1439.4 88.86 1442.12 88.81C1445.41 88.61 1448.71 88.01 1452.02 87.21C1460.1 84.19 1462.48 77.45 1462.48 77.45C1462.48 77.45 1468.83 82.21 1470.93 90.48L1470.91 90.23C1482.37 124.93 1443.06 151.72 1421.19 170.28C1412.85 177.36 1387.67 198.6 1385.17 198.6L1419.2 198.6L1419.2 198.6ZM407.66 232.77C423.43 250.07 444.42 262.14 468.4 263.59C468.4 263.59 453.31 304.18 408.95 304.18C364.63 304.18 313.95 262.31 324.13 114.64C324.13 114.57 262.34 198.07 262.34 198.07L207.77 114.31C206.42 142.69 200.54 176.92 191.44 203.96C177.39 245.56 127.67 266.18 108.36 214C108.36 214 146.06 205.84 159.87 117.19C164.48 87.66 165.01 44.41 143.8 27.42C156.1 10.52 178.72 11.67 187.43 12.95C207.67 15.9 219.19 32.98 225.34 42.27C229.79 49.01 266.01 105.07 266.01 105.07C266.01 105.07 309.06 45.63 311.95 41.58C320.71 29.31 333.05 12.24 358.65 12.24C370.05 12.24 385.04 16.1 392.64 25.66C369.93 40.19 368.38 90.13 369.84 118.97C371.53 152.35 380.14 202.57 407.66 232.77ZM546.07 280.8C544.1 275.54 539.72 274 539.72 274C539.72 274 544.16 268.04 551.65 268.04C560.28 268.04 567.43 272.6 570.33 278.52C573.06 283.84 572.49 289.76 572.55 295.55C572.55 295.55 572.58 364.54 572.55 365.42C572.23 372.14 565.79 377.8 559.28 377.47C553.16 377.17 547.21 371.86 547.02 365.42C546.98 364.5 547.03 287.9 547.02 287.25C546.88 285.1 546.6 282.97 546.07 280.8ZM1355.37 364.73C1357.34 369.98 1361.71 371.53 1361.71 371.53C1361.71 371.53 1357.28 377.48 1349.78 377.48C1341.15 377.48 1334.01 372.93 1331.11 367.01C1328.38 361.68 1328.95 355.76 1328.89 349.97C1328.89 349.97 1328.86 280.99 1328.89 280.11C1329.21 273.39 1335.65 267.73 1342.16 268.05C1348.28 268.36 1354.23 273.67 1354.42 280.11C1354.45 281.02 1354.41 357.63 1354.41 358.27C1354.56 360.43 1354.84 362.56 1355.37 364.73L1355.37 364.73ZM893.45 307.7C911.92 307.62 910.03 329.47 910.03 347.67L910.06 365.37C909.73 372.08 903.3 377.73 896.8 377.41C890.68 377.11 884.73 371.8 884.54 365.37L884.59 331.5C884.56 331.5 884.25 325.15 878.55 325.15C874.14 325.15 871.23 330.45 870.13 335.63L870.02 335.7C870.03 349.2 870.02 364.88 870.01 365.37C869.68 372.08 863.24 377.74 856.75 377.41C850.63 377.11 844.68 371.8 844.48 365.37C844.46 364.72 844.46 316.69 844.48 315.82C844.81 309.11 851.25 303.95 857.75 304.28C863.86 304.58 869.81 309.39 870.01 315.82C870.01 315.97 870.02 318.89 870.02 322.58L870.1 322.53C872.32 318.87 880.18 307.7 893.45 307.7L893.45 307.7ZM1219.73 307.7C1238.2 307.62 1236.31 329.47 1236.31 347.67L1236.34 365.37C1236.01 372.08 1229.58 377.73 1223.08 377.41C1216.96 377.11 1211.01 371.8 1210.82 365.37L1210.87 331.5C1210.85 331.5 1210.53 325.15 1204.83 325.15C1200.42 325.15 1197.5 330.45 1196.41 335.63L1196.31 335.7C1196.31 349.2 1196.3 364.88 1196.29 365.37C1195.96 372.08 1189.52 377.74 1183.03 377.41C1176.91 377.11 1170.96 371.8 1170.77 365.37C1170.74 364.72 1170.74 316.69 1170.77 315.82C1171.09 309.11 1177.54 303.95 1184.03 304.28C1190.15 304.58 1196.09 309.39 1196.29 315.82C1196.29 315.97 1196.3 318.89 1196.3 322.58L1196.38 322.53C1198.6 318.87 1206.46 307.7 1219.73 307.7L1219.73 307.7ZM634.29 307.7C652.76 307.62 650.86 329.47 650.86 347.67L650.9 365.37C650.57 372.08 644.14 377.73 637.64 377.41C631.52 377.11 625.57 371.8 625.38 365.37L625.43 331.5C625.41 331.5 625.09 325.15 619.39 325.15C614.98 325.15 612.06 330.45 610.97 335.63L610.86 335.7C610.87 349.2 610.86 364.88 610.85 365.37C610.52 372.08 604.08 377.74 597.59 377.41C591.47 377.11 585.52 371.8 585.32 365.37C585.3 364.72 585.3 316.69 585.32 315.82C585.64 309.11 592.09 303.95 598.59 304.28C604.71 304.58 610.65 309.39 610.85 315.82C610.85 315.97 610.86 318.89 610.86 322.58L610.94 322.53C613.16 318.87 621.02 307.7 634.29 307.7L634.29 307.7ZM1127.21 304.5C1147.28 304.5 1163.56 320.78 1163.56 340.88C1163.56 360.98 1147.28 377.25 1127.21 377.25C1107.13 377.25 1090.85 360.98 1090.85 340.88C1090.85 320.78 1107.13 304.5 1127.21 304.5ZM1137.77 340.88C1137.77 327.99 1133.41 320.09 1127.47 319.94L1127.47 319.94C1127.44 319.94 1127.41 319.94 1127.39 319.94C1127.35 319.94 1127.33 319.94 1127.32 319.94L1127.32 319.94C1121.36 320.09 1117.01 327.99 1117.01 340.88C1117.01 353.78 1120.45 361.67 1127.32 361.8L1127.32 361.82C1127.33 361.82 1127.35 361.81 1127.39 361.81C1127.41 361.81 1127.44 361.82 1127.47 361.82L1127.47 361.8C1134.33 361.67 1137.77 353.78 1137.77 340.88ZM991.44 314.94C991.46 315.56 991.47 363.71 991.44 364.63C991.1 371.66 984.35 377.58 977.54 377.24C972.07 376.97 966.75 372.87 965.18 367.49C962.61 371.67 956.96 374.94 953.13 375.94C946.35 377.7 937.39 376.72 931.44 372.91C910.37 359.36 912.32 304.6 943.05 304.6C954.22 304.6 961.3 312.18 964.53 316.66C964.53 316.47 964.59 315.43 964.6 314.94C964.94 307.91 971.68 301.98 978.5 302.32C984.9 302.64 991.23 308.21 991.44 314.94L991.44 314.94ZM962.75 340.77C962.75 329.55 958.39 322.67 952.44 322.54L952.44 322.53C952.42 322.53 952.39 322.54 952.37 322.54C952.33 322.54 952.32 322.53 952.28 322.53L952.28 322.54C946.33 322.67 941.98 329.55 941.98 340.77C941.98 352.01 945.42 358.9 952.28 359.01L952.28 359.02C952.32 359.02 952.33 359.02 952.37 359.02C952.39 359.02 952.42 359.02 952.44 359.02L952.44 359.01C959.3 358.9 962.75 352.01 962.75 340.77ZM1317.45 314.94C1317.47 315.56 1317.48 363.71 1317.45 364.63C1317.11 371.66 1310.37 377.58 1303.56 377.24C1298.1 376.97 1292.77 372.87 1291.2 367.49C1288.63 371.67 1282.98 374.94 1279.15 375.94C1272.37 377.7 1263.41 376.72 1257.46 372.91C1236.39 359.36 1238.34 304.6 1269.07 304.6C1280.23 304.6 1287.33 312.18 1290.54 316.66C1290.54 316.47 1290.61 315.43 1290.62 314.94C1290.96 307.91 1297.7 301.98 1304.51 302.32C1310.92 302.64 1317.25 308.21 1317.45 314.94L1317.45 314.94ZM1278.46 359.01C1285.33 358.9 1288.77 352.01 1288.77 340.77C1288.77 329.55 1284.41 322.67 1278.46 322.54L1278.46 322.53C1278.43 322.53 1278.41 322.54 1278.39 322.54C1278.35 322.54 1278.34 322.53 1278.3 322.53L1278.3 322.54C1272.36 322.67 1268 329.55 1268 340.77C1268 352.01 1271.44 358.9 1278.3 359.01L1278.3 359.02C1278.34 359.02 1278.36 359.02 1278.39 359.02C1278.41 359.02 1278.43 359.02 1278.46 359.02L1278.46 359.01ZM1082.84 346.44L1082.81 346.44L1082.84 366.12C1082.84 372.34 1075.68 377.25 1070 377.25C1069.63 377.25 1069.29 377.19 1068.91 377.14C1062.64 376.61 1057.66 371.63 1057.35 365.29C1057.34 365.14 1057.43 351.86 1057.35 344.52L1057.38 344.52L1057.35 320.96C1057.35 314.74 1064.5 309.83 1070.19 309.83C1070.55 309.83 1070.89 309.9 1071.27 309.94C1077.55 310.47 1082.53 315.45 1082.84 321.79C1082.85 321.94 1082.75 339.09 1082.84 346.44ZM1082.74 289.94C1082.74 296.92 1077.08 302.59 1070.09 302.59C1063.1 302.59 1057.44 296.92 1057.44 289.94C1057.44 282.94 1063.1 277.27 1070.09 277.27C1077.08 277.27 1082.74 282.94 1082.74 289.94ZM824.16 306.82C844.29 305.99 842.47 337.01 825.43 337.01C813.55 337.01 818.9 324.47 813.72 324.43C810.06 324.4 808.08 330.09 807.69 334.64L807.7 365.71L807.64 365.71C807.21 372.34 800.84 377.89 794.4 377.57C788.28 377.27 782.33 371.96 782.14 365.53L782.16 365.53L782.16 316.48C782.48 309.76 788.92 304.11 795.43 304.43C801.54 304.74 807.48 310.05 807.68 316.48C807.68 316.6 807.64 319.94 807.68 319.88C812.83 312.79 816.58 307.14 824.16 306.82L824.16 306.82ZM772.11 354.71C772.11 354.71 770.78 377.25 743.1 377.25C727.38 377.25 708.45 365.28 708.45 341.66C708.45 320.7 722.99 304.82 742.89 304.82C754.95 304.82 775.27 310.75 775.27 328.75C775.27 346.75 756.64 348.24 734.42 348.24C734.42 348.24 737.7 360.09 752.94 360.09C768.18 360.09 772.11 354.71 772.11 354.71ZM732.98 336.69C732.9 337.25 741.48 336.82 742.03 336.71C747.13 335.63 750.79 331.77 750.69 326.1C750.6 320.74 744.59 317.56 740.31 320.35C735.13 323.7 733.75 330.94 732.98 336.69L732.98 336.69ZM706.9 363.81C706.9 363.81 700.27 377.25 688 377.25C677.9 377.25 665.47 368.33 664.95 355.41C664.95 355.29 664.88 336.71 664.84 321.17L661.41 321.17C659.62 321.17 656.45 320.1 656.45 315.43C656.45 310.76 660.01 309.77 661.78 309.77L664.81 309.77C664.79 304.34 664.79 300.61 664.8 300.38C665.12 293.68 671.55 288.04 678.03 288.36C684.13 288.67 690.22 293.96 690.41 300.38L690.41 309.77L701.22 309.77C702.71 309.77 706.18 310.75 706.18 315.5C706.18 320.26 702.71 321.17 700.84 321.17L690.41 321.17L690.41 349.7C690.41 358.96 698.38 363.76 706.94 363.79L706.9 363.81ZM1048.4 363.81C1048.4 363.81 1041.76 377.25 1029.5 377.25C1019.4 377.25 1006.97 368.33 1006.45 355.41C1006.44 355.29 1006.38 336.71 1006.33 321.17L1002.91 321.17C1001.11 321.17 997.94 320.1 997.94 315.43C997.94 310.76 1001.51 309.77 1003.28 309.77L1006.3 309.77C1006.29 304.34 1006.28 300.61 1006.29 300.38C1006.62 293.68 1013.04 288.04 1019.52 288.36C1025.63 288.67 1031.71 293.96 1031.91 300.38L1031.91 309.77L1042.71 309.77C1044.21 309.77 1047.67 310.75 1047.67 315.5C1047.67 320.26 1044.21 321.17 1042.34 321.17L1031.91 321.17L1031.91 349.7C1031.91 358.96 1039.87 363.76 1048.43 363.79L1048.4 363.81Z" />
		</g>
	</g>
</svg>