<svg version="1.2" xmlns="http://www.w3.org/2000/svg" viewBox="0 0 1581 227" width="1581" height="227">
	<title>December-2022-3-pdf-svg</title>
	<defs>
		<clipPath clipPathUnits="userSpaceOnUse" id="cp1">
			<path d="m-672.27-8712.56h16449.73v9240h-16449.73z"/>
		</clipPath>
	</defs>
	<style>
		.s0 { fill: #ffffff } 
	</style>
	<g id="Clip-Path: Page 1" clip-path="url(#cp1)">
		<g id="Page 1">
			<path id="Path 3" class="s0" d="m475.8 64.6c3.4-3.4 7.7-5.1 12-5.1 4.3 0 9.4 2.5 12 5.9l53.1 61.6v14.6h-14.6l-61.7-52.2c-3.4-3.4-6-7.7-6-12.8 0-4.3 1.8-8.6 5.2-12z"/>
			<path id="Path 4" class="s0" d="m634.3 76.6c0 5.1-2.6 9.4-6 12.8l-61.7 52.2h-13.7v-14.6l52.3-61.6c3.4-3.4 7.7-5.9 12.8-5.9 4.3 0 8.6 1.7 11.1 5.1 3.5 3.4 5.2 7.7 5.2 12z"/>
			<path id="Path 5" class="s0" d="m470.6 206.6c0-5.1 2.6-9.4 6-12.8l61.7-52.2h14.6v14.5l-53.1 61.6c-2.6 3.5-7.7 6-12 6-4.3 0-8.6-2.5-12-5.1-3.4-3.4-5.2-7.7-5.2-12z"/>
			<path id="Path 6" class="s0" d="m629.1 218.6c-2.5 2.6-6.8 5.1-11.1 5.1-5.1 0-9.4-2.5-12.8-6l-52.3-61.6v-14.5h13.7l61.7 52.2c3.4 3.4 6 7.7 6 12.8 0 4.3-1.7 8.6-5.2 12z"/>
			<path id="Path 7" fill-rule="evenodd" class="s0" d="m355 75.7q19.7 0 34.3 7.7 14.5 8.6 23.1 22.3v-105.3h17.1v223.3h-17.1v-28.2q-8.6 13.7-23.1 22.2-14.6 7.7-34.3 7.7-15.4 0-29.1-5.1-12.9-6-23.2-15.4-9.4-10.3-15.4-24-5.1-13.6-5.1-29.9 0-16.3 5.1-29.9 6-14.6 15.4-24 10.3-10.3 23.2-16.3 13.7-5.1 29.1-5.1zm1.7 16.3q-12.9 0-23.1 4.2-10.3 5.2-18 12.9-7.7 7.7-12 18.8-3.5 10.3-3.5 23.1 0 12 3.5 23.1 4.3 10.3 12 18 7.7 8.5 18 12.8 10.2 4.3 23.1 4.3 12 0 22.3-4.3 11.1-4.3 18-12 7.7-8.5 12-18.8 4.2-11.1 4.2-23.1 0-12.8-4.2-24-4.3-10.2-12-17.9-6.9-7.7-18-12.9-10.3-4.2-22.3-4.2zm336.7 11.1q4.3-6.9 10.3-12.8 6-5.2 12.8-8.6 6-3.4 13.7-4.3 7.8-1.7 15.5-1.7 12.8 0 24.8 3.4 11.1 4.3 18.9 12 8.5 7.7 12.8 18.8 4.3 11.2 4.3 24v89.8h-18v-83.8q0-11.1-2.6-20.6-3.4-8.5-9.4-14.5-6-6-14.6-9.4-8.5-3.4-19.7-3.4-10.2 0-18.8 3.4-9.4 3.4-16.3 10.3-6 5.9-10.3 15.4-3.4 8.5-3.4 19.6v83h-18v-223.3h18zm215.9-27.4q14.6 0 27.4 5.2 12 6 21.4 15.4 8.6 10.2 14.6 23.9 5.1 13.7 5.1 30 0 1.7 0 3.4 0 1.7 0 3.4h-122.5q0.9 12.9 5.2 23.1 5.1 9.4 12.8 16.3 7.7 6.8 17.2 11.1 10.2 3.4 21.4 3.4 15.4 0 27.4-6 12-5.1 21.4-15.4l9.4 12.9q-6.8 6.8-13.7 11.1-7.7 5.1-15.4 7.7-6.9 2.6-14.6 3.4-7.7 1.7-16.2 1.7-15.5 0-29.2-6-13.7-5.1-23.1-15.4-9.4-9.4-15.4-23.1-5.2-14.5-5.2-30.8 0-16.2 5.2-30.8 6-13.7 15.4-23.1 9.4-10.2 23.1-16.2 12.9-5.2 28.3-5.2zm0 15.4q-11.1 0-20.6 4.3-9.4 3.4-16.2 10.3-6.9 6.8-11.2 16.2-4.3 8.6-6 20.6h104.6q-0.9-12-5.2-21.4-4.3-9.4-11.1-15.4-6.9-6.9-15.4-11.1-8.6-3.5-18.9-3.5zm245 132.7h-17.1v-28.3q-9.4 13.7-24 22.3-14.6 8.5-34.3 8.5-15.4 0-28.2-6-13.7-6-23.2-15.4-10.2-10.2-15.4-23.9-6-13.7-6-30 0-16.2 6-29.9 5.2-13.7 15.4-24 9.5-10.2 23.2-16.2 12.8-5.2 28.2-5.2 19.7 0 34.3 8.6 14.6 7.7 24 21.4v-27.4h17.1zm-73.6-131.7q-12 0-22.3 4.2-11.2 5.2-18 12.9-7.7 7.7-12 17.9-4.3 11.2-4.3 23.1 0 12.9 4.3 23.1 4.3 11.2 12 18.9 7.7 7.7 18 12.8 10.3 4.3 22.3 4.3 12.8 0 23.1-4.3 10.3-4.3 18-12.8 7.7-7.7 12-18 4.3-11.1 4.3-24 0-11.9-4.3-23.1-4.3-10.2-12-18.8-7.7-7.7-18-12-10.3-4.2-23.1-4.2zm119-91.6h18v223.3h-18zm169.7 93.3h-67.7v79.5q0 8.6 2.6 15.4 2.5 6.9 6.8 11.2 4.3 5.1 10.3 6.8 6 2.6 12.9 2.6 9.4 0 17.9-3.5 7.8-2.5 14.6-7.7l8.6 12.9q-7.7 6.8-18.9 10.2-10.3 4.3-24 4.3-22.2 0-35.1-12.8-12.8-12.8-12.8-39.4v-79.5h-33.5v-16.3h33.5v-47.9h17.1v47.9h67.7zm55.7 9.4q4.3-7.7 10.3-12.8 5.9-5.1 12.8-8.6 6.9-3.4 13.7-5.1 7.7-1.7 15.4-1.7 12.9 0 24.9 4.3 11.1 4.2 18.8 11.9 8.6 7.7 12.9 18 4.3 11.1 4.3 24.8v89h-17.2v-83.8q0-11.2-3.4-19.7-3.4-8.6-9.4-14.6-6-6-14.6-9.4-8.6-3.4-19.7-3.4-10.3 0-18.8 3.4-9.5 3.4-15.5 10.3-6.8 6-11.1 14.5-3.4 9.4-3.4 19.7v83h-18v-222.4h18zm-1175.5 37.6v83h-17.1v-83c0-27.4-22.3-49.6-48.9-49.6-27.4 0-49.7 22.2-49.7 49.6v83h-17.1v-83c0-27.4-22.3-49.6-49.7-49.6-27.4 0-49.7 22.2-49.7 49.6v83h-17.1v-83c0-36.8 30-66.7 66.8-66.7 24.9 0 46.3 13.7 58.3 34.2 11.1-20.5 32.5-34.2 57.4-34.2 36.8 0 66.8 29.9 66.8 66.7zm1313.4-70.2q3.4 0 6.9 1.8 2.5 0.8 5.1 3.4 2.6 2.5 3.4 5.1 1.7 3.4 1.7 6.9 0 3.4-1.7 6.8-0.8 3.4-3.4 5.1-2.6 2.6-5.1 4.3-3.5 0.9-6.9 0.9-3.4 0-6.8-0.9-3.5-1.7-6-4.3-1.8-1.7-3.5-5.1-1.7-3.4-1.7-6.8 0-3.5 1.7-6.9 1.7-2.6 3.5-5.1 2.5-2.6 6-3.4 3.4-1.8 6.8-1.8zm0 32.6q2.6 0 6-1.8 2.6-0.8 4.3-2.5 2.6-2.6 3.4-5.2 0.9-2.5 0.9-5.9 0-3.5-0.9-6-0.8-2.6-3.4-4.3-1.7-2.6-4.3-3.4-2.6-1.7-6-1.7-3.4 0-6 1.7-2.6 0.8-5.1 3.4-1.7 1.7-2.6 4.3-1.7 2.5-1.7 6 0 3.4 1.7 5.9 0.9 2.6 2.6 5.2 2.5 1.7 5.1 2.5 2.6 1.8 6 1.8zm0.9-24q2.5 0 5.1 0.9 1.7 1.7 1.7 4.2 0 1.7-1.7 3.5-1.7 1.7-4.3 1.7l6 6.8h-2.6l-5.9-6.8h-3.5v6.8h-1.7v-17.1zm-5.1 1.7v6.9h5.1q1.7 0 3.4-0.9 0.9-0.9 0.9-2.6 0-1.7-0.9-2.5-1.7-0.9-3.4-0.9z"/>
		</g>
	</g>
</svg>