<svg version="1.2" xmlns="http://www.w3.org/2000/svg" viewBox="0 0 1553 1559" width="1553" height="1559">
	<title>December-2022-3-pdf-svg (2)-svg</title>
	<style>
		.s0 { fill: #ffffff } 
	</style>
	<g id="Clip-Path: Page 1">
		<g id="Page 1">
			<path id="Path 3" class="s0" d="m48.9 49c32.5-32.4 73.1-48.7 113.7-48.7 40.7 0 89.4 24.4 113.8 56.8l503.8 584.3v137.9h-138.1l-585.1-495c-32.5-32.4-56.9-73-56.9-121.7 0-40.6 16.3-81.1 48.8-113.6z"/>
			<path id="Path 4" class="s0" d="m1552.2 162.6c0 48.7-24.4 89.3-56.9 121.7l-585.1 495h-130v-137.9l495.7-584.3c32.5-32.4 73.2-56.8 121.9-56.8 40.6 0 81.3 16.3 105.6 48.7 32.6 32.5 48.8 73 48.8 113.6z"/>
			<path id="Path 5" class="s0" d="m0.1 1396.1c0-48.7 24.4-89.3 56.9-121.8l585.1-495h138.1v138l-503.8 584.3c-24.4 32.4-73.1 56.8-113.8 56.8-40.6 0-81.2-24.4-113.7-48.7-32.5-32.5-48.8-73.1-48.8-113.6z"/>
			<path id="Path 6" class="s0" d="m1503.4 1509.7c-24.3 24.3-65 48.7-105.6 48.7-48.7 0-89.4-24.4-121.9-56.8l-495.7-584.3v-138h130l585.1 495c32.5 32.5 56.9 73.1 56.9 121.8 0 40.5-16.2 81.1-48.8 113.6z"/>
		</g>
	</g>
</svg>