<svg version="1.2" xmlns="http://www.w3.org/2000/svg" viewBox="0 0 1567 362" width="1567" height="362">
	<title>MED_MED_IDN_03_Medifast_Logo_CMYK-svg</title>
	<style>
		.s0 { fill: #005897 } 
	</style>
	<g id="#005897ff">
		<path id="Layer" fill-rule="evenodd" class="s0" d="m197.8 6.8c6-6.3 16.1-8 23.9-4.1 9.4 4.3 14.5 16.2 10.6 25.9-1 3.7-4 6.2-5.7 9.4-1.6 7.7-2.5 15.5-2.8 23.3 5.7-6 11.7-11.8 18-17.3 6.9-6 14.7-12.2 24.2-12.4 12.5 0.1 24.6 4.1 37.1 4.5 13.4 1 26.9 0.8 40.3 0.9 27.1 0 54.2 0 81.4-0.3-0.7 1.8-0.4 4.3-2.2 5.3-2.7 1.9-5.4 3.8-8.3 5.5-4.6 0.4-9.3 0-14 0.2-13.4 0.8-26.8-0.2-40.2-0.1-17.4 0.1-34.9-0.5-52.3-1-8.4-0.5-16.8-1.2-25.1-2.7-7.3-1-14.8-2.8-22.1-0.9-9.9 2.3-17.7 9.4-24.9 16.1-4.4 4.5-9 8.6-13 13.5-0.4 3.5-0.4 7.2-0.9 10.7 8.9-8.7 18-17.7 29.5-23 5.3-2.3 11.1-3.9 17-3.9 7.2-0.2 14.3 1 21.3 2.2 12.3 1.9 24.7 1.7 37.1 2.3 22.6 0.4 45.1 0.2 67.6 0.2-5.3 3.7-10.7 7.2-16 11-1.5 0.8-2.8 2.1-4.6 2-23.5 1.4-46.9 2.6-70.5 2.4-8.8-0.1-17.9 0.5-26.4-2.4-3.3-1.1-5.9-3.5-7.9-6.2-0.5 0.3-1.6 0.8-2.1 1.1 2.9 6 6.6 12.1 12.4 15.7 4.7 2.8 10.4 2.9 15.7 3q13.3 0.1 26.5-0.3c7.9-0.7 15.9-0.2 23.8-1 4.2-0.2 8.4-0.3 12.6-0.4-7.3 4.7-14.3 9.8-21.6 14.4-5.6 0.9-11.4 0.9-17 1.1-7.9 0.7-15.7 0.7-23.5 0.7-5.2 0-10.7 0.4-15.6-1.7-2.7-1-4.8-3.1-6.8-5.1-0.4 0.5-1 1.4-1.3 1.9 3.9 6.2 8.3 13 15.7 15.3 10 1.9 20.2 0 30.3 0.3-11.2 7.9-22.7 15.4-34 23.1-4.2-7.5-9.3-14.8-16.5-19.7-13-9.4-30.6-10-45.3-4.8-0.7 0.4-2.1 0.6-1.9 1.7-0.1 9.8-1 19.6-1 29.5-0.7 9.8-0.5 19.7-0.8 29.6-0.6 6.4-0.4 12.9-0.6 19.3 7.9 1.9 16.3-1.3 21.7-7.1 5.4-6 8.7-14 8.1-22.1 0.1-5.3-2.2-10.1-5.3-14.2-4.3 1.3-9.3 1.5-13.1-1.3-3.8-2.5-5.9-7.9-3.6-12.1 2.8-6.1 11.1-8 16.9-5.1 10.5 5.3 18.3 15.5 20.9 26.9 2.5 11.5-0.1 23.9-6.9 33.5-5 7.4-12.6 12.8-21 15.5 5.9 6.3 9.7 14.8 9.1 23.6 0.3 11.2-6.5 21.8-16.2 27.2 5.5 3.9 9.9 9.8 11.2 16.5 1 6.2 0.6 12.9-2.5 18.5-2.5 5.1-7.1 9-12.2 11.5 3.9 3.1 7.1 7.3 8.2 12.2 2 8.1-1.6 17.5-8.9 21.7-2.6 1.6-5.6 2.3-8.5 2.9-0.1 5.6 0.2 11.2-0.4 16.7-0.4 2-0.6 4.8-3.1 5.2-2.1-1.5-2.3-4.2-2.6-6.5-0.3-5.1-0.2-10.3-0.2-15.4-4.9-0.8-9.7-2.8-13-6.7-4.6-5.3-6.1-13-3.8-19.7 1.2-4.2 4.2-7.6 7.6-10.4-5.3-2.6-9.9-6.7-12.5-12-2.7-5.4-3.1-11.6-2.3-17.4 1.2-7 5.6-13.1 11.3-17.1-8-4.5-14-12.4-15.7-21.5-1-6.6-0.8-13.6 2.2-19.7 1.5-3.6 3.9-6.7 6.4-9.6-9.9-3.1-18.4-10.1-23.4-19.2-6-10.7-7.2-24.1-2.7-35.5 3.5-8.9 10.2-16.4 18.6-20.9 6-3.3 15-1.4 17.7 5.3 2.3 5.3-1.6 11.5-6.9 13.1-3.3 1.3-6.8 0.6-10.1-0.3-9.2 11.1-5.9 28.6 4.3 37.8 5.3 5 13 7.4 20.2 5.7-0.1-5.2-0.1-10.4-0.3-15.5-0.7-9.1-0.3-18.3-0.8-27.4-0.8-8-0.1-16.2-1-24.2-0.2-4.1-0.2-8.2-0.3-12.3-13.4-5.1-29-5.7-42 0.9-9.7 4.9-16.6 13.6-21.7 23-11.3-7.8-22.8-15.4-34.1-23.2 5.7-0.4 11.4 0.7 17.1 0.5 5.5-0.1 11.4 0.6 16.4-2.1 5.7-3.1 9.2-8.8 12.7-14-0.4-0.5-1-1.5-1.3-1.9-1.8 1.7-3.6 3.6-5.9 4.7-3.9 1.8-8.4 2.2-12.8 2.2-9.3-0.1-18.7-0.1-28.1-0.8-5.2-0.1-10.4-0.2-15.6-1-0.9-0.2-1.6-0.7-2.4-1.2-6.6-4.5-13.2-8.9-19.8-13.3 4.3 0.2 8.6 0.2 12.8 0.4 8.1 0.9 16.2 0.3 24.3 1.1 9.6 0.2 19.2 0.3 28.8 0.1 4.7-0.1 9.6-0.8 13.5-3.4 5.4-3.6 8.7-9.4 11.5-15-0.4-0.4-1.2-1.1-1.7-1.5-2.1 2.5-4.5 5.1-7.7 6.2-7.2 2.6-14.9 2.6-22.4 2.6-25 0.3-50-0.9-75-2.4-1.6 0.1-2.9-0.9-4.1-1.7-5.5-3.9-11.1-7.5-16.5-11.3 22.2 0 44.5 0.3 66.8-0.2 12.9-0.6 26-0.4 38.8-2.4 8.5-1.5 17.3-2.8 26-1.6 10 1.5 18.9 6.9 26.6 13.2 5.1 4 9.5 8.8 14.3 13.2-0.5-3.6-0.6-7.2-0.9-10.8-4.4-5.1-9.4-9.7-14.2-14.5-6.7-6.2-14-12.6-23.1-14.9-7.2-2-14.8-0.3-22 0.7-12.8 2.3-25.8 2.9-38.7 3.1-17.4 0.9-34.9 0.6-52.3 0.8-5.8 0.7-11.6-0.4-17.4 0.2-7.8 0.1-15.6-0.3-23.4-0.3-3.1-1.1-5.5-3.6-8.3-5.3-2.2-1-2-3.6-2.6-5.6 27.1 0.3 54.2 0.3 81.3 0.3 16.5-0.1 33 0.2 49.4-1.7 9.1-1.2 18-3.5 27.2-3.7 7.4-0.1 14.3 3.6 20 8.3 8.1 6.5 15.6 13.9 23 21.2-0.1-7.1-1.2-14.2-2.3-21.2-0.3-3.6-3.7-5.6-5.1-8.8-4.3-7.8-2.6-18.1 3.7-24.3zm-0.5 209c-4.8 7.1-5 17.1-0.6 24.4 2.5 4.2 6.9 6.7 11.5 8 0-13.2-0.2-26.3-0.3-39.5-4.2 1.1-8.1 3.5-10.6 7.1zm20.1-7c-0.1 13.1-0.3 26.2-0.3 39.3 3.8-1.1 7.7-2.9 10.2-6.2 5.7-7.3 5.9-18.5 0.6-26.1-2.4-3.6-6.3-6-10.5-7zm-16.2 57.1c-6.3 6.1-6.8 16.9-1.7 23.8 2.2 3.3 5.9 4.8 9.4 5.8 0-11.2 0-22.4-0.2-33.6-2.7 0.8-5.5 1.9-7.5 4zm15.2 29.6c3-1 6.2-2 8.4-4.5 4.8-5.4 5.8-13.7 2.8-20.2-1.9-4.6-6.2-7.8-11-8.9-0.2 11.2-0.2 22.4-0.2 33.6zm-14.1 16.3c-3.6 5.1-3.2 12.7 1.2 17.3 1.5 1.7 3.8 2.4 5.9 3.2 0.3-8.4-0.4-16.8-0.5-25.2-2.5 1.1-5.1 2.4-6.6 4.7zm14.1-4.7c0 8.4-0.7 16.8-0.5 25.2 2.1-0.8 4.4-1.5 5.9-3.2 4.5-4.7 4.8-12.6 0.9-17.7-1.6-2.1-4-3.3-6.3-4.3z"/>
		<path id="Layer" fill-rule="evenodd" class="s0" d="m486.4 90.8c1.4-2.9 3.6-6.3 7.2-6.3 6-0.1 12-0.1 18.1 0.1 4.1 0 6.6 4.2 6.9 8 5 42.7 9.6 85.4 14.7 128.1 25.9-43.6 51.5-87.2 77.3-130.9 1.6-2.5 3.9-5.4 7.2-5.3 5.6-0.1 11.2 0 16.7 0 4.4-0.3 8.2 3.8 8.1 8.1q0 91.4 0 182.9c0.2 3.5-2.3 6.7-5.5 7.8-3.5 1-7.3 0.6-10.9 0.7-3.4 0-6.9 0.2-10.2-0.6-3.3-1-5.7-4.4-5.5-7.9-0.1-40.4 0.1-80.8-0.1-121.2-9.2 14.7-17.7 29.8-26.6 44.6-15.6 26.6-31.4 53.1-47 79.7-1.8 3.3-5.3 5.4-9.1 5.3-5.4-0.1-11 0.7-16.2-0.7-2.9-0.8-4.2-3.9-4.5-6.6-4.9-42.1-9.5-84.2-14.6-126.3-22.5 42.8-44.6 85.6-67 128.4-1.5 2.8-4.3 5.1-7.6 5.2-6.9 0.3-13.7 0-20.6 0.1-2.6-0.1-6.1 0-7.3-2.7-1.2-1.9-0.6-4.2 0.4-6 32-61.5 64-123 96.1-184.5zm733.8 21.9c2.5-5.6 10.6-6.9 15.1-3 2.2 1.8 3.1 4.6 4.3 7.1 23.7 51.8 47.5 103.6 71.2 155.5 1.4 2.7 1.4 6.2-0.8 8.6-2.5 3.1-6.9 3.1-10.6 3.1-4.9-0.2-9.8 0.5-14.6-0.8-2.7-0.8-4.4-3.3-5.5-5.8-4.5-9.9-9.2-19.8-13.6-29.7q-37.1 0-74.2 0c-3.8 8.6-7.8 17.2-11.6 25.8-1.4 3-2.4 6.4-5.2 8.5-3.2 2.3-7.3 2-11 2-4.4-0.2-8.9 0.5-13.1-0.8-3.6-1.1-5.7-5.3-4.7-8.9 0.7-2.6 2.1-4.9 3.1-7.4 23.7-51.4 47.5-102.8 71.2-154.2zm-16 107.1c16.3 0.1 32.6 0.1 48.9 0-8.1-18-16.2-36-24.5-53.9-8.3 17.9-16.2 35.9-24.4 53.9zm163-111.4c20-3 40.7 2.5 57.5 13.6 3 1.7 4.5 5.2 4.5 8.5-0.8 4.4-4 7.7-6.2 11.4-2.1 3.4-4.8 7.4-9.2 7.4-3.4 0.4-6.3-1.9-9.1-3.5-7.2-4.1-14.8-7.7-23-9-5.2-1-10.5-0.2-15.4 1.4-6.6 2.2-11.8 8.2-12.5 15.2-0.3 6.4 3 12.5 8 16.4 9.1 7.5 20.7 10.9 31.3 15.7 12.2 5.6 24.5 12.4 33.1 23 10.5 12.9 13 31.7 6.3 46.9-4.5 10.5-13.1 18.8-23.1 23.8-12.2 6.1-26.1 8.1-39.5 6.5-16.6-1.7-32.8-8.4-45.4-19.4-2-1.7-3.7-4-3.5-6.7 0-3.5 2.4-6.3 4.1-9.2 2.5-3.6 4.4-8.3 8.8-10.1 2.8-0.7 6.1-0.6 8.4 1.3 10.4 8.1 22.5 15 35.9 15.9 6.3-0.2 13-1.6 17.9-5.9 3.9-3.2 6.4-8.2 6.1-13.3 0.1-6.6-4.3-12.3-9.3-16.2-12.5-9.6-28.2-13.3-41.7-21.3-10.9-6-21-14.8-25.6-26.7-4.7-12-4.7-26 0.9-37.7 4.4-9.6 12.3-17.5 21.7-22.2 5.9-3.1 12.4-4.9 19-5.8zm-691.5 5c1.8-2.7 5-3.6 8.1-3.6 31.3 0 62.7 0 94.1 0 4.1-0.1 8.6 2.7 8.8 7.1 0.1 4.8 0 9.6 0 14.4 0.4 4.4-3.7 8.4-8.1 8.1-24.1 0-48.3 0.1-72.4 0q0 20.8 0 41.6c20.1-0.1 40.2 0 60.3-0.1 4.1-0.2 8.1 3.1 8.5 7.3 0.3 3.3 0.1 6.6 0.1 9.9 0 2.8 0.4 5.8-1.1 8.3-1.5 2.7-4.5 4.2-7.5 4.1-20.1 0-40.2 0.1-60.3 0q0.1 22 0 44 36.2 0 72.4 0c4.3-0.2 8.4 3.7 8.1 8 0 4.6 0 9.2 0 13.8 0.1 3.4-2.7 6.6-6 7.2-3.2 0.7-6.5 0.4-9.7 0.5q-40.6 0-81.1 0c-3.4 0-6.9 0.3-10.2-0.7-3.3-1-5.7-4.3-5.4-7.8q0-76.7 0-153.3c0.1-3-0.5-6.3 1.4-8.8zm141.1-3c2.3-0.8 4.8-0.6 7.3-0.6 12.8 0 25.7 0 38.6 0 6.1 0.1 12.2-0.3 18.2 0.4 26.8 1.7 52.3 16.5 67.2 38.8 9.9 14.8 15.1 32.8 14.4 50.6-0.7 26-14 51.1-34.8 66.5-14.3 10.7-32 17.1-49.8 17.6-8.3 0.6-16.7 0.1-25 0.3q-13.7 0-27.3 0c-3 0-6 0.2-8.8-0.6-3.4-0.9-5.8-4.4-5.4-7.9 0-52.6-0.1-105.2 0-157.9-0.2-3.3 2.3-6.3 5.4-7.2zm26 29.5c0 38 0 76 0 114q15.2 0.1 30.5 0c17.6-0.2 35.3-8.7 45.3-23.5 7.1-10.2 10.4-22.9 10-35.3-0.1-14.8-6.1-29.7-16.9-40-10.6-10-25.3-15.4-39.9-15.2-9.6 0-19.3-0.1-29 0zm151.3-29.7c4.2-0.8 8.4-0.2 12.7-0.4 3.7-0.1 8.2-0.3 10.9 2.9 2.7 2.7 2.1 6.8 2.2 10.3-0.1 50.8 0 101.7 0 152.5 0 3.8-2.8 7.4-6.5 8.1-4.2 0.8-8.5 0.2-12.7 0.4-3.7 0-8.2 0.2-10.9-2.9-1.9-1.8-2.3-4.6-2.2-7.1 0.1-51.9 0-103.8 0-155.7 0-3.8 2.8-7.4 6.5-8.1zm57.5 3c1.8-2.6 5.2-3.4 8.2-3.4 31.4 0.1 62.7 0 94.1 0 4.1-0.1 8.4 2.9 8.7 7.2 0.2 4.8 0 9.5 0.1 14.3 0.2 4.3-3.7 8.4-8 8.1q-36.3 0-72.7 0c0 15.9 0.1 31.9 0 47.8 19.9 0 39.8 0 59.7 0 3 0 6.2 1.2 7.8 3.8 2.1 3.2 1.2 7.3 1.4 10.9-0.2 4.1 1 9-2.3 12.2-2.1 2.4-5.4 2.7-8.4 2.6-19.4-0.1-38.8 0-58.2-0.1q0.1 29.5 0 58.9c0.1 4.6-4 8.5-8.5 8.4-5.3 0.1-10.7 0.3-16-0.1-4.2-0.2-7.7-4.1-7.5-8.3 0-51.9 0-103.8 0-155.6 0-2.3 0.1-4.8 1.6-6.7zm394.8 3.7c0.5-4.4 4.9-7.3 9.1-7.1q50.9 0 101.7 0c3.9-0.1 8.1 2.4 8.7 6.5 0.8 4.9 0.5 10 0.3 15 0 4.1-3.3 8.1-7.5 8.1-12.1 0.1-24.2 0-36.2 0-0.1 45.1 0 90.3-0.1 135.4 0.2 3.7-2 7.6-5.7 8.6-4.4 1.1-8.9 0.4-13.4 0.6-3.9 0-8.6 0.2-11.3-3.2-2.4-2.7-1.9-6.5-1.9-9.9q0-65.7 0-131.5c-12 0.1-24.1 0-36.1 0-4.2 0.1-7.7-3.9-7.7-8.1 0-4.8-0.3-9.6 0.1-14.4z"/>
	</g>
</svg>