<svg version="1.2" baseProfile="tiny-ps" xmlns="http://www.w3.org/2000/svg" viewBox="0 0 1539 260" width="1539" height="260">
	<title>Megacable_logo-svg</title>
	<style>
		tspan { white-space:pre }
		.s0 { fill: #000000 } 
		.s1 { fill: #2864a2 } 
	</style>
	<g id="Layer">
		<g id="Layer">
			<path id="Layer" fill-rule="evenodd" class="s0" d="m707.76 143.05c5.13 0 10.27-0.64 16.04-1.28v59.66c-20.53 6.41-39.14 9.62-57.11 9.62c-9.63 0-19.89-1.28-29.52-3.85c-10.27-2.57-19.25-6.41-27.59-12.19c-8.34-5.77-14.76-12.83-19.89-22.45c-5.13-9.62-7.7-20.53-7.7-34c0-9.62 1.28-18.6 4.49-28.22c2.57-8.98 7.06-17.96 14.12-25.66c6.42-7.7 15.4-14.11 26.95-18.6c10.91-5.13 25.03-7.7 41.07-7.7c19.89 0 36.57 4.49 51.98 12.83c-1.28 3.21-2.57 7.06-3.85 11.55c-1.28 4.49-1.92 7.7-1.92 10.26h-3.21c-5.77-7.7-11.55-13.47-19.25-16.68c-7.7-3.85-14.76-5.13-22.46-5.13c-7.7 0-14.76 1.28-21.17 4.49c-6.42 3.21-12.19 7.7-16.68 13.47c-5.13 5.77-8.34 12.83-10.91 21.17c-2.57 8.98-3.85 17.96-4.49 28.87c0 12.19 1.92 22.45 6.42 31.43c3.85 9.62 9.63 16.68 17.33 21.17c7.06 5.13 15.4 7.7 24.38 7.7c8.98 0 17.97-2.57 26.31-6.41v-50.03c5.77 1.28 10.91 1.28 16.68 0z" />
			<path id="Layer" fill-rule="evenodd" class="s0" d="m482.53 62.86h82.13c-0.64 1.92-1.28 5.13-1.92 9.62c0 1.92 0.64 5.13 1.28 8.98c-14.12-1.92-28.23-2.57-41.71-2.57h-7.06v45.54h27.59c8.34 0 15.4-0.64 20.53-1.92c0 1.92-0.64 3.85-0.64 5.77c-0.64 1.92-0.64 3.21-0.64 4.49c0.64 2.57 0.64 5.77 1.28 8.34c-6.42-1.28-15.4-1.92-25.67-1.92h-22.46v53.88c16.68 0 33.37-1.28 49.41-3.21c-0.64 3.85-1.28 7.7-1.93 10.26c0.64 2.57 0.64 5.13 1.28 8.34h-81.49v-145.61v0z" />
			<path id="Layer" fill-rule="evenodd" class="s0" d="m816.2 61.58l59.67 148.18c-1.93-0.64-5.78-0.64-9.63-0.64c-3.85 0-7.06-0.64-9.63-0.64c-1.93 0.64-4.49 0.64-8.34 0.64c-3.85 0.64-7.06 0.64-8.98 0.64c-4.49-14.75-8.98-29.51-14.76-44.26h-49.41c-0.64 2.57-2.57 7.06-5.13 14.75c-3.21 7.06-5.13 12.83-6.42 17.32c-1.28 3.85-2.57 7.7-3.85 12.19c-1.28-0.64-2.57-0.64-5.13-0.64c-1.93 0-3.85-0.64-5.13-0.64c-1.28 0.64-2.57 0.64-4.49 0.64c-1.93 0.64-3.21 0.64-4.49 0.64l60.32-147.54l0.64-1.28c1.28 0.64 2.57 0.64 3.85 0.64c1.28 0 2.57 0 3.85 0c4.49-0.64 7.7-0.64 7.06 0zm4.49 89.8l-19.25-49.39l-0.64 1.28l-19.25 48.11h39.14z" />
			<path id="Layer" fill-rule="evenodd" class="s0" d="m451.73 171.27c1.93 12.19 3.85 25.02 5.78 39.13c-5.78-0.64-11.55-1.28-17.33-1.28c-5.78 0-11.55 0.64-17.32 1.28c0-7.7-0.64-16.04-1.28-24.38c-0.64-8.34-1.28-15.4-1.93-21.17c-0.64-5.77-1.28-14.75-2.57-25.66c-1.28-11.55-2.57-20.53-3.21-28.87c-16.68 34.64-32.72 67.35-46.84 98.14h-4.49h-3.21c-2.57-5.77-6.42-14.11-12.19-25.66c-5.78-11.55-9.63-20.53-12.83-26.3c-2.57-6.41-6.42-14.11-10.91-23.09c-4.49-8.98-7.7-16.04-10.27-21.17c-1.28 9.62-2.57 20.53-3.85 34c-1.28 12.83-2.57 25.02-3.21 35.92c-0.64 10.9-1.28 19.89-1.28 27.58c-2.57 0-3.85-0.64-5.13-0.64c-1.28 0-3.21 0-5.13-0.64c-5.13 0.64-8.34 1.28-10.27 1.28c3.85-21.81 7.7-45.54 11.55-71.2c3.21-25.66 7.06-51.32 10.27-75.69c1.28 0 2.57 0.64 4.49 0.64c1.93 0.64 3.21 0.64 3.85 0.64c4.49-0.64 7.7-1.28 8.98-1.28c10.91 23.73 26.95 57.09 48.77 100.71c4.49-8.98 8.98-17.96 13.48-26.3c4.49-8.98 8.34-16.68 11.55-23.09c3.21-6.41 7.7-14.75 12.19-24.38c4.49-9.62 8.98-18.6 12.83-26.94c1.28 0.64 4.49 0.64 8.98 1.28c2.57-0.64 5.78-0.64 8.98-1.28c1.93 16.04 3.21 28.87 4.49 39.13c1.28 9.62 2.57 21.17 3.85 32.71c1.28 11.55 2.57 23.73 3.21 36.56z" />
			<path id="Layer" fill-rule="evenodd" class="s0" d="m1097.25 60.94l58.39 148.82c-1.93-0.64-5.78-0.64-9.63-0.64c-3.85 0-7.06-0.64-9.63-0.64c-1.28 0.64-4.49 0.64-8.34 0.64c-3.85 0.64-7.06 0.64-8.98 0.64c-4.49-14.75-8.98-29.51-14.76-44.26h-49.41c-0.64 2.57-2.57 7.06-5.13 14.75c-3.21 7.06-5.13 12.83-6.42 17.32c-1.28 3.85-2.57 7.7-3.85 12.19c-0.64-0.64-2.57-0.64-5.13-0.64c-1.92 0-3.85-0.64-5.13-0.64c-1.28 0.64-2.57 0.64-4.49 0.64c-1.92 0.64-3.21 0.64-4.49 0.64l60.32-147.54l0.64-1.28c1.28 0.64 2.57 0.64 3.85 0.64c1.28 0 2.57 0 3.85 0c4.49-0.64 7.7-0.64 8.34-0.64zm3.21 90.45l-19.25-49.39l-0.64 1.28l-19.25 48.11h39.14z" />
			<path id="Layer" fill-rule="evenodd" class="s0" d="m1388.57 189.87c-0.64 2.57-1.28 5.77-1.93 9.62c0.64 2.57 0.64 5.77 1.28 8.98h-80.85v-145.61c5.13 0.64 10.27 0.64 15.4 1.28c0.64 0 2.57 0 6.42-0.64c3.85 0 7.06-0.64 9.63-0.64v130.22c14.12 0 30.16-1.28 50.05-3.21z" />
			<path id="Layer" fill-rule="evenodd" class="s0" d="m1272.42 146.9c3.85 4.49 5.78 11.55 5.78 19.24c0 5.77-0.64 11.55-3.21 16.68c-2.57 5.13-5.78 9.62-10.27 13.47c-5.13 3.85-10.27 6.41-17.33 8.98c-5.77 1.92-12.83 3.21-20.53 3.21c-0.64 0-48.13 0-49.41 0v-145.61h58.39c8.34 0 14.76 1.28 21.18 3.85c5.77 2.57 10.91 7.06 14.12 11.55c3.85 5.13 5.13 10.9 5.13 17.32c-0.64 18.6-12.19 29.51-34.65 34v1.92c6.42 0.64 12.83 1.92 18.61 4.49c5.13 1.92 10.27 5.77 12.19 10.9zm-62.24-71.84v50.68c5.78 0 10.27 0 12.19-0.64c1.93 0 3.85-0.64 5.78-1.28c2.57-0.64 4.49-1.92 6.42-3.21c3.85-2.57 6.42-6.41 7.7-10.26c1.93-3.85 2.57-7.7 2.57-12.83c0-12.83-5.13-19.89-16.04-22.45c-2.57 0-5.13-0.64-8.34-0.64c-2.57 0-5.78 0-9.63 0.64h-0.64zm35.93 93.65c0-15.4-5.77-25.02-17.97-28.22c-3.21-0.64-7.06-1.28-11.55-1.28h-6.42v57.09h12.19c1.93 0 3.85-0.64 5.78-1.28c1.93-0.64 3.21-1.28 5.13-2.57c3.85-2.57 6.42-5.13 8.98-9.62c2.57-4.49 3.85-9.62 3.85-14.11z" />
			<path id="Layer" fill-rule="evenodd" class="s0" d="m1494.44 189.87c-1.28 3.85-1.28 7.7-1.93 10.26c0.64 2.57 0.64 5.13 1.28 8.34h-80.85v-145.61h81.49c-0.64 1.92-1.28 5.13-1.93 9.62c0.64 1.92 0.64 5.13 1.28 8.98c-14.12-1.92-28.23-2.57-41.71-2.57h-7.06v45.54h27.59c8.34 0 15.4-0.64 20.53-1.92c0 1.92 0 3.85-0.64 5.77c0 1.92-0.64 3.21-0.64 4.49c0.64 2.57 0.64 5.77 1.28 8.34c-6.42-1.28-15.4-1.92-25.67-1.92h-22.46v53.88c16.68 0 33.37-1.28 49.41-3.21z" />
			<path id="Layer" fill-rule="evenodd" class="s0" d="m920.79 102.63c-4.49 10.26-6.42 21.81-6.42 35.28c0 12.19 1.93 22.45 5.77 32.07c3.85 8.98 9.63 16.68 17.32 21.81c7.7 5.13 17.33 7.7 28.23 7.7c6.42 0 12.83-1.28 19.89-3.85c7.7-2.57 13.48-6.41 17.97-11.55l3.21 1.28l-4.49 18.6c-10.91 5.77-25.02 8.98-42.35 8.98c-12.19 0-23.1-1.92-33.37-5.77c-9.63-3.85-17.97-8.98-25.02-15.4c-7.06-7.06-12.19-14.75-16.04-23.09c-3.21-8.34-5.13-17.32-5.13-26.94c0-21.81 4.49-38.49 14.12-50.68c8.98-12.19 20.53-20.53 32.73-25.02c12.19-4.49 24.38-6.41 35.93-6.41c10.91 0 19.89 0.64 28.23 3.21c7.7 1.92 14.12 4.49 17.32 7.06c-1.28 5.77-3.21 12.83-5.13 21.81h-2.57c-4.49-6.41-9.63-11.55-16.04-14.75c-6.42-3.85-12.83-5.13-19.25-5.13c-9.63 0-17.97 2.57-25.67 7.7c-7.7 5.13-13.48 12.83-19.25 23.09z" />
		</g>
		<path id="Layer" fill-rule="evenodd" class="s0" d="m1538.08 201.42c0 2.57-0.64 5.77-1.93 8.34c-1.28 3.21-3.85 5.13-6.42 6.41c-2.57 1.92-5.77 2.57-8.34 2.57c-3.21 0-5.78-1.28-8.34-2.57c-2.57-1.92-5.13-3.85-6.42-6.41c-1.28-2.57-1.92-5.77-1.92-8.34c0-2.57 1.28-5.77 2.57-8.34c1.93-3.21 3.85-5.13 6.42-6.41c2.57-1.92 5.78-2.57 8.34-2.57c2.57 0 5.78 1.28 8.34 2.57c2.57 1.92 5.13 3.85 6.42 6.41c1.28 2.57 2.57 5.13 1.28 8.34zm-1.93 0c0-2.57-0.64-4.49-1.92-7.06c-1.28-1.92-3.21-3.85-5.13-5.13c-2.57-1.28-4.49-1.92-7.06-1.92c-2.57 0-5.13 0.64-7.06 1.92c-1.93 1.28-3.85 3.21-5.13 5.13c-1.28 2.57-1.93 4.49-1.93 7.06c0 2.57 0.64 4.49 1.93 7.06c1.28 1.92 3.21 3.85 5.13 5.13c2.57 1.28 4.49 1.92 7.06 1.92c2.57 0 4.49-0.64 7.06-1.92c2.57-1.28 3.85-3.21 5.13-5.13c1.28-2.57 1.92-4.49 1.92-7.06zm-7.7 5.13l1.92 3.85h-3.21l-1.93-2.57c-1.28-1.92-1.92-3.21-2.57-3.85c-0.64-0.64-0.64-0.64-0.64-0.64c-0.64-0.64-1.28-0.64-2.57-0.64h-1.92v7.7h-2.57v-17.96h7.7c1.28 0 2.57 0 3.21 0.64c1.28 0.64 1.93 1.28 2.57 1.92c0 0.64 0.64 1.28 0.64 2.57c0 1.28-0.64 1.92-1.28 3.21c-1.28 0.64-2.57 1.28-3.85 1.28c0.64 0.64 0.64 0.64 1.28 1.28c0.64 0.64 1.28 1.92 3.21 3.21zm-5.78-7.06c1.28 0 1.93 0 2.57-0.64c0-0.64 0.64-1.28 0.64-1.92c0-0.64 0-0.64-0.64-1.28c-0.64 0-0.64-0.64-1.28-0.64c-0.64-0.64-1.28-0.64-1.93-0.64h-4.49v5.77h3.85c0.64 0 0.64 0 1.28-0.64z" />
	</g>
	<g id="Layer">
		<g id="Layer">
			<path id="Layer" class="s1" d="m258.59 129.58c0 71.84-58.39 129.58-129.62 129.58c-23.74 0-46.84-7.06-66.09-18.6c33.37-41.7 79.57-71.2 129.62-82.11h0.64v-0.64c-0.64-15.4-9.63-29.51-23.1-36.56v0v0c-26.31 9.62-50.69 24.38-71.23 43.62c-20.53 18.6-37.22 41.05-49.41 66.71c-3.21-2.57-6.42-5.13-8.98-7.7v0v0c13.48-33.36 34.65-63.5 60.96-87.24c27.59-24.38 60.32-42.34 96.25-51.32h0.64v-0.64c-5.78-17.96-18.61-32.07-35.93-39.13v0v0c-34.65 13.47-65.45 35.92-89.19 64.79c-23.74 28.22-39.14 62.86-45.56 98.79c-3.21-3.85-6.42-8.34-8.98-12.83v0v0v0c7.7-44.9 28.23-85.96 59.68-119.31v0v-0.64c-4.49-10.26-13.47-17.32-24.38-18.6v0v0c-28.88 34-44.28 78.26-42.99 123.16c-7.06-16.04-10.91-33.36-10.91-51.32c0-71.84 57.75-129.58 129.62-129.58c71.22 0 128.97 57.73 128.97 129.58z" />
		</g>
	</g>
</svg>