<svg version="1.2" xmlns="http://www.w3.org/2000/svg" viewBox="0 0 1588 1005" width="1588" height="1005">
	<title>Magic-Empire-Global-Giraffe-Capital-svg</title>
	<style>
		.s0 { fill: #ffffff } 
	</style>
	<g id="#194f74ff">
		<path id="Layer" fill-rule="evenodd" class="s0" d="m654.9 0h7.7c2.9 3.2 6.2 6.4 7.4 10.7 2 6.5 1.5 13.3 2.8 19.8 0.3 1.8 1.7 3.1 2.7 4.4 1.7-6.6 1.4-13.5 2.4-20.2 0.8-5.5 3.8-10.3 7-14.7h10.6c3.4 5.6 5.7 11.8 6.8 18.2 2.9 12.7 1.5 26.3 6.9 38.4 4.7 10.2 9.6 20.3 13.6 30.8 2.6 6.7 4.6 13.7 8.7 19.6 5.2 7.5 12.7 12.9 18.5 19.8 4.5 5.3 4.5 12.7 7 18.9 2.8 6.9 9.2 12 10.3 19.6 0.7 4.9 1.4 11-2.8 14.6-5.2 5-13.2 3.3-19.3 1.1-11.9-4.7-23.1-11.1-33.5-18.5-3.7-2.4-7.5-5.9-12.2-5.4-8.3 0.9-16.4 4.6-24.9 3.3-6.3-0.6-11.9-3.7-17.9-5.5-4.2-1.7-6.7 3.2-8.9 5.9-30.6 43.4-58.3 88.8-84.1 135.2-12.2 23.5-25.5 46.5-36.9 70.5-10.1 21.1-21 41.8-30.3 63.3-21.1 44.9-39.8 90.9-57.8 137.2-1.6 4.3-5 8.9-3.2 13.7 2.2 7.1 4.5 14.2 6 21.5 12.7 46.5 22.4 93.8 31.4 141.2 2.6 10.6 3.7 21.4 5.8 32.2 4.7 26.6 9.4 53.3 12.5 80.2 0.3 8.4 3.2 16.3 3.6 24.6 0.3 7.9 2.4 15.5 2.8 23.4 0.5 9.6 3.4 18.9 3.5 28.5 0 8.2 2.3 16.2 2.7 24.4 0.8 9.9 0.9 19.9 2 29.8 0.7 6.2 0.9 12.5-1 18.5h-20.5c-2.5-6.2-3.6-12.9-4-19.5-0.4-8.8-2.4-17.4-3.4-26.2-1-9.1-3.4-17.9-4.8-26.9-4.5-28.4-12.1-56.2-21.7-83.3-7.9-20.9-16.8-41.7-30-59.9-9.4-14.1-22.1-25.7-35.2-36.3-2.1-1.9-4.6-3.3-7.2-4.3-6 10.8-7.5 23.2-11.4 34.8-13.6 49.6-27.1 99.4-37.8 149.7-4.1 19.7-9.3 39.1-12.5 58.9-0.8 4.7-2.7 9.1-5.4 13h-20.3c-3.8-10.7 0.4-21.9 1.8-32.6 1.2-11.4 3.4-22.8 4.5-34.2 2.4-11 2.3-22.3 4.5-33.3 2-16.8 3.8-33.6 6.7-50.2 1.6-10.2 0.3-20.5 2-30.7 1.8-12.3 2.7-24.8 2.7-37.3 0.8-10.3 1.8-20.7 0.5-31.1-0.8-8.6-0.6-17.4-2.5-25.9-1.7-7.3-2.6-14.8-5.2-21.9-1-3.5-4.4-5.5-7.6-6.8-34-13.3-69.5-22.8-105.4-29.3-4.4-1-8.8-1.7-13.2-1.7-4.3 4.8-6.9 10.6-9.8 16.2-7.2 13.7-16.4 26.3-24.8 39.3-10.6 17.1-22.3 33.4-31.4 51.3-4.4 8.7-9.5 17-13.4 25.9-2.7 5.8-0.7 12.1 0.3 18 3.8 18.4 6.4 36.9 8.9 55.5 1.8 9 0.4 18.4 2.5 27.4 1.3 5.8 2.2 11.6 2.1 17.5 0 21 0.4 42 0.1 63-0.1 3.3 0.3 6.5 1.1 9.7 2.5 0.4 5.1 0.3 7.5-0.3-1.1-20-0.8-40-0.9-60 0-23.5-0.1-46.9 0.2-70.3 0.1-8.3 2.5-16.4 2.4-24.7 0.8-20.9 4-41.6 8.4-62.1 1.7-9.5 4.5-18.7 8-27.7 1.9-4.9 3.4-10.2 7.1-14.1 2.6-2.7 8.4-1.3 8 2.9-1 5.3-4.1 9.9-6.1 14.9-6.3 15.6-9.1 32.3-11.9 48.8-1.8 8.1-1.4 16.5-2.6 24.7-1.9 10.7-1.8 21.6-2.6 32.3-0.3 42.4-0.2 84.8 0 127.1 0.2 6.6 1.4 13.5-1.5 19.7h-24.3c-0.8-4.1-1.3-8.2-1.3-12.3 0.2-19.4 0.1-38.7 0.1-58 0.2-10.8-3.1-21.3-3.4-32.1-0.3-10.4-2.5-20.7-3.4-31.1-2.3-14.5-3.7-29.1-7.1-43.3-0.6-0.1-2-0.4-2.6-0.5-1.1 1.7-2.3 3.4-3 5.3-9.3 26.2-20.2 52-29 78.4-10 28.2-18.8 56.8-26.8 85.6-1 3.1-3.1 5.8-5.5 8h-20.1c0.3-2.4-3-3.7-4.6-2v-10.3q1.3 1.1 2.5 2.3c11.5-42 22.9-84.1 30.1-127 0-8.7 0.7-17.4 2.3-25.9 1.6-18.6 8.8-36 15.2-53.3 4-10.6 8.6-21 12.7-31.5 3.1-8.4 6.3-17.6 3.9-26.5-5.9-19.2-13.3-38-16.1-58-2.4-11.4-4.5-23.5-1.1-35 2.2-8.6 10.7-15.1 19.6-14.9 3.9-0.3 7.7 1.4 9.9 4.7 7.2 9.4 6.3 21.6 7.1 32.8 1.2 8.4-0.7 16.8-0.6 25.2 0.3 15.9-3.9 31.4-5.9 47.1-0.6 5.9 1.7 11.4 3.4 16.9 3.8 12 6.5 24.3 9.4 36.6 1.9 0 4.3 0.6 5.3-1.4 3.5-5.1 5.3-11.1 8.6-16.3 6-9.6 11-19.9 17.5-29.3 12-19.5 25.9-37.8 36.9-58 2-4.1 6.2-8.2 4.9-13-2.7-2.4-6.7-2.6-10.1-3.7-23.8-5.5-45.7-18.5-61.9-36.7-8.7-9.9-14.7-21.9-18.6-34.3-1.7-7.9-3.3-15.8-3.8-23.8 1.5-16.4 6.1-33.3 17.3-45.9 8.7-9.1 20.1-15.7 32.5-18 18.9-3.7 39.1 1.4 54.4 13 14.7 11.5 23.7 29.8 24.5 48.4 0.4 15.8 0.8 31.9-2.8 47.5-2.7 12-5.4 24.2-10.4 35.5-1.4 3.1-2.2 6.4-2.5 9.7 10.9 2.7 22 4.5 33 6.7 21.7 4.9 43.3 10 64.3 17.5 4.6 1.8 9.3 3.8 14.2 4.8-0.2-2.5-0.5-5.1-1.9-7.3-9.8-16.4-22.8-30.5-35-45.2-12.8-16.5-23.9-34.2-33.7-52.6-12.9-25-21.8-52.4-23.3-80.7 0-24.5 7.8-49.8 24.9-67.9 10.6-11.3 23-21.8 38-26.4 9.3-3 19.2-2.5 28.9-2.5 25.2-0.2 48.5 12.3 67.4 28 8.5 6.4 14.4 15.2 21.4 23.1 12.5 15.2 21.1 33 29.4 50.7 7.4 15.5 11.4 32.4 17.9 48.2 2.9-1.6 4.5-4.5 5.5-7.5 10.7-30 24.2-58.9 36.3-88.4 12.2-27.7 25.2-55.1 38.2-82.5 7.8-16.3 16.6-32.1 24.5-48.3 13.7-25.6 27.3-51.3 42.2-76.2 10.8-17.9 21.1-36.2 32.8-53.5 11.8-18.1 23.8-36.1 36.5-53.5 1.9-2.4 3.8-5 6.7-6.3 4.9 1.2 8.5 4.9 12.8 7.3 5.4 3.4 12 2.9 18 2.6 6-0.3 11.3-3.3 17-4.7 3.5-1 6.5 1.8 9.3 3.5 7.8 5.8 16.5 10.6 24.8 15.8 5.8 3.4 11.9 6.7 18.5 8.3 2 0.8 3.7-0.8 5.4-1.8-0.3-8.8-8.2-14.2-10.5-22.3-1.8-5.4-2.5-11.4-6.3-15.9-5.6-6.7-12.7-12.1-17.8-19.2-2.8-3.8-4.4-8.2-6.1-12.6-5.1-14.1-11.6-27.6-18-41.1-3.3-7-3.3-14.8-4.7-22.3-1.4-7.9-1.8-16-2.6-24-2.2 0.5-5.1 0.4-5.8 3.1-2.1 6.2-0.6 12.9-1.2 19.3-0.4 6.6-1.5 14-6.6 18.7-3.2 2.7-8.1 1.2-9.9-2.2-7.4-11-4.7-24.8-8.6-36.8-0.7-0.2-1.9-0.6-2.5-0.9-2.1 8.8-1.8 17.8-2.3 26.8-0.5 8.9-8.8 14.2-15.5 18.7-7.5 5-17.1-2.4-24.5 2.7 2.3 6.2 8.9 10.3 9.6 17-1.4 7.5-7.2 13.2-10.8 19.7-6.7 11.3-14.5 21.8-21.3 33-8.5 13.2-17.3 26.2-26.3 39-8.5 13.2-18.1 25.6-27.2 38.3-19 26.3-39.2 51.8-61 75.9-6.6 6.9-12.4 14.6-19.2 21.4-24.6 25.1-49.3 50.2-74.6 74.6-6 5.6-11.1 12.2-18.1 16.5-3.3 2.5-7.5-1.5-6.9-5 1.2-2.9 3.5-5.2 5.7-7.4 6.5-6.2 12.9-12.6 19.5-18.7 21.6-20.2 42.4-41.4 62.6-63.1 13-12.5 24.5-26.5 36.5-40 36.1-42.7 68.1-88.6 99.2-135 9.2-13.2 16.9-27.3 26.2-40.5 1.7-2.6 3.7-5.3 4.3-8.5-3.7-9.7-14-15.6-16.2-26 1.7-1.3 3.5-2.6 5.8-2.7 8.7-1.1 17.5 0 26.2 0.5 4.3 0.4 7.7-2.6 10.6-5.3 2.4-2.4 5.3-5 5.5-8.7 0.6-9.1 0.8-18.2 2.8-27.1 0.9-4.4 3.8-7.9 6.7-11zm-384.7 417.1c-15.2 5.3-27.7 16.2-38.4 27.9-7.3 7.9-12.3 17.6-15.4 27.8-5.2 14.9-5.9 31.3-2.4 46.7 1.4 8.6 2.6 17.3 5.7 25.5 11.7 32.5 28.8 63 50.8 89.6 13.1 15.9 27.7 31.1 36.3 50 2.2 4.2 3.4 9.3 7.6 12 6.7 4.3 13.9 7.7 20.9 11.3 10.8 5.2 21 11.6 30.8 18.5 1.5 1 3.1 1.6 4.8 2.2 1.9-1.9 3.2-4.4 3.9-7 6.3-22.3 13.9-44.3 21.5-66.1 8.2-25.5 17.4-50.7 26.8-75.7 1.5-4.3 0-8.7-1.2-12.9-7.2-22.8-14.1-46-25.1-67.3-13.5-26.4-31.3-51.6-56.6-67.9-8.3-5-16.8-10.2-26.4-12.6-7.1-1.7-14.1-4.5-21.5-4.3-7.4 0.2-15.1-0.8-22.1 2.3zm-143.8 96.9c-20.2 3.8-37.3 19.9-42.6 39.7-2.7 8.2-2.2 17-1.8 25.6 2.5 17.8 11.2 34.6 24.3 46.8 16 17.6 39.3 25.7 61.6 31.7 3.2 0.9 5.8-1.8 6.9-4.4 7.8-18.5 12.6-38.1 15.7-57.8 0.2-9.5 0.2-18.9 0-28.4-1.7-11.7-5.7-23.6-13.5-32.7-5.2-6-11.4-11.3-18.7-14.6-10-4.1-20.8-8.3-31.9-5.9zm299 87.4c-1.8 8-5.4 15.4-7.9 23.3-8 21.2-14.7 42.8-21.9 64.3-4.8 13.7-8.9 27.6-13.2 41.3-0.5 2.1-1.4 4.3-0.8 6.5 2.8 3.4 6.8 5.6 10.2 8.3 7.8 5.7 14.3 12.8 21.2 19.6 5.6 5.5 10.9 11.3 15.4 17.8 14.3 21.3 25.4 44.6 33.5 68.9 2.9 10.1 6.6 20 9.3 30.1 5.6 21.2 10.1 42.7 13.8 64.3 0.4 5.3 1.2 10.6 2.4 15.8 2.5 10.5 0 22.3 5.8 31.9 2.1-0.3 3.1-2.6 3-4.5 0.4-7.1-0.2-14.2-1.5-21.1-2-10.1-1-20.5-2.9-30.5q-1.5-7.8-1.7-15.7c-0.4-9.8-3.1-19.2-3.5-29-0.3-7.1-2.4-13.9-3-21-0.9-17-5.1-33.6-7.1-50.4-7-42.1-14-84.2-22.9-125.9-6.2-26.6-11.9-53.4-18.7-79.8-1.7-5.8-1.7-12.1-4.8-17.4-1.8 0.6-4.4 0.8-4.7 3.2zm-361.7 33.2c-5.3 3.7-5 10.8-5 16.5 0.3 9.7-0.1 19.7 3.4 28.9 2.9 9.1 3.6 19.1 8.5 27.5 0.6-0.1 1.9-0.2 2.5-0.3 2.4-13.2 4.6-26.6 3.3-40.1 0.3-10.4 0.8-21.3-3.6-31-1.7-3.3-6.4-4-9.1-1.5zm254.7 77.1c-0.6 1.6-0.9 3.3-0.3 5 1.3 4.8 1.9 9.7 2.6 14.6 4.3 17.3 2.3 35.3 2.7 53 0.4 9.5-1.2 18.9-2.8 28.2-1.4 9.6 0.2 19.3-1.9 28.8-2 9.2-0.8 18.8-3 28-1.1 4.4-2.1 8.9-1.9 13.6 0.3 8.4-3 16.3-3 24.7-0.1 7.9-3.1 15.4-3.2 23.4-0.2 8.6-2.8 17-3.2 25.6-0.9 12.4-4.7 24.4-4.2 36.8q2.5 0.3 5 0.2c2.1-5.1 3.1-10.5 3.9-15.9 1.4-10 4.1-19.8 5.8-29.7 1.3-8.2 4.1-16 5.7-24.1 6.7-28.9 13.8-57.7 21-86.5 4.1-14.1 7.2-28.4 11.7-42.3 4.1-17.2 9.9-33.8 14.7-50.8 1.5-3.9-2.7-6.3-5.3-8.2-9.6-6.1-19-12.3-28.8-18-4.9-2.7-9.8-5.9-15.5-6.4zm-248.4 54.7c-5.8 14.5-11.9 28.8-17.3 43.4-2.6 8.1-4.9 16.3-7.2 24.4-3.1 10.3-0.9 21-2.6 31.5-5.1 36.3-14.8 71.8-24.2 107.2-1.5 6.2-4.4 12-4.7 18.4-0.3 2.5 2.7 2.7 4.3 3.7 3.7-3.8 4.6-9.2 5.9-14.1 16.5-55.1 35.2-109.6 57.9-162.6 2.2-5.3 5.4-10.8 4-16.8-3-13.6-5.8-27.2-10.2-40.5-3.3-0.4-4.9 2.8-5.9 5.4z"/>
		<path id="Layer" fill-rule="evenodd" class="s0" d="m650.3 536.8c5.6-5.7 14.2-5.8 21.7-5.8 33.7-0.1 67.5-0.1 101.2-0.1 6.6 0.1 13.2-0.3 19.8 0.4 1.8 4.4 2.2 9.2 1.5 13.9-12.9-0.6-25.7-2.5-38.6-2-24.7 0-49.4 0-74.1-0.1-3.7 0-9.2 0.8-9.8 5.4-1.3 6.1-0.5 12.5-0.8 18.7-1.2 17.7-0.5 35.4-0.7 53.1 0.2 15.6-0.5 31.2 0.6 46.8 0.4 6.1-0.1 12.4 1.2 18.4 0.8 3.8 4.3 7.2 8.3 7 26 0 51.9-0.1 77.8 0 5 0 10.3-1.6 13.6-5.4 0.6-2.5 0.5-5.1 0.6-7.6-0.2-15.6-0.1-31.3-0.1-46.9-0.1-5.8 0.4-11.7-0.4-17.5-24.7-0.8-49.5 0-74.2-0.4-4.2-0.4-7.8 1.7-11.4 3.5-0.5-5.6-0.6-11.1 0.1-16.7 25.5-0.7 51.1-0.1 76.7-0.3 12.3 0.3 24.6-0.6 36.9 0.4 2.6 2.6 0.4 6.8 0.8 10-0.5 30.9 0.3 61.9-0.4 92.8-6.6 0.4-13.3 0.8-19.9 0-2.8-1.5-4.7-4.2-7.1-6.2-1.3 2.1-2.5 4.3-3.9 6.2-6.5 1.7-13.3 0.3-20 0.8-13.9 1.1-27.9-0.4-41.9-0.1-14-0.1-28 0.1-42 0-7.8 0.1-15.6-4-19.8-10.6-3.6-6.9-2.7-14.9-2.8-22.4-0.1-39.1-0.1-78.2 0-117.2 0-6.6 1.8-13.7 7.1-18.1zm568.3 3.5c4.1-7.2 13-9.2 20.7-9.3 20.5-0.2 41.1 0 61.7-0.2 2.3 0 4.5 0.3 6.8 0.8 0.3 4.7 0.4 9.4-0.1 14.1-15-2-30-1-45-1.2-5.3 0-10.7-0.3-16 0.2-2.6 0.3-5.7 0.9-6.9 3.5-2.8 5.5-2.3 11.9-2.4 17.8 0.2 3.1-0.3 6.4 1.3 9.2 0.9 1.5 2.9 1.2 4.5 1.3 18.4-0.1 36.8-0.1 55.2 0 6.8-0.1 4.4 9 4.2 13.4-20.7 0.8-41.4-0.2-62.1 0.4-2.8-0.1-3.1 3.2-3 5.3q0 30.8 0 61.7c0.3 11.5-0.8 23.2 1.1 34.7 0.7 4.3 1.4 8.6 1.6 13-4.5 2.1-9.7 0.7-14.5 1.1-4.4-0.4-9.2 1-13.3-1.1 0.5-7.7 1.8-15.4 1.5-23.1-0.2-8.6 0.2-17.3 1-25.9 0-19.7 0.2-39.5 0.2-59.2-0.2-2.3-0.1-6-3.1-6.4-5.9-0.7-11.9 0.1-17.8-0.4-1.4-4-1.1-8.2 0.1-12.2 5.5-0.5 11 0.2 16.4-0.7 2.9-0.5 3.8-3.7 4.2-6.2 1.1-10.2-2.1-21.4 3.7-30.6zm118.2 4.9c3.1-9.1 12.9-14.1 22-14.1 16.9-0.3 33.8-0.1 50.6-0.2 6.1 0.1 12.3-0.5 18.4 0.5 0.7 4.4 0.9 8.8 0.7 13.3-3 1.1-6.2 0.6-9.2 0.3-15.2-1.7-30.4 0.2-45.6-0.6-4.1 0-8.8-0.9-12.2 2-3.7 2.9-2.8 8.1-3.1 12.2 0.2 6-1 12.2 1 17.9 9.2 1.5 18.6 0.4 27.8 0.9 9.7-0.7 19.4 0 29-0.9 2 0.1 4.6-0.5 5.9 1.5 1.3 3.8 0.6 8 0.3 12-20 0.5-39.9-0.1-59.8 0.2-2.6-0.4-4.6 1.6-4.2 4.1-0.1 31.7-0.1 63.4 0.1 95 0.1 5 1.5 9.8 2.4 14.7-3.1 2.5-7.2 1.8-10.9 2-6-0.1-12.1 0.8-17.9-0.9 3.2-14.1 2.3-28.6 2.5-42.9q0-27.8 0.1-55.5c0-5.6 0.4-11.2-0.8-16.7-6.1-0.3-12.3 0.2-18.5-0.3-0.5-4.1-0.8-8.4 0.4-12.4 5.9-0.8 12 1 17.8-0.8 2.9-10.2-1.3-21.4 3.2-31.3zm-492.1-1.4c7.2-0.9 14.8-1.3 21.9 0.1 1 5.7 0.9 11.4 0 17-6.8 1-13.8 1-20.6 0.3-0.4-0.3-1.1-1.1-1.5-1.5-0.8-5.3-0.5-10.6 0.2-15.9zm61.4 34.6c0.8-2 3.3-1.9 5.1-2 5.1-0.1 10.3-0.3 15.4 0.5 3 0.3 3.5 3.9 5 6 3.8-1.9 7-5.8 11.6-5.3 11.6 0 23.1-0.1 34.6 0 6.5 0 12.8-1.8 19.2-1 1.6 0.1 2.6 1.8 2.5 3.2 0.1 5.1-1 10.1-1.7 15.1-3.8 2.1-8.4 1-12.6 0.7-14.5-1-29.1-3.2-43.5-0.9-3.5 0.5-7.4 2.2-8.3 6-0.9 4.4-0.4 8.9-0.5 13.4 0.1 24.7 0 49.3 0 74 0 5.4 1.4 10.6 2.5 15.8-1.4 1.7-3.4 2.4-5.6 2.2-7.2-0.2-14.5 0.4-21.6-0.3-2-0.3-1.2-2.5-1.2-3.8 0.5-4.6 1.3-9.2 1.2-13.9-0.1-30.4 0.1-60.9-0.2-91.3 0.1-6.2-1-12.3-1.9-18.4zm120.7-1.6c11.6-1.6 23.2 1.1 34.9 0.7 25.5-0.2 51 0.3 76.5 0 9.4-0.9 19 5.4 22.1 14.4 1.7 4.3 2 8.9 2 13.5 0.1 22.6-0.1 45.3 0 67.9 1 10.6 1.1 21.2 2.6 31.7-4.9 2.1-10.5 0.8-15.7 1.1-3.8 0.4-6.8-2.1-10-3.8-7.7 5-17.1 3.1-25.7 3.5-23.6-0.2-47.3 0.6-70.9-1.1-8.8-1.1-17.6-7.2-19.7-16.2-2.7-12.7-2.7-25.8-2.2-38.7 0.7-8.2 1.3-17.4 7.4-23.7 4.9-4.7 12-6.6 18.7-6.6 25.6 0.1 51.1 0 76.6 0 4.6-0.1 10.1-0.7 13.2-4.6 3-6.3 2.6-13.9 0.3-20.4-1.4-3.9-6.3-4.2-9.8-4.3-28-0.1-55.9 0-83.9 0-6.6-0.2-13 1.6-19.5 2.6-2.3-5.5 0.2-11.4 3.1-16zm17 65.6c0 13.6-0.1 27.2 0 40.8-0.1 3.4 1.8 6.4 3.8 9 15.4 0.7 30.8 0.1 46.2 0.3 13.7-0.2 27.5 0.4 41.3-0.3 4.6-3.6 5.3-10 5.9-15.4 0.4-12.7-0.1-25.4 0.2-38.1-0.2-2.6 0.6-6.5-2.5-7.6-4.7-0.7-9.4-0.2-14.1-0.3-23.5 0-46.9 0.1-70.4 0-6.2-0.7-11.1 5.8-10.4 11.6zm-200.4-62.8c2-2.9 5.9-0.5 8.8-0.9 4.4 0.8 9.8-1.2 13.7 0.9 0.8 16 0.1 32.1 0.4 48.1 0 21.8 0.1 43.6-0.1 65.4-0.1 3.9 1.2 7.6 2.3 11.3-8.4 0.5-16.8 0.6-25.2 0-1-7.2 1.5-14.1 2-21.2 0-27.2-0.1-54.3 0-81.5 0.1-7.4-2.4-14.7-1.9-22.1zm599.4 18.4c1.2-10.8 10.7-20.8 22.1-20.1 32.9 0 65.8-0.1 98.7 0 7.5-0.2 14.4 4.3 18.6 10.3 2.2 4.1 1.9 9.1 4.8 12.9v47.9c-32.1 0.3-64.1 0-96.2 0.2-8.3 0.1-16.7-0.5-25 0.2-0.7 8.8-0.1 17.6-0.4 26.4 0.1 5-0.5 10.8 3 14.9 1.5 1.9 4.1 1.6 6.3 1.9 37.4-0.1 74.9-0.2 112.3-0.1v11.2c-4.3 1.6-8.9 2.5-13.5 2.4-32.5-0.2-64.9 0.1-97.4-0.1-8.7-0.4-18.3-0.5-25.3-6.3-7-5.7-8.7-15.4-8.9-23.9-0.1-14.8 0.1-29.6 0-44.4 0.2-11.1-0.8-22.4 0.9-33.4zm23.1-2.9c-0.9 5.4-0.2 11-0.4 16.5 0.2 8-0.5 16 0.2 23.9 5.8 1.8 11.8 1 17.7 1.1q30.8 0 61.7 0c5.9-0.1 11.9 0.6 17.6-1.1 0.8-7.9 0.1-15.9 0.3-23.9-0.1-5.5 0.6-11.1-0.3-16.6-1.3-3-4.4-5.4-7.7-5-27.2-0.1-54.3 0-81.5 0-3.4-0.3-6.2 2.2-7.6 5.1zm-439.1 187.4c1.6-5.2 8.2-5.4 12.7-4.5 3.2 0.4 5.6 3.3 5.7 6.5 0.3 4.6-0.1 9.3 1.1 13.9 17.4 0.8 34.9 0.1 52.4 0.3 13.8 0.4 27.9-1.5 41.3 2.4 5 2.2 8.8 7.2 9.3 12.7 1.5 11.9-1.4 23.8-4.7 35.1-1.5 4.2-2.7 9-6.5 11.7-4.7 2.2-11.6 0.9-14-4.2-1.4-7.6 2.5-14.7 4.3-21.9 1-4.8 3.9-10 1.4-14.6-3-2.9-7.6-2.4-11.4-2.8-52.6-0.2-105.2 0-157.8-0.1-3.8 0.2-8.4-0.1-11.2 2.8-1.6 4.2-2.1 8.8-2.7 13.2-0.9 6.7 3.1 14-1.3 20.1-4.6 1.6-12.8 2.2-14.5-3.6-1-8.5 0-17.2-0.4-25.8 0.2-6-1.3-13.2 3.3-18.1 4.5-5.9 12.5-6.6 19.3-7 24.2 0.1 48.4 0.3 72.5 0 1.2-5.3 0.3-10.8 1.2-16.1zm-346-2.1c3.7-2.1 8.4-0.1 10.9 2.9 1.7 4.5-0.8 9.3 0.3 13.9 21.3 0.3 42.6 0 63.9 0.2 5-0.6 7.1 5.1 7.9 9.1-0.8 3.7-3.6 7.9-7.8 7.8-10.3 0.5-20.6-0.2-30.9 0.1-1.7 0.1-3.9 0.5-4.2 2.5-0.8 5 0.3 10.2-1 15.2-0.9 3-1.8 6-1.6 9.2 13.4 0.9 26.8 0 40.1 0.4 3.2-0.1 5.8 1.9 8.5 3.3 0.5-0.2 1.4-0.6 1.9-0.8 0.6-10.1-0.1-20.3 0.1-30.4 0-5.1 2.1-9.9 5-14 2.9-4 8.2-4.9 12.8-5 16.8 0.1 33.7 0 50.6 0 6.8 0.2 15.1 1.1 19 7.5 3.4 4.4 2.8 10.1 2.8 15.3-0.1 20.9-0.1 41.9 0 62.9 0.1 6.4-4.4 13.3-10.8 15-20 2-40.2 1.5-60.4 1.7-9 0.3-15.8-7.8-18.5-15.7-1.3-8.4 0.1-17-0.6-25.6-3.5 0.6-6.7 1.9-10 3-6.3 2.1-12.9 0.3-19.3 1.6-0.1 0.3-0.3 1.1-0.4 1.4 9 11 20.8 19.2 30.3 29.8 3.3 3.4 2.8 8.6 3.4 12.9 3.3 1.3 6.8 1.1 10.2 1.1 12.7-0.1 25.5 0.1 38.2 0 5.9-0.1 12.3 1 16.9 4.9 5.5 8.1 4.9 18.4 4.8 27.8-0.1 14.4 0.3 28.8-0.1 43.2-0.2 8.4-5.7 15.6-12.7 19.8-2 0.8-4.2 0.6-6.3 0.7-42-0.1-83.9 0-125.9-0.1-7.3-0.1-14.9 0-21.9-2.4-5.5-3.1-10-9-9.7-15.6-0.2-19.7-0.1-39.5 0-59.2-0.2-4.7 1.5-9.2 2.9-13.6-4.4 1.1-8 4.1-12.2 5.5-3.9 0.5-8.8 1.3-11.5-2.2-1.7-2-3.6-4.2-3.8-6.9 0.8-4.3 3.8-8.3 7.9-10 11.7-5.2 23.8-10.9 32.4-20.8 4-4.8 9.6-9.6 10.2-16.2-14-1.2-28.1 0.2-42.1-0.6-3.5-0.5-4.7-4.8-4.8-7.9-0.4-3.6 1.6-6.9 2.6-10.3 0.4-3.1-0.8-6.2-0.7-9.3 0.3-3.9 2.9-6.9 5.4-9.7 8.2-9 15.1-19.3 19.9-30.6 2.1-4.3 3.4-9.8 8.3-11.8zm106.3 39.6c0.3 19.1-0.3 38.3 0.3 57.4 3.5 3.2 8.5 2.5 12.9 2.6 11.5-0.2 23 0.1 34.5-0.1 3.9 0.2 8.4-2.7 8-6.9 0.2-17.7 0-35.3 0-53 0.2-3.4-1.5-8.1-5.6-8-15.5 0-31-0.3-46.5 0.2-3.9 0.2-3.6 4.9-3.6 7.8zm-105.8-4.1c-4.4 3.9-6.6 9.6-10.6 13.8-3 3.8-8.2 6.5-8.4 11.9 11.1 0.3 22.2-0.1 33.2 0.1 2.6 0.1 6.4-0.2 6.6-3.5 0-7.6 1.1-15.4-0.7-22.9-6.6-1-13.6-1-20.1 0.6zm11.3 77.7c-3.3 3.2-7.8 5.1-10.2 9.2 1.7 2.1 4.6 1.4 6.9 1.7q21.6 0 43.1-0.1c6.5-0.2 13.1 0.1 19.4-1.4-1.5-2.2-3.2-4.2-5.1-6-9.1-8.6-17.6-17.8-26.8-26.3-2-2-4.3-3.8-7.1-4.6-5.3 10.1-12.1 19.5-20.2 27.5zm-7 32.7c-1 5.3-1.1 10.8 0 16.1 43.5 0.7 87.1 0 130.7 0.4 2.6-0.4 6.2 0.8 7.6-2.1 0.9-5.3 1.3-11.2-1.5-16.1-12.7-0.9-25.4-0.1-38.1-0.4q-46.9 0-93.8 0c-1.7 0.2-4.6-0.3-4.9 2.1zm-0.2 38.1c-0.7 5.2-0.7 10.6 0 15.8 2 2.8 5.7 3.1 8.8 3.2 39.9 0 79.8-0.1 119.7 0 3.5 0.1 7.5-0.3 9.9-3.3 1.2-5.2 0.7-10.6 0.1-15.8-2.4-1.1-4.9-1.8-7.5-1.7-42-0.1-84 0-125.9-0.1-1.9 0.1-4.2-0.1-5.1 1.9zm267.9-133c2.5-4.1 7.9-4.1 12.2-4.3 36.2-0.1 72.4-0.1 108.5-0.1 12.8 0.7 25.5 0.8 38.3 1.1 3 0 7.1 0.8 7.8 4.3 0.5 3.5 1 8.2-2.4 10.5-3.2 1.5-6.9 1.6-10.3 2-19.7 0.8-39.3-0.1-58.9 0.5-7.8 0.9-15.6 1.3-23.3 0.2-16.2-0.9-32.4-0.1-48.6-0.4-7.7-0.3-15.8 0.8-23.2-2-0.8-3.8-1.7-8-0.1-11.8zm11.4 23.4c5.5-1.4 11.2-0.6 16.8-0.7 39.9-0.1 79.8 0 119.7-0.1 6.2-0.1 12.2 3.2 15.8 8.2 3.1 5.1 1.7 11.4 2 17-0.3 5.7 1 11.9-1.8 17.2-3.3 4.9-8.6 9.1-14.8 9.2-13.1 0.3-26.2-0.3-39.3 0.1-19.8 1.7-39.6 0.6-59.4 0.9-9.4 0.4-18.8-1.3-28.3-1-6.6 0-14.3 0.6-19.2-4.8-6-5.5-2.8-14.4-3.6-21.6 0.7-6.4-2.2-14.6 3.4-19.3 2.6-2.2 5.5-4.1 8.7-5.1zm5.9 19.6c-1.5 3.8-0.2 7.9 0.5 11.7 9.6 1.4 19.3 0.7 28.9 1 30.5-0.1 60.9 0.3 91.3-0.3 3.3-0.5 7.7 0.4 10.1-2.4 1.6-4.4 0.5-11.9-5.4-11.9-14.3-0.7-28.6-0.2-42.9-0.4-25.5 0.1-51-0.1-76.5 0.2-2.1 0.2-5.2-0.4-6 2.1zm-30.4 59c-0.8-10.2 8.9-19.9 19.1-19.2q16.7 0 33.3-0.1c24.3-1.2 48.5-0.5 72.8-0.6 15.8 1 31.6 0.4 47.4 0.8 8 0 17.2 5.5 17.3 14.2 1.9 19.7 1.8 39.6 0 59.2 0 8.1-7.4 14.9-15.3 15.3-8.5 0.6-17.1 0.8-25.6 2h-87.1c-9.7-1.5-19.5-0.6-29.2-1.3-6.6-0.5-13.2-0.1-19.8-0.7-7.9-0.5-13.3-9-12.9-16.4q0.2-26.6 0-53.2zm105.2 1c-1 5.1-0.9 10.6 0.7 15.7 11.8 0.3 23.6-0.1 35.3 0.1 11.2-0.4 22.4 0.6 33.5-0.5 0.6-3.7 0.7-7.4 0.4-11.2-0.1-3.3-3.4-6.1-6.7-5.8-18.9-0.1-37.9 0.1-56.8 0-2.2 0.2-5.1-0.5-6.4 1.7zm-86.4 14.2c6.3 0.6 12.6 0.3 18.8 0.3 15.8-0.2 31.5 0.5 47.2-0.3 0.7-5.1 0.7-10.3 0-15.3-7.1-0.7-14.2-0.3-21.3-0.4-13.1 0.2-26.3-0.3-39.5 0.1-7.5 0.8-5.6 10.3-5.2 15.6zm87.6 20.4c-2.7 2.5-1.4 6.8-1.8 10.1 0 3.1 0.2 8.5 4.6 8.1 18.8-0.1 37.7 0.2 56.5-0.1 8.4-1.2 9.6-11.5 8-18.3-16.1-0.9-32.3-0.2-48.5-0.4-6.3 0.3-12.7-0.7-18.8 0.6zm-87.3-0.1c-2.3 4.7-2.7 10.7-0.1 15.4 2.3 3.9 7.4 2.8 11.2 3 18.3-0.4 36.6 0.3 54.8-0.4 1.5-5.8 2.4-12.5-0.5-18-6.6-0.5-13.2-0.2-19.7-0.2-15.2 0.1-30.5-0.3-45.7 0.2z"/>
	</g>
</svg>