<svg version="1.2" xmlns="http://www.w3.org/2000/svg" viewBox="0 0 1595 389" width="1595" height="389">
	<title>logo (1)-svg</title>
	<style>
		.s0 { fill: #003e7e } 
		.s1 { fill: #ffffff } 
	</style>
	<ellipse id="Layer" class="s0" cx="194" cy="194.3" rx="194" ry="194.3"/>
	<path id="Layer" fill-rule="evenodd" class="s1" d="m599 232.6l-6.4-62.1q-1.5-14.8-3.5-30.5-1.9-15.6-4.2-33-4.1 8.2-11.3 23.7-7.2 15.6-17.9 38.3l-29.4 63.6q-3.6-0.5-9.4 0-6.2-12.5-28.3-59.3l-32.4-66.5q-1.5 15.4-2.8 31.7-1.3 16.4-2.8 34.2-0.4 9.2-1.5 24.1-1 15-2.5 35.8-5.6-0.5-12.5 0 0.7-5.8 2.5-25.3 1.8-19.4 4.8-52.9 3-27.7 7.1-78.1 7.9 0.4 18 0 2.8 5.8 9.3 19.5 6.6 13.8 17.3 35.9 5.6 10.9 14.4 28.6 8.7 17.7 21.2 42.4l58.5-126.4q7.7 0.2 17 0 0.8 8.6 3 27 2.1 18.5 5.5 47.5l10.8 81.8q-14.8-0.2-24.5 0zm171.5-0.4q-3-0.1-7-0.1-4.1 0-7.2 0.1-3.1 0.2-5.3 0.4l-17.8-49.8q-2.1 0-6.2 0-3.8 0-9.6-0.2h-17q-9.8 0-18 0.1-8.1 0.1-14.6 0.3l-19.5 49.6q-6.2-0.5-11.3 0l63.2-154.8q5.4 0.6 17.2 0l58.3 154.8q-2.2-0.2-5.2-0.4zm-43.1-65.5q-4.7-12.5-11.1-29.8-6.4-17.2-14.6-39.4l-27.9 69.8q-0.8 2.2-1.4 3.8-0.5 1.6-0.9 2.7h13.1q4.9 0.2 8.7 0.2 4.1 0 7.1 0 2.4 0 6 0 3.7 0 8.8-0.2h14.8zm145 69.5q-36.9 0-59.9-22.1-23.1-22.1-23.1-58.8 0-35.2 25.3-58.4 24-22.1 58.1-22.1 37.1 0 60 22.9l-4.7 6.1q-19.1-17-44.8-17-27.2 0-46.8 16.7-21.8 19.1-21.8 51.1 0 29.9 19.9 50 20.2 20.2 48 20.2 16.1 0 30.7-3.8 0-13.8-0.1-26.5-0.1-12.8-0.3-24.6l-33 0.4v-9.2h9.4q4.9 0.2 9.6 0.2 5 0 9.9 0 4.9 0 9.7 0 4.9 0 9.6-0.2h8.6l-0.2 32.6q0 3 0 6.9 0 3.6 0.2 8.3v16.1q-30.3 11.2-64.3 11.2zm188-3.6q-4.1 0-13.1-0.3-9-0.2-16.1-0.2-6.8 0-12.2 0-4.3 0-11.1 0-6.9 0-16.1 0.2-9.2 0.3-13.7 0.3-4.3 0-3.9 0l0.6-75.4q0-16.5-0.6-79.4l43.7 0.4q5.4 0 12.3 0 7 0 16-0.2 9-0.2 13.1-0.2 4.1 0 3.7 0v9.4q-14.6-0.6-65.2-0.6 0 13.5-0.1 29.1-0.1 15.5-0.3 33.1c3.2 0 22.4 0 27 0q6.8 0 15.8-0.2 9-0.2 13.3-0.2 4.3 0 4.1 0v9.2q0.4 0-3.6 0-4.1 0-13.1-0.2-9-0.2-16.1-0.2-6.9 0-12.2 0h-15.2q0 15.3 0.6 66.1 3.4 0.2 8.6 0.2 5.3 0 12.4 0 4.9 0 11.8 0 7.1 0 16.1-0.2 9-0.2 13.3-0.2 4.3 0 3.8 0v9.5q0.5 0-3.6 0zm115.6 0q-3.7 0-11.6-0.3-8-0.2-14.6-0.2-6.4 0-11.8 0-7.5 0-18.4 0.1-11 0.1-25.3 0.4l0.6-79.5q0-16.3-0.6-75.3 12.8 0.4 23.8 0l-0.7 75.3q0 3 0 11.6 0 8.4 0.2 22.3 0.3 13.8 0.3 23 0 9 0 13.8 46.7 0 61.3-0.7v9.5q0.4 0-3.2 0zm110.2 0q-3.7 0-11.6-0.3-8-0.2-14.6-0.2-6.4 0-11.8 0-7.5 0-18.4 0.1-11 0.1-25.3 0.4l0.6-79.5q0-16.3-0.6-75.3 12.8 0.4 23.8 0l-0.7 75.3q0 3 0 11.6 0 8.4 0.2 22.3 0.3 13.8 0.3 23 0 9 0 13.8 46.7 0 61.3-0.7v9.5q0.4 0-3.2 0zm145.5-0.4q-3-0.1-7-0.1-4.1 0-7.2 0.1-3.1 0.1-5.3 0.4l-17.8-49.8q-2.1 0-6.2 0-3.8 0-9.6-0.3h-17q-9.8 0-18 0.1-8.1 0.2-14.6 0.4l-19.5 49.6q-6.2-0.5-11.3 0l63.2-154.8q5.4 0.6 17.2 0l58.3 154.8q-2.2-0.3-5.2-0.4zm-43-65.5q-4.8-12.5-11.2-29.8-6.4-17.3-14.6-39.4l-27.9 69.8q-0.8 2.1-1.4 3.8-0.5 1.6-0.9 2.6h13.1q4.9 0.3 8.8 0.3 4 0 7 0 2.4 0 6 0 3.7 0 8.8-0.3h14.8zm186.3 67.9q-8.1-10.3-22.8-28.7-14.7-18.3-36.1-45.2-8-9.4-19-22.8-11-13.4-25.8-31.1v27.5q-0.2 8.8-0.2 14 0 5.1 0 6.8 0 16.4 0.2 35.6 0.2 19.2 0.6 41.9-5.8-0.2-11.1 0 0 0.3 0-8.1 0-8.4 0.2-25.3v-87.8q-0.2-17-0.2-25.4 0-8.3 0-8.1 1.5 0.2 3.6 0.2 2.1 0 4.9 0 2.8 0 5.2 0 2.3 0 4.5-0.2 13.1 16.5 54.7 68.9 9 10.9 21.2 25.7 12.2 14.8 27.6 33.7 0.3-9.6 0.3-22.1 0-12.6 0-28.7 0-55-0.7-77.5 6 0.2 11.2 0v33.2q-0.2 17-0.2 28.2 0 10.9 0 15.8 0 5 0 16.1 0 11.2 0.2 28.8v34.6z"/>
	<g id="Layer">
		<path id="Layer" fill-rule="evenodd" class="s1" d="m466.2 330q0 0.9 0 1.5-0.1 0.6-0.4 1-0.2 0.5-0.5 0.6-0.3 0.2-0.7 0.2h-28.6q-1.1 0-2.1-0.7-0.9-0.7-0.9-2.5v-53.4q0-1.8 0.9-2.5 1-0.7 2.1-0.7h28.3q0.4 0 0.7 0.2 0.3 0.2 0.5 0.6 0.1 0.4 0.3 1 0.1 0.7 0.1 1.6 0 0.8-0.1 1.4-0.2 0.7-0.3 1-0.2 0.4-0.5 0.6-0.3 0.2-0.7 0.2h-23.4v18.8h20.1q0.3 0 0.6 0.2 0.3 0.2 0.6 0.6 0.2 0.3 0.3 1 0 0.6 0 1.5 0 0.8 0 1.4-0.1 0.6-0.3 1-0.3 0.4-0.6 0.5-0.3 0.2-0.6 0.2h-20.1v21.4h23.7q0.4 0 0.7 0.2 0.3 0.2 0.5 0.6 0.3 0.4 0.4 1 0 0.6 0 1.5zm50.1 0.5q0.6 1 0.7 1.6 0.1 0.6-0.3 0.9-0.4 0.4-1.4 0.5-0.9 0.1-2.5 0.1-1.5 0-2.3-0.1-0.8 0-1.3-0.2-0.5-0.2-0.8-0.5-0.2-0.2-0.4-0.6l-13.3-23.8-13.4 23.8q-0.3 0.4-0.5 0.7-0.3 0.2-0.8 0.4-0.5 0.2-1.3 0.2-0.8 0.1-2.2 0.1-1.6 0-2.4-0.1-0.9-0.1-1.3-0.5-0.3-0.3-0.2-0.9 0.1-0.6 0.7-1.6l16.3-27.6-15.5-26.5q-0.6-1-0.7-1.7-0.2-0.6 0.2-0.9 0.3-0.4 1.3-0.5 0.9-0.1 2.5-0.1 1.4 0 2.3 0.1 0.8 0.1 1.3 0.2 0.5 0.2 0.8 0.5 0.2 0.3 0.5 0.7l12.8 22.3 12.8-22.3q0.2-0.4 0.4-0.7 0.3-0.3 0.7-0.5 0.4-0.1 1.2-0.2 0.8-0.1 2.1-0.1 1.5 0 2.4 0.1 0.9 0.2 1.3 0.5 0.4 0.3 0.3 0.9-0.1 0.7-0.7 1.7l-15.5 26.4zm46.8-39.5q0 4.5-1.5 8.1-1.5 3.6-4.2 6.2-2.7 2.5-6.7 3.9-4 1.4-9.6 1.4h-6.8v21.5q0 0.4-0.2 0.7-0.2 0.3-0.6 0.4-0.5 0.2-1.2 0.3-0.8 0.1-1.9 0.1-1.2 0-1.9-0.1-0.8-0.1-1.3-0.3-0.4-0.1-0.6-0.4-0.2-0.3-0.2-0.7v-55.2q0-1.8 1-2.6 0.9-0.8 2.1-0.8h12.8q2 0 3.7 0.2 1.8 0.1 4.2 0.7 2.5 0.5 5 2 2.5 1.4 4.3 3.5 1.7 2.2 2.7 5 0.9 2.8 0.9 6.1zm-8.4 0.7q0-3.7-1.3-6.1-1.4-2.5-3.4-3.7-2-1.2-4.1-1.5-2.2-0.3-4.2-0.3h-7.4v24h7.2q3.6 0 6-1 2.4-0.9 4-2.5 1.6-1.7 2.4-4 0.8-2.2 0.8-4.9zm52.8 38.3q0 0.9 0 1.5-0.1 0.6-0.4 1-0.2 0.5-0.5 0.6-0.3 0.2-0.7 0.2h-28.6q-1.1 0-2.1-0.7-0.9-0.7-0.9-2.5v-53.4q0-1.8 0.9-2.5 1-0.7 2.1-0.7h28.3q0.4 0 0.7 0.2 0.3 0.2 0.5 0.6 0.1 0.4 0.3 1 0.1 0.7 0.1 1.6 0 0.8-0.1 1.4-0.2 0.7-0.3 1.1-0.2 0.4-0.5 0.5-0.3 0.2-0.7 0.2h-23.4v18.8h20.1q0.4 0 0.7 0.2 0.3 0.2 0.5 0.6 0.2 0.3 0.3 1 0.1 0.6 0.1 1.5 0 0.9-0.1 1.5-0.1 0.6-0.3 0.9-0.2 0.4-0.5 0.6-0.3 0.1-0.7 0.1h-20.1v21.4h23.7q0.4 0 0.7 0.2 0.3 0.2 0.5 0.6 0.3 0.4 0.4 1 0 0.6 0 1.5zm51.9 2.1q0 0.4-0.2 0.7-0.1 0.3-0.6 0.4-0.4 0.2-1.3 0.3-0.8 0.1-2.2 0.1-1.2 0-1.9-0.1-0.8-0.1-1.3-0.3-0.4-0.2-0.7-0.6-0.2-0.3-0.4-0.9l-5.5-14.1q-1-2.4-2-4.4-1.1-2-2.5-3.5-1.4-1.4-3.4-2.2-1.9-0.8-4.6-0.8h-5.3v25.4q0 0.4-0.2 0.7-0.2 0.3-0.7 0.4-0.4 0.2-1.2 0.3-0.7 0.1-1.9 0.1-1.2 0-1.9-0.1-0.8-0.1-1.2-0.3-0.5-0.1-0.7-0.4-0.2-0.3-0.2-0.7v-55.4q0-1.8 1-2.5 0.9-0.7 2-0.7h12.7q2.2 0 3.7 0.1 1.5 0.1 2.7 0.3 3.5 0.6 6.2 1.9 2.6 1.3 4.4 3.3 1.8 1.9 2.7 4.5 0.9 2.6 0.9 5.7 0 3-0.8 5.4-0.8 2.3-2.3 4.2-1.5 1.8-3.7 3.1-2.1 1.4-4.7 2.3 1.5 0.6 2.7 1.6 1.2 1 2.2 2.4 1 1.4 2 3.2 0.9 1.8 1.8 4.1l5.4 13.2q0.6 1.6 0.8 2.3 0.2 0.7 0.2 1zm-12-42q0-3.5-1.6-5.9-1.5-2.5-5.2-3.5-1.2-0.3-2.6-0.5-1.5-0.1-3.8-0.1h-6.7v20.1h7.7q3.2 0 5.5-0.7 2.2-0.8 3.8-2.2 1.5-1.3 2.2-3.2 0.7-1.8 0.7-4zm59-13.2q0 0.9 0 1.6-0.1 0.6-0.3 1-0.3 0.4-0.6 0.6-0.3 0.2-0.6 0.2h-16.8v51.8q0 0.4-0.2 0.7-0.2 0.3-0.7 0.4-0.4 0.2-1.2 0.3-0.7 0.1-1.9 0.1-1.1 0-1.9-0.1-0.8-0.1-1.2-0.3-0.5-0.1-0.7-0.4-0.2-0.3-0.2-0.7v-51.8h-16.8q-0.3 0-0.6-0.2-0.3-0.2-0.5-0.6-0.2-0.4-0.3-1-0.1-0.7-0.1-1.6 0-0.8 0.1-1.5 0.1-0.7 0.3-1.1 0.2-0.4 0.5-0.6 0.3-0.2 0.6-0.2h41.6q0.3 0 0.6 0.2 0.3 0.2 0.6 0.6 0.2 0.4 0.3 1.1 0 0.7 0 1.5zm39.4 39.7q0 4.2-1.6 7.4-1.5 3.3-4.3 5.6-2.7 2.3-6.4 3.5-3.8 1.1-8.1 1.1-3 0-5.5-0.5-2.6-0.5-4.6-1.2-2-0.8-3.4-1.6-1.3-0.8-1.9-1.3-0.5-0.6-0.7-1.4-0.3-0.9-0.3-2.3 0-1 0.1-1.7 0.1-0.7 0.3-1.1 0.2-0.4 0.4-0.6 0.3-0.1 0.7-0.1 0.6 0 1.8 0.8 1.2 0.7 3 1.7 1.9 0.9 4.5 1.7 2.6 0.8 6 0.8 2.6 0 4.7-0.7 2.2-0.7 3.7-1.9 1.6-1.3 2.4-3.2 0.8-1.8 0.9-4.2-0.1-2.5-1.2-4.3-1.2-1.8-3.1-3.2-1.8-1.3-4.3-2.5-2.4-1.1-4.9-2.3-2.6-1.2-5-2.6-2.4-1.4-4.3-3.4-1.9-1.9-3-4.5-1.2-2.6-1.2-6.3 0-3.7 1.3-6.7 1.4-2.9 3.8-4.9 2.5-2 5.8-3 3.4-1.1 7.2-1.1 2 0 4 0.4 2 0.3 3.8 0.9 1.8 0.6 3.2 1.3 1.4 0.7 1.8 1.2 0.4 0.4 0.6 0.6 0.1 0.3 0.2 0.7 0.1 0.4 0.1 0.9 0.1 0.6 0.1 1.5 0 0.8-0.1 1.5 0 0.6-0.2 1-0.1 0.5-0.4 0.7-0.2 0.2-0.6 0.2-0.5 0-1.5-0.6-1.1-0.7-2.7-1.5-1.6-0.8-3.7-1.5-2.2-0.7-4.8-0.7-2.5 0-4.4 0.7-1.8 0.7-3 1.8-1.2 1.1-1.8 2.6-0.6 1.6-0.6 3.3 0 2.5 1.1 4.3 1.2 1.8 3.1 3.2 1.9 1.3 4.4 2.5 2.4 1.2 4.9 2.3 2.6 1.2 5 2.6 2.5 1.4 4.4 3.3 1.9 2 3.1 4.6 1.2 2.6 1.2 6.2zm38.7 15.5q0 0.4-0.1 0.7-0.2 0.3-0.7 0.4-0.4 0.2-1.2 0.3-0.8 0.1-1.9 0.1-1.1 0-1.9-0.1-0.8-0.1-1.3-0.3-0.4-0.1-0.6-0.4-0.2-0.3-0.2-0.7v-57.4q0-0.4 0.2-0.6 0.2-0.3 0.7-0.5 0.5-0.1 1.3-0.2 0.7-0.2 1.8-0.2 1.1 0 1.9 0.2 0.8 0.1 1.2 0.2 0.5 0.2 0.7 0.5 0.1 0.2 0.1 0.6zm60.1-2.1q0 1-0.3 1.6-0.3 0.7-0.8 1.1-0.5 0.4-1.1 0.6-0.6 0.2-1.2 0.2h-2.7q-1.2 0-2.1-0.3-1-0.3-1.8-0.9-0.8-0.7-1.7-1.8-0.8-1.2-1.8-3l-18.2-34q-1.4-2.7-2.9-5.6-1.4-2.8-2.7-5.6h-0.1q0.1 3.4 0.2 6.8 0 3.5 0 6.9v36.1q0 0.3-0.2 0.6-0.2 0.3-0.6 0.5-0.5 0.2-1.2 0.3-0.8 0.1-2 0.1-1.1 0-1.9-0.1-0.7-0.1-1.2-0.3-0.4-0.2-0.6-0.5-0.2-0.3-0.2-0.6v-55.2q0-1.8 1-2.6 1.1-0.8 2.3-0.8h3.9q1.4 0 2.3 0.2 1 0.3 1.7 0.8 0.7 0.5 1.4 1.5 0.7 0.9 1.5 2.4l14 26.2q1.3 2.4 2.5 4.7 1.2 2.3 2.3 4.5 1.1 2.2 2.2 4.4 1.1 2.1 2.2 4.3-0.1-3.6-0.1-7.6 0-4 0-7.6v-32.5q0-0.3 0.2-0.6 0.2-0.2 0.7-0.4 0.4-0.3 1.2-0.3 0.7-0.1 1.9-0.1 1.1 0 1.9 0.1 0.8 0 1.2 0.3 0.5 0.2 0.6 0.4 0.2 0.3 0.2 0.6c0 0 0 55.2 0 55.2zm80.3-48.4q0 0.9-0.1 1.6-0.1 0.7-0.3 1.1-0.2 0.4-0.4 0.6-0.3 0.2-0.6 0.2-0.6 0-1.9-0.9-1.3-0.9-3.5-1.9-2.1-1.1-5.1-2-3.1-0.8-7.2-0.8-5 0-8.9 1.8-3.9 1.8-6.6 5-2.8 3.2-4.2 7.5-1.5 4.4-1.5 9.6 0 5.7 1.6 10.1 1.6 4.5 4.4 7.5 2.8 3.1 6.7 4.6 3.9 1.6 8.6 1.6 2.8 0 5.6-0.7 2.9-0.6 5.3-2v-17.4h-13.8q-0.8 0-1.2-0.8-0.4-0.8-0.4-2.4 0-0.9 0.1-1.5 0.1-0.7 0.3-1 0.2-0.4 0.5-0.6 0.2-0.2 0.7-0.2h18.9q0.5 0 1 0.2 0.6 0.2 1 0.5 0.4 0.4 0.6 1 0.2 0.7 0.2 1.5v22.8q0 1.2-0.4 2.1-0.4 0.9-1.7 1.5-1.4 0.7-3.5 1.5-2.1 0.8-4.4 1.3-2.2 0.6-4.5 0.9-2.4 0.3-4.6 0.3-6.9 0-12.4-2.2-5.4-2.1-9.2-6.1-3.8-4-5.7-9.5-2-5.6-2-12.4 0-7.2 2.1-12.9 2.2-5.8 6.1-9.9 3.9-4 9.3-6.3 5.5-2.2 12.2-2.2 3.4 0 6.4 0.6 3 0.6 5.3 1.4 2.3 0.8 3.9 1.7 1.6 1 2.2 1.6 0.6 0.6 0.9 1.4 0.2 0.8 0.2 2.2zm44.8 48.3q0 0.9-0.1 1.5-0.1 0.6-0.3 1.1-0.2 0.4-0.5 0.6-0.3 0.2-0.7 0.2h-26.4q-1.1 0-2-0.7-1-0.7-1-2.5v-55.4q0-0.4 0.2-0.6 0.2-0.3 0.6-0.5 0.5-0.1 1.3-0.3 0.8-0.1 1.9-0.1 1.1 0 1.9 0.1 0.8 0.2 1.2 0.3 0.5 0.2 0.7 0.5 0.2 0.2 0.2 0.6v51.7h21.4q0.4 0 0.7 0.2 0.3 0.2 0.5 0.6 0.2 0.4 0.3 1.1 0.1 0.6 0.1 1.6zm55.8-27.2q0 7.3-1.7 13.1-1.7 5.8-5.1 9.9-3.4 4.1-8.5 6.3-5.2 2.2-12 2.2-6.7 0-11.7-2-4.9-2-8.1-5.9-3.2-3.8-4.8-9.5-1.5-5.7-1.5-13.1 0-7 1.7-12.8 1.7-5.8 5.1-9.8 3.4-4.1 8.5-6.3 5.2-2.2 12-2.2 6.6 0 11.5 2 4.9 2 8.1 5.8 3.3 3.8 4.9 9.4 1.6 5.7 1.6 12.9zm-8.4 0.6q0-5.1-0.9-9.5-0.9-4.4-3-7.6-2.1-3.2-5.6-5-3.5-1.8-8.7-1.8-5.2 0-8.7 2-3.5 1.9-5.6 5.1-2.2 3.3-3.2 7.6-0.9 4.3-0.9 9.1 0 5.2 0.8 9.7 0.9 4.4 3 7.6 2.1 3.3 5.6 5 3.4 1.8 8.7 1.8 5.2 0 8.8-1.9 3.5-2 5.7-5.3 2.1-3.3 3.1-7.6 0.9-4.4 0.9-9.2zm59.4 12.9q0 2.8-0.7 5.2-0.7 2.4-2 4.2-1.3 1.9-3.2 3.4-1.8 1.4-4.1 2.4-2.3 0.9-4.9 1.4-2.6 0.5-5.9 0.5h-15.6q-1.1 0-2.1-0.7-0.9-0.7-0.9-2.5v-53.4q0-1.8 0.9-2.5 1-0.7 2.1-0.7h13.5q5.4 0 8.8 1 3.4 1 5.7 3 2.3 1.9 3.4 4.7 1.2 2.9 1.2 6.4 0 2.1-0.5 4.1-0.5 1.9-1.5 3.6-1 1.6-2.5 2.9-1.5 1.3-3.4 2.1 2.4 0.5 4.5 1.7 2.2 1.2 3.7 3.1 1.6 1.9 2.6 4.5 0.9 2.5 0.9 5.6zm-12-26.8q0-2.2-0.6-3.9-0.6-1.8-1.9-3-1.3-1.2-3.3-1.9-2.1-0.6-5.5-0.6h-8.2v19.3h9q3.1 0 5-0.8 1.9-0.8 3.1-2.1 1.3-1.4 1.9-3.2 0.5-1.9 0.5-3.8zm3.6 27.2q0-2.6-0.8-4.7-0.9-2-2.5-3.4-1.6-1.4-4.1-2.1-2.5-0.7-6.2-0.7h-9.5v21.1h11.5q2.7 0 4.8-0.7 2-0.6 3.5-1.9 1.6-1.3 2.5-3.2 0.8-1.9 0.8-4.4zm63.3 13.9q0.4 1 0.4 1.6 0 0.7-0.3 1-0.4 0.3-1.3 0.4-0.8 0.1-2.3 0.1-1.4 0-2.2-0.1-0.9 0-1.3-0.2-0.5-0.2-0.7-0.4-0.2-0.3-0.4-0.7l-5.1-14.6h-24.8l-4.9 14.4q-0.2 0.4-0.4 0.7-0.2 0.3-0.7 0.5-0.4 0.2-1.2 0.3-0.8 0.1-2.1 0.1-1.4 0-2.2-0.1-0.9-0.1-1.2-0.5-0.4-0.3-0.3-0.9 0-0.6 0.4-1.6l20-55.6q0.2-0.5 0.5-0.8 0.3-0.4 0.9-0.6 0.5-0.1 1.4-0.2 0.9-0.1 2.3-0.1 1.5 0 2.5 0.1 0.9 0.1 1.5 0.2 0.6 0.2 1 0.6 0.3 0.3 0.5 0.8zm-25.8-49l-10.3 29.8h20.8zm65.7 48.4q0 0.9-0.1 1.6-0.1 0.6-0.3 1-0.2 0.5-0.5 0.7-0.3 0.2-0.7 0.2h-26.4q-1.1 0-2-0.7-1-0.8-1-2.6v-55.3q0-0.4 0.2-0.7 0.2-0.3 0.7-0.4 0.4-0.2 1.2-0.3 0.8-0.1 1.9-0.1 1.2 0 1.9 0.1 0.8 0.1 1.2 0.3 0.5 0.1 0.7 0.4 0.2 0.3 0.2 0.7v51.7h21.4q0.4 0 0.7 0.2 0.3 0.2 0.5 0.6 0.2 0.4 0.3 1 0.1 0.7 0.1 1.6zm36.2 2.3q0 0.3-0.2 0.6-0.2 0.3-0.6 0.5-0.5 0.1-1.2 0.2-0.8 0.2-2 0.2-1.1 0-1.8-0.2-0.8-0.1-1.3-0.2-0.5-0.2-0.6-0.5-0.2-0.3-0.2-0.6v-57.4q0-0.4 0.2-0.7 0.2-0.3 0.7-0.4 0.5-0.2 1.2-0.3 0.8-0.1 1.8-0.1 1.2 0 2 0.1 0.7 0.1 1.2 0.3 0.4 0.1 0.6 0.4 0.2 0.3 0.2 0.7c0 0 0 57.4 0 57.4zm60.1-2.1q0 0.9-0.3 1.6-0.3 0.6-0.8 1-0.5 0.4-1.1 0.6-0.7 0.2-1.3 0.2h-2.6q-1.3 0-2.2-0.2-0.9-0.3-1.7-1-0.9-0.6-1.7-1.8-0.9-1.1-1.8-3l-18.2-34q-1.4-2.6-2.9-5.5-1.5-2.9-2.7-5.6h-0.1q0.1 3.3 0.1 6.8 0.1 3.5 0.1 6.9v36.1q0 0.3-0.2 0.6-0.2 0.3-0.7 0.5-0.4 0.1-1.2 0.2-0.7 0.2-1.9 0.2-1.2 0-1.9-0.2-0.8-0.1-1.2-0.2-0.5-0.2-0.7-0.5-0.2-0.3-0.1-0.6v-55.2q0-1.9 1-2.7 1-0.7 2.3-0.7h3.9q1.4 0 2.3 0.2 0.9 0.2 1.7 0.8 0.7 0.5 1.4 1.4 0.7 1 1.5 2.4l14 26.3q1.3 2.4 2.5 4.7 1.2 2.3 2.3 4.5 1.1 2.2 2.2 4.3 1.1 2.2 2.2 4.4-0.1-3.7-0.1-7.6 0-4 0-7.6v-32.5q0-0.3 0.2-0.6 0.2-0.3 0.6-0.5 0.5-0.2 1.2-0.3 0.8-0.1 2-0.1 1.1 0 1.9 0.1 0.7 0.1 1.2 0.3 0.4 0.2 0.6 0.5 0.2 0.3 0.2 0.6c0 0 0 55.2 0 55.2zm39.1 1.9q-0.2 0.5-0.5 0.8-0.3 0.3-0.9 0.5-0.6 0.2-1.5 0.3-0.9 0.1-2.2 0.1-1.1 0-1.8-0.1-0.8 0-1.3-0.1-0.6-0.1-1-0.2-0.4-0.1-0.6-0.3-0.3-0.2-0.5-0.4-0.1-0.3-0.3-0.7l-19.5-55.5q-0.4-1-0.4-1.7 0-0.6 0.4-0.9 0.4-0.3 1.3-0.4 0.9-0.1 2.5-0.1 1.3 0 2.1 0 0.7 0.1 1.1 0.3 0.5 0.2 0.7 0.5 0.2 0.3 0.4 0.8l17.1 50.3 16.7-50.3q0.1-0.5 0.3-0.8 0.2-0.3 0.7-0.5 0.4-0.2 1.3-0.3 0.8 0 2.2 0 1.4 0 2.2 0.1 0.9 0.1 1.2 0.4 0.3 0.4 0.2 1-0.1 0.6-0.4 1.6zm61.8-1.9q0 0.9-0.1 1.5-0.1 0.6-0.3 1-0.3 0.4-0.6 0.6-0.3 0.2-0.6 0.2h-28.7q-1.1 0-2-0.7-1-0.7-1-2.5v-53.4q0-1.8 1-2.5 0.9-0.7 2-0.7h28.3q0.4 0 0.7 0.2 0.3 0.2 0.5 0.6 0.2 0.4 0.3 1 0.1 0.6 0.1 1.6 0 0.8-0.1 1.4-0.1 0.6-0.3 1-0.2 0.4-0.5 0.6-0.3 0.2-0.7 0.2h-23.3v18.8h20q0.4 0 0.7 0.2 0.3 0.2 0.5 0.6 0.2 0.3 0.3 1 0.1 0.6 0.1 1.5 0 0.8-0.1 1.4-0.1 0.6-0.3 1-0.2 0.4-0.5 0.5-0.3 0.2-0.7 0.2h-20v21.4h23.7q0.3 0 0.6 0.2 0.3 0.2 0.6 0.6 0.2 0.4 0.3 1 0.1 0.6 0.1 1.5zm43.1-13.5q0 4.2-1.5 7.5-1.6 3.3-4.3 5.6-2.8 2.3-6.5 3.4-3.7 1.2-8 1.2-3 0-5.6-0.5-2.5-0.5-4.5-1.3-2-0.7-3.4-1.5-1.4-0.8-1.9-1.3-0.5-0.6-0.8-1.4-0.2-0.9-0.2-2.3 0-1 0.1-1.7 0.1-0.7 0.2-1.1 0.2-0.4 0.5-0.6 0.3-0.1 0.6-0.1 0.7 0 1.9 0.7 1.1 0.8 3 1.8 1.8 0.9 4.5 1.7 2.6 0.8 6 0.8 2.6 0 4.7-0.7 2.2-0.7 3.7-2 1.6-1.2 2.4-3.1 0.8-1.8 0.8-4.2 0-2.5-1.1-4.3-1.2-1.8-3.1-3.2-1.9-1.4-4.3-2.5-2.4-1.1-5-2.3-2.5-1.2-4.9-2.6-2.4-1.5-4.3-3.4-1.9-1.9-3.1-4.5-1.2-2.7-1.1-6.3-0.1-3.8 1.3-6.7 1.4-2.9 3.8-4.9 2.4-2 5.8-3 3.3-1.1 7.2-1.1 2 0 4 0.4 2 0.3 3.8 0.9 1.7 0.6 3.1 1.3 1.4 0.7 1.9 1.1 0.4 0.5 0.5 0.7 0.2 0.3 0.3 0.7 0.1 0.4 0.1 0.9 0.1 0.6 0.1 1.5 0 0.8-0.1 1.4-0.1 0.7-0.2 1.1-0.2 0.5-0.4 0.7-0.3 0.2-0.6 0.2-0.5 0-1.6-0.7-1.1-0.6-2.6-1.4-1.6-0.8-3.8-1.5-2.1-0.7-4.8-0.7-2.5 0-4.3 0.7-1.9 0.7-3.1 1.8-1.2 1.1-1.8 2.6-0.6 1.5-0.6 3.2 0 2.5 1.2 4.3 1.1 1.9 3.1 3.2 1.9 1.4 4.3 2.6 2.5 1.1 5 2.3 2.5 1.2 5 2.6 2.4 1.4 4.4 3.3 1.9 1.9 3 4.6 1.2 2.6 1.2 6.1zm47.2-39.6q0 0.9-0.1 1.5-0.1 0.7-0.3 1.1-0.2 0.4-0.5 0.6-0.3 0.1-0.6 0.1h-16.8v51.9q0 0.4-0.2 0.7-0.2 0.2-0.7 0.4-0.4 0.2-1.2 0.3-0.8 0.1-1.9 0.1-1.1 0-1.9-0.1-0.8-0.1-1.3-0.3-0.4-0.2-0.6-0.4-0.2-0.3-0.2-0.7v-51.9h-16.8q-0.4 0-0.7-0.1-0.3-0.2-0.4-0.6-0.2-0.4-0.3-1.1-0.2-0.6-0.2-1.5 0-0.9 0.2-1.5 0.1-0.7 0.3-1.1 0.1-0.4 0.4-0.6 0.3-0.2 0.7-0.2h41.6q0.3 0 0.6 0.2 0.3 0.2 0.5 0.6 0.2 0.4 0.3 1.1 0.1 0.6 0.1 1.5zm15.7 55.2q0 0.4-0.2 0.7-0.2 0.2-0.7 0.4-0.4 0.2-1.2 0.3-0.8 0.1-1.9 0.1-1.1 0-1.9-0.1-0.8-0.1-1.3-0.3-0.4-0.2-0.6-0.4-0.2-0.3-0.2-0.7v-57.4q0-0.4 0.2-0.7 0.2-0.2 0.7-0.4 0.5-0.2 1.3-0.3 0.7-0.1 1.8-0.1 1.1 0 1.9 0.1 0.8 0.1 1.2 0.3 0.5 0.2 0.7 0.4 0.2 0.3 0.2 0.7zm60-2.1q0 0.9-0.3 1.6-0.3 0.6-0.8 1.1-0.5 0.4-1.1 0.6-0.6 0.1-1.2 0.1h-2.7q-1.2 0-2.1-0.2-1-0.3-1.8-0.9-0.8-0.7-1.7-1.9-0.8-1.1-1.7-2.9l-18.3-34q-1.4-2.7-2.9-5.6-1.4-2.9-2.7-5.6h-0.1q0.1 3.3 0.2 6.8 0 3.5 0 6.9v36.1q0 0.3-0.2 0.6-0.2 0.3-0.6 0.5-0.5 0.1-1.2 0.3-0.8 0.1-2 0.1-1.1 0-1.9-0.1-0.7-0.2-1.2-0.3-0.4-0.2-0.6-0.5-0.2-0.3-0.2-0.6v-55.2q0-1.8 1-2.6 1.1-0.8 2.3-0.8h3.9q1.4 0 2.3 0.2 1 0.2 1.7 0.8 0.8 0.5 1.4 1.5 0.7 0.9 1.5 2.3l14 26.3q1.3 2.4 2.5 4.7 1.2 2.3 2.3 4.5 1.1 2.2 2.2 4.4 1.1 2.1 2.2 4.3 0-3.7-0.1-7.6 0-4 0-7.6v-32.5q0-0.3 0.2-0.6 0.2-0.3 0.7-0.5 0.4-0.2 1.2-0.3 0.7-0.1 2-0.1 1 0 1.8 0.1 0.8 0.1 1.2 0.3 0.5 0.2 0.7 0.5 0.1 0.3 0.1 0.6c0 0 0 55.2 0 55.2zm59.9-48.4q0 0.9-0.1 1.6-0.1 0.6-0.3 1.1-0.2 0.4-0.5 0.6-0.2 0.2-0.6 0.2-0.5 0-1.8-0.9-1.3-0.9-3.5-1.9-2.1-1.1-5.2-2-3-0.9-7.2-0.9-4.9 0-8.8 1.8-3.9 1.9-6.7 5-2.7 3.2-4.1 7.6-1.5 4.4-1.5 9.5 0 5.8 1.6 10.2 1.6 4.5 4.4 7.5 2.8 3.1 6.7 4.6 3.9 1.6 8.6 1.6 2.8 0 5.6-0.7 2.8-0.6 5.3-2v-17.4h-13.9q-0.8 0-1.1-0.8-0.4-0.8-0.4-2.4 0-0.9 0.1-1.5 0.1-0.7 0.3-1.1 0.2-0.4 0.4-0.5 0.3-0.2 0.7-0.2h19q0.5 0 1 0.2 0.5 0.1 1 0.5 0.4 0.4 0.6 1 0.2 0.7 0.2 1.5v22.8q0 1.2-0.4 2.1-0.4 0.9-1.7 1.5-1.4 0.7-3.5 1.5-2.1 0.8-4.4 1.3-2.3 0.6-4.6 0.9-2.3 0.2-4.5 0.2-7 0-12.4-2.1-5.5-2.2-9.2-6.1-3.8-4-5.8-9.6-2-5.5-2-12.4 0-7.1 2.2-12.9 2.1-5.7 6-9.8 3.9-4.1 9.4-6.3 5.5-2.2 12.1-2.2 3.5 0 6.5 0.6 3 0.6 5.3 1.4 2.3 0.8 3.9 1.7 1.6 1 2.2 1.6 0.6 0.6 0.8 1.4 0.3 0.7 0.3 2.2z"/>
	</g>
	<path id="Layer" class="s1" d="m244 148.6l63.5 37.5-73.5 5.8 10.4 73.1-50.4-53.9-50.7 53.7 10.7-73.1-73.5-6.1 63.7-37.2-41-61.4 68.8 26.6 22.3-70.3 22.1 70.4 68.8-26.3z"/>
	<path id="Layer" fill-rule="evenodd" class="s1" d="m194 367.4c-95.6 0-172.9-77.4-172.9-173.1 0-95.8 77.3-173.2 172.9-173.2 95.7 0 173 77.4 173 173.2 0 95.7-77.3 173.1-173 173.1zm167.6-173.1c0-92.8-74.9-167.8-167.6-167.8-92.7 0-167.6 75-167.6 167.8 0 92.7 74.9 167.7 167.6 167.7 92.7 0 167.6-75 167.6-167.7z"/>
</svg>