<svg version="1.2" xmlns="http://www.w3.org/2000/svg" viewBox="0 0 1589 852" width="1589" height="852">
	<title>71080481_1625438067598520_6708666490318487552_n-svg</title>
	<style>
		.s0 { fill: #ffffff } 
	</style>
	<g id="#000000ff">
		<path id="Layer" class="s0" d="m24 359.5c95.2-119.8 190.2-239.7 285.3-359.4q120.3 126.1 240.5 252.2l1-0.4c64.7-81.3 129.2-162.8 193.8-244.2 2.3-2.5 3.7-6 6.9-7.4 5.5 6.8 12.2 12.7 18.3 19 61.4 61.5 122.3 123.4 183.7 185 63 63.1 125.5 126.6 188.5 189.8 1.6 1.6 3.5 3.2 4.3 5.5-2.1 0.3-4.1 0.7-6.1 1.2-10.9 3.3-22.1 5.5-33.2 7.6q-3.3 0.5-6.4 0.9c-2.5 0.6-5 0.9-7.4 1.3-4.5 0.9-9.1 1.7-13.7 2.4-2.4 0.6-4.9 0.9-7.3 1.3-2.5 0.5-4.9 0.9-7.3 1.3-2.5 0.5-5 0.8-7.5 1.2-2.9 0.6-6 1-8.9 1.8-38.9-30.1-77.2-61-115.9-91.4q-89.5-70.7-179-141.4c-19.1-15.3-38.6-30.1-57.5-45.7q-64.1 61.8-128.2 123.7c-1.2 1.3-4.6 3.1-2.3 5.1 113.9 119.5 227.9 239 341.8 358.5 3.3 3.2 6.3 6.6 9.3 10.2-39.4-30.1-79.2-59.5-118.7-89.3q-135.1-101.4-270.2-202.9c-7.9-6.1-16.2-11.8-23.9-18.1-0.5 0-1.6 0.1-2.1 0.1-13.5 13.4-27.5 26.5-40.9 40.1-1.5 1.2-2.9 2.5-4.4 3.7 12.4-16.6 25.8-32.4 38.4-48.9q0.7-1.6-0.9-2.3c-74.3-55.7-148.5-111.5-222.8-167.2-5.6-4.2-11.1-8.6-17-12.5-50.6 49.5-101.9 98.3-152.6 147.6-27.6 26.3-54.7 53-82.3 79.2-1.6 1.3-3 3-4.2 4.7 1.9-4.8 5.9-8.2 8.9-12.3z"/>
	</g>
	<g id="#ef3e36ff">
		<path id="Layer" class="s0" d="m0.3 21.1c10.2-0.8 20.4-0.5 30.5-0.5 76 0.1 152-0.1 228 0.1-5.7 7-11 14.4-16.9 21.2-80.5-6.8-161-14.2-241.6-20.8zm365.1-0.5c111.6-0.1 223.1-0.3 334.7-0.3-17.3 21.7-34.4 43.7-52 65.2-81.1-8.5-162.1-17.5-243.2-26-4.9-2.3-8-7.3-12-10.9-9.1-9.4-18.4-18.6-27.5-28zm441.2 0q160.6 0 321.2 0c54.9 0.3 109.2 21.2 150.5 57.2 49.2 42.1 80.2 105.2 82.3 170.1 1.3 9.5-0.3 19-0.4 28.5-3.5 47.2-22 93.2-52 129.8-22.4 27.5-51 50-83.2 64.9 93 97.3 186.1 194.4 279.3 291.6 28.1 29.6 56.6 58.7 84.5 88.4-74.3-57.7-148.2-115.9-222.3-173.8q-144.8-113.4-289.7-226.8c-6.8-5.6-14.1-10.6-20.6-16.5 13.3-1.7 26.5-4.2 39.7-6.4 31.5-5.4 64-9.4 93.2-23.3 18-8.3 33.9-20.7 47.8-34.9 27.7-27.3 44.6-65.3 46.1-104.2 1.5-28.7-5.3-57.9-19.2-83.2-23.7-43.1-67.9-74.5-116.6-81.7-15.4-2.4-31-1.7-46.5-1.8-72.8-0.2-145.7-0.2-218.5-0.3-25.1-26-50.5-51.6-75.6-77.6z"/>
	</g>
</svg>