<svg version="1.2" xmlns="http://www.w3.org/2000/svg" viewBox="0 0 1655 1737" width="1655" height="1737">
	<title>49913098_2160238207559410_2058748378124124160_n-svg</title>
	<style>
		.s0 { fill: #ffffff } 
	</style>
	<g id="#007eb1ff">
		<path id="Layer" class="s0" d="m790.9 0.8c20.4-2.2 41.4 3.2 58.4 14.6c14.9 10 26.7 24.6 33.2 41.3c8 20 8.2 43 0.8 63.2c-5.6 15.6-15.8 29.4-28.8 39.6c-16.1 12.6-36.6 19.4-57 18.9c-20.2-0.5-40.2-8.2-55.6-21.3c-17.2-14.4-28.2-35.7-30.7-57.9c-2.5-21.4 3.3-43.6 15.7-61.2c14.5-21 38.6-34.9 64-37.2zm-199.2 182c17.4-2.9 35.8 0.8 50.7 10.3c13.8 8.7 24.4 22.2 29.6 37.6c6.7 19.7 4.6 42.3-6.1 60.3c-9.5 16.4-25.9 28.8-44.4 33.4c-18.7 4.8-39.2 1.8-55.7-8.3c-16.1-9.7-28.1-26-32.6-44.2c-4.5-17.7-1.9-37 6.9-52.9c10.5-19.1 30.1-32.9 51.6-36.2zm190.4 63.5c14-3 29-0.8 41.6 6c15.4 8 26.8 23.2 30.6 40.1c4.6 19.5-1.3 41.2-15.2 55.6c-9.8 10.5-23.5 17.3-37.8 18.7c-15.6 1.8-31.8-2.8-44.1-12.5c-14.3-10.9-23-28.4-23.5-46.3c-0.6-16.8 6.3-33.8 18.4-45.5c8.1-8.2 18.8-13.7 30-16.1zm747.8 278.4c19.7-1.8 40.1 3.1 56.7 14c18.8 12.2 32.6 31.7 37.9 53.5c4.7 19.6 2.7 40.9-5.9 59.2c-8.8 18.9-24.6 34.4-43.6 43c-22.1 10.3-48.5 10.6-71 1.4c-19.1-7.8-35.2-22.5-44.7-40.7c-9-16.8-12.3-36.6-9.3-55.4c3.2-21.4 14.6-41.5 31.4-55.1c13.7-11.3 30.8-18.3 48.5-19.9zm-1453.6 57.5c19-2.9 39 0.6 56 9.9c16.9 9.3 30.7 24.2 38.6 41.9c7.3 16.4 9.3 35 6.1 52.6c-3.7 20.3-14.7 39.1-30.7 52.2c-15.5 13-35.6 20.3-55.9 20.4c-19.6 0.4-39.2-6.1-54.8-18c-13.8-10.5-24.6-25.2-30.2-41.7c-8-22.9-6.1-49.2 5.3-70.7c12.8-24.8 37.9-42.7 65.6-46.6zm1260.4 57.4c19.9-3.9 41.7 2.8 55.7 17.7c15.5 15.7 20.9 40.3 13.9 61.2c-6.4 21-25.2 37.4-46.9 41.1c-22.1 4.4-46.3-4.8-59.8-23c-13.5-17.4-16.1-42.1-7.1-62c7.9-18 25-31.4 44.2-35zm-1062.6 22c13.8-2.9 28.5-1.1 41 5.5c14.2 7.3 25.5 20.4 30.2 35.8c5.4 16.9 3 36.2-6.7 51.2c-8.9 14.2-24 24.5-40.6 27.3c-14.9 2.8-30.9-0.3-43.7-8.4c-13.7-8.7-23.8-23-27-39c-3.7-17.1 0.4-35.8 11.1-49.6c8.7-11.6 21.6-19.8 35.7-22.8zm-104.9 153.8c20.1-2.8 41.2 3.5 56.5 16.7c12.6 10.6 21.3 25.7 24.2 41.9c3.7 19.6-1.1 40.6-13.2 56.6c-11.6 15.9-30.2 26.4-49.7 28.6c-15.7 1.9-32-1.6-45.6-9.8c-16.3-9.5-28.4-25.8-32.9-44.2c-5.1-19.5-1.5-41 9.6-57.8c11.3-17.4 30.5-29.4 51.1-32zm1188.3 376.3c18.9-2.6 38.8 2.8 53.8 14.6c17.3 13.3 28 34.9 27.9 56.8c0.4 21.6-9.7 43.2-26.6 56.7c-17.9 14.6-42.9 20-65.1 13.5c-21.7-5.7-40-22.3-48-43.2c-7.3-17.9-6.7-38.8 1.2-56.4c10-22.6 32.3-39.1 56.8-42zm-184.5 42.7c22.6-2.9 46.1 8.3 58.2 27.4c12.6 19.1 13 45.2 1.1 64.7c-11.3 19.2-33.7 30.9-55.8 29.5c-20.2-0.9-39.5-12.7-49.5-30.3c-11.5-19.7-10.8-45.8 2.2-64.6c9.7-14.9 26.2-24.9 43.8-26.7zm-657 37.8c19.5-3 40.3 4 53.6 18.5c15.4 16.2 20.7 41 13.2 62c-6.5 19.4-23.5 34.6-43.4 39.3c-20.7 5.2-44-1.6-58.6-17.4c-17.4-17.7-21.8-46.7-10.6-68.8c8.5-17.9 26.3-30.8 45.8-33.6zm808.5 112.6c21.5-3.5 44.3 1.3 62.5 13.3c19.1 12.3 33.2 32.2 38.1 54.5c4.9 20.5 2.1 42.7-7.7 61.4c-9.3 17.7-24.5 32.2-42.9 40.2c-21.4 9.4-46.6 10.2-68.3 1.6c-19.8-7.7-36.7-22.6-46.5-41.4c-11.7-22.1-13.5-49.2-4.8-72.6c10.7-29.7 38.3-52.5 69.6-57zm-685.2 30.4c21.9-3.2 45.1 4.3 60.7 20c16.4 15.7 24.4 39.5 21.1 61.9c-2.7 20.2-14.5 38.9-31.5 50.1c-16.4 11.2-37.6 14.8-57 10.2c-18.4-4.2-34.8-16.1-44.8-32.1c-13.2-21-14.4-48.9-3.2-70.9c10.4-20.9 31.5-36.2 54.7-39.2zm-230.8 22.1c22.7-3.7 46.6 1.9 65.4 15.2c16.3 11.4 28.4 28.6 34 47.7c5.7 19.2 4.5 40.2-3 58.7c-7.9 19.7-23.3 36.4-42.4 45.8c-18.8 9.6-41 12.1-61.4 7c-19.4-4.7-37.1-16.3-49.2-32.2c-14.2-18.4-20.8-42.5-17.7-65.5c2.2-17.9 10-35.1 22.1-48.4c13.5-15 32.3-25.2 52.2-28.3z" />
	</g>
	<g id="#004c8cff">
		<path id="Layer" class="s0" d="m1265.9 122.8c20.2 0.1 40.4 6.9 56.1 19.7c16.6 13.2 28 32.6 31.8 53.4c4.2 22.9-1 47.4-14.3 66.5c-12.7 18.5-32.6 31.9-54.6 36.5c-22.5 4.9-46.7 0.7-66.1-11.6c-23.2-14.4-38.9-40.1-41.2-67.3c-2.9-28.2 8.9-57.4 30.6-75.6c15.9-13.8 36.8-21.4 57.7-21.6zm-274.8 45.2c15.2-2.5 31.2-0.6 45 6.4c16.7 8.2 30 23.1 36.2 40.7c6.4 17.9 5.3 38.4-3 55.5c-7.6 16-21.3 28.9-37.6 35.7c-18.1 7.5-39.3 7.3-57.2-0.8c-15.6-6.9-28.6-19.4-35.8-34.8c-9.9-20.2-9.4-45.1 1.1-65c10.1-19.5 29.6-34 51.3-37.7zm-655.9 8.7c18.7-3.3 38.4-0.4 55.2 8.3c17.6 8.7 32.1 23.6 40.4 41.4c7.8 16.4 10.1 35.2 7.2 53.1c-4 23.8-18.2 45.8-38.4 59c-15.1 10.1-33.4 15.4-51.5 14.8c-36.6-0.2-71.3-25.8-82.3-60.6c-7.5-22.5-5.8-48.1 5.3-69.2c12.5-24.5 36.9-42.5 64.1-46.8zm786.8 156.2c18-1.9 36.8 4.6 49.4 17.6c9.2 9.1 15.3 21.2 17.2 33.9c2.6 16.4-1.9 33.9-12.2 47c-10 12.9-25.5 21.4-41.7 23c-14.9 1.6-30.3-2.5-42.4-11.3c-13.3-9.6-22.4-24.8-24.5-41.1c-2.7-18.5 3.7-38.1 17-51.3c9.8-10 23.3-16.3 37.2-17.8zm-657.3 37.9c17.1-2.6 35.3 2.6 48.4 13.9c13.8 11.6 21.9 29.7 21.3 47.7c0 14.4-5.7 28.5-15.1 39.2c-9.9 11.4-24.3 18.8-39.3 20.3c-19.7 2.4-40.2-5.9-53-21c-9.4-10.9-14.8-25.3-14.5-39.7c-0.5-20.5 10.8-40.8 28.2-51.6c7.2-4.6 15.5-7.6 24-8.8zm-190.7 59.8c18-3.5 37.3-0.1 52.8 9.7c15.7 9.8 27.3 26 31.8 44c4.8 19.1 1.3 40.2-9.5 56.8c-10.5 16.5-28.2 28.3-47.4 31.8c-14.1 2.7-28.9 1.1-41.9-4.6c-16.1-6.7-29.4-19.5-36.8-35.3c-9.1-18.5-9.5-40.9-1.4-59.8c9-21.7 29.4-38.1 52.4-42.6zm1188.5 376.3c23.1-4.7 48.2 2.8 64.8 19.5c17.2 16.6 24.8 42 20.2 65.4c-3.6 19.2-15.5 36.7-32 47.2c-18.9 12.3-43.8 14.9-64.8 6.7c-18.9-7-34.6-22.4-41.7-41.3c-8.4-20.9-6.2-45.6 5.9-64.7c10.3-17 28.1-29.1 47.6-32.8zm-95.3 175.9c20.6-0.4 40.8 10.3 51.9 27.6c12.9 19.2 13.3 45.8 1 65.4c-10.7 17.9-31.2 29.4-52.1 29.1c-21.2 0.4-42-11.6-52.6-29.9c-11.9-19.8-11.2-46.3 2-65.3c10.9-16.5 30.1-26.8 49.8-26.9zm-1073.6 23.2c16.1-3.5 33.6-0.4 47.3 8.9c14 9.3 23.8 24.8 26.3 41.5c1.9 12.4-0.1 25.5-5.9 36.8c-8.1 16.5-24.2 28.6-42.1 32.3c-14.8 2.9-30.7 0.5-43.6-7.3c-14.2-8.4-24.9-22.8-28.4-39c-3.5-15.9-0.6-33.2 8.3-46.8c8.6-13.4 22.6-23.1 38.1-26.4zm1256.9 1.3c20.4-3.6 42.1 0.2 60.1 10.8c17.1 10.1 31 26.1 38.1 44.8c9.4 24.5 7.5 53.1-5.6 75.9c-8.6 15.2-21.8 27.9-37.5 35.7c-23.2 11.9-51.7 12.6-75.5 2.2c-16.7-7.2-31-19.8-40.6-35.3c-14-22.7-16.8-52-7.6-77c10.6-29.5 37.6-52.2 68.6-57.1zm-1446 56.3c20.7-2.9 42.4 1.6 60.1 12.8c15.7 9.9 28 24.8 35.1 42c13.2 31.9 5.7 71.4-19 95.7c-16.4 17-39.8 27-63.4 26.7c-17.6 0.2-35.1-5.1-49.7-14.8c-15.2-10.3-27.2-25.1-33.7-42.2c-7.6-19.7-7.7-42.2-0.7-62c10.6-30.7 39.2-53.9 71.3-58.2zm201.5 128.3c24.8-3.8 51 6.3 66.7 25.8c16.2 19.4 20.7 47.5 11.8 71.1c-6.7 18.2-21.1 33.6-39 41.2c-21.1 9.3-46.6 7.7-66.2-4.3c-21-12.3-34.7-35.8-35-60.1c-0.7-16.8 5-33.8 15.4-47c11.2-14.4 28.3-24.1 46.3-26.7zm540.9 168.4c22.3-4.6 46.7 4.5 60.3 22.8c14.1 18.2 16.5 44.5 5.7 64.9c-9 18.3-27.9 31.1-48.1 33c-21.7 2.4-44.2-7.9-56.4-26c-11.7-16.6-14.1-39.2-6.3-58c7.5-18.8 24.9-33 44.8-36.7zm190.6 40.3c19.5-3.4 40.3 1.6 56 13.6c17.9 13.3 29 35.4 28.7 57.7c0.3 23.8-12.2 47.4-32.1 60.4c-18.6 12.6-43.2 15.5-64.3 8.1c-18.8-6.5-34.5-21.1-42.4-39.4c-8.3-18.8-7.9-41.2 0.9-59.8c9.7-21.1 30.2-36.8 53.2-40.6zm-158.7 158.8c20.6-2.5 41.9 2.7 59.1 14c16.6 10.9 29.5 27.5 35.6 46.4c7.2 21.6 5.7 46-4.3 66.6c-8.8 18.5-24.3 33.8-43 42.3c-20.9 9.7-45.6 10.8-67.3 2.9c-16.3-5.8-31-16.5-41.3-30.5c-14.2-19-20.3-43.7-16.6-67.1c3.5-21.9 15.3-42.5 32.8-56.1c12.9-10.3 28.7-16.7 45-18.5z" />
	</g>
	<g id="#d91b5cff">
		<path id="Layer" class="s0" d="m1339.3 394.1c21.5-2.5 43.9 3.6 60.9 17.1c17.3 13.4 28.8 33.9 31.3 55.6c2.6 20.7-3 42.3-15.3 59.1c-13 18-33.5 30.4-55.5 33.4c-22.3 3.3-45.9-2.9-63.5-17c-16.1-12.6-27.1-31.3-30.5-51.3c-3.6-21.1 1.1-43.5 13.3-61.1c13.2-19.9 35.6-33.3 59.3-35.8z" />
	</g>
	<g id="#15314cff">
		<path id="Layer" class="s0" d="m596.1 679.2c41.1-12.1 84.9-17.1 127.4-10.1c35.6 6 70.1 22 95.6 48c27-20.8 58.1-36.3 91.1-44.7c50-12.9 104.9-6.5 150 19c31.5 17.6 57.4 45.7 70.9 79.4c6.6 16.3 10.5 33.6 11.8 51.1c0.9 10.6 0.6 21.3 0.6 31.9c0.1 85.5 0 171 0.1 256.5c-32.5 8.8-67.2 8.7-99.6 0q0-125.8 0-251.7c-0.9-23.6-5.6-48.3-20.1-67.5c-11-15-28.2-24.6-46.3-28.3c-24.9-5.1-51.5-3.1-75.2 6.6c-14.5 6-27.8 14.7-39.7 24.9c3 13.1 4.8 26.5 5.1 39.9c0 92 0 184.1 0 276.1c-32.3 8.7-66.9 8.8-99.2 0q0-121.5 0-243c-0.3-21.3-2.6-43.3-12.1-62.7c-6.8-14.3-18-26.5-32.1-33.8c-18.7-9.8-40.5-11.8-61.3-10.3c-25.2 2.1-50.2 8.7-72.5 20.8c-0.8 2.4-0.2 5.2-0.4 7.8q0.1 160.6 0 321.3c-32.3 8.7-66.8 8.3-99.2 0.1c0-124.8 0-249.7 0-374.5c29.7-27.3 66.9-45 105.1-56.8z" />
	</g>
</svg>