<svg version="1.2" xmlns="http://www.w3.org/2000/svg" viewBox="0 0 1560 939" width="1560" height="939">
	<title>download (7)-svg</title>
	<defs>
		<clipPath clipPathUnits="userSpaceOnUse" id="cp1">
			<path d="m0 0.23h1559.43v590.95h-1559.43z"/>
		</clipPath>
	</defs>
	<style>
		.s0 { fill: #231f20 } 
	</style>
	<g id="Layer">
		<g id="Layer">
			<g id="Clip-Path" clip-path="url(#cp1)">
				<path id="Layer" fill-rule="evenodd" class="s0" d="m1555.3 130.4l-47.5 17.4c-18.8-60.2-72-99-144-99-78.6 0-130.2 39.6-130.2 106.4 0 143.4 325.8 67.6 325.8 269.5 0 96.4-76.9 164-191.5 164-106.4 0-170.3-51.1-214.5-132.7l44.2-27.2c29.5 62.7 83.5 111.3 165.4 111.3 94.9 0 144-43.7 144-116.2 0-144.3-325.7-73.4-325.7-269.6 0-116.2 103.9-154.1 180.8-154.1 86.8 0 165.4 39.6 193.2 130.2zm-481.3 460.8l-94.9-102.2c-34.4 54.4-81.1 93.9-158 93.9-99.1 0-172-69.2-172-154.1 0-70.9 43.5-114.5 126.9-162.4-47.4-47.7-73.6-87.3-73.6-134.3 0-68.4 57.3-122.8 126.8-122.8 73.7 0 128.6 54.4 128.6 122.8 0 65.9-51.6 110.4-103.2 144.2l117.9 129.4 69.6-113.7 41.7 26.4-76.9 126.1 105.6 112.9c0 0-38.5 33.8-38.5 33.8zm-372.4-163.2c0 58.5 52.3 107.2 119.5 107.2 60.6 0 91.6-28.1 125.2-82.5 0 0-137.5-150-137.5-150-74.5 41.2-107.2 74.2-107.2 125.3zm52.3-295.9c0 32.1 21.3 59.3 68 109.6 54.8-32.1 85.1-65.9 85.1-109.6 0-42.9-28.6-76.7-77.8-76.7-45.8 0-75.3 36.3-75.3 76.7zm-235.7-124.5v575.3h-52.4v-469.7l-188.3 367.6h-36.8l-188.3-366.8v468.9h-52.4v-575.3h54.9l204.6 397.3 204.7-397.3z"/>
			</g>
		</g>
		<path id="Layer" fill-rule="evenodd" class="s0" d="m566 902.4c0 20.7-17.5 35.8-41.6 35.8-21.8 0-37.4-9-46.2-26.9l-1.5-3 13-7.7 1.6 3.5c6.4 13.2 17.1 19.3 33.5 19.3 15.8 0 26.3-8.5 26.3-21.2 0-11.3-10.6-15.3-28.2-20.3l-0.2-0.1c-18.1-5.4-38.6-11.6-38.6-34.4 0-12.6 8.2-33.9 39-33.9 11.9 0 33.1 3.5 41.3 27l1.2 3.4-14.2 4.9-1.2-3.3c-3.8-10.7-13.8-17.2-26.7-17.2-15.3 0-24.4 7.2-24.4 19.1 0 10.9 10.3 14.6 27.1 19.4l0.5 0.2c18.4 5.3 39.3 11.3 39.3 35.4zm406.5-1.1c0 20.8-15.3 36-42.2 36-26.9 0-42.2-14.6-42.2-36 0-14.2 9.1-23.2 20.1-28.4-10.3-5.7-16.3-14.3-16.3-26.4 0-21.6 17.3-32.5 38.4-32.5 21.1 0 38.4 10.9 38.4 32.5 0 12.1-6 20.7-16.4 26.4 11.1 5.2 20.2 14.2 20.2 28.4zm-42.2-34.8c11.8 0 23.5-6.4 23.5-19.1 0-12.8-8.4-20.2-23.5-20.2-15.1 0-23.5 7.4-23.5 20.2 0 11.9 10.8 19.1 23.5 19.1zm26.6 34.9c0-14.5-12.7-21.7-26.6-21.7-13.9 0-26.6 7.2-26.6 21.7 0 15.4 11.7 22.8 26.6 22.8 14.9 0 26.6-7.4 26.6-22.8zm131.7-0.1c0 20.8-15.3 36-42.2 36-26.9 0-42.2-14.6-42.2-36 0-14.2 9.1-23.2 20.1-28.4-10.3-5.7-16.3-14.3-16.3-26.4 0-21.6 17.3-32.5 38.4-32.5 21.1 0 38.4 10.9 38.4 32.5 0 12.1-6 20.7-16.4 26.4 11.1 5.2 20.2 14.2 20.2 28.4zm-42.2-34.8c11.8 0 23.5-6.4 23.5-19.1 0-12.8-8.4-20.2-23.5-20.2-15.1 0-23.5 7.4-23.5 20.2 0 11.9 10.8 19.1 23.5 19.1zm26.6 34.9c0-14.5-12.7-21.7-26.6-21.7-13.9 0-26.6 7.2-26.6 21.7 0 15.4 11.7 22.8 26.6 22.8 14.9 0 26.6-7.4 26.6-22.8zm-688.5 19.6h63.7v14.9h-79.2v-121.2h75.8v14.9h-60.3v37.7h56.2v15h-56.2zm343.1 5.9c0 5.6-4.6 10.3-10.2 10.3-5.5 0-10.2-4.8-10.2-10.3 0-1.3 0.3-2.6 0.9-3.9 0.5-1.2 1.2-2.3 2.2-3.2 0.9-1 2-1.7 3.3-2.2 1.2-0.5 2.5-0.8 3.8-0.8 5.5 0 10.2 4.6 10.2 10.1zm88-112.3h30.5v121.4h-15.5v-106.4h-15zm394.6 92.5h-15.6v28.8h-15v-28.8h-61.8v-10.4l59-82.3h17.8v78.3l15.6 1.5zm-30.6-72.4l-40.8 56.9-0.5 0.7h41.3c0 0 0-57.6 0-57.6zm-585.1-20h89.1v15h-36.8v106.3h-15.5v-106.3h-36.8z"/>
	</g>
</svg>