<svg version="1.2" xmlns="http://www.w3.org/2000/svg" viewBox="0 0 1551 1549" width="1551" height="1549">
	<title>MLAB_BIG</title>
	<style>
		.s0 { fill: #0098aa } 
	</style>
	<g id="Group_1">
		<path id="Path_1" fill-rule="evenodd" class="s0" d="m1550.9 1376.9c0 96.8-69.2 172.1-165.2 172.1h-1213.6c-96.1 0-172.1-75.3-172.1-172.1v-1217.7c6.9-96.1 82.9-165.2 172.1-158.3h1213.6c89.8-6.9 158.2 62.2 165.2 151.4zm-1344.3-206.7l317.3-673.8h669l-41.5-82.9c-13.8-27.7-41.5-27.7-69.1-27.7h-613.7c-27.7 0-55.3 0-68.4 34.6l-303.4 598.5c-13.9 34.5-13.9 69.1 0 96.7 13.8 27.7 40.7 61.5 68.4 61.5h41.4zm1248.2-144.4q0-10.4 0 0l-165.9-358c-6.9-6.2-6.9-13.1-13.8-13.1h-599.9l-261.9 536.3h972.4c27.6 0 55.3-27.7 69.1-54.6 13.8-48.4 13.8-83 0-110.6z"/>
	</g>
</svg>