<svg version="1.2" xmlns="http://www.w3.org/2000/svg" viewBox="0 0 1688 290" width="1688" height="290">
	<title>Screenshot 2022-01-30 at 08-svg</title>
	<style>
		.s0 { fill: #010101 } 
	</style>
	<g id="#010101ff">
		<path id="Layer" class="s0" d="m334.3 1.1c4.7-0.4 9.5-0.6 14.2 0.1c13.6 3.6 22.7 19.1 19 32.7c-2.2 9.8-10.2 17.8-19.9 20.4c-7.9 1.1-16.8 0.7-23.2-4.7c-6.3-4.9-10.8-12.4-10.9-20.6c-1.1-12.6 8.3-25.4 20.7-27.9z" />
		<path id="Layer" class="s0" d="m397.5 6.9c-0.2-1.3 0.2-3.2 1.8-3.2c14.7 0 29.4-0.1 44 0.1c0.4 93.3 0 186.7 0.2 280c-15.3 0.8-30.6 0.1-46 0.3c-0.1-92.4 0.1-184.8 0-277.2z" />
		<path id="Layer" class="s0" d="m1563.5 4.4c15.2-0.1 30.5-0.2 45.7 0c-0.1 93.3 0 186.5 0 279.7c-15.2-0.2-30.5 0.5-45.7-0.3c0.1-93.1 0.1-186.3 0-279.4z" />
		<path id="Layer" class="s0" d="m0.7 4.5c19.8-0.3 39.7-0.2 59.5-0.1c12.4 28.9 25.5 57.4 38.1 86.2c14.8 33.4 29.7 66.8 44.5 100.3c4.5-8.5 8-17.6 12-26.4c23.7-53.3 47.1-106.8 70.9-160.1c19.5-0.1 39-0.2 58.5 0c-0.1 93.3 0 186.5-0.1 279.7c-15.2 0-30.5 0.2-45.8-0.1q0-79.5 0-159c0-12.1 0.8-24.1 1.4-36.1c0.7-3.9 1-7.9 0.8-11.9c-0.5 0.3-1.3 1-1.8 1.3c-6.8 19.1-14.2 37.9-22.9 56.2c-24.8 50.8-49.1 101.7-73.8 152.5c-23.2-47.7-46.1-95.5-69.1-143.1c-11.1-21.3-20.3-43.5-27.5-66.3c-0.5-0.2-1.4-0.6-1.8-0.8c-0.4 5.4 1.1 10.7 0.9 16.1c0 8.4 0.9 16.7 1 25.1c0 55.3-0.1 110.5 0 165.8c-5.8 0.6-11.7 0.2-17.5 0.3c-9.1-0.1-18.2 0.3-27.3-0.2c-0.1-93.1 0-186.3 0-279.5z" />
		<path id="Layer" class="s0" d="m477.3 19c0.1-4.9-0.2-9.9 0.2-14.8c15 0.3 30.1 0 45.1 0.2c0 93.2 0.1 186.5 0 279.7c-15.1 0-30.2 0.1-45.3 0c0-88.4 0-176.7 0-265.1z" />
		<path id="Layer" class="s0" d="m901.2 4.4c15.1-0.2 30.2-0.1 45.3 0c0.1 44.9 0 89.9 0.1 134.8c6.9-7 13-14.7 19.6-22c30.7-34.9 61.3-70 92.1-104.9c2.1-2.7 4.6-5.1 6.7-7.9c18.1-0.1 36.3-0.2 54.4 0.1c-5.2 8.1-12.5 14.7-18.5 22.3c-32.6 37.7-65.1 75.5-97.8 113.2c31.6 37.3 63.8 74.2 95.5 111.4c9.4 10.5 18 21.6 27.7 31.8c0.4-69.6 0.1-139.3 0.2-208.9q22.6-0.1 45.2 0c0 6.1-0.1 12.2 0 18.3c8.3-7.9 17.8-14.8 28.7-18.8c11.9-4.2 24.6-6.3 37.2-5.6c19.9 0.2 40.9 6.5 54.6 21.6c13.2 14.3 18.7 34.1 19.2 53.2c0.1 47 0.1 94.1 0 141.1q-22.5 0-45.1 0c-0.1-44.4 0-88.7 0-133.1c-0.8-10.8-2.2-22.3-9.2-31c-5.7-7.3-14.7-10.9-23.6-12.1c-11.1-1.2-22.8-0.5-32.9 4.7c-11.6 5.2-20.1 15.8-24.4 27.6c-3.4 8.2-3.6 17.1-4.5 25.7c0 39.5 0 78.8-0.1 118.2c-32.9 0-65.8 0-98.7 0c-3.7 0.5-5.2-3.3-7.4-5.5q-48-55.5-96-111.1c-7.6-8.9-15.1-17.8-23-26.4c0 47.7 0.1 95.3 0 143q-22.6 0.1-45.3 0c-0.1-93.2 0-186.4 0-279.7z" />
		<path id="Layer" class="s0" d="m1642.8 4.4c14.9-0.2 29.9-0.1 44.9 0c0 93.2 0.1 186.5 0 279.7c-14.9-0.2-29.9 0.5-44.8-0.3c-0.2-93.1-0.1-186.2-0.1-279.4z" />
		<path id="Layer" fill-rule="evenodd" class="s0" d="m609.4 74.6c11.9-4.8 24.8-6.5 37.6-7c13.9 0.4 28 2.2 40.9 7.7c19.3 7.5 35 22.8 44.8 40.9c13.4 24.4 17 52.9 15.9 80.4c-52.7 0-105.4-0.1-158.1 0c1.8 17.2 10.5 34 24.5 44.4c7.3 5.6 16 8.9 25 10.5c6.4 0.4 12.7 0.4 19 0.1c12.3-1.7 24.7-7.1 32.1-17.4c3-4.3 5.6-9.3 5.8-14.7c16.5-0.4 33-0.3 49.5-0.1c-1.4 3.9-2.4 7.9-3.8 11.8c-6.1 15.9-16.7 30.1-30.5 40c-18.1 13-40.9 18.9-63.1 18.1c-28.9 0.8-58.2-11.1-77.3-33c-18.1-20.2-26.6-47.5-27.1-74.3c-0.6-24.7 5-50 18.8-70.8c11-16.6 27.2-29.7 46-36.6zm0.5 44.3c-11.5 10.2-18.2 25.2-19.4 40.4c37.4-0.1 74.8-0.1 112.2 0.1c0.1-5.4-1.3-10.7-2.8-15.8c-2.6-9.1-7.2-17.8-14.2-24.3c-9.6-9.6-23.4-14.1-36.7-13.9c-14.1-0.7-28.6 3.9-39.1 13.5z" />
		<path id="Layer" fill-rule="evenodd" class="s0" d="m1423.2 68.5c13-0.2 26.3-1.3 39 1.8c19.3 3.8 37.5 13.2 51.3 27.2c14.3 14.2 23.7 32.8 28 52.3c5.2 24.4 3.9 50.3-4.7 73.7c-5.2 13.2-12.5 25.7-22.7 35.6c-14.5 15.4-34.4 25-55.1 28.6c-10.5 2.2-21.3 1.6-32 1.4c-23.9-1.8-47.5-11.5-64.6-28.5c-12.7-12.2-21.5-28-26.6-44.7c-6.9-24.3-7.1-50.6 0.2-74.8c4.5-15.2 12.4-29.3 23.1-41c16.5-18 40-28.7 64.1-31.6zm6.3 39.2c-13 1.7-25.4 7.8-34.5 17.3c-11.4 11.7-16.9 27.9-18.4 43.9c-0.6 11.8-0.6 23.8 2.9 35.2c4.5 18.3 17.6 34.8 35.3 41.7c10.1 4.5 21.4 4.5 32.2 3.6c10.9-1.5 21.4-6.3 29.7-13.7c13.2-11.4 20-28.6 21.7-45.7c0.7-12.7 0.7-25.7-2.9-38.1c-3.4-10.6-8.6-20.9-16.9-28.5c-12.7-12.6-31.5-18-49.1-15.7z" />
		<path id="Layer" class="s0" d="m827.4 84.4c10-8.8 23.2-14.3 36.6-14.1c5.6 0.1 11.2-0.1 16.8 0.2c-0.2 14.3 0 28.5 0 42.8c-9 0-17.9-0.1-26.8 0c-10.3 0.1-21.2 3.6-28 11.6c-7.4 8.9-9.8 20.9-9.7 32.1c0 42.2-0.1 84.5 0 126.7c-9 0.9-18.2 0.2-27.3 0.4c-6.2-0.1-12.4 0.3-18.6-0.3c0.1-69.8 0.1-139.6 0-209.4c3.1-1 6.4-0.7 9.6-0.8c11.3 0.1 22.6 0 34 0.1c1.7-0.3 2.3 2 2.3 3.3c0.1 6.1-0.2 12.3 0.1 18.5c3.9-3.5 7-7.7 11-11.1z" />
		<path id="Layer" class="s0" d="m317.8 73.8c15.2-0.3 30.4-0.2 45.6-0.1c0.4 70.1 0 140.1 0.2 210.2c-10.2 0.6-20.4 0.1-30.6 0.2c-5.1 0-10.2 0.3-15.3-0.4c0.1-70 0-139.9 0.1-209.9z" />
	</g>
</svg>