<svg version="1.2" xmlns="http://www.w3.org/2000/svg" viewBox="0 0 1511 1089" width="1511" height="1089">
	<title>MeridianLink logo Connecting-svg</title>
	<style>
		.s0 { fill: #0261a4 } 
	</style>
	<g id="#0261a4ff">
		<path id="Layer" class="s0" d="m208.1 52.4c105.8-57.8 234.8-65.6 349.6-32.3 84.9 24.9 163.2 82.6 198.3 165.5 26.7-61.6 77.2-111.1 136.9-141.1 79.3-39.8 170.9-50.2 258.5-40.4 110.5 12.8 216.6 71 280.9 162.7 53.8 74.2 76.8 166.8 77.5 257.5 0.4 221.3 0.2 442.7 0.2 664.1-83.2 0-166.3 0-249.5 0-0.1-219.5 0.3-439-0.1-658.5-0.1-52.1-16.5-105.8-53.8-143.5-67.8-68.5-188.5-69.3-261-8.1-47.6 42.1-63.9 108.2-65.1 169.5-0.1 213.5 0 427 0 640.6q-124.8 0-249.4 0c-0.2-188.2-0.1-376.4-0.1-564.5-0.3-50.5 2.9-101.9-10.3-151.1-11.5-45.9-38.6-89.4-80.6-112.9-70.2-38.9-166.5-35.7-227.7 19.1-42.7 37.5-61.8 95.5-61.5 151.2 0 219.3 0.1 438.7 0 658.2-83.6-0.1-167.3 0.1-250.9-0.2v-668c3.9-57.2 11.2-115 32.9-168.4 32.5-84.3 95.4-156.7 175.2-199.4z"/>
	</g>
</svg>