<svg version="1.2" baseProfile="tiny-ps" xmlns="http://www.w3.org/2000/svg" viewBox="0 0 1791 148" width="1791" height="148">
	<title>MarshMcLennan_h_rgb_c-svg</title>
	<style>
		tspan { white-space:pre }
		.shp0 { fill: #ffffff } 
	</style>
	<g id="Layer">
		<g id="Layer">
			<g id="Layer">
				<path id="Layer" fill-rule="evenodd" class="shp0" d="M314.34 8.29L339.95 8.29L385.27 78.87L431.12 8.29L456.03 8.29L456.03 139.77L432.15 139.77L432.15 44.62L385.1 117.45L338.22 44.79L338.22 139.77L314.34 139.77L314.34 8.29ZM511.12 142.88C500.74 142.88 492.41 140.03 486.13 134.32C479.84 128.61 476.7 121.03 476.7 111.57C476.7 104.77 478.37 98.85 481.71 93.84C485.06 88.82 489.79 84.9 495.9 82.07C502.01 79.25 509.16 77.83 517.35 77.83C526.92 77.83 535.69 79.51 543.65 82.85L543.65 82.51C543.65 74.09 541.43 67.69 536.99 63.3C532.55 58.92 525.71 56.73 516.49 56.73C511.06 56.73 505.5 57.59 499.79 59.32C494.08 61.05 488.75 63.59 483.79 66.94L483.79 46.35C488.52 43.7 493.88 41.45 499.88 39.6C505.87 37.76 512.22 36.83 518.91 36.83C533.67 36.83 545.03 40.64 552.99 48.25C560.95 55.86 564.93 66.76 564.93 80.95L564.93 139.77L544.69 139.77L544.34 125.24C541.57 130.66 537.19 134.95 531.19 138.13C525.19 141.3 518.5 142.88 511.12 142.88ZM498.49 110.19C498.49 115.15 500.11 118.98 503.34 121.69C506.57 124.4 511.06 125.75 516.83 125.75C525.02 125.75 531.37 123.42 535.86 118.75C540.36 114.08 542.9 107.3 543.48 98.42C536.9 95.42 529.4 93.92 520.99 93.92C513.6 93.92 508.01 95.34 504.2 98.16C500.4 100.99 498.49 104.99 498.49 110.19ZM589.67 39.95L611.99 39.95L612.16 60.71C614.81 53.9 618.85 48.48 624.27 44.44C629.69 40.41 635.8 38.39 642.61 38.39C644.45 38.39 646.64 38.56 649.18 38.91C651.72 39.26 653.74 39.72 655.24 40.29L655.24 62.61C653.39 62.03 650.97 61.52 647.97 61.05C644.97 60.59 642.2 60.36 639.67 60.36C631.02 60.36 624.41 63.16 619.86 68.75C615.3 74.35 613.03 82.45 613.03 93.06L613.03 139.77L589.67 139.77L589.67 39.95ZM702.22 142.88C698.65 142.88 694.76 142.45 690.55 141.58C686.34 140.72 682.3 139.54 678.44 138.04C674.57 136.54 671.2 134.87 668.32 133.02L668.32 112.61C678.58 119.87 689.54 123.51 701.19 123.51C707.99 123.51 712.95 122.67 716.06 121C719.18 119.33 720.74 116.7 720.74 113.13C720.74 110.01 719.32 107.48 716.5 105.51C713.67 103.56 708.22 101.31 700.15 98.77C688.84 95.19 680.86 91.04 676.19 86.31C671.52 81.58 669.18 75.18 669.18 67.11C669.18 57.77 672.58 50.39 679.39 44.96C686.19 39.54 695.48 36.83 707.24 36.83C711.74 36.83 716.87 37.61 722.64 39.17C728.4 40.73 733.42 42.72 737.69 45.14L737.69 65.55C734 62.78 729.3 60.51 723.59 58.72C717.88 56.93 712.6 56.04 707.76 56.04C696.92 56.04 691.5 59.32 691.5 65.9C691.5 67.86 691.99 69.5 692.97 70.83C693.95 72.15 695.76 73.45 698.42 74.72C701.07 75.99 704.88 77.43 709.84 79.05C718.37 81.81 725.09 84.73 729.99 87.78C734.89 90.84 738.41 94.33 740.55 98.25C742.68 102.17 743.75 106.96 743.75 112.61C743.75 121.84 739.96 129.19 732.41 134.66C724.86 140.14 714.79 142.88 702.22 142.88ZM763.99 8.29L787.34 8.29L787.34 54.31C790.22 48.77 794.38 44.48 799.8 41.42C805.22 38.36 811.45 36.83 818.48 36.83C830.01 36.83 838.9 40.5 845.13 47.82C851.35 55.14 854.47 65.67 854.47 79.39L854.47 139.77L831.11 139.77L831.11 83.72C831.11 66.3 824.42 57.59 811.05 57.59C803.66 57.59 797.87 60.04 793.66 64.95C789.45 69.85 787.34 76.74 787.34 85.62L787.34 139.77L763.99 139.77L763.99 8.29ZM882.32 8.29L907.92 8.29L953.25 78.87L999.09 8.29L1024.01 8.29L1024.01 139.77L1000.13 139.77L1000.13 44.62L953.08 117.45L906.19 44.79L906.19 139.77L882.32 139.77L882.32 8.29ZM1097.6 142.88C1086.88 142.88 1077.54 140.75 1069.58 136.48C1061.62 132.22 1055.48 126.13 1051.15 118.23C1046.83 110.33 1044.67 101.07 1044.67 90.46C1044.67 79.74 1046.89 70.37 1051.33 62.35C1055.76 54.34 1061.94 48.08 1069.84 43.58C1077.74 39.08 1086.88 36.83 1097.26 36.83C1102.45 36.83 1107.23 37.47 1111.62 38.74C1116 40.01 1120.15 41.5 1124.07 43.23L1124.07 64.86C1120.27 62.55 1116.14 60.79 1111.7 59.58C1107.26 58.37 1103.02 57.77 1098.99 57.77C1089.65 57.77 1082.18 60.62 1076.59 66.33C1070.99 72.04 1068.19 79.8 1068.19 89.6C1068.19 99.86 1070.99 107.85 1076.59 113.56C1082.18 119.27 1089.93 122.12 1099.85 122.12C1103.89 122.12 1107.75 121.63 1111.44 120.65C1115.13 119.67 1119.34 118.14 1124.07 116.07L1124.07 136.65C1120.38 138.5 1116.32 140 1111.88 141.15C1107.43 142.3 1102.68 142.88 1097.6 142.88ZM1148.98 8.29L1173.2 8.29L1173.2 118.14L1233.75 118.14L1233.75 139.77L1148.98 139.77L1148.98 8.29ZM1300.7 142.88C1289.86 142.88 1280.23 140.86 1271.81 136.83C1263.39 132.79 1256.76 126.85 1251.92 119.01C1247.07 111.17 1244.65 101.54 1244.65 90.12C1244.65 79.62 1246.81 70.4 1251.14 62.44C1255.46 54.48 1261.43 48.22 1269.04 43.67C1276.66 39.11 1285.36 36.83 1295.17 36.83C1304.51 36.83 1312.67 38.88 1319.65 42.97C1326.62 47.07 1332.01 52.81 1335.82 60.19C1339.63 67.57 1341.53 76.22 1341.53 86.14C1341.53 87.52 1341.47 88.88 1341.36 90.2C1341.24 91.53 1341.07 93.52 1340.84 96.17L1267.49 96.17C1268.87 104.48 1272.56 110.96 1278.56 115.64C1284.55 120.31 1292.63 122.64 1302.78 122.64C1315.69 122.64 1327.57 118.61 1338.42 110.53L1338.42 131.12C1333.23 134.69 1327.32 137.55 1320.68 139.68C1314.05 141.81 1307.39 142.88 1300.7 142.88ZM1294.13 54.82C1286.75 54.82 1280.75 57.1 1276.14 61.66C1271.52 66.22 1268.64 72.59 1267.49 80.77L1319.39 80.77C1319.39 79.28 1319.27 77.95 1319.04 76.8C1317.89 69.65 1315.18 64.2 1310.91 60.45C1306.64 56.7 1301.05 54.82 1294.13 54.82ZM1362.46 39.95L1384.95 39.95L1385.12 55.86C1387.89 49.87 1392.07 45.2 1397.67 41.85C1403.26 38.51 1409.69 36.83 1416.96 36.83C1428.49 36.83 1437.37 40.5 1443.6 47.82C1449.83 55.14 1452.94 65.67 1452.94 79.39L1452.94 139.77L1429.59 139.77L1429.59 83.72C1429.59 66.3 1422.9 57.59 1409.52 57.59C1402.14 57.59 1396.34 60.04 1392.13 64.95C1387.92 69.85 1385.82 76.74 1385.82 85.62L1385.82 139.77L1362.46 139.77L1362.46 39.95ZM1477.68 39.95L1500.17 39.95L1500.34 55.86C1503.11 49.87 1507.29 45.2 1512.88 41.85C1518.48 38.51 1524.91 36.83 1532.17 36.83C1543.7 36.83 1552.59 40.5 1558.82 47.82C1565.04 55.14 1568.16 65.67 1568.16 79.39L1568.16 139.77L1544.8 139.77L1544.8 83.72C1544.8 66.3 1538.11 57.59 1524.73 57.59C1517.35 57.59 1511.56 60.04 1507.35 64.95C1503.14 69.85 1501.03 76.74 1501.03 85.62L1501.03 139.77L1477.68 139.77L1477.68 39.95ZM1621.26 142.88C1610.89 142.88 1602.55 140.03 1596.27 134.32C1589.98 128.61 1586.84 121.03 1586.84 111.57C1586.84 104.77 1588.51 98.85 1591.85 93.84C1595.2 88.82 1599.93 84.9 1606.04 82.07C1612.15 79.25 1619.3 77.83 1627.49 77.83C1637.07 77.83 1645.83 79.51 1653.79 82.85L1653.79 82.51C1653.79 74.09 1651.57 67.69 1647.13 63.3C1642.69 58.92 1635.85 56.73 1626.63 56.73C1621.21 56.73 1615.64 57.59 1609.93 59.32C1604.22 61.05 1598.89 63.59 1593.93 66.94L1593.93 46.35C1598.66 43.7 1604.02 41.45 1610.02 39.6C1616.01 37.76 1622.36 36.83 1629.05 36.83C1643.81 36.83 1655.17 40.64 1663.13 48.25C1671.09 55.86 1675.07 66.76 1675.07 80.95L1675.07 139.77L1654.83 139.77L1654.48 125.24C1651.71 130.66 1647.33 134.95 1641.33 138.13C1635.34 141.3 1628.64 142.88 1621.26 142.88ZM1608.64 110.19C1608.64 115.15 1610.25 118.98 1613.48 121.69C1616.71 124.4 1621.21 125.75 1626.97 125.75C1635.16 125.75 1641.51 123.42 1646 118.75C1650.5 114.08 1653.04 107.3 1653.62 98.42C1647.04 95.42 1639.54 93.92 1631.13 93.92C1623.74 93.92 1618.15 95.34 1614.34 98.16C1610.54 100.99 1608.64 104.99 1608.64 110.19ZM1699.81 39.95L1722.3 39.95L1722.47 55.86C1725.24 49.87 1729.42 45.2 1735.01 41.85C1740.6 38.51 1747.04 36.83 1754.3 36.83C1765.83 36.83 1774.72 40.5 1780.94 47.82C1787.17 55.14 1790.29 65.67 1790.29 79.39L1790.29 139.77L1766.93 139.77L1766.93 83.72C1766.93 66.3 1760.24 57.59 1746.86 57.59C1739.48 57.59 1733.68 60.04 1729.48 64.95C1725.26 69.85 1723.16 76.74 1723.16 85.62L1723.16 139.77L1699.81 139.77L1699.81 39.95Z" />
			</g>
		</g>
		<path id="Layer" class="shp0" d="M241.87 31.88L189.3 1.6C185.59 -0.53 179.53 -0.53 175.83 1.6L30.8 85.15L111.06 23.66L72.76 1.6C69.06 -0.53 63 -0.53 59.3 1.6L6.73 31.88C3.03 34.02 0 39.26 0 43.53L0 104.07C0 108.35 3.03 113.59 6.73 115.72L59.3 146.01C63 148.14 69.06 148.14 72.76 146.01L217.8 62.46L137.54 123.95L175.83 146.01C179.53 148.14 185.59 148.14 189.3 146.01L241.87 115.72C245.57 113.59 248.6 108.35 248.6 104.08L248.6 43.53C248.6 39.26 245.57 34.02 241.87 31.88Z" />
	</g>
</svg>