<svg version="1.2" xmlns="http://www.w3.org/2000/svg" viewBox="0 0 1542 1542" width="1542" height="1542">
	<title>mandg-logo-svg</title>
	<style>
		.s0 { fill: #ffffff } 
	</style>
	<g id="Layer_2">
		<g id="Layer_1-2">
			<path id="Layer" fill-rule="evenodd" class="s0" d="m0 0h1541.7v1541.7h-1541.7zm47.2 1494.4h1447.2v-1447.2h-1447.2z"/>
			<path id="Layer" class="s0" d="m799.8 1043.2c0-152.5 103.1-261.8 257.8-261.8 160.6 0 228.5 100.8 238.4 176.8h-93.1c-16.2-53.5-58.5-94-145.3-94-92.7 0-163.7 60.3-163.7 179 0 124.2 83.6 180 170.5 180 79.1 0 135.4-44.1 145.7-106.7h-165.1v-75.5h251v252.3h-67l-13.9-54.9c-31.5 40.5-80.6 65.7-164.7 65.7-144.4 0-250.1-113.8-250.6-260.9z"/>
			<path id="Layer" class="s0" d="m331.1 371.6v378.8h-85.5v-501.6h125.1l155.2 380.5 155.6-380.5h125.1v501.6h-88.6v-378.8l-155.2 378.8h-76.5l-155.2-378.8z"/>
			<path id="Layer" fill-rule="evenodd" class="s0" d="m733.1 1177.5q-0.4 1-0.5 2.2-0.1 1.1 0.2 2.2 0.3 1.1 0.9 2.1l99.9 108.4h-107.5l-45.5-49q-1-1-2.3-1.5-1.3-0.5-2.7-0.5-1.4 0.1-2.7 0.7-1.3 0.7-2.2 1.7c-45.9 45.5-83.2 59-128.2 59-96.2 0-146.2-65.3-146.2-130 0-57.6 24.3-91.4 76-131.4l8.1-6.3c0.9-0.5 1.5-1.2 2-2.1 0.5-0.8 0.8-1.7 0.8-2.7 0.1-1-0.1-2-0.5-2.8-0.4-0.9-1-1.7-1.8-2.3l-7.2-7.6c-22.5-25.7-49.5-62.1-49.5-105.7 0-81.9 67.9-126.5 132.3-126.5 78.2 0 132.7 50.4 132.7 122.4 0 40-22.1 75.1-67.1 111.6l-17 13.9c-1 0.6-1.7 1.4-2.2 2.4-0.6 1-0.9 2-0.9 3.1-0.1 1.1 0.1 2.2 0.6 3.2 0.5 1 1.1 1.9 2 2.6l70.6 76.9q0.9 0.9 2.1 1.5 1.1 0.5 2.4 0.5 1.3 0 2.5-0.5 1.2-0.6 2-1.5l63.5-68.4 20.7 84.1-34.2 38.3q-0.7 0.9-1.1 2zm-198.2-318.8c-6.6 2.7-12.5 6.8-17.4 11.9-4.9 5.1-8.8 11.1-11.3 17.8-2.5 6.6-3.6 13.7-3.3 20.8 0 18.8 12.6 38.6 32 60.2l15.3 17.1 26.1-20.2c22-17.1 34.6-36.5 34.6-58.9 0-30.2-23.4-52.7-55.3-52.7-7.1-0.1-14.2 1.3-20.7 4zm90.8 325.3l-91.3-99.4-13 9.9c-20.7 16.6-42.8 36.4-42.8 72.9 0 31.5 25.2 62.5 65.7 62.5 32 0 54.5-16.6 77.8-41.8z"/>
		</g>
	</g>
</svg>