<svg version="1.2" xmlns="http://www.w3.org/2000/svg" viewBox="0 0 1520 211" width="1520" height="211">
	<title>monopar-header-logo-svg</title>
	<style>
		.s0 { fill: #ffffff } 
		.s1 { fill: #bb0000 } 
		.s2 { fill: #684c96 } 
	</style>
	<path id="Layer" fill-rule="evenodd" class="s0" d="m225.7 210.4c-35.7 0-70.1 0-105.2 0 0-32.7 0-65.2 0-97.9 17.1 0 34.2 0 51.8 0 17.5 32 35.2 64.7 53.4 97.9zm-98.4-7.2c29.1 0 57.4 0 86.6 0-15-27.6-29.6-54.4-44.4-81.2-0.6-1.3-2.1-3-3.4-3-12.8-0.2-25.9-0.2-38.8-0.2 0 28.7 0 56.3 0 84.4z"/>
	<path id="Layer" fill-rule="evenodd" class="s0" d="m103.4 210.4c-34.4 0-68.6 0-103.4 0 1.3-2.6 2.1-4.5 3.2-6.4 15.6-28.9 31.4-57.6 47-86.5 2.4-4.2 4.9-5.7 9.5-5.5 14.4 0.3 29 0.3 43.7 0.3 0 32.4 0 64.9 0 98.1zm-92-7.2c28.9 0 57 0 85.1 0 0-28.3 0-55.9 0-84.4-12.3 0-24.1-0.2-35.9 0.2-1.7 0-4 1.9-5.1 3.6-14.8 26.6-29.1 53.2-44.1 80.6z"/>
	<path id="Layer" fill-rule="evenodd" class="s0" d="m168 98.1c-36.5 0-71.5 0-107.8 0 18.1-33.1 35.9-65.4 53.8-98.1 17.9 32.5 35.7 64.8 54 98.1zm-11.8-6.7c-14.3-26-28.1-51.1-42.2-76.8-14.4 25.9-28.1 51-42 76.6 28.5 0.2 55.7 0.2 84.2 0.2z"/>
	<path id="Layer" class="s1" d="m127.3 203.2c0-28.1 0-55.5 0-84.2 13.1 0 26 0 38.8 0.2 1.1 0 2.8 1.7 3.4 3 14.6 26.8 29.4 53.6 44.4 81.2-29.2-0.2-57.5-0.2-86.6-0.2z"/>
	<path id="Layer" class="s1" d="m11.4 203.2c15-27.4 29.3-54 43.9-80.6 0.9-1.7 3.4-3.6 5.1-3.6 11.8-0.2 23.6-0.2 35.9-0.2 0 28.3 0 56.1 0 84.4-27.9 0-55.8 0-84.9 0z"/>
	<path id="Layer" class="s2" d="m156.2 91.4c-28.5 0-55.7 0-84.2 0 14.1-25.8 27.9-50.7 42-76.6 14.1 25.5 27.9 50.6 42.2 76.6z"/>
	<g id="Layer">
		<path id="Layer" fill-rule="evenodd" class="s0" d="m286.3 146c-0.9 0-1.5-0.2-2.1-0.8-0.7-0.7-0.9-1.3-0.9-1.9v-75.4c0-0.8 0.2-1.4 0.9-2.1 0.6-0.6 1.2-0.8 2.1-0.8h9c1.1 0 1.9 0.2 2.6 0.8 0.6 0.7 0.8 1.1 1 1.3l22.4 41.8 22.6-41.8c0.2-0.2 0.4-0.8 1.1-1.3 0.6-0.6 1.2-0.8 2.5-0.8h9.1c0.8 0 1.4 0.2 2.1 0.8 0.6 0.7 0.8 1.3 0.8 2.1v75.4c0 0.8-0.2 1.4-0.8 1.9-0.7 0.6-1.3 0.8-2.1 0.8h-9.7c-0.9 0-1.5-0.2-2.2-0.8-0.4-0.7-0.8-1.3-0.8-1.9v-50.2l-16.3 31c-0.4 0.6-0.8 1.2-1.4 1.9-0.7 0.4-1.5 0.8-2.6 0.8h-4.8c-1.1 0-1.9-0.2-2.6-0.8-0.6-0.5-1-1.1-1.4-1.9l-16.3-31v50.2c0 0.8-0.2 1.4-0.8 1.9-0.7 0.6-1.3 0.8-1.9 0.8zm116.3 1.3c-6.1 0-11.4-1.1-15.6-3.2-4.3-2.1-7.4-5.3-9.7-9.1-2.2-4-3.4-8.4-3.8-13.7 0-1.5-0.3-3.1-0.3-5 0-2.1 0-3.8 0.3-5.1 0.2-5.3 1.6-9.9 3.8-13.9 2.3-3.8 5.4-7 9.7-9.1 4.2-2.1 9.3-3.2 15.4-3.2 6.1 0 11.2 1.1 15.4 3.2 4.2 2.1 7.4 5.3 9.7 9.1q3.5 5.7 3.8 13.9c0 1.5 0.2 3.2 0.2 5.1 0 2.1 0 3.8-0.2 5-0.2 5.3-1.5 9.9-3.8 13.7-2.1 4-5.5 7-9.7 9.1-3.8 1.9-9.1 3.2-15.2 3.2zm0-11.6q6 0 9.5-3.8c2.3-2.6 3.4-6.4 3.8-11.4 0-1.1 0.2-2.8 0.2-4.5 0-1.8 0-3.3-0.2-4.4q-0.3-7.6-3.8-11.4-3.5-3.8-9.5-3.8-6 0-9.5 3.8c-2.3 2.6-3.4 6.4-3.8 11.4 0 1.1-0.2 2.8-0.2 4.4 0 1.9 0 3.4 0.2 4.5q0.3 7.6 3.8 11.4 3.2 3.8 9.5 3.8zm44.7 10.3c-0.8 0-1.4-0.2-1.9-0.8-0.6-0.7-0.8-1.3-0.8-1.9v-54.7c0-0.8 0.2-1.5 0.8-1.9 0.7-0.6 1.3-0.8 1.9-0.8h9.5c0.9 0 1.5 0.2 1.9 0.8 0.7 0.7 0.9 1.3 0.9 1.9v4.9c2.1-2.6 4.6-4.5 7.6-6.1 3.2-1.7 7-2.6 11.6-2.6 4.6 0 8.9 1.1 12.2 3.2 3.4 2.1 6.2 5.1 8.1 9.1 1.9 3.8 2.7 8.4 2.7 13.9v32.5c0 0.8-0.2 1.5-0.8 1.9-0.7 0.6-1.3 0.8-1.9 0.8h-10.2c-0.8 0-1.4-0.2-1.9-0.8-0.6-0.7-0.8-1.3-0.8-1.9v-32.1c0-4.4-1.1-8-3.4-10.5-2.1-2.6-5.5-3.8-9.5-3.8-4 0-7.2 1.2-9.7 3.8-2.3 2.5-3.6 6.1-3.6 10.5v31.9c0 0.8-0.2 1.4-0.8 1.9-0.7 0.6-1.3 0.8-1.9 0.8zm96 1.3c-6.1 0-11.4-1.1-15.6-3.2-4.2-2.1-7.4-5.3-9.7-9.1-2.1-4-3.4-8.4-3.8-13.7 0-1.5-0.2-3.1-0.2-5 0-2.1 0-3.8 0.2-5.1 0.2-5.3 1.7-9.9 3.8-13.9 2.3-3.8 5.5-7 9.7-9.1 4.2-2.1 9.3-3.2 15.4-3.2 6.1 0 11.2 1.1 15.4 3.2 4.2 2.1 7.4 5.3 9.7 9.1q3.5 5.7 3.8 13.9c0 1.5 0.2 3.2 0.2 5.1 0 2.1 0 3.8-0.2 5-0.2 5.3-1.4 9.9-3.8 13.7-2.1 4-5.5 7-9.7 9.1-3.8 1.9-9.1 3.2-15.2 3.2zm0-11.6q6 0 9.5-3.8c2.3-2.6 3.4-6.4 3.8-11.4 0-1.1 0.2-2.8 0.2-4.4 0-1.9 0-3.4-0.2-4.5q-0.3-7.6-3.8-11.4-3.5-3.8-9.5-3.8-6 0-9.5 3.8c-2.3 2.6-3.4 6.4-3.8 11.4 0 1.1-0.2 2.8-0.2 4.5 0 1.8 0 3.3 0.2 4.4q0.3 7.6 3.8 11.4 3.5 3.8 9.5 3.8zm45 32.3c-0.9 0-1.5-0.3-1.9-0.9-0.6-0.6-0.9-1.3-0.9-1.9v-76.6c0-0.8 0.3-1.5 0.9-1.9 0.6-0.6 1.3-0.8 1.9-0.8h9.1c0.8 0 1.4 0.2 2.1 0.8 0.4 0.7 0.8 1.3 0.8 1.9v4.7c1.9-2.6 4.2-4.5 7.4-6.2 3.2-1.6 6.8-2.5 11.2-2.5 4 0 7.6 0.6 10.6 1.9q4.4 1.9 7.6 5.7c2.1 2.5 3.5 5.3 4.6 8.7 1.1 3.3 1.7 6.9 1.9 10.9 0 1.3 0.2 2.8 0.2 4 0 1.3 0 2.8-0.2 4.3 0 3.8-0.6 7.3-1.7 10.7-1 3.4-2.7 6.1-4.6 8.7q-3.2 3.8-7.6 5.7c-3 1.2-6.6 2.1-10.6 2.1-4.2 0-7.8-0.9-10.5-2.3-2.8-1.5-5.3-3.6-7.2-6v26.4c0 0.9-0.2 1.5-0.9 1.9-0.4 0.7-1.2 0.9-2.1 0.9h-10.1zm26.2-33.2c3.3 0 5.9-0.6 7.8-2.1 1.9-1.4 3.1-3.3 4-5.7 0.8-2.3 1.3-4.8 1.5-7.6q0-3.4 0-6.9c-0.2-2.8-0.7-5.3-1.5-7.6-0.9-2.3-2.1-4.2-4-5.7-1.9-1.5-4.5-2.1-7.8-2.1-3.2 0-5.7 0.6-7.6 2.1-1.9 1.5-3.4 3.4-4.3 5.7-0.8 2.3-1.4 4.6-1.4 6.9 0 1.5-0.2 3-0.2 4.5 0 1.4 0 2.9 0.2 4.4 0 2.3 0.6 4.4 1.7 6.8 1 2.1 2.5 3.8 4.4 5.2 1.5 1.3 4 2.1 7.2 2.1zm59.5 12.5c-4 0-7.6-0.9-11-2.3-3.1-1.5-5.9-3.8-7.6-6.4-1.9-2.7-2.7-5.7-2.7-9 0-5.5 2.1-9.7 6.5-12.9 4.5-3.2 10.2-5.3 17.3-6.3l15.9-2.4v-2.5q0-4.7-2.6-7.6c-1.7-1.7-4.4-2.7-8.4-2.7-2.8 0-5.1 0.6-6.8 1.7q-2.5 1.5-3.8 4.4c-0.6 1-1.4 1.5-2.7 1.5h-9.1q-1.3 0-1.9-0.7-0.6-0.6-0.6-1.9c0-1.2 0.6-2.7 1.5-4.4 1-1.7 2.5-3.6 4.4-5.1 1.9-1.6 4.4-3.1 7.8-4.2 3.2-1 7-1.7 11.4-1.7 4.9 0 9.1 0.7 12.2 1.9 3.4 1.3 6.2 2.8 8.1 4.9 2.1 2.1 3.3 4.4 4.4 6.9 0.8 2.8 1.5 5.5 1.5 8.7v36.3c0 0.8-0.2 1.5-0.9 1.9-0.6 0.6-1.2 0.8-1.9 0.8h-9.3c-0.8 0-1.4-0.2-2.1-0.8-0.4-0.6-0.8-1.3-0.8-1.9v-4.4c-1.1 1.4-2.3 2.7-4 4-1.7 1.2-3.8 2.3-6.1 3.1-2.4 0.9-5.3 1.1-8.7 1.1zm3.8-11.2c2.7 0 5.1-0.6 7.4-1.7 2.1-1 4-2.9 5.3-5.5 1.2-2.5 1.9-5.5 1.9-9.3v-2.5l-11.6 1.9c-4.7 0.6-8.1 1.9-10.2 3.4-2.3 1.5-3.4 3.4-3.4 5.7 0 1.7 0.5 3.2 1.5 4.4 1.1 1.3 2.3 2.1 4 2.8 1.7 0.6 3.4 0.8 5.1 0.8zm47.7 9.9c-0.8 0-1.5-0.2-1.9-0.8-0.6-0.7-0.8-1.3-0.8-1.9v-54.7c0-0.8 0.2-1.4 0.8-2.1 0.6-0.6 1.3-0.8 1.9-0.8h9.3c0.8 0 1.5 0.2 2.1 0.8 0.6 0.7 0.9 1.3 0.9 2.1v4.9q2.5-3.8 6.9-5.7c2.8-1.3 6.1-1.9 9.7-1.9h4.9c0.8 0 1.5 0.2 2.1 0.8 0.4 0.7 0.8 1.3 0.8 1.9v8.5c0 0.8-0.2 1.4-0.8 1.9-0.4 0.6-1.3 0.8-2.1 0.8h-9.1c-3.8 0-6.5 1.1-8.6 3.2-2.2 2.1-3.2 4.8-3.2 8.6v31.9c0 0.8-0.2 1.5-0.9 1.9-0.6 0.6-1.2 0.8-2.1 0.8h-9.9zm88.9 0c-0.9 0-1.5-0.2-1.9-0.8-0.6-0.6-0.9-1.3-0.9-1.9v-64.2h-21.5c-0.8 0-1.5-0.2-1.9-0.8-0.6-0.6-0.8-1.3-0.8-1.9v-8.6c0-0.9 0.2-1.5 0.8-2.2 0.6-0.6 1.3-0.8 1.9-0.8h59.1c0.9 0 1.5 0.2 2.1 0.8 0.7 0.7 0.9 1.3 0.9 2.2v8.6c0 0.8-0.2 1.5-0.9 1.9-0.6 0.6-1.2 0.8-2.1 0.8h-21.3v64.2c0 0.8-0.2 1.5-0.8 1.9-0.7 0.6-1.3 0.8-2.2 0.8zm48.8 0c-0.8 0-1.5-0.2-1.9-0.8-0.6-0.6-0.8-1.3-0.8-1.9v-76.8c0-0.9 0.2-1.5 0.8-1.9 0.6-0.6 1.3-0.9 1.9-0.9h10.4c0.8 0 1.4 0.3 2.1 0.9 0.4 0.6 0.8 1.3 0.8 1.9v26.4c2.1-2.6 4.7-4.5 7.6-6.2 3-1.4 6.8-2.3 11.2-2.3 4.6 0 8.9 1.1 12.2 3.2 3.6 2.1 6.4 5.1 8.3 9.1 1.9 3.8 2.9 8.4 2.9 13.9v32.5c0 0.8-0.2 1.5-0.8 1.9-0.6 0.6-1.3 0.8-1.9 0.8h-10.4c-0.8 0-1.4-0.2-1.9-0.8-0.6-0.7-0.8-1.3-0.8-1.9v-31.7c0-4.4-1.1-8-3.4-10.5q-3.5-3.8-9.5-3.8c-4 0-7.2 1.2-9.7 3.8-2.5 2.5-3.6 6.1-3.6 10.5v31.9c0 0.8-0.2 1.5-0.8 1.9-0.4 0.6-1.3 0.8-2.1 0.8zm96 1.3c-8.6 0-15.4-2.5-20.5-7.4-5-4.8-7.8-12-8-21.1 0-0.8-0.2-1.7-0.2-2.9 0-1.3 0-2.1 0.2-2.8 0.2-5.9 1.7-11 4-15.2 2.4-4.2 5.7-7.4 9.7-9.7 4.3-2.3 9.1-3.4 14.8-3.4q9.5 0 15.9 3.8c4.2 2.6 7.3 6.2 9.7 10.8q3.1 7 3.1 15.8v2.6c0 0.8-0.2 1.4-0.8 1.9-0.6 0.6-1.3 0.8-2.1 0.8h-38.4c0 0.4 0 0.8 0 0.8 0 2.8 0.6 5.3 1.4 7.4 1.1 2.4 2.4 4 4.3 5.5 1.9 1.5 4.2 2.1 6.7 2.1 2.1 0 4-0.4 5.5-1 1.5-0.7 2.7-1.5 3.6-2.3 0.8-0.9 1.5-1.5 1.9-2.2 0.6-0.8 1.3-1.4 1.7-1.6 0.4-0.3 1-0.3 1.9-0.3h9.9q1.3 0 1.9 0.7c0.4 0.4 0.6 1 0.6 1.7q0 1.9-1.9 4.4c-1.2 1.7-2.9 3.6-5 5.3-2.4 1.7-5.1 3.1-8.5 4.2-3.4 1.5-7.2 2.1-11.4 2.1zm12.7-36.5v-0.4c0-3-0.4-5.7-1.5-8-1-2.4-2.5-4.1-4.4-5.3q-2.9-1.9-7-1.9-4.1 0-7 1.9c-1.9 1.2-3.3 2.9-4.4 5.3-1 2.3-1.5 4.8-1.5 8v0.4zm31.1 35.2c-0.9 0-1.5-0.2-1.9-0.8-0.7-0.6-0.9-1.3-0.9-1.9v-54.7c0-0.8 0.2-1.4 0.9-2.1 0.6-0.6 1.2-0.8 1.9-0.8h9.3c0.8 0 1.4 0.2 2.1 0.8 0.6 0.7 0.8 1.3 0.8 2.1v4.9q2.5-3.8 7-5.7c2.7-1.3 6.1-1.9 9.7-1.9h4.8c0.9 0 1.5 0.2 2.2 0.8 0.4 0.7 0.8 1.3 0.8 1.9v8.5c0 0.8-0.2 1.5-0.8 1.9-0.5 0.6-1.3 0.8-2.2 0.8h-9c-3.8 0-6.6 1.1-8.7 3.2-2.1 2.1-3.2 4.8-3.2 8.6v31.9c0 0.8-0.2 1.5-0.8 1.9-0.6 0.6-1.3 0.8-2.1 0.8h-9.9zm62 1.3c-4 0-7.6-0.8-10.9-2.3-3.2-1.5-6-3.8-7.6-6.3-1.9-2.8-2.8-5.7-2.8-9.1 0-5.5 2.1-9.7 6.6-12.9 4.4-3.1 10.1-5.3 17.3-6.3l15.8-2.3v-2.6q0-4.7-2.5-7.6c-1.7-1.7-4.5-2.7-8.5-2.7-2.7 0-5 0.6-6.7 1.7q-2.6 1.6-3.8 4.4c-0.7 1.1-1.5 1.5-2.8 1.5h-9.1q-1.2 0-1.9-0.6-0.6-0.7-0.6-1.9c0-1.3 0.6-2.8 1.5-4.5 1-1.7 2.5-3.6 4.4-5 1.9-1.7 4.5-3.2 7.8-4.3 3.2-1 7-1.6 11.4-1.6 4.9 0 9.1 0.6 12.3 1.9 3.4 1.2 6.1 2.7 8 4.8 2.1 2.1 3.4 4.4 4.4 7 0.9 2.7 1.5 5.5 1.5 8.6v36.3c0 0.9-0.2 1.5-0.8 1.9-0.7 0.6-1.3 0.9-1.9 0.9h-9.3c-0.9 0-1.5-0.3-2.1-0.9-0.5-0.6-0.9-1.3-0.9-1.9v-4.4c-1 1.5-2.3 2.7-4 4-1.7 1.3-3.8 2.3-6.1 3.2-2.3 0.8-5.3 1-8.7 1zm3.8-11.2c2.8 0 5.1-0.6 7.4-1.7 2.1-1 4-2.9 5.3-5.4 1.3-2.6 1.9-5.5 1.9-9.3v-2.6l-11.6 1.9c-4.7 0.7-8 1.9-10.1 3.4-2.4 1.5-3.4 3.4-3.4 5.7 0 1.7 0.4 3.2 1.5 4.4 1 1.3 2.3 2.2 4 2.8 1.7 0.6 3.3 0.8 5 0.8zm47.7 31.9c-0.8 0-1.4-0.2-1.9-0.9-0.6-0.6-0.8-1.2-0.8-1.9v-76.5c0-0.9 0.2-1.5 0.8-1.9 0.7-0.7 1.3-0.9 1.9-0.9h9.1c0.9 0 1.5 0.2 2.1 0.9 0.5 0.6 0.9 1.2 0.9 1.9v4.6c1.9-2.5 4.2-4.4 7.4-6.1 3.1-1.7 6.7-2.6 11.2-2.6 4 0 7.6 0.7 10.5 1.9q4.4 1.9 7.6 5.7c2.1 2.6 3.6 5.3 4.7 8.7 1 3.4 1.6 7 1.9 11 0 1.2 0.2 2.7 0.2 4 0 1.2 0 2.7-0.2 4.2 0 3.8-0.7 7.4-1.7 10.8-1.1 3.3-2.8 6.1-4.7 8.6q-3.1 3.8-7.6 5.7c-2.9 1.3-6.5 2.1-10.5 2.1-4.3 0-7.8-0.8-10.6-2.3-2.7-1.5-5.3-3.6-7.2-5.9v26.4c0 0.8-0.2 1.4-0.8 1.9-0.4 0.6-1.3 0.8-2.1 0.8h-10.2zm26.2-33.1c3.4 0 5.9-0.7 7.8-2.1 1.9-1.5 3.2-3.4 4-5.7 0.9-2.4 1.3-4.9 1.5-7.6q0-3.5 0-7c-0.2-2.7-0.6-5.3-1.5-7.6-0.8-2.3-2.1-4.2-4-5.7-1.9-1.5-4.4-2.1-7.8-2.1-3.1 0-5.7 0.6-7.6 2.1-1.9 1.5-3.4 3.4-4.2 5.7-0.8 2.3-1.5 4.7-1.5 7 0 1.5-0.2 2.9-0.2 4.4 0 1.5 0 3 0.2 4.4 0 2.4 0.7 4.5 1.7 6.8 1.1 2.1 2.5 3.8 4.4 5.3 1.7 1.2 4.1 2.1 7.2 2.1zm68 12.4c-8.7 0-15.4-2.5-20.5-7.4-5-4.8-7.8-12-8-21.1 0-0.8-0.2-1.7-0.2-2.9 0-1.3 0-2.1 0.2-2.8 0.2-5.9 1.7-10.9 4-15.2 2.3-4.2 5.7-7.3 9.7-9.7 4.2-2.3 9.1-3.3 14.8-3.3q9.5 0 15.8 3.8c4.3 2.5 7.4 6.1 9.7 10.7q3.2 7 3.2 15.9v2.5c0 0.8-0.2 1.5-0.8 1.9-0.7 0.6-1.3 0.8-2.1 0.8h-38.5c0 0.4 0 0.9 0 0.9 0 2.7 0.7 5.2 1.5 7.4 1.1 2.3 2.3 4 4.2 5.4 1.9 1.5 4.3 2.2 6.8 2.2 2.1 0 4-0.5 5.5-1.1 1.5-0.6 2.7-1.5 3.6-2.3 0.8-0.9 1.4-1.5 1.9-2.1 0.6-0.9 1.2-1.5 1.7-1.7 0.4-0.2 1-0.2 1.9-0.2h9.9q1.2 0 1.9 0.6c0.4 0.4 0.6 1.1 0.6 1.7q0 1.9-1.9 4.4c-1.3 1.7-2.9 3.6-5.1 5.3-2.3 1.7-5 3.2-8.4 4.2-3.2 1.5-7 2.1-11.4 2.1zm12.9-36.5v-0.4c0-3-0.4-5.7-1.5-8-1.1-2.3-2.5-4-4.4-5.3q-2.9-1.9-7-1.9-4.1 0-7 1.9c-1.9 1.3-3.3 3-4.4 5.3-1.1 2.3-1.5 4.8-1.5 8v0.4zm50.5 36.5c-4.7 0-8.9-1-12.3-3.1-3.3-2.2-6.1-5.1-8-9.1-1.9-3.8-2.7-8.5-2.7-13.9v-32.5c0-0.9 0.2-1.5 0.8-1.9 0.6-0.7 1.3-0.9 1.9-0.9h10.1c0.9 0 1.5 0.2 2.2 0.9 0.4 0.6 0.8 1.2 0.8 1.9v31.8c0 9.5 4.2 14.4 12.7 14.4q6 0 9.5-3.8c2.3-2.6 3.6-6.1 3.6-10.6v-31.8c0-0.9 0.2-1.5 0.8-1.9 0.6-0.7 1.3-0.9 1.9-0.9h10.1c0.9 0 1.5 0.2 1.9 0.9 0.7 0.6 0.9 1.2 0.9 1.9v54.6c0 0.9-0.2 1.5-0.9 1.9-0.6 0.6-1.2 0.9-1.9 0.9h-9.3c-0.8 0-1.4-0.3-2.1-0.9-0.4-0.6-0.8-1.3-0.8-1.9v-4.8c-2.1 2.7-4.7 4.8-7.8 6.3q-4.5 2.5-11.4 2.5zm76.8-1.2c-4.6 0-8.4-0.9-11.6-2.6-3.2-1.7-5.5-4-7-7.1-1.4-3.2-2.3-7.2-2.3-12.1v-26.1h-9.1c-0.8 0-1.4-0.3-1.9-0.9-0.6-0.6-0.8-1.3-0.8-2.1v-6.5c0-0.9 0.2-1.5 0.8-1.9 0.7-0.7 1.3-0.9 1.9-0.9h9.1v-19.2c0-0.8 0.2-1.5 0.9-1.9 0.4-0.6 1.2-0.8 2.1-0.8h9.3c0.8 0 1.4 0.2 1.9 0.8 0.6 0.7 0.8 1.3 0.8 1.9v19.2h14.6c0.8 0 1.5 0.2 1.9 0.9 0.6 0.6 0.8 1.2 0.8 1.9v6.5c0 0.8-0.2 1.5-0.8 2.1-0.7 0.6-1.3 0.9-1.9 0.9h-14.8v25.1c0 3.1 0.6 5.7 1.7 7.4 1 1.6 3.2 2.7 5.9 2.7h8c0.9 0 1.5 0.2 1.9 0.8 0.7 0.7 0.9 1.3 0.9 1.9v7.2c0 0.9-0.2 1.5-0.9 1.9-0.6 0.6-1.2 0.9-1.9 0.9zm24.7-70.3c-0.8 0-1.5-0.2-1.9-0.9-0.6-0.6-0.8-1.2-0.8-1.8v-8.5c0-0.8 0.2-1.5 0.8-1.9 0.7-0.6 1.3-0.8 1.9-0.8h10.6c0.8 0 1.5 0.2 2.1 0.8 0.6 0.6 0.8 1.3 0.8 1.9v8.5c0 0.8-0.2 1.4-0.8 1.8-0.6 0.7-1.3 0.9-2.1 0.9zm0.6 70.3c-0.8 0-1.5-0.3-1.9-0.9-0.6-0.6-0.8-1.3-0.8-1.9v-54.6c0-0.9 0.2-1.5 0.8-1.9 0.6-0.7 1.3-0.9 1.9-0.9h9.7c0.9 0 1.5 0.2 2.1 0.9 0.5 0.6 0.9 1.2 0.9 1.9v54.6c0 0.9-0.2 1.5-0.9 1.9-0.4 0.6-1.2 0.9-2.1 0.9zm53.9 1.2q-8.3 0-14.6-3.1c-4.2-2.2-7.4-5.1-9.9-9.1-2.4-4-3.6-8.9-3.8-14.4 0-1-0.2-2.7-0.2-4.6 0-1.9 0-3.4 0.2-4.6 0.2-5.7 1.4-10.4 3.8-14.4 2.3-4 5.7-7 9.9-9.1q6.3-3.1 14.6-3.1c4.8 0 9 0.6 12.6 2.1 3.4 1.2 6.4 3.1 8.7 5.3 2.3 2.1 4 4.2 5 6.5 1.1 2.3 1.7 4.4 1.9 6.1 0 0.9-0.2 1.5-0.8 2.1-0.6 0.4-1.3 0.9-2.1 0.9h-10.1q-1.3 0-1.9-0.7c-0.5-0.4-0.9-1-1.3-1.7-1.1-3.1-2.8-5.2-4.7-6.5-1.9-1.3-4.2-1.9-7.1-1.9-3.8 0-7 1.3-9.3 3.6-2.3 2.5-3.6 6.3-3.6 11.6-0.2 3-0.2 5.7 0 8 0.2 5.3 1.3 9.3 3.6 11.6 2.3 2.3 5.3 3.6 9.3 3.6 2.9 0 5.5-0.6 7.4-1.9 1.9-1.3 3.3-3.4 4.4-6.5 0.4-0.9 0.8-1.3 1.3-1.7q0.6-0.7 1.9-0.7h10.1c0.8 0 1.5 0.3 2.1 0.9 0.6 0.4 0.8 1.3 0.8 2.1 0 1.5-0.4 3-1 4.6-0.6 1.7-1.7 3.6-3.2 5.3-1.5 1.9-3.1 3.4-5.5 5.1-2.1 1.5-4.8 2.7-7.8 3.6-3.1 0.4-6.7 1-10.7 1zm62.9 0c-4.7 0-8.7-0.6-11.9-1.7-3.3-1-5.9-2.5-8-4-2.1-1.7-3.6-3.1-4.6-4.8-1.1-1.7-1.5-3-1.7-4 0-0.9 0.2-1.5 0.8-2.1 0.7-0.5 1.3-0.9 1.9-0.9h9.1c0.2 0 0.6 0 0.9 0.2 0.2 0 0.6 0.2 0.8 0.7 1.1 0.8 2.1 1.6 3.2 2.7 1 0.8 2.5 1.7 4 2.3 1.5 0.7 3.4 1.1 5.7 1.1q4.4 0 7.6-1.9 3.1-1.9 3.1-5.1c0-1.7-0.4-2.9-1.2-4-0.9-1.1-2.6-1.9-4.9-2.7q-3.5-1.3-10.1-2.6c-4.2-1-8-2.3-10.8-3.8q-4.4-2.2-6.3-5.7c-1.5-2.3-2.1-5-2.1-8 0-2.9 0.8-5.9 2.7-8.6 1.9-2.8 4.5-5.1 8-6.8 3.6-1.7 8.1-2.7 13.3-2.7 4.3 0 7.9 0.4 11 1.4 3.2 1.1 5.7 2.4 7.8 3.8 2.1 1.5 3.6 3.2 4.7 4.7 1 1.7 1.7 2.9 1.7 4 0 0.8-0.2 1.5-0.7 2.1-0.6 0.4-1 0.8-1.9 0.8h-8.6c-0.4 0-0.7 0-1.1-0.2-0.2-0.2-0.6-0.4-0.8-0.6-0.9-0.8-1.7-1.7-2.8-2.5-1-0.9-2.3-1.7-3.6-2.4-1.4-0.6-3.3-0.8-5.7-0.8-2.9 0-5.2 0.6-6.7 1.9-1.5 1.3-2.3 3-2.3 4.9 0 1.2 0.4 2.5 1 3.3 0.7 1.1 2.3 1.9 4.5 2.8 2.3 0.8 5.7 1.7 10.1 2.7 5.3 0.9 9.3 2.3 12.2 4 3 1.9 5.3 3.8 6.6 6.4 1.2 2.3 1.9 5 1.9 7.8 0 3.3-1.1 6.5-3.2 9.2-2.1 2.8-5.1 5.1-9.1 6.6q-5.7 2.5-14.5 2.5z"/>
	</g>
</svg>