<svg version="1.2" xmlns="http://www.w3.org/2000/svg" viewBox="0 0 1387 1518" width="1387" height="1518">
	<title>Screenshot 2022-04-08 at 13-svg</title>
	<style>
		.s0 { fill: #ffffff } 
	</style>
	<g id="#9fc754ff">
		<path id="Layer" class="s0" d="m992.3 137.6c132 62.9 242.7 169.6 307.9 300.5 81 157 96.5 341.3 66.5 513.6-31.2 160.5-115.1 313.7-245.3 414.8-251 197.8-642.2 192.7-885.4-15.7-140.4-120.2-225.4-300.4-234.7-484.3 89.1-0.6 178.1-1.3 267.2 0.6 18.4 128.9 77.1 259.8 189.9 332.3 93.3 63.5 211.9 74.9 321 56.8 105-20.5 199.5-86.4 255.7-177.4 55.4-85.4 73.4-188.6 78.2-288.6-5.6-96.9-22.6-196.9-75.8-280.1-29.5-49.7-71.9-89.9-116.7-125.4 39.3-27.8 78.3-56.2 116.1-86.1-17.5-52.9-35.7-105.8-44.6-161z"/>
	</g>
	<g id="#5d4c3fff">
		<path id="Layer" class="s0" d="m796.2 2.6c35.2 80 63.3 162.7 96.1 243.7-86.2 52.2-172.3 104.7-261 152.3 9.9-25.9 19.6-52 28.5-78.3-105.6 7.9-211.2 50.9-280.3 133.1-63.7 73.1-96.6 167.7-110.8 262.2-89.3-0.1-178.5-0.2-267.8 0.2 10.9-167.3 82-331.1 200.5-450.4 108.9-108.3 257-172.5 409.2-187.3 50.2-2.5 100.7-1.7 151.1 0.1 12.3-24.9 23.3-50.2 34.5-75.6z"/>
	</g>
</svg>