<svg version="1.2" xmlns="http://www.w3.org/2000/svg" viewBox="0 0 1338 1504" width="1338" height="1504">
	<title>5b41b942-a643-4877-be4b-3456eec7232f-svg</title>
	<style>
		.s0 { fill: #ffffff } 
	</style>
	<g id="#e51b24ff">
		<path id="Layer" class="s0" d="m803.5 70c49.5-25.5 98.7-54 153.6-66 31.3-5.6 65.7-5.3 93.9 11.1 35 19.3 58.1 53.6 76.1 88.3 70.2 135.3 140.9 270.2 210.7 405.5-27.6 29.5-61.5 52-89.7 80.9-59-116.2-120.1-231.3-180-347-24.1-44.6-44.1-92.4-77.5-131.1-22-25.8-55.7-45.6-90.7-37.6-59.8 15.5-112.6 49-167.5 76.3-174.2 89.1-346.3 182.7-522.4 268-38.8 19.1-77.4 38.5-114.5 60.7-19.7 94.8 31.5 183.7 76.8 262.9 72.6 115.5 130.6 239.2 194.6 359.5 32.6 63.2 65.9 125.9 98.4 189.2 24.1 48.5 51.9 103.2 106.2 123 58.4 19.9 118.7-7.8 170.6-33.1 163.7-86.1 328.5-170.2 492-256.5-36.6 26.6-53.4 74-95.5 93.6-143.4 74.3-286.7 148.8-430 223.3-59.7 29.4-121.5 65.8-190.3 62.2-56.1-3.2-97.7-48.3-122.9-94.6-87-166.7-173.6-333.6-260.4-500.3-41.1-80.6-97.8-153.7-124.2-241.2-13.4-44.2-16.4-96.2 11-135.8 60.8-78 146.7-130.4 232.9-176.3 182.9-95 365.9-189.8 548.8-285zm21.7 308.5c26.6-13.8 57.5-26.5 87.8-17.3 30.2 10.4 48.3 39.4 62.7 66.2 56.1 107.5 112 215.1 167.9 322.7 16.8 31.1 24.4 74.7-2.2 102.7-29.3 28.1-55.6 60.3-91.7 80.3-90 65.5-192.2 111-290.5 162.1-42.8 21.6-82.8 53.1-131.8 58.4-28.1 2.9-53.6-15.8-65.6-40.1-36.5-69.5-72.7-139.1-108.7-208.8-7.8-10 4.1-18.7 10.2-25.1 24.7-22.3 52-41.7 75-65.9 26.3 59.6 49.4 120.9 83.3 176.7 20.2 31 46.9 63.7 85.7 70 27.3 5 52.7-9.1 76.1-20.9 96.5-48 198.3-85.5 290.2-142.3-2.4-38.4-17.1-74.3-36.2-107.2-58.5-97.3-107.1-199.9-160.5-299.9-12.2-27.2-40.9-45-70.7-43.9-39.4 1-76.7 16.3-112.1 32.2-67.4 32.7-129.7 74.7-193.7 113.6 36.5-28.2 54.2-76.3 97.6-95.8 75.8-39.1 151.4-78.6 227.2-117.7z"/>
	</g>
</svg>