<svg version="1.2" xmlns="http://www.w3.org/2000/svg" viewBox="0 0 1593 305" width="1593" height="305">
	<title>5b41b942-a643-4877-be4b-3456eec7232f-svg</title>
	<style>
		.s0 { fill: #e51b24 } 
		.s1 { fill: #231f20 } 
	</style>
	<g id="#e51b24ff">
		<path id="Layer" class="s0" d="m163.1 14.4c10-5.2 20-11 31.1-13.4 6.3-1.1 13.3-1.1 19 2.3 7.1 3.9 11.8 10.8 15.4 17.9 14.3 27.4 28.6 54.7 42.7 82.1-5.5 6-12.4 10.6-18.1 16.4-12-23.5-24.4-46.8-36.5-70.3-4.9-9-9-18.7-15.7-26.6-4.5-5.2-11.3-9.2-18.4-7.6-12.1 3.2-22.8 9.9-33.9 15.5-35.4 18-70.2 37-105.9 54.3-7.9 3.9-15.7 7.8-23.2 12.3-4 19.2 6.3 37.2 15.5 53.3 14.7 23.4 26.5 48.5 39.5 72.8 6.6 12.8 13.3 25.6 19.9 38.4 4.9 9.8 10.5 20.9 21.5 24.9 11.9 4 24.1-1.6 34.6-6.7 33.2-17.5 66.6-34.5 99.7-52-7.4 5.4-10.8 15-19.3 19q-43.6 22.6-87.2 45.2c-12.1 6-24.6 13.4-38.6 12.6-11.3-0.6-19.7-9.8-24.9-19.1-17.6-33.8-35.1-67.6-52.7-101.4-8.4-16.3-19.9-31.2-25.2-48.9-2.7-9-3.3-19.5 2.2-27.5 12.3-15.8 29.7-26.5 47.2-35.7 37.1-19.3 74.2-38.5 111.3-57.8zm4.3 62.5c5.5-2.8 11.7-5.4 17.9-3.5 6.1 2.1 9.7 8 12.7 13.4 11.3 21.8 22.7 43.6 34 65.4 3.4 6.3 4.9 15.2-0.5 20.8-5.9 5.7-11.2 12.3-18.5 16.3-18.3 13.3-39 22.5-58.9 32.8-8.7 4.4-16.8 10.8-26.7 11.9-5.7 0.6-10.9-3.2-13.3-8.1q-11.1-21.2-22.1-42.4c-1.5-2 0.9-3.7 2.1-5 5-4.6 10.5-8.5 15.2-13.4 5.3 12.1 10 24.5 16.9 35.8 4.1 6.3 9.5 12.9 17.4 14.2 5.5 1 10.6-1.8 15.4-4.2 19.5-9.8 40.2-17.4 58.8-28.9-0.5-7.7-3.5-15-7.3-21.7-11.9-19.7-21.7-40.5-32.6-60.8-2.4-5.5-8.3-9.1-14.3-8.9-8 0.2-15.5 3.3-22.7 6.6-13.7 6.6-26.3 15.1-39.3 23 7.4-5.7 11-15.5 19.8-19.4 15.4-8 30.7-16 46-23.9z"/>
	</g>
	<g id="#231f20ff">
		<path id="Layer" fill-rule="evenodd" class="s1" d="m1022.1 93.4c0.3-1.5 0.3-4.5 2.6-4.3 11.1-0.5 22.3-0.4 33.5-0.1 3.3-0.3 2.5 3.9 2.5 5.9-4.2 48.1-8.5 96.2-12.6 144.3-0.5 1.8-0.1 5.7-2.9 5.6-11.8 0.3-23.7 0.1-35.6 0-0.5-6.1 0.3-12.1 0.9-18.1q5.8-66.6 11.6-133.3zm-711-2.2c9.6-0.5 19.3 0 28.9-0.2 2.5 0.2 5.9-0.8 7.6 1.8 13.6 17.2 27 34.5 40.5 51.8 17-17.9 34-35.7 51.1-53.6 11.1 0.1 22.3-0.1 33.4 0.1 2.3-0.3 4.2 1.3 3.5 3.7-4.1 48.7-8.6 97.3-12.7 146-0.2 2.3-0.3 6.1-3.7 5.4-12.3 0.2-24.6 0.2-36.9 0.1-2.4 0.2-3.6-2.1-3-4.1 2.3-27.8 4.9-55.6 7.3-83.5-13 13.9-26.2 27.4-39.1 41.3-3.3-0.3-7.7 1.3-10-1.9-10.4-13.2-20.6-26.5-31-39.8-2.2 27-4.7 53.9-7 80.9-0.3 2.3-0.2 4.8-1.6 6.9-13.8 0.7-27.6-0.1-41.4 0.3-0.5-2.9-0.7-6-0.4-9 4.6-48.3 8.2-96.8 13-145 0.4-0.3 1.2-0.9 1.5-1.2zm256.7 0c20.8-1.5 43 1.7 60.2 14.4 17.2 12.8 29.2 33.2 29.2 54.9 0.8 20-7 40-20.6 54.6-14 15.8-33.4 26.7-54.4 29.9-23.4 3.5-49.2 1.1-69-13.1-15.6-11.2-27.1-28.8-29.1-48.1-2.7-22.1 5.1-45 20.2-61.5 15.8-18.4 39.2-29.7 63.5-31.1zm-1.5 36.7c-7.8 1.1-15.4 3.9-21.6 8.7-14.4 10.4-20 29.9-16.3 46.8 2.6 12.1 12.8 21.9 24.8 24.9 16.3 4.2 35.4 0.9 47.5-11.5 10.1-9.7 13.9-24.3 12.7-37.9-0.7-9.4-5.6-18.5-13.2-24.1-9.6-7.1-22.3-8.4-33.9-6.9zm111.4-36.8c23-0.1 45.9 0 68.8-0.1 12.4 0 25.6 2.7 35.3 11 9.1 7.3 14.5 19.2 12.8 30.9-1 11.6-8.5 21.6-18.1 27.8 9.8 4.4 18.2 12.2 21.7 22.5 7 21.5-4.1 47-24.4 57-10.2 5.2-21.8 6.9-33.2 6.9q-31.3 0-62.6 0c-4.5-0.1-9 0.3-13.4-0.6-1-2.3-0.4-4.9-0.3-7.3 3.6-40.4 7.1-80.8 10.6-121.2 1-8.9 1.2-18 2.8-26.9zm40.3 33.4c-0.7 8.6-1.6 17.2-2.2 25.8 6.8-0.1 13.7 0.4 20.5-0.2 7.1-0.8 13.6-7 13.1-14.4 0.2-5.1-4-9.5-8.9-10.4-7.4-1.5-15-0.6-22.5-0.8zm-5.3 59.6c-0.7 9.9-1.7 19.7-2.5 29.5 10-0.1 20.1 0.5 29.9-1.1 4.6-1 9.7-2.6 12.1-6.9 2.3-4.2 3.3-9.6 1.2-14.1-2.8-5.1-8.9-6.9-14.4-7.2-8.7-0.4-17.5 0-26.3-0.2zm110.4-91.4c1.1-2.4 4.3-1.4 6.4-1.7 10.6 0.3 21.2-0.6 31.7 0.6-2.7 41-7 81.9-10.4 122.9-1.1 10.5-1.3 21.2-3.1 31.6-2.3 1.5-5.3 0.8-7.9 1-9.4-0.3-18.8 0.4-28.1-0.3-3.1-0.4-1.8-4.3-1.9-6.3 4-44.2 7.8-88.4 11.7-132.6 0.5-5 0.5-10.2 1.6-15.2zm59.6-1.2c12.8-1 25.7-0.3 38.6-0.4 3.2-0.7 4.3 2.6 3.7 5.2-3.4 39.1-6.8 78.2-10.3 117.3 24.5 0.1 49-0.1 73.5 0.1 3-0.7 3.5 2.7 3.1 4.9-0.8 8.7-1.3 17.4-2.4 26.1-0.1 2.5-3.1 2.3-4.8 2.4-36 0-72-0.1-108 0-2.4-0.1-4.9 0.2-7.1-0.8-0.9-3.9 0-7.8 0.3-11.7q5.8-65.4 11.4-130.9c0.5-4.1 0.2-8.4 2-12.2zm233.4 14.8c19.8-12.7 44.2-16.6 67.4-14.8 15.4 1 30.8 5.2 43.9 13.6-0.9 12-1.5 24.2-3.4 36.2-2.7 1.9-5.4-0.6-7.9-1.7-16-9-34.9-14.2-53.4-11.6-13.7 1.9-27 8.8-35.3 20-6.7 9.1-9 20.9-6.9 31.9 2.5 12.7 13.3 22.6 25.4 26.5 15.6 4.9 32.6 2.9 47.6-2.9 8.6-2.9 16.6-7.7 25.3-10.5 3.2 0.8 2 4.4 2.1 6.9-0.8 9.2-1.4 18.4-2.5 27.6 0.2 2.1-1.5 3.1-3.1 3.9-26.2 13.1-57 17.7-85.7 10.8-18.4-4.4-35-16.2-44.6-32.6-10.1-17.1-11-38.5-5.4-57.2 5.7-19.3 19.7-35.3 36.5-46.1zm310.5-11.2c0-1.8 0.7-4.6 3.1-4.3 11.2-0.4 22.4 0 33.6-0.1 14.3 17.5 28 35.5 41.9 53.3 16.9-17.7 33.6-35.5 50.7-52.9 11.3-1 22.8-0.4 34.2-0.3 3.6 0.2 2.3 4.8 2.4 7.2-4.3 48-8.3 96.1-12.8 144.1 0.5 3.5-3.3 3.1-5.6 3.2-10.7-0.1-21.5 0-32.2 0-2.2-0.1-5.9 0.2-5.2-3.2 2.2-27.9 4.9-55.8 7.2-83.7-12.4 12.7-24.5 25.8-36.8 38.6-2.5 3.2-6.9 1.7-10.4 2.2-10.9-13.7-21.5-27.6-32.3-41.4-2.8 29.1-4.7 58.3-8 87.4-13.9 0.2-27.9-0.1-41.9 0.1-1.2-5.9 0.1-11.9 0.5-17.8 3.9-44.1 7.7-88.3 11.6-132.4zm-105.6-2.5c18.4-1.1 37.8 1 53.9 10.7 20.3 12.1 34.8 34.7 34.6 58.6 0.4 15.9-4.4 31.8-13.5 44.8-13.2 18.8-33.4 32.8-55.9 37.5-17.5 3.4-35.9 3.3-53-1.9-19.4-5.9-35.9-20.6-44.2-39.1-7.6-17.4-7-37.7-0.3-55.2 12.6-31.5 44.5-53.7 78.4-55.4zm-4.1 36.9c-15.3 2.6-29 13.8-33.7 28.7-3.2 10.8-3.8 23.2 1.5 33.6 4.3 8.5 12.7 14.7 22 17 15.4 3.8 33 1 45-9.9 12.3-10.7 16.7-28.4 13.5-44-2.2-10.4-10-19.4-20-23.3-9-3.4-18.9-3.9-28.3-2.1z"/>
	</g>
</svg>