<svg version="1.2" baseProfile="tiny-ps" xmlns="http://www.w3.org/2000/svg" viewBox="0 0 1680 298" width="1680" height="298">
	<title>morphic white-svg</title>
	<style>
		tspan { white-space:pre }
		.shp0 { fill: none } 
		.shp1 { fill: #ffffff } 
	</style>
	<path id="MorphicTx-Logo---White" class="shp0" d="M-30 -40L1697.65 -40L1697.65 332.68L-30 332.68L-30 -40Z" />
	<g id="Layer">
		<path id="Layer" class="shp1" d="M0.41 178.24L0.41 8.03L20.34 8.03L90.33 112.26L160.8 8.03L180.42 8.03L180.42 178.24L159.07 178.24L159.07 45.34L90.33 146.02L21.6 45.34L21.6 178.24L0.41 178.24L0.41 178.24Z" />
		<path id="Layer" fill-rule="evenodd" class="shp1" d="M301 182.72C274.99 182.72 253.52 174.31 236.58 157.51C219.64 140.7 211.17 119.4 211.17 93.6C211.17 67.7 219.67 46.35 236.65 29.54C253.65 12.73 275.09 4.33 301 4.33C327.01 4.33 348.56 12.76 365.66 29.62C382.75 46.47 391.3 67.8 391.3 93.6C391.3 119.4 382.78 140.7 365.74 157.51C348.69 174.31 327.12 182.72 301 182.72ZM301 162.83C320.51 162.83 336.66 156.3 349.46 143.25C362.25 130.19 368.65 113.64 368.65 93.6C368.65 73.45 362.28 56.86 349.53 43.8C336.79 30.75 320.61 24.22 301 24.22C281.49 24.22 265.34 30.77 252.55 43.88C239.75 56.98 233.35 73.56 233.35 93.6C233.35 113.64 239.75 130.19 252.55 143.25C265.34 156.3 281.49 162.83 301 162.83Z" />
		<path id="Layer" fill-rule="evenodd" class="shp1" d="M580.22 27.61L580.22 8.03L679.65 8.03C696.51 8.03 709.78 12.14 719.46 20.37C729.15 28.59 734 39.84 734 54.13C734 68.93 729.31 80.91 719.93 90.06C710.56 99.2 698.08 103.78 682.48 103.78L601.74 103.78L601.74 178.24L580.22 178.24L580.22 81.11L675.78 81.11C676.32 81.11 676.86 81.1 677.4 81.09C687.49 80.87 695.2 78.51 700.52 74.02C706.12 69.29 708.92 62.35 708.92 53.2C708.92 44.26 706.12 40.07 700.52 35.09C694.92 30.1 687.03 27.61 676.88 27.61L601.74 27.61L601.74 27.61L580.22 27.61L580.22 27.61Z" />
		<path id="Layer" fill-rule="evenodd" class="shp1" d="M422.06 27.61L422.06 8.03L503.28 8.03C517.14 8.03 528 12.22 535.87 20.6C543.74 28.98 547.67 40.56 547.67 55.36C547.67 67.7 544.59 78.26 538.43 87.05C532.27 95.84 519.49 101.31 509.39 103.47L551.4 178.24L527.5 178.24L485.49 103.78L439.63 103.78L439.63 178.24L422.06 178.24L422.06 82.64L498.01 82.63C506.9 82.63 513.64 80.26 518.21 75.54C522.79 70.81 525.08 63.87 525.08 54.72C525.08 45.78 521.53 40.07 516.96 35.09C512.38 30.1 505.94 27.61 497.65 27.61L439.63 27.61L439.65 27.61L422.06 27.61L422.06 27.61Z" />
		<path id="Layer" class="shp1" d="M761.78 178.24L761.78 8.03L782.63 8.03L782.63 75.25L880.25 75.25L880.25 8.03L900.95 8.03L900.95 178.24L880.25 178.24L880.25 94.84L782.63 94.84L782.63 178.24L761.78 178.24L761.78 178.24Z" />
		<path id="Layer" class="shp1" d="M947.18 7.11L967.56 7.11L967.56 178.24L947.18 178.24L947.18 7.11Z" />
		<path id="Layer" class="shp1" d="M1151.93 123.98L1168.95 136.62C1161.11 151.42 1150.38 162.8 1136.76 170.77C1123.15 178.74 1107.68 182.72 1090.35 182.72C1064.76 182.72 1043.64 174.31 1026.98 157.51C1010.33 140.7 1002 119.4 1002 93.6C1002 67.7 1010.35 46.35 1027.06 29.54C1043.77 12.73 1064.87 4.33 1090.35 4.33C1106.13 4.33 1120.52 7.78 1133.52 14.66C1146.51 21.55 1157.09 31.36 1165.24 44.11L1147.44 56.75C1142.08 46.58 1134.34 38.61 1124.23 32.86C1114.12 27.1 1102.83 24.22 1090.35 24.22C1071.16 24.22 1055.28 30.77 1042.69 43.88C1030.11 56.98 1023.81 73.56 1023.81 93.6C1023.81 113.64 1030.11 130.19 1042.69 143.25C1055.28 156.3 1071.16 162.83 1090.35 162.83C1103.76 162.83 1115.67 159.54 1126.09 152.96C1136.51 146.38 1145.12 136.72 1151.93 123.98Z" />
	</g>
	<g id="Layer">
		<path id="Layer" class="shp1" d="M453.43 267.39L453.43 215.74L427.89 215.74L427.89 209.03L486.61 209.03L486.61 215.74L461.02 215.74L461.02 267.39L453.43 267.39L453.43 267.39Z" />
		<path id="Layer" class="shp1" d="M499.67 267.39L499.67 209.03L507.08 209.03L507.08 232.08L541.75 232.08L541.75 209.03L549.1 209.03L549.1 267.39L541.75 267.39L541.75 238.79L507.08 238.79L507.08 267.39L499.67 267.39L499.67 267.39Z" />
		<path id="Layer" class="shp1" d="M578.94 267.39L578.94 209.03L625.14 209.03L625.14 215.74L586.23 215.74L586.23 232.87L609.76 232.87L609.76 239.59L586.23 239.59L586.23 260.68L627.54 260.68L627.54 267.39L578.94 267.39L578.94 267.39Z" />
		<path id="Layer" fill-rule="evenodd" class="shp1" d="M649.95 267.39L649.95 209.03L682.95 209.03C688.58 209.03 692.99 210.47 696.19 213.34C699.39 216.21 700.99 220.18 700.99 225.26C700.99 229.49 699.74 233.11 697.24 236.12C694.73 239.13 691.43 241.01 687.33 241.75L701.72 267.39L693.79 267.39L679.41 241.86L657.09 241.86L657.09 267.39L649.95 267.39ZM682.48 235.04C686.1 235.04 688.83 234.23 690.69 232.61C692.55 230.98 693.48 228.61 693.48 225.47C693.48 222.41 692.55 220.02 690.69 218.31C688.83 216.6 686.22 215.74 682.85 215.74L657.09 215.74L657.09 235.04L682.48 235.04Z" />
		<path id="Layer" fill-rule="evenodd" class="shp1" d="M741.4 209.03L747.4 209.03L776.18 267.39L768.34 267.39L760.45 251.69L728.35 251.69L720.66 267.39L712.93 267.39L741.4 209.03ZM731.66 244.87L757.24 244.87L744.4 219.02L731.66 244.87Z" />
		<path id="Layer" fill-rule="evenodd" class="shp1" d="M797.22 267.39L797.22 209.03L830.46 209.03C836.09 209.03 840.53 210.44 843.77 213.26C847.01 216.08 848.63 219.94 848.63 224.84C848.63 229.91 847.06 234.02 843.93 237.16C840.79 240.29 836.62 241.86 831.4 241.86L804.41 241.86L804.41 267.39L797.22 267.39ZM829.98 235.04C833.62 235.04 836.38 234.23 838.26 232.61C840.13 230.98 841.06 228.61 841.06 225.47C841.06 222.41 840.13 220.02 838.26 218.31C836.38 216.6 833.75 215.74 830.35 215.74L804.41 215.74L804.41 235.04L829.98 235.04Z" />
		<path id="Layer" class="shp1" d="M870.93 267.39L870.93 209.03L918.7 209.03L918.7 215.74L878.47 215.74L878.47 232.87L902.8 232.87L902.8 239.59L878.47 239.59L878.47 260.68L921.18 260.68L921.18 267.39L870.93 267.39L870.93 267.39Z" />
		<path id="Layer" class="shp1" d="M948.22 209.03L948.22 246.83C948.22 252.89 949.4 256.95 951.76 259.02C954.13 261.08 958.78 262.11 965.72 262.11C972.65 262.11 977.29 261.08 979.64 259.02C981.99 256.95 983.16 252.89 983.16 246.83L983.16 209.03L990.76 209.03L990.76 248.78C990.76 255.98 988.82 261.13 984.93 264.25C981.04 267.37 974.63 268.93 965.72 268.93C956.8 268.93 950.4 267.37 946.51 264.25C942.62 261.13 940.67 255.98 940.67 248.78L940.67 209.03L948.22 209.03L948.22 209.03Z" />
		<path id="Layer" class="shp1" d="M1027.92 267.39L1027.92 215.74L1002.39 215.74L1002.39 209.03L1061.11 209.03L1061.11 215.74L1035.52 215.74L1035.52 267.39L1027.92 267.39Z" />
		<path id="Layer" class="shp1" d="M1075.52 208.71L1083.58 208.71L1083.58 267.39L1075.52 267.39L1075.52 208.71Z" />
		<path id="Layer" class="shp1" d="M1162.9 248.78L1168.95 253.12C1166.16 258.19 1162.34 262.1 1157.5 264.83C1152.66 267.56 1147.15 268.93 1140.99 268.93C1131.89 268.93 1124.37 266.05 1118.45 260.28C1112.52 254.52 1109.56 247.22 1109.56 238.37C1109.56 229.49 1112.53 222.17 1118.48 216.4C1124.42 210.64 1131.92 207.76 1140.99 207.76C1146.6 207.76 1151.72 208.94 1156.35 211.3C1160.97 213.66 1164.73 217.03 1167.63 221.4L1161.3 225.73C1159.39 222.25 1156.64 219.51 1153.04 217.54C1149.45 215.57 1145.43 214.58 1140.99 214.58C1134.16 214.58 1128.51 216.83 1124.03 221.32C1119.56 225.81 1117.32 231.5 1117.32 238.37C1117.32 245.24 1119.56 250.92 1124.03 255.39C1128.51 259.87 1134.16 262.11 1140.99 262.11C1145.76 262.11 1150 260.98 1153.7 258.72C1157.41 256.47 1160.47 253.16 1162.9 248.78L1162.9 248.78Z" />
	</g>
	<path id="Layer" fill-rule="evenodd" class="shp1" d="M1223.4 283.13C1237.38 277.88 1235.98 279.98 1235.98 279.98C1235.98 279.98 1249.96 277.18 1256.25 274.38C1262.54 271.58 1275.12 272.98 1290.85 272.28C1306.58 271.58 1315.32 270.53 1330 271.23C1344.68 271.93 1349.57 275.43 1349.57 275.43C1349.57 275.43 1355.51 278.93 1348.52 278.93C1341.53 278.93 1321.96 279.28 1307.98 278.23C1294 277.18 1285.96 278.93 1271.98 281.38C1258 283.83 1252.06 281.38 1252.06 281.38C1252.06 281.38 1249.61 285.58 1263.24 285.23C1276.87 284.88 1271.98 286.63 1270.93 288.03C1269.88 289.43 1266.74 290.13 1268.14 293.63C1269 295.79 1273.47 296.88 1279.57 298.06L1209.98 298.06L1209.98 287.36C1214.02 286.27 1218.54 284.95 1223.4 283.13ZM1338.75 298.06C1339.43 297.33 1339.74 296.73 1339.44 296.43C1338.04 295.03 1320.91 289.08 1313.57 288.38C1306.23 287.68 1300.29 288.73 1300.29 288.73C1300.29 288.73 1295.4 286.63 1301.69 284.88C1307.98 283.13 1318.12 283.83 1326.15 283.48C1334.19 283.13 1348.52 282.78 1367.4 283.83C1382.52 284.67 1401.46 292.47 1413.42 298.06L1338.75 298.06ZM1483.09 289.78C1491.13 284.18 1506.86 278.23 1521.88 274.38C1536.91 270.53 1547.75 265.28 1561.03 263.54C1574.31 261.79 1589.34 270.19 1601.92 271.23C1605.8 271.56 1608.95 271.05 1611.45 270.19C1613.69 270.5 1615.56 270.75 1616.44 270.86C1624.63 271.89 1632.82 272.83 1641.03 273.69C1641.89 273.77 1642.75 273.86 1643.61 273.95C1639.4 274.82 1635.66 276.74 1625.34 279.63C1607.87 284.53 1586.2 277.53 1580.25 277.18C1574.31 276.83 1561.38 277.88 1561.38 277.88L1568.58 278.72C1568.58 278.72 1570.82 278.93 1579.9 280.33C1588.99 281.73 1608.22 283.48 1614.85 283.48C1621.5 283.48 1635.13 279.63 1640.37 277.88C1644.67 276.44 1649.68 274.78 1656.17 275.19C1656.8 275.25 1657.43 275.31 1658.06 275.36C1658.89 275.47 1659.76 275.6 1660.64 275.78C1665.49 276.75 1673.34 278.47 1679.38 279.82L1679.38 289.55C1672.43 286.02 1663.44 282.08 1657.85 282.08C1647.71 282.08 1635.48 284.18 1631.98 283.83C1628.49 283.48 1614.85 283.48 1607.87 284.88C1600.88 286.28 1582 288.03 1582 288.03L1573.61 286.98C1573.61 286.98 1584.73 289.36 1587.52 289.36C1590.32 289.36 1590.04 289.43 1596.33 288.73C1602.62 288.03 1619.05 286.98 1619.05 286.98C1619.05 286.98 1642.47 284.53 1647.71 284.18C1652.95 283.83 1663.09 286.28 1667.28 287.68C1669.38 288.38 1674.65 290.75 1679.38 292.94L1679.38 298.06L1673.26 298.06C1670.72 295.65 1667.5 293.25 1663.79 291.88C1654.35 288.38 1629.47 288.15 1623.94 289.08C1612.76 290.97 1603.95 291.18 1600.81 293.63C1599.47 294.67 1597.95 296.41 1596.65 298.06L1573.31 298.06C1567.9 292.49 1559.61 284.04 1557.54 282.43C1554.39 279.98 1533.77 277.53 1528.18 278.93C1522.58 280.33 1516.29 281.38 1514.54 283.13C1512.8 284.88 1504.06 285.23 1500.91 284.88C1497.77 284.53 1497.42 286.63 1499.51 288.38C1500.54 289.24 1507.97 293.72 1515.27 298.06L1474.31 298.06C1477.12 295.34 1479.61 292.2 1483.09 289.78ZM1515.94 294.68C1515.94 294.68 1509.65 288.38 1511.4 286.63C1513.15 284.88 1520.48 289.08 1520.48 289.08C1520.48 289.08 1531.67 292.93 1538.66 296.08C1545.65 299.22 1532.72 290.48 1532.72 290.48C1532.72 290.48 1520.48 286.28 1526.08 284.53C1531.67 282.78 1533.77 283.83 1537.26 285.93C1540.76 288.03 1550.54 286.28 1555.79 286.98C1559.04 287.41 1566.86 293.5 1572.34 298.06L1519.91 298.06L1515.94 294.68ZM1599.88 298.06C1600.15 297.44 1600.68 296.78 1601.57 296.08C1606.47 292.23 1619.05 292.23 1628.49 291.88C1637.92 291.53 1646.72 291 1650.86 291.88C1657.5 293.28 1663.44 294.68 1663.44 294.68L1666.7 298.06L1599.88 298.06ZM1495.47 247.13C1505.46 247.42 1515.42 248.51 1525.26 250.26C1530.76 251.23 1536.21 252.41 1541.63 253.71C1536.44 256.97 1530.37 261.45 1524.68 262.49C1516.99 263.89 1511.4 265.63 1505.46 266.68C1499.51 267.73 1477.15 277.53 1437.65 280.33C1398.15 283.13 1361.46 271.23 1347.12 267.38C1342.99 266.27 1338.27 264.78 1333.48 263.23C1340.28 262.32 1347.07 261.42 1353.88 260.54C1370.85 258.35 1387.83 256.27 1404.83 254.37C1417.35 254.98 1435.85 255.84 1442.54 255.84C1453.03 255.84 1468.41 251.64 1480.64 248.84C1483 248.3 1485.25 247.69 1487.33 247.07C1490.05 247.03 1492.76 247.05 1495.47 247.13ZM1225.69 274.48C1220.22 276.43 1214.56 278.72 1209.98 280.65L1209.98 275.27C1215.22 275.04 1220.46 274.78 1225.69 274.48ZM1671.16 276.52C1673.9 276.75 1676.63 276.96 1679.38 277.18L1679.38 278.85C1676.93 278.09 1674.13 277.28 1671.16 276.52ZM1479.33 247.34C1467.68 250.32 1455.59 253.32 1454.08 253.39C1440.03 254.02 1428.56 253.52 1419.61 252.76C1421.8 252.53 1423.98 252.3 1426.17 252.08C1438.62 250.8 1451.07 249.63 1463.54 248.57C1466.29 248.34 1469.05 248.11 1471.8 247.89C1474.31 247.68 1476.82 247.48 1479.33 247.34Z" />
	<path id="Layer" fill-rule="evenodd" class="shp1" d="M1566.34 207.78C1560.62 210.97 1553.18 215.12 1547.76 218.13C1542 221.34 1533.85 225.46 1527.94 228.4C1530.94 228.92 1533.93 229.49 1536.92 230.11C1543.61 231.5 1550.24 233.13 1556.84 234.88C1564.45 236.91 1572.01 239.1 1579.6 241.2C1581.37 241.69 1583.15 242.17 1584.93 242.65C1586.09 242.95 1587.25 243.25 1588.42 243.55C1595.34 242.92 1605.67 242 1610.12 241.64C1617.11 241.08 1630.53 244.45 1636.68 243.89C1642.83 243.33 1648.42 239.68 1654.58 239.97C1660.73 240.25 1675.26 246.68 1675.26 246.68C1675.26 246.68 1670.79 246.12 1668.55 250.04C1667.91 251.18 1667.17 252.6 1666.44 254.04C1670.21 254.37 1673.98 254.68 1677.76 254.98L1679.38 255.11L1679.38 232.97C1677.5 232.98 1675.61 232.97 1673.74 232.94C1663.4 232.82 1653.05 232.19 1642.79 230.96C1631.73 229.64 1620.72 227.61 1610.02 224.52C1605.26 223.14 1600.57 221.54 1595.93 219.82C1591.14 218.04 1586.39 216.15 1581.65 214.22C1576.53 212.12 1571.43 209.96 1566.34 207.78ZM1638.72 251.32C1647.6 252.28 1656.49 253.15 1665.38 253.94C1665.29 252.18 1664.39 250.63 1661.84 250.04C1654.58 248.36 1647.58 245.85 1643.67 248.64C1642.38 249.57 1640.56 250.49 1638.72 251.32ZM1277.66 221.4C1276.33 221.66 1275 221.91 1273.67 222.15C1273.04 222.3 1272.48 222.47 1271.98 222.65C1264.99 225.17 1260.8 226.85 1253.81 229.64C1246.82 232.44 1229.2 239.72 1223.89 242.24C1220.02 244.08 1213.33 247.99 1209.98 249.98L1209.98 253.25C1210.9 253.21 1211.81 253.17 1212.72 253.13C1219.74 248.22 1229.2 241.85 1233.96 239.72C1242.07 236.08 1263.6 229.08 1276.46 227.41C1289.32 225.73 1323.99 224.6 1343.01 228.81C1356.61 231.81 1367.78 233.81 1377.44 235.42C1380.76 235.02 1384.09 234.62 1387.41 234.23C1396.88 233.11 1406.35 232.05 1415.82 231.05C1409.39 229.73 1398.03 227.54 1392.21 226.03C1384.66 224.07 1369.85 222.37 1365.93 220.97C1362.02 219.57 1350.27 213.69 1348.04 215.65C1345.8 217.61 1341.33 217.05 1344.96 219.01C1348.6 220.97 1356.71 223.77 1356.99 224.6C1357.27 225.45 1353.35 226.56 1353.35 226.56C1353.35 226.56 1341.89 223.49 1337.69 220.97C1333.5 218.45 1316.72 219.57 1307.78 219.85C1300.65 220.07 1286.62 220.12 1277.66 221.4ZM1216.47 252.95C1220.93 252.73 1225.38 252.48 1229.83 252.21C1233.82 249.87 1238.6 247.5 1244.02 245.6C1260.8 239.72 1282.61 235.52 1292.68 234.96C1301.86 234.45 1329.64 235.34 1346.56 239.32C1352.79 238.51 1359.03 237.71 1365.28 236.92C1359.33 235.22 1352.99 233.58 1348.88 232.44C1340.77 230.2 1314.49 227.41 1297.43 228.52C1280.37 229.64 1262.48 231.32 1246.54 237.48C1232.8 242.79 1221.77 248.72 1216.47 252.95ZM1239.3 251.58C1253.31 250.61 1267.3 249.39 1281.25 247.85C1286.64 247.26 1292.03 246.6 1297.42 245.91C1302.89 245.19 1308.35 244.44 1313.81 243.69C1319.2 242.96 1324.58 242.23 1329.96 241.51L1332.33 241.19C1329.3 240.22 1326.67 239.46 1325.11 239.16C1319.24 238.04 1290.16 237.2 1277.3 239.44C1264.44 241.68 1253.25 244.2 1242.63 249.8C1241.48 250.4 1240.37 251 1239.3 251.58ZM1263.49 223.77C1262.36 223.93 1261.23 224.09 1260.1 224.24C1253.6 225.11 1247.08 225.82 1240.54 226.43C1239.82 226.5 1239.11 226.57 1238.39 226.63C1236.98 227.46 1235.36 228.34 1233.68 229.08C1228.64 231.32 1221.09 236.64 1217.46 238.32C1215.18 239.37 1212.02 240.76 1209.98 241.64L1209.98 247.47C1213.27 245.73 1220.46 241.89 1225.29 239.16C1231.72 235.52 1245.14 230.2 1251.57 227.96C1253.46 227.31 1258.01 225.7 1263.49 223.77ZM1209.98 228.53L1209.98 239.11C1213.96 237.29 1221.32 233.85 1223.33 232.44C1224.68 231.5 1228.36 229.26 1231.82 227.19C1224.55 227.76 1217.27 228.21 1209.98 228.53ZM1555.74 203.24C1553 205.1 1549.39 207.36 1544.69 210.01C1534.86 215.56 1521.71 222.25 1513.51 226.36C1516.84 226.72 1520.17 227.17 1523.49 227.68C1530.85 223.99 1539.98 219.32 1544.97 216.45C1551.11 212.91 1557.88 209.37 1563.12 206.4C1560.66 205.35 1558.2 204.29 1555.74 203.24ZM1492.32 206.41C1471.91 213.69 1434.72 220.13 1420.74 220.97C1406.76 221.81 1363.98 212.01 1355.31 209.21C1351.89 208.11 1347.42 206.61 1343.27 205.2C1342.2 205.48 1341.14 205.75 1340.07 206.03C1337.07 206.8 1334.07 207.57 1331.06 208.34C1336.8 209.57 1345.43 212.55 1351.11 213.69C1358.11 215.09 1384.55 225.77 1410.9 226.26C1442.47 226.84 1467.15 226.29 1478.06 221.81C1488.96 217.33 1514.97 208.09 1522.8 204.17C1526.98 202.08 1532.75 198.47 1537.53 195.52C1534.89 194.42 1532.23 193.34 1529.58 192.29C1520.83 195.81 1506.79 201.25 1492.32 206.41ZM1542.26 197.49C1540.28 199.12 1538.13 200.61 1536.3 201.26C1514.29 209.05 1504.34 215.37 1498.75 217.89C1495.03 219.57 1488.7 222.73 1483.82 225.16C1485.25 225.11 1486.69 225.08 1488.13 225.07C1489.02 225.06 1489.92 225.06 1490.81 225.06C1496.86 225.1 1502.89 225.37 1508.92 225.9C1516 222.38 1524.47 218.12 1528.47 215.89C1532.91 213.42 1543.47 206.58 1551.4 201.37L1549.53 200.57C1547.11 199.54 1544.69 198.51 1542.26 197.49ZM1348.15 203.94C1354.71 206.11 1362.5 208.66 1368.73 210.61C1382.15 214.81 1399.49 217.33 1419.06 217.89C1438.63 218.45 1475.41 212.01 1488.55 206.69C1500.57 201.83 1516.9 195.56 1526.02 190.89C1523.71 189.99 1521.4 189.12 1519.08 188.28C1514.9 186.76 1510.68 185.33 1506.39 184.13C1504.52 183.61 1502.62 183.15 1500.71 182.73C1495.42 181.57 1490.04 180.76 1484.65 180.2C1477.98 179.5 1471.28 179.18 1464.58 179.17C1456.49 179.15 1448.4 179.58 1440.36 180.46C1431.88 181.38 1423.46 182.79 1415.17 184.79C1411.69 185.63 1408.24 186.56 1404.82 187.62C1402.56 188.32 1400.33 189.09 1398.1 189.83C1396.72 190.28 1395.33 190.72 1393.95 191.16C1385.47 193.79 1376.92 196.2 1368.36 198.55C1361.63 200.39 1354.89 202.18 1348.15 203.94Z" />
	<path id="Layer" fill-rule="evenodd" class="shp1" d="M1614.88 194.54C1623.27 194.26 1634.73 193.7 1642.28 194.82C1649.83 195.94 1666.61 200.7 1670.24 203.22C1671.89 204.35 1675.69 206.29 1679.38 208.07L1679.38 210.99C1676.59 211 1673.8 210.97 1671.02 210.9C1662.46 210.7 1653.9 210.14 1645.39 209.12C1637.67 208.2 1630 206.9 1622.45 205.07C1619.21 204.29 1615.99 203.4 1612.82 202.4C1609.22 201.26 1605.66 199.99 1602.12 198.66C1601.22 198.32 1600.32 197.98 1599.42 197.63C1604.14 196.24 1610.33 194.69 1614.88 194.54ZM1225 184.46C1230.59 182.79 1240.38 178.58 1247.09 177.47C1253.8 176.35 1266.11 176.35 1268.9 176.35C1271.7 176.35 1280.09 173.83 1281.21 173.27C1282.32 172.71 1286.8 172.71 1289.87 172.99C1292.95 173.27 1303.29 174.39 1307.49 175.23C1311.68 176.07 1320.63 176.07 1326.22 176.91C1330.89 177.61 1343.53 179.67 1350.19 180.66C1347.73 181.31 1345.26 181.96 1342.8 182.61C1325.81 187.04 1308.78 191.29 1291.74 195.49C1287.27 196.59 1282.8 197.7 1278.33 198.77C1272.63 200.08 1266.87 201.06 1261.09 201.9C1255.09 202.77 1249.07 203.48 1243.04 204.1C1232.05 205.21 1221.02 206.01 1209.98 206.51L1209.98 195.9C1213.84 192.2 1221.04 185.66 1225 184.46ZM1621.03 187.82C1632.49 186.42 1637.81 186.42 1645.08 187.82C1651.12 188.99 1656 188.8 1660.37 189.82C1662.14 190.49 1663.94 191.17 1665.71 191.83C1669.76 193.74 1675.56 196.89 1679.38 198.97L1679.38 205.51C1674.47 203.37 1668.85 200.84 1666.05 199.3C1660.46 196.22 1637.53 192.02 1630.26 192.02C1622.99 192.02 1605.93 195.1 1601.74 195.94C1600.62 196.16 1599.17 196.52 1597.64 196.94C1594.54 195.72 1591.45 194.47 1588.37 193.2C1593.13 192.32 1611.14 189.03 1621.03 187.82ZM1614.08 176.76C1621.25 178.86 1628.61 180.24 1636.01 181.2C1645.01 182.37 1654.09 182.92 1663.16 183.09C1668.56 183.19 1673.97 183.16 1679.38 183.01L1679.38 196.89C1675.98 195.64 1670.95 193.79 1665.71 191.83C1664.66 191.33 1663.72 190.91 1662.97 190.62C1662.12 190.29 1661.26 190.03 1660.37 189.82C1652.45 186.84 1645.15 184 1643.4 183.06C1638.07 180.22 1631.65 184.18 1628.3 185.31C1624.94 186.42 1595.59 190.9 1593.91 190.9C1592.94 190.9 1589.55 191.65 1586.27 192.33C1583.7 191.26 1581.13 190.17 1578.56 189.08C1577.54 188.65 1576.52 188.21 1575.49 187.77C1581.3 185.75 1587.23 183.66 1588.34 183.21C1590.63 182.29 1600.42 181.13 1608.74 177.2C1609.72 176.74 1610.63 176.33 1611.48 175.96C1612.35 176.24 1613.21 176.51 1614.08 176.76ZM1222.21 181.94C1219.15 185.2 1213.35 191.72 1209.98 195.52L1209.98 179.7C1217.25 179.13 1224.47 177.96 1231.58 176.38C1228.3 177.67 1224.45 179.56 1222.21 181.94ZM1595.28 169.2C1596.82 169.93 1598.35 170.65 1599.89 171.36C1601.43 172.07 1602.98 172.78 1604.55 173.43L1604.94 173.59C1601.19 175.14 1596.89 176.73 1593.31 177.99C1584.94 180.95 1575.61 183.17 1568.26 184.67C1564.81 183.18 1561.37 181.71 1557.93 180.24C1562.12 178.87 1566.09 177.55 1567.06 177.19C1569.3 176.35 1581.89 173.27 1591.11 170.47L1595.28 169.2ZM1574.31 158.82C1580.3 161.88 1586.32 164.89 1592.38 167.81C1587.91 169.34 1581.61 171.15 1576.85 172.71C1569.13 175.24 1560.97 177.28 1554.42 178.75C1549.47 176.65 1544.5 174.58 1539.51 172.58C1534.19 170.44 1528.85 168.38 1523.45 166.49C1522.31 166.1 1521.17 165.71 1520.03 165.33C1528.78 162.39 1540.59 158.15 1543.2 157.03C1545.6 156 1552.06 152.37 1556.73 149.69C1562.57 152.78 1568.42 155.82 1574.31 158.82ZM1283.72 166.55C1290.43 167.11 1307.21 166.27 1315.32 167.39C1323.43 168.51 1336.29 169.63 1339.92 170.47C1342.73 171.12 1356.7 174.77 1365.5 176.53C1362.9 177.24 1360.31 177.95 1357.71 178.65C1353.74 177.87 1349.14 177.03 1346.07 176.63C1339.64 175.79 1334.33 175.23 1329.86 174.67C1325.38 174.11 1318.67 176.07 1311.68 174.39C1304.69 172.71 1291.55 170.47 1287.08 170.75C1282.6 171.03 1274.77 172.71 1273.1 173.55C1271.42 174.39 1265.83 174.67 1264.15 173.55C1262.47 172.43 1256.6 170.19 1256.6 170.19L1246.74 172.36C1249.28 171.6 1251.81 170.79 1254.33 169.96C1257.96 168.77 1261.57 167.51 1265.16 166.21C1271.4 166.18 1279.78 166.22 1283.72 166.55ZM1402.84 112.53C1406.68 112.91 1415.04 113.17 1422.43 114.56C1424.75 115.16 1427.13 115.8 1429.36 116.41C1430.06 116.68 1430.73 116.97 1431.36 117.28C1439.19 121.2 1471.34 131.84 1475.26 133.52C1479.17 135.2 1490.36 135.48 1498.47 134.64C1504.92 133.97 1511.73 130.82 1515.79 127.16C1518.8 128.91 1521.82 130.63 1524.84 132.34C1531.42 136.04 1538.03 139.67 1544.67 143.25C1534.71 147.24 1519.95 153.32 1516.08 154.79C1513.16 155.9 1505.98 158.12 1499.48 160.07C1496.77 159.59 1494.04 159.18 1491.32 158.84C1483.15 157.79 1474.93 157.29 1466.7 157.19C1465.64 156.25 1464.39 155.43 1462.95 155.07C1458.48 153.95 1446.18 154.23 1441.42 154.51C1438.89 154.66 1434.2 157.21 1430.38 159.54C1423.21 160.56 1416.08 161.91 1409.05 163.64C1405.78 164.45 1402.53 165.35 1399.3 166.31C1398.34 166.61 1397.38 166.91 1396.42 167.21C1394.69 167.77 1392.98 168.37 1391.25 168.93C1389.04 169.66 1386.82 170.35 1384.59 171.03C1380.29 172.34 1375.98 173.59 1371.66 174.81C1367.03 173.9 1360.49 172.5 1357.26 171.31C1351.95 169.35 1344.4 168.23 1344.4 168.23C1344.4 168.23 1335.73 168.51 1331.54 167.39C1327.34 166.27 1315.32 165.43 1311.4 164.31C1307.49 163.19 1294.63 163.47 1290.71 162.63C1288.32 162.12 1282.39 161.61 1278.13 161.29C1283.29 159.24 1288.42 157.12 1293.52 154.93C1299 152.57 1304.45 150.12 1309.86 147.58C1311.55 146.78 1313.23 145.98 1314.92 145.16C1320.9 146.35 1328 147.87 1330.97 148.91C1336.57 150.87 1350.83 152.55 1355.3 153.67C1359.7 154.77 1367.34 156.69 1375.84 153.03C1377.82 152.39 1379.22 151.69 1379.98 151.25C1380.26 151.09 1380.71 150.84 1381.28 150.53C1388.58 147.16 1395.92 143.91 1398.64 145.28C1402 146.95 1415.98 149.2 1419.33 149.2C1422.69 149.2 1427.44 146.68 1427.44 146.68C1427.44 146.68 1416.54 148.07 1412.9 147.24C1409.27 146.4 1394.56 143.85 1393.16 144.41C1391.97 144.89 1384.61 148.73 1381.28 150.53C1379.59 151.31 1377.9 152.1 1376.27 152.83C1376.13 152.9 1375.98 152.97 1375.84 153.03C1372.74 154.02 1368.2 154.83 1362.4 154.15C1352.89 153.03 1339.65 150.96 1333.5 148.44C1329.75 146.91 1322.45 145.13 1317.34 143.97C1320.55 142.38 1323.74 140.75 1326.9 139.05C1327.89 138.52 1328.86 137.98 1329.84 137.44C1331.74 136.36 1333.63 135.25 1335.54 134.2C1338.48 132.58 1341.46 131.03 1344.47 129.55C1344.72 129.43 1344.96 129.31 1345.21 129.18C1351.09 128.08 1358.16 127.06 1363.25 127.34C1373.6 127.9 1383.62 125.14 1392.57 127.09C1401.52 129.05 1406.26 129.71 1409.05 130.56C1411.85 131.39 1425.84 133.52 1429.48 134.92C1433.11 136.32 1440.43 141.03 1444.66 145.33C1447.82 148.54 1459.88 151.99 1467.99 151.43C1476.1 150.87 1482.81 148.07 1484.76 148.07C1486.72 148.07 1480.01 146.12 1473.86 146.4C1467.71 146.68 1464.63 150.59 1459.88 149.2C1455.13 147.8 1450.37 147.51 1442.82 142.2C1435.27 136.88 1425.77 131.84 1420.73 131.84C1415.7 131.84 1407.87 129.32 1404.23 128.76C1400.6 128.2 1391.93 125.4 1386.9 125.68C1381.86 125.96 1356.7 126.8 1350.55 127.08C1350.19 127.1 1349.82 127.13 1349.44 127.17C1354.57 124.79 1359.77 122.58 1365.03 120.52C1372.42 117.64 1379.93 115.05 1387.53 112.78C1388.06 112.63 1388.6 112.47 1389.13 112.31C1394.77 112.3 1400.59 112.3 1402.84 112.53ZM1554.58 148.56C1547.68 151.74 1535.64 157.41 1532.58 158.43C1530.39 159.16 1522.46 161.63 1515.34 163.83C1513.59 163.3 1511.82 162.8 1510.05 162.35C1508.97 162.07 1507.9 161.81 1506.82 161.56C1514.49 158.47 1529.08 152.68 1531.74 152.27C1535.37 151.72 1544.88 148.07 1548.51 147.24C1549.22 147.07 1549.89 146.77 1550.52 146.4C1551.87 147.12 1553.23 147.84 1554.58 148.56ZM1443.66 157.03C1447.7 156.76 1455.11 156.49 1459.4 157.23C1452 157.39 1444.6 157.86 1437.25 158.67C1439.93 157.79 1442.34 157.12 1443.66 157.03ZM1408.32 107.51C1413.72 106.4 1419.19 105.49 1424.7 105.04C1426.06 104.93 1427.43 104.85 1428.8 104.81C1429.74 104.79 1430.68 104.79 1431.62 104.8C1433.57 104.82 1435.51 104.86 1437.46 104.94C1438.49 104.99 1439.52 105.04 1440.55 105.1C1447.5 108.2 1456.38 112.27 1459.6 114.21C1465.19 117.56 1477.5 122.32 1479.17 122.88C1480.85 123.44 1474.98 118.69 1474.98 116.17C1474.98 113.65 1481.13 117 1482.53 116.73C1483.26 116.58 1486.49 115.52 1489.43 114.54C1493.89 116.08 1498.28 117.82 1502.54 119.84C1504.16 120.6 1505.75 121.4 1507.33 122.24C1507.93 122.57 1508.52 122.89 1509.11 123.23C1510.66 124.11 1512.19 125.04 1513.73 125.95C1512.75 127.21 1510.05 130.22 1506.29 130.44C1501.54 130.72 1485.32 132.68 1480.01 131.28C1474.7 129.88 1471.62 129.04 1462.95 125.96C1454.29 122.88 1442.26 120.36 1440.03 119.52C1439.12 119.18 1434.66 117.87 1429.36 116.41C1427.3 115.64 1424.92 115.03 1422.43 114.56C1416.69 113.07 1411.28 111.8 1409.27 111.69C1406.81 111.54 1400.17 111.17 1394.32 110.85C1398.95 109.6 1403.62 108.47 1408.32 107.51ZM1453.38 106.28C1461.91 107.36 1470.37 109 1478.68 111.25C1477.57 111.25 1476.51 111.3 1475.54 111.41C1467.43 112.25 1472.18 114.48 1467.99 114.21C1465.38 114.03 1451.82 108.98 1441.96 105.19C1445.78 105.43 1449.59 105.8 1453.38 106.28Z" />
	<path id="Layer" fill-rule="evenodd" class="shp1" d="M1624.27 115.53C1623.37 115.58 1622.59 115.62 1622.01 115.62C1618.66 115.62 1618.94 118.97 1616.42 119.25C1613.9 119.53 1601.88 120.1 1601.88 120.1C1601.88 120.1 1606.24 122.1 1609.22 122.1C1612.19 122.1 1626.17 121.76 1626.17 121.76C1626.17 121.76 1636.93 122.1 1637.96 122.22C1638.99 122.33 1651.65 120.66 1651.65 120.66C1651.65 120.66 1655.29 120.1 1658.64 122.33C1662 124.57 1665.07 127.37 1665.07 127.37L1669.55 134.37L1675.14 138.85C1675.14 138.85 1673.74 134.09 1672.62 131.85C1671.5 129.61 1663.67 124.01 1660.88 121.49C1660.71 121.35 1660.55 121.2 1660.4 121.07C1666.71 121.77 1673.04 122.35 1679.38 122.79L1679.38 161.01C1674.53 161.15 1669.68 161.19 1664.84 161.12C1656.15 160.99 1647.46 160.51 1638.84 159.39C1632.24 158.53 1625.65 157.31 1619.27 155.36C1617.28 154.75 1615.3 154.06 1613.36 153.28C1611.91 152.69 1610.49 152.04 1609.07 151.38C1607.02 150.44 1604.98 149.47 1602.94 148.5C1601.59 147.85 1600.25 147.2 1598.9 146.55C1599.45 144.93 1600.79 140.85 1600.97 139.3C1601.2 137.35 1605.55 139.3 1607.84 139.99C1610.13 140.68 1614.6 140.79 1618.26 140.68C1621.93 140.56 1626.62 140.33 1628.69 140.68C1630.75 141.02 1635.1 141.94 1635.1 141.94C1635.1 141.94 1640.71 140.91 1643.57 141.02C1646.44 141.14 1652.96 142.86 1654.11 143.32C1655.26 143.77 1661.44 146.76 1661.44 146.76C1661.44 146.76 1666.71 146.3 1668.54 145.49C1670.38 144.69 1668.77 139.42 1667.28 138.39C1665.79 137.35 1654.8 133 1650.79 131.62C1646.78 130.25 1643.46 129.79 1640.94 129.56C1638.42 129.33 1630.29 128.64 1630.29 128.64L1623.3 129.67C1623.3 129.67 1625.59 130.47 1629.37 130.47C1633.15 130.47 1640.14 131.62 1643.23 132.2C1646.32 132.77 1655.83 136.21 1655.83 136.21C1655.83 136.21 1663.39 138.5 1665.91 139.76C1668.43 141.02 1667.97 141.94 1667.97 141.94C1667.97 141.94 1666.36 144.12 1664.3 145.49C1662.24 146.87 1659.04 145.26 1659.04 145.26C1659.04 145.26 1654.34 142.17 1650.68 141.14C1647.01 140.1 1638.53 139.65 1636.13 139.19C1633.72 138.73 1635.1 137.35 1635.1 137.35C1635.1 137.35 1625.36 137.81 1623.53 138.04C1621.7 138.27 1610.02 138.84 1610.02 138.84C1610.02 138.84 1605.78 137.24 1605.09 136.32C1604.41 135.4 1606.35 133.8 1608.53 133.23C1610.7 132.65 1617.35 129.44 1617.35 129.44C1617.35 129.44 1613.34 128.41 1608.87 128.52C1604.41 128.64 1603.03 130.7 1603.03 130.7C1603.03 130.7 1595.01 132.65 1593.75 132.88C1592.49 133.11 1586.54 130.47 1583.33 131.85C1581.79 132.51 1579.26 134.06 1577.03 135.5C1570 131.86 1562.99 128.15 1556.01 124.39C1559.85 123.14 1568.05 119.81 1568.05 119.81C1568.05 119.81 1578.39 116.74 1584.54 114.5C1587.51 113.42 1591.84 110.9 1595.53 108.59C1605 111.34 1614.6 113.62 1624.27 115.53ZM1335.06 94.77C1335.06 94.77 1345.79 94.48 1349.66 94.77C1353.53 95.06 1361.54 94.77 1363.26 95.2C1363.97 95.38 1365.85 95.72 1367.83 96.05C1364.85 97.09 1361.88 98.18 1358.93 99.31C1353.41 101.42 1347.95 103.7 1342.56 106.14L1338.86 105.93C1338.86 105.93 1333.13 107.36 1331.52 108.79C1329.91 110.23 1323.11 108.61 1320.43 108.97C1317.74 109.33 1309.15 112.2 1309.15 112.2C1309.15 112.2 1315.06 112.02 1316.85 111.84C1318.64 111.66 1322.57 109.87 1322.57 109.87C1322.57 109.87 1329.02 110.23 1330.8 110.4C1332.6 110.58 1335.64 108.25 1337.25 107.72C1337.87 107.51 1338.72 107.49 1339.51 107.54C1335.18 109.57 1330.91 111.71 1326.7 113.98C1325.53 114.61 1324.36 115.26 1323.19 115.91C1321.82 116.69 1320.45 117.49 1319.07 118.27C1317.58 119.11 1316.07 119.92 1314.56 120.72C1309.5 123.38 1304.36 125.88 1299.18 128.3C1292.93 131.21 1286.63 134 1280.27 136.67C1273.53 139.5 1266.73 142.2 1259.87 144.73C1254.28 146.79 1248.65 148.74 1242.96 150.52C1240.55 151.27 1238.13 152 1235.7 152.67C1236.82 151.92 1237.84 151.26 1238.46 150.89C1240.62 149.64 1243.48 149.82 1243.48 149.82C1243.48 149.82 1247.59 147.13 1250.28 141.76C1252.96 136.38 1263.7 133.51 1265.85 132.26C1268 131.01 1272.47 129.04 1274.44 128.5C1276.4 127.96 1277.84 126.89 1279.45 126.89C1281.06 126.89 1284.81 126.53 1285.53 126.53C1286.25 126.53 1290.18 124.02 1290.18 124.02L1292.15 121.16L1293.94 121.87L1300.21 117.93L1304.14 114.35L1296.09 120.26L1292.15 119.54C1292.15 119.54 1290.54 121.69 1288.75 122.95C1286.96 124.2 1283.92 125.63 1281.77 125.63C1279.62 125.63 1273.72 125.27 1272.11 125.45C1270.5 125.63 1262.98 129.57 1261.55 130.65C1260.12 131.72 1252.96 135.84 1249.92 138.17C1246.88 140.5 1244.19 146.41 1240.97 147.85C1237.75 149.28 1234.35 150.53 1232.02 151.97C1231.2 152.48 1229.78 153.48 1228.3 154.57C1222.27 155.98 1216.15 157.05 1209.98 157.63L1209.98 150.27C1210.84 150.06 1213.19 149.43 1215.2 148.56C1217.71 147.49 1214.13 146.23 1218.42 146.59C1222.72 146.95 1229.88 143.01 1232.92 141.4C1235.96 139.79 1244.01 133.51 1246.88 130.83C1249.74 128.14 1254.04 122.05 1255.29 120.62C1256.54 119.18 1259.05 120.98 1261.01 121.33C1262.98 121.69 1266.56 121.69 1269.25 120.98C1271.93 120.26 1275.87 117.21 1277.12 115.96C1278.37 114.7 1278.37 112.55 1278.37 112.55L1283.03 110.23L1290.18 110.76C1290.18 110.76 1298.59 111.48 1300.21 111.48C1301.82 111.48 1309.33 108.61 1313.27 106.28C1317.2 103.96 1316.67 101.45 1318.28 100.02C1319.89 98.58 1322.04 98.76 1322.04 98.76L1330.8 98.22L1324.36 97.51L1322.22 97.6C1326.26 96.57 1330.3 95.53 1334.35 94.49L1335.06 94.77ZM1215.38 136.74C1216.28 136.2 1225.22 134.23 1227.19 133.34C1229.16 132.44 1236.86 126.35 1238.29 124.38C1239.72 122.41 1242.05 121.33 1244.19 120.26C1246.34 119.18 1249.56 117.57 1249.56 117.57L1249.21 120.08C1249.21 120.08 1245.98 125.1 1244.19 126.89C1242.4 128.68 1229.88 139.07 1226.66 140.68C1223.43 142.29 1222.9 143.73 1221.83 144.44C1220.75 145.16 1217.17 144.09 1216.28 143.91C1215.38 143.73 1214.31 146.95 1213.06 147.13C1212.35 147.23 1211.01 147.67 1209.98 148.04L1209.98 138.29C1211.91 137.83 1214.8 137.09 1215.38 136.74ZM1588.26 137.81C1590.32 137.12 1594.78 135.63 1597.42 135.29C1600.05 134.95 1602.11 135.18 1602.11 135.18C1602.11 135.18 1601.43 136.55 1599.59 137.81C1597.76 139.07 1597.76 139.3 1595.36 139.87C1594.13 140.17 1591.92 141.21 1590.05 142.15C1588.12 141.18 1586.2 140.21 1584.28 139.23L1584.24 139.21C1585.92 138.61 1587.49 138.06 1588.26 137.81ZM1240.26 119.54C1238.11 121.69 1237.39 121.33 1235.25 122.41C1233.1 123.48 1230.77 125.99 1227.91 128.5C1225.04 131.01 1223.79 129.04 1223.79 129.04C1223.79 129.04 1219.32 130.65 1217.17 132.26C1215.85 133.26 1212.42 134.66 1209.98 135.58L1209.98 120.66C1212.71 120.37 1215.43 120.05 1218.14 119.7C1226.65 118.6 1235.13 117.23 1243.57 115.67C1242.5 117.03 1241.25 118.55 1240.26 119.54ZM1587.45 106.12C1588.68 106.52 1589.92 106.91 1591.16 107.29C1586.76 110 1578.38 114.86 1569.72 118.14C1562.6 120.83 1556.82 122.18 1553.14 122.84C1549.94 121.11 1546.75 119.36 1543.56 117.6L1545.14 118.03C1545.14 118.03 1550.73 116.63 1552.97 116.07C1555.2 115.51 1558.56 114.96 1558.28 114.96C1558 114.96 1556.58 114.43 1555.2 114.67C1554.23 114.85 1546.32 115.08 1547.56 113.87C1548.62 112.85 1550.83 111.98 1553.53 110.76C1556.07 109.6 1558.56 110.48 1561.08 110.76C1563.59 111.04 1567.52 111.17 1569.48 111.45C1571.43 111.74 1577.01 109.36 1580.93 107.12C1582.01 106.49 1583.32 105.83 1584.63 105.2C1585.57 105.51 1586.51 105.81 1587.45 106.12ZM1630.86 116.77C1631.6 116.91 1632.35 117.04 1633.1 117.17C1638.17 118.06 1643.26 118.86 1648.37 119.57L1646.62 119.81L1634.31 119.81L1626.77 118.7L1630.86 116.77ZM1306.47 105.39C1306.47 105.39 1301.46 108.79 1299.13 109.15C1296.81 109.51 1294.3 108.79 1291.08 108.97C1287.86 109.15 1284.46 108.61 1284.46 108.61L1280.52 109.33C1280.52 109.33 1274.97 114.53 1272.11 116.14C1269.25 117.75 1267.82 117.93 1267.82 117.93L1264.42 117.75L1267.28 115.96L1272.11 111.3L1271.74 109.89C1287.62 106.35 1303.4 102.41 1319.16 98.39L1306.47 105.39ZM1268.57 110.59C1267.74 111.45 1266.8 112.44 1265.85 113.45C1263.16 116.32 1263.16 113.45 1261.73 113.63C1261.21 113.7 1260.29 113.21 1259.35 112.56C1261.51 112.11 1263.66 111.65 1265.82 111.19C1266.74 110.99 1267.66 110.79 1268.57 110.59ZM1403.91 76.36C1411.95 74.52 1420.04 72.85 1428.18 71.52C1434.4 70.51 1440.67 69.68 1446.96 69.3C1458.65 68.59 1470.43 68.93 1482.04 70.38C1489 71.24 1495.91 72.51 1502.72 74.14C1510.7 76.06 1518.55 78.5 1526.26 81.31C1531.58 83.25 1536.83 85.37 1542.05 87.57C1543.82 88.33 1545.6 89.09 1547.37 89.86C1551.38 91.62 1555.39 93.4 1559.39 95.17C1563.66 97.05 1567.94 98.91 1572.26 100.65C1568.49 103.29 1564 105.73 1561.63 106.28C1558 107.12 1548.49 107.12 1543.18 108.52C1540.28 109.28 1536.31 110.71 1533.29 111.85C1531.61 110.9 1529.94 109.95 1528.27 108.98C1527.19 108.36 1526.11 107.73 1525.02 107.09C1522.97 105.88 1520.93 104.63 1518.83 103.47C1516.17 102.01 1513.45 100.64 1510.69 99.37C1501.1 94.98 1491.04 91.64 1480.81 89.08C1468.51 86.01 1455.91 84.05 1443.25 83.23C1439.43 82.98 1435.62 82.86 1431.8 82.81C1431.05 82.81 1430.29 82.8 1429.53 82.81C1424.2 82.87 1418.89 83.42 1413.62 84.22C1412.34 83.92 1411.01 83.61 1409.65 83.3C1398.33 80.72 1398.48 83.59 1391.75 83.02C1388.91 82.78 1387.03 81.79 1385.82 80.73C1391.83 79.2 1397.86 77.73 1403.91 76.36ZM1378.44 86.74C1381.15 87.03 1387.02 86.02 1387.46 87.03C1387.71 87.63 1387.25 89.06 1386.84 90.1L1386.68 90.15C1381.59 91.56 1376.53 93.11 1371.52 94.79L1367.13 94.19C1367.13 94.19 1359.25 94.05 1356.67 93.77C1355.08 93.59 1347.61 92.92 1342.16 92.43L1342.55 92.32C1352.96 89.52 1363.36 86.64 1373.78 83.87C1375.19 85.18 1377.01 86.59 1378.44 86.74Z" />
	<path id="Layer" fill-rule="evenodd" class="shp1" d="M1679.38 58.79L1679.38 100.75C1677.52 100.61 1675.66 100.46 1673.8 100.3C1675.76 99.7 1677.59 98.62 1676.51 97.8C1674.46 96.24 1662.71 92.91 1658.63 91.36C1656.4 90.51 1654.4 88.95 1652.05 88.49C1649.04 87.9 1643.55 88.37 1640.54 87.82C1638.21 87.39 1636.21 85.89 1633.96 85.18C1631.35 84.37 1628 82.87 1624.88 82.9C1621.62 82.93 1617.06 84.55 1614.44 85.36C1612.58 85.94 1610.26 86.26 1609.14 87.79C1608.86 88.18 1608.53 88.7 1608.23 89.29C1600.72 87.32 1593.29 85.05 1586 82.38C1582.72 81.19 1579.49 79.87 1576.27 78.52C1574.69 77.85 1573.1 77.16 1571.52 76.48C1563.92 73.15 1556.37 69.73 1548.72 66.52C1547.71 66.1 1546.69 65.68 1545.67 65.26C1547.13 64.81 1548.51 64.35 1549.5 64.02C1551.6 63.34 1553.57 61.85 1555.51 61.18C1557.3 60.56 1559.33 60.12 1561.09 60.01C1562.74 59.91 1564.87 59.94 1566.02 60.54C1567.08 61.09 1566.84 63.12 1567.95 63.58C1569.62 64.29 1573.32 64.53 1576.03 64.75C1578.8 64.98 1581.71 65.14 1584.54 64.96C1588.05 64.73 1592.96 64.34 1597.06 63.41C1601.29 62.45 1606.08 60.65 1609.93 59.19C1613.41 57.88 1618.18 55.94 1620.16 54.69C1620.68 54.35 1621.31 53.77 1621.66 53.16C1640.88 55.23 1660.1 57.3 1679.38 58.79ZM1639.11 91.3C1641.84 90.85 1645.02 91.53 1647.4 91.89C1649.45 92.19 1651.89 92.68 1653.41 93.44C1654.71 94.08 1655.16 96.06 1656.56 96.42C1658.45 96.92 1662.39 95.71 1664.78 96.42C1666.48 96.93 1667.88 98.77 1669.25 99.88C1664.47 99.41 1659.68 98.87 1654.92 98.25C1646.96 97.22 1639.04 95.97 1631.16 94.47C1633.88 93.53 1636.49 91.73 1639.11 91.3ZM1219.09 59.97C1219.92 60.58 1221.19 59.66 1222.17 59.97C1223.53 60.4 1225.66 61.74 1227.31 62.56C1228.9 63.34 1230.43 64.52 1232.1 64.87C1232.82 65.03 1233.95 65.16 1234.98 65.21C1237.13 67.51 1238.59 69.85 1237.54 71.19C1236.28 72.81 1233.25 71.92 1231.39 71.58C1229.57 71.24 1227.71 69.97 1226.38 69.15C1225.29 68.47 1224.55 67.32 1223.45 66.66C1222.01 65.78 1219.47 63.25 1217.73 63.91C1215.99 64.56 1210.96 68.8 1213.01 70.61C1215.14 72.49 1224.52 74.62 1230.53 75.18C1237.23 75.79 1245.8 75.87 1253.2 74.33C1261.05 72.69 1270.54 67.31 1277.59 65.34C1283.4 63.72 1289 63.24 1293.06 62.31C1295.37 61.79 1297.71 58.48 1299.79 56.69C1301.35 55.35 1304.07 55.1 1306.02 54.44C1308.04 53.75 1310.8 52.09 1318.25 52.64C1322.22 52.94 1323.98 57.71 1325.93 58.26C1327.89 58.81 1329.97 57.69 1331.94 57.26C1333.89 56.84 1335.8 56.22 1337.73 55.71C1339.75 55.18 1341.9 54.49 1344.03 54.07C1346.93 53.51 1352.69 52.8 1355.18 52.31C1356.48 52.07 1357.65 51.22 1358.97 51.18C1360.87 51.11 1364.13 51.58 1366.55 51.91C1368.88 52.22 1371.2 52.6 1373.49 53.11C1376.31 53.73 1380.08 55.33 1383.5 55.65C1386.32 55.92 1390.64 55.94 1394.73 55.91C1387.49 57.61 1380.28 59.44 1373.08 61.32C1369.22 62.33 1365.36 63.36 1361.51 64.39C1353.29 66.62 1345.09 68.87 1336.87 71.08C1334.34 71.76 1331.8 72.43 1329.27 73.09C1300.67 80.45 1272.04 87.88 1243.02 93.39C1232.64 95.36 1222.21 97.09 1211.72 98.34L1209.98 98.54L1209.98 57.45C1212.2 57.38 1214.42 57.29 1216.64 57.2C1217.33 58.28 1218.49 59.53 1219.09 59.97ZM1264.01 54.02C1263.31 54.64 1262.45 55.5 1261.6 56.4C1258.28 58.83 1253.64 61.85 1251.2 63.11C1248.07 64.74 1244.06 68.71 1242.02 67.2C1241.11 66.52 1239.06 65.36 1236.75 64.09C1235.36 63.02 1231.96 61.21 1229.96 59.97C1228.39 59 1226.73 57.75 1225.14 56.79C1229.21 56.57 1233.27 56.33 1237.33 56.06C1246.23 55.47 1255.12 54.78 1264.01 54.02ZM1286.39 56.36C1283.68 57.53 1280.63 58.59 1278.16 59.57C1275.96 60.45 1273.77 61.56 1271.58 62.27C1269.44 62.96 1267.19 64.06 1265 63.82C1262.81 63.58 1258.36 62.61 1258.43 60.83C1258.46 60.02 1259.98 58.13 1261.6 56.4C1262.91 55.45 1264.01 54.58 1264.7 53.96C1275.71 53 1286.71 51.94 1297.7 50.82C1293.58 52.03 1289.52 54.99 1286.39 56.36ZM1459.66 32.82C1462.59 32.62 1465.52 32.44 1468.45 32.3C1472.07 32.14 1475.69 32.03 1479.31 32.1C1481.55 32.14 1483.79 32.23 1486.03 32.36C1487.46 33.1 1496.67 37.94 1499.5 40.46C1502.57 43.2 1513.15 46.95 1516.22 47.64C1519.3 48.32 1530.22 48.66 1532.95 48.66C1535.68 48.66 1538.41 50.71 1543.53 51.4C1548.65 52.08 1555.48 49.35 1557.52 48.32C1558.44 47.86 1560.17 46.39 1561.8 44.89C1572.83 47.07 1583.9 49.15 1595.08 50.39C1596.76 50.56 1598.45 50.72 1600.14 50.88C1602.01 51.07 1603.89 51.26 1605.76 51.46L1607.32 51.62C1606.8 51.92 1606.3 52.21 1605.85 52.46C1603.3 53.9 1600.79 57.12 1598.77 57.67C1597.05 58.14 1595.48 56.27 1593.77 55.77C1591.73 55.17 1588.93 54.26 1586.54 54.1C1584.18 53.94 1581.36 54.48 1579.46 54.8C1578 55.05 1576.5 55.48 1575.17 56.03C1573.88 56.56 1572.92 58.03 1571.52 58.08C1569.27 58.16 1564.71 56.72 1561.66 56.53C1558.85 56.35 1556 56.51 1553.22 56.91C1550.29 57.33 1546.7 58.28 1544.06 59.08C1541.78 59.77 1538.27 60.46 1537.41 61.71C1537.36 61.78 1537.32 61.86 1537.28 61.95C1532.92 60.3 1528.53 58.75 1524.08 57.32C1512.13 53.49 1499.88 50.62 1487.45 48.9C1481.43 48.08 1475.37 47.51 1469.3 47.22C1466.34 47.07 1463.39 47 1460.43 46.96C1459.42 46.96 1458.41 46.96 1457.4 46.96C1452.01 47.01 1446.62 47.2 1441.26 47.67C1435.46 48.19 1429.69 48.97 1423.94 49.92C1422.78 49.48 1420.06 49.29 1418.76 48.66C1417.2 47.89 1416.35 45.57 1414.61 45.5C1411.17 45.35 1403.14 47.56 1398.09 47.81C1393.49 48.03 1387.09 46.61 1384.29 46.96C1382.9 47.13 1382.67 50.08 1381.29 49.89C1378.14 49.45 1371.01 44.53 1365.41 44.35C1359.62 44.17 1352.11 48.41 1346.53 48.77C1342.76 49.02 1339.07 47.41 1335.35 46.77C1338.32 46.44 1341.3 46.12 1344.27 45.79C1346.38 45.55 1348.49 45.31 1350.6 45.06C1354.18 44.64 1357.75 44.21 1361.32 43.77C1385.22 40.82 1409.1 37.69 1433.06 35.2C1439.2 34.56 1445.34 33.96 1451.49 33.45L1455.35 35.5C1455.35 35.5 1459.1 36.86 1462.52 38.23C1465.93 39.6 1472.76 40.28 1475.15 40.62C1477.53 40.96 1479.3 40.29 1479.3 40.29L1482.52 39.22L1480.19 39.04C1480.19 39.04 1475.99 39.49 1474.19 38.95C1472.41 38.42 1465.96 38.06 1465.96 38.06L1461.67 37.16L1456.39 34.29L1454.46 33.2C1456.19 33.07 1457.92 32.94 1459.66 32.82ZM1317.14 50.56C1313.2 51.03 1308.25 50.28 1303.87 50.18C1308.42 49.7 1312.96 49.22 1317.51 48.73C1320.54 48.4 1323.56 48.07 1326.59 47.74C1323.49 48.78 1320.36 50.17 1317.14 50.56ZM1494.44 33.03C1497.95 33.38 1501.45 33.81 1504.94 34.29C1515.89 35.8 1526.75 37.85 1537.59 39.99C1545.06 41.48 1552.52 43.02 1559.99 44.53L1560.54 44.64L1559.12 46.34L1552.23 49.25L1541.68 50.68L1538.01 48.97L1531.56 48.26L1521.72 46.92L1516.71 46.02L1506.87 42.88L1500.16 39.3L1497.56 36.79L1494.44 33.03Z" />
	<path id="Layer" fill-rule="evenodd" class="shp1" d="M1672.93 11.78L1665.05 10.65L1656.8 11.78L1662.06 13.65C1662.06 13.65 1666.93 15.15 1667.68 15.9C1668.43 16.66 1671.81 20.03 1674.8 23.41C1675.92 24.66 1677.64 25.76 1679.38 26.64L1679.38 36.73C1677.45 36.57 1675.52 36.42 1673.59 36.25C1669.32 33.72 1662.9 30.13 1659.8 29.42C1654.93 28.29 1649.68 25.29 1645.18 24.54C1640.68 23.79 1629.06 26.04 1624.55 27.54C1622.72 28.15 1620.21 29.39 1617.87 30.63L1614.64 30.28C1611.44 29.94 1608.25 29.61 1605.05 29.28C1603.4 29.11 1601.74 28.95 1600.09 28.79L1608.06 26.79C1612.56 25.66 1615.93 20.79 1618.18 20.41C1620.43 20.03 1625.31 17.78 1631.31 17.03C1637.31 16.28 1642.55 18.16 1647.81 18.53C1653.06 18.91 1657.77 18.8 1660.02 19.93C1662.27 21.05 1665.32 23.54 1664.95 22.79C1664.57 22.04 1656.48 16.64 1654.23 16.26C1651.98 15.89 1634.68 14.78 1627.93 15.53C1621.18 16.28 1614.81 21.16 1606.18 23.41C1597.56 25.66 1592.68 27.54 1592.68 27.54L1593.43 28.04C1593.16 28.01 1592.89 27.97 1592.62 27.94C1587.04 27.19 1581.5 26.24 1575.96 25.22C1579.39 25.59 1582.72 25.62 1585.18 24.92C1593.06 22.66 1592.31 21.54 1592.31 21.54L1602.06 17.78L1607.68 14.03C1607.68 14.03 1603.93 15.53 1598.68 17.03C1593.43 18.53 1587.43 20.41 1583.31 20.41C1579.18 20.41 1560.43 21.91 1560.43 21.91C1560.43 21.91 1561.75 22.32 1563.82 22.87C1550.88 20.27 1537.96 17.52 1524.96 15.21C1527.37 15.19 1529.65 15.06 1531.74 14.78C1541.89 13.42 1587.7 11 1588.78 10.46C1591.28 9.23 1569.85 10.28 1572.39 9.49C1576.06 8.35 1580.72 8.1 1583.63 7.4C1596.01 4.39 1599.06 6.9 1606.18 4.64C1613.31 2.39 1619.68 1.64 1627.93 2.01C1636.18 2.39 1647.05 1.64 1652.3 3.52C1657.56 5.39 1659.06 5.39 1663.55 6.14C1668.05 6.9 1678.61 6.52 1675.21 2.39C1674.5 1.53 1674.26 0.79 1674.07 0.14L1679.38 0.14L1679.38 11.78L1672.93 11.78ZM1634.68 29.04C1636.18 29.04 1642.18 27.54 1644.05 27.54C1645.93 27.54 1648.56 29.04 1654.56 30.17C1660.56 31.3 1660.56 33.17 1664.31 35.05C1664.6 35.2 1664.89 35.35 1665.18 35.5C1659.15 34.95 1653.12 34.35 1647.09 33.74C1644.16 33.44 1641.23 33.13 1638.3 32.83C1634.64 32.44 1630.99 32.05 1627.33 31.66C1629.22 30.84 1633.52 29.04 1634.68 29.04ZM1229.31 31.67C1231.57 30.55 1236.06 29.42 1236.06 29.42L1244.69 29.04L1245.06 25.66C1245.06 25.66 1241.32 27.54 1240.19 27.92C1239.06 28.29 1229.31 28.67 1228.19 27.92C1227.06 27.17 1239.44 20.79 1239.44 20.79C1239.44 20.79 1245.06 19.28 1248.81 18.91C1252.57 18.53 1262.69 17.41 1264.94 16.66C1267.19 15.9 1276.56 15.9 1286.69 17.41C1296.81 18.91 1308.06 17.78 1310.69 18.16C1313.31 18.53 1325.69 18.53 1328.69 16.28C1331.69 14.03 1333.56 15.22 1333.56 15.22L1345.94 15.22L1365.81 18.16C1365.81 18.16 1360.19 18.53 1356.44 18.91C1352.69 19.28 1339.74 21.18 1335.99 22.31C1332.24 23.44 1326.54 21.36 1322.41 22.49C1318.29 23.61 1307.39 26.29 1302.51 26.29C1297.64 26.29 1289.69 24.92 1285.56 25.29C1281.44 25.66 1277.31 24.17 1272.06 21.16C1266.81 18.16 1264.56 20.03 1264.56 20.03C1264.56 20.03 1263.06 22.66 1269.06 24.17C1275.06 25.66 1276.19 27.54 1282.94 29.8C1283.25 29.9 1283.57 30 1283.88 30.09C1271.76 31.28 1259.62 32.37 1247.48 33.29C1240.07 33.85 1232.66 34.35 1225.24 34.76C1226.56 33.58 1228.18 32.24 1229.31 31.67ZM1219.38 6.9C1228.38 8.02 1239.63 6.9 1242.63 5.02C1245.63 3.14 1252 2.01 1258.38 2.01C1264.75 2.01 1266.63 3.14 1274.88 3.89C1283.12 4.65 1291 5.02 1295.5 3.52C1300 2.01 1308.63 0.51 1313.13 1.64C1317.63 2.77 1325.5 3.14 1327.75 4.27C1330 5.39 1344.62 6.52 1349.88 6.52C1355.13 6.52 1371.25 7.65 1380.63 6.14C1390 4.65 1397.87 6.14 1403.87 6.14C1409.87 6.14 1426.59 7.21 1433.23 7.07C1439.25 6.94 1449.62 0.89 1454.87 2.77C1460.12 4.65 1468.37 8.4 1477 9.15C1478.76 9.3 1481.4 9.72 1484.61 10.28C1482.3 10.17 1479.98 10.11 1477.66 10.09C1476.31 10.08 1474.96 10.09 1473.61 10.12C1467.79 10.26 1461.98 10.6 1456.18 11.02C1449.91 11.48 1443.66 12.04 1437.4 12.66C1422.3 14.14 1407.22 15.93 1392.16 17.78C1390.05 18.04 1387.93 18.3 1385.82 18.56C1380.38 17.39 1369.13 15.47 1364.69 15.22C1359.06 14.9 1342.56 11.78 1338.44 11.78C1334.31 11.78 1328.69 14.03 1324.94 15.22C1321.19 16.4 1306.94 15.53 1297.19 15.22C1287.44 14.9 1267.19 14.03 1257.44 15.22C1247.69 16.4 1239.81 19.66 1233.07 23.41C1228.23 26.1 1216.34 30.53 1209.98 32.82L1209.98 3.08C1210.73 4.14 1212.94 6.09 1219.38 6.9ZM1675.84 21.39L1673.01 17.06L1668.37 15.01L1663.26 13.36L1660.03 11.87L1664.04 11.32L1671.36 12.42L1677.65 13.13L1679.38 13.29L1679.38 23.28L1675.84 21.39ZM1551.43 6.14C1543.18 8.02 1522.93 10.27 1516.56 9.52C1510.19 8.77 1491.82 3.9 1483.56 0.14L1571.84 0.14C1564.38 2.54 1556.14 5.07 1551.43 6.14ZM1445.8 0.78C1448.77 3.06 1440.21 2.18 1440.21 2.18C1440.21 2.18 1437.41 3.41 1435.14 4.11C1432.86 4.81 1429.89 4.11 1429.89 4.11L1417.84 3.24L1422.3 0.14L1444.63 0.14C1445.1 0.34 1445.5 0.56 1445.8 0.78Z" />
</svg>