<svg version="1.2" baseProfile="tiny-ps" xmlns="http://www.w3.org/2000/svg" viewBox="0 0 1571 994" width="1571" height="994">
	<title>morphic white-svg</title>
	<style>
		tspan { white-space:pre }
		.shp0 { fill: none } 
		.shp1 { fill: #ffffff } 
	</style>
	<path id="MorphicTx-Logo---White" class="shp0" d="M-4132.63 -133.42L1629.88 -133.42L1629.88 1109.69L-4132.63 1109.69L-4132.63 -133.42Z" />
	<g id="Layer">
		<path id="Layer" class="shp1" d="M-4031.2 594.55L-4031.2 26.79L-3964.72 26.79L-3731.26 374.44L-3496.23 26.79L-3430.8 26.79L-3430.8 594.55L-3501.99 594.55L-3501.99 151.24L-3731.26 487.07L-3960.54 151.24L-3960.54 594.55L-4031.2 594.55L-4031.2 594.55Z" />
		<path id="Layer" fill-rule="evenodd" class="shp1" d="M-3028.59 609.47C-3115.35 609.47 -3186.97 581.44 -3243.48 525.37C-3299.97 469.32 -3328.22 398.27 -3328.22 312.22C-3328.22 225.81 -3299.88 154.59 -3243.21 98.54C-3186.54 42.47 -3115 14.45 -3028.59 14.45C-2941.84 14.45 -2869.95 42.56 -2812.92 98.79C-2755.91 155.02 -2727.39 226.16 -2727.39 312.22C-2727.39 398.27 -2755.82 469.32 -2812.66 525.37C-2869.51 581.44 -2941.49 609.47 -3028.59 609.47ZM-3028.59 543.12C-2963.53 543.12 -2909.66 521.35 -2866.97 477.81C-2824.29 434.27 -2802.96 379.07 -2802.96 312.22C-2802.96 245.01 -2824.21 189.65 -2866.71 146.1C-2909.22 102.57 -2963.17 80.79 -3028.59 80.79C-3093.66 80.79 -3147.53 102.64 -3190.21 146.36C-3232.89 190.07 -3254.24 245.36 -3254.24 312.22C-3254.24 379.07 -3232.89 434.27 -3190.21 477.81C-3147.53 521.35 -3093.66 543.12 -3028.59 543.12Z" />
		<path id="Layer" fill-rule="evenodd" class="shp1" d="M-2097.26 92.09L-2097.26 26.79L-1765.63 26.79C-1709.4 26.79 -1665.13 40.51 -1632.83 67.94C-1600.51 95.36 -1584.36 132.91 -1584.36 180.55C-1584.36 229.93 -1599.99 269.87 -1631.26 300.39C-1662.51 330.9 -1704.15 346.16 -1756.2 346.16L-2025.48 346.16L-2025.48 594.55L-2097.26 594.55L-2097.26 270.54L-1778.54 270.54C-1776.72 270.54 -1774.92 270.53 -1773.14 270.48C-1739.48 269.73 -1713.77 261.87 -1696.02 246.89C-1677.34 231.12 -1667.99 207.97 -1667.99 177.46C-1667.99 147.63 -1677.34 133.67 -1696.02 117.05C-1714.71 100.42 -1740.99 92.11 -1774.86 92.11L-2025.48 92.11L-2025.48 92.09L-2097.26 92.09L-2097.26 92.09Z" />
		<path id="Layer" fill-rule="evenodd" class="shp1" d="M-2624.82 92.11L-2624.82 26.79L-2353.91 26.79C-2307.68 26.79 -2271.46 40.76 -2245.21 68.7C-2218.96 96.65 -2205.83 135.31 -2205.83 184.67C-2205.83 225.81 -2216.1 261.04 -2236.65 290.36C-2257.19 319.67 -2299.85 337.93 -2333.51 345.12L-2193.4 594.55L-2273.12 594.55L-2413.22 346.16L-2566.19 346.16L-2566.19 594.55L-2624.82 594.55L-2624.82 275.64L-2371.49 275.6C-2341.82 275.6 -2319.35 267.72 -2304.09 251.95C-2288.81 236.18 -2281.18 213.03 -2281.18 182.52C-2281.18 152.69 -2293.02 133.67 -2308.28 117.05C-2323.55 100.42 -2345.02 92.11 -2372.69 92.11L-2566.19 92.11L-2566.13 92.11L-2624.82 92.11L-2624.82 92.11Z" />
		<path id="Layer" class="shp1" d="M-1491.68 594.55L-1491.68 26.79L-1422.15 26.79L-1422.15 251.01L-1096.53 251.01L-1096.53 26.79L-1027.5 26.79L-1027.5 594.55L-1096.53 594.55L-1096.53 316.33L-1422.15 316.33L-1422.15 594.55L-1491.68 594.55L-1491.68 594.55Z" />
		<path id="Layer" class="shp1" d="M-873.3 23.7L-805.3 23.7L-805.3 594.55L-873.3 594.55L-873.3 23.7Z" />
		<path id="Layer" class="shp1" d="M-190.35 413.53L-133.59 455.69C-159.73 505.06 -195.52 543.03 -240.94 569.61C-286.35 596.18 -337.96 609.47 -395.76 609.47C-481.09 609.47 -551.54 581.44 -607.1 525.37C-662.67 469.32 -690.45 398.27 -690.45 312.22C-690.45 225.81 -662.58 154.59 -606.84 98.54C-551.1 42.47 -480.74 14.45 -395.76 14.45C-343.12 14.45 -295.12 25.94 -251.77 48.9C-208.42 71.88 -173.15 104.62 -145.97 147.14L-205.32 189.3C-223.21 155.36 -249.02 128.79 -282.74 109.59C-316.45 90.39 -354.13 80.79 -395.76 80.79C-459.76 80.79 -512.74 102.64 -554.72 146.36C-596.69 190.07 -617.68 245.36 -617.68 312.22C-617.68 379.07 -596.69 434.27 -554.72 477.81C-512.74 521.35 -459.76 543.12 -395.76 543.12C-351.03 543.12 -311.3 532.15 -276.54 510.2C-241.8 488.27 -213.06 456.04 -190.35 413.53Z" />
	</g>
	<g id="Layer">
		<path id="Layer" class="shp1" d="M-2520.18 891.91L-2520.18 719.63L-2605.37 719.63L-2605.37 697.23L-2409.48 697.23L-2409.48 719.63L-2494.84 719.63L-2494.84 891.91L-2520.18 891.91L-2520.18 891.91Z" />
		<path id="Layer" class="shp1" d="M-2365.93 891.91L-2365.93 697.23L-2341.24 697.23L-2341.24 774.11L-2225.59 774.11L-2225.59 697.23L-2201.08 697.23L-2201.08 891.91L-2225.59 891.91L-2225.59 796.51L-2341.24 796.51L-2341.24 891.91L-2365.93 891.91L-2365.93 891.91Z" />
		<path id="Layer" class="shp1" d="M-2101.54 891.91L-2101.54 697.23L-1947.43 697.23L-1947.43 719.63L-2077.21 719.63L-2077.21 776.76L-1998.74 776.76L-1998.74 799.16L-2077.21 799.16L-2077.21 869.52L-1939.44 869.52L-1939.44 891.91L-2101.54 891.91L-2101.54 891.91Z" />
		<path id="Layer" fill-rule="evenodd" class="shp1" d="M-1864.68 891.91L-1864.68 697.23L-1754.62 697.23C-1735.84 697.23 -1721.12 702.02 -1710.45 711.6C-1699.78 721.18 -1694.45 734.44 -1694.45 751.37C-1694.45 765.48 -1698.63 777.55 -1706.97 787.6C-1715.32 797.65 -1726.33 803.92 -1740.01 806.38L-1692.02 891.91L-1718.45 891.91L-1766.44 806.74L-1840.86 806.74L-1840.86 891.91L-1864.68 891.91ZM-1756.18 783.99C-1744.12 783.99 -1735 781.28 -1728.79 775.88C-1722.59 770.47 -1719.49 762.53 -1719.49 752.08C-1719.49 741.85 -1722.59 733.88 -1728.79 728.17C-1735 722.48 -1743.72 719.63 -1754.96 719.63L-1840.86 719.63L-1840.86 783.99L-1756.18 783.99Z" />
		<path id="Layer" fill-rule="evenodd" class="shp1" d="M-1559.66 697.23L-1539.66 697.23L-1443.65 891.91L-1469.8 891.91L-1496.13 839.54L-1603.19 839.54L-1628.82 891.91L-1654.63 891.91L-1559.66 697.23ZM-1592.14 816.79L-1506.83 816.79L-1549.67 730.55L-1592.14 816.79Z" />
		<path id="Layer" fill-rule="evenodd" class="shp1" d="M-1373.48 891.91L-1373.48 697.23L-1262.61 697.23C-1243.82 697.23 -1229.01 701.93 -1218.21 711.33C-1207.42 720.74 -1202.01 733.61 -1202.01 749.96C-1202.01 766.89 -1207.23 780.58 -1217.69 791.05C-1228.14 801.5 -1242.06 806.74 -1259.46 806.74L-1349.49 806.74L-1349.49 891.91L-1373.48 891.91ZM-1264.19 783.99C-1252.05 783.99 -1242.85 781.28 -1236.6 775.88C-1230.36 770.47 -1227.24 762.53 -1227.24 752.08C-1227.24 741.85 -1230.36 733.88 -1236.6 728.17C-1242.85 722.48 -1251.64 719.63 -1262.96 719.63L-1349.49 719.63L-1349.49 783.99L-1264.19 783.99Z" />
		<path id="Layer" class="shp1" d="M-1127.63 891.91L-1127.63 697.23L-968.28 697.23L-968.28 719.63L-1102.48 719.63L-1102.48 776.76L-1021.33 776.76L-1021.33 799.16L-1102.48 799.16L-1102.48 869.52L-960.02 869.52L-960.02 891.91L-1127.63 891.91L-1127.63 891.91Z" />
		<path id="Layer" class="shp1" d="M-869.84 697.23L-869.84 823.31C-869.84 843.53 -865.89 857.09 -858 863.96C-850.1 870.84 -834.59 874.28 -811.46 874.28C-788.32 874.28 -772.84 870.84 -765.01 863.96C-757.18 857.09 -753.26 843.53 -753.26 823.31L-753.26 697.23L-727.93 697.23L-727.93 829.84C-727.93 853.82 -734.42 871.01 -747.39 881.41C-760.36 891.83 -781.72 897.02 -811.46 897.02C-841.2 897.02 -862.55 891.83 -875.53 881.41C-888.5 871.01 -894.99 853.82 -894.99 829.84L-894.99 697.23L-869.84 697.23L-869.84 697.23Z" />
		<path id="Layer" class="shp1" d="M-603.98 891.91L-603.98 719.63L-689.15 719.63L-689.15 697.23L-493.27 697.23L-493.27 719.63L-578.64 719.63L-578.64 891.91L-603.98 891.91Z" />
		<path id="Layer" class="shp1" d="M-445.23 696.18L-418.33 696.18L-418.33 891.91L-445.23 891.91L-445.23 696.18Z" />
		<path id="Layer" class="shp1" d="M-153.78 829.84L-133.59 844.3C-142.89 861.22 -155.62 874.24 -171.78 883.36C-187.93 892.47 -206.29 897.02 -226.85 897.02C-257.2 897.02 -282.27 887.42 -302.03 868.2C-321.8 848.97 -331.68 824.61 -331.68 795.1C-331.68 765.48 -321.76 741.05 -301.93 721.83C-282.11 702.6 -257.08 693 -226.85 693C-208.12 693 -191.05 696.94 -175.63 704.81C-160.21 712.69 -147.66 723.92 -137.99 738.5L-159.11 752.95C-165.47 741.31 -174.65 732.2 -186.65 725.62C-198.64 719.04 -212.04 715.74 -226.85 715.74C-249.62 715.74 -268.47 723.24 -283.4 738.23C-298.32 753.22 -305.79 772.18 -305.79 795.1C-305.79 818.03 -298.32 836.95 -283.4 851.88C-268.47 866.81 -249.62 874.28 -226.85 874.28C-210.94 874.28 -196.81 870.51 -184.45 862.99C-172.08 855.46 -161.86 844.42 -153.78 829.84L-153.78 829.84Z" />
	</g>
	<path id="Layer" fill-rule="evenodd" class="shp1" d="M48.02 944.4C94.65 926.89 89.98 933.9 89.98 933.9C89.98 933.9 136.62 924.56 157.61 915.23C178.59 905.88 220.55 910.55 273.02 908.22C325.48 905.88 354.62 902.38 403.59 904.72C452.55 907.05 468.87 918.73 468.87 918.73C468.87 918.73 488.69 930.4 465.37 930.4C442.05 930.4 376.77 931.56 330.14 928.06C283.51 924.56 256.69 930.4 210.07 938.57C163.43 946.73 143.62 938.57 143.62 938.57C143.62 938.57 135.45 952.57 180.93 951.4C226.39 950.24 210.07 956.08 206.57 960.74C203.07 965.41 192.58 967.74 197.24 979.41C200.12 986.62 215.04 990.28 235.37 994.21L3.28 994.21L3.28 958.51C16.75 954.87 31.82 950.49 48.02 944.4ZM432.78 994.21C435.03 991.75 436.09 989.78 435.07 988.75C430.4 984.08 373.27 964.24 348.79 961.9C324.32 959.57 304.5 963.07 304.5 963.07C304.5 963.07 288.18 956.08 309.16 950.24C330.14 944.4 363.95 946.73 390.76 945.57C417.58 944.4 465.37 943.23 528.33 946.73C578.76 949.54 641.93 975.57 681.84 994.21L432.78 994.21ZM914.21 966.57C941.02 947.9 993.48 928.06 1043.61 915.23C1093.74 902.38 1129.88 884.87 1174.18 879.05C1218.48 873.21 1268.61 901.22 1310.58 904.72C1323.51 905.8 1334.01 904.1 1342.34 901.24C1349.82 902.27 1356.05 903.1 1359.01 903.47C1386.31 906.91 1413.65 910.03 1441.02 912.9C1443.89 913.2 1446.76 913.49 1449.62 913.8C1435.58 916.69 1423.11 923.08 1388.69 932.73C1330.4 949.07 1258.12 925.72 1238.3 924.56C1218.48 923.39 1175.35 926.89 1175.35 926.89L1199.36 929.7C1199.36 929.7 1206.82 930.4 1237.14 935.07C1267.44 939.73 1331.57 945.57 1353.71 945.57C1375.86 945.57 1421.33 932.73 1438.82 926.89C1453.17 922.1 1469.87 916.53 1491.51 917.91C1493.61 918.11 1495.7 918.3 1497.81 918.5C1500.6 918.84 1503.48 919.3 1506.43 919.9C1522.59 923.13 1548.78 928.87 1568.92 933.35L1568.92 965.82C1545.76 954.03 1515.75 940.89 1497.11 940.89C1463.3 940.89 1422.5 947.9 1410.83 946.73C1399.18 945.57 1353.71 945.57 1330.4 950.24C1307.08 954.91 1244.13 960.74 1244.13 960.74L1216.15 957.24C1216.15 957.24 1253.22 965.18 1262.55 965.18C1271.87 965.18 1270.94 965.41 1291.93 963.07C1312.91 960.74 1367.71 957.24 1367.71 957.24C1367.71 957.24 1445.81 949.07 1463.3 947.9C1480.79 946.73 1514.6 954.91 1528.58 959.57C1535.59 961.91 1553.15 969.82 1568.92 977.13L1568.92 994.21L1548.53 994.21C1540.04 986.18 1529.29 978.16 1516.93 973.58C1485.45 961.9 1402.45 961.13 1384.03 964.24C1346.72 970.55 1317.34 971.25 1306.85 979.41C1302.38 982.89 1297.33 988.7 1292.99 994.21L1215.15 994.21C1197.08 975.61 1169.44 947.44 1162.53 942.06C1152.03 933.9 1083.25 925.72 1064.6 930.4C1045.94 935.07 1024.96 938.57 1019.12 944.4C1013.3 950.24 984.15 951.4 973.66 950.24C963.17 949.07 962 956.08 969 961.9C972.43 964.77 997.21 979.73 1021.56 994.21L884.91 994.21C894.3 985.12 902.62 974.65 914.21 966.57ZM1023.79 982.91C1023.79 982.91 1002.8 961.9 1008.64 956.08C1014.47 950.24 1038.94 964.24 1038.94 964.24C1038.94 964.24 1076.25 977.07 1099.57 987.58C1122.89 998.08 1079.75 968.91 1079.75 968.91C1079.75 968.91 1038.94 954.91 1057.6 949.07C1076.25 943.23 1083.25 946.73 1094.9 953.74C1106.57 960.74 1139.21 954.91 1156.69 957.24C1167.54 958.68 1193.64 978.99 1211.9 994.21L1037.01 994.21L1023.79 982.91ZM1303.76 994.21C1304.66 992.15 1306.44 989.92 1309.42 987.58C1325.74 974.75 1367.71 974.75 1399.18 973.58C1430.65 972.41 1460.01 970.67 1473.79 973.58C1495.94 978.24 1515.76 982.91 1515.76 982.91L1526.65 994.21L1303.76 994.21ZM955.5 824.32C988.84 825.28 1022.06 828.93 1054.88 834.75C1073.21 837.99 1091.38 841.93 1109.46 846.27C1092.18 857.13 1071.92 872.08 1052.94 875.54C1027.29 880.21 1008.64 886.04 988.82 889.55C969 893.05 894.39 925.72 762.65 935.07C630.91 944.4 508.51 904.72 460.71 891.88C446.92 888.17 431.17 883.2 415.19 878.01C437.87 874.98 460.54 871.98 483.23 869.05C539.83 861.74 596.48 854.8 653.19 848.45C694.93 850.52 756.66 853.37 778.97 853.37C813.94 853.37 865.25 839.36 906.05 830.02C913.92 828.22 921.41 826.2 928.37 824.12C937.42 823.99 946.46 824.06 955.5 824.32ZM55.68 915.54C37.41 922.06 18.56 929.69 3.28 936.14L3.28 918.17C20.76 917.42 38.22 916.55 55.68 915.54ZM1541.5 922.34C1550.64 923.1 1559.77 923.84 1568.92 924.55L1568.92 930.12C1560.78 927.6 1551.41 924.87 1541.5 922.34ZM901.67 825.03C862.81 834.95 822.48 844.97 817.44 845.2C770.6 847.29 732.34 845.64 702.5 843.09C709.78 842.32 717.07 841.56 724.36 840.82C765.88 836.56 807.42 832.66 849 829.13C858.19 828.35 867.38 827.59 876.57 826.85C884.94 826.17 893.3 825.5 901.67 825.03Z" />
	<path id="Layer" fill-rule="evenodd" class="shp1" d="M1191.9 693.08C1172.82 703.72 1147.99 717.54 1129.93 727.6C1110.7 738.29 1083.52 752.04 1063.8 761.85C1073.82 763.58 1083.8 765.48 1093.77 767.55C1116.07 772.18 1138.2 777.61 1160.21 783.47C1185.59 790.23 1210.81 797.54 1236.11 804.55C1242.03 806.17 1247.96 807.78 1253.89 809.36C1257.76 810.38 1261.64 811.38 1265.53 812.37C1288.64 810.29 1323.08 807.21 1337.9 806.02C1361.22 804.16 1405.98 815.36 1426.5 813.5C1447.03 811.63 1465.68 799.48 1486.2 800.42C1506.71 801.36 1555.21 822.83 1555.21 822.83C1555.21 822.83 1540.29 820.96 1532.82 834.04C1530.67 837.82 1528.19 842.55 1525.77 847.35C1538.35 848.45 1550.93 849.51 1563.52 850.52L1568.92 850.94L1568.92 777.1C1562.65 777.12 1556.37 777.09 1550.1 777C1515.62 776.58 1481.12 774.47 1446.88 770.39C1409.98 765.98 1373.29 759.21 1337.57 748.9C1321.7 744.32 1306.08 738.96 1290.6 733.23C1274.61 727.3 1258.76 720.99 1242.97 714.53C1225.89 707.53 1208.87 700.33 1191.9 693.08ZM1433.3 838.28C1462.92 841.5 1492.58 844.41 1522.25 847.04C1521.93 841.15 1518.92 835.99 1510.44 834.04C1486.2 828.44 1462.88 820.04 1449.82 829.37C1445.51 832.46 1439.46 835.53 1433.3 838.28ZM229.01 738.49C224.58 739.35 220.14 740.19 215.69 740.99C213.62 741.5 211.74 742.06 210.08 742.66C186.77 751.06 172.77 756.66 149.46 765.99C126.14 775.33 67.38 799.6 49.67 808.01C36.76 814.13 14.45 827.18 3.28 833.83L3.28 844.73C6.32 844.59 9.36 844.46 12.41 844.32C35.81 827.96 67.38 806.72 83.25 799.6C110.29 787.47 182.1 764.12 225 758.53C267.91 752.93 383.56 749.18 446.97 763.2C492.34 773.22 529.61 779.88 561.82 785.26C572.91 783.92 583.99 782.59 595.09 781.28C626.66 777.57 658.25 774.02 689.85 770.67C668.41 766.3 630.51 758.97 611.07 753.93C585.9 747.39 536.51 741.72 523.45 737.05C510.39 732.39 471.22 712.77 463.76 719.31C456.3 725.85 441.38 723.98 453.5 730.51C465.62 737.05 492.67 746.39 493.61 749.18C494.53 751.99 481.47 755.72 481.47 755.72C481.47 755.72 443.24 745.45 429.26 737.05C415.26 728.64 359.3 732.39 329.46 733.31C305.7 734.06 258.88 734.21 229.01 738.49ZM24.93 843.72C39.78 842.99 54.63 842.16 69.48 841.25C82.78 833.46 98.73 825.56 116.81 819.22C172.77 799.6 245.52 785.6 279.09 783.74C309.72 782.03 402.4 784.99 458.81 798.27C479.62 795.56 500.43 792.89 521.25 790.27C501.42 784.59 480.28 779.12 466.56 775.33C439.51 767.86 351.84 758.53 294.95 762.26C238.06 765.99 178.37 771.6 125.21 792.14C79.4 809.84 42.58 829.63 24.93 843.72ZM101.08 839.18C147.79 835.94 194.44 831.85 240.98 826.73C258.98 824.74 276.96 822.56 294.91 820.25C313.15 817.85 331.37 815.33 349.6 812.84C367.55 810.4 385.5 807.99 403.45 805.57L411.37 804.52C401.26 801.29 392.47 798.73 387.28 797.74C367.69 794.01 270.7 791.2 227.8 798.68C184.9 806.14 147.6 814.55 112.16 833.22C108.33 835.24 104.63 837.22 101.08 839.18ZM181.76 746.4C177.99 746.95 174.22 747.46 170.44 747.97C148.75 750.87 127.01 753.25 105.21 755.28C102.81 755.51 100.42 755.73 98.02 755.95C93.32 758.72 87.92 761.64 82.31 764.12C65.52 771.6 40.34 789.33 28.21 794.93C20.62 798.45 10.08 803.06 3.28 806.01L3.28 825.46C14.24 819.64 38.22 806.85 54.33 797.74C75.78 785.6 120.55 767.86 142 760.39C148.31 758.2 163.48 752.85 181.76 746.4ZM3.28 762.27L3.28 797.55C16.55 791.48 41.1 780.03 47.8 775.33C52.3 772.18 64.57 764.7 76.11 757.79C51.86 759.72 27.58 761.2 3.28 762.27ZM1156.54 677.91C1147.41 684.12 1135.37 691.66 1119.67 700.52C1086.88 719.03 1043.03 741.34 1015.67 755.03C1026.8 756.26 1037.9 757.73 1048.97 759.43C1073.5 747.14 1103.98 731.57 1120.6 722C1141.1 710.18 1163.67 698.36 1181.15 688.47C1172.95 684.96 1164.74 681.43 1156.54 677.91ZM945 688.5C876.92 712.77 752.87 734.25 706.25 737.05C659.61 739.85 516.92 707.18 488 697.83C476.6 694.16 461.71 689.16 447.86 684.46C444.3 685.39 440.75 686.31 437.19 687.23C427.17 689.8 417.15 692.37 407.12 694.92C426.26 699.02 455.07 708.98 474.02 712.77C497.34 717.45 585.53 753.07 673.43 754.69C778.72 756.64 861.06 754.79 897.44 739.85C933.81 724.91 1020.54 694.1 1046.66 681.03C1060.61 674.05 1079.87 662 1095.8 652.16C1086.98 648.51 1078.14 644.91 1069.27 641.39C1040.1 653.15 993.26 671.29 945 688.5ZM1111.58 658.74C1104.98 664.17 1097.8 669.15 1091.69 671.31C1018.29 697.3 985.1 718.37 966.45 726.78C954.03 732.38 932.94 742.93 916.64 751.03C921.42 750.89 926.22 750.78 931.02 750.72C933.99 750.71 936.98 750.7 939.97 750.71C960.14 750.85 980.27 751.74 1000.36 753.52C1023.99 741.77 1052.23 727.54 1065.58 720.13C1080.4 711.88 1115.63 689.05 1142.06 671.68L1135.84 669.02C1127.76 665.58 1119.67 662.15 1111.58 658.74ZM464.12 680.24C486.01 687.5 512 696.01 532.78 702.51C577.54 716.51 635.36 724.91 700.65 726.78C765.93 728.64 888.61 707.18 932.43 689.43C972.51 673.21 1026.97 652.31 1057.41 636.72C1049.72 633.74 1042.01 630.83 1034.26 628.02C1020.31 622.97 1006.24 618.17 991.95 614.19C985.68 612.43 979.36 610.9 973 609.5C955.33 605.62 937.41 602.94 919.41 601.06C897.18 598.75 874.82 597.68 852.47 597.62C825.49 597.57 798.51 599.01 771.69 601.93C743.42 605 715.32 609.72 687.67 616.37C676.07 619.17 664.55 622.3 653.14 625.83C645.62 628.15 638.19 630.71 630.72 633.19C626.12 634.69 621.51 636.15 616.9 637.61C588.61 646.4 560.1 654.45 531.52 662.27C509.09 668.4 486.62 674.37 464.12 680.24Z" />
	<path id="Layer" fill-rule="evenodd" class="shp1" d="M1353.79 648.91C1381.77 647.97 1420 646.1 1445.19 649.84C1470.37 653.57 1526.33 669.45 1538.45 677.85C1543.93 681.64 1556.63 688.1 1568.92 694.05L1568.92 703.77C1559.62 703.79 1550.33 703.69 1541.04 703.47C1512.48 702.79 1483.93 700.93 1455.55 697.55C1429.82 694.47 1404.22 690.14 1379.03 684.03C1368.23 681.41 1357.51 678.45 1346.92 675.11C1334.9 671.31 1323.03 667.08 1311.24 662.65C1308.24 661.51 1305.24 660.37 1302.24 659.21C1317.97 654.58 1338.62 649.41 1353.79 648.91ZM53.38 615.29C72.03 609.69 104.67 595.68 127.05 591.95C149.44 588.22 190.47 588.22 199.8 588.22C209.13 588.22 237.1 579.81 240.84 577.95C244.57 576.08 259.49 576.08 269.75 577.01C280.01 577.95 314.51 581.68 328.5 584.48C342.49 587.28 372.34 587.28 390.99 590.08C406.55 592.42 448.71 599.3 470.93 602.6C462.72 604.78 454.5 606.94 446.28 609.09C389.63 623.89 332.82 638.06 275.98 652.07C261.06 655.73 246.16 659.43 231.24 663.01C212.25 667.4 193.03 670.65 173.75 673.45C153.74 676.36 133.66 678.73 113.53 680.78C76.87 684.51 40.1 687.15 3.28 688.84L3.28 653.44C16.13 641.08 40.15 619.27 53.38 615.29ZM1374.31 626.49C1412.55 621.83 1430.27 621.83 1454.52 626.49C1474.67 630.38 1490.96 629.74 1505.53 633.17C1511.42 635.4 1517.42 637.64 1523.34 639.86C1536.84 646.24 1556.2 656.73 1568.92 663.66L1568.92 685.5C1552.56 678.36 1533.82 669.93 1524.46 664.78C1505.81 654.51 1429.33 640.5 1405.09 640.5C1380.83 640.5 1323.95 650.77 1309.96 653.57C1306.23 654.32 1301.39 655.52 1296.28 656.9C1285.94 652.85 1275.65 648.67 1265.38 644.44C1281.25 641.5 1341.31 630.53 1374.31 626.49ZM1351.13 589.59C1375.03 596.6 1399.61 601.19 1424.28 604.4C1454.3 608.31 1484.57 610.13 1514.83 610.71C1532.86 611.05 1550.89 610.94 1568.92 610.45L1568.92 656.73C1557.59 652.57 1540.83 646.39 1523.34 639.86C1519.82 638.19 1516.7 636.8 1514.2 635.83C1511.37 634.73 1508.49 633.87 1505.53 633.17C1479.12 623.21 1454.76 613.74 1448.92 610.62C1431.15 601.14 1409.74 614.35 1398.56 618.1C1387.36 621.83 1289.44 636.77 1283.84 636.77C1280.61 636.77 1269.32 639.25 1258.37 641.53C1249.78 637.95 1241.21 634.33 1232.65 630.7C1229.23 629.25 1225.83 627.79 1222.42 626.33C1241.8 619.57 1261.57 612.62 1265.26 611.11C1272.89 608.02 1305.56 604.17 1333.3 591.08C1336.58 589.53 1339.64 588.15 1342.47 586.94C1345.35 587.87 1348.24 588.75 1351.13 589.59ZM44.05 606.89C33.85 617.74 14.51 639.49 3.28 652.17L3.28 599.4C27.52 597.49 51.61 593.61 75.33 588.31C64.36 592.64 51.52 598.94 44.05 606.89ZM1288.43 564.39C1293.54 566.81 1298.66 569.22 1303.79 571.58C1308.95 573.95 1314.09 576.32 1319.34 578.49L1320.63 579.03C1308.12 584.18 1293.8 589.48 1281.86 593.71C1253.95 603.57 1222.81 610.97 1198.28 615.97C1186.8 611.03 1175.32 606.09 1163.83 601.19C1177.81 596.62 1191.07 592.23 1194.3 591.02C1201.77 588.22 1243.74 577.95 1274.52 568.6L1288.43 564.39ZM1218.46 529.76C1238.45 539.97 1258.53 550.02 1278.74 559.75C1263.82 564.85 1242.83 570.87 1226.95 576.08C1201.19 584.52 1173.98 591.34 1152.15 596.23C1135.62 589.22 1119.05 582.32 1102.39 575.64C1084.67 568.53 1066.85 561.65 1048.82 555.36C1045.04 554.03 1041.24 552.74 1037.44 551.47C1066.6 541.65 1106.01 527.52 1114.72 523.79C1122.7 520.37 1144.27 508.23 1159.82 499.3C1179.3 509.59 1198.84 519.75 1218.46 529.76ZM249.22 555.54C271.62 557.41 327.57 554.6 354.62 558.33C381.67 562.08 424.57 565.81 436.69 568.6C446.05 570.78 492.65 582.94 522 588.82C513.34 591.21 504.67 593.56 496.01 595.9C482.77 593.31 467.44 590.49 457.21 589.15C435.75 586.35 418.04 584.48 403.11 582.62C388.19 580.75 365.81 587.28 342.49 581.68C319.18 576.08 275.34 568.6 260.42 569.54C245.5 570.48 219.39 576.08 213.79 578.87C208.19 581.68 189.54 582.62 183.94 578.87C178.35 575.14 158.76 567.68 158.76 567.68L125.87 574.93C134.35 572.38 142.8 569.7 151.21 566.92C163.31 562.93 175.34 558.74 187.32 554.39C208.15 554.31 236.09 554.44 249.22 555.54ZM646.54 375.34C659.37 376.62 687.23 377.47 711.87 382.13C719.62 384.14 727.56 386.27 734.99 388.31C737.35 389.2 739.58 390.18 741.67 391.21C767.77 404.29 875.03 439.77 888.09 445.37C901.15 450.96 938.45 451.9 965.5 449.1C987.03 446.87 1009.75 436.35 1023.29 424.15C1033.31 429.98 1043.38 435.73 1053.49 441.43C1075.41 453.77 1097.46 465.88 1119.62 477.83C1086.39 491.13 1037.15 511.41 1024.25 516.33C1014.52 520.03 990.55 527.43 968.87 533.92C959.83 532.33 950.75 530.96 941.66 529.81C914.41 526.32 886.99 524.67 859.53 524.33C856.02 521.17 851.83 518.46 847.05 517.26C832.13 513.52 791.09 514.46 775.24 515.39C766.77 515.89 751.14 524.37 738.39 532.16C714.48 535.56 690.72 540.08 667.26 545.85C656.34 548.53 645.5 551.52 634.73 554.75C631.53 555.74 628.32 556.74 625.12 557.76C619.37 559.62 613.65 561.6 607.9 563.49C600.51 565.91 593.1 568.22 585.66 570.49C571.34 574.86 556.96 579.03 542.56 583.1C527.11 580.05 505.29 575.38 494.51 571.41C476.8 564.87 451.61 561.14 451.61 561.14C451.61 561.14 422.7 562.08 408.72 558.33C394.72 554.6 354.62 551.81 341.56 548.06C328.5 544.33 285.6 545.27 272.54 542.47C264.57 540.75 244.79 539.05 230.58 537.98C247.8 531.17 264.9 524.09 281.91 516.76C300.2 508.9 318.38 500.73 336.41 492.25C342.04 489.6 347.67 486.91 353.28 484.2C373.24 488.17 396.92 493.23 406.84 496.72C425.49 503.25 473.06 508.85 487.98 512.58C502.66 516.26 528.14 522.64 556.48 510.43C563.1 508.32 567.75 505.96 570.3 504.5C571.24 503.96 572.73 503.13 574.62 502.12C598.98 490.88 623.46 480.03 632.54 484.58C643.74 490.18 690.37 497.65 701.56 497.65C712.75 497.65 728.61 489.25 728.61 489.25C728.61 489.25 692.24 493.91 680.11 491.12C667.98 488.31 618.93 479.82 614.27 481.69C610.29 483.28 585.73 496.1 574.62 502.12C568.98 504.72 563.36 507.33 557.93 509.79C557.45 510.01 556.96 510.23 556.48 510.43C546.13 513.74 531 516.45 511.66 514.17C479.95 510.43 435.77 503.54 415.26 495.13C402.74 490.01 378.42 484.08 361.35 480.24C372.08 474.93 382.72 469.47 393.26 463.82C396.54 462.04 399.8 460.24 403.06 458.43C409.39 454.83 415.68 451.15 422.06 447.63C431.86 442.22 441.8 437.06 451.84 432.12C452.67 431.71 453.49 431.31 454.32 430.91C473.93 427.22 497.53 423.83 514.51 424.75C549.01 426.62 582.45 417.41 612.28 423.93C642.13 430.47 657.94 432.67 667.26 435.48C676.59 438.27 723.27 445.37 735.4 450.04C747.52 454.7 771.92 470.42 786.02 484.74C796.59 495.46 836.79 506.99 863.84 505.12C890.89 503.25 913.27 493.91 919.8 493.91C926.33 493.91 903.95 487.38 883.42 488.31C862.9 489.25 852.64 502.31 836.79 497.65C820.94 492.98 805.08 492.04 779.9 474.31C754.73 456.56 723.01 439.77 706.22 439.77C689.44 439.77 663.33 431.36 651.19 429.49C639.07 427.62 610.16 418.29 593.37 419.22C576.58 420.16 492.65 422.96 472.13 423.89C470.93 423.94 469.7 424.04 468.42 424.18C485.53 416.24 502.9 408.87 520.45 402.01C545.1 392.39 570.14 383.77 595.48 376.19C597.26 375.67 599.04 375.15 600.83 374.62C619.64 374.59 639.04 374.59 646.54 375.34ZM1152.68 495.53C1129.66 506.16 1089.51 525.05 1079.28 528.46C1072 530.89 1045.52 539.14 1021.8 546.48C1015.94 544.71 1010.05 543.04 1004.12 541.52C1000.55 540.6 996.96 539.72 993.36 538.89C1018.95 528.58 1067.63 509.29 1076.48 507.92C1088.6 506.06 1120.31 493.91 1132.44 491.12C1134.79 490.57 1137.04 489.57 1139.13 488.31C1143.64 490.72 1148.17 493.12 1152.68 495.53ZM782.7 523.79C796.17 522.9 820.9 521.99 835.2 524.44C810.53 524.97 785.85 526.54 761.32 529.27C770.25 526.34 778.28 524.09 782.7 523.79ZM664.81 358.6C682.85 354.91 701.09 351.87 719.45 350.36C724 349.99 728.57 349.72 733.14 349.6C736.28 349.52 739.41 349.53 742.54 349.57C749.03 349.62 755.52 349.78 762.01 350.05C765.44 350.19 768.88 350.36 772.31 350.56C795.5 360.9 825.12 374.49 835.86 380.94C854.51 392.14 895.55 408.02 901.15 409.89C906.74 411.75 887.16 395.88 887.16 387.48C887.16 379.08 907.68 390.27 912.33 389.35C914.77 388.85 925.57 385.32 935.36 382.06C950.24 387.19 964.88 393.01 979.1 399.72C984.5 402.26 989.81 404.95 995.08 407.75C997.06 408.84 999.03 409.92 1001.01 411.03C1006.17 413.99 1011.28 417.08 1016.4 420.11C1013.15 424.31 1004.12 434.35 991.61 435.1C975.76 436.02 921.66 442.56 903.95 437.89C886.22 433.23 875.96 430.43 847.05 420.16C818.14 409.89 778.03 401.48 770.58 398.68C767.55 397.54 752.67 393.17 734.99 388.31C728.11 385.71 720.18 383.7 711.87 382.13C692.73 377.17 674.69 372.93 667.98 372.54C659.78 372.06 637.63 370.83 618.14 369.74C633.57 365.56 649.14 361.81 664.81 358.6ZM815.12 354.51C843.56 358.12 871.8 363.59 899.49 371.08C895.82 371.1 892.28 371.26 889.02 371.6C861.98 374.4 877.83 381.87 863.84 380.94C855.13 380.36 809.92 363.5 777.03 350.85C789.75 351.68 802.46 352.9 815.12 354.51Z" />
	<path id="Layer" fill-rule="evenodd" class="shp1" d="M1385.11 385.35C1382.11 385.54 1379.5 385.65 1377.58 385.65C1366.4 385.65 1367.33 396.84 1358.93 397.78C1350.54 398.71 1310.44 400.59 1310.44 400.59C1310.44 400.59 1324.97 407.29 1334.9 407.29C1344.84 407.29 1391.44 406.14 1391.44 406.14C1391.44 406.14 1427.35 407.29 1430.78 407.67C1434.22 408.05 1476.44 402.45 1476.44 402.45C1476.44 402.45 1488.57 400.59 1499.76 408.05C1510.96 415.52 1521.21 424.86 1521.21 424.86L1536.14 448.2L1554.79 463.13C1554.79 463.13 1550.13 447.27 1546.4 439.8C1542.66 432.32 1516.55 413.65 1507.23 405.25C1506.67 404.76 1506.14 404.29 1505.61 403.83C1526.68 406.19 1547.78 408.1 1568.92 409.58L1568.92 537.07C1552.75 537.54 1536.59 537.67 1520.42 537.43C1491.45 537.01 1462.45 535.4 1433.72 531.66C1411.7 528.8 1389.72 524.72 1368.45 518.22C1361.79 516.19 1355.2 513.89 1348.74 511.29C1343.9 509.32 1339.17 507.13 1334.42 504.94C1327.58 501.79 1320.76 498.58 1313.97 495.32C1309.48 493.17 1304.99 491 1300.51 488.81C1302.32 483.43 1306.79 469.81 1307.4 464.65C1308.16 458.15 1322.67 464.65 1330.31 466.94C1337.96 469.25 1352.86 469.63 1365.08 469.25C1377.3 468.86 1392.97 468.09 1399.85 469.25C1406.71 470.39 1421.23 473.45 1421.23 473.45C1421.23 473.45 1439.95 470.01 1449.5 470.39C1459.05 470.77 1480.82 476.5 1484.65 478.04C1488.47 479.57 1509.09 489.51 1509.09 489.51C1509.09 489.51 1526.66 487.98 1532.78 485.3C1538.9 482.63 1533.54 465.03 1528.57 461.59C1523.61 458.15 1486.94 443.62 1473.57 439.03C1460.2 434.44 1449.12 432.91 1440.72 432.15C1432.31 431.37 1405.19 429.08 1405.19 429.08L1381.89 432.53C1381.89 432.53 1389.52 435.21 1402.13 435.21C1414.74 435.21 1438.04 439.03 1448.36 440.95C1458.67 442.86 1490.37 454.33 1490.37 454.33C1490.37 454.33 1515.59 461.98 1523.99 466.18C1532.4 470.39 1530.87 473.45 1530.87 473.45C1530.87 473.45 1525.52 480.72 1518.64 485.3C1511.77 489.89 1501.08 484.54 1501.08 484.54C1501.08 484.54 1485.41 474.21 1473.19 470.77C1460.96 467.32 1432.69 465.8 1424.67 464.27C1416.64 462.74 1421.23 458.15 1421.23 458.15C1421.23 458.15 1388.76 459.69 1382.65 460.45C1376.54 461.21 1337.57 463.12 1337.57 463.12C1337.57 463.12 1323.44 457.76 1321.15 454.71C1318.86 451.65 1325.35 446.29 1332.6 444.38C1339.86 442.47 1362.03 431.77 1362.03 431.77C1362.03 431.77 1348.65 428.32 1333.75 428.7C1318.86 429.08 1314.27 435.97 1314.27 435.97C1314.27 435.97 1287.52 442.47 1283.33 443.24C1279.13 444 1259.26 435.21 1248.56 439.79C1243.44 441.99 1234.98 447.18 1227.55 451.98C1204.08 439.82 1180.72 427.46 1157.45 414.92C1170.26 410.73 1197.59 399.65 1197.59 399.65C1197.59 399.65 1232.09 389.38 1252.61 381.91C1262.51 378.31 1276.95 369.93 1289.26 362.21C1320.83 371.38 1352.86 378.98 1385.11 385.35ZM420.46 316.1C420.46 316.1 456.27 315.15 469.17 316.1C482.06 317.06 508.79 316.1 514.53 317.54C516.89 318.13 523.16 319.29 529.77 320.38C519.83 323.85 509.93 327.48 500.09 331.25C481.67 338.3 463.45 345.89 445.49 354.03L433.14 353.33C433.14 353.33 414.04 358.11 408.66 362.89C403.3 367.67 380.61 362.29 371.66 363.48C362.71 364.68 334.06 374.24 334.06 374.24C334.06 374.24 353.75 373.64 359.72 373.04C365.69 372.45 378.82 366.47 378.82 366.47C378.82 366.47 400.31 367.67 406.27 368.26C412.25 368.86 422.4 361.09 427.77 359.3C429.85 358.6 432.67 358.54 435.32 358.72C420.88 365.49 406.62 372.63 392.58 380.18C388.67 382.3 384.77 384.45 380.88 386.63C376.29 389.23 371.74 391.9 367.14 394.5C362.17 397.29 357.14 400.01 352.09 402.67C335.23 411.56 318.07 419.89 300.79 427.96C279.96 437.67 258.92 446.96 237.72 455.87C215.23 465.31 192.57 474.31 169.69 482.75C151.03 489.63 132.25 496.15 113.27 502.07C105.23 504.58 97.17 507 89.06 509.26C92.8 506.75 96.19 504.54 98.28 503.31C105.45 499.13 115 499.73 115 499.73C115 499.73 128.73 490.77 137.68 472.84C146.63 454.9 182.45 445.34 189.61 441.16C196.78 436.98 211.69 430.41 218.26 428.61C224.83 426.82 229.6 423.24 234.98 423.24C240.34 423.24 252.88 422.04 255.26 422.04C257.65 422.04 270.79 413.68 270.79 413.68L277.35 404.12L283.32 406.51L304.21 393.36L317.34 381.41L290.49 401.13L277.35 398.74C277.35 398.74 271.98 405.91 266.01 410.09C260.04 414.27 249.89 419.05 242.73 419.05C235.56 419.05 215.88 417.86 210.5 418.46C205.13 419.05 180.05 432.2 175.28 435.78C170.5 439.37 146.63 453.11 136.49 460.89C126.34 468.66 117.39 488.38 106.64 493.16C95.89 497.94 84.55 502.12 76.79 506.9C74.03 508.6 69.31 511.95 64.39 515.59C44.27 520.27 23.85 523.85 3.28 525.78L3.28 501.24C6.13 500.52 13.99 498.42 20.69 495.55C29.04 491.96 17.11 487.78 31.43 488.97C45.75 490.17 69.63 477.02 79.78 471.64C89.93 466.27 116.79 445.34 126.34 436.38C135.89 427.42 150.21 407.1 154.39 402.32C158.57 397.54 166.93 403.52 173.49 404.71C180.05 405.91 192 405.91 200.95 403.52C209.9 401.13 223.04 390.97 227.21 386.79C231.39 382.6 231.39 375.43 231.39 375.43L246.91 367.67L270.79 369.46C270.79 369.46 298.84 371.85 304.21 371.85C309.59 371.85 334.65 362.29 347.79 354.52C360.91 346.75 359.12 338.39 364.5 333.61C369.87 328.83 377.04 329.43 377.04 329.43L406.27 327.63L384.79 325.24L377.62 325.57C391.12 322.11 404.61 318.64 418.1 315.17L420.46 316.1ZM21.28 456.11C24.27 454.32 54.12 447.73 60.68 444.76C67.24 441.76 92.92 421.44 97.69 414.87C102.47 408.3 110.23 404.71 117.39 401.13C124.55 397.54 135.29 392.16 135.29 392.16L134.1 400.53C134.1 400.53 123.35 417.26 117.39 423.24C111.42 429.21 69.63 463.88 58.89 469.25C48.14 474.63 46.35 479.41 42.78 481.8C39.19 484.19 27.25 480.61 24.27 480.01C21.28 479.41 17.7 490.17 13.53 490.77C11.16 491.09 6.72 492.58 3.28 493.8L3.28 461.29C9.7 459.73 19.33 457.27 21.28 456.11ZM1264.99 459.69C1271.87 457.38 1286.76 452.42 1295.55 451.27C1304.34 450.12 1311.21 450.89 1311.21 450.89C1311.21 450.89 1308.92 455.47 1302.81 459.69C1296.69 463.89 1296.69 464.65 1288.68 466.56C1284.58 467.54 1277.21 471 1270.97 474.17C1264.54 470.93 1258.13 467.67 1251.73 464.41L1251.6 464.35C1257.21 462.36 1262.45 460.53 1264.99 459.69ZM104.25 398.74C97.09 405.91 94.7 404.71 87.54 408.3C80.38 411.88 72.62 420.25 63.07 428.61C53.52 436.98 49.34 430.41 49.34 430.41C49.34 430.41 34.42 435.78 27.25 441.16C22.84 444.48 11.41 449.15 3.28 452.25L3.28 402.49C12.37 401.51 21.44 400.43 30.49 399.27C58.88 395.59 87.15 391.02 115.31 385.83C111.74 390.35 107.56 395.44 104.25 398.74ZM1262.29 353.96C1266.41 355.3 1270.54 356.59 1274.67 357.86C1260.01 366.93 1232.04 383.14 1203.18 394.05C1179.41 403.03 1160.13 407.53 1147.87 409.74C1137.19 403.96 1126.54 398.13 1115.91 392.26L1121.16 393.71C1121.16 393.71 1139.82 389.04 1147.29 387.17C1154.74 385.31 1165.94 383.44 1165 383.44C1164.07 383.44 1159.33 381.67 1154.74 382.5C1151.49 383.09 1125.11 383.86 1129.25 379.83C1132.78 376.42 1140.16 373.51 1149.15 369.44C1157.64 365.59 1165.94 368.5 1174.33 369.44C1182.73 370.37 1195.82 370.83 1202.35 371.76C1208.88 372.7 1227.49 364.77 1240.55 357.29C1244.17 355.22 1248.52 353 1252.91 350.89C1256.03 351.92 1259.16 352.95 1262.29 353.96ZM1407.09 389.51C1409.58 389.96 1412.07 390.39 1414.55 390.83C1431.47 393.8 1448.46 396.45 1465.48 398.82L1459.66 399.65L1418.62 399.65L1393.45 395.92L1407.09 389.51ZM325.1 351.53C325.1 351.53 308.39 362.89 300.63 364.08C292.87 365.28 284.51 362.89 273.77 363.48C263.03 364.08 251.69 362.29 251.69 362.29L238.55 364.68C238.55 364.68 220.05 382.01 210.5 387.38C200.95 392.76 196.18 393.36 196.18 393.36L184.84 392.76L194.39 386.79L210.5 371.25L209.26 366.55C262.22 354.74 314.86 341.61 367.43 328.17L325.1 351.53ZM198.71 368.88C195.94 371.74 192.78 375.04 189.61 378.42C180.65 387.98 180.65 378.42 175.88 379.02C174.13 379.24 171.09 377.61 167.95 375.46C175.15 373.96 182.33 372.43 189.5 370.88C192.58 370.21 195.64 369.55 198.71 368.88ZM650.12 254.69C676.94 248.58 703.9 242.99 731.06 238.56C751.81 235.18 772.72 232.41 793.72 231.14C832.71 228.78 871.97 229.93 910.73 234.74C933.94 237.62 956.96 241.85 979.7 247.31C1006.32 253.71 1032.49 261.84 1058.2 271.22C1075.96 277.68 1093.45 284.77 1110.86 292.1C1116.78 294.63 1122.7 297.17 1128.61 299.74C1142 305.59 1155.35 311.53 1168.72 317.44C1182.94 323.72 1197.23 329.92 1211.65 335.73C1199.06 344.53 1184.08 352.68 1176.2 354.5C1164.07 357.29 1132.36 357.29 1114.63 361.96C1104.98 364.51 1091.72 369.28 1081.65 373.08C1076.06 369.92 1070.48 366.73 1064.92 363.52C1061.3 361.43 1057.7 359.33 1054.09 357.22C1047.23 353.17 1040.43 348.99 1033.44 345.15C1024.55 340.27 1015.49 335.7 1006.27 331.47C974.3 316.8 940.72 305.68 906.62 297.15C865.57 286.88 823.55 280.36 781.31 277.62C768.6 276.79 755.89 276.38 743.15 276.21C740.63 276.2 738.1 276.19 735.57 276.2C717.79 276.42 700.06 278.24 682.49 280.93C678.23 279.94 673.8 278.9 669.25 277.86C631.51 269.26 631.99 278.82 609.56 276.91C600.07 276.1 593.83 272.82 589.78 269.29C609.83 264.19 629.93 259.29 650.12 254.69ZM565.14 289.33C574.22 290.29 593.79 286.94 595.23 290.29C596.08 292.3 594.55 297.06 593.17 300.54L592.64 300.69C575.65 305.41 558.8 310.58 542.09 316.18L527.43 314.19C527.43 314.19 501.16 313.71 492.56 312.76C487.24 312.16 462.33 309.93 444.14 308.31L445.46 307.95C480.19 298.6 514.86 289 549.62 279.76C554.32 284.13 560.39 288.83 565.14 289.33Z" />
	<path id="Layer" fill-rule="evenodd" class="shp1" d="M1568.92 196.09L1568.92 336.04C1562.72 335.58 1556.52 335.08 1550.32 334.55C1556.85 332.55 1562.96 328.96 1559.36 326.22C1552.52 321.01 1513.32 309.92 1499.73 304.74C1492.27 301.9 1485.61 296.7 1477.78 295.17C1467.72 293.21 1449.44 294.77 1439.37 292.92C1431.62 291.5 1424.95 286.49 1417.43 284.14C1408.72 281.41 1397.54 276.43 1387.13 276.52C1376.29 276.62 1361.06 282.01 1352.31 284.73C1346.13 286.65 1338.39 287.72 1334.65 292.82C1333.7 294.12 1332.63 295.87 1331.61 297.85C1306.57 291.25 1281.77 283.69 1257.46 274.8C1246.53 270.8 1235.76 266.4 1225.03 261.91C1219.73 259.66 1214.44 257.39 1209.16 255.1C1183.83 244.01 1158.64 232.58 1133.13 221.9C1129.74 220.48 1126.35 219.07 1122.95 217.68C1127.8 216.19 1132.42 214.63 1135.72 213.55C1142.74 211.27 1149.31 206.31 1155.76 204.08C1161.74 202.01 1168.52 200.54 1174.37 200.18C1179.87 199.84 1187 199.95 1190.82 201.93C1194.37 203.78 1193.57 210.54 1197.26 212.08C1202.83 214.43 1215.17 215.24 1224.22 215.99C1233.44 216.76 1243.15 217.28 1252.6 216.68C1264.29 215.93 1280.67 214.61 1294.35 211.51C1308.46 208.3 1324.44 202.3 1337.28 197.44C1348.9 193.05 1364.8 186.59 1371.39 182.41C1373.15 181.3 1375.23 179.37 1376.42 177.31C1440.52 184.22 1504.63 191.12 1568.92 196.09ZM1434.6 304.55C1443.72 303.04 1454.32 305.31 1462.28 306.5C1469.09 307.51 1477.23 309.15 1482.32 311.67C1486.63 313.81 1488.15 320.4 1492.8 321.63C1499.13 323.28 1512.25 319.24 1520.24 321.63C1525.91 323.33 1530.59 329.46 1535.16 333.15C1519.19 331.6 1503.24 329.8 1487.33 327.73C1460.81 324.28 1434.37 320.12 1408.09 315.1C1417.17 311.97 1425.89 305.98 1434.6 304.55ZM33.65 200.04C36.41 202.06 40.65 199 43.91 200.04C48.48 201.48 55.56 205.95 61.08 208.67C66.39 211.29 71.48 215.2 77.06 216.38C79.45 216.9 83.22 217.36 86.66 217.52C93.83 225.19 98.7 232.97 95.19 237.47C90.98 242.87 80.88 239.88 74.68 238.75C68.59 237.62 62.4 233.38 57.99 230.64C54.35 228.39 51.86 224.56 48.21 222.34C43.39 219.43 34.93 210.97 29.12 213.17C23.32 215.36 6.54 229.5 13.38 235.52C20.5 241.78 51.77 248.9 71.82 250.75C94.16 252.81 122.74 253.08 147.44 247.93C173.6 242.46 205.28 224.5 228.77 217.95C248.16 212.54 266.84 210.95 280.39 207.85C288.07 206.09 295.87 195.05 302.83 189.09C308.04 184.63 317.11 183.79 323.6 181.58C330.35 179.29 339.54 173.76 364.39 175.59C377.65 176.57 383.5 192.48 390.03 194.32C396.54 196.16 403.51 192.42 410.07 191C416.58 189.59 422.94 187.53 429.39 185.83C436.1 184.06 443.27 181.74 450.37 180.36C460.07 178.47 479.28 176.11 487.59 174.5C491.91 173.67 495.83 170.85 500.23 170.7C506.55 170.47 517.44 172.06 525.52 173.13C533.27 174.17 541.01 175.45 548.65 177.14C558.07 179.22 570.62 184.55 582.04 185.63C591.45 186.52 605.85 186.58 619.49 186.49C595.33 192.17 571.28 198.27 547.28 204.52C534.4 207.92 521.53 211.34 508.67 214.79C481.28 222.2 453.91 229.72 426.51 237.1C418.06 239.35 409.6 241.6 401.14 243.79C305.75 268.33 210.28 293.13 113.48 311.52C78.85 318.09 44.05 323.85 9.06 328.01L3.28 328.68L3.28 191.62C10.67 191.38 18.08 191.11 25.47 190.79C27.78 194.39 31.64 198.55 33.65 200.04ZM183.5 180.17C181.16 182.27 178.27 185.12 175.45 188.12C164.37 196.22 148.91 206.31 140.75 210.52C130.31 215.94 116.93 229.2 110.14 224.16C107.09 221.89 100.26 218 92.57 213.78C87.91 210.2 76.57 204.16 69.91 200.04C64.67 196.78 59.15 192.63 53.82 189.43C67.39 188.7 80.95 187.88 94.5 186.98C124.18 185.02 153.85 182.72 183.5 180.17ZM258.12 187.98C249.1 191.88 238.91 195.43 230.68 198.72C223.34 201.65 216.05 205.34 208.74 207.7C201.58 210 194.11 213.67 186.79 212.87C179.49 212.07 164.63 208.85 164.88 202.91C164.99 200.21 170.06 193.88 175.45 188.12C179.81 184.94 183.49 182.06 185.79 179.98C222.5 176.8 259.2 173.25 295.86 169.5C282.13 173.56 268.57 183.44 258.12 187.98ZM836.05 109.47C845.83 108.8 855.61 108.2 865.4 107.75C877.47 107.19 889.53 106.85 901.59 107.07C909.08 107.2 916.56 107.5 924.03 107.93C928.79 110.41 959.5 126.56 968.94 134.97C979.19 144.08 1014.48 156.62 1024.73 158.9C1034.98 161.18 1071.41 162.32 1080.51 162.32C1089.63 162.32 1098.73 169.16 1115.8 171.44C1132.88 173.71 1155.66 164.6 1162.48 161.18C1165.53 159.66 1171.3 154.72 1176.76 149.72C1213.55 157.01 1250.46 163.94 1287.75 168.07C1293.37 168.66 1298.99 169.17 1304.62 169.73C1310.88 170.34 1317.12 170.99 1323.38 171.64L1328.59 172.19C1326.85 173.19 1325.19 174.14 1323.69 174.99C1315.18 179.8 1306.79 190.53 1300.07 192.36C1294.33 193.94 1289.08 187.69 1283.37 186.02C1276.57 184.04 1267.23 180.99 1259.28 180.46C1251.39 179.92 1241.99 181.72 1235.67 182.8C1230.77 183.63 1225.77 185.07 1221.35 186.9C1217.06 188.67 1213.83 193.56 1209.19 193.73C1201.67 194.01 1186.44 189.21 1176.27 188.55C1166.9 187.95 1157.41 188.48 1148.12 189.83C1138.35 191.24 1126.38 194.38 1117.59 197.06C1109.98 199.36 1098.27 201.67 1095.4 205.84C1095.24 206.08 1095.09 206.36 1094.96 206.64C1080.41 201.13 1065.76 195.95 1050.95 191.21C1011.09 178.43 970.23 168.83 928.75 163.13C908.67 160.36 888.47 158.49 868.22 157.49C858.36 157 848.49 156.76 838.63 156.65C835.26 156.64 831.89 156.63 828.52 156.64C810.55 156.82 792.59 157.43 774.69 159.01C755.35 160.72 736.09 163.33 716.93 166.52C713.06 165.04 703.97 164.42 699.65 162.3C694.45 159.74 691.6 151.99 685.82 151.75C674.33 151.28 647.56 158.65 630.71 159.47C615.35 160.21 594.01 155.49 584.67 156.63C580.05 157.21 579.27 167.03 574.65 166.4C564.15 164.95 540.38 148.54 521.7 147.94C502.37 147.33 477.33 161.47 458.72 162.69C446.16 163.52 433.86 158.13 421.43 156.02C431.35 154.92 441.28 153.83 451.2 152.72C458.23 151.94 465.27 151.13 472.31 150.31C484.23 148.91 496.14 147.46 508.05 146.01C587.77 136.17 667.44 125.72 747.33 117.41C767.81 115.27 788.29 113.27 808.81 111.56L821.68 118.4C821.68 118.4 834.21 122.96 845.59 127.53C856.97 132.08 879.75 134.36 887.72 135.5C895.68 136.64 901.56 134.4 901.56 134.4L912.3 130.82L904.55 130.22C904.55 130.22 890.52 131.72 884.54 129.93C878.58 128.14 857.09 126.94 857.09 126.94L842.77 123.95L825.16 114.38L818.71 110.75C824.49 110.3 830.26 109.87 836.05 109.47ZM360.68 168.65C347.55 170.22 331.03 167.7 316.43 167.37C331.6 165.79 346.76 164.18 361.93 162.55C372.02 161.46 382.12 160.34 392.22 159.24C381.87 162.71 371.44 167.36 360.68 168.65ZM952.08 110.17C963.78 111.34 975.46 112.77 987.11 114.37C1023.62 119.41 1059.84 126.24 1095.98 133.4C1120.9 138.37 1145.8 143.5 1170.72 148.52L1172.56 148.88L1167.82 154.56L1144.84 164.26L1109.63 169.04L1097.39 163.35L1075.9 160.96L1043.08 156.49L1026.36 153.5L993.53 143.04L971.15 131.09L962.49 122.72L952.08 110.17Z" />
	<path id="Layer" fill-rule="evenodd" class="shp1" d="M1547.42 39.28L1521.15 35.52L1493.63 39.28L1511.15 45.54C1511.15 45.54 1527.41 50.55 1529.9 53.05C1532.41 55.56 1543.67 66.82 1553.67 78.1C1557.37 82.27 1563.13 85.92 1568.92 88.87L1568.92 122.5C1562.49 121.99 1556.06 121.47 1549.63 120.91C1535.38 112.49 1513.96 100.51 1503.64 98.13C1487.39 94.38 1469.87 84.36 1454.87 81.85C1439.85 79.35 1401.08 86.86 1386.07 91.87C1379.96 93.91 1371.57 98.03 1363.77 102.18L1352.98 101.02C1342.32 99.88 1331.67 98.76 1320.99 97.65C1315.49 97.1 1309.97 96.57 1304.47 96.02L1331.03 89.37C1346.05 85.61 1357.31 69.33 1364.81 68.08C1372.31 66.82 1388.57 59.31 1408.59 56.81C1428.59 54.3 1446.1 60.57 1463.62 61.82C1481.13 63.07 1496.85 62.7 1504.35 66.46C1511.86 70.22 1522.04 78.53 1520.8 76.03C1519.55 73.52 1492.55 55.51 1485.05 54.25C1477.54 52.99 1419.84 49.3 1397.33 51.81C1374.81 54.3 1353.55 70.59 1324.78 78.1C1296.02 85.61 1279.75 91.87 1279.75 91.87L1282.26 93.54C1281.35 93.43 1280.45 93.31 1279.56 93.19C1260.95 90.7 1242.45 87.52 1223.99 84.12C1235.41 85.35 1246.53 85.45 1254.74 83.11C1281.01 75.6 1278.5 71.83 1278.5 71.83L1311.02 59.31L1329.78 46.8C1329.78 46.8 1317.28 51.81 1299.77 56.81C1282.26 61.82 1262.24 68.08 1248.49 68.08C1234.73 68.08 1172.18 73.09 1172.18 73.09C1172.18 73.09 1176.59 74.46 1183.5 76.27C1140.32 67.6 1097.24 58.44 1053.87 50.75C1061.91 50.68 1069.52 50.23 1076.5 49.3C1110.35 44.78 1263.13 36.68 1266.72 34.9C1275.09 30.77 1203.59 34.3 1212.09 31.66C1224.33 27.85 1239.86 27.03 1249.58 24.67C1290.85 14.65 1301.02 23 1324.78 15.48C1348.54 7.98 1369.81 5.48 1397.33 6.72C1424.84 7.98 1461.11 5.48 1478.62 11.73C1496.14 17.99 1501.14 17.99 1516.14 20.49C1531.16 23 1566.37 21.75 1555.02 7.98C1552.65 5.12 1551.87 2.63 1551.22 0.47L1568.92 0.47L1568.92 39.28L1547.42 39.28ZM1419.84 96.88C1424.84 96.88 1444.86 91.87 1451.11 91.87C1457.36 91.87 1466.12 96.88 1486.13 100.63C1506.15 104.39 1506.15 110.65 1518.65 116.92C1519.62 117.4 1520.6 117.91 1521.57 118.42C1501.45 116.57 1481.34 114.58 1461.22 112.54C1451.45 111.54 1441.69 110.52 1431.92 109.51C1419.72 108.21 1407.52 106.9 1395.32 105.59C1401.62 102.87 1415.97 96.88 1419.84 96.88ZM67.75 105.64C75.27 101.89 90.27 98.13 90.27 98.13L119.04 96.88L120.29 85.61C120.29 85.61 107.79 91.87 104.02 93.12C100.27 94.38 67.75 95.62 64 93.12C60.25 90.61 101.53 69.33 101.53 69.33C101.53 69.33 120.29 64.32 132.79 63.07C145.31 61.82 179.07 58.06 186.58 55.56C194.08 53.05 225.35 53.05 259.12 58.06C292.9 63.07 330.42 59.31 339.17 60.57C347.93 61.82 389.2 61.82 399.21 54.3C409.22 46.8 415.48 50.76 415.48 50.76L456.75 50.76L523.04 60.57C523.04 60.57 504.28 61.82 491.77 63.07C479.26 64.32 436.09 70.65 423.59 74.42C411.07 78.17 392.05 71.25 378.29 75.01C364.53 78.76 328.16 87.69 311.9 87.69C295.64 87.69 269.13 83.11 255.37 84.36C241.61 85.61 227.86 80.61 210.35 70.59C192.83 60.57 185.33 66.82 185.33 66.82C185.33 66.82 180.33 75.6 200.34 80.61C220.35 85.61 224.11 91.87 246.62 99.39C247.67 99.74 248.72 100.07 249.77 100.38C209.33 104.33 168.86 107.96 128.34 111.03C103.63 112.91 78.91 114.59 54.17 115.95C58.58 112.01 63.96 107.54 67.75 105.64ZM34.61 23C64.64 26.76 102.15 23 112.16 16.74C122.16 10.49 143.43 6.72 164.69 6.72C185.95 6.72 192.21 10.49 219.72 12.99C247.24 15.5 273.51 16.74 288.51 11.73C303.53 6.72 332.3 1.71 347.31 5.48C362.32 9.23 388.58 10.49 396.08 14.24C403.59 17.99 452.37 21.75 469.89 21.75C487.39 21.75 541.17 25.5 572.45 20.49C603.72 15.5 629.98 20.49 649.99 20.49C670.01 20.49 725.75 24.04 747.9 23.57C768 23.15 802.58 2.97 820.09 9.23C837.61 15.5 865.13 28.01 893.9 30.51C899.78 31.03 908.57 32.43 919.29 34.28C911.57 33.93 903.84 33.72 896.11 33.64C891.6 33.63 887.11 33.67 882.59 33.74C863.2 34.21 843.81 35.35 824.46 36.76C803.55 38.28 782.69 40.16 761.83 42.21C711.45 47.16 661.17 53.15 610.91 59.29C603.87 60.17 596.83 61.04 589.78 61.91C571.63 58.02 534.12 51.59 519.28 50.76C500.52 49.71 445.49 39.28 431.73 39.28C417.97 39.28 399.21 46.8 386.71 50.76C374.19 54.72 326.67 51.81 294.15 50.76C261.63 49.71 194.08 46.8 161.56 50.76C129.04 54.72 102.78 65.58 80.27 78.1C64.14 87.07 24.49 101.82 3.28 109.46L3.28 10.29C5.76 13.79 13.15 20.32 34.61 23ZM1557.12 71.35L1547.68 56.91L1532.2 50.08L1515.15 44.57L1504.4 39.58L1517.78 37.75L1542.17 41.42L1563.15 43.78L1568.92 44.34L1568.92 77.64L1557.12 71.35ZM1142.17 20.49C1114.66 26.76 1047.11 34.27 1025.85 31.77C1004.59 29.27 943.33 13 915.8 0.47L1210.24 0.47C1185.34 8.48 1157.86 16.93 1142.17 20.49ZM789.83 2.62C799.74 10.2 771.18 7.29 771.18 7.29C771.18 7.29 761.84 11.37 754.27 13.71C746.69 16.04 736.78 13.71 736.78 13.71L696.57 10.79L711.45 0.47L785.94 0.47C787.51 1.13 788.83 1.85 789.83 2.62Z" />
</svg>