<svg version="1.2" xmlns="http://www.w3.org/2000/svg" viewBox="0 0 770 1508" width="770" height="1508">
	<title>Medibank_logo_2013-svg</title>
	<style>
		.s0 { fill: #00a3e0 } 
	</style>
	<g id="Layer">
		<g id="Layer">
			<path id="Layer" class="s0" d="m385 340c-93.4 0-168.9-76-168.9-170 0-94 75.5-170 168.9-170 93.4 0 168.9 76 168.9 170 0 94-75.5 170-168.9 170zm-91.7 311.8c0-39.7-19.3-64.1-42.9-64.1-55.5 0-100.1 79.5-166.2 240.5l-83.4-35.3c93.4-242.7 194.1-359.6 346-359.6 140.7 0 225.7 103.9 225.7 284.7 0 70.2-14.4 147.3-38.5 238.1l-48.6 189.3c-17.3 61.7-21.4 106-21.4 129.8 0 48.6 21.4 75 55.6 75 59.8 0 113-85.9 170.5-255.4l79.1 39.6c-66.5 249.4-179.4 372.7-343.8 372.7-153.2 0-247.6-101.6-247.6-275.7 0-94.7 27.9-197.8 57.6-321.7l38.5-156.4c10.8-44.1 19.4-77.6 19.4-101.5z"/>
		</g>
	</g>
</svg>