<svg version="1.2" xmlns="http://www.w3.org/2000/svg" viewBox="0 0 1542 314" width="1542" height="314">
	<title>marinus-color-logo-svg</title>
	<style>
		.s0 { fill: #ffffff } 
	</style>
	<g id="marinus-color-logo">
		<path id="Path_2176" fill-rule="evenodd" class="s0" d="m385.6 72.3h32.3l60.6 150.9 60.8-150.9h33v170.8h-21.9l1.4-146.8-62.6 146.8h-22.6l-60.5-146.8 1.4 146.8h-21.9zm286.6 0h25.7l67.4 170.7h-25l-14.9-40.3h-81.4l-14.6 40.3h-24.7zm45.9 110.6l-33-90.4-33.8 90.4zm79.3-111.3h63c49.3 0 70.9 10.5 70.9 53.9 0 31-11.1 45.2-35.5 50.8l37.9 66.8h-25l-34.4-64h-54.3v64h-22.6zm22.6 87.6h37.9c31.3 0 50.1-3.5 50.1-34.1 0-30.6-18.8-33.7-50.1-33.7h-37.9zm153.4-86.9h22.6v170.7h-22.6zm93.2 170.8h-21.2l1-170.8h24.7l94.2 141.9-1.4-141.9h21.6v170.8h-24.7l-94.6-143.3zm233.7 4.2c-58.4 0-68.2-33.4-68.2-89.8v-85.2h22.7v83.5c0 48.3 8.6 70.6 45.2 70.6 36.5 0 45.9-22.3 45.9-70.6v-83.5h22.6v85.2c0 56.4-9.4 89.8-68.2 89.8zm174.9-19.2c28.5 0 43.8-9.4 43.8-29.2 0-46.6-110.5-16.3-110.2-82.8 0-29.9 20.2-48.6 64.7-48.3 44.5 0.4 60.5 17 63.6 43.1l-21.2 4.5c-2.4-13.9-9.7-27.4-42.4-27.4-32.7 0-42.1 12.5-42.1 27.4 0 46.3 110.6 16.4 110.6 82.8 0 33.4-24.4 49.4-67.8 49.1-43.5-0.4-63.7-15.7-66.8-49.8l21.2-3.8c2.8 22.3 17.4 33.7 46.6 34.4z"/>
		<path id="Path_2183" fill-rule="evenodd" class="s0" d="m209.6 242.4c-44 0-83.7-26.6-100.5-67.2-16.9-40.7-7.5-87.5 23.6-118.7 31.1-31.1 77.9-40.4 118.6-23.6 40.7 16.9 67.2 56.6 67.2 100.6 0 14.3-2.8 28.5-8.3 41.7-5.5 13.2-13.5 25.2-23.6 35.3-10.1 10.1-22.1 18.1-35.3 23.6-13.2 5.4-27.4 8.3-41.7 8.3zm0-205.2c-39.1-0.2-74.5 23.3-89.5 59.5-15.1 36.2-6.9 77.8 20.8 105.5 27.7 27.7 69.4 36 105.6 20.9 36.1-15 59.6-50.4 59.5-89.6-0.1-12.6-2.6-25.1-7.5-36.8-4.8-11.7-11.9-22.3-20.8-31.2-9-9-19.6-16-31.2-20.9-11.7-4.9-24.2-7.4-36.9-7.4z"/>
		<path id="Path_2184" fill-rule="evenodd" class="s0" d="m121.7 154.7c-31.2 0.2-59.3-18.5-71.3-47.3-12-28.7-5.4-61.9 16.6-83.9 22-22 55.1-28.6 83.9-16.6 28.7 12 47.4 40.2 47.3 71.3-0.1 10-2.1 20-5.9 29.2-3.9 9.3-9.5 17.7-16.6 24.8-7.1 7.1-15.5 12.7-24.8 16.6-9.3 3.9-19.2 5.9-29.2 5.9zm0-140.8c-26.1 0-49.5 15.6-59.5 39.7-9.9 24-4.4 51.7 14 70.1 18.4 18.4 46 23.9 70.1 13.9 24-9.9 39.7-33.4 39.7-59.4 0-8.4-1.7-16.8-4.9-24.6-3.2-7.8-8-14.9-13.9-20.9-6-6-13.1-10.7-20.9-13.9-7.8-3.3-16.2-4.9-24.6-4.9z"/>
		<path id="Path_2185" fill-rule="evenodd" class="s0" d="m125.1 313.7c-50.1 0.1-95.3-30-114.6-76.2-19.2-46.3-8.7-99.6 26.6-135.1 35.4-35.5 88.7-46.1 135-27 46.3 19.2 76.5 64.3 76.5 114.4 0 16.3-3.2 32.3-9.4 47.3-6.2 15-15.3 28.7-26.7 40.2-11.5 11.5-25.1 20.6-40.1 26.8-15 6.3-31 9.5-47.3 9.6zm0-235.1c-45 0-85.5 27.1-102.8 68.7-17.2 41.5-7.7 89.4 24.2 121.2 31.8 31.9 79.6 41.4 121.2 24.2 41.6-17.3 68.7-57.8 68.7-102.9 0-14.6-2.9-29-8.4-42.5-5.6-13.5-13.8-25.8-24.2-36.1-10.3-10.4-22.6-18.6-36.1-24.2-13.5-5.6-27.9-8.4-42.6-8.4z"/>
	</g>
</svg>