<svg version="1.2" xmlns="http://www.w3.org/2000/svg" viewBox="0 0 1335 451" width="1335" height="451">
	<title>marathon oil white-svg</title>
	<style>
		.s0 { fill: #fefefe } 
		.s1 { fill: #72cdf4 } 
		.s2 { fill: #00a9df } 
		.s3 { fill: #0081c5 } 
	</style>
	<path id="Layer" fill-rule="evenodd" class="s0" d="m-1058.3 525.3v411.4h-74.3v-294.5l-131.7 193.4h-2.2l-131.7-192.3v293.4h-72v-411.4h78.8l127.1 194.5 127.2-194.5zm239.8 423.8v-39.3c-6.1 7.3-12.9 13.9-20.5 19.6-7.5 5.8-15.7 10.7-24.4 14.5-8.6 3.9-17.7 6.8-27 8.6-9.3 1.8-18.8 2.6-28.3 2.2-58.5 0-110.3-33.7-110.3-96.7v-1.1c0-69.7 52.9-103.4 126-103.4 37.2 0 60.8 5.6 85.6 13.5v-6.8c0-42.7-27-67.4-76.6-67.4-34.8 0-60.7 7.9-88.9 20.2l-19.1-58.4c33.8-15.8 67.5-25.9 118.2-25.9 91.1 0 136.2 49.5 136.2 132.7v187.7zm2.2-132.6c-22.5-7.9-47.3-12.4-70.9-11.3-45 0-72 18-72 48.3 0 30.4 27 47.3 60.8 47.3 47.2 0 82.1-27 82.1-66.4zm122.7-183.2h70.9v71.9c20.3-47.2 56.3-78.7 110.3-76.4v76.4h-4.5c-61.9 0-105.8 41.6-105.8 124.8v120.3h-70.9zm393.9 314.8v-38.2c-6.1 7.4-13 14-20.6 19.8-7.7 5.8-15.9 10.7-24.7 14.6-8.8 3.9-17.9 6.8-27.4 8.5-9.4 1.8-19 2.5-28.6 2-58.5 0-110.3-33.7-110.3-96.6v-1.2c0-69.7 52.9-103.4 126.1-103.4 37.1 0 60.8 5.6 85.5 13.5v-6.7c0-42.8-27-67.5-76.5-67.5-34.9 0-60.8 7.9-90 20.2l-18.1-58.4c33.8-15.8 67.6-25.9 118.2-25.9 91.2 0 136.2 49.5 136.2 132.7v187.7h-70.9zm0-131.5c-22.5-7.9-45-12.4-69.8-11.3-45 0-72 18-72 48.4 0 30.3 27 47.2 60.8 47.2 47.2 0 82.1-27 82.1-66.3v-16.9zm131.7-121.4h-39.4v-61.8h39.4v-85.5h70.9v86.6h83.3v61.8h-83.3v155.2c0 28.1 14.7 39.3 38.3 39.3 15.7 0 30.4-3.4 45-11.2v59.6q-7.4 4.3-15.3 7.5-7.9 3.3-16.2 5.4-8.2 2.1-16.7 3.1-8.5 1-17.1 0.8c-51.7 0-90-23.6-90-93.3h1.1zm193.6-164.1h70.9v151.7c20.3-30.3 48.4-56.2 96.8-56.2 69.8 0 111.4 48.4 111.4 121.4v201.3h-72v-179.9c0-48.3-23.6-76.4-66.4-76.4-40.5 0-69.8 29.2-69.8 78.7v177.6h-70.9zm315.1 260.8c-0.1-21.8 4.1-43.3 12.3-63.4 8.3-20.1 20.5-38.4 35.9-53.8 15.4-15.4 33.7-27.5 53.8-35.8 20.1-8.2 41.7-12.4 63.5-12.3 21.8-0.4 43.4 3.5 63.6 11.6 20.2 8.1 38.6 20.1 54 35.4 15.4 15.3 27.6 33.6 35.9 53.7 8.2 20.2 12.3 41.7 12 63.5v1.1c0 21.7-4.4 43.3-12.8 63.3-8.4 20.1-20.7 38.3-36.2 53.6-15.5 15.2-33.9 27.3-54 35.4-20.2 8.1-41.9 12.1-63.6 11.8-21.5 0.2-42.8-3.9-62.7-12.1-19.8-8.1-37.9-20.1-53.1-35.3-15.1-15.2-27.2-33.2-35.3-53-8.2-19.9-12.3-41.1-12.1-62.6v-1.1zm258.8 0c0-56.2-38.2-101.2-94.5-101.2-56.3 0-93.4 45-93.4 100.1v1.1c0 55.1 39.4 101.2 94.5 101.2 57.4 0 94.6-45 94.6-100.1v-1.1zm111.4-157.4h70.9v48.3c20.3-30.3 49.5-56.2 97.9-56.2 69.8 0 110.3 48.4 110.3 121.4v201.3h-70.9v-179.9c0-48.3-24.7-76.4-67.5-76.4-40.5 0-68.7 29.2-68.7 78.7v177.6h-72zm371.4 106.8v-1.1c-0.6-28.6 4.6-57 15.2-83.5 10.6-26.6 26.5-50.7 46.7-70.9 20.2-20.3 44.2-36.3 70.7-47 26.5-10.8 54.9-16.1 83.5-15.6 28.4-0.5 56.6 4.8 82.9 15.5 26.3 10.7 50.2 26.6 70.2 46.8 20 20.2 35.6 44.2 46.1 70.6 10.4 26.3 15.4 54.6 14.7 82.9 0.7 28.5-4.3 56.8-14.7 83.3-10.4 26.5-26.1 50.7-46 71-20 20.4-43.8 36.5-70.1 47.5-26.3 10.9-54.6 16.5-83.1 16.3-28.4 0.6-56.6-4.5-83-15.1-26.3-10.5-50.3-26.3-70.4-46.4-20-20.1-35.9-44-46.4-70.3-10.6-26.3-15.8-54.5-15.2-82.9zm354.6 0v-1.1c0-81-58.5-149.5-139.6-149.5-82.1 0-139.5 67.4-139.5 148.4 0 82 58.5 149.5 140.6 149.5 81.1 0 138.5-66.4 138.5-147.3zm131.7-215.8h78.8v67.4h-78.8zm3.3 114.7h72.1v296.8h-72.1zm134-114.7h78.8v411.5h-78.8zm-1248.2-303.6c-22.5 63-38.3 128.2-48.4 194.5h-408.6c5.6-33.7 31.5-284.4 163.2-380 59.7-42.7 110.3-34.8 288.2-34.8h138.4c60.8 0 87.8 1.1 95.7 2.2 114.8 12.4 190.5 246.6 195.8 230.5q7.9-24.2 14.5-48.9 6.7-24.6 12-49.5 5.4-24.9 9.5-50.1 4-25.2 6.8-50.5h409.7c-5.7 34.9-31.6 285.6-163.2 381.1-59.7 42.7-111.5 33.7-289.3 33.7h-137.3c-61.9 0-87.8-1.1-95.7-2.2-105.8-11.2-177.8-194.5-190.2-226zm1397.5 324.5q-0.5 1.5-1.4 2.7-0.9 1.3-2.2 2.1-1.3 0.9-2.8 1.2l6.8 16.9h-6.8l-5.6-15.7h-9v15.7h-6.7v-37.1h15.7c4.5 0 6.8 1.1 9 3.4q0.9 0.7 1.5 1.6 0.6 0.9 1.1 1.9 0.4 1.1 0.6 2.2 0.2 1 0.2 2.2 0 1.5-0.4 2.9zm-6.4-4.1c0-2.2-2.2-5.6-6.7-5.6h-7.9v11.2h7.9c3.4 0 6.7-1.1 6.7-5.6z"/>
	<path id="Layer" fill-rule="evenodd" class="s1" d="m130.3 392.6h-98c4.5-34.6 53.2-362.9 237.3-362.9 8.9 0 17.8 0.9 26.6 2.5-133.1 88.4-163.7 342.4-165.9 360.4zm921.5-332.5c-3.6 29-28.6 196.7-107.8 294.3-18.1-24.3-34.1-50.1-47.7-77.1 43-98.1 56-202.6 57.8-217.2zm-332.2 360c-9.9 2-20.3 2.9-30.9 2.9-76.9 0-130.3-54.7-196.9-202.4-7-15.3-14.2-30.3-21.4-44.9q4.7-10.4 10-20.4 5.3-10 11.2-19.6 5.9-9.7 12.4-19 6.4-9.3 13.4-18.2c30 41.5 55.2 86.4 75 133.6 43.9 97.6 83.3 155.8 127.2 188zm54.5 8.5c15.7-9.9 30.8-22 44.8-35.8q4.5 4.9 9.2 9.6 4.8 4.6 9.8 9 5.1 4.3 10.3 8.4 5.3 4.1 10.7 7.9c-27.9 7-57 7.4-85.1 1.1zm59.9-52.1q7-8.4 13.5-17.2 6.5-8.7 12.5-17.9 6-9.1 11.4-18.6 5.5-9.4 10.3-19.2c13.5 25.1 29.3 49 46.9 71.5q-5.5 5.5-11.3 10.6-5.9 5-12.2 9.5-6.3 4.6-12.9 8.5-6.7 4-13.6 7.4-6.3-3.3-12.2-7.2-6-3.9-11.6-8.2-5.6-4.4-10.8-9.2-5.2-4.8-10-10z"/>
	<path id="Layer" fill-rule="evenodd" class="s2" d="m735.2 269.6q9.1 18.4 19.3 36.3 10.3 17.9 21.6 35.2 11.3 17.2 23.6 33.8-5.1 5.1-10.7 9.8-5.5 4.7-11.4 9-5.9 4.2-12.2 7.9-6.2 3.8-12.7 7c-46.2-24.3-86.7-80.7-135.1-187.8q-8-19-17.2-37.4-9.1-18.5-19.3-36.4-10.3-17.9-21.6-35.1-11.3-17.3-23.6-33.8 5.1-5.2 10.7-9.9 5.5-4.7 11.4-8.9 5.9-4.2 12.2-8 6.2-3.7 12.7-7c46.4 24.3 86.9 80.5 135.1 187.8q8 19 17.2 37.5zm-384.3-244.6c27.9-7 57.1-7.3 85.3-0.9-16.2 10.1-31.3 22.3-45 36q-4.6-4.9-9.4-9.5-4.8-4.7-9.8-9.1-5-4.4-10.2-8.5-5.3-4.1-10.7-8zm-95 367.8h-97.9c4-29.9 41.4-284.6 173.3-348.5 14.6 7.5 28.1 18.3 41.6 32.2-91.6 108.8-115.2 301.3-117 316.3zm921.8-332.7c-5.2 38.7-42.1 285.1-173.3 348.5-14.4-7.7-28.2-18.2-41.7-32.4 91.9-108.8 115.3-301.1 117.1-316.1zm-192.9 367.6q-10.5 2.6-21.1 4-10.7 1.4-21.4 1.6-10.8 0.1-21.5-1-10.6-1.1-21.1-3.5c15.9-10.1 31-22.5 45-36q4.5 4.9 9.3 9.6 4.8 4.6 9.8 9 5 4.3 10.2 8.4 5.3 4.1 10.8 7.9z"/>
	<path id="Layer" fill-rule="evenodd" class="s3" d="m407.1 77.8q5.5-5.5 11.4-10.5 5.9-5.1 12.2-9.6 6.3-4.5 13-8.5 6.6-3.9 13.6-7.3 6.3 3.3 12.2 7.2 6 3.8 11.6 8.2 5.6 4.3 10.8 9.1 5.2 4.9 10 10.1-7 8.4-13.5 17.1-6.5 8.8-12.4 17.9-6 9.1-11.4 18.6-5.4 9.5-10.2 19.2-5.1-9.4-10.6-18.6-5.6-9.2-11.5-18.1-5.9-9-12.2-17.7-6.3-8.7-13-17.1zm69.6-52.8q5.4 3.9 10.7 8 5.2 4.1 10.2 8.5 5 4.4 9.8 9.1 4.8 4.6 9.4 9.5c13.7-13.5 28.8-25.6 45-36-27.9-6.4-57.1-6.1-84.9 0.9zm367.2 207.1c-66.7-147.5-120-202.4-197-202.4-10.4 0-20.7 1.2-30.6 3.2 43.6 32.1 83.3 90.4 126.9 187.9 20 47.3 45.1 92.1 75.2 133.6q7-8.9 13.5-18.2 6.4-9.3 12.3-19 5.9-9.7 11.1-19.8 5.3-10 9.9-20.3-2.7-5.6-5.5-11.2-2.7-5.6-5.4-11.2-2.7-5.6-5.3-11.3-2.6-5.6-5.1-11.3zm-404.6-56.4q-5.1-10.2-10.6-20.1-5.6-9.9-11.5-19.5-6-9.7-12.4-19.1-6.4-9.4-13.2-18.5c-79 97.4-104 265.3-107.8 294.1h97.9c1.1-10.1 14.2-117.6 57.6-216.9zm766.1-115.6c-2 18.2-33.3 272.3-165.9 360.6 8.5 1.6 17.3 2.3 26.5 2.3 184.6 0 232.8-328.3 237.5-362.9z"/>
</svg>