<svg version="1.2" xmlns="http://www.w3.org/2000/svg" viewBox="0 0 1627 435" width="1627" height="435">
	<title>MSCI_logo_2019-svg</title>
	<style>
		.s0 { fill: #ffffff } 
	</style>
	<g id="Layer">
		<path id="Layer" class="s0" d="m1551.3 363.5c-0.8 0-1.7-0.2-2.3-0.8l-294.8-295.2c-1.2-1.2-1.2-3.1 0-4.3 1.3-1.2 3.1-1.2 4.3 0l295 295.2c1.2 1.3 1.2 3.1 0 4.3-0.6 0.4-1.4 0.8-2.2 0.8zm-294.6 0.2c-0.8 0-1.6-0.2-2.3-0.8-1.2-1.2-1.2-3 0-4.3l295-295c1.3-1.2 3.1-1.2 4.3 0 1.3 1.2 1.3 3.1 0 4.3l-294.8 295c-0.6 0.6-1.4 0.8-2.2 0.8zm147.8 61.1c-1.6 0-3.1-1.4-3.1-3v-417.6c0-1.7 1.5-3.1 3.1-3.1 1.6 0 3.1 1.4 3.1 3.1v417.6c0 1.6-1.5 3-3.1 3zm208.6-208.8h-417.4c-1.7 0-3.1-1.4-3.1-3 0-1.7 1.4-3.1 3.1-3.1h417.2c1.7 0 3.1 1.4 3.1 3.1 0 1.6-1.2 3-2.9 3zm-28.3-104.4h-362.4c-1.6 0-3.1-1.4-3.1-3 0-1.7 1.5-3.1 3.1-3.1h362.4c1.6 0 3 1.4 3 3.1 0 1.6-1.4 3-3 3zm-0.5 208.8h-361.9c-1.6 0-3.1-1.4-3.1-3 0-1.7 1.5-3.1 3.1-3.1h361.9c1.7 0 3.1 1.4 3.1 3.1 0 1.6-1.2 3-3.1 3zm-179.8 104.4c-1.6 0-3.1-1.4-3.1-3v-417.6c0-1.7 1.5-3.1 3.1-3.1 1.6 0 3.1 1.4 3.1 3.1v417.6c0 1.6-1.5 3-3.1 3zm-104.3-28.6c-1.7 0-3.1-1.4-3.1-3v-361.5c0-1.6 1.4-3 3.1-3 1.6 0 3 1.4 3 3v361.5c0 1.8-1.4 3-3 3zm208.6 0c-1.6 0-3-1.4-3-3v-360.8c0-1.7 1.4-3.1 3-3.1 1.6 0 3.1 1.4 3.1 3.1v360.8c0 1.8-1.5 3-3.1 3zm104.3-180.2c-0.8 0-1.6-0.2-2.2-0.8l-208.7-209c-1.2-1.2-1.2-3.1 0-4.3 1.3-1.2 3.1-1.2 4.3 0l208.7 208.8c1.2 1.2 1.2 3.1 0 4.3-0.6 0.6-1.3 1-2.1 1zm-208.6 208.8c-0.8 0-1.6-0.2-2.3-0.8l-208.6-208.8c-1.2-1.2-1.2-3.1 0-4.3 1.2-1.2 3.1-1.2 4.3 0l208.6 208.8c1.3 1.2 1.3 3.1 0 4.3-0.6 0.6-1.4 0.8-2 0.8zm0 0c-0.8 0-1.6-0.2-2.3-0.8-1.2-1.2-1.2-3.1 0-4.3l208.7-208.8c1.2-1.2 3-1.2 4.3 0 1.2 1.2 1.2 3.1 0 4.3l-208.7 208.8c-0.6 0.6-1.4 0.8-2 0.8zm-208.8-208.8c-0.9 0-1.7-0.2-2.3-0.8-1.2-1.2-1.2-3.1 0-4.3l208.8-209c1.3-1.2 3.1-1.2 4.3 0 1.3 1.2 1.3 3.1 0 4.3l-208.6 209c-0.6 0.4-1.4 0.8-2.2 0.8z"/>
		<path id="Layer" fill-rule="evenodd" class="s0" d="m1403.9 424.6c-117.1 0-211.7-94.6-211.7-211.6 0-117.1 94.6-211.7 211.7-211.7 117.1 0 211.7 94.6 211.7 211.7 0 117-94.6 211.6-211.7 211.6zm205.6-211.8c0-113.7-91.9-205.6-205.6-205.6-113.7 0-205.6 91.9-205.6 205.6 0 113.6 91.9 205.5 205.6 205.5 113.7 0 205.6-91.9 205.6-205.5z"/>
	</g>
	<g id="Layer">
		<path id="Layer" class="s0" d="m282.7 68.9v295.9c0 0.8-0.2 1.6-0.8 2.2-0.6 0.4-1.4 0.8-2.2 0.8h-48.4c-1.7 0-3.1-1.4-3.1-3v-193.5l-74.9 132c-0.6 1-1.6 1.6-2.7 1.6h-17.5c-1 0-2.1-0.6-2.7-1.6l-75.3-131.6v193.3c0 1.6-1.4 3-3.1 3h-47.9c-1.7 0-3.1-1.4-3.1-3v-296.1c0-1.6 1.4-3 3.1-3h50c1 0 2 0.6 2.6 1.6l85.6 157.3 84.7-157.3c0.4-1 1.4-1.6 2.6-1.6h50.3c1.6 0 3 1.2 2.8 3zm701.5-0.9c0-1.6 1.3-3 3-3h45.2c1.7 0 3 1.4 3 3v297.8c0 1.7-1.3 3-3 3h-45.2c-1.7 0-3-1.3-3-3zm-75.6 249.4c-44.3 46.1-85.3 52.3-119.6 52.3-41.4 0-79.4-15.6-107.4-44.2-27.5-28.4-42.8-66.6-42.8-107.9v-0.8c0-87 65.5-152.8 152.2-152.8 59.2 0 91.7 23.3 115.4 46 1.2 1.2 1.2 3.1 0.2 4.3l-32.7 37.6c-0.6 0.6-1.4 1-2.2 1-0.8 0-1.7-0.2-2.3-0.8-26.3-24.3-50.6-35.2-79-35.2-25.5 0-49 10.2-66.1 28.8-17 18.4-26.3 43.4-26.3 70.3v0.8c0 56.8 39.8 99.5 92.4 99.5 35.1 0 57-13.9 81.1-36.3 1.2-1.3 3-1.3 4.3 0l32.6 33.1c1.3 1.2 1.3 3 0.2 4.3zm-329.1-38v0.8c0 54.5-42.2 89.9-108 89.9-46.3 0-83.9-14.1-114.9-43.5-1.2-1.3-1.4-3.1-0.2-4.3l29.8-32.5c0.6-0.6 1.4-1 2.3-1h0.2c0.8-0.2 2 0 2.8 0.8 21 19.4 43.3 29 71.9 31 2.8 0.2 5.7 0.2 8.6 0.2 3.2 0 6.5-0.2 9.5-0.4 27.6-2.2 44.1-16.1 44.1-37.2v-0.8c-0.2-11.6-3.6-19.6-11.8-25.9-7.1-5.7-16.7-8.6-31.4-12.3-1.3-0.2-4.9-1-8.6-1.6-3.9-0.6-8-1.4-9.8-1.9-1.2-0.4-3.9-0.8-6.7-1.4-4.1-0.8-8.2-1.6-9.8-2-26.4-5.5-45.8-14.3-59-26.8-14.7-13.9-22.1-32.5-22.1-57v-1c0-53.1 41-88.7 102.1-88.7 41 0 72 11.1 100.6 35.8 1.5 1 1.5 3 0.4 4.3l-27.3 32.4c-0.6 0.7-1.5 1.1-2.3 1.1h-0.2c-1 0.4-2.6 0.2-3.4-0.6-18-14.5-37.8-22.5-61.1-24.2-5.5-0.4-11-0.2-16.7 0.5-23.1 2.8-37.8 16.1-38.6 34.9v2.4 0.9c0.4 8.7 3.1 15.5 8.6 20.6 5.7 5.5 15.3 9.8 31.4 14.3 2.1 0.6 9 2 15.5 3.3 6.1 1.2 12.1 2.4 14.7 3 0.4 0 0.8 0.2 1.2 0.2 0.7 0.2 1.3 0.4 1.5 0.4 26.5 5.4 44.9 12.7 59 23.9 18.5 14.6 27.9 35.6 27.7 62.4z"/>
		<path id="Layer" class="s0" d="m1404.1 230.5c-9.8 0-17.8-7.9-17.8-17.7 0-9.9 8-17.8 17.8-17.8 9.8 0 17.7 7.9 17.7 17.8 0 9.8-7.9 17.7-17.7 17.7zm0.4 99.9c-7.2 0-13.1-5.8-13.1-13 0-7.3 5.9-13.1 13.1-13.1 7.2 0 13.1 5.8 13.1 13.1 0 7.2-5.9 13-13.1 13zm-104.3-208.8c-7.2 0-13.1-5.8-13.1-13 0-7.3 5.9-13.1 13.1-13.1 7.2 0 13 5.8 13 13.1 0 7.2-5.8 13-13 13zm-0.2 213.5c-9.8 0-17.8-7.9-17.8-17.7 0-9.9 8-17.8 17.8-17.8 9.8 0 17.7 7.9 17.7 17.8 0 9.8-7.9 17.7-17.7 17.7zm313.1-109.1c-7.2 0-13-5.8-13-13 0-7.3 5.8-13.1 13-13.1 7.3 0 13.1 5.8 13.1 13.1 0 7.2-5.8 13-13.1 13zm-208.6 208.8c-7.2 0-13.1-5.8-13.1-13 0-7.3 5.9-13.1 13.1-13.1 7.2 0 13.1 5.8 13.1 13.1 0 7.2-5.9 13-13.1 13zm104.1-23.9c-9.8 0-17.8-7.9-17.8-17.7 0-9.9 8-17.8 17.8-17.8 9.8 0 17.8 7.9 17.8 17.8 0 9.8-8 17.7-17.8 17.7zm-286.2-80.5c-7.2 0-13.1-5.8-13.1-13 0-7.3 5.9-13.1 13.1-13.1 7.2 0 13.1 5.8 13.1 13.1 0 7.2-5.9 13-13.1 13zm286.2-280.3c-9.8 0-17.8-7.9-17.8-17.7 0-9.9 8-17.8 17.8-17.8 9.8 0 17.8 7.9 17.8 17.8 0 9.8-8 17.7-17.8 17.7zm-286.4 76.4c-9.8 0-17.8-7.9-17.8-17.7 0-9.9 8-17.8 17.8-17.8 9.8 0 17.8 7.9 17.8 17.8 0 9.8-8 17.7-17.8 17.7zm362.6-4.9c-7.3 0-13.1-5.8-13.1-13 0-7.3 5.8-13.1 13.1-13.1 7.2 0 13 5.8 13 13.1 0 7.2-5.8 13-13 13zm-76 104.6c-7.2 0-13.1-5.8-13.1-13 0-7.3 5.9-13.1 13.1-13.1 7.2 0 13.1 5.8 13.1 13.1 0 7.2-5.9 13-13.1 13zm-252.3-147.9c-7.2 0-13.1-5.8-13.1-13.1 0-7.2 5.9-13 13.1-13 7.2 0 13.1 5.8 13.1 13 0 7.3-5.9 13.1-13.1 13.1zm43.7-32.9c-7.3 0-13.1-5.8-13.1-13 0-7.3 5.8-13.1 13.1-13.1 7.2 0 13 5.8 13 13.1 0 7.2-5.8 13-13 13z"/>
	</g>
</svg>