<svg version="1.2" xmlns="http://www.w3.org/2000/svg" viewBox="0 0 1523 1217" width="1523" height="1217">
	<title>Marshalls_PRIMARY_POS_Land_RGB_web-svg</title>
	<style>
		.s0 { fill: #ffffff } 
	</style>
	<g id="Layer">
		<path id="Layer" class="s0" d="m436.9 527.3c21.4 18.1 24.7 51 5 72.4-18.1 21.4-51.1 24.7-72.5 4.9-21.4-18.1-24.7-51-4.9-72.3 18.1-21.4 51-23.1 72.4-5zm72.5 106.9c23 19.8 24.7 54.3 6.6 75.7-19.8 23-54.4 24.7-75.8 6.6-23-19.8-24.7-54.3-6.6-75.7 19.8-23 54.4-26.3 75.8-6.6zm123.5 57.6c23 19.7 26.3 55.9 6.5 80.6-19.7 23-55.9 26.3-80.6 6.6-23.1-19.8-26.4-56-6.6-80.6 19.7-24.7 56-28 80.7-6.6zm138.3-19.7c24.6 21.3 27.9 59.2 6.5 83.8-21.4 24.7-59.2 28-83.9 6.6-24.7-21.4-28-59.2-6.6-83.9 21.4-24.6 59.3-27.9 84-6.5zm125.1-88.9c26.3 23.1 29.6 62.5 6.6 88.9-23.1 26.3-62.6 29.6-88.9 6.5-26.4-23-29.7-62.5-6.6-88.8 24.7-26.3 64.2-29.6 88.9-6.6zm72.4-143c28 23 31.3 65.7 6.6 92.1-23 27.9-65.9 31.2-92.2 6.5-28-23-31.3-65.7-6.6-92.1 23.1-27.9 64.2-31.2 92.2-6.5zm-18.1-177.7c29.6 24.7 32.9 69.1 8.2 97.1-24.7 29.6-69.1 32.9-97.1 6.5-29.6-24.6-32.9-69-6.6-97 23.1-27.9 67.5-31.2 95.5-6.6zm-100.4-148c29.6 26.3 34.6 72.4 8.2 102-26.3 29.6-72.4 34.5-102.1 8.2-29.6-26.3-34.5-72.4-8.2-102 26.3-31.2 72.4-34.5 102.1-8.2zm-163-90.4c31.3 27.9 36.2 75.6 8.2 106.9-28 31.2-75.7 36.1-107 8.2-31.3-28-36.2-75.7-8.2-106.9 28-31.3 75.7-34.6 107-8.2zm-186.1-1.7c33 29.6 37.9 79 8.3 111.8-28 32.9-79 37.9-112 8.3-32.9-28-37.8-79-8.2-111.9 28-32.9 77.4-37.8 111.9-8.2zm-176.1 87.2c34.6 29.6 39.5 82.2 8.2 118.4-29.6 34.5-82.3 39.5-118.5 8.2-34.6-29.6-39.5-83.9-8.3-118.4 31.3-34.5 84-37.8 118.6-8.2zm-126.8 167.7c36.2 31.3 41.2 87.2 9.9 123.4-31.3 36.2-87.3 41.1-123.5 9.9-36.2-31.3-41.1-87.2-9.9-123.4 31.3-37.8 87.3-41.1 123.5-9.9zm-46.1 207.3c39.5 32.9 42.8 92.1 9.9 129.9-32.9 39.5-92.2 42.8-130.1 9.9-37.8-32.9-42.8-92.1-9.9-130 33-39.4 90.6-42.7 130.1-9.8zm62.6 223.6c41.1 34.6 46.1 95.4 9.9 136.6-34.6 41.1-95.5 46-136.7 9.8-41.2-34.5-46.1-95.4-9.9-136.5 34.6-39.5 97.2-44.4 136.7-9.9zm151.4 182.6c42.8 36.2 47.8 100.3 11.6 143.1-36.3 42.8-100.5 47.7-143.3 11.5-42.8-36.2-47.7-100.3-11.5-143.1 36.2-44.4 100.4-49.3 143.2-11.5zm222.3 115.1c44.5 37.9 49.4 105.3 11.5 151.3-37.8 44.5-105.3 49.4-151.4 11.6-44.5-37.9-49.4-105.3-11.6-151.4 37.9-44.4 105.4-49.3 151.5-11.5zm273.3 13.2c47.7 41.1 52.7 111.8 11.5 157.9-39.5 47.7-111.9 52.6-158 11.5-47.8-41.1-52.7-111.8-11.6-157.9 39.6-46 110.4-52.6 158.1-11.5zm274.9-110.2c49.4 42.8 54.4 116.8 13.2 166.1-42.8 49.4-116.9 55.9-166.3 13.2-49.4-42.8-54.3-116.8-13.1-166.1 42.8-51 116.9-56 166.2-13.2zm224-228.6c52.6 44.4 57.6 123.3 13.1 174.3-44.4 52.7-123.5 57.6-174.5 13.2-52.7-44.4-57.6-123.4-13.2-174.4 44.5-52.6 123.5-57.5 174.6-13.1zm116.8-301c54.4 46.1 61 128.3 13.2 182.6-46.1 54.2-128.4 60.8-182.7 13.1-54.4-46-60.9-128.3-14.8-182.5 47.7-52.7 130-59.2 184.3-13.2zm-24.6-345.4c57.6 49.4 64.2 134.9 14.8 192.4-49.4 57.6-135 64.2-192.7 14.9-57.6-49.4-64.2-134.9-14.8-192.5 49.4-57.5 135-64.1 192.7-14.8z"/>
	</g>
</svg>