<svg version="1.2" xmlns="http://www.w3.org/2000/svg" viewBox="0 0 1569 1535" width="1569" height="1535">
	<title>favicon (1)-svg</title>
	<style>
		.s0 { fill: #ffffff } 
	</style>
	<g id="#003b5eff">
		<path id="Layer" class="s0" d="m444.2 0h341.9c0.3 36.5 0.1 73 0.1 109.5 0 214 0 428 0 642-76.4 73.2-142.4 157.5-194.9 249.4-57 99.7-98.1 208.5-120.6 321-12 59.1-18.8 119.2-20.7 179.4-0.1-23.9 0-47.8 0-71.7q0-484.9 0-969.9c-51.7 50.7-103.5 101.3-155.2 152-2.2 2.2-4.7 4.2-6.3 6.9-2.1 2.5-4.5 4.6-6.8 6.9-93.7 91.8-187.5 183.5-281.2 275.4 0-155.6 0-311.1 0-466.7 22.6-21.9 45-44 67.5-66q144.2-141.1 288.3-282.3c29.3-28.6 58.5-57.4 87.9-85.9z"/>
	</g>
	<g id="#d61c24ff">
		<path id="Layer" class="s0" d="m1196.7 500.6c119.5-41.4 245.9-62.4 372.3-62.3v329.9c-93.7-0.2-187.5 16.4-275.4 48.9-100.7 37.1-193.6 95.2-271.1 169.4-77.8 74.2-139.9 164.8-180.6 264.4-36.7 89.7-55.6 186.7-55.5 283.7q-168.4 0-336.8-0.1c-0.1-11 0.1-22.1 0.4-33.2 1.9-60.2 8.7-120.3 20.7-179.4 22.5-112.5 63.6-221.3 120.6-321 52.5-91.9 118.5-176.2 194.9-249.4 35.7-34.2 73.6-66 113.4-95.2 90.5-66.3 191-119 297.1-155.7z"/>
	</g>
</svg>