<svg version="1.2" xmlns="http://www.w3.org/2000/svg" viewBox="0 0 1511 151" width="1511" height="151">
	<title>VR_corpLogo_bw-svg</title>
	<style>
		.s0 { fill: #808285 } 
		.s1 { fill: #000000 } 
	</style>
	<g id="Layer">
		<g id="Layer">
			<path id="Layer" fill-rule="evenodd" class="s0" d="m477.1 4.8h73.9c29 0 50.3 7.7 50.3 42.6 0 26.2-16.4 40.7-34.3 41.7l37.7 58.1h-29.5l-35.8-55.7h-38.2v55.7h-24.1zm70.5 63c19.9 0 29.5-3.4 29.5-20.4 0-16.5-10.1-19.8-29.5-19.8h-46.4v40.2zm82.2-63h110.7v23.7h-87v33h74.9v23.7h-74.9v37.8h88.9v23.7h-112.6zm231.6 43.1c-3.9-12.6-14.1-23.7-43.5-23.7-16.5 0-32.9 4.8-32.9 17.9 0 6.3 2.9 12.6 27.5 16l29 4.8c27.6 4.9 44 17.5 44 41.2 0 33.4-28 46-60.9 46-53.2 0-65.7-30-68.6-40.7l23.2-8.2c4.3 10.2 13.5 25.2 46.4 25.2 19.8 0 35.8-7.3 35.8-19.9 0-9.2-9.2-15-26.6-17.9l-29.5-4.8c-28.5-4.4-44.5-18.9-44.5-40.7 0-42.7 47.9-42.7 57.5-42.7 53.2 0 62.4 28.6 65.3 38.3zm113.1-47c54.1 0 73.5 36.8 73.5 75.6 0 29.5-15 73.6-73.5 73.6-58.5 0-73.5-44.1-73.5-73.6 0-38.8 19.4-75.6 73.5-75.6zm49.3 74.1c0-34.3-21.3-50.3-49.3-50.3-28 0-49.3 16-49.3 50.3 0 40.2 26.1 51.4 49.3 51.4 23.2 0 49.3-10.7 49.3-51.4zm118-70.2c29 0 50.2 7.8 50.2 42.6 0 26.2-16.4 40.7-34.3 41.7l37.7 58.1h-29.5l-35.7-55.7h-38.7v55.7h-24.2v-142.4zm-3.4 63c19.9 0 29.5-3.4 29.5-20.4 0-16.4-10.1-19.8-29.5-19.8h-46.9v40.2zm122.3-39.3h-55.1v-23.7h134.4v23.7h-55.1v118.2h-24.2zm191.9 19.4c-3.8-12.6-14-23.7-43.5-23.7-16.4 0-32.8 4.8-32.8 17.9 0 6.3 2.9 12.6 27.5 16l29 4.8c27.6 4.9 44 17.5 44 41.2 0 33.4-28 46-60.9 46-53.2 0-65.7-30-68.6-40.7l23.2-8.2c4.3 10.2 13.5 25.2 46.4 25.2 19.8 0 35.7-7.3 35.7-19.9 0-9.2-9.1-15-26.5-17.9l-29.5-4.9c-28.5-4.3-44.5-18.8-44.5-40.6 0-42.7 47.9-42.7 57.5-42.7 53.2 0 62.4 28.6 65.3 38.3zm46.4-24.2c-6.2 0-11.2-5-11.2-11.2 0-6.1 5-11.1 11.2-11.1 6.1 0 11.1 5 11.1 11.1 0 6.2-5 11.2-11.1 11.2zm8.2-11.6c0-4.9-3.8-8.8-8.5-8.8-4.6 0-8.4 3.9-8.4 8.8 0 4.8 3.8 8.7 8.4 8.7 4.7 0 8.5-3.9 8.5-8.7zm-10.1 5.8h-2.5v-10.7c1 0 2.5-0.5 4.4-0.5 1.9 0 2.9 0.5 3.9 1 0.4 0.5 0.9 1.5 0.9 2.4 0 1.5-0.9 2.4-2.4 2.4 1 0.5 1.5 1 1.9 2.9 0.5 1.5 0.5 2.5 1 3h-2.9c-0.5-0.5-0.5-1.5-1-2.5 0-0.9-0.9-1.9-2.4-1.9h-0.9zm0.9-6.3c1.5 0 2.4-0.5 2.4-1.5 0-0.9-0.9-1.4-2.4-1.4q-0.7 0-1.4 0v2.9z"/>
		</g>
	</g>
	<g id="Layer">
		<path id="Layer" fill-rule="evenodd" class="s1" d="m0.9 4.8h25.7l46.4 113.3 46.8-113.3h26.1l-60.4 141.9h-25.1zm174 0h27.6l59.9 142.4h-25.6l-12.6-32.9h-71l-13.1 32.4h-25.6zm39.6 85.3l-25.6-63-26.1 63zm61.9-85.3h24.1v142.4h-24.1zm51.7 0h23.7v117.2h89.4v24.8h-113.1z"/>
	</g>
</svg>