<svg version="1.2" xmlns="http://www.w3.org/2000/svg" viewBox="0 0 1537 319" width="1537" height="319">
	<title>Metcash-Annual-Report-2020-1-pdf-svg</title>
	<defs>
		<clipPath clipPathUnits="userSpaceOnUse" id="cp1">
			<path d="m-374.75-3322.1h6065.06v8580.39h-6065.06z"/>
		</clipPath>
	</defs>
	<style>
		.s0 { fill: #f58220 } 
	</style>
	<g id="Clip-Path: Page 1" clip-path="url(#cp1)">
		<g id="Page 1">
			<path id="Path 13" fill-rule="evenodd" class="s0" d="m1379.6 304.7h-51.4c0-0.5-0.6-0.5-0.6-0.5q0-0.5 0-0.5-0.5-1-0.5-2.1 0-148.7 0-297 0-1 0.5-2.1 0-0.5 0-1c3.1-0.5 47.4-1 52 0q0 2.1 0 4.6 0 52 0 104 0 2.5 0.5 5.1c2 0 2.5-1.6 3.6-3.1 7.1-8.7 15.2-16.8 24.9-22.4q17.8-11.2 38.7-11.7c21.4-1.1 39.7 6.6 56 19.8 11.7 9.2 21.4 20.4 27.5 33.7 2.6 6.6 5.6 18.3 5.6 25.4v147.8q-3 0-4.5 0c-13.8 0-29.6 0-43.3 0-4.6 0-4.6 0-4.6-4.6q0-52.5 0-105c0-11.7-2.1-22.9-8.7-32.6-10.2-16.3-24.9-23.9-43.8-22.4-18.8 2.1-33.1 12.2-43.3 28q-8.6 13.3-8.6 29.1c0 34 0 73.2 0 107.5zm-965-287.9c0 12.2 0 24 0 35.7q0 16.8 0 34.1 0.5 0 1 0.5 2-1 3.6-2.5c8.1-5.6 16.3-10.2 25.4-14.3 9.2-3.6 18.9-6.1 28.5-6.6 24.5-1.5 47.4 2.5 69.3 13.2 8.7 4.1 15.8 9.7 22.4 15.8 0.5 0.5 1 1.1 1.5 2.1-28.5 54-57.5 108-86 162 0.5 1 0.5 1 0.5 1q0 0 0.5 0 46.3 0.5 92.2 0.5c1.5 0 2.5 0 4 0 0-2 0.5-3.5 0.5-5.1 0-12.2 0-222.8 0-235.4 3.1-1 42.3-1.5 49.9-0.5q0 2.3 0 4.6 0 23.4 0.6 46.9c0 2 0 3.6 0 6.1h83c1.5 3.1 1 5.6 1 8.7 0 2.5 0 5.1 0.5 8.6 1.5-1 2.5-1 4.1-2q20.3-10.7 42.7-13.8 14.8-1.5 29.6 0 39.7 3.6 70.3 29.6 19.3 16.3 30 38.7c1 1 1.5 2 2.5 4.1 17.4-34.7 43.3-57.6 80-68.3 36.2-10.2 70.8-5.1 103.4 14.3 2-4.6 0.5-9.2 1.5-12.8 3.1-1 45.8-1.5 49.9-0.5 0.5 3.1 0.5 219.6 0 223.2h-49.9c0-1.5-0.5-3.1-1-5.1-1.5 0.5-2.6 1-3.6 1.5q-20.4 12.3-43.8 15.8c-10.7 1.6-20.9 2.6-31.6 1.6-13.2-1.6-25.4-4.1-37.6-9.2q-43.3-17.9-64.7-59.6c-0.5-1.1-1.5-2.6-2.6-4.1-1 1.5-1.5 2.5-2 3.6q-26 49.9-80.5 65.2c-7.1 2-14.7 3-22.4 3.5q-46.8 4.1-85-23.4c-27.5-19.4-44.3-45.9-49.4-79q-7.6-51.2 24.4-91.7 1.1-2 2.6-3.6c-0.5-0.5-0.5-1-0.5-1q-1.5-0.5-3.1-0.5-23.4 0-47.3 0c-0.5 1.5-0.5 2.6-0.5 3.1q-0.6 2.5-0.6 4.6 0 85.6 0 171.7c0 7.6 0.6 6.6-6.6 6.6q-71.3 0-143.1 0c-16.3 0-31.5-2-46.3-8.7-11.2-4.6-20.9-11.2-29.5-19.3-10.7-9.7-20.4-20.9-27.5-33.1-10.2-17.4-14.3-36.2-13.8-56.1 0.5-16.8 0.5-33.1 0.5-49.9 0-1.6 0-3.6 0-5.1q-0.5 0-1 0-1.5 1.5-3.1 3-16.3 21.9-33.1 43.9-35.1 47.3-70.2 94.2-10.7 14.3-21.9 28.5c-1 1.6-2.1 2.6-4.6 2.6q-16.3 0-32.6 0c-0.5 0-1 0-2 0-0.6-1.5-0.6-3.1-0.6-4.6q0-18.3 0-36.2 0-64.2 0-127.9c0-2-0.5-3.5-0.5-5.6q-0.5 0-1 0-1.5 1.6-2.5 3.1-17.8 26.5-36.2 53-38.7 57.6-77.9 114.6c-1.5 2.6-3.6 3.6-6.6 3.6-21.1 0-46.2 0-67.2 0 1-1.5 1-2.6 2-3.1q22.4-33.6 45.3-67.2 40.8-59.6 81-119.2 32.6-47.4 65.2-95.3c1.5-2.1 3-3.1 5.6-3.1 13.6 0 31.2 0 44.8 0 0.5 2.1 0.5 3.6 0.5 5.1q0 27.5 0 55 0 55.1 0 110.1c0 1.5 0.5 3.6 0.5 5.1q0.5 0 1 0.5c1-1.5 2.1-2.5 2.6-3.6q12.2-16.8 23.9-33.6 47.4-67.8 94.2-135.5c1.5-2.1 3.1-3.1 6.1-3.1q18.4 0 36.7 0c1.5 0 2.5 0 4.6 0zm471.5 149.3c-2 0-3.5 0-5.1 0q-20.3 0-40.7 0c-2.5 0-4.1-0.5-5.6-3.1-14.8-23.4-43.8-35.6-71.3-30-32.6 6.1-57.5 36.2-53.5 70.8 1.6 16.8 8.7 30.6 21.4 41.8 16.8 14.3 36.2 19.9 58.1 15.8 20.3-3.6 35.6-14.3 46.3-32.1 1.5-2.6 3.1-3.1 5.6-3.1q19.9 0 39.7 0h4.1c-1-10.2-2.5-20.4-2.5-30-0.5-9.7 1-19.4 3.5-30.1zm189 27c0-7.6-3.1-18.8-9.2-29.5-14.8-24.5-45.8-37.7-75.9-29.6-33.6 8.7-53.5 40.3-49.4 70.8 2.1 16.8 9.7 30.6 22.4 41.3 17.9 15.3 38.7 19.9 61.6 14.3 29.6-6.7 50.5-33.7 50.5-67.3zm-638.6 42.8c3-3.6 60.1-112.1 61.1-115.7-2.1-0.5-4.1-1.5-6.1-2q-11.2-2.5-22.9 0c-19.9 4.6-36.2 14.8-46.9 33.1-7.6 12.3-10.7 26-9.7 40.8 0.5 13.7 5.1 25.5 14.8 35.7q4.1 4.5 9.7 8.1zm815.3-96.8q-0.5-2-1.6-4.6c-3-8.1-10.7-14.8-19.3-14.8-16.8 0.5-27.5 14.3-22.4 29.6 3 9.2 9.7 14.8 18.8 17.3 10.7 3.1 21.9 5.1 32.6 8.7q14.8 4.6 29 10.2c18.4 7.6 29.1 21.4 32.1 40.7 2.6 13.8 0 27-6.6 39.8-10.2 18.3-26 31.1-44.8 39.7q-15.3 6.6-31.6 7.7c-20.3 1.5-39.7-1.1-58.5-9.2-14.8-6.6-26.5-16.8-33.7-31.6-3-6.1-4-13.3-5-19.9q0-1 0-2.5c0 0 0.5-0.5 0.5-1h55c0 0.5 0.5 0.5 0.5 1 1.5 11.2 8.1 17.8 18.8 20.9 9.2 2.5 17.8 1.5 25.5-4.1 8.1-5.1 10.7-12.7 10.2-21.9-0.5-9.2-5.1-15.3-13.3-19.9-6.6-3.6-14.2-5.6-21.9-7.6-8.1-2.1-16.8-3.6-24.9-6.1-14.3-4.6-27-12.8-36.2-25-7.6-10.2-11.7-21.9-12.7-34.7-0.5-9.1-0.5-18.8 2.5-28 5.6-17.8 17.3-31.1 33.6-40.2q20.4-12.3 44.3-12.8c17.9-1 34.7 2.6 49.9 12.3 20.4 12.2 32.6 30 38.2 52.9q0.6 1.1 0.6 1.6 0 0.5-0.6 1.5zm284.7 18.3q0-0.5 0-0.5c0 0.5 0 1.6 0 0.5z"/>
		</g>
	</g>
</svg>