<svg version="1.2" xmlns="http://www.w3.org/2000/svg" viewBox="0 0 1552 363" width="1552" height="363">
	<title>logo-manitowoc-c-pdf-svg</title>
	<defs>
		<clipPath clipPathUnits="userSpaceOnUse" id="cp1">
			<path d="m1-2h1550v394h-1550z"/>
		</clipPath>
	</defs>
	<style>
		.s0 { fill: #ffffff } 
	</style>
	<g id="Clip-Path: Page 1" clip-path="url(#cp1)">
		<g id="Page 1">
			<path id="Path 1" fill-rule="evenodd" class="s0" d="m374.1 137.2c15.5-3.1 31.3-4.8 47-5 41.9 0 59.3 17.9 59.3 43.8-2.6 19.2-7.2 38-13.8 56.3-4 13.4-7 27.2-9.2 41-21.5 4.5-43.5 6.5-65.4 6.1-33.1 0-51-15.3-51-40.4 0-41.5 49.4-53.8 90.5-53.8h7.9c1-2.3 1.6-4.8 1.7-7.3 0-9.2-9.6-14.7-30.4-14.7-15.4 0.1-30.8 2.1-45.7 6.1zm57 78.2c-1.3 3.9-7.6 26-8.1 27.4q-9.6 2.2-19.3 2.2c-13.7 0-17.4-7-17.4-12.2 0-10 7-17.4 33-17.4zm200.3-9.3c3.4-10.2 5.5-20.7 6.4-31.3 0-23.5-19-43.2-63.9-43.2-20 0.8-39.8 3.4-59.3 7.9-0.4 15.6-2.8 31.2-7.3 46.1-2.2 7.9-27.4 90.6-27.4 90.6h44.2c0 0 29.8-99.8 31.6-105.3 5.5-2 11.4-3 17.2-2.8 13.7 0 18.5 7.1 18.5 15.6-0.4 7.5-1.9 14.8-4.5 21.8-2.8 8.9-20.7 70.8-20.7 70.8h44.1zm48.1-71.5l-42.4 141.6h44.2l42.3-141.6zm156.2 0h-27.4l9.7-31.5h-44.7l-9.6 31.5h-22.9l-10.5 34.8h23.3c-3.3 11.2-31.7 106.8-31.7 106.8h44.3l31.5-106.8h27.4zm338.4-0.1l-51.4 91.8 1.4-91.8h-45.5l-49.3 93.3-0.7-93.3h-43.9l6 141.7h46.1l48.9-87.3-1.2 87.3h45.8l90.1-141.7z"/>
			<path id="Path 2" fill-rule="evenodd" class="s0" d="m1351.5 189.2c0.3 48.8-38.4 88.8-87 90.2-37.9 0-62-22.4-62-58.6 0.3-48.3 38.7-87.6 86.9-89.2 40.1 0 62.1 24.8 62.1 57.6zm-103.9 30.5c0 15.4 7.5 23.4 19.9 23.4 23.4 0 38.8-30.3 38.8-51.6 0-14.9-6.1-23.4-19.9-23.4-22.4 0-38.8 28.8-38.8 51.6zm-277.8-30.5c0.3 48.8-38.3 88.8-87 90.2-37.9 0-62-22.4-62-58.6 0.3-48.3 38.8-87.6 86.9-89.2 39.9 0 62.1 24.8 62.1 57.6zm-104.5 30.5c0 15.4 7.4 23.4 19.8 23.4 23.5 0 38.9-30.3 38.9-51.6 0-14.9-6.2-23.4-19.9-23.4-22.8 0-39.2 28.7-38.8 51.6zm614.1-44.7c-7.8-4.4-16.6-6.8-25.7-6.9h-2.1c-23.9 1.6-42.1 21.9-41.2 45.7-0.1 1.3-0.1 2.7 0 4 2.1 15.4 16 26.5 31.5 24.8 8.1-0.4 16-2.5 23.3-6.1l-7.9 38c-9.2 3.5-18.8 5.4-28.6 5.6q-3.5 0.2-6.9 0c-32.6-1.2-58-28.7-56.8-61.4v-4.9c1.4-47 40.8-83.9 87.8-82.2 14-0.3 28 2.2 41 7.5z"/>
			<path id="Path 3" class="s0" d="m336.3 276.3c-42.3 69.1-125.5 101.8-203.6 79.8-78-22-131.9-93.2-131.9-174.4 0-81.2 53.9-152.4 131.9-174.4 78.1-22.1 161.3 10.6 203.6 79.8h-46.5l-58.8 111.8 1-111.8h-92.4l-56.5 189.2h57.3l44.1-148.5h2.2l-2.6 148.5h53l83.3-148.5h2.3l-43.3 148.5z"/>
			<path id="Path 4" fill-rule="evenodd" class="s0" d="m1528.2 175.2c-19.3-1-27.9-24.8-13.6-37.9 14.3-13 37.2-2.3 36.4 17.1-0.1 11.5-9.4 20.9-20.9 20.9zm-18.3-18.3c0 7.8 6.3 14 14 14h8.5c7.7 0 14-6.2 14-14v-7c0-7.8-6.3-14-14-14h-8.5c-7.7 0-14 6.2-14 14zm29.7 8.3c-2.8 0.2-5.4-0.7-7.5-2.5-1.7-2-3.2-4.3-4.3-6.8h-3v8.8h-5.9v-24.1h9.4c5.4 0 9.3 2.6 9.3 7.7 0 3-1.7 5.5-4.2 6.8q1.4 2.2 3.3 4.2c1 0.9 2.2 1.7 3.5 2.2zm-11.5-20.8h-3.3v8.1h2.9c3.3 0 4.2-1.7 4.2-4.2 0-2.7-0.7-3.9-3.8-3.9z"/>
		</g>
	</g>
</svg>