<svg version="1.2" xmlns="http://www.w3.org/2000/svg" viewBox="0 0 1530 362" width="1530" height="362">
	<title>Mitsubishi_UFJ_Financial_Group-svg</title>
	<style>
		.s0 { fill: #595a5a } 
		.s1 { fill: #d62427 } 
	</style>
	<g id="g76">
		<g id="g82">
			<path id="path84" class="s0" d="m1428.9 303.8c-73.6 0-123.5-52.1-123.5-122.9v-0.6c0-67.7 51.5-122.9 123.5-122.9 42.5 0 67.7 11.3 93 32.8l-33.4 39.3c-18.7-15-33.4-23.7-61.1-23.7-38.1 0-67.1 33.3-67.1 74.5 0 44 29 76.1 70.8 76.1 19.4 0 33.4-4.4 48.4-14v-31.2h-54.3v-51.2h104.2v105.8c-25.3 20.9-57.4 38-100.5 38zm-268.3-193.7v49.9h105.2v50.6h-105.2v90.1h-49.9v-240.5h184.7v49.9zm-192.2 193.7c-63.3 0-101.4-35.9-101.4-106.3v-136.9h49.9v135.6c0 39.6 20 59.6 52.1 59.6 31.2 0 52.1-19.4 52.1-57.4v-137.8h50v135.6c0 71.7-38.7 107.6-102.7 107.6zm-190.6-3.1v-156.3l-67.1 101.4h-0.6l-67.4-100.7v155.6h-49.9v-240.5h55.8l61.8 100.5 62.7-100.5h53.7v240.5z"/>
		</g>
		<g id="g86">
			<path id="path88" fill-rule="evenodd" class="s1" d="m504.9 180.9c0 99.2-79.6 180.3-178.8 180.3-25.9 0-50.6-5.9-73.7-15.6-21.8 9.7-47.1 15.6-72.3 15.6-99.6 0-179.4-81.1-179.4-180.3 0-100.4 79.5-180.2 179.4-180.2 25.5 0 50.8 5.3 72.3 14.9 23.1-9.6 47.5-14.9 73.7-14.9 99.2 0 178.8 79.8 178.8 180.2zm-89.9-0.6c0-90-72.5-162.8-162.1-162.8-89.6 0-162.1 72.8-162.1 162.8 0 90 72.5 162.8 162.1 162.8 89.6 0 162.1-72.8 162.1-162.8zm-161.8 75.2c-41.1 0-74.4-33.5-74.4-74.9 0-41.4 33.3-74.8 74.4-74.8 41.2 0 74.4 33.4 74.4 74.8 0 41.4-33.2 74.9-74.4 74.9z"/>
		</g>
	</g>
</svg>