<svg version="1.2" xmlns="http://www.w3.org/2000/svg" viewBox="0 0 1582 487" width="1582" height="487">
	<title>green-logo-svg</title>
	<style>
		.s0 { fill: #15181b } 
		.s1 { fill: #4cd7a2 } 
	</style>
	<path id="Layer" class="s0" d="m721.5 336.9v-154.9l-68.6 102.6l-68.1-102v154.3h-23v-186.8h28.3l63.3 98.4l63.3-98.4h28.3v186.8z" />
	<path id="Layer" class="s0" d="m848.6 340c-50 0-78.6-29.7-78.6-81.5v-108.4h23.6v107c0 38.9 20.9 62.2 55.6 62.2c34.7 0 55.4-22.8 55.4-60.8v-108.4h23.6v106.6c-0.1 52.9-29.1 83.3-79.6 83.3z" />
	<path id="Layer" class="s0" d="m953.1 336.9v-186.8h23.5v166.3h104v20.5z" />
	<path id="Layer" class="s0" d="m1105.6 336.9v-186.8h23.6v166.3h104v20.5z" />
	<path id="Layer" class="s0" d="m1560.6 336.9l-117.6-151.7v151.7h-22.9v-186.8h23.9l114.3 147.7v-147.7h23v186.8z" />
	<path id="Layer" class="s1" d="m1258.2 336.9v-186.8h136.9v19.9h-113.3v62.7h87.2v19.9h-87.2v64.4h113.3v19.9z" />
	<path id="Layer" class="s1" d="m1290.3 128.5v-9.6c0-4.5 3.7-8.2 8.2-8.2h62.3c4.5 0 8.2 3.7 8.2 8.2v9.6z" />
	<path id="Layer" class="s1" d="m317.3 338.1l-145.4-145.5l-139 139.2l-19.4-19.4l158.4-158.6l164.8 164.9z" />
	<path id="Layer" class="s1" d="m453.9 331.8l-139.1-139.2l-61.8 61.7l-19.3-19.3l81.1-81.2l158.5 158.6z" />
	<path id="Layer" class="s1" d="m444.6 322.1c9.5-24.4 14.8-50.8 14.8-78.6c0-119.1-96.9-216.1-216-216.1c-119.1 0-216 97-215.9 216c0 27.7 5.2 54.2 14.8 78.6l-21 21c-13.7-30.4-21.3-64.1-21.3-99.5c0-134.3 109.2-243.5 243.4-243.5c134.2 0 243.4 109.2 243.4 243.5c0 35.4-7.7 69.1-21.3 99.5z" />
	<path id="Layer" class="s1" d="m418.9 411.9c-44.3 46.3-106.6 75.1-175.5 75.1c-68.8 0-131.2-28.8-175.5-75.1l19.3-19.3c39.4 41.3 94.9 67 156.2 67c61.4 0 116.8-25.7 156.2-67z" />
</svg>