<svg version="1.2" xmlns="http://www.w3.org/2000/svg" viewBox="0 0 1528 411" width="1528" height="411">
	<title>logo (29)-svg</title>
	<style>
		.s0 { fill: #ffffff } 
		.s1 { fill: #9b9fa2 } 
	</style>
	<path id="Layer" fill-rule="evenodd" class="s0" d="m3.2 0h62.2l47.5 86.6 47.4-86.6h62.2v234.7h-59.6v-132.1l-50 87.2h-1.3l-49.4-86.5v131.4h-59zm263.4 142.4v-141.7h60.9v142.3c0 28.2 13.5 41.7 34.7 41.7 21.1 0 34.6-12.8 34.6-40.4v-143.6h60.9v141c0 68-38.5 98.2-96.2 98.2-57-0.7-94.9-30.8-94.9-97.5zm235.4-142.4h60.2v180.9h92.3v53.8h-152.5zm206.4 54.6h-57.7v-54.6h176.3v54.6h-57.7v180.2h-60.9zm155.7-54.5h60.3v234.7h-60.3zm107.8 0h84c55.1 0 91.6 28.8 91.6 81.4v1.3c0 56.5-41 83.4-92.3 84h-23.1v68h-60.2zm81.4 117.4c21.2 0 34-12.2 34-32.1v-1.3c0-21.1-12.2-32.7-34-32.7h-20.5v66.1zm128.8-117.4h60.3v180.9h92.3v53.8h-152.6zm209 146.9l-75.7-146.9h66.7l39.1 85.3 39.8-85.3h66l-75.7 146.3v88.5h-60.2z"/>
	<path id="Layer" class="s1" d="m56.4 357.8v-28.8h54.5v64.1l-1.3 0.7c-14.7 11.5-30.1 16.6-47.4 16.6-37.2 0-62.2-26.9-62.2-68v-1.9c0-39.7 26.3-68.6 62.8-68.6 18 0 31.4 5.1 44.3 16l1.9 2-19.3 25-1.9-2c-7-6.4-13.4-10.2-25-10.2-17.3 0-29.5 16-29.5 37.8v1.3c0 23.1 12.2 38.5 30.8 38.5 7.1 0 12.2-1.3 16.7-3.9v-18.6h-23.1z"/>
	<path id="Layer" fill-rule="evenodd" class="s1" d="m250.6 359.1l28.3 49.4h-37.2l-23.7-42.3h-12.2v42.3h-32.1v-134.7h51.3c16 0 28.9 4.5 37.2 12.9 7.7 7.7 11.5 18.6 11.5 32v0.7c0 17.9-7.7 32-23.1 39.7zm-43.5-55.8v33.4h16.6c11.6 0 18-6.4 18-16.7 0-10.9-6.4-16.7-18.6-16.7z"/>
	<path id="Layer" fill-rule="evenodd" class="s1" d="m451.3 339.2v2c0 39.7-25.6 68.6-60.9 68.6-35.9 0-60.9-27.6-60.9-68v-1.9c0-40.4 25-68.6 60.9-68.6 35.9 0 60.9 28.2 60.9 67.9zm-88.5 1.3v1.3c0 23.1 11.6 38.5 28.2 38.5 16.7 0 27.6-15.4 27.6-38.5v-1.3c0-23.1-11.5-38.5-28.2-38.5-17.3 0-28.2 15.4-28.2 38.5z"/>
	<path id="Layer" class="s1" d="m580.8 355.9v-81.4h32.1v80.8c0 35.3-18.6 55.1-51.9 55.1-32.7 0-51.3-20.5-51.3-55.1v-82.1h32v82.1c0 10.9 3.9 24.4 19.9 24.4 16.7 0 19.9-12.9 19.9-23.8z"/>
	<path id="Layer" fill-rule="evenodd" class="s1" d="m771.9 320.7v0.6c0 28.9-19.3 47.5-50.7 48.1h-12.2v39.1h-32v-134.7h45.5c30.8 0 50 18 49.4 46.9zm-62.9 18.6h12.2c11.5 0 18.6-7.1 18.6-18 0-12.2-6.4-18-19.2-18h-11.6z"/>
</svg>