<svg version="1.2" xmlns="http://www.w3.org/2000/svg" viewBox="0 0 1557 325" width="1557" height="325">
	<title>Multiplan-svg</title>
	<style>
		.s0 { fill: #ffffff } 
	</style>
	<g id="Layer">
		<path id="Layer" fill-rule="evenodd" class="s0" d="m127.9 136.6h-34.5c-0.8 0.1-1.6 0.1-2.5 0.1-29.7 0-53.9-23.5-53.9-52.2 0-28.9 24.2-52.3 53.9-52.3 29.8 0 53.9 23.4 53.9 52.3 0 0.8 0 1.7-0.1 2.5v115.9c0.1 0.8 0.1 1.7 0.1 2.5 0 28.8-24.1 52.3-53.9 52.3-29.7 0-53.9-23.5-53.9-52.3 0-28.8 24.2-52.2 53.9-52.2 0.9 0 1.7 0 2.5 0.1h34.5zm-74-52.1c0 19.7 16.6 35.7 37 35.7h37v-34.3q0-0.7 0-1.4c0-19.9-16.6-35.9-37-35.9-20.4 0-37 16-37 35.9zm0 120.9c0 19.8 16.6 35.8 37 35.8 20.5 0 37-16 37-35.8 0-0.5 0-1 0-1.5v-34.3h-37c-20.4 0-37 16-37 35.8zm0.3-60.5c-21.2 12.1-35.3 34.5-35.3 60 0 38.5 31.9 69.7 71.3 69.7 20.9 0 39.8-8.8 52.8-22.9 0 19.8-22.2 38.1-52.8 38.1-49.4 0-89.2-36.8-89.2-84.9 0-23.2 9.4-44.4 24.7-60-15.3-15.6-24.7-36.8-24.7-60 0-48 39.8-84.9 89.2-84.9 30.6 0 52.8 18.3 52.8 38.1-13.1-14-31.9-22.9-52.8-22.9-39.4 0-71.4 31.3-71.4 69.7 0 25.5 14.2 47.9 35.3 60q0 0 0.1 0zm-28.5 0q0 0 0 0 0 0 0 0zm154.6 8.4h34.4c0.9-0.1 1.6-0.2 2.5-0.2 29.8 0 54 23.5 54 52.3 0 28.8-24.2 52.3-54 52.3-29.7 0-53.8-23.5-53.8-52.3 0-0.8 0-1.7 0-2.5v-115.9c0-0.8 0-1.7 0-2.5 0-28.9 24.1-52.3 53.8-52.3 29.8 0 54 23.4 54 52.3 0 28.7-24.2 52.2-54 52.2-0.9 0-1.6-0.1-2.5-0.1h-34.4zm74 52.1c0-19.8-16.6-35.8-37.1-35.8h-36.9v34.3q-0.1 0.8 0 1.5c0 19.8 16.5 35.9 36.9 35.9 20.5 0 37.1-16.1 37.1-35.9zm0-120.9c0-19.9-16.6-35.9-37.1-35.9-20.4 0-37 16-37 35.9 0 0.4 0 0.9 0.1 1.4v34.3h36.9c20.5 0 37.1-16 37.1-35.7zm28.2 60.4c15.3 15.7 24.7 36.8 24.7 60 0 48.1-39.9 84.9-89.3 84.9-30.5 0-52.7-18.3-52.7-38.1 13 14.1 31.8 22.9 52.7 22.9 39.4 0 71.4-31.2 71.4-69.7 0-25.5-14.2-47.9-35.3-60 21.1-12.1 35.3-34.5 35.3-60 0-38.4-32-69.6-71.4-69.6-20.9 0-39.7 8.8-52.7 22.8 0-19.8 22.2-38.1 52.7-38.1 49.5 0 89.3 36.9 89.3 84.9 0 23.2-9.4 44.4-24.7 60q0 0 0 0z"/>
	</g>
	<path id="Layer" class="s0" d="m733.8 221.3c0 12.6 0.9 29 4.2 36.9l-18.5 11.6-9-7.3-4-0.7c-7.9 0.8-20.2 9.5-47.5 9.5-24.2 0-51.3-17.4-51.3-40.1v-128.5h34v122.9c0 5.1 1.4 23.7 26.5 23.7 14.4 0 24.5-1.2 32.3-9.1v-137.5h33.3c0 0 0 118.6 0 118.6zm44.9-146.3c0-8.2-4-21.2-4-21.2l38.1-7.4v219.8h-34.1zm435.2 0c0-8.2-4.1-21.3-4.1-21.3l38.1-7.3v219.8h-34c0 0 0-191.2 0-191.2zm-315-17.9v47.7h37.8l-1.3 19.5h-36.5v95.1c0 18 2 32.6 16.7 32.6 7.2 0 17.4-2.5 21.3-3.7l-1.6 13.6c-5.1 3.1-21.5 9.3-31.7 9.3-30.1 0-39.5-24.1-39.5-41.2v-105.7h-22.3v-19.5h6.4c11.8 0 19.3-5.5 33.6-43.1 1.6-4 17.1-4.6 17.1-4.6zm91.7 28c-12.1 0-20.2-9.6-20.2-21 0-11.5 8.5-20.7 21-20.7 12.5 0 20.6 9.2 20.6 20.7 0 11.4-8.1 21-21 21 0 0-0.3 0-0.4 0zm-15.9 181.1v-124.7c0-13.4-13.5-18.3-13.5-18.3l3.2-20.5 45.9-2.1v165.6c0 0-35.6 0-35.6 0zm116.9-19.4c3.4 1 7.6 2 11.2 2 27.9 0 44.1-26.4 44.1-65.1 0-33.7-15-62.6-42.9-62.6-8.6 0-16.7 2.1-23.7 8v195.3h-34.6v-156c0-12.6-0.1-24.1-0.4-38-0.2-8.7-0.4-11.7-3.1-15.5l19.6-12.2 10.4 7.5c12.2-11.1 27.8-11.2 51.2-11.2 35.4 0 60.7 34.5 60.7 78.6 0 52.2-32.1 90.8-65.9 90.8-10.1 0-19.1-2-26.6-5.8 0 0 0-15.8 0-15.8zm431.1-101.2c0-7.4-0.8-26.1-28.7-26.1-8.6 0-21.7 5.1-28.7 11v135.7h-34.6v-97.8c0-12.6-0.1-24.1-0.4-38-0.2-8.7-0.4-11.7-3.1-15.5l19.6-12.2 13.1 8.8c9.6-5 23-13 40.2-13 35.4 0 57 17.3 57 52v115.7h-34.4c0 0 0-120.6 0-120.6zm-159.1 91.8v-79.1c0-13.5 0.5-38.1-31.2-37.8-14.7 0-25.2 3-36 10.8l-9.1-20c12.8-8.4 28.8-12.8 48.3-12.8 47.6 0 57.5 27.3 59.1 44.9v83.2c0 17.1 1.4 25.2 3.8 30.8l-18.1 10.4-7.2-9.6c-15.6 7.9-22.6 11.3-44.6 11.3-31.4 0-54.9-23.3-54.9-47 0-37 31.2-53.4 79.3-50.2v17.1c-21.5 0.6-42.2 8.6-42.2 31.2 0 20.3 15 25.1 24.8 25.1 15.6 0 22.4-2.6 28.1-8.3zm-985.1 28.8v-204.5h49.6l48 142.4 49.9-142.4h45v204.5h-35.4v-165.1l-58.4 165.1h-22.5l-55.2-165.1v165.1z"/>
</svg>