<svg version="1.2" baseProfile="tiny-ps" xmlns="http://www.w3.org/2000/svg" viewBox="0 0 1715 399" width="1715" height="399">
	<title>munichre_logo-svg</title>
	<style>
		tspan { white-space:pre }
		.shp0 { fill: #ffffff } 
	</style>
	<g id="Layer">
		<path id="Layer" fill-rule="evenodd" class="shp0" d="M153.56 238.72L152.82 238.72C152.82 238.72 147.23 256.88 146.67 258.39L106.81 375.58L76.92 375.58L38.55 263.49C38.52 263.48 31.09 238.97 31.09 238.97L30.34 238.97L30.34 395.75L0 395.75L0 204.69L50.25 204.69L84.99 304.33C87.68 312.35 93.07 330.58 93.07 330.58L93.78 330.58C93.78 330.58 98.96 312.46 101.67 304.3L136.37 204.69L186.42 204.69L186.42 395.75L153.56 395.75L153.56 238.72ZM302.13 374.01L301.64 374.01C295.22 387.25 281.84 399 260.55 399C231.07 399 216.22 384.75 216.22 353.54L216.22 263.13L248.91 263.13L248.91 342.55C248.91 352.03 249.38 361.03 253.36 366.52C257.07 372.27 263.25 374.78 271.44 374.78C291.26 374.78 300.91 361.03 300.91 335.56L300.91 263.13L333.85 263.13L333.85 396.01L302.13 396.01L302.13 374.01ZM451.44 316.08C451.44 306.58 451.2 297.86 447.24 292.1C443.26 286.6 436.83 284.11 428.91 284.11C408.85 284.11 398.69 297.35 398.69 317.58L398.69 395.75L366 395.75L366 262.88L397.47 262.88L397.47 285.11L397.96 285.11C404.64 271.63 418.76 259.87 440.55 259.87C470.02 259.87 484.39 274.37 484.39 306.58L484.39 395.75L451.44 395.75L451.44 316.08ZM513.67 262.88L546.6 262.88L546.6 395.75L513.67 395.75L513.67 262.88ZM513.41 204.69L546.85 204.69L546.85 236.66L513.41 236.66L513.41 204.69ZM604.96 328.83C604.96 354.04 611.15 376.03 634.92 376.03C655.23 376.03 661.42 360.79 661.93 349.04L693.61 349.04C691.63 382.02 667.1 399 634.66 399C594.07 399 571.28 372.52 571.28 329.56C571.28 287.62 595.55 259.63 635.18 259.63C667.1 259.63 691.4 274.62 692.87 307.07L660.68 307.07C659.45 293.34 651.76 281.85 635.18 281.85C613.61 281.85 604.96 302.83 604.96 328.83ZM799.69 316.08C799.69 306.58 799.44 297.86 795.48 292.1C791.5 286.6 785.06 284.11 777.14 284.11C757.07 284.11 746.92 297.35 746.92 317.58L746.92 395.75L714.25 395.75L714.25 204.7L746.92 204.7L746.92 284.35L747.42 284.35C753.37 271.87 767.24 259.87 788.78 259.87C818.25 259.87 832.62 274.37 832.62 306.58L832.62 395.75L799.69 395.75L799.69 316.08ZM1086.62 204.7L1209.96 204.7L1209.96 232L1120.56 232L1120.56 286.56L1204.25 286.56L1204.25 313.86L1120.56 313.86L1120.56 368.45L1211.94 368.45L1211.94 395.75L1086.62 395.75L1086.62 204.7ZM1007.67 357.55L989.24 319.32L955.04 319.32L955.04 395.75L921.12 395.75L921.12 204.69L993.19 204.69C999.61 204.69 1006.17 205.24 1012.46 206.5C1018.76 207.78 1024.88 209.67 1030.58 212.41C1039.03 216.55 1046.27 222.32 1051.39 230.05C1056.53 237.79 1059.55 247.51 1059.55 259.61C1059.55 276.12 1054.43 287.88 1047.08 296.18C1039.75 304.53 1030.18 309.48 1021.41 312.3L1042.48 354.02L1063.51 395.75L1026.08 395.75L1007.67 357.55ZM989.24 291.6C998.98 291.6 1007.87 289.65 1014.26 284.7C1020.69 279.75 1024.64 271.74 1024.64 259.61C1024.64 248.02 1020.36 240.36 1013.92 235.57C1007.42 230.79 998.76 228.9 989.98 228.9L955.04 228.9L955.04 291.6L989.24 291.6ZM1715 245.62L1715 272.92L1396.98 272.92L1369.93 245.62L1715 245.62ZM1715 0L1715 27.28L1491.72 27.28L1518.77 0L1715 0ZM1715 81.87L1715 109.16L1410.53 109.16L1437.6 81.87L1715 81.87ZM1715 163.75L1715 191.03L1329.33 191.03L1356.4 163.75L1715 163.75ZM1715 327.53L1715 354.82L1478.19 354.82L1451.13 327.53L1715 327.53ZM1586.45 68.22L1322.55 68.22L1322.55 40.92L1559.4 40.92L1586.45 68.22ZM1708.24 204.7L1681.18 232L1322.55 232L1322.55 204.7L1708.24 204.7ZM1627.06 286.56L1599.99 313.86L1322.55 313.86L1322.55 286.56L1627.06 286.56ZM1545.84 368.44L1518.77 395.75L1322.55 395.75L1322.55 368.44L1545.84 368.44ZM1667.64 150.11L1322.55 150.11L1322.55 122.8L1640.58 122.8L1667.64 150.11Z" />
	</g>
</svg>