<svg version="1.2" xmlns="http://www.w3.org/2000/svg" viewBox="0 0 1532 411" width="1532" height="411">
	<title>AnnualReport_Myers-2021_WEB-POSTING-1-pdf-svg</title>
	<defs>
		<clipPath clipPathUnits="userSpaceOnUse" id="cp1">
			<path d="m-6154.06-2019.16h8622.12v10972.5h-8622.12z"/>
		</clipPath>
	</defs>
	<style>
		.s0 { fill: #a0d158 } 
		.s1 { fill: #ffffff } 
	</style>
	<g id="Clip-Path: Page 1" clip-path="url(#cp1)">
		<g id="Page 1">
			<path id="Path 4" class="s0" d="m422.3 344.5l-43.1 65.3h-377.6v-65.3z"/>
			<path id="Path 6" class="s1" d="m1526.8 34.9v-9.8c0-7.8 0.7-12.4 0.7-15l-9.8 24.8h-3.9l-9.2-24.8c0 2.6 0 7.2 0 15.7v9.1h-3.9v-28.1h7.2l7.8 21.6h0.7l8.5-21.6h6.5v28.1zm-30.1-28.1v4h-9.8v24.1h-5.2v-24.1h-9.8v-4zm-1495.1 71.2c0-23.5 0-47-0.7-70.5h73.8c1.3 8.5 2.6 22.9 2.6 33.3 14.4-20.2 37.9-40.5 79.7-40.5 43.1 0 66 20.9 75.8 43.8 15.7-21.6 39.8-43.8 88.2-43.8 50.9 0 92.7 31.4 92.7 107.1v173.8h-75.7v-167.9c0-24.8-8.5-52.3-43.2-52.3-32.6 0-48.3 21.6-48.3 66v154.2h-76.4v-166.6c0-28.1-8.5-52.9-42.5-52.9-33.9 0-49.6 22.9-49.6 67.9v151.6h-76.4zm515.3-70.6c37.3 107.1 60.1 184.2 65.4 207.7h0.6c7.2-28.1 25.5-94 61.4-207.7h77.7l-92.7 264.5c-34.6 96-62.1 137.8-137.2 137.8h-66l43.1-64.6c55.6 0 62.8-24.8 73.2-54.2l-109.1-283.5z"/>
			<path id="Path 7" fill-rule="evenodd" class="s1" d="m995.8 161.6h-196c0.7 35.9 21.6 67.3 62.1 67.3 33.3 0 45-12.4 53.5-29.4h77.8c-12.5 39.2-47.1 88.8-133.3 88.8-98 0-137.8-70.5-137.8-141.7 0-82.3 47.7-146.3 139.8-146.3 98.6 0 134.5 70.5 134.5 139.8 0 7.8 0 13.7-0.6 21.5zm-134.6-105.8c-41.1 0-56.8 25.5-60.1 58.2h117.6c-1.3-28.8-14.4-58.2-57.5-58.2zm179.6 26.1c0-26.7 0-51.6-0.6-74.4h75.8c0.6 8.5 1.9 28.1 1.9 43.8 10.5-30.1 37.9-61.4 112.4-46.4l-25.5 66.6c-52.3-8.5-86.9 20.9-86.9 96.7v113h-77.1z"/>
			<path id="Path 8" fill-rule="evenodd" class="s1" d="m1302.1 198.9c6.5 21.5 25.5 34.6 58.2 34.6 32.6 0 43.7-11.1 43.7-27.5 0-17.6-11.7-24.8-58.8-33.9-94.7-19-109.1-50.3-109.1-86.9 0-40.5 29.4-84.9 116.3-84.9 87.5 0 117.6 45.7 120.9 83.6h-74.5c-3.3-11.8-11.8-30-49.7-30-30 0-37.2 12.4-37.2 24.1 0 13.7 8.5 20.9 56.8 30.1 98.7 19.6 112.4 52.9 112.4 92.1 0 47.6-35.9 88.1-124.8 88.1-79.7 0-122.8-36.5-130-89.4zm-614.6 145h20.2v65.3h-20.2zm52.9 65.3v-65.3h24.2c9.1 17.6 17 33.3 20.2 41.8h0.7c-0.7-6.6-0.7-18.3-0.7-28.8v-13h18.3v65.3h-22.9c-5.2-10.5-18.2-35.9-21.5-44.4 0 6.5 0.6 17.6 0.6 30v14.4zm95.4-65.3h30.1c21.5 0 33.9 13.7 33.9 32 0 19.6-13 33.3-34.6 33.3h-29.4zm20.3 50.9h7.8c9.8 0 14.4-6.5 14.4-18.9 0-10.5-4-17.7-14.4-17.7h-7.8zm92.7-50.9v39.2c0 9.8 4.6 13.1 10.5 13.1 6.5 0 10.4-4 10.4-13.1v-39.2h20.3v37.9c0 20.9-11.8 28.7-30.7 28.7-19 0-30.7-7.8-30.7-28.7v-37.9zm88.8 45.7c1.3 5.2 4.6 7.9 11.8 7.9 5.8 0 8.4-2 8.4-5.9 0-3.9-2.6-5.9-13-7.9-21.6-4.5-24.8-12.4-24.8-20.9 0-11.7 9.1-20.2 27.4-20.2 20.2 0 28.1 9.8 28.7 19.6h-18.9c-0.7-3.3-2.6-6.5-9.8-6.5-4.6 0-7.2 1.9-7.2 5.2 0 3.2 2.6 4.6 12.4 6.5 21.6 5.2 26.1 12.4 26.1 22.2 0 12.4-9.7 20.9-30 20.9-19.6 0-29.4-8.5-30.7-20.9zm83.6-31.3h-19.6v-14.4h59.5v14.4h-19.6v50.9h-20.3zm86.2 26.1v24.9h-19.6v-65.4h34.7c16.3 0 23.5 7.9 23.5 18.3 0 8.5-4.6 13.1-9.8 15.1 3.9 1.9 8.5 5.8 8.5 16.9v2.6c0 4 0 9.2 1.3 12.5h-19.6c-1.3-3.3-1.3-7.9-1.3-14.4v-2c0-5.9-2-8.5-9.8-8.5zm0-13h9.8c5.8 0 8.5-2.6 8.5-7.2 0-4.6-2.7-6.5-8.5-6.5h-9.8zm69.2-27.5h20.3v65.3h-20.3zm104.5 38.6h-31.3v11.7h35.2l-2.6 14.4h-52.2v-64.7h52.2v14.4h-32.6v9.8h31.3zm48.4 6.5c1.3 5.3 4.5 7.9 11.7 7.9 5.9 0 8.5-2 8.5-5.9 0-3.9-2.6-5.2-13.1-7.8-20.9-4.6-24.8-11.8-24.8-20.9 0-11.1 9.2-20.3 27.5-20.3 20.2 0 28 9.8 29.3 20.3h-19.5c-0.7-3.3-2.7-7.2-9.8-7.2-4.6 0-7.2 1.9-7.2 5.2 0 3.3 2.6 4.6 12.4 7.2 21.5 4.6 26.1 11.7 26.1 21.5 0 12.4-9.8 20.9-30 20.9-19.6 0-29.4-8.5-30.7-20.9z"/>
		</g>
	</g>
</svg>