<svg version="1.2" xmlns="http://www.w3.org/2000/svg" viewBox="0 0 1511 1381" width="1511" height="1381">
	<title>myriad-genetics-logo-horizontal-svg</title>
	<style>
		.s0 { fill: #0071ce } 
		.s1 { fill: #3dae2b } 
		.s2 { fill: #ff9015 } 
		.s3 { fill: #003595 } 
	</style>
	<g id="myriad-logo-h">
		<g id="Layer_1-2">
			<path id="Layer" class="s0" d="m1255.3 117.4c6.3-24.7 2.3-50.9-11.1-72.6-13.4-21.7-35-37-59.9-42.6-24.9-5.5-51-0.7-72.3 13.3-21.3 14-36 36.1-40.8 61.1l-291.4 1304h194.9z"/>
			<path id="Layer" class="s1" d="m188.6 99.1c0-25-9.9-48.9-27.6-66.5-17.7-17.7-41.7-27.6-66.7-27.6-25 0-49 9.9-66.7 27.6-17.7 17.6-27.6 41.5-27.6 66.5v1281.5h188.6z"/>
			<path id="Layer" class="s2" d="m255.5 117.4c-6.3-24.7-2.4-50.9 11-72.6 13.4-21.7 35-37 59.9-42.6 24.9-5.5 51-0.7 72.3 13.3 21.3 14 36 36.1 40.8 61.1l291.4 1304h-194.8z"/>
			<path id="Layer" class="s3" d="m1322.1 99.1c0-25 10-48.9 27.6-66.5 17.7-17.7 41.7-27.6 66.7-27.6 25 0 49 9.9 66.7 27.6 17.7 17.6 27.6 41.5 27.6 66.5v1281.5h-188.6z"/>
		</g>
	</g>
</svg>