<svg version="1.2" baseProfile="tiny-ps" xmlns="http://www.w3.org/2000/svg" viewBox="0 0 1588 411" width="1588" height="411">
	<title>Mynaric-H1-2021-Report-full-secure-1-pdf-svg</title>
	<defs>
		<clipPath clipPathUnits="userSpaceOnUse" id="cp1">
			<path d="M-4524.47 -8480.95L1950.83 -8480.95L1950.83 682.64L-4524.47 682.64L-4524.47 -8480.95Z" />
		</clipPath>
	</defs>
	<style>
		tspan { white-space:pre }
		.shp0 { fill: #ff6152 } 
	</style>
	<g id="Clip-Path: Page 1" clip-path="url(#cp1)">
		<g id="Page 1">
			<path id="Path 3" class="shp0" d="M354.63 189.63L354.63 315.33L295.96 315.33L295.96 208.62C295.96 177.01 279.92 159.59 253.34 159.59C228.05 159.59 207.07 176.08 207.07 209.06L207.07 315.33L148.19 315.33L148.19 208.62C148.19 177.01 132.37 159.59 105.51 159.59C80.23 159.59 59.24 176.08 59.24 209.06L59.24 315.33L0.36 315.33L0.36 110.13L43.2 110.13L57.66 135.87C73.27 112.63 97.19 104.25 121.98 104.25C153.57 104.25 179.5 118.51 194.18 141.75C211.09 113.99 239.74 104.25 268.45 104.25C319.88 104.25 354.63 138.81 354.63 189.63ZM545.08 110.13L609.61 110.13L447.49 410.83L383.11 410.83L454.39 282.46L360.06 110.13L426.88 110.13L486.9 222.61L545.08 110.13ZM835.57 189.63L835.57 315.33L776.69 315.33L776.69 208.62C776.69 177.01 760.87 159.59 734.06 159.59C708.78 159.59 687.8 176.08 687.8 209.06L687.8 315.33L628.91 315.33L628.91 110.13L686.22 110.13L686.22 135.87C701.77 112.63 725.69 104.25 750.54 104.25C800.18 104.25 835.57 138.81 835.57 189.63ZM1273.4 109.04C1275.47 109.75 1277.42 110.46 1279.38 111.27L1251.38 163.24C1244.1 161.5 1236.16 160.52 1228.98 160.52C1201.69 160.52 1182.93 177.22 1182.93 209.71L1182.93 315.33L1180.59 315.33L1152.86 315.33L1124.05 315.33L1124.05 110.13L1152.86 110.13L1179.02 110.13L1181.14 110.13L1181.14 132.93C1186.25 126.07 1192.12 120.63 1198.53 116.39C1200.06 115.35 1201.69 114.43 1203.32 113.56C1203.43 113.45 1203.59 113.39 1203.7 113.34C1211.26 109.2 1219.68 106.54 1229.04 105.29C1229.31 105.23 1229.58 105.18 1229.85 105.18C1231.48 104.96 1233.17 104.74 1234.85 104.63C1237.3 104.42 1239.75 104.31 1242.19 104.31C1242.41 104.31 1242.57 104.25 1242.74 104.25C1242.79 104.25 1242.9 104.25 1242.95 104.25C1243.06 104.25 1243.17 104.25 1243.33 104.25C1244.91 104.25 1246.49 104.42 1248.06 104.47C1258.18 104.91 1266.5 106.54 1273.4 108.99L1273.4 109.04Z" />
			<path id="Path 4" fill-rule="evenodd" class="shp0" d="M1079.96 110.4L1079.96 315.33L1022.71 315.33L1022.71 296.5C1009.44 310.87 990.63 320.61 964.8 320.61C908.37 320.61 865.69 274.3 865.69 212.76C865.69 151.21 908.37 104.91 964.8 104.91C990.68 104.91 1009.33 114.65 1022.71 129.23L1022.71 110.4L1079.96 110.4ZM1024.34 212.76C1024.34 181.52 1004.06 159.7 974.92 159.7C945.83 159.7 925.5 181.52 925.5 212.76C925.5 243.99 945.83 265.81 974.92 265.81C1004.06 265.81 1024.34 243.99 1024.34 212.76ZM1302.54 110.13L1361.42 110.13L1361.42 315.33L1302.54 315.33L1302.54 110.13ZM1369.31 38.57C1369.31 59.8 1352.83 76.07 1331.63 76.07C1310.43 76.07 1294.17 59.8 1294.17 38.57C1294.17 17.35 1310.43 0.59 1331.63 0.59C1352.83 0.59 1369.31 17.35 1369.31 38.57ZM1587.76 280.51L1586.78 281.76C1567.53 306.52 1538.45 320.12 1504.9 320.12C1441.02 320.12 1396.38 275.99 1396.38 212.76C1396.38 149.53 1441.02 105.34 1504.9 105.34C1538.66 105.34 1567.7 119.05 1586.56 143.98L1587.54 145.23L1546.17 179.78L1545.08 178.64C1532.41 165.09 1519.58 159.05 1503.43 159.05C1475.27 159.05 1454.77 181.63 1454.77 212.76C1454.77 243.83 1475.16 266.41 1503.22 266.41C1519.2 266.41 1533.88 259.56 1545.73 246.66L1546.82 245.46L1548.02 246.5L1587.76 280.51Z" />
		</g>
	</g>
</svg>