<svg version="1.2" xmlns="http://www.w3.org/2000/svg" viewBox="0 0 1503 1174" width="1503" height="1174">
	<title>mytiii-svg</title>
	<defs>
		<linearGradient id="g1" x1="1239.6" y1="1172.9" x2="1239.6" y2="-92.2" gradientUnits="userSpaceOnUse">
			<stop offset=".1" stop-color="#d1d1d1"/>
			<stop offset=".2" stop-color="#cbcbcb"/>
			<stop offset=".5" stop-color="#a2a2a2"/>
			<stop offset=".7" stop-color="#898989"/>
			<stop offset=".9" stop-color="#808080"/>
		</linearGradient>
		<linearGradient id="g2" x1="282.9" y1="1245.3" x2="282.9" y2="48" gradientUnits="userSpaceOnUse">
			<stop offset=".2" stop-color="#d0d0d0"/>
			<stop offset=".5" stop-color="#b6b6b6"/>
			<stop offset=".9" stop-color="#7f7f7f"/>
		</linearGradient>
		<linearGradient id="g3" x1="946.1" y1="-57.9" x2="946.1" y2="1240.2" gradientUnits="userSpaceOnUse">
			<stop offset=".1" stop-color="#ffffff"/>
			<stop offset=".1" stop-color="#f2f2f2"/>
			<stop offset=".1" stop-color="#cfcfcf"/>
			<stop offset=".2" stop-color="#b2b2b2"/>
			<stop offset=".3" stop-color="#9b9b9b"/>
			<stop offset=".3" stop-color="#8b8b8b"/>
			<stop offset=".4" stop-color="#828282"/>
			<stop offset=".5" stop-color="#7f7f7f"/>
			<stop offset=".6" stop-color="#848484"/>
			<stop offset=".7" stop-color="#949494"/>
			<stop offset=".9" stop-color="#adadad"/>
			<stop offset="1" stop-color="#d0d0d0"/>
			<stop offset="1" stop-color="#d1d1d1"/>
		</linearGradient>
		<linearGradient id="g4" x1="578" y1="-18.4" x2="578" y2="1210.2" gradientUnits="userSpaceOnUse">
			<stop offset="0" stop-color="#8c8c8c"/>
			<stop offset=".2" stop-color="#e3e3e3"/>
			<stop offset=".5" stop-color="#aaaaaa"/>
			<stop offset=".7" stop-color="#a7a7a7"/>
			<stop offset=".8" stop-color="#9d9d9d"/>
			<stop offset="1" stop-color="#8d8d8d"/>
			<stop offset="1" stop-color="#888888"/>
		</linearGradient>
	</defs>
	<style>
		.s0 { fill: url(#g1) } 
		.s1 { fill: url(#g2) } 
		.s2 { fill: url(#g3) } 
		.s3 { fill: url(#g4) } 
	</style>
	<path id="Layer" class="s0" d="m1312.5 17.2c0 0 5.6 0.2 8.1 13.3 2.6 14.6 3.4 31.9 8.7 86.3 12.4 127.5 83.5 580.7 89.6 615.7 4.6 27.2 36 254.5 56.8 362.8 6.1 31.1 23.4 52.5 26.8 56.1l-320.9 3.2c0 0-22.1 2.2-31.5-52.2-1.7-9.2-3.2-19.9-4.9-32.8-10.7-88.2-125.3-811.2-135-885.1-6.1-45.6-16-112.7-22.8-151-5.4-31.4-10.7-32.6-10.7-32.6z"/>
	<path id="Layer" class="s1" d="m565 6.5c0 0-5.8 0-8.7 9.2-3.9 13.4-5.4 40.6-11.7 73.1-14.1 72.9-41.5 207.5-93 483.9-48.8 261.5-75.3 406.3-89.4 486.2-16.2 91.8-34.9 98.1-34.9 98.1l-326.4-4.6c0 0 25.2-39.3 35.9-98.3 29.2-161.3 85.3-470.3 97.6-534.6 16.8-88.2 58.1-332.8 62.2-362.9 13.4-98.1 19.9-123.6 25.5-131.2 2.4-3.1 5.8-4.1 7.3-4.3"/>
	<path id="Layer" class="s2" d="m1312.5 17.2c0 0-10.9-1.5-15.5 14.3-8.5 29.9-117.8 382.6-221.7 729.4-102 340.8-103.7 413.1-149.9 411.9-22.8-0.5-345.8-1.7-345.8-1.7 0 0 5.6 0 15.3-11.4 11.4-13.4 27.4-54.2 40.3-84.5 31.8-76 95.7-270.3 153.3-478.3 52.2-187.9 127.5-432.5 145.7-497.9 9.7-34.7 15.5-72.1 23.5-88.9 5.1-10.6 19-9.9 19-9.9z"/>
	<path id="Layer" class="s3" d="m565 6.5c5.6 0 10.7 0.5 18.2 12.6 17.8 28.9 40.6 122 116.6 402 57.3 211.1 138.9 603.3 162.5 670.8 18.7 53.2 35.2 64.2 48.3 74.6 7.8 6.1 16 6.6 16 6.6l-348.2-2.2c-58.5 0-95.9-233.9-128.5-373.6-27.7-119.5-118-468-162.5-637.5-22.1-83.6-35.7-119.1-46.3-132.4-4.9-6.3-11.7-6.1-11.7-6.1 0 0 330.8-14.8 335.6-14.8z"/>
</svg>