<svg version="1.2" xmlns="http://www.w3.org/2000/svg" viewBox="0 0 1508 375" width="1508" height="375">
	<title>Nagarro green logo with title_opt-svg</title>
	<defs>
		<clipPath clipPathUnits="userSpaceOnUse" id="cp1">
			<path d="m0.48 1h1569.76v376h-1569.76z"/>
		</clipPath>
	</defs>
	<style>
		.s0 { fill: #47d7ac } 
		.s1 { fill: #ffffff } 
	</style>
	<g id="Clip-Path" clip-path="url(#cp1)">
		<g id="Layer">
			<path id="Layer" fill-rule="evenodd" class="s0" d="m346.8 374.9c-48 0-109.1-31-162.4-82.9-2.4 6.7-5.3 13.1-8.1 19.3-18.5 37.1-44.9 57.4-74.4 57.4-29.5 0-56.3-20-74.8-56.2-17.3-32.8-26.6-77.3-26.6-124.7 0-77.3 25.6-142.5 67.1-170.4 28.8-19.3 65-21.6 104.6-6.9 33.6 12.4 69.8 37.1 105.5 72.1 3.1-8.3 7-16.6 11.5-24.5 18.7-32.8 44.9-50.9 73.4-50.9 57.1 0 100 77.6 100 180.6 0 44.7-8.1 85.7-23.7 118.8-6.8 15-16.1 28.5-27.4 40.7-9.8 10.7-22.3 18.8-36.2 23.5q-3.5 1-7 1.8-3.5 0.7-7.1 1.2-3.6 0.5-7.2 0.8-3.6 0.3-7.2 0.3zm-154.9-106.7c66.9 69.5 138.8 93.8 176.7 81.4 19.4-6.4 37.2-25 50.1-52.6 14.2-29.9 21.6-67.8 21.6-109.2 0-43.8-8.4-84.5-24-114.7-14.6-28.3-33.6-44-53.7-44-29 0-54.2 28.8-67.6 71.4 53.9 59 89.4 131.1 86.3 177.3-1.2 16.6-7.2 29.7-17.5 38.3l-1 0.7c-11.5 7.6-24.9 8.1-38.1 0.9-34.3-18-62.1-84.4-62.1-147.5 0-21.4 2.4-42.8 7.7-63.8-72.9-75.2-143.9-101.6-190.2-70.7-35 23.4-57.6 83.1-57.6 152.1 0 89.2 34.8 159 79.2 159 27.6 0 51.5-28.6 65.2-72.6-35.5-39.5-62.3-83.5-75.8-124.5-12.9-40-11.5-72.3 4.1-88.5 10.1-10.5 24.9-13.1 40.8-6.7 32.6 13.1 65.9 62.4 65.9 131.2 0 27.8-3.3 55.4-10 82.5zm96.8-141.6q-0.9 5.4-1.7 10.9-0.7 5.4-1.2 10.8-0.4 5.5-0.7 11-0.2 5.4-0.2 10.9c0 59.7 26.6 115.4 50.4 128 7.2 3.8 11.7 2.4 14.8 0.3 5.3-4.6 8.4-12.2 9.2-22.2 2.3-37.3-26.7-98-70.6-149.7zm-169.3-53.5q-1.1 0-2.2 0.2-1.1 0.2-2.2 0.7-1 0.4-2 1-0.9 0.6-1.7 1.4c-7.2 7.4-11.1 29.3 0.9 66.4 11.1 34.3 32.7 70.9 61.4 105 4.1-20.7 6-41.4 5.8-62.4 0.2-65.4-31.7-102.3-51.8-110.4-2.7-1.2-5.3-1.7-8.2-1.9z"/>
			<g id="Layer">
				<path id="Layer" fill-rule="evenodd" class="s1" d="m601.5 247.1v-118.1h29.5v19.3c4.5-7.1 11-12.6 18.7-15.9 9.1-4.3 18.9-6.5 28.7-6.2 24.3 0 38.9 8.3 43.9 25.2 1.9 6.2 2.9 14.8 2.9 25.9v70h-30v-63.1c0-9.5-1.2-16.1-3.3-19.9-3.6-7.2-11.8-10.8-24-10.8q-2.7 0-5.4 0.4-2.7 0.3-5.3 0.9-2.7 0.6-5.2 1.6-2.6 0.9-5 2.1c-6.2 2.9-11.5 7.2-15.3 12.9v75.7zm255.9 3.8c-14.9 0-24-5-27.4-15.3-9.1 11-23.5 16.5-43.4 16.5-15.1 0-26.8-3.4-35.2-10.3q-3-2.3-5.4-5.3-2.4-3-4-6.4-1.6-3.4-2.4-7.2-0.8-3.7-0.7-7.5c0-17.4 8.9-28.5 26.9-33.8 11.2-3.1 25.4-4.7 42.4-4.7q2.2 0 4.4 0 2.2 0.1 4.4 0.3 2.2 0.2 4.4 0.5 2.1 0.2 4.3 0.6v-3.8q0.1-1.9-0.2-3.8-0.2-1.8-0.8-3.6-0.7-1.8-1.6-3.4-0.9-1.6-2.2-3c-4.3-4.6-12.5-6.7-24.4-6.7-19 0-34.3 4.8-46.6 14h-0.9v-26.6c14.6-9.3 32.6-14 53.9-14 17.3 0 30.2 3.3 38.9 9.7q1.7 1.3 3.3 2.9 1.6 1.5 2.9 3.3 1.4 1.7 2.4 3.6 1.1 2 1.9 4c2.2 5.5 3.4 12.9 3.4 22.1l-0.3 15.3-0.2 15.4c0 8.9 0.5 14.1 1.2 15.7 1.2 3.4 4.6 5 9.6 5q1.2 0 2.4 0 1.2-0.1 2.4-0.3 1.2-0.2 2.4-0.5 1.2-0.2 2.4-0.6v24.3c-4.6 2.6-10.6 3.6-18.2 3.6zm-31.7-51q-2.1-0.3-4.3-0.5-2.1-0.3-4.3-0.4-2.2-0.2-4.3-0.2-2.2-0.1-4.4-0.1c-8.3-0.2-16.7 0.8-24.9 2.4-9.3 2.2-14.1 6.7-14.1 13.8 0 9.6 7.9 14.3 23.5 14.3 14.6 0 25.6-4.3 33.1-13.1-0.3-3.1-0.3-8.5-0.3-16.2zm68.1 56.9h1c13.9 10.3 31.6 15.3 53.2 15.3 16.8 0 28.8-3.9 35.7-11.2 4.8-5 7.2-13.1 7.2-24.8v-8.8c-3.3 5.5-9.1 10.2-17.5 14.1q-3.3 1.5-6.8 2.6-3.4 1.1-7 1.8-3.6 0.7-7.2 1-3.6 0.4-7.3 0.3c-18.9 0-34.5-4.8-46.7-14.6-12.3-9.7-18.3-23.8-18.5-42.3-0.2-10 1.9-20 6-29.1 3.6-7.8 9.4-14.7 16.3-19.7q2.5-1.7 5-3.2 2.6-1.5 5.3-2.8 2.7-1.3 5.4-2.5 2.8-1.1 5.7-2c7.4-2.4 15.3-3.3 23.2-3.3 9.6-0.2 19 1.7 27.8 5 8.4 3.3 13.9 7.6 16.6 12.6v-14.3h28.8v103.8c0 16.9-3.2 29.7-9.4 39-11.3 16.4-32.1 24.5-62.8 24.5q-4.1 0-8.1-0.2-4.1-0.2-8.1-0.7-4-0.4-8-1.1-4-0.7-8-1.5c-9.6-2.4-17-5.3-22-8.9 0 0 0.2-29 0.2-29zm96.2-85.7c-3.1-5.9-8.2-10.7-14.4-13.3-7.2-3.3-15.1-5-23-4.7q-4-0.1-7.9 0.4-3.9 0.5-7.6 1.7-3.8 1.1-7.3 2.9-3.5 1.7-6.7 4c-8.2 6-12.3 15.2-12.3 27.4 0 10.4 4.1 18.3 12 23.8 8.7 5.7 19 8.3 29.3 8.1 7.9 0 15.8-1.7 23-4.8 6.3-2.6 11.5-7.1 15.1-12.9 0 0-0.2-32.6-0.2-32.6zm162.1 79.8c-14.9 0-24-5-27.3-15.3q-13.7 16.5-43.2 16.5c-15.1 0-26.9-3.4-35.3-10.3q-3-2.3-5.3-5.3-2.4-3-4-6.4-1.7-3.4-2.4-7.2-0.8-3.7-0.7-7.5c0-17.4 8.8-28.5 26.8-33.8 11.3-3.1 25.4-4.7 42.5-4.7q2.2 0 4.4 0 2.2 0.1 4.3 0.3 2.2 0.2 4.4 0.5 2.2 0.2 4.4 0.6v-3.6c0.2-5-1.5-10-4.8-13.8-4.3-4.5-12.5-6.7-24.5-6.7-18.9 0-34.3 4.8-46.5 14.1h-1.2v-26.9c14.6-9.3 32.6-14.1 53.9-14.1 17.3 0 30.3 3.4 38.9 9.8q1.8 1.3 3.3 2.9 1.6 1.5 2.9 3.3 1.4 1.7 2.5 3.6 1 2 1.8 4c2.2 5.5 3.4 12.9 3.4 22.1l-0.2 15.3-0.3 15.4c0 8.8 0.5 14.1 1.2 15.7 1.2 3.4 4.6 5 9.6 5q1.2 0 2.5 0 1.2-0.1 2.4-0.3 1.2-0.2 2.4-0.5 1.1-0.2 2.3-0.6v24.3c-4.5 2.6-10.5 3.6-18.2 3.6zm-31.7-51c-5.7-0.9-11.5-1.2-17.2-1.2-8.4-0.2-16.8 0.8-25 2.4-9.3 2.2-14.1 6.7-14.1 13.8 0 9.6 7.6 14.3 23.5 14.3 14.6 0 25.6-4.3 33.1-13.1-0.3-3.1-0.3-8.5-0.3-16.2zm63.1 49.1v-118.3h29.5v20c2.2-6 6.7-11.2 13.7-16 7.4-5 16.3-7.3 25.2-7.1 6.9 0 12.4 1.2 16.3 3.3v29.8h-1q-2.1-1-4.4-1.7-2.2-0.7-4.5-1.2-2.3-0.4-4.6-0.6-2.4-0.2-4.7-0.1-3-0.1-5.9 0.2-2.9 0.2-5.8 0.8-2.8 0.6-5.6 1.5-2.8 0.8-5.5 2c-5.5 2.6-10.1 7.2-12.2 12.6v74.5zm304.8-14.5c-13 11.7-29.8 17.6-50.4 17.6-20.6 0-37.4-5.7-50.1-17.3-12.7-11.7-19.2-26.7-19.2-45 0-18.4 6.5-33.3 19.7-44.8 12.9-11.6 29.7-17.3 50.3-17.3q31.7 0 50.4 17.1c12.5 11.4 18.7 26.4 18.7 45.2-0.2 17.9-6.7 32.9-19.4 44.5zm-21.6-70.7c-7.2-6.9-16.3-10.2-28.5-10.2-12 0-21.4 3.3-28.8 10.2-7.5 6.7-11.5 16.2-11.3 26-0.2 10 3.8 19.5 11.5 25.9 7.7 6.7 17 9.8 28.6 9.8 11.7 0 21.1-3.4 28.3-10.3 7.1-6.6 11-15.9 10.7-25.7 0.5-9.5-3.3-18.8-10.5-25.7zm-184.9 85.2v-118.2h29.5v19.9c2.1-5.9 6.7-11.1 13.7-15.9 7.4-5 16.3-7.4 25.1-7.1 7 0 12.5 1.2 16.4 3.3v29.7h-1q-2.1-0.9-4.4-1.6-2.2-0.8-4.5-1.2-2.3-0.5-4.7-0.6-2.3-0.2-4.6-0.1c-8-0.3-15.9 1.4-22.8 4.5-5.5 2.6-10.1 7.1-12.5 12.6v74.5z"/>
			</g>
		</g>
	</g>
</svg>