<svg version="1.2" xmlns="http://www.w3.org/2000/svg" viewBox="0 0 1550 329" width="1550" height="329">
	<title>Nacon-svg</title>
	<style>
		.s0 { fill: #000000 } 
	</style>
	<g id="g30">
		<path id="path28" fill-rule="evenodd" class="s0" d="m1534.7 278.2h-25.6c-1.9 0-3.7-0.4-5.5-1.1c-1.8-0.7-3.4-1.8-4.7-3.1c-1.4-1.3-2.4-2.9-3.2-4.7c-0.7-1.7-1.1-3.6-1.1-5.5v-101.7c-0.1-7.1-1.6-14.2-4.4-20.8c-2.8-6.6-6.8-12.6-11.9-17.6c-5.1-5.1-11.2-9.1-17.8-11.8c-6.7-2.7-13.8-4.1-21-4.1h-42c-1.9 0-3.8 0.4-5.6 1.1c-1.7 0.7-3.3 1.8-4.7 3.1c-1.3 1.4-2.4 3-3.1 4.7c-0.8 1.7-1.2 3.6-1.2 5.5v141.6c0 1.9-0.4 3.8-1.1 5.5c-0.8 1.8-1.9 3.4-3.2 4.7c-1.4 1.3-3 2.4-4.7 3.1c-1.8 0.7-3.7 1.1-5.6 1.1h-25.5c-1.9 0-3.8-0.4-5.6-1.1c-1.7-0.7-3.3-1.8-4.7-3.1c-1.3-1.3-2.4-2.9-3.1-4.7c-0.8-1.7-1.2-3.6-1.2-5.5v-195.7c0-1.9 0.4-3.8 1.2-5.6c0.7-1.7 1.8-3.3 3.1-4.6c1.4-1.3 3-2.4 4.7-3.1c1.8-0.7 3.7-1.1 5.6-1.1h96.8c14.1-0.1 28.1 2.6 41.2 7.9c13.2 5.3 25.1 13.1 35.3 23c10.1 9.8 18.3 21.5 24 34.5c5.7 12.9 8.8 26.8 9.2 40.9v103.8c-0.1 1.9-0.4 3.8-1.2 5.5c-0.7 1.8-1.8 3.4-3.2 4.7c-1.3 1.3-2.9 2.4-4.7 3.1c-1.7 0.7-3.6 1.1-5.5 1.1zm-341.5-0.5c-45.1-0.5-85.6-28-102.5-69.8c-17-41.9-7.1-89.7 25-121.5c32.2-31.7 80.2-41 121.9-23.6c41.7 17.4 68.8 58.1 68.7 103.2c-0.1 14.8-3.1 29.3-8.8 42.9c-5.8 13.6-14.1 25.9-24.6 36.3c-10.5 10.4-22.9 18.6-36.6 24.1c-13.7 5.6-28.3 8.5-43.1 8.4zm0-170.2c-23.6 0.2-44.8 14.6-53.8 36.5c-8.9 21.8-3.7 46.9 13 63.6c16.8 16.6 42 21.5 63.8 12.4c21.9-9.1 36.1-30.4 36.1-54c0-7.7-1.5-15.4-4.5-22.5c-3-7.1-7.4-13.6-12.8-19c-5.5-5.5-12.1-9.8-19.2-12.7c-7.2-2.9-14.8-4.4-22.6-4.3zm-200.1 116.3q5 0.5 10.1 0.1q5.1-0.3 10-1.5q4.9-1.2 9.6-3.2q4.7-2 8.9-4.8c1.4-1 2.9-1.6 4.5-2.1c1.6-0.4 3.3-0.5 5-0.4c1.6 0.2 3.2 0.6 4.7 1.3c1.6 0.7 2.9 1.6 4.1 2.8l18.6 18.4c1.5 1.4 2.6 3.2 3.3 5.1c0.8 1.9 1.1 3.9 0.9 5.9c-0.1 2-0.7 4-1.7 5.8c-0.9 1.8-2.3 3.3-3.9 4.5c-17.4 12.9-38.2 20.6-59.8 22.1c-21.6 1.5-43.2-3.2-62.2-13.6c-19.1-10.3-34.7-25.9-45.2-44.8c-10.5-19-15.3-40.5-13.9-62.1c1.7-20.1 8.8-39.4 20.6-55.8c11.7-16.5 27.5-29.5 46-37.8c18.4-8.3 38.7-11.5 58.8-9.4c20.1 2.2 39.3 9.7 55.5 21.7c1.6 1.2 3 2.7 4 4.5c0.9 1.8 1.5 3.8 1.6 5.8c0.2 2-0.1 4.1-0.8 6c-0.8 1.9-1.9 3.6-3.3 5l-18.7 18.4c-1.1 1.2-2.5 2.1-4 2.8c-1.5 0.7-3.1 1.1-4.7 1.3c-1.6 0.2-3.3 0-4.9-0.3c-1.6-0.4-3.1-1.1-4.5-2c-14.9-10.1-33.6-12.8-50.8-7.3c-17.2 5.5-30.8 18.6-37 35.6c-6.1 16.9-4.1 35.7 5.5 51c9.6 15.2 25.7 25.2 43.7 27zm-143.9 54.9l-98.9-0.5c-29.9 0.2-58.7-11.5-79.9-32.5c-21.3-21.1-33.2-49.8-33.2-79.7c0-29.9 11.9-58.5 33.2-79.6c21.2-21 50-32.8 79.9-32.5l98.9-0.5c1.9 0 3.8 0.3 5.6 1c1.8 0.7 3.4 1.8 4.7 3.1c1.4 1.4 2.5 2.9 3.2 4.7c0.8 1.8 1.2 3.7 1.2 5.6v196.5c0 1.9-0.4 3.8-1.2 5.6c-0.7 1.7-1.8 3.3-3.2 4.7c-1.3 1.3-2.9 2.3-4.7 3.1c-1.8 0.7-3.7 1-5.6 1zm-40-156.5c0-1.9-0.4-3.8-1.1-5.5c-0.8-1.7-1.9-3.3-3.2-4.7c-1.4-1.3-3-2.4-4.7-3.1c-1.8-0.7-3.6-1.1-5.5-1.1h-44.4c-7.8 0-15.6 1.6-22.9 4.6c-7.2 3-13.8 7.5-19.3 13.1c-5.4 5.7-9.7 12.3-12.6 19.7c-2.8 7.3-4.2 15.1-3.9 22.9c0.4 7.6 2.3 15 5.5 21.9c3.3 6.8 7.8 13 13.3 18.2c5.6 5.1 12.1 9.2 19.2 11.9c7 2.7 14.6 4.1 22.2 4h42.9c1.9 0 3.7-0.4 5.5-1.1c1.8-0.8 3.4-1.8 4.7-3.1c1.4-1.4 2.4-3 3.2-4.7c0.7-1.8 1.1-3.6 1.1-5.5zm-206 156h-25.4c-1.9 0-3.8-0.4-5.5-1.1c-1.8-0.8-3.4-1.8-4.7-3.2c-1.4-1.3-2.5-2.9-3.2-4.6c-0.7-1.8-1.1-3.6-1.2-5.5v-101.7c0-7.2-1.5-14.3-4.3-20.9c-2.8-6.6-6.9-12.6-12-17.6c-5.1-5-11.1-9-17.7-11.7c-6.7-2.7-13.8-4.1-21-4.1h-42.1c-1.9 0-3.7 0.4-5.5 1.1c-1.7 0.7-3.3 1.8-4.7 3.1c-1.3 1.3-2.4 2.9-3.2 4.7c-0.7 1.7-1.1 3.6-1.1 5.5v141.6c0 1.9-0.4 3.7-1.2 5.5c-0.7 1.7-1.8 3.3-3.1 4.7c-1.4 1.3-3 2.3-4.7 3.1c-1.8 0.7-3.7 1.1-5.6 1.1h-25.7c-1.9 0-3.8-0.4-5.5-1.1c-1.8-0.8-3.4-1.8-4.8-3.1c-1.3-1.4-2.4-3-3.1-4.7c-0.8-1.8-1.2-3.6-1.2-5.5v-195.8c0-1.9 0.4-3.8 1.2-5.5c0.7-1.7 1.8-3.3 3.1-4.7c1.4-1.3 3-2.4 4.8-3.1c1.7-0.7 3.6-1.1 5.5-1.1h96.8c14.1 0 28.1 2.7 41.2 8c13.2 5.3 25.1 13.1 35.3 22.9c10.1 9.8 18.2 21.6 23.9 34.5c5.7 13 8.8 26.9 9.1 41v103.8c0 1.9-0.4 3.7-1.1 5.5c-0.8 1.7-1.8 3.3-3.1 4.6c-1.4 1.3-3 2.4-4.7 3.1c-1.7 0.8-3.6 1.1-5.5 1.2zm-436.6 50.5c-21.7 0.1-43.2-4-63.2-12.2c-20.1-8.2-38.3-20.2-53.8-35.4c-15.4-15.2-27.6-33.3-36.1-53.3c-8.4-19.9-12.8-41.3-12.9-63c0.3-43.7 18-85.5 49.1-116.3c31-30.7 73-48 116.8-48c43.8 0 85.8 17.3 116.9 48c31 30.8 48.7 72.6 49.1 116.3c-0.2 21.7-4.6 43.1-13 63c-8.4 20-20.6 38.1-36 53.3c-15.4 15.2-33.7 27.2-53.7 35.4c-20.1 8.2-41.5 12.3-63.2 12.2zm138.7-240.6c14.2 52.5-6.8 128.2-87.9 164.2q-1.5 0.7-3 1.2q-1.6 0.5-3.2 0.8q-1.6 0.3-3.2 0.3q-1.6 0.1-3.2 0q-3.3-0.3-6.5-1.1q-3.1-0.8-6.1-2.2q-3-1.4-5.7-3.2q-2.7-1.9-5-4.2c-4.1-4.9-2.5-3.7 1.1-7.3c8.1-8.1 15-17.4 20.4-27.5c5.5-10.1 9.4-21 11.6-32.2c2.3-11.3 2.8-22.8 1.7-34.2c-1.1-11.5-3.9-22.7-8.3-33.3c18.1-9.7 27.7-15 43.4-22.1c6.6-2.9 21-6.5 27.3 17.7c2.3 10.8 3.2 21.7 2.9 32.7c-0.3 10.9-2 21.8-4.8 32.4c-2.9 10.5-7 20.7-12.2 30.4c-5.2 9.6-11.6 18.6-18.9 26.7h0.2l-1.5 1.7l1.8-2c8.2-7.7 15.4-16.3 21.5-25.7c6.1-9.4 11.1-19.5 14.7-30.1c3.7-10.6 6.1-21.6 7.2-32.7c1.1-11.2 0.8-22.4-0.8-33.5c-4.1-33-18.5-30.4-30.9-25.2c-18.8 7.9-43.7 22.8-59.4 31.5q-4.5 2.6-9.1 5q-4.6 2.4-9.3 4.6q-4.7 2.2-9.5 4.2q-4.8 2-9.7 3.8c-2.3 6.2-4 12.6-5.2 19.1c-1.3 6.5-1.9 13.1-2 19.7c-0.1 6.6 0.4 13.2 1.4 19.7c1 6.6 2.6 13 4.7 19.2c-4.9-5.6-9.2-11.7-12.7-18.3c-3.5-6.6-6.2-13.6-8.2-20.8c-1.9-7.2-3-14.6-3.2-22c-0.2-7.5 0.4-15 1.9-22.3c-1.4-2.3-3.2-4.4-5.2-6.2c-2.1-1.7-4.5-3.2-7-4.2c-2.6-1-5.3-1.5-8-1.7c-2.7-0.1-5.5 0.2-8.1 1q-0.5 9.1-0.1 18.2q0.4 9.2 1.7 18.2q1.3 9 3.6 17.9q2.2 8.9 5.3 17.5c-9.1-9-16.5-19.7-21.6-31.5c-5.1-11.8-7.9-24.4-8.2-37.3c-0.3-12.8 1.8-25.6 6.4-37.6c4.5-12 11.3-23.1 20-32.5c-10 17.8-4 44.3-4 44.3c0 0 6.3-37.2 24.4-61.1q2.6-1.5 5.2-2.8q2.6-1.4 5.3-2.6q2.7-1.2 5.5-2.2q2.7-1.1 5.5-1.9c-9.1 2.1-17.9 5.4-26.2 9.9c-8.3 4.5-15.9 10.1-22.6 16.6c-6.8 6.5-12.7 13.9-17.5 22c-4.7 8.1-8.4 16.8-10.9 25.8c-4.2 4.9-8.1 10.2-11.4 15.9c-3.4 5.6-6.2 11.5-8.5 17.6c-2.3 6.1-4 12.4-5.2 18.8c-1.1 6.4-1.7 13-1.7 19.5c0 60.9 50.2 113.5 111.8 113.6c19.2-0.2 38.1-4.2 55.7-11.6c17.7-7.5 33.7-18.3 47.2-31.8c13.5-13.6 24.2-29.7 31.6-47.3c7.3-17.7 11.2-36.6 11.3-55.7q0-5.6-0.4-11.1q-0.5-5.6-1.3-11.1q-0.8-5.5-2.1-10.9q-1.2-5.4-2.8-10.7zm-134.5 21.3c13.4-6.3 47-25.7 64.2-33.3q2.5-3.5 5.5-6.5q2.9-3 6.4-5.5q3.4-2.5 7.2-4.4q3.8-1.9 7.8-3.2c-9.1 0.5-18.2 2-27 4.6c-8.8 2.6-17.2 6.2-25.1 10.8c-7.9 4.6-15.3 10.1-21.9 16.5c-6.6 6.3-12.4 13.4-17.3 21.1z" />
	</g>
</svg>