<svg version="1.2" xmlns="http://www.w3.org/2000/svg" viewBox="0 0 1520 279" width="1520" height="279">
	<title>neurocrinlogo-svg</title>
	<style>
		.s0 { fill: #ffffff } 
	</style>
	<g id="nbs_logo_withtag_2021_rgb">
		<g id="Group_3170">
			<g id="Group_3160">
				<g id="Group_3157">
				</g>
				<g id="Group_3158">
				</g>
				<g id="Group_3159">
					<path id="Path_3022" fill-rule="evenodd" class="s0" d="m373.3 267.6h-31.9v-92.3h31c19.4 0 28.7 10.3 28.7 23.2 0.1 2.5-0.3 4.9-1 7.2-0.8 2.4-1.9 4.6-3.4 6.5-1.5 1.9-3.3 3.6-5.4 4.9-2.1 1.3-4.3 2.3-6.7 2.8 2.6 0.6 5.1 1.5 7.4 2.9 2.3 1.4 4.3 3.2 6 5.3 1.7 2.1 3 4.4 3.9 7 0.9 2.5 1.3 5.1 1.3 7.8 0 13.9-10.4 24.7-29.9 24.7zm-1.5-84.5h-21.2v33h21.5c12.6 0 19.6-6.4 19.6-16.7 0-9.9-6.6-16.3-19.9-16.3zm0.5 40.7h-21.7v36h22.1c13.3 0 21.2-6.7 21.2-17.8 0-11.1-8.4-18.2-21.6-18.2zm49.3-48.5h9.2v92.3h-9.2zm72.3 93.3c-25.3 0-45.7-21-45.7-47.1 0-26.1 20.4-47.2 45.7-47.2 25.3 0 45.7 21.1 45.7 47.2 0 26.1-20.4 47.1-45.7 47.1zm0-8c20.5 0 36.2-14.9 36.2-39.1 0-24.2-15.7-39-36.2-39-20.5 0-36.2 14.8-36.2 39 0 24.2 15.7 39.1 36.2 39.1zm89.3 8c-18.5 0-30.7-10.5-31.2-24.7h9.8c0.7 7.7 6.4 16.9 21.4 16.9 12.8 0 20.3-7.5 20.3-17 0-27.2-50.7-10-50.7-44.8 0-14.3 11.7-24.7 29.5-24.7 17.6 0 28.2 9.8 29.8 22.4h-10.1c-1-6.4-7.2-14.4-20.1-14.5-10.8-0.1-19.8 5.8-19.8 16.5 0 26.7 50.8 10.3 50.8 44.7 0 12.6-10.2 25.2-29.7 25.2zm87.1-94.3c20.6 0 35.9 10.3 42.5 28h-10.8c-1.2-3.1-3-6-5.1-8.5-2.2-2.6-4.7-4.8-7.5-6.6-2.9-1.8-5.9-3.1-9.2-3.9-3.2-0.8-6.6-1.2-9.9-1-20.2 0-35.7 15-35.7 39.2 0 24 15.5 39 35.7 39 3.3 0.2 6.7-0.2 9.9-1 3.2-0.8 6.3-2.1 9.1-3.9 2.8-1.7 5.3-3.9 7.5-6.4 2.2-2.5 3.9-5.4 5.2-8.4h10.8c-6.6 17.4-21.9 27.7-42.5 27.7-25.6 0-45.2-19.3-45.2-47 0-27.8 19.6-47.2 45.2-47.2zm60 1h9.2v92.4h-9.2zm79.4 7.5h-39v34.5h35v7.7h-35v35h39v7.7h-48.2v-92.5h48.2zm85.2-7.6v92.4h-9.3l-51.1-77.7v77.7h-9.3v-92.4h9.3l51.1 77.6v-77.6zm62.6-1c20.6 0 35.9 10.3 42.5 28h-10.9c-1.2-3.1-3-6-5.1-8.5-2.2-2.6-4.7-4.8-7.5-6.6-2.8-1.8-5.9-3.1-9.2-3.9-3.2-0.8-6.5-1.2-9.9-1-20.2 0-35.6 15-35.6 39.2 0 24 15.4 39 35.6 39 3.3 0.2 6.7-0.2 9.9-1 3.2-0.8 6.3-2.1 9.1-3.8 2.8-1.8 5.4-4 7.5-6.5 2.2-2.5 3.9-5.4 5.2-8.4h10.9c-6.6 17.4-21.9 27.7-42.5 27.7-25.7 0-45.2-19.3-45.2-47 0-27.8 19.5-47.2 45.2-47.2zm107.9 8.6h-39v34.5h35v7.6h-35v35.1h39v7.6h-48.2v-92.5h48.2zm41.9 85.8c-18.5 0-30.6-10.6-31.2-24.7h9.8c0.8 7.6 6.5 16.9 21.4 16.9 12.8 0 20.3-7.6 20.3-17.1 0-27.2-50.7-10-50.7-44.8 0-14.2 11.7-24.7 29.6-24.7 17.5 0 28.1 9.8 29.7 22.5h-10c-1.1-6.5-7.3-14.4-20.1-14.6-10.8-0.1-19.8 5.9-19.8 16.6 0 26.7 50.7 10.3 50.7 44.6 0 12.6-10.1 25.3-29.7 25.3zm-650.4-244.3v128.2h-31.3l-52.2-79.1v79.1h-31.2v-128.2h31.2l52.2 79.5v-79.5zm98.8 25h-47.3v26h41.9v24.1h-41.9v28.1h47.3v25h-78.5v-128.2h78.5zm21.6-25h31.2v76.7c0 15.2 7.5 23.9 22.3 23.9 14.8 0 22.7-8.7 22.7-23.9v-76.7h31.2v76.5c0 35.5-24.8 53-54.4 53-29.8 0-53-17.5-53-53zm177.5 0c31.4 0 47.1 18.1 47.1 40.4 0.1 4.2-0.5 8.4-1.8 12.4-1.3 4-3.3 7.8-5.9 11.1-2.5 3.4-5.7 6.3-9.2 8.6-3.5 2.3-7.4 4-11.5 5l29.5 50.8h-35.2l-26.6-48.5h-7.5v48.5h-31.3v-128.3zm-1.8 25.9h-19.4v31.8h19.4c11.7 0 17.2-6 17.2-16 0-9.5-5.5-15.8-17.2-15.8zm124 103.6c-8.7 0.2-17.3-1.3-25.4-4.6-8.1-3.2-15.4-8-21.6-14.2-6.1-6.1-11-13.5-14.2-21.5-3.3-8.1-4.9-16.7-4.7-25.4 0-17.5 6.9-34.2 19.3-46.5 12.3-12.4 29-19.3 46.4-19.3 17.5 0 34.2 6.9 46.5 19.3 12.4 12.3 19.3 29 19.3 46.5 0.2 8.6-1.4 17.3-4.6 25.3-3.2 8.1-8 15.4-14.1 21.6-6.2 6.1-13.5 11-21.5 14.2-8.1 3.3-16.7 4.8-25.4 4.6zm33.8-65.7c0-20.6-15.1-37.3-33.9-37.3-18.7 0-33.9 16.7-33.9 37.3 0 20.6 15.2 37.2 33.9 37.2 18.8 0 33.9-16.6 33.9-37.2zm73.1 0.2c0 22.6 13.1 36.9 32.3 36.9 2.8 0.1 5.6-0.2 8.2-0.9 2.7-0.7 5.3-1.8 7.7-3.3 2.4-1.4 4.5-3.2 6.4-5.3 1.8-2.1 3.4-4.4 4.5-7h34.4c-7.3 27.8-30.4 44.8-60.9 44.8-37.8 0-64.4-26.9-64.4-65.2 0-38.4 26.6-65.4 64.4-65.4 30.5 0 53.6 17.1 60.9 44.9h-34.4c-1.1-2.5-2.7-4.9-4.5-7-1.9-2.1-4-3.9-6.4-5.3-2.4-1.5-5-2.6-7.7-3.3-2.6-0.7-5.4-1-8.2-0.9-19.2 0-32.3 14.4-32.3 37zm207-11.2c-1.3 4-3.3 7.8-5.8 11.1-2.6 3.4-5.7 6.3-9.3 8.6-3.5 2.3-7.4 4-11.5 5l29.6 50.8h-35.3l-26.6-48.5h-7.5v48.5h-31.2v-128.3h52.4c31.4 0 47.1 18.1 47.1 40.4 0.1 4.2-0.5 8.4-1.9 12.4zm-29.9-11.1c0-9.5-5.5-15.8-17.2-15.8h-19.3v31.8h19.3c11.7 0 17.2-6 17.2-16zm52.4-41.7h31.2v128.3h-31.2zm133 0h31.2v128.2h-31.2l-52.3-79.1v79.1h-31.2v-128.2h31.2l52.3 79.4zm50.2 0h78.5v25.1h-47.3v25.9h41.9v24.1h-41.9v28.2h47.3v25h-78.5zm-1241.8 253.1q-7.1 0.8-14.2 0.9-7.2 0.1-14.3-0.5-7.1-0.6-14.2-2 3.1-0.1 6.1-0.4 3-0.4 6-0.9 2.9-0.5 5.9-1.2 2.9-0.7 5.9-1.5 2.9-0.9 5.7-1.9c91.6-33.8 98.4-193.8-33.6-160.2 9.4-47 73.1-59.7 111.7-42 105.7 49.1 44.9 189.6-50.9 207.3q-7 1.5-14.1 2.4zm-26.8-96.9c-68.6 19.2-116.5-78.3-81-132.2 53-88.8 197-44.2 222.8 45.8q-0.7-1.1-1.5-2.2-5-6.9-11-13-6-6-12.9-11-6.9-5-14.6-8.8-7.6-3.8-15.7-6.4c-88.5-25.1-161.1 55.2-86.1 127.8zm-23.6 83.6c-102.9-2.7-135.7-148.6-70.9-215.9q-1.4 2.9-2.6 5.7c-45.6 104.9 108.6 215.3 148.3 74.1q3.7 2.9 6.8 6.5 3 3.7 5.3 7.8 2.3 4.2 3.7 8.7 1.5 4.5 2 9.2c7.2 53.6-38.5 105.2-92.6 103.9zm1386.2-227c-0.1-3.9 1.3-7.6 4-10.4 2.7-2.8 6.4-4.3 10.3-4.3 3.9 0 7.6 1.5 10.3 4.3 2.7 2.8 4.1 6.5 4 10.4 0 3.8-1.5 7.4-4.2 10.1-2.7 2.7-6.3 4.2-10.1 4.2-3.8 0-7.4-1.5-10.1-4.2-2.7-2.7-4.2-6.3-4.2-10.1zm2.6 0c-0.1 3.1 1.1 6.2 3.3 8.5 2.2 2.2 5.2 3.5 8.4 3.5 3.2 0 6.2-1.3 8.4-3.5 2.2-2.3 3.4-5.4 3.3-8.5 0.1-3.2-1.1-6.3-3.3-8.5-2.2-2.3-5.2-3.6-8.4-3.6-3.2 0-6.2 1.3-8.4 3.6-2.2 2.2-3.4 5.3-3.3 8.5zm14.2 1.3l4.4 6.3-3.7 0.1-4-6.2h-1.7v6.2h-3.1v-15.6h6.7q1-0.2 2 0.1 1 0.4 1.7 1 0.8 0.7 1.2 1.6 0.3 1 0.3 2 0.1 0.8-0.2 1.6-0.3 0.8-0.8 1.4-0.5 0.7-1.2 1-0.8 0.4-1.6 0.5zm-5-6.4v4h3.4c1.3 0 2.3-0.6 2.3-2 0-1.4-1-2-2.3-2z"/>
				</g>
			</g>
		</g>
	</g>
</svg>