<svg version="1.2" xmlns="http://www.w3.org/2000/svg" viewBox="0 0 1552 1139" width="1552" height="1139">
	<title>unnamed (1)-svg</title>
	<style>
		.s0 { fill: #c8d83f } 
		.s1 { fill: #1c6081 } 
	</style>
	<g id="#c8d83fff">
		<path id="Layer" class="s0" d="m791.5 68.6c106.3-25.3 212.5-52.8 321.5-63.7 35.7-2.2 71.4-7.6 107.1-1.7 98.1 2.6 190.6 42.9 273.4 93.1 20.2 11.7 38.7 26.3 57.4 40.2 0.1 10.5-0.3 21-1.1 31.3-71.8-37-151.7-54.9-231.1-66.4-76.1-12-153.5-7.2-230-3-301.9 16.7-599.2 74.5-899.1 109.6-36.5 2.1-72.4 10.9-109.1 10.4-26.5 3.2-53 7.3-79.8 8.6 10-5.9 20.9-12.5 32.9-8 15.7 5.4 31.3-1.3 46.9-3.1 44.9-0.8 88.6-12.2 132.8-18.6 128.6-23.5 256.8-49.5 383.5-81.9 64.7-16.5 129.7-31.8 194.7-46.8z"/>
	</g>
	<g id="#1c6081ff">
		<path id="Layer" class="s1" d="m768.8 257.3c52.1-0.1 104.1 0.2 156.2-0.2 153.1 204.9 304.8 410.9 457.7 616 7.9 10.4 13.9 22.6 25 30.1 1-215.3 0.3-430.6 0.4-645.8 47.7 0.1 95.4-0.6 143.1 0.4-1 293.6-0.4 587.3-0.3 880.9q-73.7-0.3-147.4 0c-136.8-182.3-271.5-366.1-407.5-548.9-28.9-36-52.9-75.8-83.3-110.5-1.2 219.8-0.3 439.6-0.5 659.4-47.8-0.3-95.6-0.2-143.3 0 0-293.8 0.1-587.6-0.1-881.4z"/>
	</g>
</svg>