<svg version="1.2" xmlns="http://www.w3.org/2000/svg" viewBox="0 0 1507 1472" width="1507" height="1472">
	<title>logo_neoen-svg</title>
	<style>
		.s0 { fill: #ffffff } 
	</style>
	<g id="Layer">
		<path id="Layer" class="s0" d="m1506.7 0.4v1457.9h-183.7c-75.1-1.1-125.5-26.9-161.3-62.7-369.7-367-751.7-825.7-900.7-1011.4 0 0 0 927.5 0 947.6 0 24.7 2.2 89.6-62.7 106.3-81.8 21.3-198.3 33.6-198.3 33.6v-1459c0 0 94.1 0 186 0 76.1 0 126.5 29.1 163.5 62.7 51.5 48.1 263.3 271.9 416.7 447.5 191.6 218.2 371.9 431.9 478.4 559.4 0 0 0-921.9 0-942 0-24.6-2.3-89.5 62.7-106.3 81.8-21.3 198.3-33.6 199.4-33.6z"/>
	</g>
</svg>