<svg version="1.2" xmlns="http://www.w3.org/2000/svg" viewBox="0 0 1586 436" width="1586" height="436">
	<title>neptune_logo_new-svg</title>
	<style>
		.s0 { fill: #004e55 } 
		.s1 { fill: #00e9ad } 
	</style>
	<g id="#004e55ff">
		<path id="Layer" class="s0" d="m0.3 0c65.3 64.2 130.7 128.2 196.1 192.3 1.1 1.1 0.6 2.9 0.8 4.3 0 18.8 0 37.7 0 56.5-51.6-50.1-102.6-100.8-154.2-150.9-0.1 50 0 100-0.1 150-14.2 0-28.4 0.1-42.6 0 0-84.1-0.1-168.1 0-252.2z"/>
		<path id="Layer" fill-rule="evenodd" class="s0" d="m260.5 0.3q77.8 0 155.7 0c0.1 13.5 0 26.9 0 40.4-37.6 0-75.2-0.1-112.8 0 0 22.1 0 44.3 0 66.4 34 0.1 68.1 0 102.1 0.1q0.1 19.5 0 39c-34 0-68.1-0.1-102.1 0 0 22.2 0 44.3 0 66.5 37.6 0 75.2-0.1 112.8 0 0 13.4 0.1 26.9 0 40.3q-77.9 0-155.7 0-0.1-126.3 0-252.7zm216.4 0c31.4 0 62.8 0 94.2 0.1 16.7 0.1 33.6 4.5 47.5 13.9 13.8 9 24.1 22.9 28.6 38.6 6.1 20.8 4.5 44.3-6 63.4-8.6 15.7-23.4 27.5-40.2 33.2-10.6 3.8-22 5-33.2 5-16.1 0-32.1 0-48.2 0-0.3 32.8 0 65.6-0.1 98.5-14.2 0.1-28.4 0-42.6 0q-0.2-126.3 0-252.7zm42.6 38.3q0 38.9 0 77.9c12.9 0.1 25.8 0 38.7 0 8-0.1 16.1-0.1 23.7-2.7 8-2.6 15.2-7.6 19.6-14.8 5.1-8 6.2-17.8 5.3-27.1-1-9.3-5.5-18.4-12.9-24.2-8.1-6.7-18.9-9.3-29.3-9.2-15 0.1-30 0-45.1 0.1zm157.5-38.2q93.6-0.1 187.2 0c0.1 13.5 0 27 0 40.5-24.1 0.1-48.1 0-72.2 0-0.1 70.7 0 141.4-0.1 212.1-14.3 0-28.6 0.1-42.9 0-0.1-70.7 0-141.4 0-212.1-24 0-48 0.1-72.1 0 0-13.5 0-27 0.1-40.5zm226.2 0c14.2-0.1 28.3 0 42.4-0.1 0.1 54.4 0 108.9 0 163.3 0.2 14.3 3.7 29.8 14.3 40.1 11.4 11.8 28.8 15 44.5 13.4 11.9-1 23.9-6 31.8-15.3 9.1-10.4 12.2-24.7 12.2-38.3 0-54.4-0.1-108.7 0-163.1q21.5-0.1 42.9 0c0 54.4 0 108.8 0 163.2 0.3 16.5-2.6 33.3-10.2 48-5.7 11.4-14 21.5-24.4 28.9-13.3 9.8-29.6 15.1-45.9 17-21.4 2.2-43.8-0.5-63-10.7-15.9-8.3-28.8-22.2-36.1-38.6-6.3-13.6-8.7-28.7-8.5-43.6 0-54.7-0.1-109.5 0-164.2zm252.7-0.1c18.1 0 36.2 0.1 54.3 0 38.2 59.4 76.1 119 114.3 178.5 0.1-59.5-0.1-119 0-178.5 14.3 0 28.6 0 42.9 0q0.2 126.4 0 252.7c-14.9 0-29.7 0.1-44.6 0-41.4-63.5-82.6-127.1-124.2-190.6-0.2 63.6 0.1 127.1-0.1 190.6q-21.3 0-42.6 0-0.1-126.3 0-252.7zm274.1 0c51.9 0 103.8 0 155.7 0.1 0.1 13.4 0 26.8 0 40.2-37.6 0.1-75.2 0-112.8 0.1 0 22.1-0.1 44.3 0 66.4 34 0.1 68.1 0 102.1 0.1q0.1 19.5 0 38.9c-34 0.2-68.1 0-102.1 0.1-0.1 22.2 0 44.3 0 66.5 37.6 0 75.2-0.1 112.8 0 0 13.5 0.1 26.9 0 40.3-51.9 0.1-103.8 0-155.7 0q-0.2-126.3 0-252.7zm-387.6 342.4c11.4-13.4 32.5-15.5 47.5-7.3 8 4.3 13.2 12.4 15 21.1-5.1 1.7-10.2 3.4-15.4 4.8-1.4-3.9-2.9-8.1-6.3-10.7-8.1-7-22.7-6.3-28.7 3.2-4.1 6.1-1.4 15.5 5.7 17.9 9.8 3.5 20.6 3.4 30.1 8.2 8 4 14.2 11.8 15.4 20.8 1.5 9.5-2.1 19.6-9.3 26-7 6.3-16.6 9.2-25.9 9.1-10.2 0.2-20.8-2.8-28.5-9.7-6.2-5.5-9.6-13.4-10.9-21.4 5.4-1.6 10.7-3.2 16.1-4.6 1.2 6.1 3.7 12.4 9.1 15.9 6.3 4.5 14.6 5.1 21.9 3.2 5.7-1.5 10.6-7 10.2-13.1 0.1-5.6-4.3-10.2-9.4-11.9-7.8-2.7-16.1-3.2-23.9-5.8-6.7-2.5-13.2-6.8-16.6-13.3-5.6-10.2-3.9-23.8 3.9-32.4zm99.7-0.7c11.7-13.1 32.9-14.7 47.6-6.1 7.7 4.3 12.5 12.2 14.3 20.6-5.1 1.6-10.3 3.4-15.5 4.8-1.3-3.9-2.8-8-6.1-10.6-8.2-7.1-22.7-6.4-28.8 3-3.9 5.6-1.9 14.2 4.2 17.4 5.3 2.6 11.3 3 17 4.3 8.7 1.6 17.8 4.6 23.7 11.6 7.3 8.1 8.4 20.6 3.9 30.4-3.5 7.6-10.4 13.2-18.1 16-15.4 5.1-34.6 2.6-45.8-10-4.7-5.2-7.3-11.9-8.2-18.8q7.9-2.3 15.9-4.5c1.2 4.6 2.4 9.5 5.9 13 6.5 7.1 17.3 8.7 26.2 5.7 5.3-1.7 9.5-7 9.1-12.7 0.1-5.8-4.7-10.4-9.8-12.1-9.1-3-19.1-3.1-27.8-7.5-5.6-2.9-10.7-7.4-13.3-13.4-4.3-10.2-2.2-23 5.6-31.1zm-712.2-9c6-0.2 12-0.1 18-0.1 8.2 24.3 15.8 48.9 23.9 73.3 6.7-24.4 13-48.9 19.6-73.3 5.9 0 11.9-0.1 17.8 0-9.3 33.6-18.8 67.1-28.2 100.7q-8.8 0-17.7 0c-8.3-25-16-50.1-24.3-75.1-8.4 24.9-16.1 50.1-24.2 75-5.9 0.1-11.8 0.1-17.6 0.1-9.8-33.5-19.2-67.1-28.6-100.7 6-0.1 12 0 18 0 6.9 24 13 48.3 20 72.3 8.2-23.9 15.6-48.1 23.3-72.2zm107.3-0.1c20.7 0 41.4-0.1 62.1 0q0.1 8 0 16c-15.1 0.1-30.1-0.1-45.1 0.1 0 8.8 0 17.5 0 26.3 13.6 0.2 27.2 0 40.8 0.1q0 7.8 0 15.7c-13.6 0.1-27.2-0.1-40.8 0.1q0 13.2 0 26.4c15 0 30.1-0.2 45.1 0.1q0 7.9 0 15.9-31.1 0.1-62.2 0 0-50.4 0.1-100.7zm96.6 0c5.7 0 11.5 0 17.2 0 0.1 28.1 0 56.2 0.1 84.4 15.2 0 30.5 0 45.8 0q0.1 8.1 0 16.3c-21 0-42.1 0-63.1 0-0.1-33.6-0.2-67.1 0-100.7zm185.7 0c7.3 0 14.6-0.1 21.8 0.1 15.2 23.4 29.9 47 45.2 70.3 0.4-23.5-0.1-46.9 0.3-70.4 5.7 0 11.4 0 17.1 0 0.2 33.5 0.1 67.1 0.1 100.7-6 0-12 0-18 0-16.6-24.9-32.6-50.4-49.3-75.3-0.4 25.1-0.1 50.2-0.2 75.3q-8.5 0.1-17 0c-0.1-33.6-0.2-67.2 0-100.7zm121.7 0q31.1 0 62.2 0 0.3 8 0 16c-15 0.1-30 0-44.9 0.1-0.1 8.8-0.1 17.5 0 26.3 13.5 0.1 27.1 0 40.7 0.1q0.1 7.8 0 15.7c-13.6 0.1-27.2 0-40.8 0 0 8.9 0 17.7 0.1 26.5 15 0 30-0.1 45 0q0.1 8 0 16-31.2 0-62.4 0c0-33.6-0.1-67.2 0.1-100.7zm-214.6 0q8.5-0.1 17 0.1c0.1 28.1 0 56.1 0.1 84.2 15.3 0.1 30.7 0.1 46 0.1q0.2 8.1 0.1 16.3c-21.1 0-42.1 0-63.2 0q-0.1-50.3 0-100.7z"/>
	</g>
	<g id="#00e9adff">
		<path id="Layer" class="s1" d="m158.8 70.7c-1.9-25.8 8.1-51.6 25.5-70.5 14.9 15.4 23.9 36.2 25.7 57.5 1.8 21.8-4.4 44.1-17 62-2.6 3.6-5.3 7.4-8.9 10.3-14.8-16.2-24.4-37.3-25.3-59.3z"/>
	</g>
</svg>