<svg version="1.2" baseProfile="tiny-ps" xmlns="http://www.w3.org/2000/svg" viewBox="0 0 1500 181" width="1500" height="181">
	<title>NPMcorp_horizontal_WhiteFont_noticker-with+corp-svg</title>
	<style>
		tspan { white-space:pre }
		.shp0 { fill: #db9c27 } 
		.shp1 { fill: #ffffff } 
	</style>
	<g id="#db9c27ff">
		<path id="Layer" class="shp0" d="M69.41 0L70.39 0C85.92 0.68 101.02 6.3 113.6 15.34C128.24 25.35 144.02 34.85 161.8 37.7C171.11 39.35 180.84 38.15 189.53 34.43C198.94 30.41 208.06 25.51 216.17 19.21C217.75 17.91 219.59 17 221.57 16.47C221.16 21.17 218.05 24.85 215.42 28.52C207.47 39.1 198.35 48.98 187.45 56.56C181.61 60.51 175.12 63.73 168.13 64.95C155.18 67.13 141.82 64.34 130.13 58.65C122.25 55.02 115.75 49.17 108.46 44.58C98.55 38.25 88.26 32.18 76.96 28.7C54.84 23.09 30.69 25.08 10.05 34.95C6.78 36.44 3.72 38.66 0.01 38.84C2.18 31.34 7.88 25.6 13.36 20.34C28.39 6.37 49.21 0.26 69.41 0Z" />
		<path id="Layer" class="shp0" d="M49.2 59.81C57.69 58.17 66.39 57.23 75.04 57.86C83.68 58.94 92.21 61.16 100.05 65.02C108.3 68.6 115.25 74.42 122.89 79.07C132.78 85.21 143.22 90.72 154.52 93.75C164.07 96.48 174.4 97.14 183.95 94.02C196.67 89.76 208.4 82.9 219.04 74.8C219.66 74.69 220.88 74.47 221.49 74.36C221.16 79.27 217.49 82.95 214.88 86.84C205.96 98.52 195.67 109.55 182.86 117C173.38 122.75 161.75 124.29 150.91 122.59C140.39 121.37 130.42 117.07 121.58 111.36C110.04 102.93 98.07 94.85 84.88 89.2C74.24 84.53 62.5 83.04 50.96 83.29C36.65 83.09 22.48 86.75 9.53 92.7C6.46 94.06 3.74 96.42 0.24 96.55C0.24 93.3 2.49 90.79 4.14 88.2C14.67 73.28 31.58 63.73 49.2 59.81Z" />
		<path id="Layer" class="shp0" d="M8.41 140.43C23.11 124.04 45.29 115.67 67.03 115.34C79.36 114.73 91.5 118.38 102.5 123.73C110.01 127.54 116.56 132.9 123.77 137.22C136.39 144.92 150.07 151.74 164.95 153.38C172.36 153.99 179.99 153.45 186.94 150.64C198.01 146.14 208.7 140.49 218.05 133C218.99 132.05 220.39 132.31 221.6 132.14C221.28 134.05 220.71 135.92 219.62 137.54C214.54 145.59 208.32 152.87 201.7 159.7C192.31 168.91 181.42 177.77 168.08 180.07C151.28 182.81 133.86 177.54 120.07 167.9C111.14 161.27 101.79 155.18 91.91 150.05C75.92 141.37 57 139.32 39.14 141.63C27.68 143.23 16.36 146.47 6.19 152.09C4.33 153.19 2.28 153.93 0.08 153.85C1.36 148.64 5 144.42 8.41 140.43Z" />
	</g>
	<g id="#ffffffff">
		<path id="Layer" fill-rule="evenodd" class="shp1" d="M293.11 38.61C300.27 38.48 307.43 38.61 314.59 38.53C316.64 43.17 319.36 47.46 322.51 51.42C335.4 67.83 348.38 84.16 361.26 100.58C362.1 101.45 362.64 102.93 364.06 103.02C364.27 88.68 364.07 74.34 364.16 60C364.2 52.79 363.28 45.64 362 38.56C367.61 38.55 373.23 38.57 378.84 38.55C378.59 40.06 378.32 41.57 378.04 43.07C377.35 45.62 377.44 48.3 376.84 50.87C376.46 67.89 376.78 84.92 376.68 101.94C376.8 105.91 376.29 109.95 377.12 113.87C377.34 116.56 377.43 119.26 377.96 121.91C378.51 123.81 379.05 125.7 379.64 127.59C374.07 127.53 368.5 127.65 362.94 127.51C360.74 120.54 355.53 115.21 351.27 109.47C340.12 95.36 329.15 81.12 317.97 67.03C317.79 79.01 317.95 90.99 317.89 102.98C318.09 109.39 318.56 115.83 319.94 122.11C320.31 123.48 320.57 124.87 320.86 126.26C321.15 126.53 321.73 127.06 322.02 127.33C315.5 127.85 308.96 127.46 302.43 127.57C303.01 125.34 303.52 123.09 304.02 120.83C304.55 117.94 304.49 114.96 305.16 112.09C305.59 91.71 305.35 71.29 305.28 50.91C302 46.14 297.53 42.3 293.11 38.61ZM554.03 38.57C566.89 39.04 580.98 36.44 592.58 43.53C605.33 50.84 607.28 70.74 596.7 80.72C589.87 87.25 579.88 89.09 570.75 88.22C570.83 94.87 570.51 101.54 571.27 108.16C571.66 114.7 573.4 121.06 574.01 127.57C567.12 127.56 560.22 127.61 553.33 127.54C555.99 118.63 557.47 109.36 557.53 100.06C557.57 87.7 557.53 75.33 557.55 62.97C557.53 54.74 557.16 46.3 554.03 38.57ZM570.76 83.6C573.23 83.28 575.62 82.57 578 81.87C583 79.93 587.24 75.78 588.56 70.49C591.06 61.99 587.8 51.53 579.87 47.06C577.35 45.54 574.35 45.38 571.58 44.58C570.13 57.53 570.99 70.59 570.76 83.6ZM752.07 42C759.07 36.39 768.84 37.29 777.02 39.36C776.37 43.27 775.41 47.13 775.1 51.09C774.81 51.58 774.24 52.56 773.95 53.05C773.85 52.46 773.64 51.27 773.53 50.68C770.87 47.38 766.04 45.57 762.08 47.59C759.16 48.79 758.46 52.12 757.69 54.82C757.66 58.72 757.67 62.61 757.65 66.5C762.17 66.59 766.69 66.5 771.21 66.58C771.2 69.29 771.19 71.99 771.22 74.69C769.19 75.06 766.46 73.96 765 75.66C763.77 74.74 762.29 74.4 760.55 74.63L760.41 75.26C759.72 75.26 758.34 75.26 757.65 75.26C757.7 88.52 757.66 101.77 757.66 115.03C757.67 116.33 757.82 117.62 758.1 118.89C758.36 120.24 758.63 121.6 758.94 122.94C759.64 124.4 760.3 125.86 760.96 127.34C754.64 127.6 748.32 127.62 742.01 127.56C743.88 123.23 745.16 118.66 745.25 113.92C745.52 101.08 745.16 88.23 745.43 75.39C743.35 74.72 741.17 74.6 739.02 74.43C741.46 71.67 743.54 68.61 745.38 65.41C744.95 57.29 745.35 47.68 752.07 42ZM1144.15 41.77C1149.71 40.7 1155.24 39.44 1160.8 38.29C1159.09 47.42 1158.36 56.69 1158.72 65.97C1158.71 81.65 1158.73 97.32 1158.71 113C1158.68 118.07 1160.11 123.07 1162.57 127.5C1160.13 128.15 1157.6 128.36 1155.13 127.88C1150.76 127.73 1146.39 127.96 1142.03 127.72C1144.57 123.25 1146.83 118.29 1146.55 113.02C1146.42 98.36 1146.7 83.71 1146.66 69.05C1146.45 62.07 1147.19 55.02 1146.02 48.1C1145.39 45.99 1144.76 43.88 1144.15 41.77ZM1267.9 43.75C1281.56 37.56 1297.57 36.69 1311.68 41.89C1311.72 46.78 1311.81 51.69 1311.61 56.58C1308.52 54.76 1305.24 53.29 1301.87 52.1C1300.28 51.66 1298.69 51.26 1297.15 50.75C1293.47 50.67 1289.78 49.41 1286.15 50.14C1284.07 50.35 1282.01 50.54 1279.96 50.83C1278.66 51.27 1277.38 51.65 1276.11 52.07C1270.1 54.41 1264.63 58.35 1261.03 63.75C1253.88 74.22 1253.14 88.39 1258.2 99.89C1261 106.01 1265.91 111.08 1271.78 114.34C1281.45 118.94 1293.09 118.94 1302.91 114.8C1306.8 113.3 1310.08 110.7 1313.61 108.54C1313.52 113.07 1313.38 117.61 1313.2 122.14C1301.38 128.84 1287.32 130.16 1274.09 128.08C1265.24 126.15 1256.76 121.72 1250.93 114.68C1247.58 110.54 1244.9 105.87 1243.15 100.84C1242.66 99.3 1242.23 97.74 1241.77 96.2C1241.51 94.49 1241.24 92.78 1240.82 91.11C1240.35 85.68 1240.71 80.24 1241.83 74.91C1245.42 61.34 1255.3 49.82 1267.9 43.75ZM714.54 41.5C718.58 37.03 726.86 39.03 728.52 44.81C731.29 50.94 725.65 58.57 718.93 57.37C712.22 55.61 709.92 46.41 714.54 41.5ZM788.68 39.71C793.62 37.41 799.5 40.93 800.52 46.08C801.8 51.01 798.35 56.94 793.07 57.34C788.24 57.89 783.97 53.65 783.65 48.98C783.2 45.23 785.24 41.33 788.68 39.71ZM885.98 39.16C892.86 39.08 899.74 39 906.62 39.2C909.2 46.36 914.75 51.79 919.3 57.71C925.52 65.68 932.24 73.29 938.14 81.5C947.61 69.8 957.11 58.12 966.54 46.38C968.3 44.24 969.77 41.88 971.01 39.4C976.94 39.18 982.87 39.31 988.81 39.32C985.19 43.51 982.5 48.56 981.91 54.12C981.08 64.06 981.7 74.05 981.51 84.01C981.71 93.96 981.05 103.95 981.97 113.87C982.44 118.67 983.69 123.37 985.73 127.75C982.81 127.82 979.89 127.74 977 128.09C972.7 127.24 968.34 128.58 964.07 127.7C964.41 126.86 964.77 126.02 965.15 125.19C965.45 124.17 965.79 123.16 966.15 122.16C967.95 114.93 968.18 107.44 968.09 100.02C968.02 88.23 968.21 76.43 967.99 64.63C957.54 76.31 948.44 89.18 938.14 101C928.33 88.69 918.34 76.51 908.47 64.25C908.51 81.55 907.96 98.88 908.79 116.16C909.27 118.04 909.59 119.96 910 121.87C910.62 123.87 911.31 125.85 912.02 127.83C906.34 127.97 900.64 127.5 894.99 128.11C893.64 127.96 892.3 127.82 890.97 127.7C891.75 125.53 892.5 123.34 893.19 121.14C893.45 119.46 893.74 117.79 894.17 116.16C894.99 108.13 894.54 100.05 894.65 92C894.66 77.58 894.65 63.15 894.66 48.73C891.7 45.6 888.98 42.24 885.98 39.16ZM1043.98 75.23C1050.43 67.78 1057.52 60.91 1064.37 53.83C1064.49 58.32 1064.38 62.82 1064.48 67.32C1069.61 67.31 1074.76 67.31 1079.9 67.32C1079.89 69.99 1079.88 72.66 1079.82 75.32C1074.68 75.29 1069.55 75.31 1064.42 75.31C1064.47 87.5 1064.37 99.69 1064.46 111.88C1064.31 114.64 1066.28 116.87 1068.46 118.28C1072.25 120.67 1076.86 118.76 1080.86 118.13C1078.43 120.95 1076.55 124.29 1073.87 126.87C1069.49 128.23 1064.66 128.83 1060.12 127.98C1056.34 127.26 1053.47 124.35 1052 120.91C1051.11 116.97 1052.05 113 1052.28 109.05C1052.31 97.82 1052.25 86.59 1052.3 75.36C1049.52 75.3 1046.74 75.32 1043.98 75.23ZM441.04 65.31C446.88 65.33 452.73 65.34 458.57 65.31C456.73 76.2 461.07 86.64 462.88 97.21C463.46 99.84 464.04 102.48 464.97 105.02C466.84 95.2 470.61 85.85 473.12 76.18C474.12 72.55 475.27 68.96 476.34 65.35C479.68 65.31 483.03 65.32 486.37 65.35C489.03 76.68 492.07 87.91 494.9 99.19C495.32 100.79 495.59 102.42 495.93 104.04L496.94 103.13C499.28 93.46 501.86 83.84 504.27 74.18C504.54 71.23 504.43 68.26 504.11 65.31C508.64 65.35 513.17 65.27 517.71 65.39C514.73 70.19 511.89 75.19 510.85 80.82C508.78 89.65 506.24 98.36 504.16 107.19C503.71 108.76 503.36 110.36 502.95 111.94C501.85 117.2 500.17 122.31 499.03 127.56C495.92 127.58 492.8 127.58 489.7 127.55C489.43 126.4 489.15 125.26 488.85 124.12C488.52 122.79 488.25 121.46 487.88 120.14C487.55 118.81 487.27 117.47 486.91 116.15C485.05 108.38 482.85 100.7 481.08 92.92C480.64 91.32 480.27 89.71 479.82 88.13C479.64 87.22 479.3 85.41 479.12 84.51C477.03 91.32 474.94 98.14 473.1 105.03C472.69 106.32 472.32 107.62 471.91 108.9C470.27 115.19 468.33 121.38 466.46 127.6C463.44 127.56 460.43 127.56 457.42 127.63C456.76 125.5 456.38 123.31 455.86 121.15C453.89 110.67 451.1 100.36 449.1 89.89C448.29 86.66 447.69 83.38 446.98 80.13C445.98 75.52 444.2 71.06 441.53 67.15C441.41 66.69 441.16 65.77 441.04 65.31ZM711.11 65.39C717.2 65.25 723.29 65.36 729.38 65.32C728.36 67.5 727.51 69.76 727.01 72.12C725.94 80.38 726.68 88.75 726.46 97.06C726.62 104.35 726.05 111.69 726.95 118.95C727.4 122.01 728.53 124.88 729.96 127.6C723.6 127.53 717.24 127.62 710.89 127.55C711.31 126.72 711.75 125.91 712.21 125.1C714.4 120.75 714.38 115.77 714.48 111.02C714.48 100.67 714.49 90.32 714.48 79.97C714.5 74.93 713.6 69.82 711.11 65.39ZM782.91 65.37C788.92 65.27 794.93 65.36 800.94 65.31C799.61 68.41 798.26 71.6 798.34 75.04C798.23 88.35 798.31 101.67 798.3 114.99C798.2 119.4 799.3 123.8 801.69 127.52C795.12 127.55 788.54 127.74 781.98 127.41C782.29 127.11 782.92 126.51 783.23 126.21C785.36 122.52 785.92 118.27 785.9 114.08C785.89 101.72 785.97 89.35 785.86 76.99C785.86 72.92 784.44 69.08 782.91 65.37ZM1458.81 65.72C1461.47 65.65 1464.2 65.47 1466.83 66.13C1467.83 66.47 1468.85 66.81 1469.89 67.17C1474.46 69.42 1477.96 73.39 1480.34 77.85C1484.74 88.29 1484.91 100.49 1480.77 111.03C1477.72 118.89 1470.56 125.41 1461.98 126.22C1455.43 126.47 1449.56 122.9 1444.71 118.86C1444.8 125.29 1444.33 131.76 1445.25 138.15C1445.58 141.32 1447.22 144.13 1447.96 147.2C1441.68 147.21 1435.4 147.21 1429.13 147.21C1430.11 145.12 1431.09 143.02 1431.98 140.88C1433.07 132.66 1432.25 124.31 1432.51 116.04C1432.49 104.03 1432.52 92.02 1432.49 80.02C1432.49 75.07 1431.09 70.25 1429.12 65.75C1434.45 65.84 1439.79 65.55 1445.12 65.89C1445.39 70.11 1444.56 74.31 1444.68 78.54C1448.22 73.21 1452.42 67.68 1458.81 65.72ZM1444.69 80.09C1444.7 91.47 1444.7 102.84 1444.69 114.21C1445.21 114.49 1446.26 115.04 1446.78 115.31C1451.63 117.16 1457.35 117.45 1462.01 114.88C1466.76 112.4 1469.48 107.24 1470.48 102.15C1470.98 98.14 1470.94 94.07 1470.67 90.05C1470.02 83.47 1465.21 77.73 1458.86 75.9C1456.6 75.51 1454.32 75.5 1452.08 75.87C1449.43 76.95 1446.87 78.24 1444.69 80.09ZM405.07 67.05C406.65 66.62 408.24 66.22 409.81 65.73C412.61 65.51 415.41 65.51 418.22 65.72C419.75 66.22 421.32 66.67 422.87 67.18C429.19 69.92 432.97 76.26 434.2 82.83C434.77 87.94 435.03 93.1 434.67 98.23C423.87 98.33 413.06 98.54 402.26 98.62C402.54 104.76 404.34 111.69 409.79 115.26C415.84 118.78 423.1 116.75 429.14 114.3C430.38 113.7 431.64 113.13 432.89 112.52C433.15 112.63 433.43 112.75 433.71 112.87C431.36 116.62 430.05 120.92 427.75 124.7C419.97 128.23 410.42 128.89 402.52 125.32C395.62 122.15 391.47 115.06 390.14 107.8C388.37 98.19 388.84 87.93 392.76 78.87C395.39 73.7 399.63 69.26 405.07 67.05ZM410.69 73.64C404.22 76.44 402.25 84.05 402.07 90.48C410.34 90.51 418.61 90.51 426.88 90.48C426.95 86.85 426.61 83.22 425.4 79.77C424.2 77.91 423.01 75.88 420.99 74.8C417.93 72.8 414.12 73.3 410.69 73.64ZM618.96 66.98C620.61 66.63 622.28 66.34 623.9 65.83C632.46 64.62 642.44 67.04 646.93 75.08C647.39 76.63 647.78 78.19 648.24 79.75C648.23 92.17 648.51 104.59 648.5 117.01C648.44 120.68 649.93 124.09 650.89 127.56C646.18 127.59 641.47 127.57 636.76 127.58C636.75 124.89 636.72 122.21 636.85 119.53C636.22 119.05 635.6 118.58 634.97 118.12L636.72 117.52C636.82 111.82 636.74 106.12 636.74 100.43C631.47 100.48 626.2 100.38 620.94 100.5C619.45 104.84 617.44 109.82 619.92 114.21C622.77 118.85 629.07 119.09 633.9 118.44C634.59 118.9 635.29 119.36 635.99 119.83C632.5 121.94 629.65 124.93 626.26 127.17C617.83 129.31 607.31 124 606 114.94C605.09 109.66 608.34 104.57 612.4 101.42C619.48 95.53 628.72 93.52 636.6 89.05C636.76 85.54 637.47 81.19 634.36 78.68C628.19 73.27 618.38 74.26 612.09 79C612.96 75.13 614.11 71.32 615.51 67.61C616.66 67.42 617.81 67.21 618.96 66.98ZM678.12 67.15C680.01 66.68 681.95 66.32 683.85 65.8C688.28 65.45 692.74 65.46 697.19 65.81C698.91 66.23 700.67 66.5 702.44 66.74C701.52 71.12 701.6 75.6 701.26 80.04C699.31 78.19 697.28 76.42 694.93 75.12C693.63 74.67 692.34 74.25 691.07 73.77C688.98 73.66 686.89 73.66 684.81 73.7C677.58 74.95 672.43 81.12 670.93 88.07C670.09 92.7 670.28 97.45 670.77 102.11C671.2 103.38 671.6 104.67 672.01 105.95C673.94 110.72 677.66 114.81 682.52 116.65C689.09 119.22 696.44 117.8 702.86 115.45C701.37 119.15 698.92 122.38 696.65 125.62C683.97 130.65 667.61 125.26 661.23 112.94C655.67 103.06 656.89 90.75 661.74 80.85C665.24 74.43 671.12 69.36 678.12 67.15ZM830.82 66.76C836.82 65.37 843 65.29 849.11 65.84C850.6 66.2 852.13 66.45 853.67 66.69C853.52 70.17 853.36 73.66 853.16 77.14C852.95 77.85 852.53 79.27 852.32 79.98C848.68 74.81 841.97 72.85 835.91 73.79C834.61 74.26 833.31 74.67 832.02 75.08C823.68 79.27 821.27 89.55 821.8 98.13C822.5 104.43 824.9 111.07 830.43 114.69C837.36 119.52 846.57 118.45 854.04 115.55C854.23 115.69 854.43 115.84 854.66 115.99C852.2 119.14 850.65 123.03 847.86 125.88C835.09 130.43 819.28 125.14 812.74 113.02C807.58 103.12 808.44 91.03 813.21 81.16C816.75 74.14 823.31 68.96 830.82 66.76ZM1007.86 67.58C1013.1 65.64 1018.82 65.9 1024.27 66.63C1029.26 68.52 1033.61 72.13 1035.75 77.1C1036.19 78.36 1036.64 79.63 1037.13 80.88C1038.19 86.68 1038.6 92.56 1038.37 98.44C1028.18 98.46 1017.99 98.78 1007.81 98.75C1007.23 98.98 1006.08 99.42 1005.51 99.64C1006.39 105.44 1007.79 112.17 1013.15 115.52C1018.69 118.95 1025.47 117.38 1031.15 115.19C1033.21 114.3 1035.3 113.45 1037.26 112.33C1036.49 113.87 1035.81 115.44 1035.14 117.02C1033.83 119.76 1032.53 122.49 1031.25 125.24C1024.84 127.81 1017.79 128.46 1011 127.39C1004.3 126.04 998.6 121.34 995.71 115.19C991.63 104.69 991.47 92.76 995.05 82.1C997.21 75.82 1001.85 70.45 1007.86 67.58ZM1014.83 73.71C1007.83 76.18 1005.82 84.15 1005.25 90.75C1013.65 90.77 1022.05 90.78 1030.46 90.75C1030.6 86.67 1029.79 82.65 1028.26 78.89C1026.68 76.23 1024.03 74.7 1021.22 73.64C1019.08 73.59 1016.95 73.62 1014.83 73.71ZM1173.4 87.95C1170.22 77.42 1179.63 66.57 1190.15 66.06C1193.81 65.21 1197.52 66.11 1201.15 66.76C1202.62 67.35 1204.1 67.91 1205.6 68.5C1205.54 71.83 1205.54 75.17 1205.55 78.51C1203.36 76.61 1200.97 74.96 1198.41 73.62C1194.92 73.1 1190.88 72.64 1187.99 75.11C1185.2 77.27 1184.82 81.18 1185.67 84.38C1189.39 90.08 1196.35 92.2 1201.02 96.93C1209.71 104.78 1207.76 121.66 1196.47 126.13C1188.45 129.19 1179.4 127.97 1171.24 125.99C1171.29 120.57 1171.4 115.15 1171.74 109.74C1175.73 113.92 1178.57 120.29 1184.92 121.24C1188.68 121.33 1192.53 119.45 1194.11 115.88C1195.37 111.95 1193.99 107.56 1190.51 105.3C1183.98 100.52 1175.56 96.51 1173.4 87.95ZM1339.8 67.69C1344.36 65.78 1349.23 64.9 1354.16 65.74C1364.57 67.62 1373.44 75.59 1376.27 85.8C1376.51 87.18 1376.79 88.56 1377.19 89.92C1377.54 93.64 1377.51 97.4 1377.18 101.13C1376.66 103.01 1376.36 104.94 1375.9 106.84C1371.87 120.35 1357.93 130.22 1343.86 129.23C1334.69 128.02 1325.96 122.49 1322.14 113.89C1321.11 111.37 1320.49 108.72 1319.81 106.1C1319.22 99.99 1319.38 93.81 1320.78 87.82C1321.23 86.58 1321.63 85.32 1322.11 84.08C1325.17 76.24 1332.16 70.74 1339.8 67.69ZM1342 75.02C1332.46 80.42 1330.86 93.18 1333.27 102.93C1335.22 111.51 1342.23 118.78 1351.06 120.15C1352.37 120.24 1353.7 120.33 1355.06 120.4C1358.44 117.73 1361.49 114.5 1363.3 110.52C1369.3 98.44 1365.71 81.09 1352.99 74.9C1349.38 74.07 1345.54 73.87 1342 75.02ZM1385.05 66.29C1389.92 66.22 1394.79 66.29 1399.67 66.24C1399.21 71.19 1399.15 76.18 1399.54 81.13C1400.23 79.72 1400.99 78.31 1401.71 76.88C1404.18 72.72 1407.48 68.87 1412.1 67.05C1414.74 66.35 1417.49 66.52 1420.2 66.62C1420.86 66.92 1422.16 67.51 1422.81 67.81C1422.66 72.9 1421.56 77.89 1421.05 82.94C1418.42 81.39 1416.21 78.8 1412.97 78.66C1407.88 77.98 1403.07 80.41 1399.35 83.66C1399.29 94.11 1399.34 104.56 1399.31 115.01C1399.27 118.43 1399.43 121.92 1400.66 125.15C1401 125.94 1401.69 127.53 1402.03 128.32C1396.05 128.33 1390.09 128.33 1384.12 128.32C1386.03 124.83 1386.87 120.97 1387.14 117.02C1386.85 115.32 1386.79 113.59 1386.85 111.87C1387.22 109.97 1387.19 108.03 1386.87 106.13C1386.87 105.31 1386.88 103.69 1386.89 102.88C1387.36 100.26 1386.64 97.62 1387.07 95C1386.78 92.63 1386.76 90.25 1386.89 87.87C1387.15 86.3 1387.14 84.7 1386.89 83.12C1386.73 78.72 1387.13 74.26 1386.13 69.93C1385.71 68.73 1385.36 67.51 1385.05 66.29ZM1098.17 68.18C1104.54 65.98 1111.54 65.75 1118.22 66.66C1123.62 68.54 1128.92 72.32 1130.41 78.12C1130.98 84.53 1130.49 90.99 1130.75 97.42L1131.46 97.62C1131.21 98.47 1130.72 100.17 1130.47 101.02C1131.87 102.6 1130.93 105.04 1131.21 106.99C1131.57 113.89 1130.29 121.18 1133.57 127.59C1128.8 127.93 1123.98 128.12 1119.23 127.78C1119.27 125.06 1119.27 122.35 1119.25 119.63C1115.7 122 1112.37 124.67 1109.19 127.49C1103.77 128.48 1097.95 127.59 1093.69 123.92C1087.62 119.67 1086.82 110.2 1091.83 104.83C1098.85 96.39 1110.32 94.65 1119.28 89.15C1119.13 86.35 1119.77 83.31 1118.35 80.73C1116.95 78.3 1114.26 77.21 1111.93 75.92C1108.34 75.12 1104.61 75.06 1101.03 75.87C1098.85 76.99 1096.69 78.15 1094.4 79C1095.82 75.46 1096.37 71.52 1098.17 68.18ZM1103.81 116.18C1108.06 119.73 1114.34 119.91 1119.33 117.86C1119.24 112.35 1119.21 106.83 1119.34 101.32C1114.21 100.23 1108.9 101.08 1103.7 100.79C1101.51 105.45 1099.63 112.06 1103.81 116.18ZM1489.77 113.54C1491.51 113.57 1493.27 113.66 1495.03 113.9C1497.79 115.61 1500.07 118.54 1499.59 121.97C1499.49 127.73 1491.92 131.46 1487.4 127.71C1482.12 124.15 1483.8 115.39 1489.77 113.54Z" />
	</g>
</svg>