<svg version="1.2" baseProfile="tiny-ps" xmlns="http://www.w3.org/2000/svg" viewBox="0 0 1520 1240" width="1520" height="1240">
	<title>NPMcorp_horizontal_WhiteFont_noticker-with+corp-svg</title>
	<style>
		tspan { white-space:pre }
		.shp0 { fill: #db9c27 } 
	</style>
	<g id="#db9c27ff">
		<path id="Layer" class="shp0" d="M475.86 0L482.58 0C589.06 4.66 692.58 43.2 778.83 105.18C879.19 173.81 987.38 238.94 1109.28 258.48C1173.11 269.8 1239.81 261.57 1299.39 236.06C1363.9 208.5 1426.43 174.91 1482.03 131.71C1492.86 122.8 1505.48 116.56 1519.05 112.92C1516.24 145.15 1494.92 170.38 1476.89 195.54C1422.38 268.08 1359.86 335.82 1285.13 387.8C1245.09 414.88 1200.6 436.96 1152.68 445.32C1063.89 460.27 972.3 441.14 892.15 402.13C838.13 377.24 793.57 337.13 743.59 305.66C675.64 262.26 605.1 220.64 527.63 196.78C375.98 158.31 210.41 171.96 68.9 239.63C46.48 249.85 25.5 265.07 0.07 266.3C14.95 214.88 54.02 175.52 91.59 139.46C194.64 43.67 337.38 1.78 475.86 0Z" />
		<path id="Layer" class="shp0" d="M337.31 410.08C395.51 398.83 455.16 392.39 514.46 396.71C573.7 404.11 632.18 419.33 685.93 445.8C742.49 470.35 790.14 510.25 842.52 542.13C910.32 584.23 981.9 622.01 1059.37 642.78C1124.84 661.5 1195.66 666.03 1261.13 644.63C1348.34 615.43 1428.76 568.39 1501.71 512.86C1505.96 512.1 1514.32 510.59 1518.5 509.84C1516.24 543.5 1491.08 568.73 1473.19 595.41C1412.03 675.49 1341.49 751.11 1253.66 802.19C1188.67 841.62 1108.93 852.18 1034.62 840.52C962.49 832.16 894.14 802.67 833.53 763.52C754.42 705.72 672.35 650.33 581.93 611.59C508.98 579.57 428.49 569.35 349.37 571.07C251.27 569.69 154.12 594.79 65.34 635.58C44.29 644.91 25.64 661.09 1.65 661.98C1.65 639.7 17.07 622.49 28.38 604.73C100.58 502.43 216.51 436.96 337.31 410.08Z" />
		<path id="Layer" class="shp0" d="M57.66 962.84C158.44 850.46 310.5 793.07 459.55 790.81C544.08 786.63 627.31 811.66 702.73 848.34C754.21 874.46 799.12 911.21 848.55 940.83C935.07 993.62 1028.86 1040.38 1130.87 1051.63C1181.68 1055.81 1233.99 1052.11 1281.63 1032.84C1357.53 1001.99 1430.82 963.25 1494.92 911.9C1501.36 905.38 1510.96 907.16 1519.26 906C1517.06 919.09 1513.16 931.92 1505.68 943.02C1470.86 998.22 1428.21 1048.13 1382.83 1094.96C1318.45 1158.11 1243.79 1218.85 1152.33 1234.62C1037.15 1253.41 917.72 1217.28 823.18 1151.18C761.96 1105.72 697.86 1063.97 630.12 1028.8C520.5 969.28 390.78 955.23 268.34 971.07C189.77 982.04 112.16 1004.25 42.44 1042.78C29.69 1050.32 15.63 1055.4 0.55 1054.85C9.32 1019.13 34.28 990.19 57.66 962.84Z" />
	</g>
	<g id="#ffffffff">
	</g>
</svg>