<svg version="1.2" xmlns="http://www.w3.org/2000/svg" viewBox="0 0 1520 1520" width="1520" height="1520">
	<title>a3AuXkYE_400x400-svg</title>
	<style>
		.s0 { fill: #00148c } 
		.s1 { fill: #3de02e } 
		.s2 { fill: #00b0f0 } 
		.s3 { fill: #f53d33 } 
		.s4 { fill: #fadb00 } 
	</style>
	<g id="#00148cff">
		<path id="Layer" class="s0" d="m0 0h909.9c-109 109-217.9 218.2-327.1 327-14.1-13.8-28.5-27.4-41.9-42-180.4 180.1-360.4 360.7-540.9 540.7z"/>
		<path id="Layer" class="s0" d="m994.6 0h418.7c-346 346.9-692.7 693.3-1039.4 1039.6-14.3-13.6-28.5-27.3-42.2-41.4-105.3 104.8-210.1 210.1-315.4 315-5.7 5.7-11.1 11.7-16.3 17.9v-251.4c18.5-21.4 39.7-40.4 59.4-60.7 186.8-186.8 373.7-373.6 560.4-560.4 15.8-15.7 32.2-30.9 46.4-48.1-13.7-13.2-27.2-26.6-40.3-40.5 11.8-13.7 24.5-26.5 37.5-39.1 110.6-110.2 220.6-220.9 331.2-330.9z"/>
		<path id="Layer" class="s0" d="m1498.3 0h21.7v396.9c-49.8 52.2-102 102.2-152.6 153.6-23.1 22.5-45 46.1-68.8 67.7-13.2-14.1-26.9-27.5-40.8-40.8-73.9 70.5-144.7 144.2-217.5 216-242.1 242.2-484.5 484.2-726.4 726.6h-250.8c131-132.2 263.1-263.2 394.5-395.1-13.5-14.2-27.1-28.2-40.8-42.1 82-84.6 166.4-166.8 249.3-250.5 277.4-277.4 555-554.7 832.2-832.3z"/>
		<path id="Layer" class="s0" d="m1341.7 660.7c59.5-59.5 119.7-118.4 178.3-178.9v419.5c-110.4 112.2-222.8 222.5-333.5 334.4-14-14-28.2-27.9-42.1-42.1-109.1 108.6-217.7 217.6-326.5 326.4h-251.1c271.9-272.6 544.7-544.4 816.5-817-13.6-14.4-27.6-28.4-41.6-42.3z"/>
		<path id="Layer" class="s0" d="m1228.6 1277.9c97.1-97.2 194.9-193.9 291.4-291.8v533.9h-449.8c66.9-66.5 133.4-133.4 200.2-200q-20.7-21.2-41.8-42.1z"/>
	</g>
	<g id="#3de02eff">
		<path id="Layer" class="s1" d="m909.9 0h84.7c-110.6 110-220.6 220.7-331.2 330.9-13 12.6-25.7 25.4-37.5 39.1 13.1 13.9 26.6 27.3 40.3 40.5-14.2 17.2-30.6 32.4-46.4 48.1-186.7 186.8-373.6 373.6-560.4 560.4-19.7 20.3-40.9 39.3-59.4 60.7v-254c180.5-180 360.5-360.6 540.9-540.7 13.4 14.6 27.8 28.2 41.9 42 109.2-108.8 218.1-218 327.1-327z"/>
	</g>
	<g id="#00b0f0ff">
		<path id="Layer" class="s2" d="m1413.3 0h85c-277.2 277.6-554.8 554.9-832.2 832.3-82.9 83.7-167.3 165.9-249.3 250.5 13.7 13.9 27.3 27.9 40.8 42.1-131.4 131.9-263.5 262.9-394.5 395.1h-63.1v-188.9c5.2-6.2 10.6-12.2 16.3-17.9 105.3-104.9 210.1-210.2 315.4-315 13.7 14.1 27.9 27.8 42.2 41.4 346.7-346.3 693.4-692.7 1039.4-1039.6z"/>
	</g>
	<g id="#f53d33ff">
		<path id="Layer" class="s3" d="m1367.4 550.5c50.6-51.4 102.8-101.4 152.6-153.6v84.9c-58.6 60.5-118.8 119.4-178.3 178.9 14 13.9 28 27.9 41.6 42.3-271.8 272.6-544.6 544.4-816.5 817h-252.9c241.9-242.4 484.3-484.4 726.4-726.6 72.8-71.8 143.6-145.5 217.5-216 13.9 13.3 27.6 26.7 40.8 40.8 23.8-21.6 45.7-45.2 68.8-67.7z"/>
	</g>
	<g id="#fadb00ff">
		<path id="Layer" class="s4" d="m1186.5 1235.7c110.7-111.9 223.1-222.2 333.5-334.4v84.8c-96.5 97.9-194.3 194.6-291.4 291.8q21.1 20.9 41.8 42.1c-66.8 66.6-133.3 133.5-200.2 200h-252.3c108.8-108.8 217.4-217.8 326.5-326.4 13.9 14.2 28.1 28.1 42.1 42.1z"/>
	</g>
</svg>