<svg version="1.2" xmlns="http://www.w3.org/2000/svg" viewBox="0 0 1501 567" width="1501" height="567">
	<title>NicoletNationalBank-logo-svg</title>
	<style>
		.s0 { fill: #006942 } 
		.s1 { fill: #7e8083 } 
	</style>
	<g id="Layer">
		<path id="Layer" class="s0" d="m414.6 24.7c-37.6 4.2-56.7 6.6-56.7 76.3v313.6h-10.1l-262.3-326.7h-1.2v232.5c0 61.4 12.5 74.5 56 76.3v11.3h-140.1v-11.3c45.3-3 57.8-11.9 57.8-76.3v-262.9c-24.4-29.8-34-32.8-57.8-32.8v-11.3h101.9l228.4 286.7h1.2v-199.1c0-68.5-16.7-73.3-57.2-76.3v-11.3h140.1z"/>
		<path id="Layer" fill-rule="evenodd" class="s0" d="m378.3 399.1c37-1.8 47.1-5.4 47.1-51.8v-138.4c0-35.1-11.3-35.8-20.9-35.8-8.3 0-16.1 1.2-23.8 2.4v-8.9c31-10.1 61.4-21.5 92.5-32.8l2.3 1.8v211.7c0 39.3 3 49.4 44.1 51.8v8.9h-141.3zm63.9-357.5c17.9 0 31.1 13.7 31.1 30.4 0 17.3-13.2 30.4-31.1 30.4-21.4 0-29.8-19-29.8-30.4 0-11.3 9-30.4 29.8-30.4zm297.5 278.8c-32.2 68-71 93.6-119.3 93.6-47.7 0-111.5-38.7-111.5-132.9 0-97.8 69.2-147.3 133.6-147.3 21.4 0 48.2 9 63.1 18.5 18 12.5 25.7 31 25.7 41.7 0 13.7-9.5 25.1-27.4 26.3-15.5 1.1-25.7-14.3-29.2-27.5l-3.6-13.1c-4.8-17.8-7.8-28.6-39.4-28.6-22.1 0-76.9 18.5-76.9 106.1 0 68.6 41.1 113.9 91.2 113.9 42.9 0 65-25.6 85.3-56.1zm270.1-45.5c0 59.1-41.7 141.9-132.4 141.9-76.8 0-130.5-61.4-130.5-141.9 0-73.3 48.9-138.3 128.8-138.3 78.1 0 134.1 51.9 134.1 138.3zm-53.6 17.3c0-73.9-30.4-138.8-85.3-138.8-37.6 0-70.3 30.9-70.3 92.9 0 44.1 13.6 153.8 85.2 153.8 30.4 0 70.4-22.6 70.4-107.9zm32.1 106.9c35.2-2.4 45.9-10.1 45.9-43v-284.3c0-26.9-3.5-36.4-26.8-36.4-7.8 0-13.1 0.6-20.3 1.2v-9.5c31.6-7.8 63.2-16.1 94.8-26.2l2.4 1.1v356c0 34.5 10.1 39.3 44.8 41.1v8.9h-140.8zm365.6-84.6c-6 18.4-40.6 99.5-126.5 99.5-66.2 0-111.5-48.9-111.5-133.5 0-110.3 74-146.7 121.7-146.7 56 0 98.3 31 104.9 109.1h-185.5c7.2 105.6 55.6 130 94.9 130 53.1 0 78.7-40.6 92.4-62.6zm-72.2-90.7c-4.2-28.5-10.1-68.5-57.2-68.5-32.8 0-56.1 16.1-65.6 68.5zm204.1-62.1h-60.2v170.5c0 18.5 0 53.7 30.4 53.7 19.1 0 29.8-13.1 36.4-20.9l7.7 6.6c-14.3 25.6-42.3 45.3-69.7 45.3-30.5 0-54.9-16.1-54.9-75.7v-179.5h-31.6c-1.2-0.6-2.4-2.4-2.4-4.1 0-7.2 13.1-10.8 26.2-23.9 22.7-23.2 31.6-36.4 53.7-68 4.2 0 4.2 3 4.2 7.8v69.1h60.2c0 0 0 19.1 0 19.1z"/>
		<path id="Layer" fill-rule="evenodd" class="s1" d="m98.6 564.7h-14.5l-66-87.9v87.9h-10.9v-98.7h14.5l65.9 87.6v-87.6h11zm145.2 0h-11.8l-12.9-26.9h-61.1l-12.8 26.9h-11.8l49.5-98.7h10.9zm-55.4-91.2l-26.9 56.5h54zm145.1 0.2h-38.7v91h-10.9v-91h-38.9v-7.7h88.5zm33.5-7.6h11v98.7h-11zm105 100.2c-28.5 0-51.6-22.8-51.6-50.9 0-28.1 23.1-50.9 51.6-50.9 28.5 0 51.5 22.8 51.5 50.9 0 28.1-23 50.9-51.5 50.9zm-0.5-94.9c-24.5 0-39.6 16.4-39.6 43.2 0 11.1 2.5 21.3 7.4 28.9 6.2 9.9 19 15.9 33.5 15.9 24.6 0 39.2-16.2 39.2-43.8 0-28-14.8-44.2-40.5-44.2zm171.6 93.4l-66-88v88h-10.9v-98.7h14.5l66 87.6v-87.6h10.9v98.7zm159.7 0h-11.8l-12.9-27h-61.2l-12.7 27h-11.8l49.4-98.7h11zm-55.4-91.2l-26.9 56.5h54zm160.8 83.5v7.7h-70.7v-98.7h11v91zm147.5-91c13.8 0 18.4 1 24.9 4.9 7.2 4.4 11.2 11.4 11.2 19.5 0 12-8.4 19.3-25.4 22.2 21 3.1 29.2 10.1 29.2 24.8 0 8.8-3.8 16.4-10.4 20.5-6.6 4.3-17.2 6.8-27.6 6.8h-41.2v-98.7zm0.2 91c18.4 0 28.3-6.8 28.3-19.5 0-8.9-5.4-15.8-14.1-18.5-5.9-1.7-13.4-2.5-24.6-2.5h-18.1v40.5c0 0 28.5 0 28.5 0zm-4.5-48.2c10.4 0 14.7-0.8 19.9-3.8 5.7-3.6 9.1-8.9 9.1-15.2 0-5.3-2.8-10.2-7.1-12.9-4.4-2.3-8.7-3.2-16.9-3.2h-29v35.1zm182.1 55.9h-11.9l-12.8-26.9h-61.2l-12.7 26.9h-11.8l49.4-98.7h11zm-55.4-91.2l-26.9 56.6h54zm167 91.2l-66-87.9v87.9h-10.9v-98.7h14.6l65.9 87.6v-87.6h10.9v98.7zm87-54.3l58.6 54.3h-14.7l-56.8-54.3 53.4-44.4h13.4zm-25.1-44.4h11v98.7h-11z"/>
	</g>
</svg>