<svg version="1.2" xmlns="http://www.w3.org/2000/svg" viewBox="0 0 1806 264" width="1806" height="264">
	<title>logo-gold@2x-svg</title>
	<style>
		.s0 { fill: #e0b759 } 
	</style>
	<g id="#e0b759ff">
		<path id="Layer" class="s0" d="m751.8 3.2c-0.1-2.3 2.9-3.6 4.7-2.3 80.9 56.4 161.8 112.8 242.7 169.1 0.1-54 0-108.1 0-162.2 0-1.9 1.8-3.2 3.6-3 16.5 0 33 0 49.6 0 1.7-0.2 3.7 1.1 3.6 3q0 126.5 0 253c0 2.8-3.7 3.5-5.5 1.8q-121-82.6-241.9-165.2c-0.1 52.8 0 105.6-0.1 158.3 0.3 1.9-1.4 3.7-3.3 3.5q-25.1 0-50.2 0c-1.7 0.1-3.3-1.2-3.2-2.9q-0.1-126.5 0-253.1zm-420.8 2.1c0.9-0.5 2-0.5 3-0.5 16.3 0 32.6 0 48.9 0 1.7-0.1 3.5 1.1 3.4 2.9q0 124.3 0 248.6c0.1 1.8-1.7 3.1-3.3 2.9q-25.2 0-50.3 0c-1.8 0.1-3.4-1.7-3.2-3.5 0-82.2 0.1-164.5 0-246.7-0.1-1.4 0.2-3 1.5-3.7zm98.6 2.4c-0.1-1.8 1.9-3 3.5-2.9 90.5 0 181.1 0 271.6 0 2.1-0.3 4.1 1.3 3.9 3.5 0.1 13.8 0 27.5 0 41.3 0 1.2 0 2.6-1 3.4-1.1 1-2.8 0.7-4.1 0.8-35.5 0-71 0-106.5 0q0 101.2 0 202.5c0.1 1.8-1.9 3.1-3.6 2.9-16.3 0-32.6 0-48.9 0-1.1 0-2.4-0.2-3.1-1.1-1.1-1.2-0.7-3-0.8-4.4q0.1-100 0-199.9-53.7 0-107.4 0c-1.8 0.2-3.7-1.1-3.6-3q0-21.5 0-43.1zm702.6-2.4c1.4-0.7 3-0.4 4.5-0.5 15.8 0 31.6 0 47.5 0 2.3-0.2 3.7 2 3.4 4.1 0 82.3 0.1 164.5 0 246.7 0.2 1.9-1.4 3.8-3.4 3.6q-25 0-50.1 0c-2 0.2-3.6-1.7-3.4-3.6 0-82.2 0-164.4 0-246.6-0.1-1.4 0.2-3 1.5-3.7zm130.1 2.5c-0.1-1.9 1.9-3.2 3.7-3q24.8 0 49.6 0c2-0.2 3.8 1.6 3.5 3.6q0 100.9 0 201.8c60.6 0 121.2 0 181.8 0 2-0.2 3.8 1.6 3.6 3.6q0 20.9 0 41.8c0.2 2-1.6 3.8-3.6 3.6q-117.7 0-235.5 0c-1.6 0-3.2-1.3-3.1-3q0-124.2 0-248.4zm286.1 0.6c-0.3-2 1.5-3.7 3.5-3.6q107.7 0 215.5 0c2-0.2 3.7 1.6 3.5 3.5q0 20.7 0 41.3c0.2 1.7-1 3.7-2.9 3.7-54.1 0-108.2 0-162.3 0 0 16.9 0 33.8 0 50.7q50.9 0 101.9 0c1.6-0.2 3.3 1.1 3.3 2.8q0 21.6 0 43.3c0.1 1.7-1.7 3-3.3 2.8q-51 0-101.9 0 0 28.7 0 57.3c65.5 0 131 0 196.5 0 1.7-0.2 3.5 1.2 3.5 3 0 14.1 0 28.3 0 42.5 0.2 2-1.6 3.7-3.6 3.5q-125.2 0-250.3 0c-2 0.2-3.7-1.6-3.4-3.6q0-123.6 0-247.2z"/>
		<path id="Layer" fill-rule="evenodd" class="s0" d="m0.7 11.6q-0.1-0.1-0.1-0.1v-1.4q0 0 0 0zm3.2-4.8c47.4 0 94.9 0 142.3 0 22.2 0.1 44.9-1.1 66.6 4.6 13.8 3.6 27.2 10.5 35.8 22.1 9.4 12.2 12.6 28 12.9 43.2 0.9 17.2-7.3 34.8-21.7 44.3 11.9 3.4 22.6 10.7 30.1 20.5 8.8 11.1 13.4 25.3 13.7 39.4 0 14-1.6 28.5-8.1 41.1-5.2 10.4-14.1 18.8-24.3 24.1-12 6.3-25.4 9.3-38.7 11.1-13.9 1.8-27.9 2-41.9 2-55.3 0-110.7 0-166 0-1.9 0.2-3.4-1.1-3.9-2.8v-244.9q-0.1-0.7 0-1.4v-0.8 0.8c0.3-1.8 1.3-3.5 3.2-3.3zm53.5 48.4c-0.1 8.4 0.3 16.9-0.4 25.3 0.1 37.1 0 74.3 0.1 111.4 0.6 6.2 0.2 12.4 0.3 18.7q59.5 0 119 0c9.5 0 19.1-0.3 28.3-2.9 5.6-1.6 11.3-4.4 14.9-9.4 3.8-5.1 4.7-11.8 4.4-18-0.2-5.9-1.8-12.1-6.1-16.4-5-5.3-12.4-7.3-19.4-8.5-10.5-1.7-21.2-1.3-31.7-1.3q-23.5 0-47 0c-1.7 0-3-1.8-2.7-3.4q0-21.3 0-42.5c-0.1-1.8 1.6-3.3 3.3-3.1q18.4 0 36.7 0c8.1 0 16.2 0.4 24.2-1.2 6.4-1.3 12.9-4 16.9-9.4 4.3-5.8 4.8-13.6 3.7-20.5-0.9-5.8-4.5-11-9.6-13.8-7.3-4.1-16-4.7-24.2-5q-55.4 0-110.7 0z"/>
	</g>
</svg>