<svg version="1.2" xmlns="http://www.w3.org/2000/svg" viewBox="0 0 1521 257" width="1521" height="257">
	<title>logo-blue-svg</title>
	<style>
		.s0 { fill: #083b92 } 
	</style>
	<path id="Layer" fill-rule="evenodd" class="s0" d="m304.4 1.2c1.9 1.5 3.7 3.3 5.4 5.2 13.7 14.7 27.3 29.4 41 44.2l141.8 152.9c1.2 1.3 2.3 2.5 4.2 4.4 0.2-2 0.4-3.1 0.4-4.2-0.7-31.3-1.4-62.7-2.1-94l-1-46.3q-0.2-11.6-0.5-23.2c-0.2-5.6-0.7-11.3-1.7-16.8-1.5-7.8-5.5-11.2-13.4-12.3-3.8-0.6-7.5-0.8-11.3-1.1-1.1-0.1-2.3 0.1-3.2-0.3-0.8-0.3-1.8-1.3-1.8-1.9 0.1-0.9 0.8-2.1 1.5-2.5 1.3-0.5 2.8-0.7 4.2-0.7 6.4 0.1 12.8 0.3 19.3 0.3q14.8 0 29.7 0c4.6 0 9.1-0.2 13.7-0.3 0.6 0 1.2 0 1.9 0 2 0.2 4.3-0.1 4.9 2.6 0.3 1.6-1.4 2.5-4.7 2.8-2.5 0.2-5 0.6-7.4 1-5.7 1.2-9.4 4.7-10.1 10.4-0.8 5.9-1.3 11.9-1.3 17.8-0.3 46.7-0.4 93.3-0.6 140-0.1 21.2-0.1 42.3-0.2 63.5 0 3.4-0.3 6.8-0.8 10.2-0.4 3-2.2 3.9-4.7 2.4-2.5-1.6-4.8-3.5-6.9-5.6-13.2-13-26.4-26-39.4-39.2-49.1-49.9-96.4-101.5-143.3-153.6-1-1.1-2.1-2.1-3.9-3.9 0 2.7-0.1 4.3 0 6 1.2 46 2.4 92 3.8 138.1 0.3 10.7 1.1 21.5 1.9 32.3 0.2 2.9 1.2 5.8 2.2 8.6 1.7 4.8 5.1 7.8 10.2 8.8 2.9 0.6 5.9 0.9 8.9 1.3 1.5 0.2 3.1 0.2 4.7 0.2 1.8 0.1 4.2 0 4.1 2.7-0.2 2.4-2.5 2.6-4.4 2.6-9.5-0.1-19.1-0.4-28.7-0.5q-8-0.1-16 0c-8.1 0.2-16.1 0.4-24.1 0.5q-1 0.1-1.9 0c-1.7-0.2-3.1-0.9-3-2.9 0.1-1.9 1.6-2.2 3-2.3 3.6-0.4 7.2-0.7 10.8-1.3 5.4-0.9 8.5-4.2 9.8-9.5 2-8 2-16.1 2.1-24.2 0.1-6.9 0.1-13.8 0.1-20.7 0.1-41.7 0.1-83.4 0.2-125 0.1-19.4 0.2-38.9 0.4-58.3 0-2.1 0.3-4.4 0.9-6.5 0.9-3 2.7-3.7 5.3-1.7zm278.5 0c1.9 1.4 3.5 3.1 5.1 4.8q31.9 34.3 63.7 68.7 58.8 63.3 117.5 126.7c1.9 2 3.8 3.9 5.7 5.9l0.8-0.5c0-1.6 0.1-3.3 0-4.9q-0.8-38.8-1.7-77.6c-0.6-29.1-1.2-58.2-1.9-87.3-0.2-4.5-0.8-9.1-1.7-13.5-1.6-7.9-5.4-11.2-13.3-12.4-3.8-0.6-7.5-0.8-11.3-1.1-1.1-0.1-2.3 0.2-3.2-0.3-0.9-0.4-1.7-1.4-1.9-2.3-0.1-0.6 0.8-1.8 1.5-2.1 1.4-0.4 3-0.7 4.6-0.6 6.8 0 13.5 0.2 20.3 0.2q13.7 0.1 27.3 0c5.1 0 10.1-0.2 15.1-0.3 1.1 0 2.3-0.2 3.3 0.2 1.2 0.5 2.8 1.4 3 2.3 0.4 1.9-1.4 2.5-3 2.8-3.1 0.4-6.3 0.6-9.3 1.2-5.4 1.1-8.9 4.5-9.6 9.8-0.9 6.4-1.5 13-1.5 19.6-0.3 48.7-0.4 97.4-0.6 146.1 0 19-0.1 37.9-0.2 56.9 0 3-0.3 5.9-0.6 8.9-0.6 3.7-2.3 4.6-5.5 2.4-2.4-1.5-4.6-3.4-6.6-5.3-12.9-12.8-25.9-25.6-38.7-38.6-49.1-49.9-96.4-101.5-143.2-153.5-1.2-1.2-2.3-2.4-4.1-4.3 0 7.3-0.1 13.4 0 19.5 0.6 23.3 1.3 46.6 1.9 69.9 0.6 21.5 1.1 43 1.7 64.4 0.3 8.9 0.4 17.9 2.6 26.6 0.6 2.2 1.4 4.5 2.4 6.6 1.6 3.2 4.2 5.5 7.9 6.3 3.8 0.7 7.7 1.2 11.6 1.8 1.2 0.1 2.5 0.1 3.7 0.1 1.8 0.2 3.8 0.2 3.7 2.6-0.1 2.3-2 2.5-3.8 2.7q-2.1 0.1-4.2 0c-9.8-0.2-19.5-0.7-29.3-0.8-5.9 0-11.9 0.4-17.9 0.6-5.7 0.1-11.3 0.2-17 0.2q-1.6 0.1-3.3-0.1c-1.5-0.2-2.9-1.1-2.5-2.7 0.3-0.9 1.5-2 2.5-2.3 1.4-0.4 3.1-0.2 4.7-0.3 12.4-0.9 16.3-4.3 17.3-16.5 0.9-9.7 1.2-19.4 1.2-29.1 0.2-41.8 0.1-83.7 0.2-125.5 0.1-22.4 0.3-44.8 0.5-67.2 0-2.3 0.2-4.7 0.8-6.9 0.9-3.2 2.7-3.8 5.3-1.8zm521.4 3.7c16.4 1.1 32.7 0.3 49.1-0.2 2.5-0.1 5-0.1 7.5-0.1 1 0 2.1-0.1 2.8 0.3 1 0.6 2.2 1.7 2.2 2.5 0.1 0.8-1.3 1.9-2.2 2.4-0.8 0.4-1.9 0.1-2.8 0.2-3 0.3-6 0.6-8.9 1-5.9 1-9.9 4.2-10.9 10.2-0.9 5.6-1.6 11.2-1.6 16.8-0.1 50.8-0.2 101.5 0 152.3 0.1 10.6 1.1 21.3 2.6 31.8 1.5 11.7 6.1 15.9 18 17.5 6.7 0.9 13.4 1.6 20.2 1.5 9.7-0.1 19.5-0.4 29.1-1.5 9.5-0.9 16.4-6.2 20.2-15 1.7-4 2.9-8.2 4.2-12.4 0.4-1 0.4-2.3 1-3.1 0.5-0.7 1.7-1.5 2.6-1.4 0.7 0.1 1.7 1.3 1.9 2.2 0.3 1.6 0.3 3.4 0.1 5.1-1.4 9.8-2.7 19.6-4.6 29.2-1.7 8.3-4.2 10.3-12.7 10.2-19.5 0-39-0.4-58.5-0.6-2 0-4.1 0-7.1 0-19.9-1.9-40.8-0.7-61.7-0.2-1.6 0.1-3.2 0-4.8-0.1-1.5-0.1-2.7-0.9-2.8-2.6 0-1.8 1.4-2.3 2.9-2.5 2.8-0.3 5.6-0.7 8.4-1 4.2-0.5 7-3 8.1-6.9 1.2-4.3 2.4-8.8 2.6-13.3 0.8-12 1.4-24.1 1.4-36.1 0.3-40 0.3-79.9 0.3-119.9 0-13.4-0.4-26.9-0.7-40.4-0.1-2.8-0.5-5.6-1-8.4-1-5.2-3.9-9-9.1-10.3-4.2-1.1-8.6-1.5-13-2.1-2-0.3-4.4 0.3-4.8-2.5-0.4-1.7 1.6-2.8 5-2.9 5.7 0 11.4-0.1 17 0.3zm181.7-0.2c1.2 0.1 2.8 1 3.3 1.9 0.8 1.7-1 2.3-2.3 2.9-0.5 0.3-1.1 0.5-1.7 0.7-4.2 2.1-5.5 4.1-4.4 8.7 1 3.7 2.6 7.4 4.5 10.8 8.1 14.3 16.4 28.5 24.7 42.8 10.6 18.1 21.2 36.2 31.9 54.3 0.8 1.4 1.8 2.8 2.9 4.7 0.8-1.3 1.4-2 1.8-2.8 17.4-30.5 34.8-61 52.1-91.5 2.1-3.7 3.9-7.5 5.3-11.5 0.8-2.3 0.9-4.9 0.9-7.4 0.1-4-1.6-6.9-5.7-8.1-1.7-0.5-4.3-0.9-3.9-3.3 0.3-2.6 2.9-2.2 4.9-2.2 2.4-0.1 4.7-0.2 7.1 0 12.4 1.3 24.8 0.6 37.2 0.1 3.2-0.1 6.3-0.2 9.5-0.1 1.1 0 2.2 0.1 3.2 0.5 0.6 0.2 1.4 1.1 1.4 1.6 0 0.8-0.6 1.8-1.2 2.3-0.9 0.5-2.1 0.8-3.2 0.8-9.9 0.5-17.8 5-24.2 12.1-5.6 6.1-10.9 12.6-15.4 19.5-18.2 27.5-34.9 55.9-51 84.6-6.6 11.7-9.8 24-9.6 37.3 0.2 20 0.3 40.1 0.6 60.1 0.1 4.4 0.7 8.8 1.7 13 1.4 6.4 5.8 9.9 12.2 10.6 3.9 0.5 7.8 0.8 11.8 1.2 0.7 0.1 1.5 0 2.3 0.1 1.5 0.1 3 0.4 3.1 2.2 0.1 2-1.4 2.7-3.1 2.9-1.4 0.2-2.8 0.2-4.2 0.2-7.5-0.1-15.1 0.1-22.6-0.4-15.5-1.2-30.9 0.5-46.3 0.3-1.5 0-3.2 0.3-4.7-0.2-1.1-0.3-2.5-1.4-2.7-2.5-0.5-1.7 1.2-2.3 2.7-2.5 2.8-0.4 5.6-0.7 8.4-1 4.8-0.6 7.7-3.5 9.2-7.8 1-2.9 1.8-6 2-9.1q0.8-14.1 1.1-28.2c0.1-11.5-0.2-23.1 0-34.7q0.4-21.3-10.7-39.4-26.4-43.1-53.1-86.1c-4.7-7.6-10.2-14.6-16.7-20.8-6.1-6-12.9-10.6-21.7-11.4-1.7-0.2-3.3-0.8-3.2-2.7 0.2-1.9 1.9-2.5 3.5-2.5 2.8-0.1 5.7-0.1 8.5 0 14.9 0.8 29.9 1.1 44.8 0 3-0.2 6-0.2 9 0zm-1162.7-4.5c2.7-0.1 3.5 2.3 4.4 4.2 1.1 2 1.8 4 2.6 6.1 7.5 19.3 14.9 38.6 22.4 57.8 18.2 46.9 36.4 93.8 54.7 140.6 2.5 6.3 5.6 12.3 8.6 18.3 1.5 2.9 3.4 5.6 5.3 8.3 5.8 8.1 13.8 12 23.7 12.7 1.7 0.1 3.4 0 5.1 0.4 0.9 0.2 2.4 1.3 2.3 1.7-0.2 1.1-1 2.2-1.9 2.8-0.9 0.5-2.1 0.5-3.2 0.5q-29.5-0.4-59-0.9c-0.9-0.1-1.9-0.2-2.8-0.5-1.8-0.7-2.2-2.9-0.6-3.6 5.5-2.7 4.1-6.7 2.5-10.8q-14.4-38.2-29-76.5c-1.7-4.5-1.7-4.5-6.9-4.5h-64.6c-5.1 0-5.3 0.1-6.9 4.7-6.6 19.4-13.3 38.8-19.7 58.2-1.6 4.8-2.7 9.7-3.5 14.6-1.6 9 2.3 13.6 11.6 14 1.4 0.1 2.9-0.1 4.2 0.3 1 0.3 2.4 1.2 2.6 2.1 0.4 1.7-1 2.4-2.5 2.8-0.5 0.1-1 0.1-1.4 0.1-0.8 0-1.6 0.1-2.4 0-20.1-1.4-40.2-0.1-60.3 0-1.9 0-3.9 0.1-5.7-0.4-0.8-0.3-1.7-1.7-1.9-2.7-0.1-0.5 1.3-1.7 2.2-1.9 2.1-0.4 4.4-0.4 6.6-0.5 10.1-0.3 17.9-4.8 22.9-13.4 3.1-5.4 5.7-11.2 7.9-17 21.4-58.2 42.8-116.5 64.2-174.7q6-16.3 12-32.6c0.7-2.1 1.5-4.1 2.5-6.1 0.8-1.8 1.6-4.1 4-4.1zm820.1 2.2c1.5 2.4 2.6 5.1 3.6 7.7 14.7 38.1 29.3 76.2 44.1 114.4 10.9 28 21.8 56 33 83.9 3.1 7.8 7 15.4 11.1 22.8 6.3 11.3 16.2 17.1 29.3 17.1 0.6 0 1.4-0.1 1.9 0.2 1 0.5 2.5 1 2.8 1.8 0.6 1.7-0.9 2.5-2.3 2.9-1 0.3-2.2 0.4-3.3 0.4-19.1-0.3-38.3-0.6-57.5-0.9-0.8 0-1.7 0.1-2.3-0.2-1.1-0.5-2-1.2-3-1.8 0.7-1 1.1-2.2 2-2.8 2.7-1.5 3.1-3.8 2.6-6.4-0.3-1.4-0.8-2.7-1.3-4q-14.3-37.8-28.7-75.6c-1.8-4.8-1.9-5.1-6.5-5.1h-65.5c-4.6 0-5.1 0.3-6.5 4.5-6.7 19.7-13.5 39.4-20 59.1-1.7 5.1-2.7 10.4-3.5 15.6-1.1 6.8 2.3 11.1 9.3 12.1 2.1 0.3 4.4 0.2 6.5 0.4 1.5 0.1 3 0.6 2.9 2.4-0.1 1.7-1.3 2.4-2.9 2.6q-1.6 0.2-3.3 0.1c-6.2-0.2-12.5-0.6-18.8-0.6-7.7-0.1-15.4 0.2-23.1 0.4-6.8 0.1-13.5 0.2-20.3 0.2-1.5 0-3.1-0.2-4.6-0.7-0.7-0.2-1.4-1.4-1.4-2.1 0-0.7 0.9-1.7 1.6-2 1.1-0.4 2.4-0.5 3.7-0.5 14.8 0.6 24.5-6.8 30-19.9 4.9-11.8 9.2-23.9 13.7-36 22.3-60.7 44.6-121.3 66.9-182 1-2.7 2-5.3 3.4-7.8 1.9-3.4 4.4-3.5 6.4-0.2zm-825.3 47.5c-1 1.5-1.7 2.2-2 3-9.9 30.1-19.7 60.2-29.6 90.4 4.4 1.3 60.7 1.3 64.8 0.1-0.2-1.2-0.4-2.4-0.8-3.6q-15.1-42.7-30.2-85.4c-0.5-1.3-1.3-2.6-2.2-4.5zm816.5 0.6c-0.5 0.7-1.1 1.2-1.4 1.8-10 30.3-20 60.6-30.1 91.4 1.4 0.2 2 0.5 2.6 0.5q30 0 59.9 0c0.9 0 1.8-0.5 2.6-0.7-2.2-9.7-31.2-90-33.6-93zm568.7-2.3c-9.8 0-17.8-7.9-17.8-17.7 0-9.7 8-17.6 17.8-17.6 9.8 0 17.7 7.9 17.7 17.6 0 9.8-7.9 17.7-17.7 17.7zm14.9-17.7c0-8.2-6.7-14.8-14.9-14.8-8.3 0-15 6.6-15 14.8 0 8.2 6.7 14.9 15 14.9 8.2 0 14.9-6.7 14.9-14.9zm-15.1-9.8q2.4 0 4 0.6 3 1.1 3 4.2 0 2.1-1.3 3.2-1.4 1.1-3.7 1.5l5.8 7.1q0.5 0.6 1 0.9 0.6 0.3 1.4 0.4v0.5h-4.5l-7-8.6-1.3 0.1v5.5q0 1.5 0.5 1.9 0.5 0.5 2.1 0.6v0.5h-7.8v-0.5q1.6-0.2 2-0.6 0.4-0.5 0.4-2.2v-12.1q0-1.5-0.4-1.9-0.5-0.5-2-0.6v-0.5c0 0 7.8 0 7.8 0zm-0.8 1q-1.2 0-1.5 0.2-0.3 0.2-0.3 0.8v6.9q3.1-0.1 4.4-0.7 2.2-0.9 2.2-3.4 0-2.4-2-3.3-1.1-0.5-2.8-0.5z"/>
</svg>