<svg version="1.2" xmlns="http://www.w3.org/2000/svg" viewBox="0 0 1553 731" width="1553" height="731">
	<title>NMDC_2020SustainabilityReport_EN_v2-108-pdf-svg</title>
	<defs>
		<clipPath clipPathUnits="userSpaceOnUse" id="cp1">
			<path d="m-5336.31-2518.55h8149.94v5768.1h-8149.94z"/>
		</clipPath>
	</defs>
	<style>
		.s0 { fill: #ffffff } 
	</style>
	<g id="Clip-Path: Page 1" clip-path="url(#cp1)">
		<g id="Page 1">
			<path id="Path 2" fill-rule="evenodd" class="s0" d="m838.3 406.9h28.7l71.9 115.8h0.3v-115.8h26.1v156.9h-29.1l-71.2-115.4h-0.7v115.4h-26zm181 0h38.7l43.1 123h0.7l42.1-123h38v156.9h-26v-120.9h-0.3l-43.5 120.9h-22.6l-43.5-120.9h-0.6v120.9h-26.1zm217.7 0h65.1q17.8 0 31.1 6.2 13 6.1 21.6 16.7 8.2 10.7 12.3 25 4.1 14.4 4.1 30.5 0 16.5-4.1 30.9-4.1 14-12.3 24.6-8.6 11-21.6 16.8-13.3 6.2-31.1 6.2h-65.1zm27.4 134.6h27.1q16.1 0 26.3-4.1 9.9-4.5 15.8-12 5.8-7.6 8.2-17.8 2-10.3 2-22.3 0-11.6-2-21.9-2.4-10.3-8.2-17.8-5.9-7.6-15.8-12-10.2-4.1-26.3-4.1h-27.1zm258.8-84.6q-1.7-6.9-4.8-12.7-3.1-5.5-7.9-9.9-4.8-4.1-11.3-6.5-6.5-2.1-15-2.1-12.3 0-21.6 4.8-9.2 5.1-14.7 13.7-5.8 8.6-8.6 19.2-2.7 10.9-2.7 21.9 0 11.3 2.7 21.9 2.8 11 8.6 19.6 5.5 8.2 14.7 13.3 9.3 5.1 21.6 5.1 9.2 0 16.4-3.4 6.8-3.1 12-8.5 5.1-5.9 7.9-13.1 2.7-7.5 3.7-16.1h26.7q-0.7 14.1-5.8 25.7-5.1 11.7-14 20.2-8.9 8.3-20.6 13.1-12 4.4-26.3 4.4-17.5 0-31.5-6.5-14.1-6.5-23.6-17.5-9.6-11.3-14.8-26.3-5.1-14.8-5.1-31.9 0-16.8 5.1-31.5 5.2-15.1 14.8-26 9.5-11.3 23.6-17.8 14-6.9 31.5-6.9 13.3 0 25 3.8 11.6 3.4 20.5 10.6 8.9 6.8 14.4 16.8 5.5 9.9 6.8 22.6zm-686.3-229.9q-0.3-1.7-0.3-4.1 0-0.7 0.3-1.7 0-1 0-2 0.4-1.1 0.4-2.4 0-1.1 0.3-2.1l7.2 0.7q-0.3 1.7-0.7 3.1 0 1.3 0 2.7 0 2.8 0.7 4.5 0.3 1.7 2.4 2.7 2 1.4 6.2 1.7 4.1 0.7 10.6 0.7h33.5v-24.7h7.5v32.2h-45.8q-4.8 0-8.6-0.6-3.4-0.4-6.1-1.4-2.4-1-4.2-2.4-1.3-1.4-2-3.1-1-1.7-1.4-3.8zm39-32.8q-1-1.4-1-3.1 0-1 0.4-1.7 0.3-1.1 0.6-1.4 0.7-0.7 1.4-1 1-0.4 1.7-0.4 1.1 0 2.1 0.4 0.7 0.3 1.4 1 0.3 0.3 0.6 1.4 0.7 0.7 0.7 1.7 0 1-0.7 1.7-0.3 0.7-0.6 1.4-0.7 0.6-1.4 1-1 0.3-2.1 0.3-1.7 0-3.1-1.3zm-11.6 0q-1.4-1.4-1.4-3.1 0-1 0.4-1.7 0.3-1.1 1-1.4 0.4-0.7 1.4-1 0.7-0.4 1.7-0.4 0.7 0 1.7 0.4 0.7 0.3 1.4 1 0.7 0.3 1 1.4 0.3 0.7 0.3 1.7 0 1-0.3 1.7-0.3 0.7-1 1.4-0.7 0.6-1.4 1-1 0.3-1.7 0.3-2.1 0-3.1-1.3zm431-2.1q-1.4-1.4-1.4-3.1 0-1 0.3-1.7 0.4-1 1.1-1.4 0.6-0.6 1.3-1 1-0.3 1.7-0.3 1.1 0 1.7 0.3 1.1 0.4 1.4 1 0.7 0.4 1 1.4 0.4 0.7 0.4 1.7 0 0.7-0.4 1.7-0.3 0.7-1 1.4-0.3 0.7-1.4 1-0.6 0.4-1.7 0.4-1.7 0-3-1.4zm11.9 0q-1.3-1.4-1.3-3.1 0-1 0.3-1.7 0.3-1 1-1.4 0.7-0.6 1.4-1 0.7-0.3 1.7-0.3 1 0 1.7 0.3 0.7 0.4 1.4 1 0.7 0.4 1 1.4 0.4 0.7 0.4 1.7 0 0.7-0.4 1.7-0.3 0.7-1 1.4-0.7 0.7-1.4 1-0.7 0.4-1.7 0.4-2 0-3.1-1.4zm-64.3-13.7h7.5v59.9h-7.5zm-199.9 0h7.5v60h-7.5zm471 15.7q-1.4-1.3-1.4-3 0-1.1 0.4-1.8 0.6-1 1-1.3 0.7-0.7 1.3-1 1.1-0.4 1.8-0.4 1 0 1.7 0.4 1 0.3 1.7 1 0.3 0.3 0.7 1.3 0.3 0.7 0.3 1.8 0 1-0.3 1.7-0.4 0.7-0.7 1.3-0.7 0.7-1.7 1.1-0.7 0.3-1.7 0.3-1.8 0-3.1-1.4z"/>
			<path id="Path 3" fill-rule="evenodd" class="s0" d="m919.4 230.9q-0.7-2.1-0.7-4.8v-47.6h7.5v44.5q0 2.4 0.4 3.8 0 1.7 0.7 2.4 0.3 1 1 1.3 1 0.4 2 0.4h69.2v-0.4q-0.4-0.6-1-1.3-0.4-1.1-0.7-2.4-0.4-1-0.7-2.4 0-1.4 0-2.8 0-3.7 1-6.8 1.4-3.1 3.8-5.5 2-2 5.5-3.4 3-1.4 6.8-1.4 3.4 0 6.2 1 3 1.4 4.8 3.5 2 2 3 5.1 1.1 3.1 1.1 7.2v17.1h-100q-2.7 0-4.8-1-2-1-3.1-2.7-1.3-1.4-2-3.8zm84.5-9.6q0 2.1 0.7 3.8 1.1 1.7 2.4 3 1.4 1.4 3.4 2.1 2.1 0.7 4.5 0.7h6.8v-7.9q0-3.4-0.6-5.5-0.7-2-1.8-3.4-1.3-1.4-3-1.7-1.4-0.7-3.1-0.7-2.1 0-3.8 0.7-1.7 0.7-2.7 2-1.4 1.1-2.1 3.1-0.7 1.7-0.7 3.8zm6.9-27.1q-1.4-1.3-1.4-3 0-1.1 0.4-1.8 0.3-1 1-1.3 0.7-0.7 1.4-1.1 1-0.3 1.7-0.3 1 0 1.7 0.3 1 0.4 1.3 1.1 0.7 0.3 1.1 1.3 0.3 0.7 0.3 1.8 0 0.6-0.3 1.7-0.4 0.7-1.1 1.3-0.3 0.7-1.3 1.1-0.7 0.3-1.7 0.3-1.7 0-3.1-1.4zm516.8-7.2q0.7-0.3 1.8-0.3 1 0 1.7 0.3 0.7 0.4 1.3 1.1 0.7 0.3 1.1 1.3 0.3 0.7 0.3 1.8 0 0.6-0.3 1.7-0.4 0.7-1.1 1.3-0.6 0.7-1.3 1.1-0.7 0.3-1.7 0.3-2.1 0-3.1-1.4-1.4-1.3-1.4-3 0-1.1 0.3-1.8 0.4-1 1.1-1.3 0.3-0.7 1.3-1.1z"/>
			<path id="Path 4" fill-rule="evenodd" class="s0" d="m1318.8 238.4q-2.7 0-4.7-0.7-2.1-0.3-3.1-1.3-1.4-0.7-2.1-2.1-0.7-1-1-2.4-3.1 2.1-5.8 2.8-3.1 0.6-5.8 0.6-2.4 0-5.2-0.6-2.4-0.7-4.4-2.1-2.1-1.7-3.5-4.1-1.3-2.4-1.3-5.5 0-3.1 1.3-5.8 1.4-2.4 3.5-4.5 2-1.7 4.8-3.4 2.7-1.4 5.4-2.4 3.1-1 5.9-2 2.7-0.7 4.8-1.4v-4.5h7.5v26.1q0 1.3 0.3 2.7 0 1 0.7 1.7 0.7 0.7 1.7 1 1 0.4 2.8 0.4h42.1q2.7 0 4.8-0.4 1.7-0.3 3-1 1.1-0.7 1.4-1.7 0.3-1 0.3-2.4 0-2-1-4.1-1.4-2.1-3.4-3.8-2.1-2-4.8-4.1-3.1-2-6.5-4.1l16.8-28.4 5.4 3.7-12.6 22.3q2.7 1.7 5.1 3.8 2.4 2 4.1 4.1 1.7 2.4 2.8 4.8 1 2.7 1 5.5 0 2.7-0.7 5.1-1 2.7-3.1 4.5-1.7 1.7-4.8 2.7-2.7 1-7.2 1zm-10.9-28.1q-4.1 0.7-7.5 1.7-3.5 1.1-6.2 2.8-2.4 1.4-3.8 3.1-1.3 1.7-1.3 4.1 0 1.7 1 3.1 0.7 1.3 2 2 1.1 0.7 2.8 1 1.4 0.4 3.1 0.4 2.7 0 5.4-0.7 2.4-1 4.5-2zm243.7-4.5v32.2c-0.9 0-15.6 0-16.8 0q-1.3-0.3-3.1-0.7-1.7-0.3-3.4-1-1.3-1-2.7-2.1-1 1.7-2.8 2.8-1.7 1-4.4 1c-1.1 0-6.7 0-7.9 0q-1.3-0.3-3.1-0.7-1.7-0.3-3-1.4-1.4-0.6-2.8-1.7-1 1.7-2.7 2.8-1.7 1-4.5 1h-90q-0.7 4.4-2 7.5-1.7 3.1-4.1 5.2-2.4 2-5.9 3.1-3.4 1-7.8 1.7l-0.7-7.2q4.4-0.4 7.2-1.7 2.7-1.1 4.1-3.1 1.3-1.7 1.7-4.1 0.3-2.8 0.3-5.9v-27.7h7.6v24.7h88.3q1.3 0 2-1.1 0.7-1 0.7-3.4v-12h7.5v14.1q2.4 1.3 4.8 2 2.8 0.4 5.8 0.4h3.1q1.4 0 2.1-1.1 0.7-1 0.7-3.4v-15.4h7.5v17.5q2.1 1.3 4.8 2 2.7 0.4 5.8 0.4h6.2v-24.7zm-330-27.7h7.5v59.9h-151.3q-0.3 4.4-2 7.5-1.4 3.1-3.8 5.2-2.4 2-5.8 3.1-3.4 1-7.9 1.7l-0.7-7.2q4.5-0.4 7.2-1.7 2.4-1.1 3.8-3.1 1.4-1.7 2.1-4.1 0.3-2.8 0.3-5.9v-27.7h7.5v24.7h92.1q-0.7-0.7-1.4-2.1-0.3-1.7-0.7-4.4-0.3-2.4-1-4.8-0.7-2.4-1.7-4.2-1-2-3.1-3.4-2-1-5.1-1-1 0-2.1 0-1.3 0.3-2.4 0.3-1.3 0.4-2.4 0.7-1 0.4-1.7 0.7v-6.8q2.4-0.7 4.8-1.4 2.8-0.4 5.8-0.4 3.1 0 5.5 0.7 2.8 1.1 4.5 3.1 1.7 1.7 2.7 4.1 1 2.4 1.7 5.5 0.4 2.7 0.7 5.1 0.4 2.4 1 4.5 0.7 1.7 1.7 2.7 1.1 1.1 2.4 1.1h41.8zm298.8 4.8q-1.3-1.4-1.3-3.1 0-1.1 0.3-1.7 0.3-0.7 1-1.4 0.7-0.7 1.4-1 0.7-0.4 1.7-0.4 1 0 1.7 0.4 0.7 0.3 1.4 1 0.7 0.7 1 1.4 0.4 0.6 0.4 1.7 0 1-0.4 1.7-0.3 0.7-1 1.4-0.7 0.6-1.4 1-0.7 0.3-1.7 0.3-2.1 0-3.1-1.3zm-360.1 72.2q-2 0-3-1.3-1.4-1.4-1.4-3.1 0-1.1 0.3-1.7 0.4-0.7 1.1-1.4 0.3-0.7 1.3-1 0.7-0.4 1.7-0.4 0.7 0 1.7 0.4 0.7 0.3 1.4 1 0.7 0.7 1 1.4 0.4 0.6 0.4 1.7 0 1-0.4 1.7-0.3 0.7-1 1.4-0.7 0.6-1.4 1-1 0.3-1.7 0.3zm-203.6 84.6q0.3 0.7 0.3 1.7 0 1.1-0.3 1.8-0.4 1-1.1 1.3-0.6 0.7-1.3 1.1-1.1 0.3-1.7 0.3-2.1 0-3.5-1.4-1-1-1-3.1 0-1 0.4-1.7 0.3-0.7 0.6-1.3 0.7-0.7 1.8-1.1 0.6-0.3 1.7-0.3 0.6 0 1.7 0.3 0.7 0.4 1.3 1.1 0.7 0.6 1.1 1.3zm309.4-56.8q-1-1.4-1-3.1 0-1 0.3-1.7 0.4-1.1 1-1.7 0.4-0.4 1.4-0.7 0.7-0.4 1.7-0.4 0.7 0 1.7 0.4 0.7 0.3 1.4 0.7 0.7 0.6 1 1.7 0.4 0.7 0.4 1.7 0 0.7-0.4 1.7-0.3 0.7-1 1.4-0.7 0.3-1.4 0.7-1 0.6-1.7 0.6-2 0-3.4-1.3zm-408.7-6.5q0.3 0.6 0.7 1.7 0.3 0.7 0.3 1.7 0 0.7-0.3 1.7-0.4 0.7-0.7 1.4-0.7 0.3-1.7 0.7-0.7 0.6-1.7 0.6-1.7 0-3.1-1.3-1-1.4-1-3.1 0-1 0.3-1.7 0.4-1.1 0.7-1.7 0.7-0.4 1.4-0.7 1-0.4 1.7-0.4 1 0 1.7 0.4 1 0.3 1.7 0.7zm397.1 6.5q-1.4-1.4-1.4-3.1 0-1 0.3-1.7 0.4-1.1 1.1-1.7 0.6-0.4 1.3-0.7 0.7-0.4 1.7-0.4 1.1 0 1.8 0.4 0.6 0.3 1.3 0.7 0.7 0.6 1.1 1.7 0.3 0.7 0.3 1.7 0 0.7-0.3 1.7-0.4 0.7-1.1 1.4-0.7 0.3-1.3 0.7-0.7 0.6-1.8 0.6-2 0-3-1.3zm-385.5-6.5q0.7 0.6 1.1 1.7 0.3 0.7 0.3 1.7 0 0.7-0.3 1.7-0.4 0.7-1.1 1.4-0.3 0.3-1.3 0.7-0.7 0.6-1.7 0.6-1.7 0-3.1-1.3-1.4-1.4-1.4-3.1 0-1 0.4-1.7 0.3-1.1 1-1.7 0.7-0.4 1.4-0.7 0.6-0.4 1.7-0.4 1 0 1.7 0.4 1 0.3 1.3 0.7zm75.7 63.3q0.3 0.7 0.3 1.7 0 1.1-0.3 1.8-0.4 1-1 1.3-0.7 0.7-1.4 1.1-0.7 0.3-1.7 0.3-2.1 0-3.1-1.4-1.4-1-1.4-3.1 0-1 0.4-1.7 0.3-0.7 1-1.3 0.3-0.7 1.4-1.1 0.7-0.3 1.7-0.3 1 0 1.7 0.3 0.7 0.4 1.4 1.1 0.6 0.6 1 1.3zm47.9-60.9q0.7 0.3 1 1.3 0.4 0.7 0.4 1.7 0 0.7-0.4 1.8-0.3 0.6-1 1.3-0.3 0.7-1.4 1.1-0.6 0.3-1.7 0.3-1.7 0-3.1-1.4-1.3-1.3-1.3-3.1 0-1 0.3-1.7 0.4-1 1-1.3 0.7-0.7 1.4-1.1 0.7-0.3 1.7-0.3 1.1 0 1.7 0.3 1.1 0.4 1.4 1.1z"/>
			<path id="Path 5" fill-rule="evenodd" class="s0" d="m1073.4 306.2q1.1 3.8 1.1 8.3v14.7h-70.6q-4.4 0-7.1-1.4-3.1-1-4.8-2.7-1.4 1.7-3.1 2.7-1.7 1.4-4.1 1.4h-23.6q-4.5 0-7.6-1.4-2.7-1-4.8-2.7-1 1.7-2.7 2.7-1.7 1.4-4.5 1.4h-67.4q-3.1 0-4.8-0.7-2-0.3-3.4-1.4-1-0.6-1.7-2-0.7-1-1-2.4-3.1 2-6.2 2.7-2.7 0.7-5.5 0.7-2.4 0-5.1-0.7-2.4-0.7-4.5-2-2-1.7-3.4-4.1-1.4-2.4-1.4-5.5 0-3.1 1.4-5.8 1.4-2.4 3.4-4.5 2.1-1.7 4.8-3.4 2.8-1.4 5.5-2.4 2.7-1 5.5-2.1 2.7-0.7 5.1-1.3v-4.5h7.5c0 1.1 0 28.1 0 28.8q0.4 1 1.1 1.7 0.7 0.7 1.7 1 1 0.4 2.7 0.4h64.4q1.3 0 2-1.4 0.7-1 0.7-3.4v-19.9h7.5v21.9q1.8 1.4 4.5 2.1 2.4 0.7 6.2 0.7h21.9q1.3 0 2-1.4 0.7-1 0.7-3.4v-19.9h7.5v21.9q2.1 1.4 4.5 2.1 2.7 0.7 6.1 0.7h23.7q0.6-2.1 1.7-4.2 1-2.4 2-4.7v-43.5h7.6v32.8q1.7-1.7 3.7-3.4 2.1-1.4 4.1-2.4 2.4-1.4 4.8-2 2.4-0.4 5.2-0.4 4.7 0 7.8 1.4 3.4 1.7 5.8 4.4 2.1 2.8 3.1 6.5zm-210.5-5.1q-4.1 0.7-7.5 1.7-3.4 1-5.8 2.8-2.8 1.3-3.8 3-1.4 1.8-1.4 4.2 0 1.7 0.7 3 0.7 1.4 2.1 2.1 1 0.7 2.7 1 1.4 0.4 3.1 0.4 3.1 0 5.5-0.7 2.4-0.7 4.4-2.1zm204 14.1q0-4.1-0.7-6.9-1-2.4-2.7-4.1-1.4-1.7-3.4-2.4-2.1-0.7-4.5-0.7-2.7 0-5.1 1-2.4 0.7-4.5 2.4-2 1.4-3.7 3.5-1.7 2-3.1 4.4-1.4 2.1-2.4 4.5-1.4 2.4-1.7 4.8h31.8zm454.2-46.3h7.6v60h-45.9q-4.1 0-7.2-1.1-2.7-1.3-4.8-3-1 1.7-2.7 3-1.7 1.1-4.5 1.1h-102.7q-0.6 4.4-2 7.2-1.4 3-3.8 5.1-2.7 2.1-6.1 3.4-3.1 1.1-7.6 1.7l-1-7.2q4.5-0.6 7.2-1.7 2.7-1.3 4.1-3 1.4-2.1 1.7-4.5 0.4-2.4 0.4-5.8v-27.4h7.5v24.6h66.1q-1.1-1-1.4-2.4-0.7-1.3-1-4.1-0.4-2.4-0.7-4.8-0.7-2.4-1.7-4.4-1.4-2.1-3.1-3.1-2.1-1.4-5.5-1.4-0.7 0-2.1 0.4-1 0-2.3 0.3-1.1 0.4-2.4 0.4-1.1 0.3-1.8 0.6v-6.8q2.4-0.7 5.2-1 2.4-0.7 5.5-0.7 3.4 0 5.8 1 2.4 1 4.1 2.7 2 1.8 3.1 4.5 1 2.4 1.3 5.1 0.7 2.8 1.1 5.2 0.3 2.7 1 4.4 0.7 1.7 1.7 3.1 0.7 1 2.4 1h25.7q1 0 2-1 0.7-1.4 0.7-3.8v-19.8h7.5v21.9q1.7 1.4 4.5 2.1 2.4 0.6 6.1 0.6h38zm-48.2 70.6q0.3 1 0.3 1.7 0 1-0.3 1.7-0.4 1-1 1.7-0.7 0.4-1.4 0.7-1 0.4-1.7 0.4-2.1 0-3.5-1.1-1-1.3-1-3.4 0-0.7 0.4-1.7 0.3-0.7 1-1.4 0.3-0.7 1.4-1 0.6-0.3 1.7-0.3 0.7 0 1.7 0.3 0.7 0.3 1.4 1 0.6 0.7 1 1.4zm70.1-70.6h7.2v60h-7.2zm-208.8 70.5q0.4 1.1 0.4 1.7 0 1.1-0.4 1.8-0.3 1-1 1.7-0.3 0.3-1.3 0.7-0.7 0.3-1.8 0.3-1.7 0-3-1-1.4-1.4-1.4-3.5 0-0.6 0.3-1.7 0.4-0.6 1.1-1.3 0.6-0.7 1.3-1.1 1.1-0.3 1.7-0.3 1.1 0 1.8 0.3 1 0.4 1.3 1.1 0.7 0.7 1 1.3zm-132.4-70.5h7.5v59.9h-7.5z"/>
			<path id="Path 6" fill-rule="evenodd" class="s0" d="m1180.2 269.3h7.5v59.9h-68.1q-1 4.4-3.4 7.5-2.4 3.1-6.2 5.2-3.4 2.4-7.8 3.4-4.5 1-9.3 1.7l-1-7.2q8.6-0.7 13.7-3.4 5.1-2.8 6.5-7.2h-6.8q-5.2 0-8.6-1.7-3.4-1.4-5.8-3.8-2.1-2-3.1-5.1-1-2.8-1-5.8 0-3.5 1.3-6.9 1.4-3.1 3.5-5.5 2.4-2.4 5.8-3.7 3.1-1.1 7.2-1.1 1.7 0 3.4 0 2 0.4 3.8 1.4 1.7 0.7 3 2.1 1.8 1.3 2.8 3.4 1.3 2 2 5.1 0.7 3.1 0.7 6.9v7.2h59.9zm-67.4 47.6q0-4.5-1-7.2-0.7-2.8-2.1-4.5-1.4-1.7-3.1-2-1.7-0.7-3.4-0.7-1.7 0-3.4 0.7-1.7 0.7-3.1 2-1 1.4-1.7 3.1-0.7 1.7-0.7 4.1 0 1.7 0.7 3.4 0.3 1.8 1.7 3.1 1.4 1.1 3.4 2.1 2.1 0.7 5.2 0.7h7.5zm209.8 22.9q0.4 0.7 0.4 1.7 0 1.1-0.4 1.7-0.7 0.7-1 1.4-0.7 0.7-1.4 1-1 0.4-1.7 0.4-2 0-3.4-1.4-1-1-1-3.1 0-1 0.3-1.7 0.3-0.7 0.7-1.4 0.7-0.6 1.4-1 1-0.3 2-0.3 0.7 0 1.7 0.3 0.7 0.4 1.4 1 0.3 0.7 1 1.4z"/>
			<path id="Path 7" fill-rule="evenodd" class="s0" d="m1329.8 329.2h-52.4q-2.7 0-4.8-0.7-1.7-0.3-3-1.4-1.4-0.6-2.1-2-0.7-1-1-2.4-3.1 2-5.8 2.7-2.8 0.7-5.9 0.7-2.4 0-4.8-0.7-2.7-0.7-4.7-2-2.1-1.7-3.5-4.1-1-2.4-1-5.5 0-3.1 1-5.8 1.4-2.4 3.5-4.5 2-1.7 4.7-3.4 2.8-1.4 5.9-2.4 2.7-1 5.4-2.1 2.8-0.7 5.2-1.3v-4.5h7.2v26q0 1.7 0.3 2.8 0.3 1 0.7 1.7 0.7 0.7 1.7 1 1 0.4 3.1 0.4h42.8v-24.7h7.5zm-63.3-28.1q-4.5 0.7-7.9 1.7-3.4 1-5.8 2.8-2.4 1.3-3.8 3-1.4 1.8-1.4 4.2 0 1.7 0.7 3 1.1 1.1 2.1 2.1 1.4 0.7 2.7 1 1.7 0.4 3.4 0.4 2.8 0 5.2-0.7 2.7-1.1 4.8-2.1zm-429.6 73.7h715.7v5.4h-715.7zm-287.2 227.8l-0.3-3.4c0 0-1.4-12-9.3-20.2l-1-0.7 0.7-1.4c0.3-1 1-1.7 5.8-1.7 3.4 0 19.5 0.4 25.7 10.3l1 1.7zm-4.1-23.6c4.8 5.8 6.5 12.6 7.5 16.8l13.7-9.6c-4.4-5.2-13.7-7.2-20.9-7.2zm-375.8 25l-19.2-11 1.4-1.7c7.9-11 23.3-14.7 26.7-14.7h1.4l0.7 1.3 0.6 1.1-1 1c-7.9 8.2-9.9 21.2-10.2 21.2zm-13.1-12.3l10.3 5.8c0.7-3.4 2.8-10.2 7.2-16.1-5.1 1.4-12.7 4.8-17.5 10.3z"/>
			<path id="Path 8" fill-rule="evenodd" class="s0" d="m363.2 730.6c-170.1 0-250.6-66.8-251.6-67.4l-2.1-1.8 43.8-71.2 2.4 1.7c1.1 0.7 91.8 54.8 195.8 54.8q8.9 0 17.5-0.3c129.7-7.9 197.8-58.6 198.5-59.3l2.8-2 42.4 70.9-2.1 1.7c-1 0.7-94.1 72.2-245 72.9zm-245.1-70.5c13.7 10.2 92.7 64.4 245.1 64.4h2.4c135.9-0.7 223.8-59.6 238.9-70.3l-36-59.9c-14.3 9.6-82.5 51.4-198.8 58.2q-8.9 0.7-18.2 0.7c-95.5 0-180-45.2-196.1-54.4z"/>
			<path id="Path 9" fill-rule="evenodd" class="s0" d="m173.2 637.1q0 0.4-0.3 0.4l-0.7 0.3h-1.1q-0.6 0.3-1.3 0-0.7 0-1.7-1-1.4-1-1.4-1.4-0.3-0.3 0-1.4 0.7-1.7 3.4-2.7 2.8-1 5.5-0.7l0.3-1.7 3.1-1.4-2.7 8.9-0.4 0.7q-0.3 1 0 1.4c0.4 0.3 0.7 1 1.7 1.4q0 0 0.4 0l10.3 4.8q0.3 0 0.3 0l1.7 0.6q1.7 1.1 4.1-0.3 0.7-0.7 1-0.3 0 0 0 0.3v1q-0.3 1.1 0 1.4 0 0.3 0.7 0.7l1.7 0.7 1.4 0.3q2.1 0.7 4.5-0.7 0.3-0.3 0.6-0.3 0.4 0.3 0 0.7c0 0.4 0 1.8 0 2q0.4 0.7 1.1 0.7l1.3 0.7q1.1 0.3 0.7 1l-1.3 3.1q0 0-0.4 0.3-0.7-0.3-1-0.3-2.7-1-2.7-3.1 0-0.7 0-0.7-0.4-0.3-1.1 0-1 1.1-2 1.1-1.1 0-2.8-0.7-0.3 0-0.3 0 0-0.4-0.4-0.4c-1.7-0.7-2.3-1.7-2.3-3q0-0.7-0.4-0.7 0-0.4-0.7 0-1.3 0.7-2.4 1-1 0-2.4-0.7 0 0-0.3 0 0-0.3-0.4-0.3l-10.6-4.8q-0.3 0-0.3 0-0.3-0.4-0.3-0.4-1.8-0.7-2.1-1.7-0.7-1-0.3-2.7l0.3-1.1q0-0.3 0-1zm-2.7-3.7l1 1q1 0.3 1.7 0.7 0.3 0.3 0.7 0 0 0 0.3-0.7 1.1-1.7 0.4-1.7-0.4-0.4-1.4-0.4-1 0-1.7 0.4l-0.7 0.3q-0.3 0-0.3 0.4z"/>
			<path id="Path 10" fill-rule="evenodd" class="s0" d="m215 650.5h0.6q6.5-2.4 8.9-1.4 1.8 0.4 2.4 2.1 0.7 1.7 0 3.4-1.3 3.4-5.1 4.4-2 0.4-6.2 0.4-3.7-0.4-6.1-1.4l-4.1-1.4q-1.1-0.3-1.1-1l1.1-3.1q0.3-0.7 1-0.3l1.4 0.3q1.7 0.7 3.1 0 1.3-0.3 2.3-3.4v-0.3q2.1-5.2 2.8-13.7 2-0.4 3.8-2.1 0 2.1 1 4.1-2.1 1-2.4 2.4-0.4 0.4-0.4 1l-0.3 2.1q-0.3 2.1-1.4 5.1 0 0-0.7 1.8-0.6 1-0.6 1zm9.2 4.8q-0.7-2.4-2.7-3.1-3.1-1-7.6 1-1.3 0.7-1.3 1-0.4 0.4 0 0.4 2.4 1 5.8 1c2.4 0 4.1 0 5.8-0.3z"/>
			<path id="Path 11" fill-rule="evenodd" class="s0" d="m238.6 666.2q-1.1-0.3-1.7-0.6-3.8-1.1-3.1-3.8 0.7-2.1 3.4-3.8 2.7-2 4.1-1.7 0.7 0.3 1 1.7 0.4 1.7-0.3 4.5l1.4 0.3q0 0 0.3 0l2.4 0.7q3.1 1 3.8-1.7 0.3-0.7 0.3-1.7l0.4-2.8q0.6-4.1 1-6.1l0.3-2.4q0.4-2.4 0.4-4.1 0.3-0.4 0.7-0.4 1.3-1 2-1.7 0.3 3.1 1.4 4.5-1.4 1-1.7 2.4-0.4 0.6-0.4 1.7l-0.3 1.7q-0.4 6.1-1.4 9.2-0.7 3.1-3.4 5.8-2.1 0.7-6.5-0.6 0 0-0.4 0l-2-0.7c-1.4 2.4-3.1 4.1-5.1 5.5q-1.8 1.3-3.8 2-2.4 0.4-3.8 0-2.4-0.7-3.7-4.4-0.7-1.4-0.4-2.1 0-0.3 0.4-0.3 0.3 0 0.3 0.3l0.7 0.7q1 0.7 3.1 1.4 3.4 1 6.1 0 3.1-1.1 4.5-3.5zm1.7-4.4q0.3-1 0-2.1-0.4-1-0.7-1-0.7-0.3-1.4 0.3-0.7 0.7-0.7 1.4 0 0 0 0.4 0.4 0.3 1.4 0.6 0.7 0.4 1.4 0.4zm19.2-12l3.7-2.7-0.3 1.3q-0.7 3.1-1.4 6.2l-0.3 2.7-0.7 2.8-0.4 2.7q-0.3 1-0.3 2.1-1 2.7-2.4 4.8-1.4 1.7-2.1 1.3 0 0 0-0.3 0-0.4 0-0.7 0.7-1 1.1-2.4 0.3-1 0.7-3.1 0-1.7 0.3-2.7l0.3-2.1 0.4-3.4q0.7-4.5 1.4-6.5z"/>
			<path id="Path 12" fill-rule="evenodd" class="s0" d="m269 667.3q0 0-0.3 0.3l-1.4 0.7q-1 0.7-1.3 0.3-1.1 0-2.1-0.7-1.4-0.3-1.7-0.6-0.7-0.7-0.3-1.4 0.3-2.1 2.7-3.8 2.4-1.7 5.1-1.7v-2l2.4-2.1-0.3 9.6-0.4 0.3q0 1.4 0.4 1.7 0.7 0.4 2 0.7l3.1 0.7q1.7 0.4 2.8 0-0.4-1-1.1-2l-0.3-1.1q-0.4 0-0.4-0.3 1.1-1.4 2.8-2.7v-0.4q1.7 3.1 1 6.2-0.3 1.3-1.4 2.7-0.6 1-1.7 1.7c-0.7 0.4-1.3 0.4-2.7 0.4q-0.4-0.4-1-0.4-1.1 0-1.8-0.3-0.3 0-0.6 0-1.7-0.4-2.4-1.4-0.7-0.7-1.1-2.4c0 0 0-1.6 0-2zm-3.7-3.1q0 0 0.3 0l1 0.7q1.1 0.3 1.8 0.3 0.6 0.4 0.6 0 0.4-0.3 0.4-1 0.3-1.7 0-1.7-0.7 0-1.4 0-1 0.3-1.7 1l-0.7 0.3q-0.3 0-0.3 0.4zm3.7-10.6q-1.3-1.8-2.4-3.1 1.4-1.4 2.8-2.8 1 1.8 2 2.4c0.4-0.6 1.4-1 2.1-2q1 1.4 2.7 3.1-1 0.6-2 2-0.4 0.4-1.1 1l-0.3-0.6q-0.7-1.1-1.4-2.1-1.3 1-2.4 2.1zm19.9 23.6q-0.3-1.4-1.7-3.1l2.4-3.4q0.7 1.4 1.3 2 1.1 0.4 2.4 0.7 0 0 0.4 0l12.3 1.7q0.4 0.4 0.4 0.4h1.7q1.7 0.3 3.7-0.4l1.7-0.3 2.1-0.7q0.7 0 2-0.3-3-2.1-5.4-2.4-1.7 0-2.8 0.3h-1c-0.3 0-0.3 0-0.3-0.3q0-0.4 1-1.7 2-2.4 4.1-2.4 1 0.3 3.1 1.3l2 1.1q3.8 2 8.6 2.4 1.4 0.3 3.1 0.3h0.7l-1.8 4.1-3.7-0.3q0 1 1 1l5.1 0.7c0.3 0 2.5 0 2.8 0q2 0 3.7-2.1 0.4-0.3 0.7-0.3 0.4 0 0.4 0.3l0.3 1.1q0 0.6 0.4 1 0.3 0.3 1 0.3c0.2 0 1.7 0 1.7 0l2 0.4q3.1 0 3.5-2.8 0-0.7-0.4-1.7l-0.3-2.7q-0.4-4.1-0.4-6.2l-0.3-2.4q0-2.4-0.7-4.1 0.4-0.3 0.7-0.7 1-1 1.7-1.7 1 2.4 2.4 3.8-1.4 1-1.4 2.7 0 0.7 0 1.7l0.4 1.7q1 6.2 0.7 9.3 0 3.4-2.1 6.5-2 1-6.2 1-0.3 0-0.3 0 0 0-0.3 0-2.8-0.3-3.5-2.4 0-0.7-0.3-0.7-0.3 0-0.7 0.7-1 1-1.7 1.4-1 0.3-2.7 0.3-0.4 0-1.1 0l-5.8-0.3q-1.7-0.4-2.4-1-1-1.1-1-2.4 0.3-1.4 1-2.4l0.4-0.4h-0.7q-4.5 0.4-9.3 2.4l-1.3 0.7q-2.1 0.7-3.5 1-1.3 0.4-3 0-0.7 0-0.7-0.3l-11.7-1.4q-0.3 0-0.6 0l-1.1-0.3q-0.7 0-1 0.7c-1.4 3-2.7 5.4-4.1 6.5q-3.1 2.7-6.2 2.4-1-0.4-2.7-1.7-2.1-1.1-2.1-1.8 0-0.3 0.4-0.3l0.3 0.3q0.4 0 0.7 0 1.7 0.4 4.1-0.3 2.1-0.7 3.8-1.7 2.7-1.7 4.1-4.8zm65-15.1l3.5-3.7-0.4 1.3q0 3.5 0.4 6.5v5.5l0.3 2.8q0 1 0 2 0 2.8-1 5.1-1.1 2.1-1.7 2.1 0 0 0-0.7c0-0.7 0-2 0-3.1q0-1 0-3 0-1.8-0.4-2.8v-2l-0.3-3.5q-0.4-4.4-0.4-6.5zm38.4 11.3q0-0.7-1.1-2c0 0-0.8-0.8-1-1.1l1.7-3.7q1.7 2.4 2.1 5.1 0 1-0.7 2.8-0.7 1.3-1.7 2.7-2.8 2.1-7.5 3.4-4.8 1.4-9.3 1.4-4.8 0.3-7.9-1.4c-2-1-2.7-2.4-3-4.1q0-2.7 1.3-5.1 0.7-1.4 1.1-1.4 0.3 0 0.3 0.3 0 0 0 0.4l-0.3 0.3v0.4c-0.4 0.3-0.4 1-0.4 1.7q0 1.7 2.7 3.1 2.4 1.3 7.6 1 3.4 0 7.5-0.7 4.1-1 6.2-1.7l1.3-0.7q0.7 0 1.1-0.7zm-15.4-3.4q-2.1-1.7-3.8-2.4 1.4-1.7 2.4-3.4 1.4 1 2.4 1.7 0.7-0.7 1.7-2.4 1 1 3.1 2.4-0.7 1-1.4 2.4-0.3 0.3-0.3 1l-0.7-0.3q-1.4-1.1-2.1-1.7-0.7 1.3-1.3 2.7zm19.5-12.3l2.7-3.5 2.4 17.2q0.3 2 1.4 2.7 1 0.7 3.4 0.7 0.7 0 1 0.3v3.5q0 0.3-0.3 0.7-0.4 0-0.7 0-0.7 0.3-2.4 0-1.4 0-2.1-0.4-1-0.7-1.3-1.7-0.7-1-1-3.8l-1.1-5.5q-0.7-3.4-2-10.2z"/>
			<path id="Path 13" fill-rule="evenodd" class="s0" d="m414.5 671.7v-0.3q0-0.4-0.3-1.1-0.4-0.6-0.7-0.3-0.4 0-0.4 0.3-0.6 1.4-2.4 1.4-2.7 0.4-2.7-1.7-0.3-2.1 0.7-4.8 1-2.4 2-2.7 1.4 0 3.5 3.1 1.7 2.3 1.7 4.7 0.7 4.5-1.4 6.2-2.7 2.4-7.9 2.8-1 0.3-1.3-0.4l-0.4-3.4q0-0.7 1.1-0.7l2.7-0.3q3.8-0.4 5.8-2.8zm-2.7-15.4q-1.1 1.7-1.7 3.4-2.1-1.3-3.8-1.7 1-1.7 2.1-3.8 1.3 1.1 3.4 2.1zm-2.1 12q0.4 0.3 0.7 0.3 0.3 0 1-0.3 0-0.4 0-0.7 0-0.3-0.3-0.7-0.4-0.3-0.7-0.3-0.3 0-0.3 0.7-0.4 0.3-0.4 1zm8.2-11.7l2.4-4.1 0.4 1.4q0.3 3.4 1 6.5l0.3 2.8 0.7 2.4 0.7 3q0 1.1 0 1.7 0.4 3.1 0 5.5c-0.3 1.4-1 2.1-1.4 2.1q-0.3 0-0.3-0.4 0-0.3 0-0.6 0-1.1-0.3-2.4 0-1.4-0.4-3.1-0.3-1.7-0.7-2.8l-0.3-2-0.7-3.4q-1-4.5-1.4-6.6zm21.9 15.5q-0.6-1.1-3-2.1l1.7-4.1q0.7 1 1.7 1.4 1 0.3 2.4 0 0 0 0.3 0l12.3-2.1q0.4 0 0.7 0l1.4-0.3c1-0.4 2.1-0.7 3.4-1.7l1.7-1.1 1.4-1q1-0.3 2.1-1-3.5-1.1-6.2-0.4-1.4 0.4-2.4 1.1l-0.7 0.3q-0.3 0.3-0.7-0.3 0-0.4 0.7-2.1 1-2.7 3.1-3.1 1-0.3 3.1 0l2.4 0.4q4.4 0.6 8.9-0.4 1.3 0 3.1-0.7h0.6l-0.6 4.1-3.5 1.1q0.4 1 1.4 0.7l5.1-1.1q0.4-0.3 0.7-0.3l2.4-0.7q3.1-0.7 2.4-3.4 0-0.7-0.7-1.4l-1-2.4q-1.7-4.1-2.4-6.2l-0.7-2q-1-2.4-2-3.8 0.3-0.3 0.6-0.7 0.7-1.3 1.1-2.4 1.7 2.1 3.4 3.1-1 1.4-0.7 2.8 0.4 1 0.7 1.7l0.7 1.7q2.7 5.5 3.4 8.5 1 3.1 0 6.9-1.7 1.7-5.8 2.7-0.4 0-0.7 0.4l-5.5 1q-1.7 0.7-3.1 0-1-0.7-1.3-2-0.4-1.1 0.3-2.4v-0.4l-0.3 0.4q-4.5 1.3-8.2 4.8l-1.4 1q-1.4 1.3-2.7 2-1.4 0.7-2.8 1.1-0.7 0-1 0l-11.6 2q-0.4 0-0.4 0.4h-1.4q-0.6 0-0.6 1-0.4 5.1-1.8 7.5-2 3.4-5.4 4.1-1.1 0-3.1-0.7-2.1-0.6-2.1-1 0-0.3 0-0.3c0.3 0 0.9 0 1.4 0q1.4-0.4 3.4-1.7 2.1-1.1 3.1-2.8 2.4-2.7 2.7-6.1zm48-31.9l2-4.4 0.4 1.3q1 3.4 1.7 6.2l1 2.7 1 2.4 1.1 2.8q0.3 1 0.6 1.7 0.7 2.7 0.4 5.5 0 2-0.7 2.4-0.3 0-0.7-0.7 0 0 0-0.4 0-1-0.7-2.4 0-1.3-0.7-3.1-0.6-1.7-1.3-2.7l-0.7-1.7-1-3.1q-1.8-4.4-2.4-6.5zm12.6-3.1q-2.4-1-4.1-1.3 0.7-2.1 1-3.8 2.1 0.7 3.1 1 0.4-1 0.7-2.7 1.7 0.7 3.8 1.3-0.4 1.1-0.4 2.8-0.3 0.3-0.3 1l-0.7-0.3q-1.4-0.4-2.4-0.7-0.7 1.4-0.7 2.7zm6.9 11.7c-0.4 0.3-0.4 0.3-0.4 0.3l-0.3 1-0.4 0.7q-0.6 0.7-1 1-0.7 0.4-2.4 0.4-1.3 0.3-1.7 0-0.7 0-1-0.7-0.7-2 0.7-4.8 1.3-2.7 3.1-4.1l-0.7-1.4 1-3.4 4.4 8.6v0.3q0.7 1.4 1.4 1.4 0.7 0 2.1-0.4 0 0 0.3 0l5.8-2.4q1.7-0.3 2.8-1.3 1-0.7 0.7-1.4c0-0.3-1.1-1-2.4-1.7q-2.1-0.7-4.2-1l-2.3-0.4q-1.1 0-1.4-0.7c-0.7-0.3-1-1-1.4-2q-0.3-0.7 0-1.4 0-0.3 0.4-1 1.3-2.4 4.7-6.2 3.5-3.4 6.9-6.2l-0.3 4.8q-3.1 2.4-5.9 4.8-2.7 2.8-3.7 4.2 0.7 0 1 0l1.7 0.3q3.4 0.7 5.5 2 2 1.8 3.1 3.8 2 5.8-5.2 8.6l-4.4 1.3q-0.4 0.4-0.7 0.4 0 0-0.3 0-1.4 0.7-2.4 0.3-1.1-0.3-2.1-2l-0.7-1q0 0-0.3-0.7zm-5.2-0.7q0.4 0 0.4 0l1.4-0.4q1 0 1.7-0.3 0.3 0 0.3-0.3 0.3-0.4 0-1.1-0.7-1.7-1-1.3-0.4 0-1.4 0.6-0.7 1.1-0.7 1.8l-0.3 0.6q-0.4 0.4-0.4 0.4zm32.6-3.4q-1.1-1.1-3.5-1.8l0.7-4.1q1 0.7 2.1 0.7 1 0 2.4-0.3 0.3 0 0.3 0l11.3-5.2q0.3 0 0.3-0.3 0.4 0 0.4 0 3.1-1.4 3.4-3.8c0.4-0.7 0.4-1 0.4-1q0.3-0.3 1 0.3 1.4 1.8 3.4 0.4 1.7-0.7 2.4-1.7 0.7-1.1 0.7-3.1 0.3-1.4 0.7-1.4 0.3-0.3 0.3 0l0.7 0.7q1.4 1.7 4.1 0.3-0.7-1-2-1.3 0-2.4 0.6-3.8 1.7 0.7 2.8 2.7 1.3 2.4 1 4.2-0.3 2-2.1 2.7-1.7 0.7-4.1 0.3-0.3 3.5-3 4.5-2.1 1-4.5-0.3-0.3 0-0.7 0-0.3 0-0.3 1.3-0.7 2.1-3.1 3.4-0.7 0.4-1 0.4l-10.6 4.4q0 0.4 0 0.4-0.4 0-0.4 0l-1.3 0.3q-0.4 0.4-0.4 1.4 0.7 5.1 0 7.5-1.4 4.1-4.1 5.2-1 0.3-3.1 0.3-2.4 0-2.7-0.7 0 0 0.3-0.3 0 0 0.4 0 0.3 0 0.7-0.4 1.3-0.3 3-2 1.4-1.7 2.4-3.8 1.4-3.1 1.1-6.1zm-262.9 35.9q-1-1.7-2.4-3.1 1.4-0.6 2.7-2.4 0.7 1.1 1.7 2.1 1.1-1 1.7-1.7 1.4 1.4 2.4 2.7-1 1.1-2.4 2.8-1-1.4-1.7-2.4-1 0.7-2 2zm-88.3-24.3c-0.7-1-1.4-2.4-2.1-3.1q1.4-0.7 3.1-2 0.7 1.3 1.4 2.4 1-0.7 2-1.4 1 2 2.1 3.1-1.4 1-3.1 2.4-0.7-1.7-1.4-2.8-1 0.7-2 1.4zm-9.3-31.5q-1-2.4-2-3.8 2-1 3.4-2 1 1.7 1.4 2.7 1-0.7 2.7-1.4 0.3 1.4 1.7 3.5-1 0.6-2.4 1.7-0.3 0.3-1 0.7l-0.4-0.7q-0.3-1.4-1-2.4-1.3 0.7-2.4 1.7zm29.8 16.1q-1.7 1-3.4 2.4-1-2.4-2.1-3.8 1.4-0.7 3.5-2 0.6 1.7 2 3.4zm132.8 45.9q-1.4 1.4-2.4 3.1-1.7-1.4-3.4-2.4 1-1.4 2.7-3.5 1.1 1.4 3.1 2.8zm135.6-18.9q-1.1 2.1-1.8 3.8-2-1-3.7-1.4 0.7-1.7 1.7-3.7 1.4 0.7 3.8 1.3zm82.8-49.6h-1q-1.4-0.4-2.4-0.4 0-1.7 0-4.1 2 0.7 3.7 1.1-0.3 1.7-0.3 3.4zm1.4 5.1q-2.1-0.7-3.8-0.7 0.3-1.7 0.7-3.7 1.4 0.7 2.7 0.7 0-1.4 0.4-2.8 2 0.7 3.4 0.7-0.4 1.7-0.4 3.8-1.7-0.4-2.7-0.7-0.3 1.4-0.3 2.7zm-403.9 28.8l2.7 1.4 1 10.2 4.1-7.8 2.4 1-5.8 12-2.7-1.4-1.1-10.3-4.1 7.9-2.4-1z"/>
			<path id="Path 14" fill-rule="evenodd" class="s0" d="m169.8 660.1l2.7 1.3-1 14.1-2.8-1 0.4-3.1-4.5-2.1-2 2.1-2.8-1.1zm-3.7 7.2l3.4 1.4 0.3-5.1zm13.7-0.4l-3.7-1.3 1-2.4 9.9 4.1-0.7 2.4-3.7-1.4-4.1 9.9-2.8-1zm10.3 1.4l2.7 1-4.8 12.3-2.7-1z"/>
			<path id="Path 15" fill-rule="evenodd" class="s0" d="m202.3 672.7c4.1 1.4 5.1 5.2 4.1 8.9-1.4 3.5-4.8 5.9-8.6 4.5-4.1-1.4-5.1-5.1-4.1-8.9 1.4-3.8 4.8-5.8 8.6-4.5zm-3.8 11c2.4 0.7 4.1-1 5.2-3.1 0.6-2.4 0.3-4.8-2.1-5.5-2.4-1-4.1 0.7-5.1 3.1-0.7 2.1-0.4 4.5 2 5.5zm13-7.5l3.1 1 2.4 10.3 2.8-8.6 2.7 0.7-4.1 12.7-2.8-0.7-2.7-10.3-2.7 8.6-2.4-1.1z"/>
			<path id="Path 16" fill-rule="evenodd" class="s0" d="m229.7 681.6l3.1 1.1 1 14-2.8-0.7-0.3-3-4.8-1.4-1.7 2.4-3.1-0.7zm-2.4 7.9l3.4 0.7-0.3-5.2zm12.7-4.8l2.7 0.7-2.7 10.6 6.5 1.4-0.7 2.4-9.3-2.4zm25.7 6.2l4.1 0.6 1.1 9.6h0.3l4.4-8.2 4.2 0.7-2.4 13-2.8-0.3 1.7-9.6-5.1 8.9-2.1-0.4-1.7-9.9-1.7 9.3-2.7-0.7zm21.9 4.1l2.7 0.3 3.1 14.1-3.1-0.7-0.7-3.1-4.8-0.7-1.3 2.8-3.1-0.4zm-1.7 7.9l3.4 0.7-0.7-5.2h-0.3zm12-6.5l7.2 1.1c2.3 0.3 3.7 2 3.4 4.1q-0.4 2.4-2.4 3.1c1.3 0.6 1.7 2 1.3 3.4 0 0.7 0 2.4 0.4 3.1l-3.1-0.4q0-1.5 0-3.1c0-1.7-0.3-2.4-2-2.4l-2.8-0.3-0.7 5.1-2.7-0.3zm2 6.2l3.1 0.6c1.4 0 2.1-0.3 2.4-1.7q0-2-1.7-2l-3.4-0.7zm12.7-4.5l3 0.4-1.3 13.3-3.1-0.3zm7.2 0.7l2.7 0.3 5.1 9.3 0.7-8.9 2.8 0.3-1.4 13.4-2.7-0.4-4.8-9.2v-0.4l-0.7 9.3-2.8-0.4zm15.1 1.1l9.9 0.7v2.4l-7.2-0.4v2.8l6.5 0.3-0.3 2.4-6.5-0.4v3.1l7.2 0.7v2.4l-10.3-0.7zm27.4 1.1h5.8c3.4 0 5.8 2 5.8 6.5 0 3.7-1.7 6.8-5.8 6.8h-5.8zm3.1 11h2.7c1.7 0 3.1-1.1 3.1-4.1 0-2.8-1-4.5-3.8-4.5h-2zm12-10.9l7.2-0.4c2.4 0 4.1 1.4 4.1 3.4 0 1.7-0.4 2.8-2.1 3.5 1.7 0.3 2.1 2 2.1 3 0.3 1.1 0.3 2.4 0.6 3.5h-2.7c-0.3-0.7-0.3-2.1-0.7-3.1-0.3-1.4-0.7-2.1-2.4-2.1h-2.7v5.5h-2.7zm3 5.8h3.1q2.1 0 2.1-2 0-1.7-2.1-1.7h-3.4zm11.6-6.5l10.3-0.7v2.4l-7.2 0.7 0.4 2.7 6.5-0.3 0.3 2-6.8 0.7 0.3 3.1 7.2-0.4 0.3 2.4-10.2 0.7zm13.6-1l5.5-0.7c3.4-0.3 6.5 1.4 6.9 5.8 0.3 4.1-1.4 7.2-5.5 7.6l-5.5 0.6zm4.1 10.3h2.4c1.7-0.3 3.4-1.7 3.1-4.4-0.3-2.8-1.4-4.5-4.5-4.1l-2 0.3zm22.2-2.1c-1 1.8-2 2.4-3.4 2.4-4.1 0.7-6.8-2-7.5-5.8-0.7-3.7 1.4-7.2 5.5-7.9 2.7-0.3 5.4 0.7 6.1 3.8l-2.7 0.4c-0.4-1.4-1.7-2.1-3.1-1.8-2.7 0.4-3.1 2.8-3.1 5.2 0.4 2 1.7 4.1 4.5 3.7q2.7-0.3 2.7-3.4l-3.1 0.7-0.3-2.4 5.8-0.7 1 7.2-2 0.4zm7.2-13.4l2.4 13.4-3.1 0.3-2.1-13zm3.8-0.7l2.7-0.7 7.6 7.6-1.7-8.6 2.4-0.7 2.7 13-2.7 0.7-7.2-7.5 1.7 8.5-2.8 0.7zm27.1 6.2c-0.7 1.4-2.1 2.4-3.1 2.7-4.1 0.7-7.2-1.7-8.2-5.1-0.7-4.1 0.7-7.6 4.8-8.6 2.7-0.7 5.5 0.4 6.5 3.4l-2.8 0.4c-0.6-1.4-1.7-1.7-3-1.4-2.8 0.7-3.1 3.1-2.4 5.5 0.3 2.1 1.7 3.8 4.4 3.4 1.7-0.7 2.8-1.7 2.4-3.7l-2.7 0.6-0.7-2 5.5-1.4 1.7 7.2-1.7 0.4zm25.6-15.1c-0.6-1-2-1.7-3.4-1.4-2.4 1-2.7 3.4-2 5.5 0.6 2.4 2.4 4.1 4.8 3.1 1.7-0.4 2.3-1.7 2-3.5l2.7-1c0.7 3.4-1 6.2-4.1 6.9-4.1 1.3-7.2-0.7-8.2-4.5-1.3-3.7 0-7.5 4.1-8.9 2.8-0.7 5.5 0.4 6.9 3.1zm10.2-8.6c3.8-1.3 7.2 0.7 8.6 4.5 1 3.4 0 7.2-4.1 8.5-3.8 1.4-7.2-0.6-8.6-4.1-1-3.7 0-7.5 4.1-8.9zm3.8 11c2.4-1 2.7-3.4 2.1-5.5-1.1-2.4-2.8-4.1-5.2-3.1-2.4 0.7-2.7 3.1-1.7 5.5 0.7 2.1 2.1 3.8 4.8 3.1zm5.5-14l3.8-1.4 6.5 7.2-0.7-9.6 3.7-1.7 4.8 12.6-2.4 1.1-3.4-8.9 0.4 9.9-2.1 1-6.5-7.5 3.4 8.6-2.7 1z"/>
			<path id="Path 17" fill-rule="evenodd" class="s0" d="m531.6 666.2l5.5-2.4c3-1.3 5.1 0 5.8 2.1 1 2 0.7 4.4-2.4 5.8l-2.8 1.4 2.1 4.1-2.7 1.4zm5.1 4.4l2-1c1.4-0.4 2.4-1.4 1.8-2.7-0.7-1.8-2.1-1.4-3.1-0.7l-2.4 0.7zm9.6-11l2.7-1.4 10.3 9.6-2.8 1.4-2.4-2.1-4.4 2.1 0.3 3.1-2.4 1.3zm3.1 7.6l3.1-1.7-3.4-3.5zm5.8-12l2.7-1.3 8.9 5.1-4.1-7.9 2.4-1.3 6.2 11.6-2.4 1.7-8.9-5.5h-0.4l4.5 7.9-2.4 1.4zm20.2-2.1l-8.2-4.4 2.7-1.7 5.5 3.1v-6.2l2.7-1.7v9.6l2.4 4.4-2.4 1.4zm92.1-86c0 0-22.6 21.3-35.6 31.5-10.6 7.9-29.4 19.9-41.4 27.1l-2.8-4.5-11.6-19.5q2.7-1.4 5.5-2.7c20.5-11 35.2-24.4 44.1-31.9 10.3-8.2 17.8-16.4 23.3-22.9zm-533.6 59.9c-11.7-6.8-32.5-19.9-44.2-28.8-13-9.9-35.6-31.1-35.6-31.1l18.5-23.3c5.5 6.5 13.4 14.7 23.3 23.3 8.9 7.2 24 20.5 44.5 31.8 2.4 1.4 5.1 2.8 8.2 4.5zm32.9-517.6l-65.4-56.5c-3.4 7.2-13.4 28.1-16.4 32.5-2.1 2.8-6.9 7.9-14.1 7.9q-2.7 0-5.8-1.3c-7.9-3.1-9.9-12-6.2-24.7 1.1-3.8 3.5-8.9 5.9-14.4 2.4-5.5 4.8-11 6.5-15.4 2-6.5 1.3-8.6 0.6-11q-0.3-1-0.6-2.7c-0.4-2.4-0.7-7.5 1.7-12.3 4.1-8.3 12-12 22.2-10.3 11 2 15.4 11.6 16.5 16.4 0.3 2.1 0.6 4.5 3.4 6.9 2.4 2 68.4 57.5 69.1 58.2l1.7 1zm-66.7-63l66 57.2 14.4-19.2c-10.2-8.5-65.7-54.8-67.7-56.8-4.2-3.5-4.8-7.2-5.2-9.3-0.7-3.7-4.1-11.6-13-13q-2.4-0.3-4.1-0.3c-7.9 0-11.6 4.4-13.7 8.2-2 3.7-1.7 7.9-1.4 9.9 0 1 0.4 1.7 0.7 2.4 0.7 2.8 1.7 5.5-1 13-1.7 4.8-4.1 10.6-6.5 16.1-2.4 5.5-4.8 10.3-5.8 14.1-1.7 5.8-3.8 16.4 4.1 19.5q2 1 4.1 1c5.5 0 8.9-4.1 10.9-6.5 2.8-3.8 13.4-25.7 17.2-33.9zm-8.6-10.6c-3.1 0-5.8-1.4-7.9-3.8-3.1-3.1-4.1-8.2-2.4-12.7 2.1-4.4 6.9-7.1 11.7-5.8 1 0.4 1.7 1.4 1.7 2.4-0.4 1-1.4 1.7-2.8 1.4-2.4-0.4-5.4 0.3-6.8 3.8-1 2.4-0.7 5.8 1.7 8.5 1.4 1.7 4.1 2.1 5.8 1.7 4.1-0.7 5.2-4.4 5.2-4.4 0-1 1.3-1.7 2.4-1.4 1 0 1.7 1.4 1.3 2.4 0 0-0.7 3.8-4.4 6.2 0.7 1.3 1 3.1-0.4 5.8-0.6 1.4-3 5.1-5.8 9.9-3.4 5.5-7.9 13-8.2 14.4l-0.7 1c-1 2.4-1.7 4.2-1.4 6.9 0.4 3.1 1.4 4.4 1.4 4.4 0.7 0.7 0.7 2.1 0 2.8q-0.7 0.7-1.4 0.7-1 0-1.3-0.7c-0.4-0.4-2.4-2.4-2.8-6.5-0.3-3.8 0.7-6.5 1.8-9.3l0.6-1c0.7-1.4 3.8-6.8 8.6-14.7 2.7-4.5 5.1-8.6 5.5-9.6 0.7-1.4 1-2.1 0.3-2.8q-0.7 0.4-1.7 0.4zm3.1-11.3c0 1.4-1.4 2.7-3.1 2.7-1.4 0-2.7-1.3-2.7-2.7 0-1.7 1.3-3.1 2.7-3.1 1.7 0 3.1 1.4 3.1 3.1z"/>
			<path id="Path 18" fill-rule="evenodd" class="s0" d="m553.8 109.6l-19.1-25.7 1.3-1c0.7-0.7 66.8-56.2 69.2-57.9 2.7-2.4 3.4-4.8 3.7-7.2 0.7-4.8 5.2-14.3 16.5-16.4 9.9-1.7 17.8 2.1 21.9 10.3 2.4 4.8 2 9.9 1.7 12.6q-0.4 1.4-0.7 2.8c-0.7 2-1.4 4.1 1 10.6 1.4 4.5 3.8 9.9 6.2 15.4 2.7 5.5 4.8 11 6.1 14.7 3.8 12.7 1.4 21.3-6.5 24.7-7.1 2.7-14.3 0-19.5-6.8-3.4-4.5-13.3-25-16.7-32.2zm-13.7-25.4l14.3 19.2 66.1-56.9 1 2.4c3.8 8.3 14.4 30.2 17.1 33.9 1.8 2.4 5.5 6.6 10.7 6.6q2.4 0 4.4-1.1c7.9-3.1 5.8-13.7 4.1-19.8-1-3.5-3.4-8.6-5.8-14.1-2.4-5.5-5.1-10.9-6.5-15.7-2.7-7.9-1.7-10.7-1-13.1q0.3-1 0.7-2.4c0.3-2 0.3-6.1-1.4-9.9-2.1-3.8-5.8-8.6-13.7-8.6q-2.1 0-4.1 0.4c-8.2 1.4-12.3 8.6-13 13-0.7 3.1-1.7 6.5-5.2 9.6-2 1.7-57.8 48.3-67.7 56.5zm89-48.6q-1.1 0-2.1 0c-0.3 0.7-0.3 1 0.4 2.4 0.6 1 3 5.1 5.4 9.6 4.8 7.8 8.2 13.7 8.9 15l0.4 1.1c1 2.4 2.4 5.1 2 8.9-0.7 4.4-2.7 6.5-2.7 6.5q-0.7 0.7-1.4 0.7-1 0-1.7-0.7c-0.7-0.7-0.7-2.1 0-2.8 0 0 1.4-1.3 1.7-4.1 0.4-2.7-0.7-4.8-1.7-6.8l-0.3-1.1c-0.7-1.7-5.2-9.2-8.6-14.7-2.7-4.4-5.1-8.5-5.5-9.6-1.3-2.7-1.3-4.4-0.7-6.1-3.4-2.1-4.4-5.9-4.4-6.2 0-1 0.3-2.1 1.7-2.4 1-0.3 2.1 0.7 2.4 1.7 0 0 1 3.8 4.8 4.5 2.1 0.3 4.4 0 6.2-2.1 2.4-2.4 2.4-6.2 1.3-8.6-1-2.7-4.1-4.1-6.8-3.4-1 0.4-2.1-0.3-2.4-1.3-0.4-1.1 0.3-2.4 1.4-2.4 4.7-1.4 9.5 1 11.6 5.8 1.7 4.4 1 9.2-2.1 12.7-2.4 2.3-5.4 3.4-7.8 3.4zm-0.4-14.1c1.7 0 3.1 1.1 3.1 2.8 0 1.7-1.4 3.1-3.1 3.1-1.3 0-2.7-1.4-2.7-3.1 0-1.7 1.4-2.8 2.7-2.8zm-271.4 558q-0.4 4.5-4.8 7.5c-7.9 5.2-22.9 12.4-50.7 18.2-7.2 1.7-16.7 2.4-26.3 2.4-5.8 0-10.6-0.4-14.1-0.7-5.8-1-19.5-4.1-24.3-13.7-1.7-3.8-2.7-6.8-3-8.9q-0.4-1-0.7-1.7c-1-2.4-0.7-31.9 1.3-36.7q0.4-1.3 1.1-3c2.4-6.2 6.1-16.1 10.6-22.3 3.7-5.1 8.9-12 21.9-12q3.4 0 6.8 0.3l2.1 0.4c6.8 1 18.5 2.4 30.1 12 19.2 15.7 44.9 45.9 45.2 46.2 2.7 2.8 5.5 7.6 4.8 12zm-107.5-20.5c4.5 5.1 12.3 7.5 26.7 10.6 8.6 2 49.3 5.8 63.7 3.4 6.1-1 2-6.2-1.4-9.6-5.1-5.1-37.6-31.5-41.4-34.2q0.3-0.7 0.3-0.7c0 0 0.7-3.8 0.7-4.8-0.3-1.1-2.4-5.5-2.4-5.5 0 0-3.7-3.4-4.8-3.8-0.7-0.3-12-2-12.3-2-0.3 0-4.4 1.7-5.5 1.7-1.3 0.3-4.1 1.7-4.8 2.4-0.3 0.7-1 1-1.3 2.4 0 1.3-0.4 2-0.4 3.1-2 0-10.6 0.6-15.7 5.4-2.8 2.8-4.1 6.5-4.8 13.4-1.4 8.9 0.7 14.7 3.4 18.2zm94.1 27c0 0-31.8 2.8-43.4 3.8-10 1-27.8 0.3-52.7-3.8-5.5-0.7 12.6 13.7 29 13.7 6.9 0 26.1 1.4 46.3-5.1 6.5-2.1 20.8-8.6 20.8-8.6z"/>
			<path id="Path 19" fill-rule="evenodd" class="s0" d="m490.5 583q-0.3 0.7-0.3 1.7c-0.7 2.1-1.4 4.8-3.5 8.9-4.4 9.6-18.4 12.7-24.3 13.7-3 0.4-8.2 0.7-14 0.7-9.6 0-19.2-0.7-26.4-2.4-27.7-5.8-42.7-13.3-50.3-18.5q-4.4-2.7-5.1-7.2c-0.7-4.8 2.4-9.2 4.8-12.3 0.3 0 26-30.2 45.2-45.9 6.1-5.1 12.3-7.9 17.8-9.6q-0.4-0.7-0.4-1c-0.3-0.7-3.1-3.5-3.7-3.8-0.7-0.7-2.4-2.4-3.5-3.8-0.3-0.3-1-3-1-3.4 0.4-0.3 3.8 1 3.8 1l4.1 1.8 2.7-1.4 3.1-3.8c0 2.1 2.1 8.2 3.1 10.3q0.7 1 1.4 2 1.3-0.3 2.7-0.3l2-0.3q3.8-0.7 6.9-0.7c13.3 0 18.1 6.8 21.9 12 4.4 6.5 8.6 16.4 10.6 22.6q0.7 1.7 1 2.7c2.1 5.1 2.4 34.6 1.4 37zm-14.4 3.4c-25 4.1-42.8 4.8-52.7 3.8-11.6-1-43.1-4.1-43.1-4.1 0 0 14 6.5 20.9 8.9 19.8 6.5 39 5.1 45.8 5.1 16.8 0 34.9-14.4 29.1-13.7zm1.7-45.5c-1-6.5-2-10.3-5.1-13-3.8-3.8-9.6-4.8-13-5.5q0-0.4 0-0.4c0-1-0.3-2-0.7-3.4 0-1.4-0.7-1.7-1-2.4-0.7-0.7-3.4-2.4-4.8-2.4-1.4-0.3-5.1-1.7-5.5-1.7-0.3 0-1 0-1.7 0q0.7 0.7 1.4 1c2 0.7 4.1 0.7 6.5 2.1 2 1.4 2.7 1.4 3.4 2.4 1 1 1.7 3.1 1.4 4.4-0.4 1.4-1.1 2.1-1.1 2.1 0 0-0.3-1.4-0.6-2.4-0.4-1.7-1.8-2.1-2.4-1.7-0.4 0-1.1 0-1.7 0q-1.6-0.5-2.1 0c-0.3 0-0.3 0.3 0.3 1 0.7 0.7 1.1 2.1 0.7 3.8-0.3 1.3-0.7 2-1.3 2.7-0.4 0.7-1.4 1-1.4 1 0 0 0-0.6 0.3-1.3 0.4-0.7 0-1.4-0.3-2.1-0.4-0.3-1.4-0.3-1.7-1-0.7-0.7-2.1-1-3.1-0.7-1 0-2.4 0-3.1 0.7-0.7 0.3-1.4 0.7-1.4 2 0 1.1 1.4 2.4 1.4 2.4 0 0-1.4 0.4-2-0.3-1.1-0.7-1.4-2.1-1.4-2.7 0-0.7-0.4-0.7-0.7-1.1v-1c0 0-0.7-0.7-1-0.7-0.4 0-1.4-0.3-2.4 0-1 0.4-2.1 1.4-2.8 2.1q-1 1-1 2c-0.3 1.1-0.7-0.7-0.7-1.3-0.3-1.1 0-2.4 0-3.1 0.4-1.1 0.7-1.4 1.7-2.8 1.1-1 1.4-1.3 2.4-2 1.1-0.7 1.1-0.4 1.1-1 0.3-0.4 0-1.1 0-2.1-1.4 1-3.8 3.4-3.8 3.4 0 0-2.1 4.5-2.4 5.5 0 1 0.3 4.5 0.7 4.8q-1.4 0.7-2.4 1.4c-3.8 2.7-36.3 29.1-41.4 34.2-3.4 3.4-7.2 8.6-1 9.6 14.3 2.1 54.7-1.7 63.3-3.4 14.4-3.1 22.2-5.5 26.7-10.6 2.7-3.5 4.8-9.3 3.7-18.5zm-188.2-39.4l3.1 1.4 4.1-1.8c0 0 3.4-1.3 3.7-1 0 0.4-0.7 3.1-1.3 3.4-0.7 1.4-2.8 3.1-3.1 3.8-0.7 0.3-3.4 3.1-3.8 3.8-0.3 0.3-0.7 4.8-0.7 5.5 0.4 0.6 0.4 0.3 1.4 1 1 0.7 1.4 1 2.4 2 1 1.4 1.4 1.7 1.7 2.8 0 0.7 0 2 0 3.1 0 0.6-0.7 2.4-0.7 1.3q0-1-1-2c-0.7-0.7-1.7-1.7-2.7-2.1-1.1-0.3-2.1 0-2.4 0-0.7 0-1.1 0.7-1.1 0.7v1c-0.3 0.4-0.6 0.4-0.6 1.1 0 0.6-0.4 2-1.4 2.7-0.7 0.7-2.1 0.3-2.1 0.3 0 0 1.1-1.3 1.4-2.4 0-1.3-0.7-1.7-1.4-2-0.7-0.7-2-0.7-3.1-0.7-1.3-0.3-2.7 0-3 0.7-0.7 0.7-1.4 0.7-1.7 1-0.7 0.7-0.7 1.4-0.4 2.1 0 0.7 0 1.3 0 1.3 0 0-0.7-0.3-1.4-1-0.3-0.7-0.6-1.4-1-2.7-0.7-1.7 0-3.1 0.7-3.8 0.7-0.7 0.7-1 0.3-1-0.6-0.4-1-0.4-2 0-0.7 0-1.4 0-1.7 0-0.7-0.4-2.1 0-2.8 1.7 0 1-0.3 2.4-0.3 2.4 0 0-0.7-0.7-1-2.1-0.4-1.3 0.3-3.4 1-4.4 0.7-1 1.4-1 3.8-2.4 2.4-1.4 4.4-1.4 6.5-2.1 2-0.7 3.4-3.1 4.4-5.1 1.4-2.1 3.4-8.2 3.4-10.3zm48.3-363.4c-11 11.6-18.1 24.7-30.1 33.6 0 0.3-0.4 0.6-0.7 0.6q-1.4 1.1-2.7 1.8c5.1 1.3 9.2 4.8 14 7.2q0.3 0 0.3 0.6c34.9 3.8 74.7 7.6 104.1-4.1 0.7-0.3 1 0 1.4 0.4q1-1.4 2.4-2.1c-4.2-0.3-9.6-1-10-3.8-0.7-3.7 5.5-5.8 8.2-6.5q3.8-1 7.2-1c-1-2.7-1-4.4 0.7-6.5-3.4 0-8.2-0.3-8.9-3.4-0.7-4.5 7.2-7.2 9.9-8.2 1.4-0.7 2.1 1 1.1 1.7-1.4 0.3-2.8 1-3.8 1.7q-1.7 0.7-3.4 1.7 0.7 2.1 1.4 4.1c2 0.4 3.7 0.4 5.8 0.7 2-1.4 3.7-2.1 5.8-3.1-2.1-1-2.1-4.1-0.7-6.5 0.7-1 2.4 0 1.7 1q0.7 2.1 1.7 3.8 0.4-0.3 0.7-0.7c5.8-4.8-2-4.8-6.1-5.1-4.8-0.7-5.5-3.1-4.8-5.8-2.8 0-7.9-1.1-8.3-3.5-0.3-3.4 2.4-6.5 5.5-7.9-0.7-0.6-1-2-1-3.7-4.8-0.4-9.2-5.2-5.1-9.3q-1.1-0.3-2.4-1-1.1-0.7-1.7-1.7c-0.4 0.3-0.7 0.3-1.4 0-1.4-1.4-3.4-2.7-5.2-4.1q-0.3-0.4-0.3-0.7-2.4 2.1-5.1 3.8c0.3 0 0.7 0 0.7 0.7 4.4 21.2-6.5 42.1-23.3 55.4q-2.4 2.1-4.8 3.8 0 0-0.4 0 0 0.3 0 0.3c-17.1 11.4-35.2 11.7-55.7 10q0 0-0.4 0c-0.7 0.3-1.4-1.7-0.3-2.1 5.1-2 10.6-5.1 14.3-9.6 0.7-0.6 2.1 0.4 1.4 1.1-2.4 3.4-6.5 6.8-10.6 8.9 8.6 0 17.5 0.7 26-0.4-6.5-1-12.6-1.3-19.5-1.7-0.7 0-1-1.4-0.3-1.7 3.4-2.7 8.5-3.1 12.6-4.5 1.1-0.3 1.7 1.4 0.7 1.8-3.1 1-6.1 1.3-9.2 2.7 6.5 0 13.3 0 19.5 2.1q0.3 0.3 0.3 0.6c6.9-1.3 13.7-3.7 19.9-8.5q0-0.4 0.3-0.4c5.8-6.1 11.3-13 15.8-20.2-2.4-2.7-5.9-4.4-8.2-6.8-5.5 3.4-12 5.5-17.8 6.5-4.5 0.7-12.7 3.4-15.1-1.7-2.4-4.5 6.5-7.9 9.2-8.9 9.3-3.8 19.5-2.1 29.5-3.5q0-0.3 0-0.3c0.7-0.7 2 0.3 1.3 1.4q-2.4 3.1-5.8 5.4c2.8 1.8 5.5 3.8 7.9 6.2q2.7-4.4 5.1-9.2c-1.3-3.5-4.4-5.5-6.5-8.6-0.7-0.7 0.4-1.7 1-1 2.4 2.7 5.2 4.8 6.9 7.9 0-3.5 1-6.2 1.4-9.3 0.3-2.4 0.3-4.1 1.7-5.8 0.3-1 2-0.4 1.3 0.7-1.7 3.4-2.4 10.6-2.4 14.7 0 0.7-1 1-1.7 0.3q0.4 0.7 0.4 1.4c0.3 0.4 0 0.7-0.4 0.7-3.4 6.5-7.2 13-11.6 19.2 11.6-13 18.8-28.5 15.7-46.9q0-0.4 0-0.4-3.4 1.7-7.1 2.7c-4.2 0.7-11 2.8-14.1-1.3-2.7-3.8 4.5-7.6 6.9-8.6 3.4-1.4 6.5-2.7 10.2-2.7 2.4-0.4 5.2 0 7.9 0-1-0.4-1.7-1.4-2-2.4q0-1.1 0-1.7c-2.8 1.3-6.2 2-9.6 2-1.7 0-8.2 0-6.9-3.4 1.1-3.4 6.2-4.1 8.9-4.8 4.5-1.4 8.9-2.4 13.7-2.7 0.4 0 0.7 0.3 0.7 0.6q0.3 0.4 0 0.7c-1 2.4-2.4 4.5-4.1 5.9q-0.7 1-0.7 2c-0.3 3.1 4.1 2.7 6.2 3.1q0.3 0 0.3 0c0.7-0.4 1 0 1 0.7 1.1 5.5 5.9 11.3 11.3 10.9 1.1 0 1.7 0.7 2.4 1.4 1.1 1.4 0.4 4.1 0.4 5.8-1.4 9.3 7.8 7.6 12.3 8.2 0.7 0 1 1.1 0.3 1.8-2.7 2.7-7.1 5.1-9.2 8.2-2.4 4.1 12 6.5 14.4 7.2 0.7 0.7 1 1.3 0.3 2-1 1.1-3.4 2.8-6.5 4.8 0 0.4 0 0.7-0.7 1.1q-0.3 0-0.7 0c-4.7 3.4-9.5 7.8-8.2 10.6 4.1 0.3 8.6 1 12.4 2.7 1-0.3 1.7 0.7 1 1.4-2.4 3.7-6.5 5.8-11 6.8 7.6 31.2-69.1 24.7-84.9 24.7-26.3-0.3-64 2.4-73.9-27.8q-0.7 0-0.7-0.6c-0.3-2.1 0-4.8 3.1-5.2 1.7 0 3.8 0.4 5.8 0.7 2.4 0.7 0.4-1 1.4-3.4 1.4-3.1-5.8-8.9-2.1-12 1.7-1 2.1-1.4 4.1-1.4 6.5-0.3-0.3-7.9-1-8.9-0.3-0.7 0-1.3 0.7-1.3 4.4-0.7 1.7-1.8 4.4-3.5 4.8-3.4-3.7-7.5-6.8-9.6-1-0.6-0.3-2 0.7-2 4.8 1 9.2 1 14.4 0.3-3.8-3.4-7.2-8.5-10-12.3-0.6-0.7 0-1.7 0.7-1.7 4.5 0 7.9 0.7 12 2 3.1 1.1-0.3-7.5-0.3-6.8 0-4.5-1.8-8.9 1.3-12.3 0-0.4 0.7-0.7 1.1-0.7 4.4 2.4 6.8 5.8 6.8-1.4 0-2.1 6.5-13.4 6.2-12.3 0.3-0.7 1-0.7 1.3-0.4 1.7 1.1 4.5 5.8 6.9 5.2 3.4-1.7 6.8-2.4 10.6-3.1 0.7 0 1 0 1 0.3 2.1 4.1 13.4-0.3 22.9-4.8q0.7-0.7 1.4-1.3c0.4-0.7 1-0.4 1.4 0 4.1-2.1 7.9-4.2 9.6-4.8 1-0.4 1.7 1 0.7 1.3-3.8 4.8-8.3 9.3-12.4 13.4q0 0.3 0.4 0.7c1.7 9.6 8.9 4.1 14 0.7 5.5-3.5 10.3-6.9 16.4-4.1q0.7-0.4 1.1-0.7 2-1.4 4.4-2.4 0.4-0.7 1-0.7 4.5-1.4 9.3-1.7c0.3-0.4 1.7 0.3 1.4 1-2.1 5.5-5.5 10.3-11 12.3-2.1 0.7-7.5 2.8-8.9 0-1.7-2.4-0.3-4.8 1.4-6.5-9.3-2-14.4 7.2-22.6 9.6q-0.4 0-0.7 0c-0.3 18.5-20.2 31.9-31.5 44.2zm-43.1 40.4c-1.1 0.4-2.1-1.4-0.7-1.7q6.2-2.6 11.3-6.2c-1.4-2-3.1-5.1-0.7-5.8 2.4-0.7 4.1 0.4 5.5 1.7 8.2-7.2 13.7-16.4 21.9-25.3-1.4-4.8-2.8-10-3.4-15.1 0-0.7 1-1.4 1.7-1 3.1 1.7 6.1 3.7 9.2 5.5 1 0.3 0.7 2.4-0.7 1.7-2.7-1.4-5.1-2.8-7.8-4.5 0.3 3.8 1.7 7.9 2.7 11.7 12-12.7 32.5-26.7 33.9-45.2-3.4 0-5.5-3.1-6.2-7.2-8.5 8.2-17.8 15.7-25.3 25-1.7 1.7-3.8 4.4-6.5 7.8 5.1-1 11.6 2.8 9.9 8.3-0.3 1-2 0.3-1.7-0.7 1.4-4.8-5.1-5.8-8.2-5.8-0.4 0-0.7-0.7-0.7-1.1-7.9 9.6-17.8 23.3-18.1 31.9q0.3 1 0.3 2.4 0 0 0 0.3 0 0.4-0.3 0.7c-0.7 1.4-2.1 2.7-3.8 3.4-1.4 0.7-2.1-1-1-1.7q4.1-1.3 1-6.1c-1-0.7-0.3-2.4 0.7-1.8q0.3 0 0.7 0.4c0.3-9.9 10.6-17.8 16.4-26.4 13-19.2 31.5-32.9 47.2-49.7q-3.4 1.1-6.8 2.4 0 0 0 0.4c-3.1 3.8-15.8 9.2-16.1 13-0.3 0.3-0.3 0.7-0.7 0.7-2 0.7-7.2 1.7-5.1 5.1q0-0.3 0.3-0.7c4.5-3.4 8.6-7.5 13.7-9.9 1-0.7 2.1 1 1 1.7-5.4 2.8-10.2 6.9-13.7 12-0.6 0.7-2 1.7-3 2.1-2.8 1.3-3.8 4.1-5.5 6.1-2.1 2.4-6.2 3.1-8.9 4.5q-0.4 0-0.4 0c0 0.7-0.6 1-1.3 1-3.4 0-20.9 6.2-13.7 8.6q-0.4-0.4-0.4-1.1c0-1 1.8-1.3 2.1 0 0.7 2.1 3.1 8.6 5.5 3.8 1.3-2.4 2-5.1 3.1-7.9 0.6-1 2.4-0.3 1.7 0.7-1.4 4.1-2.1 10.3-7.2 10.6-2.8 0.4-3.8-1-4.5-3-3 2.7-5.8 6.1-4.1 10.2 0 1.1-0.3 1.7-1.3 1.7q-1.1 0.4-2.4 1.1 0 0 0 0.3c0.6 1.4 0.6 1.4 0 2.8-0.4 1-2.1 0-1.4-1.1q0-0.7 0-1.3-1.7 0.6-3.4 1.3c0.7 2.4 0.3 4.8-2.4 4.8-1.1 0-1.1-1.7 0-1.7q1-1 1-2.4-0.3 0.4-0.3 0.4c-1.1 0.6-2.4 0-1.8-1.1 2.8-3.7 8.6-4.8 7.9-7.9-0.7-4.7 9.6-8.2 2.8-8.5-0.4 0-1.1-0.7-0.7-1 0.7-4.2 2.4-6.9 6.5-8.6 2.7-1 5.4-2.1 8.5-2.4 1.6-0.2 2.3-0.3 2.6-0.3-0.3 0-1-0.2-1.5-0.7-0.4-0.4-0.7-1.4 0-1.7 3-2.1 10.9-3.5 6.8-6.2q-0.3-0.4-0.3-0.7c-1.8-1.7-2.1-3.8-3.1-5.8-0.4-1 1.3-2.1 1.7-0.7 0.7 1.7 1.4 3.4 2.4 4.8 1.7-1.4 4.4-2.7 6.8-3.8-1.3-2.7-3.4-6.5-7.5-4.4-0.7 0.7-1.7 1-2.7 1.3-2.1 0.7-3.8 0.4-5.5-0.6-1 0.3-2.4 0.6-3.8 0.3-0.7 3.4-1.3 6.2-1.3 7.5q0 0.4-0.4 0.7c-1.7 1.7-5.8 4.1-8.5 3.8 0.6 3.8 2 8.2 1.7 11.3-0.4 0.7-0.7 1-1.4 0.7-3.8-1.1-14-5.5-8.6 1.3 1.8 2.4 3.5 5.5 5.9 7.6q0 0.3 0 0.3c0.3 0.7 0.3 1.4-0.7 1.7-4.1 0.7-8.2 1.1-12.3 0.7 2.7 2.1 4.7 4.5 7.1 6.9 0.7 0.7 0.4 1.3-0.3 1.7q-1.7 2-3.4 4.1c0.3 0.3-0.4 1-0.7 1-4.8 0.7 1.4 2.8 1.7 5.5 0.3 2.4-0.3 3.4-2.4 4.8-0.3 0.7-1.4 0.7-2.4 0.7-7.5 0-2 5.8-1.4 7.2 2.1 3.1-0.3 5.5-0.3 9.2 0 0.4-0.7 1.1-1.4 1.1-2-0.7-9.2-3.5-8.5 1.3q0 0.4 0 0.4c2.4 5.8 6.5 10.2 11.6 13.7-0.3-2.1-0.3-3.8 1.4-5.9q0.3-0.3 0.7-0.3 0.3 0 0.3 0 9.9 0.7 20.5 2.1c-3.7-2.1-7.1-4.8-11.6-5.9q-3.4 1.7-7.5 3.1zm74.9 8.2c-10-0.2-20.2-0.7-30.3-1.3q0.1 0.1 0.2 0.3c1.4 1.7 2.1 3.4 0 5.1-3.4 2.4-8.9-1-9.2 5.9q0 0.3-0.4 0.7 1.7 0 3.5 0.3c9.2 0.3 76.3 4.1 96.1-10.6-3.7-0.7-8.2-2.4-7.2-5.8q0.4-1.1 0.7-1.8c-16.4 6.9-35.9 7.6-53.4 7.2zm-76-5.8c-1 1.4-1 3.8-0.6 5.8 10.2 6.5 24.3 9.6 35.6 10.7q-0.4-0.4-0.4-1.1c0-1.7 0-4.4 2.4-5.5 1.7-1 9.6-0.6 7.5-4.1-0.2-0.6 0.2-1.2 0.6-1.3-15.1-1-30.2-2.5-45.1-4.5zm45.1 4.5q0.3 0 0.6 0c-0.1-0.1-0.4-0.1-0.6 0zm96.3-9.6q-1 0-2 0c-1.8 1-3.8 1.3-5.5 2-6.5 3.1-0.4 7.2 4.1 7.6 2.7-2.4 4.1-5.9 3.4-9.6zm-101.3-87c2 1 3.8 3.7 4.4 5.8 1.1-0.3 1.8-1 1.8-1-0.4-0.7 0-1.1 0.3-1.4 2.7-1.7 4.8-2.7 6.8-4.8 4.2-4.8 9.6-5.5 14.1-9.2-6.9 2.7-13.4 6.1-18.5 10.6-0.3 0.3-1 0.3-1.4 0-4.4-6.2-8.5-4.1-15.4-1.4q-1.5 1.5-3.1 3.1c3.8 1.4 6.9-3.4 11-1.7zm8.9 8.2c-3.1 0.3-14.4 2-7.9 5.8 0.7 0.7 0.7 1.7 0 2.1-1.3 0.3-8.5 3.1-8.5 4.8q0 0 0.3 0c3.1-1.7 7.5-2.4 9.2-6.2 0.4-1.4 1.1-2.1 2.1-3.1 1-1 4.8-1.4 5.1-3.4q-0.3 0-0.3 0zm67.4-19.5q-0.3 0-0.3 0-0.4 0.3-0.4 0.3-0.3 0.7-0.6 1.4 0.6 0 1.3-0.4c1.1 0 0.7-1.3 0-1.3zm-1.3 1.7c-2.4 0.3-4.8 0.7-7.2 1.7q0.7 2.7 2.4 4.8c1.7-1.7 3.4-4.1 4.8-6.5zm-9.6 2.7c-1.4 1.1-2.8 1.7-3.8 2.8q-2.7 1.7-1.4 5.4c3.5 0 6.2-1.3 8.6-3q-2.1-2.4-2.7-5.5-0.4 0.3-0.7 0.3zm15 25.7q0.4 0 0.4 0 2.4 1.4 4.4 3.1-1.5-3.1-2-6.2-1.4 1.7-2.8 3.1zm0-17.5q-0.7 0.7-1 1.4 1-0.3 1.7-0.3c0.7 0 0.7-0.7 0.7-1.1-0.3-0.6-1-0.6-1.4 0zm-1 1.4q-3.4 0.7-6.8 1.4 0.6 1.4 1 3.4c2.4-1 4.1-2.4 5.8-4.8zm-14.4 3.4c-1.3 0.4-3.1 1.1-4.1 2.1-1.3 1.4 6.2 1.4 6.9 1q2-0.3 3.7-1 0-2.1-1-3.8-2.7 0.7-5.5 1.7zm15.8 9.3q1 0 2-0.4 0-0.3 0-0.3-0.7 0-1.3 0-0.4 0.3-0.7 0.7zm0 0c-3.8 0.3-7.6-0.4-11.3 0-0.7 2 1 4.4 2 6.5 3.5-1.7 6.5-3.8 9.3-6.5zm-19.5 2.4c-1.4 0.3-2.8 1-3.8 1.7q-4.1 1.7-1.4 5.8c5.2 0.4 9.6-0.7 13.7-2.4-1.3-2.4-2.7-4.8-2.4-7.2q-3.1 0.7-6.1 2.1zm10.2 12.3c0.7-0.7 2.1 0.4 1.7 1-3.7 6.9-11.9 9.6-18.8 11-5.5 1-14 4.1-18.5-0.7-3.4-3.4 5.2-8.5 7.2-9.6 4.8-2.4 9.6-2.4 14.4-2q0.3 0 0.7 0.3c4.1 0.4 8.5 0.7 13.3 0zm0.4 0q0 0-0.4 0-0.3 0.4-0.3 0.4-0.4 1-1 1.7 1 0 2-0.4c1-0.3 1-2-0.3-1.7zm-1.7 2.1c-4.1 0.3-8.6 0-12.7-0.4-1.7 1.4 2.1 4.1 3.4 6.2 3.4-1 6.9-3.1 9.3-5.8zm-31.2 5.1q0.7 5.8 5.5 4.5 1-0.4 1.7-0.4 1.7 0 3.4-0.7 3.1-0.3 5.8-1 1.8-0.3 3.5-1c-1.7-2.1-4.8-4.8-4.1-6.9-5.5 0-11 0.7-15.8 5.5zm20.2 9.6q-0.3 0-0.3 0.3-1.1 1.1-2.1 1.8 1.4 0 2.8-0.4c1 0 1-1.7-0.4-1.7zm-2.4 2.1c-5.1 0.6-10.9 0.6-16.4 1-0.7 3.4 0.7 4.8 2.7 6.8 5.2-1.7 9.6-4.1 13.7-7.8zm-33.2 7.1q0 5.5 4.8 3.8 1.4 0 2.7-0.3c2.8-0.4 5.9-0.7 8.3-1.4q1-0.3 1.7-0.7c-2.4-2-3.5-3.8-2.8-7.2-5.4 0.7-10.6 2.1-14.7 5.8zm14 16.1c-5.8 5.5-14.3 9-22.2 9.3-3.4 0.3-11 1-12.3-3.8-1.7-6.8 6.1-8.5 15-8.5q0-0.4 0-0.4c4.1-5.5 11-5.5 17.2-3.7 3.7 1 6.1 3 2.7 6.1q0 0.4-0.4 1zm-3.4 0q1.4 0.4 2.8 0c0.6 0 1-0.3 0.6-1q0 0.4 0 0.4c-0.6 0.3-1.3 0-1.7-0.7q-0.6 1-1.7 1.3zm0 0c-8.9 0-18.1-3.7-26.7 1.1-7.5 4.8 3.4 6.5 4.8 6.5 2.1-0.4 4.5-0.4 6.5-0.7q2.1-0.3 3.8-1 0 0 0-0.4-0.4-1-1-2c-0.4-1.1 1.3-1.7 1.7-0.7 0.7 1 0.7 1 1 2.4q0.3 0 0.3 0 4.8-2.1 9.6-5.2zm57.2-44.1c-2.4 3.7 1.7 5.8 4.1 6.1q0.3-1.7 0.3-2.7-0.3 0-1-0.4c-1-0.6-1-0.6-1.7-2-0.7-1 1-2.1 1.7-1q0.4 0.6 0.7 1.3c-0.3-2.7-1.7-2-4.1-2.4q0.5 0.5 0 1.1zm6.5 13.3c-2.1 1-7.5 5.8-2.1 7.2 1.4 0.4 2.8 0.4 4.5 1 0.7-1.7 2-3 3.4-4.1q-1.7-1-1.4-3.1-1.7 0-3-0.6-0.7 0-1.1-0.4 0 0-0.3 0zm15.7 37q-0.3 0-0.6 0-0.7 0.7-1.4 1.4 0.7 0 1.4 0.3c1 0.4 1.7-1.3 0.6-1.7zm-2 1.4c-4.8-1.7-10.3-2.4-15.1-1.7-2.4 0.3-4.4 0.7-6.5 1.7q-1 0.3-2 0.7-4.1 1.3 0.3 3.7c8.2 1.4 17.1 1.1 23.3-4.4zm-65.1-0.7c-4.1-1.4-7.8-2.1-11.9-1.4-1.4 0.4-1.7-1.7-0.4-1.7 4.5-1 8.6 0 13 1.7 1.1 0.4 0.4 1.7-0.7 1.4zm-49.6-42.1q-0.7 0.3-1.4 1 0.7 0.3 1.8 1-0.4-1-0.4-2zm-17.1-25.7c-7.2-3.8-7.9-1.4-7.2 2.7 1.7 1 5.5-1.4 7.2-2.7zm10.6-14.1c-2.4-4.4-4.8-0.7-6.5 4.1 2.7 0.4 5.1-2 6.5-4.1zm-36.3 39.4q-0.3 0.7-0.7 1.7 2.1 0.4 4.2 0.7-1.8-1.3-3.5-2.4zm-5.4 48.7q2.3-1.8 3.7-3.8c0.7-1 2.4 0 1.7 1-1.3 1.7-2.7 3.1-4.8 4.5-1 0.7-1.7-1.1-0.6-1.7zm8.5-16.8q3.8-2.1 3.8-6.2c0.3-1 2-1 1.7 0.4 0 3.4-1.4 6.1-4.8 7.5-1 0.3-2.1-1.4-0.7-1.7zm16.1 12q0.7-0.7 1.7-1.4c-2-1.7-2.4-0.3-1.7 1.4zm48.6-8.3c-0.3 1.1-3.1 3.8-1.7 4.2 1 0.3 0.7 1.7-0.4 1.7-5.4-0.4-0.6-4.1 0.4-6.5 0.3-1.1 2.4-0.4 1.7 0.6zm-19.9 15.5q0.4 1 0.7 1.7 1.4-1.1 2.8-1.4-1.7-0.3-3.5-0.3zm34.3-17.5c4.1-3.4-4.5-4.1-6.2-4.1-3.7-0.4-6.8 0.7-9.6 3.1 6.5 0.3 13 1.3 15.8 1.3q0-0.3 0-0.3zm68.4-28.1q0.4 1 0.7 1.7c4.1-3.4 2.4-2-0.7-1.7zm-201.9 452.8c-56.8-17.1-104.8-49-142.1-94.5-65-78.8-70.8-166.5-70.8-167.2v-2.7l32.5 8.9v1.4c5.1 22.6 9.6 32.2 15.4 44.5q1.7 3.8 3.8 8.2c7.2 16.1 25.3 40.1 30.8 45.6l1.3 1c5.2 5.5 11.7 12.3 26.1-0.3 2.7-2.8 31.8-27.8 33.2-28.8l1.3-1 30.1 31.8-36.6 34.9c-0.3 0.4-8.9 9-3.7 24 3.4 8.9 8.2 18.2 34.9 35.3 10.2 6.9 47.9 23 48.2 23.3l-1.7 3.8c-1.7-0.7-38.3-16.8-48.9-23.7-27.4-17.8-32.9-27.7-36.3-37.3-6.2-17.5 4.1-28.1 4.4-28.4l33.9-31.9-24.6-26.4c-6.2 5.2-29.1 25-31.8 27.1-17.2 15.4-26.4 5.8-31.5 0.7l-1.1-1.4c-5.8-5.5-24.3-29.8-31.8-46.6q-1.7-4.4-3.8-8.2c-5.4-11.6-10.2-21.9-15.4-44.5l-24.3-6.9c1.4 15.8 12 92.5 69.5 162.4 37 44.9 84.2 76.4 140 93.2zm83.2-503.9zm-15.4 26.7z"/>
			<path id="Path 20" fill-rule="evenodd" class="s0" d="m58.5 333c-4.1 0-32.1-5.2-34.5-8.9-2.1-2.4-15.4-22.3-18.5-27.4-5.5-9-6.5-16.1-4.1-25.4l1-3.4c1.7-6.9 4.1-15.4 9.6-27.4 3.7-8.2 11.6-16.5 12-16.8 4.4-4.1 7.8-6.2 10.6-6.2 3.7 0 6.8 2.8 8.9 8.3 6.8 16.4 19.5 81.8 19.8 87.3q0 1.4 0.4 3.1c0.7 7.2 1.3 15.4-4.1 16.4q-0.4 0.4-1.1 0.4zm-23.9-111.4q-0.7 0-1.4 0.4-1 1-2.4 3.4c-1.7 3.4-13 32.9-16.8 50.7-0.7 4.5-1.7 9.6 2.4 15.4 3.8 5.8 29.8 28.8 37.3 33.9q3.1 2.1 5.9 2.8c1-2.1 0.3-8.6 0-11.7q0-1.7-0.4-3.1c0-5.4-13-70.5-19.5-85.9q-2-5.9-5.1-5.9zm452.8 362.1l-1.3-3.8c56.1-16.8 103.3-48.3 140.3-93.1 57.5-69.9 67.8-146.6 69.5-162.1l-24.7 6.9c-4.8 22.3-9.6 32.2-15 44.2q-2.1 3.7-3.8 8.2c-7.9 16.8-26 41.1-31.8 46.6l-1.4 1.3c-4.8 5.2-14.4 14.8-31.5-0.3-2.4-2.4-25.7-22.3-31.5-27.4l-25 26.4 33.9 31.8c0.4 0.4 11 11 4.5 28.5-3.5 9.6-8.6 19.5-36.3 37.3-10.6 6.8-45.9 22.6-47.2 23.3l-1.8-3.8c0.4-0.3 36.7-16.1 46.9-22.9 26.4-17.2 31.5-26.4 34.6-35.3 5.5-15.1-3.4-24-3.4-24l-36.6-34.9 30.1-31.9 1.3 1.1c1.4 1 30.2 26 33.3 28.7 14.3 12.7 20.8 5.8 26 0.7l1-1.4c5.5-5.4 24-29.4 31.1-45.5q2.1-4.5 3.8-8.2c5.8-12.4 10.3-22 15.1-44.6l0.3-1.3 32.5-8.9-0.3 2.7c0 1-5.8 88.4-70.5 167.2-37.3 45.8-85.3 77.4-142.1 94.5z"/>
			<path id="Path 21" fill-rule="evenodd" class="s0" d="m665.4 333q-0.7 0-1-0.4c-5.5-1-4.8-9.2-4.1-16.4q0.3-1.4 0.3-3.1c0.4-5.5 13-70.9 19.9-87.3 2-5.5 5.1-8.3 8.9-8.3 3.1 0 6.1 2.1 10.6 6.2 0.3 0.3 8.2 8.6 12 16.8 5.4 12 7.8 20.5 9.5 27.4l1.1 3.4c2.4 9.3 1.3 16.4-4.1 25.4-3.1 5.1-16.5 25-18.5 27.4-2.8 3.7-30.5 8.9-34.6 8.9zm24-111.4q-3.1 0-5.2 5.9c-6.5 15.4-19.5 80.5-19.5 85.9q-0.3 1.4-0.3 3.1c-0.4 3.1-1 9.6 0 11.7q2.7-0.7 5.8-2.8c7.5-5.1 33.5-28.1 37.3-33.9 4.1-5.8 3.1-10.9 2.4-15.4-3.8-17.8-15-47.3-16.8-50.7q-1.3-2.4-2.4-3.4-0.6-0.4-1.3-0.4zm-83.2 31.6c0 102-62 189.4-150.3 226.7-1.3-3.8-2.7-7.5-4.1-10.3q-0.3-1.3-2-3.1c83.1-34.9 141.7-117.4 141.7-213.3 0-127.8-103.4-231.3-231.1-231.3-127.6 0-231.4 103.5-231.4 231.3 0 97.9 61 181.8 147.2 215.4q-0.3 0.7-0.7 1c-1.3 3.1-3 8.2-4.7 12.7-91.4-35.6-156.5-124.7-156.5-229.1 0-136 110.2-246 246.1-246 135.6 0 245.8 110 245.8 246zm-27.4-0.7c0 92.8-58.2 171.9-140 203.4q-1.4-1.3-2.7-2.7c-2.4-2.1-5.2-4.8-7.6-7.5 79.8-27.8 137.3-103.8 137.3-193.2 0-113.1-91.7-204.9-204.7-204.9-112.9 0-204.7 91.8-204.7 204.9 0 90.7 59.2 167.8 141.4 194.5-2.1 2.4-4.5 4.5-6.5 6.2q-2.1 2-4.1 4.1c-83.9-30.5-143.8-110.6-143.8-204.8 0-120.6 97.6-217.9 217.7-217.9 120.2 0 217.7 97.3 217.7 217.9z"/>
			<path id="Path 22" fill-rule="evenodd" class="s0" d="m536 250.4l3.8 0.4c0 0 0 5.8-2.1 12.3-1.7 6.5-4.1 10.9-4.1 10.9l2.4 1.1c0 0-2.4 7.9-4.4 13-1 3.1-2.4 7.2-2.4 7.2l2 1.4c0 0-0.3 3-3 9.5-2.8 6.6-3.8 7.9-3.8 7.9l2.4 1.4c0 0-2.4 6.8-7.9 13.3-6.5 8.6-8.2 10.3-8.2 10.3l2.7 1.4c0 0-3.4 5.5-6.8 9.6-3.8 4.4-5.8 4.4-5.8 4.4l1.3 0.7c0 0-2 4.5-5.8 8.6-3.1 3.4-6.8 6.5-6.8 6.5l2.4 0.3c0 0-4.5 4.5-7.9 7.9-3.1 3.1-10.3 6.2-10.3 6.2l2.1 2.7c0 0-3.4 1.4-8.2 3.8-3.1 1.7-6.5 2.7-6.5 2.7l0.7 2.8c0 0-3.1 2.7-7.9 5.1-4.1 1.7-8.6 2.1-8.6 2.1 0 0-4.8 4.4-7.2 5.8-3 1.7-3.4 3.1-8.2 4.4-4.4 1.8-8.9 1.8-8.9 1.8 0 0-5.5 1-5.8 6.5 0 3.7 1.4 7.8 4.4 11.6 4.2 6.2 10.3 14 16.5 19.2 6.1 5.5 14 12.3 15.7 16.4 3.4 7.2 8.2 24.3 8.2 24.3 0 0-4.1-0.6-8.9-3.7-4.4-2.8-7.5-4.1-7.5-4.1l3.8 15-6.9-2.7-2.4 4.8q0-0.3-0.3-0.7 0 0 0-0.3c0 0 0 0.7-0.4 1.3-0.3 0.7-0.3 0.4-0.6 1.1-0.7 0.6-0.4 0.6-0.7 1-1-1-3.4-3.4-6.2-4.1-5.1-1.7-4.8 5.5-4.8 5.5l-3.7-6.9c-0.4-1-3.8-6.5-4.5-7.5-1-1.1-3.4 0.3-4.1 0-1 0-1 1.3-1 1.3l-6.9 0.4-0.3 1h-7.2l-0.3 1-10.3 0.4-0.7 1.4c0 0-7.9 0.6-11.6 0.6-3.8 0-23.3 0.7-28.1 0-4.5-0.6-19.9-1-23.3-1.7-3.1-0.7-7.9-2.4-9.2-2.7-1.4-0.7-2.1 0.3-3.1 1.4-1 1-2.4 3-3.4 5.1-1.4 2.4-1 3.4-1 3.4 0 0-4.2-4.1-8.9-2.7-3.8 1-6.9 4.8-6.9 4.8l-3.8-7.9-6.8 2.7 3.8-15c0 0-2.8 1.3-7.6 4.1-4.8 3.1-8.5 3.7-8.5 3.7 0 0 4.4-17.1 7.8-24.3 1.8-4.1 10-10.9 15.8-16.4 6.2-5.2 12.3-13 16.8-19.2 2.7-3.8 4.4-7.9 4.1-11.6-0.4-5.5-5.8-6.5-5.8-6.5 0 0-4.2 0-8.9-1.8-4.8-1.3-5.2-2.7-7.9-4.4-2.8-1.4-7.2-5.8-7.2-5.8 0 0-4.8-0.4-8.9-2.1-4.8-2.4-7.9-5.1-7.9-5.1l1-2.8c0 0-3.4-1-6.5-2.7-5.1-2.4-8.2-3.8-8.2-3.8l1.7-2.7c0 0-6.8-3.1-10.2-6.2-3.1-3.4-7.9-7.9-7.9-7.9l2.4-0.3c0 0-3.8-3.1-6.9-6.5-3.7-4.1-5.4-8.6-5.4-8.6l1.3-0.7c0 0-2 0-5.8-4.4-3.7-4.1-7.2-9.6-7.2-9.6l2.8-1.4c0 0-1.4-1.7-8.2-10.2-5.5-6.6-7.9-13.4-7.9-13.4l2.4-1.4c0 0-1-1.3-3.8-7.9-2.7-6.5-3.1-9.5-3.1-9.5l2.1-1.4c0 0-1.4-4.1-2.4-7.2-2.1-5.1-4.5-13-4.5-13l2.4-1.1c0 0-2-4.4-4.1-10.9-1.7-6.5-2-12.3-2-12.3l3.7-0.4c0 0-1.3-4.4-3-12-1.4-6.1-1.4-12.3-1.4-12.3h5.5v-9.9c0-7.9 0.3-13.7 0.3-13.7h3.8c0 0 0-11.7 1.3-19.6 2.8-14.4 8.6-18.1 8.6-18.1 0 0 1-7.9 4.5-15.1 4.7-9.9 22.9-29.1 22.9-29.1 0 0-17.1 37.3-7.5 63.7 4.1 11.7 9.5 25.7 26.7 43.2 6.5 6.8 24.3 19.8 24.3 19.8 0 0-1.1 8.6 0.3 23.3 1 9.6 14.7 26.7 29.1 29.8 8.2 2.1 15.1 2.8 22.2-2.7 4.8-3.8 4.8-8.2 2.8-17.5 0 0-0.7-7.2 0-9.9 1-3.1 5.1-9.6 6.5-12.7 1.7-3.8 1.7-6.8 3.1-9.9 1.3-3.1 5.1-5.9 9.5-6.9 4.8-1.3 11.3-1.3 14.1-1.7 3.7 0 6.5 1 8.5 1.7 1.8 0 9.3 2.1 13.7 3.8 6.9 3.1 12.4 8.9 13.7 12.7 1 3.4 0.7 5.4 0.4 5.4-1.4-0.6-2.1-1.3-3.8-1.3-2.7-0.4-2.4 2-5.5 3.7-3.1 2.1-5.1 2.8-5.5 4.5-1.3 8.9 6.5 22.9 12 27.1 7.9 6.1 14.1 3.7 22.6 1.7 14.1-3.1 24.3-17.5 28.4-26.1 3.8-8.2 5.2-22.6 5.2-22.6 0 0 12.6-12 20.5-20.2 17.1-17.5 21.9-33.5 26.4-45.2 9.2-26.4-7.9-63.7-7.9-63.7 0 0 18.1 19.2 22.9 29.1 3.4 7.2 4.5 15.1 4.5 15.1 0 0 5.8 3.7 8.5 18.1 1.7 7.9 1.4 19.6 1.4 19.6h4.1c0 0 0.3 5.8 0.3 13.7v9.9h5.2c0 0 0 6.2-1.4 12.3-1.4 7.6-3.1 12-3.1 12zm-5.1-43.5c0 0 2 6.9 1.4 14.1-0.7 6.1-2.4 11.9-8.3 20.8-3.7 5.5-9.2 10-9.2 10l-1.7-8.6c0 0 5.8-8.5 9.9-14.7 3.4-6.5 6.9-15.1 7.9-21.6zm-7.2-29.4v-0.7c0 0 3.4 8.2 3.8 19.2 0 4.4-1.4 12.6-4.1 21.5-2.4 6.9-8.9 13.7-8.9 13.7l-2.1-6.1c0 0 7.2-19.6 8.2-25.4 0.7-5.8 3.1-22.2 3.1-22.2zm-102 266.8c2.4 2.7 1.4 5.8 4.8 5.8 3.4 0 1 2.4 1.7 4.5 0.7 2 1 2 2.1 4.8 1.3 2.7 0.6 4.4 0.6 8.5 0 4.1-0.6 3.1-1.7 0-0.7-3.1-1.3-2.4-1.3 0.7 0 3.1 1 4.5 2 7.9 0.7 3.4-0.3 5.5 1 12 1.1 4.1 2.1 6.5 3.8 7.5 1.7 1.4 2.7 2.1 2.4 4.5-0.7 2.4-2.4 1.3-5.1 0-2.8-1.1-2.4-1.8-5.2-1.8-2.7 0-1.3 2.8-2.4 1.1-1.3-1.4-3.7-5.5-4.8-8.6-1.3-2.7 0-2.7 1.4-1 1.4 1 3.1 3.7 3.4 4.8q0.6-0.5 1.1-1.1c2-2 1.7-4.1 0.3-5.8-1.7-1.3-1.4 0-2.4-2.7-0.7-2.4-1.7-3.8-3.1-6.5-1.7-2.4-3.7 0-2.7 1.7 1 1.4 1.7 5.8 0.3 4.1-1.7-2.1-5.1-3.4-6.8-6.2-0.7-1.3-2.4-4.8-6.5-9.2-3.1-3.4-3.4-4.8-2.1-4.1 1.1 0.7 6.9 6.8 6.9 6.8 0 0 0-1-3.1-5.5-3.1-4.8-2.4-3.4-2.1-3.4 1.4-1.4 4.5 2.4 1.8-1.4-2.1-2.7-2.8-3-2.8-3 0 0-2 1.3-3.7-2.8-2.1-4.1-1.4-2.7-3.1-6.5-2.1-3.7-2.1 0.4-1.1 3.1 1.4 2.4-3.7-4.1-3.4-1 0 1.3-0.7 1.7-0.3 3.4 1 3.1-0.7-1-5.5-4.8-4.8-3.1-3.4-3.1-5.5-6.2-2.4-3.4 1.4-3.4 2.8-2 1 1 1.7 2.7 4.8 5.1 2.7 2.8 3.4 0 2.4-3.7-1.1-3.8-1.8-3.5-3.5-3.5-3.4 0-2.7-4.1-2.4-8.2 0.4-4.4-1.7-5.1-2-3.4-0.7 2-0.7 3.1-1 5.5-0.7 2.4-0.7 6.1-2.4 5.4-1.4-0.6-1.1-2-3.1-4.8-1.7-2.7-4.5-3-6.5-1.7-2.4 1.7-3.1 3.5-3.8 2.1-2-4.5-7.2-2.1-6.8-4.1 0.3-2.4-1.7 1.3-3.8 2.7-2.4 1.7-1.4-1.4-3.8-1.7-2-0.3-3.7 3.4-4.8 6.2-1.3 4.8-2.4 11.3-6.8 15.7-5.1 5.9-4.8 5.2-10.3 10.6-4.4 4.2-10.9 14.8-13.3 17.9-2.1 3.4-7.2 9.9-8.9 13.3-2.1 3.4-5.5 2.8-6.5 3.1-0.7 0.3-7.9 3.4-7.9 3.4 0 0-1.7-2.7-1.4-5.8 0.4-2.7-2.4-3.4-3.7-2.4-1.1 1-3.8 3.8-3.5 2.7 0.7-1 1.1-7.1 2.4-9.9 1.8-2.4 1.8-4.8 1.1-6.2-0.7-1.7 1.3-5.4 2.4-7.5 1-2 6.5-16.4 6.1-15.4-0.3 1.4 0.4 6.2 1.1 2.7 0.3-3 3.7-7.5 3-5.1-0.7 2.4-1.7 11.6-1.3 10.3 0.3-1.4 2-5.2 2.4-7.9 0.6-2.7 6.5-10.3 5.1-8.2-1.7 2.4-1.7 7.2 0.3 6.1 0.7-0.3 0.4-3.4 3.5-7.2 3-3.7 10.2-5.8 17.4-12.3 7.2-6.1 5.5-16.4 7.5-20.2 1.8-3.8-0.3-30.5-0.6-36.3-0.4-6.2-6.9-32.9-8.9-40.1-1.4-5.5-5.2-13.7-6.5-18.1-1.8-5.9-7.2-6.2-11.3-7.9-3.5-2.1-18.2-3.1-43.9-25.4-5.1-4.4-30.4-30.8-36.6-45.2-2.4-5.1-15.7-26.3-18.1-50.7-1.7-17.1 0-27 1.4-33.2 3-12.3 10.9-20.9 13.6-23.3 0 0 3.1 0.7-0.3 6.2-2.1 2.7-2.4 5.5-3.4 13.3-0.4 5.5-1 19.9 4.4 34.6 2.1 5.5 7.2 22.6 27.1 41.5 4.4 4.8 16.4 13.7 19.5 17.1 2.7 3.4 1.7 2.8 2.4 7.2 1 4.8-0.4 13.4 0.7 16.8 0.6 3.4 4.4 10.6 7.5 14.4 3.4 4.4 3.8 6.5 6.8 8.5 3.5 2.4 3.8 1.8 3.8 3.5 0.3 1.3 0 1.3 3.4 2 3.4 1 2.8 1.4 2.8 2.4 0 0.7 2.7 0.7 5.4 0.4q1.4-0.4 3.5 1.3c1.3 1.4-0.7 1.7 0.6 2.1 1.4 0.3 1.8 0.7 2.8-0.4 1.4-1 4.1 0.4 8.2-1 4.1-1.4 10.3-2.4 14-8.2 2.8-4.1 1.7-3.1 2.4-6.5 0.4-3.4 0-2.8 0-5.2 0.4-2.7 0.7-0.6 1.4-1 0.7-0.7 0.3-5.1-1.4-6.8-1.3-1.7-2.4-2.8-1.3-7.6q0-0.3 0-0.3 0 0 0.3 0c1.4 0.3 1.7 0.7 2.1 0.3 0.3 0 0.3 0 1-0.3 0.3 0 0.7-0.7 0.7-0.7l-0.4-0.3c-1.3-0.4-1 0-2 0-1.1 0-0.7-0.7-1.1 0q-0.3 0.3-0.6 0.7c0.6-3.5 1.7-3.5 2.7-5.5 1.4-2.4 2.7-7.6 4.4-10.6 1.8-3.1 1.4-6.2 3.5-8.3 1.7-1.3 3.4-2.4 5.8-2.7 2.4-0.7 6.5-0.7 7.2 0 0.7 0.7-1 0.7-2.8 1-1.7 0.4-0.3 0.4-1.3 1.7-1.1 1.1-1.4-0.3-2.1 0.7-0.7 0.4-0.3 1.7 0.4 2.1 0.6 0.7 1.3-1.1 2.7-1.7 1-0.4 2.7-0.7 2.7-0.7 0 0 1.4 2-2 2-2.1 0.4-2.1 1.7-2.8 3.1-0.3 1 0 3.1 0.7 3.8 1.1 0.3 2.1 0.3 3.5 2 0.6 1.1 2.7 1.7 7.1 1.7 1.8-0.3 3.1-0.6 4.8-2 2.4-2.4 1.1-4.8 1.1-4.8l2 0.7c0 0 3.4 1 3.4 0.3-0.3-1-5.1-5.1-8.5-6.5-3.1-1-1.7-3.4-1.7-3.4 0 0 0.3-1 4.4-0.4 1.7 0.4 2.8 0.7 5.2 1.1 2.7 0.7 6.8 1.7 8.2 2.4 1.3 0.7 0.7 2.7-0.4 3.1-0.7 0.3-1.3 0.6-2.4 1-1.3 0.3-0.7-0.7-1-2.1-0.3-1.7-1.7 0-1.4 1.7 0.4 1.8 1.4 1.8 1.7 3.8 0.4 1.7 2.4 2.7 4.8 2.4 2.1-0.3 3.8-2 7.2-2.7 3.4-0.7 3.1 1.3 4.8 3 2.1 1.4 2.1 2.4 0 2.4-2 0-4.1-0.3-6.5 0.4-2.7 1-4.8 2.7-4.8 3.8-0.3 2 1.7-0.4 3.8-1.1 2.4-0.7 1.7 1.1 0.7 2.4-1.4 1.7-6.2 2.4-8.2 2.8-2.4 0.3-4.2-2.1-4.2-2.1 0 0 0.4 3.4 3.1 5.5 2.8 2.4 4.8 8.9 6.5 12.3 1.4 4.1 4.8 11 6.9 13.4 1.7 2.4 8.2 6.5 12.6 7.2 6.9 1 10.7 0.7 18.9-1.4 6.5-1.7 14.3-8.2 21.5-16.8 7.2-8.9 8.9-24 10-28.4 1-4.5 0.6-3.8 2.7-6.2 2.1-2.4 4.1-3.7 11.3-10.6 7.5-6.8 18.5-21.6 23.6-29.8 3.8-6.8 13.4-27.4 13-44.5 0-9.6-1-23.7-1-23.7 12.7 12 13 29.2 13 29.8 0.7 6.2 0.3 18.5-2.1 27.1-2 8.9-10.9 30.5-14.7 37-4.1 6.5-27.7 40.4-33.5 45.9-5.8 5.1-13.7 13.7-22.6 19.9-7.5 5.1-24.3 10.6-26 10.9-1.4 0.4-6.9 2.1-8.9 3.1-2.1 1-4.5 6.2-5.2 7.2-0.6 0.7-2.7 3.8-2.4 4.8 0.4 1-0.6 2.7-1 4.1-0.3 1.7-1.4 1-1.4-1.4 0-2.4-1 0.4-1 0.4 0 0-0.7 0.7 0.4 3.1 0.6 2.4 0 2 0.6 4.1 0.4 1.7-0.3 4.1-0.6 4.8-0.7 1-1.7 2.4-1.4 5.1 0.3 2.7-0.7 4.1-0.3 5.8 0.3 1.4 1.3 4.5 2 3.5 0.7-1.1-0.7-1.4 0-5.9 0.7-4.4 0-4.8 1-6.1 1.4-1.7 1.1-1.4 2.1-6.2 0.3-2.4 1-2.7 3.8-4.5 2.3-1.3 0.6 2.8 0.6 2.8 0 0-1.7 0.3-2 2-0.4 2.1-0.7 4.5 0.3 7.2 1.1 3.1-1.3 5.2-1.7 6.9-0.7 2 0.4 6.5 0.7 5.5 0.3-1.4-0.7-5.2 1.4-7.6 1.7-2.4 0.7-6.1 2.4-9.6 2-3.4 1 1.1 1.7 4.5 0.7 3.4-1.1 1.7-1.1 1.7 0 0 0.7 2.1 0.7 4.8 0 2.4-1 3.8-0.7 6.2 0.4 2-1.3 2.4-1.3 6.5 0 4.1 0 4.4-0.4 5.8-0.6 1.7-2.7 4.8-0.6 3.8 1.7-1.1 2.7-4.8 3.4-6.2 0.7-1.4 0.3-2.4 2.4-6.9 2-4.4 0.3-2.7 0.3-4.7 0-1.8 1-1.4 1.7 0 1.1 1.7 0 2.3 1.7 3.4 0.7 0.7-0.3 2.4-1 5.8-0.7 3.4-0.7 2.4-1 4.8 0 2.4-1 2.4-2.1 3.4-1 1.4-1-0.7-0.7-1.7 0.4-1.4 1.4-1 0.4-2-0.7-0.7-1.4 1-1.7 3.4-0.4 2.4-0.4 4.8-1.7 6.8-1.1 1.7-1.4 2.4-2.4 6.9-1.1 4.1-2.8 6.1-2.8 6.1 0 0-0.3 2.4-1.3 3.5-1.1 1-2.1 0.7-1.4-2.4 1-2.8 0.7-2.8 1.7-4.1 1-1.8 1.4-1.4 0.7-2.4-0.7-0.7-1 0.6-2.8 2.4-1.7 2.4-0.3 2.7-1.3 4.8-1.4 2.7-1.4 2-1 3.4 0.3 1.7-0.7 2.4-2.1 2.4-1.4 0 0-3.8 0.3-6.9 0.4-3.4-1-1-1.3 0.4-0.4 2.4-1.1 5.1-1.1 8.5 0.4 1.7 2.4 0.4 3.5 0.4 1.3 0 1.7 2.4 2 1.3 0.4-1.3 0-2 1-3.7 0.7-1.4 2.1-1 4.5-1.4 2.1-0.3-0.7 2.7-2.1 4.8-1.7 1.7-3 5.8-3 5.8 0 0 2.7-0.3 2 0.7-0.3 1.4-0.7 2.1 0 4.8 1 2.4 1 5.5 2.1 9.3 0.7 3.7 1.3 4.1 3.4 6.1 2 1.7 4.8 2.4 4.8 2.4 0 0 5.8 8.2 8.2 11zm-37.3-192.9c0 1.1-0.3 1.1-1.4 0.7-1-0.3-1-0.7 0.4-1.3 0 0 1-0.4 1 0.6zm-15.4-1.7c0 0 0.7 1.7-0.7 3.1-1 1-1.4 1.7-3.4 2.1q-0.4 0-0.7 0c1.7-0.4 2.4-1.7 2.4-3.5 0-1.7-1.4-3.4-3.8-3.4-2.4 0-3.7 1.7-3.7 3.8 0 1.7 1 3.1 3 3.4-1.3 0-2.7-0.7-4.1-1.4-2-1-2.4-2.4-2.4-3 0.4-0.4 2.8-2.1 6.2-2.8 1.7-0.7 5.1 0.4 7.2 1.7zm-165.3-72.9v0.7c0 0 2.7 16.4 3.4 22.2 0.7 5.8 7.9 25.4 7.9 25.4l-2.1 6.1c0 0-6.5-6.8-8.6-13.7-3-8.9-4.4-17.1-4.4-21.5 0.3-11 3.8-19.2 3.8-19.2zm-6.9 30.1c0.7 6.5 4.1 15.1 7.9 21.6 3.8 6.2 9.6 14.7 9.6 14.7l-1.7 8.6c0 0-5.5-4.5-8.9-10-6.2-8.9-7.9-14.7-8.3-20.8-0.6-7.2 1.4-14.1 1.4-14.1zm-3.4 27.1c2 3.7 10.3 14.7 13 18.8 3.1 3.8 8.9 10.6 8.9 10.6v10.6c0 0-7.9-6.5-11.6-11.6-3.5-5.5-7.9-13-9.6-18.5-3.1-8.2-0.7-9.9-0.7-9.9zm2.4 34.6c-2.1-5.2-3.1-9.3-3.1-10.3-0.3-2.1 2.1-1.4 2.1-1.4l1.3 2.1c1.7 2.4 10.3 13.3 14.1 17.1 3.7 3.8 8.9 8.2 8.9 8.2l0.7 11c0 0-8.6-5.8-13.1-10.3-4.4-4.8-8.9-11.3-10.9-16.4zm121.5 94.2c0.7 1.3 0.3 2.7 1.4 3.4 1.3 0.3 0.3 1.4 1.7 3.1 1.4 2 0 3.1 1 4.1 0.7 1.3 0 3.1 0 4.8 0 1.7-1 0.7-1 0.7 0 0-1.4-0.7-1.7-3.1-0.4-2.1-1.1-1.4-1.7-4.5-0.7-3.1 0 0-1.1-1.3-0.7-1.1-0.7-1.8-0.7-3.8-0.3-1.7-1.7-1.4-1.7-1.4 0 0-1.3-1.7-0.3-2.7 1-1.4-1-0.7-1.7-3.8-1-3.1-3.1-2.7-3.1-4.4 0-1.8 1.4 0.3 1.7-1.4 0.4-1.4-1-2.1-1.4-3.8-0.3-2 0-2 1.8-3.4 0 0 1.3 2.4 1 4.1-0.4 2.1 0.3 3.8 0.7 5.5 0.7 1.4 0-0.7 0.3-2.4 0.4-1.4 0.4-2.1 1-0.7 0.7 1 1.4 2.4 1.4 2.4 0 0 0 1.4 0.3 3.8 0 2.4 0.4 3.4 0.4 3.4 0 0 1 0.3 1.7 1.4zm-5.1 76c1-1.4 0.3-1 2.4-1.4 1.7-0.3 0.6-0.3 2.4-1.7 1.3-1 2.4-0.7 2.4-0.7 0 0 1-1.3 1-2.4 0-0.7 0.7-1.7 1.7-3.4 1.4-1.4-0.3-0.7 0-1.7 0.7-1 1-1.7 1.4-2.7 0.3-1.4 0-1.4 1-2.8 1-1 1.4 1.7 1.4 1.7 0 0 0.6 1.1 1-0.7 0.3-1.3 0 0 0.7-2.7 0.7-2.7-1.4-2.1-1.7-2.7 0-1.1-0.7-1.4 0-3.1 0.3-2.1 0 0 0.3-1.4 0.7-1.4-0.7-0.7-1.4-1.4-0.7-1-3-2-3-2v-1.7c0-1.4-1.8-0.7-1.4-2.1 0.3-1.4 0 0 0.7-1 0.7-0.7-0.7-0.7 0-2.7 0.7-1.8 0 0-1.4-1.1-1.4-0.7 0.7-3.1 0-3.7 0 0-0.7 0.3-1.4-0.7-1-1.1-1-1.7-2-3.8-1.1-2.4-1.1-1.7-2.4-3.1-1.7-1.7 0-1 1-1 0.7 0 0.7-1 0.7-1l-1.4-2.4 0.7-2.1c0 0 1 1.4 2.7 4.1 1.4 2.8 0.4 2.4 2.4 4.5 2.1 2 1.8 3.7 3.1 5.8 1.7 1.7 0 0 0.4-2.4 0.3-2.1-0.4-2.4 0.6-5.8 1.1-3.4 0-2.1-0.3-5.2-0.3-3 0-4.1 0-6.5 0-2.4-0.3-4.1-1-5.8-0.7-2-0.7-2.7-0.7-4.1 0-1.7 1-1.7 1-1 0 1 0.4 1 1.7 2.7 1.1 2.1 0.4 2.8 0.7 3.4 0.4 1.1 0.7 3.8 0.7 3.8 0 0 0.7 3.8 1.4 5.8 0.7 1.7 0.3 2.1 1.7 1.4 1.7-0.7 0.7-1 0.3-3.4-0.3-2.1-0.7-1.7-1-4.8-0.7-2.8-0.3-2.8 0-4.1 0.3-1.7-1-3.1-1-5.2 0-1.7-0.4-2.7-1.1-3.7-0.6-1.4-1.3-3.1-1-5.2 0.4-2-0.7-2-1.7-3.4-1-1.4-0.3-4.1 0-6.9 0 0 1.7-0.6 2.1 0.7 0 1.1 0 0.7 0 2.8 0 1.7 0.3 1.3 2 4.1 1.4 2.4 0 1.7 0 3.7 0 1.8 0.4 2.8 1 4.2 0.4 1 0.4 1.3 0.7 3 0.4 1.4 0.4 2.1 2.1 5.9 1.3 3.7 0 1.7 0.3 3 0.4 1.1 0.7 1.8 0.7 5.2 0 3.8 0 3.8 0 5.5-0.3 1.7 0 1-1 2.7-1 2.1 0 1.7 1.7 1.4 2-0.4 0.7 1.7 0.7 1.7 0 0 0.3 1.7 0.3 3.4 0 2.1-1 6.2-1 8.9 0 2.4 0.7 4.5 1 5.8 0.4 1.8-1.4 1.1-1.4 1.1 0 0-0.3 4.8-0.3 5.5 0 1 0 6.5-0.3 8.5-0.4 1.7-1.7 0-1.7 0l-1.8-0.3c0 0 2.1 1.3 1.4 2-0.7 0.7-1.4 1.7-0.7 2.8 0.7 0.7-1 3-1 3l-2.1 1.1c0 0-3.4 2.7-4.4 4.1-0.7 1.4-2.1 1.4-2.1 1.4 0 0-3 0-1-1.1 2.4-1-2 1.1-2 1.1l-2.8 1.7-3.1 1.7c0 0 0.4-1.4 1.1-3.1zm9.2-48c0 0-1.4-1.3-2-3.7-0.7-2.8-1.4-2.8-2.4-3.8-1.1-1.4-0.7-2.4 0-3.8l2 0.7 0.7 1.1c0.7 1 1 2.4 1 2.4 0 0 0.4 3 1.1 4.1 0.3 1.3-0.4 3-0.4 3zm-81.5-70.2c2.1 2.1 15.1 11 20.6 14.1 1.4 1 3.1 1.7 3.1 1.7 0 0 4.1 4.8 4.1 5.5 0 1-0.7 1.7-2.1 0.7-1.7-0.7-12-6.2-17.1-10.3-7.2-5.8-8.9-8.9-9.6-9.6-2.4-3.4 1-2.1 1-2.1zm-11.6-19.2c-2.7-5.1-4.1-7.5-4.1-7.5h2.4c2.1 2.1 23.6 18.9 24.6 19.5 1.1 0.7 4.5 3.5 5.9 5.9 2.4 4.4 2.4 3.4 3.4 5.8 0.7 2.7 1.4 5.1-1 3.8-2.4-1.1-11-5.9-18.2-12.7-5.5-5.5-10.3-9.6-13-14.8zm15.8 32.9c2.7 2.1 17.1 11.3 22.5 13 1.8 0.7 2.4 1.1 3.1 2.8 0.4 2 3.8 4.4 0.7 3.4-3.1-0.7-7.5-2.4-13.7-5.8-5.8-3.1-9.6-7.5-12.3-10.3-6.2-6.5-0.3-3.1-0.3-3.1zm13.3 18.5c2.7 1.7 13.7 6.2 15.4 6.9 2.4 1 3.8 0.3 4.1 2 0.4 1.7 1 1.4-1 1.7-1.7 0-5.1-1.3-10.3-3.7-5.1-2.8-7.5-4.5-8.9-5.5-1.4-1.4 0.7-1.4 0.7-1.4zm8.9 12c2.4 1 7.9 3.1 10.3 3.8 2 0.3 5.1 0.3 5.8 0.7 1 0.7 2.7 2 1 2-1.7 0.4-6.1-1-8.2-1.3-2.1-0.7-5.8-1.8-7.9-2.8-5.1-2.4-1-2.4-1-2.4zm43.1-25c0.4 1.4 0 4.5-1.3 1.7-1.1-2.4-1.1-4.1-5.9-6.5-5.1-2.7-5.1-1.7-10.9-7.2-5.8-5.8-5.8-6.8-6.9-8.5-2-4.5 2.4-1.1 2.4-1.1 2.8 2.1 12.7 9.3 16.5 10.7 3.4 1.3 6.5 1.3 7.8 3.4 1.8 2.4 2.4 3.7 2.1 6.8 0 3.1-1 2.8-1.7 0.7-0.7-2.4-2.1-4.4-2.1-4.4 0 0-0.3 2.7 0 4.4zm-0.3 39.1c-0.4 1.3-1.4-0.7-2.7-3.1-1.4-2.4-1.1-1.4-2.1-2.1-1-1 0.3-1 2.1-0.3 0 0 1 1.7 2 2.7 1.4 1 0.7 1.7 0.7 2.8zm1 5.4l1 1.4c0 0-1.3 0.4-2 0-1-0.3-0.4-1 1-1.4zm-15.7-16.4c0.7 0 2.7 1 0.7 1.4-2.4 0.7-2.4 1.3-4.5 0-2.4-1.1-3.8-2.4-3.4-3.1 0.7-0.7 2.4 0 2.4 0 1 0.7 3.7 1.7 4.8 1.7zm-1.7-23.6l0.6-0.4c1.8 1 5.5 3.1 6.2 3.8 1 1 4.5 3.1 2.4 2.4-2.1-0.4-2.7-0.7-5.5-2.4-3.1-1.4-3.7-3.4-3.7-3.4zm2.4 9.2c-1.1-1 1.3-0.3 3.7 1 0 0 1.4 0.7 1.7 1.8 0.4 1-1.7 0.3-2.7-0.4-1.4-1-2.1-1.4-2.7-2.4zm5.1 9.3c0-1.1 1-1.1 3.1 0.6 0 0 1.3 2.1 2 2.8 0.4 1-2 0-2.7 0-0.7-0.4-2.4-2.1-2.4-3.4zm1 22.2c-2 0.4-3.4 0.4-4.1-0.3-0.3-0.7 1-1.7 1-1.7 1.4 0 3.5-1.1 3.8 0 0.3 1 1.4 1.7-0.7 2zm3.1-39.7c0 0 1 0 1.4 1 0.3 0.7-0.4 0.7-1.1 1.4-1 1-1.3-0.7-0.3-2.4zm-14.4-13c2.1 1.3 4.5 2.4 7.2 4.4 2.4 2.4 5.1 4.5 5.1 5.9 0.4 1.7-0.6 0-3.4-1.8-3.1-1.7-2.4 0.4-5.5-2.7-3-3.1-4.4-4.5-5.1-5.8-0.7-1.1 1.7 0 1.7 0zm0.7 24.3c0.3 2 2.4 4.4-0.3 3.8-2.8-0.4-2.8-1.1-6.2-3.1-4.8-2.8-2.7-3.8-2.7-3.8 2.4 0.7 4.1 1 5.4 1.4 1.1 0.3 3.8-0.4 3.8 1.7zm-7.9 18.5c1.7 0 3.8-0.7 3.8 0.7 0 1.7 1.4 2.4-0.7 2.4-2 0.3-1 0.7-4.8-0.7-5.5-1.7-6.5-3.1-6.5-3.1l-0.3-1.7c1 0.3 6.8 2 8.5 2.4zm2.1 6.8c1 0 4.8-0.6 5.5 0.4 0.6 1 1.7 2.4 1 2.4-0.7 0.3-1.7 0-4.1 0-3.8 0.7-2.4-2.8-2.4-2.8zm5.8-7.5h0.7c2 0 3.8 0.7 5.1 0.7 1.4 0.3 2.4 0.7 2.8 1.7 0 1.4-2.1 1.7-4.5 1-3.8-1.3-4.1-3.4-4.1-3.4zm7.2 15.8c1-0.4 1.4 0.6 2 1.3 0.4 0.7-1.7 1.1-2.7 0.7-1.4 0-2 0-2-1 0-0.7 1-0.4 2.7-1zm1 7.2c0.7-1.4 2.8-0.4 4.8-0.4 0 0 1.7 2.8 2.1 3.8 0.3 1-2.4 0-4.1-1-1.4-1.1-3.5-1.4-2.8-2.4zm4.5-5.2c-0.7-1 0.3-2 0.3-2 1.7 0.3 3.1 0.3 4.1 0.6 0.7 0.4 3.8 1.4 0.4 2.1-3.1 0.3-4.1 0.3-4.8-0.7zm4.4 4.1c2.1 0.4 3.8-0.3 4.5 0.7 0.7 1 2.7 3.1 0 3.1-3.1-0.3-4.1-0.7-4.5-1.4-1-1 0-2.4 0-2.4zm3.8-21.9c-1.7-2.4-1.4-2.4 0-3.8 1-1.3-1-1.3-0.7-3.7 0 0 1.4-0.4 2.7 2.4 1.7 2.4 0.4 1.7 0.4 1.7l0.7 1c0 0 0.6 2.1 1 3.1 0.7 0.7-0.4 2.4-0.4 2.4l-0.6 1c-1.1 1-1.7-1.7-3.1-4.1zm3.4-44.2c1.4 2.8 1 4.5 0 2.4-0.7-2-2.7-4.1-5.5-6.8-2.7-2.8-7.2-3.1-10.6-4.5-3.1-1.4-8.2-5.8-11.6-9.2-3.4-3.5-4.5-3.5-2.8-3.8 2.1-0.3 5.9 3.1 14.8 6.8 8.2 3.1 7.5 1.8 11.6 4.2 3.8 2 4.4 2.4 4.8 4.8 0.3 0.3 0.3 0.6 0.3 1 0 0-2-0.4-3-1-1.4-1.1 1 3.7 2 6.1zm-30.1 12.4c1.4 1.7 2.4 3.4 2.4 4.7 0.3 2.8 0.3 4.5-4.5 2.1-4.8-2.4-6.5-3.8-10.2-7.9-3.8-4.1-3.8-4.8-4.8-6.1-2.4-3.8 2.4-1.8 2.4-1.8 2.4 2.8 7.8 6.6 9.9 6.9 1.7 0.7 3.8 0 4.8 2.1zm-5.5-7.9c-2.4-1.7-5.1-3.8-10.3-8.6-5.1-4.8-5.8-6.2-6.5-7.2-1-2.7 3.1 0.7 3.1 0.7 2.4 2.1 9.9 7.5 11 7.5 1.3 0.4 4.1 0 4.4 2.4 0 2.4 1.4 2.8 1.4 4.1 0.3 1.4-0.4 2.8-3.1 1.1zm-2-13c-2.4-1.8-6.5-4.5-11-9.3-4.8-5.1-5.5-6.8-6.8-9.6-2.8-5.1 1-2.7 1-2.7 1.7 2 10.9 10.3 12.6 11.3 1.8 1 3.5 2 4.2 4.1 1.3 3.4 1.3 2.4 1.7 4.4 0.3 1.8 0.3 3.5-1.7 1.8zm-4.5-16.1c-1.7-1.1-6.5-5.2-10.3-9.3-3.4-3.8-5.8-7.2-7.8-9.2-1.7-2.1-0.4-2.4 1.7-1.1 1.7 1.1 8.2 8.3 16.4 12.4 3.8 2 2.7 3 3.1 5.1 0 0 1.4 6.2-3.1 2.1zm-17.8 4.1c0 0-3.8-1.4-7.2-4.1-5.8-5.2-12-10-17.4-16.1-4.5-4.5-6.2-8.9-6.9-10.7-1-1.7 1.4-1.7 1.4-1.7 0.7 1.4 19.5 20.2 22.2 22.6 4.1 3.1 6.5 3.1 6.5 4.5 0.4 1 1.4 5.5 1.4 5.5zm-4.1-14.4c-2.4-1.4-6.5-4.8-11.3-9.3-4.4-4.8-14.4-15.7-17.5-21.5-3.4-5.5-3-10.3-3-10.3 0 0 14.3 16.1 17.1 19.8 2.4 3.5 10.2 10 11.6 11 1.4 1.4 3.1 2.4 3.4 5.1 0.4 3.1 2.4 6.6-0.3 5.2zm-5.8-19.2c-1-0.3-2.8-2.1-4.1-3.8-16.1-17.1-19.2-26.3-21.6-30.1-2.4-3.8-1.4-9.6-1.4-9.6 0 0 7.6 15.1 10.7 19.9 2.7 4.4 15.4 19.5 16.7 21.2 0 0 1.7 3.4-0.3 2.4zm-45.9 9.9c-1-3.4 1.4-1.7 1.4-1.7 1 1.7 12.6 11.7 14.7 13.7 2.4 2.1 9.2 5.5 10.3 7.6 1.3 1.7 3.1 9.9 3.1 9.9 0 0-2.1-0.4-7.6-3.8-8.9-5.5-14-10.9-16.4-14-3.4-4.8-5.1-10-5.5-11.7zm4.5 17.8c1.3 1.4 13 11.3 19.8 14.4 2.8 1.4 6.5 3.5 6.5 3.5l1.7 9.9c0 0-7.5-3.8-12.6-7.9-12.7-10.3-15.4-19.9-15.4-19.9zm9.5 26.1c-4.7-4.8-4.7-9.3-4.7-9.3 2.4 2.1 12.6 9.6 17.1 12.4 3.1 1.3 11.3 5.1 13.3 7.2 2.1 1.7 4.5 3.4 4.5 5.1 0.3 1.7 0.7 4.8 0.7 4.8 0 0-10.7-5.5-14.1-7.5-7.2-4.2-13.7-10-16.8-12.7zm13.4 20.2c-2.4-2.1-3.1-5.2-3.1-5.2 3.1 1.4 23.6 10.7 24.7 11.7 1 0.7 0.3 1.4 2.7 3.4 2.4 2.1 5.5 4.1 6.2 4.5 0.6 0.3-5.5-0.7-11.3-3.5-6.2-2.7-16.5-8.9-19.2-10.9zm9.6 10.9c3.7 2.8 25.7 10.3 26.3 10.7 1.1 0.3 4.5 2 3.1 2.7-1.7 0.7-6.8-0.7-10.3-1.7-17.1-5.8-19.1-11.7-19.1-11.7zm11.3 13.4c21.5 8.2 23.6 4.5 24.6 5.1 1.4 0.4 4.8 4.8 4.8 4.8 0 0-8.5 1.4-13.7-0.3-15.7-5.5-15.7-9.6-15.7-9.6zm18.5 14.4c1.3 0 18.4 0.3 18.4 0.3l2.4 3.1c0 0-2.7 1.4-7.5 1-12.7-1-13.3-4.4-13.3-4.4zm16.7 12c-7.5-1-8.5-4.1-8.5-4.1l3.4 0.3c2.1 0 13.3-1 13.3-1l3.8 3.8c0 0-7.9 1.3-12 1zm5.5 4.1c3.1-0.4 9.3-1.4 10.3-1.4 0.7 0 1 1.7 1 1.7 0 0-4.1 1.1-6.2 1.4-3.4 0.3-5.1-1.7-5.1-1.7zm15.8 7.9c-3.8 0-6.9-2.4-6.9-2.4l7.5-1.7 4.1 2.4c0 0-1 1.3-4.7 1.7zm6.5-5.5c-1.4-1-2.8-2.1-2.4-3.4 0.3-1.4 4.1 1.7 6.5 2.7 0 0 0.3 1.7-0.4 2.1-0.7 0.3-2-0.4-3.7-1.4zm4.4 9.6c-2.7 0.7-0.3-1.7 0.7-3.4 0.7-1.8 1.4 0 4.1 0 0 0 0.3 2.4-0.3 3-1.1 0.4-2.1 0-4.5 0.4zm1.4 13c-1.4 0.7-2.8 0.3-1.4-1.7 1.4-2.4 1.4-3.4 2.7-4.5 1.4-1 1.4 3.1 1.4 3.1 0.4 1.4-1.4 2.4-2.7 3.1zm1.3-18.8c-0.6-0.4 0-1.4 2.1-1.1 0 0 0.7 0.7 0.7 1.4 0 0.7-1.7 0-2.8-0.3zm-0.6-7.2c-2.1 0-2.1-1.1-2.8-1.7-0.7-0.7 0.7-1.4 0.7-1.4 0.7 0 2.1 0 2.4 1 0.3 1 2.1 2.4-0.3 2.1zm2.4-56.2c0 0 2.4 2.7 3 6.2 0.7 3.4 0.7 8.2 0.7 9.9-0.3 1.7-1.7 2.7-2.4-2.4-0.7-5.1-1.7-6.5-3.4-9.6-1.7-3.1-0.7-2.4 2.1-4.1zm-43.9 139.4c-1.7 1-2-4.1-1.3-6.5 1-2.8 3.1-8.2 5.5-11.3 2-3.1 8.2-9.3 12.6-12.7 0 0 0.4 3.8-2.7 12.7-2.4 5.8-2.8 7.5-5.8 11.3-2.8 3.8-6.9 5.1-8.3 6.5zm52.1-4.5c-1.7 1.4-3.8-1.3-4.8-4.1-0.7-2.7 3.1-5.4 6.1-10.6 3.5-4.8 5.5-5.8 8.6-7.9 0 0-0.3 3.5-0.7 4.5-0.3 1.4-3.4 6.5-4.8 9.9-1.7 3.4-2.7 6.9-4.4 8.2zm22.2-10.6c-0.3 6.2-1.3 9.6-2.4 11.3-0.7 1.4-3.7 6.2-4.8 9.3-1.3 3.1-4.4-3.1-6.5-8.6-2.4-5.8 0-7.5 1.4-12.3 1.4-4.8 10.3-29.8 11.6-33.2 1.1-3.5 1.7-2.1 4.1-0.4 0 0 0.4 1.7 0 4.8-0.6 3.1-1.3 4.5-1.7 8.9-0.3 4.5-1.3 14.1-1.7 20.2zm17.5 19.2c-2.1-1.7-1.7-4.8-2.8-10.3-0.6-5.8-1-12-1-14.4 0-2.7-1-22.2-0.7-23.9 0.4-2.1-1.3 0-1.3 0v39.7c0 3.4-0.7 5.5-0.7 7.9-0.7 2.4-3.8 2-5.2-1-1.3-3.1-2.7-2.8-3.7-5.2-1.1-2.7 1.3-11.6 2-19.5 1.1-7.9 1.1-21.9 1.7-25 0.7-3.1 3.1-4.5 4.5-5.8 0 0 4.4 2.7 5.5 4.4 1 1.4 1 6.5 1.7 10.6 0.3 4.1 2.4 14.1 3.4 20.6 0.7 6.5 1.7 14.4 1.7 17.8 0 3.4-2.7 5.5-5.1 4.1zm20.5-4.8c-0.7 3.1-2 7.5-2 7.5 0 0-3.1-2.7-5.5-5.8-2.4-3.4-2.8-3.1-3.4-6.1-0.7-3.1-7.9-36.3-8.3-41.1-0.3-4.8 0.4-3.1 2.1-5.5 0 0 4.5 3.1 6.8 6.8 2.1 3.5 2.4 8.6 3.5 11 0.7 2.7 5.1 17.1 7.2 23.3 1.7 5.8 0 6.8-0.4 9.9zm15.1-7.2c-0.7 2.8-3.4 2.1-4.5 1.7-1.3-0.7-3.7-1.7-5.5-5.1-1.3-3.4-7.1-16.8-7.8-20.6 0 0 4.8 3.8 6.8 6.2 2.4 2.4 6.9 8.2 9.9 10.3 2.8 2.4 1.8 4.8 1.1 7.5zm32.2-22.6c4.7 3.4 10.6 9.6 13 12.7 2 3.1 4.1 8.5 5.1 11.3 1 2.4 0.3 7.5-1.4 6.5-1.3-1.4-5.5-2.7-8.2-6.5-2.7-3.8-3.4-5.5-5.5-11.3-3.4-8.9-3-12.7-3-12.7zm-2.1 15.8c0 0 0.3-1.4 2.1 2.4 1.7 3.7-0.4 1.3 2 5.8 2.1 4.1-0.3 2-0.3 3.8 0 2-0.7 2.4 0.3 4.8 0.7 2.3 0 1 0 3.7 0 2.8-1-0.7-2-2.7-1.1-2.1-0.7-2.1-0.7-5.2 0-3-0.4-3-1.1-6.8-0.3-3.8-1-2.7-0.3-5.8zm-44.8-224.4c0 0 1.3 0.4 1.3 1 0.4 0.7-1 1.8-1 1.8 0 0-1-0.7-1.7-2.1zm29.8 87.3c0 0-1.4 2.1-2.1 4.5-0.7 2.1-1.7 2.4-1.7-0.7-0.3-3.1 0.7-4.4 2.1-6.8 1.3-2.1 4.4-2.1 8.2-3.5 3.4-1.3 13.3-8.5 16.1-10.6 0 0 4.4-3.4 2.4 1-1.1 1.8-0.7 2.8-6.5 8.6-5.9 5.5-6.2 4.5-11.3 7.2-4.8 2.4-4.8 4.1-5.9 6.5-1.3 2.7-1.7-0.3-1.3-1.7 0.7-1.7 0-4.5 0-4.5zm-3.1-11.3c-1.4 1.1-3.4 1.1-3.4 1.1 0.3-0.4 0.3-0.7 0.3-1.1 0.7-2.4 1-2.7 4.8-4.8 4.1-2.4 3.8-1 11.6-4.1 8.9-3.7 12.7-6.8 14.8-6.8 1.7 0.3 0.6 0.3-2.8 3.8-3.1 3.4-8.2 7.8-11.6 9.2-3.4 1.4-7.9 1.7-10.6 4.5-2.4 3-4.5 4.7-5.5 6.8-1 2.1-1.4 0.3 0-2.4 1-2.4 3.4-7.2 2.4-6.2zm39.4-12.6c1.7-1.1 10.9-9.3 13-11.3 0 0 3.4-2.4 0.6 2.7-1 2.7-2 4.5-6.5 9.6-4.8 4.8-8.9 7.5-10.9 9.2-2.4 1.8-2.4 0.4-2.1-1.7 0.4-2 0.4-1 1.7-4.4 0.7-2.1 2.4-3.1 4.2-4.1zm-2.8-7.9c0.4-2.1-0.3-3.1 3.4-5.1 7.9-4.2 14.4-11.4 16.1-12.4 2.1-1.4 3.8-1 1.7 1-1.7 2.1-4.4 5.5-7.8 9.3-3.5 4.1-8.6 8.2-10.3 9.2-4.5 4.2-3.1-2-3.1-2zm-0.7 23.6c1.1 0 8.6-5.5 11-7.5 0 0 4.1-3.4 3.1-0.7-0.4 1-1.4 2.4-6.5 7.2-5.2 4.8-7.9 6.8-10.3 8.6-2.7 1.7-3.4 0.3-3.1-1.1 0.4-1.3 1.4-1.7 1.7-4.1 0-2.4 2.8-2 4.1-2.4zm-3.4 13.4c2.1-0.4 7.5-4.1 10.3-6.5 0 0 4.4-2.4 2 1.3-1 1.4-1 2.1-4.8 6.2-3.7 4.1-5.4 5.5-10.2 7.9-4.5 2.4-4.8 0.7-4.5-2.1 0-1.3 1.4-3.1 2.4-4.8 1-2 3.1-1.3 4.8-2zm-24.3 33.2c-1 0.7-0.7-0.3-2.1 2.1-1.3 2.4-2.3 4.4-2.3 3-0.4-1-0.7-1.7 0.3-2.7 1.4-1 2-2.7 2-2.7 1.8-0.7 3.5-0.7 2.1 0.3zm-1.4-27.4c0.7-1 1.4-1 1.4-1 1 1.7 0.7 3.4 0 2.7-1-1-1.7-1-1.4-1.7zm0.7 20.2c0.4-1 1.7-3.1 1.7-3.1 2.1-1.7 3.1-1.7 3.1-0.7 0 1.4-1.7 3.1-2.4 3.5-0.7 0.3-3.1 1-2.4 0.3zm5.5-18.5c1-1 4.8-3.1 6.2-4.1l0.6 0.3c0 0-0.6 2.1-3.4 3.8-3.1 1.4-3.7 1.7-5.8 2.1-2.1 0.7 1.4-1.4 2.4-2.1zm-2.7-5.5c0-1.3 2.7-3.4 5.4-5.8 2.4-2 5.2-3.1 7.2-4.4 0 0 2.1-1.1 1.7 0-1 1.3-2.4 2.7-5.4 5.8-2.8 3.1-2.4 1-5.2 2.7-2.7 1.7-4.1 3.4-3.7 1.7zm0.3 40.5c0.3-1.1 2.4 0 3.8 0 0 0 1.3 1 1 1.7-0.7 0.7-2.1 0.7-4.1 0.3-1.7-0.3-1-1-0.7-2zm1.4-26.8c0.7-1 2-1.7 2-1.7 2.4-1.3 4.5-2 3.8-1-1 1-1.7 1.4-3.1 2.4-1 1-3.1 1.4-2.7 0.3zm6.5 11.7c0.7 0 3.4-1 4.4-1.4 0 0 2.1-1 2.4 0 0.7 0.7-0.7 1.7-3.1 2.8-2.4 1.3-2.4 0.6-4.4 0-2.1-0.4 0-1.4 0.7-1.4zm3.7-7.6c-2.7 0.7-0.6-1.7-0.3-3.7 0.3-2.1 2.7-1.4 4.1-1.7 1-0.4 2.7-0.7 5.1-1.4 0 0 2.1 1-2.7 4.1-3.4 1.7-3.4 2.4-6.2 2.7zm-18.4 25.4c-1.1 0.3-2.4 0-2.4 0l1-1.4c1.4 0.4 2 1.1 1.4 1.4zm1.3 10.6c0 0 0.7 1.4 0 2.4-0.7 0.7-1.3 1-4.4 1.4-3.1 0-1.1-2.1-0.4-3.1 0.7-1 2.8-0.3 4.8-0.7zm-0.7-3.4c-3.4-0.7-0.3-1.7 0.7-2.1q1.4-0.3 3.8-0.7c0 0 1 1.1 0.3 2.1-0.7 1-1.7 1-4.8 0.7zm4.5 4.1c2 0 4.1-1 4.8 0.3 0.7 1.1-1 1.4-2.8 2.4-1.7 1.1-4.1 2.1-4.1 1.1 0.4-1.1 2.1-3.8 2.1-3.8zm3.8-5.5c0.6-0.7 1.3-1.7 2-1.4 1.7 0.7 3.1 0.4 3.1 1.1 0 1-1 1-2.1 1-1.3 0.3-3.4 0-3-0.7zm0.6-14.7c0.4-1 1.4-1.4 3.1-1.7 1.4 0 2.8-0.7 4.8-0.7h0.7c0 0-0.3 2.4-4.1 3.4-2.4 0.7-4.5 0.4-4.5-1zm8.9 5.5c0.7-1.1 4.5-0.4 5.5-0.4 0 0 1.7 3.5-2.4 2.8-2.4 0-3.1 0.3-3.7 0-0.7 0 0-1.4 0.6-2.4zm4.5-4.1c-1.7 0-0.7-0.7-0.7-2.4 0-1.4 2.1-0.7 3.8-0.7 1.7-0.4 7.5-2.1 8.5-2.1l-0.3 1.4c0 0-1 1.4-6.5 3.1-3.8 1.3-2.8 1-4.8 0.7zm10.6-8.3c-2.1 0.4-6.5 1.8-8.2 1.8-1.7-0.4 0-1.8 1-2.4 0.7-0.4 3.8-0.4 6.2-0.7 2-0.7 7.5-2.8 10.2-3.8 0 0 3.8 0-1.3 2.4-2.1 1-5.8 2.1-7.9 2.7zm9.6-10.2c-5.2 2.4-8.6 3.7-10.3 3.7-2-0.3-1 0-1-1.7 0.3-1.7 1.7-1 4.1-2 2-0.7 12.7-5.2 15.4-6.9 0 0 2 0 0.7 1.4-1.4 1-3.8 2.7-8.9 5.5zm8.9-11.7c-6.2 3.1-10.6 4.8-13.7 5.8-3.1 0.7 0.3-1.7 0.7-3.7 0.7-1.7 1.3-2.1 3.1-2.8 5.8-1.7 19.8-10.9 22.5-13 0 0 6.2-3.4-0.3 3.1-2.7 2.7-6.2 7.2-12.3 10.6zm8.5-15.7c-5.1 4.1-15.4 9.6-17.1 10.2-1.7 1.1-2 0.4-2-0.6 0-0.7 3.7-5.5 3.7-5.5 0 0 1.7-0.7 3.5-1.7 5.1-3.1 18.1-12 20.2-14.1 0 0 3.4-1.4 1 2.1-0.7 0.7-2.4 3.7-9.3 9.6zm6.9-16.1c-6.9 6.8-15.8 11.6-18.2 12.6-2 1.4-1.7-1-0.6-3.7 0.6-2.4 0.6-1.4 3-5.9 1.4-2.4 4.8-5.1 5.9-5.8 1.3-0.7 22.5-17.1 24.6-19.5h2.4c0 0-1 2.4-4.1 7.5-2.7 5.2-7.2 9.3-13 14.8zm11.3-26.8c-5.5 6.2-11.7 11.3-17.8 16.1-3.4 2.8-7.2 4.2-7.2 4.2 0 0 1-4.5 1.4-5.5 0-1.4 2.4-1.4 6.5-4.5 2.7-2.4 21.5-21.2 22.2-22.6 0 0 2.4 0 1.7 1.7-1 1.7-2.7 6.2-6.8 10.6zm-9.6-3.4c-4.8 4.5-8.6 7.9-11.3 9.3-2.7 1.3-0.7-2.1-0.3-5.2 0.6-2.7 2-3.7 3.4-4.8 1.3-1.3 9.2-7.8 12-11.3 2.4-3.7 16.7-19.8 16.7-19.8 0 0 0.4 4.8-2.7 10.2-3.4 5.9-13.4 16.8-17.8 21.6zm20.2-43.8c-2.4 3.7-5.5 13-21.6 30.1-1.3 1.7-3.1 3.4-4.1 4.1-2 0.7-0.3-2.7-0.3-2.7 1.3-1.7 14-16.5 16.7-21.2 3.1-4.8 10.7-19.9 10.7-19.9 0 0 1 5.8-1.4 9.6zm-90.7 204.8c0.3 0.3 1.4 0.7 1.4 1 0 0.4 0.6 2.4 2.3 3.1 1.4 0.4 0.4 1 1.1 2.1 0.7 0.7 0.7 2 1.7 2.7 1 0.4 0.3 1.7 0.3 3.1 0 1.4-0.7 0.3-1.3 0-0.7 0-0.4 1.4 0.3 1.7 1 0.7 0.7 1.4 0 2.4-0.3 0.7-0.7-0.3-1.4-2.1-1-1.7-1.3-1-2-2.3-0.4-1.4-1 0-2.1-0.4-1.3 0-0.7-2-0.7-3.8-0.3-1.3-1-0.6-1.7-1.3-0.3-0.4-1.3-2.1-2-2.8-0.4-0.7-1.7-1-1.4-2.4 0-1-0.3-1.3-0.7-1.3-0.7-0.7-1.7-0.4-3.1-0.4-1.3 0-1-0.7-0.3-1.7 0.3-0.7 0.3-0.3 0-1 0-1 0.3-1.4 0-2.1-0.3-1-0.7-0.7-1.4-1-0.7-0.3-1.3 0-1.3-0.3-0.4-0.4-0.7-0.7-0.7-1.4-0.4-0.7-0.7-0.4-1.1-0.4-0.6 0-0.6-1-1-2-0.3-1-0.3-0.4-1-1-0.7-0.7-0.7-0.7-1.7-1.4-0.7-0.7-0.7-0.4-1-1-0.7-0.7-1.1-0.7-1.4-1.4-0.4-0.4-0.7-0.7-1-2.1-0.7-1-1.8-2.7-2.1-3-0.3-0.4-0.7-1.1-0.7-3.1-0.3-2.4-0.3-2.1-0.3-2.8-0.4-0.7-1 0-1-2-0.4-1.7 0-1.1-0.4-1.4-0.7-0.7-1-0.3-0.7-2 0-1.8-0.3-1.4-1.3-2.8-1.1-1.7-0.4-1-0.7-3.4-0.4-2.1 0.3-0.7 1-0.4 1 0.4 1 0 2.1-0.3 0 0 1 0.7 1.3 1 0.4 0.4 0.7 0.4 1.4 0.7 0.7 0.7 0 1.4-0.7 1.7-0.7 0.4-0.7 0.7-0.7 1.7 0 1.1 0 1.8 0 2.8 0 1 0.7 0.3 1.4 1 0.3 1-0.4 1.7 0 2.7 0.7 1.4 1 1.4 1 2.4 0.4 1.4 0 2.4 0.4 3.1 0 0.7 0.3 0.4 1.3 0.4 1.1-0.4 0 0.7-0.3 1.7 0 1 0.3 0.7 1.4 1 0.6 0.4 0 1 0.3 2.1 0.3 1 0.7 0.6 2.1 1.7 1.3 1 3 2.7 4.1 3.4 1 0.7 1.3 0.7 2.4 0.7 1-0.4 0.6 0.7 1.7 1.7 1 0.7 0.3 0.7 0.3 1.4 0 0.3 0.4 1 1.7 2 1 1.1 1.7 1.7 3.4 2.4 2.1 0.4 0 0.4 0.7 1.1 1.1 0.3 1.1 0 1.4 0.3 0 0.3 0 1.7 0.7 1.7zm-1.7-6.5c0.7 0.7 1 1.7 1.7 2.1 0.3 0.6-0.7 0.3-1.4-0.4-0.7-1-1.4-1-2.4-2-1-1.4-2-1.8-3.1-3.1-0.6-1.4-2.7-2.8-3-4.1-0.4-1.1-0.7-1.1-1.1-1.4-0.7 0-0.7 0.3-1-0.7-0.3-1-1 0-1.7-0.3-0.4-0.7-0.7-1.4-0.7-2.4 0-1.4-0.7 0-1.4-0.7-0.6-0.4 0-0.7-0.3-2.1-0.3-1.3-1-0.7-1.4-3.1-0.3-2.4-0.3-2.4 0-3.7 0.4-1.7 0.7-0.7 2.1-0.4 0 0 0.3 0.4 0.7 0.7 0 0.4 0 1.7 0 3.1 0.3 1 0 1.7 0.6 2.7 0.7 1.1 1.4 1.4 1.8 2.1 0.3 0.7 0.3 1 0.3 1.7 0.3 0.4 0.7 1 1.4 1.7 0.7 0.7 1.3 2.1 2 3.1 0.7 0.7 2.4 2.7 3.4 3.4 1.1 0.7 3.1 3.5 3.5 3.8zm-8.6-29.1c0-0.7 0.7-1.4 0.7-1.4 2.1-0.3 2.7 0.7 2.1 1-1.1 0.4-2.8 1.1-2.8 0.4zm3.4-7.6c-2 0.4-0.6-1-0.3-2 0.3-1 1.7-1 2.4-1 0 0 1.4 0.7 0.7 1.3-0.7 0.7-0.7 1.7-2.8 1.7zm6.5 3.5c-1.7 1-3 1.7-3.7 1.3-0.7-0.3-0.4-2-0.4-2 2.4-1 6.2-4.1 6.5-2.8 0.7 1.4-0.6 2.4-2.4 3.5zm6.5 5.5c-3.7-0.4-4.7-1.8-4.7-1.8l4.1-2.4 7.5 1.8c0 0-3.1 2.4-6.9 2.4zm10.7-6.2c-2.1-0.4-6.2-1.4-6.2-1.4 0 0 0.3-1.7 1-1.7 1 0 7.2 1 10.6 1.4 0 0-1.7 2-5.4 1.7zm10.6-5.8c-4.1 0.3-12-1.1-12-1.1l3.8-3.7c0 0 11.2 1 13.3 1l3.4-0.3c0 0-1 3-8.5 4.1zm3.4-7.6c-4.8 0.4-7.2-1-7.2-1l2.1-3.1c0 0 17.1-0.3 18.4-0.3 0 0-0.6 3.4-13.3 4.4zm16.1-9.2c-5.2 1.7-13.7 0.3-13.7 0.3 0 0 3.4-4.4 4.8-4.8 1-0.7 3.1 3.1 24.6-5.1 0 0 0 4.1-15.7 9.6zm7.8-11.3c-3.4 1-8.2 2.4-9.9 1.7-1.7-0.7 1.7-2.4 2.8-2.7 1 0 22.6-7.9 26.3-10.7 0 0-2 5.9-19.2 11.7zm28.8-22.6c-2.7 2-12.7 8.2-19.2 10.9-5.8 2.8-11.9 3.8-11.3 3.5 0.7-0.4 3.8-2.4 6.2-4.5 2.4-1.7 2.1-2.4 2.7-3.4 1.1-1 21.6-10.3 25-11.7 0 0-0.7 3.1-3.4 5.2zm13.4-20.2c-3.1 2.7-9.6 8.5-16.5 12.6-3.7 2.4-14 7.6-14 7.6 0 0 0-3.1 0.3-4.8 0-1.7 2.4-3.4 4.5-5.2 2-2 10.6-5.8 13.3-7.2 4.5-2.7 14.7-10.2 17.1-12.3 0 0 0 4.5-4.7 9.3zm-5.9-6.2c-5.1 4.1-12.3 7.9-12.3 7.9l1.7-10c0 0 3.4-2 6.2-3.4 6.8-3.1 18.8-13 20.2-14.4 0 0-3.1 9.6-15.8 19.9zm20.2-37.7c-0.7 1.7-2.4 6.9-5.8 11.7-2 3-7.5 8.5-16.4 14-5.5 3.4-7.6 3.8-7.6 3.8 0 0 1.8-8.2 3.1-10 1.1-2 7.9-5.4 10.3-7.5 2.4-2 13.7-12 14.7-13.7 0 0 2.4-1.7 1.7 1.7zm3.1-17.4c-2 5.1-6.5 11.6-10.9 16.4-4.5 4.4-12.7 10.3-12.7 10.3l0.7-11c0 0 4.8-4.4 8.5-8.2 3.8-3.8 12.4-14.7 14.1-17.1l1.7-2.1c0 0 2-0.3 2 1.4-0.3 1-1.3 5.1-3.4 10.3zm2.1-24.7c-2.1 5.5-6.5 13-10 18.5-3.4 5.1-11.6 11.6-11.6 11.6v-10.6c0 0 6.2-6.8 8.9-10.6 2.7-4.1 11.3-15.1 13.3-18.8 0 0 2.4 1.7-0.6 9.9zm-144.5 141.5c-0.3-1.1 0-1.4 0.7-2.4 0 0 0.7 0.3 0.7 1 0.3 0.3 0 1 0 2-0.4 1.1-1 0.4-1.4-0.6zm9.3-58.6c-0.4-1-0.4-1.7 0.3-2.8 0 0 1 0 1 1.1 0.4 1 0 1 0 2-0.3 0.7-1 0.4-1.3-0.3zm-3.5 17.8c-0.3 1.7-0.3 2 0 3.8 0 1.3-0.7 1.3-1.3 0.6-0.7-0.6-0.4-1.3-0.4-4.4 0-2.7 0-1.7 0-3.1-0.3-1.7 0.4-1.4 1-1.4 0 0 0.7 1.1 0.7 1.8 0 0.3 0 1.3 0 2.7zm1.1-11.3c0.3-2.4 0-2.1 0.6-3.1 0 0 0.7 0.7 0.7 1 0.4 0.7 0.4 1.7 0 3.5 0 1.3 0 2 0 3 0 1.4 0.4 0.7 1.1 1.4 0.6 0.7 0 2.1 0.3 3.4 0 1.4-0.3 4.1-0.3 5.5 0 1.4-1.1 1-1.4-0.3-0.7-1.4 0-2.4 0-5.2 0-2.7 0-1.3 0-2.7 0-1.4-0.7-0.3-0.7-1.4 0-1.3-0.3-3.1-0.3-5.1zm-0.7-10.6c0 0 0.7 0.7 1 1.3 0 0.7-0.3 1.4-0.7 2.1-0.7 1-1 0.3-1.4-0.7 0-1.4 0-2 1.1-2.7zm4.8 38.3c0.3 0.7 0 2.1 0 4.1l-0.7 1.4c-0.4 0-0.7 0.4-1 0.7q0 1 0 2.1c0 1 0 1.3 0 2.7 0 1-0.7 0.3-1.1 0.7-0.3 0.3 0.4 1 1.4 1 1 0.3 0.3 1.4 0.3 1.7-0.3 0.7-0.3 1.4-0.3 2.4 0.3 1 0 1.4-0.3 2.8-0.4 1.7-0.7 0.3-0.7 1-0.4 0.3-0.4 0.3-0.4 1.4-0.3 1-1 0.6-1.3 1.3-0.4 0.4 0 1.1 0 1.4 0.3 0.7-1.1 1.4-0.7 1.7 0 0.7 0 1.4 0.7 1.4q0.6 0.3 1 1c0 0.7-0.7 0.7-1 1 0 0.4 0 1.1-0.7 1.7-0.4 0.7-0.7 1.1-1.1 0.7-0.3-0.3-1-0.3-1.7-0.7-0.6-0.3-1.7 0-2-0.3-0.7-0.3 0-1.4 1.4-1.7 1-0.4 1.3-0.7 1.7-0.7 0.3 0 0.3-0.3 0.6-1 0-0.4-1.3-0.4-1.7 0-0.3 0-1-0.4 0.4-2.1 1.3-1.7-0.4-1-0.4-1l0.4-0.3c0 0 0 0 0.3-0.7 0.7-0.7 0-0.4 1-1.4 1.1-0.7 0.7 0 1.4-0.7 0.7-0.7-0.3-1 0.4-2.4 0.3-1 0.3 0 1 0 0.7 0.4 0-0.3 0-2-0.4-1.4-0.4 0-1.4-0.4-1-0.3-0.7-1-1.4-2.4-0.6-1.4 0-0.3 0.7-0.3 1.1 0 0.4-0.4 0.7-1.7 0.4-1.7 0-1.4 0.4-3.1 0-1.7 0-0.4 1-0.4 0.7-0.3-0.4-2.4 0-3.4 0-1.4 0-0.7 0.7-0.7 0.7 0 0.3-0.7 0.3-2.4 0.4-1.3 0-1.7 0.4-3.4 0.3-1.4 1 0.3 1.7 1zm-9.6-21.9q0 0.7 0 2.1c0.3 1-0.4 1-1 1-0.4 0.3-0.4-0.3-0.4-2.1-0.3-2-0.3-1.3 0.7-2.4 0 0 0.7 0.7 0.7 1.4zm-90 132.9c-0.4-1.4 0.6-1 1.3-1.4 0 0 0 1.1 0 2.1 0 1.4 0.4 1-0.3 2.4-0.4 1.4-0.7 0.3-1 0 0-0.3 0.3-1.7 0-3.1zm92.4-150.7c0-0.7 0-3.4 1-4.5 0 0 0.7 0.7 1 1.4 0 0.7 0 2.8-0.3 3.4 0 0.7-1.4 0.4-1.7-0.3zm-90.7 157.2c0-1 0-1.4 0.7-2 0 0 0.6 0 1 0.6 0.3 0.4 0 0.4 0 1.4 0.3 1-0.4 1-1 1.4-0.4 0.3-0.4-0.4-0.7-1.4zm90.7-79.8c0 1 0 1.4 0 2.4 0 1.4-1 0.7-1-0.3-0.4-1.1 0-1.4-0.4-3.1 0-1.7 0-1.4 0.7-2.1 0 0 0.7 0.4 1 0.7 0.4 0.7-0.3 1-0.3 2.4zm8.5-80.1c0-1.8 0-1.1 1.1-2.1 0 0 0.6 1 1 1.4 0.3 0.7 0 1.3 0 2.7 0 1.4-0.7 0.7-2.1 0.7-1 0.3 0-0.7 0-2.7zm9.6 111.3c-1.3-0.7-2.7-1.7-2.7-3.1 0 0 0-4.1 1.4-3.1 1.3 1 1.3 2.1 2.7 4.5 1.4 2.4 0 2.4-1.4 1.7zm11.7 36.3c0 1 0 1.4-0.7 2.4-0.4 1.4-1.1-0.4-1.1-2.1 0-1.3 0-1.3 0.4-2l1-0.4c0.4 0.4 0.4 1.4 0.4 2.1zm-8.9 4.4c0.3 1.1-0.4 1.1-1.4 0.7-1.4-0.7-1.4-1-2.1-2-0.3-1.4-1-1.1-1.7-2.8-1-1.3 0.4-0.3 0.4-1.3 0-1.4 0.7-1.1 1.3-0.4 0.7 0.7 0.4 1.4 2.1 2.8 0 0 0.3 1 1 1.3 0.7 0.4 0.4 1.1 0.4 1.7zm-1.1-53.4c-2.7-0.7-3.7 0-4.4-0.7-1-0.7-0.7-3.1-0.7-3.1 2.7 0 3.4-1.7 4.1 0 1 1.8 3.4 4.1 1 3.8zm-18.5 19.9c-0.6 1-0.6 0-1.3-0.7-0.4-0.4-0.4-0.4-1-1.7-0.7-1.4-0.4-0.4-1.1-1.1-1-1-1-0.6-1.3-0.6-0.4 0 0 1 1 2 1 1.4 1 1 1.7 2.1 1 1-0.7 0.3-2.4-0.7-1.4-1.4-0.7-1-1.4-2.4-1-1.4-1.3-1-1.7-2.1-0.3-1-0.3-1.3-0.3-3 0-1.8-0.7-1.1-1-2.8 0-1.7-0.4-1.7 0.6-2.7 0 0 0.4 0.3 0.7 1 0.7 0.3 0.4 0.3 2.4 2.4 2.1 2.1 0.4 1 1.7 3.8 1.4 2.7 0 0.6 1.1 1.3 1 0.7 0.6 0.4 1 1.7 0.7 1.4 0.3 1.4 1.3 1.8 1.1 0 0.4 0.6 0 1.7zm-94.8 41.4c0-1-0.3-1 0.7-2 0 0 0.7 0 1 0.3 0 0 0 0.3 0 1.4 0 0.7-0.3 1-0.6 1.3-0.4 0.7-1.1 0-1.1-1zm89.7-159.3c0-1-0.3-11.3-0.3-13 0.3-1.7 0.3-1.3 1.3-1.3 0 0 0 1.3 0 2.7 0.4 1 0.4 11 0.4 12.3-0.4 1.1-1.4 0.4-1.4-0.7zm-62.3 90.1c-0.3-1-1-3.4-0.7-6.8 0 0 2.1 0 2.8 1 1 1 0.3 1.7 1.7 3.1 1.4 1.4-0.4 5.8-0.7 9.2-0.3 3.5-1 1.4-1-0.6 0-1.8-0.4-1.8-0.4-3.5 0-2-1.3-1.3-1.7-2.4zm-0.3-16.1c-0.4-1.7 0.7-1.7 2-2.7 0 0 1.4 0.7 1.7 1.7 0.4 1-1 2.4 0.7 3.8 1.4 1.3 0 1.7 0.7 4.1 0.4 2-0.7 2.7-1 0.7-0.4-1.7-1.7 0-2.1-0.7-0.7-1-1-1.7-0.7-3.8 0.4-2-1-1.7-1.3-3.1zm61.2-59.6c-0.6-1.3 0.7-0.3 1.4-2 0.7-1.4 0-1.1 0.7-3.1 0 0 0.7-0.7 1-0.3 0.7 0.3 0 0.3 0 1.3 0 0.7 0.7 0.4 2.1 1.4 1.7 0.7 0 1 0 2.4 0.3 1.7 0 1-1 2-0.7 0.7-0.7-0.6-0.4-1.7 0-1 0-1.3 0-2.4-0.3-1-0.7-0.3-1 0-0.7 0.7-0.4 1.1-0.7 2.1 0 1-1 1.7-2.1 0.3zm-1 64.8c0-1.4-0.3-1.4-0.3-2.1 0-1 0.7-1 2-1 0 0 0 0.7 0.4 1 0.3 0 0 0.4 0 1q0 1.1-1.1 1.1c-0.3 0-0.3 0.3-0.3 1.3-0.3 1.1-0.7 0-0.7-1.3zm1.4-11.3c0 0 0.7 0 1.4 0.3 0.3 0-0.4 1-1.4 1-1 0-0.4-0.3 0-1.3zm2.7-7.6c0 0 1.1 0.7 1.1 1.1q0 1-1.1 1c-1 0-0.7-0.7 0-2.1zm-54.7-76.4c-0.7-0.6 0-1.3 0-2.4 0-1-0.4-1 0.3-2 0.7-0.7 1-1 0.7-1.7-0.7-0.4 0-0.4-1-0.4q-1.4-0.3-1.1-1c0-0.3 0.4-1.4 0.4-1.4 0 0 0.3-0.3 1 0 0.7 0.4 1.4 0.7 1.4 0.7l0.3-0.3c0-0.7 0-0.4-0.3-0.7-0.4-0.7-0.7-1-0.4-1.4 0.7-0.3 0.4-0.3 1.4-0.3 0.7 0.3 1-1 1 0.7 0 1.7-0.7 0.7-0.3 2.4 0.3 1.3 1 1.3 0.3 1.7-0.7 0.7-1-0.7-1.3 0.7-0.4 1.3-0.7 1 0 2 0.6 1 1-0.3 1.7 1.4 0.3 1.7 1 1 0.7 2.7 0 1.4 0 2.1-0.7 2.4-0.4 0.7-0.4-1.7-0.4 0.7 0 2.1 0.4 2.8 0 3.4-0.7 0.7-1 1.1-1.3 0.4-0.4-0.7 0-4.1-0.7-4.1-0.7 0-0.7 0.3-1.1 0-0.3-0.4 0-1.4 0.4-1.7 0-0.7 0-0.4 0-0.7 0.3 0 0.7-0.4 0-0.7-0.7-0.4 0 0.3-1-0.4zm-1.4 2.4c0 0.7 0.3 1.4-0.4 2.1-0.6 0.7-1.3 1-1.7 1.4-0.6 0.3-1-0.7-1-1.1 0.4-0.3 1-0.6 1-1.7 0.4-0.7 0.4-0.7 0.4-1.7q-0.4-1 0-1.4c0.3 0 0.7 0 0.7 0 1 1.1 1.3 1.4 1 2.4zm-20.5 156.2c-0.7-0.3-0.4-1 0.6-1.7 0 0 0.7 0 1.4 0.4 0.7 0-0.3 0.6-0.7 1.3-0.3 0.7-0.7 0.4-1.3 0zm19.1-136.6c0 1.3-0.3 1.3 0 2.4 0.4 1.3-1 1.3-1.3 0.7-0.7-0.7 0-1.4 0-2.8 0 0-0.4-1.7 0-2.4 0-0.7 0.3-0.7 1-0.3 1 0.3 0.7 1 0.3 2.4zm-2 5.4c-1.1 0.7-1.4-0.6-1.4 1.4 0 2.1 0 0 0.3 4.5 0.4 4.4 1.1 6.5 0.4 7.8-0.4 1.1-0.4 2.4-1 1.1-0.7-1.4 0.3-2.1-0.7-3.1-0.7-1-1.1-1-0.7-1.7 0.3-1 2-0.4 0.7-1.7-1.4-1.1-1.4 0.7-1.4-1.7 0-2.4-0.3-4.5 0-5.9 0.3-1.3 0-3 0.3-3.7 0-0.4 1.1 0.3 1.1 0.3 0 1.4 0 3.1 0.7 2.4 0.6-0.3 0.3-1.4 1-0.7 0.7 0.7 1.7 0.7 0.7 1zm21.9 79.5c0.3 0 0 0.7 0 1.7 0 1.4-0.7 0.7-1.1 0.4-0.6-0.4-0.6-1.1 0-2.4 0 0 0.7 0 1.1 0.3zm-2.1 10.6c0.4 0 0.7 1.4 0.7 2.4 0.3 1.1-0.7 1.1-1.4 1.1q0.4 0.3 0.4 0.6c0 0.7-0.4 1.4-1 1.8-0.7 0.3-0.4 0.3 0 1.3 0 1.1-0.4 0.7-1.4 1.1-0.7 0.3 0 1-0.4 1.7-0.3 0.3-0.6 0.6-1.7 1-1 0.3-1-0.4-1-1.4 0.3-1 0.3-0.3 0.7-0.7 0.7-0.3 0.3-0.6 0.3-1.3 0.4-0.7 0.7-0.4 1.4-0.7 0.3-0.4 0-0.7 0.3-1.4 0.4-0.7 0.4 0 0.7-0.3 0.7-0.4 0-0.7 0.4-1.4l0.7-0.7c0 0 0 0.4 0.3 0.4 0-0.4 0-0.7 0-1.4-0.3-1 0-2.8 1-2.1zm-33.2 52.1c0 0.7-0.7 0.3-1 1-0.7 0.7-2.4 2.4-3.4 3.1-0.7 0.7-0.7 0-0.7-0.7 0.7-1 1-1 2-2 0.7-0.7 1.1-1.4 2.8-2.4 0 0 0.7 0.3 0.3 1zm27.1-37.7c0.6 0.7-0.4 0.7-0.4 1q-0.3 1.1-1.4 1.4c-0.6 0.7-0.3 1-0.3 2.1 0 1.3-0.7 1.3-1.7 2.4-1.4 1.3-1 2-1.7 4.1-0.7 2-2.4 3.4-3.1 3.7-1 0.4-1 0.4-1.7 2.1-1 1.7-0.4 1.7-2.7 3.8-2.4 2.4-1.4 2-3.5 4.8-2 2.7-2.7 3-3.7 4.8-0.7 1.7-2.4 4.4-3.5 5.8-1 1.4-1 0.3-2-0.4-0.7-1 0.3-0.6 1.7-1 1-0.3 0-0.7 0-1-0.3-0.7-1 0-1.4-1-0.3-1.4 0.4-0.7 1.4-1.8 1-1-0.3-0.6-0.7-0.6-0.7 0-0.7 0.3-1.4 1-0.3 0.7-0.6 0.7-0.6 2-0.4 1.1-1.1 1.1-2.4 1.8-1.7 1-0.4-1.1 0-3.5 0.3-2.4 0.3-0.3 1.3-1.3 0.7-0.7-0.3-0.4 0-1.4 0.4-1 0.7-0.4 1.1-1.4 0.6-1 0.3-1.7 1-3.1 0.3-1.7 1-0.6 1.7-0.6 0.3 0.6 0.3 1 1.7 0 1.4-1.4 1.4-2.1 2.4-3.8 1-1.7 2.7-3.8 4.5-5.2 1.3-1.7 2.7-2.4 3.4-3.4 0.7-1-0.4-1.7 0-2.7 0.7-1 1 0 2-0.7 1.4-0.7 0-0.7-0.3-1.4-0.4-0.7 0.3-0.7 1.4-1.7 1.3-1 1-0.3 1-1.4 0.3-1.3 0-1.7 0-2.4 0-1 0.3-1 1.7-1.3 1-0.7 0 0 1 0.3 0.7 0.7-0.3 1-0.7 1.4-0.3 0.3-0.3 0.7 0.4 1.7 0.7 0.7 0.7 0.3 1.4-1 0.6-1.4 0.6-1.1 1.3-2.1 0.7-1-0.3-0.3-0.7-1-0.3-0.7-0.3 0-2 0-1.4 0 0-1.4 0.3-2.8 0-1.3 1.1-0.3 1.7-0.3 0.7 0 0.7 0.3 1.4 1.4 0 0 0.3 0.7 0.7 1.7 0.3 0.7 1 0.3 1.4 1zm-16.1-113.4c-0.4-1.7 0.3-1.3 1-1.7 0 0 0.3 0.7 0.3 1.1 0.4 0.6 0 1 0 1.3 0 0.4 0 1.4 0.4 2.4 0 0.7-0.7 1.1-1 0.7-0.7 0-1.1-0.3-0.7-1.7 0-1 0-0.3 0-2.1zm9.9-53.4c0 0-0.7-0.3-1-1-0.4-0.7-0.4-0.4-1.1-0.4-1 0-0.6 0 0-0.6 0.7-0.7 0.4-0.7 0.7-0.4 0.7 0.4 0.7 0.7 1.4 1.7 0 0 0.7 0.7 0 0.7zm0 7.2c-1 0.3-1 0.7-1.4 0.7-0.3 0-0.3 0-0.3-1.4 0-1.4-0.7 0-2.1-1-1-1.4 0.7-0.7 2.4-1.7 0.4-0.4 0.7-0.4 0.7-0.4 0 0 0 0 0.4 0 0.6 0 0.3 0.4 1 1.4 1 0.7 0.3 0.3 0.7 1.4 0 0-0.7 0.7-1.4 1zm1.7 1c0.7-0.7 0.7 0.7 0.7 1.7 0 0 0 1.1-1 1.1-0.7 0-0.4 0.3-1.1 1-1 1-1 0.3-1-0.7-0.3-0.7 0-0.3 1.4-1.4 1.4-1 0.3-1 1-1.7zm-10.6 30.2c-0.3-1.1-0.3-2.1-0.3-2.1l0.3-0.7h0.7c0.7 0.7 1.7 0 0.7 1.7-0.7 1.4-1.1 2.1-1.4 1.1zm-3.1 6.8c-0.7 0-0.3 1.7-0.7 2.8 0 1.3-0.7 0.6-1-0.7-0.3-1.4-0.3-1.4 0-2.4 0.3-1.4 0.3-0.4 1-0.4 0.4-0.3 0-0.6 0-2.4 0.4-1.3 0.7-0.3 1.4-0.3 0 0 0.3 0.7 0.3 1.7 0.4 0.7 0 1.4 0 2.1 0 0.6-0.6 0-1-0.4zm-4.4 0c-0.4 1 0 1 0 3.4 0 2.4 0.7 2.8-0.4 3.8-0.7 1-0.3 2.4-1 3.1-0.3 0.3-0.7-2.4-1-3.4 0-1.1 1-1.7 0.7-2.8-0.4-1-0.7-1.3-0.7-2.4 0-1 0.7-1.3 1-2.4 0.3-1-0.3-1 0.7-1.7 0.7-1 1.7-1 1.7-1 0 1.7-0.7 2.1-1 3.4zm8.9 3.1c0 0 0.3 1.4 0.3 1.7 0 0.4 0 0.7-0.3 1.4q-0.5 0.5-1.1-1c-0.6-1.1 0-1.8 1.1-2.1zm23.2 88.7c0.4 0.7 0 1 0 1.7 0 0.7-1 1.4-1.3 1.4 0 0-0.4-0.7 0-2.1 0-1 0-1.3 0.3-2 0 0 1 0.3 1 1zm5.9 10.3c0 0.3 0.6 1 0.6 1.7 0 0.7-0.6 0.7-1.3 0.3-1-0.3-0.4 0.4-1.4 0.7-1 0-1-0.7-1-1.3 0.3-0.7-0.4-0.4-1 0-0.7 0.3-0.7-1.1-0.4-1.7 0.4-0.7 0.4 0 1.7 0 0 0 0.7 0 0.7-1.4 0-1 0.4 0 1 0 1.1 0 0 0.7 0.7 1 0.7 0 0 0.4 0.4 0.7zm17.8-54.1c-0.7-0.4-0.7 0.3-1.7 0-1.1 0-0.4-0.7 0-1.7 0.3-1.4 0.6-0.4 1.7-0.4 0 0 0.3 0.4 1 0.7 0.7 0.3 0.3 0.7 0.7 1.4 0 1-0.7 0.7-1.7 0zm5.8 31.1c0 0-0.4 0.7-0.7 1.1 0 0.3 0 1 0.3 2 0 1.1-0.3 0.7-1.3 1.4-1.4 1-0.7-0.3-1.7-0.7-0.7-0.7-0.4 0.4-1.4 0-0.7-0.3-0.4-0.7-0.7-2.4-0.3-1.4 0-1 1-1.7 1.1-0.7 0.7 0.3 1.1 1.4 0.6 1 1 0.3 1.7-0.7 0.7-1 0.3-0.7 1.7-0.4zm-2.8 18.5c0.4 0.4 0 0.4 0 1.4 0 1-1 0.4-1 0.4-0.3 0.3-0.7-0.7-0.3-1.4 0-1 0-1.4 0.7-1.7 0 0 0.3 0.7 0.6 1.3zm-7.8-7.5c0 0-0.4 1-1.1 1-0.3-0.3-0.6 0-0.6 0.7 0 0.4 0.3 0.7-0.7 1.7-0.7 1.1-1.1-1.3-1.1-3.4 0-2 0.4-0.3 1.4-1 0.7-0.4 1 0 2.1 1zm2-96.2c0.4 0.3 0 1 0.4 1.7 0 0.7-0.4 0.7-1.1 1-1 0.3-0.6 0-1 0-0.7-0.3-0.7 0.7-1.4 1.4-0.6 0.7-0.6-0.7-1-2.4-0.3-1.7 0.7-0.7 1.4-0.7 0.7 0.3 0.7 0.3 1.4 0 0.6-0.7 0-0.7 0.6-1.4 0 0 0.7-0.3 0.7 0.4zm30.8 69.5c0 0 0 0 0.4 0.7 0 0.7 0 1 0 2.4 0 1.3 0 2.4 0 3.4 0.3 1 0 1.7-1.1 2.4-1 0.3-0.3-0.7-0.3-2.4 0-1.4 0-1.7 0-3.8 0-2 0-1.7 1-2.7zm-5.1 1.4c0.7-1.1 0-0.4 0.7-0.7 0.7-0.4 0.3-0.7 0.7-2.8 0-2 0-1 0-2.7-0.4-1.4 0-1 0.6-0.7 0.7 0 0.7-1 0.7-2.7-0.3-1.7-0.3-2.4 0-4.5 0 0 1.1-0.3 1.4 0.7 0.3 0.7 0 1.4 0 2.7 0.3 1.8 0.3 1.8 0 3.1-0.3 1.4-0.3 0.7-1 1.4-0.7 0.7-0.4 1-0.4 2 0 0.7 0 2.1 0 3.1 0 1.1-0.3 1.1-0.7 2.1 0 0.7-0.3 0.3-1 0.3-0.7 0-0.7 0-0.7 0.4-0.3 0.3-1 0.3-1.3 0.3-0.7-0.3 0.3-1 1-2zm-1 7.5c0 0.7 0 1.4 0 2.4 0 1-0.7 0.7-1.1 0.3-0.6-0.3-0.3-1.3-0.3-3 0-1.8 0-1.4 0.7-2.1 0 0 0.7 1.7 0.7 2.4zm-16.1-54.5c0.3 2.1-0.7 1.1-1 1.1-0.7 0.3-1.4-0.4-1.8-3.1-0.6-2.4 0-1 0-3.4 0-2.4 0-0.4 1.1-0.7 0.7-0.4 0-1.4 0-3.1-0.4-2.1 0.3-2.4 1.3-3.8 0 0 0.4 1 0.4 2.1 0 1 0 1.7 0 3.4 0 1.7-0.4 1.7 0 3.4 0 1.7 0 1.7 0 4.1zm-11.7 52.1c0 0.3-0.3 0.3-0.3 0.7 0 0-0.3 0.7-0.3 1.7 0.3 1.4-0.7 0.3-1.4-0.7-0.4-1.4 0.3-1 0-2.7 0-1.7 0-1.4 0.7-2.1 0 0 0.3 0 0.7 1 0 1.1 0.3 0.4 1 0.7 1 0 0 1.1-0.4 1.4zm-2 40.8q0.3 0.6 0.3 3.4c0 1.7-0.3 2-0.3 3.4 0 1.7-1 1-1 0 0-1-0.4-3.1-0.7-5.5 0-2.7 0-1.7 1.3-2.4 0 0 0.4 0.4 0.4 1.1zm-2.4-63.1c-0.7 0-0.7-0.3-0.3-1.7 0.3-1 1-0.3 2.7 0 0 0 0.7 0 0.7 0.4 0 0.3-0.4 1-1.1 1.7-0.6 0.3-1 0-2-0.4zm-1-63c0.3 0 0 0.7-0.7 1-0.7 0.7-0.7 0.4-0.7 1.1 0 0.6-1 1-1.7 0.6-0.7 0-1.7 0-2.1 0-0.7 0-1-1-0.3-1.7 0.7-0.6 1.7 0 2.4-1 0.7-1 0.7-0.3 2 0 0 0 0.4-0.3 1.1 0zm-25-14.7c0 0 1.3-0.4 2 0 0.4 0 0 0.7-0.3 2 0 1.1-0.4 0.4-1.4 1.1-0.7 0.3 0.4 1 1.7 1.7 1.1 0.3-0.3 1.3-0.3 2 0 1.1-0.4 1.1-1.4 0.7-1-0.3-1 0.4-2 0-1.4-0.7-0.7-1-0.7-2.7 0.3-1.4 0.3-1.1 0-2.8-0.4-2 0-1 0.3-2 0.4-1 0.7 0.3 1.1 0.3 0.3 0.4 0.6 0 1-0.3zm19.8 128.1c-0.3-0.4-0.7 0-1.7 0-0.7-0.4-0.3-1 0-2.8 0 0 0.4 0.7 1 1.1 0.4 0.3 0.7 0 1.8 0.7 0.6 0.6-0.4 1.3-1.1 1zm6.2-38.4c-0.7 0 0-1.3 0.7-2.7 0.7-1.4 0.7-0.4 1.3-0.4 0.4 0 0 1.1 0 1.8l0.7 0.6c0 0 0.4 0 1.1 0.4 0.6 0.3 0 1.3-0.7 2-0.7 1.1-0.7 0.4-1.7 0-0.7-0.7-0.4-0.7 0-1.7 0.3-1-0.4-0.3-1.4 0zm-12 27.1c0 0.7-0.3 1.4-0.3 2 0 0.7-0.4 1.4-0.4 1.7-0.3 0.4-1 0-1-0.6 0.3-0.4 0-0.7 0-2.1 0-1.7 0-1 0-2.7 0.3-1.7 0.7-0.7 1.7 0 0 0 0 1 0 1.7zm14-3.4c0-1.8 0.4-1.4 1.8-2.1 0 0 0.3 1 0.3 1.7 0 0.7 0 0.7 0 2.1 0.3 1.3-0.3 1-1.4 1-1.3 0-0.3-1-0.7-2.7zm-70.5 95.5c0.4 1-0.6 0-1-0.7 0-0.7-0.3-0.7-0.3-1.7 0-1 0.3-0.3 1.3 0.4q0 0 0 0.3c0.4 0.3 0 0.7 0 1.7zm45.6-205.2c-0.4-1 0-0.6 1-1 0 0 0.3 0.7 0.3 1 0 0.4 0 0.4-0.3 1.4 0 1-0.4-0.3-1-1.4zm3 137.1c0 1-0.6 1-1 1-0.7 0.3-0.7 0.7-0.7 1.4 0.4 0.6 0 0.6-1.3 1-1.4 0-0.4-1 0-2.4 0-1 0.3 0 1-0.7 0.7-0.3-0.4-0.3-0.7-1.4-0.3-0.7 0-1 0.7-1 0.3 0 0.3 0.3 1.4-0.3 0.6-0.4 0-0.7 1-1.1 0 0 1 0.7 0.3 2.1-1 1.4-1 0.3-0.7 1.4zm10.3-139.8c0.4-0.7 0.4-1.4 0.4-1.7-0.4-0.3 0.3-0.7 0.3-0.7 1 0 3.1 0.4 5.1 0 2.1-0.3 3.1-0.7 3.5-0.3 0.3 0.7 0.6 2.7 0 2.7-1.1 0-1.1-1-1.8-0.3-1 0.6-1 1.7-2 2-1 0.4-1-0.7-2.1-0.3-1 0-1.3 0.3-2.4 0-0.6 0-1.3-1.1-1-1.4zm10.6 13.4c-1 0 0-0.7 1-1.4l0.4-0.3c0 0 0.3 0.6 0.3 1.3-0.3 0.7-0.7 0.4-1.7 0.4zm-12.3 78.4c0 0 0.7-0.7 1.7-0.7 0.7 0 0 0.7 0 1.7 0 1.1-1 1.7-2 2.4-1.1 0.4-0.7 0.4-1.8 1.7q-1 2.1-1-2c0-2.4 0-1.4-0.3-3.4 0-2.1 0.3-1.1 1-1.4 0.3-0.7 0.7 0 0.7 1.4-0.4 1.3 0.3 1 1.7 0.3zm-18.1-35.6c-0.4-1 0-1 0.6-1.4 0 0 0.7-0.3 0.7 0 0.4 0.4 0 0.7-0.3 1.4 0 1-0.7 1-1 0zm2.7-21.9c1-0.7 0-1.1-0.3-2.4 0-1.1 0-0.7 0-2.1 0-1 0.3 0.3 1 0 0.7 0 0 0 0.3-0.7 0.4-0.3 0-0.7 0.7-3.4 0.7-2.4 0.3-0.3 0.3-1.7-0.3-1.4 0-0.7 0.4-1.7 0.3-1.4 0-1.4 0-2.8 0-1.7 0.3-0.7 0.7 0 0.7 0.4 1-1 1.3-2 0 0 0.7 1.3 0.7 2 0.4 0.7 0 0.7 0 1.7 0 1.1 0.4 1.4 0 2.1-0.3 0.3-0.3 0-0.7 0.7-0.3 0.7-0.3 0.7-1 1.4-0.3 0.3-0.7 0.6-1 4.7-0.4 4.5 0 0-0.7 0-0.7 0-0.7 1.4-0.3 2.1 0 1 0.3 1 0.6 2.1 0.7 1-0.3 0.6-0.3 1-0.3 0-1 0.3-1 1.4 0 0.6 0.3 1.3 0.3 2.4 0 1-1 0-1.7-0.7-0.3-0.7-0.7-0.7-0.7-2.4 0-1.7 0.4-0.7 1.4-1.7zm7.9 86.3c-1.4 0.3-1.4-0.7-1.7 1.3 0 2.1 0.6 3.5 0 3.1-0.4 0-1.1 0.4-1.1 1.4 0.4 1 0.7 3.1 0.4 4.1-0.4 0.7-0.7 0.4-1.1 1-0.3 0.7 0.4 2.1-0.6 2.8-1.4 1-1.8 1-1.8 0.3 0.4-0.3-0.3-2.4 0.4-3.1 0.7-0.3 1.4 1.1 1.4-0.6 0-1.8-0.7-6.6 0-7.2 0.6-0.7 1 0 1-1.4 0.3-1.4 0-1.7 0.3-3.1 0.4-1.4 0-3.8 0-3.8l1.1-0.6c0.6 1.3 0 2.4 0.6 2 1.1 0 1.4-1.7 1.4 0.4 0 2 1 3.4-0.3 3.4zm-12-72c0.3-1 0-1 0-2.4 0-1.3 0-1.3 0.3-1.7v-0.3h0.7c0.4 1.7 0.4 2 0.4 3.4 0.3 1.7 1.7 4.1 0.3 3.4-1.4-0.6-2.1-1-1.7-2.4zm5.1-67.8c-0.3-1.7 0.7-0.7 2.1-1 0 0 1 1.7 1 3.1 0.3 1 0 1.7-0.3 2.7-0.4 0.7-1.1-0.3-1.8-1.7-0.6-1.4-1-1.4-1-3.1zm-35.6 225.1q0 0.3-0.3 1c-0.4 0.3-0.7 0-1.4-0.4-0.3 0-0.3-0.6 0.7-1 0 0 0.7 0 1 0.4zm-1.3-15.8c0 0.7 0 1-1.1 1.4-1 0.3-0.7 0-0.7-0.7 0 0 0-1.4 0-2.4 0.4-0.7 0.7 0 1.1 0.3 0.7 0 0.7 0.4 0.7 1.4zm-0.7 9.6c0 0.7-0.4 0.3-1.4 2.4-0.7 2.1-0.3 0.3-0.7 0.7q-0.5 0.5 0 2c0.4 1.1 0 1.1-0.3 2.1-0.4 1-1.1 0.3-1.1-0.4 0-0.6-0.3-1-0.3-1.7 0-0.6-0.3 0-0.7 0-0.3 0-0.3-0.6-1.7-1.3-1-1.1-0.3 0.3-0.7 0.7-0.7 0.3-0.7 0.6-0.7 1 0 0.3-0.3 0.7-1 1.3-0.7 1.1-0.3 0-0.3-1 0-1 0-0.7 1-2 1-1.4 0 0 0.3-1.7 0.7-1.4 0-1.1 0.4-1.8 0-0.6 0.3-1.3 0.7-2.7 0.7-1.4 0.3-0.7 1.3-0.7 0.7 0-0.3 0.7 0.7 1.7 1 0.7 0.4-0.7 0.7-1.3 0-0.7 0-0.7 1-0.4 0 0 0.4 0 0.4 0.7 0 0.3 0 0.7-0.4 1.7 0 1 1.1 0.4 1.4 0 0.7-0.7 1.4 0 1.4 0.7zm-11.7-1.4c0 0 0.4 0.7 0.4 1.4 0.3 0.3 0 0.7 0 1.4 0 0.7 0 0.7-0.4 2 0 1.7-0.7 0.4-1-0.7 0-1 0-1.3 0-2.7 0-1 0-0.7 1-1.4zm16.5-6.1c0 0.3-0.4 0.3-0.7 0.6-0.4 0.4-1-0.3-1.4-0.6 0-0.7 0.4-0.7 1-1.4 0 0 0.7 0.7 1.1 1.4zm-1.7-7.6c-0.4 1.4-0.7 0.4-1.1 0.4-0.3 0.3-0.3 1-0.3 1.3 0 0.7-0.4 1.4-1 1.4-0.7 0.4-0.7-0.7-0.7-1.7 0-1 0.3-1 1-1 0.3 0 0.3-0.7 0.3-1.7 0.4-1.1 0.4-1.1 0.7-1.4 0.4-0.7 0.4 0 0.7-0.7 0.4-0.3 0.4-1 1-1l0.7 0.3c0 0 0.4 0.7 0 1.4-0.3 1-0.7 0-1.3 0.7-0.7 0.3 0 0.3 0 2zm72.5-81.5c1-1.4 1.4-0.7 3.4-0.3 0 0 0 0.6-0.3 1.3 0 0.4-0.3 0.4-0.3 0.4 0 0-1.1 0-1.8 0-1 0-0.3 0.3-0.6 1.3-0.7 1.1-1.1-1-0.4-2.7zm-0.3-70.6c0 0 0 1.4 0.3 2.1 0 0.7-0.3 1.7-0.3 2.4 0 0.7-0.7 0.3-1.7 0-0.7-0.3 0-0.7-0.4-3.4-0.3-2.8 0.4-1.4 1.4-1.7zm-2.4-42.5c0-1 0.7-1 1.7-1 0 0 0.7 0.3 0.7 0.6 0 0.4-0.7 0.7-1 1.4-0.4 0.4-1.1 0-1.4-1zm-27.7 118.5c-0.7 1.4 0 1.7-1.1 2.1-1 0.3-2 0.3-2-0.4 0-0.7 1-0.7 1-1.4 0-0.6 0-1.3 0-2.4 0-1 0-0.6-0.7-1-1-0.3-1-1-1-2.4 0.3-2 0-2.4 0.3-2.7 0.4-0.7 1.1-0.4 1.1-0.4 0.3 1.4 0.7 3.5 1.3 2.1 0.7-1.4 1.1-2.1 1.8-2.1 0.6 0 1.3-0.6 1.7 0 0.6 0.7 1.7 0.4 0.6 2.8-1 2.4-1.3 2.7-1.7 3.7-0.3 1.4-1 1.1-1.3 2.1zm3-87.7c-0.3-1-0.3-0.3 0-1.4 0-0.6 0.4-0.6 1.1-0.3 0.3 0.3 0.3 0.7 1.3 0.7 0 0 1.1 1 0.7 1.4 0 0.6 0 0.6-1 0.3-0.7-0.3-0.3 0-0.7 0-0.3 0-1.4 0.3-1.4-0.7zm-3.4-16.8c-0.7 0-1 0.4-1.3 0-0.4 0-0.7-0.3-1.1-1.3-0.3-1.1 0.4-1.4 1.4-1.4 0 0 0.3 0.7 0.7 1.4 0.3 0.3 0.3 0.3 1.4 0.6 1 0.4-0.4 1.1-1.1 0.7zm-9.9 139.4c0-0.6 0-1.3 0.3-1.7 0.4-0.7 0.4 0 1.1 0 0.3-0.3 0-0.7 0.3-1.3 0 0 1 0.3 1 0.6q0.4 0.7-0.3 1.4c-0.3 0.7-0.3 0-0.7 0.4-0.3 0-0.3 0.6-0.3 1.3-0.4 1.1-1.1 0.4-1.4-0.7zm12-143.5c0.3-0.7 0.3-1 1-1.7 0.7-0.7 0.7-0.7 0.7-1.4-0.4-1-0.4-1.3 0-1.7 0.3 0 0.7-0.3 0.7-0.3 0.7 1 2 1.7 2 2.4 0.4 0.7 0.7 0.3 0 1.4-0.7 0.6 0 0.6-0.3 1.7-0.4 1-0.4 1.3-1.4 1-1.4-0.4-3.1-0.4-2.7-1.4zm-6.2-9.9c1.4-0.7 0.7-0.7 2.1-0.7 0 0 0.7 1.4 1.7 1.4 0.7 0.3 0 0 0.7 0.7 0.7 0.6 0 1 0.3 1.3 0.7 0.7 1 0 1.7 0.4 0.7 0.3 0 1-0.3 1.7 0 0.7 0 1.7-0.4 2.4-0.3 0.7-1 0.3-1-0.4-0.3-0.6-1 0-1 0 0 0-0.7 0.7-1.4 0-0.7-0.6-1.4-1.7-1.7-3.4-0.3-1.7-1-1.4-2.1-2-1-0.4-0.3-0.7 1.4-1.4zm-1.7 122.3c0.3-0.7 0.7-0.7 0.3-1.4-0.3-0.3 0-0.3 0-0.3 0.4-0.4 0.7 0 0.7 1 0 1.4 1.1 2.4 0 2-1 0-1-0.3-1-1.3zm12.3-103.1l1.1-0.7c0 0 1 0.3 0.6 1-0.3 1-0.3 1-0.6 2.1-0.4 1.3-0.7 1-1.8 0.7-1 0-1 0-2-0.4-1 0-1.4 0.4-1.7 0.7-0.4 0-1.7-1-0.7-2.1 0.7-1 0.7 0 2.4-0.3 1.7-0.3 1.4-0.3 2.7-1zm-13.7 130.1c0-0.7 0-1.3 0-3.1l0.7-1c0 0 0.7 1 0.7 1.4 0.3 0.7 0 1.4 0 2.4-0.3 1-1 0.7-1.4 0.3zm4.5-90.1c0 0 0.7 0 1 0.4 0 0.3 0.4 0.7 0.4 1.4 0 0.6-0.4 1-0.4 1.7 0 1 0 1.3 0.4 2.4 0.6 1-0.7 1-1.4 1-1 0-0.7-0.7-0.4-2.7 0.4-1.8 0-1.1 0-2.4-0.3-1.4-0.3-1.1 0.4-1.8zm-4.5 6.2c0-1.7 0-1.7 0-2.7-0.3-0.7-0.3-1.1 0.7-2.1l0.7 0.4c0 0 0.3 1 0 2 0 1.4 0 1.7 0 2.4 0.3 1 0 1.7-0.7 2.1q-0.7 0.7-0.7-2.1zm4.5 39.1c0.7 0.3 1 1 1 1-0.3 1.4-0.3 3.1-1 2-0.7-1-1.4-2-1-2.7 0.3-0.3 0.6-0.7 1-0.3zm3.4-69.9c0-0.4 0.4-0.7 1.4-0.4 0 0 0 0 0.7 0.4 0.6 0.3 0 0.3 0 0.7-0.4 0.3-0.7 0.7-1.4 0.3-0.3-0.3-0.7-0.3-0.7-1zm-2.4 39c-1-0.7 1.7-1.7 2.1-1 0.7 0.7-0.4 0.3-0.7 1.4-0.4 0.7-0.4 0.3-1.4-0.4zm-6.5 62.7c0-1 0-1 0.7-1.4 0 0 0.7 0.7 0.7 1.4 0 0.4-0.4 1-0.4 1.4-0.3 0.7-1 0-1-1.4zm-0.7 2.1c0 0 0.7 1 0.7 1.3 0.4 0.7-0.7 1.1-1 0.7-0.7-0.7-0.4-1 0.3-2zm0-7.6c0.7-1 0.7-1.7 1.4-1 0.3 0.7 0.3 1.4 0.3 1.4-0.6 0.7-2 0.3-1.7-0.4zm222.5 139.4l51.7 65.8c-8.2 5.5-17.1 11-24 15.1l-21.5-35.6c0 0-3.8 2.7-11.7 7.5q-0.3-0.4-0.6-1l12.6-8.6c-6.1-9.9-24.3-9.9-27.4-9.3-2-1.3-3.4-3.4-5.1-8.9-1.4-3.4-1-7.1-0.3-9.9q14.3-7.5 26.3-15.1zm-21.5 33.3c2.3 2 4.1 4.8 5.4 7.2q-1-1.1-1.3-1.8c-1.4-1-2.4-1.7-3.5-2.4-2.4-2-4.8-3.4-7.2-10.6-1-3.4-1-6.8-0.6-9.9q2.4-1 5.1-2.4c-1 3.1-1.7 7.2-0.7 11 2.1 5.4 3.4 6.8 5.5 8.2-1.7 0-3.1 0.3-2.7 0.7zm129-10.7l-1.4 1.4c-0.3 0-22.6 21.3-35.6 31.2-10.6 8.2-29.8 20.2-41.7 27.4l-2.1-3.4c12-7.2 30.8-19.2 41.4-27.1 11-8.6 28.8-25 33.9-29.8l-51.3-64.7q1.3-1.4 2.7-3.1zm-55.4-66.5l14.7 18.9c-4.8 7.2-13 18.1-31.9 33.9-14.3 12-30.8 19.8-41.7 25.3-7.2-2-14.7-1.3-14.7-1-1.7-1.4-3.1-3.4-4.5-8.2-1.4-3.4-1-7.2-0.3-10 37.3-18.8 62.3-41.7 78.4-58.9zm-56.9 93.9q0.4 0.7 1.1 1.7-1.7 1-3.5 2.1-0.6-0.7-1-1.4zm-373.1-36c1 3.1 1.4 7.2 0 11-3.1 9.2-5.5 8.2-9.9 12.7 0 0-0.3 0.3-0.7 0.6-8.2-4.4-31.1-13.7-50.3-29.4-18.8-15.8-27-26.7-31.8-33.9l15.4-19.6c15.7 16.8 40.4 39.8 77.3 58.6zm0 0c1 3.1 1.4 7.2 0 11-2.4 7.5-4.4 8.2-7.2 10.3q0.4-0.4 0.7-0.7c1-1.1-17.1 2-25 13.7l10 5.8q0 0.3-0.4 1c-5.8-3.1-9.2-5.1-9.2-5.1l-19.9 32.5c-6.8-4.1-17.1-10.3-26.7-16.8l52-66.4q11.7 7.5 25.7 14.7zm-93.8 38c11.3 8.9 32.2 22 43.8 28.8l-2 3.4c-11.6-6.8-32.9-19.8-44.5-28.7-13-10-35.3-31.2-35.6-31.5l-1.4-1.4 54.8-68.9q2.4 2.8 4.8 5.2l-2.1-1.7-52 65c5.1 4.8 22.9 21.6 34.2 29.8zm95.9-26.3c-2.4 7.2-4.8 8.9-7.2 10.6-1 0.7-2.1 1.4-3.1 2.7-1.7 1.4-6.5 8.6-12 16.8q-2-1-3.7-1.7 1-1.4 2-2.7l3.1 2c1-3.8 3.1-10.3 7.2-16.1q-0.4 0-0.7 0 0.7-0.7 1-1.4c1.4-1.3 2.8-2 3.8-2.7 2.4-1.7 3.8-2.7 5.8-8.9 1.4-4.1 0.4-8.6-0.7-11.7q2.4 1.4 4.8 2.8c0.7 3.1 1 6.5-0.3 10.3z"/>
		</g>
	</g>
</svg>