<svg version="1.2" xmlns="http://www.w3.org/2000/svg" viewBox="0 0 1542 653" width="1542" height="653">
	<title>secondary-logo-svg</title>
	<style>
		.s0 { fill: #2091c3 } 
		.s1 { fill: #2791c4 } 
		.s2 { fill: #2c3c4c } 
	</style>
	<g id="Layer">
		<path id="Layer" fill-rule="evenodd" class="s0" d="m475.3 126.9l-34 35.1 29 29.8 10.1-20q-0.8-1-1.5-2.2-0.7-1.1-1.1-2.4-0.5-1.2-0.7-2.5-0.3-1.3-0.3-2.6c0-4.1 1.6-7.9 4.5-10.8 2.8-2.8 6.7-4.4 10.7-4.4 4 0 7.9 1.6 10.7 4.4 2.9 2.9 4.4 6.7 4.4 10.8 0.1 8.3-6.7 15.1-15.1 15.1-0.7 0-1.4-0.1-2.1-0.2l-13.3 26.4c-0.4 0.8-1 1.5-1.7 2-0.7 0.5-1.5 0.8-2.3 0.9-0.9 0.2-1.7 0.1-2.6-0.2-0.8-0.2-1.5-0.7-2.1-1.3l-74.9-76.8q-0.5 0.1-1 0.2-0.5 0.1-0.9 0.2-0.5 0.1-1 0.1-0.5 0-1 0c-2 0-4-0.4-5.8-1.1-1.8-0.8-3.5-1.9-4.9-3.3-1.4-1.4-2.5-3.1-3.3-4.9-0.8-1.8-1.2-3.8-1.2-5.8 0-8.4 6.8-15.1 15.2-15.1 8.4 0 15.2 6.7 15.2 15.1 0 3-0.9 5.8-2.5 8.2l31.9 32.7 34.9-36.1q0.2-0.3 0.6-0.5 0.3-0.2 0.6-0.4 0.4-0.2 0.7-0.4 0.4-0.1 0.8-0.2l63-13.9c0.3-3.9 2.1-7.5 5-10.1 2.9-2.6 6.7-4 10.6-3.8 3.9 0.1 7.5 1.7 10.3 4.4 2.7 2.8 4.3 6.5 4.4 10.4 0 8.3-6.8 15.1-15.2 15.1-4.7 0-9-2.2-11.8-5.7zm-252.4-101.1c0-3.1 0.9-6.1 2.7-8.7 1.8-2.6 4.3-4.5 7.3-5.5 2.9-1.1 6.1-1.2 9.1-0.4 3 0.9 5.7 2.6 7.7 5l45.1-15c0.2 0 0.4 0 0.6 0q0.3-0.1 0.6-0.1 0.4-0.1 0.7 0 0.4 0 0.7 0 0.4 0.1 0.7 0.1c0.1 0.1 0.2 0.1 0.4 0.1l155.4 58.2 155.4 19.4q0.2 0 0.4 0 0.2 0.1 0.3 0.1 0.2 0.1 0.4 0.1 0.2 0.1 0.4 0.2l128.9 55.1v-11.2q0-0.6 0.1-1.1 0.2-0.5 0.4-1 0.2-0.5 0.5-0.9 0.2-0.5 0.6-0.9l10.3-10.2h-6.4q-0.5 0-1-0.1-0.5-0.1-1-0.3-0.5-0.1-0.9-0.4-0.5-0.3-0.8-0.6l-12.7-11.7c-2.2 0.4-4.5 0.4-6.7-0.1-2.2-0.5-4.2-1.5-6-3-1.7-1.4-3.2-3.2-4.1-5.2-1-2-1.5-4.3-1.5-6.5 0-4.1 1.6-7.9 4.4-10.8 2.9-2.8 6.7-4.4 10.8-4.4 4 0 7.8 1.6 10.7 4.4 2.8 2.9 4.4 6.7 4.4 10.8 0 3.2-1 6.1-2.7 8.6l9.2 8.5h17.4c1 0 2.1 0.3 3 0.9 0.9 0.6 1.6 1.4 2 2.4 0.4 1 0.5 2.1 0.3 3.1-0.2 1.1-0.7 2.1-1.5 2.8l-17.9 17.9v17.2q0 0.7-0.2 1.3-0.2 0.7-0.5 1.3-0.3 0.6-0.8 1.1-0.4 0.5-1 0.8-0.5 0.4-1.2 0.6-0.6 0.2-1.3 0.3-0.6 0-1.3-0.1-0.7-0.1-1.3-0.3l-92.8-39.7c-0.2 0.1-0.2 0.3-0.4 0.5l-85.5 50.6c0.9 4.2-0.1 8.5-2.6 12-2.6 3.4-6.4 5.6-10.7 6-4.2 0.5-8.4-0.9-11.6-3.7-3.2-2.9-5-6.9-5.1-11.2 0-8.3 6.8-15.1 15.2-15.1q1.2 0 2.4 0.2 1.2 0.1 2.3 0.5 1.1 0.4 2.2 1 1.1 0.5 2 1.2l79.7-47.2-30.9-13.2-109.7-13.7v8.4q0 1.1-0.4 2.1-0.4 1-1.2 1.8-0.8 0.7-1.8 1.1-1 0.4-2 0.4h-38.4l-7.7 6.3c1.4 2.3 2.2 4.9 2.2 7.8-0.1 3.9-1.7 7.7-4.5 10.5-2.9 2.7-6.7 4.3-10.6 4.3-4 0-7.8-1.6-10.6-4.3-2.8-2.8-4.5-6.6-4.6-10.5 0-8.3 6.8-15.2 15.2-15.2q0.5 0 1 0.1 0.5 0 1 0.1 0.6 0.1 1.1 0.2 0.5 0.1 1 0.3l11.2-9.2q0.3-0.3 0.7-0.5 0.5-0.2 0.9-0.4 0.4-0.1 0.9-0.2 0.5-0.1 0.9-0.1h34.8v-4.3l-34.7-4.4q-0.2 0-0.3 0-0.2 0-0.3-0.1-0.2 0-0.3-0.1-0.2 0-0.3-0.1l-120.1-44.9 36.3 26.9c2.2-1.3 4.9-2.2 7.7-2.2 8.3 0 15.1 6.8 15.1 15.2-0.1 3.9-1.8 7.6-4.6 10.3-2.8 2.7-6.6 4.3-10.5 4.3-4 0-7.7-1.6-10.6-4.3-2.8-2.7-4.5-6.4-4.6-10.3q0-0.6 0-1.2 0.1-0.6 0.2-1.1 0.1-0.6 0.2-1.1 0.2-0.6 0.4-1.1l-64.6-47.9-42.5 14.1c-0.3 8-6.9 14.5-15.1 14.5-8.3 0-15.1-6.8-15.1-15.2zm322.6 76.3c-0.7 1.6-0.3 3.5 0.9 4.7 1.3 1.2 3.2 1.6 4.8 0.9 1.6-0.7 2.7-2.3 2.6-4 0-2.4-1.9-4.3-4.3-4.3-1.8 0-3.3 1-4 2.7zm-342.1 1.6c0-4 1.6-7.9 4.4-10.7 2.8-2.9 6.7-4.5 10.7-4.5 4 0 7.9 1.6 10.7 4.5 2.9 2.8 4.5 6.7 4.5 10.7 0 2.2-0.5 4.3-1.3 6.1l47.4 47.4 135.6 33.9-73.7-73.6c-2.3 1-4.8 1.5-7.3 1.3-2.5-0.2-5-1.1-7.1-2.4-2.1-1.4-3.8-3.3-5-5.5-1.3-2.2-1.9-4.7-1.9-7.2 0.1-3.9 1.8-7.7 4.6-10.4 2.9-2.7 6.6-4.2 10.6-4.2 3.9 0 7.7 1.5 10.5 4.2 2.8 2.7 4.5 6.5 4.6 10.4 0 2.2-0.5 4.3-1.3 6.1l87.5 87.4c0.2 0.1 0.2 0.4 0.4 0.5q0 0.1 0.1 0.2 0.1 0.1 0.2 0.3 0.1 0.1 0.1 0.2 0.1 0.1 0.2 0.2 0.1 0.3 0.2 0.5 0.1 0.3 0.1 0.5 0.1 0.2 0.1 0.5 0.1 0.2 0.1 0.5 0.1 0.5 0 1.1c-0.1 0.2 0 0.4-0.1 0.6 0 0.2-0.1 0.3-0.1 0.4q-0.1 0.3-0.2 0.5-0.1 0.2-0.3 0.4-0.1 0.3-0.2 0.5-0.2 0.2-0.4 0.4c-0.1 0.1-0.1 0.2-0.2 0.3q-0.1 0.1-0.2 0.2-0.2 0.1-0.3 0.2-0.1 0.1-0.3 0.2-0.1 0.1-0.3 0.2-0.1 0.1-0.3 0.2c-0.2 0.1-0.3 0.2-0.5 0.3q-0.4 0.1-0.8 0.2-0.4 0.1-0.8 0.1-0.4 0-0.8 0-0.4 0-0.8-0.1l-156.1-39c-0.9-0.2-1.8-0.7-2.5-1.4l-48.5-48.4c-1.9 0.8-4 1.3-6.2 1.3-8.3 0-15.1-6.8-15.1-15.1zm566.1 192.2q0.1 0.3 0.2 0.6 0.2 0.3 0.2 0.6 0.1 0.3 0.1 0.6 0.1 0.3 0.1 0.6v147.1c0 1.5-0.6 2.8-1.6 3.9-1 1-2.4 1.5-3.8 1.5-1.5 0-2.8-0.5-3.8-1.5-1.1-1.1-1.6-2.4-1.6-3.9v-145.8l-19-37.8c-0.4-0.7-0.6-1.5-0.6-2.4v-25.9l-29.1 29.1-19.1 38.2c-0.1 0.2-0.3 0.3-0.5 0.5-0.2 0.3-0.4 0.7-0.7 0.9q-0.1 0.1-0.2 0.2-0.1 0.1-0.2 0.2-0.1 0.1-0.2 0.1-0.1 0.1-0.3 0.2c-0.2 0.1-0.3 0.3-0.6 0.4l-175.5 77.8c-0.8 0.4-1.7 0.6-2.6 0.5-0.9 0-1.8-0.3-2.6-0.8-0.7-0.5-1.3-1.2-1.8-2-0.4-0.8-0.6-1.7-0.6-2.6v-77.9c0-0.9 0.2-1.8 0.7-2.6 0.4-0.8 1.1-1.5 1.9-1.9 0.8-0.5 1.7-0.8 2.6-0.8 0.9-0.1 1.8 0.1 2.7 0.5l25.8 13.1c2.7-2.4 6.2-3.9 10.1-3.9 8.4 0 15.2 6.8 15.2 15.1 0 4-1.6 7.9-4.5 10.7-2.8 2.9-6.7 4.5-10.7 4.5-4 0-7.8-1.6-10.7-4.5-2.8-2.8-4.4-6.7-4.4-10.7 0-0.5 0-1 0.1-1.5l-18-9.1v60.7l166.2-73.7 18.6-37.2q0.1-0.2 0.2-0.4 0.1-0.2 0.3-0.3 0.1-0.2 0.2-0.4 0.2-0.1 0.3-0.3l39-38.9c0.8-0.8 1.8-1.3 2.8-1.5 1-0.2 2.1-0.1 3.1 0.3 1 0.4 1.8 1.1 2.4 2 0.6 0.9 1 1.9 1 3v37.6c0 0 18.9 37.8 18.9 37.8zm-224.3 21.9c0.1 1.1 0.6 2.1 1.4 2.9 0.8 0.7 1.8 1.1 2.9 1.1 1.1 0 2.2-0.4 3-1.1 0.8-0.8 1.3-1.8 1.3-2.9q0-0.9-0.3-1.6-0.3-0.8-0.9-1.4-0.6-0.6-1.4-1-0.8-0.3-1.7-0.3c-2.4 0-4.3 1.9-4.3 4.3zm-224.6 55.5c0.6 1 0.9 2.1 0.8 3.3 0 1.2-0.5 2.3-1.3 3.2-0.7 0.9-1.8 1.5-2.9 1.7-1.2 0.3-2.3 0.1-3.4-0.4l-107.7-49.5q-0.8 0.4-1.7 0.8-0.8 0.3-1.7 0.6-0.9 0.2-1.8 0.3-1 0.1-1.9 0.1c-2 0-3.9-0.4-5.8-1.1-1.8-0.8-3.5-1.9-4.9-3.3-1.4-1.4-2.5-3.1-3.3-4.9-0.7-1.8-1.1-3.8-1.1-5.8 0-4 1.6-7.9 4.4-10.7 2.8-2.9 6.7-4.5 10.7-4.5 4 0 7.9 1.6 10.8 4.5 2.8 2.8 4.4 6.7 4.4 10.7 0 1.7-0.3 3.2-0.8 4.7l88 40.5-20.3-31.2q-0.5 0.2-1 0.3-0.5 0.1-1 0.2-0.5 0.1-1 0.1-0.5 0-1.1 0.1c-8.3 0-15.1-6.8-15.1-15.2 0-8.3 6.8-15.1 15.1-15.1 8.4 0 15.2 6.8 15.2 15.1 0 3-0.9 5.7-2.4 8.1zm-46.6-52.4c0.8 0.8 1.9 1.2 3.1 1.3 1.1 0 2.2-0.5 3-1.3 0.9-0.8 1.3-1.9 1.3-3.1 0-1.1-0.4-2.2-1.2-3-0.8-0.8-1.9-1.3-3.1-1.3-1.1 0-2.2 0.5-3.1 1.3-0.8 0.8-1.2 1.9-1.2 3 0 1.2 0.4 2.3 1.2 3.1zm-74.9 1.7c2.4 0 4.3-1.9 4.3-4.3 0-1.1-0.4-2.2-1.2-3.1-0.9-0.8-2-1.2-3.1-1.2-1.2 0-2.3 0.4-3.1 1.2-0.8 0.9-1.3 2-1.3 3.1 0 2.4 2 4.3 4.4 4.3zm35.9-299.8c-0.8 0.8-1.2 1.9-1.2 3 0 1.2 0.4 2.3 1.2 3.1 0.8 0.8 1.9 1.3 3.1 1.3 1.1 0 2.2-0.5 3-1.3 0.9-0.8 1.3-1.9 1.3-3 0-1.2-0.4-2.3-1.3-3.1-0.8-0.8-1.9-1.3-3-1.3-1.2 0-2.3 0.5-3.1 1.3zm142.6 39.1c-0.8-0.8-1.9-1.2-3-1.2-1.1 0-2.1 0.4-2.9 1.2-0.8 0.7-1.3 1.8-1.4 2.9q0 0.8 0.3 1.6 0.4 0.8 1 1.4 0.6 0.6 1.4 1 0.8 0.3 1.6 0.3c2.4 0 4.4-1.9 4.4-4.3-0.1-1.1-0.6-2.2-1.4-2.9zm345 22.3c0.9 0.9 2 1.3 3.1 1.3 1.1 0 2.2-0.4 3.1-1.3 0.8-0.8 1.2-1.9 1.2-3 0-1.2-0.4-2.3-1.2-3.1-0.9-0.8-2-1.2-3.1-1.2-1.1 0-2.2 0.4-3.1 1.2-0.8 0.8-1.2 1.9-1.2 3.1 0 1.1 0.4 2.2 1.2 3zm-234.8 194.7c0 4-1.6 7.9-4.5 10.7-2.8 2.9-6.7 4.5-10.7 4.5-4 0-7.9-1.6-10.7-4.5-2.8-2.8-4.4-6.7-4.4-10.7 0-6.4 4-11.9 9.7-14.1v-23.9l-33.4 4.4q-0.1 0-0.2 0.1-0.1 0-0.2 0-0.1 0-0.3 0-0.1 0-0.2 0l-36.4-1.6-77.7 58.9q-0.7 0.5-1.4 0.8-0.8 0.2-1.6 0.3-0.8 0-1.6-0.2-0.8-0.2-1.5-0.6l-48.7-29.9c-2 0.9-4.1 1.5-6.4 1.5-8.4 0-15.2-6.8-15.2-15.2 0-8.3 6.8-15.1 15.2-15.1 2.5 0 4.9 0.6 7.1 1.8 2.2 1.1 4 2.8 5.4 4.9 1.4 2 2.3 4.4 2.5 6.8 0.3 2.5 0 5-1 7.3l43.6 26.7 76.3-57.8c0.3-0.2 0.5-0.2 0.7-0.4q0.2 0 0.3-0.1 0.1-0.1 0.2-0.1 0.1-0.1 0.2-0.1 0.2-0.1 0.3-0.1c0.4-0.2 0.7-0.2 1.1-0.2 0.3 0 0.5-0.1 0.7-0.1l37.9 1.6 136-18 154.3-20.6 16.6-16.6v-11.8h-11.9l-17.9 17.9q-0.3 0.3-0.7 0.6-0.4 0.3-0.8 0.5-0.4 0.2-0.9 0.3-0.5 0.1-0.9 0.2l-180.5 15.6c-0.4 3.9-2.2 7.5-5.2 10.1-3 2.5-6.8 3.9-10.7 3.7-3.9-0.2-7.6-2-10.2-4.8-2.7-2.9-4.2-6.6-4.1-10.6 0-3.1 1-6.2 2.9-8.8 1.8-2.6 4.5-4.5 7.5-5.5 3-1 6.3-1 9.3-0.1 3 1 5.7 2.9 7.6 5.4l82-7.1 17.6-26.8q0.2-0.4 0.5-0.7 0.3-0.3 0.6-0.6 0.3-0.2 0.7-0.4 0.3-0.3 0.7-0.4l26.9-10.7c-0.2-0.9-0.3-1.8-0.3-2.7 0.2-3.9 1.8-7.6 4.7-10.3 2.8-2.7 6.6-4.3 10.5-4.3 3.9 0 7.7 1.6 10.5 4.3 2.8 2.7 4.5 6.4 4.6 10.3 0.1 2.9-0.7 5.7-2.2 8.1-1.5 2.4-3.6 4.3-6.2 5.6-2.5 1.2-5.4 1.7-8.2 1.4-2.8-0.3-5.5-1.3-7.7-3.1l-27 10.8-11.9 18.3 84.7-7.3 18.1-18.1q0.3-0.4 0.8-0.7 0.4-0.3 0.9-0.5 0.5-0.2 1-0.3 0.6-0.1 1.1-0.1h19.5q1.1 0 2.1 0.4 1 0.4 1.7 1.2 0.8 0.7 1.2 1.7 0.4 1 0.4 2.1v19.5q0 0.5-0.1 1-0.1 0.6-0.3 1-0.2 0.5-0.5 1-0.3 0.4-0.7 0.8l-19.5 19.5q-0.3 0.3-0.7 0.5-0.3 0.3-0.7 0.5-0.4 0.2-0.8 0.3-0.4 0.1-0.9 0.2l-128.7 17.1 31.8 8.4c1 0.2 1.8 0.7 2.5 1.3 0.6 0.7 1.1 1.5 1.4 2.4 0.2 0.9 0.2 1.9 0 2.8-0.2 0.9-0.7 1.8-1.3 2.4l-29.7 30.9q0.5 0.8 0.8 1.7 0.4 0.8 0.6 1.8 0.3 0.9 0.4 1.8 0.1 1 0.1 1.9c0 4-1.6 7.9-4.4 10.7-2.9 2.9-6.7 4.5-10.7 4.5-4.1 0-7.9-1.6-10.8-4.5-2.8-2.8-4.4-6.7-4.4-10.7 0-8.3 6.8-15.1 15.2-15.1q0.6 0 1.2 0 0.6 0.1 1.3 0.2 0.6 0.1 1.2 0.3 0.6 0.1 1.2 0.4l23.8-24.7-48.6-12.7-33.2 4.4v13.5q2.1 0.8 3.9 2.2 1.8 1.4 3.1 3.3 1.3 1.9 2 4.1 0.7 2.2 0.7 4.5c0 8.3-6.8 15.1-15.1 15.1-3.6 0.1-7-1.2-9.8-3.4-2.7-2.3-4.6-5.4-5.2-8.9-0.6-3.5 0-7.1 1.7-10.2 1.7-3.1 4.5-5.5 7.8-6.7v-12l-47.2 6.2v25.4c5.7 2.2 9.8 7.7 9.8 14.1zm-50.7-173.5c0.7-1.7 0.3-3.5-0.9-4.7-1.3-1.3-3.1-1.7-4.7-1-1.6 0.7-2.7 2.2-2.7 4q0 0.9 0.3 1.7 0.4 0.8 1 1.4 0.6 0.6 1.4 0.9 0.8 0.3 1.6 0.3c1.8 0 3.4-1 4-2.6zm52.1 53.7c-0.7 0.8-1.2 1.9-1.2 3 0 1.1 0.5 2.2 1.2 3 0.8 0.8 1.8 1.3 2.9 1.3 1.2 0 2.3-0.4 3.1-1.2 0.8-0.8 1.3-1.9 1.3-3.1 0-1.1-0.5-2.2-1.3-3.1-0.8-0.8-1.9-1.2-3.1-1.2-1.1 0-2.1 0.5-2.9 1.3zm-1.4 178.2c0 6.4-4.1 11.9-9.8 14.1v24.8c0 3-2.4 5.4-5.4 5.4h-59.3q-0.2 0-0.4 0-0.2 0-0.4 0-0.3-0.1-0.5-0.1-0.2-0.1-0.4-0.1c-0.1-0.1-0.1-0.1-0.2-0.1-0.3-0.2-0.7-0.4-1-0.6-0.3-0.2-0.6-0.3-0.8-0.6-0.2-0.2-0.4-0.5-0.6-0.8-0.2-0.3-0.4-0.5-0.6-0.8-0.1-0.3-0.1-0.6-0.2-1-0.1-0.3-0.2-0.7-0.3-1.1 0 0 0-0.1 0-0.2 0-0.3 0.1-0.6 0.2-0.9 0-0.2 0-0.5 0.1-0.8l14.5-43-55.1 38.1c0.3 1.1 0.5 2.3 0.5 3.6 0 4-1.6 7.8-4.4 10.7-2.9 2.8-6.7 4.4-10.8 4.4-4 0-7.8-1.6-10.7-4.4-2.8-2.9-4.4-6.7-4.4-10.7 0-2.8 0.7-5.5 2.2-7.9 1.4-2.3 3.4-4.2 5.9-5.5 2.4-1.3 5.1-1.9 7.9-1.7 2.7 0.1 5.4 1 7.7 2.6l68.5-47.3c1-0.7 2.1-1 3.2-1 1.2 0 2.3 0.4 3.2 1.1 0.9 0.7 1.6 1.6 1.9 2.7 0.3 1.1 0.3 2.3 0 3.4l-17.4 51.2h46.3v-19.4c-5.7-2.2-9.7-7.7-9.7-14.1 0-8.4 6.8-15.1 15.1-15.1 8.4 0 15.2 6.7 15.2 15.1zm-132.1 38.8c0.7-0.8 1.1-1.8 1.1-2.9 0-1.1-0.4-2.1-1.1-2.9-0.7-0.8-1.7-1.3-2.8-1.4-1.2-0.2-2.4 0.2-3.3 1.1-0.9 0.8-1.4 2-1.4 3.2 0 1.2 0.5 2.4 1.4 3.2 0.9 0.8 2.1 1.2 3.3 1.1 1.1-0.1 2.1-0.6 2.8-1.4zm115.3-42.8q-0.8 0.3-1.4 0.9-0.6 0.6-1 1.4-0.3 0.8-0.3 1.7c0.1 1.1 0.6 2.1 1.4 2.9 0.8 0.7 1.8 1.1 2.9 1.1 1.1 0 2.2-0.4 3-1.1 0.8-0.8 1.3-1.8 1.4-2.9 0-2.4-2-4.3-4.4-4.3q-0.8 0-1.6 0.3zm3.3-50.4q0.8-0.3 1.4-0.9 0.6-0.7 0.9-1.5 0.4-0.7 0.4-1.6 0-0.9-0.4-1.7-0.3-0.8-0.9-1.4-0.6-0.6-1.4-0.9-0.8-0.3-1.7-0.3c-2.4 0-4.3 1.9-4.3 4.3q0 0.9 0.3 1.6 0.3 0.8 1 1.5 0.6 0.6 1.4 0.9 0.8 0.3 1.6 0.3 0.9 0 1.7-0.3zm-284-12.7c-2.9 2.8-6.7 4.4-10.7 4.4-4.1 0-7.9-1.6-10.8-4.4-2.8-2.9-4.4-6.7-4.4-10.8 0-2.5 0.6-5 1.8-7.2 1.3-2.2 3-4.1 5.1-5.5 2.1-1.3 4.6-2.1 7.1-2.3 2.5-0.2 5 0.2 7.3 1.2l29.1-28.9q0.1-0.2 0.3-0.3 0.2-0.2 0.4-0.3 0.2-0.1 0.4-0.3 0.2-0.1 0.4-0.2c0.1 0 0.2-0.1 0.4-0.1q0.2-0.1 0.4-0.2 0.2 0 0.4-0.1 0.3 0 0.5-0.1 0.2 0 0.5 0c0 0 0 0 0.1 0 0.1 0 0.1 0 0.2 0q0.4 0 0.7 0l103.1 17.1c1.7-2.8 4.3-5 7.4-6.3 3.1-1.2 6.5-1.4 9.7-0.6 3.2 0.9 6 2.8 8 5.5 2 2.6 3.1 5.8 3.1 9.2 0 3.7-1.4 7.3-4 10.1-2.5 2.8-6 4.5-9.7 4.9-3.7 0.3-7.5-0.7-10.5-2.9-3-2.3-5.1-5.5-5.8-9.2l-96.8-16v31.1l13.8 25.2c0.1 0 0.2 0 0.3 0 8.4 0 15.1 6.8 15.1 15.1 0 4.1-1.5 7.9-4.4 10.8-2.8 2.8-6.7 4.4-10.7 4.4-4 0-7.9-1.6-10.7-4.4-2.9-2.9-4.5-6.7-4.5-10.8q0-1.5 0.4-3 0.3-1.5 0.9-2.9 0.6-1.4 1.5-2.7 0.9-1.3 2-2.3l-13.9-25.4c-0.4-0.8-0.6-1.7-0.6-2.6v-25.9l-19.8 19.8q0.3 0.7 0.6 1.4 0.2 0.8 0.4 1.6 0.2 0.7 0.3 1.5 0 0.8 0.1 1.6c-0.1 4.1-1.7 7.9-4.5 10.8zm322.5-65.2q0.8-0.3 1.4-0.9 0.6-0.6 0.9-1.4 0.4-0.8 0.4-1.7 0-0.8-0.4-1.6-0.3-0.8-0.9-1.4-0.6-0.6-1.4-1-0.8-0.3-1.7-0.3c-1.1 0-2.2 0.5-3 1.3-0.8 0.8-1.3 1.9-1.3 3 0 1.2 0.5 2.3 1.3 3.1 0.8 0.8 1.9 1.3 3 1.3q0.9 0 1.7-0.4zm150.1-62.4c0 1.2 0.4 2.3 1.2 3.1 0.8 0.8 1.9 1.3 3.1 1.3 1.1 0 2.2-0.5 3-1.3 0.8-0.8 1.3-1.9 1.3-3.1q0-0.8-0.3-1.6-0.3-0.8-1-1.4-0.6-0.6-1.4-1-0.8-0.3-1.6-0.3c-2.4 0-4.4 1.9-4.3 4.3zm-70.8 139.3c0.7-0.8 1.2-1.9 1.2-3 0-1.1-0.5-2.2-1.2-3-0.8-0.8-1.8-1.3-2.9-1.3-1.2-0.1-2.4 0.4-3.2 1.2-0.9 0.8-1.4 1.9-1.4 3.1 0 1.2 0.5 2.3 1.4 3.1 0.8 0.9 2 1.3 3.2 1.2 1.1 0 2.1-0.5 2.9-1.3zm-58.4-19.6c0.8-0.8 1.3-1.9 1.3-3 0-1.2-0.5-2.3-1.3-3.1-0.8-0.8-1.9-1.2-3.1-1.2-1.1 0-2.2 0.4-3 1.2-0.8 0.8-1.3 1.9-1.3 3.1 0 1.1 0.5 2.2 1.3 3 0.8 0.9 1.9 1.3 3 1.3 1.2 0 2.3-0.4 3.1-1.3zm18.9-97.1c0.8-0.9 1.3-2 1.3-3.1 0-1.2-0.5-2.3-1.3-3.1-0.8-0.8-1.9-1.2-3-1.2-1.2 0-2.3 0.4-3.1 1.2-0.8 0.8-1.3 1.9-1.3 3.1 0 1.1 0.5 2.2 1.3 3.1 0.8 0.8 1.9 1.2 3.1 1.2 1.1 0 2.2-0.4 3-1.2zm-251.6-22.6c0-2.1 0.4-4.2 1.3-6.1l-68-67.9q-0.5-0.5-0.8-1-0.4-0.6-0.6-1.3-0.2-0.6-0.2-1.3 0-0.6 0.1-1.3 0.1-0.7 0.4-1.3 0.3-0.6 0.7-1.1 0.5-0.5 1-0.9 0.6-0.4 1.2-0.6l39-15.6q0.7-0.2 1.4-0.3 0.7-0.1 1.4 0 0.7 0.1 1.4 0.4 0.6 0.3 1.2 0.7l8.5 6.8c2.2-1.3 4.8-2.2 7.6-2.2 8.4 0 15.2 6.8 15.2 15.2 0 4-1.6 7.9-4.5 10.7-2.8 2.9-6.7 4.5-10.7 4.5-4 0-7.9-1.6-10.7-4.5-2.9-2.8-4.5-6.7-4.5-10.7q0-0.6 0.1-1.2 0.1-0.6 0.1-1.1 0.1-0.6 0.3-1.2 0.1-0.5 0.3-1.1l-6-4.8-28.5 11.4 62.2 62c1.9-0.8 4-1.3 6.2-1.3 8.4 0 15.2 6.8 15.2 15.1 0 8.4-6.8 15.2-15.2 15.2-8.3 0-15.1-6.8-15.1-15.2zm-0.4-79.5q-0.3-0.8-0.9-1.4-0.7-0.6-1.5-0.9-0.8-0.4-1.6-0.3c-1.2 0-2.3 0.4-3.1 1.2-0.8 0.8-1.2 1.9-1.2 3.1 0 1.1 0.4 2.2 1.2 3 0.8 0.8 1.9 1.3 3.1 1.3 2.4 0 4.4-1.9 4.4-4.3q-0.1-0.9-0.4-1.7zm18.6 76.5c-0.8-0.8-1.9-1.3-3.1-1.3-1.1 0-2.2 0.5-3 1.3-0.9 0.8-1.3 1.9-1.3 3 0 1.2 0.4 2.3 1.2 3.1 0.9 0.8 2 1.3 3.1 1.3 1.2 0 2.3-0.5 3.1-1.3 0.8-0.8 1.2-1.9 1.2-3.1 0-1.1-0.4-2.2-1.2-3zm-103.5-38.9c-0.8 0.8-1.2 1.9-1.2 3 0 1.1 0.4 2.2 1.2 3 0.7 0.8 1.8 1.3 2.9 1.4 1.2 0 2.3-0.4 3.2-1.2 0.9-0.9 1.3-2 1.3-3.2 0-1.2-0.4-2.3-1.3-3.1-0.9-0.9-2-1.3-3.2-1.2-1.1 0-2.2 0.5-2.9 1.3zm122.7 5.9c0.7-0.8 1.1-1.8 1.1-2.9 0-1.1-0.4-2.1-1.1-2.9-0.7-0.8-1.7-1.3-2.8-1.4-1.2-0.1-2.4 0.3-3.3 1.1-0.9 0.8-1.5 2-1.5 3.2 0 1.2 0.6 2.4 1.5 3.2 0.9 0.9 2.1 1.3 3.3 1.1 1.1-0.1 2.1-0.6 2.8-1.4zm47.8 9.9c0.8 0.8 1.9 1.3 3 1.3 1.2 0 2.3-0.5 3.1-1.3 0.8-0.8 1.3-1.9 1.3-3.1 0-1.1-0.5-2.2-1.3-3-0.8-0.9-1.9-1.3-3.1-1.3-1.1 0-2.2 0.4-3 1.3-0.8 0.8-1.3 1.9-1.3 3 0 1.2 0.5 2.3 1.3 3.1zm294.3 136.6l-19.6 19.6c1.8 4.2 1.7 9-0.4 13.1-2 4.1-5.8 7-10.3 8-4.5 0.9-9.2-0.2-12.7-3.1-3.6-2.9-5.6-7.2-5.6-11.8 0-2.5 0.6-5 1.8-7.2 1.2-2.2 3-4.1 5.1-5.5 2.1-1.4 4.5-2.2 7-2.4 2.6-0.2 5.1 0.3 7.4 1.3l19.7-19.7c-0.9-1.9-1.4-3.9-1.4-6.2 0-8.3 6.8-15.1 15.2-15.1 8.4 0 15.2 6.8 15.2 15.1 0 8.4-6.8 15.2-15.2 15.2-2.2 0-4.3-0.5-6.2-1.3zm4.5-17.9q-0.8 0.4-1.4 1-0.6 0.6-0.9 1.4-0.3 0.8-0.4 1.6c0 1.2 0.5 2.3 1.3 3.1 0.8 0.8 1.9 1.3 3.1 1.3 1.1 0 2.2-0.5 3.1-1.3 0.8-0.8 1.2-1.9 1.2-3.1 0-2.3-1.9-4.3-4.3-4.3q-0.9 0-1.7 0.3zm-35.1 46.7c0.7-0.8 1.2-1.9 1.2-3 0-1.1-0.5-2.1-1.2-2.9-0.8-0.8-1.8-1.3-2.9-1.4-1.2-0.1-2.3 0.3-3.2 1.1-0.9 0.9-1.4 2-1.4 3.2 0 1.2 0.5 2.3 1.4 3.2 0.9 0.8 2 1.2 3.2 1.1 1.1-0.1 2.1-0.5 2.9-1.3zm-466.3-20.8c0.6-1.6 0.3-3.5-1-4.7-1.2-1.2-3.1-1.6-4.7-1-1.6 0.7-2.7 2.3-2.7 4q0 0.9 0.4 1.7 0.3 0.8 0.9 1.4 0.6 0.6 1.4 0.9 0.8 0.4 1.7 0.4c1.7 0 3.3-1.1 4-2.7zm149.1-24.1c-0.8 0.8-1.2 1.9-1.2 3 0 1.1 0.4 2.2 1.2 3 0.8 0.8 1.8 1.3 2.9 1.3 1.2 0.1 2.4-0.4 3.2-1.2 0.9-0.8 1.4-2 1.4-3.1 0-1.2-0.5-2.4-1.4-3.2-0.9-0.8-2-1.2-3.2-1.2-1.1 0.1-2.2 0.6-2.9 1.4zm-91.6 58.5c-0.9-0.8-1.9-1.2-3-1.2-1.1 0-2.2 0.4-3 1.2-0.8 0.7-1.3 1.7-1.3 2.8 0 1.1 0.5 2.2 1.3 2.9 0.8 0.8 1.9 1.2 3 1.2 1.1 0 2.1-0.4 3-1.2 0.8-0.7 1.2-1.8 1.3-2.9-0.1-1.1-0.5-2.1-1.3-2.8zm12.5-34.4q0.3 0.8 0.9 1.4 0.6 0.6 1.4 0.9 0.8 0.4 1.7 0.4c1.1-0.1 2.1-0.6 2.8-1.4 0.8-0.8 1.2-1.9 1.2-3 0-1.1-0.4-2.1-1.2-2.9-0.7-0.8-1.7-1.3-2.8-1.4q-0.9 0-1.7 0.3-0.8 0.4-1.4 1-0.6 0.6-0.9 1.4-0.4 0.8-0.4 1.6 0 0.9 0.4 1.7zm92.7 86.9c-2.8 2.8-6.7 4.4-10.7 4.4-4 0-7.9-1.6-10.7-4.4-2.8-2.9-4.4-6.7-4.4-10.7 0-8.4 6.8-15.2 15.1-15.2 2.5 0 4.9 0.7 7 1.8l56.2-41.1c-0.4-1.2-0.6-2.5-0.6-3.9 0-8.4 6.8-15.1 15.2-15.1 8.3 0 15.1 6.7 15.1 15.1 0 2.7-0.7 5.4-2.1 7.7-1.4 2.3-3.4 4.3-5.8 5.6-2.4 1.3-5.1 1.9-7.8 1.8-2.7-0.1-5.4-0.9-7.7-2.4l-55.3 40.4c0.6 1.7 1 3.4 1 5.3 0 4-1.6 7.8-4.5 10.7zm64-72.2c-0.8 0.8-1.3 1.9-1.3 3.1 0 1.1 0.5 2.2 1.3 3 0.8 0.9 1.9 1.3 3.1 1.3 1.1 0.1 2.3-0.4 3.2-1.2 0.8-0.8 1.3-1.9 1.3-3.1 0-1.2-0.5-2.3-1.3-3.1-0.9-0.9-2.1-1.3-3.2-1.2-1.2 0-2.3 0.4-3.1 1.2zm-71.9 64.4c0.7-0.8 1.1-1.8 1.1-2.9 0-1.1-0.4-2.1-1.1-2.9-0.7-0.8-1.7-1.3-2.8-1.4-1.2-0.2-2.4 0.2-3.3 1.1-0.9 0.8-1.4 1.9-1.5 3.2 0 1.2 0.6 2.4 1.5 3.2 0.9 0.8 2.1 1.2 3.3 1.1 1.1-0.1 2.1-0.6 2.8-1.4zm695.5-227.1q-1 1.4-2.4 2.4-1.3 1.1-2.8 1.8-1.5 0.8-3.2 1.1-1.6 0.4-3.3 0.4c-2 0-4-0.4-5.8-1.1-1.9-0.8-3.5-1.9-5-3.3-1.4-1.4-2.5-3.1-3.3-4.9-0.7-1.8-1.1-3.8-1.1-5.8 0.1-3.9 1.6-7.6 4.4-10.4 2.7-2.7 6.4-4.3 10.3-4.4 3.9-0.1 7.7 1.2 10.5 3.8 2.9 2.6 4.7 6.2 5 10.1l63.1 13.9c1 0.2 2 0.8 2.7 1.5l34.8 36.1 31.9-32.7q-0.6-0.9-1-1.9-0.5-1-0.8-2-0.3-1.1-0.4-2.1-0.2-1.1-0.2-2.2c0-8.3 6.8-15.1 15.2-15.1 8.3 0 15.1 6.8 15.1 15.1 0 8.4-6.8 15.2-15.1 15.2q-0.5 0-1-0.1-0.5 0-1-0.1-0.5-0.1-1-0.2-0.4-0.1-0.9-0.2l-74.9 76.8c-0.6 0.6-1.3 1.1-2.2 1.4-0.8 0.2-1.6 0.3-2.5 0.2-0.9-0.2-1.7-0.5-2.4-1-0.7-0.5-1.2-1.2-1.6-2l-13.3-26.4c-0.7 0.1-1.4 0.2-2.1 0.2-2 0-4-0.4-5.8-1.1-1.9-0.8-3.5-1.9-4.9-3.3-1.4-1.4-2.6-3.1-3.3-4.9-0.8-1.9-1.2-3.8-1.2-5.8 0-4 1.6-7.9 4.5-10.7 2.8-2.9 6.7-4.5 10.7-4.5 4 0 7.9 1.6 10.7 4.5 2.8 2.8 4.4 6.7 4.4 10.7 0 3.7-1.3 7-3.5 9.7l10.1 20 28.9-29.7-33.9-35.2zm284.6-86.6l-42.4-14.1-64.6 47.9c0.5 1.4 0.8 2.9 0.8 4.4 0 4.1-1.6 7.9-4.5 10.8-2.8 2.8-6.7 4.4-10.7 4.4-4 0-7.9-1.6-10.7-4.4-2.9-2.9-4.5-6.7-4.5-10.8 0-8.3 6.9-15.1 15.2-15.1q1 0 2 0.2 1 0.1 2 0.4 1 0.2 1.9 0.6 0.9 0.4 1.8 1l36.3-26.9-120.1 44.9q-0.2 0.1-0.3 0.1-0.2 0.1-0.3 0.1-0.2 0-0.3 0.1-0.2 0-0.3 0l-34.8 4.4v4.3h34.8q0.5 0 1 0.1 0.4 0.1 0.9 0.2 0.4 0.2 0.8 0.4 0.4 0.2 0.8 0.5l11.2 9.2q0.5-0.2 1-0.3 0.5-0.1 1-0.2 0.5-0.1 1.1-0.1 0.5-0.1 1-0.1c8.4 0 15.2 6.8 15.2 15.2-0.1 3.9-1.8 7.7-4.6 10.4-2.9 2.8-6.6 4.4-10.6 4.4-4 0-7.8-1.6-10.6-4.4-2.8-2.7-4.5-6.5-4.6-10.4q0-1 0.2-2.1 0.1-1 0.4-1.9 0.3-1 0.7-2 0.4-0.9 0.9-1.8l-7.7-6.3h-38.3c-3 0-5.4-2.4-5.4-5.4v-8.4l-109.7 13.7-30.9 13.2 79.6 47.2c2.5-1.8 5.6-3 9-3 8.3 0 15.1 6.8 15.1 15.2 0 8.3-6.8 15.1-15.1 15.1-2.3 0-4.5-0.5-6.5-1.5-2.1-0.9-3.9-2.3-5.3-4.1-1.4-1.7-2.4-3.8-3-5.9-0.5-2.2-0.5-4.5-0.1-6.7l-85.4-50.7c-0.2-0.1-0.3-0.3-0.5-0.4l-92.8 39.7c-0.8 0.3-1.7 0.5-2.6 0.4-0.9-0.1-1.7-0.4-2.5-0.9-0.7-0.5-1.3-1.1-1.7-1.9-0.5-0.8-0.7-1.7-0.7-2.6v-17.2l-17.9-17.9c-0.8-0.7-1.3-1.7-1.5-2.8-0.2-1-0.1-2.1 0.3-3.1 0.4-1 1.1-1.8 2-2.4 0.9-0.6 1.9-0.9 3-0.9h17.4l9.2-8.5c-1.7-2.5-2.8-5.4-2.8-8.6 0-4.1 1.6-7.9 4.5-10.8 2.8-2.8 6.7-4.4 10.7-4.4 4 0 7.9 1.6 10.7 4.4 2.9 2.9 4.5 6.7 4.5 10.8 0 2.2-0.5 4.4-1.5 6.5-1 2-2.4 3.8-4.1 5.2-1.8 1.4-3.8 2.5-6 3-2.2 0.5-4.5 0.5-6.7 0.1l-12.7 11.7q-0.4 0.3-0.8 0.6-0.4 0.2-0.9 0.4-0.5 0.2-1 0.3-0.5 0.1-1 0.1h-6.4l10.3 10.2q0.3 0.4 0.6 0.8 0.3 0.5 0.5 1 0.2 0.5 0.3 1 0.1 0.5 0.1 1.1v11.2l129-55.1q0.2-0.1 0.4-0.2 0.1 0 0.3-0.1 0.2 0 0.4-0.1 0.2 0 0.4 0l155.4-19.4 155.4-58.2c0.1-0.1 0.3 0 0.4-0.1q0.1 0 0.2 0 0.1 0 0.2-0.1 0.1 0 0.2 0 0.1 0 0.2 0 0.2-0.1 0.5-0.1 0.2 0 0.4 0 0.3 0 0.5 0 0.3 0.1 0.5 0.2c0.2 0 0.4 0 0.6 0l45.1 15c2-2.4 4.6-4.1 7.6-5 3-0.8 6.2-0.7 9.2 0.3 2.9 1.1 5.5 3 7.2 5.6 1.8 2.5 2.8 5.6 2.8 8.7 0 8.4-6.8 15.2-15.2 15.2-8.1 0-14.7-6.5-15.1-14.5zm-527.2 130.2v88.6c5.7 2.2 9.8 7.7 9.7 14.1 0 4-1.6 7.9-4.4 10.7-2.8 2.9-6.7 4.5-10.7 4.5-4 0-7.9-1.6-10.7-4.5-2.9-2.8-4.5-6.7-4.5-10.7 0-6.4 4.1-11.9 9.8-14.1v-88.6c-5.7-2.2-9.8-7.7-9.8-14.1 0.1-3.9 1.8-7.7 4.6-10.5 2.8-2.7 6.6-4.3 10.6-4.3 3.9 0 7.7 1.6 10.6 4.3 2.8 2.8 4.5 6.6 4.6 10.5-0.1 6.4-4.1 11.9-9.8 14.1zm227.8-56.1c-0.8 0.8-1.3 1.9-1.3 3.1 0 1.1 0.5 2.2 1.3 3 0.8 0.8 1.9 1.3 3.1 1.3 1.1 0 2.2-0.5 3-1.3 0.8-0.8 1.3-1.9 1.3-3 0-1.2-0.5-2.3-1.3-3.1-0.8-0.8-1.9-1.2-3-1.2-1.2-0.1-2.3 0.4-3.1 1.2zm327.9 16.9l-48.5 48.4q-0.3 0.3-0.6 0.5-0.3 0.2-0.6 0.4-0.3 0.2-0.7 0.3-0.3 0.1-0.7 0.2l-156 38.9q-0.4 0.1-0.8 0.2-0.4 0-0.8 0-0.4 0-0.8-0.1-0.4-0.1-0.8-0.3-0.3-0.1-0.5-0.2c-0.4-0.2-0.8-0.5-1.2-0.8-0.1-0.1-0.2-0.1-0.3-0.2 0-0.1-0.1-0.2-0.2-0.3q-0.1-0.2-0.3-0.4-0.1-0.2-0.3-0.5-0.1-0.2-0.2-0.4-0.1-0.3-0.2-0.5c-0.1-0.1-0.1-0.2-0.2-0.4 0-0.2 0-0.4 0-0.6q0-0.1 0-0.3-0.1-0.1-0.1-0.3 0-0.1 0-0.3 0-0.1 0-0.2 0.1-0.2 0.1-0.3 0-0.1 0-0.2 0-0.2 0.1-0.3 0-0.1 0-0.2 0.1-0.3 0.2-0.5 0.1-0.3 0.2-0.5 0.1-0.3 0.3-0.5 0.1-0.2 0.3-0.4c0.1-0.2 0.2-0.4 0.3-0.5l87.6-87.4c-0.9-1.9-1.4-3.9-1.4-6.1 0.1-4 1.8-7.7 4.6-10.5 2.9-2.8 6.7-4.3 10.6-4.3 4 0 7.8 1.5 10.6 4.3 2.8 2.8 4.5 6.5 4.6 10.5 0 2.5-0.7 5-1.9 7.2-1.2 2.2-2.9 4.1-5 5.5-2.2 1.3-4.6 2.1-7.1 2.3-2.5 0.2-5-0.2-7.3-1.2l-73.8 73.5 135.7-33.8 47.4-47.4c-0.8-1.9-1.3-3.9-1.3-6.1 0.1-4 1.7-7.7 4.6-10.5 2.8-2.8 6.6-4.3 10.5-4.3 4 0 7.8 1.5 10.6 4.3 2.9 2.8 4.5 6.5 4.6 10.5 0 8.3-6.8 15.1-15.2 15.1-2.2 0-4.2-0.5-6.1-1.3zm-525.9 140.6v-37.6c0-1.1 0.4-2.1 0.9-3 0.6-0.9 1.5-1.6 2.5-2 1-0.4 2-0.5 3.1-0.3 1 0.2 2 0.7 2.8 1.5l39 38.9q0.1 0.2 0.3 0.3 0.1 0.2 0.2 0.4 0.2 0.1 0.3 0.3 0.1 0.2 0.2 0.4l18.6 37.2 166.2 73.7v-60.8l-18 9.2c0 0.5 0.1 1 0.1 1.5 0 8.4-6.8 15.1-15.1 15.1-8.4 0-15.2-6.7-15.2-15.1 0-8.4 6.8-15.1 15.2-15.1q1.4 0 2.7 0.2 1.4 0.3 2.7 0.8 1.3 0.5 2.5 1.2 1.2 0.8 2.2 1.7l25.8-13.1c0.8-0.4 1.8-0.6 2.7-0.6 0.9 0.1 1.8 0.3 2.6 0.8 0.8 0.5 1.4 1.2 1.9 2 0.4 0.8 0.7 1.7 0.7 2.6v77.9q0 0.7-0.2 1.3-0.1 0.7-0.5 1.3-0.3 0.6-0.7 1.1-0.5 0.5-1.1 0.8-0.5 0.4-1.2 0.6-0.6 0.2-1.3 0.3-0.7 0-1.3-0.1-0.7-0.1-1.3-0.4l-175.6-77.8c-0.2-0.1-0.4-0.3-0.6-0.5q-0.1 0-0.2-0.1-0.1-0.1-0.2-0.1-0.2-0.1-0.3-0.2-0.1-0.1-0.2-0.2c-0.2-0.3-0.4-0.6-0.7-0.9-0.1-0.2-0.3-0.3-0.4-0.6l-19.1-38.1-29.2-29.1v25.9q0 0.3 0 0.6 0 0.3-0.1 0.6-0.1 0.3-0.2 0.6-0.1 0.3-0.2 0.6l-19 37.8v145.8c0 1.4-0.6 2.8-1.6 3.8-1 1-2.4 1.6-3.8 1.6-1.4 0-2.8-0.6-3.8-1.6-1-1-1.6-2.4-1.6-3.8v-147.1q0-0.3 0-0.6 0.1-0.3 0.1-0.6 0.1-0.3 0.2-0.6 0.1-0.3 0.3-0.6c0 0 18.9-37.8 18.9-37.8zm198 56.6c-0.8 0.8-1.3 1.9-1.3 3.1 0 1.1 0.5 2.2 1.3 3.1 0.8 0.8 1.9 1.2 3.1 1.2 1.1 0 2.2-0.4 3-1.2 0.8-0.9 1.3-2 1.3-3.1 0-1.2-0.5-2.3-1.3-3.1-0.8-0.8-1.9-1.2-3-1.2-1.2 0-2.3 0.4-3.1 1.2zm262.7 11.2q-0.6-0.9-1-1.9-0.4-1-0.7-2-0.3-1-0.5-2.1-0.1-1-0.1-2.1c0-8.4 6.7-15.1 15.1-15.1 8.4 0 15.2 6.7 15.2 15.1 0 8.4-6.8 15.1-15.2 15.1q-0.5 0-1 0-0.5-0.1-1-0.1-0.5-0.1-1-0.2-0.5-0.1-1-0.3l-20.3 31.2 88-40.5q-0.2-0.6-0.3-1.1-0.2-0.6-0.3-1.2-0.1-0.6-0.2-1.2 0-0.6 0-1.2c0-4 1.6-7.9 4.4-10.7 2.9-2.9 6.7-4.5 10.7-4.5 4.1 0 7.9 1.6 10.8 4.5 2.8 2.8 4.4 6.7 4.4 10.7 0 8.3-6.8 15.1-15.2 15.1-2.5 0-4.9-0.7-7-1.8l-107.7 49.5q-0.8 0.4-1.7 0.5-0.9 0.1-1.7-0.1-0.9-0.2-1.6-0.7-0.8-0.4-1.4-1.1-0.6-0.6-0.9-1.4-0.3-0.9-0.4-1.7 0-0.9 0.2-1.8 0.2-0.8 0.7-1.6zm15.7-10.9c-0.8-0.7-1.8-1.1-2.9-1.1-1.1 0-2.2 0.4-3 1.1-0.8 0.8-1.3 1.8-1.3 2.9-0.2 1.2 0.3 2.4 1.1 3.3 0.8 0.9 2 1.4 3.2 1.4 1.2 0 2.4-0.5 3.2-1.4 0.8-0.9 1.2-2.1 1.1-3.3-0.1-1.1-0.6-2.1-1.4-2.9zm78.2 0.3c-0.9-0.8-2-1.3-3.1-1.3-1.2 0-2.3 0.5-3.1 1.3-0.8 0.8-1.2 1.9-1.2 3.1 0 1.1 0.4 2.2 1.2 3 0.8 0.9 1.9 1.3 3.1 1.3 1.1 0 2.2-0.4 3.1-1.3 0.8-0.8 1.2-1.9 1.2-3 0-1.2-0.4-2.3-1.2-3.1zm-46.4-289.4c0 1.1 0.5 2.1 1.3 2.9 0.8 0.7 1.9 1.1 3 1.1 1.1 0 2.2-0.4 3-1.1 0.8-0.8 1.3-1.8 1.3-2.9q0-0.9-0.3-1.7-0.3-0.8-0.9-1.4-0.7-0.6-1.5-0.9-0.7-0.3-1.6-0.3c-2.4 0-4.3 1.9-4.3 4.3zm-136.3 40.6q0.4 0.8 1 1.4 0.6 0.6 1.4 0.9 0.8 0.4 1.6 0.4 0.9 0 1.7-0.4 0.8-0.3 1.4-0.9 0.6-0.6 1-1.4 0.3-0.8 0.3-1.7 0-0.8-0.3-1.6-0.4-0.8-1-1.4-0.6-0.6-1.4-1-0.8-0.3-1.7-0.3c-2.4 0-4.3 1.9-4.3 4.3q0 0.9 0.3 1.7zm-344 11.7c-0.8-0.8-1.9-1.3-3-1.3-1.2 0-2.3 0.4-3.1 1.2-0.8 0.9-1.3 2-1.3 3.1 0 1.2 0.5 2.3 1.3 3.1 0.8 0.8 1.9 1.3 3.1 1.3 1.1 0 2.2-0.5 3-1.3 0.8-0.8 1.3-1.9 1.3-3.1 0-1.1-0.5-2.2-1.3-3zm244.6 161.3l-47.2-6.3v12q2.2 0.8 4 2.3 1.8 1.4 3.1 3.3 1.3 1.8 2 4 0.7 2.2 0.7 4.5c0 4-1.6 7.9-4.5 10.7-2.8 2.9-6.7 4.5-10.7 4.5-4 0-7.9-1.6-10.7-4.5-2.9-2.8-4.5-6.7-4.5-10.7 0-6.4 4.1-11.9 9.8-14.1v-13.4l-33.2-4.4-48.6 12.6 23.8 24.7c1.5-0.5 3.2-0.9 4.9-0.9 8.4 0 15.2 6.8 15.2 15.1 0 4.1-1.6 7.9-4.5 10.8-2.8 2.8-6.7 4.4-10.7 4.4-4 0-7.9-1.6-10.7-4.4-2.9-2.9-4.5-6.7-4.5-10.8 0-2.6 0.8-5 2-7.2l-29.7-30.8c-0.7-0.7-1.1-1.5-1.4-2.4-0.2-1-0.2-1.9 0.1-2.8 0.3-0.9 0.7-1.8 1.4-2.4 0.7-0.7 1.5-1.1 2.4-1.4l31.9-8.3-128.7-17.2q-0.5 0-0.9-0.1-0.4-0.2-0.8-0.4-0.4-0.2-0.8-0.4-0.3-0.3-0.6-0.6l-19.6-19.5c-1-1-1.5-2.4-1.5-3.8v-19.4q0-1.1 0.4-2.1 0.4-1 1.1-1.8 0.8-0.7 1.8-1.1 1-0.4 2.1-0.4h19.5q0.5 0 1 0.1 0.6 0.1 1 0.3 0.5 0.2 1 0.5 0.4 0.3 0.8 0.6l18.1 18.1 84.7 7.4-12-18.4-26.9-10.7c-2.3 1.7-4.9 2.8-7.8 3.1-2.8 0.3-5.6-0.2-8.2-1.5-2.5-1.2-4.6-3.2-6.1-5.6-1.5-2.4-2.3-5.2-2.3-8 0-4 1.6-7.9 4.5-10.7 2.8-2.9 6.7-4.5 10.7-4.5 4 0 7.9 1.6 10.7 4.5 2.9 2.8 4.5 6.7 4.5 10.7 0 0.9-0.2 1.8-0.3 2.6l26.8 10.7q0.4 0.2 0.8 0.4 0.3 0.2 0.7 0.5 0.3 0.3 0.6 0.6 0.2 0.3 0.5 0.6l17.5 26.9 82.1 7.1c4.3-5.9 12.2-7.8 18.7-4.6 6.6 3.2 9.9 10.5 8 17.6-1.9 7-8.5 11.6-15.8 11.1-7.2-0.6-13-6.3-13.8-13.5l-180.5-15.7q-0.5 0-0.9-0.1-0.5-0.2-0.9-0.4-0.4-0.2-0.8-0.4-0.4-0.3-0.8-0.7l-17.9-17.8h-11.8v11.8l16.6 16.6 154.3 20.5 136 18.1 37.8-1.7c0.3 0 0.5 0.1 0.7 0.1 0.4 0.1 0.8 0.1 1.2 0.2q0.1 0.1 0.2 0.1 0.1 0.1 0.3 0.1 0.1 0.1 0.2 0.1 0.1 0.1 0.2 0.2c0.3 0.1 0.5 0.1 0.7 0.3l76.4 57.9 43.5-26.8c-1.7-4.2-1.4-8.9 0.8-12.9 2.2-3.9 6-6.7 10.4-7.6 4.5-0.9 9.1 0.3 12.5 3.2 3.5 2.9 5.6 7.2 5.6 11.7 0 8.3-6.9 15.1-15.2 15.1-2.3 0-4.5-0.5-6.4-1.4l-48.7 29.8q-0.7 0.4-1.5 0.7-0.8 0.2-1.6 0.1-0.8 0-1.6-0.3-0.8-0.3-1.4-0.8l-77.8-58.9-36.3 1.6h-0.3q-0.1 0-0.1 0-0.1 0-0.2 0-0.1 0-0.2 0-0.1 0-0.2 0l-33.3-4.5v24c5.6 2.1 9.7 7.6 9.7 14 0 4.1-1.6 7.9-4.4 10.8-2.9 2.8-6.7 4.4-10.8 4.4-4 0-7.8-1.6-10.7-4.4-2.8-2.9-4.4-6.7-4.4-10.8 0-6.4 4-11.9 9.7-14zm47.8-132.8c0.8-0.8 1.2-1.9 1.2-3 0-1.1-0.4-2.1-1.2-2.9-0.7-0.8-1.7-1.3-2.8-1.4-1.2-0.1-2.4 0.3-3.3 1.1-0.9 0.9-1.4 2-1.4 3.2 0 1.2 0.5 2.4 1.4 3.2 0.9 0.8 2 1.2 3.2 1.2 1.1-0.1 2.2-0.6 2.9-1.4zm-64.8 52.4c-0.7 0.9-1.1 1.9-1.1 3 0 1.1 0.4 2.2 1.2 3 0.7 0.8 1.8 1.3 2.9 1.3 1.2 0.1 2.3-0.3 3.2-1.1 0.8-0.9 1.3-2 1.3-3.2 0-1.2-0.5-2.3-1.3-3.1-0.9-0.8-2.1-1.3-3.2-1.2-1.1 0.1-2.2 0.5-3 1.3zm37.6 178.2c0 6.4-4 11.9-9.7 14.1v19.4h46.3l-17.4-51.2c-0.4-1.1-0.4-2.3 0-3.3 0.3-1.1 1-2.1 1.9-2.8 0.9-0.6 2-1 3.1-1.1 1.2 0 2.3 0.4 3.2 1l68.6 47.3c2.3-1.6 4.9-2.5 7.7-2.6 2.7-0.2 5.5 0.4 7.9 1.7 2.4 1.3 4.5 3.2 5.9 5.6 1.4 2.3 2.2 5 2.2 7.8 0 4-1.6 7.9-4.5 10.7-2.8 2.9-6.7 4.5-10.7 4.5-4 0-7.8-1.6-10.7-4.5-2.8-2.8-4.4-6.7-4.4-10.7q0-0.5 0-0.9 0-0.5 0.1-0.9 0.1-0.5 0.1-0.9 0.1-0.5 0.2-0.9l-55.1-38 14.6 42.9c0.1 0.3 0 0.6 0.1 0.9 0 0.3 0.2 0.5 0.2 0.8 0 0.1-0.1 0.2-0.1 0.2 0 0.4-0.1 0.8-0.2 1.2-0.1 0.3-0.1 0.6-0.3 0.9-0.1 0.3-0.3 0.6-0.5 0.8-0.2 0.3-0.4 0.6-0.7 0.9-0.2 0.2-0.5 0.3-0.7 0.5-0.4 0.2-0.7 0.4-1.1 0.6l-0.1 0.1q-0.2 0-0.5 0.1-0.2 0.1-0.4 0.1-0.2 0-0.4 0-0.2 0.1-0.5 0.1h-59.2c-3.1 0-5.5-2.5-5.5-5.5v-24.8c-5.7-2.2-9.7-7.7-9.7-14.1 0-8.3 6.8-15.1 15.2-15.1 8.3 0 15.1 6.8 15.1 15.1zm106.2 39.9q0.8-0.3 1.4-1 0.6-0.6 0.9-1.4 0.4-0.8 0.4-1.6c0-1.2-0.5-2.3-1.3-3.1-0.8-0.8-1.9-1.3-3.1-1.3-1.1 0-2.2 0.5-3 1.3-0.9 0.8-1.3 1.9-1.3 3.1q0 0.8 0.3 1.6 0.4 0.8 1 1.4 0.6 0.7 1.4 1 0.8 0.3 1.6 0.3 0.9 0 1.7-0.3zm-123-43.9q-0.8 0.3-1.4 0.9-0.6 0.7-1 1.4-0.3 0.8-0.3 1.7c0 1.2 0.5 2.3 1.3 3.1 0.8 0.8 1.9 1.2 3 1.2 1.2 0 2.3-0.4 3.1-1.2 0.8-0.8 1.3-1.9 1.3-3.1 0-2.4-2-4.3-4.3-4.3q-0.9 0-1.7 0.3zm3.3-50.4q0.8-0.3 1.4-0.9 0.6-0.6 1-1.4 0.3-0.8 0.3-1.7c0-1.1-0.5-2.2-1.3-3.1-0.8-0.8-1.9-1.2-3-1.2-1.2 0-2.3 0.4-3.1 1.2-0.8 0.9-1.3 2-1.3 3.1q0 0.9 0.3 1.7 0.4 0.8 1 1.4 0.6 0.6 1.4 0.9 0.8 0.3 1.7 0.3 0.8 0 1.6-0.3zm276.3-25q0.1-0.8 0.3-1.6 0.2-0.8 0.4-1.5 0.3-0.8 0.6-1.5l-19.8-19.7v25.9q0 0.3 0 0.6 0 0.4-0.1 0.7-0.1 0.3-0.2 0.6-0.2 0.4-0.3 0.6l-13.9 25.4c2.9 2.8 4.8 6.7 4.8 11 0 4-1.6 7.9-4.5 10.7-2.8 2.9-6.7 4.5-10.7 4.5-4 0-7.9-1.6-10.7-4.5-2.8-2.8-4.4-6.7-4.4-10.7 0-8.3 6.8-15.2 15.1-15.2 0.1 0 0.2 0.1 0.3 0.1l13.8-25.2v-31.2l-96.7 16c-1.4 7-7.6 12.2-14.9 12.2-5.4 0-10.4-2.8-13.1-7.5-2.7-4.6-2.8-10.4-0.1-15.1 2.7-4.7 7.6-7.6 13-7.6 5.4-0.1 10.4 2.7 13.2 7.4l103.1-17.1c0.3 0 0.5 0 0.7 0 0.1 0 0.1-0.1 0.2-0.1 0.1 0 0.1 0.1 0.1 0.1q0.3 0 0.5 0 0.2 0 0.5 0.1 0.2 0 0.4 0.1 0.2 0 0.5 0.1l0.3 0.2q0.2 0.1 0.4 0.2 0.2 0.1 0.4 0.2 0.2 0.2 0.4 0.3 0.2 0.1 0.3 0.3l29.1 29c2.3-1.1 4.8-1.5 7.3-1.3 2.5 0.2 4.9 1 7.1 2.4 2.1 1.3 3.8 3.2 5 5.4 1.3 2.3 1.9 4.7 1.9 7.3 0 4-1.6 7.8-4.4 10.7-2.9 2.8-6.7 4.4-10.8 4.4-4 0-7.8-1.6-10.7-4.4-2.8-2.9-4.4-6.7-4.4-10.7q0-0.8 0-1.6zm-312.1-56.8c-0.1-1.2-0.6-2.2-1.4-3-0.8-0.7-1.9-1.2-3-1.2-1.1 0-2.2 0.5-3 1.2-0.8 0.8-1.3 1.8-1.3 3q0 0.8 0.3 1.6 0.4 0.8 1 1.4 0.6 0.6 1.4 1 0.8 0.3 1.6 0.3c2.4 0 4.4-2 4.4-4.3zm-162.1-62.4q-0.8 0.3-1.4 0.9-0.6 0.6-0.9 1.4-0.3 0.8-0.4 1.7 0.1 0.8 0.4 1.6 0.3 0.8 0.9 1.4 0.6 0.6 1.4 1 0.8 0.3 1.7 0.3c2.4 0 4.3-2 4.3-4.3 0-2.4-1.9-4.4-4.3-4.4q-0.9 0-1.7 0.4zm82.8 143.3c0.8-0.8 1.2-1.9 1.2-3.1 0-1.1-0.4-2.2-1.2-3-0.8-0.9-1.9-1.3-3.1-1.3-1.1 0-2.2 0.4-3 1.3-0.9 0.8-1.3 1.9-1.3 3 0 1.2 0.4 2.3 1.3 3.1 0.8 0.8 1.9 1.2 3 1.2 1.2 0 2.3-0.4 3.1-1.2zm58.2-19.8c0.8-0.8 1.2-1.8 1.2-2.9 0-1.1-0.4-2.1-1.2-2.9-0.7-0.8-1.7-1.3-2.8-1.4-1.2-0.1-2.4 0.3-3.3 1.1-0.9 0.8-1.4 2-1.4 3.2 0 1.2 0.5 2.4 1.4 3.2 0.9 0.8 2.1 1.2 3.3 1.1 1.1-0.1 2.1-0.6 2.8-1.4zm-18.9-97.2c0.7-0.7 1.1-1.8 1.1-2.9 0-1-0.4-2.1-1.1-2.9-0.7-0.8-1.7-1.3-2.8-1.4-1.2-0.1-2.4 0.3-3.3 1.1-0.9 0.9-1.5 2-1.5 3.2 0 1.3 0.6 2.4 1.5 3.3 0.9 0.8 2.1 1.2 3.3 1.1 1.1-0.2 2.1-0.7 2.8-1.5zm215.5-22.3c0-8.4 6.8-15.2 15.2-15.2q0.8 0 1.6 0.1 0.8 0.1 1.5 0.3 0.8 0.1 1.6 0.4 0.7 0.2 1.4 0.6l62.2-62.1-28.4-11.3-6 4.7c0.4 1.5 0.8 3 0.7 4.6 0 4-1.6 7.9-4.4 10.7-2.8 2.9-6.7 4.5-10.7 4.5-4 0-7.9-1.6-10.7-4.5-2.9-2.8-4.5-6.7-4.5-10.7 0-8.4 6.8-15.2 15.2-15.2q1 0.1 2 0.2 1 0.1 1.9 0.4 1 0.3 1.9 0.7 1 0.4 1.8 0.9l8.5-6.8q0.5-0.4 1.2-0.7 0.7-0.3 1.4-0.4 0.7-0.1 1.4 0 0.7 0.1 1.4 0.3l39 15.6q0.6 0.2 1.2 0.6 0.5 0.4 0.9 0.9 0.5 0.5 0.8 1.1 0.3 0.7 0.4 1.3 0.1 0.7 0.1 1.3 0 0.7-0.2 1.3-0.2 0.7-0.6 1.3-0.3 0.5-0.8 1l-68 67.9c0.9 1.9 1.3 4 1.3 6.2 0 8.3-6.8 15.1-15.1 15.1-8.4 0-15.2-6.8-15.2-15.1zm34.7-73.6c1.1 0 2.2-0.4 3-1.2 0.8-0.9 1.3-2 1.3-3.1 0-1.2-0.5-2.3-1.3-3.1-0.8-0.8-1.9-1.2-3-1.2q-0.9 0-1.7 0.3-0.8 0.3-1.4 0.9-0.6 0.6-0.9 1.4-0.4 0.8-0.4 1.7c0 2.4 2 4.3 4.4 4.3zm-19.5 77.9c2.4 0 4.3-2 4.3-4.3 0-1.2-0.4-2.3-1.3-3.1-0.8-0.8-1.9-1.3-3-1.3-1.2 0-2.3 0.5-3.1 1.3-0.8 0.8-1.3 1.9-1.3 3.1 0 2.3 2 4.3 4.4 4.3zm95.8-47.3q-0.7 0.4-1.4 1-0.6 0.6-0.9 1.4-0.3 0.8-0.3 1.6c0 1.1 0.5 2.1 1.3 2.9 0.8 0.7 1.9 1.2 3 1.2 1.1 0 2.2-0.5 3-1.2 0.8-0.8 1.2-1.8 1.3-2.9q0-0.8-0.3-1.6-0.3-0.8-0.9-1.4-0.7-0.6-1.5-1-0.7-0.3-1.6-0.3-0.9 0-1.7 0.3zm-113.7 8q0.8-0.3 1.4-0.9 0.6-0.6 1-1.4 0.3-0.8 0.3-1.7c0-1.8-1.1-3.3-2.7-4-1.6-0.7-3.5-0.3-4.7 0.9-1.3 1.3-1.6 3.2-1 4.8 0.7 1.6 2.3 2.7 4.1 2.7q0.8 0 1.6-0.4zm-52.2 2.7c-0.8-0.8-1.9-1.3-3-1.3-1.2 0-2.3 0.5-3.1 1.3-0.8 0.8-1.3 1.9-1.3 3 0 1.2 0.5 2.3 1.3 3.1 0.8 0.8 1.9 1.3 3.1 1.3 1.1 0 2.2-0.5 3-1.3 0.8-0.8 1.3-1.9 1.3-3.1 0-1.1-0.5-2.2-1.3-3zm-315.7 128.9c0-8.4 6.8-15.2 15.2-15.2 8.4 0 15.2 6.8 15.2 15.2 0 2.2-0.5 4.3-1.4 6.1l19.7 19.7c2.3-1 4.8-1.5 7.3-1.3 2.6 0.2 5 1.1 7.1 2.4 2.1 1.4 3.9 3.3 5.1 5.5 1.2 2.2 1.8 4.7 1.8 7.2 0 4-1.6 7.9-4.4 10.8-2.9 2.8-6.7 4.4-10.7 4.4-4.1 0-7.9-1.6-10.8-4.4-2.8-2.9-4.4-6.8-4.4-10.8q0-0.8 0.1-1.6 0.1-0.8 0.2-1.5 0.2-0.8 0.5-1.6 0.2-0.7 0.5-1.4l-19.7-19.7c-1.8 0.8-3.9 1.3-6.1 1.3-8.4 0-15.2-6.8-15.2-15.1zm13.6-4q-0.8 0.3-1.5 0.9-0.6 0.6-0.9 1.4-0.3 0.8-0.3 1.7c0 1.1 0.5 2.1 1.3 2.9 0.8 0.8 1.9 1.2 3 1.2 1.1 0 2.2-0.4 3-1.2 0.8-0.8 1.3-1.8 1.3-2.9 0-2.4-1.9-4.4-4.3-4.4q-0.8 0-1.6 0.4zm44.1 46.6c0.8-0.8 1.2-1.9 1.2-3 0-1.1-0.5-2.1-1.2-2.9-0.8-0.8-1.8-1.3-2.9-1.4-1.2-0.1-2.3 0.4-3.2 1.2-0.9 0.8-1.4 1.9-1.4 3.1 0 1.2 0.5 2.4 1.4 3.2 0.9 0.8 2.1 1.2 3.3 1.1 1 0 2.1-0.5 2.8-1.3zm467.7-19.4c0.8-0.8 1.3-1.9 1.3-3 0-1.2-0.5-2.3-1.3-3.1-0.8-0.8-1.9-1.3-3.1-1.3-1.1 0-2.2 0.5-3 1.3-0.8 0.8-1.3 1.9-1.3 3.1 0 1.1 0.5 2.2 1.3 3 0.8 0.8 1.9 1.3 3 1.3 1.2 0 2.3-0.5 3.1-1.3zm-162.2-25.6c-0.8 0.9-1.2 2-1.2 3.1 0 1.2 0.4 2.3 1.2 3.1 0.9 0.8 2 1.2 3.1 1.2 1.1 0 2.2-0.4 3.1-1.2 0.8-0.8 1.2-1.9 1.2-3.1 0-1.1-0.4-2.2-1.2-3.1-0.9-0.8-2-1.2-3.1-1.2-1.1 0-2.2 0.4-3.1 1.2zm97.6 64.4c0.8 0.8 1.9 1.2 3 1.2 1.1 0 2.2-0.4 3-1.2 0.8-0.7 1.3-1.8 1.3-2.9 0.1-1.2-0.3-2.3-1.1-3.2-0.8-0.9-2-1.3-3.2-1.4-1.2 0-2.3 0.5-3.1 1.4-0.8 0.8-1.3 2-1.2 3.2 0 1.1 0.5 2.1 1.3 2.9zm-13.4-44.9c-0.8-0.8-2-1.3-3.1-1.3-1.2 0-2.3 0.5-3.1 1.3-0.8 0.8-1.2 1.9-1.3 3 0.1 1.2 0.6 2.2 1.4 3 0.8 0.7 1.9 1.2 3 1.2 1.1 0 2.2-0.5 3-1.2 0.8-0.8 1.3-1.8 1.3-3 0-1.1-0.4-2.2-1.2-3zm-95.3 75.7l-55.3-40.5c-2.3 1.5-5 2.3-7.7 2.4-2.7 0.1-5.4-0.5-7.8-1.8-2.4-1.3-4.4-3.2-5.8-5.5-1.4-2.4-2.1-5.1-2.1-7.8 0-8.3 6.8-15.1 15.2-15.1 8.3 0 15.1 6.8 15.1 15.1 0 1.4-0.2 2.7-0.6 4l56.2 41c2.1-1 4.5-1.7 7-1.7 8.3 0 15.2 6.8 15.2 15.1 0 4-1.6 7.9-4.5 10.7-2.8 2.9-6.7 4.5-10.7 4.5-4 0-7.9-1.6-10.7-4.5-2.9-2.8-4.5-6.7-4.5-10.7 0-1.8 0.4-3.6 1-5.2zm-66.6-56.2c-0.8 0.8-1.3 1.9-1.3 3 0 1.2 0.5 2.3 1.3 3.1 0.8 0.8 1.9 1.2 3.1 1.2 1.2 0.1 2.3-0.3 3.2-1.1 0.8-0.9 1.3-2 1.3-3.2 0-1.2-0.5-2.3-1.3-3.1-0.9-0.8-2.1-1.3-3.2-1.2-1.2 0-2.3 0.5-3.1 1.3zm82.5 65.4q0.7-0.3 1.4-0.9 0.6-0.6 0.9-1.4 0.3-0.8 0.3-1.7c0-1.7-1-3.3-2.7-4-1.6-0.7-3.5-0.3-4.7 0.9-1.2 1.3-1.6 3.2-0.9 4.8 0.6 1.6 2.2 2.7 4 2.7q0.9 0 1.7-0.4zm-496.1-294.1c0.1-0.4 0.4-0.7 0.6-1 0.1-0.3 0.2-0.6 0.4-0.8 0 0 0.1 0 0.1-0.1l0.1-0.1c0.2-0.2 0.5-0.4 0.8-0.6 0.3-0.2 0.5-0.4 0.8-0.5 0.4-0.2 0.7-0.2 1-0.3 0.4-0.1 0.7-0.2 1-0.2 0.4-0.1 0.7 0 1 0.1 0.4 0 0.8 0 1.1 0.1 0.3 0.2 0.6 0.4 0.9 0.6 0.3 0.1 0.6 0.2 0.8 0.4l20.1 17.2 14-3.7c0.3-0.1 0.5-0.1 0.7-0.1q0.4-0.1 0.7-0.1c0.3 0 0.6 0.1 0.8 0.1 0.2 0.1 0.4 0 0.6 0.1l14 3.7 20.1-17.2c0.3-0.2 0.6-0.3 0.8-0.4 0.3-0.2 0.6-0.4 1-0.6 0.3-0.1 0.7-0.1 1-0.1 0.3-0.1 0.7-0.2 1-0.1 0.4 0 0.7 0.1 1 0.2 0.4 0.1 0.7 0.1 1 0.3 0.3 0.1 0.6 0.3 0.9 0.5 0.2 0.2 0.5 0.4 0.8 0.6 0 0.1 0 0.1 0.1 0.1v0.1c0.3 0.2 0.3 0.5 0.5 0.8 0.2 0.3 0.4 0.6 0.5 1 0.1 0.3 0.2 0.6 0.2 1 0 0.3 0.1 0.7 0.1 1 0 0.3-0.1 0.7-0.2 1-0.1 0.3-0.1 0.7-0.3 1-0.1 0.3-0.4 0.6-0.6 0.8-0.2 0.3-0.3 0.6-0.5 0.8l-20.6 19.5c-1 1-2.4 1.5-3.8 1.5-0.3 0-0.6-0.1-1-0.1-0.8 0.2-1.8 0.1-2.7-0.1l-14.7-4.4-14.7 4.4c-0.9 0.2-1.8 0.3-2.7 0.1q-0.1 0-0.2 0-0.2 0-0.3 0.1-0.1 0-0.3 0-0.1 0-0.2 0-0.5 0-1-0.1-0.5-0.1-1-0.3-0.5-0.2-0.9-0.5-0.4-0.2-0.8-0.6l-20.6-19.5c-0.3-0.2-0.4-0.5-0.6-0.7-0.2-0.3-0.4-0.6-0.6-0.9-0.1-0.3-0.2-0.7-0.3-1 0-0.3-0.1-0.7-0.2-1 0-0.3 0.1-0.7 0.2-1 0-0.4 0-0.7 0.1-1zm44.3 216.6q-0.1 0-0.2 0-0.8 0-1.6-0.4-0.8-0.3-1.4-0.9-0.7-0.6-1-1.4-0.3-0.8-0.3-1.7 0-0.8 0.3-1.6 0.4-0.8 1-1.4 0.6-0.6 1.4-0.9 0.7-0.3 1.4-0.4 0.1 0 0.2 0c1.1 0.2 2.1 0.7 2.8 1.5 0.7 0.8 1.1 1.8 1.1 2.9 0 1.1-0.4 2.1-1.1 2.9-0.7 0.7-1.6 1.2-2.6 1.4zm-3.5-7.6c-0.9 0.9-1.5 2-1.5 3.3 0 1.2 0.6 2.4 1.5 3.2 0.9 0.8 2.1 1.2 3.3 1.1q0.1 0 0.2 0c1.1-0.1 2.1-0.5 2.9-1.3 0.8-0.8 1.2-1.9 1.2-3 0-1.2-0.4-2.3-1.2-3.1-0.8-0.8-1.9-1.3-3.1-1.3q-0.1 0-0.2 0c-1.1 0-2.3 0.4-3.1 1.1zm-1-113.5c0.1 1.1 0.6 2.1 1.4 2.8 0.8 0.8 1.8 1.2 2.9 1.2 0.9 0 1.7-0.2 2.4-0.7q0.2-0.2 0.4-0.4c0.7-0.8 1.1-1.8 1.1-2.9 0-1.1-0.4-2.1-1.1-2.9-0.7-0.8-1.7-1.3-2.8-1.4q0 0 0 0c-2.4 0-4.3 1.9-4.3 4.3zm7.3 2.8c0.8-0.7 1.3-1.7 1.4-2.8q-0.1-0.9-0.4-1.7-0.3-0.8-0.9-1.4-0.6-0.6-1.4-0.9-0.8-0.3-1.7-0.3 0 0 0 0c-1.2-0.2-2.4 0.2-3.3 1-0.9 0.9-1.4 2-1.4 3.3 0 1.2 0.5 2.4 1.4 3.2 0.9 0.8 2.1 1.2 3.3 1.1 0.9-0.1 1.7-0.4 2.4-1q0.3-0.2 0.6-0.5z"/>
		<path id="Layer" fill-rule="evenodd" class="s1" d="m0 522.1l103.9 109.4v-107.8h7.9v127.7l-103.9-110.3v106.2h-7.9zm463.6 0c34.8 0 64.2 28.7 64.2 63.4 0 34.7-29.4 63.4-64.2 63.4-33.3 0-61.7-26.3-64-59h-27.6v61.5l-104-110.3v106.2h-7.9v-125.2l104 109.4v-107.8h7.9v58.5h27.5c1.8-33.3 30.2-60.1 64.1-60.1zm-277.5-2.5l51.7 127.7h-8.1l-16.5-40.7h-54.4l-16.6 40.7h-8zm333.8 65.9c0-31-25.1-56.1-56.3-56.1-31.1 0-56.3 25.1-56.3 56.1 0 30.9 25.2 56 56.3 56 31.2 0 56.3-25.1 56.3-56zm-333.8-45.9l-24.3 59.6h48.4c0 0-24.1-59.6-24.1-59.6z"/>
		<path id="Layer" fill-rule="evenodd" class="s2" d="m1430 516.6l98 102.5v-97.1h14v131l-98-102.3v96.6h-14v-56.9h-28.4c-2.9 33.4-31.3 59.1-65.2 59.1-35.8 0-65.5-28.6-65.5-64.7 0-35.9 29.7-65 65.5-65 32.9 0 60.6 24.6 64.9 56.5h28.7zm-350.9 102.2v-97.1h14v131.1l-97.9-102.3v96.6h-14.1c0 0 0-130.7 0-130.7zm-220.4 28.2h-14.3l-16.2-84.8h-0.3l-40.5 90-40.3-90h-0.4l-16.1 84.8h-14.4l25.5-132.5 45.7 105.3c0 0 45.8-105.3 45.8-105.3zm304.6-127.5c14 0 25.8 7.1 32.5 19.4l-11.2 7.2c-5-8.7-11-13.7-21.7-13.7-11.1 0-20.8 8-20.8 19.5 0 10.8 11.2 15.8 19.7 19.6l8.3 3.7c16.3 7.1 30.2 15.3 30.2 35.2 0 22-17.7 38.8-39.5 38.8-20.2 0-35.2-13-39.2-32.5l13.7-3.8c1.8 12.8 11.6 23.3 25.1 23.3 13.5 0 25.9-10.3 25.9-24.4 0-14.7-11.5-19.7-23.2-25l-7.7-3.3c-14.6-6.7-27.3-14.2-27.3-32.1 0-19.5 16.5-31.9 35.2-31.9zm-485.7 2.1h14v125.4h-14zm551.8 0h14v125.4h-14zm-649.8 0c18.9 0 34.2 2.5 49 15.1 14.3 12.3 20.8 29.1 20.8 47.7 0 18.3-6.6 34.5-20.5 46.8-14.9 13.3-30 15.8-49.6 15.8h-23.3v-125.4zm368.5 0v13h-51.1v37.2h49.6v13h-49.6v49.2h51.1v13h-65.1v-125.4zm439.7 62.9c0-28.7-23-51.9-51.5-51.9-28.5 0-51.5 23.2-51.5 51.9 0 28.6 23 51.8 51.5 51.8 28.5 0 51.5-23.2 51.5-51.8zm-807.8-49.9h-10.2v99.4h10.2c15.3 0 28.2-2.2 39.7-13 10.3-9.6 15.6-22.8 15.6-36.7 0-14.3-5.5-28.1-16.3-37.6-11.5-10.2-24.2-12.1-39-12.1z"/>
	</g>
</svg>