<svg version="1.2" xmlns="http://www.w3.org/2000/svg" viewBox="0 0 1774 445" width="1774" height="445">
	<title>NNOX_BIG-svg</title>
	<style>
		.s0 { fill: #ffffff } 
	</style>
	<g id="Layer">
		<g id="Layer">
			<g id="Layer">
				<path id="Layer" fill-rule="evenodd" class="s0" d="m656.9 288.7q2-1.2 3.9-2.4c7-4.4 13.9-9.4 20.2-15.1 0.3 0.8 0.6 1.7 0.9 2.6 2.1 6.8 2.7 13.8 1.3 20.4-1.3 6.6-4.7 12.7-9.5 18.1-0.6 0.7-1.3 1.3-1.9 2-3.4-7.8-7.7-15.1-12.3-22-0.9-1.3-1.7-2.5-2.6-3.6zm-175.8-3.2c-7.1 4.1-14.2 8.2-21.4 12.1-6.3 3.5-12.7 6.9-19.1 10.2 6.1-4.6 12.1-9.3 18.1-14 13-10.2 25.7-20.8 38.2-31.7 12.2-10.6 24.2-21.5 35.8-32.8q6.4 7 12.9 14.1c-20.7 15.1-42.2 29.2-64.5 42.1zm-22.3-134.7c-6-4.7-12-9.4-18.1-14 6.4 3.3 12.8 6.7 19.1 10.2 7.2 3.9 14.3 8 21.4 12.1 22.2 13 43.7 27.1 64.4 42.2q-6.3 7.2-12.9 14.1c-11.6-11.3-23.6-22.2-35.8-32.8-12.5-10.9-25.3-21.5-38.1-31.8zm100.8 108.6c2.8 3.4 5.6 6.8 8.3 10.2-20.8 11.3-84.6 40.6-153.6 57.9 51.5-20.2 122.8-64.7 138.4-76.1 2.3 2.7 4.6 5.4 6.9 8zm8.3-84.4c-2.7 3.4-5.5 6.8-8.3 10.2q-3.5 4.1-6.9 8.1c-15.7-11.3-87-55.8-138.4-76.1 69 17.3 132.8 46.6 153.6 57.8zm5 47.5c-3.4 2.7-6.8 5.5-10.3 8.2-2.8 2.1-5.6 4.3-8.4 6.4q-7-7.5-14.4-14.7 7.4-7.2 14.4-14.7c2.8 2.1 5.6 4.2 8.4 6.4 3.4 2.7 6.9 5.5 10.3 8.4zm26.9 23.2c1.3 1.2 2.5 2.4 3.8 3.6-1.5 0.9-3 1.9-4.5 2.8-6.7 4.1-13.6 8-20.5 11.8q-5.2-6.1-10.5-12-3.1-3.4-6.3-6.9c2.5-1.8 5.1-3.6 7.6-5.4 4.3-3.1 8.5-6.3 12.7-9.5 6 5.1 11.9 10.4 17.7 15.6zm-7.5 56.8c-1.7 0.6-3.3 1.2-5 1.8-15.4 5.4-31.1 9.9-46.9 13.9-31.7 7.9-64.1 13.4-96.7 17.1-8.1 0.9-16.3 1.7-24.5 2.4q-10.8 0.9-21.6 1.5c7.4-1.8 14.8-3.6 22.2-5.5 16-4.1 32-8.5 47.8-13.4 15.8-4.9 31.5-10 47.1-15.8 15.6-5.8 31-11.9 46.2-18.7 4.8-2.2 9.6-4.4 14.4-6.7 4.8 6.3 9.5 12.6 14 19.1 1 1.5 2 2.9 3 4.3zm-173.1-195.5c8.2 0.7 16.3 1.5 24.5 2.4 32.6 3.6 65 9.2 96.7 17.1 15.9 4 31.5 8.6 46.9 13.9 1.7 0.6 3.3 1.2 5 1.8-1 1.4-2 2.9-3 4.3-4.5 6.5-9.2 12.8-14 19.1-4.8-2.3-9.6-4.5-14.4-6.7-15.2-6.8-30.6-13-46.2-18.7-15.5-5.7-31.3-10.9-47.1-15.8-15.8-4.9-31.8-9.3-47.8-13.4-7.4-1.9-14.8-3.7-22.2-5.5q10.8 0.6 21.6 1.5zm184.3 88.2c-1.3 1.2-2.5 2.4-3.8 3.6-5.7 5.4-11.6 10.7-17.6 15.8-4.2-3.2-8.4-6.4-12.7-9.5-2.6-1.9-5.1-3.7-7.7-5.5 2.2-2.3 4.3-4.6 6.4-6.9q5.4-6 10.5-12c6.9 3.8 13.8 7.7 20.5 11.8 1.5 0.9 3 1.8 4.4 2.7zm11.5 7.4c8.3 5.6 16.3 11.3 23.9 17.5 0.9 0.8 1.8 1.5 2.7 2.3-0.9 0.8-1.8 1.6-2.7 2.3-7.7 6.2-15.7 12-23.9 17.5-2.2-2-4.3-4-6.5-5.9-5.5-4.8-11-9.4-16.6-13.9 5.7-4.5 11.2-9.1 16.6-13.9 2.2-1.9 4.4-3.9 6.5-5.9zm20.3 81.3c-1.1 0.6-2.1 1.2-3.2 1.7-8.8 4.4-17.8 8.4-27 12.1-1.7-2.4-3.5-4.7-5.2-7.1-4.3-5.8-8.8-11.4-13.3-17 6.4-3.2 12.8-6.6 19.1-10.1 2.5-1.4 5.1-2.9 7.6-4.4 6.9 7.1 13.5 14.5 19.7 22.1 0.7 0.9 1.4 1.8 2.3 2.7zm-19.4 58.8c-1.1 0.4-2.3 0.7-3.4 1-15.5 4.1-31.5 7-47.6 9-16.1 2-32.4 3.2-48.7 3.8-32.7 1.2-65.5-0.1-98.2-3.3-8.2-0.8-16.4-1.7-24.5-2.8-3.6-0.4-7.1-0.9-10.7-1.4 6.4-1.7 32.6-3.3 42.8-4 6.3-0.4 12.5-0.9 18.8-1.5 16.5-1.5 33-3.3 49.4-5.7 16.5-2.3 32.8-5.1 49.1-8.6 16.3-3.4 32.4-7.5 48.4-12.5q4.2-1.3 8.4-2.7c5.3 8.4 10.2 17 14.7 25.7 0.6 1 1.1 2.1 1.5 3zm6.1 13.9c0.7 1.7 1.4 3.4 2.1 5.2 1.4 3.7 2.7 7.5 3.8 11.2 0.5 1.8 1.1 3.7 1.5 5.6l0.7 2.8 0.6 2.8c0.2 1.2 0.4 2.3 0.6 3.5q-1.6 0.6-3.3 1.2l-2.7 0.9-2.8 0.8c-1.8 0.5-3.7 1-5.6 1.5-3.8 0.9-7.7 1.7-11.6 2.3-7.8 1.2-15.8 2-23.8 2.4-16 0.8-32.2 0.3-48.4-1.1-16.2-1.4-32.4-3.6-48.5-6.4-32.2-5.7-64-13.8-95.3-23.7q-10.4-3.3-20.7-6.9c7.8-2.3 34 1.2 48.6 2.9 16.5 2 32.9 3.6 49.5 4.7 16.6 1.1 33.2 1.7 49.8 1.7 16.7 0 33.3-0.6 50-2.2 16.6-1.6 33.2-4 49.7-8 2-0.5 3.9-1 5.8-1.2zm-232.6-277.2c31.3-9.9 63.1-18 95.3-23.7 16.1-2.8 32.3-5 48.5-6.4 16.1-1.4 32.4-1.9 48.4-1.1 8 0.4 16 1.1 23.8 2.4 3.9 0.6 7.8 1.4 11.6 2.3 1.9 0.5 3.8 0.9 5.6 1.5l2.8 0.8 2.7 0.9q1.7 0.6 3.3 1.2c-0.2 1.2-0.4 2.3-0.6 3.5l-0.6 2.8-0.7 2.8c-0.4 1.8-1 3.7-1.5 5.6-1.1 3.8-2.4 7.5-3.8 11.2-0.7 1.7-1.4 3.5-2.1 5.2q-3-0.8-6-1.5c-16.4-4-33.1-6.4-49.7-8-16.7-1.6-33.4-2.2-50-2.2-16.6-0.1-33.3 0.6-49.8 1.7-16.6 1.1-33.1 2.7-49.5 4.7-14.5 1.8-40.8 5.2-48.6 2.9 6.9-2.3 13.8-4.6 20.9-6.6zm210.4 51.2q-4.2-1.4-8.4-2.7c-16-4.9-32.1-9-48.4-12.5-16.3-3.4-32.7-6.3-49.1-8.6-16.4-2.4-32.9-4.2-49.4-5.7-6.3-0.6-12.5-1.1-18.8-1.5-10.3-0.7-36.4-2.2-42.8-4 3.6-0.5 7.1-0.9 10.7-1.4 8.2-1.1 16.3-2 24.5-2.8 32.7-3.1 65.5-4.4 98.2-3.3 16.3 0.6 32.6 1.8 48.7 3.8 16.1 2 32.1 4.9 47.6 9 1.1 0.3 2.3 0.7 3.4 1-0.5 1.1-1.1 2.1-1.6 3.2-4.4 8.7-9.4 17.3-14.6 25.5zm35.3 30.1c-0.7 0.9-1.5 1.9-2.2 2.8-6.2 7.7-12.8 15-19.7 22.1-2.5-1.5-5.1-3-7.6-4.4-6.3-3.5-12.7-6.9-19.1-10.1 4.5-5.6 9-11.2 13.3-17 1.8-2.3 3.5-4.7 5.2-7.1 9.2 3.6 18.3 7.7 27 12.1 1.1 0.6 2.1 1.1 3.1 1.6zm12.9 7.4q2.4 1.5 4.8 3c3.3 2.1 6.5 4.4 9.6 6.8 1.5 1.2 3 2.4 4.5 3.7l2.2 1.9 2.1 1.9c0.9 0.8 1.8 1.7 2.6 2.5-0.7 1-1.3 2-2 3l-1.7 2.3-1.8 2.3c-1.2 1.5-2.5 3-3.7 4.5-2.6 3-5.2 5.9-8 8.7-1.3 1.3-2.6 2.6-4 3.9-1.6-1.3-3.2-2.5-4.8-3.8-7.3-5.6-14.9-10.9-22.6-15.8 6.5-6.4 12.8-13.1 18.8-20.2 1.4-1.6 2.7-3.2 4-4.7zm20.3 81.2l1.8 2.3 1.7 2.3c0.7 1 1.4 2 2 3-0.9 0.8-1.7 1.7-2.6 2.5l-2.1 1.9-2.2 1.9c-1.4 1.3-3 2.5-4.5 3.7-3.1 2.3-6.3 4.6-9.6 6.8q-2.4 1.5-4.8 3-2-2.4-3.9-4.8c-5.9-7.1-12.3-13.8-18.8-20.2 7.7-4.9 15.3-10.1 22.6-15.8 1.6-1.2 3.2-2.5 4.8-3.8 1.3 1.3 2.7 2.6 4 3.9 2.8 2.8 5.5 5.7 8 8.7 1.2 1.5 2.5 3 3.6 4.6zm-4.7 90.4c0.1 1 0.2 1.9 0.3 2.8 0.8 7.2-0.1 14.1-2.9 20.3-2.7 6.2-7.3 11.5-13.1 15.8-0.7 0.5-1.5 1-2.3 1.5-1.8-8.3-4.4-16.3-7.5-24q-0.9-2.1-1.8-4.2c1.4-0.5 2.9-1 4.3-1.5 7.8-2.9 15.5-6.3 23-10.7zm-36.3-6.6c-4.4-8.2-9.1-16-14.2-23.7 8.6-3.2 17.1-6.8 25.4-10.8 1.8-0.9 3.7-1.9 5.5-2.8 1 1.6 2.1 3.1 3.1 4.7 2.1 3.3 4.1 6.7 6 10.1 0.9 1.7 1.8 3.4 2.6 5.2l1.2 2.6 1.1 2.6c0.4 1.1 0.9 2.2 1.3 3.3-1 0.6-2 1.3-3 1.9l-2.5 1.5-2.5 1.4c-1.7 1-3.5 1.8-5.2 2.7-3.5 1.7-7.1 3.3-10.8 4.7-1.8 0.7-3.5 1.4-5.3 2q-1.3-2.9-2.7-5.4zm-222.7 46.2c9.9 3.2 19.8 6.2 29.8 9 15.9 4.6 32 8.6 48.3 12.1 16.3 3.4 32.7 6.3 49.3 8.2 16.6 1.9 33.4 3 50.3 2.5 8.4-0.2 16.9-0.9 25.4-2.1 8.2-1.2 16.5-2.9 24.6-5.6 0 1-0.1 1.9-0.2 2.8-0.8 7.1-3.1 13.8-7.1 19.2-4 5.5-9.6 9.7-16.1 12.7-3.2 1.4-6.7 2.6-10.3 3.6-3.7 1-7.4 1.6-11.2 2.1l-2.9 0.3-2.9 0.2c-1.9 0.2-3.9 0.2-5.8 0.3-3.9 0.1-7.9 0.1-11.8-0.1-7.9-0.3-15.9-1.2-23.8-2.5-15.9-2.5-31.7-6.4-47.2-11.1-15.6-4.7-30.9-10.2-46.1-16.3-30.3-12.3-59.8-26.8-88.3-43-1.8-1-3.6-2.1-5.4-3.1 14.2-1.1 45.2 8.9 51.4 10.8zm-173.6-81.5c-7.2-3.9-14.3-8-21.4-12.1-22.2-13-43.7-27.1-64.4-42.2q6.3-7.2 12.9-14.1c11.6 11.3 23.6 22.2 35.8 32.8 12.5 10.9 25.2 21.4 38.2 31.7 6 4.7 12 9.4 18.1 14-6.5-3.3-12.8-6.7-19.2-10.1zm-37-115.2c-12.2 10.6-24.2 21.5-35.8 32.8q-6.4-7.1-12.9-14.1c20.7-15.1 42.2-29.2 64.4-42.2 7.1-4.1 14.2-8.2 21.4-12.1 6.3-3.5 12.7-6.9 19.1-10.2-6.1 4.6-12.1 9.3-18.1 14q-19.5 15.4-38.1 31.8zm-65.8 47.8c-3.5-2.7-6.9-5.4-10.3-8.2 3.4-2.7 6.8-5.5 10.3-8.2 2.8-2.1 5.6-4.3 8.4-6.4q7.1 7.5 14.4 14.7-7.3 7.2-14.4 14.7c-2.8-2.1-5.6-4.2-8.4-6.6zm148.3-113.1c-51.5 20.2-122.8 64.7-138.4 76.1q-3.4-4.1-6.9-8.1c-2.8-3.4-5.6-6.8-8.3-10.2 20.8-11.3 84.6-40.6 153.6-57.8zm-153.6 152.4c2.7-3.4 5.5-6.8 8.3-10.2q3.5-4.1 6.9-8.1c15.7 11.3 87 55.8 138.4 76.1-69-17.3-132.8-46.6-153.6-57.8zm-10.6-5.6c-6.9-3.8-13.8-7.7-20.5-11.8-1.5-0.9-3-1.9-4.5-2.8 1.3-1.2 2.5-2.4 3.8-3.6 5.7-5.4 11.6-10.7 17.6-15.8 4.2 3.2 8.4 6.4 12.7 9.5 2.6 1.9 5.1 3.7 7.7 5.5-2.2 2.3-4.3 4.6-6.4 6.9-3.6 4-7 8-10.4 12.1zm-36.6-22c-8.3-5.6-16.3-11.3-23.9-17.5-0.9-0.8-1.8-1.5-2.7-2.3 0.9-0.8 1.8-1.6 2.7-2.3 7.7-6.2 15.7-12 23.9-17.5 2.2 2 4.3 4 6.5 5.9 5.5 4.8 11 9.4 16.6 13.9-5.7 4.5-11.2 9.1-16.6 13.9-2.1 2-4.3 3.9-6.5 5.9zm36.5-61.2c3.4 4.1 6.9 8.1 10.4 12q3.1 3.4 6.3 6.9c-2.5 1.8-5.1 3.6-7.6 5.4-4.3 3.1-8.5 6.3-12.7 9.5-6-5.2-11.9-10.4-17.6-15.8-1.3-1.2-2.5-2.4-3.8-3.6 1.5-0.9 3-1.9 4.5-2.8 6.7-4.1 13.6-8 20.5-11.6zm-13.7-38.7c1.7-0.6 3.3-1.2 5-1.8 15.4-5.4 31.1-9.9 46.9-13.9 31.7-7.9 64.1-13.4 96.7-17.1 8.1-0.9 16.3-1.7 24.5-2.4q10.8-0.9 21.6-1.5c-7.4 1.8-14.8 3.6-22.2 5.5-16 4.1-32 8.5-47.8 13.4-15.8 4.9-31.5 10-47.1 15.8-15.6 5.8-31 11.9-46.2 18.7-4.8 2.2-9.6 4.4-14.4 6.7-4.8-6.3-9.5-12.6-14-19.1-1-1.5-2-2.9-3-4.3zm173.1 195.6c-8.2-0.7-16.3-1.5-24.5-2.4-32.6-3.6-65-9.2-96.7-17.1-15.9-4-31.5-8.6-46.9-13.9-1.7-0.6-3.3-1.2-5-1.8 1-1.4 2-2.9 3-4.3 4.5-6.5 9.2-12.8 14-19.1 4.8 2.3 9.6 4.5 14.4 6.7 15.2 6.8 30.6 13 46.2 18.7 15.5 5.7 31.3 10.9 47.1 15.8 15.8 4.9 31.8 9.3 47.8 13.4 7.4 1.9 14.8 3.7 22.2 5.5-7.2-0.4-14.4-1-21.6-1.5zm25.4 12.9c-8.2 1.1-16.3 2-24.5 2.8-32.7 3.1-65.5 4.4-98.2 3.3-16.3-0.6-32.6-1.8-48.7-3.8-16.1-2-32.1-4.9-47.6-9-1.1-0.4-2.3-0.7-3.4-1 0.5-1.1 1.1-2.1 1.6-3.2 4.5-8.8 9.4-17.3 14.7-25.7q4.2 1.3 8.4 2.7c16 4.9 32.1 9 48.4 12.5 16.3 3.4 32.7 6.3 49.1 8.6 16.4 2.4 32.9 4.2 49.4 5.7 6.3 0.6 12.5 1.1 18.8 1.5 10.3 0.7 36.4 2.2 42.8 4-3.5 0.5-7.1 1-10.8 1.6zm-241.3-66.7c0.7-0.9 1.5-1.9 2.2-2.8 6.2-7.7 12.8-15 19.7-22.1 2.5 1.5 5.1 3 7.6 4.4 6.3 3.5 12.7 6.9 19.1 10.1-4.5 5.6-9 11.2-13.3 17-1.8 2.3-3.5 4.7-5.2 7.1-9.2-3.6-18.2-7.7-27-12.1-1.1-0.5-2.1-1.1-3.1-1.6zm-13-7.3q-2.4-1.5-4.8-3c-3.3-2.1-6.5-4.4-9.6-6.8-1.5-1.2-3-2.4-4.5-3.7l-2.2-1.9-2.1-1.9c-0.9-0.8-1.8-1.7-2.6-2.5 0.7-1 1.3-2 2-3l1.7-2.3 1.8-2.3c1.2-1.5 2.5-3 3.7-4.5 2.6-3 5.2-5.9 8-8.7 1.3-1.3 2.6-2.6 4-3.9 1.6 1.3 3.2 2.5 4.8 3.8 7.3 5.6 14.9 10.9 22.6 15.8-6.5 6.4-12.8 13.1-18.8 20.2-1.3 1.5-2.6 3.1-4 4.7zm-20.2-81.3l-1.8-2.3-1.7-2.3c-0.7-1-1.4-2-2-3 0.9-0.8 1.7-1.7 2.6-2.5l2.1-1.9 2.2-1.9c1.4-1.3 3-2.5 4.5-3.7 3.1-2.3 6.3-4.6 9.6-6.8q2.4-1.5 4.8-3 1.9 2.4 3.9 4.8c5.9 7.1 12.3 13.8 18.8 20.2-7.7 4.9-15.3 10.1-22.6 15.8-1.6 1.2-3.2 2.5-4.8 3.8-1.3-1.2-2.7-2.6-4-3.9-2.8-2.8-5.5-5.7-8-8.7-1.2-1.5-2.5-3-3.6-4.6zm63.2-48.3c1.7 2.4 3.5 4.7 5.2 7.1 4.3 5.8 8.8 11.4 13.3 17-6.4 3.2-12.8 6.6-19.1 10.1-2.5 1.4-5.1 2.9-7.6 4.4-6.9-7.1-13.5-14.5-19.7-22.1-0.7-0.9-1.5-1.9-2.2-2.8 1.1-0.6 2.1-1.2 3.2-1.7 8.7-4.4 17.7-8.5 26.9-12zm-10.9-45c1.1-0.4 2.3-0.7 3.4-1 15.5-4.1 31.5-7 47.6-9 16.1-2 32.4-3.2 48.7-3.8 32.7-1.2 65.5 0.1 98.2 3.3 8.2 0.8 16.4 1.7 24.5 2.8 3.6 0.4 7.1 0.9 10.7 1.4-6.4 1.7-32.6 3.3-42.8 4-6.3 0.4-12.5 0.9-18.8 1.5-16.5 1.5-33 3.3-49.4 5.7-16.5 2.3-32.8 5.1-49.1 8.6-16.3 3.4-32.4 7.5-48.4 12.5q-4.2 1.3-8.4 2.7c-5.3-8.4-10.2-17-14.7-25.7-0.5-1.1-1-2.2-1.5-3zm-6-13.8c-0.7-1.7-1.4-3.4-2.1-5.2-1.4-3.7-2.7-7.5-3.8-11.2-0.5-1.8-1.1-3.7-1.5-5.6l-0.7-2.8-0.6-2.8c-0.2-1.2-0.4-2.3-0.6-3.5q1.6-0.6 3.3-1.2l2.7-1 2.8-0.8c1.8-0.5 3.7-1 5.6-1.5 3.8-0.9 7.7-1.7 11.6-2.3 7.8-1.2 15.8-2 23.8-2.4 16-0.8 32.2-0.3 48.4 1.1 16.2 1.4 32.4 3.6 48.5 6.4 32.2 5.7 64 13.8 95.3 23.7q10.4 3.3 20.7 6.9c-7.8 2.3-34-1.2-48.6-2.9-16.5-2-32.9-3.6-49.5-4.7-16.6-1.1-33.2-1.7-49.8-1.7-16.7 0-33.3 0.6-50 2.2-16.6 1.6-33.2 4-49.7 8-2 0.4-4 1-5.8 1.3zm232.5 277c-31.3 9.9-63.1 18-95.3 23.7-16.1 2.8-32.3 5-48.5 6.4-16.1 1.4-32.4 1.9-48.4 1.1-8-0.4-16-1.1-23.8-2.4-3.9-0.6-7.8-1.4-11.6-2.3-1.9-0.5-3.8-0.9-5.6-1.5l-2.8-0.8-2.7-0.9q-1.7-0.6-3.3-1.2c0.2-1.2 0.4-2.3 0.6-3.5l0.6-2.8 0.7-2.8c0.4-1.8 1-3.7 1.5-5.6 1.1-3.8 2.4-7.5 3.8-11.2 0.7-1.7 1.4-3.5 2.1-5.2q3 0.8 6 1.5c16.4 4 33.1 6.4 49.7 8 16.7 1.6 33.4 2.2 50 2.2 16.6 0.1 33.3-0.6 49.8-1.7 16.6-1.1 33.1-2.7 49.5-4.7 14.5-1.8 40.8-5.2 48.6-2.9-6.9 2.4-13.8 4.7-20.9 6.6zm-256.6-33.6c-1.8-0.9-3.5-1.8-5.2-2.7l-2.5-1.4-2.5-1.5c-1-0.6-2-1.3-3-1.9 0.4-1.1 0.8-2.2 1.3-3.3l1.1-2.6 1.2-2.6c0.8-1.8 1.7-3.5 2.6-5.2 1.9-3.4 3.9-6.8 6-10.1 1-1.6 2-3.1 3.1-4.7 1.8 1 3.7 1.9 5.5 2.8 8.3 4 16.8 7.6 25.4 10.8-5 7.7-9.8 15.5-14.2 23.7-0.9 1.8-1.9 3.7-2.8 5.5-1.8-0.7-3.6-1.3-5.3-2-3.6-1.5-7.3-3-10.7-4.8zm-17.4 8.2c7.4 4.3 15.1 7.7 22.9 10.6 1.4 0.5 2.9 1 4.3 1.5q-0.9 2.1-1.8 4.2c-3.1 7.7-5.8 15.7-7.5 24-0.8-0.5-1.6-1-2.3-1.5-5.8-4.3-10.4-9.6-13.1-15.8-2.7-6.2-3.6-13.1-2.9-20.3 0.1-0.9 0.2-1.9 0.4-2.7zm-17.5-68.9c6.3 5.7 13.2 10.6 20.2 15.1q1.9 1.2 3.9 2.4c-0.9 1.2-1.8 2.4-2.6 3.7-4.6 6.9-8.9 14.2-12.3 22-0.7-0.6-1.3-1.3-1.9-2-4.7-5.3-8.1-11.5-9.5-18.1-1.5-6.6-0.9-13.6 1.3-20.4q0.4-1.2 0.9-2.7zm13.8-51.7c1.1 1 2.2 2.1 3.3 3.1-1.1 1-2.2 2-3.3 3.1-5.9 5.8-11.6 12.1-16.6 19-0.5-0.8-0.9-1.6-1.4-2.4-3.6-6.2-5.6-12.9-5.6-19.7 0-6.8 2-13.5 5.6-19.7 0.4-0.8 0.9-1.6 1.4-2.4 5 6.9 10.7 13.1 16.6 19zm10.3-63.2q-2 1.2-3.9 2.4c-7 4.5-13.9 9.4-20.2 15-0.3-0.8-0.6-1.7-0.9-2.6-2.1-6.8-2.7-13.8-1.3-20.4 1.3-6.6 4.7-12.7 9.5-18.1 0.6-0.7 1.3-1.3 1.9-2 3.4 7.8 7.7 15.1 12.3 22 0.8 1.3 1.7 2.5 2.6 3.7zm-6.7-51.1c-0.1-1-0.2-1.9-0.3-2.8-0.8-7.2 0.1-14.1 2.9-20.3 2.7-6.2 7.3-11.5 13.1-15.8 0.7-0.5 1.5-1 2.3-1.5 1.8 8.3 4.4 16.3 7.5 24q0.9 2.1 1.8 4.2c-1.4 0.5-2.9 1-4.3 1.5-7.8 2.9-15.6 6.3-23 10.7zm36.2 6.7c4.4 8.2 9.1 16 14.2 23.7-8.6 3.2-17.1 6.8-25.4 10.8-1.8 0.9-3.7 1.9-5.5 2.8-1-1.6-2.1-3.1-3.1-4.7-2.1-3.3-4.1-6.7-6-10.1-0.9-1.7-1.8-3.4-2.6-5.2l-1.2-2.6-1.1-2.6c-0.4-1.1-0.9-2.2-1.3-3.3 1-0.6 2-1.3 3-1.9l2.5-1.5 2.5-1.4c1.7-1 3.5-1.8 5.2-2.7 3.5-1.7 7.1-3.3 10.8-4.7 1.8-0.7 3.5-1.4 5.3-2q1.5 2.7 2.7 5.4zm222.9-46.2c-9.9-3.2-19.8-6.2-29.8-9-15.9-4.6-32-8.6-48.3-12.1-16.3-3.4-32.7-6.3-49.3-8.2-16.6-1.9-33.4-3-50.3-2.5-8.4 0.2-16.9 0.9-25.4 2.1-8.2 1.2-16.5 2.9-24.6 5.6 0-1 0.1-1.9 0.2-2.8 0.8-7.1 3.1-13.8 7.1-19.2 4-5.5 9.6-9.7 16.1-12.7 3.3-1.5 6.8-2.7 10.4-3.7 3.6-0.9 7.4-1.6 11.1-2.1l2.9-0.3 2.9-0.2c1.9-0.2 3.9-0.2 5.8-0.3 3.9-0.1 7.9-0.1 11.7 0.2 7.9 0.3 15.9 1.2 23.8 2.5 15.9 2.5 31.7 6.4 47.2 11.1 15.6 4.7 30.9 10.2 46.1 16.3 30.3 12.3 59.8 26.8 88.3 43 1.8 1 3.6 2.1 5.4 3.1-14.2 1.1-45.2-9-51.3-10.8zm-42.1 349.1c-15.2 6.1-30.5 11.6-46.1 16.3-15.6 4.7-31.4 8.6-47.2 11.1-8 1.2-15.9 2.1-23.8 2.5-4 0.2-7.9 0.2-11.8 0.1-1.9-0.1-3.9-0.1-5.8-0.3l-2.9-0.2-2.9-0.3c-3.8-0.5-7.6-1.1-11.2-2.1-3.6-0.9-7-2.1-10.3-3.6-6.6-3-12.2-7.2-16.1-12.7-4-5.4-6.3-12.1-7.1-19.2-0.1-1-0.1-1.9-0.2-2.8 8.1 2.7 16.4 4.4 24.6 5.6 8.4 1.2 16.9 1.8 25.4 2.1 16.9 0.5 33.7-0.6 50.3-2.5 16.6-1.9 33-4.8 49.3-8.2 16.2-3.5 32.3-7.6 48.3-12.1 10-2.8 19.9-5.8 29.8-9 5.9-1.9 36.9-11.9 51.1-10.8-1.8 1-3.6 2.1-5.4 3.1-28.5 16.2-58 30.7-88 43zm337.7-381c-16.9-0.5-33.7 0.6-50.3 2.5-16.6 1.9-33 4.8-49.3 8.2-16.2 3.5-32.3 7.6-48.3 12.1-10 2.8-19.9 5.8-29.8 9-5.9 1.9-36.9 11.9-51.1 10.8 1.8-1 3.6-2.1 5.4-3.1 28.5-16.2 58-30.8 88.3-43 15.2-6.1 30.5-11.6 46.1-16.3 15.6-4.7 31.4-8.6 47.2-11.1 7.9-1.2 15.9-2.2 23.7-2.5 4-0.2 7.9-0.2 11.8-0.1 1.9 0.1 3.9 0.1 5.8 0.3l2.9 0.2 2.9 0.3c3.8 0.5 7.6 1.1 11.2 2.1 3.6 1 7.1 2.2 10.3 3.7 6.6 3 12.2 7.2 16.1 12.7 4 5.4 6.3 12.1 7.1 19.2 0.1 1 0.1 1.9 0.2 2.8-8.1-2.7-16.4-4.4-24.6-5.6-8.5-1.3-16.9-1.9-25.6-2.2zm69.4 82.1l2.5 1.4 2.5 1.5c1 0.6 2 1.2 3 1.9-0.4 1.1-0.8 2.2-1.3 3.3l-1.1 2.6-1.2 2.6c-0.8 1.8-1.7 3.5-2.6 5.2-1.9 3.4-3.9 6.8-6 10.1-1 1.6-2 3.1-3.1 4.7-1.8-1-3.7-1.9-5.5-2.8-8.3-4-16.8-7.6-25.4-10.8 5-7.7 9.8-15.6 14.2-23.7 0.9-1.8 1.9-3.7 2.8-5.5 1.8 0.7 3.6 1.3 5.3 2 3.7 1.5 7.3 3 10.8 4.7 1.7 0.9 3.5 1.7 5.1 2.8zm12.2-10.8c-7.4-4.3-15.1-7.7-22.9-10.6-1.4-0.5-2.9-1-4.3-1.5q0.9-2.1 1.8-4.2c3.1-7.7 5.8-15.7 7.5-24 0.8 0.5 1.6 1 2.3 1.5 5.8 4.3 10.4 9.6 13.1 15.8 2.7 6.2 3.6 13.1 2.9 20.3-0.1 0.9-0.2 1.8-0.4 2.7zm17.5 68.8c-6.3-5.7-13.2-10.6-20.2-15.1-1.3-0.9-2.6-1.6-3.9-2.4 0.9-1.2 1.8-2.4 2.6-3.7 4.6-6.9 8.9-14.2 12.3-22 0.7 0.6 1.3 1.3 1.9 2 4.7 5.3 8.1 11.5 9.5 18.1 1.5 6.6 0.9 13.6-1.3 20.4q-0.4 1.3-0.9 2.7zm2.8 70.8c-5-7-10.7-13.2-16.6-19-1.1-1-2.2-2.1-3.3-3.1 1.1-1 2.2-2 3.3-3.1 5.9-5.8 11.6-12.1 16.6-19 0.5 0.8 0.9 1.6 1.4 2.4 3.6 6.2 5.6 12.9 5.6 19.7 0 6.7-2 13.5-5.6 19.7-0.4 0.8-0.9 1.6-1.4 2.4zm281.3 32.2l-87-81.1v81.1h-29.6v-108.7h41.1l87 81.1v-81.1h29.6v108.7zm199.9-16.8h-93.5l-11.8 16.8h-35.2l76.1-108.7h35.2l76.2 108.7h-35.2zm-46.9-66.8l-30 42.9h60.1zm228.7 83.6l-87-81.1v81.1h-29.6v-108.7h41.1l87 81.1v-81.1h29.6v108.7zm160.4 3c-45.2 0-64.3-8.8-74.7-19.2-10.1-10.1-14.4-22.9-14.4-38.2 0-15.3 4.3-28.1 14.4-38.2 10.4-10.3 29.5-19.2 74.7-19.2 45.2 0 64.3 8.8 74.7 19.2 10.1 10.1 14.4 22.9 14.4 38.2 0 15.3-4.3 28.1-14.4 38.2-10.4 10.4-29.5 19.2-74.7 19.2zm49.9-79.4c-6.2-6.2-19.4-10.9-49.9-10.9-30.5 0-43.6 4.6-49.9 10.9-4.6 4.6-8.1 10.6-8.1 22.1 0 11.5 3.5 17.5 8.1 22.1 6.2 6.2 19.4 10.9 49.9 10.9 30.5 0 43.6-4.6 49.9-10.9 4.6-4.6 8.1-10.6 8.1-22.1 0-11.5-3.5-17.6-8.1-22.1zm216.3 76.5h-43.4l-40.8-35.5-40.8 35.5h-43.4l62.5-54.4-62.5-54.4h43.5l40.8 35.5 40.8-35.5h43.4l-62.5 54.4z"/>
			</g>
		</g>
	</g>
</svg>