<svg version="1.2" baseProfile="tiny-ps" xmlns="http://www.w3.org/2000/svg" viewBox="0 0 1085 969" width="1085" height="969">
	<title>NORMA-Group-Annual-Report-2020-1-pdf-svg</title>
	<defs>
		<clipPath clipPathUnits="userSpaceOnUse" id="cp1">
			<path d="M-27562.5 -1528.65L5821.88 -1528.65L5821.88 22072.21L-27562.5 22072.21L-27562.5 -1528.65Z" />
		</clipPath>
		<radialGradient id="grd1" gradientUnits="userSpaceOnUse"  cx="597.223" cy="393.107" r="358.149">
			<stop offset="0" stop-color="#ffffff"  />
			<stop offset="0.25" stop-color="#ffffff"  />
			<stop offset="0.5" stop-color="#ffffff"  />
			<stop offset="0.76" stop-color="#ffffff"  />
			<stop offset="1" stop-color="#ffffff"  />
		</radialGradient>
	</defs>
	<style>
		tspan { white-space:pre }
		.shp0 { fill: #ffffff } 
		.shp1 { fill: url(#grd1) } 
	</style>
	<g id="Clip-Path: Page 1" clip-path="url(#cp1)">
		<g id="Page 1">
			<path id="Path 9" fill-rule="evenodd" class="shp0" d="M2860.5 1391.44L3237.17 1391.44C3366.62 1391.44 3402.11 1446.92 3380.3 1544.81C3361.47 1629.23 3300.21 1694.62 3170.75 1694.62L2975.28 1694.62L2944.76 1831.55L2762.17 1831.55L2860.5 1391.44ZM2999.27 1587.42L3117.03 1587.42C3163.02 1587.42 3183.64 1573.74 3190.58 1541.84C3198.11 1508.55 3183.64 1494.88 3137.65 1494.88L3019.89 1494.88L2999.27 1587.42ZM322.57 551.24C331.69 572.84 344.18 592.65 359.45 610.09C-102.46 1028.41 -357.8 1637.35 -324.89 2268.89L-393.29 2268.89C-426.39 1613.97 -159.16 982.83 322.57 551.24ZM2659.48 196.73L2659.48 272.03C2033.03 -25.21 1299.13 7.88 703.8 357.04C703.4 356.25 702.81 355.65 702.21 354.86C696.86 346.14 690.71 337.82 684.17 329.89C683.38 329.1 682.39 328.11 681.6 327.12C674.46 319.19 667.12 311.86 659 304.93C659 304.93 658.8 304.73 658.6 304.53C1266.02 -56.52 2015.38 -97.14 2659.48 196.73Z" />
			<path id="Path 9" class="shp1" d="M306.12 468.8C306.12 498.13 312.07 525.87 322.57 551.24C322.77 551.24 322.77 551.04 322.97 551.04C331.69 572.64 344.38 592.46 359.45 609.89L359.45 610.09C398.7 654.88 456.39 683.41 520.82 683.41C639.17 683.41 735.32 587.3 735.32 468.8C735.32 426.79 723.03 387.95 702.21 354.86C696.66 346.14 690.71 337.82 683.97 330.09C683.18 329.1 682.39 328.11 681.6 327.12C674.46 319.39 667.12 311.86 659 305.12C621.73 273.42 573.55 254.39 520.82 254.39C402.07 254.39 306.12 350.5 306.12 468.8Z" />
		</g>
	</g>
</svg>