<svg version="1.2" xmlns="http://www.w3.org/2000/svg" viewBox="0 0 1522 171" width="1522" height="171">
	<title>logo (34)-svg</title>
	<style>
		.s0 { fill: #ffffff } 
		.s1 { fill: #0099ff } 
	</style>
	<g id="Layer">
		<path id="Layer" fill-rule="evenodd" class="s0" d="m0 4.1h30l70.2 107.1v-107.1h31.2v162.8h-30l-70.2-106.8v106.8h-31.2zm222.6 39.3q4.2 0 8.4 0.5 4.2 0.6 8.3 1.6 4.1 1.1 8 2.7 3.9 1.6 7.6 3.7 15.1 8.5 23.6 23.1 2.1 3.6 3.7 7.4 1.6 3.8 2.7 7.8 1.1 4 1.6 8.1 0.5 4.2 0.5 8.3 0 4.2-0.5 8.3-0.6 4.2-1.6 8.2-1.1 4-2.7 7.9-1.6 3.9-3.7 7.5-8.6 14.8-23.3 23.1-14.7 8.4-32.5 8.4-26.1 0-44.6-18.4-18.4-18.4-18.4-44.8 0-28.2 20.8-47 18.3-16.4 42.1-16.4zm0.5 28.4q-14.2 0-23.6 9.8-9.5 9.8-9.5 25.1 0 15.7 9.4 25.5 9.3 9.7 23.6 9.7 14.3 0 23.8-9.9 9.5-9.8 9.5-25.3 0-15.5-9.3-25.2-9.4-9.7-23.9-9.7zm88.6-25.3h30.4v13.8q7.8-8.5 17.4-12.7 9.5-4.2 20.8-4.2 11.4 0 20.6 5.5 9.1 5.6 14.7 16.2 7.2-10.6 17.8-16.2 10.6-5.5 23.1-5.5 12.9 0 22.7 6 9.9 5.9 14.2 15.6 4.3 9.6 4.3 31.3v70.6h-30.7v-61.1q0-20.5-5.2-27.7-5.1-7.3-15.3-7.3-1.9 0-3.8 0.3-1.8 0.3-3.6 0.8-1.8 0.6-3.5 1.4-1.6 0.9-3.2 2-6.2 4.4-9.2 12.2-3 7.8-3 25.1v54.3h-30.7v-58.3q0-16.2-2.4-23.4-2.4-7.3-7.2-10.8-4.8-3.6-11.6-3.6-1.9 0-3.7 0.3-1.8 0.3-3.6 0.9-1.7 0.5-3.4 1.4-1.6 0.8-3.1 1.9-6.2 4.5-9.3 12.6-3.1 8.1-3.1 25.4v53.6h-30.4zm304.6 0h30.4v120.4h-30.4v-12.7q-8.9 8.4-17.9 12.1-9 3.7-19.5 3.7-23.5 0-40.6-18.1-17.2-18.1-17.2-45 0-27.9 16.6-45.7 16.6-17.8 40.4-17.8 2.6 0 5.2 0.2 2.6 0.3 5.2 0.8 2.6 0.5 5.1 1.3 2.5 0.8 5 1.8 9.5 4.1 17.7 12.3zm-32 24.8q-14.2 0-23.5 9.9-9.3 9.9-9.4 25.4 0 15.6 9.6 25.7 9.5 10 23.4 10 14.3 0 23.8-9.9 9.4-9.9 9.4-25.9 0-15.7-9.4-25.5-9.5-9.7-23.9-9.7zm182.8-71.3h30.5v166.9h-30.5v-12.7q-8.9 8.4-17.9 12.1-8.9 3.7-19.4 3.7-23.5 0-40.7-18.1-17.1-18.1-17.1-45 0-27.9 16.6-45.7 16.6-17.8 40.3-17.8 2.6 0 5.3 0.2 2.6 0.3 5.2 0.8 2.6 0.5 5.1 1.3 2.5 0.8 4.9 1.8 9.6 4.1 17.7 12.3zm-32 71.2q-14.1 0-23.5 9.9-9.3 10-9.3 25.5 0 15.6 9.5 25.6 9.5 10.1 23.4 10.1 14.4 0 23.8-9.9 9.5-9.9 9.5-26 0-15.7-9.5-25.4-9.4-9.8-23.9-9.8zm161-67.1h81.5v30.2h-50.4v29.5h50.4v29.8h-50.4v73.3h-31.1zm162.9 39.3q4.3-0.1 8.5 0.5 4.2 0.5 8.3 1.6 4 1.1 8 2.7 3.9 1.6 7.5 3.7 15.2 8.5 23.6 23.1 2.1 3.6 3.7 7.4 1.6 3.8 2.7 7.8 1.1 4 1.6 8.1 0.5 4.1 0.5 8.3 0 4.1-0.5 8.3-0.5 4.1-1.6 8.2-1.1 4-2.7 7.9-1.6 3.8-3.7 7.4-8.5 14.9-23.3 23.2-14.7 8.4-32.4 8.4-26.2 0-44.6-18.5-18.5-18.4-18.5-44.7 0-28.2 20.9-47.1 18.3-16.3 42-16.3zm0.5 28.4q-14.2 0-23.6 9.8-9.4 9.8-9.4 25.1 0 15.7 9.3 25.4 9.3 9.8 23.6 9.8 14.3 0 23.8-9.9 9.5-9.8 9.5-25.3 0-15.5-9.3-25.2-9.3-9.7-23.9-9.7zm145.8-28.4q17.2 0 32.3 8.5 15.1 8.5 23.6 23.1 2.1 3.6 3.7 7.4 1.6 3.8 2.7 7.8 1.1 4 1.6 8.1 0.5 4.1 0.5 8.3 0 4.1-0.5 8.3-0.5 4.1-1.6 8.2-1.1 4-2.7 7.9-1.6 3.8-3.7 7.4-2.1 3.7-4.6 7-2.5 3.3-5.5 6.2-2.9 2.9-6.2 5.5-3.4 2.5-7 4.5-14.7 8.4-32.5 8.4-26.1 0-44.5-18.5-18.5-18.4-18.5-44.7 0-28.2 20.9-47.1 18.3-16.3 42-16.3zm0.5 28.4q-14.2 0-23.6 9.8-9.4 9.8-9.4 25.1-0.1 15.7 9.3 25.4 9.3 9.8 23.6 9.8 14.3 0 23.8-9.9 9.5-9.8 9.5-25.3 0-15.5-9.3-25.2-9.3-9.7-23.9-9.7zm178.4-71.8h30.5v166.9h-30.5v-12.7q-8.9 8.4-17.9 12.1-9 3.7-19.4 3.7-23.6 0-40.7-18.1-17.2-18.1-17.2-45 0-27.9 16.6-45.7 16.6-17.8 40.4-17.8 2.6-0.1 5.2 0.2 2.7 0.2 5.2 0.8 2.6 0.5 5.1 1.3 2.5 0.7 5 1.8 9.6 4.1 17.7 12.2zm-32 71.3q-14.2 0-23.5 9.9-9.3 9.9-9.3 25.4 0 15.6 9.5 25.7 9.5 10.1 23.4 10.1 14.3 0 23.8-9.9 9.4-9.9 9.4-26 0-15.7-9.4-25.4-9.5-9.8-23.9-9.8zm167.6-7.9l-18.9 18.7q-11.5-11.3-20.9-11.3-5.1 0-8 2.1-2.9 2.2-2.9 5.4 0 2.4 1.9 4.5 1.8 2 9 5.6l11.2 5.5q17.6 8.6 24.2 17.6 6.6 9 6.6 21 0 16.1-11.9 26.8-11.9 10.7-31.8 10.7-26.6 0-42.4-20.5l18.7-20.3q1.3 1.5 2.8 2.9 1.4 1.4 3 2.7 1.6 1.3 3.3 2.4 1.7 1.1 3.5 2 7.2 3.8 12.7 3.8 6.1 0 9.7-2.8 3.7-2.9 3.7-6.7 0-7-13.3-13.6l-10.2-5.1q-29.5-14.7-29.5-36.8 0-14.3 11.1-24.4 11.1-10.2 28.4-10.2 2.9 0 5.8 0.3 2.8 0.4 5.7 1 2.8 0.7 5.5 1.6 2.7 1 5.3 2.3 10.4 5.1 17.7 14.8z"/>
		<path id="Layer" fill-rule="evenodd" class="s1" d="m292.2 55.9c-3.5 3.5-8.3 5.5-13.3 5.5-5 0-9.8-2-13.4-5.5-3.5-3.6-5.5-8.4-5.5-13.4 0-5 2-9.8 5.5-13.4 3.6-3.5 8.4-5.5 13.4-5.5 5 0 9.8 2 13.3 5.5 3.6 3.6 5.6 8.4 5.6 13.4 0 5-2 9.8-5.6 13.4zm-7.3-19.3c-1.6-1.6-3.8-2.4-6-2.4-2.3 0-4.4 0.8-6 2.4-1.6 1.5-2.5 3.7-2.6 5.9 0 2.3 0.8 4.5 2.5 6.2 1.6 1.6 3.8 2.5 6.1 2.5 2.3 0 4.5-0.9 6.1-2.5 1.6-1.7 2.5-3.9 2.4-6.2 0-2.2-1-4.4-2.5-5.9z"/>
	</g>
</svg>