<svg version="1.2" xmlns="http://www.w3.org/2000/svg" viewBox="0 0 1693 791" width="1693" height="791">
	<title>inotivco-svg</title>
	<style>
		.s0 { fill: #968b83 } 
		.s1 { fill: #ff9015 } 
	</style>
	<path id="Layer" fill-rule="evenodd" class="s0" d="m7 482.4v-229.5c0-21.7 13-32.1 33.9-32.1c20.8 0 33 10.4 33 32.1v215.6c0 25.2 6.9 33.9 23.5 34.8c13.9 2.6 20.8 18.2 19.9 32.1c-1.7 14.8-11.3 28.7-38.2 28.7c-44.3 0-72.1-27.8-72.1-81.7zm432-98.2c0-75.6-38.3-111.3-100.9-111.3c-62.6 0-100.8 34.8-100.8 111.3v146.9c0 20.9-15.6 33-33.9 33c-19.1 0-33-10.4-33-33v-146.9c0-118.2 67.8-171.2 168.6-171.2c100.8 0 168.6 53 168.6 171.2v146.9c0 21.7-14.7 33-33 33c-19.1 0-33.9-10.4-33.9-33v-146.9zm558.9-352.9c0-20 15.7-31.3 32.2-31.3c16.5 0 33 10.4 33 31.3v75.6h68.7c21.7 0 33 15.7 33 32.2c0 15.6-11.3 32.1-33 32.1h-68.7v231.3c0 74.7 29.6 99 86.9 99c20 0 29.6 16.6 29.6 32.2c0 16.5-8.7 32.2-33 32.2c-105.2 0-147.8-46.1-147.8-162.6v-372zm225.1 451.1v-229.5c0-21.7 13.1-32.1 33.9-32.1c20.9 0 33 10.4 33 32.1v215.6c0 25.2 7 33.9 23.5 34.8c13.9 2.6 20.9 18.2 20 32.1c-1.7 14.8-11.3 28.7-38.2 28.7c-43.5 0-72.2-27.8-72.2-81.7zm405.1-243.4c6.1-12.1 16.5-17.3 27.8-17.3c21.7 0 44.3 19.1 31.3 44.3l-133 274.7c-8.7 16.5-20 23.4-35.6 23.4c-17.4 0-28.7-6.9-37.4-23.4l-133.9-273.8c-13.9-25.3 9.6-46.1 33-46.1c11.3 0 22.6 6.1 28.7 18.2l92.2 204.3c6.9 14.8 13 31.3 17.4 46.9c5.2-15.6 10.4-32.1 18.2-46.9zm-671.9-102.6c0 15.7-13 28.7-28.7 28.7h-359c-15.6 0-28.7-13-28.7-28.7c0-15.6 13.1-28.6 28.7-28.6h359c15.7 0 28.7 12.1 28.7 28.6zm-904.9 578.1h3.5v-1.8c0-12.1-7-16.5-15.6-16.5c-7 0-13.1 2.6-16.6 4.4c-2.6 1.7-5.2 0.8-6.9-1.8l-0.9-1.7c-1.7-2.6-0.9-5.2 1.8-7c4.3-2.6 13-6 24.3-6c18.2 0 28.7 10.4 28.7 28.6v41.8q0 5.2-5.2 5.2h-3.5q-5.2 0-5.2-5.2v-4.4c0-2.2 0.6-3.8 0.8-4.2c-0.7 1.3-7.8 15.5-24.3 15.5c-13 0-25.2-7.8-25.2-21.7c0-22.6 28.7-25.2 44.3-25.2zm5.2 31.4q0-0.1 0-0.1q0 0 0 0.1zm-21.7 5.1c12.2 0 20-12.2 20-23.5v-3.5h-3.5c-10.4 0-29.5 0.9-29.5 14.8c0 6.1 4.3 12.2 13 12.2zm53.9-60q0-5.2 5.2-5.2h4.4q5.2 0 5.2 5.2v7c0 2-0.5 3.5-0.8 4c2.8-6.1 12.3-17.1 27.7-17.1c17.4 0 25.2 9.6 25.2 28.7v42.6q0 5.2-5.2 5.2h-4.3q-5.2 0-5.2-5.2v-39.1c0-10.4-1.8-18.3-14-18.3c-13.9 0-24.3 12.2-24.3 27v30.4q0 5.2-5.2 5.2h-4.4q-5.2 0-5.2-5.2v-65.2zm14.1 11q-0.1 0.2-0.2 0.3q0 0 0.2-0.3zm110.2 12.5h3.5v-1.8c0-12.1-6.9-16.5-15.6-16.5c-7 0-13.1 2.6-16.6 4.4c-2.6 1.7-5.2 0.8-6.9-1.8l-0.9-1.7c-1.7-2.6-0.8-5.2 1.8-7c4.3-2.6 13-6 24.3-6c18.3 0 28.7 10.4 28.7 28.6v41.8q0 5.2-5.2 5.2h-3.5q-5.2 0-5.2-5.2v-4.4c0-2.2 0.6-3.8 0.8-4.2c-0.7 1.3-7.7 15.5-24.3 15.5c-13 0-25.2-7.8-25.2-21.7c0-22.6 28.7-25.2 44.3-25.2zm5.2 31.4q0-0.1 0-0.1q0 0 0 0.1zm-20.8 5.1c12.2 0 20-12.2 20-23.5v-3.5h-3.5c-10.4 0-29.6 0.9-29.6 14.8c-0.8 6.1 3.5 12.2 13.1 12.2zm53-89.5q0-5.3 5.2-5.3h4.4q5.2 0 5.2 5.3v76.4c0 8.7 3.5 9.6 6.9 9.6c2.6 0 3.5 1.7 3.5 4.4v4.3q0 5.2-5.2 5.2c-7.8 0-20-2.6-20-20.8zm36.5 115.6c1.8 0.8 3.5 1.7 6.1 1.7c6.1 0 10.4-5.2 13-11.3l3.5-8.7l-28.7-67.8c-1.7-3.5 0-5.2 3.5-5.2h6.1c2.6 0 4.3 0.9 5.2 3.5l17.4 44.3c1.7 3.5 2.6 8.7 2.6 8.7c0 0 0.9-5.2 2.6-8.7l16.5-44.3c0.9-2.6 2.6-4.4 5.2-4.4h5.3c3.4 0 5.2 2.6 3.4 5.2l-32.1 83.5c-4.4 11.3-13.9 17.4-24.4 17.4c-4.3 0-7.8-1.8-10.4-2.6c-2.6-0.9-3.5-3.5-2.6-6.1l0.9-2.6c2.6-2.6 4.3-2.6 6.9-2.6zm68.7-21.8c0-2.6 0.9-3.4 1.7-5.2l35.7-44.3c3.4-4.4 6-7 6-7h-36.5q-5.2 0-5.2-5.2v-2.6q0-5.2 5.2-5.2h51.3c3.5 0 5.2 1.7 5.2 4.3v0.9c0 2.6-0.8 3.5-1.7 5.2l-35.6 44.4c-3.5 3.4-6.1 6.9-6.1 6.9h40c3.4 0 5.2 1.7 5.2 4.4v2.6q0 5.2-5.2 5.2h-53.9c-3.5 0-5.2-1.8-5.2-4.4zm110.3-71.2c20.9 0 32.2 14.7 32.2 35.6c0 2.6-1.7 5.2-5.2 5.2h-49.6c0.9 15.7 12.2 25.2 25.3 25.2c7.8 0 13.9-3.5 17.3-6.1c2.6-1.7 5.3-0.8 7 1.8l1.7 2.6c1.8 2.6 0.9 5.2-1.7 6.1c-4.4 3.4-13 7.8-25.2 7.8c-23.5 0-39.1-16.5-39.1-39.1c0-23.5 16.5-39.1 37.3-39.1zm17.4 31.2c-0.8-13-7.8-19.9-18.2-19.9c-10.5 0-20 6.9-21.8 19.9zm28.7 33.9q0-5.2 5.2-5.2h5.3q5.2 0 5.2 5.2v6.1q0 5.2-5.2 5.2h-5.3q-5.2 0-5.2-5.2zm108.7-34.7h3.5v-1.8c0-12.1-7-16.5-15.7-16.5c-6.9 0-13 2.6-16.5 4.4c-2.6 1.7-5.2 0.8-7-1.8l-0.8-1.7c-1.8-2.6-0.9-5.2 1.7-7c4.4-2.6 13.1-6.1 24.4-6.1c18.2 0 28.6 10.5 28.6 28.7v41.7q0 5.3-5.2 5.3h-3.5q-5.2 0-5.2-5.3v-4.3c0-2.2 0.7-3.8 0.9-4.2c-0.7 1.3-7.8 15.5-24.3 15.5c-13.1 0-25.2-7.8-25.2-21.7c0.8-22.6 29.5-25.2 44.3-25.2zm5.2 31.4q0-0.1 0-0.1q0 0 0 0.1zm-20.9 5.1c12.2 0 20-12.2 20-23.5v-3.5h-3.4c-10.5 0-29.6 0.9-29.6 14.8c-0.9 6.1 4.3 12.2 13 12.2zm53.1-60q0-5.2 5.2-5.2h4.3q5.2 0 5.2 5.2v6.9c0 2.1-0.5 3.5-0.7 4.1c2.8-6.1 12.3-17.1 27.7-17.1c17.4 0 25.2 9.6 25.2 28.7v42.6q0 5.2-5.2 5.2h-4.4q-5.2 0-5.2-5.2v-39.1c0-10.5-1.7-18.3-13.9-18.3c-13.9 0-24.3 12.2-24.3 27v30.4q0 5.2-5.2 5.2h-4.4q-5.2 0-5.2-5.2v-65.2zm14 11q0 0.2-0.1 0.3q0 0 0.1-0.3zm68.6 45.5l1.7-1.7c1.7-2.7 3.5-2.7 7-0.9c3.4 2.6 9.5 6.1 18.2 6.1c7 0 12.2-3.5 12.2-9.6c0-14.8-38.3-9.6-38.3-34.8c0-13.9 12.2-21.7 27-21.7c10.4 0 17.4 3.5 20.8 6.1c2.7 1.7 3.5 3.5 1.8 6.1l-1.8 2.6c-1.7 2.6-3.4 2.6-6 1.7c-3.5-1.7-7.9-4.3-14.8-4.3c-7 0-12.2 3.5-12.2 9.5c0 14.8 38.3 9.6 38.3 34.8c0 12.2-10.5 21.7-27 21.7c-12.2 0-20.8-5.2-25.2-7.8c-2.6-3.5-3.5-5.2-1.7-7.8zm61.7-55.6c-0.9-3.5 0.9-5.3 4.3-5.3h5.2c2.7 0 4.4 1.8 5.3 4.4l14.7 47.8c0.9 3.5 1.8 7.8 1.8 7.8c0 0 0.8-4.3 1.7-7.8l14.8-47.8c0.9-2.6 2.6-4.4 5.2-4.4h4.4c2.6 0 4.3 1.8 5.2 4.4l14.7 47.8c0.9 3.5 1.8 7.8 1.8 7.8c0 0 0.9-4.3 1.7-7.8l14.8-47.8c0.9-2.6 2.6-4.4 5.2-4.4h5.2c3.5 0 5.2 1.8 4.4 5.3l-20.9 64.3c-0.9 2.6-2.6 4.3-5.2 4.3h-7c-2.6 0-4.3-1.7-5.2-4.3l-13.9-43.5c-1.7-3.5-1.7-7.8-1.7-7.8c0 0-0.9 4.3-2.6 7.8l-13.9 43.5c-0.9 2.6-2.6 4.3-5.2 4.3h-7c-2.6 0-4.3-1.7-5.2-4.3zm155.6-7.8c20.8 0 32.1 14.7 32.1 35.6c0 2.6-1.7 5.2-5.2 5.2h-49.5c0.8 15.7 12.1 25.2 25.2 25.2c7.8 0 13.9-3.5 17.4-6.1c2.6-1.7 5.2-0.8 6.9 1.8l1.8 2.6c1.7 2.6 0.8 5.2-1.8 6.1c-4.3 3.4-13 7.8-25.2 7.8c-23.5 0-39.1-16.5-39.1-39.1c0.9-23.5 16.5-39.1 37.4-39.1zm18.2 31.3c-0.8-13.1-7.8-20-18.2-20c-10.5 0-20 6.9-21.8 20zm29.6-24.4q0-5.2 5.2-5.2h4.4q5.2 0 5.2 5.2v13.9c3.5-9.5 11.3-19.1 22.6-19.1c3.5 0 4.3 1.7 4.3 5.2v4.4q0 5.2-5.2 5.2c-14.8 0-21.7 15.6-21.7 30.4v26.1q0 5.2-5.2 5.2h-4.4q-5.2 0-5.2-5.2zm45.2 58.2q0-5.2 5.2-5.2h5.2q5.2 0 5.2 5.2v6.1q0 5.2-5.2 5.2h-5.2q-5.2 0-5.2-5.2zm109.5-34.8h3.5v-1.7c0-12.2-7-16.5-15.6-16.5c-7 0-13.1 2.6-16.6 4.3c-2.6 1.8-5.2 0.9-6.9-1.7l-0.9-1.8c-1.7-2.6-0.9-5.2 1.8-6.9c4.3-2.6 13-6.1 24.3-6.1c18.2 0 28.7 10.4 28.7 28.7v41.7q0 5.2-5.2 5.2h-3.5q-5.2 0-5.2-5.2v-4.3c0-2.3 0.6-3.9 0.8-4.3c-0.7 1.4-7.8 15.6-24.3 15.6c-13 0-25.2-7.9-25.2-21.8c0-22.6 28.7-25.2 44.3-25.2zm5.2 31.4q0-0.1 0-0.1q0 0 0 0.1zm-21.7 5.1c12.2 0 20-12.1 20-23.4v-3.5h-3.5c-10.4 0-29.5 0.9-29.5 14.8c-0.9 6.1 4.3 12.1 13 12.1zm82.6-66.9c17.4 0 22.6 13 22.6 13v-35.6q0-5.2 5.2-5.2h4.3q5.3 0 5.3 5.2v93.9q0 5.2-5.3 5.2h-3.4c-3.5 0-5.2-1.7-5.2-4.3v-7.9c0 0-6.1 13.9-24.4 13.9c-20 0-32.1-15.6-32.1-39.1c-0.9-23.4 13-39.1 33-39.1zm1.7 65.2c11.3 0 21.8-7.8 21.8-26.9c0-13.1-7-26.1-20.9-26.1c-11.3 0-20.9 9.5-20.9 26.1c-0.8 17.3 7.9 26.9 20 26.9zm48.7-57.4c-0.9-3.4 0-5.2 3.5-5.2h5.2c2.6 0 4.3 0.9 5.2 4.4l16.5 46c1.8 4.4 2.6 10.5 2.6 10.5c0 0 1.8-6.1 2.6-10.5l16.6-46c0.8-2.6 2.6-4.4 5.2-4.4h5.2c3.5 0 5.2 2.6 3.5 5.2l-24.4 64.4c-0.8 2.6-2.6 3.4-5.2 3.4h-7.8c-2.6 0-4.4-0.8-5.2-3.4zm118.2 22.6h3.5v-1.8c0-12.2-7-16.5-15.7-16.5c-6.9 0-13 2.6-16.5 4.3c-2.6 1.8-5.2 0.9-7-1.7l-0.8-1.7c-1.8-2.6-0.9-5.2 1.7-7c4.4-2.6 13.1-6.1 24.4-6.1c18.2 0 28.6 10.5 28.6 28.7v41.7q0 5.3-5.2 5.3h-3.5q-5.2 0-5.2-5.3v-4.3c0-2.2 0.7-3.8 0.9-4.2c-0.7 1.3-7.8 15.5-24.3 15.5c-13.1 0-25.2-7.8-25.2-21.7c0-22.6 28.6-25.2 44.3-25.2zm5.2 31.4q0-0.2 0-0.2q0 0 0 0.2zm-21.7 5.1c12.1 0 20-12.2 20-23.5v-3.5h-3.5c-10.4 0-29.6 0.9-29.6 14.8c0 6.1 4.4 12.2 13.1 12.2zm53.9-60q0-5.2 5.2-5.2h4.3q5.2 0 5.2 5.2v11.3c2.6-6.1 12.2-17.4 27.9-17.4c17.3 0 25.2 9.6 25.2 28.7v42.6q0 5.2-5.3 5.2h-4.3q-5.2 0-5.2-5.2v-39.1c0-10.5-1.8-18.3-13.9-18.3c-13.9 0-24.4 12.2-24.4 27v30.4q0 5.2-5.2 5.2h-4.3q-5.2 0-5.2-5.2zm120.8-7c12.2 0 20.8 5.2 24.3 7.8c2.6 1.8 2.6 4.4 0.9 7l-1.7 2.6c-1.8 2.6-3.5 2.6-7 0.9c-3.5-2.6-8.7-5.2-16.5-5.2c-14.8 0-26.1 11.3-26.1 26c0 14.8 10.4 27 26.1 27c8.7 0 15.6-4.4 19.1-7c2.6-1.7 5.2-1.7 7 1.8l0.8 2.6c1.8 2.6 0.9 5.2-1.7 6.1c-4.4 3.4-13 8.7-26.1 8.7c-23.5 0-39.1-16.6-39.1-39.2c0.9-21.7 17.4-39.1 40-39.1zm74.7 0c20.9 0 32.2 14.8 32.2 35.7c0 2.6-1.7 5.2-5.2 5.2h-49.6c0.9 15.6 12.2 25.2 25.2 25.2c7.9 0 14-3.5 17.4-6.1c2.6-1.7 5.2-0.9 7 1.7l1.7 2.6c1.8 2.7 0.9 5.3-1.7 6.1c-4.4 3.5-13.1 7.9-25.2 7.9c-23.5 0-39.1-16.6-39.1-39.2c0-23.4 16.5-39.1 37.3-39.1zm17.4 31.3c-0.8-13-7.8-20-18.2-20c-10.5 0-20 7-21.8 20z" />
	<path id="Layer" fill-rule="evenodd" class="s1" d="m754.5 572c-113 0-189.5-73.1-189.5-179.1c0-106.1 75.6-179.9 189.5-179.9c113.9 0 189.5 73.8 189.5 180.8c0 106-75.6 178.2-189.5 178.2zm0-300.8c-71.3 0-119.1 49.5-119.1 122.6c0 72.1 47.8 120.8 119.1 120.8c71.3 0 119.1-48.7 119.1-120.8c0-73.1-47.8-122.6-119.1-122.6zm-754.5-134.7c0-24.4 18.3-40.9 41.7-40.9c22.6 0 40.9 16.5 40.9 40.9c0 25.2-18.3 40-40.9 40c-23.4 0-41.7-14.8-41.7-40zm1216.1 0c0-24.4 18.2-40.9 41.7-40.9c22.6 0 40.8 16.5 40.8 40.9c0 25.2-18.2 40-40.8 40c-23.5 0-41.7-14.8-41.7-40zm-705 616.3c0-5.3 3.5-8.7 8.7-8.7c5.2 0 8.7 3.4 8.7 8.7c0 5.2-4.4 8.6-8.7 8.6c-5.2 0-8.7-2.6-8.7-8.6zm538.9 0c0-5.3 3.5-8.7 8.7-8.7c5.2 0 8.7 3.4 8.7 8.7c0 5.2-4.3 8.6-8.7 8.6c-5.2 0-8.7-2.6-8.7-8.6zm625 0c0-5.3 3.5-8.7 8.7-8.7c5.2 0 8.7 3.4 8.7 8.7c0 5.2-4.4 8.6-8.7 8.6c-5.2 0-8.7-2.6-8.7-8.6z" />
</svg>