<svg version="1.2" xmlns="http://www.w3.org/2000/svg" viewBox="0 0 1595 1525" width="1595" height="1525">
	<title>logo_site-svg</title>
	<style>
		.s0 { fill: #0072bc } 
	</style>
	<path id="Layer" fill-rule="evenodd" class="s0" d="m1594 720c2.1 212.6-81 417.3-230.6 568.4-149.7 151.1-353.6 236.1-566.4 236.1-212.7 0-416.6-85-566.3-236.1-149.7-151.1-232.8-355.8-230.7-568.4 0-416.4 286.6-719.9 603.9-719.9q24.7-0.1 49.4 2.3 24.6 2.3 48.9 6.9 24.3 4.6 48 11.4 23.8 6.9 46.8 15.9 23-9 46.8-15.9 23.7-6.8 48-11.4 24.3-4.6 48.9-6.9 24.6-2.3 49.3-2.3c317.4 0 604 303.5 604 719.9zm-565.4 559.2c73.4-30.9 140-76.1 195.8-132.9 55.9-56.7 100-124 129.7-197.8 29.8-73.9 44.7-152.9 43.8-232.5 0-313.3-223.5-527.3-399.2-519.4 20.9 21.5 39.7 45 56.2 70 16.4 25.1 30.4 51.6 41.9 79.3 11.4 27.8 20.1 56.5 26.1 85.9 6 29.3 9.2 59.2 9.5 89.2 2.4 90.4-31.9 178-95.1 242.8-63.2 64.9-149.9 101.4-240.4 101.4-90.5 0-177.2-36.5-240.4-101.4-63.2-64.8-97.5-152.4-95.1-242.8 0.3-30 3.5-59.9 9.4-89.2 6-29.4 14.8-58.2 26.2-85.9 11.4-27.7 25.4-54.2 41.9-79.3 16.5-25.1 35.3-48.5 56.2-70-175.6-7.9-399.2 206.1-399.2 519.4-0.9 79.6 14 158.6 43.7 232.5 29.8 73.8 73.9 141.1 129.8 197.8 55.8 56.8 122.4 102 195.8 132.9 73.4 31 152.1 47.1 231.8 47.5 79.5-0.4 158.3-16.5 231.6-47.5zm-289.4-980.4c-17.2 19.4-32.1 40.7-44.4 63.5-12.3 22.8-21.9 47-28.5 72-6.7 25-10.5 50.7-11.3 76.6 0 88.2 57.6 157.6 142 157.6 84.4 0 141.9-69.4 141.9-157.6-0.7-25.9-4.5-51.6-11.2-76.6-6.7-25-16.2-49.2-28.5-72-12.3-22.8-27.2-44.1-44.4-63.5-17.2-19.3-36.6-36.6-57.8-51.5-21.2 14.9-40.6 32.2-57.8 51.5z"/>
</svg>