<svg version="1.2" xmlns="http://www.w3.org/2000/svg" viewBox="0 0 1532 782" width="1532" height="782">
	<title>NRC-Health-2021-Annual-Report-1-pdf-svg</title>
	<defs>
		<clipPath clipPathUnits="userSpaceOnUse" id="cp1">
			<path d="m-3337.76-11333.61h10694.6v13584.74h-10694.6z"/>
		</clipPath>
	</defs>
	<style>
		.s0 { fill: #e7993f } 
		.s1 { opacity: .9;fill: #e27d2f } 
		.s2 { fill: #ffffff } 
	</style>
	<g id="Clip-Path: Page 1" clip-path="url(#cp1)">
		<g id="Page 1">
			<path id="Path 6" class="s0" d="m687.6 11h78.4v73.4c27.5-46.8 76.5-73.4 142-73.4h63.2v73.4h-63.2c-103.1 0-141.1 53.6-141.1 171.9v263.6h-79.3zm752.4 374.6h89.8c-42.2 88.9-131.5 144.9-238.7 144.9-146.7 0-264.4-115.1-264.4-264.6 0-149.9 117.7-265 264.4-265 113.1 0 199.3 56.9 240.1 144.9h-88.9c-32.1-45.8-85.3-73.3-151.2-73.3-104 0-184.7 86.1-184.7 193.4 0 106.9 80.7 193.5 184.7 193.5 61.8 0 115.4-28 148.9-73.8zm-892.1-148.6v283.4h-79.8v-283.4c0-98.5-50.8-164.5-153-164.5-50.9 0-94.4 22-123.3 57.3v-84.4c34.8-27.5 81.1-44.5 134.7-44.5 136.6 0 221.4 89.9 221.4 236.1z"/>
			<path id="Path 7" class="s1" d="m151.5 11v508.9h-76.1v-432.3h-75.1v-76.6h75.1z"/>
			<path id="Path 8" fill-rule="evenodd" class="s2" d="m687.1 668h32.6v43.1h37.1v-43.1h32.1v112.8h-32.1v-44.5h-37.1v44.5h-32.6zm160.9 112.8h80.6v-25.2h-48.5v-20.2h36.6v-23.4h-36.6v-19.3h45.8v-24.7h-77.9zm129.2 0h30.2l6-21.1h37.6l5.9 21.1h34.4l-36.2-112.8h-41.7zm55-86.6l12.3 43.5h-25.2zm110 86.7h75.2v-24.8h-42.7v-88h-32.5zm138.9 0h32.5v-87.6h29.3v-25.2h-91.2v25.2h29.4zm113.6 0.5h32.5v-44.5h37.6v44.5h32.1v-112.8h-32.1v43.1h-37.6v-43.1h-32.5z"/>
		</g>
	</g>
</svg>