<svg version="1.2" xmlns="http://www.w3.org/2000/svg" viewBox="0 0 1583 968" width="1583" height="968">
	<title>R&amp;D_Day_Master_FINAL3-1-pdf-svg</title>
	<defs>
		<clipPath clipPathUnits="userSpaceOnUse" id="cp1">
			<path d="m-1109.15-270.36h10556.68v5936.95h-10556.68z"/>
		</clipPath>
	</defs>
	<style>
		.s0 { fill: #ffffff } 
		.s1 { fill: #f6b332 } 
		.s2 { fill: #e63c2e } 
	</style>
	<g id="Clip-Path: Page 1" clip-path="url(#cp1)">
		<g id="Page 1">
			<path id="Path 4" class="s0" d="m1147.3 945.6c0 5.5-3.8 9.9-9.3 9.9 0 0 0 0-51.1 0-3.9 0-6.6-4.4-6.6-8.8 0 0 0 0 0-361.2 0-2.7 2.7-6.5 5.5-8.2 0 0 0 0 50.5-16.5 5.5 0 11 4.4 11 9.9zm428.4 9.4c0 0 0 0-60.5 0-2.8 0-5.5-1.1-7.2-3.9 0 0 0 0-104.4-166 0 0 0 0-105.1 166-1.6 2.8-4.4 3.9-5.5 3.9 0 0 0 0-61 0-5.5 0-8.2-6.6-5.5-11 0 0 0 0 136.9-219.9 0 0 0 0-139.6-219.9-2.8-3.9 0-9.4 5.5-9.4 0 0 0 0 61 0 2.7 0 3.8 0 5.5 2.8 0 0 0 0 106.1 165.5 0 0 0 0 105-165.5 1.1-1.7 3.9-2.8 6.6-2.8 0 0 0 0 59.4 0 5.5 0 9.9 5.5 5.5 9.4 0 0 0 0-138 219.9 0 0 0 0 140.8 219.9 2.7 4.4 0 11-5.5 11zm-1272.9-326c0 0 0 0 0 317.7 0 4.4-2.7 8.3-7.1 8.3 0 0 0 0-52.3 0-4.4 0-8.8-3.9-8.8-8.3 0 0 0 0 0-317.7 0-42.4-8.2-71.5-23.1-78.6-4.4-1.1-8.8-2.8-14.3-2.8-34.6 0-86.8 30.2-124.8 59.4 0 0 0 0-2.7 4.4 0 0 0 0 0 335.3 0 4.4-3.9 8.3-8.3 8.3 0 0 0 0-52.2 0-4.4 0-8.8-3.9-8.8-8.3 0 0 0 0 0-444.7 0-3.9 4.4-6.6 8.8-6.6 0 0 0 0 45.6 0 3.9 0 8.3 2.7 8.3 6.6 0 0 0 0 5.5 40.1 42.9-30.2 92.9-60.5 137.4-60.5 12.1 0 23.1 2.8 33 6.6 42.9 19.3 63.8 66.6 63.8 140.8zm401.4-127.6c0 0 0 0 0 444.8 0 4.4-4.4 8.2-8.3 8.2 0 0 0 0-45.6 0-4.4 0-7.2-3.8-8.3-8.2 0 0 0 0-5.5-40.2-42.8 30.8-91.2 61-135.2 61-12.7 0-23.7-2.7-34.6-7.1-41.3-19.2-63.8-66-63.8-140.7 0 0 0 0 0-317.8 0-3.8 4.4-6.6 8.2-6.6 0 0 0 0 52.8 0 3.9 0 6.6 2.8 6.6 6.6 0 0 0 0 0 317.8 0 42.8 9.9 72 23.6 78.6 4.4 1.6 9.9 2.7 15.4 2.7 33 0 85.3-30.2 122.6-59.3 0 0 0 0 4.4-2.8 0 0 0 0 0-337 0-3.8 2.8-6.6 6.6-6.6 0 0 0 0 52.8 0 3.9 0 8.3 2.8 8.3 6.6zm301.8-10.4c0 0 0 0 0 50 0 3.9-3.8 6.6-8.2 8.3-33 1.1-84.1 30.2-120.4 57.7 0 0 0 0-2.8 4.4 0 0 0 0 0 335.3 0 4.4-3.8 8.3-8.2 8.3 0 0 0 0-52.8 0-3.9 0-8.3-3.9-8.3-8.3 0 0 0 0 0-444.7 0-3.9 4.4-6.6 8.3-6.6 0 0 0 0 46.2 0 3.8 0 8.2 2.7 8.2 6.6 0 0 0 0 5.5 40.1 38.5-26.4 81.4-53.9 123.2-59.4 0 0 0 0 1.1 0 4.4 0 8.2 4.4 8.2 8.3z"/>
			<path id="Path 5" class="s1" d="m1185.8 449.8c17.6-49.5 8.3-89.6 1.1-105-1.1-3.9 0-9.9 2.8-12.7 39.6-40.1 80.8-85.7 94.5-136.9 12.1 34.7 12.1 88.6 1.1 135.8-14.8 55.6-53.3 98.4-99.5 118.8z"/>
			<path id="Path 6" class="s2" d="m1068.7 444.3c0 2.7 0 5.5-1.1 8.2 0 0-4.4-1.1-5.5-2.7-77.5-30.3-120.4-118.8-97.3-207.3 17-63.7 65.4-111 122.1-126.4-27.5 51.7 1.1 87.4 1.1 87.4 15.4-12.6 29.1-24.7 41.7-40.1 30.3-33 50.1-78.6 30.3-163.3 263.4 205-60.5 315.5-91.3 444.2z"/>
		</g>
	</g>
</svg>