<svg version="1.2" baseProfile="tiny-ps" xmlns="http://www.w3.org/2000/svg" viewBox="0 0 1600 408" width="1600" height="408">
	<title>logo (11)-svg</title>
	<defs>
		<clipPath clipPathUnits="userSpaceOnUse" id="cp1">
			<path d="M1550.26 122.36L1599.97 122.36L1599.97 210.59L1550.26 210.59L1550.26 122.36Z" />
		</clipPath>
		<clipPath clipPathUnits="userSpaceOnUse" id="cp2">
			<path d="M0 1.72L404.69 1.72L404.69 406.16L0 406.16L0 1.72Z" />
		</clipPath>
	</defs>
	<style>
		tspan { white-space:pre }
		.shp0 { fill: #79ad4f } 
		.shp1 { fill: #6f6d6d } 
		.shp2 { fill: #ffffff } 
	</style>
	<g id="Layer">
		<path id="Layer" fill-rule="evenodd" class="shp0" d="M458.38 197.64C458.49 200.91 458.6 203.59 458.72 205.68C458.74 206.09 458.76 206.51 458.78 206.93C458.81 207.34 458.83 207.76 458.86 208.17C458.89 208.59 458.92 209.01 458.95 209.42C458.99 209.84 459.02 210.25 459.06 210.67C457.7 210.44 456.35 210.33 455 210.33L451.1 210.33C450.45 210.33 449.8 210.34 449.15 210.35C448.51 210.36 447.86 210.38 447.21 210.41C446.56 210.44 445.91 210.48 445.26 210.52C444.61 210.56 443.96 210.61 443.32 210.67C443.55 209.77 443.83 206.55 444.16 201.02C444.5 195.49 444.87 188.75 445.27 180.8C445.37 178.65 445.47 176.49 445.57 174.33C445.66 172.18 445.75 170.02 445.83 167.86C445.92 165.7 446 163.55 446.07 161.39C446.14 159.23 446.21 157.07 446.28 154.91C446.56 145.62 446.71 136.68 446.71 128.11C446.71 120.32 446.59 113.79 446.37 108.48C446.14 103.18 445.97 98.5 445.86 94.43C449.01 95 451.55 95.29 453.47 95.29C455.38 95.29 457.93 95 461.09 94.43C473.38 108.09 485.54 121.5 497.55 134.7C500.61 138.07 503.68 141.44 506.76 144.8C509.83 148.16 512.91 151.52 515.99 154.87C519.07 158.23 522.15 161.58 525.24 164.93C528.32 168.28 531.41 171.63 534.51 174.97L534.51 143.83C534.51 138.32 534.48 132.87 534.42 127.52C534.37 122.15 534.3 117.22 534.26 112.71C534.2 108.21 534.09 104.31 533.92 101.04C533.75 97.77 533.55 95.57 533.33 94.43C536.49 95 539.01 95.29 540.94 95.29C542.85 95.29 545.39 95 548.55 94.43C547.99 104.7 547.54 113.98 547.2 122.27C546.86 130.55 546.58 138.37 546.35 145.7C546.13 153.03 545.98 160.28 545.93 167.44C545.87 174.6 545.84 182.24 545.84 190.37L545.84 210.67C543.59 210.44 541.27 210.33 538.91 210.33C538.36 210.33 537.8 210.33 537.25 210.34C536.7 210.35 536.15 210.37 535.6 210.4C535.05 210.43 534.5 210.47 533.95 210.51C533.41 210.56 532.86 210.61 532.31 210.67C509.07 183.6 484.43 156.36 458.38 128.95C458.26 132.23 458.18 135.5 458.13 138.76C458.06 142.04 458.04 145.37 458.04 148.75L458.04 168.37C458.04 175.15 458.06 180.89 458.13 185.63C458.13 186.63 458.15 187.63 458.16 188.63C458.18 189.63 458.2 190.64 458.22 191.64C458.24 192.64 458.26 193.64 458.29 194.64C458.32 195.64 458.35 196.64 458.38 197.65M571.76 194.34C571.93 188.82 572.02 182.51 572.02 175.39L572.02 157.94C572.02 150.82 571.93 144.51 571.76 138.99C571.59 133.46 571.33 127.92 570.99 122.35C571.94 122.38 572.9 122.4 573.85 122.43C574.8 122.46 575.76 122.49 576.71 122.52C577.66 122.55 578.61 122.59 579.57 122.62C580.52 122.66 581.47 122.7 582.42 122.74C586.19 122.91 590 123 593.85 123C595.26 123 596.67 123 598.07 122.99C599.48 122.99 600.89 122.97 602.3 122.96C603.7 122.94 605.11 122.92 606.52 122.9C607.92 122.87 609.33 122.85 610.74 122.81C615.66 122.68 618.98 122.53 620.69 122.35C620.35 123.72 620.18 125.53 620.18 127.75C620.18 129.12 620.22 130.19 620.31 130.96C620.33 131.18 620.36 131.39 620.39 131.61C620.41 131.82 620.44 132.04 620.48 132.25C620.51 132.46 620.54 132.68 620.58 132.89C620.61 133.11 620.65 133.32 620.69 133.53C618.21 133.37 615.49 133.19 612.54 133.02C609.58 132.84 606.71 132.67 603.93 132.5C601.15 132.34 598.64 132.21 596.42 132.12C594.2 132.03 592.61 131.99 591.66 131.99C591.32 136.7 591.13 141.37 591.09 145.99C591.05 150.61 591.02 155.28 591.02 159.99C592.28 159.97 593.54 159.95 594.8 159.92C596.05 159.9 597.31 159.87 598.57 159.84C599.83 159.8 601.08 159.77 602.34 159.73C603.6 159.69 604.86 159.64 606.11 159.6C607.29 159.55 608.46 159.51 609.63 159.46C610.8 159.41 611.97 159.36 613.15 159.31C614.32 159.25 615.49 159.2 616.66 159.14C617.83 159.08 619 159.02 620.17 158.96C619.92 160.42 619.75 161.53 619.67 162.3C619.58 163.07 619.53 163.89 619.53 164.74C619.53 164.92 619.54 165.09 619.55 165.27C619.55 165.45 619.57 165.63 619.58 165.8C619.6 165.98 619.62 166.16 619.65 166.33C619.67 166.51 619.7 166.68 619.73 166.86C619.86 167.58 620.01 168.64 620.18 170C610.41 169.23 600.69 168.85 591.02 168.85C591.02 171.59 591 174.33 590.97 177.07C590.92 179.81 590.9 182.55 590.9 185.29C590.89 186.63 590.9 187.97 590.92 189.3C590.93 190.64 590.96 191.98 590.99 193.32C591.02 194.66 591.06 195.99 591.11 197.33C591.16 198.67 591.22 200 591.28 201.34C596.16 201.34 601.04 201.21 605.92 200.95C607.16 200.89 608.39 200.81 609.62 200.73C610.86 200.64 612.09 200.55 613.32 200.44C614.55 200.33 615.78 200.21 617.01 200.09C618.24 199.96 619.46 199.82 620.69 199.67C620.52 200.62 620.39 201.47 620.31 202.24C620.22 203 620.18 204.08 620.18 205.45C620.18 206.82 620.22 207.9 620.31 208.66C620.32 208.82 620.34 208.98 620.37 209.15C620.39 209.31 620.42 209.47 620.45 209.63C620.48 209.79 620.52 209.95 620.56 210.11C620.6 210.27 620.64 210.43 620.69 210.59C618.38 210.5 615.53 210.43 612.15 210.39C608.77 210.35 604.13 210.34 598.22 210.34L577.86 210.34C575.94 210.34 574.48 210.35 573.49 210.39C572.51 210.43 571.67 210.5 570.99 210.59C571.33 205.28 571.59 199.86 571.76 194.34ZM752.71 122.36C752.11 123.98 751.17 126.63 749.89 130.32C749.04 132.77 748.19 135.21 747.35 137.66C746.51 140.11 745.67 142.56 744.83 145.01C744 147.46 743.17 149.91 742.34 152.37C741.52 154.82 740.7 157.28 739.88 159.73C737.9 165.64 735.93 171.59 733.97 177.58C732 183.58 730.09 189.44 728.25 195.18C727.84 196.46 727.43 197.74 727.02 199.02C726.61 200.3 726.21 201.59 725.81 202.87C725.41 204.16 725.01 205.44 724.61 206.73C724.22 208.01 723.82 209.3 723.43 210.59C721.46 210.41 719.28 210.33 716.89 210.33L713.54 210.33C713.27 210.33 712.99 210.33 712.71 210.34C712.43 210.35 712.15 210.37 711.87 210.39C711.59 210.41 711.32 210.44 711.04 210.47C710.76 210.51 710.49 210.55 710.21 210.59C709.52 207.97 708.81 205.35 708.08 202.75C707.35 200.14 706.59 197.54 705.82 194.94C705.04 192.34 704.24 189.76 703.42 187.17C702.6 184.59 701.76 182.02 700.89 179.45C700.01 176.81 699.11 174.18 698.21 171.54C697.31 168.91 696.4 166.28 695.49 163.65C694.57 161.02 693.65 158.4 692.72 155.78C691.8 153.15 690.86 150.53 689.92 147.91L689.66 147.91C688.11 152.29 686.36 157.18 684.39 162.62C682.42 168.06 680.43 173.61 678.42 179.25C676.41 184.9 674.46 190.47 672.58 195.94C672.16 197.16 671.74 198.38 671.33 199.59C670.92 200.81 670.51 202.03 670.1 203.25C669.69 204.47 669.29 205.69 668.89 206.92C668.49 208.14 668.09 209.36 667.7 210.59C665.73 210.41 663.54 210.33 661.15 210.33L657.81 210.33C657.53 210.33 657.25 210.33 656.97 210.34C656.69 210.35 656.41 210.37 656.13 210.39C655.86 210.41 655.58 210.44 655.3 210.47C655.02 210.51 654.75 210.55 654.47 210.59C654.17 209.45 653.86 208.32 653.55 207.18C653.24 206.05 652.93 204.91 652.62 203.78C652.31 202.65 652 201.51 651.69 200.38C651.37 199.25 651.06 198.11 650.74 196.98C649.2 191.41 647.54 185.5 645.73 179.25C643.94 173.01 642.1 166.69 640.21 160.31C638.33 153.93 636.57 148.08 634.95 142.78C633.33 137.47 631.95 132.96 630.84 129.23C629.73 125.5 628.99 123.22 628.65 122.35C630.54 122.53 632.38 122.68 634.18 122.81C635.98 122.93 637.73 123.01 639.45 123.01C641.16 123.01 642.89 122.93 644.65 122.81C645.08 122.78 645.51 122.74 645.95 122.71C646.38 122.67 646.81 122.64 647.25 122.6C647.68 122.56 648.11 122.52 648.54 122.48C648.98 122.44 649.41 122.4 649.84 122.36C650.51 125.2 651.19 128.04 651.88 130.87C652.57 133.71 653.27 136.54 653.98 139.37C654.69 142.2 655.42 145.03 656.15 147.86C656.88 150.68 657.63 153.5 658.38 156.32L662.75 172.64C664.17 177.91 665.47 182.76 666.67 187.22L666.93 187.22C668.81 181.82 670.85 175.97 673.02 169.69C674.04 166.76 675.05 163.83 676.06 160.9C677.07 157.97 678.07 155.04 679.07 152.11C680.08 149.18 681.07 146.24 682.07 143.31C683.06 140.37 684.05 137.44 685.03 134.5C685.38 133.49 685.71 132.48 686.05 131.47C686.39 130.46 686.72 129.45 687.05 128.44C687.39 127.43 687.71 126.41 688.04 125.4C688.37 124.38 688.69 123.37 689.02 122.35C689.28 122.4 689.55 122.44 689.82 122.48C690.08 122.52 690.35 122.55 690.62 122.59C690.89 122.63 691.15 122.67 691.42 122.7C691.69 122.74 691.96 122.77 692.22 122.81C692.76 122.87 693.29 122.92 693.83 122.96C694.36 122.99 694.9 123.01 695.43 123.01C695.97 123.01 696.51 122.99 697.04 122.96C697.58 122.92 698.11 122.87 698.65 122.81C698.91 122.77 699.18 122.74 699.45 122.7C699.72 122.67 699.99 122.63 700.25 122.59C700.52 122.56 700.79 122.52 701.06 122.48C701.32 122.44 701.59 122.4 701.86 122.36C702.2 124.25 702.85 126.77 703.79 129.93C704.05 130.81 704.32 131.69 704.58 132.57C704.85 133.45 705.12 134.33 705.39 135.21C705.66 136.09 705.94 136.96 706.21 137.84C706.49 138.71 706.77 139.59 707.05 140.46C707.38 141.48 707.71 142.5 708.05 143.52C708.38 144.54 708.71 145.55 709.04 146.57C709.37 147.59 709.71 148.6 710.04 149.62C710.37 150.64 710.71 151.66 711.04 152.67C711.39 153.73 711.74 154.79 712.09 155.85C712.44 156.91 712.8 157.97 713.15 159.03C713.5 160.09 713.85 161.15 714.21 162.21C714.56 163.27 714.92 164.32 715.28 165.38C715.61 166.37 715.94 167.37 716.28 168.36C716.61 169.36 716.93 170.35 717.26 171.35C717.59 172.34 717.91 173.34 718.24 174.34C718.56 175.33 718.88 176.33 719.2 177.33C719.46 178.15 719.72 178.97 719.97 179.79C720.23 180.61 720.48 181.43 720.73 182.26C720.97 183.08 721.21 183.91 721.45 184.73C721.69 185.56 721.92 186.39 722.15 187.22L722.41 187.22C722.87 185.73 723.34 184.25 723.8 182.76C724.27 181.28 724.72 179.79 725.18 178.3C725.64 176.81 726.09 175.33 726.54 173.84C726.98 172.35 727.43 170.85 727.87 169.36L733.46 150.48C735.25 144.4 736.88 138.84 738.34 133.79C739.79 128.74 740.82 124.92 741.41 122.36C743.55 122.79 745.35 123.01 746.81 123.01C747.75 123.01 748.72 122.93 749.7 122.81C750.69 122.68 751.69 122.53 752.71 122.36ZM885.33 182.33C891.54 191.86 897.74 201.31 903.95 210.67C901.35 210.44 898.82 210.33 896.34 210.33L881.02 210.33C880.38 210.33 879.73 210.34 879.09 210.35C878.45 210.36 877.81 210.39 877.17 210.41C876.53 210.44 875.88 210.48 875.24 210.52C874.6 210.56 873.96 210.61 873.32 210.67L843.04 157.38L841.52 157.38L841.52 164.31C841.52 166.39 841.52 168.47 841.53 170.55C841.54 172.63 841.56 174.71 841.59 176.79C841.62 178.87 841.66 180.95 841.7 183.03C841.74 185.11 841.8 187.19 841.86 189.27C842.08 196.54 842.42 203.68 842.87 210.67C840.95 210.44 838.87 210.33 836.61 210.33L821.38 210.33C820.86 210.33 820.34 210.33 819.82 210.35C819.29 210.36 818.77 210.38 818.25 210.41C817.73 210.44 817.21 210.47 816.69 210.52C816.17 210.56 815.65 210.61 815.13 210.67C815.24 208.89 815.35 207.11 815.45 205.32C815.55 203.54 815.64 201.76 815.72 199.97C815.81 198.19 815.88 196.41 815.95 194.62C816.02 192.84 816.08 191.06 816.14 189.27C816.36 181.99 816.49 173.68 816.49 164.31L816.49 141.31C816.49 131.95 816.36 123.62 816.14 116.35C815.91 109.07 815.57 101.78 815.13 94.44C815.65 94.5 816.17 94.56 816.69 94.61C817.21 94.67 817.73 94.72 818.25 94.77C818.77 94.82 819.29 94.87 819.82 94.91C820.34 94.95 820.86 94.99 821.38 95.03C822.01 95.08 822.65 95.12 823.28 95.15C823.92 95.18 824.55 95.21 825.19 95.23C825.82 95.25 826.46 95.27 827.09 95.28C827.72 95.29 828.36 95.29 828.99 95.29C832.05 95.29 835.51 95.14 839.41 94.86C843.3 94.58 848.12 94.44 853.88 94.44C854.79 94.44 855.71 94.44 856.63 94.45C857.54 94.46 858.46 94.48 859.37 94.51C860.29 94.54 861.2 94.57 862.12 94.62C863.04 94.66 863.95 94.72 864.86 94.78C867.91 95.01 870.54 95.35 872.73 95.79C873.22 95.89 873.71 96 874.2 96.12C874.69 96.24 875.17 96.38 875.65 96.53C876.14 96.68 876.61 96.84 877.09 97.01C877.56 97.18 878.03 97.37 878.49 97.57C878.89 97.75 879.3 97.94 879.69 98.15C880.09 98.35 880.48 98.56 880.87 98.78C881.26 99 881.64 99.22 882.02 99.46C882.4 99.7 882.77 99.94 883.14 100.19C883.97 100.8 884.77 101.45 885.53 102.15C886.28 102.84 887 103.58 887.68 104.35C888.35 105.13 888.98 105.94 889.57 106.79C890.15 107.63 890.69 108.51 891.18 109.42C893.15 113.07 894.14 117.45 894.14 122.52C894.14 130.76 891.87 137.47 887.37 142.66C882.86 147.85 876.37 151.51 867.91 153.65C869.29 156.09 870.68 158.51 872.1 160.92C873.51 163.34 874.95 165.74 876.4 168.13C877.85 170.52 879.32 172.9 880.81 175.26C882.3 177.63 883.81 179.99 885.33 182.33L885.33 182.33ZM845.24 150.44C852.68 150.44 858.38 148.44 862.32 144.43C866.27 140.43 868.25 134.37 868.25 126.24C868.25 121.28 867.74 117.34 866.73 114.41C865.71 111.47 864.16 109.24 862.08 107.72C859.98 106.21 857.28 105.21 853.95 104.77C850.62 104.31 846.65 104.08 842.02 104.08C841.69 119.43 841.51 134.76 841.51 150.1C841.68 150.13 841.84 150.15 842 150.18C842.16 150.2 842.32 150.22 842.49 150.25C842.65 150.27 842.81 150.29 842.97 150.3C843.14 150.32 843.3 150.34 843.46 150.35C844.08 150.41 844.67 150.44 845.24 150.44ZM953.79 122.81C958.71 122.68 962.03 122.53 963.74 122.36C963.39 123.73 963.23 125.53 963.23 127.75C963.22 128.02 963.22 128.29 963.23 128.55C963.23 128.82 963.24 129.09 963.25 129.36C963.26 129.62 963.27 129.89 963.29 130.16C963.31 130.42 963.33 130.69 963.35 130.96C963.38 131.17 963.4 131.39 963.43 131.6C963.46 131.82 963.49 132.03 963.52 132.25C963.56 132.46 963.59 132.68 963.63 132.89C963.66 133.1 963.7 133.32 963.74 133.53C961.26 133.36 958.54 133.19 955.58 133.02C952.63 132.85 949.76 132.67 946.98 132.5C944.2 132.34 941.69 132.21 939.47 132.11C937.24 132.04 935.66 131.99 934.71 131.99C934.37 136.7 934.18 141.37 934.14 145.98C934.09 150.61 934.07 155.27 934.07 159.98C939.63 159.91 944.67 159.77 949.16 159.6C953.65 159.43 958.34 159.22 963.22 158.96C962.97 160.41 962.8 161.53 962.72 162.3C962.63 163.07 962.58 163.88 962.58 164.74C962.58 164.91 962.59 165.09 962.6 165.27C962.6 165.45 962.62 165.62 962.63 165.8C962.65 165.98 962.67 166.15 962.69 166.33C962.72 166.51 962.74 166.68 962.77 166.86C962.91 167.59 963.05 168.64 963.23 170C953.46 169.23 943.74 168.85 934.07 168.85C934.07 171.59 934.05 174.34 934.01 177.07C933.96 179.81 933.95 182.55 933.95 185.29C933.95 186.63 933.95 187.97 933.97 189.3C933.98 190.64 934.01 191.98 934.04 193.32C934.07 194.66 934.11 195.99 934.16 197.33C934.2 198.67 934.26 200.01 934.33 201.34C939.21 201.34 944.09 201.21 948.97 200.96C950.2 200.89 951.43 200.82 952.67 200.73C953.9 200.64 955.13 200.55 956.36 200.44C957.59 200.33 958.82 200.21 960.05 200.09C961.28 199.96 962.51 199.82 963.74 199.67C963.57 200.61 963.44 201.47 963.35 202.25C963.27 203.01 963.23 204.08 963.23 205.45C963.23 206.82 963.27 207.89 963.35 208.66C963.37 208.82 963.39 208.99 963.41 209.15C963.44 209.31 963.46 209.47 963.5 209.63C963.53 209.79 963.56 209.95 963.6 210.11C963.65 210.27 963.69 210.43 963.74 210.58C961.43 210.5 958.58 210.44 955.2 210.39C951.82 210.35 947.18 210.33 941.27 210.33L920.91 210.33C918.99 210.33 917.52 210.35 916.54 210.39C915.55 210.44 914.73 210.5 914.03 210.58C914.12 209.23 914.2 207.88 914.28 206.53C914.35 205.17 914.43 203.82 914.49 202.46C914.55 201.11 914.61 199.76 914.67 198.4C914.72 197.05 914.77 195.69 914.81 194.34C914.98 188.82 915.07 182.51 915.07 175.4L915.07 157.93C915.07 150.83 914.98 144.51 914.81 138.99C914.63 133.47 914.38 127.93 914.03 122.36C917.89 122.45 921.7 122.58 925.47 122.74C926.42 122.78 927.37 122.82 928.32 122.85C929.28 122.89 930.23 122.91 931.18 122.94C932.13 122.96 933.09 122.97 934.04 122.98C934.99 123 935.95 123 936.9 123C943.23 123 948.87 122.94 953.79 122.81ZM1018.33 163.65C1019.05 164.19 1019.74 164.77 1020.41 165.37C1021.08 165.98 1021.72 166.62 1022.33 167.29C1022.94 167.96 1023.51 168.65 1024.06 169.37C1024.6 170.1 1025.11 170.84 1025.58 171.61C1027.51 174.74 1028.47 178.74 1028.47 183.62C1028.47 187.9 1027.65 191.82 1026.03 195.37C1025.63 196.24 1025.18 197.1 1024.69 197.93C1024.2 198.75 1023.66 199.55 1023.07 200.32C1022.49 201.08 1021.86 201.82 1021.2 202.51C1020.54 203.21 1019.83 203.87 1019.09 204.49C1016.1 207.01 1012.53 208.94 1008.37 210.27C1004.21 211.59 999.58 212.26 994.43 212.26C989.81 212.26 985.67 211.76 982.05 210.78C978.4 209.79 975.64 208.58 973.76 207.13C973.95 206.44 974.15 205.76 974.33 205.08C974.52 204.39 974.71 203.71 974.89 203.02C975.07 202.34 975.25 201.65 975.43 200.96C975.6 200.28 975.78 199.59 975.94 198.9C976.1 198.23 976.25 197.56 976.4 196.89C976.54 196.22 976.67 195.55 976.8 194.87C976.93 194.2 977.05 193.52 977.16 192.85C977.28 192.17 977.38 191.49 977.48 190.81L979.93 190.81C980.01 191.28 980.11 191.74 980.23 192.2C980.36 192.66 980.5 193.11 980.66 193.56C980.82 194 981 194.44 981.2 194.87C981.4 195.3 981.62 195.72 981.85 196.14C982.09 196.55 982.34 196.96 982.61 197.35C982.87 197.75 983.16 198.13 983.46 198.51C983.76 198.88 984.08 199.24 984.41 199.58C984.74 199.92 985.09 200.26 985.45 200.57C986.9 201.86 988.66 202.86 990.71 203.58C992.77 204.32 995.08 204.68 997.65 204.68C1002.78 204.68 1006.57 203.39 1009.01 200.82C1011.45 198.26 1012.67 195.18 1012.67 191.58C1012.67 188.33 1011.73 185.67 1009.85 183.62C1007.96 181.57 1005.61 179.75 1002.78 178.16C999.96 176.58 996.88 175.03 993.54 173.54C992.72 173.17 991.91 172.78 991.11 172.37C990.32 171.96 989.53 171.53 988.76 171.07C987.99 170.62 987.23 170.14 986.48 169.64C985.74 169.14 985 168.62 984.29 168.08C983.58 167.54 982.9 166.97 982.25 166.37C981.6 165.77 980.97 165.13 980.38 164.47C979.79 163.81 979.23 163.12 978.7 162.4C978.18 161.68 977.68 160.94 977.23 160.18C975.34 157.05 974.41 153.06 974.41 148.18C974.41 143.72 975.19 139.78 976.77 136.36C978.36 132.94 980.48 130.06 983.13 127.75C985.79 125.44 988.85 123.69 992.32 122.49C995.78 121.29 999.44 120.69 1003.3 120.69C1007.91 120.69 1011.97 121.25 1015.43 122.36C1018.9 123.47 1021.88 125.02 1024.36 126.98C1023.59 128.95 1022.92 130.86 1022.37 132.69C1021.81 134.54 1021.11 136.87 1020.24 139.7L1018.33 139.7C1015.58 132.34 1010.4 128.65 1002.78 128.65C998.84 128.65 995.63 129.81 993.15 132.11C990.67 134.43 989.43 137.13 989.43 140.21C989.43 143.38 990.39 145.97 992.32 147.98C994.24 150 996.67 151.81 999.58 153.44C1000.34 153.87 1001.11 154.28 1001.88 154.69C1002.65 155.1 1003.43 155.5 1004.21 155.89C1004.99 156.28 1005.78 156.66 1006.57 157.03C1007.36 157.41 1008.15 157.77 1008.95 158.13C1009.78 158.5 1010.6 158.89 1011.41 159.31C1012.22 159.73 1013.01 160.16 1013.79 160.63C1014.58 161.09 1015.35 161.57 1016.1 162.07C1016.86 162.58 1017.6 163.1 1018.33 163.65ZM1064.18 157.94L1064.18 175.4C1064.17 176.98 1064.18 178.56 1064.19 180.13C1064.19 181.71 1064.21 183.29 1064.23 184.87C1064.25 186.45 1064.28 188.03 1064.31 189.61C1064.35 191.19 1064.38 192.77 1064.43 194.34C1064.47 195.7 1064.52 197.05 1064.57 198.41C1064.62 199.76 1064.68 201.11 1064.75 202.47C1064.81 203.82 1064.88 205.17 1064.96 206.53C1065.03 207.88 1065.11 209.23 1065.2 210.58C1063.74 210.42 1062.16 210.33 1060.45 210.33L1048.89 210.33C1047.18 210.33 1045.59 210.42 1044.14 210.58C1044.48 205.28 1044.74 199.86 1044.9 194.34C1045.08 188.82 1045.17 182.51 1045.17 175.4L1045.17 157.94C1045.17 150.83 1045.08 144.51 1044.9 138.99C1044.74 133.47 1044.47 127.93 1044.14 122.36C1044.53 122.4 1044.93 122.45 1045.32 122.49C1045.72 122.53 1046.11 122.57 1046.51 122.61C1046.91 122.65 1047.3 122.68 1047.7 122.72C1048.09 122.75 1048.49 122.78 1048.89 122.81C1050.6 122.94 1052.53 123 1054.67 123C1056.81 123 1058.73 122.94 1060.45 122.81C1060.84 122.78 1061.24 122.75 1061.64 122.72C1062.03 122.68 1062.43 122.65 1062.83 122.61C1063.22 122.57 1063.62 122.53 1064.01 122.49C1064.41 122.45 1064.8 122.4 1065.2 122.36C1064.86 127.93 1064.6 133.47 1064.43 138.99C1064.26 144.51 1064.18 150.83 1064.18 157.94ZM1155.87 131.09C1160.24 134.26 1163.61 138.51 1166.01 143.87C1168.41 149.22 1169.61 155.97 1169.61 164.09C1169.61 171.21 1168.43 177.62 1166.08 183.36C1163.72 189.09 1160.51 194 1156.45 198.06C1155.44 199.07 1154.39 200.02 1153.29 200.92C1152.19 201.82 1151.05 202.66 1149.86 203.44C1148.67 204.22 1147.45 204.95 1146.19 205.6C1144.93 206.26 1143.64 206.85 1142.32 207.38C1136.96 209.51 1131.25 210.58 1125.17 210.58C1118.75 210.58 1113.27 210.54 1108.73 210.46C1104.19 210.37 1100.25 210.33 1096.92 210.33L1091.14 210.33C1090.74 210.33 1090.35 210.33 1089.95 210.34C1089.55 210.35 1089.16 210.37 1088.76 210.39C1088.36 210.41 1087.97 210.43 1087.57 210.47C1087.17 210.5 1086.78 210.54 1086.38 210.58C1086.73 205.28 1086.98 199.86 1087.16 194.34C1087.33 188.82 1087.42 182.5 1087.42 175.4L1087.42 157.93C1087.42 150.82 1087.33 144.51 1087.16 138.99C1086.98 133.46 1086.73 127.92 1086.38 122.35C1086.78 122.4 1087.18 122.44 1087.57 122.49C1087.97 122.53 1088.36 122.57 1088.76 122.61C1089.16 122.64 1089.55 122.68 1089.95 122.71C1090.35 122.75 1090.74 122.78 1091.14 122.81C1092.85 122.93 1094.78 123 1096.92 123C1099.75 123 1102.91 122.89 1106.42 122.68C1109.93 122.46 1114.51 122.35 1120.16 122.35C1127.53 122.35 1134.23 123.02 1140.26 124.35C1146.29 125.68 1151.5 127.92 1155.87 131.09ZM1140.84 193.76C1146.49 187.16 1149.32 177.19 1149.32 163.84C1149.32 158.53 1148.61 153.77 1147.2 149.58C1145.79 145.39 1143.79 141.81 1141.23 138.86C1140.59 138.13 1139.92 137.44 1139.21 136.78C1138.51 136.13 1137.76 135.51 1136.98 134.94C1136.21 134.37 1135.4 133.84 1134.56 133.36C1133.73 132.87 1132.87 132.44 1131.98 132.05C1128.38 130.47 1124.36 129.67 1119.91 129.67C1116.82 129.67 1114.32 129.74 1112.4 129.87C1111.91 129.9 1111.42 129.94 1110.94 129.97C1110.45 130 1109.96 130.04 1109.48 130.08C1108.99 130.11 1108.5 130.15 1108.02 130.19C1107.53 130.23 1107.04 130.27 1106.56 130.32C1106.56 130.91 1106.53 132.24 1106.49 134.3C1106.44 136.35 1106.42 138.67 1106.42 141.23L1106.42 192.48C1106.42 194.96 1106.44 197.23 1106.49 199.28C1106.53 201.34 1106.56 202.67 1106.56 203.27C1107.83 203.35 1109.38 203.44 1111.17 203.53C1112.97 203.61 1115.2 203.65 1117.85 203.65C1127.53 203.65 1135.19 200.36 1140.84 193.76L1140.84 193.76ZM1224.9 122.81C1229.82 122.68 1233.14 122.53 1234.85 122.36C1234.51 123.73 1234.34 125.53 1234.34 127.75C1234.33 128.02 1234.33 128.29 1234.34 128.55C1234.34 128.82 1234.35 129.09 1234.36 129.36C1234.37 129.62 1234.38 129.89 1234.4 130.16C1234.42 130.42 1234.44 130.69 1234.46 130.96C1234.49 131.17 1234.52 131.39 1234.54 131.6C1234.57 131.82 1234.6 132.03 1234.64 132.25C1234.67 132.46 1234.7 132.68 1234.74 132.89C1234.77 133.1 1234.81 133.32 1234.85 133.53C1232.37 133.36 1229.65 133.19 1226.7 133.02C1223.74 132.85 1220.87 132.67 1218.09 132.5C1215.31 132.34 1212.8 132.21 1210.58 132.11C1208.35 132.04 1206.77 131.99 1205.83 131.99C1205.48 136.7 1205.29 141.37 1205.25 145.98C1205.21 150.61 1205.18 155.27 1205.18 159.98C1210.75 159.91 1215.78 159.77 1220.27 159.6C1224.76 159.43 1229.45 159.22 1234.34 158.96C1234.08 160.41 1233.91 161.53 1233.83 162.3C1233.74 163.07 1233.7 163.88 1233.7 164.74C1233.7 164.91 1233.7 165.09 1233.71 165.27C1233.72 165.45 1233.73 165.62 1233.74 165.8C1233.76 165.98 1233.78 166.15 1233.8 166.33C1233.83 166.51 1233.85 166.68 1233.89 166.86C1234.02 167.59 1234.16 168.64 1234.34 170C1224.57 169.23 1214.85 168.85 1205.18 168.85C1205.18 171.59 1205.16 174.34 1205.12 177.07C1205.07 179.81 1205.06 182.55 1205.06 185.29C1205.05 186.63 1205.06 187.97 1205.08 189.3C1205.09 190.64 1205.12 191.98 1205.15 193.32C1205.18 194.66 1205.22 195.99 1205.27 197.33C1205.32 198.67 1205.37 200.01 1205.44 201.34C1210.32 201.34 1215.2 201.21 1220.08 200.96C1221.31 200.89 1222.55 200.82 1223.78 200.73C1225.01 200.64 1226.24 200.55 1227.48 200.44C1228.71 200.33 1229.94 200.21 1231.17 200.09C1232.4 199.96 1233.62 199.82 1234.85 199.67C1234.68 200.61 1234.55 201.47 1234.46 202.25C1234.38 203.01 1234.34 204.08 1234.34 205.45C1234.34 206.82 1234.38 207.89 1234.46 208.66C1234.48 208.82 1234.5 208.99 1234.52 209.15C1234.55 209.31 1234.58 209.47 1234.61 209.63C1234.64 209.79 1234.68 209.95 1234.72 210.11C1234.76 210.27 1234.8 210.43 1234.85 210.58C1232.54 210.5 1229.69 210.44 1226.31 210.39C1222.93 210.35 1218.29 210.33 1212.38 210.33L1192.03 210.33C1190.1 210.33 1188.63 210.35 1187.65 210.39C1186.67 210.44 1185.84 210.5 1185.15 210.58C1185.23 209.23 1185.31 207.88 1185.39 206.53C1185.47 205.17 1185.54 203.82 1185.6 202.46C1185.66 201.11 1185.72 199.76 1185.78 198.4C1185.83 197.05 1185.88 195.69 1185.92 194.34C1186.09 188.82 1186.18 182.51 1186.18 175.4L1186.18 157.93C1186.18 150.83 1186.09 144.51 1185.92 138.99C1185.74 133.47 1185.49 127.93 1185.15 122.36C1189 122.45 1192.81 122.58 1196.58 122.74C1197.53 122.78 1198.48 122.82 1199.44 122.85C1200.39 122.89 1201.34 122.91 1202.29 122.94C1203.25 122.96 1204.2 122.97 1205.15 122.98C1206.1 123 1207.06 123 1208.01 123C1214.35 123 1219.98 122.94 1224.9 122.81ZM1318.46 122.36C1320.85 122.79 1322.78 123.01 1324.24 123.01C1325.69 123.01 1327.62 122.79 1330.02 122.36C1329.58 130.14 1329.25 137.19 1328.98 143.49C1328.73 149.78 1328.52 155.7 1328.34 161.27C1328.18 166.84 1328.06 172.34 1328.02 177.77C1327.98 183.21 1327.97 189.02 1327.97 195.18L1327.97 210.59C1326.25 210.41 1324.49 210.33 1322.7 210.33C1320.81 210.33 1319.15 210.41 1317.69 210.59C1313.14 205.3 1308.57 200.05 1303.95 194.82C1299.34 189.59 1294.7 184.39 1290.02 179.22C1285.34 174.05 1280.63 168.91 1275.89 163.8C1271.15 158.69 1266.37 153.61 1261.57 148.56C1261.52 149.81 1261.48 151.07 1261.45 152.32C1261.41 153.57 1261.39 154.82 1261.37 156.07C1261.34 157.33 1261.33 158.58 1261.32 159.83C1261.31 161.08 1261.31 162.34 1261.31 163.59L1261.31 178.49C1261.31 179.58 1261.31 180.67 1261.31 181.76C1261.32 182.85 1261.32 183.94 1261.32 185.03C1261.33 186.12 1261.33 187.21 1261.34 188.31C1261.35 189.4 1261.36 190.49 1261.37 191.58C1261.38 192.85 1261.4 194.12 1261.42 195.38C1261.45 196.65 1261.48 197.92 1261.52 199.19C1261.56 200.46 1261.6 201.73 1261.65 202.99C1261.7 204.26 1261.76 205.53 1261.82 206.8C1261.84 207.11 1261.85 207.43 1261.87 207.75C1261.89 208.06 1261.91 208.38 1261.93 208.69C1261.95 209.01 1261.98 209.33 1262 209.64C1262.02 209.96 1262.05 210.27 1262.07 210.59C1261.05 210.41 1260.02 210.33 1258.99 210.33L1256.05 210.33C1255.55 210.33 1255.06 210.33 1254.57 210.34C1254.07 210.35 1253.58 210.37 1253.09 210.39C1252.6 210.41 1252.1 210.44 1251.61 210.47C1251.12 210.51 1250.63 210.55 1250.14 210.59C1250.3 209.91 1250.51 207.46 1250.78 203.27C1250.85 201.99 1250.93 200.71 1251 199.43C1251.08 198.15 1251.15 196.87 1251.22 195.59C1251.29 194.32 1251.36 193.04 1251.42 191.76C1251.49 190.48 1251.55 189.2 1251.62 187.92C1251.91 181.88 1252.17 175.34 1252.38 168.28C1252.59 161.21 1252.7 154.43 1252.7 147.91C1252.7 142.01 1252.62 137.05 1252.45 133.02C1252.27 128.99 1252.14 125.44 1252.06 122.36C1254.45 122.79 1256.38 123.01 1257.84 123.01C1259.29 123.01 1261.22 122.79 1263.62 122.36C1265.92 124.91 1268.22 127.46 1270.52 130.01C1272.82 132.56 1275.13 135.11 1277.43 137.66C1279.74 140.21 1282.05 142.75 1284.36 145.3C1286.67 147.84 1288.98 150.38 1291.29 152.93C1293.62 155.48 1295.95 158.04 1298.28 160.59C1300.62 163.14 1302.95 165.69 1305.29 168.24C1307.63 170.79 1309.97 173.33 1312.32 175.87C1314.66 178.42 1317.01 180.96 1319.36 183.5L1319.36 159.85C1319.36 155.67 1319.34 151.54 1319.29 147.47C1319.25 143.4 1319.2 139.65 1319.17 136.23C1319.13 132.8 1319.03 129.85 1318.91 127.37C1318.78 124.88 1318.62 123.22 1318.45 122.36L1318.46 122.36ZM1408.74 122.36C1408.74 122.36 1408.74 122.36 1408.74 122.36C1408.74 122.36 1408.74 122.36 1408.74 122.35L1408.74 122.36ZM1408.74 122.36C1408.57 123.3 1408.41 124.25 1408.29 125.18C1408.23 125.65 1408.18 126.12 1408.14 126.59C1408.11 127.06 1408.09 127.54 1408.09 128.01C1408.09 128.48 1408.11 128.95 1408.14 129.42C1408.18 129.9 1408.23 130.37 1408.29 130.83C1408.32 131.07 1408.36 131.31 1408.39 131.54C1408.42 131.78 1408.46 132.02 1408.5 132.25C1408.53 132.49 1408.57 132.72 1408.61 132.96C1408.65 133.19 1408.69 133.43 1408.74 133.66C1407.02 133.4 1405.09 133.17 1402.96 132.96C1400.81 132.75 1398.69 132.57 1396.6 132.44C1394.5 132.31 1392.51 132.2 1390.63 132.12C1388.74 132.03 1387.15 131.99 1385.88 131.99C1385.85 132.14 1385.83 132.29 1385.8 132.44C1385.78 132.59 1385.76 132.74 1385.75 132.89C1385.73 133.04 1385.72 133.19 1385.7 133.34C1385.69 133.49 1385.69 133.64 1385.68 133.79C1385.64 134.56 1385.62 135.45 1385.62 136.49L1385.62 175.4C1385.62 182.51 1385.7 188.82 1385.88 194.34C1386.05 199.86 1386.3 205.28 1386.65 210.59C1385.19 210.41 1383.61 210.33 1381.89 210.33L1370.34 210.33C1368.62 210.33 1367.04 210.41 1365.59 210.59C1365.93 205.28 1366.18 199.86 1366.35 194.34C1366.53 188.82 1366.61 182.51 1366.61 175.4L1366.61 143.3C1366.61 140.81 1366.59 138.54 1366.55 136.49C1366.5 134.43 1366.4 132.94 1366.23 131.99C1364.94 131.99 1363.36 132.03 1361.48 132.12C1359.59 132.2 1357.58 132.31 1355.44 132.44C1353.3 132.57 1351.11 132.74 1348.89 132.96C1348.37 133.01 1347.86 133.06 1347.35 133.11C1346.83 133.16 1346.32 133.22 1345.8 133.28C1345.29 133.34 1344.78 133.4 1344.27 133.46C1343.75 133.53 1343.24 133.59 1342.73 133.66C1342.9 132.73 1343.05 131.78 1343.17 130.84C1343.24 130.37 1343.29 129.9 1343.32 129.43C1343.35 128.96 1343.37 128.48 1343.37 128.01C1343.37 127.54 1343.35 127.07 1343.32 126.59C1343.29 126.12 1343.24 125.65 1343.17 125.18C1343.05 124.25 1342.9 123.3 1342.73 122.36C1345.64 122.45 1348.27 122.53 1350.62 122.62C1352.98 122.7 1355.38 122.77 1357.81 122.81C1360.26 122.85 1362.91 122.89 1365.78 122.93C1368.65 122.98 1372.09 123.01 1376.12 123.01C1380.14 123.01 1383.59 122.98 1386.46 122.93C1389.32 122.89 1391.95 122.85 1394.35 122.81C1396.75 122.77 1399.08 122.7 1401.35 122.62C1403.62 122.53 1406.08 122.45 1408.74 122.36ZM1442.39 157.94L1442.39 175.4C1442.39 176.98 1442.39 178.56 1442.4 180.13C1442.41 181.71 1442.42 183.29 1442.44 184.87C1442.47 186.45 1442.49 188.03 1442.53 189.61C1442.56 191.19 1442.6 192.77 1442.64 194.34C1442.81 199.86 1443.07 205.28 1443.41 210.58C1441.95 210.42 1440.37 210.33 1438.66 210.33L1427.1 210.33C1425.39 210.33 1423.8 210.42 1422.35 210.58C1422.69 205.28 1422.95 199.86 1423.12 194.34C1423.3 188.82 1423.38 182.51 1423.38 175.4L1423.38 157.94C1423.38 150.83 1423.3 144.51 1423.12 138.99C1422.95 133.47 1422.69 127.93 1422.35 122.36C1422.74 122.4 1423.14 122.45 1423.54 122.49C1423.93 122.53 1424.33 122.57 1424.72 122.61C1425.12 122.65 1425.52 122.68 1425.91 122.72C1426.31 122.75 1426.7 122.78 1427.1 122.81C1428.81 122.94 1430.75 123 1432.88 123C1435.02 123 1436.95 122.94 1438.66 122.81C1439.06 122.78 1439.45 122.75 1439.85 122.72C1440.25 122.68 1440.64 122.65 1441.04 122.61C1441.43 122.57 1441.83 122.53 1442.23 122.49C1442.62 122.45 1443.02 122.4 1443.41 122.36C1443.07 127.93 1442.81 133.47 1442.64 138.99C1442.47 144.51 1442.39 150.83 1442.39 157.94ZM1520.6 169.56C1521.35 171.46 1522.11 173.37 1522.87 175.27C1523.63 177.18 1524.4 179.08 1525.17 180.98C1525.94 182.88 1526.72 184.77 1527.5 186.67C1528.28 188.57 1529.06 190.46 1529.85 192.35C1532.84 199.54 1535.58 205.63 1538.06 210.59C1536.01 210.41 1534.06 210.33 1532.22 210.33L1521.31 210.33C1520.85 210.33 1520.4 210.34 1519.94 210.35C1519.49 210.36 1519.03 210.37 1518.58 210.39C1518.12 210.41 1517.67 210.44 1517.21 210.47C1516.76 210.51 1516.3 210.54 1515.85 210.59C1514.48 206.39 1513.06 202.11 1511.61 197.75C1510.15 193.38 1508.61 189.01 1506.98 184.64C1505.61 184.6 1504.25 184.56 1502.88 184.53C1501.51 184.5 1500.14 184.47 1498.77 184.45C1497.4 184.43 1496.03 184.42 1494.66 184.41C1493.29 184.39 1491.92 184.39 1490.55 184.39C1489.43 184.39 1488.32 184.39 1487.21 184.4C1486.09 184.42 1484.98 184.43 1483.87 184.45C1482.75 184.47 1481.64 184.5 1480.53 184.53C1479.41 184.56 1478.3 184.6 1477.19 184.64C1475.48 189.01 1473.9 193.38 1472.44 197.75C1470.99 202.11 1469.66 206.39 1468.46 210.59C1467.43 210.41 1466.42 210.33 1465.44 210.33L1459.33 210.33C1459.05 210.33 1458.78 210.34 1458.5 210.35C1458.22 210.36 1457.94 210.38 1457.66 210.4C1457.38 210.42 1457.11 210.45 1456.83 210.48C1456.55 210.51 1456.28 210.55 1456 210.59C1456.35 209.82 1456.7 209.05 1457.04 208.28C1457.39 207.51 1457.73 206.74 1458.07 205.97C1458.42 205.2 1458.76 204.43 1459.1 203.66C1459.44 202.89 1459.77 202.11 1460.11 201.34C1461.82 197.41 1463.7 192.95 1465.75 187.99L1472.37 172C1472.97 170.56 1473.56 169.12 1474.15 167.68C1474.74 166.24 1475.33 164.81 1475.92 163.37C1476.51 161.93 1477.1 160.49 1477.68 159.04C1478.27 157.6 1478.85 156.16 1479.44 154.72C1481.79 148.9 1484.1 143.16 1486.37 137.51C1486.9 136.2 1487.42 134.89 1487.95 133.57C1488.47 132.26 1488.99 130.94 1489.51 129.62C1490.03 128.31 1490.55 126.99 1491.06 125.67C1491.58 124.35 1492.09 123.03 1492.6 121.71C1492.81 121.75 1493.01 121.79 1493.21 121.83C1493.41 121.87 1493.62 121.91 1493.82 121.95C1494.02 121.99 1494.23 122.03 1494.43 122.06C1494.63 122.1 1494.84 122.13 1495.04 122.17C1495.81 122.3 1496.62 122.35 1497.48 122.35C1498.33 122.35 1499.15 122.3 1499.92 122.17C1500.69 122.04 1501.5 121.89 1502.37 121.71C1505.1 128.99 1508.03 136.78 1511.16 145.09C1511.93 147.14 1512.7 149.18 1513.48 151.22C1514.26 153.27 1515.04 155.31 1515.83 157.35C1516.61 159.38 1517.4 161.42 1518.2 163.46C1519 165.49 1519.8 167.53 1520.6 169.56ZM1480.53 177.07L1504.03 177.07C1502.15 171.85 1500.29 166.73 1498.45 161.72C1496.6 156.71 1494.66 151.64 1492.6 146.5C1490.37 151.64 1488.27 156.71 1486.3 161.72C1485.8 162.99 1485.31 164.27 1484.82 165.54C1484.33 166.82 1483.84 168.1 1483.36 169.38C1482.88 170.66 1482.4 171.94 1481.93 173.22C1481.46 174.5 1480.99 175.79 1480.53 177.07Z" />
		<g id="Layer">
			<g id="Clip-Path" clip-path="url(#cp1)">
				<path id="Layer" fill-rule="evenodd" class="shp0" d="M1599.45 205.45C1599.45 204.09 1599.49 203.01 1599.59 202.25C1599.66 201.48 1599.8 200.61 1599.97 199.67C1598.74 199.82 1597.51 199.96 1596.28 200.09C1595.05 200.22 1593.82 200.34 1592.59 200.44C1591.36 200.55 1590.13 200.65 1588.9 200.73C1587.67 200.82 1586.43 200.89 1585.2 200.95C1580.31 201.21 1575.44 201.34 1570.55 201.34C1570.47 198 1570.41 194.07 1570.37 189.52C1570.32 184.99 1570.3 180.28 1570.3 175.4L1570.3 157.94C1570.3 150.83 1570.38 144.51 1570.55 138.99C1570.73 133.47 1570.98 127.93 1571.33 122.36C1569.88 122.53 1568.29 122.68 1566.58 122.81C1564.86 122.94 1562.93 123.01 1560.8 123.01C1558.66 123.01 1556.73 122.94 1555.02 122.81C1554.62 122.78 1554.22 122.75 1553.83 122.72C1553.43 122.68 1553.03 122.65 1552.64 122.61C1552.24 122.57 1551.84 122.53 1551.45 122.49C1551.05 122.45 1550.66 122.4 1550.26 122.36C1550.61 127.93 1550.86 133.47 1551.03 138.99C1551.21 144.51 1551.3 150.83 1551.3 157.94L1551.3 175.4C1551.3 182.51 1551.21 188.83 1551.04 194.34C1551 195.7 1550.95 197.05 1550.89 198.41C1550.84 199.76 1550.78 201.12 1550.72 202.47C1550.65 203.83 1550.58 205.18 1550.51 206.53C1550.43 207.89 1550.35 209.24 1550.26 210.59C1550.95 210.51 1551.78 210.44 1552.77 210.39C1553.75 210.35 1555.22 210.33 1557.13 210.33L1577.5 210.33C1583.4 210.33 1588.05 210.35 1591.42 210.39C1594.81 210.44 1597.65 210.51 1599.97 210.59C1599.92 210.44 1599.87 210.28 1599.83 210.12C1599.79 209.96 1599.76 209.8 1599.72 209.64C1599.69 209.48 1599.67 209.31 1599.64 209.15C1599.62 208.99 1599.6 208.82 1599.59 208.66C1599.49 207.9 1599.45 206.82 1599.45 205.45" />
			</g>
		</g>
		<path id="Layer" fill-rule="evenodd" class="shp1" d="M455.01 258.12C454.61 266.54 454.22 275.05 454.22 283.47L454.22 300.3C454.22 308.72 454.61 317.24 455.01 325.65C453.34 325.35 451.78 325.17 450.21 325.17C448.65 325.17 447.07 325.36 445.42 325.65C445.81 317.24 446.19 308.72 446.19 300.3L446.19 283.47C446.19 275.05 445.81 266.54 445.42 258.12C447.08 258.42 448.65 258.61 450.21 258.61C451.78 258.61 453.34 258.42 455.01 258.12ZM510.37 276.89C511.15 276.89 511.87 276.75 512.65 276.54C512.22 280.73 511.51 294.78 511.51 300.32C511.51 307.57 511.66 323.25 511.72 326.44L510.73 326.44C499.94 313.74 487.02 300.11 474.89 287.19C474.81 289.81 474.67 294.08 474.67 301.6C474.67 307.7 474.96 322.68 475.31 325.52C474.53 325.31 473.67 325.17 472.83 325.17C471.97 325.17 471.12 325.31 470.2 325.52C470.77 322.19 471.69 304.02 471.69 294.65C471.69 285.7 471.69 278.81 471.47 275.62L472.62 275.62C484.18 288.18 499.87 305.29 508.53 314.02C508.53 301.31 508.53 287.47 507.96 276.54C508.75 276.75 509.6 276.89 510.37 276.89ZM559.96 276.54C560.82 276.75 561.74 276.89 562.59 276.89C563.44 276.89 564.36 276.75 565.21 276.54C563.39 280.57 561.6 284.61 559.83 288.67C558.07 292.73 556.33 296.8 554.63 300.88C552.93 304.96 551.25 309.06 549.61 313.16C547.97 317.27 546.36 321.39 544.77 325.52C543.99 325.31 543.21 325.16 542.43 325.16C541.64 325.16 540.73 325.31 540.09 325.52C535.83 313.81 527.17 292.87 520.28 276.54C520.59 276.6 520.89 276.65 521.2 276.69C521.51 276.73 521.81 276.77 522.12 276.8C522.43 276.83 522.74 276.85 523.05 276.86C523.36 276.88 523.67 276.89 523.98 276.89C524.29 276.89 524.6 276.88 524.91 276.86C525.21 276.85 525.52 276.82 525.83 276.8C526.14 276.77 526.44 276.73 526.75 276.69C527.06 276.65 527.36 276.6 527.67 276.54C531.85 289.1 537.89 304.15 543.85 318.49C549.03 306.99 556.98 285.84 559.96 276.54ZM579.38 322.18C585.7 322.18 594.07 322.11 598.54 321.26C598.41 321.9 598.33 322.83 598.33 323.47C598.33 323.64 598.33 323.81 598.34 323.98C598.35 324.16 598.36 324.33 598.38 324.5C598.4 324.67 598.42 324.84 598.45 325.02C598.48 325.19 598.51 325.36 598.54 325.53C594.36 325.31 590.1 325.17 585.77 325.17C584.69 325.17 583.61 325.18 582.53 325.19C581.46 325.21 580.38 325.23 579.3 325.26C578.23 325.29 577.15 325.33 576.07 325.37C575 325.42 573.92 325.47 572.85 325.53C573.13 319.34 573.42 313.17 573.42 307.06L573.42 294.86C573.42 288.75 573.13 282.58 572.85 276.54C577.11 276.76 581.29 276.89 585.55 276.89C586.61 276.89 587.66 276.88 588.71 276.86C589.77 276.85 590.82 276.83 591.87 276.8C592.93 276.77 593.98 276.73 595.03 276.69C596.09 276.65 597.14 276.6 598.19 276.54C598.05 277.25 597.98 277.96 597.98 278.67C597.98 278.85 597.98 279.03 597.99 279.2C598 279.38 598.01 279.56 598.03 279.74C598.05 279.92 598.07 280.1 598.1 280.27C598.12 280.45 598.16 280.63 598.19 280.8C592.22 280.37 588.75 279.88 579.53 279.88C579.45 282.93 579.23 285.41 579.23 288.89C579.23 292.59 579.31 296.49 579.31 298.26C587.68 298.26 592.37 297.91 596.56 297.55C596.42 298.26 596.34 299.04 596.34 299.75C596.34 299.93 596.35 300.11 596.36 300.28C596.37 300.46 596.38 300.64 596.4 300.82C596.42 301 596.44 301.17 596.46 301.35C596.49 301.53 596.52 301.7 596.56 301.88C591.66 301.38 582.72 301.24 579.31 301.24C579.23 302.95 579.23 304.72 579.23 311.53C579.23 316.93 579.31 320.41 579.38 322.18ZM611.92 287.05C611.92 300.33 634.27 294.79 634.27 310.47C634.27 319.13 627.82 326.45 616.89 326.45C610.99 326.45 607.66 324.39 605.17 322.4C606.02 320.19 606.23 318.78 606.52 316.08L607.37 316.08C608.94 319.42 612.48 323.46 618.58 323.46C624.91 323.46 628.74 318.85 628.74 313.17C628.74 300.11 606.38 305.71 606.38 289.03C606.38 281.15 612.35 275.62 621.78 275.62C626.25 275.62 629.45 276.68 632.29 278.96C631.44 280.59 630.94 282.22 630.37 284.92L629.52 284.92C628.52 282.29 626.4 278.24 621.07 278.24C615.75 278.24 611.92 281.86 611.92 287.05ZM657.23 276.89C663.33 276.89 669.44 276.75 675.55 276.54C675.33 277.32 675.19 278.03 675.19 278.81C675.19 279 675.2 279.18 675.22 279.37C675.24 279.56 675.26 279.74 675.29 279.93C675.32 280.11 675.36 280.29 675.4 280.48C675.44 280.66 675.49 280.84 675.55 281.02C671.57 280.51 665.25 280.23 660.35 280.23C660.21 285.13 660.14 290.02 660.14 294.93L660.14 307.14C660.14 313.23 660.42 319.42 660.7 325.52C659.5 325.31 658.37 325.17 657.23 325.17C656.09 325.17 654.96 325.31 653.75 325.52C654.04 319.42 654.32 313.23 654.32 307.14L654.32 294.93C654.32 290.02 654.25 285.13 654.11 280.23C649.21 280.23 642.89 280.51 638.91 281.02C639.13 280.3 639.27 279.52 639.27 278.75C639.27 278.03 639.13 277.32 638.91 276.54C645.02 276.75 651.13 276.89 657.23 276.89ZM730.87 275.62C733 293.79 734.42 309.26 736.69 325.52C735.55 325.31 734.49 325.16 733.35 325.16C733.07 325.17 732.79 325.18 732.51 325.19C732.23 325.21 731.95 325.23 731.67 325.26C731.39 325.29 731.12 325.33 730.84 325.37C730.56 325.42 730.29 325.47 730.01 325.52C729.02 312.81 728.03 301.03 726.54 288.89L726.4 288.89C719.94 300.75 713.4 312.39 707.8 325.16L707.16 325.16C701.62 313.38 695.1 301.17 688.91 288.89L688.77 288.89C687.43 300.61 685.44 317.5 685.37 325.52C684.52 325.31 683.73 325.16 682.88 325.16C682.03 325.16 681.25 325.31 680.4 325.52C682.88 309.83 685.72 290.67 687.28 275.62L688.49 275.62C694.95 288.97 701.62 301.46 708.86 314.73C711.7 309.2 722.99 288.75 729.94 275.62L730.87 275.62ZM753.07 322.18C759.38 322.18 767.76 322.11 772.23 321.26C772.09 321.9 772.01 322.83 772.01 323.47C772.01 323.64 772.02 323.81 772.03 323.98C772.04 324.16 772.05 324.33 772.07 324.5C772.09 324.67 772.11 324.84 772.14 325.02C772.16 325.19 772.19 325.36 772.23 325.53C768.04 325.31 763.79 325.17 759.45 325.17C758.37 325.17 757.3 325.18 756.22 325.19C755.14 325.21 754.07 325.23 752.99 325.26C751.91 325.29 750.84 325.33 749.76 325.37C748.68 325.42 747.61 325.47 746.53 325.53C746.81 319.34 747.1 313.17 747.1 307.06L747.1 294.86C747.1 288.75 746.81 282.58 746.53 276.54C750.79 276.76 754.98 276.89 759.24 276.89C760.29 276.89 761.35 276.88 762.4 276.86C763.45 276.85 764.51 276.83 765.56 276.8C766.61 276.77 767.67 276.73 768.72 276.69C769.77 276.65 770.83 276.6 771.88 276.54C771.73 277.25 771.66 277.96 771.66 278.67C771.66 278.85 771.67 279.03 771.68 279.2C771.68 279.38 771.7 279.56 771.72 279.74C771.73 279.92 771.76 280.1 771.78 280.27C771.81 280.45 771.84 280.63 771.88 280.8C765.91 280.37 762.43 279.88 753.21 279.88C753.14 282.93 752.91 285.41 752.91 288.89C752.91 292.59 752.99 296.49 752.99 298.26C761.37 298.26 766.06 297.91 770.25 297.55C770.1 298.26 770.03 299.04 770.03 299.75C770.03 299.93 770.03 300.11 770.04 300.28C770.05 300.46 770.07 300.64 770.08 300.82C770.1 301 770.12 301.17 770.15 301.35C770.18 301.53 770.21 301.7 770.25 301.88C765.34 301.38 756.41 301.24 752.99 301.24C752.92 302.95 752.92 304.72 752.92 311.53C752.91 312.42 752.91 313.31 752.92 314.2C752.92 315.08 752.93 315.97 752.94 316.86C752.96 317.75 752.97 318.63 752.99 319.52C753.01 320.41 753.04 321.3 753.07 322.18ZM822.23 276.89C823.01 276.89 823.72 276.75 824.5 276.54C824.07 280.73 823.36 294.78 823.36 300.32C823.36 307.57 823.51 323.25 823.57 326.44L822.59 326.44C811.8 313.74 798.87 300.11 786.74 287.19C786.66 289.81 786.53 294.08 786.53 301.6C786.53 307.7 786.81 322.68 787.16 325.52C786.38 325.31 785.53 325.17 784.68 325.17C783.83 325.17 782.98 325.31 782.05 325.52C782.62 322.19 783.55 304.02 783.55 294.65C783.55 285.7 783.55 278.81 783.33 275.62L784.47 275.62C796.03 288.18 811.73 305.29 820.38 314.02C820.38 301.31 820.38 287.47 819.81 276.54C820.6 276.75 821.45 276.89 822.23 276.89ZM850.66 276.89C856.77 276.89 862.87 276.75 868.98 276.54C868.76 277.32 868.62 278.03 868.62 278.81C868.62 279 868.63 279.18 868.65 279.37C868.67 279.56 868.69 279.74 868.72 279.93C868.75 280.11 868.79 280.29 868.83 280.48C868.88 280.66 868.92 280.84 868.98 281.02C865 280.51 858.68 280.23 853.79 280.23C853.64 285.13 853.57 290.02 853.57 294.93L853.57 307.14C853.57 313.23 853.86 319.42 854.14 325.52C852.93 325.31 851.8 325.17 850.66 325.17C849.53 325.17 848.39 325.31 847.19 325.52C847.47 319.42 847.75 313.23 847.75 307.14L847.75 294.93C847.75 290.02 847.68 285.13 847.54 280.23C842.64 280.23 836.33 280.51 832.34 281.02C832.56 280.3 832.7 279.52 832.7 278.75C832.7 278.03 832.56 277.32 832.34 276.54C838.45 276.75 844.56 276.89 850.66 276.89ZM938.45 260.47C923.09 260.47 911.34 270.16 911.34 291.89C911.34 313.61 923.09 323.31 938.45 323.31C947.75 323.31 954.6 318.02 958.32 315.19L958.71 315.57L957.83 321.35C955.38 323.3 947.26 326.93 937.47 326.93C916.83 326.93 901.75 314.1 901.75 291.89C901.75 269.67 916.83 256.85 938.45 256.85C946.87 256.85 954.41 258.9 959.7 261.35C958.71 263.11 958.02 266.93 957.64 268.98L957.05 269.18C954.31 266.15 947.66 260.47 938.45 260.47L938.45 260.47ZM1019.06 301.03C1019.06 317.15 1008.14 326.45 992.45 326.45C976.83 326.45 965.9 317.15 965.9 301.03C965.9 284.91 976.83 275.62 992.45 275.62C1008.14 275.62 1019.06 284.91 1019.06 301.03ZM992.45 323.82C1003.59 323.82 1012.12 316.79 1012.12 301.03C1012.12 285.27 1003.59 278.24 992.45 278.24C981.38 278.24 972.86 285.27 972.86 301.03C972.86 316.79 981.38 323.81 992.45 323.81L992.45 323.82ZM1059.43 287.75C1059.43 296.91 1050.28 300.6 1044.88 301.31C1048.36 305.64 1060.22 320.9 1064.34 325.53C1062.92 325.31 1061.49 325.17 1060.07 325.17C1059.72 325.17 1059.38 325.18 1059.04 325.2C1058.69 325.21 1058.35 325.24 1058 325.27C1057.66 325.3 1057.32 325.33 1056.98 325.38C1056.64 325.42 1056.29 325.47 1055.95 325.53C1053.12 321.19 1043.68 308.13 1037.57 301.95L1034.87 301.95L1034.87 307.14C1034.87 313.23 1035.15 319.41 1035.44 325.53C1034.23 325.31 1033.1 325.17 1031.96 325.17C1031.67 325.17 1031.38 325.18 1031.09 325.2C1030.8 325.21 1030.5 325.24 1030.21 325.27C1029.92 325.3 1029.64 325.33 1029.35 325.38C1029.06 325.42 1028.77 325.47 1028.49 325.53C1028.77 319.41 1029.06 313.23 1029.06 307.14L1029.06 294.93C1029.06 288.82 1028.77 282.65 1028.49 276.54C1031.19 276.76 1033.88 276.89 1036.58 276.89C1039.28 276.89 1041.97 276.54 1044.67 276.54C1052.69 276.54 1059.43 279.31 1059.43 287.75ZM1034.87 298.97C1036.15 299.26 1037.78 299.33 1039.63 299.33C1045.45 299.33 1053.19 296.91 1053.19 288.47C1053.19 281.01 1047.02 279.16 1042.18 279.16C1038.92 279.16 1036.79 279.38 1035.3 279.52C1035.09 284.71 1034.87 289.81 1034.87 294.93L1034.87 298.97ZM1087.57 276.54C1091.83 276.54 1103.12 276.69 1103.12 288.54C1103.12 301.03 1090.84 303.44 1084.03 303.44C1081.89 303.44 1080.12 303.37 1078.27 303.23L1078.27 307.13C1078.27 313.24 1078.56 319.42 1078.84 325.52C1077.63 325.31 1076.49 325.16 1075.36 325.16C1074.22 325.16 1073.09 325.31 1071.89 325.52C1072.17 319.42 1072.46 313.24 1072.46 307.13L1072.46 294.93C1072.46 288.82 1072.17 282.65 1071.88 276.54C1074.15 276.76 1076.5 276.89 1078.76 276.89C1081.04 276.89 1085.58 276.54 1087.57 276.54L1087.57 276.54ZM1096.59 288.96C1096.59 280.87 1091.97 279.17 1084.66 279.17L1078.27 279.17L1078.27 300.25C1079.76 300.61 1081.75 300.82 1083.31 300.82C1089.13 300.82 1096.59 298.62 1096.59 288.96ZM1109.81 321.97C1109.81 324.18 1107.96 326.02 1105.76 326.02C1103.57 326.02 1101.73 324.18 1101.73 321.97C1101.73 319.77 1103.56 317.92 1105.76 317.92C1107.96 317.92 1109.81 319.77 1109.81 321.97Z" />
		<path id="Layer" fill-rule="evenodd" class="shp0" d="M202.2 33.74L372.18 203.71L311.86 264.01L223.81 264.01L223.81 200.07L178.83 200.07L178.83 264.01L92.53 264.01L32.23 203.71L202.2 33.74L202.2 33.74ZM306.72 224.6L325.06 206.26L272.31 153.51L272.31 110.1L245.57 110.1L245.57 126.76L220.06 101.26L220.11 101.21L201.78 82.87L201.71 82.92L201.67 82.87L183.33 101.21L183.38 101.26L78.39 206.26L96.73 224.6L201.72 119.6L306.72 224.6Z" />
		<path id="Layer" fill-rule="evenodd" class="shp2" d="M272.3 153.5L272.3 110.11L245.56 110.11L245.56 126.76L220.06 101.26L220.11 101.21L201.78 82.87L201.71 82.92L201.67 82.87L183.33 101.21L183.38 101.26L78.39 206.26L96.73 224.6L201.72 119.6L306.73 224.61L325.06 206.25L272.3 153.5Z" />
		<g id="Layer">
			<g id="Clip-Path" clip-path="url(#cp2)">
				<path id="Layer" fill-rule="evenodd" class="shp1" d="M203.05 2.11L203.19 1.97L404.7 203.49L403.32 204.85L403.24 204.76L203.25 404.75L203.29 404.79L201.92 406.15L1.41 205.64L1.33 205.71L0 204.37L202.66 1.71L203.05 2.11L203.05 2.11ZM201.76 403.27L201.76 403.27L201.76 403.27L201.76 403.27ZM201.76 403.27L401.76 203.28L202.77 4.3L2.78 204.27L201.76 403.27Z" />
			</g>
		</g>
		<path id="Layer" fill-rule="evenodd" class="shp2" d="M223.81 200.07L178.83 200.07L178.83 264.01L92.53 264.01L104.99 276.47L299.41 276.47L311.86 264.01L223.81 264.01L223.81 200.07Z" />
		<path id="Layer" fill-rule="evenodd" class="shp1" d="M104.99 276.47L202.21 373.67L299.38 276.47L104.99 276.47Z" />
	</g>
</svg>