<svg version="1.2" xmlns="http://www.w3.org/2000/svg" viewBox="0 0 1586 195" width="1586" height="195">
	<title>nnn-svg</title>
	<style>
		.s0 { fill: #024da0 } 
		.s1 { fill: #a8cb3a } 
	</style>
	<path id="Fill-4" class="s0" d="m1425.1 80.5q-12.6-11.1-25.4-22.1c-0.8-0.4-1.4-1.1-1.9-1.9-0.4-0.8-0.7-1.7-0.7-2.6 0-0.9 0.3-1.8 0.7-2.6 0.5-0.8 1.1-1.4 1.9-1.9 17-14.7 33.8-29.4 50.9-44q0.8-0.6 1.6-1.1 0.9-0.5 1.8-0.8 0.9-0.4 1.9-0.5 1-0.2 2-0.3c16.8-0.2 33.6 0 50.5 0 3.2 0 6.3 0 6.9 5.2q-0.3 0.5-0.6 1-0.3 0.5-0.7 1-0.3 0.4-0.7 0.9-0.3 0.4-0.7 0.8-39.6 34.7-79.3 69.1-0.8 0.8-1.9 1.3-1.1 0.4-2.2 0.4-1.2 0-2.3-0.5-1-0.5-1.8-1.4zm57.7 112.4q-2.3-0.2-4.6-0.2-2.3-0.1-4.6-0.1-2.4 0-4.7 0.1-2.3 0-4.6 0.2-2.6 0.2-5.2-0.1-2.5-0.3-5-1.2-2.5-0.9-4.6-2.4-2.2-1.4-4-3.3c-14.7-13.4-29.9-26.2-44.9-39.2-4.8-4.2-4.7-6.3 0-10.5 7.9-6.9 15.9-13.6 23.7-20.5 0.6-0.7 1.3-1.3 2.2-1.7 0.9-0.4 1.8-0.6 2.7-0.6 1 0 1.9 0.2 2.8 0.6 0.8 0.4 1.6 1 2.2 1.7 25.9 22.6 51.9 45.2 77.6 67.7 1.7 1.4 2 4.4 3 6.7q-0.8 0.5-1.6 0.8-0.7 0.4-1.6 0.7-0.8 0.4-1.6 0.6-0.8 0.3-1.7 0.4c-8.5 0.4-17 0.3-25.5 0.3z"/>
	<path id="Fill-1" class="s1" d="m1306.9 5.1q50.5 43.7 100.8 87.4c4.5 4.1 4.6 6.3 0 10.1q-50.5 44-101.2 87.8-0.7 0.5-1.4 0.9-0.8 0.4-1.6 0.7-0.8 0.3-1.6 0.4-0.9 0.2-1.7 0.2c-8.7 0.3-17.4 0-26.1 0h-25q-0.8-0.2-1.6-0.4-0.9-0.3-1.7-0.6-0.8-0.3-1.6-0.7-0.8-0.4-1.5-0.9c0.9-2.3 1.3-5.2 3-6.7 23.6-20.8 47.4-41.4 71.1-62 7-6.1 14-12.1 20.9-18.1 5.7-5 5.7-6.1 0-10.9q-45.8-39.9-91.7-79.7-0.7-0.5-1.2-1.2-0.6-0.6-1.1-1.3-0.5-0.7-0.8-1.5-0.4-0.7-0.6-1.6c-0.4-3.3 2.3-4.5 5.4-4.5h53.3q0.8 0.1 1.6 0.3 0.8 0.2 1.5 0.5 0.8 0.4 1.5 0.8 0.7 0.5 1.3 1z"/>
	<path id="Fill-2" fill-rule="evenodd" class="s0" d="m1554.6 188.1c-0.4-7.4-0.3-14.8 0-22.2 0-1.5 1.4-2.9 2.1-4.4 1.5 0.8 3.4 1.3 4.3 2.5 3 4.1 5.6 8.2 8.7 13.2 2.9-4.6 5.6-8.5 8.2-12.6 2.6-4.1 4.6-4.4 7.6-1v27.1l-4.5 1.8q-0.2-0.5-0.4-1-0.3-0.6-0.4-1.1-0.2-0.6-0.3-1.1-0.2-0.6-0.3-1.2 0-1.7 0-3.5-0.1-1.8-0.2-3.5-0.2-1.8-0.4-3.6-0.3-1.7-0.6-3.5-2 2.7-3.9 5.5c-4.1 6.3-5.3 6.3-9.7 0q-0.5-0.7-1-1.4-0.5-0.7-1.1-1.3-0.6-0.6-1.3-1.1-0.7-0.6-1.4-1c0 4.5 0.2 9.1 0 13.7 0 1.5-1.6 3.1-2.4 4.6-1.2-1.8-3-3.3-3-4.9zm-27.9-21.4c-1.2-0.3-2.2-1.7-3.2-2.6 0.9-0.8 1.9-2.3 3-2.4 6.4-0.2 12.9-0.2 19.4 0 1 0 2 1.9 2.9 2.9-1 0.8-2 1.9-3.1 2.1q-0.8 0.1-1.7 0.1-0.9 0.1-1.7 0.1-0.9 0-1.7-0.1-0.9 0-1.8-0.1v19.9c0 2.1-1.6 5.8-2.4 5.8-4.1 0-2.9-3.7-3-6.1v-19.6q-0.8 0.1-1.7 0.2-0.8 0-1.6 0-0.9 0-1.7-0.1-0.8 0-1.7-0.1zm-342.2 26.2c-4.4 0-6.4-1.9-6.5-6v-174c0-9.8 0.9-10.6 10.9-10.6h29.9c7 0 8.2 1.3 8.2 8.2v174.5c0 7.4-0.4 7.8-7.5 7.8-11.9 0.1-23.4-0.1-35 0.1zm-21.7-180.9v158.7c-0.9 18-10.3 25.8-28.1 23.1q-3.1-0.5-6.1-1.4-3-0.9-5.8-2.2-2.8-1.3-5.4-3-2.6-1.7-5-3.8-60.9-53-122-105.9-0.7-0.5-1.4-0.9-0.7-0.5-1.5-0.9-0.7-0.4-1.4-0.8-0.8-0.4-1.5-0.7-0.3 0.8-0.6 1.7-0.2 0.8-0.4 1.7-0.2 0.9-0.4 1.8-0.1 0.9-0.2 1.8v100.2c0 9.7-1.7 11.5-11.3 11.5h-28.4c-6.5 0-9-2.3-9-8.7v-158.2c0-13.5 4.7-20.2 16.5-25h9.8c15.4 2.3 25.8 12.7 36.8 22.3q54.3 47.4 109 94.4 0.7 0.5 1.5 1 0.7 0.4 1.5 0.8 0.8 0.3 1.7 0.7 0.8 0.3 1.6 0.5 0.3-0.7 0.5-1.6 0.3-0.8 0.5-1.6 0.2-0.8 0.3-1.6 0.2-0.9 0.3-1.7v-100.8c0-9.1 1.7-10.8 10.6-10.9 9 0 18.9 0 28.3 0 7.3 0.2 9.6 2.6 9.6 9.5zm-245.8 172.4q0.5 0.7 0.8 1.5 0.3 0.8 0.5 1.6 0.2 0.8 0.2 1.7-0.4 0.7-0.9 1.3-0.5 0.6-1.2 1-0.7 0.5-1.4 0.8-0.8 0.3-1.5 0.3-20.9 0.5-41.9 0-0.9-0.1-1.7-0.4-0.8-0.4-1.6-0.8-0.7-0.5-1.4-1.1-0.6-0.7-1.1-1.4-14.5-20.5-28.5-41.1-0.6-1-1.5-1.8-0.9-0.9-2-1.4-1.1-0.5-2.3-0.8-1.2-0.2-2.4-0.1h-108.2q-1.1 0-2.2 0.2-1.1 0.3-2.1 0.8-1 0.6-1.8 1.4-0.8 0.8-1.4 1.7c-9.2 13.6-18.8 27-28 40.6q-0.6 1.1-1.5 2-0.9 0.9-2 1.5-1.2 0.6-2.4 0.9-1.3 0.2-2.5 0.1c-12.7-0.2-25.4 0-38.1-0.2-2.2 0-5.8-0.9-6.3-2.3q-0.2-0.9-0.1-1.8 0-1 0.2-1.9 0.2-0.9 0.6-1.8 0.4-0.8 0.9-1.6 58.3-83.9 116.4-167.9 2-2.9 4.6-5.3 2.5-2.4 5.5-4.2 3-1.9 6.2-3.1 3.3-1.2 6.8-1.8h3.2c13.2 2 20.7 10.9 27.7 21.1 37 53.8 74.4 107.3 111.4 160.9q0.6 0.7 1 1.4zm-116.3-88.7c-7.3-10.8-15-21.6-22.4-32.4-2-3-4-3.3-6.1 0-7.4 10.6-14.9 21.2-22.2 31.9-3 4.4-2 6 3.5 6h44.4c4.5-0.1 5.3-1.6 2.8-5.5zm-115-93.1c9.2 0 11 1.8 11 11.2v21.7c0 7.2-2.5 9.7-9.8 9.7h-61.7c-8.2 0-8.7 0.5-8.7 8.5v128.9c0 8.2-2 10.2-10.2 10.2h-28.3c-7.8 0-9.9-2-9.9-10v-128.4c0-8.8-0.4-9.2-9.1-9.2h-61.1c-8.3 0-10.5-2.3-10.5-10.2-0.1-7.9 0-15.2 0-22.7 0-7.6 2.3-9.7 9.8-9.7zm-383.3 142.9q2.9 1 5.8 1.8 3 0.7 6 1.3 2.9 0.6 6 1 3 0.3 6 0.5c23.9 0.4 47.8 0 71.6-0.7q1.9-0.1 3.8-0.4 1.9-0.3 3.7-0.7 1.9-0.4 3.7-0.9 1.8-0.6 3.6-1.2c8.2-3 11-7.2 11-16v-115.9c0-10.3 1.5-11.7 12-11.7h26.7c7.5 0 9.9 2.3 9.9 9.6v124c0 28.2-18.1 48.1-48 53.1q-4.1 0.8-8.2 1.4-4.1 0.5-8.2 0.9-4.2 0.4-8.3 0.7-4.1 0.2-8.3 0.2c-30.5 0-61.1-0.7-91.6-2.1q-5.9-0.1-11.6-1.4-5.7-1.3-11.1-3.7-5.4-2.4-10.2-5.7-4.8-3.4-8.9-7.6-3.2-3.2-5.8-7.1-2.5-3.8-4.3-8.1-1.7-4.3-2.6-8.8-0.8-4.6-0.7-9.2v-126.8c0-7.3 2-9.4 9.2-9.4h29.3c7.4 0 9.8 2.3 9.9 9.7v118.6c-0.2 1.6-0.1 3.2 0.2 4.7 0.4 1.6 1 3.1 1.9 4.4 0.9 1.3 2 2.5 3.3 3.4 1.2 1 2.7 1.7 4.2 2.1zm-73.6-134v159.8c-1.7 18.9-11.6 26.1-30.3 22.1q-2.8-0.6-5.6-1.6-2.7-1-5.3-2.3-2.6-1.3-5-2.9-2.4-1.6-4.6-3.6-59.7-52-119.4-103.9-0.3-0.2-0.6-0.5-0.3-0.3-0.6-0.6-0.3-0.2-0.6-0.5-0.4-0.2-0.7-0.5c-1.8-1-3.7-1.9-5.5-2.8q-0.3 0.7-0.5 1.4-0.3 0.7-0.4 1.5-0.2 0.7-0.4 1.5-0.1 0.7-0.2 1.5v101.8c0 8.9-1.9 11-10.7 11-8.8 0-18.1-0.3-27.1 0q-1.6 0.1-3.1-0.1-1.5-0.2-2.9-0.8-1.5-0.5-2.7-1.5-1.2-0.9-2.2-2.1v-167.9c2.6-8.9 6.4-16.7 16.5-19.5h9.2c15.3 2.1 25.7 12.3 36.6 21.7q54.9 48.1 110.1 95.7 0.7 0.4 1.3 0.8 0.7 0.3 1.4 0.7 0.7 0.3 1.4 0.6 0.7 0.3 1.5 0.6 0.3-0.8 0.6-1.6 0.3-0.7 0.5-1.5 0.2-0.8 0.4-1.6 0.2-0.8 0.3-1.7v-101.3c0-8.9 1.9-10.8 10.8-10.8h28.8c6.7 0.1 9 2.5 9 8.9z"/>
</svg>