<svg version="1.2" xmlns="http://www.w3.org/2000/svg" viewBox="0 0 1568 318" width="1568" height="318">
	<title>NTRA_BIG-svg</title>
	<style>
		.s0 { fill: #ffffff } 
		.s1 { fill: #009adc } 
		.s2 { fill: #9aca3c } 
		.s3 { fill: #005e7f } 
	</style>
	<path id="Layer" fill-rule="evenodd" class="s0" d="m398.5 65.6h39.6v33.8h0.9c12.2-24.2 41.8-38.8 72.7-38.8 57.5 0 83.2 34.2 83.2 91.4v126.5h-40.9v-110.2c0-49.7-11.4-73.9-47.1-76-46.6 0-67.5 35.9-67.5 87.7v98.5h-40.9zm561.4 31.7h-58.8v116.5c0 24.6 15.7 38 34.4 38 12.7 0 21.8-3.8 27.9-7.5v33.3c-9.1 2.6-21.8 5.9-34.8 5.9-42.3 0-68.4-19.2-68.4-61.8v-124.4h-50.1v-31.7h50.1v-49.2l40.9-12.6v61.8h58.8zm193.4 172.4c-15.6 5.4-33.5 13.8-70.1 13.8-78.8 0-115-45.9-115-115.2 0-63 41.4-107.7 104.1-107.7 74.1 0 98 51.8 98 120.2h-158.5c0 42.2 34.4 71 73.2 71 27 0 58.3-13.4 68.3-21.3zm-26.5-118.1c0-32.6-20.1-59.3-55.3-59.3-40.1 0-56.7 31.7-59.7 59.3zm70.1-86h38.3v33h0.9c10.9-22.1 34.4-38 57.9-38 12.3 0 18.4 1.3 27.1 2.9v35.1c-7.4-2.9-15.7-3.8-22.7-3.8-36.6 0-60.5 33.4-60.5 86.9v96.8h-41zm-428.4 212.9v-27.6h-0.9c-9.6 13-31.3 32.6-68.8 32.6-47.9 0-81.5-20-81.5-66.4 0-53.4 61-70.1 103.3-70.1 16.1 0 27.4 0 43.5 0.8 0-36.7-13.9-55.5-54.9-55.5-21.5 0-48.6 7.9-66.2 23.3v-35.2c20.4-11.5 44.7-19.8 72.8-19.8 63.6 0 89.3 30.1 89.3 88.1v88c0 24.3 0.9 35.5 1.7 41.8zm-4.3-101.4c-8.7 0-17.4-0.9-26.2-0.9-22.2 0-77.1 3.4-77.1 40.9 0 22.6 22.7 34.7 41.4 34.7 40.5 0 61.9-24.2 61.9-56zm693.8 101.4v-27.6h-0.9c-9.6 13-31.4 32.6-68.8 32.6-47.9 0-81.5-20-81.5-66.4 0-53.4 61-70.1 103.3-70.1 16.1 0 27.4 0 43.5 0.8 0-36.7-13.9-55.5-54.9-55.5-21.1 0-44.6 7.1-61.2 18.5v-32.6c19.5-10.4 41.4-17.6 67.8-17.6 63.6 0 89.3 30.1 89.3 88.1v88c0 24.3 0.8 35.5 1.7 41.8zm-4.3-101.4c-8.8 0-17.5-0.9-26.2-0.9-22.2 0-77.1 3.4-77.1 40.9 0 22.6 22.7 34.7 41.4 34.7 40.5 0 61.9-24.2 61.9-56z"/>
	<g id="Layer">
		<path id="Layer" fill-rule="evenodd" class="s1" d="m21.8 158.7c-13.5-16.9-21.8-38.9-21.8-63.1 0-52.6 39.2-95.3 87.5-95.3 23.7 0 45.3 10.3 61 27.1-16.2 17.3-26.3 41.5-26.3 68.2 0 15.9 3.5 30.8 9.8 44-13-8.5-28.3-13.3-44.5-13.3-26.2 0-49.6 12.5-65.7 32.4z"/>
	</g>
	<g id="Layer">
		<path id="Layer" fill-rule="evenodd" class="s2" d="m175 95.6c0-26.7-10.2-50.9-26.4-68.2 15.7-16.8 37.3-27.1 61-27.1 48.4 0 87.5 42.7 87.5 95.3 0 24.2-8.2 46.2-21.8 63.1-16.1-19.9-39.5-32.4-65.7-32.4-16.2 0-31.4 4.8-44.5 13.3 6.3-13.2 9.9-28.1 9.9-44z"/>
	</g>
	<path id="Layer" fill-rule="evenodd" class="s3" d="m122.2 95.6c0-26.7 10.1-50.9 26.4-68.2 16.2 17.3 26.4 41.5 26.4 68.2 0 15.9-3.6 30.8-9.9 44-6 3.9-11.6 8.5-16.5 13.8-5-5.3-10.6-9.9-16.6-13.8-6.3-13.2-9.8-28.1-9.8-44z"/>
	<g id="Layer">
		<path id="Layer" fill-rule="evenodd" class="s2" d="m122.2 221.7c0 26.7 10.1 50.9 26.4 68.2-15.8 16.8-37.4 27.1-61.1 27.1-48.3 0-87.5-42.7-87.5-95.3 0-24.2 8.3-46.2 21.8-63.1 16.1 19.9 39.5 32.4 65.7 32.4 16.2 0 31.5-4.9 44.5-13.3-6.3 13.2-9.8 28.1-9.8 44z"/>
	</g>
	<path id="Layer" fill-rule="evenodd" class="s3" d="m21.8 158.6c16.1-19.8 39.5-32.3 65.7-32.3 16.2 0 31.5 4.8 44.5 13.3 3.3 6.9 7.3 13.3 12 19-4.7 5.8-8.7 12.2-12 19.1-13 8.4-28.3 13.3-44.5 13.3-26.2 0-49.6-12.5-65.7-32.4z"/>
	<g id="Layer">
		<path id="Layer" fill-rule="evenodd" class="s1" d="m275.3 158.6c13.6 16.9 21.8 38.9 21.8 63.1 0 52.6-39.1 95.3-87.5 95.3-23.7 0-45.3-10.3-61-27.1 16.2-17.3 26.4-41.5 26.4-68.2 0-15.9-3.6-30.8-9.9-44 13.1 8.4 28.3 13.3 44.5 13.3 26.2 0 49.6-12.5 65.7-32.4z"/>
	</g>
	<path id="Layer" fill-rule="evenodd" class="s3" d="m275.3 158.7c-16 19.8-39.5 32.3-65.6 32.3-16.3 0-31.5-4.8-44.6-13.3-3.3-6.9-7.3-13.3-12-19 4.7-5.8 8.7-12.2 12-19.1 13.1-8.5 28.3-13.3 44.6-13.3 26.1 0 49.6 12.5 65.6 32.4z"/>
	<path id="Layer" fill-rule="evenodd" class="s3" d="m175 221.7c0 26.7-10.2 50.9-26.4 68.2-16.3-17.3-26.4-41.5-26.4-68.2 0-15.9 3.5-30.8 9.8-44 6-3.9 11.6-8.5 16.6-13.8 4.9 5.3 10.5 9.9 16.5 13.8 6.3 13.2 9.9 28.1 9.9 44z"/>
	<path id="Layer" fill-rule="evenodd" class="s0" d="m1512.8 98h4.7v-30h10.1v-4.3h-24.9v4.3h10.1zm19 0h4.6v-29.7h0.1l10.7 29.7h4.6l10.8-29.7v29.7h4.7v-34.3h-7.7l-10 28.5-10.2-28.5h-7.6z"/>
</svg>