<svg version="1.2" xmlns="http://www.w3.org/2000/svg" viewBox="0 0 1511 1536" width="1511" height="1536">
	<title>ns_logo_stacked (3)-svg</title>
	<style>
		.s0 { fill: #252525 } 
	</style>
	<path id="Layer" class="s0" d="m1505 621.1c-21.7-50.4-53.1-96.1-92.5-134.3-83.8-78.8-201.8-109.5-313.3-81.4-111.4 28-201 111-237.5 220.1-18.7 50.9-28.2 104.8-28.2 159q0 355.3 0 711c0 39.7 0 39.7-43.7 37.7 0-7.5 0-15.9 0-23.8q0-401.8 0-803.2c-6.6-167 94.7-319.4 251.2-377.5 18.9-6.7 38.3-11.8 58-15.5 19-4 39.7-5.6 58.7-8-24.2-110.9-225.8-238.4-389.3-246-174.5-4.2-336.2 91.2-417.1 246 18.6 2.4 36.9 3.6 54.3 6.8 162.3 27.7 287.5 158.1 308.8 321.5 4.4 29.7 6.7 59.7 6.8 89.8q0 392.2 0 784.5c0 20.6-4.8 29.4-27 27-22.3-2.4-19.9-9.1-19.9-23.8 0-83.1 0-166.2 0-249.6q0-246.8 0-493.6c1.4-96.7-33.9-190.3-98.8-261.9-76.8-83.1-189.9-122.3-301.6-104.4-111.6 17.9-207 90.5-254 193.4-5.2 10-9.5 20.3-16.7 35 65.3-363.3 380.3-628.2 748.9-629.9 368.6-1.6 685.9 260.4 754.5 623.1m-490.2 863.6c0-7.5 0-12.7 0-17.9 0-139.9 0-278.2 0-420-2.6-67.9 23.3-133.8 71.4-181.7 60.9-58.4 151.5-73.2 227.8-37.3 76 28.5 126.5 101.1 126.6 182.4 2.3 84.7-28.3 167.1-85.3 229.7-83.4 105.7-192.8 187.9-317.5 238.4q-11.1 4-22.6 6.8m-523.1 5.2c-49.6-25.9-96.4-46.5-139.7-73.2-99.6-58.9-183-141.8-242.5-241.2-34.2-54.5-48.3-119.4-39.7-183.2 11.6-98.7 92.2-174.9 191.3-180.8 104.4-13.6 201.5 55.7 222.7 159 7.2 29.9 11 60.6 11.1 91.4 0 131.9 0 264.2 0 397.4 0 7.5 0 14.7-2.4 29.4m111.5 25.4c-39.6 0-43.2-2.8-43.2-37v-567.5c5.2-103.5-55.4-199.1-151.2-238.4-105.8-44.6-227.9-20.7-309.2 60.4-51.7 58.7-79.9 134.4-79.4 212.6 0.2 8.4-1.9 16.6-5.9 23.9-4.4-19.1-9.5-39.8-11.9-57.3-13.6-74.8 0.5-152.1 39.6-217.3 27.3-46 69.2-81.3 119.1-100.2 106-41.7 225-34.2 325 20.3 73.8 37 119.4 113.4 117.1 195.9 2 230.9 0 461.8 0 692.3 0 4.8 0 9.1 0 13.5m294.5-0.4v-28.6c0-213 2.4-426 0-639-2.3-172.5 94.1-246.8 229.9-274.3 68.2-13.7 138.9-8.5 204.3 15.1 116.2 44.2 188 161.3 174.7 285-2.8 32.3-8.3 64.3-16.3 95.8-6.8-39.8-9.5-79.5-20.3-119.3-23.1-86.8-87.3-156.8-171.6-187.4-84.4-30.7-178.4-18.1-251.8 33.6-69.1 47-108.6 126.8-104 210.3q0 283.7 0 567.5c0 39.7 0 39.7-45.6 39.7"/>
</svg>