<svg version="1.2" xmlns="http://www.w3.org/2000/svg" viewBox="0 0 1575 1098" width="1575" height="1098">
	<title>ns_logo_stacked (3)-svg</title>
	<style>
		.s0 { fill: #ffffff } 
	</style>
	<path id="Layer" class="s0" d="m1485.6 210.3c-7.3-17.1-17.9-32.6-31.3-45.5-28.4-26.7-68.3-37.1-106.1-27.6-37.7 9.5-68 37.6-80.4 74.6-6.3 17.2-9.6 35.4-9.6 53.8q0 120.3 0 240.7c0 13.4 0 13.4-14.7 12.8 0-2.6 0-5.4 0-8.1q0-136 0-271.9c-2.3-56.6 32-108.1 85-127.8q9.6-3.4 19.6-5.3c6.5-1.3 13.5-1.9 19.9-2.7-8.2-37.5-76.4-80.7-131.8-83.3-59.1-1.4-113.8 30.9-141.2 83.3 6.3 0.8 12.5 1.2 18.4 2.3 54.9 9.4 97.3 53.5 104.5 108.9 1.5 10 2.3 20.2 2.3 30.4q0 132.8 0 265.5c0 7-1.6 10-9.1 9.2-7.6-0.8-6.8-3.1-6.8-8.1 0-28.1 0-56.2 0-84.5q0-83.5 0-167.1c0.5-32.7-11.4-64.4-33.4-88.6-26-28.2-64.3-41.4-102.2-35.4-37.7 6.1-70 30.7-86 65.5-1.7 3.4-3.2 6.9-5.6 11.8 22.1-123 128.7-212.6 253.6-213.2 124.8-0.6 232.2 88.2 255.5 211m-166 292.3c0-2.5 0-4.3 0-6 0-47.4 0-94.2 0-142.3-0.9-22.9 7.9-45.2 24.2-61.4 20.6-19.8 51.2-24.8 77.1-12.7 25.7 9.7 42.8 34.3 42.9 61.8 0.7 28.7-9.6 56.5-28.9 77.7-28.3 35.8-65.3 63.6-107.5 80.8q-3.8 1.3-7.7 2.2m-177.1 1.8c-16.8-8.8-32.7-15.7-47.3-24.8-33.8-19.9-62-48-82.1-81.6-11.6-18.5-16.4-40.4-13.5-62 4-33.5 31.2-59.3 64.8-61.3 35.3-4.6 68.2 18.9 75.4 53.9 2.5 10.1 3.7 20.5 3.8 30.9 0 44.7 0 89.5 0 134.5 0 2.6 0 5-0.8 10m37.7 8.6c-13.4 0-14.6-0.9-14.6-12.5v-192.1c1.7-35.1-18.8-67.4-51.2-80.8-35.8-15.1-77.2-7-104.7 20.5-17.5 19.9-27.1 45.5-26.9 72 0.1 2.8-0.6 5.6-2 8-1.5-6.4-3.2-13.4-4-19.3-4.6-25.4 0.1-51.5 13.4-73.6 9.2-15.6 23.4-27.5 40.3-33.9 35.9-14.1 76.2-11.6 110.1 6.8 24.9 12.6 40.4 38.4 39.6 66.4 0.7 78.1 0 156.3 0 234.3 0 1.6 0 3.1 0 4.6m99.7-0.1v-9.7c0-72.1 0.9-144.2 0-216.4-0.8-58.3 31.9-83.5 77.9-92.8 23.1-4.6 47-2.9 69.2 5.1 39.3 15 63.6 54.6 59.1 96.5-0.9 10.9-2.8 21.8-5.5 32.4-2.3-13.4-3.2-26.9-6.9-40.3-7.8-29.4-29.5-53.1-58.1-63.5-28.6-10.4-60.4-6.1-85.3 11.4-23.3 15.9-36.7 42.9-35.2 71.2q0 96 0 192.1c0 13.4 0 13.4-15.4 13.4"/>
	<path id="Layer" fill-rule="evenodd" class="s0" d="m282.8 948.6c0 77.1-62.6 136.1-144.7 136.1-49.2-0.2-97.1-15.6-137.2-44l25.4-45.4c33.1 25.3 73 39.9 114.5 42.1 60.7 0 89.2-41.4 89.2-82.8 0-41.5-16.5-66.1-94.1-100.4-82.1-35.9-112.4-73.2-112.4-130.1 0-68.4 58-129.4 145.4-129.4 37.5 0.1 74.2 11.3 105.3 32.3l-23.2 44c-24.8-18.2-54.6-28.4-85.4-29.1-59.5 0-89.9 36.2-89.9 79.6 0 32.3 22.5 59.2 80.7 86.1 98.9 44.7 126.7 77.7 126.7 141zm382.7 128.3l-214-232.8v232.8h-51.8v-475h51.8v221.2l206.2-221.2h65.4l-219.9 230.9 230.3 244.1zm247.2 0h-51.8v-475h52.3zm521.7 9.4l-307.9-369.3v359.9h-51.7v-481.1l10.3-2.5 304 363.2v-354.5h51.8v481.7zm-1038.8-572.8l-307.8-369v359.6h-51.7v-481.1l10.3-2.6 303.9 363.3v-354h52v481.5zm291.9-1.6c-108.6 0-177.8-64-177.8-178v-304.2h51.7v300.3c0 95 52.4 135.4 126.1 135.4 73.6 0 127.4-41.2 127.4-135.4v-300.3h51.7v304.2c0 110.1-73.1 178-179.1 178zm845.4 585.2c-23.3 0-42.1-19.3-42.1-43.1 0-23.8 18.8-43 42.1-43 23.2 0 42 19.2 42 43 0 23.8-18.8 43.1-42 43.1zm35.3-42.8c0-20.4-15.8-36.9-35.3-36.9-19.6 0-35.3 16.5-35.3 36.9 0 20.4 15.7 36.9 35.3 36.9 19.5 0 35.3-16.5 35.3-36.9zm-48.8-21c3.4-0.5 6.9-0.8 11.2-0.8 11.7 0 17.2 6.1 17.2 13.1 0 5.5-3 10.4-7.7 12.5l10.7 16.8h-8.1l-9.3-15.2c-1.2 0.2-2.7 0.3-3.2 0.3-0.8 0-2-0.1-3.8-0.3v15.2h-7zm6.9 5.8v14.6c1.7 0.3 3.3 0.3 4.5 0.3 6.4 0 9.8-2.9 9.8-8.2 0-4.2-3.4-7-9.2-7-1.8 0-3.8 0-5 0.3z"/>
</svg>