<svg version="1.2" xmlns="http://www.w3.org/2000/svg" viewBox="0 0 1590 250" width="1590" height="250">
	<title>Nuwellis-main-logo_HR76-002-svg</title>
	<style>
		.s0 { fill: #3c5b77 } 
		.s1 { fill: #81c1b0 } 
		.s2 { fill: #7bafd4 } 
		.s3 { fill: #3b979c } 
	</style>
	<g id="#3c5b77ff">
		<path id="Layer" fill-rule="evenodd" class="s0" d="m1218.6 1c7.2-1.7 15 4.3 14.5 11.8q0.1 111.4 0 222.8c0.2 6.5-5.9 12.1-12.3 11.8-6.2 0.1-12.1-5.4-12-11.7q0-111.5 0-222.9c-0.3-5.7 4.3-10.9 9.8-11.8zm61.7 0.3c7.1-2.4 15.8 3 15.8 10.7 0.1 74.5 0.1 149.1 0.1 223.6 0.1 6.4-5.8 12-12.2 11.8-6.4 0.2-12.3-5.4-12.1-11.8q0-109.4-0.1-218.9c0.1-2.5-0.2-5.1 0.5-7.6 1.1-3.8 4.3-6.7 8-7.8zm63.1 8.7c8.1-2 17.2 3.9 18.1 12.3 1.6 8.4-6 16.6-14.3 16.7-7.8 0.5-15-6.4-15-14.2-0.5-6.8 4.5-13.4 11.2-14.8zm-594.2 66.7c0.5-5.5 5.2-10.2 10.7-10.9 5.3-0.7 10.7 2.8 12.6 7.8 19.4 44.6 38.9 89.3 58.3 134q13.7-31.6 27.5-63.3c-8.9-20.3-17.9-40.6-26.8-61-1.5-3-1.8-6.6-0.4-9.8 2-5.3 8.2-8.8 13.9-7.4 3.7 0.8 7 3.6 8.5 7.1 5.9 13.7 11.8 27.5 17.8 41.1 5.9-13.6 11.9-27.2 17.8-40.9 1.9-4.4 6.5-7.6 11.4-7.6 4.7 0.1 9.5 3.1 11.2 7.7 1.3 3.2 1 6.9-0.5 10.1-8.9 20.2-17.9 40.5-26.8 60.7 9.2 21.1 18.3 42.2 27.5 63.3q29.1-67 58.2-133.9c1.6-3.7 4.8-6.6 8.7-7.6 6.5-1.7 13.8 3.2 14.7 9.9 0.7 3.9-1.1 7.6-2.7 11.1q-32.2 72.8-64.4 145.6c-2.1 4-3.1 8.8-6.6 11.9-3.8 3.6-9.9 3.5-14.3 1.2-2.8-1.5-4.3-4.5-5.5-7.3q-14.2-32.3-28.5-64.6c-10 22.3-19.7 44.7-29.7 67-2.8 5.8-10.2 8-16 5.5-2.9-1.1-5.2-3.6-6.3-6.5q-33.5-75.9-67-151.8c-1.5-3.6-3.9-7.3-3.3-11.4zm688.6-10.6c15.1-1.4 30.8 1 44.1 8.3 6.6 3.8 12.7 8.8 16.6 15.4 1.8 3 3.4 6.5 2.5 10-1.3 5.8-8 9.6-13.6 7.7-1.2-0.3-1.9-1.4-2.7-2.2-4.7-5.2-10.2-9.9-16.3-13.3-7.5-4.2-16.2-5.3-24.6-4.7-7.8 0.5-15.7 2.1-22.3 6.3-5.2 3.3-9.5 8.5-10.6 14.7-1.2 6.2-0.5 13.2 3.6 18.4 5.2 7 13.5 10.8 21.5 13.7 14.2 5 28.8 8.9 42.5 15 11.8 5.4 23.2 13.7 28.3 26 4.9 12.9 3.4 28.1-3.9 39.8-6.7 11.1-17.6 19.2-29.6 23.7-15.7 5.9-33.2 5.7-49.3 1.8-14.6-3.7-28.9-11.5-37.4-24.3-2.2-3.7-5-7.7-4.7-12.3 0.3-4.8 4.3-9.1 9.1-9.6 5.3-1 10.7 1.9 13.5 6.4 3.6 5.9 8.4 11 14.4 14.5 7.2 4.4 15.7 6.2 24.1 6.6 11.5 0.7 23.5-2.1 32.6-9.3 7-5.4 11.4-14.2 10.3-23.1-0.4-6.7-4.6-12.4-9.7-16.3-10.8-8.2-24.2-11.2-36.9-15.1-13-4.6-26.4-9-37.3-17.8-6.9-5.7-12.7-13.2-14.8-22-2.8-12-0.7-25.3 6.7-35.3 10-14.1 27.2-21.2 43.9-23zm-1043.6 12.1c-0.3-6.7 5.9-12.6 12.5-12.3 6.2-0.1 11.7 5.4 11.7 11.6 0.1 7 0.1 14 0.1 21.1 8.7-11.3 20-20.7 33-26.7 12.8-5.9 27.5-7.1 41.3-4.6 13.6 2.4 26.3 9.2 35.8 19.3 10.5 11.1 16.8 25.6 20 40.4 3.7 16.3 2.7 33 2.9 49.5q0 29.1 0 58.3c0.1 3.2-0.9 6.6-3.2 9-4.4 4.9-13 5.1-17.5 0.3-2.5-2.4-3.6-5.9-3.5-9.3q0-31.9 0-63.8c0-15 0.7-30.3-3.8-44.8-3.5-12.2-11-23.7-22.2-29.9-10.9-6.1-24.2-7.3-36.3-5-13.7 2.8-26 11.1-34.1 22.4-8.1 11.2-12.4 25-12.4 38.8q0 39.6 0 79.1c0 3.1 0.2 6.3-1.3 9-2.3 4.7-7.7 7.6-12.8 6.6-5.9-0.8-10.5-6.4-10.2-12.4q0-78.3 0-156.6zm181.2-7.8c4.4-5.7 14.1-6.2 18.8-0.7 2.1 2.3 3 5.5 2.9 8.6 0.1 27.7 0 55.4 0.1 83 0.3 14 2.6 28.6 10.2 40.6 5.8 9.2 14.9 16.2 25.5 19.1 13.7 3.8 29 2.5 41.5-4.5 19.8-10.6 31.5-33.1 31.7-55.2 0.1-27.6 0-55.3 0.1-83-0.3-6.3 5-12.3 11.4-12.4 6.7-0.5 12.9 5.7 12.7 12.4 0 52.4 0 104.9 0 157.3 0.1 6.7-6.2 12.5-12.8 12-6 0-11.1-5.3-11.3-11.2-0.1-7.2 0-14.5 0-21.7-7.1 9.2-15.8 17.1-25.8 23-24.8 15.3-59.7 12.4-81.2-7.6-12.5-11.5-20-27.5-23.5-43.9-3.5-15.5-2.6-31.5-2.7-47.2q0-30.4 0-60.8c-0.1-2.8 0.7-5.6 2.4-7.8zm493.2-2.1c19.5-4.3 40.5-2.4 58.7 6.1 32.5 14.4 54.7 49 53.7 84.5-0.5 5.6-5.6 10.2-11.2 10.1-48.6 0-97.3 0-145.9 0 1.8 14.7 9 28.5 19.6 38.7 10.9 10.6 25.6 17.3 40.8 18.3 19 1.5 39.1-5.4 51.9-19.9 3-3.8 8.3-5.9 13-4.4 3.7 0.9 5.7 4.3 7.4 7.3 2.2 4.4 1.2 10.1-2.6 13.3-8.4 9.3-18.9 16.8-30.7 21.2-15.9 6.2-33.5 7.6-50.3 4.8-27.6-4.7-52.6-22.9-65.5-47.9-14-26.1-14-59.2 0.2-85.4 12.2-23.4 35.1-40.8 60.9-46.7zm3.2 23.2c-12.1 3.4-23.3 10.1-31.7 19.4-9.4 10.3-15.5 23.7-16.8 37.6q66.5 0 132.9 0c-2.1-21.7-15.9-41.8-35.4-51.7-14.9-7.8-32.8-9.6-49-5.3zm270.8-24.8c7.4-3.2 16.4 2.8 16.4 10.7 0 52.5 0 105 0 157.4 0.3 6.5-5.3 12.6-11.8 12.6-6.5 0.4-12.5-5.3-12.5-11.8-0.1-52.5 0-104.9 0-157.4-0.3-5.1 3.3-9.8 7.9-11.5zm174.6-0.7q14.2 0 28.5 0 0 2.9 0 5.7c-3.6 0.1-7.2 0-10.8 0 0 9.5 0 18.9 0 28.4q-3.5 0-6.9 0c0-9.5 0-18.9 0-28.4-3.6 0-7.2 0-10.8 0q0-2.8 0-5.7zm33 0q5 0 10.1 0.1c2.9 8.4 6.3 16.6 8.2 25.4 2.1-8.7 5.4-17 8.3-25.5q4.9 0 9.8 0.1c0.9 11.3 1.8 22.6 2.6 34q-3.4 0-6.8 0c-0.6-10-1.3-19.9-1.5-29.9-3 9.9-6 19.7-9.3 29.4q-3.6 0-7 0c-3.1-9.8-6.4-19.4-8.7-29.4-0.5 10-1 19.9-1.7 29.9q-3.3 0-6.5 0 1.2-17 2.5-34.1z"/>
	</g>
	<g id="#81c1b0ff">
		<path id="Layer" class="s1" d="m0 79.4c13.9-9.6 30.2-15.9 47.1-16.2 15.7-0.5 31.2 3.5 45.7 9.4 25.3 10.6 47.9 26.5 70.2 42.3 3.7 2.7 7.5 5.3 11.1 8-22.8 16.5-45.7 33.2-71 45.7-20.4 10-43.4 16.7-66.2 13.2-22.8-29.1-36.1-65.5-36.9-102.4z"/>
	</g>
	<g id="#7bafd4ff">
		<path id="Layer" class="s2" d="m240.8 79.4c18.4-9.4 38.6-16.7 59.6-16.2 17.1 0.2 33.8 6.4 47.7 16.2-0.7 36.9-14 73.4-36.8 102.4-13.9 2-28.1 0.5-41.5-3.5-25.5-7.6-48.2-22.1-70-37-8.6-6.1-17.2-12.1-25.7-18.4 21.5-15.5 43.1-31.3 66.7-43.5z"/>
	</g>
	<g id="#3b979cff">
		<path id="Layer" class="s3" d="m174.1 122.9c8.5 6.3 17.1 12.3 25.7 18.4 21.8 14.9 44.5 29.4 70 37 13.4 4 27.6 5.5 41.5 3.5-17.5 22.5-40.8 40.6-66.9 52.1-35.3 15.6-75.9 19.1-113.3 9.4-37.1-9.3-70.8-31.4-94.2-61.5 22.8 3.5 45.8-3.2 66.2-13.2 25.3-12.5 48.2-29.2 71-45.7z"/>
	</g>
</svg>