<svg version="1.2" baseProfile="tiny-ps" xmlns="http://www.w3.org/2000/svg" viewBox="0 0 1753 819" width="1753" height="819">
	<title>nuvei-logo-svg</title>
	<style>
		tspan { white-space:pre }
		.shp0 { fill: #33bead } 
		.shp1 { fill: #ffffff } 
	</style>
	<g id="#33beadff">
		<path id="Layer" class="shp0" d="M1664.37 2.6C1686.55 -2.81 1711.28 2.41 1728.54 17.6C1756.39 41.03 1760.53 86.7 1737.42 114.8C1715.81 143.38 1671.54 149.77 1642.35 129.36C1618.19 113.69 1606.71 82.38 1613.36 54.61C1618.79 29.47 1639.4 8.64 1664.37 2.6Z" />
	</g>
	<g id="#0e1f2cff">
		<path id="Layer" fill-rule="evenodd" class="shp1" d="M110.05 248.34C147.42 210.56 197.5 182.49 251.37 179.79C282.12 179.12 314.61 184.44 340.07 202.8C359.7 216.6 373.03 238.1 379.07 261.11C383.44 277.09 384.44 293.76 384.18 310.25C384.13 398.44 384.18 486.65 384.16 574.86C343.11 574.86 302.09 574.86 261.05 574.86C261.05 503.65 261.05 432.41 261.05 361.19C260.82 344.08 260.38 325.69 250.51 310.94C241.12 296.55 223.59 290.14 207.05 289.05C175.25 285.68 142.36 300.68 123.8 326.55C122.92 409.28 123.68 492.11 123.43 574.86C82.39 574.86 41.37 574.86 0.32 574.86C0.32 446.39 0.32 317.88 0.32 189.41C41.37 189.41 82.39 189.41 123.43 189.41C123.1 200.81 124.15 212.28 122.96 223.66C119.64 232.34 114.42 240.14 110.05 248.34ZM1359.04 183.16C1401.29 175.94 1446.1 179.82 1485.21 198.02C1517.01 212.74 1544.14 237.1 1562.58 266.85C1582.44 298.54 1592.66 335.6 1595.31 372.71C1596.59 388.78 1595.89 404.91 1596.05 421.03C1507.46 421.01 1418.9 421.05 1330.31 421.01C1326.96 416.48 1323.62 411.95 1320.23 407.45C1321.2 432.22 1334.58 455.79 1354.79 470C1376.13 485.14 1403.17 490.44 1428.95 488.62C1459.52 486.16 1490.04 475.74 1513.94 456.14C1531.32 481.87 1548.69 507.57 1566.14 533.23C1537.5 558.12 1500.82 571.66 1464 578.77C1413.46 588.1 1359.57 586.75 1311.72 566.57C1268.68 548.9 1232.03 515.23 1212.8 472.65C1181.6 404.13 1188.2 318.05 1234.54 257.74C1264.41 218.06 1310.22 191.45 1359.04 183.16ZM1350.42 289.88C1333.95 301.98 1324.08 321.16 1320.2 340.92C1373 340.9 1425.82 340.99 1478.64 340.87C1475.8 325.99 1470.53 311.06 1459.99 299.84C1447.61 285.47 1429.09 277.5 1410.42 275.79C1389.68 273.6 1367.42 277.09 1350.42 289.88ZM409.13 189.41C450.17 189.41 491.19 189.41 532.23 189.41C532.21 262.95 532.28 336.48 532.21 410.02C532.23 424.91 533.72 440.7 542.15 453.42C548.79 463.64 559.99 470.02 571.67 472.81C593.72 477.9 617.87 475.85 637.83 464.75C649.9 458.23 660.17 448.82 668.76 438.21C668.6 355.27 668.74 272.35 668.69 189.41C709.92 189.41 751.15 189.41 792.38 189.41C792.38 317.88 792.38 446.39 792.38 574.86C751.15 574.86 709.95 574.86 668.72 574.86C668.83 565.44 668.16 555.99 669.04 546.61C671.55 537.18 676.59 528.66 680.17 519.6C647.35 553.76 602.8 577.07 555.72 583.18C518.88 586.71 478.53 582.29 448.47 558.89C421.72 538.11 409.78 503.42 409.17 470.47C409.08 376.77 409.15 283.1 409.13 189.41ZM816.19 189.41C851.24 189.41 886.29 189.38 921.34 189.43C952.56 277.06 984.1 364.58 1015.16 452.26C1015.04 437.7 1009.44 422.33 1015.95 408.44C1042.49 335.49 1068.81 262.41 1095.24 189.41C1138.8 189.43 1182.37 189.36 1225.95 189.45C1175.5 317.95 1124.77 446.32 1074.41 574.84C1030.63 574.89 986.86 574.86 943.1 574.86C903.08 473.28 863.16 371.66 823.13 270.07C820.14 261.99 815.54 254.08 816.14 245.14C816.19 226.56 816.21 207.98 816.19 189.41ZM1620.44 189.41C1661.46 189.41 1702.5 189.41 1743.55 189.43C1743.55 317.88 1743.55 446.36 1743.57 574.84C1702.53 574.89 1661.46 574.86 1620.44 574.84C1620.44 446.36 1620.44 317.88 1620.44 189.41Z" />
		<path id="Layer" fill-rule="evenodd" class="shp1" d="M0.9 697.35C13.07 697.42 25.22 697.24 37.39 697.33C45.11 697.26 53.33 698.77 59.16 704.18C73.49 716.25 70.93 743.07 53.47 750.99C40.81 756.61 26.5 753.45 13.1 754.22C13.1 766.62 13.12 779.02 13.1 791.39C9.03 791.39 4.97 791.39 0.9 791.39C0.9 760.05 0.9 728.7 0.9 697.35ZM13.1 708.4C13.1 719.99 13.1 731.58 13.1 743.19C24.04 742.58 35.49 744.95 46.03 741.35C59.74 735.83 58.41 712.89 43.99 709.26C33.82 707.38 23.39 708.73 13.1 708.4ZM563.01 697.35C586.82 697.35 610.63 697.35 634.43 697.35C634.41 701.02 634.43 704.71 634.41 708.4C624.54 708.38 614.69 708.38 604.82 708.38C604.82 736.06 604.82 763.72 604.82 791.39C600.75 791.39 596.69 791.39 592.62 791.39C592.6 763.72 592.65 736.06 592.62 708.38C582.75 708.38 572.9 708.38 563.06 708.4C563.03 704.71 563.01 701.02 563.01 697.35ZM780.77 697.35C784.44 697.33 788.11 697.35 791.78 697.35C791.78 708.87 791.89 720.36 791.64 731.88C800.65 723.66 813.59 718.46 825.64 722.73C833.03 724.8 837.35 732.28 837.49 739.66C838.02 756.89 837.49 774.14 837.67 791.39C833.98 791.39 830.31 791.39 826.64 791.39C826.53 776.39 826.8 761.42 826.6 746.44C826.69 741.19 824.99 735.15 819.84 732.76C809.99 729.07 797.51 733.2 792.15 742.28C791.2 758.61 792.1 775.02 791.8 791.39C788.11 791.39 784.44 791.39 780.77 791.39C780.77 760.05 780.77 728.7 780.77 697.35ZM1015.37 697.35C1019.04 697.33 1022.7 697.35 1026.4 697.35C1026.4 728.7 1026.4 760.05 1026.4 791.39C1022.7 791.39 1019.04 791.39 1015.37 791.39C1015.37 760.05 1015.37 728.7 1015.37 697.35ZM1312.68 697.35C1325.82 697.49 1338.97 697.1 1352.12 697.42C1360.11 697.56 1368.31 700.56 1373.49 706.85C1384.78 719.81 1381.41 743.44 1365.26 750.9C1352.61 756.59 1338.27 753.5 1324.87 754.22C1324.87 766.62 1324.87 778.99 1324.87 791.39C1320.78 791.39 1316.72 791.39 1312.68 791.39C1312.68 760.05 1312.68 728.7 1312.68 697.35ZM1324.87 743.19C1335.95 742.54 1347.66 745.09 1358.27 741.08C1371.14 735.15 1369.98 713.81 1356.39 709.54C1346.1 707.15 1335.35 708.85 1324.87 708.4C1324.87 719.99 1324.87 731.6 1324.87 743.19ZM493.91 704.32C497.58 704.32 501.25 704.32 504.94 704.32C504.94 710.49 504.94 716.69 504.94 722.89C509.59 722.89 514.23 722.89 518.88 722.89C518.88 726.17 518.88 729.47 518.88 732.76C514.23 732.74 509.59 732.76 504.94 732.79C505.38 747.93 504.08 763.2 505.5 778.3C507.08 785.1 514.63 781.9 519.2 780.81C520.18 783.62 521.15 786.42 522.15 789.26C515.32 792.58 506.85 794.44 499.83 790.67C494.95 788 493.79 781.99 493.88 776.9C493.79 762.21 493.98 747.48 493.91 732.79C490.03 732.76 486.15 732.74 482.27 732.74C482.27 729.47 482.29 726.17 482.29 722.89C486.15 722.87 490.03 722.87 493.91 722.87C493.91 716.69 493.91 710.49 493.91 704.32ZM1513.6 704.32C1517.45 704.32 1521.33 704.32 1525.21 704.32C1525.21 710.49 1525.21 716.69 1525.21 722.87C1529.65 722.87 1534.08 722.89 1538.56 722.89C1538.54 726.17 1538.54 729.47 1538.56 732.74C1534.11 732.74 1529.65 732.76 1525.21 732.79C1525.6 748.13 1524.4 763.58 1525.77 778.88C1527.95 785.31 1534.78 781.6 1539.38 780.67C1540.33 783.45 1541.28 786.24 1542.28 789.03C1535.52 792.69 1526.79 794.53 1519.77 790.58C1514.38 787.26 1513.69 780.39 1513.6 774.68C1513.46 760.72 1513.66 746.74 1513.6 732.79C1509.9 732.76 1506.21 732.74 1502.56 732.74C1502.54 729.47 1502.54 726.17 1502.56 722.92C1506.21 722.87 1509.9 722.87 1513.6 722.87C1513.57 716.69 1513.57 710.49 1513.6 704.32ZM79.18 732.67C89.73 721.8 106.68 718.2 120.73 723.85C127.98 726.59 132.98 733.88 133.14 741.59C133.63 758.19 133.14 774.79 133.3 791.39C129.58 791.39 125.87 791.37 122.17 791.37C122.24 789.72 122.43 786.38 122.5 784.71C112.49 792.86 97.34 796.01 85.99 788.79C73.05 780.9 72.96 759.02 86.17 751.36C97.69 744.51 112.44 747.79 122.73 755.47C122.03 747.97 123.73 737.62 115.58 733.48C105.03 727.63 92.44 732.62 84.36 740.38C82.64 737.8 80.9 735.22 79.18 732.67ZM92.54 759.77C84.99 765.36 86.33 778.02 94.53 782.27C103.73 787.31 115.02 783.87 122.38 777.18C122.31 772.42 122.27 767.69 122.29 762.95C114.28 756.19 101.34 752.52 92.54 759.77ZM233.55 731.49C240.7 724.98 250.16 719.34 260.22 721.78C266.44 722.41 270.16 727.82 273.69 732.34C280.77 724.8 291.13 719.18 301.7 721.9C309.27 723.08 314.59 730.16 314.8 737.64C315.52 755.54 314.82 773.47 315.06 791.39C311.39 791.39 307.69 791.39 304.02 791.39C303.95 776.49 304.12 761.6 304.05 746.69C303.98 741.4 303.23 734.39 297.4 732.39C288.72 728.98 280.47 734.76 274.43 740.47C274.38 757.45 274.43 774.42 274.41 791.39C270.71 791.39 267.04 791.39 263.37 791.39C263.17 775.74 263.77 760.09 263.19 744.47C263.21 738.75 260.03 731.76 253.48 731.6C245.47 730.19 239.08 735.87 233.67 740.89C233.88 757.72 233.74 774.56 233.76 791.42C230.07 791.39 226.4 791.37 222.73 791.39C222.73 768.55 222.73 745.72 222.73 722.89C226.42 722.89 230.14 722.89 233.83 722.89C233.76 725.05 233.62 729.35 233.55 731.49ZM345.74 727.42C359.05 717.67 380.21 719.48 390.31 733.06C396.63 740.77 397.77 750.99 398.47 760.58C379.93 760.74 361.37 760.49 342.84 760.72C344.83 768.73 348.27 777.32 356.26 781.04C367.09 786.68 379.79 782.25 388.78 775.19C390.52 777.6 392.26 780.04 394.03 782.48C380 795.25 356.05 796.9 341.86 783.59C326.81 768.64 328.41 740.03 345.74 727.42ZM342.63 752.34C357.7 752.59 372.78 752.57 387.85 752.34C385.78 742.07 379 731.25 367.48 730.7C354.31 728.75 344.67 740.45 342.63 752.34ZM425.36 731.42C433.59 724.61 444.11 719.36 455.07 721.76C463.71 722.62 470.47 730.19 470.75 738.8C471.96 756.28 470.91 773.86 471.26 791.39C467.57 791.39 463.9 791.39 460.23 791.39C460.06 776.39 460.51 761.37 460.11 746.37C459.95 741.08 458.39 734.74 452.84 732.74C443.2 729.14 430.91 733.18 425.73 742.12C424.78 758.51 425.71 774.98 425.39 791.39C421.69 791.39 418.02 791.39 414.35 791.39C414.35 768.57 414.35 745.72 414.35 722.89C418.02 722.89 421.69 722.87 425.36 722.89C425.36 725.01 425.36 729.28 425.36 731.42ZM642.94 727.45C656.29 717.72 677.43 719.48 687.51 733.09C693.71 740.84 695.01 750.99 695.13 760.6C676.78 760.72 658.4 760.46 640.05 760.77C641.91 769.31 645.98 778.44 654.78 781.73C665.44 786.42 677.22 781.9 685.77 775C687.6 777.51 689.44 780.02 691.27 782.55C677.87 794.32 656.13 796.83 641.56 785.82C623.73 771.77 624.47 740.63 642.94 727.45ZM639.75 752.43C654.78 752.52 669.79 752.52 684.81 752.43C683.14 742 676.15 731.37 664.68 730.77C651.55 728.72 641.63 740.5 639.75 752.43ZM721.82 727.17C735.8 717.55 756.47 719.81 767.32 733.18C764.79 735.39 762.28 737.62 759.77 739.89C753.36 733.11 743.86 729.21 734.66 732.51C713.78 739.4 713.85 774.65 734.64 781.71C743.84 785.19 753.29 780.85 759.82 774.3C762.28 776.58 764.79 778.88 767.27 781.18C756.08 794.74 734.27 796.71 720.58 785.96C702.51 771.94 703.16 740.36 721.82 727.17ZM868.89 731.97C878.09 723.29 891.96 718.11 904.22 723.31C911.68 726.26 914.74 734.64 914.84 742.12C915.12 758.54 914.79 774.98 914.91 791.39C911.21 791.39 907.54 791.39 903.87 791.39C903.5 774.88 904.62 758.31 903.36 741.84C902.78 734.2 894.51 730.53 887.66 731.51C880.13 731.56 874.19 736.69 868.92 741.45C869.15 758.1 868.99 774.75 869.03 791.39C865.34 791.39 861.67 791.39 858 791.39C858 768.57 858 745.72 858 722.89C861.69 722.89 865.39 722.87 869.08 722.89C869.03 725.17 868.94 729.7 868.89 731.97ZM953.72 723.06C967.31 718.6 984.17 722.5 992.39 734.78C1003.38 750.8 1000.85 776.05 984.24 787.33C971.4 795.69 952.33 794.62 941.41 783.45C924.36 766.2 929.4 730.93 953.72 723.06ZM955.69 733.55C935.76 743.77 940.08 781.92 964.24 782.78C982.43 784.1 991.65 761.76 985.59 746.88C982.24 734.46 967.17 727.47 955.69 733.55ZM1065.35 723.01C1078.92 718.67 1095.78 722.45 1103.91 734.78C1115.36 751.29 1112.06 777.72 1094.18 788.4C1082.79 794.78 1067.33 794.39 1056.66 786.66C1035.36 771.19 1039.31 731.3 1065.35 723.01ZM1067.21 733.53C1053.18 741.17 1051.11 761.88 1059.8 774.28C1066.3 784.15 1081.89 785.8 1090.41 777.69C1101.68 767.15 1101.77 746.9 1090.39 736.41C1084.26 730.77 1074.55 730.02 1067.21 733.53ZM1139.45 724.47C1151.94 717.74 1167.23 722.15 1176.54 732.16C1176.35 729.07 1176.22 725.98 1176.12 722.92C1179.79 722.89 1183.51 722.87 1187.23 722.87C1187.2 744.79 1187.36 766.71 1187.2 788.63C1187.27 798.08 1184.16 808.69 1175.36 813.57C1160.03 821.93 1139.7 820.23 1126.35 808.81C1128.16 805.95 1129.99 803.14 1131.85 800.31C1141.49 809.44 1157.31 812.94 1168.76 805.14C1176.7 799.87 1175.87 789.26 1176.66 780.97C1170.43 786.36 1163.44 792 1154.75 792.02C1141.56 793.21 1128.67 784.29 1125.16 771.54C1120.17 755.26 1123.02 733.2 1139.45 724.47ZM1150.41 781.34C1160.17 784.43 1169.46 778.44 1176.17 771.89C1176.22 761.86 1176.15 751.83 1176.38 741.82C1169.78 734.6 1160.03 729.23 1150.04 732.18C1128.99 738.66 1129.09 775.26 1150.41 781.34ZM1390.65 732.3C1402.24 721.66 1419.97 717.65 1434.39 724.77C1441.57 728.19 1445.05 736.34 1445 744C1445.28 759.79 1444.93 775.6 1445.07 791.39C1441.36 791.39 1437.66 791.37 1433.99 791.39C1434.04 789.72 1434.16 786.38 1434.2 784.71C1424.31 792.81 1409.44 795.88 1398.08 789.07C1384.54 781.39 1384.5 758.77 1398.08 751.08C1409.7 744.67 1424.24 747.79 1434.46 755.52C1433.6 748.23 1435.48 738.22 1427.91 733.9C1417.22 727.38 1404.33 732.67 1395.83 740.26C1394.09 737.59 1392.35 734.95 1390.65 732.3ZM1403.19 760.51C1396.48 766.73 1398.67 778.81 1406.77 782.71C1416.09 787.17 1426.7 783.45 1434.23 777.28C1434.06 772.63 1434.23 767.96 1433.53 763.39C1426.19 755.19 1411.63 752.71 1403.19 760.51ZM1563.88 731.35C1572.64 724.03 1584.3 718.9 1595.82 722.22C1604 723.89 1609.32 731.88 1609.32 739.98C1609.64 757.12 1609.27 774.26 1609.41 791.39C1605.72 791.39 1602.02 791.39 1598.38 791.39C1598.21 775.6 1598.65 759.84 1598.26 744.05C1598.63 736.69 1591.73 730.65 1584.51 731.46C1576.59 730.81 1570.08 735.83 1564.18 740.36C1564.05 757.35 1564.14 774.37 1564.12 791.39C1560.42 791.37 1556.75 791.39 1553.08 791.42C1553.06 768.57 1553.08 745.72 1553.08 722.89C1556.78 722.89 1560.47 722.89 1564.21 722.89C1564.12 725.01 1563.95 729.23 1563.88 731.35ZM1638.65 728.79C1652.01 717.3 1675.14 719.09 1685.46 733.78C1691.31 741.4 1692.33 751.27 1692.8 760.56C1674.28 760.77 1655.77 760.46 1637.28 760.74C1639.47 769.06 1643.11 778.2 1651.82 781.53C1662.62 786.49 1674.63 781.8 1683.46 775.07C1685.15 777.62 1686.87 780.18 1688.59 782.76C1675.33 793.93 1654.49 796.73 1639.95 786.49C1621.84 773.35 1621.46 742.86 1638.65 728.79ZM1637.19 752.43C1652.19 752.52 1667.22 752.62 1682.25 752.34C1680.48 741.75 1673.15 730.95 1661.46 730.65C1648.45 729.02 1639.09 740.7 1637.19 752.43ZM1719.55 732.74C1725.69 726.56 1733.35 722.13 1742.08 720.9C1742.22 724.66 1742.34 728.44 1742.48 732.23C1733.61 732.18 1725.62 736.18 1719.69 742.61C1719.79 758.86 1719.72 775.14 1719.74 791.39C1716.05 791.39 1712.35 791.39 1708.71 791.39C1708.71 768.55 1708.66 745.72 1708.73 722.87C1712.4 722.87 1716.09 722.89 1719.81 722.92C1719.72 726.17 1719.62 729.44 1719.55 732.74ZM143.54 722.92C147.63 722.89 151.72 722.87 155.81 722.87C163.12 741.15 170.53 759.37 177.94 777.6C185.45 759.4 192.83 741.15 200.24 722.89C204.31 722.87 208.37 722.89 212.44 722.92C201.59 748.9 190.7 774.88 179.96 800.94C177.57 806.46 174.99 812.57 169.54 815.73C163.75 819.4 156.64 818.38 150.16 818.24C150.51 815.73 151.16 810.74 151.51 808.25C155.78 807.97 160.96 809.55 164.52 806.35C167.96 801.96 169.72 796.55 171.97 791.53C162.4 768.68 152.97 745.81 143.54 722.92ZM1197 722.89C1201.09 722.87 1205.18 722.89 1209.29 722.89C1216.75 741.15 1224.13 759.42 1231.47 777.69C1238.98 759.42 1246.34 741.1 1253.87 722.85C1257.88 722.87 1261.93 722.89 1265.99 722.94C1255 749.2 1244.04 775.46 1233.17 801.75C1230.85 807.42 1227.8 813.34 1222.11 816.26C1216.47 819.4 1209.83 818.42 1203.69 818.07C1204.18 814.8 1204.69 811.55 1205.2 808.3C1209.15 808.07 1213.61 809.18 1217.21 807.02C1221.3 802.75 1223.04 796.9 1225.57 791.67C1215.98 768.78 1206.6 745.79 1197 722.89ZM1465.4 722.89C1469.07 722.89 1472.78 722.89 1476.5 722.89C1476.41 726.17 1476.34 729.44 1476.27 732.74C1482.42 726.49 1490.09 721.94 1498.99 721.01C1499.01 724.73 1499.05 728.44 1499.12 732.18C1490.37 732.18 1482.56 736.22 1476.48 742.28C1476.41 758.65 1476.45 775.02 1476.43 791.39C1472.74 791.39 1469.07 791.39 1465.4 791.39C1465.4 768.55 1465.4 745.72 1465.4 722.89Z" />
	</g>
</svg>