<?xml version="1.0" encoding="UTF-8"?>
<svg width="200px" height="45px" viewBox="0 0 200 45" version="1.1" xmlns="http://www.w3.org/2000/svg" xmlns:xlink="http://www.w3.org/1999/xlink">
    <!-- Generator: sketchtool 63.1 (101010) - https://sketch.com -->
    <title>C5A24757-4139-4123-A1FE-76B7EF64FCCD</title>
    <desc>Created with sketchtool.</desc>
    <defs>
        <path d="M15.2823462,9.77873684 C13.6634231,5.33494737 11.6698462,2.57494737 9.48861538,0.208421053 L0.584538462,8.80863158 L16.1696154,23.8629474 C17.2125,19.1122105 16.7378077,13.7842105 15.2823462,9.77873684" id="path-1"></path>
        <linearGradient x1="-80.2333616%" y1="49.999733%" x2="190.261207%" y2="49.999733%" id="linearGradient-3">
            <stop stop-color="#49AF56" offset="0%"></stop>
            <stop stop-color="#005093" offset="100%"></stop>
        </linearGradient>
        <path d="M1.26846154,13.2487179 C2.33946154,16.9782051 4.114,20.8294872 7.55388462,24.5916667 L16.4527308,15.8666667 L0.859153846,0.58974359 C0.220346154,3.91987179 -0.0693076923,8.59166667 1.26846154,13.2487179" id="path-4"></path>
        <linearGradient x1="-90.8492925%" y1="49.9994659%" x2="179.914731%" y2="49.9994659%" id="linearGradient-6">
            <stop stop-color="#49AF56" offset="0%"></stop>
            <stop stop-color="#005093" offset="100%"></stop>
        </linearGradient>
        <path d="M12.4292381,9.32674286 L3.3787619,0.138285714 C3.45119048,0.5016 3.51804762,0.866171429 3.575,1.23262857 C4.6917619,8.12302857 3.4307619,15.6237714 0.235238095,21.7114857 L12.4292381,9.32674286" id="path-7"></path>
        <linearGradient x1="-240.102041%" y1="50.0002914%" x2="98.9917758%" y2="50.0002914%" id="linearGradient-9">
            <stop stop-color="#49AF56" offset="0%"></stop>
            <stop stop-color="#005093" offset="100%"></stop>
        </linearGradient>
        <path d="M0,13.0364 L9.48935,22.6326571 C9.1988,21.1218857 9.00055,19.5539429 8.9193,17.9288286 C8.50915,9.80325714 10.9902,3.55448571 12.78225,0.113685714 L0,13.0364" id="path-10"></path>
        <linearGradient x1="0.39308416%" y1="49.9985409%" x2="340.095093%" y2="49.9985409%" id="linearGradient-12">
            <stop stop-color="#49AF56" offset="0%"></stop>
            <stop stop-color="#005093" offset="100%"></stop>
        </linearGradient>
    </defs>
    <g id="Investor-Relations" stroke="none" stroke-width="1" fill="none" fill-rule="evenodd">
        <g id="01---NWN---Landing" transform="translate(-136.000000, -17.000000)">
            <g id="NWN-Holdings-4c-Logo-hz" transform="translate(136.000000, 17.000000)">
                <polyline id="Fill-1" fill="#1A1919" points="102 34 104.939066 34 104.939066 38.2329256 108.061611 38.2329256 108.061611 34 111 34 111 45 108.061611 45 108.061611 40.6431079 104.939066 40.6431079 104.939066 45 102 45 102 34"></polyline>
                <path d="M118.499665,42.4148705 C118.766124,42.4148705 118.997768,42.3627402 119.197277,42.2571429 C119.396786,42.1522139 119.551439,42.0279031 119.662575,41.8842105 C119.728855,41.79599 119.789779,41.6964077 119.844678,41.586132 C119.900245,41.4758563 119.944432,41.3181287 119.977907,41.1136174 C120.010712,40.9091061 120.038161,40.6411028 120.060924,40.3102757 C120.082348,39.9781119 120.093729,39.5416876 120.093729,39.0003342 C120.093729,38.4589808 120.082348,38.019883 120.060924,37.6823726 C120.038161,37.3455305 120.010712,37.0748538 119.977907,36.8703425 C119.944432,36.6658312 119.900245,36.5087719 119.844678,36.3978279 C119.789779,36.2875522 119.728855,36.1886383 119.662575,36.0997494 C119.551439,35.9560568 119.396786,35.8344194 119.197277,35.7348371 C118.997768,35.6352548 118.766124,35.5857978 118.499665,35.5857978 C118.234546,35.5857978 118.002232,35.6352548 117.802723,35.7348371 C117.603214,35.8344194 117.448561,35.9560568 117.338094,36.0997494 C117.271145,36.1886383 117.210221,36.2875522 117.154653,36.3978279 C117.099755,36.5087719 117.055568,36.6658312 117.022093,36.8703425 C116.989288,37.0748538 116.961169,37.3455305 116.939076,37.6823726 C116.916983,38.019883 116.906271,38.4589808 116.906271,39.0003342 C116.906271,39.5416876 116.916983,39.9781119 116.939076,40.3102757 C116.961169,40.6411028 116.989288,40.9091061 117.022093,41.1136174 C117.055568,41.3181287 117.099755,41.4758563 117.154653,41.586132 C117.210221,41.6964077 117.271145,41.79599 117.338094,41.8842105 C117.448561,42.0279031 117.603214,42.1522139 117.802723,42.2571429 C118.002232,42.3627402 118.234546,42.4148705 118.499665,42.4148705 Z M118.499665,45 C117.769248,45 117.143941,44.8897243 116.623745,44.6685046 C116.103548,44.4479532 115.632894,44.1271512 115.212453,43.7074353 C114.913859,43.4086884 114.681544,43.0892231 114.51551,42.7463659 C114.349476,42.4035088 114.226958,42.0365915 114.149967,41.6442774 C114.072305,41.2519632 114.027449,40.837594 114.017407,40.4005013 C114.006025,39.9647452 114,39.4975773 114,39.0003342 C114,38.5024227 114.006025,38.0359231 114.017407,37.5994987 C114.027449,37.1630744 114.072305,36.7487051 114.149967,36.356391 C114.226958,35.9647452 114.349476,35.5971596 114.51551,35.2543024 C114.681544,34.9114453 114.913859,34.5913116 115.212453,34.2932331 C115.632894,33.8735171 116.103548,33.5527151 116.623745,33.3314954 C117.143941,33.110944 117.769248,33 118.499665,33 C119.230752,33 119.856059,33.110944 120.376255,33.3314954 C120.896452,33.5527151 121.366436,33.8735171 121.787547,34.2932331 C122.086811,34.5913116 122.318456,34.9114453 122.48449,35.2543024 C122.650524,35.5971596 122.772372,35.9647452 122.850033,36.356391 C122.927025,36.7487051 122.971881,37.1630744 122.982593,37.5994987 C122.993975,38.0359231 123,38.5024227 123,39.0003342 C123,39.4975773 122.993975,39.9647452 122.982593,40.4005013 C122.971881,40.837594 122.927025,41.2519632 122.850033,41.6442774 C122.772372,42.0365915 122.650524,42.4035088 122.48449,42.7463659 C122.318456,43.0892231 122.086811,43.4086884 121.787547,43.7074353 C121.366436,44.1271512 120.896452,44.4479532 120.376255,44.6685046 C119.856059,44.8897243 119.230752,45 118.499665,45 L118.499665,45 Z" id="Fill-2" fill="#1A1919"></path>
                <polyline id="Fill-3" fill="#1A1919" points="126 34 128.954066 34 128.954066 42.5898176 134 42.5898176 134 45 126 45 126 34"></polyline>
                <path d="M139.804017,42.5898176 C140.136336,42.5898176 140.399878,42.5331295 140.59647,42.4197531 C140.792453,42.3063767 140.951309,42.1568694 141.07182,41.9718541 C141.122337,41.8995923 141.164942,41.8173632 141.200243,41.7245441 C141.234936,41.631725 141.265368,41.4984143 141.290323,41.3227432 C141.315886,41.1476951 141.332928,40.9159588 141.343274,40.6275343 C141.353621,40.3391098 141.358491,39.9634726 141.358491,39.5 C141.358491,39.0359044 141.353621,38.6608902 141.343274,38.3718428 C141.332928,38.0840412 141.315886,37.8547967 141.290323,37.6841092 C141.265368,37.5146676 141.234936,37.3832257 141.200243,37.2910296 C141.164942,37.1975875 141.122337,37.1109978 141.07182,37.0281459 C140.951309,36.8425076 140.792453,36.6936233 140.59647,36.5802469 C140.399878,36.4668705 140.136336,36.4101824 139.804017,36.4101824 L138.642118,36.4101824 L138.642118,42.5898176 L139.804017,42.5898176 Z M136,34 L139.985393,34 C140.799757,34 141.491783,34.1544909 142.060864,34.4634726 C142.628728,34.7724544 143.099817,35.2359271 143.471698,35.8538906 C143.602556,36.0706762 143.702982,36.2943142 143.773585,36.5260505 C143.843579,36.7577868 143.896531,37.015064 143.932441,37.297882 C143.967742,37.5813229 143.987219,37.9008948 143.992696,38.2559746 C143.997565,38.6116774 144,39.0265602 144,39.5 C144,39.9734398 143.997565,40.3883226 143.992696,40.7440254 C143.987219,41.0991052 143.967742,41.4186771 143.932441,41.7014951 C143.896531,41.984936 143.843579,42.2422132 143.773585,42.4739495 C143.702982,42.7056858 143.602556,42.9293238 143.471698,43.1461094 C143.099817,43.76345 142.628728,44.2269226 142.060864,44.5365274 C141.491783,44.8455091 140.799757,45 139.985393,45 L136,45 L136,34 L136,34 Z" id="Fill-4" fill="#1A1919"></path>
                <polygon id="Fill-5" fill="#1A1919" points="148 45 151 45 151 34 148 34"></polygon>
                <polyline id="Fill-6" fill="#1A1919" points="154 34 156.476974 34 160.167307 39.5305244 160.167307 34 163 34 163 45 160.523678 45 156.833345 39.4694756 156.833345 45 154 45 154 34"></polyline>
                <path d="M170.426295,45 C169.715681,45 169.103562,44.8897243 168.589938,44.6685046 C168.076313,44.4479532 167.611605,44.1271512 167.196474,43.7074353 C166.901653,43.4086884 166.672273,43.0892231 166.508336,42.7463659 C166.3444,42.4035088 166.22343,42.0365915 166.147411,41.6442774 C166.070731,41.2519632 166.027102,40.837594 166.016526,40.4005013 C166.005288,39.9647452 166,39.4975773 166,39.0003342 C166,38.5024227 166.005288,38.0359231 166.016526,37.5994987 C166.027102,37.1630744 166.070731,36.7487051 166.147411,36.356391 C166.22343,35.9647452 166.3444,35.5971596 166.508336,35.2543024 C166.672273,34.9114453 166.901653,34.5913116 167.196474,34.2932331 C167.611605,33.8735171 168.076313,33.5527151 168.589938,33.3314954 C169.103562,33.110944 169.715681,33 170.426295,33 C171.179875,33 171.82769,33.1136174 172.368417,33.3401838 C172.909805,33.5667502 173.363276,33.8621554 173.72949,34.2263993 C174.095703,34.5913116 174.379288,35.0083542 174.582225,35.4781955 C174.784502,35.9480368 174.918032,36.4258981 174.983474,36.9124478 L172.098054,36.9124478 C171.977745,36.459315 171.791994,36.1244779 171.540801,35.9092732 C171.289607,35.6934002 170.918105,35.5857978 170.426295,35.5857978 C170.163863,35.5857978 169.937128,35.6352548 169.746089,35.7348371 C169.554389,35.8344194 169.404333,35.9560568 169.295263,36.0997494 C169.229159,36.1886383 169.169005,36.2875522 169.114139,36.3978279 C169.059934,36.5087719 169.016306,36.6658312 168.983254,36.8703425 C168.950863,37.0748538 168.9231,37.3455305 168.901285,37.6823726 C168.879471,38.019883 168.868895,38.4589808 168.868895,39.0003342 C168.868895,39.5416876 168.879471,39.9807853 168.901285,40.3176274 C168.9231,40.6551378 168.950863,40.9284879 168.983254,41.1383459 C169.016306,41.3482038 169.059934,41.5086048 169.114139,41.6188805 C169.169005,41.7291562 169.229159,41.8294069 169.295263,41.9176274 C169.404333,42.06132 169.554389,42.1796157 169.746089,42.2738513 C169.937128,42.3680869 170.163863,42.4148705 170.426295,42.4148705 C170.732354,42.4148705 170.988836,42.3727652 171.197062,42.2898914 C171.403966,42.2070175 171.573852,42.0940685 171.704737,41.9510443 C171.868674,41.7852966 171.983694,41.5888053 172.049137,41.3622389 C172.115241,41.1356725 172.147631,40.9117794 172.147631,40.6912281 L172.147631,40.5254804 L170.426295,40.5254804 L170.426295,38.1054302 L175,38.1054302 L175,39.7461988 C175,40.6965748 174.912743,41.4758563 174.737569,42.0833751 C174.563055,42.6908939 174.256996,43.2215539 173.820051,43.6746867 C173.317003,44.193985 172.784209,44.5441938 172.221667,44.72665 C171.658465,44.9091061 171.060228,45 170.426295,45" id="Fill-7" fill="#1A1919"></path>
                <path d="M181.458716,45 C181.007251,45 180.57776,44.9752715 180.170909,44.9258145 C179.762726,44.8756892 179.372521,44.7934837 178.998298,44.677193 C178.624075,44.5609023 178.27116,44.4038429 177.941551,44.2046784 C177.611276,44.0061821 177.296981,43.7515455 177,43.4421053 L178.849142,41.586132 C179.157443,41.8955723 179.554306,42.1107769 180.039065,42.231746 C180.522492,42.3540518 181.001924,42.4148705 181.475363,42.4148705 C182.598032,42.4148705 183.159367,42.06132 183.159367,41.3535505 C183.159367,41.055472 183.082791,40.8235589 182.928307,40.6578112 C182.76317,40.4920635 182.504809,40.3871345 182.151894,40.3423559 L180.732243,40.1438596 C179.68615,39.9894737 178.899083,39.6412698 178.371042,39.0999165 C177.831015,38.5472013 177.561335,37.7572264 177.561335,36.7293233 C177.561335,36.1886383 177.66055,35.6907268 177.858982,35.2382623 C178.056748,34.7851295 178.340411,34.392147 178.708642,34.06132 C179.077538,33.7298246 179.526339,33.4698413 180.055046,33.2820384 C180.583753,33.0942356 181.183042,33 181.854913,33 C182.702575,33 183.449023,33.1076023 184.092261,33.322807 C184.73683,33.5393484 185.311483,33.900919 185.818215,34.4088555 L184.002368,36.2320802 C183.6934,35.9233083 183.363125,35.7294904 183.010876,35.6519632 C182.658627,35.5751044 182.245783,35.5363409 181.772344,35.5363409 C181.51931,35.5363409 181.304232,35.5697577 181.12844,35.6352548 C180.952649,35.7020886 180.806822,35.7876358 180.690959,35.8925647 C180.575096,35.9974937 180.489864,36.1137845 180.434596,36.2407686 C180.379328,36.3677527 180.352027,36.4974102 180.352027,36.6304094 C180.352027,36.7072682 180.36934,36.7961571 180.401302,36.895071 C180.434596,36.9946533 180.495191,37.0888889 180.583753,37.1771094 C180.660328,37.2539683 180.762208,37.3261487 180.88939,37.3923141 C181.015241,37.4591479 181.183042,37.5025898 181.392794,37.5253133 L182.81311,37.7238095 C183.847218,37.8675021 184.617638,38.1936508 185.124371,38.7015873 C185.443992,39.0110276 185.669725,39.3812865 185.802234,39.8123642 C185.934078,40.2434419 186,40.73467 186,41.2873851 C186,41.8842105 185.87881,42.4148705 185.637097,42.8786967 C185.394051,43.3431913 185.067106,43.7328321 184.654262,44.0469507 C184.241418,44.362406 183.759322,44.5996658 183.209307,44.7600668 C182.658627,44.9197995 182.075318,45 181.458716,45" id="Fill-8" fill="#1A1919"></path>
                <polyline id="Stroke-9" stroke="#006B85" stroke-width="1.394" points="199 45 199 1 59 1"></polyline>
                <polyline id="Fill-11" fill="#1A1919" points="65.9438935 15 69 15 69 28 66.7052012 28 62.0401126 21.5723746 62.0401126 28 59 28 59 15 61.2762459 15 65.9438935 21.4352774 65.9438935 15"></polyline>
                <polyline id="Fill-12" fill="#1A1919" points="86.521021 28 84.0219219 28 81.5019019 20.2374191 78.978712 28 76.4796129 28 72 15 75.451952 15 77.7399399 22.3092823 80.0082749 15 82.9942609 15 85.260694 22.3092823 87.548048 15 91 15 86.521021 28"></polyline>
                <polyline id="Fill-13" fill="#1A1919" points="108.940695 15 112 15 112 28 109.70776 28 105.040113 21.5723746 105.040113 28 102 28 102 15 104.275606 15 108.940695 21.4352774 108.940695 15"></polyline>
                <path d="M126,27.7777243 L126,17.2222757 L125.279485,17.2222757 L123.957202,18.4348689 C123.107428,17.5265817 121.98862,17 120.739316,17 C118.112685,17 116,19.445694 116,22.5006615 C116,25.5556291 118.112685,28 120.739316,28 C121.98862,28 123.107428,27.4562184 123.957202,26.5657926 L125.279485,27.7777243 L126,27.7777243 M122.823551,22.5006615 C122.823551,24.098268 122.064692,25.3942146 121.158018,25.3942146 C120.266807,25.3942146 119.507947,24.098268 119.507947,22.5006615 C119.507947,20.9023936 120.266807,19.606447 121.158018,19.606447 C122.064692,19.606447 122.823551,20.9023936 122.823551,22.5006615" id="Fill-14" fill="#1A1919"></path>
                <path d="M135.640495,28 C133.462705,28 131.381396,26.4983562 131.381396,23.8441096 L131.381396,19.9771689 L129,19.9771689 L129,19.2349772 L134.234547,14 L135.009715,14 L135.009715,17.5978082 L139,17.5978082 L139,19.9771689 L135.009715,19.9771689 L135.009715,23.4733333 C135.009715,25.133516 135.865394,25.6807306 137.044447,25.6807306 C137.555459,25.6807306 138.672633,25.2894977 139,24.976895 L139,26.9873973 C138.347262,27.6305023 136.618604,28 135.640495,28" id="Fill-15" fill="#1A1919"></path>
                <path d="M152.255231,27.7916539 L150.686352,26.4954828 C150.040118,27.2102514 148.711178,28 147.269627,28 C144.215049,28 143,26.2164587 143,24.2823428 L143,18 L146.489027,18 L146.489027,23.362301 C146.489027,24.919673 146.878047,25.4076578 147.736707,25.4076578 C148.576172,25.4076578 149.120673,24.9946531 149.510333,24.3382705 L149.510333,18 L153,18 L153,27.7916539 L152.255231,27.7916539" id="Fill-16" fill="#1A1919"></path>
                <path d="M160.259687,27 L157,27 L157,17.2060212 L157.695687,17.2060212 L158.994422,18.3495616 C159.634525,17.6566926 160.952983,17 162.103496,17 C162.487798,17 162.818309,17.0754185 163,17.1870133 L163,22.524557 L162.361092,22.524557 L160.259687,20.3717579 L160.259687,27" id="Fill-17" fill="#1A1919"></path>
                <path d="M177,27.7777243 L177,17.2222757 L176.278956,17.2222757 L174.956218,18.4348689 C174.104075,17.5265817 172.989735,17 171.739348,17 C169.113042,17 167,19.445694 167,22.5006615 C167,25.5556291 169.113042,28 171.739348,28 C172.989735,28 174.104075,27.4562184 174.956218,26.5657926 L176.278956,27.7777243 L177,27.7777243 M173.822707,22.5006615 C173.822707,24.098268 173.063942,25.3942146 172.154289,25.3942146 C171.264424,25.3942146 170.507513,24.098268 170.507513,22.5006615 C170.507513,20.9023936 171.264424,19.606447 172.154289,19.606447 C173.063942,19.606447 173.822707,20.9023936 173.822707,22.5006615" id="Fill-18" fill="#1A1919"></path>
                <polygon id="Fill-19" fill="#1A1919" points="182 28 185 28 185 13 182 13"></polygon>
                <g id="Group-22" transform="translate(12.000000, 0.000000)">
                    <mask id="mask-2" fill="white">
                        <use xlink:href="#path-1"></use>
                    </mask>
                    <g id="Clip-21"></g>
                    <path d="M15.2823462,9.77873684 C13.6634231,5.33494737 11.6698462,2.57494737 9.48861538,0.208421053 L0.584538462,8.80863158 L16.1696154,23.8629474 C17.2125,19.1122105 16.7378077,13.7842105 15.2823462,9.77873684" id="Fill-20" fill="url(#linearGradient-3)" mask="url(#mask-2)"></path>
                </g>
                <g id="Group-25" transform="translate(14.000000, 19.000000)">
                    <mask id="mask-5" fill="white">
                        <use xlink:href="#path-4"></use>
                    </mask>
                    <g id="Clip-24"></g>
                    <path d="M1.26846154,13.2487179 C2.33946154,16.9782051 4.114,20.8294872 7.55388462,24.5916667 L16.4527308,15.8666667 L0.859153846,0.58974359 C0.220346154,3.91987179 -0.0693076923,8.59166667 1.26846154,13.2487179" id="Fill-23" fill="url(#linearGradient-6)" mask="url(#mask-5)"></path>
                </g>
                <g id="Group-28" transform="translate(30.000000, 12.000000)">
                    <mask id="mask-8" fill="white">
                        <use xlink:href="#path-7"></use>
                    </mask>
                    <g id="Clip-27"></g>
                    <path d="M12.4292381,9.32674286 L3.3787619,0.138285714 C3.45119048,0.5016 3.51804762,0.866171429 3.575,1.23262857 C4.6917619,8.12302857 3.4307619,15.6237714 0.235238095,21.7114857 L12.4292381,9.32674286" id="Fill-26" fill="url(#linearGradient-9)" mask="url(#mask-8)"></path>
                </g>
                <g id="Group-31" transform="translate(0.000000, 9.000000)">
                    <mask id="mask-11" fill="white">
                        <use xlink:href="#path-10"></use>
                    </mask>
                    <g id="Clip-30"></g>
                    <path d="M0,13.0364 L9.48935,22.6326571 C9.1988,21.1218857 9.00055,19.5539429 8.9193,17.9288286 C8.50915,9.80325714 10.9902,3.55448571 12.78225,0.113685714 L0,13.0364" id="Fill-29" fill="url(#linearGradient-12)" mask="url(#mask-11)"></path>
                </g>
                <path d="M192.577156,37 L192.435979,34.959359 C192.425014,34.7830934 192.414049,34.5629354 192.403084,34.3197863 L192.392119,34.3197863 C192.316733,34.496052 192.229697,34.8053878 192.143347,35.0373897 L191.469674,36.9568045 L191.025585,36.9568045 L190.331354,34.9823502 C190.266248,34.7942406 190.167561,34.507896 190.103141,34.3197863 L190.092176,34.3197863 C190.092176,34.5183465 190.081211,34.7280539 190.070246,34.959359 L189.929069,37 L189.528155,37 L189.777613,34 L190.352599,34 L191.04683,35.9194148 C191.133181,36.1402694 191.188007,36.3492801 191.253798,36.5485369 L191.274358,36.5485369 C191.340148,36.3381328 191.416219,36.0956804 191.459395,35.9417092 L192.154312,34 L192.728612,34 L193,37 L192.577156,37 Z M189.386979,34 L189.386979,34.3420808 L188.388464,34.3420808 L188.388464,37 L187.998515,37 L187.998515,34.3420808 L187,34.3420808 L187,34 L189.386979,34 L189.386979,34 Z" id="Fill-32" fill="#1A1919"></path>
            </g>
        </g>
    </g>
</svg>