<svg version="1.2" baseProfile="tiny-ps" xmlns="http://www.w3.org/2000/svg" viewBox="0 0 1562 510" width="1562" height="510">
	<title>nyyk-svg</title>
	<style>
		tspan { white-space:pre }
		.shp0 { fill: #fc2779 } 
	</style>
	<path id="Layer" fill-rule="evenodd" class="shp0" d="M450.34 25.62C437.53 50.21 425.73 75.47 413.59 97.71C397.42 128.69 385.28 154.97 370.45 182.93C362.36 198.08 354.94 213.24 347.53 228.74C318.54 289.37 292.25 351.01 267.31 413.33C259.22 433.54 253.82 449.71 244.72 469.58C234.61 491.81 231.24 507.98 198.88 503.94C190.79 502.93 180.68 500.91 176.64 492.82C172.59 484.74 174.95 474.29 175.62 465.54C181.35 400.86 185.06 337.87 190.46 272.53C192.14 254.67 195.85 227.73 196.19 205.16C189.11 220.99 182.03 241.54 178.99 248.61C147.31 320.69 126.75 368.86 97.76 441.62C89.67 462.17 86.98 475.98 73.16 490.8C55.63 509.66 41.47 508.32 35.07 508.32C-5.38 509.33 -3.36 489.79 6.75 465.54C15.85 443.31 48.55 372.57 59 351.01C68.77 330.46 77.2 309.92 86.3 289.03C94.05 271.85 103.15 254.34 110.57 236.82C135.85 176.86 167.53 119.6 195.85 60.99C203.6 45.16 219.44 11.47 242.7 13.83C264.95 16.19 270 17.2 273.37 32.69C278.43 57.62 273.04 85.58 270.34 110.51C266.63 142.51 264.27 169.12 261.91 204.15C261.58 212.91 260.23 249.96 261.24 268.48C273.37 250.29 310.11 168.11 321.24 148.91L380.23 32.69C384.27 25.96 393.03 2.38 412.58 2.38C412.58 2.38 467.19 -6.72 450.34 25.62ZM1560.98 201.12C1564.35 238.17 1550.87 236.82 1534.69 241.2C1524.57 242.88 1455.48 254.67 1391.43 265.45L1391.43 266.13C1391.77 301.83 1393.79 331.47 1396.83 354.04C1400.53 381.66 1403.23 404.91 1405.93 432.53C1408.29 457.45 1415.36 496.86 1376.26 500.23C1362.78 501.24 1358.74 502.59 1345.93 502.59C1335.14 502.59 1331.77 491.81 1330.09 483.39C1318.96 431.18 1323.01 375.94 1319.3 322.72C1318.96 319.35 1318.63 295.09 1318.96 277.58C1301.77 280.27 1288.63 282.63 1281.88 283.64C1276.15 284.65 1264.02 287.01 1247.84 290.04C1242.11 308.91 1227.62 355.73 1223.57 373.92C1217.5 402.21 1192.9 481.37 1192.22 484.4C1192.22 484.4 1190.2 503.94 1159.19 502.25C1121.1 502.25 1125.82 474.97 1132.23 453.75L1176.72 303.52C1162.23 306.21 1147.39 309.24 1132.56 312.27L1112 443.98C1112 443.98 1111.33 494.84 1073.58 499.22C1073.58 499.22 1063.13 502.59 1042.9 499.56C1010.54 494.51 1035.49 397.49 1035.49 397.49C1037.85 387.05 1049.31 346.29 1053.01 327.77C1032.45 331.81 1013.58 335.52 998.75 338.55C998.41 338.88 998.41 338.88 998.07 338.88C994.36 339.89 989.65 340.91 983.92 341.58C975.49 343.26 969.42 344.61 966.72 344.95C951.56 347.64 928.3 351.68 912.12 354.38C912.12 354.38 858.19 454.76 845.72 478.34C833.25 501.92 825.16 509.33 806.28 509.66C768.19 510.67 765.83 502.59 757.07 474.29C744.93 440.27 723.7 365.49 711.56 333.49C709.2 326.76 691.34 267.47 688.64 261.75C688.64 261.75 684.26 268.82 683.92 269.16C668.76 297.45 658.98 316.32 645.5 349.33C631.68 383.35 624.6 393.45 603.03 448.36C589.88 481.71 580.44 509.33 522.13 501.92C494.83 498.21 514.72 462.51 521.46 447.01C535.61 415.01 550.78 382.67 566.29 351.68C607.07 270.51 647.86 193.03 697.41 119.26C717.97 88.27 735.83 58.29 762.12 24.27C790.44 -13.79 864.59 -3.68 836.62 32.36L751 160.36C784.71 140.48 805.61 125.66 836.28 101.75C861.22 82.21 893.24 58.97 918.52 39.43C929.98 30.34 947.51 16.53 960.99 10.46C974.14 4.4 984.59 0.02 1003.47 3.05C1003.47 3.05 1036.84 19.89 1025.04 36.06C1015.6 48.86 998.41 58.97 998.41 58.97C968.75 81.2 932.34 105.12 902.01 126.67C859.2 156.99 812.01 178.88 770.21 210.55C755.72 221.66 748.3 224.36 754.37 243.89C761.11 266.13 771.56 287.01 785.72 320.69C795.49 344.27 805.61 369.87 817.4 393.12C834.93 369.87 855.16 340.23 868.3 320.69C913.81 253.33 950.55 202.8 1000.77 135.77C1028.41 98.72 1059.76 62.34 1085.71 28.65C1100.88 9.12 1109.98 2.04 1133.91 3.39C1133.91 3.39 1173.01 2.72 1168.97 36.4C1165.26 67.73 1160.54 118.93 1156.16 150.25C1151.44 184.61 1146.05 218.97 1141.66 253.33L1141.33 255.01C1159.87 250.97 1176.72 247.26 1190.54 244.23C1193.91 243.22 1196.61 242.55 1197.95 242.21C1199.98 236.15 1212.45 205.83 1215.14 200.11C1249.19 124.65 1248.18 124.32 1278.18 56.61C1289.64 30.67 1296.72 9.12 1339.86 3.05C1376.94 -2.34 1379.97 26.29 1381.32 46.84C1383.34 79.52 1385.36 108.48 1386.38 145.54C1386.71 171.14 1386.04 162.72 1387.72 204.82C1428.51 197.07 1463.9 190.34 1475.36 188.32C1506.04 182.59 1557.27 163.73 1560.98 201.12ZM1060.43 271.85C1069.87 224.36 1084.02 141.83 1092.79 97.37C1076.95 114.21 973.13 257.71 949.53 297.12C973.13 291.73 1015.26 282.29 1060.09 272.53C1060.09 272.19 1060.43 272.19 1060.43 271.85ZM1316.27 77.16C1303.46 110.17 1281.88 175.52 1261.32 228.74C1277.5 225.71 1297.73 221.66 1319.3 217.62L1319.3 215.26C1320.31 191.01 1315.25 101.75 1316.27 77.16ZM690.67 56.61C668.42 97.71 644.82 134.08 618.2 176.53C562.24 266.13 517.07 346.63 474.6 439.26C469.89 449.71 463.48 462.51 458.76 472.95C450 492.82 439.55 502.93 417.64 504.61C405.17 505.28 376.52 505.62 379.89 484.74C382.25 469.92 391.01 457.45 398.09 444.99C430.45 386.72 453.71 350.67 490.78 287.68C536.62 209.2 446.96 277.24 413.26 234.13C386.97 196.06 447.64 99.73 455.73 79.52C460.11 68.4 479.66 35.39 489.77 17.87C503.93 -6.72 561.23 1.03 543.7 35.05C525.5 70.42 523.14 82.55 504.27 118.25C497.86 130.72 489.44 149.92 489.1 164.4C488.76 178.55 500.22 185.28 516.06 183.6C540 180.91 551.12 160.69 562.92 144.53L635.05 31.01C639.77 21.92 646.85 12.15 656.28 7.09C667.74 1.37 682.58 4.74 693.7 10.13C712.57 19.56 697.41 44.15 690.67 56.61Z" />
</svg>