<svg version="1.2" xmlns="http://www.w3.org/2000/svg" viewBox="0 0 1353 1504" width="1353" height="1504">
	<title>nyxoah-svg</title>
	<style>
		.s0 { fill: #3e8dae } 
	</style>
	<g id="Group_487">
		<path id="Path_366" class="s0" d="m1113.7 204.1c139.9 130.8 224.8 310 237.5 501.1 12.7 191.2-47.7 380-169.1 528.2-121.4 148.2-294.6 244.7-484.4 269.8 465.3-625.3 61.9-823.1 35.9-833.1q0.9-7.2 1.6-14.4 0.7-7.2 1.2-14.5 0.5-7.2 0.8-14.5 0.3-7.2 0.4-14.5c0-87.9-8-149.8-49.9-219.8l55.9-55.9c0 0-36 2-101.9 2-20.7-26-44.4-49.5-70.7-69.9-26.2-20.5-54.7-37.8-85-51.7-30.2-13.8-62-24-94.6-30.5-32.6-6.4-65.9-9-99.1-7.7-23.4-0.1-46.7 1.7-69.8 5.2-23.1 3.4-45.9 8.7-68.3 15.6-22.3 6.9-44 15.6-65.1 25.8-21 10.2-41.2 22-60.4 35.3 35.1-40.8 74.6-77.7 117.6-110 43.1-32.3 89.5-59.9 138.5-82.3 49-22.3 100.2-39.3 152.9-50.6 52.6-11.4 106.3-17 160.1-16.9 191.5-0.2 376 72.5 515.9 203.3zm-877.3 346.2c0 47.6-28.8 90.6-72.8 108.9-44 18.2-94.7 8.1-128.4-25.6-33.7-33.7-43.8-84.4-25.5-128.4 18.2-44.1 61.2-72.8 108.8-72.8 15.5 0 30.8 3.1 45.1 9 14.3 5.9 27.2 14.6 38.2 25.6 10.9 10.9 19.6 23.9 25.5 38.2 6 14.3 9 29.6 9.1 45.1zm289.5 0c0 47.6-28.7 90.6-72.7 108.9-44.1 18.2-94.8 8.1-128.5-25.6-33.7-33.7-43.7-84.4-25.5-128.4 18.2-44.1 61.2-72.8 108.9-72.8 15.5-0.2 30.9 2.8 45.2 8.7 14.4 5.8 27.4 14.5 38.4 25.5 11 11 19.7 24 25.5 38.4 5.9 14.4 8.8 29.7 8.7 45.3z"/>
	</g>
</svg>