<svg version="1.2" baseProfile="tiny-ps" xmlns="http://www.w3.org/2000/svg" viewBox="0 0 1831 313" width="1831" height="313">
	<title>pngkey-svg</title>
	<style>
		tspan { white-space:pre }
		.shp0 { fill: #9acdec } 
		.shp1 { fill: #222b64 } 
		.shp2 { fill: #0f66b3 } 
		.shp3 { fill: #3e9dd5 } 
	</style>
	<g id="#9acdecff">
		<path id="Layer" class="shp0" d="M48.5 38.78C72.57 16.17 104.78 2.67 137.7 0.44C177.82 -2.75 218.94 11.48 248.48 38.8C231.08 56.12 213.79 73.56 196.35 90.81C170.8 115.42 126.51 115.55 100.85 91.12C83.34 73.71 65.86 56.31 48.5 38.78Z" />
	</g>
	<g id="#222b64ff">
		<path id="Layer" class="shp1" d="M1711.2 40.54C1719.52 40.51 1727.84 40.51 1736.18 40.56C1736.21 84.56 1736.18 128.57 1736.18 172.6C1754.63 154.28 1772.94 135.86 1791.36 117.55C1802.92 117.59 1814.48 117.57 1826.03 117.57C1806.11 137.25 1786.04 156.8 1765.75 176.14C1787.41 199.79 1809.54 223.01 1831.2 246.68C1819.34 246.7 1807.48 246.64 1795.64 246.72C1775.61 224.92 1756.19 202.56 1736.23 180.71C1736.14 202.7 1736.23 224.7 1736.16 246.68C1727.84 246.68 1719.52 246.68 1711.2 246.68C1711.2 177.96 1711.18 109.26 1711.2 40.54Z" />
		<path id="Layer" fill-rule="evenodd" class="shp1" d="M473.49 51.36C499.56 45.61 528.06 48.52 551.29 62.15C576.7 76.51 593.78 103.42 598.23 131.98C601.84 155.41 598.64 180.28 587.02 201.15C574.46 225.2 550.89 242.77 524.54 248.85C491.96 256.34 455.1 249.54 430.18 226.43C394.57 194.23 387.99 136.66 412.3 95.93C425.27 73.35 448.17 57.14 473.49 51.36ZM484.27 74.97C460.48 79.36 439.91 97.17 431.76 119.89C419.34 151.88 427.9 192.67 456.51 213.22C474.17 226.48 498.09 229.75 519.16 223.98C540.14 218.06 557.69 201.68 565.45 181.36C577.59 150.75 570.82 111.82 544.99 90.18C528.54 75.97 505.43 70.81 484.27 74.97Z" />
		<path id="Layer" class="shp1" d="M735.78 54.53C748.03 48.15 763.96 59.98 761.48 73.52C760.7 87.3 742.32 94.46 732 85.65C721.34 77.9 723.44 59.41 735.78 54.53Z" />
		<path id="Layer" class="shp1" d="M963.94 54.58C977.02 47.63 993.79 61.67 989.32 75.75C986.62 88.97 968.29 94.11 958.92 84.56C949.47 76.36 952.19 59.18 963.94 54.58Z" />
		<path id="Layer" fill-rule="evenodd" class="shp1" d="M1255.01 53.56C1277.97 53.53 1300.94 53.56 1323.9 53.53C1340.06 53.79 1357.4 57.83 1369.13 69.66C1385.33 86.91 1385.83 118.48 1366.95 134.02C1361.65 138.88 1355.03 141.89 1348.42 144.48C1367.11 146.34 1382.99 160.9 1387.63 178.87C1391.15 193.65 1389.63 210.55 1379.86 222.72C1367.43 239.04 1346.29 245.86 1326.48 246.64C1302.65 246.74 1278.84 246.66 1255.03 246.68C1255.01 182.3 1255.01 117.94 1255.01 53.56ZM1281.65 76.88C1281.6 95.7 1281.62 114.49 1281.62 133.3C1299.5 132.19 1318.08 135.97 1335.43 130.59C1351.68 125.27 1357.26 104.12 1348.77 90.14C1344.08 81.2 1333.76 76.95 1324.07 76.93C1309.93 76.77 1295.79 76.95 1281.65 76.88ZM1281.62 157.17C1281.62 179.24 1281.6 201.28 1281.62 223.35C1303.04 221.83 1326.37 227.63 1346.21 217.19C1362.83 208.62 1365.3 185.01 1355.03 170.69C1347.73 161.47 1335.59 157.5 1324.16 157.19C1309.99 157.1 1295.81 157.21 1281.62 157.17Z" />
		<path id="Layer" class="shp1" d="M656.41 136.71C665.68 119.28 687.4 110.41 706.39 115.14C706.41 124.25 705.87 133.34 705.37 142.44C693.16 139.59 678.82 139.83 668.72 148.14C659.34 155.67 656.56 168.43 656.51 179.89C656.56 202.15 656.54 224.42 656.54 246.68C648.19 246.68 639.87 246.68 631.55 246.66C631.58 203.45 631.55 160.25 631.55 117.05C639.87 117.03 648.19 117.03 656.51 117.03C656.56 123.58 656.58 130.15 656.41 136.71Z" />
		<path id="Layer" fill-rule="evenodd" class="shp1" d="M809.21 127.96C834.15 107.48 876.74 108.74 896.69 135.58C896.56 129.39 896.56 123.23 896.58 117.05C904.9 117 913.22 117 921.56 117.05C921.56 160.47 921.54 203.87 921.58 247.29C921.6 263.15 915.87 279.1 904.94 290.73C893.36 303.49 876.35 310.37 859.39 311.76C833.49 314.21 806.1 307.24 787.03 288.93C792.63 281.72 798.37 274.65 804.1 267.55C815.85 280.4 832.56 289.51 850.37 288.54C865.64 289.38 882.26 283.31 890.37 269.75C898.51 256.44 896.19 240.24 896.67 225.39C887.61 240.52 869.82 248.31 852.63 248.37C834.56 248.96 816.01 242.27 803.54 228.97C776.9 201.81 779.82 152.05 809.21 127.96ZM838.34 140.14C812.27 149.64 805.04 185.18 818.94 207.32C832.49 228.82 866.49 230.84 884.46 213.91C900.6 197.36 900.47 168.52 886 150.94C874.53 137.62 854.43 134.34 838.34 140.14Z" />
		<path id="Layer" class="shp1" d="M1046.25 136.21C1062.48 108.06 1109.6 105.7 1128.02 132.56C1134.01 141.33 1136.27 152.14 1136.12 162.64C1136.01 190.65 1136.12 218.67 1136.08 246.68C1127.74 246.68 1119.42 246.68 1111.1 246.68C1111.07 220.75 1111.12 194.84 1111.1 168.91C1111.29 157.28 1105.95 144.32 1094.54 139.77C1081.99 135.15 1066.02 137.16 1056.85 147.51C1049.36 155.54 1046.47 166.85 1046.47 177.59C1046.47 200.61 1046.49 223.64 1046.47 246.66C1038.13 246.68 1029.81 246.68 1021.51 246.68C1021.44 203.45 1021.51 160.25 1021.47 117.03C1029.81 117.03 1038.13 117.03 1046.47 117.05C1046.49 123.43 1046.49 129.81 1046.25 136.21Z" />
		<path id="Layer" fill-rule="evenodd" class="shp1" d="M1418.68 133.13C1437.73 115.94 1465.53 110.3 1490.26 116.05C1503.66 119.04 1516.48 127.77 1521.69 140.83C1526.51 152.55 1524.53 165.42 1524.93 177.72C1525.27 200.76 1524.12 223.87 1525.75 246.88C1518.28 246.64 1510.81 246.66 1503.35 246.64C1503.07 240.3 1502.72 233.96 1502.68 227.65C1496.01 237.18 1486.69 245.31 1475.07 247.89C1456.97 252.28 1434.86 250.82 1421.46 236.44C1412.05 226.8 1410.86 212.18 1413.55 199.61C1416.72 187.01 1427.67 177.83 1439.38 173.16C1459.15 165.18 1480.83 166.39 1501.73 166.37C1502.31 154.93 1497.51 142.41 1486.54 137.45C1468.77 129.46 1447.7 136.32 1434.04 149.12C1428.86 143.82 1423.96 138.31 1418.68 133.13ZM1456.43 188.66C1449.52 191.04 1442.16 194.67 1438.88 201.57C1435.19 210.36 1437.88 222.7 1447.44 226.48C1462.64 233.12 1483.17 230.77 1493.75 217.04C1500.88 207.97 1501.73 195.95 1501.64 184.86C1486.52 184.86 1471.03 184.03 1456.43 188.66Z" />
		<path id="Layer" class="shp1" d="M1585.06 136.75C1598.92 110.91 1637.91 106.83 1659.76 124.51C1669.95 133.34 1674.95 147.1 1674.84 160.38C1674.79 189.15 1674.84 217.91 1674.82 246.68C1666.47 246.68 1658.15 246.68 1649.83 246.68C1649.81 220.75 1649.83 194.82 1649.86 168.89C1650.1 157.3 1644.84 144.39 1633.48 139.79C1620.86 135.08 1604.67 137.16 1595.48 147.64C1588.03 155.65 1585.45 166.93 1585.21 177.59C1585.19 200.61 1585.23 223.64 1585.21 246.66C1576.89 246.7 1568.55 246.68 1560.25 246.68C1560.18 203.45 1560.23 160.25 1560.23 117.03C1568.55 117.03 1576.87 117.03 1585.21 117.05C1585.21 123.6 1585.23 130.2 1585.06 136.75Z" />
		<path id="Layer" class="shp1" d="M730.94 117.03C739.26 117.03 747.58 117.03 755.92 117.03C755.94 160.23 755.9 203.43 755.94 246.64C747.6 246.68 739.28 246.68 730.96 246.68C730.92 203.45 730.94 160.25 730.94 117.03Z" />
		<path id="Layer" class="shp1" d="M959.03 117.03C967.35 117.03 975.69 117.03 984.04 117.05C983.99 160.25 984.04 203.45 984.01 246.68C975.67 246.68 967.35 246.68 959.05 246.68C959.01 203.48 959.03 160.25 959.03 117.03Z" />
		<path id="Layer" class="shp1" d="M100.37 205.32C125.44 181.15 168.59 180.32 194.57 203.52C212.9 221.05 230.48 239.35 248.57 257.12C218.7 284.94 176.73 299.15 136.09 295.5C103.61 293.12 72.59 279.12 48.33 257.62C65.31 239.82 83 222.72 100.37 205.32Z" />
	</g>
	<g id="#0f66b3ff">
		<path id="Layer" class="shp2" d="M0.43 149.55C-0.51 112.43 13.74 75.1 39.22 48.02C56.62 65.51 74.24 82.78 91.51 100.4C115.6 125.79 115.91 169.47 91.97 195.08C74.42 212.83 56.65 230.41 38.98 248.05C14.59 221.47 0.17 185.7 0.43 149.55Z" />
	</g>
	<g id="#3e9dd5ff">
		<path id="Layer" class="shp3" d="M204.65 101.27C222.18 83.33 240.08 65.75 257.8 48.04C280.46 72.67 294.26 105.18 296.23 138.57C298.95 178.2 284.94 218.8 257.78 247.89C240.23 230.36 222.61 212.89 205.17 195.27C181.38 169.97 181.14 126.83 204.65 101.27Z" />
	</g>
</svg>