<svg version="1.2" xmlns="http://www.w3.org/2000/svg" viewBox="0 0 1560 958" width="1560" height="958">
	<title>oberbank_logo-svg</title>
	<style>
		.s0 { fill: #c90000 } 
	</style>
	<g id="_x30_3-Navigation_2_">
		<g id="_x30_3a-Flyout-1338_2_">
			<g id="Imported-Layers-_x2B_-Imported-EPS-2_2_">
				<g id="Imported-Layers_2_">
					<path id="Fill-1_2_" fill-rule="evenodd" class="s0" d="m417.2 957.2c-247.1 0-417.2-177.4-417.2-441.7c0-263.9 181.8-471.4 432.9-471.4c239.6 0 425.4 177.7 425.4 446.1c0 276.8-187.7 467-441.1 467zm14-743.6c-130.5 0-247.4 103.3-247.4 285.1c0 190.6 120.8 289.6 247.4 289.6c134.5 0 247.2-95.3 247.2-285.4c0-181.6-109.1-285.1-247.2-289.3z" />
					<path id="Fill-2_2_" fill-rule="evenodd" class="s0" d="m1246.6 953.1c-170.4 0-255.3-69.8-255.3-69.8v-883.3h170.1v386.6c0 0 49.3-73.8 170.1-73.8c96.9 0 227.5 59.1 227.5 297.7c0 217.8-138.4 342.6-312.4 342.6zm23.5-477.5c-73.2 0-108.7 57.1-108.7 57.1v255.6c0 0 39.5 29.8 92.7 29.8c73.5 0 130.6-66 130.6-182.2c0-111.8-57.2-160.4-114.6-160.3z" />
				</g>
			</g>
		</g>
	</g>
</svg>