<svg version="1.2" xmlns="http://www.w3.org/2000/svg" viewBox="0 0 1435 867" width="1435" height="867">
	<title>ocugen_4C_LOGO_0-svg</title>
	<style>
		.s0 { fill: #ffffff } 
	</style>
	<g id="Layer">
		<path id="Layer" fill-rule="evenodd" class="s0" d="m241.5 435.3c0 38.4-11.4 69.7-33.9 93.2-22.3 23.5-51.5 35.5-86.8 35.5-17.5 0-33.8-3.2-48.5-9.3-14.7-6.1-27.6-14.9-38.4-26.2-10.7-11.4-19.1-25-25-40.8-5.9-15.6-8.9-33.3-8.9-52.5 0-19.2 3.1-36.8 8.9-52.4 6.1-15.7 14.5-29.5 25.1-40.7 10.6-11.3 23.5-20.2 38.3-26.3 14.7-6.1 31-9.2 48.4-9.2 17.3 0 33.6 3.1 48.4 9.3 14.8 6.3 27.7 15.2 38.4 26.5 10.7 11.3 19.2 24.9 25.1 40.7 5.9 15.7 8.9 33.2 8.9 52.2zm-71.5-58.7c-11.5-14.5-27.6-21.5-49.2-21.5-10.9 0-20.5 1.9-28.7 5.7-8.2 3.9-15.1 9.2-20.7 16.1-5.5 6.9-9.9 15.3-12.8 25.2-2.9 9.9-4.4 21.1-4.4 33.1 0 12.1 1.4 23.3 4.4 33.2 2.9 9.8 7.2 18.3 12.8 25.2 5.6 6.8 12.5 12.2 20.7 16 8.2 3.8 17.8 5.7 28.7 5.7 10.8 0 20.4-1.9 28.6-5.7 8.1-3.8 15.1-9.2 20.7-16 5.5-6.9 9.9-15.4 12.8-25.2 2.9-9.9 4.4-21.1 4.4-33.2 0-24-5.8-43.7-17.3-58.6zm308.5 160.1c-23.1 15.1-54.1 22.1-83.8 22.1q-28.9 0-51.2-9.5c-14.9-6.4-27.5-15.1-37.8-26.1-10.2-11-18.1-24.1-23.5-39.3-5.5-15.1-8.2-31.5-8.2-49 0-17.6 2.7-33.9 8.2-48.8 5.4-15 13.3-28.1 23.5-39.3 18.9-21.6 44-40.1 89-40.1 23.5 0 43.6 3.5 60.4 10.6v52.7q-26.7-14.5-55.2-14.5c-43.5 0-67.7 45-67.7 79.3 0.7 44.3 26.2 72.8 67.7 75.1 20.9 0 41-5.9 60.4-17.5 4.1 17.7 10.4 32.2 18.2 44.3zm225.2 18.9h-54.9l-1-15.9c-16.3 12.7-33.9 19.1-52.5 19.1-66.8 0-100.3-38.3-100.3-115l0.6-127.7h58.7l-0.6 127.7c0 22.3 3.7 38.7 11.1 49.3 7.4 10.7 19.3 16 35.7 16 18.3 0 33.1-6.7 44.5-20l-0.6-173h58.7zm730.9 0h-58.6v-129.9c0-22.3-3.8-38.7-11.1-49.4-7.5-10.6-19.3-15.9-35.8-15.9-17.9 0-32.8 6.9-44.4 20.5v174.7h-58.6v-239.6h55.3l0.2 13.5q25-18.1 52-18.1c67.1 0 101 38.3 101 114.3zm-475.3-200.5c-0.6 0-32.1 0-32.6 0 8.3 14.5 12.5 31.4 12.5 50.3 0 13.2-2.2 25.9-6.5 37.6-4.4 11.7-10.8 22-19 30.6-8.3 8.6-18.7 15.6-31 20.6-12.2 5-26.2 7.6-41.6 7.6-4.2 0-8.4-0.2-12.6-0.7-3.9-0.5-7.9-1-12.1-1.6-2.1 1.1-3 2.7-3 4.9 0 5.9 5.9 8.4 10.9 9.4 4.1 0.8 12.2 2.2 21.5 3.8 17.9 2.9 40.1 6.6 46.6 8.8 14.9 3.7 25.1 9.9 34 16 9.9 6.9 17.6 15.2 23.1 24.9 5.4 9.8 8.1 20.4 8.1 31.9 0 11.4-2.8 22.1-8.4 31.9-5.4 9.6-13.3 18-23.1 25-9.7 6.8-21.5 12.1-35 15.8-13.3 3.7-28.1 5.6-44.1 5.6-32.5 0-59.2-7.2-79.3-21.5-20.7-14.6-31.3-33.7-31.3-56.9 0-11.4 2.8-22.2 8.2-31.9 5.7-10.2 13.1-18.6 22.1-25.2-7.6-7.9-11.4-17.2-11.4-27.6 0-13.8 7.2-24.9 21.4-32.8-22.6-18.2-34.1-43.9-34.1-76.4 0-13.6 2.2-26.4 6.7-38.2 4.6-11.6 11.1-21.9 19.7-30.6 8.6-8.7 19.1-15.6 31.2-20.4 12.1-4.9 25.8-7.4 40.9-7.4 21 0 39.1 4.7 54 13.9 12.8-6.7 29.8-11.2 50.5-11.2h18l-4.3 43.5zm-87.9 85.3c6.8-8.6 10.3-20.4 10.3-35.3 0-14.9-3.5-26.8-10.3-35.3-6.8-8.5-16.8-12.7-30.2-12.7-13.3 0-23.6 4.3-30.5 12.7-7 8.5-10.5 20.4-10.5 35.3 0 14.8 3.5 26.7 10.5 35.3 6.9 8.4 17.2 12.6 30.5 12.6 13.4 0 23.3-4.1 30.2-12.6zm-84.8 158.6c0 5.6 1.3 10.5 3.9 14.6 2.6 4.2 6.5 7.9 11.4 10.9 5.2 3.1 11.6 5.5 19.1 7.2 7.8 1.7 16.5 2.5 26.1 2.5 18.8 0 34-3.3 45.4-9.8 10.2-6 15.1-14.3 15.1-25.4 0-5.5-1.3-10.5-3.9-14.6-2.7-4.3-6.5-7.9-11.5-10.9-5.1-3.1-11.6-5.5-19-7.2-7.8-1.7-16.5-2.5-26.1-2.5-9.6 0-18.3 0.8-26.1 2.5-7.5 1.7-13.9 4.1-19.1 7.2-4.9 3-8.8 6.7-11.4 10.9-2.7 4.1-4 9.1-3.9 14.6zm403.1-183.4c0.2 11.9-1.4 23.5-3.8 32.6h-151.5c3.1 20.8 11.3 36.5 24.6 47 13.3 10.6 35.1 15.3 51.9 15.3 5.3 0 11.1-0.5 17.4-1.5 6.2-0.9 12.6-2.3 19-4 6.4-1.8 12.7-3.9 19-6.3 5.5-2.1 10.3-4.4 14.8-6.9v51.7c-21.6 10.5-48.2 15.8-75.4 15.8-20.6 0-43.2-2.6-58.9-9-15.8-6.4-29-15.1-39.8-26.1q-16.1-16.6-24.3-39.4c-5.5-15.2-8.2-31.5-8.2-49.1q0-25.9 7.7-48.5c5.1-15.1 12.5-28.3 22.2-39.6 9.6-11.4 21.4-20.3 35.3-26.7q20.8-9.5 47-9.5c14.7 0 28.3 2.5 40.9 7.4 12.7 4.9 23.6 12 32.8 21.1 9.1 9.1 16.3 20.1 21.5 32.9 5.1 12.7 7.5 26.9 7.8 42.8zm-58.5-6.8c0-12.6-3.5-23.8-10.4-33.5-7-9.7-17.8-14.5-32.3-14.5q-21.9 0-35.2 13.1c-8.9 8.7-14.9 20.4-18 34.9z"/>
		<path id="Layer" class="s0" d="m1192.7 204.1c-11.6-7.9-23.3-15.7-35.3-23.2-34.4-21.6-69.8-41.5-106.4-58.4-9.1-4.2-18.6-8.3-27.9-12.4-9.3-4.1-18.5-8.3-28-11.9l-14.1-5.5-14.3-5.2c-9.5-3.5-19.1-6.6-28.8-9.7-38.8-12.3-78.8-21.9-119.4-29.1-40.6-7.2-81.8-12.4-123.3-15.1-41.5-3-83.3-3.8-125.1-2.7-41.8 1.1-83.8 3.8-125.5 9.8 40.7-11.2 82.3-19.1 124.2-25.6 41.8-6.4 84.1-10.8 126.5-13.1 42.6-2.5 85.4-2.6 128.4-0.4 42.9 2.1 85.9 6.9 128.8 14.8 42.8 7.8 85.6 19 126.8 33.1 41.7 14.1 82.1 31.5 121.5 50.7 39.4 19.4 77.7 40.8 114.9 63.9 18.7 11.6 37 23.6 55.2 36.1 1.9 1.2 3.8 2.6 5.6 3.9zm-206.7 621.3c-40.6 11.1-82.2 19.1-124 25.6-41.9 6.4-84.2 10.8-126.7 13.2-42.6 2.4-85.4 2.5-128.3 0.3-43-2.1-86-6.9-128.8-14.8-42.8-7.8-85.6-19-126.8-33.1-41.7-14.1-82.1-31.4-121.5-50.7-39.4-19.3-77.6-40.7-114.9-63.8-18.7-11.6-37-23.6-55.2-36.1-1.9-1.3-3.8-2.7-5.6-4h183.7c11.7 7.9 23.4 15.7 35.3 23.2 34.4 21.6 69.9 41.5 106.4 58.4 9.1 4.2 18.7 8.3 27.9 12.4 9.3 4 18.6 8.3 28 11.9l14.1 5.5 14.3 5.2c9.6 3.5 19.2 6.6 28.9 9.7 38.9 12.3 78.8 22 119.4 29.1 40.6 7.2 81.8 12.4 123.3 15.1 41.5 3 83.3 3.8 125.1 2.7 41.9-1.1 83.8-3.9 125.4-9.8z"/>
		<path id="Layer" class="s0" d="m854.5 117.6c-44-12.7-89.2-21.9-134.8-28.2-11.5-1.5-22.9-2.8-34.3-4.1-11.6-1-23-2.3-34.5-2.9-61.2-6.6-162-4.9-208 0.3-23.1 2.3-45.9 6.1-68.7 10.3-22.7 4.5-45.4 9.9-67.8 16.1-44.7 12.7-88.7 28.9-131.1 48.8-21.2 10-42 20.8-62.3 32.7-20.3 11.9-40.2 24.6-58.9 39 17.8-15.6 37-29.5 56.6-42.7 19.7-13.2 40-25.4 60.8-36.8 41.4-22.8 85-42 129.8-57.8 22.4-7.8 45.2-14.6 68.2-20.7 23.1-5.8 46.3-11.2 69.8-15.1 46.9-8.2 94.8-12.4 142.6-12.7 23.7 0 47-0.5 71 0.5 11.9 0.1 23.9 1.1 35.8 1.6 11.9 0.8 23.8 1.8 35.7 2.9 47.6 4.8 95 12.6 141.7 24.1 46.8 11.4 92.7 26.5 137.4 45.4 22.3 9.5 44.3 19.9 65.8 31.7 10.8 5.8 21.4 12 31.9 18.5 2.5 1.6 5.1 3.2 7.6 4.9h-109.5q-8-4.1-16.3-7.9c-41.3-19.4-84.4-35.3-128.5-47.9zm521.9 519c-17.8 15.6-37 29.5-56.6 42.7-19.6 13.2-40 25.4-60.7 36.8-41.5 22.8-85 41.9-129.8 57.7-22.4 7.8-45.2 14.7-68.2 20.8-23 5.7-46.3 11.2-69.8 15-47 8.3-94.9 12.5-142.5 12.8-23.8 0.1-47 0.5-71-0.4-11.9-0.2-23.8-1.1-35.8-1.7-11.9-0.8-23.8-1.8-35.7-2.9-47.6-4.8-95-12.5-141.7-24.1-46.8-11.4-92.7-26.5-137.4-45.4-22.3-9.5-44.3-19.9-65.8-31.6-10.8-5.8-21.4-12-31.9-18.5-2.5-1.6-5.1-3.3-7.6-5h109.6q8 4.1 16.2 7.9c41.3 19.5 84.4 35.3 128.5 47.9 44 12.7 89.2 21.9 134.8 28.2 11.5 1.5 22.9 2.8 34.4 4.1 11.5 0.9 22.9 2.3 34.4 2.9 59.8 3.7 162 4.9 208-0.3 23.1-2.4 45.9-6.2 68.7-10.4 22.8-4.5 45.4-9.9 67.8-16.1 44.7-12.7 88.7-28.9 131.1-48.8 21.2-10 42-20.8 62.3-32.7 20.3-11.9 40.2-24.6 58.7-38.9z"/>
	</g>
</svg>