<svg version="1.2" xmlns="http://www.w3.org/2000/svg" viewBox="0 0 1515 900" width="1515" height="900">
	<title>OERL</title>
	<style>
		.s0 { fill: #eb0000 } 
	</style>
	<path id="Layer" fill-rule="evenodd" class="s0" d="m448.9 900c-272.5 0-448.9-178.6-448.9-449.9 0-271.3 176.4-449.9 448.9-449.9 125.2 0 230.7 40.7 307.8 112 75.3-71.3 187.7-112 312.5-112 272.5 0 445.6 175.3 445.6 482.3 0 27.6-1.4 42.2-1.4 42.2h-610.8c11.2 102.5 64 173.8 177.9 173.8 125.1 0 155.7-87.6 155.7-87.6h272.4c-24 110.5-136.4 289.1-439.4 289.1-124.8 0-237.2-40.7-312.5-112-77.1 71.3-182.6 112-307.8 112zm0-682.3c-89.8 0-166.6 78.2-166.6 232.4 0 154.2 76.8 232 166.6 232 89.9 0 166.6-77.8 166.6-232 0-154.2-76.7-232.4-166.6-232.4zm785.4 134.9c-11.2-86.2-64-160.7-165.1-160.7-102.6 0-155.4 74.5-166.6 160.7z"/>
</svg>