<svg version="1.2" xmlns="http://www.w3.org/2000/svg" viewBox="0 0 1546 1015" width="1546" height="1015">
	<title>Verbund-svg</title>
	<style>
		.s0 { fill: #004e96 } 
	</style>
	<g id="g11">
		<path id="path41" fill-rule="evenodd" class="s0" d="m996.9 0.7l-13.1 34.7c-50.7 143.9-114.1 310.3-184.6 485.2-59.1 149.6-112.6 276.4-187.3 445.8l-13 32.5h-231.9l-13-33.7c-70.5-170.8-111.3-276.5-174.7-451.4-66.3-179.3-105.7-293.4-164.8-472.6l-13.5-40.5h239.6l6.1 20.6c12.7 38.2 24 76.3 36.7 114.5 9.9 29.6 16.9 50.8 25.4 74.8l56.3 172.1 69.1 201.8c32.4 96 35.1 106.6 53.4 198.4h9c15.4-74.7 25.1-103.7 57.6-194.1l76-204.5c9.9-26.9 18.4-50.9 36.7-101.7 39.4-111.4 70.4-197.5 91.6-261.2l7.4-20.7zm548.9 648.7c0 11.3 0 30.9-1.3 54.7l-1.1 11.2h-453l0.3 4.9c7 88.8 76.9 137.4 192 136.9 83.7 0 161-21.2 226.5-62.5v156.8c-81.8 42.5-166.1 63.1-257.5 63.1-229.3-0.5-361.4-130.1-361.8-353.8 0.3-219.6 135.7-360.7 343.5-360.9 199.3 0.4 311.9 125.3 312.4 349.6zm-189.1-75.9l-0.4-5c-6.7-80.4-50.4-125.9-122.9-125.5-75.4-0.2-128.5 48.7-139.8 125.3l-0.8 5.2z"/>
	</g>
</svg>