<svg version="1.2" xmlns="http://www.w3.org/2000/svg" viewBox="0 0 1594 920" width="1594" height="920">
	<title>Oconee-Federal-Logo-Stacked-svg</title>
	<style>
		.s0 { fill: #ed5f23 } 
		.s1 { fill: #ffffff } 
	</style>
	<g id="Layer">
		<path id="Layer" fill-rule="evenodd" class="s0" d="m372.5 470.7c-41.1-34.3-66.9-83.4-71.7-136.6-4.9-53.3 11.7-106.3 45.9-147.4 34.2-41.1 83.4-66.9 136.7-71.7 53.2-4.9 106.2 11.6 147.3 45.8 28.5 23.8 49.7 54.7 61.6 89.3l-46.8 59.8-91.4 156.7-37 50.2c-52.3 4-104.2-12.5-144.6-46.1z"/>
		<path id="Layer" fill-rule="evenodd" class="s1" d="m17.3 919.2c-37.8 1-5.8-91.5 20.9-118.4 26.3-26.6 68.7 16.2 202.6-54.2 62.5-32.9 209.2-164.7 327-352.6 46.2-73.7 182.8-329.4 259.2-377.1 69.1-43.3 127.9 4.8 181.9 53 191.4 170.7 346.4 385.8 561.6 525.5 33.7 21.9 28.2 134.2 0 114.9-220.8-150.6-372.5-377.2-580.6-541.6-56.4-44.5-114.8-82.8-177.2-25.8-89.4 81.5-148.9 197.4-209.5 301.3-138.9 238.1-275.6 378.4-367.7 421.9-92.2 43.5-111.3 50.5-218.2 53.1zm876.7-592.6c-21.3-23.1 20.7-90.3 24.7-86 124.7 135 283.9 271.8 384.2 361 17.1 15.2 17.5 123.3-5.7 102.5-128.6-115.1-278.5-242.5-403.2-377.5z"/>
	</g>
</svg>