<svg version="1.2" xmlns="http://www.w3.org/2000/svg" viewBox="0 0 1508 418" width="1508" height="418">
	<title>2021-Annual-Report-10-pdf-svg</title>
	<defs>
		<clipPath clipPathUnits="userSpaceOnUse" id="cp1">
			<path d="m-1010-1740h3528v4601h-3528z"/>
		</clipPath>
		<linearGradient id="g1" x1="218.7" y1="160.2" x2="421.8" y2="323.9" gradientUnits="userSpaceOnUse">
			<stop offset="0" stop-color="#1bb2e4"/>
			<stop offset="1" stop-color="#083ea1"/>
		</linearGradient>
		<linearGradient id="g2" x1="226.5" y1="118.5" x2="141" y2="308.5" gradientUnits="userSpaceOnUse">
			<stop offset="0" stop-color="#1bb2e4"/>
			<stop offset="1" stop-color="#083ea1"/>
		</linearGradient>
		<linearGradient id="g3" x1="248.3" y1="248.9" x2="280.4" y2="-12.8" gradientUnits="userSpaceOnUse">
			<stop offset="0" stop-color="#1bb2e4"/>
			<stop offset="1" stop-color="#083ea1"/>
		</linearGradient>
	</defs>
	<style>
		.s0 { fill: #595b61 } 
		.s1 { fill: #ff9027 } 
		.s2 { fill: url(#g1) } 
		.s3 { fill: url(#g2) } 
		.s4 { fill: url(#g3) } 
	</style>
	<g id="Clip-Path: Page 1" clip-path="url(#cp1)">
		<g id="Page 1">
			<path id="Path 1" fill-rule="evenodd" class="s0" d="m507.9 211.8c1.9-60.5 6.7-105.5 77.6-105.5 70.9 0 75.6 45 77.5 105.5v33.9c0 63.4-4.7 109.7-77.5 109.7-72.8 0-77.6-46.3-77.6-109.7zm45.6 56.1c0 19.7 1.6 51.7 32 51.7 31.6 0 32-32.7 32-55.5v-60.8c0-19 0.9-61.2-32-61.2-34.8 0-32 41.5-32 59.9zm246.7-155.9h44.4v237.7h-46.3l-34.5-84.6c-11.7-28.2-21.2-57.1-31.6-94.5h-0.6c1.5 19.7 3.4 43.8 4.7 67.8 1.3 23.8 2.2 47.6 2.2 66.6v44.7h-44.3v-237.7h45.9l34.5 86.5c11.4 27.6 20.9 55.8 31.7 94.4h0.6c-1.6-21.5-3.2-44.6-4.4-67.4-1.3-22.9-2.3-45.7-2.3-66.9zm79.9 237.7v-237.7h124.7v34.8h-80.4v59.9h74.1v34.9h-74.1v73.2h80.4v34.9zm347.6 1.9h-20.2v-37.1h-0.7c-6.9 26.9-28.1 40.9-54.4 40.9-70.6 0-76-70.4-76-126.2 0-55.4 9.8-122 78.5-122 45.3 0 71.2 29.5 70.6 73.9h-26.6c-0.3-29.2-12.6-49.5-42.7-50.1-51.9-0.9-52.6 58.6-52.6 99.2 0 36.1-1.9 99.2 45 101.4 48.7 2.2 53.2-42.5 52.8-80.2h-52.8v-23.7h79.1zm150.7-1.9c-1.9 0.3-3.8 0.6-5.7 1.2-21.2 1-29.1-0.9-31.6-25h-0.6c-6.1 15.5-22.2 28.5-39 28.5-35.1 0-45.2-19.6-45.2-51.6 0-6.7 0.9-32.1 25.3-42.8 14.2-6.4 49.7-19.7 52.8-22.2 5.4-4.1 4.8-11.1 4.8-20.3 0-19.9-7.6-27.6-27.9-27.6-22.8 0-25.9 10.5-25.6 31.1h-22.5c-1.3-36.4 16.8-52.3 52.2-52.3 52.3 0 47.9 43.7 47.9 47.9v101.1c0 4.4-0.7 10.7 4.4 13.3 3.5 0.9 7.3 0.6 10.7 0.3zm-41.1-95.1c-12.4 7.3-26.3 12.7-39.6 19-11.7 5.4-15.5 18.4-15.5 30.4 0 17.8 4.4 29.2 24.7 29.2 9.5 0 30.4-7.3 30.4-35.8zm139.3-33.9c1-20.9-6.6-30.8-27.9-30.8-17.7 0-27.8 8.3-27.8 26.6 0 22.9 18.7 25.7 35.8 33 25.3 11.4 50.6 17.8 50.6 50.7 0 33.6-23.4 54.5-59.5 54.2-15.5 0.3-34.5-5.1-43.7-18.4-10.4-13.9-9.8-25.6-9.8-37.7h23.7c-0.9 21.6 6.4 34.9 29.8 34.9 20.3 0 33.6-8.3 33.6-29.8 0-25.1-25.4-27.3-43.4-34.9-27.2-10.1-43.1-19.3-43.1-50 0-30.5 21.2-49.8 51.6-49.8 34.9 0 55.1 15.8 54.5 52z"/>
			<path id="Path 2" class="s1" d="m411.4 269c-8.7 37.8-31.5 74.3-65.7 99.2q-0.3 0.2-0.6 0.2-0.3 0-0.6-0.2c-0.4-0.2-0.5-0.6-0.5-1 8.1-47.4-8.4-99.7-52.8-133.3-0.4-0.2-0.6-0.7-0.4-1.2 0.2-0.4 0.6-0.7 1.1-0.7 48.4 2.6 87.6 16.1 119.1 35.8 0.3 0.3 0.5 0.7 0.4 1.2z"/>
			<path id="Path 3" class="s2" d="m295.4 148.8l10.6-0.3c37.7 0 74 10.9 101 25.7l0.5 0.6c10.2 29.4 11 58.2 7.3 82 0 0.3-0.3 0.6-0.6 0.8l-0.4 0.1-0.6-0.2c-80-47.3-182.4-39.1-258-13.1-0.4 0.1-0.9 0-1.1-0.3-0.3-0.4-0.4-0.8-0.2-1.2 30.1-57.3 74.7-83.8 120.4-91.8l10.6-1.5z"/>
			<path id="Path 4" class="s3" d="m167.8 4.3c13.1-2.7 26.6-4.2 40.3-4.2h1.9c12.9 0 25.9 1.3 39.1 3.9 12.6 2.4 25.2 6.1 37.2 10.9 0.4 0.2 0.7 0.6 0.7 1 0 0.6-0.4 1-0.9 1.1h-0.3c-10.4-1.8-20.9-2.7-31.2-2.7-105.8 0-187 87.4-187 187.1 0 112.6 102.7 207 231 184 12.1-2.2 22-5.2 29.4-7.6 0.5-0.2 1 0.1 1.2 0.5 0.3 0.5 0.1 1.1-0.3 1.4-17.2 12.1-36 21.4-55.9 27.8-130.4 42.1-267.4-52.1-272.2-191.2v-14.8c3.2-91 65.4-166.8 147.7-192.3l9.5-2.7z"/>
			<path id="Path 5" class="s4" d="m250.9 28c59.2 0.1 118.5 29.7 151.3 89.8 5.7 10.5 10.4 21.6 13.9 33.1 0.1 0.5-0.1 1.1-0.6 1.3-0.5 0.2-1.1 0-1.3-0.4-7-11.7-15.6-22.2-25.3-31.6-62.8-60.4-168-57.4-225.8 15.6-38.2 48.2-43.4 115.8-14.3 168.9 14.6 26.9 36.7 48.5 63.7 62.5 0.4 0.2 0.6 0.5 0.6 1 0 0.5-0.4 1-1 1h-0.3c-11.6-2.7-22.9-6.6-33.7-11.6-92.9-42.9-124.2-152.2-80.9-236.2 30-58.1 85.3-89.3 142.3-93l5.7-0.3z"/>
			<path id="Path 6" fill-rule="evenodd" class="s0" d="m410.4 351.8q2.8 0 4.3 1.4 1.5 1.4 1.5 4.3 0 2.2-0.9 3.6-0.9 1.3-2.7 1.8 1.6 0.3 2.4 1.1 0.7 0.8 0.9 2.7 0.1 0.6 0.1 1.3 0.1 0.7 0.1 1.6 0 1.7 0.2 2.7 0.2 0.9 0.8 1.2v0.2h-4.8q-0.3-0.5-0.4-1.1-0.1-0.6-0.2-1.2l-0.1-4.2q0-1.3-0.6-2-0.6-0.8-2-0.8h-2.3v9.3h-4.4v-21.9m6.2 9.6q1.6 0 2.4-0.8 0.9-0.7 0.9-2.5 0-3-3.1-3h-2v6.3z"/>
			<path id="Path 7" fill-rule="evenodd" class="s0" d="m408.8 382.4c-10.7 0-19.5-8.7-19.5-19.5 0-10.8 8.8-19.5 19.5-19.5 10.8 0 19.5 8.7 19.5 19.5 0 10.8-8.7 19.5-19.5 19.5zm16.3-19.5c0-9-7.3-16.3-16.3-16.3-8.9 0-16.2 7.3-16.2 16.3 0 9 7.3 16.2 16.2 16.2 9 0 16.3-7.2 16.3-16.2z"/>
		</g>
	</g>
</svg>