<svg version="1.2" xmlns="http://www.w3.org/2000/svg" viewBox="0 0 1497 365" width="1497" height="365">
	<title>logo (74)-svg</title>
	<style>
		.s0 { fill: #00263e } 
	</style>
	<path id="Layer" fill-rule="evenodd" class="s0" d="m1496.2 182.4c0 100.7-57.4 182.3-128.2 182.3h-1239.8c-70.8 0-128.2-81.6-128.2-182.3 0-100.7 57.4-182.3 128.2-182.3h1239.8c70.8 0 128.2 81.6 128.2 182.3zm-35.9 0c0-79.5-41.3-144-92.3-144h-1239.8c-51 0-92.3 64.5-92.3 144 0 79.6 41.3 144 92.3 144h1239.8c51 0 92.3-64.5 92.3-144z"/>
	<path id="Layer" fill-rule="evenodd" class="s0" d="m171.6 95.6c43.2 0 64.5 34.8 64.5 87.8 0 53-21.3 87.7-64.5 87.7-43.2 0-64.5-34.7-64.5-87.7 0-53.1 21.3-87.8 64.5-87.8zm0 142.7c18.5 0 27.5-15 27.5-54.9 0-39.9-9-54.9-27.5-54.9-18.5 0-27.5 15-27.5 54.9 0 39.9 9 54.9 27.5 54.9zm162.4-72.5c-0.9-30.3-9.9-37.3-23.5-37.3-16.4 0-29 14.5-29 54.9 0 40.3 12.6 54.9 29 54.9 18.6 0 22.6-17.8 23.5-35.9h36.6c-0.3 38.5-22.1 68.7-62.9 68.7-38 0-62.8-28.6-62.8-87.7 0-59.1 24.8-87.8 62.8-87.8 42 0 63.3 30.8 62.9 70.2zm287.3 103h-38.4l-9.5-32.3h-42.3l-9 32.3h-38.3l50.3-169.7h34.9zm-69-120h-0.5l-11.5 54.8h23.4zm190.3-49.7v169.7h-29.9l-50.4-94.8v94.8h-31.3v-169.7h33.1l46.7 88.1v-88.1zm513.7 0v169.7h-29.9l-50.4-94.8v94.8h-31.3v-169.7h33.2l46.7 88.1v-88.1zm-387.9 169.7v-169.7h88.3v34h-51v31.2h51v32.5h-51v39.5h51v32.5zm103.5 0v-169.7h56c30.4 0 50.5 25.3 50.5 54.6 0 19-10 43.2-35 46.7l42.5 68.4h-40.7l-37.4-66.1h-0.4v66.1h-35.6q0.1 0 0.1 0zm35.5-94.7h11.6c14.5 0 23-7 23-21.1 0-14-8.5-21.1-23-21.1h-11.6c0 0 0 42.2 0 42.2zm388.8-15.6h-37c-0.2-16.4-9-30-26.6-30-13.7 0-26.5 14.6-26.5 54.9 0 40.4 12.8 54.9 26.5 54.9 20.7 0 26.8-16.4 26.6-30h-30.1v-32.9h67.1v33.3c0 35.2-23.2 62.5-63.6 62.5-38.4 0-63.5-28.7-63.5-87.8 0-59.1 25.1-87.8 63.5-87.8 36.6 0 61.2 24.4 63.6 62.9 0 0 0 0 0 0zm-634.1 110.3v-169.7h88.2v34h-51v31.2h51v32.5h-51v39.5h51v32.5c0 0-88.2 0-88.2 0zm-375.9 0v-169.7h88.2v34h-51v31.2h51v32.5h-51v39.5h51v32.5zm744.2 0h-33.7v-169.7h33.7z"/>
</svg>