<svg version="1.2" xmlns="http://www.w3.org/2000/svg" viewBox="0 0 1520 378" width="1520" height="378">
	<title>O2-big-logo-svg</title>
	<style>
		.s0 { fill: #ffffff } 
		.s1 { fill: #000000 } 
		.s2 { fill: #ed1b25 } 
	</style>
	<g id="#ffffffff">
		<path id="Layer" fill-rule="evenodd" class="s0" d="m171.2 65.8c10.3-1.2 20.7-0.6 31.1-0.7 11 0.6 22.2 1.9 32.9 4.9 13.4 3.7 26.2 10.1 36.6 19.4 4.4 2.2 7.5 6.2 10.9 9.7 4 4 7.4 8.5 11.1 12.8 8.3 11.5 14 24.8 17.6 38.5 2.1 7.9 3.6 16 3.6 24.1 0.6 5.5 0.7 11 0.1 16.4-0.1 12.2-3.1 24.1-6.9 35.6-3.8 11.1-9 21.7-15.9 31.1-2.1 2.2-3.4 4.9-5.5 7.1-7.9 9.3-17.5 17.1-27.8 23.7-15.2 9.7-33.2 14.2-51 15.8-2.2 0.1-4.3 0.2-6.4 0.5-22.6 1.1-45.6-2.3-66.3-11.7-6.5-3.3-13.4-6.3-18.5-11.7-8.8-6.6-16.8-14.3-23.3-23.2-2.8-4.5-5.4-9.2-8.2-13.7-8.7-14.7-12.6-31.6-14.3-48.5-0.4-6.4-0.9-12.9-0.5-19.3 0.6-2.8 0-5.6 0.6-8.3 2.2-18.7 7.8-37.3 18.7-52.8 1.9-2.9 4.8-5 6.3-8.1 3.9-4.9 8.5-9.1 12.9-13.5 2-2 4.6-3.3 6.7-5.3 15.6-13 35.4-20.4 55.5-22.8zm17.5 10.6c-9.2 1.2-18.6 3.7-26 9.6-3.8 3.4-7.3 7-10.3 11.1-4.3 5.5-7.3 11.8-10 18.2-6.6 16.4-9.7 34.1-10.3 51.7 0.2 2.8-0.5 5.4-0.4 8.2 0.1 6.7-0.1 13.4 0.1 20.1 0.4 3.7 0.4 7.5 0.6 11.3 1 9.4 2 18.8 4.2 27.9 3.2 13.4 8.1 26.6 16.2 37.8 3.7 4.8 7.7 9.7 13.1 12.7 6.9 4 14.8 5.9 22.6 7.1 6.6-0.2 13.2-0.5 19.5-2.2 9.2-2.2 18.1-7.1 23.8-14.9 7.4-9.2 12.2-20.2 15.7-31.4 3-10.6 4.9-21.6 5.6-32.6 1-8.6 1.1-17.2 1.1-25.8-0.1-6.2 0.1-12.5-0.5-18.7-0.5-3.6 0.1-7.3-0.9-10.8-0.7-6.8-1.3-13.6-2.6-20.3-3-15.3-8.3-30.5-18.2-42.7-8.7-10.4-22.2-15.2-35.3-16.5-2.7-0.1-5.4-0.3-8 0.2z"/>
	</g>
	<g id="#000000ff">
		<path id="Layer" fill-rule="evenodd" class="s1" d="m0.9 0.1c116.9 0.1 233.9 0.3 350.8 0.4 22.3 0.2 44.5-0.1 66.7 0.3 0 67.7 0.2 135.5 0.1 203.3 0.1 57.4-0.1 114.8-0.1 172.2-67.6-0.2-135.3-0.1-203-0.1q-103.3 0-206.6 0c-2.7 0-5.4 0-8.1 0.1-0.3-14.1 0-28.2-0.1-42.3 0-15.4-0.2-30.9 0.1-46.4 0-95.8 0.2-191.6 0.2-287.5zm170.3 65.7c-20.1 2.4-39.9 9.8-55.5 22.8-2.1 2-4.7 3.3-6.7 5.3-4.4 4.4-9 8.6-12.9 13.5-1.5 3.1-4.4 5.2-6.3 8.1-10.9 15.5-16.5 34.1-18.7 52.8-0.6 2.7 0 5.5-0.6 8.3-0.4 6.4 0.1 12.9 0.5 19.3 1.7 16.9 5.6 33.8 14.3 48.5 2.8 4.5 5.4 9.2 8.2 13.7 6.5 8.9 14.5 16.6 23.3 23.2 5.1 5.4 12 8.4 18.5 11.7 20.7 9.4 43.7 12.8 66.3 11.7 2.1-0.3 4.2-0.4 6.4-0.5 17.8-1.6 35.8-6.1 51-15.8 10.3-6.6 19.9-14.4 27.8-23.7 2.1-2.2 3.4-4.9 5.5-7.1 6.9-9.4 12.1-20 15.9-31.1 3.8-11.5 6.8-23.4 6.9-35.6 0.6-5.4 0.5-10.9-0.1-16.4 0-8.1-1.5-16.2-3.6-24.1-3.6-13.7-9.3-27-17.6-38.5-3.7-4.3-7.1-8.8-11.1-12.8-3.4-3.5-6.5-7.5-10.9-9.7-10.4-9.3-23.2-15.7-36.6-19.4-10.7-3-21.9-4.3-32.9-4.9-10.4 0.1-20.8-0.5-31.1 0.7zm148.7 170.5c-3.2 4.9-5.7 10.3-6.1 16.2 4.7-4.2 9.5-8.9 15.9-10.2 5.6-0.8 11.9-0.6 16.6 3 4 3.2 5.7 8.4 5.9 13.4 1.5 8.4-1.5 16.7-5.5 23.9-6.8 12.8-15.7 24.2-24.8 35.4-4.6 5.8-9.8 11-14.3 16.9 5.3 0.3 10.6 0 15.9 0 6.7-0.1 13.4 0.2 20.1-0.4q12.9-0.1 25.7 0c1.8-0.1 3.6 0.2 5.2-0.3 1-3.9 1.4-7.9 2.1-11.9 0.5-6.2 2.3-12.3 2.5-18.5-2.7 2.7-4.6 6.1-7.4 8.8-0.8 0.7-1.6 1.4-2.6 1.6-4.7 0.9-9.5 0.6-14.2 1.2-7.3 0.3-14.7 0.4-22.1 0 1.1-1.5 2.3-2.9 3.7-4.2 5.9-5.6 11.4-11.5 16.8-17.6 6.9-7.6 14.1-15.2 17.8-24.9 1.7-4.9 3.8-9.8 3.6-15 0.5-10.1-3.8-20.7-12.2-26.5-6.5-4-14.6-4.5-22-3.7-8.3 1.1-16.1 5.8-20.6 12.8zm-131.2-159.9c2.6-0.5 5.3-0.3 8-0.2 13.1 1.3 26.6 6.1 35.3 16.5 9.9 12.2 15.2 27.4 18.2 42.7 1.3 6.7 1.9 13.5 2.6 20.3 1 3.5 0.4 7.2 0.9 10.8 0.6 6.2 0.4 12.5 0.5 18.7 0 8.6-0.1 17.2-1.1 25.8-0.7 11-2.6 22-5.6 32.6-3.5 11.2-8.3 22.2-15.7 31.4-5.7 7.8-14.6 12.7-23.8 14.9-6.3 1.7-12.9 2-19.5 2.2-7.8-1.2-15.7-3.1-22.6-7.1-5.4-3-9.4-7.9-13.1-12.7-8.1-11.2-13-24.4-16.2-37.8-2.2-9.1-3.2-18.5-4.2-27.9-0.2-3.8-0.2-7.6-0.6-11.3-0.2-6.7 0-13.4-0.1-20.1-0.1-2.8 0.6-5.4 0.4-8.2 0.6-17.6 3.7-35.3 10.3-51.7 2.7-6.4 5.7-12.7 10-18.2 3-4.1 6.5-7.7 10.3-11.1 7.4-5.9 16.8-8.4 26-9.6z"/>
		<path id="Layer" fill-rule="evenodd" class="s1" d="m1472.5 10.8c10-1.4 20.6 0.6 28.9 6.5 7.8 5.4 13.9 13.3 16.5 22.4 2.1 7.8 2.1 16.2-0.2 23.9-3.3 10.6-11.3 19.7-21.3 24.6-7.6 3.8-16.4 4.6-24.8 3.5-11.7-1.8-22.2-9.3-28.4-19.4-5.6-9.1-6.9-20.6-4.5-31 2.3-9.9 8.9-18.5 17.3-24.2 4.9-3.4 10.6-5.5 16.5-6.3zm3.7 6.8c-16.9 0.7-31.9 16.2-31.4 33.3-0.7 10.8 5 21.3 13.6 27.6 7.4 5.8 17.3 7.6 26.4 6 8.6-1.3 16.2-6.7 21.3-13.6 6.4-8.5 7.8-20.2 4.6-30.2-2.3-7.6-7.8-13.9-14.4-18.2-5.9-3.8-13.1-5.4-20.1-4.9zm-14.1 8.4c7.2 0.1 14.3 0 21.4 0.1 3.9 0 8.1 1 10.5 4.4 3.8 5.5 3.9 14.1-1.2 18.9-2.1 2.1-5 2.8-7.7 3.7 3.5 2.2 5.8 5.6 7.8 9.2 2.4 4.4 5 8.7 7.4 13.1q-3.7 0.1-7.3 0c-2.7-4.7-5.2-9.5-8-14.1-1.8-2.9-3.7-6.5-7.3-7.6-3.2-0.3-6.4-0.1-9.6-0.2-0.2 7.3-0.1 14.6-0.1 21.9q-3 0.1-5.9 0c0-16.4 0-32.9 0-49.4zm5.9 5.6c0 5.4-0.1 10.8 0 16.2 4.2 0 8.3 0.1 12.4 0 2.9-0.2 6.1-0.3 8.2-2.6 2.7-2.9 3-7.9 0.3-11-1.6-1.9-4.2-2.6-6.6-2.6-4.8-0.1-9.5 0-14.3 0zm-1000.8 10.2c31.9 0 63.9 0.1 95.8 0 20.7 34 41.7 68 62.4 102-23 36.4-46.2 72.6-69.5 108.8q-36.3-57.3-72.7-114.6c-5-7.6-9.7-15.4-14.8-23-1.8-2.3-1-5.5-1.2-8.3 0.5-21.6-0.1-43.2 0-64.9zm223 0c21.2 0.1 42.4 0 63.6 0 0.2 18.5 0.1 37 0.1 55.5 0.1 52.3-0.1 104.6-0.5 156.9q-60 0-120 0c0.2-41 0-82 0.1-123q0-1.1 0.8-2c18.9-29 37.3-58.3 55.9-87.4zm119.3 0.9c5-0.4 10.1-1.3 15.2-0.7 12.5 0.7 25.9 2.8 35.5 11.7 3.6 2.9 5 7.8 4.6 12.3-0.4 4.2-1.7 8.9-5.4 11.4-3.7 3.5-8.5 5.4-13.2 7.1-7 2.1-14.2 3.3-21.5 3.4-4 0.1-8 0.4-11.9-0.5-7.5-0.7-15-2.5-21.7-6.1-3.2-1.8-6.5-4-8.3-7.5-1.8-3.3-2.4-7.2-2.4-11 0.7-5.6 4.5-10.2 8.9-13.4 6.1-3.8 13.1-5.7 20.2-6.7zm118.6 63.9c10.6-6 22.7-8.5 34.8-9.1 2.9-0.6 5.9-0.5 8.9-0.4q0 52.6 0 105.1c0.1 13.8-0.1 27.5 0.1 41.3 1.1 3.2 5.2 2.8 7.9 2.5 12.4-0.4 25.1-2.8 35.7-9.5 3-1.8 5.3-4.4 8.4-5.9 5-4 9.5-8.6 13.6-13.5 1.9-2.8 3.4-5.8 5.4-8.5 3.2 0.4 6.3 1.2 9.3 2.1-2.4 5.1-5.2 10-8.6 14.5-4.4 4.8-9.1 9.4-14.4 13.2-3.5 3.2-7.9 5.2-12.2 7.2-12.9 5.7-26.9 8.1-40.9 8.6-14.5 0-29.1-2.3-42.5-7.7-5.4-2.5-11-5-15.4-9.1-5-3.2-9-7.8-13.1-12-9.5-10.9-14.3-25.1-16.1-39.3-0.6-5.3-1.5-10.6-1-15.9 1.5-13 5.7-25.7 12.3-36.9 1.3-2.6 3.6-4.5 4.8-7.1 3.3-4.4 7.4-8.1 11.7-11.6 3.7-2.7 7.2-5.7 11.3-8zm89.1-8.1c4.4-0.9 8.8 0.1 13 1.2 4.1 1.1 7.9 3.1 11.1 5.9 1.9 2.4 4.2 4.6 6 7.1 2.6 4.5 3.8 9.7 4.4 14.8 0.6 5.3-1 10.6-2.8 15.5-1.7 4.8-5.3 8.6-9.3 11.6-5.3 3.9-11.9 5.5-18.3 6.4-6.1-0.1-12.2-1.8-17.4-4.8-6.3-3.9-11.1-10.1-12.9-17.3-1.1-4.8-2.4-9.8-1.3-14.7 1.4-7.3 5-14.6 11.1-19.1 4.7-3.8 10.6-5.5 16.4-6.6zm279.5 4.8c7.6-2.7 15.6-4 23.6-5.1 4.3 0 8.6-0.8 13-0.4 0.5 5.5 0.3 11 0.5 16.5 0.5 37.4-0.1 74.9 0.2 112.4 0.4 9.5 0 19.1-0.4 28.6-3.4 0.2-6.8 0.1-10.2 0.2-17.7-2.1-35.9-7-49.9-18.5-3.8-4-8.3-7.2-11.7-11.5-8.5-10-13.3-22.7-15.5-35.5-2.4-11.8-1.4-24.3 2.1-35.8 3.5-12.3 9.8-24.1 19.3-32.8 8.3-7.9 18.2-14.2 29-18.1zm55.1-5.6c15 0.5 30.3 2.4 44.1 8.7 5 2.1 9.5 5.2 13.9 8.2 3.2 1.3 5.5 4.1 8.1 6.3 6.3 5.9 11.7 12.8 15.2 20.7 4.2 9 6.4 18.8 7.9 28.6-0.1 2.3 0 4.7 0.3 7-0.5 5.4-0.8 10.8-1.9 16-4.2 20.1-16.4 38.8-34.1 49.4-11.9 7.3-25.6 10.7-39.3 12.3-4.7 0.8-9.5 0.4-14.2 0.5q0.1-78.8 0-157.7zm-570.9 1.4q24.4 0.1 48.8 0c12.1 0 24.1-0.5 36.1 0.5 0.9 36.7 0.5 73.4 0.5 110.1-0.1 14.9 0.7 29.9-0.5 44.8-28.2-0.3-56.5 0.1-84.7-0.2-1-18.2-0.2-36.4-0.3-54.6 0.2-33.5-0.1-67.1 0.1-100.6zm291.1 0.3c7.2-0.6 14.4-0.1 21.5-0.3 10.9 0.1 21.8-0.1 32.7-0.1 9.9 0 19.8-0.3 29.7 0.6q0.7 10.9 0.7 21.7c3.6-3.2 7.4-6.3 11-9.6 8.4-6.8 19.1-10 29.6-11.7 7.1 0.2 14.3 1 20.8 4 4.7 2.2 8.4 5.9 11.7 9.7 3.9 5.3 5.3 11.9 6.1 18.2 0.4 3.4-0.6 6.6-1.3 9.9-1.8 7.4-6.1 14.5-12.8 18.5-4.1 2.7-8.9 4.1-13.7 4.6-2.2 0.3-4.4 0.9-6.5 0.4-6.8-0.9-14-2.5-19.4-7.1-1.7-1.8-3.6-3.4-5.3-5.4-4.8-6.5-6.4-14.8-6.5-22.8 0.5-3.2 1.6-6.4 1.4-9.7q-7.3 5.5-13.8 11.8c-0.7 0.7-1.6 1.3-1.6 2.3-0.3 15.7 0.2 31.4 0.2 47.1 0.1 24.3 0 48.7-0.7 73-15.7 0.9-31.5 0.5-47.2 0.3-12.1-0.1-24.1-0.2-36.2-0.4-0.9-6.7-0.5-13.5-0.6-20.2 0.3-45 0-89.9 0.2-134.8zm-604.4 47.1c18.2 28.8 36.2 57.6 54.7 86.1 3.1 4.7 5.9 9.6 8.8 14.5 1.8 2.1 3 4.6 4.6 6.8-22.7 0.4-45.4 0.6-68.2 0.5 0.1-36 0-71.9 0.1-107.9zm798.4 161.6c1.4-0.4 2.8-0.2 4.2 0 4.1 1.7 4.6 8.4 0.6 10.5-2.8 1.8-7.1 0.3-8.1-2.9-1.5-2.9 0.3-6.6 3.3-7.6zm15.4 2.5c5-1.6 10.2-2.1 15.3-3.4 0.6 2-0.6 3.9-1.1 5.8-4.2 14.6-10.3 28.8-12.2 44 2.6-1.5 4.8-3.7 7.2-5.5-1.5 3.9-4 7.8-7.9 9.7-2.7 1.1-6.1 1.3-8.5-0.6-1.7-1.6-1.6-4.1-0.9-6.2 4.4-13.6 8.6-27.4 11.6-41.5q-1.7-1.3-3.5-2.3zm-626.6-0.6c5.1-0.8 10.2-1.7 15.4-2-2.8 11-6.3 21.9-9.4 32.9 2.4-2.5 4.3-5.3 6.2-8.1 2.8-2.9 5.7-6.3 9.9-7 1.6-0.1 3.7-0.9 4.8 0.5 2.2 2.2 3 5.4 2.2 8.4-1.6 7.2-7 13.6-6 21.3 2.4-1 3-4.6 5.9-4.2-0.5 2.5-2.5 4.3-4.2 6.2-2.8 3.5-8.7 4.7-12.4 1.7-0.2-4.7 0.6-9.4 2.4-13.7 1.9-4.2 3.3-8.7 3.7-13.2-3.1-0.2-4.9 2.4-6.8 4.4-5.9 6.7-9.7 15-11.8 23.5-2.2 0.2-4.3 0.7-6.6 0.7-1.4 0-3.1-1.2-2.6-2.7 4.6-14 8.8-28.1 12.7-42.3 0.3-1.1 0.5-2.4-0.1-3.5-1.1-0.6-2.2-1-3.3-1.6 0-0.3 0-1 0-1.3zm48.9-1.6c3-1.3 7.3 0 8.2 3.5 1.9 4.5-4.1 9.3-8.1 6.7-4.3-1.7-4.1-8.2-0.1-10.2zm169.7 0.3c2.2-1.1 5.4-1.1 7.2 0.9 1.7 1.5 1.1 4.1 1 6.1-1.1 3.8-6.5 4.9-9.2 2-1.8-1.4-1.8-3.9-1.6-6.1 0.6-1.1 1.5-2.2 2.6-2.9zm30.6 1.7c4.6-2.8 10.6-2.8 15.5-0.9 1.1 2.2 0.9 4.7 0.1 6.9-2 0.8-4.2 0.8-6.2 0-0.1-2.2-0.1-4.4 0.1-6.7-1.8 0.4-3.8 1-4.8 2.8-2.6 4-4.4 8.4-5.4 13.1q2.1 0.8 4.3 1.4c-0.4 1.4-0.5 3.3-2 4.1-1.4 0.4-3 0.2-4.5 0.3-1.6 4.9-2.2 10.1-3.8 15-2.2 7.9-5.3 15.6-8.9 23-3.1 6.4-11.1 9.4-17.8 7.9-1.5-0.3-2.7-1.6-2.9-3.1-0.7-3.2 3.3-5 6-4.6 1.9 1.6 2.6 4 2.8 6.4 2.4-2.7 4.5-5.8 5.3-9.4 1.5-6.5 3.2-12.9 5.3-19.2 1.4-5.3 3.7-10.5 3.5-16q-1.7-0.1-3.4-0.1c-0.4-1.5 0.2-3 0.7-4.4 1.4-0.4 3-0.6 4.3-1.3 2.2-2.3 3.1-5.5 5.2-8 1.7-2.8 4.1-5.1 6.6-7.2zm70.3-2.1c2-0.6 4.4-0.6 6.1 0.7 3.3 2.6 2.4 8.8-1.7 10.1-1.6 0.4-3.4 0.4-4.8-0.5-3.6-2.2-3.6-8.6 0.4-10.3zm246.2 2.5c4.9-1.8 10.2-2.7 15.5-2.8-1.4 7.6-3.7 14.9-6 22.2 1.6-1.5 3-3.4 5.1-4.1 2.8-1.1 6.1-0.7 8.7 0.9 3.9 4.1 4 10.3 2.7 15.5-1.4 5.3-3.5 10.7-8 14.1-4.1 4.3-10.3 6.1-16.2 5.1-3.5-0.4-7.4-1.2-9.9-4.1-0.1-1.3 0.6-2.4 0.9-3.6 4.2-13.6 8.1-27.2 11.3-40.9-1.4-0.8-2.8-1.5-4.1-2.3zm8.7 23.1c-2 5.9-3.7 11.8-5.7 17.7-0.7 2.4-1.7 4.7-1.6 7.3 1.3 0.4 2.7 0.7 4.2 0.5 2.9-1 5.2-3.4 6.8-6 3.5-5.3 4.5-11.9 4.3-18.1-0.2-1 0.2-2.3-0.7-2.9-2.1-2.4-5.9-0.7-7.3 1.5zm80-25.3c2.1-1.1 4.7-0.7 6.7 0.3 1.4 1.8 2.7 4.4 1.6 6.6-0.9 2.4-3.5 4.1-6 3.8-2.7-0.5-5.6-2.9-5.2-6 0.2-1.9 1.1-3.9 2.9-4.7zm-830.6 0.3c9.7-0.3 19.5-0.3 29.2 0.4 2.2 0.5 4.7 0.6 6.3 2.4 3 2.2 4.1 6.2 3.5 9.7-0.7 3.3-2.9 6.3-5.8 8-3.2 1.7-6.6 2.9-10.1 3.5 2.6 1.4 5.5 2.3 7.9 4.1 2.2 2 3.6 4.8 4 7.8 0.4 7.7-6.2 14.6-13.7 15.4-5 0.9-10 0.6-15 0.8-5 0.1-10.1 0.3-15.1 0.3-1.6 0-3.1-0.5-4.6-0.9 1.9-1 3.9-1.6 6-1.8 6.2-14 10.3-28.8 12.8-43.9 0.1-0.8 0.2-1.6 0-2.4-1.4-1.7-4-1.7-5.4-3.4zm18 3.5c-1.6 6.4-3.8 12.7-5.5 19 3.5 0.1 7.6-0.1 10.2-2.9 3.9-3.4 4.3-9.5 2.5-14-1.3-2.7-4.7-2.5-7.2-2.1zm-6.4 22.6c-2.1 7.6-4.5 15.1-6.6 22.7 5.5 0.4 12.8-0.1 15.3-5.9 2.7-4.8 3.5-11.7-1-15.6-2.3-1.5-5.1-1.2-7.7-1.2zm331.7-26.2c8.1-0.3 16.3-0.2 24.4 0.5 0.3 0.3 0.9 0.7 1.1 0.9-2.5 0.5-6.2 0.6-7 3.6-4.5 13.2-8.8 26.4-12.4 39.9-0.5 1.4-0.5 3.6 1.3 4 3.9 0.4 7.7-0.4 11.4-1.5 3.1-1 6.2-2.2 8.3-4.7 1.8-2 3.8-3.7 5.9-5.3-1.2 5-3.2 9.8-4.9 14.6-11.6 0.1-23.2 0.3-34.7 0.6-2.4-0.1-5 0-7-1.3 1.9-0.8 4-1.1 5.8-2.2 3.6-6 5.5-12.8 7.2-19.5 2.1-8.9 6-17.5 5.7-26.7-1.8-0.7-4.2-0.9-5.1-2.9zm290.9 0.7c1.4-1.2 3.4-0.7 5.2-0.8 4.7 0.1 9.4-0.2 14 0.2 1.1 11.7 2.4 23.4 3.6 35.1 1.8-2.2 3.4-4.6 4.9-6.9 7.2-9 12.9-19.1 19.6-28.4 6.2-0.2 12.4 0 18.4 1.3-2.6 1-6.2 0.6-7.6 3.5-2.8 7.6-4.9 15.5-7.6 23.1-2.5 6.9-4.3 14.2-4.3 21.6 1.9 0.4 3.9 0.6 5 2.3-6.9 0.5-13.9 0.9-20.9 0.9-1.9 0-3.8-0.5-5.7-1.1 3.1-1.1 7.8-1.1 8.7-5 4.1-12 7.9-24.1 10.7-36.5-1.9 2.8-3.1 6-5.6 8.2-7.9 11.6-14.7 24.1-24.6 34.2-2-14.1-2.2-28.5-5.4-42.4-2.8 10.2-5.4 20.5-9.2 30.4-1 2.7-0.6 5.5-0.4 8.2 2 0.8 4 1.5 5.4 3.1-5.8 0.7-12.1 1.8-17.7-0.5 2.9-1.1 6.4-1.5 7.8-4.7 4.6-12.7 8.1-25.8 11.5-38.9 0.3-1.3 0.7-2.7 0.3-4-1.5-1.8-4-2.1-6.1-2.9zm-480.2 16.5c4.5-2.8 8.3-6.5 11.9-10.2 0.5 0 1.3 0.1 1.8 0.1-0.2 3.4-1.8 6.4-2.9 9.6 1.3 0.7 2.7 0.9 4.1 1.1-0.4 1.4-0.8 2.7-1.1 4.1q-2.3 0.5-4.6 0.8c-2 7.1-4.3 14.2-6.8 21.2-0.6 1.4-0.4 2.9-0.4 4.3 0.4 0 1.1 0 1.5 0 1.6-1.8 3.5-3.4 5.6-4.7 0.1 2.3-1.4 4.1-2.8 5.7-2.6 2.7-6.4 3.9-10 4-2.1-0.3-4.3-1.9-4.3-4.2-0.4-2.6 0.7-5.1 1.5-7.5 2-6.2 3.8-12.4 5.7-18.6-1.7-0.2-3.5-0.3-4.8-1.4 1.4-2 3.7-2.9 5.6-4.3zm402.2-1.1c4.4-2.1 7.6-6 11-9.4 0.4 0.2 1.1 0.7 1.5 0.9q-1.4 4.4-2.8 8.9c1.3 0.6 2.5 1.3 3.7 2-0.5 1.3-0.4 3.1-1.9 3.7-1.2 0.3-2.4 0.2-3.6 0.3-2.2 8.8-6.5 17.1-7.2 26.3 3.2-0.2 3.8-4.6 7.1-4.7-1.5 3.8-4.4 7.4-8.4 8.5-2.3 0.9-5 0.9-7-0.6-2.1-1.6-2.2-4.7-1.4-7.1 2.3-7.4 4.7-14.8 6.9-22.3-1.8-0.1-3.5-0.1-5.1-1 2.1-2.1 4.6-4 7.2-5.5zm295.2-1.9c2.7-2.5 5.3-5.4 8.8-6.7 0.6 3.5-1.4 6.5-2.4 9.7 2-0.5 3.4 0.7 4.6 2.1 3.6-0.2 6.6-2.4 10.2-2.6 3.2 5.9 3 12.7 3.7 19.2 0 3.6 0.5 7.2 0.4 10.9 5.1-5.4 8.3-12.2 10.7-19.1-1.8-2.2-5.2-4-4.7-7.3 0.8-3.8 6.7-5.1 9-1.9 2 2.2 1.2 5.3 0.2 7.7-2.1 4.6-4.5 9-7 13.4-1.9 3-3.5 6.4-6.1 9-2.3 2.5-4 5.6-6.1 8.3-3.2 3.7-6.8 7.2-11.1 9.7-1.7 1-3.4 2.6-5.5 2.3-2.6 0.3-5.2-2.1-5.2-4.7-0.9-3.6 3.9-7.1 7-5 1.6 1 2.5 3.1 4.5 3.4 1.6-0.6 2.9-1.8 4.1-3 0-2 0-4.1 0.4-6.1 0.4-2.1-0.2-4.2-0.3-6.3-0.1-6.9-0.3-13.8-0.9-20.7-0.4-2-1.1-4.5-3.4-4.7-2.2 0.1-4.2 0.7-6.4 0.7-1.2 4.7-2.8 9.2-4.3 13.7-1.3 3.9-3.6 7.9-2.6 12.2 1-0.2 2.2-0.1 2.7-1.2 0.9-1.6 2.4-2.9 4.2-3.5 0 1.4-0.5 2.7-1.4 3.7-1.7 1.8-3.2 3.7-5.4 4.7-2.8 1.7-6.6 1.4-9.2-0.5-1.4-1.7-1.3-4.1-0.9-6.1 2.3-7.7 4.8-15.3 7-23-1.6 0-3.2-0.1-4.8-0.4 2.2-3.9 6.6-5.6 10.2-7.9zm-805.9 5.3c5.2-1.5 10.5-2.4 15.9-2.8-1.6 5.4-3.8 10.7-4.9 16.3 3-5.2 4.8-11.3 9.4-15.3 1-1.1 2.5-0.9 3.8-0.8 3.2 1.1 3.6 5 2.6 7.8-0.5 1.9-1.9 4.6-4.3 4.1-1.8 0-2.6-1.9-3.5-3.2-1.5 0.8-2.4 2.3-3.3 3.6-4.4 7-7.4 14.9-9.4 22.9-3 0.4-6.1 0.3-9-0.6 2.8-9.9 5.9-19.9 7.3-30.2-1.6-0.4-3.2-0.8-4.6-1.8zm88.8-2.1c2.9 0 5.9 0.3 8.8-0.6-2 9.5-5.2 18.7-8.1 27.9-0.5 1.1 0.2 2.1 0.5 3.1 2.3-1.5 4.1-3.4 6.2-5-0.2 3.6-2.7 6.8-5.8 8.5-2.7 1.4-5.9 2.7-8.8 1.4-2.3-2.8-1.7-6.6-1-9.8-2.1 4.7-6.3 8.2-10.9 10.1-2.2 0.6-4.6-0.3-5.9-2-2.3-2.5-2.6-6.2-2.3-9.4 1.3-8.6 5.8-17 13.3-21.7 2.7-1.6 5.7-3.7 9.1-3.1 2.1 0.5 2.5 2.9 3.5 4.4q0.7-1.9 1.4-3.8zm-17 23.6c-0.2 1.7 0.4 3.3 1.1 4.9 2.1 0 4.3-1.1 5.5-2.9 3.4-4.7 5.7-10.3 6.7-16 0.2-2.7 0.7-6-1.8-7.9-7.1 4.9-10.7 13.5-11.5 21.9zm97.5-22.4c5.4-0.6 10.8-1.4 16.2-1.9-3.3 10.1-6.3 20.2-9 30.5 3.3-0.1 4.7-3.2 6.1-5.6 1 1.1 1.1 2.7 0.2 3.9-2.3 3.2-5.1 6.5-9.2 7.4-3.6 1.5-8.5-1.4-7.6-5.6 2.8-8.6 5.8-17.2 7.2-26.1q-1.6-0.3-3.1-0.6c-0.2-0.5-0.6-1.5-0.8-2zm21.7 0.9c5.1-1.8 10.6-2.3 15.9-2.8-1.1 5-2.7 9.9-4.1 14.8 2.2-2.1 3.6-4.7 5.3-7 1.9-1.9 3.9-3.6 5.9-5.4 2.7-1.7 5.9-2.5 9.1-2.3 1.6 1 2.9 2.8 3.1 4.6-0.8 6.3-2.3 12.4-4.9 18.1-1.1 2.4-1.5 5-1.3 7.5 2.1-1.2 3.9-2.9 5.8-4.3 0.6 3.4-2.8 5.1-4.7 7.3-2.8 2.9-7.3 2.7-10.8 1.4-1.1-4.6-0.4-9.6 1.6-13.8 2-4.2 3.4-8.8 3.6-13.4-3.4 0.3-6.4 2.1-8.4 4.8-5.3 6.6-8.7 14.7-10.1 23-3.3 0.2-6.8 0.1-10-0.9 0.9-4.2 2.7-8.3 3.8-12.5 1.7-5.7 3.3-11.4 4.2-17.3-1.5-0.4-3-0.6-4-1.8zm148.1-0.3c5.3-1.6 10.9-2.1 16.4-2.5-3.5 10.2-6.8 20.5-8.8 31.1 3.3-0.7 3.9-4.3 6.5-5.8 0.4 3.5-2.4 6.3-4.9 8.4-2.6 1.8-6 3.7-9.3 2.4-2.5-0.7-3.5-3.8-2.9-6.1 2.9-8.3 5.3-16.8 7-25.4-1.3-0.6-3.9-0.3-4-2.1zm100.7 0.2c5-1.5 10.2-2.4 15.4-2.7-2.3 10.4-5.5 20.5-8 30.8 2.8-1.1 4.8-3.4 6.9-5.5 0.2 2.1-1.1 4-2.4 5.6-2.2 2.7-5.3 4.8-8.7 5.6-2.4 0.3-5.3-0.5-6.1-3-1.2-2.9 0.5-5.8 1.4-8.5 2.2-6.6 4-13.4 5.3-20.2-1.3-0.5-2.8-1-3.8-2.1zm21.8-0.5c5.2-0.7 10.3-1.7 15.4-2.2-0.5 4.7-1.9 9.2-3.1 13.8 2.6-3.8 5.7-7.5 9.6-10.2 2.6-1.7 5.3-4.1 8.6-3.7 2.3 0.1 3.9 2.2 4.7 4.3-0.2 9.2-5.7 17.3-6.3 26.4 2-1.5 3.7-3.2 5.8-4.6-0.1 0.9 0.1 1.9-0.4 2.7-2.4 3.1-5.3 6.4-9.3 7.2-2 0.1-4.3 0-5.8-1.4-1-5.5-0.1-11.2 2.3-16.1 1.4-3.5 3-7.1 3.3-10.8-1.5-0.1-3.2-0.3-4.3 0.9-7.9 6.8-12.6 16.7-15 26.7-3.3 0.1-6.7 0.3-10-0.5 2.3-7.5 5.1-15 7.3-22.5 0.9-2.5 0.6-5.2 0.5-7.8q-1.5-0.4-3.1-0.7c0-0.4-0.1-1.1-0.2-1.5zm269.4 0.3c5.1-1.3 10.2-2.3 15.5-2.5-2.1 9.6-5.1 18.9-8.3 28.1-0.5 1.1 0.1 2.2 0.7 3 2.1-1.1 3.4-3 4.5-5q0.9-0.2 1.9-0.4c-1.3 4.1-3.9 7.7-7.7 9.7-2.4 1.1-5.2 1.7-7.7 0.4-2.4-1.4-2.7-4.8-1.8-7.3 2.9-7.5 5-15.4 7-23.2-1.2-1.2-2.6-1.6-4.2-1.5 0.1-0.4 0.1-1 0.1-1.3zm43.8 0.2c5.2-1.9 10.8-2.3 16.3-2.7-3.5 10.2-6.4 20.5-8.5 31.1 2.4-1.3 4.1-3.4 5.1-5.9 0.4 0 1.1 0 1.5 0 0 3.3-2.4 6-4.7 8.1-2.7 2.1-6.1 4.2-9.6 2.8-3.1-0.9-3.5-4.9-2.6-7.6 2.8-7.8 5-15.8 6.2-24-1.4-0.3-2.7-0.8-3.7-1.8zm-738.6 4.7c5.3-6.1 14-7.8 21.6-6.6 1.1 0.7 1.9 1.8 2.6 2.9 0.3 3.3-0.4 7-2.9 9.3-1.7 1.6-3.1 3.6-5.3 4.6-4.3 2.3-9.1 3.1-13.9 3.4-0.6 2.9-0.8 6.2 1.3 8.6 1.6 2.2 4.7 1.4 7.1 1.3 3.5-1.2 6.4-3.8 10.1-4.3-4.5 8.6-16.2 12.3-25 8.3-3.2-1.6-3.9-5.5-4.1-8.8-0.3-3.2 1.1-6.3 2.2-9.3 1.5-3.6 3.5-6.8 6.3-9.4zm10.9-3.7c-4.2 4-6.7 9.3-8.4 14.7 2.7 0.1 5.6-0.3 7.5-2.3 3.5-3.3 6.6-8.2 4.6-13-1.2 0.1-2.8-0.4-3.7 0.6zm187.9 3.4c4.6-6.8 14.1-8.4 21.4-5.8 4 1.8 8.4 0.4 12.6 1.1-0.2 1.5-0.5 3-0.9 4.4q-2.5 0-4.9 0c0.9 3.6 1.2 7.8-1.2 10.9-3.8 5.7-11.6 7-18 5.8-1.9-0.6-3.3 1-4.8 2 1 2.5 3.5 4.1 6.1 4.2 4.3 0.6 9.5 1 12.4 4.8 3.1 3.8 2.5 10.1-1.3 13.3-2.6 2.8-6.5 3.5-10 4.3-6 0.2-12.3 0.4-17.8-2.4-2.1-1-3.6-3-3.8-5.4-0.6-2.2 1.1-3.9 2.6-5.3 2.3-1.4 5-2.1 7.6-2.9-1.5-1.7-4-3.4-3.4-6.1 0.2-4.3 4.9-5.9 8.2-7.5-1.7-1.2-3.4-2.2-4.8-3.6-2.5-3.5-1.9-8.3 0-11.8zm15-5.1c-5.4 3.4-7.5 10.4-6.9 16.5 0 2.5 3.3 4.1 5.3 2.6 5.4-4.1 7.2-11.8 5.2-18.1-0.8-1.2-2.3-1.2-3.6-1zm-14.1 36.2c-2.1 0.9-4.3 2.9-4 5.4-0.1 2.1 1.6 3.6 3.1 4.7 4.7 2.1 10.5 2.2 15-0.6 1.4-1.2 1.4-3.2 1.4-5-2.5-2.1-5.5-3.8-8.7-4.5-2.2-0.6-4.7-1.2-6.8 0zm157.9-33.1c5.3-4.4 12.7-5.4 19.3-4.2 2.3 1.7 2.5 4.9 2.1 7.5-1.2 3.2-3.7 5.7-6.3 8-4.5 3.2-10.1 4.2-15.5 4.6-0.8 2.9-1.1 6.3 1 8.6 2.1 2 5.2 1.6 7.8 1.3 3.6-0.5 5.8-4.2 9.5-4.4-1.1 2-2.5 3.9-4.3 5.2-4.8 2.8-10.1 5.4-15.7 4.6-2.7-0.5-5.8-1.1-7.3-3.6-2.3-3.5-2.2-8-1.4-11.9 1.9-6.2 5.7-11.8 10.8-15.7zm8.9-2c-4.8 3.8-7.1 9.8-9.1 15.4 2.4-0.1 4.9-0.4 6.8-1.8 1.5-1.3 2.8-2.7 4-4.3 1.9-2.7 2.1-6.2 1.4-9.3-1.1-0.2-2.2-0.8-3.1 0zm141.2-2.3c2.6-0.2 5.3-0.7 7.7 0.4 2.2 1.4 4.3 3.2 4.8 5.9 1.5 5.2 0 10.7-2.6 15.4-2.5 4.6-5.6 9.3-10.7 11.4-4 1.7-8.6 3.5-13 2.2-3.5-0.5-6.5-3.2-7.3-6.5-2.2-6.9 1-14 4.7-19.6 3.5-5.6 10-8.5 16.4-9.2zm-8.5 12.7c-2.4 5.8-4.1 12.2-3.3 18.6 0.8 1.3 2.1 2.4 3.6 1.9 9.1-7 12.1-19.2 11.3-30.1q-0.4-0.8-0.9-1.5-1.8 0-3.6 0c-2.9 3.3-5.4 7-7.1 11.1zm136.6-13c3.4-0.7 7.3 0 9.5 2.8 1.9 3 2.9 6.7 2.5 10.3-1.4 5.5-3.2 11.4-7.6 15.3-2.2 2-4.2 4.3-7.1 5.4-3.9 1.5-8.2 3-12.4 1.8-2.9-0.3-5.1-2.5-6.7-4.7-1.9-4-1.5-8.7-0.2-12.8 1.7-5.5 5-10.7 10-13.7 3.6-2.3 7.8-3.7 12-4.4zm-3.1 2c-2.8 3.3-5 7-6.7 11-2.2 5.9-4.1 12.2-3.2 18.6 1.4 2.8 6 2.7 7.3-0.1 5-8.3 8.3-17.9 7.8-27.7-0.6-2.4-3.3-2-5.2-1.8z"/>
	</g>
	<g id="#ed1b25ff">
		<path id="Layer" class="s2" d="m319.9 236.3c4.5-7 12.3-11.7 20.6-12.8 7.4-0.8 15.5-0.3 22 3.7 8.4 5.8 12.7 16.4 12.2 26.5 0.2 5.2-1.9 10.1-3.6 15-3.7 9.7-10.9 17.3-17.8 24.9-5.4 6.1-10.9 12-16.8 17.6-1.4 1.3-2.6 2.7-3.7 4.2 7.4 0.4 14.8 0.3 22.1 0 4.7-0.6 9.5-0.3 14.2-1.2 1-0.2 1.8-0.9 2.6-1.6 2.8-2.7 4.7-6.1 7.4-8.8-0.2 6.2-2 12.3-2.5 18.5-0.7 4-1.1 8-2.1 11.9-1.6 0.5-3.4 0.2-5.2 0.3q-12.8-0.1-25.7 0c-6.7 0.6-13.4 0.3-20.1 0.4-5.3 0-10.6 0.3-15.9 0 4.5-5.9 9.7-11.1 14.3-16.9 9.1-11.2 18-22.6 24.8-35.4 4-7.2 7-15.5 5.5-23.9-0.2-5-1.9-10.2-5.9-13.4-4.7-3.6-11-3.8-16.6-3-6.4 1.3-11.2 6-15.9 10.2 0.4-5.9 2.9-11.3 6.1-16.2z"/>
	</g>
</svg>