<svg version="1.2" xmlns="http://www.w3.org/2000/svg" viewBox="0 0 1632 427" width="1632" height="427">
	<title>Olectra-Colour-svg</title>
	<style>
		.s0 { fill: #ffffff } 
	</style>
	<path id="Layer" fill-rule="evenodd" class="s0" d="m14.6 386.1c1.8-2 2.9-3.1 4.8-5.2 5.1-5.4 13.9-16.2 19-22.1 12.9-14.6 24.4-30 36.4-45.2 2.3-2.6 1.3-3 0-7.7-12.2-43.4-5.8-86.3 15.2-125 21-38.6 61.4-68.9 105.3-79.4 2.3-0.5 2.4-0.3 3.3-2l4.5-10.7c6.8-15.7 16.9-42.4 22.7-58.8 0.6-1.6 9.8-27.8 10.7-30l30.1 92.5c4.9 12.3 1 4.8 26.6 14.1 9.3 3.4 18.3 7.5 26.9 12.5 8.6 4.9 16.7 10.6 24.2 16.9 7.6 6.4 14.6 13.4 20.9 21 6.3 7.6 11.9 15.8 16.8 24.4 5 8.8 9.1 18 12.3 27.6 3.3 9.6 5.6 19.4 7.1 29.4 1.4 10 1.9 20.1 1.4 30.2-0.4 10.1-1.8 20.1-4.1 30-1.4 6.4-4.5 12.6-2.6 15.2q4.8 6.2 9.7 12.2c9 11.1 17.9 21.9 27 32.8 11.9 15 24.8 29.1 37.7 43.9l-50.8-19.8c-7.4-2.6-49.8-16.2-55.4-15.8q-0.4 0.4-0.8 0.8-0.3 0.4-0.7 0.9-0.3 0.4-0.7 0.8-0.3 0.4-0.7 0.9l-8.4 8.7c-12.4 11.9-26.6 21.9-41.9 29.5-15.4 7.6-31.9 12.9-48.8 15.5-17 2.7-34.3 2.8-51.3 0.2-16.9-2.5-33.4-7.6-48.9-15.1q-5.6-2.7-11.1-5.8-5.4-3.2-10.6-6.7-5.2-3.6-10.1-7.5-4.8-3.9-9.4-8.2c-4.3-3.8-7.2-7.7-11.4-11.6-12.5 1.6-71.3 19.6-83.3 23.8l-26.2 9.2zm37.7-16.9q1.4-0.3 2.7-0.6 1.3-0.4 2.7-0.8 1.3-0.4 2.6-0.9c26.6-7.5 48.3-13 76.1-18.5 86.5-17.2 155.9-16.3 240.5 6l31.4 8.9q1.3 0.5 2.7 1 1.3 0.4 2.6 0.8 1.3 0.4 2.7 0.8 1.3 0.3 2.7 0.7l1 0.7c-0.1-2.2 0.1-0.3-0.7-1.2-4.5-5.5-9.2-11.3-14-16.8-11.2-13-32.5-40.9-41.2-53-17.1-23.4-34.9-48.1-50.6-74.5-28.1-47.5-40.9-74.6-61.6-125.9-3-7.6-5.7-15.2-8.5-22.9-2.6-7.2-5.2-16.5-8.1-23.4q-0.6 1.4-1.2 2.8-0.6 1.4-1.2 2.8-0.5 1.4-1.1 2.8-0.5 1.4-0.9 2.8c-1.5 3.9-3 7.5-4.5 11.3-24.1 62.3-59.1 134.5-95.3 189.1-21.2 31.9-55.7 78.7-81.6 108.3-0.8 0.5-0.8-0.9-0.6 0.9l0.8-0.6q1.3-0.2 2.6-0.6zm463.6-167.2c0-22.1 5.1-41.9 16.4-53.1q2.1-2.4 4.5-4.5 2.3-2.1 4.9-3.9 2.6-1.8 5.4-3.3 2.7-1.5 5.7-2.6 3.4-1.4 7-2.5 3.5-1.1 7.2-1.8 3.6-0.7 7.3-1.1 3.7-0.4 7.4-0.4h96.9c18.6 0 36.7 7.7 46.4 17q4.3 4.5 7.7 9.8 3.4 5.2 5.7 11 2.4 5.8 3.6 11.9 1.2 6.2 1.3 12.4v57.1c0 18.5-9.1 36.6-18.9 45.7-9.8 9.1-28.2 16.5-46.9 16.5h-95.8q-3.7-0.1-7.4-0.5-3.7-0.3-7.3-1.1-3.7-0.7-7.2-1.8-3.6-1.1-7-2.5c-29.7-12.6-35.9-38.2-36.9-66.5zm176.4 26.1c0-27.4 4.6-53.4-23.6-53.4h-78.2c-17.2 0-22.4 10.3-22.4 27.3 0 45.7-6.2 60.9 34.8 60.9h62.1c23.5 0 27.3-11.5 27.3-34.8zm786.4-54.6h130.4c14.3 0 22.3 11.7 22.3 26.1v105.7q0.1 1-0.3 1.9-0.3 1-1.1 1.7-0.7 0.7-1.6 1.1-0.9 0.3-1.9 0.3h-123c-21.5 0-28.6-17.1-28.6-38.5 0-14.8-0.4-29.6 10.3-39.6 7.1-6.5 18.8-7.7 32-7.7h56c4.3 0 5.5 6.6 7.1 10.3l5.3 10.8-0.3-30.9c-1.1-5.9-2.6-5.7-5.6-6.8-6.1-2-87.8-0.9-101-0.9zm46 101.9h60.9v-22.4c-71.5 0-65.9-5.2-65.9 14.9 0 3.8 1.2 7.5 5 7.5zm-647.3-102h92q2.8 0 5.6 0.8 2.8 0.7 5.3 2.2 2.5 1.5 4.4 3.5 2 2.1 3.4 4.7c7.4 14.7 11.2 68.4-20 68.4h-82c-6.6 0-5.2-15.5-11.2-19.9 0 16.1-3.7 39.8 12.5 39.8h103.1v37.3h-111.8q-2.8 0-5.6-0.3-2.8-0.3-5.5-0.9-2.7-0.5-5.4-1.3-2.7-0.8-5.2-1.9-2.3-0.8-4.3-2-2.1-1.1-4.1-2.4-1.9-1.4-3.6-3-1.8-1.6-3.3-3.4c-15.6-15.8-12.7-44.3-12.7-66.8 0-32.3 16.5-54.8 48.4-54.8zm69 50.7q1-0.4 1.7-1.1 0.7-0.7 1.1-1.6 0.3-1 0.3-2c0-11.9 2.2-14.9-12.4-14.9-38.6 0-62.2-5.9-62.2 19.9h69.6q1 0.1 1.9-0.3zm72.4-33.5c2.3-2.7 4.9-5.2 7.7-7.4 2.9-2.1 5.9-3.9 9.1-5.4 3.3-1.5 6.7-2.6 10.1-3.4 3.5-0.7 7.1-1.1 10.6-1h110.6q1 0 1.9 0.3 1 0.4 1.7 1.1 0.7 0.7 1 1.6 0.4 1 0.4 2c0 16.6 0.4 25.9 0.2 31.1h-100.9c-13.7 0-17.4 8.6-17.4 22.4 0 17.8-3.1 37.3 14.9 37.3h100.6v41h-111.9c-16.4 0-31.2-7.9-38.6-17.2-11.6-14.5-11-36.8-11-57.4 0-18.5 2.6-34.5 11-45zm191.6-61.9h45.9v44.7h38.5v34.9h-38.5v101.9h-46v-101.9c-21.6 0-16.7 3-23.8-16-1.7-4.5-5.9-13.2-6-18.9h29.9zm98.1 80.9c0-20.2 12.4-36.1 32.3-36.1h118.1c6.6 0 4.9 11.7 4.9 18.6 0 7.9 0 15.9 0 23.6l-31.6 12c-4.2 1.7-5.5 3-10.6 3 0-14.2 2-21.2-3.7-21.2h-54.8c-9.3 0-9.9 8.3-9.9 17.4v83.3h-44.7zm-545.4-93.2h46v193.8h-46z"/>
</svg>