<svg version="1.2" xmlns="http://www.w3.org/2000/svg" viewBox="0 0 1632 427" width="1632" height="427">
	<title>Olectra-Colour-svg</title>
	<style>
		.s0 { fill: #13599c } 
	</style>
	<path id="Layer" fill-rule="evenodd" class="s0" d="m14.6 386.1c1.8-2 2.9-3.1 4.8-5.2 5.1-5.4 13.9-16.2 19-22.1 12.9-14.6 24.4-30 36.4-45.2 2.3-2.6 1.3-3 0-7.7-12.2-43.4-5.8-86.3 15.2-125 21-38.6 61.4-68.9 105.3-79.4 2.3-0.5 2.4-0.3 3.3-2l4.5-10.7c6.8-15.7 16.9-42.4 22.7-58.8 0.6-1.6 9.8-27.8 10.7-30l30.1 92.5c4.9 12.3 1 4.8 26.6 14.1 9.3 3.4 18.3 7.5 26.9 12.5 8.6 4.9 16.7 10.6 24.2 16.9 7.6 6.4 14.6 13.4 20.9 21 6.3 7.6 11.9 15.8 16.8 24.4 5 8.8 9.1 18 12.3 27.6 3.3 9.6 5.6 19.4 7.1 29.4 1.4 10 1.9 20.1 1.4 30.2-0.4 10.1-1.8 20.1-4.1 30-1.4 6.4-4.5 12.6-2.6 15.2q4.8 6.2 9.7 12.2c9 11.1 17.9 21.9 27 32.8 11.9 15 24.8 29.1 37.7 43.9l-50.8-19.8c-7.4-2.6-49.8-16.2-55.4-15.8q-0.4 0.4-0.8 0.8-0.3 0.4-0.7 0.9-0.3 0.4-0.7 0.8-0.3 0.4-0.7 0.9l-8.4 8.7c-12.4 11.9-26.6 21.9-41.9 29.5-15.4 7.6-31.9 12.9-48.8 15.5-17 2.7-34.3 2.8-51.3 0.2-16.9-2.5-33.4-7.6-48.9-15.1q-5.6-2.7-11.1-5.8-5.4-3.2-10.6-6.7-5.2-3.6-10.1-7.5-4.8-3.9-9.4-8.2c-4.3-3.8-7.2-7.7-11.4-11.6-12.5 1.6-71.3 19.6-83.3 23.8l-26.2 9.2zm37.7-16.9q1.4-0.3 2.7-0.6 1.3-0.4 2.7-0.8 1.3-0.4 2.6-0.9c26.6-7.5 48.3-13 76.1-18.5 86.5-17.2 155.9-16.3 240.5 6l31.4 8.9q1.3 0.5 2.7 1 1.3 0.4 2.6 0.8 1.3 0.4 2.7 0.8 1.3 0.3 2.7 0.7l1 0.7c-0.1-2.2 0.1-0.3-0.7-1.2-4.5-5.5-9.2-11.3-14-16.8-11.2-13-32.5-40.9-41.2-53-17.1-23.4-34.9-48.1-50.6-74.5-28.1-47.5-40.9-74.6-61.6-125.9-3-7.6-5.7-15.2-8.5-22.9-2.6-7.2-5.2-16.5-8.1-23.4q-0.6 1.4-1.2 2.8-0.6 1.4-1.2 2.8-0.5 1.4-1.1 2.8-0.5 1.4-0.9 2.8c-1.5 3.9-3 7.5-4.5 11.3-24.1 62.3-59.1 134.5-95.3 189.1-21.2 31.9-55.7 78.7-81.6 108.3-0.8 0.5-0.8-0.9-0.6 0.9l0.8-0.6q1.3-0.2 2.6-0.6z"/>
	<path id="Layer" fill-rule="evenodd" class="s0" d="m515.8 237.7v-35.7c0-22.1 5.2-41.9 16.5-53.2q2-2.3 4.4-4.4 2.3-2.1 4.9-4 2.6-1.8 5.4-3.2 2.8-1.5 5.7-2.7 3.5-1.4 7-2.4 3.6-1.1 7.2-1.8 3.7-0.8 7.4-1.2 3.7-0.4 7.4-0.4h96.9c18.6 0 36.7 7.7 46.4 17.1q4.3 4.5 7.6 9.7 3.4 5.3 5.7 11.1 2.4 5.8 3.6 11.9 1.3 6.1 1.4 12.3v57.2c0 18.4-9.2 36.6-19 45.7-9.7 9.1-28.2 16.4-46.9 16.4h-95.7q-3.7 0-7.4-0.4-3.7-0.4-7.4-1.1-3.6-0.8-7.2-1.8-3.5-1.1-7-2.5c-29.7-12.6-35.8-38.2-36.9-66.5m176.5-9.7c0-27.5 4.6-53.4-23.6-53.4h-78.3c-17.2 0-22.3 10.3-22.3 27.3 0 45.6-6.3 60.9 34.8 60.9h62.1c23.5 0 27.2-11.6 27.3-34.8z"/>
	<path id="Layer" fill-rule="evenodd" class="s0" d="m1478.7 173.4h130.3c14.4 0 22.4 11.7 22.4 26.2v105.7q0 1-0.3 1.9-0.4 0.9-1.1 1.7-0.7 0.7-1.7 1-0.9 0.4-1.9 0.3h-123c-21.4 0-28.6-17-28.6-38.5 0-14.7-0.4-29.5 10.3-39.5 7.1-6.6 18.9-7.7 32.1-7.7h55.9c4.4 0 5.5 6.5 7.1 10.3l5.3 10.8-0.2-30.9c-1.1-5.9-2.6-5.8-5.7-6.8-6.1-2-87.8-0.9-100.9-0.9zm45.9 101.8h60.9v-22.3c-71.5 0-65.8-5.3-65.8 14.9 0 3.8 1.1 7.4 4.9 7.4z"/>
	<path id="Layer" fill-rule="evenodd" class="s0" d="m877.4 173.4h91.9q2.9 0 5.7 0.7 2.7 0.8 5.2 2.2 2.5 1.5 4.5 3.6 2 2.1 3.3 4.6c7.4 14.7 11.2 68.5-19.9 68.5h-82c-6.7 0-5.3-15.6-11.2-19.9 0 16.1-3.8 39.7 12.4 39.7h103.1v37.3h-111.8q-2.8 0-5.6-0.3-2.7-0.3-5.5-0.8-2.7-0.6-5.4-1.4-2.6-0.8-5.2-1.9-2.2-0.8-4.3-1.9-2.1-1.1-4-2.5-2-1.4-3.7-3-1.8-1.6-3.3-3.4c-15.6-15.8-12.7-44.2-12.7-66.8 0-32.2 16.6-54.7 48.5-54.7zm69 50.6q0.9-0.3 1.6-1 0.7-0.7 1.1-1.7 0.4-0.9 0.3-1.9c0-12 2.2-14.9-12.4-14.9-38.6 0-62.1-5.9-62.1 19.9h69.5q1 0 2-0.4z"/>
	<path id="Layer" fill-rule="evenodd" class="s0" d="m1007.7 235.6c0 20.6-0.5 42.8 11 57.3 7.5 9.4 22.3 17.2 38.7 17.2h111.8v-41h-100.5c-18.1 0-14.9-19.4-14.9-37.3 0-13.8 3.6-22.4 17.4-22.4h54.6 0.8 45.4c0.2-5.1-0.2-14.4-0.2-31.1q0-1-0.3-1.9-0.4-0.9-1.1-1.7-0.7-0.7-1.6-1-1-0.4-2-0.4h-110.6c-3.5 0-7.1 0.3-10.5 1.1-3.5 0.7-6.9 1.8-10.1 3.3-3.3 1.5-6.3 3.3-9.1 5.5-2.9 2.2-5.4 4.6-7.7 7.3-8.5 10.5-11.1 26.5-11.1 45.1z"/>
	<path id="Layer" fill-rule="evenodd" class="s0" d="m1210.3 173.4h-29.9c0.2 5.6 4.4 14.4 6.1 18.8 7 19.1 2.1 16 23.7 16v101.9h46v-101.9h38.5v-34.8h-38.4v-44.7h-46z"/>
	<path id="Layer" fill-rule="evenodd" class="s0" d="m1308.5 209.4v100.7h44.6v-83.3c0-9.1 0.6-17.4 9.9-17.4h54.8c5.7 0 3.7 7 3.7 21.2 5.2 0 6.5-1.3 10.7-3l31.6-11.9c0-7.8 0-15.8 0-23.7 0-6.9 1.6-18.6-5-18.6h-118c-20 0-32.3 15.9-32.3 36.1"/>
	<path id="Layer" class="s0" d="m763.1 116.2h45.9v193.9h-45.9z"/>
</svg>