<svg version="1.2" xmlns="http://www.w3.org/2000/svg" viewBox="0 0 1551 460" width="1551" height="460">
	<title>olema_gray-svg</title>
	<defs>
		<clipPath clipPathUnits="userSpaceOnUse" id="cp1">
			<path d="m0 0h1550.19v459.81h-1550.19z"/>
		</clipPath>
		<clipPath clipPathUnits="userSpaceOnUse" id="cp2">
			<path d="m0 0h1550.19v459.81h-1550.19z"/>
		</clipPath>
		<clipPath clipPathUnits="userSpaceOnUse" id="cp3">
			<path d="m0 0h1550.19v459.81h-1550.19z"/>
		</clipPath>
		<clipPath clipPathUnits="userSpaceOnUse" id="cp4">
			<path d="m0 0h1550.19v459.81h-1550.19z"/>
		</clipPath>
		<clipPath clipPathUnits="userSpaceOnUse" id="cp5">
			<path d="m0 0h1550.19v459.81h-1550.19z"/>
		</clipPath>
		<clipPath clipPathUnits="userSpaceOnUse" id="cp6">
			<path d="m0 0h1550.19v459.81h-1550.19z"/>
		</clipPath>
		<clipPath clipPathUnits="userSpaceOnUse" id="cp7">
			<path d="m0 0h1550.19v459.81h-1550.19z"/>
		</clipPath>
		<clipPath clipPathUnits="userSpaceOnUse" id="cp8">
			<path d="m0 0h1550.19v459.81h-1550.19z"/>
		</clipPath>
		<clipPath clipPathUnits="userSpaceOnUse" id="cp9">
			<path d="m0 0h1550.19v459.81h-1550.19z"/>
		</clipPath>
		<clipPath clipPathUnits="userSpaceOnUse" id="cp10">
			<path d="m0 0h1550.19v459.81h-1550.19z"/>
		</clipPath>
	</defs>
	<style>
		.s0 { fill: #536169 } 
	</style>
	<g id="Symbols">
		<g id="Group-23">
			<path id="Fill-1" fill-rule="evenodd" class="s0" d="m662.3 364c-73.5 0-132.9-59.6-132.9-133.4 0-73.7 59.4-133.3 132.9-133.3 73.4 0 132.9 59.6 132.9 133.3 0 73.8-59.5 133.4-132.9 133.4zm83.7-133.4c0-46.8-37.4-84.6-83.7-84.6-46.4 0-83.8 37.8-83.8 84.6 0 46.8 37.4 84.7 83.8 84.7 46.3 0 83.7-37.9 83.7-84.7z"/>
			<g id="Clip-4">
			</g>
			<g id="Clip-Path: Fill-3" clip-path="url(#cp1)">
				<path id="Fill-3" class="s0" d="m810.2 100.9h48.7v259.5h-48.7z"/>
			</g>
			<g id="Clip-Path: Fill-5" clip-path="url(#cp2)">
				<path id="Fill-5" fill-rule="evenodd" class="s0" d="m1073.4 182.6h48.4v18.9c11.1-13.9 27.4-22.4 47.4-22.4 25.2 0 44.1 9.9 54.7 28.1 12.1-17.1 32.4-28.1 55.6-28.1 45.1 0 67.6 27 67.6 72.9v108.4h-49.5v-102c0-23.9-9.3-37.7-31-37.7-18.5 0-32 12.8-32 42.7v97h-49.4v-102c0-23.9-9.3-37.7-31-37.7-18.5 0-32 12.8-32 42.7v97h-48.8z"/>
			</g>
			<g id="Clip-Path: Fill-6" clip-path="url(#cp3)">
				<path id="Fill-6" fill-rule="evenodd" class="s0" d="m1362 271.5c0-62.9 46.2-92.4 86.4-92.4 23.2 0 41.3 8.5 53 21v-17.5h48.8v177.8h-48.8v-19.9c-11.7 13.9-30.5 23.5-53.7 23.5-37.7 0-85.7-29.9-85.7-92.5zm140.9-0.1c0-26.5-20.9-47.9-46.6-47.9-25.8 0-46.7 21.4-46.7 47.9 0 26.4 20.9 47.8 46.7 47.8 25.7 0 46.6-21.4 46.6-47.8z"/>
			</g>
			<g id="Clip-Path: Fill-7" clip-path="url(#cp4)">
				<path id="Fill-7" fill-rule="evenodd" class="s0" d="m1050.5 317c-15.4 27.6-43.4 47-82.7 47-55.5 0-94-41.3-94-92.5 0-51.2 41.3-92.4 92.6-92.4 54.4 0 91.8 40.9 91.8 92.1v17.8h-137.4c5.7 19.5 21.7 32.3 47.3 32.3 18.2 0 33.5-9.1 41.9-24zm-127.5-67.2h86.1c-6.4-18.5-21.7-28.1-42.4-28.1-20.6 0-36.3 11.3-43.7 28.1z"/>
			</g>
			<g id="Clip-Path: Fill-8" clip-path="url(#cp5)">
				<path id="Fill-8" fill-rule="evenodd" class="s0" d="m299.1 210.8c-17.9 10.9-34.3 23.9-49 38.6h-89.2c17.8-11 34.3-23.9 49-38.6z"/>
			</g>
			<g id="Clip-Path: Fill-9" clip-path="url(#cp6)">
				<path id="Fill-9" fill-rule="evenodd" class="s0" d="m210.4 23v-22.2q9.7-0.8 19.6-0.8 9.9 0 19.5 0.8v22.5c0 57.2-21.3 109.6-56.4 149.5h-57.1c45.2-34.4 74.4-88.7 74.4-149.8z"/>
			</g>
			<g id="Clip-Path: Fill-10" clip-path="url(#cp7)">
				<path id="Fill-10" fill-rule="evenodd" class="s0" d="m218.5 287.3c-29.2 42.6-46.4 94.1-46.4 149.6v15.6c-99-25.7-172.1-115.6-172.1-222.6 0-107 73.1-196.9 172.1-222.5v15.6c0 80.4-63.5 146.2-143 149.9l5.9 38q0.6-0.1 1.1-0.1h114.1c-31.7 21.6-69 35.4-109.3 38.6l5.9 37.9q0 0 0 0z"/>
			</g>
			<g id="Clip-Path: Fill-11" clip-path="url(#cp8)">
				<path id="Fill-11" fill-rule="evenodd" class="s0" d="m460.1 229.9c0 107-73.2 197-172.3 222.6v-15.4c0-80.3 63.5-146.1 143-149.8l-5.9-38q-0.2 0-0.5 0.1h-114.6c31.6-21.6 68.9-35.4 109.2-38.6 0 0-5.9-37.9-5.9-38h-171.6c29.2-42.6 46.3-94.1 46.3-149.5v-16c99.1 25.6 172.3 115.6 172.3 222.6z"/>
			</g>
			<g id="Clip-Path: Fill-12" clip-path="url(#cp9)">
				<path id="Fill-12" fill-rule="evenodd" class="s0" d="m249.5 437.1v21.9q-9.6 0.8-19.5 0.8-9.9 0-19.6-0.8v-22.1c0-57.3 21.4-109.6 56.5-149.6h57.1c-45.3 34.4-74.5 88.8-74.5 149.8z"/>
			</g>
			<g id="Clip-Path: Group-22" clip-path="url(#cp10)">
				<g id="Group-22" style="opacity: .7">
					<g id="Layer">
						<path id="Fill-13" fill-rule="evenodd" class="s0" d="m789.8 458.8c-13.8 0-25-11.2-25-25 0-13.9 11.2-25 25-25 13.8 0 25 11.1 25 25 0 13.8-11.2 25-25 25zm17.7-25.1c0-9.9-7.9-17.9-17.7-17.9-9.8 0-17.7 8-17.7 17.9 0 10 7.9 18 17.7 18 9.8 0 17.7-8 17.7-18z"/>
						<path id="Fill-14" class="s0" d="m849.8 409.4h8.2l24.7 36.8v-36.8h7.2v48.7h-7.7l-25.1-37.4v37.4h-7.3z"/>
						<path id="Fill-15" fill-rule="evenodd" class="s0" d="m925 433.8c0-14.2 11-25 25-25 9.2 0 17.2 4.9 21.5 12.2l-6.3 4c-3-5.6-8.3-9.2-15.2-9.2-10.1 0-17.8 8-17.8 18 0 9.8 7.7 17.8 17.7 17.8 7.6 0 13-4.1 15.8-10l6.5 3.5c-4.2 8.1-12.3 13.7-22.2 13.7-14.4 0-25-11.2-25-25z"/>
						<path id="Fill-16" fill-rule="evenodd" class="s0" d="m1028.6 458.8c-13.9 0-25-11.2-25-25 0-13.9 11.1-25 25-25 13.8 0 24.9 11.1 24.9 25 0 13.8-11.1 25-24.9 25zm17.7-25.1c0-9.9-7.9-17.9-17.7-17.9-9.8 0-17.7 8-17.7 17.9 0 10 7.9 18 17.7 18 9.8 0 17.7-8 17.7-18z"/>
						<path id="Fill-17" class="s0" d="m1088.5 409.4h7.3v41.8h19.7v6.9h-27z"/>
						<path id="Fill-18" fill-rule="evenodd" class="s0" d="m1171.1 458.8c-13.9 0-25-11.2-25-25 0-13.9 11.1-25 25-25 13.8 0 24.9 11.1 24.9 25 0 13.8-11.1 25-24.9 25zm17.7-25.1c0-9.9-8-17.9-17.7-17.9-9.8 0-17.8 8-17.8 17.9 0 10 8 18 17.8 18 9.7 0 17.7-8 17.7-18z"/>
						<path id="Fill-19" fill-rule="evenodd" class="s0" d="m1229 433.8c0-13.9 10.7-25 25.3-25 9.7 0 17.6 5 21.9 12.5l-6.4 3.8c-3.1-5.9-8.5-9.4-15.5-9.4-10.6 0-18 8.2-18 18.1 0 9.9 7.6 18 18 18 9.2 0 15.1-5.6 16.6-13.5h-17.5v-6.9h25.1v2.6c0 13.2-9 24.8-24.2 24.8-14.6 0-25.3-11.4-25.3-25z"/>
						<path id="Fill-20" class="s0" d="m1322.8 435l-15.8-25.6h8l11.4 18.7 11.5-18.7h8l-15.9 25.7v23h-7.2z"/>
						<path id="Fill-21" fill-rule="evenodd" class="s0" d="m424.6 249.4c-37.7 2.6-72.2 16.4-100.6 37.9h-57.1c12.6-14.4 27.1-27.1 42.9-37.9zm-263.6 0h89.2c-11.7 11.6-22.3 24.3-31.6 37.9h-171.7c41.5-3.8 80.3-17.2 114.1-37.9zm138.2-38.6h-89.3c11.7-11.7 22.3-24.4 31.6-38h171.7v0.1c-41.5 3.8-80.3 17.2-114 37.9zm-149 0h-114.2c37.5-2.8 71.9-16.5 100.1-38h57c-12.6 14.4-27 27.2-42.9 38z"/>
					</g>
				</g>
			</g>
		</g>
	</g>
</svg>