<svg version="1.2" xmlns="http://www.w3.org/2000/svg" viewBox="0 0 1529 1296" width="1529" height="1296">
	<title>olin-logo-svg</title>
	<style>
		.s0 { fill: #ed1c24 } 
		.s1 { fill: #ffffff } 
	</style>
	<g id="#ed1c24ff">
		<path id="Layer" class="s0" d="m739.8 0h46.6c89.6 3.5 179 17.8 263.9 47.1 136.4 46.5 262.2 128.9 351.7 242.8 71.8 90.6 117.9 202.3 126.2 318-143.9 0.1-287.7 0.2-431.6 0-16.2 0.2-32.4-7.6-40.7-21.8-83.6-139.5-168-278.5-251.7-417.9-8.5-14-21-27.7-38.1-30-19.7 0.2-33.5 17.1-43.3 32.4-82.7 136.4-165.1 273-247.8 409.4-9.8 16.4-27.5 28.2-46.9 27.9-142.7 0.1-285.4 0-428.1 0.1v-3.5c8.2-91 37.6-180 86.3-257.4 83.5-134.6 216.7-234 363.7-289.9 92.4-35.7 191-53.1 289.8-57.2z"/>
	</g>
	<g id="#000000ff">
		<path id="Layer" class="s1" d="m0 687.9q202.2 0 404.4-0.1c13.8 0.2 28.2-1.3 41.5 3.4 12.3 4.3 22.4 13.6 29 24.8 82.1 135.7 164.3 271.4 246.4 407.1 9.4 15.2 22 31.8 40.9 34.7 17.7 0.5 31.6-13.6 40.4-27.5 84.1-139.2 168-278.6 252-417.8 9.7-15.7 27.8-25.2 46.2-24.6 142.5 0 285-0.2 427.5 0-5 62.5-19.8 124.2-44.7 181.7-45 104.8-120.7 195.1-211.7 263.2-116.2 87.3-256.9 139.8-400.8 156.7-154.6 17.9-314.3-2.8-457.2-65.3-123.9-54-235.7-139.6-312.3-251.7-57.2-82.3-92.2-179.4-101.6-279.1z"/>
	</g>
</svg>