<svg version="1.2" xmlns="http://www.w3.org/2000/svg" viewBox="0 0 1513 926" width="1513" height="926">
	<title>ololl-svg</title>
	<style>
		.s0 { fill: #25b3e2 } 
	</style>
	<g id="Layer">
		<path id="Layer" fill-rule="evenodd" class="s0" d="m308.3 760.9c-170.5 0-308.3-137.3-308.3-307.1 0-169.8 137.8-307.1 308.3-307.1 170.4 0 308.2 137.3 308.2 307.1 0 169.8-137.8 307.1-308.2 307.1zm162.6-307c0-89.7-72.7-162.1-162.6-162.1-90 0-162.7 72.4-162.7 162.1 0 89.6 72.7 162.1 162.7 162.1 89.9 0 162.6-72.5 162.6-162.1z"/>
		<path id="Layer" fill-rule="evenodd" class="s0" d="m1204.5 760.9c-170.5 0-308.3-137.3-308.3-307.1 0-169.8 137.8-307.1 308.3-307.1 170.4 0 308.2 137.3 308.2 307.1 0 169.8-137.8 307.1-308.2 307.1zm162.6-307c0-89.7-72.7-162.1-162.6-162.1-90 0-162.7 72.4-162.7 162.1 0 89.6 72.7 162.1 162.7 162.1 89.9 0 162.6-72.5 162.6-162.1z"/>
		<path id="Layer" fill-rule="evenodd" class="s0" d="m683.3 0.7h145.5v925.2h-145.5z"/>
	</g>
</svg>