<svg version="1.2" xmlns="http://www.w3.org/2000/svg" viewBox="0 0 1543 638" width="1543" height="638">
	<title>logo-4f482358a08182e8ab38ad026208c5326cbdb6dcb6a5572efe7dd6794b03855b-svg</title>
	<style>
		.s0 { fill: #ffffff } 
	</style>
	<g id="Page-1">
		<g id="tablet---landscape">
			<g id="header/tablet---landscape-1">
				<g id="OMF_logo_horizontal_dark_blue-Copy">
					<path id="Fill-10" fill-rule="evenodd" class="s0" d="m277.6 638c-177.7 0-277.6-126.2-277.6-315.9 0-188.9 107-321.2 282.9-321.2 184.9 0 277.6 136.8 277.6 315.9 0 198.5-116.7 321.2-282.9 321.2zm1.8-518c-76.9 0-129.1 68-129.1 198.6 0 139.4 47.8 200.3 131.8 200.3 77.7 0 128.1-62.7 128.1-199.5 0-142-46.8-199.4-130.8-199.4zm739 506.5h-81.3c-18.6 0-25.6-9.7-25.6-26.4v-234.7c0-37.1-9.8-61.9-50.4-61.9-29.2 0-65.4 13.3-90.2 34.5v262.9c0 16.8-7 25.6-24.7 25.6h-83.1c-15 0-24.8-7.9-24.8-23.8v-380.3c0-16.8 6.1-25.6 25.7-25.6h72.4c13.3 0 23 3.5 24.8 18.5l1.7 18.6c40.7-31.8 89.4-49.5 141.5-49.5 97.2 0 139.7 60.9 139.7 157.1v258.6c0 17.6-6.2 26.4-25.7 26.4zm492.5-180h-247.5c10.5 55.7 60.1 86.5 114 86.5 38.9 0 76-8.9 111.4-22.9 3.5-1.8 7-2.7 10.5-2.7 8.1 0 12.4 5.3 14.2 12.4 3.6 15 16.8 55.5 16.8 68.8 0 11.5-7.9 15-16.8 19.4-46.9 21.2-108.7 30-160 30-140.6 0-229.8-86.5-229.8-227.7 0-136.7 92.8-226.7 228.9-226.7 56.6 0 104.3 21.1 137.1 56.4 44.1 46.8 53 107.7 53 169.4v11.5c0 21.2-9.7 25.6-31.8 25.6zm-166.2-160.6c-44.3 0-73.4 35.3-79.6 76.8h147.7c0-37.9-22.2-76.8-68.1-76.8z"/>
				</g>
			</g>
		</g>
	</g>
</svg>