<svg version="1.2" xmlns="http://www.w3.org/2000/svg" viewBox="0 0 1558 143" width="1558" height="143">
	<title>logo-4f482358a08182e8ab38ad026208c5326cbdb6dcb6a5572efe7dd6794b03855b-svg</title>
	<style>
		.s0 { fill: #ffffff } 
	</style>
	<g id="Page-1">
		<g id="tablet---landscape">
			<g id="header/tablet---landscape-1">
				<g id="OMF_logo_horizontal_dark_blue-Copy">
					<path id="Fill-10" fill-rule="evenodd" class="s0" d="m62 143c-39.7 0-62-28.2-62-70.6 0-42.2 23.9-71.8 63.2-71.8 41.3 0 62 30.6 62 70.6 0 44.4-26.1 71.8-63.2 71.8zm0.4-115.7c-17.2 0-28.8 15.1-28.8 44.3 0 31.2 10.6 44.8 29.4 44.8 17.4 0 28.6-14 28.6-44.6 0-31.7-10.5-44.5-29.2-44.5zm165 113.1h-18.1c-4.2 0-5.8-2.1-5.8-5.9v-52.4c0-8.3-2.1-13.8-11.2-13.8-6.5 0-14.6 2.9-20.2 7.7v58.7c0 3.8-1.5 5.7-5.5 5.7h-18.5c-3.4 0-5.6-1.7-5.6-5.3v-85c0-3.7 1.4-5.7 5.8-5.7h16.1c3 0 5.2 0.8 5.6 4.2l0.4 4.1c9-7.1 19.9-11 31.6-11 21.7 0 31.1 13.6 31.1 35.1v57.7c0 4-1.3 5.9-5.7 5.9zm110-40.2h-55.3c2.4 12.4 13.4 19.3 25.5 19.3 8.7 0 16.9-1.9 24.8-5.1q1.2-0.6 2.4-0.6c1.8 0 2.8 1.2 3.2 2.8 0.8 3.3 3.7 12.4 3.7 15.4 0 2.5-1.7 3.3-3.7 4.3-10.5 4.7-24.3 6.7-35.8 6.7-31.4 0-51.3-19.3-51.3-50.9 0-30.5 20.7-50.6 51.1-50.6 12.7 0 23.3 4.7 30.6 12.6 9.9 10.4 11.9 24 11.9 37.8v2.6c0 4.7-2.2 5.7-7.1 5.7zm-37.1-35.9c-9.9 0-16.4 7.9-17.8 17.2h33c0-8.5-5-17.2-15.2-17.2z"/>
					<path id="Fill-1" fill-rule="evenodd" class="s0" d="m924.4 23.7c-0.2 2.6-1.9 3-5 3h-48.6v40.4h43.4c2.6 0 3.7 1.1 3.7 3.4v6.6c0 2.6-0.9 3.3-3.5 3.3h-43.6v56.2c0 3.1-1 3.9-3.7 3.9h-9.6c-3 0-3.9-0.6-3.9-4.1v-119.5c0-2.6 0.9-3.7 3.5-3.7h65.1c2 0 2.9 0.9 2.9 2.8v0.5zm26.1 116.7h-8.5c-2.4 0-3.7-1.2-3.7-3.8v-81.7c0-2.5 1.3-3.7 3.7-3.7h8.5c2.4 0 3.5 1.2 3.5 3.7v81.7c0 2.6-1.1 3.8-3.5 3.8zm-4.3-102.1c-5.3 0-9.5-4-9.5-8.9 0-4.9 4.2-8.8 9.5-8.8 5.2 0 9.5 3.9 9.5 8.8 0 4.9-4.3 8.9-9.5 8.9zm105.9 102.1h-8.7c-2.4 0-3.5-1.2-3.5-3.8v-51.8c0-13.1-3.4-22.5-18.2-22.5-8.5 0-19 4.8-25.5 10.7v63.6c0 2.6-1.1 3.8-3.5 3.8h-8.7c-2.2 0-3.5-1.2-3.5-3.6v-81.9c0-2.5 0.9-3.7 3.5-3.7h8.1c2.3 0 3.6 1 3.6 3.4l0.1 5.7c8.5-7.2 19.6-11.1 30.4-11.1 21.2 0 29.4 13 29.4 33.1v54.3c0 2.6-0.9 3.8-3.5 3.8zm107 0h-7.7c-8.2 0-12.1-6.2-12.1-13.6h-0.3c-4.3 8.1-16.5 15.5-27.8 15.5-25.5 0-36.8-21.6-36.8-44.9 0-30.8 18.3-48.2 39.4-48.2 9.3 0 19.3 3.9 24.8 11.3l0.2-6.1c0-2.2 1.5-3.2 3.5-3.2h8.3c2.3 0 3.4 1.2 3.4 3.6v64.6c0 4.2 0.1 7.2 0.9 8.3 0.7 1.3 1.6 1.7 3.1 1.7h1.3c1.7 0 2.6 0.3 2.6 2.4v6.3c0 1.8-0.9 2.3-2.8 2.3zm-20.8-65.3c-4.5-8.3-13.6-13.3-22.4-13.3-14.3 0-25 12.5-25 34.5 0 20.3 9.4 32.9 22.7 32.9 11.9 0 21.3-9.4 24.7-18.7zm112.9 65.4h-8.6c-2.4 0-3.6-1.3-3.6-3.9v-51.7c0-13.1-3.3-22.5-18.1-22.5-8.5 0-19 4.8-25.5 10.7v63.5c0 2.6-1.1 3.9-3.5 3.9h-8.7c-2.2 0-3.5-1.3-3.5-3.7v-81.8c0-2.6 0.9-3.7 3.5-3.7h8.1c2.2 0 3.5 0.9 3.5 3.3l0.2 5.8c8.5-7.2 19.6-11.1 30.3-11.1 21.3 0 29.5 12.9 29.5 33v54.3c0 2.6-1 3.9-3.6 3.9zm90.8-3.5c-7.9 3.7-16.4 5.4-24.9 5.4-29 0-43.1-18.9-43.1-46.4 0-27.1 16.4-46.7 44.2-46.7 8 0 17.2 2 23.7 5.3 1.3 0.6 1.8 1.3 1.8 2.4 0 0.6-0.2 1-0.4 1.5l-1.4 5.9c-0.4 1.3-1 2.2-2.1 2.2-0.3 0-1.1-0.1-1.6-0.5-5.8-2.6-12-4.6-19.3-4.6-17.5 0-28.6 13.1-28.6 33.8 0 18.8 8.1 35.1 27.9 35.1 8 0 14.8-1.9 20.7-4.5 0.6-0.1 1.1-0.3 1.5-0.3 0.9 0 1.5 0.5 1.8 1.8l1.7 5.2c0.2 0.7 0.4 1.5 0.4 2 0 1.1-0.6 1.7-2.3 2.4zm31.3 3.5h-8.5c-2.4 0-3.7-1.3-3.7-3.8v-81.7c0-2.6 1.3-3.7 3.7-3.7h8.5c2.4 0 3.5 1.1 3.5 3.7v81.7c0 2.5-1.1 3.8-3.5 3.8zm-4.3-102.1c-5.3 0-9.6-4-9.6-8.9 0-4.9 4.3-8.9 9.6-8.9 5.2 0 9.5 4 9.5 8.9 0 4.9-4.3 8.9-9.5 8.9zm113.2 102.1h-7.7c-8.2 0-12.1-6.2-12.1-13.6h-0.3c-4.3 8.1-16.5 15.5-27.8 15.5-25.5 0-36.8-21.6-36.8-44.9 0-30.9 18.3-48.2 39.4-48.2 9.3 0 19.3 3.9 24.8 11.2l0.2-6.1c0-2.2 1.5-3.1 3.5-3.1h8.3c2.2 0 3.4 1.1 3.4 3.5v64.7c0 4.2 0.1 7.2 0.9 8.3 0.7 1.3 1.6 1.6 3.1 1.6h1.3c1.7 0 2.6 0.4 2.6 2.4v6.3c0 1.9-0.9 2.4-2.8 2.4zm-20.9-65.4c-4.4-8.3-13.5-13.2-22.3-13.2-14.3 0-25 12.5-25 34.5 0 20.3 9.4 32.9 22.8 32.9 11.8 0 21.2-9.5 24.5-18.7zm53.9 65.4h-9.1c-2.2 0-3.3-1.1-3.3-3.7v-122.7c0-2.5 0.5-3.3 2.7-3.6l9.3-1.3h0.9c1.7 0 2.8 0.7 2.8 3.1v124.3q0 3.9-3.3 3.9zm-1006.6 0h-19.8c-5.1 0-6.3-2.6-6.5-8.1l-2.1-67.6h-0.4l-29.8 71.3c-1.6 4-4.2 4.4-6.8 4.4h-7.3c-3.7 0-5.9-0.6-7.9-4.6l-34.1-71.1h-0.4l-1.2 69.5c0 5.6-2.6 6.2-6.7 6.2h-16.2c-4.5 0-6.7-1.6-6.7-5.8v-0.5l5.3-124.3c0.2-4.7 2.4-6.3 6.1-6.3h14.3c4.5 0 6.3 1.6 8 5.4l43.7 89.1h0.4l39.5-89.1c1.5-3.4 3.7-5.4 8.1-5.4h13.8c3.9 0 5.3 1.4 5.5 5l6.5 125.7v0.7c0 3.7-1.8 5.5-5.3 5.5zm119.4 0h-10.5c-11.6 0-16.3-3.4-18.9-9.1h-0.4c-5.3 6.1-18 11.6-27.6 11.6-28.5 0-41.7-22.4-41.7-48.7 0-34.9 21.7-52.6 43.4-52.6 11.1 0 20 5.1 24.1 11l0.6-4.3c0.2-2.2 2-4 4.6-4h17.7c2.8 0 4.8 1.6 4.8 4.8v68c0 2 0.8 3.4 2.9 3.4h1.6c2.8 0 4.2 0.9 4.2 3.9v11.4c0 3-2 4.6-4.8 4.6zm-33.5-67.7c-3.6-3.1-10.1-6.7-16-6.7-9.7 0-18.8 7.9-18.8 26.3 0 12.2 3.2 26.8 18.2 26.8 7.1 0 14.2-5.4 16.6-8.3zm55.4-23.4c0-2.8 2.3-5 5-5h19.6c2.8 0 5 2.2 5 5v86c0 2.8-2.2 5-5 5h-19.6c-2.7 0-5-2.2-5-5zm14.5-16.4c-8.8 0-15.9-6.7-15.9-15 0-8.3 7.1-15 15.9-15 8.8 0 15.9 6.7 15.9 15 0 8.3-7.1 15-15.9 15zm124.5 107.4h-18.2c-4.1 0-5.7-2.1-5.7-5.9v-52.4c0-8.3-2.2-13.8-11.2-13.8-6.6 0-14.7 2.9-20.2 7.7v58.7c0 3.8-1.6 5.7-5.5 5.7h-18.6c-3.3 0-5.5-1.7-5.5-5.3v-85c0-3.7 1.4-5.7 5.7-5.7h16.2c3 0 5.2 0.8 5.5 4.2l0.4 4.1c9.1-7.1 20-11 31.6-11 21.7 0 31.2 13.6 31.2 35.1v57.7c0 4-1.4 5.9-5.7 5.9zm755.6 0.7c-7.4 0-13.4-5.9-13.4-13.3 0-7.3 6-13.3 13.4-13.3 7.4 0 13.4 6 13.4 13.3 0 7.4-6 13.3-13.4 13.3zm11-13.3c0-6.1-4.9-11-11-11-6.1 0-11 4.9-11 11 0 6.1 4.9 11 11 11 6.1 0 11-4.9 11-11zm-6.5 6.6h-1.4c-0.3 0-0.4-0.1-0.6-0.4l-2.7-4.8h-1.6v4.7c0 0.3 0 0.5-0.4 0.5h-1.2c-0.4 0-0.4-0.1-0.4-0.5v-12.1c0-0.4 0.1-0.5 0.5-0.5h2.7c2.7 0 4.8 0.9 4.8 3.9 0 1.8-1.1 3.1-2.5 3.6l2.9 5q0.2 0.2 0.2 0.4c0 0.1-0.1 0.2-0.3 0.2zm-5.2-11.5h-1.1v4.7h1.3c1.6 0 2.7-0.8 2.7-2.4 0-1.7-1.1-2.3-2.9-2.3z"/>
				</g>
			</g>
		</g>
	</g>
</svg>