<svg version="1.2" xmlns="http://www.w3.org/2000/svg" viewBox="0 0 1527 280" width="1527" height="280">
	<title>omhhhh-svg</title>
	<style>
		.s0 { fill: #ffffff } 
	</style>
	<g id="Layer">
		<path id="Layer" fill-rule="evenodd" class="s0" d="m224 220.4h-40.8v-218.5h40.8v82.5c9.8-11.5 26.4-16.4 40.8-16.4 38.5 0 56.3 26.2 56.3 58.8v93.6h-40.8v-86.8c0-16.6-8.3-29.6-28-29.6-17.2 0-27.3 12.7-28.3 29zm130.9 0v-148.4h39v18.1c8.3-14.5 27.6-22.3 44.2-22.3 20.6 0 37.2 8.7 44.9 24.7 12-18.1 27.9-24.7 48-24.7 28 0 54.7 16.6 54.7 56.4v96.2h-39.6v-88.1c0-16-8-28.1-26.8-28.1-17.5 0-27.9 13.3-27.9 29.3v86.9h-40.6v-88.1c0-16-8.3-28.1-26.7-28.1-17.8 0-28.3 13-28.3 29.3v86.9zm270.7 58.7l35.7-77.3-64.3-129.8h45.8l40.3 86.9 37.2-86.9h43.6l-94.9 207.1zm196.3-58.7h-40.8v-218.5h40.8v82.5c9.9-11.4 26.5-16.4 40.9-16.4 38.4 0 56.2 26.3 56.2 58.9v93.5h-40.8v-86.7c0-16.6-8.3-29.6-28-29.6-17.2 0-27.3 12.7-28.2 29zm278-74.2c0 45.5-34.1 78.8-79.2 78.8-45.2 0-79.4-33.2-79.4-78.8 0-45.6 34.1-78.8 79.2-78.8 45.2 0 79.3 32.8 79.3 78.8zm-41 0c0-23.4-17.2-42.2-38.4-42.2-21.3 0-38.4 18.8-38.4 42.2 0 23.3 17.1 42.2 38.4 42.2 21.2 0 38.4-18.9 38.4-42.2zm65.6 74.2v-148.5h39v18.1c8.3-14.4 27.7-22.3 44.2-22.3 20.6 0 37.2 8.8 44.9 24.8 12-18.2 28-24.8 48-24.8 28 0 54.7 16.6 54.7 56.5v96.2h-39.7v-88.1c0-16-8-28.1-26.7-28.1-17.5 0-28 13.3-28 29.2v87h-40.5v-88.1c0-16-8.3-28.1-26.8-28.1-17.8 0-28.2 12.9-28.2 29.2v87zm400-42.5c-7.6 25.6-31.6 47.2-68.8 47.2-41.5 0-78.1-29.3-78.1-79.4 0-47.4 35.7-78.2 74.5-78.2 46.7 0 74.7 29.3 74.7 77 0 5.7-0.6 11.7-0.6 12.3h-108.1c0.9 19.7 17.8 33.8 38.1 33.8 19 0 29.5-9.3 34.4-22.6zm-38.1-48.6c-0.7-14.8-10.5-29.3-33.9-29.3-8.4-0.3-16.5 2.6-22.8 8.1-6.3 5.4-10.2 13-10.9 21.2z"/>
		<path id="Layer" fill-rule="evenodd" class="s0" d="m0 146.2c0-43.6 35.4-78.8 79.3-78.8 43.8 0 79.2 35.2 79.2 78.8 0 34.3-21.8 63.3-52.4 74.2h0.9l-76.2 32.2 24.3-31.3c-32-10.1-55.1-39.9-55.1-75.1zm117.7 0c0-23.4-17.2-42.2-38.4-42.2-21.3 0-38.5 18.8-38.5 42.2 0 23.3 17.2 42.2 38.5 42.2 21.2 0 38.4-18.9 38.4-42.2zm40.9-72.5l-79.3-36.7-79.3 36.3v-37l79.3-36.3 79.3 36.6z"/>
	</g>
</svg>