<svg version="1.2" xmlns="http://www.w3.org/2000/svg" viewBox="0 0 1558 1553" width="1558" height="1553">
	<title>517619ab-b8cf-4992-88c1-bd83bef4021a-svg</title>
	<style>
		.s0 { fill: #ffffff } 
	</style>
	<g id="#37455bff">
		<path id="Layer" class="s0" d="m717.3 0h120.6c167.8 14.1 330.9 81.8 457 193.9c184.6 161.6 285.4 414.9 258 659c-80.1 90.4-178.3 168.3-289.9 216.2c61.5-109.4 93.9-237.6 75.2-362.9c-22.4-178.1-134.8-342.6-294.5-425.5c-124.7-68-275.8-86-412.8-47.4c-156.2 41-291.6 153.3-361.1 298.9c-46.9 94.9-64.7 203.4-53.4 308.5c-69.6 26.1-153.6 28.5-216.4-15.9v-109.3c15.3-185.5 97.6-365.3 231.8-494.9c129.4-127.6 304.9-205.1 485.5-220.6z" />
	</g>
	<g id="#7d99afff">
		<path id="Layer" class="s0" d="m552.9 770.6c111.5-52.5 238.2-85.2 361.5-62.7c73.8 13.6 139.4 57.3 184.9 116.3c-54.4 1.3-112 17.7-148.6 60c-49.6 55.4-56.8 143-17.2 205.7c41.4 69.7 127.2 99.8 205.1 97.1c148.8-1.3 282.9-83.2 386.9-183.7c-33 107.5-88.6 208.1-163.7 292.1c-125 142.7-304.3 234.6-492.5 257.6h-183.3c-134.6-17.1-265.3-67.5-373.8-149.3c-158.4-116.5-267.4-295.5-302.8-488.4c51.6 26 110.5 35.5 167.3 23.9c137.5-25.2 251.2-111.8 376.2-168.6z" />
	</g>
</svg>