<svg version="1.2" xmlns="http://www.w3.org/2000/svg" viewBox="0 0 1613 162" width="1613" height="162">
	<title>517619ab-b8cf-4992-88c1-bd83bef4021a-svg</title>
	<style>
		.s0 { fill: #ffffff } 
	</style>
	<g id="#37455bff">
		<path id="Layer" class="s0" d="m74.8 0h12.6c17.5 1.5 34.5 8.5 47.6 20.2c19.3 16.9 29.8 43.3 27 68.8c-8.4 9.4-18.6 17.5-30.3 22.5c6.4-11.4 9.8-24.8 7.9-37.8c-2.4-18.6-14.1-35.8-30.8-44.4c-13-7.1-28.7-9-43-5c-16.3 4.3-30.4 16-37.7 31.2c-4.9 9.9-6.7 21.2-5.5 32.2c-7.3 2.7-16 3-22.6-1.7v-11.4c1.6-19.3 10.2-38.1 24.2-51.6c13.5-13.3 31.8-21.4 50.6-23z" />
		<path id="Layer" class="s0" d="m241.4 3.8c9.3-0.2 18.6 0 27.8-0.1c28.6 42.4 57 85 85.5 127.4c0.1-42.5 0-84.9 0.1-127.4c7 0 14 0 21 0c0.2 51.6 0 103.2 0 154.9c-9-0.3-18.2 0.5-27.1-0.4c-28.6-42.2-57.2-84.5-85.9-126.7c0 42.3 0.1 84.7 0 127.1q-10.7 0-21.4 0c0-51.6 0.1-103.2 0-154.8zm237.2-0.1c33.4 0 66.8 0 100.1 0q0.1 10 0 20q-39.5 0-79 0q0 22.9 0 45.9c24.6 0 49.1 0 73.6 0q0 9.8 0 19.7c-24.5 0-49 0-73.6 0q0 24.6 0 49.3c27.6 0.1 55.2-0.1 82.8 0.1c-0.1 6.6 0 13.2 0 19.9q-52 0-103.9 0c0-51.7 0-103.3 0-154.9z" />
	</g>
	<g id="#7d99afff">
		<path id="Layer" fill-rule="evenodd" class="s0" d="m656.4 3.7q7.6 0 15.1 0c13 45.6 25.6 91.4 38.7 137c13-45.7 26-91.3 39.1-137c6.2 0 12.4 0 18.6 0c12.8 44.9 25.6 89.7 38.4 134.5q0.4 1.2 0.9 2.3c12.8-45.6 25.6-91.2 38.4-136.8c5.1 0 10.1 0 15.2 0c-15 51.6-30.1 103.2-45.1 154.8c-6 0.1-12 0.1-17.9 0.1c-12.7-44.6-25.4-89.1-38-133.7q-0.5-1.8-1.4-3.4c-13 45.7-26 91.4-39 137.1c-6-0.1-12 0.1-18-0.1c-14.9-51.7-30.1-103.2-45-154.8zm332.9 0.1c5.1-0.2 10.1 0 15.2-0.1c21.8 51.6 43.5 103.2 65.2 154.9c-5.6-0.1-11.1 0.1-16.7-0.2c-18.7-46.2-37.8-92.2-56.7-138.3q-29.5 69.3-59.1 138.5c-5.1 0-10.2 0-15.4 0c22.5-51.7 45.2-103.2 67.5-154.8zm127.1-0.1c40.2 0.1 80.4-0.2 120.6 0.1c-0.2 4.5-0.1 8.9-0.1 13.3c-17.6 0-35.2 0-52.8 0q0 70.8 0 141.5q-7.5 0-14.9 0q0-70.8 0-141.5c-17.6 0-35.2 0-52.8 0q0-6.7 0-13.4zm202.4 0q47.3 0 94.7 0q0 6.7 0 13.4c-26.7 0-53.4 0-80.2 0q0 27.4 0 54.8c25 0 50.1 0 75.1 0q0 6.7 0 13.4c-25 0-50.1 0-75.1 0q0 29.9 0 59.9q41.8 0 83.6 0q0 6.7 0 13.4q-49.1 0-98.1 0c0-51.7 0-103.3 0-154.9zm192.6 0q16 0 32 0c13.2 0 26.8-0.2 39.4 4.5c7.7 2.6 14.6 7.6 18.8 14.6c5.7 8.7 6.5 19.6 5.2 29.7c-1.3 10-7.6 19.2-16.2 24.5c-6.8 4.2-14.8 6-22.6 7.4c15 24.6 29.6 49.4 45 73.7v0.4c-5.6 0-11.3 0.1-16.9 0.1c-14.4-24.5-28.9-48.9-43.4-73.3q-13.2 0-26.4 0c-0.1 24.4 0 48.8-0.1 73.3q-7.4 0-14.8 0q0-77.5 0-154.9zm14.8 13.4q0 27.4 0 54.8q9.2 0 18.3 0c9.2-0.2 18.7 0.7 27.7-2c6.8-2.2 13.6-6 17.1-12.4c4.5-8.2 4.4-18.8-0.5-26.7c-5.9-9.4-17.6-13.2-28.3-13.6c-11.4-0.3-22.8 0-34.3-0.1z" />
		<path id="Layer" class="s0" d="m57.7 80.4c11.6-5.5 24.8-8.9 37.7-6.6c7.7 1.5 14.5 6 19.2 12.2c-5.6 0.1-11.6 1.8-15.5 6.2c-5.1 5.8-5.9 14.9-1.7 21.5c4.3 7.3 13.2 10.4 21.3 10.1c15.6-0.1 29.5-8.7 40.4-19.1c-3.5 11.2-9.2 21.7-17.1 30.4c-13 14.9-31.7 24.5-51.3 26.9h-19.2c-14-1.8-27.6-7-38.9-15.6c-16.6-12.1-27.9-30.8-31.6-50.9c5.4 2.7 11.5 3.7 17.4 2.5c14.4-2.7 26.2-11.7 39.3-17.6z" />
	</g>
</svg>