<svg version="1.2" xmlns="http://www.w3.org/2000/svg" viewBox="0 0 1556 534" width="1556" height="534">
	<title>Orion Investor Presentation_November 2021-1-pdf-svg-svg</title>
	<defs>
		<clipPath clipPathUnits="userSpaceOnUse" id="cp1">
			<path d="m-596-463h11520v6480h-11520z" />
		</clipPath>
	</defs>
	<style>
		.s0 { fill: #000000 } 
		.s1 { fill: #f05742 } 
	</style>
	<g id="Clip-Path: Clip-Path: Page 1" clip-path="url(#cp1)">
		<g id="Clip-Path: Page 1">
			<g id="Page 1">
				<path id="Path 8" fill-rule="evenodd" class="s0" d="m737.2 151.4c1.2 0 1.2-0.6 1.8-1.2c9-18 26.4-30 45.6-33.6q21-4.2 41.4 0c22.2 4.8 39.6 22.8 43.8 45.6q2.4 10.2 2.4 20.4c0 0.6 0 105.6 0 106.2c0 1.2-1.2 2.4-2.4 2.4h-21.6c-1.8 0-2.4-0.6-2.4-2.4v-97.8q0-7.2-1.2-14.4c-3-19.2-19.2-34.2-39-36c-9.6-1.2-19.8-0.6-29.4 2.4c-19.8 6.6-34.2 23.4-37.8 43.8q-1.2 7.2-1.2 14.4v88.2c0 0.6-0.6 1.8-1.8 1.8h-22.8c-1.2 0-1.8-1.2-1.8-2.4c0-1.2 0-169.8 0-170.4c0-1.2 1.2-3 3-3q10.2 0 19.8 0c3 0 3.6 0.6 3.6 3.6q0 13.8 0 27.6q0 2.4 0 4.8zm-419.4 0.6q2.4-3.6 4.8-7.8c10.8-16.8 28.8-28.2 49.2-29.4c1.8-0.6 3.6 0 5.4-0.6c2.4-0.6 3 0.6 3 3q0 10.2 0 20.4c0 2.4-1.2 3-3 3q-12.6 0-24 4.8c-17.4 6.6-30 21-33.6 39c-1.8 6-2.4 12-2.4 18c0 27.6 0 59.4 0 87q0 1.8-1.8 1.8h-22.8q-1.8 0-1.8-1.8c0-0.6 0-169.8 0-171c0-2.4 0.6-3 3.6-3q9.6 0 19.2 0c3 0 3.6 0.6 3.6 3q0 16.8 0 33.6zm97.2-34.8q0-1.8 1.8-1.8h21.6c1.8 0 2.4 1.2 2.4 2.4c0 1.2 0 166.8 0 168c0 6 0.6 5.4-6 5.4q-8.4 0-16.8 0c-2.4 0.6-3-0.6-3-3.6q0-12.6 0-25.8c0-1.2 0-143.4 0-144.6zm11.4-34.2c-9.6-1.2-16.2-9-15.6-18.6q0-0.6 0-1.2c0.6-9.6 8.4-16.8 18-16.2q0.6 0 1.2 0c9.6 1.2 16.2 10.2 14.4 19.8c-0.6 9-8.4 16.2-18 16.2zm-181.2 103.2c-5.4 50.4-41.4 91.2-90.6 102.6q-7.8 2.4-16.2 3c-4.8 0.6-10.2 1.2-15.6 1.2c-44.4-1.8-81-19.2-105-57.6c-33.6-54.6-16.8-126 37.2-159.6q7.2-4.2 14.4-7.2c46.8-21.6 101.4-13.2 139.2 21.6c27 24 40.8 60 36 96zm-36-51.6c-15-31.8-46.8-51.6-81.6-52.2c-16.8-0.6-33.6 3-49.2 10.8c-44.4 22.2-62.4 76.8-40.2 121.2q6 12 14.4 21.6c35.4 37.8 94.2 41.4 133.8 8.4c32.4-27 41.4-72.6 22.8-109.8zm450.6 100.8c-9.6 30-35.4 51.6-66.6 55.2c-16.2 3.6-33.6 1.8-49.2-3.6c-28.2-9-49.2-33-54.6-62.4c-4.2-16.2-3.6-33.6 1.8-49.8c8.4-29.4 32.4-52.2 62.4-57.6q10.8-3 22.2-2.4c13.8-0.6 27 2.4 39.6 7.8c22.8 9.6 39.6 28.8 46.2 52.8c6 19.8 5.4 40.8-1.8 60zm-20.4-33q0-6.6-1.2-12.6c-3-21-16.8-38.4-36.6-46.8c-10.2-4.2-21-5.4-31.8-4.2c-22.2 1.2-42 15-51 35.4c-5.4 13.2-7.2 27.6-4.8 42c2.4 22.2 17.4 40.8 38.4 48.6c10.2 4.2 21.6 5.4 33 3.6c20.4-2.4 37.8-14.4 46.8-33c4.8-10.2 7.2-21.6 6.6-33z" />
				<path id="Path 9" fill-rule="evenodd" class="s1" d="m602.2 426.8v-54c0-4.2 0-4.2 3.6-4.2q10.8-0.6 22.2 0q6.6 0.6 13.2 0c7.2-0.6 13.8 0.6 21 0c1.8 0 2.4 0.6 3 2.4q1.2 8.4 0 16.8c0 2.4-1.8 2.4-3.6 2.4l-34.8-0.6c-3.6 0-4.2 0-3.6 3.6c-0.6 6.6-0.6 13.8 0 20.4c0.6 3.6 0.6 3.6 4.2 3.6h23.4c4.8 0 4.8 0 4.8 4.8q0.6 6 0 11.4c0 3-1.2 3.6-3.6 3.6h-24c-4.8 0-4.8 0-4.8 4.8q0 10.2 0 19.8c0 2.4 0 3.6 3 3.6c8.4 0 18 0.6 26.4 0.6c3.6 0 6.6 0 10.2-0.6c1.8 0 2.4 0.6 2.4 2.4q1.2 7.8 0 15.6c0 1.8-1.2 2.4-3 2.4c-1.8 0-4.2 0-6 0q-18-0.6-36.6 0.6q-6.6 0-12.6 0c-4.8 0-4.2 0-4.2-4.2c0-15-0.6-30 0-45q0-4.8 0-9.6zm155.4-59.4c9.6-0.6 19.8 1.2 29.4 0.6c1.8 0 3 0 3.6 2.4c1.2 4.2 1.2 9.6 0 13.8c-0.6 2.4-2.4 3.6-4.8 3.6q-7.8 0-15.6 0c-3-0.6-3.6 0.6-3.6 3q0 9.6 0 19.2c0 12.6 1.2 25.2 0.6 37.2c-0.6 11.4 0 22.8-0.6 33.6c-0.6 4.8-0.6 4.8-4.8 5.4q-6 0.6-11.4 0c-4.2-0.6-4.2-1.2-4.2-5.4c-0.6-16.8 1.2-33 0-49.8c-0.6-12.6 0-25.8 0-38.4c0.6-4.8 0.6-4.8-4.2-4.8h-15.6c-2.4 0-4.2-0.6-4.2-3c-1.2-4.8-0.6-10.2 0.6-15c0.6-2.4 3-2.4 4.8-2.4zm-424.8 75q-1.2 9 0 18c0.6 3.6 3.6 6.6 7.2 7.2c3.6 1.2 7.8 0 10.2-2.4c2.4-1.8 2.4-4.8 2.4-7.2c0.6-4.2 0.6-4.8 4.8-4.8q4.2-0.6 9 0c4.8 0.6 5.4 1.2 5.4 6c0.6 11.4-6 21.6-16.8 25.8c-15 4.8-31.2-0.6-39.6-13.8c-2.4-4.8-3.6-10.2-3.6-15.6q-0.6-15 0.6-29.4c1.2-13.2 10.8-24 24-25.8c7.8-1.2 16.8 0.6 24 4.2q2.4 1.2 3.6 3c4.8 6.6 7.2 15 7.2 22.8c0 2.4 0.6 3.6-3 3.6q-4.8 0-9.6 0c-4.8-0.6-4.8-0.6-5.4-5.4c-0.6-4.8-3.6-8.4-8.4-9.6c-5.4-0.6-10.2 2.4-12 7.2q0 3.6 0 7.2q0 4.2 0 9zm-89.4-48q0 3.6 0 7.2h12.6c3.6 0 3.6 0 4.2 3.6q1.2 5.4 0.6 10.8q0 0.6 0 0.6c0 1.8-1.8 3.6-3.6 3h-9.6c-4.8 0-4.8 1.2-4.8 4.8q0 4.8 0 10.2c0 15.6-1.2 31.2 0 46.8c0.6 4.2 0 4.2-4.2 4.2h-11.4c-3.6 0-4.2-1.2-4.2-4.2c0-2.4 0-5.4 0-8.4q0.6-24 0-48c0-4.2 0.6-4.8-4.8-4.8c-4.8 0-4.8-0.6-4.8-5.4c0-3.6 0.6-7.2 0.6-10.8c0-1.8 0-2.4 2.4-2.4c2.4-0.6 6 0.6 6.6-1.2c0.6-1.8 0-4.2 0-6.6q0-4.2 1.2-8.4c1.2-7.2 7.2-13.2 13.8-15q10.2-3 20.4-2.4c4.2 0 4.8 0.6 4.8 4.2q0 5.4 0 10.8c0 3.6 0 4.2-4.2 4.2q-4.8 0-9.6 0.6c-4.2 1.2-6 2.4-6 6.6zm-57.6 29.4c0 9.6 0 19.8 0 28.8q-0.6 14.4 0 28.2c0 4.8-0.6 4.8-4.8 4.8q-5.4 0-11.4 0c-2.4 0-3.6-0.6-3.6-3c0-4.8 0-9 0-13.8c1.8-15 0-30.6 0-45.6c0-3-1.2-3.6-3-3.6c-6 0.6-6.6 1.2-6.6-6.6c0-3 0-6.6 0-8.4q0-3.6 3-3.6c2.4 0.6 5.4 1.2 6 0c1.2-1.8 0-4.2 0-6q0-4.8 1.2-9c1.2-7.8 7.2-13.8 15-15.6q9.6-3 19.8-3c3.6 0 4.2 0.6 4.8 4.2q0.6 6 0 11.4c0 3.6-0.6 4.2-4.2 4.2q-4.8-0.6-9.6 0.6c-4.8 1.2-6 2.4-6.6 7.2q0 1.8 0 3c-0.6 3 0 3.6 3.6 3.6c3 0 7.8 0 9.6 0c2.4 0 3.6 0.6 3.6 2.4q1.8 6.6 0.6 13.8c0 2.4-1.8 2.4-3 2.4c-3.6 0-6.6 0-10.8 0c-3.6 0-3.6 0-3.6 3.6zm499.8-51c0-4.2 0.6-3.6 4.2-4.2c3.6-0.6 6-0.6 10.8-0.6c5.4 0 5.4 0 5.4 4.8q0 18.6 0 37.8c0.6 7.2 0.6 14.4 0.6 21.6q-1.2 18.6 0 37.8q0 6 0 12.6q0 4.2-3.6 4.2q-7.2 0-13.8 0c-3.6-0.6-3.6-0.6-3.6-4.2q0-6 0-11.4c0-15 0-85.8 0-98.4zm-389.4 71.4c-0.6 11.4 0 23.4 0 35.4c0 5.4 0 5.4-5.4 6q-5.4 0.6-11.4 0c-3 0-3.6-1.2-3.6-4.2q0-16.2 0-31.8q0-22.2 1.2-43.8c0-3.6-0.6-4.2 3.6-4.8q5.4-1.2 11.4 0c4.2 1.2 4.2 1.2 4.2 4.8c0.6 13.2 0.6 26.4 0 38.4zm-16.2-56.4c-2.4 0-3-1.2-3-3.6q0-6 0-12.6q0-0.6 0-1.2c0-1.2 1.2-2.4 3-1.8c4.8-0.6 9 0 13.8 0c1.8 0.6 3 1.2 3 3c0 4.8 0 9 0 13.2c-0.6 2.4-1.2 3-3.6 3c-1.8 0-10.8 0-13.2 0zm303 99c-6 0.6-12 0-17.4-1.8c-1.8-0.6-1.8-2.4-2.4-3.6q-4.2-14.4-8.4-28.2q-1.8-5.4-4.2-11.4c-1.2-2.4-3.6-3-6.6-2.4c-0.6 0-0.6 1.2-0.6 1.8c0 1.8-0.6 4.2-0.6 6q0 16.8 0 33c0 6-1.2 6.6-6.6 6.6q-5.4 0.6-10.2-0.6c-4.2-1.2-4.2-1.2-4.2-5.4v-30c0-25.8 1.8-51.6 1.2-77.4c0-4.8 0-5.4 4.8-5.4q17.4-0.6 34.8 1.8c11.4 1.2 20.4 10.8 21 21.6c1.8 7.8 1.8 16.2 0 24c-1.2 6-4.2 12-9.6 16.2c-5.4 4.8-5.4 4.8-3 11.4c4.8 12.6 9 25.8 13.8 38.4c0 0.6 0.6 1.2 0.6 1.8c0.6 1.2 0 3-1.2 3.6q-0.6 0-1.2 0zm-19.8-90.6c0-3.6-1.8-6-4.8-6.6q-6-1.2-12-0.6c-2.4 0-3 1.2-3 3c0 4.2 0 19.8 0 23.4c0 1.8 0 3 2.4 2.4q6 0.6 11.4-0.6c3.6 0 6-3 6-6.6q0.6-7.8 0.6-14.4zm-420 71.4c-1.2 4.2-3 7.8-6.6 10.8c-6 5.4-13.8 9-22.2 9.6c-5.4 0-11.4-1.2-16.2-4.2c-9.6-4.8-15.6-15-16.2-25.8c-0.6-22.8 0-45.6 0-69c0-2.4 1.2-5.4 3-7.2q4.8-7.2 12.6-10.8c3.6-1.2 6.6-3 9.6-3.6c10.2-1.8 20.4 0.6 27.6 7.2c4.8 4.2 7.8 10.2 8.4 16.2q1.8 12 1.2 23.4c0 9.6 0 19.8 0.6 29.4c0.6 7.8 0 16.2-1.8 24zm-18-23.4c0-11.4-1.8-22.8-1.2-34.2q0-6.6 0-13.2c-0.6-4.8-4.8-9-10.2-9c-7.8 0.6-10.8 4.2-10.8 9.6q0 10.2 0 20.4c-1.2 12.6 0.6 24.6 0 37.2q0 4.8 2.4 8.4c0.6 1.2 1.8 2.4 3 2.4c6 2.4 13.2-0.6 15.6-6.6q0.6-1.8 0.6-3.6c0.6-3.6 0.6-7.8 0.6-11.4zm281.4 6q0 6.6 1.2 13.2q0 2.4 1.8 3.6c5.4 3 12 1.2 15.6-3.6q0.6-1.2 0.6-1.8q0 0 0-0.6c1.8-6.6 1.8-6.6 9-6.6q3.6 0 8.4 0c3 0 3.6 1.2 3.6 3.6c1.2 8.4-2.4 17.4-9.6 22.2c-9.6 7.2-22.2 9-33.6 4.2c-9-3-15-10.8-15.6-20.4q-2.4-20.4 0-41.4c0.6-7.8 5.4-15 12.6-18.6c3.6-1.8 7.2-2.4 11.4-2.4c8.4-0.6 16.8 1.2 24 5.4c2.4 1.8 4.8 4.8 6.6 7.8c2.4 5.4 4.2 12 4.2 18q0 5.4 0 10.2c0 3.6-0.6 3.6-4.2 4.2l-17.4 0.6c-4.8 0-10.2 0-15-0.6q-3-0.6-3 3zm16.2-21c3 0 3.6-1.2 3-3.6c-2.4-5.4-8.4-7.8-13.8-5.4q-1.8 0.6-3.6 2.4q-1.8 1.8-2.4 4.2c0.6 1.8 0.6 2.4 2.4 2.4z" />
				<path id="Path 10" fill-rule="evenodd" class="s0" d="m1285.6 533.6l-147.6-57q0-0.6 0.6-1.2l6.6 1.8l126 48.6zm-195.6-121.2l-3-3.6l-1.2-1.2l5.4 3.6q-0.6 0.6-1.2 1.2zm1.8-1.2l-0.6-0.6q0.1 0 0.2 0l1 0.6q0.3-0.4 0.5-0.9l106.9 75.3l-3.6-1.2l-105-73.2q0 0 0.6 0zm-0.4-0.6l-5.6-3.6l-1.8-9q0.6 0 1.2 0c2.4 0 4.2 1.2 6 3l-4.8 3.6l0.6 1.2l5.4-3.6q1.2 1.8 1.2 4.8q0 1.8-0.7 3.3l-0.5-0.3q-0.5 0.5-1 0.6zm108.4 75l2.4 0.6q-0.6 0.6-0.6 1.8l-0.6-0.6q0 0 0.6-0.6zm-111.6-72q0.6 0 1.2-0.6l39.6 54q0 0.6-0.6 1.2h-0.6zm43.8 60.6l5.4 2.4c-1.2 1.2-3 2.4-4.8 2.4c-3.6 0-6.6-3-6.6-6.6q0-2.4 1.8-3.6zm-3-7.2q1.2-1.2 3-1.2h0.6c3.6 0.6 6 3 6 6.6q0 0.6 0 1.8l-5.4-1.8l4.8 2.4q0 0 0 0.6l-4.8-1.2v-1.8zm-40.8-53.4q-1.8 0.6-3.6 0.6c-4.8 0-8.4-3.6-8.4-8.4c0-1.8 0.6-4.2 1.8-5.4l2.4 2.4l1.8 3l3 4.2zm-35.4-163.8q-0.6 0-0.6 0q-0.6 0-1.2 0l-4.2-60l-13.8 138l17.4-65.4q0.6 0 1.2 0l-17.4 68.4c1.8 0.6 3 3 3 5.4c0 1.8-0.6 3.6-1.8 4.8l43.8 57.6q1.2-1.2 2.9-1.8l0.1 0.6v0.6q0.1 0 0.1 0l1.7 7.8l-0.6-1.2l-1.8-3l-1.8-2.4q-0.6 0-1.2 0.6l-44.4-58.2q-1.2 1.2-3 1.2h-0.6c-3 0-6-3-6-6.6c0-3.6 2.4-6.6 6-6.6l15-144.6c-3-0.6-5.4-3-5.4-6q0-0.6 0 0c0-3.6 3-6.6 6.6-6.6c0.6 0 1.8 0 2.4 0l39.6-57q-1.8-1.8-1.8-4.8c0-3.6 3-6 6.6-6v-0.6q1.8 0 3.6 1.2l48.3-51.3q0.2 0.2 0.3 0.3l0.3-0.3q0.4 0.4 0.9 0.9l-48.6 51.6l114.6-69q-0.6-1.2-0.6-2.4l-52.8 13.2q0-1.2 0-1.8h-0.1l52.3-13.2q0-0.9 0-1.8c0-6 5.4-11.4 11.4-11.4c5.4 0 9 3 10.8 7.2l61.8-20.4q0 0 0-0.6c0-3 2.4-5.4 5.4-5.4c3 0 5.4 2.4 6 5.4q0 0 0 0.6l61.9 17.1q-0.1 0.1-0.1 0.3h1.2q0 1.2-0.6 1.8l-63-17.4c-1.2 1.8-3 3-5.4 3c-1.8 0-3.6-1.2-4.8-3l-61.8 20.4q0.6 0.6 0.6 1.8l134.4-3.6q0 0 0 0.6q0 0.6 0 1.2l-134.4 3.6q-0.6 2.4-1.2 4.8l97.8 63.6c3.6-4.2 8.4-6.6 14.4-6.6q3.6 0 6 1.2l23.4-57.6q0.6 0 1.2 0.6l-23.4 57c6 3 10.8 9 10.8 16.2q0 1.2 0 1.8l124.8 15.6q0.6-1.2 1.2-2.4l3.6 3l-1.7 5.5q0 0-0.1-0.1l-0.2 0.5c-1.7-0.6-2.8-3-2.8-4.7l3.6 0.6v-1.8h-3q0-0.6 0-0.6q-0.6 0.6-0.6 1.2q0 0.6 0 0.6l-125.4-16.2c-0.6 4.8-3 9-7.2 12l86.4 131.4q-0.6 0-0.6 0.6l-86.4-131.4q-4.2 2.4-9.6 2.4q-2.4 0-4.8-0.6l-42.6 118.2q-1.2-0.6-1.8-0.6l42.6-118.2c-4.8-1.8-8.4-6-10.2-10.8l-154.8 42.6q0 0 0-0.6q-0.6 0-0.6-0.6l154.8-43.2q-0.6-1.8-0.6-4.2q0-4.8 2.4-9l-97.8-64.2c-2.4 3-5.4 4.8-9.6 4.8q-1.8 0-3.6-0.6l-49.8 111q0 0-0.6 0l1.8-3.6q-0.6 0-1.2 0l48.6-108q-2.4-1.2-4.8-3.6l-114.6 69.6q0.6 1.2 0.6 2.4q0 1.8-0.6 3l58.8 42.6q-0.6 0.6-1.2 1.8l-58.2-43.2c-1.2 1.2-3 2.4-4.8 2.4q-0.6 0-1.2 0l-37.8 133.2q-0.6-0.6-1.8-0.6l37.8-133.2q-0.6 0-0.6-0.6l-39.6 57.6c1.8 1.2 3 3 3 5.4c0 3-2.4 5.4-5.4 6zm439.3-114.5q0.6 0.5 1.1 0.5l-36 120.6q-0.6 0-0.6 0l0.6-2.4q-0.6 0-1.2 0l35.8-118.3q0.1 0.1 0.2 0.1zm-410.1 261.5l-29.8-133.8q-0.6 0-0.6 0l0.6-2.4l0.6 2.4q0 0 0.6 0l30 135q-0.6 0-1.1 0l-0.1-0.6v-0.6q-0.1 0-0.2 0zm-30.4-139.8l-1.8 6c-2.4-0.6-4.8-3-4.8-6c0-3.6 3-6 6-6.6v4.2h-0.6l0.6 1.2q-0.6 0.6 0 1.2h0.6l1.2-0.6v1.2l-0.6 3zm93.9-203.1q-0.9-1.2-0.9-2.7c0-3.6 3-6.6 6.6-6.6l0.6-0.6q3.5 0.6 5.3 2.9l-0.5 0.1h0.6l-0.4 0.3q-0.1-0.2-0.2-0.3l-3 1.2l-0.5 0.4l-2.5 0.8l-4.5 4.5q-0.2-0.2-0.3-0.3zm13.9-7.5l-2.3 0.6q0-0.1 0-0.1zm0.1 1.7c0 3-3 6-6.6 6q-2.4 0-4.2-1.2l4.4-4.3l3.4-1.1l0.2-0.2q0.4 0.5 0.4 1.4zm9.6 105.6l-2.4 4.8l-7.2-5.4c1.8-2.4 4.8-3.6 7.8-3.6q1.2 0 2.4 0.6l-1.2 3q0.6 0 0.6 0.6zm273.6 104.4q0 0 0.6-0.6l8.4 13.8l-16.2-1.2c0.6-4.2 3-8.4 6.6-11.4q0.6 0 0.6-0.6zm105.6-65.4l1.2 1.8q0 0 0 0.6l0.6 0.6h-0.6l-3 70.8c5.4 1.2 9 5.4 9 10.8c0 5.4-4.2 10.2-9.6 10.8l-6 75.6l-1.2 1.8v1.2l-90.6 112.8q1.2 1.8 1.2 4.2c0 3.6-3 6.6-6.6 6.6c-2.4 0-4.2-1.8-5.4-3.6l6.6-1.8l2.4-3q-0.5-1-1.1-1.6l1.1-1.4q-0.1 0-0.2-0.1l86-106.7l-42.6 39.6l-1.2 1.2q0-0.4-0.4-0.9l0.3-0.8l47.5-44.5l2.4-3.6l6-75q-1.2 0-1.8-0.6l-55.2 123v0.6q-0.6-1.2-1.8-1.2h0.6l1.2-2.4q-0.6 0-0.6 0l54-120.6c-3.6-1.8-6-5.4-6-9.6l-65.4-2.4c-0.6 6.6-4.8 11.4-10.8 13.8v-1.8q-0.6 0-1.2 0v-0.6q0 0 0.6 0l-1.2-4.2l-8.4-2.4l-0.6 0.6l-1.8-0.6l-3.6 4.2l-0.2 0.2q-0.2-0.1-0.4-0.2l-0.6 1.2c-3-3-5.4-7.8-5.4-12.6l16.8 1.2l1.2 1.8q0.6 0 0.6 0q0.6 0 1.2-0.6v-1.8l13.8 0.6q0 0.6 0 1.2q0-0.6 0.6-1.2h-0.6q0 0 0-0.6l65.4 3c0.6-4.2 3-7.2 6.6-8.4l-44.4-130.8q0.6-0.6 1.2-0.6l44.4 130.8q1.2 0 2.4 0l3-71.4l-1.2-1.8l-47.4-58.2q0.6-0.6 1.2-1.2l35.4 43.2l-33-48q0.6-0.6 0.6-1.2q0-1.2-0.6-2.4zm-60.4 219.3l-0.2 0.3l-0.6-0.6l1.2-0.6l-0.1 0.1l-0.5 0.5q0.1 0.2 0.2 0.3zm-42.7 68.3l-2.5 3.4l-6.6 1.8q0-0.6 0-1.2c0-3.6 3-6.6 6.6-6.6q1.7 0 3.4 1.1l-1 1.3q0.1 0.1 0.1 0.2zm-390.7-229.4q0.6 0 1.2 0.6v0.6q0 0 0.6 0l-2.4 1.8zm1.2 0.6l101.4-84q0.6 0.6 0.6 0.6l-100.8 84.6q-0.6-0.6-0.6-0.6q0-0.6-0.6-0.6zm1.2 1.2q1.2 1.8 1.2 4.2q0 1.8-0.6 3l-0.6-0.6q0 0.1-0.1 0.1l-3.5-3.1zm0.6 7.2l90 82.8q0 0-0.6 0.6l-91.2-82.8q0.6-0.5 1.1-1.1l0.7 0.5q0 0 0 0zm90 82.8q0.6-1.2 1.8-1.8l7.2 6.6l-8.4 6.6q-1.8-3-1.8-6q0-0.6 0-0.6q0-2.4 1.2-4.2q0 0 0.6 0zm-91.8-81.6q-0.6 0.6-1.8 1.2l-0.6-3.6zm411.6-184.2l26.4 47.4q-1.2 0-1.8 0.6l-31.8-57.6q0 0 0.6 0q0.6-0.6 1.2-1.2l39 57.6q-1.2-1.2-3-1.8zm18 333h-0.6l-0.6-3q1.2 0 2.4 0.6zm-109.8 90.6q-0.6-1.2-1.2-1.8l104.4-79.2q1.2 0.6 1.8 1.2zm81-214.2q-1.2 0.6-3 0.6c-3.6 0-6.6-1.2-9.6-3l3-3.6l9 2.4v0.6zm1.2 1.8l25.8 118.2q-0.6 0-1.8 0.6l-25.2-120l0.6 1.8q0.6 0 0.6-0.6zm-16.8-3l1-1q0.9 0.5 1.4 1l-102 123.6q-1.2-0.6-1.8-1.2l100.8-122.4q0.6 0 0.6 0zm-70.8-261l-1.1-0.3c1.3-4.6 6-8.1 11.3-8.1c6 0 11.4 5.4 11.4 11.4q0 1.8 0 3l-4.2-1.2l3.6 3l-10.2-4.2v-1.2h-1.2v-0.6l-1.2-0.6h-4.2l-3-0.6h1.2zm9.6 2.4l-3.6 8.4c-3-1.8-5.4-5.4-5.4-9h3.6l3 0.6zm9 9.6q0.6-1.2 1.2-1.8l101.4 90.6q-0.6 0.6-1.2 1.2zm107.4 100.2q-0.6 0-1.2 0q-1.2 0-1.8 0l1.2-4.2zm-39.6 120l-1.2 3.6l-1.2 9.6h-0.6l-9.6-13.8q4.2-3 9-3v0.6q1.8 0 3 0.6l-0.6 1.8q0.6 0.6 1.2 0.6zm-4.8-198.6c1.2-1.8 3-3 5.4-3c3.6 0 6.6 2.4 6.6 6q0 0 0 0.6c0 1.8-0.6 3.6-2.4 4.2l-3.6-4.8q0-0.6 0-0.6zm39.6 67.8q0-0.6 0-0.6l0.6 1.2zm-34.2-63.6l-5.1-2.2q-0.2 0.2-0.3 0.4q0 0 0 0.6l-60.6-25.8q0.5-1 1-2.1q0 0 0 0q0.1-0.1 0.2-0.3l60.6 26.4q-0.5 0-0.9 0.8l-0.3-0.2q0 0.6 0 0.6q0 0.3 0 0.6q0 0.3 0 0.6c0 3.6 3 6 6 6c0 0 1.2 0 1.8 0q0 0 0.6 0zm-67.8-24.6c-2.4 1.8-4.8 3-7.8 3q-2.4 0-4.8-1.2l4.2-9h0.6zm-187.8 450.6q1.2-1.2 1.8-1.2l1.2 3zm-42-126q1.2-0.6 1.8-0.6l43.8 124.8q0 0 0.6 0c2.4 0 4.8 1.2 5.4 3l-4.8 3v-1.2l-1.8-4.8q-0.6 0-1.2 0.6zm163.8 60.6q0.6 0.6 1.2 1.8l-112.8 66.6q0 0.6 0 1.2q0 0.6 0 0.6l-3-0.6l3-1.8q0-0.6-0.6-0.6zm28.8 86.4l0.6-1.2l-6.6-0.6c0.6-5.4 3.6-9.6 7.8-12l3 10.2v1.2l14.4-4.2l3-1.8q1.2 1.8 1.8 3.6l-15.6 4.8l-11.4 3q0-0.6-0.6-0.6l-1.8 0.6q-0.6-1.8-0.6-3.6q0 0.6 0 1.2q0 0 0 0.6l-126-15.6l-4.8-2.4l130.8 16.2zm-5.4 4.2l2.4-0.6q0 0.6 0 0.6l-61.8 17.4l0.6-1.2l-1.2-0.6h0.6l59.4-16.8q0 0.6 0 1.2zm-135-19.2q0-0.6 0.6-1.8h0.6q-0.6 0-0.6 0.6l3 1.2zm151.8 16.2l14.4-4.8q0 0.6 0 0.6l0.6-0.1q0 0 0 0.1v-0.1l0.2-0.1q0.4 0.9 0.4 1.4c0 8.4-7.2 15.6-15.6 15.6c-6 0-11.4-3.6-13.8-9zm15-4.3q-0.1-0.5-0.6-0.5q-0.6-0.6-0.6-1.2l58.8-18.6q0 1.2 0.6 2.4l-58 17.8q-0.1-0.2-0.2-0.4zm-166.8-11.2q0 0.6 0 0.6l-1.8-0.6l-6-0.6l1.8 0.6l4.8 2.4c-1.2 1.2-3 2.4-4.8 2.4c-3.6 0-6.6-3-6.6-6.6l4.2 0.6l1.2-0.6l-0.6-0.6l-4.2-1.2q0-0.6 0.6-1.8l3.6 3l2.4 0.6l3.6 1.8zm111.6-72q-1.2-1.8-1.2-4.2q0-1.2 0.6-2.4l3.6 1.2l2.4 1.8zm-158.4-66q0-0.6 0-0.6q0.6-0.6 1.2-1.2l157.2 59.4q0 0.6-0.6 1.8zm0-0.6q-1.2 1.2-1.8 1.8l-2.3-6.9l2.3 0.9l3.6 1.8q0-0.6 0-1.2l0.6 0.6q-0.6 0.6-1.2 1.8h-0.6q-0.6 0.6-0.6 1.2zm-4.1-5.1l-0.7-0.3v0.6l-1.2-0.6l6.6-3.6q0.6 1.8 0.6 3.6c0 0.6 0 1.8 0 2.4l-3-1.2l-2.4-1.2zm163.1 62.8c1.2-2.4 3.6-4.2 6-4.8l1.2 5.4l1.2 4.8h0.6v0.6l1.8 7.8q-0.6 0.6-2.4 0.6c-3 0-6-1.8-7.8-4.2l7.2-4.2h1.2l-4.2-4.2zm-238.8-4.8l-1.2-1.8l0.6 0.6zm88.8-247.8q0.6 0 0.6 0.6q0 0 0 0.6q0 3.5-1.7 5.9l-0.7-0.5q0 0-0.1 0l-5.3-4.2zm-1.1 7.1l104.9 82.3q-0.6 1.2-1.2 1.8l-106.2-83.4q1.1-0.6 1.7-1.2l0.7 0.6q0-0.1 0.1-0.1zm-2.5 0.1q-3 2.4-6 2.4q-0.6 0-0.6 0v-7.2zm-12.6 172.2q-0.6 0-0.6 0v-3q0 0-0.6 0q-0.6 0-1.2 0.6l6.6-168q1.2 0.6 1.8 0.6zm-0.6 0v6l-7.2-6.6c1.2-1.2 3.6-1.8 5.4-1.8v1.8q0.6 0 1.8 0.6zm4.8-170.4q-3-0.6-4.2-3l4.2-3.6zm-3.6 170.4c2.4 0.6 4.2 1.8 5.4 4.2l-5.4 4.2v-0.6q-0.6 0-0.6 0zm0 8.4l3 9q-1.8 0.6-4.2 1.2c-3.6-0.6-6-1.8-7.8-3.6l8.4-7.2v0.6zm117-77.4q0 0.6 0.6 1.8l-111 73.8q0-1.2-0.6-1.8zm33.6-5.4q0-0.6 0-1.8l125.4 7.2q0 1.2 0 1.8q0 0.6 0 0.6zm0 0c-0.6 6-4.8 11.4-10.8 13.8l-1.2-4.2l-0.6-3.6l-5.4-7.2q0 0 0.6 0zm-12 9.6l0.6 3q-1.8 0.6-4.2 0.6c-6.6 0-12-3.6-15-8.4l10.2-6.6l-0.6-1.8l-10.8 7.2q-1.8-3.6-1.8-8.4q0-6 3.6-10.8l4.8 4.2l12.6 18.6zm-5.4-30.6v0.6q3 0 5.4 0.6l-6 17.4q-0.6 0.6-0.6 0.6l-6.6-10.2l-4.8-3.6c3-3 7.8-5.4 12.6-5.4zm40.8 162.6q0 0 0.6 0q3 0 5.4 1.8l-1.2 1.2l2.4 7.2h3c0 3.6-2.4 6.6-5.4 7.8l-3.6-13.2zm24.6 87q-1.2 0.6-2.4 1.2l-19.2-69q1.2-0.6 2.4-1.2zm-61.2-214.2q1.2 0 2.4-0.6l34.2 127.8q-1.2 0-2.4 0.6zm61.2 214.2q2.4-1.2 4.8-1.2v0.6c4.8 0 9 1.8 12 5.4l-2.4 1.2l-12 3.6zm120-78.6q0-0.6 0-1.2c0-3 1.8-5.4 4.2-6l1.2 5.4v0.6l3.6-1.2l1.2 1.2l1.8-1.8q0.6 0.6 0.6 1.8c0 3.6-3 6.6-6.6 6.6q-1.2 0-2.4-0.6l3.6-3l0.6-0.6l-3-1.2zm-133.8 1.2q0-0.6 0-0.6q0-0.6 0-0.6h-1.2l-1.8-4.8l0.6-1.2q2.4 2.4 3 6h133.2q0 0.6 0.6 1.2zm135.6 2.4q-1.2-0.6-1.8-1.8h4.8zm10.2-10.8q0.6 0.6 0.6 1.2l-1.8 1.2zm-273 84.6l-2.4-0.6q0-0.6 0.6-0.6zm0 1.8l4.8 0.6l66.6 33.6l-14.4-5.4zm-21-9l4.8 3l-54-13.8l-6.6-2.4q0.6 0 0.6-0.6zm-47.4-131.4q0.6 0.6 1.2 1.2l-55.2 42.6q-0.6-0.6-1.2-1.2zm11.4-190.2q-1.8-2.4-1.8-4.8q0-0.6 0-0.6q0-1.8 1.2-3.6l6 4.2zm233.2-131.7q0 0 0 0q-0.1 0.3-0.4 0.3q0-0.6 0-1.2h0.6q0 0.6-0.2 0.9zm65 228.9l1.8-6c6 2.4 10.8 8.4 10.8 16.2l-13.2-0.6zm-157.8-15.6c6 3 10.2 9 10.8 16.2l-16.2-0.6zm200.4-111.6q-0.6 0.6-0.6 0.6l-1.2-3zm-5.4-11.4q1.2 0 1.8 0q0.6 0 1.2 0l5.4 7.8q-0.6 1.2-1.2 2.4l-4.8-5.4zm-323.4 29.4c1.8 1.2 3.6 3 4.2 4.8l-7.8 2.4zm29.4 335.4v-0.6q0 0.6 0 0.6zm90.6-223.8zm0 0q-0.6 0-0.6 0zm0.6 0.6q-0.6-0.6-0.6-0.6zm210.6-137.4l-1.2-2.4q0.6 1.2 1.2 2.4zm-131.4-101.4h1.2zm-166.2 463.8h0.6z" />
			</g>
		</g>
	</g>
</svg>