<svg version="1.2" baseProfile="tiny-ps" xmlns="http://www.w3.org/2000/svg" viewBox="0 0 1534 437" width="1534" height="437">
	<title>onto logo-svg</title>
	<style>
		tspan { white-space:pre }
		.shp0 { fill: #ff002b } 
	</style>
	<g id="Layer">
		<g id="Layer">
		</g>
	</g>
	<g id="Layer">
		<path id="Layer" fill-rule="evenodd" class="shp0" d="M1532.97 244.34C1532.97 350.16 1446.92 436.67 1340.77 436.67C1235.02 436.67 1148.57 350.16 1148.57 244.34C1148.57 138.51 1234.62 52 1340.77 52C1446.52 52 1532.97 138.51 1532.97 244.34ZM1420.78 244.74C1420.78 200.48 1385 164.67 1340.77 164.67C1296.54 164.67 1260.75 200.48 1260.75 244.74C1260.75 289 1296.54 324.81 1340.77 324.81C1384.6 324.81 1420.78 289 1420.78 244.74ZM385.42 244.74C385.42 350.56 298.97 437.07 193.22 437.07C87.47 437.07 1.02 350.56 1.02 244.74C1.02 138.51 87.07 52.41 193.22 52C299.37 52 385.82 138.51 385.42 244.74ZM273.23 244.74C273.23 200.48 237.45 164.67 193.22 164.67L192.82 164.67C148.99 165.07 113.2 200.88 113.2 244.74C113.2 289 148.99 324.81 193.22 324.81C237.45 324.81 273.23 288.6 273.23 244.74ZM804.79 433.45L692.61 433.45L692.61 249.16C692.61 204.9 656.82 169.09 612.59 169.09L552.68 169.09L552.68 433.05L440.5 433.05L440.5 56.83L612.59 56.83C718.34 56.83 804.39 142.94 804.79 249.16L804.79 433.45ZM1107.16 76.15L1107.16 169.5L865.5 169.5L865.5 56.83L977.69 0.1L977.69 76.15L1107.16 76.15ZM1107.16 324.81L1107.16 437.07L1057.7 437.07C951.55 437.07 865.5 350.96 865.5 244.74L865.5 207.72L977.69 207.72L977.69 244.74C977.69 289 1013.47 324.81 1057.7 324.81C1058.1 324.81 1107.16 324.81 1107.16 324.81Z" />
	</g>
</svg>