<svg version="1.2" baseProfile="tiny-ps" xmlns="http://www.w3.org/2000/svg" viewBox="0 0 1601 1599" width="1601" height="1599">
	<title>Offerpad-logo-main-svg</title>
	<style>
		tspan { white-space:pre }
		.shp0 { fill: #186775 } 
	</style>
	<path id="Layer" class="shp0" d="M966.32 70.01C944.25 47.92 918.05 30.4 889.22 18.45C860.39 6.5 829.49 0.34 798.28 0.34C767.08 0.34 736.17 6.5 707.34 18.45C678.51 30.4 652.31 47.92 630.25 70.01L97.93 604.67C82.59 620 68.79 636.79 56.73 654.82C44.67 672.84 34.41 692.01 26.09 712.04C17.78 732.07 11.44 752.87 7.19 774.14C2.93 795.41 0.78 817.05 0.75 838.74L0.75 1362.74L0.75 1362.74C0.99 1393.66 7.26 1424.23 19.19 1452.75C31.12 1481.26 48.5 1507.18 70.34 1529.04C92.18 1550.9 118.08 1568.29 146.57 1580.24C175.06 1592.18 205.61 1598.45 236.5 1598.69L1365.08 1598.69C1395.95 1598.37 1426.46 1592.05 1454.92 1580.07C1483.37 1568.1 1509.23 1550.71 1531.06 1528.86C1552.89 1507.02 1570.27 1481.13 1582.23 1452.65C1594.19 1424.17 1600.51 1393.63 1600.83 1362.74L1600.83 838.74C1600.79 817.08 1598.65 795.47 1594.42 774.22C1590.19 752.98 1583.9 732.19 1575.64 712.17C1567.38 692.15 1557.18 672.97 1545.21 654.93C1533.23 636.89 1519.52 620.05 1504.28 604.67L966.32 70.01Z" />
</svg>