<svg version="1.2" xmlns="http://www.w3.org/2000/svg" viewBox="0 0 1582 375" width="1582" height="375">
	<title>opal-fuels-logo-svg</title>
	<style>
		.s0 { fill: #ffffff } 
	</style>
	<path id="Layer" fill-rule="evenodd" class="s0" d="m184.9 375c-74.4 0-141.4-44.7-169.9-113.3-28.5-68.7-12.8-147.7 39.8-200.3 52.5-52.5 131.6-68.3 200.3-39.9 68.8 28.4 113.6 95.4 113.6 169.7 0 24.1-4.7 48-14 70.3-9.2 22.3-22.8 42.5-39.8 59.6-17.1 17-37.3 30.6-59.7 39.8-22.3 9.3-46.2 14.1-70.3 14.1zm0-330.9c-59.6 0-113.4 35.9-136.2 90.9-22.8 55-10.2 118.4 32 160.5 42.2 42.1 105.6 54.7 160.7 31.8 55-22.8 90.9-76.6 90.8-136.1 0-19.4-3.8-38.5-11.2-56.3-7.4-17.9-18.3-34.1-32-47.8-13.6-13.6-29.9-24.5-47.7-31.9-17.9-7.4-37.1-11.2-56.4-11.2zm-36.8 183.9l25.8-25.8 46.7 46.6 46.7-46.6 25.8 25.8-72.5 72.4zm1.1-94.5l-46.7 46.6-25.8-25.8 72.5-72.4 72.5 72.4-25.8 25.8z"/>
	<path id="Layer" fill-rule="evenodd" class="s0" d="m474.5 130.1v-23.7c0-70.7 47.1-106.1 153.2-106.4 106.1-0.3 153.3 35.7 153.3 106.4v23.7c0 71.4-47.1 107.1-153.3 107.1-106.2 0-153.2-35.7-153.2-107.1zm238.4-3.5v-16.8c0-39.1-25-52.8-85.2-52.8-60.1 0-85.2 13.7-85.2 52.8v16.8c0 39.5 25.4 53.6 85.2 53.6 59.8 0 85.2-14 85.2-53.6zm257-121.8c61.1 0 91.2 22.3 91.2 76.5v4.5c0 54.6-29.8 76.5-91.3 76.5h-87.9v70.1h-65.2v-227.6zm24 77.6c0-14.1-7.9-21.9-29.5-21.9h-82.5v48h82.5c21.6 0 29.5-8 29.5-22zm280 149.9l-18.2-37.1h-126.1l-18.2 37.1h-68l118.9-227.9h60.8l119.2 227.9zm-121.7-83h80.8l-40.2-82.7zm428.7 26.4v56.6h-212.3v-227.5h65.3v170.9z"/>
	<path id="Layer" class="s0" d="m499.6 283.8h56.5v14.8h-40.1v15.8h35.3v14.8h-35.3v28.7h-16.4v-74.1zm80.3 42.3v-42.3h16.3v41.7c0 12.1 6 18.3 16 18.3 9.9 0 15.8-5.9 15.8-17.6v-42.4h16.5v41.7c0 22.5-12.6 33.5-32.5 33.5-19.9 0-32.1-11.1-32.1-33m93.1-42.2h55.9v14.5h-39.7v15h35v14.5h-35v15.6h40.2v14.5h-56.4v-74.1zm82.8 0h16.3v59.3h37v14.8h-53.3v-74.1zm72.4 63.3l9.6-11.6q2.3 2.1 4.9 3.7 2.5 1.7 5.4 2.8 2.8 1.2 5.8 1.8 3 0.7 6 0.7c6.7 0 10.8-2.6 10.8-7 0-4.1-2.6-6.2-15-9.4-14.9-3.8-24.7-7.9-24.7-22.6 0-13.5 10.8-22.4 25.9-22.4q3.8 0 7.4 0.6 3.7 0.5 7.2 1.7 3.6 1.2 6.8 3 3.3 1.8 6.2 4.1l-8.5 12.4q-2.1-1.6-4.4-2.9-2.2-1.3-4.7-2.2-2.4-0.9-5-1.5-2.6-0.5-5.2-0.7c-6.2 0-9.5 2.9-9.5 6.5 0 4.8 3.2 6.4 16 9.7 15 4.1 23.5 9.3 23.5 22.3 0 14.7-11.2 22.9-27.2 22.9q-4.3 0-8.6-0.7-4.2-0.8-8.2-2.3-4.1-1.5-7.8-3.8-3.7-2.2-6.9-5.1"/>
</svg>