<svg version="1.2" baseProfile="tiny-ps" xmlns="http://www.w3.org/2000/svg" viewBox="0 0 1616 853" width="1616" height="853">
	<title>L'Oréal_logo-svg</title>
	<style>
		tspan { white-space:pre }
		.shp0 { fill: #000000 } 
	</style>
	<path id="path13" fill-rule="evenodd" class="shp0" d="M1615.04 429.82C1615.04 680.1 1407.22 852.52 1150.96 852.52C894.53 852.52 686.63 677.6 686.63 429.82C686.63 194.46 874.83 0 1150.96 0C1424.51 0 1615.04 194.46 1615.04 429.82ZM1503.42 430.05C1503.42 245.59 1355.83 84.91 1155.05 84.91C949.18 84.91 799.2 245.59 799.2 430.05C799.2 614.77 956.61 768.11 1147.65 768.11C1338.6 768.11 1503.42 614.76 1503.42 430.05Z" />
	<path id="polyline15" class="shp0" d="M440.26 355.71L510.85 355.71L638.96 115.15L535.87 115.15L440.26 355.71" />
	<path id="polyline17" class="shp0" d="M95.2 720.89L95.2 115.15L0 115.15L0 795.16L615.37 795.16L615.37 720.89L95.2 720.89" />
</svg>