<svg version="1.2" baseProfile="tiny-ps" xmlns="http://www.w3.org/2000/svg" viewBox="0 0 1560 566" width="1560" height="566">
	<title>logo (10)-svg</title>
	<style>
		tspan { white-space:pre }
		.shp0 { fill: #000000 } 
	</style>
	<g id="Layer">
		<path id="Layer" fill-rule="evenodd" class="shp0" d="M690.52 372.03L690.52 561.24L606.24 561.24L606.24 373.63C606.24 348.99 595.21 337.85 570.79 337.85L532.99 337.85L532.99 561.23L448.71 561.23L448.71 4.77L587.34 4.77C655.85 4.77 689.72 38.96 689.72 108.12L689.72 213.05C689.72 262.33 672.39 286.18 641.69 298.9C676.33 308.44 690.51 329.91 690.52 372.03ZM605.46 229.74L605.45 112.09C605.45 90.63 595.21 80.29 573.95 80.29L532.99 80.29L532.99 263.92L570.79 263.92C594.43 263.92 605.46 252.79 605.46 229.74ZM740.12 4.77L824.39 4.77L824.39 561.23L740.12 561.23L740.12 4.77ZM997.68 330.71L997.68 257.56L1123.7 257.56L1123.7 462.66C1123.7 531.82 1089.82 566 1021.3 566L976.41 566C907.89 566 874.02 531.82 874.02 462.66L874.02 103.34C874.02 34.17 907.89 0 976.41 0L1020.49 0C1089.03 0 1122.11 34.17 1122.06 102.54L1122.06 192.37L1039.36 192.37L1039.36 107.32C1039.36 85.06 1029.14 74.72 1007.88 74.72L990.56 74.72C968.5 74.72 958.26 85.06 958.26 107.32L958.26 458.68C958.26 480.94 968.5 491.28 990.56 491.28L1009.46 491.28C1031.5 491.28 1041.76 480.94 1041.76 458.68L1041.76 330.71L997.68 330.71ZM1172.51 4.77L1256.78 4.77L1256.78 561.23L1172.51 561.23L1172.51 4.77ZM1560 4.77L1560 561.24L1468.64 561.24L1382.78 186.02L1383.56 561.24L1307.96 561.24L1307.96 4.77L1406.42 4.77L1485.17 350.57L1484.39 4.77L1560 4.77Z" />
		<path id="Layer" class="shp0" d="M296.88 0L259.03 0L259.03 74.72L283.48 74.72C304.75 74.72 314.98 85.06 314.98 107.32L314.98 458.68C314.98 480.94 304.75 491.28 283.48 491.28L259.03 491.28L259.03 566L296.88 566C365.4 566 399.26 531.82 399.26 462.66L399.26 103.34C399.27 34.17 365.4 0 296.88 0ZM84.28 458.68L84.28 107.32C84.28 85.06 94.52 74.72 116.57 74.72L140.24 74.72L140.24 0L102.39 0C33.87 0 0 34.17 0 103.34L0 462.66C0 531.82 33.87 566 102.38 566L140.23 566L140.23 491.28L116.56 491.28C94.52 491.28 84.28 480.94 84.28 458.68ZM141.32 222.31C136.72 217.67 129.28 217.67 124.68 222.31C120.09 226.95 120.09 234.46 124.68 239.1C129.28 243.74 136.72 243.74 141.32 239.1C145.91 234.46 145.91 226.95 141.32 222.31ZM113.2 88.34C109.34 84.44 103.09 84.44 99.24 88.34C95.38 92.23 95.37 98.53 99.24 102.43C103.1 106.31 109.35 106.31 113.2 102.43C117.06 98.53 117.06 92.23 113.2 88.34ZM113.06 129.72C116.83 125.91 116.83 119.73 113.06 115.9C109.28 112.09 103.16 112.09 99.37 115.9C95.59 119.72 95.59 125.91 99.37 129.72C103.16 133.54 109.28 133.54 113.06 129.72ZM99.37 156.99C103.16 160.8 109.28 160.8 113.06 156.99C116.83 153.17 116.83 146.99 113.06 143.18C109.28 139.36 103.16 139.36 99.37 143.18C95.59 146.99 95.6 153.17 99.37 156.99ZM126.29 156.85C129.99 160.59 136 160.59 139.7 156.85C143.39 153.11 143.39 147.06 139.7 143.32C135.99 139.58 129.99 139.58 126.29 143.32C122.59 147.05 122.59 153.11 126.29 156.85ZM166.7 143.32C163 139.58 156.98 139.58 153.29 143.32C149.59 147.05 149.59 153.11 153.29 156.85C156.99 160.59 163 160.59 166.7 156.85C170.4 153.11 170.4 147.05 166.7 143.32ZM193.28 143.52C189.69 139.89 183.87 139.89 180.28 143.52C176.69 147.15 176.69 153.02 180.28 156.65C183.88 160.27 189.7 160.27 193.28 156.65C196.86 153.02 196.86 147.15 193.28 143.52ZM219.52 143.85C216.11 140.4 210.58 140.4 207.16 143.85C203.75 147.3 203.75 152.88 207.16 156.32C210.57 159.77 216.1 159.77 219.52 156.32C222.94 152.88 222.93 147.29 219.52 143.85ZM246.18 144.41C243.07 141.27 238.04 141.27 234.93 144.41C231.83 147.54 231.83 152.62 234.93 155.76C238.03 158.89 243.07 158.89 246.18 155.76C249.28 152.62 249.28 147.54 246.18 144.41ZM273.1 144.13C269.84 140.84 264.56 140.84 261.3 144.13C258.04 147.41 258.04 152.75 261.3 156.04C264.56 159.33 269.84 159.33 273.1 156.04C276.35 152.75 276.35 147.41 273.1 144.13ZM299.96 144.18C296.73 140.92 291.5 140.92 288.27 144.18C285.04 147.43 285.04 152.72 288.27 155.97C291.5 159.23 296.73 159.23 299.96 155.97C303.19 152.72 303.19 147.44 299.96 144.18ZM288.39 170.99C285.23 174.18 285.23 179.35 288.39 182.55C291.55 185.75 296.68 185.75 299.84 182.55C303 179.36 303 174.19 299.84 170.99C296.67 167.8 291.54 167.8 288.39 170.99ZM272.76 182.38C275.82 179.29 275.82 174.26 272.76 171.17C269.69 168.07 264.71 168.07 261.64 171.17C258.57 174.26 258.57 179.29 261.64 182.38C264.7 185.47 269.69 185.47 272.76 182.38ZM235.38 171.56C232.54 174.44 232.54 179.1 235.38 181.98C238.23 184.86 242.86 184.86 245.72 181.98C248.57 179.1 248.57 174.44 245.72 171.56C242.86 168.68 238.24 168.68 235.38 171.56ZM207.97 171.35C205 174.35 205 179.21 207.97 182.19C210.94 185.19 215.75 185.19 218.72 182.19C221.7 179.2 221.7 174.35 218.72 171.35C215.75 168.36 210.93 168.36 207.97 171.35ZM181.08 171.02C177.93 174.19 177.93 179.34 181.08 182.52C184.23 185.7 189.33 185.7 192.46 182.52C195.6 179.34 195.6 174.19 192.46 171.02C189.33 167.85 184.23 167.85 181.08 171.02ZM153.39 170.1C149.73 173.78 149.73 179.75 153.39 183.44C157.04 187.12 162.95 187.12 166.6 183.44C170.25 179.76 170.25 173.79 166.6 170.1C162.95 166.41 157.03 166.41 153.39 170.1ZM126.39 170.1C122.73 173.78 122.73 179.75 126.39 183.44C130.05 187.12 135.95 187.12 139.6 183.44C143.26 179.76 143.26 173.79 139.6 170.1C135.95 166.41 130.04 166.41 126.39 170.1ZM99.28 183.77C103.12 187.64 109.33 187.64 113.16 183.77C116.99 179.91 116.99 173.64 113.16 169.77C109.33 165.9 103.12 165.9 99.28 169.77C95.45 173.64 95.45 179.91 99.28 183.77ZM98.72 211.97C102.86 216.14 109.57 216.14 113.7 211.97C117.84 207.79 117.84 201.03 113.7 196.84C109.57 192.65 102.86 192.65 98.72 196.84C94.58 201.03 94.58 207.79 98.72 211.97ZM103.22 477.97C104.87 479.63 107.56 479.63 109.22 477.97C110.88 476.29 110.88 473.59 109.22 471.91C107.56 470.23 104.88 470.23 103.22 471.91C101.57 473.56 101.57 476.29 103.22 477.97ZM133 478.12C131.23 478.12 129.8 476.69 129.8 474.92C129.8 473.15 131.23 471.72 133 471.72C134.77 471.72 136.2 473.15 136.2 474.92C136.2 476.69 134.77 478.12 133 478.12ZM160 478.12C158.23 478.12 156.8 476.69 156.8 474.92C156.8 473.15 158.23 471.72 160 471.72C161.77 471.72 163.2 473.15 163.2 474.92C163.2 476.69 161.77 478.12 160 478.12ZM183.41 471.52C181.55 473.38 181.55 476.45 183.41 478.32C185.27 480.19 188.29 480.19 190.15 478.32C192.02 476.45 192.02 473.38 190.15 471.52C188.29 469.64 185.27 469.64 183.41 471.52ZM209.13 470.66C206.8 473.02 206.8 476.84 209.13 479.18C211.46 481.51 215.23 481.51 217.56 479.18C219.89 476.84 219.89 473.02 217.56 470.66C215.23 468.32 211.46 468.32 209.13 470.66ZM236.34 470.66C234.01 473.02 234.01 476.84 236.34 479.18C238.67 481.51 242.44 481.51 244.77 479.18C247.1 476.84 247.1 473.02 244.77 470.66C242.44 468.32 238.67 468.32 236.34 470.66ZM263.1 470.79C260.85 473.08 260.85 476.78 263.1 479.05C265.36 481.33 269.02 481.33 271.28 479.05C273.54 476.79 273.54 473.09 271.28 470.79C269.02 468.52 265.37 468.52 263.1 470.79ZM290.15 470.92C287.96 473.15 287.96 476.73 290.15 478.93C292.34 481.15 295.89 481.15 298.08 478.93C300.26 476.72 300.27 473.12 298.08 470.92C295.89 468.72 292.33 468.72 290.15 470.92ZM298.23 443.52C295.95 441.24 292.27 441.24 289.98 443.52C287.71 445.82 287.71 449.54 289.98 451.85C292.27 454.16 295.95 454.16 298.23 451.85C300.51 449.55 300.51 445.83 298.23 443.52ZM271.73 443.11C269.23 440.58 265.16 440.58 262.66 443.11C260.15 445.64 260.15 449.74 262.66 452.26C265.16 454.81 269.22 454.81 271.73 452.26C274.23 449.74 274.23 445.64 271.73 443.11ZM235.79 442.89C233.16 445.54 233.16 449.85 235.79 452.5C238.43 455.14 242.69 455.14 245.32 452.5C247.95 449.85 247.95 445.54 245.32 442.89C242.69 440.23 238.42 440.22 235.79 442.89ZM209.05 443.37C206.68 445.75 206.68 449.64 209.05 452.03C211.42 454.41 215.25 454.41 217.62 452.03C219.99 449.64 219.99 445.75 217.62 443.37C215.26 440.97 211.42 440.97 209.05 443.37ZM182.92 443.79C180.78 445.96 180.78 449.43 182.92 451.59C185.06 453.76 188.51 453.76 190.64 451.59C192.78 449.43 192.78 445.96 190.64 443.79C188.5 441.65 185.05 441.65 182.92 443.79ZM156.63 444.3C154.78 446.15 154.78 449.2 156.63 451.08C158.49 452.94 161.5 452.94 163.34 451.08C165.19 449.2 165.19 446.15 163.34 444.3C161.5 442.44 158.49 442.44 156.63 444.3ZM135.91 444.74C134.3 443.11 131.68 443.11 130.07 444.74C128.47 446.37 128.46 449.01 130.07 450.63C131.69 452.25 134.31 452.26 135.91 450.63C137.52 449.01 137.52 446.37 135.91 444.74ZM106.22 451.3C104.22 451.3 102.61 449.68 102.61 447.69C102.61 445.69 104.22 444.08 106.22 444.08C108.21 444.08 109.82 445.69 109.82 447.69C109.82 449.68 108.21 451.3 106.22 451.3ZM109.52 417.84C107.7 416.01 104.74 416.01 102.92 417.84C101.09 419.68 101.09 422.67 102.92 424.52C104.74 426.36 107.7 426.36 109.52 424.52C111.34 422.68 111.34 419.7 109.52 417.84ZM137.29 416.86C134.92 414.46 131.07 414.46 128.7 416.86C126.33 419.24 126.33 423.13 128.7 425.53C131.07 427.92 134.92 427.92 137.29 425.53C139.66 423.12 139.66 419.24 137.29 416.86ZM155.27 416.42C152.66 419.05 152.66 423.32 155.27 425.97C157.88 428.61 162.1 428.61 164.72 425.97C167.33 423.33 167.33 419.05 164.72 416.42C162.1 413.79 157.88 413.79 155.27 416.42ZM181.58 415.94C178.72 418.84 178.72 423.52 181.58 426.43C184.45 429.33 189.1 429.33 191.98 426.43C194.84 423.52 194.84 418.84 191.98 415.94C189.11 413.04 184.45 413.04 181.58 415.94ZM207.57 415.36C204.38 418.58 204.38 423.79 207.57 427.01C210.76 430.23 215.92 430.23 219.12 427.01C222.31 423.79 222.31 418.58 219.12 415.36C215.92 412.15 210.76 412.15 207.57 415.36ZM234.66 415.24C231.42 418.54 231.42 423.86 234.66 427.13C237.92 430.41 243.19 430.41 246.44 427.13C249.69 423.86 249.69 418.54 246.44 415.24C243.18 411.96 237.92 411.96 234.66 415.24ZM273.09 427.13C276.33 423.86 276.33 418.54 273.09 415.24C269.84 411.96 264.56 411.96 261.31 415.24C258.06 418.54 258.06 423.86 261.31 427.13C264.56 430.41 269.83 430.4 273.09 427.13ZM299.76 415.48C296.64 412.33 291.58 412.33 288.45 415.48C285.33 418.63 285.33 423.74 288.45 426.89C291.57 430.04 296.63 430.04 299.76 426.89C302.89 423.74 302.88 418.63 299.76 415.48ZM287.89 400.28C291.33 403.73 296.9 403.73 300.33 400.28C303.76 396.81 303.76 391.18 300.33 387.72C296.9 384.27 291.33 384.27 287.89 387.72C284.46 391.18 284.46 396.8 287.89 400.28ZM287.89 372.77C291.33 376.23 296.9 376.23 300.33 372.77C303.76 369.31 303.76 363.67 300.33 360.22C296.9 356.77 291.33 356.77 287.89 360.22C284.46 363.68 284.46 369.31 287.89 372.77ZM273.47 372.83C276.94 369.34 276.94 363.66 273.47 360.15C270.01 356.66 264.38 356.66 260.91 360.15C257.44 363.66 257.44 369.31 260.91 372.83C264.38 376.33 270.01 376.33 273.47 372.83ZM205.94 359.03C201.85 363.15 201.85 369.83 205.94 373.95C210.02 378.09 216.65 378.09 220.74 373.95C224.83 369.83 224.83 363.15 220.74 359.03C216.65 354.9 210.02 354.9 205.94 359.03ZM233.15 359.03C229.07 363.15 229.07 369.83 233.15 373.95C237.24 378.09 243.87 378.09 247.95 373.95C252.04 369.83 252.04 363.15 247.95 359.03C243.87 354.9 237.24 354.9 233.15 359.03ZM179.53 359.19C175.52 363.23 175.52 369.78 179.53 373.82C183.53 377.86 190.03 377.86 194.02 373.82C198.02 369.78 198.02 363.23 194.02 359.19C190.03 355.15 183.53 355.15 179.53 359.19ZM153.17 359.62C149.41 363.43 149.41 369.59 153.17 373.38C156.94 377.18 163.04 377.18 166.8 373.38C170.57 369.57 170.57 363.42 166.8 359.62C163.05 355.82 156.95 355.82 153.17 359.62ZM126.73 360.17C123.27 363.66 123.27 369.32 126.73 372.82C130.19 376.31 135.81 376.31 139.27 372.82C142.73 369.32 142.73 363.66 139.27 360.17C135.81 356.67 130.19 356.67 126.73 360.17ZM111.99 360.67C108.8 357.46 103.64 357.46 100.45 360.67C97.27 363.89 97.27 369.09 100.45 372.31C103.64 375.53 108.8 375.53 111.99 372.31C115.18 369.09 115.17 363.89 111.99 360.67ZM113.52 332.41C109.49 328.33 102.96 328.33 98.92 332.41C94.89 336.47 94.89 343.06 98.92 347.12C102.95 351.2 109.48 351.2 113.52 347.12C117.56 343.05 117.55 336.47 113.52 332.41ZM125.34 332.02C121.1 336.29 121.1 343.21 125.34 347.49C129.57 351.77 136.43 351.77 140.65 347.49C144.88 343.22 144.88 336.3 140.65 332.02C136.43 327.76 129.57 327.76 125.34 332.02ZM152.33 332.02C148.09 336.29 148.09 343.21 152.33 347.49C156.57 351.77 163.43 351.77 167.66 347.49C171.89 343.22 171.89 336.3 167.66 332.02C163.43 327.76 156.57 327.76 152.33 332.02ZM179.12 332.02C174.89 336.29 174.89 343.21 179.12 347.49C183.35 351.77 190.21 351.77 194.44 347.49C198.68 343.22 198.68 336.3 194.44 332.02C190.2 327.76 183.35 327.76 179.12 332.02ZM205.3 331.64C200.85 336.12 200.85 343.4 205.3 347.88C209.74 352.35 216.95 352.35 221.38 347.88C225.83 343.4 225.83 336.12 221.38 331.64C216.94 327.16 209.74 327.16 205.3 331.64ZM232.91 332.04C228.69 336.31 228.69 343.21 232.91 347.48C237.13 351.74 243.97 351.74 248.2 347.48C252.42 343.2 252.42 336.29 248.2 332.04C243.97 327.79 237.13 327.79 232.91 332.04ZM274.07 346.69C277.88 342.85 277.88 336.65 274.07 332.82C270.28 328.97 264.12 328.97 260.32 332.82C256.51 336.65 256.51 342.85 260.32 346.69C264.12 350.55 270.28 350.55 274.07 346.69ZM287.92 333.52C284.5 336.97 284.5 342.57 287.92 346.01C291.34 349.47 296.88 349.47 300.3 346.01C303.72 342.56 303.72 336.97 300.3 333.52C296.89 330.06 291.34 330.06 287.92 333.52ZM300.3 305.49C296.88 302.04 291.34 302.04 287.92 305.49C284.5 308.95 284.5 314.53 287.92 317.97C291.34 321.43 296.88 321.43 300.3 317.97C303.72 314.52 303.72 308.93 300.3 305.49ZM288.1 290.91C291.42 294.28 296.8 294.28 300.11 290.91C303.43 287.58 303.43 282.16 300.11 278.79C296.8 275.46 291.42 275.46 288.1 278.79C284.79 282.14 284.79 287.58 288.1 290.91ZM288.17 252.07C284.89 255.37 284.89 260.75 288.17 264.06C291.45 267.38 296.78 267.38 300.06 264.06C303.34 260.75 303.34 255.37 300.06 252.07C296.77 248.75 291.45 248.75 288.17 252.07ZM300.06 224.7C296.78 221.39 291.45 221.39 288.17 224.7C284.89 228.02 284.89 233.39 288.17 236.7C291.45 240.01 296.78 240.01 300.06 236.7C303.34 233.39 303.34 228.02 300.06 224.7ZM261.25 236.71C264.54 240.02 269.86 240.02 273.14 236.71C276.41 233.39 276.41 228.02 273.14 224.71C269.86 221.4 264.54 221.4 261.25 224.71C257.97 228.02 257.97 233.39 261.25 236.71ZM234.49 236.82C237.84 240.22 243.27 240.22 246.62 236.82C249.97 233.45 249.97 227.97 246.62 224.58C243.27 221.21 237.84 221.21 234.49 224.58C231.14 227.96 231.14 233.45 234.49 236.82ZM206.79 237.31C210.4 240.96 216.27 240.96 219.89 237.31C223.51 233.66 223.51 227.75 219.89 224.1C216.27 220.45 210.41 220.45 206.79 224.1C203.17 227.75 203.17 233.66 206.79 237.31ZM179.7 223.57C175.79 227.5 175.79 233.9 179.7 237.85C183.6 241.78 189.94 241.78 193.85 237.85C197.75 233.9 197.75 227.5 193.85 223.57C189.94 219.63 183.61 219.63 179.7 223.57ZM167.63 238.42C171.85 234.16 171.85 227.25 167.63 223C163.41 218.73 156.57 218.73 152.35 223C148.13 227.26 148.13 234.17 152.35 238.42C156.58 242.67 163.41 242.67 167.63 238.42ZM261.02 264.3C264.43 267.76 269.97 267.76 273.38 264.3C276.79 260.85 276.79 255.27 273.38 251.82C269.97 248.37 264.43 248.37 261.02 251.82C257.6 255.28 257.6 260.85 261.02 264.3ZM234.12 264.55C237.67 268.13 243.43 268.13 246.98 264.55C250.53 260.97 250.53 255.15 246.98 251.57C243.43 247.99 237.67 247.99 234.12 251.57C230.57 255.15 230.57 260.97 234.12 264.55ZM206.26 265.2C210.17 269.14 216.5 269.14 220.41 265.2C224.32 261.26 224.32 254.87 220.41 250.92C216.5 246.98 210.17 246.98 206.26 250.92C202.36 254.87 202.36 261.25 206.26 265.2ZM178.85 250.06C174.48 254.49 174.48 261.64 178.85 266.06C183.23 270.48 190.32 270.48 194.7 266.06C199.07 261.64 199.07 254.49 194.7 250.06C190.33 245.64 183.23 245.64 178.85 250.06ZM151.68 249.66C147.09 254.3 147.09 261.82 151.68 266.46C156.27 271.1 163.72 271.1 168.31 266.46C172.91 261.82 172.91 254.3 168.31 249.66C163.72 245.03 156.27 245.03 151.68 249.66ZM124.68 249.66C120.09 254.3 120.09 261.82 124.68 266.46C129.28 271.1 136.72 271.1 141.32 266.46C145.91 261.82 145.91 254.3 141.32 249.66C136.72 245.03 129.28 245.03 124.68 249.66ZM114.95 249.24C110.13 244.38 102.31 244.38 97.48 249.24C92.65 254.11 92.65 262.01 97.48 266.88C102.31 271.75 110.13 271.75 114.95 266.88C119.77 262.01 119.77 254.11 114.95 249.24ZM114.95 221.89C110.13 217.01 102.31 217.01 97.48 221.89C92.65 226.75 92.65 234.65 97.48 239.53C102.31 244.39 110.13 244.39 114.95 239.53C119.77 234.65 119.77 226.75 114.95 221.89ZM260.58 291.54C264.23 295.23 270.16 295.23 273.82 291.54C277.48 287.84 277.48 281.87 273.82 278.18C270.16 274.48 264.23 274.48 260.58 278.18C256.92 281.87 256.92 287.84 260.58 291.54ZM233.6 291.87C237.44 295.74 243.66 295.74 247.5 291.87C251.35 288 251.35 281.71 247.5 277.84C243.66 273.97 237.44 273.97 233.6 277.84C229.76 281.71 229.76 288 233.6 291.87ZM205.68 292.58C209.91 296.86 216.77 296.86 221 292.58C225.23 288.31 225.23 281.39 221 277.12C216.77 272.84 209.91 272.84 205.68 277.12C201.44 281.39 201.44 288.32 205.68 292.58ZM194.44 292.58C198.68 288.31 198.68 281.39 194.44 277.12C190.2 272.84 183.35 272.84 179.12 277.12C174.89 281.39 174.89 288.31 179.12 292.58C183.35 296.86 190.2 296.87 194.44 292.58ZM168.04 292.96C172.49 288.48 172.49 281.2 168.04 276.72C163.6 272.24 156.39 272.24 151.94 276.72C147.5 281.2 147.5 288.48 151.94 292.96C156.39 297.46 163.6 297.46 168.04 292.96ZM124.55 276.33C119.88 281.03 119.88 288.67 124.55 293.39C129.22 298.09 136.78 298.09 141.44 293.39C146.11 288.68 146.11 281.03 141.44 276.33C136.77 271.62 129.21 271.62 124.55 276.33ZM114.67 276.33C110 271.62 102.44 271.62 97.77 276.33C93.1 281.03 93.1 288.67 97.77 293.39C102.44 298.09 110.01 298.09 114.67 293.39C119.33 288.67 119.33 281.04 114.67 276.33ZM260.51 318.47C264.2 322.21 270.19 322.21 273.88 318.47C277.57 314.75 277.57 308.71 273.88 304.98C270.19 301.26 264.21 301.26 260.51 304.98C256.81 308.71 256.81 314.75 260.51 318.47ZM233.34 319.02C237.32 323.04 243.79 323.04 247.78 319.02C251.76 314.98 251.76 308.46 247.78 304.44C243.79 300.42 237.32 300.42 233.34 304.44C229.34 308.46 229.34 314.98 233.34 319.02ZM205.54 319.59C209.85 323.94 216.83 323.94 221.14 319.59C225.44 315.25 225.44 308.21 221.14 303.87C216.83 299.53 209.85 299.53 205.54 303.87C201.23 308.21 201.23 315.25 205.54 319.59ZM178.98 303.87C174.67 308.21 174.67 315.25 178.98 319.59C183.28 323.94 190.27 323.94 194.58 319.59C198.88 315.25 198.88 308.21 194.58 303.87C190.27 299.5 183.28 299.5 178.98 303.87ZM151.74 303.4C147.18 308.01 147.18 315.46 151.74 320.05C156.3 324.67 163.69 324.67 168.25 320.05C172.8 315.46 172.8 308.01 168.25 303.4C163.69 298.8 156.3 298.8 151.74 303.4ZM124.91 303.56C120.44 308.06 120.44 315.38 124.91 319.9C129.37 324.41 136.62 324.41 141.08 319.9C145.55 315.38 145.55 308.06 141.08 303.56C136.62 299.06 129.37 299.06 124.91 303.56ZM114.15 303.74C109.78 299.32 102.68 299.32 98.3 303.74C93.92 308.15 93.92 315.31 98.3 319.73C102.68 324.15 109.78 324.15 114.15 319.73C118.52 315.31 118.52 308.15 114.15 303.74ZM273.41 400.28C276.85 396.81 276.85 391.18 273.41 387.72C269.98 384.27 264.41 384.27 260.98 387.72C257.54 391.18 257.54 396.81 260.98 400.28C264.41 403.73 269.98 403.73 273.41 400.28ZM233.83 387.22C230.13 390.96 230.13 397.02 233.83 400.78C237.54 404.52 243.56 404.52 247.26 400.78C250.96 397.02 250.96 390.96 247.26 387.22C243.56 383.47 237.55 383.47 233.83 387.22ZM206.62 387.22C202.92 390.96 202.92 397.02 206.62 400.78C210.34 404.52 216.35 404.52 220.06 400.78C223.76 397.02 223.76 390.96 220.06 387.22C216.35 383.47 210.34 383.47 206.62 387.22ZM180.34 387.49C176.78 391.07 176.78 396.9 180.34 400.5C183.89 404.08 189.67 404.08 193.23 400.5C196.78 396.9 196.78 391.07 193.23 387.49C189.67 383.88 183.88 383.88 180.34 387.49ZM154 387.94C150.69 391.28 150.69 396.69 154 400.04C157.31 403.38 162.68 403.38 165.98 400.04C169.3 396.69 169.3 391.28 165.98 387.94C162.68 384.6 157.31 384.6 154 387.94ZM127.6 388.53C124.61 391.55 124.61 396.42 127.6 399.43C130.58 402.44 135.41 402.45 138.39 399.43C141.37 396.4 141.37 391.53 138.39 388.53C135.41 385.54 130.58 385.54 127.6 388.53ZM111.07 389.09C108.39 386.38 104.04 386.38 101.36 389.09C98.68 391.79 98.68 396.18 101.36 398.89C104.04 401.59 108.39 401.59 111.07 398.89C113.75 396.18 113.75 391.79 111.07 389.09ZM125.22 196.56C120.93 200.89 120.93 207.93 125.22 212.25C129.52 216.58 136.48 216.58 140.78 212.25C145.07 207.93 145.07 200.89 140.78 196.56C136.48 192.22 129.52 192.22 125.22 196.56ZM167.54 212.03C171.71 207.81 171.71 201 167.54 196.79C163.37 192.58 156.61 192.58 152.45 196.79C148.29 201 148.29 207.81 152.45 212.03C156.61 216.21 163.37 216.21 167.54 212.03ZM193.95 197.17C189.99 193.17 183.57 193.17 179.61 197.17C175.66 201.16 175.66 207.63 179.61 211.64C183.57 215.62 189.99 215.62 193.95 211.64C197.9 207.63 197.9 201.16 193.95 197.17ZM206.88 210.92C210.44 214.53 216.24 214.53 219.8 210.92C223.37 207.32 223.37 201.48 219.8 197.88C216.24 194.27 210.44 194.27 206.88 197.88C203.31 201.48 203.31 207.32 206.88 210.92ZM234.54 210.47C237.86 213.82 243.24 213.82 246.56 210.47C249.88 207.12 249.88 201.69 246.56 198.33C243.24 194.98 237.85 194.98 234.54 198.33C231.22 201.69 231.22 207.13 234.54 210.47ZM261.5 210.15C264.64 213.33 269.75 213.33 272.9 210.15C276.05 206.98 276.05 201.82 272.9 198.64C269.75 195.47 264.64 195.47 261.5 198.64C258.35 201.83 258.35 206.98 261.5 210.15ZM300.1 198.35C296.79 195.02 291.43 195.02 288.12 198.35C284.82 201.69 284.82 207.1 288.12 210.43C291.43 213.78 296.79 213.78 300.1 210.43C303.41 207.11 303.41 201.69 300.1 198.35ZM139.71 129.58C143.4 125.85 143.4 119.79 139.71 116.05C136 112.31 130 112.31 126.3 116.05C122.6 119.79 122.6 125.85 126.3 129.58C130 133.32 136 133.32 139.71 129.58ZM166.83 115.9C163.05 112.1 156.93 112.1 153.15 115.9C149.38 119.72 149.38 125.91 153.15 129.71C156.94 133.53 163.06 133.53 166.83 129.71C170.62 125.91 170.62 119.73 166.83 115.9ZM193.89 115.64C189.96 111.67 183.59 111.67 179.66 115.64C175.73 119.6 175.73 126.03 179.66 129.99C183.59 133.96 189.97 133.96 193.89 129.99C197.82 126.03 197.82 119.6 193.89 115.64ZM220.45 115.64C216.52 111.67 210.15 111.67 206.22 115.64C202.29 119.6 202.29 126.03 206.22 129.99C210.15 133.96 216.52 133.96 220.45 129.99C224.39 126.03 224.39 119.6 220.45 115.64ZM247.74 115.56C243.77 111.56 237.34 111.56 233.37 115.56C229.4 119.57 229.4 126.06 233.37 130.06C237.33 134.07 243.77 134.07 247.74 130.06C251.71 126.06 251.71 119.57 247.74 115.56ZM273.96 115.99C270.22 112.21 264.17 112.21 260.43 115.99C256.7 119.77 256.7 125.88 260.43 129.64C264.17 133.41 270.22 133.41 273.96 129.64C277.69 125.87 277.69 119.76 273.96 115.99ZM300.11 116.77C296.8 113.42 291.43 113.42 288.12 116.77C284.82 120.11 284.82 125.53 288.12 128.86C291.43 132.2 296.8 132.2 300.11 128.86C303.41 125.53 303.41 120.11 300.11 116.77ZM125.87 88.19C121.94 92.16 121.94 98.59 125.87 102.56C129.8 106.53 136.19 106.53 140.12 102.56C144.05 98.59 144.05 92.16 140.12 88.19C136.19 84.22 129.8 84.22 125.87 88.19ZM167.12 102.56C171.04 98.59 171.04 92.16 167.12 88.19C163.19 84.22 156.8 84.22 152.87 88.19C148.94 92.16 148.94 98.59 152.87 102.56C156.81 106.53 163.19 106.53 167.12 102.56ZM194.33 103C198.49 98.8 198.49 91.98 194.33 87.76C190.16 83.55 183.4 83.55 179.23 87.76C175.06 91.98 175.06 98.79 179.23 103C183.41 107.22 190.15 107.21 194.33 103ZM205.19 87.15C200.68 91.7 200.68 99.07 205.19 103.62C209.69 108.15 216.99 108.15 221.49 103.62C225.99 99.07 225.99 91.7 221.49 87.15C216.99 82.61 209.69 82.61 205.19 87.15ZM232.7 87.46C228.36 91.84 228.36 98.92 232.7 103.3C237.03 107.68 244.06 107.68 248.4 103.3C252.73 98.93 252.73 91.84 248.4 87.46C244.06 83.08 237.04 83.08 232.7 87.46ZM274.74 87.77C270.57 83.56 263.82 83.56 259.65 87.77C255.49 91.97 255.49 98.8 259.65 103C263.82 107.21 270.57 107.21 274.74 103C278.9 98.8 278.9 91.98 274.74 87.77ZM300.32 89.11C296.89 85.64 291.33 85.64 287.9 89.11C284.47 92.57 284.47 98.18 287.9 101.65C291.33 105.1 296.89 105.1 300.32 101.65C303.75 98.19 303.75 92.57 300.32 89.11Z" />
	</g>
</svg>