<svg version="1.2" xmlns="http://www.w3.org/2000/svg" viewBox="0 0 2127 488" width="2127" height="488">
	<title>Organogenesis_Logo_Corporate-svg</title>
	<style>
		.s0 { fill: #ffffff } 
	</style>
	<g id="#0080a5ff">
		<path id="Layer" fill-rule="evenodd" class="s0" d="m93.6 1.8c23.6-3.8 48.5-0.9 70.1 9.4 22.9 10.7 41.6 29.9 51.9 53 11.2 24.8 13.1 53.6 6.1 79.9-6.2 23.6-20.5 45-40.2 59.5-40 29.8-100 29.2-139.3-1.9-21.1-16.4-35.4-41.2-39.8-67.5-5.1-29.2 0.2-60.5 16.8-85.2 16.6-25.5 44.5-42.6 74.4-47.2zm7.8 35.9c-13.8 2.7-26.1 11.1-34.6 22.2-11.6 15-16.8 34.3-16.6 53.1 0 18 4.9 36.4 15.6 51.1 7.8 10.9 19.2 19.2 32.2 22.8 16.1 4.3 34.1 1.5 47.7-8.2 16-11.2 25.7-29.7 28.9-48.6 3.2-18.8 1.5-38.8-6.5-56.2-5.9-12.8-15.5-24.2-28.1-30.8-11.7-6.3-25.6-8.1-38.6-5.4zm1830-35.2c8.8-2.1 19.2-1.4 26.5 4.5 9.6 7.8 9 24.7-1.2 31.8-7 4.9-16.4 5.6-24.6 3.8-6.9-1.5-13.3-6.4-15.4-13.3-1.8-6.1-1.4-13 2.2-18.3 2.9-4.3 7.5-7.2 12.5-8.5zm-1618.4 65.4c13.6-8.4 30.4-8.9 45.8-6.9-0.1 12.7 0 25.3 0 38-6.9-3-14.3-5.1-21.8-4-18.5 2-33.5 15.8-42.4 31.4-1.6 31.1-0.6 62.3 1.8 93.4-15.4-2.3-31.1-2.4-46.5-0.1 3.6-35.5 2.8-71.2 1.8-106.8-0.6-16.2-0.7-32.5-2.4-48.7 6.5 1.1 13.1 2 19.8 2 6.7 0 13.3-1 20-2 1.3 9.6 1.5 19.3 1.7 29 5.6-9.7 12.5-19.3 22.2-25.3zm110.9-5.3c19.6-4.2 40.1-3 59.4 2.3 9.5 0.9 19.2 0.1 28.7 0.1 7.1-0.3 14.2-0.2 21.3-0.8 0 8.1-0.1 16.1 0 24.2-8.3-0.6-16.5-0.6-24.8-0.7 4.4 6.1 8.9 12.7 10.2 20.2 2.3 12.7-0.4 26.3-7.9 36.9-8.2 11.7-21.3 19.2-34.9 22.9-14.7 3.8-30.4 4.4-45.3 1.4-3.5 2.7-7.8 5.9-7.6 10.9-0.6 4.6 2.8 8.6 7 10.1 8.8 3.8 18.6 3.8 28.1 5 17.4 2.2 35.6 3.9 51.2 12.6 9.2 5.1 16.1 14.1 18.5 24.3 3.1 13.6 0.3 28.5-8.4 39.5-8.3 10.7-20.8 17.3-33.5 21.1-16.8 4.9-34.6 5.9-52 4.7-17.5-1.3-35.3-5.3-50-15.2-10.7-7.1-19-18.2-20.9-31.1-1.4-10.3-0.4-21.6 5.5-30.5 6-8.9 15.8-14.4 25.6-18.2-5.5-6-7.9-14.4-6-22.3 1.6-8.6 9-14.3 16.1-18.4-11.3-6.1-21.7-15.2-26-27.5-5.6-16.1-3.6-35.3 7-48.9 9.4-12.2 23.9-19.3 38.7-22.6zm15.7 25.2c-7.3 1.4-14.3 5.1-18.7 11.1-7.9 10.2-6.9 25.9 1.9 35.3 6.1 6.5 15.3 9.5 24.2 9.3 9.1 0.2 18.6-2.8 24.9-9.7 9.9-10.6 8.9-29.3-2-38.8-8.1-7.3-19.9-9-30.3-7.2zm-40 143.8c-3.7 8-1.8 18.2 4.5 24.4 7.3 7.3 17.8 10.3 27.8 11.7 12.6 1.5 25.7 1.2 38-2.1 6.7-1.9 13.7-5.1 17.3-11.4 3.4-5.9 2.9-15.2-3.5-19-5.4-3.2-11.7-4.3-17.8-5.4-17.3-3-35.2-3.9-52-9.4-5.7 2.3-11.5 5.5-14.3 11.2zm160.4-161.3c20.7-9.1 43.8-11.8 66.1-9.4 14.4 1.8 29.3 5.7 40.5 15.4 8.5 7.4 12.7 18.6 14.1 29.5 1.5 11.3 0.9 22.8 0.6 34.2-0.4 26.6-1.6 53.7 5.2 79.7-13.4-1.7-27.1-2.4-40.5 0-2.5-8.2-2.9-16.8-3.1-25.3-7.3 12.7-19.2 22.8-33.4 27-15.4 4.4-32.8 4-47.1-3.8-11.1-6-19-17.4-21.2-29.8-2.7-14.2 0.1-30 9.4-41.2 8.1-9.5 20.2-14.1 32-17.2 11.9-3.2 24-5.3 36-8.1 7.1-1.7 13.8-4.6 20.5-7.6-0.5-7.9-2.6-16.7-9.6-21.3-9.4-5.9-21-5.3-31.7-5-13.8 0.8-26.4 7-37.8 14.5q0-15.8 0-31.6zm48.8 78.5c-6.7 2.1-13.8 4-19.3 8.6-9.2 7.4-8.1 23.2 0.9 30.3 5.7 4.7 13.7 5.4 20.7 3.9 13.6-3 24.3-14.6 27.3-28 2.5-8.9 2.1-18.1 2.1-27.2-9.9 5.6-21 8.8-31.7 12.4zm181.4-86.7c17.1-4.7 37-2.8 50.8 8.9 8.6 7.1 12.9 17.8 14.7 28.5 1.3 8.1 0.9 16.3 1.2 24.5 0.5 31.9-0.9 63.9 2 95.7-10.3-1-20.7-2.1-31-1.3q-8 0.5-15.9 1.4c1.2-12.9 2.3-25.8 2.3-38.8q-0.1-22.5 0-45c0-8.6-0.2-17.4-2.6-25.8-1.5-5.4-4.7-10.8-10-13.1-7.6-3.1-16.3-1.5-23.5 2.1-5.6 2.8-9.5 7.9-13.8 12.2-1.9 2.1-4.5 4.3-4.1 7.5-0.6 33.6-0.3 67.3 1.3 101-15.7-2.5-31.7-2-47.4-0.1 2.6-18.8 1.9-37.9 2.6-56.8-0.2-8.3 0.3-16.7 0.2-25 1.5-24.7-2-49.4-1.7-74.1 7.5 0.9 15.1 2.1 22.7 1.9 7 0.3 13.8-1.1 20.7-1.9 0.2 7.9-0.4 15.9-0.2 23.8 8.1-11 18.2-21.7 31.7-25.6zm159.3-1.3c19.9-2.3 40.9 1.2 58.1 11.7 12.7 7.6 23.1 19 29.5 32.4 7.4 15.2 9.5 32.6 7.5 49.3-2.3 17.2-10 33.8-22.4 46-12.3 12.5-29 20.2-46.2 22.8-17.7 2.7-36.2 0.8-52.6-6.5-17.4-7.8-31.8-21.9-39.6-39.2-12.4-28-9.1-63.1 10.4-87.1 13.4-16.8 34-27.1 55.3-29.4zm4 31.8c-12.6 2.1-23.1 11.6-27.7 23.4-6.1 15.3-6.3 32.9-1.3 48.6 3.5 11.1 11.6 21.2 22.7 25.3 11.6 4.2 25.5 3.2 35.8-4 7-4.9 11.8-12.4 14.5-20.3 3.8-11.1 4.2-23.1 2.9-34.7-1.7-12-6.5-24.3-16.5-31.8-8.5-6.6-20-8.3-30.4-6.5zm150.1-25c14.2-6.2 30-8 45.4-7.4 9 0.2 17.9 1.9 26.7 4.1 6 1.7 12.2 0.7 18.4 1 11.4-0.4 22.8-0.3 34.2-1.1 0 8.1-0.1 16.1 0 24.2-8.2-0.5-16.5-0.6-24.7-0.6 6 7.8 11.2 17 10.9 27.2 0.8 14.9-5.8 29.8-17.2 39.3-15.7 13.3-37.2 17.4-57.3 16.6-4.9 0-9.6-1.3-14.4-1.6-3.7 2.5-7.6 5.9-7.6 10.7-0.4 4.5 2.8 8.5 6.9 10.1 8.3 3.5 17.4 3.7 26.3 4.8 13.1 1.6 26.4 2.9 39.1 6.8 10 3.3 20.1 8 26.4 16.8 7.5 10 8.8 23.5 6.2 35.5-2.7 12-10.7 22.3-20.9 29-15.5 10.2-34.3 13.7-52.6 14.6-18.7 0.8-37.9-0.9-55.5-7.7-11.4-4.5-22.2-11.4-29.1-21.8-6.8-9.9-8.7-22.6-6.5-34.2 1.4-7.8 5.4-15 11.3-20.2 5.6-5.1 12.5-8.6 19.6-11.4-2.6-3.4-5.4-7-6.1-11.3-0.9-6.1-0.6-12.7 2.9-18 3.3-4.9 8.3-8.4 13.3-11.4-11.3-6.2-21.9-15.3-26.2-27.8-4.6-13.6-3.9-29.2 2.9-42 6-11.1 16.2-19.3 27.6-24.2zm32 20.1c-7.4 1.2-14.5 4.8-19.2 10.7-8.7 10.7-7.3 28 3 37.2 6.3 5.8 15.1 8.2 23.6 7.9 9.2 0 18.8-3.4 24.8-10.6 9.4-11.2 7.6-29.8-3.9-38.8-7.9-6.4-18.6-7.8-28.3-6.4zm-28.3 133.4c-6.1 2.6-12.3 7.1-13.8 13.9-2.3 8.5 1.2 18.1 8.2 23.3 9.4 7.3 21.7 9.4 33.3 10.1 11.5 0.4 23.3-0.2 34.2-4.1 6.2-2.4 12.6-6.6 14.6-13.4 1.2-5.1 0.7-11.5-3.8-14.8-6.2-4.3-13.9-5.3-21.1-6.7-15.7-2.6-31.8-3.6-47.1-8.2-1.5-0.5-3.1-1-4.5-0.1zm170.1-150.6c17-9.7 37.5-12.2 56.7-9.2 17.4 2.7 34 11.9 44.3 26.3 11.9 16.2 15.3 37.2 13.5 56.9-36.6 0-73.1 0-109.7 0 0.5 8.8 1.4 17.9 5.4 26 4 7.7 11.2 13.2 18.8 17.1 9.1 4.8 19.4 6.4 29.6 6.4 10.4-0.1 21-1.5 30.8-5.3 6.8-2.5 13.1-6.3 19.2-10.1 0 11 0.1 21.9-0.1 32.9-20.5 9.6-43.4 13.8-66 12.5-18.3-0.9-36.8-6.2-51.5-17.3-14-10.6-23.6-26.4-27.1-43.5-3.6-17.7-2.8-36.4 3.3-53.4 5.9-16.4 17.5-30.8 32.8-39.3zm20.1 26c-7.3 5.9-11.3 14.7-14 23.5q35 0 70.1 0c-1.2-8-3.9-16.1-9.8-21.8-5.4-5.6-13.2-8.3-20.8-8.7-8.9-0.6-18.4 1.2-25.5 7zm180.8-28.2c6.9-4.9 15.2-7.5 23.6-8.2 12.2-1.3 25.1 0.8 35.5 7.6 5.7 3.8 10.6 8.9 13.8 15 4.3 8.4 6.1 17.9 6.3 27.2 0.8 27.7-0.3 55.5 0.7 83.2-0.2 8.9 0.8 17.8 1.6 26.7-15.6-2.2-31.3-2-46.9 0 0.9-12.6 2.4-25.2 2.1-37.8 0.5-15.3 0.2-30.7 0.3-46-0.4-9.5-0.2-19.4-3.6-28.5-1.9-5.1-5.8-9.7-11.2-11.1-11.1-3-23.5 1.7-30.8 10.4-2.7 3.2-6.4 5.8-8.3 9.7-0.8 7.8-0.2 15.7-0.4 23.5-0.1 26.6 0 53.2 1.5 79.8-15.7-2.4-31.7-1.9-47.5 0 1.9-13.2 2.1-26.5 2.2-39.8 0.4-15 0.5-30 0.8-45 1.1-23.7-2-47.4-2-71.1 14.4 2.3 29.1 2.7 43.5 0 0 8 0 15.9-0.3 23.9 5.5-7.3 11.5-14.4 19.1-19.5zm151.9-0.9c16.8-7.5 36-9 53.9-5.5 17.4 3.5 33.6 13.6 43.1 28.8 10.3 15.8 13 35.3 11.5 53.8-36.6 0-73.2 0-109.8 0 0.4 8.4 1.4 17.1 4.9 24.8 3.6 8 10.7 13.6 18.2 17.7 9.1 5.1 19.6 6.9 30 7 10.9 0 22-1.5 32.2-5.6 6.5-2.5 12.6-6.1 18.5-9.8q0.1 16.4 0 32.8c-21 10-44.6 14.1-67.8 12.5-18.6-1.2-37.4-6.9-51.9-18.9-14-11.4-23-28.2-25.8-45.9-3.2-20.5-0.9-42.4 9.4-60.7 7.4-13.6 19.4-24.7 33.6-31zm14.3 28.9c-7.5 5.9-11.6 14.8-14.3 23.7 23.3 0 46.7 0 70.1 0-1-6.5-2.9-13.1-6.9-18.5-4.7-6.6-12.4-10.7-20.5-11.7-9.8-1.3-20.5 0.2-28.4 6.5zm164.3-35c25.9-3.4 52.5 0.8 76.7 10.3 0 10.4 0 20.7 0 31-18.1-11-39.5-16.5-60.6-15.2-6.2 0.5-12.6 2-17.5 6.1-5 4.2-6.7 12.4-2.7 17.9 3.7 4.9 9.9 6.8 15.5 8.4 10.7 2.6 21.5 4.7 32.2 7.6 8.6 2.4 17.5 5 24.8 10.4 6.1 4.3 11 10.4 13.5 17.5 5.7 16 2 35.2-9.8 47.6-11.5 12.5-28.3 18.5-44.8 20.5-25.7 2.8-52-1.7-75.3-12.6q-0.1-14.4 0-28.7c18.9 9.2 40.2 13.5 61.2 13.1 8.7-0.4 18.3-2.1 24.6-8.7 5.3-5.2 6.1-14.6 0.9-20.1-5.1-5.3-12.6-7.3-19.6-8.9-14.6-3.2-29.7-5-43.5-11-7-3.1-13.7-7.3-18.2-13.6-11.5-16.1-9.8-40.4 4.1-54.5 10.1-10.3 24.5-15.2 38.5-17.1zm196.9 15.4c12.2-11.2 29.1-15.2 45.2-16.3 23.2-1.6 46.5 2.7 68.1 11.1 0 10.4 0 20.7 0 31.1-15.3-9.3-33-14.7-50.9-15.3-9-0.3-18.8 0-26.3 5.5-6.3 4.5-7.9 14.9-2 20.4 5.3 4.7 12.6 6.3 19.3 7.9 12.8 2.9 25.7 5.4 38.1 9.8 9.3 3.3 18.2 8.8 23.6 17.3 4.1 6.4 5.9 14 6.2 21.5v1.8c-0.2 14.1-6.8 27.8-17.9 36.5-16.4 13.3-38.5 16.9-59.1 16.1-19.2-0.5-38.1-5.2-55.5-13.3 0-9.5 0-19.1 0-28.6 19.1 9.1 40.4 13.5 61.5 13 8.2-0.5 17.1-2.1 23.4-7.8 5.4-4.8 7-13.6 2.8-19.6-3.6-4.9-9.5-7.2-15.1-8.9-16.4-4.2-33.7-5.6-49.4-12.6-6.7-3-13.4-7.1-17.7-13.3-12.3-16.7-9.9-42.5 5.7-56.3zm-89-12.5c15.5 2.4 31.3 2.9 46.8 0-1.9 25.9-2.3 51.9-2.3 77.8 0 25.9 0.4 51.9 2.3 77.8-15.5-2.5-31.3-1.9-46.8-0.1 2.4-26.8 2.5-53.8 2.5-80.7 0-25-0.3-49.9-2.5-74.8z"/>
		<path id="Layer" class="s0" d="m168.1 302.6c40.2-9.2 82.2-8.6 122.6-1.4 48.3 8.6 94.6 26.1 138.3 47.9 37.8 17.9 77.6 32.3 118.9 39.5 42.6 7.6 87.4 7 128.8-6.7 38.1-12.5 72.6-36.2 97.8-67.5q5.7-7 10.5-14.7c10.3 5.8 20.6 11.5 30.9 17.4-9 14.7-20.5 27.9-32.8 40-27.6 26.8-61.5 47.2-98.1 58.9-40.4 13.1-83.8 15.5-125.8 10.2-44.1-5.5-87-19.1-127.7-36.9-16.8-7.3-33-15.9-49.9-23.1-26.3-11.3-53.5-20.8-81.5-27.1-36.7-8.3-75-11.2-112.2-5-37.2 6-72.9 21.7-101.9 45.8-15.5 12.9-29.4 27.8-40 45-10.3-5.7-20.6-11.6-30.9-17.4 12.3-19.8 28.5-37.1 46.3-52.1 30.7-25.8 67.6-44 106.7-52.8z"/>
	</g>
	<g id="#65676cff">
		<path id="Layer" fill-rule="evenodd" class="s0" d="m1501.5 388q7.5 0 15 0 0 6.6 0 13.3-7.5-0.1-15-0.1 0-6.6 0-13.2zm420.3-0.5q6.9 0 14 0c-0.1 27.4 0 54.8-0.1 82.3q-7 0-14-0.1 0-41.1 0-82.2zm29.5 0.5q7.4 0 14.8 0 0 6.6 0 13.3-7.4 0-14.8 0 0-6.7 0-13.3zm-975.5 2.8q29.4-0.1 58.8 0 0 6.3 0 12.7-22.2 0-44.5 0 0 10.1 0 20.3 19.7 0 39.5 0 0 6.2 0 12.5-19.8 0-39.5 0 0 10.4 0 21 22.5 0 45 0 0 6.2 0 12.5-29.6 0-59.3 0 0-39.5 0-79zm731.8 0q7 0 14 0c0 10.9 0 21.8 0 32.7q18.6 0 37.2 0c0.1-10.9 0-21.8 0.1-32.7q7.1-0.1 14.2 0 0 39.5 0 79-7.1 0-14.2 0-0.1-16.7 0-33.3-18.7 0-37.3 0 0 16.6 0 33.2-7 0.1-14 0 0-39.5 0-79zm-645.3 28c4.1-5.6 10.5-10.1 17.8-9.8 7.4-0.5 14.6 3.7 18.2 10.1 3.6-4.7 8.7-8.6 14.7-9.6 6.4-1 13.7-0.5 18.9 3.8 5.2 4.3 7.2 11.3 7.2 17.8q0 19.4 0 38.8-6.9 0-13.8 0 0-15.9 0.1-31.8c-0.1-4.7-0.4-9.9-3.9-13.4-4.6-4.4-12.9-4.1-17.1 0.7-2.7 2.8-3.6 6.9-3.6 10.7 0.1 11.2 0 22.5 0 33.8q-7 0-14 0 0-16.9 0.1-33.8c0-4.2-0.9-8.8-4.2-11.7-4.9-4.4-13.6-3.5-17.4 1.9-2.3 3.1-3 7.1-3 10.8 0.1 10.9 0 21.8 0.1 32.7q-6.9 0.1-13.8 0 0-29.8 0-59.7 6.9 0 13.7 0 0.1 4.4 0 8.7zm105.8 0.9c4.2-5.7 10.6-10.3 18-10.6 7.7-0.7 15.8 2.2 21.2 7.8 6.6 6.5 9.2 16.2 8.6 25.2-0.3 9.4-4.5 19.1-12.4 24.4-8.7 6-21.3 6.5-29.9 0-2.1-1.6-3.8-3.6-5.5-5.5 0 8.9 0 17.9 0 26.9q-6.9 0-13.8 0 0-38.9 0-77.8 6.9 0 13.8 0 0 4.8 0 9.6zm12.4 2c-6.4 1.8-11.2 7.8-12.3 14.3-1.7 8.1 1.9 17.7 9.6 21.3 6.9 3.7 16.1 1.3 20.5-5.1 5.1-7.4 4.9-18.4-0.9-25.4-4-4.8-10.9-6.9-16.9-5.1zm70.9-12.3c9.9-1.5 20.7 1.2 28 8.3 11.3 10.7 12.4 30.1 2.3 42-8.3 10.5-23.3 14.1-35.8 9.8-10.2-3.2-18.2-12.3-20.3-22.8-1.2-6.6-0.6-13.7 2.3-19.8 4.3-9.3 13.4-16 23.5-17.5zm1.1 12.2c-4.1 0.9-7.7 3.5-10.2 6.9-5.5 8-4.3 20 3.1 26.3 6.4 5.7 17 5.6 23.3-0.1 7.1-6.3 8-18.1 2.6-25.8-3.9-6-11.8-9.1-18.8-7.3zm146.1-6c11.2-9.7 30.5-8.9 39.9 2.9 6.1 7.4 7.7 17.3 7.1 26.6-14.7 0-29.3 0-43.9 0 1.2 6.2 5.2 12.2 11.6 13.9 7.8 2.6 16.1-0.8 21.7-6.3q4 3.7 8.1 7.3c-10.4 13.4-32.2 15.1-44.9 4-14.1-12-13.6-36.5 0.4-48.4zm8.2 9.2c-3 2.9-4.4 7-5.1 11 10.1 0 20.2 0.1 30.4 0-0.9-4.8-2.7-10-6.9-12.9-5.5-3.9-13.9-3.2-18.4 1.9zm64.8-1.7c3.3-8.5 11.7-14.8 21-14.1q0 7.4 0 14.8c-6.2-0.3-12.9 2-16.6 7.3-4.4 6-4.6 13.8-4.4 21q0 8.9 0 17.8-6.9-0.1-13.7-0.1-0.1-29.8-0.1-59.7 6.9 0 13.8 0c0 4.3 0 8.6 0 13zm74-4.2c3.9-5.3 9.7-9.7 16.5-9.8 7.3-0.7 15.5 1.9 19.5 8.4 4.5 6.7 3.7 15 3.7 22.6q0 14.9 0 29.8-7-0.1-14-0.1 0-17.3 0-34.6c0.1-4.7-1.8-9.8-6.1-12.1-4.6-2.4-10.6-2-14.7 1.3-3.4 2.8-4.9 7.3-4.9 11.7q0 16.9 0 33.8-6.9 0-13.8 0 0-29.9 0-59.8 6.9 0 13.8 0 0 4.4 0 8.8zm59.2-2.2c6.6-6.8 16.8-9.1 25.9-7 5.6 1.2 10.1 4.9 13.9 9q0-4.3 0-8.6 7 0 14 0 0 23 0 46c0 8-1.2 16.7-6.6 22.9-5.4 6.3-13.9 8.5-21.8 9.1h-7.1c-8.2-0.6-16.3-2.9-23.4-7q2.6-5.3 5.1-10.6c6.1 3.6 13 6.2 20.2 6.4 5.8 0.1 12.2-1.2 16-5.9 3.9-4.5 3.8-10.8 4-16.5-2.4 2.5-4.6 5.1-7.5 6.9-6.3 4.1-14.3 4.6-21.3 2.7-8.9-2.4-16.2-9.8-18.4-18.8-2.5-9.8-0.6-21.3 7-28.6zm16.8 5c-9.6 2.7-13.7 15.1-8.7 23.4 4.6 8.5 16.7 10.6 24.5 5.4 7.2-4.1 9.5-14.2 5.5-21.2-4-7.3-13.6-10.3-21.3-7.6zm175.7-5.5c10.8-10.1 30.3-9.7 40 1.7 6.3 7.4 8.4 17.7 7.5 27.2-14.6 0-29.2-0.1-43.7 0.1 1 5.2 3.9 10.5 9 12.8 8.1 4.1 18.1 1 24.1-5.3q4.2 3.6 8.3 7.3c-10.4 13.2-31.7 15-44.6 4.4-14.2-11.7-14.2-36-0.6-48.2zm12.1 6c-5.1 2.7-7.5 8.3-8.5 13.6q15.2 0.1 30.4 0c-0.6-3.8-1.7-7.7-4.3-10.6-4.2-5.1-12.1-6.3-17.6-3zm48.4-7.9c9.7-4.5 20.8-6.1 31.3-4 5.5 1.1 10.7 4.2 13.7 9 2.9 4.4 3.8 9.7 3.8 14.9 0 11.8 0 23.8 0 35.7q-6.8 0-13.5 0c0-2.4 0-4.8 0-7.1-8 9.5-23.5 11.1-33.6 4-9.9-7.1-9-24.6 2-30.1 9.8-5 21.5-4.1 31.7-1.2 0.5-5.1-1.9-10.8-7-12.7-8.1-2.8-17-0.7-24.7 2.4-1.2-3.6-2.5-7.2-3.7-10.9zm13.9 29.4c-4.7 1.9-6.9 7.9-4.5 12.3 2.2 3.7 6.8 5.1 10.9 4.9 5.3 0.1 11-2.2 13.8-7 1.9-2.8 1.4-6.4 1.5-9.6-7-2.1-14.8-3.5-21.7-0.6zm123.4-24.8c3.9-5.4 10-9.8 16.9-9.8 7.1-0.7 14.8 1.9 18.9 8.1 3.9 5.4 4.2 12.4 4 18.8-0.1 11.3 0 22.6 0 33.9q-6.9 0-13.8 0 0-16.4 0-32.8c0-4.3-0.7-9-3.8-12.2-5.2-4.9-14.7-4.3-19.1 1.4-2.6 3.3-3.1 7.7-3.1 11.8q0 15.9 0 31.8-6.9 0-13.7 0-0.1-29.9-0.1-59.8 6.9 0 13.8 0 0 4.4 0 8.8zm60.9-3.8c6.3-5.3 15-7.1 23.1-5.6 5.9 1 11.1 4.6 15 9.1q0-4.2 0-8.5 7 0 14 0c0 14.7 0 29.4 0 44.1 0.2 8.5-0.6 17.8-6.3 24.6-5.5 6.5-14.3 8.8-22.4 9.3h-6.6c-8.3-0.5-16.5-2.9-23.6-7.1q2.5-5.2 5.2-10.5c6.3 3.7 13.3 6.3 20.6 6.4 5.8 0.1 12.1-1.4 15.8-6.2 3.6-4.5 3.6-10.6 3.6-16.1-3.2 3.8-7 7.3-11.7 9-9.1 3.3-19.9 1.4-27.1-4.9-12.6-10.9-12.4-33 0.4-43.6zm15.4 6.5c-6.2 1.9-10.8 7.8-11 14.3-0.8 7.9 5.1 15.7 12.9 17 9.8 2.5 21.5-5.1 21.1-15.8 0.6-11.5-12.7-19.3-23-15.5zm-778.4-11.5q7.1 0 14.3 0c3.9 13.4 7.8 26.9 11.8 40.2 4.5-13.3 8.6-26.8 13-40.2q6 0 12 0c4.4 13.5 8.6 26.9 13 40.4 4.1-13.5 8-27 12.1-40.4q7 0 14 0c-6.4 20.1-13 40.1-19.5 60.2-4.2 0.1-8.4 0-12.6 0.1-4.4-13.5-8.7-26.9-13.1-40.4-4.4 13.5-8.9 26.9-13.3 40.4-4.1-0.1-8.3 0-12.4-0.1-6.4-20.1-13-40.1-19.3-60.2zm209.1 0q7 0 14 0 0 29.9 0 59.7-7 0-14 0.1 0-29.9 0-59.8zm449.8 0q6.8 0 13.7 0 0 29.9 0 59.7-6.9 0.1-13.8 0 0-29.8 0-59.7z"/>
	</g>
</svg>