<svg version="1.2" xmlns="http://www.w3.org/2000/svg" viewBox="0 0 1540 1489" width="1540" height="1489">
	<title>9d05a0c9-1415-4b96-8ab5-d204c0d9f45a_medium-svg</title>
	<style>
		.s0 { fill: #ffffff } 
	</style>
	<g id="#023b70ff">
		<path id="Layer" fill-rule="evenodd" class="s0" d="m801.4 69.9c9.1-22.9 15.4-46.8 24.9-69.5 8.4 23.4 16.3 47 24.6 70.5 25.2 3.5 50.6 1.1 75.9 2.8-19.6 15.7-39.7 30.7-59.8 45.7 6.8 24.4 14.5 48.5 21.9 72.7-21.8-13.1-41.7-29.1-63.2-42.7-20.6 14.4-40.9 29.3-62.1 42.8 6.3-24.6 16.4-48.3 20.7-73.3-19.5-15.2-39.8-29.1-58.5-45.2 20.3-1 40.8-0.6 61.2-1.1 4.8-0.4 10-0.6 14.4-2.7zm-275.3-14.9c10.1 22.9 17.2 47 25.2 70.7 24.9 1.6 50.1-1.5 74.7 2.6-17.8 14.9-37.1 28.1-55.3 42.4-2.9 1.7-2 5.3-1.6 8 5.4 22.2 14.6 43.5 18.3 66.1-17-10.6-33.1-22.7-49.5-34.2-4.7-2.8-10.3-8.8-15.9-4.4-19.7 12.8-38.2 27.5-58.3 39.8 6.2-19.3 11.5-38.8 17.8-58 1.3-4.9 3.6-9.7 3.6-14.8-18.6-16.4-40.9-28.5-58.1-46.3 24.8-1.1 49.6-0.4 74.3-1.2 8.2-23.6 16-47.3 24.8-70.7zm583 137.9c9.2-23.5 15.7-48 25.9-71.1 9 23.5 16.1 47.8 25.4 71.2 25.2 0.1 50.4 0.3 75.6 0.9-18.7 15.4-38.5 29.4-57.7 44.2-2.8 1.8-1.3 5.8-1 8.4 6.3 22.1 13.7 43.9 19.6 66.1-15.4-9.1-29.5-20.2-44.3-30.2-5.7-3.7-11-8.7-17.6-10.8-3.5 0.5-6.4 2.7-9.2 4.5-17.7 11.9-34.7 25-52.8 36.3 5.1-24.3 14.7-47.4 20.4-71.4-2.5-3.1-5.7-5.4-8.7-7.8-16.6-12.3-32.8-24.9-49.3-37.3 7.3-3 15.2-2.3 22.9-2.5 16.9-0.3 33.9-0.3 50.8-0.5zm-883.3 89.2c9.5-23.4 16.4-47.8 25.5-71.5 9.6 23.5 16.5 47.9 25.7 71.5 25 0.4 50.1-0.2 75 2.6-19.9 15.3-40.8 29.5-59.7 46 7.3 23.9 15.2 47.7 21.2 71.9-18.3-12.6-36.5-25.4-54.7-38.2-3.2-1.9-7.1-5.6-10.7-2.5-19.5 12.5-37.5 27.2-57.4 39 3.7-23.1 13.4-44.6 18.6-67.3 1.8-4.6-3.4-6.8-6-9.5-17.1-13.1-34.5-25.8-51.4-39.1 24.4-4.1 49.2-2.1 73.9-2.9zm1109.2 136.7c9-23.6 15.8-48 25.9-71.2 8.9 23.6 16 47.8 25.5 71.1 24.4 0.5 48.8 0 73.2 1.3-16.9 17.4-38.3 29.5-56.8 45.1-1.1 4.3 0.7 8.7 1.8 12.9 6.2 20 12.6 40 18.1 60.2-20.6-11.7-38.6-27.3-58.7-39.7-4.4-2.8-8.8 1.2-12.4 3.3-18 12.6-35.8 25.4-54 37.6 6.9-23.2 14.2-46.2 21-69.4 1.8-4.2-3.3-6.5-5.6-9-17.2-13.3-34.9-25.8-51.8-39.5 5.1-1.4 10.3-2.3 15.6-2.2 19.4-0.1 38.8-0.5 58.2-0.5zm-841.2 71.1c45.4-44.8 109.1-70.4 172.9-68.8 38.5-0.8 77 8.1 111.6 25 51.5 25.4 91.6 70.3 115.2 122.2 44.6 6.2 91.5 14.3 128 42.7 25.5 19 39.6 51.7 36.8 83.2-1.9 19.9-9 39.5-22.6 54.4-23.9 27.1-58.9 40.9-93.2 49.6-15.8 3.9-31.9 7.1-48.2 8.5q-0.5 3-1.1 6c24.3 7 48.1 17.6 67 34.8 25.2 21.9 41.2 52.5 50.7 84.1 7 24.8 8.9 50.7 10.9 76.3 1.8 14.1 4 29.3 13.8 40.3 10.8 11.3 31 9.9 41.3-1.7 15.7-16.6 19.5-40.6 23.3-62.3 4.1-21.7 1.1-43.9 5.6-65.6 2.3 3.1 3.9 6.6 3.7 10.5 0.9 35.8 3.4 72.8-8.5 107.2-6.7 19.4-18.3 38.6-37 48.2-25.2 13.4-57.3 12.2-81.7-2.5-19.6-12.5-32.9-33-40.1-54.9-10.9-32.9-12.4-68.2-9.5-102.6-0.8 5.1-1.4 10.3-2.4 15.3-0.6-23.5-0.7-47.9-9.9-70-6.5-15.9-18.7-29-33.5-37.5-4.3-2.6-6 4.2-8.2 6.5-22.5 38.5-55.7 70.9-95.2 91.7-4.9 2.6-9.7 5.3-14.4 8 0.6 27.8-1.9 55.9 4.1 83.3 2.7 12.9 11.2 24.4 23 30.5 24.8 13.2 52.8 18.9 80.5 22.7 0.1 1.2 0.3 3.6 0.4 4.8-91 0.3-182-0.2-273 0.2-4.3 0-8.7-0.5-13-1.2 3.6-2.5 7.3-5.1 11.8-5.7 23-3.7 46.2-9.4 66.5-21.4 8.4-4.9 15.3-12.4 18.5-21.6 8.2-23.5 6.5-48.7 6.4-73.1-17.1 2.8-34.7 3-51.9 0.5-55-4.3-108.6-28.2-147.6-67.5-41.2-39.9-66.8-94.4-76-150.7-4.9-25.2-3.7-51-3-76.6 5.5-64.1 32.3-127 78-172.8zm112.6-47.6c-35.7 15.8-60.9 48.5-75.7 83.7-19.5 44.6-25.8 93.5-28.3 141.6-1.1 36.2 0.7 72.6 6.5 108.3 7.8 45.9 22.4 92.5 53.5 128.1 22.5 25.8 55.4 41.6 89.5 44.1 14.1 2.8 28.3-0.4 42.5-1.4 0.2-104.2 0-208.4 0.1-312.7-0.2-13.4-1-27.7-7.7-39.6-8.4-13.4-24.9-17.6-39.5-19.9-17.5-3.4-36.4-0.6-53.1-7.8 11.2-1.9 22.7-0.8 34.1-1 62.5-0.2 125 0.2 187.5-0.1-6.3-29.4-19.4-57.5-37.4-81.6-25.2-35-68.7-55.5-111.7-53.4-20.7-1-41.4 3.3-60.3 11.7zm173.6 146.3c-8.3 4.6-10.2 15-10.8 23.7-0.2 62.1 0.1 124.2-0.1 186.3 17.2 0.2 34.4 0.4 51.6-0.2 13.7-71.1 14.6-144.7 0.2-215.8-13.8-0.4-28.4-0.7-40.9 6zm122.6 2.2c20.8 63.3 21.2 132.9 0.5 196.2 23.6-8.5 47-22.1 59.5-44.7 14.2-23.3 14.9-51.7 12.2-78.2-2.1-11.5-5.8-22.9-11.9-33.1-12.7-21.5-36.4-34.7-60.3-40.2zm-133.5 224.6c0.2 30-0.2 60.1 0.3 90.1 23-25.2 37.8-57.1 46.1-90-15.5-0.2-30.9-0.2-46.4-0.1zm-690.1-285.7c8.6-23.1 14.7-47.2 25.4-69.5 8.8 22.8 16.4 46.1 24.1 69.3 25.3 0.2 50.5 2.2 75.8 2.7-18.9 15.8-39.4 29.7-58.6 45.1 4.6 25 14.5 48.8 20.6 73.6-18.9-12.8-37.4-26.1-56.1-39-2.6-1.3-5.7-4.7-8.7-2.5-19.9 12.8-38.4 27.8-58.9 39.9 5.3-24.1 13.7-47.4 20.7-71.1-19.4-15.4-40.1-29.3-58.8-45.6 24.8-1.2 49.6-3 74.5-2.9zm1359.1 123.5c2.9 4.7 5.3 9.7 7.1 15 6 17.8 12.4 35.6 18.4 53.5 8.2 0.2 16.4 0.4 24.6 1.4 17 1.4 34.1 0 51.2 1.4-19.6 15.7-40 30.5-60 45.6 6.8 24.2 15.8 47.7 20.8 72.3-21-13.7-40.7-29.2-62-42.3-20.8 14.2-40.9 29.2-62.1 42.7 6.2-21 12.8-41.8 19.1-62.8 0.9-4.3 3-10.1-1.7-12.9-17.9-14.9-37.4-27.8-55.3-42.6 24.8-0.9 49.7-0.9 74.5-2.9 3.1-3.4 4.1-8.2 5.7-12.5 6.4-18.7 12.3-37.6 19.7-55.9zm-1338.5 127.5c8.5 23.6 16.7 47.3 24.9 70.9 9.4 0.1 18.9 0 28.2 1.2 15.6 1.3 31.3 0.3 46.9 1.3-18.8 16.1-39.4 30-58.8 45.4 5.4 24.8 14.9 48.4 21 73-21.1-13.7-41.3-28.8-62.2-42.8-21.2 13.5-40.9 29.1-62 42.6 5.8-24.4 14.1-48.1 21-72.2-19.1-15.9-40.5-28.9-58.5-46.1 15.6-0.9 31.3 0.1 47-1.3 9-1.1 18.2-1 27.4-1.1 8.3-23.6 16-47.5 25.1-70.9zm1244.8 198.1c10.6 22.3 16.7 46.6 25.5 69.7 8.2 0.3 16.4 0 24.6 0.8 16.8 1.9 33.7 0.2 50.5 1.7-19.2 16.2-40.1 30.1-59.4 46 6.7 23.7 15.6 46.8 20.5 70.9-21.4-12.4-40.4-28.6-61.5-41.4-21 13.9-41 29.3-62.3 42.8 6-21.7 13.2-43 19.5-64.7 0.7-3.6 2.3-8.6-1.8-10.8-18.3-14.6-37.3-28.2-55.6-42.8 15.6-1.4 31.2 0.2 46.8-1.7 9.4-0.9 18.9-0.5 28.4-0.7 8.8-23.1 15.8-46.8 24.8-69.8zm-1105.7 95.8c0.8 0 2.5-0.1 3.3-0.2 7.1 22.7 15.8 45 23.1 67.6 25.2 2.5 50.6 1.6 75.9 2.6-19.5 16-40.3 30.4-59.9 46.3 6.7 23.6 15.6 46.8 20.3 70.9-20.9-12.6-40.4-27.5-60.4-41.4-21.7 13.3-41.6 29.2-63.1 42.8 6.5-24.3 14.6-48.2 21.7-72.3-19.5-16.1-40.7-30.1-60.1-46.3 25.4-1.1 50.9 0 76.2-2.6 7-22.7 15.6-44.8 23-67.4zm884.6 110c10.4 22.6 16.5 46.9 25.5 70 24.9 0.7 49.9 0.1 74.8 1.1-18.1 17.9-40.7 30.2-59.3 47.6 7.2 23.5 15.3 46.9 21 70.9-19.2-11.7-37-25.6-55.7-38.1-2.8-2-6.6-4.1-9.7-1.5-19.6 12.2-37.4 27.2-57.3 38.9 4.1-24.4 14.5-47.2 19.6-71.3-19.3-16.3-40.9-29.7-59.6-46.6 25-0.8 50-0.6 75-0.8 9.6-23 16-47.2 25.7-70.2zm-625.2 75.2c0.8 0 2.5-0.2 3.3-0.3 7.1 22.7 15.4 45.1 22.9 67.6 24.9 3.9 50.4 1 75.5 2.9-18.7 16.7-39.8 30.5-59.4 46.2 7.2 24.1 14.5 48.1 21.9 72.1-22-12.7-41.5-29.4-63.3-42.5-19.8 14-39.4 28.7-60.2 41.3 2.3-16.1 8.7-31.2 12.9-46.8 2-8.3 6.8-16.7 5-25.5-18.5-15.8-39.4-28.6-57.5-44.9 23.5-0.9 47-0.6 70.5-1.3 5.6 0.1 6.4-6.5 8.4-10.4 6.7-19.4 13.4-38.9 20-58.4zm329.8 38.9c10.8 22 16.7 46.1 25.2 69.1 25.2 3.6 50.8 0.8 76.1 2.6-19.6 15.9-40.4 30.3-60.1 46.2 6.8 24 15.8 47.5 20.9 72-21-13.6-40.7-29.2-62.1-42.3-20.7 14.1-40.9 29-61.9 42.7 5.6-21 12.4-41.7 18.7-62.5 1-4.4 3.5-10.2-1.3-13.2-18.3-14.6-37.8-27.6-55.5-42.9 25.1-1.3 50.4 0.2 75.4-2.5 8.5-23 15.5-46.5 24.6-69.2z"/>
	</g>
</svg>