<svg version="1.2" xmlns="http://www.w3.org/2000/svg" viewBox="0 0 1539 269" width="1539" height="269">
	<title>NYSE_ORN_2021-1-pdf-svg</title>
	<defs>
		<clipPath clipPathUnits="userSpaceOnUse" id="cp1">
			<path d="m-1242.97-1721.18h4263.27v5523.69h-4263.27z"/>
		</clipPath>
	</defs>
	<style>
		.s0 { fill: #ffffff } 
		.s1 { fill: #00aca0 } 
	</style>
	<g id="Clip-Path: Page 1" clip-path="url(#cp1)">
		<g id="Page 1">
			<path id="Path 6" fill-rule="evenodd" class="s0" d="m651.1 130.5c0 80.9-57.1 137.8-136.5 137.8-77.7 0-135.2-56.9-135.2-137.8 0-76 64.8-128.3 135.2-128.3 70.7 0 136.5 52.3 136.5 128.3zm-205.5 0c0 43.6 31 75 69 75 38.3 0 68.9-31.4 68.9-75 0-34.2-30.6-65.5-68.9-65.5-38 0-69 31.3-69 65.5zm438.9 127.6h-79.1l-59.9-95.2h-1.4v95.2h-62.7v-248.6h95.1c48.1 0 84.6 23.7 84.6 77.4 0 34.2-19.1 64.2-53.9 70.1zm-140.4-137h5.9c22 0 43.6-2.8 43.6-29.7 0-28.2-21.6-31.4-43.6-31.4h-5.9zm157.1-111.5h64.1v248.6h-64.1zm363.6 121c0 80.5-55.7 137.4-135.1 137.4-79.1 0-135.2-56.9-135.2-137.4 0-76.4 64.8-128.7 135.2-128.7 70.3 0 135.1 52.3 135.1 128.7zm-204.1 0c0 43.2 30.7 74.6 69 74.6 38.3 0 68.9-31.4 68.9-74.6 0-34.5-30.6-65.9-68.9-65.9-38.3 0-69 31.4-69 65.9zm234.8-121h63.4l115.6 153.8h1.7v-153.8h62.7v248.6h-62.7l-117.3-152v152h-63.4z"/>
			<path id="Path 7" class="s1" d="m348.8 133.3h-96.8l-78.1-132.2h97.2z"/>
			<path id="Path 8" class="s0" d="m348.8 133.3h-95.1l-77.3 132.5h95.1zm-348.7 0h96.5l77.7-132.5h-96.9z"/>
			<path id="Path 9" class="s1" d="m0.1 133.3h96.5l77.3 132.5h-96.4z"/>
		</g>
	</g>
</svg>