<svg version="1.2" baseProfile="tiny-ps" xmlns="http://www.w3.org/2000/svg" viewBox="0 0 1654 795" width="1654" height="795">
	<title>02264_ORPEA Groupe_Tire a Part_200x20_GB-WEB-PaP-1-pdf-svg-svg</title>
	<defs>
		<clipPath clipPathUnits="userSpaceOnUse" id="cp1">
			<path d="M-8645.06 -9559.03L2407.29 -9559.03L2407.29 1490.5L-8645.06 1490.5L-8645.06 -9559.03Z" />
		</clipPath>
	</defs>
	<style>
		tspan { white-space:pre }
		.shp0 { fill: #ffffff } 
	</style>
	<g id="Clip-Path: Clip-Path: Page 1" clip-path="url(#cp1)">
		<g id="Clip-Path: Page 1">
			<g id="Page 1">
				<path id="Path 3" class="shp0" d="M392.04 249.12C479.56 191.64 572.53 135.22 668.24 117.99C829.44 89.03 1033.44 170.2 1135.97 144.58C1221.83 121.1 1296.01 65.07 1366.08 0.66C1292.79 102.59 1158.19 241.72 950.29 226.91C827.5 218.13 746.6 170.88 592.22 197.3C524.38 208.99 459.29 234.04 392.04 249.12Z" />
				<path id="Path 4" fill-rule="evenodd" class="shp0" d="M624.88 359.44C624.88 496.81 490.66 600.39 312.69 600.39C134.72 600.39 0.52 496.81 0.52 359.44C0.52 222.05 134.72 118.47 312.69 118.47C490.66 118.47 624.88 222.05 624.88 359.44ZM525.66 359.44C525.66 316.27 517.95 254.68 481.02 206.17C444.37 157.92 387.74 133.58 312.69 133.58C237.54 133.58 180.93 157.92 144.39 206.17C107.43 254.68 99.65 316.27 99.65 359.44C99.65 402.49 107.43 464.08 144.39 512.69C180.93 560.84 237.54 585.28 312.69 585.28C387.74 585.28 444.37 560.84 481.02 512.69C517.95 464.08 525.66 402.49 525.66 359.44ZM791.05 470.8L790.65 470.22L734.13 470.22L734.13 561.42L694.85 561.42L694.85 319.87L795.14 319.87C843.97 319.87 882.18 352.41 882.18 393.93C882.18 423.64 862.29 450.93 831.59 463.31L830.14 463.98L898.16 561.42L853.03 561.42L791.05 470.8ZM842.9 393.93C842.9 370.54 821.75 352.89 793.78 352.89L734.13 352.89L734.13 437.57L791.34 437.57C821.27 437.57 842.9 419.27 842.9 393.93ZM957.03 319.87L1052.63 319.87C1101.85 319.87 1140.54 352.99 1140.54 395.29C1140.54 437.47 1101.85 470.61 1052.63 470.61L996.31 470.61L996.31 561.42L957.03 561.42L957.03 319.87ZM1101.27 395.29C1101.27 370.73 1080.21 352.89 1051.18 352.89L996.31 352.89L996.31 437.57L1051.18 437.57C1079.73 437.57 1101.27 419.36 1101.27 395.29ZM1182.16 319.87L1338.89 319.87L1338.89 352.89L1221.44 352.89L1221.44 417.89L1331.28 417.89L1331.28 450.54L1221.44 450.54L1221.44 528.77L1341.81 528.77L1341.81 561.42L1182.16 561.42L1182.16 319.87ZM1584.68 506.55L1456.91 506.55L1429.82 561.42L1388.29 561.42L1507.12 319.87L1534.5 319.87L1653.3 561.42L1611.78 561.42L1584.68 506.55ZM1520.75 375.13L1472.89 474.02L1568.61 474.02L1520.75 375.13Z" />
				<path id="Path 5" fill-rule="evenodd" class="shp0" d="M655.09 776.77C658.6 780.18 663.65 782.21 669.6 782.21C675.35 782.21 680.33 780.37 684.12 776.96C688.62 772.76 689.68 767.99 689.68 758.74L677.31 758.74C674.19 758.74 672.81 758.54 671.26 757.85C669.5 756.88 668.24 755.13 668.24 752.79C668.24 750.45 669.5 748.61 671.26 747.72C672.81 746.94 674.19 746.85 677.31 746.85L694.95 746.85C697.1 746.85 699.72 746.85 701.87 748.7C704.02 750.64 704.02 752.99 704.02 754.94L704.02 756.3C704.02 770.63 702.35 778.12 694.66 785.04C687.92 791.18 680.04 794.1 669.6 794.1C658.79 794.1 650.6 790.79 644.27 785.13C634.81 776.65 634.43 767.8 634.43 749.38C634.43 730.87 634.81 722.09 644.27 713.51C650.6 707.88 658.79 704.57 669.5 704.57C681.78 704.57 689.1 707.98 695.14 713.71C700.61 718.98 702.64 724.73 702.64 727.85C702.64 730.09 701.96 731.64 700.61 732.82C699.13 734.08 697.49 734.66 695.44 734.66C693.58 734.66 692.12 734.18 691.06 733.4C689.49 732.32 688.52 730.67 687.44 728.43C683.83 720.84 678.37 716.44 669.21 716.44C663.46 716.44 658.69 718.49 655.09 722C649.92 726.97 649.24 732.61 649.24 749.38C649.24 766.81 650.21 772.08 655.09 776.77Z" />
				<path id="Path 6" fill-rule="evenodd" class="shp0" d="M753.42 784.75L753.42 713.51C753.42 711.48 753.42 709.14 755.57 707.28C757.72 705.34 760.34 705.34 762.58 705.34L791.44 705.34C809.96 705.34 821.75 716.05 821.75 731.06C821.75 743.63 813.37 751.63 802.44 754.44L819.89 781.92C821.65 784.65 822.24 785.72 822.24 787.48C822.33 789.63 821.17 791.56 818.63 792.94C817.35 793.62 815.9 793.91 814.62 793.91C810.92 793.91 809.18 791.47 807.32 788.45L786.85 756.3L768.34 756.3L768.34 784.75C768.34 788.06 768.24 789.12 767.27 790.79C766.09 792.65 763.86 793.91 760.94 793.91C757.92 793.91 755.67 792.65 754.6 790.79C753.52 789.12 753.42 788.06 753.42 784.75ZM768.34 717.23L768.34 744.89L790.26 744.89C800.21 744.89 806.94 739.83 806.94 731.16C806.94 722.48 800.21 717.23 790.26 717.23L768.34 717.23ZM867.75 749.38C867.75 730.87 868.14 722.09 877.59 713.51C883.92 707.88 892.21 704.57 902.94 704.57C913.65 704.57 921.94 707.88 928.27 713.51C937.73 722.09 938.11 730.87 938.11 749.38C938.11 767.8 937.73 776.56 928.27 785.13C921.94 790.79 913.65 794.1 902.94 794.1C892.21 794.1 883.92 790.79 877.59 785.13C868.14 776.56 867.75 767.8 867.75 749.38ZM902.94 782.21C908.89 782.21 913.84 780.18 917.54 776.65C922.33 771.98 923.3 766.81 923.3 749.38C923.3 731.93 922.33 726.59 917.54 722C913.84 718.49 908.89 716.44 902.94 716.44C896.99 716.44 891.92 718.49 888.41 722C883.53 726.59 882.57 731.93 882.57 749.38C882.57 766.81 883.53 771.98 888.41 776.65C891.92 780.18 896.99 782.21 902.94 782.21ZM986.07 763.7L986.07 713.9C986.07 710.59 986.16 709.62 987.25 707.88C988.31 706.02 990.56 704.86 993.58 704.86C996.51 704.86 998.73 706.02 999.82 707.88C1000.88 709.62 1000.98 710.59 1000.98 713.9L1000.98 763.02C1000.98 774.91 1008.88 782.21 1021.16 782.21C1033.44 782.21 1041.32 774.91 1041.32 763.02L1041.32 713.9C1041.32 710.59 1041.42 709.62 1042.5 707.88C1043.57 706.02 1045.82 704.86 1048.74 704.86C1051.76 704.86 1054.01 706.02 1055.07 707.88C1056.14 709.62 1056.24 710.59 1056.24 713.9L1056.24 763.7C1056.24 781.82 1041.13 794.1 1021.16 794.1C1001.27 794.1 986.07 781.82 986.07 763.7ZM1107.6 784.75L1107.6 713.51C1107.6 711.48 1107.6 709.14 1109.75 707.28C1111.9 705.34 1114.53 705.34 1116.66 705.34L1144.75 705.34C1163.84 705.34 1176.12 716.73 1176.12 732.03C1176.12 747.33 1163.84 758.64 1144.75 758.64L1122.51 758.64L1122.51 784.75C1122.51 788.06 1122.42 789.12 1121.35 790.79C1120.28 792.65 1118.04 793.81 1115.02 793.81C1112.09 793.81 1109.85 792.65 1108.78 790.79C1107.7 789.12 1107.6 788.06 1107.6 784.75ZM1122.51 746.75L1143.95 746.75C1154.39 746.75 1161.21 741.29 1161.21 732.03C1161.21 722.58 1154.39 717.23 1143.95 717.23L1122.51 717.23L1122.51 746.75Z" />
			</g>
		</g>
	</g>
</svg>