<svg version="1.2" baseProfile="tiny-ps" xmlns="http://www.w3.org/2000/svg" viewBox="0 0 1595 245" width="1595" height="245">
	<title>3e4a4a8fbd769c2364c65ec9be89ba69cd363b10-svg</title>
	<style>
		tspan { white-space:pre }
		.shp0 { fill: #ffffff } 
	</style>
	<path id="Layer" fill-rule="evenodd" class="shp0" d="M379.33 14.09L336.13 90.46L290.8 90.46L237.47 184.45L282.8 184.45L248.67 244.8L360.13 244.8C412.4 179.11 420.4 87.79 379.33 14.09ZM159.6 244.8L300.93 0.2L181.47 0.2L100.4 141.19L26.8 13.56C-14.8 87.25 -7.33 179.11 46.53 244.8L159.6 244.8Z" />
	<path id="Layer" fill-rule="evenodd" class="shp0" d="M473.2 126.24C473.2 60.55 505.2 29.04 559.07 29.04C612.4 29.04 644.93 60.55 644.93 125.7C644.93 190.32 612.4 222.37 559.07 222.37C505.2 222.37 473.2 190.86 473.2 126.24ZM492.4 126.24C492.4 180.18 516.93 205.81 559.07 205.81C601.2 205.81 625.73 180.18 625.73 126.24C625.73 72.3 601.2 46.67 559.07 46.67C516.93 46.13 492.4 71.77 492.4 126.24ZM785.2 37.05C786.27 34.92 788.93 31.18 794.27 31.18C799.6 31.18 803.87 35.45 803.87 40.79C803.87 42.39 803.33 44 802.8 45.06L738.27 214.89C736.67 218.63 732.93 221.3 729.2 221.3C725.47 221.3 721.73 218.63 720.13 214.89L656.13 44.53C655.6 43.46 655.07 41.86 655.07 40.26C655.07 34.92 659.33 30.64 664.67 30.64C670 30.64 672.67 34.38 673.73 36.52L729.73 184.98L785.2 37.05ZM842.27 132.11L842.27 211.69C842.27 216.49 838 221.3 832.67 221.3C827.33 221.3 823.07 217.03 823.07 211.69L823.07 40.79C823.07 35.99 827.33 31.18 832.67 31.18C838 31.18 842.27 35.45 842.27 40.79L842.27 115.56L938.27 115.56L938.27 40.79C938.27 35.99 942.53 31.18 947.87 31.18C953.2 31.18 957.47 35.45 957.47 40.79L957.47 211.69C957.47 216.49 953.2 221.3 947.87 221.3C942.53 221.3 938.27 217.03 938.27 211.69L938.27 132.11L842.27 132.11ZM1044.93 89.92C1069.47 89.92 1082.8 102.74 1087.07 109.15C1088.67 111.29 1089.2 112.35 1089.2 114.49C1089.2 119.3 1085.47 122.5 1081.2 122.5C1078.53 122.5 1076.4 121.43 1074.8 119.3C1070.53 114.49 1063.07 106.48 1044.93 106.48C1019.87 106.48 1006 122.5 1006 156.68C1006 191.39 1019.33 206.88 1044.93 206.88C1060.93 206.88 1070.53 199.94 1076.93 195.13C1079.07 193.53 1080.13 192.99 1082.27 192.99C1086.53 192.99 1090.27 196.73 1090.27 201C1090.27 203.67 1089.2 205.28 1086.53 207.95C1080.67 212.75 1067.33 222.9 1044.93 222.9C1009.2 222.9 988.4 201.54 988.4 156.68C988.4 111.82 1009.73 89.92 1044.93 89.92ZM1132.93 31.18L1132.93 188.72C1132.93 199.94 1136.67 204.21 1144.13 204.21C1148.4 204.21 1152.13 207.95 1152.13 212.22C1152.13 216.49 1148.4 220.23 1144.13 220.23C1125.47 220.23 1115.33 209.01 1115.33 188.19L1115.33 31.18C1115.33 26.37 1119.6 22.1 1124.4 22.1C1129.2 22.63 1132.93 26.37 1132.93 31.18ZM1282.8 155.61C1282.8 201 1260.93 221.83 1225.2 221.83C1189.47 221.83 1167.6 200.47 1167.6 155.61C1167.6 110.75 1190 89.39 1225.2 89.39C1260.93 89.92 1282.8 110.75 1282.8 155.61ZM1265.2 155.61C1265.2 120.9 1250.8 105.41 1225.2 105.41C1199.6 105.41 1185.2 120.9 1185.2 155.61C1185.2 190.86 1199.6 205.81 1225.2 205.81C1250.8 205.81 1265.2 190.86 1265.2 155.61ZM1325.47 100.07L1325.47 172.17C1325.47 190.32 1331.33 205.28 1359.07 205.28C1386.8 205.28 1392.67 189.79 1392.67 172.17L1392.67 100.07C1392.67 95.26 1396.93 90.99 1401.73 90.99C1406.53 90.99 1410.27 94.73 1410.27 100.07L1410.27 172.17C1410.27 198.33 1401.73 222.37 1359.07 222.37C1316.93 222.37 1307.87 198.33 1307.87 172.17L1307.87 100.07C1307.87 95.26 1311.6 90.99 1316.93 90.99C1321.2 91.53 1325.47 95.26 1325.47 100.07ZM1527.6 107.55L1527.6 31.18C1527.6 26.37 1531.33 22.1 1536.67 22.1C1541.47 22.1 1545.73 25.84 1545.73 31.18L1545.73 167.89C1545.73 204.21 1523.33 222.37 1491.87 222.37C1456.13 222.37 1435.33 201 1435.33 156.14C1435.33 111.29 1455.07 89.92 1490.8 89.92C1507.87 89.92 1521.2 99 1527.6 107.55ZM1527.6 129.98C1527.6 129.98 1516.93 105.94 1491.33 105.94C1466.27 105.94 1452.4 121.97 1452.4 156.14C1452.4 190.86 1465.73 206.34 1491.33 206.34C1512.67 206.34 1527.6 194.06 1527.6 167.89L1527.6 129.98ZM1577.73 66.96C1575.6 66.96 1573.47 66.43 1571.33 65.89C1569.2 64.82 1567.6 63.76 1566 62.15C1564.4 60.55 1563.33 58.95 1562.27 56.28C1561.2 54.14 1560.67 51.47 1560.67 48.8C1560.67 46.13 1561.2 43.46 1562.27 41.33C1563.33 39.19 1564.4 37.05 1566 35.45C1567.6 33.85 1569.2 32.78 1571.33 31.71C1573.47 30.64 1575.6 30.64 1577.73 30.64C1579.87 30.64 1582 31.18 1584.13 31.71C1586.27 32.78 1587.87 33.85 1589.47 35.45C1591.07 37.05 1592.13 39.19 1593.2 41.33C1594.27 43.46 1594.8 46.13 1594.8 48.8C1594.8 51.47 1594.27 54.14 1593.2 56.28C1592.13 58.41 1591.07 60.55 1589.47 62.15C1587.87 63.76 1586.27 64.82 1584.13 65.89C1582 66.43 1579.87 66.96 1577.73 66.96ZM1577.73 64.29C1579.87 64.29 1581.47 63.76 1583.07 63.22C1584.67 62.69 1586.27 61.62 1587.33 60.02C1588.4 58.41 1589.47 57.35 1590.53 55.21C1591.07 53.61 1591.6 51.47 1591.6 48.8C1591.6 46.67 1591.07 44.53 1590.53 42.39C1590 40.26 1588.93 38.66 1587.33 37.59C1586.27 35.99 1584.67 34.92 1583.07 34.38C1581.47 33.85 1579.33 33.31 1577.73 33.31C1575.6 33.31 1574 33.85 1572.4 34.38C1570.8 34.92 1569.2 35.99 1568.13 37.59C1567.07 39.19 1566 40.79 1564.93 42.39C1564.4 44.53 1563.87 46.13 1563.87 48.8C1563.87 50.94 1564.4 53.07 1564.93 55.21C1565.47 56.81 1566.53 58.41 1568.13 60.02C1569.2 61.62 1570.8 62.15 1572.4 63.22C1574 63.76 1575.6 64.29 1577.73 64.29ZM1571.33 57.88L1571.33 38.66L1577.73 38.66C1578.8 38.66 1579.33 38.66 1580.4 39.19C1581.47 39.19 1582 39.72 1582.53 40.26C1583.07 40.79 1583.6 41.33 1584.13 41.86C1584.67 42.39 1584.67 43.46 1584.67 44.53C1584.67 45.6 1584.13 46.67 1583.6 47.73C1583.07 48.8 1582 49.34 1580.93 49.87L1585.73 57.88L1582.53 57.88L1578.8 50.94L1574.53 50.94L1574.53 57.88L1571.33 57.88ZM1577.2 48.27C1578.8 48.27 1579.87 48.27 1580.4 47.73C1581.47 47.2 1581.47 46.13 1581.47 45.06C1581.47 44 1580.93 42.93 1580.4 42.39C1579.87 41.86 1578.8 41.33 1576.67 41.33L1573.47 41.33L1573.47 48.27L1577.2 48.27Z" />
</svg>