<svg version="1.2" xmlns="http://www.w3.org/2000/svg" viewBox="0 0 1452 1561" width="1452" height="1561">
	<title>Oxford Logotype-svg</title>
	<style>
		.s0 { fill: #ffffff } 
	</style>
	<g id="#0871b9fe">
		<path id="Layer" fill-rule="evenodd" class="s0" d="m616.5 11.4c172.4-35.6 353.1 17.2 495.4 116.2 209.6 143.7 342.3 394.2 339.9 649 3.6 359.5-265.4 715.4-625.7 775.6-176.1 28-361.1-19.5-503.9-125.8-199.3-143.9-317.4-387.5-321.2-631.9-9.7-360.7 263.1-707.7 615.5-783.1zm-3.1 27.3c-93.7 16.6-178.9 70.7-235.6 146.9-72.9 97.1-106.5 217.8-121 336.9-23.8 204.4-23.1 413.6 16.3 616 27.6 136.4 97.8 276.7 228 340.3 123.7 56.6 269 58 398.5 20.6 139-41 231-171.1 266.8-306.3 49.5-188.4 51.8-386.1 39.2-579.3-12.5-169.9-47.2-354.8-174.8-477.9-108.5-107.1-274.1-122-417.4-97.2z"/>
	</g>
</svg>