<svg version="1.2" xmlns="http://www.w3.org/2000/svg" viewBox="0 0 1501 400" width="1501" height="400">
	<title>oyster_point_logo-svg</title>
	<style>
		.s0 { fill: #1e3b91 } 
		.s1 { fill: #0078bf } 
		.s2 { fill: #842c91 } 
	</style>
	<g id="#1e3b91ff">
		<path id="Layer" class="s0" d="m154.7 9.4c52.6-12.2 110.5-3.3 155.7 26.8 3.1 2.1 6.2 4.3 9.2 6.7-25.7-10-52.7-17.4-80.3-18.6-28.8-1.4-58.1 4.7-83.6 18.5-22.4 12.1-41.6 29.4-57.7 49.1-6.6 8.2-13 16.7-18.3 25.9-30.7 53.7-28.8 124.7 5.4 176.4 10.3 15.1 22.2 29.3 35.7 41.7 16.2 14.9 35 27 55.7 34.5 28.8 10.6 60.4 11.5 90.4 5.8 18.9-3.6 37.3-9.7 55.1-17.1-23.1 19.6-52 31.5-81.6 37.2-35.6 6.7-73 4-107.1-8.1-38.2-13.5-72.1-38.7-95.9-71.5-19.3-26.5-31.4-58.1-35.4-90.6-3.5-28.6-0.8-57.9 8.1-85.3 8.6-26.6 23.1-51.4 42.2-71.8 27.3-29.3 63.3-50.6 102.4-59.6z"/>
		<path id="Layer" fill-rule="evenodd" class="s0" d="m556.7 0h4.7c10 0.4 20.1 1.8 29.7 5.1 21.1 7.3 39.6 22.7 49.5 42.8 8.6 16.6 11.5 35.6 9.9 54.1-1.2 16-6.6 31.7-15.7 45-14.2 20.8-37.9 34.5-62.8 37.3-15.1 1.7-30.7 0.6-45.2-4.4-12.5-4.4-24.1-11.4-33.5-20.8-10.1-9.9-17.4-22.5-21.6-36-4.6-14.1-5.4-29.2-3.8-43.9 2-16.2 8.2-31.9 18.1-44.9 8.1-10.6 18.9-19.1 30.9-25 12.4-6.1 26.1-8.9 39.8-9.3zm-8.3 20.4c-20.1 2.7-38.4 15.2-48.4 32.8-15 25.8-13.7 60.5 4 84.8 10.1 14 25.9 23.9 43.1 26.5 10.2 1.6 20.8 1.2 30.9-1.5 15.1-4.1 28.6-13.8 37.3-26.8 17.2-25.1 17.5-60.5 0.9-86-6.3-9.8-15.2-17.9-25.7-23.2-12.8-6.8-27.9-8.6-42.1-6.6zm345.1-20.4h3.7c8.5 0.3 17.1 1.6 25.1 4.6 8.7 3.2 16.3 9.1 22.2 16.1-5.7 5.1-11.5 10.1-17.3 15.1-2.7-4.1-6.1-8-10.5-10.5-9.6-5.7-21.5-6.9-32.3-4.6-8.2 1.8-16.6 5.4-21.6 12.4-5.1 6.8-6 16-3.9 24.1 1.7 6.4 6.7 11.3 12.3 14.5 17 9.6 37.1 11.8 54 21.8 7 4 13.2 9.7 17 16.9 5.2 9.2 5.7 20.1 4.8 30.3-1.4 13.5-9.5 25.9-20.7 33.3-8.5 5.7-18.4 8.8-28.4 10.2-13.5 1.8-27.5 0.8-40.4-3.9-10.4-3.8-20.1-10.3-26.3-19.7 6-5 12.1-9.9 18.1-14.8 3.6 6 8.8 11 15 14.2 13.4 7.1 30.2 7.3 43.7 0.4 8.4-4.4 15.7-12.4 16.7-22.1 0.5-6.5-0.1-13.5-4.1-18.8-4.2-5.9-11-9.1-17.5-11.8-11.1-4.1-22.4-7.5-33.4-11.6-10.8-4.2-21.6-10.3-27.9-20.4-6.4-9.8-7.4-22.2-5.9-33.6 1.8-12.4 9.4-23.7 19.7-30.6 11-7.7 24.6-11.1 37.9-11.5zm-227.3 4.6c9-0.1 17.9 0 26.9-0.1 16.5 26.4 32.8 52.9 49.3 79.3 16.8-26.4 33.8-52.7 50.6-79.2 8.5-0.1 17 0 25.5 0-21.7 33.1-43.3 66.2-65 99.3-0.9 1-0.6 2.4-0.7 3.6 0.1 24.4 0.1 48.7 0.1 73.1q-10.5 0-21 0c0-25.2 0.2-50.4 0-75.6-21.7-33.6-43.8-66.9-65.7-100.4zm302.4 0q68.5-0.1 137 0 0 9.7 0 19.5c-19.3 0-38.7 0-58 0 0 52.2 0 104.4 0 156.5q-10.5 0-20.9 0 0-78.2 0-156.5-29.1 0-58.1 0 0-9.8 0-19.5zm167.6-0.1q55.3 0 110.6 0 0 9.8 0 19.6-44.8 0-89.5 0 0 27.5 0 55 41.8 0 83.5 0 0 9.7 0 19.5-41.7 0-83.5 0 0 31.2 0 62.5 47 0 94 0 0 9.8 0 19.5-57.5 0-115.1 0 0-88 0-176.1zm153.4 0q14.5 0 29 0c12.1 0.1 24.2-0.3 36.3 1 11.2 0.9 22.7 3.5 32.2 9.8 7.5 5.2 13.5 13 15.7 22 2 8.2 2.4 16.8 1.1 25.2-1.5 9.8-6.6 18.9-14.3 25.1-8.1 6.8-18.4 10.3-28.8 12q25 40.5 49.9 81c-8.6 0-17.2 0-25.8 0-15.9-26.3-31.8-52.7-47.7-79-8.9-0.1-17.8 0-26.7 0 0 26.3 0 52.7 0 79q-10.5 0-20.9 0 0-88 0-176.1zm20.9 19.6q0 29 0 57.9c11.4-0.1 22.8 0.2 34.1-0.3 7.7-0.3 15.5-1.5 22.5-4.6 5.6-2.7 10.9-6.9 13.2-12.9 2.2-6.2 2.3-13.1 0.9-19.6-1.7-7.3-7.5-13.3-14.3-16.2-7.7-3.5-16.3-3.9-24.6-4.3q-15.9 0-31.8 0zm-567.9 219.9c15.4-1.9 31.4-0.2 45.4 6.5 10.8 5 20.3 12.9 27.2 22.7 13.1 18.4 16.7 42.5 12.2 64.4-4 19.8-16 38.2-33.7 48.3-13.8 8-30.2 10.9-46 9.7-11.2-0.7-22.3-3.8-32.1-9.3-13-7.2-23.3-18.8-29.3-32.4-6.5-14.4-8.3-30.8-6.3-46.4 2.3-17.4 10.5-34.1 23.5-45.8 10.9-9.7 24.7-15.8 39.1-17.7zm0 12.7c-14.3 2.3-27.8 10.1-36.6 21.7-8.9 11.6-13.1 26.4-13 41-0.2 13.8 3.6 27.8 11.5 39.2 6.1 9 14.9 15.9 24.9 20.1 11.7 4.8 24.7 5.7 37 3.7 14.2-2.5 27.5-10.1 36.1-21.7 8.8-11.5 13-26.1 13-40.5 0.1-11.5-2.3-23.1-7.7-33.3-5.2-10.3-13.7-18.9-24-24.2-12.6-6.7-27.3-8.2-41.2-6zm198.4-9.7q6.9 0 13.8 0 0 72.6 0 145.1-6.9 0-13.8 0 0-72.5 0-145.1zm135 0q8.9 0 17.7 0c29.4 42.5 58.8 84.8 88.3 127.2 0-42.4 0-84.8 0-127.2q6.8 0 13.6 0 0 72.6 0 145.1-8.7 0-17.5 0c-29.5-42.3-58.8-84.7-88.3-127.1q0 63.6 0 127.1-6.9 0-13.8 0 0-72.5 0-145.1zm223.5 0q56.3 0 112.7 0 0 6.3 0 12.5-24.8 0-49.6 0 0 66.4 0 132.8-6.8 0-13.6 0 0-66.4 0-132.8c-16.5 0-33 0-49.5 0q-0.1-6.2 0-12.5zm-810 0c15.1 0.1 30.1 0 45.1 0.1 13.1 0.6 27.4 4.2 35.9 14.9 7.3 8.5 8.5 20.4 6.9 31.1-1.5 9.4-7.1 18-15.2 23-9.3 6-20.7 7.6-31.5 7.2q-13.8 0-27.5 0 0 34.4 0 68.8-6.8 0-13.7 0 0-72.5 0-145.1zm13.7 12.5q0 25.7 0 51.4 15.7 0 31.3 0c8.1-0.2 16.6-2 22.7-7.6 9.6-9 9.6-26.1 0.2-35.3-6.2-6.1-15.2-8.3-23.6-8.5q-15.3 0-30.6 0zm954.7-11.6c13.9-3.3 29.5 2.8 37.1 14.9 8 11.9 7.1 28.8-1.9 40-8.9 11.7-25.7 16.3-39.4 11.1-7.8-2.8-14.5-8.4-18.4-15.6-6.9-12.2-5.3-28.6 3.9-39.1 4.8-5.7 11.5-9.7 18.7-11.3zm3.2 4.7c-7.6 1.2-14.6 5.5-19 11.8-7.6 10.7-7 26.5 1.7 36.4 8.9 10.6 25.6 13.2 37.2 5.7 12.3-7.3 17.1-24.1 11.3-37.1-5-11.9-18.6-19.1-31.2-16.8zm-8.3 9.1c5.3 0 10.6-0.1 15.9 0 3.9 0.2 8.3 0.9 10.8 4.1 2.5 3.4 2.7 8.2 1.4 12.2-1.5 3.9-5.8 5.6-9.6 6.3q5.7 8.7 11.4 17.5-3.2 0-6.3 0c-3.7-5.7-7.3-11.5-11-17.2q-3.4 0-6.8 0 0 8.6 0 17.2-2.9 0-5.8 0 0-20.1 0-40.1zm5.8 5.3q-0.1 6.2 0 12.4c4.5-0.2 9.2 0.6 13.7-0.7 4.9-1.5 4.8-9.7 0-11.1-4.5-1.2-9.2-0.4-13.7-0.6z"/>
	</g>
	<g id="#0078bfff">
		<path id="Layer" class="s1" d="m223.4 40.6c21.2-4.9 43.8-4.9 64.7 1.6 21.5 6.5 40.6 19.3 56.4 35.2-12.3-8.1-25.7-14.5-40-17.9-28.4-7.1-59-2.8-85.3 9.7-22.4 10.4-41.3 27.3-55.5 47.4-16.7 23.7-25.6 52.8-24.9 81.8 0.3 21.4 7 42.3 17.6 60.8-17.9-19.2-31.3-43.3-35.3-69.5-3.9-25.3 0.8-51.3 10.5-74.7 8.9-21.5 23.8-40.7 43.2-53.8 14.7-10 31.4-16.7 48.6-20.6z"/>
	</g>
	<g id="#842c91ff">
		<path id="Layer" class="s2" d="m82.3 144c8.5-23.3 22-45.2 40.9-61.4-10.5 16-19.1 33.4-23.7 52-6.2 24.2-5.3 49.9 1.6 73.9 6.3 23 18.3 44.5 35.3 61.3 19.2 19.7 44.2 33.7 71.1 39.4 38 8.5 79.4 0.7 111.5-21.4 35.3-24.1 58.1-65 61.6-107.6 2-23.1-2-46.6-11.1-67.9-3.6-8.5-8.2-16.6-13.1-24.5 6.7 3.1 11.8 8.6 16.1 14.4 7.8 10.9 13.3 23.3 17.6 35.9 6.3 18.4 10.2 37.6 11.4 57 2 30.3-6.2 60.7-21.1 86.9-15 26.2-37.6 48-64.1 62.4-24.8 13.3-52.9 20.7-81 20.7-44.8-0.1-88.5-20.6-118.9-53.2-17.7-18.8-30.8-41.9-37.8-66.7-9.4-33-7.9-69 3.7-101.2z"/>
	</g>
</svg>