<svg version="1.2" xmlns="http://www.w3.org/2000/svg" viewBox="0 0 1500 1480" width="1500" height="1480">
	<title>oyster_point_logo-svg</title>
	<style>
		.s0 { fill: #ffffff } 
	</style>
	<g id="#1e3b91ff">
		<path id="Layer" class="s0" d="m575.9 20.2c196.6-45.8 413-12.5 581.8 100.2 11.7 7.9 23.3 16 34.3 25-95.9-37.4-196.7-65.1-299.9-69.4-107.7-5.4-217.2 17.6-312.2 69.2-83.8 45-155.6 109.8-215.6 183.2-24.9 30.7-48.8 62.4-68.3 96.9-114.8 200.9-107.8 466 20.1 659.2 38.5 56.7 82.7 109.6 133.2 155.9 60.5 55.6 131 100.8 208.3 128.8 107.5 39.6 225.7 43.3 337.5 21.7 70.8-13.4 139.6-36.2 206-63.9-86.3 73.4-194.4 117.8-304.9 139.1-133 25-272.6 15.2-400.2-30-142.5-50.5-269.5-144.9-358.4-267.4-71.8-99.2-117.4-217-132.1-338.6-13-106.8-3-216.6 30.4-318.9 32.1-99.5 86.2-191.9 157.7-268.1 101.9-109.7 236.3-189.4 382.3-222.9z"/>
	</g>
	<g id="#0078bfff">
		<path id="Layer" class="s0" d="m832.8 136.8c79.2-18.4 163.6-18.2 241.6 5.9 80.2 24.4 151.9 72.3 210.8 131.5-45.8-30.1-95.9-54.2-149.4-66.9-106.2-26.3-220.5-10.5-318.8 36.4-83.5 38.7-154.3 102.1-207.4 177-62.5 88.6-95.7 197.5-93.1 306 1.4 79.9 26.4 158.1 66 227-67.1-71.7-116.9-161.9-131.9-259.7-14.7-94.4 2.8-191.5 39.1-279.1 33.3-80.6 89.1-152.3 161.5-201.2 54.7-37.4 117.2-62.3 181.6-76.9z"/>
	</g>
	<g id="#842c91ff">
		<path id="Layer" class="s0" d="m305.6 523.1c31.6-86.9 82-168.8 152.7-229.2-39 59.7-71.4 124.6-88.4 194.1-23.3 90.5-19.8 186.7 5.8 276.3 23.6 85.8 68.4 166.3 131.8 229.2 71.8 73.4 165.1 125.8 265.6 147.3 142 31.4 296.7 2.5 416.6-80.2 132.3-90.1 217.4-243 230.5-402 7.4-86.3-7.5-174.2-41.7-253.7-13.4-32-30.5-62.2-48.7-91.6 24.8 11.4 44 31.9 59.9 53.6 29.3 40.7 49.6 87.1 66 134.4 23.4 68.7 38 140.6 42.3 213.1 7.5 112.9-23.1 226.6-78.7 324.4-56 98.2-140.3 179.6-239.6 233.3-92.5 49.9-197.4 77.3-302.6 77.6-167.3-0.5-330.8-77-444.3-198.9-65.9-70.4-115-156.5-141-249.5-35.2-123.3-29.8-257.6 13.8-378.2z"/>
	</g>
</svg>