<svg version="1.2" xmlns="http://www.w3.org/2000/svg" viewBox="0 0 1016 1511" width="1016" height="1511">
	<title>Patanjali_Foods_Annual_Report_2021_22-1-pdf-svg (1)-svg-svg</title>
	<style>
		.s0 { fill: #ffffff } 
	</style>
	<path id="Path 29" class="s0" d="m0.7 45.8v-44.9c186.1 3.5 375.6 4.2 565.9 2.1 88.4-1.4 127-5.6 212 27.4 447.2 175.5 207.1 824.7-263.3 801.5l-1.4-40c454.3-42.1 361.6-805.7-102.5-692v1254.2c4.9 98.9 70.2 133.3 191.7 108.1v48.4c-186.1-7-372.1-7.7-558.2 0v-44.2c87.1 21 135.5-13.4 146.1-102.5v-816.2-427.5c0-65.2-57.6-77.2-99.7-76.5z"/>
</svg>