<svg version="1.2" xmlns="http://www.w3.org/2000/svg" viewBox="0 0 1517 315" width="1517" height="315">
	<title>Paysign_Primary-Logo_4C_RGB-svg</title>
	<style>
		.s0 { fill: #79d853 } 
		.s1 { fill: #00afce } 
		.s2 { fill: #001f63 } 
	</style>
	<g id="#79d853ff">
		<path id="Layer" class="s0" d="m1069.6 0.6c8.7-1 18 0.3 25.5 5.1 5.3 3.4 9.6 8.6 11.4 14.7 2.7 9 1.1 19.4-4.6 27-4.9 6.5-12.6 10.5-20.5 11.6-9.5 1.5-19.7-0.1-27.7-5.7-6.6-4.6-11-12.2-11.7-20.2-1.1-9 2.3-18.5 9.1-24.5 5.1-4.6 11.7-7.2 18.5-8z"/>
		<path id="Layer" class="s0" d="m224.2 160.8c6.3-1 13 0.4 18.3 4 4.7 3.1 8.3 7.9 10 13.3 2.3 7.3 1.2 15.6-3.1 21.9-4.5 6.9-12.6 11.3-20.8 11.3-8 0.2-16-3.8-20.7-10.4-4.4-5.8-6-13.6-4.3-20.7 2.1-9.9 10.7-17.9 20.6-19.4z"/>
	</g>
	<g id="#00afceff">
		<path id="Layer" class="s1" d="m121.4 60c6.5-1.5 13.5-0.3 19.2 3.3 5.7 3.4 9.9 9.3 11.3 15.8 0.9 3.9 0.2 8 1.4 11.8 2.5 10.6 12.7 19 23.7 19.1 5.3-0.1 10.7 1.4 15.1 4.5 6.7 4.4 10.9 12.2 11 20.3 0.2 7.1-2.8 14.3-8 19.2-4.5 4.3-10.8 6.8-17.1 6.8-6.6-0.1-13.2 2.5-17.9 7.2-4.9 4.8-7.8 11.6-7.6 18.5 0.2 6.3 2.9 12.6 7.4 17 4.7 4.8 11.4 7.5 18.1 7.5 8.5-0.1 16.8 4.5 21.2 11.7 4 6.3 5 14.5 2.7 21.6-3.2 10.1-13.3 17.4-23.9 17.4-6 0-12.1 2.1-16.7 6.1-5.7 4.7-8.9 12-8.8 19.4 0 7-3.2 14-8.4 18.7-4.6 4.2-10.9 6.6-17.2 6.5-8.4 0-16.8-4.6-21.2-11.8-3.7-5.7-4.9-13.1-3.2-19.7 2.1-9 9.4-16.5 18.4-18.6 3.7-1 7.6-0.4 11.3-1.2 6.8-1.4 12.9-5.7 16.4-11.7 4.2-6.7 4.9-15.4 1.8-22.7-3.7-9.1-13.1-15.6-23-15.6-7.2 0.2-14.5-3-19.2-8.5-4.8-5.5-7.3-13.1-6.2-20.4 1.1-9.5 8.3-18 17.6-20.8 4.8-1.7 10.1-0.6 15-1.8 6.3-1.2 12.2-5.1 15-11 3-6.4 3.6-14 1.6-20.8-3.1-10-12.8-17.4-23.2-17.6-5.4 0.1-10.9-1.3-15.3-4.5-8.1-5.5-12.5-16-10.5-25.6 1.6-9.7 9.5-18 19.2-20.1z"/>
	</g>
	<g id="#001f63ff">
		<path id="Layer" fill-rule="evenodd" class="s2" d="m380.7 85.6c10.9-4.7 22.9-6.1 34.6-5.8 17.7 0.5 35.3 6.2 49.3 17.1 13.1 10 22.6 24.3 27.4 40 3.1 10.1 4.4 20.7 4.3 31.3-0.1 17.8-4.8 35.8-14.8 50.6-7.9 11.8-19.2 21.3-32.1 27.3-9.9 4.5-20.6 7-31.5 7.7-11.2 0.6-22.7-0.4-33.3-4.4-8.8-3.2-16.8-8.7-23.3-15.6q0 39.3 0 78.5-24.5 0.1-49.1 0 0-115 0-230.1 23.4 0 46.9 0c0 6.5 0 12.9 0 19.3 5.8-6.9 13.3-12.4 21.6-15.9zm16.1 35c-10.2 1.4-19.9 6.6-26.3 14.8-5.6 7.1-8.7 16.1-9.5 25.1-1 9.7 0.1 19.8 4.1 28.7 3.3 7.6 8.9 14.2 16 18.4 8.9 5.4 19.8 7 30 5.4 8.5-1.3 16.6-5.2 22.6-11.3 7.1-7.1 11.1-16.8 12.3-26.7 1.3-10.1 0.4-20.7-3.7-30.1-3.2-7.5-8.6-14.1-15.5-18.4-8.9-5.6-19.8-7.4-30-5.9zm161.7-37.6c15.4-3.3 31.4-4.1 47.1-2.4 10.8 1.2 21.6 3.8 31.3 8.9 8 4 15.1 9.8 20.5 17 7.6 10.2 11.5 22.6 12.9 35.1 0.9 7.6 0.6 15.3 0.7 22.9q0 43.5 0 86.9-23 0-45.9 0c0-7 0-13.9 0-20.9-4.4 7.4-11.1 13.3-18.9 17-9.7 4.7-20.6 6.4-31.3 6.4-11.6 0.2-23.4-1.5-34.1-6.2-7.3-3.2-14.1-7.9-19.3-14-5.4-6.3-8.9-14-10.3-22.1-1.2-6.9-1-13.9 0.4-20.7 1.7-7.9 5.6-15.3 11.4-20.9 6.7-6.8 15.5-11 24.5-13.6 12.8-3.7 26.2-4.5 39.4-4.4q17.5 0 34.9 0c0.2-7.7-1.8-15.8-6.9-21.8-4.8-5.6-11.8-8.8-19-10.2-8.6-1.6-17.6-1.4-26.3-0.1-12.6 2.1-25.1 6.8-35.3 14.7q-8.8-17.2-17.6-34.4c12.4-8.8 27-14.1 41.8-17.2zm15 99.4c-4.2 1.1-8.5 3-11.3 6.4-3.5 4-4.4 9.7-3.7 14.8 0.8 5.1 4 9.7 8.3 12.4 5.5 3.5 12.1 4.8 18.5 4.8 6.9 0.1 13.9-1.2 20.1-4.3 7.6-3.7 13.7-10.5 16.4-18.5 0.1-5.8 0-11.5 0-17.3q-13 0-26 0c-7.5 0-15.1-0.2-22.3 1.7zm341.9-96.9c8.9-3 18.3-4.6 27.7-5.4 13.7-1 27.6 0 41.2 2.5 12.1 2.3 24.2 5.7 34.9 12-5.4 11.7-10.9 23.3-16.4 35-17.6-10.1-38.6-14.3-58.7-12.1-5.9 0.8-11.9 2.2-16.6 5.9-3.2 2.4-5.2 6.4-4.7 10.4 0.3 3 2.1 5.7 4.6 7.4 3.6 2.6 7.9 3.8 12.2 5 9.9 2.3 20.1 3.4 30.2 5.2 11 2 22 4.5 32 9.7 7.3 3.8 13.9 9.4 17.9 16.7 4.6 8.4 5.8 18.3 4.8 27.7-0.9 9.7-5.3 18.9-11.9 25.9-6 6.4-13.6 11.1-21.6 14.5-10.5 4.4-21.9 6.6-33.2 7.6-21.2 1.6-42.7-0.9-63-7.3-8.1-2.6-16-5.9-23.1-10.5q8.2-17.7 16.4-35.3c7.9 5 16.7 8.7 25.7 11.3 9.8 3 20 4.7 30.3 5 6.5 0.1 13.1-0.1 19.4-1.5 4-0.9 8-2.4 10.9-5.2 2.8-2.7 4-6.9 3.3-10.6-0.6-3.1-3-5.5-5.7-6.9-4.3-2.4-9.1-3.5-13.8-4.5-12.8-2.4-25.9-3.5-38.6-6.6-9.2-2.2-18.3-5.2-26.1-10.6-7.4-4.9-13-12.4-15.5-20.9-2.4-8-2.8-16.6-1.3-24.8 1.8-9.8 7-18.9 14.4-25.6 6.9-6.4 15.4-11 24.3-14zm255.1 2.8c17.7-8.3 38.1-10.5 57.3-6.8 14.7 2.7 28.6 10.4 37.9 22.3q0-10.8 0-21.6 23.2 0 46.5 0c0 49 0.1 98.1 0 147.1-0.7 16.3-3.7 33-11.9 47.3-6.9 12.3-17.8 22.1-30.4 28.1-15.8 7.6-33.6 10-50.9 10.2-18.4 0.1-36.9-2.2-54.4-7.8-10.8-3.6-21.2-8.5-30.2-15.5 6.5-11.8 13-23.6 19.5-35.3 11.6 9.1 25.7 14.4 40 17.3 10.5 2 21.3 2.5 32 1.1 8.5-1.1 17.2-3.8 23.9-9.5 5.9-4.9 9.7-11.9 11.5-19.3 2-7.7 2-15.6 1.9-23.5-5.5 5.8-12.1 10.7-19.3 14-14.9 6.8-31.8 8-47.8 5.9-18.1-2.5-35.6-10.5-48.4-23.7-11.7-11.7-19.1-27.3-21.4-43.7-2.7-19 0.2-39.2 10.1-55.9 7.9-13.4 20-24.1 34.1-30.7zm41.5 32.3c-12.6 1.6-24.9 8.5-31.4 19.6-9 15.4-7.2 37 5.6 49.8 6.7 7 16 11 25.4 12.4 9.2 1.2 18.8 0.4 27.4-3.1 6.4-2.6 12.2-6.9 16.5-12.3 5-6.4 7.7-14.4 8.2-22.4 0.7-10-1.9-20.4-8.1-28.3-3.6-4.8-8.5-8.6-13.8-11.3-9.2-4.5-19.8-5.7-29.8-4.4zm196.8-32.3c9.5-4.9 20.1-7.5 30.8-8.3 10.3-0.7 20.7 0.1 30.7 2.9 8.4 2.4 16.5 6.4 23.2 12.1 7.4 6.1 13 14.1 16.6 22.9 5.5 12.9 6.9 27 6.7 40.9q0 46.3 0 92.6-24.6 0-49.2 0 0-44.7 0-89.5c0-9.6-1.5-19.9-7.4-27.9-4.4-6.2-11.6-10-19.1-11.1-10.6-1.6-22.2-0.1-31.3 6-7.3 4.9-12.2 12.8-14.5 21.1-2.9 9.6-2.2 19.8-2.2 29.7q0 35.8-0.1 71.7-24.5 0-49.1 0 0-84.6 0-169.2 23.5 0 46.9 0c0 6.6 0 13.1 0 19.6 5.2-5.5 11.3-10.1 18-13.5zm-731.1-6c16.9-0.1 33.8-0.1 50.7-0.1q23.7 57.3 47.4 114.6c15.8-38.2 31.7-76.4 47.6-114.6 15.8 0 31.5 0 47.3 0-26.2 61.8-52.5 123.5-78.7 185.3-6.7 15-16.2 29.6-30.6 38.3-10 6.1-21.9 8.7-33.7 9-10.1 0.4-20.3-1-29.9-4.1-7.5-2.5-14.8-6-20.8-11.2 6-11.7 12-23.4 18-35.1 7 6.1 16 10 25.3 10.7 6.4 0.4 13.2-0.6 18.4-4.6 5.9-4.4 9.4-11.2 12.1-17.8-24.3-56.8-48.8-113.6-73.1-170.4zm372.6-0.1q24.5 0 49 0 0 84.6 0 169.2-24.5 0-49 0 0-84.6 0-169.2z"/>
		<path id="Layer" class="s2" d="m71.3 110.6c6.9-1.6 14.3-0.1 20 4 5.8 4 9.8 10.6 10.6 17.6 0.9 6.4-0.8 13.1-4.7 18.3-4.8 6.5-12.8 10.4-20.8 10.3-7.6 0.1-15 3.8-19.6 9.8-4.5 5.7-6.3 13.5-4.7 20.6 2 9.3 9.6 17 18.8 19.1 3.8 1 7.8 0.3 11.7 1.3 7 1.5 13.1 6.3 16.4 12.6 3 5.5 3.9 12 2.4 18.1-1.7 7.2-6.8 13.6-13.5 16.8-6.2 3.2-13.9 3.5-20.4 0.9-9.4-3.6-16.1-13.4-16.1-23.4 0.1-7.1-3-14.2-8.3-19-3.6-3.2-8.2-5.4-12.9-6.2-2.9-0.5-5.7-0.1-8.6-0.7-7.3-1.2-13.9-6-17.5-12.5-3.9-6.7-4.4-15.2-1.4-22.3 2.3-5.6 6.6-10.3 12.1-12.9 3.7-1.9 7.9-2.7 12-2.7 6.6 0 13.3-2.2 17.9-7.1 4.9-4.9 6.9-12.1 6.7-18.9 0.2-11.3 9.1-21.3 19.9-23.7z"/>
	</g>
</svg>