<svg version="1.2" baseProfile="tiny-ps" xmlns="http://www.w3.org/2000/svg" viewBox="0 0 1671 805" width="1671" height="805">
	<title>Paytm_Logo_(standalone)-svg</title>
	<style>
		tspan { white-space:pre }
		.shp0 { fill: #233266 } 
	</style>
	<g id="layer1">
		<g id="g60">
			<path id="path62" class="shp0" d="M1670.9 30.72L1670.9 602.9C1670.9 720.72 1587 804.63 1469.13 804.63L1245.48 804.63C1228.75 804.63 1215.24 791.12 1215.24 774.39L1215.24 637.65C1215.24 620.98 1228.75 607.4 1245.48 607.4L1445.52 606.7C1446.35 606.57 1447.06 606.37 1447.83 606.24C1463.6 604.25 1475.76 590.93 1475.76 574.65C1475.76 558.18 1463.34 544.79 1447.38 542.99C1444.68 542.48 1356.28 542.48 1356.28 542.48C1238.47 542.48 1154.51 458.5 1154.51 340.75L1154.51 30.72C1154.51 14.05 1168.02 0.48 1184.75 0.48L1321.53 0.48C1338.2 0.48 1351.77 14.05 1351.77 30.72L1352.29 313.08C1352.29 330.84 1366.63 345.12 1384.39 345.12L1441.66 345.12C1459.22 345.12 1473.37 331.09 1473.7 313.59L1473.7 30.72C1473.7 14.05 1487.21 0.48 1503.87 0.48L1640.66 0.48C1657.39 0.48 1670.9 14.05 1670.9 30.72Z" />
		</g>
		<g id="g64">
			<path id="path66" fill-rule="evenodd" class="shp0" d="M328.69 0.44C438.19 0.44 514.5 76.69 514.5 186.66L514.5 379.64C514.5 489.61 438.19 565.61 328.69 565.61L197.82 565.61L197.3 773.52C197.3 790.25 183.73 803.76 167.06 803.76L27.7 803.76C12.39 803.37 0.04 789.92 0.04 773.45L0.04 166.78C0.04 166.2 0.1 165.56 0.1 164.92C0.1 164.66 0.04 164.4 0.04 164.14L0.04 30.11C0.04 13.76 13.29 0.44 29.7 0.44L328.69 0.44ZM316.66 230.61C316.66 212.85 302.31 198.57 284.61 198.57L197.82 198.57L197.82 367.74L284.61 367.67C302.31 367.67 316.66 353.26 316.66 335.57L316.66 230.61Z" />
		</g>
		<g id="g68">
			<path id="path70" fill-rule="evenodd" class="shp0" d="M862.46 1.23C1017.52 1.23 1082.37 80.7 1082.37 206.56L1082.37 725.65C1082.37 767.16 1046.28 800.88 1001.76 800.88L753.72 800.88C635.53 800.88 562.63 722.31 562.63 611.89L562.63 452.82C562.63 341.75 647.43 262.67 766.46 262.67L855.96 262.67C869.6 261.38 880.8 250.06 882.4 234.55L882.4 216.92C880.8 200.64 869.47 190.22 855.19 187.96L674.46 187.96C656.7 187.96 642.29 174.45 642.29 157.91L642.29 85.01C642.29 84.62 642.35 84.24 642.35 83.85C642.35 83.53 642.29 83.14 642.29 82.82L642.29 29.6C642.29 13.97 655.86 1.23 672.66 1.23L862.46 1.23ZM884.21 476.76C884.21 460.09 869.79 446.64 851.97 446.64L795.03 446.64C777.27 446.64 762.92 460.03 762.86 476.56L762.8 476.76L762.8 498.25L762.73 566.91C762.73 567.23 762.8 567.55 762.8 567.87L762.8 593.68C762.8 610.28 777.27 623.79 795.03 623.79L851.97 623.79C866.19 623.79 878.16 615.1 882.4 603.13C882.92 601.72 883.37 600.24 883.69 598.7C883.95 597.09 884.21 595.41 884.21 593.68L884.21 476.76Z" />
		</g>
	</g>
</svg>