<svg version="1.2" xmlns="http://www.w3.org/2000/svg" viewBox="0 0 2573 816" width="2573" height="816">
	<title>Ponce_Bank_Logo-svg</title>
	<style>
		.s0 { fill: #ffffff } 
	</style>
	<g id="#003063ff">
		<path id="Layer" fill-rule="evenodd" class="s0" d="m2398.8 273.2c20.2-2.8 40.4-5.7 60.7-8.6 0 55.9 0 111.8 0 167.8 24.4-25.3 48.7-50.7 73-76.1 9-0.1 18 0 27-0.1q-35.9 37.9-72.2 75.4c23.5 29.1 47 58.3 70.5 87.5 4.9 6.2 10.2 12.1 14.6 18.6-12.1 0.1-24.2 0-36.3 0-14.9-18.7-29.9-37.4-44.8-56.1-10.6-13-20.8-26.4-31.7-39.3-0.3 31.8 0 63.6-0.1 95.4q-15.1 0-30.3 0 0-112.3 0-224.7c0.2-8.2 0.7-17.5-5-24.1-6.2-7.4-16.5-8.3-25.4-8.8q-0.1-3.4 0-6.9zm-1537.6 0.5q39.9 0 79.8 0c21 0.2 42.2-0.8 63 2.4 15.1 2.2 30.7 7 41.9 17.9 11 10.3 15.8 25.4 16.9 40 1.1 16.6-0.7 34.4-10.5 48.3-9.2 13.2-24.4 20.5-39.7 24-25.4 5.7-51.7 4.2-77.6 4.4q0 63.6 0 127.1-17.3 0-34.5-0.1 0-108.3 0-216.7c-0.1-7.8 0.4-15.8-2.3-23.2-1.9-5-6.1-8.8-11-10.9-8.2-3.6-17.2-4.9-26-6.3q0-3.4 0-6.9zm79.1 19.7c-4.7 3.6-5 10.1-5.3 15.5 0 28.8 0 57.6 0 86.3 18.9-0.2 38.3 1.2 56.8-3.7 11-2.9 21.3-9.7 26.6-20.1 6.4-12.7 6.9-27.6 5.1-41.5-1.6-12.5-7.6-25-18.6-31.8-13.8-8.9-30.9-9.3-46.8-8.7-6 0.4-12.6 0.5-17.8 4zm903.7-18.2q44 0 88 0c21.4 0.2 43.4-1.3 64.3 4.6 14.5 3.9 28.6 12 36.5 25.2 7.3 11.9 9 26.4 7.9 40.1-1 13.3-6.3 26.4-15.7 35.8-8.3 8.6-19.3 13.9-30.7 16.8 16.6 3.5 33.6 9.9 44.9 23.2 12.6 14.3 16.2 34.4 14.9 53-1 15.4-6.9 31-18.6 41.6-13.2 12.1-30.9 17.6-48.3 20.2-12 1.7-24.1 2.1-36.2 2q-34.3 0.1-68.5 0 0-105.3 0-210.7c-0.1-9.2 0.6-18.7-2.2-27.6-1.5-5.2-5.9-9.1-10.9-11-8.1-3.2-16.9-4.6-25.4-6.3q0-3.4 0-6.9zm78.9 18.6c-5.7 3.7-5.8 11.2-6.1 17.2-0.1 26.8 0 53.5-0.1 80.2 16.1-0.2 32.5 1.1 48.3-2.8 10.4-2.5 20.7-7.4 27.6-15.9 6.6-7.9 9.5-18.2 9.9-28.4 0.3-9.7-0.8-19.7-5-28.5-3.6-7.9-10.1-14.4-17.8-18.2-11.3-5.7-24.2-6.9-36.7-6.7-6.8 0.1-14-0.2-20.1 3.1zm-6.2 112.9c0.1 32.2 0 64.3 0.1 96.4 0.2 6.1 0.9 14.2 7.5 16.8 8.6 3 17.8 2.2 26.7 2.3 16.6-0.2 34.2-3.1 47.6-13.7 9.5-7.6 15.1-19.3 16.6-31.3 1.3-11.1 0.7-22.7-2.9-33.3-4.2-13.1-14.5-23.7-27-29.1-21.5-9.7-45.6-7.8-68.6-8.1zm-784.1-55c19.7-2.3 40.7 0 57.8 10.7 15.7 9.5 26.8 25.4 32.4 42.7 7 20.9 7.6 43.4 4.8 65.1-2.6 19.4-9.8 39.3-24.5 52.9-14.7 13.8-35.4 19.1-55.1 18.9-18.7 0.4-38.1-5.1-52.5-17.4-14.4-12-23.1-29.5-27-47.5-3.7-17.1-3.7-34.9-1.7-52.2 2.4-18.7 8.4-37.6 21.4-51.7 11.3-12.5 27.8-19.5 44.4-21.5zm2.8 16c-9.9 2-18.8 8.2-24.2 16.7-8.2 12.5-10.5 27.8-11.6 42.5-1.3 21.9-1.1 44.4 6 65.3 3.7 10.6 9.4 20.9 18.8 27.4 10.5 7.4 24.4 8.5 36.6 5.3 10.2-2.7 18.8-10 23.8-19.1 7.8-14 9.8-30.2 10.6-45.9 0.6-21.4 0.2-43.4-7.7-63.6-3.9-10.1-10.4-19.6-20.1-24.9-9.7-5.4-21.5-6-32.2-3.7zm97.3-7.3q30.2-4.8 60.3-9.5c0.1 17.5-0.1 35.1 0.1 52.6 6.2-14.4 14.9-28.2 27.2-38.3 10.2-8.6 23.3-14 36.7-14.2 9.9-0.2 20.1 0.6 29.2 4.8 6.5 3.1 12 8.4 15 15 4.2 9.1 4.6 19.4 4.8 29.2q0 68.9 0 137.7-15.3 0.1-30.5 0 0-65.3 0-130.7c-0.3-9.2-0.1-19.2-5.2-27.3-4.3-6.9-12.9-9.2-20.6-9.3-9.9-0.5-19 4.8-26.2 11.2-10.8 10.1-18.8 22.9-24.4 36.6-3.4 8.5-6.1 17.5-6.1 26.8q0 46.4 0 92.7-15.3 0-30.5 0 0-67.3 0-134.7c-0.1-8.7 1.2-18.6-4.6-26-5.8-7.7-16.2-8.9-25.2-9.8q0-3.4 0-6.8zm238.3 0.6c15.6-9.2 34.4-11.1 52.1-9.6 16.2 1.7 32.5 7.7 43.8 19.7 7.8 7.9 12.7 18.7 12.7 29.9-12.3 0-24.5 0-36.8 0 0.1-9.3-2.3-19.1-9-25.8-6.4-6.6-16-8.9-24.9-8.7-9.9 0-19.8 4.6-26.1 12.3-8.7 10.3-12 23.9-13.3 37.1-2 23 1.8 46.7 12.2 67.5 8.6 17.2 23 32 41.4 38.6 15.5 5.9 32.6 5.3 48.6 2.1q0.1 5.9 0 11.7c-20.4 6.5-42.4 7.7-63.6 4.8-18.9-2.8-37.6-10.8-50.3-25.4-13.7-15.6-19.7-36.3-21.6-56.6-1.8-20.6-1.1-41.8 6-61.4 5.2-14.8 15-28.3 28.8-36.2zm184.9-9c17.8-2.3 36.9-1.6 52.9 7.4 12.7 6.9 21.9 19 26.2 32.7 3.6 10.6 4.2 22 4 33.1q-57.3 0-114.5 0c-1.2 22.7 5.1 45.7 17.6 64.7 7.1 10.9 16.6 20.5 27.9 27 11.5 6.7 24.8 10 38 9.6 9-0.2 17.7-2.5 26.2-4.7q0 6.6 0.1 13.3c-12.7 4.2-26.1 5.9-39.4 6.7-20.2 1.1-41.3-1.3-59-11.5-14.6-8.3-25.8-21.8-32.3-37.1-9.2-21.6-10.5-45.5-8.8-68.6 1.5-18.3 6.2-37.2 18.4-51.4 10.6-12.5 26.7-19.1 42.7-21.2zm-20.1 28.9c-6.8 8.8-9.8 19.9-10.9 30.8 26.5 0.1 53.1 0 79.6 0 0.6-11-1.9-22.6-8.7-31.5-4.9-6.7-12.5-11.5-20.7-13.1-14.2-2.5-30.4 2-39.3 13.8zm486.2-26.6c10.4-2.3 21.2-2.6 31.9-2.1 10.9 0.6 22.1 2.7 31.6 8.3 6.6 4 12.1 9.8 15.5 16.7 5 10.1 6.4 21.6 6.7 32.7q0 63.9 0 127.8-15.1 0.1-30.2 0c0-8.1 0-16.3 0-24.4-9.4 11.3-21.1 21.5-35.4 25.8-17.1 5.2-37.4 4.1-51.5-7.8-15.9-13.5-19.2-38-10.7-56.5 6.8-14.6 21.5-23.4 36.3-28.4 19.7-6.6 40.6-8.2 61.3-8.7-0.1-10.2 0.1-20.5-0.1-30.7-0.6-10.1-1.6-21.1-8-29.5-5.6-7.5-15.4-10.4-24.5-10-8.8-0.3-18.2 2.4-24.1 9.4-5.9 6.8-7.5 16.1-8.2 24.9-11.6-0.1-23.3 0-34.9-0.1 0.8-9.9 3.8-19.8 10-27.8 8.3-10.8 21.2-16.9 34.3-19.6zm10.3 104c-9 3.9-17.4 10.4-21.1 19.8-4.8 12.2-2.3 27.3 6.9 36.8 6.9 6.9 17.5 9.2 26.9 7.1 8.3-1.7 15.4-7 20.4-13.5 6.8-8.8 10.7-19.6 11.9-30.6 0.4-9.3 0.1-18.6 0.2-28-15.3 0.7-31 2.2-45.2 8.4zm85.7-97c20-3 40-6.3 60-9.4 0 17.5-0.1 35 0 52.5 5.7-13.2 13.3-25.7 23.9-35.5 8.4-7.8 18.7-13.6 30-15.8 7.6-1.5 15.5-1.4 23.1-0.5 8.5 1.1 17.2 3.7 23.6 9.6 6.1 5.6 9.2 13.6 10.5 21.5 1.8 11 1 22.2 1.1 33.3q0 60.4 0 120.7-15.1 0-30.2 0.1 0-61.4 0-122.8c-0.1-9.4 0.3-18.9-2.2-28-1.7-6.2-6.2-11.6-12.3-13.7-8.1-2.8-17.3-2.8-25 1-11.4 5.4-19.9 15.3-26.7 25.6-8.1 13-14.6 27.6-15.8 43-0.1 31.6 0 63.2 0 94.8q-15.1 0-30.3 0 0-71.3 0-142.7c0.1-6.9-1.3-14.4-6.5-19.2-6.2-6-15.1-6.8-23.2-7.6q0-3.4 0-6.9z"/>
		<path id="Layer" fill-rule="evenodd" class="s0" d="m462 300.9c10-8.2 17.6-18.9 23.9-30.1 3.2 16 3.8 32.9-1.3 48.6-3.8 11.4-12.2 21.4-23.4 26-17.8 7.3-38.9 5.5-55.4-4.2-16.3-9.5-29-24.4-37.8-41 16 10.2 34.8 17.1 54 16.4 14.6-0.5 28.9-6.2 40-15.7zm-113.8 22.8c14.7 10.3 25.7 26.1 29.1 43.8 2.8 14.8 0.4 30.1-5 44.1-5.2 13.7-15.9 25.3-29.5 31.1-18.3 7.7-38.9 6.8-58 3.3-11.9-2.2-23.7-5.6-35-10.2 5.7-6.1 13-10.5 20.8-13.3 3.6-1.5 7.5-0.8 11.3-1.3 17.3-1.1 35.3-6 48.4-17.9 11.6-10.2 17.9-25.2 19.9-40.3 1.7-13.1 0.8-26.4-2-39.3zm98-291.6c38.4 15.4 74.9 37 104.1 66.6 7 6.8 13.4 14.1 19.9 21.3 2.8 3.1 7.5 2.6 11.1 1.3 8.1-2.8 15-8.1 21.7-13.3 17.9-14.2 33.4-31 49.1-47.5q-36.4 41.6-72.8 83.2c-27.6-44.1-68.6-78.7-114.5-102.5-6.1-3.3-12.6-5.7-18.6-9.1zm220.6 36.7c5.8 22.8 10.4 45.9 14.1 69.1 4.3 28 7.7 56.4 6.6 84.7-15.5 19.7-30.9 39.4-46.3 59 3.8 8.7 7.8 17.2 11.6 25.9-4.9 8.2-9.5 16.7-14.6 24.9 2.1-8.8 4.4-17.5 6.5-26.3q-14-17.2-28.1-34.4c-7.6 17.8-16.1 35.5-28 51 14.5 1.3 29.1 2.5 43.6 3.9-3 6-6 12-9 18 12.9 18 25.7 36.1 38.6 54.1-9.8 0-21 2-27.2 10.4 1 4.7 2.5 9.9 6.8 12.6 1.7 1 4.1 2 5.9 0.5 7.4-4.8 15.6-9.1 24.7-9.6 3.4 4.4 7 8.8 10.5 13.2-8.4 3.5-16.8 7.5-23.3 14 4.7 5.7 9.5 11.2 14.2 16.9-7.2 6.5-14.6 12.9-21.9 19.3q3.3 5.8 6.5 11.7c-5.1 1.6-10.2 3.3-15.4 5.1 3.8 6 7.7 12 11.6 18-7.1 8.7-16.1 15.6-25.4 21.8-7.4-2-11.2-9.5-11.7-16.7q-4.2 3-8.4 5.9c5.9 10.2 15.2 18.5 26.5 22.2 4.6 1.5 9.4 2.1 14.2 2.4q21.8 24.7 44.1 49.1c12.4 13.3 24.6 26.9 38 39.3-1.5 2.3-3.5 4.4-6 5.7-6.5 3.5-13.8 5.2-21 6.7-27.2 5.7-55.6 2.2-82-5.5 7.6 17.1 3.7 37.5-7 52.3 0.5-12.6 0.1-25.3-2.1-37.8-1.4-7-3.2-14.2-7.4-20.1-2.7-4-7.2-6.9-12.1-6.9-5.3 0.2-10 2.8-14.4 5.4-2.7-4.4-5.4-9.6-10.6-11.5-3.6-1.1-6 2.8-7.3 5.6-3.4 8.3-4.1 17.5-5 26.4-5.3-3.6-11.3-8.2-11.9-15-0.3-5.7 4.2-9.8 8.3-13-1.2-2.7-2.8-5.6-5.8-6.5-3.8-1.2-7.8 0.5-11.1 2.4-5.5 3.3-10.2 7.9-14.7 12.5-0.9-4.2-1.5-10.1-6.4-11.5-6.1 0.3-9.6 6.1-13.3 10-0.1-5.4 0.9-11.4 4.9-15.3 2.1-2.4 5.1-3.6 8-4.7-8.4-2.2-17.8-1.4-25.1 3.6-7.8 5-12.4 13.3-15.9 21.6-3.1-2.9-6.1-6.2-7.5-10.4-1.8-4.4-1.3-9.4 0.3-13.8-8.2-4-17.5-7-26.6-5.2-6.4 1.2-11.9 5.3-15.4 10.7-3.8 5.5-5.6 12.1-7 18.6-7.8-1.7-16.2-5.2-20.1-12.6-3-5.4-2.2-11.9-0.5-17.6-9-3.6-19.9-3.8-28.4 1.4-5.6 3.2-9.6 8.4-12.7 13.9-9.4-3.6-16.6-12.3-17.1-22.4-5.5-1.7-11.7-1.9-16.6 1.2-4.7 2.7-7.5 7.5-9.6 12.4-10.1-3-18.3-11.3-21.3-21.5-5.6-2.7-12.5-3.2-18.2-0.3-8.9 4.3-14.4 13.2-18.6 21.8-10.4-9.6-20.2-22.6-18.6-37.5-4.5-3.7-10.4-0.6-13.9 3-2.4-5.1-5.5-10.6-11.2-12.3-4.6-1.4-8.8 1.4-12.3 4 3.2 4.3 6.7 9.6 5.1 15.3-1.4 4.3-5.8 6.4-9.6 8-4.6-2.9-9.7-6.3-15.5-5.6-3.9 0.6-6.1 4.3-7 7.8-1.9 7.6-0.7 15.6 0.4 23.3 3.3 17.9 7.4 35.9 14.4 52.7 5.5 13.5 13 25.9 20 38.5-24.6 14.6-49.1 29.5-73.8 43.8 20.1-15.7 40.6-31.1 60.9-46.7-10.3-18.7-18.7-38.6-24.6-59.1-4.3-15.2-7.4-30.9-7.3-46.8 0.3-14.4 6.2-28.8 17.2-38.3 4.9-4.4 10.7-7.9 16.8-10.2-47.5-3.4-94.9-9.5-141.5-19.3-4.1-0.9-8.2-1.7-12.3-2.9 13.5 1.6 26.9 4.1 40.4 5.8 48.7 6.7 98 9.1 147.1 8.1 82.4-2.3 164.3-28.7 231.6-76.4 6.7-4.8 13.2-9.8 19.3-15.2 0.2 18.5 8.2 36.5 20.9 49.9 10.8 11.6 25.1 19.2 39.4 25.8 17.8 8 36.8 14.3 56.5 14.5-32.6-14.6-64.6-32.8-89.3-59.1-9.4-10.3-18-21.8-22.5-35.2 12.5-10.7 23.2-23.3 33.4-36 14.2-18.1 27.1-37.1 39.3-56.6 9.2-14.8 17.8-30 25.4-45.7 17.2-35.6 31.1-72.7 43.9-110.1 15-44.2 28.2-88.9 39.9-134.1zm-80.8 300.4q2.6 5.2 5.2 10.4c-5.6 4.7-12.7 8.5-20.2 7.5-5.3-0.5-9.9-3.7-13.7-7.3-7.9 15.6-15.9 31.1-23.9 46.7-0.8 1.1 0.3 2.4 0.7 3.4 6.7 14.6 19.2 25.9 33.7 32.6 3-8.5 7.6-16.5 13.1-23.6 1.1 13.2 5.4 26.1 11.9 37.7 10.5-6.6 18.5-16.9 22.1-28.8 5.2-17 4-35.6-1.1-52.6-6.5-8.8-13.7-17.2-20.4-25.9q-3.7-0.1-7.4-0.1zm-505.1-191.2c20.7-48.2 57.2-88.7 100.5-117.8-28.7 20.6-54.4 45.9-73.4 75.8-22.8 35.5-36.4 76.8-39 119-2.3 37.1 3.1 74.8 16.5 109.6 13.3 35 34.1 66.6 57.5 95.7-32.8 17-65.5 34.2-98.4 50.9 21.4-13.8 43.3-27 64.8-40.6 4-2.7 8.4-6.3 8.4-11.6-0.3-5.6-2.9-10.8-5-15.9-6.9-15-14.4-29.8-21-45-16.1-36.7-27.2-75.9-29.1-116.1-1.7-35.4 4.2-71.4 18.2-104zm189.9-59.3c31.9-16.1 67.5-24.7 103.2-25.5 51.3-1.1 102 12.7 148.3 33.9-24.3-10-49.4-17.9-75.3-22.3-30.3-5.2-61.5-5.5-91.6 0.8-4.3 1.2-9.4 2-12.4 5.6-1.5 1.8 0.5 3.9 1.9 5 6.2 4.5 13.7 6.5 20.8 8.9 23 6.9 46.6 11.3 70.1 15.7-19.6-2.6-40.5-3.1-59 5.1-16.6 7-29.1 21.8-35.3 38.6-9.1 24-9.2 50.3-6.5 75.5 1.2 10.2 3 20.3 5.3 30.3-14.5-10.5-24.3-26.8-28-44.2-4.2-19.5-2.7-39.9 2.6-59-31 3.8-64.6-3.6-88.4-24.6 2.4 8.6 2.6 17.6 2.8 26.5-0.4 22.4-2.9 44.7-6.5 66.7 19.3 1 38.9 2.6 57.5 8.2 9.8 3.1 19.8 7.2 27 14.8 3.7 3.7 6 8.7 6.1 13.9-11.6-5.6-24.5-7.7-37.3-8.5-20.5-0.9-41.7 1.7-60.5 10.4-12.7 5.8-24.4 15.2-30 28.3-6.1 14-4.7 30.2 0 44.4 4.9 14.2 16.1 25.8 30 31.5 8.5 3.7 17.8 5.4 27.1 5.8-6-15.9-10-33.5-6.5-50.5 2.8-13.5 11.9-25.3 24-31.8 14.1-7.8 30.9-10.5 46.8-8.1 4.9 0.8 10.3 2.3 13.3 6.6 10 12.4 19.2 27.5 17.6 44.2-1.3 13.3-11.2 23.9-22 30.9-16.1 10.2-34.6 15.8-53.1 19.6-4.2 0.9-8.6 1-12.6 2.8-9.5 3.9-18.2 9.6-26.1 16.2 25 9.9 50.9 18.2 77.8 20.6 18.8 1.6 39-0.4 55.1-11 13.5-8.8 22.1-23.6 25.9-39 4.8-19.3 4.2-39.5 0.5-58.9 18 9.2 37.2 17.1 57.5 18.6 13.7 1 28-2.3 38.7-11 12.5-10.2 19.5-25.5 23.4-40.8 5.6-22.6 6-46.1 3.9-69.2 11.3 11.2 18.2 25.8 24.8 40.1 9.5-12.7 15-27.7 20.7-42.4 10-26.6 17.6-54 25.3-81.3-3.8 41-13.5 81.4-27.8 120-14.2 37.9-33.6 74.1-59.4 105.5-22.5 27.4-50.1 50.8-81.5 67.5-36.6 19.9-78.2 30.6-119.9 30.4-22.4 0.3-44.7-2.3-66.6-6.8-21.3-4.6-42.4-11-62.4-19.9-4.5-1.8-7.7-5.6-10.7-9.2-6.8-8.9-12.2-18.8-17.1-28.9-17.3-36.4-27.7-76.3-29.5-116.6-2.1-43.2 7.4-87.6 30.8-124.4-6.8 30.3-9.8 62.4-2.6 92.9 14.4-31.9 34-61.4 57.2-87.5 23.4-26.1 51.1-48.6 82.6-64.4zm102.8 64c9.4-8.2 22.2-11.5 34.4-11.2 9.8 0.2 19.6 2.2 28.8 5.6-16.5 0.3-33.7 3.6-47.4 13.3-14.9 10.3-24.2 26.9-28.8 44-4.3 16-5.2 32.7-4 49.1-3.2-20.6-4.8-41.8-1.6-62.6 2.4-14.1 7.6-28.6 18.6-38.2zm-130.9 5.6c16.5 10 35.7 15.8 55 16-4.4 19.3-2 40.3 7.5 57.9-19.1-11.8-42.1-15.7-64.3-15.2 2.5-11.1 4.1-22.5 4.6-33.9 0.2-8.3-0.1-16.8-2.8-24.8zm221.4 21.8c15.3 0.8 31-0.2 45.6-5-14.2 14.2-25.6 31-34.6 48.9-7.1 13.3-14.6 27.1-26.8 36.4-9.9 7.7-23 10.6-35.4 9.3-14-1.2-27.4-6.1-40.1-12-3.2-16.9-1.9-35.6 7.5-50.4 6.9-11 18.2-18.6 30.4-22.6 17.1-5.8 35.5-5.9 53.4-4.6zm211.8 85c6.2-19.7 11.3-39.9 12.8-60.6 0.1 23.4-5.1 46.4-11.4 68.8-3.8 13.7-8.2 27.5-8 41.8 0.7 13.7 7.9 26 15.8 36.8 6.4 8.5 13.6 16.3 21.4 23.5-2.3 3.2-4.5 6.5-6.8 9.8 0.8-2.5 2.7-5 2.2-7.7-1.5-2.9-3.6-5.3-5.6-7.8-11.2-13.4-23.6-25.7-35.8-38.3-2.9-2.9-5.8-5.9-8.9-8.6 9.5-18.6 17.9-37.8 24.3-57.7zm-441.8 3c14.7-4.2 30.3-4 45.3-2.3 13.7 1.8 27.2 4.7 40.1 9.6-21-4.4-43.8-4.6-63.7 4.3-16.1 7.1-28.7 21.3-34 38-4.7 15.5-1.2 32.4 7 46.1-6.1 0.3-11.3-3.2-15.9-6.7-11.5-9.3-20.2-23-20.7-38.1-0.6-12.2 4.8-24 12.7-33.1 7.5-8.8 18.1-14.7 29.2-17.8zm443.9 139.1c5.2-5.7 10.5-11.4 15.9-16.9-3.1 6.4-6.9 13.2-5.4 20.5 0.7 3.4 3.5 5.7 6.5 7-7.1 8.3-13 17.7-17.4 27.8-2.1 4.9-3.2 10.7-1 15.8 1.3 3.5 4 6.1 6.9 8.3-3.9 10.3-5.5 21.4-6.2 32.3-0.9 14.6 4.8 28.6 11.2 41.4 5.5 10.8 12.4 20.7 19.5 30.4-17.8-20.2-35.3-40.6-52.9-61 4-13.7 12-25.8 19.3-37.9-4.3-7.2-8.8-14.4-13.2-21.7 6.5-8.4 13-16.8 19.4-25.3q-1.5-2.6-2.9-5.2c1.8-2.9 3.7-5.7 5.5-8.6q-2.6-3.5-5.2-6.9zm-494.3 163.4c12.3 12.1 22.4 28 23.3 45.7-7.1-2.2-12.7-7.7-16.1-14.1-5.4-9.6-6.9-20.8-7.2-31.6zm107.6 27.3c8.3 11.3 14.8 24.2 17.6 38 2 9.3 1.7 19.1-1.6 28.1-11.4-19.9-16.5-43.3-16-66.1zm-42.3 4.5c10.5 9.6 15.6 23.7 17.4 37.6 1 7.3 1.1 14.8 0.4 22.1-12.3-17.1-20.1-38.5-17.8-59.7zm103 7.8c8.9 10.7 17 23.5 17.5 37.9 0.3 9.3-5.8 17.6-13.8 21.9-2.8-10.9-4.8-22.1-5.9-33.3-0.8-8.8-1.3-18.1 2.2-26.5zm60.9 69.6c-4.8-22-5.4-46.2 4.5-66.8 7.1 13 11.2 28.3 8.7 43.1-1.6 9.1-6.5 17.4-13.2 23.7zm50.8-37.9c-0.1-10.3 3.5-20.4 9.2-29 8.1 12.2 13.6 26.4 14.5 41.1 0.6 9.8-1.3 19.6-5.7 28.4-10.5-10.7-18.1-25.2-18-40.5zm51.1 6c0-7.5 1.3-15.4 5.6-21.7 11.6 19 14.3 44.2 3.6 64.1-5.2-13.5-8.9-27.8-9.2-42.4zm-299.4-17.4c9.1 9.5 16.5 23.8 10.9 36.9-8.4-10.1-13.6-23.7-10.9-36.9zm360.7 81.9c-16-19.7-19.2-47.1-14.3-71.3 12.9 21.1 18 46.8 14.3 71.3zm-318.3-32.4c4.9-4.8 11.7-9 18.8-7.4 7.1 1.6 11.7 7.9 15.1 13.9-11.5 4.4-24.7 6.6-36.4 2-13.5 3.6-28.5 0.7-39.2-8.3 12.1-9.2 28.9-6.5 41.7-0.2zm107.2-7.1c8.6-2.2 17.4 1.3 24.9 5.4 7 3.9 13.4 8.7 19.4 13.9 5-7.4 13.8-11.6 22.7-11.2 15.4 0.4 29.8 7.5 42.5 15.7 2.7-5.3 8.5-8.8 14.5-7.9 11.2 1.5 20.5 8.7 28.8 15.8 4.8-4.5 11.4-8.3 18.2-6.5 8.4 2.5 13.5 10.5 17.2 17.9 5.2-4.3 12.5-6.3 19.1-4.1 10.4 3.3 18.2 11.6 25 19.8 7.8 10.1 15 20.9 19.2 33.1-37.4-14.6-75.6-26.9-114.4-37-57.6-14.9-116.6-25.4-176.1-26.4-4.5-0.3-9-1.3-12.9-3.4-5.4-2.9-8-8.7-11.5-13.4 2.8-5.3 8.3-8.8 14.3-9.2 12.9-1.1 25.5 3.5 36.9 9 2.6-5.1 6.4-10 12.2-11.5z"/>
	</g>
</svg>