<svg version="1.2" xmlns="http://www.w3.org/2000/svg" viewBox="0 0 1602 227" width="1602" height="227">
	<title>logo - 2022-09-23T111037</title>
	<defs>
		<clipPath clipPathUnits="userSpaceOnUse" id="cp1">
			<path d="m0 0h1601.41v227h-1601.41z"/>
		</clipPath>
		<clipPath clipPathUnits="userSpaceOnUse" id="cp2">
			<path d="m0 0h1601.41v227h-1601.41z"/>
		</clipPath>
		<clipPath clipPathUnits="userSpaceOnUse" id="cp3">
			<path d="m0 0h1601.41v227h-1601.41z"/>
		</clipPath>
		<clipPath clipPathUnits="userSpaceOnUse" id="cp4">
			<path d="m0 0h1601.41v227h-1601.41z"/>
		</clipPath>
	</defs>
	<style>
		.s0 { fill: #00634e } 
		.s1 { fill: #eb5b2b } 
	</style>
	<g id="Clip-Path" clip-path="url(#cp1)">
		<g id="Layer">
			<path id="Layer" fill-rule="evenodd" class="s0" d="m176.2 226.6v-31.7c38 0 36.4-12.4 36.4-21.7v-119.8c0-8.9 1.6-21.7-36.8-21.7v-31.7h226.2c20.5 0.8 39.9 7.3 51.9 25.1 13.9 22.5 10.8 58-3.1 79.3-26.7 31-75.9 27.5-123.9 27.5v41c0 8.5-1.6 20.5 32.5 21.2h11.2v32.5zm172.8-130.7c22 0 34.4-9.3 34.4-31.3 0-20.9-13.5-32.1-34.1-32.1h-22.4v63.4c0 0 22.1 0 22.1 0z"/>
		</g>
	</g>
	<g id="Clip-Path" clip-path="url(#cp2)">
		<g id="Layer">
			<path id="Layer" fill-rule="evenodd" class="s0" d="m467.5 226.6v-31.7c37.9 0 36.4-12.4 36.4-21.7v-17.4l0.4-102.4c0-8.9 1.1-21.7-36.8-21.7v-31.7h273v88.2h-58.1v-41c0-16.3-5.8-14.7-22.1-14.7h-29.8c-16.3 0-22.1-1.6-22.1 14.7v32.8c0 16.3 5.8 14.7 22.1 14.7h23.6v37.6h-23.6c-16.3 0-22.1-1.6-22.1 14.7v32.8c0 16.3 9.7 14.7 26 14.7h8.9c7.3 0 15.1 0.4 22.1-2.3 5-2.3 7.7-11.6 10-18.6l7.4-25.9h57.3v78.5zm386.1-63.8c-5 13.6-7.7 16.6-8.5 25.5 0 2.4 2.3 4.7 4.3 5.8 8.9 0.8 36 0.8 36 0.8v32.1h-134.8v-32.1c13.6 1.2 27.9-0.4 36-11.2l6.2-10.8 63.1-172.9h143.3l75.9 169.8c3.9 8.1 6.2 17.4 14.4 22.4 5.4 2.3 12.4 1.6 18.2 2.3 0 10.1 0.4 32.5 0.4 32.5h-181.7v-32.1c9.7 0 21.7 0 30.6-0.8q0.9-0.4 1.6-0.9 0.7-0.6 1.3-1.4 0.6-0.8 0.9-1.6 0.4-0.9 0.5-1.9c-0.8-8.8-3.5-11.9-8.5-25.5 0 0-99.2 0-99.2 0zm45.7-128l-33.7 95.5h74zm218.4 160.5c38 0 36.4-12.3 36.4-21.6l0.4-119.9c0-8.9 1.2-21.7-36.8-21.7v-32.1h216.9c28.3 0 68.1 5.8 68.1 56.9 0 32.5-24 44.1-34.4 51.8 19.7 7 41.8 22 41.8 54.5 0 36.8-20.1 63.4-80.5 63.4h-211.9zm172 0c22 0 34.4-9.2 34.4-31.3 0-20.9-13.5-32.1-34-32.1h-26.4v63.4zm0-99.3c22.1 0 34.5-9.3 34.5-31.4 0-20.8-13.6-32.1-34.1-32.1h-26.3v63.5c0 0 25.9 0 25.9 0z"/>
		</g>
	</g>
	<g id="Clip-Path" clip-path="url(#cp3)">
		<g id="Layer">
			<path id="Layer" class="s1" d="m0 123.4h194.8l-0.4 34.4v5.4h-194.4v-39.8zm0-59.6h194.8v39.8h-194.8zm194.4-20.1h-194.4v-39.8h156.1c0 37.1 3.1 32.1 32.1 33.3 4.7 0 5.4 3.8 6.2 6.5zm-6.2 147.4c-31.4 1.9-32.1-6.6-32.1 31.7h-156.1v-39.9h194.4c-0.8 2.8-1.5 8.2-6.2 8.2z"/>
		</g>
	</g>
	<g id="Clip-Path" clip-path="url(#cp4)">
		<g id="Layer">
			<path id="Layer" class="s1" d="m1427.1 183.3h174.3v39.8h-199.8c16.6-8.5 21.7-22.4 25.5-39.8zm-12.7-59.9h187v39.8h-172.3c-0.8-18.2-5.1-30.9-14.7-39.8zm6.5-59.6h180.5v39.8h-202.5c10.4-7.3 18.9-18.5 22-39.8zm180.5-20.1h-180.5c-2.7-21.3-4.6-29-20.1-39.8h200.6c0 0 0 39.8 0 39.8z"/>
		</g>
	</g>
</svg>