<svg version="1.2" xmlns="http://www.w3.org/2000/svg" viewBox="0 0 1579 1579" width="1579" height="1579">
	<title>WEBCAST-SLIDES-4Q-FY-2021-Earnings-Release-(1)-1-pdf-svg</title>
	<defs>
		<clipPath clipPathUnits="userSpaceOnUse" id="cp1">
			<path d="m-30885.84-1724.2h38976.1v21922.4h-38976.1z"/>
		</clipPath>
	</defs>
	<style>
		.s0 { fill: #f37321 } 
		.s1 { fill: #ffffff } 
	</style>
	<g id="Clip-Path: Page 1" clip-path="url(#cp1)">
		<g id="Page 1">
			<ellipse id="Path 1" class="s0" cx="789.4" cy="789.8" rx="789.2" ry="789.1"/>
			<path id="Path 2" class="s1" d="m512.9 122.6l149.3 250.2-13.3-293.9 118.5 487.3 22-500.6 43.7 289.8 96.9-276.5-74.9 496 210.8-452.3-70.3 285.6 197.5-219.5-259 425.7 368.8-338-175.4 237 263.1-127.3-403.7 298.5 469.4-171.2-249.8 149.2 293.9-13.3-487.3 118.5 500.6 22-289.8 43.7 276.5 96.9-496-74.9 451.9 210.8-285.2-70.3 219.5 197.5-425.7-263.1 338 372.9-237-175.5 127.2 263.2-298.5-403.7 171.3 469.4-149.3-249.9 13.4 294-140.6-487.3v500.6l-44.1-289.8-96.4 276.5 74.8-496-210.8 451.9 70.3-285.2-197.5 219.5 263.2-429.9-373 342.2 175.5-237-263.2 127.2 403.7-298.5-469.8 171.3 250.3-149.2-294 13.3 487.3-118.5-500.6-22.1 289.8-44-276.5-96.5 496.1 74.8-452.4-210.7 285.6 70.2-219.5-197.5 425.8 263.2-338.1-372.9 237 175.4-127.2-263.1 298.5 403.7z"/>
		</g>
	</g>
</svg>