<svg version="1.2" xmlns="http://www.w3.org/2000/svg" viewBox="0 0 1507 688" width="1507" height="688">
	<title>logo (14)-svg</title>
	<defs>
		<clipPath clipPathUnits="userSpaceOnUse" id="cp1">
			<path d="m0 0h1506.27v687.15h-1506.27z"/>
		</clipPath>
		<clipPath clipPathUnits="userSpaceOnUse" id="cp2">
			<path d="m0 0h1506.27v687.15h-1506.27z"/>
		</clipPath>
	</defs>
	<style>
		.s0 { fill: #ff4612 } 
		.s1 { fill: #203643 } 
	</style>
	<g id="Layer">
		<g id="Layer">
			<g id="Clip-Path" clip-path="url(#cp1)">
				<path id="Layer" class="s0" d="m43.7 406.7c1.3 4.8-5.6 8.4-7.6 3.7-14.2-32.7-38.6-85.8-33.2-154.2 7.9-100.3-2.9-139.4-2.9-139.4 0 0 45.7 27.9 37.8 120.2-6.4 76.2-6.9 121.2 5.9 169.7zm178.4 269.3c7.2-36 0.2-75.8-49.4-110.5-84.1-59-114.3-133.5-114.3-208.7 0-167.3 130.9-255.6 129.8-356.8 78 99.1-95.5 223.5-95.5 361 0 72.8 21 129.4 84.5 180.6 11.6 9.3 21.1-0.9 12.1-8.2-39.9-32.1-73.1-73.6-73.1-149.3 0-96 66.3-161.5 150.9-206.4 31.2-16.6 73.2-44.1 90.3-75.5 10.5 47.3-10.3 73.9-53.5 106-29.1 21.7-152.9 74.4-152.9 195.7 0 72.7 41.8 106.8 77.6 132.6 13.4 9.7 26.4-1.6 8.3-13.1-34-21.7-64.2-60.7-64.2-107 0-77.3 56.8-145 175.1-130.8 19.2 2.3 39.7 4.9 53.3-1.3 0 6-10.1 50.6-72.1 43.8-131.3-14.4-143.4 144-59.6 151.4 60.5 5.4 76.9-56.5 82.7-82.7 10.1-45.6 37.6-60.3 51.4-64.4-1.6 123.3-86.8 286-146.7 340.6-14.4 13.2-38 22.5-34.7 3z"/>
			</g>
		</g>
		<g id="Layer">
			<g id="Clip-Path" clip-path="url(#cp2)">
				<path id="Layer" fill-rule="evenodd" class="s1" d="m717.8 327.3c-12 0-21.7-9.6-21.7-21.5 0-11.9 9.7-21.5 21.7-21.5 12 0 21.6 9.6 21.6 21.5 0 11.9-9.6 21.5-21.6 21.5zm712.5 134.3c0 19.4 1.4 28.1 6.5 36.3-13.4 5.9-39 8.5-44.7-9.7-13.2 8.7-25.2 16.6-46.8 16.6-30.9 0-48.7-18.1-48.7-47.8 0-44.4 47.7-53.8 92.3-53.8 0-15.5-0.4-28-27.7-28-17.1 0-30.1 6-45.2 14.6-6.1-7-9.8-17.6-9.8-21.6 0-11.8 29.9-23.6 61.7-23.6 42.8 0 62.5 16 62.5 58.3zm-41.4-35.9c-12.9 0-31.4 2.1-41.4 8.8-16 10.7-14.8 40.6 12.1 40.6 11.3 0 20.6-4.5 29.3-12.7zm-374.7-22.9v58.7c0 19.5 1.4 28.2 6.5 36.3-13.5 6-39 8.5-44.7-9.6-13.3 8.6-25.2 16.5-46.8 16.5-30.9 0-48.7-18.1-48.7-47.8 0-44.4 47.7-53.8 92.3-53.8 0-15.5-0.4-28-27.7-28-17.2 0-30.1 6-45.2 14.7-6.1-7.1-9.9-17.6-9.9-21.7 0-11.8 29.9-23.5 61.8-23.5 42.8 0 62.4 15.9 62.4 58.2zm-41.3 22.9c-13 0-31.4 2-41.4 8.8-16 10.7-14.8 40.5 12.1 40.5 11.3 0 20.5-4.4 29.3-12.7zm-301.5-76.6c0 52.6-36.6 74.5-86 74.5h-16.2v54.9c0 16.1-8.8 23.3-26.6 23.7-2.7 0.3-14.4-0.4-16.7-1.2v-216.8h57.3c46 0 88.2 15 88.2 64.9zm-44.6 2.2c0-32.3-27.2-37.9-57.6-35v76.4c29.4 0 57.6-0.7 57.6-41.4zm112.6 127.1c0 16.2-8.8 23.4-26.6 23.8-2.7 0.3-14.4-0.5-16.7-1.2v-129.3c0-16.2 8.8-23.4 26.5-23.8 2.8-0.3 14.5 0.5 16.8 1.2zm489.8-59.1c0-19.5-0.4-24.8-1.9-29-6.8-18.5-45.7-12.9-45.7 6v82.1c0 16.2-8.8 23.4-26.5 23.8-2.8 0.3-14.5-0.5-16.8-1.2v-81.7c0-19.4-0.4-24.8-1.9-29-6.8-18.4-45.7-12.9-45.7 6v82.2c0 16.1-8.8 23.3-26.5 23.8-2.8 0.2-14.5-0.5-16.8-1.3v-151.9c17.8-2.5 37.4-2.3 41 15.1 17.3-24.5 76.2-30.1 87.5 6.6 10.4-19.9 33.5-27.8 55.5-25.9 37.3 3.2 41 33.7 41.2 70.9v62.6c0 16.2-8.8 23.4-26.5 23.8-2.8 0.3-14.5-0.5-16.8-1.2v-81.7c0 0-0.1 0-0.1 0zm-456.5-70.2c17.1-2.8 37.4-1.8 41.4 14.9 21.9-29.1 59.2-21.3 59.2-3.6 0 8.2-5.1 22.2-10.5 31-21.7-18.2-46.8-6.5-46.8 10.2v76.8c0 16.1-8.7 23.4-26.5 23.8-2.7 0.3-14.4-0.5-16.8-1.2zm733.5 129.3c0 16.1-8.8 23.3-26.5 23.8-2.7 0.2-14.4-0.5-16.8-1.3v-192.9c0-16.7 9.6-23.8 28.7-23.8 3.5 0 12.6 0.6 14.6 1.2z"/>
			</g>
		</g>
	</g>
</svg>