<svg version="1.2" xmlns="http://www.w3.org/2000/svg" viewBox="0 0 1525 1309" width="1525" height="1309">
	<title>PEL-svg</title>
	<style>
		.s0 { fill: #ffffff } 
	</style>
	<g id="Group_1">
		<g id="PeninsulaEnergyLimited_Logo_RGB">
			<path id="Path_21" class="s0" d="m724.6 461.7c-40.4 15.7-77.6 38.9-109.5 68.3-31.9 29.4-58.1 64.5-77.1 103.5-19.1 39.1-30.6 81.3-34.1 124.6h-81.1c14.4-217.9 189.8-390.3 407.7-400.6 217.8-10.3 408.7 144.6 443.7 360.2 35 215.6-97.1 423.2-306.9 482.5-209.9 59.3-430.8-48.5-513.5-250.6l75.2-30.9c48.7 118.8 158.9 201.1 286.5 214 127.6 13 251.9-45.5 323.4-152.2 71.6-106.6 78.7-244 18.6-357.5-60.2-113.4-177.8-184.5-306.1-184.8-43.3-0.2-86.3 7.8-126.8 23.5zm-69.4-166.2c-62.4 24.7-119.5 61.1-168.3 107.2-48.8 46.1-88.4 101-116.7 161.9-28.3 61-44.8 126.7-48.6 193.8h-81c10.3-213.7 131.7-406.3 319.8-507.6 188.2-101.2 415.5-96.3 599.1 12.9 183.6 109.3 296.7 307 297.8 520.9 1.2 213.9-109.6 412.8-292.1 524.1l-41.6-69.2c99.3-59.3 176.4-149.6 219.3-257.1 43-107.5 49.5-226.1 18.5-337.6-31-111.6-97.7-209.8-189.9-279.6-92.2-69.8-204.8-107.3-320.3-106.7-67.1-0.2-133.6 12.3-196 37zm-67.7-162c-83.7 33.9-160.2 83.5-225.3 146.3-65.1 62.8-117.6 137.4-154.7 220-37 82.5-57.9 171.4-61.5 261.9h-81.1c5.1-142.8 48.8-281.5 126.5-401.3 77.6-119.9 186.3-216.4 314.4-279.2 128-62.9 270.8-89.7 412.9-77.7 142.1 11.9 278.3 62.3 394.1 145.8l-48.4 66c-29.8-21.6-61.3-40.8-94.1-57.4-32.8-16.7-66.9-30.8-102-42.1-35-11.3-70.8-19.8-107.2-25.5-36.4-5.7-73.1-8.5-109.9-8.4-90.4 0.1-179.9 17.7-263.7 51.6z"/>
			<path id="Path_24" class="s0" d="m851.2 319.7c146.6 0.4 284.3 70.3 371.4 188.4 87.1 118.2 113.2 270.6 70.3 411.1-42.8 140.4-149.4 252.3-287.5 301.6-138.1 49.3-291.4 30.2-413.2-51.5l-18.4 27c186.8 126.2 435 110.6 604.6-38 169.5-148.6 218-392.9 117.9-595.2-100-202.2-323.4-311.6-544.2-266.4-220.7 45.1-383.5 233.5-396.4 458.8h33.5c3.6-58.4 18.1-115.6 42.9-168.6 24.8-53 59.4-100.9 101.9-141 42.5-40.1 92.3-71.8 146.5-93.4 54.3-21.6 112.2-32.8 170.7-32.8zm-238.8-125.1c-76 30.5-145.3 75.4-204.4 132.1-59 56.8-106.7 124.3-140.4 199-33.7 74.7-52.8 155.2-56.2 237.1h-33.6c7.4-174.3 81.8-339 207.7-459.5 125.9-120.6 293.5-187.7 467.6-187.2 174.2 0.4 341.4 68.4 466.7 189.6 125.2 121.2 198.8 286.3 205.2 460.6h-33.5c-3-82.2-21.8-163.1-55.3-238.3-33.6-75.1-81.2-143.1-140.4-200.2-59.1-57.1-128.7-102.2-204.9-133-76.2-30.8-157.6-46.6-239.7-46.6-81.8 0-162.9 15.8-238.8 46.4zm-336.6 12.6c-48.9 48.5-91.6 103-126.9 162.2-35.3 59.2-63 122.7-82.4 188.8-19.4 66.2-30.4 134.5-32.7 203.5h-33.5c2.3-71.9 13.7-143.1 33.9-212.1 20.2-69 49-135.1 85.8-196.8 36.7-61.8 81.1-118.6 132.1-169.2 51-50.6 108.1-94.5 170.1-130.7l17 29c-59.6 34.7-114.4 76.8-163.4 125.3z"/>
		</g>
	</g>
</svg>