<svg version="1.2" xmlns="http://www.w3.org/2000/svg" viewBox="0 0 1694 266" width="1694" height="266">
	<title>bank-polska-kasa-opieki-sa-svg</title>
	<style>
		.s0 { fill: #e50000 } 
		.s1 { fill: #000000 } 
	</style>
	<g id="#e50000ff">
		<path id="Layer" class="s0" d="m432.4 0.2q4.7 0.1 9.4 0.1c0 17.7 0 35.4-0.1 53.1c0 36.9 0.1 73.8 0 110.7c-0.1 34 0.1 67.9-0.1 101.9h-9.2q0-132.9 0-265.8z" />
		<path id="Layer" class="s0" d="m59.8 25.9c18.5-13.2 39.9-23.1 62.8-25c19.7-1.7 39.6 3.2 56.8 12.8c17.7 9.7 32.8 23.7 45.3 39.5c2.9 3.7 5.7 7.5 8.2 11.6c22.5-3.2 46.1-2.8 67.4 6c24.3 9.8 43.4 31.3 50.4 56.5c4.4 16.3 3.9 34-1.5 49.9c8.7 5.4 15.9 13.4 19.7 23c4.6 11.2 4.9 23.8 3 35.7c-1.6 9.8-4.5 19.3-8.5 28.3q-0.4 0.9-1.2 1.5c1.1-14.2 0.3-28.9-4.5-42.5c-5.9-17.7-18.9-33.3-36-41.1c4.2-14.6 6.8-29.9 5.5-45.1c-1-11.7-4.9-23.3-12-32.7c-5.5-7.3-12.8-13.2-20.8-17.5c-10.2-5.6-21.4-8.9-32.8-10.8c-11.7-2-23.7-2.6-35.6-1.9c-15.7-16.2-34.7-30-56.5-36.7c-17.6-5.4-36.7-5.5-54.5-0.9c-20.1 5.2-38.4 15.7-55.1 27.8c-2.9 1.8-5.5 4.2-8.7 5.6c1.2-2.3 2.9-4.3 4-6.5c6.4-11.2 8.5-25.1 4.6-37.5zm-59.8-22.8c12 2.4 24.5 6.2 33.5 15c6.6 6.3 9.7 15.7 9.1 24.7c-0.8 12.8-6.4 24.7-13.4 35.2q14.1 40.6 28.2 81.2c16.7-6 34.8-11 52.6-7.4c13.4 3.3 26.4 10.6 34.1 22.3c6.8 10.1 8.8 22.7 8 34.6c-1 16.3-6.2 32.1-12.9 46.9c-1.3 2.7-2.3 5.6-4.1 8c1.1-15 2.2-30.3-0.3-45.3c-1.4-8.8-4.1-17.6-9.4-24.9c-5.2-7.3-13.3-12.2-21.9-14.4c-12.9-3.3-26.5-1.1-38.7 3.4c-11.6 4.3-22.5 10.5-32.3 18c-10.2-43.8-20.4-87.7-30.6-131.5c8.3-5.7 16.4-12.5 20.8-21.8c3.1-6.6 3-14.5-0.2-21.1c-4.7-9.8-13.4-16.8-22.5-22.4zm229 182.5c9.2-9.8 21.7-16.7 35.1-18.3c10.8-1.3 21.8 1.1 31.5 5.7c10.5 5 19.1 13.9 23.5 24.7c4 9.8 4.6 20.8 2.9 31.2c-1.8 11.5-6.1 22.5-11.2 32.9c-0.3 0.7-0.9 1.3-1.5 1.8c2.8-14.6 2.9-30.1-2.3-44.1c-3.7-10.2-10.7-19.2-19.9-25c-7.8-5.1-17.8-6-26.9-4c-15.4 3.3-28.2 13.5-38.8 24.8c-3.7-6.2-8.9-11.8-15.4-15c-5.3-2.6-11.5-3-17.1-1.2c0.7 21.5-4.9 43.1-15.3 61.9c-1 1.6-1.6 3.6-3.2 4.7c3.2-16.8 4.3-34.4 0.4-51.3c-2.2-9.2-6.3-18.3-13.1-25.1c7.4-8.3 17-15 27.8-17.8c8.6-2.3 17.8-1.6 25.9 2c6.6 2.8 12.5 7.2 17.6 12.1z" />
	</g>
	<g id="#000000ff">
		<path id="Layer" fill-rule="evenodd" class="s1" d="m906.7 38.6q13.4 0 26.8 0c0 35.5 0.1 71 0 106.5c4.2-0.2 9.5 1 12.6-2.6q19.1-21.7 38.1-43.5c2-2.3 5-3.3 8-3.3c8.3-0.1 16.5 0 24.7 0q-18.9 21.3-37.8 42.6c-4.3 4.5-7.7 9.9-13.1 13.3c4.6 3.2 7.3 8.1 10.6 12.4q21.4 29.2 42.9 58.5c-8-0.1-16.1 0-24.1-0.1c-3.1 0-6.4-0.8-8.3-3.4c-12.4-16.8-24.8-33.6-37.2-50.4c-1.4-2-2.9-4.3-5.4-4.9c-3.6-0.7-7.3-0.2-11-0.4q0 29.6 0 59.2q-13.4 0-26.8 0c0-61.3 0-122.6 0-183.9zm434 0q13.4 0 26.8 0q0 53.3 0 106.5c4.2-0.2 9.4 1.1 12.5-2.5c12.6-14.4 25.2-28.7 37.6-43.1c2.1-2.5 5.2-3.8 8.5-3.8c8.2-0.1 16.5 0 24.8 0q-21.3 24-42.6 48c-2.4 3.1-5.1 5.8-8.3 7.9c3.4 2.4 5.8 5.7 8.1 9.1c15.1 20.6 30.2 41.2 45.4 61.8c-8.1-0.1-16.2 0-24.2-0.1c-3 0-6.2-0.7-8.1-3.2c-13-17.6-26-35.2-39-52.8c-1.2-1.7-3-2.7-5-2.9c-3.2-0.3-6.5-0.1-9.7-0.2q0 29.6 0 59.2q-13.4 0-26.8 0q0-92 0-183.9zm-827.2 4.9q28.7 0 57.4 0c13.9-0.1 28.2 1.1 41.1 6.7c8.3 3.5 15.9 9.4 20.2 17.5c4.4 8.1 5.8 17.5 5.2 26.7c-0.7 9.4-5.3 18.3-12.3 24.6c-5.6 5.1-12.4 8.7-19.6 11.1c9.7 2.3 19.6 5.8 26.9 12.9c5.9 5.6 9.5 13.4 10.4 21.5c1.2 11.3-0.9 23.2-7.2 32.8c-5.4 8.7-13.9 15.1-23.2 19c-10.5 4.5-22 6.1-33.3 6.2q-32.8 0-65.6 0q0-89.5 0-179zm29.2 22.8c-0.1 18.6 0 37.2 0 55.9q11 0 21.9 0c8.5 0 17.1 0.1 25.2-2.4c6.1-1.8 11.8-5.5 15.1-11c3.9-6.4 4.3-14.2 3.2-21.4c-0.9-6.1-4-12-9.2-15.3c-7-4.5-15.5-5.5-23.6-5.7c-10.9-0.1-21.7 0-32.6-0.1zm0 76.4q0 28.3 0 56.6q18.2 0 36.4 0c6.4 0.1 12.9-0.7 18.8-3.2c6-2.5 11.4-7.1 13.9-13.2c2.6-6.3 3.2-13.4 1.8-20.1c-1.6-7.1-6.6-13.2-13.2-16.2c-8-3.7-17-4-25.7-3.9q-16 0-32 0zm543.1-99.2q28.4 0.1 56.7 0c13.1 0.1 26.4 2 38.3 7.7c9.1 4.2 17.1 11.1 22 19.9c5.7 10.2 7.5 22.3 6.7 34c-0.8 11.4-4.8 22.8-12.3 31.5c-8.2 9.7-20 15.6-32.1 18.6c-16.5 3.9-33.5 2.1-50.1 2.6q-0.1 32.3-0.1 64.7c-9.7-0.1-19.4 0-29.2-0.1c0.1-59.6 0.1-119.2 0.1-178.9zm29.2 22.8q-0.1 34.2 0 68.3q9.7 0.1 19.4 0.1c5.6-0.1 11.3 0.2 16.9-0.8c7.7-1.2 15.4-4.3 20.8-10c7-7.3 9.2-17.9 8.4-27.7c-0.5-7.9-3.7-15.9-9.8-21.2c-7.4-6.3-17.4-8.3-26.9-8.6c-9.6-0.1-19.2 0-28.8-0.1zm-437.4 33.2c10.8-4.8 22.9-6.7 34.8-6c9.3 0.5 18.6 3.6 25.7 9.7c10.5 8.9 15.3 23 15.6 36.4q0 41.4 0 82.9c-5.1-0.2-10.1 0.2-15.2-0.3c-2.9-0.3-4.9-2.7-5.8-5.4c-1.1-3.5-1.8-7-2.7-10.6c-5.4 4.8-11.1 9.3-17.5 12.6c-7.1 3.8-15.2 5.4-23.3 5.6c-9.4 0.3-19.4-1.6-26.9-7.6c-7.3-5.8-11.2-15.1-11.4-24.4c-0.6-8.5 2.9-17.1 9-23c6.3-5.9 14.3-9.7 22.4-12.4c14.6-4.9 30.1-6.3 45.4-6.6c-0.1-8.3 0.7-17.1-3.1-24.8c-2.7-5.6-8.5-9.4-14.6-10.3c-7-0.9-14.3-0.3-20.7 2.6c-4.9 1.9-9.3 4.8-13.7 7.5c-2.5 1.5-5.6 2.1-8.5 1.3c-2.7-0.8-4.6-3.2-5.9-5.6q-2.1-3.9-4.3-7.7c6.1-5.7 13-10.5 20.7-13.9zm15.4 72.5c-4.8 1.5-9.7 3.6-13.1 7.5c-4.3 4.9-4.5 12.5-1.6 18.1c2.4 4.5 7.2 7.1 12 7.7c6.5 0.9 13.2 0.2 19.4-2c6.9-2.7 12.8-7.5 18-12.8q0-11.7 0-23.5c-11.7 0.5-23.5 1.4-34.7 5zm139.4-77.5c10.7-1.7 22.3-0.9 31.7 4.8c7.3 4.1 12.8 11 15.9 18.7c3 7.4 4.2 15.5 4.3 23.4c0 27-0.1 54 0 81c-8.9 0.1-17.8 0-26.7 0.1c0-26.8 0-53.6 0-80.4c0-6.7-1.1-13.7-5.2-19.2c-2.9-4.1-7.5-6.6-12.4-7.5c-7-1.2-14.5-0.3-21 2.7c-6.1 2.9-11.4 7.2-16.1 12q0 46.2 0 92.4q-13.4 0-26.8 0q0-63.4 0-126.8c5.7 0 11.4-0.1 17.2 0c2.8 0.1 5.3 2.2 5.9 4.9c0.8 3.9 1.3 7.9 2 11.8c8.4-8.8 19.1-15.9 31.2-17.9zm409.7 5.7c10.5-5.5 22.6-7.2 34.4-6.2c11.3 0.9 22.5 5 30.9 12.8c9.8 8.8 15.3 21.7 16.7 34.6c0.5 5.3 1 10.6-0.1 15.8c-0.4 2.6-3 4.2-5.4 4c-27.2 0-54.4 0-81.6 0c0.4 10.4 2.8 21.2 9.2 29.6c3.3 4.4 7.9 7.9 13.2 9.9c6.6 2.6 13.9 2.9 20.9 2.2c8.9-0.9 17.1-5 24.7-9.5c2.3-1.4 5.1-2.2 7.7-1.3c2.3 0.9 3.4 3.2 4.9 5c1.6 2.4 3.8 4.5 5.2 7.1c-8 9.6-19.8 15.3-31.9 18.1c-12.1 2.5-25 2.9-37-0.3c-9.9-2.6-19.2-7.9-26.2-15.4c-9.1-9.7-14.4-22.6-16.3-35.6c-1.9-13.9-1.3-28.5 4.1-41.5c5-12.5 14.5-23.2 26.6-29.3zm7.5 20.1c-7.1 6.1-10.5 15.4-11.9 24.4q31.5 0 62.9 0c0-8.2-2.4-16.9-8.1-23c-5.3-5.8-13.3-8.6-21.1-8.5c-7.7-0.2-15.9 1.8-21.8 7.1zm229.1-20.6c11.1-5 23.4-6.9 35.5-6.2c9.2 0.5 18.4 3.7 25.5 9.7c7.7 6.5 12.5 16 14.4 25.8c1.7 8.3 1.1 16.7 1.2 25.1q0.1 34.2 0 68.4c-5.1-0.2-10.2 0.3-15.3-0.4c-3.2-0.3-5.2-3.2-5.9-6c-0.9-3.3-1.7-6.6-2.6-9.9c-5.6 5-11.5 9.7-18.2 13c-9.1 4.5-19.4 5.8-29.3 5c-9.1-0.7-18.3-4.2-24.2-11.4c-5-6-7.4-13.9-7.3-21.6c-0.4-9 4-17.9 11-23.6c7.2-5.9 16-9.4 24.8-11.9c13.3-3.9 27.2-5 41-5.3c0-6.5 0.4-13-1.2-19.2c-1-4.4-3.1-8.7-6.6-11.6c-3.6-3-8.4-4.4-13-4.6c-5.7-0.3-11.4 0.2-16.6 2.4c-5.2 2-9.9 5-14.6 7.9c-2.5 1.6-5.6 2.2-8.4 1.5c-2.7-0.8-4.6-3-5.9-5.3c-1.5-2.8-3.1-5.5-4.5-8.2c6-5.5 12.8-10.2 20.2-13.6zm16.1 72.2c-4.6 1.5-9.1 3.4-12.6 6.8c-6.9 6.7-5.3 20.1 3.4 24.6c5.9 3.1 12.8 2.7 19.2 1.8c9.7-1.5 17.8-7.8 24.5-14.6c0.1-7.8 0-15.7 0-23.5c-11.6 0.5-23.4 1.4-34.5 4.9zm88-54.9c9.7-13.7 26-21.8 42.6-23c11.9-1 24.2 0.4 35.2 5.4c9.7 4.5 18.1 11.8 23.6 21c6.6 10.7 9.5 23.3 9.8 35.8v5.8c-0.4 14.6-4.4 29.4-13.5 40.9c-8.6 11.1-21.7 18.2-35.4 20.4c-17.4 2.7-36.3 0.2-50.7-10.6c-13.4-9.8-21.1-26-23-42.3c-2.1-18.3 0.4-38.1 11.4-53.4zm43.6-2.1c-6.9 0.9-13.6 4-18.2 9.3c-6.1 7.2-8.6 16.8-9.5 26c-0.8 9.5-0.6 19.1 1.9 28.4c1.9 7.1 5.4 14 11.3 18.6c4.9 3.9 11.2 5.7 17.4 6c6.6 0.5 13.4-0.3 19.4-3.3c4.5-2.3 8.3-6 10.9-10.4c4-6.7 5.7-14.5 6.4-22.2c0.6-7.5 0.5-15.1-0.8-22.5c-1.4-8.4-4.5-16.9-10.8-22.8c-7.4-6.9-18.3-8.3-28-7.1z" />
	</g>
</svg>