<svg version="1.2" xmlns="http://www.w3.org/2000/svg" viewBox="0 0 1540 201" width="1540" height="201">
	<title>logo (11)dsdsd-svg</title>
	<style>
		.s0 { fill: #ed1c24 } 
	</style>
	<g id="#ed1c24ff">
		<path id="Layer" fill-rule="evenodd" class="s0" d="m0 1h151c33.1-1.5 64.2 26.9 64.3 60.3 1.9 32.2-26.2 62-58.2 62.8-37 0.6-74 0.1-111 0.2 0.3 25.6 0.1 51.2 0.1 76.7h-46.2zm46.1 46.5q0.2 15.1 0 30.3c36-0.1 71.9 0 107.9-0.1 7 0.9 12.6-4.8 14.9-10.9 2.6-9.1-5.1-19.7-14.6-19.2-36.1-0.2-72.1 0.1-108.2-0.1z"/>
		<path id="Layer" class="s0" d="m243.2 1h182.5c0.1 15.5 0 31 0.1 46.6-45.5-0.2-91 0.1-136.5-0.2q0 15.2-0.1 30.4c43.6-0.1 87.2 0.1 130.7-0.1 0.1 15.6 0 31.1 0 46.7-43.5-0.1-87.1 0-130.7-0.1q0.1 15.4 0 30.7c107.1 0.1 214.2-0.1 321.3-0.1 8.9 0.9 16.6-8.2 15.4-16.8-0.8-7.5-7.6-14.4-15.4-13.7-36.2-0.3-72.4 0.3-108.7-0.2-32.3-0.5-60.9-30.7-59-63.2-0.1-31.6 28-59.2 59.2-60h386c0.2 15.5 0.1 31 0.1 46.6-25.6-0.2-51.2 0.1-76.8-0.2 0.1 51.2 0.1 102.4 0.1 153.6h-46c-0.1-51.2 0-102.4 0-153.6-86.9 0.5-173.9-0.2-260.8 0-9.3-0.5-17.6 9-15.6 18.2 1.8 8.1 10.1 13.6 18.2 13 35.4 0 70.8-0.2 106.2 0 32.1 0 60 30.3 58.6 62.3 0.3 31.1-26.9 59-57.8 60.1h-371q-0.1-100 0-200z"/>
		<path id="Layer" class="s0" d="m916.2 1h182.3c0.1 15.5 0.1 31 0.1 46.5-45.5-0.1-91 0.2-136.4-0.1q0 15.2 0 30.4c43.5-0.1 87 0.1 130.5-0.1 0.1 15.6 0.1 31.1 0.1 46.7-43.6-0.1-87.1 0-130.6-0.1q0 15.3 0 30.5c46-0.3 92 0 138-0.1-0.1 15.4-0.1 30.9-0.1 46.3h-183.9c0-66.7 0-133.3 0-200z"/>
		<path id="Layer" class="s0" d="m1189.1 1h123.5c0 15.5 0 30.9 0 46.3-40.3 0.1-80.6 0-120.9 0-8.8-0.5-17.5 7-17.4 16-0.1 25.1-0.1 50.2 0 75.3-0.4 8.1 6.3 16.6 14.8 16.3 41.2 0.3 82.3 0 123.5 0.1 0 15.3 0 30.7 0 46h-126.3c-29.9-1.1-56.6-27.1-57.9-57.1-0.5-20.9 0-41.9-0.2-62.9 0.1-13.3-1.1-27.3 3.9-40 8.7-23.2 32.2-39.7 57-40z"/>
		<path id="Layer" class="s0" d="m1340.8 1h45.9c0.1 25.6 0.1 51.2-0.1 76.8 35.8-0.1 71.5 0 107.3 0-0.2-25.5-0.1-50.9-0.1-76.3 15.4 0 30.8 0 46.2 0v199.5h-46.2c0-25.5-0.2-51.1 0.1-76.7-35.7 0-71.5 0.1-107.3 0 0.2 25.6 0.1 51.2 0.1 76.7h-45.9q-0.2-100 0-200z"/>
	</g>
</svg>