<svg version="1.2" xmlns="http://www.w3.org/2000/svg" viewBox="0 0 1550 1550" width="1550" height="1550">
	<title>logo (33)-svg</title>
	<style>
		.s0 { fill: #54b947 } 
		.s1 { fill: #fffffe } 
		.s2 { fill: #165830 } 
	</style>
	<rect id="Layer" class="s0" width="1550" height="1550" rx="155"></rect>
	<path id="Layer" fill-rule="evenodd" class="s1" d="m189.1 461.9h89.9l6.2 43.4c24.8-24.8 52.7-52.7 96.1-52.7 68.2 0 120.9 52.7 120.9 167.4 0 127.1-68.2 179.8-142.6 179.8-24.8 0-46.5-3.1-71.3-12.4v96.1l-102.2 18.6c3-4.2 3-440.2 3-440.2zm-3 440.2q-0.1 0-0.1 0zm164.2-353.4c-21.7 0-40.3 12.4-58.9 34.1v127.1c15.5 6.2 24.8 9.3 46.5 9.3 34.1 0 62-27.9 62-93 3.1-52.7-18.6-77.5-49.6-77.5zm483.6 108.5h-201.5c6.2 52.7 37.2 74.4 83.7 74.4 37.2 0 74.4-12.4 111.6-34.1l9.3 71.3c-37.2 24.8-80.6 37.2-133.3 37.2-102.3 0-173.6-52.7-173.6-173.6 0-108.5 68.2-176.7 158.1-176.7 102.3 0 148.8 77.5 148.8 173.6 0 12.4 0 21.7-3.1 27.9zm-148.8-133.3c-27.9 0-49.6 24.8-52.7 77.5h105.4c-3.1-52.7-21.7-77.5-52.7-77.5zm328.6 279c-71.3 0-120.9-24.8-120.9-111.6v-145.7h-43.4v-83.7h43.4v-99.2l102.3-15.5v114.7h77.5v83.7h-77.5v127.1c0 27.9 12.4 40.3 40.3 40.3 9.3 0 18.6 0 24.8-3.1l12.4 83.7c-15.5 9.3-31 9.3-58.9 9.3zm220.1 3.1c-52.7 0-102.3-15.5-139.5-34.1l12.4-77.5c40.3 24.8 89.9 40.3 127.1 40.3 27.9 0 43.4-9.3 43.4-24.8 0-18.6-9.3-24.8-55.8-37.2-83.7-21.7-120.9-43.4-120.9-108.5 0-62 46.5-105.4 130.2-105.4 46.5 0 89.9 9.3 124 24.8l-12.4 77.5c-37.2-18.6-77.5-31-111.6-31-24.8 0-37.2 9.3-37.2 21.7 0 12.4 9.3 21.7 55.8 34.1 89.9 24.8 120.9 46.5 120.9 108.5 3.1 71.3-46.5 111.6-136.4 111.6z"/>
	<path id="Layer" fill-rule="evenodd" class="s2" d="m303.8 1122.2l-3.1-21.7c-15.5 15.5-31 24.8-55.8 24.8-27.9 0-49.6-18.6-49.6-49.6 0-43.4 31-62 102.3-68.2v-3.1c0-15.5-9.3-21.7-27.9-21.7-18.6 0-40.3 6.2-58.9 12.4l-6.2-40.3c21.7-9.3 46.5-15.5 74.4-12.4 49.6 0 74.4 15.5 74.4 62v120.9zm-6.2-86.8c-37.2 6.2-46.5 18.6-46.5 34.1q0 18.6 18.6 18.6c9.3 0 21.7-6.2 31-12.4-3.1-3.1-3.1-40.3-3.1-40.3zm151.9 89.9c-37.2 0-65.1-15.5-65.1-58.9v-77.5h-24.8v-46.5h24.8v-55.8l55.8-9.3v65.1h40.3v46.5h-40.3v68.2c0 15.5 6.2 21.7 21.7 21.7 6.2 0 9.3 0 12.4-3.1l6.2 46.5c-6.2 0-15.5 3.1-31 3.1zm220.1-3.1v-111.6c0-12.4-6.2-21.7-18.6-21.7-9.3 0-21.7 6.2-31 15.5v117.8h-55.8v-266.6l55.8-9.3v117.8c15.5-15.5 31-24.8 52.7-24.8 34.1 0 49.6 21.7 49.6 55.8v127.1zm155 3.1c-48 0-86.8-41.6-86.8-93 0-51.4 38.8-93 86.8-93 48 0 86.8 41.6 86.8 93 0 51.4-38.8 93-86.8 93zm34.1-91.6c0-26.7-15.2-48.2-34.1-48.2-18.9 0-34.1 21.5-34.1 48.2 0 26.6 15.2 48.2 34.1 48.2 18.9 0 34.1-21.6 34.1-48.2zm269.7 88.5v-111.6c0-12.4-6.2-21.7-18.6-21.7-9.3 0-18.6 6.2-27.9 15.5v117.8h-55.8v-111.6c0-12.4-6.2-21.7-18.6-21.7-9.3 0-18.6 6.2-27.9 15.5v117.8h-55.8v-179.8h49.6l3.1 24.8c15.5-15.5 34.1-27.9 55.8-27.9 24.8 0 37.2 12.4 43.4 27.9 15.5-15.5 34.1-27.9 55.8-27.9 34.1 0 49.6 21.7 49.6 55.8v127.1zm232.5-77.5h-108.5c3.1 27.9 18.6 40.3 43.4 40.3 18.6 0 40.3-6.2 58.9-18.6l6.2 40.3c-18.6 12.4-43.4 21.7-71.3 21.7-52.7 0-93-27.9-93-93 0-58.9 37.2-93 83.7-93 55.8 0 80.6 40.3 80.6 93zm-80.6-71.3c-15.5 0-24.8 12.4-27.9 40.3h55.8c0-24.8-12.4-40.3-27.9-40.3z"/>
</svg>