<svg version="1.2" xmlns="http://www.w3.org/2000/svg" viewBox="0 0 1551 466" width="1551" height="466">
	<title>logo-pb-svg</title>
	<style>
		.s0 { fill: #ffffff } 
	</style>
	<g id="Layer_2">
		<g id="Layer_1-2">
			<path id="Layer" fill-rule="evenodd" class="s0" d="m359.9 243.7v-169h63c33.8 0 54 18.6 54 49.9 0 31.2-20.3 49.6-54.2 49.6h-38.3v69.5zm61.9-92.3c20.5 0 30.5-8.7 30.5-26.8 0-18.1-9.9-27.1-30.3-27.1h-37.6v54zm69.3 92.3v-119.8h22v9c5-6.9 14.1-11.1 24.9-11.1q1.7 0 3.4 0.2 1.7 0.1 3.4 0.3 1.7 0.2 3.4 0.6 1.6 0.3 3.3 0.8l0.6 0.1-4.6 23.2-0.6-0.2q-1.5-0.5-3-0.9-1.5-0.3-3.1-0.6-1.5-0.2-3.1-0.4-1.5-0.1-3.1-0.1c-13.7 0-20.2 9.3-20.2 29.3v69.5zm123.5 3.4c-35.3 0-59-25.4-59-63.3 0-37.8 23.7-63.2 59-63.2 35.2 0 58.9 25.4 58.9 63.2 0 37.9-23.7 63.3-58.9 63.3zm0-104.9c-21.7 0-35.2 16-35.2 41.6 0 25.7 13.5 41.7 35.2 41.7 21.7 0 35.1-16 35.1-41.7 0-25.6-13.5-41.6-35.1-41.6zm85.6 101.5v-98.8h-21.2v-20.9h21.2v-21.1c0-17.6 11.5-28.2 30.7-28.2h18.9v21.4h-15.5c-6.8 0-10.7 2.9-10.7 9.4v18.5h31v20.9h-31v98.9zm116.8 3.3c-34.4 0-57.5-25.4-57.5-63.2 0-37.2 23.5-63.3 57.3-63.3 33.4 0 55.9 24.4 55.9 60.6v9.8h-89.1c0.9 20.9 14.5 35.4 33.2 35.4 15.2 0 24.1-5.6 34.2-21.4l0.4-0.5 18.5 12.1-0.3 0.4c-10.8 19.7-29 30.1-52.6 30.1zm32-74.1c-1.1-19-14-31.7-32.2-31.7-4.2 0-8.4 0.8-12.3 2.4-3.9 1.6-7.5 3.9-10.5 6.8-3 3-5.5 6.4-7.2 10.3-1.7 3.8-2.6 8-2.8 12.2zm135.2 38.6c0 21.6-18.1 35.5-46 35.5-26 0-44-10.9-51.4-30.5l17.6-11.4c5.8 16 16.1 21.2 33.8 21.2 14.2 0 23.1-5.3 23.1-13.9 0-10.6-9.4-15.1-30.3-21.3-26.3-7.4-41.6-15.6-41.6-35.5 0-20.3 18.3-35.1 43.6-35.1 21.7 0 40.6 10 47.6 27.8l-17.2 11.6c-3.9-13.7-16.9-18.7-30.4-18.7-12.7 0-20.9 5.5-20.9 13.9 0 6.8 6.2 10.6 26.5 16.2 28.9 8.4 45.6 17.7 45.6 40.2zm108.6 0c0 21.6-18 35.5-46 35.5-25.9 0-44-10.9-51.4-30.5l17.6-11.4c5.8 16 16.1 21.2 33.8 21.2 14.2 0 23.1-5.3 23.1-13.9 0-10.6-9.4-15.1-30.3-21.3-26.4-7.4-41.6-15.6-41.6-35.5 0-20.3 18.3-35.1 43.6-35.1 21.7 0 40.6 10 47.6 27.8l-17.2 11.6c-4-13.7-16.9-18.7-30.4-18.7-12.7 0-20.9 5.5-20.9 13.9 0 6.8 6.2 10.6 26.4 16.2 29 8.4 45.7 17.7 45.7 40.2zm17.5-87.6h23.4v119.8h-23.4zm0-49.3h23.4v23.4h-23.4zm99.9 172.4c-35.2 0-58.9-25.4-58.9-63.3 0-37.8 23.7-63.2 58.9-63.2 35.2 0 58.9 25.4 58.9 63.2 0 37.9-23.6 63.3-58.9 63.3zm0-104.9c-21.7 0-35.1 16-35.1 41.6 0 25.7 13.4 41.7 35.1 41.7 21.7 0 35.2-16 35.2-41.7 0-25.6-13.5-41.6-35.2-41.6zm155.2 101.5v-73.7c0-17.4-10-27.8-26.7-27.8-16.8 0-27.9 11.2-27.9 27.8v73.7h-23.4v-119.7h22.5v9.8c7.4-7.8 20.6-13.2 33-13.2 27.9 0 45.8 18.1 45.8 46v77.2zm82.3 3.3c-24.3 0-39.9-13.7-39.9-34.8 0-20.3 12-31 42.7-38.2 21.2-5.2 28-9.6 28-17.7 0-9.5-8.2-15.3-21.3-15.3-14.4 0-24.3 8.4-27.2 23l-0.1 0.6-22.7-4.7 0.1-0.6c4.2-23.6 23.7-38.8 49.9-38.8 28.1 0 45.6 15.8 45.6 41.1v82.1h-21.6v-10.6c-6.7 8.8-18.9 13.9-33.5 13.9zm31.9-65.8c-2.8 4.5-9.8 7.9-23.1 11.4-18.8 4.7-25.8 9.6-25.8 18.2 0 9.9 7 15.3 19.7 15.3 17.2 0 29.2-9.5 29.2-23.1zm47.1-106.5h23.4v169h-23.4zm-1166.7 387.9v-157.8h63.9c28 0 46.9 16.7 46.9 41.5 0 14.1-6.4 25.8-17.2 31.5 14.3 5.8 23.1 19.7 23.1 37.2 0 31.1-19.9 47.6-57.6 47.6zm59.2-22.5c23.1 0 33-7.6 33-25.3 0-17-9.7-24.2-32.6-24.2h-35.1v49.5zm0.9-70.3c17.7 0 26.3-7 26.3-21.5 0-14-8.8-21.1-26.3-21.1h-35.5v42.6zm111.1 96.1c-24.2 0-39.9-13.6-39.9-34.8 0-20.3 12-31 42.7-38.2 21.2-5.2 28-9.5 28-17.7 0-9.4-8.1-15.3-21.3-15.3-14.3 0-24.3 8.4-27.2 23l-0.1 0.6-22.7-4.7 0.1-0.6c4.2-23.5 23.7-38.8 49.9-38.8 28.1 0 45.6 15.8 45.6 41.1v82.1h-21.6v-10.6c-6.7 8.8-18.9 13.9-33.5 13.9zm31.9-65.8c-2.8 4.5-9.8 7.9-23.1 11.5-18.8 4.6-25.8 9.5-25.8 18.1 0 9.9 7 15.3 19.7 15.3 17.2 0 29.2-9.5 29.2-23.1zm125 62.5v-73.7c0-17.4-10-27.8-26.7-27.8-16.7 0-27.9 11.1-27.9 27.8v73.7h-23.4v-119.8h22.5v9.9c7.5-7.9 20.7-13.2 33.1-13.2 27.8 0 45.8 18.1 45.8 46v77.1zm87.3-57.3l-16.9 18.9 0.2 38.4h-23.4v-164.5h23.4v94.2l45.7-49.3 31.7-0.2-44.7 47 47.1 72.8h-26.9z"/>
			<path id="Layer" class="s0" d="m51.1 463.7v-412.6h92.4c18.7 0 36.7 7.4 50 20.7 13.3 13.3 20.7 31.3 20.7 50 0 18.8-7.4 36.8-20.7 50.1-13.3 13.2-31.3 20.7-50 20.7h-41.4v-23.9h41.4c12.4 0 24.4-5 33.1-13.8 8.8-8.7 13.8-20.7 13.8-33.1 0-12.4-5-24.3-13.8-33.1-8.7-8.8-20.7-13.7-33.1-13.7h-68.5v364.7h68.5c26 0 50.9-10.3 69.3-28.7 18.4-18.4 28.7-43.3 28.7-69.3 0-26-10.3-51-28.7-69.4-18.4-18.4-43.3-28.7-69.3-28.7h-41.5v-23.9h41.6c54 0 98-43.9 98-97.7 0-12.9-2.6-25.6-7.5-37.5-5-11.9-12.2-22.7-21.3-31.8-9.1-9.1-19.9-16.4-31.8-21.3-11.9-4.9-24.6-7.5-37.5-7.5h-119.6v439.8h-23.9v-463.7h143.5c27.6 0 54.4 9.3 76.1 26.5 21.6 17.3 36.7 41.3 42.8 68.3 6.2 26.9 2.9 55.2-9.1 80-12 24.9-32.2 45-57.1 56.9 25 11.9 45.2 32 57.2 56.9 12.1 24.9 15.3 53.2 9.2 80.2-6.1 27-21.3 51.1-42.9 68.3-21.7 17.3-48.5 26.6-76.2 26.6z"/>
		</g>
	</g>
</svg>