<svg version="1.2" xmlns="http://www.w3.org/2000/svg" viewBox="0 0 1545 185" width="1545" height="185">
	<title>PennantPark-ESG-Policy-1-pdf-svg</title>
	<defs>
		<clipPath clipPathUnits="userSpaceOnUse" id="cp1">
			<path d="m-356.28-299.42h6073.08v7878.31h-6073.08z"/>
		</clipPath>
	</defs>
	<style>
		.s0 { fill: #201e20 } 
		.s1 { fill: #4077c3 } 
		.s2 { fill: #294098 } 
		.s3 { fill: #52b4bc } 
	</style>
	<g id="Clip-Path: Page 1" clip-path="url(#cp1)">
		<g id="Page 1">
			<path id="Path 6" fill-rule="evenodd" class="s0" d="m200.4 60.7c0-20.9 0-30.4-0.5-36.3 0-4.5-1-5.5-5.9-5.5l-14.9-1 2-7c4.9-0.5 12.4-0.5 24.3-1 9.9 0 23.3-1 41.7-1 25.8 0 37.7 5.5 46.1 13.5 8.9 8.4 13.9 21.4 13.9 36.3 0 15.4-5 28.3-13.9 37.3-9.9 10.4-25.3 15.4-40.7 15.4-5.9 0-11.4-0.5-15.4-1.5l1.5-8.4c3 1 6.5 1 10.9 1 8 0 17.4-3 22.9-10.5 4.9-6.5 8.4-17.9 8.4-32.3 0-13-3-24.4-8.4-30.9-7-7.9-16.9-10.9-30.8-10.9-13.9 0-15.9 1.5-15.9 4.5-1 7.9-1.5 21.9-1.5 44.2v66.2c0 15.4 0.5 25.4 1 30.8 0.5 5.5 2.5 7 10.4 7.5l18.9 1.5-0.5 7.4c-11.9 0-29.8-1-43.2-1-11.4 0-22.8 1-33.7 1l0.5-7.4 9.4-0.5c9-1 11.4-2 11.9-10.5 0.5-10.9 1.5-31.8 1.5-50.2zm206.4 106.4c-5.9 7.5-19.8 16-40.2 16-19.8 0-33.7-6.5-42.1-17.9-7-9.5-11-23.4-11-38.8 0-32.9 19.4-62.7 55.1-62.7 37.7 0 44.2 29.3 44.2 45.2 0 5.5-1.5 9.5-5.5 11-5.4 1.5-18.3 3-34.7 3.5-8.9 0-23.8 0-34.7 0-0.5 14.4 2.9 26.8 7.9 34.3 6 8.9 16.4 13.4 28.3 13.4 15.4 0 24.3-5.9 30.7-15.4l3.5 1zm-40.2-95.5c-17.8 0-27.3 23.4-27.8 43.3q10.5 0 22.4 0c12.4 0 19.8-0.5 23.8-1.5 3.5-1 4.9-3.5 4.9-9.5 0-15.4-5.4-32.3-22.8-32.3zm59.1 101.5c13.4-0.5 15.3-2 15.8-8 0.5-8 0.5-17.9 0.5-35.8v-16.9c0-13.9 0-25.4-0.5-32.3 0-3.5-1.9-4-15.8-4l0.5-7.5c5.9 0 13.4-0.5 19.8-1 7-1 12.9-2 16.9-2.5 0.5 5.5 1.5 15 1.5 18.9 9.4-8.9 21.8-20.4 40.7-20.4 17.3 0 26.2 8 30.2 16 2.5 4.4 3 10.4 3 16.9v69.6c0 5.5 1.5 6 16.9 7l-0.5 6.9c-8 0-17.4-0.5-28.8-0.5-11.4 0-18.9 0.5-25.3 0.5l0.5-6.9c11.9-1 13.9-2 14.4-7 0.5-6 1-17.9 1-38.8 0-32.3 0-35.8-2.5-40.3-3-6.4-8.5-9.9-18.4-9.9-12.9 0-22.3 6.9-28.3 17.9-2.4 4-2.9 7.4-2.9 13.4v32.8c0 9.5 0 18.9 0.5 24.4 0.5 5.5 1.9 7 15.3 7.5l-0.5 6.9c-6.9 0-18.8-0.5-27.7-0.5-10.5 0-18.4 0.5-26.3 0.5zm140.9 0c13.4-0.5 15.4-1.5 15.9-7.4 0-8 0.4-17.9 0.4-36.3v-16.5c0-13.9 0-25.3-0.4-32.3 0-3.5-2-4-15.9-4l0.5-7.4c5.4 0 12.9-0.5 19.8-1 6.5-1 12.4-2 16.4-2.5 1 5 2 14.9 2 18.9 8.9-9.5 21.8-20.4 40.7-20.4 17.3 0 26.3 8 30.2 15.9q3 6.7 3 16.4v69.7c0 5.9 1 6.4 16.9 6.9l-0.5 7.5c-8 0-17.4-1-28.8-1-11.4 0-18.9 1-25.3 1v-7.5c12.4-0.5 14.4-2 14.9-6.9 0-5.5 1-17.4 1-38.3 0-32.4-0.5-35.8-2.5-40.3-3-6.5-8.9-10.5-18.4-10.5-12.9 0-22.8 7.5-28.7 18.4-2 3.5-2.5 7.5-2.5 13.5 0 9.4 0 51.2 0 57.2 0.5 5.4 2.5 6.4 15.9 6.9l-0.5 7.5c-7 0-18.9-0.5-27.8-1-10.4 0-18.9 1-26.3 1zm210.8-79.6c0-10.9-4.4-21.9-18.8-21.9-15.9 0-21.8 13-23.3 30.4l-2.5 2c-3 0.5-7.5 0.5-11.4-1-4-1.5-6.5-4-6.5-8 0-13.9 19.4-30.8 46.7-30.8 21.8 0 30.7 9.4 34.2 14.4 2.5 3.5 3.5 8.4 3.5 13.4 0 7.5 0 48.3 0 64.7 0 11.9 5.4 15.9 11.9 15.9 2.5 0 4.5-0.5 6.4-1l-1 7c-2.9 2.4-8.4 4.9-15.8 4.9-14.4 0-21.4-7.4-23.4-19.4-11.9 12.5-25.3 19.4-38.2 19.4-19.8 0-31.2-13.9-31.2-31.8 0-10.4 3.5-18.4 12.4-23.4 6.4-4 15.9-7.9 27.3-12.4 10.9-4.5 21.3-8 29.7-11.9zm-45.1 54.7c0 12.9 6.4 21.8 17.4 21.8 11.9 0 21.8-8.4 26.3-19.8 1.4-3 1.4-7 1.4-10.5v-26.4c-8.9 3-21.3 7.5-31.2 13.5-7.5 4-13.9 8.9-13.9 20.9zm93.8 25.3c13.9-0.5 15.4-1.5 15.8-7.9 0.5-8 1-17.9 1-35.8v-16.9c0-14 0-25.4-0.5-31.9-0.5-4-1.9-4.5-15.8-4.5l0.5-6.9c5.4-0.5 12.9-1 19.8-1.5 6.5-1 12.4-2 16.4-2.5 1 5.5 1.5 15.4 1.5 18.9 9.4-8.9 22.3-20.4 41.2-20.4 17.3 0 26.3 8.5 30.2 16.4q3 6.7 3 16.4v69.7c0 5.4 1 5.9 16.9 6.9l-0.5 7.5c-8.5 0-17.4-1-28.8-1-11.4 0-18.9 1-25.3 1v-7.5c11.9-1 13.9-2 14.4-6.9 0.5-5.5 1.5-17.9 1.5-38.3 0-32.4-0.5-35.8-2.5-40.3-3.5-6.5-8.9-10.5-18.4-10.5-12.9 0-22.8 7-28.8 17.9-1.9 4-2.9 7.5-2.9 13.5v32.8c0 9.5 0 18.9 0.5 24.4 0.5 5.4 2 6.9 15.8 7.4l-0.5 7.5c-6.9 0-18.8-1-28.2-1-10 0-18.4 1-26.3 1zm216.8-105l-1 8-38.7 1.5c0 9-0.5 19.9-1 40.3 0 23.4 0.5 37.3 2 44.7 0.5 6.5 4.5 10 11.4 10 11.9 0 20.3-10 23.3-23.4h3.5l3.5 9.5c-7 15.4-20.9 24.3-38.2 24.3-11.9 0-19.9-3.9-23.8-9.4-2.5-4-3.5-8.5-3.5-15.9-0.5-21.4 0.5-59.7 0.5-80.1l-17.9-1.5 1-8h17.4c0-8.4 0.5-18.4 1-29.3 8.9-4 15.8-8.5 19.8-11.9l2.5 1c-0.5 6.4-1 27.3-1 40.2zm41.7-7.4c0-20.9 0-30.4-0.5-36.3 0-4-1-5.5-5.5-5.5l-15.4-0.5 2-7.4c5-0.5 12.4-0.5 24.8-0.5 9.5-0.5 23.4-1.5 41.2-1.5 26.3 0 38.2 5.9 46.2 13.4 8.9 8.4 14.3 21.4 14.3 36.3 0 15.4-4.9 28.3-13.8 37.3-10.5 10.4-25.8 15.4-40.7 15.4-6 0-11.4-0.5-15.4-1.5l1-7.9c3.5 0.5 6.9 1 11.4 1 7.9 0 17.4-3.5 22.3-11 5-6.4 8.5-17.9 8.5-31.8 0-13.4-3-24.4-8.5-30.8-6.9-8-16.4-11.5-30.2-11.5-13.9 0-16.4 1.5-16.4 4.5-0.5 7.9-1 21.9-1 44.3v66.1c0 15.9 0.5 25.4 0.5 31.3 0.5 5 2.5 7 10.4 7l18.9 2-0.5 7c-11.9 0-29.3-0.5-43.2-0.5-11.4 0-22.3 0.5-33.2 0.5l0.4-7 9.5-1c8.9-1 10.9-2 11.9-9.9 0.5-11.5 1-32.4 1-50.8zm183.6 32.3c0-10.4-4-21.3-18.9-21.3-15.9 0-21.8 12.4-23.3 29.8l-2.5 2c-3 0.5-7.4 0.5-11.4-1-4-1.5-6.5-4-6.5-8 0-13.4 19.4-30.8 46.7-30.8 21.8 0 30.7 9.5 34.2 14.9 2.5 3 3.5 8.5 3.5 13.5 0 6.9 0 47.7 0 64.1 0 12 5.4 15.9 11.9 15.9 2.5 0 4.5 0 6.4-0.5l-0.9 7c-3 2.5-8.5 4.5-15.9 4.5-14.4 0-21.4-7.5-23.3-19.4-12 12.4-25.3 19.4-38.2 19.4-19.9 0-31.3-14-31.3-31.9 0-10.4 3.5-18.4 12.4-22.8 6.4-4 15.9-8 27.3-12.5 10.9-4.4 21.8-8.4 29.8-12.4zm-45.2 54.7c0 12.9 6.5 21.9 17.9 21.9 11.4 0 21.3-8 25.8-19.9 1.5-3 1.5-7 1.5-10.5l0.5-26.3c-9.5 3-21.9 7.9-31.8 13.4-7.4 4-13.9 9.5-13.9 20.9zm114.1-35.8c0-15.9-1-26.4-2-31.8-0.5-2.5-1.9-3.5-5.4-3.5l-10.4-0.5 0.5-7c7.9 0 14.8-1 20.8-2 6.4-0.5 10.9-2 13.9-2.5l1 1c1.5 9.5 2 22.4 2 27.9h1c5.9-12.4 16.8-29.4 34.2-29.4 8.4 0 12.4 4.5 13.4 7-0.5 3-4.5 15.4-6 19.4h-4.4c-2.5-4-9-7.5-14.9-7.5-8.4 0-16.9 12.5-19.9 23.4-1.4 4.5-1.9 8.5-1.9 14.4 0 29.4 0 37.8 0.5 44.3 0 6 1.9 7.5 23.3 8l-1 7.4c-9.4 0-22.3-1-33.8-1-11.4 0-19.8 1-29.2 1l0.5-7.4c13.9-0.5 15.8-2 16.8-6.5 0.5-5.5 1-17.4 1-32.3zm75.4-108.4c15.4 0 30.3-1.5 38.7-3-0.5 13.4-0.9 33.3-0.9 54.7v56.2c13.3-2 32.7-21.4 42.6-32.3 2-2.5 2-4-1-4l-11.4-1v-7c8.5 0 18.4-0.5 27.3-0.5 8.4-0.5 16.9-1.5 24.3-2v7.5c-13.4 1.5-17.8 3.5-24.3 8.4-6.4 5-20.8 16.5-30.8 24.9 12.4 18.9 38.7 53.7 46.2 62.2 3.5 3.5 6.4 4.5 12.4 4.5h8.9l-0.5 7.4c-7.4 0-15.4 0.5-22.3 1.5-7.4 1-13.4 2-17.4 3-9.4-16.4-36.2-56.2-41.6-63.2-3.5-4.4-8-4.4-12.4-3.5 0 18 0 34.9 0.4 48.8 0.5 5 2 6 16.4 7l-0.5 6.9c-9.4 0-17.8-0.5-29.7-0.5-13.9 0-20.4 0.5-26.8 0.5l0.5-6.9c13.8-0.5 16.3-2.5 16.3-7 0.5-5 1.5-20.9 1.5-41.3v-70.6c0-20.4-0.5-32.3-0.5-39.8-0.5-2.5-1.5-3.5-5.9-3.5h-9.5z"/>
			<path id="Path 7" class="s1" d="m1 123.8v-48.2l121.5 23.9z"/>
			<path id="Path 8" class="s2" d="m1 63.7v-48.3l121.5 23.9z"/>
			<path id="Path 9" class="s3" d="m1 184.5v-48.2l121.5 23.8z"/>
		</g>
	</g>
</svg>