<svg version="1.2" xmlns="http://www.w3.org/2000/svg" viewBox="0 0 1548 231" width="1548" height="231">
	<title>PFSI-logo-SM-horz-rgb-pos-color-svg</title>
	<style>
		.s0 { fill: #003087 } 
		.s1 { fill: #f1c400 } 
		.s2 { fill: #31afdf } 
		.s3 { fill: #14892c } 
	</style>
	<g id="Layer">
		<g id="Layer">
			<g id="Layer">
				<path id="Layer" fill-rule="evenodd" class="s0" d="m377.6 14.5q15.1 12.8 15.1 35 0 22.1-15.1 34.9c-10.1 8.6-24 12.8-41.5 12.8h-33.7v41.2h-19.4v-136.3h53.1c17.5 0 31.4 4.7 41.5 12.4zm-14 57.5c6.6-5.4 9.7-12.8 9.7-22.5 0-9.7-3.1-17.5-9.7-22.5-6.6-5.5-15.9-7.8-28.3-7.8h-32.9v61h32.9c12.4 0 21.7-2.8 28.3-8.2zm164.7 49.7v17.1h-98.8v-136.7h96.1v16.7h-76.7v41.9h68.2v16.7h-68.2v43.9c0 0 79.4 0 79.4 0.4zm154.3-119.6v136.3h-15.9l-81.8-101.7v101.7h-19.4v-136.3h15.9l81.8 101.4v-101.4zm165.8 0v136.3h-15.9l-81.7-101.3v101.7h-19.4v-136.7h15.9l81.7 101.7v-101.7zm103.5 89.3v47h-19.4v-47.4l-53.8-88.9h20.9l43.4 71.8 43.8-71.8h19.4zm210 47v-99.4l-49.2 82.7h-8.9l-49.2-82.3v98.6h-18.6v-135.9h15.8l56.6 95.9 55.8-95.9h15.9v136.3zm156.6-33.8h-72.5l-15.1 34.2h-20.2l61.6-136.3h19.4l61.6 136.3h-20.5zm-7-15.6l-29.4-66.7-29.1 66.7zm91.1 41.6c-10.9-6.2-19.4-14.4-25.6-24.9-6.2-10.4-9.3-22.5-9.3-35.7 0-13.2 3.1-25.2 9.3-35.7 6.2-10.5 14.7-19 26-24.9 11.2-5.8 23.2-8.9 36.8-8.9 10.4 0 20.1 2 29 5.4 8.9 3.5 16.3 9 22.5 16l-12.8 12.4q-15.1-16.3-38.3-16.3c-10.1 0-19.4 2.3-27.6 7-8.1 4.6-14.7 10.8-18.9 18.6-4.3 7.8-7 17.1-7 26.8q0 14.6 7 26.8c4.6 8.2 10.8 14.4 18.9 18.6 8.2 4.7 17.5 7 27.6 7q22.6 0 38.3-16.3l12.8 12.5c-6.2 6.9-14 12.4-22.5 15.9-8.9 3.5-18.6 5.4-29 5.4-14-0.4-26.4-3.1-37.2-9.7z"/>
			</g>
			<g id="Layer">
				<path id="Layer" class="s1" d="m0.5 2.1v135.9l91.9-91.6-44.2-44.3z"/>
				<path id="Layer" class="s2" d="m183.8 2.1h-47.2l-44.2 44.3 91.4 91.6z"/>
				<path id="Layer" class="s3" d="m48.2 2.1l44.2 44.3 44.2-44.3z"/>
				<path id="Layer" class="s0" d="m98.2 122.1h-15.1c-0.8 0-1.6-0.8-1.6-1.6v-15.1c0-0.8 0.8-1.6 1.6-1.6h15.1c0.8 0 1.5 0.8 1.5 1.6v15.1c0 0.4-0.7 1.6-1.5 1.6z"/>
			</g>
			<g id="Layer">
				<path id="Layer" class="s0" d="m786 192.8v14.7h20.9v5.5h-20.9v17.1h-5.8v-42h29.8v5.1h-24z"/>
				<path id="Layer" class="s0" d="m820.9 188.1h5.8v42.3h-5.8z"/>
				<path id="Layer" class="s0" d="m879 188.1v42.3h-5l-25.2-31.4v31.4h-5.8v-42.3h5l25.2 31.5v-31.5z"/>
				<path id="Layer" fill-rule="evenodd" class="s0" d="m922 219.6h-22.5l-4.6 10.5h-6.2l19-42.4h5.8l19 42.4h-5.8zm-2-4.7l-8.9-20.6-8.9 20.6z"/>
				<path id="Layer" class="s0" d="m979.4 188.1v42.3h-5.1l-25.1-31.4v31.4h-5.9v-42.3h5.1l25.2 31.5v-31.5z"/>
				<path id="Layer" class="s0" d="m992.5 209.1c0-12.4 9.3-21.8 22.5-21.8 6.6 0 12 2.4 15.9 6.6l-3.9 3.9c-3.1-3.5-7.3-5-12-5-9.3 0-16.6 7-16.6 16.3 0 9.3 6.9 16.3 16.6 16.3 4.7 0 8.5-1.6 12-5l3.9 3.8c-3.9 4.3-9.3 6.6-15.9 6.6-13.1 0-22.5-9.7-22.5-21.7z"/>
				<path id="Layer" class="s0" d="m1042.5 188.1h5.9v42.3h-5.9z"/>
				<path id="Layer" fill-rule="evenodd" class="s0" d="m1091.8 219.6h-22.5l-4.7 10.5h-6.2l19-42.4h5.8l19 42.4h-6.2zm-2.3-4.7l-8.9-20.6-8.9 20.6z"/>
				<path id="Layer" class="s0" d="m1112.7 188.1h5.8v36.9h22.8v5.1h-28.6z"/>
				<path id="Layer" class="s0" d="m1168.9 225l2.3-4.7c3.1 2.8 8.5 5.1 13.9 5.1 7.4 0 10.5-2.7 10.5-6.6 0-10.5-25.6-3.9-25.6-19.4 0-6.6 5.1-12.1 16.3-12.1 5 0 10.1 1.2 13.6 3.9l-2 4.7c-3.5-2.3-7.7-3.5-11.6-3.5-7 0-10.1 3.1-10.1 6.6 0 10.5 25.6 3.9 25.6 19.4 0 6.6-5 12-16.3 12-7 0.4-13.1-1.9-16.6-5.4z"/>
				<path id="Layer" class="s0" d="m1244.4 225v5.1h-30.6v-42h29.8v5.1h-23.6v12.8h20.9v5h-20.9v14z"/>
				<path id="Layer" fill-rule="evenodd" class="s0" d="m1285.1 229.7l-8.9-12.8c-0.8 0-1.6 0-2.7 0h-10.5v12.8h-5.8v-41.6h16.3c10.8 0 17.4 5.5 17.4 14.8 0 6.6-3.5 11.2-9.3 13.2l10.1 14h-6.6zm0-27.2c0-5.8-3.9-9.3-11.6-9.3h-10.1v19h10.1c7.4-0.4 11.6-3.9 11.6-9.7z"/>
				<path id="Layer" class="s0" d="m1340.1 188.1l-18.2 42h-5.8l-18.6-42.4h6.6l15.1 34.6 15.1-34.6z"/>
				<path id="Layer" class="s0" d="m1350.6 188.1h5.8v42.3h-5.8z"/>
				<path id="Layer" class="s0" d="m1369.6 209.1c0-12.4 9.3-21.8 22.5-21.8 6.5 0 12 2.4 15.9 6.6l-3.9 3.9c-3.1-3.5-7.4-5-12-5-9.3 0-16.7 7-16.7 16.3 0 9.3 7 16.3 16.7 16.3 4.6 0 8.5-1.6 12-5l3.9 3.8c-3.9 4.3-9.3 6.6-15.9 6.6-13.2 0-22.5-9.7-22.5-21.7z"/>
				<path id="Layer" class="s0" d="m1449.8 225v5.1h-30.6v-42h29.8v5.1h-23.6v12.8h20.9v5h-20.9v14z"/>
				<path id="Layer" class="s0" d="m1459.9 225l2.3-4.7c3.1 2.8 8.5 5.1 13.9 5.1 7.4 0 10.5-2.7 10.5-6.6 0-10.5-25.6-3.9-25.6-19.4 0-6.6 5.1-12.1 16.3-12.1 5.1 0 10.1 1.2 13.6 3.9l-2 4.7c-3.5-2.3-7.7-3.5-11.6-3.5-7 0-10.1 3.1-10.1 6.6 0 10.5 25.6 3.9 25.6 19.4 0 6.6-5 12-16.3 12-6.9 0.4-13.1-1.9-16.6-5.4z"/>
			</g>
		</g>
		<g id="Layer">
			<g id="Layer">
				<path id="Layer" class="s0" d="m1513.7 16.5l1.2-2.4c1.2 1.2 3.5 2 5.4 2 2.7 0 3.5-0.8 3.5-2 0-3.4-9.7-1.1-9.7-7.3 0-2.8 2-5.1 6.6-5.1 1.9 0 3.9 0.4 5.4 1.6l-0.7 2.3q-2.4-1.2-4.7-1.2c-2.3 0-3.5 1.2-3.5 2.4 0 3.5 9.7 1.1 9.7 7.3 0 2.8-1.9 4.7-6.6 4.7-2.7-0.4-5-1.2-6.6-2.3z"/>
				<path id="Layer" class="s0" d="m1544.7 18.4v-10.9l-5.4 9h-1.2l-5.4-9v10.9h-2.7v-15.9h2.3l6.6 10.9 6.2-10.9h2.4v15.9c0 0-2.8 0-2.8 0z"/>
			</g>
		</g>
	</g>
</svg>