<svg version="1.2" xmlns="http://www.w3.org/2000/svg" viewBox="0 0 1492 1488" width="1492" height="1488">
	<title>peapack-gladstone-bank-logo-svg</title>
	<style>
		.s0 { fill: #006040;stroke: #006040;stroke-width: 30.6 } 
		.s1 { fill: #ffffff;stroke: #ffffff;stroke-width: 6.1 } 
		.s2 { fill: none;stroke: #ffffff;stroke-width: 6.1 } 
		.s3 { fill: #1573df } 
		.s4 { fill: #000000 } 
		.s5 { fill: none } 
		.s6 { fill: #006040 } 
		.s7 { fill: none;stroke: #ffffff;stroke-width: 6.4 } 
		.s8 { fill: none;stroke: #01573d;stroke-width: 49.3 } 
	</style>
	<g id="Layer_2">
		<g id="Layer_1-2">
			<path id="Layer" class="s0" d="m15.6 15.6h1461.1v1457.1h-1461.1z"/>
			<path id="Layer" class="s1" d="m474.2 1381.7c-83.5-34.6-159.4-85.3-223.3-149.3-63.9-63.9-114.6-139.8-149.2-223.3-34.6-83.5-52.4-173-52.4-263.4 0-278.4 167.7-529.4 424.9-636 257.2-106.5 553.2-47.6 750 149.2 196.9 196.9 255.7 493 149.2 750.2-106.5 257.2-357.5 425-635.8 425-90.4 0-179.9-17.9-263.4-52.4z"/>
			<path id="Layer" class="s2" d="m479.4 1381.7c-83.6-34.5-159.4-85.2-223.4-149.2-63.9-63.9-114.6-139.8-149.1-223.3-34.6-83.6-52.4-173.1-52.4-263.5 0-278.4 167.7-529.4 424.9-636 257.2-106.5 553.2-47.6 750 149.2 196.9 196.9 255.8 493 149.2 750.2-106.5 257.2-357.5 425-635.8 425-90.4 0-179.9-17.8-263.4-52.4z"/>
			<path id="Layer" fill-rule="evenodd" class="s3" d="m460 446.9q0.9 0 1.8-0.1 0 0 0.1 0-0.3 0.6-0.7 1.3zm1.9-0.1c6.1-12.5-15.3-17.9-11.1-32.7-1.2-1.8-2.6-1.7-3.1 0q-0.7 2.5-2 4.8-1.4 2.2-3.3 4-1.9 1.8-4.2 3-2.3 1.2-4.9 1.7h-4.3c0-9.2 19.9-11.1 10.1-22.1-2.7-11.3 12.3-10.1 16-19.9q1.9 0 3.9 0.5 1.9 0.5 3.6 1.5 1.7 1 3.1 2.3 1.5 1.4 2.5 3v3.4q-0.4 0-0.8 0.2-0.4 0.1-0.8 0.3-0.4 0.3-0.6 0.6-0.3 0.4-0.5 0.8c4.6 9.2 12.6-5.3 18.7 0 6.7-4 5.5 5.5 9.2 5.5q0.1 0.5 0 0.9-0.1 0.5-0.4 0.9-0.2 0.5-0.6 0.8-0.4 0.3-0.9 0.4c-4.3-6.7-12.2-3.9-14.7 3.1v3.1c-6.1 1.8-12.5-1.3-16.8 7.3 0 2.5-4.9 6.8 0 8.6 4.9 1.8 7 12 7 16.2q-0.8 0.5-1.6 0.9-0.9 0.4-1.8 0.6-0.8 0.2-1.7 0.3zm-67.2-55.1h1.8v3.1h-1.8zm-9.5 18.1l-3.1 3q-1.3-0.5-2.4-1.5-1.2-0.9-2-2.2-0.8-1.2-1.2-2.6-0.5-1.4-0.5-2.9c4.9-1.5 9.2 1.9 9.2 6.2zm106 7.3c1.7-1.2 3.5-2 5.5-2.5 2-0.5 4-0.6 6-0.3 2 0.3 4 1 5.7 2 1.8 1 3.3 2.3 4.6 3.9-7.4-1.2-16.6 2.4-21.8-3.1zm486.9 23.6c-1.3 1.8-2.9 3.4-4.6 4.7-1.8 1.4-3.8 2.5-5.8 3.3-2.1 0.8-4.3 1.3-6.5 1.5-2.2 0.2-4.5 0.1-6.7-0.3-1.8-4.9-6.1-3-9.8-3q-2.5-3.4-5.5-6.3-3-2.9-6.3-5.4-3.4-2.5-7.1-4.4-3.8-1.9-7.7-3.3-2.6 1.2-5 2.9-2.4 1.7-4.4 3.8-2 2.1-3.6 4.5-1.5 2.4-2.6 5.1c-8-1.2-12.9 2.4-19-3.1 2.4-5.8-4-8.9-7.1-8.9-9.8-1.8-15.6 13.8-16.2 16.3-0.6 2.4 1.7 4 2.7 4.3q1.6 0.4 3.3 0.4 1.7-0.1 3.3-0.7 1.5-0.5 2.8-1.6 1.4-1 2.3-2.4c6.7 3.7 14.4 11.6 21.7 13.5 7.4 1.8 1.9 10.7 7.4 13.1-8 8.6 3.4 16 1.8 25.2h-6.1c-2.5-7.4-14.1-12.3-5.5-22.1q-2.5-0.3-5-0.8-2.5-0.5-4.9-1.2-2.4-0.7-4.8-1.6-2.3-0.8-4.6-1.9c-3.7-5.8 7.3-7.7 1.8-12.6-6.1 1.9-5.5 8.6-13.5 6.2-4.9-9.9-12.5-10.5-15.6-20.9-3.7-3.7-14.4 3.1-11.6-7.3q0.7-1.1 1.6-1.9 1-0.8 2.1-1.4 1.1-0.6 2.3-0.8 1.3-0.3 2.5-0.2 1 1.7 2.4 3 1.5 1.3 3.2 2.1 1.8 0.9 3.8 1.1 1.9 0.2 3.8-0.1c4.3-2.5 4.3-7.7 4.3-12l-1.5-1.8c2.7-4.3 7-11.6 13.1-11.6 1.3 4.2 2.5 9.8 8.6 7.3 0.6 1.5 1.5 2.9 2.7 4.1 1.1 1.1 2.5 2 4.1 2.6 1.5 0.6 3.1 0.8 4.8 0.7 1.6-0.1 3.2-0.5 4.7-1.3 2.9-2 6-3.6 9.4-4.8 3.3-1.2 6.8-2 10.4-2.2 3.5-0.3 7.1-0.1 10.6 0.6 3.4 0.7 6.8 1.8 10 3.4 0 8.9 10.4 15 17.8 20.5 7-1.2 13.8-9.2 21.7-4.3zm-341.6 15.7c-1.9 5.5 5.5 7.9 3 15-6.7 0-10.4 4.3-17.7 4.3 0-2.5-4-4.3-4-6.5-17.8 3.1-38.3-2.1-55.8 0 4.3-8.2 14.4-7.6 19.3-18.1 7.4 0.7 8-6.1 16-6.1-4.3-11-12.3-0.6-20.9-4.3q-0.7-1.8-1-3.7-0.4-1.9-0.4-3.8 0-1.9 0.4-3.8 0.3-1.9 1-3.7c3.7 4.9 9.8 3.1 14.7 3.1 0 4.6 7.1 1.2 7.1 4.6 5.5-5.9 20.2-20 24.8-5.9q0.6 1.2 1.4 2.3 0.8 1.1 1.7 2 0.9 0.9 2 1.7 1.1 0.8 2.2 1.4c-0.6 4.6-9.8 1.5-7.3 12 2.4 10.4 25.1-6.2 13.5 10.4zm-45.4 7c0.9-1.8 4.3-4.9 3.1-4.9-1.2 0-5.5-3-7.4 0l4.3 6.1zm23.6-9.1c-4.9-1.9-14.7-2.5-14.7 4.2q1.8 0.5 3.7 0.7 1.8 0.2 3.7 0.2 1.8 0 3.7-0.2 1.8-0.2 3.6-0.7zm-162.1-43.2v-3z"/>
			<path id="Layer" fill-rule="evenodd" class="s3" d="m570.9 453.6c-6.5 1.2-10.1 9.2-15.7 11.7l3.1 3.3c-3.7 4-16.2 3.7-20.5 0-4.3-3.7 0.6-12.9-7.4-12.9v-9.1c5.5-4.3 22.4-2.5 15.7-13.2q0.9-0.2 1.8-0.3 0.9-0.1 1.8-0.1 1 0 1.9 0.1 0.9 0.1 1.8 0.3c-0.1-1.4 0.2-2.8 0.9-4 0.7-1.2 1.7-2.2 3-2.8 1.2-0.6 2.6-0.9 4-0.7 1.4 0.2 2.7 0.7 3.8 1.7-3.7 9.5 14.4 11.9 1.5 17.4l5.5 9.2zm-46.6-21.7l-0.4 0.2q0.2-0.2 0.4-0.2zm-0.4 0.2c-2.3 1.6-4.7 8.4-8.2 4.4zm-10.9 19l7.1-6.1c-0.6 6.7 1.8 17.8-7.1 20.8v4.3c-7.9 0.6-7.3-12.8-17.7-5.5-1.9-10.4-24.8-3.7-20.6-19.6 3.7 3.1 13.5 6.1 13.5-2.5 8.9 0.7 13.8 20.3 24.8 8.6z"/>
			<path id="Layer" class="s4" d="m384.9 443.8h1.2v3.1h-1.2z"/>
			<path id="Layer" class="s3" d="m467.3 452.4v-2.5h1.8v2.5zm6.2 7.9v3.1c-6.8 1.2-16.9-1.8-23-1.8 2.4-8 14.4 0 21.7 0zm-98.6 5.5q0 0.5-0.2 1-0.1 0.5-0.3 0.9-0.3 0.4-0.6 0.8-0.4 0.4-0.8 0.7h-2.4c-1.9-3.4 2.4-7.1 4.3-3.4zm482.6 1.2c-1.2 3.1 2.8 4.3 2.8 6.5l-2.8 3c-4-0.6-5.8-5.8-5.8-9.5z"/>
			<path id="Layer" class="s4" d="m488.1 470.2h3.1l-4.3 2.1z"/>
			<path id="Layer" class="s3" d="m858.6 495.6c-1.2 3.1-2.1 6.7-7 7.3-4.9 0.7-8-3-10.5-7.3v-11.7c3.1 0 3.1-3.6 3.1-6.1 2.5 9.2 23.6 5.5 14.4 17.8zm22.1-3.1l7.3 4.3v4.9c-9.2-0.6-23.3 1.9-25.1-7.3 2.5-9.2 11.6-1.9 17.8-1.9z"/>
			<path id="Layer" class="s4" d="m1158 507.5c3.1 0 5.5-2.1 6.1-3.3 0.6-1.3-6.1 0-6.1 3.3z"/>
			<path id="Layer" class="s5" d="m560.8 873.8l1.2-11.7"/>
			<path id="Layer" fill-rule="evenodd" class="s3" d="m1107.1 939.4c-1.8 4.3-4.3 0-7.3 0v-4.9c5.5-1.9 9.2 0.6 7.3 4.9zm-396.8 56.4c-1.8 4.3-8.3 3-12.6 4.3-4.3 1.2-9.2 15.3-14.7 6.1q-0.9 1.2-2.1 2.1-1.1 0.9-2.5 1.4-1.4 0.6-2.9 0.8-1.4 0.2-2.9 0c-5.8-11.7 17.2 1.2 14.7-11.7 4.9-7.9 16.3-3 23-3zm14.7 15.9h-4.3v-11.6l10.1 4.3c-1.5 4.3-0.6 7.3-5.8 7.3zm-20.2-7.3q1-0.1 2 0.1 1.1 0.1 2 0.5 1 0.4 1.8 1 0.9 0.6 1.5 1.4c-8.5-0.6-8.5 13.5-16.2 10.4-1.8-7.9 8.9-6.7 8.9-13.4zm30.3 11.6c1.2 4.3-2.1 8.6-4.3 9.5-2.1 0.9-4.3-3.4-5.8-3.4 5.2-1.2 8.9-10.4 10.1-6.1zm7.4 3.1c-0.6-3.1 0.6-7.4 4.3-5.5 0.6 2.4-3.7 8.5-4.3 5.5zm-87.4 0h4.3v3h-4.3zm-100.5 35.9c-1.8-4.9 8-12.3 7.4-9.2-0.6 3.1 3.1 9.2-2.5 9.2zm-22.9 0q-1.1 0.3-2.2 0.5-1 0.2-2.1 0.2-1.1 0-2.2-0.2-1.1-0.2-2.1-0.5zm11.3 0h-0.9v-3.1h0.9zm-30 5.9h-1.9v-2.8h1.9zm346.6 88.9q-1.6 0.4-3.3 0.3-1.6-0.1-3.1-0.7-1.5-0.5-2.8-1.5-1.3-1.1-2.2-2.4c3.1-3.1 12-0.6 10.1 1.8-1.8 2.5 0 2.5 0 2.5zm-176.5 4.9h-10.4c-1.8-8 8.6-4.9 10.4 0zm78.2 1.2h-4.3v-3.1c1.2 0 4.3 0 4.3 1.9z"/>
			<path id="Layer" class="s5" d="m719.5 1155.8h-3.1"/>
			<path id="Layer" class="s3" d="m643.8 1192.5h1.5c0 1.3-1.5 3.1-1.5 3.1z"/>
			<path id="Layer" fill-rule="evenodd" class="s6" d="m432.1 1110.4h26.9v4h-11v29.1h-4.6v-29.1h-11.3zm58.5 33.4v-28.2l-9.2 28.2h-4.6l-9.2-28.2v28.2h-4.3v-33.4h6.5l9.1 27.9 9.5-27.9h6.5v33.4zm-343.2-331.9l-37.4 2.4c-8.9 0.3-13.5 0.6-13.5 11.4h-4c0-6.5 1.6-12.9 0-18.7-1.5-5.9-1.5-11.7-1.5-17.5-0.9-13.2 2.8-29.7 18.1-30.7 15.3-0.9 21.4 14.5 21.4 26.7v10.1h16c9.8-0.6 13.1-0.6 13.1-11.9h6.5v38.6h-4c-0.3-9.5-5.5-9.5-14.7-9.5zm-22.1-18.7c-0.6-11-6.7-16.9-15.9-16.2-9.2 0.6-14.4 9.1-13.8 14.7 0.6 5.5 0.3 5.5 5.8 5.5h24.2c-0.3 0-0.3-4-0.3-4zm32.8-60.4c0-10.7-4-10.7-13.2-11.6l-37.4-3.4c-8.8 0-14.4-1.5-15 9.2h-3.9c0-6.4 1.5-12.6 2.1-18.7 0-13.5 2.1-27.3 3.1-40.8h19.6v4.9c-11.1 0-15 7.1-16 17.8v8.9q0.8 0.1 1.6 0.2 0.7 0 1.5 0 0.8 0 1.5 0 0.8-0.1 1.6-0.2l19.3 3.1c0-8.9 0-14.7-10.8-16.3v-4.3l15.4 1.9h13.8v4.6c-10.2 0-12.3 3.6-13.2 14.1h12.9c10.4 0 17.1 1.8 18.3-11.1 0.7-2.4 0.8-4.9 0.4-7.3-0.5-2.5-1.4-4.8-2.8-6.9-1.4-2-3.2-3.8-5.3-5.1-2.1-1.3-4.5-2.1-7-2.4v-4.6l12.3 1.5h8.9c0 15.3-2.8 30.7-4.3 45.7v19zm-4.6-108.5l3.4 2.1q0.9 0.8 1.9 1.4 1 0.7 2 1.2 1.1 0.6 2.1 1.1 1.1 0.5 2.2 0.9c5.5 1.6 8.3-3.3 8.3-7.3h4c-1.2 4.6-1.5 9.2-4 13.5-2.4 4.2-2.4 8.2-2.4 12.5h-4c2.1-8.9-7.4-14.7-13.5-19.3l-45.4-33.1v-5.2l61.3-8.3q1.5-0.2 3-0.5 1.5-0.3 2.9-0.7 1.5-0.3 2.9-0.8 1.5-0.5 2.9-1 0.8-0.6 1.5-1.4 0.7-0.7 1.3-1.6 0.5-0.9 0.9-1.8 0.4-1 0.6-2h3.9c-1.5 6.5-3.3 12.9-5.2 19.3l-4.3 17.2h-3.9c0.6-3.4 2.1-10.1-2.5-10.1q-0.9-0.2-1.9-0.3-1-0.1-1.9-0.1-1 0-2 0.1-0.9 0.1-1.9 0.3h-6.7l-5.8 23.9zm-4.6-3.4l4.6-19.6-27.6 3.4 22.4 16.2zm32.8-79.1l-34.4-14.4c-8.5-3.3-13.4-5.8-17.4 4.3l-3.4-1.5c2.5-6.1 4.9-11.7 7.4-17.2l6.4-16.2c5.8-12 16.8-25.1 30.6-19.3 13.8 5.8 12.3 22 7.4 33.4l-4 9.2 14.7 6.1c8.9 4 13.2 5.8 17.2-4.9h3.6l-8.2 18.7-6.8 16.9-3.6-1.6c4.6-9.5-0.4-11.3-8.9-15zm-11.1-25.1v-2.2c4.3-10.1 4-17.1-7.3-21.7-1.7-1-3.5-1.6-5.4-1.7-1.9-0.2-3.8 0.1-5.6 0.7-1.8 0.7-3.4 1.8-4.8 3.2-1.3 1.3-2.3 3-2.9 4.8-2.2 5.5-2.5 5.2 2.7 7.4l22.4 9.5zm46.6-61.9l2.1 2.7q0.7 1 1.4 2 0.7 0.9 1.6 1.8 0.8 0.9 1.6 1.7 0.9 0.8 1.9 1.6c4.6 2.7 7.6-1.3 10.1-4.6l3.4 1.2-7.7 12-6.1 11-3.4-2.2c4.6-7.6-3.1-16.2-7.4-22l-32.4-45.7 2.7-4.6 61.3 9.8q1.5 0.2 3 0.4 1.5 0.1 3 0.1 1.5 0 3-0.1 1.5-0.2 3-0.4 0.9-0.4 1.8-0.9 0.9-0.6 1.7-1.2 0.8-0.7 1.6-1.5 0.7-0.7 1.3-1.6l3.4 2.2-10.8 16.8c-3 4.9-5.8 10.1-8.8 15.3l-3.4-2.1c0-3.1 4-8 0-10.4q-0.9-0.4-1.8-0.7-0.9-0.4-1.8-0.6-1-0.3-1.9-0.5-0.9-0.2-1.9-0.4h-6.7l-12.6 21.2zm6.8-20.6l-27-4.9 17.8 20.9zm90.1-85.8c-0.3 6.9-2.5 13.7-6.4 19.5-3.9 5.8-9.3 10.5-15.6 13.4-6.3 3-13.3 4.1-20.3 3.3-6.9-0.8-13.5-3.5-19-7.7-4.1-3.3-7.4-7.3-9.9-11.9-2.4-4.5-3.9-9.6-4.3-14.7-0.5-5.2 0.2-10.4 1.8-15.3 1.7-4.9 4.3-9.5 7.8-13.3q1.7-2.2 3.9-4.1 2.1-1.9 4.5-3.4 2.5-1.4 5.1-2.4 2.7-1 5.5-1.4l-3.7-5.6 3.1-3.3 18.3 14.1-3.3 3.6c-2.2-1.4-4.5-2.4-7-2.9-2.5-0.5-5.1-0.6-7.6-0.2-2.6 0.4-5 1.2-7.2 2.5-2.2 1.3-4.2 2.9-5.8 4.9-11 12.9 0 28.8 10.4 38 10.4 9.2 27.6 16.6 39.5 3.4 1.8-2.2 3.2-4.7 4-7.4 0.8-2.7 1.1-5.6 0.9-8.4-0.2-2.8-1-5.6-2.2-8.1-1.3-2.6-3-4.8-5.1-6.7l3.1-3.4 19 16.2-2.8 3.4-6.4-2.5zm31.5-56.3l6.5 7.6c6.1 7.1 7.3 8.9 15.6 2.8l2.4 3-14.7 12-13.8 12.3-2.7-3.1c8.6-6.8 4.9-10.4 0-17.5l-24.2-28.5c-8-7-9.8-11.3-18.1-4.6l-2.5-3 12.6-9.5 15.6-13.8 2.5 3c-1.5 0-4.3 4.3-4.3 6.8 0 2.4 3.4 6.7 5.2 8.9l15.3 18v-11q0.4-3.8 0.5-7.5 0-3.8-0.2-7.6-0.2-3.8-0.8-7.5-0.5-3.7-1.3-7.4c-2.8-3.1-6.7 0-9.2 1.5l-2.5-1.5 9.9-8.6 11-9.5 2.4 3.1q-1 0.9-1.8 2-0.8 1.1-1.4 2.3-0.7 1.2-1.1 2.5-0.4 1.3-0.6 2.7-0.1 1.3-0.1 2.7-0.1 1.4-0.1 2.8 0 1.4 0.1 2.7 0 1.4 0.1 2.8v15.3l40.8 9.8c4 0 10.4 2.8 13.8 0l2.7 3.4-15 11.9-12.5 11.1-2.5-3.1c0 0 5.5-4.9 3.7-7.3-1.9-2.5-8.9-4.6-8.9-5.3l-20.2-4.6v9.9zm140.6-144.4l4.3-2.1 11 20.5-4.6 2.1c-1.4-2.1-3.1-3.9-5.1-5.4-2.1-1.5-4.4-2.6-6.8-3.3-2.4-0.7-4.9-0.9-7.4-0.8-2.6 0.2-5 0.8-7.3 1.9-15.9 7.6-12 26.6-5.8 39.5 6.1 12.9 17.4 26.7 32.8 19.6 8.5-4.3 11.3-9.8 7.3-18.7-4-8.9-5.2-7.3-12.6-4.9v-3.3l30.7-14.5 1.5 3.7c-6.4 3.7-4.9 6.2-2.1 11.7l4.9 10.4q-1.9 1.1-3.6 2.3-1.8 1.3-3.5 2.6-1.7 1.4-3.3 2.8-1.6 1.5-3.1 3-1.5 1.7-3.2 3.3-1.6 1.6-3.5 3-1.8 1.3-3.7 2.5-2 1.2-4 2.3c-4.3 2.4-9.1 3.9-14.1 4.4-4.9 0.4-9.9-0.2-14.6-1.8-4.7-1.6-9-4.2-12.6-7.6-3.6-3.5-6.5-7.6-8.3-12.2-2.5-4.5-4-9.5-4.4-14.6-0.4-5.1 0.2-10.2 1.8-15.1 1.7-4.9 4.3-9.3 7.7-13.1 3.5-3.8 7.6-6.9 12.3-9q2.6-1.3 5.4-2.1 2.8-0.9 5.7-1.3 2.9-0.4 5.8-0.3 2.9 0.1 5.8 0.6v-6.1zm69.2 46.9v0.5q-0.1 0.1-0.3 0.1zm6.2-15.6l-9.8-36.2c-2.8-8.9-3.7-13.8-14.1-10.7v-3.7l15.6-5.5 19.9-6.1v3.9c-10.4 2.5-8.9 7.4-6.4 16.3l8.9 30.6c2.7 10.8 4.6 17.5 17.4 13.8 12.9-3.7 16.6-8.2 16.3-21.1h4.6l4.9 20.5c-19.3 5.5-38.9 10.7-45.7 12.3l-17.8 5.5v-3.5c10.1-2.4 8.6-7.3 6.2-16.1zm92.8-26.1v3.4q-0.4 1.1-0.6 2.3-0.3 1.2-0.5 2.4-0.2 1.2-0.3 2.4-0.1 1.2-0.1 2.4c0.6 5.2 5.8 5.2 9.8 5.2v4h-14.1l-12.6 1.8v-4c8.9-1.2 11.1-12.2 12.9-19.3l14.7-54.2h5.2l30.7 54.2q0.5 1.3 1.1 2.5 0.6 1.2 1.3 2.3 0.7 1.2 1.5 2.3 0.7 1.1 1.6 2.1 1 0.8 2.1 1.3 1.2 0.6 2.4 0.9 1.2 0.4 2.5 0.5 1.2 0.2 2.5 0.1v4l-19.9 1.8-17.5 2.5v-4c3.1-0.9 8.6-1.2 8.6-6.1q-0.3-1-0.7-1.9-0.3-0.9-0.7-1.8-0.4-0.8-0.8-1.7-0.4-0.9-0.9-1.7l-3.1-5.8-24.5 2.7zm22.4-8.5l-12.9-24.3-7.3 26.7zm57 23.3v-4c11 0.9 11-4.3 11-13.5l0.3-37.4c0.6-9.2 0.9-14.7-9.5-14.7v-4l34.6-0.6q4 0 7.9 0.6 3.9 0.7 7.6 2 3.8 1.3 7.2 3.3 3.4 2 6.4 4.6 3.1 2.9 5.3 6.5 2.3 3.5 3.7 7.5 1.5 4 2 8.2 0.5 4.2 0.1 8.4 0 3.7-0.8 7.3-0.8 3.6-2.4 7-1.6 3.3-3.9 6.2-2.3 2.9-5.2 5.2-3.1 2.3-6.6 3.9-3.5 1.7-7.2 2.6-3.8 0.9-7.6 1.2-3.9 0.2-7.7-0.3zm30-61.9l-1.8 40.1q-0.2 1.8-0.4 3.6-0.1 1.7-0.1 3.5 0 1.8 0.1 3.5 0.2 1.8 0.4 3.5 0.4 1.4 1.3 2.5 0.8 1.2 2 2 1.1 0.8 2.5 1.3 1.4 0.4 2.8 0.4c17.4 0 20.5-17.2 20.5-30.7q0.2-2.9 0.1-5.8-0.1-3-0.5-5.9-0.4-2.9-1.2-5.7-0.7-2.8-1.8-5.6-1.3-2.6-3.4-4.7-2.1-2.1-4.6-3.5-2.6-1.4-5.5-2.1-2.8-0.6-5.8-0.4c-0.9 0-4.6-0.3-4.6 0zm78.5 70.8h-4.9l4.6-23h4.3c0 10.7 4.3 20.9 16.2 23.3 1.5 0.5 3.1 0.6 4.7 0.5 1.5-0.2 3.1-0.7 4.4-1.5 1.4-0.7 2.6-1.8 3.6-3 0.9-1.3 1.6-2.7 2-4.3 2.2-10.1-7.6-15-14.7-19.9-2.3-1.1-4.5-2.6-6.4-4.4-1.8-1.8-3.4-3.9-4.6-6.2-1.2-2.3-2-4.8-2.3-7.4-0.4-2.6-0.4-5.2 0.1-7.7 0.7-2.9 1.9-5.7 3.6-8.1 1.8-2.3 4-4.3 6.6-5.8 2.6-1.5 5.4-2.4 8.4-2.7 2.9-0.3 5.9 0 8.7 0.9q2.2 0.3 4.3 1.1 2.1 0.7 4 1.8 2 1.1 3.6 2.5 1.7 1.5 3.1 3.2l2.5-4h4.6l-3.4 20h-4.6c0.1-2.2-0.2-4.4-0.9-6.5-0.6-2-1.6-4-2.9-5.7-1.3-1.8-2.9-3.3-4.7-4.5-1.8-1.2-3.8-2.1-5.9-2.7-1.3-0.3-2.6-0.5-4-0.3-1.3 0.1-2.6 0.5-3.8 1.1-1.2 0.6-2.3 1.5-3.1 2.5-0.9 1-1.6 2.2-2 3.5-1.5 8.3 6.2 12.2 11.7 16.2 10.7 7.7 20.8 15.1 17.7 30.7-0.7 3.2-2.1 6.3-4.1 8.9-1.9 2.7-4.5 4.9-7.4 6.5-2.8 1.6-6 2.6-9.3 2.9-3.3 0.3-6.7-0.1-9.8-1.2q-2.6-0.4-5.1-1.4-2.5-1-4.8-2.4-2.3-1.5-4.2-3.4-1.9-1.9-3.4-4.1l-2.7 5.8zm157.2-8.2l-4.6-1.6c0.7-1.9 1-4 0.9-6.1-0.1-2.1-0.6-4.2-1.5-6.1-1-1.9-2.2-3.5-3.8-4.9-1.6-1.4-3.4-2.5-5.4-3.1-6.8-2.5-6.2-3.1-8.9 5.2l-14.7 39.2c-3.4 9.5-5.2 13.5 5.5 17.2v3.7l-18.4-7.1c-6.1-2.4-12.6-4.3-18.7-6.4l1.5-4c10.5 4.3 11.7 0 15.4-9.2l14.7-39.2c2.7-7.7 2.7-7.1-3.7-10.1-6.4-3.1-15.9 0-21.1 8.9h-4.6l6.7-21.8 67.4 24.8-6.7 19.9zm40.7 81.3c-8.7-5.1-15.1-13.5-17.6-23.4-2.6-9.8-1.1-20.2 4.1-28.9 5.2-8.7 13.7-15 23.5-17.5 9.9-2.4 20.3-0.8 28.6 5 8.7 5.1 15.1 13.4 17.6 23.2 2.6 9.7 1.2 20.1-3.9 28.8-5.1 8.7-13.4 15.1-23.1 17.6-9.8 2.6-20.1 1.2-29.2-3.3zm35.3-60.7c-15.4-8.9-28.2 4.3-35.3 16.6-7 12.2-14.7 30 1.9 40.1 16.5 10.1 28.8-3.1 36.4-15.6 7.7-12.6 13.8-30.7-2.1-40.2zm72 66.2l-23 26.1c-5.5 6.1-11 12.5-3.4 20.2l-2.7 2.8c-3.4-2.8-6.5-6.2-9.8-9.2l-9.8-8 2.7-3.1c7.4 5.6 11.1 2.5 16.3-3.3l30.6-33.7c0-6.2 0-8.6-3.4-12.9l2.8-3.1 7.7 7.4 9.2 7.3v67.1l19.6-22.3c5.5-6.5 11-12.3 3.3-19.6l2.5-3.1 9.2 8.6 10.4 8.6-2.8 3c-2.7-1.8-5.5-3.7-8.5-2.4q-1.5 0.9-3 1.9-1.4 1-2.7 2.2-1.3 1.1-2.5 2.4-1.2 1.3-2.3 2.7l-35.2 40.1-4.3-3.7v-76zm33.1 101.5l-0.6 0.4q-0.1-0.2-0.3-0.4zm16.5 0l29.1-23.6c7.1-5.8 11.4-8.9 4.3-16.9l3.1-2.7 11.6 15 26.1 30.6-14.7 12.9-3.1-3.7c1.7-1.4 3.1-3.3 4-5.3 0.9-2 1.4-4.2 1.4-6.5 0-2.2-0.5-4.4-1.4-6.5-0.9-2-2.3-3.8-4-5.3-1.7-1.4-5.2-6.7-6.7-6.4q-0.7 0.4-1.3 0.8-0.7 0.4-1.3 0.9-0.6 0.4-1.2 0.9-0.6 0.5-1.1 1.1l-16.3 12.8c5.9 7.1 10.8 10.8 19 4.3l3.1 3.7-12.3 9.2-10.4 8.9-2.7-3.4c6.4-8 6.1-11.3 0-19.3l-10.1 8.3c-8.3 6.4-13.5 10.4-5.3 20.5 1.2 2.2 2.9 4.1 4.8 5.6 2 1.5 4.3 2.5 6.7 3 2.4 0.5 4.9 0.5 7.3 0 2.4-0.5 4.7-1.6 6.7-3.1l2.7 3.4-10.1 7.7-6.4 6.1-28.8-36.2-12.3-14.4 2.5-2c6.3 7.7 10.2 4.4 17.1-0.4zm59.5 115.5l0.1 0.2-0.4 0.1zm0.1 0.2l3.2-1.4c4.3 9.8 8.9 7.4 17.2 3.4l33.7-16c8.3-3.9 13.2-5.8 8.3-15.3l3.7-1.8c2.4 4.9 3.9 8.9 6.4 14.4 2.5 5.5 5.5 10.7 8 16.2 4.9 10.7 6.7 29.8-3.4 34.3-10.1 4.6-18.7-3.9-23.6-11.6 3.7 10.4 9.8 23.9-6.7 30.6-16.6 6.8-27.6-11.3-33.4-23.9l-6.5-15zm30.6 16.4c-6.7 3.1-13.2 6.8-9.5 14.7 3.7 8 11.3 7.7 18.4 4.3 2.2-0.6 4.2-1.7 5.8-3.3 1.7-1.5 2.9-3.4 3.7-5.6 0.7-2.1 0.9-4.4 0.6-6.6-0.3-2.3-1.1-4.4-2.5-6.2-0.6-1.3-2.1-2.8-2.1-4.3zm41.1-19.9q0.3 0 0.7 0h0.2zm0.7 0l-22.5 10.7v2.1c4.6 9.5 9.2 12.3 18.7 7.7 1.8-0.5 3.4-1.3 4.8-2.5 1.4-1.2 2.5-2.7 3.2-4.4 0.7-1.8 0.9-3.6 0.8-5.4-0.2-1.9-0.8-3.6-1.7-5.2-0.8-1.3-1.8-2.6-3.3-3zm-8.4 97.1h-3.4q-1.2-0.2-2.4-0.2-1.2-0.1-2.5-0.1-1.2 0-2.4 0.1-1.2 0-2.5 0.2c-5.2 1.2-3.3 6.4-3.3 10.4h-3.7c-1.2-4.3-1.8-9.5-3.4-13.5-1.5-3.9-4-7.9-4-11.9h3.7c2.8 9.8 13.8 9.8 21.2 9.8l58.8 7.1v5.2l-48.7 38q-1.3 0.8-2.4 1.8-1.2 0.9-2.3 2-1 1-2 2.1-1 1.1-1.9 2.3-0.3 1-0.4 2-0.2 1-0.2 2 0 1 0.2 2 0.1 1 0.4 2h-4c-1.5-6.4-3.4-13.5-4.9-19.3-1.5-5.8-5.2-11.3-5.2-16.9h4c1.2 3.1 2.4 7.4 7 7.4q0.9-0.4 1.8-0.9 0.8-0.5 1.7-1 0.8-0.5 1.6-1 0.9-0.5 1.7-1.1l5.2-4-6.8-23.6zm12.6 20.6l21.8-16.6-27.3-3zm43.5 69.2l-34 3.7c-8.6 0-17.2 2.1-16.3 12.6h-3.9v-13.5l-1.9-12.6h4c1.8 8.9 6.4 9.2 14.4 8.3l44.4-4.9c4.6-4.3 6.5-5.8 6.5-12h4v10.4l1.8 12.6-47.2 49.1 30.6-3.1c8.6 0 16.6-1.9 16-12.3h4v12.6l1.8 13.2h-4q-0.1-1.2-0.6-2.4-0.4-1.1-1-2.1-0.6-1.1-1.5-1.9-0.8-0.9-1.8-1.6-1.7-0.3-3.4-0.4-1.7-0.2-3.5-0.2-1.7 0-3.4 0.2-1.8 0.1-3.5 0.4l-53 5.8v-5.5zm-33.4 124.8c-9.5 0-11.6 0-12.9 9.1h-3.9v-37.3h3.9c0 10.7 4.3 10.7 13.5 11l37.1 2.4c9.5 0 14.4 0 15-9.5h4v36.8h-4q0.2-1 0.2-2-0.1-1-0.3-2-0.2-1-0.7-1.9-0.4-0.9-1-1.7c-1.9-2.2-7.1-2.5-9.8-2.5l-23.9-1.5 7.6 7.9c3.7 3.7 18.1 17.8 22.7 18.1 4.6 0.3 4.3-4.9 4.9-7.6h4v27.9h-4q0.1-1.5-0.1-2.8-0.2-1.4-0.6-2.8-0.5-1.3-1.1-2.5-0.7-1.3-1.6-2.4-0.8-1.1-1.8-2.1-0.9-1.1-1.9-2.1-1-1-2.1-1.9-1-1-2.1-1.8l-11.4-10.5-33.7 23.3c-3.3 2.5-9.2 5.6-9.5 10.1h-4c0-6.4 0-12.5 1.6-19 1.5-6.4 0-11.3 0-16.8h4c0 2.1 0 7.7 2.7 7.7 2.8 0 7.7-3.4 10.1-5l16.9-11.3-6.4-7.3zm-1121.9 284.7l13.2 23-24.5-10.5-18.1 20.3 3.1-26.4-24.5-10.7 26.3-5.5 3.1-27 13.2 23 25.7-5.5zm216.9 207.2l-6.4 10.7 13.8 7.9-4.9 8.3-13.5-8.3-12.6 21.5-9.5-5.8 28.2-48.1 24.2 14.1-4.9 8.2zm23 64.3c-2.5-2.9-4.4-6.2-5.6-9.8-1.2-3.6-1.6-7.4-1.3-11.2 0.4-3.8 1.5-7.4 3.2-10.8 5.1-11.7 16.9-19 29.6-18.4 12.7 0.6 23.8 9 27.7 21.1 3.9 12.2 0 25.4-10 33.4-9.9 8-23.7 9-34.7 2.5-3.4-1.6-6.4-3.9-8.9-6.8zm22.5-38c-2.3 0-4.6 0.5-6.6 1.4-2.1 0.9-4 2.2-5.6 3.8-1.6 1.6-2.9 3.5-3.8 5.6-1 2.1-1.6 4.4-1.7 6.6-0.2 2.3 0 4.6 0.7 6.8 0.6 2.2 1.7 4.3 3 6.2 1.4 1.8 3.1 3.4 5 4.6 2.2 0.7 4.5 1 6.8 0.8 2.2-0.1 4.5-0.7 6.5-1.6 2.1-1 4-2.3 5.6-4 1.6-1.6 2.9-3.5 3.8-5.6 1-2 1.7-4.2 1.9-6.5 0.2-2.2 0-4.5-0.7-6.7-0.6-2.2-1.7-4.2-3.1-6-1.4-1.8-3.2-3.3-5.2-4.4-2.1-0.8-4.4-1.1-6.6-1zm49.8 9.6l10.2 3.7-9.9 30.6c-2.4 6.5-4.9 16 3.7 19 8.6 3.1 12.6-6.1 14.7-12.9l10.1-30.6 10.5 3.4-10.8 30.6c-4.6 12.9-13.1 20.6-27.5 16-14.4-4.6-16.3-16.6-11.7-30.7l10.7-30.6zm56.4 16.8l7.7 1.9 19.9 44.4h0.3l8.3-36.8 10.4 2.5-12.6 55.8-7.6-1.9-19.9-44.4h-0.3l-8.3 37.1-10.7-2.5zm64 14.7l15.6 1.9c6.9 1.4 13.1 5.4 17.2 11.1 4.1 5.8 5.9 12.8 5 19.8-0.8 7-4.2 13.5-9.6 18.1-5.4 4.6-12.3 7-19.3 6.7l-15.3-1.8zm5.5 47.5l1.5-0.1c4.9 0.6 9.7-0.8 13.6-3.8 3.8-3 6.3-7.4 7-12.2 0.6-4.8-0.8-9.7-3.8-13.6-3-3.8-7.4-6.3-12.2-7.1h-1.8zm62.8-31.5l-0.3 12.2 17.4 0.6-0.6 9.2-17.1-0.3-0.6 15 18 0.6-0.3 9.2-28.8-0.6 1.9-56.1 28.8 1-0.3 9.5zm35.8-9.5h15.3c7.1 0.2 13.8 3.1 18.8 8 5 4.9 8 11.6 8.4 18.6 0.4 7-1.9 14-6.3 19.4-4.5 5.5-10.8 9-17.8 10h-15.3c0-0.3-3.1-56-3.1-56zm13.2 46.2h1.8c2.6 0.3 5.1 0 7.5-0.9 2.4-0.8 4.6-2.3 6.3-4.2 1.7-1.9 2.9-4.2 3.6-6.6 0.6-2.5 0.7-5.1 0.1-7.6-0.3-12.2-7-17.4-19.6-17.4h-1.5zm116.7-53.7l-2.4-8.9 17.4-4.9 14.4 54.3-10.7 2.7-11.6-45zm76.9 28.2l-9.5-3.1 5.2-19q-0.5 0.3-1 0.6-0.5 0.2-1 0.5-0.5 0.2-1 0.4-0.5 0.2-1 0.4c-2.2 0.7-4.6 1-6.9 0.8-2.3-0.2-4.6-0.8-6.7-1.9-2-1.1-3.8-2.6-5.3-4.4-1.5-1.8-2.5-3.9-3.2-6.2-1.3-4.8-0.8-9.9 1.4-14.3 2.3-4.4 6.1-7.9 10.7-9.6 4.7-1.8 9.8-1.8 14.4 0 4.7 1.9 8.4 5.4 10.6 9.8q0.7 2.4 1.1 4.9 0.4 2.5 0.4 5.1 0 2.5-0.4 5-0.4 2.5-1.1 4.9l-6.4 26.1zm-17.9-46.5c-0.9 0.9-1.5 2-1.9 3.1-0.4 1.2-0.6 2.4-0.6 3.6 0 1.3 0.3 2.5 0.8 3.6 1.4 4.3 5.4 7.3 10 7.3 4.5 0.1 8.6-2.7 10.2-7 1.6-4.3 0.3-9.1-3.3-12-3.5-2.9-8.5-3.2-12.3-0.8-1.1 0.5-2.1 1.3-2.9 2.2zm84.4 5.1l3.9 8.6-34.3 14.7 5.5-22.4q1.1-2.8 1.8-5.8 0.6-3 0.9-6 0.3-3 0.1-6-0.1-3.1-0.6-6.1c-1.5-3.7-6.1-7.3-10.4-5.2-4.3 2.2-4 7.7-2.2 11.7l-10.4 4.9c-1.2-2.2-1.9-4.6-2.1-7.1-0.2-2.5 0.1-5 0.9-7.4 0.8-2.3 2.1-4.5 3.8-6.3 1.7-1.9 3.7-3.4 6-4.4 2.1-1 4.5-1.7 6.9-1.8 2.4-0.2 4.8 0.1 7 1 2.3 0.8 4.4 2 6.1 3.6 1.8 1.7 3.2 3.6 4.2 5.8q1 2.7 1.6 5.5 0.5 2.8 0.5 5.7 0 2.9-0.5 5.7-0.6 2.8-1.6 5.5l-3.4 12.2 16.6-7.6zm6.1-45.4l-4.6-7.9 15.6-9.2 27.9 48.4-9.2 5.5-23.3-40.5zm237.8-227.1l13.5-22.9 3.1 26.9 26.3 5.5-24.5 10.8 2.8 26.3-17.8-20.2-24.8 10.4 13.5-23-17.5-19.6z"/>
			<path id="Layer" class="s7" d="m482.2 1386.4c-83.4-34.5-159.1-85.1-223-148.9-63.8-63.8-114.4-139.6-149-223-34.5-83.4-52.3-172.7-52.3-263 0-277.9 167.4-528.4 424-634.8 256.7-106.4 552.2-47.6 748.7 148.8 196.5 196.5 255.4 492 149.1 748.8-106.2 256.7-356.6 424.2-634.5 424.4-90.2 0-179.6-17.8-263-52.3z"/>
			<path id="Layer" class="s8" d="m542.2 1241.7c-64.3-26.7-122.8-65.8-172-115.1-49.3-49.2-88.4-107.7-115-172.1-26.7-64.3-40.4-133.3-40.4-203 0-214.6 129.2-408 327.4-490.1 198.3-82.2 426.4-36.8 578.1 115 151.7 151.7 197.1 379.9 115 578.1-82.1 198.3-275.5 327.5-490.1 327.5-69.6 0-138.6-13.7-203-40.3z"/>
			<path id="Layer" fill-rule="evenodd" class="s6" d="m1218.3 444.5c103.9 158.4 120.9 358.5 45.3 532.2-75.7 173.7-233.8 297.5-420.5 329.3-186.7 31.7-376.9-32.8-505.7-171.7l-8.9-5.5q-17-18.7-32.2-38.9-15.3-20.2-28.6-41.6-13.3-21.5-24.7-44.1-11.3-22.6-20.5-46.1-0.4-0.7-0.8-1.4-0.4-0.6-0.7-1.3-0.3-0.7-0.7-1.4-0.3-0.7-0.6-1.4 0.1-0.6 0.1-1.3 0-0.6 0-1.2 0-0.6 0-1.2 0-0.6-0.1-1.2c-2.1-5.9-6.1-16.3-6.7-18.1-0.6-1.9-2.5-3.1-2.5-4.9-2.4-7.4-4.3-15.4-6.4-23q0-0.5 0.1-0.9 0-0.5 0-1 0-0.4 0-0.9-0.1-0.4-0.1-0.9 0-1.1 0.1-2.2 0-1.1 0-2.2 0-1.1 0-2.3-0.1-1.1-0.1-2.2-3-10.2-5.5-20.6-2.6-10.3-4.7-20.7-2.2-10.5-3.9-21-1.8-10.5-3.1-21 0.1-0.7 0.1-1.3 0-0.7 0-1.3 0-0.7 0-1.4 0-0.6-0.1-1.3v-53.9c0.8-73.2 15.9-145.6 44.5-213 28.6-67.5 70-128.7 122.1-180.2 52-51.5 113.6-92.3 181.4-120.2 67.7-27.9 140.2-42.2 213.4-42.3 189.4-0.2 366.1 95.2 470 253.6zm34.1 395.9q1.7-5.9 3-12 1.4-6 2.3-12.1 0.9-6.1 1.4-12.3 0.5-6.2 0.6-12.3h0.3q0.5-11 0.5-22 0-11-0.4-21.9-0.3-11-1.1-21.9-0.8-11-2-21.9-1.3-14.4-3.5-28.7-2.3-14.2-5.4-28.3-3.1-14.1-7.1-28-4-13.9-8.9-27.5-1.9-9-4.5-17.8-2.6-8.9-5.8-17.5-3.3-8.6-7.2-17-3.9-8.3-8.5-16.3c-9.5-1.9-13.8 6.1-23 6.1-1.8-4.3-7.3 0.6-7.3-4.3q-1.5 0.2-3 0-1.5-0.2-2.9-0.9-1.3-0.6-2.4-1.6-1.1-1.1-1.8-2.4c6.4-7.4 19.3-2.4 27.2-2.4q0.6-1 1.4-1.7 0.8-0.7 1.8-1.2 1-0.4 2.1-0.4 1-0.1 2.1 0.2v-4.6c-11.1 2.1-4.9-11-8.6-13.5-3.7-2.4-4.9 0-8.6 0-3 3.7-0.6 8.6-3 12.3-32.8 0 9.8-14.7 0-30.7-10.2 3.7-6.5-9.5-10.2-10.7-3.6-1.2-5.5 3.1-8.5 3.1-2.6-1.8-5.4-3.2-8.4-4.2-3-0.9-6.1-1.4-9.3-1.4-3.1 0-6.2 0.5-9.2 1.4-3 1-5.8 2.4-8.4 4.2 6.8-1 9.8 6.4 16.6 6.4q1.2 1.7 2.1 3.6 0.9 1.9 1.4 4 0.5 2 0.6 4.1 0.2 2.1-0.1 4.2c-1.9 4.3-5 4.3-7.1 4.3-3.1-6.1-14.7-9.8-17.8-9.8-3 0-6.4-1.2-8.2 2.5l-3.1-2.5c-7.4 1.2-17.2-3.7-21.8 4.3-11.3-1.2-18 10.4-30.6 10.4-1.2-1.8-4.3-3.7-4.3-6.1-5.5-1.2-10.4-0.6-11.6-3.1-1.3-2.4 3-3.7 3-5.5q2.8-0.5 5.6-0.2 2.9 0.2 5.5 1.2 2.7 0.9 5 2.6 2.3 1.6 4.1 3.8c6.5-8.6 16.3-8.6 23.6-16.6 6.5 1.2 15.1-2.4 20 3.1v-16.3c14.1-11 24.2-28.8 44.7-19.6 1.2-1.2 3.1-1.8 3.1-4.3q-11.4-14.8-23.9-28.6-12.4-13.9-26-26.7-13.5-12.8-28.1-24.5-14.5-11.7-29.9-22.2c-5.5-4.9-14.4-12.3-19.9-16.6q-21.6-13.2-44.3-24.4-22.7-11.2-46.4-20.4-23.6-9.1-47.9-16.1-24.4-6.9-49.3-11.7-8.7-1.6-17.5-2.7-8.9-1.2-17.7-1.9-8.9-0.8-17.8-1.2-8.8-0.4-17.7-0.3-5-1.6-10.2-2.5-5.1-0.8-10.4-0.8-5.2 0-10.4 0.8-5.1 0.9-10.1 2.5-12.2-0.1-24.5 0.5-12.2 0.7-24.4 2-12.1 1.4-24.2 3.4-12.1 2.1-24 4.8c-9.2 3.7-18.7 5.5-27.9 8.6q-5 0.8-9.8 2.1-4.9 1.3-9.6 3-4.8 1.7-9.4 3.8-4.5 2.1-8.9 4.5c-18.9 6.8-37.4 14.8-55.4 23.8-17.9 9-35.3 19.1-52.1 30.2-16.7 11.1-32.8 23.3-48 36.3-15.3 13.1-29.8 27-43.4 41.8v1.9q-4.7 4-8.9 8.5-4.3 4.4-8.2 9.2-3.8 4.8-7.2 10-3.4 5.1-6.3 10.6l5.5 3.1 12.2-16.3c5.3-3.7 9.5 10.7 12.6 1.5-1.8-0.6-8.6-4.6-5.5-8.8 9.2-18.4 19.6 0 27.3-1.9 3.6 17.5 22.3-3 29.1 12 3.7 0 7.3 1.2 9.2-2.8 1.8 2.8 3 2.8 5.5 2.8 10.1 5.5 4.3-10.1 10.1-13.2l8.6 11.9c-1.9 23.3-24.8 1.3-37.7 14.8 4.3 6.7 20.8 4.2 24.8 13.4q-2.2 0.8-4.5 1.4-2.4 0.5-4.7 0.8-2.4 0.3-4.7 0.4-2.4 0.1-4.8-0.1c-8.6-12.3-23.6 2.4-33.7 0-2.4-8 7.7-11.7 10.1-15.9l-8.6-10.5c-21.7-5.5-11.3 20.3-26 25.2-19.3-7.4-27.3 12.5-45.4 8.9q-6.8 11-13.2 22.2-6.5 11.3-12.4 22.8-6 11.5-11.6 23.2-5.5 11.8-10.6 23.7c-3 3.7-4.9 17.5-8.5 20.5q-0.4 1.9-0.9 3.8-0.5 1.9-1.1 3.8-0.6 1.8-1.4 3.6-0.7 1.8-1.5 3.5c-4.3 6.8-2.5 17.2-7.1 22.4q-2 7.9-3.7 15.9-1.7 7.9-3.2 16-1.4 8-2.6 16-1.2 8.1-2.1 16.2-1.6 16.9-2.4 34-0.9 17-0.9 34 0 17.1 0.9 34.1 0.8 17 2.4 34l3 3-2.7 1.6c0 3-0.6 6.7 3 8.5 2.2 16.8 5.3 33.4 9.4 49.9 4 16.4 9 32.6 14.8 48.4 5.9 15.9 12.6 31.4 20.2 46.6 7.6 15.1 16 29.8 25.2 43.9 13.2-1.8 32.8 4.9 43.8-6.4q5.9 0 11.8-0.4 5.9-0.5 11.8-1.4 5.9-0.9 11.6-2.3 5.8-1.4 11.4-3.3 14.2 0.7 28.5 0.5 14.2-0.2 28.4-1.2 14.3-1.1 28.4-3.1 14.1-1.9 28.1-4.7c12.8-8.6 29.4-1.9 43.5-6.2l3-3c38.7 0 70.8-11.4 107.9-13.2 7.4 7.3 18.1 3.4 26.1 0q-4-2.1-8.1-4-4.1-1.9-8.3-3.6-4.2-1.7-8.5-3.2-4.2-1.4-8.5-2.7c-10.5-9.5-32.2-10.7-32.2-30.6l-16.3 1.8q-2.1-0.6-4.1-1.3-2-0.8-4-1.7-2-0.9-3.8-2-1.9-1.1-3.7-2.4c-11 1.9-17.8-7.9-25.1-14.7q-9.5-5.6-18.6-11.8-9-6.3-17.6-13.2-8.6-7-16.6-14.5-8.1-7.5-15.6-15.6-5.7-4.5-12.1-8.2-6.3-3.7-13-6.5-6.8-2.9-13.9-4.8-7-1.9-14.3-2.9v-1.5h-6.1c-9.5 10.4-5.8 28.8-2.8 43.2 5.3 8.5 2.8 23.3 2.8 32.8-9.5 16.5-36.2 12.8-36.2 38.3q-2.5 2.7-4.8 5.7-2.3 2.9-4.3 6.1-2 3.2-3.7 6.5-1.7 3.3-3.1 6.8v3.1c-11.3 4-19.3 19.3-35.2 13.1q-3-2.5-5.6-5.5-2.5-3-4.5-6.4-2-3.5-3.4-7.1-1.4-3.7-2.2-7.6c-3-8 1.9-12.3 0-22.4 4.9-14.7 21.8-7.3 27.9-17.8q0.7-2.7 0.6-5.5 0-2.9-0.8-5.6-0.9-2.7-2.3-5.1-1.5-2.4-3.6-4.3c1.8-4.3 4.3-8.6 1.8-14.7-2.4-6.1-10.1-3.7-10.1-10.4h-3q-4.7-8.6-8.8-17.5-4-8.9-7.4-18.1-3.5-9.1-6.2-18.5-2.8-9.3-4.9-18.9-2.9-9.7-4.7-19.6-1.8-10-2.6-20.1-0.7-10-0.5-20.1 0.3-10.1 1.7-20.2c4.3-1.5-0.7-7.3 4.3-7.3-1.3-9.2 7.3-10.4 10.1-17.8 1.8-1.2 6.1-0.6 4.3-4.3q2.4-2.4 4.6-4.9 2.2-2.5 4.3-5.1 2.1-2.7 4-5.5 1.9-2.7 3.6-5.6 4.7-6.9 9.9-13.4 5.2-6.5 10.8-12.6 5.6-6.1 11.6-11.8 6-5.7 12.4-11v-4.6c4.9-15.9-14.1-7-20.5-11.6v-2.8c-1.8-4.3-6.1-2.4-9.8-2.4-5.5-9.8-17.5-10.4-20.5-19.6 1.8-2.5 3-2.5 6.1-2.5 1.8-5.8-3.1-8.9-6.1-12.6q1.4-1 2.6-2.3 1.1-1.3 2.1-2.8 0.9-1.5 1.6-3.2 0.7-1.6 1-3.3l-17.7-12.9c6.7-5.5 13.4-16.2 21.7-19.9v-2.5c3.7 0 4.3-4.9 9.2-4.9 6.4-10.1 20.8-4.2 30.6-4.2 12.6 5.5 11.4 19 17.5 28.1-1.8 2.2 1.2 5.9-1.8 5.9 4.9 1.8 3 6.7 3 10.4 9.2 13.5 11.7 33.4 20.6 48.7q5.8-1.8 11.7-3.2 6-1.5 12-2.4 6.1-0.9 12.2-1.3 6.1-0.5 12.2-0.4 4.7 1.4 9.3 3 4.6 1.7 9.1 3.5 4.6 1.9 9 4 4.4 2.1 8.7 4.5c11.7 15.9 29.8 9.5 42.3 19.6 3.4 7.4 14.7 2.5 19 9.8 12.6-9.2-6.7-17.8 0-30.6 4.3-2.2-0.6-7.7 4.3-7.7 0.6-4.9 1.8-11 6.1-12.9l-4.9-3q-7.6-1-15.3-1.4-7.6-0.5-15.3-0.5-7.7 0-15.4 0.5-7.6 0.4-15.2 1.4c-3.7-10.5 7.6-7.4 11.6-13.8 15.6 1.2 27.3-7.4 43.5-7.4-11-11-31.6-1.8-43.5-12.9 5.8-17.7 30.9-5.8 46.6-13.8 15.6-7.9 38-0.6 50.8-17.7q0.4-3.4 0.9-6.8 0.5-3.4 1.2-6.7 0.7-3.3 1.6-6.6 0.8-3.3 1.9-6.6c-1.3-4.9 2.4-11.6-3.1-14.7 1.2 0 3.1 1.8 3.1 0 0-1.8 2.1-6.1 0-6.1 1.5-4.9 5.2-15 7-19.3 1.8-4.3 1.8-9.8 5.5-11.7v-1.8q-0.3-1.2-0.3-2.4 0.1-1.2 0.5-2.4 0.4-1.1 1.2-2.1 0.7-1 1.7-1.7c2.4-15.6 21.7-23 36.4-26.7 10.2-6.1 20-17.7 14.4-30.6 5.6-5.5 16-2.5 23-2.5v-3q-5.6 0.1-11.1-0.7-5.6-0.8-10.9-2.6-5.3-1.8-10.3-4.4-4.9-2.7-9.3-6.1c-1.9-3.7 2.4-4.9 4.2-7.4 26.7-1.8 9.5-35.2 14.4-49.9q7.7-3.5 15.8-5.7 8.1-2.2 16.5-3.2 8.3-0.9 16.7-0.5 8.4 0.3 16.6 2c16.9 7.4 3.4 27.9 5.2 41.4 1.3 1.2 3.4 1.8 3.4 4.3q2.5 0.3 4.9 0.8 2.4 0.5 4.8 1.3 2.3 0.8 4.6 1.8 2.2 1 4.4 2.2c-4.3 4.9-9.2 15-17.2 12.9-5.8 8.2-19.9 6.4-28.8 4.3-1.5 3.9-3.6 9.5-7.3 9.5 2.1 1.1 4.4 1.9 6.8 2.3 2.4 0.4 4.9 0.5 7.3 0.2 2.4-0.2 4.7-0.9 7-1.8 2.2-1 4.3-2.2 6.2-3.8 1.1-0.7 2.3-1.2 3.6-1.4 1.4-0.2 2.7 0 4 0.4 1.2 0.4 2.4 1.1 3.3 2 1 0.9 1.8 2 2.2 3.3 3.7 9.2-5.8 12.9-9.2 19 4.3 5.5-2.4 16.2 6.2 18.1 14.7 23 49.6 37.1 42.6 72.9 1.8 5.5 11.3 1.2 8.2 7.4-13.1 11 0.6 25.4 3.1 37.1 9.2 9.5 7.3 26 7.3 40.1 5.6 1.8 3.1 7.4 3.1 12q-1.2 4.6-2 9.3-0.8 4.8-1.2 9.5-0.4 4.8-0.3 9.6 0 4.8 0.4 9.6 0.6 0.9 1.4 1.7 0.8 0.7 1.8 1.2 1 0.4 2 0.6 1.1 0.1 2.2-0.2 3.5-4.6 6.5-9.5 3-4.9 5.5-10.1 2.6-5.3 4.5-10.7 2-5.4 3.4-11c1.9-5.9 8-7.7 12-10.8-6.5-15.3 17.7-21.4 12.8-30.6 0-2.8-2.4-6.5 0-8.9 2.5-2.5 6.2-2.5 8.6-4.9 2.5-2.5 5.8-4.3 4-8.6q3.1-1.5 6.1-3.1 3-1.6 5.9-3.4 3-1.7 5.9-3.5 2.9-1.8 5.7-3.8-1.4-2.1-2.3-4.4-1-2.3-1.5-4.7-0.5-2.4-0.5-4.9-0.1-2.5 0.3-5c7.7-14.4 16.9 12.9 26.1 0 11.9-0.6 29.7-5.5 39.2 4.3 4.3-0.6 10.4 3.1 12.9-2.4 14.4-4.3 18 14.4 20.5 20.5 2.4 6.1 1.2 12.9 5.5 17.8 0.6 26.6-28.5 6.7-43.8 15-1.6 4-8.3 0.6-8.3 7.3h4.3c14.7-5.2 34.9 4.9 45.3-8.8 8-3.7 11.1 4.9 14.5 7.6 3.6 12.9 24.8 14.4 27.2 30.7 2.5 16.2 0.6 27.9 10.4 40.1-1.2 1.2-1.2 5.5-4.2 3.4-3.1-2.2-3.1-3.4-3.1-6.1q-2.7-2.4-5-5.2-2.3-2.7-4.3-5.7-2-2.9-3.6-6.2-1.6-3.2-2.7-6.5c-1.9-11.4-6.8-24.9-17.8-28.5q0.5 2.6 1.4 5.1 0.9 2.5 2.2 4.8 1.3 2.3 3.1 4.4 1.7 2 3.7 3.7 0.2 5.7 1.2 11.3 1.1 5.6 3 10.9 1.9 5.4 4.6 10.3 2.8 5 6.2 9.5c26.4 19-13.5 22.7-13.5 38.9 7.1-7.9 20.6-3 27.9-10.4 26.1-5.8 23.6 22.7 37.4 35.3 8.6 14.1 31 20.2 25.1 38.6-7.9 2.7 3.4 7.7-4.3 10.7-2.1 16.6-23.2 21.8-30.6 35.3-7.4 13.4-28.5 4.9-42.3 7.3-8.6-7.3-15.3-10.4-20.8-20.5 2.4-25.8-25.5-15.3-37.4-30.7q0.1-1.2 0.8-2.2 0.6-1 1.7-1.6 1-0.7 2.2-0.8 1.2-0.1 2.3 0.3c1.3-1.5 3.1-2.7 3.1-4.6q-0.6-0.8-1.4-1.5-0.8-0.7-1.8-1.1-1-0.4-2-0.5-1.1-0.1-2.2 0.1-1.3-1-2.3-2.3-0.9-1.4-1.5-2.9-0.5-1.6-0.6-3.2 0-1.7 0.5-3.3c-11.7-3-25.5 0-35.3-6.1-6.7 2.5-17.7-1.8-15.6 4.3 2.1 6.1 9.5 4.3 14.4 6.1 11.6 8 35.2-4.9 37.7 16.3-17.8 9.8-35.9-4.6-55.2-4.6l-1.8 7.6c-20.8 28.2-9.8 69.3-9.8 102.4q1.7 5.5 3.1 11 1.5 5.6 2.7 11.2 1.3 5.6 2.2 11.2 1 5.7 1.8 11.3c-5.5 8 0 22.1-8.6 27.6v10.8l55.2-12c13.8-8.6 34-3.7 47.8-8.6 7.3-3 16.5-0.6 22-7.3-3.6-17.8 12-31 8.3-50.9 2.9-4.1 6.4-7.7 10.4-10.7 3.9-3.1 8.3-5.6 12.9-7.4 4.7-1.9 9.6-3 14.5-3.5 5-0.4 10-0.2 14.9 0.8 18.1 11 8.6 40.7 8.6 59.4q-1.4 2.8-2.3 5.7-1 2.9-1.5 6-0.6 3-0.7 6.1-0.1 3.1 0.2 6.1c3.1 6.8 15 1.9 13.5 12-5.5 16.5 6.4 45-16.6 50.5l-3 63.8 12.2 11.6c-4.9 15.1-10.4 34.1-1.8 45.7-6.1 6.7-12 16.6-16.5 21.8q10.8-11.1 20.9-22.9 10.1-11.8 19.3-24.3 9.1-12.5 17.4-25.6 8.3-13.2 15.6-26.8c8-6.8 6.1-19.7 14.7-25.5 2.4-11.9 9.8-18.7 13.2-30.6 1.8-4.3 1.8-11.1 5.5-13.5-1.2-16.6 9.8-27.9 12.2-42.6 1.9-6.2 5.6-16.9 5.6-18.1 0-1.2 1.8-4 0-4 7.6-7.7 1.8-20.5 5.2-29.4zm-163.1 279.2h-3v5.2q-0.7 0.8-1.5 1.3-0.9 0.6-1.9 0.9-1 0.3-2 0.2-1 0-2-0.2c-1.8 0-1.8-6.2-1.8-2.2l-5.5 5.5c18.4 16.6 20.2-13.2 36.4-19.3-1.8-23 9.2-40.7 7.4-63.7 4.3-6.2 0.3-18.4 4.3-23.9 3.1-41.7-0.9-88 3.1-127.5 7.6-8.9-1.6-23.6 10.1-30.7l-3.1-32.8c-6.1-7.9-16.5-6.1-26-3-9.5 3-11.4 16.8-17.5 21.1-6.1 4.3 0 13.5-6.1 15.9 1.8 8.9-5.6 16.3 1.8 22.4 12.6 0.6 21.8 14.7 26 25.5-2.4 1.2-4.2 3-7.3 3-3.7 8-10.7 13.2-8.9 23.3 1.8 10.1 12.6 4.3 16.2 12.3 3.1 2.1 0 5.8-1.8 5.8q-2.2-1.3-4.7-2.1-2.4-0.8-5-1.2-2.5-0.4-5.1-0.4-2.6 0.1-5.1 0.6c1.8 7.4 12.5 4.3 12.5 7.4 0 3 2.5 6.7 0 9.2-8.2 5.5-15-4.3-20.5-6.2q-1.9 2.8-3.3 5.8-1.4 3.1-2.1 6.4-0.7 3.3-0.7 6.6 0 3.4 0.6 6.7h10.7c6.2-4.9-6.1-15 6.2-15v13.8c0.6 12.8-18.7 3.6-14.4 19 13.7 2.1-2.5 12.5 0 18 2.7 0 6.4 0.7 8.2-3 4.9 3 13.5 4.9 13.5 10.4 10.1 5.5 3.7 15.9 8.3 23.3-2.2 4.6 3 10.1-2.2 11.9l-4.9-4.2c5.2-8-2.4-14.4-2.4-22.4-22.7-24.5-38.9 14.4-64.4 11.6-4.9 8.3-15 2.8-20.5 10.8-8 3-18.7 7.3-26 0q0-0.5 0.1-1 0.1-0.4 0.3-0.8 0.3-0.4 0.6-0.8 0.4-0.3 0.8-0.5v1.8c6.7-4.9 16.9-3 21.8-7.6q7.6-1.5 15-3.8 7.5-2.3 14.7-5.3 7.1-3 14-6.7 6.8-3.7 13.2-8.1c2.2-4.3-3-10.5 2.2-13.2-5.2-25.8 11.6-49.4-2.2-71.7q-8.6 0.5-17.1 1.7-8.6 1.1-17 2.9-8.5 1.7-16.8 4-8.3 2.3-16.5 5.2c-9.2 7.9-22.6 2.4-30.6 10.4q-5.1 0.3-10.1 1.4-5 1.1-9.8 3-4.7 1.8-9.1 4.4-4.4 2.6-8.4 5.9-1 4.6-1.6 9.3-0.5 4.7-0.5 9.4 0 4.7 0.5 9.4 0.6 4.7 1.6 9.3 6.3 8.1 12 16.6 5.7 8.6 10.8 17.5 5 8.9 9.5 18.2 4.4 9.2 8.2 18.8c4.9 6.1-1.3 15.3 4.9 20.8q1.2 10.1 3.5 19.9 2.4 9.9 5.8 19.4 3.5 9.5 8 18.6 4.4 9 9.9 17.5 5.5-1.9 10.9-4.2 5.3-2.4 10.4-5.2 5.1-2.7 10-5.9 4.9-3.2 9.5-6.7c30-5.6 15-41.1 19.3-61.3l-3.1-3.1c-11.6 4.9-23.6 9.2-35.2 13.5-8.6 9.8-27.3 7.3-39.2 7.3v-4.3c6.7-7.9 13.1-0.6 21.7-3q6.9-2.1 13.6-4.5 6.8-2.4 13.4-5.1 6.6-2.8 13-5.9 6.5-3.1 12.7-6.6c10.4-0.9 19.6-17.5 30.7-3.4q-1.2 2.1-2.2 4.3-1 2.2-1.8 4.5-0.7 2.3-1.3 4.6-0.5 2.3-0.9 4.7c4.9 1.2 0 8.3 5.2 8.3zm-449.5 134.1q13.5 3.5 27.1 6.1 13.6 2.7 27.4 4.5 13.8 1.8 27.6 2.7h51.8l3.1-3q15.7 0.1 31.3-1.4 15.7-1.4 31.1-4.3 15.4-2.9 30.5-7.4 15.1-4.4 29.7-10.2 7.6-1.2 15.1-3.2 7.4-2 14.6-4.8 7.2-2.8 14-6.4 6.9-3.7 13.3-8c-3.7-4.3 0.6-9.8-6.2-11.7q-0.5-4.9-1.7-9.7-1.2-4.8-3.2-9.4-1.9-4.5-4.6-8.7-2.6-4.2-5.8-8l-11.3-13.8q-2.1-0.1-4.2 0.1-2.1 0.2-4.1 0.6-2.1 0.3-4.1 0.9-1.9 0.6-3.9 1.5c-24.2 4.6-48.7 9.8-72.9 11.9-8.3 4.9-20.5 3.1-27.3 9.2-23.3-0.6-39.5 12.9-61.3 12.9-11 6.7-25.4 5.5-36.4 12.5q-7.3 0.6-14.5 1.6-7.2 1.1-14.4 2.5-7.1 1.5-14.2 3.4-7 1.9-13.9 4.2-5 0.3-9.9 0.9-4.9 0.5-9.8 1.2-4.9 0.7-9.8 1.5-4.9 0.9-9.7 1.9-5.8 0.1-11.5 0.6-5.7 0.5-11.3 1.4-5.7 0.9-11.3 2.3-5.5 1.3-11 3.1c5.5-0.7 6.8 8.8 12.9 6.1 9.2 8.6 22.4 4 32.2 8.6q13.2 4.3 26.6 7.8zm-83.3-31.1c12.2-7.4-4.6-27 12.8-31 1.6 4.3 4.3 9.8 1.6 15 11.3 2.5 2.1-11.3 7-15q3.7 0.1 7.4-0.1 3.8-0.3 7.4-0.9 3.7-0.6 7.3-1.6 3.6-1 7-2.3c0.8-1.3 1.2-2.8 1.4-4.3 0.2-1.5 0.1-3-0.3-4.5-0.4-1.5-1.1-2.9-2-4.1-0.9-1.2-2.1-2.2-3.4-3 0-10.7-10.1-8.3-12.5-2.2-26.7-2.7-49.7 10.5-77.5 10.5q-4.3 1.3-8.5 2.3-4.3 1.1-8.7 1.9-4.3 0.8-8.7 1.4-4.4 0.5-8.8 0.8v4.3c11.7 5.5 21.8 16.2 33.4 22.4 1.9-1.9 5.9 1.2 5.9-1.9q-1.2-1.1-2.4-2.1-1.2-1.1-2.5-2-1.2-1-2.6-1.9-1.3-0.8-2.7-1.6c-4.3-8 8.6-8 8.6-12.9l5.8 8.9 5.6-5.9c6.1 0.7 18.3 1.3 16.5 4.3-1.8 3.1-2.4-0.6-4.3 3.1-1.8 3.7 2.5 4.6 4.3 7.7 8.3-1.9-0.6-13.8 8.3-13.8 0.6 4.6 3 9.5 4.3 10.7 1.2 1.2-2.5 3.1-2.5 3.1-1.8 6.1 1.9 9.2-1.8 14.7zm-18.7-7.4q-1.3-0.4-2.5-1.1-1.2-0.8-2.2-1.7-1-1-1.7-2.1-0.8-1.2-1.3-2.4l-4.3 4.3 11.7 7.3c1.8-0.6 1.8-4.3 1.8-4.3zm-155.6-152.6c-1 8.6 11.3 5.5 12.2 12.3-9.5 8.5-24.8 1.8-36.1 6.1q0.2 0.3 0.4 0.7 0.1 0.4 0.1 0.8 0 0.4-0.1 0.8-0.2 0.4-0.4 0.7 3.1 0.9 6.3 1.1 3.3 0.2 6.5-0.2 3.2-0.4 6.3-1.4 3.1-1 6-2.5c5.2 1.2 12.5-2.5 16.2 3 7.7-6.1 20.9-0.6 30.7-4.2v-4.9c-6.8-1.3-16.6 3.6-20-4.3l-3 4.3c-4.9 0-9.8 1.2-13.5-2.5-4.3-12.9 10.4-3.7 13.5-10.4q1.1-0.5 2.3-0.3 1.2 0.1 2.3 0.7 1 0.6 1.6 1.6 0.7 1.1 0.8 2.3c6.8 0 17.2-3.1 21.8 0q1 0.1 2.1-0.1 1-0.1 2-0.5 0.9-0.4 1.8-1 0.8-0.7 1.4-1.5 5.5-0.9 11-1.4 5.4-0.4 10.9-0.4 5.6 0 11 0.4 5.5 0.5 11 1.4c-1.2 1.4-2.5 2.5-4 3.4-1.5 0.9-3.1 1.6-4.8 2-1.7 0.4-3.5 0.5-5.2 0.3-1.8-0.2-3.5-0.7-5-1.4-6.5 10.4-18.7-2.5-24.9 6.1 0 1.9-3 5.5 0 5.5 23.6 4.9 40.8-8.5 63.8-5.5 20.5-10.4 52.7-2.4 64-25.4l-1.5-1.9 4.6-4.2c9.2-5.8 22.6 3.7 24.1 6.8-1.5-6.4 10.4-9.9 7.4-9.9-3 0-7 3.1-8.2-2.5-1.3-5.5 1.5-4.3 7-7.3 5.5-3.1 0-4.9 0-7.7-3-11 11.1-4.9 8.6-14.7-13.5-4.9-11.6 8.6-21.8 8.6-1.2-1.2-3-2.2-3-4.3h-4.3c-5.5 8.6-16.3-5.5-18.7-4.3-2.5 1.2-2.5 3.7-4.3 5.5-8.6 6.2-6.7-4.3-13.5-7.3q-3.1 0.5-6.3 1.2-3.1 0.6-6.2 1.4-3.1 0.7-6.2 1.6-3.1 0.9-6.1 1.9c-8.3-9.8-16.2 1.8-26 0q-5.9 0.3-11.8 0.8-5.8 0.6-11.7 1.3-5.8 0.8-11.6 1.8-5.8 1-11.5 2.2-12.9-0.9-25.8-0.6-12.9 0.4-25.8 2-12.8 1.7-25.4 4.6-12.5 3-24.8 7.2c-7.3 4.9-18-1.2-24.8 4.9q0 1 0.1 2.1 0.2 1 0.6 1.9 0.4 1 1 1.8 0.6 0.9 1.4 1.6c1.8 10.7 12.6 13.5 16.2 23.6 4.9 1.2 6.2 8.6 9.8 6.1-2.4-3.7-7.3-5.5-7.3-10.4 5.5-9.5 8.6 4.3 13.5 4.3v-3.1c1.5-3.1 5.2-6.1 7-3.1 1.9 3.1 6.1 4.9 6.1 9.2 7.4 3.1 5.6-7.3 11.7-7.3zm216.3-13.2q0-0.2-0.1-0.5 0 0.3 0.1 0.5zm-230.1 47.2c6.7 9.2 17.2 18.4 23 26.4 24.2 21.1 43.8 34 68.6 53.9q1-0.3 2-0.3 1 0 2 0.3 0.9 0.4 1.7 1 0.8 0.6 1.4 1.5c17.7-2.5 34.3-7.7 52.1-8.6 17.7-1 31.5-10.8 49.9-8.9 11.3-8 26.7-6.1 39.2-10.4q9.8-1.1 19.5-2.5 9.7-1.4 19.3-3.3 9.6-1.8 19.2-4 9.5-2.3 18.9-5c15.1 1.3 26.1-9.5 40.8-9.5q6.4-0.5 12.8-1.4 6.4-0.8 12.8-1.9 6.4-1.1 12.7-2.4 6.3-1.3 12.6-2.8c33.7-12.3 79.6 0.9 112.1-19 0-4.6-0.9-12-4.6-12v-1.8c-3.4-9.2-9.5-13.5-11.3-23.3q-1.9-2.9-4.2-5.6-2.2-2.6-4.8-4.9-2.6-2.3-5.5-4.2-2.9-1.9-6-3.4-3-1-5.9-2.3-2.8-1.2-5.6-2.7-2.8-1.5-5.4-3.1-2.7-1.7-5.2-3.6-3.7-1.1-7.5-1.8-3.8-0.8-7.7-1.2-3.8-0.3-7.7-0.4-3.9 0-7.8 0.4-4.2 0.3-8.4 0.8-4.3 0.5-8.4 1.3-4.2 0.7-8.4 1.7-4.1 1.1-8.2 2.3-9.3 0.5-18.5 1.5-9.3 1-18.5 2.5-9.2 1.4-18.4 3.4-9.1 1.9-18.1 4.3c-12.3 4.9-26.7 2.4-38.9 7.3l-52.7 3.1-3.1 2.7q-9.8 0.7-19.5 2-9.7 1.2-19.4 3.1-9.6 1.8-19.1 4.2-9.6 2.4-18.9 5.5c-23.3-5.6-38.9 9.1-61.3 9.1q-11.4 2.1-22.8 3.6-11.5 1.6-23 2.6-11.5 1.1-23 1.7-11.6 0.6-23.1 0.7zm206.8-47.8c-0.1 1 0.1 1.9 0.4 2.8 0.4 0.8 1 1.6 1.7 2.2 0.7 0.6 1.6 1 2.5 1.2 0.9 0.2 1.9 0.2 2.8-0.1 4.3-6.7-3.1-4.2-7.4-6.1zm44.2-47.5c0.9 0 1.8 0.3 2.7 0.7q-0.2-0.4-0.3-0.7zm2.7 0.7q0.8 2.1 0.8 4.4c0 1.7-0.3 3.4-0.8 5-0.6 1.7-1.5 3.2-2.6 4.5-1.2 1.3-2.6 2.4-4.1 3.2q0.5 0.9 1.3 1.6 0.7 0.7 1.7 1.2 1 0.4 2 0.5 1.1 0 2.1-0.2 1.6-1.1 2.9-2.6 1.2-1.5 2-3.3 0.7-1.8 0.9-3.8 0.1-1.9-0.3-3.8c-1-1.9-3-5.3-5.9-6.7zm20 40.4q-0.4 0-0.7 0.2 0.3-0.1 0.7-0.2zm-0.7 0.2c-3.5 1.1-7.3-0.1-7.9 2.2v1.9c3.8 1.6 6.1-2.9 7.9-4.1zm-0.5-36.4c3 1.2 3.9 5.8 5.5 4.6 1.5-1.2 1.5-3.7 1.5-5.5q-0.5-0.8-1.2-1.2-0.8-0.5-1.7-0.5-0.9 0-1.7 0.5-0.8 0.4-1.2 1.2zm-14.7 29.7q0-0.3 0-0.6-0.7 0.3-1.3 0.6zm0.1-0.6c5.7-2.7 14.7-4.3 14.7-13.2-4.8 4.2-14.3 3.7-14.7 13.2zm58.2-417.7q1.7 1.1 3.3 2.4 1.7 1.2 3.3 2.6 1.5 1.3 3 2.8 1.5 1.4 2.9 2.9c-1.8 4.9-6.7 3.1-10.4 3.1 4.3 10.1-2.4 23.9 7.4 30.6l42.3 3.1c-1.9-8.6-7.7-15-14.4-18.1-6.8-3.1-16.6 0.6-23-3.1v-3c2.7-3.1 5.8-7.4 9.5-7.4q-4.6-5.6-9.4-11-4.9-5.4-9.9-10.6-5.1-5.2-10.4-10.1-5.3-5-10.8-9.7c-2.2-0.5-4.4-1.4-6.4-2.6-2-1.1-3.8-2.6-5.4-4.3-1.6-1.7-2.9-3.7-3.9-5.8-1-2.1-1.7-4.3-2.1-6.6q-7.2 2.7-13.9 6.4-6.7 3.8-12.8 8.5-6.1 4.7-11.4 10.3-5.3 5.6-9.7 11.9h1.9l-4.9 4.6q0.1 2.6 0.3 5.3 0.2 2.6 0.6 5.2 0.4 2.6 0.9 5.2 0.6 2.6 1.2 5.1c6.2 6.2 14.4 21.5 19 18.1 4.6-3.3 4.6-7.6 7.1-9.5v-1.2c1.2-1.8 1.2-3.1 3.1-1.8 1.8 1.2 1.8 4.3 1.8 6.1-8 15 9.8 5.5 14.4 10.7q-3.7 3.5-7.6 6.7-4 3.1-8.2 5.9-4.3 2.8-8.8 5.1-4.4 2.4-9.1 4.4c-9.2 15-24.2 27.9-19.9 48.7 0.6 6.5 7 4.6 11.3 4.6 11.3-9.5 20.8 4.3 30.7 6.1 1.8-3 1.8-5.5 4.9-7.6q1.9-2.7 3.4-5.5 1.6-2.9 2.8-5.9 1.2-3 2-6.1 0.8-3.2 1.3-6.4c10.4-7.4 11-21.8 20.8-26.7 6.1-12.9 14.4-34 2.7-45.7-4.5-14.7-9.5-34.6-27.5-38.9-1.3-2.4 1.5-3.7 3-5.5q3.9 0.5 7.5 1.9 3.7 1.5 6.9 3.7 3.2 2.2 5.8 5.2 2.5 2.9 4.3 6.4c4 3 6.8 9.5 11.7 9.5zm-37.6 255.5q1.9 10.6 4.7 21 2.8 10.4 6.5 20.5 3.7 10.1 8.3 19.9v-12c-8.6-9.8-3.7-23.9-8.6-33.7q-0.9-9.8-1.4-19.7-0.4-9.9-0.4-19.8 0-9.9 0.4-19.8 0.5-9.9 1.4-19.8h1.9v-20.5c0 1.2-3.1 5.5 0 7.4-5.5 4.9-2.5 13.7-7.4 19.3-4.6 11-1.2 25.7-8.3 35.8q1 10.8 2.9 21.4zm-1.6 30.4c-4.3-1.8-8-8.6-12.9-4.3 4.3 4.9 4.3 14.1 7.4 18.1 3 4 4.2 9.2 11.3 7.4 3.1-9.2-7.1-11.7-5.8-21.2zm-73.9-26.8c-0.6 1.5-0.8 3.2-0.7 4.9 0.1 1.7 0.6 3.3 1.4 4.7 0.8 1.5 1.9 2.8 3.3 3.7q3.3 1.5 6.7 2.4 3.5 0.9 7.1 1.1 3.6 0.2 7.1-0.2 3.6-0.4 7-1.4c0.6-2.5-3.1-4.3-3.1-4.3 1.9-18.7-22.3-1.2-26-15-1.2 1.1-2.2 2.5-2.8 4.1zm10.1-21.3c0.6-1.8 2.5-1.8 2.5-1.8 2.4-11.4 14.4-9.2 14.4-22.4h-5.2v4.9c-3.7 2.8-5.5 7.7-10.4 7.7 2.4 5.5-4.9 10.4 0 14.7v-3.1zm24.2-48.7q0.2-2.8 0.7-5.5 0.6-2.7 1.3-5.4 0.8-2.7 1.8-5.2 1-2.6 2.3-5.1c-3.1-11 9.8-17.1 3.1-28.5h-1.9c0.6 13.2-12.8 22.4-5.5 35.9-1.8 4.3-1.8 10.1-6.1 11.9zm75.7-356.1l-8.6-9.2c-0.9 6.1 8.6 13.5 10.4 13.5zm49.6-55.8c-2.1 8 10.5 12 8.6 15-1.8 3.1-3 3.1-5.5 3.1v3.1c-1.2 0-3.1-4.3-4.6 0-1.5 4.2 2.2 6.7 4.6 9.1q2.4 1 5 1.2 2.6 0.2 5.2-0.3 2.5-0.6 4.8-1.9 2.2-1.3 4-3.2c4.6-6.2 14.4-12.3 12.6-22.1-4-20.5-20.6 8.6-34.7-3.4zm16-81.5c-4.9 4.9 4 10.1-4.3 14.7 1.2 8 0 20.8 3.1 23.9 3 3.1 10.4-1.8 10.4-3.1 0-1.2 0-4.2-2.2-4.2q1.7-3.6 2.8-7.4 1.1-3.8 1.5-7.7 0.3-3.9 0.1-7.8-0.3-4-1.3-7.8h-10.1zm40.4 197.1c-9.8-0.6-12.2 13.8-15 16.2-2.7 2.5 0.9 9.2-5.8 7.4-2.5 5.4-4.4 11.2-5.5 17.1-1 6-1.4 12-0.9 18 0.5 6 1.7 12 3.6 17.7 2 5.7 4.7 11.1 8 16.1-0.6 5.9 8.9 3.7 5.5 10.5 13.2 9.5 16.9 24.8 26.1 34h3c-7.3-16.6 8.9-27.3 7.1-43.2-8.3-8.9-3.7-21.2-8.3-30.7q-1-2.6-1.9-5.4-0.9-2.7-1.6-5.4-0.7-2.8-1.2-5.6-0.5-2.8-0.8-5.7c9.5-12.5-7.4-18-7.4-28.5q-0.7-1.4-1.4-2.8-0.7-1.5-1.3-3-0.7-1.5-1.2-3-0.5-1.6-1-3.1zm1.3-48.1q0.9-1 1.6-2.3 0.6-1.3 0.9-2.7 0.2-1.3 0-2.8-0.1-1.4-0.7-2.6h-3.1zm117.1 252.8c3.2 6.6 5.4 13.6 6.7 20.8 1.3 7.1 1.6 14.5 0.8 21.7-0.7 7.3-2.4 14.5-5.1 21.3-2.7 6.7-6.3 13.1-10.7 19-3.1 18 9.2 29.7 16.9 44.7q-1.2-3.4-2.2-6.9-1-3.4-1.9-6.9-0.9-3.5-1.7-7-0.7-3.5-1.3-7.1c-5.5-3.1-2.4-10.7-2.4-15 14.4-12.3 9.5-36.5 14.4-51.8-7.1-5.5 1.8-18.1-7.1-22.4v-1.8c-4.6-5.5-0.9-14.7-10.1-19l6.1 11.6zm41.7-11.6q-4-1.2-8-2.3-4-1.1-8-2.1-4-1-8.1-1.9-4-0.9-8.1-1.7c0 9.2 9.8 1.2 11.7 9.2 8.6-3.1 18.7 8 23 0zm-15.7-182c0.2 4.3 1 8.5 2.3 12.7 1.4 4.1 3.3 8 5.7 11.6 2.4 3.6 5.2 6.8 8.5 9.7 3.3 2.8 6.9 5.2 10.8 7-1.8 3.7 1.2 8.6-1.8 11.7h20.5q1.2-0.2 2.2-0.9 1-0.7 1.7-1.8 0.6-1.1 0.7-2.3 0.1-1.2-0.3-2.4c-17.8 5.5-22.4-14.7-32.2-22.4-18.1 5.3-2.4-17.1-15.6-20.8zm8.3 413.1q-0.3 3.1-0.9 6.1-0.5 3-1.2 6-0.7 2.9-1.7 5.8-0.9 2.9-2.1 5.7c4 3.1 4 8 5.9 12.3q11.6-1.6 23.1-3.9 11.5-2.4 22.8-5.4 11.3-3 22.5-6.8 11.1-3.7 22-8.1 6.5-1.9 13.2-3.4 6.7-1.5 13.4-2.6 6.8-1.1 13.6-1.7 6.8-0.7 13.7-0.9 1-3.2 2.2-6.3 1.2-3.1 2.7-6.1 1.4-3 3.1-5.9 1.7-2.9 3.6-5.6c-4.3-21.8-30.3-7.7-45.6-11.9v3q-8.3 0.4-16.5 1.2-8.2 0.7-16.4 1.8-8.1 1.1-16.2 2.6-8.2 1.5-16.2 3.3c-12 11.6-33.4 6.7-42.6 22.1zm-92.5 199.8c1.2 12.9-8 8 3 21.5l-6.1 2.4 3.1 3.1q8.7-0.3 17.4-1.2 8.7-1 17.2-2.6 8.6-1.6 17-3.9 8.5-2.3 16.7-5.2c0-9.2-7-14.1-8.9-22.1-6.1-12.5-17.8-10.7-29.1-10.7-13.5 8-32.8 4.3-49 4.3l-3.1 3.1q3.4 0.7 6.7 1.8 3.2 1.2 6.4 2.6 3.1 1.5 6 3.3 3 1.8 5.7 3.9zm-26 11c0.3 1.1 0.8 2.1 1.5 2.9 0.7 0.8 1.6 1.5 2.6 1.9 1 0.4 2.1 0.6 3.2 0.5 1.1-0.1 2.2-0.4 3.1-1 2.1-1.8 4.9-7.3 2.1-6.1-2.7 1.2-9.5-2.5-9.5 3.1zm2.5 14.7c-2.5 0-5.5-5.5-5.5 0q-0.3 1-0.2 2.1 0.1 1.1 0.5 2.1 0.4 0.9 1.1 1.8 0.7 0.8 1.6 1.3l5.6-6.1zm88.8-137.6l3.1-3.1c-3.1-1.2-3.1-3.7-4.9-5.5-12.6-5.2-22.4-24.5-34.3-30.6-5.5-8-20.3-21.5-26.1-27.9-1.2 7.6 7.1 10.1 7.1 17.4 13.5 12.6 22.6 26.7 36.4 39-2.4 13.8 15.4 0 18.7 10.7zm-7-110c-5.5 7.3-1.2 10.4-3.1 20.8-1.8 10.4-19.6 19.3-10.4 27.9 3.1-3 5.8-6.4 8.1-10.1 2.2-3.7 3.9-7.7 5.1-11.8 1.2-4.2 1.8-8.5 1.8-12.8 0.1-4.3-0.4-8.6-1.5-12.8zm-38-262.5q4.4-6.8 8.6-13.8 4.2-6.9 8.1-14 3.9-7.1 7.5-14.4c-9.5 11.4-16.3 26.1-27.3 38.4-3.7 11.9-27.3 24.5-19.3 30.6q2.8 1.3 5.7 2.2 2.9 0.9 5.8 1.4 3 0.6 6.1 0.8 3 0.1 6-0.1h-3.1c-1.8-7.4-7.3-9.8-7.3-17.8q4.7-6.6 9.2-13.3zm-22.1-14.6c-8.6 2.5-19.9-0.6-29.1 2.5v3c5.5 7.4 17.5 3.1 24.8 3.1 2.5-2.4 6.2-4.9 4.3-8.6zm-28.2 69c8 6.1 9.2 17.1 16.6 25.1l-3.1 3.1q3.7 4.1 6.8 8.7 3 4.7 5.2 9.8 2.2 5.1 3.6 10.4 1.4 5.4 1.9 10.9c6.1 1.2 13.2 8 14.4 12.3 1.2 4.3-6.5 7.3-10.1 9.8-4.3 13.5 8.5 23.3 11.3 30.6q0.3 1.1 0.3 2.1 0 1.1-0.4 2.1-0.4 1-1.1 1.8-0.6 0.8-1.6 1.4h1.6c-4.3 3.7-4.3 8.6-4.3 13.8h4.3c2.4-5.8 10.4-4.3 7.3-12 2.5-6.1 7.4-3.6 10.5-6.1 2.1-9.8-10.5-4.9-10.5-13.5l3.1-2.4c2.4-6.8-4.3-4.9-6.1-9.2 9.2-23.6-13.8-37.1-19.9-57.6-5.6 1.8-7.4-3.7-10.5-6.2 0-11.9-10.7-23.6 0-34l-1.8-1.8c5.5-0.6 1.8-8.6 9.2-8.6v-3.1q-1.2 0.2-2.3 0.6-1.1 0.4-2.2 0.9-1 0.6-2 1.3-0.9 0.7-1.8 1.5c-5.2 4.9-15 2.5-18.4 8.3zm-2.1 55.2l24.8 25.4h3.1v-4.3h-1.9c-3.6-14.1-17.4-14.1-26-21.1zm-48.7 184.1q2.5-0.8 5.2-1.1 2.7-0.2 5.4 0.2 2.7 0.4 5.2 1.4 2.5 1 4.7 2.6v-12.2c-8 6.1-13.2-4.3-20.5-4.3zm-2.5-252v-1.8h-3.1zm6.5 3.1c1.8 5.5 15.9 10.4 17.8 9.8 1.8-0.6 1.8-3.7 1.8-5.6 3.1-7.3 13.5-7.3 18.7-9.1-2.8-2.8-8.3-2.8-13.2-2.8-5.5 13.2-17.2-1.8-24.2 7.7zm9.5 22h2.8c1.5-1.2 1.5-3 1.5-4.9zm-6.1 180.5q0 0 0-0.1-0.5 0.1-1 0.1zm0.1-0.1c8.7-0.8 19.2 3.5 26.6-4.1-3.7-1.9-10.4 0.6-10.4-4.3-1.6-0.4-3.3-0.5-5-0.3-1.7 0.2-3.3 0.7-4.8 1.5-1.5 0.7-2.8 1.8-3.9 3-1.1 1.3-1.9 2.7-2.5 4.2zm25.1-101.9c1.8-3.1 6.7 0 5.5-3.1-1.2-3-4.3-7.3-7.4-7.3zm15.7 139.1q0.3 0 0.6 0 0 0 0 0zm0.6 0c-8.6 0.6-8 10.4-12 14.7 13.8 2.2 13.2-14.7 27-12.9-3.8-1.7-9.7-1.8-15-1.8zm8-27.9v-3c-1.9-1.3-3.1-3.1-5.6-3.1zm-10.1-108.2c-2.4 1.8-4.3 0.9-4.3 5.8h4.3q0.9 0.6 1.6 1.4 0.7 0.8 1.1 1.8 0.4 1 0.5 2.1 0.1 1-0.1 2.1c1.8 3 3.1 3 6.1 3q0.9-0.9 1.8-1.9 0.8-1 1.5-2 0.7-1.1 1.2-2.3 0.6-1.1 1-2.3c-3.3-4.9-12.2-9.5-14.7-7.7zm-44.4-176.5c-2.2-2.5-4.6-9.5-6.4-4-1.9 5.5 7.3 4.9 7.3 8.6v-4.3zm0.9-193.1c-9.8-10.4-16.2 7-23 9.5 2.5 14.1 0 34.6 7.4 42.6 8.3-1.9 2.8-8.3 8.3-16.3 5.5-7.9 1.2-20.8 7.3-26.3zm-23.9 199.2q-2.3-0.6-4.7-0.6-2.5 0-4.8 0.5-2.4 0.6-4.6 1.7-2.1 1.1-4 2.7c0 11 12.9 16.5 19 25.4 6.2 2.5 15.1-1.2 20.6 4.3 3.7-4.9 10.7-2.1 12.5-8.6 1.9-6.4-2.4-6.4-2.4-11.9q-4.2-1.1-8.2-2.5-4-1.5-7.9-3.3-3.8-1.9-7.5-4.1-3.6-2.2-7.1-4.8zm4.8 107.2c-1 0.1-1.8 0.5-2.5 1.1-0.7 0.6-1.2 1.5-1.4 2.4-0.2 0.9 0 1.8 0.4 2.7h6.1v-5.5c-0.8-0.5-1.7-0.8-2.6-0.7zm-66 257.5c-8.3-1.2-17.5 4.9-23 3.1-5.5-1.9-8.6 2.4-11.7 5.5 1.9 1.8 6.8-0.6 8.6 1.8 1.9 2.5 9.8 6.1 6.1 7.4-3.6 1.2-6.1 3-10.4 3-8.6 6.8 0 18.7 0 26.7 4.3-7.4 8.6-14.7 13.5-22.4h15.6c4.3 6.5-8.2 8.6 0 13.2 3.1-1.8-0.9-10.4 8.6-5.5 9.5 4.9-6.1 1.2 0 10.4 6.1 9.2 15-12.9 24.8-1.8 9.5-10.5 23.6 2.4 34.4-5.6 5.5-3.6-3.1-8.8 3-10.7 6.2-1.8 6.8 3.1 10.4 5.8 4.9-3.6 10.5-8.2 14.7 0 5.9-4.6 15.1 1.9 20.6-4.6-3.7-13.7-16.3-27.5-17.8-44.4-4.3 6.8 4.6 13.2 3.1 18.1-1.6 4.9-6.8 3.1-10.1 3.1-17.8-20.6-48.8-4.9-72.7-7.7-4.3 4-12.8-1.5-17.7 4.6zm-11.7 49.6c-1.8-3.9-1.8-6.4-7-5.2l1.8 6.2c1.2 0 4 0 4-1.9zm133.9 99.9q-0.2-1.4-0.1-2.8 0.2-1.4 0.8-2.7 0.6-1.3 1.5-2.4 0.9-1.1 2.1-1.9-1.1-1-2-2.2-0.9-1.2-1.5-2.6-0.5-1.4-0.7-2.9-0.2-1.5-0.1-3c-10.1-1.2-2.8 13.5-10.1 15-7.4 1.6-1.8-6.1-7.4-6.1 0.6 9.8 13.8 9.8 17.5 17.8l3.1-3.1zm-2.8 17.8q0 0.8-0.1 1.5 0.8-0.6 1.3-1.5zm-0.1 1.5c-3.3 2.7-8.7 0.7-10.3 3.1-1.8 2.7 0 2.7 0 2.7 6.2 2 9.8-0.9 10.3-5.8zm-17.6-13.2c-6.2-2.4 0.6-14.1-9.8-10.4l1.5 10.4zm-39.2 25.5c0-4.3-6.8-8.9-1.3-10.8q1-0.3 2.1-0.3 1 0 2 0.4 0.9 0.4 1.7 1.1 0.8 0.7 1.3 1.6c10.4-10.1 8 10.4 17.5 10.4 12.2-13.2-13.8-13.2-5.9-27.9-12.5-8.9-16.8 11.7-21.7 11.7-4.9 0-11.1 0-12.9-4.3-1.5 1.8-3.1 3.1-3.1 5.5-2.8 2.5-5.9 4.6-9.3 6.3-3.4 1.6-7 2.8-10.8 3.4q-3.4 0.6-6.9 0.6c2.4 0.7 2.2 5.1 5.3 6.3 6.7 7 6.7 4.6 15.9 4.6 3.1 3 7.4 5.5 7.4 9.1 5.2-2.4 2.7-9.8 2.7-12.2l-18.7-2.5v-3c9.8 1.8 13.8-9.8 24.9-6.5 4.2 2.5 4.2 8.9 4.2 13.8h8.3c-2.1-1.8 1.6-7.3-4-7.3zm-48.8-2.3q-1.4-0.1-2.7-0.2c-3.8-0.4-7.5-1.3-11-2.7 1.3-6.2-2.4-14.8 3.1-19-8.6-7.4-19.9-2.5-29.1 0q-2.6 0.1-5.1 0.5-2.5 0.5-4.9 1.2-2.5 0.8-4.8 1.8-2.3 1-4.5 2.3l3.7 1.5q0.7 0.8 1.2 1.7 0.6 0.9 1 1.8 0.3 1 0.5 2.1 0.1 1 0 2.1c-2.7 2.7-5.2 7.3-8.9 7.3 6.2 5.5 13.2-4.6 20.6-4.6 1.2 2.2 3 2.5 3 4.6-1.8 9.2-11.6 12.3-19.3 12.3-6.1 9.2-13.5-2.5-19 0l11.7 13.2c1.8 4 1.8 11 6.1 13.5 2.4-4 1.2-8.3 5.8-10.8 1-0.3 2.1-0.4 3.1-0.3 1.1 0.2 2.1 0.6 2.9 1.2 0.9 0.7 1.6 1.5 2 2.5 0.5 0.9 0.7 2 0.6 3.1 1.8-1.9 4.3 4.9 6.1-1.9 1.9-6.7-3-11.3-6.1-16.2 8.6-10.7 19.3 7.9 26-4.3-4.6-9.2-10.4-3.7-17.4-7.4 0-3.6-0.6-7.3 3-9.5 16.3-9.2 16.3 10.1 24.9 15.1q0.3 1.2 0.2 2.5-0.1 1.3-0.5 2.5-0.4 1.2-1.1 2.3-0.7 1-1.7 1.8c6.1-3 7.3 5.9 13.5 2.5l-3.4-2.5 1.5-1.8c1.9-5.5-4.3-9.8-5.5-11.9-1.2-2.2-2.7-3.4 3.1-5.9q0.8-0.3 1.4-0.4zm1.5 0q-0.6-0.2-1.5 0 0.8 0 1.5 0zm-15.2 22.5q0.3 1.1 0.3 2 0.6-0.2 1-0.5zm0.3 2.1c-3.5 1.8-10.4 4.4-13.2 1.3 0 2.1-4 4.6 0 7.4 3.7-5.5 13.7-0.8 13.2-8.7zm-57.3 8.7c-5.6-4.6-10.2-6.8-15.7-10.8-2.4 8.6 10.1 11.7 10.1 16.9h4.3v-6.1zm-4-37.4v-5.6c-1.5-4.9-6.4-3-10.1-3v6.1c1.6 0 5.2 6.1 10.1 2.5zm7.1-7.4c4 19.6 1.5 4.9 7.4-2.1l-5.9 2.4zm84.3-20.2c-1.2 5.5 5.5 4.3 8.9 8.9 0-5.5 8.3-6.8 10.1-10.4-5.5-3.7-11.3 1.8-17.5 1.8zm-124.4 61.9h12.6v-4zm348.4-96.5q3 5.2 5.8 10.6 2.8 5.4 5.4 10.8 2.6 5.5 4.9 11.1 2.3 5.6 4.4 11.3 1.6 1.7 2.8 3.5 1.3 1.9 2.2 4 0.9 2.1 1.4 4.3 0.5 2.2 0.7 4.4l3 2.8q1 5.1 2.4 10.1 1.3 5.1 3 10 1.7 4.9 3.7 9.7 2.1 4.8 4.4 9.4c3.7-1.2 9.5-3 9.5-7.6-3.4-12.3-10.7-24.5-14.4-35.9q-1.2-4.1-2.5-8.2-1.4-4.1-2.8-8.2-1.5-4.1-3.1-8.1-1.5-4-3.2-8c-8.9-11 0.6-37.7-12.6-49q-1.7-3.4-3.5-6.7-1.9-3.3-3.9-6.5-2.1-3.1-4.3-6.2-2.2-3.1-4.5-6c-3.7 1.8-6.8-3.7-10.5 0 2.5 8.2 14.4 1.8 12.3 11.9 1.5 5.5-3.4 7.4-6.1 7.4q-3.5-2.1-7.2-3.6-3.7-1.5-7.6-2.5-3.9-0.9-7.9-1.2-4-0.4-8-0.1c12.6 9.8 32.5 20.2 37.4 37.1zm195.5-160.3h4q1.1-3.1 1.6-6.3 0.4-3.2 0.2-6.5-0.3-3.2-1.2-6.3-0.9-3.2-2.4-6zm-3.4 100.8c-9.2 5.5-7.1 23-7.1 34h4q2-3.7 3.2-7.8 1.2-4.1 1.6-8.3 0.4-4.2 0-8.4-0.5-4.2-1.7-8.3zm-81.5-327l-2.8 3.1c0 3.6-6.7 10.1 0 11.9q2.6-2 4.8-4.4 2.2-2.4 4-5.1 1.9-2.6 3.3-5.6 1.4-2.9 2.3-6 0.3-0.8 0.3-1.6-0.1-0.8-0.6-1.4-0.5-0.7-1.2-1-0.7-0.4-1.5-0.3v6.1c-9.8 11-8.6-9.2-15.7-9.2h-2.7c5.5 4.3 2.7 10.4 9.8 13.5zm-4.3-92.6c1.5-0.9 4 2.5 1.5-4.2-2.4-6.8-8.9-6.5-8.9 0q0.5 0.9 1.3 1.7 0.8 0.7 1.8 1.1 1.1 0.5 2.2 0.5 1 0.1 2.1-0.3zm-9.5-68.9q0.4 0.6 1 1 0.7 0.4 1.4 0.5 0.7 0.2 1.5 0 0.7-0.2 1.3-0.6c-0.9-2.2-5.2-2.2-5.2-2.2zm5.2 90.8q0.1 0.4 0.2 0.8 0.7-0.2 1.3-0.5zm0.3 0.8c-14.5 5.6-16.5-15.3-26.6-18.6v4.9q2.8 3.1 5.5 6.4 2.6 3.4 5 6.9 2.4 3.5 4.5 7.1 2.1 3.7 4 7.5c-0.6-5.9 9-7.6 7.6-14.2zm-6.4 29.2c-1.8 0.6-2.4-2.5-4.3-2.5-1.8 0-5.5 0-5.5 3.1q0.6 1.3 1.7 2.3 1.1 1.1 2.4 1.7 1.4 0.5 2.8 0.6 1.5 0.1 2.9-0.3zm27.9 64.4q0.2 0 0.4 0-0.2-0.3-0.4-0.7zm0.4 0.1q1.2 2.1 2.6 4.1 1.5 2.4 3.2 4.7 1.6 2.3 3.4 4.5 1.7 2.3 3.6 4.4v-4.3c-1.9-0.6 1.2-1.8-1.9-4.3-3-2.3-6.2-8.8-10.9-9.1zm34.8 8.5c-2.4-3 10.8-10.4 0-9.8-5.5 2.5-3 8.6 0 10.4zm0-77.8q0.4 0 0.7 0.1 0.1-0.4 0.2-0.7zm5.6 8c0-0.8-0.2-1.4-0.7-1.9q0.3 1 0.7 1.9zm-0.7-1.9c-0.9-2.7-2.1-5.6-4.2-6-1.2 3.7 2.6 4.3 4.2 6zm9.9 17.5q0.5 0.4 1 0.9-0.1-0.8-0.1-1.5zm1 0.9c0.8 6.3 5.7 13-2.3 18.1q1.1 0.3 2.2 0.2 1.1-0.1 2.1-0.5 1-0.4 1.8-1.1 0.8-0.7 1.3-1.7 0.3-2.2 0.1-4.4-0.3-2.3-1.1-4.4-0.8-2.1-2.1-3.9-0.9-1.2-2-2.3zm6 35.5c0 2.8-1.2 8 0.3 11.1-4.3 3-4.9 7.9-8.6 10.4 8.9 1.2 16.3-7.4 20-13.5v-3.1c-3.1-2.4-4.9-7.3-10.5-7.3l-2.1 3.1zm-126.9-204.8c1.3 0 3.7 0 2.2-1.2l-3.1-2.5v4.3zm25.2-1.2v-5.5c-4.3-1.8-6.2 1.8-6.2 5.5zm-531 191.8q-1.9 1.1-3.6 2.6-1.7 1.5-3.1 3.3-1.4 1.7-2.5 3.7h9.2c3.9-5.6 8.3-10.8 13.1-15.6 4.8-4.8 10-9.2 15.6-13.1 5.5-4 11.4-7.4 17.5-10.4 6.1-2.9 12.5-5.3 19.1-7.2-6.2 0.1-12.3 0.9-18.2 2.5-5.9 1.6-11.6 4-16.9 7-5.3 3-10.3 6.7-14.7 10.9-4.4 4.3-8.3 9-11.5 14.2q-2.1 0.9-4 2.1zm-7.7-98.3c2.5 0 4.3-0.9 4.3-3.1q-1.2-0.5-2.4-0.5-1.3 0-2.5 0.4-1.2 0.4-2.1 1.2-1 0.9-1.6 2zm45.1 43.7q1.4-0.4 2.7-1.1 1.4-0.6 2.6-1.4 1.2-0.7 2.3-1.7c-4.3-0.6-7 2.8-10.4 4.9q1.5-0.2 2.8-0.7zm-114.6 39q0-0.1-0.1-0.3-0.5 0.2-1.2 0.3zm0-0.3c15.4-4.9 22.8-23.5 36.2-32.5-17.5-1.2-26 20.6-40.4 25.5-1.8 3.5 3.7 4.8 4.2 7zm4.6 196.2c4.9-16-8.2-27-15.3-35.9-1.5 3.2-2.6 6.6-3.2 10.1-0.6 3.6-0.7 7.1-0.3 10.7 0.4 3.5 1.3 7 2.7 10.2 1.4 3.3 3.2 6.4 5.4 9.2q1.7 0.4 3.4 0.4 1.7-0.1 3.3-0.7 1.6-0.6 2.9-1.6 1.4-1 2.4-2.4zm9.8-270h3q1.2-3.2 1.5-6.6 0.2-3.4-0.3-6.7-0.6-3.3-2-6.4-1.3-3.1-3.4-5.8zm-39.9 167.9q0.2 6.1 0.2 12.2 0 6.1-0.2 12.2-0.2 6.1-0.6 12.2 2.6-2.6 4.5-5.6 1.9-3.1 3.1-6.6 1.2-3.4 1.5-7 0.3-3.6-0.2-7.2c-7.1-5.5-3.7-15.6-8.9-22.4q0.4 6.1 0.6 12.2zm-29.7 177.5c1.8 8 7.7 9.5 16.2 9.5 0.7-1.3 1.1-2.7 1.3-4.2 0.1-1.4-0.1-2.9-0.6-4.3-0.4-1.4-1.1-2.7-2.1-3.8-1-1.1-2.1-2-3.5-2.7 1.9-4.9 1.9-11 1.9-16.5q-0.9-1.2-2-2.2-1.1-0.9-2.5-1.5-1.3-0.6-2.7-0.8-1.5-0.3-2.9-0.1c-8 8.3-4.9 18.7-3.1 26.6zm801.9-520.4v5.5h6.1c0.7-1.2 2.5-1.8 2.5-4.2 0-2.5-4.9-1.3-8.6-1.3zm-585.3 387.7v-5.8zm149.9-275.8v-4.9 4.3zm176.8 130.8v3.1zm0-92v-3zm4.3-5.5l1.8-6.2zm26.1-38.9l1.8-4.3z"/>
		</g>
	</g>
</svg>