<svg version="1.2" xmlns="http://www.w3.org/2000/svg" viewBox="0 0 1542 647" width="1542" height="647">
	<title>Polska_Grupa_Energetyczna_logo-svg</title>
	<style>
		.s0 { fill: #ffffff } 
	</style>
	<path id="path3475" class="s0" d="m1508 405.5c-174-175.2-428.4-263.4-662.1-277.4l25.9-73.6c245.9 16.7 510.3 154.1 669.4 351z"/>
	<path id="path3477" class="s0" d="m871 0.3l-47.9 127.8-25.5-0.2 15.2-43.9c-291.3-4.3-588.6 97-776.2 321.5h-36.3c202.7-279.2 521-403.9 870.7-405.2z"/>
	<path id="path3485" fill-rule="evenodd" class="s0" d="m987.7 356.3h230.8l-17.2 57.3h-164.7l-14.7 50.9 141-0.1-16.7 57-141.1-0.1-20 69.2h165.1l-16.3 55.9h-231.1c0 0 84.9-290.1 84.9-290.1zm-170.5 57.4c-69.8-0.1-128.3 33.6-142.4 96-9.4 41.5 19.8 81.8 66.2 81.8l68.1 0.1 12.1-42c10.7-33.8 23.4-54.2 78.6-52.2l-43.7 149-144.8 0.2c-83.7-11-122.9-72.4-99.8-151.5 32.9-112.9 133.6-139.3 233.5-138.8l96.3 0.2-16.8 57.2-107.3-0.1zm-345.1 83.3c73.3 0.9 100.7-83.1 36.8-83.1l-149.4-0.5 16.7-56.7h134.3c161.9-0.1 94.9 197-43 197.1-2.2 0-62.3-0.1-64.7-0.1-20.5 0.1-36.7 11.5-41.3 27.6l-19.1 65.6-64.2 0.1 20.8-71.5c13.5-46.4 47.1-77.5 110-78.3 2.3 0 60.8-0.2 63.1-0.2z"/>
</svg>