<svg version="1.2" xmlns="http://www.w3.org/2000/svg" viewBox="0 0 1389 1557" width="1389" height="1557">
	<title>pagaya-svg</title>
	<style>
		.s0 { fill: #ffffff } 
	</style>
	<path id="Layer" class="s0" d="m1388.7 527.7v161.9l-1050.7-603.4 117.4-67.4c21.4-12.3 45.7-18.8 70.5-18.8 24.7 0 49 6.5 70.4 18.8l745.6 428c14.2 8.2 26 20 34.3 34.2 8.2 14.2 12.5 30.3 12.5 46.7z"/>
	<path id="Layer" class="s0" d="m1388.9 752.9c0 16.4-4.3 32.5-12.6 46.8-8.2 14.2-20.1 26-34.4 34.2l-867.9 498.1v-215.9l867.9-501.7c14.3-8.2 26.2-20 34.4-34.2 8.3-14.2 12.6-30.3 12.6-46.7z"/>
	<path id="Layer" class="s0" d="m478.6 1544.3l-141.1-80.8 1051.2-603.6v134.9c0 24.6-6.5 48.7-18.8 70-12.4 21.3-30.2 39-51.6 51.3l-745.5 428.1c-14.3 8.3-30.6 12.7-47.1 12.7-16.6 0-32.8-4.3-47.1-12.6z"/>
	<path id="Layer" class="s0" d="m283.2 1432.3c-14.3-8.2-26.2-20-34.5-34.2-8.3-14.2-12.6-30.4-12.6-46.8v-992.6l187.9 106.9 3.2 995.3c0 16.4 4.4 32.6 12.6 46.8 8.2 14.2 20.1 26 34.4 34.2z"/>
	<path id="Layer" class="s0" d="m46.9 253.4l140.9-81.1v1206.8l-117.4-67.5c-21.4-12.3-39.2-30-51.6-51.3-12.3-21.3-18.8-45.4-18.8-70v-856.1c0-16.4 4.3-32.5 12.5-46.7 8.3-14.1 20.1-25.9 34.4-34.1z"/>
	<path id="Layer" class="s0" d="m242.3 141.2c14.3-8.2 30.5-12.5 47-12.5 16.5 0 32.7 4.3 47 12.5l865 496.8-187.1 108.4-869-495.2c-14.3-8.2-30.5-12.5-46.9-12.5-16.5 0-32.7 4.3-47 12.5z"/>
</svg>