<svg version="1.2" xmlns="http://www.w3.org/2000/svg" viewBox="0 0 1581 337" width="1581" height="337">
	<title>pagaya-svg</title>
	<style>
		.s0 { fill: #010e22 } 
		.s1 { fill: #183d85 } 
		.s2 { fill: #1e8cfa } 
	</style>
	<path id="Layer" fill-rule="evenodd" class="s0" d="m1003.2 166.7c3.4 1.3 6.5 3.3 9.1 5.9 2.6 2.6 4.6 5.6 6 9 1.4 3.4 2.1 7 2.1 10.6v65.7h-32.6v-13.5q-7.8 5.1-16.2 9.1c-9.2 4.4-19.3 6.5-29.5 6.3-43.8 0-84.2-29-84.2-87.1 0-58.1 41.6-87.1 86.8-87.1 39.9 0 69.2 21.5 75.1 53.6h-37.6c-5.4-13.7-19.1-22.2-37.7-22.2-29.1 0-51.6 20.4-51.6 55.7 0 35.3 22.5 57.4 50.9 57.4 21.1 0 42.1-13.8 42.1-29.6q0.1-1.4-0.4-2.7c-0.3-0.8-0.8-1.6-1.5-2.2q-1-1-2.3-1.5-1.3-0.5-2.6-0.4h-33v-29h46.4c3.7-0.1 7.3 0.6 10.7 2zm-496.6 91.2v-170.4h70.5c36.5 0 57.8 22.4 57.8 53.8 0 31.4-21.4 53.8-57.8 53.8h-33.5v62.8zm36.9-93.2h31.3c17.1 0 24.5-11 24.5-23.4 0-12.4-7.4-23.4-24.5-23.4h-31.3zm242.5 93.2l-13.4-37.2h-61.9l-13.5 37.2h-38.2l65-170.3h35l65.1 170.3zm-64.4-67.8h39.9l-19.9-55.3zm472.8 67.9l-13.5-37.3h-61.9l-13.4 37.3h-38.3l65.1-170.4h35l65 170.4zm-64.3-67.9h39.9l-19.9-55.3zm175.1 67.9v-70.6l-58.2-99.8h39.4l37.4 65.8 37.4-65.8h39.4l-58.5 99.8v70.6zm236.5 0l-13.4-37.3h-61.7l-13.5 37.3h-38.3l65.1-170.4h35l65.1 170.4zm-64.3-67.9h39.9l-19.7-55.3z"/>
	<path id="Layer" class="s1" d="m300.5 114.2v35.1l-227.4-130.6 25.5-14.6c4.6-2.7 9.8-4.1 15.2-4.1 5.3 0 10.6 1.4 15.2 4.1l161.4 92.6c3 1.8 5.6 4.3 7.4 7.4 1.8 3.1 2.7 6.6 2.7 10.1z"/>
	<path id="Layer" class="s2" d="m300.5 163c0 3.5-0.9 7-2.7 10.1-1.8 3.1-4.3 5.6-7.4 7.4l-187.8 107.8v-46.7l187.8-108.6c3.1-1.8 5.6-4.3 7.4-7.4 1.8-3.1 2.7-6.6 2.7-10.1z"/>
	<path id="Layer" class="s1" d="m103.6 334.3l-30.6-17.5 227.5-130.7v29.2c0 5.3-1.4 10.6-4.1 15.2-2.6 4.6-6.5 8.4-11.1 11.1l-161.4 92.6c-3.1 1.8-6.6 2.8-10.1 2.8-3.6 0-7.1-1-10.2-2.7z"/>
	<path id="Layer" class="s2" d="m61.3 310c-3.1-1.8-5.7-4.3-7.5-7.4-1.8-3.1-2.7-6.6-2.7-10.1v-214.9l40.7 23.2 0.6 215.4c0 3.6 1 7 2.8 10.1 1.8 3.1 4.3 5.7 7.4 7.4z"/>
	<path id="Layer" class="s1" d="m10.1 54.8l30.5-17.5v261.2l-25.4-14.6c-4.6-2.7-8.5-6.5-11.1-11.1-2.7-4.6-4.1-9.9-4.1-15.2v-185.3c0-3.5 0.9-7 2.7-10.1 1.8-3 4.4-5.6 7.4-7.4z"/>
	<path id="Layer" class="s2" d="m52.4 30.6c3.1-1.8 6.6-2.8 10.2-2.8 3.6 0 7.1 1 10.2 2.8l187.1 107.5-40.4 23.5-188.1-107.2c-3.1-1.8-6.6-2.7-10.1-2.7-3.6 0-7.1 0.9-10.2 2.7z"/>
</svg>