<svg version="1.2" xmlns="http://www.w3.org/2000/svg" viewBox="0 0 1583 372" width="1583" height="372">
	<title>pharming-svg</title>
	<style>
		.s0 { fill: #ffffff } 
		.s1 { fill: #55afe2 } 
	</style>
	<path id="Layer" class="s0" d="m360.9 158.9c3.3 3.2 5.9 7 7.7 11.2 1.9 4.3 2.9 8.8 3 13.4 0 4.6-0.8 9.2-2.4 13.5-1.7 4.3-4.2 8.2-7.4 11.5l-146.7 152.8c-3.2 3.3-7.1 5.9-11.3 7.8-4.2 1.8-8.8 2.8-13.4 2.9-4.6 0.1-9.1-0.8-13.4-2.4-4.3-1.7-8.2-4.2-11.6-7.4l-47.8-46-0.5-0.5-17.9-17.5q4.6 0.1 9.2-0.7 4.5-0.9 8.8-2.6 4.2-1.7 8.1-4.3 3.8-2.6 7-5.9l59.3-61.4 88.9-93c3.2-3.3 7-5.9 11.2-7.8 4.3-1.8 8.8-2.8 13.4-2.9 4.6-0.1 9.2 0.7 13.5 2.4 4.3 1.7 8.2 4.2 11.5 7.3zm-281 60.7c-3.9 4.1-8.6 7.4-13.9 9.6-5.2 2.3-10.8 3.5-16.5 3.7-5.7 0.1-11.3-0.9-16.6-3-5.3-2.1-10.2-5.1-14.3-9.1l-7.8-7.4c-3.3-3.2-5.9-7.1-7.8-11.3-1.8-4.2-2.8-8.8-2.9-13.4-0.1-4.6 0.7-9.2 2.4-13.5 1.6-4.3 4.1-8.2 7.3-11.5l147-152.9c3.2-3.3 7-5.9 11.2-7.8 4.3-1.8 8.8-2.8 13.4-2.9 4.6-0.1 9.2 0.7 13.5 2.4 4.3 1.7 8.2 4.2 11.5 7.3l28.8 27.8 22.3 21.6q-5.2-0.3-10.3 0.5-5.2 0.8-10.1 2.7-4.8 1.9-9.2 4.8-4.3 2.9-7.9 6.7l-0.5 0.5z"/>
	<path id="Layer" class="s1" d="m336.3 118.7q2.7 2.6 4.7 5.6 2.1 3.1 3.4 6.5 1.4 3.4 2 7 0.7 3.7 0.5 7.3l-15-14.6c-3.3-3.2-7.2-5.7-11.5-7.4-4.3-1.7-8.9-2.5-13.5-2.4-4.6 0.1-9.2 1.1-13.4 2.9-4.2 1.9-8 4.5-11.2 7.9l-89.3 92.6-6.2 6.5-53.1 55.3q-0.4 0.4-0.8 0.8-0.4 0.4-0.8 0.8-0.4 0.4-0.9 0.8-0.4 0.4-0.9 0.7-0.1 0.1-0.2 0.2-0.1 0.1-0.2 0.2-0.1 0.1-0.3 0.2-0.1 0.1-0.2 0.2l-2.7 2-1 0.6q-0.4 0.3-0.8 0.5-0.3 0.2-0.7 0.5-0.4 0.2-0.7 0.4-0.4 0.2-0.8 0.4l-1.4 0.9c-1.1 0.6-2.2 1.1-3.3 1.5h-0.7c-1.2 0.5-2.4 0.9-3.6 1.3h-0.4c-1.4 0.4-2.8 0.9-4.1 0.9-1.4 0.2-2.9 0.6-4.3 0.6-1.5 0-3 0-4.5 0q-4.1-0.1-8.1-1-4-0.8-7.8-2.4-3.8-1.6-7.2-3.8-3.4-2.3-6.4-5.1l-35.3-34.6q-1.2-1.2-2.3-2.4-1.1-1.2-2.2-2.5-1-1.2-2-2.6-1-1.3-1.9-2.7c5.5 3.3 11.5 5.6 17.7 6.8 6.2 1.3 12.6 1.5 18.9 0.7 6.3-0.9 12.4-2.7 18.1-5.6 5.7-2.9 10.8-6.7 15.3-11.3l56.5-58.5 84.8-88.5c4-4.2 8.9-7.5 14.2-9.9 5.3-2.3 11.1-3.5 16.9-3.6 5.8-0.2 11.6 0.9 17 3 5.4 2.1 10.4 5.2 14.6 9.2l35.1 34.3"/>
	<path id="Layer" class="s0" d="m891.7 183.2c13.9-21.9 29.2-21.9 35.2-21.9q1.3-0.1 2.6 0 1.2 0.1 2.5 0.4 1.3 0.2 2.6 0.5 1.2 0.4 2.4 0.9v21.3q-1.4-0.2-2.8-0.4-1.3-0.1-2.7-0.3-1.4-0.1-2.8-0.1-1.4-0.1-2.8-0.1c-3.3-0.3-6.6 0-9.8 0.7-3.1 0.8-6.2 2.1-8.9 3.8-2.8 1.7-5.3 3.9-7.3 6.4-2.1 2.6-3.8 5.4-4.9 8.5v95.4h-23v-94.6q0-3.6-0.5-7.1-0.4-3.6-1.3-7.1-0.9-3.5-2.2-6.8-1.3-3.4-3-6.6l13-13.8q2.2 2.2 4.1 4.7 2 2.4 3.7 5.1 1.7 2.6 3.1 5.4 1.5 2.8 2.6 5.7"/>
	<path id="Layer" fill-rule="evenodd" class="s0" d="m548.1 132.5c2.8 2.5 5.2 5.3 7.4 8.4 2.2 3 4 6.3 5.4 9.8 1.5 3.4 2.5 7 3.2 10.7 0.6 3.7 0.9 7.5 0.7 11.2 0.3 3.8 0.1 7.6-0.5 11.3-0.6 3.7-1.7 7.4-3.1 10.9-1.4 3.5-3.2 6.8-5.3 9.9-2.2 3.1-4.7 6-7.5 8.5q-16.4 14.3-47 14.3h-42.5v70.8h-23.9v-181.1h67q29.3 0 46.1 15.3zm-17.2 66.6q2.6-2.5 4.6-5.5 2-3 3.3-6.4 1.4-3.4 1.9-7 0.6-3.5 0.3-7.2 0.2-3.6-0.3-7.2-0.6-3.5-1.9-6.9-1.3-3.4-3.3-6.4-2-3.1-4.5-5.6-2.9-2.6-6.1-4.5-3.3-2-6.9-3.3-3.6-1.2-7.3-1.8-3.8-0.6-7.6-0.5h-44.1v71.1h43q3.9 0.3 7.7-0.2 3.9-0.5 7.6-1.6 3.7-1.2 7.2-3 3.4-1.8 6.5-4.2zm119.7-37.8q0 0 0 0-0.1 0-0.2 0zm0 0q42.3 0 42.7 48.1v88.9h-22.9v-89.1q0.2-2.8-0.1-5.7-0.4-2.9-1.2-5.6-0.9-2.8-2.2-5.3-1.3-2.6-3.1-4.8-2.1-1.9-4.4-3.3-2.4-1.4-5-2.3-2.6-0.9-5.3-1.3-2.7-0.3-5.5-0.1-2.6-0.1-5.2 0.3-2.5 0.4-5 1.1-2.5 0.8-4.9 1.9-2.3 1.2-4.4 2.7-2.2 1.5-4.1 3.2-1.9 1.8-3.5 3.8-1.7 1.9-3.1 4.1-1.4 2.2-2.5 4.5v95.9h-22.9v-181.9h22.9v63.7c2.3-3 5-5.8 8-8.1 2.9-2.4 6.2-4.4 9.6-6 3.5-1.7 7.1-2.9 10.8-3.7 3.7-0.7 7.5-1.1 11.3-1zm452.5 0q43.8-0.1 44.6 46.8v90.1h-22.9v-88.7q0.2-2.9-0.1-5.8-0.3-2.9-1.2-5.6-0.8-2.8-2.2-5.4-1.3-2.6-3.1-4.8-2.3-2-4.9-3.5-2.6-1.5-5.5-2.4-2.9-1-5.9-1.3-3-0.3-6 0-2.9-0.1-5.7 0.4-2.9 0.4-5.6 1.4-2.7 1-5.2 2.5-2.5 1.5-4.7 3.4-2.1 2-3.9 4.3-1.7 2.4-3 5-1.2 2.7-2 5.5-0.7 2.8-0.9 5.8v89.3h-23v-88.2c0-19.5-9.6-29.3-28.7-29.3-3.3-0.3-6.5 0-9.7 0.8-3.1 0.7-6.2 2-8.9 3.7-2.8 1.8-5.2 3.9-7.3 6.4-2.1 2.5-3.8 5.4-5 8.4v98.1h-22.9v-134.5h21.6l0.7 14.9c2.4-2.8 5.2-5.4 8.2-7.6 3-2.3 6.2-4.1 9.7-5.6 3.4-1.5 7-2.6 10.7-3.3 3.7-0.7 7.4-1 11.1-0.8q28.3 0 38.4 21.6c2.3-3.5 5.1-6.6 8.2-9.3 3.2-2.8 6.7-5.1 10.4-7 3.7-1.9 7.7-3.3 11.8-4.2 4-0.9 8.2-1.3 12.4-1.1zm93.7-15.2q-1.4-0.2-2.7-0.6-1.3-0.5-2.5-1.3-1.2-0.7-2.2-1.7-0.8-1-1.5-2.1-0.6-1-1.1-2.2-0.4-1.2-0.6-2.5-0.2-1.3-0.2-2.5 0-1.3 0.2-2.6 0.2-1.3 0.6-2.5 0.5-1.2 1.1-2.3 0.7-1.1 1.5-2.1c1.4-1.2 3-2.2 4.7-2.8 1.8-0.7 3.6-1 5.5-1 1.8 0 3.6 0.3 5.4 1 1.7 0.6 3.3 1.6 4.7 2.8q0.8 1 1.5 2.1 0.7 1.1 1.1 2.3 0.5 1.2 0.7 2.5 0.2 1.3 0.1 2.6c0.1 1.8-0.2 3.5-0.8 5.2-0.7 1.7-1.7 3.2-3 4.4-1.3 1.3-2.8 2.2-4.5 2.8-1.7 0.6-3.5 0.8-5.3 0.6q-1.4 0.1-2.7-0.1zm168 63.3v88.9h-22.9v-89.1q0.2-2.8-0.1-5.7-0.4-2.9-1.2-5.6-0.9-2.8-2.2-5.3-1.4-2.6-3.2-4.8-2-1.9-4.4-3.3-2.3-1.5-5-2.4-2.6-0.9-5.3-1.2-2.8-0.3-5.5-0.1-2.6-0.1-5.2 0.3-2.6 0.4-5.1 1.1-2.5 0.8-4.9 1.9-2.3 1.2-4.4 2.7-2.1 1.5-4 3.2-1.9 1.8-3.6 3.8-1.7 1.9-3 4.1-1.4 2.2-2.6 4.5v96.1h-22.9v-134.6h21.7l0.7 16.8c2.4-3.1 5.1-5.9 8-8.4 3-2.4 6.3-4.5 9.8-6.2 3.5-1.7 7.1-2.9 10.9-3.7 3.8-0.8 7.6-1.2 11.5-1.1q42.6-0.1 42.9 48.1zm-534.6 50.6c0 20.7 5.6 28.3 5.6 28.3l-11.8 13.1q-2.4-2-4.5-4.4-2-2.4-3.7-5-1.7-2.7-3-5.6-1.3-2.8-2.1-5.9c-2.5 3.2-5.2 6-8.3 8.5-3.1 2.5-6.4 4.7-10 6.4-3.6 1.7-7.3 3-11.2 3.9-3.9 0.9-7.8 1.3-11.8 1.3q-4.4 0.2-8.8-0.5-4.3-0.6-8.5-2-4.2-1.5-8-3.6-3.9-2.2-7.2-5.1-3.1-2.6-5.5-5.9-2.4-3.2-4.1-6.9-1.6-3.7-2.4-7.7-0.8-4-0.7-8c-0.2-3.2 0.1-6.3 0.7-9.4 0.7-3.1 1.7-6.1 3.1-9 1.4-2.8 3.1-5.5 5.2-7.9 2-2.4 4.3-4.5 6.9-6.4 10.4-7.7 25.4-11.6 44.6-11.6h22.3v-10.5q0.2-2.7-0.2-5.3-0.4-2.6-1.4-5.1-0.9-2.5-2.3-4.7-1.4-2.2-3.2-4.1-2.2-2-4.7-3.4-2.5-1.5-5.2-2.4-2.7-0.9-5.6-1.3-2.9-0.3-5.7-0.1-2.8-0.1-5.5 0.2-2.7 0.4-5.3 1.2-2.7 0.8-5.1 2-2.5 1.2-4.7 2.8-1.9 1.2-3.4 2.9-1.6 1.6-2.6 3.6-1.1 2-1.7 4.1-0.6 2.2-0.6 4.4h-23.1q0.1-2.6 0.6-5.1 0.5-2.6 1.4-5 0.9-2.4 2.2-4.7 1.3-2.2 3-4.3 1.9-2.4 4-4.6 2.2-2.1 4.7-4 2.4-1.9 5.1-3.5 2.6-1.5 5.5-2.7 3.1-1.4 6.4-2.5 3.3-1 6.7-1.7 3.4-0.7 6.8-1.1 3.5-0.3 7-0.3 4.8-0.3 9.7 0.3 4.8 0.6 9.5 2.1 4.6 1.5 8.9 3.8 4.4 2.4 8.2 5.4 3.3 3 5.8 6.7 2.6 3.6 4.4 7.7 1.8 4.1 2.6 8.5 0.9 4.4 0.8 8.9zm-23.2-26.8h-17.9q-42.2 0-42.2 24.7-0.1 2.4 0.3 4.7 0.5 2.3 1.4 4.5 0.9 2.2 2.3 4.1 1.4 1.9 3.2 3.5 1.9 1.5 4.1 2.7 2.2 1.2 4.6 2 2.3 0.8 4.8 1.1 2.5 0.4 5 0.2 2.6 0.1 5.3-0.3 2.7-0.4 5.3-1.1 2.6-0.7 5-1.7 2.5-1.1 4.8-2.4 2.3-1.3 4.3-2.8 2.1-1.6 3.8-3.4 1.8-1.9 3.3-4 1.5-2.1 2.6-4.4zm705.7-58.8q-1.6 3.3-2.7 6.7-1.2 3.5-1.9 7.1-0.7 3.6-0.9 7.2-0.3 3.7-0.1 7.3v92.3q0.3 5.7-0.6 11.3-0.8 5.6-2.8 11-2 5.3-5.1 10.1-3 4.8-6.9 8.8-4.2 3.9-9.1 6.8-4.8 3-10.2 4.9-5.3 2-10.9 2.8-5.7 0.8-11.3 0.6-3.8-0.1-7.5-0.5-3.7-0.5-7.3-1.3-3.6-0.9-7.1-2.1-3.6-1.2-6.9-2.8-3.2-1.3-6.2-3.1-2.9-1.7-5.6-3.8-2.7-2.1-5.1-4.6-2.3-2.5-4.3-5.3l11.9-13.8c2 2.9 4.4 5.4 7.1 7.7 2.7 2.3 5.6 4.2 8.7 5.8 3.1 1.6 6.4 2.8 9.9 3.6 3.4 0.8 6.9 1.2 10.4 1.2q3.5 0.2 7.1-0.3 3.5-0.5 6.9-1.7 3.3-1.3 6.4-3.1 3-1.9 5.7-4.4 2.4-2.6 4.3-5.8 1.8-3.1 3-6.5 1.2-3.4 1.8-7 0.4-3.7 0.2-7.3v-11.5c-2.3 2.6-4.8 5-7.7 7.1-2.8 2.1-5.9 3.9-9.1 5.3-3.2 1.4-6.6 2.5-10 3.1-3.5 0.7-7 0.9-10.5 0.8-3.7 0.1-7.4-0.3-11-1.1-3.6-0.8-7.1-2-10.4-3.7-3.3-1.6-6.4-3.7-9.2-6.1-2.9-2.4-5.4-5.1-7.5-8.1q-14.6-19-14.6-51.9c0-21.2 4.8-37.8 14.5-50.2 4.9-6 11-10.7 18-13.9 6.9-3.2 14.5-4.7 22.2-4.5 7.7 0.2 15.2 2.1 22 5.7 6.8 3.6 12.6 8.6 17.2 14.8q1-2.9 2.4-5.7 1.3-2.8 3-5.5 1.7-2.6 3.7-5 2-2.4 4.3-4.5l11.6 13.1zm-29 25.7c-1.5-3-3.3-5.7-5.5-8.1-2.2-2.5-4.7-4.6-7.5-6.3-2.8-1.7-5.8-3-9-3.8-3.1-0.8-6.4-1.2-9.7-1.1q-3.8-0.2-7.5 0.7-3.8 0.8-7.2 2.5-3.4 1.7-6.3 4.2-2.9 2.5-5.1 5.6c-6.3 8.8-9.5 21.6-9.5 38.7q-0.2 4.7 0.3 9.4 0.4 4.7 1.6 9.2 1.2 4.6 3.1 8.9 1.8 4.3 4.4 8.3 2.1 3.1 5 5.6 2.9 2.5 6.3 4.2 3.4 1.7 7.2 2.5 3.7 0.8 7.5 0.7c3.3 0.1 6.6-0.3 9.9-1.1 3.2-0.9 6.2-2.2 9.1-3.9 2.8-1.8 5.3-4 7.5-6.5 2.2-2.5 4-5.3 5.4-8.3zm-287-36.1c2.6 0 5.3 0.5 7.7 1.5 2.5 1 4.7 2.5 6.6 4.4 1.8 1.9 3.3 4.1 4.4 6.6 1 2.4 1.5 5 1.5 7.7v113.8h-22.9v-106.5c0-1.1-0.3-2.2-0.7-3.3-0.4-1-1.1-2-1.9-2.8-0.8-0.7-1.8-1.4-2.8-1.8-1.1-0.4-2.2-0.6-3.3-0.5h-8.1v-19h19.6zm385.6-45.1q0 2.6-0.5 5-0.4 2.5-1.4 4.9-0.9 2.3-2.3 4.4-1.4 2.1-3.2 3.9-1.8 1.8-3.9 3.2-2.1 1.3-4.4 2.3-2.3 0.9-4.8 1.4-2.4 0.5-5 0.5-1.3 0-2.6-0.1-1.2-0.1-2.5-0.4-1.3-0.2-2.6-0.6-1.2-0.4-2.4-0.8-1.1-0.5-2.2-1-1.1-0.6-2.1-1.2-1-0.7-1.9-1.5-0.9-0.7-1.8-1.6-0.8-0.9-1.6-1.8-0.7-1-1.3-2-0.7-1-1.3-2-0.5-1.1-1-2.2-0.4-1.2-0.8-2.5-0.3-1.2-0.6-2.5-0.2-1.3-0.3-2.6-0.1-1.3-0.1-2.6 0-1.3 0.1-2.6 0.1-1.2 0.4-2.5 0.2-1.3 0.6-2.5 0.4-1.2 0.8-2.4 1-2.3 2.4-4.3 1.3-2 3.1-3.8 1.7-1.7 3.7-3.1 2-1.3 4.3-2.3 2.4-0.9 4.9-1.4 2.6-0.5 5.2-0.5 2.6 0 5.1 0.5 2.6 0.5 5 1.4 1.1 0.5 2.2 1 1 0.6 2 1.3 1 0.6 2 1.4 0.9 0.8 1.8 1.6 0.8 0.9 1.5 1.8 0.8 0.9 1.5 1.9 0.6 1 1.2 2.1 0.5 1.1 0.9 2.2 0.5 1.2 0.9 2.4 0.3 1.3 0.5 2.6 0.3 1.2 0.4 2.5 0.1 1.3 0.1 2.5zm-4.7 0.3q0.1-1.1 0-2.2-0.1-1.1-0.3-2.3-0.2-1.1-0.5-2.1-0.3-1.1-0.7-2.2-0.3-0.9-0.8-1.8-0.4-0.9-1-1.8-0.5-0.8-1.1-1.6-0.7-0.8-1.4-1.5-0.6-0.7-1.4-1.4-0.7-0.6-1.5-1.1-0.8-0.6-1.7-1-0.9-0.5-1.8-0.8-0.9-0.4-1.9-0.7-1-0.3-2-0.5-1-0.2-2-0.3-1-0.1-2-0.1-1.1 0-2.2 0.1-1.1 0.1-2.1 0.3-1.1 0.3-2.1 0.6-1.1 0.3-2.1 0.7-0.9 0.4-1.7 0.9-0.9 0.5-1.7 1.1-0.8 0.5-1.6 1.2-0.7 0.6-1.4 1.3-0.7 0.8-1.3 1.5-0.6 0.8-1.1 1.6-0.5 0.9-1 1.7-0.4 0.9-0.8 1.8-0.3 1-0.6 2-0.3 0.9-0.5 2-0.2 1-0.2 2-0.1 1-0.1 2 0 1.1 0.1 2.2 0.1 1.2 0.2 2.3 0.2 1.1 0.5 2.1 0.3 1.1 0.7 2.2 0.4 0.9 0.8 1.8 0.5 0.9 1 1.8 0.5 0.8 1.2 1.6 0.6 0.8 1.3 1.5 0.7 0.7 1.4 1.4 0.7 0.6 1.5 1.1 0.8 0.6 1.7 1 0.9 0.5 1.7 0.9 1 0.3 2 0.6 1 0.3 2 0.5 1 0.2 2 0.3 1.1 0 2.1 0 2 0.1 4-0.3 2-0.4 3.9-1.1 1.9-0.8 3.6-1.9 1.7-1.2 3.1-2.6 0.7-0.8 1.3-1.5 0.5-0.8 1.1-1.7 0.5-0.8 0.9-1.7 0.4-0.9 0.8-1.8 0.3-0.9 0.6-1.9 0.3-1 0.5-2 0.2-1 0.2-2 0.1-1 0.1-2zm-8.6 12.7q0 0 0 0.1 0 0 0 0.1 0 0 0 0.1 0 0.1 0 0.1c0 0 0 0.3-0.4 0.3h-5.4q-0.1 0-0.1 0-0.1-0.1-0.2-0.1-0.1-0.1-0.2-0.2 0 0-0.1-0.1 0-0.1-0.1-0.2-0.1-0.1-0.1-0.1-0.1-0.1-0.1-0.2 0-0.1-0.1-0.2l-1.4-4.8q-0.2-0.6-0.4-1.1-0.2-0.5-0.5-0.9-0.2-0.5-0.6-1-0.3-0.4-0.7-0.8-0.4-0.3-0.9-0.5-0.4-0.2-0.9-0.3-0.5-0.2-1-0.2-0.5-0.1-1 0h-1.9v9.9q0 0.1 0 0.3 0 0.1-0.1 0.2 0 0.1-0.1 0.2-0.1 0.1-0.2 0.1-0.3 0.1-0.6 0.2-0.3 0.1-0.6 0.1-0.3 0-0.5 0-0.3 0-0.6 0-0.3 0-0.6 0-0.3 0-0.6 0-0.3 0-0.6-0.1-0.3-0.1-0.6-0.2-0.1 0-0.3-0.1-0.1-0.1-0.1-0.2-0.1-0.1-0.1-0.2-0.1-0.2-0.1-0.3v-24.9q0-0.3 0-0.6 0.1-0.3 0.2-0.5 0-0.3 0.2-0.5 0.1-0.3 0.3-0.5 0.2-0.2 0.4-0.4 0.2-0.1 0.5-0.2 0.2-0.1 0.5-0.2 0.3 0 0.5 0h7.2q0.6 0 1.3 0 0.6 0.1 1.2 0.1 0.6 0.1 1.2 0.2 0.6 0.1 1.2 0.3 0.4 0.1 0.9 0.2 0.4 0.2 0.8 0.4 0.5 0.2 0.9 0.4 0.4 0.3 0.7 0.5 0.4 0.3 0.6 0.6 0.3 0.3 0.6 0.6 0.2 0.3 0.5 0.7 0.2 0.3 0.3 0.7 0.2 0.4 0.3 0.8 0.1 0.4 0.2 0.8 0.1 0.5 0.1 0.9 0.1 0.4 0.1 0.8 0 0.7-0.1 1.4-0.1 0.7-0.3 1.4-0.3 0.6-0.6 1.2-0.4 0.6-0.8 1.1-0.5 0.5-1.1 0.9-0.5 0.4-1.1 0.7-0.6 0.3-1.2 0.6-0.7 0.2-1.3 0.3 0.4 0.2 0.8 0.4 0.4 0.2 0.8 0.4 0.4 0.2 0.7 0.5 0.4 0.3 0.7 0.6 0.4 0.4 0.7 0.9 0.4 0.4 0.7 0.9 0.3 0.5 0.6 1 0.2 0.5 0.5 1.1l1.7 4.6q0.1 0.2 0.1 0.4 0.1 0.2 0.2 0.4 0 0.2 0.1 0.5 0 0.2 0.1 0.4zm-7.7-19.1q0-0.2 0-0.4 0-0.2 0-0.4 0-0.2 0-0.4 0-0.2 0-0.4-0.1-0.1-0.2-0.3-0.1-0.2-0.2-0.3-0.1-0.2-0.2-0.3-0.1-0.2-0.3-0.3-0.1-0.1-0.3-0.3-0.2-0.1-0.4-0.2-0.2-0.1-0.4-0.2-0.3-0.1-0.5-0.1-0.3-0.1-0.6-0.1-0.4 0-0.7 0-0.3 0-0.7 0-0.3 0-0.6 0.1h-3.4v8h3.2q0.6 0.1 1.2 0 0.5 0 1.1-0.2 0.6-0.1 1.1-0.4 0.5-0.2 0.9-0.6 0.3-0.3 0.6-0.6 0.2-0.4 0.3-0.8 0.2-0.4 0.3-0.8 0-0.5 0-0.9z"/>
</svg>