<svg version="1.2" xmlns="http://www.w3.org/2000/svg" viewBox="0 0 1544 842" width="1544" height="842">
	<title>logo (56)-svg</title>
	<style>
		.s0 { fill: #b4cad8 } 
		.s1 { fill: #030303 } 
		.s2 { fill: #000000 } 
		.s3 { fill: #c51f27 } 
	</style>
	<path id="Layer" class="s0" d="m583.3 521.9c20.3 25.7 53.5 46 98.3 51.4v193c-139.2 0-227.7-73.8-277.1-146.1z"/>
	<g id="Layer">
		<path id="Layer" fill-rule="evenodd" class="s1" d="m455.2 425.1c0 13.9-2.6 46.1-30.4 73.1-14.4 13.9-44.8 35.5-94.9 35.5-24.5 0-44.3-5.9-52.8-8.5-3.8-2-11.3-4.6-21.1-11.3-11.3-7.5-15.9-12.6-19.8-17.2v110.1h-27v-285.1h27.3v32.1c4.6-5.9 4.6-5.9 8.5-9.2 32.1-28.3 80.2-29.1 91.6-29.1 42.7 0 84.4 16.5 105.5 56.1 4.6 8.5 13.8 27 13.1 53.5zm-31.4-0.8c0-7.2-1.3-21.1-8.5-37.5-21.6-46.1-72.6-46.9-85.7-46.9-36.3 0-74.6 13.9-87.7 50.7-4.1 11.4-5.4 23.2-5.4 35 0 8.8 0 37.6 20.3 57.4 10.5 10.6 34.7 25 71.8 25 45 0 69.2-20.6 80.5-35 14.4-18.5 15.2-40.9 14.7-48.7z"/>
		<path id="Layer" class="s1" d="m505.3 321.4h27.8v206.9h-27.8z"/>
		<path id="Layer" class="s1" d="m505.3 244.5h27.8v40.1h-27.8z"/>
		<path id="Layer" fill-rule="evenodd" class="s1" d="m803.6 457.3l21.8 15.7c-6.1 8-19.3 26.5-41.6 40.9-11.9 8-38.9 21.1-77.2 21.1-13.2 0-45.6-1.3-75.9-21.6-30.4-19.8-48.9-54.1-48.9-91.6 0-28.3 11-57.4 32.9-76.5 11.8-11 41.7-29.6 85.2-29.6 15.2 0 60.2 2.1 93.1 36.3 5.2 5.2 15.2 15.7 22.4 32.2 5.2 11.3 7.7 21.1 9.8 44.3h-214.4c4.2 53.2 48.9 81.5 99.1 81.5 17 0 56.6-3.3 85.7-40.9 2.8-3.3 4.6-5.9 8-11.8zm-191.2-52.8h180.1c-4.6-22.4-15.9-38.8-35-50.7-10.5-7.2-27.8-15.7-58.1-15.7-23.7 0-43.5 5.2-61.3 21.7-10.5 9.2-15.9 19-18.5 23.6-2.8 5.9-4.6 9.8-7.2 21.1z"/>
		<path id="Layer" class="s1" d="m1003.5 343.8c-7.2-0.8-14.4-2.1-21.1-2.1-33.7 0-55.3 14.5-64.6 23.7-8.5 9.8-13.1 22.4-14.4 26.3-2.1 7.2-2.6 17.7-2.6 20.3v116.1h-27.8v-206.9h27.6v33.9c2.5-3.3 7.2-10.5 15.9-17.2 33-26.3 75.9-23.2 87.8-22.4z"/>
		<path id="Layer" class="s1" d="m1039 321.4h27.8v206.9h-27.8z"/>
		<path id="Layer" class="s1" d="m1039 244.5h27.8v40.1h-27.8z"/>
		<path id="Layer" class="s1" d="m1315.6 514.4c-15.2 9.8-40.1 19.1-81 19.1-61.3 0-96.3-13.9-114.3-36.3-2.6-3.4-5.9-7.2-7.2-11.4-0.8-1.2-2.6-6.6-3.3-8.4l30.3-6.7c1.3 2.5 2.6 5.1 4.7 8.5 5.9 8.4 15.9 15.1 24.9 19 10.6 3.9 33 9.8 63.3 9.8 3.4 0 44.3 0.8 67.4-15.2 3.4-2.6 16-11.3 16-26.3 0-3.3-0.8-9.2-5.9-15.1-8.5-10.6-24.5-12.6-51.5-14.4-51.5-3.9-84.4-2.1-106.3-9.8-9.2-3.4-33.7-15.7-33.7-46.9 0-11.3 3.4-36.2 31.7-51.4 14.4-7.2 37.5-13.1 74.6-13.1 22.4 0 50.7 2.5 72.5 11.3 8.5 3.3 15.2 6.7 22.4 12.6 9.3 7.2 14.5 14.4 19.1 24.9l-30.4 6c-1.3-2.1-3.8-7.2-8.5-11.9-16.4-14.4-55.3-18.5-76.4-18.5-19.8 0-52.2 2.6-67.4 17.8-7.2 7.2-8.5 16.4-8.5 19.8 0.8 6.7 3.3 19 19 23.6 7.2 2.1 21.1 3.4 40.9 3.9 52.3 2.6 85.7 2.6 106.8 13.9 8.5 3.9 29.6 17.8 29.6 46.8-1 12.4-5.1 32.7-28.8 48.4z"/>
	</g>
	<path id="Layer" class="s2" d="m0 425.6h173.4v13.9h-173.4z"/>
	<path id="Layer" class="s2" d="m1381.5 425.6h162.3v13.9h-162.3z"/>
	<path id="Layer" class="s2" d="m697.3 569.2h13.9v272.8h-13.9z"/>
	<path id="Layer" class="s2" d="m697.3 0h13.9v272.8h-13.9z"/>
	<path id="Layer" class="s3" d="m824.2 323.5c-19.9-25.8-56.1-43.5-98.3-48.7v-193c132.5 0 216.4 73.9 263.2 146.2z"/>
</svg>