<svg version="1.2" xmlns="http://www.w3.org/2000/svg" viewBox="0 0 1548 886" width="1548" height="886">
	<title>Screenshot 2022-05-08 at 10-svg</title>
	<style>
		.s0 { fill: #ffffff } 
	</style>
	<g id="#255aa4ff">
		<path id="Layer" class="s0" d="m489 29.8c11.6-15.6 29.2-30.3 49.7-28.8 131.7 0.3 263.5-0.3 395.2 0.3 71.2 2.9 142.6 21.3 203.4 59.1 33.2 20 62.5 45.5 89.7 73 38.9 34.4 74.4 72.2 113.3 106.6 39.7 39.3 81.5 76.2 121.2 115.5 26.6 26.4 55.8 50.1 81.2 77.6 5.7 5.2 6 14.7 0 19.8-49.2 51.6-102.6 101.1-166.6 133.8-59.3 31.2-126.6 44.9-193.2 45.6-72.7-0.1-145.5 1.1-218.2-0.6 12.8-18.8 30.3-33.4 46.3-49.3 28.3-27 56.3-54.5 84.3-81.8 15.4-15.2 29.7-34.8 27.9-57.6 1.8-25-14.9-45.7-31.9-62-79.2-77.2-154.4-158.7-237.9-231.3-43.7-37.8-93.6-68.9-148.8-86.5-61.7-19.2-126.4-27.4-190.8-29.1q-12.6-0.7-24.8-4.3zm275.7 217.1c23.3-4.1 47 7.3 63.2 23.7 37 36.4 73.3 73.5 111 109.1 13.2 12.7 27.9 25.7 33.6 43.7 4.2 22.2 3.6 48.4-13.7 65.2-39.3 39.6-79.4 78.5-118.8 118-14.3 15-30.7 30.4-52 33.6-13.5 1.3-28 2.4-40.5-3.9-16.4-7-28.7-20.3-41.5-32.3-37.1-36.2-73.9-72.9-110.8-109.3-13.7-13.5-23.5-32.1-21.6-51.8-1.6-25 16.5-44.7 33.6-60.4 38.7-37.5 76.4-76.1 115.1-113.6 11.5-11.5 26.5-18.8 42.4-22zm-564.9 39.3c53.3-22.5 111.2-32.9 169-32.5 71.5 0.1 143-1 214.4 0.5-5.8 8.2-12 16.1-19.3 23.1q-55.1 52.7-109.6 106c-26.6 21.6-39.4 61-22 92.2 8.5 15.6 22.1 27.3 34.4 39.8 56 54.7 110.2 111.3 166.5 165.6 51.5 47.7 103.6 97.1 168.6 125.9 75.2 33.1 158.4 42.8 239.8 45.6 6.8 0.9 13.5 2.2 20.2 4.1-15.3 12.7-31.1 30.5-53 28.5-131.7-0.3-263.5 0.2-395.2-0.2-81.3-3.6-163.5-27.3-229-76.6-34-23.3-61.1-54.6-91.9-81.6-24.8-22.2-47.5-46.6-72.3-68.8-27.4-23.8-51.8-50.7-79-74.6-28.1-24.5-53.1-52.2-80.9-77-16.9-14.9-33.1-30.5-49.1-46.4-5.1-5.8-13.2-11.7-10.2-20.5 8.6-15.1 23.2-25.5 35.1-37.9 47.4-47.2 101.2-89.6 163.5-115.2z"/>
	</g>
</svg>