<svg version="1.2" xmlns="http://www.w3.org/2000/svg" viewBox="0 0 1587 413" width="1587" height="413">
	<title>POSCO_logo-svg</title>
	<style>
		.s0 { fill: #00588a } 
	</style>
	<path id="path4331" fill-rule="evenodd" class="s0" d="m928.9 84.2c3.8 7.4 0.2 16.8-4.3 19.6-7 4.5-39.5 5.4-52.3-11.5-18-23.6-45.9-39.2-77.9-39.2-37.5 0-70.1 21.4-86.5 52.4 0 0-3.1 9.2 0.9 14.9 2.8 3.9 7.5 5.9 15.7 5.9h128.6c0 0 43.7-0.9 66 21.3 26 25.9 12.8 62.5 12.8 62.5l-4.3 11.5c-25 48-75.4 80.9-133.2 80.9-59.1 0-109.5-34.6-134.6-83.9-3.7-7.3-0.2-16.3 4.3-19.1 7.1-4.5 39.5-5.3 52.4 11.5 17.9 23.6 45.9 39.1 77.9 39.1 37.4 0 70-21.3 86.4-52.3 0 0 2.7-9.2-1.3-14.9-2.7-3.9-7.1-6.4-15.3-6.4h-128.6c0 0-43.7 1.4-66-20.8-25.9-26-13.2-63-13.2-63l3.4-8.5c24.7-49.3 75.7-83.4 134.6-83.4 59 0 109.5 34.2 134.5 83.4zm-449.8 218.3c-83 0-150.1-67.2-150.1-150.2 0-83.1 67.1-150.2 150.1-150.2 83 0 150.1 67.1 150.1 150.2 0 83-67.1 150.2-150.1 150.2zm775.9-190.2c0 0 1.9 9.1-6.4 13.6-8.2 4.5-35.6 5.2-54.9-24.7-4.2-6.5-8.6-12.5-14.1-17.9-17.6-17.6-42.4-28.9-69.4-28.9-53.9 0-97.4 43.9-97.4 97.9v0.4c0 53.9 43.5 97.4 97.4 97.4 27 0 51.8-10.8 69.4-28.5 5.5-5.4 9.9-11.4 14.1-17.8 19.3-29.9 46.7-29.7 54.9-25.1 8.3 4.4 6.4 14 6.4 14-17.6 63.3-75.7 109.8-144.8 109.8-82.8 0-149.8-67-149.8-149.8v-0.4c0-82.9 67-150.2 149.8-150.2 69.1 0 127.2 46.8 144.8 110.2zm181.6 190.2c-83 0-150.1-67.2-150.1-150.2 0-83.1 67.1-150.2 150.1-150.2 83 0 150 67.1 150 150.2 0 83-67 150.2-150 150.2zm-1136.1-150.2c0 82.6-67.2 149.7-149.8 149.7-37.6 0-72.1-13.8-98.4-36.6l0.5 136.2-14.1 10.6c-25.5 0-37.9-35.7-37.9-45.5 0-9.8 0-214.4 0-214.4 0-82.7 67.2-149.8 149.9-149.8 82.6 0 149.8 67.1 149.8 149.8zm-52.3 0c0-54.1-43.7-97.9-97.7-97.9-54.1 0-97.7 43.8-97.7 97.9 0 54.1 43.6 97.8 97.7 97.8 54 0 97.7-43.7 97.7-97.8zm328.6 0c0-54.1-43.7-97.9-97.7-97.9-54 0-97.7 43.8-97.7 97.9 0 54.1 43.7 97.8 97.7 97.8 54 0 97.7-43.7 97.7-97.8zm957.5 0c0-54.1-43.7-97.9-97.7-97.9-54.1 0-97.7 43.8-97.7 97.9 0 54.1 43.6 97.8 97.7 97.8 54 0 97.7-43.7 97.7-97.8z"/>
</svg>