<svg version="1.2" xmlns="http://www.w3.org/2000/svg" viewBox="0 0 1584 558" width="1584" height="558">
	<title>tcp-logo-svg</title>
	<style>
		.s0 { fill: #ffffff } 
	</style>
	<g id="Layer">
		<path id="Layer" fill-rule="evenodd" class="s0" d="m1 535.9h9.1c23.3 0 33.4-8.7 33.4-41.8v-248.5c0-33.1-10.1-41.7-33.4-41.7h-9.1v-15.3c17.7 0.5 42 1.6 64.8 1.6 27.3 0 55.2-1.6 82.5-1.6 81.5 0 106.8 56 106.8 96.3 0 45.3-27.3 97.2-120.5 97.2-15.7 0-30.9-1.5-46.5-3.1v102.9c0 48.3 8.6 53.9 28.8 53.9h14.7v15.3c-22.3-0.5-43.5-1.5-65.8-1.5-22.8 0-47.1 1-64.8 1.5 0 0 0-15.3 0-15.2zm87.1-185.3q6 3 12.4 5.3 6.3 2.3 12.9 3.9 6.6 1.5 13.3 2.3 6.7 0.7 13.5 0.7c50.1 0 66.3-37.7 66.3-68.2 0-59.6-32.4-90.7-86.6-90.7-12.1 0-23.2 1.1-31.8 2.1zm179.2 185.3h9.1c23.3 0 33.4-8.7 33.4-41.8v-248.4c0-33.1-10.1-41.8-33.4-41.8h-9.1v-15.3c17.7 0.6 42 1.6 64.8 1.6 22.3 0 43.5-1 67.3-1.6v15.3h-11.6c-23.3 0-33.4 8.7-33.4 41.8v236.7c0 38.2 8.1 51.4 70.4 51.4 83 0 92.6-14.7 101.8-72.8h15.6l-3 90.1c-44.6-0.5-101.8-1.5-146.3-1.5-59.3 0-107.9 1-125.6 1.6zm304.5-0.1h6.1c27.8 0 38.9-12.6 54.7-54.9l115.9-306.5h9.6l130.2 312.1c12.1 29.5 27.8 49.4 51.1 49.4h10.6v15.3q-8.6-0.5-17.2-0.8-8.6-0.3-17.2-0.5-8.6-0.2-17.2-0.2-8.6-0.1-17.2-0.1c-26.9 0-51.2 0.5-69.9 1.6v-15.3h12.7c16.2 0 25.8-5.6 25.8-16.3 0-7.1-5.1-20.9-7.1-25.5l-37-91.6h-118l-26.8 80.4c-3.5 10.2-8.6 25.5-8.6 36.7 0 9.1 5.1 16.3 20.7 16.3h11.2v15.3q-7.8-0.5-15.6-0.8-7.7-0.3-15.5-0.5-7.8-0.1-15.6-0.2-7.8-0.1-15.6-0.1c-19.2 0-38 0.5-50.1 1.6 0 0 0-15.3 0-15.4zm169.6-292.2l-47.1 139.5h103.8zm523.1 36.2h-8.1c-13.2-26.5-37.5-76.4-133.2-76.4-102.8 0-135.7 95.2-135.7 170 0 121.2 85.6 163 138.2 163 79.5 0 116-45.3 139.8-75.4h3.5v38.7c-17.7 16.8-60.7 58-139.2 58-115 0-192.9-72.7-192.9-175.1 0-98.3 68.3-200.6 188.3-200.6 50.2 0 98.3 15.8 116 21.4 9.6 3.1 19.3 6.6 25.3 7.1 0 0-2 69.3-2 69.3zm45.1 256.1h9c23.3 0 33.5-8.7 33.5-41.8v-248.4c0-33.1-10.2-41.8-33.5-41.8h-9v-15.3c16.2 0.5 73.9 1.6 124.5 1.6 59.8 0 83.6-1.1 119-1.6 1 31.6 2 59.1 4.6 86.6h-14.2c-5.1-35.7-8.6-67.2-98.2-67.2h-48.7v144.1h44.1c61.7 0 63.8-10.7 64.8-40.7h14.2q-0.3 6.2-0.5 12.4-0.2 6.2-0.3 12.5-0.2 6.2-0.2 12.5-0.1 6.2-0.1 12.4c0 19.9 0.6 36.2 1.1 46.4h-14.2c-2.6-25.5-3.1-36.2-60.3-36.2h-48.6v122.2c0 30.6 11.1 38.2 43.5 38.2h13.7c85.1 0 107.4-16.3 115.5-72.8h14.2c-3.6 31.6-6.6 61.1-10.2 92.2-30.4-0.5-84.5-1.6-139.2-1.6-62.8 0-108.4 1.1-124.6 1.6 0 0 0-15.3 0.1-15.3zm-1281.7-431.8h3.4c8 0 9.5-1.9 9.5-14.2v-81.6h-17c-15.9 0-17.8 9.3-18.7 21h-5.1v-27.3q11.8 0.2 23.7 0.3 11.8 0.2 23.7 0.2 11.8 0 23.6-0.2 11.9-0.1 23.7-0.3v27.2h-5c-0.9-11.6-2.9-20.9-18.8-20.9h-17v81.6c0 12.3 1.5 14.2 9.5 14.2h3.4v4.5c-5.6-0.1-12-0.5-19.4-0.5-7.5 0-13.9 0.4-19.6 0.5 0 0 0-4.5 0.1-4.5zm94.5 0h2.7c6.8 0 9.8-2.5 9.8-12.3v-73c0-9.8-3-12.3-9.8-12.3h-2.7v-4.5c5.2 0.1 12.4 0.4 19.1 0.4 6.5 0 12.8-0.3 19.3-0.4v4.5h-4.3c-5.9 0-8.4 1.6-8.4 15.9v27.7h61.4v-27.7c0-14.3-2.5-15.9-8.4-15.9h-4.4v-4.5c6.6 0.1 12.9 0.4 19.4 0.4 6.7 0 13.9-0.3 19.1-0.4v4.5h-2.7c-6.9 0-9.8 2.5-9.8 12.3v73c0 9.8 2.9 12.3 9.8 12.3h2.7v4.5c-5.2-0.1-12.4-0.5-19.1-0.5-6.5 0-12.8 0.4-19.4 0.5v-4.5h4.4c5.9 0 8.4-1.6 8.4-15.9v-31.8h-61.4v31.8c0 14.3 2.5 15.9 8.4 15.9h4.3v4.5c-6.5-0.2-12.7-0.5-19.3-0.5-6.7 0-13.8 0.3-19.1 0.5zm143.7 0h2.7c6.9 0 9.8-2.6 9.8-12.3v-73.1c0-9.7-2.9-12.2-9.8-12.2h-2.7v-4.5c4.8 0.1 21.8 0.4 36.7 0.4 17.5 0 24.5-0.3 34.9-0.4 0.4 9.3 0.6 17.3 1.4 25.4h-4.2c-1.5-10.5-2.5-19.7-28.9-19.7h-14.3v42.3h13c18.2 0 18.8-3.1 19.1-12h4.1q-0.1 3.6-0.2 7.1-0.1 3.5-0.1 7.1 0 3.5 0.1 7.1 0.1 3.5 0.2 7h-4.1c-0.8-7.4-0.9-10.6-17.8-10.6h-14.3v36c0 8.9 3.3 11.2 12.8 11.2h4.1c25 0 31.5-4.8 33.9-21.4h4.2c-1.1 9.3-2 17.9-3 27.1-8.9-0.2-24.9-0.5-40.9-0.5q-4.6 0-9.2 0-4.6 0-9.2 0.1-4.5 0.1-9.1 0.1-4.6 0.1-9.2 0.3zm278.2-75.4h-2.3c-3.9-7.7-11.1-22.4-39.2-22.4-30.2 0-39.9 28-39.9 50 0 35.6 25.2 47.9 40.6 47.9 23.4 0 34.1-13.3 41.1-22.1h1.1v11.3c-5.2 5-17.9 17.1-41 17.1-33.8 0-56.7-21.4-56.7-51.5 0-28.9 20.1-59 55.4-59 14.7 0 28.9 4.6 34.1 6.3 2.8 0.9 5.6 1.9 7.4 2.1 0 0-0.6 20.3-0.6 20.3zm32.9 75.4h2.7c6.9 0 9.8-2.6 9.8-12.3v-73.1c0-9.7-2.9-12.3-9.8-12.3h-2.7v-4.5c5.2 0.2 12.4 0.5 19.1 0.5 6.5 0 12.8-0.3 19.3-0.5v4.5h-4.3c-5.9 0-8.5 1.7-8.5 15.9v27.7h61.5v-27.7c0-14.2-2.5-15.9-8.5-15.9h-4.3v-4.5c6.6 0.2 12.8 0.5 19.4 0.5 6.7 0 13.9-0.3 19-0.5v4.5h-2.6c-6.9 0-9.8 2.6-9.8 12.3v73.1c0 9.7 2.9 12.3 9.8 12.3h2.6v4.4c-5.1-0.1-12.3-0.4-19-0.4-6.6 0-12.8 0.3-19.4 0.4v-4.4h4.4c5.9 0 8.4-1.7 8.4-15.9v-31.9h-61.5v31.9c0 14.2 2.6 15.8 8.5 15.8h4.3v4.5c-6.5-0.1-12.8-0.4-19.3-0.4-6.7 0-13.9 0.3-19.1 0.4zm143.7 0h2.7c6.9 0 9.8-2.5 9.8-12.2v-73.1c0-9.8-2.9-12.3-9.8-12.3h-2.6v-4.5c5.1 0.2 12.3 0.5 19 0.5 6.5 0 12.8-0.3 19.1-0.5v4.5h-2.7c-6.9 0-9.9 2.5-9.9 12.3v73.1c0 9.7 3 12.2 9.9 12.2h2.7v4.5c-6.3-0.1-12.6-0.4-19.1-0.4-6.7 0-13.9 0.3-19.1 0.4zm70.3 0h2.7c6.8 0 9.8-2.5 9.8-12.3v-73c0-9.8-3-12.3-9.8-12.3h-2.7v-4.5c5.2 0.1 12.4 0.4 19.1 0.4 6.5 0 12.8-0.3 19.8-0.4v4.5h-3.4c-6.9 0-9.9 2.5-9.9 12.3v69.6c0 11.2 2.4 15.1 20.7 15.1 24.5 0 27.3-4.3 30-21.4h4.6l-0.9 26.5c-13.1-0.2-29.9-0.5-43.1-0.5-17.4 0-31.7 0.4-36.9 0.5zm112.3 0h2.7c6.8 0 9.8-2.5 9.8-12.3v-73.1c0-9.7-3-12.2-9.8-12.2h-2.7v-4.5c5.2 0.1 12.4 0.4 19.1 0.4 11.9 0 23.9-0.4 35.9-0.4 40.2 0 54.3 32.9 54.3 52.2 0 21.9-14.3 54.4-59.9 54.4-9 0-19.8-0.5-30.4-0.5-6.6 0-13.8 0.3-19 0.5 0 0 0-4.5 0-4.5zm25.6-14.8c0 11.7 4.8 13.6 21.8 13.6 26 0 47.6-11.4 47.6-44.8 0-21.8-13.5-51-50.5-51-6.2 0-12.5 0.6-18.9 1.2 0 0 0 81 0 81zm118.1 14.8h2.7c6.8 0 9.8-2.5 9.8-12.3v-73.1c0-9.7-3-12.2-9.8-12.2h-2.7v-4.5c5.2 0.1 12.4 0.4 19.1 0.4 9.9 0 17.1-0.4 23.7-0.4 26.3 0 31 20.8 31 27.7 0 19.6-13.6 25.6-21.1 28l20 33.2c8.2 13.5 10.5 14.4 22.6 15.1v3.2c-2.8 0-5.5 0.2-8.3 0.2-13.1 0-19.2-1.7-27.1-14.7l-17.4-28.7c-3.5-5.5-5.4-5.8-16.9-6.1v28.3c0 14.2 2.5 15.9 8.5 15.9h4.3v4.5c-6.5-0.2-12.8-0.5-19.3-0.5-6.7 0-13.9 0.3-19.1 0.5 0 0 0-4.5 0-4.5zm25.6-50.9c2.5 0.9 6.3 1 10.1 1 13.5 0 24.5-6.1 24.5-21.7 0-6.6-4.5-24.8-25.2-24.8-3.6 0-6.4 0.3-9.4 0.6zm96.1 50.9h2.7c6.8 0 9.8-2.6 9.8-12.3v-73.1c0-9.7-3-12.2-9.8-12.2h-2.7v-4.5c4.7 0.1 21.7 0.4 36.6 0.4 17.6 0 24.6-0.3 35-0.4 0.3 9.2 0.6 17.3 1.3 25.4h-4.1c-1.5-10.5-2.6-19.7-28.9-19.7h-14.3v42.3h12.9c18.2 0 18.8-3.1 19.1-12h4.2q-0.2 3.5-0.3 7.1 0 3.5 0 7.1 0 3.5 0 7 0.1 3.6 0.3 7.1h-4.2c-0.7-7.4-0.9-10.6-17.7-10.6h-14.3v35.9c0 9 3.3 11.3 12.8 11.3h4c25 0 31.6-4.8 34-21.5h4.1c-1 9.3-1.9 18-2.9 27.1-9-0.1-24.9-0.4-41-0.4-18.5 0-31.9 0.3-36.6 0.4zm113.3 0h2.4c7.9 0 9.2-3.3 9.7-19 0.6-19.7 0.9-48.2 0.9-65.5 0-10.9-3.3-13.1-10.8-13.1h-4.1v-4.5c4 0.2 8.4 0.5 13.1 0.5 4.1 0 8-0.3 11.7-0.5l70.2 86.7h0.3l-0.9-61.4c-0.3-17.2-2.6-20.8-10.6-20.8h-1.8v-4.5c4.6 0.2 10.6 0.5 16.1 0.5 5.4 0 10.7-0.3 16.1-0.5v4.5h-2.4c-4.6 0-8.9 1.7-9.4 16.2l-2.7 87.3h-4.4l-73.9-91.1h-0.3c0 23.3 0.3 46.3 0.9 69.5 0.3 12.3 2.7 15.7 9.7 15.7h3v4.5c-5-0.1-10.9-0.4-16.4-0.4-5.7 0-11.8 0.3-16.4 0.4zm145.6-68.1c3.6-3.8 8.7-9.3 8.7-16.5q0-1.9-0.5-3.8-0.4-1.8-1.3-3.6-0.9-1.7-2.1-3.1-1.3-1.5-2.8-2.7l11.3-6.2c1.5 2.4 4.3 7.3 4.3 13.8 0 7.7-3 14-13.8 23.6 0 0-3.8-1.5-3.8-1.5zm121.1-6.7h-5.1c-0.1-4.8-1.3-23.5-23.8-23.5-12.4 0-20.2 7.9-20.2 17.6 0 8.7 4.4 14.9 16.8 20.5l13.7 6.3c10.7 5 22.2 13 22.2 28 0 18.7-12.2 32.3-37.1 32.3-2.4 0-15.3-0.1-26.7-3.7l-0.6-24.5h4.5c1.2 13.7 12.7 23.2 25.3 23.2 12.8 0 23.9-7.8 23.9-20.4 0-13.2-10.3-18.3-18.7-22.3l-16.1-7.6c-11.3-5.4-19.2-13.5-19.2-25.8 0-15.4 13.1-29.3 33.3-29.3 9.4 0 18.5 2.2 27.8 4z"/>
	</g>
</svg>