<svg version="1.2" baseProfile="tiny-ps" xmlns="http://www.w3.org/2000/svg" viewBox="0 0 1569 494" width="1569" height="494">
	<title>p13logoretina-svg</title>
	<style>
		tspan { white-space:pre }
		.shp0 { fill: #ed1f24 } 
		.shp1 { fill: #040707 } 
	</style>
	<g id="#ed1f24ff">
		<path id="Layer" class="shp0" d="M1221.84 21.78C1258.46 5.54 1299.08 -1.64 1339.04 1.28C1380.36 4.21 1420.84 17.79 1455.6 40.3C1480.51 56.37 1502.48 76.99 1520.07 100.86C1543.7 132.9 1559.4 170.72 1565.48 210.06C1571.85 250.93 1567.6 293.36 1553.38 332.19C1541.69 364.31 1523.27 393.97 1499.62 418.64C1457.52 462.68 1398.5 490.47 1337.6 493.81C1373.51 489.02 1408.11 475.28 1438.13 455.08C1465.45 436.6 1488.84 412.35 1506.38 384.42C1527.98 350.16 1540.74 310.4 1543.02 269.97C1545.23 232.17 1538.15 193.91 1522.82 159.3C1509.34 128.67 1489.34 100.92 1464.5 78.49C1437.14 53.71 1403.98 35.41 1368.46 25.41C1329.06 14.22 1286.77 13.41 1247 23.2C1206.06 33.13 1167.9 54.04 1137.47 83.17C1160.75 56.96 1189.76 35.89 1221.84 21.78Z" />
	</g>
	<g id="#040707ff">
		<path id="Layer" class="shp1" d="M1016.37 101.31C1025.1 101.31 1033.83 101.31 1042.56 101.31C1042.57 133.79 1042.56 166.27 1042.57 198.75C1058.54 198.75 1074.52 198.74 1090.49 198.75C1090.5 206.19 1090.5 213.62 1090.5 221.06C1074.58 221.07 1058.67 221.06 1042.75 221.07C1042.75 246.71 1042.75 272.35 1042.76 298C1042.82 306.34 1042.21 314.8 1044.01 323.02C1046.41 335.64 1053.58 347.41 1064.05 354.91C1075.72 361.17 1090.2 359.71 1101.55 353.42C1104.16 360.64 1106.82 367.83 1109.64 374.97C1098.55 379.1 1086.89 382.3 1074.97 382.14C1062.54 381.98 1050.24 377.3 1040.94 369.04C1025.14 355.08 1016.39 334.02 1016.41 313.05C1016.32 242.47 1016.4 171.89 1016.37 101.31Z" />
		<path id="Layer" class="shp1" d="M251.25 102.25C259.96 102.24 268.66 102.25 277.37 102.25C277.38 195.48 277.37 288.71 277.37 381.94C268.66 381.94 259.96 381.94 251.25 381.94C251.25 288.71 251.24 195.48 251.25 102.25Z" />
		<path id="Layer" class="shp1" d="M1351.32 106.2C1371.72 101.57 1393.88 104.47 1412.11 114.87C1425.16 122.04 1435.99 133.23 1442.4 146.69C1451.44 164.77 1451.37 187.5 1440.92 204.98C1434.55 215.8 1424.66 224.05 1414 230.42C1427.09 235.69 1438.93 244.23 1447.48 255.52C1455.37 265.53 1461.93 277.15 1463.52 289.99C1466.25 322.81 1447.89 356.31 1419.02 372.09C1400.69 382.41 1378.96 385.57 1358.22 383.26C1341.92 381.48 1325.98 375.24 1313.43 364.59C1295.28 349.6 1285.69 326.8 1281.52 304.13C1290.42 304.12 1299.33 304.12 1308.24 304.12C1312.51 319.39 1318.86 335.26 1331.93 345.1C1348.11 357.76 1370.3 359.66 1389.83 355.43C1412.92 350.54 1432.45 330.93 1436.21 307.49C1437.39 299.17 1437.71 290.37 1434.55 282.42C1430.56 272.13 1423.74 262.64 1414.28 256.75C1407.87 252.7 1400.47 250.62 1393.11 249.15C1381.29 246.82 1369.25 245.86 1357.25 245.16C1357.24 236.75 1357.24 228.34 1357.25 219.93C1374.64 219.84 1392.78 215.56 1406.49 204.39C1419.13 194.02 1423.89 175.42 1417.85 160.24C1411.81 145.03 1397.04 134.01 1381 131.48C1367.02 129.1 1351.71 131.45 1340.33 140.32C1329.36 148.8 1323.2 161.74 1318.33 174.37C1309.06 174.37 1299.78 174.38 1290.51 174.37C1293.97 159.37 1299.87 144.66 1309.62 132.61C1320.12 119.56 1334.95 109.94 1351.32 106.2Z" />
		<path id="Layer" class="shp1" d="M1161.33 135.53C1166.81 126.66 1172.23 117.75 1177.71 108.87C1195.55 108.88 1213.4 108.87 1231.25 108.88C1231.25 199.77 1231.25 290.66 1231.25 381.55C1222.23 381.57 1213.21 381.56 1204.19 381.56C1204.18 299.57 1204.19 217.57 1204.18 135.57C1189.9 135.54 1175.61 135.61 1161.33 135.53Z" />
		<path id="Layer" fill-rule="evenodd" class="shp1" d="M381.58 176.54C400.44 169.69 421.2 168.69 440.85 172.36C461.17 176.19 479.93 186.93 494.04 201.97C509.36 217.67 519.94 238.09 522.94 259.89C524.86 272.5 523.94 285.28 524.24 297.98C524.18 326.34 524.58 354.7 524.17 383.06C515.03 383.06 505.89 383.06 496.75 383.06C496.76 367.84 496.72 352.63 496.78 337.42C490.23 349.45 480.7 359.9 468.99 367.06C456.63 374.76 442.4 378.96 428.07 381.05C415.28 383.23 402.13 381.65 389.61 378.6C372.31 374.23 356.42 364.73 344.16 351.78C329.65 336.76 319.13 317.67 315.51 297.01C311.4 273.57 314.3 248.61 325.31 227.37C337.23 204.53 357.2 185.45 381.58 176.54ZM405.56 196.77C383.73 200.18 364.77 214.54 352.88 232.8C343.99 246.4 339.87 262.82 340.29 279C340.54 294.78 345.88 310.29 354.65 323.36C363.85 336.61 377.39 346.27 391.76 353.25C413.72 359.17 438.92 356.49 457.26 342.27C472.19 331.01 482.29 314.61 489.59 297.66C491.11 293.88 493.21 290.17 493.22 285.99C493.8 270.34 492.22 254.44 487.31 239.52C481.09 226.67 471.13 215.71 459.37 207.69C443.78 197.09 424 193.72 405.56 196.77Z" />
		<path id="Layer" fill-rule="evenodd" class="shp1" d="M854.01 174.17C873.52 168.91 894.46 168.99 913.99 174.11C941.25 181.25 964.15 201.38 976.81 226.29C984.84 242.33 988.08 260.41 988.16 278.25C927.82 278.26 867.48 278.24 807.15 278.26C807.5 293.74 811.06 309.42 819.27 322.69C828.84 338.19 843.87 350.64 861.54 355.63C879.14 360.56 898.32 359.09 915.2 352.23C925.74 348 935.68 341.83 943.27 333.3C949.62 326.23 954.86 318.25 959.81 310.16C967.06 314.03 974.32 317.9 981.57 321.79C975.59 333.74 968.16 345.13 958.44 354.39C943.79 368.43 924.76 377.81 904.67 380.72C888.56 383.03 871.97 382.59 856.11 378.87C839.22 374.89 823.4 366.16 811.48 353.49C800.31 341.53 791.34 327.37 786.08 311.82C779.7 292.94 778.89 272.34 782.94 252.87C787.18 232.59 797.8 213.92 812.17 199.1C823.59 187.28 838.14 178.51 854.01 174.17ZM830.74 216.71C820.23 227.48 814.07 241.65 809.94 255.94C859.89 255.93 909.84 255.94 959.78 255.93C955.82 239.7 948.38 223.54 934.95 213.01C918.53 199.78 896.83 193.38 875.86 195.55C858.94 197.02 842.69 204.65 830.74 216.71Z" />
		<path id="Layer" fill-rule="evenodd" class="shp1" d="M59.15 181.13C81.56 170.96 107.34 168.34 131.34 173.75C153.46 178.75 173.04 192.23 187.33 209.62C199.04 223.65 206.89 240.87 209.56 258.97C213.25 283.87 209.26 310.36 195.98 331.99C182.14 354.43 160.34 372.61 134.61 379.42C115.22 384.47 94.33 384.03 75.25 377.87C55.95 371.73 39.45 358.84 26.75 343.29C26.75 380.76 26.76 418.22 26.75 455.69C18.17 455.69 9.59 455.68 1.01 455.69C1.02 392.13 0.94 328.56 1.05 264.99C2.64 249.32 8.14 234.24 15.28 220.28C17.48 216.24 19.38 211.95 22.48 208.5C32.87 197.23 45.14 187.5 59.15 181.13ZM92.51 196.72C60.97 200.75 34 226.44 27.19 257.3C22.49 278.61 24.92 301.96 36.15 320.92C50.75 345.93 80.29 360.67 108.98 359.15C130.01 358.15 150.43 348.09 164.11 332.1C175.1 319.12 182.39 302.89 184.22 285.95C187.75 255.49 172.5 223.64 146.32 207.6C130.47 197.58 110.97 194.11 92.51 196.72Z" />
		<path id="Layer" class="shp1" d="M613.6 183.72C631.06 176.49 650.25 174.38 669.01 175.19C686.72 176.01 704.13 182.88 717.55 194.47C727.66 203.2 734.69 215.24 737.75 228.2C742.83 249.39 742.48 271.35 742.5 292.99C742.5 322.64 742.5 352.28 742.5 381.93C733.9 381.95 725.29 381.94 716.69 381.94C716.68 353.96 716.69 325.98 716.69 298C716.68 282.94 716.82 267.86 715.67 252.84C714.71 238.79 711.05 223.61 700.03 213.98C689.27 204.91 674.55 203.11 661 202.44C646.27 201.52 631.11 204.57 618.54 212.51C609.73 217.78 601.97 225.53 598.66 235.44C596.55 241.06 596.37 247.1 596.23 253.02C592.51 275.12 593.01 297.63 592.88 319.96C592.88 340.62 592.88 361.28 592.88 381.94C584.17 381.94 575.46 381.94 566.75 381.94C566.72 355.62 566.8 329.31 566.71 302.99C566.69 287.73 565.31 272.36 567.62 257.19C569.55 242.05 572.56 226.62 580.3 213.27C584.15 206.38 590.11 201.06 595.93 195.88C601.4 191.28 607.12 186.81 613.6 183.72Z" />
		<path id="Layer" class="shp1" d="M401.62 421.67C405.97 416.91 413.55 415.84 419.21 418.79C422.75 420.54 425.2 423.74 427.65 426.73C426.05 427.93 424.45 429.14 422.85 430.35C420.66 427.85 418.59 424.91 415.32 423.78C411.71 422.48 407.01 423.56 405.11 427.12C403.19 430.6 404.59 435 407.38 437.58C413.6 443.39 421.65 447.32 426.62 454.42C431.07 461.31 427.56 470.9 420.68 474.72C414.62 478.33 406.33 477.6 400.93 473.09C398.13 470.83 396.26 467.7 394.38 464.7C396.03 463.68 397.69 462.67 399.35 461.67C401.53 465.01 403.78 468.68 407.57 470.39C413.58 473.25 421.98 468.89 422.23 461.99C422.47 456.37 417.7 452.37 413.36 449.66C408.76 446.74 404.15 443.54 400.8 439.18C397.06 434.07 397.23 426.34 401.62 421.67Z" />
		<path id="Layer" class="shp1" d="M830.7 421.75C839.59 416.25 851 415.69 860.76 419.1C866.2 420.95 870.88 424.44 875.13 428.25C873.62 429.69 872.1 431.13 870.59 432.58C864.03 426.38 855.11 422.07 845.91 423C835.4 423.94 825.69 431.63 823.1 441.98C821.14 450.09 824.64 458.83 830.66 464.36C838.79 471.73 851.7 473.67 861.43 468.4C867.14 465.36 870.88 459.56 872.06 453.29C865.83 453.21 859.6 453.27 853.38 453.25C853.36 451.35 853.36 449.45 853.38 447.56C861.77 447.56 870.16 447.55 878.56 447.57C878.4 455.44 876.15 463.69 870.28 469.27C863.46 476.09 853.14 477.87 843.88 476.66C835.71 475.81 827.95 471.61 822.91 465.1C816.73 457.57 814.8 446.91 817.68 437.64C819.79 430.93 824.73 425.35 830.7 421.75Z" />
		<path id="Layer" class="shp1" d="M1076.99 429.89C1077.16 421.88 1085.45 415.96 1093.12 417.28C1098.93 417.84 1103.11 422.35 1106.46 426.72C1104.85 427.93 1103.26 429.14 1101.68 430.36C1099.65 428.06 1097.77 425.43 1094.93 424.1C1091.21 422.37 1086.04 423.28 1083.96 427.06C1081.95 430.58 1083.43 435.09 1086.29 437.67C1092.53 443.46 1100.58 447.4 1105.51 454.53C1109.51 460.91 1106.82 469.73 1100.81 473.84C1094.75 478.38 1085.64 477.95 1079.84 473.18C1076.99 470.9 1075.08 467.74 1073.19 464.69C1074.84 463.68 1076.51 462.68 1078.18 461.68C1080.84 466.03 1084.36 471.06 1090 471.25C1096.34 471.78 1102.7 465.57 1100.72 459.11C1098.44 451.83 1090.45 449.41 1085.22 444.77C1080.56 441.27 1076.35 436.08 1076.99 429.89Z" />
		<path id="Layer" class="shp1" d="M173.25 418C175.2 418 177.16 417.99 179.12 418C179.13 435.54 179.12 453.08 179.13 470.62C186.59 470.62 194.04 470.62 201.5 470.63C201.5 472.51 201.5 474.41 201.5 476.31C192.08 476.31 182.66 476.32 173.25 476.31C173.25 456.87 173.25 437.44 173.25 418Z" />
		<path id="Layer" fill-rule="evenodd" class="shp1" d="M296.62 419.56C296.72 418.34 298.58 417.08 299.12 418.71C308.17 437.86 317.02 457.11 325.99 476.31C323.89 476.3 321.8 476.31 319.7 476.31C316.65 469.92 313.6 463.53 310.57 457.13C302.21 457.12 293.84 457.12 285.48 457.13C282.47 463.53 279.46 469.93 276.42 476.32C274.22 476.31 272.02 476.31 269.83 476.31C278.75 457.39 287.7 438.48 296.62 419.56ZM288.11 451.5C294.72 451.5 301.33 451.5 307.94 451.5C304.67 444.49 301.4 437.48 298.11 430.49C294.76 437.48 291.44 444.49 288.11 451.5Z" />
		<path id="Layer" class="shp1" d="M583.97 418.31C586.1 418.3 588.25 418.31 590.39 418.32C596.79 433.3 603.21 448.27 609.62 463.25C616.19 448.28 622.69 433.28 629.24 418.31C631.38 418.3 633.53 418.31 635.68 418.32C627.05 437.96 618.7 457.74 609.87 477.29C609.01 476.02 608.15 474.76 607.53 473.37C599.73 454.99 591.81 436.67 583.97 418.31Z" />
		<path id="Layer" class="shp1" d="M709.63 418.19C720.77 418.18 731.91 418.18 743.06 418.19C743.06 420.1 743.05 422.02 743.06 423.94C733.87 423.95 724.69 423.93 715.5 423.95C715.5 430 715.5 436.06 715.51 442.12C721.11 442.12 726.71 442.11 732.31 442.13C732.31 444.04 732.31 445.95 732.31 447.87C726.71 447.88 721.11 447.87 715.51 447.88C715.5 455.48 715.5 463.08 715.5 470.68C724.6 470.69 733.71 470.68 742.81 470.69C742.81 472.62 742.8 474.55 742.81 476.5C731.75 476.5 720.69 476.5 709.63 476.5C709.62 457.06 709.62 437.62 709.63 418.19Z" />
		<path id="Layer" fill-rule="evenodd" class="shp1" d="M975.92 418.67C976.46 417.11 978.26 418.33 978.37 419.54C987.18 438.46 996 457.38 1004.8 476.31C1002.69 476.3 1000.6 476.31 998.52 476.32C995.46 469.93 992.42 463.54 989.39 457.14C981.02 457.11 972.66 457.13 964.3 457.13C961.27 463.52 958.27 469.92 955.24 476.32C953.03 476.31 950.83 476.31 948.64 476.31C957.74 457.1 966.73 437.83 975.92 418.67ZM976.91 430.49C973.57 437.49 970.24 444.49 966.93 451.5C973.53 451.5 980.14 451.5 986.75 451.5C983.47 444.49 980.21 437.48 976.91 430.49Z" />
	</g>
</svg>