<svg version="1.2" baseProfile="tiny-ps" xmlns="http://www.w3.org/2000/svg" viewBox="0 0 1653 270" width="1653" height="270">
	<title>Q3-2021-Supplemental-vF-1-pdf-svg</title>
	<defs>
		<clipPath clipPathUnits="userSpaceOnUse" id="cp1">
			<path d="M-721.11 -418.88L2371.59 -418.88L2371.59 3578.13L-721.11 3578.13L-721.11 -418.88Z" />
		</clipPath>
		<clipPath clipPathUnits="userSpaceOnUse" id="cp2">
			<path d="M3.75 0.86L1652.89 0.86L1652.89 269.29L3.75 269.29L3.75 0.86Z" />
		</clipPath>
	</defs>
	<style>
		tspan { white-space:pre }
		.shp0 { fill: #2c2e35 } 
		.shp1 { fill: #c01e35 } 
		.shp2 { fill: none;stroke: #9b9c9f;stroke-width: 11.337 } 
		.shp3 { fill: #ffffff } 
	</style>
	<g id="Clip-Path: Page 1" clip-path="url(#cp1)">
		<g id="Page 1">
			<path id="Path 1" fill-rule="evenodd" class="shp0" d="M1329.01 87.79C1352.36 87.79 1363.48 96.72 1363.48 117.44C1363.48 132.68 1356.33 142.42 1343.54 145.17L1368.13 186.3L1344.81 186.3L1323.13 147.62L1298.67 147.62L1298.67 186.3L1277.92 186.3L1277.92 87.79L1329.01 87.79ZM1298.67 105.38L1298.67 130.21L1324.06 130.21C1336.44 130.21 1342.48 127.71 1342.48 117.71C1342.48 107.6 1336.44 105.38 1324.06 105.38L1298.67 105.38ZM1418.84 127.86L1476.25 127.86L1476.25 145.02L1418.71 145.02C1418.84 162.71 1425.81 169.14 1442.19 169.14L1476.25 169.14L1476.25 186.3L1441.25 186.3C1429.25 186.3 1420.05 185.34 1410.42 177.67C1400.29 169.57 1395.31 156.68 1395.31 138.86C1395.31 104.01 1410.02 87.79 1441.78 87.79L1476.25 87.79L1476.25 104.95L1442.19 104.95C1427.2 104.95 1419.65 112.37 1418.84 127.86ZM1515.11 87.79L1536.84 87.79L1536.84 186.3L1515.11 186.3L1515.11 87.79ZM1567.59 105.1L1567.59 87.96L1652.89 87.96L1652.89 105.1L1620.87 105.1L1620.87 186.3L1599.47 186.3L1599.47 105.1L1567.59 105.1Z" />
			<path id="Path 2" fill-rule="evenodd" class="shp1" d="M223.15 125.81C223.15 105.58 223.15 101.92 222.84 97.78C222.56 93.36 221.4 91.3 216.65 90.39C215.49 90.13 213.04 89.98 211.75 89.98C211.17 89.98 210.59 89.73 210.59 89.23C210.59 88.44 211.29 88.17 212.89 88.17C219.38 88.17 228.05 88.57 229.21 88.57C232.39 88.57 240.76 88.17 247.4 88.17C265.47 88.17 271.96 93.62 274.26 95.56C277.44 98.29 281.49 104.14 281.49 111C281.49 129.45 266.48 141.91 245.96 141.91C245.25 141.91 243.64 141.91 242.93 141.79C242.2 141.79 241.34 141.54 241.34 140.88C241.34 139.84 242.2 139.72 245.25 139.72C259.25 139.72 270.22 130.48 270.22 118.55C270.22 114.26 269.79 105.58 262.13 98.56C254.48 91.55 245.66 92.08 242.35 92.08C239.9 92.08 237.45 92.33 236.13 92.86C235.27 93.11 234.97 94.02 234.97 95.31L234.97 148.68C234.97 161.12 234.97 171.39 235.7 176.84C236.13 180.6 236.99 183.45 241.34 183.98C243.36 184.23 246.54 184.51 247.86 184.51C248.72 184.51 248.99 184.89 248.99 185.27C248.99 185.92 248.29 186.33 246.69 186.33C238.73 186.33 229.64 185.92 228.91 185.92C228.5 185.92 219.38 186.33 215.06 186.33C213.47 186.33 212.74 186.05 212.74 185.27C212.74 184.89 213.04 184.51 213.9 184.51C215.21 184.51 216.93 184.23 218.22 183.98C221.12 183.45 221.86 180.6 222.44 176.84C223.15 171.39 223.15 161.12 223.15 148.68L223.15 125.81ZM344.6 125.81C344.6 105.58 344.6 101.92 344.91 97.78C345.19 93.24 346.35 91.04 350.54 90.39C352.29 90.13 354.31 89.98 355.29 89.98C355.87 89.98 356.45 89.73 356.45 89.23C356.45 88.44 355.75 88.17 354.13 88.17C349.81 88.17 339.27 88.57 338.54 88.57C337.83 88.57 328.71 88.17 322.24 88.17C320.63 88.17 319.92 88.44 319.92 89.23C319.92 89.73 320.5 89.98 321.08 89.98C322.37 89.98 324.82 90.13 325.98 90.39C330.73 91.3 331.9 93.36 332.2 97.78C332.48 101.92 332.48 105.58 332.48 125.81L332.48 148.65C332.48 161.12 332.48 171.39 331.77 176.84C331.19 180.6 330.45 183.45 327.57 183.98C326.29 184.23 324.54 184.51 323.23 184.51C322.37 184.51 322.09 184.89 322.09 185.27C322.09 186.05 322.8 186.33 324.39 186.33C326.56 186.33 329.75 186.17 332.63 186.05C335.51 186.05 337.96 185.92 338.54 185.92C342.73 185.92 347.21 186.05 353.27 186.33C359.34 186.45 366.86 186.7 377.25 186.7C384.93 186.7 385.34 186.17 386.37 183.2C387.51 179.44 388.52 171.64 388.52 170.2C388.52 168.79 388.39 168.26 387.66 168.26C386.78 168.26 386.5 168.91 386.37 169.95C385.92 172.42 384.48 175.68 382.61 177.75C379.14 181.51 372.78 181.63 365.12 181.63C353.85 181.63 350.09 180.72 347.79 178.65C345.19 176.31 344.6 168.01 344.6 148.93L344.6 125.81ZM447.59 163.84C447.59 165.94 447.59 171.39 447.16 176.84C446.86 180.6 445.57 183.45 442.69 183.98C441.38 184.23 439.63 184.51 438.35 184.51C437.49 184.51 437.21 184.89 437.21 185.27C437.21 186.05 437.92 186.33 439.51 186.33C443.85 186.33 452.92 185.92 453.66 185.92C454.37 185.92 463.49 186.33 471.42 186.33C473.01 186.33 473.72 185.92 473.72 185.27C473.72 184.89 473.44 184.51 472.58 184.51C471.29 184.51 468.11 184.23 466.09 183.98C461.74 183.45 460.45 180.6 460.15 176.84C459.72 171.39 459.72 165.94 459.72 163.84L459.72 152.69C459.72 148.4 459.72 144.39 461.89 139.69C464.5 134.12 484.71 103.61 489.49 98.41C492.67 94.9 494.24 93.36 497.12 91.8C499.44 90.51 502.2 89.98 503.76 89.98C504.92 89.98 505.66 89.6 505.66 88.95C505.66 88.42 504.8 88.17 503.76 88.17C501.03 88.17 490.65 88.54 489.76 88.54C488.63 88.54 484 88.17 480.24 88.17C478.8 88.17 477.94 88.42 477.94 88.95C477.94 89.6 478.8 89.86 480.09 90.24C481.83 90.64 482.39 92.05 482.39 93.87C482.39 95.56 481.83 97.78 479.96 100.48C477.05 104.77 458.71 133.21 455.98 138.66C453.38 134.9 431.7 101.41 429.4 97.65C428.24 95.69 427.51 94.15 427.51 92.58C427.51 91.55 428.24 90.77 429.4 90.24C430.69 89.73 431.55 89.6 431.55 89.07C431.55 88.54 431.27 88.17 429.68 88.17C424.04 88.17 418.56 88.54 417.55 88.54C416.82 88.54 406 88.17 403.25 88.17C401.96 88.17 401.38 88.54 401.38 89.07C401.38 89.73 402.09 89.98 402.82 89.98C404.11 89.98 406.86 90.77 409.04 92.05C411.64 93.62 415.25 96.87 418.84 101.67C423.92 108.4 443.27 136.97 444.26 139.06C446.15 142.82 447.59 145.67 447.59 152.69L447.59 163.84ZM641.42 89.86C641.14 87.38 640.69 86.35 639.7 86.35C638.69 86.35 638.08 87.26 637.53 88.42L595.05 169.95L550.86 88.29C550.15 86.88 549.57 86.35 548.69 86.35C547.83 86.35 547.25 87.26 547.1 88.7L536.71 173.33C536.13 178.25 535.7 183.32 530.92 184.1C528.78 184.48 527.74 184.48 526.58 184.48C525.87 184.48 525.14 184.76 525.14 185.14C525.14 186.05 526.17 186.33 527.61 186.33C531.51 186.33 538.43 185.92 539.74 185.92C540.91 185.92 547.83 186.33 553.16 186.33C554.9 186.33 555.76 186.05 555.76 185.14C555.76 184.76 555.18 184.48 554.6 184.48C553.74 184.48 551.59 184.36 549.12 183.83C546.97 183.45 545.38 181.76 545.38 179.81C545.38 177.62 545.38 175.27 545.53 173.2L551.29 112.97L551.87 112.97C553.46 116.45 569.63 147.62 570.95 149.96C571.66 151.25 584.06 173.71 587.83 180.09C590.58 184.76 591.29 186.05 592.32 186.05C593.61 186.05 594.04 184.89 597.07 179.18L632.47 111.66L632.88 111.66L639.83 178.65C640.13 181 639.98 183.2 639.24 183.32C638.54 183.45 638.23 183.73 638.23 184.23C638.23 184.89 638.97 185.27 642.28 185.52C647.63 185.92 663.22 186.33 666.41 186.33C668.15 186.33 669.44 185.92 669.44 185.14C669.44 184.61 669.01 184.48 668.28 184.48C666.84 184.48 663.1 184.48 658.9 183.32C652.69 181.51 651.68 174.24 651.1 169.57L641.42 89.86ZM697.61 137.09C697.61 160.46 714.06 188.12 753.65 188.12C788.45 188.12 811.26 164.12 811.26 135.03C811.26 104.77 787.01 86.35 754.51 86.35C714.64 86.35 697.61 116.07 697.61 137.09ZM711.31 133.49C711.31 105.05 729.37 90.77 753.5 90.77C776.32 90.77 797.39 107.5 797.39 138.66C797.39 176.43 770.53 183.2 757.55 183.2C731.55 183.2 711.31 163.72 711.31 133.49ZM856.62 144.79C856.62 163.72 862.1 172.8 869.18 178.91C879.43 187.61 894.04 188.14 898.94 188.14C907.46 188.14 918.3 186.83 928.71 178.53C940.25 169.29 941.97 153.72 941.97 139.72L941.97 125.81C941.97 105.58 941.97 101.92 942.27 97.78C942.55 93.24 943.71 91.17 947.61 90.39C949.35 90.13 950.21 89.98 951.22 89.98C951.8 89.98 952.38 89.73 952.38 89.23C952.38 88.44 951.65 88.17 950.08 88.17C945.74 88.17 938.96 88.57 937.93 88.57C937.07 88.57 929.11 88.17 922.64 88.17C921.02 88.17 920.32 88.44 920.32 89.23C920.32 89.73 920.9 89.98 921.48 89.98C922.77 89.98 925.22 90.13 926.38 90.39C931.13 91.3 932.32 93.36 932.6 97.78C932.87 101.92 932.87 105.58 932.87 125.81L932.87 142.04C932.87 155.41 931.13 166.44 924.51 173.86C919.31 179.44 910.64 183.2 901.82 183.2C893.58 183.2 887.09 182.04 880.02 176.06C873.83 170.73 869.18 162.68 869.18 143.98L869.18 125.81C869.18 105.58 869.18 101.92 869.48 97.78C869.76 93.24 870.92 90.89 874.84 90.39C876.55 90.13 877.41 89.98 878.42 89.98C879.01 89.98 879.59 89.73 879.59 89.23C879.59 88.44 878.85 88.17 877.29 88.17C872.94 88.17 864.27 88.57 862.99 88.57C861.67 88.57 852.85 88.17 846.36 88.17C844.77 88.17 844.06 88.44 844.06 89.23C844.06 89.73 844.64 89.98 845.22 89.98C846.51 89.98 848.96 90.13 850.12 90.39C854.88 91.3 856.04 93.36 856.32 97.78C856.62 101.92 856.62 105.58 856.62 125.81L856.62 144.79ZM1034.42 93.74L1052.62 94.02C1066.49 94.27 1069.95 97.25 1070.38 101.16L1070.53 102.57C1070.68 104.39 1070.96 104.77 1071.67 104.77C1072.25 104.77 1072.7 104.27 1072.7 103.08C1072.7 101.67 1073.13 92.71 1073.13 88.82C1073.13 88.04 1073.13 87.26 1072.4 87.26C1071.82 87.26 1070.53 87.66 1068.36 87.91C1066.06 88.29 1062.72 88.54 1058.1 88.54L1003.95 88.54C1002.21 88.54 996.72 88.29 992.53 87.91C988.64 87.66 987.2 86.35 986.16 86.35C985.61 86.35 985.03 88.04 984.72 88.82C984.45 89.86 981.56 101.01 981.56 102.32C981.56 103.08 981.84 103.48 982.27 103.48C982.85 103.48 983.28 103.23 983.71 102.2C984.14 101.29 984.6 100.38 986.16 98.16C988.49 95.06 991.95 94.15 1000.89 94.02L1022.27 93.74L1022.27 148.65C1022.27 161.12 1022.27 171.39 1021.56 176.84C1020.98 180.6 1020.25 183.45 1017.37 183.98C1016.08 184.23 1014.34 184.51 1013.05 184.51C1012.16 184.51 1011.89 184.89 1011.89 185.27C1011.89 186.05 1012.62 186.33 1014.18 186.33C1018.53 186.33 1027.63 185.92 1028.36 185.92C1029.07 185.92 1038.16 186.33 1046.12 186.33C1047.69 186.33 1048.45 185.92 1048.45 185.27C1048.45 184.89 1048.14 184.51 1047.28 184.51C1045.97 184.51 1042.79 184.23 1040.77 183.98C1036.44 183.45 1035.56 180.6 1035.16 176.84C1034.42 171.39 1034.42 161.12 1034.42 148.65L1034.42 93.74ZM1209.47 125.81C1209.47 105.55 1209.47 101.92 1209.78 97.78C1210.06 93.24 1211.22 91.02 1215.11 90.36C1216.83 90.13 1217.71 89.98 1218.7 89.98C1219.28 89.98 1219.86 89.73 1219.86 89.23C1219.86 88.42 1219.15 88.17 1217.56 88.17C1213.21 88.17 1204.12 88.54 1203.41 88.54C1202.68 88.54 1193.58 88.17 1187.09 88.17C1185.5 88.17 1184.76 88.42 1184.76 89.23C1184.76 89.73 1185.34 89.98 1185.93 89.98C1187.24 89.98 1189.69 90.13 1190.83 90.36C1195.6 91.3 1196.77 93.36 1197.04 97.78C1197.35 101.92 1197.35 105.55 1197.35 125.81L1197.35 128.54C1197.35 129.2 1196.92 129.32 1196.49 129.32L1135.24 129.32C1134.81 129.32 1134.36 129.2 1134.36 128.54L1134.36 125.81C1134.36 105.55 1134.36 101.92 1134.63 97.78C1134.96 93.24 1136.1 91.02 1139.99 90.36C1141.73 90.13 1142.59 89.98 1143.6 89.98C1144.18 89.98 1144.77 89.73 1144.77 89.23C1144.77 88.42 1144.03 88.17 1142.44 88.17C1138.12 88.17 1129.02 88.54 1128.29 88.54C1127.58 88.54 1118.46 88.17 1111.97 88.17C1110.38 88.17 1109.67 88.42 1109.67 89.23C1109.67 89.73 1110.25 89.98 1110.83 89.98C1112.12 89.98 1114.57 90.13 1115.73 90.36C1120.51 91.3 1121.67 93.36 1121.95 97.78C1122.23 101.92 1122.23 105.55 1122.23 125.81L1122.23 148.65C1122.23 161.12 1122.23 171.39 1121.52 176.84C1120.94 180.6 1120.21 183.45 1117.3 183.98C1116.04 184.23 1114.29 184.51 1112.98 184.51C1112.12 184.51 1111.82 184.89 1111.82 185.27C1111.82 186.05 1112.55 186.33 1114.14 186.33C1118.46 186.33 1127.58 185.92 1128.29 185.92C1129.02 185.92 1138.12 186.33 1146.05 186.33C1147.65 186.33 1148.38 185.92 1148.38 185.27C1148.38 184.89 1148.08 184.51 1147.22 184.51C1145.93 184.51 1142.74 184.23 1140.72 183.98C1136.4 183.45 1135.52 180.6 1135.09 176.84C1134.36 171.39 1134.36 161.12 1134.36 148.65L1134.36 135.03C1134.36 134.39 1134.81 134.27 1135.24 134.27L1196.49 134.27C1196.92 134.27 1197.35 134.52 1197.35 135.03L1197.35 148.65C1197.35 161.12 1197.35 171.39 1196.61 176.84C1196.03 180.6 1195.32 183.45 1192.44 183.98C1191.13 184.23 1189.39 184.51 1188.07 184.51C1187.24 184.51 1186.94 184.89 1186.94 185.27C1186.94 186.05 1187.67 186.33 1189.24 186.33C1193.58 186.33 1202.68 185.92 1203.41 185.92C1204.12 185.92 1213.21 186.33 1221.17 186.33C1222.77 186.33 1223.47 185.92 1223.47 185.27C1223.47 184.89 1223.19 184.51 1222.34 184.51C1221.02 184.51 1217.86 184.23 1215.82 183.98C1211.5 183.45 1210.61 180.6 1210.18 176.84C1209.47 171.39 1209.47 161.12 1209.47 148.65L1209.47 125.81ZM141.63 58.14L8.88 58.14L8.88 216.23L141.63 216.23L141.63 58.14Z" />
			<g id="Clip-Path: Mask" clip-path="url(#cp2)">
				<g id="Mask">
					<path id="Path 4" class="shp2" d="M147.07 216.3L9.41 216.3L9.41 56.67L147.07 56.67L147.07 216.3Z" />
				</g>
			</g>
			<path id="Path 6" class="shp3" d="M56.28 127.05C56.28 108.68 56.28 105.4 56.03 101.62C55.75 97.63 54.71 95.74 50.39 94.9C49.33 94.68 47.11 94.55 45.92 94.55C45.42 94.55 44.89 94.32 44.89 93.84C44.89 93.14 45.54 92.91 46.98 92.91C52.87 92.91 60.73 93.26 61.79 93.26C64.67 93.26 72.27 92.91 78.29 92.91C94.66 92.91 100.57 97.86 102.67 99.62C105.55 102.1 109.22 107.39 109.22 113.63C109.22 130.36 95.6 141.66 76.97 141.66C76.32 141.66 74.88 141.66 74.22 141.54C73.59 141.54 72.78 141.31 72.78 140.73C72.78 139.77 73.59 139.67 76.32 139.67C89.03 139.67 98.98 131.29 98.98 120.47C98.98 116.58 98.6 108.68 91.65 102.32C84.71 95.96 76.72 96.44 73.72 96.44C71.49 96.44 69.24 96.67 68.08 97.15C67.3 97.38 67.02 98.21 67.02 99.4L67.02 147.79C67.02 159.1 67.02 168.38 67.68 173.33C68.08 176.76 68.86 179.34 72.78 179.81C74.62 180.04 77.51 180.29 78.69 180.29C79.48 180.29 79.73 180.65 79.73 181C79.73 181.58 79.07 181.93 77.63 181.93C70.43 181.93 62.17 181.58 61.51 181.58C61.13 181.58 52.87 181.93 48.95 181.93C47.51 181.93 46.86 181.71 46.86 181C46.86 180.65 47.11 180.29 47.89 180.29C49.08 180.29 50.65 180.04 51.83 179.81C54.44 179.34 55.09 176.76 55.62 173.33C56.28 168.38 56.28 159.1 56.28 147.79L56.28 127.05Z" />
			<path id="Path 7" class="shp0" d="M182.24 0.86L186.26 0.86L186.26 269.29L182.24 269.29L182.24 0.86Z" />
		</g>
	</g>
</svg>