<svg version="1.2" baseProfile="tiny-ps" xmlns="http://www.w3.org/2000/svg" viewBox="0 0 1036 1183" width="1036" height="1183">
	<title>Q3-2021-Supplemental-vF-1-pdf-svg (1)-svg</title>
	<defs>
		<clipPath clipPathUnits="userSpaceOnUse" id="cp1">
			<path d="M-4863.86 -3147.23L15957.69 -3147.23L15957.69 23760.01L-4863.86 23760.01L-4863.86 -3147.23Z" />
		</clipPath>
		<clipPath clipPathUnits="userSpaceOnUse" id="cp2">
			<path d="M16.25 -321.61L11119.06 -321.61L11119.06 1485.42L16.25 1485.42L16.25 -321.61Z" />
		</clipPath>
	</defs>
	<style>
		tspan { white-space:pre }
		.shp0 { fill: #c01e35 } 
		.shp1 { fill: none;stroke: #9b9c9f;stroke-width: 76.323 } 
		.shp2 { fill: #ffffff } 
	</style>
	<g id="Clip-Path: Clip-Path: Page 1" clip-path="url(#cp1)">
		<g id="Clip-Path: Page 1">
			<g id="Page 1">
				<path id="Path 2" fill-rule="evenodd" class="shp0" d="M944.52 1128.23L50.78 1128.23L50.78 63.99L944.52 63.99L944.52 1128.23Z" />
				<g id="Clip-Path: Clip-Path: Mask" clip-path="url(#cp2)">
					<g id="Clip-Path: Mask">
						<g id="Mask">
							<path id="Path 4" class="shp1" d="M981.15 1128.7L54.35 1128.7L54.35 54.1L981.15 54.1L981.15 1128.7Z" />
						</g>
					</g>
				</g>
				<path id="Path 6" class="shp2" d="M369.9 527.88C369.9 404.22 369.9 382.14 368.22 356.69C366.34 329.83 359.33 317.11 330.25 311.46C323.11 309.97 308.17 309.1 300.16 309.1C296.79 309.1 293.22 307.55 293.22 304.32C293.22 299.61 297.6 298.06 307.29 298.06C346.95 298.06 399.86 300.42 407 300.42C426.39 300.42 477.56 298.06 518.09 298.06C628.3 298.06 668.09 331.38 682.22 343.23C701.61 359.92 726.32 395.54 726.32 437.54C726.32 550.17 634.63 626.24 509.2 626.24C504.82 626.24 495.13 626.24 490.68 625.43C486.44 625.43 480.99 623.88 480.99 619.98C480.99 613.51 486.44 612.84 504.82 612.84C590.39 612.84 657.38 556.43 657.38 483.59C657.38 457.4 654.82 404.22 608.03 361.41C561.31 318.59 507.52 321.82 487.32 321.82C472.31 321.82 457.16 323.37 449.35 326.6C444.1 328.15 442.21 333.74 442.21 341.75L442.21 667.5C442.21 743.64 442.21 806.11 446.65 839.43C449.35 862.52 454.6 879.89 480.99 883.06C493.38 884.6 512.83 886.29 520.78 886.29C526.1 886.29 527.78 888.71 527.78 891.07C527.78 894.97 523.34 897.33 513.64 897.33C465.17 897.33 409.56 894.97 405.12 894.97C402.56 894.97 346.95 897.33 320.56 897.33C310.86 897.33 306.48 895.85 306.48 891.07C306.48 888.71 308.17 886.29 313.42 886.29C321.43 886.29 332 884.6 339.94 883.06C357.52 879.89 361.89 862.52 365.46 839.43C369.9 806.11 369.9 743.64 369.9 667.5L369.9 527.88Z" />
			</g>
		</g>
	</g>
</svg>