<svg version="1.2" xmlns="http://www.w3.org/2000/svg" viewBox="0 0 1526 1312" width="1526" height="1312">
	<title>logo-header (2)-svg</title>
	<style>
		.s0 { fill: #ffffff } 
	</style>
	<g id="Layer">
		<g id="Layer">
			<g id="Layer">
				<g id="Layer">
					<g id="Layer">
						<g id="Layer">
							<path id="Layer" fill-rule="evenodd" class="s0" d="m479.2 235.9c-22.6 39.1-41.8 80.8-57.7 123.9h-111.3c45.7-53 103.4-96.1 169-123.9zm9.9 213.4h121.3v161.6h-148.4c3.3-55.6 12.5-110 27.1-161.6zm-213.4 0h143.8c-12.6 51.6-21.2 106-23.8 161.6h-167c5.9-57.6 22.5-112.6 47-161.6zm-47 251.8h167q4 83.4 23.8 161h-143.8c-24.5-48.4-41.1-103.4-47-161zm81.5 251.1h111.3c15.9 43.1 35.1 84.1 57.7 123.9-65.6-27.8-123.3-70.9-169-123.9zm151.8-251.1h149.1v161h-122c-14.6-51-23.8-105.4-27.1-161zm58.3 251.1h90.1v157c-35.8-48.3-66.3-100.7-90.1-157zm90.8-592.4h-90.8c23.8-56.3 54.3-108.7 90.8-157zm89.4 749.4v-157h90.8c-23.8 56.3-54.3 108.6-90.8 157zm0-749.4v-157.1c36.5 48.4 67 100.7 90.8 157.1z"/>
							<path id="Layer" fill-rule="evenodd" class="s0" d="m1024 1058.2h150.4c-119.9 154.4-307.5 253.8-518.3 253.8-362.5 0-656.1-293.5-656.1-656 0-362.5 293.6-656 656.1-656 228 0 428.9 116.6 546.2 292.9h-139.9c-99.4-112-244.5-182.2-406.3-182.2-301.5 0-545.4 244.5-545.4 545.3 0 301.5 244.5 545.3 545.4 545.3 141.2 0 270.5-54.3 367.9-143.1z"/>
							<path id="Layer" fill-rule="evenodd" class="s0" d="m520.3 359.8c23.8-56.3 54.3-108.7 90.8-157v157zm-58.3 251.1c3.3-55.6 12.5-110 27.1-161.6h122v161.6zm-66.3 0h-167c5.3-57.6 21.9-112.6 47-161.6h143.9c-12.6 51.6-20.6 106-23.9 161.6zm25.8-251.1h-111.3c45.7-53.7 103.4-96.1 169-123.9-22.5 39.8-41.7 80.8-57.7 123.9zm279.1-157c36.4 48.3 66.9 100.7 90.8 157h-90.8zm-89.5 749.4v157.1c-36.5-48.4-66.9-100.7-90.8-157.1zm-0.7-251.1v161h-121.3c-14.5-51-23.8-105.3-27.1-161zm-190.9 161h-143.8c-25.2-49-41.1-103.4-47.1-161h167q5 83.5 23.9 161zm2 90.1c15.9 43.1 35.1 84.2 57.6 123.9-65.6-27.8-123.2-70.9-169-123.9zm279.1 0h90.8c-23.9 56.4-54.4 108.7-90.8 157.1z"/>
						</g>
						<g id="Layer">
							<g id="Layer">
								<path id="Layer" class="s0" d="m1455.4 555.9c-38.4 0-69.5-31.1-69.5-69.5 0-38.5 31.1-69.6 69.5-69.6 38.5 0 69.6 31.1 69.6 69.6 0 38.4-31.1 69.5-69.6 69.5zm-168-6.6c-35 0-63.3-28.3-63.3-63.3 0-35 28.3-63.2 63.3-63.2 35 0 63.3 28.2 63.3 63.2 0 35-28.3 63.3-63.3 63.3zm-159.4-5.9c-31.5 0-57-25.5-57-57 0-31.5 25.5-57 57-57 31.6 0 57 25.5 57 57 0 31.5-25.4 57-57 57zm-141.1-6.7c-27.9 0-50.4-22.5-50.4-50.3 0-27.9 22.5-50.4 50.4-50.4 27.8 0 50.3 22.5 50.3 50.4 0 27.8-22.5 50.3-50.3 50.3zm-126-5.9c-24.5 0-44.4-19.9-44.4-44.4 0-24.6 19.9-44.4 44.4-44.4 24.6 0 44.4 19.8 44.4 44.4 0 24.5-19.8 44.4-44.4 44.4zm594.5 371.7c-38.4 0-69.5-31.1-69.5-69.6 0-38.5 31.1-69.6 69.5-69.6 38.5 0 69.6 31.1 69.6 69.6 0 38.5-31.1 69.6-69.6 69.6zm-168-6c-35 0-63.3-28.4-63.3-63.6 0-35.2 28.3-63.6 63.3-63.6 35 0 63.3 28.4 63.3 63.6 0 35.2-28.3 63.6-63.3 63.6zm-159.4-6.6c-31.5 0-57-25.5-57-57 0-31.5 25.5-57 57-57 31.6 0 57 25.5 57 57 0 31.5-25.4 57-57 57zm-141.1-6.6c-27.9 0-50.4-22.5-50.4-50.4 0-27.8 22.5-50.3 50.4-50.3 27.8 0 50.3 22.5 50.3 50.3 0 27.9-22.5 50.4-50.3 50.4zm-126-6c-24.5 0-44.4-19.8-44.4-44.4 0-24.5 19.9-44.4 44.4-44.4 24.6 0 44.4 19.9 44.4 44.4 0 24.6-19.8 44.4-44.4 44.4zm594.5-148.4c-38.4 0-69.5-31.1-69.5-69.6 0-38.5 31.1-69.6 69.5-69.6 38.5 0 69.6 31.1 69.6 69.6 0 38.5-31.1 69.6-69.6 69.6zm-168-6.6c-35 0-63.3-28.3-63.3-63.3 0-35 28.3-63.3 63.3-63.3 35 0 63.3 28.3 63.3 63.3 0 35-28.3 63.3-63.3 63.3zm-159.4-6c-31.5 0-57-25.5-57-57 0-31.5 25.5-57 57-57 31.6 0 57 25.5 57 57 0 31.5-25.4 57-57 57zm-141.1-6.6c-27.9 0-50.4-22.5-50.4-50.4 0-27.8 22.5-50.3 50.4-50.3 27.8 0 50.3 22.5 50.3 50.3 0 27.9-22.5 50.4-50.3 50.4zm-126-6c-24.5 0-44.4-19.8-44.4-44.4 0-24.5 19.9-44.4 44.4-44.4 24.6 0 44.4 19.9 44.4 44.4 0 24.6-19.8 44.4-44.4 44.4zm-125.2-6.6c-20.9 0-37.8-16.9-37.8-37.8 0-20.9 16.9-37.8 37.8-37.8 20.9 0 37.8 16.9 37.8 37.8 0 20.9-16.9 37.8-37.8 37.8z"/>
							</g>
						</g>
					</g>
				</g>
			</g>
		</g>
	</g>
</svg>