<svg version="1.2" xmlns="http://www.w3.org/2000/svg" viewBox="0 0 1588 297" width="1588" height="297"><defs><clipPath clipPathUnits="userSpaceOnUse" id="cp1"><path d="m-435.36-8591.78h6548.44v9246.69h-6548.44z" /></clipPath></defs><style>.s0{fill:#fdc944}.s1{fill:#ffffff}</style><g clip-path="url(#cp1)"><path fill-rule="evenodd" class="s0" d="m101.8 265.6c-29.7 7.7-58.8 19.8-100.6 26.4v-1.7c43.4-7.1 72-19.8 102.8-28c8.3-2.2 17.1-4.4 28.6-4.4c11.6 0 20.4 2.2 28.6 4.4c30.2 8.2 59.4 20.9 102.8 28v1.7c-41.8-6.6-70.9-18.7-100.6-26.4c-9.9-2.7-19.2-4.9-30.8-4.4c-11.5-0.5-20.9 1.7-30.8 4.4zm8.3-13.7c-35.2 9.9-62.7 25.8-108.9 34.6v-1.7c42.9-8.8 69.3-23 97.9-32.4c9.3-3.3 20.3-6.6 33.5-6.6c13.2 0 23.7 3.3 33.5 6.6c28.1 9.4 55 23.6 97.9 32.4v1.7c-46.2-8.8-73.7-24.7-108.8-34.6c-8.3-2.2-15.4-3.3-22.6-3.3c-7.1 0-14.3 1.1-22.5 3.3zm153.9 21.9v5.5l-4.9-1.1l-5.5-1.1l-5-1.6l-4.9-1.1l-5-1.7l-4.4-1.6l-4.9-1.7l-4.4-1.1l-8.8-3.2l-3.9-1.7l-4.4-1.6l-7.7-3.3l-4.4-1.7l-11.5-4.9l-4.4-1.7l-3.9-1.1l-3.8-1.6l-1.7-0.6h-1.6l-1.1-0.5l-1.7-0.6l-1.1-0.5l-4.9-1.7h-1.7l-1.6-0.5l-2.2-0.6l-1.6-0.5h-1.7l-2.2-0.6l-1.6-0.5h-2.2l-2.2-0.6h-6.6l-2.8-0.5h-2.7l-2.2 0.5h-6.6l-2.2 0.6h-2.2l-1.7 0.5l-2.2 0.6h-1.6l-2.2 0.5l-3.3 1.1h-1.7l-4.9 1.7l-1.1 0.5l-3.3 1.1h-1.1l-1.7 0.6l-3.8 1.6l-3.9 1.1l-4.4 1.7l-11.5 4.9l-4.4 1.7l-7.7 3.3l-8.8 3.3l-3.9 1.6l-4.4 1.6l-4.4 1.1l-4.9 1.7l-4.4 1.6l-5 1.7l-4.9 1.1l-5 1.6l-5.5 1.1l-4.9 1.1v-5.5c41.8-9.8 70.9-27.4 100.6-38.4c9.9-3.8 19.3-7.1 30.8-7.1c11.6 0 20.9 3.3 30.8 7.1c29.7 11 58.8 28.6 100.6 38.4zm0-8.2v6c-43.4-10.4-72.6-29.6-102.8-41.7c-8.2-3.3-17-6.6-28.6-6c-11.5-0.6-20.3 2.7-28.6 6c-30.8 12.1-59.4 31.3-102.8 41.7v-6c46.2-12.6 73.7-35.7 108.9-50.5c8.2-3.3 15.4-5 22.5-4.4c7.2-0.6 14.3 1.1 22.6 4.4c35.1 14.8 62.6 37.9 108.8 50.5zm0-10.4v8.2c-42.9-12.6-69.8-34-97.9-47.2c-9.8-5-20.3-9.9-33.5-9.9c-13.2 0-24.2 4.9-33.5 9.9c-28.6 13.2-55 34.6-97.9 47.2v-8.2l4.9-1.7l5.5-1.6l5-2.2l4.9-1.7l5-2.2l4.4-2.2l4.9-2.7l8.8-4.4l3.9-2.2l4.4-2.7l4.4-2.2l3.8-2.2l3.9-2.8l4.4-2.2l3.8-2.7l7.7-4.4l4.4-2.2l7.7-4.4l1.7-0.6l1.1-0.5l1.6-0.5l1.7-1.1l1.1-0.6l3.3-1.1l1.6-1.1l5-1.6l2.2-0.6l1.6-0.5l2.2-0.6l1.7-0.5l4.4-1.1h2.2l2.2-0.6h12.1l2.2 0.6h2.2l4.4 1.1l1.6 0.5l2.2 0.6l3.3 1.1l2.2 0.5l3.3 1.1l1.6 1.1l3.3 1.1l1.1 0.6l1.7 1.1l1.1 0.5l3.3 1.1l7.7 4.4l4.4 2.2l7.7 4.4l3.8 2.7l4.4 2.2l3.9 2.8l3.8 2.2l4.4 2.2l3.9 2.7l13.2 6.6l4.9 2.7l4.4 2.2l5 2.2l4.9 1.7l5 2.2l5.5 1.6zm-162.8-65.3c-29.7 17-58.3 43.4-100.6 58.2v-3.3c44-15.9 72.6-44.5 103.4-62.6c8.2-4.9 16.5-9.9 28-9.3c12.1-0.6 20.4 4.4 28.6 9.3c30.8 18.1 59.4 46.7 103.4 62.6v3.3c-42.4-14.8-71.5-41.2-100.7-58.2c-10.4-6.1-19.7-11-31.3-10.5c-11-0.5-20.3 4.4-30.8 10.5zm8.3-30.2c-35.2 21.9-62.7 56.5-108.9 75.8v-3.3c43.4-19.3 69.8-51.1 97.9-71.4c9.9-7.2 20.3-14.8 33.5-14.3c13.8-0.5 24.2 7.1 34.1 14.3c28 20.3 54.4 52.1 97.9 71.4v3.3c-46.2-19.3-73.7-53.9-108.9-75.8c-8.2-5-15.9-7.2-23.1-7.2c-7.1 0-14.3 2.2-22.5 7.2zm-98.5-159.3h242.5c5.5 0 9.9 4.4 10.5 9.4v210.3l-5.5-2.8l-5-2.7l-5.5-2.8l-4.9-3.2l-4.4-3.3l-5-3.3l-13.2-9.9l-8.8-7.7l-3.8-3.3l-4.4-3.8l-3.9-3.3l-3.8-3.9l-3.9-3.3l-4.4-3.8l-7.7-6.6l-4.4-3.3l-3.8-2.8l-1.1-1.1l-3.3-2.1l-1.1-1.1l-6.6-4.4l-1.6-0.6l-5-3.3l-2.2-0.5l-1.6-1.1l-8.8-2.2h-2.2l-2.2-0.6h-7.2l-2.2 0.6h-2.7l-2.2 0.5l-1.7 0.6l-4.4 1.1l-1.6 1.1l-2.2 0.5l-5 3.3l-1.6 0.6l-8.3 5.5l-1.1 1.1l-1.6 1l-1.1 1.1l-4.4 2.8l-11.6 9.9l-4.4 3.8l-3.8 3.3l-3.9 3.9l-4.4 3.3l-3.8 3.8l-3.9 3.3l-8.8 7.7l-13.2 9.9l-4.9 3.3l-4.4 3.3l-5 3.2l-5.5 2.8l-4.9 2.7l-5.5 2.8v-210.3c0.6-5 4.9-9.4 10.4-9.4zm90.2 275.1c-29.7 6.6-58.3 16-100.6 21.5v-1.1c44-6.1 72.6-16.5 103.4-23.1c8.2-1.7 16.5-3.3 28-3.3c12.1 0 20.4 1.6 28.6 3.3c30.8 6.6 59.4 17 103.4 23.1v1.1c-42.4-5.5-71.5-14.9-100.7-21.5c-10.4-2.2-19.7-3.8-31.3-3.8c-11 0-20.3 1.6-30.8 3.8z" /><path fill-rule="evenodd" class="s1" d="m1586.4 223.3h-30.3l-31.3-40.6l-8.8 7.7v32.9h-23.1v-95.5h23.1v35.1l39-35.1h32.5l-46.2 40.1zm-147.9 1.6l-1.1-0.5h-3.9l-0.5-0.6h-2.8l-0.5-0.5h-1.7l-0.5-0.6h-1.1l-0.6-0.5h-1.1l-0.5-0.6h-1.1l-0.6-0.5h-1.1l-0.5-0.6h-0.6l-0.5-0.5h-0.6l-0.5-0.6h-0.6l-0.5-0.5h-0.6l-0.5-0.6h-0.6v-0.5h-0.5l-0.6-0.6h-0.5v-0.5h-0.6l-1.1-1.1h-0.5v-0.6h-0.6l-1.1-1.1h-0.5v-0.5h-0.6v-0.6l-1.1-1.1h-0.5v-0.5l-1.1-1.1v-0.6h-0.6v-0.5h-0.5v-1.1l-1.1-1.1v-0.6h-0.6v-1.1h-0.5v-1.1l-0.6-0.5v-0.6l-0.5-0.5v-1.1l-0.6-0.5v-1.1l-0.5-0.6v-1.6l-0.6-0.6v-3.3h-0.5v-7.7h22.5l0.6 5v1.6h0.5v1.7l0.6 0.5v1.1h0.5v1.1h0.6v0.6h0.5v0.5h0.6v1.1h0.5v0.6h1.1v0.5l0.6 0.6h0.5v0.5h1.1v0.6h1.1v0.5h1.1v0.5h1.7v0.6h1.6l0.6 0.5h2.2v0.6h13.7v-0.6h2.2v-0.5h1.7l0.5-0.6h1.1v-0.5h1.1v-0.5h1.1v-0.6h0.6v-0.5h0.5v-0.6h0.6v-0.5h0.5v-0.6h0.6v-1.1h0.5v-5.5h-0.5v-1.1h-0.6v-0.5h-0.5v-0.6h-0.6v-0.5h-1.1v-0.6h-1.1v-0.5h-1.1v-0.6h-1.1l-0.5-0.5h-1.1l-0.6-0.6h-1.6v-0.5h-2.2v-0.6h-1.7l-0.5-0.5h-2.2l-0.6-0.6h-1.6l-0.6-0.5h-2.2l-0.5-0.6h-2.8l-0.5-0.5h-2.2v-0.6h-2.2l-0.6-0.5h-1.6l-0.6-0.6h-1.1l-0.5-0.5h-1.7l-0.5-0.6h-1.1l-0.6-0.5h-1.1l-0.5-0.6h-1.1v-0.5h-1.1l-0.6-0.6h-0.5l-0.6-0.5h-0.5l-0.6-0.6h-0.5l-0.6-0.5h-0.5l-0.6-0.6h-0.5v-0.5h-1.1v-0.6h-0.6l-1.1-1.1h-0.5v-0.5h-0.6v-0.6h-0.5l-1.7-1.6v-0.5h-0.5l-0.6-0.6v-0.5h-0.5v-0.6l-0.6-0.5v-0.6h-0.5v-0.5l-0.6-0.6v-0.5h-0.5v-1.1l-0.6-0.6v-1.1h-0.5v-2.2h-0.6v-2.7l-0.5-0.6v-5.5l0.5-0.5v-2.2l0.6-0.6v-1.6h0.5v-1.1l0.6-0.6v-1.1h0.5v-1.1h0.6v-1.1h0.5v-0.5l1.1-1.1v-0.5l6.1-6.1h0.5l1.1-1.1h0.6v-0.5h1.1v-0.6h1.1v-0.5h1.1v-0.6h0.5l0.6-0.5h1.1l0.5-0.6h0.6l0.5-0.5h1.1l0.6-0.6h1.1l0.5-0.5h2.2v-0.6h2.2l0.6-0.5h3.8v-0.6h14.3l0.6 0.6h3.3l0.5 0.5h2.2l0.6 0.6h1.6v0.5h2.2l0.6 0.6h0.5l0.6 0.5h1.1l0.5 0.6h1.1v0.5h1.1l0.6 0.6h0.5l1.1 1.1h0.6l0.5 0.5h0.6v0.6h0.5l0.6 0.5h0.5l1.1 1.1h0.6v0.6h0.5v0.5h0.5v0.6h0.6l1.6 1.6v0.6h0.6v0.5h0.5v0.6h0.6v1.1h0.5v0.5l1.1 1.1v0.5l0.6 0.6v0.5l0.5 0.6v0.5l0.6 0.6v0.5l0.5 0.6v1.1l0.6 0.5v1.7h0.5v2.2l0.6 0.5v8.8h-22.5l-0.6-5.5v-0.5l-0.5-0.6v-1.6l-0.6-0.6v-0.5l-0.5-0.6v-0.5h-0.6v-0.6l-1.6-1.6h-0.6l-1.1-1.1h-0.5l-0.6-0.6h-0.5l-1.1-0.5h-1.7l-0.5-0.6h-2.8l-1.1-0.5h-7.7l-0.5 0.5h-3.3v0.6h-1.7l-0.5 0.5h-1.1l-0.6 0.6h-0.5l-0.6 0.5h-0.5v0.6h-0.6l-0.5 0.5h-0.6v0.6l-0.5 0.5v0.6h-0.6v1.1l-0.5 0.5v2.8h0.5v1.1l0.6 0.5h0.5v0.6h0.6v0.5h1.1l0.5 0.6h1.1v0.5h1.1l0.6 0.6h1.6v0.5h2.2v0.6h2.2v0.5h2.2l0.6 0.6h2.2l0.5 0.5h2.2l0.6 0.6h1.6l0.6 0.5h2.2l0.5 0.6h2.2v0.5h1.7l0.5 0.6h1.7l0.5 0.5h1.7v0.6h2.2v0.5h1.6v0.6h1.7l0.5 0.5h0.6l0.5 0.6h1.1l0.6 0.5h0.5v0.6h1.1l0.6 0.5h0.5v0.6h1.1v0.5h0.6l0.5 0.5h0.5v0.6h0.6l1.1 1.1h0.5v0.5h0.6v0.6h0.5v0.5h0.6v0.6h0.5v0.5h0.6v0.6h0.5v0.5h0.6v0.6h0.5v0.5l0.6 0.6v0.5h0.5v0.6l0.6 0.5v0.6h0.5v0.5l0.6 0.6v1.1h0.5v1.1h0.6v1.6h0.5v2.2l0.6 0.6v9.3l-0.6 0.6v2.2h-0.5v1l-0.6 0.6v1.1l-0.5 0.5v0.6l-1.1 1.1v0.5l-0.6 0.6v0.5l-1.1 1.1v0.6l-1.1 1.1v0.5h-0.5v0.6h-0.6v0.5h-0.5v0.6h-0.6v0.5h-0.5v0.6h-0.6l-1.6 1.6h-0.6v0.6h-0.5v0.5h-0.5l-1.1 1.1h-0.6l-0.5 0.6h-0.6v0.5h-1.1l-0.5 0.6h-0.6l-0.5 0.5h-0.6l-0.5 0.6h-1.1v0.5h-1.1l-0.6 0.6h-1.1l-0.5 0.5h-1.1l-0.6 0.6h-1.6l-0.6 0.5h-2.2l-0.5 0.6h-3.3l-0.6 0.5zm-31.3-96.6l-41.3 95.5h-20.3l-41.3-95.5h25.3l25.9 63.7l26.4-63.7zm-140.2-1.7l0.5 0.6h3.3l0.6 0.5h2.2l0.5 0.6h1.7l0.5 0.5h1.7l0.5 0.6h0.6l0.5 0.5h1.1l0.6 0.6h0.5l0.6 0.5h1.1l0.5 0.6h0.6l0.5 0.5h0.6l0.5 0.6h0.6l0.5 0.5h0.6l1.1 1.1h0.5l0.6 0.6h0.5l1.7 1.6h0.5l1.1 1.1h0.6l0.5 0.6v0.5l0.6 0.6h0.5l0.6 0.5v0.6h0.5l1.1 1.1v0.5l0.6 0.5h0.5l0.6 0.6v0.5l1.1 1.1v0.6h0.5l0.6 0.5v0.6l0.5 0.5v0.6l1.1 1.1v0.5l1.1 1.1v0.6l0.6 0.5v0.6l0.5 0.5v0.6l0.6 0.5v0.6l0.5 0.5v0.6l0.6 0.5v1.1l0.5 0.6v1.1l0.6 1.1v1.1l0.5 0.5v1.1l0.6 0.6v1.6l0.5 1.1v2.8l0.6 1.1v13.1l-0.6 0.6v2.2l-0.5 1.1v2.2l-0.6 0.5v1.1l-0.5 0.6v1.6l-0.6 0.6v1.1l-0.5 0.5v0.6l-0.6 0.5v1.1l-0.5 0.6v0.5l-0.6 0.6v0.5l-0.5 0.6v0.5l-0.6 0.6v0.5l-0.5 0.6v0.5l-0.6 0.5h-0.5v0.6l-0.6 0.5v0.6l-1.1 1.1v0.5l-0.5 0.6h-0.6v0.5l-1.1 1.1v0.6l-0.5 0.5h-0.6v0.6l-1.1 1.1h-0.5l-0.6 0.5v0.6l-0.5 0.5h-0.6l-2.2 2.2h-0.5l-1.1 1.1h-0.6v0.6h-0.5l-1.1 1.1h-0.6l-0.5 0.5h-0.6l-0.5 0.6h-0.6l-0.5 0.5h-0.6l-0.5 0.6h-0.6l-0.5 0.5h-0.6l-0.5 0.6h-1.1l-0.6 0.5h-0.5l-0.6 0.6h-1.1l-0.5 0.5h-1.7l-0.5 0.6h-1.7l-0.5 0.5h-2.2l-0.6 0.6h-3.3l-0.5 0.5h-13.2l-0.6-0.5h-3.3l-0.5-0.6h-2.2l-0.6-0.5h-1.6l-0.6-0.6h-1.6l-0.6-0.5h-0.5l-0.6-0.6h-1.1l-0.5-0.5h-0.6l-0.5-0.6h-0.6l-0.5-0.5h-1.1l-0.6-0.6h-0.5l-0.6-0.5h-0.5l-1.1-1.1h-0.6l-0.5-0.6h-0.6l-0.5-0.5h-0.6l-0.5-0.6v-0.5h-0.6l-1.1-1.1h-0.5l-2.2-2.2h-0.6l-0.5-0.6v-0.5l-0.6-0.6h-0.5l-0.6-0.5v-0.6l-1.1-1.1h-0.5v-0.5l-1.1-1.1v-0.6l-0.6-0.5h-0.5v-0.6l-0.6-0.5v-0.6l-1.1-1.1v-0.5l-0.5-0.5v-0.6l-0.6-0.5v-0.6h-0.5v-0.5l-0.6-0.6v-0.5l-0.5-0.6v-0.5l-0.6-0.6v-0.5l-0.5-0.6v-1.1l-0.6-1.1v-0.5l-0.5-0.6v-1.1l-0.6-0.5v-1.7l-0.5-0.5v-1.7l-0.6-0.5v-2.2l-0.5-1.1v-15.4l0.5-0.5v-2.2l0.6-0.6v-2.2l0.5-0.5v-1.1l0.6-0.6v-1.1l0.5-0.5v-1.1l0.6-0.6v-0.5l0.5-0.6v-1.1l0.6-0.5v-0.6l0.5-0.5v-0.6l0.6-0.5v-0.6l0.5-0.5v-0.6l0.6-0.5v-0.6l1.1-1.1v-0.5h0.5v-0.6l1.1-1.1v-0.5l2.2-2.2v-0.6l0.6-0.5h0.5l0.6-0.5v-0.6l1.1-1.1h0.5v-0.5l0.6-0.6h0.5l1.1-1.1h0.6v-0.5l0.5-0.6l1.1-0.5l0.6-0.6h0.5l1.1-1.1h0.6v-0.5h0.5l0.6-0.6h0.5l0.6-0.5h0.5l0.6-0.6h0.5l0.6-0.5h0.5l0.6-0.6h0.5l0.6-0.5h1.6l0.6-0.6h0.5l0.6-0.5h1.1l0.5-0.6h1.1l0.6-0.5h1.6l0.6-0.6h1.6l1.1-0.5h3.9l0.5-0.6zm-6.6 79.1v-0.6h5l0.5-0.5h2.2l0.6-0.6h1.1l0.5-0.5h0.6l0.5-0.6h1.1v-0.5h1.1v-0.5h0.6l0.5-0.6h0.6l0.5-0.5h0.6v-0.6h0.5v-0.5h0.6v-0.6h0.5v-0.5h0.6l0.5-0.6v-0.5h0.6v-0.6h0.5v-0.5h0.6v-0.6l1.1-1.1v-0.5l0.5-0.6v-0.5h0.6v-1.1h0.5v-0.6l0.6-0.5v-1.1h0.5v-1.7h0.6v-1.1l0.5-0.5v-1.7l0.6-0.5v-3.3l0.5-0.6v-9.3l-0.5-0.5v-3.3l-0.6-0.6v-1.6l-0.5-0.6v-1.1h-0.6v-1.6l-0.5-0.6v-0.5l-0.6-0.6v-0.5l-0.5-0.6v-0.5h-0.6v-0.6l-0.5-0.5v-0.6l-1.1-1.1v-0.5h-0.6v-0.6l-0.5-0.5h-0.6v-0.6l-0.5-0.5h-0.6v-0.6l-0.5-0.5h-0.6v-0.6h-0.5v-0.5h-0.6l-0.5-0.6h-0.6v-0.5h-1.1v-0.6h-1.1v-0.5h-1.1v-0.6h-1.1l-0.5-0.5h-1.1l-0.6-0.6h-1.6l-0.6-0.5h-11.5l-0.6 0.5h-1.6l-0.6 0.6h-1.6v0.5h-1.7v0.6h-1.1v0.5h-0.5l-0.6 0.6h-0.5l-0.6 0.5h-0.5v0.6h-0.6l-0.5 0.5h-0.6v0.6h-0.5v0.5h-0.6v0.6h-0.5v0.5h-0.6l-0.5 0.6v0.5h-0.6v0.6l-1.1 1.1v0.5h-0.5v0.6l-0.6 0.5v0.6h-0.5v1.1h-0.6v1.1h-0.5v1.1l-0.6 0.5v0.6l-0.5 0.5v1.7h-0.6v2.2l-0.5 0.5v2.8l-0.6 0.5v9.3h0.6v3.3l0.5 0.6v1.6l0.6 0.6v1.6h0.5v1.1l0.6 0.6v1.1h0.5v0.5l0.6 0.6v1.1h0.5v0.5l0.6 0.6v0.5h0.5v0.6l1.1 1.1v0.5h0.6v0.6h0.5v0.5h0.6v0.6h0.5v0.5h0.6v0.6h0.5v0.5h0.6l0.5 0.6h0.6v0.5h0.5l0.6 0.6h0.5v0.5h1.1v0.5h1.1v0.6h1.1l0.6 0.5h1.1l0.5 0.6h1.7l0.5 0.5h5.5v0.6zm-50.6 18.1h-69.8v-95.5h23.7v75.2h46.1zm-80.8-95.5l-39.6 94.9h-22.5l-40.2-94.9h24.8l26.4 64.2l25.8-64.2zm-81.3 95.5h-25.9l-11-26.4h-32.4l-10.5 26.4h-24.7l40.1-95.5h21.5zm-45.1-45.1l-8.3-20.3l-8.2 20.3zm-134.7-50.5h50v0.6h5v0.5h3.3v0.6h1.6l0.6 0.5h1.6l0.6 0.6h1.1l0.5 0.5h1.1v0.6h1.1v0.5h1.1v0.6h1.1v0.5h1.1v0.6h0.6l1.1 1.1h0.5l2.8 2.7h0.5v0.5h0.6v0.6l0.5 0.5v0.6h0.6v0.5l1.1 1.1v0.6l1.1 1.1v0.5l0.5 0.6v0.5l0.6 0.6v1.1h0.5v1.6l0.5 0.6v1.6l0.6 0.6v2.7h0.5v7.7l-0.5 1.1v2.2l-0.6 1.1v1.6l-0.5 0.6v1.1l-0.5 0.5v1.1l-1.1 1.1v1.1l-1.1 1.1v0.6l-0.6 1.1l-2.7 2.7l-0.6 1.1l-0.5 0.6l-1.1 0.5l-1.1 1.1h-0.6l-1.1 0.6l-1.1 1.1l-1.1 0.5l-0.5 0.6h-1.1l-0.6 0.5l-1.1 0.6h-0.5l-1.1 0.5h-0.6l-1.1 0.6h-1.1l-0.5 0.5h-1.1l-1.1 0.6h-0.6l-1.1 0.5h-3.3l-0.5 0.6h-4.4l-1.1 0.5h-23.1v34.1h-23.1zm23.1 41.1h24.2l0.5-0.5h2.8l0.5-0.6h1.7v-0.5h1.1v-0.6h1.1v-0.5h0.5v-0.6h0.6v-0.5h0.5v-0.6h0.6v-1.1h0.5v-1.1l0.6-0.5v-7.7h-0.6v-1.1h-0.5v-1.1h-0.6v-0.5h-0.5v-0.6h-0.6v-0.5h-1.1v-0.6h-0.5l-0.6-0.5h-1.1v-0.6h-2.7v-0.5h-5.5l-0.6-0.6h-20.3zm-73.2-42.3l0.6 0.6h3.3l0.5 0.5h2.8l0.5 0.6h1.1l0.6 0.5h1.1l0.5 0.6h1.7l0.5 0.5h0.6l0.5 0.6h1.1l0.6 0.5h0.5l0.6 0.6h0.5l0.6 0.5h0.5l0.6 0.6h0.5l0.6 0.5h0.5l1.1 0.6v0.5l0.6 0.6h0.5l0.6 0.5h0.5l1.1 1.1h0.6l0.5 0.6v0.5h0.6l1.1 1.1h0.5v0.6l1.1 1.1h0.6l0.5 0.5v0.6l0.6 0.5h0.5v0.6l1.7 1.6v0.6h0.5v0.5l1.1 1.1v0.6l1.1 1.1v0.5h0.6v0.6l0.5 0.5v0.6l0.6 0.5v0.6l0.5 0.5v0.6l0.6 0.5v0.5l0.5 0.6v0.5l0.6 0.6v1.1l0.5 0.5v0.6l0.6 0.5v1.1l0.5 1.1v1.1l0.6 0.6v1.6l0.5 0.6v2.7l0.6 0.6v4.4l0.5 0.5v7.2l-0.5 0.5v4.4l-0.6 0.5v2.8l-0.5 0.5v1.7l-0.6 0.5v1.1l-0.5 0.6v1.6l-0.6 0.6v0.5l-0.5 0.6v1.1l-0.6 0.5v0.6l-0.5 0.5v0.6l-0.6 0.5v0.6l-0.5 0.5v0.6l-0.6 0.5v0.6h-0.5v0.5l-1.1 1.1v0.6l-0.6 1.1l-1.1 1.1v0.5h-0.5l-0.6 0.6v0.5l-2.7 2.8v0.5h-0.6l-1.1 1.1h-0.5v0.6l-1.1 1h-0.6l-1.6 1.7h-0.6l-1.1 1.1h-0.5l-0.6 0.5h-0.5l-1.7 1.7h-0.5l-0.6 0.5h-0.5l-0.6 0.6h-0.5l-0.6 0.5h-1.1l-0.5 0.6h-1.1l-0.6 0.5h-1.1l-0.5 0.6h-0.6l-0.5 0.5h-1.7l-0.5 0.6h-1.7l-0.5 0.5h-1.7l-0.5 0.6h-3.9l-1.1 0.5h-11.5l-1.1-0.5h-2.8l-1.1-0.6h-2.2l-0.5-0.5h-1.7l-0.5-0.6h-1.1l-0.6-0.5h-1.1l-0.5-0.6h-1.1l-1.1-0.5h-0.5l-0.6-0.6h-0.5l-0.6-0.5h-0.5l-0.6-0.6h-0.5l-0.6-0.5h-0.5l-0.6-0.6h-0.5l-1.1-1.1h-0.6l-1.1-1.1h-0.5l-0.6-0.5h-0.5l-2.2-2.2h-0.6l-1.1-1.1v-0.5h-0.5l-1.1-1.1v-0.6h-0.6l-1.1-1.1v-0.5l-0.5-0.6h-0.6v-0.5l-1.1-1.1v-0.6l-0.5-0.5h-0.6v-0.6l-1.1-1.1v-0.5l-0.5-0.6v-0.5l-0.6-0.6v-0.5l-0.5-0.6v-0.5l-0.6-0.6v-0.5h-0.5v-1.1l-0.6-0.6v-0.5l-0.5-0.6v-0.5l-0.6-0.6v-1.1l-0.5-0.5v-1.1l-0.6-0.6v-1.1l-0.5-0.5v-1.1l-0.6-0.6v-2.7l-0.5-0.6v-3.8l-0.6-0.5v-9.9l0.6-0.6v-3.3l0.5-0.5v-2.2l0.6-1.1v-1.7l0.5-0.5v-1.1l0.6-0.6v-1.1l0.5-0.5v-0.6l0.6-0.5v-0.6l0.5-0.5v-1.1l0.6-0.6v-0.5l0.5-0.5v-0.6l0.6-0.5v-0.6l0.5-0.5v-0.6l1.1-1.1v-0.5l0.6-0.6v-0.5l0.5-0.6h0.6v-0.5l0.5-0.6v-0.5l2.8-2.8v-0.5h0.5l1.1-1.1v-0.6h0.6l2.7-2.7h0.6l1.1-1.1h0.5v-0.6h0.6l1.1-1.1h0.5l0.6-0.5h0.5l0.6-0.6h0.5l0.6-0.5h0.5l0.6-0.6h0.5l0.6-0.5h0.5l0.6-0.6h0.5l0.6-0.5h0.5l0.5-0.6h1.1l0.6-0.5h0.5l1.1-0.6h1.1l0.6-0.5h1.6l0.6-0.6h2.2l0.5-0.5h3.3l0.6-0.6zm-1.1 78.6l0.5-0.6h1.7l0.5-0.5h1.1l0.6-0.6h1.1l0.5-0.5h0.6l0.5-0.6h0.6l0.5-0.5h0.6v-0.6h0.5l0.6-0.5h0.5v-0.6h0.6v-0.5h0.5l0.6-0.6h0.5v-0.5l0.6-0.6h0.5v-0.5l1.1-1.1v-0.6h0.6v-0.5h0.5v-0.6l0.6-0.5v-0.6h0.5v-1.1h0.6v-1.1h0.5v-1.1h0.6v-1.6h0.5v-1.1l0.6-0.6v-1.1l0.5-0.5v-2.2l0.6-0.5v-5l0.5-0.5v-2.8l-0.5-0.5v-5l-0.6-0.5v-2.2l-0.5-0.6v-1.6h-0.6v-1.1l-0.5-0.6v-1.1l-0.6-0.5v-0.6l-0.5-0.5v-0.6l-0.6-0.5v-0.6h-0.5v-0.5l-0.6-0.6v-0.5h-0.5v-0.6l-0.6-0.5v-0.6h-0.5v-0.5h-0.6v-0.6h-0.5v-0.5h-0.6v-0.5h-0.5v-0.6h-0.6l-1.1-1.1h-0.5v-0.5h-0.6l-0.5-0.6h-0.6v-0.5h-1.1v-0.6h-1.1l-0.5-0.5h-1.1v-0.6h-1.1l-0.6-0.5h-1.6l-0.6-0.6h-4.4l-0.5-0.5h-2.2l-0.6 0.5h-4.4l-0.5 0.6h-1.6l-0.6 0.5h-1.1l-0.5 0.6h-1.1l-0.6 0.5h-0.5l-0.6 0.6h-0.5l-0.6 0.5h-0.5v0.6h-1.1v0.5h-0.6l-1.6 1.7h-0.6v0.5l-0.5 0.5h-0.6v0.6l-1.6 1.6v0.6h-0.6v0.5l-0.5 0.6v0.5l-0.6 0.6v0.5h-0.5v0.6l-0.6 0.5v1.1l-0.5 0.6v0.5l-0.6 0.6v1.1l-0.5 0.5v1.7h-0.6v2.7h-0.5v13.2l0.5 0.6v2.1l0.6 0.6v1.6h0.5v1.7h0.6v1.1l0.5 0.5v1.1h0.6v0.6l0.5 0.5v0.6l0.6 0.5v0.6h0.5v0.5l0.6 0.6v0.5h0.5v0.6l0.6 0.5h0.5v0.6l0.6 0.5v0.6h0.5l0.6 0.5h0.5v0.6l0.6 0.5h0.5v0.6h0.6l0.5 0.5h0.6v0.6h0.5l0.6 0.5h0.5l0.6 0.6h1.1v0.5h1.1l0.5 0.6h1.1l0.6 0.5h1.6l0.5 0.6zm-96.7-14.9v-0.5h-0.6l-0.5-0.6h-0.6v-0.5h-1.1v-0.6h-1.1l-0.5-0.5h-1.7v-0.6h-22v36.3h-23.1v-95.6h50.1l0.5 0.6h6.6l0.6 0.5h3.3l0.5 0.6h2.2l0.6 0.5h1.6v0.6h1.7l0.5 0.5h1.1v0.6h1.1l0.6 0.5h1.1v0.6h1.1v0.5h0.5l0.6 0.6h0.5v0.5h1.1v0.6h0.6v0.5h0.5v0.6h1.1v0.5h0.6v0.6h0.5v0.5l2.8 2.8v0.5l1.1 1.1v0.6l0.5 0.5v0.6l0.6 0.5v0.6l0.5 0.5v1.1l0.6 0.6v1.6l0.5 0.6v1.6l0.6 0.6v10.4l-0.6 0.5v2.2h-0.5v1.7h-0.6v1.1h-0.5v1.1l-0.6 0.5v0.6h-0.5v1.1h-0.6v0.5l-0.5 0.6v0.5h-0.6v0.6l-1.1 1.1v0.5h-0.5v0.6h-0.6v0.5h-0.5v0.6h-0.6v0.5h-0.5l-1.7 1.7h-0.5v0.5h-0.6l-0.5 0.6h-0.6l-0.5 0.5h-0.6v0.6h-1.1v0.5h0.6l0.5 0.6l0.6 1.1l2.2 2.1l0.5 1.1l1.1 1.1v1.1l1.1 1.1l0.6 1.1v0.6l0.5 1.1l0.6 0.5l0.5 1.1l12.1 29.7h-25.3l-10.4-25.8v-1.1h-0.6v-1.1h-0.5v-0.6l-0.6-0.5v-0.6h-0.5v-0.5h-0.6v-0.6h-0.5v-0.5l-0.6-0.6h-0.5v-0.5h-0.6v-0.6zm-27.5-23.6h29.7v-0.5h2.8l0.5-0.6h1.7v-0.5h1.1v-0.6h0.5l0.6-0.5h0.5v-0.6l0.6-0.5v-0.6h0.5v-1.6h0.6v-6.6l-0.6-0.6v-1l-0.5-0.6v-0.5h-0.6v-0.6l-0.5-0.5h-0.6v-0.6h-0.5l-0.6-0.5h-0.5l-1.1-0.6h-0.6l-0.5-0.5h-2.2l-1.1-0.6h-29.2zm-31.9-19.2h-31.3v75.8h-23.6v-75.8h-30.8v-19.8h85.7zm-94 75.8h-81.3v-95.5h79.1v19.7h-55.5v16.5h52.2v19.8h-52.2v19.2h57.7zm-169.3-95.6h50l0.6 0.6h4.4l0.5 0.5h2.8l0.5 0.6h1.7v0.5h1.6l0.6 0.6h1.1l0.5 0.5h1.1l0.6 0.6h0.5l0.6 0.5h0.5l0.6 0.6h0.5l0.6 0.5h0.5l1.7 1.7h0.5l1.1 1.1h0.6v0.5h0.5v0.6h0.6v0.5h0.5v0.6h0.6v0.5l1.6 1.7v0.5h0.6v0.6l0.5 0.5v0.6h0.6v1.1h0.5v1.1h0.6v1.1l0.5 0.5v0.6l0.6 0.5v1.7l0.5 0.5v2.2l0.6 0.5v10.5l-0.6 1.1v1.6l-0.5 0.6v1.6l-0.6 1.1v0.6l-0.5 1.1l-0.6 0.5v0.6l-0.5 1.1l-0.6 0.5v0.6l-0.5 0.5l-0.6 1.1l-2.7 2.8l-0.6 1.1l-1.6 1.6l-1.1 0.6h-0.6l-0.5 0.5l-1.1 0.5l-1.1 1.1l-1.1 0.6h-0.6l-1.1 0.5l-0.5 0.6h-1.1l-0.6 0.5h-1.1l-1.1 0.6h-0.5l-1.1 0.5h-1.1l-0.6 0.6h-1.1l-1.1 0.5h-2.7l-1.1 0.6h-4.4l-1.1 0.5h-23.1v34.1h-23.1zm23.1 41.2h24.2l0.5-0.6h2.8l0.5-0.5h1.7l0.5-0.6h0.6l0.5-0.5h0.6v-0.6h0.5l0.6-0.5v-0.6h0.5v-0.5h0.6v-0.6h0.5v-1.1l0.6-0.5v-1.7l0.5-0.5v-4.4h-0.5v-2.2h-0.6v-1.1h-0.5v-0.6h-0.6v-0.5h-0.5v-0.6h-0.6v-0.5h-0.5v-0.6h-1.1v-0.5h-1.7v-0.6h-2.2l-0.5-0.5h-5.5v-0.6h-20.9z" /></g></svg>