<svg version="1.2" baseProfile="tiny-ps" xmlns="http://www.w3.org/2000/svg" viewBox="0 0 1537 675" width="1537" height="675">
	<title>Q2'22-Earnings-Presentation-2-pdf-svg</title>
	<defs>
		<clipPath clipPathUnits="userSpaceOnUse" id="cp1">
			<path d="M-787.46 -10317.08L19294.7 -10317.08L19294.7 981.38L-787.46 981.38L-787.46 -10317.08Z" />
		</clipPath>
		<clipPath clipPathUnits="userSpaceOnUse" id="cp2">
			<path d="M1537.36 4.7L1537.36 680.09L0.77 680.09L0.77 4.7" />
		</clipPath>
	</defs>
	<style>
		tspan { white-space:pre }
		.shp0 { fill: #00213c } 
		.shp1 { fill: #ff3900 } 
	</style>
	<g id="Clip-Path: Page 1" clip-path="url(#cp1)">
		<g id="Page 1">
			<g id="Clip-Path: Mask" clip-path="url(#cp2)">
				<g id="Mask">
					<path id="Path 5" fill-rule="evenodd" class="shp0" d="M1536.74 231.5L1399.2 548.59L1336.12 548.59L1383.4 442.41L1291.36 231.5L1355.06 231.5L1416.24 369.38L1473.56 231.5L1536.74 231.5ZM1178.4 339.46C1178.4 403.07 1129.24 455.8 1061.67 455.8C994.2 455.8 944.42 403.07 944.42 339.46C944.42 275.34 994.2 222.61 1061.67 222.61C1129.24 222.61 1178.4 275.34 1178.4 339.46ZM1119.09 339.46C1119.09 305.88 1096.39 281.09 1061.67 281.09C1026.42 281.09 1004.25 305.88 1003.72 339.46C1004.25 373.15 1026.42 397.32 1061.67 397.32C1096.39 397.32 1119.09 372.52 1119.09 339.46ZM1208.73 149.59L1267.41 115.27L1267.41 446.9L1208.73 446.9L1208.73 149.59ZM922.35 339.46C922.35 403.07 872.46 455.8 806.25 455.8C786.69 455.8 762.74 450.04 746.94 436.76L746.94 536.46L688.27 570.77L688.27 342.71C687.64 275.34 737.53 222.61 805.62 222.61C872.46 222.61 922.35 275.34 922.35 339.46ZM863.04 339.46C863.04 305.88 840.35 281.09 805.62 281.09C770.27 281.09 748.2 305.88 747.57 339.46C748.2 373.15 770.27 397.32 805.62 397.32C840.35 397.32 863.04 372.52 863.04 339.46Z" />
					<path id="Path 6" fill-rule="evenodd" class="shp1" d="M580.43 337.58L336.3 479.96L329.4 484.36L326.89 485.61L315.49 491.99L312.35 493.25L303.57 498.38L294.68 502.77L289.66 506.01L282.12 509.15L274.49 512.29L268.21 515.53L261.31 518.04L254.3 519.93L254.3 520.55L247.4 522.54L241.12 524.42L234.74 525.68L228.47 526.94L227.84 526.94L221.56 528.19L215.18 528.82L209.54 529.45L203.26 530.07L184.96 530.07L179.31 529.45L172.93 528.82L167.28 528.19L162.26 527.56L156.61 526.31L150.23 525.05L146.47 523.8L140.19 521.81L134.44 519.93L128.16 518.04L118.75 514.28L113 511.03L107.35 508.52L101.07 505.38L97.31 502.77L91.55 499.63L86.53 496.39L85.91 496.39L82.14 493.25L77.12 489.48L77.12 629.88L0.77 674.97L0.77 352.23L1.39 342.71L2.02 336.33L2.65 328.06L3.28 320.42L4.53 312.79L7.04 298.87L7.04 298.25L8.3 291.86L10.18 284.86L12.17 279.21L14.05 272.82L14.05 272.2L16.56 266.44L18.44 260.69L20.95 255.04L24.09 249.29L26.6 244.26L26.6 243.53L29.74 238.51L32.98 233.38L36.12 228.36L39.88 223.24L43.65 218.84L46.79 214.97L50.55 210.58L55.05 205.45L57.56 202.94L61.95 198.44L66.97 194.05L71.99 190.18L77.12 185.78L80.26 183.9L85.28 180.03L90.3 176.26L96.05 173.02L100.44 170.51L106.09 167.37L111.11 164.13L111.74 164.13L116.24 161.62L118.75 160.99L121.89 159.74L0.77 89.22L0.77 0.93L245.52 142.58L252.42 146.34L254.93 147.6L266.33 154.61L268.84 155.86L277.63 161.62L285.89 166.74L290.91 170.51L297.81 175.01L304.19 180.03L309.84 184.53L315.49 188.92L321.24 193.42L321.24 194.05L326.26 198.44L331.28 203.57L335.68 207.96L340.07 213.09L344.57 218.22L348.33 223.24L351.47 228.36L355.24 233.38L358.37 238.51L361.62 243.53L364.13 249.29L366.64 254.41L369.15 260.06L371.66 265.82L373.54 270.31L375.42 275.96L376.68 282.34L377.93 286.11L379.19 291.86L380.44 298.25L381.8 304.52L383.06 311.53L383.06 314.78L384.31 321.68L384.31 328.06L384.94 334.44L384.94 345.85L384.31 351.6L384.31 357.35L383.06 363.63L504.07 293.12L580.43 337.58ZM308.59 337.58C308.59 274.08 257.44 222.61 193.74 222.61C130.67 222.61 79.63 274.08 79.63 337.58C79.63 401.19 130.67 452.55 193.74 452.55C257.44 452.55 308.59 401.19 308.59 337.58Z" />
				</g>
			</g>
		</g>
	</g>
</svg>