<svg version="1.2" baseProfile="tiny-ps" xmlns="http://www.w3.org/2000/svg" viewBox="0 0 1654 1239" width="1654" height="1239">
	<title>logo-paramount-svg</title>
	<style>
		tspan { white-space:pre }
		.shp0 { fill: #294b8e } 
		.shp1 { fill: #748ab5 } 
		.shp2 { fill: #848484 } 
	</style>
	<path id="Layer" class="shp0" d="M1335.82 912.42L897.51 312.95L852.47 321.76L754.89 178.18L665.14 208.85L305.48 912.42L0 912.42L0 1238.42L338.77 1238.42L675.26 249.97L739.55 229.41L834.52 372.01L892.62 360.92L1294.38 1238.42L1653.71 1238.42L1653.71 912.42L1335.82 912.42" />
	<path id="Layer" class="shp1" d="M1313.63 649.72L944.84 218.31L875.65 228.43L775.45 90.72L652.08 128.57L277.41 649.72L0 649.72L0 867.71L277.41 867.71L654.37 174.26L765.01 136.73L860.31 274.77L903.71 266.94L1348.23 867.71L1653.71 867.71L1653.71 649.72L1313.63 649.72" />
	<path id="Layer" class="shp2" d="M1335.17 476.77L997.38 114.87L901.1 134.12L791.77 0L634.13 45.36L259.46 476.77L0 476.77L0 610.23L259.46 610.23L641.97 91.7L781.33 49.6L889.35 182.42L950.06 178.83L1335.17 610.23L1653.71 610.23L1653.71 476.77L1335.17 476.77" />
</svg>