<svg version="1.2" baseProfile="tiny-ps" xmlns="http://www.w3.org/2000/svg" viewBox="0 0 1608 1654" width="1608" height="1654">
	<title>praxis-logo-white-x-svg</title>
	<style>
		tspan { white-space:pre }
		.shp0 { fill: #50b580 } 
		.shp1 { fill: #5dc0c9 } 
	</style>
	<g id="#50b580ff">
		<path id="Layer" class="shp0" d="M1519.18 0L1526.14 0C1279.83 258.63 1036.91 520.42 791.55 779.89C665.39 642.92 535.33 509.55 410.86 371C538.71 456.68 663.49 546.8 790.92 633.22C1033.42 421.97 1276.67 211.35 1519.18 0Z" />
		<path id="Layer" class="shp0" d="M138.71 1591.96C364.55 1350.64 591.13 1110.06 816.76 868.42C943.87 1005.06 1074.46 1138.55 1198.72 1277.62C1071.82 1190.36 945.13 1102.67 818.66 1014.88C573.73 1227.5 330.06 1441.7 84.39 1653.48C99.37 1630.37 120.25 1612.11 138.71 1591.96Z" />
	</g>
	<g id="#5dc0c9ff">
		<path id="Layer" class="shp1" d="M0.95 70.91C56.33 119.02 106.12 173.26 156.85 226.13C358.86 427.46 557.27 632.37 759.06 834.02C615.92 954.63 473.94 1076.82 328.26 1194.37C422.04 1072.17 517.19 951.04 611.38 829.17C408.12 576.24 203.79 324.15 0.95 70.91Z" />
		<path id="Layer" class="shp1" d="M850.09 813.34C993.34 693.89 1134.79 572.33 1278.88 453.94C1187.54 577.5 1090.17 696.63 997.88 819.46C1201.04 1071.54 1404.94 1322.99 1607.47 1575.6C1566.01 1542.26 1530.67 1502.27 1494.07 1463.86C1278.46 1247.97 1064.23 1030.71 850.09 813.34Z" />
	</g>
</svg>