<svg version="1.2" xmlns="http://www.w3.org/2000/svg" viewBox="0 0 1684 713" width="1684" height="713">
	<title>Screenshot 2022-02-06 at 18-svg</title>
	<style>
		.s0 { fill: #85878a } 
		.s1 { fill: #f8d668 } 
		.s2 { fill: #e8b13c } 
	</style>
	<g id="#85878aff">
		<path id="Layer" fill-rule="evenodd" class="s0" d="m457.8 8.3c47.3-6.3 95.6-11.4 143.1-4.2c20.4 4.6 40.7 10.5 58.9 21.1c33.5 19.5 58.1 54.2 63.5 92.7c2.8 28.5 1.8 58.3-10.2 84.7c-9.6 21.6-23.8 41.7-43.6 55.1c-27.1 21.1-61.6 29.6-95.2 33.3c-23.2 1.3-46.6 0.3-69.7-2.5c-0.1 36.6 0.3 73.2 0 109.7c-0.2 15.3 2.4 30.6 0.8 45.9c-15.9 0.1-31.7 0-47.5 0c-0.1-145.3 0.1-290.5-0.1-435.8zm49.4 39.8c-0.6 1.3-1.8 4-2.4 5.3c0 37.9-0.5 75.8-0.1 113.8c2.2 25.7 0.5 51.5-0.3 77.3c13.8 4.3 28.3 2.9 42.5 4.2c26.3 1.3 53.8-1.2 77.2-14.3c23.3-11.5 40.1-34.2 46.2-59.3c7-28.3 4.6-60.2-12-84.8c-13.4-21.7-36.2-36.5-60.8-42.4c-29.6-7.1-60.4-3.5-90.3 0.2z" />
		<path id="Layer" class="s0" d="m1459.2 3.5q23 0 46 0c0 75.4 0 150.9 0 226.3c24.4-23.6 56.1-43.8 91.3-41.9c30.9-2 64.1 13.3 77.3 42.4c9.7 17.6 8.1 38.1 9.4 57.5c-0.2 52 0.1 104.1 0 156.1c-15.9 0.4-31.9 0.2-47.8 0.2q0-83.2 0-166.5c0-13.5-4.1-27.5-13.9-37.1c-9.3-10.5-24-13.1-37.3-14c-30.9 1.8-58.6 19.7-79.1 42c0.2 58.5 0.1 117.1 0.1 175.6c-15.3 0-30.7 0-46 0q0-220.3 0-440.6z" />
		<path id="Layer" fill-rule="evenodd" class="s0" d="m815.2 189.4c12-2.3 24.4-1.3 36.6-1.4c37.2 1.8 72.3 22.9 92.5 54c21 31.2 25.5 71.2 18.6 107.5c-8.2 43.1-40.5 81.6-83 94.1c-18.3 6.8-38.2 5.6-57.5 5c-18.7-2.7-36.9-9.4-52.8-19.5c-26.1-18.1-45.4-45.9-51.9-77.2c-2.8-15.7-6.4-31.8-3.2-47.7c2.7-24.1 10.1-48.1 25-67.5c17.9-24.9 45.7-41.5 75.7-47.3zm-36.7 66.7c-20.1 28.4-22.4 65.7-13.5 98.5c5.7 13.3 11.8 26.9 22.8 36.6c20.4 19.2 51.6 24.6 77.8 15.8c16.7-4.9 29.9-17.7 39.6-31.6c18.4-32.5 19.1-74.1 3.4-107.7c-5.5-12-15.3-21.2-25.4-29.3c-32.3-22.1-82-15-104.7 17.7z" />
		<path id="Layer" class="s0" d="m1103.1 202.1c16.5-9.1 35.2-15.6 54.4-14.1c0 15.4 0 30.8 0 46.2c-32.1-1.8-66.1 10.4-86.4 36.1c0.1 57.9 0 115.8 0 173.7c-16.2 0.2-32.4 0.2-48.5 0.1c-0.1-83.8 0-167.6-0.1-251.4c15-2 30.2-1.6 45.3-1.6c1.1 13.8 0.7 27.7 0.8 41.5c10.6-11 20.9-22.9 34.5-30.5z" />
		<path id="Layer" class="s0" d="m1219.7 227.9c25.7-27.5 64.2-42.1 101.6-40c21.3-0.8 41.9 6 61.3 14c6.9 3.3 14.7 5.9 19.7 12.1c-4.6 12.2-12.2 23.1-17.8 34.9c-21.9-11.1-45.4-21.8-70.6-20.1c-23-1.6-45.7 8.2-61.8 24.4c-19.5 22.1-27.1 53.4-22.4 82.2c4.4 23.1 17.1 45.4 37.4 58c21.9 15.7 50.7 17.8 76.3 12.1c15.6-3.3 29.8-10.7 44.1-17.6c5.2 11.8 10.5 23.6 15.7 35.5c-19.1 12.9-41.5 20.3-64.1 24.7c-13.3 1.4-26.8 1-40.2 0.4c-32.7-4.4-64.4-19.6-85.6-45.4c-42.2-48.8-38.9-129.5 6.4-175.2z" />
		<path id="Layer" class="s0" d="m485.4 523.7c12.5-5.6 26.4-4.5 39.8-4.2c15.9 0.6 30.2 8.7 43.1 17.2q-4.1 6-8.1 12c-18.5-10.7-40.6-20-62.2-13.7c-21.8 4.5-38.8 23.4-43.1 45c-5.3 16.1-0.6 33.5 7.5 47.8c9 16.6 27.3 25.9 45.3 28.8c9.2 2.1 18.3-0.9 27.4-1.9c6-2.6 11.9-5.2 17.8-7.9q0-17.7 0-35.5q-19.6 0-39.3 0q-0.1-7.9-0.1-15.8c18.6 0 37.2 0 55.8 0.1c-0.1 19.5 0.3 39.1-0.3 58.7c-21.4 14.4-48.9 21.5-74.2 14.4c-25.3-5.6-47.7-24.8-55.6-49.7c-4-11.8-3.9-24.6-2.6-36.8c3.8-26.7 24.2-48.8 48.8-58.5z" />
		<path id="Layer" class="s0" d="m609.7 595.9c8.5-7.5 18.8-12 29.7-14.8q0.3 8.2 0.4 16.4c-11.2 0.5-21.8 4.9-30 12.5c0.2 19.6 0.1 39.3 0.1 58.9q-8.2 0-16.4 0q0-42.2 0-84.4q8.2 0 16.4 0q-0.1 5.7-0.2 11.4z" />
		<path id="Layer" fill-rule="evenodd" class="s0" d="m685.1 583.3c10.5-3.3 21.4 0.6 30.8 5.1c14.1 7.1 19.7 23.7 21.1 38.4c-1.3 11.5-4.9 23.4-13 31.9c-16.7 16-46.6 15.5-62.2-1.6c-14.8-16.6-15.2-44.1-0.4-60.7c6.1-7 14.8-11.1 23.7-13.1zm0.6 13.1c-18 5.1-22.7 28.2-16.7 43.8c4.8 14.5 24 23.1 37.2 14.1c18.8-11 19.8-41 2.9-54c-6.5-5.4-15.6-6-23.4-3.9z" />
		<path id="Layer" fill-rule="evenodd" class="s0" d="m873.7 590.4c10.8-5.4 23.4-11.2 35.7-6.8c23 5.2 35.9 32.2 29.3 53.9c-3.7 16.1-17.2 29.9-33.8 32.1c-10.8 2.2-21.7-0.9-31.8-4.3c0 15.6-0.1 31.3 0 46.9q-8.1 0-16.2 0c0-42.7-0.1-85.4 0-128.2c6.3 0.5 13.8-0.5 16.8 6.4zm-0.7 13.7c0.1 15.1 0.1 30.2-0.1 45.2c9.6 5.4 21.2 11.7 32.2 6.8c21.6-7.6 26.5-40.1 8.6-54.2c-11.6-11.2-29.1-5.9-40.7 2.2z" />
		<path id="Layer" class="s0" d="m756.5 584.5q8.1 0 16.1 0c0.3 18.4-0.4 36.8 0.3 55.2c0.1 9.6 7.9 17.9 17.5 18.1c10-0.9 18.2-7.5 25.7-13.5c-0.1-19.9 0-39.8 0-59.8q8.2 0 16.4 0c0 28.1 0 56.3 0 84.4q-8.2 0-16.3 0q0-5.4 0-10.7c-11 8.2-24.9 14.8-38.9 11.1c-11.9-2-20.2-13.2-20.5-24.9c-0.7-20 0-39.9-0.3-59.9z" />
	</g>
	<g id="#f8d668ff">
		<path id="Layer" class="s1" d="m13.4 171.5c55-37.2 110.4-73.9 165-111.7l-0.1 2.2c-1.6 39-0.3 78-0.7 117c-59.1 39.4-117.3 80.2-176.7 119c-0.2-37.1-0.2-74.2-0.1-111.3c-1.1-8 7.4-11.2 12.6-15.2z" />
	</g>
	<g id="#e8b13cff">
		<path id="Layer" class="s2" d="m178.3 62c59.1 38.5 116.9 79.1 175.8 117.9c0.2 39.6 0.4 79.1 0 118.7c-28.3-18.2-55.8-37.6-83.8-56.3c-30.7-21.4-62.3-41.4-92.7-63.3c0.4-39-0.9-78 0.7-117z" />
	</g>
</svg>