<svg version="1.2" xmlns="http://www.w3.org/2000/svg" viewBox="0 0 1553 375" width="1553" height="375">
	<title>PardesLogo_RGB-2-svg</title>
	<style>
		.s0 { fill: #f7871c } 
		.s1 { fill: #99c4ff } 
	</style>
	<path id="Layer" class="s0" d="m0.2 168.6v-165.1h66.6v96.3c73.5 0 133.2 61.6 133.2 137.5 0 75.9-59.5 137.5-133.2 137.5v-68.7c36.7 0 66.6-30.9 66.6-68.8 0-37.8-29.8-68.7-66.6-68.7z"/>
	<path id="Layer" class="s1" d="m66.8 209.8c36.8 0 66.6-30.8 66.6-68.8 0-37.9-29.9-68.8-66.6-68.8v-68.7c73.7 0 133.2 61.6 133.2 137.5 0 75.9-59.7 137.5-133.2 137.5v96.3h-66.6v-165z"/>
	<path id="Layer" fill-rule="evenodd" class="s1" d="m257.2 2.1h72c7.9 0 15.2 1.4 21.6 4.1 6.5 2.8 11.8 6.6 16.4 11.7 4.6 4.9 8.2 10.8 10.6 17.4 2.5 6.7 3.7 13.7 3.7 21.3 0 7.6-1.2 14.7-3.7 21.2-2.4 6.5-6 12-10.6 16.8-4.6 4.6-10.1 8.2-16.4 10.9-6.4 2.7-13.7 4-21.6 4h-37.8v61.1h-34.2zm66.4 78.6c9.9 0 16.9-2.4 21.2-7q6.5-6.9 6.5-18c0-7.2-2.2-13-6.5-17.5-4.3-4.5-11.3-6.8-21.2-6.8h-32.4v49.5h32.4zm136.7 89.8c-1-3.2-1.7-7-2-11.1-3.9 4.4-8.8 7.9-15.1 10.5-6.3 2.7-13.3 3.9-21.6 3.9-14 0-24.1-3.1-30.6-9.5q-9.6-9.5-9.6-24.7 0-13.5 4.1-21.4c2.8-5.4 6.6-9.5 11.5-12.5q7.4-4.5 17.5-6.7c6.8-1.4 14.3-2.6 22.3-3.9 8-1.1 13.3-2.7 16.3-4.8q4.1-2.8 4.1-9.5 0-6.2-5.5-9.5c-3.7-2.2-8.6-3.5-14.9-3.5-7.4 0-12.6 1.8-15.8 5.1-3.3 3.3-5.3 7.9-6 13.5h-29.8c0.1-6.5 1.2-12.4 3.1-17.8 1.8-5.4 4.9-10 9-13.9 4.2-4 9.7-6.8 16.3-9 6.8-2.1 14.9-3.2 24.6-3.2 9.5 0 17.5 1.1 24.2 3.3 6.6 2.2 12 5.4 16 9.5 4 4.1 6.9 9.4 8.7 15.5q2.8 9.3 2.8 21v78.9h-29.6zm-2.2-61.2c-1.7 1.7-4 3-7 4.1-3.1 1-7.7 2.1-13.6 3.3q-13.8 2.9-18.8 7.2c-3.4 2.8-5.3 6.9-5.3 12.3 0 9.4 5.3 14 15.5 14 4.2 0 7.9-0.8 11.4-2.2 3.5-1.5 6.6-3.4 9.1-5.9 2.6-2.4 4.6-5.4 6.1-8.6q2.3-5 2.3-10.4zm45.9-63.5h30v14.8c2.6-4.2 5.3-7.4 8.2-9.8 3-2.4 5.9-4.1 8.9-5.4q4.7-1.9 9.3-2.3c3-0.4 6.3-0.5 9.5-0.5h4.1v33.7c-2.9-0.4-5.8-0.8-8.9-0.8-19.5 0-29.2 10-29.2 30.1v65h-31.9zm155.2 124.7l-0.3-15.2q-11 18.5-33.6 18.5c-7.7 0-14.7-1.6-21.2-4.6-6.4-3-11.8-7.4-16.4-13.1-4.6-5.7-8.2-12.9-10.8-21.1-2.6-8.2-4-17.6-4-28.2 0-9.5 1.1-18.1 3.4-26q3.2-11.9 9.7-20.4 6.4-8.6 15.7-13.3c6.1-3.2 13.2-4.8 21-4.8q22.3 0 35.9 19.5v-61.8h31.5v170.3h-30.9zm-26.5-23.6c7.6 0 14.1-3.3 19.3-9.8 5.2-6.7 7.7-15.2 7.7-25.8 0-27.1-8.9-40.6-26.7-40.6-18.3 0-27.5 12.8-27.5 38.5 0 11.1 2.6 20.3 7.7 27.3 4.9 6.9 11.5 10.4 19.5 10.4zm100.5-30.2c0.5 9.5 3.3 16.9 8 22.5 4.8 5.5 11.2 8.3 19 8.3 5.3 0 9.9-1.2 13.9-3.6 4-2.4 6.6-5.9 7.6-10.3h32.9c-3.8 12.8-10.3 22.7-19.7 29.6-9.3 7-20.4 10.5-33.4 10.5-40.2 0-60.5-22.7-60.5-68 0-9.6 1.4-18.4 4-26.1 2.6-7.8 6.4-14.4 11.3-20 5.1-5.5 11.1-9.8 18.3-12.8 7.2-3 15.5-4.4 24.9-4.4q28.1 0 42.4 18.5c9.5 12.3 14.4 30.9 14.4 55.8zm50.3-20.8c-0.1-4.6-0.9-8.6-2.3-12q-2-5.3-5.5-8.6c-2.3-2.2-4.9-4-7.8-5.1-2.9-1.1-6-1.5-9.1-1.5-6.4 0-12 2.3-16.6 7.2-4.6 4.8-7.3 11.6-7.9 20.2h49.2zm116.7-12.4q-1.1-9-6.4-12.8c-3.4-2.4-8.9-3.7-16.3-3.7-6 0-10.7 0.8-14 2.4-3.2 1.6-4.9 4.3-4.9 7.9 0 3.7 1.7 6.5 4.9 8.6q4.9 2.8 14.8 5.7c6.9 2 13.3 3.8 19.6 5.4 6.3 1.6 11.7 3.3 16.4 5.2 6.5 2.7 11.4 6.3 14.8 11.1 3.4 4.6 5.2 11.1 5.2 19.2q0 19.4-13.4 30.4c-8.9 7.3-22.1 10.9-39.4 10.9-18.7 0-33-4.1-42.8-12.2-10-8.1-15.1-18.5-15.4-31.2h32.9c0 5.9 2.1 10.5 6.6 13.6q6.6 4.8 18.4 4.8c5.7 0 10.7-1 15-2.9q6.5-2.8 6.5-10c0-4.4-2-7.4-5.9-9.3-3.8-1.9-8.4-3.5-13.6-4.8-10.2-2.5-18.3-4.7-24.6-6.8-6.3-2-11.5-4.4-15.6-7.3-5.7-3.6-9.7-7.9-12-12.6-2.2-4.8-3.4-9.9-3.4-15.6q0-7.8 2.8-14.7c1.8-4.6 4.7-8.5 8.9-11.7 4.1-3.3 9.3-5.9 15.8-7.8q9.7-2.8 23.5-2.8 26.2 0 38.7 10.4c8.3 7 12.7 17.1 13.6 30.8h-30.7z"/>
	<path id="Layer" fill-rule="evenodd" class="s0" d="m257.2 206.6h80.2c16.2 0 28.3 4.1 36.6 12.3 8.3 8.3 12.6 19.4 12.6 33.6 0 7.3-1.9 13.8-5.7 19.4-3.8 5.7-8.4 9.6-14.3 12 3.4 1.4 6.6 3 9.7 5.2q4.6 3.1 7.8 8.1c2.2 3.3 4 7.1 5.2 11.7 1.4 4.5 2 9.9 2 15.9 0 15.3-5 27.5-15 36.6-10 9-25.3 13.6-45.9 13.6h-73.2zm32.8 29.2v36.4h43c13.8 0 20.6-6 20.6-18.2 0-6.5-1.7-11.1-5.3-14-3.5-2.8-9.3-4.2-17.3-4.2zm43.3 110.5c7.8 0 14-2.2 18.4-6.8 4.5-4.6 6.6-10.3 6.6-17.2q0-11.2-6.4-16.2c-4.3-3.3-10.3-5.1-18.1-5.1h-43.8v45.3zm66.3-141.8h32v30.8h-32zm0 45.6h32v124.7h-32zm105.8 124.7q-14.7 0-26.3-4.8c-7.6-3.2-14.2-7.7-19.4-13.5-5.4-5.7-9.4-12.6-12.2-20.7q-4.1-12.1-4.1-26.6c0-9.8 1.4-18.7 4.3-27 2.9-8 7-15 12.4-20.7 5.4-5.7 12-10.1 19.5-13.3 7.7-3.2 16.3-4.8 26-4.8 9.5 0 17.9 1.6 25.4 4.8 7.6 3.2 14 7.4 19.4 13.1 5.4 5.7 9.3 12.5 12.3 20.6 2.9 8.1 4.3 17.1 4.3 27.1 0 10-1.4 19-4.3 27-3 8-6.9 14.8-12.3 20.5q-8.1 8.6-19.4 13.4c-7.5 3.1-16.2 4.9-25.6 4.9zm29.2-65.5c0-20.9-13.1-37.8-29.2-37.8-16.1 0-29.2 16.9-29.2 37.8 0 21 13.1 37.9 29.2 37.9 16.1 0 29.2-16.9 29.2-37.9zm116.5-24.7q-1.2-9-6.5-12.8c-3.3-2.4-8.9-3.7-16.2-3.7-6 0-10.8 0.8-14 2.4-3.2 1.6-4.9 4.3-4.9 7.9 0 3.7 1.7 6.5 4.9 8.6q4.8 2.9 14.7 5.7c7 2.1 13.4 3.8 19.7 5.4 6.3 1.6 11.7 3.3 16.4 5.2 6.5 2.7 11.4 6.4 14.8 11.1 3.3 4.6 5.2 11.1 5.2 19.2q0 19.5-13.4 30.4c-8.9 7.3-22.1 10.9-39.4 10.9-18.8 0-33-4.1-42.9-12.2-9.9-8.1-15-18.5-15.3-31.2h32.8c0 5.9 2.2 10.5 6.6 13.6q6.7 4.8 18.5 4.8c5.6 0 10.7-1 15-2.9q6.5-2.8 6.5-9.9c0-4.5-2-7.5-5.9-9.4-3.8-1.9-8.4-3.5-13.6-4.7-10.2-2.6-18.3-4.8-24.6-6.9-6.3-2-11.5-4.4-15.7-7.2-5.6-3.7-9.6-8-11.9-12.7-2.2-4.8-3.4-9.8-3.4-15.5q0-7.9 2.7-14.8c1.9-4.6 4.8-8.5 8.9-11.7 4.2-3.3 9.4-5.9 15.9-7.8q9.6-2.8 23.4-2.8 26.3 0 38.7 10.4c8.3 7 12.8 17.2 13.7 30.8h-30.7zm152.1 41.8c-0.7 7.3-2.7 13.8-5.9 19.8-3.3 5.9-7.3 10.9-12.2 15.2-4.9 4.3-10.6 7.5-16.9 9.8-6.3 2.4-13.2 3.5-20.5 3.5-8.2 0-15.7-1.4-22.5-4.1-6.7-2.8-12.5-7-17.5-12.7-4.9-5.7-8.7-12.6-11.3-21-2.8-8.4-4-18.1-4-29.3 0-11.1 1.4-20.8 4-28.9 2.7-8.1 6.4-14.7 11.3-19.9 5-5.3 10.9-9.1 17.9-11.6 6.9-2.5 14.7-3.8 23.1-3.8 7.9 0 15.1 1.1 21.5 3.3 6.5 2.2 12.2 5.4 16.9 9.7 4.8 4.3 8.6 9.3 11.4 15.2 2.7 5.9 4.4 12.5 4.9 19.8h-32.2c-0.8-6.5-3.4-11.4-7.6-15.1-4.1-3.6-9.3-5.3-15.3-5.3-3.4 0-6.6 0.6-9.5 1.7-3 1.1-5.6 3.2-7.7 6-2.2 2.9-4 6.5-5.2 11.1-1.4 4.6-2 10.3-2 17.1 0 13.6 2.3 23.8 7 30.4 4.8 6.7 10.3 9.9 16.5 9.9 6.3 0 11.5-1.8 15.9-5.4 4.5-3.5 6.9-8.7 7.7-15.6h32.2zm10-121.9h32v30.7h-32zm0 45.6h32v124.7h-32zm75.7 67.7c0.5 9.5 3.2 16.9 8 22.4 4.7 5.6 11.2 8.4 19 8.4 5.2 0 9.9-1.2 13.8-3.6 4-2.4 6.6-5.9 7.7-10.3h32.9c-3.9 12.8-10.3 22.7-19.7 29.6-9.3 7-20.4 10.5-33.4 10.5-40.3 0-60.5-22.7-60.5-68 0-9.6 1.3-18.4 4-26.1 2.6-7.8 6.4-14.4 11.3-20 5.1-5.5 11.1-9.8 18.3-12.8 7.2-3 15.5-4.5 24.9-4.5q28.1 0 42.3 18.6c9.6 12.3 14.5 30.9 14.5 55.8zm50.3-20.8c-0.1-4.6-0.9-8.6-2.3-12q-2.1-5.3-5.5-8.6c-2.3-2.2-4.9-4-7.8-5.1-3-1.1-6-1.6-9.1-1.6-6.4 0-12 2.4-16.6 7.3-4.6 4.8-7.4 11.6-8 20.2h49.3zm121.3 77.7v-75.5q0-14.5-4.6-19.5c-3.1-3.3-8.5-5.1-16-5.1-16.5 0-24.8 9.5-24.8 28.7v71.4h-32v-124.6h30.4v18.2c3.9-7.1 8.8-12.5 15.1-16.2 6.3-3.6 14.2-5.4 24.1-5.4 5.7 0 11 1 15.9 2.7 5 1.8 9.1 4.5 12.6 7.9 3.6 3.5 6.3 8 8.3 13 2 5.3 3.1 11.1 3.1 17.9v86.5zm155-48.3c-0.7 7.3-2.7 13.8-5.9 19.8-3.3 5.9-7.3 11-12.2 15.2-4.9 4.3-10.6 7.5-16.9 9.9-6.2 2.3-13.2 3.4-20.5 3.4-8.2 0-15.7-1.4-22.4-4.1-6.8-2.8-12.6-6.9-17.5-12.6-5-5.8-8.8-12.7-11.4-21.1-2.8-8.4-4-18.1-4-29.3 0-11.1 1.4-20.8 4-28.9 2.8-8 6.4-14.7 11.4-19.9 4.9-5.3 10.9-9.1 17.8-11.6 6.9-2.5 14.7-3.8 23.2-3.8 7.8 0 15 1.1 21.4 3.3 6.5 2.3 12.2 5.4 16.9 9.7 4.8 4.3 8.6 9.3 11.4 15.2 2.8 5.9 4.4 12.5 4.9 19.8h-32.2c-0.8-6.5-3.4-11.4-7.6-15-4.1-3.7-9.3-5.4-15.3-5.4-3.4 0-6.6 0.6-9.5 1.7-2.9 1.1-5.6 3.2-7.7 6-2.2 2.9-4 6.5-5.2 11.1-1.4 4.6-2 10.3-2 17.1 0 13.7 2.3 23.8 7 30.5 4.8 6.6 10.3 9.8 16.5 9.8 6.3 0 11.5-1.8 15.9-5.4 4.5-3.5 6.9-8.7 7.7-15.5h32.2zm38.6-8.7c0.4 9.5 3.2 16.9 8 22.4 4.7 5.6 11.2 8.4 19 8.4 5.2 0 9.8-1.2 13.8-3.6 4-2.4 6.6-5.9 7.7-10.3h32.9c-3.9 12.8-10.3 22.7-19.7 29.6-9.4 7-20.4 10.5-33.5 10.5-40.2 0-60.5-22.7-60.5-68 0-9.6 1.4-18.4 4-26.1 2.7-7.8 6.5-14.4 11.4-20 5.1-5.5 11-9.8 18.3-12.8 7.2-3 15.5-4.5 24.8-4.5q28.1 0 42.4 18.6c9.5 12.3 14.4 30.9 14.4 55.8zm50.4-20.8c-0.2-4.6-0.9-8.6-2.3-12q-2.1-5.3-5.5-8.6c-2.3-2.2-4.9-4-7.9-5.1-2.9-1.1-5.9-1.6-9-1.6-6.5 0-12 2.4-16.6 7.3-4.6 4.8-7.4 11.6-8 20.2h49.3zm116.7-12.4q-1.2-9-6.5-12.8c-3.3-2.4-8.9-3.7-16.2-3.7-6 0-10.8 0.8-14 2.4-3.2 1.6-4.9 4.3-4.9 7.9 0 3.7 1.7 6.5 4.9 8.6q4.8 2.8 14.7 5.7c6.9 2 13.4 3.8 19.7 5.4 6.3 1.5 11.6 3.3 16.4 5.2 6.5 2.7 11.4 6.3 14.7 11.1 3.4 4.6 5.3 11.1 5.3 19.2q0 19.4-13.4 30.4c-8.9 7.3-22.1 10.9-39.5 10.9-18.7 0-33-4.1-42.8-12.2-10-8.1-15-18.5-15.3-31.2h32.8c0 5.9 2.2 10.4 6.6 13.6q6.7 4.8 18.4 4.8c5.7 0 10.8-1 15.1-2.9q6.4-2.8 6.4-10c0-4.4-2-7.4-5.8-9.3-3.8-1.9-8.4-3.5-13.7-4.8-10.1-2.5-18.2-4.7-24.5-6.8-6.3-2-11.5-4.4-15.7-7.3-5.7-3.6-9.7-7.9-12-12.6-2.1-4.8-3.3-9.9-3.3-15.6q0-7.8 2.7-14.7c1.9-4.6 4.8-8.6 8.9-11.7 4.2-3.3 9.4-5.9 15.8-7.8q9.7-2.8 23.5-2.8 26.3 0 38.7 10.4c8.3 7 12.8 17.1 13.7 30.8h-30.7zm85.2-32.1h-12.9v35.6h-5.2v-35.6h-12.9v-4.3h31zm12.8-4.4l13 32.6 13.1-32.6h6.9v40h-5.3v-15.6l0.5-16.8-13.1 32.4h-4.1l-13.1-32.3 0.5 16.7v15.6h-5.3v-40z"/>
</svg>