<svg version="1.2" xmlns="http://www.w3.org/2000/svg" viewBox="0 0 845 1570" width="845" height="1570">
	<title>PardesLogo_RGB-2-svg</title>
	<style>
		.s0 { fill: #f7871c } 
		.s1 { fill: #99c4ff } 
	</style>
	<path id="Layer" class="s0" d="m0.6 697.7v-697.6h281.5v407c310.6 0 562.9 260.4 562.9 581.1 0 320.7-251.6 581.1-562.9 581.1v-290.5c155 0 281.4-130.6 281.4-290.6 0-160-125.8-290.5-281.4-290.5z"/>
	<path id="Layer" class="s1" d="m282.1 871.7c155.6 0 281.4-129.9 281.4-290.5 0-160-126.4-290.6-281.4-290.6v-290.5c311.3 0 562.9 260.4 562.9 581.1 0 320.7-252.3 581.1-562.9 581.1v407h-281.5v-697.6z"/>
</svg>