<svg version="1.2" xmlns="http://www.w3.org/2000/svg" viewBox="0 0 1536 517" width="1536" height="517">
	<title>Prog-holdings-logo-02-svg</title>
	<style>
		.s0 { fill: #0094c9 } 
		.s1 { fill: #4a5055 } 
	</style>
	<g id="#0094c9ff">
		<path id="Layer" fill-rule="evenodd" class="s0" d="m132.8 4.8c10.5-6.3 24.5-6.1 34.9 0.2q59 35 117.9 69.9c10.1 6.1 16.6 17.7 16.5 29.5q0 65.9 0 131.7c0 12.1-7 24-17.5 29.9-39.9 23.6-79.8 47.1-119.8 70.7q0 75.3 0 150.5c0.2 8.6-3.2 17.4-10.1 22.8-8.8 7.4-22.3 8.6-32.1 2.5q-54.1-32.4-108.1-64.8c-7.9-4.6-13.6-13.3-13.8-22.6 0-108.1 0-216.3 0-324.4 0-11.3 6.6-22.1 16.4-27.7 38.5-22.7 77.1-45.4 115.7-68.2zm13 19.2c-33.7 19.7-67.2 39.7-100.9 59.4-2.2 1.4-5.4 2.8-5.4 6 0 2.4 2 4 4 5.1 35.7 21.1 71.4 42.1 107.1 63.2 9.1 5.3 14.4 15.7 14.2 26.1 0 39 0 78.1 0 117.1-0.4 3.2 3.5 6.2 6.5 4.9 3.4-1.5 6.5-3.6 9.8-5.5q45.7-27 91.4-54c4.1-2.2 6.9-6.7 6.7-11.3q0-64.8 0-129.5c0.3-4.7-2.5-9.2-6.6-11.5-39-23-78-46.2-117-69.3-2.9-1.7-6.6-2-9.8-0.7zm-122.2 92.6c0.1 102 0 204 0 306-0.4 2.4 1.2 4.4 3.2 5.5q52.9 31.7 105.7 63.4c1.9 1 4.1 2.8 6.3 1.4 2.7-1.1 3.2-4.3 3.1-6.9q-0.1-150.4 0-300.8c0.3-3.3-1-6.9-4.2-8.3-33.6-19.8-67.3-39.7-100.9-59.5-2.4-1.4-4.7-3-7.3-3.9-2.5-0.9-4.3 1.6-5.9 3.1z"/>
	</g>
	<g id="#4a5055ff">
		<path id="Layer" fill-rule="evenodd" class="s1" d="m422.7 112c16.1-2.1 33.1-3.5 48.7 2.2 9.9 3.4 18.4 11.3 21.6 21.4 3.2 10.4 3.1 22-0.9 32.2-3.3 8.4-10.1 15.2-18.2 19-11.6 5.5-24.8 6.4-37.5 5.5q0 23.6 0 47.2-6.8 0.1-13.6 0.1c-0.1-42.6 0-85.1-0.1-127.6zm13.7 10.1q0 29.4 0 58.7c11.5 0.2 23.9 0.3 33.9-6.2 8-5.1 11.5-15.1 11.1-24.3 0.3-8.8-3.6-18-11.4-22.7-10-6.1-22.2-6.3-33.6-5.5zm82.3-10.1c17-2 35-3.8 51.3 2.7 9.7 3.7 17.7 11.7 20.6 21.7 3.6 13.2 2 28.7-7.2 39.4-4.7 5.7-11.3 9.2-18.2 11.7 13.9 17.4 28 34.7 42 52.1-5.7-0.1-11.4-0.1-17-0.1-13.2-16.3-26.3-32.8-39.4-49.1-6.2 0.1-12.4 0.1-18.6 0-0.1 16.4-0.1 32.8-0.1 49.1-4.5 0-8.9 0-13.4 0.1 0-42.6 0-85.1 0-127.6zm13.4 10.4q0 28.4 0 56.9c12.7 0 27 1.3 37.5-7.4 12.5-11.2 12.2-35-2.6-44.2-10.3-6.5-23.1-5.9-34.9-5.3zm135.8-10.9c18.9-3.7 39.6 0 55.1 11.8 12.5 9.3 21 23.7 23.8 39.1 2.6 15.8 1 32.8-7 46.9-9.4 17-27.1 28.9-46.3 31.6-20.6 3.3-43.2-2.5-58.1-17.5-25-24-25.5-68.1-1.8-93.1 9-9.7 21.3-16.2 34.3-18.8zm2.4 12.2c-15.6 3.3-29.3 14.2-35.5 28.9-4.8 10.2-5.1 21.7-4.1 32.7 1.8 13 8.7 25.4 19.2 33.5 13.7 10.7 32.9 13.4 49.3 8 13.5-4.2 24.9-14.7 30.5-27.7 4.5-9.9 5-21 4-31.7-1.8-13.6-8.8-26.6-19.9-34.8-12.3-9.2-28.7-12.2-43.5-8.9zm132.8-6.5c20.6-10.3 46.3-9.3 66 2.6q0 7.8 0 15.6c-19.1-17.2-51.1-17.4-70.1 0-11.5 10.1-17.6 25.8-17 41-0.5 15.8 6.5 31.8 18.9 41.8 16.1 13.4 39.8 14.4 58.7 6.9q0-21.5 0-43 6.8 0 13.6-0.1c0.1 16.8 0 33.6 0.1 50.4-14.5 8.3-31.7 10.4-48.1 8.9-18.1-1.8-35.7-11.2-45.8-26.5-10.9-15.7-13.3-36.1-9.6-54.6 3.7-18.4 16.4-34.8 33.3-43zm-129.8 184.9c4.4-0.1 8.8-0.1 13.2-0.1q0 72.9 0 145.8c-4.4-0.1-8.9 0.1-13.2-0.5 0-48.4 0-96.8 0-145.2zm109.4 0c4.5-0.1 9-0.1 13.5-0.1 0 48.2 0 96.4 0 144.6-17.2 3.4-35.5 5.4-52.5 0.2-13.9-4.1-25.9-15-30-29.1-5.8-19.1-1.4-42.9 15.5-55.1 15.2-11.2 36.3-13.5 53.8-6.7 0.2-9.3 0.1-18.5 0.1-27.8 0.2-8.7-0.6-17.3-0.4-26zm-54.1 81c-3.9 7.6-4.3 16.4-3.4 24.8 1.4 10.5 7.9 20.4 17.5 25.2 12.4 6.6 27 5.8 40.5 4.1-0.6-9.9 0.1-19.8-0.3-29.7 0.9-13.1-1.2-26.1 0.4-39.1-8.9-4.5-19.2-5.1-28.8-3.7-10.8 1.7-21 8.4-25.9 18.4zm103-67.1c7.7-2.8 15.6 5.9 12 13.2-2.6 6.3-11.6 8-16.1 2.9-5.1-4.8-2.7-14.4 4.1-16.1zm-408.9 4.3q6.9 0 13.7 0 0 28.3 0 56.6c25.9 0 51.8 0 77.8 0q0-28.3 0-56.5 6.7-0.1 13.4-0.1 0 63.7 0 127.4-6.7 0-13.4 0 0-29.4 0-58.7-38.9 0-77.8 0 0 29.3 0 58.7-6.8 0-13.7 0 0-63.7 0-127.4zm839.7 0q6.8 0 13.6 0 0 63.7 0 127.4c-4.5 0-9.1 0-13.6 0q0-63.7 0-127.4zm-667.8 32.3c13.6-1.8 28.4 1.4 38.7 10.8 7.6 6.6 12.3 16 14.3 25.9 2.4 15.1 0.7 31.8-9.2 44.1-12 15.4-34.1 19.9-52.2 14.3-13.7-4-24.7-15.3-28.9-28.8-4-13-3.6-27.6 1.7-40.1 5.9-14.5 20.2-24.6 35.6-26.2zm-2.6 12.3c-14.8 4-24 19.3-23.8 34-0.8 11.3 2.6 23.2 11 31 9.5 9.1 24.6 11 36.5 5.7 8.9-4 15.4-12.4 18-21.8 4.1-14.9 1.1-33.1-11.3-43.2-8.4-6.8-20.2-8.7-30.4-5.7zm281.1-5.9c16.1-5.4 33.4-8.5 50.4-6.1 9.1 1.3 18.4 5.8 22.9 14.2 2.6 4.8 3.8 10.3 3.7 15.7 0 21.7 0 43.3 0 64.9q-6.4 0-12.8 0c0-19.5 0-39.1 0-58.7 0-5.8-0.9-12.1-4.7-16.8-4.1-4.8-10.4-7-16.6-7.6-10-0.8-20 0.8-29.7 3.1-0.1 26.3 0.2 52.6-0.1 78.9-3.5 2.5-8.9 0.5-13.1 1.1q0-44.3 0-88.7zm124.4-0.2c18.8-9.6 41.5-8 60.8-0.8 0 26.9 0 53.8 0 80.7 0 8.6 0.7 17.4-2.4 25.5-3.9 11.4-14.4 19.6-25.9 22.4-14.5 3.7-29.9 1.7-43.7-3.7q0-6.5 0-12.9c11.2 5.3 23.9 8.6 36.3 6.6 8.4-1.3 16.2-6.6 19.7-14.5 2.5-5.4 2.7-11.3 3.4-17.1-13.4 5.1-28.5 4.7-42 0.3-11.3-3.7-21.2-12-25.7-23.1-5.2-12.8-5.4-27.4-0.9-40.4 3.5-9.9 11-18.2 20.4-23zm10.2 9c-8 3.1-14.7 9.5-17.8 17.6-6 15.4-2.6 36.1 12.2 45.3 12.9 8 29.5 8 43.3 2.6q0-33.2 0-66.3c-12.1-3.9-25.7-4-37.7 0.8zm99-15.2c11-1.5 22.7 0.4 32.2 6.5 0 4.8 0 9.7 0.1 14.5-5.7-4.4-11.9-8.5-19.2-9.7-6.4-1.1-14-1-19.1 3.6-6 5.3-5.6 16.2 1 20.9 8.5 6.3 19.6 6.9 28.7 12.3 5.9 3.3 10.9 9 12.2 15.9 1.1 7.7 0.6 16.5-4.7 22.8-5.5 6.9-14.5 9.9-23.1 10.4-10.5 0.7-21.4-1.3-30.2-7.1 0-5.2 0-10.3 0-15.5 9.6 9.7 24.9 14.8 38 9.4 9-3.8 10.4-17.6 2.8-23.5-7.2-5.5-16.3-6.8-24.4-10.4-7.3-3-14.4-8.4-16.2-16.4-1.5-7.6-1.6-16.3 2.9-23 4.1-6.4 11.6-9.7 19-10.7zm202.9 6.8c13.9-5.3 28.9-7.7 43.7-7.2 10.4 0.5 22 3.2 28.4 12.1 4.4 6 5.7 13.6 5.7 20.9-0.1 20.8 0 41.7-0.1 62.5q-6.5 0-13 0c0-19.1 0-38.3 0-57.4 0-5.9-0.4-12.1-3.9-17-3.6-5.3-10-7.7-16.1-8.5-10.4-1.2-20.9 0.5-31.1 2.9q0 40 0 80-6.6 0-13.2 0c-0.3-29.4 0.4-58.9-0.4-88.3zm115.7 5.8c16.1-15.4 42.3-17 61.2-6q0 6.9 0 13.9c-9.2-6.1-20.3-10.2-31.5-8.6-10.6 1.2-20.9 7.4-25.9 17-8.1 15.3-6.2 36.9 7.7 48.3 9.1 7.5 21.8 9.5 33.2 7.1 6.5-1.4 12.4-4.6 18.1-7.9-0.1 4.6 0 9.3 0 14-9.1 4.3-19 7.3-29.1 6.9-16.9 0.2-34-8.8-42.1-23.9-10-19.2-7.7-45.5 8.4-60.8zm-597.2-11q6.4 0 12.8 0 0 46.8 0 93.5-6.4 0-12.8 0 0-46.7 0-93.5zm692.2 75.1c7.1-3.8 16.7 2.6 15.5 10.6-0.5 7.7-10.2 12.7-16.6 8.2-6.8-4.2-6.3-15.6 1.1-18.8zm-349.8 0.9c5.2 0.2 10.3 0.1 15.5 0.2-0.8 15.4-6.6 31-18.3 41.5-3.5 4.1-9.3 2.1-14 2.6 11.1-11.9 16.9-28.1 16.8-44.3z"/>
	</g>
</svg>