<svg version="1.2" xmlns="http://www.w3.org/2000/svg" viewBox="0 0 1560 676" width="1560" height="676">
	<title>header-logo (1)-svg</title>
	<defs>
		<clipPath clipPathUnits="userSpaceOnUse" id="cp1">
			<path d="m0 0h1559.51v676h-1559.51z"/>
		</clipPath>
	</defs>
	<style>
		.s0 { fill: #9d0b0f } 
		.s1 { fill: #a50e12 } 
		.s2 { fill: #ae1116 } 
		.s3 { fill: #b61319 } 
		.s4 { fill: #bf151b } 
		.s5 { fill: #c8171d } 
		.s6 { fill: #d0181f } 
		.s7 { fill: #d81a21 } 
		.s8 { fill: #e11b22 } 
		.s9 { fill: #ec1c24 } 
		.s10 { fill: #a60e13 } 
		.s11 { fill: #b01117 } 
		.s12 { fill: #b9131a } 
		.s13 { fill: #c3161c } 
		.s14 { fill: #cd181e } 
		.s15 { fill: #d71921 } 
		.s16 { fill: #e01b22 } 
		.s17 { fill: #a90f14 } 
		.s18 { fill: #dd1a22 } 
		.s19 { fill: #a80f13 } 
		.s20 { fill: #b21217 } 
		.s21 { fill: #be151b } 
		.s22 { fill: #d41920 } 
		.s23 { fill: #de1a22 } 
		.s24 { fill: #a40d12 } 
		.s25 { fill: #ac1015 } 
		.s26 { fill: #b41218 } 
		.s27 { fill: #bc141a } 
		.s28 { fill: #cb171e } 
		.s29 { fill: #d31920 } 
		.s30 { fill: #da1a21 } 
		.s31 { fill: #e21b23 } 
		.s32 { fill: #231f20 } 
		.s33 { fill: none;stroke: #231f20;stroke-width: .9 } 
	</style>
	<g id="Clip-Path" clip-path="url(#cp1)">
		<g id="Layer">
			<path id="Layer" fill-rule="evenodd" class="s0" d="m1438.8 308.6c11.2 8.6 16.4 23.5 11.7 34.9-4.9 11.2-17.2 13.8-28.9 5.2-11.7-8.6-16.4-24.8-11.9-35.7 5.2-11 18.1-13.1 29.1-4.4z"/>
			<path id="Layer" fill-rule="evenodd" class="s0" d="m1469.9 245.1c11.6 9.4 17.5 24.3 13.9 35-4.3 10.7-16.3 12.3-28.7 3-12.2-9.4-18.2-25.6-14.3-35.9 4.6-10.5 17.5-11.2 29.1-2.1z"/>
			<path id="Layer" fill-rule="evenodd" class="s0" d="m1309.1 212c18.4 10.7 26.1 30.2 18.2 44.9-8.8 15.1-30.5 18.5-49.7 7.6-19.2-11.3-26.8-30.9-17.7-45.7 9.8-14.4 31.1-17.4 49.2-6.8z"/>
			<path id="Layer" fill-rule="evenodd" class="s0" d="m1411 199.4c15 10.1 22.4 26.6 17.3 38.8-5.6 11.8-21.6 13.3-37.7 3.3-15.6-10.7-22.9-28.4-17.3-39.8 6.5-11.4 22.5-11.9 37.7-2.3z"/>
			<path id="Layer" fill-rule="evenodd" class="s0" d="m1149.4 527.1c-6.5 10.7-20 14.4-30.1 7.8-10.6-6.4-13.7-19.5-8-30.2 6.4-10.7 19.1-14.2 30-8 10.5 6.5 14.2 20 8.1 30.4z"/>
			<path id="Layer" fill-rule="evenodd" class="s0" d="m1421.4 409.8c-5.4 11.5-18.1 15-28.9 7.1-11.5-7.9-16.1-23.4-10.1-35.2 5.4-11.4 18.2-14.2 29.1-6.3 10.5 8.1 15.1 22.8 9.9 34.4z"/>
			<path id="Layer" fill-rule="evenodd" class="s0" d="m1318.8 434.1c-6.6 12-20.8 15.8-32.4 8-12-7.9-16.6-23.2-10.1-35.3 6.5-11.7 21.2-15.3 32.6-7.5 12 7.6 15.6 22.7 9.9 34.8z"/>
			<path id="Layer" fill-rule="evenodd" class="s0" d="m1195.1 457.2c-7.4 12.2-23.1 17.2-35.9 9.1-12.7-7.6-16.8-23.1-9.5-35.1 7.6-11.9 22.9-16 35.5-9 12.5 7.4 17 22.2 9.9 35z"/>
			<path id="Layer" fill-rule="evenodd" class="s0" d="m1357.8 369.5c-6.8 13.3-23.2 16.9-37.8 7.7-14.4-9.7-20.5-27.7-13.4-41.1 7.2-12.9 23.6-15.8 38-6.9 14.2 9.3 19.6 26.8 13.2 40.3z"/>
			<path id="Layer" fill-rule="evenodd" class="s0" d="m1242.3 386c-8.1 13.5-25.6 17.6-40.2 9.1-14.8-8.3-19.6-25.6-11.7-38.7 8.4-13 25.6-16.6 39.9-8.8 14.4 8.1 19.2 25.3 12 38.4z"/>
			<path id="Layer" fill-rule="evenodd" class="s0" d="m1286.8 319.9c-8.8 14.8-28.4 18.1-46 8.9-17.2-10.2-23.4-28.8-14.6-43.4 9.3-14.3 29-17.8 45.4-8.4 16.5 9.8 22.9 28.6 15.2 42.9z"/>
			<path id="Layer" fill-rule="evenodd" class="s0" d="m1377.4 448.9c9 6.7 12 19.5 7.3 29.9-5.6 10.3-16.7 13.7-25.8 7.4-9.3-6.5-12.2-20-7.5-30.3 5.8-10.4 16.8-13.3 26-7z"/>
			<path id="Layer" fill-rule="evenodd" class="s0" d="m1226 549.8c8.2 4.9 10.3 14.7 5.5 23-4.9 8.3-15.1 11.2-23.3 6.7-7.9-4.7-10.6-14.7-5.7-23 5-8.5 15.3-11.4 23.5-6.7z"/>
			<path id="Layer" fill-rule="evenodd" class="s0" d="m1435 496c5.7 4.5 7.8 13.5 4.1 20.7-3.7 7.3-10.6 9.9-16.9 5.7-5.8-4.3-7.6-13.3-4.2-20.9 4-7.4 10.8-9.7 17-5.5z"/>
			<path id="Layer" fill-rule="evenodd" class="s0" d="m1361.1 635.5c3.4 1.9 4.5 7.1 1.8 11.1-2.6 4.1-6.9 6.1-10.9 3.9-3.7-2.1-4.4-6.8-1.9-11 2.4-4.4 7.5-6 11-4z"/>
			<path id="Layer" fill-rule="evenodd" class="s0" d="m1408.6 664.9c2.3 1.4 3 4.7 1 7.7-1.9 2.8-5.2 4.3-7.5 3-2.5-1.5-2.9-4.9-0.9-7.8 2-2.9 5.1-4.2 7.4-2.9z"/>
			<path id="Layer" fill-rule="evenodd" class="s0" d="m1298.5 596.9c5.1 3 6.9 10.4 3.2 15.9-3.6 6-10.7 7.9-16 5.2-5.5-3.3-6.9-10.1-3.4-16 3.9-5.6 10.2-8.3 16.2-5.1z"/>
			<path id="Layer" fill-rule="evenodd" class="s0" d="m1396.9 571.7c4.3 2.7 5.6 8.8 2.5 13.9-2.7 5-8.2 7-12.4 4.5-4.1-2.8-5.1-8.7-2.4-14 2.8-5.3 8.2-7.1 12.3-4.4z"/>
			<path id="Layer" fill-rule="evenodd" class="s0" d="m1379.9 259.7c15.1 10.1 21.7 28.2 15.6 41.6-6.4 13.2-23.6 16-39.4 6.1-15.6-10.7-22.4-29.3-15.7-42.4 7.1-12.9 24.5-15.4 39.5-5.3z"/>
			<path id="Layer" fill-rule="evenodd" class="s1" d="m1307.3 213.8c16.5 9.4 23.6 27 16.6 40.3-7.8 13.6-27.3 16.6-44.6 7-17.3-10.1-24.2-27.7-16-41 8.6-12.9 27.7-15.8 44-6.3z"/>
			<path id="Layer" fill-rule="evenodd" class="s2" d="m1305.6 215.5c14.7 8.2 21.1 23.8 15 35.6-6.9 12.2-24.1 15.1-39.5 6.6-15.4-8.8-21.6-24.3-14.5-36.2 7.6-11.6 24.5-14.3 39-6z"/>
			<path id="Layer" fill-rule="evenodd" class="s3" d="m1303.7 217.3c12.9 7.2 18.6 20.7 13.4 31-5.9 10.7-20.8 13.4-34.3 6.1-13.5-7.6-19.1-21.1-12.9-31.5 6.5-10.2 21.2-12.7 33.8-5.6z"/>
			<path id="Layer" fill-rule="evenodd" class="s4" d="m1302.2 219c11 5.9 16 17.4 11.6 26.4-4.9 9.2-17.6 11.6-29.2 5.6-11.6-6.3-16.5-17.7-11.4-26.8 5.3-8.8 17.9-11.1 29-5.2z"/>
			<path id="Layer" fill-rule="evenodd" class="s5" d="m1300.3 220.9c9.3 4.7 13.6 14.2 10.1 21.6-3.9 7.7-14.4 10-24 5.1-9.7-5-13.9-14.4-9.9-22 4.3-7.4 14.7-9.5 23.8-4.7z"/>
			<path id="Layer" fill-rule="evenodd" class="s6" d="m1298.6 222.6c7.3 3.5 11 11 8.4 17.1-3 6.1-11.2 8.1-19 4.5-7.7-3.8-11.3-11.2-8.2-17.3 3.2-5.9 11.4-7.8 18.8-4.3z"/>
			<path id="Layer" fill-rule="evenodd" class="s7" d="m1296.7 224.4c5.6 2.4 8.6 7.7 6.9 12.4-2 4.7-8 6.6-13.8 4.1-5.8-2.5-8.7-7.9-6.7-12.6 2.1-4.5 8.2-6.3 13.6-3.9z"/>
			<path id="Layer" fill-rule="evenodd" class="s8" d="m1295 226.2c3.8 1.2 6.1 4.6 5.2 7.7-0.9 3.2-4.8 4.9-8.7 3.6-3.8-1.2-6.1-4.6-5.1-7.8 1.1-3.1 4.9-4.7 8.6-3.5z"/>
			<path id="Layer" class="s9" d="m1289.7 231.1c0-1.8 1.6-3.1 3.5-3.1 1.9 0 3.5 1.4 3.5 3.1 0 1.7-1.6 3.1-3.5 3.1-1.9 0-3.5-1.4-3.5-3.1z"/>
			<path id="Layer" fill-rule="evenodd" class="s0" d="m1433.6 153.7c8.3 5.7 12.9 14.1 10.5 19.8-2.5 5.7-10.6 5.5-19.3 0-8.3-6-12.9-14.7-10.5-20.1 2.8-5.4 11-4.9 19.3 0.3z"/>
			<path id="Layer" class="s0" d="m1350 102.6c5.6 0 12.1 1.9 18.4 5.4 12.5 7.4 19 18.5 15.1 26.1-2.4 4-7.3 5.9-13.1 5.9-5.7-0.1-12.2-1.8-18.5-5.3-13.2-7.5-19.4-19.3-14.7-26.5 2.5-3.8 7.2-5.7 12.8-5.6z"/>
			<path id="Layer" fill-rule="evenodd" class="s10" d="m1367.7 109.2c10.9 6.6 16.5 16.4 12.9 23.1-2.3 3.4-6.6 5.2-11.7 5.1-5-0.1-10.7-1.7-16.2-4.8-11.6-6.6-16.9-17-12.8-23.4 2.3-3.4 6.4-5 11.4-5 5 0 10.9 1.7 16.4 5z"/>
			<path id="Layer" fill-rule="evenodd" class="s11" d="m1367 110.2c9.3 5.8 14 14.4 10.7 20.1-2 3-5.8 4.4-10.3 4.3-4.2-0.1-9.2-1.6-14-4.3-9.9-5.7-14.5-14.7-10.9-20.2 2.1-2.9 5.6-4.3 10-4.3 4.6 0 9.7 1.6 14.5 4.4z"/>
			<path id="Layer" fill-rule="evenodd" class="s12" d="m1366.2 111.3c7.8 5 11.4 12.2 8.5 17-1.7 2.5-5 3.7-8.8 3.5-3.6 0-7.8-1.4-11.8-3.7-8.3-4.9-12-12.4-8.9-17.1 1.7-2.4 4.8-3.6 8.6-3.6 4 0 8.5 1.4 12.4 3.9z"/>
			<path id="Layer" fill-rule="evenodd" class="s13" d="m1365.4 112.6c6.3 4.2 9.1 10.1 6.4 14-1.5 2-4.3 2.9-7.4 2.7-3-0.2-6.4-1.3-9.6-3.3-6.6-4-9.5-10.1-7-13.9 1.5-2 4.1-3.1 7.3-3.1 3.4 0 7.2 1.3 10.3 3.6z"/>
			<path id="Layer" fill-rule="evenodd" class="s14" d="m1364.6 113.8c4.6 3.4 6.5 8 4.2 10.9-1.3 1.4-3.5 2.1-6 1.9-2.3-0.3-4.9-1.2-7.3-2.8-5-3.1-7.1-7.8-5.1-10.7 1.3-1.7 3.4-2.5 5.9-2.5 2.9 0 6.1 1.1 8.3 3.2z"/>
			<path id="Layer" fill-rule="evenodd" class="s15" d="m1363.9 114.8c3.2 2.6 4 6 2.1 7.9-1.2 1-2.8 1.3-4.6 1.1-1.7-0.3-3.5-1.1-5.1-2.3-3.3-2.2-4.6-5.5-3.1-7.6 0.9-1.1 2.6-1.7 4.4-1.7 2.4 0 4.8 1 6.3 2.6z"/>
			<path id="Layer" fill-rule="evenodd" class="s16" d="m1363.2 115.9c1.5 1.8 1.4 3.9-0.2 4.9-0.9 0.4-1.9 0.5-3.1 0.2-1-0.2-2.1-0.8-2.9-1.7-1.7-1.3-2.2-3.2-1.2-4.4 0.7-0.7 1.8-1.2 3.1-1.2 1.8 0 3.6 1 4.3 2.2z"/>
			<path id="Layer" class="s9" d="m1357.8 117.2c0-1 1.1-1.8 2.4-1.8 1.3 0 2.3 0.8 2.3 1.8 0 0.9-1 1.7-2.3 1.7-1.3 0-2.4-0.8-2.4-1.7z"/>
			<path id="Layer" class="s0" d="m1374.3 74.2c3.6 0 8.3 1.2 12.9 3.7 8.1 4.5 12.4 11.1 10.4 15.3-2.6 3.8-11.3 3.6-19.3-1.1-6.8-4-11-8.8-11-12.8 0-1 0.2-1.9 0.7-2.7 1.2-1.5 3.4-2.3 6.3-2.4z"/>
			<path id="Layer" fill-rule="evenodd" class="s17" d="m1369.8 79.6c0.1-0.7 0.4-1.5 0.8-2.1 1-1.3 2.9-1.9 5.3-1.9 3.1 0 6.9 1 10.7 3.1 6.8 3.8 10.3 9.4 8.5 12.9-2.3 3.1-9.6 2.9-16.3-1.1-5.6-3.3-9.1-7.5-9-10.9z"/>
			<path id="Layer" fill-rule="evenodd" class="s3" d="m1372.5 80c0-0.6 0.3-1.2 0.8-1.7 0.8-1.1 2.3-1.5 4.3-1.4 2.4 0.1 5.5 1 8.5 2.7 5.3 3.1 8 7.6 6.5 10.4-1.9 2.5-7.9 2.3-13.3-1.1-4.6-2.8-7.1-6.1-6.8-8.9z"/>
			<path id="Layer" fill-rule="evenodd" class="s13" d="m1375 80.5c0.2-0.4 0.5-0.8 0.9-1.1 0.7-0.7 1.9-1.1 3.3-0.9 1.9 0.1 4.1 0.9 6.3 2.2 3.8 2.3 5.8 5.7 4.6 7.8-1.7 1.9-6.3 1.6-10.4-1.1-3.3-2.3-5.1-4.9-4.7-6.9z"/>
			<path id="Layer" fill-rule="evenodd" class="s6" d="m1377.5 80.9c0.3-0.3 0.6-0.5 0.9-0.7 0.6-0.4 1.4-0.5 2.4-0.3 1.2 0.2 2.6 0.8 4 1.7 2.6 1.6 3.8 3.9 2.8 5.3-1.3 1.2-4.6 0.9-7.3-1-2.3-1.8-3.3-3.7-2.8-5z"/>
			<path id="Layer" fill-rule="evenodd" class="s18" d="m1380.2 81.3c0.3-0.2 0.7-0.2 1-0.2 0.4-0.2 0.9-0.1 1.4 0.2 0.5 0.3 1.2 0.7 1.7 1.2 1.2 0.9 1.6 2.1 0.9 2.8-1.2 0.6-3.2 0.2-4.5-1-1.1-1.2-1.2-2.4-0.5-3z"/>
			<path id="Layer" class="s9" d="m1381.2 82.7c0-0.6 0.7-1.1 1.5-1.1 0.8 0 1.5 0.5 1.5 1.1 0 0.6-0.7 1-1.5 1-0.8-0.1-1.5-0.5-1.5-1z"/>
			<path id="Layer" class="s0" d="m1097.1 61.3c3.3 0 6.4 0.4 9.3 1.1 7.8 2.1 11.9 6.6 11.9 11.6 0 2.8-1.3 5.8-4.1 8.7-6.2 6.1-17.1 9.7-27.1 9.7-3.3 0-6.6-0.4-9.5-1.2-7.4-2.3-11.2-6.6-11.2-11.3 0-3.1 1.5-6.3 4.7-9.3 6.2-6.2 16.5-9.4 26-9.3z"/>
			<path id="Layer" fill-rule="evenodd" class="s10" d="m1104.9 63.5c6.8 1.9 10.5 5.8 10.5 10.2 0 2.6-1.2 5.3-3.7 7.9-5.4 5.4-15 8.6-23.9 8.6-3 0-5.9-0.4-8.6-1.2-6.5-1.9-9.8-5.8-9.8-10 0-2.7 1.3-5.6 4.1-8.2 5.5-5.4 14.6-8.3 23.1-8.3 2.9 0 5.7 0.4 8.3 1z"/>
			<path id="Layer" fill-rule="evenodd" class="s11" d="m1103.4 64.9c5.9 1.6 9.1 5.1 9.1 8.9-0.1 2.3-1.2 4.6-3.3 6.9-4.8 4.6-13 7.4-20.8 7.4q-4 0-7.6-1c-5.6-1.7-8.5-5-8.5-8.7 0-2.5 1.2-5 3.7-7.3 4.7-4.7 12.5-7.2 20-7.2 2.6 0 5.1 0.3 7.4 1z"/>
			<path id="Layer" fill-rule="evenodd" class="s12" d="m1102 66.1c4.9 1.4 7.6 4.3 7.6 7.6 0 2-1 4-2.9 5.9-4 3.9-11.1 6.3-17.6 6.3-2.3 0-4.6-0.3-6.6-0.9-4.8-1.5-7.2-4.3-7.2-7.5 0-2.1 1-4.2 3.1-6.2 4.1-4 10.7-6.1 17-6.1 2.3 0 4.4 0.3 6.6 0.9z"/>
			<path id="Layer" fill-rule="evenodd" class="s13" d="m1100.3 67.3c4.1 1.2 6.3 3.6 6.3 6.3 0 1.6-0.9 3.3-2.4 4.9-3.4 3.1-9.1 5.1-14.4 5.1-2.1 0-4-0.3-5.7-0.8-4-1.2-6-3.5-6-6.2 0-1.7 0.9-3.5 2.7-5.1 3.3-3.2 8.8-5 14-5 2 0 3.8 0.3 5.5 0.8z"/>
			<path id="Layer" fill-rule="evenodd" class="s14" d="m1098.9 68.5c3.1 0.9 4.9 2.9 4.9 5 0 1.3-0.7 2.7-2 3.9-2.7 2.5-7 4-11.3 4-1.7 0-3.3-0.3-4.7-0.7-3.1-1.1-4.6-2.9-4.6-4.9 0-1.4 0.7-2.8 2.2-4.2 2.6-2.4 6.8-3.7 10.8-3.7 1.6 0 3.2 0.2 4.7 0.6z"/>
			<path id="Layer" fill-rule="evenodd" class="s15" d="m1097.3 69.7c2.3 0.7 3.5 2.1 3.5 3.7 0 1-0.5 2-1.6 3-1.8 1.7-5.1 2.8-8 2.8-1.4 0-2.7-0.2-3.7-0.6-2.2-0.7-3.4-2.2-3.4-3.6 0-1.1 0.6-2.1 1.7-3.1 1.8-1.8 4.9-2.7 7.8-2.7 1.3 0 2.6 0.2 3.7 0.5z"/>
			<path id="Layer" fill-rule="evenodd" class="s16" d="m1095.6 71.2c1.4 0.5 2.1 1.4 2.1 2.4 0 0.7-0.4 1.4-1.1 2-1.1 1-3.1 1.6-4.9 1.6-1 0-1.9-0.2-2.7-0.6-1.4-0.5-2.1-1.4-2.1-2.3 0-0.8 0.5-1.5 1.3-2.1 1.2-1.1 3-1.6 4.8-1.6 1 0 1.9 0.2 2.6 0.6z"/>
			<path id="Layer" class="s9" d="m1089.9 73.4c0-0.8 1.2-1.5 2.5-1.5 1.4 0 2.4 0.7 2.4 1.5 0 0.8-1.1 1.5-2.4 1.5-1.4 0-2.5-0.7-2.5-1.5z"/>
			<path id="Layer" class="s0" d="m1273.4 60.5c7.3 0 15.5 1.7 23.4 5.3 13.3 6.4 21.2 15.5 21.2 23.8 0 2.6-0.7 5.1-2.3 7.4-7.3 9.4-27.5 11-46 2.5-13.3-6.3-20.9-15.2-20.8-23.3 0-2.9 1-5.7 3.1-8.2 4.7-5 12.5-7.5 21.4-7.5z"/>
			<path id="Layer" fill-rule="evenodd" class="s19" d="m1295.4 67.5c11.3 5.5 18.2 13.4 18.1 20.6-0.1 2.3-0.9 4.4-2.4 6.5-6.4 8-23.8 9.3-39.7 2.1-11.5-5.5-18.1-13.3-18-20.2 0-2.6 0.8-5 2.8-7.2 4.1-4.4 10.8-6.6 18.7-6.6 6.5 0.1 13.8 1.7 20.5 4.8z"/>
			<path id="Layer" fill-rule="evenodd" class="s20" d="m1294 69.3c9.4 4.6 15 11.3 14.8 17.3-0.1 2-0.9 3.8-2.3 5.5-5.6 6.7-20.1 7.7-33.6 1.7-9.7-4.7-15.2-11.3-15.2-17.2 0-2.2 0.9-4.4 2.6-6.2 3.5-3.7 9.3-5.5 16-5.5 5.8 0 12.1 1.6 17.7 4.4z"/>
			<path id="Layer" fill-rule="evenodd" class="s21" d="m1292.6 70.9c7.5 3.9 11.9 9.3 11.7 14.2q-0.4 2.5-2.4 4.5c-4.6 5.5-16.5 6.2-27.3 1.2-7.8-3.7-12.3-9.1-12.3-13.9 0-1.9 0.7-3.7 2.2-5.3 3-3.1 7.7-4.5 13.3-4.5 5 0 10.2 1.4 14.8 3.8z"/>
			<path id="Layer" fill-rule="evenodd" class="s5" d="m1291.1 72.9c5.6 3 8.9 7.3 8.5 11-0.3 1.3-1.1 2.6-2.4 3.5-3.6 4-12.8 4.5-21 0.7-6.1-2.9-9.5-7.1-9.5-10.8 0-1.6 0.7-3.1 1.9-4.4 2.4-2.4 6.2-3.6 10.6-3.6 4.2 0 8.6 1.3 11.9 3.6z"/>
			<path id="Layer" fill-rule="evenodd" class="s22" d="m1289.7 74.5c3.8 2.3 5.8 5.3 5.3 7.9-0.4 1-1.2 1.9-2.3 2.6-2.8 2.6-9.1 2.9-14.9 0.3-4.3-2.1-6.6-5-6.6-7.8 0-1.2 0.5-2.4 1.6-3.4 1.7-1.7 4.5-2.6 7.8-2.6 3.4 0 6.8 1.1 9.1 3z"/>
			<path id="Layer" fill-rule="evenodd" class="s23" d="m1288.2 76.2c1.8 1.4 2.7 3.2 2.2 4.7-0.5 0.7-1.4 1.2-2.4 1.5-1.8 1.4-5.4 1.4-8.6-0.1-2.3-1.3-3.7-3-3.7-4.7 0-0.9 0.5-1.7 1.3-2.4 1.2-1.1 3-1.6 5.1-1.6 2.6 0 5 1.1 6.1 2.6z"/>
			<path id="Layer" class="s9" d="m1280.1 77.9c0-1.2 1.5-2.1 3.4-2.1 1.8 0 3.3 0.9 3.3 2.1 0 1.1-1.5 2.1-3.3 2.1-1.9 0.1-3.4-0.9-3.4-2.1z"/>
			<path id="Layer" class="s0" d="m1301.8 36.9c5 0 11.1 1.4 16.9 3.7 11 5 16.8 12.3 12.8 17.6-2 2.2-5.9 3.3-10.6 3.3-5.1 0-11.2-1.2-17.2-3.7-11.4-5.4-16.5-12.7-12.2-17.7 2.1-2.2 5.8-3.2 10.3-3.2z"/>
			<path id="Layer" fill-rule="evenodd" class="s17" d="m1328.1 56.5c-1.8 1.9-5.2 2.7-9.2 2.7-4.2-0.1-9.2-1.2-14.1-3.3-9.5-4.6-13.7-10.7-10-14.8 1.9-1.9 5.1-2.7 8.9-2.7 4.2 0 9.3 1.2 14.1 3.2 9.2 4.2 13.9 10.4 10.3 14.9z"/>
			<path id="Layer" fill-rule="evenodd" class="s3" d="m1324.8 54.7c-1.7 1.5-4.6 2-7.7 1.8-3.4-0.1-7.4-0.9-11.3-2.7-7.4-3.7-10.7-8.6-7.7-11.9 1.6-1.5 4.3-2.1 7.4-2.1 3.4 0.1 7.5 1.1 11.4 2.8 7.4 3.5 11 8.6 7.9 12.1z"/>
			<path id="Layer" fill-rule="evenodd" class="s13" d="m1321.4 52.9c-1.6 1.1-4 1.4-6.3 1.1-2.6-0.2-5.5-1-8.3-2.3-5.5-2.8-7.9-6.6-5.4-9 1.3-1.1 3.4-1.5 5.8-1.4 2.8 0.1 5.9 0.9 8.8 2.3 5.6 2.8 8 6.7 5.4 9.3z"/>
			<path id="Layer" fill-rule="evenodd" class="s6" d="m1318.1 51.2c-1.4 0.8-3.3 0.8-4.9 0.3-1.7-0.1-3.6-0.8-5.3-1.7-3.6-1.9-5-4.5-3.2-6.2 1.1-0.8 2.6-1 4.4-0.8 1.9 0 4.1 0.7 6 1.7 3.7 2.1 5.1 4.9 3 6.7z"/>
			<path id="Layer" fill-rule="evenodd" class="s18" d="m1314.8 49.5c-1.3 0.4-2.7 0.1-3.5-0.4q-1.3-0.4-2.4-1.3c-1.7-1.1-2.1-2.5-0.9-3.3 0.8-0.3 1.9-0.4 2.9-0.3 1.2 0.2 2.4 0.7 3.4 1.4 1.8 1.3 2 2.9 0.5 3.9z"/>
			<path id="Layer" class="s9" d="m1309.3 46.5c0-0.6 0.8-1.1 2-1.1 1.1 0 2 0.5 2 1.1 0 0.6-0.9 1.2-2 1.2-1.1 0-2-0.6-2-1.2z"/>
			<path id="Layer" class="s0" d="m1179.6 79.5c12 4.4 18.6 11.9 18.6 20.1 0 3.6-1.4 7.4-4.3 11.2-10.2 11.1-32.7 14.8-50.6 8.9-17.6-7-22.6-20.7-12.3-31.7 10.7-10.9 31.3-14.4 48.6-8.5z"/>
			<path id="Layer" fill-rule="evenodd" class="s24" d="m1194.9 98.9c0 3.5-1.5 7.1-4.3 10.4-9.3 10-29.5 13.2-45.7 8-15.9-6.3-20.4-18.7-11.2-28.7 9.7-9.9 28.4-13.1 44.2-7.9 10.9 3.9 17.1 10.8 17 18.2z"/>
			<path id="Layer" fill-rule="evenodd" class="s25" d="m1191.7 98.5c0 3.3-1.5 6.5-4.2 9.5-8.4 8.9-26.5 11.7-41 7-14.2-5.7-18.2-16.8-10-25.7 8.6-9 25.4-11.9 39.6-7.3 9.9 3.5 15.6 9.7 15.6 16.5z"/>
			<path id="Layer" fill-rule="evenodd" class="s26" d="m1188.4 97.9c-0.1 2.9-1.5 5.9-4.1 8.6-7.5 7.8-23.5 10.2-36.2 6-12.4-5-16-14.7-8.8-22.6 7.5-8 22.3-10.7 35.1-6.7 8.9 3.1 14 8.7 14 14.7z"/>
			<path id="Layer" fill-rule="evenodd" class="s27" d="m1185.2 97.5c0 2.7-1.4 5.3-4 7.6-6.5 6.7-20.4 8.8-31.3 5.1-10.9-4.4-14-12.8-7.8-19.7 6.4-6.9 19.4-9.5 30.5-6 7.9 2.7 12.6 7.6 12.6 13z"/>
			<path id="Layer" fill-rule="evenodd" class="s13" d="m1181.9 97c-0.1 2.5-1.5 4.9-3.9 6.8-5.7 5.5-17.2 7.2-26.5 4.1-9.2-3.7-11.8-10.9-6.7-16.7 5.3-6 16.4-8.2 26.1-5.3 6.8 2.1 11 6.4 11 11.1z"/>
			<path id="Layer" fill-rule="evenodd" class="s28" d="m1178.7 96.5c-0.1 2.2-1.5 4.3-3.9 5.8-4.6 4.5-14.1 5.8-21.7 3.2-7.4-3-9.6-8.8-5.5-13.6 4.3-5.1 13.4-7 21.5-4.7 5.9 1.7 9.5 5.2 9.6 9.3z"/>
			<path id="Layer" fill-rule="evenodd" class="s29" d="m1175.2 96c0 1.9-1.4 3.7-3.6 4.9-3.7 3.4-11.1 4.3-16.9 2.2-5.7-2.3-7.5-6.8-4.4-10.6 3.3-4.1 10.5-5.9 17-4.1 4.9 1.3 8 4.3 7.9 7.6z"/>
			<path id="Layer" fill-rule="evenodd" class="s30" d="m1172.1 95.3c-0.1 1.8-1.6 3.3-3.7 4.1-2.8 2.3-8 2.8-12.1 1.3-4.1-1.7-5.3-4.8-3.3-7.5 2.1-3.1 7.5-4.6 12.5-3.5 3.9 0.9 6.5 3.2 6.6 5.6z"/>
			<path id="Layer" fill-rule="evenodd" class="s31" d="m1168.7 95c0 1.4-1.5 2.7-3.6 3.1-1.9 1.1-4.9 1.3-7.2 0.3-2.3-1-3.2-2.9-2.1-4.6 1-2.2 4.5-3.4 7.9-2.8 2.9 0.5 5 2.1 5 4z"/>
			<path id="Layer" class="s9" d="m1158.6 94.5c0-1.3 1.5-2.2 3.4-2.2 1.9 0 3.4 0.9 3.4 2.2 0 1.2-1.6 2.2-3.4 2.2-1.9 0-3.4-1-3.4-2.2z"/>
			<path id="Layer" class="s0" d="m1203.8 38.5c4.6 0.1 9.4 0.8 14.1 2.3 12.2 4.3 17.2 12.4 11.2 18.9-4.1 4-11.4 6-19.5 6-4.8 0-9.9-0.8-14.7-2.2-8.5-3.2-13.2-7.9-13.2-12.7 0-2.2 1-4.3 3-6.4 4.3-3.8 11.3-5.8 19.1-5.9z"/>
			<path id="Layer" fill-rule="evenodd" class="s10" d="m1216.8 41.9c10.8 3.8 15 11 9.9 16.7-3.6 3.5-10 5.2-17.1 5.2-4.3 0-8.8-0.6-13.1-1.8-7.7-2.8-11.9-7-11.9-11.3 0.1-1.9 1-3.8 2.8-5.7 3.7-3.4 10-5.1 16.8-5.1 4.1 0 8.4 0.6 12.6 2z"/>
			<path id="Layer" fill-rule="evenodd" class="s11" d="m1215.4 42.8c9.3 3.3 13.1 9.4 8.6 14.4-3 3-8.6 4.6-14.7 4.6-3.7 0-7.6-0.5-11.4-1.6-6.8-2.3-10.5-5.9-10.5-9.7 0-1.7 0.8-3.4 2.4-5 3.3-3 8.8-4.5 14.8-4.5 3.6 0 7.3 0.6 10.8 1.8z"/>
			<path id="Layer" fill-rule="evenodd" class="s12" d="m1214.3 43.7c7.7 2.8 10.9 7.9 7.2 12.1-2.5 2.7-7.2 4-12.4 4.1-3.1 0.1-6.6-0.4-9.8-1.3-5.8-1.9-9-5.1-9-8.3 0-1.5 0.7-2.9 2.1-4.3 2.8-2.5 7.4-3.8 12.5-3.8 3.1 0 6.4 0.6 9.4 1.5z"/>
			<path id="Layer" fill-rule="evenodd" class="s13" d="m1213.2 44.7c6.2 2.2 8.8 6.4 5.8 9.8-2.1 2.2-5.8 3.3-10.1 3.4-2.6 0.2-5.4-0.1-8.1-0.9-4.9-1.5-7.7-4.2-7.7-6.9 0-1.2 0.6-2.4 1.8-3.6 2.4-2 6.1-3.1 10.4-3.1 2.6 0 5.3 0.5 7.9 1.3z"/>
			<path id="Layer" fill-rule="evenodd" class="s14" d="m1211.9 45.8c4.8 1.7 6.8 5 4.6 7.6-1.6 1.7-4.5 2.6-7.7 2.7-2 0.1-4.3-0.1-6.5-0.6-4-1.2-6.3-3.3-6.3-5.5 0-1.1 0.5-2.1 1.5-3 1.8-1.6 4.9-2.4 8.1-2.4 2.1 0 4.3 0.4 6.3 1.2z"/>
			<path id="Layer" fill-rule="evenodd" class="s15" d="m1210.7 46.7c3.3 1.2 4.7 3.5 3.3 5.4-1.1 1.2-3.1 1.9-5.4 2.1-1.5 0.1-3.2 0.1-4.8-0.3-3.1-0.8-5-2.4-5-4 0-0.8 0.4-1.6 1.2-2.3 1.4-1.2 3.6-1.8 6-1.8 1.6 0 3.2 0.3 4.7 0.9z"/>
			<path id="Layer" fill-rule="evenodd" class="s16" d="m1209.5 47.6c1.8 0.8 2.6 2 1.9 3.1-0.5 0.8-1.7 1.3-3 1.5-0.9 0.2-2.1 0.2-3.2 0-2.1-0.4-3.6-1.5-3.6-2.6 0-0.6 0.3-1.2 0.9-1.6 0.9-0.7 2.3-1.1 3.8-1.1 1.2 0 2.3 0.3 3.2 0.7z"/>
			<path id="Layer" class="s9" d="m1204.5 49.4c0-0.7 0.9-1.2 2.2-1.2 1.2 0 2.2 0.5 2.2 1.2 0 0.7-1 1.2-2.2 1.2-1.2 0-2.2-0.6-2.2-1.2z"/>
			<g id="Layer">
				<path id="Layer" fill-rule="evenodd" class="s10" d="m1409.9 201.1c13.3 9 19.8 23.7 15.3 34.5-5 10.5-19.2 11.9-33.4 3-13.9-9.5-20.4-25.1-15.4-35.3 5.7-10.2 19.9-10.7 33.5-2.2z"/>
				<path id="Layer" fill-rule="evenodd" class="s11" d="m1408.6 202.9c11.7 7.9 17.4 20.7 13.5 30.2-4.3 9.2-16.8 10.3-29.3 2.6-12.2-8.3-17.8-22-13.4-30.9 5-9 17.5-9.4 29.2-1.9z"/>
				<path id="Layer" fill-rule="evenodd" class="s12" d="m1407.4 204.7c10 6.7 14.8 17.7 11.5 25.8-3.7 7.9-14.4 8.9-25 2.2-10.5-7.1-15.3-18.8-11.5-26.4 4.4-7.7 15-8 25-1.6z"/>
				<path id="Layer" fill-rule="evenodd" class="s13" d="m1406.3 206.5c8.4 5.6 12.4 14.7 9.6 21.5-3.2 6.6-12 7.3-20.9 1.8-8.7-6-12.7-15.7-9.5-22 3.5-6.3 12.4-6.7 20.8-1.3z"/>
				<path id="Layer" fill-rule="evenodd" class="s14" d="m1405.1 208.2c6.7 4.5 9.9 11.9 7.6 17.2-2.4 5.3-9.5 5.9-16.6 1.5-7-4.8-10.1-12.5-7.7-17.6 2.9-5.1 10-5.4 16.7-1.1z"/>
				<path id="Layer" fill-rule="evenodd" class="s15" d="m1404 209.9c4.9 3.4 7.3 8.9 5.7 12.9-1.9 3.9-7.2 4.5-12.5 1.1-5.2-3.5-7.5-9.4-5.7-13.1 2.1-3.8 7.5-4 12.5-0.9z"/>
				<path id="Layer" fill-rule="evenodd" class="s16" d="m1402.7 211.8c3.3 2.2 5 5.8 3.8 8.5-1.2 2.6-4.7 2.9-8.2 0.7-3.5-2.3-5-6.2-3.8-8.7 1.5-2.6 5-2.7 8.2-0.5z"/>
				<path id="Layer" fill-rule="evenodd" class="s9" d="m1401.7 213.5c1.6 1.1 2.4 2.9 1.8 4.2-0.6 1.3-2.3 1.4-4.1 0.4-1.7-1.2-2.5-3.1-1.8-4.3 0.7-1.3 2.4-1.4 4.1-0.3z"/>
				<path id="Layer" fill-rule="evenodd" class="s19" d="m1433 154.6c7.2 5 11.3 12.4 9.2 17.3-2.2 4.9-9.3 4.7-16.9-0.1-7.2-5.1-11.3-12.7-9.1-17.5 2.3-4.6 9.5-4.2 16.8 0.3z"/>
				<path id="Layer" fill-rule="evenodd" class="s20" d="m1432.5 155.5c6.1 4.2 9.6 10.5 7.7 14.7-1.8 4.3-7.9 4.1-14.4 0-6.2-4.4-9.6-10.9-7.8-14.9 2-4 8.2-3.6 14.5 0.2z"/>
				<path id="Layer" fill-rule="evenodd" class="s21" d="m1431.7 156.3c5 3.5 7.9 8.7 6.4 12.2-1.6 3.5-6.6 3.5-11.9 0-5.1-3.7-8-9-6.4-12.3 1.7-3.3 6.7-2.9 11.9 0.1z"/>
				<path id="Layer" fill-rule="evenodd" class="s5" d="m1431 157.3c4 2.8 6.2 6.9 5.1 9.7-1.2 2.8-5.2 2.7-9.4 0-4-2.9-6.3-7.2-5.1-9.9 1.3-2.5 5.4-2.3 9.4 0.2z"/>
				<path id="Layer" fill-rule="evenodd" class="s22" d="m1430.4 158.2c3 2 4.6 5.1 3.8 7.1-0.9 2-3.8 2-7 0-3-2.1-4.6-5.3-3.7-7.2 0.9-1.9 3.9-1.7 6.9 0.1z"/>
				<path id="Layer" fill-rule="evenodd" class="s23" d="m1429.9 159.2c1.8 1.3 2.9 3.2 2.3 4.5-0.6 1.3-2.4 1.3-4.4 0-2-1.4-3.1-3.4-2.5-4.6 0.6-1.3 2.5-1.2 4.6 0.1z"/>
				<path id="Layer" fill-rule="evenodd" class="s9" d="m1429.2 160.1c0.8 0.5 1.3 1.4 1 2-0.2 0.6-1.1 0.6-2 0-0.8-0.6-1.3-1.5-1.1-2.1 0.3-0.6 1.1-0.5 2.1 0.1z"/>
				<path id="Layer" fill-rule="evenodd" class="s10" d="m1283 317.3c-7.7 13.1-25.2 16-40.7 7.9-15.3-9-20.8-25.4-13-38.4 8.3-12.7 25.7-15.8 40.3-7.4 14.7 8.7 20.3 25.3 13.4 37.9z"/>
				<path id="Layer" fill-rule="evenodd" class="s11" d="m1279.2 314.9c-6.7 11.3-21.9 13.8-35.4 6.8-13.3-7.8-18-22.2-11.2-33.4 7.2-11.1 22.3-13.7 35-6.4 12.7 7.4 17.6 21.9 11.6 33z"/>
				<path id="Layer" fill-rule="evenodd" class="s12" d="m1275.5 312.2c-5.7 9.8-18.6 11.9-30.1 5.9-11.3-6.7-15.4-18.9-9.6-28.4 6.1-9.4 19-11.7 29.8-5.5 10.8 6.4 15 18.7 9.9 28z"/>
				<path id="Layer" fill-rule="evenodd" class="s13" d="m1271.7 309.7c-4.7 8-15.4 9.7-24.8 4.8-9.3-5.5-12.7-15.5-7.9-23.4 5.1-7.7 15.7-9.6 24.5-4.5 9 5.3 12.4 15.4 8.2 23.1z"/>
				<path id="Layer" fill-rule="evenodd" class="s14" d="m1267.9 307.2c-3.7 6.2-12 7.6-19.5 3.7-7.2-4.3-9.9-12.2-6.2-18.4 4-6 12.4-7.5 19.3-3.5 7 4.1 9.8 12.1 6.4 18.2z"/>
				<path id="Layer" fill-rule="evenodd" class="s15" d="m1264.2 304.6c-2.7 4.6-8.7 5.5-14.2 2.7-5.3-3.1-7.3-8.8-4.5-13.4 2.9-4.4 8.9-5.4 14-2.5 5.1 3 7.1 8.8 4.7 13.2z"/>
				<path id="Layer" fill-rule="evenodd" class="s16" d="m1260.4 302.1c-1.8 2.9-5.5 3.5-9 1.7-3.3-2-4.4-5.6-2.8-8.4 1.9-2.7 5.7-3.4 8.9-1.6 3.2 1.9 4.5 5.5 2.9 8.3z"/>
				<path id="Layer" fill-rule="evenodd" class="s9" d="m1256.6 299.6c-0.7 1.1-2.2 1.4-3.6 0.7-1.3-0.8-1.8-2.3-1.1-3.4 0.8-1.2 2.2-1.5 3.6-0.7 1.3 0.8 1.8 2.3 1.1 3.4z"/>
				<path id="Layer" fill-rule="evenodd" class="s10" d="m1239.2 384c-7.2 12-22.6 15.7-35.5 8.1-13.1-7.3-17.2-22.6-10.3-34.2 7.4-11.4 22.6-14.7 35.2-7.7 12.7 7.1 16.9 22.3 10.6 33.8z"/>
				<path id="Layer" fill-rule="evenodd" class="s11" d="m1236 382.1c-6.2 10.4-19.6 13.5-30.8 7-11.4-6.2-15-19.6-9-29.6 6.4-10 19.7-12.9 30.7-6.8 11 6.1 14.7 19.4 9.1 29.4z"/>
				<path id="Layer" fill-rule="evenodd" class="s12" d="m1233 380.1c-5.2 8.8-16.6 11.5-26.2 6-9.6-5.4-12.7-16.7-7.6-25.2 5.4-8.5 16.7-10.8 26-5.7 9.4 5.2 12.5 16.5 7.8 24.9z"/>
				<path id="Layer" fill-rule="evenodd" class="s13" d="m1229.8 378.3c-4.3 7.3-13.7 9.5-21.5 4.9-7.9-4.4-10.4-13.7-6.2-20.7 4.5-7.1 13.7-9 21.3-4.8 7.8 4.3 10.4 13.5 6.4 20.6z"/>
				<path id="Layer" fill-rule="evenodd" class="s14" d="m1226.8 376.3c-3.4 5.7-10.7 7.5-16.9 3.9-6.2-3.4-8.2-10.7-4.9-16.3 3.5-5.4 10.7-7 16.8-3.6 6 3.3 8 10.6 5 16z"/>
				<path id="Layer" fill-rule="evenodd" class="s15" d="m1223.6 374.4c-2.5 4.1-7.7 5.4-12.2 2.8-4.5-2.4-5.9-7.8-3.5-11.7 2.5-3.9 7.7-5.1 12.1-2.7 4.4 2.5 5.9 7.7 3.6 11.6z"/>
				<path id="Layer" fill-rule="evenodd" class="s16" d="m1220.6 372.5c-1.5 2.5-4.8 3.3-7.5 1.7-2.8-1.6-3.7-4.8-2.2-7.3 1.5-2.4 4.7-3.1 7.4-1.6 2.8 1.5 3.6 4.8 2.3 7.2z"/>
				<path id="Layer" fill-rule="evenodd" class="s9" d="m1217.5 370.6c-0.7 1-1.9 1.2-2.9 0.6-1.2-0.6-1.4-1.8-0.9-2.8 0.6-0.9 1.8-1.1 2.9-0.6 1 0.6 1.4 1.8 0.9 2.8z"/>
				<path id="Layer" fill-rule="evenodd" class="s10" d="m1192.4 455.7c-6.4 10.8-20.3 15.2-31.7 8-11.3-6.6-14.9-20.3-8.5-31 6.8-10.6 20.3-14.2 31.6-7.9 11 6.6 15 19.6 8.6 30.9z"/>
				<path id="Layer" fill-rule="evenodd" class="s11" d="m1189.8 454.3c-5.7 9.4-17.8 13.2-27.7 7-9.9-5.8-12.9-17.7-7.3-27 6-9.3 17.7-12.4 27.5-7 9.6 5.7 13 17.1 7.5 27z"/>
				<path id="Layer" fill-rule="evenodd" class="s12" d="m1187.3 452.9c-4.9 8-15.2 11.2-23.6 5.9-8.4-4.9-11-15.1-6.3-23 5-7.9 15-10.5 23.4-5.9 8.2 4.8 11.1 14.5 6.5 23z"/>
				<path id="Layer" fill-rule="evenodd" class="s13" d="m1184.7 451.4c-3.9 6.6-12.4 9.3-19.5 4.9-6.9-4-9.1-12.5-5.1-19 4.1-6.5 12.4-8.7 19.3-4.9 6.7 4.1 9.1 12 5.3 19z"/>
				<path id="Layer" fill-rule="evenodd" class="s14" d="m1182.1 450c-3.2 5.2-9.9 7.4-15.5 3.9-5.4-3.2-7.2-9.9-4-15.1 3.3-5.1 9.8-6.8 15.3-3.9 5.3 3.2 7.3 9.5 4.2 15.1z"/>
				<path id="Layer" fill-rule="evenodd" class="s15" d="m1179.5 448.5c-2.3 3.8-7.3 5.4-11.4 2.9-4-2.4-5.2-7.3-3-11.1 2.5-3.8 7.3-5 11.3-2.8 3.9 2.3 5.3 6.9 3.1 11z"/>
				<path id="Layer" fill-rule="evenodd" class="s16" d="m1176.9 447.1c-1.5 2.4-4.6 3.5-7.3 1.8-2.5-1.6-3.4-4.6-1.9-7.1 1.6-2.4 4.6-3.2 7.2-1.8 2.5 1.5 3.4 4.5 2 7.1z"/>
				<path id="Layer" fill-rule="evenodd" class="s9" d="m1174.3 445.6c-0.6 1-2 1.5-3.2 0.8-1.1-0.6-1.5-2.1-0.9-3.1 0.7-1.1 2.1-1.4 3.2-0.8 1.1 0.7 1.5 2 0.9 3.1z"/>
				<path id="Layer" fill-rule="evenodd" class="s10" d="m1147.3 526c-5.8 9.6-17.8 12.8-26.7 6.8-9.5-5.7-12.2-17.4-7.2-26.9 5.7-9.5 17.1-12.6 26.7-7.1 9.3 5.8 12.7 17.8 7.2 27.2z"/>
				<path id="Layer" fill-rule="evenodd" class="s11" d="m1145.3 524.7c-5.1 8.4-15.6 11.2-23.5 6-8.3-5-10.7-15.2-6.3-23.6 5.1-8.2 15-11 23.5-6.2 8.2 5.1 11.1 15.6 6.3 23.8z"/>
				<path id="Layer" fill-rule="evenodd" class="s12" d="m1143.3 523.5c-4.4 7.2-13.5 9.7-20.3 5.2-7.2-4.3-9.2-13.2-5.4-20.4 4.3-7.1 12.9-9.4 20.2-5.3 7 4.4 9.5 13.4 5.5 20.5z"/>
				<path id="Layer" fill-rule="evenodd" class="s13" d="m1141.3 522.3c-3.7 6.1-11.3 8.2-17 4.4-6-3.7-7.8-11.1-4.6-17.1 3.6-6 10.8-8 16.9-4.5 5.9 3.6 8 11.2 4.7 17.2z"/>
				<path id="Layer" fill-rule="evenodd" class="s14" d="m1139.1 521.1c-2.9 4.9-9.1 6.6-13.7 3.5-4.8-2.9-6.2-9-3.7-13.8 2.9-4.9 8.8-6.5 13.7-3.7 4.8 3 6.5 9.1 3.7 14z"/>
				<path id="Layer" fill-rule="evenodd" class="s15" d="m1137.1 519.9c-2.3 3.7-7 4.9-10.5 2.7-3.7-2.3-4.7-6.9-2.8-10.6 2.3-3.7 6.7-4.9 10.5-2.8 3.6 2.3 4.9 7 2.8 10.7z"/>
				<path id="Layer" fill-rule="evenodd" class="s16" d="m1135 518.6c-1.6 2.6-4.9 3.4-7.2 1.9-2.6-1.5-3.3-4.7-2-7.2 1.6-2.6 4.6-3.5 7.2-2 2.6 1.6 3.5 4.9 2 7.3z"/>
				<path id="Layer" fill-rule="evenodd" class="s9" d="m1133 517.5c-0.9 1.3-2.6 1.8-3.9 0.9-1.4-0.8-1.8-2.5-1.1-3.9 0.8-1.4 2.5-1.9 3.9-1.1 1.3 0.9 1.8 2.7 1.1 4.1z"/>
				<path id="Layer" fill-rule="evenodd" class="s1" d="m1378.7 261.6c13.6 9 19.6 25.4 14.1 37.4-5.8 11.9-21.3 14.5-35.5 5.5-14.1-9.7-20.3-26.4-14.1-38.3 6.4-11.5 22.1-13.7 35.5-4.6z"/>
				<path id="Layer" fill-rule="evenodd" class="s2" d="m1377.6 263.4c12.2 8.1 17.4 22.6 12.6 33.3-5.1 10.6-19 12.9-31.6 4.9-12.6-8.6-18.1-23.5-12.6-34 5.7-10.4 19.6-12.3 31.6-4.2z"/>
				<path id="Layer" fill-rule="evenodd" class="s3" d="m1376.5 265.2c10.6 7.1 15.3 19.8 11 29.2-4.6 9.3-16.7 11.4-27.8 4.3-10.9-7.5-15.9-20.6-11-29.8 5-9.1 17.3-10.8 27.8-3.7z"/>
				<path id="Layer" fill-rule="evenodd" class="s4" d="m1375.4 266.9c9.1 6.1 13.1 17.1 9.4 25.1-3.9 8-14.3 9.7-23.8 3.7-9.4-6.5-13.6-17.7-9.5-25.6 4.3-7.7 14.8-9.2 23.9-3.2z"/>
				<path id="Layer" fill-rule="evenodd" class="s5" d="m1374.2 268.9c7.7 5.1 11 14.2 7.9 20.9-3.2 6.7-11.9 8.1-19.9 3.1-7.9-5.4-11.4-14.8-8-21.5 3.6-6.5 12.5-7.8 20-2.5z"/>
				<path id="Layer" fill-rule="evenodd" class="s6" d="m1373.1 270.6c6.1 4.1 8.8 11.5 6.4 17-2.7 5.3-9.7 6.5-16.1 2.4-6.4-4.4-9.2-11.9-6.4-17.3 2.9-5.2 9.9-6.3 16.1-2.1z"/>
				<path id="Layer" fill-rule="evenodd" class="s7" d="m1371.9 272.3c4.7 3.2 6.7 8.7 4.9 12.8-2.1 4.1-7.4 5-12.2 1.9-4.9-3.3-7-9-4.9-13 2.2-4 7.6-4.8 12.2-1.7z"/>
				<path id="Layer" fill-rule="evenodd" class="s8" d="m1370.9 274.1c3.1 2.1 4.5 5.9 3.2 8.7-1.3 2.8-4.9 3.5-8.2 1.3-3.4-2.1-4.8-6.1-3.4-8.8 1.5-2.7 5.1-3.3 8.4-1.2z"/>
				<path id="Layer" fill-rule="evenodd" class="s9" d="m1369.7 276c1.6 1 2.4 3 1.7 4.5-0.7 1.5-2.6 1.9-4.4 0.7-1.7-1.2-2.5-3.2-1.7-4.7 0.8-1.4 2.7-1.7 4.4-0.5z"/>
				<path id="Layer" fill-rule="evenodd" class="s10" d="m1437.8 310.3c10 7.7 14.6 21 10.4 31.1-4.4 10.1-15.4 12.3-25.7 4.7-10.5-7.7-14.6-22.1-10.6-31.7 4.6-9.9 16.1-11.7 25.9-4.1z"/>
				<path id="Layer" fill-rule="evenodd" class="s11" d="m1436.7 312.3c8.8 6.7 12.9 18.3 9.1 27.2-3.8 8.7-13.4 10.8-22.5 4.1-9.1-6.8-12.8-19.4-9.3-27.9 4.1-8.6 14.1-10.3 22.7-3.4z"/>
				<path id="Layer" fill-rule="evenodd" class="s12" d="m1435.7 313.9c7.4 5.8 11 15.8 7.8 23.4-3.4 7.7-11.6 9.3-19.4 3.6-7.8-5.8-11-16.6-8-23.9 3.5-7.4 12.2-8.9 19.6-3.1z"/>
				<path id="Layer" fill-rule="evenodd" class="s13" d="m1434.6 315.8c6.3 4.8 9.3 13.1 6.6 19.5-2.8 6.3-9.7 7.8-16.3 3-6.5-4.8-9.2-13.9-6.6-20 2.9-6.1 10.2-7.4 16.3-2.5z"/>
				<path id="Layer" fill-rule="evenodd" class="s14" d="m1433.6 317.7c5 3.8 7.4 10.6 5.2 15.7-2.3 5.1-7.8 6.2-13.1 2.4-5.2-4-7.3-11.3-5.3-16.2 2.4-5 8.1-6 13.2-1.9z"/>
				<path id="Layer" fill-rule="evenodd" class="s15" d="m1432.4 319.4c3.9 3 5.7 8 4 11.9-1.7 3.9-5.9 4.7-9.9 1.9-3.9-3-5.5-8.6-4-12.2 1.8-3.8 6.2-4.5 9.9-1.6z"/>
				<path id="Layer" fill-rule="evenodd" class="s16" d="m1431.4 321.3c2.6 2 3.8 5.4 2.7 8.1-1.2 2.6-4 3.2-6.7 1.2-2.7-2-3.9-5.8-2.8-8.4 1.2-2.5 4.2-3 6.8-0.9z"/>
				<path id="Layer" fill-rule="evenodd" class="s9" d="m1430.4 323c1.3 1.1 2 2.9 1.4 4.3-0.5 1.4-2.1 1.7-3.5 0.7-1.5-1.1-2-3.1-1.5-4.4 0.6-1.4 2.2-1.7 3.6-0.6z"/>
				<path id="Layer" fill-rule="evenodd" class="s10" d="m1468.8 246.8c10.4 8.3 15.7 21.6 12.5 31.1-3.8 9.5-14.6 10.9-25.6 2.6-10.8-8.3-16.2-22.7-12.7-31.9 4.2-9.4 15.6-10 25.8-1.8z"/>
				<path id="Layer" fill-rule="evenodd" class="s11" d="m1468 248.4c9.1 7.3 13.7 19 10.9 27.3-3.4 8.4-12.8 9.7-22.5 2.4-9.5-7.4-14.3-20-11.2-28.1 3.6-8.2 13.7-8.8 22.8-1.6z"/>
				<path id="Layer" fill-rule="evenodd" class="s12" d="m1467 249.9c7.8 6.3 11.8 16.4 9.4 23.6-2.9 7.2-11 8.3-19.4 2.1-8.2-6.4-12.3-17.2-9.6-24.2 3.1-7.1 11.8-7.5 19.6-1.5z"/>
				<path id="Layer" fill-rule="evenodd" class="s13" d="m1465.9 251.7c6.6 5.2 10 13.7 7.9 19.7-2.3 6-9.2 7-16.2 1.7-6.8-5.4-10.3-14.4-8-20.3 2.6-6 9.8-6.3 16.3-1.1z"/>
				<path id="Layer" fill-rule="evenodd" class="s14" d="m1465.1 253.2c5.3 4.3 8 11.1 6.4 15.9-2.1 5-7.5 5.7-13.2 1.4-5.5-4.2-8.3-11.5-6.5-16.3 2.1-4.7 8-5.1 13.3-1z"/>
				<path id="Layer" fill-rule="evenodd" class="s15" d="m1464.1 254.8c4 3.4 6.1 8.6 4.8 12.2-1.5 3.7-5.7 4.3-10 1.1-4.2-3.3-6.3-8.9-4.9-12.5 1.6-3.6 6.1-3.8 10.1-0.8z"/>
				<path id="Layer" fill-rule="evenodd" class="s16" d="m1463.1 256.6c2.8 2.2 4.2 5.8 3.4 8.3-1 2.6-3.9 2.9-6.9 0.7-2.9-2.2-4.4-6.1-3.4-8.6 1.1-2.4 4.2-2.6 6.9-0.4z"/>
				<path id="Layer" fill-rule="evenodd" class="s9" d="m1462.2 258.3c1.5 1.2 2.2 3.1 1.8 4.5-0.6 1.4-2.2 1.6-3.8 0.4-1.5-1.2-2.3-3.3-1.8-4.7 0.6-1.4 2.3-1.5 3.8-0.2z"/>
				<path id="Layer" fill-rule="evenodd" class="s10" d="m1354.8 367.4c-6 11.8-20.5 15-33.5 6.8-12.7-8.6-18.1-24.6-11.8-36.4 6.4-11.4 20.9-14.1 33.6-6.2 12.6 8.2 17.3 23.8 11.7 35.8z"/>
				<path id="Layer" fill-rule="evenodd" class="s11" d="m1351.7 365.1c-5.3 10.3-17.9 13.1-29.2 6-11-7.5-15.8-21.4-10.2-31.7 5.5-10 18.2-12.2 29.3-5.4 10.9 7.1 15.2 20.7 10.1 31.1z"/>
				<path id="Layer" fill-rule="evenodd" class="s12" d="m1348.8 362.9c-4.6 8.8-15.3 11.1-25 5.1-9.4-6.3-13.4-18.2-8.7-27 4.7-8.6 15.5-10.5 25-4.6 9.3 6.1 12.9 17.7 8.7 26.5z"/>
				<path id="Layer" fill-rule="evenodd" class="s13" d="m1345.8 360.8c-3.8 7.3-12.7 9.2-20.6 4.2-7.9-5.3-11.2-15.1-7.3-22.4 3.8-7 12.9-8.6 20.7-3.7 7.7 5 10.6 14.6 7.2 21.9z"/>
				<path id="Layer" fill-rule="evenodd" class="s14" d="m1342.6 358.6c-3 5.8-10 7.3-16.3 3.3-6.1-4.2-8.8-11.9-5.7-17.7 3.1-5.5 10.2-6.9 16.4-3 6.1 4 8.5 11.6 5.6 17.4z"/>
				<path id="Layer" fill-rule="evenodd" class="s15" d="m1339.7 356.5c-2.2 4.2-7.4 5.3-12 2.4-4.6-3-6.5-8.7-4.2-13 2.2-4.2 7.4-5 12-2.2 4.5 2.9 6.2 8.5 4.2 12.8z"/>
				<path id="Layer" fill-rule="evenodd" class="s16" d="m1336.7 354.2c-1.4 2.7-4.7 3.4-7.7 1.6-2.9-1.9-4.2-5.6-2.7-8.4 1.4-2.6 4.8-3.2 7.7-1.4 2.9 2 4 5.6 2.7 8.2z"/>
				<path id="Layer" fill-rule="evenodd" class="s9" d="m1333.7 352.1c-0.6 1.2-2.1 1.6-3.5 0.7-1.3-0.9-1.8-2.5-1.2-3.7 0.6-1.1 2.1-1.4 3.4-0.6 1.4 0.8 1.9 2.4 1.3 3.6z"/>
				<path id="Layer" fill-rule="evenodd" class="s10" d="m1316.6 432.5c-6 10.7-18.5 14-28.9 7.2-10.7-7.1-14.9-20.7-9.1-31.5 5.7-10.4 18.9-13.5 29.1-6.6 10.6 6.8 13.9 20.3 8.9 30.9z"/>
				<path id="Layer" fill-rule="evenodd" class="s11" d="m1314.1 431c-5.3 9.4-16.2 12.4-25.4 6.3-9.3-6.1-13-18.2-7.9-27.6 5.1-9.1 16.7-11.8 25.6-5.7 9.3 5.9 12.2 17.8 7.7 27z"/>
				<path id="Layer" fill-rule="evenodd" class="s12" d="m1311.7 429.5c-4.5 8.1-13.9 10.6-21.7 5.5-8-5.3-11.2-15.7-6.8-23.7 4.4-7.9 14.3-10.3 21.9-5 8 5.1 10.5 15.3 6.6 23.2z"/>
				<path id="Layer" fill-rule="evenodd" class="s13" d="m1309.4 428.1c-3.7 6.8-11.6 8.9-18.2 4.6-6.8-4.5-9.4-13.1-5.7-19.9 3.7-6.5 11.9-8.6 18.3-4.2 6.8 4.3 8.8 12.9 5.6 19.5z"/>
				<path id="Layer" fill-rule="evenodd" class="s14" d="m1307.1 426.7c-3.1 5.4-9.4 7.1-14.7 3.6-5.3-3.6-7.5-10.5-4.6-16 2.9-5.2 9.6-6.8 14.8-3.3 5.4 3.4 7 10.3 4.5 15.7z"/>
				<path id="Layer" fill-rule="evenodd" class="s15" d="m1304.6 425.2c-2.3 4.1-7.1 5.4-11 2.7-4.1-2.7-5.7-7.9-3.5-12.1 2.2-4 7.3-5.2 11.2-2.5 4.1 2.6 5.3 7.8 3.3 11.9z"/>
				<path id="Layer" fill-rule="evenodd" class="s16" d="m1302.4 423.7c-1.6 2.7-4.8 3.6-7.5 1.8-2.8-1.8-3.9-5.3-2.4-8.1 1.5-2.7 4.9-3.6 7.6-1.8 2.8 1.8 3.6 5.3 2.3 8.1z"/>
				<path id="Layer" fill-rule="evenodd" class="s9" d="m1300 422.2c-0.7 1.4-2.5 2-3.9 1-1.5-1-2-2.8-1.2-4.3 0.8-1.4 2.5-1.9 3.9-0.9 1.4 0.9 1.9 2.7 1.2 4.2z"/>
				<path id="Layer" fill-rule="evenodd" class="s17" d="m1224.5 551.7c7 4.2 8.8 12.6 4.7 19.6-4.1 7.1-12.7 9.5-19.7 5.7-6.9-4-9.1-12.5-4.9-19.6 4.3-7.3 13-9.6 19.9-5.7z"/>
				<path id="Layer" fill-rule="evenodd" class="s3" d="m1223.3 553.6c5.7 3.5 7.1 10.4 3.8 16.2-3.4 5.8-10.5 7.8-16.3 4.6-5.7-3.2-7.5-10.2-4-16.1 3.5-6 10.7-7.9 16.5-4.7z"/>
				<path id="Layer" fill-rule="evenodd" class="s13" d="m1221.8 555.5c4.5 2.7 5.7 8.2 3 12.7-2.7 4.7-8.3 6.2-12.9 3.7-4.4-2.5-5.9-8.1-3.1-12.7 2.8-4.7 8.5-6.3 13-3.7z"/>
				<path id="Layer" fill-rule="evenodd" class="s6" d="m1220.4 557.4c3.3 2 4.1 6 2.2 9.3-2 3.4-6.1 4.6-9.4 2.7-3.3-1.8-4.3-5.9-2.3-9.3 2-3.4 6.2-4.5 9.5-2.7z"/>
				<path id="Layer" fill-rule="evenodd" class="s18" d="m1219 559.3c2.1 1.3 2.7 3.8 1.4 5.9-1.2 2.1-3.8 2.8-5.9 1.7-2.1-1.2-2.7-3.8-1.5-5.9 1.2-2.2 3.8-2.9 6-1.7z"/>
				<path id="Layer" fill-rule="evenodd" class="s9" d="m1217.6 561.3c0.9 0.5 1.2 1.6 0.7 2.4-0.7 0.9-1.7 1.3-2.6 0.7-0.9-0.4-1.1-1.5-0.6-2.4 0.5-1 1.6-1.3 2.5-0.7z"/>
				<path id="Layer" fill-rule="evenodd" class="s17" d="m1297.4 598.6c4.4 2.5 6 8.8 2.8 13.5-3 5.1-9.1 6.8-13.6 4.4-4.6-2.7-5.9-8.6-2.9-13.6 3.3-4.9 8.7-7.1 13.7-4.3z"/>
				<path id="Layer" fill-rule="evenodd" class="s3" d="m1296.5 600.1c3.6 2.1 4.8 7.3 2.2 11.2-2.5 4.2-7.5 5.5-11.2 3.6-3.9-2.3-4.8-7.1-2.4-11.2 2.8-4.1 7.2-5.9 11.4-3.6z"/>
				<path id="Layer" fill-rule="evenodd" class="s13" d="m1295.5 601.6c2.9 1.7 3.8 5.8 1.8 8.9-2 3.3-5.9 4.3-8.8 2.8-3-1.8-3.8-5.6-1.9-8.8 2.1-3.2 5.6-4.7 8.9-2.9z"/>
				<path id="Layer" fill-rule="evenodd" class="s6" d="m1294.6 603.1c2.1 1.3 2.8 4.3 1.3 6.5-1.5 2.5-4.4 3.3-6.5 2.1-2.2-1.3-2.8-4.1-1.4-6.5 1.6-2.3 4.2-3.4 6.6-2.1z"/>
				<path id="Layer" fill-rule="evenodd" class="s18" d="m1293.6 604.7c1.3 0.8 1.8 2.8 0.8 4.2-0.9 1.4-2.8 2-4.1 1.3-1.4-0.9-1.7-2.7-0.9-4.2 1.1-1.4 2.7-2.1 4.2-1.3z"/>
				<path id="Layer" fill-rule="evenodd" class="s9" d="m1292.7 606.3c0.5 0.4 0.8 1.2 0.3 1.8-0.4 0.6-1.2 0.8-1.7 0.5-0.6-0.3-0.7-1.1-0.4-1.8 0.5-0.6 1.1-0.9 1.8-0.5z"/>
				<path id="Layer" fill-rule="evenodd" class="s19" d="m1418.8 407.7c-4.7 10-16 13-25.4 6.1-10.1-6.8-14.1-20.4-8.8-30.8 4.8-10 16-12.4 25.5-5.5 9.2 7.1 13.3 20 8.7 30.2z"/>
				<path id="Layer" fill-rule="evenodd" class="s20" d="m1416.2 405.5c-4.1 8.6-13.7 11.1-21.8 5.2-8.6-5.9-12-17.5-7.5-26.4 4.1-8.6 13.7-10.6 21.9-4.7 7.9 6.1 11.3 17.1 7.4 25.9z"/>
				<path id="Layer" fill-rule="evenodd" class="s21" d="m1413.6 403.3c-3.3 7.2-11.4 9.3-18.1 4.4-7.2-5-10.1-14.7-6.4-22.2 3.6-7.2 11.5-8.8 18.4-3.9 6.5 5.2 9.5 14.4 6.1 21.7z"/>
				<path id="Layer" fill-rule="evenodd" class="s5" d="m1411 401.1c-2.7 5.8-9.1 7.4-14.6 3.5-5.8-4-8.1-11.8-5.1-17.8 2.8-5.7 9.3-7.1 14.8-3.1 5.2 4.1 7.6 11.6 4.9 17.4z"/>
				<path id="Layer" fill-rule="evenodd" class="s22" d="m1408.5 399c-2 4.3-6.8 5.6-10.9 2.6-4.4-3.1-6.2-8.9-3.9-13.4 2-4.3 6.9-5.4 11.1-2.4 3.9 3.1 5.7 8.7 3.7 13.2z"/>
				<path id="Layer" fill-rule="evenodd" class="s23" d="m1406 396.8c-1.4 3-4.7 3.9-7.5 1.8-2.9-2-4-5.9-2.5-9 1.4-3 4.6-3.7 7.4-1.7 2.7 2.1 3.9 5.9 2.6 8.9z"/>
				<path id="Layer" fill-rule="evenodd" class="s9" d="m1403.4 394.6c-0.7 1.6-2.5 2-3.9 0.9-1.5-1-2.1-3-1.3-4.6 0.7-1.6 2.4-1.9 3.8-0.9 1.4 1.1 2.1 3 1.4 4.6z"/>
				<path id="Layer" fill-rule="evenodd" class="s19" d="m1376.1 450.7c7.9 5.8 10.5 17.1 6.4 26.2-4.9 9.1-14.7 12-22.7 6.6-8.1-5.8-10.6-17.6-6.5-26.6 5.1-9.1 14.8-11.7 22.8-6.2z"/>
				<path id="Layer" fill-rule="evenodd" class="s20" d="m1374.8 452.7c6.9 5 9.1 14.7 5.6 22.5-4.3 7.8-12.7 10.2-19.5 5.6-7-4.9-9.2-15.1-5.6-22.8 4.3-8 12.6-10.1 19.5-5.3z"/>
				<path id="Layer" fill-rule="evenodd" class="s21" d="m1373.6 454.4c5.6 4.3 7.6 12.3 4.6 18.9-3.5 6.6-10.6 8.7-16.4 4.8-5.7-4.2-7.6-12.7-4.6-19.2 3.6-6.7 10.6-8.4 16.4-4.5z"/>
				<path id="Layer" fill-rule="evenodd" class="s5" d="m1372.4 456.4c4.5 3.4 6 9.9 3.7 15.2-2.8 5.2-8.6 6.9-13.2 3.7-4.7-3.3-6.1-10.1-3.8-15.4 2.9-5.4 8.5-6.8 13.3-3.5z"/>
				<path id="Layer" fill-rule="evenodd" class="s22" d="m1371.1 458.1c3.6 2.6 4.7 7.5 2.9 11.5-2.2 4.1-6.5 5.3-10.1 2.9-3.5-2.4-4.7-7.7-2.8-11.7 2.1-4 6.4-5 10-2.7z"/>
				<path id="Layer" fill-rule="evenodd" class="s23" d="m1369.7 460c2.4 1.7 3.2 5.1 2 7.9-1.4 2.8-4.4 3.6-6.8 2-2.4-1.8-3.1-5.3-1.9-8 1.5-2.8 4.4-3.6 6.7-1.9z"/>
				<path id="Layer" fill-rule="evenodd" class="s9" d="m1368.5 461.8c1.3 1 1.8 2.7 1.1 4.2-0.8 1.5-2.3 2-3.6 1.1-1.4-0.9-1.8-2.8-1.1-4.2 0.8-1.5 2.4-2 3.6-1.1z"/>
				<path id="Layer" fill-rule="evenodd" class="s17" d="m1360.4 636.7c2.9 1.6 4 6 1.6 9.5-2.3 3.6-6 5.2-9.4 3.4-3.1-1.8-3.8-6-1.6-9.6 2.1-3.7 6.5-5.2 9.4-3.3z"/>
				<path id="Layer" fill-rule="evenodd" class="s3" d="m1359.7 637.7c2.5 1.5 3.4 5.2 1.4 8-1.9 3-5.1 4.4-7.9 2.8-2.5-1.5-3-5-1.3-7.9 1.8-3.2 5.4-4.3 7.8-2.9z"/>
				<path id="Layer" fill-rule="evenodd" class="s13" d="m1359.1 638.7c2 1 2.7 4.1 1.1 6.4-1.6 2.4-4.1 3.5-6.3 2.3-2.1-1.2-2.5-4-1.1-6.4 1.4-2.5 4.3-3.4 6.3-2.3z"/>
				<path id="Layer" fill-rule="evenodd" class="s6" d="m1358.5 639.7c1.5 0.8 2 3.1 0.8 4.9-1.2 1.8-3.1 2.7-4.8 1.7-1.6-0.9-1.9-3-0.8-4.8 1-1.9 3.3-2.6 4.8-1.8z"/>
				<path id="Layer" fill-rule="evenodd" class="s18" d="m1357.9 640.8c1 0.6 1.3 2.2 0.5 3.3-0.8 1.4-2.1 1.9-3.2 1.3-1.1-0.7-1.3-2.1-0.6-3.4 0.7-1.3 2.2-1.8 3.3-1.2z"/>
				<path id="Layer" fill-rule="evenodd" class="s9" d="m1357.3 642c0.5 0.2 0.7 1.1 0.2 1.7-0.4 0.6-1.1 1-1.7 0.6-0.5-0.3-0.6-1-0.3-1.7 0.4-0.7 1.2-1 1.8-0.6z"/>
				<path id="Layer" fill-rule="evenodd" class="s17" d="m1408.2 665.5c2 1.3 2.6 4.2 0.9 6.7-1.7 2.5-4.4 3.8-6.4 2.7-2.3-1.4-2.6-4.2-0.9-6.7 1.6-2.6 4.4-3.7 6.4-2.7z"/>
				<path id="Layer" fill-rule="evenodd" class="s3" d="m1407.7 666.3c1.7 1 2.1 3.4 0.7 5.6-1.4 2-3.7 3.1-5.4 2.2-1.8-1.2-2.1-3.5-0.7-5.6 1.4-2.1 3.7-3.1 5.4-2.2z"/>
				<path id="Layer" fill-rule="evenodd" class="s13" d="m1407.3 667.1c1.4 0.7 1.8 2.8 0.6 4.5-1.1 1.7-3 2.6-4.4 1.8-1.5-0.9-1.7-2.9-0.6-4.6 1.2-1.7 3-2.5 4.4-1.7z"/>
				<path id="Layer" fill-rule="evenodd" class="s6" d="m1406.8 667.8c1 0.6 1.3 2.2 0.4 3.5-0.9 1.3-2.3 2-3.3 1.4-1.2-0.7-1.3-2.2-0.5-3.5 0.9-1.4 2.3-2 3.4-1.4z"/>
				<path id="Layer" fill-rule="evenodd" class="s18" d="m1406.4 668.5c0.8 0.4 1 1.4 0.4 2.4-0.6 0.9-1.7 1.4-2.4 1-0.9-0.5-1-1.6-0.3-2.5 0.6-0.9 1.5-1.3 2.3-0.9z"/>
				<path id="Layer" fill-rule="evenodd" class="s9" d="m1405.9 669.2c0.4 0.3 0.5 0.9 0.2 1.5-0.4 0.5-0.9 0.7-1.3 0.5-0.5-0.3-0.6-0.9-0.2-1.4 0.3-0.6 1-0.8 1.3-0.6z"/>
				<path id="Layer" fill-rule="evenodd" class="s17" d="m1396.3 572.9c3.6 2.3 4.8 7.6 2.1 11.9-2.3 4.3-7.1 6.1-10.6 3.9-3.5-2.3-4.4-7.5-2.1-12 2.3-4.4 7-6 10.6-3.8z"/>
				<path id="Layer" fill-rule="evenodd" class="s3" d="m1395.6 574.3c3 2 4 6.3 1.8 9.9-2 3.6-5.9 5.1-8.9 3.2-2.9-1.9-3.7-6.2-1.7-10 1.9-3.7 5.8-5 8.8-3.1z"/>
				<path id="Layer" fill-rule="evenodd" class="s13" d="m1394.9 575.7c2.4 1.6 3.2 5 1.4 7.9-1.6 2.8-4.7 4-7.1 2.5-2.3-1.6-2.9-5-1.4-8 1.6-2.9 4.8-4 7.1-2.4z"/>
				<path id="Layer" fill-rule="evenodd" class="s6" d="m1394.2 576.9c1.9 1.2 2.4 3.8 1.1 6-1.2 2.2-3.5 3.1-5.3 1.9-1.7-1.1-2.2-3.8-1-6 1.1-2.2 3.5-3 5.2-1.9z"/>
				<path id="Layer" fill-rule="evenodd" class="s18" d="m1393.5 578.1c1.3 0.8 1.6 2.6 0.7 4-0.8 1.5-2.3 2-3.5 1.3-1.1-0.8-1.5-2.5-0.7-4 0.8-1.4 2.4-2 3.5-1.3z"/>
				<path id="Layer" fill-rule="evenodd" class="s9" d="m1392.8 579.5c0.6 0.4 0.8 1.2 0.4 2-0.5 0.7-1.2 0.9-1.8 0.6-0.6-0.4-0.7-1.3-0.3-2 0.4-0.7 1.1-0.9 1.7-0.6z"/>
				<path id="Layer" fill-rule="evenodd" class="s17" d="m1434.1 497.9c4.9 3.8 6.6 11.5 3.5 17.6-3.2 6.4-9.1 8.6-14.4 5-4.9-3.7-6.5-11.4-3.6-17.9 3.3-6.3 9.2-8.3 14.5-4.7z"/>
				<path id="Layer" fill-rule="evenodd" class="s3" d="m1433.1 499.9c4.2 3.2 5.6 9.6 3 14.7-2.6 5.2-7.5 7-11.9 4-4.2-3-5.4-9.5-3-14.8 2.7-5.3 7.6-6.9 11.9-3.9z"/>
				<path id="Layer" fill-rule="evenodd" class="s13" d="m1432.1 501.7c3.4 2.5 4.5 7.6 2.4 11.7-2 4.1-6 5.6-9.5 3.2-3.2-2.4-4.3-7.5-2.3-11.8 2.2-4.1 6-5.4 9.4-3.1z"/>
				<path id="Layer" fill-rule="evenodd" class="s6" d="m1431.3 503.7c2.4 1.9 3.3 5.7 1.7 8.7-1.5 3.1-4.4 4.1-7 2.4-2.5-1.9-3.2-5.7-1.8-8.8 1.7-3.1 4.5-4 7.1-2.3z"/>
				<path id="Layer" fill-rule="evenodd" class="s18" d="m1430.3 505.6c1.6 1.1 2.1 3.7 1.1 5.6-0.9 2-2.8 2.7-4.5 1.6-1.6-1.2-2.1-3.7-1.2-5.7 1.2-2 3-2.7 4.6-1.5z"/>
				<path id="Layer" fill-rule="evenodd" class="s9" d="m1429.4 507.5c0.7 0.5 1 1.7 0.6 2.6-0.5 0.9-1.4 1.2-2.2 0.7-0.7-0.5-0.9-1.7-0.5-2.6 0.5-0.9 1.4-1.3 2.1-0.7z"/>
				<path id="Layer" fill-rule="evenodd" class="s0" d="m1345.3 152.9c19 11.1 28.5 29.4 20.8 43.6-7.6 13.5-29.7 16.2-50 4.8-20.3-11.8-28.5-31.8-20.2-44.5 9.3-13.5 30.4-14.4 49.4-3.9z"/>
				<path id="Layer" fill-rule="evenodd" class="s24" d="m1343.8 154.3c17.3 9.9 26 26.6 19.2 39.6-6.9 12.3-27 14.8-45.4 4.6-18.4-10.6-26.1-28.8-18.5-40.4 8.3-12.2 27.4-13.3 44.7-3.8z"/>
				<path id="Layer" fill-rule="evenodd" class="s25" d="m1342.3 155.7c15.6 8.8 23.6 23.8 17.4 35.5-6 11-24 13.5-40.7 4.4-16.6-9.4-23.5-25.7-16.8-36.2 7.4-11 24.5-12 40.1-3.7z"/>
				<path id="Layer" fill-rule="evenodd" class="s26" d="m1341 157.2c14 7.7 21.1 21 15.8 31.4-5.4 10-21.4 12.2-36.2 4.3-14.8-8.3-21.2-22.7-15.3-32.1 6.5-9.9 21.7-11 35.7-3.6z"/>
				<path id="Layer" fill-rule="evenodd" class="s27" d="m1339.6 158.6c12.1 6.7 18.5 18.2 13.9 27.4-4.6 8.8-18.5 10.9-31.5 4.1-13-7.1-18.6-19.7-13.6-28 5.6-8.6 18.9-9.8 31.2-3.5z"/>
				<path id="Layer" fill-rule="evenodd" class="s13" d="m1338.1 160c10.5 5.5 16.1 15.4 12.2 23.3-3.8 7.6-15.7 9.6-26.8 3.9-11.2-5.9-16.2-16.5-11.9-23.7 4.6-7.5 15.9-8.6 26.5-3.5z"/>
				<path id="Layer" fill-rule="evenodd" class="s28" d="m1336.6 161.5c8.7 4.4 13.6 12.6 10.5 19.3-3.1 6.4-12.9 8.2-22.2 3.6-9.3-4.6-13.6-13.5-10.3-19.5 3.8-6.4 13.2-7.6 22-3.4z"/>
				<path id="Layer" fill-rule="evenodd" class="s29" d="m1335.2 162.9c7.1 3.4 11 9.8 8.7 15.2-2.2 5.2-10.1 7-17.5 3.5-7.5-3.5-11.2-10.4-8.6-15.4 2.8-5.2 10.2-6.4 17.4-3.3z"/>
				<path id="Layer" fill-rule="evenodd" class="s30" d="m1333.6 164.3c5.4 2.2 8.6 7.1 7.1 11.2-1.5 4-7.2 5.6-12.9 3.3-5.6-2.4-8.6-7.4-6.9-11.3 1.9-4 7.3-5.3 12.7-3.2z"/>
				<path id="Layer" fill-rule="evenodd" class="s31" d="m1332.2 165.8c3.7 1.1 6.1 4.1 5.3 7-0.7 2.8-4.4 4.3-8.2 3.2-3.8-1.1-6.2-4.4-5.3-7.1 1-2.9 4.5-4.1 8.2-3.1z"/>
			</g>
			<path id="Layer" class="s9" d="m1327.1 170.2c0-1.7 1.7-3 3.6-3 2 0 3.6 1.3 3.6 3 0 1.7-1.7 3-3.6 3-1.9 0-3.6-1.3-3.6-3z"/>
			<path id="Layer" fill-rule="evenodd" class="s0" d="m1246.1 15.7c7.9 2.7 11.3 7.4 7.9 10.6-3.7 3.1-13 3.6-21.2 0.9-8.1-2.9-11-7.3-7.4-10.6 3.9-2.8 12.8-3.4 20.7-0.9z"/>
			<path id="Layer" fill-rule="evenodd" class="s10" d="m1252.5 25.4c-3.3 2.9-11.5 3.3-18.8 0.9-7.2-2.5-9.8-6.4-6.7-9.4 3.4-2.5 11.3-3 18.5-0.8 6.9 2.4 10 6.5 7 9.3z"/>
			<path id="Layer" fill-rule="evenodd" class="s11" d="m1250.8 24.7c-2.9 2.5-10.1 2.9-16.4 0.8-6.3-2.1-8.7-5.5-5.9-8.1 3.1-2.2 9.9-2.7 16.2-0.8 6 2 8.7 5.6 6.1 8.1z"/>
			<path id="Layer" fill-rule="evenodd" class="s12" d="m1249.2 24c-2.4 2.2-8.6 2.5-14 0.8-5.4-1.8-7.4-4.8-5-7 2.6-1.9 8.4-2.3 13.8-0.8 5.1 1.8 7.4 4.9 5.2 7z"/>
			<path id="Layer" fill-rule="evenodd" class="s13" d="m1247.6 23.4c-2.1 1.7-7.1 2.1-11.6 0.7-4.5-1.5-6.2-4-4.2-5.8 2.1-1.6 6.9-2.1 11.4-0.7 4.3 1.4 6.2 3.8 4.4 5.8z"/>
			<path id="Layer" fill-rule="evenodd" class="s14" d="m1246.1 22.5c-1.6 1.5-5.6 1.7-9.2 0.7-3.6-1.2-5-3.1-3.5-4.6 1.7-1.2 5.6-1.6 9.1-0.6 3.4 1.1 4.9 3.1 3.6 4.5z"/>
			<path id="Layer" fill-rule="evenodd" class="s15" d="m1244.3 21.8c-1.1 1.1-4.1 1.4-6.8 0.6-2.7-0.8-3.7-2.2-2.6-3.3 1.3-1 4.2-1.4 6.8-0.7 2.5 0.8 3.7 2.3 2.6 3.4z"/>
			<path id="Layer" fill-rule="evenodd" class="s16" d="m1242.7 21.1c-0.7 0.7-2.7 1-4.4 0.5-1.8-0.4-2.5-1.3-1.8-2.1 0.8-0.7 2.6-1 4.4-0.5 1.8 0.4 2.5 1.3 1.8 2.1z"/>
			<path id="Layer" fill-rule="evenodd" class="s9" d="m1240.1 19.4c0.8 0.1 1.2 0.5 1 0.9-0.3 0.3-1.2 0.5-2 0.4-0.8-0.1-1.2-0.5-0.9-0.9 0.3-0.3 1.1-0.5 1.9-0.4z"/>
			<path id="Layer" fill-rule="evenodd" class="s0" d="m1254.4 102.3c24.6 6 40.8 24.5 36.3 41.4-4.6 16.9-28.3 25.5-52.9 19.5-24.6-6.1-40.8-24.6-36.2-41.4 4.5-16.9 28.2-25.6 52.8-19.5z"/>
			<path id="Layer" fill-rule="evenodd" class="s1" d="m1253.4 104.2c22.3 5.5 37 22.3 33 37.5-4.2 15.2-25.5 23.1-47.7 17.6-22.2-5.4-36.9-22.3-32.9-37.4 4-15.3 25.4-23.2 47.6-17.7z"/>
			<path id="Layer" fill-rule="evenodd" class="s2" d="m1252.5 105.9c19.9 4.9 33.1 19.9 29.6 33.5-3.6 13.6-22.6 20.7-42.5 15.9-19.9-4.9-33.2-19.9-29.6-33.5 3.5-13.6 22.6-20.7 42.5-15.9z"/>
			<path id="Layer" fill-rule="evenodd" class="s3" d="m1251.5 107.8c17.6 4.3 29.3 17.5 26.3 29.5-3.1 12-19.8 18.3-37.3 14.1-17.6-4.3-29.4-17.5-26.3-29.5 3-12.1 19.7-18.4 37.3-14.1z"/>
			<path id="Layer" fill-rule="evenodd" class="s4" d="m1250.5 109.5c15.1 3.6 25.4 15.1 22.9 25.5-2.6 10.4-17 16-32.2 12.4-15.1-3.6-25.4-15-22.9-25.5 2.6-10.4 17-16 32.2-12.4z"/>
			<path id="Layer" fill-rule="evenodd" class="s5" d="m1249.5 111.4c12.8 3.1 21.6 12.6 19.6 21.5-2.1 8.9-14.2 13.5-27 10.5-12.8-3-21.6-12.6-19.5-21.5 2-8.8 14.1-13.5 26.9-10.5z"/>
			<path id="Layer" fill-rule="evenodd" class="s6" d="m1248.4 113.2c10.6 2.4 17.8 10.2 16.3 17.5-1.5 7.3-11.3 11.1-21.7 8.8-10.5-2.4-17.7-10.2-16.2-17.5 1.5-7.3 11.2-11.1 21.6-8.8z"/>
			<path id="Layer" fill-rule="evenodd" class="s7" d="m1247.5 115c8.1 1.8 13.8 7.9 12.8 13.5-1 5.7-8.4 8.8-16.5 7-8.1-1.8-13.9-7.9-12.8-13.5 0.9-5.6 8.4-8.8 16.5-7z"/>
			<path id="Layer" fill-rule="evenodd" class="s8" d="m1246.4 116.9c5.7 1.2 10 5.5 9.5 9.5-0.4 4.1-5.5 6.4-11.3 5.2-5.7-1.1-10-5.4-9.5-9.5 0.5-4 5.6-6.4 11.3-5.2z"/>
			<path id="Layer" fill-rule="evenodd" class="s9" d="m1245.5 127.8c-3.4 0-6.1-2.1-6.1-4.6 0-2.6 2.7-4.6 6.1-4.6 3.4 0 6.2 2 6.2 4.6 0 2.5-2.8 4.6-6.2 4.6z"/>
			<path id="Layer" fill-rule="evenodd" class="s0" d="m1140.3 40.3c-9.2 0-16.6-3.7-16.6-8.2 0-4.5 7.4-8.2 16.6-8.2 9.1 0 16.5 3.7 16.5 8.2 0 4.5-7.4 8.2-16.5 8.2z"/>
			<path id="Layer" fill-rule="evenodd" class="s10" d="m1140.3 39.2c-8.1 0-14.7-3.2-14.7-7.3 0-4 6.6-7.3 14.7-7.3 8.1 0 14.6 3.3 14.6 7.3 0 4.1-6.5 7.3-14.6 7.3z"/>
			<path id="Layer" fill-rule="evenodd" class="s11" d="m1140.3 38c-7.1 0-12.8-2.9-12.8-6.4 0-3.5 5.7-6.3 12.8-6.3 7 0 12.7 2.8 12.7 6.3 0 3.5-5.7 6.4-12.7 6.4z"/>
			<path id="Layer" fill-rule="evenodd" class="s12" d="m1140.3 36.8c-6 0-10.9-2.4-10.9-5.4 0-3 4.9-5.4 10.9-5.4 6 0 10.9 2.4 10.9 5.4 0 3-4.9 5.4-10.9 5.4z"/>
			<path id="Layer" fill-rule="evenodd" class="s13" d="m1140.3 35.7c-5 0-9-2-9-4.5 0-2.5 4-4.5 9-4.5 5 0 9.1 2 9.1 4.5 0 2.5-4.1 4.5-9.1 4.5z"/>
			<path id="Layer" fill-rule="evenodd" class="s14" d="m1140.3 34.5c-4 0-7.2-1.6-7.2-3.5 0-2 3.2-3.6 7.2-3.6 3.9 0 7.1 1.6 7.1 3.6 0 1.9-3.2 3.5-7.1 3.5z"/>
			<path id="Layer" fill-rule="evenodd" class="s15" d="m1145.6 30.4c0.1 1.4-2.2 2.7-5.1 2.9-2.9 0.1-5.4-0.9-5.5-2.3 0-1.4 2.2-2.7 5.1-2.9 2.9-0.1 5.4 0.9 5.5 2.3z"/>
			<path id="Layer" fill-rule="evenodd" class="s16" d="m1143.6 30.4c0.1 0.9-1.4 1.7-3.3 1.8-1.9 0-3.4-0.6-3.5-1.6-0.1-0.9 1.4-1.7 3.3-1.8 2-0.1 3.5 0.6 3.5 1.6z"/>
			<path id="Layer" class="s9" d="m1138.7 30.3c0-0.5 0.7-0.8 1.6-0.8 0.9 0 1.6 0.3 1.6 0.8 0 0.4-0.7 0.8-1.6 0.8-0.9-0.1-1.6-0.4-1.6-0.8z"/>
			<path id="Layer" fill-rule="evenodd" class="s0" d="m1176.4 6.3c-4.3 0-7.7-1.4-7.7-3.1 0-1.8 3.4-3.2 7.7-3.2 4.3 0 7.8 1.4 7.8 3.2 0 1.7-3.5 3.1-7.8 3.1z"/>
			<path id="Layer" fill-rule="evenodd" class="s17" d="m1183.1 3.3c0 1.4-3 2.5-6.7 2.4-3.7-0.1-6.6-1.4-6.6-2.9 0-1.5 3-2.5 6.7-2.4 3.7 0.1 6.6 1.4 6.6 2.9z"/>
			<path id="Layer" fill-rule="evenodd" class="s3" d="m1181.8 3.2c0 1.2-2.4 2.1-5.4 2-3-0.1-5.4-1.2-5.4-2.4 0-1.2 2.5-2.1 5.5-2 3 0.1 5.3 1.1 5.3 2.4z"/>
			<path id="Layer" fill-rule="evenodd" class="s13" d="m1180.6 3c0 1-1.9 1.7-4.3 1.6-2.4-0.1-4.2-0.9-4.2-1.9 0-0.9 1.9-1.6 4.3-1.6 2.4 0.1 4.2 0.9 4.2 1.9z"/>
			<path id="Layer" fill-rule="evenodd" class="s6" d="m1179.5 2.8c0 0.7-1.4 1.2-3.1 1.2-1.8 0-3.1-0.7-3.1-1.4 0-0.7 1.4-1.1 3.1-1.1 1.7 0.1 3.1 0.6 3.1 1.3z"/>
			<path id="Layer" fill-rule="evenodd" class="s18" d="m1178.2 2.6c0 0.4-0.9 0.7-1.9 0.7-1.1 0-1.9-0.3-1.9-0.7 0-0.4 0.8-0.7 1.9-0.7 1 0 1.9 0.4 1.9 0.7z"/>
			<path id="Layer" class="s9" d="m1175.5 2.5c0-0.1 0.4-0.2 0.7-0.2 0.4 0 0.7 0.2 0.7 0.2 0 0.2-0.3 0.3-0.7 0.3-0.3 0-0.7-0.1-0.7-0.3z"/>
			<path id="Layer" fill-rule="evenodd" class="s0" d="m1443.8 127.6c-3.6-2.9-5.3-6.5-3.9-8.4 1.4-1.8 5.5-1 9.2 1.8 3.6 2.8 5.3 6.5 3.9 8.3-1.4 1.8-5.5 1-9.2-1.7z"/>
			<path id="Layer" fill-rule="evenodd" class="s19" d="m1444.2 126.9c-3.3-2.4-4.8-5.7-3.5-7.3 1.3-1.5 4.9-0.8 8 1.6 3.3 2.5 4.8 5.7 3.5 7.3-1.3 1.6-4.9 0.9-8-1.6z"/>
			<path id="Layer" fill-rule="evenodd" class="s20" d="m1444.5 126.4c-2.7-2.1-4-4.9-3-6.2 1.1-1.4 4.2-0.8 6.9 1.3 2.7 2.1 4 4.9 3 6.2-1.1 1.4-4.2 0.8-6.9-1.3z"/>
			<path id="Layer" fill-rule="evenodd" class="s21" d="m1444.8 125.9c-2.3-1.8-3.3-4-2.5-5.2 0.9-1 3.5-0.6 5.7 1.2 2.3 1.7 3.4 4 2.5 5.1-0.9 1.1-3.4 0.6-5.7-1.1z"/>
			<path id="Layer" fill-rule="evenodd" class="s5" d="m1445 125.4c-1.7-1.4-2.6-3.3-1.9-4.2 0.7-0.8 2.8-0.5 4.6 0.9 1.7 1.4 2.6 3.3 1.9 4.1-0.7 0.9-2.7 0.6-4.6-0.8z"/>
			<path id="Layer" fill-rule="evenodd" class="s22" d="m1445.4 124.8c-1.4-1-2-2.3-1.5-3 0.6-0.7 2.1-0.5 3.4 0.6 1.4 1 2 2.3 1.5 3-0.5 0.7-2 0.4-3.4-0.6z"/>
			<path id="Layer" fill-rule="evenodd" class="s23" d="m1445.8 124.2c-0.9-0.7-1.4-1.6-1-2 0.3-0.4 1.3-0.3 2.2 0.4 0.9 0.7 1.3 1.6 0.9 2-0.3 0.5-1.3 0.3-2.1-0.4z"/>
			<path id="Layer" fill-rule="evenodd" class="s9" d="m1446 123.8c-0.4-0.4-0.6-0.8-0.4-1 0.2-0.2 0.6-0.2 1 0.2 0.5 0.3 0.6 0.8 0.5 1-0.1 0.1-0.6 0-1.1-0.2z"/>
			<path id="Layer" fill-rule="evenodd" class="s0" d="m1256.8 520.5c-13.5 0-24.3-10.8-24.3-24.3 0-13.4 10.8-24.3 24.3-24.3 13.4 0 24.3 10.9 24.3 24.3 0 13.5-10.9 24.3-24.3 24.3z"/>
			<path id="Layer" fill-rule="evenodd" class="s19" d="m1256.7 517.2c-11.7 0-21.2-9.4-21.2-21.1 0-11.7 9.5-21.2 21.2-21.2 11.7 0 21.1 9.5 21.1 21.2 0 11.7-9.4 21.1-21.1 21.1z"/>
			<path id="Layer" fill-rule="evenodd" class="s20" d="m1256.5 513.9c-9.9 0-18-8.1-18-18 0-10 8.1-18 18-18 10 0 18 8 18 18 0 9.9-8 18-18 18z"/>
			<path id="Layer" fill-rule="evenodd" class="s21" d="m1256.4 510.5c-8.2 0-14.8-6.6-14.8-14.8 0-8.2 6.6-14.8 14.8-14.8 8.2 0 14.9 6.6 14.9 14.8 0 8.2-6.7 14.8-14.9 14.8z"/>
			<path id="Layer" fill-rule="evenodd" class="s5" d="m1256.3 507.2c-6.5 0-11.7-5.2-11.7-11.7 0-6.4 5.2-11.6 11.7-11.6 6.4 0 11.6 5.2 11.6 11.6 0 6.5-5.2 11.7-11.6 11.7z"/>
			<path id="Layer" fill-rule="evenodd" class="s22" d="m1256.2 503.9c-4.7 0-8.5-3.8-8.5-8.5 0-4.8 3.8-8.6 8.5-8.6 4.7 0 8.5 3.8 8.5 8.6 0 4.7-3.8 8.5-8.5 8.5z"/>
			<path id="Layer" fill-rule="evenodd" class="s23" d="m1256.1 500.5c-3 0-5.4-2.4-5.4-5.3 0-3 2.4-5.4 5.4-5.4 2.9 0 5.3 2.4 5.3 5.4 0 2.9-2.4 5.3-5.3 5.3z"/>
			<path id="Layer" fill-rule="evenodd" class="s9" d="m1255.9 492.8c1.2 0 2.2 1 2.2 2.2 0 1.2-1 2.2-2.2 2.2-1.2 0-2.2-1-2.2-2.2 0-1.2 1-2.2 2.2-2.2z"/>
			<path id="Layer" fill-rule="evenodd" class="s0" d="m1336.2 528.7c6.7 3.7 9 12.5 5.1 19.6-3.9 7.1-12.5 9.9-19.2 6.2-6.7-3.7-9-12.5-5.1-19.6 3.9-7.2 12.5-9.9 19.2-6.2z"/>
			<path id="Layer" fill-rule="evenodd" class="s17" d="m1335.3 530.2c5.7 3.1 7.7 10.6 4.3 16.7-3.3 6.1-10.6 8.6-16.4 5.4-5.8-3.2-7.7-10.6-4.4-16.8 3.4-6.1 10.7-8.5 16.5-5.3z"/>
			<path id="Layer" fill-rule="evenodd" class="s3" d="m1334.3 531.7c4.7 2.6 6.4 8.8 3.6 13.9-2.8 5.1-8.9 7.1-13.7 4.5-4.8-2.6-6.4-8.8-3.6-13.9 2.7-5.1 8.9-7.1 13.7-4.5z"/>
			<path id="Layer" fill-rule="evenodd" class="s13" d="m1333.2 533.2c3.8 2.1 5.1 7.1 2.9 11.1-2.2 4.2-7.1 5.7-10.9 3.6-3.7-2.1-5-7.1-2.9-11.1 2.2-4 7.2-5.6 10.9-3.6z"/>
			<path id="Layer" fill-rule="evenodd" class="s6" d="m1332.3 534.8c2.9 1.4 3.8 5.2 2.2 8.2-1.7 3-5.4 4.2-8.2 2.6-2.9-1.5-3.9-5.2-2.2-8.2 1.7-3 5.4-4.2 8.2-2.6z"/>
			<path id="Layer" fill-rule="evenodd" class="s18" d="m1331.3 536.3c1.8 1 2.5 3.5 1.4 5.5-1 2-3.5 2.8-5.3 1.7-1.9-0.9-2.5-3.4-1.5-5.4 1.1-2 3.5-2.8 5.4-1.8z"/>
			<path id="Layer" fill-rule="evenodd" class="s9" d="m1330.3 537.8c0.9 0.5 1.3 1.7 0.7 2.7-0.5 0.9-1.7 1.4-2.6 0.9-0.9-0.5-1.2-1.7-0.7-2.7 0.5-0.9 1.7-1.4 2.6-0.9z"/>
			<path id="Layer" fill-rule="evenodd" class="s0" d="m1436.7 618c-3.1-1.1-4.5-5.1-3.1-9.1 1.4-3.8 5-6.1 8.1-5.1 3.1 1.1 4.5 5.1 3.1 9.1-1.4 3.9-5.1 6.2-8.1 5.1z"/>
			<path id="Layer" fill-rule="evenodd" class="s17" d="m1437.1 617c-2.7-0.9-3.9-4.5-2.7-7.8 1.2-3.3 4.3-5.3 7-4.4 2.6 1 3.8 4.5 2.6 7.8-1.2 3.5-4.3 5.4-6.9 4.4z"/>
			<path id="Layer" fill-rule="evenodd" class="s3" d="m1439.2 616.2c-2.4 0-4.4-2.3-4.4-5.2 0-3 2-5.3 4.4-5.3 2.4 0 4.4 2.3 4.4 5.3 0 2.9-2 5.2-4.4 5.2z"/>
			<path id="Layer" fill-rule="evenodd" class="s13" d="m1437.8 615.1c-1.8-0.6-2.6-3-1.8-5.3 0.8-2.3 2.9-3.6 4.7-3 1.7 0.7 2.5 3 1.7 5.3-0.8 2.3-2.9 3.6-4.6 3z"/>
			<path id="Layer" fill-rule="evenodd" class="s6" d="m1438 614.1c-1.3-0.4-1.9-2.2-1.3-3.9 0.6-1.8 2.3-2.8 3.6-2.3 1.3 0.4 1.9 2.2 1.3 3.9-0.6 1.7-2.2 2.8-3.6 2.3z"/>
			<path id="Layer" fill-rule="evenodd" class="s18" d="m1438.4 613.1c-1-0.4-1.4-1.6-1-2.8 0.4-1.1 1.5-1.8 2.5-1.4 0.9 0.3 1.4 1.5 0.9 2.7-0.4 1.1-1.5 1.8-2.4 1.5z"/>
			<path id="Layer" fill-rule="evenodd" class="s9" d="m1438.7 612.1c-0.5-0.2-0.7-0.8-0.5-1.4 0.3-0.6 0.8-1 1.3-0.8 0.5 0.2 0.7 0.8 0.5 1.4-0.2 0.6-0.7 1-1.3 0.8z"/>
			<path id="Layer" fill-rule="evenodd" class="s0" d="m1473.7 552.5c-4.4 0-8-4.4-8-9.8 0-5.4 3.6-9.8 8-9.8 4.4 0 8 4.4 8 9.8 0 5.4-3.6 9.8-8 9.8z"/>
			<path id="Layer" fill-rule="evenodd" class="s17" d="m1473.7 551.1c-3.8 0-6.8-3.8-6.8-8.4 0-4.7 3-8.5 6.8-8.5 3.8 0 6.8 3.8 6.8 8.5 0 4.6-3 8.4-6.8 8.4z"/>
			<path id="Layer" fill-rule="evenodd" class="s3" d="m1473.7 549.8c-3.2 0-5.7-3.2-5.7-7 0-3.9 2.5-7.1 5.7-7.1 3.2 0 5.8 3.2 5.8 7.1 0 3.8-2.6 7-5.8 7z"/>
			<path id="Layer" fill-rule="evenodd" class="s13" d="m1473.7 548.3c-2.5 0-4.6-2.5-4.6-5.5 0-3.1 2.1-5.6 4.6-5.6 2.5 0 4.6 2.5 4.6 5.6 0 3-2.1 5.5-4.6 5.5z"/>
			<path id="Layer" fill-rule="evenodd" class="s6" d="m1472.9 546.9c-1.8-0.4-2.9-2.5-2.5-4.8 0.5-2.2 2.3-3.8 4.1-3.5 1.8 0.4 2.9 2.5 2.5 4.8-0.4 2.3-2.3 3.8-4.1 3.5z"/>
			<path id="Layer" fill-rule="evenodd" class="s18" d="m1473.1 545.5c-1.2-0.3-1.9-1.7-1.6-3.2 0.2-1.5 1.5-2.5 2.7-2.3 1.2 0.3 1.9 1.7 1.7 3.2-0.3 1.5-1.5 2.5-2.8 2.3z"/>
			<path id="Layer" fill-rule="evenodd" class="s9" d="m1473.5 544.1c-0.6-0.2-1-0.9-0.8-1.6 0.2-0.8 0.7-1.2 1.3-1.2 0.6 0.2 1 0.9 0.8 1.6-0.2 0.7-0.8 1.2-1.3 1.2z"/>
			<path id="Layer" fill-rule="evenodd" class="s0" d="m1464.2 456.6c-7.6 1.7-15.5-4.7-17.6-14.3-2.1-9.6 2.4-18.7 10-20.3 7.6-1.7 15.5 4.7 17.6 14.3 2.1 9.5-2.4 18.6-10 20.3z"/>
			<path id="Layer" fill-rule="evenodd" class="s17" d="m1463.6 453.8c-6.5 1.5-13.3-4-15-12.2-1.9-8.1 2-16 8.5-17.4 6.6-1.5 13.3 4.1 15.1 12.2 1.8 8.2-2 16-8.6 17.4z"/>
			<path id="Layer" fill-rule="evenodd" class="s3" d="m1463 451.2c-5.4 1.1-11-3.3-12.5-10.2-1.5-6.8 1.7-13.2 7.1-14.5 5.4-1.1 11.1 3.4 12.6 10.2 1.4 6.8-1.7 13.3-7.2 14.5z"/>
			<path id="Layer" fill-rule="evenodd" class="s13" d="m1462.4 448.5c-4.3 1-8.7-2.6-10-8.1-1.1-5.4 1.4-10.6 5.7-11.6 4.3-0.9 8.8 2.7 10 8.1 1.3 5.4-1.3 10.6-5.7 11.6z"/>
			<path id="Layer" fill-rule="evenodd" class="s6" d="m1460.3 445.9c-3.4 0-6.1-3.3-6.1-7.5 0-4.1 2.7-7.4 6.1-7.4 3.3 0 6 3.3 6 7.4 0 4.2-2.7 7.5-6 7.5z"/>
			<path id="Layer" fill-rule="evenodd" class="s18" d="m1460.2 443.1c-2.2 0-4-2.2-4-4.9 0-2.8 1.8-5 4-5 2.3 0 4.1 2.2 4.1 5 0 2.7-1.8 4.9-4.1 4.9z"/>
			<path id="Layer" fill-rule="evenodd" class="s9" d="m1460.8 440.3c-1.1 0.3-2.1-0.6-2.4-1.9-0.4-1.3 0.3-2.5 1.3-2.8 1.1-0.2 2.1 0.7 2.4 2 0.3 1.2-0.3 2.4-1.3 2.7z"/>
			<path id="Layer" fill-rule="evenodd" class="s0" d="m1494.9 355.7c8.2 6.8 11.7 18.9 8.3 28.4-3.4 9.2-12.9 11.5-20.9 4.9-8.7-7.1-12.1-19.9-8.5-29.2 3.7-9.2 13-11 21.1-4.1z"/>
			<path id="Layer" fill-rule="evenodd" class="s0" d="m1515.1 288.4c8.5 6.2 13.7 17.6 11.6 26.1-1.9 8.3-10 10.1-18.7 4.2-8.7-6.5-14.2-18.1-11.9-26.7 2.2-8.4 10.9-10 19-3.6z"/>
			<path id="Layer" fill-rule="evenodd" class="s17" d="m1493.6 357.3c6.9 5.7 9.9 15.8 7.1 24-2.8 7.7-10.8 9.8-17.6 4.3-7.4-5.8-10.4-16.6-7.3-24.6 3.1-7.9 10.9-9.5 17.8-3.7z"/>
			<path id="Layer" fill-rule="evenodd" class="s3" d="m1492.3 359c5.7 4.5 8.2 12.9 5.9 19.5-2.2 6.4-8.7 8.2-14.4 3.8-6-4.7-8.5-13.4-6-20 2.4-6.5 8.8-7.9 14.5-3.3z"/>
			<path id="Layer" fill-rule="evenodd" class="s13" d="m1491 360.5c4.4 3.4 6.4 9.9 4.8 15.1-1.7 5.1-6.7 6.7-11.2 3.4-4.7-3.6-6.7-10.3-4.9-15.5 1.9-5.1 6.9-6.4 11.3-3z"/>
			<path id="Layer" fill-rule="evenodd" class="s6" d="m1489.6 362.1c3.3 2.3 4.9 6.9 3.7 10.7-1.1 3.7-4.6 5-7.9 2.8-3.3-2.2-4.9-7.1-3.7-10.8 1.3-3.7 4.8-4.9 7.9-2.7z"/>
			<path id="Layer" fill-rule="evenodd" class="s18" d="m1488.4 363.8c2 1.1 3.1 3.8 2.6 6.2-0.7 2.4-2.7 3.4-4.7 2.3-2.1-1.2-3.2-4-2.5-6.3 0.6-2.4 2.6-3.4 4.6-2.2z"/>
			<path id="Layer" class="s9" d="m1485.7 367.2c0-1 0.6-1.8 1.4-1.8 0.8 0 1.4 0.8 1.4 1.8 0 1-0.6 1.8-1.4 1.8-0.8 0-1.4-0.8-1.4-1.8z"/>
			<path id="Layer" fill-rule="evenodd" class="s17" d="m1514.5 290c7.2 5.1 11.6 14.7 9.8 21.9-1.5 7.1-8.4 8.8-15.8 3.8-7.4-5.4-12-15.1-10.1-22.5 1.9-7 9.2-8.6 16.1-3.2z"/>
			<path id="Layer" fill-rule="evenodd" class="s3" d="m1513.9 291.5c5.8 4.2 9.5 12 8.1 17.9-1.2 5.9-6.8 7.3-12.9 3.4-6-4.3-9.8-12.3-8.3-18.4 1.5-5.8 7.4-7.2 13.1-2.9z"/>
			<path id="Layer" fill-rule="evenodd" class="s13" d="m1513.2 293c4.6 3.2 7.5 9.2 6.5 13.9-0.9 4.6-5.3 6-10.1 3-4.7-3.3-7.7-9.4-6.5-14.3 1.1-4.5 5.8-5.7 10.1-2.6z"/>
			<path id="Layer" fill-rule="evenodd" class="s6" d="m1512.6 294.5c3.4 2.1 5.5 6.4 4.8 9.8-0.6 3.5-3.7 4.6-7.1 2.6-3.4-2.1-5.7-6.5-4.9-10 0.7-3.4 4-4.4 7.2-2.4z"/>
			<path id="Layer" fill-rule="evenodd" class="s18" d="m1511.9 296.1c2 1 3.5 3.6 3.1 5.8-0.3 2.2-2.2 3-4.2 2.1-2-1.1-3.4-3.7-3.1-5.9 0.4-2.1 2.3-3.1 4.2-2z"/>
			<path id="Layer" class="s9" d="m1510 299.4c0-0.9 0.6-1.6 1.3-1.6 0.7 0 1.3 0.7 1.3 1.6 0 1-0.6 1.7-1.3 1.7-0.7 0-1.3-0.8-1.3-1.7z"/>
			<path id="Layer" fill-rule="evenodd" class="s0" d="m1555.5 351.6c-4.2 1.6-9.6-2.8-12.3-9.7-2.7-6.9-1.5-13.7 2.6-15.3 4.1-1.6 9.6 2.8 12.3 9.8 2.6 6.9 1.5 13.7-2.6 15.2z"/>
			<path id="Layer" fill-rule="evenodd" class="s17" d="m1557 336.3c2.2 5.9 1.3 11.7-2.2 13-3.5 1.3-8.2-2.4-10.5-8.3-2.3-5.9-1.3-11.7 2.2-13 3.5-1.3 8.2 2.5 10.5 8.3z"/>
			<path id="Layer" fill-rule="evenodd" class="s3" d="m1555.8 336.3c1.9 4.8 1.1 9.6-1.8 10.7-2.9 1.1-6.8-1.9-8.6-6.8-1.9-4.8-1.1-9.6 1.8-10.7 2.9-1.1 6.8 2 8.6 6.8z"/>
			<path id="Layer" fill-rule="evenodd" class="s13" d="m1554.8 336.2c1.4 3.7 0.7 7.5-1.5 8.4-2.3 0.8-5.3-1.5-6.8-5.3-1.4-3.7-0.8-7.5 1.5-8.4 2.3-0.8 5.3 1.5 6.8 5.3z"/>
			<path id="Layer" fill-rule="evenodd" class="s6" d="m1553.6 336.2c1.1 2.7 0.6 5.5-1 6.1-1.7 0.6-3.9-1.1-4.9-3.8-1.1-2.7-0.7-5.4 1-6.1 1.7-0.7 3.9 1.1 4.9 3.8z"/>
			<path id="Layer" fill-rule="evenodd" class="s18" d="m1552.6 336.1c0.6 1.7 0.3 3.4-0.7 3.8-1.1 0.4-2.4-0.6-3.1-2.3-0.6-1.7-0.4-3.3 0.7-3.8 1-0.4 2.4 0.6 3.1 2.3z"/>
			<path id="Layer" class="s9" d="m1549.9 336.7c-0.2-0.6-0.1-1.2 0.3-1.4 0.4-0.1 1 0.2 1.2 0.8 0.3 0.6 0.1 1.3-0.2 1.4-0.5 0.2-1-0.2-1.3-0.8z"/>
			<path id="Layer" fill-rule="evenodd" class="s0" d="m1539 428.2c-6 1.4-12.6-4.6-14.7-13.3-2-8.7 1.2-17 7.3-18.4 6-1.4 12.6 4.6 14.7 13.3 2.1 8.7-1.2 17-7.3 18.4z"/>
			<path id="Layer" fill-rule="evenodd" class="s17" d="m1544.7 409.6c1.7 7.4-1 14.4-6.2 15.6-5.2 1.2-10.8-3.8-12.5-11.2-1.8-7.4 0.9-14.4 6.1-15.6 5.2-1.3 10.8 3.8 12.6 11.2z"/>
			<path id="Layer" fill-rule="evenodd" class="s3" d="m1542.9 409.4c1.4 6.2-0.9 11.9-5.1 12.9-4.2 1.1-8.8-3.1-10.2-9.2-1.4-6.1 0.8-11.9 5-12.9 4.3-1 8.9 3.2 10.3 9.2z"/>
			<path id="Layer" fill-rule="evenodd" class="s13" d="m1541.2 409.3c1.1 4.8-0.7 9.3-4 10.1-3.3 0.8-6.9-2.5-8.1-7.3-1-4.7 0.7-9.3 4.1-10.1 3.3-0.8 7 2.5 8 7.3z"/>
			<path id="Layer" fill-rule="evenodd" class="s6" d="m1535.2 416.5c-2.6 0-4.7-2.8-4.7-6.4 0-3.5 2.1-6.4 4.7-6.4 2.6 0 4.7 2.9 4.7 6.4 0 3.6-2.1 6.4-4.7 6.4z"/>
			<path id="Layer" fill-rule="evenodd" class="s18" d="m1537.9 409c0.5 2.2-0.3 4.3-1.8 4.6-1.5 0.4-3.2-1.1-3.7-3.3-0.5-2.2 0.3-4.3 1.8-4.7 1.6-0.3 3.2 1.2 3.7 3.4z"/>
			<path id="Layer" class="s9" d="m1534 409.3c-0.1-0.9 0.1-1.7 0.7-1.8 0.7-0.2 1.4 0.4 1.5 1.3 0.2 0.9 0 1.7-0.7 1.8-0.6 0.2-1.3-0.4-1.5-1.3z"/>
			<path id="Layer" fill-rule="evenodd" class="s0" d="m1503.6 487.8c-5.2 0-9.4-5.8-9.4-12.9 0-7.2 4.2-12.9 9.4-12.9 5.3 0 9.5 5.7 9.5 12.9 0 7.1-4.2 12.9-9.5 12.9z"/>
			<path id="Layer" fill-rule="evenodd" class="s17" d="m1503.6 485.5c-4.5 0-8.1-4.9-8.1-11 0-6.1 3.6-11.1 8.1-11.1 4.5 0 8.1 5 8.1 11.1 0 6.1-3.6 11-8.1 11z"/>
			<path id="Layer" fill-rule="evenodd" class="s3" d="m1503.6 483.3c-3.7 0-6.7-4.1-6.7-9.2 0-5.1 3-9.2 6.7-9.2 3.7 0 6.6 4.1 6.6 9.2 0 5.1-2.9 9.2-6.6 9.2z"/>
			<path id="Layer" fill-rule="evenodd" class="s13" d="m1503.5 481.1c-2.9 0-5.3-3.3-5.3-7.3 0-4.1 2.4-7.3 5.3-7.3 2.9 0 5.3 3.2 5.3 7.3 0 4-2.4 7.3-5.3 7.3z"/>
			<path id="Layer" fill-rule="evenodd" class="s6" d="m1503.5 478.7c-2.2 0-4-2.4-4-5.4 0-3 1.8-5.5 4-5.5 2.1 0 3.9 2.5 3.9 5.5 0 3-1.8 5.4-3.9 5.4z"/>
			<path id="Layer" fill-rule="evenodd" class="s18" d="m1503.8 476.5c-1.5 0.2-2.8-1.3-3-3.3-0.2-1.9 0.8-3.6 2.2-3.8 1.5-0.2 2.8 1.3 3 3.2 0.1 2.1-0.8 3.7-2.2 3.9z"/>
			<path id="Layer" fill-rule="evenodd" class="s9" d="m1503.5 474.3c-0.7 0.1-1.3-0.6-1.4-1.6-0.1-0.9 0.3-1.7 1.1-1.8 0.7-0.1 1.3 0.6 1.4 1.6 0 0.9-0.5 1.7-1.1 1.8z"/>
			<path id="Layer" fill-rule="evenodd" class="s32" d="m1123.2 276.1l-21.8-13.2c-13.7-8.3-23.4-16.6-29.1-24.7q-8.7-12.1-8.7-27.9c0-15.8 5.4-28.6 16.4-38.4 10.9-9.9 25.1-14.8 42.6-14.8 16.7 0 32 4.7 46 14.2v32.5c-14.4-13.9-30-20.9-46.5-20.9-9.3 0-17.1 2.1-23 6.5-6 4.4-9.1 9.9-9.1 16.6 0 6 2.2 11.6 6.7 16.9 4.5 5.2 11.6 10.7 21.4 16.5l21.9 12.9c24.4 14.6 36.6 33.3 36.6 55.7 0 16.1-5.4 29.2-16.2 39.2q-16.1 15-41.9 15c-19.7 0-37.7-6.2-53.9-18.3v-36.3c15.4 19.6 33.3 29.4 53.6 29.4 8.9 0 16.5-2.5 22.4-7.6 5.9-5 8.9-11.3 8.9-18.8 0-12.1-8.8-23.6-26.3-34.5zm-200.6 83.9v-200h63.4c19.1 0 34.3 5.1 45.6 15.5 11.4 10.2 17.1 24.1 17.1 41.5 0 11.7-2.9 21.9-8.8 30.9-5.8 8.9-13.8 15.4-23.9 19.6-10.1 4-24.6 6-43.4 6h-21.2v86.5zm58.5-174.4h-29.7v62.4h31.4c11.5 0 20.6-2.7 26.9-8.3 6.3-5.4 9.4-13.3 9.4-23.5 0-20.4-12.7-30.6-38-30.6zm-188.6-26.7h20.1l89.6 201.1h-29.3l-26.6-59.3h-85.3l-24.9 59.3h-29.4zm42.4 116.4l-32.5-72.4-30.2 72.4zm-136.7 38.3v31.4c-21 11.5-45.2 17.3-72.7 17.3-22.3 0-41.2-4.5-56.8-13.5-15.5-9-27.8-21.4-36.9-37.2-9.1-15.8-13.6-32.8-13.6-51.1 0-29.2 10.3-53.8 31.1-73.6 20.8-19.9 46.4-29.9 76.8-29.9 21 0 44.4 5.5 70.1 16.5v30.8c-23.5-13.3-46.4-20-68.7-20-22.9 0-41.9 7.3-57 21.8-15.1 14.5-22.6 32.6-22.6 54.4 0 21.9 7.4 40.1 22.2 54.2 14.9 14.1 33.9 21.2 57.1 21.2 24.2 0 47.9-7.4 71-22.3zm-297.1-156.5c30.9 0 56.6 9.8 77.1 29.4 20.5 19.6 30.8 44.2 30.8 73.6 0 29.5-10.4 54-31.1 73.2-20.7 19.3-46.9 29.1-78.4 29.1-30.1 0-55.2-9.7-75.3-29.1-20.1-19.3-30.1-43.5-30.1-72.7 0-29.9 10.1-54.7 30.3-74.1 20.3-19.6 45.9-29.4 76.7-29.4zm1.1 27.2c-22.8 0-41.6 7.2-56.3 21.5-14.8 14.3-22.1 32.5-22.1 54.8 0 21.6 7.3 39.6 22.1 53.8 14.7 14.3 33.3 21.5 55.4 21.5q33.4 0 55.8-21.9c14.8-14.6 22.3-32.7 22.3-54.5 0-21.3-7.5-39-22.3-53.5-14.8-14.4-33.2-21.7-54.9-21.7zm-250.5-24.3h50.2q30.4 0 48.1 15c11.9 10 17.9 23.6 17.9 40.7 0 11.6-2.9 21.7-8.8 30.1-5.8 8.5-14.1 14.8-25 19 6.4 4.3 12.6 10 18.8 17.2 6.1 7.2 14.7 20 25.8 38 6.9 11.4 12.4 19.9 16.6 25.6l10.7 14.3h-34.1l-8.8-13.2c-0.2-0.5-0.8-1.2-1.6-2.4l-5.6-7.9-8.8-14.6-9.6-15.6c-5.9-8.3-11.3-14.8-16.2-19.6-5-4.9-9.4-8.4-13.3-10.5-3.9-2.1-10.7-3.3-20-3.3h-7.5v87.1h-28.8zm37.4 24.3h-8.6v63.1h10.8c14.5 0 24.4-1.3 29.9-3.7 5.4-2.5 9.5-6.3 12.6-11.3 3-5 4.5-10.7 4.5-17q0-9.5-5-17.1c-3.4-5.1-8.1-8.7-14.2-10.8-5.9-2.1-16.2-3.2-30-3.2zm-189.1 175.7v-200h63.4c19.1 0 34.3 5.1 45.6 15.5 11.3 10.2 17 24.1 17 41.5 0 11.7-2.9 21.9-8.8 30.9-5.7 8.9-13.7 15.5-23.8 19.6-10.1 4-24.7 6-43.5 6h-21.2v86.5zm58.4-174.4h-29.7v62.4h31.3c11.6 0 20.6-2.8 27-8.3 6.3-5.4 9.4-13.3 9.4-23.5 0-20.4-12.8-30.6-38-30.6z"/>
			<path id="Layer" class="s32" d="m881.6 396.8l-4.7 4.4c-3.3-3.4-7.1-5.8-11-7.6-4.1-1.7-7.9-2.5-11.8-2.5-4.7 0-9.3 1.1-13.5 3.5-4.3 2.3-7.7 5.4-10 9.4-2.4 4-3.5 8.2-3.5 12.7 0 4.6 1.2 8.9 3.6 13 2.5 4.1 5.8 7.3 10.1 9.6 4.3 2.4 9.1 3.5 14.2 3.5q9.3 0 15.8-5.2c4.3-3.5 6.8-8 7.6-13.6h-19.2v-5.9h26.1c-0.1 9.3-2.9 16.8-8.4 22.2-5.5 5.4-12.8 8.3-22 8.3-11.2 0-20-3.8-26.6-11.5-5-5.8-7.6-12.6-7.6-20.2 0-5.7 1.4-11.1 4.3-16q4.4-7.4 11.9-11.6c5-2.8 10.7-4.1 17-4.1 5.1 0 9.9 0.9 14.5 2.7 4.4 1.8 8.9 4.7 13.2 8.9z"/>
			<path id="Layer" class="s33" d="m881.6 396.8l-4.7 4.4c-3.3-3.4-7.1-5.8-11-7.6-4.1-1.7-7.9-2.5-11.8-2.5-4.7 0-9.3 1.1-13.5 3.5-4.3 2.3-7.7 5.4-10 9.4-2.4 4-3.5 8.2-3.5 12.7 0 4.6 1.2 8.9 3.6 13 2.5 4.1 5.8 7.3 10.1 9.6 4.3 2.4 9.1 3.5 14.2 3.5q9.3 0 15.8-5.2c4.3-3.5 6.8-8 7.6-13.6h-19.2v-5.9h26.1c-0.1 9.3-2.9 16.8-8.4 22.2-5.5 5.4-12.8 8.3-22 8.3-11.2 0-20-3.8-26.6-11.5-5-5.8-7.6-12.6-7.6-20.2 0-5.7 1.4-11.1 4.3-16q4.4-7.4 11.9-11.6c5-2.8 10.7-4.1 17-4.1 5.1 0 9.9 0.9 14.5 2.7 4.4 1.8 8.9 4.7 13.2 8.9z"/>
			<path id="Layer" fill-rule="evenodd" class="s32" d="m908.9 386.7c6.6 0 11.2 0.2 13.6 0.8 3.6 0.8 6.5 2.5 8.7 5.2 2.3 2.8 3.4 6.1 3.4 9.9 0 3.3-0.8 6.2-2.4 8.7-1.6 2.4-3.8 4.3-6.7 5.6-2.9 1.3-6.8 1.9-11.9 1.9l21.8 28.1h-7.4l-21.8-28.1h-3.5v28.1h-6v-60.2zm-6 26.4l10.4 0.1c4.1 0 7.1-0.4 9-1.2 1.9-0.7 3.4-2 4.6-3.6 1-1.7 1.5-3.6 1.5-5.7 0-2-0.5-3.8-1.6-5.5-1.1-1.7-2.6-2.8-4.3-3.5-1.8-0.7-4.8-1.1-8.9-1.1h-10.7z"/>
			<path id="Layer" class="s33" d="m896.8 386.7h12.1c6.6 0 11.2 0.2 13.6 0.8 3.6 0.8 6.5 2.5 8.7 5.2 2.3 2.8 3.4 6.1 3.4 9.9 0 3.3-0.8 6.2-2.4 8.7-1.6 2.4-3.8 4.3-6.7 5.6-2.9 1.3-6.8 1.9-11.9 1.9l21.8 28.1h-7.4l-21.8-28.1h-3.5v28.1h-6v-60.2zm6 5.9h10.7c4.2 0 7.1 0.4 8.9 1.1 1.7 0.7 3.2 1.8 4.3 3.5 1.1 1.7 1.7 3.5 1.7 5.5 0 2.1-0.6 4-1.6 5.7-1.2 1.6-2.7 2.9-4.6 3.6-1.9 0.8-4.9 1.2-8.9 1.2l-10.5-0.1v-20.5z"/>
			<path id="Layer" fill-rule="evenodd" class="s32" d="m976.3 385.1c9.1 0 16.7 3.1 22.9 9.1 6.1 6.1 9.2 13.6 9.2 22.6 0 8.9-3.1 16.3-9.2 22.5-6.2 6.1-13.6 9.2-22.5 9.2q-13.4 0-22.6-9.2c-6.2-6.2-9.3-13.6-9.3-22.2 0-5.8 1.4-11.2 4.3-16.2 2.8-4.9 6.6-8.9 11.5-11.6 4.8-2.8 10-4.2 15.7-4.2zm0.2 5.9c-4.4 0-8.7 1.1-12.7 3.5-3.9 2.4-7.1 5.4-9.4 9.4-2.3 3.9-3.3 8.3-3.3 13.2 0 7.1 2.4 13.2 7.4 18.1 5 4.9 11 7.4 18 7.4 4.7 0 9.1-1.1 13-3.4 4-2.3 7.1-5.4 9.3-9.3 2.2-4 3.4-8.4 3.4-13.2 0-4.8-1.2-9.1-3.4-13-2.2-3.9-5.3-6.9-9.4-9.3-4-2.2-8.3-3.4-12.9-3.4z"/>
			<path id="Layer" class="s33" d="m976.3 385.1c9.1 0 16.7 3.1 22.9 9.1 6.1 6.1 9.2 13.6 9.2 22.6 0 8.9-3.1 16.3-9.2 22.5-6.2 6.1-13.6 9.2-22.5 9.2q-13.4 0-22.6-9.2c-6.2-6.2-9.3-13.6-9.3-22.2 0-5.8 1.4-11.2 4.3-16.2 2.8-4.9 6.6-8.9 11.5-11.6 4.8-2.8 10-4.2 15.7-4.2zm13.1 9.3c4.1 2.4 7.2 5.4 9.4 9.3 2.2 3.9 3.4 8.2 3.4 13 0 4.8-1.2 9.2-3.4 13.2-2.2 3.9-5.3 7-9.3 9.3-3.9 2.3-8.3 3.4-13 3.4-7 0-13-2.5-18-7.4-5-4.9-7.4-11-7.4-18.1 0-4.9 1-9.3 3.3-13.2 2.3-4 5.5-7 9.4-9.4 4-2.4 8.3-3.5 12.7-3.5 4.6 0 8.9 1.2 12.9 3.4z"/>
			<path id="Layer" class="s32" d="m1020.9 386.7h7.1v36.4c0 4.3 0.1 7 0.2 8.1 0.4 2.3 1.2 4.4 2.5 5.9 1.3 1.6 3.2 3 5.9 4.1 2.6 1 5.3 1.7 8 1.7 2.4 0 4.6-0.5 6.8-1.4 2.1-0.8 3.9-2 5.4-3.5 1.4-1.5 2.4-3.3 3.1-5.4 0.5-1.6 0.7-4.7 0.7-9.5v-36.4h7.1v36.4c0 5.4-0.6 9.7-1.8 13.1q-1.9 5-7.4 8.7-5.5 3.7-13.4 3.7c-5.7 0-10.6-1.2-14.7-3.6-4.1-2.3-6.8-5.3-8.1-9.2-0.9-2.3-1.4-6.6-1.4-12.7v-36.4z"/>
			<path id="Layer" class="s33" d="m1020.9 386.7h7.1v36.4c0 4.3 0.1 7 0.2 8.1 0.4 2.3 1.2 4.4 2.5 5.9 1.3 1.6 3.2 3 5.9 4.1 2.6 1 5.3 1.7 8 1.7 2.4 0 4.6-0.5 6.8-1.4 2.1-0.8 3.9-2 5.4-3.5 1.4-1.5 2.4-3.3 3.1-5.4 0.5-1.6 0.7-4.7 0.7-9.5v-36.4h7.1v36.4c0 5.4-0.6 9.7-1.8 13.1q-1.9 5-7.4 8.7-5.5 3.7-13.4 3.7c-5.7 0-10.6-1.2-14.7-3.6-4.1-2.3-6.8-5.3-8.1-9.2-0.9-2.3-1.4-6.6-1.4-12.7v-36.4z"/>
			<path id="Layer" fill-rule="evenodd" class="s32" d="m1075.6 386.7h12c7 0 11.6 0.2 14 0.9q5.1 1.3 8.4 5.2c2.2 2.7 3.4 6 3.4 9.9 0 4.1-1.1 7.3-3.3 10-2.1 2.6-5.1 4.3-8.8 5.2-2.7 0.6-7.9 1-15.3 1h-4.3v28.1h-6.1zm6.1 26.4l10.3 0.1c4.1 0 7.1-0.4 9-1.2 1.9-0.7 3.4-1.9 4.6-3.6 1-1.6 1.6-3.6 1.6-5.6 0-2-0.5-3.8-1.6-5.5-1.1-1.7-2.6-2.9-4.3-3.6-1.8-0.7-4.8-1.1-8.8-1.1h-10.8z"/>
			<path id="Layer" class="s33" d="m1075.6 386.7h12c7 0 11.6 0.2 14 0.9q5.1 1.3 8.4 5.2c2.2 2.7 3.4 6 3.4 9.9 0 4.1-1.1 7.3-3.3 10-2.1 2.6-5.1 4.3-8.8 5.2-2.7 0.6-7.9 1-15.3 1h-4.3v28.1h-6.1zm6.1 5.9h10.8c4 0 7 0.4 8.8 1.1 1.7 0.7 3.2 1.9 4.3 3.6 1.1 1.7 1.6 3.5 1.6 5.5 0 2-0.6 4-1.6 5.6-1.2 1.7-2.7 2.9-4.6 3.6-1.9 0.8-4.9 1.2-9 1.2l-10.3-0.1v-20.5z"/>
		</g>
	</g>
</svg>