<svg version="1.2" baseProfile="tiny-ps" xmlns="http://www.w3.org/2000/svg" viewBox="0 0 961 1506" width="961" height="1506">
	<title>prothena-svg</title>
	<style>
		tspan { white-space:pre }
		.shp0 { fill: #67b2b2 } 
	</style>
	<g id="logo">
		<path id="mark" class="shp0" d="M179.87 750.05C179.87 750.05 118.93 596.73 318.32 562.11C505.34 529.64 546.87 764.47 546.87 764.47C546.87 764.47 623.22 1007.04 554.32 1183.26C485.41 1359.48 450.2 1272.67 440.81 1244.82C431.43 1216.97 414.46 1174.89 415.2 1014.43C430.25 810.19 461.53 689.69 481.86 640.3C502.19 590.91 531.39 468.78 597.42 357.31C663.46 245.85 710.92 191.51 765.01 215.69C819.1 239.87 881.53 354.98 811.24 474.76C754.96 570.67 641.32 650.12 494.57 716.81C337.3 788.38 306.78 675.08 306.78 675.08L225.58 659.05C225.58 659.05 272.4 744.77 340.91 758.49C351.42 761.38 362.14 763.39 372.98 764.5C383.82 765.6 394.74 765.79 405.61 765.07C416.48 764.35 427.27 762.71 437.87 760.19C448.47 757.66 458.83 754.25 468.86 749.99C482.96 744.11 496.97 738.03 510.89 731.75C524.81 725.46 538.64 718.97 552.37 712.28C566.1 705.59 579.74 698.7 593.27 691.61C606.8 684.52 620.22 677.24 633.54 669.76C647.5 661.61 661.2 653.04 674.63 644.05C688.06 635.07 701.21 625.66 714.06 615.87C726.91 606.07 739.46 595.87 751.68 585.3C763.9 574.73 775.8 563.78 787.34 552.48C802.02 537.7 816.1 522.35 829.56 506.45C843.01 490.55 855.82 474.12 867.96 457.2C880.1 440.27 891.56 422.87 902.31 405.04C913.05 387.2 923.09 368.94 932.37 350.3C942.82 328.38 950.52 305.25 955.29 281.44C960.07 257.64 961.88 233.33 960.68 209.08C959.49 184.82 955.3 160.81 948.21 137.59C941.12 114.36 931.18 92.11 918.63 71.32C882.7 21.66 832.45 -50.85 714.14 52.92C599.49 156.36 510.5 403.63 502.6 424.26C494.7 444.89 439.58 606.77 429.05 645.41C418.53 684.05 324.26 981.69 333.4 1219.24C340.34 1399.24 376.74 1447.58 376.74 1447.58C376.74 1447.58 453.09 1601.68 548.23 1399.05C643.36 1196.42 584.03 878.25 584.03 878.25C584.03 878.25 548.23 683.25 504.73 622.66C461.91 563 430.43 501.72 281.32 482C281.32 482 86.1 458.34 27.49 622.66C23.53 633.9 19.99 645.29 16.85 656.79C13.72 668.29 11 679.9 8.7 691.59C6.4 703.29 4.52 715.06 3.07 726.9C1.62 738.73 0.6 750.61 0 762.51C61.68 730.86 143.9 744.27 179.87 750.05Z" />
	</g>
</svg>