<svg version="1.2" xmlns="http://www.w3.org/2000/svg" viewBox="0 0 1563 1370" width="1563" height="1370">
	<title>carparts-svg</title>
	<style>
		.s0 { fill: #ffffff } 
	</style>
	<path id="Layer" class="s0" d="m439.9 1202.9h355.2l-62.3 166.2h-292.9c-59.2 0-116.7-11.7-171-34.7-52.4-22.1-99.3-53.8-139.6-94.2-40.3-40.3-72-87.3-94.1-139.8-23-54.3-34.6-112-34.6-171.3 0-59.3 11.6-116.9 34.6-171.3 22.1-52.4 53.8-99.4 94.1-139.8 40.3-40.3 87.2-72 139.6-94.2 54.3-23 111.8-34.7 171-34.7h683.4c27 0 48.8-21.9 48.8-48.8 0-27-21.8-48.9-48.8-48.9h-439.3l62.2-166.3h377.2c57.3 0 111.3 22.4 151.8 63 40.6 40.7 62.9 94.7 62.9 152.2 0 57.4-22.3 111.4-62.9 152.1-40.5 40.6-94.5 63-151.8 63h-683.5c-73 0-141.6 28.5-193.3 80.2-51.6 51.7-80 120.4-80 193.6 0 73.1 28.4 141.8 80 193.6 51.7 51.6 120.3 80.1 193.3 80.1zm1122.8-762.6c0 59.3-11.7 116.9-34.6 171.3-22.1 52.4-53.8 99.5-94.1 139.8-40.3 40.4-87.2 72.1-139.6 94.2-54.2 23-111.8 34.7-171 34.7h-683.5c-26.9 0-48.8 21.9-48.8 48.9 0 26.9 21.9 48.8 48.8 48.8h439.4l-62.3 166.2h-377.1c-57.3 0-111.2-22.3-151.8-63-40.6-40.6-62.9-94.6-62.9-152 0-57.5 22.3-111.5 62.9-152.2 40.5-40.6 94.5-63 151.8-63h683.5c73 0 141.6-28.5 193.3-80.1 51.6-51.8 80-120.5 80-193.6 0-73.2-28.4-141.9-80-193.6-51.7-51.7-120.3-80.2-193.3-80.2h-355.2l62.3-166.2h292.9c59.2 0 116.8 11.6 171 34.6 52.4 22.2 99.4 53.9 139.6 94.3 40.3 40.3 72 87.3 94.1 139.7 22.9 54.4 34.6 112.1 34.6 171.4z"/>
</svg>