<svg version="1.2" xmlns="http://www.w3.org/2000/svg" viewBox="0 0 1680 354" width="1680" height="354">
	<title>Prudential_Financial-svg</title>
	<style>
		.s0 { fill: #ffffff } 
	</style>
	<g id="Layer">
		<path id="Layer" fill-rule="evenodd" class="s0" d="m255.8 100.8l-78.7-45.7-28.9-5.2v21.1l22.2 20.6-30.9-2.6c0 0 1 1.6 26.7 28.8l117.3 19.6 20.6 13.4-53.5 2.5-22.1 80.8-72.6 48.4h-47.3l16-31.4-2.6-1-42.8 32.4h-10.2l43.7-61.3c2.1-17.4 1-9.7 3.6-41.1l-6.7-9.3-17.5 67.9-36.5 43.8h-9.3l21.6-30.4 30.4-93.1-7.8 3.6-13.3 37.1-9.3 5.1c0 0-21.6 52.5-32.9 78.2-16.5-23.6-35-55.5-35-111.2 0-83.3 71.5-171.3 179.1-171.3 103.4 0 158.5 82.3 167.7 125zm-77.7 252.7c-43.7 0-97.2-15.5-135.8-62.8h271.1c-31.4 40.6-85.4 62.8-135.3 62.8zm53.5-71h-24.7l45.9-57.1 4.6 8.7zm-52.5-270.7c-100.8 0-166.7 82.9-166.7 160 0 44.3 10.8 66.4 22.6 87.5 15-40.1 44.8-119.9 44.8-119.9 0 0 13.9-7.2 13.9-6.1l20-51 12.9-6.7 16-33.9 34.9 5.6 71.1 39.6 79.7 22.2c-20.6-52.5-78.7-97.3-149.2-97.3zm127.6 209.4l-15 12.9-29.7 48.4h-19.6l19.6-34.6 15.4-12.8 22.2-62.2 23.6 9.7zm13.9 61.3h-39.6l37.5-59.2 11.3-38.6 23.7 8.3c-2.1 29.8-11.9 60.1-32.9 89.5zm-48.4-71l-11.9 2.1 3.2-23.7-3.2-4.6 3.2-26.8 30.3 12.3z"/>
		<path id="Layer" fill-rule="evenodd" class="s0" d="m1609.7 281.6c6.3 0 10.1-1.1 12.4-3.2 1.8-1.9 2.8-6.3 2.8-13.5v-148.1c0-7.5-0.9-12.6-2.4-15.1-2.1-3.1-6.6-4.7-13.3-4.7h-5.1v-10.7l59.5-4.6v183.2c0 9.4 2.6 14.7 7.6 15.9 2 0.5 5 0.8 8.8 0.8v11.5h-70.3zm-118.7-109.7q0.6-1.8 2.2-3.5-3 1.1-5.2 3.4l3 1.2q0-1.1 0-1.1zm2.2-3.5q2.7-1 5.9-1c12.2 0 18.3 5.8 18.3 17.2 0 4.7-2 8.9-6.1 12.7q-6 5.6-15 5.6c-5.5 0-10.4-1.7-14.4-5.2-4.8-4.1-7.2-9.7-7.2-16.9 0-10.4 5.2-18.7 15.5-25.1q15.5-9.6 38.2-9.6c37.4 0 56.2 16.6 56.2 49.7v68.7c0 11.4 4.1 17.1 12.4 17.1h1.9v11.4h-51.5c0.2-2.3 0.2-6.6 0-12.5v-7q-5.3 10.2-15.9 16.8c-7.6 4.7-15.5 7.1-23.8 7.1q-22 0-33.1-13.3c-5.7-6.9-8.6-15-8.6-24.2 0-15.7 7.6-27.9 22.7-36.6 11.5-6.7 30.5-12.7 57.1-17.9v-22.6q0-24.7-26.9-24.7-10 0-18.7 4.9-4.6 2.6-7 5.4zm13.2 86.4c0 7.5 1.6 13.2 4.6 17.1 3.1 3.9 6.8 5.8 11.3 5.8 7.5 0 13.5-4.1 18.1-12.3 3.5-6.2 5.4-15.3 5.4-27.2v-21.1q-21.3 4.2-29.5 11.2c-6.6 5.6-9.9 14.3-9.9 26.5zm-1025.7-50.3v59.4c0 7 1.4 11.7 4 14 2.7 2.4 7.8 3.6 15.2 3.6h9.7v11.5h-92.8v-11.5h3.5c7.2 0 12.1-1 14.7-3q4.7-3.8 4.7-14.6v-147.2q0-14.3-5.7-17.5-3.3-1.9-17.2-2v-11.2h78q35.1 0 55.7 13.1 24.1 15.3 24.1 46.4c0 20-7.9 35.1-23.8 45.3-14.1 9.1-32.9 13.7-56.3 13.7zm14-106.5h-13v93.4h13c24.9 0 37.3-15.3 37.3-45.7 0-31.8-12.4-47.7-37.3-47.7zm138.9 79.8c5.4-21.2 16.9-31.8 34.5-31.8q9.6 0 15.4 5.3c3.9 3.5 5.8 8.2 5.8 14 0 5.1-1.6 9.5-4.9 13.5-3.7 4.4-8.4 6.6-14.1 6.6q-8.1 0-12.9-5c-3-2.9-4.4-6.5-4.1-10.7 0-0.4 0.2-1.4 0.6-3-5.3 6.7-9.5 18.2-12.6 34.3-2.6 12.9-3.9 24.7-3.9 35.4v28.5c0 6.7 0.8 11 2.3 13 1.8 2.4 6.8 3.6 14.8 3.6h4.8v11.5h-78.1v-11.5h3q8 0 11.5-2.9c2.4-1.8 3.5-6.5 3.5-13.7v-62.1c0-21.4-0.6-33.3-1.7-35.7q-2.5-5.8-9.7-5.8h-4.1v-11.4h48.9zm162.1 92.3q-0.5 0.3-1 0.7l0.7-0.3zm-2 1.2l0.1 3.1q1.1-2 1.9-4.1l-0.4 0.1-0.5 0.6-0.1-0.2-0.9 0.5q0.5-0.3 0.9-0.6l-0.2-0.3-0.8-0.6v1.5 0.1q0 0 0-0.1zm-11.6 16.8c-7.8 6.1-16.6 9.1-26.4 9.1-16.5 0-28.2-4.5-35-13.6-5.4-7.2-8.1-18.4-8.1-33.6v-60q0-20.2-1.8-23.6c-1.7-3-5.5-4.6-11.7-4.6h-1.2v-12h54v105.2q0 20.9 17.4 20.9c9.6 0 16.1-6.6 19.4-20.1 1.5-5.4 2.2-12.8 2.2-22.2v-43.5c0-14.9-0.7-23.1-2.2-24.7-2-2.4-6.4-3.6-13.1-3.6h-4v-12h59v107.4c0 11.8 0.7 18.6 2.1 20.5 1.8 2.5 5.4 3.7 10.6 3.7h3.6v11.5h-52.4l-0.7-18.5c-2.6 5.1-6.5 9.6-11.7 13.7zm11.7-16.8q-0.1 0-0.1 0zm149.3-111.6c-0.8-3.8-1.1-17.3-1.1-40.3q-0.4-12.8-2.4-16.4c-2.2-4.1-7.1-6.2-14.7-6.2h-3.9v-10.7l60.1-4.6v183.4c0 5.8 0.7 9.9 2.2 12.1 1.8 3 5.7 4.6 11.6 4.6h2.5v11.3h-51.3l-0.7-18.1q-3.4 6.7-10.2 12.5-11.9 10-27.9 10c-20.9 0-36.3-8.4-46.2-25.2-7.8-13-11.6-29.8-11.6-50.5q0-28.3 15.6-50.3c11.9-16.5 27.4-24.8 46.7-24.8 15.3 0 25.8 4.4 31.3 13.2zm4.2 110.1l-1 0.8-1.2-1.1 0.3 5.3q1.2-2.4 1.9-5zm-28.8-109.1q-16.5 0-22 23.4c-1.9 8.1-2.8 20.6-2.8 37.5 0 38 8.1 57.1 24.2 57.1 11.5 0 19-8 22.6-23.8 1.2-5.3 1.8-11.9 1.8-19.8v-29c0-30.2-8-45.4-23.8-45.4zm124.9 88.7q6.1 33.7 29.7 33.7c11 0 20.5-4.6 28.4-14q10.5-12.3 10.7-26.4h14.5c-0.4 12.7-5.7 24.5-16 35.6-11.8 12.6-26.3 19-43.5 19-22.1 0-39.2-7.3-51.2-21.9-11.2-13.3-16.8-31.3-16.8-54.1 0-22 6.3-40.2 19.1-54.5 12.7-13.9 28.7-20.8 48-20.8q31.5 0 47.5 21.2 14.3 18.6 14.5 50.9h-87.1c0 13.4 0.7 23.8 2.2 31.3zm-1.6-56.1q-0.4 5.1-0.6 12.8h47.3c0-32.8-7.6-49.2-22.6-49.2q-21.1 0-24.1 36.4zm143.1-24.9c3.3-6.6 8.5-12 15.6-16.2q10.7-6.2 23.8-6.2 43.1 0 43.1 46.7v65.2q0 10.8 0.2 13.1c0.5 6.9 4.9 10.4 13.1 10.4h3v11.5h-55.7v-105.2q0-10.9-2.6-15.7-3.8-6.9-14.3-6.9-9.9 0-15.9 9.7c-3.9 6.5-6 16.1-6 28.7v54c0 12.1 0.6 18.9 1.8 20.2 2.4 2.5 6.7 3.7 12.8 3.7h2.4v11.5h-72.6v-11.5h3.9c7.4 0 11.3-3.5 11.9-10.4q0.4-2.5 0.4-14.1v-71.6q0-16.7-2.5-20.3c-1.6-2.5-5.1-3.7-10.4-3.7h-3.3v-11.5h51.3zm152.8 128.8c-23.8 0-35.8-13.5-35.8-40.5v-94.9h-25.5v-11.5h3.9c14 0 25.8-7.9 35.6-23.7 8.3-13.3 12.6-26.9 12.9-40.7h12v64.4h27.3v11.5h-27.3v99.7c0 11.8 3.6 17.7 10.9 17.7q9.6 0 12.4-16.7c0.6-4 1-12 1-23.9h13.4c0 19.6-1.8 33.1-5.3 40.2-6 12.3-17.8 18.4-35.5 18.4zm50.3-15.7h3.8c5.6 0 9.2-1.9 10.6-5.3 1-2.6 1.4-8.8 1.4-18.9v-74.9c0-10.1-1-16-3.1-17.8q-3-2.7-8.9-2.7h-3.8v-11.5h54.6v106.9c0 11.7 0.7 18.6 2.2 20.6 1.8 2.4 5.2 3.6 10.3 3.6h4v11.5h-71.1zm10.4-171.2c0-6.4 2.3-11.9 6.8-16.5 4.6-4.5 10.1-6.8 16.6-6.8 6.5 0 12 2.3 16.6 6.8 4.7 4.6 7 10.1 7 16.5q0 9.7-7 16.7-6.9 7-16.6 7c-6.5 0-12-2.3-16.6-7q-6.8-7-6.8-16.7z"/>
	</g>
</svg>