<svg version="1.2" baseProfile="tiny-ps" xmlns="http://www.w3.org/2000/svg" viewBox="0 0 1588 358" width="1588" height="358">
	<title>logo (2)dfsdf-svg</title>
	<style>
		tspan { white-space:pre }
		.shp0 { fill: #414142 } 
		.shp1 { fill: #f5cc0d } 
	</style>
	<g id="#414142ff">
		<path id="Layer" fill-rule="evenodd" class="shp0" d="M1402.26 0L1402.77 0C1408.56 2.48 1415.26 -0.44 1421.06 1.65C1459.36 83.08 1497.26 164.75 1535.39 246.28C1528.56 246.29 1521.74 246.28 1514.92 246.28C1504.47 223.56 1494.01 200.85 1483.67 178.09C1435.24 178.09 1386.81 178.04 1338.4 178.11C1327.98 200.84 1317.6 223.58 1307.12 246.28C1300.64 246.28 1294.16 246.28 1287.7 246.28C1321.36 174.2 1355.02 102.12 1388.66 30.03C1393.12 20 1398.4 10.28 1402.26 0ZM1411.16 20.75C1389.62 67.54 1368.05 114.3 1346.45 161.06C1389.49 161.16 1432.54 161.06 1475.58 161.11C1454.15 114.3 1432.71 67.5 1411.16 20.75Z" />
		<path id="Layer" fill-rule="evenodd" class="shp0" d="M415.19 1.88C445.71 1.85 476.24 1.81 506.78 1.89C531.1 2.31 556.9 8.16 575.19 25.17C589.84 38.31 597.14 58.33 596.45 77.8C596.92 97.76 588.5 117.78 573.47 130.98C557.16 145.52 535.48 152.64 514.03 154.64C506.27 155.52 498.47 155.17 490.69 155.24C471.79 155.24 452.89 155.24 434 155.24C433.98 185.58 434 215.94 433.99 246.28C427.72 246.28 421.45 246.29 415.19 246.27C415.17 164.8 415.19 83.34 415.19 1.88ZM433.99 19.15C433.99 58.85 433.99 98.55 433.99 138.26C457.43 138.25 480.85 138.3 504.29 138.24C524.51 137.73 545.69 132.39 560.88 118.34C583.21 98.18 583.81 59.02 562.22 38.13C548.4 25.05 528.95 20.09 510.42 19.17C484.94 19.09 459.46 19.15 433.99 19.15Z" />
		<path id="Layer" fill-rule="evenodd" class="shp0" d="M629.42 1.85C664.12 1.85 698.82 1.84 733.53 1.85C755.13 2.15 777.54 6.79 795.22 19.81C810.87 31.05 820.46 49.87 821.1 69.06C821.91 86.24 816.54 104.14 804.38 116.61C790.15 131.92 769.46 139.16 749.23 142.06C776.28 176.83 803.41 211.52 830.49 246.24C822.67 246.38 814.84 246.14 807.01 246.39C793.21 229.27 779.99 211.68 766.43 194.37C753.81 177.95 740.89 161.77 728.42 145.22C701.59 144.83 674.75 145.16 647.91 145.05C647.87 178.79 647.91 212.53 647.9 246.27C641.73 246.29 635.57 246.28 629.41 246.27C629.41 164.8 629.39 83.33 629.42 1.85ZM647.91 19.15C647.9 55.55 647.9 91.97 647.91 128.39C677.3 128.37 706.7 128.42 736.09 128.36C754.47 127.55 773.61 122.31 787.27 109.39C806.92 91.18 807.96 56.37 788.7 37.52C775.41 24.65 756.45 20.01 738.49 19.16C708.3 19.11 678.11 19.15 647.91 19.15Z" />
		<path id="Layer" class="shp0" d="M870.44 1.85C876.61 1.85 882.77 1.85 888.93 1.85C888.93 83.33 888.93 164.8 888.93 246.28C882.77 246.28 876.61 246.28 870.44 246.28C870.44 164.8 870.44 83.33 870.44 1.85Z" />
		<path id="Layer" class="shp0" d="M939.6 1.89C946.51 1.81 953.43 1.86 960.35 1.85C992.6 76.5 1024.47 151.32 1056.77 225.96C1089.04 151.26 1121.16 76.5 1153.46 1.83C1160.04 1.88 1166.61 1.85 1173.21 1.84C1137.08 83.93 1100.74 165.93 1064.69 248.04C1059.19 248.22 1053.69 248.11 1048.19 248.13C1011.98 166.06 975.72 84.01 939.6 1.89Z" />
		<path id="Layer" class="shp0" d="M1223.67 1.85C1229.94 1.85 1236.21 1.83 1242.47 1.88C1242.49 83.33 1242.45 164.78 1242.5 246.24C1236.22 246.32 1229.95 246.27 1223.68 246.28C1223.66 164.8 1223.67 83.33 1223.67 1.85Z" />
		<path id="Layer" class="shp0" d="M1550.05 227.17C1554.88 227.12 1559.73 227.13 1564.57 227.16C1564.57 228 1564.56 229.69 1564.56 230.54C1562.59 230.54 1560.65 230.54 1558.72 230.55C1558.69 236.3 1558.73 242.05 1558.69 247.8C1558.02 247.82 1556.66 247.86 1555.99 247.88C1555.89 242.11 1555.96 236.33 1555.93 230.55C1553.97 230.54 1552.02 230.54 1550.1 230.54C1550.09 229.7 1550.06 228.01 1550.05 227.17Z" />
		<path id="Layer" class="shp0" d="M1567.63 227.19C1568.99 227.17 1570.37 227.14 1571.77 227.12C1573.77 231.91 1575.44 236.85 1577.73 241.53C1579.58 236.72 1581.51 231.97 1583.4 227.18C1584.47 227.17 1586.61 227.14 1587.68 227.13C1587.69 234.03 1587.7 240.93 1587.68 247.83L1584.63 247.85C1584.55 242.88 1584.72 237.92 1584.47 232.97C1581.97 238 1580.2 243.35 1577.82 248.43C1574.4 243.65 1573.51 237.54 1570.44 232.59C1570.06 232.72 1569.27 232.98 1568.89 233.11L1570.5 233.58C1570.39 238.32 1570.42 243.07 1570.43 247.82C1569.74 247.82 1568.35 247.82 1567.66 247.82C1567.63 240.95 1567.67 234.07 1567.63 227.19Z" />
		<path id="Layer" class="shp0" d="M884.93 295.68C889.65 295.63 894.37 295.63 899.11 295.68C899.11 312.76 899.11 329.82 899.11 346.88C908.05 346.9 916.98 346.88 925.93 346.89C925.95 350.59 925.91 354.3 925.77 358L884.98 358C884.87 337.22 884.95 316.46 884.93 295.68Z" />
		<path id="Layer" class="shp0" d="M414.26 295.66C418.88 295.65 423.51 295.65 428.13 295.67C428.14 303.78 428.12 311.9 428.13 320.03C438.2 320.04 448.26 320.06 458.34 320.01C458.35 311.9 458.33 303.78 458.34 295.67C462.96 295.65 467.58 295.65 472.21 295.67C472.21 316.34 472.21 337.01 472.21 357.68C467.58 357.7 462.96 357.7 458.34 357.68C458.34 348.74 458.34 339.79 458.34 330.85C448.26 330.83 438.19 330.83 428.13 330.85C428.13 339.79 428.13 348.74 428.13 357.68C423.51 357.7 418.88 357.7 414.26 357.68C414.26 337.01 414.26 316.34 414.26 295.66Z" />
		<path id="Layer" class="shp0" d="M576.09 295.66C591.3 295.66 606.5 295.65 621.7 295.67C621.7 299.26 621.7 302.86 621.69 306.45C611.12 306.47 600.54 306.46 589.96 306.45C589.94 311.08 589.94 315.71 589.96 320.34C600.33 320.36 610.7 320.34 621.07 320.35C621.08 323.94 621.08 327.53 621.08 331.14C610.69 331.2 600.31 331.08 589.93 331.2C589.96 336.42 589.94 341.66 589.95 346.89C600.53 346.9 611.11 346.88 621.7 346.9C621.7 350.49 621.7 354.09 621.7 357.68C606.5 357.7 591.28 357.69 576.08 357.69C576.08 337.01 576.07 316.34 576.09 295.66Z" />
		<path id="Layer" fill-rule="evenodd" class="shp0" d="M718.68 357.68C726.98 337 735.29 316.34 743.56 295.66C749.34 295.66 755.11 295.66 760.9 295.66C769.13 316.35 777.52 336.99 785.74 357.69C780.38 357.69 775.04 357.72 769.69 357.67C768.38 354.14 767.16 350.57 765.64 347.12C756.68 347.27 747.7 347.19 738.74 347.17C737.38 350.68 736.03 354.2 734.66 357.7C729.33 357.68 724.01 357.7 718.68 357.68ZM742.19 336.43C748.76 336.36 755.34 336.42 761.91 336.38C758.76 327.88 755.56 319.37 752.3 310.92C748.64 319.3 745.55 327.92 742.19 336.43Z" />
		<path id="Layer" class="shp0" d="M1033.19 295.66C1050.32 295.62 1067.45 295.72 1084.59 295.61C1084.67 299.21 1084.67 302.82 1084.67 306.42C1078.4 306.5 1072.12 306.44 1065.86 306.47C1065.86 323.55 1065.86 340.61 1065.86 357.68C1061.24 357.69 1056.61 357.69 1051.99 357.69C1051.98 340.62 1051.99 323.55 1051.99 306.47C1045.71 306.44 1039.45 306.47 1033.2 306.46C1033.17 302.86 1033.17 299.26 1033.19 295.66Z" />
		<path id="Layer" class="shp0" d="M1183.29 295.67C1187.92 295.65 1192.53 295.65 1197.16 295.66C1197.16 303.78 1197.15 311.9 1197.18 320.04C1207.13 320.04 1217.09 320.05 1227.05 320.03C1227.1 311.89 1226.98 303.76 1227.12 295.62C1231.82 295.67 1236.52 295.66 1241.23 295.66C1241.25 316.34 1241.24 337.01 1241.24 357.69C1236.51 357.69 1231.78 357.69 1227.06 357.68C1227.04 348.73 1227.09 339.79 1227.04 330.84C1217.08 330.84 1207.13 330.83 1197.16 330.84C1197.15 339.79 1197.16 348.73 1197.16 357.68C1192.54 357.7 1187.92 357.7 1183.29 357.68C1183.29 337.01 1183.28 316.34 1183.29 295.67Z" />
	</g>
	<g id="#f5cc0dff">
		<path id="Layer" class="shp1" d="M46.39 35.4C69.56 15.11 99.93 3.22 130.71 2.46C141.92 2.6 153.15 2.17 164.36 2.74C133.51 11.74 104.82 27.68 79.91 47.9C43.13 77.78 15.35 118.47 0.64 163.54C0.92 146.53 -0.48 129.34 2.63 112.49C7.76 82.76 23.57 55.07 46.39 35.4Z" />
		<path id="Layer" class="shp1" d="M196.9 2.7C207.69 2.19 218.49 2.6 229.29 2.46C266.08 2.89 302.25 19.59 326.69 47.08C343.05 65.23 354.24 88.01 358.48 112.09C361.62 129.02 360.41 146.29 360.59 163.4C353.1 141.61 343.24 120.56 330.21 101.51C298.72 54.72 250.95 18.88 196.9 2.7Z" />
		<path id="Layer" class="shp1" d="M266.05 322.01C310.3 291.39 343.94 245.93 360.59 194.74C360.42 212.48 361.69 230.43 358.18 247.95C352.73 276.83 337.17 303.61 314.99 322.83C292.1 342.9 262.22 354.83 231.8 355.85C220.15 356.42 208.47 356.04 196.81 356.16C221.27 347.95 244.93 336.99 266.05 322.01Z" />
		<path id="Layer" class="shp1" d="M0.62 194.86C15.73 240.97 44.46 282.51 82.54 312.57C106.8 332.1 134.91 346.46 164.43 356.11C152.34 356.11 140.24 356.38 128.16 355.8C98.71 354.52 69.83 343.05 47.44 323.85C24.03 304.09 7.78 275.94 2.59 245.7C-0.48 228.92 0.94 211.81 0.62 194.86Z" />
	</g>
</svg>