<svg version="1.2" baseProfile="tiny-ps" xmlns="http://www.w3.org/2000/svg" viewBox="0 0 1558 1531" width="1558" height="1531">
	<title>logo (2)dfsdf-svg</title>
	<style>
		tspan { white-space:pre }
		.shp0 { fill: #f5cc0d } 
	</style>
	<g id="#f5cc0dff">
		<path id="Layer" class="shp0" d="M198.62 143.44C298.79 55.69 430.1 4.28 563.22 0.97C611.68 1.61 660.25 -0.25 708.71 2.2C575.32 41.11 451.26 110.03 343.52 197.46C184.49 326.69 64.37 502.62 0.77 697.51C2 623.95 -4.08 549.6 9.36 476.74C31.53 348.2 99.93 228.47 198.62 143.44Z" />
		<path id="Layer" class="shp0" d="M849.4 2.04C896.05 -0.2 942.75 1.61 989.46 0.97C1148.54 2.84 1304.96 75.06 1410.63 193.94C1481.37 272.4 1529.78 370.89 1548.12 475.03C1561.66 548.21 1556.44 622.89 1557.24 696.87C1524.82 602.66 1482.22 511.64 1425.87 429.28C1289.71 226.98 1083.13 71.97 849.4 2.04Z" />
		<path id="Layer" class="shp0" d="M1148.43 1382.73C1339.77 1250.29 1485.21 1053.76 1557.24 832.4C1556.49 909.1 1561.98 986.71 1546.79 1062.46C1523.22 1187.36 1455.94 1303.14 1360.03 1386.25C1261.08 1473.04 1131.85 1524.61 1000.33 1529.04C949.95 1531.49 899.46 1529.84 849.03 1530.37C954.8 1494.87 1057.11 1447.47 1148.43 1382.73Z" />
		<path id="Layer" class="shp0" d="M0.67 832.93C66.03 1032.3 190.25 1211.92 354.93 1341.89C459.79 1426.34 581.35 1488.42 709.03 1530.16C656.73 1530.16 604.43 1531.33 552.19 1528.82C424.82 1523.27 299.96 1473.68 203.15 1390.68C101.91 1305.22 31.64 1183.52 9.2 1052.74C-4.08 980.2 2.05 906.22 0.67 832.93Z" />
	</g>
</svg>