<svg version="1.2" xmlns="http://www.w3.org/2000/svg" viewBox="0 0 1596 333" width="1596" height="333">
	<title>Logo_Personalis300-svg</title>
	<style>
		.s0 { fill: #000000 } 
		.s1 { fill: #6cbe45 } 
		.s2 { fill: #ffffff } 
	</style>
	<path id="Layer" class="s0" d="m215 8.3q5.3 1.6 10.5 3.6 5.2 2 10.3 4.4 5.1 2.3 9.9 5 4.9 2.7 9.6 5.7c-1.7 29.3-1.1 60.6-39.6 59.8-2.5-24.5 2.5-54.8-0.7-78.5z"/>
	<path id="Layer" class="s0" d="m23.8 250.5c-8.5-14.5-14.8-30.2-18.6-46.6-3.8-16.5-5-33.3-3.7-50.1 1.3-16.8 5.1-33.3 11.4-49 6.3-15.6 14.9-30.2 25.6-43.2 10.9 24.2 27.6 46.6 40.8 64.6-22.5 19.6-48 72.9-55.5 124.3z"/>
	<path id="Layer" class="s0" d="m90.9 83.6c-8.8-21.3-10.5-41.4-12.1-57.6q8.1-5 16.6-9.1 8.6-4 17.5-7.1 9-3 18.2-5.1 9.3-2 18.7-2.9c-14.8 29.1-17.2 82.8-58.9 81.8z"/>
	<path id="Layer" class="s0" d="m111.4 179.5c18.2 33.4 5.4 104.8 17.5 148.4q-6.5-1.5-12.8-3.5-6.3-2-12.5-4.6-6.1-2.5-12-5.5-5.9-3.1-11.6-6.6c2.7-45.5-3.4-98 31.4-128.2z"/>
	<path id="Layer" class="s0" d="m240.4 314.6q-4.8 2.4-9.8 4.5-5 2.1-10 3.9-5.1 1.7-10.3 3.2-5.2 1.4-10.5 2.5c1.3-47.9-14.8-102.7 30.1-137.3 17.9 29.2 8.4 80.9 10.5 123.2z"/>
	<path id="Layer" class="s0" d="m297 65.1c10.5 13.6 18.9 28.8 24.7 45 5.9 16.1 9.2 33.1 9.8 50.3 0.7 17.2-1.4 34.4-6.1 51-4.6 16.5-11.8 32.3-21.3 46.6-15.8-43.2-42.9-88.4-45.8-124.7 4.7-16.3 24.2-42.2 38.7-68.2z"/>
	<path id="Layer" class="s0" d="m174.2 93.7q3.9 7 8.2 13.7 4.4 6.7 9.1 13.2 4.7 6.4 9.8 12.6c-14.6 11.3-30.2 31.8-43 56.5-0.7-1.7-1.3-3.4-1.9-5.1-7.8-21.2-14.2-41.2-15.5-58.4q0.4-1.3 0.9-2.6 0.4-1.3 0.9-2.5 0.5-1.3 1.1-2.5 0.5-1.2 1.2-2.4c5-10.5 13.4-23.3 21.8-36.6q3.5 7.2 7.4 14.1z"/>
	<path id="Layer" class="s1" d="m258.3 133.5c2.9 36.3 30 81.5 45.8 124.7q-6 9-13.1 17.1-7 8.2-15.1 15.3-8.1 7.2-17 13.2-8.9 6.1-18.5 10.9c-2.1-42.4 7.4-93.9-10.5-123.1-44.9 34.5-28.8 89.3-30.1 137.2q-2.5 0.5-4.9 0.9-2.5 0.5-5 0.8-2.5 0.4-5 0.7-2.5 0.2-5 0.4c19.5-39-3.4-93-21.5-141.8 12.8-24.8 28.4-45.3 43.1-56.5q-5.2-6.2-9.9-12.6-4.8-6.5-9.1-13.2-4.4-6.7-8.3-13.7-3.9-7-7.4-14.2c17.9-28.5 35.7-59.7 19.6-77.4q3.6 0.4 7.2 1 3.6 0.6 7.2 1.4 3.6 0.8 7.1 1.7 3.5 0.9 7 2c3.3 23.7-1.7 54 0.8 78.5 38.5 0.8 37.9-30.5 39.6-59.8q6 3.9 11.6 8.2 5.6 4.3 10.9 9.1 5.2 4.8 10 10 4.8 5.2 9.2 10.8c-14.5 26-34 51.9-38.7 68.4z"/>
	<path id="Layer" class="s1" d="m158.4 189.7c-22.3 43.2-36.5 99-22.3 139.6l-7.2-1.5c-12.1-43.4 0.7-115-17.5-148.4-34.8 30.3-28.7 82.8-31.4 128.3q-8.6-5.3-16.6-11.6-7.9-6.3-15-13.5-7.1-7.3-13.3-15.3-6.1-8.1-11.3-16.8c7.5-51.4 33-104.7 55.5-124.3-13.2-18-29.9-40.4-40.8-64.6q4.3-5.2 8.9-10.1 4.7-4.9 9.8-9.3 5-4.5 10.5-8.5 5.4-4.1 11.1-7.6c1.6 16.2 3.3 36.1 12.1 57.6 41.7 0.9 44.1-52.8 58.8-81.9h0.7q0 0.6 0 1.3-0.2 9.9 0.7 19.7 1 9.9 3.1 19.5 2 9.7 5.2 19 3.3 9.4 7.5 18.3c-8.4 13.3-16.7 26.1-21.8 36.6q-0.6 1.2-1.2 2.4-0.5 1.2-1 2.5-0.5 1.2-1 2.5-0.4 1.3-0.8 2.6c1.2 17.2 7.7 37.2 15.4 58.4 0.6 1.7 1.3 3.4 1.9 5.1z"/>
	<path id="Layer" class="s2" d="m166.7 79.7q-4.2-8.9-7.4-18.3-3.2-9.4-5.3-19.1-2.1-9.7-3-19.5-0.9-9.9-0.7-19.8 0-0.6 0-1.3h0.7q7.5-0.7 15.2-0.7 2.5 0 5.1 0.1 2.5 0 5 0.2 2.5 0.1 5 0.4 2.5 0.2 5.1 0.5c16 17.7-1.7 48.8-19.7 77.5z"/>
	<path id="Layer" class="s2" d="m179.9 331.5c-4.5 0.6-9 0.6-13.6 0.6q-3.8 0-7.6-0.2-3.8-0.2-7.5-0.5-3.8-0.4-7.6-0.9-3.7-0.5-7.5-1.2c-14.2-40.6-0.2-96.4 22.3-139.6 18.1 48.8 41 102.8 21.5 141.8z"/>
	<path id="Layer" fill-rule="evenodd" class="s2" d="m688.8 185.7h-108.1c0 36 26.5 54.9 52.4 54.9q6.5 0.2 13-0.7 6.4-0.9 12.6-2.9 6.2-2.1 11.9-5.1 5.8-3.1 10.9-7.2l1-0.7v21.1l-0.3 0.2c-11.8 8.8-29.6 13.9-49 13.9-43.7 0-73-30.2-73-75.2 0-42.8 29.3-75.1 68.2-75.1 37.8 0 60.4 23.4 60.4 62.7zm-20.8-17.5c-1.4-27-15.1-40.7-40.5-40.7-22.3 0-39.5 15.6-44.9 40.7zm103.8-58q3 0.2 6 0.6 3.1 0.4 6 0.9 3 0.6 6 1.3h0.4v20.6l-0.8-0.2q-3-1-6.1-1.7-3.1-0.6-6.2-1.1-3.1-0.4-6.3-0.6-3.1-0.2-6.3-0.2-4.1-0.1-8.1 0.2-4 0.4-8 1.3-4 0.9-7.8 2.2-3.8 1.4-7.5 3.2v119.1h-20.8v-130.4h0.3q5.9-3.8 12.3-6.7 6.4-2.8 13.2-4.8 6.7-2 13.7-3 6.9-0.9 13.9-1 3.1 0.1 6.1 0.3zm122.6 107.8c0 25.5-18.9 41.4-49.3 41.4-15.8 0-31.3-4.4-40.5-11.6l-0.2-0.5v-23.5l1 0.9c13.1 11.6 25.3 16.8 39.7 16.8 13.2 0 28.8-3.8 28.8-22.3 0-16.3-11.2-20.7-34.5-28.4-26.7-9.1-36.3-20.2-36.3-42.5 0-24.1 17.4-39.1 45.4-39.1q5.2-0.2 10.3 0.4 5.1 0.6 10.1 1.9 5 1.4 9.7 3.6 4.7 2.1 9.1 4.9h0.2v22.9l-1-0.8q-3.9-3.6-8.4-6.5-4.5-2.8-9.4-4.7-4.9-2-10.1-3-5.2-1-10.5-1c-15.3 0-25.2 8.5-25.2 21.2 0 12.8 7.4 19.4 29.3 26.3 25.6 7.8 41.8 18 41.8 43.6zm160.7-33.7c0 44-29.6 74.9-72.1 74.9-42.4 0-72-30.9-72-75.1 0-44.2 29.6-75.1 72-75.1 42.4 0 72.1 31.3 72.1 75.3zm-21.1-0.2c0-33.5-21-56.9-51-56.9-30 0-50.9 23.4-50.9 56.9 0 33.5 20.9 56.9 50.9 56.9 30 0 51-23.4 51-56.9zm162.6-25v96.9h-21v-92.8c0-23-13.2-34.7-39.2-34.7q-4.8 0-9.6 0.4-4.7 0.3-9.5 0.9-4.7 0.7-9.4 1.6-4.7 1-9.4 2.2v122.1h-20.8v-136h0.4q7.2-2.6 14.6-4.5 7.4-2 14.9-3.4 7.6-1.3 15.2-2 7.6-0.7 15.2-0.8c39.3 0 58.6 16.4 58.6 50.1zm127.3-4.8v98.9h-0.5q-4.9 1.2-10 2.2-5 1-10.1 1.7-5.1 0.6-10.2 1-5.2 0.3-10.3 0.3c-42.4 0-64.9-14.8-64.9-42.8 0-28 24.8-43.4 69.8-43.4h15.4v-16.6c0-17.2-10.8-27.1-29.5-27.1q-5.4 0-10.8 0.8-5.4 0.8-10.6 2.2-5.3 1.4-10.3 3.5-5 2.1-9.7 4.9l-0.9 0.4v-20.1h0.3q5.1-2.8 10.5-4.9 5.4-2 11-3.5 5.6-1.4 11.3-2.1 5.8-0.7 11.5-0.7c31.8 0 48 15.2 48 45.3zm-35.3 86.6q2.4-0.2 4.9-0.4 2.4-0.2 4.8-0.6 2.4-0.3 4.8-0.8v-49.5h-14.1c-18.8 0-50.3 3.4-50.3 26.2 0 20.8 24.5 25.2 45.1 25.2q2.4 0 4.8-0.1zm69.8-208.4h20.8v223.4h-20.8zm76.4 25.4c2.7 2.8 4.2 6.6 4.2 10.5 0 4-1.5 7.8-4.2 10.6-2.7 2.9-6.4 4.6-10.3 4.8-2-0.1-4-0.5-5.8-1.3-1.8-0.8-3.5-1.9-4.9-3.3-1.4-1.4-2.5-3.1-3.3-4.9-0.8-1.9-1.2-3.8-1.3-5.8 0-2 0.5-4 1.2-5.9 0.8-1.8 1.9-3.5 3.3-4.9 1.5-1.4 3.1-2.6 5-3.4 1.8-0.7 3.8-1.2 5.8-1.2 3.9 0.2 7.6 1.9 10.3 4.8zm-20.7 54.4h20.8v143.7h-20.8zm140.2 105.7c0 25.5-18.9 41.4-49.2 41.4-15.9 0-31.4-4.4-40.6-11.5l-0.2-0.5v-23.6l1 0.9c13.1 11.6 25.3 16.9 39.8 16.9 13.1 0 28.7-3.9 28.7-22.3 0-16.4-11.2-20.8-34.5-28.5-26.8-9.1-36.3-20.2-36.3-42.4 0-24.2 17.4-39.2 45.4-39.2q5.1-0.2 10.3 0.4 5.1 0.6 10.1 2 5 1.4 9.7 3.5 4.7 2.1 9 5h0.3v22.8l-1-0.8q-3.9-3.6-8.4-6.4-4.4-2.9-9.4-4.8-4.9-2-10.1-3-5.2-1-10.5-1c-15.3 0-25.2 8.5-25.2 21.3 0 12.7 7.4 19.3 29.2 26.2 25.9 7.8 41.9 18 41.9 43.6zm-999.3-101.2c0 46.4-30.7 69.6-77.4 69.6-11.4 0-23.8-2.3-29.4-5.9v75.5h-20.8v-200q5.9-2.1 11.9-3.8 6-1.6 12.2-2.7 6.1-1.1 12.4-1.7 6.2-0.6 12.4-0.7c49 0 78.7 20.7 78.7 69.7zm-77.9 50c33.9 0 58.3-14.4 58.3-50 0-34.3-22.9-50.5-59.6-50.5q-3.5-0.1-7 0.1-3.5 0.2-7 0.6-3.5 0.5-6.9 1.3-3.4 0.8-6.7 1.9v90.7q3.3 1.6 6.9 2.7 3.5 1.2 7.2 1.9 3.6 0.7 7.3 1 3.7 0.3 7.5 0.1zm1118-58.5c0.2 6.7-3.7 12.8-9.8 15.5-6.1 2.7-13.3 1.3-18-3.4-4.8-4.7-6.2-11.8-3.6-18 2.6-6.1 8.6-10.1 15.3-10 2.1 0 4.2 0.4 6.1 1.2 2 0.8 3.8 2 5.3 3.4 1.4 1.5 2.6 3.3 3.5 5.2 0.8 1.9 1.2 4 1.2 6.1zm-28.6 0c0 1.7 0.3 3.3 0.9 4.9 0.6 1.5 1.5 2.9 2.6 4.1 1.2 1.2 2.6 2.1 4.1 2.8 1.5 0.6 3.2 0.9 4.8 0.9 3.4 0 6.6-1.3 9-3.7 2.4-2.4 3.7-5.6 3.7-9 0-3.4-1.3-6.6-3.7-9-2.4-2.4-5.6-3.7-9-3.7-1.6 0-3.3 0.3-4.8 1-1.5 0.6-2.9 1.5-4.1 2.7-1.1 1.2-2 2.6-2.6 4.2-0.6 1.5-0.9 3.2-0.9 4.8zm9.8 8.3h-3.6v-15.9q0.7-0.1 1.5-0.2 0.7-0.1 1.5-0.2 0.7 0 1.5 0 0.8-0.1 1.5-0.1 0.8 0 1.5 0 0.7 0.1 1.4 0.2 0.7 0.2 1.4 0.4 0.6 0.3 1.3 0.6 0.3 0.3 0.6 0.7 0.3 0.4 0.5 0.9 0.3 0.4 0.3 0.9 0.1 0.5 0.1 1 0 0.7-0.3 1.3-0.2 0.6-0.7 1.1-0.4 0.5-1 0.9-0.6 0.3-1.3 0.4v0.2q0.6 0.3 1.2 0.7 0.5 0.4 0.9 0.9 0.3 0.5 0.6 1.2 0.2 0.6 0.2 1.2 0.1 0.6 0.2 1.1 0.1 0.5 0.2 1 0.2 0.5 0.4 1 0.2 0.5 0.4 1h-4q-0.3-0.5-0.5-1-0.2-0.5-0.3-1-0.2-0.5-0.3-1-0.1-0.5-0.2-1.1c-0.3-1.7-1.2-2.5-3.3-2.5h-1.7zm0-9h1.8c2 0 3.6-0.6 3.6-2.3 0-1.7-1-2.4-3.4-2.4q-0.2 0-0.5 0-0.2 0-0.5 0-0.3 0-0.5 0.1-0.3 0-0.5 0.1z"/>
</svg>