<svg version="1.2" baseProfile="tiny-ps" xmlns="http://www.w3.org/2000/svg" viewBox="0 0 1637 437" width="1637" height="437">
	<title>logo-en-svg</title>
	<defs>
		<linearGradient id="grd1" gradientUnits="userSpaceOnUse"  x1="344.263" y1="89.442" x2="174.227" y2="265.508">
			<stop offset="0" stop-color="#e61e26"  />
			<stop offset="0.28" stop-color="#e21e26"  />
			<stop offset="0.58" stop-color="#d51e25"  />
			<stop offset="0.88" stop-color="#c11d23"  />
			<stop offset="1" stop-color="#b61d22"  />
		</linearGradient>
		<linearGradient id="grd2" gradientUnits="userSpaceOnUse"  x1="22145.82" y1="-31750.854" x2="22145.82" y2="-49709.417">
			<stop offset="0" stop-color="#e61e26"  />
			<stop offset="0.28" stop-color="#e21e26"  />
			<stop offset="0.58" stop-color="#d51e25"  />
			<stop offset="0.88" stop-color="#c11d23"  />
			<stop offset="1" stop-color="#b61d22"  />
		</linearGradient>
	</defs>
	<style>
		tspan { white-space:pre }
		.shp0 { fill: #ffffff } 
		.shp1 { fill: #e61e26 } 
		.shp2 { fill: url(#grd1) } 
		.shp3 { fill: url(#grd2) } 
	</style>
	<g id="Layer_2">
		<g id="Layer_1-2">
			<path id="Layer" fill-rule="evenodd" class="shp0" d="M546.69 96.49L638.24 96.49C650.87 96.23 663.43 98.51 675.16 103.19C686.9 107.87 697.58 114.86 706.56 123.75C715.55 132.63 722.66 143.23 727.47 154.91C732.28 166.6 734.7 179.13 734.58 191.76C734.73 204.47 732.31 217.08 727.48 228.83C722.64 240.58 715.49 251.24 706.44 260.17C697.39 269.09 686.64 276.1 674.82 280.78C663 285.45 650.36 287.7 637.66 287.38L596.27 287.38L596.27 363.9L546.69 363.9L546.69 96.49ZM596.51 142.67L596.51 241.19L634.85 241.19C641.41 241.38 647.93 240.23 654.04 237.82C660.14 235.4 665.69 231.77 670.35 227.15C675 222.53 678.68 217.01 681.14 210.93C683.6 204.84 684.8 198.32 684.66 191.76C684.79 185.22 683.59 178.72 681.12 172.65C678.65 166.59 674.98 161.1 670.31 156.5C665.65 151.91 660.1 148.31 654 145.93C647.91 143.56 641.39 142.45 634.85 142.67L596.51 142.67ZM814.44 97.21C814.44 115.87 802.72 127.99 783.28 127.99C763.85 127.99 752.17 115.92 752.17 97.21C751.87 93.05 752.47 88.87 753.92 84.96C755.38 81.05 757.66 77.49 760.61 74.54C763.56 71.59 767.12 69.31 771.03 67.85C774.94 66.4 779.12 65.8 783.28 66.1C802.67 66.1 814.44 78.56 814.44 97.21ZM758.37 149.6L808.19 149.6L808.19 363.9L758.37 363.9L758.37 149.6ZM836.79 149.6L885.83 149.6L885.83 176.01C889.57 171.14 893.87 166.72 898.64 162.85C903.42 158.98 908.63 155.69 914.17 153.04C919.71 150.38 925.55 148.39 931.56 147.11C937.57 145.82 943.7 145.24 949.85 145.38C1003.74 145.38 1034.85 178.68 1034.85 236.93L1034.85 363.9L984.74 363.9L984.74 241.92C984.74 208.58 968.65 188.08 936.28 188.08C908.07 188.08 886.07 208.58 886.07 246.23L886.07 363.9L836.64 363.9L836.79 149.6ZM1046.77 149.6L1083.41 149.6L1083.41 117.03L1133.22 83.11L1133.22 149.6L1176.84 149.6L1176.84 193.85L1133.22 193.85L1133.22 274.15C1133.22 311.51 1138.75 317.37 1176.84 317.37L1176.84 363.9L1169.86 363.9C1103.57 363.9 1083.41 342.67 1083.41 274.53L1083.41 193.85L1046.77 193.85L1046.77 149.6ZM1186.19 257.33C1185.99 242.61 1188.72 227.99 1194.24 214.34C1199.76 200.69 1207.96 188.27 1218.34 177.83C1228.72 167.39 1241.09 159.13 1254.71 153.53C1268.33 147.93 1282.93 145.12 1297.65 145.24C1361.38 145.24 1407.9 192.1 1407.9 255.49L1407.9 274.15L1233.44 274.15C1240.62 304.58 1264.22 324.69 1299.4 324.69C1305.63 324.89 1311.86 324.15 1317.88 322.5C1323.9 320.85 1329.63 318.31 1334.9 314.96C1340.16 311.61 1344.89 307.5 1348.94 302.75C1352.98 298 1356.3 292.67 1358.76 286.94L1399.42 310.4C1380.72 345.24 1347.76 368.31 1299.4 368.31C1231.99 368.31 1186.19 319.22 1186.19 257.33ZM1357.65 232.62C1350.33 203.54 1328.57 188.66 1297.56 188.66C1290.79 188.5 1284.03 189.43 1277.56 191.42C1271.08 193.42 1264.97 196.44 1259.46 200.38C1253.94 204.31 1249.1 209.11 1245.12 214.59C1241.13 220.07 1238.06 226.16 1236.01 232.62L1357.65 232.62ZM1430.91 213.93C1436.44 200.3 1444.64 187.92 1455.03 177.51C1465.41 167.1 1477.78 158.88 1491.39 153.32C1505 147.76 1519.59 144.98 1534.29 145.14C1545.09 144.94 1555.85 146.34 1566.23 149.3C1576.61 152.27 1586.49 156.76 1595.55 162.64C1604.61 168.51 1612.74 175.7 1619.68 183.97C1626.62 192.24 1632.29 201.5 1636.5 211.44L1592.16 230.1C1589.88 224.4 1586.76 219.07 1582.9 214.3C1579.04 209.53 1574.48 205.37 1569.38 201.96C1564.28 198.55 1558.69 195.93 1552.81 194.18C1546.93 192.44 1540.82 191.59 1534.68 191.67C1498.38 191.67 1471.29 220.74 1471.29 256.85C1471.11 265.31 1472.62 273.73 1475.74 281.61C1478.86 289.48 1483.52 296.65 1489.45 302.7C1495.37 308.75 1502.45 313.56 1510.26 316.83C1518.07 320.11 1526.45 321.79 1534.92 321.78C1562.79 321.78 1582.9 305.31 1592.79 281.85L1637.13 300.9C1633.02 311.02 1627.39 320.47 1620.45 328.91C1613.51 337.35 1605.33 344.69 1596.19 350.67C1587.04 356.66 1577.05 361.23 1566.54 364.22C1556.02 367.21 1545.12 368.59 1534.2 368.31C1519.53 368.41 1505 365.6 1491.43 360.03C1477.87 354.47 1465.55 346.26 1455.18 335.89C1444.82 325.51 1436.62 313.18 1431.07 299.62C1425.52 286.05 1422.71 271.51 1422.83 256.85C1422.64 242.14 1425.38 227.55 1430.91 213.93Z" />
			<path id="Layer" fill-rule="evenodd" class="shp1" d="M159.92 24.23C167.58 16.54 176.68 10.43 186.7 6.27C196.72 2.1 207.47 -0.04 218.32 -0.04C229.17 -0.04 239.92 2.1 249.94 6.27C259.96 10.43 269.06 16.54 276.72 24.23L412.26 160.26C419.93 167.91 426.02 177.01 430.17 187.01C434.32 197.02 436.46 207.75 436.46 218.59C436.46 229.42 434.32 240.15 430.17 250.16C426.02 260.17 419.93 269.26 412.26 276.91L276.57 412.6C268.92 420.27 259.83 426.36 249.82 430.51C239.81 434.66 229.08 436.8 218.25 436.8C207.41 436.8 196.68 434.66 186.67 430.51C176.67 426.36 167.58 420.27 159.92 412.6L24.23 276.72C16.54 269.06 10.43 259.96 6.27 249.94C2.1 239.92 -0.04 229.17 -0.04 218.32C-0.04 207.47 2.1 196.72 6.27 186.7C10.43 176.68 16.54 167.58 24.23 159.92L159.92 24.23ZM237.46 145.38C234.91 142.85 231.89 140.83 228.56 139.46C225.24 138.09 221.67 137.38 218.08 137.38C214.48 137.38 210.92 138.09 207.59 139.46C204.27 140.83 201.24 142.85 198.69 145.38L145.38 198.69C142.83 201.23 140.8 204.25 139.42 207.58C138.03 210.91 137.32 214.47 137.32 218.08C137.32 221.68 138.03 225.25 139.42 228.57C140.8 231.9 142.83 234.92 145.38 237.46L198.69 290.77C201.24 293.31 204.27 295.32 207.59 296.69C210.92 298.07 214.48 298.77 218.08 298.77C221.67 298.77 225.24 298.07 228.56 296.69C231.89 295.32 234.91 293.31 237.46 290.77L290.77 237.46C293.31 234.91 295.33 231.89 296.71 228.57C298.08 225.24 298.79 221.68 298.79 218.08C298.79 214.48 298.08 210.91 296.71 207.59C295.33 204.26 293.31 201.24 290.77 198.69L237.46 145.38Z" />
			<path id="Layer" class="shp2" d="M412.6 276.72L332.49 356.82C333.52 355.8 334.51 354.75 335.47 353.68C336.44 352.6 337.38 351.5 338.28 350.38C339.19 349.25 340.06 348.1 340.91 346.93C341.76 345.76 342.57 344.57 343.35 343.35C348.46 335.49 352.19 326.81 354.38 317.7C356.57 308.58 357.18 299.16 356.2 289.84C355.22 280.52 352.66 271.43 348.62 262.97C344.58 254.51 339.13 246.8 332.49 240.18L237.85 145.38C235.3 142.85 232.27 140.84 228.95 139.48C225.62 138.11 222.06 137.4 218.46 137.4C214.87 137.4 211.31 138.11 207.98 139.48C204.66 140.84 201.63 142.85 199.08 145.38L145.77 198.69C143.23 201.24 141.21 204.26 139.83 207.59C138.46 210.91 137.75 214.48 137.75 218.08C137.75 221.68 138.46 225.24 139.83 228.57C141.21 231.89 143.23 234.91 145.77 237.46L104.48 196.22C97.86 189.6 92.41 181.89 88.37 173.44C84.34 164.98 81.78 155.9 80.8 146.58C79.81 137.26 80.43 127.85 82.62 118.73C84.8 109.62 88.53 100.95 93.63 93.09C94.41 91.87 95.22 90.67 96.06 89.5C96.9 88.32 97.78 87.17 98.69 86.04C99.59 84.91 100.53 83.8 101.5 82.73C102.46 81.65 103.46 80.6 104.48 79.57L159.92 24.23C167.58 16.54 176.68 10.43 186.7 6.27C196.72 2.1 207.47 -0.04 218.32 -0.04C229.17 -0.04 239.92 2.1 249.94 6.27C259.96 10.43 269.06 16.54 276.72 24.23L412.41 159.92C420.11 167.57 426.23 176.66 430.41 186.67C434.6 196.68 436.76 207.43 436.78 218.28C436.79 229.13 434.67 239.88 430.52 249.91C426.37 259.94 420.28 269.05 412.6 276.72L412.6 276.72Z" />
			<path id="Layer" class="shp3" d="M332.49 356.82L276.72 412.6C269.06 420.27 259.97 426.36 249.96 430.51C239.96 434.66 229.23 436.8 218.39 436.8C207.56 436.8 196.83 434.66 186.82 430.51C176.81 426.36 167.72 420.27 160.07 412.6L24.23 276.72C16.54 269.06 10.43 259.96 6.27 249.94C2.1 239.92 -0.04 229.17 -0.04 218.32C-0.04 207.47 2.1 196.72 6.27 186.7C10.43 176.68 16.54 167.58 24.23 159.92L104.29 79.91C103.27 80.94 102.27 81.99 101.3 83.07C100.34 84.14 99.4 85.25 98.49 86.38C97.59 87.51 96.71 88.66 95.87 89.84C95.02 91.01 94.21 92.21 93.43 93.43C88.33 101.29 84.61 109.96 82.42 119.07C80.24 128.18 79.62 137.6 80.6 146.92C81.58 156.24 84.15 165.32 88.18 173.77C92.22 182.23 97.66 189.94 104.29 196.56L198.98 291.25C201.54 293.79 204.56 295.79 207.89 297.16C211.21 298.53 214.77 299.24 218.37 299.24C221.96 299.24 225.52 298.53 228.85 297.16C232.17 295.79 235.2 293.79 237.75 291.25L291.06 237.95C293.6 235.4 295.62 232.38 297 229.05C298.37 225.73 299.08 222.16 299.08 218.56C299.08 214.96 298.37 211.4 297 208.07C295.62 204.75 293.6 201.72 291.06 199.18L332.3 240.42C338.93 247.04 344.39 254.75 348.42 263.21C352.46 271.67 355.03 280.76 356.01 290.08C356.99 299.4 356.37 308.83 354.18 317.94C351.99 327.06 348.26 335.73 343.16 343.59C342.39 344.78 341.59 345.96 340.75 347.11C339.92 348.25 339.06 349.38 338.17 350.49C337.28 351.59 336.36 352.67 335.42 353.73C334.47 354.79 333.5 355.82 332.49 356.82L332.49 356.82Z" />
		</g>
	</g>
</svg>