<svg version="1.2" baseProfile="tiny-ps" xmlns="http://www.w3.org/2000/svg" viewBox="0 0 1650 425" width="1650" height="425">
	<title>petros_logo-svg</title>
	<defs>
		<clipPath clipPathUnits="userSpaceOnUse" id="cp1">
			<path d="M465.73 129.7L699.06 129.7L699.06 424.39L465.73 424.39L465.73 129.7Z" />
		</clipPath>
		<clipPath clipPathUnits="userSpaceOnUse" id="cp2">
			<path d="M0 0.41L404.49 0.41L404.49 344.65L0 344.65L0 0.41Z" />
		</clipPath>
	</defs>
	<style>
		tspan { white-space:pre }
		.shp0 { fill: #ffffff } 
	</style>
	<g id="Final-Website">
		<g id="Homepage-F0">
			<g id="Group-19">
				<g id="Group-3">
					<g id="Clip-2">
					</g>
					<g id="Clip-Path: Fill-1" clip-path="url(#cp1)">
					</g>
				</g>
				<path id="Fill-1" fill-rule="evenodd" class="shp0" d="M699.06 237.67C699.06 301.18 654.18 347.31 592.29 347.31C564.79 347.31 539.64 336.87 524.39 319.34L524.39 424.39L465.73 424.39L465.73 135.54L524.39 135.54L524.39 156.92C535.19 145.23 556.49 129.7 593.61 129.7C654.7 129.7 699.06 175.12 699.06 237.67ZM639.52 237.67C639.52 208.03 621.48 176.17 581.73 176.17C545.22 176.17 522.63 208.52 522.63 238.5C522.63 268.76 544.78 300 581.73 300C619.72 300 639.52 268.62 639.52 237.67ZM896.83 155.88C896.9 155.88 896.9 155.95 896.98 156.03C917.06 176.13 928.23 206.46 928.23 244.42C928.23 249.21 928.23 253.71 927.8 258.64L927.58 261.25L769.36 261.25C772.98 287.31 797.06 306.83 825.7 306.83C847.24 306.83 866.3 301.96 882.98 288.39L906.84 325.4C906.33 325.99 905.75 326.57 905.17 327.07C885.16 346.09 859.13 355.3 826.13 355.3C757.25 355.3 710.98 310.24 710.98 243.11C710.98 210.74 721.72 182.95 740.35 162.85C760.36 141.08 789.66 128.3 824.39 128.3C854.41 128.3 879.14 138.03 896.83 155.88ZM870.15 218C869.71 208.86 866.45 185.78 844.4 176.93C838.89 174.68 832.15 173.3 823.96 173.3C795.75 173.3 772.91 192.02 769.36 218L870.15 218ZM1471.34 240.93C1471.34 306.1 1420.43 355.3 1352.84 355.3C1285.33 355.3 1234.35 306.1 1234.35 240.93C1234.35 175.69 1284.23 128.3 1352.84 128.3C1421.54 128.3 1471.34 175.69 1471.34 240.93ZM1411.43 240.93C1411.43 210.02 1393.13 176.78 1352.84 176.78C1312.64 176.78 1294.26 210.02 1294.26 240.93C1294.26 272.28 1312.64 305.96 1352.84 305.96C1393.13 305.96 1411.43 272.28 1411.43 240.93ZM1649.09 282.73C1649.09 328.17 1616.9 355.3 1562.98 355.3C1538.3 355.3 1502.62 343.07 1481.75 327.45L1481.22 327.04L1505.25 288.21L1505.85 288.69C1520.14 300.27 1545.6 309.01 1565.07 309.01C1565.93 309.01 1571.01 308.65 1571.83 308.51C1580.26 307.31 1594.37 302.94 1594.37 287.09C1594.37 272.05 1581.06 267.24 1550.68 259.86C1534.92 255.97 1515.21 249.71 1502.55 235.7C1496.28 228.75 1492.22 220.26 1490.5 210.44C1489.75 206.65 1489.38 202.52 1489.38 197.83C1489.38 149.8 1530.75 128.3 1571.74 128.3C1595.88 128.3 1628.91 139.2 1646.93 153.12L1647.45 153.53L1624.34 190.89L1623.75 190.43C1611.16 180.66 1588.26 173.3 1570.48 173.3L1570.43 173.3C1569.56 173.3 1568.7 173.3 1567.83 173.37C1560.75 173.7 1544.06 175.93 1541.52 189.48C1541.31 190.59 1541.19 191.78 1541.19 193.04C1541.19 206.77 1554.56 210.71 1582.38 217.65C1601.59 222.46 1625.37 230.32 1638.74 248.62C1638.99 248.97 1639.2 249.27 1639.41 249.63C1645.82 258.74 1649.09 269.9 1649.09 282.73ZM1025.17 132.64L1076.35 132.64L1076.35 178.5L1025.17 178.5L1025.17 270.92C1025.17 288.36 1029.42 299.17 1050.54 299.17C1056.64 299.17 1065.97 298.14 1072.15 295.25L1076.35 293.3L1076.35 339.8L1075.86 339.97C1066.23 343.29 1051.88 345.43 1039.28 345.43C973.64 345.43 966.05 303.15 966.05 271.34L966.05 178.5L928.23 178.5L928.23 132.64L966.05 132.64L966.05 78.96L1025.17 78.96L1025.17 132.64ZM1234.11 129.67L1234.35 129.73L1234.35 182.69L1232.7 182.29C1225.74 180.58 1221.65 180.23 1217.3 180.23C1164.66 180.23 1164.03 232.06 1164.03 232.59L1164.03 345.43L1105.97 345.43L1105.97 134.29L1164.03 134.29L1164.03 158.69C1177.54 139.36 1197.85 128.3 1220.78 128.3C1224.36 128.3 1230 128.66 1234.11 129.67Z" />
				<g id="Group-16">
					<g id="Clip-15">
					</g>
					<g id="Clip-Path: Fill-14" clip-path="url(#cp2)">
					</g>
				</g>
				<path id="Fill-14" fill-rule="evenodd" class="shp0" d="M215.56 11.85L404.49 344.65L359.27 344.65L196.08 57.24L55.56 304.8L77.95 304.8L55.24 344.65L16.89 344.65C3.91 344.65 -4.21 330.35 2.29 318.92L176.6 11.85C185.26 -3.4 206.91 -3.4 215.56 11.85ZM187.58 163.42C192.02 156.08 203.14 156.08 207.59 163.42L303.77 322.35C310.44 333.38 302.1 347.16 288.76 347.16L144.65 347.16L157.49 325.98L157.53 325.98L168 308.74L249.04 308.74L197.58 223.61L122.84 347.16L99.66 385.52L76.14 424.39L29.62 424.39L53.15 385.52L76.38 347.16L187.58 163.42Z" />
			</g>
		</g>
	</g>
</svg>