<svg version="1.2" xmlns="http://www.w3.org/2000/svg" viewBox="0 0 1577 1000" width="1577" height="1000">
	<title>Pulmatrix_Logo-svg-svg</title>
	<style>
		.s0 { fill: #ffffff } 
	</style>
	<g id="#45bbbdff">
		<path id="Layer" class="s0" d="m1085.4 1.5c6-1.2 12.2-0.6 18.5-0.4 8.3 0.7 12.8 10.6 10.3 17.9-5.1 16.3-26.9 23.8-41.3 14.8-5.5-4.2-7.2-12.5-3.6-18.6 2.9-6.8 9.3-11.3 16.1-13.7z"/>
		<path id="Layer" class="s0" d="m982 224.7c8.6-1.5 19.4-0.4 25.1 7.4 4.5 4.9 4.5 12.8 0.5 18.1-8.7 12.9-27.5 16.3-40.7 8.9-7.8-4-10.2-15.1-5.1-22.1 4.3-7 12.4-10.8 20.2-12.3z"/>
	</g>
	<g id="#65c4c9ff">
		<path id="Layer" class="s0" d="m1051.6 75.5c10.4-3.8 25.8-0.2 28.3 12.1 1.5 15.1-14.9 26.1-28.7 25.1-9.2 0.8-20.2-5.7-20.2-15.9 0.6-10.9 10.6-18.8 20.6-21.3z"/>
		<path id="Layer" class="s0" d="m1023.1 149.2c9.1-0.6 20.2 4.1 21.7 14.1 1.7 11.4-8.9 20.8-19.1 23.5-8.6 1.1-18.6 1.8-25.6-4.4-5.7-4.7-6.4-13.6-2.5-19.4 5.5-8.5 15.5-13.5 25.5-13.8z"/>
	</g>
	<g id="#0e426aff">
		<path id="Layer" class="s0" d="m436.3 93.8c131.3 23.1 262.4 46.5 393.8 69.9 45.4 7.6 90.5 16.6 136 23.6-0.7 7.2-5.3 12.9-8.1 19.1-37.2 75.4-74.3 150.9-111.5 226.3-3.6 5.8-5.7 12.6-9.6 18.3-267 63.3-534 126.6-800.9 189.7-12 2.6-23.7 6.6-36 7.9q217.9-277.5 436.3-554.8z"/>
	</g>
	<g id="#267fc3ff">
		<path id="Layer" class="s0" d="m1043.3 205.1c49 7.9 97.7 17.4 146.6 25.9 126.1 22.2 252.3 44.9 378.3 67.2 3.1 0.9 10-0.4 8.5 4.7-52.6 232.4-105.1 464.7-157.5 697-165.9-176-331.9-352.1-497.6-528.5 41.1-88.6 80.9-177.5 121.7-266.3z"/>
	</g>
	<g id="#aee1e2ff">
		<path id="Layer" class="s0" d="m936.3 311c10-2.6 22.1-2 29.8 5.3 6.6 6.5 5.5 17.8-0.7 23.8-8.7 8.7-22.5 10.6-34 7.4-8.1-2.1-15.9-9.8-13.6-18.5 1.1-9.6 10.2-15.3 18.5-18z"/>
		<path id="Layer" class="s0" d="m900.6 390.8c10.4-1.6 23.6 1.1 28.5 11.5 3.8 6 1 14-3.4 18.9-11.7 10.5-31.1 12.1-43.7 2.2-6.5-5.1-7.4-15.5-2.1-21.7 4.9-6.2 12.8-10 20.7-10.9z"/>
		<path id="Layer" class="s0" d="m859.3 481.6c10-0.7 21.9 1.1 28.1 10 5.3 6.6 3 17-3.6 21.9-10.5 8.2-25.4 9.1-37.3 3.8-6.1-2.8-11.7-8.5-11.7-15.5 1.3-12.1 13.4-19.1 24.5-20.2z"/>
		<path id="Layer" class="s0" d="m736.7 738.7c9-0.6 19.2-2.3 27.5 2.8 6.6 3.4 12.1 10.8 10.2 18.5-1.7 6.6-7.4 11.6-13.6 13.6-11.5 4.6-26 3.6-35.6-4.5-3.1-3.4-8.5-7.6-6.5-12.8 1-9.3 9.3-15.7 18-17.6z"/>
		<path id="Layer copy 2" class="s0" d="m774.4 649.9c9.1-0.6 19.2-2.3 27.6 2.8 6.6 3.4 12 10.8 10.1 18.6-1.7 6.6-7.3 11.5-13.5 13.6-11.6 4.5-26.1 3.5-35.7-4.6-3-3.4-8.5-7.5-6.4-12.8 0.9-9.3 9.2-15.7 17.9-17.6z"/>
		<path id="Layer copy" class="s0" d="m812.1 568.7c9.1-0.6 19.3-2.3 27.6 2.8 6.6 3.4 12.1 10.8 10.2 18.5-1.7 6.6-7.4 11.6-13.6 13.6-11.5 4.6-26 3.6-35.7-4.5-3-3.4-8.5-7.6-6.4-12.8 1-9.3 9.3-15.7 17.9-17.6z"/>
	</g>
</svg>