<svg version="1.2" xmlns="http://www.w3.org/2000/svg" viewBox="0 0 1162 1543" width="1162" height="1543">
	<title>logo (17)-svg</title>
	<style>
		.s0 { fill: #ffffff } 
	</style>
	<g id="Nav_Signed_In">
		<g id="Nav">
			<g id="Layer">
				<g id="Logo">
					<path id="Fill-19" fill-rule="evenodd" class="s0" d="m194.9 102.3c132.9-112 505.9-142.6 676.1-33.3 192.9 101.3 312.9 322.9 286.9 503.5-6.5 383-275.6 550.9-569 536.6l-171.1-16.9v-299.3l161.4 12.2c322.5-8 299.9-340.3 183.2-425.8-61.6-66.5-210.8-98.2-324.2-41.2-71.6 36-111.9 121.6-106.9 234.9l0.9 16.4v791.6c0 89.2-73.9 161.5-165.3 161.5-91.4 0-165.4-72.3-165.4-161.5v-791.6c-10.7-181.7 34.6-390.6 193.4-487.1z"/>
				</g>
			</g>
		</g>
	</g>
</svg>