<svg version="1.2" xmlns="http://www.w3.org/2000/svg" viewBox="0 0 1182 1575" width="1182" height="1575">
	<title>Screenshot 2023-01-06 at 20-svg</title>
	<style>
		.s0 { fill: #ffffff } 
	</style>
	<g id="#534c4bff">
		<path id="Layer" fill-rule="evenodd" class="s0" d="m394.8 33.7c70.7-25.5 146.4-35.1 221.2-32.7 48.3 1.6 96.3 9.3 142.8 22.5 54.1 16.9 106.7 39.5 153.8 71.2 29.6 18.5 56.8 40.5 82.1 64.4 0-21.2 0.3-42.4 0.4-63.6 0.1-14.6 1.8-29.4 8-42.7 9.8-20.3 27-37.5 48.2-45.7 25.8-10.1 56.1-8.7 80.8 4 30.2 15.2 49.3 48.4 49.4 82 0 459.8 0 919.5 0 1379.3 0.6 16.7-1.8 33.9-9.6 48.8-16.6 33.4-53.9 55.7-91.3 53.1-23.2-0.9-45.2-11.9-61.2-28.5-16.9-17.9-25.7-42.7-25.2-67.2 2-151.2 0.3-302.5 0.5-453.7-38.8 35.5-82.4 65.7-128.6 91-51.6 27.7-107.6 47-165.2 57.5-83.3 14.9-169.5 11-251.9-7.8-41-10.4-81.5-24-119.2-43.3-56.7-27.3-108-65.1-152.5-109.5-14.1-13.1-26.2-28-38.6-42.6-51.8-60.8-90-132.6-113.5-208.8-15.8-54.7-25.2-111.5-24.7-168.4-0.2-46.4 5.1-92.8 15.8-137.9 8.5-37.6 22.6-73.7 37.5-109.1 16.3-33.3 34.4-65.9 56.2-96 28-40.2 62.1-75.9 98.4-108.7 21.1-17.7 43.2-34.1 66.1-49.5 38.1-23.2 77.9-44 120.3-58.1zm156.7 159c-54.1 5.4-106.8 22.1-154.4 48.2-76.1 42.5-138.6 110-173.2 190.2-36.6 83.4-43.8 179.5-19.3 267.3 11.1 40.3 29 78.5 51.4 113.8 26.6 38.9 58.3 74.8 96.8 102.4 13.3 10.9 28.5 19.1 43.1 28.1 41.3 22.6 86.2 39.4 133.1 45.9 42.4 7.3 85.9 6.6 128.4 0.1 76.7-13.4 150.1-48.2 207-101.7 12.3-10.8 22.6-23.6 34-35.2 13.3-16.8 26.3-33.8 37.2-52.3 10.7-15.9 18-33.7 26.1-51 6.4-17.4 13.7-34.6 17.9-52.7 13.1-45.8 15.9-94 12.3-141.3-5.6-44.7-15.9-89.2-35.5-130-13.9-31.6-33.1-60.5-54.3-87.5-24.2-28.8-52.3-54.1-82.8-76-35.9-24.3-75.6-42.7-117-55-48.9-14-100.3-18.1-150.8-13.3z"/>
	</g>
	<g id="#d66437ff">
		<path id="Layer" class="s0" d="m276.5 1187.8c-0.7-15.2 17.2-27.1 30.8-19.9 9 3.7 12.8 13.8 12.7 22.9 0.3 31.8 0.1 63.7 0 95.5q7-4.4 14-8.6c29.2-14.4 64.2-16.7 94.5-4.4 38.4 14.8 68.9 52.1 69.9 94.1 0.5 42.7 0 85.5 0.2 128.3 0 9.3-1.1 20.8-9.9 26.1-12.7 9-33-0.8-32.9-16.8-1-42.6 0.3-85.4-0.6-128.1-0.3-23-12.1-46.3-32.1-58.3-23.2-14.4-54.6-15.1-77.7-0.1-16.8 9.4-24.7 29-25.1 47.6-0.7 45.8 0.5 91.8-0.6 137.6 0.4 8.7-6.4 14.5-11.8 20.2-11.9 3.8-23.2-1-30.5-10.6-2.3-31.1-0.5-62.3-1.1-93.4 0.2-77.3-0.2-154.7 0.2-232.1zm345.9 85.1c14.3-8.6 29.8-15.7 46.7-16.9 32.9-3.7 66.4 10.4 87.7 35.6 14.5-16.6 33.7-29.2 55.6-33.5 44.9-11.1 95.1 14.8 112.1 57.8 7.8 19.3 5.3 40.5 5.7 60.8 0 42.4 0 84.7 0 127 0.2 7-2.7 13.5-5.4 19.7-6.9 2.6-14.5 6.4-21.6 2-9.9-3.7-10.7-15.6-10.7-24.6 0-49.5-0.1-98.9 0.1-148.4 0.5-16.7-6.8-33.4-19.4-44.4-17.7-17.3-46.8-20.3-68.2-8.3-17.7 9.9-30.6 29.3-30.3 49.9-0.2 52.4 0.1 104.7-0.1 157.1 0.2 8.5-4.1 18.6-13.3 20.4-8.5 2.6-15.5-3.6-21.6-8.4-2.9-28.3-0.8-56.9-1.4-85.3-0.1-26.8 0.2-53.6-0.1-80.4-0.1-20.6-10.4-41.4-28.4-51.9-25.3-15.1-63.7-11.7-80.9 13.9-7 11.1-7.4 24.7-7.8 37.4 0 49.5-0.1 98.9 0.1 148.3-0.1 6.8 0.1 14.2-4 20-7 7.3-19.1 9.4-27.2 2.7-6.4-6.8-6.8-16.6-6.7-25.4 0.2-71.8 0.1-143.7 0.1-215.5-0.1-6.5 0.6-13.7 5.2-18.8 5.3-7 16-8.1 23.4-3.7 4.3 3.5 7.2 8.4 10.4 12.9z"/>
	</g>
</svg>