<svg version="1.2" xmlns="http://www.w3.org/2000/svg" viewBox="0 0 1530 235" width="1530" height="235">
	<title>quantum-logo-gradient-svg</title>
	<defs>
		<linearGradient id="g1" x1=".8" y1="117.3" x2="1484" y2="117.3" gradientUnits="userSpaceOnUse">
			<stop offset="0" stop-color="#ffffff"/>
			<stop offset="1" stop-color="#ffffff"/>
		</linearGradient>
	</defs>
	<style>
		.s0 { fill: url(#g1) } 
		.s1 { fill: #ffffff } 
	</style>
	<g id="Layer">
		<path id="Layer" fill-rule="evenodd" class="s0" d="m980.3 195.5c0 2.5 0.1 34.7 0.1 34.7 0 0-16.1 3.5-33.8 3.5-19.9 0-50.5-5.8-50.5-49.7v-81.9h-31.6v-31.5h31.6v-32.9h44.5v33h39.5v31.5h-39.5c0 12.9 0 61.6 0 66.1 0 14.8-1.2 28.1 17.5 30.3 7.6 0.9 13.5-0.3 22.2-3.1zm503.7-72.2v108.2h-44.9v-103.7c0-15.4-6.5-30.2-33.3-30.2-10.3 0-25.2 4.9-33.6 10.9v123h-45.9v-103.7c0-14.9-5.8-30.2-34.2-30.2-10.8 0-24 2.7-33 6.7v127.2h-45.1v-151.4l1.8-0.6c23.3-6.6 58.8-11.8 80.9-11.8 22.9 0 40.6 4.8 54.1 14.8 19.8-10 40.1-15 62-15 65 0 71.2 39 71.2 55.8zm-1089.3-52.5h46.5v154.2c0 0-45.9 8.7-84.7 8.7-79.3 0-77.7-38.6-78.1-49.9-0.5-11.3 0-113.1 0-113.1h46.5v97.2c0 27.9 6.9 34.6 31.4 36.3 11.8 0.8 24.8-1.2 38.4-5.1zm244.1 43.9v110.2c0 0-29.4 8.2-89.4 8.2-36.4 0-74.8-11.2-75.6-51.3-0.6-31 25.5-50.3 59.6-50.3 6 0 60.5-0.7 60.5-0.7 0 0 0.1-1.1 0.1-7.1 0-21.7-16.6-27-31.1-27-47 0-73.4 13.8-73.4 13.8 0 0 0-30.9 0-35.1 23.2-5.5 55.9-7.6 71-7.6 54.9 0 78.3 19.1 78.3 46.9zm-45 84.4v-38.2c-9.2 0-41.1 0-41.1 0-29.2 0-36.5 9.6-36.5 21 0 15.8 15.1 19.6 31.2 21.4 19 2.1 34.9-1.2 46.5-4.2zm-398.8 0.1h59.8v33.3c0 0-135.6 0-137.6 0-86.5 0-116.4-38.1-116.4-116.4 0-72.7 26.1-115.4 116.4-115.4 89.4 0 114.9 41.3 114.9 115.5 0 58.1-16.3 70.1-37.1 81.3 0 0.4 0 0.8 0 1.7zm-15.5-83.1c0-44.3-14.1-80.9-62.3-80.9-51 0-63.5 36.5-63.5 80.9 0 44.3 12.5 82.4 63.5 82.4 50.4 0 62.3-38.7 62.3-82.4zm949.5-45.1h46.5v154.3c0 0-45.9 8.7-84.7 8.7-79.3 0-77.7-38.7-78.1-49.9-0.5-11.3 0-113.1 0-113.1h46.5v97.1c0 28 6.9 34.7 31.4 36.4 11.8 0.8 24.8-1.3 38.4-5.1zm-404 160.2h-46.5v-154.2c0 0 45.9-8.7 84.7-8.7 79.3 0 77.7 38.6 78.1 49.9 0.4 11.3 0 113.1 0 113.1h-46.5v-97.2c0-27.9-6.9-34.6-31.5-36.3-11.7-0.8-24.7 1.2-38.3 5.1z"/>
		<g id="Layer">
			<g id="Layer">
				<g id="Layer">
					<g id="Layer">
						<path id="Layer" fill-rule="evenodd" class="s1" d="m1517.3 218.2l4.2 8.6h-4l-3.8-8.1h-3.5v8.1h-3.5v-18.8h7c5.3 0 7.9 1.7 7.9 5.1 0 2.7-1.6 4.5-4.3 5.1zm0.5-4.7c0-2.3-1.4-3.2-4.8-3.2h-2.8v6.2h3c3.2 0 4.7-0.8 4.6-3z"/>
					</g>
				</g>
				<path id="Layer" fill-rule="evenodd" class="s1" d="m1529.8 217.6c0 4.6-1.7 8.7-4.8 11.7-3.2 3.2-7.4 5-11.7 5-4.5 0-8.6-1.7-11.7-5-3.2-3.2-4.9-7.3-4.9-11.6 0-4.3 1.8-8.6 5-11.9 3.1-3.1 7.1-4.7 11.6-4.7 4.5 0 8.6 1.7 11.7 5 3.1 3 4.8 7.2 4.8 11.5zm-2 0.2c0-4-1.5-7.6-4.2-10.3-2.7-2.7-6.2-4.2-10.2-4.2-3.9 0-7.4 1.5-10.1 4.1-2.8 2.9-4.4 6.6-4.4 10.3 0 3.7 1.6 7.3 4.3 10.1 2.7 2.7 6.3 4.2 10 4.2 3.9 0 7.4-1.4 10.3-4.2 2.6-2.7 4.1-6.2 4.3-10z"/>
			</g>
		</g>
	</g>
</svg>