<svg version="1.2" xmlns="http://www.w3.org/2000/svg" viewBox="0 0 1560 1560" width="1560" height="1560">
	<title>quanergy-svg</title>
	<style>
		.s0 { fill: #ffffff } 
	</style>
	<path id="Layer" fill-rule="evenodd" class="s0" d="m1415.6 1230.4l11 196.2-196.2-11c-304.4 216.3-729.3 188.1-1002.2-84.8-304.4-304.5-304.4-798.1 0-1102.5 304.5-304.5 798.1-304.5 1102.6 0 272.9 272.8 301.1 697.7 84.8 1002.1zm-18.4 166.8l-18.8-334.2-16.9-301.3q-0.4-14.9-1.6-29.7l-0.2-3.2-0.1 0.1c-11.3-130.1-66.1-257-164.4-357.2l-0.3-0.2-0.2-0.3-0.2-0.2-0.3-0.3-2.9-3c-227.4-227.4-596.1-227.4-823.5 0-227.5 227.5-227.5 596.2 0 823.6l2.9 3 0.3 0.2 0.2 0.2 0.3 0.2 0.2 0.2c100.2 98.4 227.1 153.2 357.1 164.5l-0.1 0.1 3.3 0.2q3.7 0.3 7.4 0.5 3.7 0.3 7.4 0.5 3.8 0.2 7.5 0.4 3.7 0.1 7.4 0.2l301.3 16.9z"/>
	<path id="Layer" class="s0" d="m499.3 499.3c154.8-154.7 405.7-154.7 560.3 0 154.8 154.8 154.8 405.6 0 560.4-154.6 154.7-405.5 154.7-560.3 0-154.7-154.8-154.7-405.6 0-560.4z"/>
</svg>