<svg version="1.2" xmlns="http://www.w3.org/2000/svg" viewBox="0 0 1572 1575" width="1572" height="1575">
	<title>gcsp3i51ruhv000001-svg</title>
	<style>
		.s0 { fill: #006e53 } 
	</style>
	<g id="#006e53ff">
		<path id="Layer" fill-rule="evenodd" class="s0" d="m775.3 0h21.1c18.6 3.5 35.3 13.7 47.6 28 235.2 235.7 470.6 471.2 705.9 706.8 11.1 10.9 18.8 25.4 21.2 40.9 3.6 22.2-3.9 46.3-20.3 61.9-120.9 121.3-242 242.4-363 363.6-25.9 25.6-51.3 51.9-77.6 77.2-24.1 5.1-49.2 4.8-73.7 3.2-53.1-3.7-104.8-20.3-151.7-45.3-24.4-13.7-50.4-25.1-77.9-31.3-44.9-10.7-93.3-6.5-135.3 13-28.8 13.3-54.8 32.7-76.1 56.3-4 4.3-7.1 9.3-9.8 14.5 0.7 0.8 2.2 2.5 2.9 3.4 12.5-8.2 25.9-15.5 40.7-18.5 33.6-6.9 68.2-1.6 101.2 6 28.2 6.8 55.8 15.8 82.9 26.1 22.7 8.2 44.5 18.6 67.8 24.8 44.9 13.2 92.6 16.3 138.8 10 11.5-1.5 22.8-4.5 34.3-6-72.4 72.9-145.1 145.4-217.7 218.1-12.1 12.8-29.3 19.9-46.7 21.3h-7.7c-10.3-1-20.6-3.3-29.7-8.3-14.4-7.3-24.5-20.3-35.9-31.2-226.1-226.5-452.3-452.8-678.4-679.2-8.1-8.1-16.5-15.9-23.7-24.9-8.1-10-12.5-22.4-14.5-35v-20.9c2.9-9.4 5.7-19 11.3-27.2 5.6-8.2 13-14.9 20-22 234.6-234.9 469.2-469.7 703.8-704.7 10.7-11.1 25.2-17.7 40.2-20.6zm-217.2 361.7c-2.8 2.1-6.4 1.1-9.6 1.6l-0.5 1.5q-0.8 3.7-5.1 4.9c-7 5.5-14.8 9.7-22 15-91.9 62.4-160.5 160.4-182.3 270-14.5 70.1-9.7 143.9 12.7 211.8 2.1 2.1 7.3 5 2.9 7.8 38.1 109.5 123.4 200 227.4 249.7 98.5 48 214.2 58.6 320.2 31.8 81.8-20.5 157.8-63.7 216.8-124 69.7-70.7 115.1-166.1 121.5-265.6 7.3-94.5-20.1-190.8-74.6-268.1-61-87.5-154.1-151.4-257-178.6-116.4-31.6-245-16.8-350.4 42.2z"/>
		<path id="Layer" class="s0" d="m628.1 431.8c47-38.6 109.2-55.5 169.5-52.5 50.3 1.7 100.7 17.8 140.9 48.7 48.3 36.6 81.7 90.4 101.1 147.3 0.9-0.2 2.6-0.4 3.4-0.6l-2.9 0.7c34.2 99.6 35.8 210.1 4.3 310.6-13.5 41.5-32.6 81.8-60.5 115.6-32.7 41.1-78.6 72-129.7 84.5-0.5 1.1-1.6 3.2-2.1 4.3-0.3-0.8-0.8-2.3-1.1-3-36.6 7.6-74.5 9.5-111.4 3.5-42-6.7-82.5-24.3-115.1-51.7-35.8-29.6-62.7-68.9-81.4-111.1-20.6-46.7-32.2-97-36.6-147.7-5.9-71.3 2.7-144.1 27.3-211.4 19.7-52.4 50-102.2 94.3-137.2z"/>
	</g>
</svg>