<svg version="1.2" baseProfile="tiny-ps" xmlns="http://www.w3.org/2000/svg" viewBox="0 0 1588 408" width="1588" height="408">
	<title>-1-svg</title>
	<style>
		tspan { white-space:pre }
		.shp0 { fill: #ffffff } 
	</style>
	<g id="Layer">
		<path id="Layer" fill-rule="evenodd" class="shp0" d="M1119.04 203.79L1156.75 225.6C1133.84 256.24 1104.31 272.54 1066.64 272.54C1018.25 272.54 971.69 241.86 971.69 173.89C971.69 111.76 1011.57 76.7 1063.68 76.7C1112.45 76.7 1132.73 105.89 1136.43 111.44C1151.62 132.86 1154.93 165.03 1155.29 183.47L1018.64 183.47C1023.8 212.71 1041.88 229.33 1071.05 229.33C1101.39 229.33 1113.56 211.61 1119.04 203.79ZM1020.1 150.97L1106.55 150.97C1102.52 122.18 1084.74 112.22 1065.18 112.22C1041.55 112.22 1025.3 125.85 1020.1 150.97ZM923.11 82.29L962.67 82.29L962.67 114.07L923.11 114.07L923.11 197.55C923.11 220.5 923.11 230.47 944.17 230.47C950.86 230.47 956.41 230.08 962.67 228.23L962.67 265.56C949.3 267.77 940.47 268.51 930.51 268.51C921.3 268.51 890.24 268.51 881.77 245.95C878.79 238.55 878.79 226.77 878.79 208.27L878.79 114.07L851.82 114.07L851.82 82.29L878.79 82.29L878.79 16.88L923.11 16.88L923.11 82.29ZM1278.01 81.77L1278.01 127.21C1268.37 127.54 1251.76 127.93 1238.13 138.28C1219.28 152.69 1218.85 167.98 1218.85 198.66L1218.85 267.02L1176.02 267.02L1176.02 82.29L1218.85 82.29L1218.85 108.51C1224.4 98.87 1234.3 81.77 1278.01 81.77ZM1300.46 82.22L1344.4 82.22L1344.4 267.02L1300.46 267.02L1300.46 82.22ZM1536.59 267.02L1485.62 267.02L1447.2 208.65L1410.27 267.02L1357.48 267.02L1421.01 167.98L1364.84 82.29L1416.96 82.29L1447.23 128.87L1476.79 82.29L1529.2 82.29L1473.51 167.98L1536.59 267.02ZM1300.46 8.73L1344.4 8.73L1344.4 53.43L1300.46 53.43L1300.46 8.73ZM270.6 227.77L270.6 277.76C246.13 273.19 225.72 261.95 209.95 245.69C189.54 263.45 162.71 273.71 130.42 273.71L130.48 273.67C129.44 273.67 128.41 273.71 127.37 273.71C50.56 273.71 4.03 215.63 4.03 136.59C4.03 63.04 47.97 -0.52 127.76 -0.52C128.54 -0.52 129.28 -0.45 130.03 -0.42L129.96 -0.52C167.41 -0.52 196.97 13.5 217.77 35.93C229.06 48.01 237.6 62.39 243.47 78.07C243.67 78.68 243.86 79.3 244.09 79.95C244.51 80.99 244.87 82.06 245.26 83.23C250.84 99.75 253.72 117.86 253.72 136.59C253.72 163.02 248.5 187.1 238.67 207.45C248.66 221.22 270.53 227.74 270.6 227.77ZM200.51 136.56C200.87 76.31 162.83 46.06 127.01 46.06C83.08 46.06 56.08 89.98 56.08 137.7C56.08 190.48 87.81 227.48 130.32 227.48C181.27 227.48 200.51 176.1 200.51 136.56ZM648.63 139.19L648.63 237.12C648.63 251.11 648.63 255.95 656.74 267.02L604.34 267.02C603.95 262.57 603.23 255.2 603.23 252.64C593.63 260.75 574.03 271.47 548.52 271.47C506.79 271.47 481.68 245.63 481.68 213.85C481.68 204.56 483.92 196.06 487.62 188.66C500.92 162.04 529.38 156.17 547.13 152.82C585.16 145.1 588.08 144.35 604.37 139.19C604.37 129.97 603.62 111.08 572.99 111.08C554.46 111.08 544.56 116.99 540.09 122.96C535.28 128.83 535.67 134.03 535.67 139.19L490.28 136.59C490.99 127.31 491.67 119.62 497.61 108.9C515.33 76.74 559.3 76.74 571.11 76.74C588.79 76.74 610.27 78.91 626.5 88.55C648.34 101.86 648.66 119.23 648.66 139.19L648.63 139.19ZM604.4 195.31L604.4 175.03C595.57 179.44 585.55 182.75 565.59 186.09C549.72 188.33 528.63 192.04 528.63 211.61C528.63 225.99 540.83 233.39 558.62 233.39C581.07 233.39 596.97 223.03 601.77 211.97C604.37 206.42 604.37 200.86 604.37 195.31L604.4 195.31ZM412.98 160.61L412.98 82.29L457.31 82.29L457.31 267.02L412.98 267.02L412.98 248.16C405.26 255.56 387.15 271.43 353.15 271.43C322.87 271.43 308.47 258.51 301.85 250.01C289.29 234.17 289.29 216.77 289.29 189.08L289.29 82.29L333.97 82.29L333.97 188.3C333.97 195.64 333.97 201.97 335.46 206.77C340.23 223.03 353.57 230.05 369.79 230.05C388.29 230.05 399.71 220.08 405.65 210.44C412.27 198.27 412.59 186.45 412.98 160.61ZM827.07 98.87C838.52 114.46 838.52 134.35 838.52 158.37L838.52 267.05L794.58 267.05L794.58 172.79C794.58 159.15 794.58 149.87 793.09 144.71C789.04 128.48 777.22 119.97 762.82 119.97C748.41 119.97 735.07 128.48 728.81 140.68C721.8 154.32 721.8 173.18 721.8 186.84L721.8 267.02L677.09 267.02L677.09 82.29L721.8 82.29L721.8 104.07C724.01 100.76 728.49 94.85 736.21 89.69C747.27 81.54 764.31 76.74 778.72 76.74C799.78 76.74 817.85 86.31 827.07 98.87Z" />
	</g>
	<g id="Layer">
		<path id="Layer" class="shp0" d="M1558.66 77.84L1558.66 84.2L1550 84.2L1550 103.94L1543.31 103.94L1543.31 84.2L1534.81 84.2L1534.81 77.84L1558.66 77.84L1558.66 77.84ZM1566.09 77.84L1574.59 92.12L1582.83 77.84L1588.03 77.84L1588.03 103.94L1581.67 103.94L1581.67 91.15L1576.54 101.57L1572.32 101.57L1567.19 91.67L1567.19 103.97L1560.93 103.97L1560.93 77.87L1566.09 77.87L1566.09 77.84Z" />
	</g>
	<g id="Layer">
		<path id="Layer" fill-rule="evenodd" class="shp0" d="M0.07 334.99L0.07 326.26L58.97 326.26L58.97 334.99L34.66 334.99L34.66 405.85L24.28 405.85L24.28 334.99L0.07 334.99ZM77.62 322.01L77.62 357.68L77.85 357.68C79.51 354.73 82.1 352.13 85.28 350.34C88.36 348.59 92 347.39 95.89 347.39C103.55 347.39 115.85 352.13 115.85 371.83L115.85 405.85L105.47 405.85L105.47 373.03C105.47 363.82 102.06 356.02 92.26 356.02C85.54 356.02 80.22 360.76 78.34 366.41C77.75 367.84 77.62 369.37 77.62 371.38L77.62 405.85L67.24 405.85L67.24 322.01L77.62 322.01ZM139.08 379.17C139.31 393.22 148.3 399 158.68 399C166.11 399 170.59 397.7 174.48 396.05L176.27 403.48C172.6 405.14 166.34 407.15 157.25 407.15C139.67 407.15 129.15 395.46 129.15 378.23C129.15 360.99 139.31 347.39 155.96 347.39C174.61 347.39 179.58 363.82 179.58 374.3C179.58 376.44 179.35 378.07 179.22 379.14L139.08 379.14L139.08 379.17ZM169.55 371.74C169.68 365.11 166.83 354.86 155.14 354.86C144.63 354.86 140.02 364.53 139.21 371.74L169.55 371.74ZM217.58 393.32C222.18 396.15 228.9 398.52 235.97 398.52C246.49 398.52 252.62 392.96 252.62 384.95C252.62 377.51 248.37 373.26 237.63 369.11C224.65 364.5 216.6 357.78 216.6 346.55C216.6 334.15 226.86 324.93 242.33 324.93C250.48 324.93 256.39 326.81 259.92 328.82L257.1 337.2C254.5 335.77 249.18 333.43 241.98 333.43C231.11 333.43 226.99 339.92 226.99 345.35C226.99 352.78 231.82 356.45 242.79 360.7C256.26 365.89 263.1 372.38 263.1 384.07C263.1 396.34 254.02 407.08 235.26 407.08C227.6 407.08 219.2 404.72 214.95 401.89L217.58 393.32ZM316.48 403.74C313.76 405.17 307.75 407.15 300.06 407.15C282.83 407.15 271.6 395.33 271.6 377.87C271.6 360.28 283.64 347.52 302.3 347.52C308.43 347.52 313.88 349.05 316.71 350.47L314.34 358.49C311.87 357.06 307.98 355.77 302.3 355.77C289.19 355.77 282.12 365.44 282.12 377.38C282.12 390.59 290.62 398.74 301.94 398.74C307.85 398.74 311.74 397.22 314.7 395.92L316.48 403.74ZM340.79 332.65C340.91 336.19 338.32 339.02 334.17 339.02C330.5 339.02 327.9 336.19 327.9 332.65C327.9 328.99 330.63 326.16 334.39 326.16C338.32 326.16 340.79 328.99 340.79 332.65ZM329.23 405.85L329.23 348.69L339.62 348.69L339.62 405.85L329.23 405.85ZM363.21 379.17C363.43 393.22 372.42 399 382.81 399C390.24 399 394.72 397.7 398.61 396.05L400.39 403.48C396.73 405.14 390.46 407.15 381.38 407.15C363.79 407.15 353.28 395.46 353.28 378.23C353.28 360.99 363.43 347.39 380.08 347.39C398.74 347.39 403.7 363.82 403.7 374.3C403.7 376.44 403.48 378.07 403.35 379.14L363.21 379.14L363.21 379.17ZM393.68 371.74C393.81 365.11 390.95 354.86 379.27 354.86C368.76 354.86 364.15 364.53 363.34 371.74L393.68 371.74ZM416.65 348.69L425.87 348.69L426.45 358.13L426.68 358.13C429.5 352.71 436.12 347.39 445.56 347.39C453.48 347.39 465.75 352.13 465.75 371.7L465.75 405.82L455.36 405.82L455.36 372.87C455.36 363.65 451.96 355.99 442.16 355.99C435.31 355.99 429.99 360.83 428.24 366.61C427.75 367.91 427.52 369.69 427.52 371.44L427.52 405.82L417.14 405.82L417.14 364.17C417.14 358.26 417.01 353.43 416.65 348.69ZM523.96 403.74C521.23 405.17 515.23 407.15 507.54 407.15C490.31 407.15 479.08 395.33 479.08 377.87C479.08 360.28 491.12 347.52 509.78 347.52C515.91 347.52 521.33 349.05 524.19 350.47L521.82 358.49C519.35 357.06 515.46 355.77 509.78 355.77C496.67 355.77 489.6 365.44 489.6 377.38C489.6 390.59 498.1 398.74 509.42 398.74C515.33 398.74 519.22 397.22 522.17 395.92L523.96 403.74ZM541.77 379.17C542 393.22 550.99 399 561.37 399C568.8 399 573.28 397.7 577.18 396.05L578.96 403.48C575.29 405.14 569.03 407.15 559.95 407.15C542.36 407.15 531.84 395.46 531.84 378.23C531.84 360.99 542 347.39 558.65 347.39C577.31 347.39 582.27 363.82 582.27 374.3C582.27 376.44 582.04 378.07 581.91 379.14L541.77 379.14L541.77 379.17ZM572.24 371.74C572.37 365.11 569.52 354.86 557.84 354.86C547.32 354.86 542.72 364.53 541.9 371.74L572.24 371.74ZM673.03 376.8C673.03 397.93 658.4 407.15 644.57 407.15C629.09 407.15 617.19 395.82 617.19 377.74C617.19 358.62 629.71 347.39 645.51 347.39C661.93 347.39 673.03 359.34 673.03 376.8ZM627.7 377.38C627.7 389.91 634.9 399.36 645.06 399.36C654.99 399.36 662.42 390.04 662.42 377.16C662.42 367.48 657.58 355.18 645.32 355.18C633.02 355.18 627.7 366.54 627.7 377.38ZM687.76 356.61L679.75 356.61L679.75 348.69L687.76 348.69L687.76 345.96C687.76 337.94 689.55 330.61 694.38 326C698.28 322.23 703.47 320.68 708.3 320.68C711.97 320.68 715.15 321.49 717.16 322.33L715.73 330.35C714.21 329.63 712.07 329.05 709.11 329.05C700.25 329.05 698.02 336.84 698.02 345.57L698.02 348.66L711.84 348.66L711.84 356.58L698.02 356.58L698.02 405.82L687.76 405.82L687.76 356.61ZM747.73 327.2C752.69 326.39 759.18 325.67 767.42 325.67C777.58 325.67 785.01 328.04 789.75 332.3C794.13 336.06 796.73 341.87 796.73 348.95C796.73 356.15 794.62 361.8 790.59 365.96C785.17 371.74 776.32 374.69 766.29 374.69C763.21 374.69 760.38 374.56 758.01 373.98L758.01 405.85L747.76 405.85L747.76 327.2L747.73 327.2ZM757.98 365.6C760.22 366.18 763.04 366.41 766.48 366.41C778.88 366.41 786.44 360.41 786.44 349.4C786.44 338.89 779.01 333.82 767.68 333.82C763.21 333.82 759.77 334.18 758.01 334.63L758.01 365.6L757.98 365.6ZM808.37 348.72L817.46 348.72L817.82 359.95L818.3 359.95C820.9 352.26 827.16 347.42 834.11 347.42C835.28 347.42 836.12 347.55 837.06 347.78L837.06 357.58C835.99 357.36 834.95 357.23 833.52 357.23C826.22 357.23 821 362.78 819.6 370.57C819.38 372 819.12 373.65 819.12 375.4L819.12 405.85L808.86 405.85L808.86 366.54C808.86 359.82 808.73 354.01 808.37 348.72ZM852.64 379.17C852.86 393.22 861.85 399 872.23 399C879.67 399 884.14 397.7 888.07 396.05L889.82 403.48C886.16 405.14 879.89 407.15 870.81 407.15C853.22 407.15 842.71 395.46 842.71 378.23C842.71 360.99 852.86 347.39 869.51 347.39C888.17 347.39 893.13 363.82 893.13 374.3C893.13 376.44 892.9 378.07 892.77 379.14L852.64 379.14L852.64 379.17ZM883.1 371.74C883.23 365.11 880.38 354.86 868.7 354.86C858.18 354.86 853.58 364.53 852.77 371.74L883.1 371.74ZM947.29 403.74C944.56 405.17 938.56 407.15 930.87 407.15C913.64 407.15 902.41 395.33 902.41 377.87C902.41 360.28 914.45 347.52 933.11 347.52C939.24 347.52 944.66 349.05 947.52 350.47L945.15 358.49C942.68 357.06 938.79 355.77 933.11 355.77C920 355.77 912.93 365.44 912.93 377.38C912.93 390.59 921.43 398.74 932.75 398.74C938.66 398.74 942.55 397.22 945.5 395.92L947.29 403.74ZM971.59 332.65C971.72 336.19 969.13 339.02 964.97 339.02C961.31 339.02 958.71 336.19 958.71 332.65C958.71 328.99 961.44 326.16 965.2 326.16C969.13 326.16 971.59 328.99 971.59 332.65ZM960.04 405.85L960.04 348.69L970.43 348.69L970.43 405.85L960.04 405.85ZM986.81 395.24C989.89 397.25 995.31 399.36 1000.51 399.36C1008.07 399.36 1011.6 395.59 1011.6 390.85C1011.6 385.89 1008.65 383.19 1000.99 380.34C990.74 376.67 985.87 371.02 985.87 364.17C985.87 354.95 993.3 347.39 1005.6 347.39C1011.38 347.39 1016.47 349.05 1019.65 350.93L1017.05 358.49C1014.82 357.06 1010.69 355.18 1005.37 355.18C999.24 355.18 995.8 358.72 995.8 362.97C995.8 367.71 999.24 369.82 1006.67 372.64C1016.6 376.41 1021.66 381.38 1021.66 389.88C1021.66 399.91 1013.87 407.12 1000.31 407.12C994.05 407.12 988.27 405.46 984.25 403.09L986.81 395.24ZM1047.13 332.65C1047.26 336.19 1044.67 339.02 1040.51 339.02C1036.85 339.02 1034.25 336.19 1034.25 332.65C1034.25 328.99 1036.98 326.16 1040.74 326.16C1044.67 326.16 1047.13 328.99 1047.13 332.65ZM1035.55 405.85L1035.55 348.69L1045.93 348.69L1045.93 405.85L1035.55 405.85ZM1115.47 376.8C1115.47 397.93 1100.84 407.15 1087.01 407.15C1071.57 407.15 1059.63 395.82 1059.63 377.74C1059.63 358.62 1072.15 347.39 1087.96 347.39C1104.37 347.39 1115.47 359.34 1115.47 376.8ZM1070.14 377.38C1070.14 389.91 1077.34 399.36 1087.5 399.36C1097.4 399.36 1104.86 390.04 1104.86 377.16C1104.86 367.48 1100.03 355.18 1087.76 355.18C1075.49 355.18 1070.14 366.54 1070.14 377.38ZM1129.17 364.17C1129.17 358.26 1129.04 353.43 1128.68 348.69L1137.89 348.69L1138.48 358.13L1138.71 358.13C1141.53 352.71 1148.15 347.39 1157.59 347.39C1165.51 347.39 1177.77 352.13 1177.77 371.7L1177.77 405.82L1167.39 405.82L1167.39 372.87C1167.39 363.65 1163.98 355.99 1154.18 355.99C1147.34 355.99 1142.02 360.83 1140.26 366.61C1139.78 367.91 1139.55 369.69 1139.55 371.44L1139.55 405.82L1129.17 405.82L1129.17 364.17ZM1231.48 326.26L1231.48 359.56L1269.96 359.56L1269.96 326.26L1280.35 326.26L1280.35 405.85L1269.96 405.85L1269.96 368.52L1231.48 368.52L1231.48 405.85L1221.19 405.85L1221.19 326.26L1231.48 326.26ZM1304.16 379.17C1304.39 393.22 1313.38 399 1323.76 399C1331.19 399 1335.67 397.7 1339.56 396.05L1341.35 403.48C1337.68 405.14 1331.42 407.15 1322.33 407.15C1304.75 407.15 1294.23 395.46 1294.23 378.23C1294.23 360.99 1304.39 347.39 1321.04 347.39C1339.69 347.39 1344.66 363.82 1344.66 374.3C1344.66 376.44 1344.43 378.07 1344.3 379.14L1304.16 379.14L1304.16 379.17ZM1334.63 371.74C1334.76 365.11 1331.91 354.86 1320.23 354.86C1309.71 354.86 1305.1 364.53 1304.29 371.74L1334.63 371.74ZM1398.23 392.15C1398.23 397.12 1398.46 401.96 1399.17 405.85L1389.73 405.85L1388.92 398.65L1388.56 398.65C1385.38 403.12 1379.25 407.15 1371.11 407.15C1359.52 407.15 1353.65 399 1353.65 390.72C1353.65 376.9 1365.91 369.37 1388.01 369.46L1388.01 368.29C1388.01 363.56 1386.71 355.08 1375.03 355.08C1369.71 355.08 1364.16 356.74 1360.17 359.34L1357.8 352.49C1362.54 349.4 1369.35 347.42 1376.56 347.42C1394.01 347.42 1398.26 359.34 1398.26 370.79L1398.26 392.15L1398.23 392.15ZM1388.21 376.67C1376.88 376.44 1364 378.45 1364 389.56C1364 396.28 1368.48 399.46 1373.8 399.46C1381.23 399.46 1385.97 394.72 1387.62 389.88C1387.98 388.81 1388.21 387.64 1388.21 386.57L1388.21 376.67ZM1415.59 322.01L1425.98 322.01L1425.98 405.85L1415.59 405.85L1415.59 322.01ZM1456.54 334.99L1456.54 348.69L1471.4 348.69L1471.4 356.61L1456.54 356.61L1456.54 387.41C1456.54 394.49 1458.56 398.52 1464.33 398.52C1467.15 398.52 1468.81 398.29 1470.37 397.8L1470.85 405.59C1468.84 406.4 1465.66 407.12 1461.64 407.12C1456.8 407.12 1452.91 405.46 1450.41 402.64C1447.46 399.55 1446.39 394.49 1446.39 387.77L1446.39 356.61L1437.53 356.61L1437.53 348.69L1446.39 348.69L1446.39 338.17L1456.54 334.99ZM1494.05 322.01L1494.05 357.68L1494.28 357.68C1495.94 354.73 1498.53 352.13 1501.71 350.34C1504.79 348.59 1508.43 347.39 1512.32 347.39C1519.98 347.39 1532.28 352.13 1532.28 371.83L1532.28 405.85L1521.9 405.85L1521.9 373.03C1521.9 363.82 1518.49 356.02 1508.69 356.02C1501.97 356.02 1496.65 360.76 1494.77 366.41C1494.18 367.84 1494.05 369.37 1494.05 371.38L1494.05 405.85L1483.67 405.85L1483.67 322.01L1494.05 322.01Z" />
	</g>
</svg>