<svg version="1.2" xmlns="http://www.w3.org/2000/svg" viewBox="0 0 1507 1504" width="1507" height="1504">
	<title>bug-white-svg</title>
	<style>
		.s0 { fill: #ffffff } 
	</style>
	<path id="Layer" fill-rule="evenodd" class="s0" d="m1506.7 1097.7c-0.3 217-191.1 401.8-413.8 401.5-140 0-266.3-69.2-338.8-177.1-13.4 22.9-30 44.6-50.2 64.2l75.5 110.3h-160l-24.3-36.3c-53.8 33.9-137.1 42.8-195 42.8-223.5-0.3-400.4-184.6-400.1-408.1 0.3-143 74.6-266.6 186.1-338.2-81.5-45.8-137.9-123.4-170.3-236.3h141.1c42.8 93.9 130.8 164.3 248.8 164.6 152.5 0 276.8-122.7 277.1-274 0.3-151.3-133.2-270.2-275.9-267.8-128.1 2-228.9 90.9-257.4 209.2h387.6l-84.4 124.9h-444.4c-3.5-21.1-7.1-47-6.5-69 4.7-205.4 182.5-401.6 403.9-403.9 142.7-1.2 271.1 63.9 342.7 172.4 14.3-22.3 31.6-42.3 51.8-58.3l-78.2-111.2h162.3l24.7 34.2c57.3-32.7 124.5-41.6 182.2-41.6 223.8 0.3 410.4 185.5 409.9 411.4-0.3 143.2-62.5 270.8-176 343.6 84.1 51.1 146.8 136.4 171.8 242.2h-148.9c-39.9-102.2-137-173.3-255.6-173.3-154.6-0.3-270.2 121-270.5 270.8-0.3 149.8 117.7 264.8 270.5 268.7 128.7 3.3 237.1-90.9 265.4-207.8h-391.5l81.2-122.4h454.7c3.3 21.1 4.2 42.8 4.5 64.5zm-688.7-689.3c0 151.3 123.7 279.7 273.2 280 149.8 0.3 269.6-128.7 269.9-280 0.3-151.3-156.1-327.6-368-244.3l219 313.3h-158.1l-170-237.8c-40.4 47.5-65.7 101-66 168.8zm-134.9 689.6c0.3-149.8-128.7-271.7-278.3-268.7-146.8 2.7-265.1 118.9-265.1 268.4-0.3 149.5 116.8 265.7 264.2 268.1 30.4 0.6 81.5-8.9 105-21.7l-223.6-310.9h160.6l170.6 234.2c36.2-31.5 66.6-102.5 66.6-169.4z"/>
</svg>