<svg version="1.2" xmlns="http://www.w3.org/2000/svg" viewBox="0 0 1541 1336" width="1541" height="1336">
	<title>QuickLogic-Logo-w-reg-mark-svg</title>
	<style>
		.s0 { fill: #ffffff } 
	</style>
	<g id="Layer">
		<g id="Layer">
			<path id="Layer" fill-rule="evenodd" class="s0" d="m1540.4 1335.7h-360.1l-161.6-158.8h-456.5c-374.3 0-561.5-107.7-561.5-326v-530.1c0-138.9 65.3-229.6 195.7-277.8q114.8-42.5 365.8-42.5h357.2c158.8 0 275.1 14.2 351.6 45.4 119.1 48.2 178.7 138.9 178.7 274.9v533c0 113.4-51.1 198.4-150.3 252.3zm-348.8-479.1v-535.8c0-68-102-99.2-303.4-99.2h-371.4c-170.1 0-252.4 34-252.4 99.2v533c0 65.2 79.4 99.2 241 96.3h380c201.3 0 303.4-31.1 303.4-93.5z"/>
		</g>
	</g>
</svg>