<svg version="1.2" xmlns="http://www.w3.org/2000/svg" viewBox="0 0 1595 438" width="1595" height="438">
	<title>Ryder_System_(logo)-svg</title>
	<style>
		.s0 { fill: #000000 } 
		.s1 { fill: #eb1c31 } 
	</style>
	<g id="g32">
		<path id="path30" fill-rule="evenodd" class="s0" d="m423.1 18.5l-30.5 6.1-29.1 7.1-27.6 8.2-25.8 8.7-24.2 9.5-22.5 10.3-20.7 11.1-9.5 5.8-8.9 5.8 175.1 40.1-2.8 12.7-396.6-92.5h249.7l19.3-7.2 20.3-7 20.9-6.3 21.9-5.9 22.4-5.3 23.2-4.7 23.8-4 24.4-3.5zm320.9 394.6l25.7-48-36.4 4.3-37.7 3.5-39.1 2.2-40.1 0.8-23.5-0.3-23.5-0.8-45.5-2.8-44-4.6-42.2-6.3-40.2-7.7-37.9-9.4-35.3-10.7-16.6-5.9-15.9-6.1-15.3-6.6-14.6-6.7-13.5-7.1-12.9-7.4-11.9-7.6-11.3-7.9-9.9-8.1-9.3-8.2-8.2-8.4-7.2-8.9-6.3-8.9-5.1-9.1-4-9.1-3-9.5-1.6-9.7-0.6-9.6 0.4-9.5 1.8-9.5 2.8-9.4 4.1-9.4 5-9.1 6.3-9.1 7.3-8.8 8.3-8.6-39-8.3-7.5 6.2-7.1 6.3-6.5 6.3-6.3 6.5-5.8 6.7-5.2 6.8-9.3 14-7.2 14.3-2.9 7.4-2.3 7.2-2 7.6-1.5 7.5-0.9 15.4 0.5 11.1 1.9 11.2 2.8 10.9 3.9 10.8 5.1 10.5 5.9 10.5 7.2 10.2 8 9.8 9 9.6 10 9.5 10.9 9.1 11.6 8.9 12.6 8.5 13.4 8.3 14.2 7.9 15 7.7 15.5 7.2 16.5 6.7 17 6.5 17.7 6 18.3 5.7 18.9 5.3 39.5 9.1 41.5 7.3 43.1 5.3 22.5 1.9 22.5 1.5 23 0.8 23.2 0.4 26.8-0.4 26.6-1.4 26.5-2.1 25.7-2.7 25.5-3.5 24.7-4.1 24-4.7z"/>
	</g>
	<g id="g36">
		<path id="path10" fill-rule="evenodd" class="s1" d="m475 0h153l19.5 0.9 8.7 1.1 8.2 1.5 7.3 2.1 6.7 2.6 5.9 3 5.4 3.7 4.5 4.2 3.5 4.9 3 5.4 2 6.2 1.2 6.8 0.4 7.4-0.7 8.3-1.6 9-2.8 10.9-1 2.4h-0.9l0.3 1.5-2.6 6.3-5.2 9.5-6.9 8.4-8.5 7.7-10.2 6.3-12.1 5.4-14.4 4.2v1.1l8.7 1.2 7.5 1.8 6.2 3 5.1 3.7 4 4.7 2.8 5.5 1.9 6.6 0.8 7.2-0.2 9.1-0.6 10.3-2.4 23.8-1.9 27.1v14.4l0.9 14.6h-100.7l-0.5-17.1 0.8-19.7 2.4-38.6v-4.6l-0.7-3.9-1.3-3.4-2-2.4-2.9-1.8-3.5-1.3-4.7-0.7-5.4-0.3h-12.5l-19.9 93.8h-100zm85.4 110.3l7.5-0.4 6.9-1 6.1-2.1 5.5-2.7 4.7-3.6 4.1-4.7 2.9-5.8 2-6.7 0.9-6.6-0.7-5.2-2.1-3.9-3.2-3-4.3-2.1-5.5-1.3-6.4-0.7-7.1-0.1h-8.8l-10.6 49.9zm170.8 158.9l-33.7-187.3 0.6-1.5h91.2l4.2 100.7h0.8l44.7-100.7h86.8l-138.6 253.9h-94.4zm287.5-26.3l-7.4 7.2-7.6 5.8-7.8 4.6-7.8 3.4-8 2.7-7.7 1.4-7.8 1-7.6 0.2-7.9-0.2-7.5-1.2-7-2.2-6.4-2.7-5.9-3.6-5.4-4.3-4.5-5.2-4-5.9-3.3-6.5-2.8-7.4-1.7-8-1.2-9-0.4-9.6 0.5-10.5 1.4-10.9 2.2-11.9 3-12.6 3.6-11.5 4-10.5 4.6-9.6 5-8.8 5.5-7.8 5.8-6.8 6.2-6.1 6.1-5.3 6.8-4.6 6.9-3.6 6.9-3.1 7.1-2.2 7.3-1.5 7.1-0.9 7.3-0.3 7.4 0.3 7.3 0.9 6.7 1.5 6.7 2.2 6.1 3 5.6 4 4.9 4.8 4.6 5.8 19.9-97.3h87.7l-55.8 263.8h-81.7zm15.7-98.9l-0.1-3.9-0.8-3.3-1.2-3-1.5-2.4-2.3-1.9-2.5-1.4-3.1-0.9-3.4-0.4-6.3 0.8-5.3 2.2-2.3 1.7-2.1 1.9-3.6 5.2-3.3 6.6-2.5 7.7-4.4 19.6-3.4 17.3-0.5 7.7 0.4 6.6 1.3 5.6 1.4 2.3 1.4 1.8 2.2 1.6 2.3 1.2 2.9 0.7 3.2 0.2 6.5-0.9 4.6-2.1 3.8-3.1 2.9-3.7 3.1-5.2 2.7-7.4 2.7-10 2.5-12.6 3.6-17.5 0.8-5.5zm293.1 61.3l-3.1 7.5-3.4 7.1-4.2 6.7-4.5 6.2-5.3 5.7-5.7 5.3-6.3 4.7-7 4.3-7.6 3.9-8.2 3.3-8.8 2.7-9.4 2.4-10.2 1.7-10.8 1.5-11.5 0.7-12.3 0.2-9.8-0.2-9.7-1-9.1-1.4-8.7-2.2-8.1-2.9-7.4-3.8-6.8-4.3-6.2-5.3-5.2-6.2-4.4-7.1-3.5-7.9-2.4-8.9-1.3-10.1-0.3-10.9 1.1-12.2 2.4-13.3 2.8-11.6 3.6-10.9 4.4-10.1 5.2-9.4 5.9-8.7 6.7-7.9 7.2-7.2 7.8-6.3 8.7-5.8 9-4.9 9.6-4.2 10.2-3.4 10.7-2.7 11.1-2 11.5-1.2 12.1-0.3 12.2 0.3 11.2 1.4 10.3 2.1 9.4 2.8 8.3 3.6 7.2 4.4 6.5 5.3 5.5 6.1 4.5 6.7 3.4 7.6 2.8 8.3 1.4 9 0.7 9.7-0.1 10.5-1.2 11.2-2.3 11.9-2.8 12.7h-124.1l-1.4 5.5-0.9 7.4-0.3 6.3 0.7 5.1 1.7 4.2 2.6 3.3 3.7 2.4 4.7 1.2 6 0.5 3.8-0.4 3.5-0.8 7.1-3.8 3.2-2.5 3-3.2 2.6-4 2.3-4.4zm-63.9-55.8l0.5-2.5 0.8-6.1-0.1-5.4-1.1-4.6-1.8-3.8-2.7-3.2-3.5-2-4.3-1.2-4.9-0.6-5.1 0.6-4.9 1.2-4.1 2-4.1 3.2-3.4 3.8-2.8 4.6-2.4 5.4-1.9 6.1-1.1 2.5zm188.2-71.5l-8.9 42.1h0.5l6.2-9.7 6.8-8.9 7.5-7.9 7.9-6.8 8.7-5.6 9.1-4 9.7-2.7 4.9-0.7 5.3-0.1 7.3 0.3 6.6 0.9-15.4 74.6-8.4-1.7-10.9-0.8-4.8 0.2-4.6 0.9-9.1 2.7-8.7 4.5-7.9 5.8-7.3 7.2-5.9 8.3-4.8 9.4-3 9.9-14.3 68h-88.4l38.4-185.9zm88.9 25l0.6-5.6 1.5-5.4 2.4-4.5 3.2-4.2 4.1-3.6 4.6-2.5 5.1-1.8 5.5-0.5 5.5 0.5 5 1.8 4.7 2.5 4.2 3.6 3.2 4.2 2.5 4.5 1.6 5.4 0.6 5.6-0.6 5.6-1.6 5.4-2.5 4.7-3.2 4-4.2 3.5-4.7 2.4-5 1.7-5.5 0.6-5.5-0.6-5.1-1.7-4.6-2.4-4.1-3.5-3.2-4-2.4-4.7-1.5-5.4zm50.9 0l-0.6-4.8-1.3-4.7-2.2-4.1-3-3.6-3.7-3.1-3.8-2.3-4.6-1.6-4.8-0.4-4.8 0.4-4.6 1.6-4.3 2.3-3.6 3.1-2.9 3.6-2.4 4.1-1.4 4.7-0.5 4.8 0.5 5 1.4 4.4 2.4 4.2 2.9 3.4 3.6 3 4.3 2 4.6 1.3 4.8 0.6 4.8-0.6 4.6-1.3 3.8-2 3.7-3 3-3.4 2.2-4.2 1.3-4.4zm-10 15.7h-5.4l-8.1-14.8h-6.9v14.8h-4.1v-31h14l3.4 0.3 3.2 1.2 1.9 0.9 1.2 1.8 0.8 3.6-0.7 4.1-2.1 2.6-3.1 1.5-4 0.2zm-11.1-17.6l3.3-0.3 3-1.6 0.6-1.5 0.3-2.1-0.7-3.1-1.7-1.6-2.6-0.7h-11.5v10.9z"/>
	</g>
</svg>