<svg version="1.2" baseProfile="tiny-ps" xmlns="http://www.w3.org/2000/svg" viewBox="0 0 1576 1285" width="1576" height="1285">
	<title>Rational_AG_201x_logo-svg</title>
	<style>
		tspan { white-space:pre }
		.shp0 { fill: #e30613 } 
		.shp1 { fill: #0e3d75 } 
	</style>
	<path id="path3081" class="shp0" d="M1431.2 642.02C1431.2 288.5 1143.49 0.82 789.46 0.82C641.19 0.82 505.11 52.96 395.88 138.21L611.86 437.04C659.8 395.47 721.16 369.22 789.46 369.22C940.13 369.22 1062.64 491.58 1062.64 642.02L918.46 642.02L1246.81 1093.77L1575.31 642.02L1431.2 642.02L1431.2 642.02Z" />
	<path id="path3085" class="shp1" d="M144.94 643.63C144.94 997.22 432.64 1284.9 786.6 1284.9C934.87 1284.9 1070.81 1232.69 1180.19 1147.44L964.2 848.61C916.27 890.1 854.83 916.43 786.6 916.43C636 916.43 513.49 794.06 513.49 643.63L657.67 643.63L329.25 191.88L0.83 643.63L144.94 643.63L144.94 643.63Z" />
</svg>