<svg version="1.2" xmlns="http://www.w3.org/2000/svg" viewBox="0 0 1552 1562" width="1552" height="1562">
	<title>logo (10)-svg</title>
	<defs>
		<clipPath clipPathUnits="userSpaceOnUse" id="cp1">
			<path d="m-5079.75 0.6h6631.75v1560.47h-6631.75z"/>
		</clipPath>
	</defs>
	<style>
		.s0 { fill: #043865 } 
	</style>
	<g id="Clip-Path" clip-path="url(#cp1)">
		<g id="Layer">
			<path id="Layer" fill-rule="evenodd" class="s0" d="m1013 392.5l-96.4 82.1c-75.7-33.9-157.6-51.3-240.5-51.2-89.5 0.8-177.6 21.7-258 61-80.4 39.3-151 96.1-206.7 166.2-55.6 70-95 151.7-115.1 239-20.2 87.2-20.6 177.9-1.3 265.3-62.7-113.1-95.2-240.5-94.4-369.8 0-367.8 222.1-665.8 560.2-665.8 92.5 2.6 182.7 29.2 261.9 77.1 79.3 47.9 144.8 115.4 190.3 196.1zm539 330c0 221-126.7 389.6-327.6 481.2l-170.5-247.2c61.3-94.2 94-204.2 94-316.6-3.3-162-70.7-316.1-187.3-428.3-116.7-112.3-273.2-173.6-435-170.4h-4.9c80.1-24.8 163.2-38.4 247-40.7 433.2 0.1 784.3 357.7 784.3 722zm-69.1 382.6c-96.7 236.9-374.8 456-720.3 456-367.6 0-610.8-248.2-610.8-554 0.1-73.4 17.3-145.7 50.2-211.3l253.8 56.5c36.2 267.2 309.3 467.1 580.7 467.1 85-4 168.3-25.1 244.9-61.9 76.7-36.9 145.2-88.7 201.5-152.4z"/>
		</g>
	</g>
</svg>