<svg version="1.2" xmlns="http://www.w3.org/2000/svg" viewBox="0 0 1509 755" width="1509" height="755">
	<title>Corporate Presentation (RT-102) - Aug 2022-1 (1)-pdf-svg</title>
	<defs>
		<clipPath clipPathUnits="userSpaceOnUse" id="cp1">
			<path d="m-6749.5-4257.7h9257.58v5208.61h-9257.58z"/>
		</clipPath>
		<clipPath clipPathUnits="userSpaceOnUse" id="cp2">
			<path d="m1584.69-85.07v936.01h-1711.16v-936.01"/>
		</clipPath>
	</defs>
	<style>
		.s0 { fill: #ffffff } 
	</style>
	<g id="Clip-Path: Page 1" clip-path="url(#cp1)">
		<g id="Page 1">
			<g id="Clip-Path: Mask" clip-path="url(#cp2)">
				<g id="Mask">
					<path id="Path 9" fill-rule="evenodd" class="s0" d="m1.3 597.4v-573.9h196.7c30.4 0 58.9 2.9 84.4 8.7q39.8 8.7 68 28.9c19.3 13 34.2 30.4 45.3 51.6 11.1 21.7 16.4 49.2 16.4 81 0 43.9-10.6 79.1-31.3 106.1-21.2 27-49.2 46.3-84.9 58.4l139.4 239.2h-115.8l-125.8-224.3h-88.7v224.3zm103.6-305.3h82.5c40 0 70.4-8.2 91.6-24.6 20.7-16.4 31.8-41 31.8-73.8 0-33.2-11.1-56.4-31.8-69.4-21.2-13-51.6-19.3-91.6-19.3h-82.5zm475.5 315.9c-39.1 0-70-11.6-94.1-34.3-23.1-23.6-35.2-54-35.2-92.1q0-34 14.5-60.7c10.1-18.4 25.5-33.3 46.3-46.3 21.2-13.1 48.2-23.7 80.5-32.8 32.3-8.7 70.9-15 116.2-19.3-1-11.6-2.4-22.2-4.8-32.3-2.9-10.6-7.2-19.3-13.5-27.5-6.3-7.7-14.5-14-24.6-18.4-10.1-4.8-22.7-6.7-37.1-6.7-21.2 0-42.5 4.3-62.7 12.5-20.7 8.2-41 18.4-60.3 29.5l-37.6-67.6c24.1-14.9 51.6-27.9 82.5-39.5 29.9-10.6 62.6-16.4 97.8-16.4 54.5 0 95.5 15.9 122.5 47.7 26.5 32.4 40 78.2 40 138v255.6h-84.4l-7.2-47.3h-3.4c-19.7 16.4-40.5 30.4-63.1 41-22.2 11.6-46.3 16.9-72.3 16.9zm33.2-79.1c17.4 0 33.8-3.9 48.2-12.1 14.5-8.2 29.9-20.2 46.8-35.2v-96.4q-44.8 5.3-74.7 14c-20.3 5.7-36.7 12.5-49.2 19.7-12.5 7.3-21.7 15.5-26.5 25.1-5.3 9.2-7.7 19.3-7.7 29.9 0 19.3 5.3 33.3 17.3 42 12.1 9.1 27 13 45.8 13zm271 68.5v-431.2h84.4l7.2 58.4h3.9q29.4-28 63.6-48.3 34.2-20.2 79.6-20.2c47.2 0 81.5 14.9 102.7 43.9q31.8 44.8 31.8 127.3v270.1h-102.2v-257.1c0-35.7-5.3-60.7-16.4-75.2-10.1-14.5-28-22.2-52.1-22.2-19.3 0-36.2 4.3-50.6 14-14.5 8.7-30.9 22.2-49.7 39.5v301zm548.7-415.7v415.7h-102.2v-415.3c14.9-5.3 32.8-7.7 51.1-7.7 18.8 0 35.7 2.4 51.1 7.3zm74.8-117.7c0 6.2-5.3 11.6-11.6 11.6-1.9 0-4.4-1-5.8-2-20.3 29.4-42 68-46.8 86.8-17.8-11.5-43.4-14.4-62.2-14.4-14.4 0-43.4 3.3-61.7 14.9-4.3-18.3-26.5-57.4-46.8-87.3-1.9 1-3.3 2-5.3 2-6.7 0-11.5-5.4-11.5-11.6 0-6.8 4.8-11.1 11.5-11.1 5.8 0 11.1 4.3 11.1 11.1 0 2.4-0.9 3.8-1.9 5.3 14.9 10.1 37.1 20.2 56.9 12 23.6-10.1 35.7-36.6 41.9-55.4-3.8-2.9-7.7-6.8-7.7-12.6 0-7.2 6.3-13 13.5-13 7.3 0 13.5 5.8 13.5 13 0 5.8-2.9 9.7-7.7 12.6 6.3 18.8 18.8 45.3 42.4 55.4 19.3 8.2 42-1.9 56.5-12-1-1.5-1.5-2.9-1.5-5.3 0-6.8 5.3-11.1 11.6-11.1 6.3 0 11.6 4.3 11.6 11.1z"/>
					<path id="Path 10" fill-rule="evenodd" class="s0" d="m26.9 679.9h-26.6v-13.1h68.5v13.1h-26v72.8h-15.9zm101.7-13h15.9v36.1h42.4v-36.1h15.5v85.8h-15.5v-37.1h-42.4v37.1h-15.9zm138.4 0h58.8v13h-43.4v23.2h32.3v13h-32.3v24.1h43.4v12.6h-58.8zm120 0h36.2c9.6 0 16.9 2.4 22.2 7.2q7.7 6.8 7.7 20.3c0 6.2-1.5 11-4.3 15.9-3.4 4.3-7.3 7.2-13.5 9.1l17.3 32.8h-15.9l-16.9-30.8h-16.9v30.8h-15.9zm33.8 41.5c4.8 0 9.1-1 12-3.4 3.4-1.9 4.9-5.8 4.9-10.6 0-9.6-5.8-14.5-16.9-14.5h-17.9v28.5zm122-41.5h15.5l34.7 85.9h-15.9l-8.7-19.8h-36.7l-7.7 19.8h-15.9zm21.7 53.5l-14-37.1-13.9 37.1zm90.6-53.5h34.7c9.7 0 16.9 2.4 22.7 7.7 6.2 4.8 9.1 11.6 9.1 20.2 0 8.7-2.9 16.4-8.6 20.8-5.3 4.8-13.5 6.7-23.2 6.7h-19.3v30.4h-15.4zm32.8 42.5c11.6 0 17.8-4.9 17.8-14.5 0-10.1-6.2-15-17.8-15h-17.4v29.5zm93.6-42.5h58.8v13h-42.9v23.2h32.3v13h-32.3v24.1h42.9v12.1h-58.8zm128.7 78.6c-5.8-6.8-9.2-15-9.2-26v-52.6h15.5v53c0 6.8 2.4 12.1 5.8 15q6.5 5.8 15.9 5.8c6.2 0 11.5-2 15.4-5.8 3.9-2.9 6.3-8.2 6.3-15v-53h15.4v52.6c0 11-2.9 19.2-9.2 26q-9.6 9.2-27.9 9.2c-12.1 0-21.7-2.9-28-9.2zm150.4-65.6h-26v-13h68v13h-26v72.8h-16zm101.8-13h16.4v85.9h-16.4zm100.8 81.9c-7.3-3.3-12.6-8.6-16.9-15.4-3.4-6.7-5.3-14.5-5.3-23.6 0-8.7 1.9-16.9 5.3-23.7 4.3-6.7 9.6-12 16.9-15.9 7.2-3.3 14.9-4.8 24.1-4.8 12 0 22.1 2.4 30.3 8.2v15c-7.2-6.3-16.8-9.2-29.4-9.2-5.8 0-11.5 1-16.4 3.4-4.8 2.9-8.2 6.2-11.5 11.1-2.5 4.8-3.4 9.6-3.4 15.9 0 6.2 0.9 11.5 3.8 16.4q4.4 6.7 11.1 10.6c5.3 2.4 10.6 3.8 16.4 3.8 6.3 0 12.1-0.9 16.9-2.9 4.8-1.4 9.2-3.3 13.5-7.2v15.4c-7.7 5.4-18.3 8.7-31.3 8.7-9.2 0-16.9-1.9-24.1-5.8zm127.2 4.4c-4.8-1-9.1-2.4-12-3.9v-13.5c3.8 1.9 8.7 3.9 12.5 4.8 4.8 1 9.7 1.5 13.5 1.5q8.7 0 13-2.9c2.9-2.4 4.4-5.3 4.4-9.2 0-2.4-0.5-4.3-1.9-6.2-1.5-1.5-3.4-2.9-5.8-3.9-2.9-1.4-6.3-3.4-12.1-5.3-7.7-3.4-14-6.8-17.8-11.1-3.4-3.9-4.8-8.7-4.8-14.9 0-4.9 0.9-8.7 3.3-12.6 2.9-3.4 6.3-6.3 11.1-8.2 4.4-1.4 9.7-2.4 15.9-2.4 5.3 0 9.2 0 13.5 1 3.9 0.5 7.3 1.9 11.6 3.3v13.1c-7.2-3.4-14.5-5.3-22.2-5.3q-8.2 0-12.5 3.3c-2.9 1.5-4.4 4.4-4.4 7.8 0 2.4 0.5 4.8 2 6.2 1.4 1.5 3.4 2.9 5.3 4.4 1.9 0.9 6.2 2.4 12 4.8 5.8 2.9 10.2 4.8 14 6.7 2.9 2.9 5.8 5.3 7.2 8.7 2 2.9 2.5 6.8 2.5 11.1 0 7.2-2.5 13.5-8.2 17.9-5.8 4.3-13.5 6.2-24.1 6.2q-7.8 0-16-1.4z"/>
				</g>
			</g>
		</g>
	</g>
</svg>