<svg version="1.2" xmlns="http://www.w3.org/2000/svg" viewBox="0 0 1546 987" width="1546" height="987">
	<title>RANI_BIG copy-svg</title>
	<style>
		.s0 { fill: #ffffff } 
	</style>
	<path id="Path 9" fill-rule="evenodd" class="s0" d="m1545.5 391.7c0 38.1-32.6 71.2-71.2 71.2-11.7 0-27-6.1-35.6-12.2-124.6 180.4-257.8 417.2-287.3 532.6-109.3-70.6-266.4-88.3-381.8-88.3-88.4 0-266.4 20.2-378.7 91.4-26.4-112.3-162.7-352.3-287.3-535.7-11.7 6.1-20.3 12.2-32.6 12.2-41.1 0-70.5-33.1-70.5-71.2 0-41.7 29.4-68.1 70.5-68.1 35.6 0 68.2 26.4 68.2 68.1 0 14.8-5.5 23.4-11.7 32.6 91.5 61.9 227.8 123.9 349.3 73.6 144.9-62 219.1-224.6 257.2-340-23.3-17.8-47.3-41.7-47.3-77.3 0-44.2 38.7-79.8 82.9-79.8 44.8 0 82.9 35.6 82.9 79.8 0 35.6-17.8 59.5-47.3 77.3 38.7 115.4 115.4 278 260.3 340 118.4 50.3 257.8-11.7 346.8-73.6-6.2-9.2-9.2-17.8-9.2-32.6 0-41.7 32.5-68.1 71.2-68.1 38.6 0 71.2 26.4 71.2 68.1z"/>
</svg>