<svg version="1.2" xmlns="http://www.w3.org/2000/svg" viewBox="0 0 1402 451" width="1402" height="451">
	<title>8091 Series Datasheet-1-ai-svg</title>
	<style>
		.s0 { fill: #1f276f } 
		.s1 { fill: #ef8200 } 
	</style>
	<g id="图层 1">
		<g id="&lt;Group&gt;">
			<g id="&lt;Group&gt;">
				<path id="&lt;Compound Path&gt;" fill-rule="evenodd" class="s0" d="m1175.2 349.7v-346.3h56.5v162.1h1.2q5-9.8 9.9-20.8 3.7-9.9 8.6-19.7l57.7-121.6h71.3l-84.8 156 99.6 240.7-76.2-24.6-65.2-163.3-22.1 38.1v110.5q-27-6.2-56.5-11.1zm-206.5-73.7l-8.6 46.7q-28.3-2.5-59-3.7l67.6-315.6h76.2l73.7 337.7q-30.7-4.9-63.9-8.6l-12.3-56.5zm65.2-61.4l-16-78.5q-2.4-11.1-4.9-23.4-1.2-12.2-3.7-24.5-2.5-11.1-3.7-22.1h-1.2q-2.5 11-3.7 23.3-2.5 12.3-3.7 24.6-2.4 11-4.9 22.1l-14.7 78.5zm-238.5 156h-38.1v-1.2q19.7 0 38.1 1.2zm-38.1-55.3v-94.5l-81.1-217.4h66.4l27 88.5q3.7 13.5 7.4 24.5 2.4 11.1 6.1 22.1 2.5 11.1 6.2 23.3 4.9-17.1 9.8-34.3 4.9-16 9.8-35.6l25.8-88.5h65.2l-83.6 213.7v98.2q-29.5 0-59 0zm-228.6-39.3l-9.8 49.2q-30.7 1.2-60.2 3.6l70-325.4h76.2l67.6 313.2q-9.8 0-20.9 1.2-20.9 0-40.5 1.2l-8.6-43zm138.8 93.4q8.6 0 17.2 0v1.2h-54q18.4-1.2 36.8-1.2zm-73.7-154.8l-16-78.5q-2.4-11.1-4.9-23.4-2.5-12.2-3.7-24.5-2.4-11.1-4.9-22.1-2.5 11-3.7 23.3-2.4 12.3-3.7 24.6-2.4 11-4.9 22.1l-14.7 78.5zm-370 142.5v-348.7q8.6-2.5 20.9-3.7 12.3-2.5 27.1-2.5 13.5-1.2 29.5-1.2 28.2 0 49.1 6.1 19.7 7.4 33.2 22.1 12.3 13.5 18.4 33.2 6.2 18.4 6.2 44.2-1.2 17.2-4.9 31.9-3.7 14.8-9.9 25.8-6.1 12.3-14.7 19.6-8.6 8.6-16 12.3v2.5q12.3 7.4 20.9 25.8 8.6 17.2 13.5 42.9 2.5 14.8 4.9 30.7 3.7 16 6.2 30.7l1.2 5q-30.7 2.4-59 6.1-4.9-22.1-9.8-55.3-3.7-22.1-8.6-35.6-6.2-12.3-13.5-17.2-8.6-6.1-19.7-6.1h-17.2v122.8q-30.7 3.7-57.8 8.6zm57.8-190.3h22.1q14.8 0 24.6-7.4 11.1-6.1 16-18.4 6.1-11.1 6.1-27 0-17.2-6.1-28.3-4.9-12.3-13.5-17.2-9.9-6.1-23.4-6.1-11.1 0-17.2 1.2-6.2 0-8.6 1.2zm-124.1 49.2h-94.7v87.1l108.2-2.4v60.2c-48 8.5-98.3 18.4-167.2 29.4v-386.8h158.6v68.8h-99.6v76.1h94.7z"/>
				<path id="&lt;Path&gt;" class="s1" d="m0.2 446.7c0 0 188.1-73.7 646.5-92.1 458.4-19.6 754.6 95.8 754.6 95.8 0 0-481.8-52.8-739.9-46.7-250.7 5-661.2 43-661.2 43z"/>
			</g>
		</g>
	</g>
</svg>