<svg version="1.2" xmlns="http://www.w3.org/2000/svg" viewBox="0 0 1525 1524" width="1525" height="1524">
	<title>RBLX_BIG-svg-svg</title>
	<style>
		.s0 { fill: #000000 } 
	</style>
	<g id="#000000ff">
		<path id="Layer" fill-rule="evenodd" class="s0" d="m314.5 0h0.6c144.5 38 289.5 74.8 434.1 112.8 28 7.3 56.2 14.3 84.2 21.8 56.3 14.1 112.2 29.4 168.4 43.5 50.9 13.4 101.9 26.5 152.9 39.7 69.1 17.8 138.1 36.1 207.2 53.6 30.7 8.2 61.5 16.1 92.3 24 23.5 6 46.9 12.5 70.4 18.3-104.6 403.2-209.5 806.4-314.1 1209.7-16.6-3.9-33-8.6-49.6-12.9-245.5-63.3-490.8-127.4-736.3-190.7-58-15.3-116.1-30.2-174.1-45.2-38.6-10.4-77.5-19.8-116.1-30.1-44.7-11.6-89.3-23.2-134-34.8 56.2-216.6 112.5-433.1 168.8-649.7 48.3-186.7 97.1-373.3 145.3-560zm360.8 614.3c-20.2 78-40.7 155.9-60.8 233.9 77.9 20.2 155.7 40.7 233.6 60.8 20.2-78 40.7-155.9 60.8-233.9-38.4-9.9-76.7-20.1-115.1-29.9-13.5-3.2-26.8-7.5-40.5-10.6-26-6.6-51.9-13.8-78-20.3z"/>
	</g>
</svg>