<svg version="1.2" xmlns="http://www.w3.org/2000/svg" viewBox="0 0 1528 387" width="1528" height="387">
	<title>royal-caribbean-logo-transparent-svg</title>
	<style>
		.s0 { fill: #ffffff } 
	</style>
	<path id="logo-border" fill-rule="evenodd" class="s0" d="m1527.4 0.4v386.4h-1527.4v-386.4zm-1520.1 377.8h363.5v-370.5h-363.5zm370.9 0h1141.9v-109.6h-1141.9zm0-117h1141.9v-253.5h-1141.9z"/>
	<g id="logo-text">
		<path id="Layer" class="s0" d="m439.2 296.6h7.3v52.4h-7.3z"/>
		<path id="Layer" class="s0" d="m497.8 296.6h10.9l22 41.4v-41.4h7.3v52.4h-9.7l-23.2-42.7v42.7h-7.3z"/>
		<path id="Layer" class="s0" d="m600.2 302.7h-15.8v-6.1h39v6.1h-15.8v46.3h-7.4z"/>
		<path id="Layer" class="s0" d="m669.8 296.6h29.3v6.1h-20.8v15.8h18.3v6.1h-18.3v17.1h20.8v7.3h-29.3z"/>
		<path id="Layer" fill-rule="evenodd" class="s0" d="m749.1 296.6h12.2c9.7 0 19.5 1.2 19.5 13.4 0 6.1-4.9 11-11 12.2 2.5 1.2 3.7 2.4 4.9 4.9l9.8 20.7h-8.6l-7.3-18.3c-2.4-4.9-4.9-4.9-8.5-4.9h-3.7v23.2h-7.3zm7.3 23.1h6.1c7.3 0 11-2.4 11-8.5 0-4.9-3.7-7.3-9.8-7.3h-7.3z"/>
		<path id="Layer" class="s0" d="m834.5 296.6h8.5l23.2 41.4v-41.4h7.3v52.4h-9.7l-23.2-42.7v42.7h-6.1z"/>
		<path id="Layer" fill-rule="evenodd" class="s0" d="m941.8 296.6h7.4l21.9 52.4h-7.3l-4.9-13.4h-25.6l-4.9 13.4h-7.3zm3.7 7.3l-9.8 25.6h19.5z"/>
		<path id="Layer" class="s0" d="m1022.4 302.7h-15.9v-6.1h39v6.1h-15.8v46.3h-7.3z"/>
		<path id="Layer" class="s0" d="m1091.9 296.6h7.3v52.4h-7.3z"/>
		<path id="Layer" fill-rule="evenodd" class="s0" d="m1173.6 349c-13.5 0-24.4-12-24.4-26.8 0-14.8 10.9-26.8 24.4-26.8 13.5 0 24.4 12 24.4 26.8 0 14.8-10.9 26.8-24.4 26.8zm15.9-26.8c0-11.5-7.4-20.7-16.5-20.7-9.1 0-16.4 9.2-16.4 20.7 0 11.4 7.3 20.7 16.4 20.7 9.1 0 16.5-9.3 16.5-20.7z"/>
		<path id="Layer" class="s0" d="m1248.1 296.6h9.7l22 41.4v-41.4h8.5v52.4h-9.7l-23.2-42.7v42.7h-7.3z"/>
		<path id="Layer" fill-rule="evenodd" class="s0" d="m1355.4 296.6h7.3l22 52.4h-7.3l-4.9-13.4h-25.6l-4.9 13.4h-7.3zm3.6 7.3l-9.7 25.6h19.5z"/>
		<path id="Layer" class="s0" d="m1432.3 296.6h6.1v45.1h21.9v7.3h-28z"/>
		<path id="Layer" class="s0" d="m189.1 54.1c13.4 13.4 28.1 26.8 40.3 41.4l-14.7 19.5v1.2l40.3 18.3 26.8-19.5-15.8-18.3v-1.2c15.8-12.2 30.5-23.2 47.5-35.3l-8.5 82.8h-231.8l-8.5-82.8c17 10.9 31.7 23.1 47.5 35.3v1.2l-15.8 18.3 26.8 19.5 40.3-18.3v-1.2l-15.9-19.5z"/>
		<path id="Layer" class="s0" d="m303.8 157.7l-2.5 28h-85.4v95.1h42.7c9.8 0 19.6-9.8 17.1-17.1-2.4-9.8-11-15.9-18.3-20.7 1.2 0 30.5-22 43.9-30.5-1.2 6.1-9.7 82.9-9.7 85.3l-100.1 39h-1.2l-100-39c0-1.2-9.8-79.2-9.8-85.3 13.4 9.8 42.7 30.5 43.9 30.5-7.3 4.8-15.8 10.9-18.3 20.7-2.4 6.1 7.4 17.1 17.1 17.1h42.7v-95.1h-85.4l-2.4-26.8h225.7z"/>
		<path id="Layer" fill-rule="evenodd" class="s0" d="m438 108.9c0-26.8-1.2-31.7-19.5-32.9v-2.4l42.7-1.3c43.9-1.2 47.5 20.8 47.5 28.1 0 14.6-9.7 23.1-21.9 29.2l1.2 1.2c13.4 24.4 30.5 53.7 58.6 61l-2.5 1.2c-18.3-1.2-31.7 0-42.7-11-11-12.2-20.7-28-24.4-35.3-7.3-14.6-13.4-9.8-25.6-12.2v28c0 19.5 0 23.2 24.4 26.8v3.7h-61v-2.4c20.7-2.5 20.7-8.6 22-26.9zm14.6 22c15.9 0 35.4-8.5 35.4-28 0-20.8-18.3-29.3-35.4-28.1z"/>
		<path id="Layer" fill-rule="evenodd" class="s0" d="m569.7 195.4c-23.6 0-42.7-18.2-42.7-40.8 0-22.6 19.1-40.8 42.7-40.8 23.7 0 42.7 18.2 42.7 40.8 0 22.6-19 40.8-42.7 40.8zm26.9-41.4c0-20.2-12-36.6-26.9-36.6-14.8 0-26.8 16.4-26.8 36.6 0 20.2 12 36.6 26.8 36.6 14.9 0 26.9-16.4 26.9-36.6z"/>
		<path id="Layer" class="s0" d="m618.5 129.6c-2.4-8.5-3.6-9.7-12.2-10.9v-2.5h35.4v2.5c-13.4 1.2-9.7 8.5-6.1 17l17.1 45.1 11-31.7c7.3-23.1 9.7-29.2-3.7-30.4v-2.5h30.5v2.5c-7.3 1.2-9.7 4.8-13.4 10.9l-7.3 17.1-26.9 68.2c-6.1 17.1-10.9 22-18.3 22-4.8 0-8.5-3.7-8.5-8.6 0-3.6 2.4-7.3 6.1-8.5 1.2 1.2 7.3 4.9 9.8 4.9 3.6 0 7.3-9.8 7.3-12.2l6.1-13.4z"/>
		<path id="Layer" fill-rule="evenodd" class="s0" d="m724.7 147.9c1.2-19.5-3.7-26.8-17.1-26.8-12.2 0-11 6.1-11 15.8l-8.5 1.3c-1.2 0-4.9 0-4.9-1.3 0-4.8 19.5-23.1 32.9-23.1 15.9 0 20.8 12.2 20.8 26.8v24.4c0 15.8-1.2 25.6 14.6 23.1v3.7c-6.1 2.4-12.2 2.4-17.1 2.4-7.3 0-9.7-4.9-10.9-11-6.1 6.1-13.5 12.2-22 12.2-11 0-17.1-9.7-17.1-20.7 0-2.4 0-4.9 1.2-8.5zm-24.4 15.8c-1.2 2.5-1.2 4.9-1.2 7.3 0 7.4 4.9 13.5 12.2 13.5 4.9 0 9.8-2.5 12.2-6.1v-26.9z"/>
		<path id="Layer" class="s0" d="m745.4 194.2v-4.9c12.2-1.2 13.4-4.8 13.4-15.8v-74.3c0-7.4 0-9.8-8.5-15.9v-2.4l19.5-7.3h2.5v99.9c0 14.6 1.2 15.8 13.4 17.1v2.4h-40.3z"/>
		<path id="Layer" fill-rule="evenodd" class="s0" d="m949.2 147.9c1.2-19.5-3.7-26.8-17.1-26.8-12.2 0-11 6.1-11 15.8l-8.5 1.3c-1.3 0-4.9 0-4.9-1.3 0-4.8 19.5-23.1 32.9-23.1 15.9 0 20.8 12.2 20.8 26.8v24.4c0 15.8-1.3 26.8 14.6 23.1v3.7c-6.1 2.4-12.2 2.4-17.1 2.4-7.3 0-9.7-4.9-11-11-6.1 6.1-13.4 12.2-21.9 12.2-11 0-17.1-9.7-17.1-20.7 0-2.4 0-4.9 1.2-8.5zm-23.2 15.8c-1.2 2.5-1.2 4.9-1.2 7.3 0 7.4 4.9 13.5 12.2 13.5 4.9 0 9.8-2.5 12.2-6.1v-26.9z"/>
		<path id="Layer" class="s0" d="m897.9 107.7h-2.4c-3.7-19.5-14.7-34.1-35.4-34.1-31.7 0-48.8 26.8-48.8 57.2 0 35.4 26.8 59.8 51.2 59.8 23.2 0 31.8-17.1 39.1-35.4l2.4 1.2c-2.4 11-6.1 20.8-9.7 31.7-11 6.1-23.2 7.3-35.4 7.3-36.6 0-68.3-20.7-68.3-60.9 0-31.7 24.4-63.4 70.7-63.4 13.4 0 26.9 2.5 37.8 9.8z"/>
		<path id="Layer" fill-rule="evenodd" class="s0" d="m1360.3 149.1c1.2-19.5-3.7-26.8-17.1-26.8-12.2 0-11 6.1-11 15.9l-8.5 1.2c-1.2 0-4.9 0-4.9-1.2 0-4.9 19.5-23.2 33-23.2 15.8 0 20.7 12.2 20.7 26.8v24.4c0 15.8-2.4 25.6 13.4 24.4v2.4c-6.1 2.4-11 1.2-15.8 1.2-7.4 0-9.8-4.9-11-10.9-6.1 6-13.4 12.1-22 12.1-11 0-17.1-9.7-17.1-20.7 0-2.4 0-4.9 1.3-8.5zm-22 15.8c-1.2 2.5-1.2 4.9-1.2 7.3 0 7.4 4.9 13.5 12.2 13.5 4.9 0 9.7-2.5 12.2-6.1v-26.9z"/>
		<path id="Layer" class="s0" d="m996.7 173.5c0 14.6 1.3 15.8 17.1 17.1v2.4h-43.9v-4.9c11-1.2 12.2-3.6 13.4-17v-31.7c0-7.3 0-9.8-8.5-15.9v-1.2l20.7-8.5 2.5 1.2-1.3 20.7c3.7-9.7 13.5-21.9 24.4-21.9 4.9 0 8.6 2.4 8.6 8.5 0 6.1-4.9 9.8-9.8 11-2.4-2.5-7.3-6.1-11-6.1-14.6 1.2-13.4 25.6-13.4 28z"/>
		<path id="Layer" class="s0" d="m1063.8 83.3c0 4.9-4.8 8.5-8.5 8.5-4.9 0-8.5-4.8-8.5-8.5 0-4.9 4.8-8.5 8.5-8.5 3.7 0 8.5 4.9 8.5 8.5zm-28 109.7v-2.4c13.4-2.5 13.4-4.9 13.4-17.1v-34.1c0-7.3 0-9.8-11-15.9v-2.4l23.2-7.3 2.4 1.2v58.5c0 14.6 1.3 15.8 13.5 17.1v2.4z"/>
		<path id="Layer" fill-rule="evenodd" class="s0" d="m1165.1 99.2c0-7.4 0-9.8-8.5-15.9v-2.4l20.7-7.3h1.2v49.9c8.6-4.8 19.5-9.7 28.1-9.7 19.5 0 32.9 18.3 32.9 36.5 0 31.7-28 45.1-47.6 45.1-10.9 0-18.3-2.4-26.8-7.3zm13.4 59.7c0 17.1 1.2 31.7 22 31.7 9.7 0 25.6-8.5 25.6-31.7 0-20.7-13.4-35.3-30.5-35.3-6.1 0-11 1.2-17.1 3.7z"/>
		<path id="Layer" fill-rule="evenodd" class="s0" d="m1082.1 99.2c0-7.4 0-9.8-8.5-15.9v-2.4l20.7-7.3h1.3v49.9c8.5-4.8 19.5-9.7 28-9.7 19.5 0 33 18.3 33 36.5 0 31.7-28.1 45.1-47.6 45.1-11 0-18.3-2.4-26.9-7.3zm13.5 59.7c0 17.1 1.2 31.7 21.9 31.7 9.8 0 25.6-8.5 25.6-31.7 0-20.7-13.4-35.3-30.5-35.3-6.1 0-10.9 1.2-17 3.7z"/>
		<path id="Layer" fill-rule="evenodd" class="s0" d="m1262.7 147.9c-1.2 18.3 11 35.3 30.5 35.3 9.8 0 14.6-4.8 20.7-10.9l2.5 2.4c-6.1 12.2-18.3 20.7-31.7 20.7-22 0-36.6-18.2-36.6-39 0-23.1 15.8-42.6 39-42.6 15.9 0 25.6 9.7 26.8 26.8h-50zm34.2-13.4c-1.2-8.5-6.1-17.1-15.9-17.1-9.7 0-15.8 9.8-18.3 19.5z"/>
		<path id="Layer" class="s0" d="m1395.7 141.8c0-7.3 0-9.7-8.6-15.8v-2.5l20.8-8.5 2.4 1.2-1.2 13.4c9.8-7.3 19.5-13.4 30.5-13.4 20.7 0 22 17.1 22 28v31.7c0 14.7 1.2 15.9 13.4 17.1v2.4h-40.3v-2.4c13.4-2.4 13.4-4.9 13.4-17.1v-20.7c0-12.2 1.3-30.5-20.7-30.5-7.3 0-12.2 2.5-18.3 7.4v42.6c0 14.6 1.2 15.9 13.4 17.1v2.4h-41.5v-2.4c12.2-1.2 13.5-3.7 13.5-17.1v-32.9z"/>
	</g>
</svg>