<svg version="1.2" xmlns="http://www.w3.org/2000/svg" viewBox="0 0 1538 219" width="1538" height="219">
	<title>radcom2-svg</title>
	<style>
		.s0 { fill: #ffffff } 
		.s1 { fill: #0089bd } 
	</style>
	<g id="radcom2">
		<path id="Path_221" fill-rule="evenodd" class="s0" d="m1537.1 218.9h-33.2v-114.8l-71.1 56.5-71.5-56.5v114.8h-32v-158.3h33.2l70.3 58.7 71.8-58.7h32.5zm-308.5-37q0 21.8-8.4 29.4-8.5 7.6-30.7 7.6h-116q-22.2 0-30.6-7.6-8.4-7.6-8.4-29.4v-82.9q-0.1-21.8 8.4-29.4 8.4-7.5 30.6-7.5h116q22.3 0 30.7 7.5 8.4 7.6 8.4 29.4zm-157.4 7h120.6v-98.4h-120.6zm-127.3-7.4q0 22.2-8.4 29.8-8.4 7.5-30.7 7.5h-94.1q-22.6 0-31-7.5-8.4-7.6-8.4-29.8v-82.9q0-21.8 8.4-29.6 8.4-7.7 31-7.7h94.1q37.9 0.4 39.1 26v23.4h-36.7v-21.4h-99.2v100h99.2v-23.4h36.7zm-252.7-50.2q-12.1 73.2-59 87.6h-121v-155.3h127.3q52.7 0 52.7 67.7zm-34.4 9.4q7.9-48.7-34.3-49.4h-75v98.4h64.8q34-1.2 44.5-49zm-484.6 78.2h-45.7l-57.4-58.4h-33.6v58.4h-35.5v-154.9h133.2q35.1 0 35.1 27.3v42c0.2 2.9-0.1 5.9-0.9 8.7-0.8 2.9-2 5.6-3.7 8-1.6 2.4-3.6 4.6-6 6.4-2.3 1.8-4.9 3.2-7.7 4.1h-37.1zm-39.1-97.3v-18.6q0-12.1-10.1-12.1h-87.5v43.2h87.5q10.1 0 10.1-12.5z"/>
		<path id="Path_223" class="s1" d="m419 160.3l-18.4-27.6h0.1l-23.7-36.9-39.8-64.9-39.9 65.1h0.1l-17.8 29.3-22.2 35h-41.1l100.8-160.3h39.9l101.9 160.3z"/>
		<path id="Path_224" class="s0" d="m362.2 118.5h-49.2l24.6-36.2z"/>
	</g>
</svg>