<svg version="1.2" xmlns="http://www.w3.org/2000/svg" viewBox="0 0 1251 1550" width="1251" height="1550">
	<title>radian-logo-svg</title>
	<style>
		.s0 { fill: #ffffff } 
	</style>
	<g id="Layer">
		<g id="asset">
			<g id="3.-Brand-Style">
				<g id="Logos">
					<g id="Radian_Primary_Logo_Full_Color_Pantone">
						<path id="Fill-4" fill-rule="evenodd" class="s0" d="m1186.9 62c84.5 86.1 84.5 226.1 0 312.2-84.4 86.1-220.4 87.6-309.6 3.5-39.5-43.6-60.3-97.8-57.6-149.4-135.7 21.1-259 170.3-271.7 282.6v1002.6c0 20.1-16 36.4-35.7 36.4h-291.2c-19.7 0-35.7-16.3-35.7-36.4l0.4-1116.7-169.5-112.1c-11.2-7.3-17.2-19.8-16.2-33.3 1-13.5 8.9-24.8 21-30.4l476.6-217.5c11.1-5.1 23.9-4.1 34 2.6 10.2 6.8 16.3 18.2 16.3 30.6v255.8c94.7-141.1 249.1-249.7 407.2-285.4 0.3-0.1 12.3-2.8 17.3-3.2 63.3-10.5 157.3 3.1 214.3 58z"/>
					</g>
				</g>
			</g>
		</g>
	</g>
</svg>