<svg version="1.2" baseProfile="tiny-ps" xmlns="http://www.w3.org/2000/svg" viewBox="0 0 1592 1587" width="1592" height="1587">
	<title>RedWire-Logos_Redwire_Horizontal_Black-Red-svg</title>
	<style>
		tspan { white-space:pre }
		.shp0 { fill: #dd1d25 } 
		.shp1 { fill: #100f0d } 
	</style>
	<g id="g10">
		<g id="g12">
			<path id="path14" class="shp0" d="M1075.62 880C1048.82 976.93 1032.08 1028.48 962.68 1025.39C962.68 1025.39 1118.45 456.78 1143.59 371.14L949.62 371.14L768.69 1025.39C739.03 1025.01 695.95 1025.39 695.95 1025.39L803.17 637.69L633.43 637.69C607.43 637.69 602.71 661.11 595.75 686.29L448.37 1219.25C580.1 1218.2 725.27 1220.14 860.58 1219.25C1030.32 1218.12 1174.76 1218.98 1234.8 1003.19L1362.51 544.31C1396.13 627.87 1414.65 719.13 1414.65 814.72C1414.65 1215.3 1089.7 1540.03 688.85 1540.03C588.39 1540.03 492.7 1519.64 405.69 1482.75C521.67 1549.11 654.73 1586.41 797.94 1586.41C1236.05 1586.41 1591.2 1231.48 1591.2 793.67C1591.2 536.52 1465.06 304.85 1275.19 160.02L1075.62 880" />
			<path id="path16" class="shp1" d="M516.34 710.38C543.14 613.46 556.54 564.99 629.29 564.99L823.27 564.99L876.87 371.14L731.39 371.14C561.66 371.14 415.62 373.17 355.87 589.22L230.13 1043.91C196.07 959.88 177.32 868.02 177.32 771.79C177.32 371.21 502.27 46.47 903.1 46.47C1003.57 46.47 1099.26 66.87 1186.27 103.76C1070.29 37.4 937.24 0.1 794.01 0.1C355.91 0.1 0.75 355.02 0.75 792.84C0.75 1045.33 117.77 1274.49 317.8 1427.07L516.34 710.38Z" />
		</g>
	</g>
</svg>