<svg version="1.2" xmlns="http://www.w3.org/2000/svg" viewBox="0 0 1566 303" width="1566" height="303">
	<title>Reborn_Logo_Long-09_5a86e03e-96cf-4843-b051-d3ffbb5299aa_1445x-svg</title>
	<style>
		.s0 { fill: #ba8747 } 
	</style>
	<g id="#ba8747ff">
		<path id="Layer" fill-rule="evenodd" class="s0" d="m140.2 1.3c32.6-2.4 65.9 6.4 93.2 24.5 28.3 18.7 50.1 47.3 60.4 79.7 10.3 32.3 9.4 68-2.7 99.7-12 31.6-35 58.8-64 75.9-27.7 16.5-60.7 23.7-92.7 20.2-33.6-3.5-65.9-18.9-89.8-42.9-23.2-22.8-38.6-53.4-43-85.7-4.3-30.2 0.7-61.9 14.7-89.1 16.2-32.4 44.6-58.4 78.2-71.9 14.6-5.9 30-9.4 45.7-10.4zm-80.6 49.1c-22.8 20.4-38.5 48.8-43.3 79.2-5.3 31 1 63.7 17 90.8 16 27.3 41.8 48.7 71.7 59.4 0-33.7 0-67.4 0-101.2q-19.8 0-39.5 0c-8.9 0-18.2-3-24.3-9.7-9-9.5-8.6-26.1 0.8-35.2 8.4-8.3 21.6-9.6 32.4-6 12.3 4.1 21.2 14.1 30.6 22.4 0-26.6 0-53.3 0-80 20.1 0.1 40.2 0 60.3 0.1 9.1 0 18.4-0.6 27.2 2.4 20.7 6.3 36.5 26.2 37.7 47.9 1 12.8-2.8 25.8-10.4 36.1-9.9 13.5-26.3 22.1-43 22-13.5 0.1-27 0-40.5 0.1 31.2 27.7 62.4 55.5 93.5 83.2 19.4-13.9 35-33 44.8-54.8 12-26.6 15-57.1 8.5-85.5-7-31.7-25.9-60.5-52-79.6-24.6-18.4-55.7-27.9-86.4-26.5-31.3 1.3-61.9 13.8-85.1 34.9zm59.9 34.2c0.1 26.5-0.1 52.9 0.1 79.4 14 0.4 28.1 0.1 42.2 0.2 9.8-0.2 20.1 1.1 29.3-2.9 16.7-6.6 27.5-25.4 24.3-43.1-2.6-18.2-19.2-33.1-37.6-33.6-19.4-0.1-38.9 0-58.3 0zm-69.8 63.6c-1.7 4.3 0 9.3 3.6 12.1 3.7 3.1 8.6 3.8 13.3 3.9 10.7 0 21.5 0 32.2 0-5.1-4.8-10.4-9.5-15.6-14.3-5.6-4.9-12.2-9.6-20-9.6-5.5-0.4-11.8 2.2-13.5 7.9zm69.9 34.9c-0.2 33.6 0 67.3-0.1 100.9 32.7 8 68.4 2.8 97.7-14q-48.9-43.3-97.6-86.9z"/>
		<path id="Layer" fill-rule="evenodd" class="s0" d="m700 87c12.6-1.3 26.9-1.4 37.2 7.1 8.7 6.7 12.5 17.6 14.1 28 1.8 14.7 2 29.5 1.3 44.3-0.7 12.4-1.9 25.6-9.2 36.1-5.7 8.3-15.6 13.1-25.6 13.8-11.3 0.8-23.7 0.6-33.3-6.4-8.8-6.2-13.1-16.9-14.9-27.3-2.2-14.8-2.2-29.9-1.7-44.9 0.8-12 1.6-24.5 7.9-35.1 5.1-8.6 14.4-14.2 24.2-15.6zm3.4 19.4c-4.7 2.1-6.9 7.3-8.1 12-1.9 8.6-2.1 17.4-2.2 26.2 0.1 13-0.5 26.2 2 39 1.2 5.4 3.7 11.6 9.4 13.4 5.9 1.9 13.9 1.1 17.5-4.6 4.1-6.3 4.4-14.1 5.1-21.4 0.6-13.4 0.7-26.9-0.1-40.3-0.7-6.9-1.2-14.2-5-20.1-3.9-6-12.5-6.6-18.6-4.2zm335-9.2c7.8-8.6 20-11.3 31.2-10.8 11.1-0.4 23 3.1 30 12.1 7.3 9.2 7.8 21.5 8.1 32.8-8.5-0.1-17.1 0-25.6-0.1-0.1-6.9 0-14.4-3.6-20.7-3.1-5.2-10.2-6.3-15.6-4.7-4.4 1.4-6.9 5.8-8.2 10-3 10.5-2.9 21.6-3 32.5 0 12.2-0.4 24.5 2.3 36.5 1 4.5 2.8 9.6 7.2 11.8 6 2.6 14.7 1.6 17.8-4.9 4-7.8 4.2-16.9 4.2-25.5q12.9 0 25.7 0c-0.7 11.7-0.9 24.2-7.1 34.6-5.3 9.4-15.8 14.9-26.3 15.6-11 0.6-23 0.4-32.2-6.3-9.4-6.5-13.8-18-15.4-28.9-2.1-15.2-1.7-30.6-1.3-45.8 0.7-13.4 2.4-27.9 11.8-38.2zm120-10.2c12.1-1.2 25.6-1.3 35.8 6.3 9.8 7 13.8 19.3 15.2 30.8 2 17.9 1.9 36 0.2 53.9-1.4 11-4.7 22.7-13.4 30.2-7.6 6.7-18.1 8.7-28 8.4-9.6 0.3-19.8-1.6-27.4-7.9-8.8-7.2-12.5-18.7-13.8-29.6-2-18-2-36.2-0.1-54.2 1.2-10.7 4.5-22.1 12.8-29.6 5.1-4.7 11.9-7.4 18.7-8.3zm3.4 19.3c-3.7 1.4-6.1 4.8-7.4 8.4-2.9 8.1-3 16.8-3.2 25.3-0.5 7.2-0.6 14.4-0.1 21.6 0.4 9.8 0.1 20.1 4.3 29.1 4.6 9.8 21.2 9.8 25.6-0.1 4.3-9.2 3.9-19.7 4.3-29.6 0.7-10.1-0.1-20.2-0.4-30.2-0.5-6.8-1.2-14-4.8-20-3.8-6-12.2-6.8-18.3-4.5zm-786.5-17.4c16.3 0 32.6-0.1 48.9 0 8.8 0.1 18.1 3 24.1 9.7 5.9 6.5 7.3 15.7 7.2 24.1-0.3 8.5-2.4 17.6-8.8 23.6-3.4 3.2-8 4.7-12.3 6.3 3.8 0.2 7.6 1 10.8 3.2 4.5 2.7 6.8 7.8 7.9 12.7 2.4 12.5 0.7 25.4 2.9 37.9 0.4 3.2 2.8 5.4 4.9 7.5-9.4 0.6-18.9 0.1-28.3 0.3-4.1-7.6-2.6-16.6-3.3-24.8-0.6-8.4 1.4-18.5-5.2-25.1-6.7-5.1-15.7-2.5-23.4-3.1 0.1 17.6 0 35.3 0.1 53-8.5-0.1-17 0-25.5-0.1q0.1-62.6 0-125.2zm25.5 54.7c7.6-0.2 16 1.1 22.8-3.2 4.8-3 6.2-9 6.5-14.2 0.2-6-1.3-13-6.9-16.2-6.8-3.9-15-1.9-22.5-2.4 0.1 12 0 24 0.1 36zm77.2-54.7c23.3 0 46.7-0.1 70.1 0-0.1 6.9-0.1 13.8-0.1 20.8-14.8 0-29.7-0.1-44.6 0 0.1 9.8 0 19.6 0.1 29.4 14 0 27.9 0 41.9 0 0 6.9 0 13.8 0 20.8q-21 0-41.9 0c0 11.1 0 22.3-0.1 33.4 15.5 0.1 31 0 46.5 0q0 10.4 0 20.9c-24-0.1-48 0-71.9-0.1q0-62.6 0-125.2zm89.6 0c15.2 0 30.4-0.1 45.6 0 9.7 0.3 20.4 2.8 26.5 11 6.4 8.7 7.1 20.5 4.6 30.7-2.2 8.6-9.2 15.5-17.9 17.6 9.7 1 18.6 7.9 21.4 17.4 2.8 10 2.1 21.2-2.1 30.8-5.5 11.6-18.8 17.4-31.1 17.7-15.7 0.1-31.4 0.1-47.2 0 0.2-41.7-0.2-83.5 0.2-125.2zm25.4 18.7c0.1 10.9 0 21.8 0.1 32.6 7 0 14.6 0.7 21-2.9 4.6-2.6 6.1-8.4 6.1-13.3 0-5-1.1-10.9-5.7-13.7-6.5-3.8-14.3-2.4-21.5-2.7zm0 50.4c0.1 12.5 0.1 24.9 0 37.4 7.8-0.2 16.3 1.1 23.2-3.2 5.7-3.3 7-10.5 6.8-16.5 0.1-6.6-3.1-13.7-9.5-16.2-6.5-2.4-13.7-1.2-20.5-1.5zm180.1-69.2c16.3 0.1 32.7 0 49 0.1 9.1 0.1 18.6 3.3 24.5 10.5 5.9 7.5 7.1 17.5 6.2 26.7-0.6 8.1-3.5 16.8-10.4 21.7-3.1 2.3-6.8 3.5-10.4 4.8 4.6 0.2 9.4 1.5 12.9 4.7 3.2 3 4.9 7.3 5.8 11.5 2.4 12.4 0.8 25.1 2.9 37.6 0.3 3.1 2.7 5.4 4.9 7.5-9.4 0.6-18.9 0-28.3 0.3-3.2-5.4-2.8-11.8-3.1-17.8-0.3-7.7-0.1-15.5-1-23.2-0.6-5.3-4.2-10.6-9.8-11.5-6-1-12-0.4-18-0.5 0.1 17.6 0 35.3 0 52.9q-12.6 0-25.2 0.1 0-62.7 0-125.4zm25.2 18.8c0.1 12-0.1 24 0.1 36 7.4-0.2 15.4 1.1 22.1-2.8 5.6-3 7.2-9.9 7.1-15.7 0.3-5.9-1.8-12.6-7.4-15.4-6.8-3.4-14.6-1.7-21.9-2.1zm77.3-18.8q14.7 0.1 29.4 0c10.2 28.8 20.2 57.6 30.7 86.2-0.1-28.7 0.1-57.4 0-86.1 7.7-0.1 15.4 0 23.2-0.1q-0.1 62.7 0 125.4c-9.7-0.1-19.4 0-29.1-0.1-7.8-22.8-15.9-45.5-23.9-68.2-2.2-6.6-4.8-13-6.5-19.7-0.8 29.3-0.2 58.6-0.4 87.9-7.8 0.1-15.6 0-23.4 0.1q0-62.7 0-125.4zm355.2 0c23.4 0.1 46.8 0 70.2 0.1-0.1 6.9-0.1 13.8 0 20.8-15 0-29.9 0-44.8-0.1 0 9.9 0 19.7 0 29.5 14 0 28 0 42 0q0 10.4 0 20.8c-14 0-28 0-42-0.1 0 18.1 0 36.2 0.1 54.3-8.5 0.1-17 0-25.5 0.1q0-62.7 0-125.4zm86.4 0.1c23.4 0 46.8-0.1 70.3 0q-0.1 10.4 0 20.7c-15 0.1-29.9 0-44.9 0.1 0.1 9.8 0 19.6 0.1 29.4 14 0 27.9 0 41.9 0 0 6.9 0 13.8 0 20.8q-21 0-41.9 0c0 18.1-0.1 36.1 0 54.2-8.5 0.1-17 0-25.5 0q0-62.6 0-125.2zm86.3 0c23.5-0.1 46.9 0 70.3-0.1q0 10.5 0 20.9c-14.9 0-29.9 0-44.8 0 0 9.8 0 19.6 0 29.4 14 0 28 0 42 0q0 10.4 0 20.8c-14 0-28 0-42 0 0 11.1 0 22.3 0 33.4 15.5 0 31 0 46.5 0q0 10.4 0 20.8c-24 0.1-48 0-72 0q0.1-62.6 0-125.2zm89.6-0.1q35.1 0.1 70.2 0 0 10.5 0 20.9c-14.9-0.1-29.8 0-44.7-0.1 0 9.9-0.1 19.7 0 29.5q21 0 42 0 0 10.4 0 20.8c-14 0-28 0-42-0.1-0.1 11.2 0 22.4 0 33.6 15.5-0.1 31-0.1 46.5 0q0 10.3 0 20.7c-24 0.1-48 0-72 0.1q0.1-62.7 0-125.4z"/>
	</g>
</svg>