<svg version="1.2" baseProfile="tiny-ps" xmlns="http://www.w3.org/2000/svg" viewBox="0 0 1261 1551" width="1261" height="1551">
	<title>refilogo-svg</title>
	<style>
		tspan { white-space:pre }
		.shp0 { fill: #9abfcc } 
	</style>
	<path id="Layer" class="shp0" d="M672.47 1550.26L269.71 1550.26L0.05 1195.97L89.94 1030.05C98.58 1107.82 134.88 1254.73 281.81 1382.62C143.52 1199.42 133.15 1023.14 136.61 945.37L229.95 772.54C223.04 839.94 204.03 1211.52 672.47 1550.26Z" />
	<path id="Layer" class="shp0" d="M516.9 466.63C625.8 746.61 352.68 826.11 316.38 1085.36C306.01 1062.89 295.64 1038.69 288.73 1016.23C259.34 928.08 252.43 853.77 252.43 803.65C549.74 717.23 516.9 466.63 516.9 466.63Z" />
	<path id="Layer" class="shp0" d="M853.98 677.48C864.35 789.82 857.43 893.52 834.96 992.03C800.39 708.59 492.7 580.7 658.65 240.23C643.09 456.26 682.85 542.68 838.42 665.39C843.61 668.84 848.79 674.03 853.98 677.48L853.98 677.48Z" />
	<path id="Layer" class="shp0" d="M620.62 599.71C385.53 241.96 700.13 190.11 624.07 0C760.63 162.46 475.42 288.62 620.62 599.71Z" />
	<path id="Layer" class="shp0" d="M442.57 879.69C494.43 826.11 551.47 852.04 568.76 862.41C677.66 815.75 745.08 962.65 800.39 959.19C800.39 959.19 783.11 998.94 707.05 966.11C729.52 1035.24 707.05 1197.69 452.94 1218.43C669.02 1061.16 565.3 886.6 442.57 879.69L442.57 879.69Z" />
	<path id="Layer" class="shp0" d="M1082.15 865.87L1260.2 1195.97L990.54 1548.53L724.33 1548.53C682.85 1531.25 487.52 1368.79 402.81 1254.73C402.81 1254.73 420.1 1244.36 427.01 1237.44C480.6 1244.36 577.4 1221.89 613.7 1202.88C651.73 1182.14 682.85 1156.22 703.59 1125.11C717.42 1104.37 727.79 1080.17 732.98 1055.98C755.45 1135.48 741.62 1216.7 724.33 1292.75C812.49 1187.32 971.52 914.26 836.69 411.33L1040.67 789.82C1038.94 841.67 1014.74 1135.48 809.03 1365.34C1014.74 1206.34 1070.05 947.09 1082.15 865.87L1082.15 865.87Z" />
</svg>