<svg version="1.2" baseProfile="tiny-ps" xmlns="http://www.w3.org/2000/svg" viewBox="0 0 1611 1841" width="1611" height="1841">
	<title>regency-centers-svg</title>
	<style>
		tspan { white-space:pre }
		.shp0 { fill: #e6602c } 
	</style>
	<path id="Layer" fill-rule="evenodd" class="shp0" d="M572.33 1653.39L572.33 1840.51L1.89 1840.51L1.89 1653.39L163.26 1653.39L163.26 186.76L1.89 186.76L1.89 0L791.49 0C1296.4 0 1436.98 251.6 1436.98 506.73C1436.98 718.16 1327.05 919.73 1064.91 969.77C1218.18 997.6 1253.06 1064.56 1311.55 1209.74L1445.44 1653.39L1608.93 1653.39L1608.93 1840.51L1251.3 1840.51L1065.61 1251.67C983.16 1075.48 859.14 1047.99 652.67 1047.99L408.84 1047.99L408.84 1653.39L572.33 1653.39ZM410.25 861.23L694.59 861.23C1011.7 861.23 1181.89 743.89 1181.89 532.1C1181.89 294.95 1012.76 187.12 694.59 187.12L408.84 187.12L410.25 861.23Z" />
</svg>