<svg version="1.2" baseProfile="tiny-ps" xmlns="http://www.w3.org/2000/svg" viewBox="0 0 1518 1801" width="1518" height="1801">
	<title>RELY_BIG copy-svg</title>
	<style>
		tspan { white-space:pre }
		.shp0 { fill: #ffffff } 
	</style>
	<path id="Layer" fill-rule="evenodd" class="shp0" d="M1501.67 15.7C1511.51 25.54 1517.05 38.9 1517.05 52.79L1517.05 1245.86C1517.05 1249.96 1516.52 1254.07 1515.57 1258.08C1514.61 1262.09 1513.18 1266 1511.32 1269.67C1509.41 1273.3 1507.12 1276.74 1504.44 1279.89C1501.77 1283.04 1498.71 1285.85 1495.37 1288.24L816.09 1781.57C807.79 1787.63 798.57 1792.31 788.79 1795.51C779 1798.66 768.79 1800.28 758.52 1800.28C748.21 1800.28 738 1798.66 728.21 1795.51C718.47 1792.31 709.21 1787.63 700.91 1781.57L21.58 1288.1C8.07 1278.22 0 1262.47 0 1245.72L0 52.74C0 45.87 1.34 39.04 3.96 32.69C6.64 26.35 10.5 20.52 15.37 15.7C20.19 10.84 26.02 6.97 32.36 4.35C38.71 1.67 45.54 0.34 52.41 0.34L1464.58 0.34C1468.02 0.34 1471.46 0.67 1474.8 1.34C1478.19 2.01 1481.48 3.01 1484.68 4.3C1487.83 5.63 1490.89 7.26 1493.75 9.17C1496.57 11.07 1499.24 13.22 1501.67 15.66L1501.67 15.7ZM1405.3 1151.89C1404.82 1146.59 1403.67 1141.34 1401.91 1136.28C1400.19 1131.22 1397.8 1126.4 1394.89 1121.97C1391.93 1117.48 1388.49 1113.38 1384.53 1109.75L800.05 685.04C795.85 681.99 791.22 679.65 786.3 678.03C781.34 676.45 776.23 675.64 771.03 675.64C765.87 675.64 760.72 676.45 755.8 678.03C750.88 679.65 746.21 681.99 742.05 685.04L519.27 846.83C488.86 868.88 453.01 880.48 416.11 880.48C406.9 880.48 397.59 879.76 388.24 878.24C376.87 876.47 365.66 873.56 354.87 869.6C344.03 865.64 333.63 860.58 323.84 854.56C314.01 848.55 304.79 841.58 296.34 833.71C287.89 825.88 280.21 817.24 273.48 807.89C266.65 798.58 260.78 788.66 255.96 778.2C251.09 767.75 247.32 756.82 244.6 745.61C241.93 734.39 240.35 722.94 239.92 711.44C239.49 699.94 240.21 688.39 242.02 677.03C243.79 665.62 246.7 654.45 250.66 643.62C254.62 632.79 259.64 622.38 265.65 612.55C271.71 602.77 278.68 593.56 286.51 585.06C294.34 576.61 303.03 568.98 312.34 562.25L471.63 446.52L383.75 382.71L104.83 180.16L104.83 1218.99L746.68 1685.17C752.08 1688.03 757.85 1690.18 763.87 1691.47C769.88 1692.76 776.04 1693.23 782.15 1692.8C788.26 1692.37 794.28 1691.09 800.05 1688.99C805.83 1686.89 811.27 1684.02 816.24 1680.39L822.11 1676.1C841.92 1661.73 851.99 1638.3 848.5 1613.29C845.97 1595.25 835.19 1579.36 820.44 1568.67L552.21 1373.91C546.43 1369.71 541.66 1364.27 538.22 1357.97C534.83 1351.67 532.83 1344.7 532.45 1337.54C532.06 1330.43 533.3 1323.27 536.03 1316.64C538.75 1310.05 542.95 1304.08 548.25 1299.31C564.14 1284.61 592.74 1284.47 610.21 1297.16L878.63 1492.12L938.44 1535.55C944.02 1539.61 950.18 1542.76 956.72 1544.86C963.31 1547 970.14 1548.1 977.06 1548.1C983.93 1548.1 990.76 1547 997.35 1544.86C1003.88 1542.76 1010.04 1539.61 1015.63 1535.55L1021.74 1531.16C1041.55 1516.75 1051.62 1493.36 1048.09 1468.35C1045.61 1450.27 1034.77 1434.42 1020.02 1423.68L751.79 1228.97C746.02 1224.72 741.24 1219.28 737.81 1212.98C734.42 1206.73 732.46 1199.71 732.08 1192.6C731.7 1185.44 732.89 1178.28 735.61 1171.7C738.33 1165.06 742.53 1159.14 747.83 1154.32C763.73 1139.67 792.37 1139.53 809.84 1152.22L1138.02 1390.56C1143.61 1394.62 1149.81 1397.77 1156.35 1399.92C1162.89 1402.02 1169.77 1403.11 1176.64 1403.11C1183.56 1403.11 1190.39 1402.02 1196.98 1399.92C1203.52 1397.77 1209.72 1394.62 1215.26 1390.56L1221.32 1386.17C1241.08 1371.81 1251.2 1348.33 1247.72 1323.37C1245.19 1305.28 1234.35 1289.48 1219.6 1278.74L954.96 1086.51L951.47 1083.98C945.65 1079.78 940.87 1074.34 937.48 1068.04C934.05 1061.74 932.09 1054.77 931.66 1047.61C931.28 1040.5 932.52 1033.34 935.24 1026.71C937.96 1020.07 942.11 1014.16 947.41 1009.34C963.36 994.68 991.9 994.54 1009.42 1007.24L1011.52 1008.76L1300.09 1218.51C1325.58 1237.08 1360.66 1235.26 1384.58 1212.45C1393.65 1203.86 1401.91 1185.92 1403.86 1173.56L1404.72 1167.88C1405.58 1162.58 1405.73 1157.23 1405.3 1151.89ZM1337.03 105.09L1336.99 105.14L1337.08 105.14L1337.03 105.09ZM1336.99 105.14L180.01 105.14L560.8 381.75L675.27 298.62C676.04 298.09 676.85 297.57 677.61 297.04C678.42 296.56 679.23 296.04 680.04 295.61C680.86 295.13 681.67 294.7 682.53 294.27C683.39 293.84 684.2 293.46 685.1 293.08C712.12 276.66 741.34 264.11 771.89 255.81C802.44 247.5 833.99 243.54 865.64 244.02C897.29 244.5 928.75 249.41 959.01 258.62C989.28 267.83 1018.11 281.24 1044.65 298.52C1053.05 304.01 1064.08 303.39 1072.15 297.57L1336.99 105.14ZM1412.22 1000.03L1412.12 999.98L1412.12 1000.03L1412.22 1000.03ZM1412.12 999.98L1412.12 180.16L1086.85 416.4C1066.8 431.01 1038.78 429.96 1020.83 412.77C939.58 335.41 814.33 327.2 723.44 393.21L560.85 511.33L560.8 511.33L373.96 647.01C370.19 649.73 366.71 652.83 363.51 656.27C360.36 659.66 357.54 663.38 355.11 667.39C352.67 671.35 350.62 675.55 349.04 679.94C347.42 684.28 346.28 688.82 345.56 693.4C344.8 698.03 344.51 702.66 344.7 707.33C344.84 711.96 345.51 716.59 346.61 721.12C347.66 725.66 349.19 730.05 351.14 734.3C353.1 738.5 355.49 742.55 358.26 746.28C360.98 750.05 364.08 753.58 367.47 756.73C370.91 759.88 374.63 762.74 378.59 765.18C382.6 767.61 386.8 769.61 391.15 771.24C395.54 772.86 400.07 774 404.66 774.72C409.29 775.44 413.92 775.72 418.6 775.58C423.23 775.39 427.86 774.77 432.39 773.67C436.93 772.57 441.37 771.05 445.57 769.09C449.81 767.13 453.82 764.75 457.6 762.03L721.1 570.7C728.31 565.45 736.28 561.39 744.77 558.62C753.27 555.9 762.1 554.47 771.03 554.47C779.96 554.47 788.83 555.9 797.28 558.62C805.78 561.39 813.75 565.45 821.01 570.7L1412.12 999.98Z" />
</svg>