<svg version="1.2" xmlns="http://www.w3.org/2000/svg" viewBox="0 0 1544 1064" width="1544" height="1064">
	<title>Riley_Exploration_Permian_Logo-svg</title>
	<style>
		.s0 { fill: #b1adaa } 
		.s1 { fill: #26a649 } 
		.s2 { fill: #777171 } 
		.s3 { fill: #3b3a38 } 
		.s4 { fill: #030504 } 
	</style>
	<g id="#b1adaaff">
		<path id="Layer" class="s0" d="m320.6 130.6c131.6-87 289.7-133.5 447.5-130.4c-2.7 18.3-5 36.5-7.5 54.8c-138.1-1.2-276.3 37.8-393.4 111.1c-5.4 3.1-10.2 7.4-16.1 9.4c-10.9-14.5-20.6-29.8-30.5-44.9z"/>
		<path id="Layer" class="s0" d="m1243.1 167.3c127.6 98.9 224 237.9 270.7 392.6c-17.9 3.9-35.8 8-53.7 12.1c-43.8-141.2-131.7-268.2-248.1-359.2c10-15.4 20.7-30.4 31.1-45.5z"/>
		<path id="Layer" class="s0" d="m89.1 364.7c16.6 8.4 32.9 17.1 49.7 25.1c-37.5 56.4-66.3 118.6-86.5 183.3c-17.4-5.9-34.8-12-52.2-18c21.2-67 51.1-131.3 89-190.4z"/>
		<path id="Layer" class="s0" d="m1465.5 987.5c11.4-40.6 19.3-82.2 23.7-124.2c18.2 1.2 36.3 2.6 54.6 3.5c-3.8 45.2-13.1 89.7-24.6 133.5c-18-4.2-35.9-8.4-53.7-12.8z"/>
	</g>
	<g id="#26a649ff">
		<path id="Layer" class="s1" d="m890.2 96c6.1 0.1 12 1.6 17.8 2.9c139.6 31 269 106 365.4 211.5c-16.6 14.4-34.5 27.2-51.6 41.1c-89.8-96.6-210.1-164.9-339.6-190.7c0.9-18.6 5-37 6.7-55.6q-0.8-2.4-1.7-4.8c0.2-0.5 0.5-1.4 0.6-1.9c0.6-0.6 1.8-1.9 2.4-2.5z"/>
		<path id="Layer" class="s1" d="m491.4 132.4c25.3-10 51-19 77.3-25.7c4.2 21.5 8.4 43 12.2 64.6c-118.3 33.2-226.6 101.3-307.7 193.6c-21 23.6-40.1 48.9-57.3 75.4c-17.8-12.6-35.8-24.9-53.3-38c2-4.7 5.2-8.6 8-12.7c78.6-114.8 191.6-205.7 320.8-257.2z"/>
		<path id="Layer" class="s1" d="m1394 733.9c21.3-3.6 42.3-8.2 63.6-11.7c6.4 75.7 2.1 152.5-15.3 226.6c-7.8 33.4-18 66.2-30.6 98.1c-20.2-8.1-40.3-16.6-60.6-24.7c12.6-34.4 23.6-69.4 30.7-105.3c6.8-32.5 10.6-65.6 12.3-98.7c1.2-28.1 0.2-56.2-0.1-84.3z"/>
	</g>
	<g id="#777171ff">
		<path id="Layer" class="s2" d="m522.9 274.7c107.1-52.3 231.6-66.7 348.1-42.7c-7.6 36.7-15.1 73.4-22.9 110.1c-30.8-6-62.2-9.1-93.7-8.6q-0.2 3.5-0.3 7c-0.5-2.4-1-4.7-1.4-7.1c-62.1 1.1-124.4 14.8-180.3 42.1c-6.4-12.4-12.4-25-18.5-37.5c-10.3-21.1-20.5-42.3-31-63.3z"/>
		<path id="Layer" class="s2" d="m1073.5 409.9c15.6-19.7 31-39.5 46.8-59c71.4 56.8 127.3 132.4 162.6 216.4c25.2 60.1 40.4 124.8 41.8 190.1c-24.2 1-48.4 1.1-72.6 1.9c-13.2 0.6-26.3 0.9-39.5 0.8c-0.6-18.5-2.3-37-5.5-55.3c-10.9-63.2-36.2-123.7-72.8-176.3c-23.3-33.7-51.8-63.9-83.7-89.5c7.6-9.7 15.3-19.3 22.9-29.1z"/>
		<path id="Layer" class="s2" d="m251.5 519c23-41.5 51.3-80.2 84.2-114.4c17.9 17.6 36.6 34.4 54.3 52.2c8.6 8.7 17.7 16.8 26.4 25.3c-8.8 9.7-18.7 18.5-25.9 29.5c-4.5 7.3-10.1 13.8-15 20.8c-9.3 13.2-17.8 26.9-25.6 41c-32.8-18.2-65.6-36.3-98.4-54.4z"/>
	</g>
	<g id="#3b3a38ff">
		<path id="Layer" class="s3" d="m947 332.8c45.6 19.3 88.5 45.3 126.5 77.1c-7.6 9.8-15.3 19.4-22.9 29.1c31.9 25.6 60.4 55.8 83.7 89.5c-13.8 10.8-27.7 21.3-41.4 32.1c-44-64.2-106.5-115.7-178.2-146c10.6-27.3 21.7-54.5 32.3-81.8z"/>
		<path id="Layer" class="s3" d="m572.4 375.5c55.9-27.3 118.2-41 180.3-42.1c0.4 2.4 0.9 4.7 1.4 7.1c1.6 13.9 1.6 28 3 42c-65.6-0.3-131.3 15.8-189.3 46.5c-52.7 27.6-99.1 66.9-135.3 114.1c-13.9-10.6-28-20.9-42-31.5c7.2-11 17.1-19.8 25.9-29.5c-8.7-8.5-17.8-16.6-26.4-25.3c46.1-50 101.9-90.9 163.9-118.8c6.1 12.5 12.1 25.1 18.5 37.5z"/>
		<path id="Layer" class="s3" d="m1158.2 716.6q24.5-5.8 48.9-11.8c3.2 18.3 4.9 36.8 5.5 55.3c13.2 0.1 26.3-0.2 39.5-0.8c5.5 80.9-8.5 163.1-41.4 237.2c-10.3 23.3-22.4 45.7-36 67.1c-24.5-16-49.1-32-73.7-48c40-62.6 62.5-136.3 64.3-210.6c1-29.6-2.1-59.2-7.1-88.4z"/>
	</g>
	<g id="#030504ff">
		<path id="Layer" fill-rule="evenodd" class="s4" d="m135.3 591c17.3 0.4 34.5-0.6 51.8-0.3c17.9 0.3 35.8-0.9 53.7 1.2c17.8 2.7 35.6 11.4 45.8 26.8c11.1 16.3 15 37.8 9.4 56.9c-4.3 15.3-15.1 28.5-29.2 36c-6.9 3.8-14.7 5.8-22.4 7.6c20.9 10.1 34.7 30.1 45.9 49.7c9.2 15.2 17.9 30.8 27.5 45.8c6.1 8.9 12.5 18.4 22.1 23.8c4.4 2.7 9.5 3.7 14.4 5.3c-0.3 0.6-0.8 1.8-1.1 2.4c-15.4 0.5-30.8 0-46.1 0.3c-21.6-27.7-37.7-59.1-56.7-88.5c-8.9-12.7-19.9-24.8-34.3-31.3c-8.4-4-17.8-4.5-27-4.7c0.1 29.3 0.1 58.6 0.1 87.9c-0.2 8.8 0.1 18.8 6.6 25.5c5.4 5.8 13.6 7.2 21.1 8c0 0.7 0 2.3 0 3c-27.2 0-54.4 0.1-81.5 0c-0.1-0.7-0.3-2.2-0.4-3c6.8-1 14.4-1.8 19.6-7c5.1-4.6 7.7-11.5 7.6-18.3c0.1-65.4 0-130.8 0-196.3c0.2-6.5-0.8-13.7-5.3-18.9c-5.4-6.1-13.7-8.7-21.7-8.2c0.1-1 0.1-2.8 0.1-3.7zm53.9 8.3c0 38.5 0 77 0 115.5c15-0.1 30.5 0.9 45-3.9c12.8-3.8 24.7-12.5 29.7-25.2c6.6-16.1 6-34.7 0.3-51c-4.8-13.9-15.7-25.4-29-31.4c-14.4-6-30.7-6.5-46-4z"/>
		<path id="Layer" class="s4" d="m370.7 594.1q0.2-1.7 0.3-3.4c21.5-0.2 43 0.4 64.5 0c6.1 0.3 12.7-1.2 18.4 1.9c-6.1 2.4-13.3 2-18.9 6c-7.4 4.3-10.4 13.4-10.4 21.6c0 64.8 0 129.8 0 194.6c-0.1 7.3 1.5 15.1 6.9 20.4c5.5 5.3 13.1 7.6 20.6 8.3c0.1 0.7 0.1 2.2 0.2 2.9c-27.2 0.1-54.3 0-81.4 0c-0.1-0.7-0.2-2.2-0.2-2.9c6.9-0.8 14-2.3 19.3-7c5.9-4.7 7.7-12.7 7.7-19.9q0-98.2 0-196.3c0-6.6-1.1-13.6-5.8-18.5c-5.5-5.6-13.5-7.6-21.2-7.7z"/>
		<path id="Layer" class="s4" d="m477.6 592.5c5.2-2.8 11.2-1.6 16.8-1.8c20.7 0.4 41.4-0.3 62.2 0q3.5 0.2 6.8 1.8c-6.4 2.6-13.7 2.7-19.5 6.8c-7.2 4.2-9.6 13.2-9.7 21c0 63.8 0 127.6 0 191.4c0.1 8.5 3.2 18.2 11.5 22.1c12.5 5.9 26.8 4 40.3 4.3c12.3 0.1 26.1-0.1 36.2-8.1c8-6.7 11.8-16.8 15.9-26.1c0.8 0 2.4 0.1 3.3 0.1c-3.2 14.2-6.7 28.2-9.7 42.4c-51.1-0.1-102.2 0.3-153.3-0.2l1.6-2.5c5-0.9 10.3-0.9 14.6-3.9c8.1-4.7 12.1-14.2 12.1-23.3c0-64.9 0-129.8 0-194.7c-0.1-8.2-2-17.7-9.6-22.3c-5.7-4.3-13.1-4.5-19.5-7z"/>
		<path id="Layer" class="s4" d="m658.5 591c40.1-0.7 80.2 0 120.4-0.3c10.7 0.7 21.5-0.6 32.2 0.3c-0.2 13.8 0.4 27.6-0.3 41.4c-3-1.4-2.6-4.7-3.1-7.4c-0.7-7.6-5.1-14.7-11.5-18.8c-8-5.3-17.8-6.7-27.1-6.9c-18.9-0.1-37.7 0.1-56.6-0.1c0 38.4 0.1 76.9 0 115.3c15.6 0 31.2 0 46.7 0c9.1 0.1 18.4-1.4 26.6-5.4c7.3-3.9 9.5-12.4 10.7-19.9c0.7 0.1 2 0.3 2.7 0.4c-0.2 19.8 0.5 39.7-0.4 59.5c-3.2-2-3.4-6-4.6-9.2c-1.8-5.6-5.7-10.4-10.7-13.5c-5.4-3-11.8-2.8-17.7-3.5c-17.8-0.3-35.5 0-53.3-0.2c0.1 30.8 0 61.5 0.1 92.2c0.5 7.2 1.7 15.8 8 20.2c8.9 4.7 19.3 2.5 28.9 3c14.2-0.5 28.9 1.7 42.5-2.9c9.7-3.3 17.3-11.1 21.4-20.3c2-3.5 2.4-8.4 6.6-10c-2.7 13.9-5.8 27.8-9.1 41.6c-50.7-0.1-101.5 0-152.2 0c-0.1-0.8-0.2-2.3-0.2-3c6.6-0.2 13.5-1.6 18.6-6.2c7-5.1 8.7-14.4 8.9-22.5q0-95.7 0-191.3c-0.3-9-2.2-19-9.3-25.3c-4.9-4.2-11.8-3.9-17.8-3.9c-0.1-0.8-0.3-2.5-0.4-3.3z"/>
		<path id="Layer" class="s4" d="m830 590.5c7.5 0.7 15.1 0.6 22.6 0.2c22.6-0.1 45.3 0 67.9 0c0 0.8 0.1 2.6 0.2 3.5c-7.3 0.1-16.4 1.3-19.7 8.9c-4.1 6.4-0.8 13.9 3 19.6c18.1 27.3 36.6 54.3 54.8 81.6c16.4-25.1 33.2-50 49.6-75c4.3-7.2 9.1-15.2 7.9-23.9c-1.4-6.7-7.9-10.2-14.2-11.3c-0.3-0.7-0.9-2-1.2-2.7c14.3-1.5 28.6-0.1 42.8-0.7c8.3 1.2 17.1-1.9 24.9 1.8c-6.7 2.7-14.4 2.3-20.7 6.1c-16.1 8-25.3 24.1-34.9 38.4q-25.4 38.1-50.7 76.4c0.1 34.9-0.1 69.9 0 104.8c0 7.5 3.6 15 9.9 19.2c5.2 3.9 11.8 5.2 18.1 6c0.1 0.8 0.2 2.2 0.2 3c-27.2 0.1-54.4 0-81.5 0c-0.1-0.7-0.2-2.3-0.2-3c6.4-0.8 13.2-1.8 18.3-6.2c5.8-4.4 8.3-11.9 8.3-18.9c0-32.3-0.1-64.5 0-96.7c0-2.2 0-4.6-1.6-6.4c-17.8-26.8-35.7-53.5-53.6-80.3c-7.7-11.1-14.3-23.4-24.5-32.5c-7-6.3-16.6-8.2-25.8-8.2c0-0.9 0.1-2.7 0.1-3.7z"/>
		<path id="Layer" fill-rule="evenodd" class="s4" d="m815.6 860q5.7 0 11.4-0.1c16.2 45.5 31.8 91.2 47.9 136.7c2.3 5.6 4.7 11.5 9.3 15.7c3 2.6 7.1 2.7 10.8 3.6c-0.3 0.5-0.8 1.4-1 1.9q-25.3 0-50.5 0c0-0.5-0.1-1.6-0.2-2.1c4.8-0.5 10.1 0.1 14.3-2.7c3.9-4.8 1.6-11.3 0-16.6c-4.7-14-9.5-27.9-14.1-42c-17.8 0.2-35.7 0.1-53.5 0.1c-4.5 14.8-9.9 29.4-14 44.4c-1.5 4.7-0.6 9.5 0.9 14c3.5 1.6 7.1 2.5 10.9 3.1v1.8c-12.2 0-24.4 0-36.6 0l-0.1-1.9c9.9-1.1 16.4-9.5 19.2-18.4c15.3-45.8 30-91.8 45.3-137.5zm0.3 15c-8.4 24.3-15.8 49-23.9 73.3c16.3 0.1 32.6 0 48.9 0.1c-8.4-24.4-17.2-48.8-25-73.4z"/>
		<path id="Layer" fill-rule="evenodd" class="s4" d="m135.5 863.5c2.3-1.1 4.8-1.8 7.4-1.6c14.7 0 29.5 0 44.2 0c10.9 0 22.2 1.8 31.7 7.4c10.1 5.7 18 15.7 20.1 27.2c3.3 15.1-2.9 32.1-15.9 40.6c-15.7 10.2-35.4 10.9-53.3 8.2c-0.1 17.6 0 35.2-0.1 52.8c-0.1 4.5 0.9 9.5 4.1 12.9c3.3 3.6 8.4 4.1 13 4.9c-0.1 0.4-0.3 1.4-0.4 1.8c-13.9 0.1-27.9 0-41.8 0.1c-3.1 0-6.2-0.2-9.1-1.1c4.7-1.6 10.2-2.1 13.9-5.7c3.3-3.4 4.1-8.5 4.1-13c-0.1-38.7 0-77.4-0.1-116.1c0.2-5-0.9-10.4-4.8-13.9c-3.6-3.2-8.7-3.2-13-4.5zm34.2 4.4c0 24.3-0.2 48.7 0 73c13.3 1.7 28 2.6 39.5-5.3c9.9-6 12.1-18.5 12-29.1c0.5-12.4-3.6-25.6-13.7-33.4c-10.8-7.9-25.2-7.4-37.8-5.2z"/>
		<path id="Layer" class="s4" d="m251.1 862.3c31.4-0.9 62.8-0.1 94.2-0.5c-0.6 8.8 1.4 17.9-1.1 26.4c-1.3-4.6-1.1-9.9-4.5-13.7c-4.7-5.1-11.8-7-18.5-7c-11.9-0.1-23.9 0.1-35.8 0c0 23.2 0 46.5 0 69.8c9.8-0.1 19.5 0 29.2-0.1c6.1-0.1 12.8-0.8 17.7-4.9c2.8-3.4 3.4-8 5.3-11.9c0.9 12.9 0.9 25.9 0 38.8c-2.7-5.8-4.5-13.6-11.6-15.5c-13.4-2.1-27.1-0.5-40.6-1.1c0.1 18.5-0.1 36.9 0.1 55.4c0.2 5.2 1.2 12.1 7 13.7c6.7 1.3 13.6 0.5 20.4 0.7c8.8-0.1 18.7 1.2 26.2-4.5c5.8-3.8 7.5-11 11.6-16.3c-1.1 8.9-3.5 17.5-5.5 26.2c-29.3-0.1-58.6 0-87.9 0q-3.2-0.1-6.1-1.3c4.1-1.1 8.8-1.2 12.3-4.1c4.5-3.3 5.6-9.3 5.6-14.5c0-38.1 0-76.2 0-114.3c0-5.8-0.9-12.2-5.2-16.5c-3.6-3.1-8.9-2.3-12.8-4.8z"/>
		<path id="Layer" fill-rule="evenodd" class="s4" d="m362.8 861.9c18.3 0 36.5 0 54.8 0c11.8 0.1 24.2 3.4 32.9 11.7c12.9 12.8 15.7 34.9 5.7 50.2c-5.7 9.2-16 14.3-26.4 16.5c5.6 3.3 11 7.1 15.1 12.1c14 16.7 21.7 37.7 35.5 54.5c4.1 5.5 10.9 7.3 16.7 10.6c-9.9 0.6-19.8 0.1-29.7 0.3c-11.6-14.7-20.5-31.3-30.4-47.2c-5.4-9.4-12.4-18.4-21.8-24.2c-5.9-3.6-12.9-4-19.5-4.6c-0.1 18.7-0.1 37.5-0.1 56.2c0.1 4.9 1 10.3 4.9 13.7c3.8 3.2 9.1 3.1 13.3 5.7c-17 0.8-34 0.2-50.9 0.3c-0.1-0.4-0.2-1.3-0.3-1.8c4.4-0.8 9.4-1.3 12.5-4.9c4-3.7 4.2-9.5 4.3-14.7c-0.2-39.1 0.2-78.3-0.2-117.5c0.4-9-8.3-15.1-16.7-14.5zm32.9 5.1c-0.1 23.6 0 47.2 0 70.8c11.3-0.1 23.3 0.2 33.6-5.3c7.5-3.7 12.5-11.3 13.8-19.4c3.1-14.7-1.7-32.2-14.8-40.7c-9.5-6.4-21.6-6.3-32.6-5.4z"/>
		<path id="Layer" class="s4" d="m506 864.2c0.1-0.6 0.3-1.7 0.3-2.3c12.1 0 24.1 0 36.1 0c16.2 42.2 32 84.7 48.2 126.9c15.8-42.4 32.3-84.6 48.6-126.9c10.9 0 21.7 0 32.6 0c0.1 0.5 0.2 1.7 0.2 2.2c-5.7 0.3-12 2.2-14.8 7.6c-2.3 7.1-1.2 14.6-0.7 21.8c1.2 27.7 2.5 55.4 3.8 83.1c0.5 9.3 0.3 18.7 1.9 27.9c0.9 4 3.3 8.1 7.4 9.6c3.5 1.3 7.4 1.4 11 2.3c-2.6 0.9-5.2 1.5-8 1.4q-18.7-0.1-37.5 0c-2.7 0-5.5-0.4-8.1-1.2c5-2 11.4-2.2 14.8-6.9c4-5.9 2.4-13.4 2.5-20.1c-1.6-37.9-3.3-75.8-5.1-113.7c-18 47.6-36.9 94.9-55 142.4c-17.4-45.7-34.6-91.5-52.3-137.2c-1.3 36.8-3.6 73.6-5.4 110.4c-0.2 6.3-0.3 13.3 3.5 18.7c3.1 3.9 8.4 4.4 12.9 5.7c-0.2 0.5-0.5 1.4-0.7 1.9c-13 0-25.9-0.1-38.9 0l-0.3-2c6.6 0 13.7-3.2 15.7-9.9c3.3-10.5 2.5-21.6 3.5-32.4c1.8-33 3.6-65.9 5.5-98.9c-5.1-6.8-13.1-10.9-21.7-10.4z"/>
		<path id="Layer" class="s4" d="m688.8 863.3c2.6-1.3 5.5-1.5 8.4-1.4q17.9 0 35.9 0c2.7-0.2 5.5 0.3 8.1 1.4c-8.4 0.9-18.2 5.1-18.1 15c-0.4 36.6 0 73.2-0.2 109.8c0.2 6.5-0.9 13.4 2 19.5c2.8 5.3 9 7.6 14.7 8.3l-0.3 1.9c-14.1-0.1-28.1 0-42.2 0c-2.8 0.1-5.7-0.3-8.4-1.2c7.6-1.1 17.2-4.9 17.6-14c0.3-40.2 0-80.5 0.1-120.8c0-4.3 0-9.2-3.1-12.6c-3.6-4.1-9.6-4.5-14.5-5.9z"/>
		<path id="Layer" class="s4" d="m897.1 862.2c10.2-0.7 20.4-0.1 30.6-0.3c39.2 43.7 78.2 87.6 117.3 131.4c-0.2-35.1 0.2-70.1-0.2-105.1c-0.3-6.6 0.4-14.3-4.5-19.4c-3.6-4.4-10-3.3-14.3-6.5c14-0.7 28.2-0.6 42.2-0.1c-4.9 3.7-12.8 2.6-15.6 9c-4.1 9.5-1.1 20.2-2.5 30.3c0.9 28.4-0.5 56.7 0.3 85.1c-1 12 0.4 24 0 36c-12.3-11.7-22.8-25.2-34.4-37.5c-28.7-32.1-57.5-64.1-86.1-96.3c0 33.1 0 66.2 0 99.4c0.3 7-0.1 14.4 3.2 20.9c2.6 5 8.8 5.9 13.8 6.7c0 0.5 0.1 1.5 0.1 2c-11.4-0.1-22.7 0-34.1 0q-3.3 0-6.4-1.2c5.1-1.6 11.7-1.9 14.6-7.2c3.1-6 3.1-13 3.6-19.6c0.2-35.6-0.1-71.1 0.1-106.7c-4.3-4.9-8.5-10-13.6-14.1c-4.2-3.4-10-3.4-14.1-6.8z"/>
	</g>
</svg>