<svg version="1.2" xmlns="http://www.w3.org/2000/svg" viewBox="0 0 1544 1064" width="1544" height="1064">
	<title>Riley_Exploration_Permian_Logo-svg</title>
	<style>
		.s0 { fill: #b1adaa } 
		.s1 { fill: #26a649 } 
		.s2 { fill: #777171 } 
		.s3 { fill: #3b3a38 } 
	</style>
	<g id="#b1adaaff">
		<path id="Layer" class="s0" d="m320.6 130.6c131.6-87 289.7-133.5 447.5-130.4c-2.7 18.3-5 36.5-7.5 54.8c-138.1-1.2-276.3 37.8-393.4 111.1c-5.4 3.1-10.2 7.4-16.1 9.4c-10.9-14.5-20.6-29.8-30.5-44.9z"/>
		<path id="Layer" class="s0" d="m1243.1 167.3c127.6 98.9 224 237.9 270.7 392.6c-17.9 3.9-35.8 8-53.7 12.1c-43.8-141.2-131.7-268.2-248.1-359.2c10-15.4 20.7-30.4 31.1-45.5z"/>
		<path id="Layer" class="s0" d="m89.1 364.7c16.6 8.4 32.9 17.1 49.7 25.1c-37.5 56.4-66.3 118.6-86.5 183.3c-17.4-5.9-34.8-12-52.2-18c21.2-67 51.1-131.3 89-190.4z"/>
		<path id="Layer" class="s0" d="m1465.5 987.5c11.4-40.6 19.3-82.2 23.7-124.2c18.2 1.2 36.3 2.6 54.6 3.5c-3.8 45.2-13.1 89.7-24.6 133.5c-18-4.2-35.9-8.4-53.7-12.8z"/>
	</g>
	<g id="#26a649ff">
		<path id="Layer" class="s1" d="m890.2 96c6.1 0.1 12 1.6 17.8 2.9c139.6 31 269 106 365.4 211.5c-16.6 14.4-34.5 27.2-51.6 41.1c-89.8-96.6-210.1-164.9-339.6-190.7c0.9-18.6 5-37 6.7-55.6q-0.8-2.4-1.7-4.8c0.2-0.5 0.5-1.4 0.6-1.9c0.6-0.6 1.8-1.9 2.4-2.5z"/>
		<path id="Layer" class="s1" d="m491.4 132.4c25.3-10 51-19 77.3-25.7c4.2 21.5 8.4 43 12.2 64.6c-118.3 33.2-226.6 101.3-307.7 193.6c-21 23.6-40.1 48.9-57.3 75.4c-17.8-12.6-35.8-24.9-53.3-38c2-4.7 5.2-8.6 8-12.7c78.6-114.8 191.6-205.7 320.8-257.2z"/>
		<path id="Layer" class="s1" d="m1394 733.9c21.3-3.6 42.3-8.2 63.6-11.7c6.4 75.7 2.1 152.5-15.3 226.6c-7.8 33.4-18 66.2-30.6 98.1c-20.2-8.1-40.3-16.6-60.6-24.7c12.6-34.4 23.6-69.4 30.7-105.3c6.8-32.5 10.6-65.6 12.3-98.7c1.2-28.1 0.2-56.2-0.1-84.3z"/>
	</g>
	<g id="#777171ff">
		<path id="Layer" class="s2" d="m522.9 274.7c107.1-52.3 231.6-66.7 348.1-42.7c-7.6 36.7-15.1 73.4-22.9 110.1c-30.8-6-62.2-9.1-93.7-8.6q-0.2 3.5-0.3 7c-0.5-2.4-1-4.7-1.4-7.1c-62.1 1.1-124.4 14.8-180.3 42.1c-6.4-12.4-12.4-25-18.5-37.5c-10.3-21.1-20.5-42.3-31-63.3z"/>
		<path id="Layer" class="s2" d="m1073.5 409.9c15.6-19.7 31-39.5 46.8-59c71.4 56.8 127.3 132.4 162.6 216.4c25.2 60.1 40.4 124.8 41.8 190.1c-24.2 1-48.4 1.1-72.6 1.9c-13.2 0.6-26.3 0.9-39.5 0.8c-0.6-18.5-2.3-37-5.5-55.3c-10.9-63.2-36.2-123.7-72.8-176.3c-23.3-33.7-51.8-63.9-83.7-89.5c7.6-9.7 15.3-19.3 22.9-29.1z"/>
		<path id="Layer" class="s2" d="m251.5 519c23-41.5 51.3-80.2 84.2-114.4c17.9 17.6 36.6 34.4 54.3 52.2c8.6 8.7 17.7 16.8 26.4 25.3c-8.8 9.7-18.7 18.5-25.9 29.5c-4.5 7.3-10.1 13.8-15 20.8c-9.3 13.2-17.8 26.9-25.6 41c-32.8-18.2-65.6-36.3-98.4-54.4z"/>
	</g>
	<g id="#3b3a38ff">
		<path id="Layer" class="s3" d="m947 332.8c45.6 19.3 88.5 45.3 126.5 77.1c-7.6 9.8-15.3 19.4-22.9 29.1c31.9 25.6 60.4 55.8 83.7 89.5c-13.8 10.8-27.7 21.3-41.4 32.1c-44-64.2-106.5-115.7-178.2-146c10.6-27.3 21.7-54.5 32.3-81.8z"/>
		<path id="Layer" class="s3" d="m572.4 375.5c55.9-27.3 118.2-41 180.3-42.1c0.4 2.4 0.9 4.7 1.4 7.1c1.6 13.9 1.6 28 3 42c-65.6-0.3-131.3 15.8-189.3 46.5c-52.7 27.6-99.1 66.9-135.3 114.1c-13.9-10.6-28-20.9-42-31.5c7.2-11 17.1-19.8 25.9-29.5c-8.7-8.5-17.8-16.6-26.4-25.3c46.1-50 101.9-90.9 163.9-118.8c6.1 12.5 12.1 25.1 18.5 37.5z"/>
		<path id="Layer" class="s3" d="m1158.2 716.6q24.5-5.8 48.9-11.8c3.2 18.3 4.9 36.8 5.5 55.3c13.2 0.1 26.3-0.2 39.5-0.8c5.5 80.9-8.5 163.1-41.4 237.2c-10.3 23.3-22.4 45.7-36 67.1c-24.5-16-49.1-32-73.7-48c40-62.6 62.5-136.3 64.3-210.6c1-29.6-2.1-59.2-7.1-88.4z"/>
	</g>
</svg>