<svg version="1.2" xmlns="http://www.w3.org/2000/svg" viewBox="0 0 1249 1533" width="1249" height="1533">
	<title>RGTI_BIG copy-svg</title>
	<style>
		.s0 { fill: #51b2ac } 
	</style>
	<g id="Layer_2">
		<g id="Layer_1-2">
			<path id="Layer" fill-rule="evenodd" class="s0" d="m1248 0.5v295.6c-0.5 24.2-5.4 47.9-15.3 70.1c-9.4 22.7-23.7 42.4-41 59.2c-17.7 16.8-38.5 30.1-61.2 39c-22.2 8.9-46.4 12.9-71.1 12.4h-377.6c-24.2-0.5-47.9 3.9-70.2 12.8c-22.7 8.9-42.9 22.2-60.2 39c-16.8 16.8-30.6 37-40 58.7c-9.9 22.2-14.8 45.9-14.8 70.1v674.2c-1 26.7-6.4 53.3-17.3 78c-10.8 24.2-26.1 46.4-45.4 65.2c-19.2 18.7-42 33.5-67.1 43.4c-24.7 9.9-51.4 14.8-78 14.3h-287.9v-878.5c0.5-24.2 5.5-47.9 15.3-70.6c9.4-22.2 23.7-42 41-58.8c17.8-17.2 38.5-30.1 60.7-39c22.8-8.8 46.9-12.8 71.6-12.3h125.4c24.2 0.5 47.9-3.9 70.1-12.8c22.3-9.4 42.5-22.2 59.8-39c17.3-16.8 31.1-37 40.5-58.8c9.3-22.2 14.3-45.9 14.8-70v-111.6c0.5-24.2 5.4-48.4 15.3-70.6c9.4-22.2 23.7-42.4 41-59.2c17.7-16.8 38.5-30.1 61.2-38.5c22.7-8.9 46.9-13.3 71.1-12.3z"/>
		</g>
	</g>
</svg>