<svg version="1.2" xmlns="http://www.w3.org/2000/svg" viewBox="0 0 1538 1327" width="1538" height="1327">
	<title>Market_Briefings_24022022a-2-pdf-svg</title>
	<defs>
		<clipPath clipPathUnits="userSpaceOnUse" id="cp1">
			<path d="m-9316.57-15736.17h12533.86v17728.41h-12533.86z"/>
		</clipPath>
	</defs>
	<style>
		.s0 { fill: #0b2f50 } 
	</style>
	<g id="Clip-Path: Page 1" clip-path="url(#cp1)">
		<g id="Page 1">
			<path id="Path 6" fill-rule="evenodd" class="s0" d="m1375.6 1246.9c0-43.2 30.5-77.9 73.7-77.9 45.2 0 71.5 34.7 71.5 80v6.3h-121c2.1 27.4 22.1 51.6 54.7 51.6 16.9 0 33.7-7.4 45.3-19l11.6 14.8c-14.8 14.7-34.8 23.1-60 23.1-44.2 0-75.8-31.5-75.8-78.9zm73.7-59c-31.6 0-48.4 27.4-49.5 50.6h98.9c-1-23.2-15.7-50.6-49.4-50.6zm-160 134.8v-150.6h23.2v24.3c11.6-15.8 29.4-27.4 49.4-27.4v24.2c-2.1 0-5.2-1.1-9.4-1.1-13.7 0-33.7 11.6-40 24.3v106.3zm-57.9 0v-17.9c-12.6 13.7-29.5 21-49.5 21-25.2 0-52.6-16.8-52.6-49.4 0-33.7 27.4-49.5 52.6-49.5 20 0 36.9 6.3 49.5 21v-27.3c0-20-15.8-31.6-37.9-31.6-17.9 0-32.6 6.3-46.3 21l-10.5-16.8c16.8-15.8 35.8-24.2 60-24.2 31.5 0 57.8 13.7 57.8 50.5v103.2zm0-31.6v-28.4c-9.4-12.7-25.2-19-41-19-22.1 0-36.8 13.7-36.8 32.7 0 18.9 14.7 32.6 36.8 32.6 15.8 0 31.6-6.3 41-17.9zm-308.3-71.6c0-64.2 46.3-107.4 106.3-107.4 35.8 0 61 17.9 77.9 41.1l-22.1 11.6c-11.6-16.9-32.7-29.5-55.8-29.5-45.3 0-80 34.7-80 84.2 0 48.4 34.7 83.2 80 83.2 23.1 0 44.2-11.6 55.8-29.5l22.1 11.6c-16.9 24.2-42.1 41-77.9 41-60 0-106.3-43.1-106.3-106.3zm-111.6 103.2v-99c0-26.3-13.6-33.7-33.6-33.7-17.9 0-35.8 10.6-44.2 23.2v109.5h-23.2v-207.4h23.2v78.9c10.5-12.6 30.5-25.2 53.6-25.2 31.6 0 47.4 14.7 47.4 47.4v106.3zm-187.3-31.6v-97.9h-24.2v-21.1h24.2v-40h23.1v40h30.5v21.1h-30.5v92.6c0 11.6 5.3 19 15.8 19 6.3 0 12.6-2.1 15.8-6.3l6.3 17.9c-5.2 5.2-13.7 9.4-27.3 9.4-22.1 0-33.7-12.6-33.7-34.7zm-73.7-175.8h24.2v207.4h-24.2zm-66.3 207.4v-16.9c-12.6 13.7-29.5 21.1-49.5 21.1-25.2 0-52.6-16.9-52.6-49.5 0-33.7 27.4-49.5 52.6-49.5 20 0 36.9 6.3 49.5 20v-26.3c0-20-15.8-31.6-37.9-31.6-17.9 0-32.6 6.3-46.3 20l-10.5-15.8c15.8-16.8 35.8-24.2 60-24.2 31.6 0 57.9 13.7 57.9 50.6v102.1zm0-31.6v-28.4c-9.5-11.6-25.3-17.9-41.1-17.9-22.1 0-36.8 13.7-36.8 32.6 0 19 14.7 32.6 36.8 32.6 15.8 0 31.6-6.3 41.1-18.9zm-273.7-43.2c0-43.1 31.6-77.9 73.7-77.9 45.3 0 72.6 34.8 72.6 80v5.3h-121c1.1 28.4 21 52.6 53.7 52.6 16.8 0 33.6-7.3 46.3-18.9l10.5 14.7c-14.7 14.8-34.7 23.2-58.9 23.2-44.2 0-76.9-32.6-76.9-79zm73.7-58.9c-31.6 0-47.3 26.3-48.4 49.5h97.9c-1.1-22.2-15.8-49.5-49.5-49.5zm-137.9 133.7v-94.8h-119.9v94.8h-26.3v-206.4h26.3v88.5h119.9v-88.5h26.4v206.4zm1188.1-291.6c4.2 2.1 12.6 4.2 17.9 4.2 14.7 0 24.2-4.2 29.5-15.8l8.4-19-87.4-218.9h60l56.8 150.5 55.8-150.5h62.1l-102.1 251.6c-15.8 40-44.2 51.6-82.1 52.6-6.3 0-20-2.1-27.3-3.2zm-101.1-33.6v-23.2c-14.7 17.9-39.9 28.4-68.4 28.4-34.7 0-75.7-23.1-75.7-71.6 0-50.5 41-69.4 75.7-69.4 28.5 0 53.7 9.4 68.4 26.3v-29.5c0-22.1-18.9-35.8-47.3-35.8-23.2 0-45.3 8.4-63.2 25.3l-21-37.9c26.3-23.2 60-33.7 93.7-33.7 49.4 0 94.7 18.9 94.7 81v140.1zm0-52.7v-26.3c-9.5-12.6-27.4-18.9-46.3-18.9-22.1 0-40 11.5-40 32.6 0 20 17.9 31.6 40 31.6 18.9 0 36.8-6.3 46.3-19zm-357.8 24.2l25.2-40c15.8 14.8 47.4 29.5 74.7 29.5 24.2 0 35.8-9.5 35.8-23.2 0-35.7-128.4-6.3-128.4-91.5 0-35.8 31.6-67.4 88.4-67.4 36.9 0 66.3 12.6 87.4 29.5l-23.2 38.9c-12.6-14.7-36.8-25.3-63.1-25.3-21.1 0-34.7 9.5-34.7 21.1 0 32.6 128.3 5.3 128.3 92.6 0 39-33.6 69.5-93.6 69.5-37.9 0-73.7-12.6-96.8-33.7zm-89.5 28.5v-136.9c0-20-8.4-33.7-31.6-33.7-21 0-36.8 12.6-45.2 24.2v146.4h-56.8v-136.9c0-20-9.5-33.7-32.7-33.7-18.9 0-35.7 12.6-44.2 25.3v145.3h-56.8v-215.9h56.8v27.4c8.5-12.6 36.9-32.6 70.5-32.6 31.6 0 51.6 14.7 60 38.9 12.7-20 41.1-38.9 73.7-38.9 40 0 63.1 21 63.1 65.3v155.8zm-373.6 0v-23.2c-14.7 17.9-39.9 28.4-67.3 28.4-34.7 0-75.8-23.1-75.8-71.6 0-50.5 41.1-69.4 75.8-69.4 28.4 0 53.7 9.4 67.3 26.3v-29.5c0-22.1-17.8-35.8-47.3-35.8-23.2 0-44.2 8.4-62.1 25.3l-22.1-37.9c26.3-23.2 61-33.7 94.7-33.7 49.5 0 93.7 18.9 93.7 81v140.1zm0-52.7v-26.3c-9.5-12.6-27.4-18.9-45.3-18.9-22.1 0-41 11.5-41 32.6 0 20 18.9 31.6 41 31.6 17.9 0 35.8-6.3 45.3-19zm-238.9 52.7l-57.9-106.4h-46.3v106.4h-64.2v-298h140c62.1 0 99.9 40 99.9 95.8 0 52.7-33.6 81.1-65.2 88.5l67.4 113.7zm6.3-202.2c0-25.2-20-40-45.3-40h-66.3v80h66.3c25.3 0 45.3-14.7 45.3-40zm293.6-794.8h252.6v252.7h-252.6zm283.1 0h252.5v252.6h-252.5zm-283.1 283.2h252.6v252.7h-252.6zm514.6 252.6h-231.5v-230.5zm-208.4-252.7h230.5v230.6z"/>
		</g>
	</g>
</svg>