<svg version="1.2" baseProfile="tiny-ps" xmlns="http://www.w3.org/2000/svg" viewBox="0 0 1508 1503" width="1508" height="1503">
	<title>RG logo_hu-svg</title>
	<style>
		tspan { white-space:pre }
		.shp0 { fill: #00408b } 
	</style>
	<g id="Layer">
		<path id="svg_1" fill-rule="evenodd" class="shp0" d="M126.99 333.97C209.8 210.4 327.52 114.09 465.26 57.21C603 0.33 754.56 -14.55 900.79 14.43C1047.01 43.42 1181.33 114.97 1286.75 220.05C1392.18 325.13 1463.97 459.01 1493.05 604.75C1522.13 750.5 1507.19 901.57 1450.13 1038.86C1393.06 1176.15 1296.44 1293.48 1172.47 1376.03C1048.49 1458.58 902.75 1502.62 753.66 1502.6C553.78 1502.57 362.1 1423.42 220.77 1282.55C79.44 1141.68 0.03 950.63 0 751.41C-0.02 602.8 44.17 457.53 126.99 333.97ZM1125.73 1305.77C1235.85 1232.39 1321.67 1128.11 1372.32 1006.11C1422.97 884.11 1436.19 749.88 1410.29 620.4C1384.4 490.91 1320.56 371.99 1226.85 278.67C1133.13 185.35 1013.76 121.83 883.83 96.15C753.89 70.46 619.23 83.76 496.88 134.37C374.53 184.97 269.99 270.61 196.47 380.44C122.96 490.28 83.78 619.38 83.88 751.41C84.02 928.36 154.66 1098.01 280.25 1223.08C405.84 1348.15 576.12 1418.38 753.66 1418.35C886.12 1418.33 1015.61 1379.16 1125.73 1305.77Z" />
		<path id="svg_2" fill-rule="evenodd" class="shp0" d="M753.77 166.83C909.24 166.89 1058.31 228.49 1168.23 338.08C1278.13 447.67 1339.88 596.28 1339.88 751.24C1339.86 866.8 1305.45 979.76 1241.02 1075.84C1176.59 1171.91 1085.02 1246.79 977.9 1290.99C870.78 1335.2 752.91 1346.75 639.2 1324.18C525.49 1301.61 421.04 1245.95 339.07 1164.22C257.11 1082.49 201.29 978.37 178.69 865.02C156.1 751.67 167.73 634.19 212.11 527.43C256.5 420.67 331.66 329.43 428.07 265.25C524.49 201.06 637.83 166.81 753.77 166.83ZM1126.53 931.89L1126.43 903.63L917.04 903.63L917.04 987.03L1019.11 987.03C1007.07 1011.24 987.51 1030.93 963.33 1043.16C939.15 1055.39 911.66 1059.51 884.94 1054.91C858.23 1050.31 833.71 1037.23 815.06 1017.61C796.41 998 784.61 972.91 781.42 946.07C778.24 919.23 783.84 892.09 797.38 868.68C810.92 845.27 831.69 826.85 856.6 816.15C881.5 805.46 909.2 803.07 935.57 809.34C961.94 815.61 985.58 830.21 1002.95 850.95L1074.96 790.38C1042.55 751.99 997.91 725.84 948.48 716.31C899.06 706.78 847.85 714.44 803.42 738.01L751.74 666.99C781.89 653.63 806.52 630.34 821.5 601.03C836.48 571.72 840.9 538.17 834.01 506.01C827.13 473.84 809.36 445 783.69 424.34C758.02 403.67 726 392.43 693 392.49L452.27 392.49L452.27 830.69L548.56 830.69L548.56 680L639.4 680L728.95 802.53C708.59 830.48 695.15 862.83 689.72 896.94C684.3 931.05 687.04 965.96 697.73 998.82C708.42 1031.67 726.75 1061.54 751.23 1085.98C775.7 1110.43 805.64 1128.76 838.58 1139.47C871.51 1150.19 906.53 1152.99 940.77 1147.65C975 1142.31 1007.48 1128.97 1035.56 1108.73C1063.64 1088.49 1086.51 1061.92 1102.33 1031.19C1118.14 1000.45 1126.43 966.43 1126.53 931.89Z" />
		<path id="svg_3" class="shp0" d="M681.11 476.32L548.55 476.32L548.55 596.4L681.11 596.4C697.08 596.4 712.39 590.08 723.67 578.84C734.96 567.59 741.3 552.33 741.3 536.41C741.3 520.51 734.96 505.25 723.67 494C712.39 482.75 697.08 476.43 681.11 476.43" />
	</g>
</svg>