<svg version="1.2" xmlns="http://www.w3.org/2000/svg" viewBox="0 0 1600 1696" width="1600" height="1696">
	<title>logo (40)-svg</title>
	<style>
		.s0 { fill: #000000 } 
	</style>
	<path id="Layer" class="s0" d="m789.6 1692.8c0 0 227.2-623.7 7-1039.3 0 0 291.7 309.8 159.4 1032.1 0 0-138.5 17.2-166.4 7.2zm-741.5-611.9c0 0-160.9-449.2 106.8-776.6 267.7-327.5 684.7-352.1 956.4-251.2 302.8 112.2 465.6 435.3 484.8 665.3 21.7 269-34.7 665.5-579.7 841.1v-97.6c0 0 346.2-77.1 438.8-448.2 92.6-371.2-137-772.8-463-865.6-326-92.7-623 14.6-778.8 199.7-155.8 185.1-238.5 322.9-165.3 733.1zm761.8 404.6l-26.1 97.9c0 0-367.5-18.9-468.7-259.7-101.3-240.8 3.7-466.2 3.7-466.2 0 0 202.4-466.6 94.7-556.8 0 0 918.1-86.7 895.8 801.2 0 0-48.9-601.9-685.9-631.8 0 0 41.1 56.8-134.9 477.5-1 0-184.6 489.1 321.4 537.9z"/>
</svg>