<svg version="1.2" xmlns="http://www.w3.org/2000/svg" viewBox="0 0 1600 154" width="1600" height="154">
	<title>rocket-companies-logo-svg</title>
	<defs>
		<clipPath clipPathUnits="userSpaceOnUse" id="cp1">
			<path d="m0.13 0.87h682.16v120.14h-682.16z"/>
		</clipPath>
		<clipPath clipPathUnits="userSpaceOnUse" id="cp2">
			<path d="m0.13 0.87h682.16v120.14h-682.16z"/>
		</clipPath>
		<clipPath clipPathUnits="userSpaceOnUse" id="cp3">
			<path d="m0.13 0.87h682.16v120.14h-682.16z"/>
		</clipPath>
	</defs>
	<style>
		.s0 { fill: #ffffff } 
		.s1 { fill: #c8202f } 
	</style>
	<g id="Layer">
		<path id="Layer" fill-rule="evenodd" class="s0" d="m426.5 58.1l47.7 61h-34.2l-43.7-56.9v56.9h-28.6v-116.3h28.6v51.9l42.2-51.9h34zm89.2 37.1h55.4v23.9h-84.1v-116.3h81.5v23.9h-52.8v21.3h47.6v23.2h-47.6zm166.6-92.3v23.9h-35.4v92.4h-28.6v-92.4h-35.5v-23.9z"/>
		<g id="Clip-Path" clip-path="url(#cp1)">
			<path id="Layer" fill-rule="evenodd" class="s0" d="m682.3 2.8v23.9h-35.4v92.4h-28.6v-92.4h-35.5v-23.9zm-614 71.6l35 44.7h-32.8l-41.8-56.1v56.1h-28.7v-116.3h52.5c25 0 42.5 15.5 42.5 37.7 0 15.8-10.2 30.1-26.7 33.9zm-1.6-33.5c0-8.7-6.9-14.7-16.9-14.7h-21v29.4h21c10.2 0 16.9-5.9 16.9-14.7z"/>
		</g>
		<g id="Clip-Path" clip-path="url(#cp2)">
			<path id="Layer" fill-rule="evenodd" class="s1" d="m135.2 64c0 17.4 8.6 27.8 20.3 35.7l-16 21.3c-20-13.5-32.5-32.3-32.5-57 0-36.5 29.1-63.1 65.6-63.1 36.6 0 65.6 26.6 65.6 63.1 0 24.7-12.5 43.5-32.4 57l-16-21.3c11.6-7.9 20.3-18.3 20.3-35.7 0-22.1-16.5-38.1-37.5-38.1-21 0-37.4 16-37.4 38.1z"/>
		</g>
		<g id="Clip-Path" clip-path="url(#cp3)">
			<path id="Layer" fill-rule="evenodd" class="s0" d="m338.9 86.9l15 20.3c-10.9 9.7-24.4 13.8-41 13.8-32.8 0-61.1-23.9-61.1-60.2 0-35.7 28.1-59.9 61.1-59.9 15.9 0 30.1 4.1 40.9 12.6l-15.6 21.2c-6.3-5-13.7-8.8-25.1-8.8-18.1 0-32.7 14.3-32.7 35.4 0 20.7 14.6 34.7 33.2 34.7 10.9 0 18.8-4.1 25.3-9.1z"/>
		</g>
		<path id="Layer" fill-rule="evenodd" class="s0" d="m736.7 63.2c0-35.1 26.5-58.5 58.5-58.5 16.1 0 28.9 5 37.8 12l-10 17.5c-6.1-5.1-15.8-9.8-27.5-9.8-20.4 0-37.1 15.9-37.1 38.6 0 22.1 16.1 38.9 37.3 38.9 13.2 0 22.3-4.8 29.4-10.5l8.8 17.1c-9.8 7.7-22.2 13.1-38.9 13.1-32.9 0-58.3-24.3-58.3-58.4zm147.9 58.4c-24.1 0-43.6-18.8-43.6-42.1 0-23.3 19.5-42.1 43.6-42.1 24.1 0 43.6 18.8 43.6 42.1 0 23.3-19.5 42.1-43.6 42.1zm23.7-42.1c0-13.5-10.6-24.3-23.7-24.3-13.1 0-23.7 10.8-23.7 24.3 0 13.5 10.6 24.3 23.7 24.3 13.1 0 23.7-10.8 23.7-24.3zm165.2-11.2v51.7h-19.3v-45.3c0-13.3-6.1-20.2-15.9-20.2-11.1 0-18.6 8.5-18.6 21v44.5h-19.3v-44.7c0-13.6-6.1-20.8-15.8-20.8-11.1 0-18.6 8-18.6 22v43.5h-19.3v-81h19.3v10.6c5.8-8 15.1-12.4 25.4-12.4 12 0 21.3 5.6 25.7 16.4 5.6-10.9 16.5-16.4 27.8-16.4 18.1 0 28.6 11.4 28.6 31.1zm109.2 11.2c0 24.3-16.3 42.1-39.5 42.1-11.1 0-21.5-4.8-27.1-13.9v45.9h-19.3v-114.6h19.3v12c5.7-8.6 16.2-13.6 27.6-13.6 22.7 0 39 17.6 39 42.1zm-19.9 0c0-13.5-10.6-24.5-23.8-24.5-13.1 0-23.7 11-23.7 24.5 0 13.5 10.6 24.5 23.7 24.5 13.2 0 23.8-11 23.8-24.5zm118.9-40.5v81.2h-19.3v-12.7c-5.7 9.8-15.6 14.1-27.4 14.1-22.9 0-39.3-17.6-39.3-41.9 0-24.7 16.6-42.3 39.1-42.3 12.2 0 22.3 4.6 27.6 13.6v-12zm-18.6 40.5c0-13.5-10.6-24.5-23.7-24.5-13.1 0-23.7 11-23.7 24.5 0 13.5 10.6 24.5 23.7 24.5 13.1 0 23.7-11 23.7-24.5zm118.7-8.6v49.1h-19.2v-44.3c0-12.8-6.2-21-18-21-11.9 0-20 8.6-20 21.3v44h-19.3v-81h19.3v10.7c5.7-8.1 15.1-12.3 26.5-12.3 19.8 0 30.7 12 30.7 33.5zm23.3-31.9h19.3v81h-19.3zm9.9-13.9c-6.6 0-12-5.4-12-11.9 0-6.6 5.4-12 12-12 6.6 0 12 5.4 12 12 0 6.5-5.4 11.9-12 11.9zm109.5 59.9h-62.3c1.6 12.9 10.4 20.3 22.6 20.3 10.2 0 16.7-4.2 21.6-9.1l13.5 9.3c-7 8.4-17.6 16.1-35.2 16.1-25.1 0-41.8-17.7-41.8-41.9 0-24.5 17.7-42.3 41.3-42.3 24.1 0 40.3 17.3 40.3 44.7zm-20.1-13.3c-1.4-12-9.1-19.1-20.1-19.1-10.9 0-19.9 6.9-22 19.1zm31 37l11.3-11.7c5.8 6.1 13 9.3 21.5 9.3 7.6 0 12.5-3.2 12.5-9.2 0-6-5.3-8.1-17.5-11.3-13.5-3.2-24.6-9.8-24.6-24 0-15.1 12.4-24.4 30.4-24.4 14.2 0 23.8 5.3 29.1 11.1l-10.9 11.5c-4-4.2-10.6-7.4-18-7.4-7.6 0-12.1 3.2-12.1 8.5 0 5.5 6 7.4 16.9 10.3 15.3 3.7 25.9 9.7 25.9 24.8 0 15-12.4 25.4-31.5 25.4-15.5 0-25.6-5.1-33-12.9z"/>
	</g>
</svg>