<svg version="1.2" baseProfile="tiny-ps" xmlns="http://www.w3.org/2000/svg" viewBox="0 0 1249 1650" width="1249" height="1650">
	<title>Screenshot 2021-09-27 at 08-svg</title>
	<style>
		tspan { white-space:pre }
		.shp0 { fill: #000000 } 
	</style>
	<g id="#ffffffff">
		<path id="Layer" fill-rule="evenodd" class="shp0" d="M151.72 405.58C495.2 270.94 838.61 136.09 1182.09 1.54C1204.38 21.1 1226.78 40.49 1249.06 60.05C1199.84 262.64 1150.62 465.24 1101.4 667.87C1081.62 750.82 1060.36 833.42 1041.72 916.66C881.6 916.62 721.53 916.66 561.41 916.62C692.13 1143.98 822.93 1371.3 953.65 1598.62C924.64 1615.39 895.54 1631.94 866.52 1648.79C577.8 1400.52 288.83 1152.58 -0.1 904.55C10.79 875.17 21.68 845.78 32.56 816.36C151.04 816.57 269.52 815.77 387.99 816.19C309.12 679.35 230.5 542.42 151.72 405.58ZM296.71 456.43C365.76 576.42 434.72 696.45 503.8 816.4C656.55 816.36 809.29 816.4 962.08 816.4C1017.66 587.6 1073.27 358.88 1128.81 130.08C851.44 238.85 574.08 347.62 296.71 456.43ZM168.15 916.66C351.48 1073.44 534.13 1231.03 717.08 1388.24C626.39 1231.16 536.21 1073.83 445.73 916.66C353.18 917.08 260.66 917.68 168.15 916.66Z" />
	</g>
</svg>