<svg version="1.2" xmlns="http://www.w3.org/2000/svg" viewBox="0 0 895 1561" width="895" height="1561">
	<title>logo (8)-svg</title>
	<style>
		.s0 { fill: #ffffff } 
	</style>
	<g id="Layer">
		<g id="svg_1">
			<path id="svg_3" class="s0" d="m871.3 1275.3c0 44.1-6.3 86.7-20.4 127.7-9.5 29.9-23.6 58.3-44.1 83.5-28.3 33.1-61.4 58.3-103.9 67.8-56.6 12.6-110.2 4.7-160.5-26.8-22.1-14.2-41-34.7-52-59.9-11-26.8-14.1-53.6-7.8-82 7.8-29.9 28.3-48.8 58.2-56.7 14.2-3.2 29.9-3.2 44.1 0 29.9 6.3 50.3 28.4 53.5 58.3 1.6 15.8 0 31.5-4.7 45.7-4.8 11.1-9.5 20.5-17.4 28.4-3.1 3.1-7.8 7.9-12.5 12.6-3.2 3.1-6.3 4.7-7.9 7.9q-4.7 7.1-4.7 14.2c0 7.8 1.5 15.7 4.7 22 6.3 15.8 18.9 23.7 34.6 26.8 15.8 3.2 31.5 3.2 47.2-1.6 17.3-4.7 29.9-14.1 39.4-29.9 7.9-11 11-23.6 14.2-37.8 4.7-15.8 6.2-33.1 6.2-50.5 0-14.1 0-29.9 0-44.1 0-271.1 0-392.4 0-663.5 0-9.5 0-18.9-3.1-28.4-4.7-20.5-17.3-36.2-36.2-44.1-11-4.7-23.6-7.9-36.2-7.9q-26 0-51.9 0-4.8 0-9.5 0c-1.6-6.3 0-12.6 0-18.9 3.2-1.6 4.7-1.6 7.9-1.6 17.3 0 36.2 0 55.1 0 34.6 0 67.7-1.6 102.3-4.7q37.8-2.4 75.5-9.5 11.8-2.3 23.6-4.7c3.2 0 4.8 0 7.9 0 0 1.6 0 1.6 0 3.2q0 4.7 0 9.4c0 272.7 0 392.5-1.6 665.1z"/>
			<path id="svg_4" class="s0" d="m895 443.1c-6.3 42.6-42.5 75.7-86.6 75.7-47.2 0-86.6-39.4-86.6-86.7 0-47.3 37.8-86.7 86.6-86.7 12.6 0 25.2 3.2 36.2 7.9-29.9-59.9-103.9-126.1-273.9-97.7v821.1c0 12.6 0 26.8 3.1 39.4 1.6 4.8 1.6 7.9 3.2 12.6 6.3 20.5 20.5 33.1 42.5 36.3 7.9 1.6 14.2 1.6 22 1.6q23.6 0 47.3 0 4.7 0 9.4 0c1.6 6.3 0 12.6 0 20.5q-2.4 0-4.7 0c-3.2 0-4.7 0-7.9 0q-184.2 0-368.3 0h-12.6c-3.2-6.4-1.6-12.7-1.6-19 1.6-1.5 4.7-1.5 6.3-1.5 18.9 0 39.4 0 58.2 0 9.5 0 17.4 0 26.8-3.2 17.3-4.7 28.3-15.8 34.6-33.1 1.6-7.9 4.8-17.3 4.8-25.2 1.5-7.9 1.5-17.3 1.5-25.2v-781.8c-127.5 63.1-152.6 176.6-157.4 236.5v394c0 12.6 0 26.8 3.2 39.4 1.6 4.7 1.6 7.9 3.1 12.6 6.3 20.5 20.5 33.1 42.5 36.2 7.9 1.6 14.2 1.6 22.1 1.6q23.6 0 47.2 0h9.4c1.6 6.3 0 12.6 0 20.5q-2.3 0-4.7 0c-3.1 0-4.7 0-7.9 0h-368.3-12.6c-3.1-6.3-1.6-12.6-1.6-18.9 1.6-1.6 4.8-1.6 6.3-1.6 18.9 0 39.4 0 58.3 0 9.4 0 17.3-1.6 26.7-3.1 17.4-4.8 28.4-15.8 34.7-33.1 1.5-7.9 4.7-17.4 4.7-25.3 1.6-7.8 1.6-17.3 1.6-25.2v-534.3c0-7.8-1.6-15.7-3.2-23.6-4.7-22.1-18.9-37.8-39.3-45.7-14.2-6.3-26.8-7.9-41-7.9q-23.6 0-47.2 0-4.7 0-9.4 0c-1.6-3.1-1.6-6.3-1.6-9.4q0-4.8 0-9.5c3.1-1.6 6.3-1.6 9.4-1.6 25.2 0 48.8 0 74 0 29.9 0 58.3-1.6 88.2-4.7 26.7-1.6 53.5-6.3 80.2-9.5 6.3-1.5 12.6-1.5 18.9-3.1 3.2 3.1 1.6 6.3 1.6 9.4 0 22.1 0 42.6 0 64.7v36.2c26.8-52 74-110.3 157.4-143.4v-134c0-7.9-1.6-15.7-3.1-23.6-4.8-22.1-18.9-37.8-39.4-45.7-14.2-6.3-26.7-7.9-40.9-7.9q-23.6 0-47.2 0-4.8 0-9.5 0c-1.6-3.2-1.6-6.3-1.6-9.5q0-4.7 0-9.4c3.2-1.6 6.3-1.6 9.5-1.6 25.2 0 48.8 0 74 0 29.9 0 58.2-1.6 88.1-4.7 26.8-1.6 53.5-6.3 80.3-9.5 6.3-1.6 12.6-1.6 18.9-3.1 3.1 3.1 1.6 6.3 1.6 9.4 0 22.1 0 42.6 0 64.6v146.6c366.7-33.1 325.8 228.5 333.7 222.2z"/>
		</g>
	</g>
</svg>