<svg version="1.2" xmlns="http://www.w3.org/2000/svg" viewBox="0 0 1579 441" width="1579" height="441">
	<title>logo - 2022-08-16T234928</title>
	<style>
		.s0 { fill: #56be91 } 
		.s1 { fill: #ffffff } 
	</style>
	<g id="Symbols">
		<g id="final-nav">
			<g id="rallybio_logo_color">
				<path id="Path" fill-rule="evenodd" class="s0" d="m238.2 370.4c-18 42-62.4 70.6-114.7 70.6-52.3 0-96.7-28.6-114.7-70.6h34.1c15.6 25.9 45.4 43 80.6 43 35.2 0 65-17.1 80.6-43z"/>
				<path id="Shape" fill-rule="evenodd" class="s1" d="m952.7 98.7l-86.6 239.2c-21.1 58.8-58.1 88.5-109.9 85.2v-46.8c22.5 1.4 38.8-6.9 49.7-24.2 10.9-17.3 10.2-31.3 3.9-46.3-6.3-15-87-207.1-87-207.1h53.2l67.2 168.2 57.6-168.2zm-308.4-98.7h48.7v330.5h-48.7zm-97.5 0h48.6v330.4h-48.6zm-49.3 98.7v231.7h-48.7v-29.5c-17.1 24.6-43.7 35.6-78.8 35.6-61.3 0-112.2-53.3-112.2-121.9 0-69.1 50.9-121.9 112.2-121.9 35.1 0 61.7 10.9 78.8 35.1v-29.1zm-48.6 115.9c0-41-31.8-74.1-71.2-74.1-39.4 0-71.2 33.1-71.2 74.1 0 41 31.8 74.2 71.2 74.2 39.4 0 71.2-33.2 71.2-74.2zm-257.4 115.8c0-42.7-19.3-67.4-46.1-81.4-26.7-14.1-62.8-8.2-96.6-27.2v108.6h-48.7v-210.9c0-1.7 0-3.5 0.1-5.2 2.5-64.9 53.1-114.3 116.1-114.3 64.7 0 116.6 52.1 116.6 119.5 0 39.3-17.6 73.4-45.1 95 32.6 27.6 50 68.8 52.4 116zm-7.2-210.9c0-39.3-30.3-71-67.8-71-37.5 0-67.8 31.7-67.8 71 0 39.2 30.3 70.9 67.8 70.9 37.5 0 67.8-31.7 67.8-70.9z"/>
				<path id="Shape" fill-rule="evenodd" class="s1" d="m1460.4 326.3c-65.7 0-118.7-52.8-118.7-118.2 0-65.3 53-118.2 118.7-118.2 65.6 0 118.6 52.9 118.6 118.2 0 65.4-53 118.2-118.6 118.2zm88.9-118.2c0-49.4-39.8-89.4-89-89.4-49.2 0-89 40-89 89.4 0 49.5 39.8 89.5 89 89.5 49.2 0 89-40 89-89.5zm-261.4-160c-11.9 0-21.6-9.7-21.6-21.6 0-11.9 9.7-21.6 21.6-21.6 11.9 0 21.5 9.7 21.5 21.6 0 11.9-9.6 21.6-21.5 21.6zm-14.8 47.6h29.6v224.8h-29.6zm-39 112.4c0 66.8-52.8 118.2-118.7 118.2-65.8 0-118.6-51.4-118.6-118.2v-208.1h29.7v129.1c21.7-24.3 53.4-39.2 88.9-39.2 65.9 0 118.6 51.4 118.7 118.2zm-29.7 0c0-49.5-39.7-89.4-88.9-89.4-49.2 0-89 39.9-89 89.4 0 49.5 39.8 89.5 89 89.5 49.2 0 88.9-40 88.9-89.5z"/>
			</g>
		</g>
	</g>
</svg>