<svg version="1.2" xmlns="http://www.w3.org/2000/svg" viewBox="0 0 1501 1272" width="1501" height="1272">
	<title>cropped-RS_Favicon_512x512_v2-svg</title>
	<style>
		.s0 { fill: #ffe41e } 
		.s1 { fill: #000000 } 
	</style>
	<g id="#ffe41eff">
		<path id="Layer" class="s0" d="m1.1 1092.1c499.7 0.1 999.3 0 1498.9 0.1c0 59.7 0 119.5 0 179.2q-744.6 0-1489.2 0q-5-0.1-10.1-0.5c1-59.6 0.2-119.2 0.4-178.8z" />
	</g>
	<g id="#000000ff">
		<path id="Layer" class="s1" d="m1046.9 10.5c40.8-8.9 82.9-11.7 124.7-9.6c73.5 2.9 147.1 19.2 212.6 53.2c30.6 16.3 59.9 35.6 85.7 58.8c-30.1 39.9-59.9 80.1-91 119.3c-53.4-46.7-121.3-75.1-191-85.8c-40.7-5.4-83.1-8.2-122.9 3.9c-26.9 8.3-52.9 25.2-64.8 51.6c-10.9 24.3-11.8 56.1 6.4 77.2c20.6 24.5 52.2 35 81.7 44.8c68.9 20.9 140.5 32.2 208.6 56c51.2 17.4 102.4 41.1 140 81.1c33.7 33.6 52.4 80.4 55.6 127.5c3.9 52.4-4.6 106.9-30.6 153c-24.8 44.4-64.9 79.2-110.8 100.5c-57.5 28-122 37.3-185.4 39.1c-58.1 0.7-116.7-5.1-172.9-20.4c-72.2-19.7-140.5-56.4-193.6-109.4c29.5-41.1 59.3-82.1 88-123.7c40 38.1 87.4 68.9 139.5 87.9c57.5 21.1 120.4 29.1 181.2 20.9c36.5-5.5 74.3-19.6 98.1-49.2c19.1-23.1 26.1-57 13.3-84.7c-7.9-18.2-23.9-31.1-40.6-40.9c-25.8-14-54-22.6-82.2-30.4c-73.1-19.1-148.1-32.4-218.1-61.6c-44.3-19-87.4-45.2-116.2-84.8c-33.3-45-43.2-103.6-37.1-158.3c5.7-50.3 28.9-98.5 65-134c41.9-43.2 98.6-69.2 156.8-82z" />
		<path id="Layer" fill-rule="evenodd" class="s1" d="m7.4 5.8c131.4-0.3 262.9-0.1 394.4-0.2c63.4 0.4 128.2 16.5 179.9 54.5c45.8 33.5 79.5 83.1 93.5 138.2c15.3 58.9 14 122.5-6 180.2c-17.6 50.4-52.1 95.8-99.1 122.1c-8.9 5.2-18.8 8.3-27.6 13.4c47.8 116.8 95.2 233.7 143.2 350.4c-63.9 0.4-127.7-0.1-191.6 0.3c-39.8-103.9-77.1-208.7-116.6-312.7q-101.7-0.1-203.4 0q0 139.2 0 278.4c-0.3 11.4 0.7 22.9-0.7 34.3c-55.3-0.4-110.7 0.1-166-0.2c-0.2-286.2-0.1-572.5 0-858.7zm166.7 144.4c0 85.8 0 171.6 0 257.5c68 0 136 0 204 0c39.3-0.4 80.1-14.3 106.7-44.2c20.6-23.1 30.8-54.4 29.9-85.2c0.9-32.8-11.2-66.5-35.4-89.1c-25.3-26.4-62.6-37.7-98.3-39.1c-69 0.1-137.9 0-206.9 0.1z" />
	</g>
</svg>