<svg version="1.2" xmlns="http://www.w3.org/2000/svg" viewBox="0 0 1538 1538" width="1538" height="1538">
	<title>rockwell-medical-logo-svg</title>
	<style>
		.s0 { fill: #267ec1 } 
	</style>
	<path id="Layer" class="s0" d="m1491.7 508.4c49.4 136.8 58.9 284.8 27.4 426.8c-31.4 141.9-102.4 272.1-204.9 375.3c-102.4 103.2-232.1 175.2-373.8 207.7c-141.8 32.5-289.8 24-427-24.3l35.3-101.9c99.7 35.2 206.3 46 311 31.5c104.7-14.6 204.4-54 290.7-115.1c86.3-61 156.7-141.9 205.3-235.8c48.6-93.9 73.9-198 73.8-303.7q0.1-28.6-2.4-57.1q-2.4-28.5-7.3-56.7q-5-28.1-12.3-55.8q-7.4-27.6-17.2-54.5zm-1381.5 317.6q2.5 28.4 7.4 56.6q4.9 28.2 12.3 55.8q7.4 27.6 17.2 54.5l-101.4 36.7c-49.2-136.1-58.9-283.3-28-424.6c30.8-141.4 100.9-271.2 202.2-374.5c101.4-103.2 229.8-175.8 370.6-209.3c140.7-33.6 288.1-26.7 425.1 19.8l-35.3 101.9c-99.4-33.6-205.4-43-309.2-27.6c-103.8 15.5-202.4 55.5-287.7 116.7c-85.3 61.2-154.8 141.8-202.7 235.1c-47.9 93.4-72.9 196.8-72.9 301.8q0 28.6 2.4 57.1zm19.8 315.9q-1.1 0.1-2.1 0.2q-1.1 0-2.1 0q-1.1 0-2.1 0q-1.1-0.1-2.1-0.2c-5.9-1.1-11.5-3.3-16.5-6.5c-5-3.3-9.3-7.5-12.6-12.4c-3.4-4.9-5.8-10.5-7-16.3c-1.2-5.9-1.2-11.9-0.1-17.7c1.1-5.9 3.4-11.5 6.6-16.4c3.3-5 7.5-9.3 12.4-12.7c4.9-3.4 10.4-5.8 16.3-7c5.8-1.3 11.8-1.4 17.7-0.3q4.2 0.9 8.2 2.6q4 1.7 7.6 4.2q3.6 2.4 6.7 5.5q3.1 3.1 5.5 6.7q2.5 3.7 4.2 7.9q1.7 4.1 2.7 8.5q0.8 4.4 0.9 8.9q0 4.5-0.8 8.9c-1 5.1-2.8 10.1-5.5 14.6c-2.6 4.6-6 8.6-10.1 11.9c-4 3.4-8.6 6-13.5 7.8c-5 1.8-10.2 2.7-15.5 2.6m82.1 121.9h-8.4c-5.8-1.2-11.4-3.5-16.3-6.8c-5-3.3-9.3-7.5-12.6-12.5c-3.4-4.9-5.7-10.4-7-16.2c-1.2-5.9-1.3-11.9-0.2-17.7c3.2-17.3 16.2-31.2 33.2-35.6c17.1-4.4 35.1 1.5 46.3 15c11.2 13.6 13.6 32.4 6.1 48.3c-7.5 15.9-23.5 26.1-41.1 26m103.6 100.6c-15.8-0.1-30.5-8.4-38.7-22c-8.1-13.7-8.6-30.5-1.2-44.6c7.4-14 21.6-23.1 37.4-24.1c15.9-0.9 31.1 6.5 40.1 19.5q2.5 3.8 4.2 7.9q1.7 4.1 2.7 8.5q0.9 4.4 1 8.9q0.1 4.5-0.6 8.9c-1.1 5.2-3 10.1-5.7 14.6c-2.7 4.5-6.1 8.5-10.2 11.9c-4 3.3-8.6 5.9-13.6 7.7c-4.9 1.8-10.1 2.7-15.4 2.8zm129.4 83.4q-1 0.1-2 0.2q-1 0-2 0q-1 0-2.1 0q-1-0.1-2-0.2c-23.8-2.1-41.8-22.7-40.7-46.6c1.1-24 20.8-42.8 44.8-42.8c23.9 0 43.7 18.8 44.7 42.8c1.1 23.9-16.8 44.5-40.7 46.6zm963-965.6h-8.2q-4.2-0.9-8.2-2.5q-4-1.7-7.6-4.1q-3.6-2.4-6.7-5.5q-3.1-3.1-5.5-6.7c-5.6-7.3-8.9-16.1-9.3-25.3c-0.5-9.2 1.8-18.3 6.6-26.2c4.9-7.8 12-14 20.4-17.7c8.5-3.7 17.8-4.8 26.9-3c11 2.1 20.9 8.3 27.6 17.3c6.8 9 9.9 20.2 8.9 31.4c-1.1 11.2-6.3 21.6-14.6 29.3c-8.3 7.6-19.1 11.8-30.3 11.9m-81-121.6h-8.4c-24-2.2-41.9-22.9-40.8-47c1.1-24 20.9-43 45-43c24.1 0 43.9 19 45.1 43c1.1 24.1-16.9 44.8-40.9 47zm-103.6-101.1h-8.4c-24.1-2.2-42.3-23-41.1-47.2c1.1-24.3 21.1-43.3 45.3-43.3c24.2 0 44.2 19 45.3 43.3c1.1 24.2-17 45-41.1 47.2zm-130-83.1q-1 0.1-2.1 0.1q-1 0.1-2.1 0.1q-1 0-2.1-0.1q-1 0-2.1-0.1c-14.8-2.9-27.3-13-33.2-26.9c-5.9-13.9-4.5-29.9 3.8-42.5c8.3-12.7 22.3-20.4 37.4-20.6c15.2-0.1 29.4 7.2 38 19.7q2.6 3.6 4.5 7.7q1.8 4.2 2.8 8.6q1 4.4 1 8.9q0.1 4.5-0.8 8.9c-1 5.2-3 10.1-5.7 14.5c-2.8 4.5-6.2 8.4-10.3 11.7c-4.1 3.3-8.7 5.8-13.7 7.5c-4.9 1.7-10.1 2.5-15.4 2.5zm-732.1 474.1c-2.8 9.2-5 18.5-7 28c-13 58.2-13.5 118.4-1.4 176.8c12 58.4 36.3 113.6 71.2 161.9c34.9 48.3 79.6 88.7 131.3 118.5c51.6 29.7 109 48.2 168.3 54.2q7.6 0.7 15.2 1.3q7.6 0.5 15.2 0.7q7.6 0.3 15.2 0.2q7.6 0 15.2-0.3q15.3-0.7 30.4-2.5q15.2-1.7 30.2-4.6q15-2.8 29.8-6.7q14.7-3.9 29.2-8.9l33 93.6q-17.9 6.2-36.2 11q-18.3 4.9-37 8.4q-18.6 3.5-37.4 5.7q-18.9 2.1-37.8 2.9q-9.3 0.4-18.7 0.5q-9.4 0.1-18.7-0.2q-9.4-0.2-18.7-0.9q-9.4-0.6-18.7-1.6c-73.2-7.6-144-30.5-207.7-67.4c-63.8-36.8-119-86.6-162.1-146.3c-43.2-59.6-73.2-127.7-88.2-199.8c-15-72-14.6-146.5 1.2-218.4c2.5-11.4 5.6-22.9 9.2-34.7zm825.3 27.5c-12.2-57-36-110.8-70-158c-34.1-47.2-77.5-86.9-127.7-116.4c-50.2-29.6-105.9-48.4-163.7-55.3q-7.6-0.9-15.2-1.6q-7.6-0.7-15.2-1.1q-7.6-0.3-15.2-0.4q-7.6-0.1-15.2 0.1q-12.4 0.3-24.7 1.3q-12.3 0.9-24.6 2.6q-12.2 1.7-24.3 4.1q-12.2 2.4-24.2 5.4l-25.7-96.1q14.9-3.8 30-6.8q15-2.9 30.3-5q15.2-2.1 30.5-3.4q15.4-1.2 30.7-1.6q9.4-0.1 18.8 0q9.4 0.2 18.8 0.6q9.4 0.5 18.8 1.4q9.4 0.8 18.7 2c61.6 7.9 121.3 26.7 176.3 55.4c55 28.8 104.5 67.2 146.1 113.3c41.6 46.1 74.7 99.2 97.8 156.8c23 57.7 35.6 119 37.2 181.1q0.2 14.4-0.3 28.9q-0.6 14.4-1.9 28.8q-1.3 14.4-3.3 28.6q-2.1 14.3-4.9 28.5l-97.5-20.4c11.9-57 11.7-115.9-0.4-172.8zm-625.3-285.7q-1.6 0-3.2-0.1q-1.7-0.1-3.3-0.3q-1.6-0.3-3.2-0.7q-1.6-0.3-3.2-0.8c-5.7-1.7-11-4.4-15.6-8.2c-4.7-3.7-8.5-8.2-11.4-13.5c-2.9-5.2-4.7-10.9-5.3-16.8c-0.7-5.9-0.1-11.9 1.5-17.6c1.9-5.5 4.7-10.7 8.5-15.3c3.7-4.5 8.3-8.2 13.5-11c5.1-2.9 10.8-4.7 16.6-5.4c5.9-0.7 11.8-0.3 17.5 1.2q4.4 1.2 8.5 3.2q4.1 2.1 7.7 4.9q3.6 2.8 6.6 6.3q2.9 3.5 5.2 7.5q2.1 3.9 3.4 8.1q1.4 4.3 1.8 8.7q0.5 4.5 0.1 8.9q-0.4 4.4-1.7 8.7c-1.4 4.7-3.6 9.1-6.4 13.1c-2.8 4-6.3 7.5-10.2 10.3c-3.9 2.9-8.3 5.2-13 6.7c-4.6 1.4-9.5 2.2-14.4 2.1zm-112 93.5q-1.6 0.1-3.3 0q-1.6-0.2-3.2-0.4q-1.6-0.2-3.2-0.6q-1.6-0.4-3.2-0.9c-5.7-1.7-11-4.5-15.6-8.2c-4.6-3.7-8.5-8.3-11.3-13.5c-2.9-5.2-4.7-10.9-5.4-16.8c-0.6-5.9-0.1-11.8 1.5-17.5c1.8-5.6 4.7-10.8 8.4-15.3c3.8-4.6 8.4-8.4 13.5-11.2c5.2-2.8 10.8-4.7 16.7-5.4c5.8-0.7 11.7-0.4 17.4 1.1c10.4 3.1 19.2 9.8 25.1 18.9c5.8 9.1 8.2 20 6.7 30.7c-1.5 10.7-6.8 20.6-14.8 27.7c-8.1 7.2-18.5 11.2-29.3 11.4zm-95 120.2q-1.6 0-3.3-0.1q-1.7-0.1-3.3-0.4q-1.7-0.2-3.3-0.6q-1.6-0.4-3.2-0.9q-4.5-1.1-8.6-3.1q-4.1-2.1-7.7-4.9q-3.6-2.8-6.6-6.3q-2.9-3.5-5.1-7.5q-2.2-3.9-3.6-8.2q-1.3-4.2-1.8-8.7q-0.5-4.4 0-8.8q0.4-4.5 1.7-8.8c1.8-5.6 4.6-10.9 8.3-15.4c3.8-4.6 8.3-8.4 13.5-11.2c5.2-2.9 10.9-4.6 16.8-5.3c5.8-0.7 11.8-0.2 17.5 1.4q4.4 1.1 8.5 3.1q4.1 1.9 7.7 4.7q3.7 2.8 6.6 6.3q3 3.5 5.2 7.5c3.8 6.9 5.8 14.6 5.8 22.5c-0.1 7.9-2.3 15.6-6.3 22.4c-4 6.8-9.7 12.5-16.5 16.4c-6.9 3.9-14.6 5.9-22.5 5.9m643.3 603.5q-1.6 0-3.2-0.1q-1.6-0.1-3.2-0.4q-1.5-0.2-3.1-0.6q-1.6-0.3-3.1-0.8q-4.4-1.2-8.5-3.2q-4.1-2-7.7-4.7q-3.6-2.8-6.6-6.3q-3-3.4-5.2-7.4c-4.4-7.9-6.3-16.9-5.6-25.9c0.8-9 4.2-17.6 9.9-24.6c5.6-7 13.3-12.2 21.9-14.9c8.6-2.7 17.8-2.7 26.5-0.1c5.7 1.6 11 4.4 15.6 8.1c4.6 3.7 8.5 8.3 11.4 13.5c2.9 5.2 4.7 10.9 5.4 16.8c0.7 5.9 0.2 11.8-1.3 17.6c-1.4 4.7-3.6 9.1-6.3 13.1c-2.8 4-6.2 7.6-10.2 10.5c-3.9 2.9-8.2 5.2-12.9 6.8c-4.6 1.5-9.5 2.3-14.3 2.3m111.2-92.9q-1.6 0-3.2-0.2q-1.6-0.1-3.2-0.3q-1.6-0.2-3.1-0.5q-1.6-0.3-3.2-0.7c-23.2-6.5-37.5-29.8-32.6-53.5c4.8-23.6 27.1-39.5 51-36.3c24 3.2 41.3 24.3 39.8 48.4c-1.5 24.1-21.4 42.9-45.5 43.1zm95.7-120.8q-1.6 0.1-3.2 0q-1.6-0.2-3.3-0.4q-1.6-0.2-3.2-0.5q-1.6-0.3-3.1-0.7c-5.7-1.8-11-4.6-15.5-8.3c-4.6-3.7-8.4-8.3-11.3-13.5c-2.8-5.2-4.7-10.9-5.4-16.7c-0.7-5.9-0.2-11.8 1.3-17.5c1.8-5.7 4.6-11 8.3-15.6c3.7-4.6 8.3-8.4 13.5-11.3c5.2-2.8 10.8-4.7 16.7-5.4c5.9-0.7 11.8-0.3 17.6 1.2q4.4 1.2 8.5 3.2q4.1 2.1 7.7 4.9q3.6 2.8 6.6 6.3q2.9 3.4 5.2 7.4q2.2 3.9 3.5 8.2q1.4 4.2 1.9 8.7q0.4 4.4 0 8.9q-0.5 4.4-1.8 8.7c-1.4 4.6-3.5 9-6.2 13.1c-2.8 4-6.2 7.5-10.1 10.4c-3.9 2.9-8.2 5.2-12.8 6.8c-4.6 1.6-9.4 2.4-14.3 2.4" />
</svg>