<svg version="1.2" xmlns="http://www.w3.org/2000/svg" viewBox="0 0 1571 893" width="1571" height="893">
	<title>Screenshot 2022-08-29 at 14-svg</title>
	<style>
		.s0 { fill: #f5ce47 } 
		.s1 { fill: #262324 } 
		.s2 { fill: #ffffff } 
	</style>
	<g id="#f5ce47ff">
		<path id="Layer" fill-rule="evenodd" class="s0" d="m749.3 4.6c14.9-1.5 29.9-6.1 45-3.5 84.1 12 168.3 23.6 252.4 35.3 88.3 12.4 176.6 24.9 264.9 36.9q-2.1 0.3-4.2 0.6c8.9-0.8 17.6 1.7 26.4 2.6 45.8 6.4 91.6 13.1 137.4 19.2 20.6 0.5 41.4 5.2 58.7 16.5 16.9 10.7 30.7 26.8 36.8 45.9 4.1 12.6 3.7 26 3.6 39.1q0.1 263.6 0 527.3c-0.2 19.1-7.9 37.8-20.7 52-15.9 17.7-38.7 28.3-62 31.5-5.4 1-10.8 0.5-16.2 1.3-102.4 12.7-204.9 24.8-307.3 37.5-120.4 15-240.8 29.1-361.1 44.2-8.7 1.1-17.5 2.5-26.2 1.4-16.4-2-32.8-4.1-49.2-6-63-8-125.9-15.6-188.9-23.2-88.7-10.8-177.2-22-265.8-32.7q-44.2-5.3-88.4-10.7c-15.8-1.8-31.4-4.3-47.2-5.6l-0.7-0.6c-17.3-1.4-34.4-4.8-51.7-5.2-18.3-2.7-36.3-9.2-51-20.5-17.6-13.3-30.5-33.6-32.7-55.8-0.9-6.3-0.5-12.7-0.5-19.1-0.1-177.3 0-354.6-0.1-531.9 0.2-20 8.4-39.6 22.3-53.9 15.2-16.4 36.4-26.6 58.4-29.9 7.3-1.2 14.7-1.1 22-2 92.3-12.9 184.6-26.2 277-38.8 54.7-7.7 109.3-15.5 164-23.2 50.1-7 100.1-13.8 150.1-21 1.9-0.2 3.9-0.4 5.8-0.6l0.7-0.5c16.2-1.7 32.2-4.5 48.4-6.6zm23.2 16.7c-50.5 7.1-101 13.9-151.5 21.2-84.3 12.1-168.8 23.5-253.2 35.6-88.5 12.5-177.1 24.8-265.7 37.1-10.9 0.5-21.8 1.6-32.1 5-18.9 6.6-36.6 19.3-44.7 38.1-4.5 9.6-5.1 20.4-4.8 30.8q0 267.7 0 535.4c0 15.3 6.8 30.3 17.7 40.9 14.3 14.6 34.4 22.7 54.7 23.9 11.1 0.2 22.1 2.2 33.1 3.4 54.3 6.5 108.5 13.3 162.8 19.9 26 3.4 52.1 6.4 78.1 9.7 83.2 10 166.4 20.3 249.6 30.5 53.8 6.9 107.7 13.1 161.5 19.8 8.8 1.4 17.6-1 26.3-1.8 55.8-6.7 111.6-13.3 167.4-20.4 15.6-1.7 31.2-3.7 46.8-5.8 45.1-5.4 90.2-11 135.3-16.4 105.5-12.6 210.9-26.1 316.5-38.5 7.6-0.4 15.3-0.8 22.8-2.6 18.4-4.1 35.5-14.5 46.7-29.8 6.7-9.5 10.6-21.1 10.7-32.7 0-181.2-0.1-362.3 0-543.5 0-11.2-3.4-22.4-9.6-31.7-10.9-16.3-28.9-26.8-47.7-31.3-10.5-2.8-21.5-2.1-32.2-3.9-86.3-12.1-172.7-24-259-36.1-14.5-2.3-29.1-4.1-43.7-6.3-70.2-9.6-140.5-19.4-210.6-29.3-2.7-0.5-5.4-0.8-8.1-1.1-50.4-7.3-100.8-14-151.2-21.1-5.4-0.9-10.7 0.3-15.9 1zm92.2 174.4c13-7.1 28.1-10.1 42.8-9.7 19.3-0.5 39.2 3.6 55.5 14.3 7.6 5.2 14.9 11 20 18.8 7.9 11.3 10 25.4 11.3 38.8 1.4 12.3 0.9 24.7 0.9 37-11.3-0.2-22.5-1.1-33.9-0.9-12.5-0.4-25 0.2-37.5-1.1-0.1-14.3 0.5-28.7-0.6-43-0.5-4.9-0.1-10.5-3.5-14.4-3.1-3.6-8.4-2.3-12.7-2.3-1.7 1.8-3.6 3.5-4.2 6-1.8 6.4-1.6 13.2-1.6 19.9q0 71.1 0 142.1c0 3.8 0.2 7.6 0.3 11.4 1.2 4 1.4 8.8 5.1 11.3 4.7 3 12.2 2.4 15.4-2.6 2.5-3.9 3-8.8 3.3-13.3 1.6-15.5 0.5-31 0.9-46.5-4.9-0.8-9.8-0.7-14.7-0.7q0-20.9 0-41.8c27.9 0.3 55.8 1 83.7 1.8 0.1 49.1 0 98.3 0.1 147.5-15-0.1-30-0.8-45-0.9-2.1-6.4-4.3-12.8-6.3-19.2-4.9 6.7-10.3 13.5-17.7 17.6-11.1 6.5-24.6 7.2-37.1 5.5-16.8-2.6-32.6-11.4-43.5-24.3-10.8-13.1-15.3-30.2-15.6-47-1.3-14.1-0.7-28.2-0.8-42.4 0-27.8-0.1-55.7 0-83.6 1.1-14.7 1-29.6 5-43.9 4.6-15.2 17.1-26.6 30.4-34.4zm-256.2-2.6c19.9-1.8 39.9-0.7 59.9-1.4 9 27.2 17.9 54.3 26.6 81.5 4 13.3 8.8 26.3 12.4 39.7 0.9-19.9 0.2-39.8 0.4-59.6 0-18.3 0.1-36.6 0-54.9 0-2.6 0.3-5.1 0.7-7.5 19.8 0.1 39.7-0.1 59.5-0.2q0 137.5 0 275c-20.9-0.1-41.8 0.1-62.6 0.3-8.3-26.8-16-53.8-24.1-80.7-4.1-14-8.7-27.9-12.4-42.1-0.7 6-0.4 11.9-0.5 17.9q0 52.8 0 105.5c-19.9 0-39.8 0.7-59.7 0.9-0.1-2.3-0.3-4.5-0.3-6.7 0.9-20.2-0.4-40.5 0.3-60.8-0.1-48.5 0-97 0-145.6-0.9-11.4 0.7-22.9-0.4-34.3 0.5-9 0.3-18 0.2-27zm-112.4 3.2c8.2-0.9 16.5-0.7 24.8-0.9 13 82.6 24.6 165.5 37.2 248.2 1 8.5 3 16.8 3.3 25.3q-36.3 0.8-72.6 2.4c-0.7-6.6-1.3-13.2-1.5-19.8-1-9.7-1.9-19.4-2.2-29.2-8.6 0.1-17.3 0.2-25.8 1.1-0.8 16.5-2.8 32.8-3.9 49.3-24.8 0.7-49.5 2.3-74.2 3.4 9.7-70.7 18.3-141.6 28-212.3 2.7-21.5 5.5-43.1 8.7-64.6 14.6 0 29.2-1.5 43.9-1.6 11.4-1.1 22.9-0.8 34.3-1.3zm-27.2 87.9c-3.7 29.7-7.8 59.5-10.1 89.4q12.1-0.1 24.2-0.5-0.3-2-0.5-4c-3.4-27.6-5.7-55.4-8.2-83.1-0.8-7.4-0.9-14.8-2.2-22.1-1.9 6.6-2.2 13.5-3.2 20.3zm588.5-88.7c14.3 0.1 28.4 1.5 42.6 1.4 12.2 1.2 24.5 0.6 36.7 1.8 13.4 0.3 26.7 1.5 40.1 1.7q0 27.5 0 55.1c-15.8-0.3-31.6-1.7-47.5-2 0 17.3 0 34.7 0 52 10.9-0.1 21.7 1.3 32.6 1.3 4 0 8 0.3 12 0.9 0 17.4 0 34.7 0 52-14.9-0.3-29.7-1.5-44.6-1.8q0 30.1 0 60.1c17.4 0.9 34.8 1.7 52.3 2.5q0 27.5 0 55c-41.4-1.8-82.8-3.9-124.2-5.2 0.1-91.6 0-183.2 0-274.8zm179.4 8.3c31.6 2.1 63.3 3.2 94.7 7.1 10.6 1.6 21.4 2.8 31.3 7.2 14.5 7 25.4 20.8 29.2 36.4 4.1 15.2 4.4 31.2 3.7 46.9-0.7 9.4-1.5 19.2-5.7 27.8-4.4 8.3-14 12.3-23 13.1-1.5 0.5-5.6-0.2-4.3 2.7 6.5 3.1 13.5 5.7 19 10.6 8.3 7.9 13.9 19 13.6 30.7 1.1 19.4 0.4 39 0.6 58.5-0.3 15 0.7 30-0.5 45-11.3-1.4-22.7-1.6-33.9-2.9-10.6-0.5-21.2-1.8-31.8-1.8-0.7-27.9-0.1-55.9-0.3-83.9-0.2-11 0.7-22.4-2.4-33.2-2.8-7.5-12.1-7.9-18.9-8.8-0.1 41.4 0 82.7-0.1 124.1-23.7-2.1-47.5-2.9-71.2-4.8 0-91.6 0-183.1 0-274.7zm71.3 51.9c-0.1 20.2 0 40.4 0 60.6 6-0.3 14 1.4 18.3-4 4-8.3 2.7-17.9 3-26.8-0.2-8.1 1-17.1-3.8-24-4.4-4.8-11.4-5.6-17.5-5.8zm-1097.3-43.8c25.2-1.8 50.4-3.9 75.7-2.7 11 0.4 22.4 3.5 30.5 11.3 7.6 6.5 12.5 15.6 14.8 25.3 4.2 16.3 3.7 33.3 3 50-1.5 10-2.4 20.9-9.1 28.9-4.6 5.2-11 8.1-17.4 10.3-2.1 0.5-4.2 1.1-6.3 1.7-1.4 0.3-2.8 0.8-4.1 1.2 3.5 0.8 7 1.6 10.5 2.6 6 2.1 12.2 4.8 16.4 9.7 3.8 4.4 7.2 9.4 8.7 15.2 1.8 9.1 1.5 18.5 1.7 27.8 0 28.4 0 56.9 0 85.3-14.7 1.2-29.4 1.9-44.1 2.8-7.4 1.1-14.9 0.4-22.2 1.8-0.1-33.4 0.1-66.8-0.1-100.2-0.5-6.3-0.3-13.3-3.7-18.9-4.5-4.6-11.7-3.5-17.5-3.7-0.1 41.3 0 82.6-0.1 124-23.8 1.8-47.7 3.3-71.5 5.4-0.1-91.6 0.1-183.3-0.1-275 11.6-1.3 23.3-1.8 34.9-2.8zm36.9 44.4c-0.3 20.4-0.1 40.8-0.1 61.2 6.2-1 14.2-0.9 18.2-6.6 4.2-8.2 2.7-17.7 3.1-26.6-0.3-7.7 1.2-16-3-22.9-4.2-5.6-12-5-18.2-5.1z"/>
		<path id="Layer" class="s0" d="m780.6 670c1.5-3.1 3.1-6.2 5.3-8.9 6.8 13.9 13.8 27.9 20.5 41.9 15.3 2 30.5 4.7 45.9 6.4-0.1 0.4-0.3 1.2-0.4 1.6-9.6 9.2-19.1 18.5-28.6 27.8-1.7 1.8-4.4 3.4-3.5 6.3 2.1 14.7 5.4 29.3 7.3 44.1-12.7-6.5-25.2-13.3-37.8-20-2.4-1.4-5.3-1.4-7.6 0-12.6 6.7-25.1 13.5-37.8 20 1.9-14.4 4.9-28.7 7.2-43 0.2-1.8 0.6-3.9-1-5.1q-15.5-15.1-31-30.1c-0.1-0.4-0.3-1.2-0.4-1.6 15.4-1.7 30.6-4.4 45.9-6.4 5.2-11.1 10.8-21.9 16-33z"/>
	</g>
	<g id="#262324ff">
		<path id="Layer" fill-rule="evenodd" class="s1" d="m772.5 21.3c5.2-0.7 10.5-1.9 15.9-1 50.4 7.1 100.8 13.8 151.2 21.1 2.7 0.3 5.4 0.6 8.1 1.1 70.1 9.9 140.4 19.7 210.6 29.3 14.6 2.2 29.2 4 43.7 6.3 86.3 12.1 172.7 24 259 36.1 10.7 1.8 21.7 1.1 32.2 3.9 18.8 4.5 36.8 15 47.7 31.3 6.2 9.3 9.6 20.5 9.6 31.7-0.1 181.2 0 362.3 0 543.5-0.1 11.6-4 23.2-10.7 32.7-11.2 15.3-28.3 25.7-46.7 29.8-7.5 1.8-15.2 2.2-22.8 2.6-105.6 12.4-211 25.9-316.5 38.5-45.1 5.4-90.2 11-135.3 16.4-15.6 2.1-31.2 4.1-46.8 5.8-55.8 7.1-111.6 13.7-167.4 20.4-8.7 0.8-17.5 3.2-26.3 1.8-53.8-6.7-107.7-12.9-161.5-19.8-83.2-10.2-166.4-20.5-249.6-30.5-26-3.3-52.1-6.3-78.1-9.7-54.3-6.6-108.5-13.4-162.8-19.9-11-1.2-22-3.2-33.1-3.4-20.3-1.2-40.4-9.3-54.7-23.9-10.9-10.6-17.7-25.6-17.7-40.9q0-267.7 0-535.4c-0.3-10.4 0.3-21.2 4.8-30.8 8.1-18.8 25.8-31.5 44.7-38.1 10.3-3.4 21.2-4.5 32.1-5 88.6-12.3 177.2-24.6 265.7-37.1 84.4-12.1 168.9-23.5 253.2-35.6 50.5-7.3 101-14.1 151.5-21.2zm92.2 174.4c-13.3 7.8-25.8 19.2-30.4 34.4-4 14.3-3.9 29.2-5 43.9-0.1 27.9 0 55.8 0 83.6 0.1 14.2-0.5 28.3 0.8 42.4 0.3 16.8 4.8 33.9 15.6 47 10.9 12.9 26.7 21.7 43.5 24.3 12.5 1.7 26 1 37.1-5.5 7.4-4.1 12.8-10.9 17.7-17.6 2 6.4 4.2 12.8 6.3 19.2 15 0.1 30 0.8 45 0.9-0.1-49.2 0-98.4-0.1-147.5-27.9-0.8-55.8-1.5-83.7-1.8q0 20.9 0 41.8c4.9 0 9.8-0.1 14.7 0.7-0.4 15.5 0.7 31-0.9 46.5-0.3 4.5-0.8 9.4-3.3 13.3-3.2 5-10.7 5.6-15.4 2.6-3.7-2.5-3.9-7.3-5.1-11.3-0.1-3.8-0.3-7.6-0.3-11.4q0-71 0-142.1c0-6.7-0.2-13.5 1.6-19.9 0.6-2.5 2.5-4.2 4.2-6 4.3 0 9.6-1.3 12.7 2.3 3.4 3.9 3 9.5 3.5 14.4 1.1 14.3 0.5 28.7 0.6 43 12.5 1.3 25 0.7 37.5 1.1 11.4-0.2 22.6 0.7 33.9 0.9 0-12.3 0.5-24.7-0.9-37-1.3-13.4-3.4-27.5-11.3-38.8-5.1-7.8-12.4-13.6-20-18.8-16.3-10.7-36.2-14.8-55.5-14.3-14.7-0.4-29.8 2.6-42.8 9.7zm-256.2-2.6c0.1 9 0.3 18-0.2 27 1.1 11.4-0.5 22.9 0.4 34.3 0 48.6-0.1 97.1 0 145.6-0.7 20.3 0.6 40.6-0.3 60.8 0 2.2 0.2 4.4 0.3 6.7 19.9-0.2 39.8-0.9 59.7-0.9q0-52.7 0-105.5c0.1-6-0.2-11.9 0.5-17.9 3.7 14.2 8.3 28.1 12.4 42.1 8.1 26.9 15.8 53.9 24.1 80.7 20.8-0.2 41.7-0.4 62.6-0.3q0-137.5 0-275c-19.8 0.1-39.7 0.3-59.5 0.2-0.4 2.4-0.7 4.9-0.7 7.5 0.1 18.3 0 36.6 0 54.9-0.2 19.8 0.5 39.7-0.4 59.6-3.6-13.4-8.4-26.4-12.4-39.7-8.7-27.2-17.6-54.3-26.6-81.5-20 0.7-40-0.4-59.9 1.4zm-112.4 3.2c-11.4 0.5-22.9 0.2-34.3 1.3-14.7 0.1-29.3 1.6-43.9 1.6-3.2 21.5-6 43.1-8.7 64.6-9.7 70.7-18.3 141.6-28 212.3 24.7-1.1 49.4-2.7 74.2-3.4 1.1-16.5 3.1-32.8 3.9-49.3 8.5-0.9 17.2-1 25.8-1.1 0.3 9.8 1.2 19.5 2.2 29.2 0.2 6.6 0.8 13.2 1.5 19.8q36.3-1.6 72.6-2.4c-0.3-8.5-2.3-16.8-3.3-25.3-12.6-82.7-24.2-165.6-37.2-248.2-8.3 0.2-16.6 0-24.8 0.9zm561.3-0.8c0 91.6 0.1 183.2 0 274.8 41.4 1.3 82.8 3.4 124.2 5.2q0-27.5 0-55c-17.5-0.8-34.9-1.6-52.3-2.5q0-30 0-60.1c14.9 0.3 29.7 1.5 44.6 1.8 0-17.3 0-34.6 0-52-4-0.6-8-0.9-12-0.9-10.9 0-21.7-1.4-32.6-1.3 0-17.3 0-34.7 0-52 15.9 0.3 31.7 1.7 47.5 2q0-27.6 0-55.1c-13.4-0.2-26.7-1.4-40.1-1.7-12.2-1.2-24.5-0.6-36.7-1.8-14.2 0.1-28.3-1.3-42.6-1.4zm179.4 8.3c0 91.6 0 183.1 0 274.7 23.7 1.9 47.5 2.7 71.2 4.8 0.1-41.4 0-82.7 0.1-124.1 6.8 0.9 16.1 1.3 18.9 8.8 3.1 10.8 2.2 22.2 2.4 33.2 0.2 28-0.4 56 0.3 83.9 10.6 0 21.2 1.3 31.8 1.8 11.2 1.3 22.6 1.5 33.9 2.9 1.2-15 0.2-30 0.5-45-0.2-19.5 0.5-39.1-0.6-58.5 0.3-11.7-5.3-22.8-13.6-30.7-5.5-4.9-12.5-7.5-19-10.6-1.3-2.9 2.8-2.2 4.3-2.7 9-0.8 18.6-4.8 23-13.1 4.2-8.6 5-18.4 5.7-27.8 0.7-15.7 0.4-31.7-3.7-46.9-3.8-15.6-14.7-29.4-29.2-36.4-9.9-4.4-20.7-5.6-31.3-7.2-31.4-3.9-63.1-5-94.7-7.1zm-1026 8.1c-11.6 1-23.3 1.5-34.9 2.8 0.2 91.7 0 183.4 0.1 275 23.8-2.1 47.7-3.6 71.5-5.4 0.1-41.4 0-82.7 0.1-124 5.8 0.2 13-0.9 17.5 3.7 3.4 5.6 3.2 12.6 3.7 18.9 0.2 33.4 0 66.8 0.1 100.2 7.3-1.4 14.8-0.7 22.2-1.8 14.7-0.9 29.4-1.6 44.1-2.8 0-28.4 0-56.9 0-85.3-0.2-9.3 0.1-18.7-1.7-27.8-1.5-5.8-4.9-10.8-8.7-15.2-4.2-4.9-10.4-7.6-16.4-9.7-2.1-1.4-4.1-3-6.4-3.8 2.1-0.6 4.2-1.2 6.3-1.7 6.4-2.2 12.8-5.1 17.4-10.3 6.7-8 7.6-18.9 9.1-28.9 0.7-16.7 1.2-33.7-3-50-2.3-9.7-7.2-18.8-14.8-25.3-8.1-7.8-19.5-10.9-30.5-11.3-25.3-1.2-50.5 0.9-75.7 2.7zm-6.1 339.9c0.1 18.7 0 37.4 0.1 56q17.7 0 35.4 0 0-5.4-0.1-10.9c-7.6 0-15.2 0.1-22.9 0q0.1-6.5 0.1-12.9c6.8-0.1 13.7 0 20.6 0q-0.1-5.1 0-10.2c-6.9-0.1-13.8 0-20.6-0.1q0-5.6 0-11.2c7.3-0.1 14.6 0 22 0q0-5.4 0-10.7-17.3 0-34.6 0zm81 0.1c0 18.6-0.1 37.3 0 55.9q5.8 0 11.7 0c0.2-13.5-0.4-27.1 0.2-40.7q1.1 3.1 2.3 6.2 1.2 2.2 2.4 4.6 0.8 1.6 1.6 3.3c4.9 8.9 9.8 17.7 14.7 26.6q6.6 0 13.2 0c0.2-18.6 0.1-37.3 0.1-56q-5.8 0-11.6 0.1c0.1 13.1-0.6 26.3 0.9 39.4-5.2-13.9-13.1-26.6-20.7-39.3-4.9-0.4-9.9-0.1-14.8-0.1zm94.1-0.1c0 18.7 0 37.4 0 56q17.8 0 35.6 0 0.1-5.4 0-10.9-11.4 0-22.7 0 0-6.4 0-12.9 10.2 0 20.4 0 0-5.1 0-10.2-10.2-0.1-20.4-0.1 0-5.6 0-11.2 10.8 0 21.5 0 0-5.4 0-10.7-17.2 0-34.4 0zm81.4 0.4c-0.2 18.5-0.1 37.1-0.1 55.6q6.3 0 12.5 0c0-7.3 0-14.5 0-21.8q4 0 8.1 0.3c4.3 4 4.6 10.2 6.3 15.6 0.4 1.7 0.8 3.4 1.2 5.2 4.5 1.1 9.2 0.6 13.8 0.7-2-6.3-3.2-12.8-5.3-19-1-3.2-3.6-5.4-5.9-7.6 3.3-1.9 6.6-4.3 8.1-7.9 3.1-7.2 0-16.3-7.2-19.6q-1.7-0.7-3.5-1.3c-9.3-1.3-18.7-0.7-28-0.2zm173.8-0.2q2.4 4.1 4.7 8.4c4.2 8.2 8.9 16.1 12.8 24.3 0.7 7.7 0.1 15.4 0.3 23.1q6.2 0 12.5 0c0.1-7.7 0-15.5 0.1-23.2 2.7-4.7 5.4-9.4 8-14.1 2.2-3.7 4.2-7.4 6.3-11.1q2.2-3.7 4.3-7.5c-4.9-0.1-9.9-0.1-14.8 0.1q-0.7 1.9-1.4 3.9c-2.8 6.5-5.7 13-8.1 19.7-3.1-7.9-6.5-15.8-9.8-23.7-5-0.1-10-0.1-14.9 0.1zm146.9 6.7c-3.6 4.3-2.6 10.4-1.8 15.5 2 2.3 3.9 4.8 6.5 6.4 4.6 3.2 10.4 3.9 14.9 7.2 2.7 1.9 2.8 6.5 0.1 8.5-3.8 2.7-8.8 1.6-13.1 1.1-2.5-1-5-1.8-7.6-2.6q-0.9 3-1.7 6-0.5 2.3-0.9 4.6c9.7 3.7 21.2 4.9 30.6-0.3 8.4-4.7 10.5-17.3 4-24.4-5-5.4-12.8-6.2-18.7-10.1-2.4-1.2-1.8-4.1-1.9-6.3 5.6-4.9 13.1-2.5 19.4-0.4 1-3.4 2-6.9 2.7-10.4-6.5-2.5-13.4-3.3-20.3-2.3-4.6 1.4-9.2 3.5-12.2 7.5zm80.3-6.9c0 18.7-0.1 37.4 0 56q17.8 0 35.6 0 0-5.4-0.1-10.9-11.3 0-22.6 0 0-6.5 0-12.9 10.2 0 20.3 0 0-5.1 0-10.2-10.2-0.1-20.3-0.1 0-5.6 0-11.2 10.7 0 21.5 0 0-5.4 0-10.7-17.2 0-34.4 0zm81.4 0.4c-0.2 18.5-0.1 37.1-0.1 55.6q6.2 0 12.5 0c0-7.3 0-14.5 0-21.8 3.3 0.3 7.6-0.9 9.9 2.2 2.6 4.1 3.1 9.1 4.4 13.8q0.7 2.3 1.3 4.6c0.5 0.4 1.4 0.9 1.9 1.2 4 0 8 0 11.9 0-2-6.4-3.3-12.9-5.5-19.2-0.9-3.1-3.4-5.2-5.6-7.4 3.4-2.1 6.9-4.7 8.3-8.6 2.5-7.1-0.5-15.7-7.4-18.9q-1.8-0.6-3.6-1.3c-9.3-1.2-18.7-0.7-28-0.2zm80.5-0.4c5.5 17.5 10.8 34.9 16.7 52.2 0.1 0.8 0.4 2.4 0.5 3.2 5.1 1 10.3 0.6 15.5 0.6 6.4-18.6 12.4-37.3 18.7-55.9-4.5-0.1-9.1-0.1-13.6-0.1q-6.3 21.2-12.2 42.5c-0.5-2.1-0.9-4.1-1.4-6.1-0.4-1.5-0.7-3.1-1.2-4.6-0.6-2.3-1.3-4.7-1.9-7.1q-1.2-4-2.3-8-1.2-4-2.4-8c-0.8-2.9-1.6-5.7-2.3-8.6-4.7-0.1-9.4-0.1-14.1-0.1zm94 0.2c0.2 4.3-0.6 8.9 0.6 13.1q-0.7 2.3-0.7 4.7c0.1 12.5 0.1 24.9 0 37.4 4.4 0.8 9 0.8 13.5 0.2-0.1-18.5-0.1-37-0.1-55.5-4.4-0.1-8.9-0.1-13.3 0.1zm77.2 0.6c-3.9 1.6-7.7 3.5-10.6 6.6-7.3 6.6-9.3 17.2-7.9 26.6 0.9 7.6 5.1 15 12 18.7 9.4 5.3 21 4.9 31.2 2-0.6-3.5-1.3-6.9-1.9-10.3-0.9 0.3-2.7 0.7-3.7 1-5.2 1.2-10.8 0.9-15.8-1-2.8-1.8-5.2-4.2-7-6.9-2-5.1-2.1-10.7-1.3-16 2-4.7 5.4-8.8 10.3-10.7q2.5-0.5 4.9-1.3c4.3 0.1 8.5 1.1 12.6 2.4 0.3-3.6 3.3-7.9 1.3-11.1-6.3-1.9-13-2.3-19.5-1.3q-2.4 0.7-4.6 1.3zm70.1-0.8c0 18.7-0.1 37.4 0.1 56 11.8-0.3 23.6 0.7 35.4-0.5-0.1-3.4 0.1-6.8-0.2-10.2-7.5-0.4-15.1-0.1-22.6-0.2q-0.1-6.5 0-12.9 10 0 20 0c0.5-3.4 0.5-6.9-0.1-10.3-6.7 0.1-13.3 0-19.9 0q-0.1-5.6 0-11.2 10.8 0 21.7 0 0-5.4 0-10.7-17.2 0-34.4 0zm90.2 0.6c-3.7 1.9-7 4.5-9.1 8.1q-0.9 2.2-1.7 4.5c0 2.3 0 4.6 0.3 7 1.4 2.4 2.6 5 4.8 6.8 5.5 4.9 13.4 5.5 19 10.2 0 2 0.4 4-0.3 5.9-1.1 1-2.4 2-3.6 2.9-4.7 0.4-9.5 0.2-14-1.6-1.6-0.4-3.1-0.8-4.7-1.1-0.4 1.8-0.8 3.7-1.3 5.6q-0.3 2.4-0.6 4.9c8.9 3.3 19.2 4.4 28.2 0.6 4.8-1.9 8-6.3 9.8-11.1 0.2-4.1 0.5-8.7-2.1-12.2-4.3-6.8-12.9-8-19.4-11.6-2.4-1.2-4-4.4-2.3-6.8 2.1-3.1 6.3-3.1 9.7-3.2 1.8 0.6 3.7 1 5.6 1.6q1.7 0.5 3.6 1.1c0.9-3.5 1.9-6.9 2.8-10.4q-2-0.7-4-1.4-1.8-0.4-3.6-0.9c-5.7-1-11.5-0.5-17.1 1.1zm-794.1 1.3c-1.8 0.8-3.6 1.7-5.3 2.7-16.4 10.1-16.6 38.5 0.5 48 11.2 5.9 24.6 4.3 36.4 1 0.2-10 0-19.9 0.1-29.9q-10.4 0-20.7 0 0 4.9 0 9.9 4.1 0 8.3-0.1c0.2 4.1 0.3 8.2 0 12.3q-5.2 0.3-10.3 0.2c-2.9-1.3-6-2.5-8.3-4.7-2.2-2.4-3.3-5.5-4.6-8.4-0.3-4.7-0.2-9.4 1.4-13.9 2.3-4 6.2-6.6 10.4-8.3 6.6-1 13.2-0.2 19.6 1.4 0.7-3.4 1.6-6.9 2.1-10.4-0.8-0.2-2.5-0.7-3.3-0.9-7.2-1.5-14.6-1.1-21.8-0.5q-2.3 0.8-4.5 1.6zm219.1 116.3c-5.2 11.1-10.8 21.9-16 33-15.3 2-30.5 4.7-45.9 6.4 0.1 0.4 0.3 1.2 0.4 1.6q15.5 15 31 30.1c1.6 1.2 1.2 3.3 1 5.1-2.3 14.3-5.3 28.6-7.2 43 12.7-6.5 25.2-13.3 37.8-20 2.3-1.4 5.2-1.4 7.6 0 12.6 6.7 25.1 13.5 37.8 20-1.9-14.8-5.2-29.4-7.3-44.1-0.9-2.9 1.8-4.5 3.5-6.3 9.5-9.3 19-18.6 28.6-27.8 0.1-0.4 0.3-1.2 0.4-1.6-15.4-1.7-30.6-4.4-45.9-6.4-6.7-14-13.7-28-20.5-41.9-2.2 2.7-3.8 5.8-5.3 8.9zm527.5-414.3c6.1 0.2 13.1 1 17.5 5.8 4.8 6.9 3.6 15.9 3.8 24-0.3 8.9 1 18.5-3 26.8-4.3 5.4-12.3 3.7-18.3 4 0-20.2-0.1-40.4 0-60.6zm-1060.4 0.6c6.2 0.1 14-0.5 18.2 5.1 4.2 6.9 2.7 15.2 3 22.9-0.4 8.9 1.1 18.4-3.1 26.6-4 5.7-12 5.6-18.2 6.6 0-20.4-0.2-40.8 0.1-61.2zm221.2 27.9c1-6.8 1.3-13.7 3.2-20.3 1.3 7.3 1.4 14.7 2.2 22.1 2.5 27.7 4.8 55.5 8.2 83.1q0.2 2 0.5 4-12.1 0.4-24.2 0.5c2.3-29.9 6.4-59.7 10.1-89.4zm4.7 277.1q4.6-0.3 9.2-0.1 2.5 1.6 4.9 3.4 0.2 3.9 0 7.9c-3.5 4.1-9.1 4.1-14.1 3.9q0-7.6 0-15.1zm482.4-0.1q4.5-0.2 9.1 0 1.5 0.8 3.1 1.7c0.5 0.5 1.4 1.5 1.9 2.1q0.1 3.7 0 7.5c-3.6 4.1-9.1 4.1-14.1 3.9q0-7.6 0-15.2z"/>
	</g>
	<g id="#ffffffff">
		<path id="Layer" fill-rule="evenodd" class="s2" d="m204.7 551.8q17.3 0 34.6 0 0 5.3 0 10.7c-7.4 0-14.7-0.1-22 0q0 5.6 0 11.2c6.8 0.1 13.7 0 20.6 0.1q-0.1 5.1 0 10.2c-6.9 0-13.8-0.1-20.6 0q0 6.4-0.1 12.9c7.7 0.1 15.3 0 22.9 0q0.1 5.5 0.1 10.9-17.7 0-35.4 0c-0.1-18.6 0-37.3-0.1-56zm81 0.1c4.9 0 9.9-0.3 14.8 0.1 7.6 12.7 15.5 25.4 20.7 39.3-1.5-13.1-0.8-26.3-0.9-39.4q5.8-0.1 11.6-0.1c0 18.7 0.1 37.4-0.1 56q-6.6 0-13.2 0c-4.9-8.9-9.8-17.7-14.7-26.6q-0.8-1.7-1.6-3.3-1.2-2.4-2.4-4.6-1.2-3.1-2.3-6.2c-0.6 13.6 0 27.2-0.2 40.7q-5.9 0-11.7 0c-0.1-18.6 0-37.3 0-55.9zm94.1-0.1q17.2 0 34.4 0 0 5.3 0 10.7-10.7 0-21.5 0 0 5.6 0 11.2 10.2 0 20.4 0.1 0 5.1 0 10.2-10.2 0-20.4 0 0 6.5 0 12.9 11.3 0 22.7 0 0.1 5.5 0 10.9-17.8 0-35.6 0c0-18.6 0-37.3 0-56zm81.4 0.4c9.3-0.5 18.7-1.1 28 0.2q1.8 0.6 3.5 1.3c7.2 3.3 10.3 12.4 7.2 19.6-1.5 3.6-4.8 6-8.1 7.9 2.3 2.2 4.9 4.4 5.9 7.6 2.1 6.2 3.3 12.7 5.3 19-4.6-0.1-9.3 0.4-13.8-0.7-0.4-1.8-0.8-3.5-1.2-5.2-1.7-5.4-2-11.6-6.3-15.6q-4.1-0.3-8.1-0.3c0 7.3 0 14.5 0 21.8q-6.2 0-12.5 0c0-18.5-0.1-37.1 0.1-55.6zm12.4 9.1q0 7.5 0 15.1c5 0.2 10.6 0.2 14.1-3.9q0.2-4 0-7.9-2.4-1.8-4.9-3.4-4.6-0.2-9.2 0.1zm161.4-9.3c4.9-0.2 9.9-0.2 14.9-0.1 3.3 7.9 6.7 15.8 9.8 23.7 2.4-6.7 5.3-13.2 8.1-19.7q0.7-2 1.4-3.9c4.9-0.2 9.9-0.2 14.8-0.1q-2.1 3.8-4.3 7.5c-2.1 3.7-4.1 7.4-6.3 11.1-2.6 4.7-5.3 9.4-8 14.1-0.1 7.7 0 15.5-0.1 23.2q-6.3 0-12.5 0c-0.2-7.7 0.4-15.4-0.3-23.1-3.9-8.2-8.6-16.1-12.8-24.3q-2.3-4.3-4.7-8.4zm146.9 6.7c3-4 7.6-6.1 12.2-7.5 6.9-1 13.8-0.2 20.3 2.3-0.7 3.5-1.7 7-2.7 10.4-6.3-2.1-13.8-4.5-19.4 0.4 0.1 2.2-0.5 5.1 1.9 6.3 5.9 3.9 13.7 4.7 18.7 10.1 6.5 7.1 4.4 19.7-4 24.4-9.4 5.2-20.9 4-30.6 0.3q0.4-2.3 0.9-4.6 0.8-3 1.7-6c2.6 0.8 5.1 1.6 7.6 2.6 4.3 0.5 9.3 1.6 13.1-1.1 2.7-2 2.6-6.6-0.1-8.5-4.5-3.3-10.3-4-14.9-7.2-2.6-1.6-4.5-4.1-6.5-6.4-0.8-5.1-1.8-11.2 1.8-15.5zm80.3-6.9q17.2 0 34.4 0 0 5.3 0 10.7-10.8 0-21.5 0 0 5.6 0 11.2 10.1 0 20.3 0.1 0 5.1 0 10.2-10.1 0-20.3 0 0 6.4 0 12.9 11.3 0 22.6 0 0.1 5.5 0.1 10.9-17.8 0-35.6 0c-0.1-18.6 0-37.3 0-56zm81.4 0.4c9.3-0.5 18.7-1 28 0.2q1.8 0.7 3.6 1.3c6.9 3.2 9.9 11.8 7.4 18.9-1.4 3.9-4.9 6.5-8.3 8.6 2.2 2.2 4.7 4.3 5.6 7.4 2.2 6.3 3.5 12.8 5.5 19.2-3.9 0-7.9 0-11.9 0-0.5-0.3-1.4-0.8-1.9-1.2q-0.6-2.3-1.3-4.6c-1.3-4.7-1.8-9.7-4.4-13.8-2.3-3.1-6.6-1.9-9.9-2.2 0 7.3 0 14.5 0 21.8q-6.3 0-12.5 0c0-18.5-0.1-37.1 0.1-55.6zm12.4 9q0 7.6 0 15.2c5 0.2 10.5 0.2 14.1-3.9q0.1-3.8 0-7.5c-0.5-0.6-1.4-1.6-1.9-2.1q-1.6-0.9-3.1-1.7-4.6-0.2-9.1 0zm68.1-9.4c4.7 0 9.4 0 14.1 0.1 0.7 2.9 1.5 5.7 2.3 8.6q1.2 4 2.4 8 1.1 4 2.3 8c0.6 2.4 1.3 4.8 1.9 7.1 0.5 1.5 0.8 3.1 1.2 4.6 0.5 2 0.9 4 1.4 6.1q5.9-21.3 12.2-42.5c4.5 0 9.1 0 13.6 0.1-6.3 18.6-12.3 37.3-18.7 55.9-5.2 0-10.4 0.4-15.5-0.6-0.1-0.8-0.4-2.4-0.5-3.2-5.9-17.3-11.2-34.7-16.7-52.2zm94 0.2c4.4-0.2 8.9-0.2 13.3-0.1 0 18.5 0 37 0.1 55.5-4.5 0.6-9.1 0.6-13.5-0.2 0.1-12.5 0.1-24.9 0-37.4q0-2.4 0.7-4.7c-1.2-4.2-0.4-8.8-0.6-13.1zm77.2 0.6q2.2-0.6 4.6-1.3c6.5-1 13.2-0.6 19.5 1.3 2 3.2-1 7.5-1.3 11.1-4.1-1.3-8.3-2.3-12.6-2.4q-2.4 0.8-4.9 1.3c-4.9 1.9-8.3 6-10.3 10.7-0.8 5.3-0.7 10.9 1.3 16 1.8 2.7 4.2 5.1 7 6.9 5 1.9 10.6 2.2 15.8 1 1-0.3 2.8-0.7 3.7-1 0.6 3.4 1.3 6.8 1.9 10.3-10.2 2.9-21.8 3.3-31.2-2-6.9-3.7-11.1-11.1-12-18.7-1.4-9.4 0.6-20 7.9-26.6 2.9-3.1 6.7-5 10.6-6.6zm70.1-0.8q17.2 0 34.4 0 0 5.3 0 10.7-10.9 0-21.7 0-0.1 5.6 0 11.2c6.6 0 13.2 0.1 19.9 0 0.6 3.4 0.6 6.9 0.1 10.3q-10 0-20 0-0.1 6.4 0 12.9c7.5 0.1 15.1-0.2 22.6 0.2 0.3 3.4 0.1 6.8 0.2 10.2-11.8 1.2-23.6 0.2-35.4 0.5-0.2-18.6-0.1-37.3-0.1-56zm90.2 0.6c5.6-1.6 11.4-2.1 17.1-1.1q1.8 0.5 3.6 0.9 2 0.7 4 1.4c-0.9 3.5-1.9 6.9-2.8 10.4q-1.9-0.6-3.6-1.1c-1.9-0.6-3.8-1-5.6-1.6-3.4 0.1-7.6 0.1-9.7 3.2-1.7 2.4-0.1 5.6 2.3 6.8 6.5 3.6 15.1 4.8 19.4 11.6 2.6 3.5 2.3 8.1 2.1 12.2-1.8 4.8-5 9.2-9.8 11.1-9 3.8-19.3 2.7-28.2-0.6q0.3-2.5 0.6-4.9c0.5-1.9 0.9-3.8 1.3-5.6 1.6 0.3 3.1 0.7 4.7 1.1 4.5 1.8 9.3 2 14 1.6 1.2-0.9 2.5-1.9 3.6-2.9 0.7-1.9 0.3-3.9 0.3-5.9-5.6-4.7-13.5-5.3-19-10.2-2.2-1.8-3.4-4.4-4.8-6.8-0.3-2.4-0.3-4.7-0.3-7q0.8-2.3 1.7-4.5c2.1-3.6 5.4-6.2 9.1-8.1zm-794.1 1.3q2.2-0.8 4.5-1.6c7.2-0.6 14.6-1 21.8 0.5 0.8 0.2 2.5 0.7 3.3 0.9-0.5 3.5-1.4 7-2.1 10.4-6.4-1.6-13-2.4-19.6-1.4-4.2 1.7-8.1 4.3-10.4 8.3-1.6 4.5-1.7 9.2-1.4 13.9 1.3 2.9 2.4 6 4.6 8.4 2.3 2.2 5.4 3.4 8.3 4.7q5.1 0.1 10.3-0.2c0.3-4.1 0.2-8.2 0-12.3q-4.2 0.1-8.3 0.1 0-5 0-9.9 10.3 0 20.7 0c-0.1 10 0.1 19.9-0.1 29.9-11.8 3.3-25.2 4.9-36.4-1-17.1-9.5-16.9-37.9-0.5-48 1.7-1 3.5-1.9 5.3-2.7z"/>
	</g>
</svg>