<svg version="1.2" xmlns="http://www.w3.org/2000/svg" viewBox="0 0 1600 723" width="1600" height="723">
	<title>logo-groupe-renault-new-svg</title>
	<style>
		.s0 { fill: #000000 } 
	</style>
	<path id="Layer" fill-rule="evenodd" class="s0" d="m84.6 303.9h-66.6v-303.9h129.3q55.1 0 86.3 27.1 31.1 27 31.1 75.5 0 47.5-31.1 74.8c-7.1 6.1-15.1 11.2-23.9 15.3l64.5 111.2h-76.5l-52.6-99.2h-60.5zm0-245v88.8h64.6q22.8 0 35.4-11.9 12.6-11.9 12.6-32.3 0-21.4-12.6-33-12.6-11.6-35.4-11.6zm418.2 209.4q-15.6 19-39.6 29.7-24 10.7-54.4 10.7-36.2-0.1-64.4-15.5-28.3-15.4-44.5-43.2-16.1-27.8-16.1-64.8 0-37.1 15.6-64.8 15.7-27.8 43.3-43.3 27.6-15.4 63.2-15.4 34.7 0 61.3 15 26.6 14.9 41.8 42.2 15.2 27.3 15.2 65.3c0 10-0.6 15.8-0.9 19h-175.5c1.3 8.2 3.6 15.3 6.8 21.4q8.1 15.2 22.3 22.3 14.3 7.1 31.9 7.1 14.2 0 23.9-3.8 9.8-3.8 16.2-10.7 6.4-6.8 8.8-15.4h64.6q-3.8 25.2-19.5 44.2zm-148.5-125.4q-3.6 7-5.5 16.6h111.4c-1.2-7.9-3.6-14.7-7.3-20.4q-8.1-12.3-20.9-18.3-12.8-5.9-28-5.9-15.7 0-28.8 6.4-13 6.4-20.9 21.6zm201.2 161v-237.4h46.1l12.2 24.4c6.5-7.3 14.3-13.4 23.5-18.3q20.4-10.9 47-10.9 29 0 51.6 11.9 22.6 11.9 35.9 34.2 13.3 22.3 13.3 53.2v142.9h-65.1v-133q0-16.1-6.2-27.7-6.2-11.7-17.4-17.8-11.1-6.2-25.9-6.2-22.8 0-36.3 13.5-13.5 13.6-13.5 38.2v133zm504.8 0h-46.1l-12.2-24.4q-7.8 7.8-17 13.7-24 15.5-55.9 15.5-31.4-0.1-58-15.5-26.6-15.4-43-43.2-16.4-27.8-16.4-64.8 0-37.1 16.4-64.8 16.4-27.8 43-43.3 26.6-15.4 58-15.4 31.9 0 55.9 15.4 9.2 6 17 13.8l12.2-24.4h46.1zm-68.5-84.1q8.1-14.7 8.1-34.7 0-20.4-8.1-35.1-8-14.8-21.8-22.8-13.8-8.1-31.4-8.1-17.6 0-31.3 8.1-13.8 8.1-21.9 22.8-8.1 14.7-8.1 35.1 0 20 8.1 34.7 8.1 14.7 21.9 22.8 13.7 8 31.3 8 17.6 0 31.4-8 13.8-8.1 21.8-22.8zm331.5-153.4v141.5q0 30.4-14.3 53.2-14.2 22.8-39.4 35.1-25.2 12.4-58.5 12.4-50.3 0-81.2-26.8-30.9-26.9-30.9-73.9v-141.5h65.1v134.4q0 24.7 12.8 37.3 12.8 12.6 34.2 12.6 21.9 0 34.5-12.6 12.6-12.6 12.6-37.3v-134.4zm37.1-66.5h65.1v303.9h-65.1zm-1045.6 475.4q0.2 6.9 0.2 13.6 0 46-20.4 79.3-20.4 33.2-55.4 51-34.9 17.8-79.1 17.8-34.2 0-63.4-11.6-29.3-11.7-50.9-33-21.6-21.4-33.7-49.9-12.2-28.5-12.2-62.2 0-33.7 11.9-62.2 11.9-28.5 33.3-49.6 21.4-21.1 50.4-33 29-11.9 63.2-11.9 42.8 0 74.4 15.2 31.6 15.2 50.8 39.9 19.3 24.7 24 53.2h-69.4q-3.3-11.4-13.5-22.3-10.2-11-26.6-18.1-16.4-7.1-39.2-7.1-26.6 0-47.3 11.9-20.7 11.8-32.3 33.2-11.7 21.4-11.7 50.8 0 29.5 11.9 51.3 11.9 21.8 33.1 33.7 21.1 11.9 48.2 11.9 25.2 0 43.9-7.9 18.8-7.8 29.5-23.5 8-11.6 10.5-27.5h-102.4v-56h171q0.9 6.2 1.2 13zm425.6-26.5q16.6 27.7 16.6 64.8 0 37-16.6 64.8-16.7 27.8-45.6 43.2-29 15.5-65.6 15.4-36.6 0-65.4-15.4-28.7-15.4-45.4-43.2-16.6-27.8-16.6-64.8 0-37.1 16.6-64.8 16.7-27.8 45.4-43.3 28.8-15.4 65.4-15.4 36.6 0 65.6 15.4 28.9 15.5 45.6 43.3zm-49 64.8q0-20.4-8-35.2-8.1-14.7-22.1-22.8-14.1-8-32.1-8-17.6 0-31.6 8-14 8.1-22.1 22.8-8.1 14.8-8.1 35.2 0 19.9 8.1 34.6 8.1 14.8 22.1 22.8 14 8.1 31.6 8.1 18 0 32.1-8.1 14-8 22.1-22.8 8-14.7 8-34.6zm315.7-118.8v141.6q0 30.3-14.2 53.1-14.3 22.8-39.5 35.2-25.2 12.3-58.4 12.3-50.4 0-81.3-26.8-30.9-26.8-30.9-73.8v-141.5h65.1v134.3q0 24.7 12.8 37.3 12.9 12.6 34.2 12.6 21.9 0 34.5-12.6 12.6-12.6 12.6-37.3v-134.4zm272.5 53.9q16.4 27.8 16.4 64.9 0 37-16.4 64.8-16.4 27.8-43 43.2-26.6 15.4-58.5 15.4-29.9 0-53.2-14.9-6.6-4.3-12.4-9.6v110h-65.1v-327.7h46.1l12.1 24.2q7.7-7.6 16.9-13.5 24.3-15.4 55.6-15.4 31.9 0 58.5 15.4 26.6 15.5 43 43.2zm-49.2 64.9q0-20.4-8.1-35.2-8.1-14.7-21.8-22.8-13.8-8-31.4-8-17.6 0-31.4 8-13.7 8.1-21.8 22.8-8.1 14.8-8.1 35.2 0 19.9 8.1 34.6 8.1 14.8 21.8 22.8 13.8 8.1 31.4 8.1 17.6 0 31.4-8.1 13.7-8 21.8-22.8c5.4-9.8 8.1-21.3 8.1-34.6zm-824-84.8c22.1-19.2 50.4-34.2 84.8-34.2v62.8c-41.8 0-62.7 18.2-73.2 35.4-7.2 11.8-10.5 25.6-10.5 39.3v100.2h-65.1v-237.5h53.8zm1193.5-184.8v59.8h-41.3q-34.3 0-55.6-9.2-21.4-9.3-31.4-29-10-19.7-10-50.1v-215.5h65.1v66.4h73.2v54.2h-73.2v89.7q0 17.6 8.1 25.6 8.1 8.1 25.7 8.1z"/>
</svg>