<svg version="1.2" xmlns="http://www.w3.org/2000/svg" viewBox="0 0 962 962" width="962" height="962">
	<title>ReNew Sustainability Report_V5-1-pdf-svg</title>
	<defs>
		<clipPath clipPathUnits="userSpaceOnUse" id="cp1">
			<path d="m-16770-2307.05h24124.58v34144.1h-24124.58z" />
		</clipPath>
	</defs>
	<style>
		.s0 { fill: #7ab929 } 
	</style>
	<g id="Clip-Path: Page 1" clip-path="url(#cp1)">
		<g id="Page 1">
			<path id="Path 6" class="s0" d="m935 637.1c-64.6 188.8-243.3 324.6-453.9 324.6c-265.5 0-480.5-215.3-480.5-480.8c0-265.1 215-480.4 480.5-480.4c265.1 0 480.1 215.3 480.1 480.4q0 25.1-2.6 49.8c-54.1-2.6-155.4 1.4-280.3 49c-188.5 71.9-251.3 81-341 27.2c-86.1-51.9-89.7-161.9-71.6-197.5c0 0 89.7 116.5 206.3 71.5c116.6-44.7 215.4-107.5 260.4-62.8c0 0-62.8-278.6-377-170.7c0 0 125.7-17.8 242.3 81c0 0-179.4-89.7-305.1-9.1c-125.6 81-62.8 260.4-62.8 260.4c0 0 63.2 189.6 269.1 170.7c170.3-15.3 327.2-137.7 436.1-113.3z" />
		</g>
	</g>
</svg>