<svg version="1.2" xmlns="http://www.w3.org/2000/svg" viewBox="0 0 1476 1576" width="1476" height="1576">
	<title>logo (4)-svg</title>
	<style>
		.s0 { fill: #315473 } 
	</style>
	<g id="Page-1">
		<g id="Gibraltar-Header_Footer">
			<g id="Header_x2F_Desktop_x2F_Black_x5F_v2">
				<g id="Logo_x2F_Gibraltar_x2F_Wordmark_x5F_Only_x2F_White">
					<g id="Gilbraltar_Wordmark_White">
						<path id="Path" class="s0" d="m846.8 760.4h628.9v46.6c0 100.8-15.5 201.7-38.8 302.5-31.1 85.4-69.9 163-132 225-132 155.2-333.9 240.5-535.7 240.5-209.7 0-403.8-77.6-543.5-232.7-147.5-147.4-232.9-349.1-225.2-550.8-7.7-209.5 77.7-411.2 233-558.6 147.5-147.4 349.3-232.7 566.7-232.7 116.5 0 232.9 23.3 333.9 69.8 108.7 62.1 209.6 139.6 287.2 232.7l-163 155.2c-132-155.2-287.3-240.5-465.8-240.5-155.3-7.8-302.8 54.3-403.8 162.9-108.7 116.4-170.8 263.8-163 411.2-7.8 162.9 62.1 310.3 178.6 418.9 100.9 93.1 232.9 147.4 372.6 155.1 108.7 0 217.4-38.7 302.8-116.3 85.4-69.8 139.8-170.7 155.3-271.5h-380.4v-217.3z"/>
					</g>
				</g>
			</g>
		</g>
	</g>
</svg>