<svg version="1.2" xmlns="http://www.w3.org/2000/svg" viewBox="0 0 1551 657" width="1551" height="657">
	<title>zurrose-svg</title>
	<style>
		.s0 { fill: #13322b } 
	</style>
	<path id="Layer" fill-rule="evenodd" class="s0" d="m1059.5 381.4c45.4 0 79.1 38.8 79.1 97.6 0 54.9-41.5 94.1-87 94.1-22.3 0-36-5.5-45-12.2h-1.6v60c0 8.7 3.9 15.3 11 18.1 5.9 2.3 21.9 5.5 29 5.9v12.1h-128.1v-12.1q2.7-0.2 5.5-0.5 2.8-0.3 5.5-0.8 2.8-0.4 5.5-1 2.7-0.6 5.4-1.3c7.4-2.3 10.2-9.4 10.2-18v-197.2c-0.8-8.3-3.9-15.3-10.2-19.6-4.7-3.2-14.5-5.5-21.6-5.9v-11.8l85.1-4.7 2.7 2.4v20.4l1.6 0.3c9-9.8 28.6-25.8 52.9-25.8zm-469.8 0c62.7 0 99.9 40 99.9 95.2 0 54.5-34.5 97.7-101.5 97.7-54 0-98.7-36.1-98.7-96.5 0-56.8 38.8-96.4 100.3-96.4zm-429.8-87.1c32.5 0 54.8 9 72.5 18.5l11-15.7h15.2l1.6 99.6h-16.5c-20.7-60.4-42.7-85.9-81.9-85.9-49.7 0-76.8 44.3-76.8 120 0 74.1 28.6 125.4 70.6 125.4 26.6 0 46.6-15.6 53.3-38v-31c0-8.6-2.8-15.3-12.2-19.2-6.6-2.7-21.5-6.3-28.6-6.6v-13.4h138.3v13.4c-7.4 0.7-16.4 2.3-23.5 4.7-9.8 3.1-12.1 10.5-12.1 19.2v86.6l-12.2 2.4-22.7-22.4c-23.1 11-52.5 22.4-89.7 22.4-72.9 0-133.6-43.9-133.6-136.5 0-85.1 60.7-143.5 147.3-143.5zm731.2 89.8l2.7 2.8v142.7c0.8 8.2 4 14.5 10.2 18.8 4.7 3.1 13 3.9 20 4.3v11.8l-83 5.5-2.8-2.8v-23.9h-1.2l-3 3.1c-14 13.9-29.5 27.5-60.8 27.5-36.5 0-51.4-27.1-51.4-63.9v-83.9c-0.7-9.8-3.9-15.3-10.1-19.6-4.7-3.2-13-5.1-20-5.5v-11.8l84.6-5.1 2 2.8v122.3c0 25.9 10.5 39.2 23.1 39.2 21.5 0 32.5-16.1 36.4-23.9v-99.6c-0.8-8.2-3.5-14.9-9.4-19.2-3.9-3.2-12.9-3.9-21.9-4.3v-12.2zm-445.6-2c20.7 0 35.2 15.3 35.2 37.7 0 18.8-11.7 34.1-29.4 34.1-16 0-29-7.5-29-25.1 0-8.6 2.4-16.5 3.2-19.2-17.7 0.4-29.8 14.9-33.3 20.4v104.3c0 8.6 3.9 14.1 10.9 17.2 6.3 2.8 19.6 4.3 25.9 4.7v12.2h-120.3v-12.2c7.1-0.4 11.8-1.2 17.2-2.7 7.5-2.4 10.2-8.6 10.2-17.3v-109.4c-0.8-8.2-4.3-16.4-10.6-20.7-4.6-3.2-12.5-5.1-19.5-5.5v-11.8l83.4-4.7 2.8 2.8v26.2h0.8c16.4-20.4 33.3-31 52.5-31zm144.6 13c-31.8 0-38.4 43.1-38.4 80.4 0 46.2 9.4 85 38.4 85 27.4 0 37.2-37.6 37.2-84.3 0-40.7-7.4-81.1-37.2-81.1zm445.8 11.3c-14.9 0-23.1 6.3-30.9 16.9v105.9c3.9 11.7 12.5 28.2 32.9 28.2 22.7 0 39.2-27.1 39.2-77.6 0-36.5-11-73.4-41.2-73.4zm303.2-325.6l2.7 61.1h-11.7c-7.5-25.1-28.2-46.3-50.2-46.3-16.8 0-28.2 10.2-28.2 24 0 19.6 14.1 24.3 45.1 34.1 31.7 10.2 54.1 27 54.1 59.2 0 39.6-34.5 61.2-77.2 61.2-25.1 0-47.1-10.6-55.3-16.5l-5.9 12.5h-12.9l-1.9-67h11.7c7.1 22.3 31 56.4 61.5 56.4 20 0 31-10.5 31-28.6 0-20-18.4-26.3-45.9-35.3-25-8.2-53.3-22.3-53.3-58.8 0-30.6 26.3-56 71-56 18 0 37.2 5.4 48.6 10.9l4.3-10.9c0 0 12.5 0 12.5 0zm-259 0c62.7 0 99.9 39.9 99.9 95.2 0 54.5-34.5 97.7-101.5 97.7-54.1 0-98.7-36.1-98.7-96.5 0-56.8 38.7-96.4 100.3-96.4zm381.5 0c61.9 0 84.3 36 84.3 77.6v11h-118.8c0 50.9 18.1 78.8 58.4 78.8 23.5 0 39.6-11.8 52.5-33.7l13 9.4c-15.7 27.8-47.1 49.8-85.1 49.8-67.7 0-98.7-43.2-98.7-97.7 0-49.8 34.9-95.2 94.4-95.2zm-1002.7 2.7q0 0 0 0l2.7 2.7v142.8c0.8 8.2 4 14.5 10.2 18.8 4.7 3.1 12.9 3.9 20 4.3v11.7l-83.1 5.5-2.7-2.7v-23.9h-1.2l-3.1 3.1c-14 13.9-29.4 27.5-60.7 27.5-36.5 0-51.4-27.1-51.4-63.9v-84c-0.8-9.7-3.9-15.2-10.2-19.6-4.7-3.1-12.9-5.1-19.9-5.4v-11.8l84.6-5.1 1.9 2.7v122.4c0 25.9 10.6 39.2 23.2 39.2 21.5 0 32.5-16.1 36.4-23.9v-99.6c-0.8-8.2-3.5-14.9-9.4-19.2-3.9-3.2-12.9-4-21.9-4.3v-12.2c0 0 84.6-5.1 84.6-5.1zm372.9-83.5c63.5 0 103.5 17.6 103.5 61.1 0 42.8-32.1 58.9-74.9 70.6v4c26.3 6.2 53.7 19.1 65.9 49.7 1.8 4.6 3.8 9.9 5.8 15.2l1.7 4.5c4.2 11.2 7.9 21.5 8.9 24.2 5.5 15.3 10.6 18.9 22.7 22 6.3 1.6 14.2 2.8 20 3.1v13.4h-103.4c-5.9-28.6-11.8-48.6-22.3-75.3-12.6-31-31.8-49.8-61.2-49.8h-5.1v87.1c0 8.6 3.2 15.2 12.2 19.2 4.7 1.9 21.1 5.1 28.2 5.4v13.4h-148.9v-13.4c7.1-0.3 25.9-2.3 31-4.3 9.4-3.5 12.1-10.5 12.1-19.2v-191.7c0-8.6-2.4-15.3-12.1-19.2-7.5-3.2-23.9-6.3-31-6.7v-13.3zm-190 81.5c20.7 0 35.2 15.3 35.2 37.7 0 18.8-11.7 34.1-29.4 34.1-16 0-29-7.5-29-25.1 0-8.6 2.4-16.5 3.2-19.2-17.7 0.4-29.8 14.9-33.3 20.4v104.3c0 8.6 3.9 14.1 10.9 17.2 6.3 2.8 19.6 4.3 25.9 4.7v12.2h-120.3v-12.2c7.1-0.4 11.8-1.2 17.2-2.7 7.5-2.4 10.2-8.7 10.2-17.3v-109.4c-0.8-8.2-4.3-16.4-10.5-20.7-4.7-3.2-12.6-5.1-19.6-5.5v-11.8l83.4-4.7 2.8 2.7v26.3h0.7c16.5-20.4 33.4-31 52.6-31zm-384.8-81.5v10.2l-176.4 241.5h69.8c43.1 0 55.2-2.7 62.7-11.8 13.7-16.8 25.8-40 34.9-61.1h14.1l-9 89h-253.2v-10.2l176.4-241.5h-61.2c-21.9 0-32.9 1.5-41.1 5-10.6 4.4-21.6 19.7-42.7 59.3h-15.3l8.2-80.4zm823.5 94.5c-31.8 0-38.4 43.1-38.4 80.3 0 46.3 9.4 85.1 38.4 85.1 27.4 0 37.2-37.6 37.2-84.3 0-40.7-7.5-81.1-37.2-81.1zm378.8 0.8c-18.4 0-31.4 20-32.1 60l59.5-0.8c0-30.6-4.7-59.2-27.4-59.2zm-651.4-79.6h-14.5v110.9h7.5c34.5 0 63.5-18.4 63.5-60.4 0-35.6-21.6-50.5-56.5-50.5z"/>
</svg>