<svg version="1.2" baseProfile="tiny-ps" xmlns="http://www.w3.org/2000/svg" viewBox="0 0 1255 1758" width="1255" height="1758">
	<title>Rosneft_201x_logo-svg</title>
	<style>
		tspan { white-space:pre }
		.shp0 { fill: #fdcf00 } 
		.shp1 { fill: #000000 } 
	</style>
	<path id="path3125" class="shp0" d="M733.59 1757.31L887.83 1757.31L887.83 1001.39L733.59 1001.39L733.59 1757.31ZM550.66 1757.31L704.99 1757.31L704.99 845.42L550.66 845.42L550.66 1757.31ZM367.82 1757.31L522.09 1757.31L522.09 1001.39L367.82 1001.39L367.82 1757.31Z" />
	<path id="path3147" fill-rule="evenodd" class="shp1" d="M733.59 168.94L887.83 168.94L887.83 977.69L733.59 977.69L733.59 168.94ZM916.39 337.5L1070.76 337.5L1070.76 1050.91L916.39 1199.62L916.39 337.5ZM1099.31 508.74L1253.57 508.74L1253.57 896.41L1099.31 1031.09L1099.31 508.74ZM550.66 0.41L704.99 0.41L704.99 812.04L550.66 812.04L550.66 0.41ZM367.82 168.94L522.09 168.94L522.09 977.69L367.82 977.69L367.82 168.94ZM339.14 1199.62L184.85 1050.91L184.85 337.5L339.14 337.5L339.14 1199.62ZM156.18 1031.09L1.92 896.41L1.92 508.74L156.18 508.74L156.18 1031.09Z" />
</svg>