<svg version="1.2" xmlns="http://www.w3.org/2000/svg" viewBox="0 0 1561 384" width="1561" height="384">
	<title>cdnlogo</title>
	<style>
		.s0 { fill: #ffffff } 
	</style>
	<path id="Layer" fill-rule="evenodd" class="s0" d="m1560 211c0 13.4-0.1 25.3-0.5 35.1-0.3 9.7-0.8 18.2-1.5 25.1q-0.8 9.3-2.7 18.5-1.7 7.8-4.2 15.3c-8.5 26-22.9 45.8-42.4 59-19.6 13.3-44.4 20-72.5 20-28.1 0-52.4-6.8-72-20-19.6-13.1-33.9-33-42.5-59q-2.5-7.5-4.2-15.3-1.9-9.1-2.7-18.5c-0.6-6.9-1-15.5-1.4-25.1-0.5-9.7-0.5-21.4-0.5-35.1 0-13.6 0.1-25.3 0.5-35 0.3-9.8 0.8-18.2 1.4-25.2q0.8-9.3 2.7-18.5 1.7-7.7 4.2-15.3c8.6-26 22.9-45.7 42.5-59 19.6-13.3 43.4-20 72-20 28.6 0 52.8 6.8 72.5 20 19.6 13.2 33.9 33 42.4 59q2.5 7.6 4.2 15.3 1.9 9.2 2.7 18.5c0.7 7 1.2 15.4 1.5 25.2 0.3 9.9 0.5 21.6 0.5 35zm-48.7 0c0-11.7-0.1-22.4-0.4-30.9-0.4-8.6-0.9-16.5-1.7-22.6-0.8-6.2-1.6-11.7-2.4-16q-0.9-5.4-2.6-10.6c-4.1-14-12.6-26.4-24.3-35.2-11.4-8-26.1-12-43.9-12-17.8 0-32.4 4-43.4 12-11.5 8.9-19.9 21.2-24 35.2q-1.6 5.2-2.6 10.6c-0.8 4-1.6 9.6-2.3 16-0.8 6.3-1.2 13.9-1.7 22.6-0.5 8.6-0.5 19-0.5 30.9 0 12 0.2 22.4 0.5 31 0.3 8.6 0.9 16.4 1.7 22.6 0.7 6.2 1.5 11.6 2.3 15.9q1 5.4 2.6 10.6c4.1 14 12.5 26.3 24 35.2 10.9 8 25.4 12 43.4 12 18 0 32.7-4 43.9-12 11.7-8.8 20.2-21.1 24.3-35.1q1.7-5.3 2.6-10.7c0.8-4.2 1.6-9.5 2.4-15.9 0.8-6.4 1.3-14 1.7-22.6 0.3-8.8 0.4-19.2 0.4-31zm-255-167.5c3.7 0 6.7 3 6.7 6.7q0 0.3 0 0.7v320.3q0 0.3 0 0.6c0 3.7-3 6.7-6.7 6.7q-0.4 0-0.7 0h-33.9q-0.3 0-0.6 0c-3.7 0-6.8-3-6.8-6.7q0-0.3 0.1-0.6v-320.4q-0.1-0.3-0.1-0.6c0-3.7 3.1-6.7 6.8-6.7q0.3 0 0.6 0h33.9q0.3 0 0.7 0zm-87.2 0c2.1 0 4 0.9 5.2 2.5 1.2 2.1 1.4 4.6 0.4 6.8l-106.6 319.3c-0.8 3.8-4.1 6.5-7.9 6.6h-28.7c-4 0-7.4-2.8-8.2-6.7l-107-319.3c-0.9-2.1-0.8-4.5 0.3-6.5 1.2-1.8 3.4-2.8 5.5-2.6h33.4c4.2-0.3 8.1 2.5 9.2 6.6l82.5 249 79.5-249.1c0.9-4 4.6-6.8 8.7-6.6zm-273.2 107.3c0.7 7.1 1.2 15.3 1.7 25.2 0.4 9.8 0.4 21.6 0.4 35 0 13.4-0.1 25.4-0.4 35.1-0.4 9.7-0.9 18.1-1.5 25.1q-0.8 9.3-2.7 18.5-1.7 7.8-4.2 15.3c-8.6 26-23 45.8-42.5 59-19.5 13.3-44.3 20-72.5 20-28.1 0-52.3-6.8-72-20-19.6-13.1-33.9-33-42.4-59q-2.5-7.5-4.2-15.3-1.9-9.1-2.7-18.5c-0.7-6.9-1-15.5-1.5-25.1-0.5-9.7-0.5-21.4-0.5-35.1q0-20.5 0.5-35c0.3-9.7 0.8-18.2 1.5-25.2q0.8-9.3 2.7-18.5 1.7-7.7 4.2-15.3c8.5-26 22.9-45.7 42.4-59 19.6-13.3 43.4-20 72-20 28.6 0 52.9 6.8 72.5 20 19.6 13.2 33.9 33 42.5 59q2.5 7.6 4.2 15.3 1.9 9.2 2.7 18.5zm-46.7 60.2c0-11.7-0.2-22.4-0.5-30.9-0.3-8.6-0.9-16.4-1.7-22.6-0.8-6.3-1.6-11.7-2.4-16q-0.9-5.4-2.6-10.6c-4.1-14-12.6-26.4-24.3-35.2-11.3-8-26-12-43.9-12-17.8 0-32.4 4-43.4 12-11.5 8.9-19.9 21.2-23.9 35.2q-1.7 5.2-2.6 10.6c-0.8 4-1.6 9.6-2.4 16-0.8 6.3-1.2 14-1.7 22.6-0.5 8.5-0.5 18.9-0.5 30.9 0 12 0.2 22.4 0.5 31 0.3 8.6 0.9 16.4 1.7 22.6 0.7 6.2 1.6 11.6 2.4 15.9q0.9 5.4 2.6 10.6c4 14 12.4 26.3 23.9 35.2q16.5 12 43.4 12c18 0 32.7-4 43.9-12 11.7-8.8 20.2-21.1 24.3-35.1q1.7-5.3 2.6-10.7c0.8-4.1 1.6-9.5 2.4-15.9 0.8-6.4 1.4-14 1.7-22.6 0.4-8.8 0.5-19.2 0.5-31zm-233.4 158.1c1.3 1.9 1.5 4.4 0.4 6.5-1.1 1.9-3.3 3.1-5.5 2.9h-39.3c-3.9 0.1-7.5-2.6-8.6-6.4l-65.1-133.3h-71.2v132.4q0 0.3 0 0.6c0 3.7-3 6.7-6.7 6.7q-0.3 0-0.7 0h-33.8q-0.4 0-0.7 0c-3.7 0-6.7-3-6.7-6.7q0-0.3 0-0.6v-320.4q0-0.3 0-0.6c0-3.7 3-6.7 6.7-6.7q0.3 0 0.6 0h119.7c14.7-0.2 29.3 2.2 43.1 7 12.4 4.2 23.7 10.9 33.5 19.6 9.3 8.7 16.7 19.3 21.6 31.1 5.2 12.6 7.9 26.2 7.7 39.9 0.6 20.9-5.7 41.4-18 58.3-11.6 15.4-27.7 26.8-46 32.9zm-189-175.5h76.9c18.7 0 33.3-4.7 43.4-13.6 10-9 15.1-22.1 15.1-38.7 0-16.7-5-29.6-15.1-38.7-10.1-9.1-24.7-13.7-43.4-13.7h-77.3v104.2q0 0.2 0 0.4h0.4zm-257.1 67.6c-42.7 14.4-73.2 27.4-93.9 40.6-25.8 16.4-36.2 33-35.9 52.5 0.5 6.9 1.6 13.8 3.3 20.6 0.4 1 0.5 2.2 0.3 3.3-1.7-0.3-3.2-1.3-4-2.8-4.4-5.8-8.7-12.1-12.7-18.5-18.1-28.3-32.7-60.8-24.7-92.2 6.9-27.9 31.4-54.7 86.4-76.5 61-24.1 127.9-42.1 130.5-81.1 3.3-49.3-37.1-79-103.7-90.1-23.9-4.2-48.1-6.4-72.4-6.6-16.3-0.1-25.8 0.7-27.9 0.7-1.4 0.2-2.8 0-4-0.6-0.5-0.5 0.7-1.5 2.7-2.3 7.8-2.3 15.8-3.8 23.9-4.5 28.7-3.3 57.6-4.2 86.4-2.7 33 1.3 65.8 7.3 97.2 17.8 54.2 19.1 84.9 65.2 84.2 111.4-0.6 37.1-13.4 62.9-37.5 83.3-22.7 19.1-55.5 33.3-98.2 47.7zm132.9 112.5c2.1 0.5 4.1 1.4 6 2.6-2.5 1.3-5.2 2-8 2-15.9 1.3-31.9 1.6-47.9 0.8-18.9-1.1-38.6-4.2-53.8-12-14.1-7-27.5-19.2-30.2-35.9-2.9-17.7 5.9-30.7 17.1-41 17.3-16 47-26.5 52.4-27.6 1.1-0.5 2.4-0.5 3.5 0 0.2 1.2-0.2 2.4-0.9 3.4-2.1 3.7-9.9 17.3-6.4 46 1.9 16.4 15.5 30.8 30.1 41.6 11.7 8.5 24.5 15.3 38.1 20.1z"/>
</svg>