<svg version="1.2" xmlns="http://www.w3.org/2000/svg" viewBox="0 0 1543 1549" width="1543" height="1549">
	<title>Rover</title>
	<style>
		.s0 { fill: #55ba77 } 
	</style>
	<g id="layer1">
		<g id="g20307">
			<g id="g19480">
				<path id="path19466" class="s0" d="m231.8 402.3c-31.8-111.3 66-180.1 118.7-194.6c137-38.6 263.8 119.4 293.3 190.3c22.4 53.6 16 110.3-17.3 156.1c-23.9 33-60.1 57.2-101.8 68.4c-42.5 11.5-105-3.5-159.2-38.1c-64.4-41.2-111.8-105.6-133.7-182.1zm-188.8 510.6c-81.8-85-26.9-187.8 13.4-223.1c104.6-92.5 294-6.6 354.5 43.7c45.7 38 67.1 91 59.1 145.9c-5.7 39.4-26.6 76.2-58.6 104c-32.7 28.3-96 41.6-161.3 34c-77.4-9.1-150.7-45.9-207.1-104.5zm1026.6-579.9c-22.8 58.7-64.1 105.4-105.1 119c-40.1 13.3-83.6 12.6-122.4-2c-54.1-20.4-93-64.6-107-121.9c-18.5-75.7-10.8-277.7 122-320c51-16.6 170.5-12 211.3 98.9c28 76.3 28.3 156.3 1.2 226zm414.3 168.4c-37.5 51.7-90.1 88-134 92.5c-42.9 4.4-85.4-5.3-119.9-27.4c-48-30.9-75-81.5-74.1-139.5c1.1-76.7 60.5-269.4 202.2-282.4c54.3-5.3 170.8 24 182.5 139.2c8 79.2-12.2 156.2-56.7 217.6zm44.9 532.9c22.9 81.3 7.9 173.5-51.9 237.3c-69.7 74.4-165.6 74.1-262 67.5c-32.2-2.2-60.7 4-87.1 15.3c-26.4 11.4-50.3 27.5-70 52c-59 73.3-122.7 142-227 142.2c-89.6 0.2-171.2-50.5-219.2-121c-108.2-159-97.2-346.1-55.4-523.3c28.8-122.3 75.9-284.5 197-352.1c133.4-41.5 290.9 33 405.3 93.9c165.8 88.2 318.7 205.1 370.3 388.2z" />
			</g>
		</g>
	</g>
</svg>