<svg version="1.2" xmlns="http://www.w3.org/2000/svg" viewBox="0 0 1542 522" width="1542" height="522">
	<title>Rover</title>
	<style>
		.s0 { fill: #55ba77 } 
	</style>
	<g id="layer1">
		<g id="g20307">
			<g id="g19460">
				<path id="path19446" fill-rule="evenodd" class="s0" d="m890.4 175.8c0.7 57.2-13.5 111.8-39.9 154.6c-22.3 36-52 60.5-75.5 62.5c-23.1 1.9-45.3-6.3-62.7-23.2c-24.2-23.6-36.3-60.7-33.3-102.3c4-55.1 44.2-191.7 120.3-196.9c29.2-2.2 90 22.3 91.1 105.3zm-62.9-35.4c-0.7-0.7-1.1-0.7-1.6-0.7c-24.5 1.2-67.2 88.4-66.1 170.8c0.2 19.8 7 26.6 11.2 26.3c4.7-0.4 18.7-8.8 32.5-32c12.1-20.6 27.2-58.4 29.7-122.6c1.3-32.4-4-40.2-5.7-41.8zm272 15c1.1 80.1-66.8 230.3-113.8 230.6c-13.7-0.1-34.7-6.3-52.5-23.9c-13.8-13.7-30.4-39.2-31-84c-0.6-41.1 5.7-92.1 16.8-136.3c12.6-49.9 26.7-75.3 41.9-75.3c18.4-0.2 55.3 41.1 55.7 67.5c0.1 9.9-5.6 24.1-12.8 42.1c-11 27.3-26 64.9-25.5 102.7c0.4 26.1 4.4 35.3 6.2 36.9c6-0.5 20.6-14.8 35.7-51.8c14.5-35.4 22.9-76 22.5-108.8c-0.5-37.5 2.7-60.7 20.2-60.1c19.8 0.7 36.2 27.9 36.6 60.4zm192.2 149.6c0.6 47.5-48.5 93.7-94 90c-40.1-3.6-96.5-45.6-97.4-109.4c-0.7-56.9 14.5-111 42.8-151.6c25.2-36 58.5-56.6 86.9-53.7c54.1 5.6 84 66.2 84.3 89.1c0.4 29.7-18 58.3-52 81.6c-24.7 17-55.3 29.4-80.8 33.2q-0.1 3.9 0 7.9c0.2 19.5 2.3 51.9 29.7 46.6c18.3-3.5 31.5-23 40.8-37.6c7.8-12.2 13.9-21.8 24-20.7c7.4 0.9 15.4 7.8 15.7 24.6zm-104.5-72.3c38-3.3 81.3-37 80.9-65.7c-0.1-8.3-9.4-28.5-21-29.1c-12.8 1.1-44.7 38.8-59.9 94.8zm353.9-35.8c0.6 45-33.4 59.6-57.9 54.8c-27.5-5.5-43.5-20.4-43.9-48.2c-0.1-5.8 1.4-18.3 8.3-24.6c-18.4 7.3-34 30.3-40.9 54.3c-12.1 42.3-17.9 88.5-22.1 122.2c-5.5 44.6-7.4 59.6-18.9 57.9c-30.2-4.6-60.1-35.9-60.3-51.9c-0.3-22 10.6-89.5 23.7-147.3c7.4-32.8 15-60.3 22-79.5c9.9-27.2 17.9-37.6 27.7-36c18.8 3 36.3 25.1 44.1 40.1c12.1-10.2 31.8-18.2 62.8-11.9c26.3 5.3 54.8 28.6 55.4 70.1zm-822.5 221c5.1 6.6 4.8 17.6 0.4 25.8c-10.5 19.7-32.1 41.3-72.2 46.7c-33.1 5-62.5-6.2-82.5-33.1c-28.5-38.1-32.7-93.3-69.2-125.3c-1.3-1.2-22.1-16-22.5-14.6c-29.9 114.5-43.3 198.9-51.3 202c-13.8 5.5-72.4 2.8-73-44.7c-1-65.5 77.2-307.7 108.5-385.7c-5.1 1-36.8 34.1-50 33.3c-14.6-1-18.1-37.2-17-43.9c1.2-6.6 62.6-58.4 150.2-73.1c87.5-14.7 159.5 1.6 160.8 98.3c0.5 37.9-12.1 69.6-31.8 95.5c0 0-0.2 0.3-0.6 0.7c-5.5 7.1-11.5 13.8-17.9 20c-18.5 18.9-49.7 46.4-88.1 63.9c0 0 11.9 17 30.1 45.9c17.9 27.6 34.8 59.2 57.3 74.9c19.4 13.5 39 11.2 53.6 7.7c7.2-0.6 12.1 1.8 15.2 5.7zm-209.8-183.6c43.6-8.3 98.9-69.7 98.2-121.6c-0.4-30.7-4.7-56.7-49.2-49.5c-25 58-45.3 116.8-62.1 172c3.7 0.2 8 0 13.1-0.9z" />
			</g>
			<g id="g19480">
				<path id="path19466" class="s0" d="m52.3 161.3c-7.1-24.9 14.8-40.3 26.6-43.6c30.6-8.6 59 26.7 65.6 42.6c5 12 3.6 24.7-3.8 35c-5.4 7.4-13.5 12.8-22.8 15.3c-9.5 2.6-23.5-0.8-35.7-8.6c-14.4-9.2-25-23.6-29.9-40.7zm-42.2 114.3c-18.3-19-6.1-42 3-50c23.4-20.7 65.8-1.4 79.3 9.8c10.2 8.5 15 20.4 13.2 32.7c-1.2 8.8-5.9 17.1-13.1 23.3c-7.3 6.3-21.5 9.3-36.1 7.6c-17.3-2-33.7-10.3-46.3-23.4zm229.7-129.8c-5.1 13.1-14.3 23.6-23.5 26.6c-9 3-18.7 2.8-27.4-0.4c-12.1-4.6-20.8-14.5-23.9-27.3c-4.2-17-2.5-62.2 27.3-71.7c11.4-3.7 38.1-2.7 47.3 22.2c6.2 17.1 6.3 35 0.2 50.6zm92.7 37.7c-8.3 11.5-20.1 19.7-29.9 20.7c-9.6 1-19.2-1.2-26.9-6.2c-10.7-6.9-16.8-18.2-16.6-31.2c0.3-17.2 13.6-60.3 45.3-63.2c12.1-1.2 38.2 5.4 40.8 31.2c1.8 17.7-2.7 34.9-12.7 48.7zm10.1 119.3c5.1 18.2 1.8 38.8-11.6 53.1c-15.6 16.6-37.1 16.6-58.7 15.1c-7.2-0.5-13.5 0.9-19.4 3.4c-5.9 2.6-11.3 6.2-15.7 11.7c-13.2 16.4-27.5 31.8-50.8 31.8c-20.1 0-38.3-11.3-49.1-27.1c-24.2-35.6-21.7-77.4-12.4-117.1c6.5-27.4 17-63.7 44.1-78.9c29.9-9.2 65.1 7.4 90.7 21.1c37.1 19.7 71.3 45.9 82.9 86.9z" />
			</g>
		</g>
	</g>
</svg>