<svg version="1.2" baseProfile="tiny-ps" xmlns="http://www.w3.org/2000/svg" viewBox="0 0 1565 708" width="1565" height="708">
	<title>REPAY Corporate Sustainability Report_March 2021_unlocked-pdf-svg</title>
	<defs>
		<clipPath clipPathUnits="userSpaceOnUse" id="cp1">
			<path d="M-23727.76 -637.12L5530.73 -637.12L5530.73 21986.43L-23727.76 21986.43L-23727.76 -637.12Z" />
		</clipPath>
	</defs>
	<style>
		tspan { white-space:pre }
		.shp0 { fill: #002a49 } 
	</style>
	<g id="Clip-Path: Page 2" clip-path="url(#cp1)">
		<g id="Page 2">
			<path id="Path 42" fill-rule="evenodd" class="shp0" d="M-0.12 40.11C-0.12 18.12 19.65 0 42.74 0L330.52 0C425.09 0 500.82 26.06 549.22 70.24C586.53 104.43 608.51 153.6 608.51 208.68L608.51 210.71C608.51 326.05 522.8 393.14 403.11 414.21L594.29 638.97C602.97 648.03 608.51 656.9 608.51 667.99C608.51 689.06 586.53 707.17 564.55 707.17C547 707.17 533.89 698.12 523.91 686.1L307.43 429.37L86.7 429.37L86.7 667.06C86.7 689.06 66.93 707.17 42.74 707.17C19.65 707.17 -0.12 689.06 -0.12 667.06L-0.12 40.11ZM322.94 358.21C438.21 358.21 520.59 304.05 520.59 213.67L520.59 211.64C520.59 125.5 448.18 73.2 323.87 73.2L86.7 73.2L86.7 358.21L322.94 358.21ZM998.25 662.07L998.25 40.11C998.25 18.12 1018.2 0 1041.11 0L1519.14 0C1541.12 0 1558.67 16.08 1558.67 36.23C1558.67 56.19 1541.12 72.27 1519.14 72.27L1085.07 72.27L1085.07 312L1469.64 312C1491.62 312 1509.17 329 1509.17 348.04C1509.17 368.19 1491.62 384.27 1469.64 384.27L1085.07 384.27L1085.07 629.91L1524.69 629.91C1546.67 629.91 1564.21 645.99 1564.21 665.95C1564.21 686.1 1546.67 702.18 1524.69 702.18L1041.11 702.18C1018.2 702.18 998.25 684.07 998.25 662.07ZM1978.71 40.11C1978.71 18.12 1998.47 0 2021.56 0L2266.49 0C2440.12 0 2554.46 84.29 2554.46 222.73L2554.46 224.76C2554.46 376.14 2415.92 454.32 2252.27 454.32L2065.52 454.32L2065.52 667.06C2065.52 689.06 2045.76 707.17 2021.56 707.17C1998.47 707.17 1978.71 689.06 1978.71 667.06L1978.71 40.11ZM2255.59 382.24C2383.05 382.24 2466.54 319.95 2466.54 227.72L2466.54 225.68C2466.54 125.5 2384.15 73.2 2259.84 73.2L2065.52 73.2L2065.52 382.24L2255.59 382.24Z" />
		</g>
	</g>
</svg>