<svg version="1.2" xmlns="http://www.w3.org/2000/svg" viewBox="0 0 1587 932" width="1587" height="932">
	<title>repare-therapeutics-logo-svg (1)-svg</title>
	<defs>
		<clipPath clipPathUnits="userSpaceOnUse" id="cp1">
			<path d="m0 0h5021.07v1510.02h-5021.07z"/>
		</clipPath>
	</defs>
	<style>
		.s0 { fill: #ffffff } 
	</style>
	<g id="Clip-Path: Clip-Path" clip-path="url(#cp1)">
		<g id="Clip-Path">
			<g id="Layer">
				<path id="Layer" class="s0" d="m1375.8 796.3h210.9v135.1h-210.9z"/>
				<path id="Layer" class="s0" d="m1379.7 751.4h207v90.2h-207z"/>
				<path id="Layer" class="s0" d="m1375.8 419.2h210.9v136.6h-210.9z"/>
				<path id="Layer" class="s0" d="m1379.7 375.9h207v89.8h-207z"/>
				<path id="Layer" class="s0" d="m1375.8 45.6h210.9v134.7h-210.9z"/>
				<path id="Layer" class="s0" d="m1379.7 0.3h207v90.2h-207z"/>
				<path id="Layer" class="s0" d="m1200.1 45.6h209.9v134.7h-209.9z"/>
				<path id="Layer" class="s0" d="m1200.1 419.2h209.9v136.6h-209.9z"/>
				<path id="Layer" class="s0" d="m1200.1 796.3h209.9v135.1h-209.9z"/>
				<path id="Layer" class="s0" d="m1038.7 45.6h194.9v134.7h-194.9z"/>
				<path id="Layer" class="s0" d="m1038.7 419.2h194.9v136.6h-194.9z"/>
				<path id="Layer" class="s0" d="m1038.7 796.3h194.9v135.1h-194.9z"/>
				<path id="Layer" class="s0" d="m880.6 45.6h176.7v134.7h-176.7z"/>
				<path id="Layer" class="s0" d="m880.6 419.2h176.7v136.6h-176.7z"/>
				<path id="Layer" class="s0" d="m880.6 796.3h176.7v135.1h-176.7z"/>
				<path id="Layer" fill-rule="evenodd" class="s0" d="m0.3 930.4v-930.1h381.1c116.5 0 188.4 12.4 241.1 43 71.9 42 110.6 115.2 110.6 205.3 0 121.1-65 200.8-185.4 225.9 67.7 18.2 87.2 44.6 141.2 199.5l92.7 256.4h-259l-74.8-234.3c-30.6-96.3-66.4-124-157.9-124h-40v358.3zm337.8-536.9c99.9 0 145.4-33.6 145.4-104.5 0-73.9-51.4-110.3-157.8-110.3h-83.3v214.4z"/>
				<path id="Layer" class="s0" d="m1200.1 0.3h209.9v90.2h-209.9z"/>
				<path id="Layer" class="s0" d="m1200.1 751.4h209.9v90.2h-209.9z"/>
				<path id="Layer" class="s0" d="m1030.9 0.3h202.7v90.2h-202.7z"/>
				<path id="Layer" class="s0" d="m1030.9 751.4h202.7v90.2h-202.7z"/>
				<path id="Layer" class="s0" d="m880.6 0.3h176.7v90.2h-176.7z"/>
				<path id="Layer" class="s0" d="m880.6 751.4h176.7v90.2h-176.7z"/>
				<path id="Layer" class="s0" d="m1200.1 375.9h209.9v89.8h-209.9z"/>
				<path id="Layer" class="s0" d="m1030.9 375.9h202.7v89.8h-202.7z"/>
				<path id="Layer" class="s0" d="m880.6 375.9h176.7v89.8h-176.7z"/>
			</g>
		</g>
	</g>
</svg>