<svg version="1.2" xmlns="http://www.w3.org/2000/svg" viewBox="0 0 1540 512" width="1540" height="512">
	<title>rottneros-ny-logo-svg</title>
	<style>
		.s0 { fill: #ffffff } 
	</style>
	<g id="#1d1d1bff">
		<path id="Layer" fill-rule="evenodd" class="s0" d="m165.6 0.3c16.1 18.7 31.6 37.9 47.5 56.6 9.2-11.6 21.2-21.2 35.3-26.1 12.3-4.5 25.6-4.9 38.6-4.6 0 46.3 0.1 92.5 0 138.8-11-5.9-21.6-12.4-33-17.4-55.6-24.8-122-24.8-177.5 0.4-11.1 4.9-21.4 11.4-32 17.2-0.2-46.3-0.1-92.7-0.1-139 12.7-0.3 25.7 0 37.8 4.3 14.5 4.8 26.8 14.5 36.2 26.4 15.8-18.8 31.5-37.7 47.2-56.6zm0 32.3c-16.7 20-33.3 40.2-50.2 60-6.2-10.9-11.4-22.7-21-31.1-8-7.6-18.4-12.1-29.2-14-0.3 27.6-0.1 55.1 0 82.7 62.8-29.3 138.4-29.1 201.1 0.1 0.2-27.6 0.3-55.2 0-82.8-12.4 2.1-24.2 8-32.6 17.4-7.7 7.9-12.2 18.2-17.7 27.6-17.1-19.7-33.3-40.1-50.4-59.9zm-13.4 148.1c35.7-3.1 72.4 6 102.5 25.5 32.4 20.7 57.1 52.8 68.6 89.4 9.5 29.6 10.3 61.9 2.5 91.9-9.9 39.4-35.3 74.5-69.2 96.9-27.7 18.3-61 28-94.2 27.2-35.5-0.5-70.6-13.1-98.5-35.1-29.6-23.2-51-56.7-59.4-93.4-8.6-37.6-3.8-78.1 13.9-112.5 17-33.6 45.8-61 80.3-76.3 16.9-7.5 35-12.1 53.5-13.6zm-12.6 22.5c-30.4 5.5-58.6 21.3-79.7 43.8 39.5 0.1 79.1-0.1 118.7 0 23.5 0.3 45.3 16 54.7 37.2 8.5 18.5 6.8 41.1-3.7 58.5-8.5 14.5-23.3 24.8-39.6 28.4 6.4 10.1 12.6 20.4 19.2 30.4 5.9 8.8 13.1 17.1 22.9 21.6 12.4 5.7 27.2 7.7 40.2 2.8 14.3-5.3 25-18 30-32.1 10.7-30.2 10.9-63.8 0.6-94.1-11.1-33.5-35-62.5-65.8-79.9-29.2-16.9-64.4-22.8-97.5-16.6zm-95.8 64.5c-22.5 34.8-28.8 79.3-17 119 10.9 37.9 38.1 70.5 73.2 88.5 0.1-50.4-0.1-100.7 0.1-151 24.8-9.3 52.5 2.2 69.7 20.8 3.1 2.6 5.3 7.9 10.1 7 21.3-1.4 38.7-21.6 38.2-42.7 0.3-21.8-19.1-41.3-40.8-41.6q-66.7 0-133.5 0zm76.9 76.7c-0.2 44.5 0 89.1-0.1 133.6 0.2 1.9-0.5 4.2 0.8 5.9 50 17 108.9 2.8 145.9-34.9-17.3 1.8-35.4-1.5-50.4-10.6-10.2-6.3-18.2-15.5-24.8-25.3-11.5-17.1-21.3-35.6-34.8-51.4-8.3-9.3-18.7-18.1-31.5-19.5-1.8 0-5.4-0.7-5.1 2.2z"/>
		<path id="Layer" fill-rule="evenodd" class="s0" d="m619.3 292.6c13.9-1.6 28.7 0.4 40.8 7.8 10.1 6 17.9 15.8 21.6 26.9 6.9 20.1 3.4 44.5-11.8 60-15.9 16.4-41.6 20.2-62.7 13.1-15.4-5-28.1-17.6-33.1-33-6-18.5-3.6-40.6 9-56 8.9-10.9 22.4-17.2 36.2-18.8zm-0.1 18.4c-4.9 1.3-9.5 3.7-13.4 6.9-17.2 14.8-17.3 45-0.1 59.8 12.1 10.6 31.8 10.8 44.1 0.4 17.4-14.4 17.8-44.1 1.3-59.3-8.3-7.9-20.8-10.6-31.9-7.8zm744.1-18.4c13.6-1.6 28 0.3 40 7.2 10.5 6 18.6 16 22.5 27.4 6.8 20.2 3.4 44.7-11.9 60.2-15.9 16.3-41.6 20.1-62.7 13-15.4-5-28-17.6-33-33.1-6.4-19.4-3.3-42.7 10.9-58 8.8-9.6 21.4-15.2 34.2-16.7zm-0.1 18.5c-5.5 1.4-10.6 4.2-14.7 8.2-16.1 15.4-15.4 44.8 2 58.9 12.6 10.5 32.9 10 44.8-1.3 16-14.9 15.9-43.4-0.1-58.2-8.4-7.8-20.9-10.5-32-7.6zm112.4-10.5c8.4-7 19.7-8.8 30.3-8.3 11.8 0 23.3 3.6 33.8 8.9q-4 9.3-8.2 18.4c-10.6-4.2-21.8-9.1-33.4-7-4.6 0.7-9.9 3.7-10.1 8.9-0.5 4.9 3.8 8.1 7.6 10.3 10.7 6.2 22 11.7 31.8 19.5 14.4 10.7 13.7 35.7-1.3 45.7-10.1 6.8-23.1 7.5-34.9 6.2-10.8-1-20.5-6.3-30.2-10.7 2.6-6.5 5.6-12.8 8.6-19 10 5.3 20.6 10.9 32.3 10.4 5.2-0.2 11.4-2.2 13.4-7.5 1.9-4.7-1-9.7-5-12.2-10.7-7-22.5-12.2-32.8-19.8-4.9-3.7-9.6-8.3-11.4-14.2-3.2-10.6 0.5-23 9.5-29.6zm-1015.4-6.5c13.2-0.1 26.5-0.2 39.8 0 8.7 0.1 18.4 1.3 24.9 7.8 8.8 8 10.2 21.1 8.2 32.1-1.9 10-9.3 18.3-18.5 22.1 3 5.1 5.4 10.7 7 16.5 1.3 3.7 2.2 8.4 6.3 10 3.6 1.6 7.3-0.5 10.8-1.5 2.9 6.1 6.3 12 9 18.3-10.9 6.1-25.8 6.1-35.3-2.7-10.2-9.7-10-25.5-19.7-35.6-3-3.3-8-2-12-2.5 0 14.3 0 28.7 0 43-6.8 0.2-13.7 0.1-20.5 0q-0.2-53.7 0-107.5zm20.5 17.5c0 9.9-0.1 19.7 0.1 29.6 7.6-0.2 15.4 0.7 22.7-1.3 12.3-3 12.7-24.7 0-27.3-7.5-1.7-15.2-0.9-22.8-1zm229.3-17.5q42.4-0.1 84.9 0c0 5.8 0 11.6-0.1 17.5-10.7 0-21.3-0.1-32 0-0.1 30 0 60.1-0.1 90.1q-10.3 0-20.5 0c-0.1-30 0-60.1-0.1-90.1-10.7-0.1-21.3 0-32 0-0.1-5.9-0.1-11.7-0.1-17.5zm113.6 0c28.3-0.1 56.7-0.2 85 0q0 8.7 0 17.5c-10.8 0-21.5-0.1-32.2 0-0.1 30-0.1 60-0.1 90-6.8 0.2-13.6 0.1-20.4 0-0.1-29.9-0.1-59.9-0.1-89.9-10.7-0.3-21.4-0.1-32.1-0.1q-0.2-8.8-0.1-17.5zm122.7 0c7.9-0.1 15.8-0.1 23.6-0.1 14.2 22 28.1 44.1 42.2 66.1 2.7 4.1 4.8 8.5 6.9 12.9 0.1-26.3-0.1-52.6 0.1-78.9q9.7-0.1 19.3 0 0.1 54.2 0 108.5c-7.1 0.1-14.3 0-21.4 0-14.2-21-28-42.2-42.1-63.3-3.2-4.8-5.9-9.8-8.9-14.7-0.2 25.7 0.1 51.4-0.1 77q-9.8 0.2-19.6 0-0.1-53.7 0-107.5zm143.5 0q32.7-0.2 65.4 0c0.1 5.8 0.1 11.6 0 17.5-15 0-29.9-0.1-44.8 0q-0.1 13.2 0 26.4c12.2 0.1 24.4 0 36.7 0 0.1 5.9 0.1 11.7 0 17.5-12.2 0.1-24.5 0.1-36.7 0.1-0.1 9.5-0.1 19-0.1 28.5 15.7 0.1 31.4 0.1 47 0 0.1 5.9 0 11.7 0.1 17.5q-33.8 0.2-67.6 0-0.1-53.7 0-107.5zm114.4 0c15.5 0.1 31-0.5 46.4 0.3 10 0.5 19.9 5.9 24.2 15.2 3.8 8.4 4 18.2 1.7 27.1-2.5 8.8-9.4 15.9-17.8 19.2 2.9 5.3 5.3 10.8 7 16.6 1.3 3.7 2.2 8.4 6.2 10.1 3.6 1.6 7.4-0.5 10.8-1.5 3 6.1 6.4 12 9.1 18.3-5.7 2.6-11.8 4.9-18.1 4.3-8.5-0.4-17.1-4.8-21.5-12.2-5.9-9.5-7.4-21.2-14.8-29.7-2.9-4-8.3-2.8-12.6-3.2-0.1 14.3 0 28.7 0 43q-10.3 0.2-20.6 0-0.1-53.7 0-107.5zm20.6 17.5c0 9.9-0.1 19.7 0.1 29.6 7.5-0.3 15.3 0.8 22.7-1.2 12.3-3 12.6-24.8-0.1-27.4-7.4-1.7-15.1-0.9-22.7-1z"/>
	</g>
</svg>