<svg version="1.2" xmlns="http://www.w3.org/2000/svg" viewBox="0 0 1121 1548" width="1121" height="1548">
	<title>1 (3)-svg</title>
	<style>
		.s0 { fill: #88898d } 
		.s1 { fill: #3f695b } 
	</style>
	<g id="#7c9695ff">
		<path id="Layer" class="s0" d="m242.6 11.3c40-10.1 81.6-9.5 122.6-10.4 82.6-0.1 165.3 0 247.9 0 32.3 1.3 64.7-0.2 97 1 23.4 0.3 46.8-0.6 70.1 0.8-52.6 7.4-104.1 24-150.1 50.8-50 29-92.6 71.5-118.7 123.2-24.3 47.2-35.1 100.4-36.4 153.2-0.9 113.5-1.8 227.1-2.3 340.7-0.9 29.7 0.4 59.5-0.8 89.2-0.3 28.4 0.4 56.9-0.6 85.3 0.4 48.2-0.8 96.4-0.4 144.6-0.9 28.3-0.4 56.7-0.6 85.1-1.1 34.3 0.3 68.6-0.9 102.9 0.1 79.3-1.1 158.6-0.9 238-1.2 43.9 0 87.9-1.4 131.8-155.3-76.6-310.6-153.2-465.9-229.8-0.3-230.9-0.1-461.7-0.1-692.6 0.4-85.5-1.6-171 2.5-256.4 1.7-36.8 3.4-73.6 8.7-110.1 2.6-19.7 9.2-38.5 17-56.7 25.3-57.7 65.6-109.9 118.7-144.7 29.2-19.6 60.4-37.1 94.6-45.9z"/>
	</g>
	<g id="#317247ff">
		<path id="Layer" class="s1" d="m806.1 69.6c74.2-6.9 150.7 16 208.3 63.4 63.2 50.9 103.1 129.5 106.1 210.6 3.4 67.3-17.7 135.5-59 188.8-48.5 63.8-124.6 105.8-204.5 112-76.7 7.1-155.8-18.5-213.8-69.2-23.5-20.4-43.7-44.5-59.5-71.3-28.1-46.8-41.6-101.7-40.2-156.1 1.8-64.2 26.2-127.3 67.5-176.4 48.4-57.8 120-95.5 195.1-101.8z"/>
	</g>
</svg>