<svg version="1.2" xmlns="http://www.w3.org/2000/svg" viewBox="0 0 1550 355" width="1550" height="355">
	<title>Renishaw_logo-svg</title>
	<style>
		.s0 { fill: #f89728 } 
		.s1 { fill: none;stroke: #f89728;stroke-width: 8.7 } 
		.s2 { fill: none;stroke: #f89728;stroke-width: 7.3 } 
		.s3 { fill: none;stroke: #f89728;stroke-width: 3.6 } 
		.s4 { fill: none;stroke: #f89728;stroke-width: 5 } 
		.s5 { fill: none;stroke: #f89728;stroke-width: 6.6 } 
		.s6 { fill: none;stroke: #f89728;stroke-width: 8.1 } 
		.s7 { fill: none;stroke: #f89728;stroke-width: 4.7 } 
		.s8 { fill: none;stroke: #f89728;stroke-width: 7.6 } 
		.s9 { fill: none;stroke: #f89728;stroke-width: 6.2 } 
		.s10 { fill: #000000 } 
	</style>
	<g id="layer1">
		<g id="g1153">
			<path id="path616" class="s0" d="m94.4 5.2c31.5 0 60.1 20.8 60.1 54.8 0 23.2-10.8 39.8-34 45.6l51.8 79.6h-67.1l-41.4-88.3h0.8c22 0 30.2-13.3 30.2-34.4 0-20.8-12.8-32.4-28.1-32.4h-6.6v155.1h-59.7v-180zm145.8 103.7v37.3c0 7.9 5 12.4 14.9 12.4h51v26.6h-92.4c-19.1 0-33.2-13.7-33.2-35.7v-105.7c0-24.4 19.1-38.6 40.6-38.6h82.1v26.6h-52.2c-7.9 0-10.8 6.2-10.8 16.2v34.4h56.3v26.5zm207.1 77.9c-12.4 0-18.6-4.5-24.8-14.9l-63-102h-0.8v115.3h-29.9v-148c0-14.5 3-33.6 31.1-33.6 17.9 0 26.6 8.7 35.7 23.2l43 68.4h0.9v-90.1h29.8v151.9c0 15.7-3.3 29.8-22 29.8zm193-140.1c0 8.3 5 12.6 12.6 15.5 3.7 1.5 8.1 2.6 12.8 3.7l14.8 3.6c20.1 5.6 40.2 16.2 40.2 52.6 0 41.9-28.2 63.1-65 63.1h-64.7v-26.6h50.6c16.5 0 27.3-1.2 27.3-21.5 0-8.3-5.4-12.8-13.5-16-4-1.6-8.7-2.9-13.8-4.1l-15.8-3.9c-21.5-6-43.1-16.2-43.1-50.2 0-37.7 26.6-57.7 62.2-57.7h57.1v26.6h-41c-9.1 0-20.7 0.8-20.7 14.9z"/>
			<path id="path618" class="s0" d="m502 5.2h59.7v180h-59.7z"/>
			<path id="path622" fill-rule="evenodd" class="s0" d="m1161.8 134.2h0.8l25.7-90.4-9.5-38.6h60.1l34.3 131h0.9l36.8-131h30.3l-50.6 162.6c-4.5 15.3-14.9 19-29.8 19-21.9 0-34.8-9.9-40.2-31.1l-17-68.4h-0.8l-17 63.5c-5.3 19.8-16.1 36-39.3 36-22.8 0-33.6-12-39.4-32.7l-41.8-148.9h60zm166.2 10.3c11.4 0 21.1 8.8 21.1 20.8 0 12.1-9.7 21-21.1 21-11.5 0-21.2-8.9-21.2-21 0-12 9.7-20.8 21.2-20.8zm16.9 20.8c0-9.9-7.4-17.3-16.9-17.3-9.5 0-17 7.4-17 17.3 0 10.1 7.5 17.5 17 17.5 9.5 0 16.9-7.4 16.9-17.5zm-25 12.1v-24.1h9.2c5.7 0 8.6 2.1 8.6 6.9 0 4.3-2.8 6.2-6.3 6.6l6.9 10.6h-4.1l-6.4-10.4h-4.2v10.4zm13.9-17.4c0-3-2.7-3.6-5.2-3.6h-5.1v7.5h4.4c3.1 0 5.9-0.3 5.9-3.9zm-370.4-120.3c6.7-21.1 14.5-36 39.4-36 21.9 0 29.8 16.1 35.6 34.4l48.5 147.1h-59.7l-10.3-33.1h-61.3l-11.2 33.1h-27.4zm-220.7-34.4h59.7v63h41v-63h59.6v180h-59.6v-90.4h-41v90.4h-59.7zm266.3 121.9l-21.5-73h-0.9l-22.8 73z"/>
			<path id="path626" class="s1" d="m1369.6 7.6h173.2v175.5h-173.2z"/>
			<ellipse id="path630" class="s2" cx="1456.2" cy="114.4" rx="76.5" ry="50.5"/>
			<path id="path634" class="s2" d="m1400.9 147.2c0 0 22.1-17.8 53.4-17.3 34 0.6 56.4 19.7 56.4 19.7"/>
			<path id="path638" class="s3" d="m1443.3 65.3v63.8"/>
			<path id="path642" class="s4" d="m1427.5 66.8v66.6"/>
			<path id="path646" class="s5" d="m1419.4 69.7v66.2"/>
			<path id="path650" class="s6" d="m1404.1 74.8v70.5"/>
			<path id="path654" class="s7" d="m1435.4 66.2v64.3"/>
			<path id="path658" class="s0" d="m1393.7 83.9v57.9c-27.8-29.4-0.4-57-0.4-57z"/>
			<path id="path662" class="s8" d="m1393.7 83.9v57.9c-27.8-29.4-0.4-57-0.4-57"/>
			<path id="path666" class="s0" d="m1463.5 99.2c1.4 1.6 2.3 3.7 2.3 6 0 5.4-4.4 9.8-9.8 9.8-5.4 0-9.7-4.4-9.7-9.8 0-2.3 0.8-4.4 2.2-6 2 1.7 4.6 2.9 7.5 2.9 2.9 0 5.5-1.2 7.5-2.9zm-1.1-2.3c-1.7 1.6-3.9 2.5-6.4 2.5-2.5 0-4.7-0.9-6.4-2.5l-2.2-87.3h17.3z"/>
			<path id="path670" class="s1" d="m1397.5 78.7v67"/>
			<path id="path674" class="s9" d="m1411.5 70.9v69.8"/>
			<path id="path678" fill-rule="evenodd" class="s10" d="m153.8 277.8c3-4.9 7.5-10.5 18.3-10.5 13.5 0 25.4 10.3 25.4 31.5 0 16.8-7.6 32.9-25.7 32.9-11.3 0-15.3-6-17.3-9.4h-0.2v31.7h-16.1v-85.1h15.4v8.9zm27.1 22.2c0-9.7-3.4-18.8-13.7-18.8-11 0-13.6 9.9-13.6 19.7 0 9.1 3.9 17.6 14.1 17.6 10.4 0 13.2-11.3 13.2-18.5zm414.5 30.2l-22-61.3h18l12.6 45.1h0.2l13.1-45.1h17.1l-22.1 61.3zm-117.3 0v-37.2c0-4.5-0.3-12.1-10.5-12.1-7.1 0-12.6 4.8-12.6 14.1v35.2h-16.2v-61.3h15.5v9h0.2c2.2-3.7 6.8-10.6 18.4-10.6 12 0 21.3 7 21.3 20.5v42.4zm-141-61.3h16.1v61.3h-16.1zm0-22.3h16.1v15.1h-16.1zm-86.6 108l-7.2-0.2v-12.9l3.1 0.2c5.8 0 9.1-0.8 10.5-9.2l-22.5-63.7h17.9l13.1 45.1h0.3l12.5-45.1h17l-21 60.2c-7.6 22.6-9.7 25.6-23.7 25.6zm-167-77c3-4.8 7.5-10.4 18.3-10.4 13.5 0 25.4 10.3 25.4 31.5 0 16.8-7.6 32.9-25.7 32.9-11.3 0-15.3-6.1-17.3-9.4h-0.2v31.6h-16.1v-85h15.4v8.8zm27.1 22.3c0-9.7-3.4-18.8-13.7-18.8-11 0-13.7 9.9-13.7 19.7 0 9.1 4 17.6 14.2 17.6 10.3 0 13.2-11.3 13.2-18.5zm-53.2 27.7v2.4h-17.4c-0.9-2.9-1.1-3.8-1.5-7.3-3.7 3.8-8.8 8.9-19.8 8.9-9.2 0-18.6-5.2-18.6-17.8 0-12 7.6-18.1 17.8-19.6l14.5-2.2c2.6-0.3 5.7-1.3 5.7-4.8 0-6.8-6.5-7.1-10.6-7.1-8.1 0-9.5 4.9-9.9 8.5h-15.5c1.8-18.8 14.8-21.4 27.3-21.4 8.7 0 24.4 2.6 24.4 17.7v33.1c0 7.3 1.6 8.9 3.6 9.6zm-30.3-24c-5.9 1-10.9 2.5-10.9 9.2 0 5.6 4.4 7.3 7.5 7.3 7.1 0 14.4-4.6 14.4-12.1v-7.8c-1.6 1.3-4.3 2.3-11 3.4z"/>
			<path id="path680" class="s10" d="m209.2 247.5h16.2v82.7h-16.2z"/>
			<path id="path684" fill-rule="evenodd" class="s10" d="m407.9 330.2v-37.2c0-4.5-0.3-12.1-10.5-12.1-7.1 0-12.7 4.8-12.7 14.1v35.2h-16.1v-61.3h15.5v9h0.2c2.2-3.7 6.8-10.6 18.4-10.6 12 0 21.3 7 21.3 20.5v42.4zm129 1.5c-17.3 0-31.3-14.4-31.3-32.2 0-17.8 14-32.2 31.3-32.2 17.3 0 31.3 14.4 31.3 32.2 0 17.8-14 32.2-31.3 32.2zm-14.7-32.2c0 7.9 2.3 18.7 14.7 18.7 12.4 0 14.7-10.8 14.7-18.7 0-7.8-2.3-18.6-14.7-18.6-12.4 0-14.7 10.8-14.7 18.6zm174.3 28.2v2.4h-17.4c-0.9-2.8-1.1-3.8-1.5-7.2-3.6 3.8-8.8 8.8-19.7 8.8-9.2 0-18.7-5.1-18.7-17.8 0-12 7.6-18.1 17.9-19.5l14.5-2.3c2.5-0.3 5.6-1.3 5.6-4.8 0-6.8-6.4-7.1-10.6-7.1-8 0-9.4 4.9-9.9 8.5h-15.5c1.8-18.7 14.8-21.4 27.4-21.4 8.6 0 24.3 2.7 24.3 17.7v33.2c0 7.2 1.7 8.8 3.6 9.5zm-30.2-24c-6 1-11 2.5-11 9.2 0 5.6 4.4 7.3 7.5 7.3 7.1 0 14.4-4.6 14.4-12v-7.9c-1.6 1.3-4.3 2.3-10.9 3.4zm69.1-34.8v11.5h-10v33.3c0 3.5 0.1 4.9 6.7 4.9l3.3-0.2v12.2l-7.6 0.2h-2.1c-13.9 0-16.4-5.3-16.4-13.2v-37.2h-8.3v-11.5h8.3v-16.6h16.1v16.6zm10.6 0h16.2v61.3h-16.2zm0-22.2h16.2v15h-16.2zm59.3 85c-17.3 0-31.3-14.4-31.3-32.2 0-17.8 14-32.2 31.3-32.2 17.3 0 31.3 14.4 31.3 32.2 0 17.8-14 32.2-31.3 32.2zm-14.8-32.2c0 7.8 2.3 18.6 14.8 18.6 12.4 0 14.7-10.8 14.7-18.6 0-7.8-2.3-18.6-14.7-18.6-12.5 0-14.8 10.8-14.8 18.6zm96.5 30.6v-37.2c0-4.5-0.2-12-10.4-12-7.2 0-12.7 4.8-12.7 14.1v35.1h-16.1v-61.2h15.4v9h0.3c2.1-3.7 6.8-10.6 18.4-10.6 11.9 0 21.3 7 21.3 20.5v42.3zm69.9-83.9h9v24.4h-6.2v-16.6h-0.2l-5.8 16.6h-4.7l-5.8-16.6h-0.2v16.6h-6.2v-24.4h9l5.6 14.8zm-31.5 5.1v19.3h-6.6v-19.3h-6.8v-5.1h20.2v5.1z"/>
		</g>
	</g>
</svg>