<svg version="1.2" xmlns="http://www.w3.org/2000/svg" viewBox="0 0 1540 1540" width="1540" height="1540">
	<title>rtnpower-svg</title>
	<style>
		.s0 { fill: #00784a } 
		.s1 { fill: #fcfdfc } 
	</style>
	<g id="Layer_2">
		<g id="Layer_1-2">
			<path id="Layer" class="s0" d="m0 0h1540v1540h-1540z"/>
			<path id="Layer" fill-rule="evenodd" class="s1" d="m378.8 288.7c4.5 2.5 9.6 1.9 14.6 1.9 113.2 0 226.5 0 339.7 0.3q10.9 0 21.8 0.4 10.9 0.5 21.8 1.4 10.9 0.9 21.7 2.3 10.8 1.4 21.6 3.2c40.7 7 78.9 19.9 111.2 46.5 40.2 33.2 57.5 77.9 63.9 128.2 15.5 123-53.3 207.9-139.2 256-8.7 4.9-10.4 8.7-6.4 17.7 35.5 78.6 73.7 155.9 112.9 232.5 24 46.9 45.8 95.1 74.5 139.5 25.7 39.8 58.5 73.1 95.8 101.9q8.7 6.7 18.1 12.2 9.4 5.5 19.4 9.9 10 4.3 20.4 7.4 10.5 3.1 21.2 4.9c22.1 3.8 44.3 9.6 67.3 8.2 4-0.2 9.2-1.6 8.7 6.1-0.5 6.4-2.9 8.6-9.4 9.1-23 2.3-46.1 1.6-69.2 1.2-56.6-0.8-112.7-6.6-166.3-26.4-58.1-21.3-107.4-56.5-148.9-102-13.5-14.7-23.1-33.2-34-50.1-19.3-29.8-33.3-62.3-48.7-94.1-19.6-40.8-37-82.6-56.3-123.5-9.4-19.7-16.7-40.6-26.9-60.1-13.8-26.4-35.7-39.6-64.8-41.1-13.6-0.7-27.3-0.1-40.9-0.4-4.6-0.1-6.7 0.9-6.7 6 1.4 93-2.7 186 2.9 278.8q0.1 2 0.4 3.9 0.2 1.9 0.6 3.8 0.3 1.9 0.7 3.8 0.4 1.9 0.8 3.8c4.1 18.4 15.8 29.7 34 33.6 12.6 2.8 25.4 4.6 38.1 6.7 3.5 0.5 6.5 0.7 6.3 5.5-0.2 8.1-0.1 16.2 0 24.4 0 4.4-2.3 5.7-6.3 5.5-2.5-0.2-5.1 0-7.7 0-99.2 0-198.5 0-297.7 0.2-8 0-10.6-2.2-9.7-9.8q0.1-1.1 0.1-2.2 0-1.1 0-2.2 0-1.1 0-2.2 0-1.1-0.1-2.2c0-16.6 0-16.4 16-18.6 9.2-1.2 18.2-2.8 27.2-4.7q29.8-6 35.6-36 1.2-6.8 2.2-13.6 0.9-6.9 1.4-13.8 0.6-6.9 0.9-13.8 0.2-6.9 0.1-13.9 0-299.9 0-599.9c0-14.7-1-29.5-2.4-44.1-2.6-28-12.7-42.1-33.4-47.1-10.3-2.5-20.9-4.4-31.5-5.9-17-2.5-19.1-3.7-17.3-19.9 0.9-6.4 0-12.7 1.9-19.2zm237.1 252.7q0 44.8 0 89.6c0 30.3 0.2 60.5-0.1 90.8 0 7.3 1 10.5 9.4 10.2 23.6-1 47.3 0 70.9-1.4 69.2-4.2 117.6-43 136.6-109.4 11.8-41 13.3-83 8.6-125.1-4.4-40.4-18.1-77.7-47.2-107.3-46.4-47.3-103.4-55.1-165.6-42.5-9.5 2-12.9 5.6-12.8 15.9 0.5 59.7 0.2 119.5 0.2 179.2z"/>
			<path id="Layer" class="s1" d="m1129.6 512.8c0 53.3-13.7 96-39.7 134.9-26.6 39.8-62.3 69.5-103.9 92.3-6.6 3.7-9.3 6.7-5.7 14.2 19.7 40.9 38.4 82.2 58.6 122.9 16.8 33.9 32.7 68.3 50.1 101.9 25.1 48.7 48.7 98.2 76.9 145.3 26.8 44.6 64.9 72.5 115.1 84.5 5.3 1.3 9.5 2.3 8.7 9.8-0.8 7.6-5.7 7.8-10.9 7.2q-4.1-0.4-8.1-0.9-4.1-0.5-8.2-1.1-4-0.7-8-1.4-4.1-0.7-8.1-1.6c-68.4-15.3-112.6-61-149.4-116.7-45.9-69.4-80.3-144.9-117.1-219.1-21.2-42.6-41.9-85.3-61-128.8-3.7-8.4-2.6-12.1 5.8-16.8 66-37.3 116.7-88.5 135.1-164.1 15.7-64.3 9.9-127.7-23.5-186.3-21.9-38.4-57.2-60.5-98.5-73.9q-0.6-0.1-1.3-0.3-0.7-0.2-1.3-0.4-0.7-0.2-1.4-0.4-0.6-0.2-1.3-0.4c-2.6-1.3-8.1-0.8-6.2-5.6 1.5-3.6 5.6-4.1 9.9-2.4 24.6 9.1 50.2 15 74.2 25.9 61.8 28.3 101.8 74 114.9 141.5q1 4.9 1.7 9.9 0.8 4.9 1.3 9.9 0.5 5 0.8 10 0.4 5 0.5 10z"/>
		</g>
	</g>
</svg>