<svg version="1.2" baseProfile="tiny-ps" xmlns="http://www.w3.org/2000/svg" viewBox="0 0 1790 451" width="1790" height="451">
	<title>rtx_logo-svg</title>
	<style>
		tspan { white-space:pre }
		.shp0 { fill: #ce1126 } 
	</style>
	<g id="rtx_logo">
		<path id="Fill-1" fill-rule="evenodd" class="shp0" d="M805.85 166.32L760.67 61.89L802.65 61.89L825.03 120.9L846.13 61.89L887.27 61.89L818.79 220.75L779.98 220.75L805.85 166.32ZM227.72 0.78C231.71 1.36 235.67 2.06 239.57 2.88L218.91 121.53C215.07 120.54 211.1 119.83 207.05 119.43L227.72 0.78ZM144.63 140.45C140.01 144.73 135.92 149.53 132.42 154.78L41.67 77.6C45.45 72.59 49.45 67.76 53.67 63.13L144.63 140.45ZM243.88 132.81C240.76 130.69 237.49 128.8 234.09 127.13L293.53 22.95C296.83 24.77 300.06 26.71 303.24 28.71L243.88 132.81ZM348.16 67.42C350.29 69.89 352.36 72.43 354.37 75L263.72 152.02C261.79 149.38 259.7 146.86 257.47 144.48L348.16 67.42ZM9.71 140.59C11.81 133.64 14.26 126.85 17.05 120.26L128.45 161.36C125.08 167.64 122.52 174.43 120.88 181.57L9.71 140.59ZM279.25 199.73C279.25 190.32 277.63 181.29 274.69 172.89L395.19 172.89C396.3 181.49 396.94 190.25 396.94 199.16C396.94 206.85 396.47 214.44 395.63 221.91L331.03 221.92L391.83 244.32C388.46 259.15 383.51 273.37 377.09 286.74L307.83 261.2L364.41 309.24C356.61 321.25 347.57 332.35 337.48 342.37L274.17 288.58L315.57 361.17C304.73 369.18 293.06 376.09 280.71 381.77L235.6 302.59L251.26 392.54C239.74 395.73 227.79 397.88 215.52 398.91L198.63 301.96L181.8 398.85C170.08 397.82 158.65 395.78 147.61 392.78L165.66 289.1L113.94 380.21C104.25 375.53 95.01 370.05 86.27 363.9L141.3 266.92L56.94 338.66C50.14 331.55 43.87 323.94 38.15 315.87L128.37 239.07L17.85 279.85C14.29 271.64 11.26 263.15 8.79 254.41L119.99 213.37C126.44 251.44 159.36 280.43 199.04 280.43C243.34 280.43 279.25 244.3 279.25 199.73ZM118.82 199.73C118.82 203.53 119.11 207.25 119.61 210.91L1.49 210.91C1.26 207.02 1.12 203.1 1.12 199.16C1.12 194.92 1.28 190.74 1.55 186.58L119.91 186.58C119.21 190.86 118.82 195.25 118.82 199.73ZM93.17 29.78C97.67 26.89 102.27 24.18 107 21.65L166.45 125.99C161.53 128.19 156.88 130.88 152.55 133.99L93.17 29.78ZM157.86 3.03C162.18 2.1 166.56 1.33 170.97 0.7L191.65 119.38C187.15 119.79 182.76 120.57 178.5 121.71L157.86 3.03ZM1226.56 236.84L1244.67 236.84L1244.67 395.43L1226.56 395.43L1226.56 236.84ZM1564.77 251.2C1564.77 254.91 1563.61 257.98 1561.34 260.41C1559.08 262.83 1556.09 264.05 1552.4 264.05C1548.7 264.05 1545.73 262.83 1543.45 260.41C1541.18 257.98 1540.05 254.91 1540.05 251.2C1540.05 247.48 1541.18 244.4 1543.45 241.98C1545.73 239.55 1548.7 238.34 1552.4 238.34C1556.09 238.34 1559.08 239.55 1561.34 241.98C1563.61 244.4 1564.77 247.48 1564.77 251.2ZM1072.59 172.53L1072.59 112.52C1072.59 99.39 1067.69 92.81 1057.89 92.81C1052.49 92.81 1048.41 94.63 1045.64 98.27C1042.87 101.91 1041.49 107.17 1041.49 114.02L1041.49 172.53L1003.14 172.53L1003.14 9.66L1041.49 9.66L1041.49 73.73C1044.61 68.89 1048.87 65.14 1054.27 62.48C1059.66 59.84 1065.76 58.52 1072.59 58.52C1085.22 58.52 1094.78 62.45 1101.23 70.31C1107.7 78.17 1110.93 89.81 1110.93 105.24L1110.93 172.53L1072.59 172.53ZM1184.18 302.85C1189.08 307.85 1192.92 313.77 1195.68 320.63C1198.45 327.49 1199.84 334.93 1199.84 342.92C1199.84 350.93 1198.45 358.35 1195.68 365.21C1192.92 372.07 1189.08 378.01 1184.18 383C1179.29 388 1173.5 391.94 1166.82 394.79C1160.14 397.64 1152.89 399.08 1145.09 399.08C1137.29 399.08 1130.04 397.64 1123.36 394.79C1116.68 391.94 1110.9 388 1106 383C1101.1 378.01 1097.27 372.07 1094.5 365.21C1091.73 358.35 1090.34 350.93 1090.34 342.92C1090.34 334.93 1091.73 327.49 1094.5 320.63C1097.27 313.77 1101.1 307.85 1106 302.85C1110.9 297.85 1116.68 293.92 1123.36 291.05C1130.04 288.19 1137.29 286.77 1145.09 286.77C1152.89 286.77 1160.14 288.19 1166.82 291.05C1173.5 293.92 1179.29 297.85 1184.18 302.85ZM1178.75 359.32C1180.45 354.39 1181.31 348.91 1181.31 342.92C1181.31 336.92 1180.45 331.45 1178.75 326.53C1177.04 321.61 1174.59 317.43 1171.4 313.98C1168.2 310.57 1164.4 307.89 1160 305.96C1155.6 304.02 1150.63 303.06 1145.09 303.06C1139.57 303.06 1134.59 304.02 1130.18 305.96C1125.78 307.89 1121.98 310.57 1118.78 313.98C1115.59 317.43 1113.13 321.61 1111.43 326.53C1109.73 331.45 1108.88 336.92 1108.88 342.92C1108.88 348.91 1109.73 354.39 1111.43 359.32C1113.13 364.25 1115.59 368.43 1118.78 371.86C1121.98 375.29 1125.78 377.97 1130.18 379.9C1134.59 381.81 1139.57 382.79 1145.09 382.79C1150.63 382.79 1155.6 381.81 1160 379.9C1164.4 377.97 1168.2 375.29 1171.4 371.86C1174.59 368.43 1177.04 364.25 1178.75 359.32ZM1543.45 289.77L1561.56 289.77L1561.56 395.43L1543.45 395.43L1543.45 289.77ZM1496.92 105.24L1496.92 172.53L1458.58 172.53L1458.58 112.52C1458.58 99.39 1453.68 92.81 1443.87 92.81C1438.47 92.81 1434.4 94.63 1431.63 98.27C1428.86 101.91 1427.48 107.17 1427.48 114.02L1427.48 172.53L1389.13 172.53L1389.13 61.94L1426.63 61.94L1427.05 75.67C1429.89 70.24 1434.04 66.02 1439.51 63.02C1444.98 60.02 1451.33 58.52 1458.58 58.52C1471.21 58.52 1480.76 62.45 1487.23 70.31C1493.69 78.17 1496.92 89.81 1496.92 105.24ZM1238.74 113.81C1238.74 119.1 1238.31 123.54 1237.46 127.1L1160.26 127.1C1164.09 139.68 1179.52 145.95 1196.99 145.95C1201.25 145.95 1206.04 145.42 1211.37 144.36C1216.69 143.29 1221.63 141.75 1226.18 139.75L1238.31 164.4C1232.78 168.11 1226.07 170.97 1218.19 172.97C1210.31 174.97 1202.1 175.97 1193.59 175.97C1183.35 175.97 1174.16 174.61 1165.99 171.89C1157.83 169.18 1150.87 165.29 1145.12 160.21C1139.37 155.15 1134.96 148.96 1131.91 141.67C1128.85 134.39 1127.34 126.25 1127.34 117.24C1127.34 108.53 1128.72 100.56 1131.49 93.35C1134.26 86.13 1138.2 79.94 1143.31 74.81C1148.42 69.66 1154.49 65.67 1161.52 62.8C1168.56 59.95 1176.32 58.52 1184.85 58.52C1193.08 58.52 1200.54 59.81 1207.22 62.37C1213.88 64.95 1219.57 68.63 1224.25 73.41C1228.95 78.2 1232.52 83.99 1235.01 90.77C1237.5 97.56 1238.74 105.24 1238.74 113.81ZM1207.09 107.01C1206.22 99.89 1203.81 94.39 1199.85 90.47C1195.87 86.57 1190.69 84.62 1184.32 84.62C1171.21 84.62 1163.18 92.08 1160.25 107.01L1207.09 107.01ZM1355.69 75.24C1361.08 80.52 1365.31 86.74 1368.36 93.88C1371.42 101.02 1372.95 108.81 1372.95 117.24C1372.95 125.67 1371.42 133.46 1368.36 140.61C1365.31 147.74 1361.08 153.96 1355.69 159.25C1350.29 164.55 1343.9 168.64 1336.52 171.57C1329.12 174.5 1321.11 175.97 1312.45 175.97C1303.78 175.97 1295.76 174.5 1288.38 171.57C1280.99 168.64 1274.6 164.55 1269.2 159.25C1263.81 153.96 1259.58 147.74 1256.53 140.61C1253.47 133.46 1251.95 125.67 1251.95 117.24C1251.95 108.81 1253.47 101.02 1256.53 93.88C1259.58 86.74 1263.81 80.52 1269.2 75.24C1274.6 69.95 1280.99 65.85 1288.38 62.91C1295.76 59.98 1303.78 58.52 1312.45 58.52C1321.11 58.52 1329.12 59.98 1336.52 62.91C1343.9 65.85 1350.29 69.95 1355.69 75.24ZM1329.92 136.32C1334.31 131.47 1336.52 125.11 1336.52 117.24C1336.52 109.39 1334.31 103.03 1329.92 98.17C1325.51 93.31 1319.69 90.88 1312.45 90.88C1305.21 90.88 1299.38 93.31 1294.98 98.17C1290.57 103.03 1288.38 109.39 1288.38 117.24C1288.38 125.11 1290.57 131.47 1294.98 136.32C1299.38 141.17 1305.21 143.61 1312.45 143.61C1319.69 143.61 1325.51 141.17 1329.92 136.32ZM1062.97 332.64L1062.97 395.43L1044.86 395.43L1044.86 335.84C1044.86 324.42 1042.92 316.05 1039.01 310.78C1035.1 305.49 1028.89 302.85 1020.38 302.85C1010.99 302.85 1003.71 305.96 998.53 312.17C993.35 318.38 990.75 327.06 990.75 338.21L990.75 395.43L972.65 395.43L972.65 289.77L989.69 289.77L989.97 308.53C992.39 302.7 995.98 297.93 1000.77 294.27C1007.31 289.27 1015.25 286.77 1024.63 286.77C1037.13 286.77 1046.65 290.66 1053.17 298.46C1059.7 306.23 1062.97 317.64 1062.97 332.64ZM1365.03 302.85C1369.92 307.85 1373.76 313.77 1376.52 320.63C1379.29 327.49 1380.67 334.93 1380.67 342.92C1380.67 350.93 1379.29 358.35 1376.52 365.21C1373.76 372.07 1369.92 378.01 1365.03 383C1360.12 388 1354.33 391.94 1347.65 394.79C1340.98 397.64 1333.74 399.08 1325.93 399.08C1318.13 399.08 1310.88 397.64 1304.2 394.79C1297.52 391.94 1291.74 388 1286.84 383C1281.94 378.01 1278.1 372.07 1275.34 365.21C1272.57 358.35 1271.18 350.93 1271.18 342.92C1271.18 334.93 1272.57 327.49 1275.34 320.63C1278.1 313.77 1281.94 307.85 1286.84 302.85C1291.74 297.85 1297.52 293.92 1304.2 291.05C1310.88 288.19 1318.13 286.77 1325.93 286.77C1333.74 286.77 1340.98 288.19 1347.65 291.05C1354.33 293.92 1360.12 297.85 1365.03 302.85ZM1359.59 359.32C1361.29 354.39 1362.15 348.91 1362.15 342.92C1362.15 336.92 1361.29 331.45 1359.59 326.53C1357.88 321.61 1355.43 317.43 1352.25 313.98C1349.04 310.57 1345.24 307.89 1340.84 305.96C1336.44 304.02 1331.47 303.06 1325.93 303.06C1320.4 303.06 1315.43 304.02 1311.02 305.96C1306.61 307.89 1302.82 310.57 1299.62 313.98C1296.43 317.43 1293.97 321.61 1292.28 326.53C1290.57 331.45 1289.72 336.92 1289.72 342.92C1289.72 348.91 1290.57 354.39 1292.28 359.32C1293.97 364.25 1296.43 368.43 1299.62 371.86C1302.82 375.29 1306.61 377.97 1311.02 379.9C1315.43 381.81 1320.4 382.79 1325.93 382.79C1331.47 382.79 1336.44 381.81 1340.84 379.9C1345.24 377.97 1349.04 375.29 1352.25 371.86C1355.43 368.43 1357.88 364.25 1359.59 359.32ZM750.57 172.53L714.57 172.53L714.15 159.89C710.88 165.03 706.44 169 700.83 171.78C695.22 174.57 688.87 175.97 681.77 175.97C674.38 175.97 667.63 174.54 661.53 171.67C655.42 168.82 650.17 164.82 645.77 159.68C641.36 154.53 637.92 148.4 635.43 141.25C632.95 134.1 631.71 126.25 631.71 117.67C631.71 109.24 632.99 101.42 635.54 94.2C638.1 86.99 641.68 80.74 646.3 75.45C650.91 70.17 656.35 66.02 662.6 63.02C668.84 60.02 675.59 58.52 682.83 58.52C689.51 58.52 695.58 59.95 701.05 62.8C706.51 65.67 710.88 69.66 714.15 74.81L714.57 61.94L750.57 61.94L750.57 172.53ZM708.18 134.92C712.29 130.43 714.36 124.53 714.36 117.24C714.36 109.95 712.29 104.07 708.18 99.56C704.06 95.06 698.74 92.81 692.2 92.81C685.67 92.81 680.31 95.06 676.12 99.56C671.93 104.07 669.84 109.95 669.84 117.24C669.84 124.53 671.93 130.43 676.12 134.92C680.31 139.42 685.67 141.67 692.2 141.67C698.74 141.67 704.06 139.42 708.18 134.92ZM1777.21 390.51C1769.46 396.21 1759.06 399.08 1746.01 399.08C1739.19 399.08 1732.43 398.11 1725.76 396.17C1719.1 394.26 1713.77 391.79 1709.79 388.79L1717.26 375.72C1726.47 381.14 1736.06 383.86 1746.01 383.86C1753.81 383.86 1759.86 382.5 1764.1 379.78C1768.37 377.06 1770.5 373.22 1770.5 368.22C1770.5 365.93 1770.18 363.92 1769.54 362.21C1768.9 360.5 1767.65 358.95 1765.81 357.61C1763.97 356.24 1761.4 354.92 1758.14 353.65C1754.88 352.35 1750.61 350.93 1745.37 349.35C1733.85 345.93 1725.62 341.71 1720.65 336.71C1715.68 331.7 1713.19 325.14 1713.19 316.99C1713.19 307.85 1716.71 300.52 1723.74 295.02C1730.76 289.52 1740.25 286.77 1752.18 286.77C1757.58 286.77 1763.32 287.59 1769.43 289.23C1775.54 290.87 1780.65 292.98 1784.77 295.57L1777.74 308.64C1768.94 304.19 1760.41 302 1752.18 302C1737.83 302 1730.67 306.34 1730.67 315.06C1730.67 319.49 1732.3 323.03 1735.56 325.67C1738.82 328.31 1744.51 330.85 1752.61 333.28C1759.42 335.27 1765.13 337.35 1769.75 339.5C1774.36 341.63 1778.09 344.03 1780.94 346.67C1783.77 349.32 1785.8 352.31 1787.01 355.67C1788.22 359.04 1788.82 362.85 1788.82 367.15C1788.82 377 1784.95 384.79 1777.21 390.51ZM618.61 253.55L563.22 253.55L563.22 395.43L544.05 395.43L544.05 253.55L488.67 253.55L488.67 237.05L618.61 237.05L618.61 253.55ZM546.29 120.02L534.57 120.02L534.57 172.53L493.67 172.53L493.67 9.66L552.04 9.66C561.97 9.66 570.85 10.91 578.67 13.41C586.48 15.91 593.08 19.51 598.48 24.24C603.87 28.94 608.02 34.73 610.94 41.59C613.85 48.45 615.3 56.16 615.3 64.74C615.3 73.73 613.18 82.05 608.92 89.71C604.65 97.34 598.62 103.46 590.81 108.03L631.07 172.53L584.2 172.53L555.87 119.81L546.29 120.02ZM534.57 87.45L546.29 87.45C565.03 87.45 574.4 79.82 574.4 64.52C574.4 49.66 565.17 42.23 546.71 42.23L534.57 42.23L534.57 87.45ZM693.37 301.35C697.55 305.91 700.78 311.44 703.06 317.95C705.33 324.45 706.47 331.63 706.47 339.5C706.47 342.49 706.43 344.56 706.36 345.72C706.29 346.84 706.18 348.14 706.04 349.56L625.01 349.56C626 359.77 629.41 367.63 635.32 373.04C642.42 379.53 652.71 382.79 666.21 382.79C676.57 382.79 687.22 380.57 698.16 376.15L704.98 389.43C700.15 392.43 694.22 394.79 687.19 396.51C680.16 398.22 672.88 399.08 665.35 399.08C646.9 399.08 632.55 394.26 622.32 384.61C612.1 374.96 606.99 361.49 606.99 344.2C606.99 335.78 608.27 328.04 610.82 320.96C613.38 313.89 616.96 307.81 621.58 302.74C626.19 297.67 631.7 293.74 638.09 290.95C644.48 288.16 651.5 286.77 659.18 286.77C666.13 286.77 672.52 288.07 678.35 290.62C684.17 293.2 689.17 296.77 693.37 301.35ZM658.1 302.42C647.74 302.42 639.58 306.02 633.62 313.24C628.95 318.88 626.14 326.22 625.13 335.21L689.05 335.21C688.87 331.74 688.45 328.3 687.61 324.93C686.54 320.63 684.81 316.85 682.4 313.56C679.98 310.27 676.78 307.59 672.81 305.53C668.83 303.46 663.93 302.42 658.1 302.42ZM1674.76 301.03C1678.88 305.53 1682.08 310.96 1684.35 317.31C1686.62 323.67 1687.75 330.78 1687.75 338.64C1687.75 341.63 1687.72 343.7 1687.66 344.85C1687.58 345.99 1687.47 347.28 1687.32 348.7L1606.91 348.7C1609.04 371.41 1622.39 382.79 1647.06 382.79C1658.29 382.79 1669.57 380.14 1680.93 374.86L1687.32 388.57C1681.92 391.85 1675.68 394.43 1668.58 396.29C1661.48 398.14 1654.02 399.08 1646.22 399.08C1628.04 399.08 1613.94 394.22 1603.93 384.5C1593.93 374.77 1588.91 361.07 1588.91 343.34C1588.91 335.21 1590.2 327.67 1592.74 320.75C1595.3 313.81 1598.85 307.81 1603.41 302.74C1607.94 297.67 1613.34 293.74 1619.59 290.95C1625.84 288.16 1632.65 286.77 1640.04 286.77C1647.28 286.77 1653.85 288.02 1659.74 290.51C1665.63 293.02 1670.64 296.52 1674.76 301.03ZM1638.98 302.42C1629.03 302.42 1621.11 306.09 1615.23 313.46C1610.76 319 1608.04 325.99 1607.04 334.34L1670.4 334.34C1670.39 334.22 1670.39 334.05 1670.39 333.92C1670.32 332.34 1670.14 330.99 1669.87 329.84C1667.44 311.56 1657.15 302.42 1638.98 302.42ZM821.4 390.94C816.85 393.5 811.63 395.51 805.74 396.94C799.85 398.36 793.91 399.08 787.95 399.08C779.15 399.08 771.16 397.8 763.99 395.22C756.81 392.65 750.71 388.92 745.67 384.07C740.63 379.21 736.75 373.35 734.06 366.5C731.36 359.64 730.01 352 730.01 343.56C730.01 335.14 731.39 327.46 734.17 320.53C736.93 313.6 740.8 307.64 745.78 302.63C750.75 297.63 756.74 293.74 763.77 290.95C770.8 288.16 778.5 286.77 786.88 286.77C798.1 286.77 808.9 289.62 819.26 295.35L812.23 308.64C808.54 306.78 804.57 305.38 800.31 304.45C796.04 303.52 791.85 303.06 787.74 303.06C775.66 303.06 766.12 306.63 759.09 313.77C752.06 320.92 748.54 330.57 748.54 342.71C748.54 355.28 752.13 365.11 759.3 372.18C766.47 379.26 776.37 382.79 789.02 382.79C797.25 382.79 805.85 381 814.79 377.43L821.4 390.94ZM938.24 332.64L938.24 395.43L920.13 395.43L920.13 335.84C920.13 324.42 918.14 316.05 914.17 310.78C910.19 305.49 903.94 302.85 895.43 302.85C886.05 302.85 878.77 305.96 873.58 312.17C868.4 318.38 865.81 327.06 865.81 338.21L865.81 395.43L847.7 395.43L847.7 236.84L865.81 236.84L865.81 307.09C868.36 301.63 871.97 297.15 876.67 293.74C883.07 289.1 890.73 286.77 899.68 286.77C912.18 286.77 921.72 290.7 928.33 298.55C934.94 306.42 938.24 317.77 938.24 332.64ZM956.49 175.97C928.8 175.97 914.96 161.47 914.96 132.45L914.96 93.02L896.43 93.02L896.43 61.94L914.96 61.94L914.96 33.45L953.29 33.45L953.29 61.94L989.08 61.94L979.5 93.02L953.29 93.02L953.29 125.82C953.29 132.53 954.37 137.21 956.49 139.85C958.63 142.5 962.25 143.83 967.36 143.83C973.18 143.83 978.86 142.75 984.4 140.61L988.24 170.4C984.25 172.11 979.46 173.46 973.85 174.47C968.24 175.46 962.45 175.97 956.49 175.97ZM1492.21 289.77L1509.88 289.77L1509.88 387.71C1509.88 429.29 1490.92 450.08 1453.02 450.08C1449.03 450.08 1445.01 449.84 1440.97 449.33C1436.93 448.83 1433.09 448.16 1429.47 447.3C1425.86 446.44 1422.51 445.45 1419.47 444.29C1416.41 443.16 1413.95 441.87 1412.11 440.44L1416.8 425.66C1425.46 431.22 1437.46 434.01 1452.8 434.01C1466.14 434.01 1475.99 430.44 1482.3 423.29C1488.62 416.15 1491.77 404.93 1491.77 389.65L1491.77 377.21C1488.29 383.23 1483.76 388.09 1478.14 391.79C1470.76 396.64 1462.17 399.08 1452.37 399.08C1444.98 399.08 1438.24 397.71 1432.13 395C1426.03 392.29 1420.77 388.49 1416.38 383.65C1411.97 378.78 1408.56 372.93 1406.15 366.07C1403.73 359.21 1402.54 351.63 1402.54 343.34C1402.54 335.35 1403.83 327.92 1406.47 321.06C1409.09 314.2 1412.75 308.24 1417.44 303.16C1422.13 298.09 1427.62 294.1 1433.94 291.17C1440.26 288.24 1447.11 286.77 1454.5 286.77C1463.73 286.77 1471.89 289.31 1479 294.37C1484.18 298.08 1488.43 302.86 1491.79 308.65L1492.21 289.77ZM1482.73 371.54C1485.92 368.04 1488.44 363.89 1490.29 359.11C1492.14 354.32 1493.05 349.07 1493.05 343.34C1493.05 337.35 1492.21 331.84 1490.5 326.84C1488.79 321.85 1486.38 317.6 1483.26 314.11C1480.14 310.6 1476.33 307.89 1471.86 305.96C1467.39 304.02 1462.45 303.06 1457.06 303.06C1451.8 303.06 1446.97 304.06 1442.57 306.06C1438.17 308.07 1434.38 310.84 1431.17 314.42C1427.99 317.99 1425.5 322.24 1423.72 327.18C1421.94 332.09 1421.05 337.48 1421.05 343.34C1421.05 355.5 1424.29 365.11 1430.75 372.18C1437.21 379.26 1445.99 382.79 1457.06 382.79C1462.17 382.79 1466.92 381.79 1471.32 379.78C1475.73 377.79 1479.53 375.03 1482.73 371.54Z" />
	</g>
</svg>