<svg version="1.2" xmlns="http://www.w3.org/2000/svg" viewBox="0 0 1283 1538" width="1283" height="1538">
	<title>RiverviewBank-svg</title>
	<style>
		.s0 { fill: #ffffff } 
	</style>
	<g id="#11263fff">
		<path id="Layer" fill-rule="evenodd" class="s0" d="m0.7 1c115.4-1.4 230.8-0.1 346.3-0.7 135.1 1.8 275 19.7 394.8 86.5 82.9 45.6 151.8 120.1 181.1 211.1 33.3 103.5 29.6 222.4-24.4 318.4-43.3 79.6-118.9 139.5-204.8 167.1 36.4 18.2 71 40.5 99.5 69.9 92.1 97.3 151.5 220.4 243.3 318.1 44.2 47.3 97.2 89 160 107.8 27.8 9.4 57.2 11.4 86.3 13.7-16.8 75.3-34.8 150.3-51.4 225.6-2.1 6.6-2.5 15.7-10 18.8-102.6 0.6-207.3-24.7-292.2-84-91.5-62.4-154.8-155.8-213.4-247.8-54.7-84.6-107.3-173.9-187.3-237.5-62.8-49.7-143.1-75.5-223.1-73.4 0.1 209.5-0.1 419.1 0.1 628.7-101.7-0.3-203.3-0.3-304.9-0.1 0.3-507.4 0-1014.8 0.1-1522.2zm304.8 229.6c-0.1 147.1 0 294.1-0.1 441.2 77.3-2.3 157.6-5.4 229-38.4 44.4-20.1 82.3-56.5 98.7-103 20.1-58.7 21-126.4-7.9-182.5-22.4-43.7-65.7-72.4-110.9-88.5-66.8-23.5-138.6-28.1-208.8-28.8z"/>
	</g>
</svg>