<svg version="1.2" xmlns="http://www.w3.org/2000/svg" viewBox="0 0 1538 1432" width="1538" height="1432">
	<title>55bbd78e-f29b-47de-9c41-a1355af99cd9-svg</title>
	<style>
		.s0 { fill: #1d344e } 
		.s1 { fill: #02cc24 } 
	</style>
	<g id="#1d344eff">
		<path id="Layer" class="s0" d="m0 0h1083.5c22 2.3 44.3 2.6 66.2 6.1 88.8 13 173.1 53.5 239.2 114.1 78.9 71.7 131.5 172 144.6 278 12.5 95.5-7.2 194.8-55 278.4-45.7 80.5-116.3 146.7-199.7 187.1-59.3 29.2-125.1 44.7-191.2 46.1 144.8 174.2 290.3 347.9 435.4 521.9-109.7 0.2-219.4 0-329.1 0.1-215.8-258.3-431.2-516.8-646.9-775.2q267.9 0 535.7 0c47.6-0.5 94.9-17.7 131.1-48.6 36.6-30.7 61.4-75.2 68.2-122.6 7.3-49.1-4.5-100.7-32.1-141.9-34.7-52.7-95.7-87.3-158.9-88.8-293.1-0.1-586.3 0-879.5-0.1-67.7-81.1-135.2-162.3-203-243.3-2.6-3.5-4.5-7.4-6.4-11.3l-2.1 2.3zm2.2 1032.2c110.4 133.2 220.9 266.3 331.3 399.5-110.5 0.1-220.9 0.1-331.4 0.1 0.1-133.2-0.2-266.4 0.1-399.6z"/>
	</g>
	<g id="#02cc24ff">
		<path id="Layer" class="s1" d="m2.2 315.1c308.9 372.1 617.3 744.5 926.1 1116.6-109.5 0.2-219 0-328.6 0.1-199.1-240.4-398.6-480.5-597.7-721 0.2-131.9 0-263.8 0.2-395.7z"/>
	</g>
</svg>