<svg version="1.2" baseProfile="tiny-ps" xmlns="http://www.w3.org/2000/svg" viewBox="0 0 1347 1759" width="1347" height="1759">
	<title>RY_BIG copy-svg</title>
	<style>
		tspan { white-space:pre }
		.shp0 { fill: #0059b3 } 
		.shp1 { fill: none;stroke: #ffffff;stroke-width: 38.499 } 
		.shp2 { fill: #ffdf01 } 
		.shp3 { fill: #ffffff } 
	</style>
	<path id="Layer" class="shp0" d="M1327.36 1528.3C1327.36 1585.12 1304.03 1618.12 1258.56 1635.6C1081.77 1703.74 872.41 1738.93 673.29 1738.93C474.17 1738.93 264.84 1703.78 88.01 1635.6C42.58 1618.12 19.25 1585.16 19.25 1528.3L19.25 19.4L1327.36 19.4L1327.36 1528.3Z" />
	<path id="Layer" class="shp1" d="M1327.36 1528.3C1327.36 1585.12 1304.03 1618.12 1258.56 1635.6C1081.77 1703.74 872.41 1738.93 673.29 1738.93C474.17 1738.93 264.84 1703.78 88.01 1635.6C42.58 1618.12 19.25 1585.16 19.25 1528.3L19.25 19.4L1327.36 19.4L1327.36 1528.3Z" />
	<path id="Layer" fill-rule="evenodd" class="shp2" d="M1204.28 1227.11L1192 1227.11C1192 1159.54 1130.05 1141.14 1065.14 1141.14L862.32 1141.14C868.87 1174.44 871.95 1213.44 866.83 1250.25L856.74 1250.25C837.95 1098.41 752.14 1023.14 632.17 942.63L632.17 1011.74L622.08 1011.74C590.21 940.44 520.06 873.49 453.76 826.02L399.75 787.48L399.75 862.02L389.66 862.02C361.55 788.1 310.46 732.89 237.62 667.21C159.01 596.44 127.24 554.05 108.88 505.31C97.71 475.82 94.56 451.99 94.13 419.57C93.44 361.63 122.74 309.27 159.2 289.67L159.2 317.78C141.1 341.76 131.75 372.06 131.71 402.94C131.63 431.35 138.41 463 152.61 489.99C196.89 574.3 346.04 677.79 440.79 741.32C735.39 938.86 794.18 973.36 843.11 1078.19C848.5 1089.9 853.97 1105.64 858.51 1123.82C901.05 1117.27 1055.44 1093.79 1083.89 1089.24C1089.32 1088.4 1100.75 1086.93 1106.61 1086.59C1133.17 1069.76 1153.96 1048.36 1172.21 1021.64L1059.29 1012.86C1053.51 1025.83 1047.74 1036.73 1042.62 1045.43L1033.42 1045.43C1036.5 1033.96 1039.19 1022.68 1041.5 1011.51L1012.63 1009.39L1012.63 1003.23L1043.93 999.38C1049.86 967.43 1052.71 937.21 1053.32 908.95L911.1 900.94C910.33 915.49 910.18 929.24 910.68 941.98L901.55 941.98C898.55 927.77 896.16 913.68 894.32 899.94L863.13 898.17L863.13 888.66L892.78 887.04C891.85 878.5 891.1 869.94 890.52 861.38C889.94 852.81 889.53 844.23 889.29 835.64C889.05 827.06 888.98 818.47 889.08 809.88C889.18 801.29 889.45 792.71 889.89 784.13L806.73 780.28C810.66 787.59 814.7 795.06 817.59 803.07C835.53 853.28 831.25 912.1 825.29 939.13L815.28 939.13C813.77 907.79 803.26 869.45 793.29 846.04C770.27 791.83 718.64 743.94 632.17 688.34L632.17 757.64L622.08 757.64C593.29 666.59 521.68 615.96 415.18 561.29C327.37 516.17 300.07 461.85 305 377.72L334.64 395.32C342.27 473.97 402.71 519.36 465.97 518.9C503.2 518.63 538.08 513.67 571.84 506.93C620.5 497.07 665.51 488.68 703.13 502.04L703.13 455.57L673.6 455.57C663.05 464.69 641.64 475.32 610.07 475.78C575.42 476.44 509.82 456.46 509.82 383.19C509.82 319.51 563.72 309.39 607.61 309.39C631.01 309.39 670.05 308.5 683.26 307.73C693.08 307.19 700.43 305.69 705.2 300.95C710.17 296.06 711.67 291.02 712.83 284.55C714.21 276.62 714.21 268.54 714.21 254.91L714.21 208.44L510.93 208.44L510.93 288.9L434.05 259.64L434.05 240.39L470.86 240.39L470.86 208.44L333.8 208.44L333.8 141.6L286.94 141.6C261.92 141.6 233.16 159.08 231.15 193.04C229.23 225.57 243.86 252.95 277.35 252.95L283.36 252.95L283.36 291.91L277.32 291.91C218.64 291.91 174.41 247.82 174.41 189.3C174.41 128.36 226.38 81.93 289.13 81.93L388.27 81.93L388.27 148.8L773.77 148.8L773.77 247.55C773.77 264.23 772.89 286.56 771.27 300.69C770.12 310.96 766.46 329.48 747.02 344.34C735.27 353.31 717.56 356.89 688.76 357.05C682.97 357.01 677.17 356.93 671.38 356.8C665.59 356.68 659.79 356.51 654 356.31C648.21 356.1 642.42 355.86 636.63 355.57C630.84 355.28 625.06 354.95 619.27 354.59C575.38 351.85 562.91 368.75 561.14 384.5C560.75 387.81 560.79 391.04 561.14 394.16C581.7 378.22 610.8 366.98 643.91 377.38C702.05 395.66 718.64 397.32 748.94 373.53L752.02 380.3C748.75 385.38 742.9 392.62 734.43 399.05L762.53 399.05L762.53 551.28L850 498.88L1095.52 498.88L1216.41 562.02C1231.42 569.95 1237.39 579.54 1239.74 593.59C1241.66 605.34 1238.66 620.24 1232.85 629.78C1229.27 635.71 1201.05 681.95 1186.15 706.63C1197.24 718.68 1207.19 731.73 1215.87 745.62C1224.55 759.5 1231.92 774.17 1237.88 789.42C1243.84 804.67 1248.38 820.45 1251.42 836.54C1254.46 852.63 1256.01 868.97 1256.02 885.35C1256.02 949.1 1232.46 1031.38 1155.85 1092.51C1163.15 1094.76 1170.25 1097.62 1177.07 1101.07C1183.89 1104.52 1190.4 1108.54 1196.54 1113.09C1202.68 1117.65 1208.41 1122.71 1213.69 1128.24C1218.97 1133.76 1223.77 1139.73 1228.03 1146.07L1204.24 1227.11M901.59 691.69C861.94 709.48 834.68 733.54 810.31 768.19L891.24 763.96C894.16 728 898.86 704.13 901.63 691.69L901.59 691.69ZM1193.35 980.63C1195.48 975.67 1197.4 970.61 1199.1 965.47C1200.79 960.34 1202.27 955.13 1203.51 949.87C1204.75 944.6 1205.76 939.29 1206.54 933.94C1207.32 928.58 1207.86 923.2 1208.17 917.8L1089.86 911.1C1088.68 918.41 1087.31 925.69 1085.73 932.93C1084.16 940.17 1082.39 947.36 1080.43 954.5C1078.46 961.64 1076.31 968.72 1073.96 975.75C1071.6 982.77 1069.06 989.73 1066.33 996.61L1193.35 980.63ZM1065.33 687.11C1073.8 709.9 1080.19 732 1084.89 753.25L1154.46 749.4C1148.46 742.49 1142.03 735.96 1135.22 729.83C1128.42 723.71 1121.24 718.01 1113.74 712.76C1106.23 707.52 1098.41 702.74 1090.32 698.45C1082.23 694.16 1073.89 690.37 1065.33 687.11ZM1033.76 756.1C1031.75 748.89 1029.53 741.74 1027.12 734.65C1024.7 727.56 1022.1 720.54 1019.3 713.59C1016.5 706.65 1013.5 699.78 1010.32 693C1007.15 686.23 1003.78 679.53 1000.23 672.94C999.03 672.88 997.83 672.82 996.62 672.77C995.42 672.72 994.22 672.68 993.01 672.65C991.81 672.62 990.61 672.59 989.4 672.58C988.2 672.56 987 672.56 985.79 672.56C977.82 672.56 969.78 673.6 962 674.48C950.45 703.16 941.13 732.23 933.51 761.65L1033.76 756.1ZM1091.78 793.37C1095.48 823.01 1095.86 850.81 1093.98 876.49L1207.78 870.45C1207.08 864.13 1206.1 857.86 1204.85 851.63C1203.6 845.4 1202.09 839.23 1200.3 833.14C1198.52 827.04 1196.47 821.03 1194.17 815.11C1191.86 809.19 1189.3 803.38 1186.49 797.68L1091.78 793.37ZM1053.09 878.61C1052.84 871.25 1052.44 863.91 1051.87 856.57C1051.3 849.23 1050.58 841.91 1049.7 834.6C1048.81 827.3 1047.77 820.01 1046.57 812.75C1045.37 805.49 1044.02 798.26 1042.5 791.06L927.62 785.86C919.69 820.82 914.53 854.97 912.07 886.08L1053.09 878.61ZM1084.24 613.92L1063.37 586.09L1066.84 579.93L1125.51 611.57L1112.73 650.34C1122.12 654.85 1130.82 660.62 1142.49 668.32L1180.33 606.03L1082.23 554.75L865.4 554.75L689.46 660.62C722.49 683.57 752.91 708.36 774.54 733.39C821.67 664.78 904.52 620.97 986.56 620.97C1013.36 620.97 1044.62 623.85 1070.76 632.79L1084.24 613.92ZM636.91 626.63C636.9 626.62 636.89 626.62 636.89 626.61L636.87 626.63L636.91 626.63ZM734.04 568.41C729.01 565.86 723.83 563.61 718.54 561.65C713.25 559.7 707.85 558.05 702.37 556.72C696.89 555.38 691.33 554.36 685.73 553.67C680.14 552.97 674.5 552.6 668.86 552.55C635.37 552.05 578.89 567.45 551.51 571.61C563.75 580 607.13 607.71 636.89 626.61L734.04 568.41ZM583.28 422.88C593.02 427.5 605.14 430.05 618.58 429.08C637.95 427.73 650 416.11 656.81 407.29C622.35 399.75 603.1 403.98 583.28 422.88ZM370.06 938.9C562.18 1058.83 615.85 1132.02 632.17 1226.99L622.08 1226.99C580.46 1135.37 495.8 1084.04 399.75 1029.57L399.75 1103.49L389.66 1103.49C361.75 1038.38 313.31 976.13 242.24 922.81C176.29 873.37 149.53 848.77 124.05 809.62C107.26 783.67 93.56 751.25 93.55 708.36C93.65 701.62 94.2 694.9 95.2 688.23C96.2 681.57 97.64 674.97 99.53 668.5C101.41 662.03 103.73 655.69 106.46 649.54C109.2 643.38 112.35 637.41 115.89 631.67L132.94 643.03C126.63 661.16 123.24 686.57 124.05 701.66C129.13 775.81 189 825.86 370.06 938.9Z" />
	<path id="Layer" fill-rule="evenodd" class="shp3" d="M751.37 1401.86C796.3 1404.79 840.07 1428.73 840.07 1485.02C840.07 1554.25 782.74 1584.43 703.55 1584.43L559.56 1584.43L559.56 1324.28C558.98 1301.45 555.09 1284.24 543.27 1272.69C537.85 1267.3 529.57 1263.03 524.29 1261.41L524.29 1258.6L698.04 1258.6C801.03 1258.6 815.89 1297.06 815.89 1332.02C815.89 1370.83 784.32 1396.47 751.37 1401.86ZM677.25 1289.63L634.52 1289.63L634.52 1390.5L667.4 1390.5C705.59 1390.5 739.08 1378.92 739.08 1337.03C739.08 1297.64 714.1 1289.67 677.25 1289.67L677.25 1289.63ZM680.95 1553.67C732.62 1553.67 763.15 1533.88 763.15 1484.48C763.15 1438.78 739.74 1420.65 678.83 1420.65L634.52 1420.65L634.52 1553.63L680.95 1553.63L680.95 1553.67ZM396.01 1584.43L289.71 1440.02L262.26 1440.02L262.26 1584.47L186.96 1584.47L186.96 1330.37C186.96 1304.53 183.22 1285.44 170.52 1272.93C165.63 1268.11 158.16 1263.8 151.46 1261.41L151.46 1258.6L332.79 1258.6C420.5 1258.6 454.07 1288.25 454.07 1344.34C454.07 1392.08 418.07 1418.38 370.02 1431.2L489.87 1584.43L396.01 1584.43ZM262.3 1410.56L302.19 1410.56C348.39 1410.56 377.22 1386.89 377.22 1346.88C377.22 1301.99 355.2 1289.67 313.01 1289.67L262.3 1289.67L262.3 1410.56ZM1084.62 1289.44C1026.26 1289.44 982.71 1322.05 984.14 1421.88C985.68 1530.07 1056.75 1552.17 1105.26 1552.17C1163.97 1552.17 1191.31 1526.6 1191.31 1526.6L1191.31 1564.83C1191.31 1564.83 1160.89 1589.47 1083.43 1589.47C1000.15 1589.47 905.67 1555.32 905.67 1423.73C905.67 1307 984.98 1253.64 1090.9 1253.64C1160.89 1253.64 1190.3 1274.73 1190.3 1274.73L1173.94 1330.48C1173.94 1330.48 1171.75 1330.83 1170.79 1329.75C1170.67 1329.6 1164.55 1314.7 1144.41 1303.26C1133.36 1297.06 1117.12 1289.44 1084.62 1289.44Z" />
</svg>