<svg version="1.2" xmlns="http://www.w3.org/2000/svg" viewBox="0 0 1578 1564" width="1578" height="1564">
	<title>img1-svg</title>
	<style>
		.s0 { fill: #00457c } 
	</style>
	<g id="#00457cff">
		<path id="Layer" fill-rule="evenodd" class="s0" d="m0 1q458.3 0 916.6 0c97.5 2 196.1 10.4 289.1 41.4 77.6 25.9 150.9 71.2 199.4 138.2 61 83 81.7 188.7 80.7 289.9 2.1 99.3-25.6 200.5-85 280.9-70.8 95.9-179.9 161.2-296.5 183.8 157.6 209.5 315.7 418.7 473.3 628.1-134.6-0.1-269.3 0.2-404-0.1-148-201.4-296.8-402.1-445.1-603.3-134.1-0.3-268.2-0.1-402.3-0.1 0.4 201.1 0 402.3 0.2 603.4-108.8 0.3-217.6 0-326.4 0.1zm326.3 275.5q0.1 203.4 0 406.9c157.8 0 315.6 0 473.3 0 59.1 0.4 118.3-1.3 176.8-10.1 45.3-7.3 91.9-19.8 128-49.6 31.3-25.7 47.8-65.3 52.7-104.7 5.1-45.3 3.5-93.1-15.7-135.1-17.4-38.8-54-65.6-93.3-79.4-72.6-25.6-150.7-25.9-226.7-28.2-165.1 0.2-330.1-0.1-495.1 0.2z"/>
	</g>
</svg>