<svg version="1.2" xmlns="http://www.w3.org/2000/svg" viewBox="0 0 1542 195" width="1542" height="195">
	<title>img1-svg</title>
	<style>
		.s0 { fill: #ffffff } 
	</style>
	<g id="#00457cff">
		<path id="Layer" fill-rule="evenodd" class="s0" d="m0 5.7q53.8 0 107.5 0c11.4 0.2 23 1.2 33.9 4.9 9.1 3 17.7 8.3 23.4 16.2 7.1 9.7 9.6 22.1 9.5 34 0.2 11.6-3 23.5-10 32.9-8.3 11.2-21.1 18.9-34.8 21.6 18.5 24.5 37 49.1 55.5 73.6-15.8 0-31.6 0-47.4 0-17.3-23.6-34.8-47.2-52.2-70.7-15.7-0.1-31.4-0.1-47.1-0.1 0 23.6 0 47.2 0 70.8-12.8 0-25.5 0-38.3 0zm38.3 32.3q0 23.9 0 47.7 27.7 0 55.5 0c6.9 0.1 13.9-0.1 20.7-1.1 5.3-0.9 10.8-2.4 15-5.9 3.7-3 5.6-7.6 6.2-12.2 0.6-5.3 0.4-11-1.8-15.9-2.1-4.5-6.4-7.7-11-9.3-8.5-3-17.7-3-26.6-3.3-19.3 0-38.7 0-58 0z"/>
		<path id="Layer" fill-rule="evenodd" class="s0" d="m1195.4 0h33.8c15.8 0.7 31.7 4.3 45.2 12.6 12.8 7.8 22.9 19.5 29.3 33 6.3 13.1 9.4 27.6 10.2 42 0.5 14 0.2 28.2-3.2 41.9-3.4 14.3-9.8 28.1-19.7 39-9.8 11-22.9 18.6-37 22.5-9.2 2.7-18.8 3.5-28.3 4h-27.4c-3.4-0.4-6.8-0.4-10.2-0.8-15.8-1.5-31.7-6.7-44.4-16.5-13-9.9-22.2-24.3-27.2-39.8-5.7-16.8-6.4-34.8-5.4-52.3 0.7-11.5 3-23 7.2-33.8 5.7-14.8 15.6-28.2 28.8-37.1 14.2-9.7 31.4-13.9 48.3-14.7zm-2.4 35.9c-8.1 0.9-16.3 3.1-23.3 7.4-5.2 3.2-9.6 7.5-12.9 12.5-7.9 12.2-9.4 27.2-9.4 41.4 0 9.3 0.8 18.6 3.8 27.4 2.6 7.9 6.9 15.2 13 20.9 6.5 6.2 14.8 10.2 23.4 12.2 7.5 1.8 15.2 2 22.9 2 7.6-0.1 15.3 0.1 22.9-1.1 7.2-1.1 14.3-3.4 20.6-7.3 6.6-4 12-9.9 15.7-16.7 6.5-12 7.9-25.9 7.7-39.4-0.1-9.4-1-18.9-3.9-27.9-2.3-6.7-5.8-13.2-10.9-18.1-4.5-4.6-10.3-7.9-16.3-10.1-8.7-3-18-4-27.2-3.9-8.7 0.1-17.4-0.4-26.1 0.7zm-992.6-30.2c15.7 0 31.4 0 47.1 0 18.5 25.1 36.9 50.2 55.4 75.2q27.5-37.6 55.1-75.2c15.8 0 31.6 0 47.3 0q-34.2 45.2-68.3 90.4c-5 6.7-10.2 13.2-15 19.9 0 24.3 0 48.6 0 72.9-12.7 0-25.5 0-38.3 0q0-35.7 0.1-71.4c-0.1-0.7 0.1-1.4-0.4-2-27.6-36.6-55.3-73.2-83-109.8zm243.8 0q80.7 0 161.4 0 0 16.6 0 33.3-61.5 0-123 0 0 18.4 0 36.7 53.3 0 106.7 0 0 16.7 0 33.3-53.4 0-106.7 0 0 23.3 0 46.6c41 0 82 0 123 0q0 16.7 0 33.3c-53.8 0-107.6 0-161.4 0q0-91.6 0-183.2zm220.7 0q44.4 0 88.8 0c12.8 0.1 25.7-0.5 38.4 1.5 10.3 1.6 20.7 4.7 29.2 11 6.6 4.9 11.6 11.8 14.3 19.6 3.2 8.8 4.1 18.3 3.6 27.6-0.7 10.4-4.1 20.8-10.6 29.1-8.3 10.8-20.8 18.2-34.1 20.7q27.7 36.9 55.5 73.7c-15.8 0-31.6 0.1-47.4 0-17.3-23.6-34.8-47.1-52.2-70.8q-23.6 0-47.2 0 0 35.4 0 70.8c-12.8 0-25.5 0-38.3 0q0-91.6 0-183.2zm38.3 32.3c0 15.9 0 31.8 0 47.7 18.7 0 37.4 0 56.2 0 5.2 0.1 10.4-0.1 15.6-0.6 5.3-0.5 10.7-1.4 15.5-3.8 3.4-1.7 6.3-4.3 8-7.6 2.3-4.6 2.7-9.9 2.4-14.9-0.4-4.8-2-9.8-5.6-13.1-4.4-4.1-10.4-5.6-16.1-6.5-10.3-1.5-20.7-1.1-31-1.2-15 0-30 0-45 0zm238.6-30.7c9.9-1.7 19.9-1.8 29.9-1.7 29.7 0 59.5 0 89.2 0q-6 16.5-12.1 33c-15.7 0-31.4 0-47.1 0-13 0.1-26.1-0.1-39.1 0.2-6.3 0.2-12.8 0.6-18.9 2.6-3.7 1.3-7.2 3.6-9.1 7.1-2 3.5-2.4 7.7-2.4 11.8 0.1 4.4 0.8 9.1 3.6 12.6 2.9 3.5 7.4 5.1 11.7 5.9 7 1.3 14.1 0.7 21.2 0.8 14.3 0.1 28.7-0.1 43.1 0.2 12 0.4 24.2 2 35.3 6.9 8 3.5 15.2 9.3 19.7 16.8 5.7 9.5 7.3 20.8 7 31.7-0.2 10.5-2.6 21.3-8.6 30.1-5.1 7.8-12.9 13.6-21.5 17.2-13 5.5-27.5 6.6-41.5 6.4-36.1 0-72.2 0-108.3 0 4.2-11.4 8.3-22.8 12.5-34.2q46.6 0 93.2 0c6.2 0.1 12.4-0.1 18.5-1.1 4.7-0.9 9.6-2.2 13.1-5.6 3.2-3 4.5-7.5 4.9-11.7 0.4-4.9 0-10.1-2.3-14.5-1.8-3.5-5.1-6-8.7-7.4-5-2-10.5-2.4-15.8-2.6q-21.3 0-42.6 0c-11.6 0.1-23.3-0.6-34.6-3.4-8.4-2.1-16.7-5.7-23.3-11.6-7.5-6.6-12-16.1-13.4-25.9-1.5-10.5-1.1-21.3 2.3-31.4 3-8.8 8.9-16.6 16.7-21.8 8.1-5.7 17.7-8.7 27.4-10.4zm419-1.6c13.3 0 26.7 0 40 0 34.6 41.1 69 82.2 103.5 123.2 0.1-41.1 0-82.1 0.1-123.2q18.8 0 37.6 0v183.2q-17.7 0-35.4 0c-36.2-42.6-72.3-85.2-108.4-127.8 0 42.6-0.1 85.2 0 127.8q-18.7 0-37.4 0c0-61.1 0-122.1 0-183.2z"/>
	</g>
</svg>