<svg version="1.2" xmlns="http://www.w3.org/2000/svg" viewBox="0 0 1530 1562" width="1530" height="1562">
	<title>5d03e26bc4cbd6937e843bba_Safehold-webclip-svg</title>
	<style>
		.s0 { fill: #555658 } 
	</style>
	<g id="#555658ff">
		<path id="Layer" class="s0" d="m0.4 0.4q764.6 0 1529.2 0c0 155.5 0.1 310.9 0 466.3-30.6 0.1-61.3 0-91.9 0.1-0.1-124.4 0-248.9-0.1-373.3-448.6 0-897.1 0.1-1345.6 0-0.1 458.5-0.1 916.9 0 1375.3 448.5 0 897 0 1345.6 0 0.1-169.7 0-339.4 0.1-509.1 30.6-0.1 61.2-0.1 91.9-0.1 0.1 200.7 0 401.4 0 602q-764.6 0-1529.2 0c0-520.4 0-1040.8 0-1561.2zm676.8 302.2c125.1-37.1 268.8-13.8 370.1 70.5-25 32.2-49.5 64.6-74.4 96.8-47.7-38.9-106.9-65.3-169-66.5-48.3-1.9-101 5.8-137.9 39.6-49 43.3-49 129.1-0.3 172.7 45.5 42.9 107.5 60.6 164.4 83 71.3 26.9 147.2 55.8 196.8 116.6 51.7 63.1 57.6 152.7 36.2 228.8-21.1 75.6-80.1 137.4-152 167.2-159.7 65.7-362.6 14.4-463.9-127.8 28.7-28.6 55.5-59 84-87.8 43.4 49.7 93.8 97.8 158.6 117.1 63.6 19 138.2 14 192.5-27 46.1-34.1 71.6-97.8 52.9-153.4-13.5-40.4-50.5-66.1-86.7-84.9-82.1-40.9-174-61.5-250.8-113.3-45.4-30-82.4-75.4-94.6-129.1-17.6-73.8-3.7-157 44.2-217 32.7-41.5 79.6-70.3 129.9-85.5z"/>
	</g>
</svg>