<svg version="1.2" xmlns="http://www.w3.org/2000/svg" viewBox="0 0 1567 333" width="1567" height="333">
	<title>safestore-svg</title>
	<style>
		.s0 { fill: #ffffff } 
	</style>
	<path id="Layer" fill-rule="evenodd" class="s0" d="m965 104.3v155.8q-0.3 2.8-0.1 5.5 0.3 2.8 1 5.5 0.8 2.7 2 5.2 1.2 2.5 2.9 4.8 2.1 1.8 4.4 3.2 2.4 1.4 5 2.3 2.5 1 5.2 1.5 2.8 0.4 5.5 0.4 1.4 0 2.8 0.5 1.3 0.6 2.3 1.6 1.1 1 1.6 2.3 0.6 1.3 0.6 2.8v25.8q0 1.4-0.6 2.7-0.5 1.4-1.6 2.4-1 1-2.3 1.5-1.4 0.6-2.8 0.5h-16.1c-76.4 0-74.9-54.1-74.9-68.5v-155.8h-11.4q-1.4 0-2.8-0.5-1.3-0.6-2.3-1.6-1-1-1.6-2.4-0.5-1.3-0.6-2.7v-27.3q0-1.4 0.6-2.7 0.6-1.4 1.6-2.4 1-1 2.3-1.6 1.4-0.5 2.8-0.5h11.4v-36.4q0-1.4 0.5-2.7 0.6-1.4 1.6-2.4 1-1.1 2.4-1.6 1.3-0.6 2.8-0.6h50.4q1.5 0 2.8 0.6 1.3 0.6 2.3 1.6 1 1 1.6 2.4 0.5 1.3 0.5 2.7v36.4h26.2q1.4 0 2.8 0.5 1.3 0.6 2.3 1.6 1.1 1 1.6 2.4 0.6 1.3 0.6 2.7v27.3q0 1.4-0.6 2.8-0.5 1.3-1.6 2.3-1 1-2.3 1.6-1.4 0.5-2.8 0.5zm601.5-75.4v34.1h-4.3v-28.4l-10.7 28.4h-3.9l-10.7-28.4v28.4h-4.3v-30.3h-10.5v30.3h-4.6v-30.3h-11.3v-3.8h32.6l10.8 28.7 10.9-28.7zm-241.8 31q1.3 0.5 2.2 1.5 1 1 1.5 2.3 0.5 1.3 0.6 2.7v49.5q-0.1 1.4-0.6 2.7-0.6 1.3-1.6 2.3-1 1-2.4 1.5-1.3 0.5-2.7 0.5-4.2-0.3-8.4-0.1-4.1 0.3-8.3 1-4.1 0.8-8.1 2.1-4 1.2-7.8 3-2.4 1.2-4.4 3-2.1 1.7-3.7 3.9-1.7 2.1-2.8 4.6-1.2 2.4-1.8 5.1-0.8 6.4-1.3 12.9-0.6 6.4-0.9 12.9-0.3 6.5-0.3 13-0.1 6.5 0.1 12.9v124.2q0 1.4-0.5 2.8-0.6 1.3-1.6 2.3-1 1-2.3 1.6-1.4 0.5-2.8 0.5h-54.6q-1.4 0-2.8-0.5-1.3-0.6-2.3-1.6-1-1-1.5-2.3-0.6-1.4-0.6-2.8v-251.6q0-1.4 0.5-2.8 0.6-1.3 1.6-2.3 1-1.1 2.3-1.6 1.4-0.6 2.8-0.6h51.7q1.5 0 2.8 0.6 1.4 0.5 2.4 1.6 1 1 1.6 2.3 0.5 1.4 0.5 2.8v22c2.4-4.7 5.3-9.1 8.9-13.1 3.5-3.9 7.5-7.4 12-10.2 4.5-2.9 9.3-5.1 14.3-6.7 5.1-1.6 10.4-2.4 15.7-2.6q1.3 0.1 2.6 0.7zm-866.8-2.8v5.5h26q1.5 0 2.8 0.5 1.3 0.6 2.4 1.6 1 1 1.6 2.3 0.5 1.4 0.6 2.8v27.3q-0.1 1.4-0.6 2.8-0.6 1.3-1.6 2.3-1.1 1-2.4 1.6-1.3 0.5-2.8 0.5h-26v217q0 1.4-0.6 2.8-0.6 1.3-1.6 2.3-1 1.1-2.4 1.6-1.3 0.6-2.8 0.6h-50.2q-1.5 0-2.9-0.6-1.3-0.5-2.4-1.6-1-1-1.6-2.3-0.6-1.4-0.6-2.8v-217h-11.4q-1.4-0.1-2.7-0.6-1.4-0.6-2.4-1.6-1-1-1.6-2.3-0.5-1.4-0.5-2.8v-27.3q0-1.4 0.5-2.7 0.6-1.4 1.6-2.4 1-1 2.3-1.6 1.4-0.5 2.8-0.5h11.2q-0.1-4-0.1-8 0.1-4 0.3-8 0.2-3.9 0.6-7.9 0.4-4 1-7.9 0.5-2.2 1.4-4.4 0.8-2.1 2-4.1 1.1-2 2.6-3.8 1.4-1.8 3.1-3.3 2.1-1.9 4.4-3.6 2.4-1.6 4.9-2.9 2.5-1.3 5.1-2.3 2.7-1 5.4-1.7 4.9-1.1 9.9-1.8 4.9-0.8 9.9-1.3 4.9-0.4 9.9-0.5 5-0.2 10 0h20.9q1.5 0 2.8 0.6 1.3 0.5 2.4 1.5 1 1 1.6 2.4 0.5 1.3 0.6 2.8v26.3q-0.1 1.5-0.6 2.8-0.6 1.3-1.6 2.3-1.1 1.1-2.4 1.6-1.3 0.6-2.8 0.6c-16.6 0-18.5 0.7-21.5 2.2-3 1.6-4.5 5.8-4.5 13zm-346.6 91.8q-1.4-0.5-2.5-1.5-1.1-1-1.6-2.4-0.6-1.4-0.6-2.9v-19.3c0.2-2.8-0.1-5.7-1-8.4-0.9-2.7-2.3-5.1-4.2-7.2-1.9-2.2-4.2-3.9-6.7-5.1-2.6-1.1-5.4-1.8-8.2-1.8-2.7-0.2-5.4 0.1-7.9 1.1-2.5 0.9-4.7 2.4-6.6 4.4-1.9 1.9-3.3 4.2-4.1 6.7-0.9 2.6-1.2 5.3-0.9 7.9q-0.2 3 0.1 5.9 0.4 3 1.2 5.8 0.9 2.8 2.2 5.5 1.4 2.6 3.2 5 4.9 4.5 10.2 8.7 5.3 4.2 10.8 8.1 5.5 3.8 11.3 7.3 5.8 3.5 11.8 6.6c36.1 21.4 45.7 40.7 48.5 47.5q1.6 3.6 2.7 7.4 1.2 3.7 1.9 7.6 0.8 3.9 1.1 7.8 0.4 3.9 0.3 7.9c0 25.9-4.9 46-19.8 59.9-14.9 13.9-32.6 21-65.4 21-28.9 0-84.2-8.2-84.2-65.4v-33.5q0-0.1 0-0.3 0-0.1 0-0.2 0-0.1 0-0.2 0-0.1 0-0.2 0.2-1.3 0.8-2.5 0.6-1.2 1.6-2.1 0.9-0.8 2.2-1.3 1.2-0.5 2.5-0.5h51.6q1.3 0 2.5 0.5 1.2 0.4 2.2 1.3 1 0.9 1.6 2 0.6 1.2 0.8 2.5 0 0.1 0 0.2 0 0.2 0 0.3 0 0.1 0 0.2 0 0.2 0 0.3v36.3c-0.2 2.5 0.1 5 0.9 7.4 0.9 2.3 2.2 4.5 3.9 6.3 1.7 1.9 3.7 3.3 6 4.3 2.3 1 4.8 1.5 7.3 1.5 6.9 0 21.9-0.9 21.9-27.2q0.2-3.3-0.1-6.5-0.3-3.2-1-6.4-0.7-3.1-1.8-6.2-1.1-3-2.6-5.9-1.5-1.9-3.1-3.7-1.7-1.8-3.5-3.4-1.8-1.6-3.8-3-2-1.4-4.1-2.6c-2.7-2.1-16.8-11-43.1-27.2q-5.4-3.3-10.4-7-5.1-3.8-9.7-8.1-4.7-4.2-8.9-8.9-4.2-4.7-7.9-9.8-2.2-3.5-3.8-7.2-1.6-3.8-2.6-7.8-1-3.9-1.3-8-0.4-4.1-0.1-8.2-0.2-4.7 0.1-9.3 0.4-4.7 1.3-9.3 0.9-4.6 2.4-9 1.4-4.5 3.4-8.7c3.3-6.7 16.8-38.2 81.1-38.2 82.3 0 83.9 52.7 83.9 64.4v20q0 1.5-0.6 2.8-0.5 1.3-1.5 2.3-1.1 1-2.4 1.6-1.3 0.6-2.7 0.6h-51.7q-1.5 0.1-2.9-0.5zm694.1-0.2q-1.3-0.6-2.3-1.6-1-1-1.5-2.3-0.5-1.3-0.5-2.7v-19.3c0.2-2.9-0.1-5.7-0.9-8.4-0.9-2.7-2.3-5.2-4.2-7.4-1.9-2.1-4.2-3.8-6.8-5-2.6-1.2-5.4-1.9-8.2-1.9-2.7-0.2-5.4 0.2-7.9 1.1-2.5 1-4.7 2.5-6.6 4.4-1.8 1.9-3.2 4.2-4.1 6.8-0.8 2.5-1.1 5.2-0.8 7.8q-0.2 3 0.1 5.9 0.3 3 1.2 5.8 0.8 2.8 2.1 5.5 1.4 2.6 3.1 5 5 4.5 10.2 8.8 5.2 4.2 10.7 8.1 5.5 3.8 11.2 7.3 5.7 3.5 11.7 6.7c36.3 21.4 45.7 40.7 48.6 47.5q1.6 3.6 2.7 7.4 1.1 3.7 1.9 7.6 0.7 3.9 1.1 7.8 0.3 3.9 0.2 7.9c0 25.9-5 46-19.8 59.9-14.8 13.9-32.5 21-65.4 21-28.9 0-84.2-8.2-84.2-65.4v-33.5q0-0.2 0-0.4 0-0.1 0-0.3 0-0.2 0-0.3 0-0.2 0-0.4 0.2-1.2 0.9-2.3 0.6-1.1 1.6-1.9 0.9-0.8 2.1-1.3 1.2-0.4 2.4-0.4h51.5q1.2 0 2.4 0.4 1.2 0.5 2.2 1.2 0.9 0.8 1.5 1.9 0.7 1.1 0.9 2.3 0 0.2 0 0.4 0 0.2 0 0.3 0 0.2 0 0.4 0 0.2 0 0.4v36.3c-0.2 2.5 0.1 5 1 7.4 0.8 2.3 2.1 4.5 3.8 6.3 1.7 1.9 3.8 3.3 6.1 4.3 2.3 1 4.8 1.5 7.3 1.5 6.9 0 21.9-0.9 21.9-27.2q0.1-3.3-0.2-6.5-0.3-3.2-1-6.4-0.7-3.1-1.8-6.2-1.1-3-2.6-5.9-1.5-2-3.2-3.8-1.7-1.8-3.6-3.4-1.9-1.6-3.9-3-2.1-1.4-4.3-2.5c-2.6-2.2-16.8-11.1-43.1-27.2q-5.3-3.3-10.3-7.1-5-3.8-9.6-8-4.5-4.3-8.7-9-4.1-4.7-7.7-9.8-2.2-3.5-3.8-7.2-1.6-3.8-2.6-7.8-1-3.9-1.4-8-0.3-4.1 0-8.2-0.3-4.6 0.1-9.3 0.3-4.7 1.3-9.3 0.9-4.6 2.3-9 1.5-4.5 3.4-8.7c3.3-6.6 16.9-38.1 81.1-38.1 82.2 0 83.9 52.7 83.9 64.4v20q0 1.5-0.6 2.8-0.5 1.3-1.5 2.3-1 1-2.3 1.6-1.4 0.6-2.8 0.6h-51.6q-1.5-0.1-2.7-0.7zm-446.6-32.7v158.2c0 14.2-14.4 58.4-84.3 58.4-69.9 0-80.8-43.5-80.8-58.4v-100.9q0-1.5 0.5-2.8 0.6-1.4 1.6-2.4 1-1 2.4-1.6 1.3-0.6 2.7-0.7h88.2v-49.8c0-3.9-1.5-7.7-4.3-10.4-2.7-2.8-6.5-4.3-10.4-4.3-3.9 0-7.6 1.5-10.4 4.3-2.8 2.7-4.3 6.5-4.3 10.4v25.8q0 1.4-0.6 2.8-0.5 1.3-1.5 2.3-1.1 1.1-2.4 1.6-1.3 0.6-2.8 0.6h-51.5q-1.5 0-2.8-0.6-1.4-0.5-2.4-1.6-1-1-1.6-2.3-0.5-1.4-0.5-2.8v-25.8c0-13.8 10.9-58.4 80.8-58.4 69.9 0 84.3 44.6 84.4 58.4zm-57.7 104.6c-2.7-12.6-13.8-21.5-26.7-21.5-12.9 0-24 8.9-26.7 21.5-2.6 12.6 3.9 25.4 15.6 30.6v27.2c0 3 1.2 5.8 3.3 7.9 2.1 2 4.9 3.2 7.8 3.2 3 0 5.8-1.2 7.9-3.2 2-2.1 3.2-4.9 3.2-7.9v-27.2c11.8-5.2 18.3-18 15.6-30.6zm1211.9 6.4q1.3 0.6 2.3 1.5 1 1 1.6 2.3 0.6 1.3 0.6 2.7v18.1c0 26.4-5.5 80.9-85.4 80.9-28.9 0-87-8.1-87-65.3v-151.8c0-13.8 15.2-58.4 85.2-58.4 70.1 0 84.3 44.6 84.3 58.4v78.1q0 1.5-0.5 2.8-0.6 1.3-1.6 2.3-1 1-2.3 1.6-1.3 0.6-2.8 0.6h-96.2v69.3c-0.2 2.5 0.2 5.1 1.2 7.5 0.9 2.4 2.3 4.6 4.1 6.4 1.8 1.9 3.9 3.3 6.3 4.3 2.4 0.9 5 1.4 7.5 1.3 7 0 21.1-0.9 21.1-27.2v-28.6q0-1.4 0.6-2.8 0.5-1.3 1.5-2.4 1.1-1 2.4-1.6 1.4-0.5 2.8-0.5h51.6q1.4 0 2.7 0.5zm-97.4-69.8h29.5v-41.8c0-3.9-1.6-7.6-4.3-10.4-2.8-2.7-6.6-4.3-10.5-4.3-3.9 0-7.6 1.6-10.4 4.3-2.7 2.8-4.3 6.5-4.3 10.4zm-742.8 69.9q1.3 0.5 2.3 1.5 1.1 0.9 1.6 2.2 0.6 1.3 0.7 2.7v18.2c0 26.3-5.6 80.8-85.5 80.8-28.9 0-87-8.1-87-65.3v-151.8c0-13.8 15.4-58.3 85.3-58.3 69.9 0 84.3 44.5 84.3 58.3v78.1q0 1.5-0.6 2.8-0.6 1.3-1.6 2.4-1 1-2.3 1.5-1.3 0.6-2.8 0.6h-96.2v69.3c-0.1 2.6 0.3 5.1 1.2 7.5 0.9 2.4 2.3 4.6 4.1 6.5 1.8 1.8 4 3.2 6.4 4.2 2.4 0.9 4.9 1.4 7.5 1.3 6.9 0 21-0.9 21-27.2v-28.5q0-1.5 0.6-2.8 0.5-1.4 1.5-2.4 1-1 2.4-1.6 1.3-0.6 2.8-0.6h51.5q1.5 0 2.8 0.6zm-97.3-69.9h29.4v-41.8c0-3.9-1.5-7.6-4.3-10.4-2.8-2.7-6.5-4.3-10.4-4.3-3.9 0-7.7 1.6-10.4 4.3-2.8 2.8-4.3 6.5-4.3 10.4zm602.6-41.7v158.6c0 13.8-12.1 58.5-81.8 58.5-69.8 0-81.8-44.7-81.8-58.5v-158.6c0-13.8 11.9-58.4 81.8-58.4 69.9 0 82 44.6 81.8 58.4zm-67.1 0c0-3.9-1.5-7.7-4.3-10.4-2.8-2.8-6.5-4.3-10.4-4.3-3.9 0-7.7 1.5-10.4 4.3-2.8 2.7-4.3 6.5-4.3 10.4v158.6c0 3.9 1.5 7.7 4.3 10.4 2.7 2.8 6.5 4.3 10.4 4.3 3.9 0 7.6-1.5 10.4-4.3 2.8-2.7 4.3-6.5 4.3-10.4z"/>
</svg>