<svg version="1.2" xmlns="http://www.w3.org/2000/svg" viewBox="0 0 1181 1552" width="1181" height="1552">
	<title>logo - 2022-09-17T101403</title>
	<style>
		.s0 { fill: #000000 } 
	</style>
	<path id="Layer" class="s0" d="m1049.4 482.4c-63-220.1-278-398.3-493-398.3-136.3 0-241.2 73.4-241.2 209.6 0 325 865.3 283 865.3 833.3 0 256.8-209.8 424.5-534.9 424.5-152.1 0-298.9-62.8-445.8-62.8-20.9 0-89.1 15.7-110.1 31.4-21-167.7-47.2-340.7-89.1-513.6h47.1c63 225.4 319.9 450.7 550.7 450.7 199.3 0 330.4-52.4 330.4-230.6 0-366.9-881.1-330.2-881.1-822.8 0-277.8 173.1-403.6 519.2-403.6 178.3 0 335.6 68.2 445.8 68.2h78.6c0 47.1-5.2 94.3-5.2 141.5 0 89.1 10.5 183.4 15.7 267.3h-52.4z"/>
</svg>