<svg version="1.2" xmlns="http://www.w3.org/2000/svg" viewBox="0 0 1530 1530" width="1530" height="1530">
	<title>SATL_BIG-svg</title>
	<style>
		.s0 { fill: #00b6db } 
		.s1 { fill: #59c9e6 } 
	</style>
	<path id="Layer" class="s0" d="m1349.7 1349.7c-116.1 115.1-273 179.9-436.2 179.9-163.1 0-320-64.8-436.1-179.9-115.1-116.2-179.9-273.1-179.9-436.3 0-164.3 64.8-320.2 179.9-436.3l182 182c-64.9 68-100.5 159.1-99.4 252.2 2.1 94.2 39.7 184.1 105.6 250 67 66 155.9 103.6 250 105.7 94.2 1.1 184.1-34.5 252.1-99.4z"/>
	<path id="Layer" class="s1" d="m1051.6 580.7c-43.9-17.8-91-27.2-138.1-27.2-47 0-94.1 9.4-138 27.2-42.9 18.8-82.7 45-116.1 78.4l-182-182c116.1-115.1 273-180 436.1-180 163.2 0 320.1 64.9 436.2 180 115 116.1 179.9 273.1 179.9 436.3 0 164.2-64.9 320.1-179.9 436.3l-182-182.1c33.5-33.5 59.6-73.2 78.4-116.1 17.8-44 27.2-91 27.2-138.1 0-47.1-9.4-94.2-27.2-137.1-18.8-43.9-44.9-83.7-78.4-117.2-33.5-33.4-73.2-59.6-116.1-78.4z"/>
	<path id="Layer" class="s0" d="m159.4 159l227 227.1-386-68z"/>
	<path id="Layer" class="s1" d="m318.4 0l68 386.1-227-227.1z"/>
</svg>