<svg version="1.2" xmlns="http://www.w3.org/2000/svg" viewBox="0 0 1506 1534" width="1506" height="1534">
	<title>Savencia_Fromage_&amp;_Dairy_logo-svg</title>
	<style>
		.s0 { fill: #ffffff } 
	</style>
	<path id="path759" class="s0" d="m49.6 1100.5c-70.6-135-26.1-279.9 98.3-318.6c61.2-19.1 150.6 1.7 179.2 59.1c16.4 32.8 14.7 104.3-80.8 89.4c-145.4-22.7-196.7 170.1-196.7 170.1zm1405.3-668.7c70.9 134.8 26.8 279.8-97.6 318.9c-61.2 19.2-150.6-1.5-179.3-58.7c-16.5-32.9-15-104.4 80.6-89.7c145.5 22.4 196.3-170.5 196.3-170.5z"/>
	<path id="path763" class="s0" d="m423 1471.7c-118.9-54.7-252-154-271.4-281.3c-17.8-117.9 81.6-195.4 183.1-136.1c131.6 77 4.1 325.4 281.4 479c-40.4-8.2-104.9-21-193.1-61.6zm657.7-1410.3c119.1 54.4 252.4 153.4 272 280.8c18.1 117.8-81.2 195.5-182.7 136.4c-131.9-76.7-4.8-325.4-282.5-478.3c40.4 8.1 105 20.7 193.2 61.1zm-184.2 1470c27.2-14 51.9-25.8 76.7-44.5c106.9-69.9 146.1-177.7 143.1-249.8c-7.1-167.5-91.3-223.9-497.2-384.6c-377.5-149.8-455.2-288.4-461.2-432c-9.7-230.3 216.9-360.4 410.7-409.8c-38.2 16.3-82.2 41.8-113.2 78.9c-40.3 42.2-65.8 100.4-62.5 177.2c6.8 161.5 145.5 233.6 440.3 362.9c195.5 86 497.5 203.8 508.9 474c9.6 228-214.1 379.8-445.6 427.7z"/>
	<path id="path767" class="s0" d="m740.8 1314.1c51.1-63.3 32.8-146.1 136.1-160.6c84.7-12 118.9 66.7 116.2 115.8c-3.6 67.6-64 129.9-136.6 151.6c-67.3 20-156.1 24.8-226.5-38.3c0 0 49.2 8.1 110.8-68.5zm22.4-1094.4c-50.9 63.5-32.4 146.1-135.6 160.9c-84.8 12.1-119.1-66.5-116.6-115.6c3.6-67.5 63.8-130 136.4-151.8c67.2-20.2 156-25.2 226.5 37.8c0 0-49.2-8.1-110.7 68.7z"/>
	<path id="path771" class="s0" d="m417.9 958.5c127.9-24.6 243.9 48.9 265 141.9c13.8 61.1 5.2 109.9-24.4 134.7c-36.3 30.5-84.8 32.2-122.2-7.8c-40.4-43.3-18.1-85.9-37-154.8c-18.4-66.7-81.4-114-81.4-114zm669.1-383.9c-127.9 24.8-244.1-48.4-265.3-141.4c-14-61-5.5-109.8 24.1-134.7c36.2-30.6 84.7-32.4 122.1 7.5c40.6 43.3 18.3 86 37.4 154.7c18.5 66.7 81.7 113.9 81.7 113.9z"/>
	<path id="path775" class="s0" d="m86 404.7c-18.7 140.3 26.5 171.9 42.1 219.2c18.7 56.3 0.2 98.9-48.8 105.7c-44.9 6.1-75.1-32.8-78.6-95c-7.1-129.4 60.9-203.4 85.3-229.9zm1334 723c18.3-140.4-26.9-171.9-42.6-219.1c-18.7-56.3-0.4-99 48.7-105.8c44.8-6.3 75.1 32.6 78.7 94.8c7.4 129.4-60.5 203.6-84.8 230.1z"/>
</svg>