<svg version="1.2" xmlns="http://www.w3.org/2000/svg" viewBox="0 0 1514 419" width="1514" height="419">
	<title>Savencia_Fromage_&amp;_Dairy_logo-svg</title>
	<style>
		.s0 { fill: #004e65 } 
		.s1 { fill: #009ada } 
		.s2 { fill: #4dc6f4 } 
		.s3 { fill: #e26d1e } 
		.s4 { fill: #a6ce54 } 
	</style>
	<path id="path681" fill-rule="evenodd" class="s0" d="m1411.5 256.7l-9.4 26h-36.1l53.1-136.6h41.1l53 136.6h-37.4l-9.2-26zm28-76.3l-17.7 48.5h34.9zm-121.7-34.3h34.2v136.6h-34.2zm-30.3 43c-8.5-8.6-21.1-14.5-37-14.5c-22.5 0-35.3 16.5-35.3 39.7c0 24.2 14.7 39.8 36.7 39.8c16.3 0 26.4-4.8 38.4-14.2v34.9c-13.4 8-26 10.1-40 10.1c-43 0-70.3-29.2-70.3-70.6c0-41.6 28-70.5 70.3-70.5c14 0 26.2 2.3 37.2 8.7zm-161.9 40.7v-83.7h33v136.6h-32.3l-57-82.1v82.1h-33.1v-136.6h34.5zm-118.1 22.8v30.1h-91.8v-136.6h90.2v30.2h-56.5v23.4h51.5v29.4h-51.5v23.5zm-201.8 30.1l-50.7-136.5h36.7l35.2 101.8l34.6-101.8h36.5l-50.7 136.5zm-136.7-26l-9.4 26h-36l53-136.6h41.1l53.1 136.6h-37.4l-9.2-26zm28-76.3l-17.7 48.5h34.9zm-167.7 61.4c10.2 7.6 22.3 14 37.7 14c10.3 0 19.3-3 19.3-12.2c0-8.3-7.1-11.2-20.9-14.7c-28.3-7.1-38.8-20-38.8-42.8c0-26.8 20.4-42.2 47.3-42.2c16.3 0 27.6 3.9 37.7 9.8v33.6c-10.6-8.7-22.3-14.3-36.3-14.3c-10.4 0-15.4 4.6-15.4 11.1c0 8.7 7.8 11.5 22.3 15.1c28 7.4 37.6 20.5 37.6 43.3c0 29.6-23.6 42.5-52.6 42.5c-15.1 0-28.9-4.1-37.9-9.7z"/>
	<path id="path731" fill-rule="evenodd" class="s1" d="m1498.5 339.5h14.8l-28.2 48.2v29.9h-13.4v-29.9l-28.3-48.2h14.9l20.2 35.6zm-98.5 78.1h-13.4v-78c4.7-0.7 13.1-1.4 19.4-1.4c20.5 0 31.7 9.1 31.7 25.5c0 11.4-6.4 19.7-15.5 23.1l23.5 30.8h-16.2l-20.7-27.8h-8.8zm0-38.7h6.6c10.6 0 17.4-4.6 17.4-14.7c0-9-6.1-14.2-18-14.2c-1.5 0-4.6 0.1-6 0.2zm-46.2-39.3h13.4v78.1h-13.4zm-66.7 59.7l-6.9 18.4h-14.1l30.3-78.1h16.4l30.5 78.1h-14.6l-6.8-18.4zm17.4-47.1l-13.4 36h26.7zm-108.2-12.5c5.8-0.7 13.7-1.4 20.7-1.4c31.2 0 45.9 16.2 45.9 39c0 25-15.4 41.6-45.6 41.6c-7.9 0-15.2-0.6-21-1.5zm13.4 66.9c2.9 0.4 5.9 0.6 8.8 0.6c18 0 30.5-9.5 30.5-29.9c0-16.8-10.8-26.7-31.4-26.7c-2.5 0-5.3 0.2-7.9 0.4zm-104.1-31.5c-4.8-4.9-8.2-10.8-8.2-17.9c0-11 8.2-18.9 20.9-18.9c12.5 0 21 7.2 21 18.7c0 10.3-6.4 16.6-14.3 21l14.8 15.9c2.5-4.7 4-10.3 4.2-15.8h11.2c-0.1 8.8-2.9 17.2-7.8 24.1l14.5 15.5h-15.6l-6.7-7.1c-6.6 5.1-14.7 8.3-23.9 8.3c-15.8 0-25.8-8.1-25.8-21.5c0-10.7 6.3-16.4 16.6-21.3zm7.7 8.2c-7.1 3.4-10.3 8.1-10.3 13.8c0 7 5.2 11.4 13.6 11.4c6.2 0 11.4-2.1 15.8-5.4zm5-12.4c5.2-2.8 9-6.6 9-13.5c0-5.3-3.7-8.5-8.9-8.6c-5.3 0-8.5 3.5-8.5 8.4c0 3.8 1.8 6.7 6 11.2zm-63.3 35v11.9h-48.5v-78.1h47.7v11.8h-34.4v21.1h31.9v11.5h-31.9v21.8zm-67.5-47.3c-5.5-5.1-13.5-8.1-22-8.1c-15.8 0-27.2 11.2-27.2 28.2c0 17.4 11.8 28.7 27.2 28.7c4.8 0 8.4-0.5 11.5-1.8v-23.7h13.4v31.4c-6.2 3.8-15.6 5.8-25.2 5.8c-24.3 0-40.7-15.9-40.7-40.4c0-23.9 17.2-40.3 40.3-40.3c8.8 0 16.4 2.1 22.7 5.9zm-122.5 40.8l-6.8 18.4h-14.2l30.3-78.1h16.4l30.5 78.1h-14.6l-6.8-18.4zm17.5-47.1l-13.4 36h26.6zm-99.4 65.5l-18.5-60.5l-9.4 60.5h-13.3l12.5-78.1h16.6l18.9 61.9l18.6-61.9h16.8l12.3 78.1h-13.4l-9.4-60.5l-18.6 60.5zm-90.7 1.3c-22.4 0-40.4-18.1-40.4-40.4c0-22.3 18-40.3 40.4-40.3c22.4 0 40.5 18 40.5 40.3c0 22.3-18.1 40.4-40.5 40.4zm26.7-40.4c0-15.6-12-28.2-26.7-28.2c-14.7 0-26.7 12.6-26.7 28.2c0 15.7 12 28.3 26.7 28.3c14.7 0 26.7-12.6 26.7-28.3zm-117.3 39.1h-13.4v-78c4.7-0.8 13.1-1.4 19.4-1.4c20.5 0 31.7 9 31.7 25.5c0 11.4-6.5 19.7-15.5 23.1l23.5 30.8h-16.2l-20.7-27.8h-8.8zm0-38.7h6.6c10.6 0 17.4-4.6 17.4-14.8c0-8.9-6.1-14.2-18-14.2c-1.5 0-4.6 0.2-6 0.3zm-70.8 38.8v-78.1h43.3v11.8h-29.9v22.8h27.1v11.8h-27.1v31.7z"/>
	<path id="path759" class="s2" d="m14 299.8c-19.2-36.7-7.1-76.1 26.8-86.6c16.6-5.2 40.9 0.5 48.7 16.1c4.5 8.9 4 28.3-22 24.3c-39.5-6.2-53.5 46.2-53.5 46.2zm382.3-181.8c19.3 36.6 7.3 76.1-26.6 86.7c-16.6 5.2-40.9-0.4-48.7-16c-4.5-8.9-4.1-28.4 21.9-24.3c39.6 6 53.4-46.4 53.4-46.4z"/>
	<path id="path763" class="s1" d="m115.6 400.8c-32.4-14.9-68.5-41.9-73.8-76.5c-4.9-32.1 22.2-53.2 49.8-37c35.8 20.9 1.1 88.5 76.5 130.2c-11-2.2-28.5-5.7-52.5-16.7zm178.9-383.6c32.4 14.8 68.6 41.8 74 76.4c4.9 32-22.1 53.2-49.7 37.1c-35.9-20.9-1.3-88.5-76.9-130.1c11 2.2 28.6 5.7 52.6 16.6zm-50.1 399.8c7.4-3.8 14.1-7 20.8-12.1c29.1-19 39.8-48.3 39-67.9c-1.9-45.6-24.8-60.9-135.3-104.6c-102.6-40.8-123.8-78.4-125.4-117.5c-2.7-62.6 59-98 111.7-111.4c-10.4 4.4-22.4 11.3-30.8 21.4c-10.9 11.5-17.9 27.3-17 48.2c1.9 43.9 39.6 63.5 119.8 98.7c53.1 23.4 135.3 55.4 138.4 128.9c2.6 62-58.2 103.3-121.2 116.3z"/>
	<path id="path767" class="s3" d="m202.1 357.9c13.8-17.2 8.9-39.7 37-43.7c23-3.2 32.3 18.2 31.6 31.6c-1 18.3-17.4 35.3-37.2 41.2c-18.3 5.4-42.4 6.7-61.6-10.5c0 0 13.4 2.3 30.2-18.6zm6-297.6c-13.8 17.3-8.8 39.7-36.9 43.7c-23 3.3-32.4-18-31.6-31.4c0.9-18.4 17.3-35.3 37-41.3c18.3-5.5 42.5-6.8 61.7 10.3c0 0-13.4-2.2-30.2 18.7z"/>
	<path id="path771" class="s0" d="m114.2 261.2c34.8-6.7 66.4 13.3 72.1 38.6c3.7 16.6 1.4 29.9-6.6 36.6c-9.9 8.3-23.1 8.8-33.3-2.1c-11-11.8-4.9-23.4-10-42.1c-5-18.1-22.2-31-22.2-31zm182-104.4c-34.8 6.8-66.4-13.2-72.2-38.4c-3.7-16.6-1.4-29.9 6.6-36.7c9.9-8.3 23.1-8.8 33.2 2.1c11 11.7 5 23.3 10.2 42c5 18.2 22.2 31 22.2 31z"/>
	<path id="path775" class="s4" d="m23.9 110.6c-5 38.2 7.2 46.8 11.5 59.6c5.1 15.3 0 26.9-13.3 28.8c-12.2 1.6-20.4-9-21.4-25.9c-1.9-35.2 16.6-55.3 23.2-62.5zm362.9 196.6c5-38.1-7.3-46.7-11.6-59.6c-5.1-15.3-0.1-26.9 13.2-28.7c12.2-1.7 20.5 8.8 21.5 25.7c2 35.2-16.5 55.4-23.1 62.6z"/>
</svg>