<svg version="1.2" xmlns="http://www.w3.org/2000/svg" viewBox="0 0 1583 1394" width="1583" height="1394">
	<title>SCA_Logo_Color_Horizontal-svg</title>
	<style>
		.s0 { fill: #329d3b } 
		.s1 { fill: #103a63 } 
		.s2 { fill: #009dde } 
	</style>
	<g id="Lager_2">
		<g id="Lager_1-2">
			<path id="Layer" class="s0" d="m1501.2 800.6h-111.9l-434-751.3c-21-34.5-32.6-48.3-67.7-49.3h236.6c34.6 0 51.2 20 63.1 41l382.1 658.6c12.8 21.7 18.9 46.6 7.4 68.7-17.4 26.5-41.2 31.8-75.6 32.3zm-811.1-800.5c34.5 0 51.2 19.9 63 40.9l442.7 759.6h-236.8l-437.9-751.2c-20.8-34.4-33.6-48.3-68.1-49.4zm666.4 1077c13.7 23.2 18.3 48.6 3.6 74.5-18.5 28.2-38.4 34.5-76.8 34.5h-100.1l-102.7-176.5h236.8z"/>
			<path id="Layer" class="s1" d="m1576.8 768.3l-120.8 210.3c-13.7 23.6-37.7 30.9-67.1 30.9h-885.5l122-208.9h875.8c34.4-0.5 58.2-5.8 75.6-32.3zm-1229.9 509.9l54-92.4h882.6c38.3 0 58.2-6.6 76.8-34.4l-117.5 210.2c-13.6 22.8-33.3 32.1-66.4 32.1h-773.7c-26.1 0-49.4-6.7-64.5-30.6-16-29.1-8.6-54.5 8.7-84.9zm-221.5-293.1c-15.9-29.1-6.4-54.6 10.5-84.9l8.8-15.2 49-84.4h196.1l-121.5 208.9h-84.3c-29.1 0-47.4-7.9-58.5-24.2z"/>
			<path id="Layer" class="s2" d="m791.9 107.2l39-66.9c12.6-22 29.5-38.7 56.7-40.3 35.1 1.1 46.7 14.9 67.7 49.4l54.1 93.6-98.5 168.8zm-445.5 1171c-16.9 30.4-24.2 55.9-8.3 84.9l-117.8-209.4c-12.6-22-6.3-51.8 6.3-72.5l447-770.2 118.7 203.8zm-210.4-378c-16.9 30.4-26.5 55.9-10.5 84.9l-117.1-205c-14-24.4-6.9-51.7 5.7-73.1l381.4-666.6c12.8-22.1 30-38.8 57.5-40.4 35.4 1 47.1 14.7 68.2 49.4l53.7 92.2z"/>
		</g>
	</g>
</svg>