<svg version="1.2" xmlns="http://www.w3.org/2000/svg" viewBox="0 0 1544 296" width="1544" height="296">
	<title>Southern_Copper_Corporation_logo-svg</title>
	<style>
		.s0 { fill: #ffffff } 
	</style>
	<g id="layer1">
		<g id="g1485">
			<path id="path638" fill-rule="evenodd" class="s0" d="m391.5 115.6c-6.1-2.6-12.9-4.2-19.8-4.2-6.7 0-15.3 3-15.3 13.5 0 16.9 42.7 9.8 42.7 42.5 0 21.3-16.9 29.4-36.6 29.4-10.6 0-15.3-1.4-25-3.8l1.8-17.5c6.7 3.6 14.4 6 22.1 6 7.4 0 17.3-3.8 17.3-12.6 0-18.5-42.7-10.9-42.7-43.1 0-21.8 16.9-29.7 34.1-29.7 8.3 0 16.1 1.1 23.3 3.5zm65.1 81.2c-26.4 0-47.7-22.5-47.7-50.4 0-27.8 21.3-50.4 47.7-50.4 26.4 0 47.7 22.6 47.7 50.4 0 27.9-21.3 50.4-47.7 50.4zm27.4-50.4c0-19.4-12.3-35-27.4-35-15.1 0-27.3 15.6-27.3 35 0 19.4 12.2 35 27.3 35 15.1 0 27.4-15.6 27.4-35zm34.4-48.7h19.6v56.2c0 16.7 5.3 27.5 20.2 27.5 14.9 0 20.2-10.8 20.2-27.5v-56.2h19.6v62.2c0 26.1-14.8 36.9-39.8 36.9-25 0-39.8-10.8-39.8-36.9zm116.1 15.4h-27.9v-15.4h75.4v15.4h-27.9v82h-19.6zm56.8-15.3h19.5v39.3h39.1v-39.3h19.6v97.4h-19.6v-42.7h-39.1v42.7h-19.5zm97.7 0h57.5v15.3h-38v24h34.8v15.4h-34.8v27.4h38.3v15.3h-57.8zm72.8 0h21.1c20.9 0 45.9-0.7 45.9 26.4 0 11.4-7.7 20.9-20.1 22.6v0.3c5.3 0.4 8.4 5.7 10.4 10l15.6 38.1h-21.8l-11.7-30.4c-2.8-7.3-5.3-10-13.6-10h-6.2v40.4h-19.6zm19.6 41.6h6.4c9.6 0 20.6-1.4 20.6-13.5 0-11.8-10.9-12.7-20.6-12.7h-6.4zm63.3-41.6h24l37.1 72.8h0.3v-72.8h18.7v97.4h-23.9l-37.2-72.9h-0.3v72.9h-18.7zm187.4 96c-7.1 1.6-14.8 3.1-22.2 3.1-31.5 0-53.4-15.8-53.4-48.7 0-33.4 20.3-52.1 53.4-52.1 6.4 0 15 1.3 22.1 4.1l-1.4 16.5c-7.4-4.3-14.1-5.2-21.1-5.2-20.1 0-32.7 15.3-32.7 35.3 0 19.8 12.3 34.7 33.1 34.7 7.7 0 16.8-1.7 21.4-4zm54.2 3.1c-26.4 0-47.7-22.5-47.7-50.4 0-27.9 21.3-50.4 47.7-50.4 26.4 0 47.7 22.5 47.7 50.4 0 27.9-21.3 50.4-47.7 50.4zm27.4-50.4c0-19.4-12.3-35-27.4-35-15.1 0-27.3 15.6-27.3 35 0 19.4 12.2 35 27.3 35 15.1 0 27.4-15.6 27.4-35zm33.5-48.7h24.7c21.1 0 40.6 6.1 40.6 29.4 0 22.8-16.6 31-37.6 31h-8.2v37h-19.5zm19.5 45.1h6.9c9.7 0 18.5-3.2 18.5-14.5 0-11.4-8.5-15.3-18.5-15.3h-6.9zm55-45.1h24.7c21.2 0 40.6 6.2 40.6 29.5 0 22.8-16.6 31-37.6 31h-8.2v37h-19.5zm19.5 45h6.9c9.7 0 18.5-3.2 18.5-14.5 0-11.3-8.5-15.2-18.5-15.2h-6.9zm56.7-45.1h57.4v15.4h-37.9v24h34.7v15.3h-34.7v27.4h38.2v15.3h-57.7zm72.8 0h21.1c20.9 0 45.9-0.6 45.9 26.4 0 11.5-7.7 21-20.1 22.6v0.3c5.3 0.4 8.4 5.7 10.3 10.1l15.6 38h-21.7l-11.8-30.4c-2.7-7.2-5.3-10-13.5-10h-6.3v40.4h-19.5zm19.5 41.7h6.4c9.7 0 20.7-1.5 20.7-13.6 0-11.7-10.9-12.7-20.7-12.7h-6.4zm-760.6 151c-3.1 1.9-7.5 4.6-14.7 4.6-14.5 0-19.9-11.6-19.9-25.6 0-12.6 4-23.2 18.3-23.2 12.9 0 15.9 7.1 16.3 13.3h-8.7c0-4.9-1.6-9.3-7.6-9.3-9.5 0-10.3 11.6-10.3 19.2 0 11.9 2.6 21.4 12.7 21.4 2.7 0 5-1 6.4-2.4v-16.8h-9.4v-4.5h16.9zm15.5-43.5h10.3c8 0 18.4 1.1 18.4 12.4 0 7.6-6.1 10.2-10.1 11v0.2c7.1 1.1 8.1 5.9 9.2 11.4l2.5 12.3h-7.6l-2.6-12.6c-1.1-4.1-2.5-8.5-9.8-8.5h-2.8v21.1h-7.5zm7.5 21.7h2.8c4.8 0 10.8-1.5 10.8-9 0-6.3-3.6-8.2-10.8-8.2h-2.8zm68 8.8c0 8.6-1.5 17.5-16.1 17.5-14.6 0-16-8.9-16-17.5v-30.5h7.5v30.5c0 7.5 0.5 13.4 8.5 13.4 8 0 8.5-5.9 8.5-13.4v-30.5h7.6zm16.1-30.6h9.8c10.4 0 18.3 2 18.3 13.1 0 12.8-11.3 13.3-18.3 13.4h-2.2v20.8h-7.6zm7.6 22h2.2c5.7 0 10.7-0.8 10.7-8.9 0-7.2-4.1-8.5-10.7-8.5h-2.2zm30.3 1.7c0-14.2 5.2-24.4 18.5-24.4 13.3 0 18.5 10.2 18.5 24.4 0 14.1-5.2 24.4-18.5 24.4-13.3 0-18.5-10.3-18.5-24.4zm18.5 20.3c9.2 0 10.5-12 10.5-20.3 0-8.4-1.3-20.3-10.5-20.3-9.3 0-10.4 11.9-10.4 20.3 0 8.3 1.1 20.3 10.4 20.3zm90.3-44v47.3h-6.8v-40.9h-0.2l-13.8 40.9h-5.8l-13.8-40.9h-0.1v40.9h-5.8v-47.3h10.1l13.1 38.5h0.2l13.1-38.5zm41.7 0v4.5h-17.4v15.9h16.4v4.6h-16.4v17.4h18v4.9h-25.5v-47.3zm43.7 0l-12.9 22 14.6 25.3h-8.7l-10.5-18.2-10.5 18.2h-7.2l14.3-24.2-13.3-23.1h8.6l9.3 16.2 9.1-16.2zm13.2 0h7.6v47.3h-7.6zm54.8 45.1c-2.5 1.5-6.5 3-12.6 3-14.6 0-19.9-12-19.9-25.3 0-11.5 4.2-23.5 18.6-23.5 10.6 0 15.8 5.8 15.8 13.5h-8.8c0-3.8-1.3-9.4-7.6-9.4-8.6 0-10 11.6-10 18.1 0 10.7 2.6 21.6 13.1 21.6 5.8 0 9.4-3 11.4-4.5zm11.4-21.4c0-14.2 5.2-24.4 18.5-24.4 13.3 0 18.5 10.2 18.5 24.4 0 14.2-5.2 24.5-18.5 24.5-13.3 0-18.5-10.3-18.5-24.5zm18.5 20.3c9.3 0 10.5-11.9 10.5-20.3 0-8.3-1.2-20.3-10.5-20.3-9.3 0-10.4 12-10.4 20.3 0 8.4 1.1 20.3 10.4 20.3z"/>
			<path id="path784" class="s0" d="m289.3 162.2c-0.2 2.6-0.6 5.1-0.9 7.6-1.7 12-4.7 23-10.7 37.5q0 0-0.1 0c0 0 0 0.1 0 0.1-45.5-26.1-152.5-16-202.3-29.3q-5-1.3-9.2-3c-14.8-5.9-10.3-14.5-8.1-17.6 0.5-0.7 1-1.2 1-1.2l0.1-0.2c7.4-9.5 14.7-17.7 21.2-24.4h-79c0.5-5 1.3-10 2.3-14.8h94.4c-3 4.5-4.3 9.3-2.7 14.1 0 0 0 0.1 0 0.2q0.3 0.7 0.7 1.5c0 0.1 0.1 0.2 0.1 0.3q0.4 0.7 0.8 1.4c0.1 0.2 0.2 0.3 0.3 0.5 0.3 0.4 0.6 0.8 0.9 1.2 0.2 0.2 0.3 0.4 0.5 0.6 0.3 0.3 0.7 0.7 1 1.1 0.3 0.2 0.4 0.4 0.7 0.6 0.4 0.5 0.8 0.8 1.2 1.2q0.3 0.3 0.8 0.6c0.4 0.4 0.9 0.8 1.4 1.2 0.3 0.2 0.5 0.4 0.8 0.6 0.7 0.4 1.3 0.8 1.9 1.2 0.3 0.2 0.5 0.4 0.8 0.5 0.9 0.6 1.9 1.2 3 1.8 39.6 21.4 130.2 0.2 179.1 16.6v0.1c0 0 0 0 0 0zm-83.6-148.2h-121c18.4-8.7 38.9-13.6 60.5-13.6 21.6 0 42.1 4.9 60.5 13.6zm-3.8 29.4h-159c5.3-5.4 11.2-10.3 17.2-14.7h170.1c14.9 10.9 27.5 24.7 37.4 40.4-17.7 1.7-33.8 2-46.5-1.5-18.8-5.2-8.5-17.1-7.9-17.9l11.9-14.6c2.1-2.1-9.9 1.6-23.2 8.3zm-87.3 58.8h-107.1c1.6-5 3.5-9.9 5.6-14.8h135.9c4.9-5.5 9.7-10.4 13.9-14.6h-142.3q4.5-7.7 9.9-14.8h149c-1.3 1.3-2.6 2.5-3.7 3.8-0.2 0.3-0.5 0.6-0.7 0.8q-0.5 0.7-1 1.4c-0.1 0.1-0.2 0.2-0.3 0.3-2.3 3.3-3.7 6.7-3.5 10 0 0.1 0 0.3 0 0.4q0.1 0.6 0.2 1.2c0.9 4.5 4.8 9 13.2 13.6 6.8 3.6 15 5.7 24 6.8 0.6 0 1.1 0.1 1.8 0.2 0.2 0 0.5 0 0.7 0.1 20.1 1.7 44.7-1.2 69.4-3.7 0 0 0 0.1 0 0.1 2.2 4.2 7.2 21.1 8.4 30.3h-0.1q0 0.1 0.1 0.3c-14.8-0.4-30.4 0.2-46.1 1.1-9.5 0.5-19 1.1-28.2 1.6-1.3 0.1-2.7 0.2-3.9 0.2-1.2 0-2.3 0.1-3.5 0.2-2.3 0.1-4.5 0.2-6.8 0.2q-0.8 0-1.5 0.1-4.1 0-8 0.1h-0.8c-2.8 0-5.5 0-8.2-0.1q-0.3 0-0.7 0c-2.6-0.1-5.2-0.2-7.8-0.3q-0.3 0-0.6-0.1c-10-0.6-19.2-2-27-4.7-15.2-5.2-12.3-13.3-10-17 0.8-1.4 1.7-2.3 1.7-2.4 3.9-5.1 7.8-9.8 11.6-14.1-0.3-1.8-18.5 4.2-33.6 13.8zm-85.9 58.9h-27.6c-0.4-4.4-0.7-8.9-0.7-13.4 0-0.5 0.1-0.9 0.1-1.4h54.7c-8.4 3.4-18.6 8.6-26.5 14.8zm154.9 128.6c-12.2 3.4-25.1 5.4-38.4 5.4-70.5 0-129.3-51.4-142.1-119.4h13.9c-2.4 7.4 0.7 15.3 13.5 22.9 30.3 18 86.7 7.6 130.6 33.5 25.3 15 28.2 36.8 22.5 57.6z"/>
		</g>
	</g>
</svg>