<svg version="1.2" xmlns="http://www.w3.org/2000/svg" viewBox="0 0 1576 586" width="1576" height="586">
	<title>logo_socket-mobile-dark-blue_black-svg</title>
	<style>
		.s0 { fill: #213569 } 
	</style>
	<g id="logo_socket-mobile-dark-blue_black">
		<g id="Group_153">
			<g id="Group_152">
				<path id="Path_95" fill-rule="evenodd" class="s0" d="m349.5 315.7c-72.5 0-123.1-46.7-123.1-113.6 0-77.9 63.8-113.4 123.1-113.4 7.2-0.1 14.4 0.4 21.4 1.4 7.1 1.1 14.1 2.7 21 4.8 6.8 2.2 13.5 4.8 19.9 8 6.5 3.2 12.6 6.9 18.5 11 6.7 5.2 12.8 11.1 18.1 17.7 5.3 6.6 9.8 13.9 13.4 21.5 3.6 7.7 6.3 15.8 8 24.1 1.6 8.3 2.3 16.8 1.9 25.3 0.4 8.6-0.3 17.3-2.1 25.7-1.7 8.5-4.5 16.7-8.3 24.4-3.8 7.8-8.5 15.1-14.1 21.7-5.6 6.6-12 12.5-19 17.5q-8.7 5.8-18.1 10.3-9.4 4.5-19.4 7.5-10 3.1-20.4 4.6-10.3 1.5-20.8 1.5zm0-214.7c-53.4 0-110.8 31.6-110.8 101.1 0 60.6 44.5 101.3 110.8 101.3 40.9 0 110-21.2 110-100.9 0-80.1-69.2-101.5-110-101.5zm0 176.2c-20 0-53.6-9.7-53.6-75.1 0-67.5 37.5-74.8 53.6-74.8 34 0 52.7 26.1 52.7 73.4 0.1 66.6-33 76.5-52.7 76.5zm0-137.6c-26.6 0-41.3 22.2-41.3 62.4 0 41.8 13.9 62.9 41.3 62.9 33.4 0 40.5-34.9 40.5-64.2 0-40.6-13.7-61.1-40.5-61.1zm-63 446l-41.9-23.8-0.6-2.6c-15.6-63.7 0.6-135.3 39.4-174 28.2-28.2 74.5-45 123.8-45q6.3 0 12.6 0.3 6.3 0.4 12.5 1.1 6.3 0.8 12.5 1.9 6.2 1.1 12.3 2.6l8.5 2.1-25.8 38.4-3.1 0.1c-9.7 0.2-19.4 1.3-28.9 3.4-9.4 2.1-18.7 5.1-27.6 9-8.8 4-17.3 8.8-25.2 14.4-7.9 5.6-15.2 12-21.9 19.1-38.8 39.1-53.6 82.6-47.8 141.2zm-31.1-31.9l16.8 9.6c-1.2-12.8-1-25.7 0.7-38.4 1.7-12.8 4.9-25.3 9.4-37.3 4.5-12.1 10.4-23.6 17.4-34.3 7.1-10.7 15.4-20.6 24.7-29.5 7.1-7.4 14.8-14.1 23.1-20 8.3-5.9 17.1-11 26.4-15.2 9.3-4.2 19-7.5 28.9-9.9 9.9-2.3 20.1-3.7 30.3-4.1l12.4-18.4q-4.7-1-9.5-1.7-4.7-0.7-9.5-1.1-4.8-0.5-9.6-0.7-4.8-0.2-9.6-0.2c-46.2 0-89.2 15.4-115.2 41.4-35.4 35.3-50.3 100.7-36.7 159.8z"/>
			</g>
		</g>
		<g id="Group_161">
			<path id="Path_90" fill-rule="evenodd" class="s0" d="m152.1 156.1q-7.7-4.9-16-8.9-8.2-3.9-16.9-6.8-8.8-2.9-17.8-4.7-9-1.7-18.1-2.3c-8.6 0-23.3 1.8-23.3 16 0 22.9 102.4 23.8 102.4 92.7 0 43-30.4 67.1-84.1 67.1q-9.5 0.1-18.9-0.9-9.5-1-18.8-2.9-9.3-1.9-18.3-4.7-9.1-2.9-17.8-6.7v-45.7q7.8 3.9 15.9 7 8.1 3.1 16.5 5.3 8.4 2.2 17 3.5 8.6 1.3 17.3 1.7c19.2 0 31.3-5.8 31.3-15.1 0-30.1-102.5-24.7-102.5-92.3 0-38 34.4-63.5 85.5-63.5q8.6-0.2 17.2 0.6 8.6 0.9 17.1 2.8 8.4 2 16.5 4.9 8.2 3 15.8 7c0 0 0 46 0 45.9zm571.7 139.2q-8.3 3.3-16.9 5.8-8.5 2.5-17.3 4.3-8.8 1.7-17.7 2.7-8.9 0.9-17.8 1.1c-72.5 0-119.5-42.1-119.5-106.5 0-63.1 48.7-107.8 116.8-107.8q8.9 0.2 17.7 1.1 8.8 1 17.5 2.7 8.8 1.7 17.3 4.1 8.5 2.4 16.9 5.5v48.3q-6.1-3.2-12.5-5.7-6.5-2.6-13.1-4.3-6.7-1.8-13.5-2.7-6.9-1-13.8-1.2c-38.9 0-63.9 23.3-63.9 59.5 0 36.8 24.6 60.9 61.7 60.9 15.7 0 29.6-3.6 58.2-14.4 0 0 0 46.6-0.1 46.6zm149.7-94.4h0.9l80.1-102h76l-80.4 102 84.1 104.3h-79.7l-80.1-101.6h-0.9v101.6h-64.9v-305.2h64.9zm409.8 81c-6.7 4.7-13.7 8.9-21.1 12.4-7.3 3.6-14.9 6.6-22.8 8.9-7.8 2.3-15.8 4-23.9 5-8.1 1-16.3 1.3-24.4 1-72.5 0-119.6-42.1-119.6-106.5 0-63.1 45.3-107.8 108.9-107.8 59.9 0 109.6 42.5 106.4 117.6h-148.1c2.3 36.7 27.3 58.2 68 58.2 25.9 0 46-7.6 76.5-29.5 0.1 0 0.1 40.7 0.1 40.7zm-53.8-103.3c-2.7-28.1-19.7-45.2-44.8-45.2-25.4 0-42 16.5-44.7 45.2zm277.5-35.5h-75.2v85c0 20.2 11.7 33.3 31.8 33.3q5.7-0.1 11.4-0.9 5.6-0.9 11.1-2.4 5.5-1.5 10.7-3.8 5.3-2.2 10.2-5v46.9q-7 3.2-14.4 5.6-7.3 2.5-14.9 4.1-7.5 1.6-15.2 2.5-7.7 0.8-15.4 0.8c-43 0-80.1-19.7-80.1-77.4v-88.7h-29.6v-12.4l86.4-96.7h8.1v64.9h75.1zm-758.5 305.8v13.2q2.5-3.4 5.7-6.2 3.2-2.8 7-4.8 3.7-2 7.8-3.1 4.1-1.2 8.3-1.4c3.4 0 6.7 0.4 9.9 1.4 3.2 1 6.2 2.6 8.9 4.5 2.7 2 5 4.4 6.9 7.2 1.9 2.7 3.4 5.7 4.3 9q15.1-22.1 32.7-22.1 3.4 0 6.7 0.6 3.3 0.7 6.3 2.1 3 1.5 5.7 3.5 2.6 2.1 4.7 4.7 2.4 3 4.2 6.4 1.8 3.3 2.9 6.9 1.2 3.7 1.7 7.4 0.5 3.8 0.3 7.6v66.4h-26.1v-60.6q0.1-2.2-0.1-4.4-0.2-2.2-0.7-4.4-0.5-2.1-1.3-4.2-0.8-2.1-2-4-0.8-1.4-2.1-2.6-1.2-1.2-2.7-2-1.5-0.8-3.1-1.2-1.7-0.3-3.4-0.3-11.4 0-20.6 17.5v66.3h-26v-61.3q0.1-2.2-0.1-4.4-0.2-2.2-0.8-4.3-0.5-2.1-1.4-4.2-0.9-2-2.1-3.8-1-1.4-2.3-2.5-1.2-1.1-2.8-1.9-1.5-0.7-3.1-1.1-1.7-0.4-3.4-0.3-10.3 0-20 14.4v69.4h-26.1v-103.4c0 0 26.2 0 26.2 0zm233.1-2.3q4.7 0 9.2 0.9 4.6 0.9 8.9 2.7 4.3 1.9 8.1 4.6 3.8 2.7 6.9 6.1 3.6 4.1 6.3 8.7 2.7 4.7 4.5 9.8 1.7 5.1 2.4 10.5 0.7 5.4 0.4 10.7 0.4 5.4-0.4 10.8-0.7 5.3-2.5 10.4-1.8 5.1-4.5 9.8-2.8 4.6-6.4 8.6-3.2 3.4-6.9 6.1-3.8 2.6-8.1 4.4-4.2 1.8-8.8 2.7-4.5 0.9-9.1 0.9-4.8 0.1-9.5-0.8-4.7-0.9-9.1-2.9-4.4-1.9-8.3-4.8-3.8-2.8-7-6.5-3.3-4-5.9-8.6-2.6-4.6-4.3-9.6-1.7-5-2.4-10.2-0.7-5.2-0.5-10.5-0.3-5.2 0.5-10.5 0.7-5.3 2.4-10.3 1.8-5 4.4-9.6 2.7-4.6 6.1-8.6 3.2-3.6 7-6.4 3.8-2.8 8.2-4.7 4.3-1.9 9-2.8 4.7-0.9 9.4-0.9zm0 88.3q18.8 0 18.7-35.2 0-33.7-18.7-33.6-2.2 0-4.3 0.6-2.1 0.6-4 1.8-1.9 1.2-3.3 2.8-1.5 1.7-2.4 3.7-1.4 2.9-2.5 6-1 3.1-1.7 6.4-0.6 3.2-0.8 6.5-0.3 3.2-0.1 6.5 0 34.5 19.1 34.5zm134.4-135.7v55.3q2.2-1.8 4.7-3.2 2.6-1.5 5.3-2.5 2.7-1 5.6-1.6 2.8-0.5 5.7-0.6c2.9 0 5.7 0.3 8.5 1 2.8 0.6 5.5 1.6 8 2.9 2.6 1.3 4.9 2.9 7.1 4.7 2.1 1.9 4 4 5.7 6.4q2.9 4.2 5.2 8.8 2.2 4.6 3.7 9.5 1.4 4.9 2 10 0.6 5.1 0.4 10.3 0.2 5.1-0.4 10.2-0.6 5.1-1.9 10.1-1.4 4.9-3.6 9.6-2.1 4.7-5 9c-1.5 2.3-3.2 4.4-5.3 6.3-2 1.9-4.2 3.5-6.7 4.8-2.4 1.3-5 2.3-7.6 3-2.7 0.7-5.5 1-8.2 1q-3.3-0.1-6.4-0.8-3.2-0.6-6.2-1.9-3-1.3-5.7-3.1-2.6-1.8-4.9-4.1v7.9h-26.1v-153c0 0 26.1 0 26.1 0zm0 76.5v48q1.3 1.9 3 3.4 1.8 1.5 3.8 2.7 2 1.1 4.2 1.8 2.2 0.7 4.5 0.9 2.2 0 4.4-0.6 2.2-0.6 4.1-1.7 1.9-1.2 3.5-2.8 1.5-1.6 2.6-3.6 1.5-2.8 2.6-5.7 1-2.9 1.7-6 0.7-3 0.9-6.1 0.3-3.1 0.1-6.3 0.2-3-0.1-6-0.2-3-0.9-5.9-0.7-2.9-1.9-5.7-1.1-2.8-2.7-5.4-1.1-1.9-2.7-3.4-1.6-1.6-3.6-2.6-1.9-1.1-4-1.7-2.2-0.5-4.4-0.5-2.1 0.2-4.2 0.7-2.1 0.6-4 1.5-2 0.9-3.7 2.2-1.8 1.2-3.2 2.8zm122.7-60.5q-0.1-1.7 0.2-3.4 0.2-1.7 0.8-3.3 0.5-1.6 1.3-3.1 0.8-1.5 1.9-2.9c1.1-1.6 2.6-2.9 4.4-3.8 1.8-0.9 3.8-1.4 5.7-1.4 2 0 4 0.5 5.8 1.4 1.7 0.9 3.3 2.2 4.4 3.8 1.4 1.9 2.4 3.9 3.1 6 0.8 2.2 1.1 4.4 1.1 6.7 0 2.3-0.3 4.5-1.1 6.7-0.7 2.1-1.7 4.2-3.1 6-1.1 1.6-2.7 3-4.4 3.9-1.8 0.9-3.8 1.4-5.8 1.4-2 0-3.9-0.5-5.7-1.4-1.8-0.9-3.3-2.3-4.4-3.9q-1.1-1.4-1.9-2.9-0.8-1.5-1.3-3.1-0.6-1.6-0.8-3.3-0.3-1.7-0.2-3.4zm27.5 33.7v103.4h-26.1v-103.4c0 0 26.1 0 26.1 0zm67.1-49.7h26.1v153h-26.1zm173.6 121v20.5q-3.8 3.3-8.1 6-4.4 2.6-9.1 4.3-4.8 1.8-9.8 2.6-5 0.8-10 0.6-5 0.2-9.8-0.6-4.8-0.9-9.4-2.8-4.5-1.9-8.5-4.7-4.1-2.8-7.4-6.5-3.4-4-5.9-8.6-2.6-4.6-4.3-9.5-1.7-5-2.4-10.2-0.7-5.2-0.5-10.4-0.2-5.3 0.5-10.4 0.7-5.2 2.3-10.2 1.5-5 3.9-9.6 2.5-4.6 5.6-8.8 2.8-3.6 6.3-6.5 3.5-2.9 7.6-4.9 4.1-1.9 8.6-2.9 4.4-1 9-1c3 0 6.1 0.3 9.1 1 3 0.7 5.9 1.8 8.6 3.2 2.7 1.4 5.3 3.1 7.6 5.1 2.3 2 4.4 4.3 6.2 6.8q3.2 4.7 5.6 9.8 2.4 5.2 3.8 10.7 1.5 5.5 2 11.2 0.5 5.6 0 11.3h-59.6q0 3 0.5 5.9 0.5 2.9 1.5 5.6 1 2.8 2.5 5.4 1.6 2.5 3.5 4.8 1.9 1.9 4.1 3.4 2.2 1.4 4.7 2.4 2.5 1 5.2 1.4 2.6 0.5 5.3 0.3 4.4-0.3 8.6-1.4 4.3-1.2 8.2-3.1 3.9-1.8 7.5-4.4 3.5-2.6 6.5-5.8zm-57.6-31.6h36.1q-2.2-22.6-18-22.6-16.2 0-18.1 22.6zm104.1-444.3c12.1 0.1 21.8 9.9 21.8 21.9 0 12.1-9.8 21.9-21.9 21.9-12 0-21.8-9.8-21.8-21.9 0-12 9.7-21.8 21.8-21.9zm-0.1 3.4c-2.4 0.1-4.7 0.6-6.9 1.6-2.1 1-4.1 2.4-5.7 4.1-1.7 1.7-3 3.7-3.8 6-0.9 2.2-1.3 4.5-1.2 6.9-0.3 4.9 1.4 9.6 4.7 13.2 3.4 3.6 8 5.6 12.9 5.6 4.9 0 9.5-2 12.9-5.5 3.3-3.6 5.1-8.3 4.8-13.2 0.1-2.4-0.3-4.7-1.2-7-0.8-2.2-2.1-4.3-3.7-6-1.7-1.7-3.6-3.1-5.8-4.1-2.2-1-4.5-1.5-7-1.6zm-4.1 31.4h-3.9v-24.5q0.8-0.2 1.7-0.3 0.9-0.1 1.7-0.2 0.9 0 1.8-0.1 0.9 0 1.7 0 1-0.1 2 0 1 0.1 2 0.3 1 0.3 1.9 0.6 0.9 0.4 1.8 0.9 0.5 0.5 1 1.1 0.4 0.5 0.7 1.2 0.3 0.7 0.4 1.4 0.2 0.7 0.1 1.4 0 1.1-0.3 2.1-0.4 0.9-1 1.8-0.7 0.8-1.6 1.3-0.9 0.6-1.9 0.8v0.2c2.2 0.4 3.6 2.3 4.1 5.9q0.1 0.8 0.2 1.6 0.2 0.8 0.4 1.5 0.1 0.8 0.4 1.5 0.3 0.8 0.6 1.5h-4.1q-0.4-0.7-0.7-1.5-0.2-0.8-0.4-1.5-0.3-0.8-0.4-1.6-0.1-0.8-0.2-1.6 0-1-0.5-1.9-0.4-0.9-1.2-1.5-0.7-0.6-1.7-0.8-0.9-0.3-1.9-0.1h-2.7zm0-13.6h2.8c3.3 0 6-1.2 6-4.2 0-2.2-1.5-4.3-6-4.3q-0.3 0-0.7 0-0.3 0-0.7 0-0.3 0-0.7 0.1-0.3 0-0.7 0.1z"/>
		</g>
	</g>
</svg>