<svg version="1.2" xmlns="http://www.w3.org/2000/svg" viewBox="0 0 1064 1060" width="1064" height="1060">
	<title>stelluscapital-svg</title>
	<style>
		.s0 { opacity: .2;fill: #0c172e } 
	</style>
	<g id="Style-Tile">
		<g id="Logomarks">
			<g id="Layer">
				<g id="Logo-with-Compass-/-On-White">
					<g id="LogoCompassBlack">
						<path id="LogoCompass" fill-rule="evenodd" class="s0" d="m531.8 0l6 42.1h1.3v9.3l14.5 101.5 1 0.1c93.4 5.5 177.8 44.8 240.9 105.7l83.5-83.2 8.4 8.4-83.5 83.2c61.1 62.8 100.5 146.7 106.1 239.7l0.1 1.4 153.4 21.8-42.2 6v1.3h-9.3l-101.9 14.5v0.8c-5.5 93.2-45 177.3-106.2 240.2l83.5 83.3-8.4 8.4-83.5-83.3c-63.2 61.1-147.6 100.4-241.1 105.9h-0.8l-14.5 101.5v9.3h-1.3l-6 42.1-21.8-152.9-1.1-0.1c-93.4-5.5-177.7-44.8-240.8-105.8l-83.5 83.3-8.4-8.4 83.5-83.3c-61.2-62.9-100.6-147-106.2-240.2v-0.8l-101.9-14.5h-9.3v-1.3l-42.2-6 153.4-21.8v-0.1c5.3-93.5 44.8-177.9 106.2-241l-83.5-83.2 8.4-8.4 83.5 83.2c63.3-61.2 148-100.5 241.9-105.8zm-6 544.3l-48.7 48.5 48.7 341.2zm13.3 1.4v378.7l47.3-331.5zm55.4 328q-17.9 3.2-36.4 4.6h-0.4l-2.4 16.8c14.4-0.9 28.6-2.7 42.5-5.2zm-128.2-0.5l-3.4 16.2c14.8 2.8 29.9 4.7 45.3 5.7l-2.4-16.8-2.5-0.1q-18.8-1.6-37-5zm194.1-18.2c-17.4 6.9-35.5 12.4-54.2 16.4l3.2 16.2c19.8-4.2 38.9-10 57.4-17.3zm-265.2-3.2l-6.7 15.1c20 8.5 41 15.3 62.7 20.1l3.4-16.2c-20.6-4.6-40.4-11-59.4-19zm473.9-294.3l-80.7 11.5-0.2 0.9c-7.9 51.2-31.1 98.4-66.2 136.1l-0.1 0.1 40.5 53.8-50.3-43.8c-38.5 37-87.5 61.5-140.7 69.7h-0.6l-11.5 80.5c165-13.3 296.5-144.4 309.8-308.8zm-674.8 0c13.3 164.4 144.8 295.5 309.7 308.8l-11.4-80.5-0.8-0.1c-51.5-7.9-99-31.1-136.8-66.2l-54 40.4 40.5-53.8-0.1-0.1c-35.2-37.7-58.4-85.1-66.3-136.5l-0.1-0.5zm525.9 266.9c-15.5 9.9-31.8 18.6-48.8 26l6.4 15.3c18-7.8 35.2-17 51.6-27.4zm-384.3-4.8l-9.5 13.5c16.2 10.9 33.3 20.6 51.2 28.9l6.7-15.2c-16.9-7.8-33.1-16.9-48.4-27.2zm439.4-38.6c-14 13.4-29.1 25.8-45.2 36.8l9.2 13.8c17-11.6 32.9-24.7 47.7-38.9zm-487.1 0l-6.4 6.4-5.3 5.3c12.5 12.1 26 23.4 40.2 33.6l9.5-13.5c-13.4-9.7-26.1-20.4-38-31.8zm-42.8-49.7l-13.7 9.3c11 15.5 23.1 30.1 36.3 43.7l11.8-11.7c-12.5-12.9-24-26.7-34.4-41.3zm570.2 3.5c-9.7 13.3-20.4 25.9-31.9 37.8l11.8 11.7c12.1-12.5 23.4-25.9 33.7-40.1zm-222.9-102l-20 140.7c47.3-7.9 91-29.3 126.1-61.3zm-121.9 0l-106.1 79.4c35.2 32.1 78.8 53.4 126.2 61.3zm381.7 37.9c-8.4 19.1-18.5 37.3-30.1 54.4l13.6 9.5c12.3-18.1 22.9-37.3 31.9-57.5zm-639.2 5.4l-15.2 6.6c7.7 16.8 16.7 32.9 26.8 48.2l13.7-9.4c-9.5-14.4-18-29.6-25.3-45.4zm228.6-83.5l-81.2 107.7 108.1-80.9-3.4-23.5zm179.6 0l-23.5 3.4-3.4 23.5 108.1 80.8zm154.5-21.9l-141.1 20 79.7 105.8c32.1-35.1 53.6-78.6 61.4-125.8zm-488.7 0c7.9 47.2 29.3 90.7 61.5 125.8l79.6-105.8zm-97.1 38.2l-16.2 3.4c4.7 20.6 11.2 40.6 19.3 59.7l15.2-6.7c-7.6-18.1-13.8-37-18.3-56.4zm683.6-2.9c-4.1 18.5-9.7 36.5-16.7 53.8l15.3 6.5c7.4-18.3 13.3-37.4 17.7-57zm-708.4-52.6c1 16.1 3 31.9 6.1 47.3l16.2-3.4c-2.6-13.5-4.5-27.2-5.5-41.2l-0.1-0.3zm732.6 0l-16.8 2.4-0.1 2.2q-1.5 18.5-4.9 36.4l16.3 3.3c2.7-14.5 4.6-29.3 5.5-44.3zm29.4-16.1h-379.9l47.3 47.1zm-411.4 0h-379.9l332.6 47.2zm-47.3-61.8l-342.4 48.5h391.1zm126.1 0l-48.7 48.6h391.1zm-69-349.5l-48.7 341.1 48.7 48.6zm13.3 9.6v378.7l47.3-47.2zm-368.1 326.7c-2.7 14.4-4.6 29.2-5.5 44.2l16.8-2.4 0.2-2.6q1.4-18.2 4.8-35.9zm720.9-3.1l-16.2 3.5c2.5 13.2 4.4 26.7 5.4 40.5l0.1 0.9 16.8 2.4-0.1-1.2c-1-15.6-3.1-31-6-46.1zm-332.5-265.5l11.4 80.4 0.6 0.1c51.4 7.9 98.7 30.9 136.6 65.8l0.4 0.4 54-40.4-40.5 53.8 0.2 0.3c35 37.6 58.2 84.7 66.1 135.9l0.2 1 80.7 11.4c-13.3-164.4-144.8-295.5-309.7-308.7zm-55.3 0c-165 13.2-296.5 144.3-309.8 308.7l80.7-11.4 0.1-0.3c7.9-51.5 31.1-99 66.4-136.9l-40.5-53.8 54 40.4 0.4-0.3c37.9-35.1 85.6-58.2 137.2-66zm210.5 169.9l-79.6 105.7 141.1 20c-7.9-47.2-29.3-90.7-61.5-125.7zm-427.2 125.7l141.1-20-79.7-105.8c-32.1 35.1-53.6 78.6-61.4 125.8zm154.5-21.9l23.6-3.4 3.3-23.4-108-80.9zm260.7-107.7l-108 80.8 3.3 23.5 23.6 3.4zm-511.7 34.1c-7.3 18.3-13.3 37.3-17.6 56.9l16.2 3.3c4.2-18.5 9.8-36.5 16.7-53.8zm679.1-5.7l-15.2 6.6c7.7 18.1 13.8 37 18.3 56.5l16.3-3.5c-4.8-20.6-11.3-40.5-19.4-59.6zm-297.4-101.6l20 140.7 106.1-79.5c-35.2-32-78.8-53.4-126.1-61.2zm-81.8 0c-47.4 7.8-91 29.2-126.2 61.2l106.1 79.5zm-263.4 38.8c-12.2 18.1-22.9 37.3-31.8 57.5l15.3 6.4c8.4-19.1 18.5-37.3 30.1-54.4zm611 3.7l-13.7 9.4c9.5 14.4 18 29.6 25.4 45.4l15.2-6.7c-7.8-16.7-16.8-32.8-26.9-48.1zm-43-53.5l-11.7 11.7c12.4 12.9 23.9 26.7 34.3 41.4l13.7-9.4c-10.9-15.5-23.1-30.1-36.3-43.7zm-527.4 0c-12.2 12.6-23.5 25.9-33.7 40.1l13.6 9.5c9.7-13.4 20.3-26 31.8-37.9zm56.2-47.3c-17 11.7-33 24.7-47.8 38.9l11.8 11.7c14-13.4 29.1-25.8 45.2-36.8zm422.6 5.3l-9.5 13.6c13.4 9.7 26.1 20.3 38 31.7l11.7-11.7c-12.6-12.1-26-23.4-40.2-33.6zm-61-35.6l-6.7 15.1c16.9 7.8 33.1 16.9 48.4 27.3l9.5-13.6c-16.2-10.9-33.3-20.6-51.2-28.8zm-300.1-3.7c-18 7.8-35.3 17-51.6 27.5l9.2 13.8c15.4-9.9 31.7-18.6 48.7-26zm226.6-21.2l-3.4 16.2c20.5 4.6 40.4 11 59.4 19l6.7-15.2c-20.1-8.4-41-15.2-62.7-20zm-158.2-0.6c-19.8 4.2-38.9 10-57.4 17.3l6.4 15.3c17.4-6.9 35.6-12.4 54.2-16.4zm101.3-7.5l2.4 16.8 2.8 0.2q18.7 1.5 36.7 4.9l3.4-16.2c-14.8-2.8-29.9-4.7-45.3-5.7zm-47.1 0c-14.4 0.9-28.6 2.7-42.5 5.2l3.3 16.2q18.1-3.2 36.8-4.6z"/>
					</g>
				</g>
			</g>
		</g>
	</g>
</svg>