<svg version="1.2" xmlns="http://www.w3.org/2000/svg" viewBox="0 0 1634 1636" width="1634" height="1636">
	<title>SDF</title>
	<defs>
		<clipPath clipPathUnits="userSpaceOnUse" id="cp1">
			<path d="m-5678.46-42.03h7312.46v2521.54h-7312.46z"/>
		</clipPath>
		<radialGradient id="g1" cx="81431.5" cy="60266.7" r="87192.3" gradientUnits="userSpaceOnUse">
			<stop offset="0" stop-color="#ffffff"/>
			<stop offset="1" stop-color="#ffffff"/>
		</radialGradient>
	</defs>
	<style>
		.s0 { fill: url(#g1) } 
	</style>
	<g id="Layer">
		<g id="Clip-Path" clip-path="url(#cp1)">
			<g id="Layer">
				<g id="Layer">
					<path id="Layer" fill-rule="evenodd" class="s0" d="m826.1 1121.1c-4.8 4.9-13.5 4.9-18.4 0l-294.8-294.8c-4.9-4.9-4.9-13.6 0-18.4l294.8-293.9c4.9-4.8 13.6-4.8 18.4 0l293.9 294.8c4.8 4.9 4.8 13.6 0 18.5zm-15.5 230.8c5.8 5.8 9.7 5.8 16.5-1l170.7-170.7 160.9 161-247.3 247.3c-63 62.1-113.4 62.1-175.5 0l-251.2-253.1c84.4-85.4 39.8-40.7 155.2-154.2zm-528.6-553.8c-5.8 5.8-5.8 9.7 1 16.5l181.4 179.4-161 161-256.1-256c-62-63.1-62-113.5 0-175.6l247.3-245.3c84.4 84.4 40.8 38.8 154.2 154.2zm542.2-516c-5.8-5.8-9.7-5.8-16.5 1l-172.6 172.6-162-160 249.2-249.2c63.1-62.1 113.5-62.1 175.6 0l251.2 253.1c-84.4 85.3-39.8 40.7-155.2 154.2zm526.6 556.7c5.8-5.8 5.8-9.7-1-16.5l-179.4-179.4 161-161 256 256c62.1 63 62.1 113.5 0 175.5l-248.2 246.4c-85.4-84.4-41.7-41.7-155.2-155.2z"/>
				</g>
			</g>
		</g>
	</g>
</svg>