<?xml version="1.0" encoding="UTF-8" ?>
<!DOCTYPE svg PUBLIC "-//W3C//DTD SVG 1.1//EN" "http://www.w3.org/Graphics/SVG/1.1/DTD/svg11.dtd">
<svg width="400pt" height="400pt" viewBox="0 0 400 400" version="1.1" xmlns="http://www.w3.org/2000/svg">
<g id="#5e9e72ff">
<path fill="#5e9e72" opacity="1.00" d=" M 180.65 43.71 C 185.85 43.60 191.06 43.58 196.26 43.73 C 196.54 50.27 196.16 56.81 196.42 63.34 L 196.90 64.28 C 201.47 64.59 206.07 64.38 210.65 64.52 C 210.82 57.60 210.55 50.67 210.80 43.74 C 216.00 43.57 221.20 43.62 226.40 43.69 C 226.62 51.25 226.45 58.82 226.49 66.38 C 229.33 67.18 232.22 67.86 235.10 68.53 C 265.27 75.87 292.73 93.86 311.53 118.57 C 325.75 136.96 334.93 159.11 338.12 182.13 C 340.36 191.58 339.77 201.37 339.48 210.99 C 337.71 220.45 336.61 230.08 333.61 239.27 C 321.11 281.58 286.46 316.31 244.49 329.63 C 238.64 331.71 232.49 332.74 226.53 334.44 C 226.39 342.20 226.68 349.96 226.38 357.72 C 221.16 357.69 215.94 357.85 210.72 357.58 C 210.64 350.51 210.77 343.43 210.67 336.36 C 205.92 336.44 201.16 336.49 196.41 336.50 C 196.27 343.52 196.41 350.55 196.34 357.58 C 191.09 357.82 185.82 357.78 180.57 357.61 C 180.44 350.35 180.69 343.07 180.49 335.81 C 180.10 335.54 179.33 335.01 178.95 334.74 C 143.31 329.25 110.24 309.14 89.03 279.99 C 76.61 263.18 68.22 243.42 64.78 222.81 C 62.53 211.34 63.25 199.57 63.45 187.96 C 66.26 157.76 79.57 128.51 100.90 106.88 C 117.13 89.71 138.02 77.03 160.65 70.31 C 167.13 67.99 174.06 67.50 180.59 65.39 C 180.56 58.17 180.43 50.94 180.65 43.71 M 135.95 97.77 C 101.30 118.81 78.09 158.26 78.39 199.00 C 77.24 238.69 98.23 277.95 131.17 299.89 C 137.35 292.72 142.48 284.70 148.32 277.24 C 163.83 256.46 179.26 235.60 194.79 214.84 C 195.44 213.91 195.66 212.79 196.02 211.74 C 184.48 207.13 172.71 203.11 161.23 198.38 C 199.01 168.52 236.74 138.59 274.52 108.73 C 275.30 108.17 276.09 107.63 276.89 107.09 C 275.40 109.52 273.82 111.89 272.07 114.14 C 251.54 140.60 231.10 167.14 210.60 193.62 C 209.76 194.56 209.66 195.83 209.51 197.02 C 221.06 201.11 232.43 205.67 243.92 209.93 C 211.42 236.47 178.87 262.94 146.31 289.42 C 141.71 293.12 136.94 296.66 132.87 300.96 C 159.17 318.62 192.61 325.22 223.69 319.33 C 251.31 314.39 277.16 299.69 295.25 278.20 C 311.13 259.73 321.17 236.29 323.45 212.03 C 323.81 200.62 324.29 189.04 321.85 177.80 C 317.28 153.84 305.18 131.34 287.53 114.48 C 273.89 100.93 256.88 90.81 238.51 85.15 C 204.62 74.37 166.18 78.99 135.95 97.77 Z" />
</g>
</svg>
