<svg version="1.2" xmlns="http://www.w3.org/2000/svg" viewBox="0 0 1601 305" width="1601" height="305">
	<title>logo (66)-svg</title>
	<defs>
		<clipPath clipPathUnits="userSpaceOnUse" id="cp1">
			<path d="m1 9.31h168.7v232.22h-168.7z"/>
		</clipPath>
	</defs>
	<style>
		.s0 { fill: #3d60ac } 
	</style>
	<g id="Layer">
		<g id="Clip-Path" clip-path="url(#cp1)">
			<path id="Layer" fill-rule="evenodd" class="s0" d="m130.5 180.2q0-14.9-10.5-23-10.5-8-37.8-16.3-27.2-8.2-43.4-18.3-30.8-19.4-30.8-50.6 0-27.3 22.2-45 22.3-17.7 57.8-17.7 23.6 0 42 8.7 18.5 8.7 29 24.8 10.5 16 10.5 35.6h-39q0-17.7-11.1-27.7-11.1-10-31.7-10-19.2 0-29.9 8.2-10.6 8.2-10.6 23 0 12.4 11.5 20.7 11.5 8.3 37.8 16.1 26.4 7.9 42.3 17.9 16 10 23.5 23 7.4 12.9 7.4 30.3 0 28.3-21.6 44.9-21.7 16.7-58.7 16.7-24.5 0-45.1-9-20.5-9.1-31.9-25.1-11.4-16-11.4-37.3h39.2q0 19.3 12.7 29.8 12.8 10.6 36.5 10.6 20.4 0 30.8-8.3 10.3-8.3 10.3-22z"/>
		</g>
		<path id="Layer" fill-rule="evenodd" class="s0" d="m274.4 241.5q-35.9 0-58.1-22.6-22.3-22.5-22.3-60.1v-4.7q0-25.1 9.7-44.9 9.7-19.8 27.2-30.8 17.6-11 39.1-11 34.3 0 53 21.9 18.7 21.8 18.7 61.9v15.2h-109.7q1.7 20.8 13.9 32.9 12.2 12.1 30.6 12.1 25.9 0 42.2-20.9l20.3 19.4q-10.1 15-26.9 23.3-16.8 8.3-37.7 8.3zm-4.5-143.9q-15.5 0-25.1 10.9-9.5 10.9-12.1 30.3h71.7v-2.8q-1.2-19-10-28.7-8.9-9.7-24.5-9.7zm201.2 140.8q-2.4-4.8-4.3-15.7-18 18.8-44 18.8-25.3 0-41.3-14.4-16-14.4-16-35.7 0-26.9 20-41.2 19.9-14.4 56.9-14.4h23.2v-11q0-13-7.3-20.9-7.3-7.8-22.2-7.8-12.9 0-21.1 6.4-8.2 6.5-8.2 16.4h-37.7q0-13.8 9.2-25.8 9.1-12.1 24.8-18.9 15.8-6.8 35.2-6.8 29.4 0 46.9 14.8 17.6 14.8 18 41.7v75.7q0 22.7 6.4 36.2v2.6zm-41.4-27.1q11.1 0 21-5.5 9.8-5.4 14.8-14.6v-31.6h-20.3q-20.9 0-31.5 7.3-10.5 7.3-10.5 20.6 0 10.9 7.2 17.3 7.2 6.5 19.3 6.5zm288.9-46.5q-3.5 36.2-26.7 56.5-23.3 20.2-61.9 20.2-27 0-47.5-12.8-20.6-12.8-31.7-36.4-11.2-23.6-11.6-54.8v-21.1q0-32 11.3-56.3 11.3-24.4 32.5-37.6 21.1-13.2 48.9-13.2 37.3 0 60.1 20.3 22.8 20.2 26.6 57.3h-39.1q-2.8-24.3-14.2-35.1-11.4-10.8-33.4-10.8-25.6 0-39.3 18.7-13.7 18.7-14.1 54.9v20.1q0 36.6 13.1 55.9 13.1 19.3 38.4 19.3 23.1 0 34.7-10.4 11.7-10.4 14.8-34.7zm68.5-76q18.5-21.4 46.7-21.4 53.6 0 54.4 61.3v109.7h-37.7v-108.3q0-17.4-7.5-24.6-7.5-7.2-22.1-7.2-22.6 0-33.8 20.1v120h-37.7v-238.4h37.7zm239.4 149.6q-2.5-4.8-4.3-15.6-18 18.7-44.1 18.7-25.2 0-41.2-14.4-16-14.4-16-35.7 0-26.8 20-41.2 19.9-14.4 56.9-14.4h23.1v-11q0-13-7.2-20.9-7.3-7.8-22.2-7.8-12.9 0-21.1 6.4-8.2 6.5-8.2 16.4h-37.7q0-13.8 9.1-25.8 9.2-12.1 24.9-18.9 15.8-6.8 35.2-6.8 29.4 0 46.9 14.8 17.6 14.8 18 41.7v75.7q0 22.7 6.4 36.2v2.6zm-41.4-27.1q11.1 0 21-5.5 9.8-5.4 14.8-14.5v-31.7h-20.3q-20.9 0-31.5 7.3-10.5 7.3-10.5 20.6 0 10.9 7.2 17.3 7.2 6.5 19.3 6.5zm147.9-140.8l1.1 19.4q18.6-22.5 48.8-22.5 52.4 0 53.4 60.1v110.9h-37.7v-108.8q0-16-6.9-23.6-6.9-7.7-22.6-7.7-22.8 0-33.9 20.6v119.5h-37.7v-167.9zm135 82.7q0-39.1 18.4-62.5 18.4-23.3 48.8-23.3 28.7 0 45.1 20l1.7-16.9h34v162.8q0 33.1-20.6 52.2-20.5 19.1-55.4 19.1-18.5 0-36.1-7.7-17.6-7.7-26.7-20.1l17.8-22.7q17.4 20.7 42.8 20.7 18.8 0 29.6-10.2 10.9-10.2 10.9-29.9v-11.3q-16.3 18.1-43.4 18.1-29.5 0-48.2-23.4-18.7-23.4-18.7-64.9zm37.6 3.3q0 25.3 10.3 39.8 10.3 14.5 28.6 14.5 22.8 0 33.8-19.6v-73.8q-10.7-19.1-33.5-19.1-18.6 0-28.9 14.7-10.3 14.8-10.3 43.5zm225.3 85.1q-36.7 0-59.5-23.1-22.8-23.2-22.8-61.7v-4.8q0-25.8 9.9-46.1 9.9-20.3 27.9-31.6 18-11.3 40.1-11.3 35.1 0 54.3 22.4 19.2 22.5 19.2 63.6v15.6h-112.5q1.8 21.3 14.3 33.7 12.4 12.4 31.4 12.4 26.5 0 43.2-21.5l20.9 19.9q-10.4 15.5-27.6 24-17.3 8.5-38.8 8.5zm-4.6-147.6q-15.9 0-25.7 11.2-9.7 11.1-12.4 31h73.6v-2.8q-1.3-19.5-10.3-29.4-9.1-10-25.2-10zm32.5-71.1q0-6 2.8-11 2.7-5.1 7.6-8.1 4.8-2.9 10.5-2.9 5.6 0 10.5 2.9 4.8 3 7.5 8.1 2.8 5 2.8 11 0 5.8-2.7 10.8-2.6 5.1-7.5 8.1-4.8 3.1-10.6 3.1-5.8 0-10.7-3-4.8-3.1-7.5-8.1-2.7-5.1-2.7-10.9zm3.4 0q0 5 2.4 9.3 2.3 4.3 6.3 6.7 4.1 2.5 8.8 2.5 4.7 0 8.8-2.5 4-2.5 6.3-6.7 2.3-4.3 2.3-9.3 0-5.1-2.3-9.3-2.3-4.2-6.3-6.7-4.1-2.5-8.8-2.4-4.7 0-8.8 2.4-4 2.4-6.4 6.7-2.3 4.3-2.3 9.3zm13.2 2.2v9.9h-4.2v-24.9h8.1q4.5 0 7 1.9 2.5 1.9 2.5 5.6 0 3.6-3.8 5.5 3.6 1.5 3.6 6v1.8q0 2.5 0.5 3.6v0.5h-4.2q-0.4-1.1-0.4-3.8 0-2.7-0.1-3.2-0.5-2.8-3.9-2.9zm0-3.8h4.6q2.1 0 3.4-1 1.3-1 1.3-2.6 0-2.1-1.1-3-1.2-0.9-4.1-0.9h-4.1z"/>
	</g>
</svg>