<svg version="1.2" xmlns="http://www.w3.org/2000/svg" viewBox="0 0 1283 1540" width="1283" height="1540">
	<title>Screenshot 2022-06-28 at 00-svg</title>
	<style>
		.s0 { fill: #5cc8a5 } 
	</style>
	<g id="#5cc8a5ff">
		<path id="Layer" class="s0" d="m267.3 124c47.3-79.3 140.4-127.9 232.4-123.7 194.1 0.4 388.1 0.1 582.2 0.2 67 0.2 134.1-2.5 200.8 3.6-11.6 65.7-21.8 131.6-35 196.9-15.5 82.1-91.3 149.3-175.5 151.2-146.6 1.9-293.4-1.6-440.2 1.6-14.9 78.3-33.9 156.1-38.9 235.8 104.7 11.3 210.3 0.8 315.3 6 107.1 8.6 201.6 97.6 218 203.6 8.5 57.8-5.5 115.4-16.4 171.9-21.7 118.1-41.7 236.6-62.5 354.8-21.2 121.7-137.2 216.5-260.9 213.3-262.2-1.6-524.5 3-786.6-2.5 3.2-54.5 16.8-107.5 25.9-161.2 6.3-35.6 12.5-72.7 32.9-103.4 35-55 100.9-85.8 165.3-85.1 141.2-0.3 282.5 0.8 423.7-0.4 19-76.8 29.8-155.2 44.1-232.9-110-20.2-222.6-0.7-333.4-11.2-130.2-18-231.4-154.9-204.2-284.4 22.8-124 44.2-248.2 66.4-372.2 9.7-55.2 15.8-113.5 46.6-161.9z"/>
	</g>
</svg>