<svg version="1.2" xmlns="http://www.w3.org/2000/svg" viewBox="0 0 1096 1587" width="1096" height="1587">
	<title>sightsciences-logo-1-svg</title>
	<style>
		.s0 { fill: #133157 } 
	</style>
	<g id="Layer">
		<path id="Layer" fill-rule="evenodd" class="s0" d="m661.3 4.8c94.6 11.6 198.4 45.9 268.4 89.4c48.7 29.9 111 91.8 133.7 132.8c30.4 55.1 32.3 69.6 32.3 249.7v161.4l-33.3-33.8c-77.7-77.3-202.7-142-333.5-172.5c-119.7-28-296.8-16.9-395.3 24.2c-36.2 15.4-87.3 45.4-87.3 51.2c0 6.7 41.5 26.5 83 40.5c55 18.4 113.9 26.6 228.3 31.4c70.4 3.4 123.5 8.3 157.3 14.5c181.5 35.8 315.2 126.6 365.4 248.8c13 32.4 19.3 99 13.5 140.5l-3.9 22.8l-20.7-42.6c-34.8-71.4-92.7-126.5-177.6-169.5c-94.6-47.3-178.6-66.7-319.5-73.9c-122.2-6.3-169.9-12.1-236.5-29c-167.5-42.5-290.6-140.1-325.3-258.4c-14.5-48.8-12.6-118.8 4.3-164.2c31.9-83.6 103.8-154.6 205.1-202.9c60.4-28.5 127-46.4 229.3-61.8c27-4.4 174.2-2.9 212.3 1.4zm-345 169.6c-122.2 41-205.2 115.4-205.2 184c0 22.2 10.7 57 16.9 57c2 0 13.5-8.7 25.6-19.8c136.1-119.8 450.3-156 681-78.7c54.6 18.3 79.7 30.9 120.2 60.8l25.1 18.9v-26.6c0-56.5-30.9-117.4-74.3-147.3c-44.4-30.5-143.9-63.3-228.3-74.9c-137.1-18.8-249.1-10.6-361 26.6zm-310.4 407.6l18.4 38.7c52.1 108.2 160.7 184.5 321.4 225.1c53.6 13.5 100.4 18.8 250.5 28.5c120.7 7.7 214.8 30.9 298.7 72.9c71.5 36.2 119.3 76.3 156.4 131.9c33.8 50.2 42 80.2 42 150.2c0 70-8.2 100-42 150.2c-65.6 98.5-188.2 167.6-352.8 198.5c-33.8 6.3-70.5 8.2-150.6 8.7c-91.7 0-113.4-1.4-160.7-11.1c-172.3-34.8-300.2-113-355.2-217.8c-29.9-57.5-31.9-71-31.9-249.3v-159.8l37.7 36.7c61.8 60.8 153 113.5 253.4 147.3c106.1 35.2 193.5 46.4 300.2 36.7c104.7-9.7 168.4-28.5 233.1-69.1l31.4-19.8l-31.4-15.9c-72.9-36.7-135.2-48.8-279-55.1c-114.9-4.8-167-12.1-238.9-34.3c-148.6-45.9-251.9-128.5-292-234.7c-12.1-31.4-17.9-97.1-12.1-134.8zm960.5 591.7c-1.9 0.5-14 10.2-27.5 22.2c-50.2 45.4-154.5 86.5-270.3 106.8c-65.1 11.1-202.2 11.1-276.1-0.5c-114.4-17.4-212.8-54.6-257.7-97.6c-6.8-6.3-13.5-11.6-15.4-11.6c-5.8 0-3.4 40.6 3.8 70.1c18.8 72.9 79.7 124.1 188.3 158.4c63.2 19.8 111 25.1 229.2 25.1c85.9 0 117.3-1.9 149.6-8.7c142.4-29.9 248.1-90.3 285.3-163.2c13-25.6 14-63.3 2.4-85.5c-4.4-8.2-9.7-15.5-11.6-15.5z" />
	</g>
</svg>