<svg version="1.2" baseProfile="tiny-ps" xmlns="http://www.w3.org/2000/svg" viewBox="0 0 1520 1095" width="1520" height="1095">
	<title>SigmaTron-pdf-svg copy-svg-pdf-svg</title>
	<defs>
		<clipPath clipPathUnits="userSpaceOnUse" id="cp1">
			<path d="m-1-4.92h1523.92v1103.84h-1523.92v-1103.84z" />
		</clipPath>
	</defs>
	<style>
		tspan { white-space:pre }
		.s0 { fill: #ffffff } 
	</style>
	<g id="Clip-Path: Page 1" clip-path="url(#cp1)">
		<g id="Page 1">
			<path id="Path 1" class="s0" d="m979.56 746.45c10.57-72.13-11.09-105.83-320.55-99.29c-237.87 4.79-403.75 5.37-514.69-6.95l373.62-281.16c44.72 3.85 104.22 4.03 182.99 1.17c639.46-24 709.94-3.5 631.58 386.23c-42.62 212.24-37.66 285.19-263.39 317.37c-97.33 13.78-308.17 30.49-477.03 30.49h-591.29l64.75-277.48h568.64c333.63 0 335.55-1.58 345.54-70.38h-0.18h0zm539.44-745.94l-37.66 269.42h-774.4c-24.99 0-47.82-0.58-68.78-1.34l356.52-268.08h524.32v0z" />
		</g>
	</g>
</svg>