<svg version="1.2" xmlns="http://www.w3.org/2000/svg" viewBox="0 0 1520 373" width="1520" height="373">
	<title>SEGRO-svg</title>
	<defs>
		<clipPath clipPathUnits="userSpaceOnUse" id="cp1">
			<path d="m-0.26 0.72h1520.06v519.24h-1520.06z"/>
		</clipPath>
		<clipPath clipPathUnits="userSpaceOnUse" id="cp2">
			<path d="m-0.26 0.72h1520.06v519.24h-1520.06z"/>
		</clipPath>
	</defs>
	<style>
		.s0 { fill: #cc171e } 
		.s1 { fill: #ffffff } 
	</style>
	<g id="Clip-Path" clip-path="url(#cp1)">
		<path id="Layer" fill-rule="evenodd" class="s0" d="m1334 372c-102.8 0-185.8-83-185.8-185.6 0-102.7 83-185.7 185.8-185.7 102.7 0 185.8 83 185.8 185.7 0 102.6-83.1 185.6-185.8 185.6zm116.9-185.6c0-64.6-52.3-116.8-116.9-116.8-64.7 0-116.9 52.2-116.9 116.8 0 64.5 52.2 116.7 116.9 116.7 64.6 0 116.9-52.2 116.9-116.7z"/>
	</g>
	<g id="Clip-Path" clip-path="url(#cp2)">
		<path id="Layer" fill-rule="evenodd" class="s1" d="m1064.9 195.4l103.2 167.7h-73.6l-93.7-153.7c-20.5 2-24.1 2-54.1 2v151.7h-65.2v-353.5h116.3c16 0 32.5 0.5 49.6 4.5 53.6 13.1 73.6 55.6 73.6 92.2 0 56.5-40.6 80.1-56.1 89.1zm-118.2-137.7v109.7h28c9.1 0 21.5-1.1 33.1-3.1 31.5-6 46.6-28.6 46.6-54.1 0-38.5-29.6-52.5-63.1-52.5zm-946.6 294.1v-61c28 19 60.6 32.5 94.7 32.5 49.6 0 68.6-30.5 68.6-54.6 0-35-30.6-47-55.1-57l-22.6-9c-21-9.6-44.6-20.1-62.1-40.6-9-10.5-21.5-30.1-21.5-58.6 0-53.1 44-102.6 125.7-102.6 44.6 0 75.7 13.5 87.2 18.5v59.6c-11.5-9-39.1-30.1-83.2-30.1-45 0-61.6 27.1-61.6 49.1 0 32 32.1 46.1 58.1 56.6l25.1 10.5c20.5 9.5 43.6 20 59.6 40.6 11 13.5 20.1 34 20.1 58.5 0 59.6-50.2 107.7-133.3 107.7-22.6 0-58.2-3.5-99.7-20.1zm500.6-39.2l-29.1 50.5h-201.4v-353.5h207.4v50.1h-141.8v94.2h122.3v50h-122.3v108.7zm336.3-134l-3 160.2c-42.7 21.6-89.9 33.1-137.4 33.1-117.6 0-195.8-74.6-195.8-183.8 0-103.6 78.7-187.2 205.3-187.2 38 0 72.6 7 108.8 19v61.1c-17.6-10-53.8-30.6-104.3-30.6-81.6 0-141.1 56.1-141.1 136.7 0 76.1 52 137.2 133.6 137.2 37 0 58-10.5 68.6-16l1.5-81.1h-90.6l29.5-48.6z"/>
	</g>
</svg>