<svg version="1.2" baseProfile="tiny-ps" xmlns="http://www.w3.org/2000/svg" viewBox="0 0 1676 333" width="1676" height="333">
	<title>seanergy-svg</title>
	<style>
		tspan { white-space:pre }
		.shp0 { fill: #ffffff } 
	</style>
	<path id="Layer" fill-rule="evenodd" class="shp0" d="M170.46 174.78C148.21 170.47 124.3 163.5 98.06 152.55C93.74 147.58 86.44 142.6 75.48 137.29C49.57 124.35 27.99 105.77 27.99 77.57C27.99 30.79 68.84 -0.07 126.95 -0.07C153.19 -0.07 173.78 5.57 184.41 11.55L168.8 58.33C159.5 54.35 143.56 48.71 123.63 48.71C106.36 48.71 94.74 56.34 94.74 68.61C94.74 77.57 104.04 85.53 121.97 93.83C146.55 106.1 172.45 124.68 172.45 155.87C172.45 162.51 171.79 168.81 170.46 174.78ZM89.43 184.4C112.67 193.69 134.26 200.66 154.52 204.97C136.25 224.88 105.7 235.5 69.17 235.16C40.94 234.5 13.71 227.2 0.42 217.58L16.36 171.13C28.98 177.44 53.56 186.73 75.15 186.73C80.79 186.73 85.44 185.73 89.43 184.4ZM348.14 174.45C352.45 172.79 356.44 171.13 360.42 169.14L365.07 217.25C338.84 230.52 306.29 235.16 281.38 235.16C250.83 235.16 227.25 226.87 210.98 211.94C264.78 212.94 308.61 196.68 348.14 174.45ZM189.06 177.77C185.4 166.49 183.41 153.88 183.41 139.94C183.41 71.27 233.23 -0.07 314.59 -0.07C360.42 -0.07 392.97 25.81 392.97 67.62C392.97 124.68 337.18 145.25 246.84 142.93C246.84 149.23 249.17 159.52 253.82 165.82C256.14 169.14 259.13 171.46 262.12 173.79C239.87 178.76 215.96 180.42 189.06 177.77ZM253.49 94.82C304.96 95.15 330.87 88.19 330.87 67.62L330.87 67.28C330.87 56.34 321.57 48.37 306.29 48.37C275.74 48.37 258.14 73.92 253.49 94.82ZM399.28 102.12C418.21 46.71 467.69 -0.07 551.38 -0.07C578.61 -0.07 607.18 4.91 625.44 10.88L622.45 27.14C524.81 17.85 460.72 59.99 399.28 102.12ZM603.19 128.33C597.54 157.2 592.9 201.32 593.89 229.52L533.12 229.52C533.45 216.92 534.78 201.32 535.77 185.07L534.78 185.07C513.52 222.23 484.63 234.83 458.39 234.83C417.88 234.83 390.31 203.31 390.31 156.53C390.31 153.55 390.64 150.56 390.64 147.58C397.95 142.93 405.26 137.95 412.23 132.98C432.49 119.04 452.42 105.44 473.01 93.5C464.37 109.42 459.39 127.67 459.39 144.26C459.39 166.15 468.36 181.42 486.62 181.42C506.22 181.42 531.46 158.86 541.75 103.78L548.73 63.3C569.32 58.99 591.57 57.33 616.14 59.32L603.19 128.33Z" />
	<path id="Layer" fill-rule="evenodd" class="shp0" d="M848.61 61.64C848.61 71.93 846.62 88.52 844.96 99.47L820.05 230.19L753.63 230.19L777.21 105.44C778.54 97.48 779.54 88.85 779.54 80.56C779.54 64.3 773.89 53.35 756.95 53.35C735.37 53.35 710.46 80.56 700.83 130.32L682.56 230.19L616.14 230.19L644.7 78.23C650.35 49.7 654 25.48 656.66 5.24L715.11 5.24L711.12 42.4L712.12 42.4C733.37 13.2 761.27 -0.07 790.83 -0.07C827.69 -0.07 848.95 22.49 848.61 61.64ZM923.01 142.93C923.01 149.23 925.33 159.52 929.98 165.82C938.61 177.44 953.89 183.41 973.15 183.41C997.73 183.41 1018.32 177.77 1036.25 169.14L1040.57 217.25C1014.33 230.52 981.79 235.16 956.88 235.16C892.45 235.16 859.24 198.67 859.24 139.94C859.24 71.27 909.06 -0.07 990.42 -0.07C1036.25 -0.07 1068.8 25.81 1068.8 67.62C1068.8 124.68 1013.01 145.25 923.01 142.93ZM929.32 94.82C980.79 95.15 1006.7 88.19 1006.7 67.62L1006.7 67.28C1006.7 56.34 997.73 48.37 982.45 48.37C951.57 48.37 933.97 73.92 929.32 94.82ZM1212.27 65.29C1170.42 65.29 1150.16 102.45 1141.86 146.58L1126.25 230.19L1059.17 230.19L1085.07 96.48C1091.05 62.31 1094.37 24.49 1096.7 5.24L1153.82 5.24C1153.15 20.5 1151.82 35.43 1149.83 51.69L1151.82 51.69C1167.43 21.5 1192.34 0.27 1223.23 0.27C1227.54 0.27 1231.86 0.6 1235.51 0.6L1222.56 65.29C1219.91 64.96 1216.25 64.96 1212.27 65.29ZM1447.73 15.53L1413.52 200.99C1405.55 242.46 1392.6 279.29 1366.03 300.86C1341.79 320.1 1308.91 326.07 1279.02 326.07C1248.47 326.07 1220.9 320.43 1205.29 311.81L1220.9 261.38C1233.52 268.67 1260.75 273.65 1280.02 273.65C1312.89 273.65 1337.47 259.05 1347.1 213.93L1350.75 194.69L1349.76 194.69C1332.16 217.58 1311.9 228.2 1285.33 228.2C1240.5 228.2 1213.26 191.7 1212.93 147.58C1212.6 73.59 1265.74 -0.07 1364.04 -0.07C1395.59 -0.07 1423.49 5.91 1447.73 15.53ZM1375.66 55.01C1370.68 52.35 1361.05 50.7 1351.75 50.7C1311.57 50.7 1283.01 95.49 1283.01 137.62C1283.01 160.51 1293.3 177.1 1313.56 177.1C1335.15 177.1 1356.73 152.88 1364.04 115.06L1375.66 55.01ZM1605.81 4.58L1675.55 4.58L1594.85 166.15C1564.96 225.88 1538.06 266.68 1508.17 294.89C1481.94 319.77 1450.39 330.72 1435.77 333.04L1421.16 276.64C1431.79 273.32 1446.4 268.01 1459.35 258.72C1474.63 248.1 1487.58 234.83 1496.22 219.57C1498.21 216.25 1498.21 213.6 1497.21 208.95L1453.04 4.91L1522.45 4.91L1536.4 102.79C1539.72 126.01 1542.05 142.27 1543.71 156.53L1544.7 156.53C1550.02 142.93 1555 128.33 1564.63 103.78L1605.81 4.91L1605.81 4.58Z" />
</svg>