<svg version="1.2" baseProfile="tiny-ps" xmlns="http://www.w3.org/2000/svg" viewBox="0 0 1529 1530" width="1529" height="1530">
	<title>shoals-master-logo-green-logo-black-text-svg</title>
	<style>
		tspan { white-space:pre }
		.shp0 { fill: #2dd254 } 
	</style>
	<g id="#2dd254ff">
		<path id="Layer" class="shp0" d="M675.29 172.83C673.72 105.35 708.54 39.11 763.43 0.28C812.01 35.18 845.26 91.01 850.72 150.8C857.84 214.87 832.72 280.64 786.45 325.14C772.63 324.96 758.8 325.31 745 325.1C740.23 325.96 737.41 321.43 734.35 318.75C696.96 280.14 674.33 226.84 675.29 172.83Z" />
		<path id="Layer" class="shp0" d="M386.38 285.35C356.84 229.16 356.34 159.93 381.82 102.17C440.74 106.84 496.98 138.61 531.73 186.42C571 238.79 582.77 309.73 563.88 372.23C550.76 379.47 538 387.31 524.85 394.41C465.79 380.36 413.33 339.97 386.38 285.35Z" />
		<path id="Layer" class="shp0" d="M982.84 206.67C1015.73 147.91 1078.39 108.13 1145.29 101.78C1169.67 154.29 1170.88 217.01 1148.5 270.41C1123.26 331.91 1067.23 380 1002.19 394.33C989.47 386.53 976.21 379.72 963.7 371.62C947.66 317.01 954.18 256.01 982.84 206.67Z" />
		<path id="Layer" class="shp0" d="M102.22 380.79C160.92 354.12 231.92 355.8 288.69 386.63C341.8 414.51 381.79 466.42 394.4 525.14C386.85 537.58 379.47 550.2 372.38 562.89C314.18 580.47 248.63 571.45 197.74 538.12C143.74 504.07 108.46 444.03 102.22 380.79Z" />
		<path id="Layer" class="shp0" d="M1244.66 383.85C1300.36 355.51 1368.37 355.3 1425.28 380.47C1419.83 444.5 1383.23 505.21 1328.52 539.08C1278.02 571.73 1213.43 580.01 1155.87 563.18C1148.1 550.38 1140.83 537.22 1133.1 524.39C1147.18 464.1 1188.81 410.84 1244.66 383.85Z" />
		<path id="Layer" class="shp0" d="M692.54 395.55C739.8 386.1 788.88 386.6 836.17 395.51C846.72 408.7 857.95 421.32 868.11 434.8C869.71 481.39 868.22 528.2 868.82 574.91C861.23 582.68 853.57 590.42 845.69 597.94C791.12 597.65 736.56 597.97 681.99 597.76C674.47 590.17 666.88 582.61 659.32 575.01C659.82 528.17 658.47 481.14 660 434.37C670.66 421.32 680.67 407.42 692.54 395.55Z" />
		<path id="Layer" class="shp0" d="M446.01 563.68C475.7 516.97 515.94 477.19 562.31 447.1C573.61 453.34 584.9 459.58 596.06 466.06C596.13 502.71 596.06 539.33 596.1 575.94C588.86 583.29 581.55 590.59 574.21 597.83C538.07 597.94 501.9 597.58 465.76 598.04C458.91 586.74 452.82 575.01 446.01 563.68Z" />
		<path id="Layer" class="shp0" d="M931.19 466.21C942.49 459.83 953.9 453.62 965.09 447.06C1011.78 476.83 1051.94 516.83 1081.67 563.57C1075.25 574.98 1068.8 586.39 1062.39 597.83C1026.35 597.94 990.36 597.62 954.32 597.97C946.34 590.52 938.71 582.71 931.05 574.91C931.23 538.69 930.98 502.43 931.19 466.21Z" />
		<path id="Layer" class="shp0" d="M394.94 692.73C407.2 681.08 421.03 671.13 434 660.22C480.73 660.18 527.45 660.26 574.21 660.22C581.55 667.42 588.83 674.73 596.1 682.07C596.17 737.23 595.99 792.38 596.17 847.53C589 855.05 581.59 862.36 574.21 869.67C527.38 869.67 480.58 869.67 433.75 869.67C420.78 858.62 407.27 848.24 394.33 837.16C385.56 789.6 384.57 740.08 394.94 692.73Z" />
		<path id="Layer" class="shp0" d="M659.36 682.04C666.59 674.73 673.9 667.46 681.21 660.22C736.02 660.15 790.84 660.4 845.62 660.08C853.53 667.56 861.19 675.34 868.82 683.14C868.75 737.62 868.64 792.13 868.86 846.64C861.34 854.48 853.57 862.11 845.83 869.74C791.12 869.49 736.45 869.88 681.74 869.53C674.36 861.9 666.81 854.45 659.36 846.93C659.36 791.99 659.36 737.01 659.36 682.04Z" />
		<path id="Layer" class="shp0" d="M931.05 683.14C938.61 675.37 946.27 667.71 954.04 660.18C1000.59 660.29 1047.17 660.22 1093.75 660.18C1105.91 669.99 1117.81 680.01 1130.03 689.74C1134.53 692.73 1134.1 698.87 1135.34 703.54C1141.94 747.96 1142.94 794.13 1132.46 837.87C1119.84 848.92 1106.55 859.23 1093.5 869.74C1047.06 869.67 1000.62 869.56 954.18 869.78C946.63 861.9 937.89 855.02 931.34 846.28C930.77 791.92 931.37 737.51 931.05 683.14Z" />
		<path id="Layer" class="shp0" d="M1203.81 740.61C1248.04 695.12 1312.69 669.81 1376.1 676.51C1436.4 681.43 1493.22 714.59 1528.22 763.75C1492.43 814.38 1433.66 848.14 1371.61 851.85C1309.56 856.98 1246.65 831.95 1203.67 787.14C1203.85 771.63 1203.7 756.12 1203.81 740.61Z" />
		<path id="Layer" class="shp0" d="M0 765.39C41.24 706.92 113.69 672.41 185.08 677.9C237.62 681.08 288.62 704.93 324.37 743.64C324.3 758.47 324.33 773.34 324.33 788.21C279.46 836.52 210.85 861.26 145.49 852.74C87.75 846.11 33.82 813.81 0 766.6L0 765.39Z" />
		<path id="Layer" class="shp0" d="M464.76 932.35C501.26 931.67 537.75 932.24 574.25 932.06C581.55 939.3 588.86 946.61 596.1 953.95C596.06 990.71 596.13 1027.46 596.1 1064.25C584.98 1070.57 573.82 1076.91 562.63 1083.11C515.69 1053.49 475.74 1013.2 445.87 966.46C452.11 955.06 458.56 943.79 464.76 932.35Z" />
		<path id="Layer" class="shp0" d="M682.03 932.1C736.45 932.17 790.91 931.81 845.33 932.24C854.07 938.69 860.8 947.43 868.75 954.77C868.71 1001.58 868.86 1048.39 868.68 1095.2C857.81 1108.21 847.19 1121.44 836.42 1134.52C788.84 1144.04 739.44 1143.76 691.79 1134.84C680.78 1121.83 670.09 1108.57 659.36 1095.34C659.39 1048.5 659.32 1001.62 659.36 954.73C666.95 947.21 674.51 939.65 682.03 932.1Z" />
		<path id="Layer" class="shp0" d="M931.12 954.77C939.11 947.46 945.81 938.62 954.54 932.27C990.57 931.74 1026.6 932.2 1062.64 932.06C1069.09 943.5 1075.5 954.95 1081.99 966.36C1052.16 1013.13 1012.03 1053.27 965.27 1083.11C953.83 1076.66 942.28 1070.46 931.01 1063.72C931.23 1027.39 931.05 991.1 931.12 954.77Z" />
		<path id="Layer" class="shp0" d="M185.76 1000.15C237.83 960.44 309.11 947.71 371.66 966.93C380.25 979.19 386.78 992.77 394.58 1005.57C381.57 1060.98 345.5 1110.71 296.07 1139.12C238.12 1173.67 163.49 1176.95 102.25 1149.07C108.13 1090.78 138.22 1034.88 185.76 1000.15Z" />
		<path id="Layer" class="shp0" d="M1156.62 966.86C1234.78 942.4 1325.7 970.14 1377.42 1033.56C1404.68 1066 1421.11 1106.97 1425.5 1149.07C1376.56 1171.1 1319.22 1173.99 1268.54 1156.16C1201.53 1133.28 1148.46 1074.27 1133.21 1005.04C1141.65 992.74 1147.28 978.3 1156.62 966.86Z" />
		<path id="Layer" class="shp0" d="M380.9 1256.02C406.31 1195.91 461.62 1150.14 525.13 1135.49C537.93 1143.58 552.61 1149.46 564.13 1159.19C587.19 1234.1 563.2 1320.59 505.21 1373.21C471.6 1404.12 427.73 1423.8 382.21 1427.9C357.8 1374.17 356.87 1310.03 380.9 1256.02Z" />
		<path id="Layer" class="shp0" d="M963.63 1158.05C976.35 1150.28 989.5 1143.19 1002.3 1135.52C1059.32 1148.25 1109.68 1186.68 1137.95 1237.73C1170.34 1295.24 1173.55 1368.57 1144.97 1428.18C1084.02 1421.87 1026.03 1388.61 991.85 1337.41C955.79 1285.93 946.06 1218.16 963.63 1158.05Z" />
		<path id="Layer" class="shp0" d="M676.68 1384.76C667.88 1318.98 692.18 1249.93 740.94 1204.76C756.27 1205.36 771.81 1203.69 786.99 1205.54C824.13 1241.3 847.72 1290.75 851.18 1342.3C857.45 1414.49 822.38 1487.86 763.32 1529.54C716.21 1495.85 683.59 1442.44 676.68 1384.76Z" />
	</g>
</svg>