<svg version="1.2" xmlns="http://www.w3.org/2000/svg" viewBox="0 0 1491 1379" width="1491" height="1379">
	<title>Shoprite_Logo_Small-svg</title>
	<style>
		.s0 { fill: #ffffff } 
		.s1 { fill: #d50019 } 
		.s2 { fill: none;stroke: #000000;stroke-width: 14.1 } 
	</style>
	<path id="Layer" class="s0" d="m0.5 0.2h1490v1378.5h-1490z"/>
	<g id="Layer">
		<path id="Layer" fill-rule="evenodd" class="s1" d="m604.7 173.4h64.7v128.2c-125.3 0-287.3 114-287.3 257.6 0 270.4 388.8 256.3 388.8 357.7 0 46.5-69.1 54.9-101.5 54.9-167.6 0-190.1-183.1-259.1-183.1-25.4 0-46.5 32.4-46.5 91.6 0 199.9 154.9 229.5 305.6 229.5v109.8c-64.7-4.2-101.4 4.2-166.1 0-170.5-14.1-360.6-91.5-360.6-247.8v-550.6c-1.4-250.6 373.2-235.1 462-247.8z"/>
		<path id="Layer" fill-rule="evenodd" class="s1" d="m786.3 173.4h56.4c105.6 18.3 484.5-18.3 484.5 239.4v570.3c0 159.1-180.3 237.9-340.9 237.9h-201.4v-109.8c156.4 0 318.3-115.5 318.3-276 0-270.3-391.5-219.6-391.5-340.7 0-29.6 31-53.5 73.2-53.5 107.1 0 159.2 136.5 235.2 136.5 33.8 0 64.8-40.8 64.8-91.5 0-80.2-97.2-205.6-131-174.6-30.9 29.6-133.8-14.1-167.6-8.4z"/>
	</g>
	<path id="Layer" class="s2" d="m28.6 28.4h1429.6v1322.2h-1429.6z"/>
</svg>