<svg version="1.2" xmlns="http://www.w3.org/2000/svg" viewBox="0 0 1550 1524" width="1550" height="1524">
	<title>shurgard-logo-black-svg-svg</title>
	<style>
		.s0 { fill: #161313 } 
		.s1 { fill: #d1003c } 
	</style>
	<path id="Layer" class="s0" d="m1509.4 1523.6h-350.9c-18.2 0-32.7-11.3-38.6-28-3.2-10-65.8-202.2-119-365.7h30.2c22.4 0 40.2-18.3 40.2-41v-527.9c0-22.7-17.8-41-40.2-41h-512.7c-22.1 0-39.9 18.3-39.9 41v527.9c0 22.7 17.8 41 39.9 41h30.4c-53.5 163.5-115.7 355.7-119.3 365.7-5.5 16.7-20.1 28-38.6 28h-350.6c-27.2 0-47.3-28-37.6-55 96-268.6 509.5-1427.4 514-1439.8 4.6-14 17.5-28 38-28h440.1c20.7 0 33.7 14 38.2 28 4.2 12.4 417.7 1171.2 514.4 1439.8 9.4 27-10.8 55-38 55z"/>
	<path id="Layer" class="s1" d="m548.8 592.4h451.7v464.8h-451.7z"/>
</svg>