<svg version="1.2" xmlns="http://www.w3.org/2000/svg" viewBox="0 0 1506 537" width="1506" height="537">
	<title>si-bone-svg</title>
	<style>
		.s0 { fill: #000000 } 
		.s1 { fill: #8cc63f } 
	</style>
	<path id="Layer" class="s0" d="m52.6 318.7c2.9 11.5 10.1 41.9 57.9 41.9c37.6 0 52-15.9 52-30.4c0-18.8-18.8-21.7-66.5-31.8c-26-5.8-83.9-17.3-83.9-66.5c0-24.6 18.8-60.7 95.5-60.7c50.6 0 98.3 17.3 99.8 66.5l-53.6 1.4c-2.8-11.5-5.7-31.8-47.7-31.8c-15.9 0-44.8 4.4-44.8 21.7c0 14.5 15.9 20.3 59.3 28.9c40.5 8.7 94 18.8 94 72.3c0 26.1-20.3 49.2-43.4 57.9c-23.1 8.6-49.2 10.1-62.2 10.1c-28.9 0-98.3-1.5-108.4-75.2z" />
	<path id="Layer" class="s0" d="m236.3 174.1h52v219.8h-52z" />
	<path id="Layer" class="s0" d="m310 262.3h81v39h-81z" />
	<path id="Layer" fill-rule="evenodd" class="s0" d="m516.8 174.1c36.2 0 57.9 1.4 73.8 11.5c15.9 8.7 28.9 24.6 28.9 43.4c0 18.8-13 39.1-37.6 47.7c44.8 11.6 49.2 40.5 49.2 53.5c0 21.7-14.5 46.3-42 57.9c-15.9 5.8-31.8 5.8-88.2 5.8h-89.6v-219.8zm-52.1 88.2h57.8c17.4 0 44.9-1.5 44.9-24.6c0-10.1-5.8-20.3-20.3-23.1c-7.2-1.5-14.4-1.5-52-1.5h-30.4zm0 94h49.2c11.5 0 33.2 0 41.9-2.9c18.8-5.8 21.7-18.8 21.7-26c0-30.4-33.3-30.4-69.4-30.4h-43.4z" />
	<path id="Layer" class="s0" d="m926.1 174.1h52.1l105.5 147.5h1.5v-147.5h49.1v219.8h-53.5l-105.5-143.2v143.2h-49.2v-219.8" />
	<path id="Layer" class="s0" d="m1171.9 174.1h193.8v37.6h-141.7v49.1h131.6v36.2h-131.6v59.3h146.1v37.6h-198.2v-219.8" />
	<path id="Layer" class="s1" d="m680.2 537l-1.4-5.8c4.3-1.4 102.7-33.2 88.2-138.8c-5.8-47.7-20.2-81-34.7-114.2c-17.3-39.1-31.8-76.7-31.8-131.6c1.4-101.2 117.1-144.6 118.6-146l1.4 4.3c-1.4 0-91.1 41.9-83.9 137.4c2.9 43.3 21.7 79.5 40.5 117.1c20.3 37.6 39.1 76.6 43.4 124.3c2.9 42-7.2 78.1-31.8 105.6c-23.1 27.5-59.3 43.4-98.3 44.8c-2.9 2.9-10.2 2.9-10.2 2.9z" />
	<path id="Layer" class="s0" d="m826.3 388.1c0 1.4-1.4 1.4-2.9 1.4h-1.4c-13 2.9-27.5 5.8-44.9 5.8c-4.3 0-10.1 0-14.4 0c-88.2-4.3-115.7-62.2-115.7-111.3c0-47.8 21.7-83.9 60.7-101.3c4.4 14.5 8.7 29 13 44.9c-14.4 14.4-18.8 36.1-18.8 54.9c0 24.6 7.3 39.1 13.1 47.7c7.2 10.2 21.6 21.7 43.3 26.1c4.4 1.4 11.6 1.4 17.4 1.4c13 0 27.5-2.9 41.9-11.6c15.9-10.1 29-30.3 29-63.6c0-24.6-7.3-75.2-72.4-75.2c-8.6 0-15.9 1.5-23.1 2.9c-4.3-11.6-8.7-24.6-11.6-37.6c10.2-1.4 21.7-2.9 33.3-2.9c85.3 0 127.3 50.6 127.3 114.3c0 44.8-20.3 88.2-73.8 104.1z" />
	<path id="Layer" fill-rule="evenodd" class="s0" d="m1456.8 399.6c-27.2 0-49.1-21.9-49.1-49.1c0-27.2 21.9-49.2 49.1-49.2c27.2 0 49.2 22 49.2 49.2c0 27.2-22 49.1-49.2 49.1zm0-91.1c-21.7 0-39 18.8-39 42c0 23.1 17.3 41.9 40.5 41.9c21.7 0 39-18.8 39-41.9c0-23.2-17.3-42-40.5-42zm-8.6 70.9h-8.7v-55c4.3 0 8.7-1.4 15.9-1.4q13 0 17.3 4.3c2.9 2.9 4.4 5.8 4.4 11.6c0 7.2-4.4 11.6-10.1 13c4.3 1.5 8.6 5.8 8.6 13c1.5 8.7 2.9 11.6 2.9 13h-8.7c-1.4-1.4-2.8-7.2-4.3-14.4c-1.4-7.2-4.3-10.1-11.6-10.1h-5.7zm0-30.4h5.7c7.3 0 13.1-2.9 13.1-10.1c0-4.4-2.9-10.1-13.1-10.1c-2.9 0-4.3 0-5.7 0z" />
</svg>