<svg version="1.2" baseProfile="tiny-ps" xmlns="http://www.w3.org/2000/svg" viewBox="0 0 1706 1559" width="1706" height="1559">
	<title>logo_0k5mvl_sidus-space-svg</title>
	<style>
		tspan { white-space:pre }
		.shp0 { fill: #662d91 } 
		.shp1 { fill: #ffffff } 
	</style>
	<g id="#662d91ff">
		<path id="Layer" class="shp0" d="M0.71 1.04C153.4 0.94 306.09 1.29 458.83 0.89C626.27 210.16 793.21 419.82 960.4 629.33C808.8 629.18 657.21 629.63 505.66 629.13C338.08 419.17 168.45 210.9 0.71 1.04Z" />
		<path id="Layer" class="shp0" d="M746.98 927.61C898.12 927.51 1049.32 927.66 1200.47 927.51C1368.9 1138.02 1537.48 1348.38 1705.82 1558.94C1553.03 1558.99 1400.19 1558.94 1247.35 1558.99C1080.11 1348.93 914.22 1137.72 746.98 927.61Z" />
	</g>
	<g id="#333132ff">
		<path id="Layer" class="shp1" d="M505.66 636.8C657.16 636.8 808.65 636.8 960.2 636.8C885.07 730.85 811.94 826.49 736.96 920.64C585.37 920.84 433.82 920.74 282.28 920.69C357.21 826.44 430.69 731.05 505.66 636.8Z" />
		<path id="Layer" class="shp1" d="M944.31 663.8C953.37 655.04 958.6 638.2 972.45 636.9C1122.8 636.61 1273.2 636.9 1423.55 636.8C1348.53 731.05 1275.09 826.54 1200.37 921.04C1047.98 920.69 895.48 920.69 743.04 920.74C810.64 835.46 877.05 749.28 944.31 663.8Z" />
	</g>
</svg>