<svg version="1.2" baseProfile="tiny-ps" xmlns="http://www.w3.org/2000/svg" viewBox="0 0 1323 1519" width="1323" height="1519">
	<title>SIM</title>
	<style>
		tspan { white-space:pre }
		.shp0 { fill: #ffffff } 
	</style>
	<g id="layer1">
		<path id="path2772" fill-rule="evenodd" class="shp0" d="M1260.56 472.46L833.59 472.46C841.84 417.68 817.01 381.2 780.09 356.89C743.07 330.45 692.08 320.74 646.91 320.74C585.3 320.74 484.83 336.42 484.83 417.54C493.03 521.07 701.51 544.24 908.85 601.06C1116.2 657.87 1322.78 752.78 1322.78 1018.6C1322.78 1396 970.46 1518.54 644.02 1518.54C477.72 1518.54 4.12 1459.54 0 996.94L451.56 996.94C451.56 1033.47 457.2 1065.88 467.48 1092.28C500.28 1179.56 598.95 1197.75 683.12 1197.75C757.01 1197.75 869.8 1172.4 869.8 1064.84C869.8 989.79 806.82 969.7 554.31 898.67C322.32 833.8 57.87 770.4 57.87 478.24C57.87 143.38 346.54 0 648.38 0C966.53 0 1248.23 119.41 1260.56 472.46Z" />
	</g>
</svg>