<svg version="1.2" xmlns="http://www.w3.org/2000/svg" viewBox="0 0 1520 523" width="1520" height="523">
	<title>Sixt-Logo-svg</title>
	<style>
		.s0 { fill: #ffffff } 
		.s1 { fill: #ef7c00 } 
	</style>
	<g id="Ebene_4">
		<path id="Layer" fill-rule="evenodd" class="s0" d="m1320.7 467.3c0 8.4 2.7 14.6 8.1 18.6 5.5 4 12.4 6.1 20.8 6.1q4.2 0 8.5-0.8c2.9-0.5 5.7-1.4 8.3-2.6 2.6-1.2 4.7-2.9 6.3-5.1 1.5-2.2 2.4-4.9 2.4-8.2 0-2.9-0.9-5.5-2.4-7.5q-2.4-3.1-6.4-5.3-4.1-2.1-8.8-3.6c-3.2-1-7.5-2.1-12.9-3.4-3.5-1-6.3-1.7-8.4-2.2-5.7-1.6-10.8-3.3-15.2-5q-6.6-2.7-12-6.8-1.4-1.1-2.6-2.3-1.2-1.2-2.3-2.6-1.1-1.3-2-2.8-1-1.4-1.7-3c-2.2-4.3-3.2-9.4-3.2-15.4q0-9.9 4.1-17.6 1-1.9 2.2-3.6 1.2-1.8 2.6-3.4 1.4-1.6 3-3 1.6-1.4 3.4-2.7 7-5 15.7-7.6c5.8-1.6 11.8-2.5 17.9-2.5q10.7 0 20.1 2.4 9.4 2.5 16.7 7.7c4.8 3.5 8.6 8 11.4 13.5 2.8 5.5 4.3 11.9 4.3 19.4h-27.9c-0.4-7.5-2.8-12.7-7.4-15.7-4.6-3-10.8-4.5-18.5-4.5q-8 0-13.9 3.8c-3.9 2.5-5.9 6.3-5.9 11.4q0 3.9 1.5 6.2 1.5 2.4 5.1 4.2c2.5 1.1 5.7 2.4 9.7 3.6q6 1.9 19.8 5.4c0.4 0 1.4 0.2 3 0.8 0.3 0.1 0.7 0.2 1.1 0.2q6.6 1.6 12 3.7c3.7 1.4 7.6 3.5 11.6 6.3q6 4.1 10.1 11.4c2.7 4.8 4 10.5 4 17.3 0 12.7-4.8 23-14.3 30.9-9.5 7.9-22.9 11.9-40.1 11.9q-11.2-0.1-21.2-2.8c-6.7-1.9-12.6-4.8-17.8-8.7q-1.9-1.5-3.7-3.2-1.7-1.7-3.3-3.5-1.5-1.9-2.9-4-1.3-2-2.3-4.2-4.5-9.1-4.5-21.1h27.9zm99.3-89.1h97.8v24.7h-69.1v28.6h63.4v22.7h-63.4v32.7h70.6v24.7h-99.3zm-836.7-148.4v246.5l124.2-184.5-58.2-76.3c48.6-13.4 92.8-34.2 131.3-64.3l37.6 47.5 71.2-107.6h404.6v122.1h-91v298l-313.7 0.1-80.2-119.9-83.5 119.9h-295v-81.9c-21.2 58-88.1 93.3-220.9 93.3-196.9 0-206.4-69.6-209.4-149.3h155.7c0.5 23.7 4.5 41 14.1 52.3 10 11.3 23.6 17.3 43.6 17.3 31.7 0 65.9-8.9 65.9-43.4 0-7.8-2.6-14.3-6.6-19.7-20.6-27.4-193.9-47.5-242.6-98.1-19.6-20.2-25.6-50.6-25.6-75 0-93.9 72.8-136.2 218-136.2 154.2 0 190.7 54 192.7 142.6h-149.9c-1-23.8-8.2-42.3-18.6-51-10.1-8.3-18.9-12.1-34.2-11.9-32.1 0.7-49.2 14.3-49.2 36.3 0 6.6 2 14.9 6.5 19.7 23.6 26.7 191.4 45.8 239.6 96.9 7.6 8.1 15.4 18.7 21 33.3v-99c49.7 1.9 101.6 0.3 152.6-7.7zm393.7-16.2l-57 80 131.6 192.4v-272.4z"/>
		<path id="Layer" class="s1" d="m431.1 90.9c155.7 11.5 243.4-32.6 273.5-90.5h159c-47.8 138.3-196.9 224.9-432.5 213v-122.5z"/>
	</g>
</svg>