<svg version="1.2" xmlns="http://www.w3.org/2000/svg" viewBox="0 0 1527 1262" width="1527" height="1262">
	<title>jms-logo-tagline-svg</title>
	<style>
		.s0 { fill: #00a69d } 
		.s1 { fill: #8cc33d } 
		.s2 { fill: #ab3b65 } 
		.s3 { fill: #e71324 } 
		.s4 { fill: #d6de23 } 
		.s5 { fill: #00974a } 
		.s6 { fill: #6fbb43 } 
		.s7 { fill: #b7292f } 
	</style>
	<g id="logos/jms-logo-tagline">
		<g id="Group-94">
			<path id="Fill-78" fill-rule="evenodd" class="s0" d="m808.7 594.7c-170.6-265.9 106.9-363.2 243-514.9 54.9 123.3 142.5 365.9-85.4 436.7-62.8 21.4-127.9 52.4-157.6 78.2z"/>
			<path id="Fill-80" fill-rule="evenodd" class="s1" d="m702.9 838.7c268.1-379 545.6-271.5 823.9-170-280.5 267.4-564.7 386.5-823.9 170z"/>
			<path id="Fill-82" fill-rule="evenodd" class="s2" d="m690.5 417.7c-236.1-99.7-233.1-274.7-171.3-417.5 0 0 318 80.1 171.3 417.5z"/>
			<path id="Fill-84" fill-rule="evenodd" class="s3" d="m601.3 1109c3.1 178.1-106.6 187.6-270.9 95.1-164.3-92.6-334.9-211.5-330.2-334.6 1.4-35.3 12.4-65.7 29.8-92.9 20.8-35.5 58.9-83.5 126.4-129.5 71.2-48.5 137.4-69 178.8-76.5 67.9-14 120 7.1 165 59.9 78.7 92.2 99.3 377.1 101.1 478.5z"/>
			<path id="Fill-86" fill-rule="evenodd" class="s4" d="m1004 867.1c-35.6 98.6-197.2 163-343.9 224.7-170 71.5-270.7 51.9-229.7-128.1 16.9-74.1 34.3-148.6 59.2-220.4 32.6-94.1 71.6-187.1 165.4-233.9 99.2-49.6 215.6-8.2 297.1 67.4 93.5 86.8 87.6 212.1 51.9 290.3z"/>
			<path id="Fill-88" fill-rule="evenodd" class="s5" d="m905.5 539.9c-40.7 17.6-76.8 37.4-96.8 54.8-24.9-38.9-40.3-74.1-47.9-106.4 50.3 2.8 100.5 22.1 144.7 51.6z"/>
			<path id="Fill-90" fill-rule="evenodd" class="s6" d="m1004 867.1c-10.8 29.8-33 56.4-62.9 80.8-81.1-9.8-160.8-44.5-238.2-109.2 90.1-127.4 181.4-199.9 273.3-236 68 84.4 60.1 193.7 27.8 264.4z"/>
			<path id="Fill-92" fill-rule="evenodd" class="s7" d="m601.4 1113.7c-133.7 42.5-207 8.1-170.9-150 16.8-74.1 34.2-148.7 59.1-220.4 9.6-27.6 19.7-55.1 31.6-81.4 61.4 113.6 78.5 355.3 80.1 447.1 0.1 1.6 0.1 3.2 0.1 4.7z"/>
		</g>
	</g>
</svg>