<svg version="1.2" baseProfile="tiny-ps" xmlns="http://www.w3.org/2000/svg" viewBox="0 0 1544 930" width="1544" height="930">
	<title>logo (24)-svg</title>
	<defs>
		<clipPath clipPathUnits="userSpaceOnUse" id="cp1">
			<path d="m0.64 0.64h15311.25v983.57h-15311.25v-983.57z" />
		</clipPath>
	</defs>
	<style>
		tspan { white-space:pre }
		.s0 { fill: #000000 } 
	</style>
	<g id="Clip-Path" clip-path="url(#cp1)">
		<g id="Layer">
			<path id="Layer" fill-rule="evenodd" class="s0" d="m535.29 929.04c-20.49 0-40.98-8.86-59.03-26.28l-102.16-98.38c-76.16-73.63-152.33-146.97-228.8-220.3c-49.86-47.97-86.26-96.55-111.64-149.11c-36.4-75.16-42.82-154.3-18.96-235.57c29.98-102.97 104-168.97 213.81-191.58c82.89-17.11 158.75-5.19 225.43 35.14c30.28 18.33 57.2 37.89 81.98 58.66c15.29-12.22 30.28-24.14 45.88-35.75c48.63-36.36 92.68-55.91 138.87-61.41c125.72-15.28 223.6 20.17 291.2 105.41c32.42 41.25 50.47 91.05 56.59 157.66c8.87 95.94-22.94 183.02-96.96 266.13c-35.48 40.03-74.33 77.3-111.65 113.36l-26.61 25.66c-56.89 55.3-114.4 110.61-171.9 165.61l-66.38 63.86c-18.66 18.03-39.15 26.89-59.65 26.89zm-235.22-836.88c-17.13 0-34.56 1.83-53.22 5.5c-76.47 15.89-123.57 57.44-144.07 127.72c-17.43 59.58-13.15 115.19 13.46 169.88c20.49 42.47 50.78 82.5 92.68 122.83c76.47 73.33 152.63 146.97 228.79 220.3l97.57 94.11l62.4-59.89c57.2-55 114.4-109.99 171.29-165.3l26.92-25.67c36.09-34.83 73.41-70.89 106.75-108.16c56.28-63.25 80.75-127.72 74.33-197.08c-4.59-48.58-15.91-82.19-37.01-109.08c-47.41-60.19-113.48-82.8-208-71.19c-29.67 3.67-59.95 17.42-95.13 44c-17.13 12.83-33.95 26.28-50.78 39.72l-54.75 43.08l-29.06-27.19l31.5-33.3l-32.73 32.08l-5.2-4.58c-25.69-24.75-55.06-47.05-89.62-68.14c-32.42-19.86-67.6-29.64-106.14-29.64z" />
			<path id="Layer" fill-rule="evenodd" class="s0" d="m1008.79 929.04c-20.5 0-40.99-8.86-59.04-26.28l-102.16-98.38c-76.16-73.63-152.33-146.97-228.8-220.3c-49.86-47.97-86.26-96.55-111.64-149.11c-36.4-75.16-42.52-154.3-18.96-235.57c29.97-102.97 104-168.97 213.81-191.58c82.89-17.11 158.75-5.19 225.43 35.44c30.28 18.33 57.2 37.89 81.97 58.66c15.29-12.22 30.28-24.14 45.88-35.75c48.63-36.36 92.68-55.91 138.87-61.41c125.72-15.28 223.59 20.17 291.19 105.41c32.43 41.25 50.47 91.05 56.59 157.66c8.87 95.94-22.94 183.02-96.96 266.13c-35.48 40.02-74.33 77.3-111.64 113.35l-26.61 25.67c-56.89 55.3-114.4 110.6-171.9 165.6l-66.37 63.86c-18.66 17.72-39.15 26.58-59.65 26.58zm-235.22-836.88c-17.13 0-34.57 1.83-53.22 5.81c-76.47 15.58-123.58 57.44-144.07 127.41c-17.44 59.58-12.85 115.19 13.46 169.88c20.5 42.47 50.78 82.5 92.68 122.83c76.47 73.33 152.63 146.97 228.8 220.3l97.57 94.11l62.4-59.89c57.2-55 114.4-109.99 171.29-165.3l26.92-25.97c36.09-34.83 73.41-70.88 106.75-108.16c56.28-63.25 80.75-127.72 74.33-197.08c-4.59-48.58-15.9-82.19-37.01-109.08c-47.41-60.19-113.48-82.8-208-71.19c-29.67 3.67-59.95 17.42-95.13 44c-17.43 12.83-34.26 26.28-51.39 40.03l-54.14 42.78l-28.75-26.89l31.2-33.61l-32.42 32.39l-5.51-5.19c-25.69-24.75-55.06-47.05-89.62-67.83c-32.42-19.55-67.6-29.33-106.14-29.33z" />
		</g>
	</g>
</svg>