<svg version="1.2" baseProfile="tiny-ps" xmlns="http://www.w3.org/2000/svg" viewBox="0 0 1677 316" width="1677" height="316">
	<title>SKY-Investor-Deck-May-2021-pdf-svg</title>
	<defs>
		<clipPath clipPathUnits="userSpaceOnUse" id="cp1">
			<path d="M-4728.52 0L1677 0L1677 4806.76L-4728.52 4806.76L-4728.52 0Z" />
		</clipPath>
	</defs>
	<style>
		tspan { white-space:pre }
		.shp0 { fill: #11143f } 
		.shp1 { fill: #ffffff } 
		.shp2 { fill: #74cfee } 
	</style>
	<g id="Clip-Path: Page 3" clip-path="url(#cp1)">
		<g id="Page 3">
			<path id="Path 34" class="shp0" d="M0 314.04L1677 314.04L1677 0L0 0L0 314.04Z" />
			<path id="Path 35" fill-rule="evenodd" class="shp1" d="M119.3 189.15L130.42 184.04C131.27 187.51 133.31 190.58 136.21 192.72C139.41 194.85 143.15 195.88 146.97 195.74C150.62 195.92 154.13 194.67 156.85 192.27C159.34 189.91 160.67 186.57 160.54 183.1C160.54 178.12 156.36 173.62 147.99 169.66C146.79 169.08 145.9 168.64 145.28 168.37C135.85 163.83 129.53 159.69 126.42 156C123.22 152.17 121.57 147.36 121.7 142.42C121.48 136.06 124.06 129.92 128.82 125.6C133.94 121.15 140.61 118.83 147.46 119.15C152.98 118.97 158.45 120.21 163.34 122.79C167.48 125.11 170.64 128.85 172.15 133.3L161.29 138.86C159.87 136.5 157.91 134.5 155.65 132.99C153.51 131.7 151.06 131.03 148.57 131.07C145.33 130.9 142.12 131.92 139.63 133.97C137.41 135.92 136.21 138.82 136.34 141.75C136.34 146.87 141.19 151.64 150.84 156.04L152.62 156.89C161.07 160.71 166.9 164.5 170.01 168.24C173.26 172.11 174.95 177.05 174.77 182.08C175.08 189.29 172.28 196.32 167.03 201.31C161.87 206.02 154.93 208.43 146.3 208.43C139.94 208.69 133.63 206.96 128.33 203.44C123.66 199.97 120.41 194.85 119.3 189.15ZM197.19 206.25L197.19 121.1L211.07 121.1L211.07 156.31L242.03 121.1L259.07 121.1L225.04 158.93L263.03 206.25L245.06 206.25L211.07 162.72L211.07 206.25L197.19 206.25ZM292.96 206.25L292.96 167.26L264.09 121.19L278.77 121.19L296.74 149.99C297.19 150.75 297.72 151.68 298.35 152.88C299.01 154.08 299.68 155.37 300.3 156.75C300.84 155.37 301.42 154.08 302.04 152.88C302.62 151.77 303.24 150.66 303.95 149.59L322.41 121.01L336.33 121.01L306.84 167.12L306.84 206.25L292.96 206.25ZM352.79 206.25L352.79 121.1L366.72 121.1L366.72 193.83L397.85 193.83L397.85 206.25L352.79 206.25ZM416.58 121.1L430.5 121.1L430.55 206.25L416.58 206.25L416.58 121.1ZM457.77 206.25L457.77 117.72L512.22 169.75C513.69 171.22 515.2 172.82 516.71 174.47C518.22 176.16 519.87 178.03 521.52 180.12L521.52 121.1L534.37 121.1L534.37 209.41L478.81 156.49C477.34 155.06 475.92 153.55 474.54 151.95C473.16 150.34 471.87 148.65 470.67 146.96L470.67 206.25L457.77 206.25ZM561.28 206.25L561.28 121.1L609.1 121.1L609.1 132.81L575.21 132.81L575.21 154.17L609.1 154.17L609.1 166.32L575.21 166.32L575.21 193.83L609.1 193.83L609.1 206.25L561.28 206.25ZM935.52 141.8C931.78 138.59 927.55 136.06 923.02 134.28C918.61 132.63 913.9 131.79 909.18 131.79C900.64 131.47 892.32 134.72 886.32 140.73C874.66 153.82 874.58 173.49 886.1 186.66C891.7 192.58 899.57 195.83 907.72 195.61C912.7 195.61 917.59 194.72 922.22 192.94C927.02 191.02 931.51 188.26 935.43 184.88L935.43 200.5C931.69 203.13 927.55 205.18 923.2 206.47C918.52 207.8 913.68 208.47 908.83 208.38C902.64 208.47 896.46 207.36 890.68 205.18C879.6 200.95 870.79 192.36 866.35 181.41C861.85 170.06 861.85 157.51 866.35 146.16C870.88 135.26 879.69 126.58 890.72 122.22C896.42 120.04 902.51 118.97 908.6 119.01C913.5 118.97 918.35 119.72 923.02 121.19C927.73 122.71 932.18 124.93 936.32 127.78L935.52 141.8ZM960.03 206.25L960.03 121.1L973.95 121.1L973.95 152.48L1016.12 152.48L1016.12 121.1L1030.04 121.1L1030.04 206.25L1016.12 206.25L1016.12 164.85L973.95 164.85L973.95 206.25L960.03 206.25ZM1113.54 206.25L1103.84 184.35L1069.85 184.35L1059.89 206.25L1045.26 206.25L1086.76 117.77L1128.17 206.25L1113.54 206.25ZM1075.01 172.82L1098.9 172.82L1090.09 153.42C1089.61 152.17 1089.03 150.75 1088.45 149.14C1087.96 147.5 1087.38 145.72 1086.85 143.76C1086.36 145.67 1085.87 147.36 1085.38 148.97C1084.8 150.57 1084.31 152.04 1083.78 153.42L1075.01 172.82ZM1213.4 164.14C1213.22 163.52 1213 161.69 1212.6 158.71C1212.29 156.22 1212.02 154.17 1211.8 152.53C1211.44 154.48 1211 156.44 1210.33 158.31C1209.66 160.31 1208.77 162.32 1207.88 164.23L1185.47 209.58L1163.09 163.34C1162.11 161.38 1161.27 159.56 1160.64 157.78C1159.93 156 1159.35 154.22 1158.78 152.53C1158.78 154.39 1158.6 156.26 1158.38 158.13C1158.15 160.05 1157.71 162.09 1157.26 164.23L1148.01 206.25L1135.24 206.25L1155.48 117.54L1180.79 171.31C1181.2 172.15 1181.77 173.58 1182.57 175.54C1183.37 177.54 1184.35 179.99 1185.47 182.88C1186.62 179.72 1187.91 176.6 1189.38 173.58C1189.78 172.55 1190.18 171.8 1190.36 171.26L1215.09 117.59L1235.82 206.25L1222.88 206.25L1213.4 164.14ZM1267.14 168.01L1267.14 206.25L1254.01 206.25L1254.01 121.1L1275.14 121.1C1279.77 120.97 1284.4 121.28 1288.93 122.13C1291.73 122.71 1294.31 123.82 1296.67 125.47C1299.43 127.51 1301.61 130.27 1302.99 133.43C1304.55 136.95 1305.35 140.69 1305.26 144.51C1305.35 148.34 1304.55 152.17 1302.99 155.69C1301.61 158.89 1299.43 161.65 1296.67 163.7C1294.31 165.3 1291.73 166.46 1288.93 166.99C1284.4 167.79 1279.77 168.15 1275.14 168.01L1267.14 168.01ZM1268.03 156.66L1271.58 156.66C1279.28 156.66 1284.44 155.82 1287.06 154.17C1289.64 152.48 1290.93 149.54 1290.93 145.32C1290.93 140.78 1289.56 137.62 1286.8 135.75C1284.04 133.88 1278.97 132.94 1271.58 132.94L1268.03 132.94L1268.03 156.66ZM1325.41 121.1L1339.38 121.1L1339.38 206.25L1325.41 206.25L1325.41 121.1ZM1454.41 163.83C1454.5 175.71 1449.65 187.15 1441.06 195.39C1436.7 199.53 1431.68 202.77 1426.07 205C1420.6 207.22 1414.69 208.38 1408.68 208.38C1402.63 208.38 1396.63 207.22 1391.06 204.95C1385.46 202.77 1380.43 199.48 1376.25 195.39C1371.94 191.29 1368.56 186.4 1366.2 181.01C1359.08 164.23 1363.04 144.83 1376.25 132.1C1380.43 127.96 1385.55 124.71 1391.06 122.53C1402.36 118.12 1414.91 118.12 1426.25 122.53C1431.77 124.71 1436.75 128 1441.06 132.1C1445.33 136.28 1448.76 141.22 1451.03 146.65C1453.34 152.13 1454.5 157.96 1454.41 163.83ZM1439.91 163.83C1439.91 159.6 1439.11 155.46 1437.59 151.55C1435.95 147.67 1433.68 144.16 1430.7 141.22C1427.85 138.24 1424.47 135.92 1420.65 134.32C1416.86 132.72 1412.82 131.87 1408.68 131.92C1400.27 131.87 1392.27 135.21 1386.44 141.22C1383.5 144.16 1381.19 147.63 1379.63 151.5C1378.08 155.42 1377.36 159.6 1377.36 163.83C1377.36 168.01 1378.16 172.15 1379.72 176.03C1381.23 179.85 1383.59 183.37 1386.53 186.31C1389.42 189.29 1392.84 191.65 1396.63 193.25C1400.45 194.81 1404.54 195.61 1408.68 195.61C1412.82 195.61 1416.86 194.81 1420.65 193.25C1424.47 191.6 1427.85 189.24 1430.79 186.31C1436.7 180.3 1440 172.24 1440 163.83L1439.91 163.83ZM1477.63 206.25L1477.63 117.72L1532.12 169.75C1533.54 171.22 1535.1 172.82 1536.61 174.47C1538.08 176.16 1539.73 178.03 1541.42 180.12L1541.42 121.1L1554.27 121.1L1554.27 209.41L1498.76 156.44C1497.2 155.06 1495.87 153.5 1494.49 151.95C1493.11 150.34 1491.82 148.65 1490.57 146.96L1490.57 206.25L1477.63 206.25Z" />
			<path id="Path 36" fill-rule="evenodd" class="shp2" d="M825.64 142.91L825.64 217.77L653.81 217.77L653.81 142.24L739.7 98.27L792.99 125.91L792.99 117.72L805.09 117.72L805.09 132.14L825.64 142.91ZM792.99 165.66L739.39 137.53L685.84 165.66L685.84 205.71L694.15 205.71L694.15 171.71L739.39 149.1L785.08 172.29L785.08 205.62L792.99 205.62L792.99 165.66ZM813.55 149.1L739.7 112.65L665.46 149.1L665.46 205.62L674.14 205.62L674.14 158.04L739.39 124L805.09 158.04L805.09 205.62L813.55 205.62L813.55 149.1ZM773.38 178.74L739.66 162.45L705.72 178.74L705.72 205.62L773.42 205.62L773.38 178.74Z" />
		</g>
	</g>
</svg>