<svg version="1.2" xmlns="http://www.w3.org/2000/svg" viewBox="0 0 1517 570" width="1517" height="570">
	<title>Q1-030223-InvestorUpdate-253PM-3-pdf-svg</title>
	<defs>
		<clipPath clipPathUnits="userSpaceOnUse" id="cp1">
			<path d="m-8792.74-186.31h10576.14v8174.07h-10576.14z"/>
		</clipPath>
	</defs>
	<style>
		.s0 { fill: #ffffff } 
	</style>
	<g id="Clip-Path: Page 1" clip-path="url(#cp1)">
		<g id="Page 1">
			<path id="Path 19" fill-rule="evenodd" class="s0" d="m247.1 561.6v-50q0-1.4-0.7-2.7-0.7-0.7-2.7-0.7v-1.3h12.7v1.3q-1.3 0-2 0.7-0.7 1.3-0.7 2.7v50q0 2 0.7 2.7 0.7 0.7 2 1.4v1.3h-12.7v-1.3q2-0.7 2.7-1.4 0.7-0.7 0.7-2.7zm50-47.4v47.4q0 2 0.7 2.7 0.7 0.7 2 1.4v1.3h-12v-1.3q2-0.7 2.7-1.4 0-0.7 0-2.7c0-0.8 0-51.8 0-52.7q-0.7-0.7-2.7-0.7v-1.3h17.3v1.3q-2 0.7-2 2 0 0.7 2 3.4l36.8 42v-44q0-1.4-0.7-2.7-0.7-0.7-2.7-0.7v-1.3h12v1.3q-1.3 0-2 0.7-0.6 1.3-0.6 2.7v50q0 2 0.6 2.7 0.7 0.7 2 1.4v1.3h-14v-1.3q2-0.7 2-2.1 0-0.6-1.3-3.3zm148.2-2l-6.7 10.7-1.3-0.7q0.7-1.3 0.7-2 0-2-6-4.7-7.4-4-16.7-4-12.7 0-20.1 7.4-8 6.7-8 18 0 10.7 8 18 8.1 7.4 19.4 7.4 11.4 0 20-6.7 4-3.3 4-4 0-0.7-0.6-2.7l0.6-0.6 8.1 9.3-1.4 1.4q-0.7-1.4-2-1.4 0 0-1.3 1.4-4 2.6-6.7 4-2.7 2-6 2.6-6.7 2.7-14.7 2.7-14.7 0-24.7-8.7-10-8.7-10-22.7 0-10.7 6.7-18.7 9.3-12.7 29.3-12.7 12.7 0 24.7 6.7 0.7 0.7 1.4 0.7 0.6 0 2-1.4zm62.7-6.6q16.1 0 26.1 8.6 5.3 4.7 8 11.4 2 5.3 2 12 0 8-4.7 16-5.3 8.1-14.7 12.1-7.3 2.6-16.7 2.6-15.3 0-25.3-8.6-5.4-4.7-8-11.4-2.7-5.3-2.7-11.4 0-9.3 5.3-16.6 5.4-8.1 14.7-12.1 6.7-2.6 16-2.6zm0 6q-13.3 0-21.3 8-7.4 6.7-7.4 17.3 0 10.7 7.4 17.4 8 8 21.3 8 14.1 0 22.1-8 7.3-6.7 7.3-17.4 0-10.6-7.3-17.3-4.7-4-9.4-6-5.3-2-12.7-2zm76.2 28v22.1q0 2 0.6 2.6 0 0.7 2 1.4v1.3h-12.7v-1.3q2-0.7 2-1.4 0.7-0.6 0.7-2.6v-49.5q0-2-0.7-2.6 0-0.7-2-1.4v-1.3h33.4q6.7 0 10.7 0.7 4 0.6 6.7 2.6 3.3 1.4 4.7 4.7 2 4 2 8.7 0 6.7-4 11.3-4.7 4-12.7 4.7l15.3 24.1q1.4 2 4 2v1.3h-14v-1.3q2-0.7 2-1.4 0-0.6-1.3-2.6l-14-22.1zm0-5.3h24.7q4.6 0 7.3-0.7 2.7 0 4.7-1.3 4.7-2.7 4.7-8.7 0-6.7-4.7-9.4-2.7-0.6-4.7-1.3-2.7-0.7-8-0.7h-24zm87.4 6v22.8q0 1.3 0.7 2 0.7 0.6 2.7 0.6v2h-12.7v-2q1.3 0 2-0.6 0.7-0.7 0.7-2v-51.5q0-1.3-0.7-2-0.7-0.6-2-1.3v-1.3h31.4q6.6 0 10.6 0.6 3.4 0.7 6.7 2.7 2.7 2 4.7 5.3 2 3.4 2 8.1 0 6-3.3 10.6-3.4 3.4-8.1 4.7-4 1.3-12.6 1.3zm0-6c3.5 0 28.7 0 30 0q2.7-0.6 4.7-2 4.7-2 4.7-8.6 0-6.1-4.7-8.7-2-1.4-4.7-1.4-2-0.6-7.3-0.6h-22.7zm108.1-28.7q16.1 0 26.1 8.6 5.3 4.7 8 11.4 2 5.3 2 12 0 8-4.7 16-5.3 8-14.7 12.1-7.3 2.6-16.7 2.6-15.3 0-25.3-8.7-5.4-4.6-8.1-11.3-2.6-5.4-2.6-11.4 0-8.6 5.3-16.7 5.4-8 14.7-12 6.7-2.6 16-2.6zm0 6q-13.3 0-21.3 8-7.4 6.7-7.4 17.3 0 10.7 7.4 17.4 8 8 21.3 8 14 0 22.1-8 6.6-6.7 6.6-17.4 0-10.6-6.6-17.3-4.7-4-9.4-6-5.3-2-12.7-2zm76.1 28.7c0 1.3 0 23.6 0 24q0.7 0.7 2.7 1.4v1.3h-12.7v-1.3q2-0.7 2-1.4 0.7-0.6 0.7-2.7v-49.4q0-2-0.7-2.6 0-0.7-2-1.4v-1.3h33.4q6.7 0 10.7 0.7 4 0.6 6.7 2.6 2.6 2 4.6 4.7 2 4 2 8.7 0 6.7-4 11.3-4.6 4-12.6 4.7l15.3 24.1q1.3 2 4 2v1.3h-14v-1.3q2-0.7 2-1.4 0 0-1.3-2.7l-14.1-21.3zm0-6h24.7q4.7 0 7.4-0.7 2.7 0 4.7-1.3 4.6-2.7 4.6-8.7 0-6.7-4.6-9.4-2.7-0.6-4.7-1.3-2.7-0.7-8-0.7h-24.1zm120.9 16.1h-32.7l-4.7 11.3q-1.3 2-1.3 2.7 0 1.3 2.6 2v1.3h-13.3v-1.3q2-0.7 2.7-1.4 1.3-1.3 2.6-4.6l22.1-47.4q0.6-2 0.6-2.7 0-1.3-2-2v-1.4h14.7v1.4q-2 1.3-2 2 0 0.7 0.7 2.7l21.3 45.4q2 5.3 2.7 6 0.7 1.3 3.4 2v1.3h-14.1v-1.3q2.7-0.7 2.7-2 0-0.7-1.3-2.7zm-2.7-6l-13.4-30.1-13.3 30.1zm64.8-32.1c0 1.4 0 51.7 0 52.1q0.6 0.7 2.6 1.4v1.3h-12.7v-1.3q1.4-0.7 2-1.4 0.7-0.6 0.7-2.6v-49.5h-20q-2 0-2.7 0.7-0.7 0.7-1.3 2h-1.4v-11.3h1.4q0.6 2 1.3 2.6 0.7 0.7 2.7 0.7h47.4q2 0 2.7-0.7 0.6-0.6 1.3-2.6h1.3v11.3h-1.3q-0.7-1.3-1.3-2-0.7-0.7-2.7-0.7zm61.4 26.8v22h38.1q2 0 2.6-0.7 0.7 0 1.4-2h1.3v11.4h-1.3q-0.7-1.4-1.4-2-0.6-0.7-2.6-0.7h-48.1v-1.3q1.3-0.7 2-1.4 0.7-0.6 0.7-2.6v-50.1q0-1.4-0.7-2.7-0.7-0.7-2-0.7v-1.3h48.1q1.3 0 2-0.7 1.3-0.6 1.3-2.6h1.3v11.3h-1.3q0-1.3-1.3-2-0.7-0.7-2-0.7h-38.1v20.7h24.7q2 0 2.7-0.6 0.7-0.7 1.3-2h1.4v11.3h-1.4q-0.6-2-1.3-2-0.7-0.6-2.7-0.6zm76.1 23.3v-51.4q0-1.3-0.6-2-0.7-0.7-2-0.7v-1.3h31.3q11.4 0 16.7 2.7 7.4 4 11.4 11.3 3.3 7.4 3.3 16.1 0 10-4.6 17.3-4.1 6.7-10.1 10-6 2.7-16.7 2.7h-31.3v-1.3q1.3-0.7 2-1.4 0.6-0.6 0.6-2zm6.7-1.3h22q9.4 0 14.1-2.7 6-3.3 8-10.7 2-5.3 2-10.6 0-10.7-5.4-17.4-3.3-4-7.3-5.4-4-2-11.4-2h-22zm307.8-406l-651.6 21.4c6-11.4 10-23.4 10.6-36.1l627.2 14.4 39.9-55.8-26.7 56.1zm-805.9-14.7c0.6 13.4 4.6 25.4 10.6 36.1l-652.3-20.7zm146.9-6c0 35.3-28.7 63.4-64.1 63.4-34.7 0-63.4-28.1-63.4-63.4 0-32.8 24.7-60.1 56.7-63.5l4-36.7-160.9 6.7 161.6-16.1 2-24 2.7 24 161.6 16.1-161-6.7 3.4 36.7c32 3.4 57.4 30.7 57.4 63.5zm-650.3 160.9q-41.4-20.7-84.2-20.7-28 0-43.4 6.7-15.3 6.7-15.3 18 0 12.7 16.7 18 11.3 4 37.4 6 38 2.7 50.7 4.1 34.7 4.6 51.4 17.3 16.7 12 16.7 35.4 0 29.4-26 45.4-26.7 16-75.5 16-70.7 0-110.1-31.3l16.7-22.1q44 26.7 94.1 26.7 32.1 0 50.1-9.3 17.3-8.7 17.3-23.4 0-18-22.7-23.4-12-3.3-63.4-6.6-45.4-3.4-64.1-12.1-21.4-10.6-21.4-36 0-26.1 24.1-41.4 24.7-15.4 69.4-15.4 59.4 0 100.2 27.4zm237.7 142.2h-33.4l-74.1-82.1-47.4 34.7v47.4h-25.4v-155.6h25.4v80.2l108.8-80.2h37.4l-79.5 58.8zm196.3-155.6l-84.8 94.2v61.4h-25.3v-61.4l-85.5-94.2h32.7l65.5 72.8 65.4-72.8zm299.8-29.4l-60.8 185h-40l-46.1-154.9-46.1 154.9h-39.4l-60.7-185h34l46.8 155 46-155h38.7l46.8 155 46.1-155zm183.6 185h-162.3v-155.6h156.3v23.4h-130.9v40h90.8v23.4h-90.8v45.4h136.9zm170.9-118.8q-34.7-17.4-70.8-17.4-23.3 0-36 5.3-12.7 6.1-12.7 15.4 0 10.7 13.3 15.4 10 3.3 31.4 4.6 32.7 2 42.7 3.4 29.4 4 43.4 14.7 13.4 10 13.4 29.4 0 24.7-21.4 38-22 14-62.7 14-59.5 0-92.8-26l14-18.7q36.7 22 78.8 22 27.3 0 42-7.3 14.7-7.4 14.7-20 0-14.7-19.3-20.1-9.4-2.7-52.8-5.3-38.7-2.7-54.1-10-18-9.4-18-30.1 0-22 20.7-34.7 20-12.7 57.4-12.7 50.8 0 84.2 22.7zm217.6-13.4h-74.1v132.3h-25.4v-132.3h-74.7v-22.7h174.2zm-1443.5-150.2l-27.4-56.1 40.1 56.1z"/>
		</g>
	</g>
</svg>