<svg version="1.2" xmlns="http://www.w3.org/2000/svg" viewBox="0 0 1635 584" width="1635" height="584">
	<title>Silicon_Labs_2015-svg</title>
	<style>
		.s0 { fill: #ffffff } 
	</style>
	<g id="layer1">
		<g id="g7135">
			<path id="path4184" class="s0" d="m840.7 310.6c129.8 5.4 136.3 12.9 170.6 26.8-113.7 22.6-316.5 46.2-517.1 25.8-34.4-4.3-121.3-20.4-161-42.9-17.1-9.7-56.8-31.2-53.6-71.9 3.2-39.7 59-82.6 82.6-96.6 156.6-92.3 325.1-123.4 502.1-151.2-134.1 16-227.4 35.3-313.3 56.8-211.3 53.7-433.4 152.4-512.8 253.2-34.4 42.9-50.4 91.2-26.8 135.2 41.8 78.3 163 118 299.3 137.3-46.1-13.9-101.9-28.9-126.6-62.2-8.6-11.8-11.8-36.5 16.1-59 67.6-54.7 120.2-74.1 120.2-74.1l135.1 32.2-24.6 18.3c-11.8 7.5-17.2 19.3-10.8 33.2 14 20.4 32.2 27.9 47.2 35.4 159.9 64.4 458.2 7.5 555.8-63.3 26.8-19.3 54.7-37.5 56.9-72.9 1-20.4-15.1-35.4-24.7-42.9-55.8-39.7-150.2-44-214.6-46.2-116.9-2.1-145.9-15-178.1-34.3 214.6-38.6 412-48.3 604-9.6 46.2 11.8 102 31.1 122.3 69.7 15.1 27.9 1.1 61.1-26.8 88-60.1 59-166.3 96.5-234.9 121.2 141.6-45.1 228.5-69.7 360.4-149.1 68.7-40.8 164.2-121.3 144.9-205-22.5-100.8-207.1-140.5-207.1-140.5 0 0 40.8 13.9 61.2 38.6 18.2 22.6 17.1 40.8 15 48.3-17.2 60.1-95.5 68.7-149.1 88l-148.1-22.6c0 0 25.8-13.9 38.6-22.5 14-10.7 22.6-24.6 16.1-41.8-12.9-24.7-33.2-36.5-62.2-45.1-160.9-47.2-369.1-20.4-512.8 62.3-34.4 21.4-80.5 50.4-84.8 93.3-2.1 19.3 13.9 42.9 37.6 55.8 75 36.5 135.1 32.2 203.8 34.3z"/>
		</g>
	</g>
</svg>