<svg version="1.2" xmlns="http://www.w3.org/2000/svg" viewBox="0 0 1571 509" width="1571" height="509">
	<title>SomalogicLogo-svg</title>
	<style>
		.s0 { fill: #db40ef } 
		.s1 { fill: #000000 } 
		.s2 { fill: #4c34cd } 
		.s3 { fill: #59cfdb } 
		.s4 { fill: #0051d2 } 
		.s5 { fill: #4067e2 } 
	</style>
	<g id="#db40efff">
		<path id="Layer" class="s0" d="m1385.2 1.4c5.9-1.5 12.3-0.6 17.5 2.4 31.1 18 62.3 36 93.4 54-24.7 13.7-49.5 27.3-74.2 40.9-6.2 3.4-12.3 7-18.6 10.1-50.5-8.9-101-18-151.5-27 2.1-4.2 5.5-7.7 9.7-9.9q56.7-32.7 113.3-65.4c3.4-1.9 6.6-4.2 10.4-5.1z"/>
	</g>
	<g id="#000000ff">
		<path id="Layer" class="s1" d="m1514.1 47.7q11.7 0 23.5 0 0 2.6 0 5.2-4.3 0-8.5 0c-0.2 8-0.1 16-0.1 24.1q-3.1 0-6.1 0c0-8 0-16.1 0-24.1q-4.4 0-8.8 0 0-2.6 0-5.2zm27.9 0q4.2 0 8.4 0c2 7.3 4.2 14.6 5.9 22 1.5-7.5 3.8-14.7 5.8-22q4.3 0 8.6 0c0.1 9.7 0 19.5 0 29.3q-2.9 0-5.7 0c0.1-7.2-0.3-14.3 0.3-21.5-2 7.2-4.2 14.3-6.2 21.5q-2.9 0-5.8 0c-2-7.3-4.1-14.6-6.2-21.9 0.8 7.3 0.2 14.6 0.4 21.9q-2.8 0-5.5 0 0-14.7 0-29.3z"/>
		<path id="Layer" fill-rule="evenodd" class="s1" d="m654.1 290.5c13.4 0 26.9 0 40.3 0 0.1 58.4 0 116.7 0 175.1q-20.1 0-40.3 0 0-87.6 0-175.1zm362.9 0q20 0 40.1 0 0 16.2-0.1 32.4c-13.3 0-26.6 0-39.9 0-0.1-10.8-0.1-21.6-0.1-32.4zm-986.6 50.8c13.2-5.1 27.8-5.7 41.8-4 11.8 1.6 24 5.7 32.4 14.7 6.4 6.6 9.6 15.6 10.4 24.6q-18.4 0.1-36.9 0c-0.7-4.6-2.8-9.5-7.1-11.8-5.5-3.1-12.2-3.1-18.3-2.3-3.9 0.6-7.9 2.2-10.2 5.5-1.8 2.6-2.4 6.4-0.5 9.2 1.7 2.5 4.7 3.7 7.5 4.7 7.4 2.3 15.1 3.2 22.7 4.6 12.2 2.2 25.2 4.7 35 12.9 8.2 6.7 11.8 17.6 11.6 28 0.3 9.8-3.3 19.7-10.3 26.6-9.2 9.2-22.2 13.3-34.9 14.8-13.4 1.3-27.2 0.7-40-3.5-9.8-3.1-19-8.8-25-17.2-5-6.8-7.5-15.1-7.8-23.4q18.9 0 37.8 0c0.6 5.1 2.6 10.3 6.7 13.6 4.9 4.2 11.7 5.2 17.9 5 5.1-0.3 10.6-1.2 14.6-4.7 3.8-3.5 4.4-10.2 0.8-14.1-3.2-3.4-7.9-4.6-12.2-5.7-13.6-3.1-27.8-3.9-40.8-9.3-8.2-3.3-15.7-9.5-18.8-18-3.8-10.3-3.6-22.3 1.5-32 4.7-8.7 13.1-14.7 22.1-18.2zm162-4.1c12.4-1.3 25.2-0.1 36.8 4.6 11 4.3 20.7 11.9 27.4 21.7 8 11.3 11.8 25.2 11.9 39 0.1 13.2-3.2 26.6-10.3 37.8-7 11.2-17.8 19.8-30.1 24.5-11.4 4.3-24 5.4-36.1 4.1-14.3-1.7-28.3-7.8-38.5-18.1-8.7-8.5-14.6-19.7-17.2-31.6-2.9-13-2.3-26.9 2-39.5 3.8-11.4 11-21.7 20.5-29.1 9.6-7.6 21.5-12 33.6-13.4zm5.4 28c-4.9 0.7-9.5 3-13 6.5-4.6 4.8-7.2 11.3-8.5 17.8-1.5 7.9-1.6 16.1-0.5 24.1 0.8 4.8 2 9.7 4.3 14 2.7 5.4 7.3 10 13 11.9 8 2.8 17.6 1.4 23.9-4.3 5.7-5.1 8.5-12.6 9.9-19.9 1.4-8.1 1.4-16.5 0-24.6-1.4-7.4-4.3-14.9-10-20-5.1-4.7-12.4-6.4-19.1-5.5zm144.5-22.4c10.3-6.4 23.2-7.9 34.8-4.9 10.8 2.7 19.6 10.8 24.3 20.7 6.1-9.7 15.5-17.8 26.9-20.6 11-2.7 23-2.1 33.3 2.8 8.9 4.2 15.4 12.4 18.6 21.6 2.5 7 3.4 14.6 3.4 22.1q0 40.5 0 81-20 0.1-40 0.1 0-33 0-65.9c-0.1-6.9 0.7-14.2-2.2-20.7-1.6-3.9-5-7-9.1-8.2-6.3-1.9-13.8-0.9-18.6 3.8-5.4 4.9-7.2 12.5-7.4 19.5 0 23.8 0 47.6 0 71.5q-20 0-40-0.1 0-33.9 0-67.9c0.1-7.6 0.6-16.3-4.7-22.6-6.9-7.5-20.4-6.6-26.7 1.2-4.2 5.2-5.7 12.1-5.8 18.6q0 35.4 0 70.7-20 0.1-40 0.1 0-62.8 0-125.5 19.1 0 38.2 0c0.1 6.1-0.2 12.2 0.2 18.3 4-6.1 8.6-11.8 14.8-15.6zm179.3 8.1c10.5-9.7 25.1-13.5 39.1-14.1 11.8-0.3 23.9 0.2 35 4.4 10.3 3.9 19.3 12 23.1 22.5 3.8 9.7 3.2 20.3 3.2 30.4 0 18.8 0 37.5 0.1 56.2 0.2 4.7 0.4 10.2 4.3 13.5 0 0.4 0 1.3 0 1.7-12.9 0-25.8 0.1-38.7 0-3-4-3.4-9.4-4.3-14.2-3.7 5.1-8.3 9.6-14 12.5-9.3 4.7-20 5.5-30.1 4.6-10.8-1-21.7-5.4-28.5-13.9-7.4-9-9.1-21.5-7-32.6 1.4-8 6.1-15.3 12.8-19.9 9-6.3 19.9-8.8 30.6-10.5 8.6-1.3 17.4-2 25.9-4.5 3.3-1.1 6.9-2.5 8.7-5.7 1.6-3.5 1-7.7-0.8-11-2.4-4.2-7.3-6-11.9-6.4-6-0.4-12.6 0-17.5 3.8-3.9 2.8-5.6 7.6-6.2 12.3-12.3-0.1-24.6 0-36.9-0.1 0.5-10.8 5-21.6 13.1-29zm27 66.4c-7.8 3.6-9.4 15-3.8 21.2 3.6 3.6 8.9 4.6 13.8 4.6 7 0 14.4-2.2 19.3-7.5 3.6-3.6 5.5-8.7 5.7-13.8 0.3-5.3 0.1-10.6 0.1-15.9-11 5.7-24 5.8-35.1 11.4zm224.5-80.1c13.8-1.5 28.1 0.2 40.7 6.2 11.7 5.6 21.6 15 27.6 26.5 6.5 12.2 8.8 26.5 7.5 40.2-1 12.5-5.4 24.7-13 34.7-7.9 10.4-19.3 18-31.8 21.6-11.9 3.5-24.7 3.9-36.9 1.6-14.4-2.8-28-10.4-37.3-21.9-9.8-12-14.6-27.5-14.5-42.9-0.2-16.2 5.2-32.7 16-44.9 10.5-12.1 25.9-19.4 41.7-21.1zm3.5 28.4c-6.5 1.3-12 5.9-15.1 11.7-4.4 7.8-5.6 17-5.6 25.9 0 7.6 1 15.4 4 22.4 2.5 5.9 7 11.1 13 13.5 7.4 3 16.4 2.3 23-2.4 4.4-3.1 7.5-7.7 9.4-12.7 2.6-6.6 3.4-13.8 3.5-20.8-0.1-7.5-1-15-3.8-22-2.1-5-5.4-9.6-10.1-12.7-5.3-3.5-12.1-4.2-18.3-2.9zm130.6-28.3c11-1.9 22.9-0.9 32.7 4.8 5.1 2.8 9.2 7.1 12.6 11.8 0.1-4.6 0.1-9.2 0.1-13.8 12.7 0 25.5 0 38.3 0 0 37.9 0 75.8 0 113.7-0.1 12.6-3.4 25.6-11.5 35.5-6.3 8.2-15.8 13.6-25.8 16.3-10.5 3.1-21.6 3.4-32.5 3-13.3-0.8-27-4-37.8-12.1-9-6.7-14.9-17.1-16.4-28.2q19.4 0 38.8 0c2.1 6.1 7.9 10.2 14.1 11.4 7.5 1.4 15.8 1.2 22.5-2.6 5.3-3.1 8.1-9.1 8.9-15 0.6-6.1 0.4-12.2 0.2-18.3-3.4 3.2-6.5 6.6-10.6 9-11.1 7-25.4 7.2-37.8 3.7-13.1-3.8-24.4-13-31-24.9-6.5-11.8-8.5-25.6-7.5-38.9 0.9-13.1 4.8-26.2 12.8-36.7 7.2-9.6 18-16.6 29.9-18.7zm14.8 30.1c-6.3 1.5-11.6 6-14.5 11.7-3.9 7.4-4.6 15.9-3.9 24.1 0.7 7.4 3.4 14.9 9.1 20 7 6.5 18.2 7.3 26.7 3.1 6.7-3.2 10.8-10.2 12.5-17.3 2-8.3 1.9-17.2-1-25.2-1.9-5.6-5.5-10.7-10.6-13.8-5.4-3.3-12.2-4-18.3-2.6zm199.6-27.6c11.5-3.5 23.9-3.9 35.7-1.9 12.3 2.1 24.2 8 32.5 17.4 7.3 8.2 11.6 18.7 13 29.5-12.8 0-25.7 0-38.5 0-1.5-6.5-4.8-13.2-11-16.4-8.9-4.4-20.8-2.1-27.1 5.6-4.2 5.1-6.2 11.5-7.2 17.9-1.1 7.5-1.1 15.2 0.1 22.7 1.1 6.4 3.3 12.9 7.7 17.7 3.7 4.2 9.1 6.6 14.7 7 5.8 0.5 12.2-0.7 16.6-4.9 4.7-4.2 6.6-10.5 7.4-16.5 12.8 0 25.5 0 38.3 0-0.4 11.1-4.2 22.2-11.3 30.8-9 11.3-22.7 17.9-36.8 19.9-12.7 1.7-25.9 0.8-37.9-3.8-12.5-4.7-23.3-13.6-30.3-25-7.9-13-10.8-28.6-9.5-43.6 1-13.1 5.7-26 13.9-36.3 7.6-9.6 18.1-16.5 29.7-20.1zm-104.6 0.3q20 0 40.1 0 0 62.7 0 125.5c-13.4-0.1-26.7 0-40.1-0.1q0-62.7 0-125.4z"/>
	</g>
	<g id="#4c34cdff">
		<path id="Layer" class="s2" d="m1251.7 81.8h0.1c50.5 9 101 18.1 151.5 27l0.2 0.1c-51.4 28.3-102.9 56.6-154.3 85-0.1-33.6 0-67.1 0-100.6-0.1-4 0.9-7.9 2.5-11.5z"/>
	</g>
	<g id="#59cfdbff">
		<path id="Layer" class="s3" d="m1249.2 193.9c51.4-28.4 102.9-56.7 154.3-85q64.6 11.5 129.2 23-78.5 41.9-157 83.9c-0.1 0-0.4 0.2-0.6 0.3-33.1-5.6-66.1-11.4-99.2-17-9-1.8-18.2-2.9-27.1-5z"/>
	</g>
	<g id="#0051d2ff">
		<path id="Layer" class="s4" d="m1375.7 215.8q78.5-42 157-83.9c0.2 31.7 0 63.4 0.1 95.1 0.4 5.5-0.9 11.1-4.1 15.7-25.4-4.7-50.9-8.8-76.4-13.3-24.4-4.2-48.8-8.4-73.2-12.6-1.2-0.3-2.3-0.7-3.4-1z"/>
	</g>
	<g id="#4067e2ff">
		<path id="Layer" class="s5" d="m1375.1 216.1c0.2-0.1 0.5-0.3 0.6-0.3 1.1 0.3 2.2 0.7 3.4 1 24.4 4.2 48.8 8.4 73.2 12.6 25.5 4.5 51 8.6 76.4 13.3-2.1 3-4.9 5.5-8.2 7.3-39.3 22.7-78.5 45.4-117.8 68-6.7 4-15.3 4.2-22.2 0.7-31.6-18.3-63.2-36.5-94.9-54.8q44.7-24 89.5-47.8z"/>
	</g>
</svg>