<svg version="1.2" xmlns="http://www.w3.org/2000/svg" viewBox="0 0 1646 292" width="1646" height="292">
	<title>logo - 2022-09-30T120324</title>
	<style>
		.s0 { fill: #ffffff } 
		.s1 { fill: #004931 } 
		.s2 { fill: #000000 } 
		.s3 { fill: #fcbf00 } 
	</style>
	<path id="Layer" fill-rule="evenodd" class="s0" d="m664.8 117.4v-5.6h10.2v25.2h-10.2v-5.7q-1.4-2.3-3.3-4.2-2-1.8-4.3-3.1-2.4-1.2-5-1.9-2.6-0.6-5.2-0.5-1.4-0.1-2.8 0-1.4 0.1-2.7 0.5-1.4 0.3-2.7 0.9-1.2 0.6-2.4 1.3-0.9 0.7-1.6 1.6-0.8 0.9-1.2 1.9-0.5 1.1-0.7 2.2-0.3 1.1-0.2 2.2-0.1 1.1 0.1 2.2 0.2 1.1 0.7 2.1 0.5 0.9 1.1 1.8 0.7 0.8 1.6 1.5 1.2 0.8 2.5 1.5 1.3 0.6 2.6 1.2 1.4 0.5 2.7 1 1.4 0.4 2.9 0.7l9.8 2.6q2 0.4 3.9 1 1.9 0.7 3.7 1.5 1.8 0.8 3.5 1.8 1.8 1 3.4 2.2 1.1 0.9 2.1 1.8 0.9 1 1.8 2.1 0.8 1.1 1.5 2.3 0.6 1.2 1.1 2.5 0.4 1.2 0.7 2.5 0.3 1.3 0.5 2.5 0.2 1.3 0.3 2.6 0.1 1.3 0.1 2.6 0 11.3-7.1 17.9-7.2 6.6-19.2 6.6-2.9 0-5.7-0.5-2.8-0.6-5.5-1.7-2.6-1-5.1-2.6-2.4-1.5-4.5-3.4v6.9h-10.4v-30.2h10.4v7.3q7.5 13.7 19.6 13.7 1.5 0 3-0.1 1.5-0.2 2.9-0.7 1.4-0.5 2.7-1.2 1.3-0.7 2.4-1.7 1-0.9 1.8-2.1 0.7-1.2 1.3-2.5 0.5-1.3 0.7-2.7 0.2-1.4 0.1-2.8 0-8.9-12.7-12.4l-10.4-2.9q-11.4-3.2-16.8-8.7-1.3-1.4-2.4-3.1-1.1-1.7-1.7-3.5-0.7-1.9-1.1-3.9-0.3-1.9-0.2-3.9 0-10.9 6.6-17 6.5-6 18.1-6 2.5 0 5 0.4 2.5 0.4 4.9 1.3 2.3 0.8 4.6 2 2.2 1.2 4.2 2.7zm51.4 67.7v10.1h-30.9v-10.1h10.5v-62.8h-10.5v-10.1h21.9v72.9zm36.1 0v10.1h-29.6v-10.1h9.1v-37.6h-9.1v-10.1h20.7v47.7zm-8.3-67.2q0 0.6-0.1 1.3-0.1 0.7-0.4 1.3-0.3 0.6-0.6 1.2-0.4 0.5-0.9 1-0.5 0.5-1.1 0.9-0.5 0.4-1.2 0.6-0.6 0.3-1.3 0.4-0.6 0.1-1.3 0.1-0.7 0-1.4-0.1-0.6-0.1-1.3-0.4-0.6-0.2-1.1-0.6-0.6-0.4-1.1-0.9-0.9-1-1.4-2.2-0.6-1.3-0.6-2.6 0-1.4 0.6-2.7 0.5-1.2 1.4-2.2 0.5-0.5 1.1-0.9 0.5-0.3 1.1-0.6 0.7-0.3 1.3-0.4 0.7-0.1 1.4-0.1 0.7 0 1.3 0.1 0.7 0.1 1.4 0.4 0.6 0.2 1.2 0.6 0.5 0.4 1 0.9 0.5 0.4 0.9 1 0.4 0.6 0.6 1.2 0.3 0.6 0.4 1.3 0.1 0.7 0.1 1.4zm64.8 27.8v-8.4h22v10.2h-10.6v43.4q0 15.2-7.7 23.4-7.8 8.2-22.5 8.2-3.3 0.1-6.5-0.3-3.1-0.5-6.2-1.5-3.1-1-5.9-2.5-2.9-1.5-5.4-3.5l7.4-8.2q0.9 0.7 1.9 1.3 1 0.6 2 1.2 1 0.5 2 1 1.1 0.5 2.2 0.9 1 0.4 2.1 0.6 1.1 0.3 2.2 0.5 1.1 0.2 2.2 0.3 1.2 0.1 2.3 0.1 1.9 0.1 3.7-0.2 1.9-0.3 3.7-1 1.7-0.7 3.3-1.8 1.6-1 2.9-2.4 1.2-1.4 2.2-3.1 1-1.7 1.6-3.5 0.6-1.8 0.9-3.7 0.3-1.9 0.2-3.8v-5.5q-1 1.1-2.1 2.1-1.1 1-2.3 1.9-1.2 0.9-2.5 1.6-1.4 0.7-2.7 1.3-1.4 0.6-2.8 1.1-1.4 0.5-2.9 0.8-1.5 0.3-3 0.5-1.5 0.2-2.9 0.2-2 0-3.9-0.3-1.9-0.2-3.8-0.7-1.8-0.5-3.6-1.3-1.7-0.8-3.4-1.8-1.6-1-3-2.2-1.5-1.2-2.8-2.6-1.2-1.3-2.3-2.8-1.1-1.6-2-3.2-0.9-1.7-1.6-3.5-0.7-1.8-1.2-3.7-0.4-1.9-0.7-3.8-0.2-1.9-0.2-3.8 0-2 0.3-4 0.2-1.9 0.7-3.9 0.5-1.9 1.2-3.8 0.7-1.8 1.7-3.6 0.9-1.7 2-3.3 1.1-1.5 2.4-3 1.4-1.4 2.9-2.6 1.5-1.3 3.1-2.3 1.6-1 3.4-1.8 1.8-0.8 3.7-1.3 1.8-0.6 3.7-0.8 2-0.3 3.9-0.3 1.4 0 2.8 0.2 1.4 0.1 2.8 0.4 1.3 0.3 2.6 0.7 1.4 0.4 2.7 1 1.3 0.6 2.6 1.4 1.3 0.7 2.6 1.6 1.2 0.9 2.4 1.8 1.1 1 2.2 2.1zm-19.1 41q1.3 0 2.6-0.2 1.3-0.1 2.5-0.5 1.3-0.3 2.5-0.8 1.2-0.5 2.3-1.2 1.1-0.7 2-1.5 1-0.8 1.9-1.7 0.9-0.9 1.6-1.9 0.7-1.1 1.3-2.2 0.6-1.1 1.1-2.3 0.5-1.2 0.8-2.5 0.3-1.2 0.4-2.5 0.2-1.2 0.2-2.5 0-2.6-0.7-5-0.6-2.4-1.8-4.6-1.2-2.3-2.9-4.1-1.7-1.9-3.9-3.2-2.1-1.4-4.6-2.1-2.4-0.7-5-0.7-2.5-0.1-5 0.6-2.4 0.7-4.6 2.1-1 0.6-2 1.4-1 0.8-1.8 1.7-0.9 1-1.6 2-0.7 1-1.3 2.1-0.6 1.2-1 2.4-0.5 1.2-0.8 2.4-0.3 1.2-0.4 2.5-0.2 1.3-0.2 2.6 0 1.3 0.2 2.5 0.1 1.3 0.4 2.6 0.3 1.2 0.7 2.4 0.4 1.2 1 2.4 1.1 2.2 2.8 4.1 1.7 1.8 3.8 3.1 2.2 1.3 4.6 2 2.4 0.6 4.9 0.6zm68.2-14.7v13.1h12.7v10.1h-35.9v-10.1h11.7v-37.6h-11.7v-10.1h20.9v13.1q0.6-1.7 1.5-3.2 0.9-1.6 2-2.9 1.1-1.4 2.4-2.6 1.3-1.2 2.8-2.2 5.2-3 14.9-3h2.6v11.5h-2.5q-9.4 0-13.9 2.4-1.1 0.6-2.1 1.3-0.9 0.8-1.7 1.7-0.8 1-1.4 2.1-0.5 1.1-0.9 2.2-0.4 1.8-0.7 3.5-0.3 1.8-0.5 3.6-0.2 1.7-0.2 3.5-0.1 1.8 0 3.6zm85-5.6c0 4-0.7 8-2.3 11.7-1.5 3.7-3.8 7.1-6.6 10-2.9 2.8-6.3 5.1-10 6.6-3.8 1.5-7.8 2.3-11.8 2.2q-2.1 0-4.1-0.2-2.1-0.2-4.1-0.8-2-0.5-4-1.3-1.9-0.7-3.7-1.7-1.7-1-3.3-2.2-1.6-1.2-2.9-2.6-1.4-1.4-2.6-3-1.2-1.6-2.2-3.3-1-1.8-1.7-3.6-0.8-1.9-1.3-3.9-0.5-1.9-0.7-3.9-0.2-2-0.2-4-0.1-2.1 0.2-4.1 0.2-2.1 0.7-4.1 0.5-2 1.3-3.9 0.7-1.9 1.7-3.7 1-1.7 2.1-3.2 1.2-1.6 2.6-3 1.4-1.4 3-2.5 1.5-1.2 3.3-2.1 1.8-1 3.7-1.8 1.9-0.8 4-1.3 2-0.5 4-0.7 2.1-0.2 4.2-0.2c4 0 8 0.7 11.8 2.3 3.7 1.5 7.1 3.7 9.9 6.6 2.9 2.8 5.2 6.2 6.7 9.9 1.5 3.7 2.3 7.7 2.3 11.8zm-30.7 19.4q1.3 0.1 2.5-0.1 1.2-0.2 2.4-0.5 1.2-0.3 2.4-0.8 1.1-0.5 2.1-1.2 1.1-0.6 2.1-1.4 0.9-0.8 1.8-1.7 0.8-0.9 1.5-1.9 0.7-1 1.3-2.1 0.6-1.1 1.1-2.3 0.4-1.2 0.7-2.4 0.3-1.2 0.5-2.5 0.1-1.3 0.1-2.5 0-1.3-0.1-2.5-0.2-1.3-0.5-2.5-0.3-1.2-0.7-2.4-0.5-1.2-1.1-2.3-0.6-1.1-1.3-2.1-0.7-1-1.5-1.9-0.9-0.9-1.9-1.7-0.9-0.8-2-1.5-2.1-1.3-4.5-2-2.4-0.6-4.9-0.6-2.5 0-5 0.6-2.4 0.7-4.5 2-1.1 0.7-2 1.5-1 0.8-1.8 1.7-0.9 0.9-1.6 1.9-0.8 1-1.4 2.1-1.2 2.3-1.8 4.7-0.6 2.5-0.6 5 0 2.6 0.6 5 0.6 2.5 1.8 4.7 0.6 1.1 1.4 2.1 0.7 1 1.6 1.9 0.8 1 1.8 1.7 1 0.8 2.1 1.5 1 0.6 2.2 1.1 1.1 0.5 2.3 0.8 1.2 0.3 2.4 0.5 1.3 0.2 2.5 0.1zm122.8-49.3v-13.9h-31.5v24.6h27.1v10.4h-27.1v27.3h10.7v10.4h-34v-10.4h10.5v-62.3h-10.5v-10.4h65.1v24.2zm69.6 29.9c0 4.1-0.7 8.1-2.3 11.8-1.5 3.7-3.8 7.1-6.6 10-2.9 2.8-6.3 5.1-10 6.6-3.8 1.5-7.8 2.2-11.8 2.2q-2.1 0-4.1-0.2-2.1-0.3-4.1-0.8-2-0.5-4-1.3-1.9-0.7-3.7-1.8-1.7-0.9-3.3-2.1-1.5-1.2-2.9-2.7-1.4-1.4-2.6-2.9-1.2-1.6-2.2-3.3-1-1.8-1.7-3.7-0.8-1.8-1.3-3.8-0.5-1.9-0.7-3.9-0.2-2-0.2-4.1-0.1-2 0.2-4.1 0.2-2 0.7-4 0.5-2 1.3-3.9 0.7-1.9 1.7-3.7 1-1.7 2.2-3.3 1.1-1.5 2.5-2.9 1.4-1.4 3-2.5 1.5-1.2 3.3-2.2 1.8-1 3.7-1.7 2-0.8 4-1.3 2-0.5 4-0.7 2.1-0.2 4.2-0.2c4 0 8 0.7 11.8 2.2 3.7 1.6 7.1 3.8 9.9 6.7 2.9 2.8 5.2 6.2 6.7 9.9 1.5 3.7 2.3 7.7 2.3 11.7zm-30.7 19.5q1.2 0 2.5-0.1 1.2-0.2 2.4-0.5 1.2-0.4 2.3-0.9 1.2-0.5 2.2-1.1 1.1-0.7 2-1.4 1-0.8 1.8-1.7 0.9-0.9 1.6-1.9 0.7-1 1.3-2.1 0.6-1.1 1-2.3 0.5-1.2 0.8-2.4 0.3-1.3 0.5-2.5 0.1-1.3 0.1-2.6 0-1.2-0.1-2.5-0.2-1.2-0.5-2.4-0.3-1.2-0.8-2.4-0.4-1.2-1-2.3-0.6-1.1-1.3-2.1-0.7-1-1.6-1.9-0.8-0.9-1.8-1.7-0.9-0.8-2-1.5-2.1-1.3-4.5-2-2.5-0.7-5-0.7-2.5 0-4.9 0.7-2.4 0.7-4.5 2-1.1 0.7-2.1 1.5-0.9 0.8-1.8 1.7-0.8 0.9-1.6 1.9-0.7 1-1.3 2.1-1.2 2.2-1.8 4.7-0.6 2.5-0.6 5 0 2.5 0.6 5 0.6 2.5 1.8 4.7 0.6 1.1 1.4 2.1 0.7 1 1.5 1.9 0.9 0.9 1.9 1.7 1 0.8 2 1.4 1.1 0.7 2.2 1.2 1.2 0.5 2.4 0.8 1.2 0.3 2.4 0.5 1.2 0.1 2.5 0.1zm100.9-19.5c0 4.1-0.7 8.1-2.3 11.8-1.5 3.7-3.8 7.1-6.6 10-2.9 2.8-6.3 5.1-10 6.6-3.8 1.5-7.8 2.2-11.8 2.2q-2.1 0-4.1-0.2-2.1-0.3-4.1-0.8-2-0.5-3.9-1.3-2-0.7-3.8-1.8-1.7-0.9-3.3-2.1-1.5-1.2-2.9-2.6-1.4-1.5-2.6-3-1.2-1.6-2.2-3.3-1-1.8-1.7-3.7-0.8-1.8-1.3-3.8-0.5-1.9-0.7-3.9-0.2-2-0.2-4.1 0-2 0.2-4.1 0.2-2 0.7-4 0.5-2 1.3-3.9 0.7-1.9 1.7-3.7 1-1.7 2.2-3.3 1.1-1.5 2.5-2.9 1.4-1.4 3-2.6 1.6-1.1 3.3-2.1 1.8-1 3.7-1.7 2-0.8 4-1.3 2-0.5 4.1-0.7 2-0.2 4.1-0.2c4 0 8 0.7 11.8 2.2 3.7 1.6 7.1 3.8 9.9 6.7 2.9 2.8 5.2 6.2 6.7 9.9 1.5 3.7 2.3 7.7 2.3 11.7zm-30.7 19.5q1.2 0 2.5-0.1 1.2-0.2 2.4-0.5 1.2-0.4 2.3-0.9 1.2-0.5 2.2-1.1 1.1-0.7 2-1.4 1-0.8 1.8-1.7 0.9-0.9 1.6-1.9 0.7-1 1.3-2.1 0.6-1.1 1.1-2.3 0.4-1.2 0.7-2.4 0.3-1.3 0.5-2.5 0.1-1.3 0.1-2.6 0-1.2-0.1-2.5-0.2-1.2-0.5-2.4-0.3-1.2-0.8-2.4-0.4-1.2-1-2.3-0.6-1.1-1.3-2.1-0.7-1-1.6-1.9-0.8-0.9-1.8-1.7-0.9-0.8-2-1.5-2.1-1.3-4.5-2-2.4-0.7-5-0.7-2.5 0-4.9 0.7-2.4 0.7-4.5 2-1.1 0.7-2.1 1.5-0.9 0.8-1.8 1.7-0.8 0.9-1.5 1.9-0.8 1-1.4 2.1-1.2 2.2-1.8 4.7-0.6 2.5-0.6 5 0 2.5 0.6 5 0.6 2.5 1.8 4.7 0.6 1.1 1.4 2.1 0.7 1 1.5 1.9 0.9 0.9 1.9 1.7 1 0.8 2 1.4 1.1 0.7 2.2 1.2 1.2 0.5 2.4 0.8 1.2 0.3 2.4 0.5 1.2 0.1 2.5 0.1zm111.1-0.7v10.1h-22v-8.5q-2 2.3-4.4 4-2.4 1.8-5.1 3-2.7 1.3-5.6 1.9-3 0.6-5.9 0.6-2 0-4-0.2-1.9-0.2-3.8-0.7-1.9-0.5-3.7-1.3-1.8-0.8-3.5-1.8-1.6-0.9-3-2.1-1.5-1.2-2.8-2.5-1.3-1.4-2.3-2.9-1.1-1.5-2-3.2-0.9-1.7-1.6-3.5-0.7-1.8-1.1-3.7-0.5-1.9-0.7-3.8-0.2-2-0.2-3.9 0-2 0.2-4 0.3-2 0.8-4 0.4-1.9 1.2-3.8 0.7-1.9 1.6-3.6 1-1.8 2.1-3.3 1.1-1.6 2.5-3.1 1.3-1.4 2.8-2.6 1.5-1.2 3.2-2.3 1.6-1 3.4-1.8 1.8-0.7 3.6-1.3 1.9-0.5 3.8-0.8 1.9-0.2 3.8-0.2 1.4 0 2.8 0.1 1.4 0.2 2.7 0.4 1.4 0.3 2.7 0.8 1.3 0.4 2.6 0.9 1.4 0.7 2.7 1.5 1.3 0.7 2.6 1.6 1.2 0.9 2.4 1.9 1.1 1 2.2 2.2v-23h-11.3v-10h22.7v72.9zm-40.9 1q1.3 0 2.6-0.2 1.3-0.2 2.5-0.5 1.2-0.4 2.4-0.9 1.1-0.6 2.2-1.3 1.1-0.7 2-1.5 1-0.8 1.8-1.8 0.9-0.9 1.6-2 0.7-1 1.3-2.1 0.6-1.2 1.1-2.4 0.5-1.2 0.8-2.5 0.3-1.3 0.4-2.6 0.2-1.3 0.2-2.6 0-1.2-0.1-2.5-0.2-1.3-0.5-2.5-0.3-1.3-0.8-2.5-0.5-1.2-1.1-2.3-0.6-1.1-1.3-2.1-0.7-1-1.6-1.9-0.9-0.8-1.8-1.6-1-0.7-2.1-1.4-1.1-0.6-2.3-1.1-1.1-0.5-2.4-0.8-1.2-0.4-2.5-0.5-1.3-0.2-2.6-0.2-1.2 0-2.5 0.2-1.2 0.2-2.4 0.5-1.2 0.4-2.3 0.9-1.2 0.5-2.2 1.2-1 0.7-2 1.5-0.9 0.9-1.8 1.8-0.8 0.9-1.5 1.9-0.7 1.1-1.3 2.2-1.2 2.3-1.8 4.8-0.6 2.6-0.6 5.2 0 2.6 0.6 5.1 0.6 2.5 1.8 4.9 0.6 1.1 1.3 2.1 0.8 1 1.6 1.9 0.9 0.9 1.8 1.6 1 0.8 2 1.5 1.1 0.6 2.2 1.1 1.2 0.5 2.4 0.8 1.2 0.3 2.4 0.4 1.3 0.2 2.5 0.2zm150.7-64.8v-9.1h10.8v27.2h-10.8q-0.9-2-2.1-3.8-1.2-1.8-2.7-3.4-1.5-1.7-3.2-3.1-1.7-1.3-3.6-2.4-1.8-1.2-3.8-2.1-2.1-0.9-4.2-1.5-2.1-0.6-4.3-0.9-2.2-0.3-4.4-0.3-2-0.1-4 0.2-2 0.2-4 0.7-1.9 0.5-3.8 1.3-1.9 0.8-3.6 1.8-1.7 1-3.2 2.2-1.6 1.2-2.9 2.6-1.3 1.5-2.5 3-1.1 1.6-2 3.4-1 1.8-1.7 3.8-0.7 2-1.2 4-0.5 2-0.7 4.1-0.2 2.1-0.2 4.2 0 2.2 0.2 4.3 0.2 2.2 0.7 4.3 0.5 2.2 1.3 4.2 0.8 2 1.8 4 0.9 1.8 2.1 3.4 1.2 1.6 2.5 3.1 1.4 1.4 3 2.6 1.6 1.3 3.4 2.3 1.8 1 3.7 1.8 2 0.8 4 1.3 2.1 0.5 4.2 0.7 2 0.3 4.1 0.2 1.7 0.1 3.3-0.1 1.6-0.1 3.2-0.4 1.6-0.4 3.2-0.8 1.6-0.5 3.1-1.1 1.4-0.6 2.7-1.3 1.3-0.8 2.6-1.7 1.2-0.9 2.3-1.9 1.1-1 2.1-2.2 1-1.1 1.8-2.3 0.7-1.2 1.4-2.6 0.6-1.3 1-2.7 0.4-1.4 0.6-2.8h-15.4v-10.4h30.7v2.7q0 2.7-0.3 5.4-0.3 2.7-1 5.3-0.7 2.6-1.7 5.1-1.1 2.5-2.5 4.9-1.3 2.1-3 4.1-1.6 2-3.5 3.7-2 1.7-4.1 3.1-2.1 1.4-4.5 2.5-2.5 1.2-5.1 2.1-2.7 0.9-5.4 1.5-2.7 0.6-5.5 0.9-2.8 0.3-5.5 0.2-3.1 0.1-6.2-0.2-3.1-0.3-6.1-1-3.1-0.7-6-1.8-2.9-1-5.7-2.4-2.4-1.3-4.7-2.9-2.3-1.6-4.3-3.5-2-2-3.7-4.2-1.7-2.2-3-4.6-1.5-2.6-2.5-5.3-1.1-2.8-1.8-5.6-0.7-2.9-1-5.8-0.3-2.9-0.2-5.9-0.1-2.8 0.2-5.7 0.4-2.8 1.1-5.6 0.7-2.8 1.7-5.5 1.1-2.6 2.5-5.1 1.3-2.4 2.9-4.6 1.6-2.1 3.6-4 1.9-2 4-3.6 2.2-1.6 4.6-3c4-2.1 8.3-3.6 12.8-4.5 4.5-0.9 9.1-1.1 13.6-0.7 4.6 0.5 9 1.6 13.2 3.4 4.2 1.7 8.2 4 11.7 6.9zm46.5 50.7v13.1h12.8v10.1h-36v-10.1h11.8v-37.6h-11.8v-10.1h20.9v13.1q0.7-1.7 1.5-3.2 0.9-1.6 2-2.9 1.1-1.4 2.5-2.6 1.3-1.2 2.7-2.2 5.3-3 14.9-3h2.6v11.5h-2.5q-9.3 0-13.9 2.4-1.1 0.6-2 1.3-1 0.8-1.8 1.7-0.8 1-1.3 2.1-0.6 1.1-0.9 2.2-0.5 1.8-0.8 3.5-0.3 1.8-0.4 3.6-0.2 1.7-0.3 3.5 0 1.8 0 3.6zm85-5.6c0.1 4-0.7 8-2.2 11.7-1.5 3.8-3.8 7.1-6.7 10-2.8 2.8-6.2 5.1-10 6.6-3.7 1.5-7.7 2.3-11.7 2.2q-2.1 0.1-4.2-0.2-2-0.2-4.1-0.8-2-0.5-3.9-1.2-1.9-0.8-3.7-1.8-1.8-1-3.3-2.2-1.6-1.2-3-2.6-1.4-1.4-2.6-3-1.2-1.6-2.1-3.3-1-1.8-1.8-3.6-0.7-1.9-1.2-3.9-0.5-1.9-0.7-3.9-0.3-2-0.3-4 0-2.1 0.2-4.1 0.3-2.1 0.8-4.1 0.5-2 1.2-3.9 0.8-1.9 1.8-3.7 0.9-1.7 2.1-3.2 1.2-1.6 2.6-3 1.4-1.4 2.9-2.5 1.6-1.2 3.3-2.1 1.8-1 3.8-1.8 1.9-0.8 3.9-1.3 2-0.5 4.1-0.7 2.1-0.2 4.2-0.2c4 0 8 0.7 11.7 2.3 3.8 1.5 7.1 3.7 10 6.6 2.9 2.8 5.1 6.2 6.7 9.9 1.5 3.7 2.3 7.7 2.2 11.8zm-30.6 19.5q1.2 0 2.4-0.2 1.3-0.2 2.4-0.5 1.2-0.3 2.4-0.8 1.1-0.5 2.2-1.2 1-0.6 2-1.4 0.9-0.8 1.8-1.7 0.8-0.9 1.6-1.9 0.7-1 1.3-2.1 0.6-1.1 1-2.3 0.5-1.2 0.8-2.4 0.3-1.2 0.4-2.5 0.2-1.3 0.1-2.5 0.1-1.3-0.1-2.5-0.1-1.3-0.4-2.5-0.4-1.2-0.8-2.4-0.5-1.2-1-2.3-0.6-1.1-1.4-2.1-0.7-1-1.5-1.9-0.9-0.9-1.8-1.7-1-0.8-2-1.5-2.2-1.3-4.6-2-2.4-0.6-4.9-0.6-2.5 0-4.9 0.6-2.4 0.7-4.6 2-1 0.7-2 1.5-1 0.8-1.8 1.7-0.9 0.9-1.6 1.9-0.7 1-1.3 2.1-1.2 2.3-1.8 4.7-0.7 2.5-0.7 5 0 2.6 0.7 5 0.6 2.5 1.8 4.7 0.6 1.1 1.3 2.1 0.7 1 1.6 1.9 0.9 1 1.8 1.7 1 0.8 2.1 1.5 1 0.6 2.2 1.1 1.1 0.5 2.3 0.8 1.2 0.4 2.5 0.5 1.2 0.2 2.5 0.2zm65.6 0.4c5.2 0 10.7-2.5 16.7-7.4v-31.3h-10.3v-10.2h21.8v47.7h10.1v10.2h-21.6v-6.7q-10.1 7.6-19.2 7.6-8.3 0-12.2-4.8-3.9-4.9-3.9-16.1v-27.8h-8.2v-10.2h19.7v40.3q-0.1 0.9 0 1.7 0.1 0.9 0.3 1.7 0.2 0.9 0.5 1.6 0.4 0.8 0.8 1.6 0.5 0.5 1.2 1 0.6 0.4 1.3 0.7 0.7 0.3 1.5 0.4 0.7 0.1 1.5 0zm113.5-19.8q0 2-0.2 4-0.2 1.9-0.7 3.8-0.5 1.9-1.2 3.8-0.7 1.8-1.7 3.6-0.9 1.7-2 3.2-1.1 1.6-2.4 3-1.3 1.4-2.8 2.6-1.5 1.3-3.1 2.3-1.6 1-3.4 1.8-1.7 0.7-3.6 1.3-1.8 0.5-3.7 0.7-1.9 0.3-3.8 0.3-2.9 0-5.7-0.6-2.9-0.6-5.5-1.8-2.7-1.1-5-2.8-2.4-1.6-4.4-3.8v23h11.5v10.2h-33.6v-10.2h10.5v-63.4h-9.8v-10.2h21.4v9.2q1-1.1 2.1-2.2 1.1-1.1 2.3-2 1.2-1 2.5-1.8 1.3-0.8 2.7-1.5 1.3-0.6 2.6-1.1 1.4-0.5 2.8-0.8 1.4-0.3 2.9-0.4 1.4-0.2 2.9-0.2 1.9 0 3.8 0.2 2 0.3 3.8 0.8 1.9 0.5 3.7 1.3 1.8 0.7 3.4 1.8 1.6 1 3.1 2.2 1.4 1.2 2.7 2.5 1.3 1.4 2.4 3 1 1.5 1.9 3.2 0.9 1.7 1.6 3.6 0.7 1.8 1.1 3.7 0.5 1.9 0.7 3.8 0.2 2 0.2 3.9zm-28.8 19.9q1.2 0.1 2.3-0.1 1.2-0.2 2.3-0.5 1.1-0.4 2.1-0.9 1.1-0.5 2-1.2 1-0.7 1.9-1.6 0.9-0.8 1.6-1.7 0.8-1 1.4-2 0.7-1.1 1.1-2.2 0.6-1.2 1-2.4 0.4-1.2 0.7-2.5 0.3-1.2 0.4-2.5 0.1-1.3 0.1-2.6 0-1.3-0.1-2.6-0.2-1.2-0.5-2.5-0.3-1.2-0.7-2.4-0.5-1.2-1.1-2.3-0.5-1.1-1.3-2.1-0.7-1-1.5-1.9-0.8-1-1.8-1.7-0.9-0.8-1.9-1.5-1.1-0.7-2.2-1.2-1.2-0.5-2.4-0.8-1.1-0.4-2.4-0.5-1.2-0.2-2.5-0.2-1.3 0-2.5 0.2-1.3 0.2-2.6 0.5-1.2 0.4-2.4 0.9-1.2 0.6-2.3 1.3-1 0.7-2 1.5-1 0.8-1.8 1.8-0.9 0.9-1.6 2-0.7 1-1.3 2.2-0.6 1.2-1.1 2.4-0.4 1.3-0.7 2.6-0.3 1.3-0.5 2.6-0.1 1.3-0.1 2.7-0.1 2 0.2 3.9 0.3 2 1.1 3.8 0.7 1.8 1.9 3.5 1.1 1.6 2.6 2.9 1.5 1.3 3.2 2.3 1.7 1 3.6 1.7 1.9 0.7 3.9 1 1.9 0.3 3.9 0.2z"/>
	<path id="Fill-4" fill-rule="evenodd" class="s0" d="m272.9 291.4c-150.9 0-272.9-64.9-272.9-145.2 0-80.3 122-145.2 272.9-145.2 151 0 273 64.9 273 145.2 0 80.3-122 145.2-273 145.2z"/>
	<path id="Fill-7" fill-rule="evenodd" class="s1" d="m273.5 277.3c-145.2 0-262.6-61.8-262.6-138.2 0-76.3 117.4-138.1 262.6-138.1 145.1 0 262.5 61.8 262.5 138.1 0 76.4-117.4 138.2-262.5 138.2z"/>
	<path id="Fill-9" fill-rule="evenodd" class="s2" d="m242.6 182.9q-0.1 0.2-0.2 0.4-0.1 0.1-0.3 0.3-0.2 0.1-0.4 0.1-0.2 0.1-0.4 0.1h-47.4c-1.6 0-1.8-0.9-1.8-0.9-0.3-1.1 1.6-2.1 1.6-2.1 8.2-4.7 7.8-3.4 10.3-14.4 3.4-15.4 8.1-45.4 8.1-47.8 0-1.3-1.3-4.7-6.4-7.2l-4.3-1.6q-0.3-0.1-0.4-0.3-0.2-0.1-0.3-0.3-0.1-0.2-0.1-0.4-0.1-0.3 0-0.5c0 0 0.4-0.8 1-1l41.3-0.2c0 0 1.1-0.4 0.9 1.1-3.5 13.1-6.4 30.7-8.3 41.3-3.2 17.1-3.5 20-3.5 21.7 0 4.7-0.2 5.9 9.1 9.8 0 0 1.8 0.7 1.5 1.9zm236.1-79.6c23.9-0.1 41 11.2 41 34.5 0 23.2-17.3 46.7-53.2 46.9-22.6 0.1-39.4-10.3-39.4-34q-0.1-2.5 0.2-4.9 0.3-2.5 0.8-4.9 0.6-2.4 1.4-4.8 0.8-2.3 1.9-4.5h-18.2c-1.3-0.1-0.9-0.7-0.6-1.2q0.3-0.8 0.6-1.6 0.3-0.8 0.5-1.6 0.2-0.8 0.3-1.6 0.2-0.9 0.2-1.7 0.1-1-0.2-2-0.3-1-1-1.7-0.7-0.8-1.6-1.2-1-0.4-2-0.3c-5.7 0-14.5 7.7-17.2 18.3-2.7 11.3-5.1 26.3-5.1 34.3 0 5.1 1.5 5.4 10.3 8.6 0 0 1.6 0.5 1.5 1.7 0 0.9-1.3 1.2-1.3 1.2h-49.8c-0.7 0-1.1-1-1.1-1 0 0 0-1 1.5-1.7 7.8-4.4 8.1-3.8 10.6-14.8 3.4-15.4 8.1-44.4 8.1-47.6 0-2.1-0.9-3.3-3.5-5.3q-0.8-0.7-1.7-1.1-0.9-0.5-1.8-0.7-1-0.3-2-0.4-1-0.1-2 0h-3.6q-0.7 0-1.4 0.1-0.7 0.2-1.4 0.4-0.7 0.2-1.3 0.5-0.7 0.3-1.3 0.6c-3.9 2.4-4.8 5-6.1 11.9l-11.8 62.3c-3.1 16.6-23.3 28.5-50.6 28.6-12.6 0.1-35.3-1.6-35.3-18.6q0.1-0.6 0.1-1.2 0.1-0.7 0.2-1.3 0.1-0.7 0.3-1.3 0.1-0.6 0.3-1.3c0 0 0-0.7 1.3-0.7l23.6-0.1c0 0 1.1 0 0.6 1.2q-0.3 0.7-0.6 1.4-0.3 0.7-0.4 1.5-0.2 0.8-0.3 1.5-0.1 0.8-0.1 1.6c0 6.3 6.6 8.8 12.1 8.8 20 0 20-23.5 23.2-36.7l-0.3-0.4q-2.3 3.3-5.3 6-3 2.7-6.6 4.5-3.6 1.9-7.5 2.8-3.9 0.9-7.9 0.9c-18.7 0.1-29.1-12.5-29.1-27.3 0-24.8 15.8-51.4 43.3-51.6 11 0 20.7 5.2 22.9 15.7h0.3l2-12.4c0 0 0.1-1 1.1-1.1h79.9c0 0 1-0.4 0.9 0.7l-3.2 15.1h0.3c8.2-12.3 19.2-18.6 29.2-18.6 9.6 0 15.2 6.3 15.2 14.2q0 1.5-0.1 3 3.8-4.1 8.4-7.4 4.6-3.3 9.8-5.6 5.2-2.3 10.7-3.4 5.6-1.2 11.3-1.3zm-169 30.2c0-8-1.8-16.1-11.9-16.1-15.2 0-20.3 26.3-20.3 38.1 0 7.3 2.3 14.8 11 14.8 16-0.1 21.2-24.7 21.2-36.8zm158.1 42.7c18.8-0.1 22.7-38.5 22.7-48.8 0-8.4-2.2-15.6-11-15.6-22.1 0.1-23.5 45.9-23.5 47.9 0 9.5 2.7 16.6 11.9 16.6zm-282.9 4.7c0 0 1.8 0.7 1.5 1.9q-0.1 0.2-0.2 0.4-0.2 0.2-0.3 0.3-0.2 0.1-0.4 0.2-0.2 0-0.4 0h-47.1c-1.7 0-1.8-0.8-1.8-0.8-0.3-1.1 1.6-2.1 1.6-2.1 8.2-4.7 7.7-3.3 10.1-14.4 2.2-9.9 13.7-73.1 13.7-79.8 0-2.1-1.5-5-6.5-7.1l-3.5-1.3c0 0-1.8-0.3-1.7-1.8 0 0 0.3-0.9 1-1l41.4-0.2q0.2 0 0.4 0.1 0.2 0.1 0.3 0.3 0.2 0.1 0.2 0.3 0.1 0.2 0 0.4c-3.5 13-6.4 30.5-8.3 41.1l-7.4 41.4q-0.4 1.5-0.6 3.1-0.3 1.5-0.5 3.1-0.2 1.5-0.4 3.1-0.2 1.5-0.3 3.1c0 4.7-0.2 5.9 9.1 9.7zm-64.2-56.8c10.3 3.9 18.3 9.4 18.3 23.7 0 11.8-10.2 38.9-56.8 39.1q-1 0-2 0-1 0-2-0.1-1.1-0.1-2.1-0.2-1-0.1-2-0.2c-24-1.5-29.3 0.7-29.3 0.7h-0.7c0 0-0.4 0.3-0.2-1l5.6-31.8c0.2-1.3 0.8-1.3 0.8-1.3 0 0 0.8-0.8 1.7 0.3 5 18.4 12.9 24.3 32.3 24.2 10.5 0 24.7-6.1 24.7-18.2 0-6.4-5.9-11.3-14.7-14.8l-15.8-6.3c-15.3-6.1-23.1-15.6-23.1-25.4 0-24.7 25.9-38.5 53-38.6 2.1 0 4.2 0.1 6.2 0.3 19 2.1 28.9-0.4 28.9-0.4h0.6c0 0 0.5-0.1 0.3 1l-4.8 28.1c-0.3 1.3-1.1 1.1-1.3 1.1q-0.2-0.1-0.4-0.2-0.1-0.1-0.3-0.2-0.1-0.2-0.2-0.3-0.1-0.2-0.2-0.4c-4.3-16.5-16.1-19.6-28.8-19.6-9.3 0-23 4.7-23 17.8 0 5.9 4.6 10.7 17.3 15.7l18.1 6.9z"/>
	<path id="Fill-11" fill-rule="evenodd" class="s3" d="m267.8 43.8q0.1 0.2 0.2 0.5 0 0.3 0 0.6 0 0.3-0.1 0.6l-14.8 41.4-2.2 11.1q-0.2 0.4-0.4 0.8-0.3 0.4-0.7 0.7-0.3 0.3-0.8 0.4-0.4 0.2-0.9 0.1h-48.4q-0.3 0-0.6 0-0.3-0.1-0.6-0.2-0.2-0.1-0.5-0.3-0.2-0.1-0.4-0.4-0.2-0.2-0.4-0.4-0.1-0.2-0.2-0.5-0.1-0.3-0.1-0.6 0-0.2 0-0.5l2.2-11.1 1.6-41.4q0-0.5 0.3-0.9 0.2-0.5 0.6-0.8 0.4-0.4 0.9-0.5 0.5-0.2 1-0.2h12.6l0.9-7.7q0.1-0.4 0.3-0.9 0.3-0.4 0.7-0.7 0.3-0.3 0.8-0.5 0.5-0.2 1-0.1h33.1q0.3 0 0.6 0 0.3 0.1 0.6 0.2 0.2 0.1 0.5 0.3 0.2 0.2 0.5 0.4 0.1 0.3 0.3 0.5 0.1 0.3 0.2 0.6 0 0.2 0 0.5 0 0.3 0 0.6l-2 6.8h11.6q0.3 0 0.6 0.1 0.4 0 0.7 0.2 0.2 0.1 0.5 0.3 0.3 0.2 0.5 0.5 0.2 0.2 0.3 0.5zm-20.8 45h-42.7l-1.3 6.2h42.8zm-42.2-5h6.6l3.4-36.5h-8.6zm12.3 0h6.6l9.2-46.5h-10.6zm12.3 0h6.6l13.2-46.4h-10.6zm32-36.5h-8.4l-11.1 36.5h6.3z"/>
	<path id="Fill-13" fill-rule="evenodd" class="s2" d="m273.2 43.8q0.2 0.2 0.2 0.5 0.1 0.3 0.1 0.6-0.1 0.3-0.2 0.6l-14.8 41.4-2.2 11.1q-0.1 0.4-0.4 0.8-0.2 0.4-0.6 0.7-0.4 0.3-0.8 0.4-0.5 0.2-0.9 0.1h-48.4q-0.3 0-0.6 0-0.3-0.1-0.6-0.2-0.3-0.1-0.5-0.3-0.3-0.1-0.5-0.4-0.2-0.2-0.3-0.4-0.2-0.3-0.2-0.5-0.1-0.3-0.1-0.6 0-0.2 0-0.5l0.5-2.5h45.6q0.5 0 0.9-0.1 0.5-0.2 0.9-0.4 0.3-0.3 0.6-0.7 0.3-0.4 0.4-0.9l2.2-11.1 14-39.2h3.2q0.3 0 0.6 0.1 0.3 0 0.6 0.2 0.3 0.1 0.6 0.3 0.2 0.2 0.4 0.5 0.2 0.2 0.3 0.5zm-12.6-7h-6.6l1.3-4.5h3q0.3 0 0.6 0 0.3 0.1 0.6 0.2 0.3 0.1 0.6 0.3 0.2 0.2 0.4 0.4 0.2 0.3 0.4 0.5 0.1 0.3 0.2 0.6 0 0.3 0 0.5 0 0.3-0.1 0.6z"/>
	<path id="Fill-15" fill-rule="evenodd" class="s0" d="m235.7 175.8c0 0 1.8 0.7 1.4 1.9q0 0.2-0.1 0.4-0.2 0.1-0.3 0.2-0.2 0.2-0.4 0.2-0.2 0.1-0.4 0.1h-47.5c-1.6 0-1.7-0.9-1.7-0.9-0.3-1.1 1.6-2.1 1.6-2.1 8.2-4.7 7.7-3.4 10.2-14.5 3.5-15.4 8.2-45.3 8.2-47.7 0-1.3-1.3-4.7-6.4-7.2l-4.4-1.7q-0.2 0-0.4-0.2-0.1-0.1-0.2-0.3-0.1-0.2-0.2-0.4 0-0.3 0-0.5c0 0 0.5-0.9 1.1-1l41.2-0.2c0 0 1.1-0.4 1 1.1-3.6 13.1-6.4 30.7-8.4 41.3-3.2 17-3.5 20.1-3.5 21.7 0 4.7-0.1 5.9 9.1 9.8m237.6-77.7c23.8-0.1 41 11.2 41 34.4 0 23.3-17.4 46.8-53.2 47-22.6 0.1-39.5-10.3-39.5-34q0-2.5 0.3-5 0.3-2.4 0.8-4.9 0.5-2.4 1.4-4.7 0.8-2.3 1.9-4.6h-18.2c-1.3 0-0.9-0.6-0.7-1.1q0.4-0.8 0.7-1.6 0.3-0.8 0.5-1.6 0.2-0.8 0.3-1.7 0.1-0.8 0.2-1.7 0.1-1-0.3-1.9-0.3-1-1-1.7-0.7-0.8-1.6-1.2-0.9-0.4-1.9-0.4c-5.8 0.1-14.6 7.8-17.2 18.4-2.8 11.3-5.1 26.3-5.1 34.3 0 5 1.4 5.4 10.2 8.5 0 0 1.7 0.6 1.6 1.8-0.1 0.8-1.3 1.2-1.3 1.2h-49.9c-0.6-0.1-1-1-1-1 0 0-0.1-1 1.4-1.8 7.8-4.3 8.2-3.7 10.7-14.7 3.4-15.5 8-44.5 8-47.7 0-2-0.8-3.2-3.5-5.3q-0.7-0.6-1.5-1-0.9-0.4-1.7-0.7-0.9-0.3-1.9-0.4-0.9-0.2-1.8-0.1h-3.5q-0.8 0-1.6 0.1-0.8 0.2-1.5 0.4-0.8 0.2-1.5 0.5-0.8 0.3-1.5 0.7c-3.8 2.4-4.7 5-6.1 11.9l-11.7 62.3c-3.1 16.6-23.4 28.5-50.6 28.6-12.6 0.1-35.3-1.6-35.3-18.5q0.1-0.7 0.1-1.3 0.1-0.7 0.2-1.3 0.1-0.7 0.2-1.3 0.2-0.7 0.4-1.3c0 0 0-0.8 1.3-0.8l23.6-0.1c0 0 1.1 0.1 0.6 1.3q-0.3 0.7-0.6 1.4-0.3 0.7-0.5 1.5-0.1 0.7-0.2 1.5-0.1 0.8-0.2 1.6c0 6.3 6.7 8.9 12.2 8.9 20-0.2 20-23.6 23.2-36.9l-0.3-0.3q-2.3 3.3-5.3 6-3 2.7-6.6 4.5-3.6 1.9-7.5 2.8-3.9 0.9-8 0.9c-18.7 0.1-29-12.5-29-27.3 0-24.8 15.7-51.5 43.3-51.6 11 0 20.7 5.2 22.9 15.7h0.3l2-12.4c0 0 0.1-1.1 1-1.1h79.9c0 0 1.1-0.4 1 0.6l-3.2 15.2h0.3c8.2-12.3 19.1-18.6 29.2-18.6 9.6 0 15.2 6.3 15.2 14.2q0 1.5-0.2 3 3.9-4.2 8.5-7.4 4.6-3.3 9.8-5.6 5.2-2.3 10.7-3.5 5.6-1.1 11.2-1.2zm-168.9 30.2c0-8-1.8-16.1-11.9-16.1-15.2 0-20.3 26.3-20.3 38.1 0 7.3 2.3 14.8 11 14.8 16-0.1 21.2-24.7 21.2-36.8zm158.2 42.8c18.8-0.2 22.6-38.6 22.6-48.9 0-8.4-2.1-15.6-10.9-15.6-22.2 0.1-23.6 45.9-23.6 47.9 0 9.5 2.8 16.6 12 16.6zm-347.3-52.2c10.2 3.9 18.2 9.5 18.2 23.7 0 11.8-10.2 38.9-56.8 39.1q-1 0-2 0-1 0-2-0.1-1.1-0.1-2.1-0.1-1-0.1-2-0.3c-24-1.5-29.3 0.7-29.3 0.7h-0.7c0 0-0.4 0.3-0.2-1l5.6-31.8c0.2-1.3 0.8-1.3 0.8-1.3 0 0 0.8-0.8 1.8 0.3 4.9 18.4 12.8 24.3 32.2 24.2 10.5 0 24.7-6.1 24.7-18.2 0-6.4-5.8-11.3-14.7-14.8l-15.7-6.3c-15.3-6.1-23.2-15.6-23.2-25.4 0-24.7 25.9-38.5 53-38.6 2.1 0 4.2 0.1 6.2 0.3 19 2.2 28.9-0.4 28.9-0.4h0.6c0 0 0.5-0.1 0.3 1l-4.7 28.1c-0.4 1.3-1.4 1.1-1.4 1.1-0.9-0.1-1.1-1.1-1.1-1.1-4.3-16.5-16.1-19.6-28.8-19.6-9.3 0-23 4.7-23 17.8 0 5.9 4.7 10.8 17.4 15.7l18.1 7zm64.1 56.9c0 0 1.8 0.7 1.5 1.9q-0.1 0.2-0.2 0.4-0.1 0.2-0.3 0.3-0.2 0.1-0.4 0.2-0.2 0-0.4 0h-47.1c-1.6 0-1.8-0.9-1.8-0.9-0.3-1.1 1.6-2 1.6-2 8.2-4.8 7.7-3.3 10.2-14.4 2.1-9.9 13.6-73.1 13.6-79.8 0-2.2-1.5-5-6.5-7.2l-3.5-1.3c0 0-1.8-0.2-1.7-1.7 0 0 0.3-0.9 1-1l41.4-0.2q0.2 0 0.4 0.1 0.2 0.1 0.3 0.3 0.2 0.1 0.2 0.3 0.1 0.2 0 0.4c-3.5 12.9-6.4 30.5-8.3 41.1l-7.4 41.4q-0.4 1.5-0.6 3.1-0.3 1.5-0.5 3.1-0.2 1.5-0.3 3.1-0.2 1.5-0.3 3.1c0 4.7-0.2 5.9 9.1 9.7z"/>
	<path id="Fill-17" fill-rule="evenodd" class="s3" d="m354.8 30c22.2 16.3 22.1 53.4 3.6 94q-2.5 5.6-5.4 11-2.9 5.5-6 10.8-3.1 5.2-6.5 10.3-3.4 5.1-7.1 10.1l5.2-26.8q1.4-2.4 2.8-4.7 1.4-2.4 2.7-4.8 1.3-2.4 2.5-4.8 1.3-2.4 2.5-4.9c17.7-37.2 18.5-70.7-2.4-86-14.7-10.8-39.6-7.9-68.4 7.4 0 0-1.6 0.7-2.3-0.2-0.9-1.1 0.8-2.4 0.8-2.4 33.8-20.8 61.2-21.3 78-9m-67.2 184.5q-0.1 0-0.1 0 0 0 0.1 0zm-0.1 0c-2.7 0.3-5.5 0.5-8.3 0.5q-1.3 0-2.6 0-1.3-0.1-2.6-0.1-1.3-0.1-2.6-0.1-1.3-0.1-2.5-0.3c-38.1 27.4-76.7 37-98.9 20.8-22.5-16.5-17.7-55.3 2.6-95.6 0.3-0.7 0.5-1.9-0.3-2.2q-0.3-0.1-0.6-0.1-0.4-0.1-0.6 0-0.3 0.1-0.6 0.3-0.2 0.2-0.4 0.5c-26.7 46.6-30.9 91.1-5.6 109.6 26.8 19.6 77.1 4.6 123-33.3z"/>
</svg>