<svg version="1.2" xmlns="http://www.w3.org/2000/svg" viewBox="0 0 1546 824" width="1546" height="824">
	<title>logo - 2022-09-30T120324</title>
	<style>
		.s0 { fill: #ffffff } 
		.s1 { fill: #004931 } 
		.s2 { fill: #000000 } 
		.s3 { fill: #fcbf00 } 
	</style>
	<path id="Fill-4" fill-rule="evenodd" class="s0" d="m772.8 823.2c-427.4 0-772.8-183.8-772.8-411.2 0-227.4 345.4-411.2 772.8-411.2 427.4 0 772.8 183.8 772.8 411.2 0 227.4-345.4 411.2-772.8 411.2z"/>
	<path id="Fill-7" fill-rule="evenodd" class="s1" d="m774.3 783.3c-411.1 0-743.3-174.9-743.3-391.2 0-216.4 332.2-391.3 743.3-391.3 411.1 0 743.4 174.9 743.4 391.3 0 216.3-332.3 391.2-743.4 391.2z"/>
	<path id="Fill-9" fill-rule="evenodd" class="s2" d="m686.9 516q-0.2 0.6-0.5 1.1-0.4 0.4-0.9 0.8-0.5 0.3-1 0.5-0.6 0.1-1.2 0.1h-134.3c-4.6 0-4.9-2.5-4.9-2.5-1-3.1 4.4-5.9 4.4-5.9 23.2-13.3 22-9.7 29.1-40.9 9.7-43.6 23-128.4 23-135.3 0-3.7-3.6-13.3-18.2-20.4l-12.3-4.7q-0.6-0.2-1-0.6-0.5-0.4-0.8-1-0.3-0.5-0.4-1.2-0.1-0.6 0-1.2c0 0 1.3-2.5 3-2.8l116.8-0.5c0 0 3.1-1.3 2.7 3-10.1 37-18.1 86.8-23.6 116.8-9 48.4-9.9 56.7-9.9 61.7 0 13.2-0.5 16.6 25.9 27.6 0 0 5 2 4.1 5.4zm668.6-225.4c67.5-0.3 116.1 31.8 116.1 97.6 0 65.8-49.1 132.5-150.7 132.9-63.9 0.3-111.7-29-111.7-96.3q0-7 0.8-14 0.7-7 2.3-13.8 1.5-6.8 3.8-13.5 2.3-6.6 5.4-12.9h-51.5c-3.6-0.2-2.5-1.8-1.8-3.2q1-2.2 1.8-4.5 0.8-2.2 1.4-4.6 0.6-2.3 1-4.7 0.3-2.4 0.4-4.8c0.2-1.9 0-3.8-0.6-5.6-0.6-1.8-1.6-3.4-2.8-4.8-1.3-1.4-2.9-2.5-4.6-3.3-1.8-0.7-3.6-1.1-5.5-1.1-16.2 0.1-41.2 22-48.7 52-7.9 32.1-14.4 74.5-14.4 97.2 0 14.3 4 15.3 29 24.2 0 0 4.7 1.5 4.4 4.9-0.2 2.5-3.7 3.4-3.7 3.4h-141.2c-1.9-0.1-3-2.8-3-2.8 0 0-0.1-2.8 4.1-4.9 22.2-12.3 23.2-10.6 30.2-41.8 9.7-43.7 22.8-125.9 22.8-134.9 0-5.8-2.5-9.2-9.8-15.1q-2.3-1.7-4.8-3-2.5-1.3-5.3-2.1-2.7-0.8-5.5-1.1-2.8-0.3-5.6 0h-10.2q-2 0.1-4 0.5-2 0.4-4 1-1.9 0.6-3.8 1.3-1.9 0.8-3.7 1.8c-10.8 6.9-13.5 14.1-17.2 33.8l-33.3 176.4c-8.8 47.1-66.1 80.7-143.3 81.1-35.8 0.1-99.8-4.8-99.8-52.7q0-1.8 0.2-3.6 0.2-1.8 0.5-3.7 0.3-1.8 0.7-3.6 0.4-1.8 0.9-3.5c0 0 0-2.2 3.7-2.2l67-0.3c0 0 3.1 0 1.7 3.4q-1 2-1.8 4.1-0.7 2.1-1.3 4.2-0.5 2.2-0.8 4.4-0.3 2.2-0.3 4.4c0 18 18.7 25 34.5 25 56.5-0.2 56.5-66.5 65.7-104.2l-0.9-0.8c-4.3 6.2-9.4 11.8-15.1 16.8-5.6 5-11.9 9.3-18.6 12.8-6.8 3.5-13.9 6.1-21.3 7.9-7.3 1.8-14.9 2.7-22.5 2.6-52.8 0.3-82.3-35.5-82.3-77.5 0-70.1 44.6-145.6 122.6-145.9 31.1 0 58.7 14.7 64.8 44.3h0.9l5.7-35c0 0 0.3-3 3-3.3h226.2c0 0 3-0.9 2.7 2l-9.1 42.9h0.9c23.2-34.8 54.3-52.6 82.7-52.6 27.2-0.1 42.9 17.8 42.9 40q0.1 4.3-0.3 8.6c7.3-7.8 15.3-14.8 24-21 8.7-6.2 18-11.5 27.7-15.8 9.8-4.2 20-7.5 30.4-9.8 10.4-2.2 21-3.3 31.7-3.4zm-478.3 85.3c0-22.7-5.3-45.6-33.8-45.6-42.9 0.2-57.3 74.7-57.3 108.1 0 20.5 6.4 41.7 31.1 41.7 45.2-0.2 60-69.8 60-104.2zm447.6 121.2c53.2-0.5 64.1-109.1 64.1-138.3 0-23.9-6.1-44.3-31.1-44.3-62.6 0.3-66.6 130.2-66.6 135.8 0 26.9 7.9 46.9 33.8 46.9zm-801 13.4c0 0 5.1 2 4.1 5.4q-0.1 0.6-0.5 1.1-0.3 0.5-0.8 0.8-0.5 0.3-1.1 0.5-0.6 0.2-1.2 0.1h-133.4c-4.6 0-4.9-2.4-4.9-2.4-1-3.1 4.4-5.9 4.4-5.9 23.2-13.4 21.8-9.3 28.8-40.6 6.2-28.2 38.5-207.2 38.5-226 0-6.1-4.1-14.2-18.3-20.4l-9.8-3.7c0 0-5.3-0.5-5-4.9 0 0 1.1-2.4 3.1-2.8l117.1-0.5q0.6 0 1.1 0.2 0.6 0.3 0.9 0.7 0.4 0.5 0.6 1.1 0.1 0.5 0 1.1c-10.1 36.6-18.1 86.4-23.7 116.3l-21 117.3q-0.8 4.3-1.6 8.7-0.8 4.3-1.4 8.7-0.6 4.4-1.1 8.8-0.4 4.4-0.8 8.8c0 13.3-0.5 16.7 25.8 27.7zm-181.7-161c28.9 11 51.7 26.7 51.7 67 0 33.5-28.9 110.3-160.8 110.9q-2.8 0-5.7-0.1-2.9-0.1-5.8-0.3-2.9-0.1-5.8-0.4-2.9-0.3-5.7-0.6c-67.9-4.5-83 1.9-83 1.9h-2c0 0-1.1 0.9-0.5-2.7l15.9-90.3c0.5-3.5 2.2-3.5 2.2-3.5 0 0 2.2-2.3 5 0.8 14 52.2 36.5 68.9 91.2 68.6 29.8-0.1 70.1-17.3 70.1-51.7 0-18-16.7-32-41.6-41.9l-44.7-17.7c-43.3-17.4-65.7-44.3-65.7-72.1 0-69.8 73.6-108.8 150.3-109.2 5.9 0 11.8 0.3 17.4 0.7 54 6.2 82-1.1 82-1.1h1.6c0 0 1.5-0.3 0.9 3l-13.5 79.4c-0.9 3.6-3.4 3.2-3.7 3.1q-0.6-0.1-1.1-0.4-0.6-0.2-1-0.7-0.4-0.4-0.7-0.9-0.3-0.5-0.4-1.1c-12.3-46.6-45.6-55.4-81.5-55.4-26.3 0.1-65.3 13.1-65.3 50.5 0 16.6 13.1 30.3 49.1 44.3l51.2 19.7z"/>
	<path id="Fill-11" fill-rule="evenodd" class="s3" d="m758.2 121.9q0.4 0.8 0.5 1.6 0.2 0.9 0.1 1.7-0.1 0.9-0.3 1.7l-42 117.2-6.2 31.4q-0.3 1.3-1.1 2.4-0.7 1.1-1.8 1.9-1 0.8-2.3 1.2-1.3 0.4-2.6 0.3h-137.1q-0.8 0-1.6-0.1-0.9-0.2-1.7-0.5-0.7-0.4-1.4-0.8-0.7-0.5-1.3-1.1-0.6-0.6-1-1.3-0.4-0.7-0.6-1.4-0.2-0.8-0.3-1.6 0-0.8 0.2-1.5l6.2-31.4 4.4-117.2q0.1-1.4 0.8-2.7 0.6-1.3 1.7-2.3 1.1-1 2.5-1.4 1.4-0.5 2.9-0.5h35.8l2.4-21.7q0.3-1.4 1-2.6 0.7-1.2 1.7-2.1 1.1-0.9 2.5-1.3 1.3-0.5 2.7-0.4h93.7q0.9 0 1.7 0.2 0.9 0.1 1.7 0.5 0.8 0.4 1.5 0.9 0.7 0.5 1.3 1.1 0.5 0.7 0.9 1.4 0.4 0.7 0.6 1.5 0.2 0.8 0.2 1.7-0.1 0.8-0.3 1.6l-5.5 19.2h32.8q0.9 0 1.8 0.2 0.9 0.2 1.8 0.6 0.8 0.4 1.5 0.9 0.7 0.6 1.3 1.3 0.6 0.7 0.9 1.4zm-58.9 127.6h-120.9l-3.5 17.6h121zm-119.4-14.3h18.8l9.4-103.4h-24.3zm34.8 0h18.9l26-131.5h-30.2zm35 0h18.6l37.4-131.5h-30zm90.5-103.4h-23.6l-31.5 103.4h17.9z"/>
	<path id="Fill-13" fill-rule="evenodd" class="s2" d="m773.7 121.9q0.4 0.8 0.5 1.6 0.2 0.9 0.1 1.7-0.1 0.9-0.4 1.7l-41.9 117.2-6.2 31.4q-0.3 1.3-1.1 2.4-0.7 1.1-1.8 1.9-1 0.8-2.3 1.2-1.3 0.4-2.6 0.3h-137.1q-0.8 0-1.7-0.1-0.8-0.2-1.6-0.5-0.8-0.4-1.5-0.8-0.7-0.5-1.2-1.1-0.6-0.6-1-1.3-0.4-0.7-0.6-1.4-0.2-0.8-0.3-1.6 0-0.8 0.1-1.5l1.4-7h129.2q1.3 0 2.6-0.4 1.2-0.4 2.3-1.2 1.1-0.8 1.8-1.9 0.8-1.1 1.1-2.4l6.2-31.4 39.8-111.2h8.9q0.9 0 1.8 0.2 0.9 0.2 1.7 0.6 0.9 0.4 1.6 0.9 0.7 0.6 1.3 1.3 0.5 0.7 0.9 1.4zm-35.7-19.7h-18.7l3.7-12.8h8.5q0.8 0 1.7 0.2 0.9 0.1 1.7 0.5 0.8 0.4 1.5 0.9 0.7 0.5 1.3 1.1 0.6 0.7 0.9 1.4 0.4 0.7 0.6 1.5 0.2 0.9 0.1 1.7 0 0.8-0.2 1.6z"/>
	<path id="Fill-15" fill-rule="evenodd" class="s0" d="m667.4 495.9c0 0 5.1 2 4.1 5.4q-0.2 0.5-0.6 1-0.3 0.5-0.8 0.8-0.5 0.3-1.1 0.5-0.5 0.2-1.1 0.1h-134.3c-4.6 0-5-2.4-5-2.4-0.9-3.1 4.5-5.9 4.5-5.9 23.2-13.4 22-9.7 29-41 9.8-43.6 23.1-128.4 23.1-135.2 0-3.8-3.7-13.4-18.2-20.5l-12.3-4.6q-0.6-0.3-1.1-0.7-0.4-0.4-0.7-0.9-0.3-0.6-0.4-1.2-0.1-0.6 0-1.2c0 0 1.3-2.5 3-2.9l116.8-0.5c0 0 3.1-1.2 2.7 3-10.1 37-18.1 86.9-23.7 116.9-9 48.3-9.9 56.9-9.9 61.6 0 13.2-0.4 16.6 25.8 27.7m672.6-220.1c67.5-0.3 116.1 31.8 116.1 97.6 0 65.8-49.1 132.4-150.7 132.9-64 0.3-111.7-29.1-111.7-96.3q0-7.1 0.8-14 0.7-7 2.3-13.8 1.5-6.9 3.9-13.5 2.3-6.6 5.3-12.9h-51.4c-3.7-0.2-2.5-1.8-1.9-3.2q1-2.2 1.8-4.5 0.8-2.3 1.4-4.6 0.6-2.3 1-4.7 0.3-2.4 0.5-4.8c0.1-1.9-0.1-3.8-0.7-5.6-0.6-1.8-1.6-3.4-2.8-4.8-1.3-1.4-2.9-2.5-4.6-3.3-1.8-0.7-3.6-1.1-5.5-1.1-16.3 0.1-41.2 22-48.6 52-7.9 32.1-14.5 74.5-14.5 97.2 0 14.3 4 15.3 29 24.2 0 0 4.7 1.5 4.4 4.9-0.2 2.4-3.7 3.4-3.7 3.4h-141.2c-1.8-0.2-3-2.8-3-2.8 0 0-0.1-2.9 4.2-5 22-12.3 23.1-10.5 30.1-41.8 9.7-43.7 22.8-125.9 22.8-134.8 0-5.8-2.5-9.2-9.9-15.1q-2.1-1.7-4.4-2.9-2.3-1.2-4.9-2-2.5-0.9-5.1-1.2-2.6-0.4-5.3-0.3h-9.8q-2.3 0.1-4.5 0.5-2.2 0.3-4.4 0.9-2.2 0.7-4.3 1.5-2 0.9-4 2c-10.8 6.8-13.5 14.1-17.2 33.8l-33.4 176.3c-8.7 47.1-66.1 80.8-143.2 81.1-35.8 0.2-99.9-4.7-99.9-52.6q0.1-1.8 0.3-3.6 0.2-1.9 0.5-3.7 0.3-1.8 0.7-3.6 0.4-1.8 0.9-3.6c0 0 0-2.2 3.7-2.2l67-0.3c0 0 3 0.1 1.7 3.4q-1 2-1.8 4.1-0.8 2.1-1.3 4.2-0.5 2.2-0.8 4.4-0.3 2.2-0.3 4.4c0 18 18.7 25.1 34.5 25.1 56.5-0.3 56.5-66.6 65.7-104.2l-0.9-0.9c-4.3 6.2-9.4 11.9-15.1 16.9-5.7 5-12 9.3-18.7 12.8-6.7 3.5-13.9 6.1-21.2 7.9-7.4 1.7-15 2.6-22.5 2.6-53 0.2-82.3-35.6-82.3-77.5 0-70.2 44.6-145.6 122.6-146 31.1 0 58.7 14.8 64.8 44.3h0.9l5.7-34.9c0 0 0.3-3.1 3-3.3h226.2c0 0 3-1 2.6 1.9l-9.1 42.9h0.9c23.2-34.7 54.3-52.6 82.8-52.6 27.1-0.1 42.9 17.8 42.9 40.1q0 4.2-0.3 8.5c7.2-7.8 15.3-14.8 23.9-21 8.7-6.2 18-11.4 27.8-15.7 9.7-4.3 19.9-7.6 30.3-9.8 10.4-2.2 21.1-3.4 31.7-3.5zm-478.2 85.4c0-22.7-5.2-45.6-33.7-45.6-43 0.2-57.4 74.7-57.4 108 0 20.6 6.4 41.8 31.1 41.8 45.2-0.2 60-69.8 60-104.2zm447.9 121.2c53.1-0.5 64.1-109.2 64.1-138.3 0-23.9-6.2-44.3-31.1-44.3-62.7 0.3-66.6 130.1-66.6 135.8 0 26.9 7.9 46.9 33.8 46.9zm-983.5-147.8c29 11 51.8 26.8 51.8 67.1 0 33.4-29 110.2-160.8 110.8q-2.9 0-5.8-0.1-2.8 0-5.7-0.2-2.9-0.2-5.8-0.5-2.9-0.2-5.7-0.6c-67.9-4.4-83 1.9-83 1.9h-2c0 0-1.2 0.9-0.6-2.7l16-90.3c0.4-3.5 2.2-3.5 2.2-3.5 0 0 2.1-2.4 5 0.7 14 52.3 36.4 69 91.2 68.7 29.8-0.1 70.1-17.3 70.1-51.7 0-18-16.7-32-41.6-41.9l-44.7-17.7c-43.4-17.4-65.7-44.3-65.7-72.2 0-69.7 73.6-108.7 150.2-109.1 6 0 11.8 0.3 17.4 0.7 54.1 6.2 82.1-1.1 82.1-1.1h1.5c0 0 1.6-0.3 1 3l-13.5 79.4c-1 3.6-3.8 3.1-3.8 3.1-2.5-0.3-3.1-3.1-3.1-3.1-12.3-46.6-45.7-55.4-81.6-55.4-26.3 0.1-65.3 13.1-65.3 50.4 0 16.7 13.4 30.4 49.3 44.4l51.2 19.9zm181.7 161.2c0 0 5.1 2 4.1 5.4q-0.2 0.5-0.5 1-0.4 0.5-0.9 0.8-0.4 0.4-1 0.5-0.6 0.2-1.2 0.2h-133.4c-4.6 0-4.9-2.5-4.9-2.5-1-3.1 4.4-5.9 4.4-5.9 23.2-13.3 21.8-9.3 28.8-40.6 6.1-28.2 38.5-207.1 38.5-225.9 0-6.3-4.1-14.2-18.3-20.4l-9.9-3.7c0 0-5.2-0.6-4.9-4.9 0 0 1-2.5 3-2.8l117.2-0.6q0.6 0 1.1 0.3 0.6 0.2 0.9 0.7 0.4 0.5 0.5 1 0.2 0.6 0 1.2c-10 36.5-18.1 86.3-23.6 116.2l-21 117.3q-0.9 4.4-1.6 8.7-0.7 4.4-1.3 8.8-0.6 4.3-1.1 8.7-0.4 4.4-0.7 8.8c0 13.3-0.5 16.7 25.8 27.8z"/>
	<path id="Fill-17" fill-rule="evenodd" class="s3" d="m1004.6 83c63 46.2 62.5 151.2 10.3 266.3q-7.3 15.8-15.4 31.2-8.1 15.4-16.9 30.3-8.9 14.9-18.6 29.4-9.6 14.4-20 28.4l14.8-75.9q4-6.6 7.9-13.3 3.9-6.6 7.6-13.4 3.7-6.8 7.2-13.7 3.5-6.8 6.8-13.8c50.3-105.5 52.5-200.4-6.6-243.6-41.8-30.7-112.1-22.4-193.6 20.9 0 0-4.6 2-6.5-0.4-2.7-3.3 2.2-6.9 2.2-6.9 95.7-59 173.2-60.3 220.9-25.4m-190.5 522.4q0 0.1-0.1 0.1 0.1 0 0.1 0zm-0.1 0c-7.6 0.8-15.5 1.3-23.6 1.3q-3.7 0-7.3-0.1-3.7 0-7.3-0.2-3.7-0.1-7.3-0.4-3.7-0.2-7.3-0.6c-107.8 77.4-217.1 104.8-279.8 58.8-63.8-46.8-50.3-156.6 7.1-270.7 1.1-2 1.5-5.4-0.8-6.2q-0.8-0.4-1.7-0.5-0.9 0-1.8 0.3-0.8 0.2-1.5 0.8-0.7 0.6-1.1 1.4c-75.7 131.9-87.5 257.9-15.9 310.4 75.7 55.4 218.2 13.1 348.3-94.3z"/>
</svg>