<svg version="1.2" xmlns="http://www.w3.org/2000/svg" viewBox="0 0 1139 1524" width="1139" height="1524">
	<title>safari-pinned-tab (2)-svg</title>
	<style>
		.s0 { fill: #ffffff } 
	</style>
	<g id="Layer">
		<path id="Layer" fill-rule="evenodd" class="s0" d="m784.5 6.8c88.1 14.3 154.3 44.8 204 93.9 21.2 20.9 27.3 29 36.9 49.6 15.7 34 20.6 56.4 20.6 94.4 0 37.5-4.6 57.8-19.4 86-25.3 48.5-71.8 77.6-131.4 82.5-36 2.9-72.3-8.1-75.2-23.2-0.6-2.9 5.2-14.5 13.3-26.2 29.1-41.8 38.4-68.2 38.4-110.6 0-62.8-27.9-109.5-80.5-135.7-23.8-11.9-25.6-12.2-58.4-13.3-25.6-0.9-38.9 0-52.9 3.4-57.2 14.9-99.9 54.6-118.2 110.7-6.4 19.8-7.6 28.2-7.3 56.7 0.3 51.7 10.5 90 36.3 135 24.4 43 75.8 98.2 177 190 54.9 49.7 95.8 93.8 135.1 144.9 10.1 13.4 40.1 68.6 51.4 95 14 32.6 27 84.8 31.4 125.5 3.5 30.8 4.1 33.7 10.4 36 13.1 5 60.8 3.2 126.4-4.9 16.3-2 16.6-1.7 16.6 5.2 0 11.9-8.1 34.9-17.1 49.4-17.2 27-53.8 45.6-104.4 53.2-15.1 2.3-28.1 4.6-28.7 5.2-0.6 0.9-5.5 18.9-10.8 40.4-33.1 133.3-108.6 235.8-225.4 305.5-52.6 31.4-109.9 49.7-190.4 60.8-63.3 8.7-213.5 9.3-257.1 1.1-84.3-16-191.2-70-238.9-120.8-33.1-34.9-55.7-80.8-63.3-128.7-4.9-31.1-2.3-87.7 5.5-114.2 15.1-51.7 47.7-101 88.9-135.9 36.4-30.5 115.4-63.9 190.4-79.9 34.2-7.2 40.9-7.5 114.7-7.8 81.4 0 112.8 2.9 205.7 18.9 17.8 2.9 32.9 4.9 33.5 4.6 0.2-0.6-6.4-15.1-15.1-32.5-33.5-66.3-73.6-120-169.2-226.3-64.5-71.5-82.2-93-109.5-133.6-27-40.4-47.7-81.9-59.3-119.1-7.5-24.7-7.8-29.1-8.1-84.3 0-63.9 1.7-74 20-119.3 28.8-72.4 97.4-143.3 175.8-182.8 48-23.8 119.2-44.4 174.7-50.5 16.8-1.7 34.5-3.8 39.2-4.4 15.1-1.7 65.6 1.5 94.4 6.1zm-290.5 1071.6c-30.8 2.9-78.5 10.5-98.8 16-30.5 8.1-53.8 21.5-75.6 43.3-35.1 34.8-51.1 78.1-43.9 119.1 10.2 56.6 52.6 98.7 112.5 112.1 29.9 6.4 97.6 4.3 128.4-4.4 58.7-16.5 121.5-89.1 143-165.8 7.8-28.5 11.9-103.7 5.5-106.1-2.3-0.5-19.2-4-37.5-6.9-32.5-5.5-107.5-9.6-133.6-7.3z"/>
	</g>
</svg>