<svg version="1.2" xmlns="http://www.w3.org/2000/svg" viewBox="0 0 1534 1215" width="1534" height="1215">
	<title>SLP_2020-ESG-Report-2-1-pdf-svg</title>

	<style>
		.s0 { fill: #0c3f8e } 
		.s1 { fill: #3386bd } 
		.s2 { fill: #ffffff } 
	</style>
	<g id="Clip-Path: Page 1" clip-path="url(#cp1)">
		<g id="Page 1">
			<path id="Path 11" class="s0" d="m802 214.8v795.1c-4.8 126.5-114.2 221.3-242.9 201.9-128.7-19.5-437.2-90-437.2-90-72.9-41.3-104.5-124-114.2-162.9-7.3-31.6-7.3-634.7-7.3-634.7 2.4-109.4 72.9-214 123.9-233.5 51-19.4 51-19.4 442.1-89.9 116.6-7.3 245.3 77.8 235.6 214z"/>
			<path id="Path 12" class="s1" d="m639.3 1206.9c0 0 672.8-82.7 706.9-90 34-7.3 182.1-53.5 184.6-170.2l2.4-671.1c0 0-7.3-153.2-155.5-177.6-148.1-24.3-767.6-94.8-767.6-94.8 99.6 17 194.3 94.8 187.1 211.6v795.1c-4.9 97.3-70.5 175.1-157.9 199.4z"/>
			<path id="Path 13" class="s2" d="m1110.5 893.2l-2.4-235.9h-223.5l-2.4-131.3 223.5 7.3-2.5-238.3 131.2 14.6 2.4 226.1 226 7.3v114.3h-226l2.5 228.6z"/>
			<path id="Path 14" class="s2" d="m522.7 457.9l153-9.7c0-160.5-38.9-197-177.3-201.8-138.5-2.5-315.8 29.2-354.7 97.2-38.9 77.9-41.3 260.2 31.6 284.6 38.9 12.1 34 24.3 240.5 38.9 85 9.7 128.7 4.8 123.9 114.2-4.9 53.5-9.7 80.3-85.1 82.7-46.1 0-179.7-7.3-199.1-26.7-17-21.9-26.8-26.8-29.2-104.6l-111.7-4.8c4.8 121.5 7.3 179.9 114.1 211.5 109.3 31.6 233.2 36.5 255.1 36.5 24.3 2.4 155.5 7.3 182.2-55.9 21.8-41.4 46.1-133.8 34-194.6-7.3-58.3-29.2-138.6-116.6-153.2-87.5-17-148.2-19.4-196.8-21.9-41.3-2.4-128.7 0-140.9-29.1-12.1-31.7-12.1-87.6-4.8-107 7.3-19.5 26.7-31.7 43.7-36.5 14.6-4.9 114.2-21.9 165.2-17 51 4.8 58.3 0 72.9 97.2z"/>
		</g>
	</g>
</svg>