<svg version="1.2" xmlns="http://www.w3.org/2000/svg" viewBox="0 0 1243 1550" width="1243" height="1550">
	<title>primary-logo-black-svg</title>
	<style>
		.s0 { fill: #151a22 } 
	</style>
	<path id="Layer" class="s0" d="m469 503.6c-109.6-1.5-197.2-102.7-195.8-226.2h3.4c109.5 1.5 197.1 102.7 195.7 226.3m-211.2 89l-1.3 3.4c-42.7 113.8-158.9 167-259.8 118.8l1.3-3.5c42.7-113.8 158.9-166.9 259.8-118.7zm981.9 135.9c-100.9 48.2-217.2-4.9-259.8-118.8l-1.3-3.4c100.9-48.1 217.2 5 259.8 118.8zm-242.7-429l-0.6 3.6c-20.3 121.5-124.1 201.1-231.7 178.1l0.6-3.7c20.4-121.4 124-201 231.7-178zm-385.3 104.1l-1.1-3.5c-39-115.6 12.6-244.5 115-288.3l1.1 3.5c38.9 115.6-12.5 244.5-115 288.3zm109.9 1012.2l4.2 133.8-99.3-105.9-192 87.8c0 0 91.8-85.1 73.5-89.1-54.4-11.8-215.9 51.3-182.7 34 153.4-79.7 217.4-182.9 233.7-274.8 6.2-35.3 5.5-296.2 0.1-326.2-21.2-81-91-177.4-261.4-276.8-42-24.5 234.9 86 234.9 86l-4.2-133.8 99.4 105.9 191.9-87.9c0 0-91.8 85.1-73.5 89.1 54.4 11.9 215.9-51.2 182.7-34q-16.3 8.3-32 17.6-15.7 9.3-30.8 19.6-15.1 10.3-29.6 21.5-14.4 11.2-28 23.3-5.7 5.1-11.1 10.4-5.5 5.3-10.8 10.8-5.2 5.5-10.3 11.2-5.1 5.7-9.9 11.6c-11.4 13.8-21.2 30-31.4 44.8q-7 10.6-13.1 21.7-6.1 11.1-11.3 22.6-5.2 11.6-9.4 23.5-4.2 12-7.4 24.2c-7 28.6-9.3 289.2-1.7 325.9 17.2 83.4 85.2 184.6 264.3 289.2 42 24.5-234.8-86-234.8-86zm-182-1203.2l-3.7-0.2c-121.8-6-223-101.2-226.3-212.5l3.7 0.2c121.8 6.1 223 101.2 226.3 212.5z"/>
</svg>