<svg version="1.2" xmlns="http://www.w3.org/2000/svg" viewBox="0 0 1548 613" width="1548" height="613">
	<title>NASDAQ_SMBK_2020-20-pdf-svg</title>
	<defs>
		<clipPath clipPathUnits="userSpaceOnUse" id="cp1">
			<path d="m-1789.7-256.24h3794.4v4911.19h-3794.4z"/>
		</clipPath>
		<linearGradient id="g1" x1="774" y1="8.9" x2="774" y2="393.9" gradientUnits="userSpaceOnUse">
			<stop offset="0" stop-color="#c4dbea"/>
			<stop offset="1" stop-color="#4e8dc8"/>
		</linearGradient>
	</defs>
	<style>
		.s0 { fill: #5f7073 } 
		.s1 { fill: #054f9c } 
		.s2 { fill: url(#g1) } 
	</style>
	<g id="Clip-Path: Page 1" clip-path="url(#cp1)">
		<g id="Page 1">
			<path id="Path 8" class="s0" d="m1035 383.7c6.8 10.5 2.2 19.2-10.2 19.2h-501.6c-12.7 0-17.4-8.7-10.2-19.2l248.3-375.8c6.8-10.5 18.3-10.5 25.1 0z"/>
			<path id="Path 9" class="s1" d="m523.2 393.9c-3.1 0-4.3-0.6-4.6-0.9 0-0.3 0-1.9 1.5-4.3l248.6-376.1c1.6-2.2 3.4-3.7 5.3-3.7 1.6 0 3.4 1.5 5 3.7l248.6 376.1c1.5 2.4 1.8 4 1.5 4.3-0.3 0.3-1.5 0.9-4.3 0.9z"/>
			<path id="Path 9" class="s2" d="m774 8.9c1.6 0 3.4 1.5 5 3.7l15.8 23.8q-10.3 178.6-15.8 357.5h-10q-5.8-178.9-16.1-357.5l15.8-23.8c1.6-2.2 3.4-3.7 5.3-3.7zm61.4 88.9l25.4 38.8c-23.9 84-44 170.2-59.5 257.3h-9c10.8-99.5 25.1-198.4 43.1-296.1zm-122.8 0c17.7 97.7 32 196.6 42.8 296.1h-9c-15.5-87.1-35.3-173.3-59.5-257.3zm186.3 96.1l16.7 25.1c-30.7 55.2-57.9 113.8-80.2 174.9h-7.5c19.5-68.8 43.4-135.8 71-200zm-249.9 0c27.6 64.2 51.5 131.2 71 200h-7.4c-22.3-61.1-49.6-119.7-80.3-174.9zm297.3 71.6l13.3 20.2c-31 32.2-59.8 68.8-85.8 108.2h-7.8c23.9-45.6 50.8-89 80.3-128.4zm-344.4 0c29.4 39.4 56.7 82.8 80.6 128.4h-8.1c-25.7-39.4-54.8-76-85.8-108.2z"/>
			<path id="Path 11" fill-rule="evenodd" class="s0" d="m67.2 612.5c-37.2 0-63.9-14.9-66.7-42.5h45.6c1 12.1 10.9 19.9 22 19.9 9.3 0 18-2.5 18-10.9 0-12.1-12.7-13.9-30.7-17.3-33.2-6.2-50.8-20.2-50.8-41.9 0-27.9 25.4-39.1 61.7-39.1 37.5 0 61.7 16.2 63.8 41h-45.5c-0.7-10.3-8.4-18.6-18.6-18.6-12.1 0-17.1 4-17.1 12.1 0 9.3 11.2 12.1 32.6 14.8 32.8 4.4 53 15.9 53 42.2 0 22.3-20.8 40.3-67.3 40.3zm211.7-3.7v-55.2c0-8.4-8.3-11.2-13.6-11.2-8.7 0-13.7 5-13.7 13.7v52.7h-42.4v-55.2c0-8.4-6.5-11.2-13.7-11.2-7.4 0-13.3 5-13.3 13.4v53h-42.5v-89.6h41v9h0.6c5.3-7.1 14.9-11.8 32.8-11.8 15.5 0 26.7 5.3 31.3 14.3h0.4c5.2-7.8 18.9-14.3 34.7-14.3 18.3 0 40.9 8.4 40.9 30.1v62.3zm127.1 0c-2.8-2.8-3.7-4.7-3.7-7.8h-0.3c-7.2 6.9-17.1 10.6-34.1 10.6-26.1 0-39.4-9.9-39.4-25.1 0-14.3 11.2-21.4 30.7-25.4 11.8-2.8 23.6-4.1 30.7-5 9.6-1.2 12.4-2.8 12.4-13 0-5.6-2.8-10-14.3-10-13 0-16.1 2.5-16.1 18h-36.9c-6.5-8.7 3.1-34.7 53.3-34.7 39.1 0 56.1 13.6 56.1 33.5v51.1c0 3.8 1.3 6.2 4.1 7.8zm-3.7-39.7c-5.6 2.2-9.3 4.4-21.4 5.9-6.2 0.6-13.7 1.9-13.7 9.3 0 6.5 4.7 9.9 15.5 9.9 9.6 0 19.6-9.6 19.6-19.5zm122.1-23c-13.3 0-24.8 7.8-24.8 21.1v41.6h-42.5v-89.9h41.3v13.9h0.6c5.9-9.6 19.2-16.7 31.3-16.7 6.2 0 8 0.6 11.5 0.6v33.2c-5.9-2.2-7.2-3.8-17.4-3.8zm74.4 63.9c-23.3 0-35-6.5-35-25.7v-48.4h-14.3v-17h14.3v-28.9h42.1v28.9h20.2v17h-20.2v47.1c0 6.2 2.2 7.5 10.9 7.5 3.4 0 6.2-0.3 9.3-0.6v17.9c-5.9 1.3-16.8 2.2-27.3 2.2zm89-100.7v28.2h58.2v25.1h-58.2v46.2h-47.2v-125h117.2v25.5zm78.1 9.6h42.5v89.9h-42.5zm0-37.5h42.5v26.9h-42.5zm130.6 127.2v-51.8c0-9.6-9-14.6-17.1-14.6-11.2 0-15.5 8.1-15.5 17.7v48.7h-42.5v-90h41.3v10.3h0.3c5.2-5.3 13.6-13 35.9-13 21.7 0 39.7 10.8 39.7 30.3v62.4zm127.1 0c-2.5-3.1-3.4-4.7-3.4-7.8h-0.3c-7.4 6.8-17.4 10.5-34.4 10.5-26.1 0-39.1-10.2-39.1-25.4 0-13.9 11.2-21.1 30.4-25.1 11.8-2.8 23.9-4 31-4.9 9.6-1.3 12.1-3.2 12.1-13.1 0-5.6-2.5-9.9-14.3-9.9-12.7 0-15.8 2.5-15.8 18h-36.9c-6.5-8.7 2.8-35 53.4-35 39 0 55.8 13.9 55.8 33.7v51.2c0 3.7 1.5 6.2 4.3 7.8zm-3.7-39.7c-5.6 2.1-9.6 4.3-21.4 5.9-6.5 0.6-13.7 1.8-13.7 9.3 0 6.5 4.7 9.9 15.5 9.9 9.3 0 19.6-9.6 19.6-19.5zm129.6 39.6v-52c0-9.7-9-14.6-17.1-14.6-11.2 0-15.5 8.4-15.5 18v48.6h-42.2v-89.9h41v10.3h0.3c5.6-5.6 13.6-13.1 35.9-13.1 21.7 0 40 10.6 40 30.4v62.3zm111 2.8c-36.9 0-61.4-22-61.4-47.7 0-26.1 23.6-47.8 61.7-47.8 33.8 0 57.4 15.2 57.4 36.9h-39.7c0-11.1-3.4-20.1-16.8-20.1-19.2 0-19.8 12.7-19.8 30.7 0 19.5 2.8 31 19.2 31 13.4 0 15.8-9.3 17.4-23h39.7c0 24.8-23 40-57.7 40zm66-92.7h42.2v89.9h-42.2zm0-37.5h42.2v27h-42.2zm127.1 127.1c-2.4-3.1-3.4-4.6-3.4-7.7h-0.3c-7.1 6.5-17.3 10.5-34.4 10.5-25.7 0-39.1-10.2-39.1-25.4 0-14 11.2-21.1 30.4-25.1 11.8-3.1 23.9-4.1 31-5 9.6-1.2 12.4-3.1 12.4-13 0-5.6-2.8-10.2-14.5-10.2-12.8 0-15.9 2.7-15.9 17.9h-36.8c-6.6-8.3 2.7-34.7 53.3-34.7 39 0 55.8 14 55.8 33.8v51.2c0 3.7 1.5 6.2 4.3 7.7zm-3.7-39.7c-5.6 2.2-9.3 4.4-21.4 5.9-6.2 0.6-13.6 1.9-13.6 9 0 6.8 4.6 10.2 15.5 10.2 9.3 0 19.5-9.6 19.5-19.8zm55.2-91.5h42.4v131.2h-42.4z"/>
		</g>
	</g>
</svg>