<svg version="1.2" xmlns="http://www.w3.org/2000/svg" viewBox="0 0 1511 568" width="1511" height="568">
	<title>2015annualreport_r-1-pdf-svg</title>
	<defs>
		<clipPath clipPathUnits="userSpaceOnUse" id="cp1">
			<path d="m-2524.81-385.63h4394.94v5711.89h-4394.94z"/>
		</clipPath>
		<linearGradient id="g1" x1="-3.7" y1="38.2" x2="347.6" y2="38.2" gradientUnits="userSpaceOnUse">
			<stop offset="0" stop-color="#ffffff"/>
			<stop offset="1" stop-color="#ffffff"/>
		</linearGradient>
	</defs>
	<style>
		.s0 { fill: #ffffff } 
		.s1 { fill: url(#g1) } 
	</style>
	<g id="Clip-Path: Page 1" clip-path="url(#cp1)">
		<g id="Page 1">
			<path id="Path 5" fill-rule="evenodd" class="s0" d="m399.7 563.1q-5.5 1.1-11.3 1.8c-154.9 20.8-297.4-87.9-318.2-242.9-21.1-155 87.5-297.7 242.8-318.4 91.8-12.4 179.3 20.7 239.7 82.4-56.8-49.3-134.1-74.8-214.2-63.8-149.1 20-253.3 157.2-233.3 306.3 19.3 145.2 150.2 248.1 294.5 234.6zm-99.9-70.1c-95.4-31.3-156.7-128-140.3-230.5 16.8-102.1 105.4-174.7 205.9-174.3-89.6 14.2-164 84.2-179.3 178.7-15.3 94.5 33.2 184.2 113.7 226.1z"/>
			<path id="Path 6" class="s1" d="m114.7 54.6c-0.4 1.1-0.4 2.2-0.7 3.3-6.2 47.1 85.3 98.5 209.5 121.1q-3.3 9.8-4.4 20.8c-126.4-19.7-221.5-73.3-215.3-122.9 1.1-8.1 4.7-15.4 10.9-22.3zm-82 49.3c0 1.4-0.4 2.9-0.4 4.7-6.1 75.9 124 148.5 290.9 162.7 4.3 13.5 12 23.3 24.4 30.2-15.7 0-31.7-0.3-48.5-1.8-159.6-12.7-284.2-85-278-161.9 0.7-12.1 5.1-23.4 11.6-33.9zm-24.8 123.6q-0.3 1.8-0.7 3.7c-6.6 57.9 110.1 119.2 260.6 136.4q26.9 2.9 52.8 4 2.6 11.3 8 20c-27.3 0.8-56.1-0.3-86.3-3.6-122.9-14.2-222-61.3-242-111.3v-36.4q2.5-7 7.6-12.8z"/>
			<path id="Path 7" fill-rule="evenodd" class="s0" d="m327.2 324.9h82.3c0.4 28.4 12.1 30.6 35.7 30.6h101.3c17.2 0 35-1.8 35-22.6 0-23.3-9.4-24.8-115.9-24.8-123.9 0-138.1-14.9-138.1-81 0-48.8 4.4-86.4 108.6-86.4h115.2c95.1 0 103.8 32.5 103.8 79.5v8.8h-82.3c0-19.7-2.2-28.1-40.1-28.1h-91.5c-18.6 0-31.3 6.5-31.3 20.8 0 23.7 10.2 24.4 98.7 24 128-0.3 157.8 7.3 157.8 85.8 0 72.5-24.4 84.6-134.1 84.6h-99.8c-75.1 0-105.3-14.2-105.3-72.6zm353.1-181.3h126.4l93.3 173.3 93.3-173.3h126.9v269.2h-80.6v-193.3h-0.7l-107.9 193.3h-61.9l-107.9-193.3h-0.7v193.3h-80.2zm458.1 0h224.8c78.4 0 97.3 39.4 97.3 92.3v23c0 40.1-17.5 86.4-75.8 86.4h-163.6v67.5h-82.7zm82.7 134.6h127.9c19.7 0 27-12.4 27-28.5v-10.6c0-18.2-9.1-28.4-33.9-28.4h-121z"/>
			<path id="Path 8" fill-rule="evenodd" class="s0" d="m369.1 464.2c-0.4-8.4-7.3-10.9-13.1-10.9-4.8 0-12.4 1.1-12.4 9.5 0 4.7 3.2 6.2 6.2 6.9l15.6 3.6c7 1.9 12.1 5.9 12.1 14.6 0 13.2-11.7 16.8-21.2 16.8-9.8 0-13.8-3.3-16-5.5-4.8-4-5.5-8.7-5.5-13.8h6.6c0 9.8 8 12.7 14.9 12.7 5.1 0 14.2-1 14.2-9.1 0-5.8-2.9-7.6-11.6-9.8l-11-2.6c-3.6-0.7-11.3-3.3-11.3-12.7 0-8.4 5.5-16.8 18.3-16.8 18.9 0 20.7 11.3 21.1 17.1zm30.2 4.8v25.9c0 2.9 3 2.9 4.1 2.9h2.5v5.5c-2.5 0-4.4 0.3-5.1 0.3-6.6 0-8-3.6-8-8.4v-26.2h-5.1v-5.9h5.1v-10.9h6.5v10.9h6.6v5.9zm18.2 6.5c0-9.8 6.2-13.5 16.1-13.5 3.2 0 14.5 1.1 14.5 11.3v23q0 2.2 2.2 2.2c0.4 0 1.5 0 2.2-0.4v5.2c-1.1 0.3-2.2 0.7-3.6 0.7-5.9 0-7-3.3-7-6.2-2.5 2.9-6.5 6.5-14.2 6.5-7.3 0-12.4-4.7-12.4-11.6 0-3.3 1.1-11 12.1-12.4l10.9-1.5c1.5 0 3.3-0.7 3.3-4.7 0-4-2.9-6.6-9.1-6.6-7.7 0-8.8 4.7-9.1 8zm24.4 7.3c-1.1 0.8-2.9 1.5-11 2.6-3.2 0.3-8.3 1.4-8.3 6.5 0 4.1 2.1 7 6.9 7 6.2 0 12.4-4.4 12.4-9.5zm55 20.4h-6.6v-24.8c0-6.9-1.8-10.2-8.3-10.2-3.7 0-10.2 2.2-10.2 13.1v21.9h-6.6v-40.1h6.2v5.8c1.5-2.2 5.1-6.9 12-6.9 5.8 0 13.5 2.6 13.5 13.9zm48.1 0h-6.2v-5.5h-0.4c-2.5 5.5-7.2 6.6-10.9 6.6-13.5 0-17.5-12.8-17.5-22.3 0-11.3 6.2-19.7 16.4-19.7 7.3 0 10.2 4.4 11.7 6.6h0.3v-20.4h6.6zm-17.5-4.8c4.4 0 10.6-2.9 10.6-13.5 0-6.2-0.7-16.8-10.6-16.8-10.2 0-10.6 9.9-10.6 15 0 8.7 3.3 15.3 10.6 15.3zm32.1-23c0-9.5 6.5-13.5 16-13.5 3.3 0 14.6 1.1 14.6 11.3v23q0 2.2 2.2 2.2 1.1 0 2.2 0v4.8c-1.1 0.3-2.2 0.7-3.7 0.7-5.8 0-6.5-2.9-6.9-6.2-2.6 2.9-6.6 6.5-14.2 6.5-7.3 0-12.4-4.7-12.4-11.3 0-3.6 1.1-11.3 12-12.7l11-1.5c1.4 0 3.2-0.7 3.2-4.7 0-4-2.9-6.2-9.1-6.2-7.6 0-8.4 4.3-9.1 7.6zm24.4 7.3c-1.1 0.8-2.9 1.5-10.9 2.6-3.3 0.3-8.4 1.4-8.4 6.5 0 4.4 2.2 7 6.9 7 6.2 0 12.4-4 12.4-9.5zm30.6 20.4h-6.5v-39.7h6.2v6.5h0.3c2.6-4.7 5.9-8 11-8 0.7 0 1.1 0.4 1.8 0.4v6.9h-2.6c-6.1 0-10.2 4.7-10.2 10.6zm55.8 0h-6.2v-5.5c-2.9 5.5-7.6 6.6-11.3 6.6-13.5 0-17.1-12.8-17.1-22.3 0-10.9 5.8-19.7 16-19.7 7.3 0 10.2 4.4 12 6.6v-20.4h6.6zm-17.5-4.8c4.4 0 10.9-2.9 10.9-13.5 0-6.2-1.1-16.8-10.5-16.8-10.2 0-11 9.9-11 15 0 8.8 3.7 15.3 10.6 15.3zm103.9 4.8c0-1.5 0-40.9 0-46l-15.3 46h-7l-15.3-46c0 5.1 0 44.5 0 46h-6.9v-54.8h10.2l15.7 46.4 15.3-46.4h10.2v54.8zm39-41.3c12.7 0 18.2 11 18.2 21.2 0 10.2-5.5 21.2-18.2 21.2-12.4 0-18.2-11-18.2-21.2 0-10.2 5.8-21.2 18.2-21.2zm0 36.5c9.5 0 11.6-9.8 11.6-15.3 0-5.1-2.1-15.3-11.6-15.3-9.5 0-11.3 10.2-11.3 15.3 0 5.5 1.8 15.3 11.3 15.3zm39.3-29.5v25.9c0 2.9 3 2.9 4.1 2.9h2.5v5.5c-2.5 0.3-4.4 0.3-5.1 0.3-6.6 0-8-3.6-8-8.4v-26.2h-5.1v-5.5h5.1v-11.3h6.5v11.3h6.6v5.5zm34.3-7c12.3 0 18.2 11 18.2 21.2 0 10.2-5.9 21.2-18.2 21.2-12.4 0-18.3-11-18.3-21.2 0-10.2 5.9-21.2 18.3-21.2zm0 36.5c9.4 0 11.3-9.8 11.3-15.3 0-5.1-1.9-15.3-11.3-15.3-9.5 0-11.3 10.2-11.3 15.3 0 5.5 1.8 15.3 11.3 15.3zm39 4.8h-7v-39.8h6.6v6.6c2.5-4.8 6.2-8.1 10.9-8.1 1.1 0 1.1 0.4 1.8 0.4v6.9h-2.5c-6.2 0-9.8 4.8-9.8 10.6zm58.3 0h-7.3v-54.7h24c10.2 0 16.1 6.6 16.1 15.3 0 7.7-4.4 16.4-16.1 16.4h-16.7zm0-29.5h14.5c6.6 0 11-2.6 11-9.9 0-6.9-4.8-9.1-11-9.1h-14.5zm54.3 29.6h-6.6v-40.2h6.2v6.6c2.5-4.4 6.2-7.6 10.9-7.6 1.1 0 1.5 0 1.8 0.3v7h-2.5c-5.8 0-9.8 4.7-9.8 10.5zm39-41.2c12.3 0 18.2 11 18.2 21.2 0 10.2-5.9 21.1-18.2 21.1-12.4 0-18.3-10.9-18.3-21.1 0-10.2 5.9-21.2 18.3-21.2zm0 36.5c9.4 0 11.2-9.9 11.2-15.3 0-5.1-1.8-15.4-11.2-15.4-9.5 0-11.3 10.3-11.3 15.4 0 5.4 1.8 15.3 11.3 15.3zm63.7 4.7h-6.2v-5.4c-2.9 5.4-7.3 6.5-11.3 6.5-13.1 0-17.1-12.7-17.1-22.2 0-11.3 5.8-20.1 16.4-20.1 6.9 0 10.2 4.8 11.7 6.9v-20.4h6.5zm-17.1-4.7c4 0 10.6-2.9 10.6-13.5 0-6.6-1.1-16.8-10.6-16.8-10.2 0-10.6 9.8-10.6 15 0 8.7 3.3 15.3 10.6 15.3zm57.6 4.7v-6.2c-2.9 4.8-6.2 7.3-12.4 7.3-5.8 0-13.1-2.9-13.1-12.4v-28.8h6.9v26.6c0 6.6 3.3 8.8 7.3 8.8 8.4 0 10.9-7.7 10.9-13.2v-22.2h6.6v40.1zm46.3-26.6c-0.8-5.1-3.7-8.4-9.5-8.4-8 0-10.6 7.7-10.6 15 0 6.9 1.8 15.3 10.6 15.3 4.4 0 8.4-3.3 9.5-9.5h6.1c-0.3 6.2-4.3 15.3-15.6 15.3-11 0-17.9-8.4-17.9-20.1 0-12.4 6.2-22.2 19-22.2 10.2 0 14.2 7.7 14.5 14.6zm27-7.7v25.9c0 2.9 2.6 2.9 4 2.9h2.2v5.5c-2.5 0-4.4 0.4-5.1 0.4-6.2 0-8-3.7-8-8.4v-26.3h-5.1v-5.8h5.1v-10.9h6.9v10.9h6.2v5.8zm40.5 5.5c0-2.2-0.8-6.6-9.1-6.6-2.2 0-8.1 0.8-8.1 5.9 0 3.3 2.2 4 7.3 5.1l6.6 1.8c8 1.8 10.9 5.1 10.9 10.6 0 8-6.5 13.1-15.3 13.1-15.7 0-16.8-9.1-17.1-13.8h6.5c0.4 2.9 1.1 8 10.6 8 4.7 0 8.8-1.8 8.8-6.2 0-3.3-2.2-4.4-7.7-5.9l-7.7-1.8c-5.4-1.4-9.1-4.4-9.1-9.8 0-8.8 7-12.8 15-12.8 13.8 0 14.9 10.6 14.9 12.4zm21.2 20.8h8v7.3c0 10.6-6.2 11.7-8 12v-3.6c3.2-0.4 4-4 4-7.7h-4zm53.2-46.7h7.3v54.7h-7.3zm56.4 54.8h-6.5v-24.5c0-6.9-1.8-10.6-8.4-10.6-3.6 0-10.2 2.6-10.2 13.5v21.6h-6.6v-39.8h6.2v5.5c1.5-2.2 5.1-6.6 12.1-6.6 5.8 0 13.4 2.6 13.4 13.9zm40.1-26.7c-1.1-5.4-3.6-8.4-9.4-8.4-8.1 0-10.6 7.7-10.6 15 0 6.9 1.4 15.3 10.6 15.3 4.3 0 8.3-3.3 9.4-9.5h6.2c-0.3 6.2-4.3 15.4-15.6 15.4-11.3 0-17.9-8.4-17.9-20.1 0-12.4 5.8-22.3 19-22.3 10.2 0 14.2 7.7 14.5 14.6zm21.2 19.7h8v8.4h-8z"/>
			<path id="Path 9" fill-rule="evenodd" class="s0" d="m1488.9 193.9c-11.8 0-21.5-9.7-21.5-21.7 0-12 9.7-21.7 21.5-21.7 11.9 0 21.5 9.7 21.5 21.7 0 12-9.6 21.7-21.5 21.7zm17.5-21.7c0-10.1-7.8-18.4-17.5-18.4-9.6 0-17.4 8.3-17.4 18.4 0 10.2 7.8 18.5 17.4 18.5 9.7 0 17.5-8.3 17.5-18.5zm-21.5 12.6h-4v-24c2.2-0.4 4-0.8 7-0.8 3.6 0 6.1 0.8 7.6 1.9q2.2 1.8 2.2 5.1c0 3.2-2.2 5.1-4.7 5.8v0.4c2.1 0.3 3.6 2.1 4 5.8 0.7 3.6 1.1 5.1 1.4 5.8h-4c-0.4-0.7-1.1-2.9-1.4-6.2-0.8-2.9-2.2-4-5.5-4h-2.6zm0-13.5h3c2.9 0 5.8-1.1 5.8-4.4 0-1.8-1.5-4-5.8-4-1.5 0-2.2 0-3 0z"/>
		</g>
	</g>
</svg>