<svg version="1.2" xmlns="http://www.w3.org/2000/svg" viewBox="0 0 1572 1004" width="1572" height="1004">
	<title>snapon-svg</title>
	<style>
		.s0 { fill: #ffffff } 
	</style>
	<g id="Layer">
		<g id="Layer">
			<path id="Layer" class="s0" d="m1062.8 860.5c0 0-48.8 81.4-130.3 118-73.3 32.6-191.4 24.4-191.4 24.4h-741.1l154.7-260.4c0 0-4 8.2 28.5 20.4 36.7 16.2 53 8.1 53 8.1h325.8c0 0 52.9 0 81.4 20.4 24.4 16.2 4.1 8.1 36.7 40.6 20.3 20.4 69.2 40.7 122.1 36.7 61.1-8.2 105.9-48.9 105.9-48.9 0 0-81.4-20.3-126.2-40.7-32.6-16.2-32.6-48.8-16.3-93.5 24.4-61.1 44.8-57 61.1-61.1 16.2-8.1 44.7 8.2 44.7 8.2l85.6 32.5c0 0 0-16.2-20.4-48.8-28.5-40.7-20.4-36.6-52.9-61-36.7-24.4-81.5-20.4-118.1-12.2-32.6 8.1-69.3 52.9-101.8 77.3-16.3 12.2-53 8.1-53 8.1 0 0-252.4 4.1-281-8.1-28.5-12.2-32.5-32.6-36.6-52.9-4.1-40.7 32.6-89.5 32.6-89.5 0 0 171-297.1 191.4-325.5 36.6-57 52.9-77.3 134.3-122.1 65.2-40.7 187.4-28.5 187.4-28.5h733l-154.8 264.5c0 0-20.3-28.5-36.6-32.6-28.5-12.2-44.8-8.1-44.8-8.1h-509-44.8c0 0-40.8 0-61.1 16.3-20.4 16.3-32.6 40.7-32.6 40.7 0 0-32.6 36.6-24.4 65.1 8.1 28.4 28.5 20.3 28.5 20.3h472.3c0 0 69.3-12.2 97.8 65.1 24.4 61-53 179-53 179z"/>
		</g>
	</g>
</svg>