<svg version="1.2" xmlns="http://www.w3.org/2000/svg" viewBox="0 0 1628 1037" width="1628" height="1037">
	<title>cropped-Sonida-Senior-Living_Butterfly-325_272-svg</title>
	<style>
		.s0 { fill: #58585a } 
		.s1 { fill: #a7a8d4 } 
		.s2 { fill: #6fcacb } 
		.s3 { fill: #5594ae } 
		.s4 { fill: #939598 } 
	</style>
	<g id="#58585aff">
		<path id="Layer" class="s0" d="m602.2 1.1c5.2-2.4 10.2 1.6 14.7 3.8c43.2 23.8 84.3 52.8 117 90c7.9 9.2 15.5 18.8 21.6 29.4c2.6 3.6 1.3 8.1-0.9 11.6c-4.5 3.1-11.4 3.8-14.6-1.5c-6.9-10.3-13.9-20.7-22.8-29.5c-29.9-33.6-67.3-59.7-106.3-81.8c-14.8 40.4-26.1 82.3-30.8 125.1c-4 37.5-3 77.6 14.8 111.8c24.5 51.3 68.8 94.7 123.8 111.6c9.2 2.7 6.7 18-2.8 18c-10.4-1.3-20-5.9-29.5-10.1c-54.1-25.4-95.1-74.3-116.5-129.6c-12-34.5-12.2-71.9-8.2-107.9c5.4-44.7 17.3-88.5 33.4-130.5c1.6-3.8 2.7-8.7 7.1-10.4z" />
		<path id="Layer" class="s0" d="m896.5 2.5c3.8-2.9 9.8-3 13 1c5.5 6.3 10 13.5 14.4 20.7c32.2 54.8 44.4 120.3 38 183.2c-3.5 34.9-14.7 69.2-34.3 98.4c-18.3 27.5-43.3 50.6-72.5 66.1c-4.3 2.2-9.7 5.4-14.5 2.6c-6.6-3-6.4-14 0.4-16.7c29.2-14 53.9-36.6 71.6-63.6c18.7-28.2 28.7-61.5 31.2-95c4.9-61.4-9.3-125-43.5-176.6c-31.3 21.8-59.7 47.7-84.2 76.9c-16.2 18.5-30.5 38.7-42.4 60.1c-20.2 37-30 79.5-27.9 121.5c1 30 7.4 59.6 17.1 87.9c3.6 10.3 7.6 20.3 11.7 30.3c2.8 5.6-1.7 13.1-8 13c-4.6 0.8-8.5-2.9-9.9-7c-6-14.4-11.6-29.2-16-44.2c-13-44-18.1-90.9-9.7-136.2c5.3-28.7 15.8-56.4 30.4-81.6c16.1-27.5 36-52.7 57.8-75.9c23.3-24.3 48.9-46.6 77.3-64.9z" />
		<path id="Layer" class="s0" d="m70.5 498.5c34.3-7.2 70.6 1.6 100.2 19.8c-5.3 7.9-10.1 16.1-15.6 23.9c-18.2-10.7-39.1-17.9-60.3-18c-17.7 0-36.7 5.7-47.9 20.1c-9.9 12.5-9.8 32 1.1 43.8c8.8 9.6 20.1 16.4 31.2 23.2c27 16 55.6 29.8 80 49.9c12.3 10.1 23.4 22.9 27.6 38.7c5.1 20.6 3 43.7-8.9 61.5c-11.7 17.7-31.5 28.7-51.8 33.5c-43.7 10.3-92-2.4-125.7-31.9c5.8-7.9 11.4-15.9 17.1-23.9c20.1 17 45.5 27.8 71.8 29.8c18.5 1 38.3-2.9 52.9-15.1c12.2-9.9 18.2-27 13.9-42.3c-3.9-14.6-15.4-25.5-27-34.3c-28.6-21.7-63-34-91.6-55.8c-12.1-9.2-23.2-21.1-27-36.2c-4.4-17.6-2.9-37.2 7-52.6c11.5-18.6 32.1-29.7 53-34.1z" />
		<path id="Layer" fill-rule="evenodd" class="s0" d="m362.5 497c31.9-3.7 65.1 2.4 93.1 18.6c27.5 15.6 49.6 40.2 62.4 69.1c11.3 25.4 15.3 54 11.9 81.5c-4 34-19.9 66.6-44.7 90.2c-23.3 22.9-54.5 37.4-86.9 41c-34.1 4-69.6-3.7-98.5-22.4c-24.2-15.3-43.6-37.9-55.4-64c-15.3-33.7-17.8-72.9-7.2-108.3c8.4-28.7 25.7-54.6 48.8-73.4c21.7-17.8 48.6-29.1 76.5-32.3zm1.6 28.2c-32 4.2-62 22.3-80.4 48.9c-29 40.9-30.2 99.1-3.3 141.2c17 27.3 45.6 46.9 77.2 52.8c29 5.6 60.2 0.4 85.4-15.2c23.6-14.4 41.7-37.4 50.5-63.6c9.4-27.3 9.2-57.9-0.3-85.2c-7.9-22.4-22.3-42.6-41.4-56.7c-24.8-18.7-57.1-26.4-87.7-22.2z" />
		<path id="Layer" class="s0" d="m621 535.8c15.8-21.4 40.5-36 67-39c30.2-3 62.9 2.3 87 22c19.5 15.8 30.5 40.1 33.8 64.7c2.6 20.3 1.4 40.9 1.7 61.3q0 74.6 0 149.2q-14.7 0-29.4 0q0-78.1 0-156.1c-0.1-23.8 1.4-48.6-8.4-70.9c-7.2-17.4-21.6-31.8-39.4-38.1c-22.7-8.3-49.2-6.9-70.1 5.6c-25.5 14.2-42.3 42.4-42.1 71.7c-0.2 62.6 0 125.2-0.1 187.8q-14.7 0-29.4 0c0.1-98 0-196 0.1-293.9c9.7 0 19.5 0 29.3 0c0 11.9 0 23.8 0 35.7z" />
		<path id="Layer" fill-rule="evenodd" class="s0" d="m1300.7 523.4c30-18.8 65.7-28.3 101.1-27.3c28.9 0.5 58.6 10 79.9 30.2c19.9 18.6 30 46 30.1 73q0 97.4 0 194.7q-14.5 0.1-29 0c0-12.6 0-25.1 0.1-37.7c-17.8 22.1-44 37-72.1 40.8c-30.8 4.1-63.8-1.1-90-18.5c-21.4-14.1-36.5-36.9-42.2-61.7c-6.7-29.4-1.8-61.8 15.5-86.7c14.6-21.5 37.8-36.1 62.9-42.1c26.7-6.2 55.5-5.9 81.3 4.2c17.5 6.8 32.9 18.7 44.6 33.5c-0.5-14.7 1.3-29.8-2.6-44.2c-4.5-18.3-17-34.1-33.2-43.6c-20.9-12.6-46.3-15.1-70-11.5c-21.9 3.4-43.2 10.4-62.4 21.6c-4.6-8.3-9.4-16.5-14-24.7zm75.4 89.1c-22.9 3.2-45 15.3-57.8 34.9c-19.8 28.9-17 71 7 96.7c19.1 20.9 48.9 29.3 76.6 26.6c31.3-2.8 61.3-21.8 75.3-50.2c6.4-12.5 6.4-26.8 5.1-40.4c-5.6-24.8-23.3-46.1-45.7-57.9c-18.3-9.9-39.9-12.7-60.5-9.7z" />
		<path id="Layer" fill-rule="evenodd" class="s0" d="m982 500.1c22.3-0.1 44.7 0 67 0c25.2 0.1 50.8-1.3 75.6 4.3c30.2 6.3 59.1 21.9 78.2 46.4c17.7 22.2 26.9 50.2 29.4 78.3c2.7 32.6-1.5 66.8-17.2 95.9c-12.7 23.8-33.5 43.1-57.9 54.2c-23.9 10.9-50.3 15.3-76.4 14.8c-32.9 0-65.8 0.1-98.7 0c0-97.9 0-195.9 0-293.9zm29.8 28.1q0 118.9 0 237.7c15.9 0.1 31.8 0 47.8 0.1c19.2-0.2 38.8 1.1 57.7-3.5c25.1-5.3 48.7-19.1 63.8-40c19.6-26.5 24.9-61.1 21.4-93.3c-2.9-28.5-15.4-56.9-38-75.1c-21.8-18.2-50.7-25.4-78.6-25.9c-24.7-0.2-49.4 0-74.1 0z" />
		<path id="Layer" class="s0" d="m1533.8 499.6c12.1 0.1 24.1 0 36.2 0q0.2 4.2 0.5 8.4q-7.2 0-14.4 0c0 14.4 0 28.9 0 43.4q-4.2 0-8.4 0q0-21.7 0-43.4q-7.2 0-14.5 0q0.3-4.2 0.6-8.4z" />
		<path id="Layer" class="s0" d="m1577.2 498.5c8.8 9.3 16.5 19.6 24.7 29.3c8.5-9.6 15.8-20.4 25.1-29.3c0.3 17.6 0 35.3 0.1 52.9q-4.2 0-8.3 0c0-10.3 0-20.5 0-30.8c-5.7 6.9-11 14.1-16.9 20.8c-5.7-6.9-11.3-13.9-16.9-21c0 10.3 0 20.7 0 31q-4 0-7.9 0c0.1-17.6-0.1-35.2 0.1-52.9z" />
		<path id="Layer" class="s0" d="m879.8 794c0-98 0-195.9 0-293.9q14.9 0 29.8 0c0 98 0 195.9 0 293.9q-14.9 0.1-29.8 0z" />
	</g>
	<g id="#a7a8d4ff">
		<path id="Layer" class="s1" d="m816.1 99.5c24.8-17.2 52.1-30.7 80.4-41.1c17 30.2 28.3 63.7 32.8 98.1c4.6 35 0.8 71.6-14 103.8c-12.9 28.3-34.5 51.9-59.1 70.6c-24.1 18-51 32.2-79.5 41.7c14.8-34.8 25.1-72.2 25.1-110.3c0.6-35.9-8.2-72.5-28.1-102.7c11.9-21.4 26.2-41.6 42.4-60.1z" />
	</g>
	<g id="#6fcacbff">
		<path id="Layer" class="s2" d="m605.3 197.3c0.9-44.3 11.4-88 27-129.3c30.1 7.5 58.9 20 84.9 36.9c8.9 8.8 15.9 19.2 22.8 29.5c3.2 5.3 10.1 4.6 14.6 1.5q3.6 3.6 6.8 7.4c-14.6 25.2-25.1 52.9-30.4 81.6c-8.4 45.3-3.3 92.2 9.7 136.2c-36.1-14.5-71.2-33.8-98.3-62.2c-12-12.8-22.3-27.5-28.2-44c-6.7-18.4-8.8-38.2-8.9-57.6z" />
		<path id="Layer" class="s2" d="m745.8 281.1c1 9.6 2.4 19.1 5.3 28.3c6.3 21.6 14.6 42.6 23.6 63.2c-3.9-1.2-7.9-2.4-11.8-3.6c-9.7-28.3-16.1-57.9-17.1-87.9z" />
	</g>
	<g id="#5594aeff">
		<path id="Layer" class="s3" d="m745.8 281.1c-2.1-42 7.7-84.5 27.9-121.5c19.9 30.2 28.7 66.8 28.1 102.7c0 38.1-10.3 75.5-25.1 110.3q-1.1 0.6-2 0c-9-20.6-17.3-41.6-23.6-63.2c-2.9-9.2-4.3-18.7-5.3-28.3z" />
	</g>
	<g id="#939598ff">
		<path id="Layer" class="s4" d="m250 891c30.1 34.9 59.8 70.2 89.9 105.2c0-32.7 0-65.4 0-98.1q7.2-0.1 14.5-0.1q0 68.3 0 136.6c-30.2-34.7-60.1-69.6-90.3-104.4c-0.2 32 0 64-0.1 95.9q-7 0-14 0.1q0-67.7 0-135.2z" />
		<path id="Layer" class="s4" d="m1221.9 891.2c30.1 35 59.9 70.2 89.9 105.2c0-32.8 0-65.6 0-98.3q7.2-0.1 14.4-0.1c0 45.6 0.1 91.1 0 136.7c-30.3-34.7-60.1-69.7-90.3-104.4c0 32 0 63.9 0 95.9q-7-0.1-14 0c0-45-0.1-90 0-135z" />
		<path id="Layer" class="s4" d="m11.7 919.6c3.6-11.7 14.8-20.1 26.7-21.7c10.8-1.3 22.6 0.2 31.3 7.2c4.8 3.5 7.6 8.7 10.6 13.7c-4.5 2-9 4-13.4 6c-6-13.4-24.7-17.3-36-8.5c-7.3 5.4-8.2 17.6-1.1 23.7c8.4 7.4 19.8 10 29.3 15.8c9.6 5.2 18.5 13.4 21.4 24.3c3.6 13.4 1.2 29.7-9.8 39.1c-11.4 9.3-27.5 9.9-41.3 6.7c-14.2-3.7-23.4-16.8-26.6-30.6q7.1-2.4 14.2-4.7c2.1 7.5 5 15.9 12.5 19.6c9.9 4.7 22.8 4.4 31.6-2.4c9.6-8.9 8.4-26.4-2.1-34.2c-12.4-9.3-28.7-12.1-40.1-22.9c-8.2-7.9-10.2-20.5-7.2-31.1z" />
		<path id="Layer" class="s4" d="m135.5 898c21.8 0 43.6 0 65.4 0.1q0 7.2 0 14.4c-17 0-33.9 0-50.9 0q0 18.2 0 36.4c17 0 33.9 0 50.9 0q0 7.5 0 14.9q-25.5 0-50.9 0c0 16.1 0 32.2 0 48.3c17 0 33.9 0 50.9 0c0 4.7 0 9.4 0 14q-32.7 0.1-65.4 0q0-64 0-128.1z" />
		<path id="Layer" class="s4" d="m403.9 898q7.3 0 14.5 0c0 42.7 0 85.4 0 128.2q-7.2 0-14.5-0.1c0-42.7 0-85.4 0-128.1z" />
		<path id="Layer" fill-rule="evenodd" class="s4" d="m512.9 898.6c18.6-4.2 39.2-2.5 55.6 7.7c14.8 9.2 25.2 25 27.9 42.2c1.6 11.2 1.6 22.8-1.4 33.8c-4.8 18.3-18.8 33.8-36.4 40.9c-13.4 5.4-28.5 5.9-42.7 3.3c-19.4-3.6-36.5-17.2-44.3-35.3c-10-23.8-7.5-53.9 10-73.6c8.2-9.3 19.3-16 31.3-19zm3.7 14c-7.2 1.9-13.9 5.4-19.4 10.4c-20.9 17.8-22.7 53-4.9 73.6c20.7 24.5 65.1 22.5 82.7-4.7c13.1-20.8 10.9-51.7-8.1-68.4c-13.2-12.5-33.2-15.3-50.3-10.9z" />
		<path id="Layer" fill-rule="evenodd" class="s4" d="m651.3 898c17.7 1.2 37-3.5 53.2 5.6c16.5 9.4 19.5 33.2 9.8 48.5c-5.4 8.4-15.3 12.3-24.8 13.7c12.8 20.2 25.9 40.2 38.6 60.4c-5.7-0.1-11.4 0-17.1-0.1c-12.7-19.9-25.5-39.9-38.1-60q-3.6-0.1-7.1-0.1q0 30.1 0 60.2q-7.3 0-14.5-0.1c0-42.7 0-85.4 0-128.1zm14.5 14.5c0 13-0.1 26 0 39.1c9.4-0.6 19.3 1.5 28.3-1.7c13.9-5.1 15.1-27.9 1.8-34.4c-9.3-4.7-20.1-2.5-30.1-3z" />
		<path id="Layer" class="s4" d="m860.9 898q7 0 14.1 0c0 38-0.1 76.1 0 114.1q16.8 0 33.7 0q0 7 0 14.1q-23.9 0-47.8-0.1q0-64 0-128.1z" />
		<path id="Layer" class="s4" d="m959.6 898c4.8 0 9.7 0 14.6 0.2c-0.2 42.6 0 85.3-0.1 127.9q-7.3 0-14.5 0.1c0-42.8 0-85.5 0-128.2z" />
		<path id="Layer" class="s4" d="m1018.6 898q7.4 0 14.9 0c9.8 30.4 19.4 60.9 28.9 91.4c9.6-30.6 19.4-61 29.1-91.4c5.1 0 10.1 0 15.1 0.1c-14.8 46.2-29.1 92.6-44.3 138.7c-14.6-46.2-29.2-92.5-43.7-138.8z" />
		<path id="Layer" class="s4" d="m1157.9 898q6.9 0 14 0q0 64.1 0 128.2q-7.1-0.1-14.1 0q0-64.1 0.1-128.2z" />
		<path id="Layer" class="s4" d="m1430.1 898c16.3-3.1 34-1.8 48.9 6.2c9.4 5.1 17.2 12.8 23.2 21.6c-3.8 3-7.7 6-11.7 8.9c-6-9.2-14.4-17-24.9-20.7c-18.3-6.4-40.7-3.8-55 10c-20.2 17.9-21.7 52.2-4.2 72.4c19.6 23.2 60.4 23.2 79.5-0.6c5.2-6 8.5-13.3 10.4-20.9c-13.1-0.2-26.2 0-39.3-0.1q-0.1-7.2 0-14.4c18.2-0.1 36.5-0.1 54.8-0.1c0.6 12.9-1.9 26-8.5 37.1c-8.5 14.4-23.1 25.2-39.5 28.7c-22.2 4.8-47.7 1-64.3-15.5c-19.4-18.1-23.7-48.2-15.4-72.6c7-20.1 25.1-35.8 46-40z" />
	</g>
</svg>