<svg version="1.2" xmlns="http://www.w3.org/2000/svg" viewBox="0 0 1547 382" width="1547" height="382">
	<title>somfy_logo-svg</title>
	<defs>
		<linearGradient id="g1" x1="1453.8" y1="220.7" x2="1506.6" y2="139.3" gradientUnits="userSpaceOnUse">
			<stop offset=".26" stop-color="#0c2039"/>
			<stop offset=".28" stop-color="#0e223b"/>
			<stop offset=".52" stop-color="#23354e"/>
			<stop offset=".76" stop-color="#2f4059"/>
			<stop offset="1" stop-color="#33445d"/>
		</linearGradient>
	</defs>
	<style>
		.s0 { fill: #363c58 } 
		.s1 { fill: url(#g1) } 
		.s2 { fill: #db6e2b } 
	</style>
	<g id="Calque_2">
		<g id="logo">
			<path id="Layer" class="s0" d="m1111.3 189.4v-34.4h-193.1v24.7 196.9h36.7 6.2v-86.5h128.8v-34.4h-128.8v-66.3h150.2z"/>
			<path id="Layer" class="s0" d="m824.1 155l-98.8 128.6-101.1-128.6h-44.7v221.6h40.5v-160.8l97.1 123.2h13.3l94.6-123.2v160.8h42.9v-221.6h-43.8z"/>
			<path id="Layer" class="s0" d="m1278.3 376.6v-81.2l99.5-140.4h-45.8l-73.9 104-73.8-104h-53.4l104.4 147.2v74.4h43z"/>
			<path id="Layer" fill-rule="evenodd" class="s0" d="m539.3 265.5c0 64.3-54.5 116.5-135.9 116.5-81.4 0-135.9-52.2-135.9-116.5 0-64.2 54.5-116.4 135.9-116.4 81.4 0 135.9 52.2 135.9 116.4zm-47.1 0c0-45.1-39.7-81.6-88.8-81.6-49.1 0-88.8 36.5-88.8 81.6 0 45.2 39.7 81.6 88.8 81.6 49.1 0 88.8-36.4 88.8-81.6z"/>
			<path id="Layer" class="s0" d="m50.5 206.9c0-16.3 27-24.6 70-24.6q12.5 0.1 25 1.4 12.5 1.4 24.8 3.9 12.3 2.6 24.3 6.3 12 3.8 23.5 8.7l13.3-29.6q-12.7-5.8-25.9-10.3-13.3-4.5-26.9-7.5-13.6-3-27.5-4.5-13.9-1.6-27.9-1.6c-75.5 0-118.8 25.4-118.8 63.5 0 81.7 185 48.8 185 102.7 0 13.1-11 32.5-68.9 32.5q-13.3-0.3-26.5-2.1-13.3-1.9-26.2-5.3-12.9-3.5-25.2-8.5-12.4-5-24.1-11.4l-18.5 31.2c12.6 8.7 61 30.1 120.7 30.1 33.2 0 118-9.3 118-74.5 0-87.5-188.2-60.7-188.2-100.4z"/>
			<path id="Layer" class="s1" d="m1509.1 66.9c18.9 12.8 31.9 32.8 36 55.4 4.1 22.5-1.1 45.8-14.3 64.5-13.3 18.7-33.5 31.3-56.1 35-22.7 3.6-45.9-2-64.3-15.6z"/>
			<path id="Layer" class="s2" d="m1446.5 155c-18-13.2-30.1-33-33.6-55.1-3.6-22.1 1.7-44.6 14.6-62.9 12.9-18.2 32.5-30.7 54.5-34.7 22-3.9 44.6 0.9 63.1 13.4z"/>
		</g>
	</g>
</svg>