<svg version="1.2" xmlns="http://www.w3.org/2000/svg" viewBox="0 0 1559 221" width="1559" height="221">
	<title>southern_company_logo_dark_text_horizontal-svg</title>
	<style>
		.s0 { fill: #ffffff } 
		.s1 { fill: #007dba } 
		.s2 { fill: #b2d235 } 
		.s3 { fill: #00bdf2 } 
		.s4 { fill: #ed1d24 } 
	</style>
	<g id="Layer_2">
		<g id="Layer_1-2">
			<path id="Layer" fill-rule="evenodd" class="s0" d="m261.6 182.1l2.8-17.2q3.8 2.4 7.8 4.3 4.1 1.9 8.4 3.1 4.3 1.2 8.8 1.8 4.4 0.5 8.9 0.5c15 0 24.7-6.4 24.7-16.8 0-7.8-4.9-12.8-17.3-19-2.7-1.4-14.9-6.6-19-8.5-14.4-6.5-23.7-16.2-23.7-32 0-17.7 14.8-30.5 39.9-30.5q4-0.1 8 0.3 4 0.5 7.9 1.4 4 0.9 7.7 2.4 3.8 1.4 7.3 3.3l-2.9 16.6q-3.3-2-6.7-3.5-3.5-1.6-7.1-2.6-3.7-1.1-7.4-1.6-3.8-0.6-7.6-0.6c-14.1 0-21.4 6.6-21.4 15.2 0 7.3 5 11.8 14.1 15.9 3.4 1.6 18.2 7.8 21 9 17.3 7.9 25.1 18.2 25.1 32.8 0 20.2-16.8 34-41.9 34q-4.8 0.3-9.7-0.1-4.8-0.4-9.5-1.5-4.8-1-9.3-2.7-4.5-1.7-8.8-4m126.4 8.3c-21.4 0-38.5-13.8-38.5-43.1 0-29.4 17.4-43.2 38.5-43.2 22.2 0 38.4 15.1 38.4 43.2 0 28-17.3 43.1-38.4 43.1zm21.4-43.1c0-16-9.5-28.9-21.4-28.9-11.9 0-21.4 12.9-21.4 28.9 0 15.9 9.5 28.8 21.4 28.8 11.9 0 21.4-12.9 21.4-28.8zm28.1 17.9v-59.6h17v53.9c0 9.7 3 15.9 13.2 15.9 8.7 0 17.8-8.1 21-12.4v-57.4h16.9v82.9h-14.5l-1.4-10.5q-2.8 2.7-6 4.9-3.2 2.2-6.7 3.8-3.6 1.6-7.4 2.5-3.7 1-7.6 1.2c-16.6 0-24.7-10.2-24.7-25.2zm130.1 23.7q-1.5 0.4-3.1 0.6-1.7 0.3-3.3 0.5-1.6 0.2-3.2 0.3-1.6 0.1-3.3 0.1c-15.9 0-24.2-7.9-24.2-24.5v-45.9h-11.9v-14.4h11.9v-22.7l16.8-4.8v27.3h17.4l2.5 14.3h-19.9v44.3c-0.2 1.4-0.1 2.8 0.4 4.2 0.4 1.4 1.2 2.6 2.2 3.6 1 1 2.3 1.8 3.7 2.2 1.3 0.4 2.8 0.5 4.2 0.3q1 0 1.9 0 1-0.1 2-0.2 0.9-0.1 1.9-0.3 0.9-0.1 1.9-0.4zm81.6-59.7v59.6h-16.7v-53.9c0-9.6-3.3-16-13.5-16-8.6 0-17.3 8.3-20.9 12.7v57.2h-16.7v-120.1l16.7-4.8v51.6q2.7-2.5 5.8-4.5 3-2.1 6.4-3.5 3.4-1.5 7-2.3 3.6-0.9 7.2-1.1c16.6 0 24.7 10 24.7 25.1zm29 20.5c0 8.9 3.5 26.3 23.4 26.3q4-0.2 8-1 4-0.8 7.8-2.3 3.8-1.6 7.3-3.7 3.4-2.2 6.5-4.9l2.4 14.9q-3.5 2.9-7.5 5.1-4 2.2-8.3 3.7-4.3 1.4-8.8 2.1-4.5 0.6-9.1 0.4c-22.9 0-38.4-15.3-38.4-43.3 0-29 17.8-43.2 36.8-43.2 24.8 0 35.5 20.2 35.5 41.5v4.1zm38.1-13.1c-1.1-5.5-3.3-19-18.4-19-11.8 0-17.4 10.7-18.8 19zm47.4-16.1q2.3-3.6 5.4-6.6 3.1-3 6.9-5.1 3.8-2.2 7.9-3.4 4.2-1.2 8.5-1.3l2.4 15.2c-3.1-0.1-6.2 0.3-9.2 1.1-3 0.8-5.9 2-8.6 3.6-2.6 1.6-5.1 3.6-7.2 5.9-2.1 2.2-3.9 4.8-5.2 7.6v51.3h-17v-82.9h14zm107.9 8.6v59.6h-17v-53.9c0-9.5-3-15.9-13.2-15.9-8.7 0-17.8 8.2-21 12.6v57.2h-16.9v-82.9h14.5l1.4 10.7q2.7-2.7 5.9-4.9 3.2-2.2 6.8-3.8 3.5-1.6 7.3-2.6 3.7-0.9 7.6-1.1c16.6 0 24.7 10 24.7 25zm139.7-51.7l-2.6 17.8q-3.3-2.8-7.1-5-3.7-2.2-7.8-3.7-4.1-1.5-8.4-2.3-4.2-0.8-8.6-0.9c-24.9 0-37.2 20.1-37.2 45.7 0 27.1 13.3 45.4 37.2 45.4q4.6-0.2 9.1-1.1 4.5-0.9 8.8-2.5 4.3-1.6 8.3-3.9 3.9-2.2 7.5-5.1l2.4 17.8c-1.6 1.8-13.3 10.8-36.3 10.8-32.3 0-55.3-23.3-55.3-61.3 0-38 23-61.3 55.3-61.3q4.6-0.3 9.2 0.2 4.5 0.5 9 1.8 4.4 1.2 8.6 3.1 4.1 1.9 7.9 4.5zm46 113c-21.5 0-38.6-13.8-38.6-43.2 0-29.3 17.8-43.1 38.6-43.1 22.1 0 38.3 15.1 38.3 43.1 0 28-17.3 43.2-38.3 43.2zm21.4-43.2c0-15.9-9.6-28.8-21.4-28.8-11.9 0-21.5 12.9-21.5 28.8 0 16 9.6 28.9 21.5 28.9 11.8 0 21.4-12.9 21.4-28.9zm144.8-18.1v59.6h-16.8v-53.9c0-9.5-2.8-15.9-12.9-15.9-8.7 0-17 8.1-20.5 12.6v57.2h-16.9v-53.9c0-9.5-2.8-15.9-12.9-15.9-8.7 0-17 8.2-20.5 12.6v57.2h-16.9v-82.9h14.5l1.4 10.7q2.7-2.7 5.8-4.9 3.2-2.2 6.6-3.8 3.5-1.6 7.2-2.5 3.7-1 7.5-1.2c2.3-0.3 4.6-0.2 6.8 0.3 2.3 0.5 4.4 1.3 6.4 2.5 1.9 1.1 3.7 2.6 5.2 4.3 1.5 1.7 2.7 3.7 3.6 5.8q2.7-2.9 6-5.2 3.3-2.3 6.9-4 3.7-1.6 7.6-2.6 3.8-0.9 7.8-1.1c16.6 0 23.7 10 23.7 25zm31-12.8q2.4-2.8 5.4-5.1 2.9-2.2 6.2-3.8 3.4-1.6 7-2.4 3.6-0.9 7.3-0.9c19.7 0 32.9 13.8 32.9 43.1 0 30.6-20.4 43.2-40.1 43.2q-2.2-0.1-4.4-0.3-2.2-0.2-4.3-0.7-2.2-0.4-4.3-1-2.1-0.6-4.1-1.4v29l-17 4.8v-115.2h13.8zm1.6 13.3v43.5q1.9 0.7 3.8 1.2 2 0.6 4 0.9 2 0.4 4 0.6 2 0.2 4 0.2c16.3 0 24.4-12.4 24.4-28.8 0-17.5-7.4-28.8-20.5-28.8q-2.9 0.3-5.7 1.2-2.8 0.9-5.4 2.4-2.6 1.4-4.8 3.3-2.3 1.9-4.1 4.3zm118.3 59.1l-0.7-10.2q-2.2 2.8-5 5-2.8 2.3-6 3.8-3.2 1.6-6.7 2.3-3.5 0.8-7 0.7c-15.6 0-28.1-8.1-28.1-25.9 0-24.8 33.7-28.3 51.4-30.2v-2.6c0-5.9-2.4-13.3-16.2-13.3q-3.6 0.2-7.1 0.8-3.6 0.6-7 1.5-3.4 1-6.8 2.3-3.3 1.3-6.4 3l-2.3-14.9q3.6-1.6 7.4-2.9 3.7-1.3 7.6-2.2 3.9-0.9 7.8-1.4 4-0.5 8-0.6c24.7 0 31.9 11.3 31.9 29.6v55.3zm-2-41.1c-19 1.9-34.8 6-34.8 17.4 0 7.5 5.2 11.1 12.8 11.1q3.1-0.2 6.2-1.1 3-0.8 5.8-2.2 2.8-1.4 5.4-3.3 2.5-1.9 4.6-4.3zm100.9 41.1h-16.9v-53.9c0-9.5-3.2-15.9-13.4-15.9-8.6 0-17.4 8.3-20.9 12.6v57.2h-16.9v-82.9h14.5l1.4 10.7q2.8-2.7 6-4.8 3.1-2.2 6.7-3.8 3.5-1.5 7.2-2.5 3.8-0.9 7.6-1.1c16.6 0 24.7 10 24.7 25zm25.6-83l21.2 61.8 20.9-61.8h17.1c0 0-23.7 64.7-33.2 89.8-8.3 22.6-22.1 23.7-29.2 23.7q-0.8 0-1.7-0.1-0.8 0-1.7-0.1-0.8-0.1-1.7-0.2-0.8-0.2-1.6-0.3l-2-14.7q1.1 0.3 2.2 0.6 1.2 0.3 2.3 0.5 1.2 0.2 2.4 0.3 1.1 0.1 2.3 0.1 2.2 0 4.3-0.7 2-0.7 3.8-2 1.7-1.4 2.9-3.2 1.2-1.9 1.7-4c1.3-3.8 2.6-7.4 2.6-7.4l-30.4-82.3z"/>
			<path id="Layer" class="s1" d="m0 188.7l72.5-36.3 145.5 36.2v0.1h-218z"/>
			<path id="Layer" class="s2" d="m27.4 141.2l45.1 11.2-72.5 36.3 27.4-47.5z"/>
			<path id="Layer" class="s3" d="m72.5 152.4l96.6-48.4 48.9 84.6-145.5-36.2z"/>
			<path id="Layer" class="s4" d="m109 0l54.3 93.9-130.1 37.3 75.8-131.2z"/>
		</g>
	</g>
</svg>