<svg version="1.2" baseProfile="tiny-ps" xmlns="http://www.w3.org/2000/svg" viewBox="0 0 1681 1689" width="1681" height="1689">
	<title>Soitec_logo-svg</title>
	<style>
		tspan { white-space:pre }
		.shp0 { fill: #0073bb } 
		.shp1 { fill: #000000 } 
		.shp2 { fill: #72bf44 } 
	</style>
	<g id="layer1">
		<g id="g5651">
			<g id="g5333">
				<path id="path5335" class="shp0" d="M0.29 844.78C0.29 1114.61 126.92 1354.91 323.99 1509.35C521.14 1354.91 647.77 1114.61 647.77 844.78C647.77 574.95 521.14 334.72 323.99 180.21C126.92 334.72 0.29 574.95 0.29 844.78Z" />
			</g>
			<g id="g5337">
				<path id="path5339" class="shp1" d="M533.35 1629.61C629.58 1667.72 734.45 1688.75 844.23 1688.75C1271.66 1688.75 1624.82 1370.95 1680.5 958.7C1584.27 920.6 1479.39 899.56 1369.62 899.56C942.12 899.56 588.95 1217.44 533.35 1629.61Z" />
			</g>
			<g id="g5341">
				<path id="path5343" class="shp2" d="M533.35 59.97C588.95 472.21 942.12 790.02 1369.62 790.02C1479.39 790.02 1584.27 768.98 1680.5 730.88C1624.82 318.64 1271.66 0.83 844.23 0.83C734.45 0.83 629.58 21.79 533.35 59.97Z" />
			</g>
		</g>
	</g>
</svg>