<svg version="1.2" baseProfile="tiny-ps" xmlns="http://www.w3.org/2000/svg" viewBox="0 0 1511 370" width="1511" height="370">
	<title>Soitec_logo-svg</title>
	<style>
		tspan { white-space:pre }
		.shp0 { fill: #ffffff } 
		.shp1 { fill: #0073bb } 
		.shp2 { fill: #72bf44 } 
	</style>
	<g id="layer1">
		<g id="g5651">
			<g id="g5309">
				<path id="path5311" class="shp0" d="M636.33 0.54C620.78 0.54 608.13 13.2 608.13 28.76C608.13 44.31 620.78 56.96 636.33 56.96C651.9 56.96 664.56 44.31 664.56 28.76C664.56 13.2 651.9 0.54 636.33 0.54Z" />
			</g>
			<g id="g5313">
				<path id="path5315" class="shp0" d="M1399.78 368.28C1322.64 368.28 1259.88 305.52 1259.88 228.38C1259.88 151.22 1322.64 88.46 1399.78 88.46C1437.16 88.46 1472.29 103.02 1498.72 129.44C1508.03 138.76 1508.03 153.87 1498.72 163.19C1489.39 172.5 1474.29 172.5 1464.96 163.19C1447.55 145.78 1424.41 136.19 1399.78 136.19C1348.95 136.19 1307.6 177.54 1307.6 228.38C1307.6 279.2 1348.95 320.55 1399.78 320.55C1425.93 320.55 1450.96 309.38 1468.44 289.89C1477.24 280.08 1492.32 279.26 1502.13 288.06C1511.94 296.86 1512.77 311.95 1503.97 321.76C1477.45 351.32 1439.48 368.28 1399.78 368.28Z" />
			</g>
			<g id="g5317">
				<path id="path5319" class="shp0" d="M909.83 328.64C904.64 316.32 890.45 310.55 878.13 315.74C873.17 317.84 852.03 323.9 839.43 315.35C830.59 309.35 826.9 301.72 826.9 270.04L826.9 141.39L868.99 141.39C882.35 141.39 893.19 130.55 893.19 117.19C893.19 103.82 882.35 92.99 868.99 92.99L826.9 92.99L826.9 26.11C826.9 12.73 816.07 1.91 802.7 1.91C789.34 1.91 778.5 12.73 778.5 26.11L778.5 92.99L751.43 92.99C738.07 92.99 727.23 103.82 727.23 117.19C727.23 130.55 738.07 141.39 751.43 141.39L778.5 141.39L778.5 270.04C778.5 301.63 781.1 334.24 812.24 355.38C826.7 365.21 842.46 368.26 856.45 368.26C877.17 368.26 894.01 361.57 896.93 360.34C909.25 355.15 915.02 340.96 909.83 328.64Z" />
			</g>
			<g id="g5321">
				<path id="path5323" fill-rule="evenodd" class="shp0" d="M1090.4 321.43C1121.73 321.43 1137.87 313.45 1153.73 300.56C1153.73 300.56 1163.84 291.27 1173.37 291.27C1179.22 291.27 1184.74 293.45 1189.36 297.59L1189.59 297.8C1194.56 302.35 1197.32 308.08 1197.59 314.38L1190.35 333.21C1187.83 335.73 1167.75 356 1129.27 364.81C1117.69 367.47 1105.64 368.23 1090.4 368.23C1015.16 368.23 958.43 308.08 958.43 228.34C958.43 147.29 1011.64 88.48 1084.94 88.48C1101.69 88.48 1117.69 91.54 1132.48 97.59C1146.85 103.47 1159.8 112.05 1170.96 123.08C1182.08 134.07 1191.14 147.22 1197.88 162.17C1204.76 177.44 1209.07 194.23 1210.7 212.08C1212.07 223.56 1209.41 233.71 1203.25 240.65C1196.71 248.02 1186.56 251.75 1173.08 251.75L1010.04 251.75C1015.28 294.9 1051.39 321.51 1089.72 321.51M1158.63 196.66C1149.16 157.64 1122.29 135.26 1084.94 135.26C1047.51 135.26 1016.65 158.91 1010.04 204.97L1159.84 204.97C1159.84 204.97 1159.75 201.69 1158.63 196.66Z" />
			</g>
			<g id="g5325">
				<path id="path5327" class="shp0" d="M201.12 283.43C199.92 234.7 152.63 217.85 114.06 204.29L110.88 203.18C76.63 191.56 50.74 180.93 54.49 158.86C57.22 141.05 77.31 137.31 93.7 137.31C120.05 137.31 136.83 147.22 147.96 156.92C164.04 170.97 178.93 161.11 183.57 155.72C188.5 149.98 196.86 132.91 177.8 117.39C161.16 104.98 134.3 88.47 93.28 88.47L89.41 88.54C58.16 89.07 38.67 96.28 22.1 113.42C9.22 126.73 2.74 144.18 3.38 163.92C5.07 210.79 44.53 228.6 81.39 241.62L96.98 247.04C125.7 256.86 150.49 265.34 149.65 287.98C149.07 299.29 142.34 308.42 130.17 314.38C120.23 319.26 108.84 320.99 102.1 320.99C95.09 320.99 87.85 320.99 80.33 320.13C79.56 320.05 78.82 319.98 78.24 319.93C68.25 318.12 53.34 313.47 39.06 301.6C34.84 298.1 29.52 296.18 24.05 296.18C17.03 296.18 10.43 299.28 5.93 304.67C-2.32 314.63 -0.95 329.5 9 337.78C24.99 351.04 43.46 360.16 63.91 364.88C64.42 364.98 76.47 367.56 84.88 367.93C87.27 368.07 95.6 368.18 98.84 368.18C130.42 368.18 165.32 353.18 183.7 331.7C196.54 316.75 201.58 301.41 201.12 283.43Z" />
			</g>
			<g id="g5329">
				<path id="path5331" class="shp0" d="M636.35 368.14C622.99 368.14 612.15 357.3 612.15 343.94L612.15 112.61C612.15 99.25 622.99 88.41 636.35 88.41C649.71 88.41 660.55 99.25 660.55 112.61L660.55 343.94C660.55 357.3 649.71 368.14 636.35 368.14Z" />
			</g>
			<g id="g5333">
				<path id="path5335" class="shp1" d="M254.22 228.05C254.22 273.42 275.51 313.82 308.65 339.79C341.8 313.82 363.09 273.42 363.09 228.05C363.09 182.68 341.8 142.28 308.65 116.3C275.51 142.28 254.22 182.68 254.22 228.05Z" />
			</g>
			<g id="g5337">
				<path id="path5339" class="shp0" d="M343.85 360.01C360.03 366.42 377.67 369.96 396.13 369.96C468 369.96 527.39 316.52 536.75 247.2C520.57 240.8 502.93 237.26 484.47 237.26C412.59 237.26 353.2 290.71 343.85 360.01Z" />
			</g>
			<g id="g5341">
				<path id="path5343" class="shp2" d="M343.85 96.08C353.2 165.4 412.59 218.84 484.47 218.84C502.93 218.84 520.57 215.3 536.75 208.89C527.39 139.58 468 86.14 396.13 86.14C377.67 86.14 360.03 89.66 343.85 96.08Z" />
			</g>
		</g>
	</g>
</svg>