<svg version="1.2" baseProfile="tiny-ps" xmlns="http://www.w3.org/2000/svg" viewBox="0 0 1502 1832" width="1502" height="1832">
	<title>logo (3)-svg</title>
	<style>
		tspan { white-space:pre }
		.shp0 { fill: #001b48 } 
	</style>
	<g id="Group_2">
		<path id="Path_1" fill-rule="evenodd" class="shp0" d="M1501.36 618.95L1500.91 649.04C1500.32 695.94 1463.28 784.65 1328.38 784.65L1306.84 784.65L1306.84 725.49L1328.38 725.49C1393.01 725.49 1420.58 700.03 1432.33 678.31L1347.54 678.31C1251.74 678.31 1241.84 696.06 1241.84 868.21L1241.84 1208.31L1342.08 1292.82L1358.99 1307.92C1368.37 1315.55 1376.78 1324.31 1384.04 1333.99C1391.29 1343.67 1397.32 1354.2 1402.01 1365.35C1406.7 1376.5 1410 1388.18 1411.84 1400.13C1413.68 1412.09 1414.05 1424.22 1412.94 1436.26L1412.94 1796.14L1217.09 1831.92L1217.09 1489.79L1176.65 1489.79C1081.65 1489.79 1010.17 1415.95 996.25 1404.2L943.14 1354.91L733.68 1354.91L733.68 1453.5C734 1460.21 733.74 1466.93 732.89 1473.59C732.05 1480.25 730.63 1486.83 728.66 1493.25C726.68 1499.67 724.16 1505.9 721.11 1511.88C718.05 1517.87 714.49 1523.57 710.46 1528.94C705.63 1533.62 700.4 1537.86 694.81 1541.6C689.23 1545.34 683.31 1548.57 677.15 1551.25C670.98 1553.92 664.58 1556.04 658.04 1557.57C651.49 1559.09 644.82 1560.03 638.1 1560.35L358.91 1560.35L323.02 1387.72L540.71 1387.72L540.71 1211.01C540.43 1204.88 540.53 1198.74 541.01 1192.62C541.48 1186.5 542.34 1180.42 543.56 1174.4C544.78 1168.39 546.38 1162.46 548.33 1156.64C550.29 1150.82 552.6 1145.13 555.26 1139.6C560.12 1131.04 566.14 1123.2 573.16 1116.29C580.17 1109.39 588.12 1103.49 596.76 1098.77C605.4 1094.05 614.65 1090.55 624.25 1088.38C633.86 1086.2 643.72 1085.37 653.55 1085.91L579.47 1017.11C506.81 945.39 484.99 923.64 483.07 848.77L302.93 848.77L302.93 954.21L130.53 988.55L130.53 741.04C128.9 724.36 131.02 707.52 136.73 691.76C142.45 675.99 151.61 661.71 163.56 649.94C175.52 638.18 189.95 629.23 205.8 623.76C221.66 618.28 238.54 616.42 255.21 618.31L482.87 618.31L482.87 467.31L445.86 516.81C444.27 518.96 442.6 521.05 440.86 523.09C439.12 525.12 437.3 527.09 435.41 528.99C433.53 530.89 431.57 532.72 429.55 534.48C427.54 536.24 425.46 537.93 423.31 539.54C420.34 541.55 417.23 543.37 414.01 544.96C410.79 546.56 407.47 547.95 404.07 549.1C400.66 550.26 397.19 551.19 393.66 551.89C390.14 552.58 386.57 553.04 382.98 553.26L212.25 553.26L212.25 160.85L184.06 160.85C17.93 160.85 0 60.39 0 17.18L0 0.87L59.87 0.87L59.87 17.18C59.87 53.43 72.72 101.69 184.06 101.69L498.12 101.69C661.13 101.69 799.28 146.14 897.65 230.2C1000.31 317.92 1054.57 444.86 1054.57 596.98L1054.57 839.92L1181.86 991L1181.86 868.18C1181.86 704.45 1189.22 619.01 1347.43 619.01L1501.36 618.95ZM1181.89 1150.33C1182.14 1139.78 1181.43 1129.23 1179.74 1118.81C1178.06 1108.39 1175.42 1098.14 1171.85 1088.21C1168.29 1078.27 1163.81 1068.69 1158.48 1059.57C1153.15 1050.46 1147 1041.86 1140.09 1033.88L994.73 861.39L994.73 596.98C994.73 328.01 804.43 160.96 498.15 160.96L272.06 160.96L272.06 494.13L379.43 494.13C380.11 494.06 380.8 493.97 381.48 493.85C382.15 493.73 382.83 493.59 383.5 493.42C384.17 493.26 384.83 493.07 385.49 492.86C386.14 492.65 386.79 492.41 387.43 492.16C388.33 491.46 389.2 490.74 390.04 489.99C390.89 489.25 391.71 488.47 392.51 487.67C393.31 486.87 394.08 486.04 394.83 485.2C395.58 484.35 396.3 483.47 396.99 482.58L488.68 359.84L542.69 359.84L542.69 677.66L253.04 677.66C248.82 677.46 244.6 677.63 240.42 678.16C236.23 678.69 232.1 679.57 228.07 680.81C224.03 682.05 220.12 683.63 216.35 685.53C212.59 687.44 209 689.67 205.63 692.2C203.04 695.6 200.75 699.22 198.78 703.01C196.81 706.8 195.16 710.76 193.86 714.83C192.56 718.9 191.61 723.07 191.01 727.31C190.42 731.54 190.19 735.81 190.32 740.09L190.32 916.18L243 905.7L243 789.47L595.76 789.47C604.51 790 613.3 789.62 621.97 788.35C630.64 787.07 639.16 784.9 647.39 781.87C655.61 778.84 663.5 774.97 670.93 770.31C678.36 765.66 685.29 760.25 691.6 754.17C698.83 745.32 705.28 735.85 710.87 725.88C716.45 715.91 721.16 705.48 724.93 694.69C728.71 683.9 731.53 672.8 733.38 661.53C735.22 650.25 736.08 638.83 735.94 627.4L735.94 618.95L795.81 618.95L795.81 626.5C796.04 641.79 794.88 657.07 792.36 672.15C789.83 687.23 785.95 702.05 780.76 716.44C775.56 730.82 769.08 744.7 761.38 757.92C753.69 771.13 744.81 783.63 734.87 795.24C725.77 804.22 715.77 812.24 705.03 819.17C694.29 826.11 682.86 831.91 670.93 836.51C659 841.1 646.63 844.45 634.01 846.51C621.39 848.57 608.59 849.33 595.82 848.77L542.86 848.77C543.87 898.21 553.6 907.87 621.08 974.55L1038.25 1362.06C1043.6 1366.57 1103.72 1430.63 1176.56 1430.63L1276.88 1430.63L1276.88 1760.84L1352.98 1746.95L1352.98 1436.26C1354.03 1428.43 1354.06 1420.5 1353.08 1412.66C1352.1 1404.82 1350.1 1397.14 1347.15 1389.82C1344.2 1382.49 1340.31 1375.57 1335.59 1369.24C1330.87 1362.9 1325.34 1357.21 1319.16 1352.29L1302.44 1337.3L1181.89 1235.66L1181.89 1150.33ZM879.33 1295.75L717.08 1145.04L659.41 1145.04C624.15 1145.04 613.24 1157.8 608.05 1167.43C606.58 1170.85 605.3 1174.35 604.24 1177.91C603.18 1181.48 602.33 1185.11 601.7 1188.77C601.06 1192.44 600.65 1196.14 600.45 1199.86C600.26 1203.57 600.28 1207.3 600.53 1211.01L600.53 1446.99L396.4 1446.99L407.67 1501.11L635.76 1501.11C638.48 1500.95 641.18 1500.57 643.83 1499.99C646.49 1499.41 649.1 1498.63 651.64 1497.64C654.17 1496.66 656.63 1495.48 658.98 1494.12C661.34 1492.76 663.58 1491.21 665.7 1489.5C667.16 1486.85 668.44 1484.1 669.53 1481.27C670.61 1478.44 671.5 1475.54 672.18 1472.59C672.86 1469.64 673.33 1466.64 673.6 1463.62C673.86 1460.6 673.91 1457.57 673.76 1454.54L673.76 1295.72L879.33 1295.75Z" />
	</g>
</svg>