<svg version="1.2" baseProfile="tiny-ps" xmlns="http://www.w3.org/2000/svg" viewBox="0 0 1594 1603" width="1594" height="1603">
	<title>sonendo_logo_tag_rgb-svg</title>
	<style>
		tspan { white-space:pre }
		.shp0 { fill: #0062a5 } 
	</style>
	<g id="Layer">
		<g id="Layer">
			<path id="Layer" class="shp0" d="M1587.26 690.68C1581.01 695.89 1572.67 696.93 1565.38 692.76C1455.98 617.78 1321.59 585.5 1194.48 603.2C1122.59 613.62 1051.74 639.65 990.27 679.23C921.51 724.01 868.38 791.7 812.12 851.06C808.99 855.23 805.86 858.35 802.74 861.48C747.52 919.8 689.18 976.03 617.29 1013.53C550.61 1047.89 476.64 1069.76 405.79 1074.97C258.89 1087.47 109.9 1036.44 5.72 937.5C2.59 934.38 0.51 930.21 0.51 926.05C-0.53 920.84 1.55 916.67 4.68 913.55C10.93 908.34 19.26 907.3 26.55 911.47C135.95 986.45 270.35 1018.73 399.54 1001.03C471.43 990.61 542.27 964.58 603.74 925C672.51 880.22 725.64 812.53 781.9 753.17C785.03 749 788.15 745.88 791.28 742.75C846.5 684.43 904.84 628.2 976.73 590.7C1043.41 556.34 1117.38 534.47 1188.23 529.26C1335.13 516.76 1484.12 567.79 1588.3 666.73C1591.43 669.85 1593.51 674.02 1593.51 678.18C1593.51 682.35 1591.43 686.52 1587.26 690.68ZM1108 60.61C1112.17 62.7 1115.3 65.82 1116.34 69.99C1117.38 74.15 1117.38 79.36 1115.3 82.48C1111.13 89.77 1102.79 92.9 1095.5 90.81C1095.5 90.81 914.22 23.12 714.18 106.44C514.14 189.75 426.63 391.79 426.63 391.79C423.5 397 419.34 391.79 419.34 391.79L375.58 348.05C372.45 344.93 374.54 338.68 374.54 338.68C374.54 338.68 459.97 111.64 700.64 30.41C941.31 -50.82 1108 60.61 1108 60.61ZM1418.48 427.2C1421.6 429.28 1424.73 433.45 1425.77 437.61C1426.81 441.78 1425.77 446.99 1422.65 450.11C1417.44 456.36 1409.1 459.48 1401.81 455.32C1401.81 455.32 1230.94 363.67 1022.57 418.87C814.2 474.06 699.6 662.56 699.6 662.56C696.47 667.77 691.26 662.56 691.26 662.56L647.5 617.78C644.38 613.62 647.5 608.41 647.5 608.41C647.5 608.41 768.36 390.75 1017.36 342.84C1267.41 295.98 1418.48 427.2 1418.48 427.2ZM1262.2 235.57C1266.37 237.66 1268.45 241.82 1269.49 245.99C1270.53 250.15 1269.49 255.36 1267.41 258.49C1263.24 265.78 1254.91 268.9 1246.57 265.78C1246.57 265.78 1069.46 187.67 865.25 258.49C661.05 329.3 562.07 526.13 562.07 526.13C558.94 531.34 554.78 527.18 554.78 527.18L511.02 483.44C507.89 479.27 511.02 474.06 511.02 474.06C511.02 474.06 612.08 249.11 856.92 183.5C1101.75 117.89 1262.2 235.57 1262.2 235.57ZM484.97 1542.58C480.8 1540.49 477.68 1537.37 476.64 1533.2C475.6 1529.04 475.6 1523.83 477.68 1520.71C481.85 1513.42 490.18 1510.29 497.47 1512.37C497.47 1512.37 678.76 1580.07 878.79 1496.75C1078.83 1413.44 1166.35 1211.4 1166.35 1211.4C1169.47 1206.19 1173.64 1211.4 1173.64 1211.4L1217.4 1255.14C1220.52 1258.26 1218.44 1264.51 1218.44 1264.51C1218.44 1264.51 1133.01 1491.54 892.34 1572.78C651.67 1654.01 484.97 1542.58 484.97 1542.58ZM174.5 1175.99C171.37 1173.91 168.25 1169.74 167.21 1165.58C166.16 1161.41 167.21 1156.2 170.33 1153.08C175.54 1146.83 183.87 1143.71 191.17 1147.87C191.17 1147.87 362.03 1239.52 570.4 1184.32C778.78 1129.13 893.38 941.67 893.38 941.67C896.51 936.46 901.72 941.67 901.72 941.67L945.47 986.45C948.6 990.61 945.47 995.82 945.47 995.82C945.47 995.82 824.62 1213.48 575.61 1261.39C325.57 1306.17 174.5 1175.99 174.5 1175.99ZM330.78 1366.57C326.61 1364.49 324.53 1360.32 323.48 1356.16C322.44 1351.99 323.48 1346.79 325.57 1343.66C329.74 1336.37 338.07 1333.25 346.4 1336.37C346.4 1336.37 523.52 1414.48 727.73 1343.66C931.93 1272.84 1030.91 1076.01 1030.91 1076.01C1034.03 1070.81 1038.2 1074.97 1038.2 1074.97L1080.92 1118.71C1084.04 1122.88 1080.92 1128.08 1080.92 1128.08C1080.92 1128.08 979.86 1353.03 735.02 1418.64C492.27 1485.3 330.78 1366.57 330.78 1366.57Z" />
		</g>
	</g>
</svg>