<svg version="1.2" xmlns="http://www.w3.org/2000/svg" viewBox="0 0 1435 1658" width="1435" height="1658">
	<title>SOPHiA-GENETICS-Logo-2-svg</title>
	<style>
		.s0 { fill: #032f4a } 
	</style>
	<g id="#032f4aff">
		<path id="Layer" class="s0" d="m688.4 0h57.8c25.4 6.5 50.8 14.1 73.5 27.4c43.4 25.2 76.9 66.9 91.8 114.9c17.2 54.5 10 116.2-19.8 165c-24.3 41.1-63.6 73.1-109 88.1c-55.4 19.2-118.9 12.5-169.3-17.4c-40.4-23.6-72-61.7-87.8-105.8c-11.4-31.2-14.4-65.2-9.8-98c8.2-58.3 43.1-112.1 92.9-143.4c24.1-15.8 51.9-24.1 79.7-30.8zm-404.9 201.9c45.7-9.5 95.8 2.7 131 33.6c54.8 45.2 69.1 130.7 32 191.3c-23.8 41.1-67.3 70.6-114.8 75.5c-38.9 4.3-79.3-7-110.2-31.1c-34.9-26.7-57-69.4-58.3-113.3c-1.8-35.2 9.1-70.7 30.3-98.8c21.7-29.2 54.4-49.9 90-57.2zm968.8 239.5c23.7-2.7 48.5 6.7 64.2 24.8c17.2 19.3 23 47.5 16.3 72.3c-9.5 36.3-48.5 60.2-85.3 53.4c-27.1-3.5-51.1-23.6-59.7-49.5c-7.5-22.4-5.5-48.8 8.4-68.4c12.5-18.6 33.8-30.6 56.1-32.6zm-1232.5 218.6c24.8-33.8 71.5-48.8 111.4-36.1c36.9 11.2 65.5 45.1 70.5 83.3c4.5 29.6-5.7 60.7-25.9 82.6c-31.2 34.8-87.4 43-127.1 18.2c-25.1-14.6-40.5-40.8-48.7-67.9v-38.9c4.7-14.6 10.7-28.9 19.8-41.2zm1294.6 178.7c48.1-10.4 99.4 20.1 114.8 66.5c10.2 29.4 6.3 63.5-11.3 89.4c-20.7 31.5-59.8 49.6-97.3 44.7c-49.2-5.1-89.6-50.9-88.7-100.3c-1.9-47.8 35.8-92.2 82.5-100.3zm-1158.9 230c24.8-6.4 53.1-0.9 71.7 17.3c30.4 27.5 31.3 80.1 2.5 109c-25.5 28-73 31.2-102.2 7.3c-19-14.8-29.7-39.1-28.4-63c-0.3-32.9 24.8-63.1 56.4-70.6zm942.4 89c43.9-6.2 90.5 7.5 123.3 37.6c25.8 22.9 43.1 55 48.3 89c7.2 43.9-6.1 90.5-35.2 124.1c-29.6 34.8-75.9 54.5-121.5 51.9c-67.4-1.1-129.3-53.3-142.3-119.3c-7.9-36.4-2.1-75.5 16.4-107.8c22.5-40.7 64.9-69.5 111-75.5zm-475.4 117.9c47.9-25.4 106.2-30.7 157.8-13.9c56.6 17.7 103.7 62.3 125.7 117.2c16.5 40.6 19.2 86.6 7.6 128.8c-14.1 52.7-50.2 99.2-98.1 125.4c-21.5 11.9-45.3 18.9-69.1 24.9h-58c-28.4-7.1-57-16.1-81.6-32.3c-47.4-30-80.9-80.7-90.2-135.9c-5.7-34.6-2.9-70.8 9.2-103.8c16.9-47.2 52.3-87.3 96.7-110.4z" />
	</g>
</svg>