<svg version="1.2" xmlns="http://www.w3.org/2000/svg" viewBox="0 0 1594 324" width="1594" height="324">
	<title>sag-primary-logo-dark-svg</title>
	<defs>
		<linearGradient id="g1" x1="0" y1="161.7" x2="261.8" y2="161.7" gradientUnits="userSpaceOnUse">
			<stop offset="0" stop-color="#8e3cf7"/>
			<stop offset="1" stop-color="#3cc1b7"/>
		</linearGradient>
	</defs>
	<style>
		.s0 { fill: url(#g1) } 
		.s1 { fill: #011f3d } 
	</style>
	<g id="Layer">
		<g id="Layer">
			<path id="Layer" class="s0" d="m142.2 134.4c-42.3-11-81.1-24.8-81.1-73.4h-61.1c0 91.2 59.6 112.8 119.5 128 42.3 11 81.2 20.8 81.2 73.4h61.1c0-92-60.5-112.8-119.6-128z"/>
			<path id="Layer" class="s1" d="m49.2 323.4h89.9c33.7 0 61.6-25.9 61.6-61h-151.5zm163-323.4h-89.5c-33.7 0-61.6 25.9-61.6 61h151.1z"/>
		</g>
		<path id="Layer" fill-rule="evenodd" class="s1" d="m446.3 220.1c0 29.1-25.4 45.8-58.5 45.8-29.1 0-52.4-13.6-61-35.4l30.2-16.7c5.2 11.5 17 21.6 31.7 21.6 15 0 24.2-6.1 24.2-14.1 0-9.5-9.8-14.4-33.1-18.2-30.9-4.6-48.7-18.7-48.7-43.7 0-26.5 25.3-44.3 54.7-44.3 28.5 0 46.9 11.2 57.6 31.9l-27.1 16.7c-6-11.8-18.7-18.1-30.5-18.1-10.9 0-21.9 4.3-21.9 12.6 0 8.4 9.8 14.1 34.3 17.9 29.4 4.6 48.1 15.8 48.1 44zm165.9-29.6c0 44-32.5 75.3-76.9 75.3-44 0-76.6-31.3-76.6-75.3 0-44.1 32.6-75.4 76.6-75.4 44.4 0 76.9 31.3 76.9 75.4zm-34 0c0-26.2-18.1-44.4-42.9-44.4-24.7 0-42.6 18.2-42.6 44.4 0 26.1 17.9 44.3 42.6 44.3 24.8 0 42.9-18.2 42.9-44.3zm882.4-2.9v12.4h-113.1c3.1 21.5 18.4 35.9 40.6 35.9 19 0 30.2-7.5 38.8-18.7l26 19.3c-14.4 18.4-32.6 29.3-64.8 29.3-44.1 0-74.3-31.3-74.3-75.3 0-44.1 30.2-75.4 74.3-75.4 43.2 0 72.5 29.9 72.5 72.5zm-33.9-15c-4.4-15.8-17.9-28.7-38.6-28.7-19.3 0-33.1 11.5-38.9 28.7zm87.5-54.1l23.1 55.9h-13l-4.9-12.7h-22.4l-4.9 12.7h-13l23-55.9zm1.2 32.8l-7.2-19-7.2 19zm-737.2-32.8h40.3v30.8h-40.3v82h40.3v31.1h-41.7c-20.5 0-31.4-10.9-31.4-31.1v-82h-68.2v113.1h-32.9v-113.1h-29.9v-30.8h29.9v-26.7c0-19.9 11.3-30.8 31.4-30.8h41.2v30.8h-39.7v26.7h68.2v-42.5h32.8c0 0 0 42.5 0 42.5zm785.9 26.5h29.9v3.2c0 15.8-11 27-27.1 27-16.7 0-28.2-12.9-28.2-28.7 0-15.9 12.1-28.8 28.2-28.8 11.3 0 19.6 4.6 23.9 11.8l-9.5 6.3c-2.6-4-6.9-7.5-14.4-7.5-9.8 0-17 8.1-17 18.2 0 10 7 18.1 17.3 18.1 8.4 0 12.7-4.6 14.7-10.4h-17.8zm-311.1-26.5h55.9v31.1h-54.4v112.8h-32.9v-112.8c0-20.1 11-31.1 31.4-31.1zm-242.1 0h35.4l-43.2 143.9h-35.7l-29.6-104.5-29.7 104.5h-35.7l-43.2-143.9h35.7l26.5 96.4 27.1-96.4h38.6l27 96.4zm152.2 0h32.8v143.9h-32.8v-16.4c-8.1 10.9-21 19.8-43.2 19.8-41.8 0-71.7-31.1-71.7-75.4 0-44.3 29.9-75.3 71.7-75.3 20.2 0 35.1 7.7 43.2 19.2zm1.7 72c0-26.8-17-44.6-41.5-44.6-24.4 0-41.4 17.8-41.4 44.6 0 26.7 17 44.6 41.4 44.6 24.5 0 41.5-17.9 41.5-44.6z"/>
	</g>
</svg>