<svg version="1.2" xmlns="http://www.w3.org/2000/svg" viewBox="0 0 1550 478" width="1550" height="478">
	<title>BOOKMARKED_Superior-Plus_AIF-1-pdf-svg</title>
	<defs>
		<clipPath clipPathUnits="userSpaceOnUse" id="cp1">
			<path d="m-4055.78-773.14h6467.17v8485.05h-6467.17z"/>
		</clipPath>
	</defs>
	<style>
		.s0 { fill: #2c2e35 } 
		.s1 { fill: #fd5749 } 
	</style>
	<g id="Clip-Path: Page 1" clip-path="url(#cp1)">
		<g id="Page 1">
			<path id="Path 3" fill-rule="evenodd" class="s0" d="m1297.8 256.6h28.9v166.1h-28.9zm-951 169c-11.3 0-22.1-1-31.9-3.9l2-27.4c8.8 2.9 21.1 5.4 32.3 5.4 14.7 0 26.5-5.9 26.5-20.1 0-29.4-64.7-16.2-64.7-66.7 0-27.4 22.1-46 58.8-46 8.8 0 18.6 1 27.9 2.4l-1.9 26c-8.3-2.4-18.1-3.9-27.4-3.9-17.2 0-25.5 7.8-25.5 18.6 0 27.4 64.6 17.6 64.6 65.6 0 29-23 50-60.7 50zm151.4-2.4c0-5.4 0.5-14.2 1.5-20.1v-0.5c-6.9 13.7-20.1 23-38.7 23-25.5 0-33.9-16.6-33.9-36.2v-79.4h29v72.5c0 11.8 3.4 18.6 14.2 18.6 14.7 0 26.4-16.6 26.4-36.7v-54.4h28.9v113.2zm96 1.4c-5.3 0-9.7-0.5-14.2-0.9v53.8h-29.4v-168h27.5c0 5.4-0.5 13.2-1.5 19.1h0.5c6.4-13.2 18.6-21 35.8-21 26.9 0 41.1 19.1 41.1 52.4 0 39.7-20.6 64.6-59.8 64.6zm9.8-93.5c-15.1 0-24 18.1-24 37.2v31.4c4.5 1.4 9.4 2.4 15.2 2.4 16.2 0 28.4-10.8 28.4-38.7 0-21.1-6.3-32.3-19.6-32.3zm164.7 39.6h-70.1c0 21.6 10.3 31.4 31.4 31.4 11.2 0 23-2.4 32.8-6.9l2.9 22.6c-12.2 4.9-26.4 7.3-40.6 7.3-36.3 0-55.9-18.1-55.9-57.8 0-34.8 19.1-60.2 52.9-60.2 32.8 0 47.5 22.5 47.5 50.4 0 3.9 0 8.8-0.9 13.2zm-47.6-42.1c-12.2 0-20.5 8.8-22 22.6h41.6c0.5-14.3-7.3-22.6-19.6-22.6zm130.9 7.4q-31.4-6.4-31.4 40.6v46.1h-29.4v-113.2h27.9c0 5.9-0.9 14.7-2.4 23h0.5c5.4-14.7 16.6-26.9 36.2-25.4zm20.1-26h29.4v113.2h-29.4zm14.7-14.7c-10 0-18.1-7.9-18.1-17.7 0-9.7 8.1-17.6 18.1-17.6 10 0 18.1 7.9 18.1 17.6 0 9.8-8.1 17.7-18.1 17.7zm88.2 130.3c-31.8 0-52.9-16.7-52.9-57.3 0-35.3 23.5-60.8 58.3-60.8 31.8 0 52.4 17.7 52.4 56.8 0 35.3-23.5 61.3-57.8 61.3zm2.9-93.6c-12.7 0-25.4 10.3-25.4 33.3q0 35.3 25 35.3c14.6 0 25.4-11.8 25.4-34.8 0-22-7.8-33.8-25-33.8zm136.7 3.9q-31.3-6.3-31.3 40.7v46.5h-28.9v-113.1h27.4c0 5.4-0.5 14.7-2 22.5h0.5c5.4-14.2 16.2-26.9 35.8-25zm105.3 33.3c-2.9 0-6.3 0-9.8-0.5v53.9h-29.8v-153.8q18.6-1 41.1-0.5c37.7 0 58.8 17.2 58.8 47.5 0 29.9-23 53.4-60.3 53.4zm0.5-76.9q-5.4 0-10.3 0v51.5q4.4 0.4 8.4 0.4c18.1 0 30.8-10.2 30.8-26.9 0-15.2-8.8-25-28.9-25zm203.4 130.3c0-4.9 0-14.2 1.4-20.1h-0.5c-6.8 13.3-19.6 22.6-38.7 22.6-25.4 0-33.3-16.2-33.3-36.3v-79.3h28.9v72.5c0 11.7 3 19.1 13.7 19.1 15.2 0 26.5-17.2 26.5-36.8v-54.8h28.9v113.1zm75 2.5c-8.4 0-16.2-1-23.6-2l0.5-24c7.4 2 15.7 3.4 24.5 3.4 11.3 0 18.6-4.4 18.6-12.2 0-20.1-46-8.3-46-47 0-19.6 16.2-36.3 48-36.3 6.9 0 14.2 1 21.1 2l-1 23c-6.4-1.5-14.2-2.9-21.1-2.9-11.2 0-17.1 4.4-17.1 11.7 0 18.6 46.5 10.3 46.5 47 0 22.1-19.6 37.3-50.4 37.3z"/>
			<path id="Path 8" class="s1" d="m193.4 0.9c4 81.8-94.5 104.8-130.8 110.2q-0.5 0-1.4 0c45-8.8 48-30.3 51.4-110.2zm-192.5 116.1c81.8-3.9 105.3 94.6 110.2 130.8q0 0.5 0 1.5c-8.3-45.1-30.4-48-110.2-51.5zm116.6 192.6c-4.4-81.8 94-105.4 130.3-110.3q1 0 1.5 0c-45.1 8.4-48.1 30.4-51.5 110.3zm192.6-116.6c-81.9 4.4-105.4-94.1-110.3-130.3q0-1 0-1.5c8.4 45.1 30.4 48 110.3 50.9z"/>
		</g>
	</g>
</svg>