<svg version="1.2" xmlns="http://www.w3.org/2000/svg" viewBox="0 0 1550 695" width="1550" height="695">
	<title>2022-Annual-Report_FINAL-1-pdf-svg</title>
	<defs>
		<clipPath clipPathUnits="userSpaceOnUse" id="cp1">
			<path d="m-319.83-4289.51h4072.77v5304.17h-4072.77z"/>
		</clipPath>
	</defs>
	<style>
		.s0 { fill: #0047ba } 
	</style>
	<g id="Clip-Path: Page 1" clip-path="url(#cp1)">
		<g id="Page 1">
			<path id="Path 14" fill-rule="evenodd" class="s0" d="m1371.7 2.1c2.4-3.7 6.8-1.7 5.8 2.8l-64.4 258.7c-0.7 2 0 3.4 2.4 4.1l231.4 60c4.1 1 4.1 5.4-0.4 6.5l-294.8 61.3c-1 0-1.4 0.3-2.1 1l-173.8 244.7c-2.7 3.7-7.9 0.7-5.8-3.4l182.4-377.3c1.7-3.8-2.4-6.9-5.5-3.8l-112.1 121.7c-1 1-1.7 1-3.1 0.7l-232.8-60.4c-4.1-1-4.1-5.8 0-6.5l293.5-58.9c1-0.3 1.3-0.7 2-1.4zm-404.2 681.2c-0.6-0.7-0.6-1.4-0.3-2l3.4-6.6c0.4-0.6 1.4-1 2.1-0.3 4.1 2.7 12 8.6 27.4 8.6 13.7 0 18.2-4.1 18.2-8.6 0-5.1-4.8-7.2-11-7.5l-16.1-0.4c-6.5 0-20.2-3.4-20.2-16.4 0-10.6 9.9-17.5 25-17.5 8.6 0 15.1 1.4 19.9 3.4 2.4 0.7 4.4 1.7 5.8 2.4q2.4 1.4 3.1 1.7c0.7 0.7 0.7 1.4 0.3 2.1l-3 6.5c-0.4 0.7-1.4 1-2.1 0.7-6.9-4.1-14.7-6.9-22.6-6.9-13.4 0-16.1 4.1-16.1 7.2 0 4.8 3.7 6.5 9.6 6.9l15 0.3c10.3 0.4 22.7 5.2 22.7 17.5 0 10.3-7.6 18.5-27.8 18.5-9.3 0-16.5-1.7-21.9-3.8q-4.2-1.7-6.9-3c-2.1-1.1-3.4-2.1-4.5-2.8zm-98.3-47.6c0-0.7 0.6-1.4 1.7-1.4h7.2c0.3 0 1 0.4 1 0.7l21.6 33.2 21.6-33.2c0.3-0.3 0.7-0.7 1.4-0.7h6.8c1 0 1.7 0.7 1.7 1.4v54.1c0 1-0.7 1.7-1.7 1.7h-6.8c-1.1 0-1.8-0.7-1.8-1.7v-37.7l-19.8 31.6c-0.7 1-2.1 1-2.8 0l-19.9-31.6v37.7c0 1-0.7 1.7-1.3 1.7h-7.2c-1.1 0-1.7-0.7-1.7-1.7zm-92.3 0c0-0.7 0.7-1.3 1.4-1.3h47.7c0.6 0 1.3 0.6 1.3 1.3v7.2c0 0.7-0.7 1.4-1.3 1.4h-39.1v13h21.6c1 0 1.7 0.7 1.7 1.4v7.2c0 0.7-0.7 1.3-1.7 1.3h-21.6v14.1h40.1c0.7 0 1.4 0.7 1.4 1.7v6.9c0 1-0.7 1.7-1.4 1.7h-48.7c-0.7 0-1.4-0.7-1.4-1.7zm-71.3 8.9h-20.5c-0.7 0-1.4-0.7-1.4-1.7v-7.2c0-0.7 0.7-1.4 1.4-1.4h50.7c1 0 1.7 0.7 1.7 1.4v7.2c0 1-0.7 1.7-1.7 1.7h-20.2v45.2c0 1-0.7 1.7-1.4 1.7h-7.2c-0.7 0-1.4-0.7-1.4-1.7zm-117.2 39.1c-0.7-0.4-1.1-1.4-0.7-2.1l3.4-6.5c0.7-0.7 1.7-1 2.4-0.3 4.1 2.7 12 8.5 27.4 8.5 13.8 0 18.2-4.1 18.2-8.2 0-5.1-5.1-7.5-11-7.5l-16.4-0.7c-6.5 0-19.9-3.1-19.9-16.5 0-10.3 9.6-17.5 24.7-17.5 8.6 0 15.4 1.8 20.2 3.5 2.4 0.7 4.5 1.7 5.8 2.4q2.1 1.3 2.8 2c0.7 0.4 1 1.1 0.7 1.7l-3.5 6.6c-0.3 0.6-1.3 1-2 0.6-6.9-4.1-14.8-6.5-22.3-6.5-13.4 0-16.5 4.1-16.5 7.2 0 4.5 4.2 6.5 9.6 6.5l15.1 0.4c10.7 0.3 23 5.1 23 17.5 0 10.2-7.5 18.8-28.1 18.8-9.3 0-16.5-1.7-21.6-3.8q-4.1-1.7-6.9-3.4c-2-1-3.4-2.1-4.4-2.7zm-64.1-19.6l-24.4-27c-1-1.1-0.3-2.4 1.1-2.4h9.2c0.4 0 1 0.3 1.4 0.3l17.5 19.5 17.8-19.5c0.3 0 0.7-0.3 1-0.3h9.6c1.4 0 2.1 1.3 1.1 2.4l-24.4 27v26.1c0 1-0.7 1.7-1.4 1.7h-7.2c-0.6 0-1.3-0.7-1.3-1.7zm-120 19.8c-0.7-0.6-0.7-1.3-0.4-2l3.5-6.5c0.3-0.7 1.3-1 2-0.4 4.1 2.8 12 8.6 27.4 8.6 13.8 0 18.2-4.1 18.2-8.6 0-5.1-4.8-7.2-11-7.5l-16.1-0.3c-6.5 0-20.2-3.5-20.2-16.5 0-10.6 9.9-17.5 25-17.5 8.6 0 15.1 1.4 19.9 3.5 2.4 0.6 4.5 1.7 5.8 2.4q2.4 1.3 3.1 1.7c0.7 0.7 0.7 1.3 0.4 2l-3.1 6.5c-0.4 0.7-1.4 1.1-2.1 0.7-6.8-4.1-14.7-6.8-22.6-6.8-13.4 0-16.1 4.1-16.1 7.2 0 4.8 3.8 6.5 9.6 6.8l15.1 0.4c10.3 0.3 22.6 5.1 22.6 17.4 0 10.3-7.5 18.5-27.8 18.5-9.2 0-16.4-1.7-21.9-3.7q-4.1-1.7-6.9-3.1c-1.7-1-3.4-2.1-4.4-2.8zm-70.8 9.6c-18.9 0-34.1-13.4-34.1-30.1 0-16.7 15.2-30.2 34.1-30.2 18.8 0 34.1 13.5 34.1 30.2 0 16.7-15.3 30.1-34.1 30.1zm0.2-50.3c-15.1 0-24 9.6-24 20.2 0 10.6 8.9 20.2 24 20.2 14.7 0 24-9.6 24-20.2 0-10.6-9.3-20.2-24-20.2zm-99.5 27h-21.6v20.3c0 1-0.6 1.7-1.7 1.7h-6.8c-1.1 0-1.7-0.7-1.7-1.7v-54.2c0-0.7 0.6-1.4 1.7-1.4h33.6c9.9 0 21.9 3.8 21.9 17.5 0 10-7.5 15.1-13.4 16.8l14.4 20.6c0.7 1 0 2.4-1.3 2.4h-8.9c-0.4 0-1.1-0.4-1.1-0.7zm-21.9-10.3h25c7.2 0 12-1.7 12-7.5 0-6.2-5.5-7.6-12-7.6h-25zm-103.6-23.3c0-1 0.7-1.7 1.4-1.7h47.7c0.7 0 1.7 0.7 1.7 1.7v6.9c0 1-1 1.7-1.7 1.7h-38.8v12.7h21.6c0.7 0 1.4 0.7 1.4 1.3v7.2c0 1.1-0.7 1.8-1.4 1.8h-21.6v13.7h39.8c1 0 1.7 1 1.7 1.7v7.2c0 0.7-0.7 1.3-1.7 1.3h-48.7c-0.7 0-1.4-0.6-1.4-1.3zm-99 55.5h-7.2c-1.4 0-1.7-1.1-1.4-2.1l30.9-54.1c0-0.7 0.6-1 1.3-1h5.9c0.6 0 1.3 0.3 1.3 1l30.5 54.1c0.7 1 0 2.1-1 2.1h-7.2c-0.7 0-1-0.4-1.4-0.7l-7.5-12.7h-35.7l-7.2 12.7c-0.3 0.3-1 0.7-1.3 0.7zm14.4-23.7h24.3l-12.3-21.6zm26.4-160.7c-30.9 0-46-22.2-46-44.2 0.4-22.2 15.8-44.2 46-44.2h114.1c1.7 0 2.8 1.1 1.7 2.8l-14 27c-0.4 0.4-1.4 1.1-1.7 1.1h-100.1c-7.6 0-14.4 4.1-14.4 13.3 0 7.6 4.1 13.4 14.4 13.4h62.7c30.5 0 45.9 22.3 45.9 44.2 0.4 22.3-15 44.2-45.9 44.2h-110c-1.8 0-2.8-1.4-1.8-2.7l14.1-27.1c0.3-0.3 1.4-1 1.7-1h96.3c13.4 0 14.4-11.3 14.4-13.4 0-5.1-3.4-13.4-14.7-13.4zm601.7 1.1c-0.4-0.7-1.4-1.1-1.8-1.1h-44.9c-1.7 0-2.4-1.3-1.7-3l14.1-26.8c0.3-0.3 1.4-1 1.7-1h43.9c13.3 0 14.7-11.6 14.7-13.7 0.4-2.7-1.4-13-14.4-13h-75.4c-1 0-2.1 1-2.1 2v111.1c0 1-1 2-2 2h-29.8c-1.1 0-2.1-1-2.1-2v-142.2c0-1.1 1-1.8 2.1-1.8h109.3c56.6 0 59 63.1 22.3 82.6-0.7 0.4-1 1.4-0.7 2.4l28.8 58.3c0.7 1.3 0 2.7-1.7 2.7h-31.5c-0.4 0-1.4-0.7-1.8-1zm217.4-58.6c-1.7 0-2.4-1-1.7-2.8l14.4-27c0-0.4 1-1.1 1.7-1.1h143.3c1.7 0 2.7 1.4 1.7 2.8l-14 27.1c-0.4 0.6-1.4 1-1.8 1h-49.3c-1.1 0-2.1 1-2.1 2v111.4c0 1-0.7 1.7-1.7 1.7h-29.8c-1.1 0-1.7-0.7-1.7-1.7v-111.4c0-1-1.1-2-2.1-2zm-90.8-28.9c0-1.1 0.9-2 2-2h29.6c1.1 0 2 0.9 2 2v142c0 1.1-0.9 2-2 2h-29.6c-1.1 0-2-0.9-2-2zm-495.1 86.4c-1.7 0-2.4-1.4-1.7-2.7l14.1-26.7c0.3-0.7 1.3-1.1 1.7-1.1h43.9c13.3 0 15-11.6 15-13.7 0-2.7-1.7-13-14.7-13h-75.4c-1.1 0-2.1 0.7-2.1 1.7v111.4c0 1-0.7 2-1.7 2h-30.2c-1 0-1.7-1-1.7-2v-142.2c0-1.1 0.7-2.1 1.7-2.1h109.4c30.9 0 45.9 22.3 45.9 44.2 0 22.3-15.4 44.2-45.9 44.2zm166.3-86.4c0-1.1 0.9-2 2-2h29.2c1.1 0 2 0.9 2 2v142.3c0 1.1-0.9 2-2 2h-29.2c-1.1 0-2-0.9-2-2zm733.6 253.6q0 4.5-1.4 8.3-1.7 3.4-4.4 6.1-2.8 2.4-6.2 4.1-3.4 1.4-7.5 1.4-4.1 0-7.9-1.7-3.4-1.4-5.8-4.1-2.8-2.8-4.2-6.2-1.3-3.7-1.3-7.9 0-4.4 1.3-8.2 1.8-3.4 4.2-6.2 2.7-2.7 6.5-4.1 3.4-1.3 7.2-1.3 4.1 0 7.5 1.3 3.4 1.4 6.2 4.1 2.7 2.8 4.4 6.2 1.4 3.8 1.4 8.2zm-4.1 0q0-3.7-1.4-6.5-1-3.1-3.1-5.5-2-2-4.8-3-2.7-1.4-6.1-1.4-3.1 0-5.9 1.4-2.7 1-4.8 3-2 2.4-3.4 5.5-1 2.8-1 6.5 0 3.5 1 6.2 1 3.1 3.1 5.5 2.1 2 4.8 3.4 2.7 1.4 6.2 1.4 3.4 0 6.1-1.4 2.8-1 4.8-3.4 2.1-2.1 3.1-5.1 1.4-2.8 1.4-6.6zm-19.2 11.3h-3.4v-21.9h8.2q3.8 0 5.8 1.4 2.1 1.7 2.1 4.8 0 3.1-1.7 4.4-1.4 1.4-4.1 1.8l6.1 9.5h-4.1l-5.5-9.2h-3.4zm5.8-12.7q1.1 0 1.7-0.3 0.7-0.4 1.1-1.1 0.7-0.6 0.7-2 0-1-0.7-1.4-0.4-0.7-1.1-1-0.6-0.3-1.3-0.3-1.1 0-1.7 0h-4.5v6.1c0.7 0 5.4 0 5.8 0zm-1147.7 5.2z"/>
		</g>
	</g>
</svg>