<svg version="1.2" xmlns="http://www.w3.org/2000/svg" viewBox="0 0 1505 576" width="1505" height="576">
	<title>logo (42)-svg</title>
	<style>
		.s0 { fill: #ffffff } 
	</style>
	<g id="XMLID_27_">
		<path id="Layer" fill-rule="evenodd" class="s0" d="m228.7 338.1c-25.6 19.4-57.2 29.6-96 29.6-28.6 0-53.1-4.1-74.5-11.2-20.5-7.2-39.9-19.4-57.2-36.8l44.9-44.9c20.4 20.4 49 30.6 86.8 30.6 41.9 0 63.3-14.3 63.3-43.9 0-13.3-4.1-23.5-11.2-30.7-7.2-6.1-17.4-10.2-31.7-12.2l-42.9-6.1c-30.6-4.1-54.1-14.3-69.4-29.7-17.4-17.3-25.5-40.8-25.5-70.4 0-32.7 11.2-59.3 33.7-78.7 22.4-20.4 53.1-29.6 90.8-29.6 48 0 86.8 14.3 116.4 41.9l-43.9 43.9c-16.3-18.4-40.8-26.6-73.5-26.6-17.3 0-31.6 4.1-40.8 13.3-9.2 8.2-14.3 19.4-14.3 31.7 0 10.2 3 19.4 10.2 25.5 8.2 7.2 19.4 12.3 33.7 14.3l41.9 6.1c30.6 4.1 53 13.3 68.4 27.6q27.5 26.1 27.5 76.6c1.1 33.7-12.2 60.3-36.7 79.7zm330.8-221.7c0 31.7-11.2 58.3-32.7 79.7-21.4 21.5-50 32.7-85.7 32.7h-68.5v134.8h-70.4v-358.5h138.9c35.7 0 64.3 11.2 85.7 32.7 21.5 21.4 32.7 48 32.7 78.6zm-70.5 0c0-14.3-5.1-26.5-14.3-35.7-9.1-9.2-22.4-13.3-37.7-13.3h-65.4v99.1h65.4c15.3 0 28.6-4.1 37.7-13.3 10.3-9.2 14.3-21.4 14.3-36.8zm334.9 248.2h-235.8v-359.5h235.8v62.3h-165.4v84.8h140.9v62.3h-140.9v86.8h165.4zm159.3-144h-50v143h-70.5v-358.5h141c35.7 0 63.3 10.2 84.7 31.6 21.4 20.5 31.7 47 31.7 77.7 0 24.5-6.2 43.9-18.4 60.2-12.3 16.4-28.6 27.6-47 34.8l79.6 155.2h-80.6zm-50-57.2h66.3c15.3 0 27.6-4.1 36.8-13.3 9.2-9.2 14.3-20.4 14.3-34.7 0-14.3-5.1-25.5-14.3-34.7-9.2-9.2-21.5-13.3-36.8-13.3h-66.3z"/>
		<path id="Layer" fill-rule="evenodd" class="s0" d="m69.4 433.1v137.9h-16.3v-137.9h-44v-14.3h104.2v14.3zm160.3 137.9v-69.5h-71.5v69.5h-16.3v-152.2h16.3v67.4h71.5v-67.4h16.3v152.2zm60.3 0v-152.2h94.9v14.3h-78.6v53.1h66.4v15.3h-66.4v54.2h78.6v15.3zm200.2-69.5l35.7 69.5h-19.4l-34.7-67.4h-36.8v67.4h-16.3v-152.2h58.2c26.5 0 44.9 15.3 44.9 41.9 0 22.4-13.3 36.7-31.6 40.8zm-55.2-14.3h40.9c18.3 0 30.6-9.2 30.6-27.6 0-18.3-13.3-27.5-30.6-27.5h-40.9zm173.6-68.5l56.2 152.2h-17.4l-12.2-34.7h-66.4l-12.3 34.7h-17.3l56.1-152.2zm21.5 103.2l-28.6-80.7-28.6 80.7zm163.4-58.2c0 27.5-19.4 44.9-47 44.9h-40.8v62.3h-16.4v-152.2h56.2c27.5 0 46.9 17.4 48 45zm-16.4-1.1c0-19.4-13.2-29.6-32.6-29.6h-38.8v60.3h38.8c18.3 0 31.6-10.2 32.6-30.7zm46-43.9h94.9v14.3h-78.6v53.1h66.4v15.4h-66.4v54.1h78.6v15.3h-94.9zm216.4 0h16.4v102.2c0 29.6-22.5 51-53.1 51-30.7 0-53.1-20.4-53.1-51v-102.2h16.3v100.1c0 22.5 14.3 37.8 36.8 37.8 22.4 0 36.7-14.3 36.7-37.8zm41.9 0h104.1v14.3h-43.9v137.9h-16.3v-137.9h-43.9zm132.7 0h16.4v152.2h-16.4zm80.7 23.5c-9.2 10.2-10.2 20.4-10.2 52.1 0 31.7 1 41.9 10.2 52.1 7.1 6.1 16.3 10.2 26.5 10.2 19.4 0 32.7-12.3 36.8-30.6h16.3c-5.1 28.6-25.5 44.9-53.1 44.9-15.3 0-28.5-5.1-38.8-15.3-14.2-14.3-14.2-28.6-14.2-61.3 0-31.7 0-47 14.2-61.3 10.3-10.2 23.5-15.3 38.8-15.3 27.6 0 48 16.3 53.1 44.9h-16.3c-4.1-18.4-16.3-30.6-35.7-30.6-10.2 0-20.5 3.1-27.6 10.2zm190.9 60.3c9.2 6.1 13.3 17.3 13.3 29.6 0 26.5-20.4 42.9-52.1 42.9-22.4 0-37.7-6.1-52-20.4l11.2-11.3c13.3 12.3 24.5 16.4 41.9 16.4 22.4 0 35.7-11.3 35.7-28.6 0-8.2-2-15.4-7.2-19.4-4-4.1-8.1-5.1-19.4-7.2l-17.3-3.1c-11.2-2-21.5-5.1-27.6-11.2-7.1-7.1-11.2-16.3-11.2-28.6 0-25.5 19.4-42.9 49-42.9 19.4 0 31.7 4.1 44.9 16.4l-10.2 10.2c-9.2-9.2-19.4-13.3-35.7-13.3-20.4 0-31.7 11.2-31.7 28.6 0 7.1 2.1 13.3 7.2 17.4 5.1 4 12.2 7.1 20.4 8.1l16.3 2.1c14.3 2 21.5 5.1 24.5 14.3z"/>
		<path id="XMLID_121_" class="s0" d="m1421.3 238c0 0-6.2 6.1-15.4 7.1 0 0 0-12.2 10.3-14.3 3-1 6.1-1 11.2-3 0 0-1 20.4-18.4 18.4 0 0 7.2-2.1 12.3-8.2zm-14.3-46c0 0 1 8.2-4.1 16.4 0 0-8.2-8.2-3.1-17.4 1-2 4.1-5.1 5.1-10.2 0 0 14.3 15.3 1 26.5 0 0 4.1-7.1 1.1-15.3zm-78.7-39.8c0 0-5.1 2-11.2 0 0 0 4.1-7.2 11.2-5.1 2.1 1 4.1 2 8.2 2 0 0-7.1 12.3-17.3 5.1 0 0 5.1 1.1 9.1-2zm33.7 81.7c0 0-6.1-2-9.1-9.2 0 0 9.1-3.1 13.2 4.1 1 2 2.1 5.1 5.1 8.2 0 0-15.3 4.1-18.3-10.2 0 0 4 5.1 9.1 7.1zm-43.9-163.4c0 0 3.1-3.1 8.2-3.1 0 0 0 7.2-6.1 7.2-1 0-3.1 0-6.1 1 0 0 2-11.3 11.2-9.2 0 0-4.1 0-7.2 4.1zm-86.8 82.7c-2-1-4-3.1-7.1-4.1 0 0 10.2-10.2 18.4-1 0 0-5.1-3.1-10.2-1 0 0 6.1 0 11.2 3 0 0-5.1 6.2-12.3 3.1zm41.9 6.1c0 0 6.1 0 11.2 3.1 0 0-6.1 6.1-12.2 2-2.1-1-4.1-3-7.2-4 0 0 10.3-10.3 18.4-1.1 0 0-5.1-2-10.2 0zm110.3 18.4c0 0 4.1 4.1 10.2 4.1 0 0-6.1-1-10.2-6.1 0 0 7.1-4.1 12.2 1 1.1 2 2.1 4.1 5.1 6.1 0 0-13.2 6.2-17.3-5.1zm50-24.5c0 0-1-6.1-6.1-10.2 0 0 4.1 5.1 4.1 12.3 0 0-9.2-1.1-9.2-9.2 0-2.1 0-4.1-1-8.2 0 0 15.3 4.1 12.2 15.3zm0 29.6c0 0-21.4-2-19.4-19.4 0 0 2.1 8.2 9.2 12.3 0 0-6.1-6.1-8.2-15.3 0 0 12.3 0 14.3 10.2 1.1 3 1.1 7.1 4.1 12.2zm-188.9-64.3c0 0 4.1-5.1 10.2-8.2 0 0 2.1 9.2-5.1 12.3-2 1-5.1 2-8.1 4.1 0 0-3.1-15.4 10.2-16.4 0 0-5.1 3.1-7.2 8.2zm85.8-3.1c0-1 0-1 0-1 2 0 9.2-2 12.2 4.1 1.1 2 2.1 4.1 5.1 7.1 0 0-15.3 5.1-18.3-8.1 0 0 4.1 5.1 10.2 6.1 0 0-5.1-2.1-9.2-8.2zm2 74.6c0 0-8.1 0-16.3-5.1 0 0 8.2-9.2 17.4-3.1 2 2.1 5.1 4.1 10.2 6.1 0 0-15.4 14.3-26.6 0 0 0 7.2 4.1 15.3 2.1zm71.5-55.2c-1 2.1-2 4.1-2 8.2 0 0-12.3-7.2-6.2-17.4 0 0-1 5.1 2.1 10.2 0 0-2.1-6.1 0-12.2 0 0 7.1 3.1 6.1 11.2zm-39.8-12.2c0 0 5.1-2.1 10.2 0 0 0-3.1 6.1-9.2 4.1-1 0-3.1-1.1-6.1-1.1 0 0 6.1-10.2 14.3-4.1 0 0-4.1-1-9.2 1.1zm51 32.7c0 0 1.1-6.2-2-11.3 0 0 2 5.1 0 12.3 0 0-8.2-3.1-6.1-11.3 1-2 2-4 2-8.1 0 0 13.3 7.1 6.1 18.4zm-135.8 23.4c0 0-3 4.1-7.1 5.2 0 0-1-5.2 4.1-7.2 1 0 3-1 5.1-2 0 0 0 10.2-8.2 10.2 0 0 4.1-1 6.1-6.2zm21.5-57.2c0 0 8.1-3 12.2-10.2 0 0-6.1 6.2-15.3 8.2 0 0 0-12.3 10.2-14.3 3.1 0 6.2-1 11.3-3.1 0 0 0 20.5-18.4 19.4zm72.5-29.6c0 0-13.3 5.1-16.4-6.1 0 0 3.1 4.1 9.2 5.1 0 0-6.1-2-9.2-7.1 0 0 7.2-3.1 11.3 3 1 2.1 2 4.1 5.1 5.1zm-80.7-3c0 0 6.1 2 9.2 7.1 0 0-7.1 3.1-11.2-3.1-1.1-2-2.1-4-5.1-6.1 0 0 13.2-5.1 16.3 6.1 0 0-3.1-4-9.2-4zm-32.7 78.6c0 0-6.1-2-9.2-7.1 0 0 7.2-3.1 11.3 3 1 2.1 2 4.1 5.1 6.2 0 0-13.3 5.1-16.4-6.2 0 0 3.1 4.1 9.2 4.1zm122.6 39.9c0 0 2-5.2 0-10.3 0 0 1 5.1-2.1 11.3 0 0-7.1-5.1-4.1-11.3 1.1-2 2.1-4 3.1-7.1 0 0 11.2 9.2 3.1 17.4zm-119.5-98.1c0 0 2-5.1 0-10.2 0 0 1 5.1-2 11.2 0 0-6.2-5.1-3.1-11.2 1-2.1 2-4.1 3.1-7.2 0 0 10.2 9.2 2 17.4zm144 8.2c0 0 0-9.2-6.2-15.4 0 0 4.1 8.2 3.1 17.4 0 0-12.2-3.1-11.2-14.3 0-3.1 1-7.1 0-12.2 0 0 20.4 7.1 14.3 24.5zm-49-41.9c0 0 1-8.2-4.1-15.3 0 0 3 8.1 1 17.3 0 0-11.2-4.1-9.2-15.3 1-3.1 2-7.1 2-12.2 0 0 18.4 9.1 10.3 25.5zm-3.1 71.5c0 0 5.1 0 8.2-4.1 0 0-4.1 2-10.2 2 0 0 2-7.1 8.1-7.1 2.1 0 4.1 1 7.2 0 0 0-4.1 12.2-13.3 9.2zm-56.2 14.3c0 0-3 2-6.1 2-1-1 1-5.1 5.1-4.1 1 0 2.1 0 4.1 0 0 0-3.1 7.2-9.2 4.1 0 0 3.1 1 6.1-2zm-6.1-14.3c0 0 5.1 0 8.2-3.1 0 0-4.1 3.1-9.2 2.1 0 0 2-7.2 8.2-6.2 2 0 4 0 7.1 0 0 0-4.1 10.2-14.3 7.2zm-28.6-5.1c0 0 9.2-3.1 18.4 0 0 0-5.1 11.2-16.3 8.2-3.1-1.1-6.2-3.1-12.3-3.1 0 0 11.2-18.4 26.6-8.2 0 0-8.2-2-16.4 3.1zm24.5-21.5c0 0 1-7.1-4.1-13.3 0 0 3.1 7.2 2.1 15.4 0 0-10.2-4.1-9.2-13.3 1-2.1 2-5.1 1-10.2 0 0 17.4 7.1 10.2 21.4zm106.2 31.7c0 0-7.1 1-13.3-2.1 0 0 6.2-8.1 13.3-4 2.1 1 4.1 2 8.2 3 0 0-10.2 12.3-20.4 3.1 0 0 6.1 3.1 12.2 0zm-40.8-41.9c0 0-6.2-4.1-10.2-11.2 0 0 10.2-3.1 14.3 5.1 1 2 2 5.1 5.1 9.2 0 0-17.4 4.1-20.5-11.3 0 0 4.1 7.2 11.3 8.2zm-19.4 51.1c0 0 8.1-1 15.3 3.1 0 0-7.2 8.1-15.3 4-2.1-1-4.1-3-9.2-4 0 0 12.2-13.3 23.5-2.1 0 0-7.2-3.1-14.3-1zm-1-23.5c0 0 5.1-3.1 12.2-2 0 0-3.1 8.1-11.2 7.1-3.1-1-5.1-2-9.2-1 0 0 6.1-14.3 18.4-9.2 0 0-6.2 0-10.2 5.1zm-103.2 48c0 0 3.1-7.1 0-14.3 0 0 2.1 8.2-2 15.3 0 0-8.2-7.1-4.1-15.3 1-3.1 3.1-5.1 4.1-10.2 0 0 13.3 12.2 2 24.5zm88.9-100.1c0 0 7.1 2 11.2 9.2 0 0-9.2 4.1-14.3-3.1-1-2-3.1-5.1-6.1-8.1 0 0 17.3-6.2 21.4 8.1 0 0-4.1-6.1-12.2-6.1zm-67.4 120.5c0 0 6.1-6.1 16.3-7.1 0 0-1 13.3-12.2 14.3-3.1 0-7.2 0-12.3 2 0 0 3.1-21.4 21.4-18.4 0 0-8.1 1.1-13.2 9.2zm130.7 29.6c0 0 3-5.1 9.2-8.1 0 0 3 8.1-4.1 12.2-2.1 1.1-4.1 1.1-7.2 4.1 0 0-3-15.3 9.2-17.3 0 0-5.1 3-7.1 9.1z"/>
		<path id="XMLID_159_" class="s0" d="m1412.1 28.6c55.1 30.6 92.9 89.9 92.9 158.3 0 100.1-80.7 180.8-180.7 180.8-79.7 0-148.1-52.1-171.6-124.6 27.6 59.2 87.8 100.1 157.3 100.1 97 0 174.6-78.7 174.6-174.7 0-58.2-28.6-109.3-72.5-139.9zm-214.4 43.9c32.6-63.3 109.2-88.8 173.5-61.3-59.2-12.2-122.5 15.4-152.1 71.5-31.7 60.3-16.3 131.8 33.7 173.7-66.4-35.8-90.9-117.5-55.1-183.9zm135.8-30.6c-59.3 5.1-105.2 52.1-112.4 109.3-6.1-66.4 42.9-124.6 109.3-130.8 63.3-6.1 119.5 37.8 130.7 99.1-20.4-50-71.5-82.7-127.6-77.6zm-182.8 153.2c-8.2-32.7 0-98.1 41.8-129.7 0 0-65.3 88.8 15.4 180.8 0 0 37.7 48 103.1 60.2 4.1-23.5-3.1-49-15.3-79.6-2.1-5.2-4.1-10.3-5.1-15.4-12.3-14.3-30.7-23.5-61.3-21.4 9.2-4.1 19.4-5.1 28.6-5.1-10.2-11.3-12.3-26.6-9.2-38.8-3.1 18.3 6.1 31.6 17.4 39.8q10.7 1.5 21.4 9.2c-2-15.3-1-31.7 1-47-3-16.3-14.3-34.7-39.8-37.8 16.3 1 32.7 10.2 41.9 27.6 3-16.3 9.2-31.7 15.3-43.9-18.4 41.9-16.4 78.6-6.1 106.2 0-10.2 2-25.5 3-30.6 3.1-20.5 13.3-39.9 25.5-56.2 7.2-13.3 12.3-30.7-1-48 8.2 9.2 12.3 22.4 10.2 36.7 10.2-11.2 21.5-20.4 32.7-27.5-17.3 12.2-29.6 26.5-38.8 41.8 0 1.1 0 1.1 0 1.1-13.3 22.4-18.4 44.9-19.4 62.3-1 13.3 2.1 35.7 7.2 56.1 3-7.1 8.1-12.2 15.3-20.4 14.3-20.4 25.5-53.1 9.2-82.7 11.2 14.3 17.3 35.7 12.2 58.2 15.3-18.4 27.6-41.9 17.4-76.6q4.6 12.3 6.1 24.5c7.1-12.2 19.4-18.4 30.6-20.4-19.4 4.1-27.5 17.4-30.6 31.6 0 8.2-2 15.4-4.1 22.5 19.4-13.3 42.9-20.4 60.3-14.3-29.7-8.2-52.1 12.3-67.4 30.7-3.1 5.1-6.2 10.2-10.2 14.3-3.1 3-5.1 5.1-7.2 8.1 7.2-4.1 14.3-4.1 24.5-3 12.3 2 31.7 8.1 41.9-12.3-4.1 12.3-17.4 19.4-30.7 20.4 11.3 8.2 18.4 20.5 19.4 31.7-4-19.4-17.3-27.6-30.6-31.7-19.4-1-29.6 7.2-39.8 20.5q-3.1 9.2-3.1 21.4c7.2 17.4 9.2 32.7 7.2 49.1 5.1 0 14.3-1.1 23.5-3.1 0 0 39.8-9.2 73.5-38.8 0 0-36.8 63.3-119.5 63.3-54.1 0-144-35.8-166.4-133.8z"/>
	</g>
</svg>