<svg version="1.2" xmlns="http://www.w3.org/2000/svg" viewBox="0 0 1541 308" width="1541" height="308">
	<title>sprout-svg</title>
	<style>
		.s0 { fill: #59cb59 } 
		.s1 { fill: #0ca750 } 
		.s2 { fill: #2bb656 } 
		.s3 { fill: #75dd66 } 
		.s4 { fill: #ffffff } 
	</style>
	<path id="Layer" class="s0" d="m247.1 0v142.2c0 58.3-47.4 105.7-105.5 105.7h-72.6l-57.3 57.3c-4 4.5-11.7 1.3-11.7-5v-194.6c0-58.2 47.3-105.6 105.5-105.6z"/>
	<path id="Layer" class="s1" d="m49.6 267.7l-32.9-19.8h52.7z"/>
	<path id="Layer" class="s2" d="m105.5 142.2v-142.2h142z"/>
	<path id="Layer" class="s1" d="m105.5 142.2l-105.5 105.7v-142.3c0-58.2 47.3-105.6 105.5-105.6z"/>
	<path id="Layer" class="s3" d="m247.5 142.2h-142l142-142.2z"/>
	<path id="Layer" fill-rule="evenodd" class="s4" d="m376.5 202.3c-3.6-2.3-6.3-5.9-6.3-10.9 0-7.2 5.4-12.6 12.6-12.6 2.2 0 4.5 0.4 6.3 1.8 10.8 6.8 21.6 9.9 30.7 9.9 9.4 0 13.5-3.1 13.5-8.6v-0.4c0-6.8-10.8-9.5-23.5-13.1-15.7-4.5-33.8-12.2-33.8-33.9v-0.4c0-23 18.5-36.1 41.5-36.1 11.7 0 23.9 3.1 35.2 8.5 4.5 2.3 7.6 6.8 7.6 12.2 0 7.3-5.8 12.7-13 12.7-2.3 0-3.6-0.5-5.9-1.4-9-4.5-17.6-7.2-24.3-7.2-7.7 0-11.8 3.6-11.8 7.7v0.4c0 6.3 10.9 9.5 23 13.6 15.8 5.4 34.3 13.1 34.3 33.4v0.4c0 25.3-18.9 36.6-43.3 36.6-14 0.5-28.8-3.6-42.8-12.6zm100.5-87.6c0-9.1 7.2-16.3 16.3-16.3 9 0 16.2 7.2 16.2 16.3v1.3c7.7-10.4 18.5-18.5 35.2-18.5 26.6 0 51.4 20.8 51.4 58.7v0.5c0 37.9-24.8 58.7-51.4 58.7-17.2 0-27.5-7.7-35.2-16.8v33.9c0 9-7.2 16.3-16.2 16.3-9.1 0-16.3-7.3-16.3-16.3zm86.6 42c0-19.4-12.6-31.6-27.5-31.6-14.9 0-27.5 12.6-27.5 31.1v0.5c0 19 12.6 31.1 27.5 31.1 14.9 0.5 27.5-12.1 27.5-31.1zm124 0.4c0-32.9 26.1-59.5 61.3-59.5 35.2 0 60.9 26.1 60.9 58.6v0.5c0 32.5-26.2 59.1-61.3 59.1-34.8 0-60.9-26.1-60.9-58.7zm91.1 0c0-17.1-12.2-31.6-29.8-31.6-18.5 0-29.3 14-29.3 30.7v0.5c0 16.7 12.2 31.1 29.8 31.1 18 0.5 29.3-14 29.3-30.7zm149.7 41.6c0 9-7.3 16.2-16.3 16.2-9 0-16.2-7.2-16.2-16.2v-1.4c-7.2 9.5-16.7 18.1-33.4 18.1-24.3 0-38.3-16.3-38.3-42v-58.7c0-9 7.2-16.2 16.2-16.2 9.1 0 16.3 7.2 16.3 16.2v48.3c0 15.4 7.2 23 19.4 23 12.1 0 20.2-7.6 20.2-23v-48.3c0-9 7.3-16.2 16.3-16.2 9 0 16.2 7.2 16.2 16.2v84zm16.2-17.6v-95.3c0-9 7.3-16.2 16.3-16.2 9 0 16.2 7.2 16.2 16.2v14h14c7.6 0 13.5 6.3 13.5 13.6 0 7.6-6.3 13.5-13.5 13.5h-14v48.3c0 7.2 3.2 10.8 10.4 10.8h3.6c7.2 0 13.5 5.9 13.5 13.6 0 5.9-3.6 10.4-8.1 12.2-5.9 2.2-11.3 3.1-18.5 3.1-19.8 0.5-33.4-7.6-33.4-33.8zm126.7 34.3c-15.7 0-32.9-6.3-45.1-16.3l8.2-11.7c11.7 9 24.8 14 37.8 14 13.1 0 22.6-6.8 22.6-17.2v-0.4c0-10.9-13.1-15.4-27.1-19.4-17.1-5-36-10.9-36-30.7v-0.5c0-18.9 15.7-31.1 36.9-31.1 13.6 0 28 4.5 39.3 12.2l-7.3 12.1c-9.9-6.7-21.6-10.3-32.4-10.3-13.1 0-21.2 6.7-21.2 15.8v0.4c0 10.4 13.5 14.5 27.9 19 16.7 4.9 35.2 11.7 35.2 31.1v0.5c0 20.3-17.1 32.5-38.8 32.5zm108.9 0.4c-31.5 0-57-25.5-57-57.1 0-31.6 25.5-57.1 57-57.1 31.6 0 57.1 25.5 57.1 57.1 0 31.6-25.5 57.1-57.1 57.1zm39.9-57.1c0-23.6-17.9-42.6-40.1-42.6-22.2 0-40.1 19-40.1 42.6 0 23.6 17.9 42.7 40.1 42.7 22.2 0 40.1-19.1 40.1-42.7zm84.8 57.1c-32 0-55.9-26.1-55.9-56.8 0-31.2 23.9-57.4 55.9-57.4 20.7 0 33.8 8.6 43.7 19.4l-10.8 11.3c-8.6-9-18.5-16.7-33.4-16.7-22.1 0-39.2 19-39.2 42.4 0 24 17.1 42.9 40.1 42.9 14 0 24.8-6.7 33.4-16.2l10.4 9.9c-10.4 12.2-23.5 21.2-44.2 21.2zm62.7-111.9h16.2v109.2h-16.2zm-1.4-42h18.5v18.1h-18.5zm51 62.8l-5-13.6c12.2-5.4 23.9-9 39.7-9 29.7 0 46.4 15.3 46.4 43.8v66.8h-15.8v-16.7c-7.6 9.9-20.3 18.9-39.6 18.9-20.3 0-40.6-11.2-40.6-34.3 0-23.4 18.9-35.6 46.9-35.6 13.9 0 23.9 1.8 33.8 4.5v-3.6c0-19.9-12.2-29.8-32.5-29.8-13.1 0.9-23 4-33.3 8.6zm1.8 55.9c0 14 12.6 22.2 27.5 22.2 20.3 0 36.5-12.2 36.5-29.8v-10.4c-8.1-2.3-19-4.5-32-4.5-20.3 0-32 8.5-32 22.5zm105-121.9h16.2v154.4h-16.2zm-853.5 69.6c-0.9 0.4-1.3 0.9-2.2 0.9-14 3.1-22.6 12.6-24.8 29.8v39.7c0 9-7.3 16.3-16.3 16.3-9 0-16.2-7.3-16.2-16.3v-84.4c0-9.1 7.2-16.3 16.2-16.3 9 0 16.3 7.2 16.3 16.3v3.1c3.1-6.7 7.2-13.1 12.1-16.7 0 0 5.9-6.3 17.6-5.8 12.2 0.4 26.2-5.9 26.2-5.9 0 0 3.6 29.8-28.9 39.3z"/>
</svg>