<svg version="1.2" baseProfile="tiny-ps" xmlns="http://www.w3.org/2000/svg" viewBox="0 0 1550 1649" width="1550" height="1649">
	<title>Logo (1)-svg</title>
	<style>
		tspan { white-space:pre }
		.shp0 { fill: #8ecb36 } 
		.shp1 { fill: #13907e } 
		.shp2 { fill: #156061 } 
		.shp3 { fill: #e3801e } 
		.shp4 { fill: #354443 } 
	</style>
	<g id="Pages">
		<g id="Logo">
			<path id="Fill-1" fill-rule="evenodd" class="shp0" d="M1131.78 362.08C1220.31 469.1 1458.72 433.43 1528.13 296.34C1555.44 242.39 1557.34 171.21 1530.17 113.81C1486.84 22.24 1380.82 -10.44 1298.05 2.84C1198.01 18.9 1109.03 105.77 1096.29 212.74C1094.54 227.44 1085.21 305.78 1131.78 362.08Z" />
			<path id="Fill-3" fill-rule="evenodd" class="shp1" d="M982.35 327.27C982.87 330.53 983.43 334.05 984.35 338.81C988.73 361.6 999.82 405.47 1027.13 440.89C1074.49 502.31 1159.09 515.51 1194.94 520.33C1232.33 525.35 1252.34 521.05 1299.87 533.47C1315.13 537.46 1341.95 544.46 1369.9 559.13C1398.22 573.98 1463.45 608.21 1487.06 682.58C1507.84 748.05 1490.49 826.1 1445.57 876.23C1372.26 958.05 1256.51 930.93 1220.09 922.41C1202.15 918.2 1092.98 891.52 1036.47 792.12C994.86 718.91 1021.04 673.65 965.69 605.24C955.01 592.04 915.52 543.22 852.54 528.52C848.32 527.54 844.72 526.88 841.16 526.44C796.24 520.97 762.71 524.64 751.08 525.94C711.71 530.34 658.13 517.35 624.04 490.97C560.56 441.87 561.16 343.7 561.26 328.46C562.03 203.25 658.95 126.58 671.65 116.88C694.02 99.79 799.82 24.5 893.07 74.25C928.99 93.43 978.54 139.42 981.73 194.1C983.44 223.43 972.24 262.72 982.35 327.27Z" />
			<path id="Fill-5" fill-rule="evenodd" class="shp2" d="M443.02 354.47C450.74 276.55 458.12 202.02 419.29 141.69C391.2 98.06 341.37 67.14 287.98 63.36C189.45 56.38 126.55 145.82 116.67 159.88C68.22 228.78 70.99 304.13 72.25 338.64C73.48 372.06 76.22 426.62 110.52 479.63C142.88 529.65 187.36 553.2 214 567.29C261.8 592.6 276.12 586.58 338.44 618.96C365.38 632.96 394.49 647.73 417.07 669.77C436.21 688.44 445.76 709.49 464.1 750.82C474.53 774.34 473.23 776.54 493.17 829.22C507.92 868.17 515.29 887.65 521.98 899.54C523.65 902.53 549.06 949.33 592.11 975.49C639.82 1004.47 684.57 1000.38 729.02 1001.2C767.43 1001.9 968.1 1010.07 1049.16 1128.59C1077.19 1169.59 1093.19 1227.11 1102.05 1258.95C1114.79 1304.77 1105.97 1300.46 1123.45 1367.37C1143.69 1444.91 1161.26 1508.21 1209.11 1546.97C1248.78 1579.1 1316.34 1599.71 1371.56 1574.14C1484.57 1521.83 1465.21 1307.72 1462.45 1280.6C1456.41 1221.13 1450.23 1160.34 1406.37 1115.93C1352.33 1061.2 1254.9 1045.34 1145.63 1027.55C1141.61 1026.9 1126.12 1024.4 1105.68 1018.33C1100.65 1016.84 1095.39 1015.1 1089.61 1012.96C1030.84 991.23 993.72 953.49 960.11 918.59C929.79 887.12 899.23 855.4 874.79 803.51C848.8 748.35 854.59 723.2 823.77 691.48C796.12 663.03 763.27 654.01 740.92 647.94C685.35 632.85 671.01 651.27 600.86 641.59C563.89 636.48 530.07 631.81 495.79 606.38C486.85 599.75 449.42 570.8 432.4 519.05C415.31 467.09 434.66 438.77 443.02 354.47Z" />
			<path id="Fill-7" fill-rule="evenodd" class="shp3" d="M446.16 980.3C478.99 1032.72 521.02 1059.12 570.58 1090.27C636.88 1131.93 694.39 1147.84 711.48 1152.25C729.77 1156.99 761.25 1160.44 823.9 1168.72C881.38 1176.32 883.42 1175.47 896.16 1179.45C913.14 1184.77 971.59 1203.03 1003.06 1257.76C1025.82 1297.34 1025.16 1337.13 1015.41 1415.79C1010.64 1454.21 1006.14 1488.15 985.15 1527.03C977.74 1540.72 940.41 1606.65 863.7 1634.44C838.29 1643.65 797.9 1658.28 755.43 1639.84C715.79 1622.63 696.51 1586.21 688.45 1571.01C673.12 1542.04 669.76 1516.35 665.39 1480.37C658.04 1419.8 668.63 1411.24 661.81 1367.1C652.93 1309.67 626.55 1269.3 616.85 1255.61C581.75 1206.08 537.44 1183.35 508.68 1168.59C472.81 1150.18 443.16 1142.87 406.04 1133.65C352.77 1120.43 331.8 1122.03 281.7 1113.98C201.56 1101.1 154.46 1093.53 109.21 1064.22C96.45 1055.96 -10.73 986.28 0.97 886.91C9.44 814.88 77.96 766.08 131.13 750.17C216.03 724.77 287.94 775.44 321.97 799.41C364.94 829.69 389.93 872.37 401.32 890.32C429.01 934 423.78 944.56 446.16 980.3Z" />
			<path id="Fill-10" fill-rule="evenodd" class="shp4" d="M198.02 1239.25C287.46 1162.61 399.49 1192.88 409.34 1195.73C434.06 1202.87 491.06 1219.34 524.12 1276.89C563.93 1346.17 539.2 1423.04 534.07 1439C504.07 1532.28 417.65 1586.19 342.74 1600.38C324.85 1603.77 196.09 1626.03 134.68 1538.86C73.64 1452.2 115.91 1309.59 198.02 1239.25Z" />
		</g>
	</g>
</svg>