<svg version="1.2" xmlns="http://www.w3.org/2000/svg" viewBox="0 0 1604 1034" width="1604" height="1034">
	<title>d6940312fa39c728493ee047409d5812-svg</title>
	<style>
		.s0 { fill: #4eb8e9 } 
		.s1 { fill: #293266 } 
	</style>
	<g id="#4eb8e9ff">
		<path id="Layer" class="s0" d="m715.2 4.3c0.2-5.4 7.1-4.4 10.3-2.6 28.7 12.3 57.2 24.9 85.8 37.4 6.7 2.7 13.6 7.4 21.1 5 39.2-8.6 78.6-16.7 117.7-25.6 2.3 2.4 6.4 5.2 3.9 9.1-11.8 21-25.1 41.1-37.1 62-3.1 4-1.7 9.7 2.4 12.5 20.6 16.8 41.5 33.2 61.9 50.1 5 4.2 1 12.1-5.5 10.7-39.7 0.6-79.4 0.3-119.1 1.3-3.9 0.4-7.2 2.9-10.1 5.3-22.6 19-45.5 37.7-68.1 56.7-3.3 2.5-7.2 6.3-11.3 2.9-12.9-23.2-23-47.9-35.6-71.4-1.2-3.1-4.8-3.9-7.8-4.4-35.9-6.3-71.9-12-107.8-18.5-5.3-0.7-4.9-6.3-4-10.3 30.7-13.1 61.4-26.4 92.2-39.4 3.9-1.9 9.5-3.7 9.2-9 1.6-23.9 0.4-47.9 1.9-71.8z"/>
	</g>
	<g id="#293266ff">
		<path id="Layer" fill-rule="evenodd" class="s1" d="m451.9 152.8c-0.8-7.6 8.5-13.1 14.8-8.7 109.3 62.9 218.3 126.4 327.6 189.4 4.9 2.4 9.4 6.4 8.6 12.4 0 26.4 0.5 52.9-0.2 79.3-0.1 8.3-10.6 11.7-16.5 6.7q-123.7-73-247.5-145.9c-0.1 10.1-0.1 20.2-0.1 30.2 85.7 50.6 171.4 101 257.1 151.5 5.2 2.3 8 7.7 7.3 13.3-0.1 68.2 0.2 136.4-0.1 204.6 1.4 9.1-9.9 14.4-16.6 8.7-109.2-63.2-218.5-126.4-327.7-189.6-6.4-2.5-7.2-9.5-6.8-15.4 0.4-25.4-0.5-50.9 0.3-76.3 0.7-7.9 10.9-10.2 16.4-5.6 85.7 50.3 171.3 100.8 257 151q0-15.1 0-30.2c-88.8-52.2-177.5-104.4-266.3-156.5-4.7-2.3-8.2-6.8-7.4-12.3 0.1-68.8-0.1-137.7 0.1-206.6zm709.3-7.8c6.2-5.3 17.2-1.2 16.6 7.6 0.5 46.8 0 93.7 0.3 140.5-0.1 5.9 0.4 13.6-5.9 16.5-89.4 52.5-179 104.7-268.4 157.1q-0.2 15.1 0 30.2c85.2-49.8 170.5-99.6 255.7-149.4 3.7-2.2 8.2-4.6 12.4-2.1 7 2.3 6 10.6 6.2 16.4-0.3 43.4 0.1 86.9-0.2 130.3 0.8 5.5-2.8 9.9-7.4 12.1-108.9 63.3-217.8 126.7-326.8 190-6.6 5.4-17.3-0.3-16.2-8.9 0-113.1 0-226.2 0.1-339.3-0.5-4.8 2.2-9 6.5-10.9q163.5-95.1 327.1-190.1zm-257.5 249.3q0 15.1 0 30.3c64.1-37.9 128.1-75.6 192.1-113.5q0.1-15.2 0-30.3c-64 37.8-128.1 75.6-192.1 113.5zm0 143.2q0 15.1 0 30.2c64.1-37.7 128.1-75.6 192.2-113.4q-0.1-15.2 0-30.3c-64.1 37.8-128.1 75.7-192.2 113.5z"/>
		<path id="Layer" fill-rule="evenodd" class="s1" d="m6.4 874.4c8.6-6.8 20.2-7.2 30.7-7.6 52.8-0.1 105.6-0.1 158.3-0.1q0 18.2 0 36.5c-51.2 0-102.4 0-153.7 0q0 14.9 0 29.8c41.8 0 83.5 0 125.2 0 8.8 0.2 19.1 0.8 25.1 8.3 4.4 5.5 3.3 13 3.5 19.5-0.4 18.2 0.6 36.5-0.4 54.7-0.9 12.5-14.1 18.7-25.3 18.1-56.4 0.2-112.7 0-169.1 0.1q0-17.6 0-35.1 76.5 0 153 0 0-14.9 0-29.8-59.7 0-119.4 0c-9.9-0.2-20.8-1.6-28.5-8.4-5-4.6-5.3-11.8-5.2-18 0.1-17.8 0-35.5 0-53.3 0-5.4 1.3-11.3 5.8-14.7zm210.3-7q101.7 0 203.4 0 0 17.2 0 34.4c-26.1 0.1-52.2 0.1-78.2 0.1-0.1 43.9 0 87.8 0 131.8q-24.5 0-49.1 0c0-44 0.1-87.9 0-131.8-25.4 0-50.8 0-76.1 0q0-17.3 0-34.5zm317.5-0.7c15.2 0 30.5 0.1 45.8 0q47.4 83.5 94.8 167c-16.7 0-33.4 0-50.1 0-22.6-39.9-44.9-79.9-67.5-119.7-15.7 27.9-31.5 55.9-47.1 83.9 15.9 0 31.8 0 47.8 0q0 17.9 0 35.8c-41.3 0-82.5-0.1-123.7 0 33.7-55.5 66.7-111.3 100-167zm158.2 0c57.2 0 114.5 0.1 171.7 0 6.5 0 14.3 0.4 18.1 6.4 5.7 8.7 4.8 19.5 5 29.4-0.3 16.5 0.4 33-0.3 49.4 0.1 7.6-5.4 15-13.2 15.7-11.8 1.2-23.6 0.2-35.3 0.5 22.6 21.5 44.5 43.6 66.7 65.5-20 0.2-40.1 0.1-60.1 0-21.8-22.1-44.5-43.4-66.2-65.5-14.3 0-28.5 0-42.7 0 0 21.9 0 43.7 0 65.6q-21.9 0-43.7 0c-0.1-55.7 0-111.3 0-167zm43.7 35.8q0 12.9 0 25.9c32.9 0 65.9-0.1 98.8 0 3.1-0.2 7.2 0.2 9-3.1 2.8-7.4 1.7-15.5-1-22.8q-53.4 0-106.8 0zm189.5 131.2c0-55.7-0.1-111.3 0-167 58.8 0.2 117.6-0.1 176.4 0.1 9.9-0.8 17.6 7.5 18.2 16.9 1.6 17.6 0.9 35.5 0.5 53.2 0.1 6.9-6.6 10-12.1 12.1 9.7 2.6 12.9 12.9 12.4 21.9-0.2 15.3 0.6 30.6-0.4 45.8-0.3 9.5-8.6 17.5-18.2 16.9-58.9 0.2-117.9 0-176.8 0.1zm44.4-131.2q-0.1 12.9 0 25.9c34.3-0.3 68.7 0.3 103.1-0.3 6.2-0.3 6.2-7.7 6.3-12.3-0.1-4.7 0.1-12.9-6.3-13.1-34.4-0.5-68.8 0-103.1-0.2zm0 68.2q-0.1 13 0 25.9c35.2-0.6 70.5 1 105.6-0.8 6.5-6.4 3.7-17.3 1.1-25.1-35.6 0.1-71.1 0-106.7 0zm191.8-101c11.6-3.5 23.9-3 35.9-3 38.9 0.2 77.9-0.2 116.7 0.2 12-0.2 28 5.5 27.8 19.9 0.3 38.8-0.1 77.6 0.2 116.4-0.1 7.1 0.2 15-4.6 20.7-6.9 8.2-18.6 9.5-28.6 9.8-45.2 0-90.2-0.1-135.3 0-6.8 0-14.3-0.7-19.3-5.8-6-5.5-7.3-14-7.1-21.8 0.1-40-0.1-79.9 0.1-119.9-0.6-8.4 6.7-14.5 14.2-16.5zm26.8 33.5q0 47.3 0 94.7 56 0 112 0 0-47.4 0-94.7c-37.4 0-74.7 0-112 0zm178.1-36.5c23.3 0.2 46.7 1.1 70 0.7 16.1 16 32 32 48.1 48q24-24 48-48c23.6 0.4 47.1-0.6 70.7-0.6-27.7 28.1-55.8 55.8-83.6 83.8 27.7 27.6 55.4 55.3 83.1 83.1-23.2 0-46.3-0.1-69.5 0q-24.2-24.2-48.4-48.4c-16.1 16.4-32.6 32.4-49.1 48.4-23.1-0.1-46.2 0-69.3-0.1 27.6-27.9 55.6-55.5 83.3-83.4-27.7-27.9-55.7-55.4-83.3-83.5z"/>
	</g>
</svg>