<svg version="1.2" xmlns="http://www.w3.org/2000/svg" viewBox="0 0 1550 150" width="1550" height="150">
	<title>99071735c89da3b16faf9d7c97cc0fda-svg</title>
	<style>
		.s0 { fill: #19294c } 
	</style>
	<g id="#19294cff">
		<path id="Layer" class="s0" d="m89.5 15.2q8.3-0.1 16.6 0 0 12.6 0 25.2 17.6 0 35.2 0 0 7 0 14.1c-11.7 0.1-23.4 0-35.2 0 0 15.1-0.1 30.1 0.1 45.1 0 6.2 2 13.4 8.3 15.8 9.2 3.4 19.4 1.6 28-2.6q0 7.4 0 14.8c-12.2 5.4-27.1 6.5-39.3 0.5-9.8-5.1-13.6-16.7-13.7-27.1-0.1-28.6 0-57.2 0-85.8zm-81.7 32.7c7.7-7.7 19.1-9.5 29.6-9.6 10.6-0.1 22.2 1.7 30.3 9.1 5.8 5.1 8.2 12.8 8.8 20.2q-8.1 0-16.3 0c-0.5-6.1-4.2-12-10.4-13.8-8.7-2.6-18.8-2.8-27.1 1.4-6.9 3.3-8.1 14.9-0.6 18.3 14.4 6.4 31.6 3 45.3 11.6 13.3 8.2 13.2 29.9 1 39-8.7 6.8-20.2 8.1-31 8-10.5-0.3-22.1-2.4-29.9-10.3-4.6-4.5-6.6-10.8-7.4-17q8.3 0 16.6 0c1 8.3 9.3 12.7 16.8 13.5 7.9 0.8 16.9 0.8 23.6-4.2 6.1-4.4 5.6-15.4-1.7-18.2-12.6-4.9-26.7-3.8-39.3-8.6-6.1-2.3-11.6-6.9-13.8-13.2-3-8.8-1.5-19.6 5.5-26.2z"/>
		<path id="Layer" fill-rule="evenodd" class="s0" d="m257.2 0h16.5c0.1 43.4 0 86.8 0 130.2q-8.3 0-16.5 0c0-43.4 0-86.8 0-130.2zm33.1 0h16.6c0 43.4 0 86.8 0 130.2q-8.3 0-16.6 0-0.1-65.1 0-130.2zm532.8 53.3c15.5-18.4 46-21 64.5-5.7 7.9 6.4 12.7 15.9 14.4 25.8q-7.5 0.1-15 0.1c-1.6-8-6.5-15.4-13.9-19-11.1-5.3-25.3-4.2-35 3.5-13.3 11-15 32.4-6 46.6 9.3 14.4 31.1 17.6 44.8 7.8 5.5-3.9 8.7-10.2 10.1-16.6q7.5-0.1 15 0c-1.7 10-6.5 19.5-14.5 25.9-18 14.7-47.3 12.8-63.1-4.3-16.5-17-17-46.5-1.3-64.1zm133.4-14.8c13.6-2.6 28.4 0.7 39.1 9.7 13.8 11.1 19.9 30.3 15.7 47.4-3.1 13.7-12.6 25.6-25.3 31.6-17.5 8.3-40 4.7-53.5-9.4-15.3-15.2-17.6-41.2-5.8-59.1 6.7-10.4 17.7-17.9 29.8-20.2zm-0.1 14c-5.4 1.6-10.3 4.7-14.1 8.9-11.5 13.2-11 35.4 1.4 47.8 11.3 11.4 31.5 11.7 43.4 1 14.4-13.1 14.2-39.1-0.7-51.7-8.1-7-19.8-8.8-30-6zm480.3-0.4c15.1-16.7 42.8-19.2 61.1-6.3 9.1 6.4 14.9 16.7 16.7 27.6q-7.5 0.1-15 0.1c-1.6-7.8-6.2-15-13.3-18.7-11.2-5.7-25.8-4.6-35.7 3.4-13 10.7-14.8 31.3-6.5 45.4 9.3 16 33.8 19.2 47.4 7.1 4.4-3.8 6.8-9.3 8.1-14.9q7.5 0 15 0c-1.7 10-6.6 19.7-14.7 26.1-18.1 14.6-47.3 12.6-63.1-4.6-16.7-17.4-16.7-47.8 0-65.2zm-1279.6 5.6c14.9-23.3 51.8-26.1 70.9-6.7 10.2 10.4 13.9 25.8 12.1 40-24.7 0-49.3-0.1-74 0 1 8.7 4.8 17.8 12.6 22.4 9.6 5.7 21.8 5.8 32 2 5.7-2.2 10.3-6.8 12.4-12.5q8 0 16 0c-3.1 13.8-15.1 24.2-28.5 27.4-16.7 4.2-36.5 1.3-48.9-11.6-15.1-16.1-16.2-42.7-4.6-61zm25.5-2.9c-9.5 3.6-15 13.3-16.3 23q28.7 0 57.5 0c-1.2-7.2-3.8-14.6-9.7-19.3-8.6-7.1-21.3-7.6-31.5-3.7zm148.4 1.2c9.5-13.1 26.4-19.9 42.3-17.2 10.3 1.4 20.1 7.1 25.4 16.2 0.4-4.9 0.8-9.7 1.2-14.6q7.5 0 15.1 0 0 44.9 0 89.8-7.6 0-15.1 0c-0.4-5-0.8-10-1.2-15-5.1 9.9-15.9 15.4-26.6 16.5-13.9 1.9-28.5-3.2-38-13.6-15.5-16.5-16.8-44.1-3.1-62.1zm31.3-2c-11.1 1.8-20.1 11.2-22.6 22-2.6 10.7-0.8 22.9 6.6 31.3 10.8 13 33.2 13.3 44.4 0.6 11-12.5 10.8-33.6-0.6-45.8-7-7.5-17.9-10-27.8-8.1zm105.3-12.5c6.9-3.1 14.8-3.2 22-1.6q0 7.6 0 15.1c-8.7-1.1-18.5-1.2-25.9 4.4-9 6.5-11.5 18.2-11.8 28.6-0.1 14.1 0 28.1 0 42.2q-8.3 0-16.7 0 0-44.9 0-89.8 7.6 0 15.1 0c0.4 6.1 0.9 12.2 1.2 18.2 3.2-7.3 8.6-14 16.1-17.1zm54.7-2.4c12.3 0.1 24.6-0.1 36.9 0.1 9.1 0.4 19.3 3.4 24.3 11.7 6.3 10.5 3.7 27.4-8.8 32 7 0.9 14 4.8 16.8 11.6 3.7 9.2 2.6 21.3-5.2 28.2-6.7 5.8-15.9 7.3-24.4 7.4-13.2 0.1-26.4 0.1-39.6 0.1q0-45.6 0-91.1zm14.4 12.4c0 8.7 0 17.4 0 26.2 9.2-0.4 18.6 1 27.5-1.4 10.4-2.9 10.5-20.5 0.1-23.4-8.9-2.5-18.4-1-27.6-1.4zm0 38.2q0 14 0 28c8.4-0.1 16.8 0.1 25.2-0.1 5-0.2 10.8-0.9 14.2-5 3.1-4.5 3.1-10.6 1.2-15.5-2.4-5.6-8.9-7-14.3-7.3-8.8-0.3-17.6 0-26.3-0.1zm105.3-50.6q7.1 0 14.3 0 18.7 45.5 37.4 91.1-7.5 0-15 0c-2.6-6.5-5.1-13-7.7-19.4q-21.9 0-43.7 0-3.9 9.7-7.7 19.4-7.6 0-15.1 0c12.4-30.4 25-60.7 37.5-91.1zm-9.5 58.7q16.6 0 33.3 0c-5.5-14-11.1-27.9-16.6-41.9-5.6 13.9-11.1 27.9-16.7 41.9zm78.5-58.7q6.8 0 13.6 0c16.5 22.4 32.8 44.9 49.3 67.3 0.1-22.4 0-44.9 0-67.3q7.2 0 14.4 0 0 45.5 0 91.1-6.8 0-13.7-0.1c-16.4-22.4-32.9-44.8-49.3-67.3 0 22.5 0 44.9 0 67.4q-7.2 0-14.3 0 0-45.6 0-91.1zm324 0c12.3 0 24.7 0 37.1 0 9.1 0 18.7 2.5 25.1 9.3 8.1 8.7 9 22 5.6 32.9-3 9.2-11.4 15.3-20.5 17.6 7.9 10.4 15.8 20.8 23.7 31.3q-8.3 0-16.6 0c-7.5-9.9-14.6-20-22.3-29.7-5.7-1.2-11.8-0.1-17.7-0.5q0 15.1 0 30.2-7.2 0-14.4 0 0-45.6 0-91.1zm14.4 47.6c8-0.1 16.1 0.3 24.1-0.2 5.4-0.3 11.5-2.4 14.2-7.6 2.7-5.4 2.7-12 0.5-17.6-2.4-5.9-9-8.5-14.9-8.7-8-0.3-15.9 0-23.9-0.1 0 11.4 0 22.8 0 34.2zm78.9-47.6c12.3 0 24.6 0 36.9 0 9.1 0 18.8 2.5 25.2 9.3 8 8.4 9 21.4 6 32.1-3 10.1-12.4 17.1-22.6 18.7-10.3 1.6-20.8 0.5-31.2 0.8q0 15.1 0 30.2-7.2 0-14.3 0 0-45.6 0-91.1zm14.3 13.4c0 11.4 0 22.8 0 34.2 8-0.1 15.9 0.3 23.9-0.2 5.7-0.3 12.2-2.5 14.8-8.2 3.8-8.5 1.9-21.6-8.3-24.5-9.9-2.6-20.3-0.8-30.4-1.3zm139.7-13.4q7.2 0 14.4 0 0 45.5-0.1 91.1-7.1 0-14.3 0 0-45.6 0-91.1zm41.9 0q6.8 0 13.6 0c16.5 22.4 32.9 44.9 49.3 67.3 0-22.4 0-44.8 0-67.2q7.2-0.1 14.5 0 0 45.4 0 90.9-6.9 0.1-13.8 0.1-24.6-33.7-49.3-67.4c-0.1 22.4 0 44.9 0 67.4q-7.2 0-14.3 0-0.1-45.6 0-91.1zm-125.2 110.9c2.5-12.7 4.7-25.4 7.1-38q7 0 14 0c-3.4 12.6-6.5 25.4-10.1 38zm337.3-36.9c5.8-2.8 13.9 1.5 13.5 8.4 0.7 6.7-6.6 11.7-12.7 9.4-7.8-2.2-8.4-14.9-0.8-17.8z"/>
	</g>
</svg>