<svg version="1.2" xmlns="http://www.w3.org/2000/svg" viewBox="0 0 1532 270" width="1532" height="270">
	<title>stg-q2-presentation-2022-2-pdf-svg</title>
	<defs>
		<clipPath clipPathUnits="userSpaceOnUse" id="cp1">
			<path d="m-359.09-68.65h4645.55v2609.21h-4645.55z"/>
		</clipPath>
	</defs>
	<style>
		.s0 { fill: #940a30 } 
		.s1 { fill: #595e61 } 
	</style>
	<g id="Clip-Path: Page 1" clip-path="url(#cp1)">
		<g id="Page 1">
			<path id="Path 5" class="s0" d="m0.7 252.2h321.3v17.6h-321.3z"/>
			<path id="Path 6" fill-rule="evenodd" class="s0" d="m438.9 88.1c-2.9-4.1-7.5-6.5-12.6-6.5-6.5 0-9.7 2.7-9.7 6.5 0 3.9 5.1 6.6 11.9 8.5 7 1.9 15.5 5.1 15.5 13.5 0 8.2-7.3 14-17.7 14-6.1-0.2-12.1-1.6-17.7-4.3l3.4-6.5h0.7c2.9 4.6 8.3 7.2 13.6 7 7.3 0 10.6-3.9 10.6-7.8 0-5-8.4-7-15.7-9.6-6-2.4-11.8-5.1-11.8-11.6 0-9 9.2-13.5 16.9-13.5 6 0.2 11.6 1.2 17.2 3.3l-3.9 7zm35.8-10.3c5.8 0.2 11.1 1.2 16.5 3.3l-3.2 7h-0.7c-2.9-4.3-8-7-13.1-6.5-8 0-14.5 5.1-14.5 18.9 0 13.5 7.3 19.8 15.7 19.8 4.6 0.2 9.2-1.5 12.4-4.6h0.7l1.9 4.6c-5 2.6-10.6 3.8-16.2 3.8-12.6 0-24.2-7.7-24.2-22.4 0-13.3 10.9-23.9 24.2-23.9q0.3 0 0.5 0zm32.9 29q-3.9 7.7-6 16.1h-6.6c0 0 10-19.3 19.6-44.4h4.6c10.4 25.1 20.4 44.4 20.4 44.4h-11.2q-2.2-8.4-5.8-16.1zm7.8-18.2l-6.6 14.3h12.4zm34.6 7c0 21.5 0.7 27.3 0.7 27.3h-5.8c0 0 0.5-9.9 0.5-25.9v-18.6h4.1l31.2 32.2v-3.2c0-23.2-0.5-29-0.5-29h5.8c0 0-0.7 9.5-0.7 23.7v20.8h-3.9l-31.4-31.7zm62.9 27.1h-15.8c0 0 0.8-6.5 0.8-22.5 0-14.2-0.8-22-0.8-22h12.4c17.7 0 30.7 3.9 30.7 21.3 0 15-10.4 23.2-27.3 23.2zm-1.5-40.6h-5.1q-0.9 8.5-0.7 16.9c0 14 0.7 19.8 0.7 19.8h5.1c12.6 0 19.1-4.3 19.1-18.6 0-13.5-6-18.1-19.1-18.1zm37.3 40.6c0 0 0.7-6.5 0.7-22.5 0-14.2-0.7-22-0.7-22h9.2c0 0-0.7 6.6-0.7 20.8 0 16 0.7 23.7 0.7 23.7zm24.9-27.1q-0.5 13.6 1.2 27.1h-5.8c0 0 0.7-9.7 0.7-25.8 0-8.3-0.7-18.7-0.7-18.7h4.6l31.5 32.2v-3.2c0-23.2-0.8-29-0.8-29h5.8c0 0-0.7 9.7-0.7 23.7v20.8h-3.9l-31.9-31.6zm54.9 11.1c-4.8 10.1-6.5 15.9-6.5 15.9h-6.5c0 0 9.6-19.3 20-44.4h4.6c10 25.1 19.6 44.4 19.6 44.4h-10.4c0 0-1.9-5.8-6.5-15.9zm7-18.2l-5.8 14.3h11.6zm58.3-10.4h6.3c0 0-8.4 18.9-18.4 44.5h-7c-9.9-25.6-18.4-44.5-18.4-44.5h10.4c0 0 5.4 16.9 13.1 34.8 8-17.9 14-34.8 14-34.8zm13.8 44.5c0 0 0.5-6.3 0.5-22.5v-22h8.5v44.5zm29.5-16c-4.6 10.2-6.5 16-6.5 16h-6.8c0 0 9.9-19.4 20.3-44.5h4.4c9.9 25.1 19.8 44.5 19.8 44.5h-10.6c0 0-2-5.8-6.6-16zm7.3-18.1l-5.8 14.3h11.6zm36 7q-0.4 13.5 1.3 27h-5.8c0 0 0.7-9.6 0.7-25.8 0-8.2-0.7-18.6-0.7-18.6h4.5l31.5 32.1v-3.1c0-23.2-0.7-29-0.7-29h5.8c0 0-0.5 9.6-0.5 23.6v20.8h-4.6l-31.5-31.6zm79.2 27c0 0 0.7-6.3 0.7-22.4v-18.2q-8.2 0.3-16.5 2v-5.8h41.9v5.8q-8.2-1.7-16.9-2v17c0 15.9 0.7 23.6 0.7 23.6zm75.7-22.4c0.7 12.5-9.2 23.2-22 23.9q-1.4 0-2.7-0.3c-14.5 0-24.9-8.2-24.9-23.2 0-14 10.4-23.1 25.4-23.1 13.8 0.2 24.2 7.9 24.2 22.7zm-24.7 20c9.7 0 15.5-7.2 15.5-20 0-9-4.3-18.6-15.5-18.6-7.9 0-15.2 5-15.2 19.3 0 12.1 6 19.3 15.2 19.3zm55.4-21.2c9.2 0.4 12.6 5.8 12.6 10.8 0 9.7-8.7 12.8-17.6 12.8h-16.5c0 0 0.7-6.3 0.7-22.4 0-14.3-0.7-22-0.7-22h16.5c7 0 15.5 1.4 15.5 9.6 0 8.5-8.5 10.4-10.5 11.2zm-7.7-17.4h-5.3v15.9h3.4c7 0 11.6-2.4 11.6-8.2 0-5.8-4.6-7.7-9.7-7.7zm-1.4 19.3h-3.9v18.6h3.9c7.2 0 12.5-1.2 12.5-9 0-9.1-7.2-9.6-12.5-9.6zm38.7 5.8c-4.6 10.1-6.6 15.9-6.6 15.9h-6.5c0 0 9.7-19.3 20.3-44.4h4.6c9.7 25.1 19.6 44.4 19.6 44.4h-10.4c0 0-1.9-5.8-6.8-15.9zm7.3-18.1l-5.8 14.2h11.6zm51.8-11.1c5.6 0.2 11.1 1.2 16.4 3.4l-3.3 7h-0.8c-2.6-4.4-7.7-6.8-13-6.5-7.8 0-14.3 5.3-14.3 18.8 0 13.5 7.2 19.8 15.7 19.8 4.6 0.3 9-1.2 12.4-4.3h0.7l1.9 4.3c-5.1 2.7-10.6 4.1-16.4 3.9-12.4 0-24.2-7.7-24.2-22.5 0-13.3 11.1-23.9 24.4-23.9q0.2 0 0.5 0zm44.5 0c5.6 0 11.1 1.2 16.2 3.4l-3.1 7h-0.8c-2.4-4.4-7.2-7-12.3-6.5-8 0-14.5 5.3-14.5 18.8 0 13.5 7.2 19.8 15.7 19.8 4.6 0.3 9.2-1.2 12.6-4.3h0.5l1.9 4.3c-4.8 2.7-10.6 4.1-16.2 3.9-12.6 0-24.2-7.7-24.2-22.5 0-13 10.7-23.9 24-23.9q0 0 0.2 0zm69.9 22.7c0 13.3-9.2 23.7-24.9 23.7-14.3 0-24.7-8.2-24.7-23.2 0-14.3 10.4-23.2 25.4-23.2 13.8 0 24.2 7.7 24.2 22.7zm-24.9 19.8c9.9 0 15.7-7 15.7-19.8 0-9.2-4.6-18.8-15.7-18.8-7.7 0-15 5.3-15 19.3 0 12.3 5.8 19.3 15 19.3zm89.1-32.1c-2.5-4.4-7.3-7-12.4-6.5-8.7 0-15.7 5.3-15.7 18.8 0 14.3 8.5 19.8 16.2 19.8q4.6 0 8.7-1.7 0-7.9-1.4-15.4h9.1c0 0-0.7 5.5-0.7 12.1v5c-5.3 2.4-11.1 3.6-16.9 3.9-14.5 0-24.9-8.2-24.9-22.5 0-12.8 9.2-23.9 25.6-23.9 5.6 0 11.1 1.2 16.2 3.4l-3.1 7zm40.4 34.8c-3.6-7.5-8.5-14.8-13.8-21.3h-2.4c0 13.6 0.5 21.3 0.5 21.3h-9.2c0 0 0.7-6.5 0.7-22.5 0-14.2-0.7-22-0.7-22h15.2c7 0 16.9 1.2 16.9 10.4 0 8.2-9.2 10.9-12.5 11.6q7.7 11.4 16.4 22v0.5zm-13.1-41.3h-3.1v16.9h2.7c5 0 11.6-2 11.6-8.5 0-7-5.8-8.4-11.2-8.4zm78.4 18.8c0 13.5-9.6 23.7-25.4 23.7-14.2 0-24.9-8.2-24.9-23.2 0-14 10.7-23.2 25.7-23.2 13.8 0 24.6 7.7 24.6 22.7zm-25.4 19.8c10 0 15.8-7 15.8-19.8 0-9.2-4.6-18.8-15.8-18.8-7.7 0-15 5.3-15 19.3 0 12.3 5.8 19.3 15 19.3zm34.6-41.8h10.7c0 0-0.7 8.5-0.7 22 0 8.2 0.7 12.8 2.6 15.5 2.2 2.4 5.6 3.8 9 3.8 5.8 0.3 10.6-3.6 11.8-8.9q1.5-6.5 1.2-13 0-9.7-1.2-19.4h7.3q-1.5 11.4-1.5 22.5c0 6.5 0 13.8-4.6 18.1-3.8 3.6-8.9 5.6-14.2 5.1-5.4 0-12.4-0.5-16.5-6.3-2.7-3.9-3.6-8.4-3.1-13 0-17.4-0.8-26.4-0.8-26.4zm62.9 25.2h-3.3c0 11.6 0.7 19.3 0.7 19.3h-9.2v-44.5h12.6c8.9 0 19.6 0.8 19.6 11.6-0.3 10.4-10.7 13.6-20.4 13.6zm0-22h-3.3v18.8h1.9c5.3 0 12.6-1.4 12.6-9.9 0.2-7-5.3-8.9-11.2-8.9z"/>
			<path id="Path 7" fill-rule="evenodd" class="s1" d="m179.5 105.1c-9.4-14.3-24.4-17.9-33.1-33.4 11.8 11.1 24.1 13.8 36 23.9 14.8 13.3 6.3 38.2-6 49.8 0 0 14-24.4 3.1-40.3zm-24-104.4h7.8c-1.9 3.6-0.7 8.2 2.9 10.1q1.7 1 3.6 1c4.4 0 7.8-3.4 7.8-7.7q0-0.3 0-0.3 3.6 1.7 7 3.9c-4.4 2.7-7.5 11.6-8 15.5q5.6 1.2 10.6 4.1c5.4 3.3 1 5.5 1 5.5 0 0 11.9 2 16.7 6.3 4.4 3.1 0 4.8-1 4.1 0.5 3.9-0.7 7.7-3.4 10.6 0.8-5.8-5.3-8.4-10.6-5.8-4.4 2.2-7.7 7.5-5.3 12.4 2.4 4.8 9.2 3.8 12.3 0.9 0 6.3-4.1 11.6-10.1 13.3 0.9-2.6-0.5-5.3-4.4-8.4-12.3-10.2-4.8-23.5 5.8-24-11.1-5.3-20.8 2.2-21.3 8 1.7-2.4 4.1-3.8 7-4.3-4.6 5-4.1 12.5 1 16.9q0.7 0.7 1.7 1.2c-19.4-2.7-22.5-20.8-8.7-28-6.8 0-11.6-5.8-4.6-9.2-12.4 1.2-8 9.2-0.7 10.1-6.1 2.4-9.5 8.5-8.5 15 0.2 5.3 3.1 10.2 7.5 13.1-12.3-2.7-14.5-9.5-16-15.7-0.7-2.7-0.7-4.4-2.9-3.9-2.4 1.2-4.3 3.6-5.3 6.3-14.5 39.1 31.5 56.3 30.5 75.8-8.5-23.2-59.8-32.8-42.1-79-8 5.8-11.4 20.1-11.4 20.1 0 0-6.3-28 27.6-45.7-0.7-5.8-3.6-11.3-8-15.4q3.2-2.5 7-3.9c-0.5 4.1 2.7 7.7 6.6 8q0.4 0 0.9 0c4.4 0 7.8-3.4 7.8-7.8q0-1.7-0.8-3.1zm24 29.2c-3.1 0.5-5.8 2.2-7.7 4.6 4.3-1.2 8.9-1.4 13.3-1l-3.2-0.9c0.5-1.7 1-2.7-2.4-2.7zm-41.1 85.3c5.3 16 15 16.4 25.1 29.7 11.9 14.3 3.2 35.5-5.3 41.3 0 0 12.3-17.4 1.7-34.5-9.2-13.1-21.5-17.4-21.5-36.5z"/>
		</g>
	</g>
</svg>