<svg version="1.2" xmlns="http://www.w3.org/2000/svg" viewBox="0 0 1583 1048" width="1583" height="1048">
	<title>SJP_Logo_RGB_NAVY-svg</title>
	<style>
		.s0 { fill: #ffffff } 
	</style>
	<path id="Layer" fill-rule="evenodd" class="s0" d="m461.8 330.9v-70.9h1.1l65.3 65.3c7.8 7.3 18.4 10.6 28.4 10 38 0 63.6-19.5 63.6-54.1 0-31.8-21.7-46.8-66.4-66.4l-20-8.9c-40.8-18.4-83.1-48-83.1-105.5 0.5-61.3 49.6-100.4 125.5-100.4 31.2 0 61.9 3.3 92.5 10.6v70.9h-1.1l-65.2-64.8c-6.2-5.5-15.1-8.3-23.5-7.8-32.3 0.6-55.7 19-55.7 52.5 0 29 21.2 42.9 55.2 59.1l21.7 10.6c50.8 24 94.3 47.5 94.3 104.9 0 64.8-53.5 109.4-134.4 109.4-33.5-1.7-66.4-6.1-98.2-14.5zm271.1 710.8l22.3-21.7c3.3-2.8 5-7.3 4.5-11.7v-265.6c0.5-4.5-1.2-8.4-4.5-11.2l-22.3-22.3v-1.1l106.5-12.9v312.5c-0.5 4.5 1.1 8.9 5 11.7l22.9 22.9v1.1h-134.4zm393.7-114.4c0-92.6 65.9-124.4 128.3-124.4 27.4 0 54.7 5 80.9 14l-33.5 33.4h-1.1l-33.4-33.4c-3.4-4-7.9-5.6-12.9-5.6-26.7 0-42.4 30.7-42.4 92 0 73.1 31.8 96.6 63.6 96.6 25.7 0 45.8-14 58-38h1.1c-8.3 51.4-41.2 83.7-96.4 83.7-58.1 1.1-112.2-37.4-112.2-118.3zm226.5-1.1c0-88.1 54.7-123.3 119.9-123.3 51.3 0 106 24.6 106 101 0 3.3 0 7.3-0.6 10.6h-142.8v5c0 55.3 30.7 82 68.6 82 30.2 0.6 58.6-16.1 72-43.5h1.1c-11.1 60.3-49.6 88.7-106.5 88.7-60.3 0-117.7-36.8-117.7-120.5zm151.7-20.1c0-56.3-5-94.3-33.5-94.3-24.5 0-34.5 29.6-35.7 94.3zm-720.6-640l41.9 42.4-42.4 42.4-41.9-42.4zm649.8 83.2l-73 73.1h-1.2v-73.1zm-689.9-169.7v-118.2h-17.8v-6.7h15c3.9 0.5 7.8-0.6 10.6-3.9l50.2-50.3h0.6v54.2h41.2v6.7h-41.2v114.3c0 15.1 6.7 23.5 17.8 23.5 8.4 0 15.6-4.5 19.5-11.7l0.6 0.5c-3.4 25.1-25.1 43-50.2 41.9-29.6 0-46.3-19.6-46.3-50.3zm-426.1 423.6c-9.5 27.3-35.7 45.7-64.7 45.2-35.2 0-65.3-22.9-65.3-66.4 0-48 39.6-73.1 83.1-73.1 16.8-0.6 33.5 3.3 48 11.1 0-17.3 0.6-34.6 0.6-52.4 0-32.4-10.1-53.6-32.4-53.6-5.6-0.6-10.6 1.7-14.5 5.6l-36.2 36.2h-1.2l-32.9-32.9c30.7-11.1 62.5-17.3 95.4-17.8 34 0 59.7 5.6 76.4 21.2 15.1 14.5 24 37.9 24 74.2 0 18.4-2.2 55.8-3.3 84.8-0.6 19 3.9 27.3 13.3 27.3 5.6 0 10.6-3.3 12.3-8.3h1.1c0 6.1-1.1 12.2-3.3 17.8-8.4 16.8-24.6 26.3-48 26.3-27.3 0-50.2-16.2-52.4-45.2zm-26.2 9.4c10.6 0 20.6-6.1 26.2-15 0.5-24 1.1-46.9 1.1-70.9-5.6-1.7-11.2-2.8-16.7-2.8-25.1 0-38 21.2-38 49.1 0 27.9 11.8 39.6 27.4 39.6zm716.7 389c-9.5 27.3-35.7 45.7-64.7 45.1-35.2 0-65.3-22.8-65.3-66.4 0-47.9 39.6-73 83.1-73 16.8-0.6 33.5 3.3 48 11.1 0-17.8 0.5-34.6 0.5-52.4 0-32.4-10-53.6-32.3-53.6-5.6 0-10.6 1.7-14.5 5.6l-36.3 36.2h-1.1l-32.9-32.9c30.7-11.1 62.5-17.3 95.4-17.8 34 0 59.7 5.5 76.4 21.2 15.1 14.5 24 37.9 24 74.2 0 18.4-2.2 55.8-3.4 84.8-0.5 19 3.9 27.9 13.4 27.9 5.6 0 10.6-3.4 12.3-8.4h1.1c0 6.2-1.1 12.3-3.3 17.9-8.4 16.7-24.6 26.2-48 26.2-27.9-0.6-50.8-16.7-52.4-45.7zm-26.2 9.4c10.6 0 20.6-6.1 26.2-15 0.5-24 1.1-46.9 1.1-70.9-5.6-1.7-11.2-2.8-16.7-2.8-25.1 0-38 21.2-38 49.1 0 27.9 11.7 39.6 27.4 39.6zm-248.8-367.7l21.8-21.7c3.3-2.8 5-6.7 5-11.2 0-7.8 1.7-75.9 1.7-99.9 0-37.9-6.7-65.3-36.3-65.3-14.5 0.6-27.9 7.9-36.8 19.6 2.8 13.4 4.4 27.3 4.4 40.7 0 30.1-1.1 66.4-1.1 103.8-0.5 4.5 1.1 8.4 4.5 11.2l22.9 22.8v1.1h-134.5v-1.1l21.8-21.7c3.3-2.8 5-6.7 5-11.2 0-7.8 1.7-75.9 1.7-99.9 0-37.9-6.7-65.3-36.3-65.3-15.6 0-26.2 7.9-34.5 20.7v144c-0.6 4.4 1.1 8.9 5 11.7l22.8 22.8v1.2h-136v-1.2l22.3-22.3c4.4-3.9 4.4-5.6 4.4-11.7v-166.8c0.6-4.5-1.1-9-4.4-11.7l-22.3-22.4v-1.1h106.5v50.8c11.7-32.9 36.8-54.7 76.4-54.7 37.4 0 60.2 20.7 70.3 55.3 12.2-33.5 44-55.8 79.7-55.3 48 0 74.8 34.6 74.8 100.5 0 31.2-1.1 66.4-1.7 103.7-0.6 4.5 1.1 8.4 4.5 11.2l22.8 22.9v1.1h-134.4zm142.8-115c0-88.1 54.6-123.3 119.9-123.3 51.3 0 106 24.6 106 101 0 3.4 0 7.3-0.6 10.6h-142.2v5c0 55.3 31.2 82.1 68.6 82.1 30.1 0.5 58.6-16.2 71.9-43.6h1.2c-11.2 60.3-49.7 88.8-106.6 88.8-60.2-0.6-118.2-37.4-118.2-120.6zm152.3-20.6c0-56.4-5.1-94.3-33.5-94.3-24.6 0-34.6 29.6-35.7 94.3zm97.6 125l32.3-32.4h1.2l32.9 32.9c6.1 4.5 13.4 6.7 21.2 6.2 27.3 0 44.6-14 44.6-34.1 0-18.9-14.5-27.3-46.3-41.8l-31.8-15.1c-26.8-12.2-47.4-34-47.4-68.6 0-45.2 37.4-75.3 99.3-75.3 29 0 57.4 4.4 85.3 12.2l-33.5 33.5h-1.1l-30.6-30.7c-5.1-4.4-11.2-6.7-17.9-6.1-21.2 0-37.9 10.6-37.9 32.4 0 21.2 15.6 31.2 44 44l30.7 13.4c29.6 12.9 53 28.5 53 65.9 0 51.3-43.5 79.2-107.6 79.2-31.8 0-62-5-90.4-15.6zm258.2 0l32.4-32.4h1.1l32.9 32.9c6.1 4.5 13.4 6.7 21.2 6.2 27.3 0 44.6-14 44.6-34.1 0-18.9-14.5-27.3-46.3-41.8l-31.8-15.1c-26.7-12.2-47.4-34-47.4-68.6 0-45.2 37.4-75.3 99.3-75.3 29 0 57.5 4.4 85.3 12.2l-33.4 33.5h-0.6l-30.7-30.7c-5-4.4-11.1-6.7-17.8-6.1-21.2 0-37.9 10.6-37.9 32.4 0 21.2 15.6 31.2 44 44l30.7 13.4c29.6 12.9 53 28.5 53 65.9 0 51.3-43.5 79.2-107.7 79.2-31.7 0-62.4-5-90.9-15.6zm-803.7 286.2h-31.2v81.5c-0.6 4.5 1.1 9.5 5 11.7l30.7 30.7v1.1h-159v-1.1l30.7-30.7c3.9-2.8 6.1-7.2 5-11.7v-248.9c0.6-4.4-1.1-9.4-5-11.7l-30.7-30.7v-1.1h166.8c66.4 0 131.6 25.1 131.6 101 0 75.9-58.5 109.4-143.9 109.4zm-30.7-10.1h21.2c39.1 0 60.3-38.5 60.3-97.6 0-55.3-20.1-93.8-55.2-93.8h-17.9c-7.2 0-8.4 1.2-8.4 9zm-484.6-300.8v-255.5c0.5-4.5-1.1-9-5.1-11.8l-30.6-30.6v-1.2h160v1.2l-30.6 30.6c-3.9 2.8-5.6 7.3-5.1 11.8v241.6c0 85.3-51.8 147.8-153.3 150.6l-0.6-1.1c45.2-24.5 65.3-65.8 65.3-135.6z"/>
</svg>