<svg version="1.2" xmlns="http://www.w3.org/2000/svg" viewBox="0 0 1581 1047" width="1581" height="1047">
	<title>SJP_Monogram_RGB_NAVY_0-svg</title>
	<style>
		.s0 { fill: #0a1428 } 
	</style>
	<g id="a">
		<path id="Layer" fill-rule="evenodd" class="s0" d="m22.3 831.9l-0.5-149.5h2.2l137.2 137.8c4.5 5.6 25.1 20.7 60.2 20.7 80.3 0 134.4-41.3 134.4-114.4 0-67-46.3-98.2-139.4-140.1l-42.4-18.9c-85.9-39.1-174-101-174-221.6 0-128.3 103.2-210.3 263.3-210.3 51.3 0 123.2 5 194.6 21.7v149.6h-2.8l-136.6-136.2c-10.1-10.6-26.8-16.1-49.1-16.1-69.2 0-118.3 39-118.3 109.3 0 61.4 45.2 90.4 116.1 124.5l46.3 21.7c107 51.3 198.5 100.5 198.5 220.4 0 136.2-113.2 229.3-283.3 229.3-60.3 0.6-144.5-10.6-206.4-27.9zm624.1-69.7v-672.9c0-12.9-2.2-15.6-10-24l-63-63.1v-2.2h331.8v2.2l-63.6 63.6c-8.9 9-10 11.2-10 24v643.4c0 176.9-108.2 307.4-319 313.6l-1.1-2.3c93.7-51.9 134.9-137.8 134.9-282.3zm632-173h-64.2v171.3c0 12.9 1.1 16.2 10.1 24l64.1 64.2v2.2h-331.3v-2.2l64.1-64.2c9-7.8 10.1-11.1 10.1-24v-524.5c0-12.8-1.1-16.2-10.1-24l-64.7-63.6v-2.2h347.5c139.4 0 276.7 52.4 276.7 212.6 0 160.1-122.8 230.4-302.3 230.4zm-64.7-20.1h44c82 0 127.2-80.9 127.2-205.3 0-116.1-41.8-197.5-116-197.5h-36.8c-15.1 0-17.9 1.7-17.9 18.9 0 0 0 383.9-0.5 383.9z"/>
	</g>
	<g id="b">
	</g>
	<g id="c">
	</g>
</svg>