<svg version="1.2" xmlns="http://www.w3.org/2000/svg" viewBox="0 0 1508 222" width="1508" height="222">
	<title>togrp-1-svg</title>
	<style>
		.s0 { fill: #000000 } 
	</style>
	<g id="#ffffffff">
		<path id="Layer" fill-rule="evenodd" class="s0" d="m694.8 3.4q53.4 0 106.8 0 0 9.2 0 18.4-42.3 0-84.7 0 0 21.6 0 43.2 39.5 0 78.9 0 0.1 8.9 0.1 17.7-39.5 0-79 0 0 23.5 0 47c28.5 0 57 0 85.4 0q0 9.4 0 18.8-53.7 0-107.5-0.1 0-72.5 0-145zm-253.1-3.4h13.7c13.4 1.2 26.8 5.2 37.7 13.3 15.5 11.1 24.9 29.2 27.5 47.8 3.1 21.8-0.3 45.4-13.7 63.4-10.9 15-28.6 24.4-46.9 26.6-21 2.8-44-1.6-60.5-15.7-14.8-12.6-22.5-31.9-23.9-51-1.8-20.7 2.6-42.8 15.9-59.2 11.9-15.3 31-23.9 50.2-25.2zm-4.6 19.2c-12.2 2.3-23.5 9.7-30.1 20.3-9 14-11 31.5-8.8 47.7 1.8 13.7 7.9 27.4 18.9 36.1 12.6 10.1 30.2 12.6 45.7 8.6 12.6-3.1 23.4-12 29.3-23.6 7.1-13.7 8.5-29.8 6.3-44.9-2-13.7-8.5-27.4-19.8-35.8-11.7-8.8-27.3-11.1-41.5-8.4zm105.2 129.3q0.1-72.6 0.1-145.1 11.8 0 23.7 0c21.6 31.3 43.1 62.7 64.8 94q7.4 11.2 14.3 22.8c-1.5-38.9-1-77.9-1.1-116.8q10.5 0 21.1 0 0 72.5 0 145.1-11.9 0-23.8 0c-22.1-32-44.5-63.8-66.4-95.9-4.1-6.5-8.7-12.7-12.3-19.6 1 8.1 0.6 16.2 1.1 24.2 0 30.4 0 60.8 0 91.3q-10.7 0-21.5 0z"/>
		<path id="Layer" fill-rule="evenodd" class="s0" d="m871.7 2.3c20.1-3.6 42.6-0.1 58.7 13.3 10.2 8.2 16.8 20.2 19.2 33q-4.4 0.1-8.9 0.1c-2.7-11.5-9.4-22-19.1-28.8-16.3-11.8-38.4-13.6-57.2-7.2-15.1 5-27.3 17.1-33.4 31.7-6.5 15.2-8 32.5-5.1 48.7 2.6 14.3 9.9 28 21.3 37.1 14.1 11.4 33.4 15.1 51.1 12.1 14.1-2.3 27.7-9.8 35.8-21.9 7.3-10.2 9.8-22.9 9.8-35.3-18.5 0-37 0-55.5 0q0-3.7 0-7.5 31.8 0 63.6 0 0 35.1 0 70.2-3.4 0-6.7 0c-0.7-11.2-0.6-22.4-1-33.7-5.6 15.3-18.1 27.8-33.7 32.8-19.4 6.3-41.5 4.8-59.7-4.4-18.5-9.4-30.9-28.3-34.3-48.5-3.6-21.2-0.8-44.2 11-62.6 9.7-15.4 26.2-26 44.1-29.1zm284.1-0.8c17.2-2.5 35.5-0.1 50.5 8.9 17.6 10.2 29.2 29 32.7 48.8 3.8 21.4 1.1 44.8-11.4 63.1-9.6 14.2-25.2 23.9-42 27.1-21.1 4.3-44.6 0.9-62-12.6-14.6-11.3-23.2-29-25.6-47.1-2.8-20.9 0.5-43.4 12.9-60.9 10.2-14.9 27.1-24.7 44.9-27.3zm-3.7 9.2c-13.2 3.3-25.2 11.4-32.9 22.6-11.8 16.7-14.5 38.3-11.1 58.1 2.8 16.6 11.7 32.5 25.9 41.9 25.1 16.6 62.8 12.4 82-11.4 13.5-16.4 17.1-39.1 13.8-59.7-2.5-15.5-10.1-30.6-22.6-40.5-15.2-12.4-36.4-15.8-55.1-11zm-1151.8-6.6q58.1 0 116.1 0 0 3.9 0 7.8c-17.8 0-35.6 0-53.5 0q0 67.9 0 135.9-4.5 0-9.1 0-0.1-67.8 0-135.5-26.7 0-53.5 0 0-4.1 0-8.2zm124.6 0q4.7 0 9.5 0 0 32.3 0 64.7 48.1 0 96.3 0 0-32.4 0-64.7 4.6 0 9.2 0 0 71.8 0 143.7-4.6 0-9.2 0 0-35.6 0-71.2-48.2 0-96.3 0c0 23.7 0 47.5 0 71.2q-4.8 0-9.5 0 0-71.9 0-143.7zm139.1 0q50.9 0 101.8 0 0 3.9 0 7.8-46.3 0-92.6 0 0 28.4 0 56.9 43.4 0 86.8 0 0 3.9 0 7.8-43.4 0-86.8 0 0 31.3 0 62.7 46.6 0 93.3 0 0 4.2 0 8.5c-34.2 0-68.3 0-102.5 0q0-71.9 0-143.7zm712.2 0c21.2 0 42.4-0.1 63.7 0 11.7 0.4 24.5 1.6 33.9 9.4 16.1 12.9 17.6 40.2 2.7 54.5-5.7 5.5-13.2 8.5-20.8 10.4 8.1 0.9 16.8 3.7 21.8 10.6 6.8 8.7 5.9 20.4 6.8 30.7 0.8 9.4 0.1 19.6 4.9 28.1q-5.4 0-10.8 0c-1.2-3-1.9-6.1-2.2-9.3-1-11.7-0.6-23.5-2.8-35.1-0.9-5.5-3.6-11-8.3-14.3-7.2-5.5-16.5-6.6-25.2-7-18.1-0.1-36.1 0-54.2 0q0 32.8 0 65.7-4.8 0-9.5 0c0-47.9 0-95.8 0-143.7zm9.5 7.8q0 31.2 0 62.3 25.7 0 51.5 0c9.5-0.2 19.6-1.3 27.7-6.8 15.7-10.3 16.6-36.6 1.5-47.9-7.5-5.9-17.3-7.2-26.5-7.6-18.1 0-36.1 0-54.2 0zm272.2-7.8q4.9 0 9.9 0c0 30.9 0 61.8 0 92.7 0 11.4 2.6 23.6 10.8 32 9.2 10.6 23.9 14.1 37.5 14.2 13.4 0.3 28.1-2.6 37.6-12.9 9.2-9.5 11.6-23.3 11.7-36.1q0-45 0-89.9 4.6 0 9.2 0c0 30.4 0 60.9 0 91.3 0.2 12.9-2.3 26.6-10.8 36.8-8.2 10.5-21.1 16.2-34.2 17.7-14.4 1.7-29.5 0.9-42.9-4.8-11.2-4.7-20.5-14-24.7-25.4-3.6-9.1-3.8-18.9-4.1-28.4q0-43.6 0-87.2zm141.6 0c23.1 0.2 46.3-0.5 69.5 0.4 14 0.3 28.5 7.5 34.6 20.6 7.5 16.1 5.1 38.2-9.5 49.5-10.6 8.5-24.7 9.9-37.8 9.9q-23.7-0.1-47.3-0.1 0 31.7 0 63.4-4.8 0-9.5 0c-0.1-47.9 0-95.8 0-143.7zm9.5 7.8q0 32.2 0 64.4 21.5 0 43.1 0c7.4 0 15 0.5 22.2-1.3 10.2-2.7 19.7-10.2 22.6-20.8 3-10.9 1.3-23.8-6.9-32.2-5.8-6.2-14.3-9.3-22.7-9.6-19.4-1-38.9-0.3-58.3-0.5zm-531.1 155.3q2.7 0 5.4 0 0 3.2 0 6.5-2.7-0.1-5.4 0-0.1-3.3 0-6.5zm410.3 0q2.7 0 5.4 0 0 3.2 0 6.5-2.7 0-5.4 0 0-3.3 0-6.5zm100.4 0q2.7 0 5.4 0 0 3.2 0 6.5-2.7-0.1-5.4 0-0.1-3.3 0-6.5zm-529.8 0q2.7 0 5.4 0 0 21.3 0 42.5-2.7 0-5.4 0 0-21.2 0-42.5zm42 1.6c2.5-2.7 6.7-1.8 10-1.9 0 1.2 0.1 3.5 0.1 4.7-2 0.4-4.8-0.8-6.2 1.1-0.9 1.9-0.6 4-0.7 6.1q3.1 0 6.2 0c0 1.2 0 3.5 0 4.7q-3.1 0-6.1 0 0 13.1 0 26.2-2.6 0-5.2 0 0-13.1 0-26.2-2.7 0-5.4 0 0-2.4 0-4.7 2.7 0 5.4 0c0.3-3.3-0.9-7.4 1.9-10zm153-1.6q2.7 0 5.4 0 0 21.3 0 42.5-2.7 0-5.4 0 0-21.2 0-42.5zm78.9 0q2.7 0 5.4 0c0 5 0.1 10.1-0.1 15.2 5-6.4 18.5-6.1 20 3.1 0.6 8 0 16.2 0.2 24.2q-2.6 0-5.1 0c-0.3-7.6 0.7-15.4-0.5-23-2.6-6.7-13.5-3.8-14.3 2.7-0.4 6.8 0 13.6-0.2 20.3q-2.7 0-5.4 0 0-21.2 0-42.5zm236.8 0q2.7 0 5.5 0 0 21.3 0 42.5-2.8 0-5.5 0 0-21.2 0-42.5zm-374.3 2.4q2.7 0 5.5 0 0 4.6 0 9.2 3 0 6.1 0 0 2.3 0 4.7-3.1 0-6.1 0c0.1 6.8-0.3 13.7 0.2 20.5 1.4 1.7 4 0.6 5.9 1.1q0 2.3 0 4.7c-3.6-0.4-9.7 1.3-11-3.4-1.2-7.5-0.3-15.2-0.6-22.9q-2.5 0-5.1 0 0-2.4 0-4.7 2.6 0 5.1 0 0-4.7 0-9.2zm313.8 0q2.6 0 5.4 0 0 4.5 0 9.2 3 0 6.1 0 0 2.3 0 4.7-3.1 0-6.1 0c0 7-0.1 14.1 0.1 21.1 2 0.2 4 0.3 6 0.5 0 1.2 0 3.5 0 4.7-4-0.2-11 1.3-11.5-4.5-0.2-7.3 0-14.5-0.1-21.8q-2.5 0-5.1 0c0-1.2 0-3.5 0-4.7q2.6 0 5.2 0-0.1-4.6 0-9.2zm100.3 0c1.4 0 4.1 0 5.5 0-0.1 3 0 6.1 0 9.2q3 0 6.1 0 0 2.3 0 4.7-3.1 0-6.1 0c0 7 0 14 0 21q3 0.4 6.1 0.6 0 2.3 0 4.7c-3.8-0.4-10.2 1.4-11.3-3.8-0.7-7.4-0.1-15-0.3-22.5q-2.6 0-5.1 0 0-2.4 0-4.7 2.5 0 5.1 0 0-4.6 0-9.2zm-531.4 9.2q2.7 0 5.4 0 0 15.5 0 30.9-2.7 0-5.4 0-0.1-15.4 0-30.9zm44.1 4.4c4.8-6.1 15-7 20.6-1.4 3.5 3.9 4.6 9.2 4.6 14.3-7.8 0-15.6 0-23.3 0 0.2 5.2 4.3 10.1 9.8 9.6 3.8 0.4 6.6-2.6 7.9-5.8 1.3 0 3.9 0 5.3 0-1.8 11.2-17.6 14.2-24.5 6.2-5.1-6.4-5.3-16.3-0.4-22.9zm1.9 8.1q8.9 0.1 17.8 0c-0.8-5-5.2-9.4-10.5-8.3-4.2 0.7-6.4 4.6-7.3 8.3zm36.2-11c7.2-4.6 20.6-2.6 21.1 7.6q-2.7 0-5.3 0c-1.6-5.4-8.9-6.6-12.9-3.3-1.4 1.1-1 3.8 0.7 4.5 5.1 3.2 12.3 1.9 16.8 6.4 3.7 4.4 1.5 11.8-3.9 13.7-5.3 1.9-11.8 2.1-16.7-1.1-2.9-1.8-3.6-5.2-4.2-8.2 1.3 0 4 0 5.3 0 1.2 6.8 11.3 7.8 15.2 3.1 0.1-0.7 0.1-2.2 0.2-2.9-3.7-4.9-11-3.2-15.9-6.3-5.3-2.4-5.2-10.7-0.4-13.5zm54.4-1.5q3.1 0 6.1-0.1c3 8.3 5.9 16.6 9 24.9 2.6-8.3 5.7-16.5 8.3-24.8q2.9 0 5.9 0c-4.3 11.3-8.7 22.6-13 34-1.4 3.6-3 7.8-7 9.2h-6c0-1.3-0.1-3.9-0.2-5.1 5.3 2.2 7.9-3.1 9.2-7.2-4.1-10.3-8.2-20.6-12.3-30.9zm60.5 3.7c5-5.5 14.7-6.2 19.9-0.6 3.7 3.7 4.7 9.1 4.6 14.2-7.8 0-15.5 0-23.2 0 0.2 5.2 4.3 10.1 9.8 9.6 3.8 0.4 6.6-2.6 7.9-5.8 1.3 0 4 0 5.3 0-1.2 2.7-2 5.8-4.5 7.7-5 4-12.7 3.8-17.9 0.5-7.4-6.1-8.1-18.5-1.9-25.6zm1.3 8.8q8.9 0.1 17.8 0c-1-3.5-2.9-7.4-6.9-8.1-5.3-1.7-10.2 3.1-10.9 8.1zm104-12.7c6.9-2 15.5 1 18.2 8.1 2.1 6.1 2 13.7-2.2 19-6.7 7.9-22 6-25.3-4.3-3.3-8.3-0.3-20.4 9.3-22.8zm1.7 4.8c-6.7 2.4-7.9 11.2-5.2 17.1 2 5.1 9.3 6.9 13.6 3.3 4.5-3.9 4.9-11.2 2.2-16.2-1.9-3.8-6.7-5.7-10.6-4.2zm32.1-3.5c7.3-4 20.1-2 20.6 8q-2.7 0.1-5.3 0.1c-1.4-5.7-9.8-6.9-13.3-2.7-1.3 2.2 0.7 4.2 2.8 4.7 4.9 2 10.9 1.6 15 5.3 4 4.5 1.5 12.4-4.2 14-7.7 3.1-20.5 0.9-20.3-9.4 1.2 0 3.8 0 5 0 1.2 6 8.9 7.1 13.6 4.7 2.6-1.1 2.8-5 0.2-6.3-5-2.8-11.5-1.9-16-5.8-3.7-3.5-2.6-10.2 1.9-12.6zm38.2 2.3c5-5.6 14.4-5.4 19.7-0.4 5.2 5.7 5.6 14.8 2.5 21.7-3.9 8.1-16.2 9.4-22.1 2.8 0.1 5.1 0 10.2 0.1 15.4-1.4 0-4.1 0-5.5 0q0-21.5 0-42.9c1.4 0 4.1 0 5.5 0 0 0.8-0.1 2.6-0.2 3.4zm5.9 1.2c-9.2 4.1-7.8 22.4 3.5 22.3 7.5 0.4 10.3-8.9 8.7-14.9-0.8-5.5-6.9-9.7-12.2-7.4zm30-4.6c1.4 0 4.1 0 5.4 0q0 15.5 0 30.9c-1.3 0-4 0-5.4 0q0-15.4 0-30.9zm42.6 9.8c0.3-5.3 4.5-9.9 9.8-10.2 5.2-0.8 12.9-0.6 14.9 5.3 0.9 7.2 0.1 14.4 0.5 21.6 0.8 0.2 2.4 0.5 3.2 0.6-0.5 1.5 0.5 4.8-2.1 4.4-3.1 1-5.9-0.6-6.5-3.8-4.7 4.5-12.5 5.4-18 1.9-4.2-3.7-3.6-12.1 1.7-14.5 4.8-2.3 10.4-1.7 15.3-3.8 1.6-1.8 1.1-5-1-6.1-4.5-2.6-11.7-1.1-12.5 4.7q-2.7-0.1-5.3-0.1zm4.6 13.1c1.3 5.5 9.2 4.7 12.7 1.8 2.9-2 2.3-5.9 2.4-9-5.1 1.9-14.2-0.1-15.1 7.2zm53.2-22.9q2.7 0 5.4 0 0 15.4 0 30.9-2.7 0-5.4 0 0-15.5 0-30.9zm39.9 0q3.1 0 6.2 0 4.4 12.4 8.8 24.8c2.8-8.3 5.7-16.5 8.5-24.8q2.9-0.1 5.8-0.1c-4.2 11.2-8.6 22.3-12.8 33.5-1.4 3.8-3 8-6.9 9.8h-6.2q-0.1-2.6-0.2-5.1 2.6 0.4 5.1 0c2.1-2 2.8-4.8 4-7.3-4.2-10.3-8.2-20.6-12.3-30.8zm-1374.7 20q393.3 0 786.6 0 0 3.3 0 6.5c-262.2 0-524.4 0-786.7 0q0.1-3.2 0.1-6.5z"/>
	</g>
</svg>