<svg version="1.2" xmlns="http://www.w3.org/2000/svg" viewBox="0 0 1513 629" width="1513" height="629">
	<title>sprite-ui-svg</title>
	<style>
		.s0 { fill: #003167 } 
		.s1 { fill: #bd2e2b } 
	</style>
	<path id="Layer" fill-rule="evenodd" class="s0" d="m334.9 362.7c0 37.7-32.2 67.6-81.4 67.6-56.3 0-85.9-33.8-85.9-33.8l29-31.2c0 0 24.7 25.1 59.5 25.1 17 0 28.6-9.6 28.6-22.2 0-14.5-10.9-24.8-51.1-40.8-31.2-12.2-53.8-32.2-53.8-64.7 0-36.6 30.9-64 78.2-64 48.9 0 76.3 29 76.3 29l-29 31.2c0 0-18.7-20.3-46.6-20.3-19.3 0-28.7 10.3-28.7 20.3 0 13.1 9 21.2 40.6 33.4 33.7 13.2 64.3 33.8 64.3 70.4zm38.1-144h154.1v39.4h-54.8v152.2h-44.5v-152.2h-54.8zm237.7 146h89.1v35.4h-129.5v-171.3h127.1v35.6h-86.7v30.9h74.7v33.5h-74.7zm181.6-0.9h81.9v36.3h-122.3v-171.3h40.4zm252.3-14.7l31.8 28.2-0.9 1.3c-0.2 0.4-24.5 34.4-76.7 34.4-56.9 0-99.9-42-99.9-97.7 0-55.6 44.5-99.3 101.2-99.3 50.1 0 72.8 29.8 73.8 31.1l1 1.4-32.9 28.7-1.2-1.6c-0.1-0.2-13.5-18-41.2-18-31.9 0-55.9 24.4-55.9 56.9 0 32.6 24 57.2 55.9 57.2 29.3 0 43.7-20.7 43.9-20.9zm182.5 81.2c-65.4 0-118.3-51.7-118.3-115.7 0-64.1 52.9-115.8 118.3-115.8 65.3 0 118.2 51.7 118.2 115.8 0 64-52.9 115.7-118.2 115.7zm69.3-115.6c0-39-30.9-70.6-69.2-70.6-38.2 0-69.2 31.6-69.2 70.6 0 39.1 31 70.6 69.2 70.6 38.3 0 69.2-31.5 69.2-70.6z"/>
	<path id="Layer" class="s0" d="m1512.8 84v461l-138.6 83.1-11.1-2.3q-58.9-12.5-118.3-22.5-59.4-10.1-119.1-17.7-59.8-7.7-119.8-12.8-60-5.2-120.2-7.9c1.1-6.9 1.7-13.9 1.7-21.1 0-6.2-0.4-12.2-1.3-18.2q60.7 2.7 121.1 7.9 60.5 5.1 120.7 12.8 60.2 7.6 120.1 17.7 59.8 10 119.2 22.5l106.3-63.7v-416.6l-106.3-63.8-6.3 1.3c-403.3 83.9-812.1 83.5-1215.1-1.2l-106.3 63.7v416.6l106.3 63.7 2.8-0.6q59.1-12.3 118.6-22.3 59.5-10 119.3-17.5 59.9-7.6 120-12.7 60.1-5.1 120.3-7.8c-0.8 6-1.2 12-1.2 18.2q0 2.6 0.1 5.3 0.1 2.6 0.3 5.3 0.2 2.6 0.5 5.3 0.4 2.6 0.8 5.2-59.3 2.7-118.5 7.7-59.1 5.1-118 12.5-58.9 7.5-117.5 17.3-58.5 9.8-116.6 22l-17.9 3.7-138.6-83v-461.1l138.6-83.1 7.6 1.6c400.1 85.1 806.1 86.1 1206.5 2.8l21.3-4.4z"/>
	<path id="Layer" class="s1" d="m753 624.9q0.9-18.9 1.7-37.9c0.2-4.7-1.2-5.8-5.9-5.1-11.4 1.6-22.8 3.2-34.7 4.9 0.8-2.9 1.4-5.5 2.4-7.8 1.6-4.2 0.6-7.1-2.9-9.9-11.6-9.1-22.9-18.4-34.3-27.7-0.4-0.3-0.8-0.6-1.5-1.3 2.5-1.2 4.8-2.4 7.1-3.4 2.6-1.1 3.2-2.9 2.5-5.5-2.2-7.6-4.2-15.3-6.5-23.5 5.9 1.2 11.4 2.2 16.9 3.4 8.2 1.6 8.2 1.6 10.4-6.2l1.3-4.7c4.5 4.9 8.6 9.4 12.7 13.9 1.3 1.5 2.4 3.3 4 4.5 1.6 1.2 3.6 1.7 5.4 2.5 0.5-1.9 1.7-4 1.5-5.8-1-6.8-2.5-13.7-3.8-20.5-1.1-6-2.3-12.1-3.6-18.8 3.6 1.8 6.7 3.4 9.9 4.9 4.2 2 5.7 1.6 7.9-2.5 2.2-3.9 4.2-7.8 6.3-11.7l6.6-12.3c3 5.5 5.7 10.5 8.4 15.5 1.7 3.1 3.3 6.2 5 9.3 1.6 2.8 3.8 3.6 6.7 2.1l10.7-5.3c-1.4 7.6-2.7 14.8-4.1 22-1.1 5.9-2.5 11.7-3.3 17.5-0.2 1.8 1.1 3.8 1.7 5.7 1.7-0.8 3.9-1.2 5.1-2.5 5.5-5.8 10.8-12 16.7-18.5 0.8 2.7 1.5 4.8 2.1 7.1 1.4 4.8 2.3 5.4 7.3 4.4 5.4-1.1 10.7-2.3 16-3.4 0.9-0.2 1.9-0.3 3.2-0.4-2 7.7-3.9 15.1-6.1 22.4-1.1 3.5-0.4 5.5 3.1 6.8 2 0.6 3.9 1.8 6.3 3-6.1 5-12 9.8-17.9 14.6-6 4.9-11.9 9.9-18.1 14.6-3.4 2.6-4.4 5.5-2.8 9.5 1 2.4 1.6 5 2.5 8l-28.2-4c-2.1-0.3-4.2-0.5-6.4-0.9-4.7-0.7-6.1 0.3-6 5.1 0.2 12.6 0.6 25.3 0.8 38z"/>
</svg>