<svg version="1.2" xmlns="http://www.w3.org/2000/svg" viewBox="0 0 1574 418" width="1574" height="418">
	<title>logo (51)-svg</title>
	<defs>
		<clipPath clipPathUnits="userSpaceOnUse" id="cp1">
			<path d="m0 0h1573v417.09h-1573z"/>
		</clipPath>
	</defs>
	<style>
		.s0 { fill: #333333 } 
	</style>
	<g id="Layer">
		<g id="Layer">
			<path id="SVGID_1_" fill-rule="evenodd" class="s0" d="m209.1 418c-115.6 0-209.1-93.4-209.1-209 0-115.6 93.5-209 209.1-209 115.7 0 209.2 93.4 209.2 209 0 115.6-93.5 209-209.2 209zm175.5-160.8c2.7-8.2 6.4-25.5 6.4-48.2 0-58.2-28.2-112.7-75.5-147.2 0 0-30.9-23.6-57.3-23.6-14.5 0-25.4 10-25.4 23.6 0 21.8 22.7 33.6 52.7 53.6 8.2 5.5 19.1 12.7 22.7 15.5 61 39.9 76.4 99.9 76.4 126.3zm-239.1 100.8c55.4 0 101.8-44.5 101.8-101.7 0-31.9-16.4-59.1-30-80-5.4-7.3-9.1-13.6-13.6-20-17.3-24.5-38.2-50.9-38.2-80.9 0-32.7 20.9-46.3 22.7-47.2-84.5 10-160.9 80.8-160.9 180.8 0 39.1 11.8 75.4 33.6 106.3 11.8 16.4 35.5 43.6 84.6 42.7zm49.1 30.9c48.2 0 87.3-31.8 87.3-79.9 0-13.7-3.7-29.1-8.2-37.3-6.4 54.5-49.1 104.5-110.9 113.6 3.6 0.9 16.3 3.6 31.8 3.6z"/>
		</g>
	</g>
	<g id="Layer">
		<g id="Layer">
			<g id="Layer">
				<g id="Clip-Path" clip-path="url(#cp1)">
					<path id="Layer" fill-rule="evenodd" class="s0" d="m1124.7 299c0 10.9-6.3 20-20 20-13.6 0-20-9.1-20-20v-67.3c0-18.2-9.1-33.6-30-33.6-15.4 0-26.3 9.1-34.5 15.4v85.5c0 10.9-6.4 20-20 20-13.7 0-20-9.1-20-20v-129.1h34.5l2.7 17.3c6.4-5.5 24.6-21.8 52.8-21.8 25.4 0 55.4 14.5 55.4 52.7v80.9zm-381.8-21.8c0 8.1 6.3 13.6 13.6 13.6 12.7 0 16.4-10 25.5-10 8.1 0 12.7 6.3 12.7 12.7 0 13.6-16.4 25.5-45.5 25.5-32.7 0-47.3-19.1-47.3-43.7v-77.2h-26.3v-29.1h26.3v-32.7l41-10.9v44.5h53.6l-10 29.1h-43.6c0 0 0 78.2 0 78.2zm464.6 0c0 8.1 6.4 13.6 13.6 13.6 12.8 0 16.4-10 26.4-10 8.2 0 12.7 6.3 12.7 12.7 0 13.6-16.3 25.5-45.4 25.5-32.8 0-47.3-19.1-47.3-43.7v-77.2h-26.4v-29.1h26.4v-32.7l40.9-10.9v44.5h53.6l-10 29.1h-43.6zm-691 6.4c0-9.1 7.2-15.5 15.4-15.5 13.7 0 23.7 19.1 58.2 19.1 20.9 0 36.4-9.1 36.4-24.5 0-13.7-10.9-21.8-28.2-30-5.5-2.7-15.5-7.3-21.8-10-23.7-10.9-47.3-26.4-47.3-57.3 0-30 26.4-55.4 72.7-55.4 33.7 0 53.7 9.1 58.2 11.8l-10 30c-5.4-2.7-25.4-10-46.3-10-15.5 0-31 7.3-31 22.7 0 14.6 12.8 20.9 29.1 29.1 5.5 2.7 10 4.5 15.5 7.3 25.5 11.8 52.7 25.4 52.7 59 0 36.4-34.5 59.1-80 59.1-41.8 0-73.6-17.3-73.6-35.4zm1001.1 35.4c-52.8 0-83.7-34.5-83.7-76.3 0-43.6 31.8-76.4 83.7-76.4 30 0 46.3 10.9 49.1 12.8l-9.1 26.3c-2.8-1.8-16.4-10.9-36.4-10.9-30 0-45.5 21.8-45.5 48.2 0 26.3 16.4 48.1 43.7 48.1 20.9 0 29.1-13.6 40-13.6 8.2 0 13.6 6.4 13.6 13.6 0 14.6-25.4 28.2-55.4 28.2zm-117.3-27.3c0 13.7-23.7 27.3-54.6 27.3-54.5 0-78.2-37.3-78.2-76.3 0-43.6 26.4-76.4 72.8-76.4 45.4 0 71.8 33.7 71.8 81.8v9.1h-103.7c1.8 18.2 17.3 34.5 38.2 34.5 20 0 28.2-13.6 39.1-13.6 10 0 14.6 6.4 14.6 13.6zm-92.8-60.8h62.8c0-16.4-6.4-36.4-31-36.4-22.7 0-31.8 18.2-31.8 36.4zm-361.9 77.2c0 8.2-5.4 11.8-14.5 11.8-19.1 0-23.7-15.4-24.6-18.2-4.5 4.6-18.1 18.2-44.5 18.2-30.9 0-53.7-18.2-53.7-46.3 0-34.6 31.9-46.4 69.1-48.2l25.5-0.9v-1.8c0-13.6-11.8-27.3-37.3-27.3-18.2 0-37.3 9.1-40 10l-11.8-24.5c4.5-2.7 27.3-14.6 60-14.6 47.3 0 69.1 23.7 69.1 59.1v48.2c0 19.1 2.7 24.5 2.7 34.5zm-43.6-60l-19.1 0.9c-22.7 0.9-33.6 7.3-33.6 20.9 0 11.8 9 20.9 23.6 20.9 15.5 0 26.4-9.1 29.1-10.9z"/>
				</g>
			</g>
		</g>
	</g>
</svg>