<svg version="1.2" xmlns="http://www.w3.org/2000/svg" viewBox="0 0 1441 1581" width="1441" height="1581">
	<title>satsumarx-svg</title>
	<style>
		.s0 { fill: #ffffff } 
	</style>
	<g id="#006f45ff">
		<path id="Layer" class="s0" d="m127.3 22.9c60.6-16.8 123.7-23.3 186.5-22.8 67.4 0.9 133.5 19.3 195 46.2 64.7 29 125.1 67.8 177.4 115.8 39.5 37.5 77.9 80.3 92.8 134-88.4 36.1-183.5 53.6-278.5 59.3-52.9 1.6-106.5 3-158.5-8.6-107.1-23.6-205.7-81.8-280.3-161.8-26.8-30.2-52.2-64.1-61.5-104.2 37.9-27.7 82.2-45.2 127.1-57.9z"/>
	</g>
	<g id="#f36f20ff">
		<path id="Layer" fill-rule="evenodd" class="s0" d="m675.2 357.4c124.8-10.2 252.2 9.2 367.7 57.6 107.2 45.1 204.4 115.8 276 207.8 62.2 79.4 104.1 175.2 116.7 275.5 11.5 90.4 0.3 183.6-33.3 268.3-42.6 109.5-120.2 203.7-215 272.4-115.5 84.2-256.1 131.5-398.4 139.9-192.7 12.5-392-46.9-539.5-173.4-93.7-79.7-165.1-187.6-194.4-307.7-27.8-111-18.8-230.6 24.8-336.4 42.2-104.2 116.2-194 206.2-260.8 112.5-83.7 249.7-132.4 389.2-143.2zm211.3 114.2c-89.2 9.8-178.5 45.4-240.7 111.8-44.3 46.9-73.3 108.6-79.7 173.1-7.4 61.7 3.3 127.1 38.7 179.1 36.3 55.5 94.9 89.7 150.3 123.3 35.1 20.6 72.3 39.1 101.8 67.8 16.2 16.4 30.8 36.1 34.4 59.4 5.1 32.9-2.8 67.7-21 95.6-19.4 29.8-50.8 49.8-84.1 60.9-37.8 12.9-78.4 12.4-117.8 9.8-61.6-6.3-117.9-35.8-169.2-68.9-9.7-6.4-21.6-10.1-33.3-7.6-12.8 6.7-18.4 21.2-23.8 33.7-10.2 29.2-15.8 59.8-19.1 90.5-1.5 16.9 1.2 36.7 15.1 48.1 25.9 22.2 57.9 35.4 89.7 46.7 37 12.3 75.4 20.5 114.3 24.6 78.6 5.5 159.4 0.5 233.9-27.2 76.4-27.3 146.7-76.9 189.8-146.5 41.4-64.9 56.6-145.2 44.6-220.9-8.7-52-36.2-99.9-74.8-135.5-35.9-33.4-78.8-58.2-120.6-83.3-35.7-20.9-73.1-40.5-102.6-70.1-17.5-17.5-31-40.2-32.1-65.5-1.3-35.8 12.1-72.6 38.5-97.4 30.2-28.9 73.3-41.2 114.5-40 63-2.9 123 23.1 176.4 54.3 9 5.3 19.8 8.5 30.3 6.2 8.9-5.2 13.7-14.8 18-23.8 11.2-26 15.6-54.3 19.3-82.3 1.6-17.8 4.4-38.5-8.1-53.2-12.7-14.7-30.9-23.3-48-31.7-73.6-31.7-155.6-38.7-234.7-31z"/>
	</g>
</svg>