<svg version="1.2" xmlns="http://www.w3.org/2000/svg" viewBox="0 0 1554 193" width="1554" height="193">
	<title>2021-Annual-Report-1-pdf-svg</title>
	<defs>
		<clipPath clipPathUnits="userSpaceOnUse" id="cp1">
			<path d="m-3307.13-313.6h5183.17v7334.76h-5183.17z"/>
		</clipPath>
	</defs>
	<style>
		.s0 { fill: #e42313 } 
		.s1 { fill: #ffffff } 
	</style>
	<g id="Clip-Path: Page 1" clip-path="url(#cp1)">
		<g id="Page 1">
			<path id="Path 9" class="s0" d="m1386.4 0.9h148.5c17.4 0 23.9 13.5 13.4 27.4l-118.8 157.7c-13.9 17.8-40.9-2.6-26.9-20.5l98.3-130.7h-114.5c-22.6 0-22.6-33.9 0-33.9z"/>
			<path id="Path 10" fill-rule="evenodd" class="s1" d="m403.8 57.9v87.6c0 16.5-17.9 46.1-79.2 46.1-7.4 0-40.9 0-43.1 0-61.4 0-79.2-29.6-79.2-46.1v-87.6c0 0 0-10.4 10.4-10.4h11.3c10.5 0 10.5 10.4 10.5 10.4v81.9c0 20.5 22.6 25.3 52.6 24.8h31.8c30 0 53.1-5.6 53.1-24.8v-81.9c0 0 0-10.4 10.5-10.4h10.8c10.5 0 10.5 10.4 10.5 10.4zm224.5 87.6c0 34.8-23.5 45.7-74.4 45.7h-49.2c-17.8 0-35.6-0.4-50.4-7-19.2-8.2-27.5-22.6-27.5-37.9v-134.1c0 0 0-10.5 10.5-10.5h10.9c10.4 0 10.4 10.5 10.4 10.5v35.7h100.5c60.5 0 69.2 15.7 69.2 44.9zm-31.3-0.9v-51c-0.4-18.3-10.9-19.1-43.5-19.1h-94.9v71.8c0.4 10.1 5.7 14.4 19.6 17 10 1.3 20.5 0.9 30 0.9h45.3q21.3 0 27.4-0.9 16.1-4.3 16.1-18.7zm682 3.5c0 34.8-21.8 43.5-64.9 43.5h-77.9c-15.2 0-30-0.4-43.1-6.9-16.5-7.9-24.3-20.9-24.3-34.9v-18.3q0-22.6 23.5-33.9c11.7-5.7 26.1-6.6 43-6.6h111.9c-1.3-10 1.3-16.5-25.7-16.5-3 0-111.4 0-112.3 0q-11.7 0-11.7-12.2v-3.1c0-7.4 3.9-11.7 11.7-11.7h134.9c27.9 1.3 34.9 24.4 34.9 44.4zm-144.5-30.9c-6.6 0-34-1.3-34 13.9v15.3c0 18.3 25.3 18.3 32.2 18.3h81.8c14 0 32.7 2.6 32.7-21.4v-26.1zm-86.6 4.8q0.4 13-8.3 13h-159.3c-0.4 22.7 5.7 29.7 44 29.7h14.3c4 0 75.3 0.4 76.6 0q11.8 0 11.8 14.8 0 12.2-11.8 12.2c-20.4 0-103.1 0.8-110.1 0-17.4-1.4-30.4-7-38.7-13.5-11.7-9.2-17.4-19.6-17.8-32.3v-53.1c0.4-16.6 6.5-28.8 24.8-36.6 13.5-6.1 35.2-8.7 54.4-8.7h53.5c15.7 0 35.2 2.2 47 7.8 15.2 7 20 17.9 19.6 31.8zm-30.5-14.4v-17.8c0-10.9-8.7-16.1-45.2-16.1-5.3 0-38.8 0-37.9 0-38.7 0-54 3.5-54 17.4v16.5zm-834.2 42.7q0.4 41.4-62.7 41.4h-107.5c-7.8 0-11.7-5.2-11.7-13.5 0-9.6 3.9-13.5 11.7-13.5h107.5c22.2 0 30-4.3 30-14.4v-5.2c0-8.7-4.3-13.1-27.4-13.1h-51.3c-51 0-71-5.2-71-40v-7.4c0-17.9 17-37.1 47.5-37.1h114.4q11.8 0 11.8 13.1c0 9.6-3.5 13.5-11.8 13.5-11.6 0-111.8 0-114.4 0-13.1 0-15.7 5.2-15.7 10.5v7.4c0 8.2 2.6 13 16.1 12.6 3.9 0 11.7 0 23.1 0h52.6q58.8 0 58.8 39.2zm647.1 0q0 41.4-62.7 41.4h-107.5c-7.8 0-11.7-5.2-11.7-13.5 0-9.6 3.9-13.1 11.7-13.1h107.5c22.2 0 29.6-4.8 29.6-14.8v-5.2c0-8.7-4.3-13.1-27-13.1h-51.3c-50.9 0-71.4-5.2-71.4-40.1v-7.4c0-17.8 17.4-37 47.5-37h114.8c7.9 0 11.4 4.4 11.4 13.1 0.4 9.6-3.1 13.9-11.4 13.5h-93.1q-17.8 0-21.7 0.4c-13.1 0-15.7 4.8-15.7 10v7.4c0 8.3 3 13.1 16.5 13.1 3.9-0.4 11.8 0 23.1 0h52.6q58.8-0.4 58.8 38.8z"/>
		</g>
	</g>
</svg>