<svg version="1.2" xmlns="http://www.w3.org/2000/svg" viewBox="0 0 1469 1561" width="1469" height="1561">
	<title>SUN</title>
	<style>
		.s0 { fill: #ffffff } 
	</style>
	<path id="Layer" fill-rule="evenodd" class="s0" d="m1401.4 0.6v384c0 0-777.3 0-831.7 0-42.5 0-64 26.9-64 56.8 0 19.1 0 17.9 0 40.1 0 22.1 11.9 56.8 64 56.8 38.2 0 250.5 0 447.8 0 226.7 0 450.9 155.5 450.9 387.5 0 70 0 113.1 0 223.7 0 163.9-156.1 410.9-430.5 410.9-379.7 0-1013.6 0-1013.6 0v-407.3c0 0 781 0 834.8 0 43 0 64-26.9 64-56.8 0-18.6 0-34.7 0-56.8 0-22.2-11.4-56.8-64-56.8-37.7 0-279.9 0-477.8 0-227.8 0-380.3-192-380.3-360.7 0-66.4 0-87.9 0-220.7 0-157.3 116-400.7 458-400.7 67 0 942.4 0 942.4 0z"/>
</svg>