<svg version="1.2" baseProfile="tiny-ps" xmlns="http://www.w3.org/2000/svg" viewBox="0 0 1530 414" width="1530" height="414">
	<title>client-logo-svg</title>
	<style>
		tspan { white-space:pre }
		.shp0 { fill: #80bd00 } 
		.shp1 { fill: #55565a } 
	</style>
	<g id="#80bd00ff">
		<path id="Layer" fill-rule="evenodd" class="shp0" d="M70.64 52.07C103.06 23.44 144.69 5.24 187.79 1.48C239.4 -3.72 292.66 11.83 333.54 43.72C373.32 74.31 401.26 120.02 410.01 169.47C418.87 217.2 410.47 268.1 385.85 309.99C371.59 335.04 351.67 356.56 328.66 373.8C332.93 346.82 329.93 317.41 313.91 294.56C295.64 268.56 266.71 253.34 238.97 239.5C238.82 252.53 238.88 265.59 238.85 278.62C260.3 289.71 283.17 304.3 290.99 328.54C299.71 355.03 293.47 390.1 267.32 404.28C186.31 430.83 91.05 399.08 41.31 329.95C11.06 289.36 -3.32 237.33 1.85 186.98C6.5 135.44 31.75 86.16 70.64 52.07ZM125.06 92.28C99.39 120.02 95.84 164.5 113.88 197.18C128.61 222.98 155.57 238 181.15 251.17C181.18 237.97 181.15 224.77 181.12 211.56C172.02 206.13 162.73 200.73 154.96 193.39C136.05 176.06 133.02 145.58 144.51 123.34C151.67 108.72 166.34 100.08 181.15 94.85C181.15 84.05 181.18 73.24 181.03 62.44C160.07 66.86 139.49 75.99 125.06 92.28ZM238.94 64.69C238.85 75.67 238.85 86.68 238.91 97.66C256.52 104.7 270.69 117.99 280.57 134.03C289.6 128.16 298.67 122.38 307.76 116.61C292.46 91.24 267.81 71.89 238.94 64.69Z" />
	</g>
	<g id="#55565aff">
		<path id="Layer" class="shp1" d="M528.74 97.77C545.83 86.71 570.78 91.85 581.2 109.73C575.4 113.52 569.54 117.24 563.7 120.97C559.03 116.52 553.48 109.85 546.21 112.33C538.36 113.2 536.19 125.1 543.03 128.74C553.66 135.99 567.11 138.36 576.81 147.17C591.45 159.62 590.06 186.89 572.62 196.25C551.2 207.49 521.53 200.9 509.26 179.24C515.26 175.54 521.33 171.96 527.42 168.38C532.76 173.63 538.01 180.22 545.95 181.29C552.07 182.27 560.12 181.03 563.1 174.79C566.19 170.22 562.66 164.74 558.59 162.31C546.7 154.83 531.4 152.14 522.34 140.58C512.93 127.79 514.74 106.64 528.74 97.77Z" />
		<path id="Layer" class="shp1" d="M984.94 103.49C1000.59 91.44 1022.65 88.96 1040.95 95.89C1050.13 99.24 1056.57 106.9 1062.89 113.98C1057.11 118.11 1051.31 122.18 1045.54 126.28C1037.11 115.74 1022.96 109.1 1009.63 114.06C985.46 121.26 980.44 156.82 998.25 173.03C1006.34 181.2 1019.07 182.85 1029.75 179.76C1037.05 177.39 1041.9 171.06 1047.1 165.8C1052.96 169.88 1058.82 173.98 1064.65 178.11C1058.53 185.25 1052.21 192.73 1043.43 196.6C1020.83 206.65 991.18 201.31 975.88 181.12C957.69 158.41 961.42 121.08 984.94 103.49Z" />
		<path id="Layer" class="shp1" d="M609.11 93.61C632.7 93.61 656.28 93.61 679.87 93.61C679.84 100.11 679.84 106.61 679.84 113.11C663.73 113.14 647.62 113.11 631.49 113.11C631.49 121.06 631.49 129 631.49 136.94C645.69 136.94 659.86 136.94 674.07 136.94C674.07 143.44 674.07 149.94 674.09 156.44C659.89 156.44 645.69 156.44 631.49 156.44C631.49 164.39 631.49 172.33 631.49 180.28C648.32 180.28 665.17 180.28 682 180.28C682 186.78 682 193.28 682 199.78C657.7 199.81 633.42 199.75 609.11 199.81C609.11 164.39 609.11 129 609.11 93.61Z" />
		<path id="Layer" fill-rule="evenodd" class="shp1" d="M707.96 93.61C727.1 94.65 746.81 91.07 765.52 96.15C784.89 101.64 792.11 125.74 784.66 143.04C781.69 151.19 774.06 155.98 767.31 160.72C775.16 173.75 783.13 186.75 790.95 199.81C782.23 199.78 773.52 199.78 764.8 199.78C757.81 187.73 750.77 175.71 743.75 163.7C739.28 163.7 734.8 163.67 730.36 163.64C730.36 175.68 730.36 187.76 730.36 199.81C722.88 199.78 715.43 199.78 707.99 199.78C707.96 164.39 707.99 129 707.96 93.61ZM730.39 113C730.33 123.42 730.33 133.82 730.36 144.25C738.87 143.99 747.65 145.06 755.96 142.75C767.14 138.27 767.08 119.18 755.85 114.79C747.59 112.3 738.87 113.28 730.39 113Z" />
		<path id="Layer" class="shp1" d="M799.41 93.61C807.52 93.61 815.61 93.61 823.72 93.58C832.81 114.47 843.49 134.81 849.76 156.79C856.16 134.95 866.44 114.53 875.28 93.64C882.67 93.61 890.03 93.61 897.42 93.64C881.25 130.1 866.44 167.22 849.18 203.19C832.15 166.87 816.04 130.13 799.41 93.61Z" />
		<path id="Layer" class="shp1" d="M917.28 93.61C924.99 93.61 932.66 93.61 940.37 93.61C940.37 129 940.37 164.42 940.37 199.81C932.66 199.81 924.99 199.78 917.28 199.78C917.28 164.39 917.28 129 917.28 93.61Z" />
		<path id="Layer" class="shp1" d="M1085.43 93.61C1109.02 93.61 1132.6 93.61 1156.16 93.61C1156.16 100.11 1156.16 106.61 1156.16 113.11C1140.28 113.11 1124.41 113.14 1108.53 113.11C1108.53 121.06 1108.53 129 1108.53 136.94C1122.47 136.94 1136.44 136.94 1150.39 136.94C1150.39 143.44 1150.39 149.94 1150.39 156.44C1136.44 156.44 1122.47 156.47 1108.53 156.44C1108.53 164.39 1108.53 172.33 1108.53 180.28C1125.13 180.28 1141.73 180.28 1158.33 180.28C1158.33 186.78 1158.33 193.28 1158.33 199.78C1134.02 199.81 1109.74 199.78 1085.43 199.78C1085.43 164.39 1085.43 129 1085.43 93.61Z" />
		<path id="Layer" fill-rule="evenodd" class="shp1" d="M512.41 250.36C524.62 250.82 537.23 248.77 549.21 252.01C566.19 257.38 568.73 283.76 554.41 293.44C546.5 298.61 536.6 297.8 527.56 298.35C527.56 305.92 527.56 313.54 527.56 321.14C522.48 321.11 517.43 321.11 512.41 321.11C512.41 297.51 512.38 273.94 512.41 250.36ZM527.62 262.76C527.56 270.06 527.56 277.4 527.62 284.74C532.53 284.39 537.49 284.39 542.37 283.47C548.63 280.7 549.24 272.32 546.12 267C541.19 262.47 533.71 263.85 527.62 262.76Z" />
		<path id="Layer" fill-rule="evenodd" class="shp1" d="M580.25 250.36C595.4 251.69 613.13 246.14 626.17 256.17C638.01 267.38 633.71 287.4 620.2 295.28C625.42 303.84 630.56 312.44 635.67 321.08C629.81 321.11 623.95 321.14 618.12 321.17C613.36 312.94 608.56 304.73 603.86 296.53C601.72 296.53 597.51 296.58 595.37 296.58C595.4 304.76 595.4 312.94 595.4 321.11C590.35 321.11 585.3 321.11 580.25 321.11C580.25 297.54 580.25 273.94 580.25 250.36ZM595.46 262.93C595.4 269.92 595.4 276.91 595.46 283.9C603.37 283.44 618.35 285.64 617.17 273.33C617.95 261.54 603.14 263.65 595.46 262.93Z" />
		<path id="Layer" fill-rule="evenodd" class="shp1" d="M670.86 251.72C691.33 242.85 718.26 256.23 720.98 279.02C725.57 299.76 708.53 321.37 687.32 321.8C666.7 323.94 647.13 305.86 648.11 285.03C648.29 270.73 657.15 256.54 670.86 251.72ZM679.72 263.45C659.86 267.93 658.51 299.59 677.18 306.7C691.18 313.11 707.32 299.79 705.91 285C706.66 271.57 692.95 259.32 679.72 263.45Z" />
		<path id="Layer" fill-rule="evenodd" class="shp1" d="M739.02 250.36C751.81 251 765.2 248.34 777.53 252.53C791.62 257.73 794.13 277.4 786.3 288.67C778.89 298.69 765.26 297.97 754.15 298.32C754.17 305.92 754.17 313.51 754.17 321.11C749.12 321.11 744.07 321.11 739.02 321.14C739.02 297.54 739.02 273.94 739.02 250.36ZM754.26 262.84C754.17 270.12 754.17 277.4 754.26 284.68C762.29 284.45 776.35 285.55 775.16 273.47C774.93 262.29 762.08 263.42 754.26 262.84Z" />
		<path id="Layer" class="shp1" d="M807.58 250.33C823.23 250.33 838.84 250.33 854.49 250.33C854.46 254.67 854.49 259 854.49 263.36C843.9 263.33 833.33 263.33 822.74 263.33C822.74 268.39 822.74 273.44 822.74 278.5C832.12 278.5 841.5 278.5 850.88 278.5C850.88 283.09 850.88 287.66 850.88 292.25C841.5 292.22 832.12 292.22 822.76 292.22C822.74 297.28 822.74 302.33 822.74 307.42C833.82 307.39 844.88 307.39 855.96 307.39C855.93 311.98 855.93 316.55 855.93 321.14C839.8 321.11 823.69 321.11 807.58 321.11C807.58 297.54 807.58 273.94 807.58 250.33Z" />
		<path id="Layer" fill-rule="evenodd" class="shp1" d="M874.7 250.36C890.32 251.84 909.54 245.51 922.1 257.73C932.2 269.46 927.38 287.63 914.68 295.31C919.91 303.86 925.04 312.44 930.12 321.11C924.26 321.11 918.4 321.14 912.57 321.17C907.81 312.94 903.05 304.73 898.2 296.56C896.12 296.56 891.93 296.56 889.85 296.56C889.85 304.73 889.82 312.94 889.85 321.11C884.77 321.11 879.75 321.11 874.7 321.11C874.7 297.54 874.7 273.94 874.7 250.36ZM889.91 262.9C889.85 269.89 889.85 276.88 889.88 283.87C897.88 283.5 912.66 285.61 911.62 273.36C912.43 261.57 897.59 263.62 889.91 262.9Z" />
		<path id="Layer" class="shp1" d="M940.37 250.33C958.65 250.33 976.95 250.33 995.22 250.33C995.19 254.67 995.19 259 995.22 263.33C988.47 263.33 981.74 263.33 975.01 263.33C975.01 282.6 975.01 301.87 975.01 321.14C969.93 321.11 964.88 321.11 959.86 321.11C959.83 301.84 959.86 282.6 959.83 263.33C953.33 263.33 946.87 263.33 940.4 263.36C940.37 259 940.34 254.67 940.37 250.33Z" />
		<path id="Layer" class="shp1" d="M1011.82 250.33C1016.87 250.33 1021.92 250.33 1026.98 250.33C1026.98 273.94 1027.01 297.54 1026.98 321.11C1021.9 321.11 1016.84 321.11 1011.82 321.11C1011.79 297.51 1011.79 273.94 1011.82 250.33Z" />
		<path id="Layer" class="shp1" d="M1047.18 250.33C1062.83 250.33 1078.48 250.33 1094.09 250.33C1094.07 254.67 1094.07 259 1094.09 263.36C1083.5 263.33 1072.91 263.33 1062.34 263.33C1062.34 268.39 1062.34 273.44 1062.34 278.5C1071.72 278.5 1081.1 278.5 1090.51 278.5C1090.49 283.06 1090.46 287.66 1090.49 292.22C1081.07 292.22 1071.72 292.22 1062.34 292.22C1062.31 297.28 1062.34 302.33 1062.34 307.39C1073.42 307.39 1084.48 307.39 1095.54 307.39C1095.54 311.95 1095.54 316.55 1095.54 321.11C1079.43 321.14 1063.32 321.14 1047.18 321.11C1047.18 297.51 1047.18 273.94 1047.18 250.33Z" />
		<path id="Layer" class="shp1" d="M1122.01 252.38C1133.61 245.94 1148.57 249.76 1156.36 260.33C1152.64 263.04 1148.91 265.7 1145.22 268.36C1140.05 263.91 1131.28 258.91 1127.21 267.67C1130.73 277.26 1142.97 277.81 1150.27 283.64C1163.52 290.98 1162.77 313.69 1148.39 319.29C1133.85 325.85 1116.55 320.1 1107.58 307.24C1111.73 304.67 1115.92 302.16 1120.1 299.65C1124.46 303.03 1128.39 308.52 1134.54 308.23C1139.36 308.54 1142.82 304.3 1146.81 302.3C1140.02 293.55 1128.82 291.12 1120.28 284.8C1109.89 277.17 1110.49 258.65 1122.01 252.38Z" />
		<path id="Layer" class="shp1" d="M1200.91 250.33C1219.41 250.33 1237.94 250.33 1256.48 250.33C1256.45 254.67 1256.45 259 1256.48 263.33C1249.72 263.33 1243 263.33 1236.27 263.33C1236.27 282.6 1236.27 301.84 1236.27 321.11C1231.22 321.11 1226.14 321.14 1221.11 321.14C1221.11 301.87 1221.11 282.6 1221.11 263.33C1214.36 263.33 1207.63 263.33 1200.91 263.36C1200.91 259 1200.88 254.67 1200.91 250.33Z" />
		<path id="Layer" fill-rule="evenodd" class="shp1" d="M1272.35 250.36C1287.65 251.69 1305.73 246.03 1318.74 256.57C1329.97 267.9 1325.73 287.72 1312.19 295.31C1317.53 303.81 1322.64 312.42 1327.78 321.02C1321.92 321.08 1316.15 321.11 1310.34 321.14C1305.52 312.94 1300.7 304.76 1295.97 296.56C1293.86 296.56 1289.62 296.56 1287.51 296.56C1287.51 304.73 1287.48 312.94 1287.51 321.11C1282.43 321.11 1277.38 321.11 1272.35 321.11C1272.35 297.54 1272.32 273.94 1272.35 250.36ZM1287.6 262.93C1287.51 269.92 1287.51 276.88 1287.6 283.87C1295.53 283.32 1310.43 285.78 1309.33 273.44C1310.32 261.57 1295.39 263.62 1287.6 262.93Z" />
		<path id="Layer" class="shp1" d="M1342.36 250.33C1347.15 250.33 1351.97 250.33 1356.79 250.33C1357.23 266.6 1355.7 282.98 1357.72 299.16C1359.48 311.4 1381.88 311.64 1383.61 299.18C1385.08 282.98 1383.81 266.63 1384.19 250.33C1389.24 250.33 1394.29 250.33 1399.37 250.33C1399 267.12 1400.18 283.96 1398.85 300.72C1395.85 328.51 1347.61 329.34 1342.82 302.33C1341.61 285.06 1342.7 267.67 1342.36 250.33Z" />
		<path id="Layer" class="shp1" d="M1417.85 276.07C1412.59 263.22 1423.51 248.17 1437.36 249.47C1446.74 247.94 1454.25 254.06 1460.28 260.39C1456.56 263.04 1452.78 265.62 1449 268.16C1444 262.35 1430.95 259.32 1431.47 270.64C1439.41 277.95 1451.05 279.54 1458.58 287.4C1467.44 296.82 1464.27 315.02 1451.65 319.52C1437.22 325.68 1420.42 319.98 1411.47 307.42C1415.51 304.82 1419.55 302.22 1423.62 299.65C1428.56 303.49 1433.41 309.47 1440.42 308.17C1444.9 308.46 1447.78 304.24 1448.91 300.43C1440.68 289.71 1422.24 290.34 1417.85 276.07Z" />
		<path id="Layer" class="shp1" d="M1473.71 250.33C1492.24 250.33 1510.77 250.33 1529.31 250.33C1529.25 254.67 1529.25 259 1529.28 263.33C1522.52 263.33 1515.8 263.33 1509.07 263.36C1509.07 282.6 1509.1 301.87 1509.07 321.11C1504.02 321.11 1498.94 321.11 1493.92 321.11C1493.89 301.87 1493.89 282.6 1493.92 263.36C1487.16 263.36 1480.4 263.33 1473.71 263.33C1473.68 259 1473.68 254.67 1473.71 250.33Z" />
	</g>
</svg>