<svg version="1.2" xmlns="http://www.w3.org/2000/svg" viewBox="0 0 1575 251" width="1575" height="251">
	<title>logo-trans-svg</title>
	<style>
		.s0 { fill: #031332 } 
		.s1 { fill: #e2002d } 
	</style>
	<g id="#031332ff">
		<path id="Layer" class="s0" d="m43.9 2.3c11.2-2.5 22.9-2.5 34.4-1.5 11.1 1.2 22.5 4 31.4 11 6.7 5.1 11.3 12.5 13.6 20.5 2.5 8.1 3 16.7 3.1 25.2q-24.7 0-49.3 0c-0.2-6 0.8-12.6-2.7-17.9-3.7-6-13.5-6.5-18.1-1.2-3.5 4.1-4.1 10-3 15.2 0.9 4.9 4 9.1 7.9 12.1 5.5 4.3 12 6.9 18.3 9.5 9.5 3.7 19.2 7.2 27.9 12.8 6.5 4.1 12.4 9.6 16.3 16.3 6.1 10.2 7.6 22.3 7 33.9-0.4 12.4-2.6 25.2-10 35.4-5.9 8.3-15 13.7-24.6 16.5-11 3.3-22.6 4.1-34.1 4.2-11.1-0.1-22.4-1-32.9-4.8-7.8-2.8-15-7.6-19.8-14.4-6-8.3-8.3-18.5-9-28.5-0.3-4-0.2-8-0.2-12q25.4 0 50.9 0c0.2 6.5-1 13.6 2.6 19.5 3.9 7 15.3 7.6 20 1.1 2.7-3.7 3.3-8.5 3.2-13-0.1-4-0.7-8.3-3.3-11.5-2.4-3-5.9-4.8-9.2-6.7-8.5-4.4-17.4-7.8-25.9-12.2-8.3-4.3-16.6-8.8-23.5-15.1-5.1-4.7-9-10.8-10.8-17.6-2.4-8.8-2.4-18.1-1.9-27.1 0.9-11.4 3.7-23 10.9-32 7.5-9.6 19.1-15.1 30.8-17.7z"/>
		<path id="Layer" fill-rule="evenodd" class="s0" d="m710 8c8.9-4.8 19.1-6.9 29.2-7.6 9.4-0.5 18.9-0.3 28.2 1.3 9.3 1.6 18.7 4.8 26.1 10.9 6.3 5.2 10.7 12.3 13.2 19.9 3.3 10 4.1 20.6 4.1 31q-24.7 0-49.3 0c-0.2-6.8 0.5-13.8-1.6-20.4-1-3.2-3.1-6.3-6.4-7.4-3.4-1.3-7.4-1.3-10.8 0-3.2 1.3-5.3 4.2-6.3 7.3-1.7 5.3-1.5 11-1.5 16.5q0 34.2 0 68.3c0 6.3-0.3 12.7 0.8 18.9 0.7 3.9 2 8 5.2 10.6 2.9 2.4 7 2.7 10.7 2.1 3.3-0.4 6.4-2.2 8.1-5 2.4-3.8 2.9-8.4 3.2-12.7 0.3-6.1 0.1-12.2 0.2-18.3q-7.5 0-15 0 0-17.3 0-34.6 32.1 0 64.3 0 0 50.9 0 101.8-18.3 0-36.5 0c-0.5-5.1-0.8-10.3-1.4-15.5-2.4 3.7-4.7 7.4-8 10.3-6.1 5.5-14.3 7.9-22.4 8.5-10.4 0.8-21.2 0.4-31.1-3.3-6.9-2.6-13.1-7.2-17.6-13.1-5.4-6.9-8.5-15.2-10.5-23.6-2.6-11.2-3.4-22.6-3.8-34-0.3-11.6-0.3-23.1-0.2-34.7 0.2-11.8 0.7-23.7 2.8-35.4 1.7-9.1 4.4-18.1 9.4-26 4.1-6.6 10-12.1 16.9-15.8zm-401.7-4.1c10.4-0.7 20.9-0.7 31.3 0.2 9.3 0.8 18.9 2.6 26.8 7.9 6.4 4.2 10.8 10.7 13.6 17.7 3.5 8.9 5 18.4 6 27.8 1.5 14.4 1.7 29 1.8 43.6-0.1 12.7-0.3 25.5-1.7 38.1-1 9.6-2.6 19.2-6.3 28.1-2.7 6.7-7 13-12.8 17.4-6.6 4.9-14.7 7.3-22.7 8.6-9.8 1.5-19.8 1.5-29.8 1.2-10.3-0.4-21-1.5-30.5-6-6.7-3.1-12.2-8.5-15.8-14.9-4.4-7.8-6.5-16.7-8-25.4-2-12.8-2.4-25.8-2.6-38.7 0-13.9 0.2-27.8 1.1-41.7 0.7-10.4 1.8-21 4.6-31.1 2.4-8.8 6.6-17.6 14-23.2 8.9-6.8 20.2-8.7 31-9.6zm10.4 31.5c-2.9 0.7-5.1 3.2-5.9 5.9-1.7 5.1-1.8 10.4-2 15.7-0.2 13.9 0.3 27.7 0.2 41.6 0.1 13.2-0.2 26.4 0 39.6 0.2 4.7 0.3 9.5 1.2 14.1 0.6 2.4 1.5 5 3.6 6.4 2.2 1.5 5 1.5 7.6 1.5 2.7-0.1 5.7-0.4 7.6-2.5 2.3-2.6 2.8-6.2 3.3-9.5 0.9-7.8 0.7-15.6 0.8-23.3q-0.2-21.1 0-42.2c0-11 0.5-22.1-0.3-33.2-0.5-4.1-0.9-8.7-3.9-11.9-3.2-3-8.2-3-12.2-2.2zm-186.9-31.6q61.8 0 123.6 0 0 22 0 44-17.8 0-35.6 0 0 71.4 0 142.8-26.2 0-52.4 0 0-71.4 0-142.8-17.8 0-35.6 0 0-22 0-44zm264.2 0q39.6 0 79.2 0c9.2 0.1 18.5 1.2 27 4.9 6.8 3 12.8 7.8 16.7 14.1 5.3 8.4 7.1 18.4 7.3 28.2 0.1 8.3-0.6 16.8-3.5 24.7-2.5 7.2-7.3 13.7-14.1 17.6-4.2 2.5-9.1 3.7-13.9 4.6 2.6 0.8 5.3 0.8 7.8 1.7 8.5 2.4 15.9 8.7 19 17 3.2 8.5 3.3 17.7 3.4 26.6 0.3 12.1-0.8 24.3 1.4 36.2 0.6 3.7 3.1 6.9 6.4 8.6q0 1 0 2.1c14.8-62.1 29.5-124.2 44.2-186.3q32.9 0 65.8 0 22 93.4 44 186.8-27 0-54 0-2.9-14.3-5.8-28.5-17.5 0-35 0-2.6 14.2-5.2 28.5-52.8 0-105.5 0c-1.4 0-2.8 0.2-4.2-0.1-1.4-2-1.9-4.6-2.4-6.9-1.3-7.2-1.4-14.4-1.4-21.6-0.1-7.8-0.6-15.5-0.7-23.3-0.1-5.6 0.2-11.7-2.8-16.8-1.9-3.2-5.7-4.5-9.2-4.7-4-0.2-8 0-12.1-0.1q0 36.8 0 73.5-26.2 0-52.4 0 0-93.4 0-186.8zm52.4 37.8q0 20.5 0 41c5.2-0.2 10.7 0.6 15.6-1.6 3.7-1.5 6.5-4.8 7.9-8.5 1.9-5.3 2.1-11 1.6-16.5-0.5-4.6-2.5-9.5-6.7-11.9-5.6-3.2-12.2-2.5-18.4-2.5zm160.3 7.9q-5.7 35.9-11.3 71.8 11.9 0 23.8 0-3.3-22.1-6.5-44.1c-1.7-11-3.1-22-5-32.9-0.6 1.7-0.7 3.5-1 5.2zm212.5 141.1q0-93.4 0-186.8 56.3 0 112.6 0 0 21.2 0 42.5-30.1 0-60.2 0 0 14.3 0 28.6 28.2 0 56.3 0 0 20.5 0 40.9-28.1 0-56.3 0 0 16.2 0 32.4 31.3 0 62.6 0 0 21.2 0 42.4-57.5 0-115 0zm-252.4 14q2.1-3.3 4.1-6.6 2.1 3.3 4.2 6.6 3 0 6.1 0-1 6-2.1 12 2.9-2.1 5.8-4.2 1.2 1.1 2.5 2.3 3.1 0 6.2 0-0.7 3.1-1.3 6.2 1.5 1.8 3 3.5-6 6.2-11.9 12.4 0.5 1.3 1 2.6-5.8-0.6-11.6-1.3 0 6.1 0 12.2-1.9 0-3.7 0 0-6.1 0-12.2-5.8 0.7-11.6 1.3 0.5-1.3 1-2.6-6-6.2-11.9-12.4 1.5-1.7 3-3.5-0.7-3.1-1.3-6.2 3.1 0 6.2 0 1.2-1.2 2.5-2.3 2.9 2.1 5.8 4.2-1.1-6-2.1-12 3 0 6.1 0zm290.2 5.7c2.5-2.6 6.1-3.7 9.7-3.9 5-0.4 10.4 0.7 14 4.5 2.1 2.1 2.9 5.1 3.1 8.1q-3.8 0-7.7 0c-0.3-2.1-1.5-4.2-3.6-4.9-3-1.1-6.6-1.2-9.4 0.5-2.2 1.2-2.6 4.9-0.3 6.2 2.7 1.4 5.9 1.8 8.8 2.6 4 1 8.5 1.7 11.3 5 3.5 4.4 2.6 11.5-1.6 15.1-3.6 3.2-8.6 3.9-13.3 3.7-4.6-0.1-9.5-1.5-12.5-5.2-1.7-2.1-2.3-4.8-2.5-7.4q3.9 0 7.8 0c0.4 2.2 1.5 4.5 3.8 5.2 3.3 1 7 1 10.1-0.3 2.7-1 3.6-5.2 0.9-6.7-4.1-2.1-8.9-2.3-13.3-3.7-3-0.9-6.1-2.3-7.5-5.3-1.9-4.4-1.3-10 2.2-13.5zm158.2-3.3c5.6-1.3 12.2-0.9 16.8 2.9 2.7 2.2 3.9 5.7 4.1 9.1q-3.8 0-7.7 0c-0.3-2-1.3-4-3.2-4.8-3.1-1.2-6.9-1.3-9.8 0.3-2.1 1.2-2.7 4.6-0.6 6.1 2.2 1.4 4.7 1.7 7.1 2.3 4.1 1.2 8.7 1.6 12.1 4.3 4.6 3.8 4.3 11.5 0.3 15.6-3.2 3.4-8 4.5-12.5 4.4-4.8 0.1-10.1-1-13.5-4.7-2.1-2.1-2.8-5-3-7.9q3.9 0 7.7 0c0.5 2.2 1.6 4.5 3.9 5.2 3.3 1 7 1 10.1-0.3 2.5-1 3.5-4.9 1.1-6.5-3.1-1.9-6.8-2.1-10.2-3-3.2-0.9-6.6-1.6-9.1-3.9-2.7-2.5-3.1-6.6-2.5-10 0.7-4.5 4.5-8.1 8.9-9.1zm72.3-0.3c4.8-0.7 10-0.6 14.3 1.8 3.8 2.2 6.6 5.8 7.8 10 1.4 4.5 1.4 9.4 0.6 14-0.8 4.9-3.6 9.6-7.9 12.3-3.7 2.3-8.2 2.7-12.5 2.4-3.8-0.3-7.7-1.7-10.3-4.5-3.5-3.2-5.3-7.7-5.7-12.3-0.5-4.4-0.2-9 1.4-13.2 2-5.2 6.6-9.5 12.3-10.5zm1.5 7.1c-4.2 1.2-6.6 5.5-7.1 9.6-0.5 4.5-0.3 9.5 2.6 13.3 3.4 4.6 11.3 4.8 15 0.4 2.5-2.9 3.1-7 3.1-10.7-0.1-3.8-0.9-7.8-3.7-10.5-2.6-2.6-6.5-3.1-9.9-2.1zm107.9-0.9c2.7-3.5 7-5.9 11.5-6.4 5-0.6 10.5 0.1 14.6 3.4 3 2.3 4.9 5.8 5.4 9.6q-4 0-8 0c-0.5-1.4-1.1-2.9-2.2-3.9-2.6-2.3-6.5-2.7-9.8-1.8-3.8 1-6.4 4.6-7.1 8.4-0.7 4-0.8 8.3 0.7 12.1 2 4.9 8.3 7.1 13.2 5.4 3.3-1.1 5.5-4.2 6.1-7.5-3 0-6 0-9 0q0-3.4 0-6.8 8.1 0 16.2 0 0 10.4 0 20.8-2.7 0-5.4 0-0.4-2.3-0.8-4.7c-2 2.2-4.2 4.3-7.1 5.1-5.1 1.4-10.9 0.7-15.1-2.5-4-2.9-6.6-7.5-7.3-12.3-0.9-6.5-0.1-13.6 4.1-18.9zm318.8-5.9c5.8-1.4 12.7-0.8 17.3 3.4 2.5 2.1 3.4 5.4 3.7 8.6q-3.9 0-7.8 0c-0.3-2-1.3-4-3.2-4.8-3.1-1.2-6.9-1.3-9.8 0.4-2.1 1.1-2.6 4.5-0.5 6 2.2 1.4 4.9 1.7 7.5 2.4 4 1.1 8.3 1.6 11.7 4.2 3.5 2.9 4 8.2 2.4 12.3-1.9 4.4-6.5 7-11.2 7.5-5.4 0.6-11.4 0.2-15.7-3.3-2.9-2.1-4.2-5.7-4.2-9.1q3.8 0 7.7 0c0.4 1.5 0.7 3.1 2 4.1 2 1.7 4.8 1.8 7.3 1.8 2.2-0.1 4.8-0.5 6.3-2.3 1.4-1.7 1-4.6-1.1-5.6-5.6-2.5-12.3-2.2-17.7-5.6-3.6-2.4-4.4-7.3-3.5-11.3 0.9-4.3 4.6-7.7 8.8-8.7zm-905.4 8.2c2.4-4.3 6.8-7.5 11.7-8.2 4.1-0.5 8.5-0.1 12.2 1.8 4.4 2.2 7.3 6.8 7.8 11.7q-4.1 0-8.2 0c-0.7-1.9-1.4-4-3.1-5.2-2.4-1.7-5.7-1.9-8.4-0.9-3.5 1.3-5.3 4.9-5.9 8.3-0.6 3.6-0.6 7.3 0.4 10.9 0.9 3 3.3 5.6 6.4 6.4 2.7 0.6 5.7 0.2 7.8-1.7 1.5-1.3 2.2-3.3 2.8-5.2q4.1 0 8.1 0c-0.7 4.4-3 8.7-6.7 11.3-3.7 2.7-8.4 3.2-12.7 2.7-3.7-0.5-7.3-2.1-9.8-4.9-3.1-3.3-4.6-7.8-5-12.3-0.3-5 0.1-10.3 2.6-14.7zm687.6-7.8c4.3-1 8.9-0.8 13 0.9 4.9 2 8.2 7 8.8 12.2q-4.2 0-8.3 0c-0.6-1.8-1.3-3.7-2.8-4.9-2.2-1.8-5.3-2.1-8-1.5-3.2 0.8-5.3 3.9-6.2 6.9-1 3.7-1 7.6-0.3 11.3 0.7 3.4 3 6.6 6.4 7.6 2.9 0.8 6.2 0.3 8.4-1.8 1.3-1.4 1.9-3.2 2.5-5q4.1 0 8.2 0c-0.7 3.6-2.3 7.2-4.9 9.8-2.9 2.9-7 4.3-11.1 4.3-4.3 0.2-8.8-0.9-12.1-3.8-3.8-3.2-5.7-8.1-6.1-13-0.4-4.7-0.1-9.6 1.9-13.9 1.9-4.4 5.9-7.9 10.6-9.1zm-638.9 0.2q4.6 0 9.2 0 6.9 19.3 13.7 38.6-4.4 0-8.8 0-1.3-3.9-2.6-7.9-7.1 0-14.2 0-1.3 4-2.6 7.9-4.2 0-8.5 0 6.9-19.3 13.8-38.6zm4.5 9c-1.6 5-3.3 10-4.9 15q4.9 0 9.8 0-2.5-7.5-4.9-15zm23.2-9q4.3 0 8.6 0 7.7 13.4 15.3 26.7 0-13.3 0-26.7 3.8 0 7.6 0 0 19.3 0 38.6-4.1 0-8.2 0-7.8-13.6-15.7-27.2 0.1 13.6 0.1 27.2-3.9 0-7.7 0 0-19.3 0-38.6zm49.9 0q4.7 0 9.3 0c4.5 12.9 9.1 25.8 13.6 38.6q-4.4 0-8.8 0-1.3-3.9-2.5-7.9c-4.7 0.1-9.4-0.1-14.1 0.1-1.3 2.4-1.5 5.4-2.9 7.8-2.8 0.2-5.6 0-8.4 0q6.9-19.3 13.8-38.6zm-0.4 24q4.9 0 9.8 0-2.4-7.5-4.8-15-2.5 7.5-5 15zm28.1-24q8.2 0 16.5 0c2.9 0 6 0.4 8.6 1.9 3.9 2.2 6.3 6.5 7.1 10.9 1 5.3 0.7 11-1.3 16.1-1.5 3.7-4.2 7.2-8.1 8.7-2.7 1.2-5.8 1.1-8.8 1q-7 0-14 0 0-19.3 0-38.6zm7.9 6.7q0 12.6 0 25.2c3 0 6.1 0.2 9.1-0.1 2.9-0.4 5.1-2.7 6.2-5.3 1.5-4.1 1.6-8.6 0.8-12.8-0.5-2.6-1.8-5.5-4.6-6.4-3.7-1.1-7.7-0.5-11.5-0.6zm42.1-6.7q4.6 0 9.2 0 6.8 19.3 13.7 38.6-4.5 0-8.9 0-1.2-3.9-2.5-7.9-7.1 0-14.2 0c-0.8 2.7-1.7 5.3-2.6 7.9q-4.3 0-8.5 0 6.9-19.3 13.8-38.6zm4.5 9c-1.7 5-3.3 10-5 15q4.9 0 9.8 0-2.4-7.5-4.8-15zm72.2-9q14.2 0 28.4 0 0 3.5 0 6.9-10.2 0-20.4 0 0 4.1 0 8.2 9.4 0 18.8 0 0 3.3 0 6.7-9.4 0-18.8 0 0 4.9 0 9.9 10.7 0 21.4 0 0 3.5 0 6.9-14.7 0-29.4 0 0-19.3 0-38.6zm35.7 0q4.1 0 8.1 0 0 15.8 0 31.7 9.6 0 19.2 0 0 3.5 0 6.9-13.6 0-27.3 0 0.1-19.3 0-38.6zm32.8 0q13.7 0 27.5 0 0 3.3 0 6.7-9.8 0-19.5 0 0 4.4 0 8.9 8.5 0 17 0 0 3.3 0.1 6.7-8.6 0-17.1 0 0 8.2 0 16.3-4 0-8 0 0-19.3 0-38.6zm80.3 0q15.7 0 31.4 0 0 3.3 0 6.7-5.8 0-11.6 0 0 16 0 31.9-4.1 0-8.2 0 0.1-15.9 0-31.9-5.8 0-11.6 0 0-3.4 0-6.7zm77.4 0c6.7 0 13.5-0.1 20.3 0 3.5 0.1 7.1 1.7 9 4.8 3.5 4.9 2.1 13.3-3.9 15.5 1.3 0.8 2.6 1.5 3.4 2.9 2.8 4.7-0.6 11 3.2 15.4-3.1 0.1-6.2 0-9.3 0-1.3-3.8-0.5-7.8-1.2-11.7-0.2-1.6-1.7-2.8-3.3-2.9-3.4-0.4-6.8-0.2-10.2-0.2q0 7.4 0 14.8-4 0-8 0 0-19.3 0-38.6zm8 17.1c3.4-0.1 6.8 0.1 10.3-0.1 1.6-0.1 3.4-0.8 4.1-2.4 0.8-1.8 0.7-3.9-0.1-5.7-0.8-1.4-2.5-2-4-2.1-3.5-0.2-6.9-0.1-10.3-0.1q0 5.2 0 10.4zm41.5-17.1q4.6 0 9.3 0 6.8 19.3 13.6 38.6-4.4 0-8.8 0-1.3-3.9-2.6-7.9-7.1 0-14.1 0c-0.9 2.7-1.8 5.3-2.6 7.9q-4.3 0-8.6 0 6.9-19.3 13.8-38.6zm-0.4 24q4.9 0 9.8 0-2.4-7.5-4.8-15-2.5 7.5-5 15zm70.2-24q14.2 0 28.4 0 0 3.5 0 6.9-10.2 0-20.4 0 0 4.1 0 8.2 9.4 0 18.8 0 0 3.3 0 6.7-9.4 0-18.8 0 0 4.9 0 9.9 10.7 0 21.4 0 0 3.5 0 6.9-14.7 0-29.4 0 0-19.3 0-38.6zm89.5 0q14.2 0 28.5 0 0 3.5 0 6.9-10.2 0-20.5 0 0 4.1 0 8.2 9.4 0 18.8 0 0 3.3 0 6.7-9.4 0-18.8 0 0 4.9 0 9.9 10.7 0 21.4 0 0 3.5 0 6.9-14.7 0-29.4 0 0-19.3 0-38.6zm35.4 0q4.3 0 8.6 0 7.6 13.4 15.2 26.7 0-13.3 0-26.7 3.8 0 7.7 0 0 19.3 0 38.6-4.1 0-8.2 0-7.9-13.6-15.7-27.2 0 13.6 0 27.2-3.8 0-7.6 0 0-19.3 0-38.6zm35.8 0q15.7 0 31.4 0 0 3.3 0 6.7-5.8 0-11.5 0-0.1 16 0 31.9-4.1 0-8.2 0 0-15.9 0-31.9-5.9 0-11.7 0 0-3.4 0-6.7zm36.5 0c6.9 0 13.8-0.1 20.8 0.1 3.7 0.1 7.4 2.2 9.1 5.6 2.7 5 1.1 12.5-4.5 14.6 1.5 0.8 3 1.9 3.7 3.5 1.5 3.5 0.6 7.3 1.1 10.9 0 1.5 1.1 2.6 1.8 3.9-3.1 0.1-6.2 0-9.3 0-1.1-3.3-0.7-6.9-1-10.4-0.1-1.7-0.9-3.7-2.8-4-3.6-0.8-7.3-0.3-10.9-0.4q0 7.4 0 14.8-4 0-8 0 0-19.3 0-38.6zm8 17.1c3.4-0.1 6.8 0.1 10.3-0.1 1.7-0.1 3.7-0.9 4.3-2.8 0.8-2.6 0.2-6.5-2.9-7.2-3.9-0.6-7.8-0.2-11.7-0.3q0 5.2 0 10.4zm30.7-17.1q14.2 0 28.4 0 0 3.5 0 6.9-10.2 0-20.4 0-0.1 4.1 0 8.2 9.4 0 18.8 0-0.1 3.3-0.1 6.7-9.4 0-18.7 0 0 4.9 0 9.9 10.7 0 21.4 0-0.1 3.5 0 6.9-14.7 0-29.4 0 0-19.3 0-38.6z"/>
	</g>
	<g id="#e2002dff">
		<path id="Layer" fill-rule="evenodd" class="s1" d="m939.5 3.8q28.3 0 56.6 0 8.4 71.4 16.9 142.8c0 0.5 0.2 1.4 0.3 1.9 0.6-1.5 0.6-3.2 0.8-4.8q8.3-69.9 16.5-139.9 27.7 0 55.3 0-19.7 93.4-39.5 186.8-33.8 0-67.6 0-19.7-93.4-39.3-186.8zm167.3 0q32.9 0 65.8 0 22 93.4 44 186.8-27 0-54 0-2.9-14.2-5.8-28.5-17.5 0-35 0-2.6 14.3-5.2 28.5-27 0-54.1 0 22.2-93.4 44.3-186.8zm31.8 45.8q-5.7 35.8-11.3 71.7 11.9 0 23.8 0-3.9-26.3-7.8-52.7c-1.2-8.1-2.2-16.2-3.7-24.3-0.6 1.7-0.7 3.5-1 5.3zm77.1-45.8q26.3 0 52.5 0 0 62.5 0 125c0.1 6.8-0.4 13.6 0.7 20.3 0.5 3.1 1.5 6.4 4 8.5 2.6 2.1 6.2 2.3 9.4 2 2.9-0.3 5.7-1.8 7.1-4.3 2.2-3.9 2.4-8.4 2.7-12.8 0.2-6 0-12.1 0.1-18.2q0-60.2 0-120.5 26.2 0 52.4 0 0 60.8 0 121.5c0.1 10.4-0.6 20.9-3.4 31-2.3 8.2-6.3 16.2-12.5 22.4-6.4 6.5-15 10.6-23.8 12.9-11.4 2.8-23.3 3-35 2.4-9.1-0.7-18.3-2.1-26.7-5.7-6.3-2.7-12-6.8-16.1-12.2-5.1-6.6-7.8-14.8-9.4-22.9-2.6-13.9-1.9-28.1-2-42.2q0-53.6 0-107.2zm144.8 0q26.2 0 52.5 0 0 72.2 0 144.4 28.5 0 57 0 0 21.2 0 42.4-54.7 0-109.5 0 0-93.4 0-186.8zm90.6 0c41.3 0 82.6 0 123.9 0.1v43.9c-11.9 0.1-23.9 0-35.8 0q0 71.4 0 142.8-26.2 0-52.4 0 0-71.4 0-142.8-17.9 0-35.7 0 0-22 0-44z"/>
	</g>
</svg>