<svg version="1.2" xmlns="http://www.w3.org/2000/svg" viewBox="0 0 1578 1366" width="1578" height="1366">
	<title>logo-savara-svg</title>
	<style>
		.s0 { fill: #6790b5 } 
		.s1 { fill: #123849 } 
	</style>
	<g id="Group_3">
		<path id="Path_7" class="s0" d="m701.4 1285.2c81.1-135 54-262.8 25.3-398.1-28.1-132.9-57.3-270.3 34.1-397.1 13.1-19.4 28.4-37.1 45.6-52.8 17.2-15.8 36.3-29.4 56.7-40.6 20.5-11.3 42.2-20.1 64.7-26.3 22.5-6.1 45.7-9.6 69-10.3l-208-360-788.8 1365h567.8c61.4-15.7 110.1-40.8 133.6-79.8z"/>
		<path id="Path_8" class="s1" d="m864.2 564.4c-55.5 77.1-41 162.9-12.7 296.3 29.4 139.1 66.1 312.1-40.9 490.1-3.1 5-6.4 9.5-9.8 14.2h776.7l-494-855q-3.9-2.3-8-4.3-4-2.1-8.1-3.9-4.2-1.8-8.4-3.4-4.2-1.6-8.5-3c-17-5.6-34.9-8.3-52.8-7.9-17.9 0.3-35.6 3.7-52.4 9.9-16.8 6.3-32.4 15.3-46.2 26.7-13.8 11.4-25.6 25-34.9 40.3z"/>
	</g>
</svg>