<svg version="1.2" xmlns="http://www.w3.org/2000/svg" viewBox="0 0 1510 435" width="1510" height="435">
	<title>spectris-svg</title>
	<style>
		.s0 { fill: #7d2082 } 
		.s1 { fill: #808080 } 
	</style>
	<g id="Layer_2">
		<g id="Logo">
			<path id="Layer" class="s0" d="m1076.2 48.8v48.9h-97.9v-97.7h49v48.8h48.9z"/>
			<path id="Layer" fill-rule="evenodd" class="s1" d="m1254.6 97.7h49v240.7h-49zm-1097.4 47.5c-17.4-7.7-43.8-12.9-64.7-12.9-29.2 0-42.8 11-42.8 25.7 0 7.7 4.5 13.8 12.4 18.4 23.4 14 58 17.9 83.8 35 19.7 13.1 29.4 30.5 29.4 57.8 0 43.1-31.7 73.2-94.3 73.2-32.4 0-57.2-5.1-80.9-17v-45.9c18.8 12.5 49.2 19.8 75.4 19.8 32.3 0 50.1-10 50.1-28.6 0-11.1-5.2-18.3-18.4-24.6-24.7-11.7-49.7-14.5-75.3-28.9-17.9-9.9-31.9-26.9-31.9-54.7 0-37.9 29.1-73.1 94.6-73.1 18.7 0 46.4 3.3 62.6 9.7zm1334.1 0v-0.2q0.1 0.1 0.1 0.1zm0-0.1c-17.3-7.7-43.7-12.9-64.6-12.9-29.3 0-42.8 11.1-42.8 25.8 0 7.8 4.5 13.8 12.3 18.5 23.4 13.9 58.1 17.8 83.9 35 19.7 13 29.3 30.5 29.3 57.7 0 43.2-31.7 73.3-94.2 73.3-32.5 0-57.2-5.2-80.9-17v-46c18.7 12.5 49.2 19.9 75.4 19.9 32.3 0 50.1-10 50.1-28.6 0-11.1-5.3-18.3-18.5-24.6-24.7-11.8-49.7-14.5-75.3-28.9-17.8-10-31.9-27-31.9-54.7 0-38 29.1-73.1 94.7-73.1 18.6 0 46.3 3.3 62.5 9.7zm-1239.3 289.7h-48.9v-329.5q9.8-3.7 19.9-6.6 10.1-2.9 20.4-4.9 10.3-1.9 20.7-3 10.5-1 21-1.1c76.3 0 129.7 48 129.7 128.3 0 73.8-43.1 124.5-118.6 124.5q-5.6 0.1-11.2-0.3-5.6-0.3-11.1-1.2-5.6-0.8-11-2-5.5-1.3-10.8-2.9zm39-135.3c45.7 0 73.6-30.5 73.6-81.3 0-53.4-32.3-85.1-79.9-85.1q-4.1-0.1-8.3 0.2-4.1 0.2-8.2 0.8-4.2 0.7-8.2 1.6-4.1 1-8 2.3v152.7c9 5.3 22.4 8.9 39 8.9zm356.5-69.4h-159c6.2 46.9 36.1 69.7 79.5 69.7 26.3 0 50.3-7.6 63.9-17.5v46.3c-16.2 8.9-39.9 13.8-69.2 13.8-87 0-125.4-57.6-125.4-125.7 0-76.5 47.5-127.3 108.8-127.3 61.2 0 102.1 44.1 102.1 117.2 0 7.3-0.1 13.4-0.7 23.5zm-50-41.7c-1.1-41.7-27.5-56.1-53-56.1-24.7 0-48.6 17.8-55.3 56.1zm203 111.2c26.3 0 47.8-7.9 61.3-17.4v46.4c-16.1 8.8-37.6 13.8-66.8 13.8-79.7 0-123.1-54-123.1-126.5 0-72.5 49.1-126.5 122.1-126.6 28.3 0 48.3 4 63.3 10.2v46.6c-15-8.3-35.2-13.9-58.2-13.9-43.4 0-77.2 30.7-77.2 83.7 0 48.6 29.6 83.7 78.6 83.7zm274.9-20.7v47.8c-12.6 8.4-32.4 15.9-61.8 15.9-49.4 0-84.2-28.7-84.2-85.5v-110.5h-47.7v-48.9h96.7v158c0 30.1 15.3 43 41.6 43q7.5-0.1 14.9-1.4 7.4-1.3 14.5-3.8 7.1-2.5 13.6-6.2 6.5-3.7 12.4-8.4zm150.4-180.8v46.9c-20.4-7.3-58.9 0.6-73.2 25.8v167.7h-49v-240.8h49v21.1c15.2-15.1 42.1-24.6 73.2-20.7z"/>
		</g>
	</g>
</svg>