<svg version="1.2" xmlns="http://www.w3.org/2000/svg" viewBox="0 0 1154 1548" width="1154" height="1548">
	<title>logo_synlab-svg</title>
	<style>
		.s0 { fill: #0077ad } 
		.s1 { fill: #003765 } 
	</style>
	<g id="Ebene_2">
		<g id="Ebene_1-2">
			<path id="Layer" class="s0" d="m1149.6 77.9l4.4 59.2v54.9 54.8l-0.5 72.2c0 0-6.4 86.1-5.8 86.1 0.5 0-9.4 91.6-9.4 91.6l-8.7 57.3-11 53.5c-3.9 17.3-19 65-22.3 80.3-3.3 15.4-11.2 36-27.4 75.7q-4.9 11.2-10.1 22.1-5.2 11-10.7 21.8-5.5 10.8-11.4 21.5-5.9 10.6-12 21c-0.6 3.6-48.6 76.3-48.6 76.3 0 0-69.2 100.9-70.6 102.3-1.4 1.3-42 63.9-42 63.9 0 0-16.5 26-27.5 45-11 18.9-26.1 52.3-26.1 52.3-22.8 49.7-20.9 47.5-30.5 68.6q-2.9 7.5-5.6 15.2-2.7 7.6-5.1 15.3-2.4 7.7-4.5 15.5-2.2 7.8-4 15.7-1.5 6.8-2.7 13.6-1.3 6.8-2.3 13.7-1 6.9-1.8 13.8-0.8 6.9-1.4 13.8-0.7 6.2-1.2 12.5-0.5 6.3-0.8 12.5-0.3 6.3-0.4 12.6-0.1 6.3-0.1 12.6v27.4 16.7l2.8 25q0.6 3.6 1.2 7.3 0.5 3.6 0.9 7.3 0.4 3.7 0.7 7.3 0.3 3.7 0.4 7.4 0.1 2-0.1 4-0.2 2-0.6 4-0.5 1.9-1.3 3.8-0.8 1.8-1.8 3.6c-6.6 9.3-18.8 5.6-20.3 5.2q-2.3-0.7-4.5-1.7-2.1-1.1-4-2.5-2-1.4-3.6-3.1-1.7-1.7-3-3.7-1.3-2.8-2.5-5.6-1.2-2.9-2.3-5.8-1.1-2.9-2.1-5.8-1-2.9-1.9-5.8-1.8-7.2-3.4-14.5-1.6-7.2-2.9-14.6-1.4-7.3-2.5-14.6-1.1-7.4-1.9-14.7c-1.9-3.3-3.9-74.1-6.3-75.2-2.5-1.1-2.5-84.7-2.5-84.7-1.9-9.6 3.6-129.5 3.6-129.5 0.2-18.1 6.8-89.7 7.9-91.6 1.1-1.9 0.3-14.2 10.2-69.1q2.2-12.1 4.9-24.1 2.6-12.1 5.6-24 3-12 6.4-23.8 3.5-11.8 7.3-23.5 2.9-8.5 6.1-16.9 3.1-8.4 6.6-16.7 3.4-8.3 7.1-16.5 3.7-8.2 7.6-16.3c10.2-25.8 27.5-52.1 27.5-53.2 0-1.1 31-49.7 31-49.7 0 0 15.1-24.6 39.5-57.3 24.5-32.6 16.8-24.9 31.6-44.1 14.9-19.2 21.7-34 29.7-42.8 7.9-8.8 46.4-71.9 59.3-91.1 12.9-19.2 36.8-65.3 50.5-90.2 13.8-25 28-56.5 35.2-73.2 7.1-16.8 17.6-48.6 23.3-67.5q2.5-9.2 4.7-18.5 2.1-9.3 4-18.7 1.8-9.4 3.4-18.8 1.5-9.4 2.7-18.9 1.5-11 2.4-22.1 1-11.1 1.4-22.2 0.5-11.1 0.5-22.3 0-11.1-0.4-22.2c0-13.8-3.6-46.4-3.6-46.4l-4.9-33.2q-0.4-1.6-0.6-3.3-0.3-1.7-0.3-3.4 0-1.7 0.3-3.4 0.2-1.7 0.6-3.3 0.3-2.1 1.2-4.1 0.8-2 2.2-3.7 1.3-1.7 3-3 1.7-1.3 3.7-2.1 2.2-0.7 4.4-0.9 2.2-0.3 4.5-0.1 2.2 0.3 4.3 0.9 2.2 0.7 4.1 1.7 2.1 1.4 4 3 1.8 1.7 3.3 3.6 1.6 2 2.7 4.2 1.1 2.2 1.8 4.6 1 3.7 1.9 7.3 0.9 3.7 1.7 7.4 0.8 3.7 1.5 7.5 0.7 3.7 1.3 7.4z"/>
			<path id="Layer" class="s1" d="m8.6 47.7q0.6-3.7 1.3-7.4 0.7-3.8 1.5-7.5 0.8-3.7 1.7-7.4 0.9-3.6 1.8-7.3 0.9-2.5 2.2-4.7 1.3-2.3 3-4.2 1.7-2 3.7-3.6 2-1.6 4.3-2.9 1.9-1 4.1-1.7 2.1-0.6 4.3-0.9 2.2-0.2 4.4 0.1 2.1 0.2 4.2 0.9 2 0.8 3.8 2.1 1.7 1.3 3 3 1.3 1.7 2.2 3.7 0.9 2 1.2 4.1 0.5 1.6 0.7 3.3 0.2 1.7 0.3 3.4 0 1.7-0.2 3.4-0.1 1.7-0.5 3.3l-5 33.2c0 0-3.5 32.6-3.5 46.4q-0.5 11.1-0.5 22.2 0 11.2 0.5 22.3 0.5 11.1 1.5 22.2 0.9 11.1 2.3 22.1 1.3 9.5 2.9 18.9 1.5 9.4 3.4 18.8 1.8 9.4 4 18.7 2.1 9.3 4.5 18.5c5.8 18.9 16.5 50.7 23.7 67.5 7.1 16.7 20 49.6 33.7 75.1 13.8 25.5 37.9 71 50.6 90.2 12.6 19.2 51.3 82.3 59.3 91.4 7.9 9 14.8 23.3 29.6 42.5 14.9 19.2 7.4 11.5 31.6 44.1 24.2 32.7 39.8 57.4 39.8 57.4 0 0 30.8 48.5 30.8 49.6 0 1.1 17.3 27.4 28.8 53.2q4 8.1 7.7 16.2 3.7 8.2 7.1 16.5 3.5 8.3 6.6 16.8 3.2 8.4 6.1 16.9 3.8 11.7 7.3 23.6 3.4 11.8 6.4 23.8 3.1 12 5.7 24.1 2.6 12 4.7 24.2c10.2 54.8 9.1 66.9 10.2 68.8 1.1 2 7.7 73.5 8 91.6 0 0 5.5 120.2 3.5 129.5 0 0-1.3 83.9-2.4 84.7-1.1 0.9-4.4 72.2-6.1 75.2q-0.8 7.4-1.9 14.7-1.2 7.4-2.5 14.7-1.4 7.3-3 14.5-1.7 7.3-3.6 14.5-0.8 3-1.8 5.9-1 2.9-2.1 5.8-1.1 2.9-2.3 5.7-1.2 2.8-2.5 5.6-1.4 2-3 3.7-1.7 1.7-3.6 3.1-2 1.4-4.1 2.5-2.2 1-4.5 1.7c-1.5 0.4-13.7 4.4-20-5.2q-1.1-1.7-1.9-3.5-0.8-1.8-1.3-3.7-0.6-1.9-0.8-3.9-0.2-2-0.1-4 0.1-3.7 0.4-7.4 0.3-3.8 0.7-7.5 0.4-3.7 1-7.4 0.5-3.6 1.2-7.3l2.7-24.7 1.4-16.7v-27.4q0.1-6.3 0-12.6-0.1-6.3-0.4-12.6-0.2-6.3-0.7-12.5-0.5-6.3-1.1-12.5-0.6-7-1.5-13.8-0.8-6.9-1.9-13.8-1.1-6.9-2.3-13.7-1.3-6.8-2.8-13.6-1.8-7.8-3.9-15.6-2.1-7.8-4.5-15.5-2.4-7.7-5.1-15.3-2.7-7.6-5.7-15c-9.6-21.4-7.4-19.2-30.5-68.9 0 0-15.1-33.4-27.5-52.3-12.3-19-27.4-45-27.4-45 0 0-40.4-62.6-42.1-63.9-1.6-1.4-70.5-102.3-70.5-102.3 0 0-48.1-72.7-48.6-76.3q-6.2-10.4-12.1-21-5.9-10.7-11.4-21.5-5.6-10.8-10.7-21.7-5.2-11-10-22.2c-16.2-39.7-23.9-60.3-27.5-75.7-3.6-15.3-18.4-63-22-80.3-3.5-17.3-11.2-53.5-11.2-53.5l-8.5-57.3c0 0-9.9-91.6-9.7-91.6 0.3 0-5.7-86.1-5.7-86.1l-0.8-74.4v-54.8-54.9l4.4-59.2z"/>
		</g>
	</g>
</svg>