<svg version="1.2" xmlns="http://www.w3.org/2000/svg" viewBox="0 0 850 1594" width="850" height="1594">
	<title>synlogic-logo-dblue-svg</title>
	<style>
		.s0 { fill: #ffffff } 
	</style>
	<g id="#375274ff">
		<path id="Layer" class="s0" d="m124.7 125.5c67.1-68.2 158.1-112.3 253.2-122.5 92.7-10.4 188.8 10.1 268.1 59.3 84.3 51.1 149.7 132.5 181 226 22.5 62.4 23.9 129.5 22.6 195q-52.2 0-104.5 0c-0.5-37.4 1.9-75.1-4.8-112.1-14.5-86.9-66.8-166.6-140.9-214.3-82-54.9-190.4-67.1-282.8-32.8-131.4 45.7-223.2 185.3-209.3 324.3 6.7 61.2 41.9 115.7 86.6 156.6 66.7 61 149.8 100.7 234.5 130.3 127.9 38.7 253.3 103.6 338.7 209 56.9 69.3 88.4 159.9 81.5 249.8-5 99.5-47.3 196.3-116.1 268.2-65.1 68.8-153.9 114.7-247.7 127.6-82.9 10.9-169.5-0.9-244.7-38.5-104.6-50.1-186.3-145.5-220.1-256.4-18.9-58.6-20.1-120.6-19-181.6 34.9 0 69.7-0.1 104.6 0-0.1 44.8-2 90.4 10 134 22.2 90.6 86.5 169.4 170.4 209.9 70.8 34.8 154.7 42 230.3 18.9 89.1-26.2 164.7-93.5 201.8-178.5 27.9-65.6 37.6-142.5 11.3-210.3-24.7-65.2-75.2-117-131.2-157-60.3-43-128.9-73.5-199.8-94.6-120.1-40.2-238.5-101.6-319.5-201.5-51.9-63.8-82.4-146-77.1-228.6 4.1-104.4 48.8-206.6 122.9-280.2z"/>
	</g>
</svg>