<svg version="1.2" xmlns="http://www.w3.org/2000/svg" viewBox="0 0 1537 279" width="1537" height="279">
	<title>StyleGuide-Updated-2021-pdf-svg</title>
	<defs>
		<clipPath clipPathUnits="userSpaceOnUse" id="cp1">
			<path d="m-812.46-2718.68h5571.18v4299.31l-5571.18-0.01z"/>
		</clipPath>
	</defs>
	<style>
		.s0 { fill: #ffffff } 
	</style>
	<g id="Clip-Path: Page 1" clip-path="url(#cp1)">
		<g id="Page 1">
			<path id="Path 5" class="s0" d="m208.2 221.6c-6.7 14.1-14.4 24.3-23.2 32.4-35.2 33-81.6 22.8-86.5 21.7-28.2-5.9-70.4-32.3-58.4-80.8 10.5-46 52.4-41.4 55.2-41.4 10.9 0.7 12 2.1 12 2.8 0.3 0.7-1.1 1.8-5.7 2.5-18.2 1.4-35.1 17.9-39 38.3-2.1 10.1 0.7 23.5 11.3 35.4 10.5 11.3 22.5 15.5 38.3 17.9 21.5 2.5 44.3-5.6 57.7-20.3 41.1-43.6 46.1-129.6 6.3-213.6 0 0-105.9 46-143.5 116.6-29.2 51-19 89.2-19 89.2 0 0-48.2-72.3 41.9-148.9 55.2-44.9 127.3-73.4 127.3-73.4 0 0 67.2 132.1 25.3 221.6z"/>
			<path id="Path 3" fill-rule="evenodd" class="s0" d="m278.9 213.6l8.1-10.9c16.2 11.9 33.4 18.9 52.1 18.9 19.3 0 34.8-10.9 34.8-27.4v-0.7c0-16.8-18.3-23.1-38.4-28.8-23.5-6.6-49.6-13.7-49.6-39.7v-0.3c0-23.2 19.7-40 47.5-40 17.3 0 37 6.3 51.4 15.8l-7.4 11.5c-13.4-8.7-29.2-14.4-44.3-14.4-20.1 0-33.1 10.9-33.1 25.3v0.7c0 15.8 19.7 21.8 40.5 27.8 23.2 6.7 47.4 15.1 47.4 40.4v0.7c0 25.6-22.1 42.1-49.9 42.1-20.8 0-43.6-8.7-59.1-21zm296.2-126.1h14v27c9.5-16.9 25.7-30.2 52.1-30.2 36.2 0 57.7 24.9 57.7 59.4v88.1h-14.1v-85.7c0-29.8-16.5-49.2-45.7-49.2-28.2 0-50 21.5-50 51.3v83.6h-14zm324.6 0h13.7v32c12.3-19 31-35.5 59.4-35.5 34.9 0 70 27.8 70 74.8v0.7c0 46.7-35.1 75.2-70 75.2-28.8 0-47.4-16.2-59.4-34.4v76.2h-13.7zm128.4 72.7v-0.7c0-37.6-26.4-62.2-56.7-62.2-29.9 0-58.7 25.3-58.7 62.2v0.4c0 36.8 28.8 61.8 58.7 61.8 31.3 0 56.7-22.9 56.7-61.5zm48.2 34.4v-94.5h-20.8v-12.6h20.8v-46h14v46h50.7v12.6h-50.7v93.1c0 20.7 12 28.1 28.9 28.1 7 0 13-1.4 21.1-5.2v13c-7.4 3.5-14.5 5.2-23.6 5.2-22.2 0-40.4-12.3-40.4-39.7zm101.9-107.1h13.8v144h-13.8zm-1.7-56.2h17.2v18.6h-17.2zm54.5 129.3v-0.7c0-40.4 32.4-75.2 73.5-75.2 27.4 0 44.3 12.3 57.7 26.4l-9.9 10.1c-12.3-12.6-26.3-23.5-47.8-23.5-33 0-58.4 27.4-58.4 61.8v0.4c0 34.8 26.4 62.5 59.5 62.5 20.4 0 36.2-10.5 48.2-23.9l9.8 8.5c-14.8 16.5-32.4 28.4-59.1 28.4-41.5 0-73.5-34.4-73.5-74.8zm153.4 53.4l8-10.9c15.9 11.9 33.5 18.6 52.1 18.6 19.3 0 34.5-10.5 34.5-27.4v-0.3c0-16.9-18-23.2-38-28.8-23.6-7.1-49.6-14.1-49.6-39.7v-0.4c0-23.2 19.7-40 47.5-40 17.2 0 36.9 6.3 51.3 15.8l-7.4 11.6c-13.3-8.8-29.2-14.4-44.3-14.4-20 0-33 10.9-33 25.3v0.3c0 16.2 19.7 22.1 40.4 28.1 23.2 6.3 47.5 15.1 47.5 40.4v0.7c0 25.6-22.2 41.8-50 41.8-20.7 0-43.6-8.4-59-20.7zm-515.3 18.2h-14.1v-31.6c-11.6 18.3-30.2 34.5-59.1 34.5-34.8 0-70.3-28.5-70.3-75.6v-0.3c0-47.1 35.5-74.8 70.3-74.8 28.5 0 46.8 16.5 59.1 35.4v-32.3h14.1zm-71.8-10.2c29.9 0 58.8-24.5 58.8-61.8v-0.3c0-36.9-28.9-62.2-58.8-62.2-30.2 0-56.6 24.6-56.6 62.2v0.7c0 38.6 25 61.4 56.6 61.4zm-264.1-134.1h15.5l-79.5 188.9h-12.3c0 0 15.8-41.8 17.6-45.6l-69.3-143.3h16.2l59.7 128.5zm989.6 25.3c-7.7 0-13.9-6.3-13.9-14 0-7.8 6.2-14.1 13.9-14.1 7.7 0 13.9 6.3 13.9 14.1 0 7.7-6.2 14-13.9 14zm12.5-14.2c0-6.9-5.5-12.5-12.3-12.5-6.8 0-12.3 5.6-12.3 12.5 0 6.9 5.5 12.5 12.3 12.5 6.8 0 12.3-5.6 12.3-12.5zm-18-7.2h6.7c2.8 0 5.3 1.4 5.3 4.6 0 2.1-1.4 3.5-3.2 4.2l3.6 5.2h-3.2l-3.5-4.9h-2.8v4.9h-2.9zm6.4 7.1c1.7 0 2.8-1.1 2.8-2.1 0-1.8-1.1-2.5-2.8-2.5h-3.5v4.6z"/>
		</g>
	</g>
</svg>