<svg version="1.2" baseProfile="tiny-ps" xmlns="http://www.w3.org/2000/svg" viewBox="0 0 1617 760" width="1617" height="760">
	<title>Screenshot 2021-10-31 at 11-svg</title>
	<style>
		tspan { white-space:pre }
		.shp0 { fill: #9f4b2f } 
		.shp1 { fill: #ffffff } 
	</style>
	<g id="#9f4b2fff">
		<path id="Layer" class="shp0" d="M720.4 23.08C760.12 1.26 808.14 -4.89 852.04 6.36C869.29 10.13 885.18 17.96 900.77 25.96C900.8 27.01 900.83 28.07 900.87 29.13C884.57 30.12 869.43 37.1 854.55 43.28C846.8 46.22 839.7 52.43 830.95 51.23C818.72 51.3 806.2 49.93 794.26 53.2C778.48 56.7 763.13 62.83 749.86 72.13C747.99 73.21 746.01 75.02 743.72 74.09C732.08 70.59 720.28 66.53 707.95 67.11C699.71 67.52 690.59 65.5 683.22 70.24C678.97 72.87 674.86 77.16 675.03 82.5C674.83 89.03 674.61 95.62 675.51 102.1C678.58 114.06 683.89 125.32 689.84 136.09C675.32 144.12 663.95 158.63 662.13 175.39C661.75 187 661.48 198.69 662.46 210.28C667.95 237.32 683.15 262.84 705.98 278.71C710.57 282.08 716.58 283.89 719.7 288.96C726.43 299.51 736 307.91 745.9 315.41C760.54 326.35 776.67 335.36 793.79 341.81C804.33 345.52 815.26 348.93 826.57 348.56C837.71 348.31 849.32 349.89 860.01 345.82C876.31 340.9 888.34 328.02 898.31 314.84C907.69 319.17 918.26 318.24 928.31 318.07C920.26 328.78 908.34 335.47 897.09 342.3C861.64 361.86 819.62 370.05 779.55 363.38C749.34 358.46 720.06 346.36 695.96 327.36C655.73 296.78 629.6 248.43 626.07 198.02C626.11 192.78 624.68 187.64 624.87 182.4C626.14 169.41 626.61 156.3 629.8 143.56C640.65 92.79 674.74 47.7 720.4 23.08Z" />
		<path id="Layer" class="shp0" d="M872.28 62.03C885.44 56.43 899.05 51.03 913.48 50.17C922.91 50.32 933.39 54.39 937.6 63.41C940.58 70.08 942.52 77.71 940.8 84.99C937.79 105.39 928.62 125.05 914.22 139.88C910.66 134.77 906.42 129.63 905.98 123.13C904.97 107.78 901.58 91.85 892.33 79.23C887.27 72.22 879.75 67.63 872.07 64C872.11 63.51 872.22 62.52 872.28 62.03Z" />
		<path id="Layer" class="shp0" d="M802.54 71.03C805.94 70.09 809.51 70.2 813.03 70.27C807.79 75.35 801.45 79.05 795.79 83.63C793.1 85.57 790.64 88.04 787.45 89.14C780.91 89.43 774.83 86.52 768.95 84.06C779.21 77.62 790.87 73.97 802.54 71.03Z" />
		<path id="Layer" class="shp0" d="M842.53 75.67C844.59 74.76 846.73 72.92 849.09 73.89C859.67 76.72 869.76 83.18 875.24 92.88C878.13 97.61 879.95 102.9 881.26 108.28C862.4 98.81 842.24 90.27 820.78 90.16C827.59 84.7 834.96 80 842.53 75.67Z" />
		<path id="Layer" class="shp0" d="M694.59 88.83C696.53 85.76 699.42 82.53 703.42 82.93C712.81 81.76 721.63 85.58 729.98 89.36C727.51 94.79 724.97 100.22 723.28 105.97C722.24 110.41 718.28 113.03 715.16 115.97C711.36 119.33 708.24 123.34 704.91 127.14C697.96 115.81 691.81 102.43 694.59 88.83Z" />
		<path id="Layer" class="shp0" d="M926.47 160.54C943.87 139.12 955.06 113.41 962.48 87C977.73 110.66 986.23 138.19 989.28 166.06C989.8 177.06 989.89 188.09 989.35 199.11C986.89 225.57 979.12 251.63 965.55 274.54C958.01 253.19 946.07 233.7 932.52 215.67C929.93 212.12 926.83 208.83 925.15 204.71C922.12 193.63 924.01 181.97 921.66 170.78C920.88 166.71 924.38 163.61 926.47 160.54Z" />
		<path id="Layer" class="shp0" d="M748.31 104.04C750.44 100.7 754.74 101.55 757.89 102.67C762 104.24 765.85 106.41 769.75 108.5C763.77 116.78 757.17 124.58 751.32 132.96C743.83 142.95 737.97 154.01 730.91 164.29C727.45 160.09 725.9 154.66 727.71 149.41C732.49 133.53 737.44 116.92 748.31 104.04Z" />
		<path id="Layer" class="shp0" d="M808.41 106.5C811.41 106.43 814.42 106.24 817.42 106.62C836.27 109.95 854.77 116.35 870.88 126.81C874.82 129.5 879.35 132.38 880.74 137.26C883.28 146.01 884.69 155.4 882.2 164.33C862.79 145.34 842.17 127.3 818.87 113.17C815.32 111.05 811.83 108.82 808.41 106.5Z" />
		<path id="Layer" class="shp0" d="M783.79 128.04C786.76 125.35 789.75 120.8 794.4 122.37C802.07 125.47 808.6 130.79 815.32 135.53C833.4 149.1 850.68 163.77 866.9 179.52C857.73 189.7 846.88 198.16 836.11 206.55C823.38 215.85 810.35 225 795.98 231.59C780.59 219.66 768.42 204.24 755.05 190.2C752.17 186.53 747.08 182.52 749.78 177.33C757.54 158.77 770.02 142.56 783.79 128.04Z" />
		<path id="Layer" class="shp0" d="M682.17 186.7C681.73 174.03 689.72 162.93 699.12 155.21C705.27 162.8 711.2 170.57 716.76 178.61C719.24 181.98 715.98 185.67 714.58 188.74C705.39 204.78 702.23 223.25 699.59 241.29C691.75 233.73 687.67 223.37 684.29 213.23C681.34 204.72 682.3 195.54 682.17 186.7Z" />
		<path id="Layer" class="shp0" d="M891.23 213.49C892.81 206.85 894.14 200.13 895.82 193.49C898.83 198.02 903.42 202.42 902.7 208.36C902.48 220.72 903.51 233.21 901.21 245.44C899.22 260.08 897.31 275.84 888.13 287.99C877.9 283.1 867.27 278.85 857.75 272.63C875.44 257.55 885.38 235.56 891.23 213.49Z" />
		<path id="Layer" class="shp0" d="M722.66 247.17C721.69 230.07 727.11 212.97 736.44 198.76C749.23 212.05 760.18 227.04 773.79 239.57C757.64 246.23 739.98 248.14 722.66 247.17Z" />
		<path id="Layer" class="shp0" d="M845.08 231.08C852.49 226.05 858.96 219.63 867.04 215.58C864.19 225.16 858.36 233.47 852.49 241.43C847.85 247.04 843.46 252.96 837.9 257.69C835.7 259.54 832.44 258.66 830.21 257.37C825.32 254.77 820.99 251.28 816.85 247.64C826.44 242.46 836.24 237.53 845.08 231.08Z" />
		<path id="Layer" class="shp0" d="M923.41 237.31C931.39 246.01 935.99 257.13 940.29 267.95C943.4 275.58 944.08 283.99 942.98 292.12C940.87 296.75 936.21 300.83 930.85 300.48C923.8 301.12 916.99 299.12 910.36 297.04C911.96 287.44 916.23 278.57 918.09 269.03C920.86 258.62 920.73 247.72 923.41 237.31Z" />
		<path id="Layer" class="shp0" d="M781.66 260.93C786 259.92 791.29 257.94 795.17 261.19C800.89 265.17 806.6 269.16 812.38 273.06C802.06 279.65 789.28 280.35 777.38 280.11C761.61 280.59 745.28 277.39 731.8 268.9C737.94 265.96 744.82 267.61 751.33 266.83C761.51 265.23 771.74 263.79 781.66 260.93Z" />
		<path id="Layer" class="shp0" d="M827.46 296.72C832.46 295.31 837.71 291.19 842.97 294.03C853.74 298.93 864.65 303.55 875.5 308.33C868.84 320.63 855.03 328.46 841.09 328.2C832.98 328.25 824.7 328.62 816.82 326.29C798.57 321.62 781.07 313.45 766.19 301.84C786.64 301.57 807.86 304.16 827.46 296.72Z" />
	</g>
	<g id="#123358ff">
		<path id="Layer" fill-rule="evenodd" class="shp1" d="M1170.87 347.6C1179.14 343.85 1188.46 345.24 1197.26 345.14C1216.12 345.71 1232.57 363.19 1231.35 382.17C1232.68 396.36 1223.9 409.98 1211.48 416.31C1202.6 420.91 1192.3 419.23 1182.71 419.49C1169.42 419.98 1156.74 411.33 1151.14 399.5C1147.52 392.84 1148.58 385.04 1148.5 377.77C1148.27 364.16 1158.72 352.47 1170.87 347.6ZM471.26 356.91C474.29 356.14 477.36 355.3 480.53 355.48C500.82 355.61 521.13 355.38 541.43 355.59C544.61 355.49 545.1 359.39 544.92 361.82C544.77 464.15 545.1 566.48 544.74 668.79C544.34 669.31 543.51 670.32 543.11 670.84C519.8 671.03 496.46 670.99 473.17 670.87C472.71 670.41 471.78 669.48 471.32 669C471.17 564.98 471.3 460.94 471.26 356.91ZM1539.78 390.28C1547.86 388.44 1555.64 385.25 1563.86 384.02C1564.73 392.55 1563.28 401.22 1565.16 409.68C1565.9 421.88 1565.31 434.16 1565.88 446.37C1581.98 447.18 1598.15 446.3 1614.28 446.76C1614.71 447.26 1615.6 448.24 1616.04 448.73C1616.44 466.45 1616.03 484.19 1616.22 501.92C1610.78 503.22 1605.16 502.79 1599.63 502.83C1588.31 502.84 1576.99 502.74 1565.67 502.92C1565.74 532.19 1565.58 561.46 1565.75 590.72C1565.75 600.15 1568.59 610.79 1577.68 615.38C1582.81 616.5 1588.06 617.54 1593.33 616.95C1599.47 616.27 1605.51 614.56 1611.73 614.64C1612.08 633.01 1613.55 651.34 1613.95 669.73C1600.48 674.2 1586.37 676.66 1572.2 676.92C1557.92 677.2 1543.16 677.6 1529.62 672.35C1515.88 667.19 1505.21 655.55 1499.81 642.08C1494.69 628.96 1492.65 614.8 1492.81 600.76C1492.88 568.1 1492.72 535.43 1492.91 502.76C1482.3 501.61 1471.63 501.86 1460.99 501.79C1460.74 483.87 1460.92 465.95 1460.87 448.02C1471.11 447.75 1481.37 447.85 1491.64 447.75C1493.52 433 1493.03 418.1 1493.97 403.28C1509.11 398.5 1524.55 394.77 1539.78 390.28ZM42.97 457.03C55.43 448.44 70.35 443.77 85.32 442.2C100.35 442.2 115.64 440.87 130.42 444.29C148.67 447.69 166.48 454.77 181.29 466.09C185.04 468.35 183.56 473.66 181.76 476.79C175.19 488.66 168.53 500.47 161.93 512.33C155.81 509.74 150.52 505.64 144.6 502.67C134.64 497.6 124.05 493.41 113.02 491.52C103.07 491.41 91.88 489.6 83.33 495.91C78.62 499.4 77.82 505.65 78.98 511.05C83.53 518.87 92.4 522.24 100.48 525.15C122.61 532.36 146.14 537.41 165.57 550.89C177.04 558.29 185.02 570.42 188.54 583.49C189.68 595.45 189.64 607.57 188.64 619.54C185.18 634.91 175.79 648.98 162.68 657.83C148.86 667.44 132.41 672.69 115.91 675.34C102.07 675.91 88.19 675.82 74.35 675.42C47.55 671.78 21.02 661.4 0.87 643.02C-0.32 640.34 1.58 637.88 2.91 635.71C10.87 623.39 18.8 611.04 26.36 598.47C29.98 600.26 33.5 602.25 36.81 604.57C49.39 613.14 63.59 619.19 78.3 622.98C88.87 624.05 99.58 623.89 110.18 623.21C117.75 621.72 125.32 614.99 124.06 606.62C124.74 600.01 118.3 596.07 113.41 593.12C99.51 585.61 83.75 582.81 68.78 578.22C49.78 572.35 29.92 562.79 20.22 544.45C12.97 531.62 13.06 516.5 13.9 502.22C16.34 483.84 27.43 467.05 42.97 457.03ZM941.13 444.23C951.09 442.96 961.18 443.3 971.18 443.55C994.81 444.61 1016.81 457.59 1031.03 476.19C1031.2 466.39 1031.07 456.58 1031.35 446.78C1055.05 446.65 1078.76 446.65 1102.47 446.78C1102.92 491.83 1102.54 536.89 1102.67 581.94C1102.82 599.05 1102.06 616.18 1103.6 633.25C1102.77 650.15 1101.25 667.41 1095.1 683.36C1089.05 696.52 1082.03 709.56 1071.52 719.74C1053.96 737.97 1030.2 749.29 1005.58 754.22C989.12 757.9 972.15 756.58 955.43 756.8C941.55 757.06 927.84 754.44 914.5 750.84C894.19 744.97 873.63 737.78 856.95 724.37C866.94 708.6 876.12 692.28 886.82 676.96C901.6 686.13 917.46 693.77 934.46 697.84C948.95 701.66 964.18 704.04 979.13 701.56C994.25 699.36 1010.04 693.53 1019.42 680.82C1029.77 666.66 1032.01 648.36 1031.01 631.28C1022.81 639.23 1014.9 647.87 1004.51 653.02C978.35 666.56 946.4 667.05 919.19 656.29C903.33 650.33 888.63 640.82 877.86 627.62C859.76 606.29 852.35 577.61 853.12 550.05C853.39 522.71 862.24 494.65 881.37 474.6C896.95 457.84 918.77 447.89 941.13 444.23ZM967.49 500.82C957.98 503.21 948.83 507.75 942.17 515.11C924.47 533.81 922.88 564.7 936.98 585.94C944.74 597.42 957.48 605.5 971.26 607.25C980.07 607.28 989.31 608.48 997.72 605.1C1011.89 600.62 1023.26 588.96 1028.22 575.05C1032.45 564.86 1031.83 553.57 1031.17 542.8C1028.44 526.48 1018.06 511.17 1002.71 504.36C991.8 499.15 979.2 499.02 967.49 500.82ZM1286.3 468.38C1300.49 452.83 1321.21 444.43 1341.85 442.22C1357.47 442.13 1373.35 440.93 1388.69 444.58C1408.12 448.27 1426.55 456.68 1442.01 469.03C1435.11 483.92 1426.41 497.92 1418.69 512.41C1405.33 505.35 1392.44 496.81 1377.53 493.28C1369.76 490.68 1361.48 491.24 1353.43 491.39C1346.15 491.5 1338.27 495.2 1335.44 502.28C1334.92 506.64 1334.58 511.68 1338.32 514.76C1346.73 523.33 1359.16 525.59 1370.18 529.18C1391.5 535.91 1414.46 541.96 1430.91 558.1C1439.43 567.22 1446.18 579.24 1445.76 592.05C1445.75 601.66 1446.21 611.34 1445.14 620.91C1441.33 635.42 1432.38 648.53 1420.14 657.22C1406.21 667.56 1389.17 672.69 1372.24 675.36C1357.86 675.86 1343.43 675.95 1329.07 675.26C1302.56 670.77 1275.55 661.03 1256.44 641.4C1265.21 626.7 1274.43 612.26 1283.9 598C1299.55 609.62 1317.23 618.81 1336.28 623.27C1344.28 625.46 1352.71 624.82 1360.91 624.53C1368.49 623.43 1377.55 620.35 1380.3 612.39C1380.67 607.65 1381.72 601.83 1377.4 598.56C1366.97 588.95 1352.48 586.01 1339.29 582.1C1319.99 576.98 1299.46 570.98 1285.38 555.99C1278.53 549.36 1274.22 540.5 1271.96 531.33C1270.89 522.19 1271.32 512.93 1271.32 503.74C1271.07 490.48 1277.92 478.22 1286.3 468.38ZM672.64 445.26C680.34 443.16 688.39 443.51 696.32 443.29C708.41 443.32 720.54 443 732.63 443.96C756.08 448.12 779.24 457.68 796.43 474.57C816.4 492.74 827.8 519.09 830.27 545.72C830.5 555.89 830.69 566.08 830.07 576.22C826.81 600.34 817.04 624.39 799.15 641.35C780.69 660.92 754.36 671.13 728.24 675.31C713.75 675.91 699.22 675.85 684.74 675.37C659.99 671.83 635.64 662.27 616.72 645.64C592.6 623.95 579.7 591 581.09 558.78C580.02 527.38 592.53 495.3 615.89 474.04C631.56 459.24 651.79 450.05 672.64 445.26ZM695.37 501.06C678.66 504.22 664.85 517.22 659.52 533.19C655.46 542.16 656.3 552.11 656.25 561.68C655.28 579.22 663.43 597.3 677.78 607.64C684.08 611.88 691.4 615.27 699.18 614.88C708.66 614.66 718.86 616.34 727.51 611.42C744.56 603.77 754.29 585.48 756.26 567.52C756.46 557.38 757.33 546.87 753.81 537.12C750.99 527.31 745.62 518.13 737.78 511.49C726.35 501.61 710.06 497.72 695.37 501.06ZM1152.98 446.56C1177.2 446.33 1201.43 446.53 1225.65 446.46C1225.23 520.88 1225.71 595.3 1225.42 669.73C1201.56 670.57 1177.62 668.83 1153.8 670.67L1152.91 670.75C1152.99 596.03 1152.85 521.29 1152.98 446.56ZM193.9 446.6C219.21 446.3 244.56 446.5 269.9 446.49C279.65 470.92 287.82 495.98 296.66 520.77C303.16 539.77 310.18 558.61 316.74 577.6C318.04 581.41 319.71 585.1 321.36 588.79C332.1 556.77 343.46 524.96 354.58 493.07C360.34 477.61 364.93 461.72 371.29 446.5C396.36 446.49 421.45 446.3 446.52 446.6C443.09 458.19 437.75 469.07 433.43 480.35C404.53 551.37 375.4 622.32 346.59 693.4C338.5 712.56 329.26 732.38 312.54 745.58C305.61 750.85 297.46 754.67 288.9 756.34C262.92 757.64 235.91 757.57 211.64 746.9C211.48 739.1 214.61 731.84 216.45 724.4C219.47 714.15 221.65 703.64 225.25 693.55C237.63 693.68 249.9 701.75 262.19 696.94C271.16 693.86 273.66 683.7 277.25 676.01C279 670.94 283.46 665.54 280.51 660.07C267.15 628.66 254.85 596.8 241.57 565.35C229.42 535.72 217.58 505.96 205.27 476.38C201.51 466.44 196.66 456.9 193.9 446.6Z" />
	</g>
</svg>