<svg version="1.2" xmlns="http://www.w3.org/2000/svg" viewBox="0 0 1545 1519" width="1545" height="1519">
	<title>logo (4)www-svg</title>
	<style>
		.s0 { fill: #004a6a } 
	</style>
	<path id="Layer" class="s0" d="m1543.2 258.9c1.3 4.7 1.3 9.7 0.1 14.4-1.2 4.7-3.7 9-7.1 12.5-3.5 3.4-7.8 5.9-12.5 7.1-4.7 1.3-9.7 1.2-14.4-0.1h-491.8c-32.1 0-38.5 9.2-38.5 40.3v1143c0 35.8-11 42.2-44 42.2h-335.2c-30.2 0.9-34.8-8.3-34.8-35.8v-1147.6c0.9-36.6-10.1-43-43.9-43h-484.5c-28.4 0-35.8-6.4-35.8-35.7v-220.8c-0.9-29.3 9.2-34.8 36.7-34.8h1460.8c32.1 0 40.3 9.2 40.3 40.3v217.1"/>
</svg>