<svg version="1.2" xmlns="http://www.w3.org/2000/svg" viewBox="0 0 1598 1628" width="1598" height="1628">
	<title>e68f3bd329c448ffd689f75e98717973-svg</title>
	<style>
		.s0 { fill: #e47d46 } 
		.s1 { fill: #00bad2 } 
		.s2 { fill: #006a8f } 
	</style>
	<g id="#e47d46ff">
		<path id="Layer" class="s0" d="m829.6 3.2c31.9-8.1 67.5 1.5 91 24.7c26.1 24.9 36 64.9 24.7 99.2c-10.8 35.3-43.5 62.4-80.2 66.7c-32.9 4.4-67.4-9.5-88-35.5c-21.3-26.2-27.3-63.7-15.1-95.2c10.9-29.4 37-52.6 67.6-59.9z" />
		<path id="Layer" class="s0" d="m120.8 591.9c46.4-11.2 97.7 0.2 134.7 30.6c46 36.4 67.9 100 53.9 157.1c-12 54.1-55.2 99.6-108.5 114.6c-64.8 20-140.3-8.4-175.8-66.3c-38.1-57.9-30.5-140.6 17.7-190.5c20.8-22.4 48.3-38.4 78-45.5z" />
		<path id="Layer" class="s0" d="m444.3 845c57.5-12.9 120.9 21.7 140.8 77.2c23.5 57.3-4.2 129.2-60.3 155.6c-55 29.3-129.8 8.2-161.3-45.5c-31.4-48.7-21.9-118.1 21-156.7c16.7-15.4 37.6-26 59.8-30.6z" />
		<path id="Layer" class="s0" d="m1089.7 917.1c60.5-10.9 124.5 30.4 139.3 90.1c17.6 59.4-17.1 127.9-75.4 148.7c-57.9 23.7-130.4-4.9-156.3-61.8c-28.8-56.1-5.8-131.5 49.4-161.7c13.2-7.7 27.9-12.9 43-15.3z" />
		<path id="Layer" class="s0" d="m721.4 1436.6c44.9-12.5 96.2 12.7 113.6 56.1c15.5 35.3 7 79.5-20.7 106.5c-26.9 27.6-70.8 36.3-106.1 21c-38.6-15.4-63.9-57.7-59.2-99c3.3-39.7 33.7-75.1 72.4-84.6z" />
	</g>
	<g id="#00bad2ff">
		<path id="Layer" class="s1" d="m489.6 73.6c37.8-9.3 79-4 112.9 14.9c33.8 18.5 60.2 49.9 72.5 86.4c14.6 42.1 9.9 90.3-12.5 128.8c-22.2 38.6-61.5 66.8-105.3 75.2c-57.9 12-121.2-12.4-155.9-60.3c-31.9-42.4-39.5-101.2-19.9-150.4c17.9-46.6 59.7-83 108.2-94.6z" />
		<path id="Layer" class="s1" d="m191.4 297.7c45.8-14.4 99.3 11.2 116.7 55.9c14.7 34.2 7.1 76.4-18.4 103.4c-23.7 26-62.3 37.2-96.3 27.7c-33.7-8.6-61.3-37-69.3-70.9c-13-48.6 18.6-103.3 67.3-116.1z" />
		<path id="Layer" class="s1" d="m800.7 310.4c58.6-14.4 124 21 143.7 78.2c23.2 58.6-6.9 131.4-64.9 156.1c-56 27.1-129.9 3.5-159.5-51.2c-30.3-50.6-17.2-121.2 28.8-157.8c15.1-12.3 32.9-21 51.9-25.3z" />
		<path id="Layer" class="s1" d="m1392.8 434.1c26.2-7.2 55.5-2.5 78.2 12.5c25.7 16.4 42.3 45.6 43.8 75.9c1.9 30.4-11.6 61.3-35.3 80.5c-23 19-55.1 26.4-84.1 19.3c-28.8-6.7-54-27.4-65.9-54.5c-12.2-26.4-11.4-58.2 1.9-84c12.2-24.3 35.1-42.8 61.4-49.7z" />
		<path id="Layer" class="s1" d="m771.5 679c62.4-13.9 131 22 154.7 81.3c26.8 60.3 2.4 137.7-54.6 171.1c-55.4 35.6-135 23.3-176.9-27.4c-42.4-47.7-44.2-124.8-4.4-174.6c19.9-25.8 49.3-43.9 81.2-50.4z" />
		<path id="Layer" class="s1" d="m1401.1 732.9c45.8-12.3 97-2.5 134.7 26.5c46.7 34.7 70.7 96.8 59.1 154c-10.1 56.8-54.7 105.5-110.2 120.9c-64.5 19.7-139.3-8.4-174.9-65.6c-39.2-58.7-30.9-143.5 19.1-193.3c19.6-20.4 44.8-35.2 72.2-42.5z" />
		<path id="Layer" class="s1" d="m398.4 1197.1c66.1-17.8 141.2 14.1 174.2 74.1c29.2 49.8 26.9 115.9-5.3 163.8c-31.7 49-92.5 77-150.3 68.8c-47.1-5.5-90.5-34.2-114.5-74.9c-25.2-41.6-29-95.1-10.3-139.9c18.3-45.1 59-80.2 106.2-91.9z" />
	</g>
	<g id="#006a8fff">
		<path id="Layer" class="s2" d="m1123.6 127.7c67.1-18 143.3 15.3 175.4 76.9c21.8 39.5 25 88.6 8.7 130.7c-15.2 40.6-48.3 73.9-88.7 89.6c-45.3 18.2-99 13.3-140.2-12.8c-53.1-32.4-82.6-98.3-71.2-159.4c9.5-59.8 57.2-110.9 116-125z" />
		<path id="Layer" class="s2" d="m460.6 467.3c57.8-14.9 123 18.7 144.1 74.7c24.8 57.8-3.2 131.3-60.4 157.7c-54.4 28.4-127.9 8-159.7-44.5c-31.7-47.7-23.7-116.4 17.7-155.8c16.1-15.7 36.5-26.8 58.3-32.1z" />
		<path id="Layer" class="s2" d="m1102 540.1c58.5-14.4 123.7 20.6 143.6 77.5c23 57.2-4.7 128.4-60.4 154.8c-55.5 29.5-131.1 7.8-162.3-46.9c-31-49.3-20.1-119.4 24.1-157.4c15.6-13.6 34.7-23.4 55-28z" />
		<path id="Layer" class="s2" d="m157.8 1005.8c27.2-6.6 57.1-0.7 79.6 15.8c26.9 19 42.5 52.5 39.9 85.3c-1.9 32.6-21.7 63.4-50.6 78.7c-29.7 16.5-68 15.4-96.9-2.6c-33.8-20.1-52.6-62.2-44.7-100.8c6.5-36.8 36.3-68.1 72.7-76.4z" />
		<path id="Layer" class="s2" d="m737.9 1076.5c57.2-16.8 123.3 14.4 146.3 69.4c26.6 56.6 1.9 130.5-53.6 159.4c-53.7 31.2-128.9 13.3-162.7-38.8c-31.8-45.2-27.8-111.2 9.3-152.1c15.8-18.4 37.4-31.5 60.7-37.9z" />
		<path id="Layer" class="s2" d="m1367.3 1140.9c24.8-3.3 50.9 3.5 70.9 18.6c26.1 19.2 41.2 52.4 38.6 84.8c-2.1 31.9-21.2 62.1-49.3 77.5c-29.4 16.9-67.8 16.5-96.9-1c-31-17.9-50.1-54-47.5-89.7c2-45.1 39.3-85.1 84.2-90.2z" />
		<path id="Layer" class="s2" d="m1032.7 1251.1c34.8-8.8 72.6-5.4 105.1 9.9c38.2 17.7 68.5 51.6 81.8 91.5c15.9 46.2 8.4 99.5-19.7 139.4c-37.8 56.1-113.9 81.5-177.7 59.2c-66-20.7-112.5-89.4-106.8-158.4c3.1-66.1 53.1-126.1 117.3-141.6z" />
	</g>
</svg>