<svg version="1.2" xmlns="http://www.w3.org/2000/svg" viewBox="0 0 1274 1602" width="1274" height="1602">
	<title>Molson_Coors_Beverage_Company_logo-svg</title>
	<style>
		.s0 { fill: #f8b000 } 
		.s1 { fill: #478aca } 
		.s2 { fill: #eb6823 } 
		.s3 { fill: #e1e6e8 } 
	</style>
	<g id="layer1">
		<g id="g712">
			<path id="path252" class="s0" d="m778.1 1224.6c11.3-156.6-77.4-309.6-230.4-372.9-153.2-63.3-324.2-17.7-427 100.9-98-159.6-120.7-362.1-43.5-548.4 128.1-308.7 482.7-455.3 791.9-327.4 309.3 127.9 456.1 481.9 328 790.6-77.2 186.2-236.8 313.5-419 357.2z"/>
			<path id="path254" class="s1" d="m405.2 1195c122.8 50.8 252.8 58.3 372.9 29.4-2.9 39-11.9 78.2-27.6 116.2-79.2 191-298.5 281.6-489.8 202.6-191.3-79.1-282-298-202.7-489 15.7-38 37.1-72 62.7-101.6 64.5 105.1 161.6 191.6 284.5 242.4z"/>
			<path id="path256" class="s2" d="m778.1 1224.4c-120.1 28.9-250.1 21.4-372.9-29.4-122.7-50.8-220-137.3-284.5-242.4 102.8-118.6 273.8-164.2 427-100.9 153 63.3 241.7 216.3 230.4 372.7z"/>
			<path id="path258" fill-rule="evenodd" class="s3" d="m1224.9 879c-30.8 74.1-75.4 140.8-130.1 197.3l0.3 0.3-403 405.1-0.2-0.2c-76 76.7-180.2 120.1-288.3 120.1-51.4 0-103.9-9.9-154.4-30.8-99.8-41.2-177.6-118.9-219-218.7-21.6-52-30.6-106.8-29.7-161.4v-572.5c2.1-76.7 18.9-153 48.9-225.3 65.1-156.8 187.4-278.9 344.3-343.7 157-65.1 329.9-65.1 486.8 0 324.1 133.9 478.6 506.2 344.4 829.8zm-688.7 0.4c-130.7-54.1-279.6-22.9-377.7 76.7 63.3 94.6 152.1 167.4 258.2 211.3 106.1 43.8 220.4 55 332.2 32.8 1.2-139.6-82.1-266.8-212.7-320.8zm206.6 382.8c-117.7 20-237.5 6.6-349-39.4-111.6-46.3-205.9-121.3-274.9-218.5-36.8 53.3-59.6 121.4-59.6 195 0 43.6 9 88 26.4 129.9 35.2 84.9 101.4 151.1 186.6 186.3 85.1 35.2 178.8 35.3 263.9 0 150.9-62.7 196.8-196.2 206.6-253.3zm114.8-1157.7c-142.1-58.8-298.7-58.8-440.9 0-142.2 58.8-252.9 169.3-311.8 311.3-65.3 157.5-56.6 336.8 22.1 487.1 76-71.5 175.4-109.8 277-109.8 52.1 0 104.8 10 155.2 30.9 148.5 61.4 245 203.2 249.7 360.9 162-50.7 295.2-171.4 360.5-328.9 121.6-293-18.3-630.2-311.8-751.5z"/>
		</g>
	</g>
</svg>