<svg version="1.2" xmlns="http://www.w3.org/2000/svg" viewBox="0 0 1530 431" width="1530" height="431">
	<title>tarsus-logo-bw-svg</title>
	<style>
		.s0 { fill: #ffffff } 
		.s1 { fill: #748792 } 
		.s2 { fill: #b2bdc3 } 
		.s3 { fill: #e5e9eb } 
	</style>
	<g id="Layer">
		<g id="Layer">
			<path id="Layer" class="s0" d="m668.4 164.5h-53.3v132.4h-37.5v-132.4h-53.3v-32.2h144.1z"/>
			<path id="Layer" fill-rule="evenodd" class="s0" d="m855.8 132.3v164.6h-36v-15.9c-13.7 12.5-31.9 20.2-52.8 20.2-46.3 0-83.4-38.5-83.4-86.5 0-48.1 37.1-86.6 83.4-86.6 21 0 40.8 8.8 52.8 21.6v-17.4zm-36.2 112.2v-59.6c-12.3-17.4-29.5-23.9-47.7-23.9-30.1 0-52.2 24.2-52.2 53.7 0 29.4 22.1 53.6 52.2 53.6 18.4-0.2 35.5-6.4 47.7-23.8z"/>
			<path id="Layer" class="s0" d="m1090.1 271.3c21.4 0 36-7.1 36-19.9 0-9.9-8-16.8-22-19.3l-36.4-6.2c-25.2-4.3-48.7-16.8-48.7-46.6 0-31.9 27.7-51.5 68.6-51.5 31.9 0 68.6 10.9 72.2 54h-33.5c-1.8-18-17.5-24.9-38.5-24.9-21.1 0-32.6 7.8-32.6 19.3 0 8.7 6.3 17.1 25.5 20.2l30.8 5c24.8 4.6 49.3 15.4 49.3 47.2 0 34.7-30.4 52.4-71.7 52.4-38.8 0-72.2-15.4-76.3-58.9l33.5 0.4c4 20.4 18.9 28.8 43.8 28.8z"/>
			<path id="Layer" class="s0" d="m1458.9 271.3c21.4 0 36.1-7.1 36.1-19.9 0-9.9-8.1-16.8-22.1-19.3l-36.3-6.2c-25.2-4.3-48.7-16.8-48.7-46.6 0-31.9 27.6-51.5 68.6-51.5 31.9 0 68.6 10.9 72.2 54h-33.6c-1.8-18-17.4-24.9-38.5-24.9-21 0-32.5 7.8-32.5 19.3 0 8.7 6.2 17.1 25.5 20.2l30.7 5c24.9 4.6 49.4 15.4 49.4 47.2 0 34.7-30.5 52.4-71.8 52.4-38.8 0-72.2-15.4-76.3-58.9l33.6 0.4c3.8 20.4 18.9 28.8 43.7 28.8z"/>
			<path id="Layer" class="s0" d="m931.8 296.3h-36v-164.7h36.2v17.8c9.9-12.7 31.7-21.9 52.8-21.9q4.2 0 8.4 0.5v33.4c0 0-8.9-0.8-13.7-0.8-18.2 0-35.3 6.4-47.7 23.8z"/>
			<path id="Layer" class="s0" d="m1272.5 301c-48.2 0-79.3-32.4-79.3-82.5v-86.2l36.1-0.4 0.3 86.6c0 28.7 17.3 48.2 42.9 48.2 25.9 0 43.3-19.5 43.3-48.2v-86.2l35.7-0.4 0.3 86.6c0.2 50.1-31.1 82.5-79.3 82.5z"/>
		</g>
	</g>
	<g id="Layer">
		<g id="Layer">
			<g id="Layer">
				<path id="Layer" class="s1" d="m0 215.5c0-13.5 1.3-26.6 3.6-39.5h194l-149.9 174.7c-29.8-36.8-47.7-83.9-47.7-135.2z"/>
				<g id="Layer">
					<path id="Layer" class="s2" d="m197.6 176v254.2c-60.6-5-113.9-34.9-149.9-79.5z"/>
				</g>
			</g>
			<g id="Layer">
				<path id="Layer" class="s2" d="m383.3 350.7l-149.9-174.7h194c2.3 12.9 3.6 26 3.6 39.5 0 51.3-17.9 98.4-47.7 135.2z"/>
				<g id="Layer">
					<path id="Layer" class="s0" d="m383.3 350.7c-36 44.6-89.3 74.5-149.9 79.5v-254.2z"/>
				</g>
			</g>
		</g>
		<path id="Layer" class="s2" d="m325.6 30.3l-110.1 110v-140.3c40.2 0 77.8 11 110.1 30.3z"/>
		<path id="Layer" class="s1" d="m215.5 0v140.3l-110-110c32.2-19.3 69.7-30.3 110-30.3z"/>
		<g id="Layer">
			<path id="Layer" class="s0" d="m105.5 30.3l110 110h-202c17.3-46.4 50-85.2 92-110z"/>
		</g>
		<path id="Layer" class="s3" d="m325.6 30.3c41.9 25 74.7 63.6 91.9 110h-202z"/>
	</g>
</svg>