<svg version="1.2" baseProfile="tiny-ps" xmlns="http://www.w3.org/2000/svg" viewBox="0 0 1669 315" width="1669" height="315">
	<title>TaskUs Investor Presentation August 10 2021 (FINAL)-1-pdf-svg</title>
	<defs>
		<clipPath clipPathUnits="userSpaceOnUse" id="cp1">
			<path d="M-382.98 -568.24L13260.41 -568.24L13260.41 7102.94L-382.98 7102.94L-382.98 -568.24Z" />
		</clipPath>
	</defs>
	<style>
		tspan { white-space:pre }
		.shp0 { fill: #ffd400 } 
		.shp1 { fill: #ff0074 } 
		.shp2 { fill: #005cff } 
		.shp3 { fill: #000000 } 
	</style>
	<g id="Clip-Path: Page 1" clip-path="url(#cp1)">
		<g id="Page 1">
			<path id="Path 21" class="shp0" d="M236.75 157.69L236.75 314.99L394.12 314.99L410.42 313.48L425.29 309.03L438.65 301.64L450.5 291.22L459.4 280.9L466.79 267.54L471.24 252.68L472.76 236.39L471.24 220L466.79 205.23L459.4 191.87L450.5 179.94L438.65 171.04L425.29 163.65L410.42 159.2L394.12 157.69L236.75 157.69Z" />
			<path id="Path 22" class="shp1" d="M0.74 0.47L0.74 196.33L2.25 209.68L3.67 220L6.71 231.93L11.16 242.26L15.61 252.68L21.49 263.09L28.97 272L36.36 280.9L43.75 288.28L52.66 294.25L63.08 300.12L73.5 306.09L83.83 309.03L95.77 312.06L107.61 314.99L131.39 314.99L143.23 312.06L155.08 309.03L165.5 306.09L175.92 300.12L184.83 294.25L193.73 288.28L202.64 280.9L210.03 272L217.42 263.09L223.39 252.68L227.84 242.26L232.3 231.93L235.23 220L236.75 209.68L236.75 196.33L236.75 0.47L0.74 0.47Z" />
			<path id="Path 23" class="shp2" d="M315.39 0.47L300.61 1.99L285.73 6.44L272.37 13.83L260.53 22.73L250.11 34.57L244.14 47.92L238.26 62.79L236.75 79.08L238.26 95.46L244.14 110.24L250.11 123.59L260.53 134.01L272.37 144.33L285.73 151.81L300.61 156.26L315.39 157.69L471.24 157.69L471.24 0.47L315.39 0.47Z" />
			<path id="Path 24" class="shp3" d="M594.51 44.99L594.51 76.14L661.3 76.14L661.3 266.03L692.48 266.03L692.48 76.14L760.69 76.14L760.69 44.99L594.51 44.99Z" />
			<path id="Path 25" fill-rule="evenodd" class="shp3" d="M827.49 96.88L836.39 98.4L843.88 101.34L852.79 104.37L860.18 108.82L867.57 113.17L879.5 125.11L886.89 135.43L891.35 144.33L895.8 154.75L898.74 163.65L900.25 177.01L900.25 266.03L870.6 266.03L870.6 245.29L860.18 254.19L848.33 261.58L840.85 266.03L833.46 267.54L826.07 268.96L817.16 270.48L800.77 267.54L784.47 263.09L771.12 255.61L759.27 245.29L748.85 231.93L741.46 217.07L737.01 200.78L735.49 182.97L737.01 165.17L741.46 148.78L748.85 135.43L759.27 122.08L771.12 111.75L784.47 104.37L800.77 98.4L817.16 96.88L827.49 96.88ZM806.74 128.04L797.83 130.98L788.93 136.94L781.54 144.33L775.57 151.81L771.12 162.14L768.18 172.55L766.66 184.39L768.18 194.81L771.12 205.23L775.57 215.55L781.54 223.03L788.93 230.42L797.83 234.87L806.74 237.81L817.16 239.32L827.49 237.81L837.91 234.87L846.82 230.42L854.21 223.03L860.18 214.13L864.63 205.23L869.08 194.81L869.08 172.55L864.63 162.14L860.18 151.81L854.21 144.33L846.82 136.94L837.91 130.98L827.49 128.04L817.16 126.53L806.74 128.04ZM1023.42 99.91L1033.85 104.37L1044.27 110.24L1051.66 119.14L1057.63 128.04L1062.08 136.94L1065.02 148.78L1065.02 151.81L1033.85 151.81L1032.33 150.3L1030.91 144.33L1029.39 139.88L1024.94 135.43L1016.03 129.56L1010.06 128.04L996.7 126.53L983.35 128.04L973.02 132.49L968.57 135.43L965.53 138.46L964.11 141.4L962.6 145.85L964.11 148.78L964.11 151.81L967.05 154.75L969.99 156.26L981.92 160.72L1001.16 163.65L1024.94 168.1L1035.36 171.04L1045.69 175.49L1054.59 182.97L1062.08 190.36L1065.02 196.33L1066.53 200.78L1067.95 208.16L1067.95 215.55L1066.53 227.48L1063.5 237.81L1057.63 246.71L1048.72 254.19L1039.81 261.58L1027.88 266.03L1014.52 268.96L999.74 270.48L984.86 268.96L971.5 266.03L959.66 261.58L949.24 254.19L940.33 246.71L934.36 236.39L928.49 225.97L925.46 212.61L925.46 209.68L958.14 209.68L958.14 212.61L959.66 218.58L962.6 224.45L967.05 228.9L971.5 231.93L977.47 236.39L984.86 237.81L992.25 239.32L999.74 240.84L1008.64 239.32L1016.03 237.81L1023.42 236.39L1027.88 233.36L1032.33 228.9L1035.36 225.97L1036.78 221.52L1036.78 209.68L1033.85 206.65L1030.91 203.71L1026.45 200.78L1018.97 199.26L996.7 194.81L981.92 191.87L969.99 188.84L958.14 185.91L949.24 179.94L941.85 174.07L935.88 166.59L932.94 157.69L931.42 147.36L932.94 138.46L935.88 129.56L940.33 120.66L947.72 113.17L956.63 105.79L968.57 101.34L981.92 98.4L996.7 96.88L1023.42 99.91ZM1125.84 44.99L1125.84 169.62L1195.67 101.34L1241.62 101.34L1176.34 163.65L1246.08 266.03L1207.51 266.03L1154.08 185.91L1125.84 212.61L1125.84 266.03L1094.67 266.03L1094.67 44.99L1125.84 44.99ZM1525.2 98.4L1537.04 99.91L1548.88 104.37L1557.79 110.24L1566.7 119.14L1572.66 128.04L1577.12 136.94L1578.63 148.78L1578.63 151.81L1547.46 151.81L1547.46 150.3L1545.95 144.33L1543.01 139.88L1539.98 135.43L1535.52 132.49L1529.65 129.56L1525.2 128.04L1511.84 126.53L1498.48 128.04L1486.54 132.49L1483.6 135.43L1480.67 138.46L1477.63 141.4L1477.63 148.78L1479.15 151.81L1480.67 154.75L1483.6 156.26L1495.45 160.72L1516.29 163.65L1538.56 168.1L1550.4 171.04L1560.82 175.49L1569.73 182.97L1575.6 190.36L1578.63 196.33L1580.05 200.78L1581.57 208.16L1581.57 227.48L1577.12 237.81L1571.15 246.71L1563.76 254.19L1553.34 261.58L1541.49 266.03L1528.13 268.96L1514.77 270.48L1499.9 268.96L1486.54 266.03L1474.7 261.58L1464.28 254.19L1455.37 246.71L1447.98 236.39L1443.53 225.97L1440.59 212.61L1440.59 209.68L1471.76 209.68L1471.76 212.61L1473.18 218.58L1476.21 224.45L1480.67 228.9L1486.54 231.93L1492.51 236.39L1498.48 237.81L1505.87 239.32L1514.77 240.84L1522.16 239.32L1531.07 237.81L1537.04 236.39L1541.49 233.36L1548.88 225.97L1551.91 217.07L1550.4 209.68L1548.88 206.65L1545.95 203.71L1539.98 200.78L1532.59 199.26L1510.32 194.81L1496.96 191.87L1483.6 188.84L1473.18 185.91L1462.85 179.94L1455.37 174.07L1450.92 166.59L1446.46 157.69L1446.46 138.46L1449.49 129.56L1455.37 120.66L1461.34 113.17L1470.24 105.79L1482.09 101.34L1495.45 98.4L1511.84 96.88L1525.2 98.4ZM1295.06 44.99L1295.06 188.84L1296.58 199.26L1299.51 208.16L1303.97 217.07L1309.93 223.03L1315.9 228.9L1324.81 233.36L1333.72 236.39L1344.04 237.81L1352.95 236.39L1361.85 233.36L1370.76 228.9L1378.25 223.03L1384.12 217.07L1388.57 208.16L1391.61 199.26L1391.61 44.99L1424.2 44.99L1424.2 188.84L1422.78 205.23L1416.81 220L1409.42 233.36L1400.51 245.29L1388.57 255.61L1375.21 263.09L1360.43 267.54L1344.04 268.96L1327.75 267.54L1312.87 263.09L1299.51 255.61L1287.67 245.29L1277.25 233.36L1269.86 220L1265.4 205.23L1263.89 188.84L1263.89 44.99L1295.06 44.99ZM1618.71 41.86L1618.71 47.35L1601.75 47.35L1601.75 89.5L1595.31 89.5L1595.31 47.35L1578.44 47.35L1578.44 41.86L1618.71 41.86ZM1634.53 41.86L1646.66 74.25L1658.88 41.86L1668.45 41.86L1668.45 89.5L1662.2 89.5L1662.2 47.73L1649.88 80.31L1643.44 80.31L1631.12 47.73L1631.12 89.5L1624.87 89.5L1624.87 41.86L1634.53 41.86Z" />
		</g>
	</g>
</svg>