<svg version="1.2" baseProfile="tiny-ps" xmlns="http://www.w3.org/2000/svg" viewBox="0 0 1371 913" width="1371" height="913">
	<title>TaskUs Investor Presentation August 10 2021 (FINAL)-1-pdf-svg</title>
	<defs>
		<clipPath clipPathUnits="userSpaceOnUse" id="cp1">
			<path d="M-1113.7 -1649.78L38489.62 -1649.78L38489.62 20608.8L-1113.7 20608.8L-1113.7 -1649.78Z" />
		</clipPath>
	</defs>
	<style>
		tspan { white-space:pre }
		.shp0 { fill: #ffd400 } 
		.shp1 { fill: #ff0074 } 
		.shp2 { fill: #005cff } 
	</style>
	<g id="Clip-Path: Page 1" clip-path="url(#cp1)">
		<g id="Page 1">
			<path id="Path 21" class="shp0" d="M685.22 456.54L685.22 912.98L1142.04 912.98L1189.34 908.58L1232.52 895.66L1271.3 874.23L1305.67 844L1331.53 814.05L1352.98 775.3L1365.9 732.16L1370.31 684.89L1365.9 637.35L1352.98 594.49L1331.53 555.74L1305.67 521.12L1271.3 495.28L1232.52 473.85L1189.34 460.93L1142.04 456.54L685.22 456.54Z" />
			<path id="Path 22" class="shp1" d="M0.14 0.37L0.14 568.65L4.54 607.4L8.67 637.35L17.47 671.98L30.39 701.93L43.32 732.16L60.37 762.39L82.1 788.22L103.55 814.05L125 835.48L150.85 852.8L181.11 869.83L211.36 887.15L241.34 895.66L275.99 904.46L310.37 912.98L379.4 912.98L413.77 904.46L448.15 895.66L478.41 887.15L508.66 869.83L534.51 852.8L560.36 835.48L586.21 814.05L607.67 788.22L629.12 762.39L646.44 732.16L659.37 701.93L672.3 671.98L680.82 637.35L685.22 607.4L685.22 568.65L685.22 0.37L0.14 0.37Z" />
			<path id="Path 23" class="shp2" d="M913.49 0.37L870.59 4.77L827.41 17.69L788.63 39.12L754.25 64.95L724 99.3L706.67 138.05L689.62 181.19L685.22 228.46L689.62 276L706.67 318.86L724 357.61L754.25 387.84L788.63 417.79L827.41 439.5L870.59 452.42L913.49 456.54L1365.9 456.54L1365.9 0.37L913.49 0.37Z" />
		</g>
	</g>
</svg>