<svg version="1.2" baseProfile="tiny-ps" xmlns="http://www.w3.org/2000/svg" viewBox="0 0 1572 1000" width="1572" height="1000">
	<title>integrated-annual-report-fy-2020-21-1-pdf-svg copy-svg</title>
	<defs>
		<clipPath clipPathUnits="userSpaceOnUse" id="cp1">
			<path d="M-20742.54 -1457.28L3291.62 -1457.28L3291.62 29145.6L-20742.54 29145.6L-20742.54 -1457.28Z" />
		</clipPath>
	</defs>
	<style>
		tspan { white-space:pre }
		.shp0 { fill: #1268b3 } 
	</style>
	<g id="Clip-Path: Clip-Path: Page 1" clip-path="url(#cp1)">
		<g id="Clip-Path: Page 1">
			<g id="Page 1">
				<path id="Path 786" fill-rule="evenodd" class="shp0" d="M880.71 248.75C859.47 248.75 842.68 254.82 832.16 269.19C819.01 283.16 821.44 337.81 821.44 364.12L827.71 997.22C814.76 999.25 800.2 999.25 787.45 999.25C772.28 999.25 759.53 997.22 746.99 997.22L753.46 364.12C753.46 337.81 753.46 283.16 740.31 269.19C731.82 254.82 715.02 248.75 691.56 248.75C451.62 254.82 194.49 299.55 43.77 333.76C62.58 299.55 88.07 264.94 117.81 234.58C188.01 161.72 285.73 103.22 400.64 62.74C517.57 20.24 651.5 0 787.45 0C923.4 0 1055.31 20.24 1172.24 62.74C1288.77 103.22 1386.69 161.72 1456.48 234.58C1486.42 264.94 1511.91 299.55 1531.13 333.76C1380.01 299.55 1121.26 254.82 880.71 248.75ZM1573.82 499.52C1573.82 718.12 1350.47 904.12 1040.13 970.91C1031.84 936.5 978.63 730.26 936.15 489.61C933.92 483.53 933.92 477.26 931.9 471.39C921.38 390.43 921.38 345.9 1048.63 354C1193.28 360.07 1341.98 370.19 1563.1 416.74C1569.17 443.05 1573.82 471.39 1573.82 499.52ZM638.75 483.33C595.87 728.24 540.84 938.53 532.34 972.94C487.63 962.82 443.12 950.67 400.64 934.48C285.73 894 188.22 835.3 117.81 764.46C41.34 685.53 0.88 592.63 0.88 499.52C0.88 471.19 5.33 442.85 11.8 416.54C232.52 370.19 379.19 360.07 525.87 354C651.5 345.9 653.32 390.43 640.78 471.19C640.78 475.44 640.78 479.28 638.75 483.33Z" />
			</g>
		</g>
	</g>
</svg>