<svg version="1.2" xmlns="http://www.w3.org/2000/svg" viewBox="0 0 559 571" width="559" height="571">
	<title>Tate_&amp;_Lyle_logo_2007-svg</title>
	<defs>
		<clipPath clipPathUnits="userSpaceOnUse" id="cp1">
			<path d="m-2866.47-493.24h6322.87v2144.56h-6322.87z"/>
		</clipPath>
		<clipPath clipPathUnits="userSpaceOnUse" id="cp2">
			<path d="m-2613.19-263.94h5703.42v1582.33h-5703.42z"/>
		</clipPath>
		<clipPath clipPathUnits="userSpaceOnUse" id="cp3">
			<path d="m-13682.93-5469.52h21373.09v30494.82h-21373.09z"/>
		</clipPath>
		<clipPath clipPathUnits="userSpaceOnUse" id="cp4">
			<path d="m-14022.65-5809.81h22053.58v31175.39h-22053.58z"/>
		</clipPath>
	</defs>
	<style>
		.s0 { fill: #000000 } 
		.s1 { fill: #ffffff } 
	</style>
	<g id="Layer">
		<g id="Layer">
			<g id="Layer">
				<g id="Clip-Path" clip-path="url(#cp1)">
					<g id="Layer">
						<g id="Clip-Path" clip-path="url(#cp2)">
							<g id="Layer">
								<g id="Clip-Path" clip-path="url(#cp3)">
									<g id="Layer">
										<g id="Clip-Path" clip-path="url(#cp4)">
											<g id="Layer">
												<g id="Layer">
													<path id="Layer" class="s0" d="m530.2 31.2v523.5h-523.2v-523.5z"/>
												</g>
												<path id="Layer" fill-rule="evenodd" class="s1" d="m557.8 208.1v29.9c-74.8 15.7-63.9 65-145.8 174.3 15 18.1 33.1 40.9 43.3 51.1 54.3 54.3 38.6 65.7 103.5 69v29c0 0-32.3 0.5-36.4 0.5h-27.6c-61.3 0-134.2-8.3-168.8-60.2-62.2 56.6-100.8 68.9-162.1 68.9-109.4 0-163.7-75.5-163.7-145.4 0-64.5 37.2-99.9 143.3-174.6-40.8-44.8-57.4-76.2-57.4-106.9 0-64.5 129.2-143.5 178-143.5 61.4 0 100.7 70.8 100.7 101.4 0 33.9-26.7 57.9-106.9 108.2 41.7 36.2 88.9 106.1 135.3 176.1 33.1-44 45.8-83.7 48.9-103.9 4.8-30.6-19.6-38.5-49.5-44v-29.9zm-315.8 296.7c6.7-0.6 28.2 5.9 65.9-27.1-43.2-76.3-108.5-163.5-149.5-199.7-63.7 44-56.7 76.8-57.1 97.9-1.1 63.8 70.3 136 140.7 128.9zm-7.8-317.2c47.2-27.5 64.7-47.1 64.7-73.1 0-27.5-33.8-71.5-63.7-71.5-35.4 0-67.8 26.6-67.8 57.3 0 23.6 24.4 50.3 66.8 87.3z"/>
											</g>
										</g>
									</g>
								</g>
							</g>
						</g>
					</g>
				</g>
			</g>
		</g>
	</g>
</svg>