<svg version="1.2" xmlns="http://www.w3.org/2000/svg" viewBox="0 0 1564 1565" width="1564" height="1565">
	<title>tcb_logo-svg</title>
	<defs>
		<clipPath clipPathUnits="userSpaceOnUse" id="cp1">
			<path d="m0-1071.69h14544.01v4851.13h-14544.01z"/>
		</clipPath>
	</defs>
	<style>
		.s0 { fill: #edaa00 } 
	</style>
	<g id="Clip-Path: a" clip-path="url(#cp1)">
		<g id="a">
			<g id="Layer">
				<g id="Layer">
					<path id="Layer" fill-rule="evenodd" class="s0" d="m1563.5 782.6c0 207.5-82.4 406.4-229 553.1-146.6 146.7-345.4 229.2-552.8 229.2-207.3 0-406.1-82.5-552.7-229.2-146.6-146.7-229-345.6-229-553.1 0 0 0.9-324.5 147.1-437.9 146.3-113.3 275.4-5.2 396.6 176.7 121.2 182 162.5 533.1 164.1 483.2 1.6-49.8 0.3-99.7-4-149.4-4.2-49.7-11.5-99.1-21.6-147.9-10.2-48.8-23.2-97-39.1-144.3-15.8-47.3-34.5-93.6-55.9-138.6-125.1-259.9-402.4-156.2-331.1-221.1 71.3-64.8 154-115.9 243.9-150.6 89.9-34.8 185.4-52.6 281.8-52.6 96.3 0 191.8 17.8 281.7 52.6 89.9 34.7 172.6 85.8 243.9 150.6 0 0-206-38.5-331.2 221.2-21.4 45.1-40 91.4-55.9 138.6-15.8 47.3-28.9 95.5-39 144.3-10.1 48.8-17.4 98.2-21.6 147.9-4.3 49.6-5.6 99.5-4 149.3 0 0 42.8-301.2 164-483.2 121.3-181.9 250.3-290 396.6-176.7 146.2 113.5 147.2 230.4 147.2 437.9zm-1344.1 256.9c27.4 59.6 64 114.6 108.6 162.7 44.6 48.2 96.6 89 153.9 120.8 57.4 31.9 119.4 54.4 183.9 66.8q-9.6-65.4-22.6-130.1-13.1-64.8-29.6-128.7-16.5-64-36.4-127-19.9-62.9-43.2-124.8c0 0-96.2-235.3-249.9-235.3-153.7 0-117.1 207-117.1 207 7.4 65.2 25.1 128.9 52.4 188.6zm1060-395.5c-153.7 0-234.3 194.1-249.8 235.3q-23.3 61.8-43.2 124.8-19.9 63-36.4 126.9-16.5 64-29.6 128.7-13 64.8-22.6 130.1c64.4-12.4 126.5-34.9 183.9-66.8 57.3-31.8 109.3-72.6 153.9-120.8 44.6-48.1 81.2-103.1 108.6-162.7 27.3-59.7 45.1-123.4 52.5-188.6 0 0.1 36.5-206.9-117.3-206.9z"/>
				</g>
			</g>
		</g>
	</g>
</svg>