<svg version="1.2" xmlns="http://www.w3.org/2000/svg" viewBox="0 0 1550 168" width="1550" height="168">
	<title>tcb_logo-svg</title>
	<defs>
		<clipPath clipPathUnits="userSpaceOnUse" id="cp1">
			<path d="m0-113h1550v517h-1550z"/>
		</clipPath>
	</defs>
	<style>
		.s0 { fill: #ffffff } 
	</style>
	<g id="Clip-Path: a" clip-path="url(#cp1)">
		<g id="a">
			<g id="Layer">
				<g id="Layer">
					<path id="Layer" fill-rule="evenodd" class="s0" d="m254.2 141.8c-19.8 0-27.6-7.8-27.6-28.9v-55.2l-18.7-1.6v-17.2h18.7v-25.5h23.5v25.5h24.4v18.8h-24.4v54.9c0 9.3 0.7 11 9.3 11 5.1 0 12.2-0.3 15.1-0.7v16.1q-2.5 0.6-5 1.1-2.5 0.5-5.1 0.9-2.5 0.4-5.1 0.6-2.5 0.2-5.1 0.2zm56.2-75v72.3h-23.4v-100.3h22.3v11.1q3.6-2.9 7.6-5 4.1-2.2 8.5-3.5 4.4-1.4 8.9-2 4.6-0.5 9.2-0.2v21.6q-4.3-0.1-8.5 0.3-4.2 0.3-8.4 1.1-4.2 0.8-8.2 1.9-4.1 1.2-8 2.7zm45.9-66.1h24.2v22.7h-24.2zm0.2 38.1h23.6v100.3h-23.6zm114.5 102.9c-28.8 0-42.1-16.3-42.1-46.5v-12.6c0-30.6 13.3-46.3 42.1-46.3q4-0.1 7.9 0.1 3.9 0.2 7.8 0.7 3.8 0.5 7.7 1.2 3.8 0.7 7.6 1.7v17.8c-12.6-1-21.3-1.6-26.9-1.6-14.6 0-22.7 4.7-22.7 26.4v12.7c0 21.5 8.2 26.5 22.7 26.5 5.6 0 14.3-0.5 26.9-1.6v17.8q-3.8 1-7.6 1.7-3.9 0.7-7.7 1.2-3.9 0.4-7.8 0.7-3.9 0.2-7.9 0.1zm84.9 0c-29.2 0-45.2-14.9-45.2-46.6v-12.3c0-31.6 16-46.5 45.2-46.5 29.2 0 45.2 14.9 45.2 46.5v12.3c0 31.7-16 46.6-45.2 46.6zm21.9-58.9c0-19.3-6.6-26.4-21.9-26.4-15.1 0-21.9 7.1-21.9 26.4v12.3c0 19.2 6.6 26.5 21.9 26.5 15.3 0 21.9-7.3 21.9-26.5zm102.7 56.3v-8.1q-3.9 2.4-8.1 4.3-4.2 1.9-8.6 3.2-4.4 1.4-8.9 2.2-4.5 0.8-9.1 1c-26.2 0-30.1-18.5-30.1-39.2v-63.7h23.3v63.7c0 14.3 2.7 19.5 14.5 19.5q3.3-0.3 6.7-0.9 3.3-0.6 6.6-1.4 3.3-0.9 6.5-2 3.2-1.1 6.3-2.5v-76.4h23.5v100.3zm104.9 0v-63.6c0-14.5-2.5-19.4-14-19.4q-3.5 0.2-6.8 0.8-3.4 0.5-6.7 1.4-3.3 0.8-6.6 2-3.2 1.1-6.3 2.5v76.3h-23.3v-100.3h22.4v8q3.7-2.4 7.7-4.2 3.9-1.9 8.1-3.2 4.2-1.4 8.5-2.1 4.3-0.8 8.6-1c28.3 0 32.1 16.4 32.1 39.2v63.6zm79.4 2.6c-19.8 0-27.6-7.8-27.6-28.9v-55.2l-18.7-1.6v-17.2h18.7v-25.5h23.5v25.5h24.4v18.8h-24.4v54.9c0 9.3 0.7 11.1 9.2 11.1 5.2 0 12.3-0.4 15.2-0.8v16.1q-2.5 0.6-5 1.1-2.5 0.5-5.1 0.9-2.5 0.4-5.1 0.6-2.6 0.2-5.1 0.2zm36.5-141h24.2v22.6h-24.2zm0.1 38.1h23.7v100.3h-23.7zm60.6 57.5v1.8c0 14.6 2.2 24 26.7 24 10.5 0 23-1 36.2-2.3v17.7q-4.6 1-9.2 1.8-4.6 0.9-9.3 1.4-4.7 0.5-9.4 0.8-4.6 0.3-9.3 0.2c-36.2 0-49-13.9-49-49.1v-6.2c0-33.7 15.3-50.1 45.2-50.1 33.5 0 45.2 21.7 45.2 52.2v7.8zm43.6-16.9c0-11.5-2.3-24.2-21.7-24.2-18.8 0-21.7 12.8-21.7 24.2v1.6h43.5zm70.2 62.2q-4.3 0-8.6-0.3-4.3-0.2-8.6-0.7-4.3-0.5-8.5-1.2-4.3-0.8-8.5-1.7v-16.8c5.2 0.4 20.3 2.4 33.1 2.4 14.6 0 18.5-3.4 18.5-10.6 0-6.9-3-8.7-17.8-14.6l-7.6-3c-18.9-7.5-27.6-16-27.6-31.5 0-20.2 13.3-27.3 40-27.3q4 0 7.9 0.3 4 0.3 7.9 0.8 3.9 0.5 7.8 1.2 3.9 0.7 7.7 1.6v16.4c-11.2-1.1-22.2-1.8-30.9-1.8-12.1 0-17.3 1.1-17.3 8.2 0 6.4 3.6 8.2 15.9 13l8 3.2c21.5 8.8 29 15.5 29.2 32.1 0 18.9-12.7 30.3-40.6 30.3zm125.1 0.2q-5 0-10-0.2-5.1-0.2-10.1-0.6-5.1-0.3-10.1-0.9-5-0.5-10-1.2v-138.2h23.5v40.2q2.8-1.2 5.6-2.1 2.9-1 5.9-1.6 3-0.6 6-0.8 3-0.3 6-0.3c27.8 0 40.6 14.1 40.6 44.6v13.9c0 33.8-16 47.2-47.4 47.2zm23.9-61.3c0-18.2-5.2-24.4-20.1-24.4q-2.7 0-5.3 0.2-2.6 0.2-5.2 0.7-2.6 0.4-5.2 1.2-2.5 0.7-5 1.6v61.1c3.9 0.2 10 0.7 17.3 0.7 16.4 0 23.5-6 23.5-27zm95 58.6v-6.6q-3.5 2.3-7.3 4-3.8 1.8-7.8 2.9-4.1 1.2-8.2 1.8-4.2 0.6-8.4 0.5c-18.7 0-29.3-9.2-29.3-28.6v-3.8c0-26.7 19.2-30.3 47.3-30.3h11.9v-6.2c0-14.2-3-17.1-20.8-17.1q-3.9 0-7.9 0.2-3.9 0.1-7.9 0.3-3.9 0.3-7.8 0.6-4 0.4-7.9 0.9v-15.9q4.3-1.4 8.7-2.4 4.3-1.1 8.8-1.8 4.4-0.7 8.9-1 4.5-0.3 9-0.3c32.1 0 40.4 10.8 40.4 36.5v66.3zm-1.2-45.6h-12.5c-17.3 0-24.6 1.9-24.6 15.1v4.3c0 9.2 5.7 11.7 14.1 11.7q3 0 6-0.5 2.9-0.4 5.8-1.1 2.9-0.8 5.7-1.9 2.8-1.1 5.5-2.5zm103.7 45.6v-63.6c0-14.4-2.5-19.4-14.1-19.4q-3.4 0.2-6.8 0.8-3.3 0.5-6.7 1.4-3.3 0.8-6.5 2-3.2 1.1-6.3 2.5v76.3h-23.4v-100.3h22.5v8q3.7-2.4 7.6-4.2 4-1.9 8.2-3.2 4.1-1.3 8.4-2.1 4.3-0.8 8.7-1c28.3 0 32 16.4 32 39.2v63.6zm99.5 0l-35.4-47.6v47.6h-23.3v-138.4h23.3v82.8l35.6-44.7h26.9l-38.9 48.1 39.9 52.1z"/>
					<path id="Layer" fill-rule="evenodd" class="s0" d="m166.6 84.6c0 22.1-8.8 43.3-24.4 59-15.6 15.6-36.8 24.4-58.9 24.4-22.1 0-43.3-8.8-58.9-24.4-15.6-15.7-24.4-36.9-24.4-59 0 0 0.1-34.6 15.7-46.6 15.6-12.1 29.3-0.6 42.2 18.8 13 19.4 17.4 56.8 17.5 51.5q0.3-8-0.4-15.9-0.7-8-2.3-15.8-1.6-7.8-4.2-15.4-2.5-7.6-5.9-14.8c-13.4-27.7-42.9-16.6-35.3-23.5 7.6-6.9 16.4-12.4 26-16.1 9.6-3.7 19.7-5.6 30-5.6 10.3 0 20.5 1.9 30 5.6 9.6 3.7 18.4 9.2 26 16.1 0 0-21.9-4.1-35.3 23.6q-3.4 7.2-5.9 14.7-2.6 7.6-4.2 15.4-1.6 7.8-2.3 15.8-0.7 7.9-0.4 15.9c0 0 4.6-32.1 17.5-51.5 12.9-19.4 26.7-30.9 42.2-18.8 15.6 12 15.7 24.5 15.7 46.6zm-143.2 27.4c2.9 6.3 6.8 12.2 11.6 17.3 4.7 5.2 10.2 9.5 16.4 12.9 6.1 3.4 12.7 5.8 19.6 7.1q-1.1-6.9-2.5-13.8-1.3-6.9-3.1-13.8-1.8-6.8-3.9-13.5-2.1-6.7-4.6-13.3c0 0-10.2-25.1-26.6-25.1-16.4 0-12.5 22.1-12.5 22.1 0.8 6.9 2.7 13.7 5.6 20.1zm113-42.2c-16.4 0-25 20.7-26.7 25.1q-2.5 6.6-4.6 13.3-2.1 6.7-3.9 13.5-1.7 6.9-3.1 13.8-1.4 6.9-2.4 13.8c6.8-1.3 13.5-3.7 19.6-7.1 6.1-3.4 11.6-7.7 16.4-12.9 4.7-5.1 8.6-10.9 11.6-17.3 2.9-6.4 4.8-13.2 5.5-20.1 0 0 3.9-22.1-12.4-22.1z"/>
				</g>
			</g>
		</g>
	</g>
</svg>