<svg version="1.2" xmlns="http://www.w3.org/2000/svg" viewBox="0 0 1518 301" width="1518" height="301">
	<title>Transcontinental-svg</title>
	<style>
		.s0 { fill: #231f20 } 
	</style>
	<g id="layer1">
		<g id="g2138">
			<path id="path587" class="s0" d="m371.8 252.1c0.8 0.9 1.4 2 1.4 3.3 0 1-0.3 2-1 2.8-22.8 26-56.3 42.4-93.6 42.4-68.8 0-124.6-55.9-124.6-124.8 0-69 55.8-124.8 124.6-124.8 36.1 0 68.4 15.3 91.2 39.8 0.7 0.8 1.2 1.9 1.2 3.1 0 1.1-0.4 2.1-1 2.9l-36.6 38.2c-0.8 0.8-1.9 1.4-3.1 1.4-1.2 0-2.3-0.5-3.1-1.3-12-13.2-29.3-21.5-48.6-21.5-34.3 0-60 27.8-60 62.2 0 34.3 25.7 62.2 60 62.2 19.8 0 37.9-7.8 50.2-21.5 0.8-0.8 1.8-1.3 3-1.3 1.2 0 2.3 0.5 3 1.3zm-275.3-250.1v49.8c0 2.5 2.1 4.6 4.5 4.6l47.3-0.2c2.5 0 4.5 2.1 4.5 4.6v49.2c0 2.5-2 4.5-4.5 4.5h-47.3c-2.4 0-4.5 2-4.5 4.6v61.3 12.9l0.1 1.1v14.6c0 14.7 11.7 28.2 28.2 28.2 9.3 0 17.5-0.3 22.6-0.5h0.9c2.5 0 4.5 2 4.5 4.5v49.9c0 2.3-1.3 3.9-3.8 4.5-7.7 2-15.9 3.1-24.3 3.1-53 0-96.1-22.4-96.1-96.3v-83.3c0-2.6-2-4.6-4.6-4.6h-19.5c-2.5 0-4.5-2-4.5-4.5v-47.6c0-2.5 2.3-6 4.8-7.3 0 0 86.3-53.8 87.9-54.8 1.6-0.9 3.8 0.2 3.8 1.7z"/>
			<path id="path583" fill-rule="evenodd" class="s0" d="m490.8 215.9c-22.1 0-40-18-40-40.1 0-22.2 17.9-40.1 40-40.1 22.1 0 40 17.9 40 40.1 0 22.1-17.9 40.1-40 40.1zm162-69.1h-14.1l-1.3 1.2v65.5l-1.2 1.2h-8.6l-1.3-1.2v-65.5l-1.2-1.2h-14.2l-1.2-1.3v-7.4l1.2-1.2h41.9l1.3 1.2v7.4zm52.2 68l-1.1-0.9-11.4-33-1-0.7h-12.2l-1.3 1.2v32.1l-1.2 1.3h-8.6l-1.3-1.3v-75.3l1.3-1.3h24.6c13.6 0 22.2 8.7 22.2 22.3v1.2c0 6.7-5.9 14.4-10.7 16.7l-0.7 1c0 0.3 0.5 1.6 0.9 2.9l10.3 29.7c0.5 1.4 1 2.6 1 3.1 0 0-1.3 1-1.3 1zm-1.1-56.9c0-6-5-11.1-11.1-11.1h-13.5l-1.3 1.3v21l1.3 1.2h13.5c6.1 0 11.1-5.1 11.1-11.1zm71.9 56.8h-9.2l-1.3-0.9-4.6-16.3-1.2-0.7h-20l-1.2 0.7-4.6 16.3-1.2 0.9h-9.2l-1.4-1c0-0.5 0.6-2.4 1.2-4.2l21.9-71.8 1.2-0.8h6.7l1.2 0.8 22 72.2c0.4 1.4 1.1 3.3 1.1 3.8 0 0-1.4 1-1.4 1zm-19.2-31.8l-5.3-20.8c-0.3-1-1.3-4.5-1.5-5.5h-0.5c-0.3 1-1.2 4.7-1.5 5.6l-5.3 20.2c-0.4 1.5-0.9 2.8-0.9 3.4l1.4 1.1h13l1.3-1.1c0-0.5-0.4-1.5-0.7-2.9zm80.1 31.8h-7.9l-1.1-0.6-26.3-47.8c-0.5-0.9-1.8-3.5-2.2-4.5l-0.5 0.2c0.3 2.9 0.4 18.9 0.4 28.6v22.9l-1.3 1.2h-8.6l-1.2-1.2v-75.4l1.2-1.2h7.9l1.1 0.6 26.3 47.9c0.4 0.6 1.8 3.5 2.2 4.5l0.5-0.2c-0.3-2.9-0.4-18.9-0.4-28.6v-23l1.3-1.2h8.6l1.2 1.2v75.4c0 0-1.2 1.2-1.2 1.2zm40 1.2h-5.1c-9.9 0-15.4-3.9-18.6-9-1.2-1.7-1.8-3-1.8-3.6l0.6-1 6.3-3.2 2.2-1 1 0.9c2.1 4.6 6.2 7 10.3 7h5.2c6 0 11-5 11-11.1 0-7.8-7.1-11-14.9-14.5-9.6-4.4-20.3-9.3-20.3-23.8 0-12.3 8.6-21 22.2-21h2c9.8 0 15.4 4.1 18.7 9.1 0.7 1.1 1.7 2.7 1.7 3.3l-0.7 1.1-6.7 3.3-1.8 0.8-1-0.8c-2.2-4.4-6.2-6.9-10.2-6.9h-2c-6.1 0-11.1 5.1-11.1 11.1 0 7.2 7.7 9.9 16 13.7 9.3 4.2 19.3 9.9 19.3 24.6 0 12.4-8.7 21-22.3 21zm77.7-7.9c-3.4 4.5-8.7 7.9-17.9 7.9h-3.7c-13.5 0-22.2-8.6-22.2-21v-38.3c0-12.3 8.7-20.9 22.2-20.9h3.7c8.8 0 14.1 3.2 17.6 7.4 1.7 2.2 2.9 4.4 2.9 4.9l-0.7 1.1-6.4 3.2-2.1 0.9-1-0.8c-2.2-4.4-6.2-6.9-10.3-6.9h-3.7c-6 0-11.1 5.1-11.1 11.1v38.3c0 6.1 5.1 11.1 11.1 11.1h3.7c4.2 0 8.1-2.4 10.4-7.1l1-0.8 2 0.9 6.5 3.3 0.7 0.9c0 0.6-1.1 2.7-2.7 4.8zm11.8-51.4c0-11.5 9.4-21 21-21h6.1c11.6 0 21 9.5 21 21v38.3c0 11.6-9.4 21-21 21h-6.1c-11.6 0-21-9.4-21-21zm37 0c0-6.1-5-11.1-11.1-11.1h-3.7c-6 0-11.1 5-11.1 11.1v38.3c0 6 5.1 11.1 11.1 11.1h3.7c6.1 0 11.1-5.1 11.1-11.1zm74.2 58h-7.9l-1.1-0.6-26.2-47.8c-0.5-0.9-1.9-3.4-2.3-4.4l-0.4 0.1c0.2 3 0.3 18.9 0.3 28.6v22.9l-1.2 1.2h-8.6l-1.3-1.2v-75.3l1.3-1.3h7.9l1 0.6 26.3 48c0.4 0.6 1.9 3.4 2.3 4.4l0.4-0.1c-0.2-3-0.3-18.9-0.3-28.7v-22.9l1.2-1.3h8.6l1.3 1.3v75.3c0 0-1.3 1.2-1.3 1.2zm55.6-67.9h-14.2l-1.2 1.2v65.5l-1.2 1.2h-8.7l-1.2-1.2v-65.5l-1.2-1.2h-14.2l-1.2-1.2v-7.4l1.2-1.3h41.9l1.2 1.3v7.4zm22.8 67.9h-8.6l-1.2-1.2v-75.4l1.2-1.2h8.6l1.3 1.2v75.4zm68 0h-7.9l-1.1-0.7-26.3-47.8c-0.4-0.8-1.8-3.4-2.2-4.4l-0.5 0.1c0.3 3 0.4 18.9 0.4 28.7v22.8l-1.2 1.3h-8.7l-1.2-1.3v-75.3l1.2-1.2h7.9l1.1 0.6 26.3 47.9c0.4 0.6 1.9 3.4 2.2 4.4l0.5-0.1c-0.2-3-0.3-18.9-0.3-28.6v-23l1.2-1.2h8.6l1.3 1.2v75.3c0 0-1.3 1.3-1.3 1.3zm61.6 0h-41.9l-1.2-1.3v-75.3l1.2-1.3h41.9l1.3 1.3v7.4l-1.3 1.2h-30.8l-1.2 1.3v21l1.2 1.2h25.3l1.2 1.2v7.4l-1.2 1.3h-25.3l-1.2 1.2v22.2l1.2 1.3h30.8l1.3 1.2v7.4zm65.1 0h-7.9l-1.1-0.6-26.3-47.8c-0.5-0.9-1.8-3.5-2.2-4.5l-0.5 0.2c0.2 3 0.4 18.9 0.4 28.6v22.9l-1.3 1.2h-8.6l-1.2-1.2v-75.3l1.2-1.3h7.9l1.1 0.6 26.3 48c0.3 0.6 1.8 3.4 2.2 4.4l0.5-0.1c-0.3-3-0.4-18.9-0.4-28.7v-22.9l1.3-1.3h8.6l1.2 1.3v75.3c0 0-1.2 1.2-1.2 1.2zm55.2-67.9h-14.2l-1.2 1.2v65.5l-1.3 1.2h-8.6l-1.2-1.2v-65.5l-1.2-1.2h-14.2l-1.3-1.2v-7.4l1.3-1.3h41.9l1.2 1.3v7.4zm54 67.9h-9.2l-1.3-0.9-4.5-16.3-1.3-0.7h-19.9l-1.3 0.7-4.5 16.3-1.3 0.9h-9.2l-1.4-1c0-0.5 0.6-2.4 1.3-4.2l21.8-71.8 1.2-0.8h6.7l1.2 0.8 22 72.2c0.5 1.4 1.1 3.3 1.1 3.8 0 0-1.4 1-1.4 1zm-19.2-31.8l-5.3-20.8c-0.3-1-1.2-4.5-1.5-5.5h-0.5c-0.2 1-1.2 4.7-1.5 5.6l-5.3 20.2c-0.4 1.5-0.8 2.8-0.8 3.4l1.3 1.1h13l1.3-1.1c0-0.5-0.4-1.5-0.7-2.9zm75.3 31.8h-41.9l-1.3-1.3v-75.3l1.3-1.2h8.6l1.3 1.2v65.5l1.2 1.2h30.8l1.3 1.2v7.4z"/>
		</g>
	</g>
</svg>