<svg version="1.2" xmlns="http://www.w3.org/2000/svg" viewBox="0 0 1536 542" width="1536" height="542">
	<title>icons-svg</title>
	<style>
		.s0 { fill: #ffffff } 
	</style>
	<path id="Path_1" class="s0" d="m60.2 344.4h-60.2v-206.3l60.2-30.9zm104.1-0.3h-60.2v-259.6l60.2-30.9zm104-344.1v344.4h-60.1v-313.4z"/>
	<path id="Path_4" fill-rule="evenodd" class="s0" d="m330 172.2h194v41.6h-74.4v130.8h-45.2v-130.8h-74.4zm372 172.4v-45.1c0-11.9-0.4-13.2-16.4-13.2h-84.6v58.1h-45.2v-172.4h130.4c51.4 0 61.9 21.7 61.9 54.3v12q0.1 4-0.6 7.9-0.7 3.9-2.1 7.6-1.5 3.6-3.6 7-2.2 3.3-5 6.2 2.4 2.8 4.3 6 1.8 3.2 3 6.7 1.2 3.5 1.7 7.1 0.6 3.7 0.4 7.4v50.2zm0.8-108.5v-13.4c0-6.6 0-9-23.7-9h-78v31h82.8c18.9 0 18.9-3.8 18.9-8.6zm84.9-63.6h45.3v171.8h-45.3zm505.4 104.7c0 29-6.7 67.7-65 67.7h-79.1c-58.4 0-65.1-38.6-65.1-67.7v-40.2c0-29.1 6.7-67.7 65.1-67.7h79.1c58.3 0 65 38.6 65 67.7zm-164.2 7.1c0 10.5 8.5 19 19 19h81.1c10.5 0 19-8.5 19-19v-54.4c0-10.5-8.5-19-19-19h-81.1c-10.5 0-19 8.5-19 19zm407.1-112.1v172.3h-47.5l-116.9-111.9v111.9h-45.1v-172.3h47.4l116.9 112.1v-112.1zm-665.7 105.1v-40.2c0-29.1 6.8-67.7 65.1-67.7h117.1v41.2h-115.1c-18.6 0-21.8 5.7-21.8 18.5v55.3c0 12.7 3.2 18.5 21.8 18.5h115.1v41.6h-117.1c-58.4 0-65.1-38.7-65.1-67.2zm619.3 241.9h46.4v20.3h-69.9v-99.3l23.4-11.3zm-126.3-89.2l42.4 109.9h-25.6l-6.9-19h-49.1l-6.9 19h-25.7l42.4-109.9zm3.3 70.6l-18-50.4-18.3 50.4zm-162.7-60.4l23.5-11.2v110.9h-23.5zm-151.3-10.3h88.2v20.6h-33v89.2h-23.5v-89.2h-31.7zm-93.9 0h23.9v109.8h-22.5l-53-73.8v73.8h-23.5v-109.8h24l51 71.1zm-228.5 0h77.9v20.1h-54.4v24h53.2v19.9h-53.2v25.2h54.4v20.6h-77.8zm-62.8 54.9c0 33.2-23.8 55-58.4 55h-43.3v-109.9h43.3c34.8 0 58.4 21.8 58.4 54.9zm-55.3 34.4c4.6-0.7 9-2.2 13-4.5 4-2.3 7.6-5.3 10.5-8.9 2.9-3.6 5.1-7.7 6.5-12.1 1.4-4.4 2-9 1.7-13.6-0.3-4.2-1.5-8.4-3.4-12.1-1.9-3.8-4.6-7.2-7.8-9.9-3.2-2.8-7-4.9-11-6.2-4.1-1.3-8.3-1.8-12.6-1.5h-19.8v68.8zm-150.1-79l23.7-11.3v110.9h-23.7zm-70.5 66.4c0 20.1-14.4 35.2-44.1 35.2-4.2 0.2-8.5-0.1-12.7-0.7-4.2-0.7-8.3-1.8-12.3-3.3-3.9-1.5-7.8-3.3-11.4-5.6-3.6-2.3-6.9-4.9-10-7.8l12.8-17.7q3.4 3.5 7.4 6.3 4 2.8 8.6 4.7 4.5 1.9 9.3 2.8 4.8 1 9.7 1c12.9 0 19.2-6.1 19.2-12.3 0-8.3-10-11.1-22.6-14-18-4.4-41.1-9.4-41.1-33.9 0-18.4 15.8-33.2 41.7-33.2q5.8-0.2 11.6 0.7 5.8 0.9 11.3 2.8 5.5 2 10.6 5 5 3 9.4 6.9l-13 17.1q-3.2-2.9-6.9-5.1-3.7-2.3-7.7-3.8-4.1-1.6-8.3-2.4-4.3-0.7-8.6-0.7c-10.5 0-16.2 3.8-16.2 11.2 0 7.5 9.3 9.9 21.9 12.8 18.3 4.1 41.4 9.5 41.4 34zm-232.2-76.7h77.9v20.1h-54.5v24.1h53.1v19.8h-53.1v25.3h54.5v20.5h-78zm-72.1 46.3c-1.1 3.6-2.7 6.9-4.9 9.8-2.2 3-4.8 5.5-7.9 7.6-3.1 2-6.4 3.5-10 4.4l24.7 41.9h-26.9l-21.6-39.4h-17.1v39.3h-23.5v-110h51.5q0.5 0 1 0 0.5-0.1 1-0.1 0.5 0 1 0.1 0.5 0 1 0c4.5 0.1 8.9 1.2 13.1 3 4.1 1.9 7.8 4.5 10.9 7.9 3 3.3 5.4 7.2 6.9 11.4 1.6 4.3 2.3 8.8 2 13.3 0.3 3.6-0.2 7.3-1.2 10.8zm-38.6 4.1q0.3 0.1 0.7 0.1 0.3 0 0.6-0.1 0.3 0 0.6-0.1c4-0.3 7.7-2.2 10.3-5.3 2.6-3 3.9-7 3.5-11-0.3-4-2.2-7.7-5.3-10.3-3-2.6-7-3.8-11-3.6h-24.5v30.3h24.5q0.3 0 0.6 0z"/>
</svg>