<svg version="1.2" xmlns="http://www.w3.org/2000/svg" viewBox="0 0 1540 322" width="1540" height="322">
	<title>icons (2)-svg</title>
	<style>
		.s0 { fill: #00096e } 
	</style>
	<g id="logo">
		<path id="Layer" fill-rule="evenodd" class="s0" d="m138.7 143.9h-62.8v32.1c0 26.1 1.9 35.3 6.3 43.6 3 5.5 6.8 9.3 12.3 12.2 8.3 4.5 17.5 6.4 43.6 6.4h0.6v75.9h-0.6c-40.4 0-60.7-5.4-79.4-15.4-18.7-9.9-33.4-24.6-43.4-43.3-10-18.7-15.3-39-15.3-79.4v-176h75.9v68h62.8zm124.9 80.9c1.5 2.8 3.2 5.2 5.1 7.1 7.5 7.5 17.4 11.5 27.8 11.5 10.4 0 20.2-4 27.7-11.5 2-1.9 3.7-4.3 5.2-7.1 4.4-8.2 6.3-17.5 6.3-43.6v-113.2h75.9v113.2c0 40.4-5.3 60.8-15.3 79.4-5 9.4-11.1 17.7-18.4 25-22.5 22.5-52 33.7-81.4 33.7-29.5 0-59-11.2-81.5-33.7-7.2-7.3-13.4-15.6-18.4-25-10-18.6-15.3-39-15.3-79.4v-113.2h75.9v113.2c0 26.1 1.9 35.4 6.4 43.6zm409.7-110.9l-60.6 45.7c-9.6-12.7-24.7-20.9-41.8-20.9-28.9 0-52.4 23.5-52.4 52.4 0 28.9 23.5 52.3 52.4 52.3 17.1 0 32.2-8.2 41.8-20.8l60.6 45.6c-23.4 31.1-60.6 51.1-102.4 51.1-70.8 0-128.3-57.4-128.3-128.2 0-70.9 57.5-128.3 128.3-128.3 41.8 0 79 20.1 102.4 51.1zm144.2 205.4c-70.9 0-128.2-57.3-128.2-128.2 0-71 57.3-128.3 128.2-128.3 70.9 0 128.2 57.3 128.2 128.3 0 70.9-57.3 128.2-128.2 128.2zm52.3-128.2c0-29-23.4-52.4-52.3-52.4-28.9 0-52.3 23.4-52.3 52.4 0 28.9 23.4 52.3 52.3 52.3 28.9 0 52.3-23.4 52.3-52.3zm298.6 54.9l102.8-178h87.6l-146.5 253.9zm-138.7 0l102.7-178h87.6l-146.5 253.9zm-16.6-75.9c-29 0-52.4-23.4-52.4-52.3 0-29 23.4-52.4 52.4-52.4 28.9 0 52.3 23.4 52.3 52.4 0 28.9-23.4 52.3-52.3 52.3zm526.8 70.4c0 43.7-43 78.8-92.7 78.8-38.9 0-61.7-12.6-95.3-41.6l31.3-54.1c26.5 18.9 47.8 30 66.8 30 12.4 0 22.3-3.7 22.3-12.5 0-10.5-15.4-14.6-30.6-18.7q-2.1-0.6-4.2-1.2c-27.5-7.5-41.7-14.4-53.8-24.9-17-14.7-25.2-33.4-25.2-54.7 0-43.7 39-78.8 88.7-78.8 38.9 0 62.3 15.5 92 39.2l-30.6 52.9c-26.3-19.4-44.8-26.5-61.4-26.5-12.4 0-22.5 5.5-22.5 12.6 0 9.9 12.4 12.8 26.3 16 2.3 0.5 4.7 1 7.1 1.6 27.7 7 43 14.3 55.2 24.8 16.9 14.7 26.6 35.8 26.6 57.1z"/>
	</g>
	<g id="mapMarker">
	</g>
</svg>