<svg version="1.2" xmlns="http://www.w3.org/2000/svg" viewBox="0 0 1454 1528" width="1454" height="1528">
	<title>telia-company-logo-header-svg</title>
	<style>
		.s0 { fill: #ffffff } 
	</style>
	<g id="Symbol">
		<path id="Layer" class="s0" d="m207.7 1179c-50.1-65.3-79.3-108.1-123.8-196 128.2 140.4 415.5 90.8 798.4-93.1 317.5-152.6 557.5-386 569-571.7 1.6 16.1 2.7 32.9 2.4 50.4-2 126.4-5.2 141-21.2 255.9-56.2 138.9-234.5 333.6-432.5 448.4-333.2 193.3-644.4 237.2-792.3 106.1zm-176.2-319.3c-19.8-58.6-30.9-114.7-30.9-164.7 0-389.6 568.7-695 1031.9-695 156.3 0 302 47.4 374.1 171.8 43.9 164.4-207.7 412.3-568.9 586.5-377.4 182.1-700.5 241.7-806.2 101.4zm1342.1-6.4c-141 409.5-439.1 673.7-656.8 673.7-124.4 0-266.1-87.3-390.5-211.4l1.1 1c80.4 64.2 225.8 97.1 479.8-6 316.3-127.8 486.8-309.5 566.4-457.3z"/>
	</g>
</svg>