<svg version="1.2" xmlns="http://www.w3.org/2000/svg" viewBox="0 0 1219 1532" width="1219" height="1532">
	<title>logo_teva-svg</title>
	<style>
		.s0 { fill: #00a03b } 
		.s1 { fill: #afcb37 } 
		.s2 { fill: #3c7e79 } 
		.s3 { fill: #00567a } 
	</style>
	<g id="Layer">
		<path id="Layer" fill-rule="evenodd" class="s0" d="m630.2 1155.1l0.7-210.4c0.1-85.8 17.9-181.6 50.8-279.3 37.4-111.2 91.2-205.7 150.7-274.5l90.8-117.7v492c0 0-293 389.9-293 389.9z"/>
		<path id="Layer" fill-rule="evenodd" class="s1" d="m923.2 273.2l192.9-250.1c3.5-4.8 7.9-9 12.8-12.5 4.9-3.4 10.3-6 16.1-7.7 5.8-1.6 11.8-2.3 17.8-2 5.9 0.2 11.8 1.5 17.4 3.7 5.8 2.4 11.1 5.6 15.9 9.6 4.8 4 9 8.7 12.3 13.9 3.4 5.2 6 10.9 7.7 16.9 1.7 6 2.5 12.2 2.3 18.4l-1.4 310.7-293.8 391.1z"/>
		<path id="Layer" fill-rule="evenodd" class="s2" d="m1217 374.1l-0.8 178.5c2.9 91.7-12.3 197.2-48.3 304.1-32.9 97.7-75.8 183.5-126.8 249.4l-117.9 153.5v-494.4c0 0 293.8-391 293.8-391.1z"/>
		<path id="Layer" fill-rule="evenodd" class="s3" d="m923.3 765.1v494.5l-191.6 249.3c-3.5 4.8-7.9 9.1-12.8 12.5-4.9 3.4-10.4 6.1-16.2 7.7-5.7 1.7-11.7 2.4-17.8 2.1-6-0.3-11.9-1.5-17.5-3.7-5.7-2.4-11.1-5.7-15.8-9.7-4.8-4-9-8.6-12.4-13.9-3.3-5.2-5.9-10.9-7.6-16.9-1.7-6-2.4-12.2-2.3-18.4l1-313.5z"/>
		<path id="Layer" fill-rule="evenodd" class="s0" d="m295.8 765.2v-492l90.8 117.7c59.6 68.8 113.2 163.3 150.7 274.5 32.9 97.7 50.6 193.5 50.8 279.3l0.6 210.4z"/>
		<path id="Layer" fill-rule="evenodd" class="s1" d="m295.7 765.2l-293.8-391.1-1.3-310.7c-0.2-6.2 0.6-12.4 2.2-18.4 1.7-6 4.3-11.7 7.7-16.9 3.4-5.2 7.5-9.9 12.3-13.9 4.8-4 10.1-7.2 15.8-9.6 5.6-2.2 11.5-3.5 17.5-3.8 6-0.3 12 0.4 17.8 2.1 5.8 1.7 11.2 4.3 16.2 7.7 4.9 3.4 9.2 7.7 12.8 12.5l192.9 250.1c-0.1 0-0.1 492-0.1 492z"/>
		<path id="Layer" fill-rule="evenodd" class="s2" d="m295.8 765.2v494.3l-117.9-153.4c-50.9-65.8-93.9-151.7-126.9-249.4-36-107-51.2-212.4-48.2-304.1l-0.8-178.5c-0.1 0 293.8 391.1 293.8 391.1z"/>
		<path id="Layer" fill-rule="evenodd" class="s3" d="m588.7 1155.1l1 313.5c0.2 6.2-0.6 12.4-2.3 18.4-1.7 6-4.2 11.7-7.6 16.9-3.4 5.3-7.5 9.9-12.3 13.9-4.8 4-10.1 7.3-15.9 9.7-5.6 2.2-11.5 3.4-17.5 3.7-6 0.3-12-0.4-17.8-2.1-5.8-1.6-11.2-4.3-16.2-7.7-4.9-3.4-9.2-7.7-12.8-12.5l-191.5-249.3v-494.5c-0.1 0 292.9 390 292.9 390z"/>
	</g>
</svg>