<svg version="1.2" xmlns="http://www.w3.org/2000/svg" viewBox="0 0 1541 772" width="1541" height="772">
	<title>Tfiinternational-svg</title>
	<style>
		.s0 { fill: #ffffff } 
	</style>
	<g id="layer1">
		<g id="g3527">
			<path id="path3485" class="s0" d="m1541 174.1c-1 2.9-37.8 104.3-38.2 105.8-348.8-213.5-715.1-228-961.5-202.6-231.9 23.7-415.2 90.2-473.8 126.9 52.8-41.1 215-127.6 453.1-173.4 242.9-46.6 619.1-66.6 1020.4 143.3z"/>
			<g id="g3495">
				<g id="g3493">
					<path id="path3487" class="s0" d="m198 427.8h-197.2l48-118.4h613.9l-48 118.4h-197.3l-139.7 343.7h-218.9zm520.9-118.9h548.6l-48 118.4h-329.3l-23.5 58h279.8l-44.1 110.3h-279.9l-72.4 175.4h-219.4zm601.4 0h219.4l-187.7 461.6h-219.3z"/>
				</g>
			</g>
			<g id="g3525">
				<g id="g3523">
				</g>
			</g>
		</g>
	</g>
</svg>