<svg version="1.2" xmlns="http://www.w3.org/2000/svg" viewBox="0 0 1579 1581" width="1579" height="1581">
	<title>TripleFlag_Long_Logo-svg</title>
	<style>
		.s0 { fill: #d32228 } 
	</style>
	<g id="Layer">
		<g id="Layer">
			<g id="Layer">
				<path id="Layer" fill-rule="evenodd" class="s0" d="m1180.6 440.3c45.9 3.9 92.1 2.9 137.9-2.8 45.7-5.8 90.8-16.3 134.3-31.4 43.6-15.1 85.5-34.7 125-58.5v1232.9h-1076.4v-1078.2c39.1-26.8 81.1-49.2 125.2-66.8 44.1-17.6 90-30.3 136.8-37.9 46.9-7.6 94.4-9.9 141.8-7.1 47.3 2.9 94.2 10.9 139.8 24.1 44.2 13.2 89.6 21.9 135.6 25.7zm85.2 681.9c35.8 3 71.8 2.2 107.4-2.3 35.6-4.5 70.7-12.7 104.6-24.5 33.9-11.8 66.5-27.1 97.2-45.7-321.2 38-493.3-247-835.9-92.1-1.1 0.5-2.3 1.2-2.3 2.5v227c117.7-72.9 238-130.1 423.2-85 34.6 10.4 70 17.1 105.8 20.1zm-526.7-467.2q-0.5 0.1-0.9 0.3-0.3 0.3-0.6 0.6-0.3 0.3-0.5 0.8-0.2 0.4-0.3 0.8v227c117.7-72.9 238-130.2 423.4-84.9 34.4 10.4 69.8 17.1 105.6 20 35.8 3 71.8 2.3 107.4-2.2 35.6-4.5 70.6-12.8 104.6-24.6 33.9-11.7 66.5-27.1 97.2-45.6-321.2 37.9-493.3-247.1-835.9-92.2zm-739.1-185.9h259.4v1111.2h-259.4zm501.6-239.7h-501.6v-229.1h1578v346.8c-412.3 48.2-634.3-317.8-1074.8-118.6-0.8 0.4-1 1.2-1.6 1.8z"/>
			</g>
		</g>
		<g id="Layer">
		</g>
	</g>
</svg>