<svg version="1.2" baseProfile="tiny-ps" xmlns="http://www.w3.org/2000/svg" viewBox="0 0 1601 455" width="1601" height="455">
	<title>Screenshot 2021-11-16 at 10-svg</title>
	<style>
		tspan { white-space:pre }
		.shp0 { fill: #ffffff } 
	</style>
	<g id="#221f20ff">
		<path id="Layer" fill-rule="evenodd" class="shp0" d="M763.44 13.26C776.96 9.71 790.38 5.58 803.24 0.09C803.24 105.23 803.26 210.38 803.24 315.52C803.1 320.07 804.03 325.59 808.71 327.66C815.53 329.18 822.5 327.76 828.57 324.43C828.71 328.95 828.68 333.47 828.64 337.99C811.54 340.26 795.38 346.6 779.26 352.44C772.13 354.91 765.46 358.59 758.12 360.44C754.19 353.23 751.91 345.29 749.86 337.38C730.73 350.06 708.23 357.85 685.19 358.16C660.49 358.42 635.77 348.78 617.95 331.64C597.99 313.15 586.58 285.94 587.12 258.75C586.91 231.64 595.51 204.28 612.24 182.83C631.41 158 662.29 141.92 693.89 142.78C704.08 142.93 714.39 142.49 724.44 144.54C733.19 145.8 741.27 149.64 749.93 151.3C749.99 116.37 749.96 81.43 749.95 46.5C750.46 40.5 745.66 35.22 739.92 34.22C732.52 32 724.87 33.83 717.43 34.7C717.37 30.16 717.39 25.64 717.52 21.11C733.11 20.73 748.35 16.92 763.44 13.26ZM691.9 157.11C681.46 158.47 671.37 163.13 663.93 170.63C652.48 181.43 646.63 196.75 643.77 211.93C639.39 237.07 642.88 263.64 654.61 286.39C663.79 304.6 678.59 321.1 698.31 327.8C713.97 333.69 731.59 331.18 746.5 324.29C747.8 323.5 750.24 323.02 749.9 321C750.02 273.2 749.95 225.39 749.95 177.6C750.21 175.65 748.23 174.62 747.07 173.48C731.63 161.4 711.53 154.64 691.9 157.11ZM2.78 25.24C46.1 25.26 89.42 25.67 132.74 25.79C153.09 25.47 173.46 27.71 193.78 25.88C229.3 25.72 264.81 25.48 300.33 25.06C301.2 36.08 300.09 47.19 301.78 58.15C302.2 77.44 302.44 96.76 302.58 116.06C297.09 116.09 291.59 116.09 286.1 116.02C284.32 98.5 282.68 79.46 271.01 65.31C261.99 53.89 247.08 49.34 233.06 48.54C215.81 48.15 198.54 48.39 181.28 48.39C181.18 133.04 181.25 217.69 181.25 302.35C181.18 312.18 181.5 323.22 188.52 330.91C196.18 339.46 208.54 340.2 219.24 340.92C219.3 345.45 219.3 349.97 219.3 354.51C214.73 356.02 210.07 354.29 205.44 354.22C169.58 353.55 133.69 353.52 97.82 354.22C93.19 354.17 88.16 356.6 83.88 353.81C84.04 349.54 84.03 345.25 84.07 340.97C95.09 340.15 107.99 339.49 115.6 330.25C122.54 322.16 122.01 310.93 122.81 300.97C122.86 216.83 122.86 132.69 122.81 48.55C106.74 48.13 90.63 48.38 74.55 48.42C58.53 48.44 40.97 53.39 31.19 66.96C20.95 81.23 18.41 99.4 18.15 116.54C12.32 116.76 6.49 116.67 0.64 116.67C0.19 86.16 2.87 55.75 2.78 25.24ZM413.8 174.82C431.35 156.05 456.46 145.82 481.69 143.16C494.21 142.62 507.12 141.92 519.16 146.08C539.33 151.63 556.57 166.11 566.05 184.7C575.17 202.63 578.83 223.1 578.25 243.07C532.78 243.21 487.3 243.03 441.83 243.17C442.04 265.46 446.59 288.51 459.1 307.34C469.22 322.95 485.15 335.32 503.56 339.14C515.41 340.68 528.04 340.28 538.9 334.75C553.99 327.67 564.74 314.33 574.05 300.94C575.56 308.98 574.95 317.21 576.27 325.27C576.8 329.2 576.78 333.17 576.78 337.12C557.46 349.7 534.61 356.37 511.65 357.37C493.83 359.09 475.56 358.19 458.22 353.55C437.17 348.2 417.42 336.13 404.63 318.38C390.78 299.67 384.66 275.98 385.18 252.9C385.21 224.71 393.73 195.34 413.8 174.82ZM457.02 167.23C447.82 177.57 444.93 191.68 443.24 205C442.97 213.02 441.32 220.93 441.75 228.98C468.36 229.22 494.98 229.1 521.58 229.04C521.57 211.96 521.67 194.31 515.64 178.09C512.64 169.54 506.26 161.9 497.54 158.9C483.98 154.1 467.17 156.55 457.02 167.23ZM855.5 168.89C872.76 153.83 895.09 145.45 917.71 143.13C930.25 142.58 943.19 141.98 955.26 146.17C975.2 151.88 992.33 166.26 1001.73 184.72C1010.99 202.58 1014.38 223.07 1014.12 243.04C968.65 243.29 923.16 242.95 877.69 243.21C877.34 269.69 884.58 297.33 902.52 317.42C914.86 330.84 932.48 340.9 951.17 339.87C967.56 340.48 982.91 332.02 994.1 320.58C1000.06 314.97 1004.22 307.83 1009.61 301.71C1011.65 312.92 1011.88 324.34 1011.97 335.71C1012.1 338.12 1009.2 338.81 1007.69 340.04C978.6 357.23 943.35 360.28 910.37 356.86C888.21 353.88 866 345.44 850.01 329.36C834.92 315.07 825.61 295.31 822.46 274.9C820.35 265.31 821.05 255.44 821.08 245.7C822.26 217.06 833.46 187.92 855.5 168.89ZM887.99 173.74C878.65 190.46 877.88 210.32 877.74 229.03C904.33 229.08 930.94 229.29 957.53 228.92C957.63 222.09 957.82 215.22 956.68 208.46C955.88 193.66 954.18 177.29 943.92 165.72C928.32 150.63 898.58 154.47 887.99 173.74ZM1062.54 156.46C1075.58 148.97 1090.37 144.87 1105.24 143.19C1119.91 142.53 1134.85 142.08 1149.17 145.82C1156.8 147.43 1164 150.5 1171.31 153.12C1194.82 153.71 1218.38 152.96 1241.9 153.48C1238.6 161.69 1235.74 170.08 1232.12 178.16C1220.95 178.28 1209.8 178.09 1198.64 178.25C1209.8 191.67 1217.8 208.97 1215.07 226.79C1212.44 240.32 1206.58 254.35 1194.82 262.4C1176.92 275.38 1154.43 278.95 1132.99 281.18C1127.64 281.58 1122.22 281.01 1116.94 281.93C1110.37 284.35 1104.5 288.9 1100.45 294.6C1096.06 300.95 1099.73 309.81 1106.39 312.87C1119.14 319.34 1133.83 319.94 1147.8 321C1157.34 322.76 1167.14 321.12 1176.66 322.98C1193.06 324.93 1210.44 328.72 1223.11 340.06C1233.02 348.66 1237.57 362.15 1236.78 375.06C1237.1 395.53 1225.05 414.41 1208.74 426.03C1188.7 440.19 1164.24 447.11 1139.95 448.84C1126.08 451.08 1112.08 449.01 1098.22 447.89C1077.62 445.07 1056.41 439.26 1040.31 425.48C1029.56 416.32 1022.19 402.45 1022.96 388.12C1022.17 376.87 1027.9 365.66 1037.16 359.35C1048.18 351.91 1061.7 349.29 1074.8 349.07C1067.22 344.46 1058.18 341.95 1052.18 335.07C1043.93 326.7 1043.24 311.17 1052.13 303C1063.89 291 1080.42 285.57 1095.96 280.31C1088.78 278.35 1081.27 278 1074.16 275.78C1059.88 271.46 1046.27 263.27 1037.81 250.74C1028 235.63 1024.59 216.55 1028.7 198.98C1033.28 180.78 1046.52 165.72 1062.54 156.46ZM1110.6 157.11C1102.07 158.32 1094.06 163.26 1089.78 170.84C1082.82 182.94 1083.71 197.38 1084.25 210.83C1085.73 224.37 1090.08 237.6 1097 249.36C1103.59 259.28 1114.43 268.13 1127.04 266.97C1137.47 267.56 1148.09 262.07 1152.98 252.71C1159.58 240.32 1158.79 225.78 1158.25 212.19C1156.21 195.46 1150.87 178 1138.28 166.13C1131.16 159.06 1120.6 154.9 1110.6 157.11ZM1098.74 360.08C1089.12 363.43 1079 367.39 1072.44 375.6C1066.54 382.37 1065.8 392.06 1067.27 400.56C1069.9 412.41 1079.2 421.62 1089.77 426.96C1109.64 437.25 1133.41 437.35 1154.65 431.6C1166.88 427.93 1179.29 422.16 1187.17 411.74C1191.92 404.85 1195.21 395.72 1192.02 387.52C1189.42 379.54 1181.92 374.42 1174.39 371.62C1155.39 364.38 1134.73 364.86 1114.92 361.76C1109.56 361.15 1104.13 358.37 1098.74 360.08ZM1272.05 157.96C1295.65 147.11 1321.87 141.15 1347.89 143.1C1367.79 145.75 1386.56 158.13 1395.53 176.32C1400.52 186.03 1401.54 197.09 1402.33 207.8C1402.39 243.72 1402.22 279.64 1402.41 315.56C1401.78 320.11 1406.26 323.85 1410.62 323.43C1416.45 323.15 1421.79 320.38 1427.28 318.6C1427.41 322.95 1427.6 327.31 1427.44 331.67C1426.02 333.47 1423.43 333.36 1421.49 334.21C1405.01 339.24 1388.97 345.6 1373.03 352.08C1368.27 353.94 1363.77 356.53 1358.74 357.63C1354.43 350.12 1352.68 341.6 1351.34 333.15C1331.29 346.5 1308.24 355.95 1284.1 358.05C1268.48 359.39 1252.86 352.59 1241.95 341.58C1233.4 332.73 1227.1 320.74 1228.16 308.14C1228.08 292.19 1237.5 277.35 1250.78 268.96C1272.82 254.47 1299.43 250.08 1324.81 245.02C1332.63 242.44 1340.93 242.57 1348.87 240.6C1348.91 226.26 1348.87 211.93 1348.9 197.6C1348.98 187.93 1345.54 177.81 1338.15 171.29C1328.63 162.7 1314.6 160.43 1302.39 163.38C1295.44 164.93 1289.21 169.88 1286.82 176.67C1283.91 187.04 1287.94 197.42 1292.08 206.84C1274.87 214.32 1257.36 221.03 1239.9 227.88C1232.8 216.82 1229.65 202.21 1235.71 189.98C1242.89 174.95 1257.53 165.12 1272.05 157.96ZM1314.28 262.9C1303.77 267.56 1293.45 274.41 1288.01 284.88C1282.74 294.22 1284.13 305.98 1288.68 315.33C1292.51 323.36 1300.57 328.73 1309.17 330.46C1322.9 332.46 1337.24 329.43 1349.06 322.15C1348.78 299.69 1348.94 277.2 1348.87 254.73C1336.93 254.97 1325.2 258.2 1314.28 262.9ZM1458.04 161.21C1474.37 155.8 1490.69 150.22 1506.14 142.61C1506.54 162.24 1505.9 181.9 1506.46 201.52C1517.18 182.76 1526.63 161.6 1545.41 149.41C1557.46 141.06 1573.23 141.43 1586.84 145.13C1587.13 167.17 1586.96 189.21 1586.94 211.23C1582.89 211.36 1578.85 211.36 1574.82 211.2C1572.3 204.98 1568.92 198.5 1562.74 195.26C1556.02 191.16 1547.72 192.09 1540.26 192.8C1527.78 196.41 1517.4 205.01 1508.89 214.56C1506.33 216.92 1506.22 220.52 1506.23 223.75C1506.29 254.83 1506.23 285.91 1506.25 316.99C1506.39 323.27 1507.1 330.2 1511.79 334.9C1517.08 340.06 1524.97 341.03 1532.05 340.83C1533.5 345.13 1533.01 349.7 1533.04 354.17C1498.7 353.84 1464.35 353.34 1430.01 354.35C1429.96 349.88 1429.97 345.42 1430.07 340.96C1437.76 340.86 1446.89 340.12 1451.98 333.49C1456.85 327.08 1456.47 318.69 1456.3 311.07C1456.28 276.2 1456.28 241.31 1456.3 206.44C1456.31 199.04 1457.23 190.2 1451.31 184.62C1444.04 180.02 1435.32 183.22 1427.54 184.28C1427.48 179.75 1427.53 175.21 1427.5 170.68C1437.41 166.75 1447.97 164.7 1458.04 161.21ZM226.68 170.59C253.14 162.2 280.18 154.96 305.21 142.65C305.53 162.45 305.21 182.25 305.37 202.06C313.72 187.35 321.01 171.75 332.75 159.32C339.94 151.72 349.01 145.31 359.45 143.26C368.27 142.24 377.3 142.63 385.89 145.02C386.2 167.11 386.24 189.24 385.88 211.34C381.9 211.35 377.93 211.35 373.96 211.2C370.82 201.13 362.08 191.87 350.87 192.31C334.62 190.39 320.68 201.26 310.08 212.29C307.92 214.75 305.08 217.37 305.34 220.96C305.33 253.43 305.37 285.92 305.33 318.4C305.43 324.63 306.99 331.34 311.72 335.71C317.41 340.42 325.14 340.86 332.19 341.03C332.25 345.42 332.27 349.81 332.22 354.2C297.87 353.78 263.49 353.39 229.14 354.33C229.09 349.87 229.11 345.41 229.21 340.94C235.72 340.87 242.79 340.41 248.24 336.41C253.14 332.5 255.36 325.99 255.48 319.87C255.49 279.6 255.47 239.33 255.49 199.07C255.52 193.89 254.38 188.16 250.41 184.54C243.12 180.1 234.49 183.18 226.74 184.31C226.68 179.75 226.73 175.17 226.68 170.59ZM1256.28 393.65C1371.02 393.52 1485.76 393.64 1600.49 393.61C1600.99 412.29 1600.83 431 1600.58 449.69C1472.49 449.58 1344.39 449.9 1216.3 449.53C1230.08 440.86 1242.57 429.36 1249.8 414.56C1253.08 407.99 1254.78 400.81 1256.28 393.65ZM0.51 399C333.54 398.96 666.59 398.98 999.62 399C1002.31 415.31 1010.5 430.56 1022.8 441.63C1027.65 446.23 1033.41 449.68 1038.69 453.76C961.57 454.37 884.4 453.85 807.27 454.03C538.36 454.01 269.44 454.07 0.53 454C0.4 435.67 0.42 417.34 0.51 399Z" />
	</g>
</svg>