<svg version="1.2" xmlns="http://www.w3.org/2000/svg" viewBox="0 0 1567 1516" width="1567" height="1516">
	<title>transglobe-logo-svg</title>
	<style>
		.s0 { fill: #e7c236 } 
	</style>
	<g id="Page-1">
		<g id="01---IR-landing">
			<g id="Transglobe-logo">
				<path id="Fill-28" fill-rule="evenodd" class="s0" d="m74.9 859.2c-41 0-74.2-34.2-74.2-76.5 0-42.4 33.2-76.6 74.2-76.6 41 0 74.1 34.2 74.1 76.6 0 42.3-33.1 76.5-74.1 76.5zm28 282c-47.1 0-85.1-38.1-85.1-85.2 0-47.1 38-85.1 85.1-85.1 47 0 85.1 38 85.1 85.1 0 47.1-38.1 85.2-85.1 85.2zm25.5-562.1c-32.9 0-59.6-26.6-59.6-59.6 0-33 26.7-59.6 59.6-59.6 32.9 0 59.6 26.6 59.6 59.6 0 33-26.7 59.6-59.6 59.6zm161.7-238.4c-28.2 0-51.1-22.9-51.1-51.1 0-28.3 22.9-51.1 51.1-51.1 28.2 0 51.1 22.8 51.1 51.1 0 28.2-22.9 51.1-51.1 51.1zm212.7-187.4c-23.5 0-42.5-19-42.5-42.6 0-23.5 19-42.6 42.5-42.6 23.6 0 42.6 19.1 42.6 42.6 0 23.6-19 42.6-42.6 42.6zm255.4-102.2c-14.2 0-25.6-11.4-25.6-25.6 0-14.1 11.4-25.5 25.6-25.5 14.1 0 25.5 11.4 25.5 25.5 0 14.2-11.4 25.6-25.5 25.6zm297.8-17c0 9.4-7.6 17-17 17-9.4 0-17-7.6-17-17 0-9.4 7.6-17.1 17-17.1 9.4 0 17 7.7 17 17.1zm221.3 85.1c0 9.4-7.7 17.1-17 17.1-9.4 0-17.1-7.7-17.1-17.1 0-9.4 7.7-17 17.1-17 9.3 0 17 7.6 17 17zm-408.5 1396.7c-385.9 0-697.8-312.1-697.8-698.3 0-386.2 311.9-698.4 697.8-698.4 385.9 0 697.8 312.2 697.8 698.4 0 386.2-311.9 698.3-697.8 698.3zm-176.2-360c423.8-23.8 543.9-357.8 543.9-357.8 0 0-210.1-331.8-578.3-287.8 0 0-178.8 355.4 34.4 645.6zm-70.1 179l-72.2-148.6c0 0-77.1-3.8-167.5-88.7 50.8 18.3 93.7 37.1 152.3 43.4-147-319.9 43.7-625.2 43.7-625.2-166.9 30.5-295.7 79.6-295.7 79.6 0 0-22.2 4.6-22.2 250.4 5.8 325 361.6 489.1 361.6 489.1zm-79.5-979.6c78.2 5.1 75.2 4.9 164.7 9 0 0 55.6-68.1 153.5-98.4-75.9 61.6-107.2 101.9-107.2 101.9 0 0 328 30.1 514.8 357.8 62-145.2 76.1-265.4 79.1-297.2 2.9-31.8-215.6-198.4-435.1-198.4-219.5 0-369.8 125.3-369.8 125.3zm889.9 420.3c-32.4 46.4-93 130.9-93 130.9 0 0 24.2 67.9 12.9 187.8-20.5-84.8-44.7-149.1-44.7-149.1 0 0-181.4 285.3-566.4 274.4 0 0 121.8 136.5 215.8 216 170.8-22.2 517.5-240.9 475.4-660z"/>
			</g>
		</g>
	</g>
</svg>