<svg version="1.2" xmlns="http://www.w3.org/2000/svg" viewBox="0 0 1588 624" width="1588" height="624">
	<title>logo-third-harmonic-svg</title>
	<style>
		.s0 { fill: #1928f4 } 
	</style>
	<g id="Layer">
		<path id="Layer" fill-rule="evenodd" class="s0" d="m607.1 287.9h-97.8c-19.1 0-35.7-11.6-43.2-29-5.8-14.9-12.4-31.5-16.5-42.3-5.9-14.9-19.1-56.3-34.9-68.8-4.1-4.1-10.8-3.3-14.9 0-9.9 9.2-19.9 31.5-24 41.5-11.6 30.7-28.2 87.9-37.4 120.2 1.7 6.6 4.2 13.3 5.9 19.9 9.1 34.8 18.2 68.8 31.5 101.1 4.1 10 13.2 32.3 24 41.5 4.1 3.3 10.8 3.3 14.9 0 15.8-12.5 29-53.9 34.9-68.8 4.9-12.5 12.4-31.5 19-47.3 5.8-14.1 20.8-24 36.5-24h115.3c-6.7 116.9-84.6 225.4-194.1 268.5-197.3 81.3-413.7-59.6-426.2-266.9h83c8.3 0 15.7 5 18.2 12.5 5.8 17.4 18.2 45.6 28.2 45.6 9.9 0 20.7-30.7 28.2-55.6 0-0.8 5.8-23.2 6.6-24.9 0-0.8 0-0.8 0-1.6-5.8-22.4-20.7-78.8-34-78.8-9.9 0-22.4 28.2-29 45.6-3.3 7.5-9.9 12.5-18.2 12.5h-83c15.8-207.3 229.7-345.7 427.1-265.3 107.8 42.3 184.9 150 194 265.3h-14.1zm-581.3-19.9h53.1c2.5 0 5-1.7 5.8-4.2 8.3-24 22.4-56.3 44-57.2 24-1.6 38.9 27.4 48.1 53.9 0.8 2.5 1.6 4.2 2.4 6.6 0 0.9 0.9 1.7 0.9 2.5 4.1 13.3 7.4 25.7 11.6 39 8.3 27.3 15.7 54.7 25.7 80.4 5 12.4 16.6 41.4 30.7 46.4 4.9 0.8 8.3-1.6 10.7-5 2.5-2.4 5-5.8 6.7-9.1 11.6-20.7 20.7-50.5 29.8-83.7 5.8 20.7 10.8 41.4 16.6 61.3-0.8 0.9-0.8 0.9-0.8 1.7-13.3 37.3-40.6 87.9-83.8 59.7-24.8-17.4-39.8-60.5-50.5-101.1 0 1.6-7.5 19-7.5 19-13.3 28.2-25.7 35.7-39.8 35.7-20.7 0-35.7-33.2-44.8-57.2-0.8-2.5-3.3-4.2-5.8-4.2h-53.1c19.1 136.8 141 244.6 282 242.1 134.3 0 248.7-99.5 273.6-226.3h-66.3c-5 0-9.2 2.5-10.8 6.6-10 23.2-19.1 48.9-29 72.1-9.2 22.4-19.9 47.3-42.3 60.5-15 9.2-35.7 8.3-49.8-1.6-29-20.7-47.2-73-63-131 0-1.7-0.8-2.5-0.8-4.1-17.4-63.9-31.5-133.5-53.1-171.6-2.5-3.4-4.1-5.8-6.6-9.2-3.3-3.3-5.8-6.6-10.8-4.9-14.1 4.9-25.7 34-30.7 46.4-7.4 19.1-13.3 38.1-19.1 58-2.4-8.3-5.8-17.4-8.2-25.7-2.5-5.8-5-13.2-8.3-21.5 9.9-34 24-67.2 44.7-82.1 44-28.2 70.5 22.4 83.8 59.7 3.3 8.3 5.8 17.4 8.3 25.7 0-0.8 7.4-26.5 7.4-26.5 14.1-46.5 31.5-86.3 55.6-103.7 14.1-9.9 34.8-10.7 49.7-1.6 22.4 14.1 32.4 38.1 42.3 60.5 10 23.2 19.1 48.9 29 72.1 1.7 4.2 5.9 6.6 10.8 6.6h65.5c-27.3-125.1-140.9-222.1-272.8-221.3-139.3-1.6-260.3 102-281.1 236.3z"/>
		<g id="Layer">
			<g id="Layer">
				<path id="Layer" fill-rule="evenodd" class="s0" d="m704.1 55h111.9v20.7h-43.9v121.9h-24v-121.9h-44zm208.1 48.9c7.5 7.5 11.6 19.9 11.6 36.5v58h-22.4v-57.2c0-9.9-2.4-17.4-6.6-22.3-4.1-5-10.8-7.5-19.1-7.5-9.1 0-15.7 3.3-20.7 9.1q-7.4 8.7-7.4 24.9v53h-22.4v-143.4h22.4v53.9c8.2-10.8 19-16.6 33.1-16.6 13.3 0 24.1 3.3 31.5 11.6zm52.3-48.9c2.5 2.5 4.1 5.8 4.1 9.1 0 3.4-1.6 6.7-4.1 9.2-2.5 2.4-5.8 4.1-10 4.1-4.1 0-6.6-1.7-9.9-4.1-2.5-2.5-4.2-5.8-4.2-9.2 0-3.3 1.7-6.6 4.2-9.1 2.5-2.5 5.8-4.1 9.9-4.1 4.2 0.8 7.5 1.6 10 4.1zm-19.9 38.2h22.4v104.4h-22.4zm101.1 0v20.7h-9.9c-9.1 0-15.8 3.3-19.9 9.1-4.2 5.8-5.8 13.3-5.8 22.4v52.2h-22.4v-104.4h19.9l2.5 15.8c3.3-5 6.6-9.2 11.6-11.7 5-2.4 10.8-4.1 19-4.1zm111.2-38.1v143.4h-19.1l-2.5-15.8c-8.3 11.6-19.9 16.6-34 16.6-9.1 0-18.2-2.5-25.7-6.6-7.5-4.2-13.3-10.8-17.4-18.3-4.2-8.3-6.6-17.4-6.6-28.1 0-10.8 2.4-19.9 6.6-28.2 4.1-8.3 9.9-14.1 17.4-19.1 7.5-4.1 15.8-6.6 25.7-6.6 7.5 0 14.1 1.6 19.9 4.1 5.8 2.5 10 6.6 14.1 11.6v-53zm-29.9 116c5.9-6.6 8.3-14.9 8.3-24.8 0-10.8-2.4-19.1-8.3-25.7q-8.7-10-22.3-10-13.7 0-22.4 10c-5.8 6.6-8.3 14.9-8.3 24.8 0 10 2.5 19.1 8.3 24.9q8.7 9.9 22.4 9.9c9.1 0.9 16.5-2.4 22.3-9.1zm-402.1 82.9h23.2v59.7h66.4v-59.7h24v143.4h-24v-62.1h-66.4v62.1h-23.2zm228 142.6h-11.6c-6.6 0-11.6-1.7-14.9-4.1-3.3-2.5-4.2-6.7-4.2-12.5-8.2 11.6-19 18.3-34.8 18.3-11.6 0-20.7-2.5-28.2-8.3-7.4-5.8-10.8-13.3-10.8-22.4 0-10.8 4.2-19.1 11.7-24.9 7.4-5.8 19-8.3 33.1-8.3h26.6v-6.6c0-5.8-1.7-10.8-5.8-14.1-4.2-3.3-10-5-16.6-5-6.7 0-11.6 1.7-15.8 4.2-4.1 2.5-6.6 6.6-7.4 10.8h-21.6c0.8-10.8 5.8-18.3 14.1-24.1 8.3-5.8 19.1-8.3 32.3-8.3q21.2 0 32.4 10c7.4 6.6 11.6 15.7 11.6 28.2v41.4c0 5 2.5 7.5 6.6 7.5h3.3zm-60.5-46.5c-6.6 0-12.4 1.7-15.8 4.2-3.3 2.5-5.8 6.6-5.8 11.6 0 4.1 1.7 8.3 5 10.8 3.3 2.5 8.3 4.1 14.1 4.1 9.1 0 16.6-2.5 21.6-7.4q7.4-7.5 7.4-19.9v-3.4zm131-58v20.7h-9.9c-9.1 0-15.8 3.4-19.9 9.2-4.2 5.8-5.8 13.2-5.8 22.3v52.3h-22.4v-104.5h19.9l2.5 15.8c3.3-5 6.6-9.1 11.6-11.6 5-2.5 10.8-4.2 19.1-4.2zm162.5 10c7.4 7.4 10.8 19 10.8 35.6v58.9h-22.4v-58.9c0-9.1-1.7-15.7-5.8-20.7-3.4-5-9.2-7.5-16.6-7.5-7.5 0-13.3 2.5-18.3 8.3-4.1 5-6.6 12.5-6.6 22.4v56.4h-22.4v-58.9c0-9.1-1.6-16.6-5.8-20.7-4.1-5-9.1-7.5-16.6-7.5-7.4 0-13.2 2.5-18.2 8.3-4.2 5.8-6.6 13.3-6.6 22.4v56.4h-22.4v-104.5h19l2.5 14.1c7.5-9.9 17.4-14.9 30.7-14.9 7.5 0 14.1 1.7 19.1 5 5.8 3.3 9.9 8.3 13.2 14.1 3.4-5.8 8.3-10.8 15-14.1 5.8-3.3 13.2-5 21.5-5 14.1 0 23.2 3.3 29.9 10.8zm50.6 89.5c-8.3-4.2-14.1-10.8-19.1-19.1-4.2-8.3-6.6-17.4-6.6-28.2 0-10.7 2.4-19.9 6.6-28.1 4.1-8.3 10.8-14.1 19.1-19.1 8.2-4.1 17.4-6.6 28.1-6.6 10.8 0 19.9 2.5 28.2 6.6 8.3 4.1 14.1 10.8 19.1 19.1 4.2 8.2 6.6 17.4 6.6 28.1 0 10.8-2.4 19.9-6.6 28.2-4.1 8.3-10.8 14.1-19.1 19.1-8.3 4.1-17.4 6.6-28.2 6.6-10.7 0-19.9-2.5-28.1-6.6zm50.5-21.6c5.8-6.6 8.3-14.9 8.3-24.8 0-10-2.5-18.3-8.3-24.9q-8.7-9.9-22.4-9.9-13.6 0-22.3 9.9c-5.8 6.6-8.3 14.9-8.3 24.9 0 9.9 2.5 18.2 8.3 24.8q8.7 10 22.3 10 13.7-1.3 22.4-10zm128.6-67.1c7.4 7.5 11.6 19.9 11.6 36.5v58h-22.4v-56.4c0-9.9-2.5-17.4-6.7-22.4-4.1-4.9-10.7-7.4-18.2-7.4-9.1 0-15.8 3.3-20.7 9.1q-7.5 8.7-7.5 24.9v53h-22.4v-106.1h19.1l2.5 14.1c8.3-9.9 19.1-14.9 33.1-14.9 13.3 0 23.3 4.1 31.6 11.6zm52.2-48.1c2.5 2.5 4.1 5.8 4.1 9.1 0 4.2-1.6 6.7-4.1 9.2-2.5 2.4-5.8 4.1-10 4.1-4.1 0-6.6-1.7-9.9-4.1-2.5-2.5-4.2-5.8-4.2-9.2 0-4.1 1.7-6.6 4.2-9.1 2.5-2.5 5.8-4.1 9.9-4.1 4.2 0 7.5 0.8 10 4.1zm-20.7 37.3h22.4v104.5h-22.4zm125.2 96.1q-12.5 10-32.4 10c-9.9 0-19.9-2.5-27.3-6.7-8.3-4.1-14.1-10.7-18.3-19-4.1-8.3-6.6-17.4-6.6-28.2 0-10.8 2.5-19.9 6.6-28.2 4.2-8.3 10.8-14.1 18.3-19.1 8.3-4.1 17.4-6.6 27.3-6.6q19.9 0 32.4 10c8.3 6.6 13.2 16.5 15.7 28.1h-22.4c-1.6-5.8-4.1-10.7-9.1-14-4.1-3.4-9.9-5-16.6-5-9.1 0-15.7 3.3-21.5 9.9-5 6.7-8.3 14.9-8.3 24.9 0 9.9 2.5 19.1 8.3 24.9 4.9 6.6 12.4 9.9 21.5 9.9 6.7 0 12.5-1.6 16.6-5.8 4.2-3.3 7.5-8.3 9.1-14.9h22.4c-2.5 13.2-7.4 22.4-15.7 29.8zm-795.2 64.7c15.8 0 28.2 3.3 36.5 9.9 8.3 6.7 13.2 15.8 13.2 27.4 0 8.3-2.4 15.7-6.6 21.5-5 5-11.6 9.2-19.9 10.8 21.6 3.3 32.4 14.9 32.4 34 0 12.4-5 22.4-14.1 29-9.2 7.5-22.4 10.8-39 10.8h-54.7v-143.4zm-29.1 60.5h29.9c8.3 0 14.1-1.7 19.1-5.8 4.1-3.3 6.6-9.1 6.6-14.9 0-6.7-2.5-11.6-6.6-14.9-5-3.4-11.6-5-19.1-5h-29.9zm0 63h30.7c9.1 0 16.6-1.7 21.6-5.8 5-4.2 7.4-9.1 7.4-15.8 0-6.6-2.4-12.4-7.4-15.7-5-4.2-12.5-5.8-21.6-5.8h-30.7zm121.1-122.7c2.5 2.5 4.1 5.8 4.1 9.1 0 4.2-1.6 6.6-4.1 9.1-2.5 2.5-5.8 4.2-10 4.2-4.1 0-6.6-1.7-9.9-4.2-2.5-2.5-4.1-5.8-4.1-9.1 0-4.1 1.6-6.6 4.1-9.1 2.5-2.5 5.8-4.2 9.9-4.2 4.2 0 7.5 1.7 10 4.2zm-19.9 38.1h22.4v104.5h-22.4zm62.2 98.6c-8.3-4.1-14.1-10.8-19.1-19.1-4.1-8.2-6.6-17.4-6.6-28.1 0-10.8 2.5-19.9 6.6-28.2 4.2-8.3 10.8-14.1 19.1-19.1 8.3-4.1 17.4-6.6 28.2-6.6 10.8 0 19.9 2.5 28.2 6.6 8.3 4.2 14.1 10.8 19 19.1 4.2 8.3 6.7 17.4 6.7 28.2 0 10.7-2.5 19.9-6.7 28.1-4.1 8.3-10.7 14.1-19 19.1-8.3 4.2-17.4 6.6-28.2 6.6-10.8 0-19.9-1.6-28.2-6.6zm50.6-21.5c5.8-6.7 8.3-15 8.3-24.9 0-10-2.5-18.2-8.3-24.9q-8.7-9.9-22.4-9.9-13.7 0-22.4 9.9c-5.8 6.7-8.3 14.9-8.3 24.9 0 9.9 2.5 18.2 8.3 24.9q8.7 9.9 22.4 9.9 13.7 0 22.4-9.9z"/>
			</g>
		</g>
	</g>
</svg>