<svg version="1.2" xmlns="http://www.w3.org/2000/svg" viewBox="0 0 1556 272" width="1556" height="272">
	<title>Annual Report 2021-1-pdf-svg</title>
	<defs>
		<clipPath clipPathUnits="userSpaceOnUse" id="cp1">
			<path d="m-1567.5-5155h4691v6072h-4691z"/>
		</clipPath>
	</defs>
	<style>
		.s0 { fill: #ffffff } 
	</style>
	<g id="Clip-Path: Page 1" clip-path="url(#cp1)">
		<g id="Page 1">
			<path id="Path 8" fill-rule="evenodd" class="s0" d="m493.2 138.4v45.7h-0.3c-12.7 10.3-28.8 19.9-58.3 19.9-40.2 0-71.3-28.4-72-65.2-0.8-19.5 5.7-36.8 18.4-49.4 13.4-13.4 32.9-21.1 55.1-21.1 14.2 0 35.3 5 51.8 18l0.4 0.4-16.5 22.6-0.4-0.4c-10.7-9.2-21.5-13.4-34.9-13.4h-0.4c-15.7 0.4-42.5 9.2-42.5 41 0 22.7 18.8 40.3 42.9 40.7h0.8c11.1 0 19.5-2.3 26.8-7.3v-21.5h-29.9v-24.5h44.5c8 0 14.5 6.5 14.5 14.5zm647 62.5c-8.1 0-15-6.5-15-14.5v-99.7c0-8 6.9-14.6 15-14.6h85.4v25h-70.1v25.6h50.2c7.3 0 13.4 5.8 13.4 12.7 0 6.9-6.1 12.3-13.4 12.3h-50.2v28.3h70.1v24.9zm-598.2 0c-8.4 0-15.3-6.5-15.3-14.5v-99.7c0-8 6.9-14.6 15.3-14.6h85.1v25h-69.8v25.6h50.2c7.3 0 13 5.8 13 12.7 0 6.9-5.7 12.3-13 12.3h-50.2v28.3h69.8v24.9zm231.8 1.2c-4.6 0.4-9.9-0.8-13.4-4.6l-67.1-74.8v78.2h-30.2v-115.7c0-7.7 6.9-14.6 15.3-14.6 4.6 0 8 1.5 11.5 5.4 0 0 21.1 23.7 66.7 74.3v-78.2h30.6v115.4c0 7.7-5.7 13.4-13.4 14.6zm117.7-104.7v103.5h-30.3v-103.5h-45.2v-25.3h119.9v25.3zm164.8 103.5v-52.1h-60.5v52.1h-30.7v-128.8h30.7v51h60.5v-51h30.3v128.8zm294.7 0l-27.6-46h-33.3v46h-30.3v-114.2c0-8 6.9-14.6 15.4-14.6h60.9c25.7 0 44.5 18.4 44.5 41.4 0 16.5-10.4 30.3-25.3 37.2l30.6 50.2zm-21.4-105.4h-39.5v36.8h39.5c10.7 0 19.5-8 19.5-18.8 0-10.7-8.8-18-19.5-18zm196.9 105.4v-73.2l-28.7 42.2c-1.9 2.7-5.7 6.1-11.9 6.1-6.1 0-9.9-3.8-11.9-6.5l-28.7-41.8v73.2h-29.1v-116.1c0-7.7 5.7-14.2 14.5-14.2 5 0 9.2 2.3 11.9 6.1l43.3 62.1 43.3-62.1c2.7-3.8 6.9-6.1 12.3-6.1 8 0 14.2 6.5 14.2 14.2v116.1zm-1317.3 64.4c-3 1.6-3.4 1.6-7.6 3.9h-0.4q0-0.4 0-0.4c31.4-27.6 52.5-46.4 59-102.4 5.4-44.8-6.5-93.9-31.4-130.7-3.1-3.8-5.4-6.5-8.8-9.6 55.9 25.3 87.7 187.1-10.8 239.2zm-73.2 3.5h-0.3q0-0.4 0-0.4c2.6-1.1 3.4-2.7 4.2-4.6 11.1-36.4 26-138 31-201.6 1.2-12.7 2.7-30.3 12.7-36.1q0.3 0 0 0.4c-1.2 3.1-1.2 5-1.2 9.2 3.1 42.6-4.6 227.3-44.4 233.1-0.4 0-1.6 0-2 0zm84.4-231.9c48.2 87 24.1 220.4-42.6 234.2-0.4 0-1.1 0-1.5 0.4q-0.4 0-0.4 0 0-0.4 0-0.4c4.2-1.2 5.4-1.9 8-3.5 40.3-29.1 64.4-121.1 36.1-211.9-7.3-22.7-5.4-26.9-4.2-28.8 0.7 2.3 1.5 4.6 4.6 10zm-31.1-10.4c8.1 5 14.2 14.6 18.4 29.2 13 56.7 5.4 109.6 2.7 124.5-10.7 60.6-31.1 80.5-38.7 87.8-1.6 1.6-1.6 2.3-1.9 3.5q0 0-0.4 0c-3.1-1.2-5.4-3.5 0.4-14.2 40.6-66.3 32.9-211.2 19.9-230q-0.4-0.4-0.4-0.8zm67.8 212.8h-0.3c0-0.4 0-0.4 0-0.4 59.7-56.4 57.8-144.5-6.6-209.3-3.8-3.5-6.9-5.8-10.7-8.1q0 0 0-0.3c31.8 11.8 105.8 105 36 198.5l-3.4 4.6c-6.5 6.9-10 10.4-15 15zm-11.1-207c74.8 78.2 56.4 198.9-34.5 233.8v-0.4q2.3-0.7 5-1.9c44.5-22.6 64-67.8 67.1-102.7 5-59.4-20.7-98.2-31.8-115-13.1-20-13.4-20.7-14.2-23.4 0.8 1.1 3.1 3.8 8.4 9.6zm-137.9-14.6c-34.5 28-60.2 71.3-68.3 116.2-9.9 55.2 4.3 78.9 26.5 114.6q0 0.4 0 0.4 0 0-0.4 0.3c0-0.3 0-0.3 0-0.3-3.8-3.5-3.8-3.5-6.5-6.2-79-78.6-1.2-223.8 59.8-231.5-3.9 1.5-7.3 3.4-11.1 6.5zm44.4 13.4c1.2-3.8 1.6-5.7 1.2-9.2q0 0 0.4-0.4v0.4c8 8.5 4.2 25.7 1.5 38-13.8 62.5-29.5 163.7-29.1 202 0 1.9 0.3 3.8 2.3 5.7-0.8 0-1.6-0.3-2-0.7-36.8-16.9 10.4-195.5 25.7-235.8zm-41.8 8.1c-54 78.6-57.8 173.6-27.6 213.1 2 2.3 3.1 3.5 6.6 6.1-0.8-0.3-1.2-0.3-2-0.7-59.7-32.6-43.6-167.5 28.4-236.5 4.2-4.3 5.4-6.2 6.9-8.1 0.4 1.9 1.2 6.5-12.3 26.1zm-11.1 207.7c2.3 11.9-0.7 13.5-3.8 13.8q0 0 0-0.3c0-1.2 0-2-1.2-3.9-5.3-9.2-18.7-34.1-11.5-95.4 2-15 10.4-67.9 39.5-118.1 8.1-12.6 16.9-19.9 25.7-22.6q0 0 0.4 0 0 0.4-0.4 0.4 0 0-0.4 0.4c-18.4 14.1-67.4 150.2-48.3 225.7zm-90-67c-39.5-109.7 58.6-177.1 92.3-179.1-4.2 1.2-8 2.3-12.6 4.6-80.5 43.4-108.1 126.9-67.5 198.2v0.4h-0.4c-3.4-5.7-5.7-10-9.9-18.8zm73.6-159.1c-15.4 12.7-51.4 42.2-63.7 100.5-7.6 34.5-2.3 83.5 33.8 118q2.3 2 4.2 3.5h-0.4c-76.3-59.8-58.6-180.6 35.6-233.8 6.9-3.9 10-5.8 11.2-6.6-1.6 2.3-2.3 3.1-20.7 18.4z"/>
		</g>
	</g>
</svg>