<svg version="1.2" baseProfile="tiny-ps" xmlns="http://www.w3.org/2000/svg" viewBox="0 0 1681 293" width="1681" height="293">
	<title>Q4 2020 Gentherm Form 10-K FINAL - PRINTER-pdf-svg</title>
	<defs>
		<clipPath clipPathUnits="userSpaceOnUse" id="cp1">
			<path d="M-3575.53 -6536.59L2350.43 -6536.59L2350.43 998.71L-3575.53 998.71L-3575.53 -6536.59Z" />
		</clipPath>
		<linearGradient id="grd1" gradientUnits="userSpaceOnUse"  x1="291.604" y1="169.904" x2="27.567" y2="130.443">
			<stop offset="0" stop-color="#ff6a23"  />
			<stop offset="0.04" stop-color="#ff6a23"  />
			<stop offset="0.27" stop-color="#ff9029"  />
			<stop offset="0.5" stop-color="#ed2c23"  />
			<stop offset="0.75" stop-color="#6b246f"  />
			<stop offset="1" stop-color="#132a84"  />
		</linearGradient>
	</defs>
	<style>
		tspan { white-space:pre }
		.shp0 { fill: #3d2c7d } 
		.shp1 { fill: #ff6a23 } 
		.shp2 { fill: url(#grd1) } 
	</style>
	<g id="Clip-Path: Page 1" clip-path="url(#cp1)">
		<g id="Page 1">
			<path id="Path 285" class="shp0" d="M517.24 133.22L469.47 133.22L469.47 159.78L501.44 159.78L501.53 182.83C493.72 188.12 484.74 190.55 472.35 190.55L471.9 190.55C445.86 190.37 425.48 171.26 425.48 147.04C425.48 112.41 454.21 102.9 471.18 102.72L471.9 102.72C486.08 102.72 498.03 107.3 509.43 117.26L509.79 117.61L527.74 93.04L527.39 92.77C509.34 78.5 486.62 73.39 471.45 73.39C447.39 73.39 426.2 81.37 411.74 95.82C398.27 109.45 391.18 128.38 391.72 149.19C392.79 189.29 426.29 219.43 469.56 219.43C501.71 219.43 518.95 209.2 532.68 198.17L532.86 198.08L532.86 148.83C532.86 140.13 526.04 133.22 517.24 133.22Z" />
			<path id="Path 286" class="shp1" d="M1231.68 216.47C1222.7 216.47 1215.25 209.38 1215.25 200.77L1215.25 93.04C1215.25 84.51 1222.7 77.43 1231.68 77.43L1323.8 77.43L1323.8 104.34L1248.2 104.34L1248.2 132.06L1302.52 132.06C1310.33 132.06 1316.71 138.16 1316.71 145.69C1316.71 153.14 1310.33 159.06 1302.52 159.06L1248.2 159.06L1248.2 189.56L1323.8 189.56L1323.8 216.47L1231.68 216.47Z" />
			<path id="Path 287" class="shp0" d="M585.75 216.47C576.86 216.47 569.32 209.38 569.32 200.77L569.32 93.04C569.32 84.51 576.86 77.43 585.75 77.43L677.87 77.43L677.87 104.34L602.27 104.34L602.27 132.06L656.59 132.06C664.49 132.06 670.87 138.16 670.87 145.69C670.87 153.14 664.49 159.06 656.59 159.06L602.27 159.06L602.27 189.56L677.87 189.56L677.87 216.47L585.75 216.47ZM836.16 217.46C830.87 218.18 825.39 216.92 821.44 212.43L749.25 131.88L749.25 216.47L716.39 216.47L716.39 91.6C716.39 83.08 723.84 75.9 732.82 75.9C737.94 75.9 741.62 77.16 745.3 81.37C745.3 81.37 768.11 107.03 817.49 161.57L817.49 77.43L850.44 77.43L850.44 202.03C850.44 210.01 844.33 216.47 836.16 217.46Z" />
			<path id="Path 288" fill-rule="evenodd" class="shp1" d="M963.12 104.79L963.12 216.47L930.17 216.47L930.17 104.79L881.42 104.79L881.42 77.43L1011.16 77.43L1011.16 104.79L963.12 104.79ZM1140.9 216.47L1140.9 160.31L1075.54 160.31L1075.54 216.47L1042.58 216.47L1042.58 77.43L1075.54 77.43L1075.54 132.51L1140.9 132.51L1140.9 77.43L1173.58 77.43L1173.58 216.47L1140.9 216.47ZM1459.38 216.47L1429.57 166.5L1393.56 166.5L1393.56 216.47L1360.7 216.47L1360.7 93.04C1360.7 84.51 1368.15 77.43 1377.13 77.43L1442.95 77.43C1470.78 77.43 1490.98 97.25 1490.98 122.1C1490.98 139.77 1480.03 154.84 1463.96 161.93L1497.09 216.47L1459.38 216.47ZM1436.12 102.63L1393.56 102.63L1393.56 142.1L1436.12 142.1C1447.53 142.1 1457.22 133.76 1457.22 122.1C1457.22 110.35 1447.53 102.63 1436.12 102.63ZM1648.92 216.47L1648.92 137.53L1617.49 182.65C1615.52 185.52 1611.39 189.29 1604.83 189.29C1598.19 189.29 1594.06 185.34 1592.08 182.38L1560.93 137.53L1560.93 216.47L1529.32 216.47L1529.32 91.15C1529.32 82.81 1535.7 75.9 1545.12 75.9C1550.78 75.9 1555.27 78.23 1558.05 82.45L1604.83 149.46L1651.52 82.45C1654.39 78.23 1658.97 75.9 1664.9 75.9C1673.7 75.9 1680.25 82.63 1680.25 90.97L1680.25 216.47L1648.92 216.47Z" />
			<path id="Path 288" fill-rule="evenodd" class="shp2" d="M110.41 0.28L110.41 0.37C105.83 1.63 101.97 3.15 96.77 5.57C9.85 52.13 -19.96 142.19 24.04 219.34C24.04 219.34 24.13 219.52 23.95 219.61C23.77 219.7 23.68 219.52 23.68 219.52C19.73 213.33 17.48 208.76 12.9 199.34L10.57 193.77C-31.72 75.36 74.14 2.34 110.32 0.28L110.41 0.28ZM112.21 2.34C110.5 4.85 109.7 5.84 89.76 22.17C73.24 35.71 34.54 67.56 21.08 130.71C13.17 167.67 18.74 220.51 57.89 257.65C59.41 259.08 60.76 260.34 62.11 261.5C62.11 261.5 62.2 261.59 62.2 261.68C62.11 261.77 62.02 261.68 62.02 261.68C-20.5 196.91 -1.64 66.66 100.18 9.43C107.72 5.21 110.86 3.15 112.21 2.25C112.21 2.34 112.21 2.34 112.21 2.34ZM129.27 11.67L129.18 11.67C124.87 13.47 121.37 15.53 117.15 18.67C79.71 48.81 52.05 95.55 43.34 143.72C32.57 203.46 48.19 229.12 71.89 267.78C71.89 267.87 71.98 267.96 71.98 268.05C71.98 268.14 71.89 268.23 71.81 268.23C71.72 268.23 71.54 268.05 71.45 267.87C67.67 264.37 67.5 264.28 64.71 261.5C-20.68 176.73 63.28 19.92 129.18 11.58C129.18 11.58 129.27 11.58 129.27 11.67ZM133.31 13.56C133.76 15.8 134.3 20.91 119.84 41.99C61.75 126.76 57.62 229.3 90.21 271.82C92.28 274.24 93.44 275.59 97.13 278.19C97.13 278.19 97.13 278.19 97.13 278.28C96.59 278.01 95.87 277.74 95.33 277.47C30.68 242.22 47.92 96.8 125.59 22.44C130.35 17.86 131.78 15.62 133.13 13.56C133.13 13.56 133.13 13.47 133.22 13.47C133.31 13.47 133.31 13.56 133.31 13.56ZM160.78 21.72C160.87 21.81 160.78 21.81 160.78 21.81C160.51 21.99 160.34 22.17 160.07 22.26C140.49 37.51 87.25 184.63 107.9 265.81C110.68 278.91 107.36 280.43 103.95 280.61C103.95 280.61 103.86 280.61 103.77 280.61C103.77 280.52 103.77 280.43 103.77 280.43C103.77 279.09 103.68 278.37 102.51 276.3C96.95 266.17 82.22 239.35 90.39 173.32C92.37 157.18 101.35 100.12 132.77 45.76C141.48 32.39 150.91 24.32 160.69 21.63C160.78 21.63 160.78 21.63 160.78 21.72ZM259.28 22.53C293.31 35.09 373.13 135.82 298.07 236.65L294.21 241.32C287.03 249.03 283.52 252.71 277.96 257.56C277.96 257.56 277.78 257.65 277.69 257.56C277.51 257.38 277.69 257.2 277.69 257.2C342.33 196.29 340.27 101.47 270.68 31.59C266.46 27.64 263.23 25.13 259.19 22.62C259.19 22.62 259.1 22.62 259.1 22.53C259.19 22.53 259.28 22.53 259.28 22.53ZM166.8 23.06C175.33 32.21 171.2 50.69 168.24 64.33C153.33 131.52 136.72 240.78 136.9 282.14C136.9 283.93 137.44 286.17 139.59 288.15C139.59 288.15 139.59 288.24 139.59 288.32C139.5 288.41 139.41 288.32 139.41 288.32C138.7 288.06 137.89 287.79 137.26 287.52C97.84 269.22 148.39 76.44 165 33.11C166.44 29.07 166.8 26.74 166.53 23.15C166.53 23.15 166.53 23.06 166.62 22.98C166.71 22.98 166.8 23.06 166.8 23.06ZM256.95 23.87C257.93 25.04 260.27 28 266.28 34.28C346.91 118.69 326.89 248.76 229.02 286.62C229.02 286.62 228.84 286.62 228.84 286.53C228.75 286.44 228.93 286.44 228.93 286.44C230.55 285.72 232.25 284.92 234.14 284.02C282.45 259.89 303.19 211 306.51 173.32C312.08 109 284.33 67.29 272.48 49.44C258.29 28 257.75 26.92 256.86 23.96L256.86 23.87L256.95 23.87ZM198.76 27.73C198.76 27.73 198.76 27.73 198.85 27.82C198.85 27.91 198.85 28 198.85 28C197.51 31.32 197.24 33.65 197.42 37.96C200.56 84.24 192.48 283.3 149.47 289.31C148.84 289.4 147.94 289.49 147.14 289.49C147.14 289.49 147.05 289.49 147.05 289.4C146.96 289.31 147.05 289.31 147.05 289.31C149.74 288.06 150.82 285.99 151.36 284.29C163.66 244.82 179.73 135.47 185.21 66.84C186.28 52.94 187.81 34.1 198.67 27.82C198.67 27.82 198.67 27.73 198.76 27.73ZM237.91 27.82L237.91 27.91C298.52 55.09 332.91 229.48 226.42 285.63C222.92 287.43 222.83 287.52 218.16 289.85C218.07 289.85 217.8 290.03 217.71 290.03C217.62 290.03 217.62 289.85 217.62 289.76C217.62 289.67 217.71 289.58 217.71 289.58C251.74 259.53 274.19 239.53 281.37 179.24C287.11 130.62 274.45 77.88 247.34 38.14C244.29 33.83 241.5 30.87 237.91 28L237.82 27.91C237.91 27.91 237.91 27.82 237.91 27.82ZM204.78 28.27L204.87 28.27C213.4 33.65 220.04 44.06 224.53 59.49C238.63 120.66 230.55 177.81 227.68 193.86C216.18 259.35 194.19 280.7 185.92 288.77C184.22 290.39 183.95 291.02 183.59 292.36C183.59 292.36 183.59 292.45 183.5 292.45C183.41 292.45 183.41 292.45 183.41 292.45C183.32 292.45 183.32 292.45 183.32 292.45C180.09 291.29 177.39 288.77 183.86 277.11C227.41 205.53 219.51 49.35 205.23 29.07C205.05 28.81 204.87 28.63 204.69 28.36C204.69 28.36 204.69 28.36 204.69 28.27C204.78 28.27 204.78 28.27 204.78 28.27ZM233.6 28.54C234.23 30.96 235.04 33.47 238.18 39.3C290.71 133.13 264.67 277.11 192.48 292C191.94 292.09 191.22 292.18 190.59 292.27C190.59 292.27 190.59 292.27 190.59 292.18C190.5 292.18 190.59 292.18 190.59 292.18C194.81 290.66 196.34 289.76 199.03 288.15C242.76 256.93 268.8 157.62 237.91 59.66C230.28 35.26 232.34 30.51 233.42 28.54C233.42 28.54 233.42 28.45 233.51 28.45C233.6 28.45 233.6 28.54 233.6 28.54Z" />
		</g>
	</g>
</svg>