<svg version="1.2" xmlns="http://www.w3.org/2000/svg" viewBox="0 0 1607 306" width="1607" height="306">
	<title>thunderful-group-landscape-rgb-white-no-padding-svg</title>
	<style>
		.s0 { fill: #ffffff } 
	</style>
	<g id="Layer">
		<path id="Layer" fill-rule="evenodd" class="s0" d="m242.4 156.2c-11.7 11.4-28.4 13.2-44 10.3-0.3 0-1.1-0.3-2.1-0.5-0.8 1.3-1.9 2.4-3 3.7 0 0-14.3 16.2-39 14l-5.3 14.3c-0.8 2.4-1 3.8 1.4 3.8h30.2c2.9 0 4.5 3.4 2.7 5.8l-81.5 96.7c-2.6 2.9-7.7 0-6.1-3.7l25.7-65.5c0.8-2.3 0.3-2.9-2.3-2.9h-29.5c-2.4 0-4.2-2.6-3.2-5l17.8-43.2c-2.7 0.3-5 0.3-7.7 0-12.5-0.8-24.9-5.8-31.8-16.7 0-0.3 0-0.3 0-0.3-3.2 1.6-7.5 2.2-10.6 2.4-6.1 0.6-12.8-0.5-18.6-2.4-18.1-6.3-28.4-22.7-32.6-40.5-3.2-13.5-3-28.9 4.2-41.1 1.1-1.6 2.1-3.1 3.2-4.5 2.1-2.6 4.8-5.3 7.7-7.4 2.9-2.1 6.1-4 9.5-5.3 0.6-0.3 1.4-0.5 1.9-0.8-0.5-19.1 10.1-38.1 27.6-45.6 10.6-4.7 23.1-5.5 33.9-2.1 0.6-0.8 1.1-1.6 1.1-1.6 12.2-15.3 33.4-20.6 52-15.6 4.8 1.3 9.5 3.2 13.8 5.8 4.2 2.4 7.9 5.6 11.1 9.3 0 0 0 0 0.3 0.3 17.2-3.5 36.1 1 48.3 14.5 4.2 4.8 7.4 10.4 9.5 16.5 0.6 1.3 3.5 13.7 3.7 18q2.8 0.4 5.6 1.6c15.7 5.8 20.2 24.4 14.9 38.9-0.3 0.8-1.9 5.1-3.2 7.4q3.2 3.2 4.8 8.8c3.1 10.9-2.2 24.4-10.4 32.6zm-48.5-24.9c0 0-1.4-13.5-12-18.3-0.2 0-1-0.5-1-0.8 0-0.3 0.2-0.3 0.5-0.3 1.3 0.3 2.6 0.6 4 1.1 1.6 0.5 3.2 1.3 4.5 2.1 1.3 0.8 2.6 1.9 3.7 2.9 0.8-1.6 1.3-3.2 1.6-3.9 4.5-15.7 0.5-32.4-8.2-45.9-4.8-7.4-13.6-16.1-23.1-19.3 0 0-1.1-0.3-0.8-0.6 0-0.2 0.5 0 0.8 0 0.3 0 0.8 0.3 1 0.3 0.6 0 1.1 0 1.6 0.3 1.4 0.2 2.4 0.5 3.8 1 0.8 0.3 1.3 0.6 1.8 0.8 0-0.2 0-0.5 0-0.5-1.3-11.4-6.1-23.1-15.4-30.2-7.1-5.6-16.2-8-25.2-7.7-4 0-8.2 0.5-11.9 1.9-6.4 1.8-12 5.5-16.5 10.6 2.2 1.3 4 3.1 5.9 5 1.3 1.6 2.6 3.2 3.7 4.8 1 1.6 2.1 3.7 2.9 5.5 0.8 2.1 1.6 4.3 1.9 6.4 0 0.5 0.2 3.2-0.8 2.9-0.8-0.3-1.4-1.3-1.6-1.9-0.3 0-0.3-0.2-0.3-0.2-0.5-0.8-1.3-1.6-1.8-2.4-1.4-1.9-3-3.4-4.6-4.8-6.9-6.1-15.3-10-24.6-11.1-16.7-1.9-34.8 5.6-40.9 22-1 2.9-1.6 5.8-2.1 8.7 0 0.6 0 3.2-0.3 5.3 2.9-0.2 5.6 0 8.3 0.8 1.8 0.6 3.4 1.1 5 1.9 0.5 0.2 3.4 1.6 2.4 2.4-0.3 0.2-1.1 0.2-1.3 0.2q-1.2 0-2.4 0-6.4 0.4-12.8 2.4c-4.2 1.6-7.9 3.7-11.4 6.4-12.4 10-15.9 25.9-14.3 41.3 1.9 18 11.9 33.9 31 36.6 4.5 0.5 9.1 0.5 13.3-0.3 0 0 0.8 0 1.9-0.3-4.3-11.6-4-24.9 4.2-35.5 0.5-0.5 4.8-5.5 7.4-8.2-0.2-0.5-0.2-0.8-0.5-1.3-0.3-0.5-0.3-1.3-0.5-1.9-0.3-0.5-0.3-1.3-0.6-1.8-1-4.2-1.6-8.2-1.6-12.5 0-1.3-0.2-2.9 0.6-3.9 0.8-0.8 1 1.3 1 1.6 0.3 1 0.3 2.1 0.6 3.1 0.2 1.4 0.5 2.4 0.8 3.7 0.2 1.4 0.8 2.4 1 3.5 0.6 1 0.8 2.1 1.4 3.2 0.2 0.8 0.8 1.8 1.3 2.6 0.2 0.8 0.8 1.6 1.3 2.4 0.5 0.8 1.1 1.3 1.6 2.1 0.5 0.6 1.1 1.3 1.6 1.9q0.8 0.8 1.6 1.6c0.5 0.5 1 0.8 1.6 1.3 0.5 0.5 1 1.1 1.6 1.3 0.5 0.5 1 0.8 1.6 1.1q0.8 0.4 1.5 0.8 0.8 0.4 1.6 0.8c0.6 0.2 1.1 0.2 1.6 0.5 0.3 0 0.8 0.3 1.4 0.3 0.8 0.2 1.6 0.5 2.3 0.5 0.3 0 0.8 0.3 0.6 0.5 0 0.3-0.3 0.5-0.6 0.5-1 0.6-2.3 0.8-3.4 0.8q-2 0-4 0c-0.8 0-1.6 0-2.4-0.2-0.8 0-1.3-0.3-2.1-0.6-0.5-0.2-1.3-0.5-1.8-0.7-0.8-0.3-1.4-0.8-1.9-1.1-0.5-0.5-1.1-0.8-1.6-1.3-0.5-0.3-0.8-0.8-1.3-1.4q-0.4-0.4-0.8-0.7c-1.9 3.1-4.8 7.4-5.3 8.4-2.9 6.1-4 13.3-2.4 20.2 2.6 11.4 12.7 19.3 23.6 22.8 12.2 3.7 25.7 0.7 36.3-6.1 2.2-1.4 6.1-4 8.8-6.7 2.4-1.8 2.4-0.2 2.1 0.6-0.5 2.6-1.3 5-2.4 7.4 4.3 4.5 14.6 11.9 34.8 5.5 0 0 30.8-6.8 23.1-40.2zm49.3-5.1c-0.3-1.6-0.5-3.1-1.1-4.7-0.7-2.4-2.3-4.8-3.9-6.7-1.9-2.1-4-3.7-6.4-5.3-0.3-0.2-0.8-0.5-1.1-0.7v-0.3c0.3-0.3 0.6-0.3 0.8-0.3 1.1 0 2.4 0 3.5 0.3q1.6 0.4 3.2 0.8c0.5-1.1 1-2.4 1-2.7 1.4-3.4 2.2-6.9 2.4-10.6 1.1-19-19.6-25.4-35-27-1.6-0.3-0.5-0.5-0.3-0.8 0.3 0 0.8-0.3 1.1-0.3 4.2-1 8.7-1.5 13.3-1.8-0.6-3.7-2.2-11.4-2.4-12.5-5.1-18.2-23.6-27.2-41.9-25.1-0.6 0-0.8 0.2-1.4 0.2 2.7 6.7 4.8 15.7 3.5 26 0.5 0.3 1 0.8 1.6 1.1q1.6 1.2 3.2 2.3c1 0.8 2.1 1.6 2.9 2.7 0.8 0.8 1.8 1.8 2.6 2.9q1.2 1.6 2.4 3.2c0.8 1 1.3 2.4 2.1 3.4 8.5 14.6 10.9 33.2 5.1 48.8 0 0.3-0.8 2.1-1.6 3.7 0.5 0.5 0.8 1.3 1 1.8 1.4 2.4 2.2 5.3 2.4 8 0 0 3.7 11.1 0.6 23.3 7.7 1.1 25.2 2.4 34.2-8.2 4.8-5.6 7.9-13.8 8.2-21.5z"/>
		<path id="Layer" fill-rule="evenodd" class="s0" d="m1415 185.6l14.1-80.3c0.5-3.7 2.6-5.3 6.1-5.3h19.6c3.7 0 5 1.9 4.5 5.3l-12.5 70.5q-0.8 4-0.8 7.1c0 5.9 2.4 8.5 6.9 8.5 7.7 0 12.5-6.6 15.1-19.9l11.5-66.2c0.5-3.4 2.6-5.3 6.1-5.3h19.6c3.7 0 5 1.9 4.5 5.3l-19.1 107.3c-0.8 3.5-2.9 5.3-5.8 5.3h-17.5c-3.8 0-5.6-1.6-5.6-4.5l0.5-5.8c-1.8 2.4-3.7 4.5-5.3 5.8-1.6 1.6-4 2.9-6.9 4.2-2.9 1.4-6.4 1.9-10.3 1.9-8.3 0-14.4-2.1-18.9-6.4-4.5-4.2-6.6-10.3-6.6-18.5 0-3.2 0.3-6.1 0.8-9zm-140.1-85.6h18.3c3.7 0 5.3 1.9 5.1 5.3l-1.1 9.5c2.4-4.2 5.3-7.9 9.6-11.1 3.9-3.2 8.4-4.5 13.5-4.5 2.1 0 3.4 0.5 4.2 1.3 0.8 0.8 0.8 2.4 0.3 4.3l-4.3 24.9c-0.5 3.2-2.3 5-5.3 5-0.5 0-1.5 0-2.9-0.2-1.3-0.3-2.6-0.3-3.7-0.3-4.5-0.3-8.5 1.8-11.7 5.8-3.1 4-5.3 9.8-6.6 17l-9.8 55.6c-0.5 3.7-2.7 5.3-5.8 5.3h-19.7c-3.7 0-5.3-1.8-4.8-5.3l18.9-107.3c0.5-3.4 2.4-5.3 5.8-5.3zm-979.7-9.5l3.2-18c0.8-4 2.9-5.9 6.4-5.9h66.5c4.3 0 5.9 1.9 5.1 5.9l-3.2 18c-0.5 3.9-2.7 5.8-6.4 5.8h-17.5l-20.7 115.8c-0.5 4-2.6 5.8-6.3 5.8h-20.7c-4.3 0-5.9-1.8-5.1-5.8l20.7-115.8h-17c-3.9 0-5.5-1.9-5-5.8zm162.9 43.7l-13.5 78.4c-0.8 3.5-3 5.3-5.9 5.3h-19.6c-3.7 0-5.3-1.8-4.8-5.3l12.5-70.7q0.8-3.6 0.8-7.2c0-5-2.1-7.7-6.6-7.7-8.3 0-13.6 6.9-16 21l-11.4 64.6c-0.5 3.5-2.6 5.3-5.8 5.3h-19.6c-3.8 0-5.3-1.8-4.8-5.3l24.9-140.7c0.6-3.4 2.4-5 5.9-5h19.6c3.7 0 5.3 1.6 4.8 5l-6.4 36.9c7.2-6.9 14.6-10.4 23.1-10.4 7.9 0 13.8 2.4 17.8 6.9 3.9 4.5 6.1 10.9 6.1 19.1 0 3.2-0.3 6.6-1.1 9.8zm1.6 51.4l14-80.3c0.6-3.7 2.7-5.3 6.1-5.3h19.7c3.7 0 5 1.9 4.5 5.3l-12.5 70.5q-0.8 4-0.8 7.1c0 5.9 2.4 8.5 6.9 8.5 7.7 0 12.5-6.6 15.1-19.9l11.5-66.2c0.5-3.4 2.6-5.3 6.1-5.3h19.6c3.7 0 5 1.9 4.5 5.3l-18.8 107.3c-0.8 3.5-3 5.3-5.9 5.3h-17.5c-3.7 0-5.6-1.6-5.6-4.5l0.6-5.8c-1.9 2.4-3.7 4.5-5.3 5.8-1.6 1.6-4 2.9-6.9 4.2-2.9 1.4-6.4 1.9-10.4 1.9-8.2 0-14.3-2.1-18.8-6.4-4.5-4.2-6.6-10.3-6.6-18.5-0.3-3.2 0-6.1 0.5-9zm180.6-51.4l-13.5 78.4c-0.8 3.5-2.9 5.3-5.8 5.3h-19.7c-3.9 0-5.5-1.8-4.7-5.3l12.4-70.7q0.8-5.6 0.8-7.2c0-5.3-2.3-7.9-6.9-7.9-8.2 0-13.8 6.9-16.1 20.6l-11.2 65.2c-0.5 3.7-2.4 5.3-5.8 5.3h-19.4c-3.7 0-5.3-1.8-4.5-5.3l18.8-107.3c0.6-3.7 2.7-5.3 6.1-5.3h17.3c3.7 0 5.6 1.6 5.6 4.5l-0.6 5.8q9.6-11.9 23.9-11.9c8 0 13.8 2.4 17.8 6.9 4 4.5 6.1 10.9 6.1 18.8 0.5 2.7 0.2 6.1-0.6 10.1zm53.4 79.2l0.5-5.8c-2.1 3.2-5.3 6.1-9.5 8.5-4.3 2.3-9.1 3.4-14.4 3.4-9 0-16.2-2.6-20.7-7.9q-7.1-8-7.1-26.3c0-7.7 0.8-16.4 2.9-26.2 3.7-21.5 8.7-37.1 15.6-46.6q10.4-14.3 27.9-14.3 8 0 14.3 3.1 6.4 3.2 8 7.2l6.3-36.8c0.6-3.5 2.4-5.1 5.9-5.1h19.3c3.8 0 5.4 1.6 4.8 5.1l-24.9 140.9c-0.5 3.7-2.4 5.3-5.8 5.3h-17.6c-3.7 0-5.5-1.6-5.5-4.5zm9-54.3c1.3-8 1.8-14.3 1.8-19.1 0-10.3-3.4-15.4-10-15.4-4.8 0-8.5 2.7-11.2 7.7-2.6 5.1-5.3 14.1-7.4 26.8-1.6 9.5-2.4 16.4-2.4 21.2 0 8.7 2.9 13.2 9 13.2 4.8 0 8.8-2.6 12-7.6 3.1-5.3 5.8-14.4 8.2-26.8zm83.8 35.5c6.1 0 12.2-0.8 18.3-2.7 1.9-0.5 3.5-0.5 4.5 0.3 1.1 0.8 1.4 1.9 1.1 4l-1.6 13.8c-0.5 3.1-2.6 5.5-6.1 6.6-6.4 1.8-13.8 2.9-21.7 2.9q-21.5 0-31.9-8.7c-6.9-5.9-10.3-15.7-10.3-29.2 0-5.3 0.8-13.2 2.6-23.8 3.7-21.2 9.6-36.6 17.3-45.6 7.7-9.3 18.8-13.8 33.1-13.8 21.8 0 32.9 11.1 32.9 32.9 0 5.3-0.8 12.4-2.1 21.2l-2.4 13.5c-0.5 2.4-1 3.7-2.1 4.5-1.1 0.8-2.7 1-5 1h-44.6c-0.5 3-0.8 5.6-0.8 8.3 0 5.3 1.3 9 4.5 11.4 3.2 2.3 8 3.4 14.3 3.4zm2.7-72.6c-4.3 0-7.5 2.1-10.1 6.4-2.4 4.2-4.8 11.6-6.9 22.2h22.5l0.6-2.6c1-6.7 1.6-11.7 1.6-15.4 0-6.9-2.7-10.6-7.7-10.6zm57-22h18.3c3.7 0 5.3 1.9 5.1 5.3l-1.1 9.5c2.4-4.2 5.3-7.9 9.5-11.1 4-3.2 8.5-4.5 13.6-4.5 2.1 0 3.4 0.5 4.2 1.3 0.8 0.8 0.8 2.4 0.3 4.3l-4.3 24.9c-0.5 3.2-2.3 5-5.3 5-0.5 0-1.6 0-2.9-0.2-1.3-0.3-2.6-0.3-3.7-0.3-4.5-0.3-8.5 1.8-11.7 5.8-3.2 4-5.3 9.8-6.6 17l-9.8 55.6c-0.5 3.7-2.7 5.3-5.9 5.3h-19.9c-3.7 0-5.3-1.8-4.7-5.3l18.8-107.3c0.5-3.4 2.7-5.3 6.1-5.3zm98.4 5.8h10.6c3.5 0 5.1 1.9 4.6 5.3l-3 17.3c-0.5 3.4-2.4 5-5.8 5h-11.4l-14.1 79.2c-0.5 3.5-2.4 5-5.8 5h-18.8c-3.8 0-5.3-1.5-4.8-5l14-79.2h-5.5c-3.5 0-5.1-1.6-4.5-5l3.1-18.1c0.6-3.1 2.7-5 5.9-5h5.8l1.3-8.2c2.2-12.2 5.6-20.7 10.4-25.2 4.8-4.5 12.5-6.6 23.1-6.6q9.1 0 13.5 1.6c2.4 0.8 3.5 2.6 2.9 5.3l-2.1 13.5c-0.5 3.7-2.7 5.3-6.1 5h-3.7c-3.2 0-5.6 0.8-6.6 2.2-1.4 1.3-2.2 4.2-3 8.2zm11.7 79.7l14.1-80.3c0.5-3.7 2.6-5.3 6.1-5.3h19.6c3.7 0 5 1.9 4.5 5.3l-12.5 70.5q-0.8 4-0.8 7.2c0 5.8 2.4 8.4 6.9 8.4 7.7 0 12.5-6.6 15.2-19.8l11.4-66.3c0.5-3.4 2.6-5.3 6.1-5.3h19.6c3.7 0 5 1.9 4.5 5.3l-18.8 107.3c-0.8 3.5-2.9 5.3-5.9 5.3h-17.5c-3.7 0-5.5-1.5-5.5-4.5l0.5-5.8c-1.9 2.4-3.7 4.5-5.3 5.8-1.6 1.6-4 3-6.9 4.3-2.9 1.3-6.4 1.8-10.4 1.8-8.2 0-14.3-2.1-18.8-6.3-4.5-4.3-6.6-10.4-6.6-18.6-0.3-3.2 0-6.1 0.5-9zm146.4-113.6l-24.6 140.6c-0.6 3.8-2.4 5.3-5.9 5.3h-19.6c-3.7 0-5.3-1.8-4.8-5.3l25-140.6c0.5-3.5 2.4-5.1 5.8-5.1h19.6c3.5 0 5.1 1.6 4.5 5.1zm144.4 53.5c3.7 0 5.3 1.8 4.5 5.8l-12.5 70c-0.5 3.4-2.6 6-6.1 8.2-9.3 5.3-21.8 8.2-36.9 8.2-15.9 0-27.8-4-36.1-11.7-8.2-7.7-12.2-20.4-11.6-37.6 0-6.9 1-15.9 2.9-27.3 5-27.5 13.3-47.2 24.7-58.3 11.4-11.4 27.3-16.9 47.5-16.9 13.5 0 23.6 2.3 30.7 6.8 2.9 1.6 4 4.3 2.7 7.5l-5.9 15.9c-1.5 3.7-4.2 4.7-8.2 3.4-6.1-2.4-12.7-3.4-19.6-3.4-12.5 0-21.5 3.1-27.3 9.5-5.9 6.4-10.1 18.6-13.3 36-1.6 9.6-2.4 16.7-2.4 22-0.3 9 1.6 15.4 5.3 19.4 3.7 3.7 9.6 5.5 17.8 5.5 4.2 0 7.7-0.5 10.9-1.8l6.3-34.7h-12.7q-5.6 0-4.8-5.6l2.7-14.8c0.8-4 2.6-5.9 6.1-5.9 0-0.2 35.3-0.2 35.3-0.2zm80.3 83.2c-6.6-6.9-9.5-17.3-9.2-31.3 0-5.3 0.8-11.7 1.8-19.3 3.5-20.7 9.8-36.1 18.6-45.9 8.7-9.8 20.4-14.5 34.7-14.5 12.5 0 21.8 3.4 28.4 10.3 6.7 6.9 9.6 17.5 9.3 31.5 0 6.4-0.8 12.7-1.8 19.1-3.8 20.7-9.9 36-18.6 45.8-8.8 9.8-20.4 14.6-34.8 14.6-12.4 0-22-3.4-28.4-10.3zm44.1-24.1c3.2-5.3 5.8-13.8 8.2-26.3 1.3-7.7 1.9-13.5 2.1-17.7 0.3-10.9-3.4-16.2-11.1-16.2-5.3 0-9.6 2.7-13 7.7-3.2 5.3-5.8 13.8-8 26.2-1.3 7.2-2.1 13-2.1 17.8-0.3 10.8 3.5 16.1 11.2 16.1 5.3 0 9.5-2.6 12.7-7.6zm178.3-72.9c2.9-4.2 6.9-7.7 11.6-10.6q7.2-4 15.2-4c20.1 0 29.9 13 29.7 38.7 0 6.4-0.8 13.5-2.2 22-3.4 20.7-9 36-16.1 45.6-7.2 9.5-16.8 14.5-28.7 14.5-5.6 0-10.9-1.3-15.6-3.7-4.8-2.3-7.7-5.5-9.1-9.5l-5 28.9c-0.5 3.7-2.7 5.5-5.8 5.5h-19.1c-3.5 0-4.8-1.8-4.3-5.5l22.6-128.5c0.8-4 2.6-5.9 5.8-5.9h17q5.2 0 4.8 4.8zm-9.1 61.5c-0.2 11.9 3.7 17.7 12.2 17.7 5.3 0 9.9-2.6 13.3-7.6 3.5-5.1 6.1-13.8 8.2-26 1.1-7.4 1.9-13 1.9-17 0-5.8-0.8-10-2.7-12.7-1.8-2.6-4.7-4-9-4q-8.3 0-13.5 8c-3.7 5.3-6.4 13.8-8.5 25.4-1.3 6.4-1.9 11.4-1.9 16.2z"/>
	</g>
</svg>