<svg version="1.2" xmlns="http://www.w3.org/2000/svg" viewBox="0 0 1557 1016" width="1557" height="1016">
	<title>instil-bio-logo-svg</title>
	<style>
		.s0 { fill: #0f75bb } 
		.s1 { fill: #243f75 } 
	</style>
	<g id="#0f75bbff">
		<path id="Layer" class="s0" d="m484 0.5c11.1-0.4 22.6 0.1 32.6 5.6c30.1 14.2 46.6 51.2 36.9 83.1c-8 32.5-42.9 56.5-76.1 50c-24.1-3.3-44.9-21.3-53.5-43.7c-9.8-25-5.1-56 14.6-74.9c11.5-12.5 28.1-21.1 45.5-20.1z" />
		<path id="Layer" class="s0" d="m743.8 89.5c7.4-2.2 15.3-1.4 22.9-1.6c19.8-0.9 38.3 10.1 50.7 24.9c19.4 22.7 22.7 57.5 7.7 83.4c-10.8 19.1-30.5 33.5-52.5 36c-9.3 2.1-18.8 0.1-27.8-2c-16.7-4.2-30.4-16-40.3-29.7c-11.3-16.2-14.2-37-11-56.2c4.9-25.6 25.1-47.7 50.3-54.8z" />
		<path id="Layer" class="s0" d="m209.9 103.9c25.7-5.5 53.4 8.8 65.4 31.9c8.8 16.5 9.8 37 3.1 54.4c-9 22.4-32 40.1-56.8 38.2c-26.5 1.9-51.1-18-58.8-42.8c-3-8.2-2.3-17.1-2.4-25.7c-0.3-15.5 8-30 19.1-40.3c8.1-8.4 18.9-13.8 30.4-15.7z" />
		<path id="Layer" class="s0" d="m911.2 338.5c21.6-4.3 45.2 2 61.9 16.6c16 13.7 28 34 27.3 55.6c0 10.3 0.7 21-3.2 30.8c-10.1 28.9-39.1 52.7-70.6 50.5c-30.7 2.6-59.6-19-71.1-46.6c-6.3-13.6-6.7-28.9-5.4-43.6c4.4-31 30.1-58.1 61.1-63.3z" />
		<path id="Layer" class="s0" d="m37.2 343.5c11.8-2.5 24.8-2.2 35.6 3.6c14.4 7 24.9 21.3 27.2 37.3c5 27.8-19.4 55.5-47.3 56.1c-26.5 1.8-52.4-20.9-52.2-47.9c-1.5-22.5 15.6-43.3 36.7-49.1z" />
	</g>
	<g id="#243f75ff">
		<path id="Layer" fill-rule="evenodd" class="s1" d="m380.3 366.4q67-0.3 133.9 0.2c18.1 2 36.5 1.3 54.5 4.3c35 3.7 70 14.5 98.5 35.7c28.9 21.1 50.5 52.5 58.4 87.6c2.7 8.9 2.3 18.2 2.6 27.4c-0.1 18.9 1.4 38.3-5.3 56.3c-9.3 31.5-32.3 56.3-57.4 76.4c30.1 14.3 58.6 33.8 78.7 60.8c21.6 29.5 32.1 66.4 31 102.8c2.7 68-38 135.4-98.7 165.6c-30.7 15-65.1 19.2-98.8 21.1c-65.8-0.1-131.6 0.1-197.4-0.1c0-212.7-0.1-425.4 0-638.1zm120.3 117.8c0 44.3-0.2 88.5 0.1 132.8c8.7 0.2 17.4 0.1 26.2 0.1c21.2 0.7 43.9-3 61.5-15.8c25.6-18.9 31.8-57.5 16.7-84.9c-7.9-12.9-20.6-22.9-35.3-27.2c-22.3-7.4-46.1-4.7-69.2-5zm0.1 242.3q-0.2 80.5 0 161c31.9 0.3 64.2 0.9 95.7-5.5c15.7-3.2 31.7-8.7 43.1-20.5c12.1-12.3 18.5-30 17.3-47.2c1.6-25.8-11.5-51.8-33-66.1c-17.9-12.1-39.5-17-60.6-19.5c-20.8-2.8-41.7-2.4-62.5-2.2z" />
		<path id="Layer" fill-rule="evenodd" class="s1" d="m1290.6 522.4c18.6-0.3 37.2-1 55.5 2.2c71.1 10.5 137.7 52.9 174.9 114.8c19.5 31.3 31.4 67.3 35.1 104c0.5 16.4 0.4 32.8 0.1 49.2c-6.7 73-47.2 142.9-108.9 182.9c-56.8 38.1-129.4 48.7-195.6 33.9c-41.5-9.6-79.8-31.5-110-61.4c-34.8-33.1-60.2-76.5-69.6-123.7c-6.4-26.5-5.3-54-4.5-81c3.4-39.4 16.6-78.1 38.8-111c34.3-50.4 86.6-89.5 146.3-103.9c12.4-3 25.2-4.7 37.9-6zm-3.6 110.9c-29.8 4.9-57.1 22.2-75.3 46.2c-20.9 26.6-29.4 61.4-28.1 94.8c0.8 33.3 11.5 67.2 34.3 92c22.8 26 57.4 41.1 92 39.9c33.8 1.3 67.7-12.9 90.8-37.5c25.8-26.2 37.9-63.5 37.6-99.9c0.4-36.3-10.8-74.4-37.2-100.4c-23-25-57.5-38.2-91.2-36.9c-7.7-0.1-15.4-0.2-22.9 1.8z" />
		<path id="Layer" class="s1" d="m866.3 533.3c39.2-0.5 78.4-0.2 117.6-0.2c0.1 97.9 0 195.9 0.1 293.9c-0.2 59.2 0.4 118.4-0.3 177.6c-38.9-0.2-77.8 0.1-116.7-0.1c-1.7-13.1 0.1-26.3-0.3-39.4c-0.9-8.5 0-16.9 0.2-25.4c-1.1-26.7-0.4-53.4-0.5-80c1.5-17-1.2-33.9 0.3-50.9c1.1-13.9-1.2-27.9 0.1-41.8c0.5-9.1-0.8-18.2-0.5-27.3c-0.4-10.3 1.2-20.6 0.3-30.9c-0.9-10.3 0.6-20.6 0.4-30.9c0.1-24.8-1.7-49.7-0.1-74.5c-1-23.4-0.5-46.8-0.6-70.1z" />
	</g>
</svg>