<svg version="1.2" xmlns="http://www.w3.org/2000/svg" viewBox="0 0 1602 559" width="1602" height="559">
	<title>instil-bio-logo-svg</title>
	<style>
		.s0 { fill: #0f75bb } 
		.s1 { fill: #243f75 } 
	</style>
	<g id="#0f75bbff">
		<path id="Layer" class="s0" d="m1011.4 0.3c6.1-0.2 12.4 0 17.9 3c16.6 7.9 25.7 28.2 20.4 45.8c-4.4 17.9-23.6 31-41.9 27.5c-13.3-1.8-24.7-11.7-29.5-24.1c-5.4-13.7-2.8-30.8 8-41.1c6.4-6.9 15.5-11.7 25.1-11.1z" />
		<path id="Layer" class="s0" d="m1154.4 49.3c4.1-1.3 8.4-0.9 12.6-0.9c10.9-0.5 21.1 5.5 27.9 13.6c10.7 12.6 12.5 31.7 4.3 46c-6 10.5-16.8 18.4-29 19.8c-5.1 1.1-10.3 0-15.3-1.2c-9.1-2.3-16.7-8.8-22.1-16.3c-6.3-8.9-7.8-20.4-6.1-30.9c2.7-14.1 13.8-26.2 27.7-30.1z" />
		<path id="Layer" class="s0" d="m860.5 57.1c14.2-2.9 29.4 4.9 36 17.6c4.9 9.1 5.4 20.4 1.7 30c-4.9 12.3-17.6 22-31.2 21c-14.6 1-28.2-10-32.4-23.6c-1.7-4.5-1.3-9.4-1.3-14.1c-0.2-8.6 4.4-16.5 10.5-22.2c4.5-4.6 10.4-7.6 16.7-8.7z" />
		<path id="Layer" class="s0" d="m1246.5 186.2c12-2.3 24.9 1.1 34.1 9.2c8.8 7.5 15.4 18.7 15.1 30.6c0 5.7 0.3 11.5-1.8 16.9c-5.6 15.9-21.5 29-38.9 27.8c-16.9 1.4-32.8-10.5-39.1-25.6c-3.5-7.5-3.7-16-3-24c2.4-17.1 16.6-32 33.6-34.9z" />
		<path id="Layer" class="s0" d="m765.5 189c6.5-1.4 13.6-1.2 19.6 1.9c7.9 4 13.7 11.8 14.9 20.6c2.8 15.3-10.6 30.5-26 30.9c-14.6 1-28.8-11.5-28.7-26.4c-0.9-12.4 8.6-23.8 20.2-27z" />
		<path id="Layer" class="s0" d="m853.5 194.4c10.9-0.3 21.9-0.1 32.8-0.1c0.4 66.2 0.1 132.5 0.2 198.7c-0.1 52.8 0.1 105.5-0.1 158.3c-11 0-21.9 0.3-32.9-0.2c0-118.9 0-237.8 0-356.7z" />
		<path id="Layer" class="s0" d="m624.8 200.3c0-2.7 3.2-2.3 5.1-2.4c9.7 0.1 19.5-0.5 29.2 0.9c0.2 31.3-0.1 62.7 0.1 94c17.4 0.1 34.7-0.1 52 0.1c0.2 9.5 0.1 19 0.1 28.6c-17.6 0.6-35.2-0.3-52.8 0.4c-0.1 76.5 0.1 152.9-0.1 229.4c-11.2-0.1-22.5 0.5-33.7-0.3c0-76.4 0.1-152.9-0.1-229.3c-14.9-0.2-29.9 0.2-44.9-0.2c0-9.5-0.1-19.1 0.1-28.6c14.9-0.2 29.9 0.1 44.8-0.2c0.2-30.8-0.1-61.6 0.2-92.4z" />
		<path id="Layer" class="s0" d="m1.2 203.3c11.4-0.1 22.8 0 34.3-0.1c0.3 64.6 0 129.2 0.1 193.8c-0.1 51.4 0.1 102.9-0.1 154.3c-11.5 0.1-23 0.2-34.5 0c-0.2-3.8-0.1-7.6 0.1-11.3c0.4-6.7-0.5-13.3-0.3-20c0.5-9.7 0.5-19.4 0-29c-0.1-6.3 0.8-12.7 0.2-19c-0.7-9.7 0.7-19.3-0.1-29c-0.3-4.7 0.5-9.3 0.1-14c-0.5-6 0.4-12 0.1-18q-0.6-11.5 0-23c0.3-5.3-0.6-10.7-0.2-16c0.6-8.3 0.1-16.7 0-25c0.6-9 0.1-18-0.1-27c0.8-9.3 0.2-18.7 0.1-28c0.9-13.7-0.4-27.3 0-41c0.8-9.7-0.5-19.3 0-29c0.6-6.2-0.6-12.5 0.3-18.7z" />
		<path id="Layer" class="s0" d="m175.9 307c24.4-17.3 56-23.5 85.2-17.7c23.1 4.7 44.1 19 56.6 38.9c9.9 15.4 13.8 33.7 15.7 51.6c1.7 10.7 0.6 21.6 2 32.4c0.2 46.3 0 92.6 0.1 138.9c-11 0.6-22 0.2-33 0.2c-0.2-48.1 0.1-96.2-0.2-144.4c-0.9-9.2-1.2-18.5-2-27.7c-2.4-16.5-7.6-33.7-20.2-45.3c-10-10.2-24.2-14.9-38.1-16.4q-8-0.2-16 0c-11.9 1.2-23.6 4.8-33.9 10.8c-18.2 10.9-33 27.7-40.6 47.5c-6.7 16.2-6.4 34-7.9 51.2c-0.2 41.4-0.1 82.7-0.1 124.1c-11 0.6-22.1 0.2-33.1 0.2c-0.2-86-0.1-172-0.1-258c11.1-0.1 22.1-0.1 33.2 0c0.2 15-0.3 30 0.2 45c9.4-11.7 19.7-22.9 32.2-31.3z" />
		<path id="Layer" class="s0" d="m428.4 296.2c14.4-8.3 31.8-10.4 48.1-8.2c17.8 2.7 34.2 11.4 48.3 22.3c4.2 3.3 8.4 6.6 12.1 10.6c-7.1 7.3-14.2 14.5-21.4 21.7c-4-2.9-7.4-6.6-11.5-9.5c-12-9.2-26.6-16.4-42-15.7c-17.5 0-34.3 13.4-37.4 30.7c-2 13 4.7 25.7 14.2 34c15.2 13.6 34.3 21.3 51.5 31.7c12.1 7.4 24 15.7 33.1 26.8c8.5 11.2 13.9 25.2 13.3 39.4c0 4.3 0.1 8.6-0.2 12.9c-2.1 15.7-9.5 30.7-20.9 41.7c-10.3 10.8-24 18.1-38.6 21c-32.9 6.5-69-5.1-91.6-30c-1.1-1.2-3.1-2.9-1.3-4.5c6.4-7.5 12.7-15.2 19.7-22.2c7.6 7.6 15.2 15.4 24.8 20.5c11.7 6.4 25.6 9.7 38.8 7c13.1-2.4 25.1-10.5 32.2-21.8c7.8-12.2 7.8-28.8 0.1-41.2c-4.6-7.9-12.3-13.2-19.8-18.2c-18.3-12-39.1-19.9-56.4-33.6c-12.4-9.2-22.6-21.9-26.6-37c-2.8-10-3.1-20.7-1.7-30.9c2.7-19.9 15.6-37.9 33.2-47.5z" />
		<path id="Layer" class="s0" d="m755.7 293.5c11.3-0.4 22.5-0.3 33.8-0.1c0 85.9 0 171.8 0 257.8c-6.8 0.4-13.7 0.1-20.5 0.2c-4.4-0.1-9 0.4-13.3-0.7c0-85.7 0-171.5 0-257.2z" />
	</g>
	<g id="#243f75ff">
		<path id="Layer" fill-rule="evenodd" class="s1" d="m954.3 201.6q36.9-0.2 73.7 0.1c10 1.1 20.1 0.7 30 2.4c19.3 2 38.6 7.9 54.2 19.6c15.9 11.6 27.8 28.9 32.2 48.2c1.5 4.9 1.3 10 1.4 15.1c-0.1 10.4 0.8 21.1-2.9 31c-5.1 17.3-17.8 30.9-31.6 42c16.6 7.9 32.2 18.6 43.3 33.4c11.9 16.3 17.7 36.6 17.1 56.6c1.5 37.4-20.9 74.5-54.4 91.1c-16.8 8.3-35.8 10.6-54.3 11.6c-36.2 0-72.4 0.1-108.7-0.1c0-117 0-234 0-351zm66.3 64.8c-0.1 24.4-0.1 48.7 0 73.1c4.8 0.1 9.6 0 14.4 0.1c11.7 0.3 24.2-1.7 33.9-8.7c14.1-10.5 17.4-31.7 9.2-46.8c-4.4-7.1-11.4-12.6-19.4-15c-12.4-4-25.4-2.5-38.2-2.7zm0.1 133.3q-0.1 44.3 0 88.6c17.6 0.2 35.4 0.5 52.7-3c8.6-1.8 17.4-4.8 23.7-11.3c6.7-6.8 10.2-16.5 9.5-26c0.9-14.2-6.3-28.5-18.1-36.4c-9.9-6.6-21.8-9.3-33.4-10.7c-11.4-1.5-23-1.3-34.4-1.2z" />
		<path id="Layer" fill-rule="evenodd" class="s1" d="m1455.4 287.4c10.2-0.1 20.4-0.5 30.5 1.3c39.2 5.7 75.8 29 96.3 63.1c10.7 17.2 17.3 37 19.3 57.2c0.3 9 0.2 18 0 27.1c-3.6 40.2-25.9 78.6-59.9 100.6c-31.2 21-71.2 26.8-107.6 18.7c-22.9-5.3-44-17.4-60.6-33.8c-19.1-18.2-33.1-42.1-38.3-68.1c-3.5-14.6-2.9-29.7-2.5-44.5c1.9-21.7 9.2-43 21.4-61.1c18.9-27.7 47.7-49.3 80.5-57.2c6.9-1.6 13.9-2.6 20.9-3.3zm-2 61c-16.4 2.7-31.4 12.2-41.4 25.5c-11.6 14.6-16.2 33.7-15.5 52.1c0.4 18.3 6.3 37 18.8 50.6c12.6 14.4 31.7 22.7 50.7 22c18.6 0.7 37.2-7.1 50-20.6c14.2-14.5 20.8-35 20.7-55c0.2-20-6-40.9-20.5-55.2c-12.7-13.8-31.6-21.1-50.2-20.4c-4.2 0-8.5-0.1-12.6 1z" />
		<path id="Layer" class="s1" d="m1221.8 293.4c21.6-0.3 43.2-0.1 64.8-0.1c0 53.9 0 107.8 0 161.7c-0.1 32.6 0.2 65.2-0.2 97.8c-21.4-0.2-42.8 0-64.2-0.1c-0.9-7.2 0.1-14.5-0.1-21.7c-0.5-4.7 0-9.3 0.1-14c-0.6-14.7-0.3-29.3-0.3-44c0.8-9.3-0.7-18.7 0.2-28c0.6-7.7-0.7-15.3 0-23c0.3-5-0.4-10-0.3-15c-0.2-5.7 0.7-11.3 0.2-17c-0.5-5.7 0.3-11.3 0.2-17c0.1-13.7-0.9-27.3 0-41c-0.6-12.9-0.3-25.7-0.4-38.6z" />
	</g>
</svg>