<svg version="1.2" xmlns="http://www.w3.org/2000/svg" viewBox="0 0 1542 256" width="1542" height="256">
	<title>tivic-svg</title>
	<style>
		.s0 { fill: #ffffff } 
	</style>
	<g id="Layer">
		<path id="Layer" class="s0" d="m0.6 33.7h83.4v207h34.1v-207h83.5v-29.6h-201zm416.4-29.6h33.4v236.6h-33.4zm653.8 0h33.4v236.6h-33.4zm448.3 176.7l-2.2 2.3c-20.5 20.5-48.6 32.6-77.4 32.6h-0.8c-0.7 0-1.5 0-3 0-50.8-0.8-91-42.5-90.3-92.5v-0.8c0-0.7 0-2.2 0-3 0.8-24.3 10.7-47 28.1-63.7 17.4-16.7 41-25.8 65.2-25 28.9 0 55.4 11.3 75.9 31.1l2.3 2.2 23.5-23.5-2.3-2.2c-26.5-25.1-62.2-38.7-98.6-37.2-72.1 0-129 53.8-129 122.8v0.8c0 32.6 12.2 62.9 34.9 84.9 23.6 23.5 56.9 36.4 92.6 36.4 0.7 0 2.3 0 3 0 37.2 0 72.8-15.1 98.6-41.7l2.3-2.2z"/>
		<path id="Layer" class="s0" d="m602.8 3.3l155.5 252.6 16.7-26.6-122.9-199.4h41.8l102.4 165.3 15.9-25.8v0.8l-102.4-166.9zm183.5 28.1h79.7l-40.2 69.8 16.7 28 72.8-125.9h-145.6z"/>
	</g>
</svg>