<svg version="1.2" xmlns="http://www.w3.org/2000/svg" viewBox="0 0 1550 375" width="1550" height="375">
	<title>Just_Eat_orange_logo-svg</title>
	<style>
		.s0 { fill: #ff8000 } 
	</style>
	<g id="Layer">
		<path id="Layer" fill-rule="evenodd" class="s0" d="m174.4 4c7.2-4.8 16.6-4.8 23.8 0 18.3 11.6 35.9 24.3 52.7 38.1 0 0 4.6 3.1 4.7-2.2-0.5-6.9-0.1-13.9 1.2-20.7 1.4-3.7 4.9-6.1 8.8-6.1 0 0 20.7 1 33.8 2.8 5.9 0.7 10.5 5.5 11.1 11.4 0 0 8.5 56.4 10.4 76.8 0 0 1.6 10.3 16.6 27.9 0 0 30.4 42.7 33.9 50.8 0 0 7.1 14.8-8.1 16.8 0 0-27.8 2.8-30.5 3.4-3.7 0.4-6.4 3.8-6 7.6 0 0-1.5 98.1-8.7 145.3 0 0-1.9 18.7-12.2 18.3 0 0-28.5-0.9-35.2-0.7 0 0-2.8 0-2.4-3.9 0 0 14.6-153.1 4.7-230.5 0 0-0.4-10-8-12.2 0 0-7-2.8-13.6 6.1-28.8 40.4-44.6 88.6-45.2 138.2 0 0-0.8 24.4 2.9 30.5 0 0 2.3 4.2 14.2 5.2l14.9 2c0 0 2.8 0 2.5 3.7 0 0-3.4 44.9-4.4 52.9q0 2.7-1.1 5.3c0 0-0.5 1.5-5.2 1.3 0 0-66-0.4-73.4 0 0 0-3.1 0-3.8-1.6-0.7-1.7-4.6-58-4.4-66-0.2-1.6 0.8-3.2 2.3-3.9 10.2-6.4 16.9-17.1 18.2-29.1q1.3-12.9 0.4-25.7c0 0 2.4-86.1 3.1-100 0 0 0.4-4.7-5.6-5.5-1.5-0.4-3-0.1-4.3 0.7-1.3 0.7-2.2 2-2.6 3.5v0.5c0 0.5-4.2 56.8-3.4 79.2 0 0 1.4 14.7-8.7 15 0 0-9.9 1.5-10.4-10.8 0 0 0.7-55.2 3.2-82.5 0-3.1-2.3-5.8-5.4-6.1-3.3-0.5-6.3 1.7-6.9 4.9q0 0.3 0 0.5c0 0-4.2 52.9-3.4 80.8 0 0 1.2 13.5-9.6 13 0 0-9 1.1-9.5-11 0 0 2.4-75.6 3.1-81.4-0.1-3-2.4-5.5-5.4-5.8h-0.6c-3.2-0.2-6 2-6.5 5.1q-0.1 0.3 0 0.5c0 0-4 90.5-3.5 117.1 0 0-0.4 27.3 19.8 38.4 0 0 3 1.7 3 4.3 0 0 2.3 48 4.4 63.4 0 0 0.7 3.8-2.6 3.8l-50.7 1.4c-5.5-0.1-10.1-4.4-10.4-9.9-6.5-50.8-9.7-102.1-9.3-153.3 0.3-3.9-2.3-7.5-6.1-8.4 0 0-26-2.3-32.2-3.9-5.8-1.5-9.2-7.4-7.8-13.1q0.4-1.5 1.2-2.8c42.1-72.8 101.2-134.3 172.2-179.4zm374 165.2l-18.9 108.9c-6.8 38-23.7 69.8-64.9 83.3q-7 2.1-14.2 2.8c-4.1 0-6.8-2.1-11.5-13.6-2.6-4.8-4.2-10.1-4.7-15.6 0-3.4 2-6.1 9.4-8.1 29.1-8.8 38.5-23.7 42.6-45.3l16.9-96.9h-29.7c-14.9 0-14.9-0.7-11.5-19.6 3.4-19 3.4-19 19.6-19h50c20.3 0 20.3 0 16.9 23.1zm153.1-23.1c20.9 0 22.3 0 18.9 23.1l-14.9 87.3c-8.1 52.8-33.1 75.1-82.4 75.1-44 0-75.1-31.1-66.3-81.2l14.8-88c2.8-16.3 2.8-16.3 23.7-16.3 21 0 21.7 0 17.6 23.7l-14.2 84c-4.1 23 4 37.9 29.1 37.9 25 0 31.7-14.9 35.8-40.6l14.6-88c2.8-17 2.8-17 23.1-17zm92.3 144.2c16.3-0.6 25-8.1 25-15.5 0-9.5-11.5-12.9-27-17.6-30.4-9.5-58.2-20.3-58.2-52.8 0-38.6 31.8-59.6 71.7-59.6q24.1-0.2 48 2.1c10.8 1.3 13.6 4.7 10.2 21.6-3.5 16.9-7.5 18.3-16.9 17.6-11.5-0.7-26.4-2.1-44-2.1-20.2 0-26.3 7.5-26.3 14.3 0 8.8 8.1 13.5 27 19 35.1 10.1 58.1 24.3 58.1 54.8 0 35.9-26.3 56.9-68.9 58.2-20.4 0.7-40.8-0.4-60.9-3.3-13.6-2.1-14.3-2.1-10.9-21.7 3.4-17.6 3.4-19 16.2-17.6 18.9 2.4 37.9 3.3 56.9 2.6zm221.1-144c14.9 0 14.9 0.1 11.5 19.7-3.4 19.6-3.4 19.6-19.6 19.6h-35.8l-21.6 128c-2.8 16.9-3.5 16.9-23.1 16.9-20.9 0-21.6 0-17.5-23.6l21-121.5h-37.2c-14.2 0-15 0.1-11.5-19.6 3.4-19.7 3.4-19.7 19.6-19.7h114.2zm134.6 38.6l-5.4 33.2h50.7c20.9 0 20.9 0.7 18.2 19-2.6 18.3-2.6 18.3-18.2 18.3h-57.5l-5.4 35.2h69c14.9 0 14.9 0.7 11.5 19.6-3.4 19-2.6 19-19.6 19h-79.8c-29.1 0-29.8 0-24.3-31.8l20.9-122.6c4.7-29.1 4-29.1 33.1-29.1h81.8c14.9 0 15 0 11.6 19.6-3.5 19.7-3.5 19.7-19.7 19.7zm225.1-16.4l24.3 137.3c4 22.4 2 23.8-20.3 23.8-19.6 0-20.3 0-23-18.3l-3.4-24.4h-66.3l-10.8 24.4c-8.1 18.3-8.1 18.3-27.7 18.3-25 0-27-2.1-16.9-22.4l68.3-142.8c9.5-19 8.8-19 39.2-19 32.6 0 32.6 0 36.6 23.1zm-27.7 81.2l-8.1-57.5c-0.7-5.5-0.8-5.5-4.1-5.5-3.4 0-3.4 0-5.4 4.8l-26.4 58.2zm189.5-103.4c14.8 0 14.1 0 10.8 19.7-3.4 19.6-3.4 19.6-19.7 19.6h-35.7l-21.7 128c-2.7 16.9-3.4 16.9-23 16.9-21 0-21.6 0-17.6-23.7l21-121.4h-37.2c-14.2 0-14.8 0.1-11.5-19.6 3.4-19.7 3.4-19.7 19.6-19.7h115z"/>
	</g>
</svg>