<svg version="1.2" baseProfile="tiny-ps" xmlns="http://www.w3.org/2000/svg" viewBox="0 0 1550 1401" width="1550" height="1401">
	<title>Telos-Logo-2C-svg</title>
	<style>
		tspan { white-space:pre }
		.shp0 { fill: #7badd3 } 
	</style>
	<g id="Layer_2">
		<g id="Layer_1-2">
			<path id="Layer" class="shp0" d="M1510.39 531.28C1474.11 501.62 1453.32 479.93 1421.91 451.59C1381.2 425.47 1191.85 394.03 1067.98 392.26C982.59 395.81 914.02 388.72 966.67 557.4C1032.59 769.48 1004.27 1066.99 948.53 1225.49C1100.27 1015.64 1229.9 902.3 1485.17 723.87C1557.28 670.74 1572.33 580.43 1510.39 531.28Z" />
			<path id="Layer" class="shp0" d="M707.86 664.1C663.62 575.56 564.07 403.78 495.06 393.59C353.93 386.07 180.06 417.06 142.9 442.74C105.74 468.41 75.21 500.29 38.49 531.28C-23.01 581.75 -8.41 672.07 66.36 723.87C357.47 927.97 516.29 1086.47 691.93 1350.34C699.76 1365.48 711.6 1378.18 726.15 1387.04C740.7 1395.9 757.41 1400.58 774.44 1400.58C791.47 1400.58 808.18 1395.9 822.73 1387.04C837.28 1378.18 849.12 1365.48 856.95 1350.34C864.91 1337.95 873.32 1326.44 881.28 1314.48C877.85 1258.11 871.61 1201.93 862.57 1146.18C853.54 1090.43 841.72 1035.16 827.17 980.59C812.62 926.02 795.35 872.21 775.42 819.36C755.5 766.51 732.95 714.7 707.86 664.1L707.86 664.1Z" />
			<path id="Layer" class="shp0" d="M768.02 0C591.06 0 305.71 246.6 254.83 293.53C271.86 285.38 289.16 277.8 306.7 270.82C324.24 263.84 342.01 257.46 359.99 251.68C377.96 245.91 396.13 240.75 414.45 236.21C432.78 231.67 451.25 227.75 469.84 224.47C488.43 221.18 519.83 214.28 588.85 205.43C604.34 203.61 619.85 202.01 635.39 200.62C650.92 199.23 666.47 198.06 682.04 197.1C697.6 196.14 713.18 195.4 728.77 194.87C744.36 194.33 759.95 194.02 775.54 193.92C821.11 192.74 866.7 194.17 912.1 198.2C957.5 202.24 1002.63 208.87 1047.27 218.06C1091.91 227.26 1135.99 239 1179.29 253.24C1222.59 267.48 1265.04 284.18 1306.44 303.27C1249.81 253.69 943.66 0 768.02 0Z" />
		</g>
	</g>
</svg>