<svg version="1.2" xmlns="http://www.w3.org/2000/svg" viewBox="0 0 1585 1388" width="1585" height="1388">
	<title>TransMedics_Branding-svg</title>
	<defs>
		<clipPath clipPathUnits="userSpaceOnUse" id="cp1">
			<path d="m2.13 0.23h1582.66v1387.06h-1582.66z"/>
		</clipPath>
	</defs>
	<style>
		.s0 { fill: #ed2542 } 
	</style>
	<g id="Page-1">
		<g id="Hero_Unit_Sketch_Alternate">
			<g id="Branding">
				<g id="Transmedics_Branding_White">
					<g id="Group-3">
						<g id="Fill-1-Clipped">
							<g id="Clip-Path: Fill-1" clip-path="url(#cp1)">
								<path id="Fill-1" fill-rule="evenodd" class="s0" d="m1226 1.9c187.7 0 344.6 142 357.4 323.4 0.1 1.7 1.4 22.9 1.4 22.9 0 0-2.3 723.3-2.3 723.4 0 112.2-94.3 203.6-210.3 203.6-115.9 0-210.3-91.4-210.3-203.6 0 0-1.5-445.8-1.5-445.8 0-41.5-34.8-75.3-77.7-75.3-42.9 0-77.8 33.8-77.8 75.3l-0.1 557.9c0 112.2-94.4 203.6-210.3 203.6h-4.2c-116 0-210.3-91.4-210.3-203.6l-0.2-557.9c0-41.5-34.8-75.3-77.7-75.3-42.8 0-77.7 33.8-77.7 75.3 0 0-1.5 445.7-1.5 445.8 0 112.2-94.4 203.6-210.3 203.6-116 0-210.4-91.4-210.4-203.6 0 0-2.2-723.4-2.2-723.4 0 0 1.5-23 1.5-23.4 12.2-182 169.1-324.6 357.4-324.6 164.3 0 302.2 107.8 344.2 254.1v0.1l-403.8 0.1c-53 0-96 41.6-96 93 0 51.4 43 92.9 96 92.9l203.5-0.5c106 0 192 83.2 192 185.9l-0.5 557.9c0 51.4 43 92.9 96 92.9h4.2c53 0 96-41.5 96-92.9l-0.5-557.9c0-102.7 86-185.9 192.1-185.9l203.4 0.5c53 0 96-41.5 96-92.9 0-51.4-43-93-96-93l-403.1-0.1c42.6-145.4 180.2-252.5 343.6-252.5z"/>
							</g>
						</g>
					</g>
				</g>
			</g>
		</g>
	</g>
</svg>