<svg version="1.2" xmlns="http://www.w3.org/2000/svg" viewBox="0 0 1558 621" width="1558" height="621">
	<title>tonix-logo-svg</title>
	<style>
		.s0 { fill: #ffffff } 
	</style>
	<g id="Layer">
		<g id="Layer">
			<path id="Layer" fill-rule="evenodd" class="s0" d="m42.4 548h25.2c14.5 0 27.5 4.9 27.5 20.2 0 17.5-14.1 21-29.8 21h-9.5v29h-13.4zm21 30.5c7.6 0 17.6-0.4 17.6-9.9 0-8.8-8.8-9.9-16.1-9.9h-9.5v19.8zm77.9-30.5h13.3v28.2h34.8v-28.2h13.4v70.6h-13.4v-30.9h-34.8v30.9h-13.3zm137.1 0h11.4l32.1 70.6h-15.3l-6.9-16.1h-32.4l-6.9 16.1h-14.9zm17.2 43.9l-11.5-28.7-11.8 28.7zm95.9-43.9c14.5 0 27.8 4.2 27.8 20.2 0 10.3-6.1 17.6-17.2 19.1l19.9 31.3h-16l-17.2-29.8h-9.6v29.8h-13.3v-70.6zm-2.7 30.1c7.6 0 16.4-0.7 16.4-9.9 0-8.4-8.4-9.5-14.9-9.5h-11.4v19h9.9zm98.1-30.1l19.9 49.2 20.2-49.2h19.9v70.6h-12.2v-58.4h-0.4l-22.5 58.4h-9.2l-22.5-58.4h-0.4v58.4h-12.6v-70.6zm136.3 0h11.5l32 70.6h-15.2l-6.9-16h-32.5l-6.8 16h-14.9zm16.8 43.9l-11.5-28.6-11.8 28.6zm121-27.1c-5.3-5.4-10.7-6.9-15.6-6.9-15.3 0-25.6 11.1-25.6 25.2 0 14.9 10.3 26.3 25.6 26.3 6.1 0 11.8-2.6 16.8-8.4l11 7.3c-6.8 8.8-16.8 12.6-27.8 12.6-22.9 0-39.4-14.9-39.4-36.7 0-22.5 16.5-37.4 39.4-37.4 9.9 0 18.7 3.1 25.9 11.1zm55.8-16.8h49.2v11.5h-36.2v17.1h34.3v11.5h-34.3v19.1h38.2v11.4h-51.2zm158.8 44.7c0 17.1-12.9 27.4-30.1 27.4-17.2 0-30.2-10.6-30.2-27.4v-44.7h13.4v44.3c0 6.8 3.8 16 16.8 16 12.6 0 16.8-9.2 16.8-16v-44.3h13.3zm66.5-33.2h-22.9v-11.4h59.2v11.4h-22.9v59.2h-13.4zm79.8-11.5h13.4v70.6h-13.4zm115.7 16.8c-5.3-5.3-10.7-6.9-15.7-6.9-15.2 0-25.5 11.1-25.5 25.2 0 14.9 10.3 26.3 25.5 26.3 6.2 0 11.9-2.6 16.8-8.3l11.1 7.2c-6.9 8.8-16.8 12.6-27.9 12.6-22.9 0-39.3-14.9-39.3-36.6 0-22.6 16.4-37.4 39.3-37.4 10.4 0 18.8 3 26 11zm79.8-16.8h11.5l32.1 70.6h-15.3l-6.9-16h-32.5l-6.8 16h-14.9zm16.8 43.9l-11.5-28.6-11.8 28.6zm69.9-43.9h13.3v59.2h31.7v11.4h-45zm126 15.3c-2.7-3.8-8-5.7-13-5.7-6.1 0-12.2 2.6-12.2 9.1 0 14.1 35.5 6.1 35.5 31.3 0 15.3-12.6 22.5-27.1 22.5-9.2 0-18.3-2.6-24.5-9.5l10-9.2c3.4 4.6 8.8 7.3 14.9 7.3 6.1 0 12.9-3.1 12.9-9.6 0-15.2-35.5-6.4-35.5-31.6 0-14.5 13.8-21.4 27.5-21.4 7.7 0 15.7 1.9 21.4 7.3z"/>
		</g>
		<path id="Layer" class="s0" d="m0 109.5v60.7h87.1v265.2h70.2v-265.2h83.7v-60.7zm954.6 0v201.5l-212.3-270.6 0.4 395h70.2v-196.9l212.4 270.9v-399.9zm162.6 0l0.4 325.9h70.7v-325.9zm313.1 155.7l105.8-155.7h-80.6l-2.3 3.5c-11.1 16.4-22.9 33.9-35.5 52.2-10.7 15.7-20.6 30.6-30.6 44.7l-74-100.4h-81.4l8.8 12.2c7.6 10.7 16 22.2 24.8 34.4 8.8 12.2 18.3 25.2 27.9 38.1 10.3 13.8 19.5 26.4 28.3 38.6 8 10.7 15.6 21.3 22.5 31.3l-118 171.7h80.6l80.2-116.4 88.5 116.4h82.5z"/>
		<path id="Layer" class="s0" d="m505.2 221.7v-198.8c0-12.6-10.3-22.9-22.9-22.9-12.6 0-22.9 10.3-22.9 22.9v198.8c-21 8.8-35.5 29.8-35.5 53.8 0 32.4 26.3 58.4 58.4 58.4 32.5 0 58.4-26.3 58.4-58.4 0-24-14.9-44.6-35.5-53.8zm138.2-13.7c-8.7-19.9-21.3-38.2-36.6-53.8q-23.5-23.5-55-36.7c-9.9-4.2-20.2-7.2-31.3-9.1v64.1c1.1 0.4 1.9 0.7 3 1.1q19.5 8.6 33.3 22.9c9.1 9.6 16.4 21 21.7 34 5 13 7.7 27.5 7.7 42.3 0 14.9-2.7 29-7.7 42-4.9 13-12.6 24.4-21.7 34-9.2 9.5-20.7 17.1-33.3 22.9-12.6 5.7-26.7 8.4-42 8.4-14.9 0-29-3.1-42-8.4q-19.5-8.6-33.2-22.9c-9.2-9.6-16.4-21-21.8-34-4.9-13-7.6-27.1-7.6-42 0-14.8 2.7-29 7.6-42.3 5-13 12.3-24.4 21.8-34 9.2-9.5 20.6-17.2 33.2-22.9 1.6-0.7 3.1-1.1 4.2-1.9v-63.7c-11.4 2.3-22.5 5.3-33.2 9.5q-32.1 13.2-55 36.7l-12.6 12.9h1.2c-10.4 12.6-19.1 26.4-25.2 41.3-8.8 20.2-13 41.9-13 64.8 0.4 22.5 4.9 44.3 13.3 64.1q9.2 22.4 25.2 41.2h-1.1l12.6 13q22.9 23.5 55 36.6c21 8.8 45 13 70.6 13 25.6 0 49.7-4.2 70.7-13 21.4-8.7 39.7-20.9 55.3-36.6 15.3-15.6 27.9-33.6 36.7-53.8 8.8-20.2 13.4-42 13.4-64.5-0.4-23.3-5-45-14.2-65.2z"/>
	</g>
</svg>