<svg version="1.2" xmlns="http://www.w3.org/2000/svg" viewBox="0 0 1533 1168" width="1533" height="1168">
	<title>Piraeus_Bank_logo-svg</title>
	<style>
		.s0 { fill: #f9b413 } 
		.s1 { fill: #003b95 } 
	</style>
	<g id="layer1">
		<path id="rect3102" class="s0" d="m439.9 525.9h653.2v641.5h-653.2z"/>
		<path id="path654" fill-rule="evenodd" class="s1" d="m439.9 525.9h653.2v437.5l-292.2-240.7-33.6 40.7 325.8 268.2v135.8h-653.2v-411.5l297 243.8 33.6-40.5-330.6-271.3zm168.4 237.5l287.8 236.3 33.5-40.5-287.9-236.5z"/>
		<path id="path658" fill-rule="evenodd" class="s1" d="m117.8 38q3.4 10.1 3.4 20.8c0 7.2-1.2 14.2-3.4 20.9-2.3 6.8-5.9 12.7-10.8 17.9-4.9 5.2-11 9.4-18.5 12.5-7.5 3-16.4 4.6-26.8 4.6h-36.1v52.4c0 2.3-0.3 3.9-1 5-0.6 1-2.1 1.6-4.4 1.6h-14.6c-2.2 0-3.7-0.6-4.4-1.6-0.6-1.1-1-2.7-1-5v-157.5q0-3.4 1-5c0.7-1 2.2-1.6 4.4-1.6h56.1c10.4 0 19.4 1.6 26.9 4.6 7.6 3.2 13.8 7.3 18.6 12.5 4.7 5.2 8.3 11.2 10.6 17.9zm-23 20.8c0-9.9-3-17.9-8.9-24-5.9-6.1-14-9.1-24.2-9.1h-36.1v66.3h36.1c10.2 0 18.3-3 24.2-9.1 5.9-6.2 8.9-14.1 8.9-24.1z"/>
		<path id="path662" class="s1" d="m164.3 4.6c0.7 1.1 1 2.7 1 5v157.5c0 2.3-0.3 3.9-1 5q-1 1.6-4.4 1.6h-15.1q-3.4 0-4.4-1.6c-0.6-1.1-0.9-2.7-0.9-5v-157.5q0-3.4 0.9-5c0.7-1.1 2.1-1.6 4.4-1.6h15.1q3.4 0 4.4 1.6z"/>
		<path id="path666" fill-rule="evenodd" class="s1" d="m323.7 167.8q1.8 2.4 1.4 4.1c-0.3 1.1-1.2 1.8-2.8 1.8h-19.5q-2.9 0-4.6-1.2c-1.2-0.7-2.3-1.9-3.5-3.5l-43.6-59.9h-27.3v58q0 3.4-1 5c-0.6 1-2.1 1.6-4.4 1.6h-14.6c-2.3 0-3.7-0.6-4.4-1.6q-1-1.6-1-5v-157.5c0-2.3 0.4-3.9 1-5 0.7-1 2.1-1.6 4.4-1.6h56.1q15.6 0 26.9 4.4c7.6 2.9 13.7 6.9 18.5 11.8q7.2 7.5 10.6 17.1c2.3 6.4 3.5 13.1 3.5 20.1 0 5.9-0.9 11.4-2.5 16.8-1.6 5.4-4 10.3-7.3 14.8-3.2 4.4-7.5 8.4-12.5 11.7-5.2 3.3-11.2 5.8-18.2 7.4zm-63.9-80.7c10.2 0 18.4-2.7 24.3-8.3 5.9-5.5 8.9-12.9 8.9-22.4 0-9.4-3-16.9-8.9-22.4-5.9-5.5-14.1-8.3-24.3-8.3h-36.1v61.4z"/>
		<path id="path670" fill-rule="evenodd" class="s1" d="m451.2 130h-77l-15.6 37.8c-0.8 2.1-1.7 3.6-2.5 4.5-0.9 0.9-2.1 1.4-3.6 1.4h-16.1c-1.8 0-3-0.6-3.6-1.7-0.7-1.2-0.7-2.6 0-4.2l65.8-158.9c0.8-2.1 1.6-3.7 2.6-4.5 0.8-0.9 2-1.4 3.5-1.4h16.3c1.4 0 2.6 0.5 3.5 1.4 0.9 0.8 1.8 2.4 2.6 4.5l65.8 158.9c0.7 1.6 0.7 3 0 4.2-0.7 1.1-1.9 1.7-3.6 1.7h-16.6c-1.5 0-2.7-0.5-3.6-1.4-0.8-0.9-1.7-2.4-2.5-4.5zm-9.5-23.2l-29-71.6-29.3 71.6z"/>
		<path id="path674" class="s1" d="m509.2 172.1c-0.6-1.1-0.9-2.7-0.9-5v-157.5c0-2.3 0.3-3.9 0.9-5q1-1.6 4.4-1.6h84.2c2.4 0 3.9 0.5 4.7 1.5 0.7 1 1.1 2.5 1.1 4.6v11q0 3.2-1.1 4.6c-0.8 1-2.3 1.5-4.7 1.5h-64.2v48.8h43.6c2.5 0 4.1 0.4 4.8 1.4 0.7 1 1.1 2.5 1.1 4.6v11q0 2.9-1.1 4.5c-0.7 1.1-2.3 1.6-4.8 1.6h-43.6v52.4h64.2c2.4 0 3.9 0.5 4.7 1.5q1.1 1.4 1.1 4.6v11c0 2.1-0.4 3.6-1.1 4.6-0.8 1-2.3 1.5-4.7 1.5h-84.2q-3.4 0-4.4-1.6z"/>
		<path id="path678" class="s1" d="m640.6 160c-10.8-10.7-16.3-25.7-16.3-44.9v-105.5c0-2.3 0.3-3.9 1-5 0.6-1.1 2.1-1.6 4.4-1.6h15.1q3.4 0 4.4 1.6c0.6 1.1 1 2.7 1 5v105.5q-0.1 18.3 8.6 27.9c5.8 6.3 15 9.4 27.7 9.4q19 0 27.6-9.4 8.7-9.6 8.7-27.9v-105.5q0-3.4 1-5c0.6-1.1 2.1-1.6 4.3-1.6h15.2q3.4 0 4.3 1.6c0.7 1.1 1 2.7 1 5v105.5q0 28.8-16.3 44.9-16.3 16.1-45.8 16.1-29.5 0-45.9-16.1z"/>
		<path id="path682" class="s1" d="m765.7 153.4c-1.5-1.4-2.1-2.5-2.1-3.3 0.1-0.7 0.8-2 2.1-4l5.9-9c1.2-2 2.4-3.1 3.5-3.2 1-0.1 2.3 0.2 3.7 1.2q5.4 3.7 10.3 6.9 4.9 3.1 9.7 5.5 4.9 2.2 10 3.6 5.1 1.3 11.5 1.3c9.3 0 16.5-2 21.6-6.2q7.7-6.2 7.7-17.1c0-6.4-2-11.6-5.8-15.8-3.8-4.2-8.5-7.9-14.2-11.2-5.7-3.3-12-6.6-18.7-9.6q-10.1-4.7-18.6-11c-5.7-4.2-10.5-9.3-14.3-15.5-3.8-6-5.8-13.7-5.8-23 0-8 1.5-14.6 4.4-20 2.8-5.4 6.5-9.7 11.2-13.1 4.6-3.3 9.8-5.7 15.7-7.1q8.7-2.2 17.5-2.2 14.6 0 26.2 4.8 11.6 4.9 19.7 12.5c1.4 1.3 2.1 2.3 2.1 3q0 1.1-2.1 4.3l-5.9 9q-1.7 2.7-3.2 3.1c-0.9 0.2-2.3-0.2-4.1-1.1q-9.3-5.4-16.6-8.7c-4.9-2.2-10.3-3.3-16.3-3.3-6.7 0-12 1.5-15.9 4.4q-5.8 4.4-5.8 12.9c0 5.7 1.9 10.5 5.7 14.3 3.8 3.8 8.6 7.3 14.3 10.6q8.5 4.9 18.6 9.8 10.1 4.9 18.7 11.5c5.7 4.5 10.4 10 14.3 16.3 3.8 6.5 5.7 14.4 5.7 23.8 0 8.7-1.6 16-4.8 22.1q-4.7 9.1-12.5 15c-5.2 3.9-11.1 6.7-17.7 8.5-6.6 1.8-13.2 2.7-19.9 2.7-5.8 0-11.5-0.6-16.9-1.8q-8.2-1.9-15.3-4.9c-4.7-2-9.1-4.5-13.1-7.2-4.1-2.7-7.6-5.7-10.5-8.8z"/>
		<path id="path686" fill-rule="evenodd" class="s1" d="m950.2 172.1c-0.6-1.1-1-2.7-1-5v-157.5c0-2.3 0.4-3.9 1-5q1-1.6 4.4-1.6h50q15.4 0 26.1 3.7c7.2 2.4 13 5.6 17.7 9.6 4.6 4 8 8.6 10.1 13.9q3.1 7.9 3.1 16.7c0 8.4-2 15.5-6.2 21.2-4.1 5.7-9.3 10.5-15.5 14.4 21.4 9.1 32 24.1 32 44.8 0 6.4-1.1 12.4-3.2 18.1q-3.2 8.5-9.9 14.7-6.7 6.2-17.4 9.9c-7.1 2.4-15.8 3.7-26.1 3.7h-60.7q-3.4 0-4.4-1.6zm24.4-98.2h28.5c10.3 0 18.2-1.9 23.9-5.9 5.7-4 8.6-10.3 8.6-18.9 0-8.3-2.6-14.3-7.8-18.1-5.2-3.7-13-5.6-23.2-5.6h-30zm0 77.3h38.3c10.1 0 18.1-2.1 24-6.4 5.9-4.4 8.9-11.1 8.9-20.1 0-9.3-3-16.3-8.9-21.1-5.9-4.8-13.9-7.2-24-7.2h-38.3z"/>
		<path id="path690" fill-rule="evenodd" class="s1" d="m1236.4 167.8c0.7 1.7 0.7 3 0 4.2q-0.9 1.7-3.6 1.7h-16.6c-1.4 0-2.7-0.5-3.5-1.4q-1.4-1.3-2.6-4.5l-15.3-37.8h-77.1l-15.6 37.8q-1.2 3.2-2.6 4.5c-0.9 0.9-2.1 1.4-3.5 1.4h-16.1q-2.7 0-3.6-1.7c-0.7-1.2-0.7-2.5 0-4.2l65.8-158.9c0.8-2.1 1.6-3.7 2.5-4.5 0.9-1 2.1-1.4 3.6-1.4h16.3q2.2 0 3.6 1.4c0.8 0.8 1.7 2.4 2.5 4.5zm-51.2-61l-29-71.6-29.3 71.6z"/>
		<path id="path694" class="s1" d="m1372.4 4.6q1 1.6 1 5v157.5c0 2.3-0.3 3.9-1 5-0.6 1.1-2 1.6-4.4 1.6h-14.6c-1.7 0-3.2-0.6-4.2-1.6-1.1-1.1-2.1-2.5-3.1-4.3l-69.7-118.2v117.5c0 2.3-0.3 3.9-1 5-0.6 1.1-2.1 1.6-4.4 1.6h-13.9q-3.4 0-4.4-1.6c-0.6-1.1-0.9-2.7-0.9-5v-157.5q0-3.4 0.9-5c0.7-1.1 2.1-1.6 4.4-1.6h14.9q2.5 0 4.2 1.6c1.1 1.1 2.1 2.5 3.1 4.3l69.7 118.2v-117.5c0-2.3 0.4-3.9 1-5 0.7-1.1 2.1-1.6 4.4-1.6h13.7c2.2 0 3.7 0.6 4.3 1.6z"/>
		<path id="path698" class="s1" d="m1532.7 172c-0.2 1.1-1.1 1.7-2.8 1.7h-20c-1.9 0-3.5-0.4-4.6-1.1-1.1-0.8-2.3-1.9-3.4-3.6l-55.3-76.3-14.2 16.8v57.6q0 3.4-1 5c-0.6 1-2.1 1.6-4.4 1.6h-15c-2.3 0-3.8-0.6-4.5-1.6q-0.9-1.6-0.9-5v-157.5c0-2.3 0.3-3.9 0.9-5 0.7-1 2.2-1.6 4.5-1.6h15c2.3 0 3.8 0.6 4.4 1.6 0.7 1.1 1 2.7 1 5v66.6l57.1-68.6c1.3-1.4 2.4-2.5 3.4-3.4 0.9-0.8 2.3-1.2 3.8-1.2h20.8q2.4 0 2.8 1.8 0.4 1.9-1.6 4.1l-56.1 65.3 68.8 93.6c1.1 1.7 1.6 3 1.3 4.2z"/>
	</g>
</svg>