<svg version="1.2" baseProfile="tiny-ps" xmlns="http://www.w3.org/2000/svg" viewBox="0 0 1097 1648" width="1097" height="1648">
	<title>Texas_Pacific_Group_logo-svg</title>
	<style>
		tspan { white-space:pre }
		.s0 { fill: #9fa1a4 } 
	</style>
	<path id="path2428" class="s0" d="m0.39 19.88c0-10.74 8.6-19.33 19.34-19.33c0 0 0 0 1042.31 0c8.6 0 10.75 0 4.3 19.33c-2.15 8.59-8.6 17.18-17.19 17.18c0 0 0 0-1029.42 0c-10.75 0-19.34-8.59-19.34-17.18zm0 94.49c0-12.89 8.6-21.48 19.34-21.48c0 0 0 0 1001.48 0c27.94 0 19.34 8.59 17.19 21.48c-2.15 10.74-6.45 19.33-17.19 19.33c0 0 0 0-1001.48 0c-10.75 0-19.34-8.59-19.34-19.33zm0 92.35c0-10.74 8.6-19.33 19.34-19.33c0 0 0 0 969.24 0c17.19 0 23.64 0 17.19 19.33c-2.15 17.18-8.6 21.48-17.19 21.48c0 0 0 0-969.24 0c-10.75 0-19.34-8.59-19.34-21.48zm0 96.64c0-10.74 8.6-19.33 19.34-19.33c0 0 0 0 939.16 0c15.04 0 25.79-4.3 17.19 19.33c-4.3 15.03-4.3 17.18-25.79 17.18c0 0 0 0-930.56 0c-10.75 0-19.34-8.59-19.34-17.18zm0 94.49c0-12.89 8.6-21.48 19.34-21.48c0 0 0 0 911.22 0c10.75 0 21.49-2.15 17.19 21.48c-4.3 8.59-8.6 19.33-17.19 19.33c0 0 0 0-911.22 0c-10.75 0-19.34-8.59-19.34-19.33zm0 94.49c0-12.89 8.6-21.48 19.34-21.48c0 0 0 0 878.98 0c25.79 0 19.34 10.74 17.19 21.48c-4.3 12.89-6.45 19.33-25.79 19.33c0 0 0 0-870.39 0c-10.75 0-19.34-8.59-19.34-19.33zm0 96.64c0-12.89 8.6-21.48 19.34-21.48c0 0 0 0 848.89 0c30.09 0 17.19 8.59 15.04 21.48c-2.15 12.89-12.89 17.18-23.64 17.18c0 0 0 0-840.3 0c-17.19 2.15-19.34-4.3-19.34-17.18zm0 92.35c0-10.74 8.6-19.33 19.34-19.33c0 0 0 0 245 0c23.64 0 23.64-4.3 55.88 19.33c6.45 6.44 27.94 21.48-6.45 21.48c0 0 0 0-294.43 0c-10.75 0-19.34-8.59-19.34-21.48zm0 94.5c0-12.89 8.6-21.48 19.34-21.48c0 0 0 0 384.69 0c8.6 0 21.49 0 45.13 21.48c8.6 8.59 27.94 19.33-8.6 19.33c0 0 0 0-421.22 0c-10.75 0-19.34-8.59-19.34-19.33zm0 92.35c0-8.59 8.6-17.18 19.34-17.18c0 0 0 0 498.59 0c34.39-2.15 34.39 0 58.03 17.18c8.6 8.59 27.94 21.48 6.45 21.48c0 0 0 0-563.06 0c-10.75 0-19.34-8.59-19.34-21.48zm0 96.64c0-10.74 8.6-19.33 19.34-19.33c0 0 0 0 638.28 0c30.09 0 27.94 6.44 49.43 19.33c15.04 8.59 15.04 21.48-2.15 21.48c0 0 0 0-685.56 0c-10.75 0-19.34-8.59-19.34-21.48zm0 94.49c0-12.89 8.6-21.48 19.34-21.48c0 0 0 0 700.61 0c15.04 0 17.19 0 10.75 21.48c-4.3 17.18-8.6 19.33-19.34 19.33c0 0 0 0-692.01 0c-10.75 0-19.34-8.59-19.34-19.33zm0 94.49c0-10.74 8.6-19.33 19.34-19.33c0 0 0 0 674.82 0c12.89 0 10.75 8.59 8.6 19.33c-6.45 12.89-8.6 19.33-21.49 19.33c0 0 0 0-661.92 0c-10.75 0-19.34-8.59-19.34-19.33zm0 96.64c0-12.89 8.6-21.48 19.34-21.48c0 0 0 0 642.58 0c17.19 0 10.75 8.59 8.6 21.48c-6.45 17.18-12.89 19.33-21.49 19.33c0 0 0 0-629.69 0c-10.75 0-19.34-8.59-19.34-19.33zm1076.7-21.48c10.75 0 19.34 8.59 19.34 21.48c0 10.74-8.6 19.33-19.34 19.33c0 0 0 0-10.75 0c-45.13-2.15-27.94-17.18-21.49-23.62c8.6-8.59 21.49-17.18 25.79-17.18m-1070.25 113.82c0-10.74 8.6-19.33 19.34-19.33c0 0 0 0 610.34 0c15.04 0 15.04 4.3 8.6 19.33c-2.15 15.03-8.6 21.48-17.19 21.48c0 0 0 0-601.75 0c-10.75 0-19.34-8.59-19.34-21.48zm1096.04 0c0 12.89-8.6 21.48-19.34 21.48c0 0 0 0-133.24 0c-27.94 0-8.6-17.18-4.3-21.48c17.19-15.03 25.79-23.62 45.13-19.33c0 0 0 0 92.41 0c10.75 0 19.34 8.59 19.34 19.33zm-1096.04 94.5c0-8.59 8.6-17.18 19.34-17.18c0 0 0 0 580.26 0c15.04-4.3 12.89 8.59 8.6 17.18c-2.15 10.74-8.6 19.33-19.34 19.33c0 0 0 0-569.51 0c-10.75 0-19.34-8.59-19.34-19.33zm1096.04 0c0 10.74-8.6 19.33-19.34 19.33c0 0 0 0-266.49 0c-10.75 0-8.6-10.74-2.15-19.33c21.49-21.48 34.39-17.18 51.58-17.18c0 0 0 0 217.06 0c10.75 0 19.34 8.59 19.34 17.18zm-539.42 115.97c0 0 0 0-537.28 0c-10.75 0-19.34-8.59-19.34-19.33c0-12.89 8.6-21.48 19.34-21.48c0 0 0 0 552.32 0c12.89 0 8.6 8.59 4.3 21.48c0 8.59-4.3 19.33-19.34 19.33zm539.42-19.33c0 10.74-8.6 19.33-19.34 19.33c0 0 0 0-382.54 0c-32.24 4.3-21.49-17.18-15.04-19.33c10.75-12.89 23.64-21.48 34.39-21.48c0 0 0 0 363.2 0c10.75 0 19.34 8.59 19.34 21.48zm-1076.7 113.82c-10.75 0-19.34-8.59-19.34-21.48c0-10.74 8.6-19.33 19.34-19.33c0 0 0 0 515.78 0c23.64 0 6.45 19.33 12.89 23.62c0 0 2.15 0 2.15-4.3c2.15 0 8.6-4.3 8.6-4.3c21.49-15.03 21.49-15.03 47.28-15.03c0 0 0 0 470.65 0c10.75 0 19.34 8.59 19.34 19.33c0 12.89-8.6 21.48-19.34 21.48" />
</svg>