<svg version="1.2" xmlns="http://www.w3.org/2000/svg" viewBox="0 0 1523 120" width="1523" height="120">
	<title>TPX Corporate Social Values Report 2021-1-pdf-svg</title>
	<defs>
		<clipPath clipPathUnits="userSpaceOnUse" id="cp1">
			<path d="m-337.85-389.7h5743.39v7450.66h-5743.39z"/>
		</clipPath>
	</defs>
	<style>
		.s0 { fill: #0c3498 } 
		.s1 { fill: #2177c1 } 
		.s2 { fill: #7ebfe6 } 
		.s3 { fill: #7197cf } 
	</style>
	<g id="Clip-Path: Page 1" clip-path="url(#cp1)">
		<g id="Page 1">
			<path id="Path 24" fill-rule="evenodd" class="s0" d="m53.5 117.4h-15.5v-100.2h-37.5v-15.1h90.5v15.1h-37.5zm159.1 0h-85v-115.7h84.5v15h-68.5v34.8h61.5v15.1h-61.5v35.7h69zm147.3 0h-16v-85.1l-36.6 53.6h-4.6l-36.6-53.6v85.1h-15.5v-115.7h13.6l41.3 60.7 40.8-60.7h13.6zm60.1 0h-16v-115.2h43.2c26.3 0 43.6 14.1 43.6 36.7 0 23-18.3 38.5-46 38.5h-24.8zm0-55.5h25.3c18.3 0 30-8.9 30-22.6 0-20.2-20.1-22.5-29.1-22.5h-26.2zm152.9 57.3c-29.5 0-47.8-19.7-47.8-50.8v-66.7h15.5v66.3c0 23 12.2 36.2 32.8 36.2 20.6 0 31.9-12.7 31.9-35.8v-66.7h15.5v65.8c0 32-18.3 51.7-47.9 51.7zm190.1-1.8h-20.2l-34.3-44.7h-29.1v44.7h-15.9v-115.7h49.3c13.6 0 25.3 4.2 32.8 11.7 6.1 6.1 9.4 14.1 9.4 23.1 0 16.9-10.8 29.1-28.6 33.4zm-83.6-59.3h32.4c16.9 0 27.7-8.5 27.7-21.2 0-12.7-9.8-19.7-27.2-19.7h-32.9z"/>
			<path id="Path 25" fill-rule="evenodd" class="s1" d="m982.6 119.2c-17.9 0-31.9-5.6-46-18.3l-2.8-2.4 10.3-12.2 2.8 2.8c11.7 10.9 21.6 15.1 36.1 15.1 13.6 0 23-7.1 23-17.4 0-8.5-1.8-14.6-27.2-19.8-27.7-5.6-39.4-15.5-39.4-33.8 0-18.9 16.4-32.5 38.5-32.5 15.5 0 27.2 3.8 39.4 13.6l2.8 2.4-9.8 12.7-2.9-2.8c-9.3-7.6-18.3-11.3-30-11.3-12.7 0-22 7-22 16.4 0 8 1.8 15.1 28.1 20.3 17.8 3.7 38.5 10.8 38.5 33.4 0 19.7-16.9 33.8-39.4 33.8zm167-1.8h-84.9v-115.3h84.4v15.1h-68.5v34.8h61.5v15h-61.5v35.3h69zm146.9 0h-17.4l-13.6-30.1h-58.6l-13.6 30.1h-16.9l53.5-116.2h12.6zm-82.6-45.1h45.1l-22.5-49.4zm193.3 45.1h-78.8v-115.2h15.4v100.2h63.4zm65.7 0h-16v-45.2l-49.2-70.1h19.2l38 55.1 38.5-55.1h19.2l-49.7 70.1z"/>
			<path id="Path 26" class="s2" d="m834.8 13.4h27.6v30.1h-27.6z"/>
			<path id="Path 27" class="s3" d="m834.8 71.3h27.6v30.5h-27.6zm-30.5-27.2h30.5v27.7h-30.5z"/>
			<path id="Path 28" class="s2" d="m862.4 43.5h30.5v28.2h-30.5z"/>
			<path id="Path 29" class="s0" d="m834.8 43.5h27.6v28.2h-27.6z"/>
		</g>
	</g>
</svg>