<svg version="1.2" baseProfile="tiny-ps" xmlns="http://www.w3.org/2000/svg" viewBox="0 0 1517 458" width="1517" height="458">
	<title>lt-logo-svg</title>
	<defs>
		<linearGradient id="grd1" gradientUnits="userSpaceOnUse"  x1="572.136" y1="215.03" x2="783.494" y2="3.672">
			<stop offset="0.05" stop-color="#078181"  />
			<stop offset="0.213" stop-color="#07997d"  />
			<stop offset="0.41" stop-color="#08af7a"  />
			<stop offset="0.599" stop-color="#08bc78"  />
			<stop offset="0.77" stop-color="#08c177"  />
		</linearGradient>
	</defs>
	<style>
		tspan { white-space:pre }
		.shp0 { fill: #ffffff } 
		.shp1 { fill: #0f1f2f } 
		.shp2 { fill: url(#grd1) } 
	</style>
	<g id="LendingTree_Logo_8_">
		<g id="LendingTree_8_">
			<g id="Registered_Trademark_16_">
				<path id="Layer" fill-rule="evenodd" class="shp0" d="M1516.98 244.97C1516.98 246.79 1516.62 248.62 1515.52 250.44C1514.79 251.9 1513.33 253.36 1511.51 254.46C1509.68 255.55 1507.86 255.92 1506.03 255.92C1504.21 255.92 1502.38 255.55 1500.56 254.46C1499.1 253.73 1497.64 252.27 1496.55 250.44C1495.45 248.62 1495.09 246.79 1495.09 244.97C1495.09 242.78 1495.45 240.95 1496.55 239.13C1497.28 237.3 1498.74 236.21 1500.56 235.11C1502.38 234.02 1504.21 233.65 1506.03 233.65C1507.86 233.65 1509.68 234.02 1511.51 235.11C1512.97 235.84 1514.43 237.3 1515.52 239.13C1516.62 240.95 1516.98 242.78 1516.98 244.97ZM1514.79 244.97C1514.79 243.51 1514.43 242.05 1513.7 240.59C1512.97 239.13 1511.87 238.03 1510.41 237.3C1508.95 236.57 1507.49 236.21 1506.03 236.21C1504.57 236.21 1503.11 236.57 1501.65 237.3C1500.2 238.03 1499.1 239.13 1498.37 240.59C1497.64 241.68 1497.28 243.51 1497.28 244.97C1497.28 246.43 1497.64 247.89 1498.37 249.35C1499.1 250.81 1500.2 251.9 1501.65 252.63C1503.11 253.36 1504.57 253.73 1506.03 253.73C1507.49 253.73 1508.95 253.36 1510.41 252.63C1511.87 251.9 1512.97 250.81 1513.7 249.35C1514.43 247.89 1514.79 246.43 1514.79 244.97Z" />
				<path id="Layer" fill-rule="evenodd" class="shp0" d="M1509.68 248.25L1511.14 250.81L1508.22 250.81L1507.13 248.98C1506.76 247.52 1506.03 246.79 1505.67 246.43C1505.3 246.06 1504.94 246.06 1504.21 246.06L1503.48 246.06L1503.48 250.81L1501.29 250.81L1501.29 239.13L1507.13 239.13C1507.86 239.13 1508.59 239.13 1508.95 239.49L1510.05 240.59C1510.41 241.32 1510.41 241.68 1510.41 242.41C1510.41 243.14 1510.41 243.87 1509.68 244.6C1509.32 245.33 1508.59 245.7 1507.49 245.7C1507.86 245.7 1507.86 246.06 1508.22 246.06L1508.95 246.79L1509.68 248.25ZM1507.49 242.41C1507.86 242.41 1507.86 242.05 1507.86 241.68C1507.86 241.32 1507.86 241.32 1507.49 240.95C1507.49 240.95 1507.13 240.59 1506.76 240.59L1503.11 240.59L1503.11 243.87L1506.76 243.87C1507.13 243.51 1507.49 243.51 1507.49 242.41Z" />
			</g>
			<g id="Registered_Trademark_15_">
				<path id="Layer" fill-rule="evenodd" class="shp0" d="M1516.98 244.97C1516.98 246.79 1516.62 248.62 1515.52 250.44C1514.79 251.9 1513.33 253.36 1511.51 254.46C1509.68 255.55 1507.86 255.92 1506.03 255.92C1504.21 255.92 1502.38 255.55 1500.56 254.46C1499.1 253.73 1497.64 252.27 1496.55 250.44C1495.45 248.62 1495.09 246.79 1495.09 244.97C1495.09 242.78 1495.45 240.95 1496.55 239.13C1497.28 237.3 1498.74 236.21 1500.56 235.11C1502.38 234.02 1504.21 233.65 1506.03 233.65C1507.86 233.65 1509.68 234.02 1511.51 235.11C1512.97 235.84 1514.43 237.3 1515.52 239.13C1516.62 240.95 1516.98 242.78 1516.98 244.97ZM1514.79 244.97C1514.79 243.51 1514.43 242.05 1513.7 240.59C1512.97 239.13 1511.87 238.03 1510.41 237.3C1508.95 236.57 1507.49 236.21 1506.03 236.21C1504.57 236.21 1503.11 236.57 1501.65 237.3C1500.2 238.03 1499.1 239.13 1498.37 240.59C1497.64 241.68 1497.28 243.51 1497.28 244.97C1497.28 246.43 1497.64 247.89 1498.37 249.35C1499.1 250.81 1500.2 251.9 1501.65 252.63C1503.11 253.36 1504.57 253.73 1506.03 253.73C1507.49 253.73 1508.95 253.36 1510.41 252.63C1511.87 251.9 1512.97 250.81 1513.7 249.35C1514.43 247.89 1514.79 246.43 1514.79 244.97Z" />
				<path id="Layer" class="shp0" d="M1511.14 241.32L1509.32 239.49L1505.67 243.14L1502.38 239.49L1500.56 241.32L1504.21 244.6L1500.56 248.25L1502.38 250.08L1505.67 246.43L1509.32 250.08L1511.14 248.25L1507.49 244.6L1511.14 241.32Z" />
			</g>
			<path id="Layer" fill-rule="evenodd" class="shp1" d="M1498.37 316.52C1498.37 329.3 1490.71 331.12 1485.96 331.85L1383.79 331.85C1384.16 344.26 1388.17 353.76 1395.83 360.69C1403.86 367.99 1415.54 371.64 1430.5 371.64C1445.1 371.64 1458.23 367.63 1469.54 359.96C1471.37 358.87 1472.83 358.14 1474.29 358.14C1475.75 358.14 1478.67 358.5 1480.13 362.88L1487.06 377.12C1487.79 378.94 1488.15 380.77 1488.15 382.23C1488.15 384.79 1487.06 386.98 1484.5 388.8C1476.48 394.64 1467.72 398.66 1458.23 401.58C1449.11 404.13 1438.16 405.59 1426.12 405.59C1410.79 405.59 1396.93 402.67 1384.52 396.47C1372.12 390.26 1361.9 380.77 1354.6 367.99C1346.94 355.22 1343.29 339.15 1343.29 320.17C1343.29 290.6 1350.22 267.97 1363.72 252.63C1377.59 237.3 1396.93 229.27 1422.11 229.27C1446.92 229.27 1466.26 236.94 1479.03 251.9C1491.8 266.87 1498.37 288.41 1498.37 316.52ZM1458.96 300.46C1458.6 288.77 1455.31 279.28 1449.84 272.71C1444 265.78 1434.51 262.13 1422.47 262.13C1410.06 262.13 1400.58 265.78 1394.01 273.08C1387.81 280.01 1384.52 289.14 1384.16 300.46L1458.96 300.46ZM1253.52 228.9C1278.7 228.9 1297.68 236.57 1310.08 252.27C1322.85 267.24 1329.42 288.77 1329.42 316.88C1329.42 329.66 1321.76 331.49 1317.38 331.49L1215.21 331.49C1215.57 343.9 1219.59 353.39 1227.25 360.33C1235.28 367.63 1246.95 371.28 1261.92 371.28C1276.51 371.28 1289.65 367.26 1300.96 359.6C1302.78 358.5 1304.24 357.77 1305.7 357.77C1307.16 357.77 1310.08 358.14 1311.54 362.52L1318.47 376.75C1319.2 378.58 1319.57 380.4 1319.57 381.87C1319.57 384.42 1318.47 386.61 1315.92 388.44C1307.89 394.28 1299.14 398.29 1289.65 401.21C1280.53 403.77 1269.58 405.23 1257.54 405.23C1242.21 405.23 1228.34 402.31 1215.94 396.1C1203.53 389.9 1193.31 380.4 1186.02 367.63C1178.35 354.85 1174.7 338.79 1174.7 319.8C1174.7 290.23 1181.64 267.6 1195.14 252.27C1209 236.94 1228.34 228.9 1253.52 228.9ZM1280.89 272.71C1275.05 265.78 1265.56 262.13 1253.52 262.13C1241.12 262.13 1231.63 265.78 1225.06 273.08C1218.86 280.01 1215.57 289.14 1215.21 300.46L1290.38 300.46C1290.01 288.77 1287.09 279.65 1280.89 272.71ZM1180.91 245.7L1170.33 266.14C1169.23 270.52 1166.31 271.25 1164.49 271.25L1163.76 271.25L1160.84 270.52C1157.19 268.7 1153.17 267.6 1148.43 267.24C1146.97 266.87 1145.51 266.87 1144.05 266.87C1133.47 266.87 1115.59 270.52 1111.94 272.35L1111.94 385.52C1111.94 390.26 1111.21 393.91 1109.02 396.47C1106.83 399.02 1103.18 400.48 1098.44 400.48L1083.48 400.48C1079.1 400.48 1075.45 399.39 1073.26 396.83L1072.9 396.47C1070.71 393.91 1069.61 390.26 1069.61 385.52L1069.61 247.16C1069.61 243.14 1069.98 240.22 1071.44 238.4C1072.9 236.21 1075.82 235.11 1079.83 235.11L1098.8 235.11C1101.36 235.11 1103.55 236.57 1105.01 238.76C1130.92 231.1 1144.05 230.73 1147.7 230.73C1152.45 230.73 1171.42 231.46 1177.62 236.21C1179.45 237.67 1180.54 239.13 1180.91 240.59C1181.64 242.05 1181.27 243.87 1180.91 245.7ZM1050.64 238.03C1052.46 240.22 1053.19 243.87 1053.19 248.62L1053.19 257.74C1053.19 262.86 1052.46 266.14 1050.64 268.33C1048.81 270.52 1045.53 271.62 1040.79 271.62L1011.59 271.62L1011.59 342.44C1011.59 351.93 1012.69 359.23 1015.61 362.88C1017.07 364.71 1018.89 366.17 1020.35 366.9C1022.91 368.36 1024.73 370.91 1024.73 374.2L1024.73 396.83C1024.73 401.94 1020.35 405.96 1015.24 405.23C999.55 403.4 968.9 392.82 968.9 343.53L968.9 192.03C968.9 187.65 969.99 184.37 971.82 181.81C973.64 179.26 976.93 177.8 981.31 177.8L999.19 177.8C1003.57 177.8 1006.48 179.26 1008.67 181.81C1010.86 184 1011.59 187.65 1011.59 192.03L1011.59 234.38L1040.79 234.38C1045.53 234.38 1048.81 235.48 1050.64 238.03ZM917.45 235.48C929.49 239.49 948.47 249.35 948.1 249.35L948.1 367.63C948.1 395.01 942.26 417.28 930.59 432.97C918.54 449.04 899.93 457.07 875.12 457.07C860.16 457.07 844.1 453.42 836.44 451.59C833.89 450.86 832.06 448.31 832.06 445.75L832.79 421.29C832.79 417.64 836.81 414.72 840.45 416.18C849.58 419.47 860.52 421.29 871.84 421.29C883.88 421.29 892.27 418.37 897.74 411.8C902.49 406.69 905.04 397.56 905.77 385.52C901.76 389.9 896.65 393.18 891.54 395.37C884.24 398.66 875.12 400.48 864.54 400.48C842.28 400.48 824.76 393.18 812.36 378.94C799.95 364.71 793.75 344.63 793.75 319.44C793.75 290.6 801.41 268.33 816.01 252.63C830.6 237.3 852.13 229.27 879.86 229.27C892.64 229.27 905.41 231.46 917.45 235.48ZM906.5 271.25C903.22 269.79 899.57 268.33 894.83 267.97C889.72 266.87 883.88 266.51 878.04 266.51C849.58 266.51 835.71 282.93 835.71 317.25C835.71 332.95 839 344.63 845.2 352.3C851.4 359.6 860.89 363.25 873.3 363.25C883.15 363.25 891.18 359.96 897.38 354.12C903.58 348.28 906.5 339.52 906.5 328.93L906.5 271.25ZM722.96 229.27C739.38 229.27 752.51 234.38 763.1 244.97C772.95 255.19 778.06 270.52 778.06 290.6L778.06 385.88C778.06 390.63 777.33 394.28 775.14 396.83C772.95 399.39 769.3 400.85 764.56 400.85L749.23 400.85C744.49 400.85 740.84 399.39 738.65 396.83C736.46 394.28 735.36 390.63 735.36 385.88L735.36 293.16C735.36 283.3 733.54 276 729.89 271.98C726.24 267.97 720.04 266.14 711.28 266.14C700.7 266.14 680.26 269.79 676.25 271.62L676.25 385.52C676.25 390.26 675.52 393.91 673.33 396.47C671.14 399.02 667.49 400.48 662.75 400.48L647.79 400.48C643.04 400.48 639.39 399.02 637.21 396.47C635.02 393.91 633.92 390.26 633.92 385.52L633.92 246.06C633.92 242.05 634.29 239.13 635.75 237.3C637.21 235.11 640.12 234.02 644.14 234.02L663.11 234.02C665.67 234.02 668.22 235.48 669.32 237.67C671.87 237.3 674.43 236.57 676.98 235.84C692.31 231.83 702.52 229.27 722.96 229.27ZM598.89 234.38C603.63 234.38 607.28 235.84 609.11 238.4C611.3 240.95 612.39 244.6 612.39 249.71L612.39 385.88C612.39 390.63 611.66 394.28 609.47 396.83C607.28 399.39 603.63 400.85 598.89 400.85L583.93 400.85C579.19 400.85 575.54 399.39 573.35 396.83C571.16 394.28 570.06 390.63 570.06 385.88L570.06 249.71C570.06 244.6 571.16 240.95 573.35 238.4C575.54 235.84 579.19 234.38 583.93 234.38L598.89 234.38ZM545.62 164.65C546.71 163.92 547.8 165.02 549.26 165.75C549.63 166.48 549.99 167.21 549.99 168.3L549.99 385.15C549.99 385.15 531.02 394.64 518.61 399.02C506.21 403.04 493.07 405.23 479.57 405.23C423.74 405.23 395.28 375.66 395.28 316.88C395.28 299.73 397.83 284.39 403.67 271.25C409.14 258.11 417.54 247.52 428.48 240.22C439.06 232.56 452.2 228.9 466.8 228.9C483.95 228.9 497.81 232.92 507.3 240.59L507.3 196.78C507.3 191.67 533.21 170.13 545.62 164.65ZM507.67 295.71C507.67 285.85 504.75 278.19 499.27 273.44C493.43 268.33 485.41 265.78 475.92 265.78C463.15 265.78 453.3 270.52 447.09 279.28C440.52 288.41 437.24 301.55 437.24 317.98C437.24 336.23 440.89 349.37 447.82 357.41C454.75 365.07 465.7 369.09 480.3 369.09C491.61 369.09 500.73 366.9 507.67 362.52L507.67 295.71ZM324.49 229.27C340.54 229.27 354.04 234.38 364.26 244.97C374.11 255.19 379.22 270.52 379.22 290.6L379.22 385.88C379.22 390.63 378.49 394.28 376.3 396.83C374.11 399.39 370.46 400.85 365.72 400.85L350.39 400.85C345.65 400.85 342 399.39 339.81 396.83C337.62 394.28 336.53 390.63 336.53 385.88L336.53 293.16C336.53 282.93 334.7 276 331.05 271.98C327.4 267.97 321.2 266.14 312.44 266.14C301.86 266.14 281.43 269.79 277.41 271.62L277.41 385.88C277.41 390.63 276.68 394.28 274.49 396.83C272.3 399.39 268.66 400.85 263.91 400.85L248.95 400.85C244.21 400.85 240.56 399.39 238.37 396.83C236.18 394.28 235.08 390.63 235.08 385.88L235.08 246.43C235.08 242.41 235.45 239.49 236.91 237.67C238.37 235.48 241.29 234.38 245.3 234.38L264.28 234.38C267.93 234.38 269.75 236.57 270.48 238.03C273.03 237.3 275.22 236.94 277.41 236.21L278.51 235.84C293.83 231.83 304.05 229.27 324.49 229.27ZM142.4 228.9C167.21 228.9 186.55 236.57 198.96 252.27C211.73 267.24 218.3 288.77 218.3 316.88C218.3 329.66 210.64 331.49 206.26 331.49L104.09 331.49C104.45 343.9 108.46 353.39 116.13 360.33C124.15 367.63 135.83 371.28 150.79 371.28C165.39 371.28 178.53 367.26 189.84 359.6C191.66 358.5 193.12 357.77 194.58 357.77C196.04 357.77 198.96 358.14 200.42 362.52L207.35 376.75C208.08 378.58 208.45 380.4 208.45 381.87C208.45 384.42 207.35 386.61 204.8 388.44C196.77 394.28 188.01 398.29 178.53 401.21C169.4 403.77 158.46 405.23 146.41 405.23C131.09 405.23 117.22 402.31 104.82 396.1C92.41 389.9 82.19 380.4 74.89 367.63C67.23 354.85 63.58 338.79 63.58 319.8C63.58 290.23 70.51 267.6 84.02 252.27C97.88 236.94 117.22 228.9 142.4 228.9ZM169.77 272.71C163.93 265.78 154.44 262.13 142.4 262.13C129.99 262.13 120.51 265.78 113.94 273.08C107.73 280.01 104.45 289.14 104.09 300.46L179.25 300.46C178.89 288.77 175.61 279.65 169.77 272.71ZM47.53 362.88C49.35 365.07 50.81 366.17 52.27 366.9C54.82 368.36 56.65 370.91 56.65 374.2L56.65 396.83C56.65 401.94 52.27 405.96 47.16 405.23C31.47 403.4 0.82 392.82 0.82 343.53L0.82 183.27C0.82 178.89 1.91 175.61 3.74 173.05C5.56 170.5 8.85 169.03 13.23 169.03L31.11 169.03C35.48 169.03 38.4 170.5 40.59 173.05C42.78 175.24 43.51 178.89 43.51 183.27L43.51 342.44C43.51 351.93 44.61 359.23 47.53 362.88Z" />
		</g>
		<g id="Leaf_11_">
			<path id="Layer" class="shp2" d="M779.52 0.01C768.57 1.84 697.05 9.5 644.14 22.65C568.97 41.26 570.43 104.05 570.43 128.88L570.43 212.84C570.43 213.94 571.52 214.3 571.89 213.21C624.07 143.85 678.07 98.58 678.07 98.58C678.07 98.58 678.44 98.21 677.71 98.58C672.97 99.67 645.96 108.43 613.12 126.32L613.12 115.74C612.76 73.02 637.94 61.34 667.86 52.95C692.31 46.01 737.92 42.36 737.92 42.36C737.92 42.36 734.27 69.01 729.53 123.4C725.88 163.19 697.05 171.96 656.18 171.96L633.19 171.96C614.95 198.24 612.39 213.94 612.39 213.94L657.27 213.94C742.66 213.94 761.64 176.34 765.65 120.85C770.76 50.03 778.06 9.14 779.88 1.47C780.61 0.74 780.25 0.01 779.52 0.01L779.52 0.01Z" />
		</g>
	</g>
</svg>