<svg version="1.2" xmlns="http://www.w3.org/2000/svg" viewBox="0 0 1512 1512" width="1512" height="1512">
	<title>305123776_589316569560174_2791340531598441170_n-svg</title>
	<style>
		.s0 { fill: #dc3b43 } 
		.s1 { fill: #fffffe } 
	</style>
	<g id="#dc3b43ff">
		<path id="Layer" fill-rule="evenodd" class="s0" d="m0 0h1512v1512h-1512zm556.2 684.7c-18.2 29.3-21.1 66.7-10.8 99.3 11 34.2 40.5 61.4 75.1 70.6 29.7 7.9 62.6 5.6 90.2-8.3 27.6-13.8 48.8-39.8 55.9-69.8 4.6-16.7 3.9-34.1 3.7-51.1-39.8-0.2-79.7 0-119.6-0.1 0.2 16.8 0.1 33.7 0.1 50.6 11.4 0.1 22.9-0.3 34.4 0.2-2.5 6.8-7 13.1-14 15.5-13.8 4.3-30.5 2.1-40.8-8.7-9.5-10.5-12.3-25.4-11.8-39.2 0.2-13.3 3.9-27.5 13.8-36.9 10.4-10.1 27.2-12.1 40-5.6 6.1 3.2 10.5 8.8 14.8 14.1 23.1-8.6 46.2-17.2 69.3-25.7-12.8-21.4-31.9-39.6-55.3-48.7-19.4-8.2-40.9-9.2-61.7-7.6-33.7 3.2-65.6 22.4-83.3 51.4zm747-50.5c-28.4 6.2-54.9 22.6-71.4 46.8-30.1 43.4-24.4 108.8 15.3 144.6 50 47.8 140.9 42.4 182.7-13.6 19.6-25.5 26.1-59.8 19.6-91.1-5-26.7-21-51-43.1-66.7-29.3-21.4-68-27.6-103.1-20zm-1231.2 6.6c0.1 23.4 0 46.8 0 70.2 14.3 0 28.6 0 42.9 0 0.1 48 0 96.1 0.1 144.1 25.7 0 51.4 0 77.1 0 0-48 0-96.1 0-144.1 14.3 0 28.7 0.1 43-0.2 0-23.3 0-46.6 0.1-69.9-54.4-0.4-108.8 0-163.2-0.1zm174.9 0c-0.1 71.5 0 142.9 0 214.3 25.2 0.1 50.3 0 75.6 0 0-23.3-0.4-46.6 0.1-69.8 12.5 23.1 24.9 46.2 36.8 69.6 28.9 1.1 57.9-1.1 86.7 1.2-4-8.8-10.1-16.3-15.2-24.4-13.9-21.1-27.6-42.5-41.8-63.5 12-1.7 23.4-7.8 30.4-17.8 12.5-17.5 13.2-40.8 7.9-61-4.8-18.3-18.9-33.3-36.2-40.3-19-8.2-40-8.5-60.2-8.3-28.1 0-56.1-0.1-84.1 0zm199.6-0.1c0 60.7 0 121.4 0 182.2-0.1 9.7 0.5 19.5-0.6 29.3 2 1.9 4.6 4 7.7 3.1 23.7-0.4 47.5-0.1 71.3-0.2-0.1-71.4-0.1-142.9 0-214.4-26.2 0.1-52.3 0.1-78.4 0zm377.4 0c-25.7 71.4-51 143-76.6 214.5 27.7-0.2 55.4 0 83.1-0.1 2-8.9 4.2-17.8 6.4-26.7 19.3-0.1 38.7 0.2 58-0.1 2.3 8.9 4.7 17.8 6.7 26.8 27.7 0.1 55.3-0.1 83 0.1-24.7-71.6-50-142.9-74.9-214.4-28.5-0.1-57.1 0.1-85.7-0.1zm163.2 0c0.1 71.5-0.2 143 0.2 214.5q37.1-0.1 74.2-0.1c0-19.9 0-39.8 0-59.7-0.1-16.7 0.8-33.4-2.2-49.9 22.8 35.9 43.7 73.1 65.7 109.6 25.4 0.1 50.9 0 76.3 0 0-71.4 0-142.9 0-214.3-24.8 0-49.5 0-74.3 0 0.1 26.9 0 53.8 0.1 80.6 0.2 9.4-0.2 18.9 2.7 27.9-0.7 0.3-1.9 0.7-2.5 0.9-20.6-37-43.1-72.8-64.4-109.5-25.2 0.1-50.5 0.1-75.8 0z"/>
		<path id="Layer" class="s0" d="m322.3 696c8.6 0.3 18-1.3 25.7 3.3 12.7 7.5 12.5 29.2-0.7 36.1-7.8 3.5-16.6 2.2-24.9 2.4 0-13.9 0.1-27.9-0.1-41.8z"/>
		<path id="Layer" class="s0" d="m1320.3 705.3c16.4-5.6 36.9 1.5 44.5 17.5 9 18.1 6.4 43.5-10.7 55.9-14.8 10.7-37.6 8.5-49.7-5.3-17.7-20.4-11.7-59.6 15.9-68.1z"/>
		<path id="Layer" class="s0" d="m849.7 777c6.8-23.8 13.6-47.6 15.8-72.3 2.7 24.7 9.3 48.6 16.2 72.4-10.7 0-21.4 0-32-0.1z"/>
	</g>
	<g id="#fffffeff">
		<path id="Layer" class="s1" d="m556.2 684.7c17.7-29 49.6-48.2 83.3-51.4 20.8-1.6 42.3-0.6 61.7 7.6 23.4 9.1 42.5 27.3 55.3 48.7-23.1 8.5-46.2 17.1-69.3 25.7-4.3-5.3-8.7-10.9-14.8-14.1-12.8-6.5-29.6-4.5-40 5.6-9.9 9.4-13.6 23.6-13.8 36.9-0.5 13.8 2.3 28.7 11.8 39.2 10.3 10.8 27 13 40.8 8.7 7-2.4 11.5-8.7 14-15.5-11.5-0.5-23-0.1-34.4-0.2 0-16.9 0.1-33.8-0.1-50.6 39.9 0.1 79.8-0.1 119.6 0.1 0.2 17 0.9 34.4-3.7 51.1-7.1 30-28.3 56-55.9 69.8-27.6 13.9-60.5 16.2-90.2 8.3-34.6-9.2-64.1-36.4-75.1-70.6-10.3-32.6-7.4-70 10.8-99.3z"/>
		<path id="Layer" fill-rule="evenodd" class="s1" d="m1303.2 634.2c35.1-7.6 73.8-1.4 103.1 20 22.1 15.7 38.1 40 43.1 66.7 6.5 31.3 0 65.6-19.6 91.1-41.8 56-132.7 61.4-182.7 13.6-39.7-35.8-45.4-101.2-15.3-144.6 16.5-24.2 43-40.6 71.4-46.8zm17.1 71.1c-27.6 8.5-33.6 47.7-15.9 68.1 12.1 13.8 34.9 16 49.7 5.3 17.1-12.4 19.7-37.8 10.7-55.9-7.6-16-28.1-23.1-44.5-17.5z"/>
		<path id="Layer" class="s1" d="m72 640.8c54.4 0.1 108.8-0.3 163.2 0.1-0.1 23.3-0.1 46.6-0.1 69.9-14.3 0.3-28.7 0.2-43 0.2 0 48 0 96.1 0 144.1-25.7 0-51.4 0-77.1 0-0.1-48 0-96.1-0.1-144.1-14.3 0-28.6 0-42.9 0 0-23.4 0.1-46.8 0-70.2z"/>
		<path id="Layer" fill-rule="evenodd" class="s1" d="m246.9 640.8c28-0.1 56 0 84.1 0 20.2-0.2 41.2 0.1 60.2 8.3 17.3 7 31.4 22 36.2 40.3 5.3 20.2 4.6 43.5-7.9 61-7 10-18.4 16.1-30.4 17.8 14.2 21 27.9 42.4 41.8 63.5 5.1 8.1 11.2 15.6 15.2 24.4-28.8-2.3-57.8-0.1-86.7-1.2-11.9-23.4-24.3-46.5-36.8-69.6-0.5 23.2-0.1 46.5-0.1 69.8-25.3 0-50.4 0.1-75.6 0 0-71.4-0.1-142.8 0-214.3zm75.4 55.2c0.2 13.9 0.1 27.9 0.1 41.8 8.3-0.2 17.1 1.1 24.9-2.4 13.2-6.9 13.4-28.6 0.7-36.1-7.7-4.6-17.1-3-25.7-3.3z"/>
		<path id="Layer" class="s1" d="m446.5 640.7c26.1 0.1 52.2 0.1 78.4 0-0.1 71.5-0.1 143 0 214.4-23.8 0.1-47.6-0.2-71.3 0.2-3.1 0.9-5.7-1.2-7.7-3.1 1.1-9.8 0.5-19.6 0.6-29.3 0-60.8 0-121.5 0-182.2z"/>
		<path id="Layer" fill-rule="evenodd" class="s1" d="m823.9 640.7c28.6 0.2 57.2 0 85.7 0.1 24.9 71.5 50.2 142.8 74.9 214.4-27.7-0.2-55.3 0-83-0.1-2-9-4.4-17.9-6.7-26.8-19.3 0.3-38.7 0-58 0.1-2.2 8.9-4.4 17.8-6.4 26.7-27.7 0.1-55.4-0.1-83.1 0.1 25.6-71.5 50.9-143.1 76.6-214.5zm25.8 136.3c10.6 0.1 21.3 0.1 32 0.1-6.9-23.8-13.5-47.7-16.2-72.4-2.2 24.7-9 48.5-15.8 72.3z"/>
		<path id="Layer" class="s1" d="m987.1 640.7c25.3 0.1 50.6 0.1 75.8 0 21.3 36.7 43.8 72.5 64.4 109.5 0.6-0.2 1.8-0.6 2.5-0.9-2.9-9-2.5-18.5-2.7-27.9-0.1-26.8 0-53.7-0.1-80.6 24.8 0 49.5 0 74.3 0 0 71.4 0 142.9 0 214.3-25.4 0-50.9 0.1-76.3 0-22-36.5-42.9-73.7-65.7-109.6 3 16.5 2.1 33.2 2.2 49.9 0 19.9 0 39.8 0 59.7q-37.1 0-74.2 0.1c-0.4-71.5-0.1-143-0.2-214.5z"/>
	</g>
</svg>