<svg version="1.2" xmlns="http://www.w3.org/2000/svg" viewBox="0 0 1513 1513" width="1513" height="1513">
	<title>TRIP-svg</title>
	<style>
		.s0 { fill: #f8efeb } 
		.s1 { fill: #000000 } 
	</style>
	<g id="Layer">
		<path id="Layer" class="s0" d="m756.5 1512.9c-418.4 0-756.5-338.1-756.5-756.4 0-418.4 338.1-756.5 756.5-756.5 418.3 0 756.4 338.1 756.4 756.5 0 418.3-338.1 756.4-756.4 756.4z"/>
		<path id="Layer" fill-rule="evenodd" class="s1" d="m1314.6 815.1c0 154.1-125 279-279.1 279-73.2 0-139.8-28.1-189.6-74.3l-89.4 97.3-89.5-97.4c-49.7 46.2-116.4 74.4-189.6 74.4-154.1 0-279-124.9-279-279 0-81.6 35-155.2 91-206.2l-91.3-99.3h203c101.1-69.2 223.2-109.6 355.4-109.6 132.3 0 254.7 40.4 356.1 109.6h202.4l-91.3 99.3c56 51 91 124.5 90.9 206.2zm-648.3 0c0-104.4-84.4-188.8-188.8-188.8-104.5 0-188.9 84.4-188.9 188.8 0 104.4 84.4 188.8 188.9 188.8 104.4 0 188.8-84.4 188.8-188.8zm299.8-281.9c-64.5-27-135.3-42-209.6-42-74.3 0-145.1 15-209.6 42 119.3 45.5 209.7 152.2 209.7 276.4 0-124.2 90.3-230.8 209.5-276.4zm258.3 281.9c0-104.4-84.4-188.8-188.8-188.8-104.5 0-188.9 84.4-188.9 188.8 0 104.4 84.4 188.8 188.9 188.8 104.4 0 188.8-84.4 188.8-188.8zm-188.8 98.9c-54.8 0-99-44.2-99-99 0-54.7 44.2-98.9 99-98.9 54.7 0 98.9 44.2 98.9 98.9 0 54.8-44.2 99-98.9 99zm-558.1 0.1c-54.8 0-99-44.2-99-99 0-54.7 44.2-99 99-99 54.7 0 98.9 44.3 98.9 99 0 54.8-44.2 99-98.9 99z"/>
	</g>
</svg>