<svg version="1.2" xmlns="http://www.w3.org/2000/svg" viewBox="0 0 1558 444" width="1558" height="444">
	<title>TMGlogo-svg</title>
	<style>
		.s0 { fill: #ffffff } 
		.s1 { fill: #006bdb } 
	</style>
	<g id="#020202ff">
		<path id="Layer" class="s0" d="m994.7 65.8c39.7-40.3 95.5-64.3 152.1-65 56.5-1.3 113.4 16.9 158.3 51.4-17.9 30.5-35.7 61.1-53.7 91.5-17.9-12.8-36.8-24.7-58-31-25-7.5-52.5-8.4-77.1 0.8-24.6 8.9-45.5 26.9-58.7 49.3-12.1 20.3-17.9 44.2-16.6 67.8 1.4 30.8 15.1 61 37.9 81.8 20 18.5 46.8 29.6 74.1 29.5 25.7 0.3 51.9-6.4 73.3-21.1 17.6-11.9 30.9-29.5 38.4-49.3-32.7 0-65.4 0.1-98.1 0q-0.1-44.1 0-88.2 103.1 0 206.3 0 0 23.6 0 47.2c-1.7 55.8-25.7 110.7-65.7 149.6-38.8 39.1-92.9 62-147.8 63.9h-15.8c-14.1-0.8-28.2-2.4-41.9-5.6-49.1-11.2-93.9-39.9-124.7-79.6-33.1-42.1-50-96.6-46.4-150.1 2.9-53.3 26.2-105.2 64.1-142.9zm-994.7-56.5c130.5 0 260.9 0 391.4 0q0.1 52.8 0 105.6c-47.1 0-94.3-0.1-141.4 0 0 106.5 0 212.9 0 319.4q-54.5 0.1-109 0c0-106.5 0.1-212.9 0-319.4-47 0-94 0-141 0zm437 0c33-0.1 66 0 99 0q63.5 108.8 127 217.8c42.5-72.6 85.2-145.1 127.6-217.8 33.1-0.1 66.2 0 99.3 0q0 212.5 0 425c-36.2 0-72.4 0-108.6 0 0-69.3 0.1-138.6 0-207.9-39.4 67.3-78.9 134.6-118.3 202-39-67.1-78-134.2-117-201.2 0 69 0 138.1 0 207.1q-54.5 0-109 0 0-212.5 0-425z"/>
	</g>
	<g id="#006bdbff">
		<path id="Layer" class="s1" d="m1465.6 1.8c18.8-3.3 38.9 0.5 54.9 10.9 17.3 11 30.2 28.9 34.4 49 4.3 18.9 1 39.5-9 56.1-11.3 19.1-31 33.1-52.9 37-20.2 3.5-41.7-0.7-58.6-12.5-18.2-12.3-30.6-32.7-33.1-54.5-2.6-19.8 3.2-40.3 15.4-56.1 11.8-15.6 29.6-26.4 48.9-29.9zm-52.1 322.4c12.2-18.7 32.6-31.7 54.7-34.8 19.8-2.9 40.6 2.4 56.7 14.3 17.6 12.8 29.4 33.3 31.5 55 2.4 22.5-6 45.8-21.9 61.8-13.4 14-32.3 22.5-51.7 23.5h-8.1c-11.4-0.8-22.7-3.7-32.8-9.1-20.6-10.7-35.7-31.3-39.8-54.2-3.8-19.4 0.4-40.2 11.4-56.5z"/>
	</g>
</svg>