<svg version="1.2" xmlns="http://www.w3.org/2000/svg" viewBox="0 0 1551 236" width="1551" height="236">
	<title>logo (72)-svg</title>
	<defs>
		<clipPath clipPathUnits="userSpaceOnUse" id="cp1">
			<path d="m0 0h1550v235.95h-1550z"/>
		</clipPath>
	</defs>
	<style>
		.s0 { fill: #dc002d } 
		.s1 { fill: #ffffff } 
		.s2 { fill: #003a78 } 
		.s3 { fill: #000000 } 
	</style>
	<g id="Layer">
		<g id="Layer">
			<path id="Layer" class="s0" d="m0 1.8h301.2v70.8h-301.2z"/>
			<path id="Layer" class="s0" d="m0 163.8h301.2v70.8h-301.2z"/>
			<path id="Layer" class="s1" d="m0 72.5h301.2v91h-301.2z"/>
			<path id="Layer" class="s2" d="m163.5 98.8v44.6l10.8 6.3v4.2h-50.1v-4.2l10.8-6.3v-44.6h-20.1l-4.8 13.5h-5.4v-25.8h89.1v25.8h-5.4l-5.1-13.5z"/>
			<g id="Clip-Path" clip-path="url(#cp1)">
				<g id="Layer">
					<path id="Layer" fill-rule="evenodd" class="s3" d="m644.4 1.5v54.7h-73.5v177.9h-56.7v-177.9h-74.4v-54.7zm427.7 147.9v84.7h-51.9v-232.6h109.2q8.6-0.4 17.1 0.6 8.5 1 16.7 3.5 8.2 2.4 15.9 6.2 7.6 3.8 14.5 8.9c4 3.1 7.6 6.7 10.7 10.7 3.1 3.9 5.8 8.2 7.9 12.8 2.1 4.6 3.6 9.4 4.6 14.4 1 5 1.3 10 1.1 15q0.2 5.6-0.5 11.1-0.8 5.5-2.5 10.7-1.7 5.3-4.2 10.2-2.6 5-6 9.4-3.6 4.8-7.9 9.1-4.3 4.3-9.1 8-4.9 3.7-10.2 6.7-5.3 3-10.9 5.2l55.5 90.1h-56.1l-52.4-85zm0-49.7h55.5c24.9 0 38.7-5.4 38.7-25.2 0-19.7-13.8-26.3-38.7-26.3h-55.5zm477.9-98.2v232.6h-51.9v-144.5l-46.2 103.3h-44.7l-49.5-104.5v145.7h-51.9v-232.6h65.7l58.5 128.4 57.3-128.4zm-685.1 7.3c14.4 5.9 27.5 14.6 38.6 25.5 11 11 19.8 24 25.7 38.4 6 14.3 9.1 29.7 9.1 45.3 0 47.6-28.7 90.6-72.8 108.9-44.1 18.3-94.9 8.3-128.8-25.3-33.8-33.6-44.1-84.3-26-128.4 18.1-44.1 61-73 108.8-73.2 15.6-0.1 31 2.9 45.4 8.8zm-46 179.2q-0.1 0-0.2 0 0 0-0.1 0zm-0.2 0c9.1-0.1 18.1-2 26.5-5.5 8.5-3.6 16.1-8.8 22.5-15.4 6.4-6.5 11.5-14.2 14.9-22.7 3.4-8.5 5.1-17.6 5-26.7 1.2-19.1-5.4-37.8-18.5-51.7-13-13.9-31.3-21.8-50.4-21.8-19.1 0-37.3 7.9-50.4 21.8-13 13.9-19.7 32.6-18.4 51.7-0.1 9.1 1.6 18.2 5 26.7 3.4 8.5 8.4 16.2 14.8 22.7 6.4 6.6 14.1 11.8 22.5 15.4 8.4 3.5 17.4 5.4 26.5 5.5z"/>
				</g>
			</g>
		</g>
	</g>
</svg>