<svg version="1.2" baseProfile="tiny-ps" xmlns="http://www.w3.org/2000/svg" viewBox="0 0 1620 1782" width="1620" height="1782">
	<title>TruliteLogo_tm-svg</title>
	<style>
		tspan { white-space:pre }
		.shp0 { fill: #0b3a94 } 
		.shp1 { fill: #849493 } 
	</style>
	<g id="#001ee9ff">
		<path id="Layer" class="shp0" d="M814.8 0.06C1083.18 267.96 1351.06 536.36 1619.14 804.56C1415.31 804.46 1211.49 804.36 1007.67 804.56C874.02 671 740.97 536.85 607.52 403.1C473.68 536.85 340.03 670.71 206.19 804.46C141.05 804.46 75.9 804.56 10.76 804.46C278.84 536.36 546.82 268.26 814.8 0.06Z" />
	</g>
	<g id="#809799ff">
		<path id="Layer" class="shp1" d="M0.59 976.74C65.93 976.54 131.28 976.34 196.62 976.84C329.97 1110.29 463.12 1243.95 596.86 1377.11C730.31 1243.55 863.76 1110.1 997.2 976.54C1201.42 976.74 1405.64 976.15 1609.96 976.94C1341.58 1244.94 1073.7 1513.43 805.32 1781.53C536.95 1513.53 268.97 1244.94 0.59 976.74Z" />
	</g>
</svg>