<svg version="1.2" xmlns="http://www.w3.org/2000/svg" viewBox="0 0 1571 253" width="1571" height="253">
	<title>TRX-Gold-Corp-refresh-selection-svg</title>
	<style>
		.s0 { fill: #c4a017 } 
		.s1 { fill: #ffffff } 
	</style>
	<g id="#c4a017ff">
		<path id="Layer" class="s0" d="m644.2 0.6q33.9 0 67.7 0c-26.9 40.3-54 80.5-80.9 120.8 30.1 43.9 60.1 87.8 90.2 131.6h-70.1c-20.7-33.3-41.2-66.8-61.7-100.2-6.5-10.5-13-21-19.4-31.5 7.1-11.6 14.3-23.2 21.4-34.8q26.4-43 52.8-85.9z"/>
		<path id="Layer" fill-rule="evenodd" class="s0" d="m1429.2 0h67.6c24.8 40.1 49.5 80.3 74.2 120.5v0.2c-27.1 43.7-53.9 87.6-81 131.3-1.2 0.3-3.8 0.8-5 1h-65.3c2.5-5.1 6.3-9.5 9.4-14.3 26.9-39.4 54-78.8 80.9-118.2-27-40.1-53.8-80.4-80.8-120.5zm-662.3 50.4c14.5-7.1 30.9-9.7 46.9-9.1 21.4 0.3 43.9 5.7 60.1 20.6-8.3 9.4-16.8 18.5-25.3 27.7-5.1-5.2-11.2-9.7-18.2-12.1-10.2-3.4-21.3-4.1-31.9-2.2-12.5 2.3-24 9.7-30.8 20.6-7.5 11.5-9.5 25.7-7.8 39.1 1.6 12.2 7.3 24.2 16.9 32 8.5 7.2 19.6 10.9 30.6 11.2 12.2 0.3 24.7-2.2 35.5-8q0-13 0-25.9c-9.7 0-19.4 0-29.1-0.1q0-16.5 0-33.1 31.7 0 63.4 0.1 0 42.3 0 84.6c-22.3 11.6-47.8 16.2-72.7 15.4-15.2-0.6-30.4-4.5-43.5-12.3-13-7.6-23.8-19.1-30.2-32.7-6.4-12.9-8.9-27.5-8.7-41.8 0.3-15.6 4.1-31.5 12.4-44.9 7.6-12.6 19.1-22.8 32.4-29.1zm223.5-8.3c17.4-2.2 35.6-0.7 52 6 14.4 5.7 27.3 15.7 35.8 28.7 8.6 12.6 13.1 27.8 13.9 42.9 1.2 18.5-2.4 37.6-12.2 53.5-7.2 11.8-17.9 21.5-30.2 27.8-13.2 7-28.1 10.1-43 10.3-15.5 0.2-31.2-2.6-45.1-9.7-13.9-6.8-25.6-17.9-33.1-31.5-8.9-16-11.8-34.7-10.3-52.8 1.4-17.7 8-35.3 20-48.6 13.2-15.1 32.5-24 52.2-26.6zm7.1 32.7c-11.5 1.4-22.6 6.9-30.2 15.8-8.4 9.8-12.4 22.8-12.2 35.5-0.2 12.4 3.5 25 11.3 34.8 9 11.3 23.5 17.3 37.9 17.3 13.3 0.3 27.1-4.3 36.4-14.1 10.2-10 14.7-24.7 14.4-38.8 0-14.7-5.7-29.8-16.9-39.4-11-9.6-26.4-13-40.7-11.1zm133.9 132.3c0-53.9 0-107.9 0-161.8 11.9 0 23.8 0 35.7 0q0 64.4 0 128.9c22 0 44 0 65.9 0q0.1 16.5 0 32.9-50.8 0-101.6 0zm139.3-161.8c14 0 28 0 42.1 0 14.9-0.2 30 0 44.6 3.5 16.2 3.6 32.1 11 43.5 23.3 10.1 10.8 16 25 17.9 39.5 2 14.9 1.3 30.6-4.2 44.7-5.6 15-16.6 27.7-30.1 36.1-13.2 8.2-28.4 12.8-43.8 14.2-6.1 0.8-12.3 0.5-18.4 0.5q-25.8 0-51.6 0c0-53.9 0-107.9 0-161.8zm35.9 33.1c0 32-0.1 63.9 0 95.8 16.8-0.2 34.3 1.2 50.1-5.6 11.5-4.6 20.6-14.6 23.8-26.5 3.7-14.3 3.4-30.8-5.5-43.3-8.1-11.7-22.1-17.7-35.9-19.6-10.8-1.4-21.7-0.5-32.5-0.8z"/>
	</g>
	<g id="#131818ff">
		<path id="Layer" fill-rule="evenodd" class="s1" d="m0 0.5q99.8 0 199.5 0 0.1 24.8 0 49.7c-24 0-48 0-72 0q0 101.4 0 202.8h-55.6q-0.1-101.4 0-202.8-36 0-71.9 0zm239.9 0c32.7 0 65.4-0.1 98.1 0 18.9 0.3 38.2 2.2 55.5 10.1 12.8 5.7 24 15.2 30.6 27.6 7.9 14.6 9.6 31.7 8.4 48-1.4 15.6-7.3 31.3-18.5 42.5-9.4 9.8-22.3 15.6-35.5 18.1 21.4 35.3 42.6 70.8 63.9 106.1h-67c-17.6-33.4-35.1-67-52.6-100.5-9 0-18.1 0-27.1 0q0 50.3 0 100.5h-55.8c0-84.1 0-168.3 0-252.4zm55.8 47.3c0 19.1 0 38.2 0 57.2q20 0 39.9 0c10.1-0.4 20.8-1.1 29.5-6.9 6.8-4.4 9.9-12.8 9.7-20.7 0.4-8.2-2.8-16.8-9.6-21.7-7.5-5.3-16.8-6.9-25.7-7.5-14.6-0.7-29.2-0.2-43.8-0.4z"/>
		<path id="Layer" class="s1" d="m468.9 0.6c23.4-0.2 46.8 0 70.2-0.1 17.4 28.7 34.8 57.4 52.3 86-7.1 11.6-14.3 23.2-21.4 34.8 6.4 10.5 12.9 21 19.4 31.5-16.9 29.3-34.3 58.3-51.4 87.5-2.5 4.2-4.9 8.5-7.5 12.7h-66.4c29.5-43.8 58.8-87.8 88.2-131.6-27.8-40.3-55.7-80.5-83.4-120.8z"/>
	</g>
</svg>