<svg version="1.2" xmlns="http://www.w3.org/2000/svg" viewBox="0 0 1515 1182" width="1515" height="1182">
	<title>AfricaCom_telesat (1)-svg</title>
	<style>
		.s0 { fill: #202945 } 
	</style>
	<g id="#202945ff">
		<path id="Layer" fill-rule="evenodd" class="s0" d="m705.4 0.9c120.1-0.2 240.2-0.1 360.3-0.1c42.2 186.5 84.2 373.1 125.7 559.9c102.1-32.3 203.6-66.3 305.6-98.9c12-5.3 23 11.8 15 21.3c-7.9 6.3-17.2 10.4-25.8 15.5c-91.5 51-183.1 101.9-274.5 153.1c29.1 129.1 57.4 258.4 86.5 387.5c1.6 5.9-0.1 11.9-1 17.7c-8.3 41.3-17.1 82.5-25.6 123.7q-119.1 0-238.3 0c-25.4-129-49.4-258.4-76-387.2c-223.3 124.2-446.3 248.8-669.5 373.2c-11.4 5.6-22.1 15.4-35.6 14.1c-58.1-0.9-116.2 1.5-174.3 0.5c-25.7-1.1-51.5-0.2-77.2-0.7c18.2-56.6 35.9-113.3 53.9-170c5.3-18.2 18.6-32.3 28.1-48.4c209.1-319.4 415.4-640.7 622.7-961.2zm-192.8 780.7c138.8-45.5 277.8-90.1 416.6-135.7c-26-134.1-52.7-268-78-402.2c-113.2 179.1-225.4 358.8-338.6 537.9z" />
	</g>
</svg>