<svg version="1.2" xmlns="http://www.w3.org/2000/svg" viewBox="0 0 1792 250" width="1792" height="250">
	<title>AfricaCom_telesat (1)-svg</title>
	<style>
		.s0 { fill: #202945 } 
	</style>
	<g id="#202945ff">
		<path id="Layer" class="s0" d="m10.2 0.6q121.5 0 243.1 0c-1.7 9.7-3.4 19.5-6.8 28.7c-2.7 7.4-8.2 13.7-15.3 17.3c-6.4 3.3-13.8 3.6-20.9 3.6c-18-0.4-36-0.4-54-0.4c-2.2-0.1-4.8 0.5-6.1 2.5c-1.7 2.6-1.9 5.7-2.6 8.6q-18.8 88.8-37.6 177.6c-4.6 3.6-9.1 7.4-13.7 11c-15.3 0-30.6 0-45.9 0q21.2-99.8 42.4-199.5c-30.9 0-61.9 0-92.8 0v-0.3q5.1-24.5 10.2-49.1z" />
		<path id="Layer" class="s0" d="m288.6 0.6q107.2 0 214.4 0c-1.6 9.5-3.2 19.2-6.6 28.3c-2.4 6.7-7.1 12.6-13.2 16.4c-5.3 3.3-11.7 4.6-17.9 4.7c-7.1 0-14.1 0.1-21.2-0.2c-33.3 0.1-66.7-0.2-100.1 0.2c-2.2 0.1-4.7-0.3-6.7 0.9c-1.9 1.3-2.6 3.6-3 5.7q-4.6 21.5-9.3 43c39.4 0.1 78.7 0 118 0c-2.4 11.8-4.6 23.6-7 35.3q-8 6.5-15.9 13q-52.8-0.1-105.5 0c-2.5 12.4-5.3 24.8-7.9 37.2c-1 4.8-2.2 9.5-2.9 14.3c52.3 0 104.6 0 156.9 0c-2.4 12.4-5.1 24.8-7.5 37.2c-4.9 4-9.8 7.9-14.6 11.9c-1.4 1.4-3.6 0.9-5.4 1c-65.8 0-131.6 0-197.3 0q26.3-124.5 52.7-248.9z" />
		<path id="Layer" class="s0" d="m547.4 0.6c19.1-0.1 38.3 0 57.5 0c-14 65.7-28.1 131.5-42 197.3c51.2 0 102.4-0.1 153.5 0c-2.5 12.7-5.2 25.5-7.9 38.2q-8.1 6.8-16.4 13.4c-65.7 0-131.5 0-197.2 0c17.4-83 35-165.9 52.5-248.9z" />
		<path id="Layer" class="s0" d="m792 0.6c71.5 0 143 0 214.5 0c-1.9 10-3.4 20.3-7.3 29.9c-3.7 9-11.9 16.1-21.5 18.3c-9.4 2.1-19 0.8-28.5 1c-33.9-0.6-67.8 0.2-101.7 0c-2.8 0.1-6.2-0.2-8 2.3c-2.1 3-2.2 6.8-3 10.3c-2.6 12.4-5.4 24.8-7.9 37.2c39.2 0 78.5 0 117.8 0c-2.4 11.8-4.7 23.5-7 35.3c-5.3 4.3-10.6 8.7-16 13c-35.1 0-70.3-0.1-105.4 0c-3.4 17.3-7.3 34.5-10.9 51.7c52.3 0 104.7 0 157 0c-2.4 12.2-5 24.4-7.5 36.6q-4.1 3.4-8.3 6.7c-3.2 2.4-6 5.7-9.8 7.1h-198.7c-0.1-2.5 0.4-5 1-7.5c17-80.6 34.2-161.3 51.2-241.9z" />
		<path id="Layer" class="s0" d="m1049.8 17.8c8.8-9.9 21.6-15.6 34.6-17c7.5-0.4 15.1-0.2 22.7-0.2q80.9 0 161.9 0c-1.3 7-2.5 14-4.3 20.8c-1.5 5.4-3.3 10.8-6.6 15.3c-4.3 5.9-10.7 10.3-17.8 11.9c-9.3 2.2-19 0.7-28.5 1c-7.8 0.1-15.6-0.2-23.4-0.2c-11.2 0.4-22.4 0.1-33.6 0.2c-11.8 0.4-23.5 0.1-35.2 0.2c-7.1 0.1-14.2-0.4-21.2 0.9c-4.6 0.7-7.6 4.8-8.8 9c-2.1 6.8-3.5 13.8-4.4 20.8c-0.7 3.3 1.3 6.9 4.6 7.9c7.5 2.7 15.3 4.6 23.2 5.9c20.2 3.6 40.4 6.9 60.6 10.3c11.9 2.3 24.2 3.6 35.4 8.4c11.5 4.6 22.5 12.1 28 23.5c4.5 9 5.1 19.4 3.7 29.2c-1.2 9.1-3.1 18.2-5.3 27.1c-3.5 13.1-7.3 26.6-16.3 37.2c-7.7 9.3-18.9 15.3-30.7 17.7c-8 2-16.3 1.5-24.4 2.3h-172.4c-0.1-1.1-0.1-2.2 0.1-3.3c3.2-15.8 6.5-31.5 9.8-47.3q72.7 0 145.5 0c6.8 0.1 13.6 0.1 20.3-1.2c4.7-1 8.6-4.5 10.5-8.8c2.8-6 4.6-12.6 4.2-19.2c-0.2-5-4.2-9.1-8.9-10.4c-14.9-4.7-30.4-6.5-45.7-9.4c-18.1-3-36.2-6.1-54.2-9.3c-8.7-1.6-17-4.9-24.7-9c-9.8-5.2-17.4-14.2-20.8-24.7c-2.2-6.6-2.4-13.7-1.4-20.5c1.7-11.9 3.9-23.7 7.2-35.3c3.3-12.1 7.6-24.5 16.3-33.8z" />
		<path id="Layer" fill-rule="evenodd" class="s0" d="m1393.5 0.6c25.4 0 50.7 0 76 0q13.4 59 26.6 118.1c21.5-6.8 42.9-14 64.5-20.8c2.5-1.2 4.8 2.4 3.1 4.4c-1.6 1.4-3.6 2.2-5.4 3.3c-19.3 10.8-38.7 21.5-58 32.3c6.2 27.3 12.2 54.5 18.3 81.8c0.4 1.2 0 2.5-0.2 3.7c-1.8 8.7-3.6 17.4-5.4 26.1q-25.1 0-50.3 0c-5.4-27.2-10.4-54.5-16-81.7c-47.2 26.2-94.2 52.5-141.3 78.7c-2.4 1.2-4.7 3.3-7.5 3c-12.3-0.2-24.6 0.3-36.8 0.1c-5.5-0.2-10.9 0-16.3-0.1c3.8-12 7.6-23.9 11.4-35.9c1.1-3.8 3.9-6.8 5.9-10.2c44.1-67.4 87.6-135.2 131.4-202.8zm-40.7 164.7c29.3-9.6 58.7-19 87.9-28.6c-5.4-28.3-11.1-56.6-16.4-84.9c-23.9 37.8-47.6 75.7-71.5 113.5z" />
		<path id="Layer" class="s0" d="m1548.8 0.6c81 0 162.1 0 243.1 0c-1.2 7.2-2.5 14.4-4.4 21.5c-1.5 5.3-3.4 10.6-6.7 15.1c-4.2 5.7-10.4 10.1-17.4 11.7c-6.5 1.6-13.2 0.9-19.8 1.3c-17 0.6-34 0.3-50.9 0.4c-3.1-0.1-4.7 3-5.3 5.6q-19.5 91.7-39 183.5c-4 3.3-8.1 6.5-12.1 9.8c-15.8 0-31.5 0-47.3 0q21.3-99.9 42.5-199.7c-31 0-61.9 0-92.9 0c3.4-16.4 6.9-32.8 10.2-49.2z" />
		<path id="Layer" class="s0" d="m1687.2 217.2q13 0 26 0q0 2.9 0 5.8q-4.5 0-8.9 0c-0.1 7.9-0.1 15.7-0.1 23.5q-3.9 0-7.8 0q0-11.7 0-23.4q-4.6-0.1-9.2-0.1q0-2.9 0-5.8z" />
		<path id="Layer" class="s0" d="m1717.5 217.2q4.5 0 9 0c2.2 4.8 4.4 9.6 6.5 14.4q3.2-7.2 6.4-14.4q4.5 0 9 0q0 14.6 0 29.3q-3.8 0-7.6 0c0-6.4 0-12.8 0-19.2c-1.8 4.1-3.5 8.2-5.3 12.3q-2.7 0-5.4 0c-1.8-3.9-3.4-8-5.1-12q-0.1 9.5 0 18.9q-3.8 0-7.5 0q0-14.7 0-29.3z" />
	</g>
</svg>