<svg version="1.2" xmlns="http://www.w3.org/2000/svg" viewBox="0 0 1509 1509" width="1509" height="1509">
	<title>logo (97)-svg</title>
	<defs>
		<clipPath clipPathUnits="userSpaceOnUse" id="cp1">
			<path d="m0.01 0.33h1508.62v1507.73h-1508.62z"/>
		</clipPath>
	</defs>
	<style>
		.s0 { fill: #ffffff } 
	</style>
	<g id="Page-1">
		<g id="01---IR-landing-Copy-2">
			<g id="logo">
				<g id="Group-3">
					<g id="Clip-Path: Fill-1" clip-path="url(#cp1)">
						<path id="Fill-1" fill-rule="evenodd" class="s0" d="m0 228.3c0-125.9 102.1-228 228-228h1052.6c125.9 0 228 102.1 228 228v1051.8c0 125.9-102.1 228-228 228h-1052.6c-125.9 0-228-102.1-228-228zm83.9 1041.8c0 85.1 69 154 154 154h1033.1c85 0 154-68.9 154-154v-1032.2c0-85-69-154-154-154h-1033.1c-85 0-154 69-154 154z"/>
					</g>
				</g>
				<path id="Fill-4" fill-rule="evenodd" class="s0" d="m1272.6 921.3c0.1 3 0.1 6.1 0 9.2-3.7 104.5-98.9 183-225.6 186.1-138.2 3.4-222.7-70.7-225.7-172.2h-0.1v-148.7h-57.2v-139.6h57.2v-83h-111.7v460.9h-195.6v-460.9h-279.3v-181.5h754v263.7h0.1v0.8h251.4v139.6h-251.4v97.8c0 38.6 31.2 69.8 69.8 69.8 28.7 0 53.4-17.3 64.1-42z"/>
			</g>
		</g>
	</g>
</svg>