<svg version="1.2" xmlns="http://www.w3.org/2000/svg" viewBox="0 0 1538 266" width="1538" height="266">
	<title>lg_televisa-svg</title>
	<style>
		.s0 { fill: #000000 } 
	</style>
	<g id="Layer">
		<path id="Layer" fill-rule="evenodd" class="s0" d="m639.1 101.8h-50v132.9h-55v-132.9h-50v-45.9h155zm123.9 79.2c0 0-95.2 0-94.9 0 1.1 14.7 9.8 25.3 25.3 25.3 8 0 16.7-2.9 20.6-9.2h46.2c-10.1 28.1-37.4 41.1-66.8 41.1-41.7 0-72.8-24.6-72.8-68.1 0-37.8 27.6-68.7 68.5-68.7 51.5 0 73.9 29.1 73.9 79.6zm-47.6-25.9c0-12-9.1-21.8-21.7-21.8-14.7 0-23.5 7.7-25.6 21.8zm72.1-99.3h49.7v178.9h-49.7zm216 125.1c0 0-95.2 0-94.8 0 1 14.8 9.8 25.3 25.2 25.3 8 0 16.8-2.8 20.6-9.1h46.2c-10.2 28-37.5 41-66.8 41-41.7 0-72.9-24.6-72.9-68 0-37.9 27.7-68.8 68.7-68.8 51.4 0 73.8 29.1 73.8 79.6zm-47.6-25.9c0-11.9-9.1-21.8-21.7-21.8-14.7 0-23.4 7.8-25.5 21.8zm149.4-50.5h50.7l-43 130.1h-58.8l-42.3-130.1h52.1l20.3 79.2h0.7zm68.9-48.7h49.4v34.7h-49.4zm0 48.8h49.4v130h-49.4zm202.7 87.4c0 36.1-34.6 45.9-66.2 45.9-30.4 0-64-12.3-64.7-45.9h47.3c0.3 4.5 2.1 8.4 5.9 11.5 2.5 2.1 7.4 3.9 13.3 3.9 6.3 0 16.8-2.5 16.8-10.2 0-7.3-4.2-9.8-27.3-13.7-37.8-6.6-53.2-18.5-53.2-41 0-32.9 35.4-41.4 61.3-41.4 28 0 61.6 7.8 63 41.1 0.3 0.3-44.8 0.3-44.8 0.3-0.4-4.2-2.5-7.3-5.6-9.8-3.2-2.5-7-3.9-10.9-3.9-7 0-15 1.4-15 9.9 0 3.8 3.1 5.6 5.6 6.6 8.4 3.5 26.9 4.6 43.4 10.2 16.4 5.2 31.1 15.1 31.1 36.5zm160.3 43.1h-50.4c-1.4-3.5-2.1-8.8-1.7-12.3h-0.4c-10.5 11.9-25.5 15.4-41.6 15.4-25.2 0-45.9-11.9-45.9-39.2 0-41.4 48-39.7 73.2-44.6 7-1.4 13.6-3.1 13.6-11.5 0-8.8-8.4-12-16.5-12-15.4 0-18.1 7.8-18.5 13.4h-46.2c1.4-36.8 36-42.8 66.8-42.8 62 0 61.6 25.9 61.6 50.8l0.1 53.7c0 9.8 0.3 20.7 5.9 29.1zm-53.2-58.6c-6 3.2-13 4.9-19.6 6.3-11.2 2.5-16.8 5.3-16.8 14.1 0 5.9 6.3 11.9 15.4 11.9 11.2 0 20-6.7 20.6-20.3z"/>
		<path id="Layer" class="s0" d="m281.8 11h-143.9c22.1-6.3 46.2-10.2 72.1-10.2 25.9 0 50.1 3.9 71.8 10.2zm-141.8 29.1h-69.3c6.7-3.9 13.7-7.7 21-11.2h66.5c-6.3 3.1-12.6 7-18.2 11.2zm122.2-11.2h65.7c7.4 3.5 14 7.3 20.7 11.2h-68.3c-5.5-4.2-11.9-8.1-18.1-11.2zm-152.7 44.8h-82.2c5.9-6.3 12.9-12.6 20.6-18.2h74.9c-4.9 5.6-9.4 11.6-13.3 18.2zm187.7-18.2h74.8c7.7 6 14.4 11.9 20.7 18.2h-82.3c-3.8-6.6-8.4-12.6-13.2-18.2zm19.9 31.6h86.5c5.9 8 10.1 16.4 12.9 25.2h-91.7c-1.7-8.8-4.2-17.2-7.7-25.2zm-221.9 25.2h-91.7c2.8-8.8 7.3-17.2 12.9-25.2h86.5c-3.5 8-5.9 16.4-7.7 25.2zm0 40h-92c-1.4-6-2.5-12.3-2.5-18.9 0-2.5 0-5.3 0.3-7.8h92.8c0 2.5-0.4 5.3 0 7.8 0 6.3 0.3 12.6 1.4 18.9zm324.1-26.7c0.3 2.5 0.3 4.9 0.3 7.8 0 6.6-0.7 12.9-2.4 18.9h-92.1c1.1-6 1.8-12.3 1.8-18.6 0-2.8-0.4-5.3-0.4-8.1zm-96.2 36.9h90.6c-4.1 10.1-10.8 19.6-18.8 28.4h-83.3q7.8-13.2 11.5-28.4zm-214.5 28.4h-83c-8-8.8-14.7-18.3-18.9-28.4h90.3c2.8 9.8 6.7 19.6 11.6 28.4zm197.4 8.7h80.1c-9.1 8.4-19.6 16.2-31.1 23.5q-9.5 6.3-20 11.6h-66.5c15.1-8.4 27.6-20.3 37.5-35.1zm-154 35.4h-66.2q-10.5-5.7-19.9-11.5c-11.6-7.4-22.1-15.1-31.2-23.5h79.5c9.8 14.4 22.7 26.3 37.8 35zm107.4 4.6h65.8c-32.6 15.8-71.1 26.3-115.1 26.3-43.8 0-82.6-10.5-115.2-26.3h66.2c15 7 31.5 10.9 49 10.9 17.8 0 34.2-3.9 49.3-10.9z"/>
	</g>
</svg>