<svg version="1.2" xmlns="http://www.w3.org/2000/svg" viewBox="0 0 1536 535" width="1536" height="535">
	<title>ternium2-svg</title>
	<style>
		.s0 { fill: #ffffff } 
		.s1 { fill: none } 
	</style>
	<g id="Layer">
		<path id="Layer" fill-rule="evenodd" class="s0" d="m591.6 233.2h-51.5v-24.1h130.6v24h-51.5v193h-27.6zm63.1 119.3c0-44.5 5.1-81.1 57.6-81.1 43.2 0 54 23.7 54 73.9v12.9h-85.2c0 42.4 11.3 50.8 30.5 50.8 16.9 0 25.6-13.5 26.5-28.9h27c-0.3 33.7-21 49-52.8 49-32.1 0-57.6-9.6-57.6-76.6zm26.4-12.9h59.1c0-44.2-12.3-49.6-30.3-49.6-15.7 0-28.5 7.5-28.8 49.6zm142.6 86.5h-24.6v-151.8h24.6v22.9h0.7c10.2-23.2 22.8-25.8 46.8-25.8v25.5l-6.6-0.9c-2.1-0.3-4.2-0.6-6.6-0.6-27.4 0-34.3 20.7-34.3 41.2zm70-120.2c0-10.5-0.5-21-1.5-31.6h26.2v19.5h1.2c9.6-17.1 21-22.5 40.6-22.5 32.4 0 40.5 19.6 40.5 49.6v105.2h-24.6v-105.2c0-16.2-5.7-29.4-26.8-29.4-27 0-30.9 24-30.9 44.7v89.9h-24.7c0 0 0-120.2 0-120.2z"/>
		<path id="Layer" class="s1" d="m0 0.7h1535.7v533.9h-1535.7z"/>
		<path id="Layer" fill-rule="evenodd" class="s0" d="m1038.9 426.1h24.6v-151.8h-24.6zm-1.5-190.6h27.6v-26.4h-27.6zm107.5 193.6c15.9 0 30.4-7.5 38.5-21.4h0.9v18.4h26.1q-0.3-4-0.6-7.9-0.3-4-0.4-7.9-0.2-4-0.3-7.9-0.1-4-0.1-7.9v-120.2h-24.7v100.7c0 25.2-16.5 35.1-29.8 35.1-17.4 0-25.8-12.3-25.8-30.7v-105.1h-24.6v115.7c0 25.8 14.4 39.1 40.8 39.1zm101.3-3h24.6v-102.2c0-5.7 1.2-14.8 5.7-22.3 3.7-5.7 13.9-10.2 21.4-10.2 19.8 0 24 14.1 24 29.5v105.2h24.6v-102.2c0-5.7 1.3-20.8 8.5-26.8 6.6-5.4 9.3-5.7 18.6-5.7 19.8 0 24 14.1 24 29.5v105.2h24.6v-115.5c0-35.7-25.5-39.3-41.4-39.3-13.8 0-27.6 3.3-36.1 19.5-5.6-13.8-21.6-19.5-35.4-19.5-17.7 0-30.7 5.7-37.9 21.9h-0.6v-18.9h-26.1c0.9 10.5 1.5 21 1.5 31.5z"/>
		<path id="Layer" fill-rule="evenodd" class="s0" d="m0 0.6h1535.7v534h-1535.7c0 0 0-534 0-534zm455.5 30.5h-425.1v263.6l161.9-169.4 263.2 148.3c0 0 0-242.5 0-242.5zm0 349l-118.2-147-306.9 92.5v178.3h425.1c0 0 0-123.8 0-123.8zm36.1 123.8h1013.4v-472.7h-1013.4c0 0 0 472.7 0 472.7z"/>
	</g>
</svg>