<svg version="1.2" xmlns="http://www.w3.org/2000/svg" viewBox="0 0 1578 1541" width="1578" height="1541">
	<title>cryptyde-logo-svg</title>
	<style>
		.s0 { fill: #0069fe } 
	</style>
	<g id="#0069feff">
		<path id="Layer" class="s0" d="m62.1 324.6c105.8-184 308.7-306.5 519.2-323.1 178.1-2.5 356.1-0.8 534-1 100.2-1.5 194 52.2 255.9 128.7 69.1 85.4 142.2 167.9 206.8 257-86.5 131.4-258.6 206.7-411.8 157.7-174.5-49.1-250.7-232.1-394-328.1-107.6 132.3-217.4 262.6-324.2 395.5-71.8 89.3-71.6 227.6 0 317.1 106.8 133.3 217.6 263.3 325.3 395.9 137.6-93.7 212.2-265.1 374.7-322.5 150.7-57.6 329.6 9.8 420.5 139.3 4.1 51.2-50.1 82.1-74.8 121.5-93.3 106.5-173.7 251.8-327.7 273.2-168.5 10.3-338.1 1-507 4.5-232.9 10.8-466-115.9-589.2-313-79.1-128.1-69.6-282.9-67.9-427.2 3.7-159.2-22.2-330.4 60.2-475.5z"/>
	</g>
</svg>