<svg version="1.2" xmlns="http://www.w3.org/2000/svg" viewBox="0 0 1579 293" width="1579" height="293">
	<title>singaporeland-svg</title>
	<style>
		.s0 { fill: #002361 } 
		.s1 { fill: #a07500 } 
	</style>
	<g id="Group_59">
		<g id="Group_1">
			<path id="Path_1" class="s0" d="m356.1 138.5q-0.8 0.6-1.4 1.4-0.6 0.7-1 1.6-0.4 0.9-0.6 1.8-0.1 1-0.1 2 0 1 0.2 2 0.3 0.9 0.8 1.8 0.5 0.9 1.2 1.6 0.7 0.7 1.6 1.2 2 1.1 4.2 1.9 2.1 0.9 4.3 1.7 2.2 0.7 4.5 1.3 2.2 0.6 4.5 1 2.9 0.6 5.7 1.5 2.8 1 5.5 2.3 2.7 1.3 5.2 2.8 2.5 1.6 4.8 3.5 2 1.9 3.5 4.2 1.5 2.3 2.5 4.9 1 2.5 1.4 5.2 0.4 2.7 0.2 5.5 0.1 3-0.5 5.9-0.6 3-1.9 5.7-1.3 2.7-3.1 5.1-1.9 2.4-4.2 4.3-2.7 2.1-5.8 3.7-3 1.5-6.3 2.6-3.2 1-6.6 1.5-3.4 0.4-6.8 0.2-5.8 0-11.4-1.1-5.6-1.1-10.9-3.3-5.3-2.2-10-5.4-4.8-3.1-8.9-7.1l12.8-15.8q15.6 13.7 28.8 13.7 1.2 0.1 2.4-0.1 1.2-0.1 2.4-0.4 1.2-0.3 2.3-0.9 1.1-0.5 2.2-1.2 0.8-0.5 1.4-1.3 0.7-0.8 1.1-1.7 0.5-0.9 0.7-1.9 0.2-0.9 0.1-1.9 0.1-1.1-0.2-2.1-0.2-0.9-0.7-1.9-0.4-0.9-1.1-1.6-0.7-0.8-1.5-1.3-1.7-1-3.4-1.8-1.7-0.8-3.5-1.4-1.8-0.7-3.6-1.2-1.8-0.5-3.7-0.8-3.3-0.6-6.5-1.6-3.3-0.9-6.4-2.3-3.1-1.3-6-2.9-2.9-1.7-5.7-3.6-2-1.9-3.6-4.2-1.6-2.4-2.6-5-1-2.6-1.4-5.4-0.4-2.7-0.2-5.5-0.1-3.1 0.5-6.1 0.6-3 1.8-5.7 1.3-2.8 3.2-5.2 2-2.4 4.4-4.2 2.6-1.9 5.6-3.4 2.9-1.4 6.1-2.4 3.1-0.9 6.3-1.3 3.3-0.5 6.6-0.4 2.4 0.1 4.9 0.3 2.4 0.2 4.8 0.6 2.5 0.4 4.8 1 2.4 0.6 4.7 1.5 2.3 0.7 4.5 1.7 2.3 1 4.4 2.2 2.1 1.1 4.1 2.5 2 1.4 3.8 2.9l-10.8 15.7q-2.8-2.2-5.8-3.9-3.1-1.8-6.4-3-3.3-1.2-6.8-1.8-3.4-0.7-6.9-0.8-1.2 0-2.3 0.1-1.1 0.1-2.2 0.5-1.1 0.3-2.1 0.8-1 0.5-1.9 1.2z"/>
			<path id="Path_2" class="s0" d="m421.4 119.3h21.5v96.3h-21.5z"/>
			<path id="Path_3" class="s0" d="m533.8 119.3h21.5v96.3h-21.5l-45.8-60.4v60.4h-21.5v-96.3h20.1l47.2 62z"/>
			<path id="Path_4" class="s0" d="m639.5 166.5h21.6v34.2c-2.5 2.7-5.3 5.1-8.3 7.2-3 2.1-6.3 3.8-9.7 5.2-3.4 1.4-7 2.4-10.6 3-3.6 0.6-7.3 0.8-11 0.6q-4.9 0.1-9.8-0.7-4.8-0.9-9.4-2.7-4.6-1.8-8.7-4.5-4.2-2.7-7.7-6.2c-4.6-4.7-8.2-10.3-10.7-16.4-2.4-6.1-3.7-12.7-3.7-19.3 0.1-6.6 1.4-13.1 3.9-19.2 2.5-6.1 6.2-11.6 10.8-16.3q3.5-3.5 7.6-6.2 4.1-2.8 8.6-4.6 4.6-1.9 9.4-2.8 4.9-0.9 9.8-0.8 4.9-0.1 9.8 0.8 4.8 0.9 9.5 2.6 4.6 1.8 8.8 4.3 4.2 2.6 7.9 6l-11.2 16.1q-1.3-1.2-2.7-2.3-1.4-1.1-2.9-2.1-1.5-1-3.1-1.8-1.5-0.9-3.2-1.6-1.4-0.5-2.8-0.9-1.5-0.5-3-0.7-1.4-0.3-2.9-0.4-1.5-0.1-3-0.1-2.9-0.1-5.7 0.4-2.9 0.5-5.5 1.6-2.7 1.1-5.1 2.7-2.4 1.6-4.4 3.6c-2.6 3-4.7 6.4-6.2 10.2-1.4 3.7-2.2 7.7-2.2 11.7 0 4 0.7 7.9 2 11.7 1.4 3.7 3.5 7.2 6.1 10.2q1.8 2 4 3.5 2.2 1.6 4.7 2.7 2.5 1 5.1 1.5 2.7 0.6 5.4 0.5 2.4 0.1 4.8-0.1 2.4-0.2 4.7-0.8 2.4-0.5 4.6-1.4 2.3-0.8 4.4-1.9z"/>
			<path id="Path_5" fill-rule="evenodd" class="s0" d="m748 215.6l-8.9-20.8h-40.4l-8.9 20.8h-22.9l41.6-96.3h20.8l41.6 96.3zm-29.1-67.7l-12.1 28h24.1z"/>
			<path id="Path_6" fill-rule="evenodd" class="s0" d="m848.3 127.9q2.6 2.5 4.7 5.6 2 3 3.3 6.5 1.3 3.4 1.9 7 0.5 3.7 0.2 7.4 0.3 3.6-0.2 7.2-0.6 3.7-1.9 7.1-1.4 3.4-3.5 6.4-2.1 3-4.8 5.4-10.4 8.3-31.7 8.3h-12.8v26.8h-21.5v-96.3h34q22.1 0 32.3 8.6zm-15.8 37.9q1-1.4 1.8-2.9 0.8-1.5 1.3-3.1 0.5-1.6 0.7-3.3 0.2-1.7 0.1-3.4 0.1-1.7-0.1-3.3-0.3-1.7-0.9-3.3-0.7-1.5-1.7-2.8-1-1.4-2.4-2.4-1.7-1-3.6-1.8-1.9-0.7-3.9-1.2-2-0.4-4-0.5-2.1-0.2-4.1 0h-12.2v32.3h14.4q2 0.3 3.9 0.1 2-0.2 3.9-0.7 1.8-0.6 3.6-1.5 1.7-0.9 3.2-2.2z"/>
			<path id="Path_7" fill-rule="evenodd" class="s0" d="m956.1 202.3c-4.8 4.6-10.5 8.1-16.6 10.6-6.2 2.4-12.7 3.7-19.3 3.7-6.6 0-13.2-1.3-19.3-3.7-6.2-2.5-11.8-6-16.6-10.6-4.7-4.7-8.3-10.2-10.8-16.3-2.6-6.1-3.8-12.6-3.8-19.2 0-6.6 1.2-13.1 3.8-19.2 2.5-6.1 6.1-11.6 10.8-16.3 4.8-4.5 10.4-8.1 16.6-10.5 6.1-2.5 12.7-3.7 19.3-3.7 6.6 0 13.1 1.2 19.3 3.7 6.1 2.4 11.8 6 16.6 10.5 4.6 4.7 8.3 10.2 10.8 16.3 2.5 6.1 3.8 12.6 3.8 19.2 0 6.6-1.3 13.1-3.8 19.2-2.5 6.1-6.2 11.6-10.8 16.3zm-7.3-35.4q0-3-0.5-6-0.5-3-1.5-5.8-1.1-2.8-2.7-5.4-1.5-2.6-3.6-4.8c-2.5-2.9-5.7-5.1-9.2-6.7-3.5-1.6-7.3-2.4-11.1-2.4-3.8 0-7.6 0.8-11.1 2.4-3.5 1.6-6.6 3.8-9.2 6.7-2.6 3-4.7 6.5-6.1 10.2-1.4 3.8-2.1 7.8-2.1 11.8 0 4 0.7 7.9 2.1 11.7 1.4 3.7 3.5 7.2 6.1 10.2 2.6 2.8 5.7 5.1 9.2 6.7 3.5 1.5 7.3 2.3 11.1 2.3 3.8 0 7.6-0.8 11.1-2.3 3.5-1.6 6.7-3.9 9.2-6.7q2.1-2.2 3.6-4.8 1.6-2.5 2.7-5.3 1.1-2.9 1.6-5.8 0.5-3 0.4-6z"/>
			<path id="Path_8" fill-rule="evenodd" class="s0" d="m1066.9 151.2q0 23.2-18.3 30l24.3 34.4h-26.4l-21.3-30.7h-14.9v30.7h-21.5v-96.3h36.5q22.4 0 32 7.5 2.5 2.3 4.5 5.1 1.9 2.8 3.2 6 1.2 3.2 1.7 6.6 0.5 3.3 0.2 6.7zm-25.9 11.5q1.1-1.1 1.9-2.5 0.8-1.3 1.3-2.8 0.5-1.4 0.7-3 0.2-1.5 0.1-3.1 0.2-1.5 0-3-0.2-1.4-0.7-2.8-0.6-1.4-1.4-2.7-0.9-1.2-2-2.2-1.7-0.8-3.5-1.4-1.7-0.7-3.5-1-1.9-0.4-3.7-0.5-1.9-0.1-3.8 0h-16.1v28.6h15.7q2 0.2 3.9 0.1 2-0.2 3.9-0.6 1.9-0.5 3.7-1.3 1.9-0.7 3.5-1.8z"/>
			<path id="Path_9" class="s0" d="m1158.3 119.3v19.1h-47.9v19.9h43.1v18.3h-43.1v20h49.4v19h-70.9v-96.3z"/>
			<path id="Path_10" class="s0" d="m1182.9 119.1h13.8v84.5h52.1v12h-65.9z"/>
			<path id="Path_11" fill-rule="evenodd" class="s0" d="m1335 191.5h-51.2l-10.6 24.1h-14.2l43.7-96.5h13.6l43.7 96.5h-14.4zm-4.8-11l-20.8-47.3-20.8 47.3z"/>
			<path id="Path_12" class="s0" d="m1457.2 119.1v96.5h-11.3l-57.8-71.9v71.9h-13.8v-96.5h11.3l57.8 72v-72z"/>
			<path id="Path_13" fill-rule="evenodd" class="s0" d="m1486.1 119.1h40.6q3.5 0 7 0.3 3.5 0.4 7 1.1 3.4 0.8 6.7 2 3.3 1.1 6.5 2.7 2.8 1.4 5.4 3.2 2.6 1.8 5 4 2.3 2.1 4.3 4.6 2 2.5 3.6 5.2c2.2 3.8 3.8 7.9 4.9 12.2 1.1 4.2 1.7 8.6 1.7 13 0 4.3-0.6 8.7-1.7 13-1.1 4.2-2.7 8.3-4.9 12.1q-1.6 2.7-3.6 5.2-2 2.5-4.3 4.7-2.4 2.1-5 3.9-2.6 1.8-5.4 3.2-3.2 1.6-6.5 2.8-3.3 1.1-6.7 1.9-3.5 0.8-7 1.1-3.5 0.4-7 0.3h-40.6zm39.8 84.5q2.7 0.1 5.3-0.2 2.7-0.2 5.3-0.8 2.6-0.6 5.1-1.5 2.5-0.9 4.9-2 2.1-1.1 4.1-2.4 1.9-1.4 3.7-3 1.7-1.6 3.2-3.5 1.5-1.8 2.7-3.9c1.6-2.9 2.8-6 3.6-9.2 0.8-3.2 1.2-6.4 1.2-9.7 0-3.3-0.4-6.6-1.2-9.8-0.8-3.2-2-6.3-3.6-9.2q-1.2-2-2.7-3.9-1.5-1.8-3.2-3.5-1.8-1.6-3.7-2.9-2-1.4-4.1-2.4-2.4-1.2-4.9-2.1-2.5-0.9-5.1-1.4-2.6-0.6-5.3-0.9-2.6-0.2-5.3-0.2h-26v72.5z"/>
		</g>
		<g id="Group_5">
			<g id="Group_2">
				<path id="Path_14" class="s0" d="m131.4 0c-3.1 6.8-6.9 13.3-11.2 19.4-4.4 6.1-9.3 11.8-14.7 17-5.4 5.2-11.3 9.9-17.6 13.9-6.3 4.1-13 7.6-19.9 10.4l0.2 37.2 67.6 61.7 0.2-159.6z"/>
			</g>
			<g id="Group_3">
				<path id="Path_15" class="s0" d="m63.4 102.1c-3.1 6.8-6.9 13.4-11.2 19.5-4.4 6.1-9.3 11.8-14.7 16.9-5.4 5.2-11.3 9.9-17.6 14-6.3 4-13 7.5-19.9 10.3l0.2 130.2 67.5-24.7 0.4-166.2z"/>
			</g>
			<g id="Group_4">
				<path id="Path_16" class="s1" d="m199.3 101.6c-3.1 6.8-6.9 13.3-11.2 19.4-4.4 6.1-9.3 11.8-14.7 17-5.4 5.2-11.3 9.8-17.6 13.9-6.3 4.1-13 7.6-19.9 10.4l0.1 79.6 67.7-24.8 0.2-115.5z"/>
			</g>
		</g>
	</g>
</svg>