<svg version="1.2" xmlns="http://www.w3.org/2000/svg" viewBox="0 0 1109 1593" width="1109" height="1593">
	<title>singaporeland-svg</title>
	<style>
		.s0 { fill: #002361 } 
		.s1 { fill: #a07500 } 
	</style>
	<g id="Group_59">
		<g id="Group_5">
			<g id="Group_2">
				<path id="Path_14" class="s0" d="m714.4 0c-17 37.1-37.5 72.4-61.1 105.7-23.7 33.2-50.4 64.1-79.9 92.3-29.4 28.2-61.5 53.5-95.7 75.7-34.2 22.1-70.4 41-108.1 56.4l0.9 202.1 367.9 335.7 1.2-867.9z"/>
			</g>
			<g id="Group_3">
				<path id="Path_15" class="s0" d="m344.8 555.3c-17 37-37.5 72.4-61.1 105.6-23.7 33.2-50.4 64.1-79.9 92.3-29.4 28.2-61.4 53.6-95.6 75.7-34.2 22.2-70.5 41.1-108.2 56.4l0.9 707.7 367.1-134.4 2.1-903.4z"/>
			</g>
			<g id="Group_4">
				<path id="Path_16" class="s1" d="m1083.5 552.3c-17.1 37-37.5 72.4-61.2 105.6-23.6 33.2-50.4 64.1-79.8 92.3-29.5 28.2-61.5 53.6-95.7 75.7-34.2 22.2-70.4 41.1-108.2 56.4l0.9 432.7 367.9-134.6 1.2-628.1z"/>
			</g>
		</g>
	</g>
</svg>