<svg version="1.2" xmlns="http://www.w3.org/2000/svg" viewBox="0 0 1587 708" width="1587" height="708">
	<title>UrstadtBiddle-72-pdf-svg</title>
	<defs>
		<clipPath clipPathUnits="userSpaceOnUse" id="cp1">
			<path d="m-526-1863h6540v8391h-6540z"/>
		</clipPath>
		<clipPath clipPathUnits="userSpaceOnUse" id="cp2">
			<path d="m0.07 0.28h1583.5v706.71h-1583.5z"/>
		</clipPath>
	</defs>
	<style>
		.s0 { fill: #ffffff } 
		.s1 { fill: #ffffff;stroke: #ffffff;stroke-width: 6 } 
	</style>
	<g id="Clip-Path: Page 1" clip-path="url(#cp1)">
		<g id="Page 1">
			<path id="Path 4" fill-rule="evenodd" class="s0" d="m223.6 659h10.1v29q0 4 2.2 6.4 2.2 2.5 5.9 2.5 4.2 0 6.5-2.5 2.3-2.4 2.3-6.9v-28.5h10v30.6q0 4.1-2.1 8.4-2.1 4.4-6.4 6.7-4.4 2.3-9.8 2.3-9.7 0-14.2-5.4-4.5-5.5-4.5-11.4zm56.4 47.3h10.2v-18.3h1.2l12.3 18.3h11.7l-13.3-19.7q5.1-2.3 7-6.2 1.9-3.9 1.9-7.6 0-6.4-4.1-10.1-4.2-3.7-11.3-3.7h-15.6zm12.7-38.9q3.7 0 5.7 1.6 2.1 1.6 2.1 4.2 0 6.5-8 6.5h-2.2v-12.3zm53.5-9.1q-6.6 0-10.7 4-4.2 3.9-4.2 10.2 0 2.9 1.3 5.6 1.3 2.7 3.2 4.1 1.9 1.4 6.3 3.1 7.9 2.8 7.9 6.5 0 1.8-1.7 3.4-1.7 1.7-3.6 1.7-3.9 0-8.4-4.7l-6.7 7.8q7.2 7 14.5 7 6.7 0 11.6-4.5 5-4.6 5-10.6 0-3.4-1.6-6.2-1.7-2.9-4-4.5-2.4-1.6-7.1-3.5-6.3-2.6-6.3-6.1 0-1.8 1.2-3.1 1.2-1.2 2.9-1.2 2.2 0 7.3 2.9l6.3-6.9q-5.3-5-13.2-5zm28.2 10.7h10.8v37.3h10.2v-37.3h10.8v-10h-31.8zm40.6 37.4h10.2l3.7-9.3h18.2l3.8 9.3h10.3l-19.3-47.4h-7.9zm28.7-18h-11.3l5.6-13.9zm34.1 17.9h15.3q10.8 0 17.3-6.4 6.5-6.5 6.5-17.2 0-10.6-6.3-17.2-6.3-6.5-16.6-6.5h-16.2zm14.1-38.3q3.3 0 7 1.3 3.7 1.2 5.6 4.8 2 3.6 2 8.3 0 8-4.1 11.4-4 3.4-10.3 3.4h-4v-29.2zm39.4 1.1h10.8v37.3h10.2v-37.3h10.8v-10.1h-31.8zm77.5 37.2h15.9q8.1 0 12.5-3.6 4.5-3.7 4.5-10.2 0-3.7-2-7-2.1-3.3-7-5 2.6-2.2 3.7-4.3 1.2-2.1 1.2-5.2 0-4.8-3.2-8.4-3.1-3.6-11.8-3.6h-13.8zm12.6-39.3q2.6 0 4.3 1.3 1.7 1.4 1.7 3.3 0 2.4-1.7 4.1-1.8 1.6-4.3 1.6h-2.4v-10.3zm1.8 18.4q3.8 0 5.8 1.8 2.1 1.8 2.1 5.1 0 6.1-8.4 6.1h-3.7v-13zm34 21h10.2v-47.4h-10.2zm29.1-0.1h15.3q10.8 0 17.3-6.5 6.5-6.4 6.5-17.1 0-10.7-6.3-17.2-6.3-6.6-16.6-6.5h-16.2zm14.1-38.4q3.3 0 7 1.3 3.7 1.3 5.6 4.9 2 3.5 2 8.2 0 8-4.1 11.4-4 3.4-10.3 3.4h-4v-29.2zm42.4 38.4h15.3q10.8 0 17.3-6.4 6.5-6.5 6.5-17.2 0-10.7-6.3-17.2-6.3-6.5-16.6-6.5h-16.2zm14.1-38.4q3.3 0 7 1.3 3.7 1.3 5.6 4.9 2 3.6 2 8.2 0 8-4.1 11.5-4 3.4-10.3 3.4h-4v-29.3zm42.9 38.4h24.1v-10.2h-14v-37.1h-10.1zm41 0.1h26.6v-9.4h-16.4v-9.8h16.4v-9.2h-16.4v-9.6h16.4v-9.4h-26.6zm74.5-0.1h10.2v-18.3l5.9-0.2q2.8 0 6.7-1.8 4-1.8 6-5.5 1.9-3.7 1.9-7.7 0-6.2-4-10-4-3.8-10.5-3.8h-16.2zm12.3-39q3.8 0 5.8 1.6 2.1 1.6 2.1 4.5 0 2.5-1.8 4.4-1.9 1.8-4.4 1.8h-4v-12.1zm36.2 39.1h10.2v-18.3h1.2l12.2 18.3h11.8l-13.3-19.8q5.1-2.2 7-6.1 1.9-3.9 1.9-7.6 0-6.4-4.1-10.1-4.2-3.8-11.3-3.8h-15.6zm12.7-39q3.6 0 5.7 1.6 2.1 1.5 2.1 4.2 0 6.5-8 6.5h-2.2v-12.3zm42.3 32.6q6.7 6.9 17 6.9 10.4 0 17.2-6.9 6.8-6.9 6.8-17.3 0-10.5-6.9-17.4-6.9-6.8-17.4-6.8-9.5 0-16.4 6.8-7 6.8-7 17.3 0 10.6 6.7 17.4zm26.7-28q3.6 4 3.6 10.6 0 6.7-3.6 10.8-3.7 4.1-9.7 4.1-5.6 0-9.3-4.1-3.7-4.2-3.8-10.5 0-6.7 3.7-10.9 3.6-4.2 9.6-4.1 5.9 0.1 9.5 4.1zm32.7 34.3h10.1v-18.3l6-0.2q2.8 0 6.7-1.8 4-1.8 6-5.5 1.9-3.6 1.9-7.7 0-6.2-4-10-4-3.8-10.5-3.8h-16.2zm12.3-38.9q3.8 0 5.8 1.5 2.1 1.6 2.1 4.5 0 2.5-1.8 4.4-1.9 1.8-4.4 1.8h-4v-12.1zm36.4 38.9h26.7v-9.4h-16.5v-9.8h16.5v-9.2h-16.5v-9.6h16.5v-9.3h-26.7zm44.9 0h10.2v-18.3h1.1l12.3 18.3h11.7l-13.2-19.7q5-2.3 7-6.2 1.9-3.9 1.8-7.5 0-6.4-4.1-10.2-4.1-3.7-11.2-3.7h-15.6zm12.6-38.9q3.7 0 5.8 1.6 2.1 1.6 2.1 4.2 0 6.6-8 6.6h-2.3v-12.4zm36.2 1.7h10.8v37.2h10.2v-37.2h10.8v-10.1h-31.8zm47.8 37.2h10.2v-47.3h-10.2zm29.4 0h26.7v-9.3h-16.5v-9.9h16.5v-9.2h-16.5v-9.5h16.5v-9.4h-26.7zm58.4-47.9q-6.7 0-10.8 3.9-4.1 3.9-4.1 10.2 0 2.9 1.3 5.6 1.3 2.7 3.1 4.1 1.9 1.5 6.4 3.1 7.8 2.8 7.8 6.5 0 1.8-1.7 3.5-1.7 1.6-3.5 1.6-3.9 0-8.4-4.7l-6.8 7.9q7.2 6.9 14.6 6.9 6.7 0 11.6-4.5 4.9-4.5 4.9-10.6 0-3.3-1.6-6.2-1.6-2.8-4-4.4-2.3-1.6-7-3.6-6.3-2.6-6.3-6.1-0.1-1.7 1.2-3 1.2-1.3 2.9-1.3 2.2 0 7.2 3l6.4-7q-5.4-4.9-13.2-4.9zm60.2 47.9h10.2v-47.3h-10.2zm60.7-16.8l-21.7-30.5h-10.1v47.4h10.2v-30.7l21.6 30.7h10v-47.4h-10zm51.1-31.2q-9.7 0-16.5 7.1-6.8 7.2-6.8 17.4 0 10.1 6.6 17.1 6.7 7 16.3 7 5.5 0 13.8-2.7v-11.5q-7.4 4.3-12.7 4.3-6.1 0-9.8-3.8-3.6-3.8-3.6-10.1 0-6.8 3.5-10.7 3.4-4 9.2-4 5.8 0 13.4 4.6v-11.5q-7.1-3.2-13.4-3.2zm31.5 46.9q1.6 1.7 4 1.7 2.4 0 4.1-1.7 1.7-1.7 1.7-4.1 0-2.4-1.7-4.1-1.7-1.7-4.1-1.7-2.4 0-4 1.7-1.7 1.7-1.7 4.1 0 2.4 1.7 4.1zm-901.3-166.2c49.5 0 84.2-13.1 106.9-34.1 31.8-27.3 44.3-63.1 47.7-109.7 1.7-22.1 2.9-121.5 2.9-129.5 0-7.9 0-88.6 1.1-94.3 1.7-6.8 3.4-22.7 24.4-22.7h23.3c2.9 0 3.5-2.3 3.5-5.7v-12.5c0-1.7-0.6-4-5.7-4-5.1 0-23.3 1.7-62.5 1.7-38.1 0-64.3-1.7-69.9-1.7-3.5 0-4 1.1-4 4v13.6c0 2.9 0.5 4.6 4 4.6h25c14.7 0 23.8 10.2 25.5 25 1.7 14.2 2.9 47.1 2.9 90.3v121.6c0 42-7.4 76.1-29.6 100-19.9 20.4-52.8 31.2-85.2 31.2-33 0-69.4-10.2-90.4-40.9-13.1-19.3-17.6-46-18.2-72.1-0.6-18.2-2.8-90.4-2.8-120.5v-37.5c0-29 0.5-68.7 1.1-73.8 1.1-12.5 10.8-23.3 27.3-23.3h28.4c4 0 4.6-1.2 4.6-4v-14.8c0-2.3-0.6-3.4-5.2-3.4-6.2 0-33.5 1.7-77.8 1.7-44.4 0-72.2-1.7-77.9-1.7-4.5 0-5.1 1.1-5.1 4.6v12.4c0 4 0.6 5.2 4 5.2h26.7c17.6 0 21.6 9.1 21.6 28.9v135.3c0 74.4 2.3 112.4 9.1 138 9.1 35.8 29 60.8 67.6 76.2 18.8 7.9 47.2 11.9 76.7 11.9z"/>
			<path id="Path 5" fill-rule="evenodd" class="s0" d="m922.5 283.4c0-21.1-1.1-90.4-1.7-100.6-1.7-33-10.8-34.1-36.9-34.1h-17.6c-3.5 0-4.6-1.1-4.6-4v-14.2c0-2.8 1.1-3.9 4.6-3.9 9.1 0 34.6 1.7 75.6 1.7 18.1 0 52.2-1.7 72.1-1.7 44.4 0 80.7 3.9 100.6 15.3 32.4 17.6 43.8 43.7 43.8 77.3 0 56.2-25 70.4-69.3 93.7l1.7 1.1c55.1 18.2 92 52.3 92 112.5 0 29-17.6 68.8-43.7 85.3-23.9 14.7-56.3 20.4-108.6 20.4-39.2 0-61.4-1.7-85.2-1.7-28.5 0-62 1.7-72.8 1.7-6.8 0-7.9-1.1-7.9-3.4v-14.8c0-2.8 1.1-4 5.1-4h27.3c17.6 0 20.4-6.8 22.7-24.9 1.7-13.1 2.8-88.1 2.8-134.7zm50 22.2c10.8 1.1 20.5 1.1 30.2 1.1 32.4 0 57.9-5.1 71.6-14.8 23.3-17.6 31.8-43.2 31.8-68.1 0-21.6-6.8-44.4-27.8-59.7-20.5-14.2-48.9-19.3-77.9-19.3-8 0-14.2-0.6-18.8 0.5-4.5 1.2-7.9 5.2-7.9 10.3-0.6 11.3-1.2 60.8-1.2 107.9zm0 133c0 52.2 12.5 75.5 59.7 75.5 47.8 0 91.5-22.7 91.5-90.3 0-46-23.3-76.1-56.8-89.2-23.3-9.1-50-9.7-76.2-9.7h-18.2zm363.2-58.5c0 26.7 0.6 104 1.2 111.9 1.1 12.5 6.8 18.2 18.7 18.2h36.4c4 0 4.5 1.7 4.5 4v13.6c0 2.9-0.5 4.6-5.1 4.6-7.9 0-25.6-1.7-79-1.7-50 0-72.2 1.7-78.4 1.7-4 0-4.6-1.7-4.6-4v-14.2c0-2.8 0.6-4 3.4-4h24.5c19.3 0 23.3-2.8 25-18.2 0.6-5.6 2.3-94.3 2.3-160.2v-65.3c0-37.5-0.6-99.4-1.2-105.1-1.1-11.4-6.8-12.5-22.1-12.5h-32.4c-2.9 0-3.4-1.2-3.4-4.6v-13.6c0-2.8 0.5-4 3.4-4 6.2 0 26.7 1.7 80.7 1.7 10.2 0 43.7-1.7 62.5-1.7 64.2 0 94.3 6.3 126.7 28.4 26.8 18.2 43.2 50 43.2 82.4 0 71.6-54 115.9-144.3 115.9-21.1 0-43.8-0.5-62-2.8zm0-50c11.4 3.4 30.1 5.1 52.3 5.1 34.7 0 65.4-18.8 80.1-38.6 12.5-16.5 14.8-37.5 14.8-57.4 0-74.4-69.3-94.3-102.8-94.3-9.7 0-33 0-44.4 3.9z"/>
			<path id="Path 6" class="s0" d="m123.6 345.9c3.9-4 6.3-6.5 10.6-10.8h-35.5q-0.5-1.6-0.9-3.1c24.2-16.6 48.5-33.3 74.3-51-20-9.1-40.5-1.6-58.9-8.8q-0.4-1.2-0.8-2.5c21.2-11.6 42.4-23.2 65-35.6-5.3-1.8-8.9-3-12.5-4.2q-0.2-1.6-0.3-3.1c16.6-5.5 33.2-10.9 52.1-17-3.9-3.7-7-6.1-9.4-9.1-1.3-1.7-1.4-4.5-2.3-6.7-0.6-1.5-1.4-3.1-2.6-4-2.7-2.4-5.7-4.4-10-7.6 19.3-8.7 37.2-16.8 55.9-25.2-9.3-14.5-18.3-28.5-27.9-43.5 4.8-2.4 8.3-4.3 11.9-6 14.7-7 29.4-13.7 43.9-21.1 2.8-1.4 4.6-5.2 6.9-7.9-2.3-2-4.3-4.6-6.8-5.9-6.5-3.5-13.3-6.4-22.2-10.6 24.4-15.4 38.6-39.7 54.6-61.9q1.6 1 3.1 2.1c-0.4 5.1-0.4 10.2-1.3 15.2-1.2 6.6-2.9 13-4.7 19.4-2.1 7.2-2.7 14 0.9 21.1 1 2 0.3 7.3-1.2 8.4-7.3 4.9-5.3 12.1-4.3 18.8 1 7.3 5.4 11.6 12 13.3q8.5 2.1 16.9 4.6c5.9 1.8 7.4 4.8 3 10.7-8.3 10.9-16.2 22.2-24.3 33.4-6.8 9.3-6.9 10 1.1 18.6 10.7 11.5 21.6 22.8 32.5 34.1 1.5 1.5 3.4 2.5 5.2 3.7q-0.6 1-1.2 2.1-24.7 4.1-49.4 8.3-0.3 0.8-0.6 1.7c11.1 6 22.1 12.1 35.1 19.1-13.7 6.4-25.8 12.1-38 17.7q0 0.9 0 1.8 20.5 6.4 41 12.7 0 1.2 0 2.4c-16.4 3.3-32.7 6.7-50.8 10.3 27.6 24.1 59.6 34.5 90.7 47q-0.2 1.4-0.3 2.9c-16.8 3.6-33.6 7.1-52 11 23.3 13.1 48.3 12.2 71.2 19.6q0.1 1.2 0.1 2.3c-34.8 13.6-69.7 27.1-106.2 41.3 18.1 6.7 34.5 12.7 50.8 18.8q0.1 1.1 0.2 2.3-20.8 6-41.6 12-0.2 0.7-0.3 1.4 33.6 12.3 67.1 24.6 0 1.4-0.1 2.7c-13.7 4.2-27.4 8.4-41.8 12.8 13 12.2 25.6 23.9 38.5 35.9-20.2 6.6-41.5 13.6-64.4 21.2 27.2 18.9 53 36.9 78.8 54.9q-0.1 1.3-0.1 2.7c-41.3 1.6-82.9-0.4-123.3 11.1-39.9 11.3-79.6 23.4-119.9 35.3 10.5-11.2 20.4-21.8 30.2-32.5q-1.1-1.7-2.3-3.5c-6.6 2.3-13.3 4.3-19.7 6.9-43 18.1-86 36.4-129.1 54.5-2.8 1.1-5.8 1.5-8.8 2.2q-0.6-1.5-1.3-2.9 41.5-44.4 83.1-88.7-0.3-1-0.6-1.9-32.6 3.3-65.1 6.7-0.6-1-1.2-2 70.4-58.6 140.7-117.1-0.1-1.1-0.2-2.1c-10 1.5-20.1 2.5-30 4.5-17.9 3.6-35.7 7.9-53.7 11.7-3.6 0.7-7.5 0.1-11.6-1 27.1-25.9 57.1-46.3 88.3-64.7q-0.3-1.6-0.5-3.2h-55.1q-0.4-1.9-0.7-3.8c5.2-2.7 10.4-5.5 15.6-8 23.2-11.1 47.3-20.5 68-37.1 2.1-1.7 3.4-4.7 5.1-7.2-2.5-0.7-5-2-7.5-2.1-14.7-0.7-29.4-1.1-44.1-1.6-1.6-0.1-3.3-0.4-7-0.8z"/>
			<g id="Clip-Path: Mask" clip-path="url(#cp2)">
				<g id="Mask">
					<path id="Path 7" class="s1" d="m351.3 591.8h1232.3"/>
				</g>
			</g>
		</g>
	</g>
</svg>