<svg version="1.2" xmlns="http://www.w3.org/2000/svg" viewBox="0 0 1499 1515" width="1499" height="1515">
	<title>Unity_Biotechnology_logo-svg</title>
	<style>
		.s0 { fill: #ffffff } 
	</style>
	<path id="Layer" class="s0" d="m1451.3 1220.8c-31.4 60.9-78.5 112.6-140.4 156.9-61.8 43.4-140.3 77.5-233.6 100.6-93.3 24-203.1 36-326.9 36q-187 0-326.9-36c-93.2-24-171.7-57.2-234.5-100.6-62.8-43.4-109.9-96-141.3-156.9q-47.1-91.3-47.1-202.1v-1017.9h134.8v1028.1c0 49.8 13 96.9 39.7 141.2 25.9 44.3 65.6 83 117.3 116.3 51.7 33.2 116.4 59 192.1 78.4 76.6 19.4 165.3 29.5 265.9 29.5 99.7 0 188.4-10.1 265-29.5 76.7-19.4 140.4-46.1 192.1-78.4 51.7-33.3 90.5-72 117.3-116.3 25.8-44.3 39.7-91.4 39.7-141.2v-1028.1h133.9v1017c0 74.7-15.7 142.1-47.1 203z"/>
</svg>