<svg version="1.2" xmlns="http://www.w3.org/2000/svg" viewBox="0 0 1219 1578" width="1219" height="1578">
	<title>UCBI_BIG copy</title>
	<style>
		.s0 { fill: #ffffff } 
	</style>
	<path id="Path 4" fill-rule="evenodd" class="s0" d="m0.1 0.7h1218.1v1576.9h-1218.1zm132.5 167.5h32.9q48.8 0 71.3 24.5 22.5 26.7 22.5 106.3v346.6q0 161.2 20.4 218.3 32.5 85.8 107.9 136.7 73.8 49.1 220.5 49.1 132.5 0 210-51.2 77.5-52.9 104.2-126.2 26.7-73.8 26.7-206.3v-361.2q0-73.3 14.1-93.7 28.8-42.9 79.6-42.9h32.5v-24.6h-310v24.6h32.5q51.2 0 75.8 28.7 18.4 20.4 18.4 102.1v359.1q0 142.5-24.6 201.7-26.7 59.1-95.9 96.2-67.5 38.7-155 38.7-69.6 0-116.2-24.5-47.1-24.6-71.7-61.3-24.6-36.6-34.6-104.1-10.4-67.1-10.4-118.4v-387.4q0-73.8 16.6-96.3 24.2-34.5 77.5-34.5h32.6v-24.6h-377.6zm-81.7 1354.8h1110.2v-354.9h-1110.2zm75.9-263.3q-2.1-1.7-6.3-3.8v-4.1h47.1v4.1q-4.2 2.1-6.2 3.8-2.1 2.1-2.1 6.2v97.9q0 16.3 2.1 24.6 2 8.3 4.1 14.2 12.1 14.6 36.7 14.6 24.2 0 34.6-14.6 4.1-5.9 4.1-14.2 2.1-8.3 2.1-24.6v-97.9q0-4.1-2.1-6.2-2-1.7-4.1-3.8v-4.1h42.9v4.1q-4.2 2.1-6.2 3.8-2.1 2.1-2.1 6.2v110.4q0 30.4-7.9 46.7-14.6 26.7-63.4 26.7-34.6 0-52.9-14.2-10.4-8.3-14.6-24.6-4.2-14.2-4.2-34.6v-110.4q0-4.1-1.6-6.2zm230.4 187.9h-42.9v-6.3q2.1 0 4.2-2.1 2-3.7 2-7.9v-165.4q0-4.1-2-6.2-2.1-1.7-4.2-3.8v-4.1h49.2v4.1q-4.2 2.1-4.2 7.9 0 2.1 2.1 6.3l79.6 112.1c0-2.5 0-120.9 0-122.5q-2.1-1.7-6.3-3.8v-4.1h42.9v4.1q-4.1 2.1-6.2 3.8 0 2.1 0 6.2c0 2.9 0 170.8 0 173.3q2.1 2.1 6.2 2.1v6.3h-45v-6.3q4.2 0 4.2-5.8 0-2.1-6.2-10.4l-81.7-112.1v118.3q0 4.2 2.1 7.9 2 2.1 6.2 2.1zm203.8 0h-46.7v-3.7q4.2-2.1 6.3-4.2 1.6-2.1 1.6-6.2v-165.4q0-3.8-1.6-5.9-2.1-2.1-6.3-4.1v-4.2h46.7v4.2q-3.8 2-5.8 4.1-2.1 2.1-2.1 5.9v165.4q0 4.1 2.1 6.2 2 4.2 5.8 4.2zm28.7-153.3h-4.1v-50.9h4.1q0 5.9 2.1 7.9 2.1 2.1 6.3 2.1h122.1q2.1 0 4.1-2.1 2.1-2 4.2-7.9h2.1v50.9h-2.1q-2.1-6.3-4.2-8-2-2-4.1-2h-46.7v148.7q0 4.2 2.1 6.2 2.1 2.1 5.8 4.2v4.2h-44.6v-4.2q2.1-2.1 3.8-4.2 2.1-2 2.1-6.2v-148.7h-44.6q-4.2 0-6.3 2-2.1 1.7-2.1 8zm298 153.3h-130.8v-4.2q4.1-2.1 4.1-4.2 2.1-2 2.1-6.2v-165q0-4.2-2.1-6.2 0-2.1-4.1-4.2v-4.2h128.7q4.2 0 4.2-2.1 2.1-2 4.2-7.9h1.6v50.9h-1.6q-2.1-6.3-4.2-8 0-2-4.2-2h-89.6v46.6h58.8q2.1 0 4.2-2.1 2-1.6 2-5.8h4.2v48.7h-4.2q0-5.8-2-7.9-2.1-2.1-4.2-2.1h-58.8v53h91.7q4.2 0 6.3-2.1 1.6-2.1 1.6-5.9h4.2v50.9h-4.2q0-6.3-1.6-8.4-2.1-1.6-6.3-1.6z"/>
	<path id="Path 5" fill-rule="evenodd" class="s0" d="m1014 1444.3h-81.7v-3.8q4.2-2.1 6.2-4.2 0-2 0-6.2c0-2.5 0-170.8 0-173.3q-2-2.1-6.2-2.1v-6.2h81.7q26.2 0 40.8 8.3 20.4 12.1 30.4 40.8 6.3 20.4 6.3 48.8 0 51.2-22.5 77.4-10 10.5-22.5 16.7-12.1 3.8-32.5 3.8zm-4.2-32.5q20.4 0 28.8-6.3 20.4-16.2 20.4-59.1 0-30.5-10.4-46.7-6.3-10.4-14.2-14.6-8.3-3.7-24.6-3.7h-38.8v130.4z"/>
</svg>