<svg version="1.2" xmlns="http://www.w3.org/2000/svg" viewBox="0 0 1515 493" width="1515" height="493">
	<title>UHS_new_blue-svg</title>
	<style>
		.s0 { fill: #ffffff } 
	</style>
	<g id="#134063ff">
		<path id="Layer" class="s0" d="m1092.2 4.1c5.9-3.8 13.7-4.3 19.8-0.6 1.2 4.5 3.2 9.4 7.9 11 10.2 3.9 21.3 3.3 32 3.9 93.5 0 187 0 280.5 0 14.5-0.1 29.2 0.6 43.6-1.6 6.3-1 13.1-3.5 16.4-9.3 1.4-1.8 2-4.6 4.4-5.3 6.1-2.3 13.2-0.9 18 3.6-3.5 12.3-5.3 25.1-6.8 37.7-2.9 25.8-4.5 51.7-4 77.7-0.3 2.5 1.2 5.8-1.4 7.5-4.7 3.7-11.1 4.1-16.8 3.8-3.3-0.4-7.8-1.2-8.4-5.1-3.8-14-7.5-28.2-13.7-41.3-5.3-11.1-13.2-21.2-24.1-27.1-12.8-7-27.8-8.2-42-7.9-13.4 0.1-26.7 0-40 0.1-4.5 0.3-10.2 0.4-12.7 4.8-2.3 4.6-1.9 10.1-2.2 15.1 0 77.7 0 155.5 0 233.2 0.2 34.3-0.4 68.7 0.5 102.9 0.7 11.5 0.8 23.6 5.9 34.1 3.3 7.3 11.1 10.9 18.6 12.5 13 2.9 26.4 3.8 39.6 5.7 4.2 7.4 4.1 17.1-0.1 24.6-77.5-2.6-155.1-2.5-232.7 0-4.4-5.9-4.9-14.1-2.3-20.9 0.7-1.6 1.6-3.7 3.6-3.9 14.9-2.2 30.1-2.3 44.6-6.3 8-1.9 14.9-7.6 17.3-15.5 5.2-16.8 3.9-34.7 4.6-52.1 0.1-105.2 0-210.4 0-315.5-0.2-4.7 0.2-9.7-1.7-14.1-2.5-4.3-8.1-4.4-12.6-4.6-14.9-0.1-29.9 0-44.9-0.1-13.4 0-27.3 1.8-39.3 8.1-12.6 6.4-22 17.6-29 29.6-7.9 13.3-13.7 27.7-19.6 42-9 3.7-21.3 2.7-26.4-6.7 12.5-38.9 17-79.7 23.4-120zm-1087 12.1c67.7 2.5 135.4 2.7 203.1 0 1.7 0 3.7-0.2 4.5 1.7 3.9 6.8 3.3 15.8-1.1 22.2-12.4 2.3-25.4 3.2-37 8.7-7.5 3.4-11.6 11.3-13.2 19.1-3.3 15.8-2.6 32.1-3.2 48.2q0 83.5 0 167.1c0.5 34 1.4 68.8 12.4 101.3 6.7 20 18.5 38.9 36 51.2 20.9 14.7 47.5 19 72.6 18.2 21.3-0.7 42.8-6.7 59.8-19.7 16-12.1 27.4-29.3 34.9-47.6 14.1-34.7 16.8-72.6 17.2-109.6-0.1-35.8 0.2-71.6-0.4-107.4-0.5-27.4-1.3-54.8-5.1-82-1.4-8.2-2.6-16.6-6.5-24.1-4.6-8.5-13.7-13.4-22.8-16-11.7-3.4-24-5-36-7.4-4.5-7.1-4-16.6 0-23.9 42.7 1.4 85.5 2.6 128.3 1.6 15.3-0.2 30.5-1.2 45.7-1.5 3.8 7.4 4.5 16.8-0.3 23.8-14 3.5-29.3 5.1-41.4 13.7-10.2 7.5-12.5 20.8-14.4 32.4-5.1 35.1-5.1 70.6-5.7 105.9 0 32.5 0 64.9 0 97.3-0.8 34.6-3.4 69.6-15.1 102.4-8.7 24.1-22.6 46.8-42.9 62.8-21 16.9-46.6 27.2-72.8 32.9-29.4 6.4-59.7 6.3-89.5 3.9-36.3-3.2-73.1-13.8-101.7-37.1-15.9-12.8-27.7-30.2-35.5-49-12.6-30.8-16.1-64.3-17.1-97.1-0.1-64.5 0-129 0-193.5-0.7-16.1 0.2-32.5-3.6-48.4-1.7-7.3-6.1-14.4-13.2-17.5-11.8-5.1-25-5.3-37.2-9.1-5.6-6.5-5-17.6 1.2-23.5zm526.4 0.2c17.2-0.1 34.5 1.1 51.8 1.3 49 0.8 98.1 0.7 147.1-1.5 2-0.1 4.6-0.4 5.7 1.9 3 5.5 3.1 12.4 1.1 18.3-0.7 1.9-1.7 4.5-4.1 4.6-11.8 2-24.3 2.7-34.6 9.2-8.7 5.8-10.6 16.9-11.9 26.5-2 20.9-1.5 42-1.6 63 0 21.7-0.1 43.3 0 65 0.4 4.6-0.2 9.9 3.1 13.6 4.1 3.4 9.9 3.2 14.9 3.5 30.4 0.6 60.7 0.1 91.1 0.3 26.6-0.2 53.2 0.3 79.8-0.4 4.6-0.3 9.9-0.3 13.4-3.6 3.1-4.2 2.4-9.8 2.7-14.7-0.1-36.5 0.4-73-0.4-109.5-0.5-10.6-0.7-21.5-4.2-31.7-2-6.1-6.6-11.3-12.6-13.7-11.9-4.9-25-5.2-37.5-7.7-3.9-2.5-4.1-8-4.5-12.2 0.2-4.2 0.6-9.5 4.3-12.3 17.5 0.1 35.1 1.1 52.6 1.3 51.3 1 102.5 0.8 153.8-1.5 4.3 5.9 4.8 14 2.3 20.8-0.8 1.8-1.9 4-4.1 4.1-12 2.2-24.9 2.9-35.5 9.5-10.3 7-11.5 20.6-12.6 31.9-1.9 29.5-1 59.1-1.2 88.6q0 98.5 0 196.9c0.1 17.5-0.1 34.9 1.4 52.3 1.1 10.8 2.9 24 13.3 29.9 12 6.5 26.1 6.3 39 9.6 5.8 6.6 5 17.3 0.3 24.4-59.4-2.3-118.8-2.7-178.2-0.9-9.4 0-18.8 1.1-28.1 0.6-5.3-6.8-4.7-17.3-0.1-24.4 12.3-1.8 25.2-2.6 36.6-8.2 7-3.5 10.8-11.1 12.3-18.5 3.3-15.5 2.6-31.4 3.2-47.2q0-53.7 0-107.3c-0.3-4.5 0.1-9.2-1.6-13.4-2-4-6.9-4.7-10.9-5.1-15.4-0.8-30.8-0.4-46.2-0.5q-54.8 0-109.7 0-11.9-0.1-23.8 0.5c-4.2 0.3-9.5 1.2-11.4 5.6-1.6 4.1-1.3 8.6-1.5 12.9-0.1 35.3 0 70.7 0 106 0.5 15.3-0.1 30.8 2.7 46 1.3 6.9 3.9 14.1 9.6 18.5 13.7 9.1 31 7.7 46.4 11 5.7 6.6 4.9 17.3 0.4 24.4-68.5-2.4-137.1-2.9-205.6-0.2-2.4 0.1-4.7 0.3-7.1-0.1-4.9-6.1-4.8-15.3-1.5-22.1 1-2.8 4.3-2.6 6.7-3 11.1-1.2 22.5-2.5 32.5-7.7 7-3.7 10.7-11.2 12.3-18.7 3.4-15.8 2.6-32 3.2-48.1q0-102.9 0-205.8c-0.1-28.7 0.4-57.4-0.5-86.1-0.6-10.4-1-21.1-4.7-31-2-5.4-6-10-11.1-12.5-11.5-5.7-24.5-6-36.8-8.2-3.1-3.1-3.7-7.8-3.9-11.9 0.1-4.3 0.7-9.1 3.9-12.3z"/>
	</g>
</svg>