<svg version="1.2" xmlns="http://www.w3.org/2000/svg" viewBox="0 0 1527 1364" width="1527" height="1364">
	<title>Unisys_logo_2022-svg</title>
	<style>
		.s0 { fill: #00e58e } 
	</style>
	<g id="Layer">
		<path id="Layer" class="s0" d="m602.7 777.5v-776.9h-602.7v693.7c0 488.7 235.5 683 567.9 668.4 210.8-9.3 327.9-123.2 356.3-211.9-211.4 0-321.6-125.9-321.5-373.3zm553.6-776.9c-30.4 0-60.6 6-88.8 17.7-28.1 11.7-53.7 28.8-75.3 50.3-21.5 21.6-38.6 47.1-50.3 75.3-11.6 28.1-17.6 58.3-17.6 88.8v918.1h27.1c317.9 0 575.6-257.6 575.6-575.4v-574.8z"/>
	</g>
</svg>