<svg version="1.2" xmlns="http://www.w3.org/2000/svg" viewBox="0 0 1494 953" width="1494" height="953">
	<title>AMEX_UMH_2021-23-pdf-svg</title>
	<defs>
		<clipPath clipPathUnits="userSpaceOnUse" id="cp1">
			<path d="m-7251.21-9501.12h15996.42v20699.03h-15996.42z"/>
		</clipPath>
	</defs>
	<style>
		.s0 { fill: #000000 } 
	</style>
	<g id="Clip-Path: Page 1" clip-path="url(#cp1)">
		<g id="Page 1">
			<path id="Path 4" fill-rule="evenodd" class="s0" d="m1493.2 351.8h-100.6l-547.6-282.2-616.8 282.2h125.4v590.7h-175.1v-543.6l-177.7-2.6 848.1-396zm-814.2 108.5q-5.2 0-14.3 2.6-7.9 2.6-14.4 7.8-6.5 6.6-9.2 20.9-2.6 14.4-2.6 43.2v118.9q0 52.2-26.1 83.6-24.8 31.4-68 31.4-49.6 0-77.1-30.1-27.4-31.4-27.4-86.2v-162.1q0-7.8-2.6-13-1.3-6.6-7.9-10.5-3.9-2.6-10.4-5.2-6.6-1.3-10.5-2.6v-17h122.9v17q-5.3 1.3-11.8 2.6-5.2 1.3-10.5 2.6-6.5 3.9-7.8 9.1-2.6 6.6-2.6 14.4v160.7q0 47.1 15.7 69.3 14.3 20.9 44.4 20.9 27.5 0 44.4-23.5 15.7-23.5 15.7-70.6v-107.1q0-28.8-2.6-43.2-2.6-14.3-9.1-20.9-4-3.9-14.4-9.1-10.5-3.9-14.4-3.9v-18.3h100.6zm332 300.5h-126.8v-17q6.6 0 14.4-2.6 7.8-1.3 10.5-2.6 6.5-3.9 9.1-9.1 2.6-6.6 2.6-15.7v-237.8l-79.7 279.6h-20.9q-1.3-6.5-7.9-28.7-5.2-22.3-9.1-35.3l-58.8-218.3v193.4q0 27.5 2.6 41.9 2.6 14.3 9.1 20.9 4 5.2 14.4 9.1 10.5 5.2 14.4 5.2v17h-99.3v-17q3.9 0 13-2.6 9.2-2.6 15.7-9.1 6.6-5.2 7.9-20.9 2.6-14.4 2.6-41.8v-158.2q0-14.3-2.6-23.5-2.6-9.1-7.9-15.7-6.5-6.5-13-9.1-6.6-1.3-14.4-2.6v-17h107.1l57.6 210.4 48.3-171.2q2.6-9.2 5.2-22.2 2.6-13.1 2.6-17h103.3v17q-5.2 1.3-11.8 2.6-5.2 1.3-10.4 2.6-6.6 3.9-7.9 9.1-2.6 6.6-2.6 14.4v226.1q0 7.8 2.6 13.1 1.3 5.2 7.9 9.1 3.9 2.6 10.4 3.9 7.9 2.6 11.8 2.6zm308.4 0h-125.4v-16.9q3.9-1.4 11.7-1.4 7.9-1.3 10.5-2.6 6.5-3.9 9.1-9.1 1.3-5.2 1.3-14.4v-109.8h-99.3v107.2q0 7.8 2.6 14.4 2.6 5.2 7.9 9.1 3.9 1.3 10.4 3.9 7.9 1.3 13.1 2.7v16.9h-126.8v-16.9q5.2-1.4 13.1-1.4 7.8-1.3 11.7-3.9 5.3-2.6 7.9-9.1 2.6-5.2 2.6-13.1v-226.1q0-7.8-2.6-13-2.6-5.3-7.9-9.2-5.2-2.6-13-5.2-7.9-2.6-11.8-2.6v-17h126.8v17q-5.2 0-11.8 2.6-7.8 1.3-11.7 2.6-6.6 2.6-7.9 9.2-2.6 6.5-2.6 14.3v94.1h99.3v-92.8q0-7.8-1.3-13-2.6-5.3-9.1-9.2-3.9-2.6-11.8-5.2-6.5-2.6-10.4-2.6v-17h125.4v17q-5.2 0-11.7 1.3-6.6 1.3-11.8 3.9-6.5 2.6-7.8 9.2-2.7 6.5-2.7 14.3v224.8q0 7.8 2.7 14.4 1.3 5.2 7.8 9.1 3.9 2.6 11.8 3.9 6.5 1.3 11.7 2.7zm-897.8 47h28.7c17 0 32.7 9.1 32.7 45.7 0 37.9-17 47.1-32.7 47.1h-6.5v41.8h-22.2zm28.7 65.3c9.2 0 11.8-6.5 11.8-19.6 0-11.7-2.6-18.3-11.8-18.3h-6.5v37.9zm43.1-65.3h28.8c19.6 0 32.7 11.8 32.7 44.4 0 17-5.3 30.1-13.1 35.3l15.7 54.9h-23.6l-14.3-45.7h-4v45.7h-22.2zm28.8 62.7c7.8 0 10.4-5.2 10.4-18.3 0-13.1-2.6-17-10.4-17h-6.6v35.3zm41.9 3.9c0-49.6 17-69.2 36.6-69.2 20.9 0 37.9 19.6 37.9 69.2 0 49.7-17 69.3-37.9 69.3-19.6 0-36.6-19.6-36.6-69.3zm52.2 0.7c0-22.8-6.7-41.2-15-41.2-8.3 0-15 18.4-15 41.2 0 22.7 6.7 41.1 15 41.1 8.3 0 15-18.4 15-41.1zm32.7-67.3h27.5c16.9 0 33.9 9.1 33.9 45.7 0 37.9-18.3 45.8-33.9 45.8h-5.3v41.8h-22.2zm28.8 66.6c7.8 0 10.4-6.5 10.4-19.6 0-13-2.6-18.3-10.4-18.3h-6.6v37.9zm41.9-66.6h54.8v28.7h-31.3v23.5h22.2v26.2h-22.2v28.7h32.6v27.5h-56.1zm66.6 0h28.8c19.6 0 32.6 11.7 32.6 44.4 0 17-5.2 28.8-14.3 35.3l16.9 53.6h-23.5l-14.4-44.5h-3.9v44.5h-22.2zm28.8 64c7.8 0 10.4-5.2 10.4-18.3 0-13.1-2.6-17-10.4-17h-6.6v35.3zm60.1-35.3h-20.9v-28.7h64.1v28.7h-20.9v105.9h-22.3zm52.3-28.8h22.2v134.6h-22.2zm36.6 0h54.9v28.8h-32.7v22.2h23.5v27.4h-23.5v28.8h34v27.4h-56.2zm61.4 103.2l18.3-13c3.9 9.1 10.5 19.6 18.3 19.6 6.6 0 9.2-5.3 9.2-11.8 0-9.1-6.6-13.1-14.4-18.3-11.8-6.5-27.4-15.7-27.4-43.1 0-23.5 13-39.2 31.3-39.2 15.7 0 26.2 11.7 31.4 30l-17 14.4c-3.9-10.4-9.2-17-15.7-17-5.2 0-7.8 3.9-7.8 9.2 0 9.1 5.2 13 13 18.3 13.1 6.5 28.8 15.7 28.8 44.4 0 19.6-10.5 39.2-31.4 39.2-19.6 0-30-13.1-36.6-32.7zm79.8 30.1h-5.3v-18.3h13.1v17l-5.2 13h-6.6zm37.9-133.2h23.6v133.2h-23.6zm36.6 0h23.5l17 49.7c2.7 7.8 4 11.8 6.6 22.2v-71.9h20.9v134.6h-20.9l-19.6-54.8c-2.6-5.3-4-9.2-6.6-17v71.8h-20.9zm78.4 66.7c0-49.7 15.7-69.3 36.6-69.3 20.9 0 30.1 18.3 32.7 48.4l-22.2 5.2c-1.3-17-3.9-24.8-11.8-24.8-9.1 0-13 13-13 40.5 0 27.4 3.9 41.8 14.3 41.8 6.6 0 9.2-6.5 11.8-26.1l20.9 5.2c-2.6 27.4-11.8 48.3-32.7 48.3-22.2 0-36.6-19.6-36.6-69.2z"/>
		</g>
	</g>
</svg>