<svg version="1.2" xmlns="http://www.w3.org/2000/svg" viewBox="0 0 1505 1302" width="1505" height="1302">
	<title>Uniper-Logo-svg</title>
	<style>
		.s0 { fill: #0078dc } 
	</style>
	<g id="layer1">
		<g id="g10">
			<g id="g12">
				<path id="path14" fill-rule="evenodd" class="s0" d="m661.5 307.3h-61.5v334.9h-140.9v-457.8h213.2c135.5 0 198.7 61.5 198.7 195.1v262.7h-140.9v-262.7c0-56.9-23.5-72.2-68.6-72.2zm397.4 334.9h-140.9v-457.8h140.9zm-646.8 0h-213.2c-135.5 0-198.7-60.3-198.7-194v-263.7h140.9v263.7c0 56.9 23.5 72.3 68.7 72.3h61.4v-336h140.9zm646.8-511.9h-140.9v-130.1h140.9zm-400.7 785.3c0 153.5-84 228.9-237.6 228.9h-55.1v156.6h-140.8v-614.4h195.9c153.6 0 237.6 75.4 237.6 228.9zm-144.5 0c0-79.9-36.1-105.3-101.2-105.3h-47v210.7h47c65.1 0 101.2-25.5 101.2-105.4zm625.4-4.9c0 7.2 0 44.3-1.8 57.8h-300.9c11.8 48.8 45.2 65.1 96.7 65.1 38.9 0 71.4-15.4 93.1-36.2l82.2 83.1c-42.4 45.1-113 72.3-182.5 72.3-161.7 0-238.5-93.1-238.5-238.5 0-138.2 72.3-238.4 227.6-238.4 161.7 0 224.1 104.8 224.1 234.8zm-142.7-39.7c-6.4-51.5-28.1-79.5-81.4-79.5-51.4 0-74.9 26.2-81.3 79.5zm508.2-184.3v122.9h-119.7c-45.2 0-68.7 15.3-68.7 72.2v262.7h-140.9v-262.7c0-133.7 63.2-195.1 198.7-195.1z"/>
			</g>
		</g>
	</g>
</svg>