<svg version="1.2" xmlns="http://www.w3.org/2000/svg" viewBox="0 0 1575 333" width="1575" height="333">
	<title>Unifirst-logo-svg</title>
	<style>
		.s0 { fill: #ffffff } 
	</style>
	<g id="Layer">
		<path id="Layer" class="s0" d="m118.3 0.4l-42.4 198.8c-7.6 35.6-14.5 80.4 53.8 80.4 11.3 0 45.2-0.4 69.2-28.4 8.9-10 15.2-22.7 22.3-55.6l41.6-195.1h68.1l-43.3 203.7c-20.8 97.1-104.6 128.3-170.5 128.3-32.5 0-90.6-7.2-110.8-56.5-10.6-24.8-6-50.1 0.4-80.5l41.6-195.1z"/>
		<path id="Layer" class="s0" d="m334.5 138.7c0.2-0.9 5.5-25.7 7.5-41.6h64.1l-5.5 34.3c8.5-10.3 32.8-39.7 82.6-39.7 44.6 0 57.8 27.1 60.3 42.9 2 14 0.9 25.7-8.2 68.2l-26.3 123.3h-68.1l30.2-141.8c2-9.5 3.7-17.7 1.7-24.8-2.9-10-11.3-19.5-28.4-19.5-14.4 0-29 6.8-38.6 17.7-5.3 5.8-11.7 17.2-15.5 34.7l-28.4 133.8h-67.3zm256.6-41.2h66.9l-48.7 228.6h-66.8zm18.5-97.6h71.4l-12.5 58.3h-71.3zm106.1 0h210.5l-11.2 52.4h-140.4l-17.1 80.4h130.9l-11.5 54.2h-131.1l-29.6 139.2h-70zm226.2 97.5h66.9l-48.7 228.6h-66.8zm18.5-97.6h71.4l-12.5 58.3h-71.3zm72 154c2.3-10.8 7.5-43.8 8.9-56.9h62.8l-8 43.8c12.7-19.4 33.5-47 87.1-44.3l-12.8 60.1c-66.4-6.3-77.8 28.4-84 56.9l-23.9 112.5h-66.8zm194.1 106.1c-2.1 14.5 3.3 31.1 31.3 31.1 23.9 0 38.1-13.5 41-27.1 2.2-10.4-1.5-18.5-26.2-25.7l-39.1-11.3c-17.4-5.4-54.2-16.6-44.3-63.2 9.4-44.3 55.8-71.4 115-71.4 47 0 80.2 21.6 72.3 67.3h-61c3.6-25.3-16.3-27.1-26.8-27.1-18 0-33.4 8.6-36.4 22.6-3.3 15.3 7.4 18.5 26.1 23.9l38.6 11.3c39.1 11.3 54.1 32.5 47.5 63.7-8.4 39.3-50.7 78.5-121.6 78.5-29.3 0-56-6.2-72.1-28-11.6-15.8-9.1-33.9-7.2-44.7 0 0 62.9 0 62.9 0.1zm298.7 62.8c-23 5.9-42.7 7.2-53.5 7.2-67.3 0-58.2-42.5-54.1-61.5l26.6-125.1h-43.8l9.4-44.3h43.8l9.4-44.7 71.6-24.3-14.7 69h54.1l-9.4 44.3h-54.1l-21.9 103c-4 20.7-6.8 33.8 23 33.8 9.9 0 14.6-0.4 22.9-1.3z"/>
	</g>
</svg>