<svg version="1.2" xmlns="http://www.w3.org/2000/svg" viewBox="0 0 1529 432" width="1529" height="432">
	<title>logo (94)-svg</title>
	<style>
		.s0 { fill: #ffffff } 
	</style>
	<g id="Layer">
		<path id="Layer" class="s0" d="m749.3 74.4h62.7v156c0 101.9-48.1 152.4-136 152.4-87.8 0-135.9-50.5-135.9-152.4v-156.4h62.6v161.4c0 62 29.9 89 73.7 89 43.8 0 73.7-27 73.7-89zm605.2 78h58.7v52.7h-58.7v94.4c0 21 8.9 31 25.6 31 12.5 0 27.8-2.2 27.8-2.2v50.6c0 0-21.7 4.7-41 4.7-44.8 0-72.2-20.7-72.2-63.1v-115h-43.7v-53.1h43.7v-78h59.8zm-181.8-37.1c-18.1 0-32.8-14.6-32.8-32.7 0-18.2 14.7-32.8 32.8-32.8 18.1 0 32.7 14.6 32.7 32.8 0 18.1-14.6 32.7-32.7 32.7zm323.1 0.4c-18.1 0-32.8-14.7-32.8-32.8 0-18.1 14.7-32.8 32.8-32.8 18.1 0 32.7 14.7 32.7 32.8 0 18.1-14.6 32.8-32.7 32.8zm-353 36.7h59.8v226.2h-59.8zm323.1 0h59.7v226.2h-59.7zm-383.2 92.2v133.9h-59.5v-131c0-23.9-18.1-43.5-45.9-43.5-20.6 0-41.2 11.4-50.1 35.3v139.2h-59.8v-226.5h59.8v19.2c20.6-13.5 43-20.6 70.8-20.6 59.4 0 84.7 43.8 84.7 94z"/>
	</g>
	<g id="Layer">
		<path id="Layer" class="s0" d="m186.4 32.3c0-8.5 3.2-16.3 9.3-22.4 6-6.1 13.9-9.3 22.4-9.3 17.1 0 31.3 14.3 31.3 31.7 0 8.6-3.2 16.4-9.2 22.5-6.1 6-13.9 9.2-22.4 9.2-17.5 0-31.4-14.2-31.4-31.7zm93.3 18.9c0-8.5 3.2-16.4 9.2-22.4 6.1-6.1 13.9-9.3 22.4-9.3 17.1 0 31.3 14.3 31.3 31.7 0 8.6-3.2 16.4-9.2 22.5-6.1 6-13.9 9.2-22.4 9.2-17.1 0-31.3-13.9-31.3-31.7zm67.9 68.4c0-8.5 3.2-16.4 9.3-22.4 6-6.1 13.9-9.3 22.4-9.3 17.1 0 31.3 14.3 31.3 31.7 0 8.6-3.2 16.4-9.2 22.5-6.1 6-13.9 9.2-22.5 9.2-17.4 0-31.6-14.2-31.3-31.7zm87.6 93c0 8.5-3.2 16.4-9.3 22.4-6 6.1-13.9 9.3-22.4 9.3-17.1 0-31.3-13.9-31.3-31.4 0-8.5 3.2-16.3 9.2-22.4 6.1-6.1 13.9-9.3 22.4-9.3 17.5 0 31.4 14.3 31.4 31.4zm-24.9 93.3c0 8.6-3.2 16.4-9.3 22.4-6 6.1-13.9 9.3-22.4 9.3-17.1 0-31.3-13.9-31.3-31.3 0-8.6 3.2-16.4 9.2-22.5 6.1-6 13.9-9.2 22.4-9.2 17.1 0 31.4 14.2 31.4 31.3zm-67.7-92.6c0 8.5-3.2 16.4-9.2 22.4-6.1 6.1-13.9 9.3-22.4 9.3-17.1 0-31.3-13.9-31.3-31.3 0-8.6 3.2-16.4 9.2-22.5 6.1-6 13.9-9.3 22.4-9.3 17.5 0 31.7 14.3 31.3 31.4zm-100.3-104.4c6.1-6 13.9-9.2 22.4-9.2 17.1 0 31.3 14.2 31.3 31.7 0 8.5-3.2 16.4-9.2 22.4-6.1 6.1-13.9 9.3-22.4 9.3-17.1 0-31.3-13.9-31.3-31.4 0-8.2 3.2-16.4 9.2-22.8zm-93.6 0c6.1-6 13.9-9.2 22.4-9.2 17.1 0 31.4 14.2 31.4 31.7 0 8.5-3.2 16.4-9.3 22.4-6 6.1-13.9 9.3-22.4 9.3-17.1 0-31.3-13.9-31.3-31.4 0-8.2 3.2-16.4 9.2-22.8zm101.1 103.7c0 8.5-3.2 16.4-9.3 22.4-6 6.1-13.8 9.3-22.4 9.3-17.1 0-31.3-13.9-31.3-31.4 0-8.5 3.2-16.3 9.3-22.4 6-6.1 13.8-9.3 22.4-9.3 17.4 0 31.3 14.3 31.3 31.4zm-157.3-161c0-8.6 3.6-16.4 9.6-22.8 6.1-6.1 13.9-9.3 22.4-9.3 17.1 0 31.3 14.3 31.3 31.7 0 8.6-3.2 16.4-9.2 22.5-6.1 6-13.9 9.2-22.4 9.2-17.5 0-31.7-13.9-31.7-31.3zm-4.6 67.7c0 8.5-3.2 16.3-9.3 22.4-6 6.1-13.8 9.3-22.4 9.3-17.1 0-31.3-13.9-31.3-31.4 0-8.2 3.2-16.4 9.3-22.1 6-6 13.8-9.2 22.4-9.2 17.1 0 31.3 14.2 31.3 31zm4.6 93.3c0-8.6 3.2-16.4 9.3-22.5 6-6 13.8-9.2 22.4-9.2 17.1 0 31.3 14.2 31.3 31.7 0 8.5-3.2 16.4-9.3 22.4-6 6.1-13.8 9.3-22.4 9.3-17.4 0-31.3-13.9-31.3-31.7zm194.3 103.3c-6.1 6-13.9 9.2-22.4 9.2-17.1 0-31.3-13.9-31.3-31.3 0-8.6 3.2-16.4 9.2-22.4 6.1-6.1 13.9-9.3 22.4-9.3 17.1 0 31.3 14.2 31.3 31.7 0 8.5-3.5 16.4-9.2 22.1zm55.8 58c0 8.6-3.2 16.4-9.2 22.5-6.1 6-13.9 9.2-22.4 9.2-17.1 0-31.3-13.9-31.3-31.3 0-8.6 3.2-16.4 9.2-22.4 6.1-6.1 13.9-9.3 22.4-9.3 17.5 0 31.7 14.2 31.3 31.3zm-93.5 26.4c0 8.5-3.2 16.4-9.3 22.4-6 6.1-13.9 9.3-22.4 9.3-17.1 0-31.3-13.9-31.3-31.3 0-8.6 3.2-16.4 9.2-22.5 6.1-6 13.9-9.2 22.5-9.2 17.4 0 31.6 14.2 31.3 31.3zm-55.9-84.4c-6 6-13.9 9.2-22.4 9.2-17.1 0-31.3-13.9-31.3-31.3 0-8.6 3.2-16.4 9.2-22.4 6.1-6.1 13.9-9.3 22.4-9.3 17.1 0 31.4 14.2 31.4 31.7 0 8.5-3.2 16.4-9.3 22.1zm-193.2-103c0-8.5 3.2-16.3 9.3-22.8 6-6 13.8-9.2 22.4-9.2 17 0 31.3 14.2 31.3 31.7 0 8.5-3.2 16.4-9.3 22.4-6 6.1-13.8 9.3-22.4 9.3-17.1 0-31.3-13.9-31.3-31.4zm87.9 92.6c0 8.6-3.2 16.4-9.3 22.5-6 6-13.8 9.3-22.4 9.3-17.1 0-31.3-13.9-31.3-31.4 0-8.2 3.2-16 9.3-22.1 6-6 13.8-9.2 22.4-9.2 17.1 0 31.3 14.2 31.3 30.9zm67.9 68.4c0 8.6-3.2 16.4-9.2 22.5-6.1 6-13.9 9.2-22.4 9.2-17.1 0-31.3-13.9-31.3-31.3 0-8.6 3.2-16.4 9.2-22.4 6.1-6.1 13.9-9.3 22.4-9.3 17.5 0 31.7 14.2 31.3 31.3z"/>
	</g>
</svg>