<svg version="1.2" xmlns="http://www.w3.org/2000/svg" viewBox="0 0 1555 471" width="1555" height="471">
	<title>urogen-svg</title>
	<defs>
		<linearGradient id="g1" x1="20.9" y1="83.2" x2="361.3" y2="286.6" gradientUnits="userSpaceOnUse">
			<stop offset="0" stop-color="#ffffff" stop-opacity="0"/>
			<stop offset=".4" stop-color="#ffffff" stop-opacity=".7"/>
			<stop offset=".7" stop-color="#ffffff"/>
			<stop offset=".9" stop-color="#ffffff"/>
		</linearGradient>
	</defs>
	<style>
		.s0 { fill: #ffffff } 
		.s1 { fill: #ffffff } 
		.s2 { fill: url(#g1) } 
	</style>
	<g id="Layer">
		<g id="UroGen_Logo_Reg_Horz_RGB">
			<g id="UroGen_Logo_Reg_Horz_RGB-2">
				<path id="Layer" class="s0" d="m647 269.2c-43.9 0-78.6-29.6-78.6-74.9v-140.5h41.9v138.8c0 24.5 14.3 39.5 37.1 39.5 22.7 0 37-14.7 37-39.5v-138.8h41.5v140.5c-0.3 45.3-35 74.9-78.9 74.9z"/>
				<path id="Layer" class="s0" d="m845 153.8c-5.1-6.1-12.6-9.5-20.8-9.2-11.9 0-25.1 9.2-25.1 28.9v94.3h-39.1v-156.5h38v14.9c10.3-10.8 24.5-17 39.5-16.6 15.3 0 26.2 4.1 36.7 14.6z"/>
				<path id="Layer" fill-rule="evenodd" class="s0" d="m986.5 250.1c-9.5 10.2-25.5 19.1-48.6 19.1-23.2 0-38.8-8.9-48.3-19.1-14-14.6-17.7-32.3-17.7-60.9 0-28.6 3.7-45.9 17.7-60.6 9.5-10.2 25.1-19.4 48.3-19.4 23.1 0 39.1 9.2 48.6 19.4 14 14.7 17.7 32.4 17.7 60.6 0 28.2-3.7 46.3-17.7 60.9zm-30.3-98.7c-4.7-4.7-11.5-7.1-18.3-6.8-6.8-0.3-13.3 2.1-18.1 6.8-8.1 8.2-8.8 21.5-8.8 37.8 0 16.3 1 29.9 8.8 38.1 4.8 4.8 11.3 7.2 18.1 6.8 6.8 0.4 13.2-2 18.3-6.8 8.2-8.2 8.9-21.8 8.9-38.1 0-16.3-1-29.6-8.9-37.8z"/>
				<path id="Layer" class="s1" d="m1167.1 245c-17 17.7-37.4 24.2-60.2 24.2-21.4 0.3-42.5-8.2-57.5-23.5-21.7-21.5-21.1-48.3-21.1-85.1 0-36.7-0.6-63.6 21.1-85.1 15-15.3 36.1-23.8 57.5-23.4 49.4 0 74.9 32.3 80.3 68.4h-41.8c-4.8-20.1-17-31.3-38.5-31.3-10.2-0.4-19.7 3.7-26.8 11.5-8.2 8.9-10.3 19.1-10.3 59.9 0 40.9 2.1 51.4 10.3 60.2 6.8 7.5 16.6 11.6 26.8 11.3 11.3 0.3 22.1-4.1 29.6-11.9 6.8-7.9 10.2-18.1 9.5-28.6v-8.2h-39.4v-34.7h80.6v31.3c0.3 30.6-5.1 49.4-20.1 65z"/>
				<path id="Layer" fill-rule="evenodd" class="s1" d="m1248.4 201.5c0 20 12.3 34.7 34.4 34.7 17 0 25.5-4.8 35.4-14.7l23.8 23.2c-16 16-31.3 24.5-59.5 24.5-37.1 0-72.5-16.7-72.5-80 0-51 27.6-80 68-80 43.6 0 68.1 32 68.1 74.9v17.4zm55.8-43.6c-7.2-14.3-24.5-20.4-39.2-13.3-5.7 2.7-10.2 7.5-13.2 13.3-2.4 5.4-3.4 10.9-3.4 16.7h59.5c0-5.5-1.4-11.3-3.7-16.7z"/>
				<path id="Layer" class="s1" d="m1464.1 267.5v-94.6c0-21.5-13.6-28.6-25.8-28.6-12.3 0-26.2 7.1-26.2 28.6v94.6h-39.2v-156.6h38.1v14.3c10.2-10.5 24.2-16.3 39.2-16.3 13.6-0.7 26.8 4.4 37 13.9 12.6 12.6 16 27.3 16 44.3v100h-39.1z"/>
				<path id="Layer" fill-rule="evenodd" class="s1" d="m613.7 400.2h-32.7v47.3h-8.5v-111.6h40.8c19.4 0 33.7 11.9 33.7 32 0 20-13.9 31.9-33.3 32.3zm-0.7-56.8h-31.6v49.3h31.6c15.3 0 26.2-7.8 26.2-24.5 0-16.7-10.9-24.8-26.2-24.8z"/>
				<path id="Layer" class="s1" d="m715.4 447.5v-47c0-14.6-7.5-22.4-20.8-22.4-13.2 0-21.4 8.1-21.4 22.4v47h-8.2v-111.6h8.2v44.9c5.4-6.5 13.6-10.2 22.1-9.9 17.4 0 27.9 10.9 27.9 28.3v48.3z"/>
				<path id="Layer" fill-rule="evenodd" class="s1" d="m792.6 447.5v-7.5c-6.5 6.5-12.2 8.5-23.1 8.5-10.9 0-17.4-2-22.1-6.8-3.8-4.1-5.5-9.2-5.5-14.6 0-14 9.9-21.8 26.6-21.8h24.4v-8.5c0-12.3-6.1-18.4-21.4-18.4-10.5 0-16.3 2.7-20.7 9.5l-5.8-5.1c6.4-8.8 14.3-11.5 26.5-11.5 20.1 0 29.3 8.8 29.3 24.8v51.7zm-23.5-36.1q-19.4 0-19.4 15.4c0 10.2 6.1 14.6 19.7 14.6 6.8 0 13.6-0.7 18.7-5.8q4.1-4.1 4.1-14.3v-9.9z"/>
				<path id="Layer" class="s1" d="m868.1 383.8c-3.4-4-8.8-6.4-14.3-6.1-12.9 0-20.4 10.6-20.4 22.8v46.6h-8.1v-75.5h8.1v10.2c5.1-7.1 13.3-11.2 22.1-10.9 6.8-0.3 13.6 2.4 18.4 7.2z"/>
				<path id="Layer" class="s1" d="m985.5 447.5v-47c0-14.6-7.5-22.4-20.8-22.4-13.2 0-21.4 8.1-21.4 21.1v48.3h-8.2v-47c0-14.6-7.4-22.4-20.7-22.4-13.3 0-21.4 8.1-21.4 22.4v47h-8.2v-75.6h8.2v8.9c5.7-6.5 13.9-10.2 22.4-9.9 10.2-0.7 19.7 4.8 24.2 13.6 5.4-8.8 15.3-13.9 25.8-13.6 7.5-0.3 14.6 2.4 20.1 7.2 5.4 5.7 8.2 13.2 7.8 21.1v48.3z"/>
				<path id="Layer" fill-rule="evenodd" class="s1" d="m1062.4 447.5v-7.5c-6.5 6.5-12.3 8.5-23.2 8.5-10.9 0-17.3-2-22.1-6.8-3.7-4.1-5.4-9.2-5.4-14.6 0-14 9.8-21.8 26.5-21.8h24.5v-8.5c0-12.3-6.1-18.4-21.4-18.4-10.6 0-16.4 2.7-20.8 9.5l-5.8-5.1c6.5-8.8 14.3-11.5 26.6-11.5 20 0 29.2 8.8 29.2 24.8v51.7zm0-36.1h-23.4q-19.4 0-19.4 15.4c0 10.2 6.1 14.6 19.7 14.6 6.8 0 13.6-0.7 18.7-5.8q4.1-4.1 4.1-14.3z"/>
				<path id="Layer" class="s1" d="m485.4 261.7c-14.6 129-130.9 221.8-259.9 207.2-128.9-14.6-221.8-131-207.1-260-1.1 22.5 1.3 45 7.5 66.4 2 6.5 4 13.3 6.8 19.7 42.1 108.2 164.3 161.7 272.4 119.5 108.2-42.2 161.6-164.4 119.4-272.6-42.1-108.2-164.3-161.6-272.4-119.4 11.9-5.5 24.1-10.2 36.7-13.7 125.2-35 254.8 38.2 289.5 163 8.1 29 10.5 59.6 7.1 89.9z"/>
				<path id="Layer" class="s2" d="m290.8 77.9c6.5 0.4 13 2.1 18.8 4.8 27.5 11.9 27.2 34-3.1 51.7-29.6 17.4-25.5 85.4 20.7 85.4 3.8 0 7.9-0.7 11.6-1.3 4.4-1.1 9.2-1.7 13.6-1.7 32 0 24.5 33 17.7 43.2-5.1 8.1-10.9 12.6-18.4 12.6-8.1 0-18.7-5.8-32.6-18.4-6.5-5.8-15-8.9-23.8-8.5-33.4 0-73.5 36.1-53.4 74.2 18.7 35.7 4.4 49.7-19.4 51h-2.4c-21.8 0-35.4-16.3-13.3-47.6 19.1-27.2-11.2-53.5-43.5-53.5-11.6 0-22.8 3.5-32 10.3-8.8 6.4-16 9.1-21.8 9.1-11.9 0-17.3-11.2-19-19.4-4.8-22.1 2-33.3 24.5-33.3 5.4 0 11.2 0.3 16.6 1.4 6.9 1.3 13.3 2 20.1 2 28.3 0 47-11.2 49-32 1.7-15-9.5-25.5-18-32.7-47-38.1-92.9-56.8-146.3-56.8-21.4 0-36.4-1.3-36.4-16.3 0-11.9 8.2-16.3 34.7-16.3 60.5 0 116.7 21.4 170.1 65.6 6.8 5.5 22.1 15.3 33.3 15.3h2.4c21.4-2.7 29.6-20 29.6-49.3-0.3-28.9 7.5-40.2 20.7-39.5z"/>
				<path id="Layer" fill-rule="evenodd" class="s1" d="m1518.9 127.6c0-1.7 0.3-3.4 0.7-4.8 0.3-1.3 1-3 1.7-4.4 0.6-1.3 1.7-2.7 2.7-3.7 1-1 2.4-2.1 3.7-2.7 1.4-0.7 2.7-1.4 4.4-1.7 1.7-0.4 3.1-0.7 4.8-0.7 1.7 0 3.4 0.3 4.8 0.7 3 0.6 5.8 2.3 7.8 4.7 1 1 2 2.4 2.7 3.8 0.7 1.3 1.4 2.7 1.7 4.4 1 3 1 6.4 0 9.5-0.3 1.4-1 3.1-1.7 4.4-1.7 2.8-3.7 4.8-6.4 6.5-1.4 0.7-2.8 1.4-4.5 1.7-1.7 0.3-3 0.7-4.7 0.7-1.7 0-3.4-0.4-4.8-0.7-1.4-0.3-3.1-1-4.4-1.7-4.1-2.4-7.2-6.1-8.2-10.9 0-2-0.3-3.4-0.3-5.1zm2.4 0c0 1.4 0.3 2.7 0.6 4.1 0.4 1.4 1.1 2.7 1.7 3.7 0.7 1.1 1.4 2.4 2.4 3.1 1.7 2 4.1 3.4 6.8 4.1 3.4 1 6.8 0.7 10.2-0.7 1.7-0.7 3.4-2 5.1-3.4 1.4-1.4 2.8-3.1 3.4-5.1 0.7-2 1.4-4.1 1.4-6.1 0-1.4-0.3-2.8-0.7-4.1-0.3-1.4-1-2.7-1.7-3.8-1.3-2.3-3.4-4.4-5.4-5.7-1-0.7-2.4-1.1-3.8-1.4-7.5-2-15.6 1.7-18.3 9.2-1.4 2-1.7 4.1-1.7 6.1zm11.9 2.4v8.8h-3.8v-22.1h7.2c2.4 0 4.4 0.4 6.4 1.7 1.4 1 2.1 2.7 2.1 4.4 0 1.4-0.4 2.8-1.4 4.1-1 1-2.4 2.1-4.1 2.4 0.4 0 0.7 0.3 0.7 0.7 0.4 0.3 0.4 0.7 0.7 1l5.4 8.2h-3.7c-0.3 0-1-0.4-1.4-0.7l-5.1-7.5c0-0.3-0.3-0.3-0.3-0.7q-0.5 0-1 0zm0-3h2.7c0.7 0 1.7 0 2.4-0.4 0.7 0 1-0.3 1.7-0.7 0.3-0.3 0.7-0.6 0.7-1.3 0.3-0.7 0.3-1 0.3-1.7 0-0.7 0-1-0.3-1.7 0-0.4-0.4-0.7-0.7-1-0.4-0.4-1-0.7-1.4-0.7-0.7 0-1.3-0.4-2-0.4h-3.4z"/>
			</g>
		</g>
	</g>
</svg>