<svg version="1.2" xmlns="http://www.w3.org/2000/svg" viewBox="0 0 1567 1193" width="1567" height="1193">
	<title>U</title>
	<style>
		.s0 { fill: #d62a43 } 
		.s1 { fill: #ffffff } 
	</style>
	<path id="Layer" class="s0" d="m0 0h1566.2v926.1l-783.1 266.9-783.1-266.9v-926.1"/>
	<path id="Layer" class="s1" d="m782.6 897h-239.4v-82.9h-2.4c-46.4 65.3-112.9 99.2-211.9 99.2-116.6 0-223.2-71.6-223.2-221v-447h248.2v341.5c0 75.4 8.7 128.1 81.5 128.1 42.6 0 99-21.3 99-125.5v-344.1h248.2z"/>
	<path id="Layer" class="s1" d="m1245.3 435c-1.3-21.4-12.5-37.7-28.8-49-15.1-12.6-35.2-18.9-55.2-18.9-35.2 0-75.2 7.6-75.2 50.3 0 18.9 15 27.6 28.8 33.8 41.4 17.6 135.4 22.6 218.1 50.2 82.8 26.4 155.5 75.4 155.5 182.2 0 180.7-173 229.7-331 229.7-152.9 0-320.9-61.5-324.6-229.7h236.8c1.3 22.6 11.3 41.4 30.2 57.7 12.5 11.3 36.4 18.8 66.4 18.8 32.6 0 84-12.5 84-50.2 0-37.7-21.3-49-136.7-69.1-189.2-32.6-265.7-92.8-265.7-204.5 0-164.5 176.8-207.3 307.1-207.3 140.4 0 309.7 39 315.9 206 0 0-225.6 0-225.6 0z"/>
</svg>