<svg version="1.2" xmlns="http://www.w3.org/2000/svg" viewBox="0 0 1579 1478" width="1579" height="1478">
	<title>USDP_Logo_2021_RGB-svg</title>
	<style>
		.s0 { fill: #ffffff } 
	</style>
	<g id="#d8272dff">
		<path id="Layer" class="s0" d="m504 87.4c112.5-28.9 225-57.9 337.6-86.8-196.5 339.8-392.7 679.7-589 1019.6 244.5-0.2 489 0 733.5-0.1 28.1 48.7 56.4 97.3 84.3 146.1-229.6 0-459.2 0-688.9 0-127.1-0.1-254.2-0.4-381.2-0.2 197.7-342.2 395.3-684.5 592.9-1026.7-29.7-17.4-59.9-34-89.2-51.9z"/>
	</g>
	<g id="#11284aff">
		<path id="Layer" class="s0" d="m728.5 320.7c55.8-96.2 110.9-192.7 167.1-288.7 197.5 342.5 395.6 684.8 593.1 1027.4 30-17.1 59.9-34.2 89.5-51.8-17.5 66.2-36.6 132-54.8 198.1q-19.1 68.7-38.3 137.4c-11.6-17.7-21.3-36.6-32.2-54.8-185.8-321.8-371.7-643.4-557.3-965.2-122.8 211.4-244.6 423.4-367.1 635-56 0-111.9 0-167.9 0 122.4-212.6 245.3-424.9 367.9-637.4z"/>
	</g>
	<g id="#9da1a2ff">
		<path id="Layer" class="s0" d="m895.1 447.7c12.8 20.3 24.1 41.5 36.4 62.2q242.7 420.3 485.4 840.5c4.6 8.2 9.6 16 13.8 24.4-395.4-0.1-790.7 0.2-1186.1-0.2-0.7 34.3 0 68.6-0.4 102.9-57.8-58.6-115.3-117.6-173-176.3-23.5-24.2-47.6-47.9-70.7-72.5 392.4-0.4 784.8-0.1 1177.2-0.2-11.6-22.4-25.1-43.7-37.4-65.7-84.2-145.8-168.4-291.7-252.7-437.6-25.2-44-51-87.8-76-132.1 27.2-48.8 56-96.8 83.5-145.4z"/>
	</g>
</svg>