<svg version="1.2" xmlns="http://www.w3.org/2000/svg" viewBox="0 0 1375 1553" width="1375" height="1553">
	<title>Usiminas_Logo-svg</title>
	<style>
		.s0 { fill: #66cc33 } 
	</style>
	<g id="layer1">
		<path id="path4019" class="s0" d="m1374 17.4v970.5c0 421.3-365.6 564.4-686.8 564.4h-0.2c-321 0-686.5-143.1-686.5-564.4v-970.5c0-7.4 4.2-16.9 17-16.9 35.1 0 127.9 43.8 207.3 123.3 79.8 79.7 123.3 171.4 123.3 312.8v517.7c0 208.2 137 297.6 338.9 297.6h0.2c202.1 0 339.1-89.4 339.1-297.6v-517.7c0-141.4 43.5-233.1 123.1-312.8 79.8-79.5 172.6-123.3 207.7-123.3 12.5 0 16.9 9.5 16.9 16.9z"/>
	</g>
</svg>