<svg version="1.2" xmlns="http://www.w3.org/2000/svg" viewBox="0 0 1553 420" width="1553" height="420">
	<title>U-svg</title>
	<style>
		.s0 { fill: #ffffff } 
	</style>
	<g id="#c82129ff">
		<path id="Layer" fill-rule="evenodd" class="s0" d="m378.6 2.9c22.3-3.8 45-1.1 67.5-1 14.3-0.4 28.6 2.2 42.9 2.8-2.3 5.1-4.7 10.1-7.4 15-18.3-6.6-37.9-10.3-57.3-7.7-7.9 1.3-16 4.5-21.1 11-7.4 9.6-10.5 21.5-13.3 33.1-1.5 6.3-3.2 12.7-2.2 19.3 1.4 6.8 9.4 8.1 15.2 8.9 10.3 1.9 20.8 1.1 31.1 2.1 9.3-0.2 19.2 1 26.9 6.5 5.7 5.3 5.1 14 3.9 21.1-3 15.6-6.9 31.3-13.7 45.8-3.8 8.1-8.6 16.2-15.9 21.6-4.8 3.5-10.6 4.9-16.3 6.1-17.2 3.1-34.8 3.4-52.2 4-17.9 0.1-36.6 1.4-53.2-6.2-6.3-3.2-7.4-10.8-6.6-17.1 3-11.4 6.2-22.7 8.5-34.2 16.4-0.4 32.9-0.1 49.3-0.1-2.7 9.2-5 18.5-7.6 27.8-1.4 5.9-1.9 13.7 3.6 17.6 7.2 4.2 15.9 2.7 23.6 1 4.1-0.9 7.8-3.4 10.3-6.8 5.9-7.4 8.5-16.6 11.4-25.3q1.2-4.8 2.6-9.5 1.2-6.1 2.7-12.1c0.5-5.8 3.4-12.2 0-17.6-3.4-5.6-10.4-7-16.4-8-14.3-1.9-28.7-2.1-43-2.2-5.3-0.3-11.3-1.8-14.4-6.4-3-3.9-3.1-9-3-13.7 0.2-9.8 2.8-19.4 5.6-28.7 0.1-0.8 0.5-2.2 0.6-3q1.4-4 2.7-8.1 1-2.5 1.9-5.1c3-7.2 6.4-14.5 11.9-20.2 5.8-5.7 13.5-9.3 21.4-10.7zm880.2 8.5c6.3-5.3 14.4-8.1 22.5-9 22.7-3.2 45.6-0.3 68.3-0.5 13 0 25.9 2.4 38.8 2.8-2.6 4.9-4.7 10-7.6 14.7-10.3-3-20.5-6-31-7.6-14-0.9-29.5-2.1-41.8 5.9-12.1 9.3-15.5 25.1-19.1 39-1.5 6.6-3.4 13.6-1.5 20.3 3.4 7.1 12.5 6.5 19.1 8 12.1 0.8 24.2 1 36.3 1.7 5.8 1 11.8 2.3 16.7 5.8 4.2 3.2 5.4 8.8 5.4 13.8-0.9 12.6-4.7 24.7-8.1 36.8-4.2 12.6-9.3 25.5-18.7 35.2-7.3 7.5-18.3 9-28.2 10.4-22 2.7-44.3 3-66.6 2.8-10.1 0-20.1-2-29.5-5.6-3.7-1.3-5.7-4.7-7.5-7.9-1.2-9.4 2.2-18.3 4.3-27.4 1.1-4 2-8 3.3-11.9q0.4-2.4 0.8-4.8c16.3-0.2 32.5-0.1 48.9 0-2.2 9.7-5.2 19.3-7.5 29-0.9 5.2-1.4 11.5 2.7 15.6 4.1 3.9 10.2 2.9 15.4 3 7 0.1 14.6-1.8 19.2-7.5 6.9-8.7 10-19.6 13-30.1q0.6-2.7 1.3-5.4c1.1-4.4 2-8.8 3.2-13.2 0.1-6.1 2.9-13.7-2.2-18.4-4.3-4.4-10.7-5.2-16.5-6.2-13.6-1.6-27.3-1.8-41-1.8-5.9-0.2-12.6-2.2-15.5-7.9-3-5.2-2.4-11.3-2.1-17.1 1.3-6.3 2.4-12.6 4.1-18.9q1.4-4.6 2.7-9.3 0.6-2 1.3-4.1c4-10.9 8-22.6 17.1-30.2zm181.1-8.1c22.6-4.4 45.8-1.5 68.7-1.4 14.5-0.4 28.9 2.2 43.4 2.9-2.3 4.9-4.8 9.8-7.2 14.7-20.3-6.7-42.2-11.1-63.4-6.4-5.5 2.2-11.1 4.8-14.8 9.6-8.8 10.7-11.6 24.7-14.7 37.8-1 5.5-2.9 11.5-0.4 16.8 1.8 3.9 6.1 5.1 9.8 6.5 15.5 2.7 31.3 1.2 46.9 3.2 7.5 1.5 17.1 3.6 19.6 12.1 1.6 8.1 0 16.5-1.9 24.5-3.3 13.5-6.9 27-13.3 39.3-3.8 7.4-8.5 14.7-15.5 19.3-6.9 4.2-15 5.2-22.8 6.5-21.3 2.6-42.7 2.9-64.1 2.9-11.6 0.1-23.6-1.7-34.2-6.6-7.6-4.2-5.9-13.7-5.2-20.8 0.7-2.2 1.3-4.4 2-6.6 1.8-8 4-15.8 6-23.8q24.4 0 48.8 0c-2.5 9.7-5.3 19.4-7.7 29.1-1.2 5-1.4 10.9 2.2 14.9 4.1 4.6 10.9 4.2 16.5 4.3 5.5-1.3 11.8-1.5 16.1-5.7 8.7-8.1 11.7-20.1 15.1-31 2.5-10.2 5.5-20.4 5.9-30.9 0.4-7.4-7.2-11.4-13.4-12.6-15.8-3.1-32.1-2.8-48.1-3.1-6.9-0.2-14.2-3.9-16-11-2.2-10 0.2-20.4 2.7-30.1 3.4-12.8 7.1-25.6 13.9-37 5.4-9.1 14.8-15.4 25.1-17.4zm-650.7 1.6c38.2-2.2 76.5-1.6 114.8-1.6 8.2 0.2 18.1 2.8 21.8 11.1 3.4 8.3 1.1 17.5-0.2 26-2.4 11.1-4.6 22.2-7.9 33l-0.6 1.3c-3.4 12-9.8 24.9-22.3 29.3-10.5 3.5-21.8 3.8-32.8 4.7-16.2 2.2-32.7 0.3-48.9 2.2-1.3 4.3-2.4 8.6-3.5 13-5.7 21.9-11.7 43.8-17.2 65.7-17 0.7-34.1 0.2-51.3 0.3 4.9-20.4 10.8-40.5 15.8-60.9l0.4-0.9c1.9-8.6 4.4-17.1 6.5-25.7q2.7-10.2 5.3-20.3c6.7-25.7 13.6-51.4 20.1-77.2zm25.2 8.9c-0.6 2.7-1.2 5.3-1.7 8 5.6 0.4 11.7-0.9 17.1 1 5.2 2.5 3.8 8.9 2.8 13.4-5.2 18.4-9.8 37-14.7 55.5q-1.4 5.1-2.7 10.3c11.9 0.1 24.5 0.8 35.4-4.7 6-3 9.2-9.4 12.1-15.1 1.2-3.2 2.3-6.4 3.4-9.6 1.1-3.9 2-7.8 3.2-11.6 2.3-10.9 6.3-21.6 5.6-32.8-0.3-6.2-5.3-11.5-11.4-12.3-16.2-2.9-32.7-1.7-49.1-2.1zm-711.8-10q25.5 0 51 0c-2.2 8.6-4.3 17.2-6.6 25.7-10.6 41.4-21.7 82.5-32.4 123.8q-0.7 2.7-1.5 5.5c-0.6 5-0.7 10.1-0.3 15.1 2.8 3.9 6.7 7 11.5 7.6 9.7 2 20.6 0.1 28-6.7 4.8-4.6 7.7-10.9 9.4-17.3q8.2-31 16.2-62c0.5-1.8 0.9-3.6 1.3-5.4 7.5-28.8 15-57.5 22.7-86.3 17 0.1 34 0 51 0-11 42.3-22 84.7-33.2 126.9-2.2 9.1-4.7 18.1-8.1 26.8-3.9 8.8-7.9 18.6-16.7 23.5-13.2 7.9-28.8 9.2-43.7 11.2-12.5 1.2-25.1 1.2-37.6 0.8-12-1.6-24.3-1.5-35.9-5.4-4.3-1.5-8.7-3.3-11.7-6.9-3.9-4.5-4.7-10.7-4.1-16.4 1.1-9.8 3.8-19.4 6.3-28.9 6.3-23.5 12.2-47.1 18.4-70.7 5.2-20.3 10.6-40.6 16-60.9zm552.6 0c18 0 36 0 54 0 2.2 18.1 4.1 36.3 6 54.4 1 5.4 0.7 10.9 2.4 16.1 13.7-24 28.9-47.1 43.4-70.7 5.1 0.2 10.2 0.2 15.2 0.3-18.2 30.4-37.3 60.2-55.7 90.5-1.6 5.5-0.4 11.7 0.4 17.4 1.2 13 2.5 26 4.1 38.9 0.3 4.1 0.5 8.2 1.3 12.3 0.5 9 2.1 17.9 2.3 26.9-18-0.2-36 0.5-54-0.4-0.1-7.6-1.6-15-2.1-22.6-0.8-4-1-8.1-1.3-12.1-0.9-4.5-0.9-9.1-1.7-13.5-0.5-6.9-1.6-13.8-2.3-20.7-9.9 13.6-18.8 27.8-28.3 41.6-5.9 9.1-12.3 17.9-17.8 27.2-5.5 0.7-10.9 0.6-16.4 0.5 15-22.8 30.2-45.4 45.5-68 5.5-6.8 10.1-16.1 19.4-18.4 8.4-1.9 16.9-3.1 25.5-4.2-7.7-0.9-15.4-1.1-23-2.2-4.7-0.9-6.5-5.6-8.2-9.4-2.8-28-5.9-55.9-8.7-83.9zm299.5 1.4c15.9-0.3 31.7-1.8 47.6-1.4 23.4 0.3 46.8-0.9 70.2 1.4 5.3 0.7 11.1 1.3 15.2 5 4.6 4.8 4.5 11.9 3.7 18-2.1 13.1-4.5 26.3-8.7 39-2.5 7.4-5.7 15-11.8 20.2-6 5-13.8 7-21.3 8.3-11.2 1.8-22.4 3.1-33.4 5q14.7 1.2 29.4 2.9c5.7 2.2 6.9 9.5 6.9 14.9-0.1 23.8 0.3 47.6 0.3 71.4q-20.6 0-41.2 0.1c-3.1-0.1-7.1-0.2-9-3.2-2.6-3.9-2.4-8.7-2.6-13.1-0.1-21.5 0.2-42.9-1-64.3 0.1-2.9-2.4-5-4.9-5.8-4.5-1.6-9.3-1-13.9-0.8-0.1 0.9-0.3 2.8-0.4 3.7-0.7 2.2-1.3 4.4-2 6.5-0.4 1.8-0.8 3.6-1.3 5.4-6.1 23.8-12.5 47.4-18.5 71.2-17 0.7-34.1 0.2-51.2 0.3 0.7-3.2 1.5-6.4 2.3-9.6 0.6-2.1 1.1-4.3 1.8-6.5 1.2-5 2.5-10 3.9-15q0.6-2.7 1.3-5.3 0.7-2.7 1.5-5.3c5.6-22.1 11.4-44.2 17.1-66.3 2.3-8.5 4.5-17 6.7-25.6 0.6-2.1 1.1-4.3 1.8-6.4q0.6-2.7 1.3-5.4c1.2-4.6 2.4-9.1 3.5-13.7 0.6-2.2 1.2-4.4 1.8-6.6q0.6-2.6 1.3-5.3c1.2-4.6 2.4-9.1 3.6-13.7zm24.2 12.3q-0.1 2.1-0.2 4.2c4.8 0.3 9.6 0.2 14.3 0.9 5 1.4 6.6 7.6 5.7 12.1-4.9 19.7-11 39-15.3 58.8 10.9 0.3 22.3 0.1 32.4-4.5 6.7-2.8 11.8-8.6 14.4-15.3 5.1-12.9 7.1-26.7 10.2-40.2 0.3-4.3 0-8.7-1.3-13-2.1-1.9-4.2-4.3-7.2-4.9-12.1-2.7-24.5-1.1-36.7-2.1-4.9-0.6-9.8-0.5-14.7-0.5q-0.8 2.3-1.6 4.5zm143.2-13c5.7-1 11.6-0.7 17.5-0.7q43.3 0 86.7 0 0 6.7 0 13.4c-11-0.4-21.9-2.3-32.9-2.9-15.4-0.4-30.8-0.4-46.3-0.2q-0.2 2.6-0.3 5.3c-0.6 0.2-1.7 0.7-2.3 0.9 5.6 0.7 11.3 1.2 16.8 2.5 2.8 0.4 4.4 3.1 4.6 5.7 0.4 5.8-1.3 11.4-2.7 17-4.3 15.7-8.4 31.4-12.5 47 15.3 0.6 30.5-1.1 45.6-3.5-1.1 5.2-2.5 10.4-3.7 15.6-14-2.2-28.3-4-42.5-2.2-3.2 0.2-2.8 4.4-3.7 6.7-0.6 2.1-1.1 4.3-1.7 6.5-1.2 4.6-2.4 9.1-3.5 13.7-0.6 2.2-1.2 4.4-1.8 6.5-3.6 14.2-7.2 28.3-11.1 42.4 12.7 0.4 25.5 0.8 38.2-1.1 7.5-0.8 14.8-2.7 22.3-3.4-3.2 5.1-6.3 10.3-8.9 15.7-6.2 0.8-12.5 0.5-18.8 0.5-28.4 0.1-56.8 0-85.3 0.1-0.4-0.3-1.3-0.7-1.8-0.9 0.8-2 1.5-4.1 2.1-6.1 0.6-2.2 1.1-4.4 1.7-6.6 1.2-4.6 2.4-9.2 3.6-13.9 8.9-34.5 18.1-68.9 27-103.4q0.7-2.7 1.3-5.3c0.6-2.2 1.2-4.4 1.9-6.6 1.1-5 2.5-10 3.8-14.9 2.1-9.3 5.3-18.4 6.7-27.8zm-862.7 143.1c8.5-0.3 17.9-0.6 25.1 4.4 5.2 3.9 5.7 11 4.3 16.8-1.6 6.5-1.9 14.6-8.3 18.5-9.7 5.7-21.6 5.5-32.5 5-7.7-0.4-17-4.4-17.7-13.1 0-7.4 1.7-14.8 4.3-21.7 5.1-8.3 16.1-9 24.8-9.9zm213.1 12.3c4.6-9.8 16.4-11.6 26-12.3 9.2-0.3 19.9-0.8 27.1 5.8 6.5 7.1 2.2 17.3 0.4 25.5-2.1 9.1-12.5 12.1-20.6 13-9.9 0.7-21 2.1-29.8-3.3-5.6-3.4-6.6-10.4-5.7-16.3 0.8-2.7 1.4-5.3 2.2-7.9q0.2-2.3 0.4-4.5z"/>
		<path id="Layer" class="s0" d="m44.7 238.9c21-0.5 42-0.2 63-0.2-14.9 60.3-28.9 120.7-43.6 181-21.3 0-42.6 0-63.8 0 12-47.6 23.3-95.4 35.4-142.9 2.9-12.7 6.8-25.1 9-37.9zm111.2-0.2c462.4 0 924.8-0.1 1387.2 0-1.9 11.8-4.8 23.4-6.1 35.3-79.1 0.3-158.2 0-237.3 0.1-371.4 0-742.8 0.1-1114.2 0-2 6.3-3.2 12.9-5 19.3q-1.2 5.4-2.6 10.8c-1.2 5.4-2.6 10.8-4 16.1-6.1 25.7-12.7 51.2-19 76.9-1.7 7.3-3.9 14.7-5 22.2-12.5 0.6-25 0.2-37.4 0.2 1.2-5.2 2.4-10.5 3.8-15.8 9.5-40.9 19.9-81.6 29.3-122.5 0.6-2.2 1.2-4.4 1.8-6.6 2.5-12.1 5.7-24 8.5-36z"/>
	</g>
</svg>