<svg version="1.2" xmlns="http://www.w3.org/2000/svg" viewBox="0 0 1504 1155" width="1504" height="1155">
	<title>2021_VL_Annual_Report-1-pdf-svg</title>
	<defs>
		<clipPath clipPathUnits="userSpaceOnUse" id="cp1">
			<path d="m-3796.77-2103.55h9288.13v12018.2h-9288.13z"/>
		</clipPath>
	</defs>
	<style>
		.s0 { fill: #2c2e35 } 
		.s1 { fill: none;stroke: #2c2e35;stroke-linejoin: round;stroke-width: 9.1 } 
		.s2 { fill: none;stroke: #2c2e35;stroke-width: 9.1 } 
		.s3 { fill: none;stroke: #ffffff;stroke-linejoin: round;stroke-width: 9.1 } 
	</style>
	<g id="Clip-Path: Page 1" clip-path="url(#cp1)">
		<g id="Page 1">
			<g id="&lt;Group&gt;" style="opacity: .2">
				<path id="Path 10" class="s0" d="m1097.7 438.2l161.6-267.1c0 0 15.2-20.5 17.5-38.7 3.8-28.8-47.8-31.1-47.8-31.1v-31.1h270.9v36.4c0 0-28.1-3.8-78.9 17.5-50.9 20.5-78.9 73.6-78.9 73.6l-238.3 388.4"/>
			</g>
			<path id="Path 12" class="s1" d="m1096.2 438.2l162.4-267.1c0 0 14.4-20.5 16.7-38.7 3.8-28.8-47.8-31.1-47.8-31.1v-31.1h270.9v36.4c0 0-28.1-3.8-78.9 17.5-50.9 20.5-79 73.6-79 73.6l-238.2 388.4m0-160.8l156.3-254.2c0 0 14.4-20.5 16.7-38.7 3.8-28.8-47.8-31.1-47.8-31.1v-31.1h270.9v36.4c0 0-28.1-3.8-78.9 17.5-50.9 20.5-79 73.6-79 73.6l-236 383.1z"/>
			<path id="Path 13" class="s0" d="m1323.8 146.8c0 0 11.4-63.7 174.6-60.7v20.5c0 0-91.1 1.5-149.5 78.2-52.4 84.9-244.4 396-244.4 396l-0.7-77.4 223.1-368z"/>
			<path id="Path 14" class="s2" d="m1096.2 438.2l162.4-267.1c0 0 31.1-40.2 9.1-56.9-15.2-12.1-38-12.9-40.2-12.9-2.3 0 0-18.2 0-18.2 0 0 54.6 3.8 72.1 15.9 18.2 12.2 38.7 21.3 20.4 50.9-20.4 34.1-112.3 184.3-220 359.6"/>
			<g id="&lt;Group&gt;" style="opacity: .2">
				<path id="Path 16" class="s0" d="m392.8 710.6h97.8v22h-97.8z"/>
			</g>
			<g id="&lt;Group&gt;" style="opacity: .2">
				<path id="Path 19" class="s0" d="m516.4 709.8h97.9v22.8h-97.9z"/>
			</g>
			<g id="&lt;Group&gt;" style="opacity: .2">
				<path id="Path 22" class="s0" d="m646.2 711.3h97.9v22.8h-97.9z"/>
			</g>
			<g id="&lt;Group&gt;" style="opacity: .2">
				<path id="Path 25" class="s0" d="m769.1 711.3h97.9v22.8h-97.9z"/>
			</g>
			<g id="&lt;Group&gt;" style="opacity: .2">
				<path id="Path 28" class="s0" d="m896.6 709.8h97.9v22.8h-97.9z"/>
			</g>
			<g id="&lt;Group&gt;" style="opacity: .2">
				<path id="Path 31" class="s0" d="m1023.3 710.6h97.9v22h-97.9z"/>
			</g>
			<g id="&lt;Group&gt;" style="opacity: .2">
				<path id="Path 34" class="s0" d="m365.4 732.6h777.8v26.5h-777.8z"/>
			</g>
			<g id="&lt;Group&gt;" style="opacity: .2">
				<path id="Path 37" class="s0" d="m346.5 758.4h814.2v27.3h-814.2z"/>
			</g>
			<g id="&lt;Group&gt;" style="opacity: .2">
				<path id="Path 40" class="s0" d="m402.6 360.8h75.1v22.7h-75.1z"/>
			</g>
			<g id="&lt;Group&gt;" style="opacity: .2">
				<path id="Path 43" class="s0" d="m528.6 360.8h75.1v22.7h-75.1z"/>
			</g>
			<g id="&lt;Group&gt;" style="opacity: .2">
				<path id="Path 46" class="s0" d="m658.3 360.8h75.2v22.7h-75.2z"/>
			</g>
			<g id="&lt;Group&gt;" style="opacity: .2">
				<path id="Path 49" class="s0" d="m781.3 360.8h75.1v22.7h-75.1z"/>
			</g>
			<g id="&lt;Group&gt;" style="opacity: .2">
				<path id="Path 52" class="s0" d="m908 360.8h75.9v22.7h-75.9z"/>
			</g>
			<g id="&lt;Group&gt;" style="opacity: .2">
				<path id="Path 55" class="s0" d="m1035.5 360.8h75.1v22.7h-75.1z"/>
			</g>
			<g id="&lt;Group&gt;" style="opacity: .2">
				<path id="Path 58" class="s0" d="m389.7 332.7h99.4v25.8h-99.4z"/>
			</g>
			<g id="&lt;Group&gt;" style="opacity: .2">
				<path id="Path 61" class="s0" d="m515.7 332.7h99.4v25.8h-99.4z"/>
			</g>
			<g id="&lt;Group&gt;" style="opacity: .2">
				<path id="Path 64" class="s0" d="m645.4 332.7h100.2v25.8h-100.2z"/>
			</g>
			<g id="&lt;Group&gt;" style="opacity: .2">
				<path id="Path 67" class="s0" d="m768.4 332.7h100.1v25.8h-100.1z"/>
			</g>
			<g id="&lt;Group&gt;" style="opacity: .2">
				<path id="Path 70" class="s0" d="m895.9 332.7h99.4v25.8h-99.4z"/>
			</g>
			<g id="&lt;Group&gt;" style="opacity: .2">
				<path id="Path 73" class="s0" d="m1022.6 332.7h99.4v25.8h-99.4z"/>
			</g>
			<g id="&lt;Group&gt;" style="opacity: .2">
				<path id="Path 76" class="s0" d="m345.7 190.1l410.5-163.9 408.3 165.4v19.7h-818.8z"/>
			</g>
			<g id="&lt;Group&gt;" style="opacity: .2">
				<path id="Path 79" class="s0" d="m1144 332.7h-780.1v-121.4h780.1z"/>
			</g>
			<g id="&lt;Group&gt;" style="opacity: .2">
				<path id="Path 82" class="s0" d="m467.9 384.3l6.8 327.8h-75.9l12.2-327.8z"/>
			</g>
			<g id="&lt;Group&gt;" style="opacity: .2">
				<path id="Path 85" class="s0" d="m593.8 384.3l6.9 327.8h-75.9l12.1-327.8z"/>
			</g>
			<g id="&lt;Group&gt;" style="opacity: .2">
				<path id="Path 88" class="s0" d="m723.6 384.3l6.8 327.8h-75.9l12.2-327.8z"/>
			</g>
			<g id="&lt;Group&gt;" style="opacity: .2">
				<path id="Path 91" class="s0" d="m846.5 384.3l6.9 327.8h-75.9l12.1-327.8z"/>
			</g>
			<g id="&lt;Group&gt;" style="opacity: .2">
				<path id="Path 94" class="s0" d="m974 384.3l6.8 327.8h-76.6l12.1-327.8z"/>
			</g>
			<g id="&lt;Group&gt;" style="opacity: .2">
				<path id="Path 97" class="s0" d="m1100.7 384.3l6.9 327.8h-75.9l12.1-327.8z"/>
			</g>
			<path id="Path 99" class="s0" d="m974.8 382l6.8 327h-27.3l0.7-325.5zm-512.2 330.1h26.6v19h-26.6zm126 0h26.6v19.7h-26.6zm130.5 0h25.8v19h-25.8zm122.2 0h26.6v19.7h-26.6zm127.5 0h25.8v19h-25.8zm126.7 0.7h26.6v19h-26.6zm-626.8-329.3l6.8 327.8-27.3-0.8 0.8-325.5zm125.9 0l6.9 327.8-28.1-0.8 0.8-324.7zm130.5 0l6 327.8-27.3-0.8 0.8-325.5zm122.9 0l6.8 327.8-27.3-0.8 0.8-324.7zm253.4 0l6.9 327h-27.4l0.8-325.5zm-648.8-21.2h24.3v19.7h-24.3zm8.4-28.9h28v25.8l-28-0.7zm117.6 28.8h24.3v19.7h-24.3zm8.3-29.5h28.1v25h-28.1zm121.4 28.1h24.3v22.7h-24.3zm9.1-28.8l28.1 1.5v25.1l-28.1-1.6zm113.9 28.9h24.2v22.7h-24.2zm10.6-27.3h28.1v24.3h-28.1zm116.8 28.1h24.3v20.4h-24.3zm8.4-29.5l28.8-0.8v25.8h-28.8zm118.4 27.3h24.3v22.8h-24.3zm8.3-28.9l29.6 0.8v25.8l-29.6-1.5zm-679.9-73.6h47.1v9.1h-47.1zm126.7 0h47.1v9.1h-47.1zm127.5 0.8h47.1v8.3h-47.1zm127.5-0.8h46.3v9.1h-46.3zm126.7 0h47.1v9.1h-47.1zm127.5 0h46.3v9.2h-46.3zm-594.9 0h6.1v41.7h-6.1zm132.8 41.7h-5.3v-41.7h5.3zm127.5 0h-5.4v-41.7h5.4zm126.7 0h-5.3v-41.8h5.3zm127.5 0h-5.3v-41.7h5.3zm121.4-41.7h6.1v41.7h-6.1z"/>
			<path id="Path 100" class="s2" d="m392.8 709.8h97.8v22.8h-97.8zm125.2 0h97.8v22.7h-97.8zm130.5 0.8h97.9v22h-97.9zm122.9-0.8h97.9v22.8h-97.9zm126.7 0h97.9v22.8h-97.9zm127.5 0h97.9v22.7h-97.9zm-657.9 22.8h777.1v26.5h-777.1zm-19.7 27.3h815v27.4h-815zm121.4-377.1l6.8 327.7h-75.9l12.2-327.7zm125.2 0l6.8 327.7h-75.9l12.2-327.7zm130.5 0l6.1 327.7h-75.9l12.1-327.7zm123 0l6.8 327.7h-75.9l12.1-327.7zm126.8 0l6.8 327.7h-75.9l12.2-327.7zm126.7 0l6.8 327.7h-75.9l12.2-327.7zm-698.2-22.8h75.2v22.8h-75.2zm126 0.7h75.1v22h-75.1zm129.8-0.7h75.9v22.7h-75.9zm122.9 0h75.1v22.8h-75.1zm126.7 0.8h75.9v22h-75.9zm127.5-0.8h75.1v22.8h-75.1zm-645.8-27.4h100.2v25.8h-100.2zm126-0.7h99.4v26.5h-99.4zm129.8 0.8h100.1v25.8h-100.1zm122.9 0h100.2v25.8h-100.2zm127.5-0.8h99.4v26.6h-99.4zm126.7 0.7h100.2v25.8h-100.2z"/>
			<path id="Path 101" class="s1" d="m363.9 244.7h37.2l-0.8-12.9h72.9v12.9h52.3v-12.9h79v12.9h49.3v-12.9h74.4v12.9h50.8v-12.9h77.4v12.9h50.8v-12.9h77.4v12.9h50.1v-12.9h77.4v12.9h34.2"/>
			<path id="Path 102" class="s2" d="m414.8 257.6h47v42.5h-47zm127.4 0.7h46.3v41.8h-46.3zm126.8 0h47v41.7h-47zm127.5-0.8h46.2v42.5h-46.2zm126.7 0.8h47v41.7h-47zm127.5 0h46.2v41.8h-46.2z"/>
			<path id="Path 103" class="s2" d="m347.2 188.6l410.6-163.2 408.2 165.4v19h-818.8zm17.5 22h780.8v121.4h-780.8zm391.5-163.9l369.6 145.7h-736.8z"/>
			<g id="&lt;Group&gt;" style="opacity: .2">
				<path id="Path 105" class="s0" d="m405.7 581.6l-241.4-388.5c0 0-27.3-53.1-78.9-73.6-50.8-21.2-78.1-17.4-78.1-17.4v-36.5h270.9v31.2c0 0-51.6 2.2-47.8 31.1 2.2 18.2 16.7 38.7 16.7 38.7l162.3 267"/>
			</g>
			<path id="Path 107" class="s1" d="m404.9 581.6l-242.1-388.5c0 0-27.3-53.1-78.1-73.6-51.6-21.2-79-17.4-79-17.4v-36.5h270.9v31.2c0 0-51.6 2.2-47.8 31.1 2.3 18.2 16.7 38.7 16.7 38.7l164.7 263.2zm0 0l-242.1-388.4c0 0-27.3-53.1-78.1-73.6-51.6-21.3-78.9-17.5-78.9-17.5v-36.4h270.9v31.1c0 0-51.6 2.3-47.8 31.1 2.2 18.2 16.6 38.7 16.6 38.7l162.4 267.1"/>
			<path id="Path 108" class="s2" d="m183.3 139.2c0 0-25.8-56.9-177.6-59.1"/>
			<path id="Path 109" class="s0" d="m405.7 508.7c-107.8-175.2-201.1-329.2-222.4-364.1-17.4-28.9 3-38.7 21.3-50.9 17.4-12.1 72-15.2 72-15.2 0 0 2.3 18.3 0 18.3-2.2 0-25 0.7-40.9 12.8-21.3 16.7 9.8 57 9.8 57l163.2 264z"/>
			<g id="&lt;Group&gt;" style="opacity: .2">
				<path id="Path 111" class="s0" d="m750.2 992c6 9.9 6.8 5.4 12.9-5.3 4.5-7.6 10.6-18.2 17.4-28.8 12.9-21.2 99.4-169.2 99.4-169.2h97.9l-209.4 339.9-8.4 12.9c0 0-2.2 6.1-6.8 6.1-3.8 0-6.1-7.6-6.1-7.6l-141.1-226.9-77.4-124.4h95.6l12.9 20.5 77.4 125.9z"/>
			</g>
			<path id="Path 113" class="s3" d="m750.2 995.1c0 0 4.5 9.1 10.6-2.3"/>
			<path id="Path 114" class="s1" d="m750.2 995.1c0 0 4.5 9.1 10.6-2.3 0.7-1.5 8.3-14.4 19.7-32.6 12.9-21.3 98.7-170.7 98.7-170.7h97.9l-208.7 342.9-8.4 12.9c0 0-1.5 4.6-5.3 4.6-4.5 0-7.6-6.1-7.6-6.1l-141.1-227.6-80.5-129.8h95.7l15.9 25.8 77.4 126z"/>
			<path id="Path 115" fill-rule="evenodd" class="s0" d="m621.2 786.4l129 208.7 4.5 3.8-0.7 65.2c152.5-248.1 25.8-49.3 166.1-276.2h55.4l-216.2 355.9c0 0-0.8 1.5-3.8 3.8-2.3 3-3.1 0.7-3.1 0.7v-74.3c-8.3-12.9-51.6-82-178.3-287.6zm421.5 164.7c-31.2 0-56.5-25.3-56.5-56.6 0-31.2 25.3-56.5 56.5-56.5 31.3 0 56.6 25.3 56.6 56.5 0 31.3-25.3 56.6-56.6 56.6zm48.2-56.9c0-26.9-21.3-48.6-47.8-48.6-26.4 0-47.8 21.7-47.8 48.6 0 26.8 21.4 48.5 47.8 48.5 26.5 0 47.8-21.7 47.8-48.5zm-60.7 33.4h-8.3v-66.1h25.8c14.4 0 21.2 6.9 21.2 18.3 0 11.3-7.6 16.6-16.7 18.2l19.8 29.6h-9.9l-18.2-29.6h-13.7zm10.6-35.7c9.9 0 19.8-0.8 19.8-11.4 0-9.1-7.6-11.4-15.2-11.4h-15.2v22.8z"/>
		</g>
	</g>
</svg>