<svg version="1.2" xmlns="http://www.w3.org/2000/svg" viewBox="0 0 1590 205" width="1590" height="205">
	<title>logo (88)-svg</title>
	<style>
		.s0 { fill: #8dd2f7 } 
		.s1 { fill: #0c66af } 
	</style>
	<path id="Layer" fill-rule="evenodd" class="s0" d="m167.6 22.9q1.1 0.8 2.2 1.8 1.1 0.9 2.1 1.8 1.1 1 2.1 2 1 0.9 2 2c-11.6 3.7-35.7 21.1-63.8 89.6q-2.7-9.7-5.5-18.4c28.1-60.9 50.3-76 60.9-78.8zm-48.8 124.7q-2.3-10.8-4.8-20.5c33.1-64.1 57.2-82.7 70.3-87.1q0.9 1.2 1.8 2.4 0.9 1.2 1.7 2.5 0.8 1.2 1.6 2.4 0.8 1.3 1.6 2.6c-14.2 7.2-39.1 29.7-72.2 97.7zm-68.6-132.7c7.9-4.9 16.5-8.6 25.5-11.1 8.9-2.5 18.2-3.8 27.5-3.8 9.3 0 18.6 1.3 27.6 3.8 8.9 2.5 17.5 6.2 25.5 11.1-10.6 5-33.5 22.4-53.1 76.8-19.6-54.4-42.4-71.8-53-76.8zm-19.7 15.6q1-1 2-2 1-1 2-1.9 1.1-1 2.1-1.9 1.1-0.9 2.2-1.8c10.6 2.8 32.9 17.9 61 78.8q-2.8 8.7-5.5 18.4c-28.2-68.5-52.2-85.9-63.8-89.6zm166.9 32.1c13.4 31.6 10 67.8-9 96.4-18.9 28.6-50.9 45.8-85.2 45.8-34.2 0-66.2-17.2-85.2-45.8-18.9-28.6-22.3-64.8-9-96.4 17.3 10.9 47.1 40.7 94.2 119.1h0.1c47.1-78.4 76.9-108.2 94.1-119.1zm-181.9-12.8q0.7-1.2 1.5-2.5 0.8-1.2 1.7-2.5 0.8-1.2 1.7-2.4 0.9-1.2 1.8-2.4c13.1 4.4 37.2 23 70.2 87.1q-2.4 9.6-4.7 20.5c-33.1-68-57.9-90.5-72.2-97.8zm80.2 115c-2.7-6.1-5.4-11.7-8-17.1q3.3-8.9 6.6-17.1 3.8 7.5 7.8 15.8c-2.1 5.9-4.2 11.9-6.4 18.4zm7.5 16.6c-2.5-5.8-5-11.2-7.4-16.5 2.5-5.6 5-11 7.4-16.1 2.5 5.1 4.9 10.5 7.4 16.1-2.4 5.3-4.8 10.7-7.4 16.5zm0-38.2q-3.4-9.4-6.8-17.8 3.5-8.4 6.8-16 3.4 7.6 6.8 16-3.3 8.4-6.8 17.8zm7.5 21.6q-0.8-2.3-1.6-4.6-0.7-2.3-1.5-4.6-0.8-2.3-1.6-4.6-0.8-2.3-1.6-4.5 3.9-8.4 7.7-15.8 3.3 8.1 6.6 17.1-1 2.1-2 4.2-1.1 2.1-2.1 4.2-1 2.2-2 4.3-0.9 2.1-1.9 4.3z"/>
	<path id="Layer" fill-rule="evenodd" class="s1" d="m1538.1 167.1h-36.9v-86.6l-26.3 56.2h-25.3l-26.3-56.2v86.6h-34.7v-129.3h42.6l32.1 64.9 31.9-64.9h42.9c0 0 0 129.3 0 129.3zm-206.5-55.5q0 0 0 0c0 0 48.8 55.4 48.8 55.4h-46l-40-47.4h-17.1v47.5h-37.8v-129.3h63.3q2.8 0 5.5 0.1 2.8 0 5.6 0.2 2.8 0.2 5.6 0.4 2.7 0.3 5.5 0.6 2.3 0.3 4.6 0.9 2.2 0.5 4.4 1.2 2.2 0.7 4.3 1.6 2.2 0.9 4.2 2 2 1 3.8 2.2 1.8 1.2 3.4 2.6 1.7 1.4 3.2 3 1.5 1.6 2.8 3.4 1.2 1.9 2.2 4 0.9 2.1 1.5 4.3 0.7 2.2 0.9 4.5 0.3 2.2 0.2 4.5 0.2 3.2-0.3 6.3-0.4 3.1-1.3 6.1-1 3-2.5 5.7-1.5 2.8-3.4 5.3-2.2 2.4-4.6 4.6-2.5 2.2-5.2 4.1-2.7 1.9-5.6 3.5-2.9 1.5-6 2.7 0 0 0 0 0 0 0 0zm-11.2-27.6q0.4-1.1 0.6-2.2 0.2-1.1 0.3-2.2 0.1-1.1 0.1-2.2 0-1.1-0.1-2.2-0.1-1.1-0.4-2.1-0.3-1.1-0.7-2.1-0.4-1-1-1.9-0.7-1-1.6-1.8-0.8-0.9-1.8-1.6-1-0.7-2.1-1.2-1.1-0.5-2.2-0.9-1.1-0.3-2.2-0.6-1.1-0.3-2.2-0.5-1.1-0.2-2.2-0.4-1.1-0.1-2.3-0.2-5-0.3-11.8-0.3h-13.5v34.7h11.5q1.9 0 3.8 0 1.9 0 3.7-0.1 1.9-0.2 3.8-0.3 1.8-0.2 3.7-0.4 1.4-0.1 2.7-0.4 1.3-0.3 2.6-0.8 1.2-0.4 2.5-1 1.2-0.6 2.3-1.4 0.9-0.5 1.7-1.2 0.8-0.6 1.5-1.4 0.7-0.7 1.3-1.6 0.7-0.8 1.2-1.7 0.4-1 0.8-2zm-96.4 83.1h-110.5v-129.3h110.5v25.1h-71v22.3h65.8v25.1h-65.8v31.6h71zm-127.3 0h-36.8v-56.8h-54.2v56.8h-36.9v-129.2h36.9v47.4h54.2v-47.4h36.8c0 0 0 129.2 0 129.2zm-142.2-104.1h-45.8v104.1h-37.9v-104.1h-45.7v-25.1h129.4c0 0 0 25.1 0 25.1zm-144.7 0.7c2.6 3.8 4.7 7.8 6.4 12.1 1.7 4.2 2.9 8.6 3.7 13.1 0.7 4.5 1 9 0.8 13.6 0.2 4.5-0.1 9.1-0.8 13.5-0.8 4.5-2 8.9-3.7 13.1-1.7 4.2-3.8 8.3-6.3 12-2.6 3.8-5.5 7.3-8.8 10.4-7.7 5.9-16.3 10.5-25.4 13.5-9.2 3.1-18.8 4.7-28.5 4.7-9.6 0-19.3-1.6-28.4-4.7-9.2-3-17.8-7.6-25.5-13.5-3.3-3.1-6.2-6.6-8.7-10.4-2.6-3.7-4.7-7.8-6.4-12-1.6-4.2-2.9-8.6-3.6-13.1-0.8-4.4-1-9-0.8-13.5-0.2-4.6 0-9.1 0.8-13.6 0.7-4.5 1.9-8.9 3.6-13.1 1.7-4.2 3.8-8.3 6.4-12.1 2.5-3.7 5.4-7.2 8.7-10.4 7.7-5.8 16.3-10.3 25.5-13.4 9.1-3.1 18.7-4.6 28.4-4.6 9.6 0 19.2 1.5 28.4 4.6 9.1 3.1 17.7 7.6 25.4 13.4 3.3 3.2 6.3 6.7 8.8 10.4zm-45.9 77.8q1.5-0.8 2.9-1.8 1.4-1 2.7-2.1 1.3-1.1 2.5-2.4 1.3-1.5 2.5-3.1 1.2-1.7 2.2-3.4 1-1.8 1.8-3.6 0.8-1.9 1.4-3.8 0.7-2.3 1.2-4.6 0.5-2.4 0.9-4.7 0.3-2.4 0.4-4.8 0.2-2.3 0.1-4.7 0.1-2.5-0.1-5-0.2-2.6-0.5-5-0.4-2.5-1-5-0.6-2.4-1.4-4.8-0.6-1.8-1.4-3.6-0.8-1.7-1.8-3.4-0.9-1.6-2.1-3.2-1.1-1.5-2.4-2.9-1.2-1.3-2.5-2.4-1.3-1.1-2.7-2-1.4-1-3-1.7-1.5-0.8-3.1-1.4-3.2-1.1-6.5-1.7-3.3-0.6-6.7-0.6-3.4 0-6.7 0.5-3.3 0.6-6.5 1.7-1.6 0.6-3.1 1.4-1.6 0.7-3 1.7-1.4 0.9-2.7 2-1.4 1.1-2.6 2.3-1.3 1.4-2.4 3-1.2 1.6-2.2 3.3-1 1.7-1.8 3.4-0.8 1.8-1.4 3.7-0.8 2.4-1.4 4.8-0.5 2.4-0.9 4.9-0.4 2.5-0.6 5-0.1 2.5-0.1 5 0 2.5 0.1 5 0.2 2.5 0.5 5 0.4 2.4 1 4.9 0.6 2.4 1.3 4.8 0.7 1.8 1.5 3.5 0.8 1.8 1.7 3.4 1 1.7 2.1 3.3 1.2 1.5 2.4 2.9 1.2 1.3 2.5 2.4 1.3 1.1 2.7 2 1.4 1 3 1.8 1.5 0.7 3.1 1.3 1.6 0.6 3.3 1.1 1.6 0.5 3.3 0.8 1.7 0.3 3.4 0.4 1.7 0.2 3.5 0.2 1.7 0 3.4-0.2 1.7-0.1 3.4-0.4 1.7-0.3 3.4-0.8 1.7-0.5 3.3-1.1 1.6-0.5 3.1-1.3zm-102.8-77.5q0.9 2.3 1.4 4.8 0.6 2.4 0.9 4.9 0.3 2.5 0.2 5 0 2.1-0.2 4.3-0.2 2.2-0.7 4.3-0.4 2.2-1 4.2-0.7 2.1-1.5 4.1-0.8 2-1.8 3.9-1 1.9-2.2 3.7-1.2 1.7-2.6 3.3-1.5 1.6-3 3.1-2.1 1.8-4.4 3.5-2.3 1.6-4.7 3.1-2.4 1.4-4.9 2.6-2.6 1.3-5.2 2.2-3.2 1.1-6.4 1.9-3.3 0.8-6.6 1.3-3.3 0.5-6.7 0.7-3.3 0.2-6.7 0.1h-23v42.1h-37.2v-129.2h61.1q2.9-0.1 5.8 0.1 2.9 0.1 5.8 0.3 2.9 0.3 5.8 0.7 2.9 0.4 5.7 1 2.2 0.5 4.4 1.1 2.1 0.6 4.2 1.5 2.1 0.8 4.2 1.7 2 1 3.9 2.1 2.1 1.2 4 2.6 1.9 1.4 3.5 3.1 1.7 1.6 3.2 3.5 1.4 1.8 2.6 3.9 1.1 2.2 2.1 4.5zm-36.8 22.6q0.3-1.2 0.5-2.3 0.2-1.2 0.3-2.4 0.1-1.2 0-2.4 0-1.3-0.2-2.5-0.2-1.2-0.6-2.4-0.4-1.2-1-2.3-0.7-1.1-1.5-2-0.7-1-1.6-1.8-0.8-0.8-1.8-1.5-1-0.7-2-1.2-1-0.6-2.1-1-1.4-0.5-2.8-0.9-1.4-0.3-2.8-0.6-1.4-0.3-2.8-0.5-1.5-0.2-2.9-0.2-5.5-0.3-14.7-0.3h-6.3v38.2h10.6q1.9 0 3.9 0 1.9-0.1 3.9-0.2 1.9-0.1 3.8-0.3 2-0.2 3.9-0.5 1.4-0.2 2.7-0.6 1.4-0.3 2.7-0.8 1.3-0.5 2.5-1.2 1.2-0.7 2.4-1.5 0.8-0.6 1.6-1.3 0.7-0.8 1.4-1.6 0.6-0.8 1.2-1.7 0.5-1 0.9-1.9 0.5-1.2 0.8-2.3zm-88.7 80.5h-39l-10-26h-53.8l-9.9 26h-38.1l53.8-129.2h43.2c0 0 53.8 129.2 53.8 129.2zm-58.2-49.8l-17.6-45.9-17.6 45.9c-0.1 0 35.2 0 35.2 0zm-62.4-79.4l-53.6 129.2h-42.4l-53.6-129.2h39.8l35.5 90.8 35.5-90.8c0 0 38.7 0 38.8 0zm1165 2.2q1 0.6 2 1.3 0.9 0.7 1.7 1.6 0.9 0.8 1.6 1.8 0.7 1 1.3 2 0.6 1.1 1.1 2.2 0.4 1.1 0.7 2.3 0.3 1.2 0.5 2.4 0.1 1.2 0.1 2.4 0 1.2-0.1 2.4-0.2 1.2-0.5 2.4-0.3 1.2-0.7 2.3-0.5 1.1-1.1 2.1-0.6 1.1-1.3 2-0.7 1-1.6 1.8-0.8 0.9-1.7 1.6-1 0.7-2 1.3-1.1 0.6-2.2 1.1-1.1 0.5-2.3 0.8-1.2 0.3-2.4 0.4-1.2 0.2-2.4 0.2-2.4 0-4.7-0.6-2.3-0.6-4.4-1.8-2.1-1.2-3.8-2.9-1.7-1.7-2.8-3.8-0.6-1.1-1.1-2.2-0.5-1.1-0.8-2.3-0.3-1.2-0.4-2.4-0.2-1.2-0.2-2.4 0-1.2 0.2-2.4 0.1-1.2 0.4-2.4 0.3-1.2 0.8-2.3 0.5-1.1 1.1-2.2 0.5-1 1.2-2 0.8-0.9 1.6-1.8 0.8-0.8 1.8-1.6 0.9-0.7 1.9-1.3 1.1-0.6 2.2-1.1 1.1-0.5 2.2-0.8 1.2-0.3 2.4-0.4 1.2-0.2 2.4-0.2 1.2 0 2.4 0.1 1.2 0.2 2.4 0.5 1.2 0.3 2.3 0.8 1.2 0.5 2.2 1.1zm-1.9 28.9q0.8-0.4 1.6-1 0.7-0.6 1.4-1.3 0.6-0.6 1.1-1.4 0.6-0.7 1-1.6 0.5-0.8 0.9-1.8 0.3-0.9 0.5-1.9 0.3-0.9 0.4-1.9 0.1-1 0.1-2 0-1-0.1-2-0.1-1-0.4-2-0.2-0.9-0.6-1.9-0.3-0.9-0.8-1.8-0.4-0.8-1-1.6-0.5-0.7-1.1-1.4-0.7-0.7-1.4-1.3-0.8-0.6-1.6-1-0.8-0.5-1.7-0.9-0.9-0.4-1.9-0.6-0.9-0.3-1.9-0.4-0.9-0.1-1.9-0.1-1 0-1.9 0.1-1 0.1-1.9 0.4-0.9 0.2-1.8 0.6-0.9 0.4-1.7 0.9-0.8 0.4-1.5 1-0.7 0.6-1.4 1.3-0.6 0.7-1.2 1.4-0.5 0.8-0.9 1.6-0.5 0.9-0.9 1.8-0.3 1-0.5 1.9-0.3 1-0.4 2-0.1 1-0.1 2 0 1 0.1 2 0.1 1 0.4 1.9 0.2 1 0.5 1.9 0.4 1 0.9 1.8 0.4 0.9 0.9 1.6 0.6 0.8 1.2 1.4 0.7 0.7 1.4 1.3 0.7 0.6 1.5 1 0.8 0.5 1.7 0.9 0.9 0.3 1.8 0.6 0.9 0.2 1.9 0.3 0.9 0.2 1.9 0.1 1 0.1 1.9-0.1 1-0.1 1.9-0.3 0.9-0.3 1.8-0.6 0.9-0.4 1.8-0.9zm-0.9-13.6q-0.3 0.4-0.7 0.7-0.4 0.3-0.8 0.6-0.5 0.2-0.9 0.4-0.5 0.2-1 0.4l5.4 8.3h-4.9l-4.4-7.7h-1.7v7.7h-4.1v-19.9h5.6q8.8 0 8.8 6 0 0.5-0.1 1 0 0.4-0.2 0.9-0.2 0.4-0.4 0.8-0.3 0.5-0.6 0.8zm-8.9-0.5h2.1q3.9 0 3.9-3 0-0.3 0-0.6-0.1-0.3-0.2-0.6-0.1-0.3-0.3-0.5-0.2-0.3-0.5-0.5-0.3-0.2-0.7-0.3-0.4-0.2-0.8-0.3-0.3 0-0.7-0.1-0.4 0-0.8 0h-2c0 0 0 6 0 5.9z"/>
</svg>