<svg version="1.2" baseProfile="tiny-ps" xmlns="http://www.w3.org/2000/svg" viewBox="0 0 592 1512" width="592" height="1512">
	<title>innovate-logo-svg</title>
	<style>
		tspan { white-space:pre }
		.shp0 { fill: #ba1859 } 
		.shp1 { fill: #ad0e4d } 
		.shp2 { fill: #f3712a } 
		.shp3 { fill: #fbc12e } 
		.shp4 { fill: #ffb21d } 
		.shp5 { fill: #f09b13 } 
		.shp6 { fill: #f2672a } 
		.shp7 { fill: #ed5f21 } 
		.shp8 { fill: #f7a828 } 
		.shp9 { fill: #ed2374 } 
		.shp10 { fill: #de1f6c } 
		.shp11 { fill: #c91e62 } 
	</style>
	<g id="Group_17586">
		<path id="Path_66" fill-rule="evenodd" class="shp0" d="M296.07 341.51L369.81 170.97L591.55 171.09L591.55 511.94L394.45 511.72L296.15 341.51L296.07 341.51Z" />
		<path id="Path_67" fill-rule="evenodd" class="shp1" d="M591.65 511.96L296.17 682.38L228.95 493.61L296.17 341.53L591.67 511.92L591.65 511.96Z" />
		<path id="Path_68" fill-rule="evenodd" class="shp0" d="M296.15 341.53L296.15 682.38L0.67 511.96L105.81 372.35L296.15 341.53L296.15 341.53Z" />
		<path id="Path_69" fill-rule="evenodd" class="shp2" d="M296.15 1170.5L197.84 1340.71L0.63 1341L0.63 1000.15L211 1005.54L296.11 1170.52L296.15 1170.5Z" />
		<path id="Path_70" fill-rule="evenodd" class="shp3" d="M296.15 829.73L206.24 1076.91L0.67 1000.15L0.67 659.28L296.17 829.73L296.15 829.73Z" />
		<path id="Path_71" fill-rule="evenodd" class="shp2" d="M296.07 1170.58L408.8 1000.63L591.55 1000.15L591.55 1340.93L394.45 1340.71L296.15 1170.5L296.07 1170.58Z" />
		<path id="Path_72" fill-rule="evenodd" class="shp4" d="M296.11 829.73L591.61 659.28L591.61 1000.15L425.95 989.37L296.19 829.73L296.11 829.73Z" />
		<path id="Path_73" fill-rule="evenodd" class="shp5" d="M296.17 829.71L426.56 904.92L591.71 1000.13L441.79 1086.55L296.3 1170.52L211.19 1005.54L296.3 829.71L296.17 829.71Z" />
		<path id="Path_74" fill-rule="evenodd" class="shp6" d="M0.59 1341L296.07 1170.58L363.29 1322.66L296.05 1511.43L0.59 1341Z" />
		<path id="Path_75" fill-rule="evenodd" class="shp7" d="M591.63 1340.98L296.15 1511.41L296.15 1170.56L591.63 1340.98Z" />
		<path id="Path_76" fill-rule="evenodd" class="shp8" d="M296.07 829.71L296.07 1170.56L169.73 1097.69L0.65 1000.13L296.13 829.71L296.07 829.71Z" />
		<path id="Path_77" fill-rule="evenodd" class="shp9" d="M591.67 171.05L433.87 262.05L296.24 341.47L229.02 189.39L296.24 0.6L591.67 171.05Z" />
		<path id="Path_78" fill-rule="evenodd" class="shp10" d="M296.15 341.49L105.81 310.68L0.67 171.07L296.15 0.64L296.15 341.51L296.15 341.49Z" />
		<path id="Path_79" fill-rule="evenodd" class="shp11" d="M0.69 511.94L0.69 171.07L296.17 341.49L0.69 511.92L0.69 511.94Z" />
	</g>
</svg>