<svg version="1.2" xmlns="http://www.w3.org/2000/svg" viewBox="0 0 1575 385" width="1575" height="385">
	<title>Screenshot 2022-08-20 at 10-svg</title>
	<style>
		.s0 { fill: #133c6e } 
	</style>
	<g id="#dcdee1ff">
		<path id="Layer" class="s0" d="m0.9 0.2c7.7-0.1 15.4-0.2 23.1 0.1 40.7 57.7 82.1 114.9 123.1 172.4 46 64.5 92.3 128.8 138.1 193.5-4.8 5.8-8.4 12.6-13.7 18-90.2-128-180.5-255.9-270.6-384zm47.3 0c10.7-0.1 21.3-0.2 31.9 0 1.8-0.2 2.6 1.6 3.5 2.7 76.1 106.2 152.3 212.3 228.5 318.5 0.8 1.3 1.7 2.6 2.3 4.1-6 8.1-11.6 16.5-18.3 24-18.5-25.5-36.5-51.4-54.8-77.1-64.4-90.7-128.7-181.5-193.1-272.2zm60.4 0c13.5-0.2 27.1 0 40.7-0.1 66 92.9 132.1 185.7 198.2 278.6 350.8 0.2 701.6-0.2 1052.4 0.1-7.6 10.9-16 21.3-24.1 31.9-141.9 0.1-283.9 0.1-425.9-0.2-208.3 0-416.6 0.1-625 0-72.2-103.4-144.2-206.8-216.3-310.3zm321.9 1.7c1.1-2 3.5-1.6 5.4-1.7 37.8 0.1 75.6-0.1 113.4 0.1-11.7 17.2-24.3 33.7-36.4 50.6q-66.6 92-133.4 184c-6.9 9.2-13.1 18.9-20.5 27.8-20.2-29.8-40.9-59.2-61.2-88.9-1.8-1.9-1.1-4.6 0.6-6.3 44.1-55.1 88-110.4 132.1-165.6zm597 43.4c7-3.1 14.2-5.8 21.4-8.8-1.3 6.7-4.1 12.9-6 19.4-1 3-1.6 6.1-3.1 8.8-4.2 2.9-9.3 4.2-13.9 6.1-9.2 3.2-17.9 7.4-27.2 10.1 2.6-8.9 4.4-18.1 8-26.7 6.5-3.9 13.9-5.9 20.8-8.9zm521.1-1.8c8.6-2.3 17.2-4.7 25.9-6.3-14.3 20.7-29.9 40.5-44.6 60.9-14.2 19.1-28.4 38.3-42.5 57.5 3.4 8.9 8.4 17 12.5 25.6 12.3 24.7 25 49.1 37.2 73.9-15.2 0.3-30.3 0.2-45.4 0.1-7.4-14.3-14.4-28.8-21.8-43.1-3.5-6.4-6-13.3-10.2-19.3-15.1 20.9-30.8 41.4-45.8 62.3q-13.1 1.4-26.4 0.8c20.2-27.3 40.1-54.7 60.2-82 1.3-1.5 1.4-3.4 0.4-5.1-11.2-22.2-22.6-44.3-33.6-66.5-3.5-6.6-6.9-13.3-9.8-20.2 14.9-0.2 29.9 0 44.9-0.1 9.1 17.3 17.8 34.9 26.6 52.3 6.7-7.7 12.3-16.4 18.5-24.5 15.1-20.7 30.3-41.4 45.4-62 1.9-2.8 5.5-3.4 8.5-4.3zm-1004 35.5c10-2.4 19.8-5.8 29.9-7.6-2.4 4.2-5.2 8.1-8.1 12-41 57-81.8 114.3-122.9 171.3-9.2 0-18.3 0.1-27.5-0.1 15.7-23.1 32.6-45.3 48.7-68 24.9-34.4 49.7-68.9 74.6-103.3 1.3-1.8 2.8-4 5.3-4.3zm132.8 15.2c15.7-10.9 34.7-17.5 53.9-16.9 13.9-0.3 28.2 3.1 39.5 11.5 9.2 6.7 14.9 16.9 18.4 27.4-5.4 2.7-11 5.2-16.3 8.1-3.8-9.6-7.7-20-16.7-26-13.4-9.1-31.5-7.8-45.6-0.6-12.1 6.6-21.1 17.8-26.9 30.1-7.1 14-10.8 29.4-13.5 44.8-2.1 16.8-2.7 34.7 4.6 50.4 4 9.2 11.7 17.1 21.5 20 13.8 3.2 28.3-0.8 39.7-8.9 10.1-6.9 17.9-16.5 25-26.4 4.3 2.8 8.5 5.9 12.6 9.1-4.6 7.7-11.1 14-17.5 20.2-16.3 15.2-38.4 24.1-60.7 24-13.3-0.8-26.9-4.1-38-12-16-10.6-25.6-29.1-28.2-47.9-5.5-40.9 14.2-83.7 48.2-106.9zm183.6-7.9c16.1-8.1 34.7-10.6 52.5-8.2 11.5 1.7 23.1 6.1 31.5 14.4 6.7 6.5 11.8 14.8 13.6 24-5.3 2.8-10.7 5.1-16 7.7-3.5-9.5-7.5-19.5-16-25.5-10.6-7.5-24.8-8.5-36.9-4.6-17.8 4.8-30.3 20.2-37.5 36.4-8 17.9-12.2 37.5-13.6 57-0.5 14.5 1.6 29.9 9.8 42.2 5.7 8.6 15.7 14.7 26.1 14.2 15.6 1.1 30.2-7.3 41-17.9 5.8-5.5 10.8-11.7 15.2-18.4 4.5 2.9 8.8 6.1 13 9.3-12.1 17.3-28.8 31.8-48.7 39-9.8 3.3-20.1 5.4-30.4 5.1-15.9-1-32.1-6.1-43.9-17.2-12.4-11-19.6-27.1-21.7-43.4-5.9-45.9 20-94.3 62-114.1zm246.7-7.8c8.7-2.4 19-1.8 26.3 4.2 7.8 6.2 12.6 15.4 16 24.6 10.4 26.6 20.3 53.3 31 79.8 0.8-0.1 2.4-0.2 3.2-0.2 2.6-8 3.3-16.5 4.9-24.7 2.7-16.3 6-32.6 8.6-49 1.9-10.4 3.3-21 6-31.2 5.6 0.1 11.1 0 16.6 0.1-0.8 8.5-2.9 16.8-4.3 25.2-7.1 41.7-14.7 83.3-21.9 124.9-1.4 7.2-2.2 14.6-5.2 21.3-3 7-12.6 9.7-19.1 5.8-3.3-1.6-5.3-4.9-6.6-8.3-18.8-46.2-37.4-92.4-56.3-138.6-0.9 0.1-2.6 0.2-3.5 0.3-2.8 12.2-4.3 24.7-6.6 37-5 27.4-9.8 54.9-14.6 82.3-1 7.7-3.1 15.2-3.6 23-5.9 0.4-11.9 0.3-17.8 0.1 7.1-39.5 13.8-79.1 21-118.6 2.5-13.6 3.7-27.6 8.6-40.6 2.9-7.8 8.9-15.3 17.3-17.4zm-547.7 40.4c8.8-12.6 16.7-25.8 26.2-38 3.6 8.4 5.2 17.5 7 26.4 4.8 28.3 9.1 56.7 12.6 85.2 2.9 20.7 5.7 41.4 7.6 62.2-13.1 0-26.2 0.1-39.3-0.1-3.3-22.5-5.4-45.3-9.2-67.7-17.7-0.2-35.5 0.2-53.3-0.2 4.3-6.7 9-13.2 13.6-19.7 12.4-0.5 24.9 0.6 37.3-0.7-1.3-12.3-2.8-24.6-4.7-36.8-0.5-3.7-0.4-7.6 2.2-10.6zm718.3-30.3c6.9-5.6 16.4-5.8 24.8-6.5 28.3-0.1 56.7-0.1 85-0.1-0.3 5.4-1.5 10.6-2.4 15.8-20.1 0.1-40.2 0-60.3 0.1-4.3 0-8.9 0.5-12.6 3-3 2.1-4.2 5.9-5 9.3-3 14.4-5 29.1-7.8 43.6 20.6 0.2 41.2 0 61.8 0-0.4 6.2-1.8 12.2-2.7 18.3-20.8 0.2-41.7 0-62.5 0.1-2.6 17.2-5.8 34.3-9 51.4-0.5 4.1-1.7 8.6 0.5 12.3 3.3 3.3 8.3 3.4 12.6 3.7 20.6 0 41.1-0.1 61.7 0-0.5 5.3-1.4 10.5-2.5 15.6-30.5 0.1-60.9 0.1-91.3 0-6.6-0.2-14.6-0.9-18.8-6.7-4.2-6.6-2.5-14.8-1.6-22.1 6.9-37.7 13.2-75.4 20.1-113 1.5-8.8 3.1-18.5 10-24.8zm-274.6 8.3c11.6-4.6 22.7-10.3 34.6-14.2-10 57.5-20.4 114.9-30.2 172.4-13 0.2-26.1 0.4-39.1-0.1 8.8-51.2 17.6-102.4 26.4-153.6 2.2-2.3 5.4-3.1 8.3-4.5z"/>
	</g>
</svg>