<svg version="1.2" xmlns="http://www.w3.org/2000/svg" viewBox="0 0 1540 352" width="1540" height="352">
	<title>140x32_Vacasa_Logo_Horizontal_Blue</title>
	<style>
		.s0 { fill: #003349 } 
	</style>
	<path id="Layer" fill-rule="evenodd" class="s0" d="m786.6 170.1v129.4h-25v-23.4l-3.7 4.1c-16.5 15.9-35.4 22.9-61.1 22.9-33.5 0-69.2-14.3-69.2-54.4 0-34.6 23.7-52.7 72.4-55.2l60.2-2.6c0.5 0 1.1-0.6 1.1-1.1v-23.3c0-17.2-17.5-27.6-46.6-27.6h-0.9c-26.4 0-43.6 10.1-48.7 28.1h-24.8c-1.3 0-2.2-1-2-2.3 2.1-10.7 7.1-20 14.8-27.9 13.6-14 35.2-21.5 61-21.5h0.9c45.5 0 71.6 19.9 71.6 54.8zm-25.3 43l-57.5 1.7c-34.4 2.2-50.5 12.9-50.5 33.7 0 19 16.8 30.4 44.6 30.4 46 0 62.8-27.3 63.4-51z"/>
	<path id="Layer" class="s0" d="m906.3 115.3c-51.2 0-87 42.2-87 94.4 0 51.5 34.4 93.6 87 93.6 28.6 0 51.8-12 68-33.7 3.6-4.8 6.8-10.2 9.5-15.9 0.5-1.3-0.4-2.9-1.8-2.9h-25.9c-4.6 7.4-9.8 12.4-11.9 14.4-10.9 9.4-22.9 14.3-37.9 14.3-33 0-61.2-31-61.2-69.7 0-39 28.2-70.3 61.2-70.3 15.9 0 28.6 5.5 40 16.4 1.6 1.6 5.5 5.8 9.3 11.3h25.9c1.4 0 2.5-1.6 1.7-2.8-4.4-9.5-9.8-16.5-13.7-20.8-16.2-18.5-37.6-28.3-63.2-28.3z"/>
	<path id="Layer" fill-rule="evenodd" class="s0" d="m1169.5 170.1v129.4h-24.9v-23.4l-3.8 4.1c-16.4 15.9-35.3 22.9-61 22.9-33.6 0-69.3-14.3-69.3-54.4 0-34.6 23.8-52.7 72.5-55.2l60.1-2.6c0.6 0 1.1-0.6 1.1-1.1v-23.3c0-17.2-17.5-27.6-46.6-27.6h-0.9c-26.4 0-43.5 10.1-48.7 28.1h-24.6c-1.4 0-2.3-1.2-2.1-2.5 2.1-10.5 6.9-20 14.6-27.7 13.5-14 35.1-21.5 61-21.5h0.9c45.5 0 71.6 19.9 71.7 54.8zm-25.5 43l-57.4 1.7c-34.5 2.2-50.5 12.9-50.5 33.7 0 19 16.7 30.4 44.6 30.4 46 0 62.8-27.3 63.3-51z"/>
	<path id="Layer" class="s0" d="m1275.9 115.1c-47.7 0-69.4 27-69.4 52.3 0 11.5 2.7 20 8.2 26.9 12.5 15 30.1 18.6 62.6 20.7 32 2.2 48 12.7 48.9 32.3 0.4 7.7-2.1 14.5-7.1 19.8-7.5 7.9-20.7 12-38.2 12h-1.6c-19.8-0.3-36.4-7.5-45.7-19.7-2.1-2.8-3.6-5.5-4.8-8.7h-24.3c-1.4 0-2.3 1.2-1.9 2.6 8.5 30.7 37.1 49.3 77 49.8h1.8c24.8 0 45.2-6.8 57.3-19.3 9.1-9.3 13.6-21.7 13.4-36.7-0.7-33.5-23.6-51.8-69.8-55.5-29.8-2.5-49.8-7.7-49.8-25.3 0-15.7 18.8-27.6 43.4-27.6 19.6 0 34.6 7.4 41.9 20.6 0.7 1.3 2 4 3.1 7.7h24.2c1.3 0 2.2-1 2-2.3-0.5-2.7-1.1-5.2-2-7.5-8.3-26.7-33.7-42.1-69.2-42.1z"/>
	<path id="Layer" fill-rule="evenodd" class="s0" d="m1540 170.1v129.4h-25v-23.4l-3.7 4.1c-16.4 15.9-35.4 22.9-61.1 22.9-33.5 0-69.2-14.3-69.2-54.4 0-34.6 23.7-52.7 72.5-55.2l60.1-2.6c0.5 0 1.1-0.6 1.1-1.1v-23.3c0-17.2-17.5-27.6-46.6-27.6h-0.9c-26.4 0-43.5 10.1-48.7 28.1h-24.8c-1.3 0-2.2-1-2-2.3 2.2-10.7 7.1-20 14.8-27.9 13.6-14 35.2-21.5 61.1-21.5h0.8c45.4 0 71.6 19.9 71.6 54.8zm-25.3 43l-57.5 1.7c-34.4 2.2-50.5 12.9-50.5 33.7 0 19 16.8 30.4 44.6 30.4 46.1 0 62.8-27.3 63.4-51z"/>
	<path id="Layer" class="s0" d="m592.1 119.4l-55.3 150.8-56.2-150.8h-24.8c-1.5 0-2.4 1.4-2 2.7l67.4 177.2h30.7l67-177.2c0.5-1.3-0.6-2.7-2-2.7z"/>
	<path id="Layer" class="s0" d="m131.3 352h-118.1c-7.3 0-13.2-5.9-13.2-13.2v-206.5c0-4.3 2.1-8.4 5.7-10.9l172.2-119.1c4.5-3 10.4-3 14.8-0.2l172.2 118.6c3.8 2.5 5.9 6.6 5.9 11.1v207c0 7.3-5.9 13.2-13.2 13.2h-117.9v-26.5h98.1c3.7 0 6.6-3 6.6-6.6v-176.4c0-2.1-1.1-4.3-3-5.5l-152.1-105.2c-2.3-1.4-5.1-1.4-7.5 0l-152.4 105.5c-1.7 1.3-2.8 3.2-2.8 5.6v176.2c0 3.7 3 6.6 6.6 6.6h98.1z"/>
	<path id="Layer" class="s0" d="m78.7 299h-26.4v-138.8c0-4.4 2.1-8.6 5.9-10.9l119.9-81.3c4.5-3 10.2-3 14.6-0.2l119.9 81c3.8 2.5 6.1 6.6 6.1 11.1v139.1h-26.4v-128.4c0-2.3-1.1-4.3-3-5.5l-99.8-67.9c-2.3-1.4-5.2-1.4-7.3 0l-100.3 68c-1.8 1.3-2.8 3.3-2.8 5.6v128.2z"/>
	<path id="Layer" class="s0" d="m131.2 299h-26.5v-110.3c0-4.5 2.4-8.6 5.9-11.1l67.5-44.4c4.3-2.9 9.8-2.9 14.1-0.2l67.4 43.9c4 2.3 6.5 6.6 6.5 11.3v110.8h-26.4v-99.6c0-2.3-1.3-4.4-3.3-5.7l-50.6-33.8-51.4 33.8c-1.8 1.3-3.1 3.4-3.1 5.6v99.7z"/>
</svg>