<svg version="1.2" xmlns="http://www.w3.org/2000/svg" viewBox="0 0 1558 964" width="1558" height="964">
	<title>logo (24)-svg</title>
	<defs>
		<clipPath clipPathUnits="userSpaceOnUse" id="cp1">
			<path d="m-5070.91 0h6628.38v1910.42h-6628.38z"/>
		</clipPath>
	</defs>
	<style>
		.s0 { fill: #4cbfad } 
	</style>
	<g id="Symbols">
		<g id="Group-34">
			<g id="Clip-Path: Fill-16" clip-path="url(#cp1)">
				<path id="Fill-16" fill-rule="evenodd" class="s0" d="m1481 557.3c-107.7 78.1-252.1 40.7-365.4-1.2-106.1 114.2-211.2 230-319.6 341.5-92.6 95.5-138.2 85.1-221.5-18.1-203.2-251.6-389.5-519.8-559.9-800.9-30-27.3-9.9-93.4 31.4-75.6 316.7 137.3 633.3 274.7 950.1 411.8 28.5 12.3 60.3 27.4 93.9 42.2 42.7-45 86.5-88.3 132-128.2 74.3-65.1 209.1-125 291.7-39.8 76.5 78.9 44.5 212.3-32.7 268.3zm-452-34.4c-298.2-116.7-591.8-255.3-886-385.7 92.4 147.6 189.5 291.4 291.8 430.6 58.8 80 119.1 158.6 180.9 235.6 49 61.1 62.5 79.4 126.7 33.5 35.1-25.1 66.4-71 96.6-103.3 63.7-68.1 126.1-140.4 190-210.7zm412.5-179.7c-39.7-22-98.1-0.4-132.7 21.4-50 31.4-92 80.9-133.3 126.7 87.1 30.5 177.8 45.1 251.4 0.8 51-30.7 80.9-111.9 14.6-148.9z"/>
			</g>
		</g>
	</g>
</svg>