<svg version="1.2" xmlns="http://www.w3.org/2000/svg" viewBox="0 0 1507 1591" width="1507" height="1591">
	<title>VEL_BIG copy-svg</title>
	<defs>
		<clipPath clipPathUnits="userSpaceOnUse" id="cp1">
			<path d="m-58.05-66.07h5732.39v1728.81h-5732.39z"/>
		</clipPath>
	</defs>
	<style>
		.s0 { fill: #212859 } 
		.s1 { fill: #f08521 } 
	</style>
	<g id="Clip-Path: Clip-Path: Page 1" clip-path="url(#cp1)">
		<g id="Clip-Path: Page 1">
			<g id="Page 1">
				<path id="Path 1" fill-rule="evenodd" class="s0" d="m747.5 852.7l-436.4-838.8c-5.1-10.2 10.3-20.5 15.5-7.7l423.5 526.4c2.5 5.1 10.2 5.1 12.8 0l420.9-526.4c7.8-10.2 20.6 0 15.5 7.7l-433.8 838.8c-5.2 7.7-12.9 7.7-18 0z"/>
				<path id="Path 2" fill-rule="evenodd" class="s1" d="m1013.6 935.2l-167.8-72.3c0-2.5 0-2.5 0-2.5l180.6-36.4 480.4 108.7v2.5h-495.8m-85.1 134l-98.4-154.9v-2.5l170.6 69.7 338 361.2v2.5l-410.2-278.6zm82.5-288.8l-180.9 33.4v-2.6l129.2-131.4 462.4-180.6v2.6l-410.7 276zm-227.1 348.3l5.1-183.1h2.6l98 154.5 77.4 490.4h-2.6l-183.1-459.2zm-284.1-193.4h-495.8c0 0-2.5-2.6 0-2.6l483-108.6 178 36.3v2.6zm85.1 131.4l-410.6 278.6-2.6-2.6 340.9-361.2 170.7-69.7c0 0 0 0 0 2.5zm-85.5-288.8l-410.3-276v-2.6l462 180.6 131.8 128.8v2.9l-181-33.7zm230.1 350.9l-183.5 459.5h-2.5l77.4-487.8 100.9-154.9h2.6z"/>
			</g>
		</g>
	</g>
</svg>