<svg version="1.2" xmlns="http://www.w3.org/2000/svg" viewBox="0 0 1524 394" width="1524" height="394">
	<title>VF_Logo_CMYK-svg</title>
	<style>
		.s0 { fill: #f46a4a } 
		.s1 { fill: #ffffff } 
	</style>
	<g id="g10">
		<g id="g12">
			<path id="path14" class="s0" d="m310.3 390.6h-139.7l-170.6-388.7l140.1-0.9z" />
			<path id="path16" class="s0" d="m724.1 123.5l-169.4 0.3l-0.6 266.9l-67.9 0.4c-33.7 0.2-61.1-27.5-60.9-61.7l0.7-203.8l-100.9 224.2l-38.6-87.7c-19.9-45.3-19.5-97.2 1.3-142.2l8.2-17.9c28.3-61.4 89.8-98.3 156.6-98.9l102.4-1.4l168.7 0.5z" />
			<path id="path18" class="s0" d="m655.2 168.4l53.4-2.6l-0.3 40.5c-2.9 37.3-38.8 71.2-75.4 74.1l-52.2 2.4l2.6-40.9c2.9-37.3 35.3-70.7 71.9-73.5z" />
			<path id="path20" fill-rule="evenodd" class="s1" d="m952.4 52.8l-48.9 128.6h-30.8l-50-128.6h36.1l28.8 83.4l28.6-83.4zm13.1-51.5h35.5v31.9h-35.5zm1.3 51.5h32.9v128.6h-32.9zm60.4-51.5h33v131.5c0 13.9 4.1 20.4 18 20.4v28.3c-34.7 0-51-9-51-41.2zm70.8 0h33v131.5c0 13.9 4.1 20.3 18 20.3v28.4c-34.8 0-51-9.1-51-41.2zm112 102.9h25.5v-7.4c0-14.4-4.4-19.1-22.9-19.1c-12.7 0-18.8 1.8-24.2 10.3l-23.2-16.2c9.5-15.7 23.9-21.3 50.4-21.3c33.2 0 52 9.7 52 46.5v84.4h-32.1v-11.3c-5.2 8.8-12.9 13.6-27.8 13.6c-26.8 0-45.3-14.1-45.3-40.3c0-27.3 20.5-39.2 47.6-39.2zm25.5 24.2h-21.7c-13.3 0-19.3 4.4-19.3 14.4c0 9.8 7.5 14.4 18.8 14.4c15 0 22.2-6.4 22.2-23.9zm129.7-75.6h32.7v126c0 43-24.2 53-56.7 53c-23.9 0-39.1-5.6-50.4-23.1l22.1-16c5.7 7.8 13.1 11.6 25.2 11.6c19.6 0 27.1-5.6 27.1-25.5v-4.1c-7 5.9-16 9-27.6 9c-33.7 0-50.9-23.9-50.9-58.1v-17.5c0-37.6 20.3-57.6 50.9-57.6c11.6 0 20.6 3.1 27.6 9zm0 73.6v-16.3c0-20.5-6.7-31.9-22.9-31.9c-16.3 0-22.9 11.4-22.9 31.9v13.4c0 18.5 5.1 32.4 22.9 32.4c17.5 0 22.9-12.6 22.9-29.5zm156.2 35.5c-9 15.7-23.9 21.8-47.1 21.8c-38.6 0-57.1-24.9-57.1-58.1v-17.5c0-38.9 19.5-57.6 53-57.6c36.3 0 53 21 53 60.2v14.6h-73.4c0.3 17.8 6 30.6 24.2 30.6c13.7 0 18.1-4.1 23-11zm-71.6-60h40.4c-0.8-16.7-7.5-23.6-19.8-23.6c-13.1 0-19.3 9-20.6 23.6zm-607.1 160.5v-6.9c0-33.2 12.8-42 44-42h9.5v28.8h-6.2c-12.1 0-14.7 5.4-14.7 18.3v1.8h20.9v27.8h-20.9v100.9h-32.6v-100.9h-16.5v-27.8zm109.1 51.5h25.5v-7.5c0-14.4-4.4-19-22.9-19c-12.6 0-18.8 1.8-24.2 10.3l-23.2-16.3c9.5-15.6 24-21.3 50.5-21.3c33.2 0 52 9.8 52 46.6v84.4h-32.2v-11.4c-5.2 8.8-12.9 13.7-27.8 13.7c-26.8 0-45.3-14.2-45.3-40.4c0-27.3 20.6-39.1 47.6-39.1zm25.5 24.1h-21.6c-13.4 0-19.3 4.4-19.3 14.5c0 9.7 7.4 14.4 18.8 14.4c14.9 0 22.1-6.5 22.1-24zm125.6-39.8c-3.4-4.9-8-9.8-16.2-9.8c-12.4 0-20.6 9-20.6 27v75.6h-33v-128.6h32.2v10.8c4.4-6.4 12.9-13.1 28.1-13.1q23.1 0 34.7 20.1zm138.7 92.8h-32.6v-75.4c0-20.5-8-27.2-19.6-27.2c-11.8 0-20.3 8.7-20.3 27v75.6h-33v-128.6h32.2v10.8c4.9-6.7 14.1-13.1 28.6-13.1c15.4 0 28 5.9 36 17.2c8.2-10 20.8-17.2 37.1-17.2c28 0 44.5 17 44.5 50.4v80.5h-33v-75.4c0-19.2-6.7-27.2-19.8-27.2c-11.8 0-20.1 8.7-20.1 27zm167.1-92.4c-5.7-6.7-11.3-10.3-25.2-10.3c-8.5 0-16.3 2.6-16.3 10.1c0 7.7 7 10.5 20.6 12.6c31.7 4.9 47.6 17 47.6 42.4c0 24.7-17.2 39.9-50.4 39.9c-26.3 0-42.2-6.4-53.3-21.3l25.2-18c5.2 6.9 11.6 11 27.6 11c11.3 0 18.3-3.8 18.3-10.5c0-8-5.7-10.6-21.9-13.2c-26.8-4.3-46.3-15.6-46.3-41.6c0-24.5 17.5-39.7 49.6-39.7c21.1 0 38.6 4.9 48.7 21.4zm70 44.3c13.7 0 24.9 11.2 24.9 24.9c0 13.7-11.2 24.8-24.9 24.8c-13.6 0-24.7-11.1-24.7-24.8c0-13.7 11.1-24.9 24.7-24.9zm0 43.3c10.2 0 18.4-8.3 18.4-18.4c0-10.1-8.2-18.4-18.4-18.4c-10.1 0-18.4 8.3-18.4 18.4c0 10.1 8.3 18.4 18.4 18.4zm-10-6.2v-25.1h10.5c6.9 0 9.6 4 9.6 7.8c0 3.7-1.9 6.1-5 7.4l6.3 9.9h-6.7l-5.4-8.9h-3.5v8.9zm9.3-13.8c3.4 0 4.8-0.9 4.8-3.4c0-2-1.5-3-4.3-3h-4v6.4z" />
		</g>
	</g>
</svg>