<svg version="1.2" xmlns="http://www.w3.org/2000/svg" viewBox="0 0 1560 737" width="1560" height="737">
	<title>VHI_BIG-0b703e93-svg</title>
	<style>
		.s0 { fill: #000000 } 
	</style>
	<g id="#000000ff">
		<path id="Layer" class="s0" d="m1100.3 0h458.9c-18.8 25.9-38.8 50.9-57.6 76.8-7.3 9.6-13.7 19.9-21.2 29.3-8 9.9-21.2 13.4-33.4 13.1-69 0-138 0-206.9 0-79.2-0.9-158.4-0.2-237.6-0.4-322.1 0-644.2-0.1-966.4 0-6.1 0.6-11.2-3.2-14.4-8.1-6.7-9.7-14.8-18.4-20.9-28.6 341.8-0.1 683.6 0 1025.4 0 6.5 0.7 11.7-3.9 15.1-8.9 19.1-24.9 40.2-48.2 59-73.2zm-130.5 165c3.2-3.9 7-8.8 12.7-8.6 132.4-0.9 264.9-0.3 397.3-0.5 19.4 0.1 38.8-0.2 58.1 0.2-26.4 35.7-54.1 70.4-80.6 106-3.6 4.3-6.4 10-12 12-393.4 0.3-786.9 0-1180.4 0.2-5.3 0.3-11-1.4-14-6-7.6-10.7-16.4-20.6-24.8-30.8q389.4 0 778.8 0c4.2 0.2 8.6-1.3 11.2-4.8 18.1-22.4 35.9-45 53.7-67.7zm-125.5 155.5c3.2-5.5 7.9-11.2 15-10.4 151.4-0.1 302.7 0 454.1 0-26.9 34.4-54 68.6-81 103-4.2 4.3-6.8 10.9-12.5 13.3-13.8 0.5-27.6 0-41.5 0.2-300.3-0.1-600.7 0-901-0.1-7.6 0.6-12.4-5.9-16.1-11.5-6.2-8.7-13.4-16.7-20-25.1 135.3-0.1 270.6 0 405.9-0.1 39.8 1 79.7 0.3 119.6 0.5 6.1 0 12.5 0.4 18.2-2.3 5.5-2.5 9.6-7.3 13.4-11.8 15.1-18.8 30.3-37.4 45.9-55.7zm-115.7 148.7c4-4.8 10.9-3.5 16.5-3.7 147.4 0.1 294.8 0 442.1 0.1-25.8 34.6-52.1 68.9-78.1 103.4-4.4 5.8-9 13.8-17.5 13.1-184.4-0.1-368.7 0-553.1 0-42.8-0.5-85.7 0.7-128.5 0.3-8.2 0-16.6-3-21.5-9.9-6.2-8.8-12.8-17.3-19.4-25.8 51.6 0 103.2 0 154.9 0 44.1-0.2 88.3 1 132.4 0.3 5.9-0.2 10.8-4 14.4-8.3 19.4-23 38.3-46.5 57.8-69.5zm-123.2 159.9c3.9-4.5 7.6-10.9 14.6-9.8 148.6-0.1 297.3-0.1 446 0-27.3 37.8-57 74-84.8 111.5-2.3 4-6.6 5.8-11.1 5.4-150.8 0-301.6 0-452.4 0 29.8-35.3 58.8-71.2 87.7-107.1z"/>
	</g>
</svg>