<svg version="1.2" xmlns="http://www.w3.org/2000/svg" viewBox="0 0 1531 300" width="1531" height="300">
	<title>viavi-logo-svg</title>
	<defs>
		<clipPath clipPathUnits="userSpaceOnUse" id="cp1">
			<path d="m0.99 0.7h1530.01v298.6h-1530.01z"/>
		</clipPath>
	</defs>
	<style>
		.s0 { fill: #ffffff } 
	</style>
	<g id="Clip-Path" clip-path="url(#cp1)">
		<g id="Layer">
			<path id="Layer" class="s0" d="m229.7 215.2l-50.7 81.7c-1.9 3.2-5 3.2-6.8 0l-170.4-289.8c-2-3.5-0.4-6.4 3.8-6.4h97.4c2.9 0 5.5 1.6 7 4l119.6 202.5c1.5 2.4 1.5 5.5 0.1 8zm87.8-214.5c2.6 0 4.8 2.1 4.8 4.8v82.3c0 2.6-2.2 4.8-4.8 4.8h-82.3c-2.6 0-4.7-2.2-4.7-4.8v-82.3c0-2.7 2.1-4.8 4.7-4.8z"/>
			<path id="Layer" class="s0" d="m531.7 299.4h-82.3c-2.6 0-4.7-1.1-4.7-4.9v-290.1c0-1.6 2.1-3.7 4.7-3.7h82.3c2.7 0 4.8 2.1 4.8 4.8v289c0 2.7-2.1 4.8-4.8 4.8zm692.7-84.1l-50.8 81.6c-1.9 3.3-5 3.3-6.8 0l-170.4-289.7c-2.1-3.6-0.4-6.5 3.7-6.5h97.5c2.9 0 5.5 1.6 6.9 4l119.7 202.6c1.5 2.4 1.5 5.5 0.2 8zm87.7-214.6c2.6 0 4.7 2.2 4.7 4.8v82.4c0 2.6-2.1 4.7-4.7 4.7h-82.4c-2.6 0-4.7-2.1-4.7-4.7v-82.4c0-2.6 2.1-4.8 4.7-4.8zm214.2 298.7h-82.3c-2.6 0-4.7-2.2-4.7-4.8v-289c0-2.7 2.1-4.9 4.7-4.9h82.3c2.6 0 4.8 2.2 4.8 4.9v288.9c0 2.7-2.2 4.8-4.8 4.8zm-774.5-210.9l50.1-85.3c1.9-3.2 5-3.2 6.8 0l170.7 289.7c2.1 3.5 0.4 6.4-3.6 6.4h-98.8c-2.8 0-5.5-1.6-6.9-3.9l-118.2-198.9c-1.5-2.5-1.5-5.6-0.1-8zm-88.1 210.8c-2.6 0-4.7-2.1-4.7-4.7v-82.4c0-2.6 2.1-4.7 4.7-4.7h82.3c2.6 0 4.8 2.1 4.8 4.7v82.4c0 2.6-2.2 4.7-4.8 4.7z"/>
		</g>
	</g>
</svg>