<svg version="1.2" xmlns="http://www.w3.org/2000/svg" viewBox="0 0 1516 1409" width="1516" height="1409">
	<title>viavi-logo-svg</title>
	<defs>
		<clipPath clipPathUnits="userSpaceOnUse" id="cp1">
			<path d="m0.66 0.32h7214.28v1408.36h-7214.28z"/>
		</clipPath>
	</defs>
	<style>
		.s0 { fill: #ffffff } 
	</style>
	<g id="Clip-Path" clip-path="url(#cp1)">
		<g id="Layer">
			<path id="Layer" class="s0" d="m1079.2 1011.8l-239.2 385.7c-9 15.2-23.4 15.2-32.1 0l-803.3-1366.8c-9.3-16.7-1.8-30.4 17.7-30.4h459.6c13.7 0 25.9 7.6 32.8 18.8l564.1 955.2c6.9 11.5 6.9 26 0.4 37.5zm414.1-1011.5c12.3 0 22.4 10.1 22.4 22.4v388.6c0 12.3-10.1 22.4-22.4 22.4h-388.1c-12.3 0-22.4-10.1-22.4-22.4v-388.6c0-12.3 10.1-22.4 22.4-22.4z"/>
		</g>
	</g>
</svg>