<svg version="1.2" xmlns="http://www.w3.org/2000/svg" viewBox="0 0 1565 757" width="1565" height="757">
	<title>kxjvvkxis3tqqopffnue-svg</title>
	<style>
		.s0 { fill: #8dc63f } 
		.s1 { fill: #1c75bc } 
		.s2 { fill: #27aae1 } 
		.s3 { fill: #662d91 } 
		.s4 { fill: #231f20 } 
		.s5 { fill: #6d6e71 } 
	</style>
	<g id="#8dc63fff">
		<path id="Layer" class="s0" d="m1313.9 108.3c73.3-30.9 147.4-61.9 213.1-107.3-12.1 40.3-42.5 72.5-76.6 95.9-35.8 24.1-75.7 41.2-116.1 56.1-50.5 18.4-102.1 33.5-153.1 50.5-45.1 15.4-90.3 31.9-131.8 55.8-12.2 6.8-23.3 15.2-35 22.8 15.2-13.6 31.9-25.3 47.2-38.8 74.7-60.7 164.2-98.4 252.3-135zm-380.1 100.2c-17.9-24.6-29.2-55.5-25.1-86.1 8.8 21.5 23.4 41 42.5 54.4 30.4 21.9 65.8 35.4 101.4 45.8-16.7 14.7-38.5 25.8-61.3 23-23.6-3-43.5-18.6-57.5-37.1zm-25.5-2.4c6.5 11.6 13.6 23.4 24.6 31.3 21.3 15 45.8 28.7 72.6 27.7-10.1 10-22.1 20.2-37 21.1-15.4 1.2-29.3-8.4-38.6-19.9-13.5-17.1-21.1-38.5-21.6-60.2z"/>
	</g>
	<g id="#1c75bcff">
		<path id="Layer" class="s1" d="m1491.8 119.6c29.3-18.3 54.4-43.2 72.9-72.4-2.7 35.9-19.1 70.5-45.5 95.1-31.6 29.6-72.1 47.3-112.7 60.8-62.5 20.3-127.5 31.4-191.7 44.6-41.6 8.7-83.3 17.7-123.3 32.1-13.3 4.9-25.7 11.8-39.2 16.2 12.9-7.7 27.5-11.6 40.7-18.5 38.2-28.1 82-47.3 126.8-62 45.8-15.4 92.8-26.6 139.1-40.3 46.1-13.7 92.4-29.2 132.9-55.6zm-37.7 88.8c38.3-16.3 75.7-34.9 110.5-57.9-4.4 33.7-22.4 65.4-49.5 86.1-33.8 26.1-75.8 38.6-117.2 46.4-99.3 18.2-201 10.9-300.8 24.4 23.7-3.9 47.1-9.4 70.4-15.3 96.7-23.2 194.4-45.3 286.6-83.7z"/>
	</g>
	<g id="#27aae1ff">
		<path id="Layer" class="s2" d="m927.1 57.3c5.8 13.2 12.2 26.4 22.1 37.2 26.7 30 65.1 44.9 98.9 65.2 19.6 8.6 39.9 15.6 60.5 21.5-10.7 7.9-17.5 20.5-29.3 26.8-34.3-7.7-68.6-17.2-99.8-33.6-21.2-11.4-41-27.8-50.6-50.4-8.9-21.1-7.3-45-1.8-66.7z"/>
	</g>
	<g id="#662d91ff">
		<path id="Layer" class="s3" d="m1440.3 303.2c33.9-8.4 66.5-21.9 96.3-40.1-14.1 38-44.8 68.4-81.4 85.3-43.9 20.5-93.4 25.1-141.3 22.6-54.8-3.8-109.7-16.4-158.9-41.3 43.4-0.9 86.9-2.7 130.2-6.2 52.1-2.5 104.6-6.8 155.1-20.3z"/>
	</g>
	<g id="#231f20ff">
		<path id="Layer" fill-rule="evenodd" class="s4" d="m0.5 302.1c12.3 0 24.5 0 36.8 0 5.7 50.3 11.1 100.6 16.7 150.9 2.4 22.6 4.6 45.3 4.6 68 4.9-73.2 14.8-145.9 22.4-218.9 12.2 0 24.5 0 36.8 0-13.9 97.6-27.7 195.2-41.6 292.9-11.4-0.1-22.7-0.1-34.1 0-13.9-97.6-27.7-195.2-41.6-292.9zm186.3 0c12.1 0 24.3 0 36.4 0q0 15.3 0 30.6c-12.1 0-24.3 0-36.4 0 0-10.2 0-20.4 0-30.6zm311.8 73.3c23-25.7 69.7-23.6 89.3 5.1 8.6 11.8 7.5 27 7.3 40.7q-18.2 0.1-36.4 0c0-10.1 0-20.3 0-30.4q-17.6-0.1-35.2 0c0 57.6 0 115.3 0 172.9 11.8 0.1 23.5 0.1 35.2 0.1q0.1-15.3 0-30.5 18.2 0 36.4 0c0.1 13.9 1.4 29.4-7.5 41.3-20.3 29.2-68.9 30.1-91 2.5-7.2-8.3-9.6-19.5-9.5-30.2q0-69.4 0-138.7c-0.2-11.8 2.9-24.2 11.4-32.8zm184.7 1.3c20.7-24.4 62.7-25.9 85-2.7 7.2 7 12.3 16.7 12.4 27 0 30.6-0.1 61.2 0 91.8-23.7 0-47.4 0-71 0-0.1 23.7 0 47.3-0.1 71 11.8 0 23.5-0.1 35.3 0.1-0.1-10.2-0.1-20.4 0-30.6q17.9 0 35.7 0c-0.3 12.9 2.3 27.2-5.3 38.6-16.1 26.5-55.1 32.8-80.4 16.1-12.6-7.6-21.4-21.6-21.6-36.5-0.1-48.5 0-97.1-0.1-145.7-0.3-10.5 3.3-21.1 10.1-29.1zm26.4 14.1c-0.1 23.6 0.1 47.3-0.1 70.9 11.7 0 23.5 0 35.3 0-0.1-23.6 0-47.3-0.1-70.9q-17.6-0.1-35.1 0zm-522.9-30.6c12.1 0 24.3 0 36.4 0 0 79.1 0 158.2-0.1 237.3-16.4-0.8-35.3-11.2-36.1-29.4-0.5-69.3-0.1-138.6-0.2-207.9zm115 0c25 0.1 50.1-0.1 75.1 0 15.8 0.6 32 12.9 32.2 29.6 0.2 68.4 0 136.7 0.1 205.1q-18.2 0-36.4 0c0-68 0.1-136.1-0.1-204.1q-17.5-0.1-35.1 0 0 102 0 204.1c-11.9 0-23.8 0-35.8 0 0-78.2 0-156.5 0-234.7zm557.5 31.6c-0.9-17.1 15.2-30.5 31.3-31.5 13.7-0.4 27.3 0.1 40.9-0.1q-0.1 15.3 0 30.6c-11.9 0-23.9-0.1-35.8 0-0.1 68 0 136 0 204.1q-18.2 0-36.4 0 0-101.6 0-203.1zm130.6-31.6c12.3 0 24.7 0 37.1 0 8 24.9 15.5 50.1 23.4 75.1 7.6-25.1 15.5-50 23.2-75.1 12.5 0 24.9-0.1 37.3 0.1-14 38.9-27.7 78-41.9 116.9 14 39.3 28.1 78.5 42.1 117.8-12.5-0.1-24.9-0.1-37.4-0.1-7.7-25.1-15.5-50.2-23.4-75.3-7.9 25.1-15.5 50.2-23.4 75.3-12.4 0-24.8 0.1-37.2-0.1 13.7-38.9 28-77.7 41.6-116.7-12.5-39.7-28.1-78.4-41.4-117.9z"/>
	</g>
	<g id="#6d6e71ff">
		<path id="Layer" fill-rule="evenodd" class="s5" d="m565.9 662.9c11.3 0.3 22.7-0.4 34 0.3 8.8 0.7 17 6.9 18.9 15.7 2.3 10.8 2 24.7-8 31.6-9.4 6.9-21.7 5.1-32.6 5.3 0 13.6 0 27.2 0 40.8-4.2 0.1-8.3 0.2-12.3 0.3q0.1-47 0-94zm12.3 10.6c0 10.4 0 20.8 0 31.1 6.9-0.2 14.1 1.1 20.7-1.3 12-4.8 11.1-25.9-1.6-29.2-6.3-1.1-12.8-0.5-19.1-0.6zm116.2-10.4c4.2-0.1 8.4-0.1 12.6-0.2 0.5 13.5 0.1 27 0.3 40.4 10.8 0.1 21.6 0 32.3 0.1-0.1-13.5 0-27 0-40.5q6.1 0.1 12.2 0.2c0.2 31.2 0.1 62.4 0.1 93.5-4.2 0.1-8.3 0.2-12.3 0.3 0-14.3-0.1-28.6 0-42.9-10.7 0.1-21.5 0.1-32.3 0.1-0.1 14.2 0 28.4-0.1 42.6q-6.4 0-12.7 0c-0.1-31.2-0.1-62.4-0.1-93.6zm157.2-0.2c5.3 0.1 10.6 0.1 15.8 0.1q15.5 46.9 30.7 93.9-7.1-0.1-14.1-0.1c-2.2-7.5-4.5-14.9-6.8-22.3-11.9 0.1-23.7 0-35.5 0-2.4 7.4-4.7 14.9-7.1 22.3q-6.3 0-12.7 0c9.9-31.3 19.9-62.6 29.7-93.9zm-6.7 60.5q14.4 0 28.8 0c-4.8-16.1-9.6-32.3-14.6-48.4q-7.2 24.2-14.2 48.4zm122.3-60.5c13.6 0.6 27.4-1 40.9 0.8 19.6 5.8 19.3 39.1-0.9 44.1 5.5 1.2 10.6 4.9 11.7 10.7 2.7 12.6 1.8 25.7 4.6 38.4q-6.5-0.1-13.1-0.1c-3.7-11.8-1.5-24.4-4.4-36.3-5-9.7-17.7-5.7-26.4-6.4-0.1 14.2 0 28.4-0.1 42.5-4.1 0.1-8.2 0.2-12.2 0.3 0-31.3 0-62.6-0.1-94zm12.4 10.6q0 14.7-0.1 29.4c9.1-1.1 21 3.4 27.4-5.1 4.2-7 4.1-18.8-4-22.9-7.5-2.4-15.6-1.1-23.3-1.4zm117.3-10.5c6.7 0 13.5 0 20.2-0.1 8 25.8 15.2 51.9 23.7 77.6 7.5-25.9 15.6-51.6 23.3-77.4 6.8-0.1 13.5-0.1 20.3-0.1q0 46.9 0 93.8c-4.2 0-8.3 0-12.4 0 0.1-27.5-0.3-55 0.3-82.5-8.9 27.3-17.4 54.8-26 82.2q-6.1 0.2-12.2 0.4c-8.1-28-17.2-55.6-25.5-83.6 0.1 27.8 0.1 55.6 0 83.4q-5.9 0.1-11.7 0.2-0.1-47 0-93.9zm186.7 0.2c5.3-0.2 10.6-0.2 15.9-0.3 10.4 31.3 20.4 62.6 30.7 93.9q-7 0-14 0.1c-2.5-7.3-4.7-14.8-6.8-22.4-11.8 0-23.7 0-35.6 0-2.5 7.4-4.8 14.9-7.1 22.3q-6.4 0-12.7 0c9.7-31.3 19.9-62.3 29.6-93.6zm7.5 12c-4.9 16-9.4 32.2-14 48.2 9.5 0 19.1 0 28.7 0-4.8-16.1-9.4-32.2-14.7-48.2z"/>
	</g>
</svg>