<svg version="1.2" xmlns="http://www.w3.org/2000/svg" viewBox="0 0 1556 622" width="1556" height="622">
	<title>VINP November Investor Presentation-1-pdf-svg</title>
	<defs>
		<clipPath clipPathUnits="userSpaceOnUse" id="cp1">
			<path d="m-9290.86-5109.86h11410.5v6418.29h-11410.5z" />
		</clipPath>
	</defs>
	<style>
		.s0 { fill: #ffffff } 
	</style>
	<g id="Clip-Path: Page 1" clip-path="url(#cp1)">
		<g id="Page 1">
			<path id="Path 31" fill-rule="evenodd" class="s0" d="m1449.9 502.6h0.6c3.5-12.5 14.8-21.4 27.9-22q2.4 0 4.7 0.6v17.2q-2.9-0.6-5.9-0.6c-12.5 0.6-23.2 10.1-23.8 22.6q-1.2 4.2-1.2 8.9v52.3h-17.8v-68.3c0-11.9-0.6-22-0.6-30.9h15.5zm-206.2-3.6c6.5-11.9 19-19 32.6-18.4c14.3 0 35.7 7.7 35.7 41.6v59.4h-18.4v-57.6c0-16.1-6-29.2-23.2-29.2c-11.3 0-20.8 7.8-23.8 17.9q-1.2 4.1-1.2 8.3v60h-18.4v-71.9c0-10.1 0-18.4-0.6-26.1h15.5zm-74.9-34.5l17.2-5.4v23.8h26.2v13.7h-26.2v52.9c0 12.5 3.6 19 13.7 19q5.3 0.6 10.7-1.2l0.6 13.7c-4.8 1.8-10.7 2.3-16.1 2.3c-7.1 0.6-14.2-2.3-19.6-7.7c-5.3-7.1-7.7-16.6-6.5-25.5v-53.5h-16.1v-13.7h16.1zm-57.7 38h1.2c3-12.4 14.3-20.8 27.4-21.3q2.3 0 5.3 0.5v16.7q-3.6-0.6-6.5-0.6c-12.5 0.6-23.2 10.7-23.8 23.2q-1.2 4.1-1.2 8.3v52.3h-17.8v-68.4c0-11.2 0-21.3-0.6-30.3h15.4zm-205-2.9c7.1-12.5 20.8-19.6 35.7-19.1c23.7 0 42.2 20.3 42.2 50c0 35.6-22 52.9-45.8 52.9c-11.9 0.6-23.8-5.4-30.3-15.5v53.5h-17.8v-107c0-12.5-1.2-22.6-1.2-32.1h16zm1.2 41q0 3.6 0.6 7.2c3 12.4 14.3 21.4 27.3 21.4c19.1 0 30.4-15.5 30.4-38.1c0-19.6-10.7-36.8-29.8-36.8c-13 0.6-24.3 9.5-27.3 22.6q-1.2 2.9-1.2 7.1zm-197.3-134.3h-103.4v-372l103.4 138.4zm-567.5 0l-142.1-394h104l90.4 251.4l51.1 143.2zm59.4-161.6l83.8-231.8h103.4l-135.5 376.2zm244.8-232.4h103.5v394h-103.5zm159.3-0.6v-1.1h104l190.8 255.5l104 138.5v0.6h-104l-190.8-255.6l-25.5-34.4zm294.1 233.5v-234.1h104v372.6zm133.2 232.9c30.9 0 38 20.2 38 40.4v36.9q0 11.9 1.8 23.8h-16.7l-1.1-11.9h-0.6c-7.2 9.5-18.5 14.8-30.3 14.2q-1.2 0-2.4 0c-16.1 0-28.6-12.4-28.6-27.9c0-23.8 22-36.8 60.7-36.8c0-1.6 0-5.2 0-7.2c-1.8-10.7-11.9-19-23.2-17.8c-8.9 0-17.8 3-25.6 7.7l-4.1-11.9c9.5-5.9 21.4-8.9 32.7-8.9zm20.2 51.1c-19.6-0.6-41.6 3-41.6 22q-0.6 1.2-0.6 2.4c1.2 8.9 8.3 15.5 17.2 14.9c11.3 0.6 20.8-6.6 24.4-16.7q1.2-2.4 1.2-5.3zm125.4-257.9c38 47.5 108.1 55.2 156.3 17.8l58.8 72.5c-74.9 59.4-181.9 59.4-257.3 0c-88.6-70.1-102.9-197.9-31.5-285.3c70.7-87.9 200.2-101.6 288.8-31.5l-58.8 72.5c-19.7-15.4-44-23.7-69-23.7c-61.8-0.6-111.7 48.7-111.7 109.3c0 25 8.9 49.3 24.4 68.4zm166.4 262q0 2.4 0 4.8c1.1 17.2 16.6 30.3 34.4 29.1c9.5 0.6 18.5-1.2 27.4-4.7l2.9 12.4c-10.7 4.8-21.4 6.6-33.2 6.6q-3 0-6.6 0c-25.5-2.4-44.6-25-42.2-50c0-29.1 17.9-52.8 47-52.8c32.1 0 41 27.9 41 46.3q0 4.2-0.6 8.3zm53.5-16c0-14.3-11.3-26.2-25.6-26.2c-15.4 1.2-27.3 13.7-27.9 29.2h52.9q0.6-1.8 0.6-3zm51.1-506.3h104v394.6h-104zm77.2 480.7c-10.7 0-16.6 4.8-16.6 13.1c0 8.3 5.9 11.9 19 16.7c17.3 6.5 26.2 15.4 26.2 29.7c0 17.8-13.1 29.7-37.5 29.7c-9.5 0-19.6-2.4-27.9-6.6l4.7-13.6c7.2 4.1 15.5 6.5 23.8 7.1c13.7 0 19.6-6.5 19.6-14.9c0-8.3-5.3-13-18.4-18.4c-18.4-5.9-26.7-15.4-26.7-27.3c0-16.1 13-29.1 34.4-29.1c8.4 0 16.7 2.3 24.4 5.9l-4.8 13.1c-5.9-3.6-13-5.4-20.2-5.4z" />
		</g>
	</g>
</svg>