<svg version="1.2" xmlns="http://www.w3.org/2000/svg" viewBox="0 0 1511 1842" width="1511" height="1842">
	<title>logo_menu-svg</title>
	<style>
		.s0 { fill: #898a8d } 
		.s1 { fill: #030405 } 
	</style>
	<g id="Layer_2">
		<g id="Layer_1-2">
			<path id="Layer" class="s0" d="m1195.9 1161.1q-9.2-14.1-19.2-27.6q-10-13.5-20.7-26.4q-10.8-12.9-22.3-25.1q-11.5-12.3-23.8-23.8c-43.3-54.5-128.9-124.4-172-178.9c-125.6-160.4-204.6-307-323.9-470.1c-132-184-156-227.1-292.4-409.2" />
			<path id="Layer" class="s0" d="m361.5 1173.8c99-203.6 162.9-409.2 294.6-603.4q113.7-152 220.4-307.5q1.8-63.2 64.3-67.4" />
			<path id="Layer" class="s0" d="m1510.7 807.8c-225-35.2-443.5-62.1-663.5-115.7c-260.5-63.6-546.7-119.7-780.3-222.5" />
			<path id="Layer" class="s1" d="m822.3 1154.2c12-54.1-56.7-187-71.3-254.2c-14.8-108.4-45.9-226.8-54.3-335.5c-13.5-124.4-23.5-266.6-14.9-391.4" />
			<path id="Layer" class="s0" d="m1161.5 663.5c-306.9-16.7-602-30.7-885.8-120.8c-94.8-29.9-175.1-66.8-275.7-88.1" />
			<path id="Layer" fill-rule="evenodd" class="s1" d="m143.1 1759h49.9v8h-40.9v28h33.4v8h-33.4v29.3h40.9v8h-49.9zm63.8 0h16.8l31.1 73.3h2.5v-73.3h8.9v81.3h-16.5l-31-73.3h-2.2v73.3h-9zm78.2 0h49.4v8h-40.4v28h33.3v8h-33.3v29.3h40.4v8h-49.4zm72.7 50.1v31.1h-9v-81.2h30.1c17 0 25.7 7.5 25.7 24.7c0.3 2.5 0.2 5-0.3 7.4c-0.5 2.5-1.5 4.8-2.8 7c-1.4 2.1-3.1 4-5.1 5.5c-1.9 1.6-4.2 2.8-6.6 3.6l15.6 33h-10l-14.7-31.1zm21.1-42.2h-21.1v34.2h21.2c12.2 0 16.5-7.3 16.5-17.4c0.3-2.3 0.1-4.6-0.6-6.8c-0.7-2.2-1.9-4.2-3.5-5.8c-1.6-1.6-3.6-2.8-5.8-3.6c-2.1-0.7-4.4-0.9-6.7-0.6zm73.2 31.8h22.5v40.4q-3.3 0.6-6.6 1q-3.3 0.5-6.6 0.9q-3.3 0.3-6.6 0.6q-3.4 0.2-6.7 0.3c-24.8 0-31.4-15.3-31.4-41.5c0-26.3 6.8-42.1 31.2-42.1q3.3 0.1 6.7 0.3q3.3 0.3 6.7 0.7q3.3 0.4 6.7 0.9q3.3 0.5 6.6 1.2v7.5q-3.2-0.6-6.4-1q-3.2-0.4-6.4-0.7q-3.2-0.3-6.5-0.5q-3.2-0.2-6.4-0.3c-18.8 0-22.9 11-22.9 34c0 23 4 33.5 22.8 33.5q2.1 0 4.2-0.1q2.1-0.1 4.1-0.4q2.1-0.2 4.2-0.5q2.1-0.3 4.2-0.6v-25h-12.9zm63.2 41.6h-9v-34.3l-25.8-47h10.3l20.2 38.6l20.2-38.6h10.2l-25.7 47zm60.4-81.2h48.7v7.9h-39.5v31.8h33.4v8h-33.4v33.5h-9.2zm56.2 41.6c0-26.8 6.9-42.2 32.1-42.2c25.2 0 32.1 15.2 32.1 42.2c0 27-6.9 41.4-32.1 41.4c-25.2 0-32.1-14.8-32.1-41.4zm54.8 0c0-22-4.2-34.2-22.7-34.2c-18.6 0-22.8 12.1-22.8 34.2c0 22.1 4 33.4 22.8 33.4c18.8 0 22.7-11 22.7-33.4zm33.7 8.6v31.1h-9v-81.3h30.1c17 0 25.8 7.6 25.8 24.7c0.3 2.5 0.2 5.1-0.4 7.5c-0.6 2.5-1.5 4.8-2.9 7c-1.3 2.1-3 4-5 5.5c-2 1.6-4.3 2.8-6.6 3.6l15.5 33h-9.9l-14.8-31.1zm21-42.2h-21v34.2h21.1c12.9 0 16.6-7.3 16.6-17.5c0.4-2.2 0.2-4.5-0.5-6.7c-0.8-2.2-2-4.2-3.6-5.8c-1.6-1.6-3.6-2.8-5.7-3.6q-3.3-1.1-6.9-0.6zm57.4-8h58.8v8.2h-24.9v73.1h-9.4v-73.1h-25.7zm63.2 41.5c0-26.8 6.9-42.2 32-42.2c25.1 0 32.3 14.7 32.3 42.2c0 27.5-7 41.4-32.2 41.4c-25.2 0-32.1-14.8-32.1-41.4zm54.8 0c0-22-4.3-34.2-22.8-34.2c-18.5 0-22.8 12.1-22.8 34.2c0 22.1 4 33.4 22.8 33.4c18.8 0 23-11 23-33.4zm25.1-41.5h16.4l23 68.6l22.9-68.6h16.3v81.2h-9v-71.6h-1.7l-23.5 68.7h-10.2l-24-68.7h-1.7v71.6h-9zm94.2 41.6c0-26.8 6.9-42.2 32-42.2c25.1 0 32.2 15.2 32.2 42.2c0 27-7 41.4-32.2 41.4c-25.2 0-32-14.8-32-41.4zm54.8 0c0-22-4.3-34.2-22.8-34.2c-18.5 0-22.8 12.1-22.8 34.2c0 22.1 4 33.4 22.8 33.4c18.8 0 22.8-11 22.8-33.4zm33.8 8.6v31.1h-9v-81.3h30c17.1 0 25.7 7.6 25.7 24.7c0.3 2.5 0.2 5.1-0.4 7.5c-0.5 2.5-1.5 4.8-2.9 7c-1.3 2.1-3 4-5 5.5c-2 1.6-4.2 2.8-6.6 3.6l15.5 33h-9.9l-14.6-31.1zm20.9-42.2h-20.9v34.2h21.1c12.8 0 16.6-7.3 16.6-17.5c0.3-2.2 0.1-4.6-0.6-6.8c-0.7-2.2-1.9-4.1-3.6-5.8c-1.6-1.6-3.6-2.8-5.8-3.5c-2.2-0.8-4.5-0.9-6.8-0.6zm50.9 42.2v31.1h-9v-81.3h29.9c17.1 0 25.8 7.6 25.8 24.7c0.3 2.5 0.2 5.1-0.4 7.5c-0.5 2.5-1.5 4.8-2.9 7c-1.3 2.1-3 4-5 5.5c-2 1.6-4.3 2.8-6.7 3.6l15.7 33h-10l-14.7-31.1zm0-42.2v34.2h21.1c12.9 0 16.6-7.3 16.6-17.5c0.4-2.3 0.2-4.7-0.5-7c-0.8-2.2-2.1-4.2-3.8-5.9c-1.7-1.6-3.8-2.8-6-3.5c-2.3-0.7-4.7-0.8-7-0.3zm58.1 33.6c0-26.8 6.9-42.2 32-42.2c25.1 0 32.2 15.2 32.2 42.2c0 27-6.8 41.4-32.2 41.4c-25.3 0-32-14.8-32-41.4zm54.8 0c0-22-4.1-34.2-22.8-34.2c-18.6 0-22.7 12.1-22.7 34.2c0 22.1 4 33.4 22.7 33.4c18.8 0 22.8-11 22.8-33.4zm27.4-41.6l13.9 73.3h3.3l16.6-72.5h10.6l16.6 72.5h3.3l13.9-73.3h9.3l-16.5 81.3h-16.5l-15.4-69.4l-15.3 69.4h-16.6l-16.6-81.3zm-381.7-424.5h-111.3v-61.2h301.2v61.6h-111.9v327.2h-78zm-164.1-53.7q0 0-0.1 0l0.1-0.2zm-0.1 0l-7.1 64q-9.3-4-19-7.2q-9.7-3.1-19.7-5.2q-9.9-2.1-20-3.2q-10.1-1-20.3-1.1c-26.8 0-61.4 11.7-61.4 54c0 67.3 170.5 38.9 170.5 169.1c0 85.2-67.4 117.5-145.9 117.5q-12.7-0.1-25.3-1q-12.6-1-25.1-2.9q-12.5-1.9-24.9-4.7q-12.3-2.8-24.4-6.5l7.3-70.1q10.1 5.7 20.7 10q10.7 4.4 21.8 7.4q11.1 3 22.5 4.7q11.4 1.6 22.9 1.8c29.6 0 69.1-15 69.1-50.1c0-74-170.4-43.4-170.4-172c0-86.8 67.3-118.4 135.9-118.4q11.8-0.2 23.6 0.6q11.7 0.8 23.4 2.6q11.7 1.7 23.2 4.4q11.4 2.7 22.6 6.3zm-377.2-7.6h77.8v388.8h-77.8zm-270.6 388.4l-133.6-388.4h83.6l99.9 304.9h1.1l98.4-304.9h77.2l-130.5 388.8h-95.7zm1271.8 0l-33.5-89h-157.4l-34 89h-80.6l151.4-388.4h88l152.7 388.4zm-111.2-310.6h-1.1l-56.3 160.4h113.6z" />
		</g>
	</g>
</svg>