<svg version="1.2" xmlns="http://www.w3.org/2000/svg" viewBox="0 0 1564 330" width="1564" height="330">
	<title>Vivendi_logo-svg</title>
	<style>
		.s0 { fill: #7e0c6e } 
	</style>
	<path id="Layer" class="s0" d="m266.6 131l-96.6 192.5h-69.9l-99.3-192.5h64.6l69.8 141.9 67.4-141.9z"/>
	<path id="Layer" fill-rule="evenodd" class="s0" d="m290.9 131h57.5v192.5h-57.5zm0.1-79.4h57.3v52.5h-57.3zm1215 79.4h57.4v192.5h-57.4zm0.1-79.4h57.3v52.5h-57.3zm-510.4 170.5v101.4h-57.4v-104.2c-0.5-23.4 6.5-41.5 21.9-58.6 20.5-22.8 53-35.6 96.4-35.6 43.4 0 75.8 12.8 96.4 35.6 15.4 17.1 22.3 35.2 21.9 58.6v104.2h-57.4v-101.4c0.8-33.1-24.8-48.9-60.9-48.9-36.2 0-61.8 15.8-60.9 48.9zm-355.7-91.1l-96.5 192.5h-70l-99.2-192.5h64.5l69.9 141.8 67.4-141.8zm141.5 145.1h103.1v47.4h-107.4c-41.7 0-72.2-7-95.5-23.9-24.7-18-38.1-43.2-38.1-70.5 0-27.9 11.8-51.9 31.5-70.3 21.3-19.7 53.5-32.6 92.4-33.6 103.2-2.5 125.6 61.3 129 74.2 2.2 8.2 3.9 16.7 4.2 25.3l-186 36.7c10 8 21.8 10.7 27.7 11.8 10.1 1.8 23.4 2.9 39.1 2.9zm-70.6-82.1c-6.7 7.2-11.7 17.5-12.6 28l135.4-25.8c-6.8-14-25.8-26.6-59.8-26.6-27.8 0-48.7 9.1-63 24.4zm750.6-193.1v217.2c0 31.5-9.1 58.8-29.1 78.2-22.6 22-56.9 32.9-99.1 32.9-40.4 0-74.2-13-97.7-37.4-16.4-17.1-25.1-38.7-25.1-62.5 0.1-27.6 9.2-50.3 27.2-67.4 33.3-31.6 83.9-35.1 104.1-35.1l62.3 0.2v-126.1zm-57.4 174l-62.3-0.1c-22.7-0.2-43.4 6.5-56.9 18.4-10.8 9.5-17.2 22.9-16.7 39 0.3 9.6 3.9 18.5 11 26.6 12.8 14.5 31.8 20.2 55.3 20.2 55.3 0 69.2-30.2 69.6-60.1z"/>
</svg>