<svg version="1.2" xmlns="http://www.w3.org/2000/svg" viewBox="0 0 1580 380" width="1580" height="380">
	<title>ggjhhjhj-svg</title>
	<style>
		.s0 { fill: #ffffff } 
	</style>
	<path id="Layer" class="s0" d="m56.6 113.9c-31.3 0-56.6-25.3-56.6-56.5 0-31.3 25.3-56.5 56.6-56.5 31.2 0 56.5 25.2 56.5 56.5 0 31.2-25.3 56.5-56.5 56.5zm132.9 0c-31.3 0-56.6-25.3-56.6-56.5 0-31.3 25.3-56.5 56.6-56.5 31.2 0 56.5 25.2 56.5 56.5 0 31.2-25.3 56.5-56.5 56.5zm132.9 0c-31.3 0-56.6-25.3-56.6-56.5 0-31.3 25.3-56.5 56.6-56.5 31.3 0 56.5 25.2 56.5 56.5 0 31.2-25.2 56.5-56.5 56.5zm-132.9 132.8c-31.3 0-56.6-25.3-56.6-56.6 0-31.2 25.3-56.5 56.6-56.5 31.2 0 56.5 25.3 56.5 56.5 0 31.3-25.3 56.6-56.5 56.6zm0 132.7c-31.3 0-56.6-25.2-56.6-56.5 0-31.2 25.3-56.5 56.6-56.5 31.2 0 56.5 25.3 56.5 56.5 0 31.3-25.3 56.5-56.5 56.5z"/>
	<path id="Layer" fill-rule="evenodd" class="s0" d="m499.5 146.1h-52.6v-31.3h138v31.3h-52.8v144.2h-32.6zm195.5 106.6c-2.8 10-18.6 40.1-59 40.1-37.6 0-65.2-27.6-65.2-66.5 0-38.8 27.6-66.4 65.2-66.4 35.2 0 62.8 27.6 62.8 63.9q-0.1 4.6-0.8 9l-0.5 3.6h-95.4c2.8 17.8 16.1 30 33.9 30 14.8 0 23.9-8.5 26.4-13.7zm-27.6-37.6c-2.8-16.4-13.6-28.9-31.4-28.9-19.1 0-30.1 12.5-33.9 28.9zm50.2-100.3h31.4v175.5h-31.4zm174.4 137.9c-2.7 10-18.5 40.1-59 40.1-37.6 0-65.2-27.6-65.2-66.5 0-38.8 27.6-66.4 65.2-66.4 35.2 0 62.8 27.6 62.8 63.9q-0.1 4.6-0.8 9l-0.5 3.6h-95.3c2.7 17.8 16 30 33.8 30 14.9 0 23.9-8.5 26.4-13.7zm-27.6-37.6c-2.8-16.4-13.6-28.9-31.4-28.9-19.1 0-30.1 12.5-33.9 28.9zm60.2-22.6h-21.3v-30.1h21.3v-18.8c0-19.1 12.3-31.4 31.4-31.4h27.6v27.6h-18.8c-1.2 0-2.3 0.2-3.4 0.6-1.1 0.5-2.1 1.1-2.9 1.9-0.8 0.8-1.5 1.8-1.9 2.9-0.4 1.1-0.6 2.2-0.6 3.4v13.8h27.6v30.1h-27.6v97.8h-31.4zm194.2 33.9c0 38.9-27.6 66.5-65.2 66.5-37.7 0-65.3-27.7-65.3-66.5 0-38.8 27.6-66.4 65.3-66.4 37.6 0 65.2 27.5 65.2 66.4zm-31.4 0c0-22.6-15-37.6-33.8-37.6-18.9 0-33.9 15-33.9 37.6 0 22.6 15 37.6 33.9 37.6 18.8 0 33.8-15.1 33.8-37.6zm50.2-64h28.9l2.5 12.6h1.2c2.5-2.9 5.4-5.4 8.6-7.5 7.9-5.1 17.2-7.7 26.6-7.5 28.9 0 50.2 21.3 50.2 53.9v76.4h-31.4v-74c0-16.3-11.3-27.6-27.6-27.6-16.3 0-27.6 11.3-27.6 27.6v74h-31.4zm317.7 80.2c-4 20.1-19.8 50.1-60.3 50.1-37.6 0-65.2-27.5-65.2-66.4 0-38.9 27.6-66.4 65.2-66.4 40.5 0 56.3 30 60.3 48.9h-31.4c-2.7-7.3-10-20.1-28.9-20.1-18.8 0-33.9 15-33.9 37.7 0 22.6 15.1 37.6 33.9 37.6 18.8 0 26.1-12.5 28.9-21.3zm94.8 35.1h-1.2c-2.5 2.9-5.5 5.5-8.8 7.5-8.3 5.1-17.9 7.7-27.6 7.5-29.1 0-46.5-17.8-46.5-38.8 0-25.1 17.6-42.6 52.8-42.6h28.8v-2.5c0-14.1-8.5-23.8-22.6-23.8-14 0-21.3 9-22.6 16.3h-31.3c2.7-21.1 19.8-41.4 53.9-41.4 32.7 0 54 21.6 54 48.9v81.5h-26.4zm-2.5-42.6h-26.3c-16.3 0-23.9 6.3-23.9 16.3 0 10 7.3 16.3 20.1 16.3 19.1 0 30.1-11 30.1-28.8zm-268-72.8h31.4v127.9h-31.4zm15.7-18.4c-10.3 0-18.6-8.3-18.6-18.6 0-10.2 8.3-18.5 18.6-18.5 10.2 0 18.5 8.3 18.5 18.5 0 10.3-8.3 18.6-18.5 18.6zm-230.4-35.5h32.6l-30.1 36.3h-26.4z"/>
</svg>