<svg version="1.2" xmlns="http://www.w3.org/2000/svg" viewBox="0 0 1550 224" width="1550" height="224">
	<title>Velodyne_LiDar_Logo_RGB_LG_Blue-svg</title>
	<style>
		.s0 { fill: #0038a5 } 
	</style>
	<g id="#0038a5ff">
		<path id="Layer" fill-rule="evenodd" class="s0" d="m0.3 0.5c8.5 0 17.1 0 25.6 0q20.6 59.1 41.1 118.3c0.5 1.6 0.9 3.3 1.9 4.7q21.3-61.5 42.6-123 13.5 0 27.1 0c-19.3 54.6-38.5 109.3-57.7 163.9q-12.2 0-24.3 0c-18.8-54.7-37.6-109.3-56.3-163.9zm141.8 58.5c10-9.6 23.4-15.6 37.2-16.7 12.9-1 26.2 2.1 37.2 8.9 12.3 7.6 21.7 19.6 26.1 33.3-27.2 16.3-54.5 32.5-81.7 48.8 8.3 6.5 19.3 9.5 29.8 7.6 12.2-1.9 23-10.4 28-21.6 7.4 2.4 14.7 5.3 22.1 7.8-5 11.7-13.6 21.8-24.5 28.4-17.8 11.1-41.5 11.9-60.1 2.1-11.6-5.9-21.1-15.6-26.8-27.3-6.7-13.5-8.1-29.5-3.9-43.9 3-10.4 8.7-20 16.6-27.4zm9.8 25.6c-5.1 8.4-6.5 18.7-4.2 28.2 20.6-12.3 41.3-24.6 61.9-36.9-8.2-7.5-19.8-11.1-30.8-9.4-11.1 1.6-21.2 8.5-26.9 18.1z"/>
		<path id="Layer" fill-rule="evenodd" class="s0" d="m250.9 164.4q0-82 0-163.9c8.1 0 16.2 0 24.3 0q-0.1 81.9 0 163.9c-8.1 0-16.2 0-24.3 0zm260.1-163.9q12.8 0 25.6 0c0 34.3 0 68.6 0 102.9 0.1 9.2-2.1 18.4-6 26.6-8.5 17.6-25.8 30.7-45.2 33.7-13.3 2.1-27.3-0.1-39.1-6.6-10-5.4-18.4-13.6-24.1-23.5-6.8-11.8-9.2-25.9-7.3-39.4 1.7-12 7.3-23.5 15.6-32.4 9.2-10 21.7-16.8 35.1-18.9 15.8-2.6 32.5 1.2 45.5 10.7-0.1-17.7-0.1-35.4-0.1-53.1zm-43.7 66.5c-8.8 1.9-16.9 7.2-22.2 14.5-5.9 7.9-8.5 18.2-6.9 28 1.5 10.6 8 20.4 17 26.1 8.1 5.2 18.3 7.1 27.7 5.1 10.1-2 19.2-8.4 24.6-17.1 4.9-7.9 6.8-17.6 5-26.8-1.7-9.3-7.1-17.8-14.8-23.4-8.6-6.4-20-8.8-30.4-6.4zm1063.7-66.2c5.2-0.9 10.7 0.7 14.4 4.5 6.2 6.3 5.9 17.7-0.8 23.6-5.2 4.6-13.3 5.2-19.1 1.6-7.5-4.5-9.4-15.2-5-22.4 2.1-3.9 6.2-6.5 10.5-7.3zm-1.2 3.5c-8.9 3.2-10.7 16.3-3.9 22.4 4.2 4 11.3 4.1 15.7 0.4 6.1-5 6.1-15.6 0.1-20.7-3.2-2.9-8-3.5-11.9-2.1zm-1.9 3.8c3.4 0.1 6.9-0.5 10.2 0.4 3.1 0.8 3.8 4.7 2.6 7.3-0.7 1.5-2.5 2-3.9 2.5q2.4 3.8 4.8 7.6-1.8 0-3.5 0c-1.6-2.5-3.1-5.1-4.6-7.6q-1.3 0-2.6 0 0 3.8 0 7.6-1.5 0-3 0c0-6 0-11.9 0-17.8zm3 2.6q0 2.5 0 4.9c1.9 0 3.8 0.3 5.7-0.2 1.8-0.5 2.2-3.5 0.3-4.3-1.9-0.7-4-0.3-6-0.4zm-547.2 0.7q12.1 0 24.3 0c0 27.8 0 55.6 0 83.5-0.1 7.3 0.4 14.8 3.1 21.7 3.2 9.5 11.1 17.1 20.6 20.5 11.7 4.6 24.5 3.7 36.8 3.7q12.3 0 24.5 0 0 11.6 0 23.2c-10.6 0.1-21.2 0-31.8 0.1-14.1 0.2-28.7-0.5-42.1-5.5-10-3.6-19.2-10-24.9-19.1-7.9-11.9-10.1-26.6-10.5-40.7 0-29.1 0-58.3 0-87.4zm133.9 0.2c4.3-1.2 9.4-0.1 12.4 3.4 4.7 4.6 4.3 13.1-0.8 17.3-5.5 5.4-15.7 3.4-18.9-3.5-3.5-6.4 0.2-15.3 7.3-17.2zm31.6-0.2q16.1 0 32.1 0c13.4-0.3 27.2 0.3 40 4.7 9.6 3.1 18.5 8.7 24.7 16.8 6.8 8.8 10.2 19.9 11.5 30.9 1.5 11 0.9 22 1.1 33.1-0.3 13-1.9 26.5-7.9 38.3-4.8 9.3-12.8 16.8-22.3 21.2-13.6 6.4-29 7.8-43.8 7.7-11.8-0.1-23.6 0-35.4-0.1 0.1-50.9 0-101.7 0-152.6zm24.3 23q0 53.2 0 106.4c8.7-0.1 17.5 0.6 26.2-0.9 6.4-1 12.7-3 18.2-6.5 6.8-4.3 11.7-11.2 14-18.8 3.1-9.8 2.3-20.2 2.4-30.3 0.1-8.4-0.1-17.1-2.9-25.1-3-8.9-10-16.4-18.7-20.1-12.3-5.4-26.1-4.6-39.2-4.7zm138-23c8-0.1 16.1 0 24.2 0 19.2 50.9 38.5 101.7 57.6 152.7-8.9 0-17.9-0.1-26.9 0-3.3-9.2-6.4-18.5-9.6-27.7-22.2 0-44.3-0.1-66.4 0-3.1 9.2-6.4 18.4-9.5 27.6-8.6 0.1-17.2 0-25.7 0.1 18.7-50.9 37.5-101.8 56.3-152.7zm12.1 35.7c-8.2 21.7-16.6 43.3-24.7 65.1 16.5-0.1 33 0 49.4 0-8.2-21.7-16.5-43.4-24.7-65.1zm83.1-36.1c14.2 0.2 28.3-0.4 42.4 0.6 11.4 1 23.1 3.2 32.7 9.7 9.2 6.4 15.9 16.4 17.9 27.4 2.2 11.4 1 23.8-4.7 34-6.4 11.7-18.2 20.1-31.2 22.7q25.9 29.1 51.8 58.3c-10.4 0-20.8 0-31.2 0q-24-27.8-47.9-55.6-2.2 0-4.4 0c0.1 18.5 0 37.1 0.1 55.6q-12.8 0-25.5 0 0-76.3 0-152.7zm25.5 75.5c8.1 0 16.4 0.1 24.3-2 5.5-1.4 10.8-4.1 14.4-8.7 4.3-5.3 5.5-12.5 4.9-19.2-0.5-5.7-3-11.4-7.6-15-4.9-3.9-11.1-5.7-17.2-6.5-6.2-0.9-12.6-0.4-18.8-0.5 0 17.3-0.1 34.6 0 51.9zm-1094.8-43.8c12.4-1.7 25.3 0.5 36.3 6.3 20.1 10.1 33.5 32 33 54.5 0.2 13.5-4.6 26.9-12.9 37.5-8.1 10.4-19.6 18-32.3 21.4-11.3 3-23.4 2.7-34.5-0.8-10.8-3.4-20.5-9.8-27.8-18.4-7.6-8.7-12.7-19.7-14.2-31.2-1.8-12.4 0.2-25.5 6.1-36.7 8.8-17.5 26.7-30.2 46.3-32.6zm0 24.3c-9.1 2-17.2 7.4-22.6 15-5.6 7.8-8.1 17.9-6.5 27.5 1.5 10.6 7.9 20.3 17 26.1 8.1 5.2 18.2 7.1 27.7 5.1 10.9-2.1 20.6-9.4 25.8-19.2 3.7-6.9 5.3-15 4.1-22.8-1.4-11.1-8.2-21.4-17.9-27.1-8.2-5-18.3-6.7-27.6-4.6zm514.1-24.1c13-2.1 26.8 0.1 38.5 6.4 11.4 6.1 20.8 15.9 26.4 27.5 1 2.6 2.6 5.1 2.8 7.8-26.8 16.2-53.8 32.1-80.6 48.2-1 0.6 0.3 1.4 0.8 1.7 10.8 7.8 25.9 9.2 37.9 3.3 8.1-3.7 14.6-10.6 18.3-18.6 7.4 2.7 14.7 5.3 22 7.9-3.9 9.2-10.1 17.5-17.9 23.8-10.9 8.8-24.9 13.8-39 13.5-13.3 0.1-26.5-4.6-37-12.7-9.2-7.1-16.2-16.7-20.1-27.6-4.3-11.6-4.8-24.6-1.6-36.5 2.9-11.2 9.1-21.4 17.5-29.2 8.9-8.2 20.1-13.7 32-15.5zm-19.5 37.1c-7.5 9-10.2 21.5-7.5 32.8 20.7-12.2 41.3-24.6 62-37-5.9-5.2-13.4-8.7-21.2-9.4-12.5-1.6-25.5 3.9-33.3 13.6zm-282.2-37.2c8.1 0 16.3 0 24.4 0 0 9.5-0.3 18.9-0.1 28.4 0.1 10.8-0.3 21.7-0.1 32.6 0.4 9.5 2.8 19.3 8.9 26.7 3.7 4.5 8.8 7.7 14.5 8.9 9.9 1.9 20.9-0.8 28-8.1 7-7 10-16.9 10.6-26.5 0-20.7 0-41.3 0-62q12.2 0 24.5 0c-0.1 38 0 76-0.1 114-0.3 13.5-2.1 27.5-8.8 39.5-5 8.8-13 15.8-22.2 19.9-13.4 6.1-28.4 7.3-43 7.3-11.8 0-23.6 0-35.4 0-0.1-7.7 0-15.5-0.1-23.2q17.4 0 34.8 0c8.2 0 16.6-0.5 24.5-3.1 7.3-2.3 14.2-6.7 18.6-13.1 5.8-8.4 7.5-18.9 7.2-28.9-7 4.8-15.2 7.6-23.6 8.7-9.9 1.2-20.2 0.5-29.4-3.7-16.1-7.1-27-22.8-31.1-39.5-2-7.7-2.3-15.8-2.1-23.8q0-27.1 0-54.1zm163.3 2.9c10.3-3.3 21.7-4 32.3-1.4 11.9 2.9 22.3 10.6 29.2 20.6 8.2 11.8 12.1 26.3 11.8 40.5q0 29.5 0 59c-8.1 0-16.2 0-24.3 0-0.1-18.6 0.3-37.1 0.2-55.7 0.3-10.2-1.4-20.9-7.1-29.6-3.6-5.5-9.3-9.7-15.8-11.1-7.8-1.7-16.4-0.5-23.2 3.7-7.6 4.5-12.5 12.7-14.5 21.2-2.2 8.1-1.4 16.6-1.5 25q0 23.2 0 46.5-12.2 0-24.4 0c-0.1-20.1 0-40.2-0.1-60.3 0.1-12.6 2.7-25.5 9.4-36.4 6.3-10.3 16.4-18.3 28-22zm395.9 118.3c0-36.9 0-73.9 0-110.8q12.1 0 24.3 0-0.1 55.4 0 110.8-12.2 0.1-24.3 0z"/>
	</g>
</svg>