<svg version="1.2" xmlns="http://www.w3.org/2000/svg" viewBox="0 0 1543 658" width="1543" height="658">
	<title>VMC-4Q-2022-Supplemental-Slides-1-pdf-svg</title>
	<defs>
		<clipPath clipPathUnits="userSpaceOnUse" id="cp1">
			<path d="m-265.16-371.47h11984.51v6744.9h-11984.51z"/>
		</clipPath>
	</defs>
	<style>
		.s0 { fill: #ffffff } 
	</style>
	<g id="Clip-Path: Page 1" clip-path="url(#cp1)">
		<g id="Page 1">
			<path id="Path 12" fill-rule="evenodd" class="s0" d="m162.4 492.3h-38.1l-23.1 100.5-23.1-100.5h-38.7v127.4h25v-106.2l23.1 106.2h26.2l23.7-106.2v106.2h25zm93 59.3c0-23.1-23.7-26.9-36.8-26.9-18.7 0-38.7 3.8-41.2 32.5h23.1c1.2-5.6 3.1-13.1 15-13.1 6.2 0 16.2 0.6 16.2 10.6 0 5.6-5 6.9-8.7 7.5l-21.9 3.1c-15.6 2.5-26.8 11.9-26.8 30 0 19.4 14.3 26.9 28.1 26.9 16.8 0 24.3-7.5 29.9-13.2 0.6 5 0.6 6.3 1.9 10.7h26.2v-3.8c-2.5-0.6-5-3.1-5-14.4zm-23.7 35c0 11.3-11.2 18.1-21.8 18.1-4.4 0-11.3-2.5-11.3-11.2 0-10 7.5-12.5 16.2-13.7 10.7-1.9 14.4-3.2 16.9-5zm68-86.2h-24.3v25.6h-12.5v17.5h12.5v56.8c0 12.5 3.7 20.6 25 20.6h3.1q5.6 0 11.8-0.6v-18.8q-3.1 0.7-5 0.7c-9.9 0-10.6-2.5-10.6-7.5v-51.2h15.6v-17.5h-15.6zm81.2 92.4c-1.9 6.3-9.4 10-16.2 10-19.4 0-21.3-15.6-21.9-22.5h64.3v-4.4c0-42.4-25.6-51.2-43.7-51.2-41.2 0-44.9 35.6-44.9 46.9 0 38.1 19.9 50.6 46.2 50.6 16.2 0 34.9-7.5 41.1-29.4zm-37.4-28.7c1.2-11.9 7.5-19.4 18.7-19.4 8.1 0 18.1 4.4 19.4 19.4zm73 55.6h25v-48.8c0-10.6 3.1-23.1 22.4-23.1 2.5 0 5 0 6.9 0.7v-25q-2.5-0.6-4.4-0.6c-14.9 0-20.6 9.3-26.2 18.7v-16.2h-23.7zm63 0h24.4v-93.1h-24.4zm0-104.3h24.4v-22.5h-24.4zm119.9 35.6c0-23.1-24.4-26.8-37.5-26.8-19.3 0-39.3 3.7-41.8 32.4h23.7c0.7-5.6 2.5-13.1 15-13.1 6.3 0 16.2 0.7 16.2 11.3 0 5-4.3 6.8-8.7 6.8l-21.8 3.8c-15.6 1.9-27.5 11.2-27.5 29.3 0 19.4 14.4 27.5 28.7 27.5 16.9 0 24.4-8.1 30-13.7 0.6 5 1.2 6.8 2.5 11.2h26.8v-3.7c-3.1-1.3-5.6-3.8-5.6-14.4zm-24.4 35c0 11.2-11.2 18.7-21.8 18.7-5 0-11.2-3.1-11.2-11.2 0-10 7.5-12.5 16.2-14.4 10.6-1.2 14.3-3.1 16.8-5zm40.6 33.7h25v-126.7h-25zm119.2-65c-1.8-26.2-23.7-30.6-41.8-30.6-29.3 0-38.1 17.5-38.1 31.2 0 35 58.1 23.1 58.1 38.8 0 3.1-2.5 9.3-15.6 9.3-15.6 0-20-5.6-20-13.7h-25.6c0.6 25 23.7 32.5 45 32.5 14.3 0 41.2-5 41.2-31.9 0-34.3-58.7-23.7-58.7-38.7 0-3.8 1.9-8.8 15-8.8 13.7 0 15.6 6.3 16.8 11.9zm167.3-20.6c-1.2-18.1-16.2-44.3-54.3-44.3-32.5 0-58.1 22.4-58.1 66.2 0 43.7 24.4 66.2 58.1 66.2 31.2 0 49.3-18.8 54.3-46.3h-26.2c-3.1 15.7-13.1 23.8-28.1 23.8-21.8 0-31.2-20.6-31.2-43.1 0-35.6 18.7-43.7 31.2-43.7 21.8 0 26.2 13.7 28.1 21.2zm104.2 38.1c0-33.7-23.1-49.3-48-49.3-25.6 0-48.1 15.6-48.1 49.3 0 34.3 22.5 50 48.1 50 24.9 0 48-15.7 48-50zm-25.6 0c0 12.5-3.7 28.7-22.4 28.7-19.4 0-23.1-16.2-23.1-28.7 0-11.9 3.7-28.7 23.1-28.7 18.7 0 22.4 16.8 22.4 28.7zm170.4-16.9c0-20.6-14.3-31.2-32.4-31.2-15 0-21.9 10.6-25.6 15-6.3-10-12.5-15-26.2-15-16.3 0-23.1 10-26.2 16.2h-0.7v-13.7h-23.7v93.1h25v-56.9c0-10 3.7-18.1 15-18.1 14.9 0 14.9 11.3 14.9 18.8v56.2h25v-55.6c0-11.3 4.4-19.4 16.9-19.4 7.5 0 13.7 4.4 13.7 18.8v56.2h24.3zm40-28.8h-23.7v129.3h24.9v-48.1h0.7c2.5 5 8.7 14.4 26.2 14.4 28.1 0 39.3-24.4 39.3-50 0-32.5-18.1-48.1-38.7-48.1-16.8 0-23.7 8.8-28.1 16.3h-0.6zm0 48.7c0-14.4 4.4-29.4 21.2-29.4 15.6 0 21.2 13.8 21.2 28.1 0 11.3-4.3 28.1-20.6 28.1-15.6 0-21.8-12.5-21.8-26.8zm154.8-23.7c0-23.2-24.4-26.9-37.5-26.9-19.3 0-39.3 3.7-41.8 32.5h23.7c0.7-5.6 2.5-13.1 15-13.1 6.3 0 16.2 0.6 16.2 10.6 0 5.6-4.3 6.8-8.7 7.5l-21.8 3.1c-15.6 2.5-27.5 11.9-27.5 30 0 19.3 14.4 26.8 28.7 26.8 16.9 0 24.4-7.5 30-13.1 0.6 5 1.2 6.3 2.5 10.6h26.8v-3.7c-3.1-0.6-5.6-3.1-5.6-14.4zm-24.4 34.4c0 11.2-11.2 18.7-21.8 18.7-5 0-11.2-3.1-11.2-11.2 0-10 7.5-12.5 16.2-14.4 10.6-1.3 14.4-3.1 16.8-5zm125.5-30.6c0-20.6-14.3-31.2-32.4-31.2-18.1 0-25 10.6-28.1 16.2h-0.7v-13.7h-23.7v92.4h25v-53.1c0-13.7 8.1-21.2 19.3-21.2 15.6 0 16.3 11.2 16.3 18.1v56.8h24.3zm95.5-30h-25.6l-18.7 70h-0.6l-20-70h-26.8l34.3 98.7c-2.5 12.5-7.5 13.8-16.2 13.8q-3.2 0-5 0v19.3c3.7 0.6 8.1 0.6 11.2 0.6 21.2 0 24.3-4.3 35.6-39.3zm-1104.2-415.9h-109.9v246.7c0 49.9 4.4 65.5 21.9 84.3 19.3 20.6 36.2 24.3 94.2 24.3h40.6c58 0 74.3-3.7 94.2-24.3 17.5-18.1 22.5-35 22.5-85v-246h-110.5v234.8c0 26.8-8.7 38.1-26.8 38.1-17.5 0-26.2-11.3-26.2-38.7zm191.6 355.9h111.1v-464h-111.1zm317.1-356h-100.5c-59.3 0-78.6 13.8-78.6 56.2v219.3c0.6 67.4 13.1 79.9 78.6 79.9h100.5v-83.1h-34.3c-25.6 0-33.7-6.8-33.7-29.9v-113.1c0-38.1 5-45.6 31.8-46.2h36.2zm184.1-2.5v38.1q-5.6-7.5-8.7-10.6c-18.7-24.4-28.1-28.7-65.5-28.7h-23.8c-45.5 0-61.8 19.9-61.8 76.8v191.1c0 76.2 13.8 92.4 76.8 92.4h21.9c33.7 0 43-5.6 61.1-40v38.8h109.9v-357.9zm-0.6 233c0 26.8-7.5 39.9-24.4 39.9-16.2 0-24.3-12.5-24.3-39.9v-110.6c0-28.1 8.1-40.6 24.3-40.6 16.9 0 24.4 12.5 24.4 40.6zm139.8-232.9v357.2h111.1v-234.2c0-28.7 8.1-41.2 25-41.2 16.8 0 26.2 13.1 26.2 39.9v235.5h109.8v-278.5c-0.6-65.6-14.9-80-82.4-80-43 0-60.5 8.1-78.6 38.7v-37.4zm-1142.3-106.2h-126.1c0 0-4.3 141.8 1.3 234.8 7.5 111.8 81.1 231.1 81.1 231.1h136.1l2.5 0.6c0 0 73.7-118.6 80.5-230.4 6.3-93.7 1.9-236.1 1.9-236.1h-126.1c0 0-1.2 229.2-2.5 253.5-4.4 75-24.3 109.3-24.3 109.3 0 0-20-31.8-24.4-107.4-1.2-24.3 0-255.4 0-255.4z"/>
		</g>
	</g>
</svg>