<svg version="1.2" xmlns="http://www.w3.org/2000/svg" viewBox="0 0 1552 831" width="1552" height="831">
	<title>Screenshot 202ddd2-08-20 at 10-svg</title>
	<style>
		.s0 { fill: #3c66ac } 
		.s1 { fill: #509750 } 
		.s2 { fill: #8d92a4 } 
	</style>
	<g id="#3c66acff">
		<path id="Layer" fill-rule="evenodd" class="s0" d="m704.6 11.9c60.4-9.9 122-13 183.2-10.2 66.6 2.7 132.9 12.7 197.9 27.2 22.3 4.9 44.3 10.4 66.2 16.7 86.9 24.3 171.4 56.9 252.5 96.5 25.3 12.4 50.2 25.7 74.6 39.9-0.3 0-0.8 0-1.1 0.1-112.5-46.2-228.9-84.2-348.8-106.3-121.5-22.8-247.2-28.6-369.4-7.6q-14.8 2.5-29.6 5.7c-32.8 7.2-65.4 15.6-97 26.9-93.3 32.3-180 83.5-253.6 149.4-38.4 33.9-73 71.9-104.4 112.4-40.8 53-75.8 110.4-104 171-13.9 29.5-26.1 59.9-35.9 91.1q-46.4-0.1-92.9 0c-8.9-66.2-16.3-132.6-24.9-198.9-5.7-45.3-11.5-90.7-16.9-136 28.1-0.1 56.2-0.2 84.4 0 5.6 63.3 11.6 126.6 17.3 189.9 1 6.2 0.9 12.4 1.3 18.6 3.9-5.2 6.4-11.1 9.3-16.8 38.4-75.1 84.4-146.6 139.2-210.7 43.7-50.6 92.8-96.8 147.6-135.2 57.4-40.5 120.8-72.5 187.5-94.7 28.7-9.9 58.2-17 87.9-23.5 9.8-1.9 19.7-3.8 29.6-5.5zm-381.1 337c18.3-21.5 37.5-42.3 57.9-61.9 9.7 17.5 5.6 41.8-10.3 54.3-13.2 10.3-31.9 13.4-47.6 7.6zm172.2 29.9c19.2-3.7 39.3-3.9 58.2 1.1 19.2 5.2 37.3 17.3 46.4 35.4 9.8 19.4 10.2 43.1 2.1 63.2-6.3 15.3-19.3 27.1-34 34.5-13.8 7-29.1 10.8-44.3 13.8-10.8 1.4-21.5 3.3-32.4 3.4-13.6 1.7-27.3 0.7-41 1.1 0.9 7.9 2.4 16.1 6.9 22.8 5.3 7.5 13.1 13.2 21.8 16.1 14.7 5.2 30.6 4.4 45.9 2.7 16.5-1.9 32.4-7 47.4-14q1.9 18.2 3.6 36.5c0.7 5.3 1.2 10.7 1 16-16.9 7.6-34.8 13.4-53.2 16-25.2 3.6-51.4 4.7-76.1-2.2-21.1-6-40.3-19.4-51.4-38.4-12.8-21.6-15.6-47.6-13.9-72.2 2.5-31.3 14.1-61.8 33.7-86.4 19.5-25.1 48-43.2 79.3-49.4zm-14 61c-11.8 9.5-20.1 23.3-23.6 38 19.9 0.2 40 0.6 59.3-4.7 6.3-2.3 12.9-4.7 17.6-9.7 7.5-7.1 7.7-20.3 0.4-27.7-5.1-4.9-12.4-6.7-19.4-7-12.2-0.4-24.6 3.5-34.3 11.1zm-182.1-58.2c23.9 0 47.8-0.1 71.7 0-12.2 62.8-23.6 125.8-35.9 188.6-3.4 18.2-6.9 36.3-10.2 54.4-23.9 0.1-47.8 0.1-71.7 0 4.7-27.4 10.6-54.7 15.4-82.1 4.3-22.4 8.4-44.7 12.8-67.1 1.5-9 3.6-17.9 5.2-26.9 4.3-22.3 8.5-44.6 12.7-66.9z"/>
	</g>
	<g id="#509750ff">
		<path id="Layer" fill-rule="evenodd" class="s1" d="m1462.2 275.5c5.9-30.5 11.4-61.2 17.8-91.6 23.9 0.1 47.7 0 71.6 0-5.8 32.1-12.3 64.2-18.3 96.2-6.6 32.8-12.5 65.7-18.8 98.5-7.1 36.9-14.4 73.7-21.3 110.6-5.4 29.1-11.6 58.2-15.2 87.6-1.8 15.8-4 31.7-3.7 47.6-22 0.6-44.1 0-66.1 0.4 0.6-13.3 2.5-26.5 3-39.8-8.5 13.6-20.2 25.1-34 33.3-16.6 9.7-36.6 13.5-55.7 11.3-17-2-33-10.9-43.9-24.1-12.5-14.4-18.8-33.2-20.8-51.9-4.3-43.2 8.9-87.8 35.9-121.8 24-30.4 60.4-50.8 99-54.7 16.8-2 33.9-0.7 50.2 4 6.6-35.2 13.7-70.3 20.3-105.6zm-110 184.6c-14.3 19.5-21.1 43.9-21.6 67.9 0.7 11.7 2.6 24.1 10.1 33.5 7.6 9.9 21.8 13 33.3 9.1 11.7-3.9 20.9-13 27.8-23 9.5-14.3 15.1-31.1 18.1-48 3.7-20.2 8.2-40.3 11.1-60.6-9.2-6.9-21.4-8.8-32.6-8-19 1.7-35.3 14-46.2 29.1zm-660.4-170.3c32.2 0.1 64.4-0.5 96.7 0.2 0.4 20.6 3.3 41 4.5 61.5 4.1 47.5 7.9 95.1 10.4 142.8 0.6 10 0.2 20.1 1.3 30.1 1.2-1.8 2.2-3.7 2.9-5.7 8.2-24.1 18.6-47.3 28.8-70.6 12.6-28.3 26.8-55.9 40.1-83.8 12.5-24.8 23.9-50 36.6-74.7 32.3 0.3 64.6 0 97 0.2-4.7 35.4-9.8 70.7-14.4 106.1-8.6 60.5-15.9 121.1-24.6 181.6-1.3 12.7-3.6 25.4-5 38.1-0.6 2.9-0.9 6-1.2 9-23.3 0.1-46.6 0.2-70 0 4-26.8 7.7-53.7 11.9-80.4 0.4-3.2 0.7-6.3 1.3-9.4 1.7-11.7 3.6-23.4 5.2-35.1 7.1-46.3 14.2-92.7 23.2-138.7 0.3-1.9 0.3-3.7 0.3-5.6-20.1 47.9-41.5 95.3-65.2 141.6-20.1 40.8-40.7 81.3-60.8 122.1-18.6 0.2-37.3 0-55.9 0.1-2.2-18.6-3.3-37.5-5.1-56.2-4.1-48.9-9-97.8-11.3-146.9-0.9-18.6-2.4-37.3-2.5-56-0.5 0-1.5-0.1-2-0.2-4 21.1-8.9 42-13.1 63-5.6 26.6-10.7 53.2-17.5 79.5-0.6 2.1-0.8 4.4-0.4 6.6q-0.9-1.2-1.9-2.2c-0.5 10.2-3.8 19.9-6 29.7-7.1 29.4-13.9 58.7-21 88.1-22.1 0.1-44.1 0.2-66.2 0 14.7-57.3 28.6-114.8 43.3-172 13.1-54.4 27.4-108.5 40.6-162.8zm386.7 112.2c23-16.9 51.5-26.4 80.1-25.8 21.4-0.4 43.5 5.1 60.3 18.8 16.3 13 25.3 34.1 24.2 54.8 0.9 21.1-9.1 42-25.9 54.6-19.1 14.6-43.3 20-66.6 23.8-21.3 2.6-42.8 3.5-64.4 3 0.4 11.2 4.4 23 13.2 30.3 8.9 7.8 20.7 11.2 32.3 12.3 26.1 1.8 52.5-3.6 76-14.9 2.8 17.1 3.1 34.5 5.7 51.7-20.7 10.8-43.8 16.1-66.9 18.4-20.7 2-42 2-62.2-3.5-20.7-5.5-39.8-18.3-51.2-36.6-12.2-18.8-16.1-41.6-15.8-63.7 0.6-47.3 22.9-94.8 61.2-123.2zm39.7 37c-13 9.1-20.8 23.8-25 38.8 13.2-0.1 26.6 0.7 39.7-1.1 12.9-1.7 26.9-3.9 37-12.9 5.9-5.2 6.4-13.5 5.4-20.8-2.8-6.2-7.9-11.2-14.6-12.8-14.5-3.8-30.6-0.1-42.5 8.8z"/>
	</g>
	<g id="#8d92a4ff">
		<path id="Layer" fill-rule="evenodd" class="s2" d="m1339.9 666.1c10.7-8.2 25.4-9.1 38.1-5.7-1.1 7-2.8 13.9-4.2 20.9-5.5-0.3-12-2.1-16.6 2-5.3 4.1-7.4 11-7.2 17.5 5.7 0 11.3 0 17 0.1-1.7 6.6-2.3 13.5-4.3 20-5.7-0.2-11.4-0.1-17.1 0-4.3 22.9-8.4 45.9-12.8 68.9-8.7 0.1-17.3 0-25.9 0.1 3.4-23.2 8.4-46.1 12.4-69.1q-5.6 0-11.2 0c1-6.7 2.3-13.3 3.6-20q5.7 0 11.5 0c1.5-12.9 6.1-26.4 16.7-34.7zm-796.6-3.1c5.1-1.9 11.4-1.3 15.5 2.5 6 6.1 4.6 17.8-2.9 22.1-5.8 3.4-14.2 3.7-19-1.5-6.1-7.3-2.8-20.2 6.4-23.1zm741.1 0.4c6.2-3 14.6-1.4 18.4 4.6 4.1 6.7 1.4 16.5-5.7 20.1-6 3.2-15 2.8-19.1-3.4-4.2-7.1-1.7-18 6.4-21.3zm-835 3.7c8.8-0.1 17.5-0.1 26.3 0-5.5 33-12.2 65.9-18.6 98.8 15.5 0.3 31.1 0.1 46.7 0.2-0.9 8-2.4 16-4.5 23.8-24.4-0.2-48.7 0-73.1-0.1 7.5-40.9 15.8-81.7 23.2-122.7zm742.2 0c8.7 0 17.5-0.1 26.3 0-5.6 33.1-12.6 65.9-18.7 98.9 15.6 0.1 31.1 0.1 46.7 0-1 8.1-2.4 16.1-4.5 23.9-24.4-0.2-48.7 0-73.1-0.1 7.4-41 15.7-81.8 23.3-122.7zm195.9 41.4c9.6-7.3 21.9-10.7 33.8-9.8 8 0.8 16.1 3.8 21.4 10 8.5 10.2 7.9 27.3-2.5 36-8 6.5-18.4 8.8-28.4 10-7.1 0.9-14.4-0.5-21.3 1.4 1.5 6 5 12 11.4 13.7 11.1 3 23.1 0.3 33.5-4.3 0.6 6.4 1.9 12.8 1.5 19.3-11.3 5.9-24.4 7.3-37.1 6.7-12.8 0-26.3-7.4-30.9-19.8-8.3-22 0-49 18.6-63.2zm15 13.5c-4.7 3.3-7.3 8.7-9.1 14 8.3 0.2 16.9 0.2 24.6-3 4-1.7 6.1-5.9 5.8-10.2-5.1-6.7-15.2-5.5-21.3-0.8zm-728.9-10.9c10.1-9.2 24.2-13.7 37.8-12.3 7.6 0.8 15.1 3.8 20.2 9.6 6.7 7.4 7.8 18.6 4.3 27.6-3.9 9-13.2 14.1-22.3 16.4-10.8 3.2-22.1 2.8-33.2 2.7-0.1 6.8 4.5 13.1 11.1 14.8 11.1 2.8 22.9 0.3 33.1-4.5 1 6.3 1 12.7 2.3 19-11.4 6.1-24.5 7.7-37.2 7.1-9.4 0.1-19-3.5-25.6-10.3-6.1-6.5-8.8-15.5-9-24.3-0.9-16.9 5.6-34.5 18.5-45.8zm9.2 24.9c9.1 0 19.3 0.6 27.2-4.7 4.7-3.2 3.3-11.2-2.3-12.5-11.5-3.4-22.7 6.2-24.9 17.2zm233.2-37.5c10.5-0.9 21.8 1.4 29.9 8.5 7.5 6.2 11.7 15.9 12.1 25.6 0.6 12.5-2.2 25.3-8.9 35.8-9.4 14.5-26.4 23.9-43.8 23.2-10.3 0.6-20.8-3.1-28.1-10.5-6.4-6.4-9.4-15.5-9.8-24.3-0.5-16 4.9-32.8 16.8-43.8 8.4-8.5 19.9-13.5 31.8-14.5zm-4.8 21.5c-5.5 2.6-9.2 7.9-11.7 13.3-3.6 8.1-5.5 17.3-4.2 26.2 0.9 6.1 6.2 11.9 12.6 11.8 5.6 0.4 10.8-2.9 14-7.3 4.7-6.4 7.3-14.2 8.4-22 0.6-6.1 0.8-12.8-2.8-18.1-3.4-5.2-10.8-6.3-16.3-3.9zm191.8-1.7c5.5-9.1 13.6-17.8 24.6-19.5 2.8-0.1 6.3-1.3 8.7 0.9-1.3 8.2-3.3 16.2-4.7 24.4-7.7-0.2-16 1.5-21.2 7.5-9.3 10.4-10.6 24.9-13.1 37.9-1.3 6.8-2.4 13.7-4.1 20.4-8.7-0.1-17.3 0-26-0.1 4.6-29.6 12.1-58.9 14.1-88.9 7.7-0.2 15.4-0.1 23.2-0.1q-0.7 8.7-1.5 17.5zm-572.7-17.5c8.7 0 17.3 0 26 0-2.3 17.5-6.5 34.6-9.6 51.9-2.3 12.4-4.6 24.8-7.1 37.2-8.7-0.1-17.4-0.1-26.1 0 5-29.8 11.1-59.4 16.8-89.1zm37 0c9.1 0 18.2 0 27.3 0.1 2.2 20.9 4.2 41.8 6.4 62.7 8.1-21.4 18.7-41.7 27.7-62.8 9.9 0 19.8-0.1 29.8 0.1-16.6 29.6-32.9 59.4-49.5 88.9-8.8 0.1-17.7-0.1-26.5 0.2-5.8-29.6-10.3-59.4-15.2-89.2zm214.4 0.1c9.3-0.2 18.6-0.1 27.9-0.1 2.3 19.1 5.6 38.1 7.7 57.3 0.5-0.2 1.4-0.6 1.9-0.8 6.5-19.2 15.1-37.5 22.3-56.4 9.4-0.1 18.7-0.1 28-0.1-11.2 23.7-23.1 47-34.7 70.5-9.4 17.9-20.2 35.7-36 48.6-7 5.3-15.1 9.1-23.6 11-1.9-7.7-4.1-15.3-5.7-23.1 11.8-3.5 22.8-10.9 29-21.7 1.4-1.9 0.8-4.2 0.4-6.2-5.7-26.4-11.6-52.7-17.2-79zm200 0c9-0.2 17.9-0.2 26.8 0-3.5 18.5-7.5 37-10.3 55.6-1.1 4.7 0.1 10.8 4.9 13 5.4 2 11.2-1.1 14.7-5.2 5.3-6.2 8.4-14.1 9.9-22.1 2.7-13.8 5.3-27.6 8-41.3 8.6-0.1 17.2-0.1 25.8-0.1-0.6 8.6-2.9 16.9-4.3 25.3-3.9 21.2-8.4 42.4-11.3 63.7q-11.5 0-23 0.1c0.1-4.7 0.4-9.3 0.7-14-6.1 7.4-14.2 13.8-23.9 15.4-6.5 0.5-13.9 1.1-19.6-2.9-6-3.9-9-11-9.3-17.9-0.9-10.1 1.7-19.9 3.5-29.8 2.5-13.2 5.2-26.4 7.4-39.8zm290.7-0.1c8.7 0 17.4 0 26.1 0-1.5 11.7-4.4 23-6.4 34.6-3.5 18.1-6.7 36.3-10.3 54.5q-13.1-0.1-26.1 0c2.1-16.5 6-32.7 8.8-49 2.7-13.4 4.9-26.8 7.9-40.1z"/>
	</g>
</svg>