<svg version="1.2" xmlns="http://www.w3.org/2000/svg" viewBox="0 0 1574 134" width="1574" height="134">
	<title>vmuk_long_logo-svg</title>
	<style>
		.s0 { fill: #e10a0a } 
		.s1 { fill: #ffffff } 
	</style>
	<path id="logotype" fill-rule="evenodd" class="s0" d="m689.6 1.2q4.1-0.2 8.2 0.5 4.1 0.7 8 2.3 3.9 1.5 7.3 3.9 3.4 2.3 6.3 5.4 11 12.1 11 33l19-29.5c6.3-9.9 14-14.6 23.2-14.6q2.3-0.1 4.5 0.2 2.2 0.4 4.3 1.2 2.1 0.8 4 2 1.9 1.2 3.5 2.8 1.5 1.7 2.7 3.7 1.2 2 1.9 4.1 0.8 2.2 1.1 4.4 0.3 2.3 0.2 4.6v105.1h-11.9v-104.7q0-1.3-0.1-2.5-0.2-1.2-0.5-2.3-0.4-1.2-1-2.3-0.5-1-1.3-2-0.7-0.8-1.6-1.4-0.9-0.7-1.9-1.1-1.1-0.4-2.1-0.6-1.1-0.2-2.2-0.2-7.6 0-13.3 9l-27.9 42.9v44.6q0.2 2.3-0.2 4.6-0.3 2.3-1 4.5-0.8 2.2-1.9 4.2-1.2 2-2.7 3.8-1.5 1.6-3.3 2.8-1.9 1.2-4 2-2 0.8-4.2 1.2-2.2 0.3-4.4 0.2-2 0.1-3.9-0.2-1.9-0.3-3.8-0.9-1.9-0.7-3.5-1.7-1.7-0.9-3.2-2.2-1.3-1.3-2.3-2.8-1.1-1.4-1.8-3.1-0.6-1.7-1-3.4-0.3-1.8-0.2-3.6 0-1.3 0.1-2.6 0.1-1.3 0.3-2.6 0.3-1.3 0.6-2.5 0.4-1.3 0.9-2.5 0.7-1.6 1.4-3.2 0.8-1.6 1.7-3.2 0.9-1.5 1.8-3 1-1.5 2-3l20.7-30.8v-15.2q0.2-3.4-0.2-6.7-0.5-3.3-1.5-6.6-1-3.2-2.5-6.2-1.6-2.9-3.7-5.6c-2.8-2.9-6.1-5.2-9.9-6.8-3.7-1.6-7.7-2.4-11.7-2.4-4.1 0-8.1 0.8-11.8 2.4-3.7 1.6-7.1 3.9-9.9 6.8q-2.1 2.7-3.6 5.6-1.6 3-2.6 6.2-1 3.3-1.4 6.6-0.5 3.3-0.3 6.7v83.8h-12v-84q0-20.7 11.2-33 2.9-3.1 6.4-5.4 3.5-2.4 7.4-4 4-1.6 8.2-2.3 4.1-0.6 8.4-0.4zm189.1 0q4.3-0.1 8.6 0.4 4.2 0.6 8.4 1.6 4.2 1.1 8.1 2.8 4 1.6 7.7 3.7 3.7 2.1 7 4.7 3.3 2.6 6.2 5.6 3 3 5.5 6.4 2.5 3.3 4.5 7 2.1 3.8 3.7 7.9 1.6 4.1 2.7 8.4 1 4.2 1.5 8.6 0.5 4.3 0.5 8.7 0 4.4-0.5 8.8-0.5 4.3-1.6 8.6-1 4.2-2.7 8.3-1.6 4.1-3.7 8-2 3.6-4.5 7-2.5 3.4-5.5 6.4-2.9 3-6.2 5.5-3.3 2.6-7 4.7c-5 2.8-10.3 5-15.8 6.4-5.5 1.5-11.2 2.2-17 2.2-5.7 0-11.4-0.7-16.9-2.2-5.5-1.4-10.9-3.6-15.9-6.4q-3.6-2.1-6.9-4.6-3.3-2.6-6.3-5.6-2.9-3-5.4-6.4-2.5-3.4-4.5-7-2.1-3.9-3.7-8-1.6-4.1-2.7-8.3-1-4.3-1.5-8.7-0.5-4.3-0.4-8.7-0.1-4.4 0.4-8.8 0.5-4.3 1.6-8.6 1.1-4.3 2.7-8.3 1.6-4.1 3.7-8 2-3.7 4.5-7 2.5-3.4 5.5-6.4 2.9-3 6.2-5.6 3.4-2.6 7-4.7 3.7-2.1 7.7-3.7 3.9-1.7 8.1-2.8 4.1-1.1 8.4-1.6 4.2-0.5 8.5-0.5zm482.3 2.3v79q-0.1 2.7 0.2 5.3 0.2 2.7 0.8 5.3 0.6 2.6 1.5 5.1 0.8 2.5 2 4.9 1.1 2.1 2.4 4 1.4 2 3 3.7 1.7 1.7 3.6 3.1 1.8 1.5 3.9 2.6c3.1 1.6 6.4 2.8 9.7 3.6 3.4 0.8 6.9 1.2 10.3 1.2 3.5 0 6.9-0.4 10.3-1.2 3.4-0.8 6.6-2 9.7-3.6q2.1-1.1 4-2.6 1.9-1.4 3.6-3.1 1.6-1.7 3-3.6 1.4-2 2.5-4.1 1.2-2.4 2-4.9 0.9-2.5 1.5-5.1 0.6-2.6 0.8-5.3 0.3-2.6 0.2-5.3v-79h12.2v79.2q0.1 3.5-0.3 6.9-0.3 3.4-1.1 6.7-0.7 3.4-1.9 6.6-1.2 3.2-2.7 6.2-1.5 2.8-3.3 5.3-1.9 2.5-4.1 4.7-2.2 2.2-4.7 4-2.5 1.9-5.2 3.3c-4.2 2-8.5 3.5-13 4.5-4.4 1-9 1.5-13.5 1.5-4.6 0-9.2-0.5-13.6-1.5-4.5-1-8.8-2.5-12.9-4.5q-2.8-1.4-5.3-3.2-2.5-1.9-4.8-4-2.2-2.2-4.1-4.7-1.9-2.5-3.3-5.3-1.6-3-2.8-6.2-1.2-3.2-1.9-6.6-0.8-3.3-1.1-6.7-0.4-3.4-0.3-6.9v-79.3zm-1012.1-2.1q3.4-0.1 6.8 0.3 3.4 0.3 6.7 0.9 3.3 0.7 6.6 1.7 3.2 1 6.4 2.3c3.9 1.7 7.7 3.9 11.2 6.4 3.5 2.5 6.7 5.4 9.5 8.6 2.9 3.3 5.4 6.8 7.5 10.6 2 3.7 3.7 7.7 4.9 11.8h-12.9q-0.8-2.3-1.9-4.5-1.1-2.2-2.4-4.3-1.4-2.1-2.9-4-1.5-1.9-3.3-3.7-1.7-1.7-3.6-3.3-1.9-1.6-4-2.9-2-1.4-4.2-2.5-2.2-1.2-4.5-2.1-2.3-1-4.8-1.7-2.4-0.7-4.9-1.2-2.5-0.4-5.1-0.7-2.5-0.2-5-0.2-3.5-0.1-7 0.4-3.4 0.4-6.8 1.3-3.3 0.9-6.5 2.2-3.2 1.4-6.2 3.1-3 1.8-5.6 3.9-2.7 2.1-5 4.6-2.4 2.4-4.4 5.2-2 2.7-3.6 5.7-1.7 3.2-2.9 6.6-1.3 3.3-2.1 6.8-0.9 3.5-1.3 7.1-0.4 3.6-0.3 7.2 0 3.6 0.4 7.1 0.4 3.6 1.2 7.1 0.9 3.5 2.2 6.9 1.3 3.3 3 6.5c2.2 4 4.9 7.7 8.1 11 3.2 3.3 6.9 6.2 10.8 8.5 4 2.3 8.3 4.1 12.7 5.3 4.5 1.1 9.1 1.7 13.7 1.6q3.1 0 6.2-0.3 3.1-0.3 6.1-1.1 3.1-0.7 6-1.8 2.9-1 5.7-2.5 2.6-1.4 5-3.1 2.4-1.7 4.6-3.7 2.2-2 4.1-4.3 1.9-2.3 3.4-4.8 1.7-2.6 3-5.4 1.3-2.8 2.2-5.7 1-3 1.6-6 0.6-3.1 0.8-6.2h-52.7v-10.7h65q0 1.5 0 4.4 0 4.2-0.4 8.4-0.5 4.2-1.5 8.2-1 4.1-2.5 8-1.5 4-3.5 7.6-1.9 3.5-4.3 6.7-2.3 3.2-5.1 6-2.8 2.8-5.9 5.2-3.2 2.4-6.6 4.4-3.6 2-7.5 3.6-3.9 1.5-7.9 2.5-4 1-8.1 1.5-4.2 0.5-8.3 0.4-4.3 0.1-8.6-0.5-4.3-0.5-8.5-1.6-4.2-1-8.2-2.7-4.1-1.6-7.8-3.7-3.6-2.1-7-4.7-3.3-2.6-6.2-5.5-2.9-3-5.5-6.4-2.5-3.3-4.5-7-2.1-3.8-3.7-7.8-1.6-4.1-2.7-8.3-1.1-4.2-1.6-8.6-0.5-4.3-0.4-8.7-0.1-4.3 0.4-8.7 0.5-4.3 1.6-8.5 1.1-4.3 2.7-8.3 1.6-4.1 3.7-7.9 2.1-3.6 4.6-7 2.5-3.3 5.4-6.3 3-3 6.3-5.5 3.3-2.6 6.9-4.7 3.8-2.1 7.8-3.8 4-1.6 8.2-2.7 4.2-1.1 8.5-1.6 4.4-0.5 8.7-0.4zm-335.8 2.1l42.6 115q0.1 0.2 0.1 0.3 0.1 0.2 0.2 0.3 0.1 0.1 0.2 0.2 0.1 0.1 0.2 0.2 0.1 0.1 0.3 0.2 0.1 0.1 0.2 0.1 0.1 0.1 0.3 0.1 0.1 0 0.2 0 0.3 0 0.6-0.1 0.3-0.1 0.5-0.3 0.3-0.2 0.4-0.4 0.2-0.3 0.3-0.6l42.8-115h12.7l-43.7 116.1q-0.4 1.2-0.9 2.4-0.6 1.1-1.3 2.2-0.6 1.1-1.5 2.1-0.8 0.9-1.7 1.8-0.9 0.6-1.9 1.2-1 0.5-2 0.8-1.1 0.3-2.1 0.5-1.1 0.1-2.2 0.1-1.1 0-2.2-0.1-1.1-0.2-2.2-0.5-1-0.3-2-0.8-1-0.6-1.8-1.2-1-0.9-1.8-1.8-0.8-1-1.5-2.1-0.7-1-1.2-2.2-0.6-1.1-0.9-2.4l-43.8-116.1zm473.8-0.9q1.1 0 2.1 0.1 1.1 0.1 2.1 0.4 1 0.2 2 0.6 1 0.4 1.9 0.9 1 0.7 1.9 1.4 0.8 0.7 1.6 1.5 0.8 0.9 1.5 1.8 0.7 0.9 1.3 1.9l65.7 103.8 2.3 4.4v-115.9h12v117.4q0 1-0.2 1.9-0.1 1-0.5 1.9-0.4 0.9-1 1.7-0.5 0.8-1.3 1.5-0.7 0.7-1.6 1.2-0.9 0.5-1.9 0.9-0.9 0.4-2 0.5-1 0.2-2 0.2-1 0-2-0.1-1.1-0.2-2-0.4-1-0.3-1.9-0.7-1-0.4-1.8-0.9-1-0.7-2-1.5-0.9-0.8-1.7-1.7-0.9-0.9-1.6-1.9-0.7-1-1.3-2l-67.2-106.2q-0.1-0.2-0.3-0.4-0.1-0.2-0.3-0.4-0.2-0.1-0.5-0.2-0.2-0.1-0.5-0.1-0.1 0-0.2 0-0.2 0.1-0.3 0.1-0.1 0.1-0.2 0.2-0.1 0.1-0.2 0.2-0.1 0.1-0.2 0.3-0.1 0.2-0.1 0.3-0.1 0.2-0.1 0.4 0 0.1 0 0.3v114.1h-12v-115.5q0-1.2 0.2-2.4 0.2-1.1 0.7-2.3 0.4-1.1 1.1-2.1 0.7-1 1.6-1.8 0.9-0.8 1.9-1.5 1.1-0.6 2.2-1.1 1.2-0.4 2.4-0.6 1.2-0.2 2.4-0.2zm1084.7 0.9l-69.5 60.2 71.4 66.6h-17.5l-63.4-58.3q-0.8-0.7-1.5-1.5-0.6-0.8-1.1-1.7-0.5-1-0.7-2-0.3-1-0.3-2 0-1.1 0.2-2 0.3-1 0.7-1.9 0.4-0.9 1-1.7 0.6-0.9 1.4-1.5l62.7-54.2zm-99.2 0h12.3v126.8h-12.3zm-489.7-1.7q14 0 20.7 14.7l48.7 103.3h6.2v-116.1h11.9v126.4h-27.1l-51-107.8c-2.8-6.1-6.1-9.1-9.9-9.1q-0.8 0-1.6 0.2-0.7 0.1-1.5 0.5-0.7 0.3-1.3 0.8-0.6 0.5-1.1 1.1-0.5 0.7-1 1.5-0.4 0.7-0.7 1.6-0.2 0.8-0.4 1.7-0.1 0.9 0 1.8v107.7h-12v-108.2q-0.1-2 0.3-3.9 0.3-2 1.1-3.8 0.7-1.9 1.8-3.5 1.1-1.7 2.5-3.1 1.4-1.4 3-2.5 1.7-1.1 3.6-1.9 1.8-0.7 3.8-1.1 2-0.3 4-0.3zm227.8 1.9l43.4 81.2q2.9-4.5 5.7-9.1 2.7-4.7 5.3-9.4 2.5-4.7 4.9-9.5 2.5-4.8 4.7-9.7 2.5-5.3 4.8-10.7 2.3-5.3 4.5-10.8 2.1-5.4 4.1-11 1.9-5.5 3.7-11h12.5q-2.1 6.8-4.5 13.5-2.5 6.7-5.2 13.3-2.6 6.6-5.6 13.1-3 6.5-6.2 12.9-2.9 6.1-6.2 12.1-3.2 6-6.6 11.8-3.5 5.9-7.2 11.6-3.7 5.7-7.6 11.3l-19.4 26.9h-14.5l25.4-34.1-49.6-92.4zm-27.4 0v11.2h-75.6v45.7h70.3v11h-70.3v47.3h76.1v11.2h-88.1v-126.4zm-1050.5-0.2h12.4v126.6h-12.4zm301 0h12.4v126.6h-12.4zm-207.9 0q2.8-0.1 5.6 0.2 2.9 0.3 5.6 0.9 2.8 0.6 5.5 1.5 2.7 0.9 5.2 2.1 2.3 1.1 4.4 2.5 2.1 1.5 3.9 3.2 1.9 1.7 3.5 3.6 1.6 2 2.9 4.1 1.3 2.3 2.3 4.8 1 2.4 1.6 5 0.7 2.5 1 5.1 0.3 2.6 0.2 5.3 0.1 2.4-0.2 4.7-0.2 2.4-0.7 4.7-0.6 2.3-1.4 4.5-0.8 2.2-1.8 4.4-1.1 2-2.3 3.8-1.3 1.9-2.8 3.6-1.5 1.6-3.2 3.1-1.7 1.4-3.6 2.7-2 1.3-4.2 2.3-2.2 1.1-4.4 1.9-2.3 0.8-4.7 1.3-2.3 0.6-4.7 0.8l37.1 50.5h-14.9l-35.6-49.2h-31.1v49.2h-12.4v-126.6zm493.7 75.3l-12.5 19.3q-0.7 1.1-1.3 2.2-0.7 1.1-1.3 2.2-0.6 1.1-1.1 2.3-0.6 1.1-1.1 2.3-0.3 0.8-0.6 1.6-0.3 0.9-0.4 1.8-0.2 0.8-0.3 1.7-0.1 0.9-0.1 1.8 0 0.9 0.1 1.8 0.1 0.9 0.4 1.7 0.3 0.9 0.7 1.6 0.5 0.8 1.1 1.5 0.6 0.6 1.3 1.1 0.7 0.4 1.6 0.7 0.8 0.3 1.6 0.5 0.9 0.1 1.7 0.1 1.1 0 2.2-0.2 1.1-0.3 2-0.8 1-0.5 1.8-1.2 0.9-0.7 1.5-1.6 0.7-1.1 1.3-2.3 0.5-1.2 0.9-2.5 0.3-1.3 0.4-2.7 0.2-1.3 0.1-2.7zm-494.1-64.2h-36.4v55.7h36.4q2 0.1 4-0.1 2-0.2 4-0.6 2-0.4 3.9-1.1 1.9-0.6 3.7-1.5 1.6-0.8 3.1-1.8 1.5-1.1 2.8-2.4 1.3-1.2 2.4-2.7 1.1-1.4 2-3 1-1.6 1.7-3.4 0.8-1.8 1.2-3.7 0.5-1.8 0.8-3.8 0.2-1.9 0.2-3.8 0-1.9-0.2-3.8-0.2-1.9-0.7-3.8-0.4-1.8-1.1-3.6-0.7-1.8-1.7-3.4-0.9-1.6-2-3.1-1.1-1.4-2.4-2.7-1.3-1.2-2.8-2.3-1.5-1-3.1-1.8-1.8-0.9-3.8-1.6-1.9-0.6-3.9-1-2-0.5-4-0.6-2.1-0.2-4.1-0.1z"/>
	<path id="virgin" fill-rule="evenodd" class="s1" d="m919.8 38.8c4.1 0.8 2.2 5.7 2.4 7.4-0.2 2.8 0.2 5.1 0 6.6 0.3 3.7 4.2 1.2 7.4-0.5 3.6-1.1 5 1.3 3.7 3.3-2.6 3.3-8.9 3.7-12.7 6.1q-3.6 1.7-7.2 3.7-3.6 1.9-7.1 3.9-3.4 2.1-6.8 4.3-3.4 2.2-6.7 4.6-0.2 1.7-0.3 3.5-0.1 1.8-0.2 3.6 0 1.8-0.1 3.6 0 1.8 0.1 3.6c0.2 0-0.3 1.1-0.3 1.6 0.1 0.5 0.4 1.3 0 2.1 0.6 0.9 0.3 0.6 0 1.5 0.4 0.6 0 0.5 0 1.1 0 0.6 0.4 0 0.3 0.7 0 1.2 0.7 2.3 0.5 3-0.3 0-0.3 1.4 0.3 0.9q0 0.2 0 0.3 0 0.2 0 0.3 0 0.1 0.1 0.3 0 0.1 0.1 0.3c0.3 1.3-1.2 1 0.3 2.3-0.5-0.2 0.5 0.5 0.3 0.4-0.3-0.1 0 0.5-0.5 0.4-0.4 0 0.4 0.2 0 0.5 2.6 1.1-3.6 7.4-5.6 1.6-1-8.8 1.1-20.1-0.2-28q-4.1 2.9-8.1 6.1-4 3.1-7.8 6.5-3.7 3.3-7.3 6.9-3.6 3.6-7 7.3c-16.9 3 15.7-21.3 18.8-23.7 3.1-2.5 8.6-5.9 11.7-8.9 0.2-1.3 0.3-3.3-1.4-1.6-10 5.6-9.3-9.1-6.3-16 0.7-2.3 6.7-7.4 6.9-3.3-0.4 2.2-2.5 3-2.8 5.2-0.3 2.2-3 10.7 1.4 9.9 6.3-2.5-1.1-22.5 8.1-18.4q0 1.5 0 2.9 0 1.4 0 2.9-0.1 1.4-0.2 2.8-0.2 1.4-0.3 2.9c-2.1 16.5 1.1 6.8 12.7 1.8 3.1-3.1 14-4.9 11.4-9.1-1.1-3.3 2.9-13.2-2.2-11.7-4.3 3.6-3.3 9-3.5 12.6q0.1 0.9-0.2 1.8-0.3 0.8-1 1.5-0.6 0.6-1.5 0.9-0.9 0.2-1.8 0.1-0.5-2.1-0.7-4.3-0.2-2.2 0-4.3 0.1-2.2 0.5-4.3 0.4-2.2 1.1-4.2c1.4-1.9 3.9-1.1 5.7-1.5 2-1.2 3.3-3.8 6-3.8zm-53.4-19.9c0.8 0 1.6 0.2 2.2 0.6 0.7 0.5 1.2 1.1 1.5 1.8 0.3 0.7 0.4 1.5 0.3 2.3-0.2 0.8-0.5 1.5-1.1 2.1-5.1 5-9.4 16.4-11.8 24.8q-1 3-1.9 6.1-0.9 3-1.7 6.1-0.7 3.1-1.4 6.2-0.6 3.1-1.1 6.3c-1 1.9 0.4 3.4-0.7 5-0.6 3.3-1.1 6.6-1.6 10.9-1.1 3.3 0.2 10.5-3.6 11.8-4.4 2.6-6.2-34.1-8.2-36.3-0.7-3.3-2.8 4-3 4.9-0.1 4.1-7.4 8-4.8 0.2 9-29.5 10.2-22.4 14.3 0.8 0.6 1.6 0.9 12.5 1.9 8.6 4.4-20 6.7-47.8 20.7-62.2zm-5.1 46.2c3.6 2.7-1.2 14.5-0.3 18.9-5.5 4.8-5-2.1-4.4-6.6 0.7-3.8-1-11.3 4.7-12.3zm14.1-6c5.1 2.8-4.3 5.8-3.7 10.5q0.1 1.1 0 2.2 0 1.1-0.1 2.2-0.1 1.1-0.3 2.2-0.2 1.1-0.5 2.2c-5.2 5.8-5-1.9-4.6-5.6 0.7-9.7-0.1-11.6 9.2-13.7zm26.5-12.4c1.7 0.3 1 3.3 0.8 4.1q-0.1 0.5-0.1 1 0 0.5 0 1 0 0.5 0 1 0 0.5 0.1 1-0.1 0.9-0.2 1.8-0.1 0.9-0.2 1.8 0 0.9-0.1 1.9 0 0.9 0 1.8c-1.1 4.9-6.9 4.7-4.9-1.7 1.1-4-0.7-13 4.6-13.7zm-38 6.9c2.8 1.6-0.6 4.8-2.5 5.4-3.7-0.1-0.6-5.6 2.5-5.4zm39.8-16.3c5.6 0.8-4.6 8.8-3.4 2.5q0.2-0.5 0.5-0.9 0.4-0.5 0.8-0.8 0.4-0.3 0.9-0.5 0.5-0.2 1.1-0.3z"/>
</svg>