<svg version="1.2" xmlns="http://www.w3.org/2000/svg" viewBox="0 0 1507 1254" width="1507" height="1254">
	<title>Virgin_Orbit-svg-svg</title>
	<style>
		.s0 { fill: #dc2327 } 
		.s1 { fill: #ffffff } 
		.s2 { fill: #b5b4b4 } 
		.s3 { fill: #a92022 } 
	</style>
	<path id="path2002" class="s0" d="m0.4 1052.3c-7.7-83 114.8-162.3 273.4-176.9 9.8-0.9 19.4-1.5 28.9-2-144.5 21.1-251.9 95.6-244.7 173.6 7.2 77.9 126.5 131.5 272.4 125.7-9.5 1.3-19.1 2.6-28.8 3.4-158.8 14.7-293.5-40.8-301.2-123.8z"/>
	<path id="path2006" class="s0" d="m1481.6 671.2l-115.4 37.5 25.2-118.6 115.4-37.6z"/>
	<path id="path2010" class="s0" d="m892.7 488.8v0.2c0 0 0.1-0.2 0-0.2z"/>
	<path id="path2022" class="s0" d="m1321.3 626.6c0 46-5.1 90.8-14.4 134-117.1 98.3-266.9 190.9-438.2 265.6-171.4 74.7-341.1 121.4-492.8 140.3-184.8-109-308.6-310-308.6-539.9 0-346.1 280.7-626.6 627-626.6 346.2 0 627 280.5 627 626.6z"/>
	<path id="path2026" class="s0" d="m694.3 1253.4l-6-0.1h-0.1-2.3l-4.7-0.1-5.8-0.2-4.3-0.1-6.2-0.3-3.9-0.2-6.5-0.4-3.7-0.2-6.6-0.4-3.5-0.4-6.6-0.6-3.5-0.3-6.8-0.7-3.3-0.4-6.7-0.8-3.3-0.4-6.7-1-3.4-0.5-6.4-1-3.6-0.6-6.2-1.1-3.8-0.7-5.8-1.1-4-0.7-5.5-1.2-4.4-0.9-5.3-1.2-4.3-0.9-5.4-1.3-4.3-1.1-9.5-2.4 5.6-1.9c346.5-115.9 625.8-286.1 758.7-427.7l-2.9 9.6-0.5 1.5-2.9 9.1-0.6 1.8-3.1 9-0.5 1.5-3.3 9-0.1 0.5-3.6 9.3-0.4 1.3-3.7 9.1-0.5 1.2-4 9.4c-96.3 222.7-317.9 378.6-575.8 378.6z"/>
	<path id="path2030" class="s1" d="m858.5 378.5l0.1-0.9 0.4-1.1 0.2-1.7 0.3-0.9 0.4-0.4v-0.6l0.1-0.9 0.8-1.9 0.4-1.1 1.2-2 0.4-0.6 0.4-0.9 0.8-0.6 0.4-0.7 1.1-1.2 0.2-0.3v-0.4l0.8-0.5 0.6-0.7 0.5-0.7 0.7-0.3 0.8-0.5 1.2-1.3 0.5-0.6 0.8-0.3 0.5-0.5 0.3-0.1 0.2-0.2 0.6-0.4 0.8-0.5 0.3-0.3 0.3-0.3 0.9-0.3 0.4-0.5 0.9-0.4 1.4-0.7 0.7-0.6 1.6-0.4 0.9-0.4 0.8-0.2 1.7-0.7 1.8-0.2 1-0.4h0.4 0.2l2.3-0.1 0.9 0.1h1.6 1.4l1.2 0.2 0.6 0.4 0.8 0.3 1 0.5 1.9-0.3 0.6-0.1 0.6 0.5 0.5 0.8 0.5 1.3 0.4 0.5 0.5 0.8 0.7 0.7 0.7 0.8v1.3l0.5 1.9-0.4 0.3 0.4 0.7 0.3 0.9 0.1 0.6 0.2 0.5-0.2 0.5-0.9 1.2-0.7 1.8-0.2 1.5-0.1 0.7-0.4 0.5-0.3 1-0.5 0.7-0.5 0.8-0.6 0.7-0.4 0.8-0.3 0.9-1.6 1.1-1.4 2.2-1.9 2-1.1 1.5-1 1.6-1.2 1.8-3.3 2.4-1.9 1.4-0.7 0.5-0.5 0.8-1.6 0.5-1.5 1.1-2.8 1.2-0.8 0.7-1.7 0.1-0.6-0.4h-1l-1.7 0.6-2.9-0.6-3.8-0.7-1.9-0.8-1.4-0.8-2.6-2.7-0.4-0.7-0.2-0.9-0.5-2.1-0.5-1.9-0.7-1.4z"/>
	<path id="path2034" class="s1" d="m832.2 584.8l0.3-5v-1.4l0.4-1.5 0.1-3.4 0.3-2.9 0.3-3.4 0.5-3 0.4-4.9v-1.6l0.3-1.1-0.2-0.1 0.3-0.1-0.1-0.6 0.2-0.8 0.1-1.2-0.1-0.3 0.2-0.5v-1.1l0.4-3v-0.8l-0.2-0.6 0.3-1 0.4-2.9 0.3-1.7v-1.6l0.4-3.2 0.1-2.3 0.2-0.9-0.2-0.6 0.2-0.6 0.3-2.8v-1.6l0.2-0.1h0.2v-0.5l-0.2-0.2v-0.4l0.2-0.3-0.2-0.6 0.2-0.8 0.2-1.5 0.2-2.7v-0.2l0.5-0.3-0.1-0.6-0.4-0.2v-0.3l0.4-0.4-0.4-0.5 0.5-0.3v-0.6l-0.1-2 0.1-1.4 0.1-1.3 0.2-0.6 0.3-0.1 0.2-0.4-0.7-0.8 0.5-0.2 0.2-1v-2.2l0.1-0.2-0.1-0.4 0.1-1.7 0.6-1 0.1-1.8-0.2-0.4-0.4-0.7 0.1-0.5h0.7l-0.3-0.7 0.3-0.5v-0.6l-0.3-0.5v-0.3h0.2l0.1 0.2 0.1-0.3h-0.2v-0.7l0.2-0.2 0.1-0.2-0.2-0.1 0.1-0.5 0.1-0.9v-0.9l0.3-1.5 0.1-1.8v-0.9-0.3h0.3l0.2-0.8-0.4-0.3 0.4-1.1 0.1-1.3 0.1-2.7 0.1-0.2v-0.5l0.2-0.2 0.2-0.5v-0.2-0.8-0.9l0.3-1 0.4-0.3-0.1-0.3h-0.2l-0.1-0.4v-1h0.4l-0.3-0.2-0.1-0.3 0.3 0.3 0.1-1.6 0.3-1.5 0.3-1.1 0.1-0.3v-1.4l-0.4-0.4 0.6-1.4 0.2-1.8v-0.9l0.3-0.2-0.3-0.4 0.3-0.3-0.1-0.5-0.2-0.2 0.3-0.2 0.2-1.9 0.2-0.7-0.1-0.1 0.7-2.5 0.3-1.1 0.2-0.4v-0.7l0.5-0.8 0.2-0.6 0.2-0.9 0.2-0.3-0.2-0.3 0.6-0.1v-0.5-0.3l0.1-0.2 0.5-0.4h-0.2l0.7-1.4-0.2-0.7 1.3-1.6 0.1-1.1 0.5-0.2 0.6-1 0.2-0.2 0.4-1.2 1.4-1.5 1.5-1.7 0.6-0.4 0.1-0.4 0.8-0.5 0.5-0.5 0.6-0.6 1.8-1.6 0.5-0.5 1.5-1.3 1.3-0.6 0.8-0.4 0.5-0.3h0.5l0.1-0.1 0.9-0.6 0.7-0.3 0.7-0.4 0.9-0.1h0.9l0.6-0.2 0.6-0.3 0.4-0.1 0.3-0.1 0.4 0.6 0.5-0.3 2-0.2 1.1-0.2h0.4l0.4-0.2 0.5 0.2h1.6l0.9 0.3 0.5 0.4 0.8 0.1 0.7 0.3 0.5 0.4 0.4 0.7 0.5 0.2h0.4l-0.1 0.3 0.4 0.3v0.3 0.8 0.6l0.2-0.1 0.2 0.6v0.4l-0.1 0.7-0.3 0.4h0.3l0.3 0.2v0.4l-0.2 0.3v0.3h-0.3l-0.1 0.6 0.3-0.2-0.1 0.3 0.2 0.5 0.2 0.3 0.1-0.3 0.3-0.2h0.7l0.2 0.1-0.1 0.3 0.2 0.3-0.4 0.4 0.3-0.2-0.1 0.3-0.1 1 0.1 0.3 0.3 0.7-0.1 0.1h0.1l0.3-0.5 0.2 0.3 0.2 0.6v0.3l0.2 0.2 0.1 0.1 0.4 0.6-0.2 0.8-0.3 0.6v0.5 1l0.3 0.2 0.2 0.5-0.2 0.7-0.5 0.3v0.7l-0.4 0.6-0.6 0.3 0.5 0.5v0.3h0.2l-0.1 0.3h-0.1l0.1 0.2-0.4 0.2h-0.2l-0.2 0.6 0.1 0.2 0.1 0.1 0.3 0.6v0.6l-1.1 0.9-0.4 0.5 0.1 0.3 0.3 0.3v0.3 0.2l0.3-0.1 0.3 0.1h0.5l-0.2 0.2-0.2 0.1-0.6 1 0.4 0.3h0.1l0.1 0.2 0.2 0.1-0.1 0.7-0.1 0.2v0.3 0.5l0.2 0.6-0.4 0.3-0.8 0.3v0.3l-0.1 0.3v0.3l0.1 0.4h0.6l-0.3 0.5h-0.2-0.3l-0.1 0.3 0.2 0.4 0.1 0.8 0.3 0.1-0.3 0.4-0.1 0.3-0.6 0.4-0.2 0.6-0.2 0.2-0.5 0.1-0.1 0.6v0.1 0.1l1.1 0.2h0.5l0.2 0.2 0.5-0.2-0.7 0.5v0.7l-0.5 0.2 0.3 0.5h0.2-0.4l-0.1-0.3h-0.1l-0.6 0.3-0.4-0.3v0.3l0.3 0.6 0.5 0.4 0.2 0.5v0.9l-0.6 0.3-0.1-0.3h-0.3l-0.4 0.6 0.5 0.7 0.6 0.4v0.3l0.3 0.1-0.2 0.3-0.4 0.2-0.3 0.2-0.2-0.2h-0.1l-0.2 0.2v1.4l-0.1 0.9 0.1 0.4-0.2 0.2-0.1 0.5 0.1 0.3 0.1 0.6v0.2 1.1 2 1.5l0.1 0.5 0.4-0.2 0.1-0.3 0.2 0.3-0.3 0.2-0.4 0.7-0.1 0.1 0.2 0.3h-0.1 0.4l0.3 0.3-0.3 0.2v0.2 0.3 0.3 0.2l0.3 0.4 0.5 0.6-0.1 0.3h-0.3v0.2l-0.3 1.4-0.5 1.2-0.2 1.4 0.2 0.7 0.5 0.5 0.3 0.2h0.3l-0.3 0.5 0.3 0.4-0.7 0.3-0.4 1 0.7 0.5-0.3 0.3v0.6l-0.4 0.3v1 1.5l0.4 0.1 0.1 0.3 0.3 0.1 0.4 0.4-0.7 0.4-0.4 0.6-0.1 0.9 0.2 0.6-0.3 0.6 0.6-0.4 0.6-0.5 0.1 0.6-0.8 0.9-0.3 0.3 0.2 0.5-0.3 0.4v2.1l0.5 0.2-0.1 0.7 1 0.9-0.6 0.3-0.4 0.7 0.1 0.9 0.7 0.6v0.9l-0.5 0.5-0.3 1.7 1 0.7-0.2 0.6h-0.7l-0.8 0.6 0.2 0.6-0.1 0.5v0.6l-0.7-0.3-1 0.7 0.5 2 0.1 0.5-0.5 0.4-0.4 0.7 0.3 1.4v0.8 0.6l0.1 0.7 0.3 0.7 1.4 0.7 0.5 0.5 0.3 0.5 0.5 0.6-0.5 0.7-0.3 0.8v0.3h-0.4l-0.1-0.2 0.1-0.3-0.6-0.4-0.7-0.2h-0.3l0.3-0.4-0.5-0.6-0.4 0.4v0.8 0.6l0.6 0.1 0.5 0.3-0.3 0.3 0.1 0.1v0.8 0.8l1 0.3 0.4-0.4 0.3 0.6v0.6 0.8l-0.5-0.1-1.8-1.2h-0.3l-0.2-0.1-0.2 0.6 0.4 0.6-0.4 1.4-0.1 0.8-0.3 0.2 0.4 0.5-0.4 0.9v3.4l-0.3 5.1v1.5l-0.1 2.9v0.8l-0.2 0.5 0.2 0.4 0.1 0.4-0.5 0.3-0.1 1.3v3.3l-0.2 3.2 0.3 1.4 0.8 0.9v1.5 1.1l0.4 0.2-0.1 0.5-0.7 1v0.9l0.1 1.3-0.5 0.1 0.4 0.4-0.5 2.3-0.7 2-1.2 0.8-0.4 1.7-1.4 2.1-2.5 3.1-2.4 2.2-1.6 2-0.8 0.3-0.4 0.7-1.4 0.3-2.2 1.7-1.5 0.5-0.1 0.6-0.7 0.1-2.9 1.6-4.7 2.5-4.4 1.5-3.3 0.2-3.2-0.2-2.5-0.8-1.4-1.1-2.2-1.6-1-2-0.8-2.7-0.7-2.7 0.1-1.8z"/>
	<path id="path2038" class="s1" d="m600.3 556.8l4.7-0.4 2-0.5 1.2-0.3 1.1-0.3 3-1.1 2.7-0.7 1.4-1.4 2.1-0.4 2.2-0.4-0.3-0.5-0.8 0.4 1.5-0.9v-0.4l0.6-0.1h2.1l1.2-1.3 1-0.5 1-0.4 0.7-0.3 0.4-0.2 0.4 0.3 1.4-0.6-0.7-0.5 1-0.4 0.2-0.4 0.5 0.8 0.7-0.2 0.2-0.6-0.2-0.6 1 0.2 1.4-0.4 0.1-0.2 0.2-0.1 0.8-0.4 1-0.2 1.6-0.4 1.4-0.3 1.2-0.2 0.8 0.2 0.5-0.2 3 0.8 1.3 0.3 1.3 0.7 1.7 1.7 0.9 0.9 0.2 0.8 0.3 0.5 0.7 1.1 0.7 0.7 0.3 1.3 0.2 0.4 0.1 0.7 0.6 1.1 0.2 0.4v0.3 0.3l0.6 0.2v0.2l0.2 0.5 0.4 1.1h0.5l-0.5 0.9 0.7 1.2-0.4 1.6-0.3 1.6 0.1 3.1-0.5 2.4-0.7 1-0.3 1.1-0.8 0.6-0.6 1-0.9 2.2-3.1 3-0.9 0.6-0.4 0.3-0.4 0.3-1.4 1.3-2.1 1.5-1.2 0.5-0.9 0.9-0.6 0.2-0.3 0.6-0.9 0.8-1.8 1.6-2 1-1.2 1.3-1.4 1v0.2l-0.7 0.4-0.4 0.6-0.5 0.6h-0.7l-0.6 0.6-0.4 0.3-0.9 1.2-0.8 0.5v0.3l-1 0.2-0.5 0.5-0.8 1.2-1.5 2.4-1.7 2.1-1.7 2-1.5 2.1-0.8 1.3-0.4 1.3-1.2 1.4-0.7 1.6-0.6 1.7 0.8 1.5-1.9 1.4-0.3 1.4 1 0.6-1.2 0.5-0.2 1.5 0.1 1.4v1.4l-1.3 1.3-0.2 1.4-0.5 1.2 0.2 1.4 0.2 1.4 0.6 1.2-0.5 0.7h-0.5l-0.8 0.6-1 0.6 0.4 1.4-0.3 0.6-0.4 1 0.4 1.3-0.4 1.6-0.1 1.3-0.3-0.1 0.3 0.7-0.3 0.5 0.4 0.2-0.3 2.5-0.2 3 0.2 1.4 0.3 0.8-0.7 2.2-0.2 2.8-0.4 2.2 0.4 1.4-0.5 1.6v3.1l-0.1 3v1.4 1.6 1.5 1.5 1l-0.2 1.3-0.1 1.8v3.6l-0.4 2.8v2.7l0.7 0.4-0.8 0.6 0.6 1.9 0.2 2.1-0.9 1.5-0.2 2.8-0.4 1.1 0.2 1.3v2.9l-0.4 3.2-0.4 3.3-0.5 1.9-0.4 0.8 0.2 0.8-1.1 2.2-1.1 2.2-1.2 2.3-1.4 2.4-0.7 0.8-0.7 0.9-2.6 2.6-0.8 0.8-0.2 1.3-1.3-0.3-0.8 0.8-0.9 0.8-0.7 0.6-1.2 0.5-1 0.5-0.4 0.6-0.6 0.1-0.4 0.4-0.7 0.3-0.9 0.7-2.2 1.3-2.7 0.8-0.9 0.2-1.7 0.7-2.5 0.8h-1.2l-0.5 0.3-0.4 0.3h-2.9-2.3l-1.5-0.8-1.4-0.6v-0.8l-0.3-0.1-0.8-0.4-0.3-0.1v-0.3l-0.6-0.9-0.6-0.5-1-1.3-0.3-0.8-0.4-1-0.7-0.4-0.1-0.8-0.2-1.2-0.4-1.2-0.5-1-0.2-3.1-0.2-3 0.2-3.2v-3l-0.2-2.9 0.3-1.6-0.5-1.6v-1.2-1.6l1.1-2.3 0.1-2.9 0.3-3.1-0.3-1.6 0.1-1.1 0.2-2.5h0.1l0.1-0.3-0.2-3.1-0.4-1.3-0.6-0.7 0.6-1.5v-1.6l0.1-1.6v-1.4l0.5-1.3 0.2-1.2 0.5-0.7-0.1-0.7-0.5-1-0.1-2.8-0.5-1.4 0.8-1.2 0.3-1.4v-3.7-1.4-1.4-2.6l0.9-2.9 0.6-1.3 0.3-0.6 0.2-0.7-0.2-0.7-0.2-1.8 0.7-2.2v-1.1-1.6l0.3-3.3 0.5-2.8v-3.2-3.1l0.1-3.1 0.4-3 0.4-1.1-0.4-1.5 0.4-5.8 0.2-4.7v-2l-0.2-1.4 0.2-1.3 0.2-1.3 0.1-2.6 0.3-5.1 0.9-6 0.9-3.3 0.8-2.8v-1.4l1-2.5 1-2.9 1.1-2.1 0.8-1 0.3-0.3 0.3-0.6 1.4-1.9 1.9-1.8 4-3.3 0.3-0.5 0.6-0.1 1-0.9 1.2-0.7 1.2-0.6 1.2-0.5 1.3-0.5 1.1-0.6 3.3-1.4 3.4-0.9 0.7 0.3 0.6-0.4 2-0.6z"/>
	<path id="path2050" class="s1" d="m437.4 648.9l-0.4 0.5 0.1 0.2-0.3 0.1-0.5 0.1 0.2 0.5h-0.5v0.4l-0.2 0.2-0.2 0.6v0.7l-0.3 0.6 0.2 0.7 0.1 0.6v0.5l0.2 0.1 0.2 0.1v0.5l0.1 0.7-0.3 0.7-0.2 0.8-0.1 0.5-0.6 1.1v0.7l-0.2 1.2v0.9l-0.2 0.1-0.3 0.3-0.6 1.4-0.8 2.8 0.3 1.2-0.3 1.3 0.5 1.1-0.5 0.8-0.4 1.4v0.7l-0.3 1.1 0.3 0.5v1.5l-0.3 3.1-0.2 0.2-0.4 0.1-0.4 0.4-0.9 1v0.5l-0.1 0.2-0.3 0.7-0.1 0.9 0.6 0.3 0.3 0.8-0.3 0.7v0.2l-0.3 0.1v0.9l1 0.7-0.8-0.1-0.5 0.7-0.1 0.6-0.4 0.6 0.2 0.4-0.1 0.4 0.1 0.5-0.3 1.8v1.6l-0.3 0.5-0.6 0.2-0.2 1.5-0.1 1.4-0.2 0.5v0.8l0.1 0.7-0.2 0.9-0.4 0.5-0.2 0.4v0.3l-0.3 0.2v0.7l-0.2 0.7v0.6l-0.4 0.5 0.1 0.7-0.1 0.7-0.1 1-0.1 0.7 0.1 0.6-0.1 1.4v0.2l-0.3 0.2 0.2 0.6 0.1 0.5v0.7l0.1 1.1 1.2 0.8 1-0.4v0.7l0.1 0.3 0.5 0.1-0.3 0.3 0.1 0.4 0.2 0.3-0.4 0.3v0.7l-0.2 1 0.6 0.4 0.2 0.7-0.1 1-0.4 0.7-0.3 1.2v1.4l-0.2 1.6-0.4 0.3-0.4 0.1v0.3h-0.5v0.3 1.2l0.3 1.4-0.8 0.9-0.3 1.5-1 0.7-0.5 0.4-0.1 0.3h-0.2l-0.2 1.2-0.4 0.3-0.2 0.5-0.1 0.1-0.8 1.4v0.8l-0.3 0.6-0.2 0.2 0.2 0.3v0.1 0.4l0.2 1.4-0.1 0.7-0.1 0.6-0.2 1.7-0.4 1.6-0.3 1.7-0.3 1.5v1.9l-0.3 1.8-0.5 1.3 0.4 0.6-0.5 0.8 0.3 0.7 0.2 0.7-0.5 0.6v0.9l0.7 1.5 0.8 0.2 0.4 0.5 0.5 0.3v0.7l0.4 0.7 0.2 0.6-0.6 1.1v0.3l-0.3 0.4-0.7 0.5h-0.8l-0.3-0.1 0.2-0.4-0.8 0.6-0.3 0.3-0.2 0.5-0.2 0.1 0.2 0.3v1.3 1.6 0.6l-0.2 0.6-0.1 0.6-0.3 0.5v0.7h-0.3l-0.1 0.7-0.2 0.1-0.1 0.6-0.6 0.5-0.2 0.8-0.3 0.8-0.2 0.9v0.9l-0.3 1.9-0.4 1.4v2l-0.2 1-0.2 0.9v1.5l-0.4 0.1 0.2 0.9-0.1 0.9-0.3 0.9v0.9l-0.1 0.8-0.1 1.8-0.4 0.7 0.1 1-0.6 1.5 0.3 0.2 0.1 0.3-0.4 0.1v0.8l-0.2 1.8-0.2 1.7v0.9l-0.1 0.6-0.2 2-0.2 0.9v0.7l-0.4 2.3-0.2 1.4-0.2 1.8-0.1 1.8-0.3 0.6 0.1 0.5-0.1 0.2-0.1 0.5-0.1 1v1.9l-0.2 1.7-0.4 1.6v0.5l-0.2 0.8-0.1 2v0.9 0.5l-0.2 0.3-0.1 0.9-0.2 0.7-0.1 1.8-0.2 1v1.3-0.1l-0.3 1.8-0.4 1.6-0.2 1.8-0.2 0.6 0.1 1-0.2 1.6-0.1 1-0.1 1-0.2 0.3 0.1 0.2-0.2 0.7-0.1 1.8-0.1 0.9v0.8l-0.1 0.8 0.1 0.7-0.3 0.8-0.3 0.5 0.1 0.8-0.1 1.8-0.2 1.8-0.3 0.8-0.3 1.5v0.8 1l-0.1 0.2-0.2 0.3-0.2 1.7-0.1 1.6-0.1 2-0.2 1.8-0.4 0.7v0.8l-0.6 0.9v1 1.2l-0.1 0.6 0.3 0.5-0.3 0.2v1l-0.3 0.4v1l-0.2 0.9v0.8l-0.1 0.6-0.4 1.9-0.1 1-0.4 0.5 0.2 0.9-0.1 0.4 0.1 0.4-0.2 0.8-0.3 1.9-0.3 1.8-0.1 0.8-0.3 0.8v1 0.8l-0.4 1.8-0.1 1.3-0.4 1.7v1.9l-0.2 1.7-0.4 1.8v0.8l-0.5 0.4v0.8l-0.2 1.2-0.3 1.6-0.2 1.7-0.1 0.7 0.5 0.6-0.5 0.6-0.6 2.8v0.9l-0.3 0.7-0.5 1.8v0.9l-0.4 0.7-0.4 1.7-0.2 0.8-0.4 0.6-0.4 1.9-0.7 1.6-0.2 1.2-0.6 0.6-0.1 0.5-0.6 0.8-0.4 0.8-0.4 0.5-0.2 0.3-0.5 1.1-0.4 0.5-0.7 0.6-1.1 1.1-1.4 0.9-0.5 0.5-0.9 0.2-0.8 0.5-0.4 0.6-1 0.1v0.5l-3.1 1-2 0.3h-1l-0.8 0.4h-2.1-0.8l-0.9 0.3-1.8-0.3-1.2-0.2-1-0.3-1.8-0.8-1.4-0.4-0.4-0.7-0.4-0.5-0.9-0.4-1.1-0.7-0.6-0.2-0.4-0.8-0.4-0.4-0.1-0.4-0.6-0.6-0.8-1.2-0.6-0.4-0.8-1.6-0.3-1-0.3-0.6-0.5-1 0.2-1-0.6-1.5-0.2-0.6-0.2-0.6 0.1-0.6-0.5-1.6-0.1-0.7-0.4-1v-0.8l-0.3-1.7-0.4-0.7 0.2-0.4-0.2-0.3-0.1-1-0.2-1.1-0.4-0.6-0.2-0.9-0.1-1.6-0.5-0.8 0.2-0.2v-0.5l-0.5-1.3-0.4-0.9 0.4-0.8-0.4-0.6-0.2-1.6v-0.6-0.6h-0.5l-0.2-0.9-0.4-1 0.2-0.7v-0.5l-0.1-0.2-0.3-0.5 0.4-0.2-0.4-0.4v-0.7l-0.2-1.3v-1.2l-0.2-0.6-0.3-1.7-0.5-1.9-0.3-0.7v-1l-0.3-0.9-0.1-0.9-0.1-1.4-0.3-1.2-0.1-1.3-0.6-2.8-0.3-2.5-0.4-0.7-0.1-0.9-0.5-0.6 0.1-0.4 0.2-0.7v-0.6-0.4l0.2-0.9h-0.5v-0.3-1l-0.1-0.8-0.3-1.7-0.5-2-0.3-2.3-0.3-0.5v-0.9l-0.2-0.8v-1.7l-0.7-1.5-0.4-0.7-0.4-0.5-0.2-1.4 0.4-0.7v-1l-0.2-2v-1.1l-0.3-0.6 0.1-0.8-0.5-0.7-0.1-0.9-0.3-0.8-0.4-0.8-0.6-0.7 0.6-0.3 0.1-0.6-0.1-0.9 0.1-0.7-0.3-0.7-0.1-0.2 0.1-0.4-0.1-0.9-0.2-0.8-0.5-1.7-0.4-1.8v-1.7l-0.4-1.5-0.3-0.6-0.5-0.3-0.9-0.3-0.6 0.3-0.6-0.2-0.5 0.5 0.4-0.6-0.2-0.5 0.8-0.3 0.6-0.5 0.9-1.5 0.2-0.6-0.2-0.7v-0.7l-0.3-0.9-1.1-1.4-0.7-0.3-0.7-0.4-0.2-1.5 0.2-0.9 0.3-0.8v-1.2l0.2-1.3 0.6-1.3-0.4-1.2-0.2-0.9 0.3-0.6-0.3-0.8-0.1-0.9-0.6-1.4v-1-0.9l-0.2-0.2-0.1-1.4-0.6-2.4-0.1-0.6-0.2-0.6 0.2-0.9-0.4-1.2 0.3-0.3-0.3-0.7-0.4-1.1 0.1-1.3-0.4-0.6v-1l-0.1-1.1-0.2-0.9-0.5-0.7 0.1-0.2-0.1-0.3v-1.8l-0.2-0.8v-1.1-0.8l-0.5-0.5-0.1-2-0.2-1.9v-0.7l-0.4-0.2v-1.4l-0.2-1.2-0.1-1-0.1-1 0.1-0.6v-0.2l-0.4-0.1v-1.7l-0.3-1.1v-0.8l-0.2-0.1v-0.4-1l-0.5-1.8v-1.8l-0.5-0.8v-0.8l-0.2-1.9-0.5-0.7 0.5-0.8-0.5-1 0.2-0.6-0.2-0.8-0.2-1.4 0.1-1.3-0.9-1.4 0.3-1.2-0.2-1.1-0.7-2.5-0.2-2.1-0.1-1.8-0.5-1.6-0.2-1.3-0.1-2.3-0.5-2.9-0.4-2.9-0.2-1.1v-0.8l-0.3-0.4 0.2-1-0.6-1.1v-2.9l-0.4-1.4-0.2-1.2-0.3-2.9-0.2-1.6-0.3-0.4v-0.8l-0.3-1.5-0.4-2.7-0.2-1.3-0.3-2.5-0.3-1.5v-1.6l-0.5-1.3-0.1-1.4-0.9-5.8-0.5-2.7-0.4-1.4-0.3-1.5 0.3-1.1-0.3-1.3-0.3-2.5-0.5-3.8v-1.5l-0.7-0.8-0.3-0.9-1.1-2.1 0.3-0.8-0.2-0.7v-3.3-1.3l0.2-0.7-0.1-0.7-0.1-2.7-0.4-1.5-0.4-1.8-0.4-1.9-0.3-2.5-0.3-2.2-0.5-1.2-0.1-0.4 0.4-0.4-0.4-1.1-0.1-1.5-0.3-2.9-0.7-2.9-0.3-1.5-0.1-2.2-0.3-2.3-0.6-3.1-0.1-1.3-0.5-1.1-0.2-3.2-1.1 0.7 0.8-2.2-0.3-2.5-0.4-0.7-0.5-0.1 0.1-0.7-0.3-0.5-0.1-0.8h-0.7l-1.1-1.3-0.2-3.1 0.2-1-1.2-1 0.1-1.5 0.3-0.8-0.3-0.3-0.1-0.7 0.4-0.4 0.5-0.2v-0.3l0.4-0.4-1.3-0.9 0.4-0.7v-0.8-0.9l-0.3-0.6 0.6-0.2 0.7-1-1.3-0.9-1.2 0.7-0.6 0.6-0.3-0.4-0.3-0.3 0.3-1.4 0.1-0.6 0.2-0.3v-0.4-0.7l0.3-0.6-0.3-0.1h-0.7l-1-1.1-0.2-0.6-0.3-0.5-0.8-0.1-0.7-0.1h-0.5l-0.5-0.6h-1.4l-1.2 0.6 0.2 0.3-0.2 0.4v0.8l-0.4 1-0.2 0.8v0.2l-0.2 0.2-0.1 0.8-0.3 0.4-0.6 0.4-0.1 0.5-0.3 0.1 0.1 0.7v0.6l-0.3 0.5h-0.4v0.9l-0.5 0.4-0.3 0.6-1.6-0.7v1.1l-0.2 0.3v0.5l-0.1 0.9 0.1-0.3 0.5 0.1v0.2l0.8 0.8-0.4 0.1-0.4-0.4h-1.1l-0.5 0.4-0.4 0.4-1.1-0.5 0.1 0.8 0.3 0.8 0.1 0.6 0.3-0.6-0.1 1.6 0.1 0.5-0.4 0.5v0.8h-0.8l0.3 0.8 0.5 0.4-0.6 1.2-1.3 0.5 0.3 0.7-0.6 0.2-0.2 0.4-0.4 0.7 0.2 0.4 0.7 0.1-0.2 0.7h-0.3l-0.2 0.1-0.4 0.4-0.3 0.1-0.3 0.4-0.3 1.1v0.5l-0.5 0.2-0.5 1.6 0.3 0.7 0.4 0.3-0.3 1-0.8 0.1-0.1 0.7-0.6 1.3 0.2 0.8-0.8-0.1-0.3 1.3 0.2 1 0.4 0.4-0.3 0.7-0.5 0.3-0.2 0.8-0.2 0.7 0.2 0.7-0.3 0.7-0.5 0.5 0.5 0.3v0.7l-0.7-0.3-0.2-0.1-0.3-0.3-0.7 0.4-0.1 1.2h0.7l0.6-0.1-0.2 0.4-0.4 0.3-0.2 0.6-0.6 0.5 0.1 0.6v0.4 0.3l0.3 0.6v0.7l-0.9 1.1-0.3 1-0.4 0.4-0.4 0.1 0.2 0.3-0.5 0.5v0.8l0.3 0.4-0.6 0.3v0.3 0.5l-0.4 0.2-0.2 0.9-0.3 0.7-0.5 0.5v1.5l1.4 0.3-1.3 0.7-1.2 1-1.2 2.6-0.5 1.4v1.5l-0.7 0.9-0.4 1.4-1.7 1.8 0.3 0.7-0.6 1.3-1.4 2.1-0.1 1.5-0.7 1.1-0.2 1.4-0.8 0.9-0.5 0.5v1.1l-0.4 1.6-1 1.2-0.4 2.7 0.4 1-2.1 0.1-0.4 1.1-0.8 0.7-1.6 1.6-3.4 2.4-1.9 0.5-0.7 0.7h-0.8l-0.9 0.6h-1.1l-2.2 0.1-1.6 0.5-2.4-0.1-1.9 0.1-1.9-0.6-4.1-1.6-6.8-7.2-1.7-5.6c-0.5-3.7 1-7.6 1.9-11.1l1.8-5.3 2-4.9 0.5-2.9 0.8-2.2 1-2.6 1-1.3 0.1-1.9 1.2-2.7 0.7-2.7h-0.7l4-9.3 3.1-7.7 0.4-3.2 1.1-2.2 0.7-2.7 1.3-2.4 1.8-4.3 0.5-3.7 0.7-3.3 3-5.3 2.2-6.6 0.5-3.4 0.7-2.9 1-2.8 1.4-2.9 2-5.7 2-6.4 1-3.5 0.2-2.9 1.5-3.3 1.5-4.2 1.1-2.8 0.8-3.7 1-3.2 1.4-2.8 2.9-9.9 0.9-2.2 1-2.6 0.3-1.3 0.5-1.3 2-6.3 0.2-0.5 0.3-0.2v-0.8l0.4-1 0.6-1.8 0.4-1.1 0.5-0.8 0.5-3 0.9-1.3 0.4-1.3 1.8-5.8 2.4-4.5 2.5-3.6 2.2-2.1 2.8-2.1 1.4-1.1 1.9-0.7h-0.1l1.3-0.3 0.4-0.6 1-0.2 2-0.5 1.9-0.3 2 0.2 0.8-0.2 0.9 0.2 2.2 0.3 2.4 0.2 1.1 0.2 2 0.9 1.1 0.3 2.4 1.4 1 0.9 1.1 0.9 1.2 1 0.9 1.2 1 0.9 0.4 0.8 0.5 0.6 0.9 1.7 0.3 0.9 0.5 0.7 0.2 1 0.8 1.1 1.2 4 0.6 1.8 0.1 2.1 0.8 4.3 0.4 0.9 0.1 1 0.3 2.1 0.3 1.2 0.1 1.2 0.5 2.1 0.2 2.1 0.3 0.9v1.1l0.4 1.8v1.4l0.2 0.6-0.1 0.4 0.3 0.6 0.2 0.6 0.1 1.4 0.2 0.9v1.1l0.6 2.2 0.4 2.1-0.1 0.7 0.2 0.3 0.1 0.3 0.2 2.2 0.6 0.9v0.8 2.3l0.3 1.1v1.2l0.5 1.9 0.2 2 0.3 1.7 0.6 3.1-0.2 0.5 0.3 1 0.2 0.9 0.3 0.8v1.1l0.3 1.8 1.2 1.8-0.5 0.7-0.2 0.8 0.4 2.2 0.8 0.7 0.4 0.6 0.2 0.9-0.6 0.1 0.2 1.7 0.6 0.4-0.2 0.8-0.6 0.5 0.3 0.8 1.2-0.4 0.7 0.4-0.7 0.3v2.1l0.4 0.8 0.4 0.5-0.6 1.5v1.8l1.5 0.4 0.5 0.7-0.5 0.6 0.3 0.7-0.7 0.6 0.7 0.9v1.2l0.3 0.9v1l0.6 0.8-0.6 0.6-0.8 1.1 0.2 0.9 0.5 0.6-0.5 0.6v0.9l0.3 0.2v0.6l0.2 0.9 0.1 0.9 0.6 0.4 0.1 0.5-0.1 0.8v1.8l0.5 0.6-0.4 0.9 0.6 0.6 0.7 0.2-0.6 0.8-0.3 0.7 0.4 1.8 0.3 2 0.7 2.7 0.7 1.4-0.5 1.1 1 5.6 1 0.4v1.2l-0.4 2.1 0.5 1.4-0.1 1.6 0.3 1.7 0.7 0.9 1.4 0.8-0.4 1.3-0.3 1.4 0.1 0.9 0.6 0.4 0.2 0.9 1 0.7-0.3 0.8 1 3.3 1 0.9 0.3 1.5 0.5 1.5v1.9l0.2 2-0.2 1.8 1.5 2.6 1.2 1.9-0.3 1.1-1.2 0.3 0.1 0.9 0.2 1.2 0.1 1.3-0.1 1.1 0.8 2.4 0.6 1.3 0.5 1.2 0.2 1.2 0.7 0.7v2.9 3.1l0.4 2.7 0.2 1.5 0.5 0.9 0.4 1.4 0.3 0.9 0.7 0.9v1.2l0.6 1 0.4 1.8 0.8 1.6 0.2 2.2-0.4 1-0.2 0.7-0.5 0.3-0.3 1.3-0.3 1-0.3 1.3v0.9l0.4 1.2-0.6 1-0.2 1.5 0.1 1.8 0.1 0.9-0.1 0.8 0.9 0.1 1.2-0.2 0.4-0.3 0.5 0.2-1.6 1.3 0.1 0.9-0.3 1.1 0.9 0.9 0.2-0.4 0.7 0.3-0.9 0.4v0.8l0.7 1.4 1.2 0.7 0.8 2.8 0.1 3.5-0.8 2.9 0.2 2.1-0.6 1.2 0.8 3.2 0.8 3.1v3 3.7l0.4 1.8-0.6 1.1 2.8 2.2-0.5 1.4 0.5 1.6-0.3 4v1.4l0.6 1.5 2.2 0.6 0.7 1.6 1-1.7 0.3-1.7 0.6-0.4 0.8-5.9v-1.6l0.5-0.9 0.4-3.2 0.2-4.8 1.3-9.1c0.9-6.3 2.1-12.7 2.7-18.9l0.8-5.2c1.3-4.3 1.8-9.4 2.5-14.2l1.1-7.6 0.6-3.6 1.7-10.1 1.3-6.7c0.8-4.7 2.1-9.6 2.6-14.9l1-7.4 0.8-4.6 1.4-6.1 1.7-7.4 0.6-4.6 1.1-4.6 0.6-4.7 1.2-4.9 1.3-5.2 1.8-10 0.9-5.3 2.7-9.9 1.6-6.5 0.5-2.9 0.3-3 1.2-1.5 0.1-1.7 0.9-3.7 1.6-5.5 0.7-4.7c0.6-3.6 2-6.9 2.8-10.3 1.1-4.6 2.7-8.8 3.5-13.5l2.2-6.1 0.7-3.5 1.3-2.8-0.2-2 1.3-4.7c0.7-4.4 1.8-8.9 2.8-13.2l2.5-6.4 1.6-6.6c1.5-4.4 2.4-8.6 3.8-12.8l1-3.5 0.5-3.1 0.8-3.1 1.5-2.5v-5.3l2.1-4.8 1.1-4.9 1.6-4.5 0.7-4 1.4-4.9 1.6-4.5 3.1-6.9 1.1-3.4 2-6.9 1.3-5 1-2.5 1.4-1.9 0.8-2 0.8-2.2c2.6-8 5-16.2 8.4-23.8l3.4-9.8 3-7.6 2.2-7 2.1-5.6 1.8-4.8 1.8-4.5c1.1-3.6 2.4-7 3.8-10.4l3-8.4 2.8-7.4 1.2-4 1.5-3.1 3.4-9.8 1.9-5 2-5 3.8-9.3 2-5.2 1.8-5.8 1.8-4.7 2-4.6 3.4-8.5 2.2-4.4 2.8-4 1.2-2.6 2.5-4.3 1.8-1.9 1.8-2.2 0.7-1.3 1-0.7 0.3-0.2 1.5-1.3 0.3-1.5h0.8l0.4-0.5 2.4-2.1 8.5-5.7 2-0.9 2.1-0.6 1.8-0.9 2.6-0.3 2.4-0.5 0.5 0.4 1.1-0.4 0.7 0.3h1l1.9 0.1 2 0.2 2 0.3 1.9 0.2 1.3 0.8 0.3 0.4h0.4l0.7 0.1 1.7 0.3 1.6 0.8 1.9 0.9 1.4 0.5 0.4 0.5 0.7 0.4 1.1 0.6 0.7 0.6 0.8 0.1 0.2 0.6 0.7 0.4 0.3 0.2 0.2 0.4 0.3 0.4 0.5 0.2 0.7 0.5 0.2 0.2 0.3 0.6 1.2 0.9 2 2.5 0.6 0.6 0.3 0.6 1.2 2v0.8l0.6 0.6 0.3 0.8 0.6 1.2 0.2 0.9 0.4 0.7 0.5 1.3-0.1 0.9 0.4 0.9 0.3 0.6 0.5 1.6 0.2 1.7 0.1 0.7-0.1 0.8 0.4 1.2 0.1 1.2v3.3 1.6l-0.4 0.3 0.4 0.6 0.1 0.1-0.1 0.8-0.3 0.7-0.2 1.7-0.3 1.5-0.3 0.7v0.9l-0.2 0.6-0.5 0.6-0.3 1.4-0.7 1.2-0.1 0.7-0.4 0.1-0.7 1-0.2 0.5-0.7 1.5-0.9 1.2-0.4 0.6-0.2 0.2-0.1 0.5-0.4 0.5-0.3 0.5-0.6 0.3v0.3 0.7l-0.7 0.4-0.4 0.5 0.4 1.3-0.6-0.3-0.2 0.2h-0.5l-1 1.1v1.5l-0.1 1.6-0.2 0.7-0.2 0.6h-0.6l-0.6 0.6v1l-0.2 0.7-0.6 0.5-0.1 0.1-0.1 0.3h-0.4l-0.1-0.1-0.6-0.3-0.4 0.1-0.3 0.2h-0.7l-0.1 0.9-0.4-0.2v0.4l0.1 0.5-0.3 0.1-0.7 0.2 0.1-0.4-0.5-0.5v0.7l-0.8 0.5 0.1 0.9v1.3l-0.4 0.4-0.3 0.6-1.3 0.3-0.1-0.1 0.1-0.3 0.3-0.7-0.4-0.6-0.6 0.5v0.5 0.6l-0.6 0.6-0.6 0.4-0.4 1.1-1.9 0.1-1.1 1.6-0.1 0.2v0.5l-0.6 0.3-0.4 0.6-0.7 0.3-0.3 0.8-0.6 0.3-0.5 0.6-0.6 0.7-0.4 0.5-0.1 0.7-0.4 0.6-1 0.6-0.8 1.1-1 1.2-0.7 1.1-1 1.2-0.7 1.1-0.5 1-0.8 0.2-0.3 0.7-3 3.6-1 1.9-0.6 0.9-1.1 1.7-1 1.7-0.3 0.8-0.6 0.6v0.1l-0.9 1.9-1 0.6-0.3 1.4-1 2.7-1.1 0.7-1 0.6-1.1 2.1-0.8 1.7-0.4 1-1.1 1.8-0.3 1.3-0.8 1.1-0.3 0.6-0.3 0.7-0.7 1.3v0.5l-0.4 0.5-1.2 2.7-0.8 2.1-0.4 1.2-0.3 0.3-0.4 0.4-0.8 2.3-0.6 1.1-0.6 1 0.4 0.3-2 3.6-2.7 6.6-1.7 3.3 0.1 0.6-0.8 1.3-0.1 0.9-0.4 0.2v0.5l-0.3 0.7-1.1 2.1-0.3 0.3v0.7l-0.6 1.3-0.4 1.3-0.5 0.3-0.1 0.8-1.2 2.3-0.3 1.3-0.6 0.9-1 2.8-1 2.1-0.7 1.9v0.9l-0.4 1.4 0.5 1.3-0.1 1-0.4 1.4-0.3 0.3-0.2 0.8-0.4 0.4-0.3 0.3-0.7 1-0.7 2.2-1.3 1.7 0.4 0.7-0.5 1.1-0.9 1.8-2.1 3.5-0.8 1.4-0.4 1.6v0.8l-0.8 1.2-0.4 0.5-0.5 1.2-0.1 0.8v0.8l0.1 0.3-0.4 0.2-0.8 1.3v0.8l-0.5 1.4-0.2 0.4-0.3 0.6 0.3 1.8-0.3 0.8-0.6 0.3-0.2 0.2-0.2 0.1-0.2 0.9 0.2 0.2-0.2 0.2-0.1 0.3v0.5l-0.1 0.7v0.1l-0.4 0.3v0.4l-0.8 0.2-0.2 0.5-0.8 1.8-0.2 0.6-0.5 1.2-0.2 1.3-0.5 0.7-0.1 0.9-0.6 0.8v1.1l-0.3 1.9-0.1 1-0.4 0.5-0.4 0.7v0.9l-0.7 0.3-0.3 0.9-0.6 0.7 0.6 0.6-0.2 1-0.6 0.6-0.6 0.9 0.4 0.7-0.5 0.6-0.1 1-0.7 1.4-1 1.6-0.6 1.8-0.3 1.7-0.3 0.8-0.2 0.3-0.1 0.6-0.9 1.9-0.3 2.2 0.3 0.8 0.3 0.5-0.7 0.3-0.3 0.9-0.3 1.4v1.6l-1 1.4-0.3 1.8 0.4 0.7v0.9l-0.4 1.3-0.8 0.7-0.7 0.8-0.1 1.2-0.3 2-1 1.5-0.3 0.8-0.6 0.6 0.2 2.2 1.3 1.5-0.3 1.3-0.5 0.9-0.8 0.5-1.1 2.7-0.8 1.4-0.9 0.6-0.2 0.9-0.4 1.6-0.3 1.9-0.4 1.6-0.8 3.1-1 2.1 0.3 0.7v0.8l-1.7 3.6-1.6 3.5-1.4 3.1v1.4l0.3 1.1-0.8 0.8v1.7l-0.2 1.3-0.2 0.8-0.7 0.5 0.2 0.7 0.1 0.8-0.3 0.8v0.7 1.6l-0.4 1.7v0.9l-0.2 0.7-0.1 1.8-0.5 1.6 0.5 0.5 0.3 0.9-0.7 1.2 0.4 1.7-0.5 1.3-0.1 0.6-0.4 1-0.4 0.9-0.3 0.7-0.6 0.6-0.1 0.9-0.1 0.7-0.8 1.3-0.7 0.3-0.8 0.3-1.1 1.1-0.8 1.4-0.4 1.7-0.5 1.6-0.3 1.4-0.2 0.2-0.1 0.6-0.2 0.8-0.7 1.3-0.2 1.5-0.1 0.6 0.1 0.5-0.3 0.7-0.1 0.7-1.9 1.7-0.4 1.6-0.1 1.6-0.9 1-0.6 2.5v0.5l-0.2 0.6-0.4 1-0.8 0.9-0.1 1 0.1 0.2-0.4 0.3-0.3 0.4-0.7 0.5-0.2 1 0.2 0.4-0.6 0.6-0.3 0.8v0.9l-0.3 0.5v0.8l-0.1 0.7-0.1 1-0.5 0.4-0.2 1.4-0.5 1.3-0.4 1.2v0.7l-0.2 0.6-0.1 0.7-0.4 0.8-0.4 0.7v0.7l-0.2 0.5 0.2 1.2-0.6 0.3-0.1 1-0.2 1.5-0.2 0.4-0.3 0.1v0.9l-0.4 0.8-0.3 0.7-0.2 1.7v0.8l-0.5 0.5v0.8l-0.2 0.6-0.2 2.4-0.4 0.3 0.4 0.2-0.7 0.6 0.7 0.7-0.8 1.2-0.4 1.7-0.9 3.1-0.4 1.3-0.2 1v0.4 1.2l-0.5 0.4-0.1 0.6v1.8l-0.3 1.3-0.7 1.3-0.3 1.4-0.1 1.4-0.1 1.5-0.6 1.4-0.3 1.5-0.2 1-0.3 0.5 0.1 0.3v0.4l-0.3 0.8-0.1 2.1-0.2 0.7-0.3 1-0.3 0.7-0.6 1.7-0.2 1.5-0.4 1.6-0.3 1.6 0.7 0.8v0.8l-0.2 0.5-0.8 1.3-0.3 1.4 0.4 0.7 0.5 0.6-0.7 1.3-0.8 1-0.1 0.7 0.2 0.1 0.7 0.2-0.1 1.4-0.5 1.5-1.2 1.3-0.7-0.2-0.6 0.7v1.6l-1.4 6.4 0.2 1.3 0.5 0.5 0.2 0.8 0.2 0.5-0.1 0.6 0.1 0.8 0.3 1.6-0.7 1.6v2l-0.4 0.6-0.1 0.7-0.3 1.4-0.5 0.2z"/>
	<path id="path2054" class="s1" d="m547.6 512.4l0.3 0.3-0.5 1 0.7 0.9h-0.7v0.5l-0.6 1.1-0.4 1.6-1.2 1.5-0.3 0.6-0.5 0.2v0.9l-0.4 0.5-0.6 1.3-0.9 1.1-1.3 1-0.9 0.6 0.2 1.3-0.4 0.2-0.4 0.7-1.8 1.3-1.1 0.7-0.6 0.9-0.6 0.5-1.3 1.1-1.7 1.2-0.7 0.7-1 0.4-0.2 0.3-0.7 0.7-1.3 0.2-0.3 0.4-0.4 0.3-1 0.7-0.6 0.6-0.6 0.2-0.5 0.3-0.9 0.5-0.8 0.8-1.8 1.2-1.3 0.5-0.6 0.9-1-0.1 0.2-0.2-1.5 0.5v0.7h-1.1l-1.2 0.4-1.4-0.6v-0.3l-0.9 0.3-0.9-0.1h-0.8l-0.3-0.4-1.3 0.5-0.5-0.5 0.5-0.5-1.4-0.5h-0.9l-0.6-0.3-1.1-1-0.6-1.8-0.9-0.6-0.5-1-0.1 0.5-0.4-0.1v-0.9l-0.7-1.9v-1.2l-0.6-0.8 0.3-0.6-0.2-1.2 0.2-0.4-0.2-0.3 0.1-0.8 0.3-1.8 0.1-1.9 0.6-0.5 0.1-1 0.8-1.4 0.1-1.5 0.4-0.4 0.4-0.7 0.6-1 0.7-1 0.3-1.4v-1.4l1.1-0.9 0.7-0.9 2.2-3.2 1.7-1.3 1.6-1.5 1.8-1.4 2-1.7 3.6-3.2 1.5-1 1.4-0.7 2.1-1.3 1.3-0.5 1.3-0.7 2.6-0.9h1.2l0.3-0.7h0.8l1.3-0.2h1.3l2.5-0.3 0.3 0.5 0.2-0.6 1.2 0.5 0.6 0.1 0.4 0.4 1.2 0.3v0.5l1.4 1 0.5 0.9 0.1 1 0.5 0.7v0.6l0.2 0.7 0.5 0.8 0.3 1.1 0.8 1.7 0.9 1.5v1.1l0.2 3.3-0.5 0.6z"/>
	<path id="path2058" class="s1" d="m528.3 620.8l1.3 2.1 0.5 0.5-0.9 1.3-0.4 2.2 1 2-0.8 2-1.4 3.2-0.5 1.9 0.5 0.9v0.8l-0.2 3.2-0.7 2.3 0.4 1.3-0.7 1 0.2 2.7-0.7 2.9-0.6 2.6-1.1 1.8-0.2 2.8 0.4 5.6-0.5 2.7v2.6 2.8 2.4l-1 0.9-0.1 1.2-0.8 4-0.5 0.7-0.1 2.7v3 3l-0.6 2.4-0.6 1.5v1.5h-0.3l0.1 3-0.9 2.4v3l-0.6 2.5-0.2 3.1-0.4 1.4-0.2 1.4-0.1 3.1-0.3 1.4-0.4 1 0.1 3.2 0.3 0.2v0.9l0.2 0.9-0.4 0.8-0.7 1.6 0.1 0.5 0.4 1.8-0.5 2.9 0.7 4.3v1.5l-0.2 1.9-0.6 2-0.5 1.5v0.2l0.2 1-0.2 1.5-0.4 3.1-0.1 1.5-0.5 1.4-0.3 3.1-1.6 2.7v2.1l0.6 0.7 2.5 0.7-0.5 2.1-0.4 0.8-1.1 0.1-1.5-1.2-0.8 3-2.3 0.3-1.7 1.2-3.2 3.1-2.1 1.3-1.9 1.6-2.2 1.6-3.8 2.2-2.1 1.2-1.3 0.4-0.8 0.9-2.6 0.4-1.3 0.6-1.4-0.1-5.3-1.2-2.3-0.9-1.2-0.6-0.8-1-0.8-2-0.8-2.2-1-2.6-0.1-2.3v-3.7-4.2-7.9l0.4-5.6 0.1-2.7 0.1-2.5-0.1-2.7 0.2-2.8 0.7-9.9 0.2-4.5-0.4-0.1v-1.4l0.8-5.4 1.1-5.4-0.6-2.7 0.7-2.7 0.3-3.8 0.4-4.1h0.1l-0.2-3.8v-3.6l1.1-10.3-0.2-1.8 0.4-2.2 0.4-4.9-0.4-2.3 0.6-1.8-0.1-6.9 0.9-5.5 0.3-6.6 0.5-6.1 0.5-5.2 0.1-0.5 1.1-3.8 1.4-3.7 3.8-9.5 2.9-4.2 3.1-3.2 1.8-2.4 1-0.9 1.6-0.6-0.2-0.3 2.4-1.7 2.6-1.9 9.2-4.4 5.5-1 3.2 0.3 2 0.7 2 1.8 1.8 1.9 1.1 3.7 0.7 2.1 0.7 1.3v0.3l-0.4 2.9 2.7 2.3-3 1.3-0.5 3.7z"/>
	<path id="path2070" class="s1" d="m1156.3 503.9l-1.3 0.4-0.1 1.4-0.7 1.1v1.2l-0.3 0.5-0.4-0.6-1.1 1.6h0.3l-1 0.7 0.1 0.9-0.4 0.8 0.4 1.4-0.9-0.5-0.4-0.1-0.3 0.6-0.5 1.1-0.7 1.4-1.5 1.9-1.6 2.5-1.2 1-1.2 0.7-1.2 1.3-0.9 1.3-0.9 0.4-4.6 3.3-2.5 1.4-4.6 2.6-2.1 1.1-4.6 1.9-4.5 1.6-2.9 0.8-6.2 1.8-3.3 0.9-2.9 1.1-6 1.9-6.6 2-3.1 1.2-6 2.3-2.1 0.7-2 1-2 0.5-1.9 0.9-2 0.5-1.7 1-1.4 0.3-1.2 0.9-2.8 1-2.3 1.1-1.2 0.4-0.8 0.8-1.3 0.1-1.1 0.8-2.3 1-2.3 0.8-2.3 1.1-2.9 1.2-2.5 1-1.1 0.8-1 0.6-2.4 1-0.1 0.4h-0.3l-0.9 0.2-1.4 0.8-2.5 1.3-3.3 1.6-2.5 1.3-1.3 0.3-1.2 1.1-2.3 1-1 0.6-2.3 1.5-1.2 0.4-0.9 0.5v-0.1l-2.3 1.2-0.6 0.7-1.3 0.2-1.9 1.3-0.6 0.2-0.3 0.3-1.1 0.1-0.9 0.7-0.8 0.7-3.1 1.3-0.7 0.6-1.4 0.5-0.2 0.5-1.1 0.1-1.8 1.4-3.3 1.5-2.4 1.2-2.3 1.1-2.7 1.6-3.1 1.3-0.3 0.6-1 0.2-0.9 0.6-2.3 1.3-2.5 1.5h-0.7l-0.5 0.7h-1.7l-0.4 1-1.4 0.5-2.1 1.2-1 0.5-0.9 0.7-2.1 1.3-2.2 0.5-0.9 0.9-1.3 0.7-3 1.3-1 0.9-2.4 1-1.2 1-2.1 1.3-1.4 0.6-1 0.8-0.9 0.4-0.7 0.6-1 0.7-0.9 0.1-1.6 1-0.8 0.5-0.8 0.3-1.9 1.1-1 0.7-0.9 0.5-2.7 1.3-2.1 1.2-1 0.8-2.4 1.2-0.9 0.7-4.6 2.4-2.7 1.5-1.1 0.6-1 0.9-2.6 1.3-1.9 1.2-1.1 0.7-1.4 0.4-0.3 0.6h-0.6l-1.2 0.6-1.4 0.8-1.2 0.7-2.2 1.4-1.2 0.7-1 0.9-1.3 0.3-1.3 1.1-1.1 0.3-0.8 0.9-2.3 1.1-2.1 1.4-2.3 1.4-2.7 1.6-2.6 1.3-2.5 1.5-4.9 3.2-2.8 1.4-1.8 1.4-4.8 2.8-2.6 1.5-1 0.7-0.7 0.5-0.7 0.1-0.6 0.7-0.6 0.1-0.9 0.7-0.8 1-2.3 0.7-2.6 1.6-2.2 1.3-0.8 0.8-1.1 0.7-2 1.4-2.2 1.3-1.9 1.1-1.2 0.9-0.5 0.7-0.8 0.4-2.5 1.6-0.3 0.2-2.4 1-0.9 1.1-1.2 0.3-0.6 0.7-0.4 0.2-1.1 0.6-0.9 0.7-0.8 0.7 0.5 0.5-1.3 0.5-1.3 0.2-1.1 0.6-0.4 0.3 0.1 0.8-1.4 0.5-1.2 0.3-2.5 1.5-2.1 1.6-0.9 0.7-0.9 0.7-2.2 1.3-1 0.7-0.9 0.3-2 1.7-2.2 1.5-0.8 0.2-0.5 0.4-0.8 0.6-0.4 0.3-0.6 0.4-0.5 0.4h-0.2l-1.2 0.7-0.1 0.8h-0.4l-1.3 0.8-0.9 0.7-0.7 0.5v-0.3l-0.8 0.5-0.4 0.2v0.4l-0.6 0.1-0.1 0.1-0.4 0.4v0.2h-0.4l-0.2 0.7-0.7 0.2-0.4 0.7-0.8 0.1-0.5 0.3-0.7 0.3-0.5 0.6-0.4 0.4-0.3 0.2 0.1 0.1-0.3 1.1-0.8 1-0.5 0.5-0.5 0.4-1.7 0.4-0.3 0.8-1.3 0.3-0.6 0.8-0.8-0.4-0.6 0.8 0.3 0.1-1.1 1.4-0.9 0.8 0.2 0.9h0.1l-0.1 0.4 0.6 0.3-0.3 0.9-0.3 0.7-0.2 1-0.5 1.2 1 0.7v0.5l-0.2 0.7-0.3 0.2h-0.5l-0.2 0.5 0.6 0.2v1.2l-0.4 1.2v0.8l0.5 0.6-0.1 0.8v0.4 0.6l-0.4 0.6-0.1 0.7 0.5 0.9 0.6-0.3 0.4 0.5-0.4 0.7-0.5 0.6-0.1 0.6-0.6 0.6-0.5 0.4-0.4 0.5v0.8 0.4l-0.3 0.2 1.2 0.8 0.4-0.5 0.3 0.5-0.5 1.1-0.2 1.7-0.2 0.6-0.4 0.6-0.3 1.3-0.5 0.4 0.3 0.4h0.6l0.5 0.5 0.1 0.7 0.6 0.1v1.5 1.4l-0.5 0.9-0.4 0.6v1l-0.5 0.5 0.5 0.7-0.3 0.6-0.1 0.8-0.6 0.5-0.1 0.6 0.4 0.5-0.3 1.2 1 0.4 0.3 0.2h0.3v0.4l-0.6 0.7 0.4 0.8-1 0.6-0.1-0.9h-0.8l-0.3 1.3 0.5 0.6v0.8l0.5 1.1 0.4 0.5 0.4 0.6-0.3 1.4v0.3 0.2l-0.3 0.8-0.3 0.6-0.3 0.5 0.1 1.7 1.1 0.8-0.3 0.6-0.1 0.9 0.4 0.6-0.3 0.7-0.3 0.7-0.2 0.8-0.4 0.2-0.1 0.4v0.6l0.5 0.3 0.2 0.9-0.7 0.7 0.2 0.6 0.1 0.5 0.4 0.2-0.2 0.6-0.3 0.3-0.1 0.4 0.1 0.9-0.1 1.2-0.1 1.2 0.2 0.4-0.1 0.6v1.3 1.4l-0.1 0.4-0.1 0.5 0.4 0.7 0.4 0.1 0.1 0.7-0.2 0.8-0.5 0.8-0.1 0.8-0.4 0.2 0.6 0.4 0.3-0.3 0.2 0.3 0.5 0.6h0.3v0.3l-0.2 0.4-0.3 0.2-0.1 0.9v0.5h0.4l0.4 0.2-0.2 0.4-1.1 0.1-0.8 0.7 0.4 0.3-0.3 0.4-0.3 0.3-0.2 0.5-0.1 0.5-0.5 0.2v0.1l0.5 0.3 0.3-0.1 0.3-0.3h0.7v0.9l-0.2 0.9 0.4-0.1v1.1l0.2 0.5-0.1 0.7-0.1 0.4-0.2 0.2 0.2 0.2 0.3 0.4 0.4 0.3-0.6 0.2-0.4 0.3v0.9l0.2 0.3 0.1 0.1v0.2l-0.1 0.4-0.3 0.4-0.2 1.3 0.1 1.3 0.1 0.2v0.3h0.2l0.1 0.4-0.3 0.4-0.5 0.3-0.3 0.2 0.3 0.2 0.5 0.4 0.2 0.3 0.2 0.1v0.5l-0.5 0.2v0.5 1.2l0.1 0.4v0.4l-0.2 0.5 0.1 0.5-0.1 1.2 0.2 0.5v0.5 1.2l-0.2 0.4-0.5 0.1-0.1 0.4 0.6 0.3 0.1 0.9v1.5l-0.4 1.5-0.3 0.1v0.4 0.7l-0.8 0.3-0.1 0.5 0.4-0.1 0.3-0.3 0.4 0.3 0.4 0.9-0.3 0.2-0.5 0.3 0.1 0.4v0.5l0.6 0.8 0.3 0.5 0.4 0.1v1.1l-0.1 0.4-0.2 0.6v0.3l-0.2 0.5-0.2 0.5v0.5l-0.3 0.8-0.5 0.6 0.3 0.3h0.5l0.1 0.3-0.3 0.4 0.4 0.2 0.1 1-0.8 1.5-0.1 1.3 0.7-0.9 0.6-0.4-0.2 0.4-0.6 1.2-0.1 0.7-0.3 0.5 0.5 0.4 0.4-0.5-0.6 0.9-0.3 0.4 0.3 0.2 0.7 0.3 0.2 0.4-0.8 0.8 0.3 0.7 0.5 0.4h0.7v0.5l-1.4 0.3-1.3 0.4-0.3 0.7v0.6l-0.2 0.4v0.5l-0.4 0.4-0.5 0.4 0.5 0.6 0.4 1.2 0.5 0.1-0.1 0.6-0.8 0.7-0.4 0.3 0.4 0.6 0.4 0.5 0.1-0.5 1 0.1-0.7 1 1.5-0.9 0.6 0.7 0.1 0.8 0.3 0.6-0.3 0.5-0.1 0.8-0.5-0.4-1.3-0.4-0.4 0.4-0.6 0.7 0.7 0.7 0.1 0.6 0.7 0.4 1.2 0.6-0.3 0.9-1.5 0.4 0.8 0.9 0.7 0.2 0.1 0.5 0.1 0.2-0.3 1.2 0.6 0.5v0.7l-1 0.6-0.6 0.4-0.7-0.1-1.5-0.2 1.3 0.5h1.5v0.4l-0.6 0.2-0.6 0.4 0.6 0.3 0.3 1.2-0.8 1.2-0.4 0.5-0.6 0.5-0.3 1.3 0.8 0.5v0.7l0.5 0.5-0.1 0.5v0.4 0.9h0.8l0.4-0.2 0.3-0.7 0.2 0.1-0.3 0.6 0.2 1.4-0.8 0.6 0.7 0.6-0.1 0.9 0.8-0.4 0.6-0.7-0.3 0.4-0.3 1.3-0.7 1.3 0.9 0.1 0.7-1.1-1.2 1.7-1.5 0.1-0.5 1.4-0.3 0.4-0.4 0.5-0.4 1 0.8 0.2 0.1 0.7-0.1 1.2 1.2 0.5-0.2 1.1 1 0.7 0.5 1.2-2.9 0.5-0.6 1.4 1.1 1.2-1.1 1.2 0.6 0.5 0.4 0.9 0.8 0.2 0.8-1.1-0.1-0.6 0.9 0.5-0.5 0.1v0.9l0.2 1.3-0.1 0.5 0.5 0.3 1.1 0.4-1 0.9-1.9 0.9 0.4 0.3 0.1 0.9 0.7 0.7-0.3 2.6-1.1 1.2 1.6 1.4-0.3 1.2h1.4l-0.3 1.2h0.6l1.8 0.2-0.3 0.6-0.6 0.4-0.3 0.1v0.3l-0.5 0.4-0.4 2.5-0.5 1.2 1.1-0.2 1.8 0.8-0.6-0.1-0.2 0.2-0.5 0.3v1.2l0.1 1.2 1.3 0.4 0.4-0.1v0.6l-0.9 1 1.2 1.4-0.8 1.7 1.3 0.2-0.6 0.9-0.1 0.6 0.1 1.1 0.1 0.8-0.2 0.4 0.1 0.6-0.2-0.5h-2l0.9 1.3 0.1 1.3-0.5 0.9v0.4l-0.2 0.5-0.3 0.4-0.1 0.4-0.4 0.5 0.8 0.4 0.2 0.5h0.2l0.1 0.5-0.3 0.6 0.4 0.1 0.8 0.7 0.3 0.4 0.9 0.1 0.1-1 0.3-0.3 0.6-0.4 0.2 0.7-0.2 0.5-0.2 0.5h0.7l0.3 0.6 0.4 0.1-0.1 0.4v0.7l-0.4 0.3 0.1 0.9 0.3 0.3-0.2 0.3-0.3-0.3-0.2 0.3 0.3 0.2v0.3h0.4l0.1 1.3 0.2 1v1.1h0.5l0.2 0.4 0.4 0.8-0.6 0.8 0.6-0.2v0.7l1 0.2-0.3 0.7 0.6-0.6-0.3 0.8 0.6 0.7-0.9 0.9 0.3 0.7-0.7 0.6-1 1 0.8 1.1-1.4 0.3-2 0.2-0.1 1 0.4 0.5 1-1 1.4 0.9 0.3-0.2v0.1l-1.1 1h-2l0.1 0.9 0.3 0.3h-0.3l0.5 0.3-0.2 0.6-0.5 0.7 0.1 0.4 0.1 0.8 0.5 0.7-0.3 0.8 0.4 1.3 2.4 1.3 0.6-2.2 0.7 0.6v0.3 2.2l0.6-0.9 0.8 0.9 0.6 0.5 0.7 0.8-1 0.8-0.5-1-1.9 1.2h1.9l1.1 1.3 0.9 0.4 1 0.5-0.9 1.6-0.1-1.4-0.4 0.9-0.7 0.6-0.9-0.1 0.7 0.4 0.6 0.8-1.1 0.7-0.2 1.1-1.2-0.2-0.7-0.7-0.6-0.6 0.3 0.6-0.3 0.2 0.4 0.4-0.1 0.8 1.2 0.2 0.6-0.2 0.5 0.4 0.3 1.2-1 0.3-0.4 0.3-0.2 0.1-0.3 0.9 0.5 0.8-0.2 0.4 1.2 0.4 0.5 0.5 0.3 0.2-0.5 0.5 0.8-0.5-0.3 1.3 0.7 0.9-0.6 0.8 0.7 0.5 0.3-0.7 0.7 0.7h1.2l0.3 0.8 0.5-0.8-0.1 1.4-1.7 1.1-0.5 1.5-0.1 0.9-0.8 0.2 0.7 0.5 0.6 0.3-1.6 0.8-0.4 1.1-0.5 1 0.2 1.3 0.7 0.3 0.4 0.2 2.3 0.7-1 0.5-0.7 0.7h-0.4l-0.2 0.4-1.2 0.1-0.2 0.5-0.2 0.4-0.5 0.9-0.9 1.9-0.3 1.4-0.4 0.9-1.8 2.3-0.9 1-0.9 0.9-6.5 4.5-1.6 0.6-0.9 0.7-1.3 0.3-1.5 0.5-5.4 0.5h-4.7l-3.2-0.7-5.8-1.6-2.5-1.2-2-1.5-2.5-1.7-0.9-1.3-1.3-1-1.2-1.6-1.1-2.5-0.3-0.6-0.3-0.7-0.3-1.4-1.1-2.9-0.3-1-0.3-1.5h-0.3l-0.4-2.6-0.5-1.2 0.1-0.7-0.5-0.4-0.3-1.4-0.2-1.5-0.1-1.5-0.3-0.7 0.1-0.6 0.2-0.2-0.2-0.4-0.2-0.6v-1.5l-0.2-2.9 0.1-2.1-0.1-2.1-0.2-0.8 0.3-0.7-0.4-1.5 0.1-4.1 0.4-1.7-0.1-1.5 0.1-1.3-0.2-3.2 0.5-3.8-0.2-0.7 0.1-0.4-0.2-1.4 0.4-1.4-0.1-1.4 0.1-3.1-0.2-2.9 0.2-1.2 0.2-1.6v-2.6l0.1-2.7v-2.6l0.3-3-0.2-1.4v-1.6l0.6-1.2-0.2-1.5 0.4-2.4-0.4-1v-1.4l0.3-2.8v-3.1l0.1-3.1 0.3-2.9-0.2-1.4 0.2-2 0.6-2.8-0.1-1.5-0.3-1.4 0.4-1.1v-1.5l-0.2-3.1-0.2-3-0.1-3 0.1-1.5 0.5-2-0.1-2.4-0.4-4.6-0.4-1.4 0.2-1.4 0.1-3.1 0.5-2.7v-2.3l0.4-2.1-0.4-2.7 0.4-1.3-0.1-1.6-0.3-1.2-0.6-1.2v-1.5l1.1-0.1 0.4-3.4 0.1-0.6-0.5-0.7 0.4-0.6-0.2-0.8-0.3-1.5 0.3-0.7-0.1-0.3h-0.1v-2.4l0.1-2.3v-2.6l0.3-2.9v-2.2-1.3l-0.4-1.2 0.4-1.4v-1.5-1.4l-0.3-1.3 0.3-3-0.3-0.7 0.3-0.5v-1.4-1.4l-0.5-1.2 0.5-1.4v-1.7-4.7l0.3-0.2-0.2-2.7-0.1-3.1v-3.1l-0.2-1.6 0.2-1.3v-3.1-3-2.7-3.4l-0.2-0.4 0.2-0.6v-1.8-2.9-2.9-1.3-2.7-1.1l-0.2-2.5h0.2v-3.2-3l0.1-6-0.3-1 0.5-1.3-0.3-2.8v-1.4l0.2-0.7 0.1-1.5v-1.2-1.6-0.1l-2 0.9-0.3 0.5-0.5 0.2-1.1 0.4-1.8 1-1.9 1.4-1 0.4-1.2 0.8-2.1 1.4-2.4 1.6-1.9 1.2-1.2 1.1-2.1 1.4-1.9 1.6-2 1.4-0.8 0.9-1 1-1 0.5-0.9 1-2.5 1.9-2 1.6-2.3 1.4-0.6 1-1.7 1.1-1.8 1.5-1.3 1-1.3 0.9-1.2 0.7-0.8 1-1 0.7-1.1 0.7-0.6 0.8-1 0.7-1 0.9h-0.6l-0.4 0.4-0.9 0.9-0.5 0.5-0.7 0.1-0.9 0.9-1.7 1.6-2.2 1.3-0.8 0.9-1 0.6-0.7 0.2-0.2 0.7-2.4 1.8-1.1 1.2-0.1-0.1-0.4 0.4-1.1 0.4-1 0.9h0.1l-0.2 0.1 0.1-0.1-2 1.6-2 1.6-1.8 1.3-1 0.9-1.1 0.8-4.3 3.4-2.4 1.9-0.7 0.8-0.4 0.6-0.8 0.2-0.5 1.1-0.9 0.2-0.5 0.5-1 0.9-0.8 1.1-1.1 0.6-0.9 0.7-2 1.8-2.1 1.6-1.5 1.1-0.8 1.2-0.6 0.1-0.5 0.4-1.1 0.8-2.3 2-0.9 1-0.6 0.2-0.3 0.5-1 1-1.6 1.4-1.8 1-2.4 2.1-2.1 1.5-2 1.8-1.3 0.8-0.4 0.6-0.5 0.1-2.3 2-4.2 3.3-2.6 2.4-2.8 1.7-1.2 1.1-4.2 3.6-2 1.9-2.2 1.9-1.2 0.7-0.9 0.8-2.1 1.9-2 1.7-3.5 3.1-1.7 1.1-0.1-0.1-1 1.1-1.5 1-1 0.7-0.8 1.1-2.1 1.2-0.6 1.1-1.2 0.7-1.1 0.9-0.4 0.9-1.5 0.6-1 0.9-2 1.6-0.5 1.2-1 0.7-1.6 2.1-1.3 0.7-0.9 0.7-1.6 1.6-1.4 2.1-0.5 1-1.2 1.1-1.6 1.6-0.9 0.9-1.1 0.6-1.4 1.7-1 1.2-0.8 0.5-1.7 1.5-1.8 1-1.9 1.3-3.2 2.9-2.2 2.3-1.3 1.1-1 1.2-0.9 1.2-1.1 0.8-0.2 0.3-0.2 0.6-1.5 1-1.2 2.1-1.4 0.7-1.1 1.4-1.5 1.9-1 0.6-3.7 3.4-3 4.6-2.4 1.5-1.7 1.9-0.4 1-0.9 0.8-1.6 1.9-1.8 1.9-0.9 0.6-0.7 1-0.5-0.3-1.3 2.2-0.8 0.3-0.6 1-1.5 1.2-1.6 2.1-1.9 1.3-0.7 1.2-0.7 0.7-1.9 1.8-1.6 1.5-1.9 1.8-0.7 1-1.2 0.7-0.6 1-0.8 0.3-0.3 0.4-0.2 0.3h-0.2l-0.4 0.3-1 0.9-0.9 1.6-1.1 1.7-1.6 2-1.2 1.2-0.9 0.8-0.2 1.1-1.5 0.9-0.6 1.2-1.2 0.4-0.7 1.1-1 0.8-0.7 0.7-0.6 1-0.8 1.3-0.8 0.6-2.3 2-1.8 1.6-1.6 1.6-1.4 2.1-0.5 0.4-0.3 0.3-3.6 3-2 1.9-0.9 0.8-0.8 0.7-1 0.7-0.7 0.9-1.6 1.9-0.8 1.2-1.2 0.8-1.2 0.9-1.3 1.3-0.8 0.8-1 0.6-1 0.7-1.3 0.2-0.3 0.4-0.5 0.4-0.9 0.9-3.2 0.1-1.5 0.2-1.5-0.1-1.3 0.1h-1.5-1.6l-0.6-0.2-0.6 0.2-3-0.5-1.4-0.5-1.5-0.4-1.1-0.6-1.4-0.4-4.8-2.8-2-1.9-1.7-1.1-0.8-2.1-0.8-1.1-1.2-2.8-0.6-1.3-0.8-2.5-0.5-1.6 0.2-1.9-0.8-3.8 0.6-3.4 0.3-1.3 1.5-3 1.5-2.7 2.3-2.6 3.1-4.3 4.5-5.5 2.2-2.4 2.4-2.8 5.3-5.3 4.4-4.5 4.7-4 2.2-2.1 2-2.1 2.5-1.9 0.9-1.4 1.3-1.2 5-4.6 4.6-4.4 2.7-2.5 2.4-2.1 5-4.7 2.2-2 0.7-0.8 0.6-0.3 0.8-1.2 1.5-1 1.2-1.4 1.2-0.9 1.3-1.3 2.5-2.2 0.9-0.4 0.2-0.7 1.6-1.5 1.9-1.6 2.1-2.2 5.3-4.3 2.6-2.2 2.7-2.1 1.1-1.3 1.6-1 2.9-2.3 2.3-2 2.7-2.4 0.9-0.6 2.7-2.3 1.2-1.1 1.3-0.9 1-1.3 1.4-0.9 6.2-5.2 5-4.2 2.6-2 1.2-0.9 1.3-0.6 1.2-1.8 1.6-1.2 5.4-4.5 2.5-2.4 1-1.2 0.9-1.3 2.5-1.2 1.7-1.5 3.4-3.1 0.9 0.3 2.2-2.8 3.3-2.2 4.1-3.4 4.2-3.8 1.4-0.7 1.3-1.2 2.7-2.2 5.3-4.4 5.5-4.2 2.6-2 1.9-1.9 2.3-2 2.6-1.8 2-2 2.5-1.6 1.3-1.3 1.7-0.7 1-1.2 1.3-1.2 1-1.3 1.4-0.7 2.5-1.9v-0.5l1.3-0.9 1.5-0.5 2.2-1.5 2.1-1.7 1.2-0.7 0.9-1.1v0.6l0.8-1 1.2-0.5 0.8-0.8 2.6-1.3 0.6-1 1-0.9 2-1.4 0.6-0.1 0.3-0.6 1.3-0.5 0.9-1.1 0.9-0.6 1.9-1.5 2.1-1 0.8-0.8 0.8-0.7 0.7-0.8 1.1-0.4-0.1-0.3 3.4-2.2 3.5-2.7 2.4-1.9 1.5-0.9 1.4-0.8 1.2-1.1 1.4-0.6 1-1.1 1.2-1 1.6-1.2 1.8-1.1 1.8-1.3 1.2-1.2 1.4-0.4 1-0.8 1-1.1 1.5-0.6 0.9-1.2 1.2-0.9 2.4-1.4 1.1-0.9 0.9-1 6.5-4.7 5.5-4.6 5.1-3.6 1.3-1.1 0.9-0.5 0.5-0.5 1.3-0.9 1.2-0.9 2.5-2 6.7-4.5-0.2-0.1 0.7-0.2 2.1-1.8 2.1-1.5 2.7-1.8 2.4-2.1 1.4-0.7 1.2-0.9 1.4-0.8 2.1-1v-0.3l-0.3-0.1v-0.5l0.1-1 0.2-1.2v-1.3-1l0.3-0.2 0.1-0.7 0.2-0.9v-0.9l-0.5-0.7-0.1-1.4 0.9-0.7-0.8-1v-1.8l0.2-0.9-0.3-0.7 0.1-1.6 0.1-0.7 0.1-1-0.3-3.5-1.1-3.1h-0.5l-1.5 0.3-0.8 1.4-1.8 0.6-1.2 0.9-1.5 0.8-0.7 1.3-2.1 0.4-0.9 1.3-0.6 0.3-0.5 0.6-1.7 0.7-0.3 0.4-0.9 0.1-1.9 1.3-2.1 0.5h-2.7l-0.6 0.9-1.1 0.1 0.3 0.8-1.4 0.1-1.8 0.9-1.9 0.6 1.7 0.4-2 0.2-1.3 0.3-1.3-0.4-0.4-0.1-0.3-0.4h-1.1l-0.2 0.4-0.3 0.2-1.4 0.4-3.6 0.7-3.6 0.5-1.8 0.4h-1.9v0.3l-3 0.1v0.3l-0.6 0.1v-0.4l-1.7 0.3-1.4-0.3h-1.6l-1.6-0.2-1.4-0.7-1.9-0.1-1.4-0.4-1.5-0.5 0.1 0.6-1-0.8-0.8-0.8-2.7-1-4.1-2.6-0.2 0.3-0.4-0.7-2.2-2-2.6-3.1-1.3-1.1-0.3-1.7-0.9-1.1-0.7-1.6-0.8-2.3-0.6-2.5-0.6-1v-1.4l-1.1-5.1v-2.1l-0.2-2.4-0.6-2.1 0.6-0.2-0.2-2.5v-7.4l-0.2-4.1 0.4-1.9v-6.2-7.8l-0.2-1.9-0.9-1.5 0.1-3.7 0.2-1.8v-2l0.3-1.6 0.7-1.9 0.5-1.5 0.1-2.1 0.2-6 0.3-5.8 0.1-3.1v-0.6l0.5-0.5-0.2-1.3 0.3-0.5v-0.8l0.1-1.4 0.9-1.7v-2.3l0.1-1.4 0.8-2.7-0.3-0.9 0.3-1.1 0.4-2.2 0.8-5.1 0.8-2.6 0.6-2.8 0.8-2.4 0.7-2.4 0.4-2.1 0.6-1.6 0.3-0.7 0.8-1.1 0.1-1.4 0.7-1.1 0.3-1.4 1-2.6 0.5-1.1 0.6-1.2 0.5-0.9 0.3-1.3 0.7-0.9 0.4-0.5 0.2-0.6 0.5-0.3v-0.7l0.7-1.2 0.8-1.1 0.4-1.1 0.3 0.2 0.6-1.7 1.1-1.5 1-1.5 0.6-0.4 0.1-0.6 0.8-1.1 1.5-1.8 1.9-2.8 0.6-1.5 0.6-0.5 0.5-0.7 1.4-1.8 0.8-0.9 0.4-0.4 0.6-0.4 0.5-1.1 0.8-1 1.6-1.6 3.8-3.2 4.2-3.1 1.3-1.2 1-0.3 0.5-0.5 0.8-0.3 0.5-0.4 0.4-0.5 1.4-0.8 1-0.9 0.7-0.6 2.1-1 1.3-0.5 1.5-0.3 1-0.6 1.3-0.4 2.3-0.8 2.7-0.5 0.9-0.4 1.4-0.4 1.7-0.3 1.3-0.2 1.5 0.1 1.2 0.4 1.3 0.1 1.1 0.4 1.2 0.6 1.4 0.2 0.7 1.1 0.9 0.7 0.5 1.1-0.2 1.2 0.3-0.1 0.4 1.4 0.3 1-0.3 2.7-0.7 2.2-0.3 0.4 0.6 1.4-1.1 2.9v1.1l-0.6 0.9-0.3 2.2-1.1 1.3-0.8 0.8-0.2 0.8v1l-1.2 0.4-0.4 0.9-0.2 1.1-1.3 1.9-1.1 0.8-1 1-1.4 0.4v0.4l-0.2 0.1-0.2 0.3-1.9 2.1-1 3h-0.7l-1.6 1.9-0.2-0.1-1.1 1.5-0.5 1.2-0.2 1.9-1 1.6-1 0.6-0.9 1.8-0.1 1.4-0.9 1.3-1.4 3.4-0.7 3.6-2.1 2.6-1 2.8-1.1 3.5-0.6 3.1-0.8 1.4-0.4 1.5-0.3 1.2-0.1 1.5-1.3 2.3-0.4 1.4-0.1 4.4-0.2 1.9v1.4 0.8l0.3 0.4 0.7 1.3 0.8 3.1-1.1 2.7-0.2 1.1-0.5 1v2.2l-0.1 1.3 0.1 1.7-0.5 2.9-0.8 6.2 0.2 3.1-0.6 2.6-0.6 1v1.7l0.1 1.3 0.7 2.6-0.7 1.2 0.9 0.8-0.3 1v5.9l1.5 5.8 0.6 1.2 0.4 1.7 1.3 2.4 2.3 2.5 1.3 0.8 1.6 0.7 1.6 0.4 1.4-0.1 2.8-0.1 4.9-1.1 1.6-0.7 1.5-0.6 1.3-0.7 1.1-0.3 1.1-1 1.1-0.6 0.7-0.5 0.4-0.4 0.5-0.9 0.5 0.3 1.4-1.5 2.9-3.2 1.6-1.7c2.3-3.3 3.5-6.6 4.4-10.2l0.7-3.1 0.2-1.3 0.2-1.6 0.8-5.9 0.6-3.2 0.5-3.5 0.5-1v-1.5l0.4-4.8 0.3-2.6 0.2-2.7 0.4 0.1v-2.7l0.2-2.5 0.5-2.8 0.5-3v-0.9l0.1-0.4v-1.7l0.5-3.4 0.2-3.5v-3.6l-0.1-1.3 0.5-0.5v-0.5l-0.1-3.2-0.9-0.2 0.4-1.3 1.2-0.6v-2.1l0.6-2.3 0.1-2.8v-2.8l0.3-1.5 0.3-1.6 0.1-1.4 0.2-1.6 0.1-3.6 0.4-1.4-0.1-1.6 0.3-2.9 0.1-3.2 0.1-3.4 0.1-1.6 0.2-0.6-0.3-0.7 0.3-1.3 0.3-1.4-0.1-3.2 0.4-1.3-0.4-0.6 0.4-0.5 0.4-2.9 0.1-2-0.1-2.1 0.4-3.7 0.2-3.2 0.3-1.4v-2l0.7-3.2 0.1-2.9 0.5-1.5 0.1-1.3 1.6-3 0.2-0.3v-0.7l1-1.1-0.1-0.5h0.5l1.4-2 1.8-1.5 1.7-1.3 1.6-1.2 0.7-0.4 1.5-0.2 0.1-0.7 1.7-0.2 1-0.6 2.3-0.9 6.5-0.7h3.9l3.4 1 5.3 2.8 1.6 1.8 0.8 1.3 0.9 0.8 0.9 2.3 0.1 1 1.4 0.1-0.2 0.4-1.4 0.4 0.9 1-0.5 1.2-0.1 1.3-0.1 1.7-0.3 1.4 0.3 1.2 0.5 1.2-0.6 0.4v1.4l0.3 2.1 1 1.1-0.4 0.7-1.1 0.5 0.2 1.4 0.5 1.2 0.2 1.2-0.9 1.5-0.4 2.7v1.7l0.4 1.1-0.6 0.9 0.8 1.2-1.1 2.2 0.3 1.3 0.2 1.1v1.3l0.5 1.5-0.4 1.2 0.2 0.7-0.6 0.3 0.1 0.9v1.3l-0.6-0.4-0.6 0.9 0.6 1.7-0.6-0.3-0.1 1.8-0.1 1.6 0.9-0.4-1.2 1.6-0.1 3.6-0.1 2-0.4 1.9 0.2 1.5-0.7 1.5 0.7 0.7-0.4 0.9-0.2 1.9-0.1 4.2-0.2 2.3-0.3 2.2-0.3 8.1-0.7 9.3-0.4 2.4-0.1 2.9-0.2 2.7v2l-0.6 0.9v0.9l-0.1 2-0.3 4.2-0.4 4.2v2l0.1 1.3-0.8 2.5-0.3 2.9v2.9l-0.2 1.5 1.2 0.3-0.8 0.6-0.5 1.3v1.3l-0.2 4-0.5 1.9-0.1 0.9 0.7 0.4-0.6 0.8-0.1 1v2 2l0.9 1.4v1.2l0.2 0.3-0.2 0.7-0.1 1.2 0.4 1-0.9 2.3-0.3 1.1 0.8 0.9h-0.8l0.3 2.7v1.1l-0.5 2.3 0.6 1.7-0.1 0.6 0.4 0.5-0.3 0.9v1.1l-0.9 0.7 0.5 0.4v0.6l-0.5 1.5-0.1 2.8-0.3 2.7 0.2 2.6 0.1 2.7-0.1 2.6 0.1 1.1-0.1 1.2v1.4l-0.6 1.1 0.6 2.2 2.5-1 1-0.6 0.6-0.6 0.5-0.1 0.6-1 0.7-0.1 0.6-0.6 1-0.9 1.1-0.5 0.7-0.8 1.2-0.6 2.3-1.3 1.1-0.6 1.2-0.9 2.5-1.5 2.4-1.3 1.7-0.9 0.9-0.9 1.4-0.3 1.3-1 7.2-4.8c3.9-2.6 8-4.8 12-7.5l6.5-4 6.5-3.8-0.2-0.1 1.6-1.4 1.3-1 1.4-0.5 1.4-1 2.5-1.5 2.4-1.3 2.4-1.8 1.9-0.9 2-0.9 2.4-1.6 2.2-1.2 0.4-0.7 1.4-1.1 2.2-1.3 2.7-1.5 2.6-0.9 2.6-1.2 2.2-1.4 0.6-0.8 1.3-0.2 2-1.7 0.5-0.3v-0.6l1.7-0.9 1.2 0.7 1.1-0.6 1.1-0.7 1.4-0.4 1.8-1.5 0.7-0.1 0.2-0.5 0.8-0.2 0.5-0.5 0.6-0.3h0.7l0.6-1 1.2-0.4 1.3-0.7 1-0.5 1.2-1 1.1-0.6 1.2-0.7 1.5-0.6 1.9-1.2 5.3-3.5 2.4-1.6 1.2-0.3 1-0.6 2-1.6 2.6-1.1 4.5-2.5 2.4-1.4 2.5-1.6 5.5-2.8 5.1-3 1.3-0.6 1.2-0.7 0.4-0.4 0.6 0.2 1.2-0.9 4.7-2.7 5.2-3 1.4-0.8 1.4-1 1.7-1 0.7-0.1 3.4-2.1 1.2-0.7 1.4-0.4-0.4-0.1 2.1-1.4 5.4-2.7 1-0.6 1.6-1 2.7-1.3c3.8-1.8 7-4.3 10.8-6.4l5-2.4 3.3-1.9 1.1-0.7 1.2-0.7 1.1-0.7 1.2-0.8 2-1.2 2.1-1.4 3.1-2 0.8-0.2 1.9-1.2 1.1-0.6 0.7-1.3-1.1-1.4-2.7-1.3-0.8-1-1.2-0.8-1.8-2.1-1.2-1.2-0.4-1.5-0.5-1.2-0.7-0.8-0.6-1.2-0.1-1.7-0.6-2.6-0.2-3.2v-6.5l0.2-2.9-0.4-1.5 0.2-1.6 0.2-1.3-0.6-1.4 0.4-2 0.3-2.2 0.4-0.6 0.2-0.6v-1.5-3.5-3l0.6-3.5-0.6-2.9-0.6-2.5 0.6-3.8v-1.4l0.6-1.4 0.6-2.8v-0.5l-0.4-0.5-0.2-1.9-0.3-0.8-0.3-0.3 0.3-1.8 0.9-0.7-0.2-1.5h-0.4v-1.6l0.2-0.7 0.5-0.2 0.2-1.3 0.2-2.6 0.1-1.1 0.3-6.8v-3l0.1-3.1-0.1-0.1-0.3-0.5 0.3-0.1 0.1-1.5v-3-7.3l-0.1-6.5-0.1-1.4 0.1-0.5-0.6-0.3-0.6-1.2-0.6-1.3-4.7-3.2-3-0.1-0.4-0.3-0.7 0.3-0.5-0.3-0.8-0.4-1.3 0.6-2.4 0.2-2.4 1.4-1.6 0.4-0.9 1.1-1.6 0.4-0.9 0.6-2.2 2.2-1.2 0.4-1 0.8-0.9 1-0.3 0.9-0.2 0.9-2 1.3-0.8 2.6-1 0.7-1.2 1-2.3 2-1.2 1.5-0.9 0.2-0.4-0.6-0.7 0.2 1.1 1.1-0.7 2.6-2.1 1.5-1.3 0.5-0.3 1.2-0.3 2.9-0.4 1.4-0.1 1.4-0.5 0.2 0.1 0.3-0.1 0.7-0.9-0.3-0.3 0.6 0.2 1.2-0.2 1.5v1.6 0.7l-0.3 0.6 0.3 1.4-0.7 0.8-0.7 1.6 1.4 0.5-0.7 1.4-0.7 0.5-0.8-0.1-1.2-0.9 0.5 1.1-0.5 0.3-0.3 0.4 1.2 1.2 1.1 0.5-0.8 0.7-0.4 0.9 0.4 0.9-1.8 0.9 1.5 0.3 0.7 0.8-2.1 0.4-1.5 1.6 0.5 1.1-0.1 1.4 0.7 0.9-0.5 1.2 1.1 1 0.3 0.8 0.3 1.8-1.2 1.7h-1.1l0.4 0.3-1.9 1.4 1 1.4-0.5 0.5-1.2-0.5v1.3l0.3 0.2-0.3 1.1 0.6 0.6 1.6 1.7 0.6 0.3-0.2 0.5 0.4 1.3-0.8 0.5 0.5 1 0.2 1.2-0.3 1.1 0.7 0.2 0.2 1-1.3 0.7-1.3 0.2-0.2-2-0.3 1.1-0.2 0.8 0.4 0.8-0.9 1.3-0.4 1.6 0.7 0.5 0.6 0.7 0.3 1.3-1.1-0.1-0.6 0.5 0.1 1-0.4 0.8 0.3 2.3-0.3 2.7-0.1 3.1 0.1 1.6-0.3 1.4 0.9 0.6-0.9 1.1 0.9 0.5 0.9-0.9 0.2 0.4 0.1-0.3h0.5l-0.6 2.2-1.4 0.8 0.6 1-0.6 0.5v1.3l0.8 1.2 0.6 0.3 0.1 0.8-2.1 0.4 1.8 0.8 0.6 0.5 0.6 1.5-1.4 1.7-0.1 0.7 0.3 0.4-0.4 1.4-0.8 1.2 0.3 0.4 0.2 0.7 0.5 1.4-0.2 0.9-1.4-1.9 0.5 2.1 0.4 2 0.9 1.3v2.2l-1.2 0.5 0.2 0.8-0.8 0.5-0.9 1-0.9 1.1v1l-0.5 0.4-0.1 1.1-0.4 0.6 0.4 0.9-0.9 0.4-0.2 0.6-0.4 0.1v0.8l0.1 0.6-0.1 1.9-1.9 1.5h0.3l-1.3 0.4h-0.2l-1 1.5-0.6 0.4-0.4 0.8-0.8 0.4-0.7 0.4-1.3 0.8-0.7 0.6-2.6 1.1-0.9 0.6-0.7 0.1-1.3 1.1-1.7 0.7-1.5 0.8-3.8 1.5-3.9 0.7-3.7-0.2-0.9 0.3-0.8-0.3-2-0.4-3.4-1.7-2.6-2.6-0.6-1.7-0.4-1v-0.4l-0.3-0.4-0.8-3.7 0.1-1.7-0.3-1.6 0.1-2 0.4-1-0.4-1.3 0.2-1.4 0.2-2.4 0.2-1.9-0.2-1.2-0.2-0.7 0.3-1.8 0.3-2 0.2-4.3 0.2-2-0.2-1.3 0.3-1.4v-2.2l-0.3-0.3 0.4-2.1 0.1-2.5 0.1-0.3-0.2-0.2 0.2-1.4v-1.5l0.1-2.7 0.1-2.9 0.3-1 0.1-1v-4.4l0.2-4.3 0.1-1.8v-2.7l0.3-0.7-0.4-0.5 0.4-1.7 0.2-1.3 0.3-2.3-0.2-1.4v-2.2-2.2-2l0.4-1.9v-0.4-0.7l0.1-4.3 0.2-4 0.3-4-0.3-1 0.4-0.8-0.4-0.9 0.3-0.7 0.2-3.8 0.1-4 0.3-4.3 0.2-5.4 0.6-6.4 0.1-3.1 0.5-3.5 1.9-5.6 0.9-2.6 1.3-2.5 1.3-2.4 1.4-2.1 1.6-2.2 2.3-2.7 1.3-1.1 0.9-0.3 0.3-0.6 0.6-0.1 0.5-0.5 1.3-1.1 2.8-1.3 2.7-1.6 0.8-0.3 1.4-0.4 2.9-1 6.6-0.9 3.1 0.3h3.1l1-0.8 1.2-0.7 2.8-0.1h1.4l1 0.7 0.9 0.9 2-0.1 1.7 0.3 0.9 0.4 2.7-0.3h1.7l1.2-0.4 1.2-0.9 1.3-0.4 2.5-1.2 2.3-1.6 0.6-1 1.2-0.6 2-1.5 0.9-1.9 1.2-0.4 0.5-0.6-0.2-0.5 3.6-3.9 1.4-0.8 0.9-0.8 1.7-1.9 2-2.2 1.4-1.1 0.6-1.2 2.1-1.5 2.5-1.6 5-2.8 2.5-1.4 2.1-0.9 1-0.8 2.8-0.9 1.5-0.6 1.5-0.1 1-0.3h0.5l1.4-0.5 3.2-0.6 3.3-0.1 3.3 0.3 2.8 0.6 5.5 2.2 1.1 0.9 1.2 1.2 1.6 1.9 1.2-0.8-0.2 1.2 0.2 1.1 1 1 0.4 1.1 0.3 2.2 1.1-0.4-0.4 1.1 0.6 2.7v1.4l1.6 0.3 1.1 1.9-1.8 0.2v3.2l0.7 1.2 0.9 1.6h1.6l-0.5 0.6-0.6 1.1v1.9l0.4 1 0.7 0.6h0.3v0.6h-0.9l-0.5 0.3-0.5 0.1-0.7-0.1-0.7 1-0.4 3.1v1.6l0.7 1.2-0.1 1.1-0.6 0.5 0.1 1.5 1.1-0.6 1.7-1.2-0.1 0.5-0.3 0.4-0.2 1.4v3l1.4 0.6-0.6 0.8-1-0.6-0.7 0.8 0.4 1v1.2l-0.9 0.3 1.2 0.6-0.6 0.6 0.3 0.8-0.4 0.7 0.4 1.2 0.5 1.5 0.9 1.4-0.3 0.3v0.6l-0.8-0.2-0.9 0.2-1.1-0.2-0.3 3.2 1.4 1.2 0.6 0.7-1.1 0.7-0.9 0.8-0.1 1.7 0.9-0.1 0.1 0.5 1.1 0.8-0.7 0.4h-1.4l-0.4 2.2 0.5 0.4-0.5 1.4v3.7 3.6l-0.2 3.3 0.2 3.6v1.7l1 0.9 0.6 1-0.1 1.1h-1.5l0.1 0.6 0.3 0.5-0.4 0.4v0.7l0.7 1.1 0.7 0.8-1.4 0.6 0.4 0.7-0.4 0.7v1l0.3 0.9 1.8 0.6 0.1 1.1-0.9 1 0.3 1 0.2 0.7 0.4 0.7 0.5 0.7v0.6l-0.5 0.6v-1l-0.6 0.5-0.4 1-0.3 0.9 0.5 0.9v1.1 2.3l-1-0.3-0.4 0.6v1.5l0.1 0.7-0.3 0.3 1.1 0.2 0.5-1.1 0.5 0.9 0.2 0.5v0.4l-1.4 0.2-0.2 0.9 0.9 0.4-1.4 0.3 0.9 2.3 1.2 0.3-0.5 1.2-1.1-0.2-0.3 1 0.5 1.5-0.3 0.9-0.1 1 0.2 0.6-0.4 0.5 1.2 0.4 1.2 0.3-0.4 1.9-0.1 1.5 1 0.1 0.5 0.3 0.6 0.2 0.3 1.3-1.9 1.7v0.6l0.3 0.4-0.6 0.2 0.6 0.8 1.3-0.3 0.9 0.6v0.9 0.4l-0.3 0.2 0.3 1.4 1 0.3-0.1 0.5-0.4 0.6 0.7 0.6 1.8 0.1 0.9 2 1.8 1.1v0.4l1.7 0.4 1.9 0.2 5.2-1.6 2.7-0.8 2.3-1.1 1.1-0.3 2.2-1.1 2.3-1 1.2-0.8 1.4-0.5 0.4-0.2v-0.2h0.8l0.9-0.7 1.2-0.4 0.3 0.2v-0.5l1.6-0.7 1-0.4 0.8-0.7 1.8-0.9h0.5l1.2-1.1 1-0.2 0.5-0.7 0.9-0.2 3-1.6 2-1.3 2.1-1 2.1-1.3 0.2 0.1 1.7-1.1 0.4 0.4 0.5-0.4 0.9-0.6 2.2-1.4 5.1-2 0.5-0.4 2.7-0.7 2.7-0.7 1.5-0.3 0.7-0.5 0.5 0.4h1.2l0.8 0.1 4.4-0.5 1.9 0.5 1.8 0.4 1.8 0.4 1.8 0.2 1.7 0.2 1.9 0.2-0.8-1h1.3l0.6 1.3 1.5 0.8-0.3-0.8 1.3 0.6 0.7 0.6 0.2 0.8 0.7 0.4 0.5 0.3 0.8 1.2 0.6 1 0.6 1.1 0.6 1 0.9 0.7 0.6 1.2 0.3 1.2 0.3 0.6v0.6l0.9 0.8-0.5 1.1 0.8 0.7 0.5 0.3-0.3 0.7v0.5l-0.6 0.8v0.7l-1.1 1.2 1.4-0.3-0.1 1.4 1.1 0.5z"/>
	<path id="path2100" fill-rule="evenodd" class="s2" d="m540.2 1234.2q2.7 0.7 5.5 1.4l-4.3-1.1zm10.9 2.6l4.5 1.1 5.3 1.1 4.2 0.9 5.6 1.2 3.9 0.7 5.9 1.2 3.9 0.6 4.5 0.9q-21.8-3.7-43.1-8.9zm37.7 7.7q2.8 0.4 5.7 0.9l-0.5-0.1-3.6-0.5zm11.6 1.8l3 0.5q-4.5-0.7-8.9-1.4zm3.1 0.5q4.2 0.6 8.5 1.2l-1.6-0.2-6.5-0.9zm10.3 1.4l6.6 0.8q-4.2-0.5-8.4-1.1zm-81.9-16l8.3 2.1q-4.2-1.1-8.3-2.1zm149.7 21.1q-0.5 0-1 0h0.5zm0.4 0h-0.4q0.2 0 0.4 0zm-6.7-0.3l-1.9-0.1q3.6 0.1 7.1 0.2zm-12.9-0.5l2.5 0.1 6.1 0.2 2.4 0.1q-5.5-0.1-11-0.4zm0 0q-1.7-0.1-3.4-0.2l1.9 0.1zm-8-0.5l-3.3-0.2q4 0.2 7.9 0.5zm-3.3-0.2q-0.4-0.1-0.9-0.1h0.5zm-7-0.6l-0.2-0.1q0.3 0.1 0.5 0.1zm-0.1 0q-6.3-0.6-12.5-1.1l2.4 0.2 6.8 0.5zm-13.6-1.1l-1.1-0.2q1 0.1 2.1 0.3zm-6.8-0.8l-3.2-0.3q4.4 0.4 8.8 0.9zm26.7 2.4q-2.9-0.2-5.8-0.5zm133.3-117.5q0.1 0 0.2-0.1-0.1 0.1-0.2 0.1zm-0.3 0.1q0.2-0.1 0.3-0.1-0.1 0.1-0.3 0.1zm495.1-280l0.2-0.7 3.5-9.1q-1.8 4.8-3.7 9.8zm0 0q-0.5 1.4-1.1 2.7l0.8-2zm-1.3 2.8q-1.6 4-3.2 8l0.4-1zm9-24.3l2.8-8.3 0.7-1.9 2.8-9 0.5-1.5 2.9-9.7q-4.4 15.5-9.7 30.4zm-0.2 0.6l-0.5 1.5-0.4 1.3q0.4-1.4 0.9-2.8zm-0.9 2.8q-1.5 4.1-3 8.2l0.1-0.5zm-19.5 48.5c1.4-3.2 2.9-6.5 4.4-9.9l0.1-0.1q-2.2 5.1-4.5 10zm4.5-10.3l3.7-8.7c-1.2 2.9-2.3 5.8-3.7 8.7zm-582 378.9h0.1zm-6.3 0h3.9 2.4q-3.1 0-6.3 0zm-61.4-4.4h-0.2q0.1 0 0.3 0zm675.7-446.5c-99.5 105.9-280.8 227.9-510.9 331.1 230.1-103.2 411.4-225.2 510.9-331.1z"/>
	<path id="path2104" class="s3" d="m1293.3 812.1l-0.5 1.5-2.9 9.1-0.6 1.8-3.1 9-0.5 1.5-3.2 9-0.2 0.4q0 0.1-0.1 0.2l-3.5 9.2-0.4 1.3-3.7 9.1-0.4 1c-0.1 0.2-0.2 0.4-0.2 0.6l-3.7 8.6q-0.1 0.2-0.2 0.4l-0.1 0.2c-1.4 3.3-2.8 6.6-4.3 9.8-150.8 134.4-315.9 269.6-577.4 368.5h-0.1-2.3l-4.7-0.1-5.8-0.2-4.3-0.1-6.2-0.3-3.8-0.2-6.6-0.4-3.7-0.2-6.6-0.4-3.5-0.4-6.6-0.6-3.5-0.3-6.8-0.7-3.3-0.4-6.7-0.8-3.3-0.4-6.7-1-3.4-0.5-6.4-1-3.6-0.6-6.2-1.1-3.8-0.7-5.8-1-4-0.8-5.5-1.2-4.4-0.9-5.3-1.2-4.3-0.9-5.4-1.3-4.3-1.1-9.5-2.4c88.7-29.5 173-62.5 251.6-97.7q0.2-0.1 0.5-0.2 0.7-0.3 1.3-0.6c230.1-103.3 411.5-225.2 510.9-331.1z"/>
</svg>