<svg version="1.2" xmlns="http://www.w3.org/2000/svg" viewBox="0 0 1517 1317" width="1517" height="1317">
	<title>logo-viridian-svg</title>
	<style>
		.s0 { fill: #ffffff } 
	</style>
	<g id="Layer">
		<g id="Layer">
			<path id="Layer" class="s0" d="m617.3 1249.8l115.3-477.5c0-2.8 2.8-5.6 2.8-8.4v-2.8c0-2.8 0-2.8 2.8-5.6l2.8-2.8c2.8-2.8 2.8-2.8 5.7-5.6l2.8-2.8 2.8-2.9h2.8c0 0 0-2.8 2.8-2.8 2.8 0 2.8-2.8 5.6-2.8 2.8-2.8 2.8-2.8 5.6-2.8 2.9 0 2.9 0 5.7 0 2.8 0 2.8 0 5.6 0 2.8 0 2.8 0 5.6 0 2.8 0 2.8 0 5.6 0 2.8 0 2.8 0 5.7 0h2.8 2.8c0 2.8 2.8 2.8 2.8 2.8 2.8 0 2.8 2.8 5.6 2.8 0 2.8 2.8 2.8 2.8 2.8 2.8 2.9 2.8 2.9 5.6 5.7l2.9 2.8c2.8 2.8 2.8 2.8 5.6 5.6l264.2 415.6c16.9 22.5 11.3 56.2-14 73.1-22.5 16.8-56.3 11.2-73.1-14.1l-188.4-241.5-98.4 289.3c-5.6 28.1-36.5 44.9-64.6 36.5-30.9-8.4-45-36.5-36.6-64.6z"/>
			<path id="Layer" class="s0" d="m1446.6 775.1l-551-132c-2.8 0-2.8 0-2.8 0-2.8 0-5.6-2.8-8.4-2.8 0-2.8-2.8-2.8-2.8-2.8 0-2.8-2.8-2.8-5.6-5.6l-2.8-2.8c-2.9-2.8-2.9-2.8-5.7-5.6l-2.8-2.8-2.8-2.8c-2.8 0-2.8-2.8-2.8-2.8 0-2.8-2.8-2.8-2.8-5.7 0-2.8-2.8-2.8-2.8-5.6-2.8-2.8-2.8-2.8-2.8-5.6 0-2.8 0-2.8 0-5.6 0-2.8 0-2.8 0-5.6 0-2.8 0-2.8 0-5.6 0 0 0-2.8 0-5.7 0-2.8 0-2.8 0-5.6v-2.8-2.8c2.8-2.8 2.8-2.8 2.8-5.6 0 0 2.8-2.8 2.8-5.6l2.8-2.8c2.8-2.8 2.8-2.8 5.6-5.6l2.8-2.9c0-2.8 2.8-2.8 5.7-5.6l477.8-303.3c28.2-16.8 64.7-11.2 84.4 16.9 16.8 28 11.2 64.6-16.9 84.2l-278.3 213.5 331.7 112.3c30.9 8.4 50.6 42.1 42.2 75.8-8.4 33.7-45 50.6-67.5 39.3z"/>
			<path id="Layer" class="s0" d="m904.1 56.2l-132.1 393.2c0 2.8-2.9 2.8-2.9 5.6 0 2.8 0 2.8 0 2.8 0 2.8-2.8 2.8-2.8 5.6-2.8 0-2.8 2.8-2.8 2.8 0 0 0 2.8-2.8 2.8 0 2.8-2.8 2.8-2.8 2.8 0 2.8-2.8 2.8-2.8 2.8h-2.8c0 2.8-2.8 2.8-2.8 2.8-2.8 2.9-2.8 2.9-5.7 2.9h-2.8c-2.8 0-2.8 0-5.6 0-2.8 0-2.8 0-5.6 0h-2.8c-2.8 0-2.8 0-5.6 0h-2.9-2.8-2.8c0-2.9-2.8-2.9-2.8-2.9-2.8 0-2.8-2.8-5.6-2.8 0-2.8-2.8-2.8-2.8-2.8-2.8 0-5.6 0-5.6-2.8-2.9-2.8-2.9-2.8-2.9-2.8 0-2.8-2.8-2.8-2.8-5.6l-191.1-367.9c-11.3-22.5-5.6-50.6 16.8-61.8 22.5-11.2 50.6-5.6 61.9 16.8l137.7 216.3 104-235.9c11.3-22.5 36.6-33.7 59.1-25.3 22.5 8.4 33.7 33.7 25.3 53.4z"/>
			<path id="Layer" class="s0" d="m336.2 44.9l269.9 441c0 2.8 2.8 5.6 2.8 8.4v2.8c2.8 2.8 2.8 5.6 2.8 8.4v2.8c0 0 0 2.8 0 5.7 0 2.8 0 2.8 0 5.6v2.8 2.8c0 2.8 0 2.8 0 5.6 0 2.8-2.8 2.8-2.8 5.6 0 2.8-2.8 2.8-2.8 5.6 0 2.9-2.8 2.9-2.8 5.7 0 2.8-2.8 2.8-2.8 5.6l-2.8 2.8c-2.8 0-2.8 2.8-5.7 2.8 0 0 0 2.8-2.8 2.8 0 2.8-2.8 2.8-2.8 2.8h-2.8c0 2.8 0 2.8-2.8 2.8 0 2.8-2.8 2.8-5.6 2.8h-2.8q-4.2 0-8.5 0h-2.8q-4.2 0-8.4 0c-2.8 0-2.8 0-2.8 0l-503.2-112.3c-30.9-5.6-50.6-33.7-45-64.6 5.6-30.9 33.7-50.6 64.7-44.9l314.8 39.3-143.4-286.5c-14-25.3-5.6-61.8 22.5-75.8 28.1-14.1 61.9-5.6 75.9 19.6z"/>
			<path id="Layer" class="s0" d="m254.7 879.1l306.4-188.2c2.8 0 2.8-2.8 5.6-2.8 2.9 0 2.9 0 2.9 0 2.8 0 2.8 0 5.6 0h2.8c2.8 0 2.8 0 5.6 0h2.8 2.8c2.8 0 2.8 0 2.8 0h2.9c0 2.8 2.8 2.8 2.8 2.8 0 2.8 2.8 2.8 2.8 2.8 0 2.8 2.8 2.8 2.8 2.8l2.8 2.8 2.8 2.8 2.8 2.8c2.8 0 2.8 2.8 2.8 2.8 0 2.9 0 2.9 0 2.9v2.8 2.8c2.8 2.8 2.8 2.8 2.8 5.6v2.8c0 2.8 0 2.8 0 5.6v2.8c0 2.8 0 2.8 0 5.6l-75.9 351.1c-2.8 19.7-22.4 33.7-44.9 30.9-19.7-2.8-33.8-22.5-31-44.9l28.2-221.9-199.6 98.3c-19.7 11.2-42.2 5.6-53.4-14.1-8.5-16.8-2.9-42.1 14-58.9z"/>
		</g>
	</g>
</svg>