<svg version="1.2" xmlns="http://www.w3.org/2000/svg" viewBox="0 0 1521 881" width="1521" height="881">
	<title>logo3-svg</title>
	<defs>
		<clipPath clipPathUnits="userSpaceOnUse" id="cp1">
			<path d="m0 0.29h1520.57v880.66h-1520.57z"/>
		</clipPath>
		<clipPath clipPathUnits="userSpaceOnUse" id="cp2">
			<path d="m0 0.29h1520.57v880.66h-1520.57z"/>
		</clipPath>
		<clipPath clipPathUnits="userSpaceOnUse" id="cp3">
			<path d="m0 0.29h1520.57v880.66h-1520.57z"/>
		</clipPath>
		<clipPath clipPathUnits="userSpaceOnUse" id="cp4">
			<path d="m0 0.29h1520.57v880.66h-1520.57z"/>
		</clipPath>
	</defs>
	<style>
		.s0 { fill: #2e3038 } 
		.s1 { fill: #e52978 } 
	</style>
	<g id="Clip-Path" clip-path="url(#cp1)">
		<path id="Layer" fill-rule="evenodd" class="s0" d="m480.7 405.5q1.5 0.4 2.9 1.2 1.3 0.9 2.4 2.1 1.1 1.1 1.9 2.6l120.5 257.9c0.5 1.1-0.4 2.3-1.5 2.3h-51.2q-1.4 0-2.8-0.4-1.4-0.4-2.7-1.2-1.2-0.7-2.2-1.8-0.9-1.1-1.6-2.4l-9.2-19.9c-0.3-0.5-0.9-0.9-1.5-0.9h-154.2c-0.7 0-1.3 0.4-1.5 0.9l-9.3 19.9c-1.7 3.5-5.3 5.8-9.3 5.8h-51.1c-1.3 0-2.1-1.2-1.5-2.3l120.5-257.9c1.8-3.9 5.7-6.4 10.1-6.4h38.1q1.6 0 3.2 0.5zm-72.8 185.9h101c1.2 0 2.1-1.2 1.5-2.3l-50.5-108.1c-0.6-1.3-2.4-1.3-3 0l-50.5 108.1c-0.5 1.1 0.3 2.3 1.5 2.3zm1112.7 77.9c0.5 1.1-0.3 2.3-1.5 2.3h-51.1q-1.5 0-2.9-0.4-1.4-0.4-2.6-1.2-1.3-0.7-2.2-1.8-1-1.1-1.6-2.4l-9.3-19.9c-0.3-0.5-0.8-0.9-1.5-0.9h-154.2c-0.7 0-1.2 0.4-1.5 0.9l-9.3 19.9c-1.6 3.5-5.3 5.8-9.3 5.8h-51.1c-1.2 0-2-1.2-1.5-2.3l120.5-257.9c1.8-3.9 5.7-6.4 10.1-6.4h38.2q1.5 0 3.1 0.4 1.5 0.5 2.8 1.3 1.4 0.9 2.4 2.1 1.1 1.1 1.8 2.6zm-200.5-77.9h101.1c1.2 0 2-1.2 1.5-2.3l-50.6-108.2c-0.5-1.2-2.4-1.2-3 0l-50.5 108.2c-0.5 1.1 0.3 2.3 1.5 2.3zm-1073.1-186.4h51c1.2 0 2 1.1 1.5 2.2l-120.5 258c-1.8 3.9-5.8 6.4-10.1 6.4h-38.2c-4.3 0-8.3-2.5-10.1-6.4l-120.5-258c-0.5-1 0.3-2.2 1.5-2.2h51.1q1.4-0.1 2.8 0.3 1.5 0.4 2.7 1.2 1.2 0.8 2.2 1.9 1 1.1 1.6 2.4l86.3 184.8c0.6 1.3 2.5 1.3 3 0l86.4-184.8c1.7-3.6 5.3-5.8 9.3-5.8zm961.1 10.9v41.1c0 0.9-0.8 1.6-1.7 1.6h-94.4c-0.9 0-1.6 0.7-1.6 1.6v209.7c0 0.9-0.8 1.6-1.7 1.6h-51.5c-0.9 0-1.7-0.7-1.7-1.6v-209.7c0-0.9-0.7-1.6-1.6-1.6h-84.9c-6.2 0-11.2-4.8-11.2-10.9v-41.1c0-0.9 0.8-1.6 1.7-1.6h237.4c6.1 0 11.1 4.9 11.2 10.9zm-303.5 182.2c0 33.6-32.2 77.8-122.2 77.8-53.2 0-90.5-15.8-104.5-22.8-3.7-1.9-6.1-5.6-6.1-9.7v-47.2c0-1.2 1.4-2 2.5-1.4 15.8 8.1 56.6 31.7 108.1 31.7 50.9 0 58.5-20.8 58.5-28.4 0-55.3-167.3-23.1-167.3-122.3 0-30.3 25.2-75.2 115-75.2 35.4 0 63.5 9.4 88.5 18.6 4.4 1.5 7.3 5.6 7.3 10.2v42.5c0 1.2-1.3 2-2.4 1.5-10.1-4.7-51.6-22.3-102-22.3-23.8 0-43.6 11-43.6 24.7 0 44.3 168.2 19.7 168.2 122.3zm-231.9-414.9l-106.5-180.5q-0.2-0.4-0.2-0.9 0-0.4 0.2-0.8 0.2-0.3 0.6-0.6 0.4-0.2 0.8-0.2h385.2q0.2 0 0.5 0.1 0.2 0.1 0.4 0.2 0.2 0.1 0.3 0.3 0.2 0.1 0.3 0.3z"/>
	</g>
	<g id="Clip-Path" clip-path="url(#cp2)">
		<path id="Layer" class="s1" d="m954.3 2.7l-192.6 326.4c-0.7 1.1-2.3 1.1-2.9 0l-86.1-145.9 281.6-182c0.3 0.5 0.3 1 0 1.5z"/>
	</g>
	<path id="Layer" class="s0" d="m310.8 787.2h57.5v11.9h-43.8v19.7h38.8v11.9h-38.8v20.4h44.3v11.9h-58z"/>
	<g id="Clip-Path" clip-path="url(#cp3)">
		<path id="Layer" fill-rule="evenodd" class="s0" d="m420.4 787.2h28.9c24.4 0 41.2 16.4 41.2 37.7v0.2c0 21.4-16.8 37.9-41.2 37.9h-28.9zm28.9 63.7c16.3 0 26.9-10.7 26.9-25.6v-0.2c0-14.8-10.6-25.8-26.9-25.8h-15.2v51.6h15.2zm91.9-20.1v-43.7h13.6v43.1c0 14.1 7.5 21.7 19.7 21.7 12 0 19.4-7.1 19.4-21.1v-43.7h13.7v43c0 22.6-13.1 34-33.3 34-20.3 0.1-33.1-11.3-33.1-33.3zm117-5.5v-0.2c0-21.6 16.5-39.2 40-39.2 14.3 0 22.8 4.9 30.3 11.7l-8.7 9.9c-6.3-5.7-12.9-9.4-21.7-9.4-14.9 0-25.6 11.9-25.6 26.7v0.3c0 14.8 10.7 26.9 25.6 26.9 9.5 0 15.6-3.8 22.2-9.8l8.7 8.7c-8 8.2-16.9 13.4-31.4 13.4-22.6 0-39.4-17.2-39.4-39z"/>
	</g>
	<path id="Layer" fill-rule="evenodd" class="s0" d="m806.2 786.6h12.7l34.1 76.4h-14.4l-7.9-18.3h-36.6l-8 18.3h-13.9zm19.4 46.3l-13.4-30.3-13.3 30.3z"/>
	<g id="Clip-Path" clip-path="url(#cp4)">
		<path id="Layer" fill-rule="evenodd" class="s0" d="m916.2 876.1l8.7-12.5c-18.5-3.4-31.5-19.1-31.5-38.3v-0.2c0-21.6 16.5-39.2 40-39.2 14.3 0 22.9 4.9 30.3 11.8l-8.7 9.8c-6.2-5.7-12.8-9.4-21.7-9.4-14.8 0-25.6 11.9-25.6 26.7v0.3c0 14.8 10.8 27 25.6 27 9.5 0 15.6-3.8 22.2-9.9l8.7 8.7c-7.6 7.8-15.9 12.8-29 13.3l-7.3 16.8zm125.2-89.5h12.7l34.1 76.3h-14.4l-7.9-18.3h-36.6l-8 18.3h-14zm-14.4-8c2.4-8.5 5.7-13.3 12.4-13.3 6.1 0 12.4 4.2 16.3 4.2 3.2 0 4.6-1.7 6.1-5.1l7.5 2.1c-2.4 8.5-5.7 13.3-12.4 13.3-6 0-12.3-4.2-16.2-4.2-3.3 0-4.6 1.7-6.3 5.3zm33.9 54.3l-13.4-30.3-13.3 30.3zm67.8-7.6v-0.2c0-21.3 16.8-39.2 40.6-39.2 23.8 0 40.4 17.7 40.4 39v0.3c0 21.3-16.8 39.1-40.6 39.1-23.8 0-40.4-17.6-40.4-39zm66.7 0v-0.2c0-14.7-10.9-27-26.3-27-15.4 0-26.2 12-26.2 26.8v0.2c0 14.7 11 27 26.4 27 15.4 0 26.1-12 26.1-26.8z"/>
	</g>
</svg>