<svg version="1.2" xmlns="http://www.w3.org/2000/svg" viewBox="0 0 1326 1554" width="1326" height="1554">
	<title>verastem-logo-white-svg</title>
	<defs>
		<linearGradient id="g1" x1="1769.3" y1="8694.3" x2="2594.7" y2="-248.2" gradientUnits="userSpaceOnUse">
			<stop offset="0" stop-color="#ffffff"/>
			<stop offset="1" stop-color="#ffffff"/>
		</linearGradient>
	</defs>
	<style>
		.s0 { fill: #ffffff } 
		.s1 { fill: url(#g1) } 
	</style>
	<g id="Layer">
		<g id="Layer">
			<path id="Layer" class="s0" d="m663.2 198.7c-54.1 0-97.8-44.4-97.8-99.4 0-54.9 43.7-99.3 97.8-99.3 54 0 97.7 44.4 97.7 99.3 0 55-43.7 99.4-97.7 99.4z"/>
		</g>
		<path id="Layer" class="s1" d="m856.5 123.6c3.7-9.5 14.7-19.7 30.1-19.7h143.6c12.8 0 23.4 5.3 29.3 14.6 5.7 9.2 6 20.8 0.9 32.1l-266.5 593.8-105.5-236.4z"/>
		<g id="Layer">
			<path id="Layer" class="s0" d="m701.3 1533.2c-6.2 12.6-17.5 20-30.2 20h-20.3c-11.6 0-24.5-8.7-30.1-19.8l-616.7-1383.1c-5.2-11.3-4.8-23 0.9-32.1 5.9-9.1 16.6-14.5 29.3-14.5h143.6c14.5 0 26.8 11.5 30 19.9l555.9 1270.8z"/>
			<path id="Layer" class="s0" d="m1322.1 150.5l-530.2 1180.9-526.3-1180.9c-5.1-11.3-4.8-23 1-32.1 5.8-9.2 16.5-14.5 29.2-14.5h143.7c14.5 0 26.8 11.5 30 19.8l324.4 741.4 324.4-741.7c3.8-9.4 14.8-19.7 30.1-19.7h143.6c12.9 0 23.4 5.4 29.3 14.7 5.7 9.1 6 20.9 0.8 32.1z"/>
		</g>
	</g>
</svg>