<svg version="1.2" xmlns="http://www.w3.org/2000/svg" viewBox="0 0 1554 418" width="1554" height="418">
	<title>vistagen-svg</title>
	<style>
		.s0 { fill: #1a86ea } 
	</style>
	<path id="Layer" fill-rule="evenodd" class="s0" d="m1042.5 273.2c47.1 0 73.4 19.5 73.4 56.8 0 52.6-59.9 87.5-120.5 87.5-51.4 0-96-16.5-96-50.8 0-25.7 31.2-44.6 63-48.9-22.7-1.2-48.4-15.9-48.4-41 0-23.8 25.7-40.9 51.4-45.8-26.3-11-45.8-33.7-45.8-63 0-44.1 41.6-72.2 83.8-72.2 17.7 0 37.3 7.3 51.4 11.6 1.8 0.6 0.6 0 2.4 0.6 12.2 4.3 22.6 3.1 25.7-8.5 1.8-8 8-14.1 16.5-16.5 11-3.1 22 2.4 26.9 11.6 0.7 1.2 1.3 2.4 1.9 4.3 3.7 12.8-2.5 26.3-18.4 31.1-12.2 3.7-37.9-10.4-55.6-18.3 17.1 10.4 32.4 32.4 32.4 55.7 0 42.8-39.8 70.3-82 70.3-11 0-21.4-1.8-29.4-4.3-12.8 3.7-28.7 10.4-28.7 21.4 0 11.6 11 17.1 30.6 17.1h65.4zm-39.1-171.2c-23.3 0-31.8 28.1-31.8 67.3 0 39.7 8.5 64.8 31.8 64.8 22.6 0 31.2-28.1 31.2-66.7 0-40.3-8.6-65.4-31.2-65.4zm0 305.2c37.9 0 72.2-19.6 72.2-53.8 0-23.9-17.8-35.5-54.5-35.5l-43.4-0.6c-14.1 1.8-31.8 16.5-31.8 42.8 0 31.2 26.9 47.1 57.5 47.1zm550-105.8c0 1.2-1.2 2.4-3.1 2.4-14-1.2-35.5-1.8-50.8-1.8-15.2 0-36.7 1.2-50.7 1.8-1.9 0.6-3.1-0.6-3.1-2.4 0-1.3 1.2-2.5 2.5-2.5 22.6-3 26.3-6.1 26.3-10.4v-108.8c0-30.6-12.9-47.1-36.7-47.1-18.4 0-34.9 11.6-41 32.4-1.9 6.7-2.5 13.4-2.5 23.2v101.5c0 4.3 3.7 7.4 26.9 10.4 1.3 0 2.5 1.3 2.5 2.5 0 1.2-1.2 2.4-3.1 2.4-14-1.2-35.5-1.8-50.8-1.8-15.3 0-36.7 1.2-50.7 1.8-1.9 0.7-3.1-0.6-3.1-2.4 0-1.2 1.2-2.5 2.5-2.5 22.6-3 26.3-6.1 26.3-10.4v-141.8c0-4.9-4.3-12.3-27-15.9-1.2-0.7-2.4-1.9-2.4-3.1 0-1.8 1.2-3.1 2.4-3.1 30-3 58.8-15.9 71.6-30.5 0.6-0.6 1.2-1.3 2.5-1.3 2.4 0 3.6 1.9 3.6 3.7l-1.8 56.9c11-26.9 38.5-57.5 74.6-57.5 33.7 0 54.5 25.1 54.5 64.2v128.4c0 4.3 3.7 7.4 26.9 10.4 1.2 0 2.5 1.3 3.7 1.3zm-1168.6 0.6c0 1.2-1.2 2.4-3 2.4-14.1-1.2-35.5-1.8-50.8-1.8-15.3 0-36.7 1.2-50.8 1.8-1.8 0.6-3-0.6-3-2.4 0-1.2 1.2-2.5 2.4-2.5 22.6-3 26.3-6.1 26.3-10.4v-141.9c0-4.8-3.7-12.8-20.8-15.9-1.2-0.6-2.4-1.8-2.4-3 0-1.8 1.2-3.1 2.4-3.1 29.4-3 55.7-15.9 65.5-30.5 0.6-0.7 1.2-1.3 2.4-1.3 1.9 0 3.1 1.9 3.1 3.7-0.6 18.3-1.2 41.6-1.2 74.6v118c0 4.3 3.6 7.4 26.9 10.4 1.8 0 2.4 1.3 3 1.9zm161.5-61.8c0 39.2-36.7 69.1-82.5 69.1-20.8 0-49-7.3-66.1-18.3-1.9-1.3-3.1-3.1-3.1-5.5l-1.8-53.2c0-1.9 1.2-3.1 2.4-3.1 1.9-0.6 3.1 0.6 3.7 1.8 11.6 43.5 34.3 71 68.5 71 22.7 0 39.2-11 39.2-36.1 0-56.9-104.6-33.6-104.6-105.8 0-37.3 34.2-64.2 74-64.2 20.8 0 41 6.1 53.2 13.4 1.9 1.3 3.1 3.1 3.1 5.5l3.6 49c0 1.2-0.6 2.4-1.8 3-1.8 0.6-3-0.6-3.7-1.8-11-36.7-31.8-61.2-61.1-61.2-21.5 0-34.3 10.4-34.3 30 0 53.2 110.7 34.9 111.3 106.4zm159.1 42.2c-14.7 14.1-41 28.8-69.1 28.8-31.8 0-51.4-19.6-51.4-44.1l0.6-143.1h-23.9c-1.8 0-3-1.2-3-3.1 0-1.2 0.6-2.4 1.8-3 23.9-11 56.3-37.9 68.5-63 0.7-1.2 1.9-1.8 3.1-1.8 1.8 0 3.1 1.2 3.1 3l-0.7 45.3h70.4l-6.7 20.8h-63.7v138.2c0 15.9 19.6 25.7 38 25.7 12.2 0 21.4-3.1 30-9.2q1.8-1.8 3.6 0c0.6 1.2 0.6 2.5-0.6 5.5zm602-49.5c1.3 0.6 2.5 1.8 1.9 3.6-11.6 39.2-44.1 73.4-93 73.4-56.9 0-99.7-42.8-99.7-101.5 0-56.3 44.6-111.3 102.7-111.3 49 0 80.2 31.8 80.2 74 0 2.4-1.8 4.3-4.3 4.3h-134.6v6.1c0 57.5 34.3 92.3 79.5 92.3 30 0 51.4-15.9 64.3-39.7 0-1.2 1.8-1.8 3-1.2zm-99.7-129.1c-26.9 0-44 28.8-47.1 64.2l66.7-0.6c9.2-0.6 14.7-6.1 14.7-17.1 0-22.6-9.8-46.5-34.3-46.5zm-305.3 151.1c1.2 0 2.5 1.2 2.5 2.4-1.9 28.8-15.9 52-44.7 52-22.6 0-37.9-17.1-40.4-40.3-11 19.5-33 39.7-59.3 39.7-25.7 0-44.1-18.3-44.1-41.6 0-40.3 48.4-60.5 104-67.9 0.7-7.9 0.7-32.4 0.7-44.6 0-25.7-19.6-41.6-46.5-41.6-17.8 0-24.5 9.8-24.5 17.1 0 4.9 3.7 8.6 11 12.9 7.9 4.2 12.8 12.8 12.8 22.6 0 12.8-9.1 23.2-20.8 25.1-1.2 0.6-3 0.6-4.9 0.6-14.6 0-27.5-11-27.5-30 0-34.2 42.8-64.8 86.3-64.8 42.8 0 61.8 20.8 61.8 57.5 0 31.2-2.5 83.2-2.5 103.3 0 13.5 6.8 19.6 14.7 19.6 11 0 17.1-7.3 18.4-19.6 0.6-1.8 1.8-2.4 3-2.4zm-82.6-48.9c-30 5.5-51.4 20.1-51.4 43.4 0 17.1 9.8 25.7 23.9 25.7 12.2 0 20.8-6.8 26.3-14.1zm-529.2-168.2c-6.7 8.6-12.2 26.3-12.2 26.3 0 0-64.3 190.2-70.4 208-10.4 30.5-22.6 37.3-41.6 37.3-19 0-31.2-8-42.2-38.6l-83.2-231.1c-6.8-18.4-14.7-22.7-38.6-24.5-1.2 0-2.4-1.2-2.4-2.5 0-1.2 1.2-2.4 2.4-3 13.5 0.6 36.7 1.2 57.5 1.2 20.8 0 52.6-0.6 66.7-1.2 1.9 0 3.1 1.2 3.1 2.4 0 1.9-1.2 3.1-2.5 3.1-21.4 1.8-33 9.8-28.7 22l82.6 236.1c3 7.9 14 7.9 16.5 0 18.3-55.7 63.6-190.8 70.3-210.4 6.2-19 20.9-62.4 58.8-62.4 18.3 0 33.6 15.3 33.6 33.6 0 18.4-14.7 33.7-33.6 33.7-16.5 0-30.6-12.2-33.1-28.8-0.6-2.4-2.4-3-3-1.2z"/>
</svg>