<svg version="1.2" xmlns="http://www.w3.org/2000/svg" viewBox="0 0 1601 440" width="1601" height="440">
	<title>logo-header (1)-svg</title>
	<style>
		.s0 { fill: #0065a4 } 
		.s1 { fill: #e80000 } 
		.s2 { fill: #ffffff } 
	</style>
	<path id="Layer" class="s0" d="m439.3 78.7l-18.6 51.1c-4.8 13-19.2 23.6-32.2 23.6h-144l18.6-51.1h144c13.1-0.8 27.4-10.6 32.2-23.6z" />
	<path id="Layer" class="s1" d="m414.9 145.5l-18.6 51.1c-4.7 13-19.1 23.5-32.1 23.5h-144.1l18.6-51h144.1c13.2-0.6 27.4-10.6 32.1-23.6z" />
	<path id="Layer" class="s0" d="m1 361.6l18.6-51.1c4.7-13 19.1-23.6 32.2-23.6h144l-18.6 51.1h-144.1c-13 0.8-27.4 10.6-32.1 23.6z" />
	<path id="Layer" class="s1" d="m25.3 294.8l18.6-51.1c4.7-13 19.2-23.6 32.2-23.6h144l-18.6 51.1h-144c-13.2 0.6-27.5 10.6-32.2 23.6z" />
	<path id="Layer" class="s1" d="m78.7 1l51 18.6c13.1 4.7 23.6 19.1 23.6 32.2v144l-51-18.6v-144.1c-0.8-13-10.6-27.4-23.6-32.1z" />
	<path id="Layer" class="s0" d="m145.5 25.3l51 18.6c13.1 4.7 23.6 19.2 23.6 32.2v144.1l-51.1-18.7v-144c-0.5-13.2-10.5-27.5-23.5-32.2z" />
	<path id="Layer" class="s1" d="m361.6 439.3l-51.1-18.6c-13-4.8-23.6-19.2-23.6-32.2v-144l51.1 18.6v144c0.8 13.1 10.6 27.5 23.6 32.2z" />
	<path id="Layer" class="s0" d="m294.8 414.9l-51.1-18.5c-13-4.8-23.6-19.2-23.6-32.2v-144.1l51.1 18.6v144.1c0.6 13.2 10.6 27.4 23.6 32.1z" />
	<g id="Layer">
		<path id="Layer" fill-rule="evenodd" class="s2" d="m1161.5 371.2q4.3 7.8 10.1 14.7l0.1 0.2c-11.2 15.2-29.4 22.6-46.9 22.6c-26.1 0-51-16-51-46.5v-105.3h-28.6l79.9-71.4v47.6h48.7c0 0-6.2 23.8-26 23.8h-22.7v103.1c0 11.5 6.4 19.7 16.4 19.7c5.6 0 12.6-2.6 20-8.5zm-451.6-42.1c0 43.2-42.4 73.7-96.4 73.7h-94.5v-233.7c0-10.4-5.6-20.1-13.8-26.1h110.9c45.1 0 77.4 27.6 77.4 62.9c0 23.8-17.1 46.9-50.2 56.2c39 7.1 66.6 34.3 66.6 67zm-135.9-74.8h16c27.6 0 47.3-19.3 47.3-43.5c0-28.7-18.2-43.9-47.3-43.9h-16zm76.7 74c0-29.7-23.4-50.2-52.5-50.2h-24.2v100.5h24.2c28.7 0 52.5-20.2 52.5-50.3zm202-152.2c0-15.6 12.7-28.6 28.7-28.6c15.6 0 28.6 13 28.6 28.6c0 16-13 29.1-28.6 29.1c-16 0-28.7-13.1-28.7-29.1zm55.1 226.7h-51v-151.5c0-8.6-2.6-13.8-8.9-18.3h59.9v151zm-69.5-118c-6-12.3-18.3-19-30.9-19c-13.4 0-27.6 7.8-33.5 24.6v112.4h-51v-151.5c0-8.5-2.6-13.7-8.9-18.2h33.8c15.3 0 23.5 8.2 26.1 20.5c9.3-18.3 23.8-25.7 37.2-25.7c10.4 0 20.5 4.5 27.2 12.3zm208.3 66.3c0 39.8-38.7 56.9-73 56.9c-15.6 0-30.8-3.7-39.8-7.1v-44.6c6.7 18.9 21.2 27.5 39.8 27.5c13 0 27.2-4.5 27.2-18.2c0-11.6-8.6-19.4-30.9-28c-29.4-11.5-45.4-30.1-45.4-56.5c0-38.4 34.3-53.2 67.7-53.2c14.2 0 33.2 3.3 44.3 8.2v42.4c-8.6-15.3-25.7-26.4-43.9-26.4c-11.2 0-27.5 3.3-27.5 17.5c0 10.4 8.9 16 26 23c38.3 16 55.5 32.8 55.5 58.5zm309.2-33.2c0 49.9-42.4 90.8-94.5 90.8c-52.5 0-94.5-40.9-94.5-90.8c0-49.8 42-89.7 94.5-89.7c52.1 0 94.5 39.9 94.5 89.7zm-53.2 6.3c0-24.9-13.8-70.7-45.4-70.7c-21.5 0-37.5 25.3-37.5 58.1c0 25 14.1 71.8 45.7 71.8c21.2 0 37.2-26 37.2-59.2zm264.9-91.1q0 0 0 0q0 0 0 0zm0 0c0.2 0 33.5 0 33.5 0l-3.7 9q-0.1 0.2-0.2 0.4l-74.8 166.3l-48.8-99l-49.1 99l-72.7-162.1h-0.1c-1.6-3.8-3.1-5.5-4.4-7.2c-1.8-2.5-4.3-4.5-6.6-6.4h36.9c17 1 28.3 9.8 34.3 23.8l29 67.7l47.6-96.7l47.6 96.3l33.9-79.2c0.8-1.9 1.1-4.3 1.1-6.2c0-2.2-0.9-3.4-3.5-5.7z" />
	</g>
</svg>