<svg version="1.2" xmlns="http://www.w3.org/2000/svg" viewBox="0 0 1409 1542" width="1409" height="1542">
	<title>original-c0737b7d-cacc-474a-9b90-5a73f6a0bcc6-svg</title>
	<style>
		.s0 { fill: #532851 } 
	</style>
	<g id="#532851ff">
		<path id="Layer" class="s0" d="m0 10.6c85.4-2.2 170.6-8.8 256-10.5 30.1 143.8 71.1 284.9 113 425.4 91.2 297.2 187.4 593.9 315.1 877.7 13.6 0 27.2 0 40.9 0 79.3-170.7 139.7-349.2 200.9-526.9 84.4-256 166.5-513.3 226.3-776.3 85.5 2 170.6 8.2 256 10.7-89.5 375-207.8 742.9-343.4 1103.7-55.9 145.3-116.4 289.2-189.6 426.8-114.4-0.8-228.7 1.3-342.9-1-142.3-277.7-245.3-573.1-343.8-868.4-70-218.2-136.6-437.8-188.5-661.2z"/>
	</g>
</svg>