<svg version="1.2" baseProfile="tiny-ps" xmlns="http://www.w3.org/2000/svg" viewBox="0 0 1746 386" width="1746" height="386">
	<title>Vivint_logo_full_black_2020-svg</title>
	<style>
		tspan { white-space:pre }
		.shp0 { fill: #ffffff } 
	</style>
	<g id="Layer">
		<path id="Path_1_2_" fill-rule="evenodd" class="shp0" d="M416.47 293.44C440.89 293.44 460.42 312.99 460.42 337.43C460.42 361.86 440.89 381.41 416.47 381.41C392.06 381.41 372.52 361.86 372.52 337.43C371.83 313.69 391.36 294.14 416.47 293.44ZM175.1 0.19C179.29 0.19 182.77 1.59 185.56 4.38L339.04 148.21C345.32 153.8 348.8 162.17 348.8 170.55L348.8 366.05C348.8 374.43 341.83 381.41 333.46 381.41L16.05 381.41C7.67 381.41 0.7 374.43 0.7 366.05L0.7 170.55C0.7 162.17 4.19 153.8 10.46 148.21L164.64 4.38C167.43 1.59 170.91 0.19 175.1 0.19ZM74.64 189.41L74.64 308.1L275.56 308.1L275.56 189.41L175.1 95.15L74.64 189.41Z" />
		<path id="Path_3_2_" class="shp0" d="M808.53 0.19C832.95 0.19 852.48 19.74 852.48 44.18C852.48 68.61 832.95 88.16 808.53 88.16C784.11 88.16 764.58 68.61 764.58 44.18C763.88 20.44 783.42 0.19 808.53 0.19C807.83 0.19 807.83 0.19 808.53 0.19ZM1215.93 0.19C1240.35 0.19 1259.88 19.74 1259.88 44.18C1259.88 68.61 1240.35 88.16 1215.93 88.16C1191.52 88.16 1171.98 68.61 1171.98 44.18C1171.29 20.44 1190.82 0.19 1215.93 0.19C1215.24 0.19 1215.24 0.19 1215.93 0.19ZM771.56 111.21L844.81 111.21L844.81 382.11L771.56 382.11L771.56 111.21ZM1178.96 111.21L1252.21 111.21L1252.21 382.11L1178.96 382.11L1178.96 111.21ZM1370.8 382.11L1297.55 382.11L1297.55 111.21L1370.8 111.21L1370.8 141.23C1387.55 115.39 1418.94 104.22 1446.84 104.22C1513.81 104.22 1544.51 152.4 1544.51 211.75L1544.51 382.11L1471.26 382.11L1471.26 223.62C1471.26 193.59 1456.61 169.86 1421.03 169.86C1388.94 169.86 1370.11 194.29 1370.11 225.71L1370.8 382.11ZM460.42 111.21L567.85 382.11L641.1 382.11L748.54 111.21L668.31 111.21L604.13 293.44L539.95 111.21L460.42 111.21ZM867.83 111.21L975.26 382.11L1048.51 382.11L1155.94 111.21L1075.71 111.21L1011.53 293.44L947.35 111.21L867.83 111.21ZM1677.75 184.52L1677.75 289.25C1677.75 312.99 1691.01 320.67 1711.93 320.67C1723.1 320.67 1734.26 319.97 1745.42 317.18L1745.42 375.13C1737.75 378.62 1721 385.6 1691.7 385.6C1638.68 385.6 1605.9 354.18 1605.9 301.82L1605.9 184.52L1560.55 184.52L1560.55 111.21L1605.9 111.21L1605.9 31.61L1678.45 31.61L1678.45 111.21L1745.42 111.21L1745.42 184.52L1677.75 184.52Z" />
	</g>
</svg>