<svg version="1.2" xmlns="http://www.w3.org/2000/svg" viewBox="0 0 1483 659" width="1483" height="659">
	<title>vwe-logo-2017-svg</title>
	<style>
		.s0 { fill: #cf3403 } 
		.s1 { fill: #000000 } 
	</style>
	<g id="Layer">
		<path id="Layer" class="s0" d="m1474.9 315.4v140h-389.2v-9.1h71v-436.4h-35.5-35.5-21.8l-165.5 455.5h-16.3l-110-306.4h-1l-110.9 306.4h-17.3l-162.7-455.5h-52.8l-171.8 455.5h-16.4l-173.6-455.5h-57.3v-9.1h197.3v9.1h-70l140.9 370 140-370h-70v-9.1h75.5 62.7 130.1v9.1h-66.4l131.8 370h0.9l84.6-235.4-48.2-134.6h-53.6v-9.1h191.8v9.1h-70l131.8 370h0.9l133.7-370h-68.2v-9.1h100.9 35.5 329.1v110h-7.2c-5.5-16.3-11.9-30.9-18.2-43.6-6.4-12.7-13.7-22.7-22.7-31.8-9.1-8.2-19.1-14.6-31.9-19.1-11.8-4.6-27.2-6.4-44.5-6.4h-106.4v198.2h41.8c13.7 0 25.5-0.9 35.5-3.6 10-2.8 18.2-7.3 25.4-14.6 7.3-7.3 13.7-17.3 18.2-29.1 5.5-12.7 10-28.2 14.6-47.3h7.2v199.1h-7.2c-2.8-11.8-5.5-23.6-9.1-35.4-3.7-11.8-8.2-21.8-13.7-30.9-5.4-9.1-12.7-16.4-22.7-21.8-9.1-5.5-21.8-8.2-37.3-8.2h-51.8v230h120.9c22.8 0 42.8-5.5 58.2-15.5q23.2-15 38.2-35.4c10-13.7 17.3-28.2 21.8-42.8 4.6-15.4 8.2-27.2 9.1-37.2z"/>
		<g id="Layer">
			<path id="Layer" fill-rule="evenodd" class="s1" d="m36.5 656.3h-5.5l-30.9-64.6h6.4l27.2 56.4 27.3-56.4h6.4zm56.4-64.5h5.4v64.5h-5.4zm98.2 64.6h-5.5l-44.6-55.5v55.5h-5.4v-64.6h5.4l44.6 55.5v-55.5h5.5zm59.1 0h-5.5v-59.1h-24.5v-5.4h54.5v5.4h-24.5zm109.1 0h-6.4l-10.9-22.7h-32.7l-11 22.7h-6.3l30.9-64.5h5.5zm-33.7-58.2l-13.6 29.1h27.2zm116.4 40.9c0 8.2-9.1 19.1-29.1 19.1-20.9 0-35.4-14.5-35.4-33.6 0-20 16.3-33.7 35.4-33.7 14.6 0 22.8 7.3 26.4 11.8l-2.7 3.7c-3.7-2.7-9.1-10-22.8-10-19 0-30 13.6-30 27.3 0 14.5 11 27.2 29.1 27.2 15.5 0 22.8-7.2 22.8-12.7v-10.9h-22.8v-5.5h29.1zm81.9 17.3h-54.6v-64.5h52.7v5.4h-46.3v22.7h25.4v5.5h-25.4v24.5h48.2zm122.7 0h-5.4l-14.6-52.7-14.5 52.7h-6.4l-20.9-64.5h6.3l17.3 54.5 14.6-54.5h5.4l14.6 54.5 17.3-54.5h6.3zm45.5-64.5h5.4v64.5h-5.4zm98.2 64.5h-5.5l-44.5-55.4v55.4h-5.5v-64.5h5.5l44.5 55.5v-55.5h5.5zm34.5 0v-64.5h52.8v5.4h-46.4v22.7h25.5v5.5h-25.5v24.5h49.1v6.4zm123.7 0v-64.5h52.7v5.4h-46.4v22.7h25.5v5.5h-25.5v24.5h49.1v6.4zm117.3-36.4c14.6 0 21.8 8.2 21.8 18.2 0 9.1-7.2 20-30 20-19.1 0-27.3-9.1-31.8-12.7l3.6-4.6c4.6 3.7 10 11.9 27.3 11.9 13.7 0 24.6-4.6 24.6-13.7 0-5.4-5.5-11.8-16.4-11.8h-14.5c-9.1 0-20.1-3.6-20.1-15.4 0-8.2 7.3-19.1 27.3-19.1 15.5 0 22.8 7.2 26.4 9.1l-3.6 4.5c-5.5-3.6-11.9-7.3-22.8-7.3-16.3 0-21.8 8.2-21.8 12.8 0 8.1 7.3 10 14.6 10zm71.8 36.3h-5.5v-59.1h-24.5v-5.4h54.5v5.4h-24.5zm109.1 0h-6.4l-10.9-22.7h-32.7l-10.9 22.7h-7.3l30.9-64.5h5.5zm-33.7-58.2l-13.6 29.1h27.3zm74.5 58.2v-59.1h-24.5v-5.5h54.5v5.5h-24.5v59.1zm56.4 0v-64.6h52.7v5.5h-46.4v22.7h25.5v5.5h-25.5v24.5h49.1v6.4zm116.4-36.4c14.5 0 21.8 8.2 21.8 18.2 0 9.1-7.3 20-30 20-19.1 0-27.3-9.1-31.8-12.7l3.6-4.6c4.6 3.7 10 11.8 27.3 11.8 13.6 0 24.6-4.5 24.6-13.6 0-5.5-5.5-11.8-16.4-11.8h-14.6c-9 0-20-3.7-20-15.5 0-8.2 7.3-19.1 27.3-19.1 15.5 0 22.7 7.3 26.4 9.1l-3.7 4.6c-5.4-3.7-11.8-7.3-22.7-7.3-16.3 0-21.8 8.2-21.8 12.7 0 8.2 7.3 10 14.5 10z"/>
		</g>
	</g>
</svg>