<svg version="1.2" xmlns="http://www.w3.org/2000/svg" viewBox="0 0 1554 1554" width="1554" height="1554">
	<title>aedaf06c-26f8-482c-ac72-39774eab2c35-svg</title>
	<style>
		.s0 { fill: #474747 } 
		.s1 { fill: #fc5000 } 
	</style>
	<g id="#474747ff">
		<path id="Layer" class="s0" d="m465.6 92.7c25.3-45.1 66-91.1 121.6-92.5 126.2-0.2 252.4-0.1 378.6 0 54.4 0.6 95.2 44.6 120.5 88.6 50.3 88.6 71.5 190.2 88.8 289.8 6.4 40.1 11.7 80.5 15.8 120.9 6.5 59.8 10 120 12.8 180.1-38.4 8.4-77.2 14.3-116.2 18.7-1.7-72.3-6.9-144.6-15.3-216.5-4.8-39.7-10.7-79.4-18-118.8-13.9-70.8-30.2-142.3-63.2-207-8.3-14-15.8-30.5-30.4-39.1-76.8-1.5-153.7-0.1-230.6-0.6 34.6 73.1 53.3 152.5 68.7 231.6-39.4 1.2-78.9 0.7-118.3 2.4-12-58.8-26.1-117.5-50.3-172.6-9.8-22.2-21.7-43.7-38.6-61.3-21.5 22.3-34.8 50.7-46.2 79.1-21.1 54-34.3 110.6-45.2 167.5-7.4 39.4-13.3 79-18 118.8-8.5 71.6-13.4 143.6-15.5 215.7 3.7 0.7 11 1.9 14.6 2.5-43.9-4.8-87.6-10.9-130.8-20.4 3-60.1 6.4-120.3 12.9-180.1 4.1-40.4 9.5-80.7 15.8-120.9 17-98 38-197.9 86.5-285.9zm233.4 374.3c39-2.7 78.2-2.3 117.2-1 9.3 83.3 15.2 167 17.1 250.7q1.4 58.3 0.1 116.5c-1.8 85.1-7.8 170.1-17.3 254.7-39 1.2-78.1 1.6-117.1-1.1 10.6-84.1 16.1-168.9 17.9-253.7 0.8-38.8 0.7-77.6-0.1-116.4-1.9-83.5-7.4-166.8-17.8-249.7zm-350.1 331.8c38.9 6.4 77.9 11.6 116.8 17.8 1.3 85.3 6.3 170.7 16.4 255.4 4.7 39.8 10.6 79.5 18 118.8 11.5 59.8 25.4 119.5 48.6 175.8 10.6 25.5 23.5 50.4 42.4 70.8 19.5-19.3 31.9-44.5 42.6-69.5 21.9-52.7 35.4-108.5 46.7-164.3 39.4 1.5 78.9 1.1 118.3 2.3-15.4 79.1-34.1 158.4-68.7 231.6 73.1 0 146-0.1 219.1 0.2 18.5 3.1 27.1-16.3 35.7-28.9 37.7-67.1 54.5-143.2 69.4-218 7.3-39.4 13.2-79.1 18-118.8 9.9-84.8 15.2-170.1 16.2-255.4 38.9-6.2 78-11.4 117-17.8-1.4 85.3-5.4 170.6-14.5 255.5-4.1 40.4-9.5 80.7-15.8 120.9-14.3 85-32.8 170.2-67.8 249.2-18.7 40.4-41.8 80.9-78.4 107.5-19.8 14.4-44.1 22.7-68.6 21.9-124.3-0.2-248.7 0.1-373-0.2-55.6-1.3-96.3-47.3-121.7-92.4-48.5-88.1-69.5-187.9-86.5-286-6.3-40.2-11.7-80.5-15.8-120.9-9-84.9-13.2-170.2-14.4-255.5z"/>
	</g>
	<g id="#fc5000ff">
		<path id="Layer" class="s1" d="m500.1 363c59.9-6.6 120.1-10.4 180.3-12.7 39.4-1.7 78.9-1.2 118.3-2.4 85.2 2.1 170.6 5.8 255.5 15.1 7.3 39.4 13.2 79.1 18 118.8-85-10-170.5-15.8-256-15.8-39-1.3-78.2-1.7-117.2 1-72.4 1-144.9 6.1-216.9 14.8 4.7-39.8 10.6-79.4 18-118.8zm-332.4 68.1c68.3-25.1 139.8-40.4 211.4-52.5-6.3 40.2-11.7 80.5-15.8 120.9-60.9 12.3-122 26.1-179.4 50.4-24.1 10.4-47.5 22.8-66.8 40.8 19.2 19.8 44.4 31.9 69.4 42.8 52.6 21.7 108.1 35.5 163.9 46.1 43.2 9.5 86.9 15.6 130.8 20.4 78.1 10.4 156.9 14.3 235.6 16.7 0.8 38.8 0.9 77.6 0.1 116.4-84-1.7-167.7-8.4-251.2-16.5-38.9-6.2-77.9-11.4-116.8-17.8-79.1-15.6-158.5-34.3-231.7-68.9 0 75.2-0.2 150.3 0 225.5 0.2 13.7 15.6 19.9 25 27.2 67.5 39.5 145.3 55.9 221.1 71.7 4.1 40.4 9.5 80.7 15.8 120.9-87.5-15-175.5-33.9-256.5-71.4-39.8-19.2-79.8-43.3-104.3-81.3-11.8-18.3-18.2-40.1-17.6-61.9 0.1-124.5-0.1-248.9 0.1-373.3 0.4-34.9 20.4-66.4 45.8-89 35-30.9 77.9-50.9 121.1-67.2zm1007.4-52.5c92.6 16.1 186.2 35.9 270.8 78.4 50.8 26 105.9 68.2 107.6 130.6q0.3 189.1 0 378.3c-0.8 54.7-45.2 95.5-89.3 120.8-88.6 50.1-189.8 71-289.1 88.5 6.3-40.2 11.7-80.5 15.8-120.9 70.5-14.4 142-30.2 206.5-63.3 14.1-8.2 30.4-15.9 39.2-30.3 1.4-76.8 0.1-153.9 0.6-230.8-73.3 34.6-152.7 53.3-231.8 68.9-39 6.4-78.1 11.6-117 17.8-84.8 8.3-169.8 15-255 16.6q1.3-58.2-0.1-116.5c84.9-2.2 170-6.9 254.2-18.4 39-4.4 77.8-10.3 116.2-18.7 55.7-10.6 111.2-24.3 163.7-46.1 25.1-10.7 50.3-23.1 69.8-42.6-21-19.9-47.2-32.9-73.8-43.9-55.4-22.5-114-35.8-172.5-47.5-4.1-40.4-9.4-80.8-15.8-120.9zm-359 709.3c85.6 0 171.1-5.9 256.1-15.9-4.8 39.7-10.7 79.4-18 118.8-84.9 9.4-170.2 12.9-255.5 15.1-39.4-1.2-78.9-0.8-118.3-2.3-60.2-2.5-120.4-6.2-180.3-12.8-7.4-39.3-13.3-79-18-118.8 72 8.8 144.5 13.6 216.9 14.8 39 2.7 78.1 2.3 117.1 1.1z"/>
	</g>
</svg>