<svg version="1.2" xmlns="http://www.w3.org/2000/svg" viewBox="0 0 1945 447" width="1945" height="447">
	<title>VYNE-LOGO-with-trademark-svg</title>
	<style>
		.s0 { fill: #ee7623 } 
		.s1 { fill: #f8995c } 
		.s2 { fill: #5eb3e4 } 
		.s3 { fill: #8dc6eb } 
		.s4 { fill: #686f9a } 
		.s5 { fill: #00205c } 
		.s6 { fill: #fdbd50 } 
		.s7 { fill: #f5a800 } 
	</style>
	<g id="#ee7623ff">
		<path id="Layer" class="s0" d="m0.8 0.1c19.1 7.8 38 16 56.8 24.3 24.9 11.1 49.7 23.6 70.3 41.8 19.4 16.8 34.7 38.6 42.9 63 8.2 24.4 9.9 50.8 6.5 76.2-1.7 15.6-6.2 30.8-5.8 46.6-2.8-4.3-4.6-9.1-6.7-13.7-18-38.9-39.9-75.8-63.9-111.2-28.8-42.2-60.5-82.4-94.6-120.4-1.6-1.7-3.4-3.3-5.2-4.9 0-0.4-0.2-1.2-0.3-1.7z"/>
		<path id="Layer" class="s0" d="m410.5 0.7c25.4 0 50.7 0 76.1 0 27.4 73.8 54.9 147.7 82.4 221.6 27.2-73.9 54.6-147.8 82-221.6q37.2 0 74.4 0c-42.3 105.5-84.7 211-127 316.5q-30.4 0-60.9 0c-42.3-105.5-84.7-211-127-316.5zm388.4 0c26.9 0 53.8-0.1 80.7 0 25 42 50 84.1 75 126.1 25.4-42 50.7-84.1 76.1-126.1q39.2 0 78.4 0-40.9 64.2-81.9 128.5c-12.7 20.2-25.8 40.3-38.4 60.6-0.2 41.7 0 83.4-0.1 125.1q-34.6 0-69.1 0c-0.1-41.2 0.1-82.5-0.1-123.7-17-27.5-34.6-54.6-51.8-81.9q-34.4-54.3-68.8-108.6zm386.3 0q31.9 0 63.8 0c49.1 64.6 98.3 129.1 147.3 193.8-0.1-64.6-0.1-129.2-0.1-193.8q34.1 0 68.2 0 0 157.1 0 314.2c-19.7 0-39.3 0-59 0-50.6-66.6-101.3-133.1-152.1-199.6q0 99.8 0 199.6-34 0-68.1 0 0-157.1 0-314.2zm385.7 0q118.4 0 236.8 0c0 20.5 0.1 41 0 61.6-56.1-0.1-112.2 0-168.3-0.1q-0.1 32 0 63.9c49.3 0.1 98.8 0 148.1 0.1 0 20.4 0.1 40.8 0 61.2q-74.1 0-148.1 0-0.1 33.1 0 66.2 85.1 0 170.3 0 0 30.7 0 61.3-119.4 0-238.8 0 0-157.1 0-314.2zm279.5 7.2q0-3.6 0-7.2 18.7 0 37.4 0-0.1 3.6 0 7.2-7.1 0-14.2 0c-0.1 12.3 0 24.5-0.1 36.8q-4.3 0-8.5 0c-0.1-12.3 0-24.5 0-36.8q-7.3 0-14.6 0zm45-7.2q6.3 0 12.6 0 5.6 15.7 11.2 31.4c3.8-10.5 7.5-21 11.3-31.5q6.2 0.1 12.5 0.1 0 22 0 44-4 0-7.9 0c-0.2-11.7 0.2-23.5-0.2-35.2-3.9 11.8-8.1 23.5-12.1 35.2q-3.5 0-6.9 0-6.1-17.7-12.3-35.5c0.1 11.8 0 23.7 0.1 35.5q-4.2 0-8.3 0 0-22 0-44z"/>
	</g>
	<g id="#f8995cff">
		<path id="Layer" class="s1" d="m1.1 1.8c1.8 1.6 3.6 3.2 5.2 4.9 34.1 38 65.8 78.2 94.6 120.4 24 35.4 45.9 72.3 63.9 111.2 2.1 4.6 3.9 9.4 6.7 13.7-0.1 0.7-0.2 2.2-0.3 3-9.4-5-20.3-4.5-30.6-5.8-27.5-3.1-54.3-13.5-75.9-31-14.3-11.5-25.8-26.3-34.2-42.6-10.1-19.6-16.2-40.9-20.1-62.5-6.4-36.8-6.8-74.2-9.2-111.3z"/>
	</g>
	<g id="#5eb3e4ff">
		<path id="Layer" class="s2" d="m313.2 111.6c0.3-0.2 0.8-0.7 1.1-1-1.9 11.5-4.3 23-6.4 34.5-3.8 19.7-9 39.7-20.1 56.8-11.3 17.9-29.7 30.8-49.9 36.7-16 5.4-33 4.3-49.5 7 1.7-1.4 3.3-2.8 5-4.2 29.6-22.7 55.9-49.6 80-77.9 14-16.7 27.5-33.9 39.8-51.9z"/>
		<path id="Layer" fill-rule="evenodd" class="s2" d="m1517.3 371.1c7.6-2.6 16.1-2.5 23.8 0 6.6 2.2 12.1 6.8 16.9 11.6q-4.5 5-8.9 10c-3.8-3.3-7.5-6.8-12.3-8.7-7.5-3-16.8-1.7-22.9 3.8-10.9 9.6-10.8 28.7-0.3 38.6 7.1 6.7 18.7 7.5 26.9 2.3 3.4-2.2 6.1-5.2 9.2-7.9q4.5 4.5 8.9 9c-4.9 5.2-10.5 10.3-17.5 12.6-12.2 4.1-26.8 1.9-36.4-7.1-12.2-11-15-30.1-8.4-44.8 3.9-9 11.6-16.4 21-19.5zm-531.9-0.8q5.1 0 10.3 0c10.8 24.5 21.6 49 32.4 73.5-4.8 0-9.5 0-14.3 0-2.5-6-5-12-7.6-17.9q-15.8 0-31.7 0c-2.6 5.9-5.1 11.9-7.6 17.9q-7 0-13.9 0c10.8-24.5 21.6-49 32.4-73.5zm5.3 18.8q-5.3 12.1-10.6 24.2 10.4 0 20.9 0-5.2-12.1-10.3-24.2zm448.3-18.5q6.5 0 13.1 0c0.1 24.4 0 48.8 0.1 73.2q-6.7 0-13.3 0c0-24.4-0.1-48.8 0.1-73.2zm156 10.5c4.4-7.5 13.4-11.3 22-11.1 9.8-0.3 19.2 4 26.3 10.5q-3.8 5.3-7.6 10.6c-3.9-3.5-8.4-6.9-13.7-8-4.6-0.9-10-1-13.8 2.1-3.3 2.6-3.6 8.3 0 10.7 5.7 3.9 12.8 4.4 19.2 6.5 5.1 1.7 10.2 4.3 13.4 8.8 3.7 5.2 3.8 12.1 2.4 18.1-1.9 7.6-8.5 13.2-15.9 15.1-14.1 3.6-29.5-1.9-39.2-12.5q4.1-5 8.3-10c4.8 4.3 10 8.7 16.5 10 5.1 1 11.3 1.3 15.4-2.5 3.7-3.2 3.3-10.1-1.3-12.2-8.9-4.5-19.8-3.9-27.8-10.3-7.9-5.8-9.2-17.7-4.2-25.8zm-1019.1-10.5q28.4 0 56.9 0 0 6.5 0 12.9-10.9 0-21.8 0 0 30.2 0 60.3-6.7 0-13.3 0 0-30.1 0-60.3-10.9 0-21.8 0 0-6.4 0-12.9zm94.6 73.2q0-36.6 0-73.2 6.4 0 12.9 0 0 15.1 0 30.1 16 0 32.1 0 0-15 0-30.1 6.4 0 12.9 0 0 36.6 0 73.2-6.5 0-12.9 0 0-15.1 0-30.1-16.1 0-32.1-0.1 0 15.1 0 30.2-6.5 0-12.9 0zm100.6-73.2q26.4 0 52.9 0 0 6.5 0 12.9-19.9 0-39.7 0 0 8.6 0 17.2 17.7 0 35.4 0 0 6.3 0 12.6-17.7 0-35.4 0 0 8.8 0 17.6 20 0 40 0 0 6.4 0 12.9c-17.7 0-35.5 0-53.2 0-0.1-24.4 0-48.8 0-73.2zm92.2 73.2c0.1-24.4 0-48.8 0.1-73.2 10.2 0 20.4 0 30.6 0 7 0 14.5 1.9 19.8 6.8 9.5 8.5 8.9 25.5-0.9 33.5-2.3 2-5.1 3.2-7.8 4.5 6.9 9.4 13.8 18.9 20.8 28.4-5.5 0-10.9 0-16.3 0-6.2-8.8-12.5-17.4-18.8-26.2q-7.1 0-14.2 0 0 13.1 0 26.2-6.6 0-13.3 0zm13.3-60.3q0 10.8 0 21.5c5.8 0 11.6 0.1 17.5 0 4.5-0.1 9.6-1.7 12-5.8 2.2-4.1 1.6-10-2.3-12.9-3.1-2.4-7.1-2.8-10.8-2.8q-8.2 0-16.4 0zm187.2-12.9c9.4 0 18.8 0 28.2 0 7.4 0.1 15.2 2.4 20.4 8 9.7 10.4 7.4 29.6-5 36.9-9.1 5.7-20.2 4.3-30.4 4.4q0 12 0 23.9c-4.4 0-8.8 0-13.2-0.1 0-24.3 0-48.7 0-73.1zm13.2 12.9q0 11.9 0 23.9c7.6-0.6 15.9 1.5 22.8-2.4 7.2-3.9 7.1-15.9-0.2-19.5-7-3.3-15.1-1.5-22.6-2zm78.8-12.9q26.6 0 53.2 0 0 6.5 0 12.9-20 0-40 0 0 8.6 0 17.2c11.9 0 23.8 0 35.7 0q0 6.3 0 12.6-17.9 0-35.7 0 0 8.8 0 17.6 20.2 0 40.3 0 0 6.4 0 12.9c-17.8 0-35.7 0-53.5 0q-0.1-36.6 0-73.2zm91.3 0q6.6 0 13.2 0c0 14.2-0.1 28.4 0 42.5 0 6.6 2.4 14.2 8.9 17.1 5.9 2.6 13.2 2.3 18.5-1.4 4.8-3.6 6.3-10 6.3-15.7 0-14.2 0-28.3 0-42.5q6.6 0 13.3 0c-0.1 14.2 0 28.3-0.1 42.5-0.1 8.9-2.7 18.5-9.6 24.6-7.1 6.5-17.4 8-26.6 6.6-7.2-1.1-14-5-18.2-11-4.3-6.2-5.8-13.8-5.7-21.2q-0.1-20.7 0-41.5zm96.5 0q28.7 0 57.3 0 0 6.5 0 12.9c-7.4 0-14.8 0-22.2 0q0 30.2 0 60.3c-4.3 0-8.6 0-12.9-0.1 0-20 0-40.1 0-60.2q-11.1 0-22.2 0 0-6.4 0-12.9z"/>
	</g>
	<g id="#8dc6ebff">
		<path id="Layer" class="s3" d="m263 126.9c16.6-5.5 33.3-10.6 50.2-15.3-12.3 18-25.8 35.2-39.8 51.9-24.2 28.3-50.4 55.2-80 77.9-1.7 1.4-3.3 2.8-5 4.2-0.6 0.1-1.7 0.3-2.3 0.4 1.4-6.6-0.5-13.3-0.9-19.9-1.7-20.5 2.8-42 15.2-58.6 15.3-20.5 39.1-32.3 62.6-40.6z"/>
	</g>
	<g id="#686f9aff">
		<path id="Layer" class="s4" d="m209.8 256.8c29.4-5.5 60.9-2.1 87.6 11.7 23.1 11.9 41.1 31.6 54.8 53.3 13.1 20.5 22.6 43 31.4 65.6q9.9 26.2 19.3 52.6 0.6 1.5 1.5 2.8 0.4 1.2 0.8 2.4c-2.1-1.7-4.8-1-7.3-1.4-8.6-1-17.3-1.6-26-2.7 9.6 0.4 19.2 1.8 28.8 2.5q0.9-0.8 1.9-1.8c-11-5.4-21.2-12.5-31.6-18.9-34.7-22.3-68.2-46.5-100.1-72.7-32.6-26.9-63.6-55.9-90.9-88.2 0.2 1 0.5 2.9 0.6 3.9-0.6-1.8-1-3.7-1.5-5.6 10.4 1.7 20.6-1.8 30.7-3.5z"/>
	</g>
	<g id="#00205cff">
		<path id="Layer" class="s5" d="m180 262c27.3 32.3 58.3 61.3 90.9 88.2 31.9 26.2 65.4 50.4 100.1 72.7 10.4 6.4 20.6 13.5 31.6 18.9q-1 1-1.9 1.8c-9.6-0.7-19.2-2.1-28.8-2.5-22.8-2.2-45.7-4.5-68.1-9.8-25.2-5.9-49.7-16.6-69.2-34-21.4-18.6-35.7-44.4-43.1-71.7-4.8-16.1-6-33-8.4-49.6-0.4-3.4-1.5-6.7-2.5-10.1-0.1-1-0.4-2.9-0.6-3.9z"/>
	</g>
	<g id="#fdbd50ff">
		<path id="Layer" class="s6" d="m165.2 266.3c0.3-0.1 0.8-0.3 1.1-0.4 0.2 7.9 4.4 14.9 6.5 22.3 5.2 16.4 6.1 34.3 1.2 50.8-4.5 15.5-13.9 29.3-25.5 40.5-21.4 20.7-48.1 34.4-73.1 50.1q-0.2-2-0.4-3.9c0.3 0.5 0.9 1.5 1.3 2 1.2-0.1 1.1-1.9 1.7-2.7 5.9-16 12.7-31.6 19.8-47.1 15.8-33.6 34-66.2 55.9-96.2 3.7-5.2 8.1-10 11.5-15.4z"/>
	</g>
	<g id="#f5a800ff">
		<path id="Layer" class="s7" d="m145 274.1c6.8-2.4 13.9-4.1 20.2-7.8-3.4 5.4-7.8 10.2-11.5 15.4-21.9 30-40.1 62.6-55.9 96.2-7.1 15.5-13.9 31.1-19.8 47.1-0.6 0.8-0.5 2.6-1.8 2.7-0.3-0.5-0.9-1.5-1.2-2-1.4-23-3.9-46.2-1.2-69.2 2.5-20.9 11-41.6 26.4-56.4 12.4-12.3 28.2-20.7 44.8-26.1z"/>
	</g>
</svg>