<svg version="1.2" baseProfile="tiny-ps" xmlns="http://www.w3.org/2000/svg" viewBox="0 0 1582 378" width="1582" height="378">
	<title>vizio-logo-white-svg</title>
	<style>
		tspan { white-space:pre }
		.shp0 { fill: #ffffff;stroke: #ffffff;stroke-width: 0.482 } 
	</style>
	<g id="Layer">
		<path id="Layer" fill-rule="evenodd" class="shp0" d="M312.93 1.21L380.8 1.21L380.8 136.25C380.8 156.65 372.12 173.14 362.43 189.63L275.77 335.76C267.81 349.22 255.42 360.16 239.85 367.49C225.54 374.19 208.86 377.76 191.7 377.76C154.68 377.76 122.05 361.66 106.58 335.76L17.26 186.49C9.59 174.1 0.48 155.35 0.48 136.25L0.48 1.21L68.83 1.21L68.83 141.65C68.88 142.67 69.89 146.14 70.42 147.34L160.71 301.24C165.67 309.73 177.91 315.22 191.94 315.22C205.97 315.22 218.21 309.73 223.18 301.24L310.33 149.95C311.58 147.29 312.83 142.67 312.93 141.56L312.93 1.21ZM448.09 0.67L517.02 0.67L517.02 374.63L448.09 374.63L448.09 0.67ZM608.46 61.04L608.46 0.67L981.78 0.67L981.78 5.69C981.78 28.64 980.58 46.86 978.02 63.16C975.08 81.92 970.22 97.88 963.28 111.86C955.61 127.19 945.54 140.11 932.38 151.3C918.64 163.01 901.91 172.56 881.19 180.56L693.39 252.26C679.75 257.56 670.54 264.79 664.47 274.97C658.83 284.46 655.5 297.05 654.15 314.26L981.78 314.26L981.78 374.63L584.4 374.63L584.4 369.61C584.4 349.02 584.65 327.28 586.72 307.75C588.84 287.65 592.55 271.88 598.43 258.14C604.94 242.86 614.19 230.18 626.73 219.28C639.69 208.04 656.27 198.59 677.48 190.45L863.06 118.75C876.13 113.79 887.45 105.78 895.84 95.56C903.94 85.68 909.19 74.11 911.51 61.04L608.46 61.04ZM1049.12 0.67L1118.05 0.67L1118.05 374.63L1049.12 374.63L1049.12 0.67ZM1581.66 110.6L1581.66 265.85C1581.66 294.88 1569.47 322.26 1547.29 342.9C1525.27 363.39 1496.15 374.67 1465.35 374.67L1301.66 374.67C1237.5 374.67 1185.34 325.35 1185.34 264.74L1185.34 110.6C1185.34 50 1237.5 0.67 1301.66 0.67L1465.35 0.67C1496.68 0.67 1525.84 11.72 1547.49 31.77C1569.56 52.22 1581.71 80.23 1581.66 110.6ZM1253.74 264.7C1253.74 276.99 1259.04 289.57 1268.2 299.12C1277.41 308.72 1289.65 314.21 1301.7 314.21L1465.4 314.21C1477.5 314.21 1489.69 308.72 1498.9 299.12C1508.11 289.57 1513.36 277.04 1513.36 264.7L1513.36 110.56C1513.36 98.26 1508.06 85.68 1498.9 76.13C1489.69 66.54 1477.45 61.04 1465.4 61.04L1301.7 61.04C1289.85 61.04 1277.7 66.58 1268.4 76.18C1259.09 85.77 1253.74 98.36 1253.74 110.6L1253.74 264.7Z" />
	</g>
</svg>