<svg version="1.2" xmlns="http://www.w3.org/2000/svg" viewBox="0 0 1544 189" width="1544" height="189">
	<title>603cdae04e59317678bc50fa_waldencast_logo_color-svg</title>
	<style>
		.s0 { fill: #ffffff } 
		.s1 { fill: #bcab98 } 
	</style>
	<g id="#ffffffff">
		<path id="Layer" fill-rule="evenodd" class="s0" d="m475.7 0h24.5q0 93 0 186-12.2 0-24.5 0 0-93 0-186zm163.7 0h24.4q0 93 0 186-10.5 0-21 0c-0.9-5.6-2-11.3-2.8-16.9-7.9 10-19.6 17.2-32.3 18.9-13.7 1.9-28.3-0.7-39.8-8.5-12.6-8.6-21.8-22-24.9-37-2.4-11.5-2.2-23.6 0.8-34.9 3.9-14.4 13.4-27.1 26.1-34.9 11.4-7 25.4-9.1 38.5-7.2 12.1 1.8 23.3 8.5 31 18q0-41.7 0-83.5zm-44.1 87.2c-10.8 2.1-19.9 9.8-24.9 19.4-4.8 9.3-5.8 20.3-3.6 30.4 2.2 10.3 8.8 19.6 17.7 25.1 8.3 5 18.7 6.1 28 3.9 11.3-2.6 20.6-11.2 25.2-21.6 3.5-7.9 4.1-16.8 2.9-25.3-1.7-11.8-9.1-22.7-19.7-28.5-7.7-4.2-17-5.2-25.6-3.4zm878.5-53.5q10.1 0.1 20.2 0 0 16.9 0 33.8 20.5 0 41.1 0 0 10.5 0 21-20.6 0-41.1 0 0 28.8 0 57.6c0.1 5.7 1.6 11.5 5.6 15.6 3.4 3.8 8.6 5.5 13.5 5.1 6.9-0.4 13.1-4.4 18-9q6.2 8.2 12.3 16.5c-8.9 9.1-21.6 14.5-34.3 14.3-8.7 0.1-17.8-2-24.7-7.5-7.3-5.5-11.9-14-13.6-22.9-1.7-7.6-1.2-15.5-1.3-23.2q0-23.2 0-46.5-12.5 0-25 0 0-9.9 0-19.8c8.7-0.3 17.4-1 26.2-1.2 0.9-11.3 2.1-22.5 3.1-33.8zm-1141 38.7c11.2-6.7 24.8-8.7 37.6-7 12.5 1.9 24 9 31.9 18.9q1.4-8.4 2.8-16.8 10.5 0 21 0 0 59.3 0 118.5c-7 0-14 0-21 0-0.9-5.6-1.9-11.2-2.8-16.9-8 10.2-20 17.4-32.9 19-12.7 1.6-26.1-0.6-37.1-7.3-13.3-8.2-23.1-21.8-26.7-36.9-2.4-10.8-2.5-22-0.3-32.8 3.3-16 13.5-30.4 27.5-38.7zm25 14.7c-9 1.7-17 7.4-22.2 14.8-7.2 9.9-8.9 23-6.5 34.7 1.9 10 8 18.9 16.4 24.6 8.7 5.9 20.1 7.2 30.2 4.6 10-2.6 18.3-9.9 23.1-18.9 4.7-8.6 5.6-18.9 4.1-28.4-1.8-11.2-8.8-21.4-18.4-27.2-8-4.7-17.7-6-26.7-4.2zm375.3-10.1c9.8-8 22.5-12.2 35.1-12.1 11.7-0.4 23.7 2.8 33.4 9.5 11.2 7.8 20.1 19.1 24.1 32.1 3.1 9.8 3.6 20.2 2.2 30.3q-46.8 0-93.5 0c2.6 12.7 12 23.8 24.2 28.5 8.1 3.1 17.1 2.8 25.4 0.8 8.1-2 15.4-6.5 21.5-12 4.8 5.4 9.7 10.6 14.5 16-9.4 8.6-21.1 14.9-33.7 17.2-14.3 2.6-29.6 1.6-42.7-5-10.8-5.4-19.9-14.1-26.1-24.4-8.3-14-9.8-31.2-6.3-46.8 3-13.5 11.1-25.6 21.9-34.1zm17.6 14.5c-8.3 5.7-13.9 14.7-16.1 24.4q34.7 0.1 69.4 0c-2.4-11.4-9.9-21.7-20.5-26.8-10.3-5.1-23.4-4.2-32.8 2.4zm165.8-25.6c8.5-1.8 17.6-1.4 25.9 1.2 8.9 2.7 16.6 8.8 21.5 16.7 6.2 9.7 8.3 21.6 8.1 33q-0.1 34.6-0.1 69.2-12.1 0-24.2 0 0-33 0-66.1c-0.1-8.5-1.6-17.6-7.3-24.3-4.7-5.9-12.4-8.8-19.8-8.7-10.1-0.2-19.6 5.2-26.3 12.4-2.7 3.1-5.6 6.2-7.3 9.9-0.1 25.6 0 51.2 0 76.8q-12.2 0-24.3 0 0-59.2 0-118.5 10.5 0 20.9 0 1.7 8.9 3.4 17.9c7.3-9.5 17.7-16.8 29.5-19.5zm141.1 1.9c12.3-3.8 25.7-4 38-0.6 10 2.8 19.2 8.1 26.8 15-5.1 5.5-10.3 10.8-15.5 16.1-4.1-3.5-8.4-6.6-13.3-8.7-10-4.3-21.8-4.4-31.7 0.2-10.9 5.3-18.7 16.2-20.8 28.2-2 11.1-0.4 23.1 6 32.5 4.2 6 9.8 11.2 16.6 13.9 11.6 4.7 25.4 3 35.9-3.6 3.6-2.2 6.9-4.9 10-7.8 5.1 5.4 10.3 10.7 15.5 16-9.5 10-22.3 16.8-35.9 18.8-15.5 2.3-32.1 0.1-45.4-8.5-13.4-8.5-23.4-22.3-26.4-38-3.1-15.6-1.5-32.6 6.6-46.5 7.4-12.6 19.5-22.7 33.6-27zm142.4-1.2c13.1-3.2 27.7-2.4 39.7 4.3 6.2 3.3 11.5 8.1 15.9 13.5 0.9-5.7 1.8-11.3 2.8-16.9q10.5 0 20.9 0 0 59.3 0 118.5c-7 0-13.9 0-20.9 0-0.9-5.6-1.9-11.3-2.9-16.9-7.7 9.8-19 16.9-31.4 18.8-15.1 2.3-31.2-1-43.3-10.4-12-9.1-20.3-22.8-22.8-37.7-2.4-14.8-1-30.6 6.1-44.1 7.4-14 20.4-25.2 35.9-29.1zm10.8 20.6c-14.6 2.9-25.9 15.8-28.6 30.2-2.7 13.7 0.5 29 10.7 39 12.5 13.3 35.5 14.2 49.3 2.6 10.6-8.5 15.8-22.6 14.5-36-0.7-12.5-7.6-24.5-18.2-31.2-8.1-5.2-18.3-6.5-27.7-4.6zm133.9-16.5c7.9-4.5 17.2-6 26.1-5.8 14.5-0.1 29 4.8 40.4 13.9-4.1 5.7-8.3 11.4-12.4 17.1-9.6-8-22.6-13.5-35.3-11-4.6 0.9-9.2 3.5-11.2 7.9-1.7 3.9-1.2 8.8 1.6 12.2 2.8 3.4 7 5.1 11 6.7 8 3.3 16.5 4.8 24.4 8.1 6 2.5 11.9 5.7 16.7 10.3 12.9 12.4 12 35.8-1.6 47.3-9.7 8.7-23.2 11.5-35.9 11.2-17 0-33.6-6.9-46.4-18 4.2-5.7 8.4-11.4 12.6-17.1 6.8 6.3 14.7 11.6 23.6 13.9 7.1 1.9 14.8 2.2 21.9 0 4.2-1.4 8.3-4 10.4-8 1.9-3.9 2-8.9-0.5-12.6-1.7-2.4-4.3-4-6.9-5.2-7-3.3-14.4-5.1-21.7-7.5-8.9-3-17.9-6.8-24.7-13.4-8.2-8.1-10.2-20.9-7.3-31.7 2.2-7.9 8.2-14.3 15.2-18.3z"/>
		<path id="Layer" class="s0" d="m155.3 67.7q11.2 0 22.5 0c2.6 6.1 5.3 12.3 7.9 18.4q3.9-9.2 7.7-18.4 10.7 0 21.4 0c-5.7 13.5-11.5 27-17.2 40.5 7.5 17.7 14.9 35.5 22.4 53.3 13.2-31.3 26.5-62.5 39.7-93.8q12.1 0 24.1 0-25.6 59.8-51.2 119.5-12.5 0-25 0c-7.8-18.2-15.5-36.3-23.2-54.5-7.9 18.1-15.7 36.3-23.5 54.5-8.4 0-16.9 0-25.3 0-6.4-15.1-12.9-30.3-19.4-45.5-0.7-1.5-0.8-3.3-1-4.9 2.6-3.1 2.8-7.2 3.2-11 0-0.2 0.1-0.6 0.1-0.8 0.4-2.7 3.1-4.9 2.4-7.7-0.3-1.5-0.1-2.9 0.2-4.3q1.1-0.6 2.2-1.2c0.6-2.3 1.5-4.5 2.3-6.7 8.2 19.4 16.3 38.8 24.5 58.2q11.5-26.9 22.9-53.8-8.9-20.9-17.7-41.8z"/>
	</g>
	<g id="#bcab98ff">
		<path id="Layer" class="s1" d="m34.2 66.5q2.3-0.2 4.7-0.2 1.7 1.4 3.5 2.7c1.1 2 2.7 3.6 4.6 4.9 1.6 6.9 5.4 12.8 8.3 19.2-0.2 0.5-0.4 1.4-0.6 1.9 1.9 2.5 2.9 5.4 3.7 8.3 0.5 2.2 1.9 4.1 2.5 6.4 0.8 2.9 2.7 5.5 3.6 8.4 1.4 5.3 3.6 10.4 5 15.8 0.3 0.2 1 0.7 1.3 1-0.1 0.1-0.4 0.5-0.5 0.7 1.4 1.8 1.8 4.1 2.9 6.1 0.5 2.6 1.8 4.9 2.5 7.5 0.2 1.6 1.9 2.1 3.2 2.6 1 2.2 0.7 5.8 3.4 6.8l-0.7 1.5c0.6-0.3 1.7-0.7 2.3-1q-1.8 1.6-1.7 3.9c0.4-0.4 1.3-1.3 1.8-1.8q-0.5 1.3-0.9 2.6 2.8 1.5 5.8 2.7c2-1.5 5-2.5 5.5-5.3 2-8 3.6-16.1 6.7-23.7 0-1.4-0.1-2.8 0.7-4 1.7-3.3 2-7.1 3.5-10.5 0.5-1.4 0.8-2.8 1.1-4.3 1.3-2.7 3.1-5.1 3.8-8.1 0.3 0.1 0.9 0.1 1.1 0.2l-1-0.7q0.2-1.1 0.5-2.3c1.9-2.2 2.8-4.9 3.2-7.7 1.5-3.9 2.1-8.2 4.6-11.7 2.2-5.4 3.1-11.4 5.3-16.8 0.9-1.5 1.7-3.4 3.5-3.7 1.5-0.4 2.8 0.7 4.2 0.9q-0.4 1.6-0.7 3.2c-0.4 0.3-1.1 1-1.4 1.3 0.4 0.2 1.1 0.6 1.5 0.9 0.9 2.4-1.2 5.2 0.3 7.4-0.3 2.1-0.6 4.3-0.6 6.5 0.1 2.7-1.8 4.7-2.4 7.2-0.7 0.6-1.7 1.1-0.5 2 0.4 1.9-0.1 3.7-0.5 5.5-0.4 0.2-1.2 0.5-1.6 0.7-0.7 2.7-1.6 5.4-2.6 8.1q-1.1 0.6-2.2 1.1c-0.5 2-0.3 4.2-0.1 6.2-0.9 2-2 3.9-2.3 6.1 0 0.2-0.1 0.6-0.1 0.8-0.7 3.7-0.8 7.7-3.3 10.8 0.1 2.6-1.4 4.8-2.3 7.1 1.2 1.2 0.9 2.7 0.6 4.1-0.4 2 0.2 4.1-0.2 6.1-1.2 3.6-2.2 7.3-3.3 11l-0.6-0.2c-2.7 2.6-2.4 6.7-3.1 10.1-1 4.4-3.1 9.1-7.3 11.3-4 1-8.3 1.2-12.4 1.6-3.9 0.4-7.6-1.5-11.3-2.2-2.4-6.7-6.3-12.7-9.7-18.9 0.2-1.1 0-2.2-0.1-3.3-0.4-0.2-1.2-0.7-1.6-0.9-0.9-2.9-1.9-5.9-2.8-8.8q-0.8-0.9-1.6-1.7c0.2-0.8 0.5-1.6 0.1-2.4-1-3-2.8-5.7-4.3-8.4-0.3-4.7-3.2-8.6-4.6-12.9-2.3-4.3-2.3-9.4-4.7-13.6-1.1-2.3-1.8-4.7-2.9-7-1.4-2.7-2.4-5.6-3.6-8.3-2.8 8.1-5.7 16.1-8.4 24.2-1.4 5.6-3.4 11.1-5.6 16.4-1.2 2.3-2.7 4.5-3.2 7.1-3.3 6.3-5.9 13.1-9.3 19.4-1.4 2.5-2.6 5.2-3.5 8-2.2 1.4-1.8 4.5-3.5 6.4-0.4 0-1.2 0.1-1.6 0.1 0.3 1.8 0 3.5-0.4 5.2q-1.6-0.4-3.2-0.7c0.1-0.4 0.3-1.2 0.5-1.6-1.2-3.7-0.3-7.6 0.2-11.4 1.5-8.6 3.7-16.9 5.9-25.3 4.5-16.4 9.6-32.6 14.9-48.7 0.7-2.3 1.8-4.4 2.7-6.5q-0.4-1.1-0.8-2.2c0.4 0.2 1.2 0.6 1.6 0.8 1.3-5 3-10 4-15.1 1.8-2.9 2.8-6.1 4.5-8.9z"/>
	</g>
</svg>