<svg version="1.2" xmlns="http://www.w3.org/2000/svg" viewBox="0 0 1594 1292" width="1594" height="1292">
	<title>weiboo-svg</title>
	<style>
		.s0 { fill: #ffffff } 
	</style>
	<g id="Layer">
		<g id="Layer">
			<path id="Layer" fill-rule="evenodd" class="s0" d="m1390.6 839.4c0 200-288.2 451.8-721.5 451.8-330.5 0-668.4-160.3-668.4-423.8 0-137.7 87.3-297.1 237.6-447.5 200.6-200.6 434.7-292 522.7-203.9 38.8 38.8 42.6 106 17.6 186.2-13 40.4 37.9 18.1 37.9 18.1 162.2-67.9 303.7-71.9 355.5 2 27.5 39.4 24.9 94.6-0.5 158.6-11.8 29.6 3.6 34.1 26 40.8 91.4 28.4 193.1 96.9 193.1 217.7zm-274-3.6c-17.2-173.2-244.8-292.4-508.6-266.3-263.7 26.1-463.7 187.6-446.6 360.8 17.2 173.2 244.9 292.4 508.6 266.4 263.8-26.1 463.6-187.6 446.6-360.9z"/>
			<path id="Layer" class="s0" d="m1485.3 139.5c-104.7-116.1-259-160.3-401.5-130-33 7.1-54 39.5-47 72.4 7 33 39.5 54 72.4 46.9 101.4-21.5 211.1 10 285.5 92.4 74.2 82.5 94.5 194.9 62.6 293.5-10.3 32.1 7.2 66.4 39.3 76.8 32.1 10.4 66.5-7.2 76.9-39.2v-0.2c44.7-138.7 16.4-296.7-88.2-412.6z"/>
			<path id="Layer" class="s0" d="m1324.5 284.5c-50.9-56.5-126-78-195.5-63.2-28.3 6.1-46.5 34-40.3 62.4 6 28.3 33.9 46.5 62.2 40.3v0.1c34-7.2 70.7 3.2 95.6 30.8 25 27.6 31.7 65.3 20.9 98.3h0.1c-8.9 27.6 6.2 57.2 33.8 66.2 27.6 8.8 57.2-6.3 66.1-33.9 21.8-67.5 8.2-144.5-42.9-201z"/>
			<path id="Layer" fill-rule="evenodd" class="s0" d="m839.5 978c-53.9 121.8-208.7 186.7-340 144.4-126.8-41-180.5-166.3-125-279 54.5-110.7 196.4-173.3 321.8-140.6 129.9 33.6 196.2 156.2 143.2 275.2zm-268.4-92.8c-40.9-17.1-93.7 0.5-118.9 40-25.5 39.7-13.5 87 27 105.5 41.2 18.7 95.8 0.9 121.4-39.7 25-41.2 11.8-88.2-29.5-105.8zm100.6-41.7c-15.7-6.3-35.2 1.3-44.4 16.7-9 15.5-4.1 33.1 11.7 39.6 16 6.6 36.4-1 45.6-16.8 8.8-15.9 3.1-33.7-12.9-39.5z"/>
		</g>
	</g>
</svg>