<svg version="1.2" xmlns="http://www.w3.org/2000/svg" viewBox="0 0 1538 86" width="1538" height="86">
	<title>04d43d4220848d0fb8bea66b3bf51b04-svg</title>
	<style>
		.s0 { fill: #02264a } 
		.s1 { fill: #14bef0 } 
	</style>
	<path id="Layer" fill-rule="evenodd" class="s0" d="m60.7 29.8l0.1 0.3-0.1 0.6 0.2 0.6-19.4 52.5h-2.7l-19.6-54-5.5-14.7-4.1-11.9h-9.6v-1.4h33.8v1.4h-12.4l23.3 65.5 14.6-40.8zm0.2 0.4l0.2-0.8c-0.4-0.9-0.9-1.4-1.3-1.9v0.5l-4.6-12.8-4.1-11.9h-9.6v-1.4h33.8v1.4h-12.3l23.2 65.5 23.7-65.5h-12.3v-1.4h24.2v1.8h-10l-29.2 80.6h-2.8l-18.9-52.9 0.2-0.7zm507.5 34v-4.6h2.3v23.9h-73v-2.3h11.9v-77.4h-11.9v-2.3h67l1.9 20.1h-1.9c-1.3-9.6-2.7-11.9-7.3-14.6-4.1-2.3-10.5-3.2-21.9-3.2h-13.6v37.1h4.5c6 0 11.4-0.9 13.7-2.3 2.7-1.4 5-5.1 5-8.7v-3.7h2.3v30.7h-2.3v-4.1c0-4.6-2.3-7.8-6.4-9.2-2.2-0.4-6.3-0.9-12.3-0.9h-4.5v38.9h15c11.9 0 18.3-0.9 22.8-3.2 6.4-3.2 9.1-7.8 9.1-14.2zm-237.6-7.3h2.3v27h-72.5v-2.3h11.8v-77.4h-11.8v-2.3h37.4v1.9h-13.7v77.8h12.3c14.6 0 21.9-0.9 26.5-3.2 5.4-2.7 7.7-7.8 7.7-16.5zm-121.3 24.8h10.5v2.2h-35.6v-2.2h11.9l-9.1-24.8h-27.9l-5.4 15.6q-1.4 4.1-1.4 5.5c0 2.3 2.3 3.2 8.2 3.2h3.7v2.3h-25.6v-2.3h4.1c5 0 5.9-0.9 9.1-9.2l25.6-71.4h1.3zm-22.8-26.5l-13.6-36.2-12.8 36.2zm260.4 26.1h12.3v2.2h-39.7v-2.2h11.4l-31.9-38.5-1.3 1.4v37.5h12.7v2.3h-36.5v-2.3h11.9v-77.4h-11.9v-2.3h36.1v1.9h-12.3v38l30.5-27.5c3.7-3.2 5.9-6.4 5.9-7.8 0-1.8-1.3-2.3-5.9-2.3h-6.4v-2.3h34.7v1.9h-6.4c-3.2 0-5.5 0.4-7.7 1.8-4.6 2.7-11 7.8-16.9 13.3l-17.8 16zm971.4-65.5c5.5 7.4 8.7 17 8.7 27 0 11.5-4.1 22-11.8 30.3-7.3 7.3-16.9 11.9-26 11.9-11 0-23.3-6.9-30.1-17-5.1-7.3-7.8-16.5-7.8-25.6 0-11.9 4.6-22.5 12.8-30.2 7.7-7.8 16.8-11.9 26-11.9 9.1 0 20.9 6.4 28.2 15.5zm-5 26.6c0-26.6-8.6-40.3-25.1-40.3-15.5 0-24.1 14.6-24.1 40.3 0 27.5 8.2 41.2 24.1 41.2 16 0 25.1-13.7 25.1-41.2zm-105.8 19.7v-5.1h2.3v27.1h-72.1v-2.3h11.9v-77.4h-11.9v-2.3h37.4v1.8h-13.6v77.9h12.3c14.6 0 21.9-1 26.4-3.2 5.5-2.8 7.8-7.8 7.8-16.5zm229.4-37.6c0 13.8-12.8 23.4-31.9 23.4-5.5 0-9.2-0.5-13.3-2.3v36.2h12.3v2.3h-36v-2.3h11.9v-77.9h-11.9v-1.8h33.8c10 0 15 0.9 21.4 3.2q13.7 6.2 13.7 19.2zm-12.8 1.4c0-9.2-3.2-15.6-10-19.2-3.7-1.9-10.1-2.8-17.4-2.8-1.3 0-2.7 0-5 0.5v38.9c3.7 1.8 6.4 2.7 11 2.7 7.3 0 13.7-2.2 17.3-6.8 2.7-3.7 4.1-7.8 4.1-13.3zm-353-22v-1.8h26v1.8h-3.2c-8.2 0-8.2 0-8.2 10.1v70.1h-0.9l-60.2-76.5v61.3c0 11.9 0.4 12.9 9.1 12.9h3.2v2.3h-26.5v-2.3h4.2c5 0 6.3-0.5 7.2-3.7 0.5-1.4 0.5-1.8 0.5-9.2v-63.1l-2.3-1.4h-9.6v-2.3h25.1l47.5 60v-48.1c0-10.1-0.5-10.1-9.2-10.1zm-229.8 38.9c0 16.1-7.8 29.3-20.5 36.2-7.3 3.7-13.3 4.6-28.3 4.6h-32v-2.3h11.9v-77.4h-11.9v-1.8h30.2c14.5 0 16.8 0.4 22.8 1.8 16.8 5.1 27.8 20.2 27.8 38.9zm-13.7-0.9c0-19.7-7.8-32.5-23.3-36.6-5-1.4-8.2-1.4-20.5-1.4v77.4c8.2 0 10.5 0 14.1-0.5 10.1-0.9 18.7-5 23.3-11.4 4.6-6 6.4-15.1 6.4-27.5zm-238.1 38.9l0.9 1.9c-3.2 1.4-5.9 1.8-9.5 1.8-5.5 0-8.7-1.4-11.4-4.6-2.8-2.7-3.2-4.5-4.2-11.4l-1.3-11.5c-0.9-6.8-2.8-10-7.8-12.3-3.2-1.4-9.1-2.3-15.5-2.3h-4.5v39.4h12.7v2.3h-36.5v-2.3h11.9v-77.9h-11.9v-1.8h42c10 0 16.9 2.3 21 6.9 3.2 3.2 4.5 7.7 4.5 12.8 0 6.4-3.2 11.9-9.1 15.1-4.1 2.3-7.7 3.2-15.5 4.1 16.4 2.3 21 6.9 22.4 22.9l0.9 8.7c0.4 6.9 2.3 9.2 5.9 9.2 1.4 0.4 2.3 0 5-1zm-49.2-40.7c10.9 0 17.7-1.8 21.4-5.5 3.2-3.2 5-7.8 5-12.4 0-5.9-2.7-11.9-6.8-14.6-4.1-2.8-8.2-3.2-20.1-3.2h-4.6v36.2h5.1zm401.8-36.2v-1.9h27.8v1.9h-5c-5.5 0-6.9 1.8-6.9 10.1v41.6c0 11.9-2.2 18.3-8.2 23.4-5.4 4.6-12.3 6.4-22.8 6.4-14.1 0-23.2-2.8-28.7-9.2-3.2-3.6-4.1-6.8-4.1-17.8v-54.1h-11.9v-2.3h36.5v1.9h-12.8v54.9c0 11 1 14.2 4.6 17.9 4.1 4.1 10.9 6.4 19.2 6.4 9.5 0 16.8-3.2 21.4-9.2 3.2-4.5 4.1-8.7 4.1-17.8v-42.1c0-8.7-0.9-10.1-8.2-10.1z"/>
	<path id="Layer" fill-rule="evenodd" class="s1" d="m793.6 65.5l-0.9 0.9c-0.9 0.9-2.3 1.4-3.2 0l-6.4-6.4c-4.1 4.6-9.6 7.3-16.4 7.3-9.6 0-14.6-6.4-14.6-13.7 0-8.3 6.4-12.8 10.5-15.1l-1.9-1.9c-2.7-3.2-5-6.4-5-11 0-5.9 4.1-12.3 13.3-12.3 8.2 0 12.7 5 12.7 11.4 0 6.4-6.8 11.5-10.9 14.2l11.8 11.9c2.3-4.1 3.2-8.7 3.2-13.3 0-1.8 0.9-1.8 1.9-1.8h1.8c1.3 0 1.3 1.4 1.3 1.8 0 6-1.8 12-4.5 17l7.3 7.3c0.9 0.9 1.8 1.8 0 3.7zm-27.8-31.6l1.8 1.8c3.2-2.3 9.1-5.5 9.1-11 0-3.6-2.7-7.3-7.7-7.3-5.1 0-7.8 3.2-7.8 7.8-0.5 3.2 1.8 5.9 4.6 8.7zm13.6 22l-13.6-14.7c-3.2 2.3-8.2 6-8.2 11.9 0 5.5 4.5 9.2 9.5 9.2 5.5 0 9.6-2.3 12.3-6.4z"/>
</svg>