<svg version="1.2" xmlns="http://www.w3.org/2000/svg" viewBox="0 0 1015 1587" width="1015" height="1587">
	<title>weber-logo-svg</title>
	<style>
		.s0 { fill: #ed1d24 } 
	</style>
	<g id="Homepage">
		<g id="Header-&amp;-Footer">
			<g id="1440-/-footer-copy">
				<g id="weber-logo">
					<path id="Shape" fill-rule="evenodd" class="s0" d="m895.7 1352.7c65.5-0.2 118.7 52.1 118.9 116.8 0.1 64.7-52.8 117.2-118.4 117.4-65.5 0.2-118.7-52.2-118.9-116.8h-680.7l-47 110.8h-48.7l225.3-589.1c-36.5-12.3-58-27.4-58-43.8 0-22 35.7-38.6 93.7-50.7l44.4-119.1c-156.3-74.4-239-231.1-247.1-315-2.6-27.8-4.1-30.3-6.1-50.4-9.3-0.5-19.4 4-23.5-2.8-13.3-21.5-1.4-71.9 8.1-71.9h16c38-198.5 223.3-223.4 350.9-227.1-2.7-12.5-3.9-25.3-3.5-38.1q-0.4-6.9 0-13.7c-14.7-0.7-26.1-13.1-25.3-27.7 0.7-14.5 13.2-25.7 28-25 33.1-4.6 66.6-6.5 100-5.7 34.4-1.1 68.9 0.8 103 5.7 14.8 0 26.8 11.8 26.8 26.5 0 14.6-12 26.5-26.8 26.5h-3.5q0.6 6.7 0 13.4c0.4 13.5-1.3 27.1-4.9 40.1 125.3 10.6 290.9 53.3 331.5 225.1 2 8.3 15.4 5.4 18.8 5.4 3.5 0 20.6 59 0 69 0 0-15-2.5-12.7 9.5-0.5 15.5-2.3 30.9-5.2 46.1 0 75.3-93.4 249.1-255.3 320.1l39.5 110.6c50.4 12 81.2 28.3 81.2 47.8 0 15.2-18.3 29.2-49.6 40.9l130.5 366q9.2-1.5 18.6-1.4m-261.1-550.4c-41 11.6-83.5 17-126.1 16v60.5c52.7 0.6 105.3 4.6 157.5 12zm-167.1 594.2l244.5-3.2-51.9-26.6zm332.4 4.3c9.9-13.4 22.5-24.5 37.1-32.6l-131.1-367.4c-64.6 14.3-130.5 21.7-196.7 22.3v132.6c51.8 12.4 88.6 57.7 89.7 110.2-0.1 11.2-1.8 22.3-5 33l205.7 101zm-351.3-1340.7q0.6 6.7 0 13.5c0.3 13-1.1 26-4.3 38.6h116c-3.2-13-4.6-26.4-4.1-39.8q-0.4-6.7 0-13.4zm-140.9 828.4c52.7-6.8 105.8-10.4 158.9-10.6v-61.3c-42.3 0.2-84.2-7.6-123.5-22.9zm-195.8 527.5l259-107.7c-5.4-13.5-8.2-27.9-8.1-42.4 0.5-59 45.8-108.3 105.3-114.5v-128.3c-68.3 0.1-136.3-6.8-203.1-20.6zm62.7 4.6l268-44.4c-23.2-7.5-43.4-21.8-58-41zm606.7 16.3c0.6-2.8 2.6-5.7 2.6-8.3l-31.3-16 2.3 1.7h-385.7l-153.7 20.9 565.8 2.3zm-161.2-89.3l-39.2-20.1c-7.2 11-16.4 20.7-27 28.7z"/>
				</g>
			</g>
		</g>
	</g>
</svg>