<svg version="1.2" xmlns="http://www.w3.org/2000/svg" viewBox="0 0 1552 1324" width="1552" height="1324">
	<title>globa-weir-svg-svg</title>
	<style>
		.s0 { fill: #ffffff } 
	</style>
	<g id="#005eb8ff">
		<path id="Layer" class="s0" d="m2.2 0h436.9c0.8 319.1 0.1 638.2 0.4 957.2q58.9 0 117.8 0c0.1-318.6 0-637.2 0.1-955.8q219.6 0 439.2 0c0 318.6 0 637.2 0 955.8q58.9 0 117.8 0c0.1-315.4 0-630.9 0-946.3q0.3-5.5 1.4-10.9h436.2v1258.3c-4.6 22-18.5 41.5-37.8 53.1-14.3 9.7-31.8 11.8-48.6 12.6h-595.5c-18.6-0.4-38.4-1.8-54.3-12.7-23.6-14.2-38.2-40.8-38.9-68.2-0.3 27-14.9 53.2-38 67.3-14.6 10.3-32.8 13-50.2 13.6h-596.9c-19.6-0.1-40.2-2.9-56.3-15.2-22.6-14.9-35.9-41.9-35.3-68.9 0.1-404 0-807.9 0.1-1211.9 0.1-9.3-1.2-19 1.9-28z"/>
	</g>
</svg>