<svg version="1.2" xmlns="http://www.w3.org/2000/svg" viewBox="0 0 1543 306" width="1543" height="306">
	<title>The_Wendy's_Company_(logo)-svg</title>
	<style>
		.s0 { fill: #ffffff } 
		.s1 { fill: #2e1c17 } 
		.s2 { fill: #dc1135 } 
		.s3 { fill: #23abe8 } 
		.s4 { fill: #9c0a2b } 
		.s5 { fill: #fad1d7 } 
	</style>
	<g id="Layer">
		<g id="Layer">
			<path id="Layer" class="s0" d="m165.5 300.1c-77 0-139.2-62.3-139.2-139.3 0-77 62.2-139.3 139.2-139.3 77 0 139.2 62.3 139.2 139.3 0 77-62.2 139.3-139.2 139.3z"/>
			<path id="Layer" fill-rule="evenodd" class="s1" d="m164.8 305.9c-37.9 0-73.9-14.6-101.2-41-57.5-55.9-58.9-148.2-3.1-205.7 27.7-28.5 64.7-44.2 104.3-44.2 38 0 74 14.6 101.2 41.1 27.9 27 43.6 63.3 44.1 102.1 0.6 38.9-13.9 75.7-40.9 103.5-27.6 28.5-64.7 44.2-104.4 44.2zm0-279.4c-36.5 0-70.6 14.5-96 40.7-51.4 53-50.1 138 2.9 189.4 25.1 24.4 58.2 37.8 93.1 37.8 36.6 0 70.7-14.4 96.1-40.7 24.9-25.6 38.3-59.5 37.8-95.3-0.6-35.7-15-69.2-40.7-94.1-25.1-24.3-58.2-37.8-93.2-37.8z"/>
		</g>
		<g id="Layer">
			<path id="Layer" class="s2" d="m323.8 227.9c-38.9 25.9-56.8-2.5-62.7-3.3q-0.3 0-0.7 0.1c-1.2-3.3-1.9-6.8-1.9-10.5 0-1.4 0.2-2.7 0.3-4-2.3 4.1-3.8 8.4-4.4 13-7.1 1.3-15.5 2.4-21 1.2-21.2-4.3-12.2-18.5-12.9-20.7 0 0 7.8-21.6 8.2-30.9 7.1-4.7 9.3-13.1 10.1-23.8-2.6-8.6-1.7-13.6-6-16.6-3.4-4.6-4.6-7.6-7.3-12.6-0.6-0.8-2-4.3-2.6-5.1-12.1-15.4-3.3-11.2-14.2-28.1-1-1.5-3.9-4-5.4-4.8 0.1 0.6-2.5 2.9-2.5 3.4-9.2 10-15.5 21.6-28.9 31.2-7.8 5.6-17.7 5.6-17.7 5.6 14-13.4 20.8-26.8 22.9-41.9-2.3 4.3-11.8 5.7-14.3 9.9-18.6 18.5-52.7 20.5-69.9 37.4 0.4-0.4 1-1 1.6-1.2 3.2 14.7 0 23.2-3.1 32.9 8.8-0.7 7.8 1.8 8.8 9.7 0.3 14.2 7.2 26.6 11.7 33.7 16.9 13.1-21.1 28.3-42.5 22.1-6 0.8-23.9 29.2-62.8 3.4-1.3-1.4-0.9-3.3 0.3-2.5 2.6 1.6 8.1 2.6 9.6 1.6 0.9-0.5-2.3-1-5.1-2.5-15.1-7.6-12.4-31.6-7.9-26.6 3.3 4.1 7.5 8.4 15.6 8.1-7.3-8.6-8-20.6-5.5-18.4 5.3 5.5 14.5 24.3 55.3 17.6 0.4-1.7 5-21.5 18-22.1-4.1-8.9-10.8-14.9-14.9-24.6-1.7-1.9-1.8-5.4-3.4-7.2-8.8-22.1 4.4-62.3 4.1-61.2 0.1-3 1.5-12.9 2.5-15.9 11.7-36.4 29.3-56.2 68.9-66.9 9.4-2.5 16.9-0.4 25.3-0.3 4.2 1.4 13.4 3.9 16.5 6.7 0.5 1 5.5 5.1 6 6.1 5.3-2.3 8.4-2.6 14.5-2.3 29.5 10.1 38.1 40 46.9 56.4 7.7 14.4 10.2 29.8 11.4 39.7 1.2 6.4 2.4 30.6-8 52.9-3.2 5.9-6.6 11.1-11.8 16.1 3.2 0.9 8.4 2.5 14.6 12.3 2.1 3.1 4.2 5 6.2 6.3-1.3 1.3-2.5 2.6-3.6 4 40.3 6.5 49.5-12.2 54.8-17.7 2.5-2.1 1.8 9.9-5.5 18.5 8.1 0.2 12.3-4.1 15.5-8.1 4.5-5 7.2 19-7.9 26.6-2.8 1.5-6 1.9-5.1 2.4 1.5 1 7 0 9.6-1.5 1.2-0.8 1.6 1.1 0.3 2.4z"/>
			<path id="Layer" class="s3" d="m219.4 272.2c-1.2 1.2-2.3 1.7-4.1 1.6-1.5-0.1-2.7-0.3-4.4-2-1.6-1.7-7.7-8.4-9.9-21.5-0.2-1.9 0.1-3.2 0.8-4.1l6.8 2.8-0.1-3.9c0.8 0.4 1.4 0.9 1.6 1.4-0.1 3.3 1 5.8 2.6 9.6 3 6.8 9.1 12.4 6.7 16.1z"/>
			<path id="Layer" class="s3" d="m148.8 258.2c0.1 1.2 0.1 2.4-0.1 3.6-1 5.8-4 14.6-8.3 19.9-1 1.2-2.3 1.5-3.6 1.5-0.8-0.1-1.7-0.3-2.6-0.9 0 0-1.3-1-1.9-2.3-1.8-4 4-8.1 6.5-23.9l3.7 4.3z"/>
			<path id="Layer" class="s3" d="m132.6 249.3c-0.1 1.1-0.4 2.2-0.7 3.3-1.9 5.8-6.2 15.5-10.9 19.8-1 0.9-2.5 1.8-5.1 1.2-7.8-2.3-0.1-8.4 2.5-14.2 2.4-5.2 2.9-7.5 3.5-9.8 0.3-0.7 0.8-1.3 1.2-1.8l0.8 3.7 6 1.4z"/>
			<path id="Layer" class="s3" d="m195 254.9c1.7 15.2 8.5 21.9 7 25.9-0.5 1.3-2.3 2.2-2.3 2.2-0.9 0.4-1.6 0.6-2.7 0.5-1.5-0.3-2.8-1-3.8-2.2-2.5-3.1-7.1-12-9.2-24.4l7.1 3.7z"/>
			<path id="Layer" class="s3" d="m157 278c-0.1-4.3 4.4-8.8 6.7-9.6 4.1-1.4 7.2 0.8 8.1 1.6 1.4 1.4 5.3 7.6 5.2 9.1-0.1 2-6.8 7.8-14.3 5.9 0 0-5.6-3.6-5.7-7z"/>
			<path id="Layer" fill-rule="evenodd" class="s4" d="m324 227.7c-0.3 0.6-0.8 1.1-1.7 2-16.3 14.2-40.1 12.2-53.8 0.4-2.2-1.9-2.8-3.3-7.5-3.9-1.6-3.8-2.5-7.8-2.5-12 0-1.4 0.2-2.7 0.3-4-1.8 3.2-3.2 6.7-3.9 10.3-0.6 0-1.1 0.9-1.7 1.1-19.4 7.5-31.1 2.4-38.8-12.8 0.7-1 4.7-6.2 5.2-7.3 1.6-3.4 6.4-13.6 7.6-27.4 2.2-18.5 2.1-22.7 2.8-27.3 1-8.8 1-11-0.9-17.3-1.6-5.2-3-7-6.1-12.8-7.7-11.2-10.5-15.9-14.2-23-2.6-5.1-3.4-7.5-4.2-10.4 0 0-7 17-21.5 27.8-12.4 9.2-21.9 12.2-28.9 10.9 10.7-6.1 21.7-12.7 29.9-26 11.4-18.7 13.5-37.4 13.5-37.4 0 0 0.8-0.1 3 1.2 1.8 1 5 4.2 6.6 10.1 0.6 2.2 3 10.2 5.9 16.9 5.4 12 10.4 17.8 21.2 27.7 10.4 9.7 20.7 23.4 16.8 43.6-2.3 11.8-7.5 19.1-13.3 29-1.9 3.8-2.5 6.6-2.1 10.7 1.7 10.8 12.4 4.9 25.8 8.2q-1.4 1.9-2.6 3.9c5.1 1.6 10.3 4 15 8.7 0 0 13.1 17.2 38.7 13.7 4.4-0.8 8.3-2.1 11.4-4.6zm-105.3-187.4c19.8 38.2 45.8 40 47.2 86.3 0.3 10.4-2.4 18.4-2.4 18.4 2.1-31.5-19.1-51.4-27.9-62.8-19.9-26.2-16.9-41.9-16.9-41.9zm34.6 33.7c-15.3-19.1-20-41.9-40.2-50.8-3.6-1.5-9.5-3-14.4-1.5-3.5 1-8.4 3.9-8.4 3.9 0 0-1.3-3.8-4-6.1-10.2-8.6-35.8-8.9-53-4.4-7.8 2-14.1 5.7-19.9 9.5-9.1 6.2-11.8 9-17.9 15.9-2.9 3.7-6.2 8.7-7.6 11.3-5.4 10.7-10.9 23.7-15.7 45.2 4.4-6.8 14.2-18.6 16.2-18 0 0-19.6 19.1-13.8 52.1 0 0 2.8-8.8 25.7-17.5 22.9-8.6 44.5-14.2 61.5-28.9 11.4-9.9 20.3-25.6 20.3-25.6 4 3.1 3.1 27.5-35.4 47.5-20.7 10.8-24 9.2-36.2 14.2-12.2 5.1-12.7 18.6-12 30.3-0.3 9.2 1.6 11.6 3.1 29.9 2.3 4.9 3.2 8.7 3.2 11.6 2.8 5.8 6.1 9.1 13.3 18.5-9.3 13.5-25.2 14.8-42.9 14.8-10.2 0-10.3 1.7-13.3 4.3-13.6 11.7-37.5 13.7-53.7-0.5-0.9-0.9-1.4-1.4-1.8-2 3.1 2.6 7.1 3.8 11.4 4.6 25.6 3.5 38.8-13.6 38.8-13.6 16-16.3 38.8-5.5 34.9-23.6-2.9-7.5-13.9-21.2-17.2-26.1-18.5-27.5-9.5-55.9-4.8-66.8 1.3-10.1 3.5-20.8 5.7-28.2 11-36.8 28.1-62.1 66.6-71.8 10.1-2.6 20.7-2.4 26.7-1.8 5.2 0.8 15.7 1.5 21.5 7.3 1 0.9 1.9 2.4 2.5 4.6 5.3-2.4 8.5-2.4 15-1.5 27.6 6.2 30.7 32.3 45.8 63.2zm-157.3 24.1c7.4-2.6 17.6-9.1 25.5-14.5 7.8-5.4 13.1-9.6 29.9-19.3 2.8-1.6 6.9-3.4 10.2-3.9-19.9 13.9-28.8 30.7-50 37-10.3 3.6-15.6 0.7-15.6 0.7z"/>
			<path id="Layer" class="s5" d="m239.5 144.4c0.2 6.2-2.5 13.8-5.7 16.3-2.5 2.7-4.4 2-5.3 1.4-0.3 3.2-0.7 7.1-1.3 12q-0.1 1.3-0.3 2.5 0 0.4-0.1 0.7c-0.1 0.6-0.1 1.2-0.2 1.8-0.1 0.2-0.1 0.5-0.1 0.8-0.1 0.5-0.2 1-0.3 1.5q-0.1 0.4-0.2 0.8-0.1 0.7-0.3 1.5c0 0.2-0.1 0.5-0.1 0.7-0.2 0.5-0.2 1-0.4 1.4-0.1 0.3-0.1 0.5-0.2 0.7q-0.1 0.7-0.3 1.4c-0.1 0.2-0.1 0.4-0.2 0.6q-0.2 0.7-0.4 1.3 0 0.4-0.2 0.7-0.2 0.6-0.3 1.1-0.1 0.3-0.2 0.7-0.2 0.5-0.4 1.1c-0.1 0.2-0.1 0.3-0.2 0.5q-0.2 0.5-0.4 1c-0.1 0.2-0.1 0.4-0.2 0.6q-0.2 0.4-0.3 0.8-0.1 0.4-0.3 0.6c0 0.3-0.2 0.5-0.2 0.8-0.1 0.2-0.2 0.3-0.3 0.5q-0.1 0.3-0.2 0.6-0.2 0.4-0.3 0.6c-0.1 0.1-0.1 0.3-0.2 0.4-0.1 0.3-0.2 0.5-0.3 0.7 0 0.1 0 0.1-0.1 0.2-0.1 0.2-0.2 0.5-0.3 0.7-2.6 3.8-5.9 7.4-8.9 10.8q-1.3 1.5-2.8 3l0.6 33.8-7.7-3.1-9.8 14.7-10.3-5.5-2.5 4.3-6.3 4.7-4.9 2c0 0-10.6-4.8-12.3-6.3-1.8-1.5-3.8-2.4-3.8-2.4l-8.5 3-9.7-11.3-2.9 3.8-6-1.4-1-4.9 0.9-29.8c-1.5-1.3-3.1-2.7-4.7-4.5-0.4-0.3-0.8-0.7-1.2-1 0-0.1 0.1-0.1 0.2-0.2-0.6-0.7-1.1-1.3-1.5-1.9-0.2-0.2-0.4-0.5-0.5-0.6-0.3-2-1.6-4.1-4.2-6.1-0.7-1.2-1.6-2.5-2.4-4q-0.5-1.2-1-2.3c-3.9-5.9-6.2-15.1-8.6-30.5-0.1-0.6-0.1-1.1-0.2-1.6q-0.1-0.5-0.2-1-0.1-0.5-0.1-1c-0.5 0.6-1.8 1.6-4.7 0.2-1.8-0.9-3.1-4.3-4.2-7-1.1-2.3-2.3-4.3-2.2-11.3 0.6-11.4 8.2-11.6 8.2-11.6 0 0 1.3 0 1.6 4.8 0.1 1 0.2 2.2 0.4 3.6 0.6-8.5 3.3-16.4 12-20 12.2-5 15.5-3.4 36.2-14.2 15.3-7.9 24.6-16.5 30-24.2-2.4 14.2-9.2 26.9-22.5 39.6 7 1.3 16.5-1.7 28.9-10.9 14.5-10.7 21.5-27.8 21.5-27.8 0.8 2.9 1.6 5.3 4.2 10.4 3.6 7.1 6.5 11.8 14.2 23 3.1 5.8 4.5 7.6 6.1 12.8 0.7 2.3 1.1 4 1.4 5.8 1.1-2.3 2.1-3.5 4.4-3 3.2 0.8 4.5 6.7 4.6 12.1z"/>
			<path id="Layer" class="s3" d="m75.2 203c1.9 0.1 4 2.3 5.3 4.3 0.8 1.1 3.8 7.3 2.8 9.4-0.9 1.3-1.9 1.8 0.1 3.8 0.7 0.7 1.2 1.2 1.7 1.6 2 2.1 8.9 8.9 12 12.1 1.7 2.4 4.8 4.4 3.6 9.4-0.8 3.4-7.4 7.8-12.7 9.4-2.2 0.7-4.8 1.4-7.4 1.4-5.7 0.1-8.3-12.1-9.3-14.8-1-2.4-3-7.2-3.1-8.7-0.1-1.2 0.2-2.6 0.7-3.7 0.3-0.6-0.9-0.6-1.8-0.6-3.7-0.4-4.6-3-5.6-4.3-1-1.6-1.9-4-3-6.8-1.2-4.4-1.5-6.4-0.4-7.6 3.6-2.5-5.1-4.3-11-11.5-2-2.6-4.7-7.5-5.2-9.2-0.7-2.1-0.7-5.2 4.9-9.4 5.2-4.4 13.1-6.4 14.6-6.6 2-0.1 7.2 0.2 9.1 8.4 1.6 6.9 2.5 9.6 3.2 13.6 0.8 2.7 1 4.9 1 6.5-0.1 2.3-3.5 2.7 0.5 3.3z"/>
			<path id="Layer" class="s1" d="m71.9 223.3c5.4-2.1 5.2-2.2 7.2-3.8 0.6-0.5 2.1 0.3 0.7 2.7-0.6 1-1.6 0.6-1.4 2.7 0.3 2.8 6.2 7.1 2.2 7.9-3.6 0.7-5.7-6-6-7-0.2-0.9-1.8 0.1-2.7 0-1.7-0.1-3.1-1.2 0-2.5z"/>
			<path id="Layer" class="s1" d="m62.9 190.8c2.1 8.8 5.1 9.2 3.6 10.7-2.5 2.4-5.5-1.9-6-5.7-0.4-3 1.1-10.7 2.4-5z"/>
			<path id="Layer" class="s0" d="m72.2 204.7c-0.4 1.4-2 2.1-3.3 2.2-1.1 0.2-2.8 0.9-4.2 2.2-1.5 1.3-1.9 2.6-2.8 1-0.9-1.6-0.7-2 0.6-3.6 1.3-1.6 4.2-1.8 6.6-2.1 2.3-0.2 3.5-0.8 3.1 0.3z"/>
			<path id="Layer" class="s3" d="m262.5 226.8c0.3 1.1 0 4-0.7 7.7-0.6 3-1.1 5-2.4 11.8-1.7 8.1-6.2 7-8.3 6.8-1.7-0.1-11.3-2.3-16.3-6.3-6.7-4.5-6.1-7-5.5-9.1 0.5-1.7 3.7-6.3 5.9-8.8 6.2-8.3 15-9.3 10.9-11.8-1.2-1.1-1.6-2.9-0.5-7.3 1-2.7 2.3-5.3 3.2-6.2 0.8-1 2.8-3.7 6.9-4 1-0.1 2.2-0.1 1.9-0.6-0.6-1.1-0.9-2.5-0.9-3.6 0-1.5 1.2-6.9 2.1-9.3 1-2.7 4.6-15.9 9.1-15.3 2 0.1 4.9 1.1 7.5 2.1 4.5 1.7 13.2 6.4 14.4 9.1 1.6 4.1-2.1 6.9-3.2 8.5-2 2.2-10.9 11.9-13 13.9-0.4 0.5-1 1-1.8 1.7-1.7 1.6-1.4 2-0.2 3.1 2 1.9-1.5 8.1-2.3 9.3-1.3 1.9-4.1 4.9-6.2 4.9-4.1 0.2-0.8 1.4-0.6 3.4z"/>
			<path id="Layer" class="s1" d="m256.9 225.2c-1 0.1-1.7 0.5-2.2 1.4-0.5 0.9-1.4 6.9-5.7 7.4-3.7 0.5 0.1-4.5 0.8-7.1 0.5-2-0.9-3.7-1.5-4.2-1.9-1.7 0.7-3 1.4-2.6 2 1.4 1.8 2 7.8 2.3 3.1 0.2 1.2 2.6-0.6 2.8z"/>
			<path id="Layer" class="s1" d="m269.8 197.2c-1.2 2.7-2.1 6.2-5.6 4.3-4.4-2.3 1.1-5.8 4.4-9.3 3.2-3.3 2.1 3 1.2 5z"/>
			<path id="Layer" class="s0" d="m267.1 208.3c-0.6 1-2.7 0.3-3.8-0.6-1-0.8-3.1-2.2-5.1-2.4-2-0.3-3.3 0.2-2.8-1.6 0.4-1.7 1.2-2 3.3-2.1 2.2-0.1 4.2 1.8 6.3 3.6 1.9 1.7 2.7 2.2 2.1 3.1z"/>
			<path id="Layer" class="s0" d="m146.8 203.1c0 0-3-7.3-6-7.1 5.3 0 12.4 1.1 17.6 0.7 0.9-0.1 2.6-0.7 3.4-0.8 8.3-0.9 18 1.5 25.6-0.8-2.6 2.5-4.2 8.4-7.9 10.3-4 2-13.3 2.6-19.1 2.3-5.9-0.4-9.5-2.4-13.6-4.6z"/>
			<path id="Layer" class="s2" d="m112.5 164c0-0.9 0.6-1.6 1.6-1.6 0.9 0 2.1 0.7 2.1 1.6 0 1.1-1.2 1.9-2.1 1.8-1.1 0-1.6-0.7-1.6-1.8z"/>
			<path id="Layer" class="s2" d="m120.7 169.5c0-1 0.9-1.9 1.9-1.9 1-0.1 2 0.9 2 1.9 0 0.8-1.1 1.5-2.1 1.5-0.9 0.1-1.8-0.7-1.8-1.5z"/>
			<path id="Layer" class="s2" d="m127.6 159.3c0-0.8 1.2-1.7 2.2-1.7 0.7 0 1.8 0.9 1.8 1.7-0.4 1.4-1 1.9-1.8 1.9-1.4 0-2.2-0.6-2.2-1.9z"/>
			<path id="Layer" class="s2" d="m136 166.4c0-1 0.5-1.8 1.7-1.8 0.9 0 1.6 0.8 1.6 1.8 0 1-0.7 1.9-1.7 1.8-1.1 0-1.6-0.9-1.6-1.8z"/>
			<path id="Layer" class="s2" d="m144.2 157.6c0-0.9 0.6-1.7 1.7-1.7 1.2 0.1 1.8 0.8 1.8 1.7 0 1-0.7 1.7-1.8 1.7-1.1 0-1.7-0.8-1.7-1.7z"/>
			<path id="Layer" class="s2" d="m182.9 158.1c0.2-1 0.7-1.6 1.8-1.4 1 0.2 1.6 1 1.5 2.1-0.2 0.9-1 1.2-2.1 1-1-0.2-1.3-1-1.2-1.7z"/>
			<path id="Layer" class="s2" d="m194 160.2c0.1-0.9 0.8-1.6 1.6-1.4 1 0.2 1.5 1.1 1.4 1.9-0.2 1-1 1.6-2 1.5-0.8-0.2-1.2-1.1-1-2z"/>
			<path id="Layer" class="s2" d="m208.7 158.8c0.2-1 1-1.5 2.3-1.2 1 0.1 1.5 0.9 1.3 1.9-0.2 1-0.9 1.9-1.9 1.7-1.4-0.3-1.9-1.3-1.7-2.4z"/>
			<path id="Layer" class="s2" d="m200.1 166.8c0.2-1.1 1.2-1.7 2.5-1.4 0.9 0.2 1.5 1.1 1.3 2.1-0.2 0.9-1.1 1.7-2 1.5-1.3-0.3-1.9-1.3-1.8-2.2z"/>
			<path id="Layer" class="s2" d="m211.7 167.6c0.2-1.1 1.1-1.6 2.2-1.3 1 0.1 1.8 0.9 1.6 2-0.2 1-1.3 1.6-2.2 1.5-1.1-0.2-1.8-1.2-1.6-2.2z"/>
			<path id="Layer" class="s0" d="m142.1 141.9c1.7 3.4-5 6.2-11 6.1-1.8 0-6.7 0.9-8.2 0.4-0.1-0.4-3.1-1.7-3.1-2.9 1.7-4.2 5.7-8.4 11.1-9.9 5.5-1.6 11.2 6.3 11.2 6.3z"/>
			<path id="Layer" class="s0" d="m203.9 148.1c-1.5 0.4-3.1 0.6-4.8 0.6-5.4 0-9.9-1.9-11.5-4.6 0.2-0.3-0.1-1.7 0.1-2 3.4-5.2 6.6-6.8 10.8-7.2 4.3-0.5 10.9 8.5 9.4 10.9-1.5 2.4-3.9 0.6-4 2.3z"/>
			<path id="Layer" fill-rule="evenodd" class="s1" d="m140.6 120.9c-1.5-0.4-2.3-1-4.2-1.2-1.2-0.1-2.9-0.2-4-0.1-2.6 0.1-3.9 0.1-6.5 0.7-3.5 0.9-10 4.8-10.6 3.3-0.6-2.1 0.5-3.9 1.8-5.2 4.6-1.5 8.4-2.4 14.4-4.7 1.8 0.1 3.7 0.3 5.5 1 1.9 0.8 3.4 1.9 5.2 3 1.4 0.9 4.2 2.3 4.1 3.5-0.4 1.1-4 0.2-5.7-0.3zm-15.9 100.9c-0.1 6.5-0.2 13-0.3 21.8 0.7 1.2 1.6 2.5 2.8 4.3 2.2 3 5.3-7.2 9-5 4 2.3 3.8 9.3 8.1 12.7 2.6 2 7.3-9.3 9.8-3.1 2.7 6.7 7.6 8.2 12.8 10.9 2.4-2 5.8-2.3 8.6-5.7 2.7-3.2 4.3-6.4 6.3-7.1 3.1-0.9 4.9 6.7 8.2 5.4 5.4-1.9 4.5-11.9 9.5-13.3 2.5-0.6 2.9 3.7 5.9 4.2 3 0.5 5.9-10 7.4-14.4 0.8-2.2 1.9-2.8 3.6-2.1 2.3 0.9 2.5 4.1 2.7 9.5 0.3 7.7 3.9 15.1 8.2 20.3 4.3 5.1-6.6 2.3-10.9-8.9-2.7-6.9-2-7-3.9-3.4 0 0-3.7 6.3-6.1 7-3 0.8-5.9-3.6-5.9-3.6 0 0-3.6 12.3-9.7 12.3-5.7 0.1-7.6-6-9-3.7-1 1.8-2.2 4.4-7.3 6.3 2.7 2.1 5.1 4.3 6.1 8.1 2 9-4.8 14.8-12.6 15.3-5.8 0.4-12.7-2-14.5-7.3-2-6.8 2.2-13.1 6.3-16-3.8-1-6.8-3.6-9-6.8 0 0-3.2 4.4-8 3.5-3-0.5-7-6.4-8.5-11.5-0.1-0.3-3.3 4.5-7.2 3.8-5.2-0.9-5.1-4.6-7.6-8.3-0.5-0.9-2.4-3.6-2.8-1.2-0.3 1.8-0.9 4.4-2.3 7.3-2.7 5.2-10.2 11.1-13.6 8.9 3-1.2 8-7.1 9.5-12.4 1.7-5.9 2.1-11.4 1.5-17.2-0.5-4.5 4-2 7 1.2l0.2-3c0.2-3.3 0.2-7 0.2-10.5 0-1.6-0.7-4.5-2.5-6.5-1.9-2.3-4.8-7-6.4-9.3 0 0-1.9-3.1-3.1-5.4-1.1-2.1-2.2-4.5-3.7-8.7-1.3-3.5-2.6-8.8-3.3-15.4-0.8-6.7-0.6-8.3-0.8-12.6 0.9 4.1 2.2 10.8 2.7 13 2.2 9.7 4 14.3 7.4 20.2 3.5 6.1 7.8 11.1 12 15.4 2.4 2.6 7.4 6.7 10.6 9.3 4.2 3.4 6.1 4.9 10.9 7.9 4.3 2.7 12.1 8.2 22.8 8 10.1-0.1 15.6-4 18.9-5.9 7.1-4.1 10.8-7.3 15.6-11.9 5.7-5.3 8.6-8 12-12 4.4-5.2 8.5-10.7 12.2-23.8 2-7.1 3.3-15.5 4.2-20.1 0 1.6 0.3 3.5-0.2 10-0.5 4.6-1 8.9-2 13.2-1.5 6.2-2.8 10.4-5.3 14.9-2.5 4.7-3.2 5.1-7.5 11.6-3 4.2-3.1 4.4-3.3 7.6 0 13.5-3.1 32-5.4 2.7-14.8 12.6-27.6 20.6-39.7 20.7-11.9 0.2-24.2-7.7-40.6-21.2zm62.3-103.4c2.1-1.4 2.8-2.3 5-3.3 6.4-2.6 13.6-1.3 18.4 1.2 1.9 1.1 4.4 3.4 3.8 6.3-0.5 1.5-7.2-2-10.8-2.5-2.2-0.4-3.9-0.5-6.5-0.5-1.2 0-2.8 0.2-4 0.5-1.7 0.3-2.8 0.9-4.1 1.4-1.7 0.7-5.4 1.7-5.6 0.6-0.2-1.2 2.4-2.8 3.8-3.7zm-8.9 55.6c1 1.2-2.8 1.1-4.9 3-3.2 2.9-6.8 4.9-10.4 3.3-3.5-1.7-3.8-3.8-5.1-4.3-2.1-0.8-1.4 1.9-4.6 1.1-1.6-0.4-1.9-2.5-0.6-2.3 1.6-0.2 2.8-3.8 5.2-4 2.8-0.3 3.9 3.1 9.2 3.1 3.8 0 4.7-4 8.5-2.9 1.3 0.4 1.9 2.6 2.7 3zm-61.8-31.5c1.2-3.1 2.8-5.2 4.3-7 3.8-4.8 13.2-5.8 19.4-2.8 5.7 2.9 3.2 8.2 6 10.9 0.7 0.5 2.5-1.2 3.2-0.4 1.1 3.4-1.9 5.3-4.2 5.1-1.4-0.2-2.4-1.8-3.4-3.1-1.5-2.1-2.7-7.3-4.9-4.7-0.4 2-0.5 4.3-1.8 5.2-3.2-0.2-6.4-0.3-7.7 1.4-0.3 0.3-1.1 0-1.8-0.9-0.7-0.8-1.4-3.3 0.5-5.4 1-0.4 2.1 0.8 3.4 0.5 0.9-0.2 1.3-1 1.4-2.1-0.7-1.3-2.6-2.3-5-0.5-2.7 1.4-5 4.9-5.2 7.1 0 0.7 1.1 2.1 2.8 2.2 0.5 0 1.3 0.5 1 1.4-2.5 0.8-5.8-0.8-7.3-1.5-1.8-1.1-1.3-3.3-0.7-5.4zm97.3-3.2c0.8 2.2 1 3.4 0.5 5-0.7 2-1.5 5.6-10.1 3.8 0-1.8 2-1.6 2.9-2.6 1.1-1.8-0.1-5.4-2.6-5.5 0 1.2 0 4-1.5 5.5-1.5 1.5-4.4-0.5-7.4-0.4-1.8 0-2.3 1.4-4.1 0.7 0.1-2.9 1.4-5.2 2.3-5.3 0.8-0.2 2.5 0.4 4.3 0.3 0.7-0.4 1.5-2.1 0.7-2.9-1.6-1.3-3.5-0.7-4.8 0-1.4 0.8-4 3.4-5.2 5.1-1.4 2.1-2.1 5.7-5.9 5.2-1.2-0.2-2-0.8-2.2-1.7-0.5-1.6 0.5-3.1 2.1-3.4 1.3-0.2 0.5 1.7 1.3 2 2.2-0.1 3.3-4.6 5-7.2 1.3-2 5.2-5.5 7.7-6.4 6.9-2.2 14.5 1.4 17 7.8zm-71.2 57.5c-2.6 0-5.9-1.9-7.9-3.8-2-2.6-1.5-4.2 1.2-3.8 5.9 0.7 8.1 4 14.4 3.5 6.5-0.5 11.4-1.9 17.5-2.1 8.4-0.3 15.1 2.1 22 1.2 2.9-0.2 3.5-3.4 5.2-3.7 2.3-0.5 5.5-0.9 7.1 1.2 0.9 1.4-4.5 3.9-6.9 5-4.2 2-8.2 7.5-9.8 10.1-4.9 8.1-12.6 9.1-22.4 8.8-6.7-0.1-11.2-3.6-14.1-6.2-2.6-2.3-4.3-3.5-3.2-6.9 4.1 2.3 8.8 5.4 14.7 5.9 5.8 0.3 13.2 0.3 17.2-1.6 3.8-1.9 6-5.7 8.6-8.1-7.7 2.2-15.2 0-23.5 0.8-0.8 0.1-4.1 0.4-4.9 0.4-5.3 0.4-9.8-0.7-15.2-0.7zm21.9 87c4.5 1.1 8.8-1.4 9.4-4.6 0.5-2.3-0.1-4.4-1-5.9-0.7-1.4-1.5-2.2-3.2-3.2-1.6-1.2-4.2-1-4.9-0.7l-0.8 0.3c-4.5 1.8-7.1 12.1 0.5 14.1z"/>
		</g>
		<path id="Layer" fill-rule="evenodd" class="s1" d="m293.7 245.9c3.2 0 5.9 2.6 5.9 5.9 0 3.3-2.7 5.8-6 5.8-3.3 0-6-2.5-6-5.8 0-3.3 2.7-5.9 6-5.9zm-0.1 1.2c-2.5 0-4.4 2.1-4.4 4.7 0 2.6 1.9 4.6 4.5 4.6 2.5 0 4.4-2 4.4-4.6 0-2.6-1.9-4.7-4.4-4.7zm-0.9 7.7h-1.4v-5.8c0.6-0.1 1.3-0.2 2.3-0.2 1.1 0 1.6 0.2 2 0.5 0.3 0.2 0.6 0.6 0.6 1.2 0 0.7-0.6 1.2-1.2 1.4 0.6 0.2 0.8 0.7 1 1.5 0.2 0.8 0.3 1.2 0.4 1.4h-1.4c-0.2-0.2-0.3-0.7-0.5-1.4-0.1-0.6-0.4-0.9-1.2-0.9h-0.6zm0-3.3h0.7c0.7 0 1.3-0.2 1.3-0.8 0-0.5-0.4-0.9-1.2-0.9q-0.6 0-0.8 0.1z"/>
	</g>
	<g id="Layer">
	</g>
	<g id="Layer">
		<path id="Layer" fill-rule="evenodd" class="s2" d="m417.5 136.5v-11.1h44v11.1h-15.8v48.2h-12.3v-48.2zm91.9 48.2v-25h-22.7v25h-12.6v-59.3h12.6v22.7h22.7v-22.7h12.7v59.3zm67-48.2h-23.5v12.1h22v11.1h-22v13.6h24.2v11.4h-37v-59.3h36.3zm75.5-10l12.7 36.6h0.3l4.9-19.6 5.9-18.1h13.4v1.9l-20.4 57.9h-7.5l-11.8-32h-0.3l-11.4 32h-7.7l-20.6-57.9v-1.9h13.4l5.9 18.1 5.4 19.6h0.3l12.2-36.6zm86 10h-23.6v12.1h22.1v11.1h-22.1v13.6h24.2v11.4h-36.9v-59.3h36.3zm29 14.3v33.9h-12.6v-59.5h3.9l33.4 33.8v-33.7h12.7v59.6h-3.9zm77.4-25.4c19 0 29.1 14.2 29.1 29.5 0.2 15-10 29.7-29.1 29.7h-22.1v-59.2zm-0.1 47.8c10.9 0 16.6-8.9 16.6-18.3 0-9.5-5.8-18-16.6-18h-9.2v36.3zm61.5-23.9l5.9-11.8 7.2-12.2h13.4v1.9l-20.3 33.7v23.7h-12.7v-23.7l-20.5-33.7v-1.9h13.6l7.5 12.7 5.6 11.3zm48.4-15.4l-3.5 10.8h-6.8l1.9-7.3c-2.7-0.7-4.9-3-4.9-6.1 0-4.1 3-6.5 6.9-6.5 3.1 0 5.7 1.6 6.7 4.4 0.2 0.6 0.3 1.4 0.3 2.1-0.1 1-0.3 2-0.6 2.6zm24.6 32.9c0.2 5.4 6.2 7.5 11.9 7.5 5.3 0 11.3-1 11.3-7.2 0-6.9-7.2-7.2-12.9-7.5-10.8-1-21.6-4.4-21.6-16.7 0-13.1 10.8-18.5 22.6-18.5 11.1 0 22.5 4.6 22.5 17.9h-11.7c-0.9-4.9-5.8-6.7-10.8-6.7-5.1 0-10.2 2.6-10.2 7.2 0 5.2 5.3 6 11.3 6.8 12.6 1 23.4 3.6 23.4 17.5 0 13.9-12.1 18.2-23.9 18.3-11.7 0-24-5.7-24-18.6zm102.3-42.4c11.9 0 24.6 6.6 27.4 21.1h-12.4c-2.6-6.7-7.8-9.6-15-9.6-10.5 0-17.5 7.8-17.5 19.1 0 10.2 6.8 19 17.5 19 7.3 0 13.4-3.6 15.3-10.8h12.3c-2.6 15.7-15.2 22.2-27.6 22.2-15.6 0-30.3-10.8-30.3-30.4 0-19.6 14.7-30.7 30.3-30.6zm68.7 61c-16.7 0-30.2-13.6-30.2-30.5 0-16.8 13.5-30.5 30.2-30.5 16.7 0 30.2 13.7 30.2 30.5 0 16.9-13.5 30.5-30.2 30.5zm17.6-30.4c0-10.4-7.8-18.8-17.5-18.8-9.7 0-17.6 8.4-17.6 18.8 0 10.4 7.9 18.8 17.6 18.8 9.7 0 17.5-8.4 17.5-18.8zm79.7-29.9h4.6v59.5h-12.8v-32l-14.9 18.6h-1.6l-14.9-18.6v32h-12.7v-59.5h4.6l23.8 28.3zm22.5 59.3v-59.2c8.5-0.1 17 0 25.4 0 13.9 0 21 10.5 21 21.6 0 11-7.5 21-21 21h-12.6v16.6zm25.3-27.4c5.6 0 9-4.8 9-10.5 0-5.6-3.3-10.1-9-10.1-4.3-0.2-8.5 0-12.7 0v20.6zm41.3 17.8l-4.6 9.8h-13.3v-1.6l27.3-58.2h5.8l27.1 58.2v1.6h-13.1l-4.7-9.8zm4.1-10.6h16.5l-8.4-19.7zm61.6-13.4v33.9h-12.6v-59.5h3.9l33.4 33.8v-33.7h12.7v59.5h-3.9zm75.6-1.4l5.9-11.8 7.2-12.3h13.4v2l-20.3 33.7v23.7h-12.7v-23.7l-20.4-33.7v-2h13.5l7.5 12.8 5.6 11.3zm31.4-10.2c0-22.8 34-22.8 34 0 0 22.7-34 22.8-34 0zm28.9 0c0-17.1-23.9-17.1-23.9 0 0 17 23.9 17 23.9 0zm-4.4 7.1v0.9h-4.1l-3.3-5.3h-1.9v5.3h-4.1v-16.1h7c3.5 0 6.1 2 6.1 5.6 0 2-1 3.9-3 4.6zm-9.3-7.7h2.6c1.3 0 2.3-0.8 2.3-2 0-1.1-0.8-1.9-2.3-1.9h-2.6z"/>
	</g>
	<g id="Layer">
	</g>
	<g id="Layer">
	</g>
	<g id="Layer">
	</g>
	<g id="Layer">
	</g>
	<g id="Layer">
	</g>
	<g id="Layer">
	</g>
</svg>