<svg version="1.2" xmlns="http://www.w3.org/2000/svg" viewBox="0 0 1570 865" width="1570" height="865">
	<title>wf-logo-svg</title>
	<defs>
		<clipPath clipPathUnits="userSpaceOnUse" id="cp1">
			<path d="m-1307.13-1.97h4187.79v1748.54h-4187.79z"/>
		</clipPath>
	</defs>
	<style>
		.s0 { fill: #ffffff } 
	</style>
	<g id="Layer">
		<g id="Clip-Path" clip-path="url(#cp1)">
			<path id="Layer" class="s0" d="m397.8 863.7c0 0-73.5 12.9-121-60.5-60.5-92.8-248.5-367-248.5-367 0 0-60.5-62.6-2.2-153.2 49.7-77.7 188-274.2 188-274.2 0 0-32.4 62.6 15.2 131.7 66.9 99.3 449.4 677.8 449.4 677.8 0 0 30.3 45.4 67 19.5 19.5-13 17.3-30.3 0-60.5-15.1-30.2-190.2-278.5-190.2-278.5 0 0-30.2-38.8-30.2-82 0-34.5-4.3-36.7 21.6-77.7 28.1-45.3 239.9-338.9 239.9-338.9 0 0 211.7 293.6 239.8 338.9 23.8 38.9 21.6 43.2 21.6 77.7-2.1 43.2-32.4 82-32.4 82 0 0-172.9 248.3-190.1 278.5-17.3 30.2-19.5 47.5 0 60.5 36.7 23.7 66.9-19.5 66.9-19.5 0 0 382.5-576.3 449.5-675.6 47.5-71.3 15.1-133.9 15.1-133.9 0 0 138.3 196.5 188 274.2 56.2 90.6-2.1 153.2-2.1 153.2 0 0-188 274.2-248.5 367-47.6 71.3-121 60.5-121 60.5h-380.4z"/>
		</g>
	</g>
</svg>