<svg version="1.2" baseProfile="tiny-ps" xmlns="http://www.w3.org/2000/svg" viewBox="0 0 1535 1099" width="1535" height="1099">
	<title>West-Fraser-Logo-svg</title>
	<defs>
		<clipPath clipPathUnits="userSpaceOnUse" id="cp1">
			<path d="M790.62 822.33L908.08 822.33L920.69 822.8L926.2 826.54L929.78 832.1L926.25 840.98L921.42 850.18L920.49 858.17L917.94 864.3L913.53 869.5L903.61 871.21L892.39 870.95L838.5 870.95L827.85 870.64L818.5 871.99L815.13 874.74L812.48 878.12L811.23 892.41L812.01 907.47L813.73 910.95L814.19 913.44L815.34 915.11L815.34 915.83L846.75 915.83L855.22 915.47L863 916.87L866.69 921.13L867.63 927.05L867.73 928.56L866.9 929.29L863.58 934.84L860.98 940.82L855.89 949.91L855.11 955.26L851.68 959.99L847.01 963.52L838.13 964.92L828.27 964.35L819.13 965.39L815.39 967.62L812.43 971.62L811.13 986.69L811.6 1003.36L811.6 1097.59L787.82 1097.85L767.15 1096.34L764.19 1092.24L763.67 1078.16L763.67 859.73L763.52 855.01L764.45 851.47L769.43 842.85L772.71 833.55L778.16 831.27L783.66 826.7L790.62 822.33ZM4.26 829.03L14.49 829.71L20.98 834.44L35 841.81L42.27 846.85L46.73 851.94L48.08 867.01L47.67 883.68L47.67 1028.03L47.41 1036.08L48.97 1043.36L49.95 1045.02L51.41 1046.01L52.5 1049.95L55.56 1052.55L70.83 1053.9L86.04 1052.55L90.66 1047.36L93 1040.71L93.31 879.94L93.31 849.97L93.05 841.97L93.88 834.49L95.75 831.58L98.76 829.71L108.01 829.71L114.03 834.18L124.47 839.06L133.19 847.42L137.5 852.46L138.17 863.47L138.17 890.38L138.17 1028.03L138.59 1041.43L140.41 1044.97L143.26 1050.37L145.34 1052.29L148.66 1053.28L163.62 1053.85L171.2 1052.76L176.44 1049.9L180.65 1039.25L180.86 868.67L180.86 843.99L180.75 838.38L181.69 833.35L184.18 830.7L187.76 829.29L195.55 829.71L201.47 834.28L215.28 843.16L227.54 854.8L228.78 864.1L229.1 881.91L228.73 912.82L228.73 1057.23L228.11 1071.2L225.98 1075.25L220.11 1085.74L210.51 1093.12L201 1097.33L91.08 1097.59L46.89 1097.59L26.79 1097.17L19.21 1094.26L11.63 1089.12L5.82 1082.26L3.53 1074.42L2.75 1074.42L0.57 1064.03L0 1045.38L0.52 1012.29L0.52 832.05L4.26 829.03ZM640.97 878.43L645.38 880.2L648.24 883.52L650.37 893.39L649.17 915.11L653.9 918.17L667.5 919.26L682.15 918.85L692.58 919.57L692.74 926.59L691.7 930.01L689.62 931.52L688.59 939.62L684.33 950.69L678.51 960.87L672.7 966.58L665.58 967.52L658.21 967.78L652.19 970.37L650.68 970.74L649.95 971.93L650.01 1047.41L652.6 1051.51L661.95 1056.13L679.03 1056.24L688.17 1056.97L692.74 1059.62L692.07 1065.23L690.35 1068.45L689.94 1073.54L687.39 1078.32L686.51 1083.72L682.87 1090.26L680.64 1097.59L643.26 1097.59L634.9 1097.85L627.31 1096.65L616.67 1086.94L613.81 1086.11L611.79 1084.86L611.06 1084.86L609.35 1078.37L608.05 1071.41L607.32 1070.68L605.19 1066.58L604.1 1062.11L601.77 1057.85L600.94 1045.02L601.35 1031.77L601.35 968.92L596.78 967.47L591.02 967.52L585.36 967.52L581.15 965.96L579.7 961.39L580.06 956.3L585.25 946.27L586.34 940.04L588.73 936.51L592.26 928.2L596.42 920.66L599.69 919.11L603.58 918.85L604.31 918.07L605.09 918.07L604.21 910.27L605.09 902.69L609.4 897.29L616.98 891.32L631.42 882.54L636.19 880.77L640.97 878.43ZM278.84 915.83L339.44 915.83L371.58 916.14L378.85 919.42L385.03 924.82L396.04 936.2L397.44 941.91L399.57 946.58L400.3 957.18L400.04 968.19L400.04 994.37L399.41 1009.13L397.49 1012.5L391.16 1023.62L379.99 1029.95L375.32 1032.14L360.21 1032.97L344.73 1032.55L317.01 1032.55L315.86 1032.6L315.5 1031.77L314.77 1031.77L312.07 1023.46L311.76 1002.58L312.33 990.06L314.31 987.2L317.21 985.28L328.22 984.66L347.64 984.61L354.6 983.67L356.68 981.59L358.91 980.14L357.46 975.05L353.98 971.31L343.96 970.48L320.02 970.48L310.88 970.17L302.26 971.05L299.4 972.61L297.53 974.89L297.48 1039.25L297.53 1045.23L301.32 1052.71L301.32 1053.49L398.58 1053.49L404.6 1053.49L409.02 1054.99L409.9 1061.54L409.02 1068.13L406.99 1071.72L406.84 1073.48L406.06 1074.42L401.23 1086.37L398.17 1092.03L393.44 1096.55L383.42 1097.9L372.36 1097.59L303.56 1097.59L290.52 1098.05L278.43 1096.81L273.86 1093.17L269.39 1091.15L263.73 1086.63L261.19 1086L259.42 1084.86L258.69 1084.86L255.73 1078.32L252.93 1072.86L252.67 1001.85L252.67 964.45L252.98 944.3L259.32 930.38L261.91 927.31L265.55 925.13L273.13 921.75L278.84 915.83ZM887.15 915.83L938.76 915.83L948.06 915.42L956.52 916.87L959.22 919.31L960.63 922.59L955.69 939.36L951.54 948.97L948.47 953.23L947.9 956.61L945.46 958.48L945.36 961.6L944.01 963.67L928.38 964.19L920.07 964.3L914.57 965.8L911.19 968.61L908.8 972.19L908.08 985.39L908.08 1097.59L885.07 1098L872.71 1097.27L865.19 1094.83L863.89 1092.86L863.16 1080.39L863.16 1056.45L863.26 957.7L864.77 951.62L866.22 945.75L870.59 939.62L873.81 932.87L878.06 927.99L879.88 923.52L887.15 915.83ZM977.66 915.83L1030.05 915.83L1041.42 915.42L1052.33 916.46L1058.87 920.09L1065 924.72L1069.41 926.64L1078.7 935.52L1085.45 946.01L1086.8 952.19L1088.62 955.62L1089.71 961.23L1091.69 965.34L1092.46 977.39L1092.15 989.85L1092.15 1037.75L1092.62 1051.82L1091.48 1065.23L1087.01 1074.11L1085.35 1080.76L1078.08 1089.07L1069.77 1096.55L1060.53 1097.9L1050.25 1097.59L972.46 1097.33L967.01 1095.35L961.77 1092.91L955.74 1091.41L952.37 1086.21L949.82 1080.19L947.38 1077.38L945.31 1074.26L944.42 1063.98L941.46 1057.85L940.74 1047.25L941 1036.29L940.84 1028.66L941.67 1021.54L946.03 1016.14L950.24 1010.68L954.5 998.11L954.5 997.33L959.22 995.78L963.33 993.13L971.84 988.24L1000.97 987.36L1028.18 988.81L1029.84 995.05L1030.36 1006.94L1030.05 1028.03L1030.15 1030.37L1029.32 1031.77L1029.32 1032.55L1006.84 1032.55L994.38 1033.18L990.59 1035.41L987.99 1039.05L986.8 1048.03L988.25 1050.78L990.85 1052.39L996.92 1054.06L1000.97 1055.98L1021.64 1056.71L1040.69 1055.04L1044.48 1050.47L1046.72 1045.12L1047.65 1031.93L1047.24 1018.32L1046.98 980.19L1044.9 974.69L1044.28 964.45L983.63 964.45L972.15 964.76L961.87 963.41L959.48 959.1L960.68 953.23L965.61 943.1L966.8 937.6L969.3 930.01L969.3 927.68L970.18 926.33L977.66 915.83ZM1304.63 915.83L1357.75 915.83L1368.76 915.47L1379.3 916.35L1396.96 923.52L1405.06 928.97L1411.96 935.62L1413.94 940.04L1418.56 944.97L1422.35 950.38L1423.28 977.85L1421.57 1003.77L1419.13 1006.37L1418.92 1011.05L1417.05 1013.02L1413.88 1014.58L1413.11 1014.58L1413 1017.75L1411.65 1019.77L1407.13 1020.55L1407.29 1023.67L1406.41 1025.8L1406.41 1026.53L1398.62 1027.41L1395.14 1030.06L1391.35 1032.14L1371.25 1032.14L1363.72 1029.64L1347.11 1029.75L1339.11 1028.34L1336.2 1026.68L1334.49 1024.03L1333.81 1010.84L1333.5 1000.55L1334.39 990.79L1336.26 987.78L1339.63 985.85L1349.24 984.24L1368.97 984.56L1377.33 982.06L1379.09 981.85L1380.24 980.92L1380.91 980.92L1379.61 971.93L1377.54 968.56L1374.01 965.49L1366.68 964.14L1358.48 964.45L1328.57 964.45L1323.85 964.3L1320.37 965.18L1319.59 965.18L1316.94 973.44L1316.63 1013.8L1316.16 1027.77L1317.04 1041.43L1319.69 1047.72L1324.36 1052.71L1335.74 1053.9L1348.04 1053.49L1411.65 1053.49L1417.52 1053.38L1422.09 1054.21L1422.87 1054.21L1422.87 1059.46L1425.93 1059.3L1428.06 1060.19L1428.84 1060.19L1428.22 1071.25L1422.24 1083.87L1419.86 1087.15L1418.92 1092.44L1418.09 1094.57L1415.55 1096.65L1403.71 1098L1390.67 1097.59L1331.58 1097.59L1317.93 1098L1304.74 1097.12L1291.65 1091.04L1288.54 1088.13L1285.06 1086.11L1283.24 1085.85L1282.2 1084.86L1281.42 1084.86L1279.76 1079.67L1278.46 1074.42L1274.72 1071.35L1272.23 1067.56L1271.71 1055.72L1271.71 1031.77L1271.92 954.74L1275.55 945.8L1277.68 942.74L1277.63 940.82L1278.46 939.78L1282.67 932.51L1288.74 926.43L1293.16 924.51L1298.25 920.04L1304.63 915.83ZM1463.99 915.83L1511.92 915.83L1521.89 915.42L1530.77 917.29L1533.42 920.98L1534.2 926.59L1531.96 940.4L1526.98 952.97L1524.43 956.97L1522.36 958.48L1522.46 961.54L1521.58 963.67L1521.58 964.45L1506.1 964.04L1492.19 965.34L1488.35 968.24L1485.65 972.19L1484.56 982.22L1484.97 992.87L1484.97 1090.11L1485.07 1092.81L1484.19 1094.63L1479.15 1096.81L1473.39 1097.69L1461.03 1097.59L1448.57 1097.95L1442.65 1097.07L1438.39 1094.16L1436.78 1080.7L1437.04 1065.48L1437.04 972.66L1436.78 961.28L1437.51 950.32L1442.03 943L1444.78 939L1446.03 935.21L1446.75 933.81L1450.54 929.03L1455.11 924.87L1463.99 915.83ZM453.93 918.85L563.13 918.85L574.25 919.31L577.31 922.27L577.93 927.47L576.74 932.35L574.4 934.53L573.83 937.86L571.39 939.78L570.72 947L566.25 952.92L564.07 960.19L562.56 963.99L560.33 966.43L553.11 967.67L545.22 967.41L498.07 967.41L489.71 967.15L482.08 968.35L479.22 971.1L478.18 974.89L478.81 980.04L482.08 983.67L487.95 984.76L494.33 984.61L519.05 984.66L531.62 985.07L535.67 987.05L542.47 988.97L550.88 996.61L556.85 1000.09L561.58 1005.23L562.82 1013.75L564.8 1017.75L566.09 1024.03L568.01 1028.08L568.38 1042.21L568.01 1063.87L566.2 1068.03L564.85 1074.21L562.67 1079.67L562.61 1082.73L561.68 1084.86L561.68 1085.64L556.02 1087.72L551.76 1091.56L547.82 1095.35L542.93 1097.38L414.31 1097.59L415.09 1092.7L417.27 1089.38L418.05 1089.38L418.37 1083.93L420.39 1079.46L421.79 1073.28L423.56 1070.47L426.36 1064.45L427.76 1059.1L431.04 1054.63L438.93 1053.28L447.96 1053.49L519.78 1053.49L521.7 1053.54L522.74 1052.71L523.51 1052.71L523.62 1041.85L522.48 1036.81L519.26 1033.49L510.9 1032.19L501.81 1032.55L475.64 1032.5L463.8 1032.03L460.27 1030.21L452.79 1026.53L445.83 1021.96L440.8 1018.94L440.07 1016.4L438.93 1014.58L435.97 1009.33L433.68 1005.39L433.01 1000.35L430.46 995.72L430 977.18L429.58 963.52L430.46 950.32L435.97 939.78L435.86 937.86L436.75 936.77L441.06 929.03L444.33 926.53L447.86 924.61L453.93 918.85ZM1146.05 918.85L1253.02 918.85L1264.03 919.47L1266.21 921.24L1266.99 924.25L1265.53 932.4L1260.55 947.26L1259.77 947.99L1257.85 951.78L1256.81 955.93L1253.69 960.19L1249.49 963.52L1240.04 964.87L1229.81 964.45L1166.25 964.56L1161.27 965.6L1157.27 968.92L1157.99 980.14L1161.11 983.98L1165 986.84L1171.7 987.78L1178.92 987.62L1210.34 987.62L1226.02 988.09L1231.37 991.46L1236.19 996.04L1239 996.87L1241.02 998.11L1241.8 998.11L1241.65 1002.37L1242.53 1005.59L1242.53 1006.37L1248.5 1008.55L1251.3 1017.59L1251.51 1048.97L1250.94 1064.5L1248.66 1068.71L1247.41 1074.94L1242.74 1080.5L1240.82 1084.7L1236.25 1090.11L1230.85 1094.57L1222.75 1097.22L1213.35 1098L1193.88 1097.59L1097.4 1097.59L1097.76 1087.2L1099.89 1082.52L1101.24 1076.45L1106.33 1069.22L1108.46 1065.48L1109.34 1060.97L1117.86 1054.16L1128.97 1053.02L1140.76 1053.49L1195.38 1053.49L1201.3 1053.54L1205.87 1052.71L1206.6 1052.71L1206.6 1034.01L1205.87 1033.28L1205.87 1032.55L1148.23 1032.34L1142.31 1029.49L1136.29 1026.68L1133.95 1026.73L1132.55 1025.8L1131.77 1025.8L1131.88 1023.1L1131.1 1021.33L1131.1 1020.55L1126.53 1018.42L1123.83 1014.22L1117.03 1006.58L1115.73 998.16L1113.55 992.76L1113.08 975.67L1113.55 962.27L1117.18 954.17L1121.39 946.22L1122.63 939.94L1125.8 933.44L1129.85 928.61L1135.15 925.23L1146.05 918.85Z" />
		</clipPath>
	</defs>
	<style>
		tspan { white-space:pre }
		.shp0 { fill: #008752 } 
	</style>
	<g id="layer1">
		<path id="path759" fill-rule="evenodd" class="shp0" d="M790.62 822.33L908.08 822.33L920.69 822.8L926.2 826.54L929.78 832.1L926.25 840.98L921.42 850.17L920.49 858.17L917.94 864.3L913.53 869.5L903.61 871.21L892.39 870.95L838.5 870.95L827.85 870.64L818.5 871.99L815.13 874.74L812.48 878.12L811.23 892.41L812.01 907.47L813.73 910.95L814.19 913.44L815.34 915.11L815.34 915.83L846.75 915.83L855.22 915.47L863 916.87L866.69 921.13L867.63 927.05L867.73 928.56L866.9 929.29L863.58 934.84L860.98 940.82L855.89 949.91L855.11 955.26L851.68 959.99L847.01 963.52L838.13 964.92L828.27 964.35L819.13 965.39L815.39 967.62L812.43 971.62L811.13 986.68L811.6 1003.36L811.6 1097.59L787.82 1097.85L767.15 1096.34L764.19 1092.24L763.67 1078.16L763.67 859.73L763.52 855.01L764.45 851.47L769.43 842.85L772.71 833.55L778.16 831.27L783.66 826.7L790.62 822.33ZM4.26 829.03L14.49 829.71L20.98 834.44L35 841.81L42.27 846.85L46.73 851.94L48.08 867L47.67 883.68L47.67 1028.03L47.41 1036.08L48.97 1043.36L49.95 1045.02L51.41 1046.01L52.5 1049.95L55.56 1052.55L70.83 1053.9L86.04 1052.55L90.66 1047.36L93 1040.71L93.31 879.94L93.31 849.97L93.05 841.97L93.88 834.49L95.75 831.58L98.76 829.71L108.01 829.71L114.03 834.18L124.47 839.06L133.19 847.42L137.5 852.46L138.17 863.47L138.17 1028.03L138.59 1041.43L140.41 1044.97L143.26 1050.37L145.34 1052.29L148.66 1053.28L163.62 1053.85L171.2 1052.76L176.44 1049.9L180.65 1039.25L180.86 868.67L180.86 843.99L180.75 838.38L181.69 833.34L184.18 830.7L187.76 829.29L195.55 829.71L201.47 834.28L215.28 843.16L227.54 854.8L228.78 864.1L229.1 881.91L228.73 912.82L228.73 1057.23L228.11 1071.2L225.98 1075.25L220.11 1085.74L210.51 1093.12L201 1097.33L91.08 1097.59L46.89 1097.59L26.79 1097.17L19.21 1094.26L11.63 1089.12L5.82 1082.26L3.53 1074.42L2.75 1074.42L0.57 1064.03L0 1045.38L0.52 1012.29L0.52 832.05L4.26 829.03ZM640.97 878.43L645.38 880.2L648.24 883.52L650.37 893.39L649.17 915.11L653.9 918.17L667.5 919.26L682.15 918.85L692.58 919.57L692.74 926.58L691.7 930.01L689.62 931.52L688.59 939.62L684.33 950.69L678.51 960.87L672.7 966.58L665.58 967.52L658.21 967.78L652.19 970.37L650.68 970.74L649.95 971.93L650.01 1047.41L652.6 1051.51L661.95 1056.13L679.03 1056.24L688.17 1056.97L692.74 1059.61L692.07 1065.22L690.35 1068.45L689.94 1073.54L687.39 1078.31L686.51 1083.72L682.87 1090.26L680.64 1097.59L643.26 1097.59L634.9 1097.85L627.31 1096.65L616.67 1086.94L613.81 1086.11L611.79 1084.86L611.06 1084.86L609.35 1078.37L608.05 1071.41L607.32 1070.68L605.19 1066.58L604.1 1062.11L601.77 1057.85L600.94 1045.02L601.35 1031.77L601.35 968.92L596.78 967.47L591.02 967.52L585.36 967.52L581.15 965.96L579.7 961.39L580.06 956.3L585.25 946.27L586.34 940.04L588.73 936.51L592.26 928.2L596.42 920.66L599.69 919.11L603.58 918.85L604.31 918.07L605.09 918.07L604.21 910.27L605.09 902.69L609.4 897.29L616.98 891.31L631.42 882.54L636.19 880.77L640.97 878.43ZM278.84 915.83L339.44 915.83L371.58 916.14L378.85 919.42L385.03 924.82L396.04 936.19L397.44 941.91L399.57 946.58L400.3 957.18L400.04 968.19L400.04 994.37L399.41 1009.12L397.49 1012.5L391.16 1023.62L379.99 1029.95L375.32 1032.14L360.21 1032.97L344.73 1032.55L317.01 1032.55L315.86 1032.6L315.5 1031.77L314.77 1031.77L312.07 1023.46L311.76 1002.58L312.33 990.06L314.31 987.2L317.21 985.28L328.22 984.66L347.64 984.61L354.6 983.67L356.68 981.59L358.91 980.14L357.46 975.05L353.98 971.31L343.96 970.48L320.02 970.48L310.88 970.17L302.26 971.05L299.4 972.61L297.53 974.89L297.48 1039.25L297.53 1045.23L301.32 1052.71L301.32 1053.49L404.6 1053.49L409.02 1054.99L409.9 1061.54L409.02 1068.13L406.99 1071.72L406.84 1073.48L406.06 1074.42L401.23 1086.37L398.17 1092.03L393.44 1096.55L383.42 1097.9L372.36 1097.59L303.56 1097.59L290.52 1098.05L278.43 1096.81L273.86 1093.17L269.39 1091.14L263.73 1086.63L261.19 1086L259.42 1084.86L258.69 1084.86L255.73 1078.31L252.93 1072.86L252.67 1001.85L252.67 964.45L252.98 944.3L259.32 930.38L261.91 927.31L265.55 925.13L273.13 921.75L278.84 915.83ZM887.15 915.83L938.76 915.83L948.06 915.42L956.52 916.87L959.22 919.31L960.63 922.59L955.69 939.36L951.54 948.97L948.47 953.23L947.9 956.61L945.46 958.48L945.36 961.6L944.01 963.67L928.38 964.19L920.07 964.3L914.57 965.8L911.19 968.61L908.8 972.19L908.08 985.39L908.08 1097.59L885.07 1098L872.71 1097.27L865.19 1094.83L863.89 1092.86L863.16 1080.39L863.16 1056.45L863.26 957.7L864.77 951.62L866.22 945.75L870.59 939.62L873.81 932.87L878.06 927.99L879.88 923.52L887.15 915.83ZM977.66 915.83L1030.05 915.83L1041.42 915.42L1052.33 916.46L1058.87 920.09L1065 924.71L1069.41 926.64L1078.7 935.52L1085.45 946.01L1086.8 952.19L1088.62 955.62L1089.71 961.23L1091.69 965.34L1092.46 977.39L1092.15 989.85L1092.15 1037.75L1092.62 1051.82L1091.48 1065.22L1087.01 1074.11L1085.35 1080.76L1078.08 1089.07L1069.77 1096.55L1060.53 1097.9L1050.25 1097.59L972.46 1097.33L967.01 1095.35L961.77 1092.91L955.74 1091.4L952.37 1086.21L949.82 1080.18L947.38 1077.38L945.31 1074.26L944.42 1063.98L941.46 1057.85L940.74 1047.25L941 1036.29L940.84 1028.66L941.67 1021.54L946.03 1016.14L950.24 1010.68L954.5 998.11L954.5 997.33L959.22 995.77L963.33 993.13L971.84 988.24L1000.97 987.36L1028.18 988.81L1029.84 995.05L1030.36 1006.94L1030.05 1028.03L1030.15 1030.37L1029.32 1031.77L1029.32 1032.55L1006.84 1032.55L994.38 1033.17L990.59 1035.41L987.99 1039.04L986.8 1048.03L988.25 1050.78L990.85 1052.39L996.92 1054.06L1000.97 1055.98L1021.64 1056.71L1040.69 1055.04L1044.48 1050.47L1046.72 1045.12L1047.65 1031.93L1047.24 1018.32L1046.98 980.19L1044.9 974.69L1044.28 964.45L983.63 964.45L972.15 964.76L961.87 963.41L959.48 959.1L960.68 953.23L965.61 943.1L966.8 937.6L969.3 930.01L969.3 927.68L970.18 926.33L977.66 915.83ZM1304.63 915.83L1357.75 915.83L1368.76 915.47L1379.3 916.35L1396.96 923.52L1405.06 928.97L1411.96 935.62L1413.94 940.04L1418.56 944.97L1422.35 950.38L1423.28 977.85L1421.57 1003.77L1419.13 1006.37L1418.92 1011.05L1417.05 1013.02L1413.88 1014.58L1413.11 1014.58L1413 1017.75L1411.65 1019.77L1407.13 1020.55L1407.29 1023.67L1406.41 1025.8L1406.41 1026.53L1398.62 1027.41L1395.14 1030.06L1391.35 1032.14L1371.25 1032.14L1363.72 1029.64L1347.11 1029.75L1339.11 1028.34L1336.2 1026.68L1334.49 1024.03L1333.81 1010.84L1333.5 1000.55L1334.39 990.79L1336.26 987.78L1339.63 985.85L1349.24 984.24L1368.97 984.55L1377.33 982.06L1379.09 981.85L1380.24 980.92L1380.91 980.92L1379.61 971.93L1377.54 968.56L1374.01 965.49L1366.68 964.14L1358.48 964.45L1328.57 964.45L1323.85 964.3L1320.37 965.18L1319.59 965.18L1316.94 973.44L1316.63 1013.8L1316.16 1027.77L1317.04 1041.43L1319.69 1047.72L1324.36 1052.71L1335.74 1053.9L1348.04 1053.49L1411.65 1053.49L1417.52 1053.38L1422.09 1054.21L1422.87 1054.21L1422.87 1059.46L1425.93 1059.3L1428.06 1060.19L1428.84 1060.19L1428.22 1071.25L1422.24 1083.87L1419.86 1087.15L1418.92 1092.44L1418.09 1094.57L1415.55 1096.65L1403.71 1098L1390.67 1097.59L1331.58 1097.59L1317.93 1098L1304.74 1097.12L1291.65 1091.04L1288.54 1088.13L1285.06 1086.11L1283.24 1085.85L1282.2 1084.86L1281.42 1084.86L1279.76 1079.67L1278.46 1074.42L1274.72 1071.35L1272.23 1067.56L1271.71 1055.72L1271.71 1031.77L1271.92 954.74L1275.55 945.8L1277.68 942.74L1277.63 940.82L1278.46 939.78L1282.67 932.51L1288.74 926.43L1293.16 924.51L1298.25 920.04L1304.63 915.83ZM1463.99 915.83L1511.92 915.83L1521.89 915.42L1530.77 917.29L1533.42 920.97L1534.2 926.58L1531.96 940.4L1526.98 952.97L1524.43 956.97L1522.36 958.48L1522.46 961.54L1521.58 963.67L1521.58 964.45L1506.1 964.04L1492.19 965.34L1488.35 968.24L1485.65 972.19L1484.56 982.22L1484.97 992.87L1484.97 1090.11L1485.07 1092.81L1484.19 1094.63L1479.15 1096.81L1473.39 1097.69L1461.03 1097.59L1448.57 1097.95L1442.65 1097.07L1438.39 1094.16L1436.78 1080.7L1437.04 1065.48L1437.04 972.66L1436.78 961.28L1437.51 950.32L1442.03 943L1444.78 939L1446.03 935.21L1446.75 933.81L1450.54 929.03L1455.11 924.87L1463.99 915.83ZM453.93 918.85L563.13 918.85L574.25 919.31L577.31 922.27L577.93 927.47L576.74 932.35L574.4 934.53L573.83 937.86L571.39 939.78L570.72 947L566.25 952.92L564.07 960.19L562.56 963.98L560.33 966.43L553.11 967.67L545.22 967.41L498.07 967.41L489.71 967.15L482.08 968.35L479.22 971.1L478.18 974.89L478.81 980.04L482.08 983.67L487.95 984.76L494.33 984.61L519.05 984.66L531.62 985.07L535.67 987.05L542.47 988.97L550.88 996.61L556.85 1000.09L561.58 1005.23L562.82 1013.75L564.8 1017.75L566.09 1024.03L568.01 1028.08L568.38 1042.21L568.01 1063.87L566.2 1068.03L564.85 1074.21L562.67 1079.67L562.61 1082.73L561.68 1084.86L561.68 1085.64L556.02 1087.72L551.76 1091.56L547.82 1095.35L542.93 1097.38L414.31 1097.59L415.09 1092.7L417.27 1089.38L418.05 1089.38L418.37 1083.92L420.39 1079.46L421.79 1073.28L423.56 1070.47L426.36 1064.45L427.76 1059.1L431.04 1054.63L438.93 1053.28L447.96 1053.49L519.78 1053.49L521.7 1053.54L522.74 1052.71L523.51 1052.71L523.62 1041.85L522.48 1036.81L519.26 1033.49L510.9 1032.19L501.81 1032.55L475.64 1032.5L463.8 1032.03L460.27 1030.21L452.79 1026.53L445.83 1021.95L440.8 1018.94L440.07 1016.4L438.93 1014.58L435.97 1009.33L433.68 1005.38L433.01 1000.35L430.46 995.72L430 977.18L429.58 963.52L430.46 950.32L435.97 939.78L435.86 937.86L436.75 936.77L441.06 929.03L444.33 926.53L447.86 924.61L453.93 918.85ZM1146.05 918.85L1253.02 918.85L1264.03 919.47L1266.21 921.23L1266.99 924.25L1265.53 932.4L1260.55 947.26L1259.77 947.99L1257.85 951.78L1256.81 955.93L1253.69 960.19L1249.49 963.52L1240.04 964.87L1229.81 964.45L1166.25 964.56L1161.27 965.6L1157.27 968.92L1157.99 980.14L1161.11 983.98L1165 986.84L1171.7 987.78L1178.92 987.62L1210.34 987.62L1226.02 988.09L1231.37 991.46L1236.19 996.03L1239 996.87L1241.02 998.11L1241.8 998.11L1241.65 1002.37L1242.53 1005.59L1242.53 1006.37L1248.5 1008.55L1251.3 1017.59L1251.51 1048.97L1250.94 1064.5L1248.66 1068.7L1247.41 1074.94L1242.74 1080.5L1240.82 1084.7L1236.25 1090.11L1230.85 1094.57L1222.75 1097.22L1213.35 1098L1193.88 1097.59L1097.4 1097.59L1097.76 1087.2L1099.89 1082.52L1101.24 1076.44L1106.33 1069.22L1108.46 1065.48L1109.34 1060.97L1117.86 1054.16L1128.97 1053.02L1140.76 1053.49L1195.38 1053.49L1201.3 1053.54L1205.87 1052.71L1206.6 1052.71L1206.6 1034.01L1205.87 1033.28L1205.87 1032.55L1148.23 1032.34L1142.31 1029.49L1136.29 1026.68L1133.95 1026.73L1132.55 1025.8L1131.77 1025.8L1131.88 1023.1L1131.1 1021.33L1131.1 1020.55L1126.53 1018.42L1123.83 1014.22L1117.03 1006.58L1115.73 998.16L1113.55 992.76L1113.08 975.67L1113.55 962.27L1117.18 954.17L1121.39 946.22L1122.63 939.93L1125.8 933.44L1129.85 928.61L1135.15 925.23L1146.05 918.85Z" />
		<g id="g761">
			<g id="Clip-Path: g763" clip-path="url(#cp1)">
				<g id="g763">
					<path id="path769" fill-rule="evenodd" class="shp0" d="M790.83 822.85L908.28 822.85L920.9 823.32C923.86 824 929.63 829.5 929.99 832.62C930.46 836.31 922.98 846.59 921.68 850.64L920.69 858.59C920.07 862.64 917.01 867.26 913.74 869.97C910.57 872.51 897.59 871.37 892.6 871.37L838.7 871.37C833.87 871.37 821.88 870.23 818.71 872.41C816.64 873.81 813.73 876.25 812.69 878.54C810.98 882.12 811.23 903.21 812.22 907.83L813.93 911.31C814.35 912.35 814.19 915.42 815.54 915.42L815.54 916.14L846.96 916.14C851.68 916.14 859.42 914.95 863.21 917.18C867 919.42 867.78 922.9 867.83 927.36C867.83 928.46 868.4 929.6 867.11 929.6C864.25 932.87 863.16 937.29 861.19 941.08C859.58 944.19 857.45 947.05 856.15 950.17L855.27 955.52C854.49 958.17 849.71 962.69 847.22 963.78C836.73 968.56 819.18 958.48 812.64 971.88C810.3 976.66 811.81 996.61 811.81 1003.57L811.81 1097.59L776.19 1097.59C771.51 1097.38 768.08 1097.02 767.31 1096.34C765.96 1095.15 764.76 1094 764.4 1092.24C763.36 1087.98 763.88 1082.89 763.88 1078.16L763.88 860.2C763.88 858.59 763.2 851.94 764.61 851.94C766.94 849.08 772.86 837.76 772.86 834.02L778.37 831.73L783.87 827.16C786.1 825.45 788.44 824.77 790.83 822.85ZM4.26 829.55C7.69 829.55 11.42 829.24 14.49 830.18L20.98 834.96C27.11 837.86 43.62 845.86 46.73 852.41C49.12 857.5 47.67 876.87 47.67 884.09L47.67 1028.14C47.67 1032.86 46.58 1039.88 48.97 1043.41C49.59 1044.29 50.21 1046.06 51.41 1046.06C51.41 1048.97 52.96 1051.46 55.56 1052.65C59.3 1054.37 82.35 1054.42 86.04 1052.65C89.52 1050.84 92.53 1044.45 93 1040.81L93.31 880.3L93.31 850.43C93.31 845.5 92.48 839.32 93.88 834.96C94.5 832.98 96.74 830.8 98.76 830.18C101.36 829.4 105.41 829.4 108.06 830.18L114.08 834.7L124.47 839.58L133.19 847.89L137.5 852.93C138.59 855.99 138.17 860.36 138.17 863.94L138.23 890.8L138.23 1028.14L138.64 1041.54L140.41 1045.02C142.48 1048.97 143.21 1052.81 148.72 1053.33C156.3 1054.06 171.82 1055.3 176.5 1050.01C178.05 1048.19 180.49 1042.06 180.7 1039.3L180.86 869.13L180.86 844.51C180.86 841.08 180.34 836.46 181.74 833.81C184.08 829.45 190.93 828.67 195.6 830.18L201.52 834.75C210.97 840.46 220.16 845.97 227.54 855.27C230.19 858.59 228.73 904.82 228.73 913.18L228.73 1057.28C228.68 1061.9 229.41 1067.15 228.16 1071.25L226.03 1075.25C222.76 1084.13 218.71 1088.5 210.56 1093.12C207.7 1094.68 204.43 1096.86 201 1097.33L91.08 1097.59L29.86 1097.59C28.82 1097.48 27.78 1097.33 26.79 1097.12C17.45 1095.15 3.48 1085.33 3.48 1074.47L2.75 1074.47C1.61 1073.07 0.93 1068.81 0.52 1063.04L0.52 832.57C2.13 831.79 3.01 830.96 4.26 829.55ZM641.13 878.85C655.3 881.13 649.33 904.25 649.33 915.42L654.06 918.48C660.13 920.51 674.88 919.16 682.3 919.16C685.99 919.16 689.47 919.88 692.79 919.88C693.42 922.59 693.42 931.83 689.78 931.83C691.29 939.05 679.81 963.93 672.9 966.79C668.75 968.56 662.88 967.26 658.37 968.04L652.34 970.63C651.3 970.89 650.11 970.79 650.11 972.14L650.16 1047.51C650.52 1049.33 651.51 1050.27 652.76 1051.62C654.63 1053.54 659.4 1055.77 662.1 1056.19C668.08 1057.17 691.44 1054.37 692.84 1059.67C694.3 1065.17 690.56 1066.11 690.56 1068.5L690.09 1073.59L687.55 1078.37L686.67 1083.72C684.8 1088.34 680.8 1091.92 680.8 1097.53L680.8 1097.59L643.41 1097.59C639.46 1097.53 634.22 1098.26 630.27 1097.53C629.24 1097.33 628.25 1097.07 627.47 1096.65L616.83 1086.99C615.68 1086.21 611.94 1086.16 611.94 1084.86L611.17 1084.86C610.59 1079.93 608.26 1076.96 608.21 1071.46C608.15 1070.47 608.47 1070.73 607.43 1070.73C604.73 1067.82 605.61 1065.64 604.26 1062.16C603.64 1060.65 602.23 1059.56 601.92 1057.95C600.31 1050.06 601.51 1040.24 601.51 1031.93L601.51 979.62C601.51 977.49 602.18 969.18 601.51 969.18C596.89 965.49 585.31 970.06 581.26 966.22C579.33 964.35 579.7 959.15 580.22 956.56C580.89 953.08 583.64 949.54 585.41 946.58L586.55 940.35L588.89 936.82C590.6 932.92 593.93 923.78 596.57 920.98C598.29 919.26 601.09 919.26 603.69 919.16C604.78 919.11 604.47 919.37 604.47 918.43L605.25 918.43C604.36 914.01 603.69 907.21 605.25 903.05C607.58 896.67 625.81 885.86 631.57 882.9C634.84 881.13 637.85 881.45 641.13 878.85ZM278.94 916.14L339.54 916.14L371.68 916.46C376.82 917.34 381.34 921.49 385.13 925.13L396.14 936.45L397.54 942.17L399.67 946.9C401.02 953.28 400.14 961.49 400.14 968.4L400.14 994.58C400.14 999.36 400.81 1005.07 399.52 1009.28L397.59 1012.66C393.18 1023.46 390.95 1025.64 380.04 1030.06C378.49 1030.68 377.19 1031.93 375.42 1032.24C366.13 1033.9 354.6 1032.66 344.79 1032.66L317.11 1032.66C316.02 1032.66 315.6 1033.12 315.6 1031.93L314.83 1031.93C314.46 1028.5 312.64 1026.63 312.18 1023.62L311.87 1002.79C311.87 998.68 311.35 993.8 312.44 990.27C312.96 988.45 315.5 986.06 317.32 985.54C320.49 984.5 324.69 984.87 328.33 984.87L347.75 984.82C350.03 984.76 352.83 984.82 354.65 983.88C356.16 983.05 357.3 980.4 358.96 980.4C357.98 976.87 357.82 973.28 354.08 971.52C351.28 970.27 347.43 970.69 344.01 970.69L320.07 970.69C314.46 970.69 307.3 969.7 302.31 971.31C300.96 971.73 297.64 973.75 297.64 975.15L297.53 1039.3C297.53 1040.76 296.55 1045.33 297.64 1045.33L301.38 1052.81L301.38 1053.54L398.69 1053.54C400.76 1053.54 409.12 1053.12 409.12 1055.04C410.32 1058.37 410.32 1064.81 409.12 1068.13L407.1 1071.77C406.73 1072.81 407.36 1074.47 406.16 1074.47C402.32 1081.74 401.39 1091.66 393.54 1096.55C392.92 1096.91 392.04 1097.22 391 1097.43L280.4 1097.38C279.72 1097.17 279.05 1097.02 278.48 1096.81L273.91 1093.17L269.44 1091.2L263.78 1086.63C262.8 1086.05 259.47 1086.11 259.47 1084.86L258.75 1084.86C257.91 1078.47 253.66 1077.74 252.98 1072.91L252.72 1002.01L252.72 964.71L253.03 944.61C253.66 940.92 257.6 934.22 259.37 930.69C261.76 925.75 269.03 924.56 273.23 922.07C275.57 920.66 277.23 918.17 278.94 916.14ZM887.36 916.14L938.97 916.14C944.01 916.14 952.84 914.74 956.78 917.18C958.65 918.38 960.63 920.56 960.88 922.95C961.2 926.79 951.43 953.49 948.73 953.49C948.84 955.47 948.06 958.74 945.72 958.74C945.62 960.19 945.88 963.93 944.27 963.93C937.47 965.96 919.19 962.58 914.77 966.06C912.75 967.62 909.79 969.91 909.01 972.4C907.71 976.09 908.28 981.28 908.28 985.59L908.28 1097.59L876.19 1097.59C871.11 1097.17 867.05 1096.34 865.39 1094.83L864.1 1092.86C862.8 1089.38 863.37 1084.5 863.37 1080.44L863.37 1056.55L863.47 958.01C863.58 952.97 866.43 950.74 866.43 946.01C870.69 942.64 871.31 937.49 874.01 933.18L878.27 928.3L880.14 923.83L887.36 916.14ZM977.92 916.14L1030.31 916.14C1037.27 916.14 1046.2 914.95 1052.59 916.77C1057.52 918.17 1060.84 922.33 1065.26 925.03L1069.67 926.95C1075.95 932.35 1082.86 938.79 1085.71 946.32L1087.06 952.45L1088.88 955.88L1089.97 961.49L1091.95 965.54C1093.45 972.87 1092.41 982.22 1092.41 990.06L1092.41 1037.85C1092.41 1045.75 1093.92 1058.32 1091.74 1065.28L1087.27 1074.16L1085.61 1080.76C1084.21 1083.56 1072.89 1094.83 1070.03 1096.55C1069.2 1097.07 1067.96 1097.38 1066.5 1097.59L1050.51 1097.59L972.72 1097.33C968.67 1096.81 965.66 1094.05 962.03 1092.91L956 1091.41C953.36 1089.9 951.64 1082.83 950.08 1080.24C948.84 1078.16 946.19 1076.7 945.57 1074.32L944.63 1064.03C944.22 1061.59 942.14 1060.24 941.67 1057.95C940.32 1051.41 941.26 1043.3 941.26 1036.4C941.26 1031.62 940.53 1025.8 941.88 1021.7C943.28 1017.33 949.2 1015.31 950.5 1010.84C951.02 1009.13 953.72 998.32 954.71 998.32L954.71 997.54C961.72 996.66 965.56 990.27 972.1 988.45C976.88 987.1 1026.16 987.26 1028.44 989.02C1031.66 991.46 1030.31 1021.75 1030.31 1028.14C1030.31 1029.33 1030.83 1031.93 1029.58 1031.93L1029.58 1032.66L1007.1 1032.66C1003 1032.66 998.17 1032.14 994.58 1033.28C988.87 1035.15 985.81 1042.11 987.06 1048.14C987.94 1052.86 993.55 1052.91 997.18 1054.11L1001.23 1056.03C1006.11 1057.07 1038.2 1057.28 1040.95 1055.15C1043.76 1052.91 1046.2 1048.45 1046.98 1045.17C1048.79 1037.33 1047.5 1026.94 1047.5 1018.48L1047.24 980.4C1046.98 978.01 1045.73 976.97 1045.16 974.95C1044.17 971.93 1044.54 968.19 1044.54 964.71L983.89 964.71C978.59 964.71 965.82 965.86 962.08 963.62C955.69 959.83 964.16 947.1 965.82 943.42L967.06 937.86C967.69 935.05 969.24 933.65 969.56 930.33C969.66 929.03 969.04 926.64 970.44 926.64C973.29 923.21 974.49 919.57 977.92 916.14ZM1304.94 916.14L1358.06 916.14C1364.92 916.14 1373.38 915.05 1379.67 916.72C1391.3 919.62 1404.17 926.43 1412.33 935.88L1414.25 940.35C1416.43 944.04 1421.72 946.32 1422.71 950.64C1424.01 956.35 1424.06 1000.4 1421.93 1003.93C1421.36 1004.81 1420.53 1006.53 1419.49 1006.53C1420.95 1015.15 1414.2 1012.97 1414.2 1014.74L1413.47 1014.74C1413.42 1016.14 1413.62 1019.93 1412.01 1019.93L1407.5 1020.71C1407.5 1021.96 1408.12 1025.96 1406.77 1025.96L1406.77 1026.68C1404.17 1026.68 1401.11 1026.53 1398.93 1027.57C1396.28 1028.76 1394.78 1031.72 1391.71 1032.24C1385.84 1033.23 1377.43 1033.23 1371.62 1032.24C1368.66 1031.77 1367.36 1030.06 1364.04 1029.8C1355.99 1029.12 1337.66 1032.5 1334.8 1024.19C1333.56 1020.5 1334.18 1015.31 1334.18 1011C1334.18 1004.66 1333.14 996.66 1334.7 991C1337.35 981.44 1360.09 985.18 1369.28 984.76C1373.02 984.56 1374.63 982.95 1377.64 982.27C1378.57 982.06 1380.55 982.32 1380.55 981.13L1381.27 981.13C1381.07 973.8 1380.24 969.7 1374.32 965.75C1370.99 963.52 1363.31 964.71 1358.84 964.71L1328.88 964.71C1327.32 964.71 1320.68 964.04 1320.68 965.44L1319.9 965.44C1319.43 968.92 1317.67 970.53 1317.25 973.7L1316.94 1014.01C1316.94 1022.68 1315.64 1033.28 1317.35 1041.54C1317.98 1044.6 1321.4 1051.46 1324.73 1052.81C1330.13 1054.94 1341.71 1053.54 1348.35 1053.54L1412.01 1053.54C1413.68 1053.54 1422.45 1053.02 1422.45 1054.32L1423.23 1054.32L1423.23 1059.51C1424.48 1059.51 1428.42 1058.89 1428.42 1060.24L1429.2 1060.24C1429.05 1063.98 1429.57 1067.98 1428.58 1071.3C1427.23 1075.56 1424.53 1079.72 1422.61 1083.87C1422.09 1085.02 1420.17 1085.85 1420.17 1087.15C1418.45 1091.41 1420.95 1093.9 1415.91 1096.65C1415.03 1097.07 1413.83 1097.38 1412.38 1097.59L1307.96 1097.59C1306.97 1097.48 1305.98 1097.27 1305.05 1097.12C1302.56 1096.55 1293.68 1092.5 1291.91 1091.04C1289.89 1089.28 1287.96 1086.73 1285.37 1086.11C1284.38 1085.85 1282.51 1086.21 1282.51 1084.86L1281.73 1084.86C1281.21 1080.76 1278.77 1078.73 1278.77 1074.47C1276.54 1072.86 1273.17 1070.26 1272.54 1067.56L1272.02 1055.77L1272.02 1031.93L1272.23 955C1272.49 952.09 1274.36 948.45 1275.87 946.06C1276.49 945.03 1277.99 944.4 1277.99 943.05C1278.2 941.91 1277.42 940.09 1278.77 940.09C1281.21 935.52 1284.12 929.7 1289.05 926.74L1293.47 924.82L1298.56 920.35C1300.69 918.69 1302.92 918.33 1304.94 916.14ZM1464.36 916.14L1512.28 916.14C1517.89 916.14 1526.98 914.69 1531.13 917.6C1540.84 924.35 1527.39 958.74 1522.72 958.74C1522.72 959.99 1523.34 963.93 1521.99 963.93L1521.99 964.71C1515.35 964.71 1497.07 963.36 1492.5 965.6C1490.32 966.63 1486.79 970.01 1486.01 972.4C1484.09 977.96 1485.33 986.69 1485.33 993.07L1485.33 1090.11C1485.33 1091.35 1485.85 1094.63 1484.56 1094.63C1481.75 1096.55 1478.32 1097.33 1474.64 1097.59L1445.25 1097.59C1442.5 1097.12 1440.16 1096.13 1438.76 1094.16C1436.26 1090.63 1437.46 1071.41 1437.46 1065.54L1437.46 972.92C1437.46 965.65 1436.58 957.34 1437.87 950.58C1438.6 946.48 1446.39 940.3 1446.39 935.52C1446.39 934.48 1445.97 934.12 1447.12 934.12C1448.93 930.64 1452.62 927.78 1455.42 925.18L1464.36 916.14ZM454.04 919.16L563.29 919.16L574.4 919.62C580.32 921.13 578.19 934.84 574.56 934.84C574.56 936.66 573.99 940.09 571.55 940.09L570.82 947.26L566.41 953.23C564.85 956.45 564.07 964.82 560.49 966.69C556.75 968.66 550 967.67 545.32 967.67L498.17 967.67C493.29 967.67 486.13 966.69 482.23 968.61C479.69 969.8 478.39 972.5 478.29 975.15C477.98 978.74 478.91 982.27 482.23 983.93C485.4 985.49 490.54 984.87 494.44 984.87L519.15 984.87L531.72 985.28L535.82 987.26C537.95 987.93 540.81 987.83 542.62 989.18L551.04 996.81C554.67 998.89 559.71 1001.07 561.73 1005.39L562.98 1013.9L564.95 1017.9L566.2 1024.19C566.72 1025.64 567.81 1026.47 568.12 1028.19L568.48 1042.37L568.17 1063.93C567.91 1065.59 566.98 1066.63 566.35 1068.08L564.95 1074.26C564.33 1076.24 563.08 1077.38 562.82 1079.72C562.67 1080.86 563.13 1084.86 561.78 1084.86L561.78 1085.64C552.75 1086.52 550.72 1096.65 543.04 1097.38L414.37 1097.59L414.42 1097.43L415.2 1092.7C415.61 1091.46 417.38 1090.83 417.38 1089.38L418.11 1089.38C417.27 1084.08 419.04 1083.51 420.49 1079.46L421.9 1073.33L423.61 1070.52C424.44 1068.39 425.63 1066.58 426.41 1064.5C427.92 1060.29 427.3 1057.64 431.14 1054.68C433.89 1052.6 443.86 1053.54 448.07 1053.54L519.88 1053.54C521.02 1053.54 522.89 1054.06 522.89 1052.81L523.62 1052.81C523.41 1046.53 525.54 1036.5 519.36 1033.59C515.1 1031.46 507.16 1032.66 501.91 1032.66L475.74 1032.6L463.85 1032.14L460.37 1030.32C455.13 1027.83 450.51 1025.85 445.94 1022.06L440.95 1019.15C440.17 1018.11 440.33 1014.74 439.03 1014.74C438.1 1013.75 436.28 1009.49 436.07 1009.49L433.79 1005.54C433.42 1004.24 434.1 1000.5 433.11 1000.5L430.57 995.93C429.32 990.53 430.1 983.31 430.1 977.39C430.1 968.76 428.85 958.64 430.52 950.58C430.98 948.19 436.07 941.03 436.07 940.09C436.07 938.9 435.5 937.08 436.85 937.08C437.79 935.26 439.91 930.69 441.16 929.34C443.34 926.79 445.42 926.69 447.91 924.92L454.04 919.16ZM1146.31 919.16L1253.33 919.16C1256.86 919.16 1261.17 918.74 1264.29 919.78C1272.49 922.59 1261.33 942.22 1260.86 947.52C1260.76 948.45 1261.12 948.3 1260.08 948.3C1257.8 950.79 1258.21 953.18 1257.12 956.19C1256.24 958.64 1252.08 962.63 1249.8 963.78C1245.02 966.12 1235.83 964.71 1230.12 964.71L1166.51 964.82C1164.69 964.87 1162.82 964.82 1161.58 965.86C1160.54 966.58 1158.67 969.18 1157.53 969.18C1158.05 971.21 1157.84 980.4 1158.31 980.4C1159.66 982.58 1162.77 986.11 1165.32 987.05C1169.16 988.45 1174.66 987.83 1179.23 987.83L1210.65 987.83L1226.33 988.3C1230.43 989.07 1233.03 993.8 1236.45 996.24C1237.6 997.02 1241.34 997.02 1241.34 998.32L1242.11 998.32C1242.11 999.78 1241.49 1005.75 1242.84 1005.75L1242.84 1006.53C1244.97 1006.79 1247.57 1008.76 1248.81 1008.76C1248.81 1012.4 1251.25 1014.11 1251.62 1017.75L1251.82 1049.07C1251.82 1054.21 1252.5 1059.93 1251.25 1064.55L1248.97 1068.76C1248.29 1070.94 1248.71 1072.96 1247.67 1074.99L1243.05 1080.55L1241.13 1084.7C1238.74 1087.82 1234.58 1092.7 1231.16 1094.57C1228.04 1096.24 1224.3 1097.17 1220.25 1097.59L1097.66 1097.59L1098.02 1087.25L1100.15 1082.57L1101.5 1076.45C1104.25 1071.15 1109.6 1067.72 1109.6 1061.02L1118.12 1054.21C1124.35 1052.14 1133.95 1053.54 1141.07 1053.54L1195.69 1053.54C1197.46 1053.54 1206.13 1054.01 1206.13 1052.81L1206.91 1052.81L1206.91 1034.11C1206.91 1033.12 1207.17 1033.38 1206.13 1033.38L1206.13 1032.66L1148.54 1032.45C1143.46 1031.93 1141.74 1027.25 1136.55 1026.84C1135.25 1026.73 1132.81 1027.25 1132.81 1025.96L1132.08 1025.96C1132.08 1024.66 1132.6 1021.44 1131.36 1021.44L1131.36 1020.71C1126.06 1019.88 1126.84 1017.96 1124.09 1014.37L1117.28 1006.79C1116.04 1004.4 1116.45 1001.02 1116.04 998.32L1113.86 992.97C1112.77 987.83 1113.34 981.44 1113.34 975.88C1113.34 971.41 1112.87 966.58 1113.86 962.53C1115.05 957.08 1119.62 951.78 1121.65 946.48L1122.89 940.25C1123.67 938.17 1125.07 935.68 1126.06 933.75C1130.21 925.96 1140.13 924.56 1146.31 919.16Z" />
				</g>
			</g>
		</g>
		<path id="path771" class="shp0" d="M985.13 280.29L985.13 300.34L825.05 208.97L825.05 251.51L986.38 339.09L986.33 507.55L825.05 424.18L825.05 540.53L1030.15 540.53L1030.15 167.16L1171.5 251.51L1171.5 680.99L319.71 681.72L319.71 249.28L459.8 165.18L459.8 540.53L664.91 540.53L664.91 424.18L504.82 506.77L504.82 339.09L664.91 251.51L664.91 208.97L504.82 300.34L504.82 132.67L744.98 0L985.13 132.67L985.13 280.29Z" />
	</g>
</svg>