<svg version="1.2" xmlns="http://www.w3.org/2000/svg" viewBox="0 0 1577 381" width="1577" height="381">
	<title>Willdan-Logo-REV-svg</title>
	<style>
		.s0 { fill: none;stroke: #ffffff;stroke-width: 12.6 } 
		.s1 { fill: #ffffff } 
	</style>
	<path id="Layer" class="s0" d="m48.6 35.7h336v337.2h-336z"/>
	<path id="Layer" class="s1" d="m490.7 21.9c-110.5 71.7-192.4 300.3-196.6 306.1-2.4 3.3-17.5 7.2-30.9 6.1-11-0.9-20.9-5.2-21.5-16.2-1.1-18.5-17.4-83.6-31.6-116.6-5.1-11.4-9.7-19-13.5-19.4-10.2 10.2-32.4 124.8-35.3 130.1-4.5 8.3-18.3 15.7-31.2 15.7-12.2-0.1-23.5-6.9-25.6-25.9-3.1-28.2-35.6-87.2-59.7-116.2-10-12.1-18.7-18.9-22.9-15.9-14.6 10.2-22.4 4.1-21.9 1.5 0.4-2 23.9-30.4 44.8-40.9 7.1-3.6 13.8-5.1 19.3-2.9q1.5 0.7 2.9 1.5 1.3 0.8 2.6 1.8 1.3 0.9 2.6 1.9 1.2 1.1 2.3 2.2c23.8 22.2 59.4 83.4 60.6 98.5 1.8-8.4 3.4-16.3 5.2-24.4 12.3-56.2 26.6-109 31.7-112.8 5.8-4.4 27.8-21 37.9-11.7q0.7 0.8 1.4 1.5 0.7 0.8 1.4 1.6 0.7 0.7 1.4 1.5 0.6 0.9 1.2 1.7c24.5 31.6 68.7 132.1 68.7 132.1q4.5-7.1 8.9-13.8 10.6-16.8 21.9-33.1 11.4-16.4 23.4-32.2 12-15.9 24.6-31.2 12.6-15.4 25.8-30.2c47.9-52.6 81.3-73.3 92.1-79.5 17.5-10.3 23.4 10.3 10 19.1z"/>
	<path id="Layer" fill-rule="evenodd" class="s1" d="m995.9 135.5v159.3h68.6v13.8l-95.3 0.1v-173.2zm-120.5 0v159.3h68.6v13.9h-95.2v-173.2zm-104.8 0h26.7v173.2h-26.7zm-98.3 143.3l49.2-143.3h14.8l-59.4 173.1h-23.6l-43.7-149.8-51.3 149.8h-23.7l-50.4-173.1h27.8l41.7 143.3 49.2-143.3h27.7zm886.9-143.4h14v173.2h-13.1l-118.4-132.5v132.5h-13.9v-173.2h13.9l117.5 132.5zm-147.9 173.1h-28.9l-27.3-64h-65l-27.5 64h-15.2l74.2-173.2h15.5zm-62.2-77.9l-26.4-61.9-26.6 61.9zm-101.7-12.8c0 63.1-44.9 90.7-94.7 90.7h-66.3v-173.1h42.4c44.6 0 67.8 1 91.1 19.5 21.6 17.3 27.4 41.2 27.5 62.9zm-27.9 3c0-18.7-4.2-43.9-25.1-59.7-17.5-13.2-38.6-13.2-58.6-13.2q-2.9 0-5.7 0-2.9 0-5.8 0.1-2.9 0.2-5.8 0.4-2.8 0.2-5.7 0.5v147.1c4.1 0.4 17.3 1.4 27.2 1.4 10.8 0 34.7 0 51.7-11.9 23.1-16.5 27.9-44.7 27.8-64.7zm-133.3 88.1v-0.4 0.4z"/>
</svg>