<svg version="1.2" xmlns="http://www.w3.org/2000/svg" viewBox="0 0 1596 1205" width="1596" height="1205">
	<title>Willdan-Logo-svg</title>
	<style>
		.s0 { fill: none } 
		.s1 { fill: #ffffff } 
		.s2 { fill: #c9cacc } 
		.s3 { fill: #005288 } 
	</style>
	<path id="Layer" class="s0" d="m416.7 1047.2c41.5 0.4 85.7-23.3 100.2-50.1 9.2-16.9 80.7-383.4 113.2-416.1 12.1 1.3 27.2 25.6 43.1 62.2-35.7 100.4-88.2 366-96 380.3-22.4 40.9-116.6 76-160.5 23.7z"/>
	<path id="Layer" class="s0" d="m449.3 669c-5.6 25.6-11.1 51.5-16.3 77.1-4.1-48.9-118-244.4-194-315.5q3.4-0.6 6.8-0.7 3.4-0.1 6.8 0.3 3.4 0.3 6.7 1.1 3.3 0.8 6.5 2c47.1 18.3 131.8 140.4 183.5 235.7z"/>
	<path id="Layer" class="s0" d="m700.7 288.3c3.7-0.4 7.5-0.4 11.2 0.2 3.7 0.5 7.4 1.6 10.8 3 3.5 1.5 6.7 3.4 9.7 5.8 52.5 48.9 154 259.9 205.8 371.8-9.4 14.5-18.9 29.2-28.5 44.2 0 0-141.5-321.3-219.9-422.3 3.5-1.4 7.2-2.3 10.9-2.7z"/>
	<path id="Layer" class="s1" d="m938.8 669.1q34.2-53.6 70.5-105.8 36.3-52.2 74.7-102.9 38.4-50.7 78.9-99.7 40.5-49.1 82.9-96.5v298.9c-143.6 252.2-234.3 500.8-242.4 511.6-11.8 16.2-126.2 38.5-159.2-6.9-35.4-3-67-16.7-69-52-3.5-58.9-55.7-267.1-101.4-372.6-35.6 100.4-88.2 366-95.9 380.3-22.8 40.9-117.1 76-160.9 23.7-38.9-0.3-75.1-21.8-81.9-82.6-9.9-90.4-114.2-279-191.1-371.5v-177.1c22.5-11.3 44.2-16.1 61.8-9.1q4.6 2.2 9 4.8 4.4 2.6 8.6 5.6 4.2 2.9 8.1 6.3 3.9 3.3 7.5 7 3.4-0.6 6.8-0.7 3.4-0.1 6.8 0.3 3.4 0.3 6.7 1.1 3.3 0.8 6.5 2c47.1 18.3 131.8 140.4 183.5 235.6 39.3-179.5 85.3-348.4 101.5-360.5 18.7-14.1 89.2-67.4 121.4-37.4q2.4 2.3 4.7 4.7 2.3 2.4 4.5 4.9 2.2 2.5 4.3 5.1 2.1 2.6 4.1 5.3c3.5-1.4 7.1-2.4 10.8-2.8 3.8-0.5 7.5-0.5 11.2 0 3.8 0.5 7.4 1.5 10.9 3 3.4 1.4 6.7 3.3 9.7 5.5 52.5 49 154 260 206.4 372.4z"/>
	<path id="Layer" class="s2" d="m1245.1 104.6v159.6q-42.4 47.4-82.9 96.5-40.4 49-78.8 99.7-38.5 50.7-74.8 102.9-36.3 52.2-70.4 105.8c-51.8-111.9-153.3-322.9-205.8-371.8-3-2.4-6.2-4.3-9.7-5.8-3.4-1.4-7.1-2.5-10.8-3-3.7-0.6-7.5-0.6-11.2-0.2-3.7 0.4-7.4 1.3-10.9 2.7q-2-2.8-4.1-5.4-2.1-2.7-4.3-5.2-2.2-2.6-4.5-5.1-2.3-2.4-4.7-4.8c-32.2-29.6-102.7 23.9-121.4 37.3-16.2 12.5-62.2 181-101.5 360.5-51.7-94.6-136.4-216.7-183.8-235q-3.2-1.2-6.5-2-3.3-0.8-6.7-1.1-3.4-0.4-6.8-0.3-3.4 0.1-6.8 0.7-3.6-3.7-7.5-7-3.9-3.4-8-6.3-4.2-3-8.7-5.6-4.4-2.6-9-4.8c-17.6-7-39.3-2.2-61.8 9.1v-311.4z"/>
	<path id="Layer" class="s2" d="m1002.8 1074.7c8-10.8 98.8-259.4 242.3-511.6v641.5h-1101.4v-611.5c76.9 92.5 181.2 281.7 190.7 371.1 6.9 60.7 43.1 82.6 81.9 82.6 44.3 52.3 138.5 17.2 160.9-23.7 7.8-14.3 60.3-279.9 96-380.3 45.7 104.9 97.8 313.7 101.3 372.6 2 35.3 33.6 49 69 52 33 45.8 147.1 23.5 159.3 7.3z"/>
	<path id="Layer" class="s3" d="m1572.4 70.4c-354.2 229-616.6 960-630 978.6-7.6 10.4-56 22.9-98.9 19.5-35.4-3-67-16.8-69-52-3.5-58.9-55.6-267.2-101.3-372.7-16.3-36.5-31-60.9-43.1-62.1-32.8 32.7-104 399.2-113.2 416.1-14.5 26.5-58.7 50-100.2 50-38.8-0.2-75-21.8-81.9-82.6-9.9-90.3-114.2-278.9-191.1-371.4-32.3-38.9-60.2-60.7-73.6-51-46.6 32.6-71.6 12.9-70 4.6 1.2-6.2 76.6-97.1 143.6-130.7 22.5-11.3 44.2-16.1 61.8-9.1q4.6 2.2 9 4.8 4.5 2.6 8.7 5.5 4.1 3 8 6.4 3.9 3.3 7.5 7c76.3 71 190.2 266.6 194.3 314.8 5.6-26.8 10.7-52.2 16.6-78 39.2-179.6 85.2-348.4 101.4-360.5 18.8-14.1 89.3-67.4 121.5-37.4q2.4 2.3 4.7 4.7 2.3 2.4 4.5 4.9 2.2 2.5 4.3 5.1 2.1 2.6 4 5.3c78.5 101 220 422.3 220 422.3 9.5-15 19-29.7 28.4-44.2q34.2-53.6 70.5-105.8 36.3-52.2 74.7-102.9 38.4-50.7 78.9-99.8 40.5-49 82.9-96.4c153.2-168.2 260.4-234.3 294.9-254.4 56-32.6 75 33.2 32.1 61.4z"/>
</svg>