<svg version="1.2" xmlns="http://www.w3.org/2000/svg" viewBox="0 0 1553 346" width="1553" height="346">
	<title>Logo_de_Walmart_Mexico_y_Centroamerica-svg</title>
	<style>
		.s0 { fill: #fdbb30 } 
		.s1 { fill: #ffffff } 
	</style>
	<g id="Layer">
		<g id="Layer">
			<g id="Layer">
				<path id="Layer" class="s0" d="m1455.6 1c1.3 0.9 3 1.3 4.3 2.2 3.5 2.1 6.1 5.2 5.7 9.5-1.8 19.1-3.5 38.6-5.2 57.6-0.5 4.8-4.8 7.8-10.4 7.8-6.1 0-10.4-3-10.9-7.8-1.7-19-3.4-38.5-5.2-57.6-0.4-4.8 2.2-7.4 5.7-9.5 1.3-0.9 3-1.8 4.3-2.2q5.9 0 11.7 0zm-35.5 89.3c-0.9 10.4-9.1 15.6-17.4 11.7-16-7.4-32-15.2-48.5-22.6-5.6-2.6-7.4-6-7.4-11.7 0.5-6 3.1-10.8 7-14.3 5.2-4.7 9.9-4.7 16-0.8 14.7 10.4 29.9 20.8 44.6 31.2 2.6 1.3 3.9 4.3 5.7 6.5zm132.1-21.3c0.5 4.8-1.7 7.8-6.5 10q-25.3 11.7-50.7 23.4c-4.7 2.2-9.5 0.4-13-5.2-3-5.2-2.6-10.4 1.8-13.4 15.6-11.3 31.2-22.1 47.2-33 3.5-2.6 6.9-2.1 10.8-0.4 6.5 3.5 10.4 10.8 10.4 18.6zm-118.3 153.4c2.2-22.5 3.5-42 5.2-61.1 0.5-5.2 4.8-7.8 11.3-7.8 6.1 0 10 3.1 10.4 7.8q2.6 28.6 5.2 57.2c0.4 7.4-7.4 13.5-16.9 12.6-9.5 0-15.6-4.8-15.2-8.7zm-86.6-58.5c-0.5-5.2 2.1-8.2 6.9-10.4 16.5-7.3 32.9-15.1 49.4-22.9 6.1-3.1 10.4-1.3 13.9 4.3 3.4 6.1 2.6 10.8-3.1 14.7-13.8 9.6-27.7 19.1-41.1 29.1-4.4 3-8.7 6.5-14.8 3.4-6.5-3.4-10.4-9.1-10.8-16.4-0.4-0.9-0.4-1.3-0.4-1.8zm205.4-1.7c-0.5 9.5-3.9 14.7-10 19.1-4.3 2.6-8.2 2.6-12.6-0.5-15.1-10.8-30.3-21.2-45.5-32-4.7-3.5-5.6-8.3-2.6-13.9 3.5-5.6 7.8-7.4 13.5-4.8 16.4 7.8 33.3 15.6 49.8 23 5.2 2.6 7.8 6.1 7.4 9.1z"/>
				<path id="Layer" fill-rule="evenodd" class="s1" d="m0.5 304.8c0.8-6.1 1.7-11.7 2.1-17.8 1.3-17.3 2.2-34.7 3.5-52.4 0-1.8 0.4-3.9 0.9-6.1 4.3 0 8.2-0.4 12.1 0 1.7 0.4 3.5 2.6 3.9 4.3 6.9 20.8 13.9 41.6 21.2 62.4 0.5 0.9 0.5 1.8 1.3 3.1 0.9-1.8 1.3-2.6 1.8-3.5 7.3-20.4 14.7-41.2 21.6-61.5 1.3-3.9 3.5-5.7 7.4-4.8 3 0.4 5.6 0 9.5 0 1.8 29.5 3.5 58.5 5.7 88-3.9 0-7.4 0-11.7 0-1.3-24.3-2.6-48.1-3.9-72.4h-0.5c-3 8.2-5.6 16.9-8.6 25.1q-7.8 21.5-15.6 42.9c-1.3 3.5-3.1 3.9-6.5 4.4-3.5 0-4.8-1.3-5.7-4.4-6.9-21.6-14.3-43.3-21.2-65-0.4-0.8-0.4-1.3-1.3-3.4-1.3 25.1-2.6 48.9-4.3 73.6-3.9 0-7.8 0-11.3 0-0.4-4.3-0.4-8.2-0.4-12.5zm419.4 40.7c-0.4-3-1.3-5.6-1.3-7.4 5.7-5.2 11.3-9.5 16.1-14.7 3.9-4.3 4.3-9.1 1.7-14.7-6.9-16.5-13.4-33-19.9-49.4-0.5-1.8-1.3-3.1-2.2-5.7 3.9 0 7.4-0.4 10.8 0 1.3 0 2.6 2.2 3.5 3.9 5.2 13.5 10 27.3 15.2 40.8 0.4 1.3 0.8 2.6 1.7 4.3 4.8-14.7 10-28.2 14.3-42.5 1.7-6 4.8-7.8 10.4-6.9 1.3 0.4 2.6 0 4.8 0.4-1.8 3.9-3.1 7.8-4.4 11.3-6.5 16.5-13 33.4-19.5 49.8-5.2 13-12.5 24.3-25.5 30.8-2.2 0-3.9 0-5.7 0zm193.7-295.5c9.6 0 18.7 0 27.8 0 0.8 0 2.6 2.1 2.6 3.4 6 31.2 11.7 62.4 17.7 93.2 0 0.9 0.5 1.7 0.9 4.3 7.8-34.2 15.6-67.1 23-100.9q14.3 0 28.6 0c0.8 0 2.1 2.1 2.1 3.4 6.5 31.2 12.6 62 19.1 93.2 0 0.9 0.4 1.7 1.3 3.9 3-16 6.1-30.8 9.1-45.5 3.5-17.3 6.9-34.2 10.8-51.1 0.5-1.3 2.2-3.5 3.5-3.5 8.2-0.4 16.5 0 25.6 0-0.5 2.6-0.9 4.8-1.3 6.9-10.9 41.2-21.7 81.9-32.5 123.1-0.9 3-1.8 4.3-5.2 5.2-17.4 2.6-27.3-3.5-30.8-20.8-5.6-26-11.3-52.4-16-76.3-7 29.1-14.8 60.3-22.1 91.5-0.9 3.9-2.6 5.6-7 6-13 1.8-21.6-1.3-26.4-10.8-1.7-3.9-3-8.2-4.3-12.1-8.7-35.6-17.4-71.1-26-107.1 0.4-2.6 0-3.9-0.5-6zm335.4 45c7.8-9.9 18.2-14.3 29.9-14.3 12.6 0 21.7 6.1 26.9 16.5 5.6-4.3 10.4-9.5 16.5-12.6 24.2-12.5 48.9 3.1 50.2 31.2 0.9 21.3 0.5 42.5 0.9 63.7 0 1.3-1.7 3.5-2.6 3.5-8.2 0.4-16 0-24.7 0 0-12.1 0-23.4 0-35.1 0-10.4 0-20.4-1.3-30.8-0.9-8.6-6.9-13.8-14.3-14.3-8.2-0.4-15.2 4.4-17.3 12.6-0.9 2.6-0.9 5.6-0.9 8.2 0 15.2 0 30.4 0 46 0 13 0 13-13.4 13-4.8 0-9.1 0-14.3 0 0-2.6 0-4.4 0-6.1 0-17.3 0-34.2 0-51.6 0-4.7-0.9-9.5-2.6-13.4-3.9-9.5-15.2-11.7-23-5.2-5.6 4.8-7.8 10.8-7.8 18.2 0 17.3 0 34.2 0 51.6 0 1.7 0 3.9 0 6q-13.6 0-27.3 0c0-32.9 0-66.3 0-99.6 8.2 0 16.5 0 25.6 0-0.5 4.7-0.5 8.6-0.5 12.5zm-158.1 13.5c-1.8-5.7-3.5-10.4-4.4-15.6-0.4-1.3 0.9-3.9 2.2-4.8 16.5-7.4 33.4-10 51.1-5.2 16.5 4.3 26 18.2 26 37.3 0 15.1 0 30.3 0.5 45.9 0 5.6 0.8 11.3 0.8 16.9-10.8 4.8-19.5 1.7-27.3-9.5-7.8 8.6-17.7 12.5-29 12.5-15.2 0-26.9-8.2-30.8-21.6-4.3-13.9 0.9-28.6 13.5-36.9 11.7-7.8 25.1-9.5 38.5-10.4 1.8 0 3.9 0 5.7 0 0.8-9.9-4.8-15.6-14.8-16.4-11.7-0.9-22.1 1.7-32 7.8zm47.6 26.8c-9.1 0-17.7 0.5-25.5 5.2-6.1 3.5-8.3 10.4-6.1 17.4 1.7 5.6 6.9 8.2 14.3 7.8 10-0.9 16.9-7.8 17.3-17.4q0-6.5 0-13zm302.5-17.7c0.4-10-4.8-15.6-14.7-16.5-11.3-0.9-21.7 1.7-32.1 7.4-1.7-6.1-3.5-12.2-5.6-19.1 5.6-2.2 10.4-4.8 16-5.6 10.4-1.3 20.8-3.1 30.8-2.2 20.3 1.3 33.3 16.9 33.8 38.6 0 15.6 0 30.7 0.4 46.3 0 5.7 0.9 11.3 1.3 16.9-11.3 4.8-20.8 1.8-27.3-9.5-6.5 6.5-14.3 10.8-23.4 12.1-16 2.6-30.8-5.2-36-19-5.6-15.2 0-31.2 13.9-39.9 11.3-6.9 23.8-8.7 36.8-9.1 2.2-0.9 3.9-0.4 6.1-0.4zm1.3 17.7c-9.5 0.5-18.6 0.5-26.4 6.1-4.8 3.5-6.5 8.7-5.7 14.3 0.9 4.8 3.5 7.8 7.8 9.5 10.4 3.9 23.4-4.3 24.3-15.6 0.4-4.7 0-9.1 0-14.3zm160.3 26.5q0 9.7 0 19.5c0 0.8-1.3 2.6-2.1 2.6-9.6 2.1-19.5 3.4-29.1 0.4-11.7-3.9-18.2-13.9-18.2-29.5-0.4-32 0-64.1-0.4-96.2 0-2.6 0-5.2 0-8.2 9.1 0 17.8 0 26.9 0 0 10 0 20.4 0 30.8 8.2 0 15.6 0 23.4 0 0 8.6 0 16.9 0 25.5q-11.1 0-23.4 0c0 3.9 0 7 0 10 0 10 0 19.9 0 29.5 0.4 13.4 4.3 16.9 18.2 15.6 1.3 0.4 2.6 0.4 4.7 0zm-95.3-78.5c0 6.1 0 11.7 0 19.1 6.9-15.2 17.3-23.4 33.8-21.2 0 8.6 0 17.3 0 26.4-1.7 0-3.5-0.4-5.2-0.4-14.7-0.9-24.7 8.2-24.7 22.9 0 15.6 0 31.7 0 47.3 0 1.7 0 3.9 0 6-9.5 0-18.6 0-28.2 0 0-33.3 0-66.3 0-100.1 7.8 0 15.6 0 24.3 0zm-326.7-33.3c9.1 0 17.7 0 26.8 0 0 44.6 0 88.8 0 133.4-8.6 0-17.7 0-26.8 0 0-44.2 0-88.4 0-133.4zm119.1 263.9c-4.3 0-7.3 0-11.2 0 0-10.9 0-21.3 0-31.7 0-3 0-6-0.5-9.1-1.3-9.1-5.6-13.8-12.5-13.8-7.4 0-14.3 6.5-14.8 14.7-0.4 11.3-0.4 23-0.4 34.2 0 1.8 0 3.9 0 5.7-3.9 0-7.4 0-11.3 0 0-20.8 0-41.6 0-62.9 3.1 0 6.1 0 9.6 0 0.4 2.6 0.4 5.2 0.8 8.3 16.5-14.3 28.2-13.5 38.2 1.3 2.1-2.2 3.9-4.4 6-6.1 13-11.3 31.7-5.2 35.1 11.7 1.3 6.1 1.3 12.6 1.3 19.1 0 9.5 0 18.6 0 28.1-3.9 0-7.3 0-11.7 0q0-14.3 0-28.6c0-4.3 0-9.1-0.8-13.4-1.3-8.7-6.5-13.4-13.5-13-7.3 0.4-13.4 6.9-13.8 15.2-0.5 12.1 0 23.8 0 35.9-0.5 1.8-0.5 2.6-0.5 4.4zm-420.7-85.4c-0.9 3-1.8 5.6-2.6 8.7-18.2-5.2-36-6.1-46.8 12.1-8.7 13.9-8.7 29.9 1.3 43.8 11.7 16 28.6 14.3 45.5 9.5 0.4 1.3 0.8 3 1.3 4.3 0.4 1.3 0.4 2.6 0.8 3.9-10.4 7-40.3 8.3-55-6.9-14.7-15.2-16-44.6-3-62.4 13.4-18.6 42-20.8 58.5-13zm-198.5 58.5c0.4 28.6-28.6 37.3-45.9 28.2-12.2-6.5-16.5-17.4-16.1-30.4 0.5-13 5.2-24.2 17.8-29.9 11.7-5.2 23-4.3 33.4 3.9 8.2 6.5 10.8 16.1 10.8 28.2zm-28.6-26c-8.2 0-13 2.6-16.5 6.9-6.5 9.1-6.9 24.3-0.4 33.4 7.4 10.8 21.2 10.8 28.6 0 6.5-9.1 6.5-24.3 0-33.4-3.5-4.3-8.2-6.9-11.7-6.9zm519.1 21.2c0 23.9-19.9 39-41.6 32.1-12.1-3.9-19.5-14.3-20.8-29-2.1-23.9 18.7-41.2 41.2-34.3 13.4 3.5 21.7 15.2 21.2 31.2zm-10.8 0.5c-1.7-5.7-2.6-11.3-5.2-15.6-6.5-12.2-23-12.2-29.9-0.5-6.1 10-6.1 20.8 0 31.2 6.9 11.7 21.7 12.2 29 0.9 3.1-4.8 4.4-10.4 6.1-16zm-262.2 2.1c0 12.6 7 20.8 19.1 21.3 6.5 0 13-0.9 19.9-1.8 0.5 1.8 1.3 4.4 2.2 7.4-13.4 4.8-26.9 6.9-39.4-0.9-11.7-7.3-14.8-19-13-31.6 0.8-6.5 3.4-13 6.9-18.6 6.1-9.6 19.1-13.5 30.3-10 10 2.6 16.9 11.3 18.2 23 0.5 3.4 0 7.3 0 11.2q-22.1 0-44.2 0zm32.5-9.1c0.9-10.4-5.2-17.7-14.3-17.7-9.9-0.5-17.7 7.8-17.3 17.7 10.4 0 20.8 0 31.6 0zm-471 11.7c-14.7 0-29.5 0-43.8 0-1.7 15.6 11.7 27.8 38.6 18.7 0.9 2.6 1.3 5.2 2.6 8.6-13.4 4.8-26.4 7-39-0.4-11.7-6.9-14.7-18.2-13.9-31.2 0.9-10.8 4.4-20.4 14.3-26.4 17.4-11.3 39-1.3 41.6 19 0 3.5-0.4 7.4-0.4 11.7zm-11.3-8.6c0-11.7-6.5-18.7-16.4-17.8-9.1 0.4-16.5 9.1-15.2 17.8 10.4 0 20.8 0 31.6 0zm961.2 6c-15.2 0-29.5 0-43.8 0-1.3 10.4 5.6 20.4 16 20.8 7.4 0.5 14.8-0.4 22.6-1.3 0.4 1.8 0.8 3.9 1.7 6.5-11.7 7-36.8 7.8-46.8-6.9-9.5-13.9-6.9-37.7 6.1-48.5 8.6-7 18.6-8.3 29-4.4 10 3.9 13.9 12.6 15.6 23-0.4 3.5-0.4 6.5-0.4 10.8zm-12.2-9.1c0.9-9.9-4.7-17.3-13.8-17.7-10-0.9-17.8 6.5-18.7 17.7q16.9 0 32.5 0zm160.8-14.3c-3.9-6.5-3.5-7.8 3.9-9.5 6.9-1.7 14.7-2.6 22.1-1.7 9.5 1.3 15.6 8.6 16 19 0.9 14.8 0 29.5 0 44.7q-3.9 0-9.1 0c-0.4-2.2-0.8-4.4-0.8-5.2-5.7 2.1-10.9 5.6-16.9 6.9-9.6 2.2-17.8-3-21.3-11.3-3.4-8.6-0.4-18.2 7.4-23.8 6.9-4.8 14.7-6.1 22.5-6.5 2.2 0 3.9 0 6.1 0 1.3-9.5-3.9-16-13-15.6-5.2 0-10.8 1.7-16.9 3zm31.2 20.8c-7.8-0.8-16 0.5-20.8 3.5-4.8 3-6.9 9.1-4.8 14.7 1.8 4.4 6.1 7 11.7 6.1 7.8-0.9 13.9-6.9 13.9-14.7 0-3.1 0-6.1 0-9.6zm-358.8 31.7c-3 0-6.1 0-9.5 0-0.5-2.2-0.5-3.9-0.9-5.2-5.6 2.1-10.8 5.6-16.9 6.9-9.5 2.2-18.2-3-21.2-11.3-3.5-8.6 0-19.5 8.6-23.8 7-3.5 14.8-4.3 22.1-6.5 1.8-0.4 3.9-0.4 6.1-0.4 0.4-15.2-10-19.1-30.3-11.3-3.9-7.4-3.9-8.7 3.9-10.4 6.5-1.7 13.8-2.6 20.3-1.7 10.9 0.8 17.4 9.5 18.2 22.1 0.5 7.8 0 15.1 0 22.9-0.4 5.7-0.4 11.7-0.4 18.7zm-11.7-32.1c-7.8 0-14.7 0-21.2 3.9-4.8 3-6.1 7.4-5.2 12.6 0.4 4.3 3 6.9 7.3 7.8 9.1 2.1 18.7-4.8 19.1-14.3 0.4-2.6 0-6.1 0-10zm-250.5 32.1c-4.3 0-7.8 0-11.7 0 0-21.3 0-42.1 0-62.9 3.1 0 6.1 0 10 0 0.4 2.6 0.4 5.7 0.4 7 5.2-2.6 10.9-7 16.5-8.3 15.2-3 26 6.1 26.9 22.1 0.8 13.9 0 27.8 0 41.6-3.9 0-7.4 0-12.2 0 0-8.2 0-16.9 0-25.1 0-4.8 0-9.5 0-14.7-0.4-8.7-5.2-14.3-12.5-14.8-7.8-0.8-14.8 4.4-16.9 12.2-0.9 2.6-0.9 5.6-0.9 8.2 0.4 11.7 0.4 23 0.4 34.7zm-445.4-60.3c-6.1 8.7-12.2 17.8-18.2 26-2.6 3.5-2.6 5.7 0 9.1 6.5 9.1 12.5 18.2 19 28.2-4.3 0-8.2 0.4-11.7 0-1.3 0-3-1.7-3.9-3-4.7-7-9.5-13.9-14.3-21.7-3.9 6.1-8.2 11.3-10.8 17.3-3.9 7.8-9.5 8.3-17.8 7 4.8-7 9.6-13.5 13.9-20.4 2.6-3.9 7.4-7.8 7.4-11.7 0-3.9-4.4-7.8-7-11.7-4.3-6.5-8.6-12.6-13-18.6 8.7-2.6 12.2-1.8 16.9 5.2 3.5 5.2 7 10.8 10.9 16 0 0 0.4 0.4 0.8 0.9 3.1-4.8 7-9.6 9.1-14.8 3.9-7.3 9.6-9.9 18.7-7.8zm1017.9 49.9c0.4 2.1 1.3 3.9 1.3 6 0 1.3-0.5 3.1-1.3 3.5-13.9 8.7-37.7 1.3-45.1-13.9-6.5-13.4-3.5-31.2 6.9-40.7 10-9.5 27.8-11.7 40.3-5.2-0.8 2.6-1.7 5.2-2.6 8.2-12.1-3.9-23.8-4.7-32 7-5.7 8.2-5.2 21.2 0.4 29 9.1 11.3 20.4 9.5 32.1 6.1zm-932.6-39c-14.3-4.8-24.7-2.6-30.7 5.6-6.5 8.7-6.5 22.1 0 30.8 6 8.2 16 10.4 31.2 5.6 0.8 2.6 1.3 5.6 2.1 8.2-13 7.8-33.3 4.8-42.9-6-9.5-11.3-9.9-32.1-0.4-44.2 10-12.2 29.5-16.1 42.9-8.3-0.4 1.3-0.9 3.1-0.9 4.4q-0.6 1.3-1.3 3.9zm435.1-13.9c5.6 0 10.8 0 16 0 0 3 0 5.6 0 8.7-5.2 0-10.4 0-16 0 0 7.3 0 14.3 0 21.2 0 4.8 0 9.5 0 13.9 0 9.1 3 11.7 12.1 11.2 0.9 0 1.8 0 2.6-0.4 2.6 8.7 2.2 9.1-6.5 10.4-11.7 1.3-19-4.8-19.5-16.5-0.4-11.2 0-22.1 0-33.3 0-1.8 0-3.9 0-6.1-3.4 0-6.5-0.4-9.9-0.4 0-3.1 0-5.7 0-8.7 3 0 6-0.4 9.9-0.4-1.7-8.7 0.5-15.2 11.3-14.3 0 4.7 0 9.5 0 14.7zm411.7-0.9c0 3.9 0 7 0 10.4-15.2 1.8-19.5 7-19.5 22.6 0 10.4 0 20.8 0 31.6q-5.9 0-11.7 0c0-20.8 0-41.6 0-62.8 3 0 6 0 9.5 0 0.4 3 0.4 5.6 1.3 9.9 4.8-8.2 10.8-13.4 20.4-11.7zm-351.5 0c0 3.5 0 7 0 8.7-5.2 2.6-10.8 4.3-14.7 7.4-4.8 4.3-4.8 10.8-4.8 16.9 0 9.9 0 19.9 0 29.4 0 0.5 0 0.9-0.4 1.3-3.5 0-7.4 0-11.3 0 0-20.8 0-41.6 0-62.8 2.6 0 6.1 0 9.6 0 0.4 3 0.8 6.1 1.3 10.4 4.7-7.8 10.4-12.6 20.3-11.3zm374.9 64.2c-3.9 0-7.4 0-11.3 0 0-21.3 0-42.1 0-62.9 3.9 0 7.4 0 11.3 0 0 20.8 0 41.6 0 62.9zm-932.6 3c-3.9 0-7.3 0-10.8 0 0-0.9-0.4-1.7-0.4-2.6 0-19.9 0-40.3 0-60.7 3.9 0 7.3 0 11.2 0 0 20.8 0 42.1 0 63.3zm830.3-74.1c4.3-6.9 7.4-12.6 11.3-18.2 0.8-1.3 3.9-1.3 6-1.3 2.2-0.4 4.4 0 7.8 0-5.6 6.5-10.4 12.6-16 18.2-1.3 1.3-4.8 0.4-9.1 1.3zm-923.9-16.9c-5.6 6.5-9.9 12.6-15.1 17.8-1.8 1.7-5.7 1.3-8.3 2.1-0.4-0.4-0.4-0.8-0.8-1.3q5.2-8.4 10.4-16.9c0.8-1.3 3-1.3 4.7-1.7 2.6-0.4 5.2 0 9.1 0zm88.2 17.3c-3.9 0-7.1-3.3-7.1-7.3 0-4.1 3.2-7.4 7.1-7.4 4 0 7.2 3.3 7.2 7.4 0 4-3.2 7.3-7.2 7.3zm932.3-3c-4 0-7.3-3.2-7.3-7.2 0-3.9 3.3-7.1 7.3-7.1 4.1 0 7.4 3.2 7.4 7.1 0 4-3.3 7.2-7.4 7.2z"/>
			</g>
		</g>
	</g>
</svg>