<svg version="1.2" xmlns="http://www.w3.org/2000/svg" viewBox="0 0 1593 1561" width="1593" height="1561">
	<title>WI-logo-FULL-COLOR-official-2019-svg</title>
	<style>
		.s0 { fill: #ffffff } 
	</style>
	<g id="#717075ff">
		<path id="Layer" class="s0" d="m1141.5 0.5c61-0.2 122 0 183.1-0.1-62.2 73.4-124.7 146.4-187 219.6-19.5 22.3-37.7 45.7-58.1 67.1 20-95.7 42-190.9 62-286.6z"/>
	</g>
	<g id="#1e3d7dff">
		<path id="Layer" class="s0" d="m1337.6 495c80.4-107.8 165-212.6 254.6-312.9 0.2 408.1 0 816.2 0.1 1224.2 0.1 45.9-21.3 91.5-57.3 120-26.4 21.2-59.8 33.2-93.6 33.9-480.4 0-960.8 0-1441.2 0 0-402.2 0-804.4 0-1206.6 0.2-38.2 14.6-76.5 41.1-104.2 26-28.3 63.2-46.2 101.6-48.3 128.6-0.1 257.3 0.1 385.9-0.1 51.9 111.6 72.3 237.3 61.3 359.8-7.7 76.4-26.4 151.3-46.3 225.4-30.8 111.8-67.5 221.9-106.3 331.1-37.2 104.5-77.1 208.1-118.2 311.1 102-150.1 209.6-296.3 321.4-439.2 77-97.6 155.5-194.1 238.1-286.9-46.6 242.5-94.7 484.6-143.3 726.8 90.7-163 187.7-322.4 288.2-479.4 99.6-155 203.3-307.4 313.9-454.7z"/>
	</g>
</svg>