<svg version="1.2" xmlns="http://www.w3.org/2000/svg" viewBox="0 0 1554 909" width="1554" height="909">
	<title>wp-pl-logo-ai</title>
	<style>
		.s0 { fill: #e5282a } 
	</style>
	<g id="Layer 1">
		<g id="&lt;Group&gt;">
			<path id="&lt;Path&gt;" class="s0" d="m1218.8 253.7c-1.6 16.1-3.2 31.7-5.2 46.8-2.6 23.4-5.2 47.2-7.3 70.6l-10.9 104.4c-4.7 41.6-8.8 83.1-13.5 124.1-2.1 19.8-3.7 40-7.8 60.3-7.3 35.8-23.4 67.5-49.9 93.5-22.3 21.8-48.8 35.8-78.9 44.7-21.8 6.7-44.1 9.3-67.5 7.2-45.2-3.1-81-22.8-106.5-60.2-11.9-17.7-19.7-36.9-24.4-57.2-9.8-41-19.7-82.5-28.5-123.6-9.4-41-18.7-82.5-27.6-124.1-10.4-45.7-20.2-91.4-30.6-136.6-3.1-15.6-7.3-31.2-10.4-46.2-0.5-1.6-1-3.1-1-5.2-2.1-6.3-5.7-8.9-11.5-7.8-5.2 0.5-8.3 3.6-9.3 9.9-1 5.7-1 11.9-2.1 17.6-3.6 37.9-7.3 74.8-11.4 112.7l-9.4 98.2c-4.1 40-8.3 80.5-11.9 120.5-3.1 30.1-5.7 60.8-9.3 90.9-3.2 28.5-9.4 56.6-22.4 83.1-18.2 37.9-46.7 66.5-82 87.8-36.4 22.3-76.9 34.2-118.4 39.9-24.4 3.2-48.9 5.2-73.8 2.6-44.6-4.1-86.2-17.6-122-45.1q-35.9-28.1-54.5-70.2c-11.5-24.4-19.3-50.3-27.1-75.8-6.2-20.8-12.9-41.5-19.2-62.3-7.2-24.4-15-48.8-22.3-73.3-6.8-21.8-13.5-44.1-19.7-65.9-7.8-26-16.1-52.5-23.9-78.4-8.3-26.5-16.1-53-24.4-79.5-9.4-30.1-18.2-60.8-27.6-90.9-7.7-25.4-16.6-51.9-24.4-77.4-6.7-21.8-13.5-43.6-19.2-65.4-4.1-15.6-3.6-31.7 1.1-46.8 6.2-20.8 19.7-36.9 37.4-48.8 36.3-24.9 76.8-31.7 119.9-25.4 36.9 5.7 69.6 20.7 98.2 44.6 23.9 19.8 39.4 45.7 46.7 75.9 5.7 22.8 11.9 45.7 18.2 68.5 8.8 32.2 17.1 64.4 25.4 96.6 8.9 32.7 17.7 64.9 25.5 97.7 10.4 40 20.2 80 30.1 119.9 7.3 29.1 14.5 58.2 21.3 87.3 6.7 28 13.5 56.6 19.7 85.2 2.1 8.8 3.7 17.6 6.3 25.9q3.1 12.5 15.5 11c6.8-1.1 9.4-4.2 10.4-11.5 1.1-9.8 2.1-20.2 3.1-30.6 2.6-28.6 5.2-56.6 7.8-85.2 3.1-34.8 6.3-69.1 9.4-103.9 4.1-44.1 7.8-87.2 11.9-131.4 3.1-33.7 6.2-68 9.4-101.8 2.6-26 5.7-51.9 13.5-76.8 7.2-22.4 17.6-42.6 31.6-60.8 20.8-25.5 47.3-42.1 78.5-50.9 59.2-15.6 116.8-10.4 171.9 17.1 37.9 19.2 65.4 49.4 84.6 87.3 12.5 24.9 19.7 51.4 25.5 78.4l35.8 180.8c13.5 65.9 26 132.4 38.9 198.4 1.1 4.6 1.6 9.3 3.2 13.5 1 5.2 6.2 8.3 11.4 7.2q4.7-0.7 6.2-7.8c1.1-5.1 1.1-11.4 1.6-16.6 2.6-31.7 4.6-62.8 7.2-95 2.6-33.3 5.2-66 7.8-99.2 2.1-26.5 4.7-52.5 7.3-79 3.1-31.7 6.2-62.8 9.3-94.5 3.2-29.6 5.8-59.2 8.9-89.3 1-11.5 3.1-22.9 7.2-33.8 13.5-36.4 49.4-51.4 79-48.3 14 1.6 28.5 2.6 43.1 3.6 15 1.1 29.6 2.6 44.1 3.7 19.2 1.5 37.9 3.1 56.6 4.6 19.8 1.6 39.5 3.2 59.2 5.2 12.5 1.1 25 2.1 37.4 4.7 70.1 14 117.9 54.5 144.9 121 7.8 19.8 12.5 40.5 15.6 62.4 3.6 24.4 3.6 48.8 2.6 73.7-1.6 31.7-7.3 62.9-18.2 93.5-20.8 55.1-60.2 90.4-115.8 108-14 4.7-28.6 6.8-42.6 8.3-22.3 3.2-45.2 5.8-67.5 8.3-5.7 1.1-11.4 1.1-17.6 2.1-12.5 1.1-22.4-2.6-30.7-11.9-7.3-8.3-12.5-18.2-15-29.1-5.7-24.4-4.2-48.3 7.2-70.6 3.1-5.7 7.3-11.5 11.4-16.7 7.8-9.3 17.7-15.5 30.7-16.1 18.7-1 37.4-2 56.6-3.6 11.4-1 21.8-1.5 32.7-3.1 56.6-9.4 67-167.8-7.3-173.5-9.8-1-19.7-1-29.6-1-39.9-1.1-80.5-1.1-120.4-2.1-3.2 1-5.2 1-8.4 1z"/>
		</g>
	</g>
</svg>