<svg version="1.2" xmlns="http://www.w3.org/2000/svg" viewBox="0 0 1538 1533" width="1538" height="1533">
	<title>wfs-logo-svg</title>
	<style>
		.s0 { fill: #ffffff } 
		.s1 { fill: #00539b } 
		.s2 { fill: #cc2030 } 
	</style>
	<path id="Layer" class="s0" d="m1099.4 1457.3c-382.1 182.5-838.5 21.3-1021-360.8-182.6-382.1-21.3-838.4 360.8-1021 382-182.5 838.4-21.3 1021 360.8 182.5 382.1 21.2 838.4-360.8 1021z"/>
	<path id="Layer" class="s1" d="m115 1170.2c-71.3-117.8-114.7-254.2-114.7-403 0-424.7 344.1-765.7 765.7-765.7 179.8 0 344.1 62 477.4 164.3-155 77.5-334.8 220.1-511.5 468.1h-368.9l-170.5 251.1 337.9 3.1c-170.5 179.8-316.2 251.1-415.4 282.1z"/>
	<path id="Layer" class="s2" d="m291.7 1365.5c170.5-77.5 362.7-217 548.7-483.6h347.2l176.7-257.3h-316.2c155-164.3 285.2-238.7 372-269.7 74.4 117.8 117.8 257.3 117.8 409.2 0 424.7-344.1 765.7-765.7 765.7-189.1 3.1-350.3-55.8-480.5-164.3z"/>
</svg>