<svg version="1.2" xmlns="http://www.w3.org/2000/svg" viewBox="0 0 1555 450" width="1555" height="450">
	<title>wfs-logo-svg</title>
	<style>
		.s0 { fill: #ffffff } 
		.s1 { fill: #00539b } 
		.s2 { fill: #cc2030 } 
	</style>
	<path id="Layer" class="s0" d="m156.3 438.9c-53.9 25.7-118.2 3-144-50.8-25.7-53.9-3-118.2 50.9-143.9 53.9-25.8 118.2-3 143.9 50.8 25.8 53.9 3 118.2-50.8 143.9z"/>
	<path id="Layer" class="s1" d="m17.5 398.4c-10.1-16.6-16.2-35.8-16.2-56.7 0-59.9 48.5-108 108-108 25.3 0 48.5 8.8 67.3 23.2-21.9 10.9-47.2 31-72.1 66h-52.1l-24 35.4 47.7 0.4c-24.1 25.3-44.6 35.4-58.6 39.7z"/>
	<path id="Layer" class="s2" d="m42.4 426c24-11 51.1-30.6 77.4-68.2h48.9l24.9-36.2h-44.6c21.9-23.2 40.3-33.7 52.5-38.1 10.5 16.6 16.6 36.3 16.6 57.7 0 59.9-48.5 107.9-108 107.9-26.6 0.5-49.3-7.8-67.7-23.1zm320.4-115.8l-26.7 96.1h-43.7l5.3-17.9c-10.5 13.5-24.5 20.5-42 20.5-10.5 0-18.4-2.2-24-6.5-5.7-4.4-8.4-10.1-7.9-16.6 0-3.1 1.3-7.9 3.5-15.3l16.6-60.3h46.8l-15.3 54.6c-1.4 5.2-2.2 8.3-2.2 9.6-0.5 4.8 2.2 7 7.8 7 10.5 0 18-7.9 22.3-24l13.1-47.6h46.4zm527.1 0.4l-56.8 95.2c-8.3 14-17.1 22.8-25.8 26.7-8.8 3.9-19.2 5.7-31 5.7-6.2 0-12.3-0.5-18.8-1.8v-25.3q15 1.3 22.2 1.3 18.4 0 18.4-7.9c0-1.3-0.4-3.5-1.3-6.1l-28.9-88.2h47.3l10 38c1.8 6.5 2.6 10.5 3.1 12.2 0.8-1.3 1.7-2.6 2.6-4.8 0.9-1.8 1.7-3.5 3-5.2l23.6-39.8zm326.5 2.2h37.6l-3 14.8c8.3-11.8 19.6-17.4 34.1-17.4 14 0 23.1 5.6 27.9 17.4 7-11.3 18.4-17 33.3-17 9.6 0 17.4 2.2 23.6 7 5.6 4.8 8.7 11.3 8.7 19.2 0 2.6-0.4 5.7-0.9 9.2l-12.2 62h-42.4l10.9-56.8c0.5-3 0.9-5.2 0.9-6.5 0-5.7-3.1-8.3-8.7-8.3-3.5 0-6.6 1.3-8.8 3.5-2.2 2.2-4.4 7-5.7 13.5l-10.5 54.6h-41l10.9-56.8c0.9-3.5 0.9-6.1 0.9-7.4 0-3.1-0.9-4.8-3.1-6.1-1.8-1.3-3.9-1.8-6.1-1.8-2.2 0-4.8 0.9-7.9 2.2-3.1 1.3-5.2 6.1-6.5 13.1l-11 56.8h-39.7z"/>
	<path id="Layer" fill-rule="evenodd" class="s1" d="m207.2 203.6h-61.7l-6.9-112.3h-0.9l-56.8 112.3h-64.3l-16.6-203.6h69.1l5.6 117.5h0.9l59.5-117.5h57.7l7.8 117.5h0.9l60.3-117.5h56zm253.9-51.1c-19.2 36.7-61.2 53.7-103.6 53.7-26.2 0-50.7-4.3-67.3-19.6-15.7-14.5-21.4-35-16.2-56.8 4.8-20.6 19.3-42.9 39.4-57.3 21.8-16.1 50.7-23.6 76-23.6 59.5 0 87.9 32.8 76.5 82.6l-1.7 7.9h-119.4c-4.8 16.1-0.4 27.9 20.6 27.9 15.7 0 25.8-5.2 31.4-18.3zm-59.8-42.8c3-14.9 0.4-26.2-19.3-26.2-17.9 0-27.9 12.2-30.6 26.2zm126.4 44.5c0.4 14.5 19.2 16.2 34 16.2 7 0 26.7-0.9 28.9-9.6 2.2-7.4-21.4-9.2-27.5-9.6-36.3-4.4-79.2-10.9-70-51.1 4-17.1 17.9-31.1 36.7-39.8 19.7-9.2 40.3-11.4 59.9-11.4 33.2 0 66 11 71.3 39.4l-54.7 8.7c-3-10.5-15.7-13.5-27.9-13.5-5.3 0-22.8 1.3-24.1 7.8-0.9 4.8 4.4 7 8.8 7.9 7.4 1.7 20.9 2.6 29.2 3.5 15.8 1.7 33.3 3.9 45.9 11.3 14.5 8.8 20.1 22.3 16.2 38.5-9.6 41.9-64.2 53.7-104.5 53.7-39.7 0-73.8-10.9-79.1-45.8zm142.1-63.8l8.7-38.5h28.9l16.6-48.5 60.3-1.7-11.8 50.2h35.4l-8.7 38.5h-35l-12.2 52c-2.7 10.9-5.7 19.6 10.4 19.6 6.6 0 13.6-1.3 20.6-2.6l-9.6 42.4-42 4.3c-18.8 2.2-35.4-3-46.3-15.2-10.5-12.3-7-27.1-3.1-43.3l13.1-57.2zm161.8-38.9h63.8l-4.8 21.8h0.8c11.8-18.3 32.8-24.4 56.4-24.4 50.3 0 57.3 41.5 49 76.9-4 17-11.8 36.2-24.5 51.1-15.7 17.9-36.7 29.2-61.6 29.2-18.4 0-33.7-5.6-41.6-19.2l-14.8 64.2h-69.1l46.4-199.2zm47.6 93.1c-2.6 10.5-3.5 24.4 13.1 24.4 10.1 0 17.1-4.3 21.9-12.2 4.8-8.3 7.8-18.8 10-27.5 3.1-12.2 10.1-42.4-11.8-42.4-5.7 0-11.8 2.2-16.6 6.1-5.7 4.8-6.5 9.2-7.9 15.3zm322.6-15.7c-10.5 45.9-61.6 77.3-115.8 77.3-54.2 0-90.5-31.4-80-77.3 11.4-48.5 60.7-80 116.7-80 55.9 0 90.9 31.5 79.1 80zm-121.1-1.8c-9.1 40.7 1.3 43.7 14 43.7 12.7 0 24.5-3 34.1-43.7 3.5-14.8 9.2-41-14.4-41-24.1 0-30.2 26.2-33.7 41zm210.7-44.1c10.9-21 27.1-35.8 54.2-34.1l9.2 0.5-12.3 52.8q-6.5-1.3-13.1-1.3c-10.9 0-23.1 1.8-30.6 10.5-6.5 7.4-8.7 17.5-10.9 26.2l-15.3 66h-69l34.9-151.6h59l-7 31zm77.8 7.4l8.8-38.4h28.8l16.6-48.5 60.3-1.7-11.8 50.2h35.4l-8.7 38.4h-35l-12.2 52c-2.6 11-5.7 19.7 10.5 19.7 6.5 0 13.5-1.3 20.5-2.6l-10 42.3-42 4.4c-18.8 2.2-35.8-3-46.3-15.3-10.5-12.2-7-27.1-3.1-43.2l13.1-57.3zm152.1-81.2h-7.8v21.4h-6.6v-21.4h-7.8v-4.8h22.2zm33.7 21.4h-5.7v-21.4l-7.8 21.4h-3.5l-7.9-21.4v21.4h-5.7v-26.2h9.2l6.1 15.7 6.1-15.7h9.2z"/>
	<path id="Layer" fill-rule="evenodd" class="s2" d="m1009.7 337.3h-15.8l5.3-23.6h17.4l10.1-29.3 36.7-0.9-7 30.6h21.4l-5.2 23.6h-21.4l-7.5 31.9c-1.3 6.6-3.5 11.8 6.6 11.8 4.4 0 8.3-0.9 12.7-1.7l-6.1 25.7-25.4 2.7c-11.4 1.3-21.4-1.8-28-9.2-6.1-7.4-3.9-16.2-1.7-26.2l7.9-35zm407.7 39.8c0.5 8.7 12.3 10 21.5 10 4.3 0 16.6-0.4 17.9-6.1 0.9-4.8-13.6-5.7-17.5-6.1-22.7-2.6-49.4-6.6-43.7-31.9 2.6-10.9 11.4-19.2 23.2-24.9 12.2-6.1 25.3-7.4 37.5-7.4 21 0 41.1 6.5 44.6 24.4l-34.1 5.3c-1.7-6.6-10-8.3-17.4-8.3-3.5 0-14.5 0.8-15.3 4.8-0.9 3 2.6 4.4 5.2 4.8 4.8 0.9 13.1 1.7 18.4 2.2 10 0.8 20.9 2.2 28.8 7 8.7 5.6 12.2 13.9 10.1 24-5.7 26.2-40.3 33.6-65.2 33.6-24.9 0-46.3-7-49.4-28.8zm-514 0c0.5 8.7 12.3 10 21.5 10 4.3 0 16.6-0.4 17.9-6.1 0.8-4.8-13.6-5.7-17.5-6.1-22.7-2.6-49.4-6.5-43.7-31.9 2.6-10.9 11.3-19.2 23.1-24.9 12.3-6.1 25.4-7.4 37.6-7.4 21 0 41.1 6.5 44.6 24.5l-34.1 5.2c-1.7-6.6-10-8.3-17.5-8.3-3.5 0-14.4 0.9-15.3 4.8-0.8 3.1 2.7 4.4 5.3 4.8 4.8 0.9 13.1 1.8 18.3 2.2 10.1 0.9 21 2.2 28.9 7 8.7 5.7 12.2 14 10 24-5.6 26.2-40.2 33.7-65.1 33.7-24.9 0-46.3-7-49.4-28.9zm-253.9-11.8c0.4 12.3 15.7 13.6 28.4 13.6 6.1 0 22.3-0.5 24-7.9 1.4-6.6-17.9-7.9-23.1-8.3-30.2-3.5-66-8.7-58.2-42.4 3.5-14.4 14.9-25.8 30.6-33.2 16.2-7.4 33.3-9.6 49.9-9.6 27.9 0 55 9.2 59.4 32.8l-45.9 7.4c-2.2-8.3-13.1-10.9-23.1-10.9-4.9 0-18.8 1.3-20.2 6.5-0.8 4 4 5.7 7.5 6.6 6.1 1.7 17.5 2.2 24.5 3 12.6 1.8 27.5 3.5 38 9.7 11.8 6.9 16.6 18.3 13.5 31.8-7.8 34.6-53.7 44.6-87 44.6-33.2 0-61.6-9.2-65.9-38.4zm541.5 10c-11.8 23.2-38.5 33.7-64.7 33.7-16.2 0-31.5-2.7-42-12.3-10-9.2-13.1-22.3-10-35.8 2.6-12.7 11.8-26.7 24.5-35.8 13.5-10.1 31.9-14.9 47.6-14.9 36.7 0 55.1 20.6 47.7 51.6l-1.4 4.8h-74.7c-3.1 10-0.4 17.5 12.7 17.5 9.6 0 16.1-3.1 19.6-11.4zm-38-27.1c2.2-9.2 0.5-16.2-11.8-16.2-11.3 0-17.5 7.5-19.2 16.2zm-599.7-66.8l-29.3 127.1h-41.9l29.3-127.1zm-77.4 93.9c-11.8 23.1-38.5 33.6-64.7 33.6-16.2 0-31.5-2.6-42-12.2-10-9.2-13.1-22.3-10-35.8 2.6-12.7 11.8-26.7 24.5-35.9 13.5-10 31.9-14.8 47.6-14.8 36.7 0 55.1 20.5 47.6 51.5l-1.3 4.9h-74.7c-3.1 10-0.4 17.4 12.7 17.4 9.6 0 16.1-3 19.6-11.3zm-37.5-27.1c2.1-9.2 0.4-16.2-11.8-16.2-11.4 0-17.5 7.4-19.3 16.2z"/>
</svg>