<svg version="1.2" xmlns="http://www.w3.org/2000/svg" viewBox="0 0 1556 316" width="1556" height="316">
	<title>WRAP_BIG-svg</title>
	<style>
		.s0 { fill: #ffc209 } 
	</style>
	<g id="#1d3067ff">
		<path id="Layer" fill-rule="evenodd" class="s0" d="m530.3 0h214c9.6 0.7 19.3 0.2 28.9 1.8 13.8 2.1 28 7.3 37.6 18 9.6 10.5 13.1 25.1 13.3 39.1 0.4 33.2 0.2 66.4 0.2 99.5 0.1 15.2-3.6 31.1-14 42.6-7.6 8.6-18.7 13.5-29.9 14.6-17.4 1.6-35 1.9-52.4 2.5-4.9 0.2-9.8 0-14.6 0.8 29 19.5 58.2 38.9 87.3 58.4 42.9-91.1 85.6-182.3 128.4-273.4 0.8-1.9 2.5-3.7 4.7-3.5 21.3-0.1 42.5 0 63.8 0 1.6 0 3.5-0.1 4.6 1.4 2 2.6 3.1 5.9 4.7 8.8 49.2 101.6 98.6 203.1 147.9 304.7-25.4 0.3-50.8-0.1-76.2 0.2-2.5 0-6.1 0.7-7.4-2.2-35.9-80-71.4-160.1-107.4-240-13.4 30.4-26.9 60.7-40.3 91.1 10.3 0 20.7 0.3 31.1 0.2 8.7 0.1 17.4-0.5 26.2-0.1 3.4 0 5.9 2.8 7 5.9 6.9 16.3 14.7 32.1 21.9 48.3-35.4 0-70.8 0-106.1 0-2.3-0.2-4.8 0.7-5.6 3.1-13.4 30.2-26.7 60.4-40.1 90.6-1 2.8-4.2 2.9-6.7 2.8-31-0.1-62.1 0.1-93.1 0.2-3.1 0.1-6.5-0.2-9-2.3-40.2-30.6-80.4-61.3-120.6-92-1.6-1.2-3.5-2.2-5.6-2.4-8.5-0.6-17.1-0.4-25.7-0.2 0 32.2 0 64.5 0 96.7q-33.4 0-66.8 0 0-48.2 0-96.3-39.6 0-79.2 0c6.8-17.3 14-34.3 20.9-51.6 0.6-2.2 3-3.1 5.1-2.9 8.3 0 16.6-0.2 24.8 0.2 9.4-0.4 18.8-0.2 28.2-0.2 0.1-54.8-0.1-109.6 0.1-164.4zm67.1 55.1q0 53.3 0 106.7 54.9 0 109.8 0c9.3 0 18.6 0.1 27.9-1.2 5.8-0.7 11.9-3.4 14.8-8.9 4.1-7.7 3.4-16.7 3.4-25.1q0-19.9 0-39.8c0-5.6 0-11.3-1.3-16.8-1.4-5.7-5.7-10.5-11.3-12.2-10-3.2-20.7-2.4-31.1-2.5-37.4-0.4-74.8-0.1-112.2-0.2zm-596.9-53.9c1.7-0.1 3.4-0.2 5.1-0.2 22.5 0 45-0.1 67.6 0 2.4 0 3.5 2.5 4.1 4.5 26 68.8 51.9 137.7 78.1 206.4 10.5-25.7 20.5-51.7 30.8-77.5q25.7-64.9 51.4-129.9c0.6-1.8 2.1-3.6 4.2-3.5 15.4 0 30.7-0.1 46.1 0 3.1 0.3 3.7 3.9 4.8 6.2 27.5 68.4 55.1 136.7 82.8 204.9 25.4-70.3 50.8-140.6 76.2-210.9 21.5 0 43.1 0 64.6 0-11.7 31.3-24 62.4-35.9 93.6q-41.9 108.5-83.6 217c-0.7 2.3-3 3.7-5.3 3.4-10.9-0.2-21.8-0.2-32.8-0.2-3.6 0.1-7.3 0.5-11-0.1-1.6-0.3-2.3-1.9-2.8-3.2q-42.5-107.3-85.2-214.5c-29.1 71.7-57.8 143.4-86.7 215.1-1 3.3-4.8 3-7.5 2.9-9.6-0.3-19.1-0.2-28.7-0.2-4.5 0-9 0.5-13.5 0-2.8-0.5-3.3-3.8-4.3-6-39.4-102.6-79-205.2-118.5-307.8zm1166.5 2.2c20.4-0.5 40.8-0.1 61.2-0.2q86.3 0 172.6 0c8.3 0.3 16.6 0 24.8 1.6 14.6 2.5 29.4 8.9 38.4 21.2 8.4 11.2 10.6 25.6 10.7 39.3-0.1 32.3 0.2 64.7-0.3 97-0.3 13.1-4.2 26.6-13.4 36.3-11.6 12.2-28.6 17.7-45 18.5-7.7 0.3-15.4 0.5-23.1 0.4q-78.7 0-157.5 0c-0.5 32.6-0.9 65.1-1.6 97.7q-33.2 0-66.4 0 0-48.2 0-96.3c-14.1 0-28.1 0-42.2 0-8.3-18.1-16.6-36.2-24.8-54.3q33.3 0 66.6 0 0-80.6 0-161.2zm67 54.3q0 52.6 0 105.3 69.2 0 138.3 0c7.9-0.5 16.6-0.3 23.4-5 5.8-3.9 7.6-11.3 7.7-17.9 0.1-19.4 0-38.8 0.1-58.1 0-4.8-0.6-9.7-3-13.9-2.5-4.5-7.3-7.3-12.2-8.5-10.2-2.3-20.8-1.6-31.2-1.7-41-0.4-82-0.1-123.1-0.2zm285.7-42.9c6.3-1.3 13-0.8 18.8 2 7 3.1 12.6 9.2 15.4 16.4 2.7 7.2 2.6 15.4-0.3 22.5-3.2 7.9-10 14.3-18.2 16.8-10.8 3.4-23.6 0.7-31.3-7.9-10.2-11-10.1-29.8 0.1-40.8 4.1-4.5 9.6-7.7 15.5-9zm0.9 7.3c-11.6 2.6-19.9 15.4-16.8 27.1 2.3 11.7 15 19.9 26.6 17.3 12.2-2.1 21.1-15.3 18-27.4-2.3-12.1-15.9-20.4-27.8-17zm-5.4 6.7c5.4 0.2 10.8-0.4 16.1 0.4 4.7 0.6 7.8 5.3 7.6 9.8 0.3 3.8-2 7-4.7 9.4 1.7 3 3.6 5.9 5.3 8.9-2.3 0.4-4.9 0.9-7-0.2-2.2-1.2-2.9-3.6-4.4-5.3-1.8-1.5-4-2.6-6-3.9q-0.4 4.7-0.7 9.5-3.1 0.3-6.2 0.3 0-14.4 0-28.9zm6.6 5.1q0 5.5 0 10.9c3.2-1 6.5-2 9.6-3.4-0.1-1.7-0.1-3.3-0.3-5-3-1.1-6.2-1.8-9.3-2.5z"/>
	</g>
</svg>