<svg version="1.2" xmlns="http://www.w3.org/2000/svg" viewBox="0 0 1171 1586" width="1171" height="1586">
	<title>WR-Berkley-Sustainability-Report-2021-Data-of-2020-FINAL-2-pdf-svg-svg</title>
	<style>
		.s0 { fill: #0c5740 } 
		.s1 { fill: #ffffff } 
	</style>
	<path id="Path 35" fill-rule="evenodd" class="s0" d="m585.6 1585.3c-315.2 0-571.6-248.2-584.4-560.2h-0.6v-1024.3h186.1v571.9c104.4-97.4 244.6-156.9 398.9-156.9 323.4 0 584.9 261.4 584.9 584.7 0 323.5-261.5 584.8-584.9 584.8zm398.9-584.7c0-220.6-178.3-398.8-398.9-398.8-220.5 0-398.8 178.2-398.8 398.8 0 220.5 178.3 398.8 398.8 398.8 220.6 0 398.9-178.3 398.9-398.8zm-395.3-41c0 0 100.9-98 161.4-119.6 60.4-21.5 79.1-15.8 79.1-15.8 0 0-20.2 23.1-21.6 56.2-1.4 33.1 0 154.1 0 154.1 0 0-10 143.9-112.3 143.9h-86.4l-18.4 20.2h-3.4l-18.4-20.2h-86.4c-102.3 0-112.4-143.9-112.4-143.9 0 0 1.4-121 0-154.1-1.3-33.1-21.5-56.2-21.5-56.2 0 0 18.6-5.7 79.1 15.8 60.5 21.6 161.2 119.6 161.2 119.6zm-137.6-136.9h276.6l-140.4 107z"/>
	<path id="Path 36" fill-rule="evenodd" class="s1" d="m588.8 1102l18.4 29.6-17.9 35.7-18.4-36.7zm-169.2-82.6c0 23.7-4.7 56.8 30.4 88 29.1 25.9 73.9 24.2 103.6-2.7 29.8-27 25.4-67.6 25.4-101.6 0-34-27.5-58.2-57.3-54.5-29.6 3.8-34.5 32.4-34.5 57.8 14.1-16.7 47-8.6 47 23.8 0 32.3-13.5 41-35.1 41-21.6 0-27.4-17.7-28.7-27.5-3.8-30.7 0-87 0-123.7 0-36.8-56.2-44.8-56.2-44.8 11.4 12.9 5.4 120.5 5.4 144.2zm344.9-144.2c0 0-56.2 8-56.2 44.8 0 36.7 3.9 93 0 123.7-1.3 9.8-7 27.5-28.7 27.5-21.6 0-35.1-8.7-35.1-41 0-32.4 33-40.5 47.1-23.8 0-25.4-5-54-34.6-57.8-29.7-3.7-57.3 20.5-57.3 54.5 0 34-4.4 74.6 25.4 101.6 29.7 26.9 74.5 28.6 103.7 2.7 35.2-31.2 30.3-64.3 30.3-88 0-23.7-6-131.3 5.4-144.2z"/>
</svg>