<svg version="1.2" baseProfile="tiny-ps" xmlns="http://www.w3.org/2000/svg" viewBox="0 0 1677 410" width="1677" height="410">
	<title>FY2021-World-Acceptance-Corporation-Annual-Report-pdf-svg</title>
	<defs>
		<clipPath clipPathUnits="userSpaceOnUse" id="cp1">
			<path d="M-6052.03 -2551.33L4879.77 -2551.33L4879.77 4546.74L-6052.03 4546.74L-6052.03 -2551.33Z" />
		</clipPath>
		<linearGradient id="grd1" gradientUnits="userSpaceOnUse"  x1="71.771" y1="49.856" x2="370.824" y2="396.719">
			<stop offset="0" stop-color="#4fb8e6"  />
			<stop offset="0" stop-color="#4fb8e6"  />
			<stop offset="1" stop-color="#2a78bc"  />
			<stop offset="1" stop-color="#2a78bc"  />
		</linearGradient>
		<linearGradient id="grd2" gradientUnits="userSpaceOnUse"  x1="52.654" y1="47.046" x2="355.858" y2="364.664">
			<stop offset="0" stop-color="#1c5ea6"  />
			<stop offset="0.107" stop-color="#1c5ea6"  />
			<stop offset="1" stop-color="#122f5d"  />
		</linearGradient>
	</defs>
	<style>
		tspan { white-space:pre }
		.shp0 { fill: #13498c } 
		.shp1 { fill: url(#grd1) } 
		.shp2 { fill: url(#grd2) } 
		.shp3 { fill: #ffffff } 
		.shp4 { fill: none;stroke: #595959;stroke-width: 9.065 } 
	</style>
	<g id="Clip-Path: Page 1" clip-path="url(#cp1)">
		<g id="Page 1">
			<path id="Path 128" fill-rule="evenodd" class="shp0" d="M548.57 179.39L522.82 103.15C521.37 98.98 523.46 96.17 527.9 96.17L530.53 96.17C534.06 96.17 536.24 97.71 537.42 101.16L557.63 164.43L576.3 101.25C577.3 97.71 579.57 96.17 583.1 96.17L584.37 96.17C587.91 96.17 590.26 97.89 591.17 101.25L610.02 164.43L630.42 101.16C631.51 97.71 633.68 96.17 637.22 96.17L639.94 96.17C644.29 96.17 646.37 98.98 644.92 103.15L619 179.39C617.91 182.83 615.64 184.38 612.11 184.38L609.3 184.38C605.76 184.38 603.41 182.74 602.41 179.3L583.74 116.39L565.25 179.3C564.25 182.83 561.89 184.38 558.36 184.38L555.55 184.38C552.01 184.38 549.75 182.74 548.57 179.39ZM646.65 149.47C646.65 124.36 664.14 113.21 681.91 113.21C699.76 113.21 717.35 124.36 717.35 149.47C717.35 174.86 699.85 186.01 682.09 186.01C664.14 186.01 646.65 174.86 646.65 149.47ZM703.66 149.47C703.66 134.24 694.87 124.82 681.91 124.82C669.03 124.82 660.33 134.15 660.33 149.47C660.33 164.98 669.03 174.31 682.09 174.31C694.96 174.31 703.66 164.88 703.66 149.47ZM762.76 113.76C766.84 113.76 768.93 116.39 768.47 120.28L768.38 121.28C768.02 125.18 765.66 126.63 761.67 126.63C750.16 126.9 744.63 135.24 744.63 149.84L744.63 178.3C744.63 182.2 742.46 184.38 738.56 184.38L737.11 184.38C733.21 184.38 731.04 182.2 731.04 178.3L731.04 120.65C731.04 116.75 733.21 114.57 737.11 114.57L738.56 114.57C742.46 114.57 744.63 116.66 744.63 120.47L744.63 126.27C746.9 120.1 752.52 113.76 762.76 113.76ZM778.35 178.3L778.35 97.98C778.35 94.09 780.53 91.91 784.52 91.91L786.06 91.91C789.96 91.91 792.13 94.09 792.13 97.98L792.13 178.3C792.13 182.2 789.96 184.38 786.06 184.38L784.52 184.38C780.53 184.38 778.35 182.2 778.35 178.3ZM805.82 149.47C805.82 125.45 820.5 113.21 837.82 113.21C848.78 113.21 858.66 118.65 862.56 128.26L862.56 97.98C862.56 94.09 864.74 91.91 868.73 91.91L870.18 91.91C874.07 91.91 876.25 94.09 876.25 97.98L876.25 178.21C876.25 182.11 874.07 184.28 870.18 184.28L868.73 184.28C864.74 184.28 862.56 182.11 862.56 178.21L862.56 171.14C858.66 180.48 848.78 186.01 837.91 186.01C820.59 186.01 805.82 173.68 805.82 149.47ZM862.92 149.47C862.92 134.24 854.13 124.82 841.08 124.82C828.3 124.82 819.51 134.15 819.51 149.47C819.51 164.98 828.3 174.31 841.35 174.31C854.31 174.31 862.92 164.88 862.92 149.47ZM998.35 184.38L995.9 184.38C992.46 184.38 990.1 182.83 988.83 179.66L983.75 167.06L939.7 167.06L934.72 179.66C933.54 182.83 931.09 184.38 927.65 184.38L925.47 184.38C920.94 184.38 918.94 181.47 920.67 177.3L952.66 100.79C954.02 97.53 956.29 96.08 959.73 96.08L963.63 96.08C967.08 96.08 969.34 97.53 970.7 100.79L1002.79 177.3C1004.51 181.47 1002.7 184.38 998.35 184.38ZM979.22 155.73L961.73 111.67L944.23 155.73L979.22 155.73ZM1008.5 149.47C1008.5 128.35 1022.82 113.21 1043.04 113.21C1057.63 113.21 1067.51 118.65 1073.04 128.99C1075.12 132.88 1073.4 135.69 1069.6 136.42L1068.6 136.69C1065.24 137.42 1062.89 136.06 1060.8 132.98C1056.91 127.54 1051.19 124.82 1043.58 124.82C1030.89 124.82 1022.1 134.88 1022.1 149.47C1022.1 163.98 1030.89 174.04 1043.58 174.04C1050.92 174.04 1056.63 171.23 1060.53 165.97C1062.62 162.89 1064.88 161.71 1068.24 162.35L1068.78 162.44C1073.04 163.25 1074.85 165.88 1073.13 169.42C1067.78 179.93 1057.36 185.73 1043.04 185.73C1023.19 185.73 1008.5 170.96 1008.5 149.47ZM1084.01 149.47C1084.01 128.35 1098.42 113.21 1118.54 113.21C1133.23 113.21 1143.11 118.65 1148.55 128.99C1150.63 132.88 1148.91 135.69 1145.19 136.42L1144.2 136.69C1140.75 137.42 1138.49 136.06 1136.4 132.98C1132.5 127.54 1126.7 124.82 1119.18 124.82C1106.49 124.82 1097.7 134.88 1097.7 149.47C1097.7 163.98 1106.49 174.04 1119.18 174.04C1126.52 174.04 1132.23 171.23 1136.13 165.97C1138.21 162.89 1140.39 161.71 1143.83 162.35L1144.29 162.44C1148.55 163.25 1150.45 165.88 1148.73 169.42C1143.29 179.93 1132.96 185.73 1118.54 185.73C1098.78 185.73 1084.01 170.96 1084.01 149.47ZM1159.61 149.47C1159.61 127.99 1174.02 113.21 1194.87 113.21C1215.08 113.21 1228.04 126.81 1228.86 146.94C1229.04 150.92 1226.68 153.01 1222.79 153.01L1173.2 153.01C1173.75 166.61 1182.18 174.31 1195.68 174.31C1203.3 174.31 1208.01 172.32 1212.45 168.42C1215.08 166.06 1216.8 164.16 1220.25 164.98L1221.7 165.34C1225.96 166.43 1226.86 168.78 1224.51 172.23C1218.43 181.2 1208.55 185.73 1195.5 185.73C1173.75 185.73 1159.61 171.32 1159.61 149.47ZM1215.99 142.31C1214.99 131.16 1207.38 124.09 1195.05 124.09C1183.36 124.09 1175.2 130.26 1173.66 142.31L1215.99 142.31ZM1242.55 200.87L1242.55 120.74C1242.55 116.75 1244.81 114.57 1248.71 114.57L1250.16 114.57C1254.06 114.57 1256.23 116.75 1256.23 120.74L1256.23 127.81C1259.95 118.83 1269.29 113.12 1281.07 113.12C1297.39 113.12 1312.98 124.09 1312.98 149.38C1312.98 174.49 1297.3 185.46 1280.89 185.46C1269.2 185.46 1259.95 179.66 1256.23 170.78L1256.23 200.87C1256.23 204.77 1254.06 206.95 1250.16 206.95L1248.71 206.95C1244.81 206.95 1242.55 204.77 1242.55 200.87ZM1299.29 149.38C1299.29 133.97 1290.68 124.64 1277.72 124.64C1264.66 124.64 1255.87 133.88 1255.87 149.38C1255.87 164.79 1264.66 174.04 1277.44 174.04C1290.59 174.04 1299.29 164.61 1299.29 149.38ZM1354.49 185.37C1336.55 185.37 1328.39 177.94 1328.39 156.55L1328.39 125.18L1324.4 125.18C1320.5 125.18 1318.24 123.28 1318.24 119.83C1318.24 116.39 1320.14 114.57 1323.4 114.57L1328.39 114.57L1328.39 107.23C1328.39 103.6 1330.2 101.43 1333.74 100.7L1335.46 100.34C1339.72 99.34 1342.17 101.43 1342.17 105.69L1342.17 114.57L1356.67 114.57C1360.66 114.57 1362.83 116.39 1362.83 119.83C1362.83 123.28 1360.66 125.18 1356.67 125.18L1342.17 125.18L1342.17 155C1342.17 169.42 1345.97 174.4 1356.58 174.4C1360.39 174.4 1362.83 175.76 1363.2 179.03C1363.56 182.74 1361.93 184.92 1358.03 185.28C1356.85 185.37 1355.58 185.37 1354.49 185.37ZM1367.73 149.47C1367.73 125.45 1382.32 113.21 1399.73 113.21C1410.69 113.21 1420.39 118.65 1424.47 128.26L1424.47 120.74C1424.47 116.75 1426.65 114.57 1430.54 114.57L1431.99 114.57C1435.89 114.57 1438.16 116.75 1438.16 120.74L1438.16 178.21C1438.16 182.11 1435.89 184.28 1431.99 184.28L1430.54 184.28C1426.65 184.28 1424.47 182.11 1424.47 178.21L1424.47 171.14C1420.57 180.48 1410.69 186.01 1399.82 186.01C1382.5 186.01 1367.73 173.68 1367.73 149.47ZM1424.83 149.47C1424.83 134.24 1415.95 124.82 1402.99 124.82C1390.21 124.82 1381.41 134.15 1381.41 149.47C1381.41 164.98 1390.21 174.31 1403.26 174.31C1416.04 174.31 1424.83 164.88 1424.83 149.47ZM1519.56 146.57L1519.56 178.3C1519.56 182.2 1517.38 184.38 1513.48 184.38L1511.94 184.38C1508.05 184.38 1505.87 182.2 1505.87 178.3L1505.87 147.66C1505.87 132.43 1499.98 125.18 1487.11 125.18C1473.87 125.18 1468.52 133.88 1468.52 149.29L1468.52 178.3C1468.52 182.2 1466.35 184.38 1462.45 184.38L1461 184.38C1457.1 184.38 1454.84 182.2 1454.84 178.3L1454.84 120.74C1454.84 116.75 1457.1 114.57 1461 114.57L1462.45 114.57C1466.35 114.57 1468.52 116.75 1468.52 120.74L1468.52 127.63C1471.7 119.56 1479.67 113.39 1491.37 113.39C1510.67 113.39 1519.56 124.45 1519.56 146.57ZM1531.8 149.47C1531.8 128.35 1546.21 113.21 1566.33 113.21C1580.92 113.21 1590.81 118.65 1596.33 128.99C1598.42 132.88 1596.7 135.69 1592.89 136.42L1591.89 136.69C1588.54 137.42 1586.18 136.06 1584.1 132.98C1580.2 127.54 1574.49 124.82 1566.87 124.82C1554.18 124.82 1545.39 134.88 1545.39 149.47C1545.39 163.98 1554.18 174.04 1566.87 174.04C1574.22 174.04 1579.93 171.23 1583.92 165.97C1585.91 162.89 1588.18 161.71 1591.53 162.35L1592.07 162.44C1596.33 163.25 1598.15 165.88 1596.43 169.42C1591.08 179.93 1580.74 185.73 1566.33 185.73C1546.57 185.73 1531.8 170.96 1531.8 149.47ZM1607.3 149.47C1607.3 127.99 1621.72 113.21 1642.56 113.21C1662.87 113.21 1675.83 126.81 1676.65 146.94C1676.74 150.92 1674.47 153.01 1670.57 153.01L1620.99 153.01C1621.44 166.61 1629.87 174.31 1643.47 174.31C1650.99 174.31 1655.8 172.32 1660.15 168.42C1662.87 166.06 1664.59 164.16 1667.94 164.98L1669.49 165.34C1673.75 166.43 1674.56 168.78 1672.3 172.23C1666.13 181.2 1656.25 185.73 1643.2 185.73C1621.44 185.73 1607.3 171.32 1607.3 149.47ZM1663.68 142.31C1662.69 131.16 1655.16 124.09 1642.84 124.09C1631.14 124.09 1622.98 130.26 1621.35 142.31L1663.68 142.31ZM527.72 286.99C527.72 255.63 548.3 241.4 569.42 241.4C583.74 241.4 599.51 247.74 606.49 265.33C608.03 269.41 605.95 272.22 601.96 272.94L600.05 273.31C596.25 274.03 594.43 272.4 592.53 268.86C587.54 259.34 579.66 254.45 569.42 254.45C553.1 254.45 542.31 266.96 542.31 286.99C542.31 307.12 552.92 319.17 569.42 319.17C579.84 319.17 587.91 314.19 592.8 304.13C594.52 300.59 596.61 299.05 600.23 299.78L602.23 300.14C606.22 300.86 608.03 304.4 605.85 309.66C598.78 326.25 583.37 332.32 569.42 332.32C548.3 332.32 527.72 319.17 527.72 286.99Z" />
			<path id="Path 129" fill-rule="evenodd" class="shp0" d="M619.45 295.97C619.45 270.86 636.86 259.71 654.71 259.71C672.48 259.71 690.06 270.86 690.06 295.97C690.06 321.35 672.66 332.5 654.8 332.5C636.86 332.5 619.45 321.35 619.45 295.97ZM676.47 295.97C676.47 280.74 667.67 271.31 654.71 271.31C641.75 271.31 633.14 280.65 633.14 295.97C633.14 311.47 641.75 320.81 654.8 320.81C667.77 320.81 676.47 311.38 676.47 295.97ZM735.48 260.25C739.65 260.25 741.73 262.88 741.28 266.78L741.1 267.78C740.73 271.67 738.47 273.12 734.39 273.12C722.97 273.4 717.44 281.74 717.44 296.33L717.44 324.8C717.44 328.69 715.26 330.87 711.37 330.87L709.92 330.87C706.02 330.87 703.75 328.69 703.75 324.8L703.75 267.23C703.75 263.24 706.02 261.07 709.92 261.07L711.37 261.07C715.26 261.07 717.44 263.15 717.44 266.96L717.44 272.76C719.61 266.6 725.23 260.25 735.48 260.25ZM751.16 347.37L751.16 267.14C751.16 263.24 753.33 261.07 757.23 261.07L758.68 261.07C762.58 261.07 764.85 263.24 764.85 267.14L764.85 274.3C768.47 265.33 777.9 259.62 789.59 259.62C805.91 259.62 821.59 270.59 821.59 295.88C821.59 320.99 805.82 331.96 789.5 331.96C777.72 331.96 768.47 326.16 764.85 317.18L764.85 347.37C764.85 351.27 762.58 353.44 758.68 353.44L757.23 353.44C753.33 353.44 751.16 351.27 751.16 347.37ZM807.9 295.88C807.9 280.47 799.2 271.13 786.33 271.13C773.19 271.13 764.48 280.38 764.48 295.88C764.48 311.2 773.19 320.53 786.06 320.53C799.11 320.53 807.9 311.11 807.9 295.88ZM832.83 295.97C832.83 270.86 850.23 259.71 868.09 259.71C885.86 259.71 903.44 270.86 903.44 295.97C903.44 321.35 886.04 332.5 868.18 332.5C850.23 332.5 832.83 321.35 832.83 295.97ZM889.85 295.97C889.85 280.74 881.05 271.31 868.09 271.31C855.13 271.31 846.52 280.65 846.52 295.97C846.52 311.47 855.13 320.81 868.18 320.81C881.14 320.81 889.85 311.38 889.85 295.97ZM948.86 260.25C953.03 260.25 955.11 262.88 954.66 266.78L954.48 267.78C954.11 271.67 951.85 273.12 947.77 273.12C936.35 273.4 930.82 281.74 930.82 296.33L930.82 324.8C930.82 328.69 928.64 330.87 924.74 330.87L923.29 330.87C919.4 330.87 917.13 328.69 917.13 324.8L917.13 267.23C917.13 263.24 919.4 261.07 923.29 261.07L924.74 261.07C928.64 261.07 930.82 263.15 930.82 266.96L930.82 272.76C932.99 266.6 938.61 260.25 948.86 260.25ZM958.01 295.97C958.01 271.95 972.7 259.71 990.01 259.71C1000.98 259.71 1010.77 265.15 1014.85 274.76L1014.85 267.14C1014.85 263.24 1017.02 261.07 1020.92 261.07L1022.37 261.07C1026.27 261.07 1028.44 263.24 1028.44 267.14L1028.44 324.7C1028.44 328.6 1026.27 330.78 1022.37 330.78L1020.92 330.78C1017.02 330.78 1014.85 328.6 1014.85 324.7L1014.85 317.63C1010.86 326.97 1000.98 332.5 990.19 332.5C972.79 332.5 958.01 320.17 958.01 295.97ZM1015.21 295.97C1015.21 280.74 1006.23 271.31 993.36 271.31C980.49 271.31 971.7 280.65 971.7 295.97C971.7 311.47 980.49 320.81 993.54 320.81C1006.42 320.81 1015.21 311.38 1015.21 295.97ZM1075.31 331.87C1057.45 331.87 1049.2 324.43 1049.2 303.04L1049.2 271.67L1045.21 271.67C1041.31 271.67 1039.14 269.77 1039.14 266.32C1039.14 262.88 1040.95 261.07 1044.21 261.07L1049.2 261.07L1049.2 253.72C1049.2 250.1 1051.1 247.92 1054.64 247.2L1056.27 246.83C1060.62 245.84 1062.98 247.92 1062.98 252.18L1062.98 261.07L1077.57 261.07C1081.47 261.07 1083.65 262.88 1083.65 266.32C1083.65 269.77 1081.47 271.67 1077.57 271.67L1062.98 271.67L1062.98 301.5C1062.98 315.91 1066.79 320.9 1077.39 320.9C1081.2 320.9 1083.65 322.26 1084.01 325.52C1084.37 329.24 1082.74 331.41 1078.93 331.78C1077.66 331.87 1076.48 331.87 1075.31 331.87ZM1094.98 324.8L1094.98 267.14C1094.98 263.24 1097.15 261.07 1100.96 261.07L1102.5 261.07C1106.4 261.07 1108.48 263.24 1108.48 267.14L1108.48 324.8C1108.48 328.69 1106.4 330.87 1102.5 330.87L1100.96 330.87C1097.15 330.87 1094.98 328.69 1094.98 324.8ZM1093.8 244.39C1093.8 239.76 1097.24 237.04 1101.87 237.04C1106.13 237.04 1109.93 239.76 1109.93 244.39C1109.93 249.01 1106.13 251.64 1101.87 251.64C1097.24 251.64 1093.8 249.01 1093.8 244.39ZM1122.44 295.97C1122.44 270.86 1139.94 259.71 1157.7 259.71C1175.56 259.71 1193.14 270.86 1193.14 295.97C1193.14 321.35 1175.65 332.5 1157.88 332.5C1139.94 332.5 1122.44 321.35 1122.44 295.97ZM1179.46 295.97C1179.46 280.74 1170.66 271.31 1157.7 271.31C1144.83 271.31 1136.13 280.65 1136.13 295.97C1136.13 311.47 1144.83 320.81 1157.88 320.81C1170.76 320.81 1179.46 311.38 1179.46 295.97ZM1271.46 293.07L1271.46 324.8C1271.46 328.69 1269.29 330.87 1265.39 330.87L1263.94 330.87C1260.04 330.87 1257.87 328.69 1257.87 324.8L1257.87 294.15C1257.87 278.93 1251.97 271.67 1239.01 271.67C1225.87 271.67 1220.52 280.38 1220.52 295.79L1220.52 324.8C1220.52 328.69 1218.25 330.87 1214.36 330.87L1212.91 330.87C1209.01 330.87 1206.83 328.69 1206.83 324.8L1206.83 267.14C1206.83 263.24 1209.01 261.07 1212.91 261.07L1214.36 261.07C1218.25 261.07 1220.52 263.24 1220.52 267.14L1220.52 274.12C1223.69 266.05 1231.58 259.89 1243.27 259.89C1262.58 259.89 1271.46 270.95 1271.46 293.07Z" />
			<path id="Path 129" class="shp1" d="M0.8 204.77C0.8 317.09 91.35 408.29 203.48 409.28L207.2 409.28C319.33 408.29 409.88 317.09 409.88 204.77C409.88 91.82 318.33 0.26 205.38 0.26C92.35 0.26 0.8 91.82 0.8 204.77Z" />
			<path id="Path 130" class="shp2" d="M25.18 206.49C25.18 305.76 105.67 386.26 204.93 386.26C304.19 386.26 384.59 305.76 384.59 206.49C384.59 107.23 304.19 26.82 204.93 26.82C105.67 26.82 25.18 107.23 25.18 206.49Z" />
			<path id="Path 132" class="shp3" d="M326.12 206.86C331.93 206.86 336.37 211.84 335.82 217.64C335.46 222.27 334.83 226.89 333.92 231.33C321.95 292.43 267.84 338.48 203.39 338.03C193.87 337.94 184.45 336.94 175.29 334.86C170.03 333.68 166.32 328.24 167.04 322.89C167.86 316.73 173.48 312.92 179.46 314.28C189.16 316.46 199.13 317.36 209.19 316.91C258.96 314.82 307.27 271.22 314.25 222C314.52 219.91 314.7 217.92 314.88 215.92C315.34 210.75 319.6 206.77 324.76 206.86L326.12 206.86ZM119.91 234.05C109.66 234.05 106.49 227.53 104.59 216.28L94.98 167.06C93.17 158.09 97.52 151.11 106.31 151.11C113.38 151.11 115.65 155.09 116.37 160.53L123.44 207.76L123.8 207.76L138.04 168.06C142.66 155.09 146.37 151.11 154.99 151.11L155.8 151.11C163.96 151.56 167.68 155.37 169.58 167.88L175.83 207.76L176.02 207.76L192.33 160.53C194.14 155.55 196.86 151.11 203.57 151.11C213 151.11 216.53 158.09 212.82 167.06L192.97 216.28C188.34 226.71 183.72 233.87 174.11 234.05L173.57 234.05C163.23 234.05 160.33 227.53 158.34 216.28L152.81 179.12L152.45 179.12L139.12 216.28C135.13 226.08 130.51 234.05 120.45 234.05L119.91 234.05ZM291.68 122.91C291.68 129.08 286.87 133.16 281.71 133.16C276.27 133.16 275.82 130.44 270.83 130.44C265.84 130.44 262.4 134.43 261.68 140.95L260.59 152.19L270.38 152.19C276 152.19 280.62 155.09 279.8 162.17C279.17 169.15 273.91 172.23 268.29 172.23L258.5 172.23L249.89 254.9C249.26 261.25 245.09 267.23 237.02 267.23C229.22 267.23 226.32 261.25 226.96 254.9L235.57 172.23L232.76 172.23C227.14 172.23 222.52 169.15 223.15 162.17C223.88 155.09 229.22 152.19 234.84 152.19L237.65 152.19L239.01 140.05C240.74 124 250.16 109.41 272.01 109.41C278.54 109.41 284.43 110.86 288.14 114.21C290.41 116.3 291.68 119.2 291.68 122.91Z" />
			<path id="Path 146" class="shp4" d="M-6079.23 -2927.53L-5952.32 -2927.53L-5952.32 -2800.62L-6079.23 -2800.62L-6079.23 -2927.53ZM-5952.32 -2927.53L-5825.42 -2927.53L-5825.42 -2800.62L-5952.32 -2800.62L-5952.32 -2927.53ZM-5825.42 -2927.53L-5698.52 -2927.53L-5698.52 -2800.62L-5825.42 -2800.62L-5825.42 -2927.53ZM-5698.52 -2927.53L-5571.61 -2927.53L-5571.61 -2800.62L-5698.52 -2800.62L-5698.52 -2927.53ZM-5571.61 -2927.53L-5444.71 -2927.53L-5444.71 -2800.62L-5571.61 -2800.62L-5571.61 -2927.53ZM-5444.71 -2927.53L-5317.81 -2927.53L-5317.81 -2800.62L-5444.71 -2800.62L-5444.71 -2927.53ZM-5317.81 -2927.53L-5190.9 -2927.53L-5190.9 -2800.62L-5317.81 -2800.62L-5317.81 -2927.53ZM-5190.9 -2927.53L-5064 -2927.53L-5064 -2800.62L-5190.9 -2800.62L-5190.9 -2927.53ZM-5064 -2927.53L-4937.1 -2927.53L-4937.1 -2800.62L-5064 -2800.62L-5064 -2927.53ZM-4937.1 -2927.53L-4810.19 -2927.53L-4810.19 -2800.62L-4937.1 -2800.62L-4937.1 -2927.53ZM-4810.19 -2927.53L-4683.29 -2927.53L-4683.29 -2800.62L-4810.19 -2800.62L-4810.19 -2927.53ZM3501.97 -2927.53L3628.87 -2927.53L3628.87 -2800.62L3501.97 -2800.62L3501.97 -2927.53ZM3628.87 -2927.53L3755.77 -2927.53L3755.77 -2800.62L3628.87 -2800.62L3628.87 -2927.53ZM3755.77 -2927.53L3882.68 -2927.53L3882.68 -2800.62L3755.77 -2800.62L3755.77 -2927.53ZM3882.68 -2927.53L4009.58 -2927.53L4009.58 -2800.62L3882.68 -2800.62L3882.68 -2927.53ZM4009.58 -2927.53L4136.48 -2927.53L4136.48 -2800.62L4009.58 -2800.62L4009.58 -2927.53ZM4136.48 -2927.53L4263.39 -2927.53L4263.39 -2800.62L4136.48 -2800.62L4136.48 -2927.53ZM4263.39 -2927.53L4390.29 -2927.53L4390.29 -2800.62L4263.39 -2800.62L4263.39 -2927.53ZM4390.29 -2927.53L4517.19 -2927.53L4517.19 -2800.62L4390.29 -2800.62L4390.29 -2927.53ZM4517.19 -2927.53L4644.1 -2927.53L4644.1 -2800.62L4517.19 -2800.62L4517.19 -2927.53ZM4644.1 -2927.53L4771 -2927.53L4771 -2800.62L4644.1 -2800.62L4644.1 -2927.53ZM4771 -2927.53L4897.9 -2927.53L4897.9 -2800.62L4771 -2800.62L4771 -2927.53Z" />
		</g>
	</g>
</svg>