<svg version="1.2" xmlns="http://www.w3.org/2000/svg" viewBox="0 0 1586 273" width="1586" height="273">
	<title>2021 WSFS Annual Report-1-pdf-svg</title>
	<defs>
		<clipPath clipPathUnits="userSpaceOnUse" id="cp1">
			<path d="m-4561.92-8087.18h7526.24v9481.42h-7526.24z"/>
		</clipPath>
		<clipPath clipPathUnits="userSpaceOnUse" id="cp2">
			<path d="m0.49 0.22h1581.53v271.83h-1581.53z"/>
		</clipPath>
	</defs>
	<style>
		.s0 { fill: #ffffff;stroke: #ffffff;stroke-width: 7.6 } 
		.s1 { fill: #ffffff } 
	</style>
	<g id="Clip-Path: Page 1" clip-path="url(#cp1)">
		<g id="Page 1">
			<g id="Clip-Path: Mask" clip-path="url(#cp2)">
				<g id="Mask">
					<path id="Path 15" class="s0" d="m1051.9 7.2h529.9m-529.9 261.4h529.9"/>
				</g>
			</g>
			<path id="Path 17" fill-rule="evenodd" class="s1" d="m1051.4 37h38.9v10.2h-28.6v23.9h27.6v10.2h-27.6v37.4h-10.3zm47.6-3.8h10.8v12.4h-10.8zm0.5 26h9.8v59.5h-9.8zm22.7 0h9.8v9.2c3.2-6.4 10.2-10.8 17.8-10.8 13.5 0 20 9.8 20 25.5v35.7h-9.7v-30.9c0-14-2.7-20.5-11.4-21.6-11.3 0-16.7 10.3-16.7 24.9v27.6h-9.8zm61.7 4.3c4.8-3.2 10.8-5.9 17.8-5.9 15.2 0 21.6 8.6 21.6 24.8v24.9c0 6.5 0 9.8 0.6 11.4h-9.8v-7.6c-2.1 3.8-7.5 9.2-16.7 9.2-11.4 0-19.5-5.9-19.5-18.9 0-14.6 14.6-19.5 24.9-19.5 3.8 0 6.5 0 10.3 0.5 0-10.8-3.3-15.6-13-15.6-5.4 0-11.9 2.1-15.7 5.9zm29.2 27.1c-2.2 0-3.8-0.6-5.9-0.6-5.4 0-19 1.1-19 11.4 0 6.5 5.4 9.7 10.3 9.7 9.7 0 14.6-6.5 14.6-15.7zm21.6-30.8h9.8v9.2c2.7-6.5 10.2-10.8 17.8-10.8 13.5 0 20 9.7 20 25.9v35.2h-10.3v-30.8c0-14.1-2.7-20.6-11.3-21.1-11.4 0-16.2 9.7-16.2 24.3v27.6h-9.8zm93 10.3c-3.8-1.6-7.5-2.7-10.2-2.7-11.4 0-17.3 10.8-17.3 22.2 0 10.8 4.8 22.7 17.8 22.7 3.2 0 7.6-1.6 10.3-3.8l1.1 10.3c-4.4 1.6-9.2 2.2-12.5 2.2-16.2 0-27.6-14.1-27.6-31.4 0-17.9 10.9-30.9 27.6-30.9 3.8 0 9.2 0.6 11.9 2.2zm7.6-36.3h11.3v12.5h-11.3zm1.1 26h9.7v59.5h-9.7zm25.4 4.3c4.8-3.2 10.8-5.4 17.3-5.4 15.7 0 21.6 8.1 21.6 24.4v24.9c0 7 0.5 10.2 0.5 11.9h-9.1v-8.2h-0.6c-2.2 3.8-7.6 9.2-16.2 9.2-11.9 0-20-5.4-20-18.4 0-15.1 15.1-19.4 25.4-19.4 3.8 0 6.5 0 10.3 0 0-10.3-3.3-15.7-13.5-15.7-5.5 0-11.4 2.7-15.2 5.9zm29.2 27.1q-3.2 0-6.5 0c-5.4 0-18.4 0.5-18.4 11.3 0 6.5 5.4 9.8 9.8 9.8 9.7 0 15.1-7 15.1-15.7zm22.7-59.5h9.8v88.2h-9.8zm-311.4 123.9q-7-4.9-15.1-4.9c-16.8 0-28.2 13.6-28.2 32 0 19.4 12.5 31.9 27.6 31.9 5.4 0 12.4-1.1 16.2-3.8l0.6 11.4c-6 2.7-12.5 3.2-16.8 3.2-23.2 0-38.9-16.8-38.9-42.7 0-25.5 16.2-42.2 38.9-42.2 5.4 0 11.4 1 16.2 3.7zm28.4 68.8c-15.1 0-27.3-13.9-27.3-31.1 0-17.3 12.2-31.2 27.3-31.2 15.1 0 27.3 13.9 27.3 31.2 0 17.2-12.2 31.1-27.3 31.1zm16.5-31.1c0-12.5-7.5-22.5-16.8-22.5-9.2 0-16.7 10-16.7 22.5 0 12.4 7.5 22.4 16.7 22.4 9.3 0 16.8-10 16.8-22.4zm18.9-30.1h9.2v9.2c2.7-5.9 8.7-10.3 14.1-10.3 3.2 0 4.3 0 6.5 0.6v9.7c-1.7-0.5-3.8-0.5-5.4-0.5-8.7 0-14.6 9.2-14.6 24.3v27.1h-9.8zm35.7 0h9.2v8.1h0.5c2.2-4.3 8.7-9.7 17.9-9.7 15.7 0 23.2 14 23.2 30.3 0 16.2-7 32.4-23.2 32.4-9.2 0-14.6-4.3-17.9-9.7v33h-9.7zm25.4 7.6c-10.8 0-15.7 11.4-15.7 22.2 0 10.3 4.9 22.2 15.7 22.2 10.8 0 15.2-13 15.2-22.2 0-10.8-4.4-22.2-15.2-22.2zm57.1 53.6c-15.1 0-27.3-14.1-27.3-31.4 0-17.4 12.2-31.4 27.3-31.4 15.1 0 27.3 14 27.3 31.4 0 17.3-12.2 31.4-27.3 31.4zm17-31.4c0-12.3-7.5-22.2-16.8-22.2-9.2 0-16.7 9.9-16.7 22.2 0 12.2 7.5 22.2 16.7 22.2 9.3 0 16.8-10 16.8-22.2zm18.4-29.8h9.2v9.2h0.5c2.7-6.5 8.1-10.8 14.1-10.8 2.7 0 4.3 0.5 6.5 1.1v9.7c-2.2-1.1-3.8-1.1-5.4-1.1-9.2 0-14.6 9.2-14.6 24.4v27h-10.3zm38.4 4.4c4.8-3.3 10.8-5.4 17.8-5.4 15.2 0 21.6 8.1 21.6 24.3v24.9c0 6.5 0 9.7 0.6 11.9h-9.8v-8.1c-2.1 3.8-7.5 9.2-16.7 9.2-11.4 0-19.5-5.4-19.5-18.4 0-15.2 14.6-20 24.9-20 3.8 0 6.5 0 10.3 0.5 0-10.3-3.3-15.7-13-15.7-5.4 0-11.4 2.2-15.7 6zm29.2 27c-2.2 0-3.8 0-5.9 0-5.4 0-19 0.6-19 11.4 0 5.9 5.4 9.7 10.3 9.7 9.7 0 14.6-7 14.6-15.7zm50.3-22.1h-14.6v32.4c0 7.1 3.8 10.8 8.6 10.8 2.7 0 5.5-1 6.5-2.1v9.2c-2.1 0.5-4.8 1.6-8.1 1.6-10.3 0-16.7-5.4-16.7-17.3v-34.6h-11.9v-9.2h11.9v-13.6l9.7-3.8v17.4h14.6zm7.6-34.7h11.3v12.5h-11.3zm0.5 25.9h9.7v59.6h-9.7zm46.8 61.1c-15.1 0-27.3-14-27.3-31.4 0-17.3 12.2-31.4 27.3-31.4 15.1 0 27.3 14.1 27.3 31.4 0 17.4-12.2 31.4-27.3 31.4zm16.5-31.4c0-12.2-7.5-22.2-16.8-22.2-9.3 0-16.8 10-16.8 22.2 0 12.3 7.5 22.2 16.8 22.2 9.3 0 16.8-9.9 16.8-22.2zm18.9-30.3h9.2v9.8h0.5c2.7-7.1 9.7-10.9 17.3-10.9 14.1 0 20.6 9.8 20.6 25.5v35.7h-10.3v-30.8c0-14.1-2.7-21.2-11.4-21.7-11.3 0-16.2 10.3-16.2 24.9v27.6h-9.7z"/>
			<path id="Path 22" class="s1" d="m328 265.3h-96.8l-39.5-169.9h-0.5l-37.3 169.9h-98.4l-55.2-260.3h84.4l28.6 166.2h0.6l37.8-166.2h86l36.7 166.2h0.6l29.2-166.2h80zm248.2-188.8c-20-8.2-43.8-13.6-69.2-13.6-14.1 0-39 0.6-39 17.4 0 34.6 123.3 2.1 123.3 102.8 0 69.8-62.2 87.1-114.1 87.1-34.6 0-63.2-3.2-96.7-11.9v-67.6c23.7 10.8 53.5 17.3 80.5 17.3 21.1 0 40.6-5.4 40.6-18.4 0-35.2-123.9-3.3-123.9-104.5 0-72 67.6-84.9 121.2-84.9 24.8 0 52.9 3.2 77.3 9.2zm25.9-71.5h201.2v62.8h-110.9v42.2h107.6v62.8h-107.6v93.1h-90.3zm404.5 71.4c-20-8.1-43.8-13-69.8-13-14 0-38.9 0-38.9 17.3 0 34.1 123.8 1.7 123.8 102.3 0 70.4-62.2 87.7-114.6 87.7-34.6 0-63.3-3.8-96.8-12.5v-67.6c24.3 11.4 54.1 17.3 80.6 17.3 21.6 0 40.5-4.9 40.5-17.8 0-35.2-123.3-3.3-123.3-105 0-72 67.1-84.5 120.6-84.5 25.4 0 53.5 3.3 77.9 8.7z"/>
		</g>
	</g>
</svg>