<svg version="1.2" xmlns="http://www.w3.org/2000/svg" viewBox="0 0 1563 744" width="1563" height="744">
	<title>wsp-svg</title>
	<style>
		.s0 { fill: #ffffff } 
	</style>
	<path id="Layer" class="s0" d="m1454.2 201.7c0.3-18.1-1-36.2-4-54.1-2.9-17.9-7.4-35.5-13.5-52.6-6-17.1-13.6-33.7-22.6-49.4-9-15.8-19.4-30.7-31-44.6h117c10.3 14.5 19.5 29.8 27.4 45.8 7.9 16 14.5 32.6 19.8 49.6 5.2 17 9.2 34.4 11.7 52 2.5 17.7 3.6 35.5 3.3 53.3v0.3c0.3 17.9-0.8 35.7-3.4 53.4-2.5 17.7-6.4 35.1-11.7 52.1-5.3 17.1-11.9 33.7-19.8 49.7-8 16-17.2 31.3-27.5 45.9h-117c11.7-13.9 22.1-28.9 31.1-44.7 9-15.7 16.6-32.3 22.7-49.4 6.1-17.1 10.6-34.8 13.6-52.7 2.9-18 4.2-36.1 3.9-54.3zm-1223.2 132.7l-25.3 68.6h-57.4l-148.3-402h108.1zm289.9 0l-25.3 68.6h-57.5l-148.3-402h108.1zm598.7-333.3h103.5v742.7h-103.5zm-489.1 59.6q0.4-7.7 1.5-15.3 1.1-7.6 2.9-15.1 1.7-7.5 4.1-14.8 2.4-7.3 5.4-14.4h94.6c-2.8 5-5 10.3-6.6 15.7-1.7 5.4-2.9 11-3.5 16.7-0.6 5.6-0.6 11.4-0.1 17 0.6 5.7 1.7 11.3 3.3 16.7 2 5.5 4.4 10.8 7.4 15.9 2.9 5 6.2 9.8 10 14.3 3.8 4.4 7.9 8.6 12.4 12.3 4.5 3.7 9.3 7 14.4 9.9q9.4 5.2 19 10.1 9.6 4.9 19.4 9.4 9.8 4.5 19.7 8.7 10 4.2 20 8.1 10.3 4.3 20.2 9.3 10 5 19.5 10.8 9.6 5.7 18.7 12 9.2 6.4 17.8 13.4c8.1 6.5 15.5 13.7 22.1 21.7 6.5 7.9 12.3 16.5 17.1 25.7 4.8 9.1 8.7 18.7 11.6 28.6 2.9 9.9 4.7 20.1 5.5 30.4 0.4 5.2 0.6 10.5 0.6 15.8q0.2 10.2-0.7 20.4-0.9 10.2-3 20.3-2.1 10-5.3 19.7-3.3 9.8-7.6 19.1h-97.1q4-6.6 7-13.7 3.1-7.1 5.1-14.6 2-7.5 2.9-15.1 0.9-7.7 0.7-15.4c-3.4-50.7-65.3-78.4-117-101.4-7.9-3.7-15.6-6.9-23.1-10.4q-8.6-3.8-17-8.2-8.4-4.4-16.5-9.3-8.1-4.9-15.8-10.3-7.8-5.4-15.2-11.2-7.4-5.6-14-12.1-6.6-6.5-12.3-13.8-5.6-7.3-10.3-15.4-4.6-8-8.1-16.6-3-8-5.1-16.4-2.2-8.3-3.5-16.9-1.2-8.5-1.6-17.1-0.4-8.6 0.1-17.2c0-2.4 0.2-4.9 0.4-7.3z"/>
</svg>