<svg version="1.2" xmlns="http://www.w3.org/2000/svg" viewBox="0 0 1596 185" width="1596" height="185">
	<title>whitbread-logo-svg</title>
	<style>
		.s0 { fill: #002d72 } 
	</style>
	<path id="whitbread-logo" fill-rule="evenodd" class="s0" d="m55.8 171.3l-54.5-148.3q-0.3-0.8-0.5-1.5-0.3-0.8-0.4-1.5-0.2-0.8-0.3-1.6-0.1-0.8-0.1-1.5c0.1-2.1 0.6-4.2 1.5-6.1 0.8-1.9 2.1-3.6 3.6-5 1.5-1.5 3.4-2.6 5.3-3.3 2-0.7 4.1-1.1 6.2-1 1.7 0 3.5 0.2 5.2 0.7 1.7 0.6 3.3 1.4 4.7 2.4 1.5 1 2.7 2.3 3.8 3.7 1 1.4 1.8 3 2.3 4.7l42.4 123 41.6-122.5c0.5-1.8 1.3-3.5 2.3-5 1.1-1.5 2.3-2.9 3.8-4 1.5-1.1 3.1-2 4.8-2.6 1.8-0.6 3.6-0.9 5.5-0.9h2.4c1.8 0 3.6 0.3 5.4 0.9 1.7 0.6 3.4 1.4 4.9 2.6 1.4 1.1 2.7 2.5 3.7 4 1 1.5 1.8 3.2 2.3 5l41.6 122.5 42.4-123.2c0.5-1.7 1.3-3.2 2.3-4.6 1.1-1.4 2.3-2.6 3.7-3.6 1.4-1 3-1.8 4.6-2.3 1.7-0.6 3.4-0.8 5.1-0.8 2.1-0.1 4.1 0.3 6 1 2 0.7 3.7 1.8 5.2 3.2 1.5 1.4 2.7 3.1 3.5 5 0.9 1.8 1.4 3.8 1.4 5.9q0 0.8-0.1 1.6-0.2 0.8-0.4 1.7-0.2 0.8-0.4 1.5-0.3 0.8-0.7 1.6l-54.5 148.3c-0.5 1.8-1.3 3.5-2.4 5.1-1 1.6-2.3 3-3.9 4.1-1.5 1.2-3.1 2.1-4.9 2.7-1.8 0.7-3.7 1-5.6 1.1h-3.2c-1.9-0.1-3.7-0.4-5.5-1-1.8-0.6-3.5-1.6-5-2.7-1.5-1.2-2.8-2.6-3.8-4.2-1-1.6-1.8-3.3-2.3-5.1l-41.1-116.9-41 116.9c-0.5 1.8-1.3 3.5-2.4 5.1-1 1.6-2.3 3-3.9 4.2-1.5 1.2-3.2 2.1-5 2.7-1.8 0.6-3.7 0.9-5.6 1h-3.1c-1.9-0.1-3.8-0.4-5.6-1.1-1.8-0.6-3.5-1.5-5-2.7-1.5-1.1-2.8-2.5-3.9-4.1-1.1-1.6-1.9-3.3-2.4-5.1zm238.3-3.9v-150.3c0.1-4.2 1.9-8.2 4.9-11.1 3.1-2.9 7.1-4.6 11.3-4.6 4.2 0 8.3 1.7 11.3 4.6 3 2.9 4.8 6.9 4.9 11.1v60.1h88v-60.1c0.1-4.2 1.9-8.2 4.9-11.1 3-2.9 7.1-4.6 11.3-4.6 4.2 0 8.2 1.7 11.2 4.6 3.1 2.9 4.8 6.9 5 11.1v150.3c-0.2 4.2-2 8.2-5 11.1-3 2.9-7 4.5-11.2 4.5-4.2 0-8.3-1.6-11.3-4.5-3-2.9-4.8-6.9-4.9-11.1v-61.1h-88v61.1c-0.1 4.2-1.9 8.2-4.9 11.1-3 3-7.1 4.6-11.3 4.6-4.2 0-8.2-1.6-11.2-4.6-3.1-2.9-4.8-6.9-5-11.1zm194.1 0v-150.3c0.1-4.2 1.9-8.1 4.9-11 3.1-2.9 7.1-4.5 11.3-4.5 4.2 0 8.2 1.6 11.2 4.5 3 2.9 4.8 6.8 4.9 11v150.3c-0.1 4.2-1.9 8.2-4.9 11.1-3 2.9-7 4.5-11.2 4.5-4.2 0-8.2-1.6-11.3-4.5-3-2.9-4.8-6.9-4.9-11.1zm119 0v-135.5h-44.8c-1.9 0-3.9-0.3-5.7-1-1.8-0.8-3.4-1.8-4.8-3.2-1.4-1.3-2.5-3-3.3-4.7-0.8-1.8-1.2-3.7-1.2-5.7 0-1.9 0.4-3.8 1.2-5.6 0.8-1.8 1.9-3.4 3.3-4.7 1.4-1.4 3-2.5 4.8-3.2 1.8-0.7 3.8-1 5.7-1h122.5c1.9 0 3.8 0.4 5.6 1.1 1.8 0.7 3.4 1.8 4.7 3.1 1.4 1.4 2.5 3 3.2 4.8 0.8 1.7 1.2 3.6 1.2 5.6 0 1.9-0.4 3.8-1.2 5.5-0.7 1.8-1.8 3.4-3.2 4.8-1.3 1.3-3 2.4-4.7 3.1-1.8 0.7-3.7 1.1-5.6 1.1h-45.1v135.5c-0.2 4.2-2 8.2-5 11-3.1 2.9-7.1 4.5-11.3 4.5-4.2 0-8.2-1.6-11.3-4.5-3-2.8-4.8-6.8-5-11zm117.4-1.5v-147.3c0-2.1 0.4-4.2 1.3-6.1 0.8-2 2-3.8 3.5-5.2 1.6-1.5 3.4-2.7 5.3-3.4 2-0.8 4.1-1.2 6.3-1.1h66.3q6.5-0.4 13 0.4 6.4 0.8 12.6 2.8 6.2 2.1 11.9 5.3 5.7 3.1 10.7 7.3 3 2.9 5.4 6.3 2.3 3.4 3.9 7.3 1.6 3.8 2.4 7.9 0.7 4 0.6 8.2v0.5c0.1 4.2-0.5 8.5-1.7 12.5-1.2 4.1-3 7.9-5.3 11.5-2.3 3.5-5.2 6.7-8.4 9.3-3.3 2.7-7 4.9-10.9 6.5 21.6 7.2 36.7 19.2 36.7 43.5v0.5c0 32-27.1 49.1-68.2 49.1h-69c-2.1 0.1-4.2-0.3-6.2-1.1-2-0.7-3.8-1.9-5.3-3.4-1.6-1.4-2.8-3.2-3.6-5.2-0.8-1.9-1.2-4-1.3-6.1zm31.9-87.7h44.2c20.8 0 34.8-7.9 34.8-24.2v-0.6c0-14.1-11.6-22.8-32.4-22.8h-46.6zm0 75.7h53.7c22.1 0 35.6-8.4 35.6-24.5v-0.5c0-15.1-12.4-24.1-37.9-24.1h-51.4c0 0 0 49.1 0 49.1zm150.3 13.6v-148.9c0-2.1 0.4-4.2 1.3-6.1 0.8-2 2-3.8 3.5-5.2 1.5-1.5 3.4-2.7 5.3-3.4 2-0.8 4.1-1.2 6.3-1.1h65.8c4.8-0.3 9.6-0.1 14.3 0.6 4.8 0.6 9.5 1.7 14 3.2 4.6 1.5 8.9 3.5 13.1 5.9 4.2 2.3 8.1 5.1 11.8 8.2q3.7 3.8 6.6 8.3 3 4.5 4.9 9.4 2 5 2.9 10.3 1 5.2 0.8 10.6v0.5c0 28.6-17.1 46-41.8 53.4l35.3 43.2q1.2 1.2 2.1 2.6 1 1.4 1.6 3 0.7 1.5 1.1 3.2 0.4 1.6 0.4 3.3c0 2-0.5 3.9-1.3 5.7-0.8 1.8-2 3.4-3.4 4.8-1.5 1.3-3.2 2.4-5 3.1-1.9 0.7-3.8 1-5.8 1q-2.3 0-4.6-0.5-2.3-0.6-4.3-1.6-2.1-1.1-3.8-2.7-1.8-1.5-3.1-3.4l-44.8-55.5h-40.8v48.1c-0.1 4.2-1.9 8.1-4.9 11.1-3 2.9-7.1 4.5-11.3 4.5-4.2 0-8.2-1.6-11.3-4.5-3-3-4.8-6.9-4.9-11.1zm32.4-76h47.4c23.2 0 37.9-11.7 37.9-29.9v-0.5c0-19.2-14.2-29.7-38.2-29.7h-47.1zm164.2 90.3c-2.1 0-4.2-0.3-6.2-1.1-2-0.8-3.8-1.9-5.3-3.4-1.5-1.5-2.7-3.3-3.6-5.2-0.8-2-1.2-4.1-1.2-6.2v-147.3c0-2.1 0.4-4.2 1.2-6.2 0.9-1.9 2.1-3.7 3.6-5.2 1.5-1.4 3.3-2.6 5.3-3.4 2-0.7 4.1-1.1 6.2-1h107.2c1.9 0 3.7 0.3 5.5 1 1.7 0.7 3.3 1.7 4.6 3 1.4 1.3 2.4 2.9 3.2 4.6 0.7 1.7 1.1 3.6 1.2 5.4 0 1.9-0.4 3.8-1.2 5.5-0.7 1.7-1.8 3.3-3.1 4.6-1.4 1.3-3 2.3-4.7 3-1.8 0.7-3.6 1-5.5 1h-91.1v46.5h79.2c1.9 0 3.8 0.4 5.6 1.1 1.7 0.7 3.3 1.7 4.6 3.1 1.4 1.3 2.5 2.9 3.2 4.6 0.7 1.8 1.1 3.6 1.1 5.5 0 1.9-0.4 3.7-1.2 5.4-0.7 1.7-1.8 3.2-3.2 4.5-1.3 1.3-2.9 2.3-4.6 3-1.8 0.6-3.6 1-5.5 0.9h-79.2v48.1h79.3c1.8 0 3.7 0.3 5.4 1 1.8 0.7 3.4 1.7 4.7 3 1.3 1.3 2.4 2.9 3.2 4.6 0.7 1.7 1.1 3.6 1.2 5.4 0 1.9-0.4 3.8-1.2 5.5-0.7 1.7-1.8 3.3-3.1 4.6-1.4 1.3-3 2.3-4.7 3-1.8 0.7-3.6 1-5.5 1 0 0-95.4 0-95.4 0.1zm325.9-15.9v-147.3c0-2.1 0.4-4.2 1.3-6.2 0.8-1.9 2-3.7 3.5-5.1 1.5-1.5 3.3-2.7 5.3-3.5 2-0.7 4.1-1.1 6.2-1h52.4c58 0 98 38.6 98 88.9v0.5c0 50.4-40 89.5-97.9 89.5h-52.5c-2.1 0.1-4.2-0.3-6.2-1.1-1.9-0.7-3.7-1.9-5.3-3.4-1.5-1.5-2.7-3.2-3.5-5.2-0.8-1.9-1.2-4-1.3-6.1zm32.4-12.8h36.4c38.7 0 63.9-25.3 63.9-60.3v-0.5c0-35.1-25.2-60.9-63.9-60.9h-36.4c0 0 0 121.7 0 121.7zm-91.9 14.8v-29.4h-90.6l-18.2 36.1c-0.9 1.9-2.2 3.6-3.8 4.9-1.6 1.4-3.5 2.4-5.4 3.1-2 0.7-4.1 0.9-6.2 0.8-2.1-0.1-4.2-0.7-6-1.6-2-0.8-3.7-2-5.1-3.6-1.5-1.5-2.6-3.3-3.3-5.2-0.7-2-1-4.1-0.9-6.2 0.1-2 0.7-4.1 1.6-5.9l61-121.4c2.5-5.6 16.9-36.7 64.6-36.7l28.4-0.2c1.9-0.1 3.8 0.2 5.6 0.9 1.8 0.6 3.5 1.5 5 2.7 1.5 1.3 2.7 2.7 3.7 4.4 0.9 1.6 1.6 3.4 1.9 5.3l0.1 2.5v149.4c-0.1 4.2-1.9 8.2-4.9 11.1-3 2.9-7 4.6-11.3 4.6-4.2 0-8.2-1.7-11.2-4.6-3-2.9-4.8-6.9-5-11zm0-136.4q0 0 0 0zm-9.7-0.1l-3.8 0.1c-15.6 0.8-26.5 6.3-31.5 16.1l-31.6 63.1h76.6c0 0 0-79.1 0-79.2z"/>
</svg>