<svg version="1.2" xmlns="http://www.w3.org/2000/svg" viewBox="0 0 1526 526" width="1526" height="526">
	<title>wandw-svg</title>
	<style>
		.s0 { fill: #000000 } 
		.s1 { fill: #fffffe } 
		.s2 { fill: #f84914 } 
	</style>
	<g id="Layer">
		<path id="Layer" fill-rule="evenodd" class="s0" d="m926.2 198.1c-33.5 0-61.4-18.5-61.4-55.4 0-22.4 14.6-38.2 37.9-51.6l-2.7-3.2c-10.3-11.2-17.6-22.4-17.6-38 0-26.7 23.5-49.9 59.2-49.9 35.5 0 58.7 20.7 58.7 51 0 23.8-14.9 36.3-35.4 47.3l-3.8 1.9 21.6 22.9 37.4-36.6 25.7 27.3-37.1 36.6 1.6 1.6c9.2 9.6 17.1 10.1 21.4 10.4 5.7 0.3 13.8-2.5 20-6.3v37.1c-5.7 2.7-14.3 4.9-26.8 4.9-18.6 0-31.1-7.9-42.1-19.9l-2-1.9c-16.5 12.8-34.3 21.8-54.6 21.8zm1.6-35.7c8.9 0 18.7-6 27.9-13.7l-28.7-31.1c-13.3 7.7-19.7 16.1-19.7 25.1 0 12.3 7.3 19.7 20.5 19.7zm-4.3-111.9c0 8.2 4.1 13.9 10 20.5l2.7 3 6.2-3.3c14.9-7.7 16.8-12.8 16.8-18.8 0-8.8-7-16.7-17.6-16.7-11.1 0-18.1 7.1-18.1 15.3zm-232.7-4.4l22.5 87.9 26.2-87.9h35.2l26.2 87.9 22.5-87.9h42.2l-44.9 148.5h-37.3l-26.3-90.1-26.2 90.1h-37.4l-44.9-148.5zm396.1 0l22.4 87.9 26.3-87.9h35.1l26.3 87.9 22.5-87.9h42.1l-44.9 148.5h-37.3l-26.2-90.1-26.3 90.1h-37.3l-44.9-148.5zm-423.9 442.7l14.3-30.8c12.4 8.2 27 14.7 47.6 14.7 18.1 0 25.4-8.7 25.4-25.6v-9.9c-6.7 7.9-17.5 13.1-34.6 13.1-31.1 0-57.9-22.1-57.9-70.9 0-48.9 26.8-71 57.9-71 16.2 0 30.3 7.1 37.6 16.1v-12.5h39v128.8c0 43.9-23.3 67.7-67.4 67.7-23.8 0-46.8-9.3-61.9-19.7zm87.3-86.5v-45.8c-5.4-7.7-12.9-12.3-23.2-12.3-15.2 0-26.8 11.7-26.8 35.2 0 23.5 11.6 35.2 26.8 35.2 10.3 0 17.8-4.6 23.2-12.3zm111-90.3v16.1c6.7-13.4 20.2-19.7 33.2-19.7q2.1 0.1 4.2 0.2 2.1 0.2 4.2 0.4 2 0.3 4.1 0.7 2 0.4 4 0.9v39.6c-6.2-1.9-13.2-3.6-20.3-3.6-14 0-22.4 6.6-26.5 15.9v97.9h-41.9v-148.4c0 0 39 0 39 0zm63 90.3v-90.3h41.9v87.6c0 21.3 7.6 28.6 22.5 28.6 14.9 0 22.4-7.4 22.4-28.6v-87.6h42v90.3c0 42.6-27.1 61.7-64.4 61.7-37.4 0-64.4-19.1-64.4-61.7zm196.4-90.3v12.5c7.3-9 21.9-16.1 38.1-16.1 31.2 0 58.5 25.7 58.5 77.8 0 52.1-27.3 77.8-58.5 77.8-17 0-28.4-6.8-35.1-14.7v55.9h-42v-193.2c0 0 39 0 39 0zm54.1 74.2c0-27-11.6-42-26.8-42-10.3 0-18.9 4.6-24.3 12.3v59.4c5.4 7.7 14 12.3 24.3 12.3 15.2 0 26.8-15 26.8-42zm66-74.2q0 0 0 0zm0 0c0 0 39 0 39 0v12.5c7.3-9 21.9-16.1 38.1-16.1 31.1 0 58.5 25.7 58.5 77.8 0 52.1-27.4 77.8-58.5 77.8-17 0-28.4-6.8-35.2-14.7v55.9h-41.9zm93.1 74.2c0-27-11.7-42-26.8-42-10.3 0-18.9 4.6-24.4 12.3v59.5c5.5 7.6 14.1 12.2 24.4 12.2 15.1 0 26.8-15 26.8-42zm58.9 1.7c0-43.4 23.3-79.5 67.7-79.5 40 0 64.6 28.7 64.6 75.4q0 1.8 0 3.7-0.1 1.8-0.2 3.6-0.1 1.9-0.2 3.7-0.2 1.9-0.4 3.7h-89.5c0.5 18.6 10 29.7 28.9 29.7 13.6 0 25.5-8.1 31.4-15.2l24.4 27.5c-17.4 17.5-36 23.5-55.8 23.5-46 0-70.9-29.2-70.9-76.1zm42-19.7q0 0 0 0zm0 0c0 0 49.8 0 49.8 0-0.6-15.5-8.1-25.4-24.4-25.4-14.3 0-24.1 8.5-25.4 25.4z"/>
		<path id="Layer" fill-rule="evenodd" class="s1" d="m0 0h525.9v526h-525.9z"/>
		<path id="Layer" fill-rule="evenodd" class="s2" d="m0 0h525.9v526h-525.9zm497.2 280.5h-54.5l-25.1 121.3-27.6-121.3h-47.5l-27.1 121.6-25.1-121.6h-54.4l-25.2 121.3-27.6-121.3h-47.5l-27.1 121.6-25.1-121.6h-54.7l44.2 177.3h60.2l25.9-119.3 27.1 119.3h40c-2-3.2-3.2-6.4-3.7-9.5-4.1-26 23.9-42.2 23.9-42.2 0 0-8.4-7-10.7-17.1-4.1-17.4 7-32.6 22.1-35 18.1-2.9 30.2 9.2 32.9 21.9 4.2 20.5-16.9 33-16.9 33l17 19.4c0 0 4.4-7.5 6-15.2h16.9c-2.7 14.3-10.1 28.5-10.1 28.5l14.8 16.2h21.7l25.9-119.3 27.1 119.3h60c0 0 44.2-177.3 44.2-177.3zm-253.8 162.9c2.6 16.2 18.5 15 18.5 15 0 0 11.5-0.1 19.1-12.4l-23.5-26.6c-7.1 5.9-15.7 14.2-14.1 24zm18.9-45.4c0 0 13.8-7.8 11.6-19.2-1.1-5.6-5.9-10.5-12.2-9.4-7.1 1.2-10.4 7.6-10.1 13.4 0.4 8.7 10.7 15.2 10.7 15.2z"/>
	</g>
</svg>