<svg version="1.2" xmlns="http://www.w3.org/2000/svg" viewBox="0 0 1586 461" width="1586" height="461">
	<title>wwww-svg</title>
	<style>
		.s0 { fill: #00058f } 
	</style>
	<g id="Layer">
		<path id="Layer" fill-rule="evenodd" class="s0" d="m230.9 460.8c-127.5 0-230.5-102.9-230.5-230.3 0-127.4 103-230.3 230.5-230.3 127.5 0 230.6 102.9 230.6 230.3 0 127.4-103.1 230.3-230.6 230.3zm167.9-11.8c-8.5 0-15.3-6.9-15.3-15.4 0-8.4 6.8-15.3 15.3-15.3 8.5 0 15.4 6.9 15.4 15.3 0 8.5-6.9 15.4-15.4 15.4zm13-15.4c0-7.1-5.8-12.9-13-12.9-7.2 0-13 5.8-13 12.9 0 7.2 5.8 13 13 13 7.2 0 13-5.8 13-13zm-9.4 7.1l-1.2-1.1v-2.4c0-1.2-1.2-1.2-2.4-1.2h-2.3v5.9h-3.6v-15.3h7.1c3.6 0 5.9 1.1 5.9 4.7q0 3.5-3.5 3.5c1.2 0 2.3 1.2 2.3 2.4l1.2 2.4c0 1.1 0 1.1 1.2 1.1zm-55.6-355.5h-48.4l-22.5 99.2h-1.2l-22.5-99.2h-41.3l-22.5 99.2h-1.2l-22.4-99.2h-48.5l44.9 153.6h-44.9l44.9 153.5h47.3l21.3-94.5h1.2l21.2 94.5h47.3l45-153.5h-45zm-95.7 153.5h-41.4l-22.5 99.2h-1.2l-22.4-99.2h44.9l21.3-94.5h1.2l21.3 94.5h44.9l-22.5 99.2zm149 189h-2.4v3.5h2.4c1.2 0 2.4-1.1 2.4-2.3 0 0-1.2-1.2-2.4-1.2z"/>
	</g>
	<g id="Layer">
		<path id="Layer" fill-rule="evenodd" class="s0" d="m823.3 289.6c0 20-21.3 27.1-42.6 27.1-17.7 0-35.4-4.7-35.4-20.1 0-8.2 5.9-14.1 16.5-15.3-5.9-2.4-9.5-7.1-9.5-13 0-7.1 4.8-13 11.9-14.2-9.5-4.7-14.2-11.8-14.2-22.4 0-16.6 13-26 31.9-26 7.1 0 14.2 2.4 18.9 4.7l7.1-16.5c7.1 1.2 10.7 5.9 10.7 11.8 0 5.9-3.6 10.6-10.7 11.8 3.6 4.7 5.9 9.5 5.9 15.4 0 17.7-13 25.9-31.9 25.9-3.5 0-7.1 0-10.6-1.1-3.6 1.1-4.8 3.5-4.8 5.9 0 3.5 3.6 4.7 7.1 4.7h21.3c18.9 0 29.6 7.1 28.4 21.3zm-26-56.7c0-7.9-6.4-14.2-14.2-14.2-7.9 0-14.2 6.3-14.2 14.2 0 7.8 6.3 14.1 14.2 14.1 7.8 0 14.2-6.3 14.2-14.1zm10.6 59c0-4.7-3.5-8.3-11.8-8.3h-22.5c-7.1 0-11.8 3.6-11.8 9.5 0 8.3 8.3 11.8 20.1 11.8 14.2 0 24.8-3.5 26-13zm-175-108.6l-26 101.5h-7.1c-8.3 0-14.2-3.5-15.3-11.8l-15.4-63.8-17.8 75.6h-20l-26.1-101.5h19l17.7 76.7 17.7-76.7h18.9l19 76.7 17.7-76.7zm269.6 47.2v54.3h-3.6c-9.4 0-15.3-5.9-15.3-15.3v-33.1c0-8.3-4.8-14.2-13.1-14.2-9.4 0-16.5 5.9-16.5 20.1v41.3h-18.9v-109.8h18.9v46.1c3.5-9.5 13-14.2 23.6-14.2 13 0 23.7 9.4 24.9 24.8zm-204.6 20.1h-48.5c1.2 14.2 8.3 22.4 19 22.4 5.9 0 10.6-2.3 13-5.9 2.3-3.5 5.9-5.9 10.6-5.9h7.1c-2.4 16.5-16.5 26-30.7 26-21.3 0-35.5-14.2-35.5-40.2 0-24.8 14.2-40.1 36.6-40.1 21.3 0 32 14.2 32 33 0 3.6-1.2 8.3-3.6 10.7zm-14.2-10.7c0-10.6-2.3-20-14.2-20-9.4 0-16.5 8.2-17.7 20zm54.4-54.3c0 7.1-5.9 11.8-11.8 11.8-5.9 0-11.8-4.7-11.8-11.8 0-7.1 4.7-11.8 11.8-11.8 5.9 0 11.8 4.7 11.8 11.8zm-21.3 22.5h18.9v76.7h-1.1c-10.7 0-17.8-7.1-17.8-17.7zm737.8 42.5h-48.5c1.2 14.2 8.3 22.5 18.9 22.5 5.9 0 10.7-2.4 13-5.9 2.4-3.6 6-5.9 10.7-5.9h7.1c-2.4 16.5-16.6 25.9-30.8 25.9-21.2 0-35.4-14.1-35.4-40.1 0-24.8 14.2-40.2 36.6-40.2 21.3 0 31.9 14.2 31.9 33.1 0 3.5 0 8.3-3.5 10.6zm-14.2-10.6c0-10.6-2.4-20.1-14.2-20.1-9.4 0-16.5 8.3-17.7 20.1zm-62.7-9.4v54.3h-3.5c-9.5 0-15.4-5.9-15.4-15.4v-33c0-8.3-4.7-14.2-13-14.2-9.5 0-16.6 5.9-16.6 20.1v41.3h-18.9v-109.8h18.9v46c3.6-9.4 13.1-14.1 23.7-14.1 14.2 0 23.6 9.4 24.8 24.8zm-415 36.6l2.4 14.1c-4.7 3.6-10.7 5.9-17.7 5.9-14.2 0-24.9-7-24.9-23.6v-41.3h-5.9c-4.7 0-7.1-2.4-7.1-5.9v-8.3h13v-18.9h20.1v18.9h21.3v2.4c0 7.1-4.7 11.8-11.8 11.8h-10.7v39c0 7.1 3.6 10.6 9.5 10.6 4.7 0 8.3-1.2 11.8-4.7zm623.1-3.6c0 15.4-14.2 23.6-31.9 23.6-16.6 0-29.6-7-31.9-21.2 0 0 3.5-1.2 8.2-1.2 4.8 0 8.3 1.2 11.9 4.7 2.3 3.6 7.1 4.8 11.8 4.8 7.1 0 13-2.4 13-9.5 0-16.5-42.6-3.5-42.6-33.1 0-16.5 13-24.8 29.6-24.8 17.7 0 28.4 9.5 29.5 22.5 0 0-2.3 1.2-7 1.2-4.8 0-8.3-2.4-10.7-6-2.4-3.5-5.9-4.7-10.6-4.7-7.1 0-11.9 3.6-11.9 9.5 0 16.5 42.6 2.3 42.6 34.2zm-70.9-56.7h4.7l-1.2 18.9c-2.3-1.2-5.9-1.2-8.3-1.2-10.6 0-18.9 7.1-18.9 22.5v37.8h-2.3c-9.5 0-16.6-7.1-16.6-16.5v-60.3h15.4l2.3 18.9c3.6-11.8 11.9-20.1 24.9-20.1zm-415-23.6l-26 101.6h-7.1c-7.1 0-14.2-3.6-15.4-11.8l-15.4-63.8-17.7 75.6h-20.1l-26-101.6h18.9l18.9 76.8 17.8-76.8h18.9l17.7 76.8 17.7-76.8zm153.7 63.8c0 15.3 6 26 17.8 26 4.7 0 8.3-1.2 10.6-4.7 2.4-3.6 5.9-6 10.7-6 3.5 0 7.1 1.2 7.1 1.2-1.2 14.2-11.9 23.6-29.6 23.6-22.5 0-36.7-15.3-36.7-40.1 0-24.8 13-40.2 35.5-40.2 16.6 0 28.4 8.3 30.8 23.7l-16.6 4.7c-1.2-8.3-5.9-14.2-14.2-14.2-11.8 0-17.7 10.6-15.4 26zm-92.2-15.4v55.5c-8.3 0-15.4-4.7-16.5-12.9-3.6 8.2-13 12.9-22.5 12.9-13 0-23.6-8.2-23.6-22.4 0-15.3 13-24.8 36.6-24.8h8.3v-8.3c0-7.1-3.6-11.8-11.8-11.8-7.1 0-11.9 4.7-11.9 11.8l-17.7-2.3c1.2-15.4 14.2-23.6 30.7-23.6 19 0 29.6 9.4 28.4 25.9zm-17.7 24.8v-5.9h-5.9c-13 0-20.1 3.6-20.1 11.8 0 7.1 4.7 10.7 11.8 10.7 7.1 0 15.4-4.7 15.4-16.6zm82.7 10.7l2.4 14.1c-4.7 3.6-10.6 5.9-17.7 5.9-15.4 0-24.9-7-24.9-23.6v-41.3h-7.1c-4.7 0-7.1-2.4-7.1-5.9v-8.3h13v-18.9h19v18.9h21.2v2.4c0 7.1-4.7 11.8-11.8 11.8h-10.6v39c0 7.1 3.5 10.6 9.4 10.6 4.8 0 8.3-1.2 14.2-4.7z"/>
	</g>
</svg>