<svg version="1.2" xmlns="http://www.w3.org/2000/svg" viewBox="0 0 1582 1583" width="1582" height="1583">
	<title>gelsenwasser-logo-full-svg</title>
	<style>
		.s0 { fill: #00c814 } 
		.s1 { fill: #00467d } 
	</style>
	<g id="Layer">
		<g id="Layer">
			<g id="Layer">
				<path id="Layer" class="s0" d="m0 0h1581.7v1582.5h-1581.7z"/>
				<path id="Layer" class="s1" d="m585.6 977c-10.5 10.4-25.1 16.8-41 16.8-32.5 0-58.8-26.3-58.8-58.7v-935.1h-339v1027.7c0 206.2 166.9 373.2 372.9 373.2 110.2 0 201-47.6 261.9-107.6l215.1-215.1c10.5-10.1 24.7-16.4 40.5-16.4 32.5 0 58.9 26.2 58.9 58.6v462.3h338.8v-555c0-206.1-166.9-373-372.9-373-122.6 0-211.3 58.1-259.9 105.7z"/>
			</g>
		</g>
	</g>
</svg>