<svg version="1.2" xmlns="http://www.w3.org/2000/svg" viewBox="0 0 1576 379" width="1576" height="379">
	<title>XBIT_BIG-0fd237fe-svg</title>
	<style>
		.s0 { fill: #aecd47 } 
		.s1 { fill: #ffffff } 
	</style>
	<g id="#aecd47ff">
		<path id="Layer" class="s0" d="m26.1 0h123.7c3.3 5 5.7 10.5 8.6 15.7 15 28 29.7 56.2 44.8 84.1 2.8-3.8 4.8-8.1 7.2-12.2 14.3-25.2 28.6-50.4 42.9-75.6 2.4-4 4.2-8.4 7.3-12h127.7c-2 5-5.2 9.4-7.9 14.1q-46.5 76.4-92.8 152.8c-2.5 4.3-5.6 8.2-7.4 12.7-0.7 2.5 1.2 4.7 2.3 6.8 22.8 38.1 44.5 77 67.1 115.3 14.9 25.6 30.2 50.9 44.7 76.8-0.7 0.1-2.1 0.4-2.7 0.5h-130.8c-2.7-0.4-5.2-1.9-6.5-4.4-19.1-35-38-70.1-57.2-105-19.7 35.1-39.5 70.2-59.1 105.4-1 2-2.5 3.8-4.8 4h-133.2v-0.8c21.7-31.2 42.2-63.3 63.4-94.8 21.2-31.5 42.1-63.2 63.3-94.7 2.1-3.4 5.3-6.4 6-10.4-1.2-3.9-3.8-7.1-5.8-10.6-29.2-48.1-58.1-96.4-87.2-144.5-4.4-7.8-9.6-15.2-13.6-23.2z"/>
	</g>
	<g id="#8f8f8fff">
		<path id="Layer" fill-rule="evenodd" class="s1" d="m1402.7 28.3c11.7-0.1 23.5-0.2 35.2 0.1 0.2 43.1 0.1 86.1 0.1 129.1 8.8-13.2 19.9-25.4 34.2-32.9 10.8-5.9 23.2-7.9 35.4-8.2 12-0.2 24.1 2.2 34.7 7.9 10.9 6 20.9 14.7 26 26.3 6 12.9 6.5 27.2 7.7 41.1v138.5c-0.1 0.8-0.4 2.4-0.6 3.2-10.1 0.4-20.3 0.1-30.4 0.2-1.7 0-4.9 0.2-4.4-2.4-0.2-12.5 0-25.1-0.1-37.6 0.1-29.2-0.5-58.4-0.3-87.6 0.3-11.1-0.3-22.5-3.9-33.1-2.8-8.3-8.8-15.6-16.8-19.3-10.4-4.8-22.4-5.7-33.5-3.2-15.3 3.6-27.7 14.7-36.4 27.5-10.7 16.4-11.9 36.9-11.6 56q0 48 0 96c-0.1 1.5 0.3 3.6-1.8 3.5-11.1 0.4-22.3 0.4-33.4-0.1-0.7-17.5-0.3-35 0-52.5-0.1-84.2 0-168.3-0.1-252.5zm-1013.5 15.5c-0.3-1.7 0.5-4 2.7-3.7 21-0.2 42 0 63-0.1 21.8 0.8 43.9-0.7 65.6 3 9.5 1.7 19.1 4 27.3 9.2 14.8 8.8 25.2 24.5 27.4 41.6 2 16.2-0.8 33.2-9.1 47.4-9.8 17.1-26.2 29.1-43.4 37.9 18.1 5 36.4 13 48.8 27.7 14.2 16.1 18.4 38.8 15.5 59.6-2.2 15.3-9.6 29.7-20.5 40.7-8.3 8.4-17.9 16-29.4 19.6-17.9 5.8-36.9 6.5-55.6 6.9-29.9 0-59.8 0.1-89.7 0-2.1 0.3-2.9-2-2.6-3.7q0-143.1 0-286.1zm38.6 26.3c-0.5 30.4 0 60.7-0.2 91.1 0.1 2.1-0.2 4.3 0.7 6.2 9.2 0.5 18.4 0.1 27.6 0.2 16.4 0.1 33.4 0.1 48.6-6.7 19.6-8.9 32.7-29.7 33-51.1-0.1-12.9-7.3-25.4-18.5-31.9-9.1-5.2-19.7-7.1-30-7.7-20.4-0.4-40.8-0.5-61.2-0.1zm0.8 128c-1.5 1-0.7 3.2-1 4.8q0.1 47.5 0 95c0.2 1.7-0.3 3.6 0.7 5.2 1.5 1.1 3.5 0.5 5.2 0.7 18.2-0.1 36.3 0 54.5-0.1 10.7-0.6 21.5-1.6 31.6-5.3 14.1-5.3 24.5-18.5 27.2-33.2 3.6-17.5-3.8-36-16.9-47.7-11.4-10.1-26-16.4-41.1-18.3-18.3-2.3-36.9-1.5-55.3-1.7-1.6 0.2-3.6-0.5-4.9 0.6zm179.7-153.2c0.2-1.9-0.5-5.3 2.5-4.8 10.3 0 20.7-0.2 31 0.1 2.4-0.1 1.6 3.1 1.8 4.7-0.3 10.2 0.5 20.6-0.5 30.8-11.5 0-23 0.4-34.4-0.1-0.8-10.2-0.1-20.5-0.4-30.7zm292.7 29.9q-0.2-2.7 2.4-2.5c11.1 0.1 22.1-0.1 33.2 0.2 0.8 12.4 0.1 25 0.4 37.5 0.2 3.9-0.7 7.9 0.2 11.8q1.6 0.8 3.4 0.7c19 0.1 38.1-0.1 57.1 0.1 0.5 2.2 0.7 4.4 0.5 6.6-0.4 7.6 0 15.1 0.2 22.7-11 1.1-22.1 0.2-33.2 0.5-9.3 0.3-18.7-0.8-28 0.1-1.1 8.5-0.4 17.2-0.2 25.8q-0.1 41.1 0 82.3c0.2 10.1 1.2 20.4 4.8 29.9 2.6 6.7 7.9 12.2 14.4 15.2 8.7 4 18.7 5 28.1 3.5 8.1-1.2 16-3.7 23.9-5.8-0.1 10.1 0.3 20.2-0.2 30.3-12.7 2.8-25.4 5.8-38.5 6-13.4-0.2-27.1-2.6-38.9-9.3-10.7-6.1-19.8-15.6-24.1-27.4-6-17-5.6-35.4-5.6-53.2 0-31 0-61.9 0-92.9-0.1-1.4 0.3-3.1-0.9-4.2-1.9-0.9-4.2-0.5-6.2-0.6-7.5 0.5-15.1 0.2-22.6 0.3-2.2-0.1-4.6 0.3-6.6-0.8-0.6-8.1-0.1-16.4-0.3-24.6 0.2-1.4-0.5-4.5 1.8-4.4 10.9-0.3 21.9 0.2 32.8-0.2 1.5 0 2.1-1.6 2-2.9 0.1-14.9-0.1-29.8 0.1-44.7zm-153 42.4c20.7-3.1 42.5 0.1 60.9 10.2 16.2 8.8 30.3 21.8 39.1 38 9.8 17.9 13.1 38.6 13.5 58.8 0.2 21.1-1.8 42.8-11.4 61.9-8.3 17.1-21.4 32-38.2 41-15.8 8.6-33.8 12.6-51.6 12.9-26.2 0.3-52-11-70.3-29.5-12.8-12.6-21-29.4-24.7-46.9-5.1-24.8-5.8-51.1 1.2-75.7 4.6-16.7 12.9-32.7 25.5-44.8 14.9-14.8 35.4-23 56-25.9zm3.2 29.9c-11.3 1.9-22.1 7.2-30.1 15.5-12.8 13.4-19.7 31.6-21.6 49.8-2.3 20.9-0.5 42.7 8.5 61.9 6.8 14.7 18.9 27.6 34.6 32.6 14.4 4.6 30.7 4.1 44.4-2.5 14.4-7.3 25.1-20.7 30.6-35.7 8-21.3 8.8-44.8 4.3-66.9-3.8-17.1-12-34.2-26.4-44.8-12.6-9.4-29-12.7-44.3-9.9zm343.1-29.2c20.2-3.4 41.7-1.5 60 7.8 13 6.3 23.7 16.8 30.6 29.4 9.7 17.1 12.6 37.1 13.2 56.5 0.1 6.8 0.8 13.6 0.1 20.4-49.9 0.6-99.9-0.2-149.9 0.4 0.2 19.1 4.9 38.9 17 54.2 8.8 11.6 22.2 19.4 36.6 21.9 15.3 2.7 32.1 2.6 45.9-5.5 7.3-4 12.7-11.7 13.3-20.1 0.6-1.1-0.3-3.9 1.7-3.6 11.5-0.2 22.9-0.2 34.4 0.1 0.6 12.1-5.2 23.4-12.7 32.5-9.2 11.3-22.3 19-36.2 23-22.3 6.4-46.5 6.9-68.7-0.1-14.9-4.4-28.7-13.1-38.8-25-14.1-16.4-22.7-37.1-25.6-58.4-2.9-22.5-1.8-45.9 5.7-67.5 5.8-17 15.6-32.8 29.2-44.7 12.4-11 27.9-18.6 44.2-21.3zm-22.7 45c-11.6 11.2-17.8 26.8-20.8 42.4 4.5 0.8 9.1 0.4 13.7 0.5q28.9 0 57.7 0c14-0.3 28 0.5 42-0.4 0.7-16.7-5.3-33.7-17.1-45.6-10.4-10.3-25.6-13.9-39.8-13.6-13.7 0.2-26.3 7.2-35.7 16.7zm213.2-44.8c22.9-3.7 47.5-2.2 68.5 8.4 14.2 6.9 25.6 19.2 31.3 34 1.9 5.3 2.4 11 2.1 16.6-11.9 0.7-23.7 0.5-35.6 0.1 0-6-0.7-12.3-4.6-17.2-5.8-7.7-15.5-10.8-24.6-12.7-16-3.3-33.5-0.7-47 8.7-12.8 8.5-21.8 22.2-25.4 37.2-4.3 18.2-4.8 37.2-2.5 55.8 1.5 11.8 4.5 23.7 11 33.8 9.2 14.6 25.2 24.9 42.5 26.6 12.9 1.3 26.9 0.6 38.1-6.6 6.9-4.3 12.1-11.7 12.4-20.1 0.2-1.1-0.2-3.7 1.7-3.4 11.4-0.1 22.7-0.4 34 0.2 0.9 18.1-11 33.9-24.7 44.5-15.6 12-35.9 15.3-55.1 15.8-21.7 0.3-44.3-5.1-61.7-18.6-16.4-12.8-26.8-32-31.8-52-4.4-17-4.8-34.8-4.3-52.3 0.7-13.9 2.9-28 7.6-41.2 5.6-16.1 15.7-30.8 29.2-41.3 11.2-8.8 24.9-14.1 38.9-16.3zm-676.4 7.8c-0.2-1.4 0.2-3.8 2.2-3.3 10.9-0.1 21.7-0.2 32.5 0 0.7 4.7 0.5 9.4 0.5 14.1 0 64 0 128.1 0 192.2-0.1 1.4 0.1 3-0.9 4.2-3.8 1-7.8 0.4-11.7 0.4-7.4-0.5-14.9 0.9-22.3-0.3-0.1-0.9-0.3-2.5-0.3-3.3q0-102 0-204z"/>
	</g>
</svg>