<svg version="1.2" xmlns="http://www.w3.org/2000/svg" viewBox="0 0 1592 1530" width="1592" height="1530">
	<title>XBIT_BIG-0fd237fe-svg</title>
	<style>
		.s0 { fill: #aecd47 } 
	</style>
	<g id="#aecd47ff">
		<path id="Layer" class="s0" d="m105.5 0h499.3c13.4 20.1 23.2 42.2 34.9 63.3 60.6 113.1 120 226.8 180.9 339.7 11.1-15.6 19.4-33 28.9-49.5 57.9-101.6 115.8-203.2 173.4-304.9 9.5-16.3 16.8-34.2 29.3-48.6h515.8c-8.3 20.2-21 38.1-32 56.9-125.1 205.5-250 411.2-374.8 617-9.8 17.1-22.4 32.8-29.8 51.1-2.7 10 5 18.9 9.1 27.3 92.2 154.2 180.1 310.9 271.1 465.7 60.3 103.2 121.9 205.6 180.4 309.8-2.7 0.6-8.1 1.7-10.8 2.2h-528c-11.1-1.4-21.1-7.6-26.3-17.7-77-141.3-153.3-283-230.8-424-79.6 141.9-159.8 283.4-238.8 425.7-4 7.8-10 15.2-19.4 16h-537.9v-3.2c87.5-126.1 170.3-255.5 256-382.8 85.8-127.1 170.1-255.2 255.8-382.3 8.2-13.7 21.1-25.6 24.2-41.8-5-15.8-15.6-28.9-23.7-43.1-117.7-194.2-234.7-388.8-352-583.2-17.8-31.5-38.8-61.1-54.8-93.6z"/>
	</g>
</svg>