<svg version="1.2" xmlns="http://www.w3.org/2000/svg" viewBox="0 0 1532 552" width="1532" height="552">
	<title>positive-svg</title>
	<style>
		.s0 { fill: #cc0000 } 
	</style>
	<g id="Layer">
		<path id="Layer" fill-rule="evenodd" class="s0" d="m370.2 260.2l186.5 278.3h-192.7l-50.6-85.1c-17.9-30-26.5-46.6-38.2-75.7q-4.6 10.1-9.4 20-4.9 9.9-10.1 19.7-5.1 9.7-10.6 19.3-5.5 9.6-11.2 19l-43.4 82.8h-190.3l188.5-278.3-188.7-246.8h186.1c0 0 84.4 119.8 96.1 146.7 8.5-19.8 85.6-146.7 85.6-146.7h188.9zm639.9-60.7q0 13.5-1.7 26.4-0.2 1.4-0.4 2.8c-5.5 38.9-22.4 72.8-49.4 100.1-33.5 33.2-76.3 48.1-144.9 48.1h-92.7v161.6h-164.4v-525.1h218.2c84.9 0 123.8 7.9 159.7 32.3 48.3 32.4 75.6 87.6 75.6 153.8zm-160-0.7c0-37.9-21.8-56.1-68.6-56.1h-60.5v110.4h63.6c46 0.8 65.5-16.6 65.5-54.3zm681.5 78c0 164.7-105.2 274.3-261 274.3-158.9 0-265.6-108.7-265.6-275.1 0-16.3 1-32.1 3-47.3q0.2-1.4 0.4-2.8c19.3-137.9 119.3-225.9 263.8-225.9 155 0 259.4 112 259.4 276.8zm-165.1-7.1c0-88.3-33.5-140.4-96.6-140.4-63.9 0-99 55.2-99 144.3 0 93.8 33.6 148.3 99.7 148.3 64.7 0 95.9-52.9 95.9-152.2z"/>
	</g>
</svg>