<svg version="1.2" xmlns="http://www.w3.org/2000/svg" viewBox="0 0 1511 372" width="1511" height="372">
	<title>logo (37)-svg</title>
	<style>
		.s0 { fill: #008eaa } 
		.s1 { fill: #ffffff } 
	</style>
	<g id="Layer">
		<path id="Layer" fill-rule="evenodd" class="s0" d="m371.8 186c0 102.6-83.3 186-185.9 186c-102.6 0-185.9-83.4-185.9-186c0-102.6 83.3-186 185.9-186c102.6 0 185.9 83.4 185.9 186zm-13.7 0c0-95.3-77-172.3-172.2-172.3c-95.2 0-172.2 77-172.2 172.3c0 95.3 77 172.3 172.2 172.3c95.2 0 172.2-77 172.2-172.3z" />
		<path id="Layer" fill-rule="evenodd" class="s0" d="m350.6 186c0 91-73.7 164.8-164.7 164.8c-90.9 0-164.7-73.8-164.7-164.8c0-91 73.8-164.8 164.7-164.8c91 0 164.7 73.8 164.7 164.8zm-279.3 30.5c0.9-0.3 20.1-5.2 23.9-6.2c8.1-2 10.4 1.4 10.4 1.4c-0.5-2.1-1.9-6.5-6.3-9.6c-4.1-2.9-9.1-0.6-9.1-0.6c0 0-14.3 7.5-18.5 8.5c-9.1 2.3-13.4-5.4-13.4-5.4c0 0 3.7 8.7 6.7 10.6c3 1.9 6.5 1.2 6.3 1.3zm-0.1 0q0.1 0 0.1 0q-0.1 0-0.1 0zm127.1-42.7c0 0 17.1-5.9 51.4 21.9c19.9 16.3 45.8 16.6 53.5 15c11.5-2.4 26.6-19.2 26.6-19.2c0 0-18.1 2.1-33.6-11.2c-15.5-13.5-24.9-33.6-47.8-44c-7.1-3.1-24.9-6.2-24.9-6.2c0 0 3.5-4.5 12.4-5.4c10.4-0.9 30.5 4.6 30.5 4.6c0 0-7.5-4.8-16-13.3c-7.5-7.5-17.3-12.4-33.4-12.1c-3.3 0.1-20.9 3.2-20.7 3c6.2-11.7 37.4-14.8 37.4-14.8c0 0-21 0.5-39.6-5.2c-6.4-2-17.3-5.9-26.5-4.5c-27.4 4-26.4 19.8-26.4 19.8c0 0 7 11 9.7 18.8c2.3 7.1 5.7 19.7 1.9 31.3c-6.4 20.3-15.7 17.3-14.4 27.7c0.7 6.2 5.3 10.5 4.3 28.8c-1.1 20.6-11.8 29.9-15.2 37c-15.7 33.3 2.9 43.8 8.1 47.3c13 8.7 43.7 2.1 43.7 2.1c0 0-13.7-2.1-22.8-11.7c-8.6-9-6.1-13.4-6.1-13.4c0 0 9.2 8.9 17.7 12.3c12.8 5.1 26.4 2 33.5 0.2c15.3-3.8 35.1-15.5 35.1-15.5c0 0-26 5.7-44.1-7.7c-11.9-8.7-19.2-32.5-19.2-32.5c0 0 9.4 12 23.5 21.4c14.3 9.6 34.9 13.2 55.4 8.4c20.6-4.9 53.1-35.1 53.1-35.1c0 0-26.5 8.3-44.1-2.4c-5.5-3.2-21.5-19.7-35.3-31.2c-12.5-10.4-27.7-14.2-27.7-14.2zm-75.8 64.9c0 0 6.1-3.3 12.3-24.4c6.1-21.1-3.7-29.7-4.7-38.3c-1-8.5 15.1-14 16.8-36.2c0.8-12.2-12.1-31.9-12.1-31.9l-36.5 28.4l-0.4 5l10.5-1.7l5.4 20.2l-18.2-16c0 0-32.7 23.6-32.2 28.1c0.5 4.5 4.1 4.4 4.1 4.4l11.7 20.3c2.2-6 6.9-10.7 13.1-12.2c10.1-2.6 20.2 4.2 22.6 15.2c2.4 11-4 22-14.1 24.5c-5.1 1.2-10.2 0.1-16.6-2.3l6 15.8c0 0 21.7-5.8 25.8-6.4c4.2-0.5 6.5 7.5 6.5 7.5z" />
	</g>
	<g id="Layer">
		<path id="Layer" fill-rule="evenodd" class="s1" d="m624.4 222.5v33.7c0 1.5-1.3 2.7-2.8 2.7h-176.7c-1.5 0-2.7-1.2-2.7-2.7v-140.4c0-1.3 1.2-2.6 2.7-2.6h174c1.5 0 2.7 1.1 2.7 2.6v32.5c0 1.5-1.2 2.7-2.7 2.7h-128.4v17h122.6c1.5 0 2.8 1.3 2.8 2.8v29.1c0 1.5-1.3 2.7-2.8 2.7h-122.6v17.1h131c1.5 0 2.7 1.3 2.9 2.8zm224.1 33.7l-0.3 1c-0.5 1-1.4 1.6-2.5 1.6h-57.8c-0.7 0-1.5-0.4-2-0.9c0 0-40.6-44.8-44.2-48.8c-3.7 4.1-44.3 48.8-44.3 48.8c-0.5 0.5-1.3 0.9-2 0.9h-57.7c-1.1 0-2.1-0.6-2.5-1.6l-0.2-1c0-0.7 0.2-1.4 0.7-1.9c0 0 63.7-65.1 67-68.5c-3.2-3.5-62.1-68.1-62.1-68.1c-0.5-0.5-0.8-1.2-0.8-1.9l0.3-1.1c0.5-1 1.4-1.6 2.5-1.6h55.5c0.8 0 1.5 0.2 2 0.9c0 0 37.9 42.5 41.6 46.7c3.6-4 41.5-46.7 41.5-46.7c0.5-0.5 1.2-0.9 2-0.9h55.5c1.1 0 2 0.6 2.5 1.6l0.3 1.1q0 1.2-0.8 1.9c0 0-58.9 64.4-62.1 68.1c3.3 3.4 67 68.5 67 68.5c0.5 0.5 0.7 1.1 0.9 1.9zm203.1-92.3v12c0 11.2-3 47.7-42.2 47.7h-101.6v32.6c0 1.5-1.2 2.7-2.7 2.7h-43c-1.5 0-2.8-1.2-2.8-2.7v-140.4c0-1.3 1.3-2.6 2.8-2.6h136c47.9 0 53.4 29 53.5 50.7zm-143.9 19.4h83c7.5 0 11.2-4.2 11.2-12.3v-5.3c0-6.4-1.8-12.3-14.9-12.3h-79.3zm334.5 17.6c9.5 3.6 17.5 11.5 17.5 31.5v23.8c0 1.5-1.2 2.8-2.7 2.8h-43.1c-1.5 0-2.7-1.3-2.7-2.8v-16.8c0-13.3-3.3-16.9-15-16.9h-83.7v33.7c0 1.5-1.3 2.8-2.8 2.8h-43c-1.5 0-2.8-1.3-2.8-2.8v-140.3c0-1.4 1.3-2.6 2.8-2.6h148.6c30.9 0 44.7 13.6 44.7 44.3v8.9c0 16.4-3.3 28.2-17.8 34.4zm-129.7-18.8h87.2c9.7 0 13.2-3.2 13.2-12v-4.6c0-9.6-3.4-12-17.1-12h-83.3zm378.9-17v41.8c0 47-31.1 53.5-64.5 53.5h-87.7c-33.6 0-64.5-6.5-64.5-53.5v-41.8c0-46.9 31-53.4 64.5-53.4h87.7c33.4 0 64.5 6.5 64.5 53.4zm-74-12h-69.1c-20.5 0-24.2 8.5-24.2 25.4v15.1c0 18.9 3.2 25.3 22 25.3h73.8c18.9 0 22-6.2 22-25.3v-15.1c0-16.8-3.8-25.4-24.5-25.4zm83.6-41.4c5.1 0 9.5 4.1 9.5 9.5c0 5.5-4.2 9.6-9.5 9.6c-5.2 0-9.6-4.1-9.6-9.6c0-5.4 4.4-9.5 9.6-9.5zm7.9 9.5c0-4.5-3.5-8.1-7.9-8.1c-4.3 0-7.8 3.6-7.8 8.1c0 4.5 3.5 8.2 7.8 8.2c4.4 0 7.9-3.7 7.9-8.2zm-11.5 5.7v-11.2h4.2c2.7 0 3.9 1.1 3.9 3.2c0 2-1.2 2.9-2.9 3l3.2 5h-1.9l-3-4.7h-1.9v4.7zm1.8-9.9v3.7h1.7c1.5 0 2.9-0.2 2.9-1.9c0-1.5-1.4-1.8-2.5-1.8z" />
	</g>
</svg>