<svg version="1.2" xmlns="http://www.w3.org/2000/svg" viewBox="0 0 1512 1589" width="1512" height="1589">
	<title>Xerox_logo-svg copy-svg</title>
	<style>
		.s0 { fill: #d40e2a } 
	</style>
	<path id="path370" fill-rule="evenodd" class="s0" d="m422.9 0.8c36.1 0 54.9 15 72.8 56 81.9 190.9 193.8 372.7 279.1 473.5 54-56 179.4-210.8 318.8-473.5 23.1-44.9 44.3-56 75.7-56h258.9c23.1 0 51.1 11.1 36.1 56-102.7 304.7-337.5 571.8-467.2 709.7 141.3 134.1 392.5 451.3 510.1 761.9 10.7 27.4 5.8 59.7-53.5 59.7h-309.5c-31.8 0-56.9-3.3-78.1-55.9-77.2-190.9-196.8-391-333.7-522.7-149.5 158.2-263.3 353.5-339.9 522.7-18.8 41.5-37.1 55.9-78.1 55.9h-283.5c-19.3 0-38.6-22.1-26.1-56.4 84.4-230.9 252.7-518.8 492.8-734.8-188.5-228.1-370.3-505.8-442.2-740.1-10.6-35.2 8.2-56 34.3-56z"/>
</svg>