<svg version="1.2" xmlns="http://www.w3.org/2000/svg" viewBox="0 0 1466 1558" width="1466" height="1558">
	<title>manbang-new-logo-svg</title>
	<style>
		.s0 { fill: #e50012 } 
		.s1 { fill: #ffffff } 
	</style>
	<g id="#e50012ff">
		<path id="Layer" class="s0" d="m641.9 12.9c156.3-27.8 321.1-6.8 464.9 60.5 151 69.6 277.6 189.5 356.6 335.6-18.5 10.2-37 20.3-55.6 30.2-82.4-152.8-222-273.7-385.5-332.4-139.8-51.1-295.6-56.9-438.7-15.9-151.1 42.4-286.7 136.7-379.9 262.8-81.2 108.5-130.2 240.6-139.4 375.8-12.7 170.6 39.3 345.2 143.2 481.1 102.6 136.6 255.6 234.7 423 269.4 151.8 32.7 314.2 13.4 454.3-53.7 138-64.7 253.1-175.6 325.1-309.9 18.5 10 37 19.9 55.5 29.8-53.1 99.8-128.3 187.8-218.7 255.8-124.3 94.3-277.6 148.5-433.3 156h-70.6c-158.9-7.5-315-64.3-440.5-162.1-104.3-80.9-188.1-188.2-239.9-309.6-37.3-85.9-57.5-178.7-62.4-272.1v-70.3c8.7-188.6 88-373.1 220.9-507.5 112.2-116.3 261.8-195.8 421-223.5z"/>
	</g>
	<g id="#ffffffff">
		<path id="Layer" class="s1" d="m1200.6 570.3c32.7-8.1 65.5-16.4 98.3-24.5 2.2 154.8 1 309.7 1.2 464.6-32.7 0.5-65.5 0.1-98.2 0.2-1.8-146.7-1.3-293.5-1.3-440.3zm152.5-0.3c33.2-8.2 66.3-16.7 99.5-24.7-0.3 154.7 2.2 309.3 1.6 464-33.3 0-66.4 0-99.7 0 0-146.4 0.5-292.9-1.4-439.3zm-866.7-21.3c103.5 0.5 207-0.6 310.5-1.3 0 31.9 0 63.8 0 95.7-69.4 0-138.8 0.1-208.2 0 2.4 31 0.7 62.1 1.2 93.2 64.3 0 128.5 0 192.8 0q0 47.2 0 94.5c-64.3 0.4-128.5 2-192.8 1.3 0 59.9 0.1 119.9-0.1 179.9-34-0.1-68 0-102-0.1-3-154.3-0.6-308.8-1.4-463.2zm354.5 143.6c33.2 0 66.4 0 99.6 0 0.2 57.4-0.2 114.8 0.2 172.1 0.5 22.8 4.8 50.3 27 62.3 21.4 8.8 49.7 5.8 65.5-12.3 11.8-14.2 14.4-33.3 15.4-51.1 2-57-0.4-114-0.7-171q49.9 0 99.6 0c-0.9 106.2 1.9 212.2 1.3 318.3-31.9 0-63.8 0-95.7 0-0.1-14.1-0.1-28.3 0.2-42.4-19.5 32.9-57.7 52.3-95.7 50.3-33.5 1.2-70.5-9-91.2-37.2-22.4-30.6-23.5-70.2-25.3-106.5-0.4-60.9-0.1-121.7-0.2-182.5z"/>
	</g>
</svg>