<svg version="1.2" xmlns="http://www.w3.org/2000/svg" viewBox="0 0 1606 519" width="1606" height="519">
	<title>Zebra_Technologies_logo-svg</title>
	<style>
		.s0 { fill: #ffffff } 
	</style>
	<g id="layer1">
		<g id="g1688">
			<path id="path1017" class="s0" d="m344.8 333.7h-36.5v-103.2l36.5 36.5zm-146-6.3l36.5 36.4v51.6l-73-72.9v-206.7l-94.5-94.1q7.5-6.2 15.7-11.5 7.5-4.9 15.4-9l99.9 99.5v-120c33.2 0 60.1 26.9 60.1 60 0 31.3-23.9 57-54.5 59.8h46.8l0.2 0.2 36.3 36.3h-88.9zm73-133.4l-0.2 139.5h-36.4l0.1-176.2zm36.5 36.5l-36.5-36.4h52.3l36.5 36.4zm-307.6-49.5c0.2-15.6 2.3-30.8 6.2-45.4l82.4 82.4v-51.6l-67.9-67.8c5.8-11.1 12.7-21.5 20.6-31.1l83.8 83.8v154.8 2.1c-4-4.2-125.1-127.2-125.1-127.2zm234.6 286.1v51.5l-233.9-233.8v-51.5zm229.7-133.3c0 33.2-26.9 60.1-60.1 60.1-33.2 0-60.1-26.9-60.1-60.1h36.5v-46.1h36.5z"/>
			<path id="path1069" fill-rule="evenodd" class="s0" d="m715.1 334.5l-27.4 52h-170.5l110.9-212.9h-98.2l27.4-52h170.6l-111 212.9zm99.1-106.9h87.4v52.1h-87.4v54.8h87.4v52.1h-151.8v-265h151.8v52h-87.4zm209.7-106c33.7 0 53.2 3.5 67.5 12.7 18.3 11.1 29.4 33.7 29.4 59.2 0 18.6-5.9 34.1-17.8 46-7.6 8-13.6 11.6-27.9 15.5 16.3 3.6 23.5 7.2 31.8 15.1 12 11.2 17.9 26.7 17.9 46.1 0 24.6-9.9 46.5-27 58-13.1 8.8-29 12.3-56.1 12.3h-108.5v-264.9zm-26.2 109.6h15.9c29.4 0 41.7-9.1 41.7-31 0-21.4-12.3-30.6-42.5-30.6h-15.1zm0 109.3h23.4c27.1 0 38.6-9.2 38.6-30.6 0-12.7-4.8-21.9-14.3-27-7.2-4-13.5-4.8-33-4.8h-14.7zm216.6 46.1h-64.4v-265h85.9c34.9 0 60.4 6.4 77.9 19.9 18.3 14.3 28.6 38.1 28.6 67.1 0 40.5-17.1 67.1-51.3 80.7l58.5 97.3h-77.2l-58-102.5zm20.7-138.7c26.2 0 42.1-13.5 42.1-36.5 0-21.9-15.5-37-38.1-37h-24.7v73.5zm284.7 86.6h-85.9l-16.4 52.1h-67.9l87.4-265h81.9l87.1 265h-69.9zm-16.3-52.1l-26.6-84.9-26.6 84.9z"/>
		</g>
	</g>
</svg>