<svg version="1.2" xmlns="http://www.w3.org/2000/svg" viewBox="0 0 1559 297" width="1559" height="297">
	<title>Bitmap (7)-svg</title>
	<style>
		.s0 { fill: #000000 } 
		.s1 { fill: #5f3844 } 
		.s2 { fill: #6e8778 } 
		.s3 { fill: #00502f } 
	</style>
	<g id="#000000ff">
		<path id="Layer" fill-rule="evenodd" class="s0" d="m1045.6 51.8c12-9.1 27.2-13.3 42.1-12.9 14.7 0 29.3 4.3 41.9 11.9-4.5 11.7-9.1 23.4-13.5 35.1-8.6-5.8-18.5-10.5-29.1-10.4-3.3 0.1-6.9 0.9-9 3.5-1.8 2.1-1.8 5.7 0.5 7.4 2.3 1.8 5.2 2.2 7.9 2.8 10.9 2.5 22.4 4.3 31.8 10.7 7.4 4.8 12.9 12.4 14.7 21 2.6 12.2 0.6 25.7-6.8 35.9-7 9.9-18 16.5-29.5 19.8-14.2 4.2-29.3 3.6-43.7 0.8-10.6-2.1-21.1-5.4-30.7-10.3 5.1-12.9 10.2-25.8 15.2-38.7 8.5 6.8 18.1 12.9 29.1 14.2 5.1 0.8 11 0.4 15-3.1 3.3-2.8 2.5-8.7-1.6-10.2-5.2-2-10.9-2.4-16.3-3.5-11.8-2-23.9-7-30.9-17.1-6.3-8.8-6.8-20.5-4.4-30.9 2.4-10.4 8.8-19.6 17.3-26zm91.4-10.8q52.2 0 104.4 0c0 14.8 0 29.7 0 44.5-9.1-0.5-18.3-0.8-27.4-1.3q0 46.6 0 93.3-24.9 0-49.8 0 0-46.7 0-93.3c-9.1 0.5-18.2 0.8-27.2 1.3q0-22.2 0-44.5zm115.5 0q45.9 0 91.9 0 0 18.7 0 37.4-20.9 0-41.8 0-0.1 6.5 0 12.9 19.1 0 38.1 0 0 17.8 0 35.5-19 0-38.1 0-0.1 6.7 0 13.3 21.6 0 43.2 0c0 12.5 0 24.9 0 37.4q-46.7 0-93.3 0 0-68.3 0-136.5zm108.5 0q45.9 0 91.8 0 0 18.7 0 37.4-20.9 0-41.7 0 0 6.5 0 12.9c12.7 0.1 25.5 0 38.2 0.1 0 11.8 0 23.6 0 35.4q-19.1 0-38.2 0 0 6.7 0 13.3c14.4 0 28.9 0 43.3 0 0 12.5 0 24.9 0 37.4q-46.7 0-93.4 0 0-68.3 0-136.5zm105.7 0q24.8 0 49.6 0 0 46.3 0 92.6 20.9 0 41.7 0v43.9c-30.4 0-60.8 0-91.3 0q0-68.3 0-136.5zm-1148.7 1.3c13.4-1.7 27.5 0 40 5.4 11.1 4.8 21 12.7 27.9 22.7 7.1 10.2 11 22.4 11.8 34.7 0.6 11.8-0.9 23.9-5.4 34.8-4.4 11.2-12.1 21.1-21.9 28.1-10.8 7.7-23.8 12-37 13.1-10.5 0.9-21.2 0.3-31.3-2.8-12.6-3.8-23.9-11.7-31.6-22.4-10.1-13.8-14-31.3-13.3-48.2 0.6-16.7 7.3-33.2 19.1-45.1 11-11.3 26.1-18.3 41.7-20.3zm-2.6 6.3c-11.9 1.4-23.2 7.5-30.7 16.8-8.9 10.6-13 24.7-13.4 38.4-0.3 18.3 5.5 37 17.4 51.1 8.2 9.8 19.6 16.9 32.1 19.4 11 2.3 22.7 1.5 32.9-3.3 9.8-4.6 17.8-12.7 22.7-22.3 5.4-10.2 7.4-22 7.1-33.4-0.4-14.8-4.9-29.5-13.5-41.6-5.4-7.8-12.7-14.5-21.1-19-10.2-5.4-22.1-7.5-33.5-6.1zm625-6.3c7.1-1 14.4-0.7 21.7 0 8.8 0.9 17.6 3 25.6 6.9 4.4 1.9 8.3 5 12.7 7 2.4 1.4 4.2-1.9 6.6-1.6 1.5 0.7 1.5 2.6 1.7 3.9 0.6 7.5 0.7 15 1.4 22.5 0 1.9 0.6 4.4-1.1 5.8-2 0.7-3.2-1.4-3.9-2.9-2-4.9-5.1-9.2-8.1-13.5-5.8-8.1-13.4-15.3-22.8-19.1-7-2.9-14.6-4-22.2-3.8-13.2 0-27.1 3.8-37 13-8.4 7.6-13.5 18.3-15.8 29.3-2.7 13.3-2.5 27.3 1 40.5 3.1 11.3 8.6 22.2 17.1 30.5 7.8 7.8 18.4 12.9 29.4 14.1 17.4 2 35.8-3.2 49.1-14.7 4.1-3.7 8.1-7.9 10.1-13.2 0.4-1.5 2.2-3.1 3.6-1.9 1.4 0.8 0.6 2.5 0.4 3.8-1.5 5.8-2.5 11.7-4.1 17.5-3.4 3.8-8.3 6-12.9 8-13.9 5.5-29.1 7.1-44 7-11.6 0.3-23.2-2.2-33.6-7.3-11.2-5.5-20.6-14.5-26.5-25.4-6.3-11.3-8.8-24.4-8.3-37.3 0.5-20.2 9.3-40.4 24.8-53.6 9.8-8.5 22.2-13.9 35.1-15.5zm-538.5 1.6c2.2-0.9 4.6-0.4 6.9-0.3 9.7 0.7 19.5 0.9 29.2 0.1 2.3-0.1 4.6-0.6 6.9-0.1 2.1 0.2 2.5 3.7 0.6 4.4-2.9 1.1-6.2 1.4-8.7 3.4-3.2 2.5-4.2 6.8-4.2 10.6q0 50.7 0 101.4c0.1 2.4 0.5 5.1 2.6 6.6 2.6 1.9 6 2 9.1 2.2 13.1 0.3 26.6-0.9 38.8-6.2 6.4-2.8 12.1-7.2 16.4-12.7 1-1.7 3.1-0.6 3 1.1 0.1 6.3-3.5 11.9-7.4 16.6-2.4 2.9-4.9 5.8-8.3 7.5-2.7 1.4-5.9 1.6-8.9 1.7-17.3 0.1-34.6-1.4-51.9-0.7-6.6 0.2-13.1 0.7-19.7 0.7-1.2 0-3-0.2-3-1.7-0.2-2 2-2.6 3.4-3.2 3.2-1.5 7.2-2.4 8.8-5.9 1.9-4 1.5-8.6 1.7-13q0-48.4 0-96.9c0.1-2.4-0.6-4.9-2.5-6.5-3.5-3.1-8.4-3.4-12.5-5.3-1.6-0.5-1.7-3.1-0.3-3.8zm69 0.4c0.9-1.2 2.5-0.9 3.8-0.9 10.2 0.7 20.4 1.3 30.6 0.2 2-0.2 4.1-0.5 6 0.4 1.1 0.7 0.9 2.4-0.1 3.1-2.4 1.9-5.8 2.4-7.6 5.1-1.4 2.3-0.3 5.2 1 7.3 8.4 13.3 16.7 26.7 25.1 40 0.9 1.3 1.9 2.7 3.3 3.5 1.7 0.2 2.6-1.6 3.4-2.7 7.6-12.1 15-24.4 22.6-36.5 1.6-2.9 2.7-6.5 1.7-9.8-0.8-2.3-3.2-3.4-5.4-4-2.6-0.7-5.3-0.6-7.7-1.9-2-1.1-0.9-4.6 1.3-4.5 3.6-0.5 7.1 0.2 10.7 0.3 7.9 0.9 15.7-0.6 23.6-0.5 4.5-0.1 8.9 1 13.3 0.7 3-0.1 5.9-0.7 8.8-0.7 0.9 0 1.8 0.5 2.2 1.2 13 28.3 26.4 56.4 39.6 84.6 2.9 6.2 5.8 12.4 8.7 18.6 1 1.9 1.9 4 3.8 5.1 3.5-4.8 5.5-10.5 8.3-15.7 14.8-29.6 29.5-59.2 44.2-88.8 1-1.8 1.7-3.9 3.6-4.9 4-0.3 8 0.9 12 0.6 2.5-0.1 5-0.8 7.6-0.7 2.1 0.7 2.1 4.2 0 4.8-3 1.1-6.5 1.3-9 3.6-3.6 3.4-4.1 8.7-4.2 13.4 0.9 32.3 1.8 64.7 2.8 97 0.1 3.5 1 7.3 3.9 9.5 3 2.6 7.3 2.2 10.6 4.2 3.4-1.4 7.3-2 10-4.7 3.4-3.6 4.1-8.8 4.2-13.5q0-46.9 0-93.8c-0.1-3.7-0.4-7.5-2.4-10.7-1.4-2.2-3.8-3.6-6.4-3.8-2-0.4-4.2 0-6.1-1-2.1-1.6-0.4-5.6 2.3-5 10.5 0.8 21.1 1.1 31.6 0.3 14.6-0.9 30.1-0.1 43.4 6.8 8.4 4.3 15.2 12.3 17.1 21.7 2.9 12.2-1.7 25.4-10.7 33.8-7.2 6.9-17.1 10.4-26.9 11.4-6.4 0.6-13.1 0.8-19.2-1.5-1.6-0.4-3.3-2-2.3-3.7 1-1 2.4-0.6 3.7-0.5 7.8 1.4 16 1.5 23.6-0.8 5.6-1.6 11-4.9 14.2-9.9 4.2-6.6 4.6-14.9 3.3-22.4-1.4-8.4-6.2-16.1-13.3-20.9-8.2-5.7-18.5-7.7-28.4-7.4-2.3 0.1-5 0.1-6.8 1.8-1.4 1.5-1.3 3.7-1.3 5.5 0 29.6 0 59.1 0 88.6 0.1 6.5-0.5 13.4 2.1 19.5 1.5 3.9 5 7.1 9.1 8.1 3 1 6.6 0.6 9.2 2.8 0.3 1.8-0.8 3.5-2.8 3.4-7.8 0.5-15.6-0.8-23.5-0.6-8-0.3-16 1.2-24 0.5-6.3 0.7-12.7-0.5-19-0.5-6.8-0.3-13.5 0.8-20.3 0.7-2.3 0.1-2.2-3.2-0.7-4.1 2.2-1.7 5.2-2.1 7.4-3.9 2.7-2.2 3.6-5.9 3.5-9.3-0.6-23.9-1.2-47.7-1.8-71.6-0.3-3.8 0.5-8.1-2-11.3-2.5 1.1-3.8 3.5-5 5.8-14.2 29.2-28.6 58.3-42.9 87.5-0.7 1.5-1.7 2.8-2.7 4-1.1-0.2-2.2-0.7-2.7-1.8-14.1-29.9-28.6-59.8-42.8-89.7-0.5-1-1-2.2-2.2-2.4-1.3 0.4-1.2 2.1-1.4 3.2-0.8 21.4-1.5 42.8-2.2 64.2-0.3 6-0.6 12.5 2.8 17.8 2.3 3.5 6.4 5 10.2 5.9 1.8 0.5 4.5 1.2 4.2 3.6 0.1 2.1-2.6 2.1-4.1 2.2-7.6-0.2-15.2-1.2-22.9-0.7-3.8 0-7.6 0.6-11.4 0.7-2.8 0.4-3-4-1-5 2.1-1.1 4.5-1.3 6.5-2.5 4.6-2.9 5.6-8.8 6-13.8 1.2-17.5 2.9-35 3.9-52.5 0.7-12.9 1.4-25.9-0.8-38.7-1.1-5.3-2.7-10.9-6.5-14.9-2.3-2.5-5.6-3.6-8.7-4.8-2 0.9-4.1 1.8-5.7 3.3-3.8 3.2-5.9 7.7-8.5 11.7-9.2 14.3-18.3 28.6-27.6 42.8-1.5 2.6-4.1 4.9-4 8.2q0 23.4 0 46.9c0 3.7 0.9 7.7 3.9 10.2 3 2.7 7.2 2.9 10.6 4.7 1.3 0.6 1.9 2.8 0.7 3.8-1.7 0.8-3.7 0.6-5.5 0.5-9.7-0.4-19.5-1.1-29.2-0.4-3 0.1-5.9 0.6-8.9 0.4-2.4 0-2.5-3.8-0.5-4.6 3.5-1.5 7.6-1.4 10.6-4 3.3-3 3-7.9 2.9-11.9q0-20.9 0-41.8c0-2.4-0.7-4.6-1.9-6.6-11.7-18.5-23.3-37.2-34.9-55.7-1.6-2.5-3.9-4.4-6.6-5.4-2.2-1-4.5-1.3-6.7-2.2-1.6-0.5-1.2-2.7-0.3-3.6zm362.6-0.6c5.5-0.7 11 0.2 16.5 0.3 8.2 0.6 16.5-0.5 24.7-0.6 1.2 0.1 3.2-0.1 3.3 1.5 0.4 1.5-1.1 2.5-2.3 2.8-3 1-6.5 1.5-8.8 4-2.7 2.7-2.9 6.8-2.8 10.4q0 50.6 0 101.3c-0.1 2.8 0.8 5.8 3.1 7.5 3.5 3 8.4 2.9 12.4 4.8 1.4 0.6 2 2.1 1.5 3.5-1.3 1.3-3.4 0.9-5.1 1-10.2-0.5-20.3-1.2-30.5-0.5-3.3 0-6.7 0.8-10.1 0.2-1.2-0.1-2-1.4-1.8-2.6-0.3-1.6 1.3-2.5 2.7-2.8 3-0.9 6.5-1.6 8.8-4 3.1-3.2 3.6-8 3.6-12.2q0-48.8 0-97.5c0-3.4-0.8-7-3.5-9.2-3-2.7-7.3-2.8-10.9-4.3-1.6-0.5-1.6-2.5-0.8-3.6z"/>
		<path id="Layer" class="s0" d="m76.2 46c13.3-4.1 27.3-5.3 41.1-4.1 21.1 1.9 41.5 10.3 57.8 23.8 14.3 11.7 25.6 27.2 32.2 44.5 8.4 21.7 9.4 46.1 2.8 68.3-6.6 22.9-21.2 43.3-40.5 57.1-1.8-3.2-3.8-6.3-5.4-9.6 0.4-0.7 1.2-1.2 1.9-1.7 18.3-14.1 31.2-35 35.5-57.7 3.8-19.4 1.3-39.8-6.9-57.7-8.4-18.6-23-34.3-40.8-44.2-20.7-11.7-45.9-15.1-69-9.5-2.8-3.1-6-5.7-8.8-8.8 0-0.1 0.1-0.3 0.1-0.4zm-57.8-46h0.3c1.4 2.1 3.3 3.7 5.1 5.4 47 46.1 93.9 92.4 140.9 138.5-31.7 5.2-63.5 10.2-95.2 15.4 28.4 27.8 56.6 55.8 85 83.6q-19.6-34.3-39.2-68.6c-1.2-2.2-3.2-4.5-2.3-7.1 0.7-2.6 4-4 6.4-2.8 1.3 0.6 2 1.8 2.7 3 24.6 43.2 49.5 86.3 74 129.5-20.5-19.9-40.7-40.1-61.1-60-28.3-28-56.8-55.9-85.1-83.9 31.7-5.1 63.4-10.2 95.1-15.3q-42.5-41.8-85-83.7c12.8 22.8 25.9 45.5 38.9 68.2 1.2 2.4 3.3 4.8 2.6 7.6-0.9 3.1-5 4.3-7.4 2.3-1.6-1.5-2.4-3.6-3.5-5.4-22.6-39.6-45.3-79.3-68-118.9-1.5-2.5-3.1-5.1-4.2-7.8zm-12.7 114.1c7.1-21.1 21.1-39.7 39.1-52.6q2.8 4.8 5.6 9.7c-7.3 5.5-14 11.9-19.5 19.1-11.3 14.7-18.2 32.6-19.5 50.9-1.8 22.5 4.8 45.5 18.1 63.6 11.8 16.4 28.9 28.8 48.1 35 16.7 5.5 35 6.2 52.1 2.1 3 3 6 6 9 9-22.8 7.1-48 6.2-70.3-2.5-19.3-7.5-36.2-20.7-48.3-37.4-12.4-17.1-19.3-37.9-20.1-58.9v-6.8c0.4-10.6 2.2-21.2 5.7-31.2z"/>
	</g>
	<g id="#5f3844ff">
		<path id="Layer" class="s1" d="m256.1 199.5q216.9 0 433.9 0-0.1 3.8 0 7.6-217 0-433.9 0 0-3.8 0-7.6z"/>
	</g>
	<g id="#6e8778ff">
		<path id="Layer" class="s2" d="m690.1 199.5q216.8 0 433.7 0 0 3.8 0 7.6-216.9 0-433.7 0-0.1-3.8 0-7.6z"/>
	</g>
	<g id="#00502fff">
		<path id="Layer" class="s3" d="m1123.8 199.5q217.1 0 434.2 0v7.6q-217.1 0-434.2 0 0-3.8 0-7.6z"/>
	</g>
</svg>