<svg version="1.2" xmlns="http://www.w3.org/2000/svg" viewBox="0 0 1521 1442" width="1521" height="1442">
	<title>ZIM-Q4-FY-2021-investors-call-Final-9-3-2022-1-pdf-svg</title>
	<defs>
		<clipPath clipPathUnits="userSpaceOnUse" id="cp1">
			<path d="m-592.46-2118.02h22596.92v12714.14h-22596.92z"/>
		</clipPath>
	</defs>
	<style>
		.s0 { fill: #202a5f } 
	</style>
	<g id="Clip-Path: Page 1" clip-path="url(#cp1)">
		<g id="Page 1">
			<path id="Path 6" class="s0" d="m186.7 81.1h95.3l-47.1 83.5 47.1 82.4h-95.3l-45.9 80.1-44.8-80.1h-95.3l47.1-82.4-47.1-83.5h95.3l44.8-80.1zm413.1 0h95.3l-48.3 83.6 48.3 83.6h-95.3l-45.9 78.8-45.9-78.8h-94.2l47.1-83.6-47.1-83.6h94.2l45.9-80.1zm411.9 0h95.3l-47.1 83.6 47.1 83.6h-95.3l-44.7 80.1-45.9-80.1h-95.4l48.3-83.6-48.3-83.6h95.4l45.9-80zm413.1 0h95.3l-47.1 83.6 47.1 83.6h-95.3l-44.8 80-45.9-80h-95.3l47.1-83.6-47.1-83.6h95.3l45.9-78.9zm-1026.2 361.4h94.1l-47.1 82.4 47.1 83.6h-94.1l-45.9 80.1-45.9-80.1h-95.4l48.3-83.6-48.3-82.4h95.4l45.9-80zm407.2 0h94.1l-47 83.6 47 82.4h-94.1l-45.9 80-45.9-80h-95.4l48.3-82.4-48.3-83.6h95.4l45.9-80.1zm407.2 0h95.3l-48.2 83.6 48.2 82.4h-95.3l-45.9 80.1-45.9-80.1h-94.2l47.1-82.4-47.1-83.6h94.2l45.9-80zm-623.8 356.7v187.2l-313 270.7h313v184.8h-583.7v-193l282.4-259h-282.4v-190.7zm233 0v642.7h-161.2v-642.7zm282.4 0l105.9 296.6 104.8-296.6h202.4v642.7h-157.7v-301.3l-102.4 301.3h-96.5l-102.4-301.3v301.3h-171.8v-642.7z"/>
		</g>
	</g>
</svg>