<svg version="1.2" xmlns="http://www.w3.org/2000/svg" viewBox="0 0 1596 294" width="1596" height="294">
	<title>zimvie-logo-svg</title>
	<style>
		.s0 { fill: #0a2043 } 
		.s1 { fill: #61b6e2 } 
	</style>
	<path id="Layer" class="s0" d="m1298.1 77.1h67.9v213.2h-51.5v-199.2q0-1.4-0.4-2.7q-0.3-1.4-0.9-2.6q-0.6-1.3-1.4-2.3q-0.9-1.1-1.9-2q-1.2-1.1-2.6-1.9q-1.4-0.8-2.9-1.3q-1.5-0.6-3.1-0.9q-1.6-0.3-3.2-0.3z"/>
	<path id="Layer" class="s0" d="m608.5 47l-155.8 195.2l-3.2 3.2h157v44.9h-222.5v-40.1l163-202.9h-155.5c-0.2-4.4-1-8.7-2.3-13c-1.3-4.2-3-8.3-5.2-12.1c-2.1-3.9-4.7-7.5-7.7-10.7c-3-3.3-6.3-6.2-9.9-8.7h242.1z"/>
	<path id="Layer" class="s0" d="m633 77.1h67.9v213.2h-51.5v-199.2q-0.1-1.4-0.4-2.7q-0.3-1.4-0.9-2.6q-0.6-1.3-1.4-2.3q-0.9-1.1-1.9-2q-1.3-1.1-2.6-1.9q-1.4-0.8-2.9-1.3q-1.5-0.6-3.1-0.9q-1.6-0.3-3.2-0.3z"/>
	<path id="Layer" class="s0" d="m983.2 71.7q3.3 0 6.6 0.3q3.3 0.2 6.5 0.8q3.3 0.5 6.5 1.4q3.2 0.8 6.3 1.9c4.2 1.6 8.3 3.7 12.1 6.2c3.8 2.5 7.3 5.4 10.5 8.7c3.1 3.3 5.9 7 8.2 10.9c2.3 3.9 4.1 8.1 5.5 12.4q1.4 4.4 2.5 8.8q1 4.4 1.7 8.9q0.7 4.5 1 9.1q0.3 4.5 0.2 9.1v140h-50.3v-134q0.2-4-0.3-7.9q-0.4-3.9-1.4-7.8q-1-3.8-2.6-7.4q-1.6-3.6-3.7-7q-8.3-12-26.6-12q-40 0-40 53.6v122.5h-50.9v-132.1q0.2-4.1-0.1-8.3q-0.4-4.2-1.3-8.2q-1-4.1-2.4-8q-1.5-3.9-3.5-7.6c-5-8-13.8-11.8-26.6-11.8q-40.3 0-40.4 57.3v118.8h-51.1v-158.4c0-15.4 0-28.9-0.4-40.4q0-0.9-0.1-1.8q-0.2-0.9-0.4-1.8q-0.3-0.9-0.6-1.7q-0.4-0.9-0.9-1.7q-0.5-0.8-1.1-1.6q-0.7-0.8-1.4-1.5q-0.8-0.7-1.6-1.3q-0.8-0.5-1.7-1q-1-0.5-2-0.9q-1.1-0.4-2.2-0.6q-1.1-0.3-2.2-0.4q-1.1-0.1-2.2-0.1h67.9v27.6q20.1-32.8 60.2-32.8q4.7-0.2 9.3 0.3q4.7 0.6 9.3 1.8q4.5 1.2 8.8 3.1q4.3 1.9 8.3 4.4q3.4 2.3 6.5 5q3 2.7 5.6 5.9q2.6 3.1 4.8 6.6q2.1 3.5 3.7 7.3q22.6-34.6 66-34.6z"/>
	<path id="Layer" class="s0" d="m1245.8 2.8h54.8l-96.9 287.5h-63.7l-90.3-265.5c-5.3-14.6-9.5-16.1-25.2-22h75l41.1 138.3q23.6 72 31.6 107.7h0.8q6.7-28.4 33.1-106.5z"/>
	<path id="Layer" fill-rule="evenodd" class="s0" d="m1595.7 176.6q0 2.2 0 4.4q0 2.2-0.1 4.4q-0.1 2.2-0.3 4.4q-0.2 2.2-0.4 4.4h-143.9q-0.2 5.6 0.5 11.2q0.8 5.5 2.4 10.9q1.6 5.4 4 10.4q2.5 5 5.7 9.6c2 2.7 4.4 5.2 7 7.4c2.6 2.2 5.5 4 8.6 5.5c3.1 1.4 6.3 2.5 9.7 3.2c3.3 0.7 6.7 0.9 10.1 0.8q18.8 0 27.6-6.7q2.4-1.9 4.5-4.1q2.1-2.2 3.9-4.6q1.8-2.4 3.3-5.1q1.5-2.6 2.7-5.4h51.4q-0.8 2.8-1.8 5.6q-1 2.8-2.2 5.5q-1.2 2.7-2.5 5.3q-1.4 2.6-2.9 5.1q-1.8 2.9-3.7 5.6q-2 2.8-4.1 5.4q-2.1 2.6-4.4 5.2q-2.2 2.5-4.6 4.8q-3 2.9-6.3 5.5q-3.3 2.5-6.9 4.7q-3.6 2.1-7.4 3.9q-3.8 1.7-7.8 3q-4.8 1.6-9.9 2.8q-5 1.3-10.1 2q-5.1 0.8-10.2 1.2q-5.2 0.3-10.3 0.3q-5.7 0.1-11.3-0.5q-5.7-0.5-11.2-1.6q-5.6-1.1-11-2.8q-5.4-1.7-10.6-4q-4.5-2-8.8-4.5q-4.3-2.5-8.2-5.6q-3.9-3-7.4-6.5q-3.5-3.5-6.6-7.5q-2.9-3.8-5.4-7.8q-2.6-4.1-4.7-8.4q-2.2-4.2-4-8.7q-1.8-4.4-3.2-9q-1.5-4.8-2.6-9.7q-1.1-4.9-1.8-9.9q-0.8-5-1.1-10.1q-0.4-5-0.3-10q0-50.3 25.9-81.2q26-31 74.8-31q5.7-0.2 11.5 0.3q5.7 0.5 11.4 1.7q5.7 1.1 11.2 2.8q5.5 1.7 10.8 4q4.5 1.9 8.6 4.4q4.2 2.5 8 5.6q3.8 3 7.2 6.6q3.3 3.5 6.2 7.5q2.6 3.7 4.9 7.6q2.3 3.9 4.3 8q2 4.1 3.6 8.3q1.7 4.3 3 8.6q1.3 4.5 2.3 9q0.9 4.6 1.6 9.2q0.7 4.6 1 9.3q0.3 4.6 0.3 9.3zm-143.6-14.5h91.5q0.2-4.9-0.5-9.8q-0.6-4.8-2.1-9.5q-1.4-4.7-3.5-9.1q-2.2-4.3-5.1-8.3q-10.7-13.9-33.1-13.9q-42.2 0-47.2 50.6z"/>
	<path id="Layer" class="s0" d="m145.4 147.2l-94.5 103.9h196.4c-20.4 20.2-46.3 33.9-74.5 39.4c-28.1 5.4-57.3 2.4-83.8-8.7c-26.4-11.1-49-29.8-64.8-53.8c-15.9-23.9-24.3-52-24.2-80.8z"/>
	<path id="Layer" class="s1" d="m145.7 146.9l94.3-103.8h-196.4c20.4-20.3 46.3-34 74.5-39.4c28.1-5.5 57.3-2.5 83.8 8.6c26.4 11.1 49 29.8 64.8 53.8c15.9 24 24.2 52.1 24.1 80.8z"/>
	<path id="Layer" class="s1" d="m1368 2.8c0 6.9-1.4 13.8-4 20.2c-2.6 6.4-6.5 12.2-11.4 17.1c-4.9 5-10.7 8.9-17.1 11.5c-6.3 2.7-13.2 4.1-20.1 4.1v-52.9z"/>
	<path id="Layer" class="s1" d="m701.7 2.9c0 7-1.4 13.8-4 20.2c-2.7 6.4-6.6 12.2-11.4 17.1c-4.9 4.9-10.7 8.8-17.1 11.5c-6.4 2.6-13.3 4-20.2 4v-52.9z"/>
</svg>