<svg version="1.2" baseProfile="tiny-ps" xmlns="http://www.w3.org/2000/svg" viewBox="0 0 1647 539" width="1647" height="539">
	<title>hmdgvu7i62gz4jwl9ofy-svg</title>
	<style>
		tspan { white-space:pre }
		.shp0 { fill: #c30e1d } 
	</style>
	<g id="#c30e1dff">
		<path id="Layer" class="shp0" d="M701.18 1.88C716.66 -2.5 734.35 1.02 746.27 12.07C773.66 35.41 774.9 82.55 748.89 107.36C738.53 118.29 722.8 123.51 707.98 121.09C694.16 119.31 682.19 110.47 674.28 99.34C662.69 83.85 659.95 63.22 663.66 44.58C667.86 25.37 681.94 7.57 701.18 1.88Z" />
		<path id="Layer" class="shp0" d="M1388.29 72.52C1393.2 71.8 1399.95 71.5 1402.67 76.64C1405.45 81.05 1405.32 86.55 1405.68 91.6C1406.59 160.4 1405.88 229.19 1406.21 298.02C1406.54 307.32 1407.33 317.53 1413.49 325.02C1420.16 332.84 1431.08 334.57 1440.83 334.9C1490.01 335.46 1539.19 335.44 1588.4 334.9C1597.23 334.6 1607.65 333.09 1613.09 325.2C1619.41 315.75 1618.01 303.8 1618.49 293C1618.64 266.66 1619.23 240.27 1617.85 213.96C1617.47 203.98 1611.23 193.84 1600.95 191.83C1585.96 189.13 1570.58 190.48 1555.43 190.1C1517.2 190.1 1478.97 190.07 1440.73 190.12C1435.38 189.97 1429.22 190.35 1425.28 186.07C1418 176.7 1423.04 159.33 1436.2 159.25C1479.32 158.28 1522.49 158.61 1565.62 158.69C1582.77 159.55 1601.18 156.47 1616.99 164.98C1634.37 173.31 1645.04 192.08 1645.93 211.01C1646.92 244.25 1646.67 277.51 1646.11 310.75C1645.91 324.61 1642.21 339.05 1632.67 349.5C1622.18 360.96 1606.14 365.42 1591.05 365.49C1543.57 365.98 1496.07 366.03 1448.6 365.52C1430.78 366.21 1411.07 364.07 1397.3 351.53C1383.66 339.59 1379.36 320.59 1379.41 303.14C1378.41 247.94 1379.81 192.74 1379.38 137.57C1379.92 119.72 1378.08 101.81 1379.66 84.01C1379.92 78.86 1382.92 73.59 1388.29 72.52Z" />
		<path id="Layer" fill-rule="evenodd" class="shp0" d="M411.42 151.07C443.37 142.21 479.06 144.98 508.18 161.39C523.3 169.77 534.75 183.12 545.37 196.46C545.44 182.86 545.37 169.28 545.42 155.71C572.89 155.76 600.35 155.63 627.85 155.76C627.74 280.04 627.79 404.31 627.82 528.56C600.35 528.49 572.89 528.51 545.42 528.56C545.42 515.5 545.34 502.4 545.5 489.34C527.75 516.21 497.94 534.63 465.79 537.43C437.97 539.62 408.44 537.05 383.88 522.73C362.85 510.4 346.79 491.37 332.68 471.84C306.8 435.54 294.17 390.84 294.02 346.47C293.38 302.32 301.96 256.78 326.01 219.16C345.84 187.98 375.17 161.06 411.42 151.07ZM441.33 236.12C418.04 242.9 399.71 261.42 389.02 282.71C376.49 307.7 374.15 336.74 377.77 364.14C381.61 393.54 396.71 422.19 421.47 439.08C439.17 451.31 462.03 454.95 482.87 450.31C503.21 445.5 518.41 429.55 530.07 413.07C548.93 384.72 552.11 348.71 547.28 315.72C543 286.84 526.61 259.99 502.55 243.36C484.76 231.41 461.52 230.47 441.33 236.12Z" />
		<path id="Layer" class="shp0" d="M40.63 155.84C126.11 155.61 211.56 155.71 297.05 155.78C242.11 253.62 187.02 351.38 132.07 449.19C184.28 449.37 236.46 449.22 288.65 449.27C288.54 475.71 288.62 502.15 288.62 528.59C192.47 528.46 96.35 528.54 0.23 528.54C57.84 430.75 115.7 333.12 173.3 235.33C129.09 235.26 84.84 235.31 40.63 235.31C40.75 208.82 40.73 182.33 40.63 155.84Z" />
		<path id="Layer" class="shp0" d="M673.31 155.73C700.93 155.76 728.55 155.58 756.19 155.84C755.94 280.06 755.97 404.29 756.17 528.51C728.55 528.59 700.93 528.44 673.31 528.59C673.34 404.31 673.31 280.01 673.31 155.73Z" />
		<path id="Layer" class="shp0" d="M805.6 161.87C810.52 160.27 816.96 160.85 820.22 165.34C823.63 170.71 823.27 177.31 823.6 183.42C824.65 222.44 823.83 261.52 824.16 300.57C824.54 309.07 825.31 318.24 830.5 325.35C836.41 332.71 846.46 334.52 855.37 334.88C918.15 335.82 980.92 334.95 1043.67 335.11C1049.4 335.18 1056.22 335.08 1060.29 339.84C1066.83 348.05 1063.68 364.63 1051.38 364.91C987.74 365.57 924.05 365.01 860.41 365.19C844.17 365.32 826.45 363.38 813.8 352.1C802.93 342.47 798.4 327.59 797.87 313.45C796.16 268.32 796.77 223.13 797.84 178C798.09 172.04 799.5 164.52 805.6 161.87Z" />
		<path id="Layer" class="shp0" d="M1115.81 161.49C1173.24 160.65 1230.72 161.36 1288.15 161.13C1303.78 160.83 1319.94 164.88 1332.01 175.19C1344.91 185.84 1351.61 202.53 1352.07 219.03C1353.21 249.57 1353.16 280.16 1351.89 310.73C1351.15 325.27 1345.73 340.02 1334.94 350.08C1324.4 359.97 1309.91 364.91 1295.63 365.16C1243.09 365.72 1190.55 365.67 1138.03 365.16C1121.97 364.86 1105.48 358.46 1095.32 345.68C1082.46 329.83 1080.17 307.42 1085.39 288.16C1089.85 271.15 1103.36 256.91 1120.14 251.63C1129.07 248.5 1138.64 248.17 1148.04 248.32C1195.54 248.43 1243.04 248.3 1290.54 248.37C1296.85 248.12 1304.9 250.03 1306.63 257.11C1307.95 263.15 1308.08 270.46 1303.6 275.3C1298.92 279.96 1291.81 279.91 1285.68 280.16C1248.33 279.42 1210.97 279.98 1173.62 279.81C1160.77 280.01 1147.83 279.2 1135.03 280.72C1126.91 281.64 1118.25 284.8 1113.57 291.91C1107 302.32 1108.35 317.43 1117.77 325.73C1126.5 333.88 1138.92 335.84 1150.46 335.56C1194.62 335.36 1238.81 335.79 1283.01 335.87C1293.98 335.56 1306.83 336.15 1315.18 327.69C1322.77 319.9 1322.82 308.21 1323.02 298.04C1323 274.08 1323.25 250.11 1322.87 226.16C1322.61 216.43 1321.62 205.15 1313.5 198.55C1305.1 191.55 1293.49 192.03 1283.21 191.73C1226.16 191.47 1169.12 191.52 1112.09 191.06C1100.64 191.27 1098.5 176.72 1102.73 168.65C1105.04 163.71 1110.82 162.08 1115.81 161.49Z" />
	</g>
</svg>