<svg version="1.2" xmlns="http://www.w3.org/2000/svg" viewBox="0 0 1647 539" width="1647" height="539">
	<title>ZLAB_BIG-svg</title>
	<style>
		.s0 { fill: #ffffff } 
	</style>
	<g id="#c30e1dff">
		<path id="Layer" fill-rule="evenodd" class="s0" d="m701.2 1.9c15.5-4.4 33.1-0.9 45.1 10.2 27.4 23.3 28.6 70.4 2.6 95.3-10.4 10.9-26.1 16.1-40.9 13.7-13.8-1.8-25.8-10.6-33.7-21.8-11.6-15.5-14.3-36.1-10.6-54.7 4.2-19.2 18.2-37 37.5-42.7zm687.1 70.6c4.9-0.7 11.6-1 14.4 4.1 2.7 4.5 2.6 10 3 15 0.9 68.8 0.2 137.6 0.5 206.4 0.3 9.3 1.1 19.5 7.3 27 6.7 7.8 17.6 9.6 27.3 9.9 49.2 0.6 98.4 0.5 147.6 0 8.8-0.3 19.3-1.8 24.7-9.7 6.3-9.4 4.9-21.4 5.4-32.2 0.1-26.3 0.7-52.7-0.7-79-0.3-10-6.6-20.2-16.9-22.2-14.9-2.7-30.3-1.3-45.5-1.7-38.2 0-76.4 0-114.7 0-5.3-0.1-11.5 0.3-15.4-4-7.3-9.4-2.3-26.8 10.9-26.8 43.1-1 86.3-0.7 129.4-0.6 17.2 0.9 35.6-2.2 51.4 6.3 17.4 8.3 28 27.1 28.9 46 1 33.3 0.8 66.5 0.2 99.8-0.2 13.8-3.9 28.3-13.4 38.7-10.5 11.5-26.6 15.9-41.7 16-47.4 0.5-94.9 0.5-142.4 0-17.8 0.7-37.5-1.4-51.3-14-13.6-11.9-17.9-30.9-17.9-48.4-1-55.2 0.4-110.4 0-165.5 0.5-17.9-1.3-35.8 0.3-53.6 0.2-5.1 3.2-10.4 8.6-11.5zm-976.9 78.6c32-8.9 67.7-6.1 96.8 10.3 15.1 8.4 26.5 21.7 37.2 35.1 0-13.6 0-27.2 0-40.8 27.5 0.1 54.9-0.1 82.5 0.1-0.2 124.2-0.1 248.5-0.1 372.8q-41.2-0.1-82.4 0c0-13.1-0.1-26.2 0.1-39.3-17.8 26.9-47.6 45.3-79.7 48.1-27.8 2.2-57.4-0.4-81.9-14.7-21-12.3-37.1-31.3-51.2-50.9-25.9-36.3-38.5-81-38.7-125.3-0.6-44.2 8-89.7 32-127.3 19.8-31.2 49.2-58.1 85.4-68.1zm29.9 85c-23.3 6.8-41.6 25.3-52.3 46.6-12.5 25-14.9 54-11.2 81.4 3.8 29.4 18.9 58.1 43.7 75 17.7 12.2 40.5 15.8 61.4 11.2 20.3-4.8 35.5-20.8 47.2-37.2 18.8-28.4 22-64.4 17.2-97.4-4.3-28.9-20.7-55.7-44.8-72.3-17.7-12-41-12.9-61.2-7.3zm-400.7-80.3c85.5-0.2 171-0.1 256.4 0-54.9 97.8-110 195.6-164.9 293.4 52.2 0.2 104.4 0 156.5 0.1-0.1 26.4 0 52.8 0 79.3-96.1-0.1-192.3-0.1-288.4-0.1 57.6-97.8 115.5-195.4 173.1-293.2-44.2 0-88.5 0-132.7 0q0.2-39.7 0-79.5zm632.7-0.1c27.6 0.1 55.2-0.1 82.9 0.1-0.3 124.3-0.2 248.5 0 372.7-27.7 0.1-55.3-0.1-82.9 0.1 0-124.3 0-248.6 0-372.9zm132.3 6.2c4.9-1.6 11.4-1.1 14.6 3.4 3.4 5.4 3.1 12 3.4 18.1 1 39 0.2 78.1 0.6 117.2 0.3 8.5 1.1 17.6 6.3 24.8 5.9 7.3 16 9.1 24.9 9.5 62.7 0.9 125.5 0 188.3 0.2 5.7 0.1 12.5 0 16.6 4.7 6.5 8.2 3.4 24.8-8.9 25.1-63.7 0.7-127.4 0.1-191 0.3-16.2 0.1-34-1.8-46.6-13.1-10.9-9.6-15.4-24.5-15.9-38.7-1.7-45.1-1.1-90.3-0.1-135.4 0.3-6 1.7-13.5 7.8-16.1zm310.2-0.4c57.4-0.9 114.9-0.1 172.4-0.4 15.6-0.3 31.7 3.8 43.8 14.1 12.9 10.6 19.6 27.3 20.1 43.8 1.1 30.6 1.1 61.2-0.2 91.7-0.7 14.6-6.2 29.3-17 39.4-10.5 9.9-25 14.8-39.3 15.1-52.5 0.5-105.1 0.5-157.6 0-16-0.3-32.5-6.7-42.7-19.5-12.8-15.9-15.1-38.3-9.9-57.5 4.4-17.1 18-31.3 34.7-36.6 9-3.1 18.5-3.4 27.9-3.3 47.5 0.1 95 0 142.5 0.1 6.3-0.3 14.4 1.6 16.1 8.7 1.3 6 1.5 13.4-3 18.2-4.7 4.7-11.8 4.6-17.9 4.9-37.4-0.8-74.7-0.2-112.1-0.4-12.8 0.2-25.8-0.6-38.6 0.9-8.1 0.9-16.8 4.1-21.4 11.2-6.6 10.4-5.3 25.5 4.2 33.8 8.7 8.2 21.1 10.1 32.7 9.9 44.1-0.2 88.3 0.2 132.5 0.3 11-0.3 23.8 0.2 32.2-8.2 7.6-7.8 7.6-19.5 7.8-29.7 0-23.9 0.2-47.9-0.1-71.8-0.3-9.8-1.3-21.1-9.4-27.6-8.4-7-20-6.6-30.3-6.9-57-0.2-114.1-0.2-171.1-0.6-11.5 0.2-13.6-14.4-9.4-22.5 2.3-4.9 8.1-6.5 13.1-7.1z"/>
	</g>
</svg>