<svg version="1.2" xmlns="http://www.w3.org/2000/svg" viewBox="0 0 1556 1110" width="1556" height="1110">
	<title>Zomedica+logo-svg</title>
	<style>
		.s0 { fill: #ffffff } 
	</style>
	<g id="#58b236ff">
		<path id="Layer" class="s0" d="m542.9 54.7c189.1-78.6 411.7-71.5 595.6 18.7 74.7 37 142.1 87.1 205 141.4 77.3 67.7 148.3 142.7 211.6 223.6-83.4 74.7-180.4 134-283.5 177.7-144 60.9-305.4 85.1-459.9 56.1 96.7-78.2 193.8-156 290.6-234.1-67.8-82.3-154.4-148.9-250.8-194.2-91.7-43-193.9-63.9-295.1-58.9-94.5 4.1-186.9 30.3-273.1 68.6 66.1-88.5 157.8-156.7 259.6-198.9zm-226.9 426.1c135.5-51.6 284.8-70 427.8-43.2-96.8 78-193.6 156-290.5 233.8 58.6 72 132.4 131.2 213.7 175.7 86 46.8 182.5 74.7 280.5 77.9 111.9 4.5 223-23.5 324.8-68.9-67.4 90.7-161.9 159.6-266.4 201.7-167.2 67.3-359.3 68.4-527.8 4.9-92.6-34.4-174.9-91.1-250.1-154.2-83.6-71.2-160.1-150.8-227.6-237.4 92.4-81.9 200.3-146.3 315.6-190.3z"/>
	</g>
</svg>