<svg version="1.2" xmlns="http://www.w3.org/2000/svg" viewBox="0 0 1602 328" width="1602" height="328">
	<title>Zomedica+logo-svg</title>
	<style>
		.s0 { fill: #ffffff } 
	</style>
	<g id="#58b236ff">
		<path id="Layer" class="s0" d="m160.2 16.4c55.6-23.1 121-21 175.1 5.5 21.9 10.9 41.7 25.6 60.2 41.6 22.8 19.9 43.6 41.9 62.3 65.7-24.6 22-53.1 39.4-83.4 52.3-42.3 17.9-89.8 25-135.2 16.5 28.4-23 57-45.9 85.4-68.9-19.9-24.2-45.3-43.8-73.7-57.1-27-12.6-57-18.8-86.8-17.3-27.7 1.2-54.9 8.9-80.2 20.2 19.4-26.1 46.4-46.1 76.3-58.5zm-66.7 125.3c39.8-15.2 83.7-20.6 125.8-12.7-28.5 22.9-57 45.9-85.5 68.7 17.3 21.2 39 38.6 62.9 51.7 25.2 13.7 53.6 22 82.4 22.9 32.9 1.3 65.6-6.9 95.5-20.3-19.8 26.7-47.6 47-78.3 59.4-49.2 19.7-105.6 20.1-155.2 1.4-27.2-10.1-51.4-26.8-73.5-45.4-24.5-20.9-47.1-44.3-66.9-69.8 27.2-24 58.9-43 92.8-55.9z"/>
		<path id="Layer" fill-rule="evenodd" class="s0" d="m1378.7 273.5q4.5 0 9.1 0 0 26.7 0 53.5-4.6 0-9.1 0 0-26.8 0-53.5zm17.3-0.1q4.6 0.1 9.3 0.1 0 26.7 0 53.5-4.7 0-9.3 0 0-26.8 0-53.6zm141.5 0.1q4.5 0 9 0 0 26.7 0 53.5-4.5 0-9 0 0-26.8 0-53.5zm-409.1 5c10.1-6.4 24.3-5.7 33.2 2.5-1.5 2-2.8 4.3-4.9 5.9-2.2-0.3-4-1.8-6.1-2.6-7.2-3.5-17.1-0.9-20.9 6.3-3.7 6.8-3.5 15.6 0.7 22 3.1 4.8 9.1 7.1 14.7 6.4 4.2 0.1 7.3-3 10.9-4.7 2.1 1.4 3.6 3.3 5.3 5.1-10.1 12.2-32.5 10.8-40.5-3.2-6.9-12.1-4.8-30 7.6-37.7zm192.1-1c4-3.9 10-3.9 15.2-3.1-0.2 1.9-0.3 3.7-0.7 5.5-2.2 1.5-5.4 0.7-7.5 2.5-2 2-1.7 5.2-2.2 7.8q5 0 10 0 0 3.3 0 6.6-4.7 0-9.3 0 0 15.1 0 30.2-4.7 0-9.3 0c0-10 0-19.9 0-29.9-1.7-0.6-3.6-0.6-5-1.8-0.5-1.6-0.5-3.4-0.7-5q2.8-0.1 5.6-0.1c0.1-4.4 0.4-9.5 3.9-12.7zm141.8-3.4c3.9-2.1 9.1 1.7 8.3 6.1-0.5 4.2-6.1 6.3-9.4 3.6-3.2-2.4-2.7-8.1 1.1-9.7zm-280.8 15.2c5 0 10.3 1.6 13.7 5.5 3.9 4.1 5 10 4.6 15.4-0.2 6.2-3.5 12.7-9.3 15.4-8.4 4.1-20.7 1.9-25-7-4-8.1-3.2-19.2 3.9-25.3 3.4-2.8 7.8-3.9 12.1-4zm-4.1 8c-5.7 3.5-5.3 11.6-3.9 17.3 1.4 5.9 9.6 7.7 13.8 3.8 2.7-2.7 3.1-6.8 3.2-10.4-0.2-3.5-0.7-7.5-3.6-9.9-2.7-2-6.6-2.1-9.5-0.8zm36.4-3.5c3.2-3.2 7.9-5.5 12.5-4.1 3 0.6 4.7 3.3 6.3 5.7 4-6.2 12.9-7.8 19.1-4.2 3.6 2.2 5.3 6.6 5.3 10.6 0.1 8.4 0 16.8 0 25.2q-4.5 0-9 0 0-11 0-22c0-2.7-0.1-5.9-2.5-7.6-3.9-2.6-9.8 0.7-9.7 5.5-0.2 8 0 16.1 0 24.1q-4.7 0-9.3 0c-0.1-8.3 0.1-16.6-0.1-24.9 0.1-2.6-1.7-5.2-4.4-5.5-3.1-0.6-5.6 1.5-7.8 3.4 0.1 9 0 18 0.1 27q-4.6 0-9.1 0 0-18.5 0-37 3.5 0 7.1 0 0.7 1.9 1.5 3.8zm53.4 0.4c6-5.9 16.4-6.6 23.1-1.5 4.7 3.8 6.2 10.3 5.3 16-0.8 1.2-2.3 1-3.5 1.1-7.1 0-14.1-0.1-21.1 0 0.6 3.7 1.7 8.1 5.6 9.7 4.3 2.2 9 0.1 13-1.8 3-1.9 4.5 2.2 6.3 3.9-8 7.9-23.5 8.6-30.4-1.2-5.1-7.7-5-19.4 1.7-26.2zm8.1 3c-2.5 1.4-3.2 4.3-4.2 6.7q8.4 0.2 16.8 0c-0.8-2-0.9-4.5-2.8-6-2.6-2.5-6.9-2.5-9.8-0.7zm152.9-1c6.2-8.8 20.2-9 27.8-1.8-1.3 1.6-2.2 3.9-4.2 4.6-3.5-0.7-6.6-3.5-10.3-2.4-4.1 0.5-6.7 4.5-7.1 8.4-0.4 4.2-0.4 8.8 2.2 12.3 2.5 3.6 7.9 4.1 11.4 1.8 1.6-0.6 3.5-2.9 5.1-1.2 1.2 1 2.2 2.4 3.3 3.6-6.6 7.1-19.2 8.6-26.4 1.5-6.5-7.1-7-18.8-1.8-26.8zm65.2-6.6c2.5-0.9 5.2 0 7.7 0.5-0.5 2.8-1 5.7-1.6 8.5-3-0.2-6.4-1.2-9.1 0.6-2.3 1.5-4.2 3.9-4.1 6.8-0.1 7 0 14 0 21q-4.6 0-9.1 0 0-18.5 0-37.1c2.5 0.1 5 0.2 7.6 0.3 0.4 1.9 0.7 3.7 1.1 5.6 2.1-2.4 4.2-5.3 7.5-6.2zm13.3 5.1c6.9-7.3 19.5-7 26.6-0.3-1.1 1.6-2.3 3.2-3.6 4.5-3.4 0-6.2-2.9-9.6-2.5-3.6 0-6.8 2.7-7.8 6.1-1.2 3.9-1.1 8.2 0.1 12.1 1.1 3.3 4.1 5.9 7.6 5.9 3.4 0.3 6.1-2.2 9.1-3.4 1.9 0.9 3.1 2.8 4.6 4.2-6.6 7.6-20.1 8.8-27 1-6.3-7.6-6.4-20 0-27.6zm51.8-1.4c7.2-6 20.1-5.5 25.2 3 2.2 3.9 3.5 8.9 1.8 13.2-8.1 0.7-16.2 0-24.3 0.3 0.8 3.8 2 8.5 6.2 9.8 4.5 2.1 9-0.3 13.1-2.1 2.8-1.1 4 2.5 5.7 4-7.9 8-23 8.6-30-0.6-5.7-8.1-5.5-20.9 2.3-27.6zm2.9 10.6c5.6 0.1 11.3 0.1 16.9 0.1-0.5-4.6-4.3-9-9.3-7.9-4.3 0.2-6.5 4.2-7.6 7.8zm-222.9-13.9q4.6 0 9.3 0c0 8-0.1 16.1 0 24.1-0.1 2.7 1.4 5.7 4.3 6.1 3.7 0.9 6.9-1.3 9.6-3.4 0-8.9 0-17.9 0-26.8q4.5 0 9.1 0 0 18.5 0 37.1c-2.5-0.1-4.9-0.2-7.3-0.3q-0.6-2-1.2-4c-3.6 3.3-8.3 5.5-13.3 4.7-5.9-0.4-10.1-6.1-10.3-11.7-0.5-8.6-0.1-17.2-0.2-25.8zm121.7 0q4.5 0 9.1 0 0 18.5 0 37-4.6 0-9.1 0 0-18.5 0-37zm135 26.5c3.8-0.5 7 3.7 5.6 7.3-1.3 4.6-8.4 4.9-10.3 0.6-1.7-3.3 0.8-7.9 4.7-7.9z"/>
	</g>
	<g id="#3a3c3cff">
		<path id="Layer" fill-rule="evenodd" class="s0" d="m717.5 80.7c16.3-2.3 33.6-0.3 48.2 7.7 15.5 8.2 26.9 23 31.9 39.8 4 13.7 4.3 28.6 1.1 42.6-4 16.9-14.4 32.5-29.3 41.7-15.6 9.9-34.9 12.4-52.9 9.7-16.9-2.6-33-11.5-43.4-25.3-9.9-13-14.7-29.6-14.4-45.9-0.2-16 4.7-32.2 14.4-44.9 10.5-14.1 27.1-23 44.4-25.4zm6 21.9c-11.2 1.2-22.2 6.9-28.7 16.2-8.6 12.2-10.4 28-8.6 42.5 1.5 12 7 24.2 17.1 31.4 10.5 7.6 24.2 9.2 36.7 7 11.1-2.1 21.4-9 26.9-18.9 6.7-11.6 7.7-25.5 6.4-38.5-1.3-11.5-6.1-23-15-30.5-9.5-8.1-22.6-10.6-34.8-9.2zm598.7 5.7c10.7-15.5 28.5-25.3 47-27.7 15.3-2 31.6-0.7 45.2 6.9 5.3 2.8 10.2 6.4 14.5 10.6-3.7 4.7-6.6 10-10.8 14.2-3 2.3-7 0.4-9.6-1.7-12.6-9.2-29.9-10.7-44.3-5.3-8.6 3.2-15.9 9.4-20.5 17.3-6.2 10.2-8.1 22.5-7.2 34.3 0.7 10.6 4.2 21.2 11 29.5 6.2 7.8 15.7 12.8 25.5 14 11.8 1.2 24.8-0.2 34.1-8.2 2.5-2.1 6.1-5.5 9.5-3.1 4.2 3.7 7.6 8.2 11.5 12.2-10.8 13.6-27.9 21.2-45.1 21.7-18.7 1.5-38.4-3.7-52.2-16.7-12.4-11.4-19.2-27.9-20.9-44.5-2.1-18.5 1.4-38.1 12.3-53.5zm-774.2-26.8q51.9 0 103.8 0c-0.4 5.9 1.3 12.6-2.4 17.8-23.9 33.8-47.8 67.4-71.6 101.2q36.1 0 72.2 0 0 10.5 0 21-53.3 0-106.5 0c0.3-5.8-1.4-12.4 2.4-17.5 23.9-33.9 47.9-67.8 71.8-101.7-23.2 0-46.5 0-69.7 0q0-10.4 0-20.8zm273 0c7.7 0 15.4-0.2 23 0 3.1-0.1 5.1 2.6 6.5 5.1 13.3 24.9 26.7 49.8 40.1 74.7 2.6 4.8 4.8 9.7 6.7 14.8 3.8-10.3 9.5-19.7 14.5-29.4q16.2-30.3 32.4-60.6c1.2-2.3 3.2-4.7 6.1-4.6 7.7-0.2 15.3 0 23 0q0 70 0 140-11.7 0-23.3 0 0-46.2 0-92.5c0-3 0.2-6.1 0.5-9.1-12 23.1-24.4 45.9-36.5 68.9-2.4 4.1-4.2 8.4-6.9 12.2-3 4.1-8.6 4.1-13.2 3.6-3.4-0.3-6.2-2.8-7.7-5.8-14.1-26.2-28.3-52.4-42.4-78.6 0.8 8.2 0.4 16.5 0.5 24.8q0 38.3 0 76.5-11.7 0-23.3 0 0-70 0-140zm182.7 0q44.3 0 88.6 0 0 10.4 0 20.8-31 0-62 0 0 19.3 0 38.7 24.3 0 48.7 0 0 10.1 0 20.3-24.4 0-48.7 0 0 19.6 0 39.2 31 0 62 0 0 10.5 0 21-44.3 0-88.6 0 0-70 0-140zm113.3 0q25.5 0 50.9-0.1c6.5-0.1 13.1 0.2 19.4 1.5 17.6 3.4 34.1 13.7 43.6 29.1 10 15.9 12.6 35.6 9.5 54-2.9 16.7-11.9 32.5-25.8 42.4-12.8 9.3-28.9 13.6-44.6 13.1-17.7 0-35.3 0-53 0q0-70 0-140zm26.5 20.8q0 49.2 0 98.4c9.9-0.1 19.8 0.2 29.7-0.2 11.2-0.3 22.6-4.8 29.9-13.4 9.9-11.4 12.5-27.3 11.3-42-0.9-11.4-4.9-23.1-13.2-31.3-7.5-7.5-18.2-11.1-28.7-11.4-9.7-0.3-19.3 0-29-0.1zm119-20.8q13.1-0.1 26.3 0 0 70 0 140-13.2 0-26.3 0-0.1-70 0-140zm226.2-0.1c9 0.1 18 0 27 0.1 18.3 46.7 36.7 93.3 55 140-7.2 0-14.4 0.1-21.7 0-3.8 0-6.7-3.2-7.8-6.7-3.4-9.2-6.7-18.3-10.1-27.5q-28.9 0-57.8 0c-3.4 9.3-6.8 18.6-10.2 27.9-1.2 3.4-4.3 6.4-8.1 6.3-7.1 0.1-14.2 0-21.3 0 18.3-46.7 36.7-93.4 55-140.1zm2.8 56.2c-3.8 10.3-7.6 20.5-11.3 30.8q22 0.1 44.1 0.1c-4.2-11.4-8.4-22.8-12.5-34.2-3.4-9.3-7-18.5-9.6-28-2.8 10.7-6.9 20.9-10.7 31.3zm56-55.1q9 0 18 0 0 1.7 0 3.5-3.4 0-6.7 0 0 7.8 0 15.5-2.3 0-4.6 0 0-7.7 0-15.5-3.4 0-6.7 0-0.1-1.8 0-3.5zm22.5-0.1q2.3 0 4.8 0.1 3.1 4.3 6.3 8.5c2.2-2.8 4.2-5.7 6.4-8.5q2.4 0 4.8 0 0 9.5 0 19-2.3 0-4.6 0 0-6.4 0-12.9c-2.2 3-4.4 6-6.7 8.9-2.2-3-4.6-6-6.7-9.1q0 6.6 0 13.1-2.2 0-4.3 0 0-9.5 0-19.1z"/>
	</g>
</svg>