<svg version="1.2" xmlns="http://www.w3.org/2000/svg" viewBox="0 0 1563 313" width="1563" height="313">
	<title>logo (6)-svg</title>
	<defs>
		<clipPath clipPathUnits="userSpaceOnUse" id="cp1">
			<path d="m1422.04 65.66h140.61v183.89h-140.61z"/>
		</clipPath>
	</defs>
	<style>
		.s0 { fill: #ffffff } 
	</style>
	<path id="Layer" fill-rule="evenodd" class="s0" d="m180.1 0v12.4l-164.6 211.6h167.7v12.7h-183.2v-12.7l163.8-211.6h-154v-12.4zm151.1 245.6h-13.1v-37.5h-0.8c-9.1 26.3-35.3 41.7-63.3 41.7-62.3 0-62.9-49.5-62.9-71.2v-109h13.1v111.3c0 17.8 2.1 57.7 50.3 57.7 39.8 0 63.6-30.8 63.6-73.6v-95.2h13.1zm183.1-9.1c0 13.8 0 79-76.5 76.4-37.4 0-67.3-14.1-69.1-54.7h13.1c2.6 31.3 27.5 43.5 56.3 43.5 61.8 0 62.8-50.3 62.8-62.1v-40.4h-0.8c-12.3 26.1-33.8 40.2-63.9 40.2-51.8 0-76.4-38.1-76.4-87.1 0-46.7 26.7-86.6 76.4-86.6 27.8 0 54 14.6 63.9 40.6h0.8v-36.5h13.4zm-141.2-84.2c0 41.4 21.8 75.6 63.4 75.6 42.9 0 64.4-36 64.4-75.6 0-39.7-21.2-75.4-64.4-75.4-42.7 0-63.4 38.1-63.4 75.4zm361.4 80.3v13.1h-166.8v-244.4h165.2v12.7h-150.1v98.1h141.2v13.1h-141.2v107.4zm27.5-45.4c1.9 32.6 26.8 51.4 58.4 51.4 23.1 0 56.1-6.8 56.1-37.3 0-59.7-121.5-18.5-121.5-90.5 0-34.7 34-45.1 63.9-45.1 37.1 0 65.2 16.2 65.2 56.1h-13.1c0-31.9-22.8-44.9-52.4-44.9-23.8 0-50.8 8.9-50.8 33.9 0 28.4 30.4 32.1 58.9 38.6 35.1 6.5 62.6 15.1 62.6 51.7 0 38-38.2 48.5-69.1 48.5-40.3 0-70.5-21.7-71.5-62.6h13.3zm218.4-106.2h-38.5v122.9c0 28.1 13.4 31.5 38.3 30.5v11.2c-26.2 1.8-52.9-2.1-51.4-41.7v-122.9h-32.7v-11.2h32.7v-54.8h13.1v54.8h38.5zm153.5 132c0 9.9-0.3 21.1 11.7 21.1 2.4 0 5.5-0.3 9.7-1v10.9c-3.6 1.1-6.8 1.3-10.7 1.3-20.7 0-23.8-11.2-23.8-25.5v-9.2h-0.8c-8.4 20.9-31.7 39.2-65.7 39.2-33.3 0-59.2-12.8-59.2-49.6 0-41.5 35.9-49.3 64.9-52.2 58.4-3.6 60.8-8.3 60.8-36.5 0-7.8-8.9-34.7-49.3-34.7-31.6 0-52.6 16.5-54.4 47h-13.1c1.8-38.6 25.6-58.2 67.3-58.2 30.9 0 61.8 9.1 61.8 45.9v101.5zm-13.1-67.3c-10 12-38.5 9.9-63.9 13.8-31.4 3.7-48.4 14.4-48.4 40.7 0 21.6 15.1 38.3 46.3 38.3 59.4 0 66-50.6 66-60zm116.5-64.6h-38.5v122.8c0 28.2 13.4 31.6 38.2 30.5v11.2c-26.1 1.9-52.8-2-51.3-41.7v-122.8h-32.7v-11.3h32.7v-54.7h13.1v54.7h38.5zm20.7 78.3c-1.1 41.5 21.2 79 64.9 79 33.3 0 56.8-19.5 63.4-52.4h13.1c-6.8 41.5-34.1 63.6-76.5 63.6-51.3 0-79-40.4-78-88.9-1-48.3 24.9-95.2 78-95.2 55 0 80.4 43 77.8 93.9zm129.6-11.2c-1-37.1-24.4-71.2-64.7-71.2-39.2 0-62.3 36.2-64.9 71.2z"/>
	<g id="Clip-Path" clip-path="url(#cp1)">
		<g id="Layer">
			<path id="Layer" fill-rule="evenodd" class="s0" d="m1435.4 187.2c1.8 32.6 26.7 51.4 58.4 51.4 23 0 56-6.8 56-37.3 0-59.7-121.5-18.5-121.5-90.5 0-34.7 34.1-45.1 63.9-45.1 37.2 0 65.2 16.1 65.2 56h-13.1c0-31.8-22.8-44.8-52.3-44.8-23.9 0-50.8 8.8-50.8 33.9 0 28.4 30.3 32.1 58.9 38.6 35.1 6.5 62.5 15.1 62.5 51.6 0 38.1-38.2 48.5-69.1 48.5-40.3 0-70.4-21.6-71.5-62.6h13.4z"/>
		</g>
	</g>
</svg>