<svg version="1.2" xmlns="http://www.w3.org/2000/svg" viewBox="0 0 1520 306" width="1520" height="306">
	<title>grupa_zywiec-5-svg</title>
	<style>
		.s0 { fill: #c0172a } 
	</style>
	<g id="#c0172aff">
		<path id="Layer" fill-rule="evenodd" class="s0" d="m172.4 0.6q9.7-0.1 19.4 0c0.1 5 0.1 10 0.1 15 5.8 0.1 11.6 0 17.3 0.1 0.2 6.2 0.1 12.5 0.1 18.7-5.8 0.2-11.6 0.1-17.4 0.1q-0.1 7.2 0 14.3c9.4 3.1 17.8 9.5 22.2 18.4 10.3 0.2 20.8-0.2 31 2.2 10.9 2.4 21.3 7.2 30.1 14.1 2 1.4 3.9 3.7 6.6 3.1 22.3-3.1 45.8 5.3 61.5 21.5 12 12 19.7 28.2 21.6 45.1 1.6 11.8-0.7 23.9-5.2 34.8-7.1 16.6-20.4 30.3-36.8 37.8-1 0.6-2.3 0.9-3.1 1.9-0.3 1.7-0.3 3.4-0.5 5-0.9 8.2-5 15.8-10.7 21.6-7.3 7-17.5 10.8-27.6 10.5q-98.5 0-197.1 0c-12.8 0.3-26-6.1-32.6-17.3-3.9-6.1-5.3-13.3-5.7-20.3-10.7-4.3-20.3-11.2-27.7-19.9-10.7-11.8-16.5-27.3-17.9-42.9v-11.7c1.3-9.8 4-19.5 8.8-28.2 4.9-8.4 11.1-16.3 19-22.2 15.1-12.2 35.1-17.8 54.4-15.4 3.1 0.8 5.2-1.9 7.5-3.5 9.4-7.3 20.7-12.1 32.5-14.2 9.2-1.8 18.5-1.4 27.8-1.4 4.4-9 12.7-15.3 22-18.5 0.9-4.7 0.1-9.6 0.4-14.3-5.8-0.2-11.6 0-17.4-0.2-0.1-6.4-0.1-12.7 0-19.1 5.8-0.1 11.6 0 17.4-0.1 0-5-0.1-10 0-15zm4.5 66.5c-4.6 1.3-8.6 4.6-11 8.7-2.2 4-2.4 8.9-1.4 13.3 2.1 7.9 10.1 13.8 18.3 13.1 10.1-0.4 18.4-10.6 16.5-20.5-1.3-10.2-12.6-17.9-22.4-14.6zm-59 21.7c-17.3 5.1-31.8 18.6-38.5 35.3-6.2 15.1-5.6 32.7 0.9 47.6 5.4 12.6 15.5 23 27.6 29.4 11.3 5.7 24.2 8 36.7 6.2 2.7-4.8 5.6-9.5 9.8-13 4.8-4.6 10.9-7.6 17.2-9.7-0.1-21.7 0.1-43.5-0.1-65.2-10.3-3-19.1-10.7-23.3-20.6-1.8-4-2.5-8.5-3.2-12.8-9.1 0-18.4-0.1-27.1 2.8zm96.8 11.1c-4.4 9.4-13 16.4-22.8 19.5 0 21.8-0.2 43.6 0.1 65.4 10.5 2.9 19.8 10 25.1 19.6 0.8 1.3 1.5 3.1 3.4 3 16 2 32.9-2.9 45.4-13.2 11.7-9.3 19.5-23.3 21.8-38 2.2-14.3-1-29.4-8.6-41.6-7.6-12.1-19.4-21.5-33.1-25.6-8.8-3.1-18.3-3-27.6-3-0.7 4.8-1.6 9.6-3.7 13.9zm-192.3 37.5c-5.3 11.6-5.9 25.2-2.3 37.4 4.5 15 15.7 28.1 30.2 34.2 4.5-7.9 12.3-13.5 20.9-16.1-7.9-11.9-13.2-25.6-14.1-39.9-1.5-16.8 2.9-33.9 11.8-48.3-20.1 1-38.7 14.3-46.5 32.7zm272.2-32.7c10.8 17.4 14.7 38.9 10.3 58.9-2.1 10.6-6.9 20.4-12.7 29.3 8.8 2.6 15.9 8.8 21.1 16.2 8-3.9 15.4-9.4 20.7-16.5 8.5-10.6 12.7-24.5 11.3-38-1-12.4-6.4-24.4-15.1-33.4-9.2-9.7-22.2-15.7-35.6-16.5zm-117.8 97.6c-8.4 1.8-15.2 8.9-16.7 17.3-0.9 5.8 0.3 11.9 3.7 16.8 4 5.9 11.2 9.5 18.3 9.2 7.9 0.1 15.5-4.7 19-11.7 3.4-6.3 3.2-14.2-0.1-20.5-4.3-8.7-14.9-13.3-24.2-11.1zm-100.5 8.3c-6.1 1.7-11.1 6.9-12.6 13.1-1.9 8.1 2.6 17 10.2 20.3 7.2 3.4 16.5 1.1 21.3-5.2 3.9-4.8 4.7-11.6 2.6-17.3-3.1-8.3-12.9-13.7-21.5-10.9zm201.1-0.1c-7.5 2-13.4 9.2-13.3 17-0.2 7 4.2 13.8 10.7 16.6 6.4 2.9 14.4 1.4 19.4-3.4 4.5-4.3 6.6-11 5-17-2-9.4-12.5-16.1-21.8-13.2zm-159.2 13.8c0 7.4-1.2 14.9-4.8 21.4 5.3-1.9 10.9-1.2 16.4-1.3 6.3 0.1 12.7-0.6 18.7 1.3-3.6-5.8-6-12.5-6.5-19.5-8 0.1-16-0.1-23.8-1.9zm103.8 1.9c-0.7 6.9-2.7 13.6-6.4 19.5 5.8-1.9 11.9-1.2 17.9-1.3 5.7 0 11.4-0.5 16.9 1.2-3.3-6.6-5-13.9-4.6-21.2-7.9 1-15.8 2.2-23.8 1.8z"/>
		<path id="Layer" class="s0" d="m1024.7 97.7c3.7-0.8 7.7-0.5 11.3 0.9 2.8 1.1 5 3.8 5.6 6.9 0.8 4.2 0.8 8.9-1.2 12.8-1.7 3.2-5.4 4.8-8.9 5-3.6 0.1-7.4 0.2-10.6-1.7-3.1-1.9-4.5-5.6-4.9-9.1-0.4-3.5-0.3-7.5 1.7-10.6 1.6-2.3 4.2-3.7 7-4.2z"/>
		<path id="Layer" class="s0" d="m494.8 143.5c11.7-7.4 25.9-10 39.6-9.4 11.7 0.3 23.3 3.6 33.5 9.3 0 8.1 0.1 16.1-0.1 24.2-3.5-2.2-6.9-4.6-10.7-6.4-5.8-2.6-12-4-18.3-4.5-10.6-1.3-21.8-0.3-31 5.4-9.1 5.6-14.7 15.6-17.1 25.8-2.8 11.8-1.6 24.7 4.3 35.4 4.3 7.5 11.1 13.6 19.3 16.4 10.2 3.4 21.5 3.8 31.7 0.3-0.1-14.1-0.3-28.2-0.3-42.4 8 0 16.1 0 24.2 0 0.1 19 0 37.9 0.1 56.8-12.5 9.2-28.4 12.1-43.5 11.9-13.6-0.7-27.4-4.8-38-13.4-11.2-8.6-18.6-21.5-22-35.1-2.9-12.3-2.8-25.5 0.9-37.7 4.3-14.9 13.9-28.7 27.4-36.6z"/>
		<path id="Layer" class="s0" d="m989.4 135.5q42.2-0.1 84.3 0c-0.2 15.6-6.6 30.3-14.9 43.2-12.8 20.8-25.8 41.5-38.4 62.4 18.4 0.2 36.9 0 55.4 0.1q0 11.4 0 22.7c-22.4 0.3-44.8 0.1-67.2 0.1-7.9 0-15.8 0.2-23.6-0.1 0.8-14.2 7.6-27.1 14.4-39.3 14.1-22.2 28.5-44.3 42.6-66.6-17.6-0.1-35.1 0-52.6 0q-0.1-11.3 0-22.5z"/>
		<path id="Layer" class="s0" d="m1327.1 139.1c4.2-1.2 8.9-1.1 12.9 0.7 3.7 1.8 5.2 6.2 5.5 10 0.2 4.2-0.2 9.1-3.4 12.2-3.7 3.2-9 2.9-13.5 2.5-3.8-0.4-7.1-3.1-8.1-6.7-1.1-4-1.3-8.2-0.2-12.2 0.9-3.2 3.6-5.7 6.8-6.5z"/>
		<path id="Layer" fill-rule="evenodd" class="s0" d="m797.3 177.7c8.7-3.6 19.1-3.1 27 2 7.4 4.7 12.5 12.3 15.4 20.4 4.5 12.8 5 27.2 0.4 40.1-3.6 10.5-11.6 20.1-22.4 23.7-7.8 2.4-16.5 3.2-24.1-0.3-3.9-1.6-6.9-4.8-9.8-7.8-0.2 14 0.1 28-0.2 41.9-7.8-0.1-15.7 0-23.6 0-0.4-14.4-0.1-28.8-0.2-43.2 0-25.7-0.1-51.4 0.1-77.1q11.5-0.1 23 0c0.1 5.4-0.2 10.8 0.2 16.2 3-6.5 7.5-12.9 14.2-15.9zm-0.6 19.4c-2.5 0.8-4.8 2.3-6.5 4.3-4.5 5.2-6.4 12.2-6.5 18.9 0 7.1 1.5 14.6 6.1 20.2 3.2 4.1 8.7 6.1 13.8 5.2 4.9-0.6 9-4.1 11.5-8.2 4.5-7.9 5.3-17.6 2.9-26.3-1.4-4.7-3.9-9.4-8-12.3-4-2.3-8.9-3.2-13.3-1.8z"/>
		<path id="Layer" fill-rule="evenodd" class="s0" d="m860.6 182.6c10.1-5 21.3-7 32.4-7.6 8.8-0.3 18.1 0.6 25.6 5.5 7.4 4.8 11 13.9 11.1 22.5 0.2 19.8 0 39.7 0.1 59.5-12 3.2-24.5 3.6-36.8 3.8-8.3 0-16.8-0.7-24.5-3.9-5.9-2.4-11.1-7-13.2-13-2.3-7.3-1.9-15.8 2.4-22.4 5.1-8.1 14-13.1 23.1-15.8 8.5-2.3 17.4-2.5 26.3-2.6 0.1-4.8-0.3-10.5-4.7-13.5-5.6-3.6-12.6-2.6-18.9-2.2-8.2 0.6-15.6 4.1-23 7-0.1-5.8-0.3-11.6 0.1-17.3zm21.1 45.5c-6.1 4.5-5.8 15.7 1.5 18.9 7.4 3.2 15.9 2.5 23.7 1.3 0.3-8.7 0.1-17.5 0.1-26.3-8.6 0-18.1 0.6-25.3 6.1z"/>
		<path id="Layer" fill-rule="evenodd" class="s0" d="m1389.1 177.4c14-4.7 31.3-2.6 41.9 8.5 10.6 10.7 12.6 27.6 9.2 41.8-2 0.9-4.4 0.2-6.5 0.4-15.6 0.1-31.1-0.1-46.7 0.1 0.9 5.9 3.7 11.8 8.7 15.1 5.5 4 12.4 4.9 19 5.2 7.8 0 15.5-1.4 22.9-3.7 0.1 5.9 0.2 11.7 0 17.5-10.5 3.2-21.5 4.5-32.3 3.8-12.3-0.9-24.8-5.7-32.7-15.4-10.4-13-12.9-31.4-8-47.1 3.6-11.9 12.7-22.1 24.5-26.2zm2.9 20.2c-3.9 4.8-5.6 11.1-5.5 17.2 11 0 21.9 0 32.8-0.1-0.5-6-0.9-12.7-5.2-17.5-5.5-6.5-16.9-6.2-22.1 0.4z"/>
		<path id="Layer" class="s0" d="m1473.7 181.2c13.9-8.6 32-7.7 46.3-0.7v19.9c-3.5-2.1-7.1-4.4-11.2-5-7.7-1.5-16.4 0.3-22 6-10.8 10.4-9.6 30.5 2.5 39.4 9 6.1 22 5.9 30.7-0.8v19.9c-17.9 10.7-43.7 6.9-56.8-9.6-8.6-10.6-11.5-25.1-9.5-38.5 1.9-12.4 9-24.2 20-30.6z"/>
		<path id="Layer" class="s0" d="m619.5 183.6c7.1-7.1 17.9-9.3 27.4-6.7 0.3 7.8 0.1 15.7 0.1 23.5-7.4-3-16.1-3.1-23 1.1-4.5 3-7.8 7.8-9.1 13-1.5 5.3-1.1 10.8-1.1 16.2-0.1 11.3 0.1 22.7-0.1 34-8.1 0.1-16.2 0.2-24.3 0q0.1-43.6 0-87.2c7.7-0.3 15.4-0.1 23.1 0 0.2 5.9-0.2 11.9 0.2 17.8 2.1-4 3.5-8.5 6.8-11.7z"/>
		<path id="Layer" class="s0" d="m659.6 177.4c8.1-0.1 16.2 0 24.3 0 0.1 16.5 0 32.9 0.1 49.4 0.1 5.4 0.8 11.6 5.1 15.5 4.7 3.6 11.4 3.5 16.8 1.6 2.8-0.9 5-3.1 6.1-5.8 1.8-4.3 1.9-9.1 1.9-13.7 0.1-15.6 0.4-31.1 0.5-46.6q12.1 0 24.2 0c0.3 10.7 0.1 21.5 0.1 32.3-0.1 9.6 0.6 19.4-1.2 28.9-1.2 6.7-4.1 13.2-9.2 17.8-8.4 7.8-20.5 10.1-31.6 10-10.7-0.6-22.1-3.9-29.3-12.3-5.9-6.7-7.6-15.9-7.7-24.6-0.1-17.5 0-35-0.1-52.5z"/>
		<path id="Layer" class="s0" d="m1075.6 177.4c9-0.1 18-0.1 27 0.1 5.4 18.7 10.7 37.4 16.1 56.2 0.8 2.7 1.5 5.5 2.6 8.2 6.1-21.3 12.1-42.7 18.2-64.1 9-0.1 18 0 27 0-2.4 8-5.5 15.8-8.1 23.7-5.9 17.4-12.8 34.5-19.8 51.5-6 15.2-13.5 29.7-19.6 44.9-8.7 0.4-17.4 0.2-26.1 0.1 4.6-11 9.4-22 14.1-33 0.4-1 0.9-2.1 0.3-3.1-12.3-27.5-22.1-56-31.7-84.5z"/>
		<path id="Layer" class="s0" d="m1173.7 177.4c8.5 0 17-0.2 25.5 0.1 4.9 19.6 9.9 39.2 14.9 58.8 5.1-16.9 9.6-34 14.4-51 0.9-2.6 1.1-5.6 2.6-7.9 7.4-0.1 14.7-0.1 22.1 0.1 4.4 16.9 9.1 33.7 13.6 50.6 0.8 2.8 1.4 5.7 2.6 8.4 5.3-19.5 10.4-39.1 15.7-58.7 8.5-0.1 16.9 0 25.4 0-8.1 29.3-17 58.5-27.9 87-7.9 0-15.9 0.1-23.8 0-5.5-19.6-10.7-39.2-16.2-58.7-5.8 19.4-11.1 39-16.6 58.5-8.2 0.3-16.4 0.4-24.6 0-4.2-9.5-7.3-19.5-10.5-29.4-6.3-19.1-11.8-38.4-17.2-57.8z"/>
		<path id="Layer" class="s0" d="m1320.4 177.4c8.1 0 16.2-0.2 24.3 0.1 0 29 0.1 57.9 0 86.9-8 0-16.1-0.1-24.1 0-0.4-29-0.1-58-0.2-87z"/>
		<path id="Layer" class="s0" d="m72.3 285.8c72.9 0 145.9 0 218.9-0.1 0.1 6.6 0.1 13.1 0 19.7-48.2 0.1-96.5 0-144.7 0-24.8 0-49.5 0.2-74.3-0.1 0-6.5 0-13 0.1-19.5z"/>
	</g>
</svg>