<svg version="1.2" xmlns="http://www.w3.org/2000/svg" viewBox="0 0 1523 826" width="1523" height="826">
	<title>logo-white (5)-svg</title>
	<style>
		.s0 { opacity: .5;fill: #ffffff } 
		.s1 { fill: #ffffff } 
	</style>
	<g id="Layer_2">
		<g id="Header">
			<g id="Logo_-_White">
				<path id="Layer" class="s0" d="m490.5 345.5c2.2 51.2-26.7 98.6-73.1 120.1-46.5 21.5-101.3 13-138.9-21.7-37.7-34.7-50.7-88.6-33.1-136.7 17.7-48 62.6-80.7 113.7-82.7 16.6-0.7 33.1 1.9 48.7 7.6 15.6 5.7 29.9 14.5 42.1 25.7 12.2 11.2 22 24.8 29 39.8 7 15.1 10.9 31.4 11.6 47.9z"/>
				<path id="Layer" class="s1" d="m266.9 431.3q2.4 2.8 4.9 5.4 2.4 2.6 5.1 5.1 2.6 2.5 5.4 4.8l-54.9 52.6c40.2 53.4 31.7 128.9-19.3 172.1-51 43.2-126.9 39-172.9-9.5-46.1-48.4-46.3-124.4-0.5-173.1 45.8-48.8 121.6-53.3 172.9-10.4l54.9-52.6q2.1 2.9 4.4 5.6z"/>
				<path id="Layer" class="s1" d="m1057.7 555.6q2.3 2.8 4.8 5.4 2.5 2.6 5.1 5 2.6 2.4 5.4 4.7l-55.1 52.7c25.9 34.4 32.4 79.6 17.4 120-15 40.3-49.5 70.3-91.6 79.4-42.1 9.2-85.9-3.7-116.4-34.1-30.4-30.5-43.2-74.3-34.1-116.4 1.7-7.6 4-15 7-22.2 3-7.2 6.7-14 11-20.5 4.3-6.5 9.1-12.6 14.5-18.1 5.4-5.6 11.4-10.7 17.7-15.2l-36.5-65c-28.6 11.8-60.7 12.7-89.9 2.4-29.3-10.3-53.7-31-68.7-58.2-14.9-27.2-19.4-58.9-12.4-89.1 7-30.2 24.8-56.8 50.2-74.7l-36.9-67c-10.6 4.4-21.7 7.3-33.1 8.7-11.4 1.3-22.9 1.1-34.3-0.6-11.3-1.8-22.3-5.1-32.8-9.9-10.4-4.8-20.1-11-28.9-18.4l-55 51.7q-2.2-2.8-4.6-5.6-2.3-2.8-4.8-5.4-2.5-2.6-5.2-5-2.6-2.5-5.4-4.8l55-52.6c-30.8-41.2-33.7-97-7.2-141.1 26.4-44.1 77-67.7 127.9-59.8 50.8 7.9 91.8 45.8 103.6 95.9 11.8 50.1-7.9 102.4-49.9 132.1l36.7 66.7c28.7-11.9 60.8-12.8 90.1-2.5 29.4 10.3 53.9 31 68.9 58.3 15 27.2 19.4 59 12.4 89.3-7 30.3-25 57-50.4 74.8l36.5 66q8.8-3.7 18-5.9 9.3-2.3 18.8-3.2 9.5-0.8 19-0.2 9.6 0.6 18.9 2.6 7.5 1.7 14.8 4.2 7.3 2.5 14.2 5.9 6.9 3.4 13.4 7.6 6.4 4.2 12.3 9.2l55.1-52.7q2.2 2.9 4.5 5.6z"/>
				<path id="Layer" class="s1" d="m1480.6 156.1c25.6 22.8 40.8 55.1 42.1 89.4 1.4 34.2-11.2 67.6-34.9 92.4-23.8 24.8-56.5 38.9-90.8 39-7.8 0.4-15.6 0-23.3-1.2-7.7-1.1-15.2-2.9-22.6-5.4-7.3-2.6-14.4-5.8-21.2-9.6-6.8-3.9-13.1-8.4-19-13.4l-55.1 51.7q-2.2-2.9-4.5-5.6-2.4-2.8-4.9-5.4-2.5-2.6-5.2-5.1-2.6-2.5-5.4-4.7l55.1-51.8c-13.8-18.4-22.3-40.3-24.6-63.2-2.3-22.9 1.8-46 11.7-66.8 9.8-20.8 25.2-38.5 44.4-51.2 19.3-12.7 41.6-19.9 64.6-20.8 34.2-2.6 68 8.9 93.6 31.7z"/>
				<path id="Layer" class="s0" d="m1266.2 415.1q4.5 8.4 7.8 17.4 3.2 9 5 18.4 1.8 9.4 2.2 19c2.1 51-26.8 98.3-73.1 119.7-46.4 21.5-101.1 12.9-138.6-21.7-37.6-34.6-50.6-88.4-33-136.4 17.6-47.9 62.3-80.5 113.3-82.6 7.8-0.4 15.5 0 23.2 1.1 7.7 1.1 15.2 2.9 22.6 5.4 7.3 2.5 14.4 5.7 21.1 9.5 6.8 3.8 13.2 8.3 19.1 13.3q2.8 2.2 5.4 4.7 2.7 2.5 5.2 5.1 2.5 2.6 4.9 5.4 2.3 2.7 4.5 5.6 5.8 7.6 10.4 16.1z"/>
			</g>
		</g>
	</g>
</svg>