<svg version="1.2" xmlns="http://www.w3.org/2000/svg" viewBox="0 0 1584 622" width="1584" height="622">
	<title>20610bf7ac380f6e0ae6aef245f3bb96-svg</title>
	<style>
		.s0 { fill: #00a59b } 
		.s1 { fill: #ffffff } 
	</style>
	<g id="#00a59bff">
		<path id="Layer" class="s0" d="m385.2 9.4c24.5-10 51.5-10.2 77.5-8.2-23.9 2.6-50.2 8.6-65.6 28.7-18.3 23.1-16.2 55.4-8.2 82.2 6.7 23.3 17.4 45.2 29.5 66.2 19.7 33.6 43.8 64.5 69.9 93.4 19.8 21.8 40.9 42.4 62.6 62.3 14.2 12.7 28.7 25 43.7 36.8 17.2 13.5 34.9 26.5 52.8 39.1 34.5 23.8 70.7 45.3 108.4 63.8 47.8 22.7 98.3 42.3 151.5 46.9 19.1 1.8 38.7 0.4 57.1-5.6 20.3-6.4 37.7-23 43-43.9 5.9-22 1.5-45-4.7-66.4 7.8 0.7 15.6 1.6 23.3 3 17.2 34.4 33.8 71.3 32.1 110.7 0.3 23.7-11 47.8-30.9 61.2-19.9 13.9-44.8 17.4-68.5 18.1-41.7-0.5-82.6-10.7-121.7-24.5-94.7-34.3-181.2-88.4-259.9-150.7-16-12.6-31.6-25.8-46.7-39.5-10.2-9.6-20.8-18.9-30.8-28.7-20.7-19.7-39.9-40.8-58.5-62.5-29.7-35.6-57.3-73.4-77.9-115.1-10.7-21.1-19-43.5-23.6-66.7-2.5-19.8-3.9-40.9 3.6-59.8 7.4-18.8 23.2-33.7 42-40.8zm536.7 261c30 30.2 56.6 63.7 80.7 98.8-5.4-0.7-10.7-1.6-16-2.5-17-34.9-40.3-66.3-64.7-96.3z"/>
	</g>
	<g id="#3d1a52ff">
		<path id="Layer" class="s1" d="m238.2 114.7c33.7-3.6 67.6-4.3 101.4-4.7 4.6 23.2 12.9 45.6 23.6 66.7-12.7-0.4-25.3 0.6-38 0.5-3.2 0.3-5.6-1.9-8-3.5-26.2-19.8-52.4-39.6-79-59zm150.7-2.6c91.7 3.9 182.6 19.2 271.9 39.9 56.5 13.6 112.5 29.2 167.6 47.9 40 12.6 78.8 28.6 118 43.3-35.6 5-71.5 7.6-106.9 14.3-98.2 16.6-195.2 41.6-288.6 76.5-21.7-19.9-42.8-40.5-62.6-62.3 58.1-23.6 118.2-41.4 179.1-55.9-81.7-19.9-165-33.4-249-37.5-12.1-21-22.8-42.9-29.5-66.2zm52.2 179.7c18.6 21.7 37.8 42.8 58.5 62.5-64 25.4-125.4 57.1-184.1 93 70.1-26.1 141.7-48.6 214.9-64.3 15.1 13.7 30.7 26.9 46.7 39.5-164.7 34.4-321.7 101.7-463.8 191.5-3.9 2.5-7.8 5.2-12.1 7.1-5.5 0.9-11.1 0.1-16.6-0.1-28-2-56.1-0.8-84.1-3.7 68.5-80 148.9-149.5 235.3-209.6 64.8-44.7 133.4-84 205.3-115.9zm153.5 79c129.5-21.3 262.2-24.2 392-4.1 5.3 0.9 10.6 1.8 16 2.5 210 32.3 408.6 122.2 580.9 245.1-66.3-43.5-137.3-79.9-210.4-110.5-96.6-40.3-197.5-70.1-300.6-88.4-15.5-2.6-31.1-4.8-46.5-7.7-7.7-1.4-15.5-2.3-23.3-3-117.9-13.7-237.9-13.4-355.3 5.2-17.9-12.6-35.6-25.6-52.8-39.1z"/>
	</g>
	<g id="#34333aea">
	</g>
</svg>